<?xml version="1.0" encoding="utf-8" ?>
<svg baseProfile="full" height="300mm" version="1.1" viewBox="0,0,200,300" width="200mm" xmlns="http://www.w3.org/2000/svg" xmlns:ev="http://www.w3.org/2001/xml-events" xmlns:xlink="http://www.w3.org/1999/xlink"><defs /><rect fill="#222222" height="300" width="200" x="0" y="0" /><text fill="#FFFFFF" style="font-size:12px; font-family:Arial; font-weight:bold;" x="10" y="20">Over 1km Runs</text><text fill="#FFFFFF" style="font-size:4px; font-family:Arial" x="10" y="280">ATHLETE</text><text fill="#FFFFFF" style="font-size:9px; font-family:Arial" x="10" y="290">Jiakai</text><text fill="#FFFFFF" style="font-size:4px; font-family:Arial" x="120" y="280">STATISTICS</text><text fill="#FFFFFF" style="font-size:3px; font-family:Arial" x="120" y="285">Number: 32</text><text fill="#FFFFFF" style="font-size:3px; font-family:Arial" x="120" y="290">Weekly: 5.3</text><text fill="#FFFFFF" style="font-size:3px; font-family:Arial" x="141" y="285">Total: 32.5 km</text><text fill="#FFFFFF" style="font-size:3px; font-family:Arial" x="141" y="290">Avg: 1.0 km</text><text fill="#FFFFFF" style="font-size:3px; font-family:Arial" x="167" y="285">Min: 1.0 km</text><text fill="#FFFFFF" style="font-size:3px; font-family:Arial" x="167" y="290">Max: 1.0 km</text><polyline fill="none" points="20.18480784073472,31.714285714318976 23.21004666760564,35.653513251338154 23.008364078588784,38.4985076750163 23.41172925569117,41.34349937993102 24.823507375083864,46.376939580310136 26.840333259664476,49.65961338719353 28.857159144245088,55.34957274328917 32.890810914337635,61.914896947098896 33.49585868045688,62.57142857136205 34.10090644471347,62.35258471244015 31.479032794944942,59.726457154145464 26.638650671578944,50.316147713921964 25.428555140271783,46.158094531157985 21.999951136298478,38.93619888345711" stroke="#4dd2ff" stroke-linecap="round" stroke-linejoin="round" stroke-width="0.5"><title>2023-10-18 1.0km</title><desc>10058081424</desc></polyline><polyline fill="none" points="58.185586917214096,33.58442410849966 59.90905624628067,43.63639913452789 64.43316323589534,55.55846785288304 67.44923456106335,61.870133195538074 68.74183655809611,62.57142857136205 69.38813755661249,62.57142857136205 69.8190048886463,61.63636803650297 68.31096922699362,59.766246139770374 66.37206623144448,56.72729571373202 63.786862237378955,51.11691806465387 62.70969390682876,47.84419319801964 58.185586917214096,38.727299022488296 57.75471958518028,37.32469759811647 57.32385225314647,31.714285714318976" stroke="#4dd2ff" stroke-linecap="round" stroke-linejoin="round" stroke-width="0.5"><title>2023-10-17 1.0km</title><desc>10051702317</desc></polyline><polyline fill="none" points="93.10943502094597,32.42637695069425 95.29691596608609,36.22419422632083 98.5781373847276,44.7692667611409 100.32812214177102,48.092344417003915 102.2968549914658,54.26376527477987 104.70308403298259,60.43517433665693 105.57807641103864,62.09670553030446 106.67181688267738,62.57142857136205 106.89056497812271,62.33406705968082 106.67181688267738,61.62198241939768 104.26558784302324,58.061556863132864 100.98436642531306,49.99124439875595 98.5781373847276,45.00662956410088 96.60940453410149,35.749467310495675 95.5156640606001,31.714285714086145" stroke="#4dd2ff" stroke-linecap="round" stroke-linejoin="round" stroke-width="0.5"><title>2023-10-16 1.0km</title><desc>10046279660</desc></polyline><polyline fill="none" points="130.10918202996254,31.714285714086145 131.01195194479078,33.67347788554616 131.9147218586877,38.08165605831891 133.94595416542143,44.93881051056087 136.65426390711218,49.10207596956752 139.8139586057514,60.85715035558678 140.94242099951953,62.08163488539867 142.52226834837347,62.57142857136205 142.7479608282447,62.08163488539867 142.52226834837347,60.612253395607695 139.58826612774283,56.44900232204236 138.00841877795756,51.551053220639005 136.20287895016372,48.61228030337952 131.9147218586877,38.571453273296356 130.33487450890243,31.714285714086145" stroke="#4dd2ff" stroke-linecap="round" stroke-linejoin="round" stroke-width="0.5"><title>2023-10-15 1.0km</title><desc>10039610121</desc></polyline><polyline fill="none" points="166.43582640681416,33.953926518093795 167.12382459826767,41.17053680634126 168.95848644152284,46.396348444744945 171.25181374512613,49.631370653398335 172.62781012803316,54.11062706960365 176.52646654378623,61.07834749016911 177.4437974644825,62.07373495097272 178.59046111721545,62.57142857136205 179.27845930773765,62.07373495097272 179.27845930773765,61.327194382669404 174.69180470053107,57.594489072449505 171.71047920547426,52.11984717193991 170.56381555460393,47.39174022292718 167.8118227897212,41.17053680634126 166.43582640681416,35.944717100355774 166.66515913791955,32.70968181011267 166.43582640681416,31.714285714318976" stroke="#4dd2ff" stroke-linecap="round" stroke-linejoin="round" stroke-width="0.5"><title>2023-10-14 1.0km</title><desc>10033377496</desc></polyline><polyline fill="none" points="20.14639133680612,66.48979815118946 24.208855353295803,71.3877756993752 24.66024024412036,75.06125413440168 28.497011815197766,86.81635790294968 32.10809093993157,95.38776158331893 33.23655316606164,96.85714285704307 34.139322948642075,96.85714285704307 34.139322948642075,96.12245230167173 33.913630502298474,95.38776158331893 31.882398494519293,93.91837966162711 29.625474042259157,89.75512736360542 27.142857142724097,81.91840304108337 22.62900823634118,71.87757305800915 21.951930900104344,68.44899003440514 20.823468673042953,65.99999999976717" stroke="#4dd2ff" stroke-linecap="round" stroke-linejoin="round" stroke-width="0.5"><title>2023-10-13 1.0km</title><desc>10028006924</desc></polyline><polyline fill="none" points="56.95054377801716,65.99999999976717 59.12132567726076,68.8266208707355 60.42379481717944,71.18213635729626 60.64087300840765,74.24430390191264 60.42379481717944,77.54201952298172 62.81165490671992,82.48858659085818 65.63367137685418,90.02619791263714 68.45568784605712,95.20829541049898 69.10692241601646,96.15049405558966 70.19231336563826,96.85714285704307 70.19231336563826,95.67939476761967 67.80445327609777,92.61724770930596 65.63367137685418,88.84844731283374 62.81165490671992,81.07528249360621 61.075029387138784,78.0131214777939 60.206716627813876,75.42205987102352" stroke="#4dd2ff" stroke-linecap="round" stroke-linejoin="round" stroke-width="0.5"><title>2023-10-12 1.0km</title><desc>10021974100</desc></polyline><polyline fill="none" points="96.39228888787329,70.37528501963243 97.24116209056228,74.98084159637801 97.02894379012287,76.82306233118288 98.93890849594027,83.04054931062274 100.42443660087883,85.80387289519422 101.90996470674872,90.86995980259962 104.03214771207422,95.93603851622902 104.45658431388438,96.39659072016366 105.51767581794411,96.85714285704307 105.30545751657337,95.93603851622902 102.97105620894581,89.94885370181873 100.42443660087883,85.57359602255747 97.02894379012287,77.74417229183018 96.18007058650255,74.75056392839178 95.75563398562372,70.37528501963243 94.48232418205589,66.0" stroke="#4dd2ff" stroke-linecap="round" stroke-linejoin="round" stroke-width="0.5"><title>2023-10-10 1.0km</title><desc>10009069592</desc></polyline><polyline fill="none" points="131.20113611407578,69.85715972981416 132.66481800191104,73.94120595348068 134.1284998897463,79.38659251178615 137.264961078763,86.19331219815649 139.77413002960384,94.81513558351435 141.2378119174391,96.85714285704307 141.65600674320012,96.1764739160426 141.86510415561497,93.6806865138933 140.4014222677797,89.36977624730207 137.264961078763,83.92440730403177 133.7103050649166,73.94120595348068 132.66481800191104,69.40337648196146 130.9920387007296,66.0" stroke="#4dd2ff" stroke-linecap="round" stroke-linejoin="round" stroke-width="0.5"><title>2023-10-09 1.0km</title><desc>10003389142</desc></polyline><polyline fill="none" points="166.57449386361986,65.99999999976717 168.1176006346941,67.91362977423705 169.660707404837,71.50168256671168 170.54248270206153,78.67777628172189 173.8491400666535,85.85385416913778 176.71490978263319,93.98672330845147 178.03757272846997,96.3787397746928 179.13979185000062,96.85714285704307 179.13979185000062,94.94353010645136 174.95135918818414,88.24587661447003 169.44026358053088,74.85052826954052 167.23582533653826,66.23920378368348" stroke="#4dd2ff" stroke-linecap="round" stroke-linejoin="round" stroke-width="0.5"><title>2023-10-08 1.0km</title><desc>9996447828</desc></polyline><polyline fill="none" points="23.181955601088703,106.45716826571152 24.197571380995214,110.20411626901478 27.244418720714748,118.35922220698558 28.260034501552582,121.88574763340876 31.510004996322095,130.04082179511897 32.52562077715993,131.14285714295693 32.72874393314123,130.261228897376 32.72874393314123,129.37960039288737 28.86940396949649,122.54697068920359 27.041295564733446,118.57963016722351 23.79132506903261,108.88166456692852 22.775709288194776,103.81226097233593 21.556970352306962,100.28571428568102" stroke="#4dd2ff" stroke-linecap="round" stroke-linejoin="round" stroke-width="0.5"><title>2023-10-07 1.0km</title><desc>9989974159</desc></polyline><polyline fill="none" points="61.05039695650339,109.47723709698766 62.663857189938426,114.72952310321853 63.87395236548036,117.35566263156943 66.29414271563292,127.64135347562842 66.89919030293822,129.61094979499467 68.10928547848016,131.14285714295693 69.11769812367857,131.14285714295693 69.52106318157166,130.2674816120416 69.31938065309078,129.61094979499467 66.89919030293822,126.10944432509132 64.47899995278567,120.85717839794233 63.67226983606815,117.35566263156943 59.43693672399968,107.06993624730967 58.83188913669437,103.34955837624148 57.621793961152434,100.28571428591385" stroke="#4dd2ff" stroke-linecap="round" stroke-linejoin="round" stroke-width="0.5"><title>2023-10-06 1.0km</title><desc>9984428862</desc></polyline><polyline fill="none" points="93.35686748288572,100.28571428568102 96.85325301811099,109.64405734348111 99.18417670857161,117.4848116573412 103.14674698095769,127.34896105783992 104.77839356474578,130.63700457429513 105.47767067141831,131.14285714295693 106.41004014853388,131.14285714295693 106.64313251618296,130.63700457429513 105.94385540857911,129.3723728240002 103.14674698095769,125.32554810238071 101.51510039810091,122.03749951045029 98.71799196954817,114.70261055929586 97.55253012571484,110.90869634458795 94.28923695906997,104.83842489868402 94.28923695906997,102.56207034527324" stroke="#4dd2ff" stroke-linecap="round" stroke-linejoin="round" stroke-width="0.5"><title>2023-10-04 1.0km</title><desc>9971682885</desc></polyline><polyline fill="none" points="131.75822200719267,103.889484224841 132.79607743304223,107.4932499253191 133.8339328598231,109.97083638515323 134.6642172029242,113.79982970026322 138.6080678254366,121.68303616298363 138.81563891097903,124.38584513752721 140.06106542423368,129.791455934057 140.47620759438723,130.46715661301278 141.72163410671055,131.14285714295693 141.72163410671055,128.89052146393806 139.0232099974528,123.93537714099512 137.15507022850215,119.65592786716297 136.11721480078995,117.62881823000498 135.07935937307775,114.7007686085999 133.003648519516,110.42130643571727 132.17336417734623,107.04277944448404 131.75822200719267,103.66424872819334 131.13550875056535,100.28571428568102" stroke="#4dd2ff" stroke-linecap="round" stroke-linejoin="round" stroke-width="0.5"><title>2023-10-03 1.0km</title><desc>9965060084</desc></polyline><polyline fill="none" points="167.21669466979802,101.56080827047117 170.0369187630713,110.74147112527862 170.50695611257106,114.82175792823546 172.15208683349192,116.86189952935092 173.32718020677567,119.92210968141444 175.44234827626497,127.827640080126 177.08747899718583,130.37780733266845 178.26257236953825,131.14285714295693 178.49759104382247,130.88784055807628 177.7925350209698,128.84770720568486 175.20732960198075,124.00238568522036 170.9769934611395,113.8016866769176 168.39178804215044,106.15114273503423 167.921750693582,100.28571428591385" stroke="#4dd2ff" stroke-linecap="round" stroke-linejoin="round" stroke-width="0.5"><title>2023-10-02 1.0km</title><desc>9958643020</desc></polyline><polyline fill="none" points="22.251649209298193,140.00230627693236 22.70664529595524,142.22402644297108 27.71160225197673,154.0731758326292 30.21408072952181,161.72572925779969 31.579068990424275,164.44114724872634 32.944057249464095,165.42857142863795 33.17155529372394,165.18171541090123 32.944057249464095,164.1942911585793 28.394096381030977,157.28231326374225 24.071633556857705,146.66746236407198 22.02415116596967,140.24916414590552 21.114158991724253,134.57142857159488" stroke="#4dd2ff" stroke-linecap="round" stroke-linejoin="round" stroke-width="0.5"><title>2023-10-01 1.0km</title><desc>9952075403</desc></polyline><polyline fill="none" points="59.140988394618034,139.043497659266 60.99559125956148,142.84475121321157 61.81985919829458,146.64600001671351 62.43806015420705,150.22364160930738 65.52906492911279,158.9441253603436 68.20793573465198,164.53416589647532 69.44433764368296,165.42857142863795 69.85647161491215,164.7577673040796 65.73513191472739,158.49692167411558 63.880529049783945,154.24848337029107 63.2623280948028,152.01246082712896 60.37739030458033,145.7515889608767 58.72885442432016,138.81989436061122 57.28638552874327,134.57142857159488" stroke="#4dd2ff" stroke-linecap="round" stroke-linejoin="round" stroke-width="0.5"><title>2023-09-30 1.0km</title><desc>9945549317</desc></polyline><polyline fill="none" points="95.22254389803857,134.57142857159488 97.27002508565784,138.02744267322123 97.95251881424338,140.74287982913665 99.77250209078193,145.18631771067157 100.68249373044819,151.85146350762807 101.36498745903373,153.8263189806603 104.09496237430722,160.49144762731157 104.77745610289276,164.6880033214111 105.23245192319155,165.18171541090123 105.91494565177709,165.42857142863795 106.14244356099516,164.93485937500373 102.04748118855059,157.52916986262426 99.31750627234578,151.1108924059663 98.40751463361084,147.4080344461836 95.22254389803857,140.00230627763085 93.85755643993616,135.55886153504252" stroke="#4dd2ff" stroke-linecap="round" stroke-linejoin="round" stroke-width="0.5"><title>2023-09-28 1.0km</title><desc>9933629332</desc></polyline><polyline fill="none" points="130.39642434101552,138.07793715852313 132.11989493761212,144.15587621671148 135.35140230506659,148.59743971959688 137.50574055034667,156.54548523994163 140.52181409392506,161.92209300305694 141.38354939222336,164.96104119508527 142.24528468959033,165.42857142863795 142.67615234013647,164.72727605258115 142.24528468959033,163.79221531096846 140.52181409392506,161.4545622537844 135.566836129874,151.40263452427462 132.9816302349791,144.3896428712178 130.18099051713943,134.57142857159488" stroke="#4dd2ff" stroke-linecap="round" stroke-linejoin="round" stroke-width="0.5"><title>2023-09-27 1.0km</title><desc>9927137811</desc></polyline><polyline fill="none" points="175.42055091448128,134.57142857142026 174.80533298058435,137.53850255330326 174.19011504692025,139.24456614098744 173.7116122096777,141.3215092229657 170.9089527335018,147.18143272364978 169.47344422177412,149.6292387903668 169.2000140286982,150.6677001756034 169.33672912488692,151.4836333715357 169.67851686594076,152.67044411454117 170.70388008886948,155.19241230812622 171.04566782992333,155.85999106866075 171.45581311918795,157.04679666348966 172.8229640829377,158.75282726017758 173.4381820166018,160.08797962759854 174.12175749894232,161.12643024756107 174.66861788439564,162.60992927890038 175.48890846292488,163.7225521208602 176.51427168562077,165.42857142857974" stroke="#4dd2ff" stroke-linecap="round" stroke-linejoin="round" stroke-width="0.5"><title>2023-09-26 1.0km</title><desc>9920397094</desc></polyline><polyline fill="none" points="26.99875147966668,168.8571428571595 25.653765290044248,173.33981003321242 24.308779100421816,175.7375099140918 23.05986335221678,177.30122504313476 22.387370258104056,178.55219590466004 22.09915893152356,179.80316566233523 22.195229372940958,181.36687630729284 22.67558158421889,182.6178435815964 23.828426889609545,184.3900453307433 24.308779100421816,186.1622448648559 25.269483521115035,188.45567626773845 27.094821921549737,190.7491039611632 30.169076069258153,197.00388790667057 32.18655535392463,199.71428571431898" stroke="#4dd2ff" stroke-linecap="round" stroke-linejoin="round" stroke-width="0.5"><title>2023-09-25 1.0km</title><desc>9914573673</desc></polyline><polyline fill="none" points="65.84636953147128,168.85714285710128 65.08805587841198,170.00915814639302 64.93639314780012,170.58516534627415 65.08805587841198,171.32574559631757 65.16388724371791,172.06632535607787 63.64725993666798,174.86406669241842 63.26810311013833,176.75665245385608 62.737283552996814,178.15551813342609 59.55236620828509,183.75096336600836 59.47653484297916,184.4092492008931 59.779860304202884,185.72581970965257 60.61400532303378,187.04238866950618 61.06899351533502,188.19438523880672 61.7514758030884,189.34638062218437 62.13063263008371,190.49837481981376 63.116440379526466,192.06179362011608 63.87475403258577,193.62521023646696 64.70889905188233,194.5303451739601 64.93639314780012,195.35319448186783 65.46721270494163,196.0114734925446 66.60468318546191,197.98630820197286 67.4388282042928,198.8914396124892 67.6663223002106,199.71428571426077" stroke="#4dd2ff" stroke-linecap="round" stroke-linejoin="round" stroke-width="0.5"><title>2023-09-24 1.0km</title><desc>9907510217</desc></polyline><polyline fill="none" points="101.15035673370585,168.8571428571595 100.50615696283057,169.85576687182765 100.04601426934823,170.85439015203156 99.76992865325883,172.15259931865148 99.67790011456236,173.85025558713824 98.11341495672241,175.9473574598087 97.19312956975773,178.34404134890065 96.36487272148952,179.54238170746248 95.81270148884505,181.14016720757354 95.72067295014858,182.8378122417489 97.65327226324007,187.73101252666675 98.38950057281181,189.22892745700665 100.78224257891998,193.0236378868576 101.79455650458112,195.5201521248091 103.08295604633167,197.11791882873513 103.81918435636908,198.4161028919043 104.27932704985142,199.71428571431898" stroke="#4dd2ff" stroke-linecap="round" stroke-linejoin="round" stroke-width="0.5"><title>2023-09-23 1.0km</title><desc>9901004991</desc></polyline><polyline fill="none" points="137.613439518027,168.8571428572759 136.99906347179785,170.00001310906373 136.3846874255687,172.00003362307325 134.98039931990206,174.95243921375368 133.57611121423542,176.95245208055712 132.34735912177712,180.28579999599606 132.2595911147073,182.09532812901307 132.43512712838128,183.1429485246772 134.19048726046458,187.333421633346 134.45379128027707,188.57151336653624 134.80486330669373,189.2381776557304 136.03361539868638,190.7619804572314 136.99906347179785,192.66673143778462 137.78897553123534,194.6667169535067 139.1054956302978,196.57146219268907 140.5975517425686,199.71428571431898" stroke="#4dd2ff" stroke-linecap="round" stroke-linejoin="round" stroke-width="0.5"><title>2023-09-22 1.0km</title><desc>9895405405</desc></polyline><polyline fill="none" points="174.49288820987567,168.8571428571595 174.24123507877812,169.76739406911656 173.737928816583,170.31354447512422 172.6474319146946,172.31609390175436 172.22801002953202,173.77249145018868 170.96974437357858,176.95835511386395 169.62759434059262,179.6890888713533 168.78875056980178,181.6916231320938 168.53709743870422,182.69288904755376 168.53709743870422,183.33005784486886 168.78875056980178,184.24029841506854 169.2920568319969,185.15053831611294 170.38255373435095,187.97227775584906 171.4730506357737,189.9747986176517 172.06024127500132,191.43117539188825 173.15073817688972,193.25164395046886 173.82181319314986,194.07085392868612 174.32511945581064,195.5272258843761 175.6672694887966,197.89382665860467 177.17718827584758,199.71428571431898" stroke="#4dd2ff" stroke-linecap="round" stroke-linejoin="round" stroke-width="0.5"><title>2023-09-21 1.0km</title><desc>9889267953</desc></polyline><polyline fill="none" points="30.284497963963076,203.1428571428405 29.18330427398905,206.44651685946155 28.535543280187994,209.04726222116733 27.499125689500943,211.22625964414328 26.26837980072014,214.88134094164707 24.130768520291895,218.88785630866187 23.54778362577781,221.06683130090823 23.612559724831954,221.55885722464882 24.001216321485117,222.61319763713982 24.843305614078417,224.440718264319 25.361514409072697,225.98707914323313 26.657036397373304,227.81459332065424 27.43434959021397,229.2906599138514 27.887782285921276,230.34499179926934 28.405991081148386,231.25874515942996 29.248080373741686,231.89134312799433 30.284497963963076,233.43769195559435 30.34927406348288,233.7188460191246 30.737930660136044,234.0" stroke="#4dd2ff" stroke-linecap="round" stroke-linejoin="round" stroke-width="0.5"><title>2023-09-20 1.0km</title><desc>9882714971</desc></polyline><polyline fill="none" points="66.13000518875197,203.1428571428405 65.4720854870975,204.80868944892427 64.22934827301651,208.45764646370662 64.15624608378857,209.64752108266111 63.717632949352264,210.28212034283206 63.20591762615368,211.4719929494313 62.913508869707584,212.58253953163512 62.3286913568154,214.08970806439174 60.6473410082981,216.7867412365158 60.20872787386179,218.37322818813846 60.062523495871574,219.80106445000274 60.20872787386179,221.22889882192248 60.6473410082981,222.8153792413068 61.159056331496686,223.92591414687922 62.76730449125171,226.70224640943343 63.57142857136205,227.81277731392765 64.30245046177879,229.79586537188152 65.03347235266119,231.06503981596325 65.76449424307793,232.096242952568 66.56861832318828,232.88947546394775 67.08033364685252,234.0" stroke="#4dd2ff" stroke-linecap="round" stroke-linejoin="round" stroke-width="0.5"><title>2023-09-19 1.0km</title><desc>9876194288</desc></polyline><polyline fill="none" points="99.7728684945032,203.1428571428405 99.22775288205594,204.03013314749114 98.31922686146572,205.8046833956614 98.04666905524209,206.9877155892318 96.41132221696898,209.8467057480011 95.13938578777015,212.50851869164035 94.86682798108086,213.49437399650924 94.95768058346584,214.57881399418693 95.50279619637877,215.95900908706244 96.32046961504966,217.43778796680272 97.04729043180123,219.5080756584648 98.04666905524209,221.67694505001418 99.13690028013662,223.6486414525425 100.13627890357748,224.93024255952332 101.31736273039132,226.90193417819683 102.0441835471429,229.16937595547643 103.31611997680739,231.14106134092435 103.95208819163963,232.91557570896111 105.13317201891914,234.0" stroke="#4dd2ff" stroke-linecap="round" stroke-linejoin="round" stroke-width="0.5"><title>2023-09-18 1.0km</title><desc>9870505463</desc></polyline><polyline fill="none" points="136.7386304019019,203.14285714295693 136.29568901099265,204.00802060449496 135.67557106446475,206.89189467474353 134.87827656138688,208.23770039726514 134.5239234487526,209.29511820711195 132.5749813299626,212.46736650564708 131.86627510515973,214.19768051523715 131.42333371471614,215.73573548987042 131.77768682688475,216.7931472355267 133.72662894567475,221.0227856655838 134.70110000483692,222.56083261140157 135.4098062296398,224.1950055086054 136.56145384535193,225.73304872273002 137.18157179281116,226.79045238276012 137.97886629542336,229.28976672538556 141.43380914255977,234.0" stroke="#4dd2ff" stroke-linecap="round" stroke-linejoin="round" stroke-width="0.5"><title>2023-09-16 1.0km</title><desc>9856514700</desc></polyline><polyline fill="none" points="172.43058981187642,203.1428571428405 171.4826941555366,206.02288594166748 170.25042980257422,207.9771878211759 167.69111153064296,212.91435935522895 167.5963219651021,214.04579204448964 167.69111153064296,215.3829385881545 168.25984892481938,216.72008385381196 169.20774458069354,218.16008501814213 170.06085067102686,220.11436994187534 171.57748372107744,222.68579331354704 173.4732750337571,226.28577809373382 173.6628541648388,227.62291293835733 174.3263811240904,228.13719523057807 175.08469764934853,229.1657592478441 176.31696200184524,231.22288501390722 177.64401592034847,232.35430289595388 177.92838461743668,233.07429561705794 178.11796374898404,234.0" stroke="#4dd2ff" stroke-linecap="round" stroke-linejoin="round" stroke-width="0.5"><title>2023-09-15 1.0km</title><desc>9850671982</desc></polyline><polyline fill="none" points="27.92732153274119,237.42857142863795 26.358392752707005,241.57836341531947 24.593347874470055,244.1320756461937 23.808883484452963,245.5153345563449 22.632186899427325,248.49465694918763 22.3380127530545,249.55869917443488 22.3380127530545,250.4099323907867 22.632186899427325,251.4739732077578 23.808883484452963,254.66609096468892 24.88752202084288,256.7941655574832 27.535089337732643,261.3695153357694 28.61372787412256,263.3911769090919 28.809843971394002,264.5616112659918 29.594308361876756,265.3064326364547 30.869062996003777,267.32808871008456 31.947701532393694,268.285714285681" stroke="#4dd2ff" stroke-linecap="round" stroke-linejoin="round" stroke-width="0.5"><title>2023-09-14 1.0km</title><desc>9844236351</desc></polyline><polyline fill="none" points="58.667280146153644,237.42857142863795 59.23178643966094,237.88798968982883 59.443476299755275,238.34740774834063 59.58460287330672,239.34281284629833 60.00798259326257,240.18507795553887 60.29023574013263,242.55873050674563 60.29023574013263,243.7072701213765 60.149109166814014,244.3198240644997 60.29023574013263,245.0855159869534 60.643052173545584,246.0043455506675 60.50192560022697,246.77003623446217 60.57248888700269,247.15288136521121 61.2781217538286,248.45455375715392 61.913191334111616,250.36877490743063 62.47769762761891,251.44073721469613 63.18333049467765,252.4361297976575 63.95952664804645,253.12524718226632 64.17121650814079,253.58465851878282 64.38290636823513,254.5800490527181 64.94741266197525,255.57543863519095 65.58248224202543,257.4130784418667 66.42924168216996,259.0210106129525 66.85262140235864,260.3992362122517 67.06431126245297,261.54775615158724 67.48769098287448,262.4665711914422 68.26388713624328,264.9933083707583 69.32233643694781,266.9840666796663 69.39289972372353,267.2903368509142 69.32233643694781,267.5200394203421 68.47557699633762,268.28571428573923 68.8989567165263,267.97944440710125 69.11064657685347,267.5200394203421 69.25177314993925,267.1372017766116 69.18120986362919,266.6012288388447 68.75783014344051,266.06525562517345 67.48769098287448,263.30881759885233 66.85262140235864,261.2414842916187 65.51191895548254,258.2553289362113 64.87684937519953,255.34573343140073 64.52403294178657,254.5034805839532 63.18333049467765,252.74240424711024 61.84262804733589,250.21563734480878 61.20755846705288,248.14827804663219 60.9958686074242,246.77003623446217 60.431362313451245,245.31522345391568 59.30234972666949,242.86500786116812 59.0200965795666,241.716467317543 58.03221056587063,239.87879981281003 57.82052070577629,238.88339522707975 57.7499574192334,237.65828058455372" stroke="#4dd2ff" stroke-linecap="round" stroke-linejoin="round" stroke-width="0.5"><title>2023-09-13 1.0km</title><desc>9837636972</desc></polyline></svg>