<svg xmlns="http://www.w3.org/2000/svg" xmlns:ev="http://www.w3.org/2001/xml-events" xmlns:xlink="http://www.w3.org/1999/xlink" width="200mm" height="300mm" baseProfile="full" version="1.1" viewBox="0 0 200 300"><rect width="200" height="300" x="0" y="0" fill="#222"/><text fill="#FFF" style="font-size:12px;font-family:Arial;font-weight:700" x="10" y="20">Over 1km Runs</text><text fill="#FFF" style="font-size:4px;font-family:Arial" x="10" y="280">ATHLETE</text><text fill="#FFF" style="font-size:9px;font-family:Arial" x="10" y="290">Jiakai</text><text fill="#FFF" style="font-size:4px;font-family:Arial" x="120" y="280">STATISTICS</text><text fill="#FFF" style="font-size:3px;font-family:Arial" x="120" y="285">Number: 65</text><text fill="#FFF" style="font-size:3px;font-family:Arial" x="120" y="290">Weekly: 5.9</text><text fill="#FFF" style="font-size:3px;font-family:Arial" x="141" y="285">Total: 67.4 km</text><text fill="#FFF" style="font-size:3px;font-family:Arial" x="141" y="290">Avg: 1.0 km</text><text fill="#FFF" style="font-size:3px;font-family:Arial" x="167" y="285">Min: 1.0 km</text><text fill="#FFF" style="font-size:3px;font-family:Arial" x="167" y="290">Max: 1.5 km</text><polyline fill="none" stroke="#4dd2ff" stroke-linecap="round" stroke-linejoin="round" stroke-width=".5" points="17.814 31.402 18.93 36.449 24.139 50.579 25.442 52.598 26 52.8 26.186 52.194 24.325 49.772 22.093 43.11 20.605 40.082 19.675 34.228 18.558 31.2"><title>2023-11-24 1.0km</title><desc>10271180196</desc></polyline><polyline fill="none" stroke="#4dd2ff" stroke-linecap="round" stroke-linejoin="round" stroke-width=".5" points="45.314 33.6 45.788 34.971 46.894 40.8 49.58 49.029 50.844 52.457 51.318 52.8 51.95 52.8 52.108 52.457 51.792 50.743 50.054 45.771 45.472 35.829 43.892 31.2"><title>2023-11-23 1.0km</title><desc>10265414399</desc></polyline><polyline fill="none" stroke="#4dd2ff" stroke-linecap="round" stroke-linejoin="round" stroke-width=".5" points="72.108 36.068 72.248 38.197 72.808 41.544 75.051 47.932 75.752 50.975 76.874 52.8 77.715 52.8 77.575 51.887 76.033 47.932 74.771 45.955 72.949 40.327 70.846 34.546 70.285 31.2"><title>2023-11-21 1.0km</title><desc>10253878272</desc></polyline><polyline fill="none" stroke="#4dd2ff" stroke-linecap="round" stroke-linejoin="round" stroke-width=".5" points="97.675 37.034 98.402 41.764 101.453 49.489 102.761 52.327 103.197 52.8 103.487 52.642 103.632 52.327 103.051 49.804 100.436 44.128 99.419 41.133 97.821 34.984 96.949 33.407 96.368 31.2"><title>2023-11-20 1.0km</title><desc>10248671423</desc></polyline><polyline fill="none" stroke="#4dd2ff" stroke-linecap="round" stroke-linejoin="round" stroke-width=".5" points="122.155 33 124.266 37.582 124.869 42.327 126.528 46.091 128.187 50.836 128.941 51.982 129.845 52.8 129.695 51.491 127.131 44.782 125.472 38.727 123.813 34.8 122.909 31.2"><title>2023-11-19 1.0km</title><desc>10242265034</desc></polyline><polyline fill="none" stroke="#4dd2ff" stroke-linecap="round" stroke-linejoin="round" stroke-width=".5" points="147.802 50.446 148.745 47.477 149.123 46.76 149.783 46.351 152.991 45.941 155.349 45.429 156.104 44.815 156.575 44.201 157.141 41.642 156.953 40.823 157.33 40.209 157.047 35.5 156.858 34.885 156.764 33.043 156.575 31.917 155.538 31.609 154.689 32.224 154.877 31.917 155.066 32.224 153.84 31.609 153.745 31.2 153.462 31.405 153.651 31.302 152.991 32.121 153.085 32.019 155.066 33.043 154.594 33.452 153.84 33.759 152.047 34.066 151.953 33.657 152.425 33.452 153.085 33.555 155.066 31.609 157.802 31.712 157.519 31.507 157.141 31.405 156.858 36.319 156.953 37.752 157.236 39.492 157.424 42.461 157.424 43.484 157.141 44.508 156.575 45.122 151.858 45.634 149.689 46.044 148.557 46.863 147.236 48.705 146.481 51.367 146.198 52.8"><title>2023-11-18 1.0km</title><desc>10236386505</desc></polyline><polyline fill="none" stroke="#4dd2ff" stroke-linecap="round" stroke-linejoin="round" stroke-width=".5" points="173.592 31.2 176.72 36.6 177.858 40.611 178.284 42.926 179.137 44.314 181.839 52.183 182.408 52.8 182.408 52.183 181.839 51.411 180.275 46.783 179.422 45.24 179.137 42.617 177.858 39.377 176.436 36.291 176.294 34.594"><title>2023-11-17 1.0km</title><desc>10231268371</desc></polyline><polyline fill="none" stroke="#4dd2ff" stroke-linecap="round" stroke-linejoin="round" stroke-width=".5" points="18.147 55.897 20.234 58.858 20.716 62.865 22.161 66 24.408 74.361 25.853 76.8 25.692 75.406 24.569 73.142 23.766 70.877 22.482 65.477 19.913 60.077 19.11 57.639 18.629 55.2"><title>2023-11-16 1.0km</title><desc>10225818993</desc></polyline><polyline fill="none" stroke="#4dd2ff" stroke-linecap="round" stroke-linejoin="round" stroke-width=".5" points="44.254 55.432 45.324 59.613 47.037 64.258 49.391 68.671 50.247 72.155 51.746 75.174 53.244 76.8 49.391 69.6 47.679 64.258 42.756 55.2"><title>2023-11-15 1.0km</title><desc>10219684298</desc></polyline><polyline fill="none" stroke="#4dd2ff" stroke-linecap="round" stroke-linejoin="round" stroke-width=".5" points="70.183 57.799 72.129 60.235 72.428 63.32 74.674 68.68 76.021 73.227 77.368 76.638 77.966 76.8 77.817 74.851 75.871 72.253 75.123 69.979 73.925 68.517 73.476 66.731 71.231 62.183 70.483 58.935 70.034 55.2"><title>2023-11-14 1.0km</title><desc>10213806154</desc></polyline><polyline fill="none" stroke="#4dd2ff" stroke-linecap="round" stroke-linejoin="round" stroke-width=".5" points="97.115 58.174 98.269 62.557 101.442 70.696 102.164 73.357 103.606 76.33 104.039 76.8 103.173 75.235 101.154 70.383 101.01 69.13 99.567 65.687 97.404 61.774 96.538 59.113 95.961 55.2"><title>2023-11-13 1.0km</title><desc>10208522228</desc></polyline><polyline fill="none" stroke="#4dd2ff" stroke-linecap="round" stroke-linejoin="round" stroke-width=".5" points="123.587 57.655 125.095 62.236 126.905 66 127.96 70.418 129.016 73.527 130.373 76.473 130.977 76.8 131.278 76.145 129.619 72.873 128.714 69.273 125.397 66.164 123.587 63.545 123.286 60.764 120.722 55.2"><title>2023-11-12 1.0km</title><desc>10202270880</desc></polyline><polyline fill="none" stroke="#4dd2ff" stroke-linecap="round" stroke-linejoin="round" stroke-width=".5" points="148.732 59.23 152.297 67.29 153.486 71.319 154.674 74.543 155.417 75.994 156.159 76.8 156.308 76.155 154.971 72.125 152.446 68.257 149.772 62.131 148.732 57.779 147.692 55.2"><title>2023-11-11 1.0km</title><desc>10196068378</desc></polyline><polyline fill="none" stroke="#4dd2ff" stroke-linecap="round" stroke-linejoin="round" stroke-width=".5" points="175.992 58.421 178.437 65.811 180.707 71.874 181.754 75.853 182.453 76.8 182.802 76.421 182.278 74.147 179.659 68.274 177.04 62.779 173.547 57.284 173.198 55.2"><title>2023-11-10 1.0km</title><desc>10191120477</desc></polyline><polyline fill="none" stroke="#4dd2ff" stroke-linecap="round" stroke-linejoin="round" stroke-width=".5" points="16.985 79.86 19.569 81.838 21.088 84.476 21.544 85.466 21.544 86.95 23.216 92.061 23.823 95.029 25.039 98.327 25.343 99.976 26.103 100.8 26.559 100.635 27.015 99.976 25.343 98.821 22.608 94.864 19.417 86.125 18.657 81.179 17.897 79.2"><title>2023-11-09 1.0km</title><desc>10185506531</desc></polyline><polyline fill="none" stroke="#4dd2ff" stroke-linecap="round" stroke-linejoin="round" stroke-width=".5" points="43.786 80.934 45.385 84.088 45.966 85.664 47.855 89.764 48.581 92.601 48.436 90.867 48.726 91.971 49.308 96.228 50.615 100.169 51.197 100.8 51.923 100.485 52.214 100.012 50.615 98.593 49.453 96.701 48.726 94.651 47.709 91.183 46.256 89.133 44.658 85.664 44.222 83.142 44.368 79.988 44.077 79.2"><title>2023-11-08 1.0km</title><desc>10179505859</desc></polyline><polyline fill="none" stroke="#4dd2ff" stroke-linecap="round" stroke-linejoin="round" stroke-width=".5" points="73.026 91.133 77.898 100.8 78.176 100.649 77.48 98.987 76.227 96.873 75.392 94.758 73.722 92.945 73.165 91.888 72.747 88.263 72.469 87.206 70.798 84.336 69.824 79.2"><title>2023-11-06 1.0km</title><desc>10167691585</desc></polyline><polyline fill="none" stroke="#4dd2ff" stroke-linecap="round" stroke-linejoin="round" stroke-width=".5" points="97.923 85.26 98.926 87.125 102.649 95.672 104.225 100.489 104.511 100.8 104.798 100.8 104.798 100.334 103.652 97.847 102.649 96.449 102.506 95.672 101.647 94.74 99.212 90.544 96.348 83.24 95.202 79.2"><title>2023-11-05 1.1km</title><desc>10161301187</desc></polyline><polyline fill="none" stroke="#4dd2ff" stroke-linecap="round" stroke-linejoin="round" stroke-width=".5" points="121.961 79.2 124.846 85.617 126.144 91.252 128.164 95.165 128.885 98.296 129.606 100.8 130.039 100.33 129.895 99.861 128.019 96.417 127.875 95.948 126.144 93.287 125.423 90.783 123.548 87.339 123.115 84.365 122.25 81.235"><title>2023-11-04 1.0km</title><desc>10155501797</desc></polyline><polyline fill="none" stroke="#4dd2ff" stroke-linecap="round" stroke-linejoin="round" stroke-width=".5" points="157.795 82.481 156.157 80.294 155.15 79.61 153.134 79.2 151.244 79.337 148.599 80.567 147.465 81.661 146.457 83.711 146.205 85.352 145.827 90.82 146.079 96.562 146.331 97.382 147.591 99.433 149.102 100.527 151.622 100.8 153.89 99.843 156.031 97.246 156.661 96.015 157.543 92.051 157.543 88.906 158.173 84.805 158.047 83.301 156.661 81.661 155.527 80.841 152.882 79.61 151.496 79.61 148.473 80.567 147.087 81.797 146.205 83.438 145.953 84.532 146.205 89.043 145.953 91.094"><title>2023-11-03 1.0km</title><desc>10152446508</desc></polyline><polyline fill="none" stroke="#4dd2ff" stroke-linecap="round" stroke-linejoin="round" stroke-width=".5" points="173.53 79.2 174.71 81.763 175.723 86.339 177.41 89.634 179.94 96.224 180.446 97.322 181.29 100.251 181.796 100.8 182.47 100.8 182.47 100.434 181.29 99.885 180.783 98.603 179.603 97.505 178.759 95.125 177.578 93.295 176.229 90.549 174.71 84.875 173.698 82.495"><title>2023-11-02 1.1km</title><desc>10144903556</desc></polyline><polyline fill="none" stroke="#4dd2ff" stroke-linecap="round" stroke-linejoin="round" stroke-width=".5" points="18.322 104.765 18.61 106.487 19.764 109.148 21.784 116.348 25.246 123.548 26.255 124.8 25.678 122.922 23.515 119.635 22.361 115.409 20.918 113.374 19.187 109.617 17.745 103.2"><title>2023-11-01 1.0km</title><desc>10138966680</desc></polyline><polyline fill="none" stroke="#4dd2ff" stroke-linecap="round" stroke-linejoin="round" stroke-width=".5" points="44.857 103.525 45.605 105.961 46.803 112.457 48.748 116.68 49.946 120.577 51.891 124.8 52.041 124.638 50.694 122.689 48.748 118.141 47.102 115.218 44.258 106.611 43.959 103.2"><title>2023-10-31 1.0km</title><desc>10133123337</desc></polyline><polyline fill="none" stroke="#4dd2ff" stroke-linecap="round" stroke-linejoin="round" stroke-width=".5" points="70.609 105.76 71.346 109.6 71.346 111.04 72.968 113.76 77.391 123.2 78.129 124.64 78.424 124.8 75.032 118.08 73.558 113.92 71.936 110.56 69.576 103.2"><title>2023-10-30 1.0km</title><desc>10127985445</desc></polyline><polyline fill="none" stroke="#4dd2ff" stroke-linecap="round" stroke-linejoin="round" stroke-width=".5" points="96.595 106.326 97.25 110.732 97.643 112.153 100.262 118.263 101.572 121.816 103.536 124.516 104.06 124.8 104.191 124.374 103.012 122.526 101.31 118.832 98.298 113.29 97.119 109.168 96.202 107.321 96.071 104.479 95.809 103.2"><title>2023-10-28 1.0km</title><desc>10115543824</desc></polyline><polyline fill="none" stroke="#4dd2ff" stroke-linecap="round" stroke-linejoin="round" stroke-width=".5" points="123.198 107.68 124.378 111.52 125.705 114.56 126.885 118.88 128.654 123.04 129.391 124.64 130.129 124.8 130.276 124.64 129.981 123.68 129.096 121.28 126.147 115.52 123.788 109.12 122.314 105.92 121.724 103.2"><title>2023-10-27 1.0km</title><desc>10110442644</desc></polyline><polyline fill="none" stroke="#4dd2ff" stroke-linecap="round" stroke-linejoin="round" stroke-width=".5" points="149.073 106.535 151.854 115.906 152.878 118.765 153.903 120.512 155.074 123.847 155.513 124.482 156.391 124.8 156.537 124.324 156.391 123.688 154.927 121.782 152.732 117.971 150.097 110.188 148.341 107.329 147.463 103.2"><title>2023-10-26 1.0km</title><desc>10104873905</desc></polyline><polyline fill="none" stroke="#4dd2ff" stroke-linecap="round" stroke-linejoin="round" stroke-width=".5" points="176.918 113.53 180.236 121.826 181.823 124.643 182.4 124.8 182.255 123.235 178.361 116.504 176.197 111.026 174.322 107.113 173.6 103.2"><title>2023-10-25 1.0km</title><desc>10098978222</desc></polyline><polyline fill="none" stroke="#4dd2ff" stroke-linecap="round" stroke-linejoin="round" stroke-width=".5" points="18.004 127.2 17.859 128.304 18.731 131.93 19.893 134.295 20.62 137.133 21.927 140.917 24.688 146.277 25.56 148.485 25.85 148.8 26.141 148.642 25.996 146.593 24.397 143.597 23.235 141.863 21.782 138.552 21.491 136.818 19.748 134.137 18.731 131.772 18.44 128.934 18.004 127.2"><title>2023-10-24 1.0km</title><desc>10092835699</desc></polyline><polyline fill="none" stroke="#4dd2ff" stroke-linecap="round" stroke-linejoin="round" stroke-width=".5" points="45.78 130.93 47.928 138.544 48.931 140.409 50.077 145.071 51.795 148.178 52.511 148.8 51.795 148.023 50.793 145.537 48.215 142.429 47.642 141.341 47.069 137.767 45.351 134.348 44.205 130.774 43.489 127.2"><title>2023-10-23 1.0km</title><desc>10087395010</desc></polyline><polyline fill="none" stroke="#4dd2ff" stroke-linecap="round" stroke-linejoin="round" stroke-width=".5" points="67.007 127.304 67.389 127.2 70.11 127.407 71.303 127.718 71.589 127.873 72.21 128.34 72.64 128.858 73.594 130.619 74.072 132.587 74.692 133.623 74.979 134.452 75.647 135.954 76.124 137.508 76.84 138.751 77.174 139.114 77.604 139.839 77.843 141.393 77.986 141.807 78.368 142.377 78.463 143.258 78.607 143.62 80.707 148.593 80.993 148.8 80.993 148.541 80.564 148.127 80.086 146.987 79.609 146.003 78.32 142.014"><title>2023-10-22 1.5km</title><desc>10080655811</desc></polyline><polyline fill="none" stroke="#4dd2ff" stroke-linecap="round" stroke-linejoin="round" stroke-width=".5" points="96.564 127.2 97.322 127.748 95.958 127.529 98.08 130.27 98.282 130.928 98.131 131.476 97.423 131.86 97.221 132.244 97.272 132.902 97.676 134.491 98.131 135.643 98.636 137.397 99.545 138.987 99.697 139.59 100.253 140.577 100.606 141.015 100.657 141.289 101.01 141.618 101.263 142.167 101.617 143.208 101.97 143.921 101.92 145.346 102.577 146.607 102.779 147.21 103.132 147.868 103.739 148.636 104.042 148.8 102.88 147.155 102.627 146.278 102.122 145.182 101.92 144.469 101.263 143.537 100.707 141.947"><title>2023-10-20 1.4km</title><desc>10069668027</desc></polyline><polyline fill="none" stroke="#4dd2ff" stroke-linecap="round" stroke-linejoin="round" stroke-width=".5" points="121.654 127.2 121.756 128.037 122.579 130.047 122.785 131.274 124.483 135.405 124.637 135.963 124.74 136.8 124.946 137.358 126.18 139.088 126.849 140.428 127.26 141.768 127.62 142.493 127.826 143.609 128.083 144.167 128.752 145.898 128.855 146.567 129.832 148.577 130.089 148.8 130.244 148.8 130.346 148.744 130.295 148.688 129.266 147.405 128.803 145.842 127.826 144.056 127.672 143.33 127.569 142.102"><title>2023-10-19 1.3km</title><desc>10064004415</desc></polyline><polyline fill="none" stroke="#4dd2ff" stroke-linecap="round" stroke-linejoin="round" stroke-width=".5" points="147.129 127.2 149.247 129.957 149.106 131.949 149.388 133.94 150.376 137.464 151.788 139.762 153.2 143.745 156.024 148.34 156.447 148.8 156.871 148.647 155.035 146.809 151.647 140.221 150.8 137.311 148.4 132.255"><title>2023-10-18 1.0km</title><desc>10058081424</desc></polyline><polyline fill="none" stroke="#4dd2ff" stroke-linecap="round" stroke-linejoin="round" stroke-width=".5" points="174.23 128.509 175.436 135.545 178.603 143.891 180.714 148.309 181.619 148.8 182.072 148.8 182.373 148.145 181.318 146.836 179.96 144.709 178.151 140.782 177.397 138.491 174.23 132.109 173.928 131.127 173.627 127.2"><title>2023-10-17 1.0km</title><desc>10051702317</desc></polyline><polyline fill="none" stroke="#4dd2ff" stroke-linecap="round" stroke-linejoin="round" stroke-width=".5" points="17.177 151.698 18.708 154.357 21.005 160.338 22.23 162.665 23.608 166.985 25.292 171.305 25.905 172.468 26.67 172.8 26.823 172.634 26.67 172.135 24.986 169.643 22.689 163.994 21.005 160.505 19.627 154.025 18.861 151.2"><title>2023-10-16 1.0km</title><desc>10046279660</desc></polyline><polyline fill="none" stroke="#4dd2ff" stroke-linecap="round" stroke-linejoin="round" stroke-width=".5" points="43.576 151.2 44.208 152.571 44.84 155.657 46.262 160.457 48.158 163.371 50.37 171.6 51.16 172.457 52.266 172.8 52.424 172.457 52.266 171.429 50.212 168.514 49.106 165.086 47.842 163.029 44.84 156 43.734 151.2"><title>2023-10-15 1.0km</title><desc>10039610121</desc></polyline><polyline fill="none" stroke="#4dd2ff" stroke-linecap="round" stroke-linejoin="round" stroke-width=".5" points="69.505 152.768 69.987 157.819 71.271 161.477 72.876 163.742 73.839 166.877 76.569 171.755 77.211 172.452 78.013 172.8 78.495 172.452 78.495 171.929 75.284 169.316 73.197 165.484 72.395 162.174 70.468 157.819 69.505 154.161 69.666 151.897 69.505 151.2"><title>2023-10-14 1.0km</title><desc>10033377496</desc></polyline><polyline fill="none" stroke="#4dd2ff" stroke-linecap="round" stroke-linejoin="round" stroke-width=".5" points="95.102 151.543 97.946 154.971 98.262 157.543 100.948 165.771 103.476 171.771 104.266 172.8 104.898 172.8 104.898 172.286 104.74 171.771 103.318 170.743 101.738 167.829 100 162.343 96.84 155.314 96.366 152.914 95.576 151.2"><title>2023-10-13 1.0km</title><desc>10028006924</desc></polyline><polyline fill="none" stroke="#4dd2ff" stroke-linecap="round" stroke-linejoin="round" stroke-width=".5" points="121.365 151.2 122.885 153.179 123.797 154.827 123.949 156.971 123.797 159.279 125.468 162.742 127.444 168.018 129.419 171.646 129.875 172.305 130.635 172.8 130.635 171.976 128.963 169.832 127.444 167.194 125.468 161.753 124.253 159.609 123.645 157.795"><title>2023-10-12 1.0km</title><desc>10021974100</desc></polyline><polyline fill="none" stroke="#4dd2ff" stroke-linecap="round" stroke-linejoin="round" stroke-width=".5" points="149.475 154.263 150.069 157.487 149.92 158.776 151.257 163.128 152.297 165.063 153.337 168.609 154.823 172.155 155.12 172.478 155.862 172.8 155.714 172.155 154.08 167.964 152.297 164.902 149.92 159.421 149.326 157.325 149.029 154.263 148.138 151.2"><title>2023-10-10 1.0km</title><desc>10009069592</desc></polyline><polyline fill="none" stroke="#4dd2ff" stroke-linecap="round" stroke-linejoin="round" stroke-width=".5" points="174.341 153.9 175.365 156.759 176.39 160.571 178.585 165.335 180.342 171.371 181.366 172.8 181.659 172.324 181.806 170.576 180.781 167.559 178.585 163.747 176.097 156.759 175.365 153.582 174.194 151.2"><title>2023-10-09 1.0km</title><desc>10003389142</desc></polyline><polyline fill="none" stroke="#4dd2ff" stroke-linecap="round" stroke-linejoin="round" stroke-width=".5" points="17.602 175.2 18.682 176.54 19.762 179.051 20.38 184.074 22.694 189.098 24.7 194.791 25.626 196.465 26.398 196.8 26.398 195.46 23.466 190.772 19.608 181.395 18.065 175.367"><title>2023-10-08 1.0km</title><desc>9996447828</desc></polyline><polyline fill="none" stroke="#4dd2ff" stroke-linecap="round" stroke-linejoin="round" stroke-width=".5" points="45.227 179.52 45.938 182.143 48.071 187.851 48.782 190.32 51.057 196.029 51.768 196.8 51.91 196.183 51.91 195.566 49.209 190.783 47.929 188.006 45.654 181.217 44.943 177.669 44.09 175.2"><title>2023-10-07 1.0km</title><desc>9989974159</desc></polyline><polyline fill="none" stroke="#4dd2ff" stroke-linecap="round" stroke-linejoin="round" stroke-width=".5" points="72.235 181.634 73.365 185.311 74.212 187.149 75.906 194.349 76.329 195.728 77.176 196.8 77.882 196.8 78.165 196.187 78.024 195.728 76.329 193.277 74.635 189.6 74.071 187.149 71.106 179.949 70.682 177.345 69.835 175.2"><title>2023-10-06 1.0km</title><desc>9984428862</desc></polyline><polyline fill="none" stroke="#4dd2ff" stroke-linecap="round" stroke-linejoin="round" stroke-width=".5" points="95.35 175.2 97.797 181.751 99.429 187.239 102.203 194.144 103.345 196.446 103.834 196.8 104.487 196.8 104.65 196.446 104.161 195.561 102.203 192.728 101.061 190.426 99.103 185.292 98.287 182.636 96.002 178.387 96.002 176.793"><title>2023-10-04 1.0km</title><desc>9971682885</desc></polyline><polyline fill="none" stroke="#4dd2ff" stroke-linecap="round" stroke-linejoin="round" stroke-width=".5" points="122.731 177.723 123.457 180.245 124.184 181.98 124.765 184.66 127.526 190.178 127.671 192.07 128.543 195.854 128.833 196.327 129.705 196.8 129.705 195.223 127.816 191.755 126.509 188.759 125.782 187.34 125.056 185.291 123.603 182.295 123.021 179.93 122.731 177.565 122.295 175.2"><title>2023-10-03 1.0km</title><desc>9965060084</desc></polyline><polyline fill="none" stroke="#4dd2ff" stroke-linecap="round" stroke-linejoin="round" stroke-width=".5" points="148.052 176.093 150.026 182.519 150.355 185.375 151.506 186.803 152.329 188.945 153.81 194.479 154.961 196.264 155.784 196.8 155.948 196.621 155.455 195.193 153.645 191.802 150.684 184.661 148.874 179.306 148.545 175.2"><title>2023-10-02 1.0km</title><desc>9958643020</desc></polyline><polyline fill="none" stroke="#4dd2ff" stroke-linecap="round" stroke-linejoin="round" stroke-width=".5" points="174.576 179.002 174.895 180.557 178.398 188.851 180.15 194.208 181.105 196.109 182.061 196.8 182.22 196.627 182.061 195.936 178.876 191.098 175.85 183.667 174.417 179.174 173.78 175.2"><title>2023-10-01 1.0km</title><desc>9952075403</desc></polyline><polyline fill="none" stroke="#4dd2ff" stroke-linecap="round" stroke-linejoin="round" stroke-width=".5" points="18.899 202.33 20.197 204.991 20.774 207.652 21.207 210.157 23.37 216.261 25.246 220.174 26.111 220.8 26.4 220.33 23.515 215.948 22.216 212.974 21.784 211.409 19.764 207.026 18.61 202.174 17.6 199.2"><title>2023-09-30 1.0km</title><desc>9945549317</desc></polyline><polyline fill="none" stroke="#4dd2ff" stroke-linecap="round" stroke-linejoin="round" stroke-width=".5" points="44.656 199.2 46.089 201.619 46.567 203.52 47.841 206.63 48.478 211.296 48.955 212.678 50.866 217.344 51.344 220.282 51.663 220.627 52.14 220.8 52.3 220.454 49.433 215.27 47.522 210.778 46.885 208.186 44.656 203.002 43.7 199.891"><title>2023-09-28 1.0km</title><desc>9933629332</desc></polyline><polyline fill="none" stroke="#4dd2ff" stroke-linecap="round" stroke-linejoin="round" stroke-width=".5" points="69.777 201.655 70.984 205.909 73.246 209.018 74.754 214.582 76.865 218.345 77.468 220.473 78.072 220.8 78.373 220.309 78.072 219.655 76.865 218.018 73.397 210.982 71.587 206.073 69.627 199.2"><title>2023-09-27 1.0km</title><desc>9927137811</desc></polyline><polyline fill="none" stroke="#4dd2ff" stroke-linecap="round" stroke-linejoin="round" stroke-width=".5" points="101.794 199.2 101.364 201.277 100.933 202.471 100.598 203.925 98.636 208.027 97.631 209.74 97.44 210.467 97.536 211.039 97.775 211.869 98.493 213.635 98.732 214.102 99.019 214.933 99.976 216.127 100.407 217.062 100.885 217.789 101.268 218.827 101.842 219.606 102.56 220.8"><title>2023-09-26 1.0km</title><desc>9920397094</desc></polyline><polyline fill="none" stroke="#4dd2ff" stroke-linecap="round" stroke-linejoin="round" stroke-width=".5" points="125.899 199.2 124.958 202.338 124.016 204.016 123.142 205.111 122.671 205.987 122.469 206.862 122.537 207.957 122.873 208.832 123.68 210.073 124.016 211.314 124.689 212.919 125.966 214.524 128.118 218.903 129.531 220.8"><title>2023-09-25 1.0km</title><desc>9914573673</desc></polyline><polyline fill="none" stroke="#4dd2ff" stroke-linecap="round" stroke-linejoin="round" stroke-width=".5" points="153.592 199.2 153.062 200.006 152.955 200.41 153.062 200.928 153.115 201.446 152.053 203.405 151.788 204.73 151.416 205.709 149.187 209.626 149.134 210.086 149.346 211.008 149.93 211.93 150.248 212.736 150.726 213.542 150.991 214.349 151.682 215.443 152.212 216.538 152.796 217.171 152.955 217.747 153.327 218.208 154.123 219.59 154.707 220.224 154.866 220.8"><title>2023-09-24 1.0km</title><desc>9907510217</desc></polyline><polyline fill="none" stroke="#4dd2ff" stroke-linecap="round" stroke-linejoin="round" stroke-width=".5" points="178.805 199.2 178.354 199.899 178.032 200.598 177.839 201.507 177.775 202.695 176.679 204.163 176.035 205.841 175.455 206.68 175.069 207.798 175.004 208.986 176.357 212.412 176.873 213.46 178.548 216.117 179.256 217.864 180.158 218.983 180.673 219.891 180.996 220.8"><title>2023-09-23 1.0km</title><desc>9901004991</desc></polyline><polyline fill="none" stroke="#4dd2ff" stroke-linecap="round" stroke-linejoin="round" stroke-width=".5" points="22.829 223.2 22.399 224 21.969 225.4 20.986 227.467 20.003 228.867 19.143 231.2 19.082 232.467 19.205 233.2 20.433 236.133 20.618 237 20.863 237.467 21.724 238.533 22.399 239.867 22.952 241.267 23.874 242.6 24.918 244.8"><title>2023-09-22 1.0km</title><desc>9895405405</desc></polyline><polyline fill="none" stroke="#4dd2ff" stroke-linecap="round" stroke-linejoin="round" stroke-width=".5" points="49.145 223.2 48.969 223.837 48.617 224.219 47.853 225.621 47.56 226.641 46.679 228.871 45.739 230.782 45.152 232.184 44.976 232.885 44.976 233.331 45.152 233.968 45.504 234.605 46.268 236.581 47.031 237.982 47.442 239.002 48.206 240.276 48.675 240.85 49.028 241.869 49.967 243.526 51.024 244.8"><title>2023-09-21 1.0km</title><desc>9889267953</desc></polyline><polyline fill="none" stroke="#4dd2ff" stroke-linecap="round" stroke-linejoin="round" stroke-width=".5" points="76.199 223.2 75.428 225.513 74.975 227.333 74.249 228.858 73.388 231.417 71.892 234.221 71.483 235.747 71.529 236.091 71.801 236.829 72.39 238.109 72.753 239.191 73.66 240.47 74.204 241.503 74.521 242.241 74.884 242.881 75.474 243.324 76.199 244.406 76.244 244.603 76.517 244.8"><title>2023-09-20 1.0km</title><desc>9882714971</desc></polyline><polyline fill="none" stroke="#4dd2ff" stroke-linecap="round" stroke-linejoin="round" stroke-width=".5" points="101.791 223.2 101.33 224.366 100.461 226.92 100.409 227.753 100.102 228.197 99.744 229.03 99.539 229.808 99.13 230.863 97.953 232.751 97.646 233.861 97.544 234.861 97.646 235.86 97.953 236.971 98.311 237.748 99.437 239.692 100 240.469 100.512 241.857 101.023 242.746 101.535 243.467 102.098 244.023 102.456 244.8"><title>2023-09-19 1.0km</title><desc>9876194288</desc></polyline><polyline fill="none" stroke="#4dd2ff" stroke-linecap="round" stroke-linejoin="round" stroke-width=".5" points="125.841 223.2 125.459 223.821 124.823 225.063 124.633 225.891 123.488 227.893 122.598 229.756 122.407 230.446 122.47 231.205 122.852 232.171 123.424 233.206 123.933 234.656 124.633 236.174 125.396 237.554 126.095 238.451 126.922 239.831 127.431 241.419 128.321 242.799 128.766 244.041 129.593 244.8"><title>2023-09-18 1.0km</title><desc>9870505463</desc></polyline><polyline fill="none" stroke="#4dd2ff" stroke-linecap="round" stroke-linejoin="round" stroke-width=".5" points="152.217 223.2 151.907 223.806 151.473 225.824 150.915 226.766 150.667 227.507 149.302 229.727 148.806 230.938 148.496 232.015 148.744 232.755 150.109 235.716 150.791 236.793 151.287 237.937 152.093 239.013 152.527 239.753 153.085 241.503 155.504 244.8"><title>2023-09-16 1.0km</title><desc>9856514700</desc></polyline><polyline fill="none" stroke="#4dd2ff" stroke-linecap="round" stroke-linejoin="round" stroke-width=".5" points="177.701 223.2 177.038 225.216 176.175 226.584 174.384 230.04 174.317 230.832 174.384 231.768 174.782 232.704 175.445 233.712 176.043 235.08 177.104 236.88 178.431 239.4 178.564 240.336 179.028 240.696 179.559 241.416 180.422 242.856 181.351 243.648 181.55 244.152 181.683 244.8"><title>2023-09-15 1.0km</title><desc>9850671982</desc></polyline><polyline fill="none" stroke="#4dd2ff" stroke-linecap="round" stroke-linejoin="round" stroke-width=".5" points="22.549 247.2 21.451 250.105 20.215 251.892 19.666 252.861 18.843 254.946 18.637 255.691 18.637 256.287 18.843 257.032 19.666 259.266 20.421 260.756 22.275 263.959 23.03 265.374 23.167 266.193 23.716 266.715 24.608 268.13 25.363 268.8"><title>2023-09-14 1.0km</title><desc>9844236351</desc></polyline><polyline fill="none" stroke="#4dd2ff" stroke-linecap="round" stroke-linejoin="round" stroke-width=".5" points="44.567 247.2 44.962 247.522 45.11 247.843 45.209 248.54 45.506 249.13 45.703 250.791 45.703 251.595 45.604 252.024 45.703 252.56 45.95 253.203 45.851 253.739 45.901 254.007 46.395 254.918 46.839 256.258 47.234 257.009 47.728 257.705 48.272 258.188 48.42 258.509 48.568 259.206 48.963 259.903 49.408 261.189 50 262.315 50.297 263.279 50.445 264.083 50.741 264.727 51.285 266.495 52.026 267.889 52.075 268.103 52.026 268.264 51.433 268.8 51.729 268.586 51.877 268.264 51.976 267.996 51.927 267.621 51.63 267.246 50.741 265.316 50.297 263.869 49.358 261.779 48.914 259.742 48.667 259.152 47.728 257.92 46.79 256.151 46.345 254.704 46.197 253.739 45.802 252.721 45.012 251.006 44.814 250.202 44.123 248.915 43.974 248.218 43.925 247.361"><title>2023-09-13 1.0km</title><desc>9837636972</desc></polyline></svg>