<svg xmlns="http://www.w3.org/2000/svg" xmlns:ev="http://www.w3.org/2001/xml-events" xmlns:xlink="http://www.w3.org/1999/xlink" width="200mm" height="300mm" baseProfile="full" version="1.1" viewBox="0 0 200 300"><rect width="200" height="300" x="0" y="0" fill="#222"/><text fill="#FFF" style="font-size:12px;font-family:Arial;font-weight:700" x="10" y="20">Over 1km Runs</text><text fill="#FFF" style="font-size:4px;font-family:Arial" x="10" y="280">ATHLETE</text><text fill="#FFF" style="font-size:9px;font-family:Arial" x="10" y="290">Jiakai</text><text fill="#FFF" style="font-size:4px;font-family:Arial" x="120" y="280">STATISTICS</text><text fill="#FFF" style="font-size:3px;font-family:Arial" x="120" y="285">Number: 98</text><text fill="#FFF" style="font-size:3px;font-family:Arial" x="120" y="290">Weekly: 5.4</text><text fill="#FFF" style="font-size:3px;font-family:Arial" x="141" y="285">Total: 101.5 km</text><text fill="#FFF" style="font-size:3px;font-family:Arial" x="141" y="290">Avg: 1.0 km</text><text fill="#FFF" style="font-size:3px;font-family:Arial" x="167" y="285">Min: 1.0 km</text><text fill="#FFF" style="font-size:3px;font-family:Arial" x="167" y="290">Max: 1.5 km</text><polyline fill="none" stroke="#4dd2ff" stroke-linecap="round" stroke-linejoin="round" stroke-width=".5" points="16.63 31 17.667 35.078 19.87 42.25 21.426 45.203 22.333 48.016 22.981 48.859 23.37 49 23.37 48.438 20.648 42.672 18.186 36.344 16.63 33.25"><title>2024-01-16 1.0km</title><desc>10566280205</desc></polyline><polyline fill="none" stroke="#4dd2ff" stroke-linecap="round" stroke-linejoin="round" stroke-width=".5" points="36.383 31.406 38.254 35.331 39.751 40.474 41.497 43.992 42.993 48.323 43.368 49 43.617 49 39.875 41.286 39.002 38.579 38.379 36.143 37.506 34.383 36.632 31"><title>2024-01-09 1.0km</title><desc>10520988068</desc></polyline><polyline fill="none" stroke="#4dd2ff" stroke-linecap="round" stroke-linejoin="round" stroke-width=".5" points="56.757 32.489 57.381 35.06 58.628 37.767 60.873 44.669 62.619 48.594 62.993 49 63.243 48.729 62.869 47.241 62.245 46.293 60.374 41.421 58.628 37.767 57.131 31"><title>2024-01-07 1.0km</title><desc>10508221625</desc></polyline><polyline fill="none" stroke="#4dd2ff" stroke-linecap="round" stroke-linejoin="round" stroke-width=".5" points="78.587 36.333 78.833 37.667 79.939 40.467 80.922 43.8 82.888 48.6 83.379 49 83.379 48.067 82.273 46.2 81.659 44.2 79.201 39 78.341 36.733 77.727 35.667 76.621 31"><title>2024-01-06 1.0km</title><desc>10501510624</desc></polyline><polyline fill="none" stroke="#4dd2ff" stroke-linecap="round" stroke-linejoin="round" stroke-width=".5" points="97.622 34.273 98.55 36.538 99.246 39.434 100.406 43.21 101.682 45.979 102.494 47.993 102.958 48.748 103.422 49 103.306 48.119 102.726 46.734 98.898 39.434 98.202 37.294 97.97 35.28 97.158 33.14 96.578 31"><title>2024-01-05 1.0km</title><desc>10495609202</desc></polyline><polyline fill="none" stroke="#4dd2ff" stroke-linecap="round" stroke-linejoin="round" stroke-width=".5" points="116.207 31 116.978 32.814 117.621 34.767 118.521 36.581 120.193 41.326 122.25 46.07 123.022 48.581 123.536 49 123.793 48.302 123.665 47.326 120.579 41.047 119.55 37.419 118.521 31.558"><title>2024-01-04 1.0km</title><desc>10489071805</desc></polyline><polyline fill="none" stroke="#4dd2ff" stroke-linecap="round" stroke-linejoin="round" stroke-width=".5" points="137.5 34.309 139.085 38.676 141.037 43.044 142.013 46.75 142.866 49 142.988 49 142.988 48.074 142.378 45.824 141.159 43.044 140.183 40.265 138.597 37.088 137.622 34.176 137.012 32.324 137.378 31"><title>2024-01-03 1.0km</title><desc>10482519748</desc></polyline><polyline fill="none" stroke="#4dd2ff" stroke-linecap="round" stroke-linejoin="round" stroke-width=".5" points="156.367 31.298 159.52 40.521 162.81 48.405 163.496 49 163.633 48.405 163.222 47.364 159.794 40.818 158.561 37.545 156.778 31"><title>2024-01-01 1.0km</title><desc>10470902913</desc></polyline><polyline fill="none" stroke="#4dd2ff" stroke-linecap="round" stroke-linejoin="round" stroke-width=".5" points="187.617 35.408 187.391 35.776 185.021 37.49 184.006 38.592 183.329 39.816 182.877 40.429 182.539 40.551 181.072 40.551 179.718 41.041 177.912 40.918 177.01 40.551 176.446 39.694 176.107 38.959 175.994 37.245 175.656 36.51 174.302 36.51 173.173 36.878 173.06 37 173.512 37.245 173.737 37 172.947 37 172.722 36.755 172.496 35.898 172.383 34.429 172.947 34.551 173.399 35.531 174.414 36.633 175.204 36.633 175.881 36.143 176.446 36.265 176.558 36.02 175.543 33.082 175.317 32.959 174.076 32.837 172.835 32.959 173.625 32.959 172.496 31.735 172.383 31 172.722 31.49 173.06 33.082 173.399 33.816 173.737 35.408 173.06 39.571 173.85 43.367 174.527 44.469 174.64 46.306 175.656 49"><title>2023-12-31 1.5km</title><desc>10466792666</desc></polyline><polyline fill="none" stroke="#4dd2ff" stroke-linecap="round" stroke-linejoin="round" stroke-width=".5" points="17.613 57.273 18.926 61.935 20.716 65.691 22.267 70.094 22.745 71 22.984 71 23.103 69.964 22.626 68.54 20.477 64.137 20.477 62.971 18.926 59.604 18.687 57.014 18.21 55.46 16.897 53"><title>2023-12-30 1.0km</title><desc>10458865202</desc></polyline><polyline fill="none" stroke="#4dd2ff" stroke-linecap="round" stroke-linejoin="round" stroke-width=".5" points="40.979 53 38.712 53.224 37.167 54.23 36.033 55.348 35.518 56.689 35.106 61.944 35.621 67.199 35.827 67.981 36.136 68.652 37.785 70.441 39.639 71 41.082 70.776 42.833 69.658 43.864 68.764 44.894 65.745 44.791 63.398 44.482 61.385 44.276 56.466 43.967 55.236 43.348 54.453 42.627 53.894 40.979 53.559 38.712 53.671 37.064 54.565 36.239 55.571 35.621 57.137 35.621 57.919 35.93 59.82 35.724 61.385"><title>2023-12-29 1.0km</title><desc>10454615358</desc></polyline><polyline fill="none" stroke="#4dd2ff" stroke-linecap="round" stroke-linejoin="round" stroke-width=".5" points="57.487 54.909 59.246 61.182 62.011 69.636 62.89 71 63.016 71 63.016 69.636 61.131 63.909 59.623 60.227 58.618 58.318 56.984 53"><title>2023-12-27 1.0km</title><desc>10441997651</desc></polyline><polyline fill="none" stroke="#4dd2ff" stroke-linecap="round" stroke-linejoin="round" stroke-width=".5" points="76.607 55.318 78.618 59.273 79.623 63.364 81.005 65.955 82.639 70.182 83.142 71 83.393 70.864 82.513 68.273 81.257 66.364 77.235 56.818 76.984 54.227 76.607 53"><title>2023-12-17 1.0km</title><desc>10391591057</desc></polyline><polyline fill="none" stroke="#4dd2ff" stroke-linecap="round" stroke-linejoin="round" stroke-width=".5" points="97.08 56.169 98.481 59.845 100.818 64.408 102.92 70.493 103.388 71 103.505 70.873 103.505 70.366 102.92 68.718 99.766 62.507 98.365 58.704 97.313 54.394 96.495 53"><title>2023-12-16 1.0km</title><desc>10386207035</desc></polyline><polyline fill="none" stroke="#4dd2ff" stroke-linecap="round" stroke-linejoin="round" stroke-width=".5" points="117.568 56.383 118.067 58.684 119.813 63.962 120.811 65.586 122.183 70.053 122.557 71 122.806 71 122.806 69.647 120.935 63.962 118.316 59.902 118.191 58.278 117.443 56.383 117.693 55.165 117.194 53"><title>2023-12-14 1.0km</title><desc>10376526598</desc></polyline><polyline fill="none" stroke="#4dd2ff" stroke-linecap="round" stroke-linejoin="round" stroke-width=".5" points="143.864 54.565 142.936 53.783 141.391 53.112 139.948 53 138.506 53.335 136.652 54.342 135.827 55.46 135.209 57.36 135.209 61.609 135.415 62.95 135.827 64.627 135.518 66.64 135.621 67.422 135.724 67.87 136.755 69.658 138.403 70.888 138.918 71 139.948 71 140.979 71 142.833 70.329 143.864 69.323 144.482 68.205 144.688 65.745 144.791 64.068 144.482 62.056 144.688 59.373 144.585 57.025 144.482 56.242 143.761 54.677 143.451 54.342 142.318 53.559 140.052 53.335 138.609 53.559 137.785 53.894 136.239 55.571 135.621 57.919 135.827 59.484"><title>2023-12-13 1.0km</title><desc>10373769329</desc></polyline><polyline fill="none" stroke="#4dd2ff" stroke-linecap="round" stroke-linejoin="round" stroke-width=".5" points="157.834 55.552 159.072 60.657 160.309 63.343 162.785 70.328 163.281 71 163.528 71 163.652 70.463 163.157 69.657 161.176 66.299 158.329 60.522 157.957 58.776 156.596 55.821 156.348 53"><title>2023-12-12 1.0km</title><desc>10365882163</desc></polyline><polyline fill="none" stroke="#4dd2ff" stroke-linecap="round" stroke-linejoin="round" stroke-width=".5" points="176.495 53 177.78 55.789 179.533 60.225 180.818 62.634 182.687 68.465 182.92 69.986 183.388 71 183.505 70.113 183.271 69.099 180.818 63.521 179.065 60.099 178.598 58.704 178.248 55.789 177.313 53.127"><title>2023-12-11 1.0km</title><desc>10361067591</desc></polyline><polyline fill="none" stroke="#4dd2ff" stroke-linecap="round" stroke-linejoin="round" stroke-width=".5" points="20.361 85.044 22.765 92.348 22.885 92.739 23.366 93 23.486 92.87 23.125 91.957 22.043 89.87 20.841 86.609 17.476 79.826 16.514 75"><title>2023-12-10 1.0km</title><desc>10355395415</desc></polyline><polyline fill="none" stroke="#4dd2ff" stroke-linecap="round" stroke-linejoin="round" stroke-width=".5" points="36.829 76.191 38.902 79.5 39.878 83.603 41.952 89.426 42.683 92.603 43.171 93 43.293 92.868 43.293 92.603 43.049 91.544 40.488 86.382 39.878 84.926 39.512 82.676 38.902 80.956 37.926 79.235 37.804 77.382 36.707 75"><title>2023-12-09 1.0km</title><desc>10350143310</desc></polyline><polyline fill="none" stroke="#4dd2ff" stroke-linecap="round" stroke-linejoin="round" stroke-width=".5" points="58.081 78.493 58.824 81.179 60.433 85.075 62.662 91.522 63.652 93 63.528 91.657 62.785 89.373 60.805 85.881 59.567 82.925 58.205 80.776 57.834 78.627 56.348 75"><title>2023-12-08 1.0km</title><desc>10345303898</desc></polyline><polyline fill="none" stroke="#4dd2ff" stroke-linecap="round" stroke-linejoin="round" stroke-width=".5" points="77.1 75 77.332 75.629 77.796 77.266 78.028 79.531 78.492 81.42 80.116 85.448 81.16 89.098 82.204 91.364 82.436 93 82.668 92.874 82.9 92.622 82.9 92.245 82.32 90.734 80.464 87.587 78.26 81.168 77.68 78.524"><title>2023-12-07 1.0km</title><desc>10340288256</desc></polyline><polyline fill="none" stroke="#4dd2ff" stroke-linecap="round" stroke-linejoin="round" stroke-width=".5" points="96.658 75 97.374 76.683 98.687 82.252 100.597 85.748 102.148 90.022 102.864 92.741 103.222 93 103.342 92.094 103.103 90.928 101.193 86.914 99.881 84.971 99.165 83.547 96.778 75.388"><title>2023-12-06 1.0km</title><desc>10334845031</desc></polyline><polyline fill="none" stroke="#4dd2ff" stroke-linecap="round" stroke-linejoin="round" stroke-width=".5" points="118.341 78.103 119.142 82.2 119.943 85.179 121.888 90.269 122.917 92.628 123.26 93 122.803 90.766 121.659 88.655 120.629 85.676 119.142 82.572 118.456 80.214 117.312 77.731 116.74 75"><title>2023-12-05 1.0km</title><desc>10329306344</desc></polyline><polyline fill="none" stroke="#4dd2ff" stroke-linecap="round" stroke-linejoin="round" stroke-width=".5" points="136.694 76.51 137.506 77.769 138.55 81.42 140.638 86.58 141.682 90.105 142.61 92.119 143.306 93 143.306 92.371 140.29 85.448 139.13 81.545 137.854 78.65 136.926 75"><title>2023-12-04 1.0km</title><desc>10324662812</desc></polyline><polyline fill="none" stroke="#4dd2ff" stroke-linecap="round" stroke-linejoin="round" stroke-width=".5" points="156.874 76.662 158.15 81.508 160.191 86.077 161.595 90.923 162.616 92.862 163.381 93 163.381 92.446 162.488 90.923 161.34 87.6 160.064 85.662 159.171 83.308 157.639 77.769 156.619 75"><title>2023-12-02 1.0km</title><desc>10313350310</desc></polyline><polyline fill="none" stroke="#4dd2ff" stroke-linecap="round" stroke-linejoin="round" stroke-width=".5" points="176.733 75.955 177.989 77.591 179.497 82.773 180.503 87 182.136 91.636 183.142 93 183.267 92.182 183.016 90.545 181.634 87.545 179.497 84.136 178.241 81.545 176.984 75"><title>2023-12-01 1.0km</title><desc>10308709030</desc></polyline><polyline fill="none" stroke="#4dd2ff" stroke-linecap="round" stroke-linejoin="round" stroke-width=".5" points="16.682 97 19.171 105.55 21.659 110.65 23.041 114.4 23.456 115 23.594 114.55 23.041 113.05 20.968 110.2 20.415 108.7 18.341 104.65 17.374 100 16.406 97.3"><title>2023-11-30 1.0km</title><desc>10303537703</desc></polyline><polyline fill="none" stroke="#4dd2ff" stroke-linecap="round" stroke-linejoin="round" stroke-width=".5" points="37.941 100.848 38.742 103.455 39.085 105.566 40.343 108.048 41.716 111.772 43.089 114.752 43.318 115 43.546 114.752 43.318 113.883 42.402 112.269 41.144 108.793 39.314 105.069 38.627 101.097 37.254 98.986 36.454 97"><title>2023-11-29 1.0km</title><desc>10298007687</desc></polyline><polyline fill="none" stroke="#4dd2ff" stroke-linecap="round" stroke-linejoin="round" stroke-width=".5" points="56.897 99.331 58.21 102.698 58.449 105.158 60.119 109.173 61.074 112.799 61.909 114.482 62.745 115 63.103 115 63.342 114.612 63.222 114.094 62.745 113.187 60.835 108.137 58.926 103.734 58.568 101.662 57.733 99.201 56.658 97"><title>2023-11-28 1.0km</title><desc>10292316108</desc></polyline><polyline fill="none" stroke="#4dd2ff" stroke-linecap="round" stroke-linejoin="round" stroke-width=".5" points="79.577 97 80.634 99.866 81.268 102.618 82.113 103.879 83.064 105.713 84.015 108.694 84.86 110.07 84.86 110.758 84.332 111.217 82.641 112.134 81.585 113.051 80.528 113.624 78.943 114.312 76.408 115 75.985 114.885 75.668 114.541 75.14 112.363"><title>2023-11-27 1.0km</title><desc>10287544518</desc></polyline><polyline fill="none" stroke="#4dd2ff" stroke-linecap="round" stroke-linejoin="round" stroke-width=".5" points="98.26 100.902 98.84 102.287 100.232 109.336 101.74 112.986 102.552 114.371 103.132 115 103.248 114.874 102.9 114.245 102.9 113.238 101.972 111.098 100.928 107.573 99.884 105.434 99.188 101.406 97.216 98.259 96.752 97"><title>2023-11-26 1.0km</title><desc>10281488289</desc></polyline><polyline fill="none" stroke="#4dd2ff" stroke-linecap="round" stroke-linejoin="round" stroke-width=".5" points="116.722 97 118.06 100.484 119.264 105.419 120.468 108.177 120.736 109.919 121.405 111.516 122.876 114.274 123.545 115 123.813 115 121.806 110.645 121.538 109.194 120.201 107.306 117.525 100.048 116.187 97.581"><title>2023-11-25 1.0km</title><desc>10275889695</desc></polyline><polyline fill="none" stroke="#4dd2ff" stroke-linecap="round" stroke-linejoin="round" stroke-width=".5" points="136.512 97.168 137.442 101.374 141.783 113.15 142.868 114.832 143.333 115 143.488 114.495 141.938 112.477 140.078 106.925 138.837 104.402 138.062 99.523 137.132 97"><title>2023-11-24 1.0km</title><desc>10271180196</desc></polyline><polyline fill="none" stroke="#4dd2ff" stroke-linecap="round" stroke-linejoin="round" stroke-width=".5" points="157.762 99 158.157 100.143 159.078 105 161.317 111.857 162.37 114.714 162.765 115 163.291 115 163.423 114.714 163.16 113.286 161.712 109.143 157.894 100.857 156.577 97"><title>2023-11-23 1.0km</title><desc>10265414399</desc></polyline><polyline fill="none" stroke="#4dd2ff" stroke-linecap="round" stroke-linejoin="round" stroke-width=".5" points="178.423 101.056 178.54 102.831 179.007 105.62 180.876 110.944 181.46 113.479 182.395 115 183.096 115 182.979 114.239 181.694 110.944 180.643 109.296 179.124 104.606 177.372 99.789 176.904 97"><title>2023-11-21 1.0km</title><desc>10253878272</desc></polyline><polyline fill="none" stroke="#4dd2ff" stroke-linecap="round" stroke-linejoin="round" stroke-width=".5" points="18.063 123.861 18.668 127.803 21.211 134.241 22.301 136.606 22.664 137 22.906 136.869 23.027 136.606 22.543 134.504 20.363 129.774 19.516 127.277 18.184 122.153 17.457 120.839 16.973 119"><title>2023-11-20 1.0km</title><desc>10248671423</desc></polyline><polyline fill="none" stroke="#4dd2ff" stroke-linecap="round" stroke-linejoin="round" stroke-width=".5" points="36.795 120.5 38.555 124.318 39.057 128.273 40.44 131.409 41.822 135.364 42.451 136.318 43.205 137 43.079 135.909 40.943 130.318 39.56 125.273 38.178 122 37.424 119"><title>2023-11-19 1.0km</title><desc>10242265034</desc></polyline><polyline fill="none" stroke="#4dd2ff" stroke-linecap="round" stroke-linejoin="round" stroke-width=".5" points="56.502 135.038 57.288 132.564 57.602 131.967 58.153 131.626 60.825 131.284 62.791 130.858 63.42 130.346 63.813 129.834 64.285 127.701 64.127 127.019 64.442 126.507 64.206 122.583 64.049 122.071 63.97 120.536 63.813 119.597 62.948 119.341 62.241 119.853 62.398 119.597 62.555 119.853 61.533 119.341 61.454 119 61.219 119.171 61.376 119.085 60.825 119.768 60.904 119.682 62.555 120.536 62.162 120.877 61.533 121.133 60.039 121.389 59.961 121.047 60.354 120.877 60.904 120.962 62.555 119.341 64.835 119.427 64.599 119.256 64.285 119.171 64.049 123.265 64.127 124.46 64.363 125.91 64.52 128.384 64.52 129.237 64.285 130.09 63.813 130.602 59.882 131.028 58.074 131.37 57.131 132.052 56.03 133.588 55.401 135.806 55.165 137"><title>2023-11-18 1.0km</title><desc>10236386505</desc></polyline><polyline fill="none" stroke="#4dd2ff" stroke-linecap="round" stroke-linejoin="round" stroke-width=".5" points="76.327 119 78.934 123.5 79.882 126.843 80.237 128.771 80.948 129.929 83.199 136.486 83.673 137 83.673 136.486 83.199 135.843 81.896 131.986 81.185 130.7 80.948 128.514 79.882 125.814 78.697 123.243 78.578 121.829"><title>2023-11-17 1.0km</title><desc>10231268371</desc></polyline><polyline fill="none" stroke="#4dd2ff" stroke-linecap="round" stroke-linejoin="round" stroke-width=".5" points="96.789 119.581 98.528 122.048 98.93 125.387 100.134 128 102.007 134.968 103.211 137 103.077 135.839 102.14 133.952 101.472 132.065 100.401 127.565 98.261 123.065 97.592 121.032 97.191 119"><title>2023-11-16 1.0km</title><desc>10225818993</desc></polyline><polyline fill="none" stroke="#4dd2ff" stroke-linecap="round" stroke-linejoin="round" stroke-width=".5" points="116.879 119.194 117.77 122.677 119.197 126.548 121.159 130.226 121.873 133.129 123.121 135.645 124.37 137 121.159 131 119.732 126.548 115.63 119"><title>2023-11-15 1.0km</title><desc>10219684298</desc></polyline><polyline fill="none" stroke="#4dd2ff" stroke-linecap="round" stroke-linejoin="round" stroke-width=".5" points="136.82 121.165 138.441 123.196 138.69 125.767 140.561 130.233 141.684 134.023 142.806 136.865 143.305 137 143.18 135.376 141.559 133.211 140.935 131.316 139.938 130.098 139.563 128.609 137.693 124.82 137.069 122.113 136.695 119"><title>2023-11-14 1.0km</title><desc>10213806154</desc></polyline><polyline fill="none" stroke="#4dd2ff" stroke-linecap="round" stroke-linejoin="round" stroke-width=".5" points="157.596 121.478 158.558 125.13 161.202 131.913 161.803 134.13 163.005 136.609 163.366 137 162.645 135.696 160.962 131.652 160.841 130.609 159.639 127.739 157.836 124.478 157.115 122.261 156.634 119"><title>2023-11-13 1.0km</title><desc>10208522228</desc></polyline><polyline fill="none" stroke="#4dd2ff" stroke-linecap="round" stroke-linejoin="round" stroke-width=".5" points="177.989 121.045 179.246 124.864 180.754 128 181.634 131.682 182.513 134.273 183.644 136.727 184.147 137 184.398 136.455 183.016 133.727 182.262 130.727 179.497 128.136 177.989 125.955 177.738 123.636 175.602 119"><title>2023-11-12 1.0km</title><desc>10202270880</desc></polyline><polyline fill="none" stroke="#4dd2ff" stroke-linecap="round" stroke-linejoin="round" stroke-width=".5" points="17.277 144.358 20.248 151.075 21.238 154.433 22.228 157.119 22.847 158.328 23.466 159 23.59 158.463 22.476 155.104 20.371 151.881 18.143 146.776 17.277 143.149 16.41 141"><title>2023-11-11 1.0km</title><desc>10196068378</desc></polyline><polyline fill="none" stroke="#4dd2ff" stroke-linecap="round" stroke-linejoin="round" stroke-width=".5" points="38.327 143.684 40.364 149.842 42.255 154.895 43.129 158.211 43.711 159 44.002 158.684 43.565 156.789 41.382 151.895 39.2 147.316 36.289 142.737 35.998 141"><title>2023-11-10 1.0km</title><desc>10191120477</desc></polyline><polyline fill="none" stroke="#4dd2ff" stroke-linecap="round" stroke-linejoin="round" stroke-width=".5" points="55.821 141.55 57.974 143.198 59.24 145.397 59.62 146.221 59.62 147.458 61.013 151.718 61.52 154.191 62.533 156.939 62.786 158.313 63.419 159 63.799 158.863 64.179 158.313 62.786 157.351 60.507 154.053 57.847 146.771 57.214 142.649 56.581 141"><title>2023-11-09 1.0km</title><desc>10185506531</desc></polyline><polyline fill="none" stroke="#4dd2ff" stroke-linecap="round" stroke-linejoin="round" stroke-width=".5" points="76.489 142.445 77.821 145.073 78.305 146.387 79.879 149.803 80.484 152.168 80.363 150.723 80.605 151.642 81.09 155.19 82.179 158.474 82.664 159 83.269 158.737 83.511 158.343 82.179 157.161 81.211 155.584 80.605 153.876 79.758 150.985 78.547 149.277 77.215 146.387 76.852 144.285 76.973 141.657 76.731 141"><title>2023-11-08 1.0km</title><desc>10179505859</desc></polyline><polyline fill="none" stroke="#4dd2ff" stroke-linecap="round" stroke-linejoin="round" stroke-width=".5" points="99.188 150.944 103.248 159 103.48 158.874 102.9 157.49 101.856 155.727 101.16 153.965 99.768 152.455 99.304 151.573 98.956 148.552 98.724 147.671 97.332 145.28 96.52 141"><title>2023-11-06 1.0km</title><desc>10167691585</desc></polyline><polyline fill="none" stroke="#4dd2ff" stroke-linecap="round" stroke-linejoin="round" stroke-width=".5" points="118.27 146.05 119.105 147.604 122.208 154.727 123.521 158.741 123.759 159 123.998 159 123.998 158.612 123.043 156.54 122.208 155.374 122.088 154.727 121.372 153.95 119.344 150.453 116.957 144.367 116.002 141"><title>2023-11-05 1.1km</title><desc>10161301187</desc></polyline><polyline fill="none" stroke="#4dd2ff" stroke-linecap="round" stroke-linejoin="round" stroke-width=".5" points="136.634 141 139.038 146.348 140.12 151.044 141.803 154.304 142.404 156.913 143.005 159 143.366 158.609 143.246 158.217 141.683 155.348 141.563 154.957 140.12 152.739 139.519 150.652 137.957 147.783 137.596 145.304 136.875 142.696"><title>2023-11-04 1.0km</title><desc>10155501797</desc></polyline><polyline fill="none" stroke="#4dd2ff" stroke-linecap="round" stroke-linejoin="round" stroke-width=".5" points="164.829 143.734 163.464 141.911 162.625 141.342 160.945 141 159.37 141.114 157.165 142.139 156.221 143.051 155.381 144.76 155.171 146.127 154.856 150.684 155.066 155.468 155.276 156.152 156.326 157.861 157.585 158.772 159.685 159 161.575 158.203 163.359 156.038 163.884 155.013 164.619 151.709 164.619 149.089 165.144 145.671 165.039 144.418 163.884 143.051 162.94 142.367 160.735 141.342 159.58 141.342 157.06 142.139 155.906 143.165 155.171 144.532 154.961 145.443 155.171 149.203 154.961 150.911"><title>2023-11-03 1.0km</title><desc>10152446508</desc></polyline><polyline fill="none" stroke="#4dd2ff" stroke-linecap="round" stroke-linejoin="round" stroke-width=".5" points="176.275 141 177.259 143.136 178.102 146.949 179.508 149.695 181.617 155.186 182.038 156.102 182.741 158.542 183.163 159 183.725 159 183.725 158.695 182.741 158.237 182.32 157.169 181.336 156.254 180.633 154.271 179.649 152.746 178.524 150.458 177.259 145.729 176.415 143.746"><title>2023-11-02 1.1km</title><desc>10144903556</desc></polyline><polyline fill="none" stroke="#4dd2ff" stroke-linecap="round" stroke-linejoin="round" stroke-width=".5" points="16.935 164.304 17.175 165.739 18.137 167.957 19.82 173.957 22.705 179.957 23.546 181 23.065 179.435 21.262 176.696 20.301 173.174 19.098 171.478 17.656 168.348 16.454 163"><title>2023-11-01 1.0km</title><desc>10138966680</desc></polyline><polyline fill="none" stroke="#4dd2ff" stroke-linecap="round" stroke-linejoin="round" stroke-width=".5" points="37.381 163.271 38.004 165.301 39.002 170.714 40.624 174.233 41.621 177.481 43.243 181 43.368 180.865 42.245 179.241 40.624 175.451 39.252 173.015 36.882 165.842 36.632 163"><title>2023-10-31 1.0km</title><desc>10133123337</desc></polyline><polyline fill="none" stroke="#4dd2ff" stroke-linecap="round" stroke-linejoin="round" stroke-width=".5" points="57.174 165.133 57.788 168.333 57.788 169.533 59.14 171.8 62.826 179.667 63.441 180.867 63.686 181 60.86 175.4 59.631 171.933 58.28 169.133 56.314 163"><title>2023-10-30 1.0km</title><desc>10127985445</desc></polyline><polyline fill="none" stroke="#4dd2ff" stroke-linecap="round" stroke-linejoin="round" stroke-width=".5" points="77.163 165.605 77.708 169.276 78.036 170.461 80.218 175.553 81.31 178.513 82.947 180.763 83.383 181 83.492 180.645 82.51 179.105 81.091 176.026 78.581 171.408 77.599 167.974 76.835 166.434 76.726 164.066 76.508 163"><title>2023-10-28 1.0km</title><desc>10115543824</desc></polyline><polyline fill="none" stroke="#4dd2ff" stroke-linecap="round" stroke-linejoin="round" stroke-width=".5" points="97.665 166.733 98.648 169.933 99.754 172.467 100.737 176.067 102.212 179.533 102.826 180.867 103.441 181 103.563 180.867 103.318 180.067 102.58 178.067 100.123 173.267 98.157 167.933 96.928 165.267 96.437 163"><title>2023-10-27 1.0km</title><desc>10110442644</desc></polyline><polyline fill="none" stroke="#4dd2ff" stroke-linecap="round" stroke-linejoin="round" stroke-width=".5" points="117.561 165.779 119.878 173.588 120.732 175.971 121.586 177.426 122.561 180.206 122.927 180.735 123.659 181 123.781 180.603 123.659 180.074 122.439 178.485 120.61 175.309 118.414 168.824 116.951 166.441 116.219 163"><title>2023-10-26 1.0km</title><desc>10104873905</desc></polyline><polyline fill="none" stroke="#4dd2ff" stroke-linecap="round" stroke-linejoin="round" stroke-width=".5" points="139.098 171.609 141.863 178.522 143.185 180.87 143.666 181 143.546 179.696 140.301 174.087 138.497 169.522 136.935 166.261 136.334 163"><title>2023-10-25 1.0km</title><desc>10098978222</desc></polyline><polyline fill="none" stroke="#4dd2ff" stroke-linecap="round" stroke-linejoin="round" stroke-width=".5" points="156.67 163 156.549 163.92 157.276 166.942 158.244 168.912 158.85 171.277 159.939 174.431 162.24 178.898 162.967 180.737 163.209 181 163.451 180.869 163.33 179.161 161.998 176.664 161.029 175.219 159.818 172.46 159.576 171.015 158.123 168.781 157.276 166.81 157.033 164.445 156.67 163"><title>2023-10-24 1.0km</title><desc>10092835699</desc></polyline><polyline fill="none" stroke="#4dd2ff" stroke-linecap="round" stroke-linejoin="round" stroke-width=".5" points="178.15 166.108 179.94 172.453 180.776 174.007 181.73 177.892 183.163 180.482 183.759 181 183.163 180.353 182.327 178.281 180.179 175.691 179.702 174.784 179.224 171.806 177.792 168.957 176.837 165.978 176.241 163"><title>2023-10-23 1.0km</title><desc>10087395010</desc></polyline><polyline fill="none" stroke="#4dd2ff" stroke-linecap="round" stroke-linejoin="round" stroke-width=".5" points="14.172 185.086 14.49 185 16.758 185.173 17.752 185.432 17.991 185.561 18.508 185.95 18.866 186.381 19.662 187.849 20.06 189.489 20.577 190.353 20.815 191.043 21.372 192.295 21.77 193.59 22.367 194.626 22.645 194.928 23.003 195.532 23.202 196.827 23.322 197.173 23.64 197.648 23.719 198.381 23.839 198.684 25.589 202.827 25.828 203 25.828 202.784 25.47 202.439 25.072 201.489 24.674 200.669 23.6 197.345"><title>2023-10-22 1.5km</title><desc>10080655811</desc></polyline><polyline fill="none" stroke="#4dd2ff" stroke-linecap="round" stroke-linejoin="round" stroke-width=".5" points="37.137 185 37.769 185.457 36.632 185.274 38.4 187.558 38.569 188.107 38.442 188.563 37.853 188.883 37.684 189.203 37.726 189.751 38.063 191.076 38.442 192.036 38.863 193.498 39.621 194.822 39.747 195.325 40.211 196.147 40.505 196.513 40.547 196.741 40.842 197.015 41.053 197.472 41.347 198.34 41.642 198.934 41.6 200.122 42.147 201.173 42.316 201.675 42.61 202.223 43.116 202.863 43.368 203 42.4 201.629 42.189 200.899 41.768 199.985 41.6 199.391 41.053 198.614 40.589 197.289"><title>2023-10-20 1.4km</title><desc>10069668027</desc></polyline><polyline fill="none" stroke="#4dd2ff" stroke-linecap="round" stroke-linejoin="round" stroke-width=".5" points="56.378 185 56.464 185.698 57.15 187.372 57.321 188.395 58.736 191.837 58.864 192.302 58.95 193 59.121 193.465 60.15 194.907 60.707 196.023 61.05 197.14 61.35 197.744 61.522 198.674 61.736 199.14 62.293 200.581 62.379 201.14 63.193 202.814 63.408 203 63.536 203 63.622 202.953 63.579 202.907 62.722 201.837 62.336 200.535 61.522 199.047 61.393 198.442 61.307 197.419"><title>2023-10-19 1.3km</title><desc>10064004415</desc></polyline><polyline fill="none" stroke="#4dd2ff" stroke-linecap="round" stroke-linejoin="round" stroke-width=".5" points="75.941 185 77.706 187.298 77.588 188.957 77.824 190.617 78.647 193.553 79.824 195.468 81 198.787 83.353 202.617 83.706 203 84.059 202.872 82.529 201.34 79.706 195.851 79 193.426 77 189.213"><title>2023-10-18 1.0km</title><desc>10058081424</desc></polyline><polyline fill="none" stroke="#4dd2ff" stroke-linecap="round" stroke-linejoin="round" stroke-width=".5" points="96.858 186.091 97.864 191.955 100.503 198.909 102.262 202.591 103.016 203 103.393 203 103.644 202.455 102.765 201.364 101.634 199.591 100.126 196.318 99.497 194.409 96.858 189.091 96.607 188.273 96.356 185"><title>2023-10-17 1.0km</title><desc>10051702317</desc></polyline><polyline fill="none" stroke="#4dd2ff" stroke-linecap="round" stroke-linejoin="round" stroke-width=".5" points="115.981 185.415 117.257 187.631 119.171 192.615 120.191 194.554 121.34 198.154 122.743 201.754 123.254 202.723 123.892 203 124.019 202.862 123.892 202.446 122.488 200.369 120.574 195.662 119.171 192.754 118.022 187.354 117.384 185"><title>2023-10-16 1.0km</title><desc>10046279660</desc></polyline><polyline fill="none" stroke="#4dd2ff" stroke-linecap="round" stroke-linejoin="round" stroke-width=".5" points="136.314 185 136.84 186.143 137.367 188.714 138.552 192.714 140.132 195.143 141.975 202 142.633 202.714 143.555 203 143.686 202.714 143.555 201.857 141.843 199.429 140.922 196.571 139.868 194.857 137.367 189 136.445 185"><title>2023-10-15 1.0km</title><desc>10039610121</desc></polyline><polyline fill="none" stroke="#4dd2ff" stroke-linecap="round" stroke-linejoin="round" stroke-width=".5" points="156.254 186.306 156.656 190.516 157.726 193.565 159.064 195.452 159.866 198.065 162.14 202.129 162.676 202.71 163.344 203 163.746 202.71 163.746 202.274 161.07 200.097 159.331 196.903 158.662 194.145 157.057 190.516 156.254 187.468 156.388 185.581 156.254 185"><title>2023-10-14 1.0km</title><desc>10033377496</desc></polyline><polyline fill="none" stroke="#4dd2ff" stroke-linecap="round" stroke-linejoin="round" stroke-width=".5" points="175.919 185.286 178.288 188.143 178.552 190.286 180.79 197.143 182.896 202.143 183.555 203 184.081 203 184.081 202.571 183.95 202.143 182.765 201.286 181.448 198.857 180 194.286 177.367 188.429 176.972 186.429 176.314 185"><title>2023-10-13 1.0km</title><desc>10028006924</desc></polyline><polyline fill="none" stroke="#4dd2ff" stroke-linecap="round" stroke-linejoin="round" stroke-width=".5" points="16.138 207 17.404 208.649 18.164 210.023 18.291 211.809 18.164 213.733 19.557 216.618 21.203 221.015 22.849 224.038 23.229 224.588 23.862 225 23.862 224.313 22.469 222.527 21.203 220.328 19.557 215.794 18.544 214.008 18.037 212.496"><title>2023-10-12 1.0km</title><desc>10021974100</desc></polyline><polyline fill="none" stroke="#4dd2ff" stroke-linecap="round" stroke-linejoin="round" stroke-width=".5" points="37.896 209.552 38.391 212.239 38.267 213.313 39.381 216.94 40.248 218.552 41.114 221.507 42.352 224.463 42.6 224.731 43.219 225 43.095 224.463 41.733 220.97 40.248 218.418 38.267 213.851 37.772 212.104 37.524 209.552 36.781 207"><title>2023-10-10 1.0km</title><desc>10009069592</desc></polyline><polyline fill="none" stroke="#4dd2ff" stroke-linecap="round" stroke-linejoin="round" stroke-width=".5" points="56.951 209.25 57.804 211.632 58.658 214.809 60.488 218.779 61.952 223.809 62.805 225 63.049 224.603 63.171 223.147 62.317 220.632 60.488 217.456 58.414 211.632 57.804 208.985 56.829 207"><title>2023-10-09 1.0km</title><desc>10003389142</desc></polyline><polyline fill="none" stroke="#4dd2ff" stroke-linecap="round" stroke-linejoin="round" stroke-width=".5" points="76.335 207 77.235 208.116 78.135 210.209 78.65 214.395 80.579 218.581 82.25 223.326 83.022 224.721 83.665 225 83.665 223.884 81.222 219.977 78.007 212.163 76.721 207.14"><title>2023-10-08 1.0km</title><desc>9996447828</desc></polyline><polyline fill="none" stroke="#4dd2ff" stroke-linecap="round" stroke-linejoin="round" stroke-width=".5" points="97.689 210.6 98.282 212.786 100.059 217.543 100.652 219.6 102.548 224.357 103.14 225 103.258 224.486 103.258 223.971 101.007 219.986 99.941 217.671 98.045 212.014 97.452 209.057 96.742 207"><title>2023-10-07 1.0km</title><desc>9989974159</desc></polyline><polyline fill="none" stroke="#4dd2ff" stroke-linecap="round" stroke-linejoin="round" stroke-width=".5" points="118.529 212.362 119.471 215.426 120.176 216.957 121.588 222.957 121.941 224.106 122.647 225 123.235 225 123.471 224.489 123.353 224.106 121.941 222.064 120.529 219 120.059 216.957 117.588 210.957 117.235 208.787 116.529 207"><title>2023-10-06 1.0km</title><desc>9984428862</desc></polyline><polyline fill="none" stroke="#4dd2ff" stroke-linecap="round" stroke-linejoin="round" stroke-width=".5" points="136.125 207 138.164 212.459 139.524 217.033 141.836 222.787 142.787 224.705 143.195 225 143.739 225 143.875 224.705 143.467 223.967 141.836 221.607 140.884 219.689 139.252 215.41 138.572 213.197 136.669 209.656 136.669 208.328"><title>2023-10-04 1.0km</title><desc>9971682885</desc></polyline><polyline fill="none" stroke="#4dd2ff" stroke-linecap="round" stroke-linejoin="round" stroke-width=".5" points="157.276 209.102 157.881 211.204 158.486 212.65 158.971 214.883 161.271 219.482 161.392 221.058 162.119 224.212 162.361 224.606 163.088 225 163.088 223.686 161.514 220.796 160.424 218.299 159.818 217.117 159.213 215.409 158.002 212.912 157.518 210.942 157.276 208.971 156.912 207"><title>2023-10-03 1.0km</title><desc>9965060084</desc></polyline><polyline fill="none" stroke="#4dd2ff" stroke-linecap="round" stroke-linejoin="round" stroke-width=".5" points="176.71 207.744 178.355 213.099 178.629 215.479 179.589 216.669 180.274 218.455 181.508 223.066 182.468 224.554 183.153 225 183.29 224.851 182.879 223.661 181.371 220.835 178.903 214.884 177.395 210.421 177.121 207"><title>2023-10-02 1.0km</title><desc>9958643020</desc></polyline><polyline fill="none" stroke="#4dd2ff" stroke-linecap="round" stroke-linejoin="round" stroke-width=".5" points="17.147 232.168 17.412 233.464 20.332 240.376 21.792 244.84 22.588 246.424 23.384 247 23.517 246.856 23.384 246.28 20.73 242.248 18.208 236.056 17.014 232.312 16.483 229"><title>2023-10-01 1.0km</title><desc>9952075403</desc></polyline><polyline fill="none" stroke="#4dd2ff" stroke-linecap="round" stroke-linejoin="round" stroke-width=".5" points="37.416 231.609 38.497 233.826 38.978 236.044 39.339 238.13 41.142 243.217 42.705 246.478 43.426 247 43.666 246.609 41.262 242.957 40.18 240.478 39.82 239.174 38.137 235.522 37.175 231.478 36.334 229"><title>2023-09-30 1.0km</title><desc>9945549317</desc></polyline><polyline fill="none" stroke="#4dd2ff" stroke-linecap="round" stroke-linejoin="round" stroke-width=".5" points="57.213 229 58.408 231.016 58.806 232.6 59.867 235.192 60.398 239.08 60.796 240.232 62.389 244.12 62.787 246.568 63.052 246.856 63.45 247 63.583 246.712 61.194 242.392 59.602 238.648 59.071 236.488 57.213 232.168 56.417 229.576"><title>2023-09-28 1.0km</title><desc>9933629332</desc></polyline><polyline fill="none" stroke="#4dd2ff" stroke-linecap="round" stroke-linejoin="round" stroke-width=".5" points="76.481 231.045 77.487 234.591 79.372 237.182 80.628 241.818 82.388 244.955 82.89 246.727 83.393 247 83.644 246.591 83.393 246.045 82.388 244.682 79.497 238.818 77.989 234.727 76.356 229"><title>2023-09-27 1.0km</title><desc>9927137811</desc></polyline><polyline fill="none" stroke="#4dd2ff" stroke-linecap="round" stroke-linejoin="round" stroke-width=".5" points="101.495 229 101.136 230.731 100.778 231.726 100.498 232.938 98.864 236.356 98.026 237.784 97.867 238.389 97.946 238.865 98.146 239.558 98.744 241.029 98.943 241.418 99.183 242.111 99.98 243.106 100.339 243.885 100.738 244.49 101.057 245.356 101.535 246.005 102.133 247"><title>2023-09-26 1.0km</title><desc>9920397094</desc></polyline><polyline fill="none" stroke="#4dd2ff" stroke-linecap="round" stroke-linejoin="round" stroke-width=".5" points="119.916 229 119.131 231.615 118.347 233.014 117.618 233.926 117.226 234.655 117.058 235.385 117.114 236.297 117.394 237.027 118.067 238.061 118.347 239.095 118.907 240.432 119.972 241.77 121.765 245.419 122.942 247"><title>2023-09-25 1.0km</title><desc>9914573673</desc></polyline><polyline fill="none" stroke="#4dd2ff" stroke-linecap="round" stroke-linejoin="round" stroke-width=".5" points="141.327 229 140.885 229.672 140.796 230.008 140.885 230.44 140.929 230.872 140.044 232.504 139.823 233.608 139.513 234.424 137.656 237.688 137.611 238.072 137.788 238.84 138.275 239.608 138.54 240.28 138.938 240.952 139.16 241.624 139.735 242.536 140.177 243.448 140.664 243.976 140.796 244.456 141.106 244.84 141.769 245.992 142.256 246.52 142.389 247"><title>2023-09-24 1.0km</title><desc>9907510217</desc></polyline><polyline fill="none" stroke="#4dd2ff" stroke-linecap="round" stroke-linejoin="round" stroke-width=".5" points="160.671 229 160.295 229.583 160.027 230.165 159.866 230.922 159.812 231.913 158.899 233.136 158.363 234.534 157.88 235.233 157.557 236.165 157.504 237.155 158.631 240.01 159.061 240.884 160.456 243.097 161.047 244.553 161.798 245.485 162.228 246.243 162.496 247"><title>2023-09-23 1.0km</title><desc>9901004991</desc></polyline><polyline fill="none" stroke="#4dd2ff" stroke-linecap="round" stroke-linejoin="round" stroke-width=".5" points="180.691 229 180.333 229.667 179.974 230.833 179.155 232.556 178.336 233.722 177.619 235.667 177.568 236.722 177.67 237.333 178.694 239.778 178.848 240.5 179.053 240.889 179.77 241.778 180.333 242.889 180.794 244.056 181.562 245.167 182.432 247"><title>2023-09-22 1.0km</title><desc>9895405405</desc></polyline><polyline fill="none" stroke="#4dd2ff" stroke-linecap="round" stroke-linejoin="round" stroke-width=".5" points="20.954 251 20.807 251.531 20.514 251.85 19.878 253.018 19.633 253.867 18.899 255.726 18.116 257.319 17.627 258.487 17.48 259.071 17.48 259.443 17.627 259.974 17.92 260.504 18.556 262.15 19.193 263.319 19.535 264.168 20.171 265.23 20.563 265.708 20.856 266.558 21.639 267.938 22.52 269"><title>2023-09-21 1.0km</title><desc>9889267953</desc></polyline><polyline fill="none" stroke="#4dd2ff" stroke-linecap="round" stroke-linejoin="round" stroke-width=".5" points="41.833 251 41.19 252.927 40.812 254.444 40.208 255.715 39.49 257.847 38.243 260.185 37.903 261.456 37.941 261.743 38.167 262.358 38.659 263.424 38.961 264.326 39.717 265.392 40.17 266.253 40.435 266.868 40.737 267.401 41.228 267.77 41.833 268.672 41.87 268.836 42.097 269"><title>2023-09-20 1.0km</title><desc>9882714971</desc></polyline><polyline fill="none" stroke="#4dd2ff" stroke-linecap="round" stroke-linejoin="round" stroke-width=".5" points="61.493 251 61.109 251.972 60.384 254.1 60.341 254.794 60.085 255.165 59.787 255.859 59.616 256.506 59.275 257.386 58.294 258.959 58.038 259.884 57.953 260.717 58.038 261.55 58.294 262.476 58.593 263.123 59.531 264.743 60 265.391 60.426 266.548 60.853 267.288 61.279 267.889 61.748 268.352 62.047 269"><title>2023-09-19 1.0km</title><desc>9876194288</desc></polyline><polyline fill="none" stroke="#4dd2ff" stroke-linecap="round" stroke-linejoin="round" stroke-width=".5" points="79.868 251 79.55 251.518 79.02 252.553 78.861 253.243 77.907 254.911 77.165 256.463 77.006 257.038 77.059 257.671 77.377 258.476 77.854 259.339 78.278 260.546 78.861 261.812 79.497 262.962 80.079 263.709 80.768 264.859 81.192 266.182 81.934 267.332 82.305 268.367 82.994 269"><title>2023-09-18 1.0km</title><desc>9870505463</desc></polyline><polyline fill="none" stroke="#4dd2ff" stroke-linecap="round" stroke-linejoin="round" stroke-width=".5" points="100.181 251 99.922 251.505 99.561 253.187 99.096 253.972 98.889 254.589 97.752 256.439 97.339 257.449 97.08 258.346 97.287 258.963 98.424 261.43 98.992 262.327 99.406 263.28 100.078 264.178 100.439 264.794 100.904 266.252 102.92 269"><title>2023-09-16 1.0km</title><desc>9856514700</desc></polyline><polyline fill="none" stroke="#4dd2ff" stroke-linecap="round" stroke-linejoin="round" stroke-width=".5" points="119.751 251 119.198 252.68 118.479 253.82 116.986 256.7 116.931 257.36 116.986 258.14 117.318 258.92 117.871 259.76 118.369 260.9 119.254 262.4 120.359 264.5 120.47 265.28 120.857 265.58 121.299 266.18 122.018 267.38 122.792 268.04 122.958 268.46 123.069 269"><title>2023-09-15 1.0km</title><desc>9850671982</desc></polyline><polyline fill="none" stroke="#4dd2ff" stroke-linecap="round" stroke-linejoin="round" stroke-width=".5" points="140.458 251 139.542 253.421 138.513 254.91 138.055 255.717 137.369 257.455 137.197 258.076 137.197 258.572 137.369 259.193 138.055 261.055 138.684 262.297 140.229 264.966 140.858 266.145 140.972 266.828 141.43 267.262 142.174 268.441 142.803 269"><title>2023-09-14 1.0km</title><desc>9844236351</desc></polyline><polyline fill="none" stroke="#4dd2ff" stroke-linecap="round" stroke-linejoin="round" stroke-width=".5" points="157.139 251 157.469 251.268 157.592 251.536 157.674 252.117 157.921 252.608 158.086 253.993 158.086 254.663 158.004 255.02 158.086 255.467 158.292 256.003 158.209 256.449 158.251 256.673 158.662 257.432 159.033 258.548 159.362 259.174 159.774 259.754 160.226 260.156 160.35 260.424 160.473 261.005 160.803 261.586 161.173 262.658 161.667 263.596 161.914 264.4 162.038 265.07 162.284 265.605 162.737 267.079 163.355 268.241 163.396 268.419 163.355 268.553 162.861 269 163.108 268.821 163.231 268.553 163.314 268.33 163.272 268.017 163.025 267.705 162.284 266.097 161.914 264.891 161.132 263.149 160.761 261.452 160.556 260.96 159.774 259.933 158.992 258.459 158.621 257.253 158.498 256.449 158.168 255.601 157.51 254.171 157.345 253.501 156.769 252.429 156.645 251.849 156.604 251.134"><title>2023-09-13 1.0km</title><desc>9837636972</desc></polyline></svg>