<?xml version="1.0" encoding="utf-8" ?>
<svg baseProfile="full" height="300mm" version="1.1" viewBox="0,0,200,300" width="200mm" xmlns="http://www.w3.org/2000/svg" xmlns:ev="http://www.w3.org/2001/xml-events" xmlns:xlink="http://www.w3.org/1999/xlink"><defs /><rect fill="#222222" height="300" width="200" x="0" y="0" /><text fill="#FFFFFF" style="font-size:12px; font-family:Arial; font-weight:bold;" x="10" y="20">Over 1km Runs</text><text fill="#FFFFFF" style="font-size:4px; font-family:Arial" x="10" y="280">ATHLETE</text><text fill="#FFFFFF" style="font-size:9px; font-family:Arial" x="10" y="290">Jiakai</text><text fill="#FFFFFF" style="font-size:4px; font-family:Arial" x="120" y="280">STATISTICS</text><text fill="#FFFFFF" style="font-size:3px; font-family:Arial" x="120" y="285">Number: 72</text><text fill="#FFFFFF" style="font-size:3px; font-family:Arial" x="120" y="290">Weekly: 6.0</text><text fill="#FFFFFF" style="font-size:3px; font-family:Arial" x="141" y="285">Total: 74.4 km</text><text fill="#FFFFFF" style="font-size:3px; font-family:Arial" x="141" y="290">Avg: 1.0 km</text><text fill="#FFFFFF" style="font-size:3px; font-family:Arial" x="167" y="285">Min: 1.0 km</text><text fill="#FFFFFF" style="font-size:3px; font-family:Arial" x="167" y="290">Max: 1.5 km</text><polyline fill="none" points="17.574163341429085,32.19886857050005 18.987946671899408,34.039784834720194 20.684486667625606,39.869342289399356 21.815513331908733,44.62502183509059 23.65343166096136,49.84091597085353 24.784458324778825,51.375 24.925836658570915,50.45454971771687 24.64307999238372,48.61364793498069 23.087918328586966,45.23865711595863 20.684486667625606,41.40343364945147 19.270703338086605,38.4886591010727 17.85692000715062,31.125" stroke="#4dd2ff" stroke-linecap="round" stroke-linejoin="round" stroke-width="0.5"><title>2023-12-01 1.0km</title><desc>10308709030</desc></polyline><polyline fill="none" points="40.017610910348594,31.125 42.81690272688866,40.74377227539662 45.61619454342872,46.48126636992674 47.171356664039195,50.700002878322266 47.637905300594866,51.375 47.79342151246965,50.86875217733905 47.171356664039195,49.18125862872694 44.83861348312348,45.97501746809576 44.21654863562435,44.287520321668126 41.883805454708636,39.731271829106845 40.79519197065383,34.50001240626443 39.70657848659903,31.46250146406237" stroke="#4dd2ff" stroke-linecap="round" stroke-linejoin="round" stroke-width="0.5"><title>2023-11-30 1.0km</title><desc>10303537703</desc></polyline><polyline fill="none" points="63.93334666127339,35.45432848704513 64.83426740439609,38.38709379185457 65.22037629410625,40.76123381732032 66.63610888971016,43.55433593096677 68.18054444855079,47.743981400853954 69.72498000692576,51.09569112374447 69.9823859333992,51.375 70.23979185940698,51.09569112374447 69.9823859333992,50.11810973205138 68.95276222750545,48.30260009842459 67.53702963190153,44.3922657641815 65.47778222057968,40.2026129020378 64.7055644406937,35.733639663551 63.161128881853074,33.35949335433543 62.26020814012736,31.125" stroke="#4dd2ff" stroke-linecap="round" stroke-linejoin="round" stroke-width="0.5"><title>2023-11-29 1.0km</title><desc>10298007687</desc></polyline><polyline fill="none" points="85.25927883014083,33.747313821921125 86.73612240189686,37.53509432740975 87.00463941460475,40.30308319476899 88.88425850635394,44.81926725700032 89.95832655904815,48.89839240151923 90.89813610492274,50.792269078898244 91.83794565079734,51.375 92.2407211707905,51.375 92.50923818396404,50.93795182532631 92.37497967714444,50.35522077570204 91.83794565079734,49.33544102625456 89.6898095458746,43.65380138740875 87.54167344141752,38.700563795515336 87.13889792142436,36.36962417385075 86.1990883750841,33.60162981192116 84.99076181603596,31.125" stroke="#4dd2ff" stroke-linecap="round" stroke-linejoin="round" stroke-width="0.5"><title>2023-11-28 1.0km</title><desc>10292316108</desc></polyline><polyline fill="none" points="110.77453567041084,31.125 111.96319649508223,34.34953793894965 112.6763929896988,37.445088784676045 113.62732164887711,38.863881096825935 114.69711639126763,40.9275769572705 115.76691113319248,44.28107755351812 116.7178397923708,45.828844897216186 116.7178397923708,46.602728057070635 116.12350938050076,47.118649974116124 114.22165206121281,48.150493353023194 113.03299123700708,49.18233612482436 111.84433041280136,49.827237549005076 110.06133917579427,50.601118945283815 107.208553197328,51.375 106.73308886773884,51.246019848273136 106.37649062043056,50.8590793350013 105.7821602076292,48.408454102813266" stroke="#4dd2ff" stroke-linecap="round" stroke-linejoin="round" stroke-width="0.5"><title>2023-11-27 1.0km</title><desc>10287544518</desc></polyline><polyline fill="none" points="131.79245392326266,35.51487821305636 132.44496928201988,37.0725745287491 134.01100614434108,45.00264533329755 135.70754607766867,49.10927631123923 136.62106758076698,50.666961633600295 137.2735829395242,51.375 137.40408601192757,51.23339234746527 137.01257679611444,50.5253539289115 137.01257679611444,49.392491918290034 135.96855222107843,46.98515793308616 134.79402457503602,43.0201306930976 133.61949692852795,40.612788743688725 132.83647849736735,36.08131338271778 130.61792627628893,32.54109083930962 130.0959139885381,31.125" stroke="#4dd2ff" stroke-linecap="round" stroke-linejoin="round" stroke-width="0.5"><title>2023-11-26 1.0km</title><desc>10281488289</desc></polyline><polyline fill="none" points="152.56276023760438,31.125 154.06775605864823,35.04436924576294 155.42225229833275,40.59679717326071 156.77674853801727,43.69961849891115 157.07774770259857,45.65929289266933 157.83024561405182,47.4556595684262 159.48574101738632,50.55847131391056 160.23823892790824,51.375 160.53923809248954,51.375 158.28174435999244,46.4758233797038 157.98074519541115,44.84276210551616 156.4757493743673,42.719780653947964 153.46575773041695,34.554448468843475 151.96076190844178,31.778228688170202" stroke="#4dd2ff" stroke-linecap="round" stroke-linejoin="round" stroke-width="0.5"><title>2023-11-25 1.0km</title><desc>10275889695</desc></polyline><polyline fill="none" points="174.825757259503,31.314253074349836 175.87222198955715,36.04557539871894 180.7557240659371,49.29323164559901 181.97659958526492,51.185748401330784 182.499831950292,51.375 182.67424273956567,50.80724516115151 180.93013485427946,48.536224553827196 178.83720539323986,42.290907552000135 177.44191908556968,39.45212208782323 176.5698651438579,33.963794647250324 175.52340041287243,31.125" stroke="#4dd2ff" stroke-linecap="round" stroke-linejoin="round" stroke-width="0.5"><title>2023-11-24 1.0km</title><desc>10271180196</desc></polyline><polyline fill="none" points="18.732119952328503,60.56250926386565 19.176451725885272,61.84822780278046 20.213225862011313,67.31252315861639 22.731105910614133,75.02679923118558 23.915990638546646,78.24107289395761 24.360322411172092,78.5625 24.95276477560401,78.5625 25.10087536741048,78.24107289395761 24.80465418472886,76.63393665326294 23.17543768323958,71.97323487431277 18.880230543203652,62.651801505940966 17.39912463352084,58.3125" stroke="#4dd2ff" stroke-linecap="round" stroke-linejoin="round" stroke-width="0.5"><title>2023-11-23 1.0km</title><desc>10265414399</desc></polyline><polyline fill="none" points="41.97580239595845,62.875898733967915 42.10722444113344,64.87238230393268 42.63291261997074,68.00970947672613 44.7356653357856,73.99913817050401 45.39277555933222,76.85124057240319 46.44415191700682,78.5625 47.23268418526277,78.5625 47.101262141019106,77.7068704747362 45.65561964828521,73.99913817050401 44.47282124590129,72.14526936074253 42.7643346642144,66.86886381951626 40.79300399310887,61.44983778288588 40.26731581473723,58.3125" stroke="#4dd2ff" stroke-linecap="round" stroke-linejoin="round" stroke-width="0.5"><title>2023-11-21 1.0km</title><desc>10253878272</desc></polyline><polyline fill="none" points="64.07050360320136,63.78149820584804 64.75159622682258,68.21581015386619 67.61218524770811,75.45849863707554 68.8381519713439,78.11907152715139 69.24680754588917,78.5625 69.51924459589645,78.41469052003231 69.65546312043443,78.11907152715139 69.11058902135119,75.7541180208791 66.6586555740796,70.43296246090904 65.70512590091676,67.62456912582275 64.20672212773934,61.859959990601055 63.38941097864881,60.381852421793155 62.84453687956557,58.3125" stroke="#4dd2ff" stroke-linecap="round" stroke-linejoin="round" stroke-width="0.5"><title>2023-11-20 1.0km</title><desc>10248671423</desc></polyline><polyline fill="none" points="85.14485171297565,60.00000750576146 87.12414881167933,64.29547499876935 87.68966226885095,68.74434272351209 89.24482427490875,72.2727483123308 90.79998628096655,76.72159902926069 91.50687810219824,77.79545812599827 92.35514828702435,78.5625 92.21376992342994,77.33523286657874 89.81033773208037,71.04547747969627 88.25517572602257,65.36934049031697 86.70001371949911,61.68751364690252 85.85174353420734,58.3125" stroke="#4dd2ff" stroke-linecap="round" stroke-linejoin="round" stroke-width="0.5"><title>2023-11-19 1.0km</title><desc>10242265034</desc></polyline><polyline fill="none" points="107.31435108883306,76.35516928683501 108.19876657472923,73.57200784888119 108.55253276927397,72.90020937111694 109.1716236085631,72.51632437156513 112.17863625986502,72.13243925897405 114.38967497413978,71.65258270932827 115.09720736276358,71.0767546169227 115.53941510571167,70.50092627073172 116.0700643970631,68.10163875936996 115.89318129979074,67.33386582415551 116.24694749386981,66.75803582638036 115.98162284819409,62.34333073487505 115.80473975138739,61.76749853522051 115.71629820251837,60.04000041098334 115.53941510571167,58.98430598736741 114.56655807141215,58.69638917804696 113.77058413438499,59.272222732775845 113.9474672311917,58.98430598736741 114.12435032846406,59.272222732775845 112.97461019689217,58.69638917804696 112.88616864895448,58.3125 112.6208440028131,58.50444460310973 112.79772710008547,58.40847230516374 112.17863625986502,59.1762504914077 112.26707780873403,59.08027824293822 114.12435032846406,60.04000041098334 113.68214258598164,60.423889080644585 112.97461019689217,60.71180550882127 111.2942207744345,60.99972187343519 111.2057792255655,60.61583337292541 111.64798696851358,60.423889080644585 112.26707780873403,60.51986123039387 114.12435032846406,58.69638917804696 116.6891552368179,58.79236145480536 116.42383059114218,58.60041689395439 116.0700643970631,58.50444460310973 115.80473975138739,63.11110660631675 115.89318129979074,64.45471329428256 116.1585059450008,66.08623384113889 116.33538904273883,68.86941124300938 116.33538904273883,69.82912621216383 116.0700643970631,70.78884047549218 115.53941510571167,71.36466869502328 111.11733767716214,71.84452535037417 109.08318206015974,72.22841054771561 108.02188347745687,72.99618060339708 106.78370179748163,74.72366157744545 106.07616940885782,77.21890783659182 105.8108447631821,78.5625" stroke="#4dd2ff" stroke-linecap="round" stroke-linejoin="round" stroke-width="0.5"><title>2023-11-18 1.0km</title><desc>10236386505</desc></polyline><polyline fill="none" points="129.61771481391042,58.3125 132.55030430061743,63.37501953996252 133.61670047743246,67.13573990843724 134.01659904420376,69.30538300448097 134.81639617681503,70.60716771392617 137.34908709675074,77.98393146402668 137.8822851856239,78.5625 137.8822851856239,77.98393146402668 137.34908709675074,77.26072055473924 135.88279235363007,72.92144951503724 135.0829952210188,71.47502370830625 134.81639617681503,69.016097396845 133.61670047743246,65.97859594493639 132.28370525641367,63.08573306037579 132.1504057343118,61.4946566602448" stroke="#4dd2ff" stroke-linecap="round" stroke-linejoin="round" stroke-width="0.5"><title>2023-11-17 1.0km</title><desc>10231268371</desc></polyline><polyline fill="none" points="152.6380108250305,58.96572868840303 154.59450496174395,61.741948468843475 155.04600360803306,65.49800500215497 156.40049954969436,68.43752307584509 158.50749323517084,76.2762189223431 159.86198917590082,78.5625 159.71148962620646,77.25605395808816 158.65799278393388,75.13307750085369 157.90549503918737,73.01009901450016 156.70149864722043,67.94760366680566 154.29350586421788,62.88509678165428 153.54100811854005,60.598799567320384 153.08950947131962,58.3125" stroke="#4dd2ff" stroke-linecap="round" stroke-linejoin="round" stroke-width="0.5"><title>2023-11-16 1.0km</title><desc>10225818993</desc></polyline><polyline fill="none" points="175.23834346886724,58.53024267172441 176.24167390633374,62.4496080277022 177.84700260683894,66.80445233965293 180.0543295685202,70.94154850603081 180.85699391830713,74.2076729759574 182.26165653020144,77.0383112700656 183.66631914302707,78.5625 180.0543295685202,71.81251538335346 178.4490008689463,66.80445233965293 173.83368085790426,58.3125" stroke="#4dd2ff" stroke-linecap="round" stroke-linejoin="round" stroke-width="0.5"><title>2023-11-15 1.0km</title><desc>10219684298</desc></polyline><polyline fill="none" points="17.67195953754708,87.93610070296563 19.49605859722942,90.2199425091967 19.776689221151173,93.11280518153217 21.881418905220926,98.13724127179012 23.144256714731455,102.40038960729726 24.407094525173306,105.59774510003626 24.968355773948133,105.75 24.828040461521596,103.92294045770541 23.00394140277058,101.48685855988879 22.302364841103554,99.35528454906307 21.1798423435539,97.98498581175227 20.75889640673995,96.31017501314636 18.65416672360152,92.04701414098963 17.952590161934495,89.00189385912381 17.531644225586206,85.5" stroke="#4dd2ff" stroke-linecap="round" stroke-linejoin="round" stroke-width="0.5"><title>2023-11-14 1.0km</title><desc>10213806154</desc></polyline><polyline fill="none" points="41.04537082230672,88.28805567405652 42.12722249375656,92.39676220074762 45.10231458954513,100.02719473920297 45.778471883852035,102.52175289578736 47.130786473397166,105.30978479317855 47.53648085007444,105.75 46.72509209671989,104.28261559992097 44.83185167144984,99.73371710430365 44.696620212867856,98.55980613187421 43.34430562378839,95.33154739858583 41.31583374040201,91.66306522698142 40.5044449865818,89.16849349881522 39.96351915039122,85.5" stroke="#4dd2ff" stroke-linecap="round" stroke-linejoin="round" stroke-width="0.5"><title>2023-11-13 1.0km</title><desc>10208522228</desc></polyline><polyline fill="none" points="63.98794633941725,87.80114626057912 65.40172987710685,92.09661249048077 67.09827012289315,95.62502456456423 68.08791859960184,99.76706590806134 69.07756707584485,102.68183081340976 70.34997226018459,105.4431832843693 70.91548567498103,105.75 71.19824238307774,105.13636652345303 69.64308049110696,102.0681964349933 68.79481036867946,98.69320412701927 65.68448658520356,95.7784336496843 63.98794633941725,93.32388693199027 63.705189631320536,90.71592788083944 61.30175761692226,85.5" stroke="#4dd2ff" stroke-linecap="round" stroke-linejoin="round" stroke-width="0.5"><title>2023-11-12 1.0km</title><desc>10202270880</desc></polyline><polyline fill="none" points="85.68609941005707,89.27800021274015 89.02853641752154,96.83397980488371 90.1426820862107,100.61195918556768 91.25682775583118,103.63433769077528 91.9531687987037,104.99440656835213 92.64950984157622,105.75 92.78877805033699,105.14552527701017 91.5353641724214,101.36755422828719 89.16780462581664,97.7406954895705 86.66097687045112,91.99815606547054 85.68609941005707,87.91792093601543 84.71122194919735,85.5" stroke="#4dd2ff" stroke-linecap="round" stroke-linejoin="round" stroke-width="0.5"><title>2023-11-11 1.0km</title><desc>10196068378</desc></polyline><polyline fill="none" points="109.3674343591556,88.5197476092726 111.65925339981914,95.447389628971 113.78737108130008,101.13159388699569 114.76957924105227,104.86184566398151 115.42438468150795,105.75 115.75178740173578,105.39473830466159 115.26068332139403,103.26316703576595 112.80516292061657,97.75659922137856 110.34964251983911,92.60528248548508 107.07561531756073,87.45395476697013 106.7482125973329,85.5" stroke="#4dd2ff" stroke-linecap="round" stroke-linejoin="round" stroke-width="0.5"><title>2023-11-10 1.0km</title><desc>10191120477</desc></polyline><polyline fill="none" points="129.0489014852792,86.11832349712495 131.47067950852215,87.9732928982703 132.89525481592864,90.44658288673963 133.32262740842998,91.37406588252634 133.32262740842998,92.76528960908763 134.88966024620458,97.55727539851796 135.45949036907405,100.33971374866087 136.59915061527863,103.43130759662017 136.88406567648053,104.9771028162213 137.59635333064944,105.75 138.02372592221946,105.59542058606166 138.4510985147208,104.9771028162213 136.88406567648053,103.89504628209397 134.31983012333512,100.18513393669855 131.32822197815403,91.99238765251357 130.61593432398513,87.35496994620189 129.9036466702819,85.5" stroke="#4dd2ff" stroke-linecap="round" stroke-linejoin="round" stroke-width="0.5"><title>2023-11-09 1.0km</title><desc>10185506531</desc></polyline><polyline fill="none" points="152.2996659753844,87.12591993960086 153.7980685364455,90.08213464240544 154.3429421945475,91.56024036393501 156.11378158535808,95.40331015421543 156.79487365856767,98.0638926285319 156.65865524392575,96.43798153463285 156.93109207367525,97.47265238279942 157.4759657313116,101.46352066658437 158.7019314635545,105.15876201470383 159.24680512258783,105.75 159.92789719533175,105.45438102865592 160.2003340246156,105.01095249096397 158.7019314635545,103.68066629045643 157.61218414641917,101.90694998705294 156.93109207367525,99.98542222601827 155.9775631702505,96.73360183159821 154.615379024297,94.81206912617199 153.11697646277025,91.56024036393501 152.7083212188445,89.19527068792377 152.84453963348642,86.23905468103476 152.5721028042026,85.5" stroke="#4dd2ff" stroke-linecap="round" stroke-linejoin="round" stroke-width="0.5"><title>2023-11-08 1.0km</title><desc>10179505859</desc></polyline><polyline fill="none" points="177.83647836279124,96.68708925554529 182.40408654883504,105.75 182.66509273042902,105.60839234781452 182.01257727574557,104.05070748343132 180.83804945647717,102.06819765258115 180.05503091029823,100.08568578166887 178.4889938174747,98.38638826808892 177.96698145428672,97.39513069286477 177.5754721807316,93.99652941920795 177.31446599867195,93.00526958494447 175.74842890631407,90.31470460584387 174.83490726957098,85.5" stroke="#4dd2ff" stroke-linecap="round" stroke-linejoin="round" stroke-width="0.5"><title>2023-11-06 1.0km</title><desc>10167691585</desc></polyline><polyline fill="none" points="19.303250796161592,118.36917556147091 20.243060756940395,120.11738014931325 23.733783466741443,128.1299647752894 25.21062769088894,132.64613456081133 25.479144821874797,132.9375 25.747661953326315,132.9375 25.747661953326315,132.50045182509348 24.673593427054584,130.16952659829985 23.733783466741443,128.85837995330803 23.599524901248515,128.1299647752894 22.7939735064283,127.25586620881222 20.511577888391912,123.32241788762622 17.826406572479755,116.47528551763389 16.752338046673685,112.6875" stroke="#4dd2ff" stroke-linecap="round" stroke-linejoin="round" stroke-width="0.5"><title>2023-11-05 1.1km</title><desc>10161301187</desc></polyline><polyline fill="none" points="39.96351998578757,112.6875 42.66814856696874,118.70382579986472 43.88523142877966,123.98643837927375 45.778471435885876,127.65491111110896 46.45462858164683,130.58968444226775 47.13078572647646,132.9375 47.53648001421243,132.49728479317855 47.401248584501445,132.05706948938314 45.643240007106215,128.82882096152753 45.50800857739523,128.3886048485292 43.88523142877966,125.89404504140839 43.20907428301871,123.54622119839769 41.45106570562348,120.3179589046631 41.04537141835317,117.52990999480244 40.233982843812555,114.59511746116914" stroke="#4dd2ff" stroke-linecap="round" stroke-linejoin="round" stroke-width="0.5"><title>2023-11-04 1.0km</title><desc>10155501797</desc></polyline><polyline fill="none" points="71.68291300861165,115.76346452429425 70.14752454962581,113.71282211167272 69.20267011318356,113.07199586252682 67.31296124076471,112.6875 65.54135917266831,112.81566529721022 63.061116276774555,113.96915254509076 61.99815503554419,114.99447390250862 61.05330059956759,116.91694982117042 60.81708699045703,118.4549290293362 60.46276657702401,123.5815165862441 60.698980185668916,128.96441728936043 60.93519379524514,129.73340174683835 62.1162618403323,131.65586140565574 63.533543495461345,132.68117235659156 65.89567958610132,132.9375 68.0216020680964,132.04035308305174 70.02941774576902,129.60523769422434 70.6199517683126,128.45176079589874 71.44669939996675,124.73499670787714 71.44669939996675,121.78721265657805 72.03723342251033,117.94226944388356 71.91912661818787,116.53245480707847 70.6199517683126,114.99447390250862 69.55699052708223,114.22548294090666 67.07674763118848,113.07199586252682 65.77757278131321,113.07199586252682 62.943009472917765,113.96915254509076 61.64383462257683,115.12263902975246 60.81708699045703,116.6606198210502 60.580873381346464,117.68593959498685 60.81708699045703,121.91537728451658 60.580873381346464,123.83784556796309" stroke="#4dd2ff" stroke-linecap="round" stroke-linejoin="round" stroke-width="0.5"><title>2023-11-03 1.0km</title><desc>10152446508</desc></polyline><polyline fill="none" points="84.55896987952292,112.6875 85.66603443957865,115.09005155786872 86.61494691949338,119.38031604560092 88.19646772090346,122.4693015946541 90.5687489202246,128.64726042887196 91.04320516064763,129.67691864538938 91.83396556135267,132.422671667533 92.3084218017757,132.9375 92.9410301214084,132.9375 92.9410301214084,132.5942811241839 91.83396556135267,132.0794527165126 91.35950932092965,130.87818599003367 90.25244476087391,129.84852830367163 89.4616843611002,127.61760175903328 88.35461980011314,125.90150296594948 87.0894031599164,123.32735241041519 85.66603443957865,118.00743226753548 84.7171219587326,115.77649440569803" stroke="#4dd2ff" stroke-linecap="round" stroke-linejoin="round" stroke-width="0.5"><title>2023-11-02 1.1km</title><desc>10144903556</desc></polyline><polyline fill="none" points="107.8015983053483,114.1548982084496 108.07206118293107,115.76903499208856 109.15391269512475,118.26360745343845 111.04715284146369,125.01361142355017 114.29270737851039,131.76359256613068 115.23932745074853,132.9375 114.69840169558302,131.17663859052118 112.6699301097542,128.09512738557532 111.58807859802619,124.13317741767969 110.23576420778409,122.22556907287799 108.6129869390279,118.70382579963189 107.2606725487858,112.6875" stroke="#4dd2ff" stroke-linecap="round" stroke-linejoin="round" stroke-width="0.5"><title>2023-11-01 1.0km</title><desc>10138966680</desc></polyline><polyline fill="none" points="130.80337887629867,112.99201274476945 131.50495533458889,115.2758569016587 132.6274776677601,121.36609567410778 134.45157645829022,125.32474127190653 135.57409879099578,128.9788689535344 137.39819758245721,132.9375 137.538512873929,132.78524509933777 136.275675249286,130.95818542258348 134.45157645829022,126.69503990781959 132.90810825070366,123.95444172876887 130.2421177108772,115.88488158478867 129.96148712653667,112.6875" stroke="#4dd2ff" stroke-linecap="round" stroke-linejoin="round" stroke-width="0.5"><title>2023-10-31 1.0km</title><desc>10133123337</desc></polyline><polyline fill="none" points="153.07055966323242,115.08751049847342 153.7617423455231,118.6875209530117 153.7617423455231,120.03752323566005 155.28234424535185,122.58752511010971 159.42944033676758,131.43750689248554 160.12062301905826,132.78750073863193 160.39709609141573,132.9375 157.21765575464815,126.63752153690439 155.8352903914638,122.73752512130886 154.3146884907037,119.58752257388551 152.10290390858427,112.6875" stroke="#4dd2ff" stroke-linecap="round" stroke-linejoin="round" stroke-width="0.5"><title>2023-10-30 1.0km</title><desc>10127985445</desc></polyline><polyline fill="none" points="175.55782746803015,115.61843505850993 176.17170680081472,119.74838095868472 176.54003440076485,121.08061956369784 178.9955517333001,126.80923440493643 180.22331039886922,130.13981610385235 182.06494839815423,132.67105410073418 182.55605186522007,132.9375 182.6788277309388,132.53783113637473 181.5738449320197,130.80593170877546 179.9777586660348,127.34212788811419 177.15391373354942,122.14640974276699 176.04893093416467,118.28291736193933 175.18949986761436,116.55100431060418 175.06672400142998,113.88651946058962 174.82117226859555,112.6875" stroke="#4dd2ff" stroke-linecap="round" stroke-linejoin="round" stroke-width="0.5"><title>2023-10-28 1.0km</title><desc>10115543824</desc></polyline><polyline fill="none" points="18.62350542237982,144.07501651963685 19.72939787618816,147.67502379789948 20.97352688619867,150.52502505504526 22.079419340007007,154.5750199931208 23.738258020952344,158.475007521105 24.429440803825855,159.975000739214 25.120623587165028,160.125 25.258860144298524,159.975000739214 24.982387030962855,159.07500494050328 24.152967690490186,156.82501370762475 21.388236556667835,151.42502462514676 19.17645164905116,145.42501999344677 17.794086081907153,142.42501106101554 17.241139855235815,139.875" stroke="#4dd2ff" stroke-linecap="round" stroke-linejoin="round" stroke-width="0.5"><title>2023-10-27 1.0km</title><desc>10110442644</desc></polyline><polyline fill="none" points="41.00559645984322,143.00185145356227 43.61277982359752,151.78678922646213 44.57332106260583,154.46693214715924 45.5338623020798,156.1047955197282 46.631623717956245,159.2316219160566 47.04328424902633,159.8272073493572 47.866605311166495,160.125 48.003825487568974,159.6783110073302 47.866605311166495,159.08272553049028 46.49440354062244,157.29596804978792 44.43610088573769,153.72244835831225 41.96613769978285,146.42649274435826 40.31949557503685,143.74633918318432 39.49617451289669,139.875" stroke="#4dd2ff" stroke-linecap="round" stroke-linejoin="round" stroke-width="0.5"><title>2023-10-26 1.0km</title><desc>10104873905</desc></polyline><polyline fill="none" points="65.2357644313015,149.559808241087 68.34608684293926,157.33696871763095 69.83363234438002,159.97826160863042 70.37455798033625,160.125 70.23932657158002,158.65761559992097 66.58807852305472,152.3478503873339 64.55960738519207,147.2119802555535 62.80159906577319,143.54349349928088 62.12544201966375,139.875" stroke="#4dd2ff" stroke-linecap="round" stroke-linejoin="round" stroke-width="0.5"><title>2023-10-25 1.0km</title><desc>10098978222</desc></polyline><polyline fill="none" points="85.00399029208347,139.875 84.86777175730094,140.90967647731304 85.68508296646178,144.30932401050813 86.77483124518767,146.52648234833032 87.45592391910031,149.18706912605558 88.68189073260874,152.73451268603094 91.27004289394245,157.7600470155012 92.08735410310328,159.82938102900516 92.359791173134,160.125 92.63222824316472,159.97719051979948 92.49600970791653,158.05566629034 90.99760582484305,155.2472814208595 89.90785754658282,153.6213725982234 88.54567219736055,150.51736119459383 88.27323512826115,148.8914485470159 86.63861270993948,146.37867186870426 85.68508296646178,144.1615133676678 85.41264589643106,141.50091993948445 85.00399029208347,139.875" stroke="#4dd2ff" stroke-linecap="round" stroke-linejoin="round" stroke-width="0.5"><title>2023-10-24 1.0km</title><desc>10092835699</desc></polyline><polyline fill="none" points="109.1689931480214,143.3714176582871 111.18287074705586,150.50991788762622 112.12268029246479,152.25811810558662 113.19674834469333,156.62861190270633 114.80785042373464,159.54226907889824 115.47914295690134,160.125 114.80785042373464,159.39658632164355 113.86804087786004,157.06566075223964 111.45138775976375,154.15199993434362 110.91435373341665,153.1322176362155 110.37731970753521,149.78150067513343 108.7662176284939,146.576461758581 107.69214957626536,143.22573371243197 107.02085704356432,139.875" stroke="#4dd2ff" stroke-linecap="round" stroke-linejoin="round" stroke-width="0.5"><title>2023-10-23 1.0km</title><desc>10087395010</desc></polyline><polyline fill="none" points="127.19377563544549,139.97212378395488 127.55179471336305,139.875 130.10268064355478,140.06924755359069 131.22149026207626,140.3606187768164 131.49000457045622,140.50630434026243 132.0717855724506,140.9433608376421 132.47455703490414,141.42897882888792 133.36960472958162,143.08007732807891 133.8171285772696,144.92541782493936 134.39890957879834,145.89664759440348 134.6674238871783,146.6736303816433 135.29395727347583,148.08190935390303 135.74148112116382,149.53874651010847 136.41276689223014,150.70421392138815 136.7260335853789,151.04414152895333 137.12880504806526,151.72399621928344 137.35256697167642,153.18082534213318 137.48682412598282,153.56931256566895 137.84484320366755,154.10348212474491 137.93434797343798,154.9290160482633 138.06860512751155,155.2689414814813 140.03771005617455,159.93075834482443 140.3062243645545,160.125 140.3062243645545,159.88219792197924 139.90345290186815,159.49371441151015 139.45592905464582,158.4253835794516 139.00840520719066,157.50273283413844 137.80009081913158,153.76355609169696" stroke="#4dd2ff" stroke-linecap="round" stroke-linejoin="round" stroke-width="0.5"><title>2023-10-22 1.5km</title><desc>10080655811</desc></polyline><polyline fill="none" points="153.02918930258602,139.875 153.7396622505039,140.3889666463947 152.46081094397232,140.18338003312238 154.45013519842178,142.75320835225284 154.639594651293,143.36996574304067 154.497500061756,143.88392981956713 153.83439197693951,144.24370444845408 153.64493252406828,144.60347889200784 153.6922973874025,145.22023465007078 154.07121629291214,146.71072548575466 154.497500061756,147.79004445188912 154.97114869370125,149.434717767057 155.82371623115614,150.9251996167004 155.96581082069315,151.49055396963377 156.48682431597263,152.41567828820553 156.81837835838087,152.82684425916523 156.86574322148226,153.0838228680659 157.19729726412334,153.39219707419397 157.43412157986313,153.90615378203802 157.7656756225042,154.88267048588023 158.09722966491245,155.55081270786468 158.04986480181105,156.88709523604484 158.66560802306049,158.06918918946758 158.85506747616455,158.63453776505776 159.18662151833996,159.25128114421386 159.75499987672083,159.97081439883914 160.03918905602768,160.125 158.94979720236734,158.58314245886868 158.7129728863947,157.76081704656826 158.23932425421663,156.7329089207924 158.04986480181105,156.06476782867685 157.43412157986313,155.19104389852146 156.91310808481649,153.70057114429073" stroke="#4dd2ff" stroke-linecap="round" stroke-linejoin="round" stroke-width="0.5"><title>2023-10-20 1.4km</title><desc>10069668027</desc></polyline><polyline fill="none" points="174.67527352948673,139.875 174.77171675954014,140.65989445487503 175.54326259996742,142.54363761417335 175.73614906030707,143.69481153483503 177.32746235630475,147.56692832900444 177.47212720150128,148.0901857393328 177.56857043178752,148.87507113360334 177.76145689189434,149.39832758228295 178.91877565253526,151.02042012807215 179.54565664823167,152.27623117278563 179.9314295684453,153.53204000164988 180.26898087374866,154.21226885879878 180.46186733385548,155.25877352332463 180.70297540910542,155.78202527854592 181.329856404569,157.40410327503923 181.4262996346224,158.032003442524 182.34251032047905,159.91570062126266 182.58361839549616,160.125 182.7282832406927,160.125 182.82472647051327,160.07267516100546 182.7765048558358,160.02035031822743 181.81207255506888,158.81687787279952 181.37807801971212,157.35177823604317 180.46186733385548,155.6773749582353 180.31720248865895,154.9971475013881 180.22075925860554,153.84599186270498" stroke="#4dd2ff" stroke-linecap="round" stroke-linejoin="round" stroke-width="0.5"><title>2023-10-19 1.3km</title><desc>10064004415</desc></polyline><polyline fill="none" points="16.683780145365745,167.0625 18.669093125034124,169.6476180711761 18.536738926544785,171.51464566180948 18.801447323989123,173.3816714681452 19.727926715277135,176.68486659962218 21.0514687015675,178.8391212853603 22.375010688323528,182.57315711281262 25.022094662766904,186.88165112154093 25.41915725870058,187.3125 25.816219854168594,187.16888371750247 24.09561527147889,185.44548750738613 20.919114503078163,179.2699719374068 20.12498931074515,176.54124953609426 17.874967933166772,171.801880517276" stroke="#4dd2ff" stroke-linecap="round" stroke-linejoin="round" stroke-width="0.5"><title>2023-10-18 1.0km</title><desc>10058081424</desc></polyline><polyline fill="none" points="40.215541414916515,168.28977832128294 41.34656816208735,174.8863869321067 44.31551337428391,182.7102445284836 46.294810181483626,186.85227490961552 47.14308024197817,187.3125 47.56721527222544,187.3125 47.84997195890173,186.6988665240351 46.860323555767536,185.4715990293771 45.58791846502572,183.47728781227488 43.89137834357098,179.7954774799291 43.184486627113074,177.64775178639684 40.215541414916515,171.66478998365346 39.93278472870588,170.74433279887307 39.65002804156393,167.0625" stroke="#4dd2ff" stroke-linecap="round" stroke-linejoin="round" stroke-width="0.5"><title>2023-10-17 1.0km</title><desc>10051702317</desc></polyline><polyline fill="none" points="61.72806673264131,167.52980987390038 63.16360110323876,170.0221274610376 65.31690265890211,175.62983131210785 66.46533015556633,177.8106010237243 67.75731108849868,181.86059596168343 69.33639889676124,185.91058315860573 69.91061264462769,187.00096300430596 70.62837982969359,187.3125 70.77193326735869,187.15673150809016 70.62837982969359,186.68942596274428 69.04929202236235,184.3528966914164 66.895990466699,179.05675413680729 65.31690265890211,175.78560065152124 64.0249217255041,169.7105879226001 63.307154539972544,167.0625" stroke="#4dd2ff" stroke-linecap="round" stroke-linejoin="round" stroke-width="0.5"><title>2023-10-16 1.0km</title><desc>10046279660</desc></polyline><polyline fill="none" points="84.60290070716292,167.0625 85.19534346461296,168.34821986232419 85.78778622020036,171.2410867883591 87.12078242190182,175.74109439761378 88.89811068959534,178.47323735512327 90.97166033554822,186.18750492099207 91.71221378166229,186.99107289360836 92.74898860417306,187.3125 92.8970992937684,186.99107289360836 92.74898860417306,186.02679129096214 90.8235496468842,183.29465777392033 89.7867748234421,180.08037867606618 88.6018893122673,178.15180894907098 85.78778622020036,171.56251621060073 84.75101139675826,167.0625" stroke="#4dd2ff" stroke-linecap="round" stroke-linejoin="round" stroke-width="0.5"><title>2023-10-15 1.0km</title><desc>10039610121</desc></polyline><polyline fill="none" points="107.03601107932627,168.5322642774554 107.48750989232212,173.2681647790596 108.69150672666728,176.69760366680566 110.19650277029723,178.82058699114714 111.09950039628893,181.76009901426733 113.65799366869032,186.33266554027796 114.25999208539724,186.9858885614667 115.01249010767788,187.3125 115.46398892067373,186.9858885614667 115.46398892067373,186.4959713134449 112.45399683434516,184.04638345376588 110.49750197865069,180.45364970644005 109.74500395730138,177.3508295211941 107.93900870531797,173.2681647790596 107.03601107932627,169.8387205969775 107.18651068396866,167.71572868782096 107.03601107932627,167.0625" stroke="#4dd2ff" stroke-linecap="round" stroke-linejoin="round" stroke-width="0.5"><title>2023-10-14 1.0km</title><desc>10033377496</desc></polyline><polyline fill="none" points="129.15856931451708,167.38393003679812 131.8245613258332,170.59822780278046 132.1207826603204,173.0089480257593 134.6386640034616,180.7232348738471 137.0084346793592,186.34821853914764 137.7489880155772,187.3125 138.34143068548292,187.3125 138.34143068548292,186.83035932295024 138.193320017308,186.34821853914764 136.8603240121156,185.3839366529137 135.3792173396796,182.65180233237334 133.75,177.50895199575461 130.787786655128,170.9196573193185 130.3434546533972,168.66964971018024 129.60290131624788,167.0625" stroke="#4dd2ff" stroke-linecap="round" stroke-linejoin="round" stroke-width="0.5"><title>2023-10-13 1.0km</title><desc>10028006924</desc></polyline><polyline fill="none" points="151.90504435403273,167.0625 153.32961997529492,168.91746994643472 154.18436534842476,170.46327698463574 154.32682291138917,172.4728244356811 154.18436534842476,174.6369503120659 155.7513985321857,177.8831349503016 157.60334684047848,182.82969238027 159.45529514877126,186.23044386308175 159.88266783533618,186.8487617240753 160.5949556455016,187.3125 160.5949556455016,186.53960281633772 159.02792246220633,184.53006880928297 157.60334684047848,182.05679354909807 155.7513985321857,176.95565413648728 154.61173803498968,174.946110969875 154.04190778639168,173.24572679039557" stroke="#4dd2ff" stroke-linecap="round" stroke-linejoin="round" stroke-width="0.5"><title>2023-10-12 1.0km</title><desc>10021974100</desc></polyline><polyline fill="none" points="176.3824395830743,169.93378079403192 176.93951262207702,172.95617729763035 176.80024436255917,174.16513465484604 178.0536587005481,178.24536048504524 179.02853651950136,180.05879158736207 180.0034143384546,183.38341112039052 181.39609693642706,186.70802527631167 181.67463345639408,187.01026266010012 182.37097475584596,187.3125 182.2317064953968,186.70802527631167 180.69975563744083,182.77893524174578 179.02853651950136,179.90767238975968 176.80024436255917,174.76961306645535 176.24317132262513,172.80505757802166 175.96463480358943,169.93378079403192 175.12902524415404,167.0625" stroke="#4dd2ff" stroke-linecap="round" stroke-linejoin="round" stroke-width="0.5"><title>2023-10-10 1.0km</title><desc>10009069592</desc></polyline><polyline fill="none" points="17.819495575036854,196.78126107272692 18.78003681404516,199.46141640702263 19.74057805305347,203.03495133598335 21.798880708869547,207.50186113012023 23.44552283268422,213.15993272676133 24.406064071692526,214.5 24.68050442589447,214.0533110073302 24.81772460276261,212.415450524888 23.857183363754302,209.5864156623138 21.798880708869547,206.01289229327813 19.46613769978285,199.46141640702263 18.78003681404516,196.48346581635997 17.68227539770305,194.25" stroke="#4dd2ff" stroke-linecap="round" stroke-linejoin="round" stroke-width="0.5"><title>2023-10-09 1.0km</title><desc>10003389142</desc></polyline><polyline fill="none" points="39.62701159808785,194.25 40.639675416518,195.5058195394231 41.6523392344825,197.86047918454278 42.23100427305326,202.5697906849673 44.4009981690906,207.27909179858398 46.281659544911236,212.6162871712586 47.14965710323304,214.18604797730222 47.87298840191215,214.5 47.87298840191215,213.24419163237326 45.12432946776971,208.84885652828962 41.50767297483981,200.05815917695872 40.06101037748158,194.4069774830714" stroke="#4dd2ff" stroke-linecap="round" stroke-linejoin="round" stroke-width="0.5"><title>2023-10-08 1.0km</title><desc>9996447828</desc></polyline><polyline fill="none" points="63.650658363476396,198.30001667432953 64.31715621938929,200.75895130157005 66.31664978573099,206.11073957325425 66.98314764164388,208.42502188449726 69.11594077944756,213.7767893030541 69.78243863536045,214.5 69.91573820635676,213.92143146391027 69.91573820635676,213.34286275773775 67.38304635509849,208.8589495148044 66.18335021473467,206.25538229721133 64.050557076931,199.89109237212688 63.384059221018106,196.56429626303725 62.5842617941089,194.25" stroke="#4dd2ff" stroke-linecap="round" stroke-linejoin="round" stroke-width="0.5"><title>2023-10-07 1.0km</title><desc>9989974159</desc></polyline><polyline fill="none" points="87.09557300293818,200.28193684492726 88.15440628072247,203.7287495364435 88.94853123975918,205.45215360203292 90.53678115690127,212.20213821833022 90.93384363641962,213.49468580295797 91.72796859499067,214.5 92.38973939372227,214.5 92.65444771293551,213.9255348078441 92.52209355402738,213.49468580295797 90.93384363641962,211.1968228383921 89.34559371881187,207.7500233236933 88.81617707991973,205.45215360203292 86.0367397251539,198.70214566227514 85.63967724563554,196.2606476843357 84.84555228706449,194.25" stroke="#4dd2ff" stroke-linecap="round" stroke-linejoin="round" stroke-width="0.5"><title>2023-10-06 1.0km</title><desc>9984428862</desc></polyline><polyline fill="none" points="106.89044428616762,194.25 109.18494729418308,200.39141263160855 110.71461596526206,205.53690765006468 113.31505270767957,212.0102556941565 114.38582077715546,214.16803425177932 114.84472137875855,214.5 115.456588848494,214.5 115.6095557147637,214.16803425177932 115.15065511316061,213.33811966574285 113.31505270767957,210.68239094223827 112.24428463727236,208.52460905362386 110.40868223086,203.71108817961067 109.64384789578617,201.2213319762377 107.50231175590307,197.2377163397614 107.50231175590307,195.74385866406374" stroke="#4dd2ff" stroke-linecap="round" stroke-linejoin="round" stroke-width="0.5"><title>2023-10-04 1.0km</title><desc>9971682885</desc></polyline><polyline fill="none" points="130.68508319184184,196.6149740224937 131.36617581546307,198.9799452634761 132.04726843954995,200.6058613777859 132.59214253909886,203.11863824073225 135.18029451044276,208.29199248191435 135.3165130354464,210.0657108714804 136.13382418453693,213.61314295674674 136.4062612336129,214.0565715271514 137.22357238270342,214.5 137.22357238270342,213.02190471056383 135.45273156045005,209.77009124867618 134.22676483727992,206.96170266275294 133.54567221272737,205.63141196337529 132.86457958864048,203.70987939927727 131.50239434093237,200.90148234833032 130.9575202409178,198.68432401039172 130.68508319184184,196.46716322784778 130.27642761729658,194.25" stroke="#4dd2ff" stroke-linecap="round" stroke-linejoin="round" stroke-width="0.5"><title>2023-10-03 1.0km</title><desc>9965060084</desc></polyline><polyline fill="none" points="152.54845587722957,195.08678042737301 154.39922793861479,201.11159042594954 154.70768994838,203.78927864029538 155.78730698488653,205.1281215660274 156.55846201069653,207.13638447842095 157.94654105603695,212.3243888024008 159.02615809161216,213.9979360619327 159.79731311742216,214.5 159.95154412277043,214.33264536620118 159.48885110765696,212.9938078536652 157.79231005162,209.81406560575124 155.01615195907652,203.11985688167624 153.31961090210825,198.0991874197498 153.01114889234304,194.25" stroke="#4dd2ff" stroke-linecap="round" stroke-linejoin="round" stroke-width="0.5"><title>2023-10-02 1.0km</title><desc>9958643020</desc></polyline><polyline fill="none" points="175.54014479368925,197.81401349406224 175.8387359753251,199.27201735321432 179.12323897797614,207.0480216400465 180.765490478836,212.07000982540194 181.6612640246749,213.8520028818166 182.55703757051378,214.5 182.7063331613317,214.3380007382948 182.55703757051378,213.69000357273035 179.57112575042993,209.15401807927992 176.734509521164,202.18802217626944 175.39084920194,197.97601397067774 174.7936668386683,194.25" stroke="#4dd2ff" stroke-linecap="round" stroke-linejoin="round" stroke-width="0.5"><title>2023-10-01 1.0km</title><desc>9952075403</desc></polyline><polyline fill="none" points="18.342523633036762,224.3722953387769 19.559606763534248,226.86686798359733 20.100532598327845,229.36143751093186 20.50622697547078,231.7092648060061 22.534698859322816,237.43208226771094 24.29270782507956,241.1005463694455 25.10409657796845,241.6875 25.3745594965294,241.24728479317855 22.66993031837046,237.1386048485292 21.452847188338637,234.35056721174624 21.0471528111957,232.8831774177961 19.153912386856973,228.7744802555535 18.072060714941472,224.22555567405652 17.12544050300494,221.4375" stroke="#4dd2ff" stroke-linecap="round" stroke-linejoin="round" stroke-width="0.5"><title>2023-09-30 1.0km</title><desc>9945549317</desc></polyline><polyline fill="none" points="40.61479443218559,221.4375 41.95845396164805,223.70550925424322 42.40634047053754,225.48751488770358 43.600704496726394,228.40352099761367 44.19788650982082,232.7775229269173 44.64577301964164,234.07352183095645 46.43731905706227,238.44751250534318 46.88520556688309,241.20150217949413 47.1837965734303,241.5255007384112 47.63168308325112,241.6875 47.780978586524725,241.36350146471523 45.093659528531134,236.5035177222453 43.30211349017918,232.2915231413208 42.70493147801608,229.86152260517702 40.61479443218559,225.0015134946443 39.719021413475275,222.08550288225524" stroke="#4dd2ff" stroke-linecap="round" stroke-linejoin="round" stroke-width="0.5"><title>2023-09-28 1.0km</title><desc>9933629332</desc></polyline><polyline fill="none" points="62.2914034742862,223.73864626022987 63.42243105312809,227.72729376715142 65.54310776293278,230.64206981577445 66.95689223660156,235.85797468852252 68.93619049945846,239.3863735331688 69.50170428911224,241.38068328425288 70.0672180778347,241.6875 70.34997497312725,241.2272749093827 70.0672180778347,240.61364129779395 68.93619049945846,239.07955647888593 65.68448621034622,232.48297890648246 63.98794484185055,227.880703134113 62.150025026872754,221.4375" stroke="#4dd2ff" stroke-linecap="round" stroke-linejoin="round" stroke-width="0.5"><title>2023-09-27 1.0km</title><desc>9927137811</desc></polyline><polyline fill="none" points="90.43223653757013,221.4375 90.02849976834841,223.38464230054524 89.62476299959235,224.50424653000664 89.31074551236816,225.86724042752758 87.47150023118593,229.71281522483332 86.52944777044468,231.31918795610545 86.35000920621678,232.00067824020516 86.43972848821431,232.53613440005574 86.66402669320814,233.31497895013308 87.33692130818963,234.9700205771369 87.56121951318346,235.40811913879588 87.83037735940889,236.18696031038417 88.72757017915137,237.30654288944788 89.1313069483731,238.18273663055152 89.57990335859358,238.8642198499292 89.93878048658371,239.83776608924381 90.4770961785689,240.56792482925812 91.14999079355039,241.6875" stroke="#4dd2ff" stroke-linecap="round" stroke-linejoin="round" stroke-width="0.5"><title>2023-09-26 1.0km</title><desc>9920397094</desc></polyline><polyline fill="none" points="111.15543065872043,221.4375 110.27278347173706,224.37925033428473 109.39013628475368,225.95274088106817 108.5705353252124,226.9789289345499 108.12921173195355,227.79987856239313 107.94007304892875,228.620827465842 108.00311927613802,229.64701257657725 108.31835041474551,230.46795985038625 109.07490514637902,231.63096724828938 109.39013628475368,232.7939731925726 110.0205985608045,234.29903755069245 111.21847688616253,235.8040994745097 113.23595617059618,239.90880143875256 114.55992695130408,241.6875" stroke="#4dd2ff" stroke-linecap="round" stroke-linejoin="round" stroke-width="0.5"><title>2023-09-25 1.0km</title><desc>9914573673</desc></polyline><polyline fill="none" points="135.24293000507168,221.4375 134.74528667028062,222.1935100335977 134.64575800322928,222.57151475851424 134.74528667028062,223.0575205476489 134.7950510038063,223.5435260149534 133.79976433352567,225.37954376696143 133.5509426658973,226.62155317288125 133.20259233145043,227.5395587750827 131.11249032407068,231.21156970900483 131.062725990545,231.64356978813885 131.26178332441486,232.5075691845268 131.80919099319726,233.37156756437616 132.1077769943513,234.1275653130142 132.5556559956167,234.8835622833576 132.80447766324505,235.6395584755228 133.4514139990788,236.66555206326302 133.94905733386986,237.6915442176978 134.4964650028851,238.28553902043495 134.64575800322928,238.8255338787567 134.99410833767615,239.25752947950969 135.7405733403284,240.55351475760108 136.28798100887798,241.14750724571059 136.437274009455,241.6875" stroke="#4dd2ff" stroke-linecap="round" stroke-linejoin="round" stroke-width="0.5"><title>2023-09-24 1.0km</title><desc>9907510217</desc></polyline><polyline fill="none" points="157.00492160650901,221.4375 156.58216550690122,222.09284700959688 156.28019686439075,222.74819353723433 156.09901567874476,223.6001433028723 156.0386219501961,224.71423022903036 155.01192856533453,226.09045333304675 154.40799128031358,227.6632771352306 153.86444772337563,228.44968799548224 153.5020853523165,229.49823472998105 153.441691623535,230.6123142836732 154.70995992282405,233.82347697060322 155.19310975074768,234.80648364365334 156.7633466925472,237.2967623632867 157.4276777061168,238.9350998318987 158.27318990556523,239.98363423132105 158.75633973395452,240.835567522794 159.05830837669782,241.6875" stroke="#4dd2ff" stroke-linecap="round" stroke-linejoin="round" stroke-width="0.5"><title>2023-09-23 1.0km</title><desc>9901004991</desc></polyline><polyline fill="none" points="179.52756968373433,221.4375 179.12438540323637,222.18750860280124 178.72120112297125,223.50002206512727 177.79963705362752,225.4375382339931 176.8780729842838,226.75004667782923 176.0717044235207,228.9375562473433 176.01410666899756,230.12505908461753 176.12930217804387,230.81255996931577 177.2812572645489,233.56255794683238 177.4540505274199,234.37505564675666 177.68444154481404,234.81255408655852 178.4908101055771,235.8125496749999 179.12438540323637,237.06254250602797 179.64276519208215,238.37503300071694 180.5067315073684,239.62502206396312 181.48589333100244,241.6875" stroke="#4dd2ff" stroke-linecap="round" stroke-linejoin="round" stroke-width="0.5"><title>2023-09-22 1.0km</title><desc>9895405405</desc></polyline><polyline fill="none" points="22.323457887861878,248.625 22.158310520462692,249.2223523578141 21.82801578589715,249.58076356170932 21.112377193989232,250.89493662299355 20.837131581734866,251.85069751407718 20.011394744971767,253.9414205433568 19.130608786130324,255.73346457176376 18.58011756138876,257.0476276803529 18.414970193989575,257.7047084373771 18.414970193989575,258.1228504606406 18.58011756138876,258.72019583481597 18.910412295954302,259.3175407698727 19.62605088809505,261.16930727718864 20.34168947977014,262.4834615928121 20.727033336879686,263.43920885090483 21.442671928554773,264.6338913424406 21.883064907975495,265.1714978906093 22.213359642773867,266.1272419865709 23.09414560184814,267.6803237446002 24.085029805777594,268.875" stroke="#4dd2ff" stroke-linecap="round" stroke-linejoin="round" stroke-width="0.5"><title>2023-09-21 1.0km</title><desc>9889267953</desc></polyline><polyline fill="none" points="45.81170178856701,248.625 45.089043429587036,250.79302668903256 44.663950277492404,252.49976583267562 43.9838012335822,253.92973289149813 43.17612424399704,256.3283799929777 41.77331684133969,258.9576557026012 41.390733004314825,260.3876080412301 41.43324231938459,260.71050005371217 41.6882982107345,261.40241094940575 42.24091930896975,262.60172136098845 42.580993830924854,263.6165206877631 43.43118013557978,264.81582686671754 43.941291918512434,265.784495568485 44.23885712493211,266.4764008682687 44.57893164665438,267.07605151092866 45.13155274488963,267.4911939277663 45.81170178856701,268.50598534586607 45.85421110410243,268.6904927000869 46.109266995452344,268.875" stroke="#4dd2ff" stroke-linecap="round" stroke-linejoin="round" stroke-width="0.5"><title>2023-09-20 1.0km</title><desc>9882714971</desc></polyline><polyline fill="none" points="67.92906590504572,248.625 67.49730610102415,249.71820245083654 66.6817598042544,252.11283049179474 66.63378649251536,252.8936857105 66.34594662301242,253.3101414749981 66.01013344223611,254.09099537302973 65.8182401957456,254.81979156762827 65.43445370299742,255.80887091724435 64.33106753672473,257.57879893644713 64.0432276672218,258.6199309984804 63.947281044209376,259.55694854533067 64.0432276672218,260.4939648518921 64.33106753672473,261.53509262710577 64.66688071750104,262.2638811588986 65.72229357250035,264.08584920619614 66.25,264.8146351122414 66.72973311552778,266.11603665031726 67.20946623152122,266.94893237925135 67.689199347049,267.6256594376173 68.21690577454865,268.1462182732066 68.55271895579062,268.875" stroke="#4dd2ff" stroke-linecap="round" stroke-linejoin="round" stroke-width="0.5"><title>2023-09-19 1.0km</title><desc>9876194288</desc></polyline><polyline fill="none" points="88.60094494954683,248.625 88.24321282887831,249.20727487810655 87.64699262776412,250.3718234784319 87.46812656731345,251.14818835549522 86.39493020484224,253.02440064720577 85.56022192304954,254.77121539146174 85.38135586259887,255.41818293527467 85.44097788305953,256.12984668376157 85.79871000372805,257.0355997134466 86.33530818484724,258.0060483532725 86.81228434597142,259.36467465094756 87.46812656731345,260.7879951891373 88.18359080865048,262.08192095329287 88.83943303022534,262.92297167977085 89.6145192917902,264.21689430449624 90.09149545268156,265.70490297081415 90.92620373470709,266.99882150505437 91.34355787560344,268.1633465591003 92.11864413740113,268.875" stroke="#4dd2ff" stroke-linecap="round" stroke-linejoin="round" stroke-width="0.5"><title>2023-09-18 1.0km</title><desc>9870505463</desc></polyline><polyline fill="none" points="111.45347620127723,248.625 111.16279591363855,249.19276352168527 110.7558435110841,251.08530588028952 110.23261899338104,251.96849088562885 110.00007476331666,252.662421323359 108.721081498079,254.74420926929452 108.25599303795025,255.87972783809528 107.96531275031157,256.88907641521655 108.19785698037595,257.5830028732307 109.4768502456136,260.3587030930212 110.11634687846527,261.368046401185 110.58143533836119,262.44047236500774 111.33720408612862,263.44981322425883 111.7441564889159,264.14373437612085 112.26738100638613,265.7839094134979 114.53468724968843,268.875" stroke="#4dd2ff" stroke-linecap="round" stroke-linejoin="round" stroke-width="0.5"><title>2023-09-16 1.0km</title><desc>9856514700</desc></polyline><polyline fill="none" points="133.4700745639857,248.625 132.8480180397164,250.51501889922656 132.03934455802664,251.79752950766124 130.35979194217362,255.0375483268872 130.29758628970012,255.78005102928728 130.35979194217362,256.6575534485164 130.73302585678175,257.53505502908956 131.35508238128386,258.4800557931885 131.91493325307965,259.7625552743557 132.91022369195707,261.450051862048 134.1543367409613,263.8125418740674 134.27874804567546,264.6900366158807 134.7141876127571,265.027534370136 135.2118328323122,265.7025295064668 136.02050631376915,267.05251829046756 136.8913854479324,267.7950112755061 137.0780024053529,268.2675064987852 137.20241371029988,268.875" stroke="#4dd2ff" stroke-linecap="round" stroke-linejoin="round" stroke-width="0.5"><title>2023-09-15 1.0km</title><desc>9850671982</desc></polyline><polyline fill="none" points="156.76480475603603,248.625 155.73519524396397,251.34830099134706 154.5768845428247,253.02417464280734 154.0620797870215,253.931938302645 153.28987265285105,255.88711862289347 153.09682086925022,256.58539633319015 153.09682086925022,257.1440181314829 153.28987265285105,257.8422949176165 154.0620797870215,259.93712219555164 154.76993632642552,261.3336711471202 156.50740237813443,264.33624443912413 157.21525891753845,265.66295984660974 157.34396010637283,266.43105739331804 157.8587648626417,266.9198464176734 158.69532259111293,268.246558215993 159.40317913074978,268.875" stroke="#4dd2ff" stroke-linecap="round" stroke-linejoin="round" stroke-width="0.5"><title>2023-09-14 1.0km</title><desc>9844236351</desc></polyline><polyline fill="none" points="175.53165259608068,248.625 175.90210985112935,248.9264932339429 176.0410313217435,249.22798633488128 176.1336456357967,249.88122093037236 176.411488577025,250.43395740829874 176.59671720466577,251.99166689504636 176.59671720466577,252.74539601715514 176.5041028908454,253.14738454233157 176.59671720466577,253.64986986643635 176.8282529891003,254.2528517676401 176.73563867527992,254.7553362788749 176.7819458320737,255.00657839589985 177.24501740117557,255.8608009031159 177.66178181325085,257.1170085329795 178.03223906829953,257.8204837971134 178.4953106371686,258.47371017967816 179.0046893628314,258.92594346334226 179.1436108336784,259.22743215295486 179.28253230429254,259.88065719080623 179.65298955957405,260.53388160432223 180.0697539714165,261.73983272747137 180.62543985410593,262.7950382147101 180.90328279556707,263.69949876429746 181.04220426618122,264.45321497449186 181.32004720764235,265.05618734436575 181.82942593330517,266.7143586183083 182.5240332868416,268.02079375850735 182.5703404438682,268.2217835584306 182.5240332868416,268.37252586957766 181.96834740391932,268.875 182.24619034538046,268.674010392162 182.3851118159946,268.37252586957766 182.47772612981498,268.12128866591956 182.4314189730212,267.76955642551184 182.1535760317929,267.4178240040201 181.32004720764235,265.60891154926503 180.90328279556707,264.25222406635294 180.02344681462273,262.29255961440504 179.60668240254745,260.38313756434945 179.37514661811292,259.83040913322475 178.4953106371686,258.67470278718974 177.61547465622425,257.01651200756896 177.19871024414897,255.6598074681242 177.05978877376765,254.7553362788749 176.6893315182533,253.8006153916358 175.94841700815596,252.19266140891705 175.7631883805152,251.43893167714123 175.1148881840054,250.23296237713657 174.97596671339124,249.57972811779473 174.92965955636464,248.77574663364794" stroke="#4dd2ff" stroke-linecap="round" stroke-linejoin="round" stroke-width="0.5"><title>2023-09-13 1.0km</title><desc>9837636972</desc></polyline></svg>