<svg xmlns="http://www.w3.org/2000/svg" xmlns:ev="http://www.w3.org/2001/xml-events" xmlns:xlink="http://www.w3.org/1999/xlink" width="200mm" height="300mm" baseProfile="full" version="1.1" viewBox="0 0 200 300"><rect width="200" height="300" x="0" y="0" fill="#222"/><text fill="#FFF" style="font-size:12px;font-family:Arial;font-weight:700" x="10" y="20">Over 1km Runs</text><text fill="#FFF" style="font-size:4px;font-family:Arial" x="10" y="280">ATHLETE</text><text fill="#FFF" style="font-size:9px;font-family:Arial" x="10" y="290">Jiakai</text><text fill="#FFF" style="font-size:4px;font-family:Arial" x="120" y="280">STATISTICS</text><text fill="#FFF" style="font-size:3px;font-family:Arial" x="120" y="285">Number: 27</text><text fill="#FFF" style="font-size:3px;font-family:Arial" x="120" y="290">Weekly: 5.4</text><text fill="#FFF" style="font-size:3px;font-family:Arial" x="141" y="285">Total: 27.4 km</text><text fill="#FFF" style="font-size:3px;font-family:Arial" x="141" y="290">Avg: 1.0 km</text><text fill="#FFF" style="font-size:3px;font-family:Arial" x="167" y="285">Min: 1.0 km</text><text fill="#FFF" style="font-size:3px;font-family:Arial" x="167" y="290">Max: 1.0 km</text><polyline fill="none" stroke="#4dd2ff" stroke-linecap="round" stroke-linejoin="round" stroke-width=".5" points="20.654 32.314 24.919 37.457 25.393 41.314 29.422 53.657 33.213 62.657 34.398 64.2 35.346 64.2 35.346 63.429 35.109 62.657 32.977 61.114 30.607 56.743 28 48.514 23.26 37.971 22.55 34.371 21.365 31.8"><title>2023-10-13 1.0km</title><desc>10028006924</desc></polyline><polyline fill="none" stroke="#4dd2ff" stroke-linecap="round" stroke-linejoin="round" stroke-width=".5" points="57.048 31.8 59.327 34.768 60.695 37.241 60.923 40.457 60.695 43.919 63.202 49.113 66.165 57.028 69.128 62.469 69.812 63.458 70.952 64.2 70.952 62.963 68.445 59.748 66.165 55.791 63.202 47.629 61.379 44.414 60.467 41.693"><title>2023-10-12 1.0km</title><desc>10021974100</desc></polyline><polyline fill="none" stroke="#4dd2ff" stroke-linecap="round" stroke-linejoin="round" stroke-width=".5" points="96.212 36.394 97.103 41.23 96.88 43.164 98.886 49.693 100.446 52.594 102.005 57.913 104.234 63.233 104.679 63.716 105.794 64.2 105.571 63.233 103.12 56.946 100.446 52.352 96.88 44.131 95.989 40.988 95.543 36.394 94.206 31.8"><title>2023-10-10 1.0km</title><desc>10009069592</desc></polyline><polyline fill="none" stroke="#4dd2ff" stroke-linecap="round" stroke-linejoin="round" stroke-width=".5" points="130.511 35.85 132.048 40.138 133.585 45.856 136.878 53.003 139.513 62.056 141.05 64.2 141.489 63.485 141.708 60.865 140.171 56.338 136.878 50.621 133.146 40.138 132.048 35.374 130.292 31.8"><title>2023-10-09 1.0km</title><desc>10003389142</desc></polyline><polyline fill="none" stroke="#4dd2ff" stroke-linecap="round" stroke-linejoin="round" stroke-width=".5" points="165.403 31.8 167.023 33.809 168.644 37.577 169.57 45.112 173.042 52.647 176.051 61.186 177.439 63.698 178.597 64.2 178.597 62.191 174.199 55.158 168.412 41.093 166.098 32.051"><title>2023-10-08 1.0km</title><desc>9996447828</desc></polyline><polyline fill="none" stroke="#4dd2ff" stroke-linecap="round" stroke-linejoin="round" stroke-width=".5" points="23.841 79.08 24.907 83.014 28.107 91.577 29.173 95.28 32.586 103.843 33.652 105 33.865 104.074 33.865 103.149 29.813 95.974 27.893 91.809 24.481 81.626 23.414 76.303 22.135 72.6"><title>2023-10-07 1.0km</title><desc>9989974159</desc></polyline><polyline fill="none" stroke="#4dd2ff" stroke-linecap="round" stroke-linejoin="round" stroke-width=".5" points="61.353 82.251 63.047 87.766 64.318 90.523 66.859 101.323 67.494 103.391 68.765 105 69.824 105 70.247 104.081 70.035 103.391 67.494 99.715 64.953 94.2 64.106 90.523 59.659 79.723 59.023 75.817 57.753 72.6"><title>2023-10-06 1.0km</title><desc>9984428862</desc></polyline><polyline fill="none" stroke="#4dd2ff" stroke-linecap="round" stroke-linejoin="round" stroke-width=".5" points="93.025 72.6 96.696 82.426 99.143 90.659 103.304 101.016 105.017 104.469 105.752 105 106.731 105 106.975 104.469 106.241 103.141 103.304 98.892 101.591 95.439 98.654 87.738 97.43 83.754 94.004 77.38 94.004 74.99"><title>2023-10-04 1.0km</title><desc>9971682885</desc></polyline><polyline fill="none" stroke="#4dd2ff" stroke-linecap="round" stroke-linejoin="round" stroke-width=".5" points="131.096 76.384 132.186 80.168 133.276 82.769 134.147 86.79 138.288 95.067 138.506 97.905 139.814 103.581 140.25 104.291 141.558 105 141.558 102.635 138.724 97.432 136.763 92.939 135.673 90.81 134.583 87.736 132.404 83.242 131.532 79.695 131.096 76.147 130.442 72.6"><title>2023-10-03 1.0km</title><desc>9965060084</desc></polyline><polyline fill="none" stroke="#4dd2ff" stroke-linecap="round" stroke-linejoin="round" stroke-width=".5" points="166.078 73.939 169.039 83.579 169.532 87.863 171.26 90.005 172.494 93.218 174.714 101.519 176.442 104.197 177.676 105 177.922 104.732 177.182 102.59 174.468 97.503 170.026 86.792 167.311 78.759 166.818 72.6"><title>2023-10-02 1.0km</title><desc>9958643020</desc></polyline><polyline fill="none" stroke="#4dd2ff" stroke-linecap="round" stroke-linejoin="round" stroke-width=".5" points="22.864 119.102 23.342 121.435 28.597 133.877 31.225 141.912 32.658 144.763 34.091 145.8 34.33 145.541 34.091 144.504 29.314 137.246 24.775 126.101 22.625 119.362 21.67 113.4"><title>2023-10-01 1.0km</title><desc>9952075403</desc></polyline><polyline fill="none" stroke="#4dd2ff" stroke-linecap="round" stroke-linejoin="round" stroke-width=".5" points="59.348 118.096 61.295 122.087 62.161 126.078 62.81 129.835 66.056 138.991 68.868 144.861 70.167 145.8 70.599 145.096 66.272 138.522 64.325 134.061 63.675 131.713 60.646 125.139 58.915 117.861 57.401 113.4"><title>2023-09-30 1.0km</title><desc>9945549317</desc></polyline><polyline fill="none" stroke="#4dd2ff" stroke-linecap="round" stroke-linejoin="round" stroke-width=".5" points="94.984 113.4 97.134 117.029 97.85 119.88 99.761 124.546 100.717 131.544 101.433 133.618 104.3 140.616 105.016 145.022 105.494 145.541 106.211 145.8 106.45 145.282 102.15 137.506 99.283 130.766 98.328 126.878 94.984 119.102 93.55 114.437"><title>2023-09-28 1.0km</title><desc>9933629332</desc></polyline><polyline fill="none" stroke="#4dd2ff" stroke-linecap="round" stroke-linejoin="round" stroke-width=".5" points="129.666 117.082 131.476 123.464 134.869 128.127 137.131 136.473 140.298 142.118 141.203 145.309 142.108 145.8 142.56 145.064 142.108 144.082 140.298 141.627 135.095 131.073 132.381 123.709 129.44 113.4"><title>2023-09-27 1.0km</title><desc>9927137811</desc></polyline><polyline fill="none" stroke="#4dd2ff" stroke-linecap="round" stroke-linejoin="round" stroke-width=".5" points="174.692 113.4 174.046 116.515 173.4 118.307 172.897 120.488 169.954 126.641 168.447 129.211 168.16 130.301 168.304 131.158 168.662 132.404 169.739 135.052 170.098 135.753 170.529 136.999 171.964 138.79 172.61 140.192 173.328 141.283 173.902 142.84 174.763 144.009 175.84 145.8"><title>2023-09-26 1.0km</title><desc>9920397094</desc></polyline><polyline fill="none" stroke="#4dd2ff" stroke-linecap="round" stroke-linejoin="round" stroke-width=".5" points="27.849 154.2 26.436 158.907 25.024 161.424 23.713 163.066 23.007 164.38 22.704 165.693 22.805 167.335 23.309 168.649 24.52 170.51 25.024 172.37 26.033 174.778 27.95 177.187 31.178 183.754 33.296 186.6"><title>2023-09-25 1.0km</title><desc>9914573673</desc></polyline><polyline fill="none" stroke="#4dd2ff" stroke-linecap="round" stroke-linejoin="round" stroke-width=".5" points="66.389 154.2 65.592 155.41 65.433 156.014 65.592 156.792 65.672 157.57 64.08 160.507 63.682 162.494 63.124 163.963 59.78 169.839 59.7 170.53 60.019 171.912 60.895 173.295 61.372 174.504 62.089 175.714 62.487 176.923 63.522 178.565 64.318 180.206 65.194 181.157 65.433 182.021 65.991 182.712 67.185 184.786 68.061 185.736 68.3 186.6"><title>2023-09-24 1.0km</title><desc>9907510217</desc></polyline><polyline fill="none" stroke="#4dd2ff" stroke-linecap="round" stroke-linejoin="round" stroke-width=".5" points="101.208 154.2 100.531 155.249 100.048 156.297 99.758 157.66 99.662 159.443 98.019 161.645 97.053 164.161 96.183 165.42 95.603 167.097 95.507 168.88 97.536 174.018 98.309 175.59 100.821 179.575 101.884 182.196 103.237 183.874 104.01 185.237 104.493 186.6"><title>2023-09-23 1.0km</title><desc>9901004991</desc></polyline><polyline fill="none" stroke="#4dd2ff" stroke-linecap="round" stroke-linejoin="round" stroke-width=".5" points="137.244 154.2 136.599 155.4 135.954 157.5 134.479 160.6 133.005 162.7 131.715 166.2 131.623 168.1 131.807 169.2 133.65 173.6 133.926 174.9 134.295 175.6 135.585 177.2 136.599 179.2 137.428 181.3 138.811 183.3 140.377 186.6"><title>2023-09-22 1.0km</title><desc>9895405405</desc></polyline><polyline fill="none" stroke="#4dd2ff" stroke-linecap="round" stroke-linejoin="round" stroke-width=".5" points="173.718 154.2 173.453 155.156 172.925 155.729 171.78 157.832 171.339 159.361 170.018 162.706 168.609 165.574 167.728 167.676 167.464 168.728 167.464 169.397 167.728 170.352 168.257 171.308 169.402 174.271 170.547 176.374 171.163 177.903 172.308 179.814 173.013 180.674 173.541 182.204 174.951 184.689 176.536 186.6"><title>2023-09-21 1.0km</title><desc>9889267953</desc></polyline><polyline fill="none" stroke="#4dd2ff" stroke-linecap="round" stroke-linejoin="round" stroke-width=".5" points="31.299 195 30.142 198.469 29.462 201.2 28.374 203.488 27.082 207.325 24.837 211.532 24.225 213.82 24.293 214.337 24.701 215.444 25.585 217.363 26.13 218.986 27.49 220.905 28.306 222.455 28.782 223.562 29.326 224.522 30.21 225.186 31.299 226.81 31.367 227.105 31.775 227.4"><title>2023-09-20 1.0km</title><desc>9882714971</desc></polyline><polyline fill="none" stroke="#4dd2ff" stroke-linecap="round" stroke-linejoin="round" stroke-width=".5" points="66.687 195 65.996 196.749 64.691 200.581 64.614 201.83 64.154 202.496 63.616 203.746 63.309 204.912 62.695 206.494 60.93 209.326 60.469 210.992 60.316 212.491 60.469 213.99 60.93 215.656 61.467 216.822 63.156 219.737 64 220.903 64.768 222.986 65.535 224.318 66.303 225.401 67.147 226.234 67.684 227.4"><title>2023-09-19 1.0km</title><desc>9876194288</desc></polyline><polyline fill="none" stroke="#4dd2ff" stroke-linecap="round" stroke-linejoin="round" stroke-width=".5" points="99.762 195 99.189 195.932 98.235 197.795 97.949 199.037 96.232 202.039 94.896 204.834 94.61 205.869 94.706 207.008 95.278 208.457 96.136 210.01 96.9 212.183 97.949 214.461 99.094 216.531 100.143 217.877 101.383 219.947 102.146 222.328 103.482 224.398 104.15 226.261 105.39 227.4"><title>2023-09-18 1.0km</title><desc>9870505463</desc></polyline><polyline fill="none" stroke="#4dd2ff" stroke-linecap="round" stroke-linejoin="round" stroke-width=".5" points="136.326 195 135.86 195.908 135.209 198.936 134.372 200.35 134 201.46 131.954 204.791 131.21 206.608 130.745 208.223 131.117 209.333 133.163 213.774 134.186 215.389 134.93 217.105 136.14 218.72 136.791 219.83 137.628 222.454 141.255 227.4"><title>2023-09-16 1.0km</title><desc>9856514700</desc></polyline><polyline fill="none" stroke="#4dd2ff" stroke-linecap="round" stroke-linejoin="round" stroke-width=".5" points="171.552 195 170.557 198.024 169.263 200.076 166.576 205.26 166.476 206.448 166.576 207.852 167.173 209.256 168.168 210.768 169.064 212.82 170.656 215.52 172.647 219.3 172.846 220.704 173.543 221.244 174.339 222.324 175.633 224.484 177.026 225.672 177.325 226.428 177.524 227.4"><title>2023-09-15 1.0km</title><desc>9850671982</desc></polyline><polyline fill="none" stroke="#4dd2ff" stroke-linecap="round" stroke-linejoin="round" stroke-width=".5" points="28.824 235.8 27.176 240.157 25.323 242.839 24.499 244.291 23.264 247.419 22.955 248.537 22.955 249.43 23.264 250.548 24.499 253.899 25.632 256.134 28.412 260.938 29.544 263.061 29.75 264.29 30.574 265.072 31.913 267.194 33.045 268.2"><title>2023-09-14 1.0km</title><desc>9844236351</desc></polyline><polyline fill="none" stroke="#4dd2ff" stroke-linecap="round" stroke-linejoin="round" stroke-width=".5" points="58.851 235.8 59.443 236.282 59.666 236.765 59.814 237.81 60.258 238.694 60.555 241.187 60.555 242.393 60.407 243.036 60.555 243.84 60.925 244.805 60.777 245.609 60.851 246.011 61.592 247.377 62.259 249.387 62.852 250.513 63.592 251.558 64.408 252.282 64.63 252.764 64.852 253.809 65.445 254.854 66.112 256.784 67.001 258.472 67.445 259.919 67.668 261.125 68.112 262.09 68.927 264.743 70.038 266.833 70.113 267.155 70.038 267.396 69.149 268.2 69.594 267.878 69.816 267.396 69.964 266.994 69.89 266.431 69.446 265.869 68.112 262.974 67.445 260.804 66.038 257.668 65.371 254.613 65 253.729 63.592 251.88 62.185 249.226 61.518 247.056 61.296 245.609 60.703 244.081 59.517 241.508 59.221 240.302 58.184 238.373 57.962 237.328 57.887 236.041"><title>2023-09-13 1.0km</title><desc>9837636972</desc></polyline></svg>