<?xml version="1.0" encoding="utf-8" ?>
<svg baseProfile="full" height="300mm" version="1.1" viewBox="0,0,200,300" width="200mm" xmlns="http://www.w3.org/2000/svg" xmlns:ev="http://www.w3.org/2001/xml-events" xmlns:xlink="http://www.w3.org/1999/xlink"><defs /><rect fill="#222222" height="300" width="200" x="0" y="0" /><text fill="#FFFFFF" style="font-size:12px; font-family:Arial; font-weight:bold;" x="10" y="20">Over 1km Runs</text><text fill="#FFFFFF" style="font-size:4px; font-family:Arial" x="10" y="280">ATHLETE</text><text fill="#FFFFFF" style="font-size:9px; font-family:Arial" x="10" y="290">Jiakai</text><text fill="#FFFFFF" style="font-size:4px; font-family:Arial" x="120" y="280">STATISTICS</text><text fill="#FFFFFF" style="font-size:3px; font-family:Arial" x="120" y="285">Number: 67</text><text fill="#FFFFFF" style="font-size:3px; font-family:Arial" x="120" y="290">Weekly: 6.1</text><text fill="#FFFFFF" style="font-size:3px; font-family:Arial" x="141" y="285">Total: 69.4 km</text><text fill="#FFFFFF" style="font-size:3px; font-family:Arial" x="141" y="290">Avg: 1.0 km</text><text fill="#FFFFFF" style="font-size:3px; font-family:Arial" x="167" y="285">Min: 1.0 km</text><text fill="#FFFFFF" style="font-size:3px; font-family:Arial" x="167" y="290">Max: 1.5 km</text><polyline fill="none" points="19.911950850859284,35.8825367607642 20.60796723375097,37.544079497340135 22.27840655297041,46.00282168900594 24.088049148675054,50.38322806544602 25.06247208546847,52.044759075855836 25.758488468360156,52.800000000046566 25.897691745311022,52.64895183732733 25.480081915389746,51.89371085760649 25.480081915389746,50.68532471288927 24.366455702111125,48.117501795408316 23.11362621281296,43.88813940610271 21.860796723049134,41.32030799333006 21.025577063672245,36.486734274891205 18.65912136109546,32.71049689524807 18.102308254223317,31.20000000006985" stroke="#4dd2ff" stroke-linecap="round" stroke-linejoin="round" stroke-width="0.5"><title>2023-11-26 1.0km</title><desc>10281488289</desc></polyline><polyline fill="none" points="44.066944253630936,31.200000000186265 45.6722731301561,35.380660529015586 47.11706911865622,41.30325031816028 48.56186510808766,44.612926399102435 48.88293088320643,46.70324575249106 49.68559532240033,48.61937020649202 51.45145708601922,51.929036068264395 52.2541215242818,52.800000000046566 52.575187298469245,52.800000000046566 50.16719398461282,47.57421160512604 49.84612820856273,45.83227957924828 48.24079933296889,43.56776603101753 45.03014157991856,34.85807836684398 43.42481270246208,31.896777267567813" stroke="#4dd2ff" stroke-linecap="round" stroke-linejoin="round" stroke-width="0.5"><title>2023-11-25 1.0km</title><desc>10275889695</desc></polyline><polyline fill="none" points="69.81414107698947,31.401869946159422 70.93037012219429,36.44861375866458 76.13943900447339,50.57944708853029 77.44170622434467,52.59813162800856 77.99982074741274,52.800000000046566 78.18585892301053,52.19439483853057 76.32547717820853,49.771972857415676 74.09301908686757,43.11030138889328 72.6047136913985,40.082263560267165 71.67452282086015,34.22804762376472 70.558293774724,31.199999999953434" stroke="#4dd2ff" stroke-linecap="round" stroke-linejoin="round" stroke-width="0.5"><title>2023-11-24 1.0km</title><desc>10271180196</desc></polyline><polyline fill="none" points="97.31426128279418,33.60000988165848 97.78821517433971,34.971442989772186 98.8941075867042,40.800024702679366 101.57984630484134,49.02858584676869 102.84372334834188,52.457144420361146 103.3176772389561,52.800000000046566 103.94961576070637,52.800000000046566 104.10760039184242,52.457144420361146 103.79163113050163,50.74286576360464 102.05380019638687,45.771450532600284 97.47224591299891,35.828588273143396 95.8923996090889,31.200000000186265" stroke="#4dd2ff" stroke-linecap="round" stroke-linejoin="round" stroke-width="0.5"><title>2023-11-23 1.0km</title><desc>10265414399</desc></polyline><polyline fill="none" points="124.10752255516127,36.06762531620916 124.24770607007667,38.197207790915854 124.80844012741,41.54369010857772 127.0513763576746,47.93241404858418 127.75229392945766,50.97465661051683 128.87376204458997,52.800000000046566 129.71486313082278,52.800000000046566 129.5746796168387,51.887328506447375 128.0326609578915,47.93241404858418 126.77100932877511,45.95495398482308 124.94862364185974,40.326788074104115 122.84587092557922,34.54649363504723 122.28513686871156,31.20000000006985" stroke="#4dd2ff" stroke-linecap="round" stroke-linejoin="round" stroke-width="0.5"><title>2023-11-21 1.0km</title><desc>10253878272</desc></polyline><polyline fill="none" points="149.67520384350792,37.03359808633104 150.40170264197513,41.76353083085269 153.45299759786576,49.489065213128924 154.76069543603808,52.32700962922536 155.19659471558407,52.800000000046566 155.48719423543662,52.642336554825306 155.63249399513006,52.32700962922536 155.05129495589063,49.804392555728555 152.435899279546,44.12849329179153 151.41880096122622,41.13287373445928 149.82050360320136,34.983957323478535 148.94870504410937,33.40730924997479 148.36750600486994,31.20000000006985" stroke="#4dd2ff" stroke-linecap="round" stroke-linejoin="round" stroke-width="0.5"><title>2023-11-20 1.0km</title><desc>10248671423</desc></polyline><polyline fill="none" points="174.1545084938407,33.00000800623093 176.26575873233378,37.58183999871835 176.86897308658808,42.32729890511837 178.5278125591576,46.090931533137336 180.18665203265846,50.83637229795568 180.9406699752435,51.98182200116571 181.8454915061593,52.800000000046566 181.69468791782856,51.49091505771503 179.13102691341192,44.78184264502488 177.4721874408424,38.727296523051336 175.81334796734154,34.80001455673482 174.90852643642575,31.20000000006985" stroke="#4dd2ff" stroke-linecap="round" stroke-linejoin="round" stroke-width="0.5"><title>2023-11-19 1.0km</title><desc>10242265034</desc></polyline><polyline fill="none" points="17.801974494941533,74.44551390595734 18.745351012796164,71.47680837207008 19.122701620683074,70.76022332918365 19.783065182622522,70.3507459963439 22.990545344073325,69.94126854289789 25.348986639175564,69.42942155664787 26.1036878535524,68.8152049247874 26.575376112945378,68.20098802214488 27.14140202384442,65.64174801006448 26.952726719900966,64.82279021234717 27.330077326856554,64.20857154822443 27.047064371407032,59.49955278390553 26.8583890683949,58.885331770870835 26.76405141595751,57.042667104979046 26.575376112945378,55.916593053145334 25.53766194311902,55.60948178987019 24.688623076770455,56.22370424831752 24.87729838024825,55.916593053145334 25.065973683726043,56.22370424831752 23.83958421042189,55.60948178987019 23.745246558915824,55.20000000006985 23.46223360300064,55.40474090992939 23.650908906944096,55.302370458841324 22.990545344073325,56.121333857416175 23.084882996045053,56.01896345906425 25.065973683726043,57.042667104979046 24.594285424798727,57.45214835263323 23.83958421042189,57.75925920938607 22.047168826218694,58.06636999826878 21.952831174246967,57.65688893117476 22.424519433174282,57.45214835263323 23.084882996045053,57.55451864562929 25.065973683726043,55.60948178987019 27.80176558578387,55.711852218490094 27.51875263080001,55.50711135356687 27.14140202384442,55.40474090992939 26.8583890683949,60.318513713311404 26.952726719900966,61.751694180537015 27.235739674884826,63.49198276386596 27.424414979293942,66.46070532582235 27.424414979293942,67.48440129298251 27.14140202384442,68.50809650716837 26.575376112945378,69.1223132746527 21.8584935227409,69.63416037370916 19.688727531116456,70.04363791760989 18.55667570978403,70.8625926435925 17.23594858404249,72.70523901598062 16.481247369665653,75.36683502572123 16.19823441421613,76.80000000004657" stroke="#4dd2ff" stroke-linecap="round" stroke-linejoin="round" stroke-width="0.5"><title>2023-11-18 1.0km</title><desc>10236386505</desc></polyline><polyline fill="none" points="43.59222913486883,55.20000000006985 46.720324587542564,60.60002084262669 47.857813843060285,64.61145590234082 48.28437231387943,66.92574187146965 49.13748925551772,68.31431222811807 51.83902623690665,76.18286022823304 52.40777086513117,76.80000000004657 52.40777086513117,76.18286022823304 51.83902623690665,75.41143525834195 50.27497851056978,70.78287948272191 49.42186156893149,69.24002528889105 49.13748925551772,66.61717055668123 47.857813843060285,63.3771690079011 46.43595227366313,60.29144859779626 46.29376611672342,58.594300437602215" stroke="#4dd2ff" stroke-linecap="round" stroke-linejoin="round" stroke-width="0.5"><title>2023-11-17 1.0km</title><desc>10231268371</desc></polyline><polyline fill="none" points="70.14721154607832,55.89677726756781 72.23413862474263,58.85807836661115 72.71573718171567,62.86453866888769 74.16053285170346,66.00002461415716 76.40799278300256,74.36130018369295 77.85278845299035,76.80000000004657 77.69225560035557,75.40645755524747 76.56852563563734,73.14194933418185 75.76586137432605,70.87743894872256 74.48159855604172,65.4774439111352 71.91307292040437,60.077436567051336 71.11040865909308,57.638719538459554 70.62881010212004,55.199999999953434" stroke="#4dd2ff" stroke-linecap="round" stroke-linejoin="round" stroke-width="0.5"><title>2023-11-16 1.0km</title><desc>10225818993</desc></polyline><polyline fill="none" points="96.2542330333963,55.432258849730715 97.32445216644555,59.612915229285136 99.03680277988315,64.25808249553666 101.39128487277776,68.67098507285118 102.2474601790309,72.15485117421485 103.74576696474105,75.17419868800789 105.24407375138253,76.80000000004657 101.39128487277776,69.60001640883274 99.67893426027149,64.25808249553666 94.75592624768615,55.199999999953434" stroke="#4dd2ff" stroke-linecap="round" stroke-linejoin="round" stroke-width="0.5"><title>2023-11-15 1.0km</title><desc>10219684298</desc></polyline><polyline fill="none" points="122.18342350795865,57.79850741662085 124.12912917137146,60.23460534319747 124.42846850398928,63.32032552699093 126.67351350001991,68.67972402321175 128.02054049633443,73.22708224784583 129.3675674945116,76.6375947734341 129.96624615974724,76.80000000004657 129.81657649297267,74.85113648837432 127.87087083049119,72.25264913064893 127.12252249848098,69.97897018573713 125.92516516707838,68.51731819927227 125.47615616861731,66.73085334745701 123.23111117258668,62.183481750427745 122.48276284057647,58.93535344977863 122.03375384118408,55.20000000006985" stroke="#4dd2ff" stroke-linecap="round" stroke-linejoin="round" stroke-width="0.5"><title>2023-11-14 1.0km</title><desc>10213806154</desc></polyline><polyline fill="none" points="149.1150622102432,58.17392605240457 150.26903732679784,62.5565463474486 153.44246889511123,70.6956743884366 154.16370334243402,73.35653642215766 155.6061722380109,76.33043711271603 156.0389129067771,76.80000000004657 155.17343156971037,75.23478997324128 153.153975116089,70.38263157790061 153.0097282268107,69.13045987405349 151.56725933169946,65.68698389187921 149.40355598926544,61.773936242214404 148.5380746521987,59.11305973213166 147.96108709368855,55.20000000006985" stroke="#4dd2ff" stroke-linecap="round" stroke-linejoin="round" stroke-width="0.5"><title>2023-11-13 1.0km</title><desc>10208522228</desc></polyline><polyline fill="none" points="175.5871427617967,57.654556011315435 177.09517853613943,62.23638665652834 178.9048214647919,66.00002620217856 179.96044650673866,70.41820363525767 181.0160715477541,73.52728620090056 182.37330374494195,76.47272883669939 182.97651805356145,76.80000000004657 183.27812520880252,76.14545762503985 181.61928585730493,72.87274286395404 180.71446439344436,69.2727510688128 177.39678569044918,66.16366255970206 175.5871427617967,63.545479394029826 175.28553560655564,60.7636564061977 172.72187479119748,55.20000000006985" stroke="#4dd2ff" stroke-linecap="round" stroke-linejoin="round" stroke-width="0.5"><title>2023-11-12 1.0km</title><desc>10202270880</desc></polyline><polyline fill="none" points="18.731839370913804,83.22986689361278 22.297105511650443,91.2895784585271 23.485527558252215,95.31942313129548 24.67394960578531,98.54329353687353 25.416713384911418,99.99403367296327 26.159477164037526,100.80000000004657 26.30802992079407,100.1552269620588 24.971055117435753,96.12539117690176 22.445658267475665,92.25674185552634 19.771708661690354,86.13136646989733 18.731839370913804,81.77911566500552 17.69197007920593,79.19999999995343" stroke="#4dd2ff" stroke-linecap="round" stroke-linejoin="round" stroke-width="0.5"><title>2023-11-11 1.0km</title><desc>10196068378</desc></polyline><polyline fill="none" points="45.99192998278886,82.42106411675923 48.43653696030378,89.81054893764667 50.70652915351093,95.87370014633052 51.75421785749495,99.85263537522405 52.45267699379474,100.80000000004657 52.801906562410295,100.42105419188738 52.278062210418284,98.14737817179412 49.658840449526906,92.27370583638549 47.039618687704206,86.7789679847192 43.54732300620526,81.28421841817908 43.198093437589705,79.20000000018626" stroke="#4dd2ff" stroke-linecap="round" stroke-linejoin="round" stroke-width="0.5"><title>2023-11-10 1.0km</title><desc>10191120477</desc></polyline><polyline fill="none" points="68.98549491818994,79.85954506357666 71.5687248101458,81.83817909145728 73.08827180415392,84.47635507921223 73.54413590300828,85.465670274687 73.54413590300828,86.94964224973228 75.21563759725541,92.06109375844244 75.82345639448613,95.02902799856383 77.03909399081022,98.32672810310032 77.34300338942558,99.97557633731049 78.1027768868953,100.80000000004657 78.55864098481834,100.63511529180687 79.01450508274138,99.97557633731049 77.34300338942558,98.82138270081487 74.60781879909337,94.86414286575746 71.41677011083812,86.12521349603776 70.65699661336839,81.17863460932858 69.89722311589867,79.20000000006985" stroke="#4dd2ff" stroke-linecap="round" stroke-linejoin="round" stroke-width="0.5"><title>2023-11-09 1.0km</title><desc>10185506531</desc></polyline><polyline fill="none" points="95.78631037380546,80.9343146024039 97.3846064391546,84.08761028537992 97.96580500761047,85.66425638832152 99.85470035811886,89.76353083131835 100.58119856892154,92.6014854706591 100.4358989270404,90.86718030378688 100.726498211734,91.97082920849789 101.30769678018987,96.22775537776761 102.61539356131107,100.16934614919592 103.19659213069826,100.80000000004657 103.9230903419666,100.48467309738044 104.21368962619454,100.0116826571757 102.61539356131107,98.5927107098978 101.45299642300233,96.70074665301945 100.726498211734,94.65111704124138 99.7094007153064,91.18250862043351 98.25640429276973,89.13287373469211 96.6581082274206,85.66425638832152 96.2222093003802,83.1416220671963 96.36750894226134,79.98832499329001 96.0769096580334,79.20000000006985" stroke="#4dd2ff" stroke-linecap="round" stroke-linejoin="round" stroke-width="0.5"><title>2023-11-08 1.0km</title><desc>10179505859</desc></polyline><polyline fill="none" points="125.02557692071423,91.13289520586841 129.89769231854007,100.80000000004657 130.17609891248867,100.64895183767658 129.48008242761716,98.98742131562904 128.22725275345147,96.87274416279979 127.39203297067434,94.75806483370252 125.72159340558574,92.9454808193259 125.16478021815419,91.88813940575346 124.74717032629997,88.26296471385285 124.46876373235136,87.20562089059968 122.79832416726276,84.33568491286132 121.82390108751133,79.19999999995343" stroke="#4dd2ff" stroke-linecap="round" stroke-linejoin="round" stroke-width="0.5"><title>2023-11-06 1.0km</title><desc>10167691585</desc></polyline><polyline fill="none" points="149.92346751550213,85.26045393233653 150.92593147419393,87.12520549283363 154.64936903119087,95.6719624272082 156.22466953657568,100.48921019840054 156.511087810155,100.80000000004657 156.79750608326867,100.80000000004657 156.79750608326867,100.33381528023165 155.65183298895136,97.84749503829516 154.64936903119087,96.4489386169007 154.50615989463404,95.6719624272082 153.6469050734304,94.73959062295035 151.2123497473076,90.54391241364647 148.34816701058298,83.24030455225147 147.20249391626567,79.20000000006985" stroke="#4dd2ff" stroke-linecap="round" stroke-linejoin="round" stroke-width="0.5"><title>2023-11-05 1.1km</title><desc>10161301187</desc></polyline><polyline fill="none" points="173.96108798496425,79.19999999995343 176.84602513816208,85.61741418659221 178.14424685761333,91.25220093794633 180.1637028651312,95.1652385185007 180.8849371536635,98.29566340509336 181.60617144219577,100.80000000004657 182.03891201503575,100.33043711283244 181.89466515695676,99.8608741221251 180.01945600751787,96.41740902571473 179.8752091494389,95.94784517178778 178.14424685761333,93.28698137763422 177.42301256908104,90.78263594501186 175.54780341964215,87.33915616502054 175.1150628463365,84.36523732787464 174.2495817001909,81.23479195870459" stroke="#4dd2ff" stroke-linecap="round" stroke-linejoin="round" stroke-width="0.5"><title>2023-11-04 1.0km</title><desc>10155501797</desc></polyline><polyline fill="none" points="27.795107210054994,106.48102882597595 26.157359519973397,104.293676919071 25.149514788296074,103.61012892005965 23.133825324010104,103.20000000006985 21.244116451125592,103.3367096503498 18.59852402890101,104.56709604803473 17.464698705356568,105.66077216272242 16.456853973213583,107.71141314262059 16.204892790410668,109.3519242979819 15.826951015740633,114.82028435869142 16.07891219854355,120.56204510864336 16.330873381812125,121.3822951966431 17.590679297223687,123.43291883275378 19.102446395438164,124.52658384700771 21.622058225795627,124.80000000004657 23.889708872884512,123.84304328868166 26.0313789290376,121.24558687384706 26.66128188651055,120.01521151571069 27.543146027252078,116.05066315515433 27.543146027252078,112.90636016707867 28.173048984259367,108.80508740677033 28.04706839332357,107.30128512752708 26.66128188651055,105.66077216272242 25.52745656296611,104.840515137068 22.881864140741527,103.61012892005965 21.496077633928508,103.61012892005965 18.472543437965214,104.56709604803473 17.086756931152195,105.79748163174372 16.204892790410668,107.43799447582569 15.95293160714209,108.53166890132707 16.204892790410668,113.04306910349987 15.95293160714209,115.09370193921495" stroke="#4dd2ff" stroke-linecap="round" stroke-linejoin="round" stroke-width="0.5"><title>2023-11-03 1.0km</title><desc>10152446508</desc></polyline><polyline fill="none" points="43.52956787124276,103.19999999995343 44.71043673530221,105.76272166171111 45.72261004708707,110.33900378202088 47.4095655689016,113.63392170099542 49.93999884836376,120.2237444575876 50.44608550425619,121.32204655488022 51.28956326469779,124.25084977876395 51.795649921521544,124.80000000004657 52.47043212968856,124.80000000004657 52.47043212968856,124.43389986595139 51.28956326469779,123.88474956410937 50.78347660880536,122.60339838941582 49.60260774474591,121.50509685720317 48.75912998430431,119.12544187624007 47.57826111931354,117.29493649699725 46.22869670391083,114.54917590436526 44.71043673530221,108.87459441879764 43.698263422586024,106.49492736603133" stroke="#4dd2ff" stroke-linecap="round" stroke-linejoin="round" stroke-width="0.5"><title>2023-11-02 1.1km</title><desc>10144903556</desc></polyline><polyline fill="none" points="70.32170485937968,104.76522475562524 70.61019859556109,106.48697065818124 71.7641735416837,109.14784795034211 73.78362969774753,116.34785218513571 77.24555453751236,123.547832070617 78.25528261484578,124.80000000004657 77.6782951420173,122.92174782999791 75.51459211762995,119.63480254472233 74.36061717150733,115.40872257878073 72.91814848827198,113.37394034443423 71.18718606885523,109.61741418624297 69.74471738561988,103.20000000006985" stroke="#4dd2ff" stroke-linecap="round" stroke-linejoin="round" stroke-width="0.5"><title>2023-11-01 1.0km</title><desc>10138966680</desc></polyline><polyline fill="none" points="96.85693746805191,103.5248135945294 97.60528569016606,105.96091402857564 98.80264284554869,112.4571687191492 100.74834822211415,116.67972402344458 101.94570537656546,120.57746021717321 103.89141075406224,124.80000000004657 104.04108039848506,124.63759477273561 102.6940535986796,122.68873111752328 100.74834822211415,118.14137590187602 99.10198213439435,115.2180711774854 96.25825889129192,106.61054035718553 95.95891960151494,103.20000000006985" stroke="#4dd2ff" stroke-linecap="round" stroke-linejoin="round" stroke-width="0.5"><title>2023-10-31 1.0km</title><desc>10133123337</desc></polyline><polyline fill="none" points="122.60859697405249,105.76001119834837 123.34585850220174,109.60002234985586 123.34585850220174,111.04002478462644 124.96783386170864,113.76002678414807 129.3914030259475,123.20000735193025 130.12866455409676,124.64000078791287 130.42356916423887,124.80000000004657 127.03216613829136,118.08002297277562 125.55764308385551,113.92002679605503 123.93566772341728,110.56002407881897 121.57643083576113,103.20000000006985" stroke="#4dd2ff" stroke-linecap="round" stroke-linejoin="round" stroke-width="0.5"><title>2023-10-30 1.0km</title><desc>10127985445</desc></polyline><polyline fill="none" points="148.59501596633345,106.32633072906174 149.24982058815658,110.7316063559847 149.6427033613436,112.15266086801421 152.26192184910178,118.26318336534314 153.57153109228238,121.81580384413246 155.5359449586831,124.51579104084522 156.059788656421,124.80000000004657 156.19074958004057,124.37368654541206 155.0121012609452,122.52632715599611 153.30960924411193,118.83160308073275 150.29750798316672,113.28950372571126 149.11885966314003,109.16844518610742 148.20213319268078,107.32107126468327 148.07117226859555,104.47895409131888 147.80925041995943,103.20000000006985" stroke="#4dd2ff" stroke-linecap="round" stroke-linejoin="round" stroke-width="0.5"><title>2023-10-28 1.0km</title><desc>10115543824</desc></polyline><polyline fill="none" points="175.19840578362346,107.68001762102358 176.3780244011432,111.52002538449597 177.7050953451544,114.56002672552131 178.88471396267414,118.88002132612746 180.65414188895375,123.04000802256633 181.3914035242051,124.64000078849494 182.12866515945643,124.80000000004657 182.27611748687923,124.64000078849494 181.98121283296496,123.68000526994001 181.0964988693595,121.28001462155953 178.1474523274228,115.5200262669241 175.788215091452,109.1200213264674 174.313691820018,105.92001179850195 173.72388251218945,103.20000000006985" stroke="#4dd2ff" stroke-linecap="round" stroke-linejoin="round" stroke-width="0.5"><title>2023-10-27 1.0km</title><desc>10110442644</desc></polyline><polyline fill="none" points="19.07263622339815,130.53530821716413 21.853631811216474,139.9059085083427 22.87820913270116,142.76472762366757 23.902786455117166,144.51178188773338 25.073731964454055,147.84706337715033 25.512836531735957,148.48235450603534 26.391045664437115,148.80000000004657 26.53741385228932,148.32353174127638 26.391045664437115,147.68824056594167 24.92736377567053,145.7823659197893 22.731840943917632,141.97061158227734 20.097213545814157,134.18825892731547 18.340795279480517,131.3294284621952 17.46258614677936,127.20000000006985" stroke="#4dd2ff" stroke-linecap="round" stroke-linejoin="round" stroke-width="0.5"><title>2023-10-26 1.0km</title><desc>10104873905</desc></polyline><polyline fill="none" points="46.91814872715622,137.53046212380286 50.235825966112316,145.82609996548854 51.82254116702825,148.64347904920578 52.39952851226553,148.80000000004657 52.25528167653829,147.23478997312486 48.360617090947926,140.50437374645844 46.19691454432905,135.02611227263696 44.32170567009598,131.11305973259732 43.60047148773447,127.19999999995343" stroke="#4dd2ff" stroke-linecap="round" stroke-linejoin="round" stroke-width="0.5"><title>2023-10-25 1.0km</title><desc>10098978222</desc></polyline><polyline fill="none" points="70.0042563113384,127.20000000006985 69.85895654093474,128.30365490925033 70.73075516428798,131.92994561139494 71.89315332844853,134.2949145049788 72.6196521804668,137.1328737345757 73.927350115031,140.9168135318905 76.68804575363174,146.27738348336425 77.55984437698498,148.48467309772968 77.85044391779229,148.80000000004657 78.14104345906526,148.64233655459248 77.99574368819594,146.5927107097814 76.3974462132901,143.59710018232 75.2350480495952,141.86279743816704 73.78205034416169,138.55185194103979 73.49145080335438,136.81754511699546 71.74785355757922,134.1372499933932 70.73075516428798,131.772280925652 70.44015562301502,128.9343146022875 70.0042563113384,127.20000000006985" stroke="#4dd2ff" stroke-linecap="round" stroke-linejoin="round" stroke-width="0.5"><title>2023-10-24 1.0km</title><desc>10092835699</desc></polyline><polyline fill="none" points="97.78025935776532,130.92951216874644 99.92839546268806,138.54391241353005 100.93085897853598,140.40865931252483 102.0765315676108,145.07051936292555 103.79504045145586,148.17842035088688 104.51108582038432,148.80000000004657 103.79504045145586,148.02302540978417 102.7925769360736,145.53670480242 100.21481360960752,142.4287999299122 99.64197731530294,141.34103214519564 99.06914102099836,137.7669340533903 97.35063213668764,134.34822587575763 96.20495954761282,130.77411595988087 95.48891417961568,127.20000000006985" stroke="#4dd2ff" stroke-linecap="round" stroke-linejoin="round" stroke-width="0.5"><title>2023-10-23 1.0km</title><desc>10087395010</desc></polyline><polyline fill="none" points="119.00669401115738,127.30359870288521 119.38858102750964,127.19999999995343 122.10952601977624,127.40719739045016 123.30292294616811,127.71799336187541 123.58933820854872,127.87339129624888 124.2099046104122,128.33958489343058 124.6395275038667,128.85757741745329 125.59424504474737,130.6187491499004 126.07160381553695,132.58711234654766 126.69217021740042,133.62309076730162 126.9785854795482,134.45187240705127 127.64688775828108,135.95403664413607 128.12424652907066,137.507996277418 128.84028468490578,138.7511615161202 129.1744358241558,139.11375096417032 129.60405871784315,139.8389293004875 129.84273810312152,141.39288036490325 129.9859457341954,141.80726673663594 130.36783275054768,142.37704759970075 130.463304504985,143.2576171181281 130.60651213605888,143.620204246894 132.706890726462,148.5928089010995 132.99330598884262,148.79999999998836 132.99330598884262,148.54101111670025 132.56368309538811,148.12662870559143 132.08632432483137,146.9870758180623 131.6089655540418,146.00291502301116 130.32009687367827,142.01445983105805" stroke="#4dd2ff" stroke-linecap="round" stroke-linejoin="round" stroke-width="0.5"><title>2023-10-22 1.5km</title><desc>10080655811</desc></polyline><polyline fill="none" points="148.56446858961135,127.20000000001164 149.32230640063062,127.74823108949931 147.95819834037684,127.5289387020166 150.0801442116499,130.27008890907746 150.28223429480568,130.92796345928218 150.13066673255526,131.47619180753827 149.4233514422085,131.85995141166495 149.22126135905273,132.24371081811842 149.2717838799581,132.90158362674993 149.675964045804,134.49144051817711 150.13066673255526,135.64271408203058 150.63589193997905,137.39703228487633 151.54529731348157,138.98687959113158 151.696864875732,139.58992423431482 152.2526126038283,140.57672350743087 152.6062702492345,141.0153005431057 152.6567927696742,141.2894110592897 153.0104504150804,141.61834354582243 153.2630630186759,142.16656403418165 153.6167206640821,143.2081818516017 153.97037830925547,143.92086688842392 153.91985578858294,145.3462349184556 154.57664855802432,146.6071351354476 154.7787386411801,147.21017361606937 155.13239628635347,147.86803322046762 155.73866653535515,148.63553535874235 156.041801659856,148.79999999998836 154.879783682758,147.1553519561421 154.62717107892968,146.27820484968834 154.12194587127306,145.18176951550413 153.91985578858294,144.46908568392973 153.2630630186759,143.53711349173682 152.70731529057957,141.94727588724345" stroke="#4dd2ff" stroke-linecap="round" stroke-linejoin="round" stroke-width="0.5"><title>2023-10-20 1.4km</title><desc>10069668027</desc></polyline><polyline fill="none" points="173.6536250980571,127.19999999995343 173.75649787695147,128.0372207518085 174.57948010670952,130.04654678847874 174.78522566426545,131.27446563716512 176.48262651334517,135.4047235508915 176.63693568157032,135.96286478859838 176.7398084604647,136.80007587582804 176.9455540177878,137.3582160877413 178.1800273626577,139.08844813657925 178.84870042465627,140.42797991767293 179.2601915395353,141.76750933506992 179.62024626531638,142.49308678269153 179.82599182263948,143.6093584248447 180.08317376975901,144.16749363043346 180.7518468312919,145.89771016000304 180.8547196101863,146.56747033866122 181.83201100840233,148.57674732932355 182.0891929550562,148.79999999998836 182.24350212328136,148.79999999998836 182.34637490171008,148.7441868383903 182.29493851261213,148.68837367277592 181.26621072529815,147.40466973098228 180.80328322085552,145.84189678513212 179.82599182263948,144.05586662207497 179.67168265464716,143.33029066812014 179.56880987575278,142.10239132016432" stroke="#4dd2ff" stroke-linecap="round" stroke-linejoin="round" stroke-width="0.5"><title>2023-10-19 1.3km</title><desc>10064004415</desc></polyline><polyline fill="none" points="17.129365488421172,151.20000000006985 19.24703266704455,153.95745927596 19.105854855384678,155.9489553726744 19.388210478704423,157.94044956599828 20.376455163117498,161.46385770628694 21.78823328157887,163.76172937103547 23.20001140097156,167.74470092041884 26.02356764022261,172.34042786306236 26.44710107613355,172.80000000004657 26.870634511578828,172.64680929866154 25.035322956275195,170.80852000799496 21.647055469918996,164.22130339988507 20.799988598097116,161.31066617183387 18.39996579522267,156.25533921841998" stroke="#4dd2ff" stroke-linecap="round" stroke-linejoin="round" stroke-width="0.5"><title>2023-10-18 1.0km</title><desc>10058081424</desc></polyline><polyline fill="none" points="44.229910842143,152.5090968760196 45.436339372769,159.54547939426266 48.60321426484734,167.8909274970647 50.714464193210006,172.30909323703963 51.619285590946674,172.80000000004657 52.07169628981501,172.80000000004657 52.37330342270434,172.14545762562193 51.31767845898867,170.83637229795568 49.960446362383664,168.70910699968226 48.150803565979004,164.7818426452577 47.39678573515266,162.49093523877673 44.229910842143,156.1091093159048 43.92830371018499,155.12728831882123 43.62669657729566,151.20000000006985" stroke="#4dd2ff" stroke-linecap="round" stroke-linejoin="round" stroke-width="0.5"><title>2023-10-17 1.0km</title><desc>10051702317</desc></polyline><polyline fill="none" points="69.17660451494157,151.69846386567224 70.70784117653966,154.35693595849443 73.00469616893679,160.33848673303146 74.22968549933285,162.66464109206572 75.6077984943986,166.98463569255546 77.29215882346034,171.30462203593925 77.90465348772705,172.46769387146924 78.67027181852609,172.80000000004657 78.82339548505843,172.63384694198612 78.67027181852609,172.13538769376464 76.98591149039567,169.6430898043327 74.68905649799854,163.99387107940856 73.00469616893679,160.50464069505688 71.62658317387104,154.02462711755652 70.860964843072,151.20000000006985" stroke="#4dd2ff" stroke-linecap="round" stroke-linejoin="round" stroke-width="0.5"><title>2023-10-16 1.0km</title><desc>10046279660</desc></polyline><polyline fill="none" points="95.57642742060125,151.20000000018626 96.20836636144668,152.57143451995216 96.84030530136079,155.65715924091637 98.26216791570187,160.457167357672 100.15798473451287,163.3714531790465 102.36977102421224,171.60000524926 103.15969469957054,172.45714441989549 104.26558784395456,172.80000000004657 104.42357257939875,172.45714441989549 104.26558784395456,171.42857737722807 102.21178628969938,168.51430162554607 101.10589314438403,165.08573725470342 99.84201526548713,163.02859621262178 96.84030530136079,156.00001729140058 95.73441215604544,151.20000000018626" stroke="#4dd2ff" stroke-linecap="round" stroke-linejoin="round" stroke-width="0.5"><title>2023-10-15 1.0km</title><desc>10039610121</desc></polyline><polyline fill="none" points="121.50507848523557,152.7677485626191 121.9866772191599,157.81937576434575 123.27094050962478,161.47744391136803 124.87626962177455,163.7419594572857 125.83946708962321,166.87743894872256 128.56852658092976,171.7548432429321 129.21065822523087,172.4516144655645 130.01332278177142,172.80000000004657 130.49492151569575,172.4516144655645 130.49492151569575,171.92903606779873 127.28426329046488,169.3161423506681 125.19733544345945,165.48389302031137 124.39467088785022,162.17421815590933 122.46827595215291,157.81937576434575 121.50507848523557,154.16130197024904 121.66561139654368,151.89677726710215 121.50507848523557,151.19999999995343" stroke="#4dd2ff" stroke-linecap="round" stroke-linejoin="round" stroke-width="0.5"><title>2023-10-14 1.0km</title><desc>10033377496</desc></polyline><polyline fill="none" points="147.10247393604368,151.54285870608874 149.94619874749333,154.97144298977219 150.26216817181557,157.54287789412774 152.9479082711041,165.77145053213462 155.47566365916282,171.77143310848624 156.26558721717447,172.80000000004657 156.89752606488764,172.80000000004657 156.89752606488764,172.2857166111935 156.73954135272652,171.77143310848624 155.3176789470017,170.74286576313898 153.73783183004707,167.8285891546402 152.0,162.34288212889805 148.84030576609075,155.3143011406064 148.3663516305387,152.9142930242233 147.57642807159573,151.19999999995343" stroke="#4dd2ff" stroke-linecap="round" stroke-linejoin="round" stroke-width="0.5"><title>2023-10-13 1.0km</title><desc>10028006924</desc></polyline><polyline fill="none" points="173.36538064479828,151.20000000006985 174.88492797501385,153.17863460967783 175.79665637295693,154.82749545027036 175.94861110579222,156.9710127315484 175.79665637295693,159.2794136662269 177.46815843507648,162.74201061367057 179.44356996379793,168.01833853893913 181.41898149251938,171.64580678741913 181.87484569195658,172.3053458391223 182.63461935613304,172.80000000004657 182.63461935613304,171.97557633754332 180.9631172940135,169.83207339665387 179.44356996379793,167.1939131191466 177.46815843507648,161.75269774568733 176.2525205714628,159.609185034642 175.64470164012164,157.7954419098096" stroke="#4dd2ff" stroke-linecap="round" stroke-linejoin="round" stroke-width="0.5"><title>2023-10-12 1.0km</title><desc>10021974100</desc></polyline><polyline fill="none" points="19.474602221511304,178.26269951381255 20.068813463672996,181.48658911755774 19.920260652899742,182.77614363189787 21.257235947065055,187.12838451750576 22.297105620615184,189.06271102663595 23.336975294165313,192.6089718618896 24.82250339910388,196.15522696147673 25.119609019719064,196.47761350416113 25.86237307265401,196.80000000004657 25.713820261880755,196.15522696147673 24.079739346168935,191.9641975912964 22.297105620615184,188.90151721588336 19.920260652899742,183.42092060425784 19.32604941073805,181.32539474999066 19.028943790122867,178.26269951381255 18.13762692734599,175.20000000006985" stroke="#4dd2ff" stroke-linecap="round" stroke-linejoin="round" stroke-width="0.5"><title>2023-10-10 1.0km</title><desc>10009069592</desc></polyline><polyline fill="none" points="44.34079527948052,177.90001181093976 45.3653726009652,180.75884416745976 46.38994992244989,184.57061475841329 48.585472755134106,189.33531853882596 50.34189102053642,195.37059490859974 51.36646834202111,196.80000000004657 51.65920471958816,196.32353174127638 51.80557290837169,194.5764805598883 50.780995586887,191.55884337320458 48.585472755134106,187.74708511296194 46.09721354581416,180.75884416745976 45.3653726009652,177.58236353751272 44.19442709069699,175.20000000006985" stroke="#4dd2ff" stroke-linecap="round" stroke-linejoin="round" stroke-width="0.5"><title>2023-10-09 1.0km</title><desc>10003389142</desc></polyline><polyline fill="none" points="69.60214570444077,175.20000000006985 70.68232044391334,176.53954084217548 71.76249518338591,179.05117779690772 72.37973789125681,184.07444339734502 74.69439804647118,189.09769791853614 76.70043684728444,194.79070631600916 77.62630091048777,196.46511784254108 78.3978542946279,196.80000000004657 78.3978542946279,195.46047107467894 75.46595143154263,190.7721136303153 71.60818450618535,181.39536978886463 70.06507773511112,175.36744264874142" stroke="#4dd2ff" stroke-linecap="round" stroke-linejoin="round" stroke-width="0.5"><title>2023-10-08 1.0km</title><desc>9996447828</desc></polyline><polyline fill="none" points="97.22736892104149,179.5200177859515 97.93829996697605,182.14288138831034 100.07109310477972,187.85145554482006 100.78202415117994,190.3200233434327 103.05700349807739,196.02857525658328 103.76793454401195,196.80000000004657 103.91012075310573,196.18286022811662 103.91012075310573,195.56572027492803 101.20858277892694,190.78287948237266 99.92890689568594,188.00574111705646 97.65392754832283,181.21716519689653 96.94299650238827,177.66858268063515 96.08987924689427,175.20000000006985" stroke="#4dd2ff" stroke-linecap="round" stroke-linejoin="round" stroke-width="0.5"><title>2023-10-07 1.0km</title><desc>9989974159</desc></polyline><polyline fill="none" points="124.23527786973864,181.6340659679845 125.36470003286377,185.31066617229953 126.21176665555686,187.14896384219173 127.90589990047738,194.3489474329399 128.32943321205676,195.72766485647298 129.17649983474985,196.80000000004657 129.8823886862956,196.80000000004657 130.16474422672763,196.18723712838255 130.02356645744294,195.72766485647298 128.32943321205676,193.27661102765705 126.63529996667057,189.60002487862948 126.07058888534084,187.14896384219173 123.10585570661351,179.94895537314005 122.68232239503413,177.3446908632759 121.8352557728067,175.20000000006985" stroke="#4dd2ff" stroke-linecap="round" stroke-linejoin="round" stroke-width="0.5"><title>2023-10-06 1.0km</title><desc>9984428862</desc></polyline><polyline fill="none" points="147.34980723820627,175.19999999995343 149.79727711249143,181.7508401402738 151.42892369627953,187.23936816002242 154.20272288657725,194.14427274046466 155.34487549494952,196.44590320182033 155.83436947036535,196.80000000004657 156.4870281033218,196.80000000004657 156.6501927608624,196.44590320182033 156.1606987863779,195.56066097668372 154.20272288657725,192.7278836716432 153.0605702791363,190.42624965729192 151.10259437933564,185.29182739160024 150.28677108790725,182.63608744111843 148.0024658711627,178.38689742889255 148.0024658711627,176.793449241668" stroke="#4dd2ff" stroke-linecap="round" stroke-linejoin="round" stroke-width="0.5"><title>2023-10-04 1.0km</title><desc>9971682885</desc></polyline><polyline fill="none" points="174.7307554045692,177.72263895755168 175.4572542035021,180.2452749478398 176.1837530019693,181.9795854698168 176.7649520416744,184.65988079027738 179.52564747771248,190.17812531418167 179.6709472378716,192.0700915964553 180.54274579696357,195.8540191539796 180.8333453158848,196.32700962922536 181.70514387497678,196.80000000004657 181.70514387497678,195.22336502477992 179.8162469980307,191.7547639987897 178.50854915985838,188.75914950715378 177.78205036045983,187.3401727611199 177.0555515610613,185.29053802613635 175.6025539636612,182.29491450509522 175.0213549239561,179.92994561127853 174.7307554045692,177.56497410975862 174.29485612502322,175.20000000006985" stroke="#4dd2ff" stroke-linecap="round" stroke-linejoin="round" stroke-width="0.5"><title>2023-10-03 1.0km</title><desc>9965060084</desc></polyline><polyline fill="none" points="18.05168626923114,200.09256578912027 20.02584313414991,206.51902978750877 20.35486927907914,209.37523054960184 21.50646078400314,210.8033296703361 22.32902614492923,212.94547677692026 23.809643793851137,218.47934805578552 24.961235297843814,220.26446513272822 25.783800658769906,220.80000000004657 25.94831373076886,220.6214883904904 25.454774514771998,219.19339504395612 23.645130721852183,215.801669979468 20.683895423077047,208.66118067363277 18.87425162922591,203.30579991429113 18.545225486159325,199.19999999995343" stroke="#4dd2ff" stroke-linecap="round" stroke-linejoin="round" stroke-width="0.5"><title>2023-10-02 1.0km</title><desc>9958643020</desc></polyline><polyline fill="none" points="44.57615444716066,203.00161439389922 44.8946517072618,204.5568185101729 48.39812157675624,212.85122308298014 50.149856510572135,218.20801048050635 51.1053482927382,220.10880307410844 52.06084007490426,220.80000000004657 52.220088705420494,220.62720078765415 52.06084007490426,219.93600381095894 48.87586746737361,215.09761928464286 45.850143489427865,207.66722365492024 44.41690581571311,203.174414902227 43.779911294579506,199.20000000018626" stroke="#4dd2ff" stroke-linecap="round" stroke-linejoin="round" stroke-width="0.5"><title>2023-10-01 1.0km</title><desc>9952075403</desc></polyline><polyline fill="none" points="70.8986918758601,202.3304483613465 72.19691388169304,204.99132584920153 72.7739014388062,207.6522000116529 73.2066421075724,210.15654912649188 75.37034545000643,216.26088775217067 77.24555501388386,220.1739161274163 78.11103635048494,220.80000000004657 78.39953012997285,220.33043711271603 75.51459234021604,215.94784517178778 74.2163703343831,212.97393835918047 73.7836296656169,211.40872257889714 71.76417321292683,207.02611227263696 70.61019809637219,202.17392605240457 69.60046987002715,199.20000000006985" stroke="#4dd2ff" stroke-linecap="round" stroke-linejoin="round" stroke-width="0.5"><title>2023-09-30 1.0km</title><desc>9945549317</desc></polyline><polyline fill="none" points="96.65578072797507,199.19999999995343 98.0890175588429,201.61920987116173 98.56676316913217,203.52001588023268 99.84075146261603,206.63042239728384 100.47774561028928,211.29602445522323 100.95549122057855,212.67842328641564 102.86647366080433,217.34401333890855 103.3442192710936,220.28160232468508 103.66271634493023,220.62720078765415 104.14046195521951,220.80000000004657 104.29971049167216,220.4544015622232 101.43323683086783,215.27041890379041 99.52225438971072,210.7776246839203 98.8852602429688,208.18562411214225 96.65578072797507,203.00161439413205 95.70028950739652,199.89120307425037" stroke="#4dd2ff" stroke-linecap="round" stroke-linejoin="round" stroke-width="0.5"><title>2023-09-28 1.0km</title><desc>9933629332</desc></polyline><polyline fill="none" points="121.77749703917652,201.6545560109662 122.98392645642161,205.90911335172132 125.2459816141054,209.0182078036014 126.7540183858946,214.581839667866 128.86526986584067,218.345465102233 129.46848457492888,220.4727288366994 130.07169928308576,220.80000000004657 130.37330663762987,220.3090932368068 130.07169928308576,219.65455071767792 128.86526986584067,218.01819357764907 125.3967852909118,210.98184416710865 123.5871411645785,206.07275000982918 121.62669336237013,199.20000000006985" stroke="#4dd2ff" stroke-linecap="round" stroke-linejoin="round" stroke-width="0.5"><title>2023-09-27 1.0km</title><desc>9927137811</desc></polyline><polyline fill="none" points="153.79438564018346,199.19999999995343 153.36373308650218,201.2769517872366 152.9330805328209,202.4711962986621 152.59812854672782,203.92505645600613 150.63626691349782,208.027002906485 149.6314109552186,209.74046715319855 149.44000982004218,210.46739012288162 149.53571038739756,211.03854336001677 149.77496180613525,211.86931088013807 150.4927160621155,213.63468861562433 150.73196748108603,214.10199374804506 151.019069183385,214.93275766435545 151.97607485787012,216.1269790820661 152.40672741178423,217.06158573925495 152.88523024925962,217.78850117325783 153.2680325191468,218.82695049518952 153.84223592397757,219.60578648454975 154.55999017995782,220.79999999998836" stroke="#4dd2ff" stroke-linecap="round" stroke-linejoin="round" stroke-width="0.5"><title>2023-09-26 1.0km</title><desc>9920397094</desc></polyline><polyline fill="none" points="177.89912603562698,199.20000000001164 176.95763570303097,202.33786702319048 176.01614537020214,204.0162569397944 175.14190434664488,205.11085753014777 174.6711591805797,205.9865371331689 174.4694112520665,206.86221596354153 174.53666056110524,207.95681341498857 174.87290710909292,208.83249050704762 175.67989882268012,210.07303173147375 176.01614537020214,211.3135714053642 176.68863846478052,212.91897338739363 177.96637534513138,214.52437277277932 180.11835324857384,218.90272153465776 181.5305887479335,220.79999999998836" stroke="#4dd2ff" stroke-linecap="round" stroke-linejoin="round" stroke-width="0.5"><title>2023-09-25 1.0km</title><desc>9914573673</desc></polyline><polyline fill="none" points="23.59245867212303,223.20000000001164 23.061639114748687,224.00641070248093 22.95547520322725,224.40961574245011 23.061639114748687,224.92802191746887 23.114721070509404,225.44642774929525 22.053081955527887,227.40484668471618 21.7876721767243,228.72965671774 21.41609848686494,229.70886269339826 19.1866563456133,233.62567435624078 19.133574389852583,234.08647444064263 19.345902212662622,235.00807379680919 19.929803726030514,235.92967206868343 20.248295460361987,236.73606966715306 20.726033061975613,237.54246643558145 20.9914428407792,238.34886237385217 21.681508265435696,239.44325553410454 22.21232782257721,240.5376471655327 22.79622933617793,241.17124162177788 22.95547520322725,241.74723613733659 23.327048893319443,242.20803144481033 24.123278229730204,243.5904157414334 24.707179742865264,244.22400772874244 24.866425609914586,244.79999999998836" stroke="#4dd2ff" stroke-linecap="round" stroke-linejoin="round" stroke-width="0.5"><title>2023-09-24 1.0km</title><desc>9907510217</desc></polyline><polyline fill="none" points="48.805249713594094,223.19999999995343 48.3543098741211,223.8990368102095 48.03220998868346,224.59807310631732 47.83895005751401,225.50681952305604 47.77453008014709,226.69517891091527 46.67939046956599,228.1631502218661 46.03519069892354,229.84082894423045 45.45541090494953,230.6796671951306 45.0688910423778,231.7981170452549 45.004471065010875,232.98646856920095 46.35729058436118,236.4117087686318 46.87265040096827,237.46024921990465 48.54756980529055,240.1165465207887 49.25618955329992,241.86410648730816 50.15806923247874,242.98254318005638 50.67342904955149,243.89127202425152 50.995528934989125,244.79999999998836" stroke="#4dd2ff" stroke-linecap="round" stroke-linejoin="round" stroke-width="0.5"><title>2023-09-23 1.0km</title><desc>9901004991</desc></polyline><polyline fill="none" points="74.82940766238607,223.20000000001164 74.39934443007223,224.00000917632133 73.96928119775839,225.40002353605814 72.98627952369861,227.466707449581 72.00327784963883,228.8667164563667 71.14315138501115,231.20005999715067 71.0817137802951,232.46672969026258 71.2045889897272,233.2000639672042 72.43334108195268,236.1333951432607 72.61765389586799,237.00005935650552 72.86340431426652,237.4667243589647 73.72353077912703,238.53338631999213 74.39934443007223,239.86671200639103 74.95228287158534,241.26670186739648 75.8738469411619,242.60002353484742 76.9182862197049,244.79999999998836" stroke="#4dd2ff" stroke-linecap="round" stroke-linejoin="round" stroke-width="0.5"><title>2023-09-22 1.0km</title><desc>9895405405</desc></polyline><polyline fill="none" points="101.1450217468664,223.19999999995343 100.96886455500498,223.83717584831174 100.6165501717478,224.2194811324589 99.85320234019309,225.62126573116984 99.55960702057928,226.6407440150506 98.67882106127217,228.87084857962327 97.7393160383217,230.78236220986582 97.15212539886124,232.18413619237253 96.97596820699982,232.88502233318286 96.97596820699982,233.33104049135 97.15212539886124,233.96820889046649 97.50443978235126,234.60537682118593 98.26778761390597,236.58059442898957 99.03113544499502,237.98235903232126 99.44216889259405,239.0018227742985 100.20551672391593,240.27615076530492 100.67526923539117,240.8495977499988 101.02758361888118,241.8690581190167 101.96708864206448,243.5256786608952 103.02403179300018,244.79999999998836" stroke="#4dd2ff" stroke-linecap="round" stroke-linejoin="round" stroke-width="0.5"><title>2023-09-21 1.0km</title><desc>9889267953</desc></polyline><polyline fill="none" points="128.19914857461117,223.19999999995343 127.42831299151294,225.51256180164637 126.97488029603846,227.3330835548113 126.24938798230141,228.85838175087702 125.38786586048082,231.41693865915295 123.8915379641112,234.22149941610405 123.4834485379979,235.74678191059502 123.52879180735908,236.09120005724253 123.80085142469034,236.82923834602116 124.39031392964534,238.10850278503494 124.75306008616462,239.1909554002341 125.65992547781207,240.47021532442886 126.20404471294023,241.50346193969017 126.5214475998655,242.241494259506 126.8841937566176,242.88112161163008 127.47365626133978,243.3239401896135 128.19914857461117,244.40638436889276 128.24449184420519,244.60319221339887 128.51655146176927,244.79999999998836" stroke="#4dd2ff" stroke-linecap="round" stroke-linejoin="round" stroke-width="0.5"><title>2023-09-20 1.0km</title><desc>9882714971</desc></polyline><polyline fill="none" points="153.79100363212638,223.20000000001164 153.33045984106138,224.36608261422953 152.460543791065,226.9203525246121 152.40937225869857,227.75326475786278 152.10234306450002,228.19748423999408 151.74414233816788,229.03039506456116 151.53945620870218,229.80777767213294 151.1300839500036,230.86279564508004 149.95313870580867,232.7507188655436 149.64610951161012,233.86125973169692 149.5437664471101,234.86074511497281 149.64610951161012,235.860229175305 149.95313870580867,236.9707654688973 150.3113394321408,237.7481399027747 151.43711314396933,239.69157248659758 152.0,240.46894411969697 152.5117153231986,241.85710576031124 153.02343064686283,242.7455278711859 153.53514597029425,243.46737006679177 154.0980328260921,244.02263282472268 154.45623355265707,244.79999999998836" stroke="#4dd2ff" stroke-linecap="round" stroke-linejoin="round" stroke-width="0.5"><title>2023-09-19 1.0km</title><desc>9876194288</desc></polyline><polyline fill="none" points="177.84100794629194,223.20000000001164 177.45942701748572,223.82109320326708 176.8234588028863,225.0632783769979 176.6326683384832,225.89140091248555 175.48792555183172,227.89269402367063 174.5975700514391,229.75596308422973 174.40677958680317,230.44606179761468 174.47037640865892,231.20516979601234 174.85195733746514,232.17130636097863 175.42432873044163,233.20645157678518 175.9331033024937,234.6556529609952 176.6326683384832,236.1738615350332 177.39583019609563,237.5540490167914 178.09539523231797,238.4511697916896 178.9221539113205,239.83135392481927 179.4309284829069,241.41856316884514 180.32128398376517,242.79874293867033 180.76646173396148,244.04090299631935 181.59322041319683,244.79999999998836" stroke="#4dd2ff" stroke-linecap="round" stroke-linejoin="round" stroke-width="0.5"><title>2023-09-18 1.0km</title><desc>9870505463</desc></polyline><polyline fill="none" points="22.217041281517595,247.19999999995343 21.906982308020815,247.8056144231232 21.472899745218456,249.82432627223898 20.914793593110517,250.7663902780041 20.666746414266527,251.50658274488524 19.30248693120666,253.7271565538831 18.80639257398434,254.93837636063108 18.49633360025473,256.0150148428511 18.74438077909872,256.7552030647639 20.108640261925757,259.7159499658155 20.790770003572106,260.79258282791125 21.286864361027256,261.9365038559772 22.093017691979185,263.0131341058295 22.527100255014375,263.75331666780403 23.085206406889483,265.5028367077466 25.50366639974527,268.79999999998836" stroke="#4dd2ff" stroke-linecap="round" stroke-linejoin="round" stroke-width="0.5"><title>2023-09-16 1.0km</title><desc>9856514700</desc></polyline><polyline fill="none" points="47.70141286822036,247.19999999995343 47.03788590896875,249.21602015919052 46.17530086194165,250.58403147483477 44.383778071729466,254.04005154868355 44.317425375571474,254.83205443120096 44.383778071729466,255.76805701170815 44.781894247280434,256.7040586976218 45.44542120676488,257.7120595127344 46.0425954698585,259.08005895931274 47.10423860489391,260.88005531951785 48.431292523862794,263.4000446656719 48.563997915480286,264.33603905688506 49.028466786956415,264.6960366614512 49.559288354590535,265.4160314735491 50.4218734013848,266.8560195097816 51.35081114433706,267.64801202714443 51.54986923234537,268.1520069320104 51.682574624195695,268.79999999998836" stroke="#4dd2ff" stroke-linecap="round" stroke-linejoin="round" stroke-width="0.5"><title>2023-09-15 1.0km</title><desc>9850671982</desc></polyline><polyline fill="none" points="74.5491250732448,247.20000000001164 73.45087492698804,250.10485439072363 72.21534351236187,251.89245295227738 71.6662184393499,252.86073418945307 70.84253082983196,254.94625986437313 70.63660892727785,255.69108942203457 70.63660892727785,256.28695267351577 70.84253082983196,257.03178124543047 71.6662184393499,259.2662636752357 72.42126541491598,260.7559158902732 74.27456253673881,263.958660734992 75.02960951230489,265.3738238363294 75.16689078020863,266.19312788615935 75.71601585345343,266.71450284548337 76.60834409738891,268.12966209702427 77.36339107272215,268.79999999998836" stroke="#4dd2ff" stroke-linecap="round" stroke-linejoin="round" stroke-width="0.5"><title>2023-09-14 1.0km</title><desc>9844236351</desc></polyline><polyline fill="none" points="96.56709610228427,247.19999999995343 96.96225050766952,247.52159278281033 97.110433409689,247.84318542375695 97.20922201103531,248.53996899235062 97.50558781507425,249.1295545687899 97.70316501799971,250.79111135465791 97.70316501799971,251.59508908487624 97.60437641642056,252.02387684507994 97.70316501799971,252.5598611907917 97.9501365213655,253.2030418853974 97.85134792001918,253.73902536404785 97.90074222069234,254.00701695558382 98.3946852274239,254.91818762995536 98.83923393371515,256.2581424351083 99.2343883391004,257.0085160502349 99.7283313460648,257.70529085828457 100.27166865346953,258.18767302751075 100.419851555489,258.5092609630665 100.56803445750847,259.2060343368212 100.96318886312656,259.9028070445638 101.40773756918497,261.1891549092252 102.00046917726286,262.31470742897363 102.29683498153463,263.279465348518 102.4450178835541,264.08342930604704 102.74138368782587,264.72659983392805 103.2847209952306,266.4953158595017 104.02563550556079,267.88884667569073 104.07502980646677,268.1032357955701 104.02563550556079,268.26402759418124 103.43290389725007,268.79999999998836 103.72926970152184,268.58561108488357 103.87745260354131,268.26402759418124 103.9762412046548,267.99604124354664 103.9268469044473,267.620860187104 103.63048110017553,267.2456789375865 102.74138368782587,265.31617231911514 102.29683498153463,263.8690390040283 101.35834326851182,261.7787302552606 100.9137945624534,259.74201340193395 100.66682305908762,259.15243640867993 99.7283313460648,257.91968297294807 98.78983963280916,256.15094614133704 98.34529092675075,254.70379463257268 98.19710802496411,253.73902536404785 97.80195361911319,252.7206564177177 97.01164480834268,251.00550550274784 96.81406760541722,250.20152712223353 96.12254739599302,248.91515986889135 95.97436449397355,248.21837665891508 95.9249701933004,247.36079640913522" stroke="#4dd2ff" stroke-linecap="round" stroke-linejoin="round" stroke-width="0.5"><title>2023-09-13 1.0km</title><desc>9837636972</desc></polyline></svg>