<?xml version="1.0" encoding="utf-8" ?>
<svg baseProfile="full" height="300mm" version="1.1" viewBox="0,0,200,300" width="200mm" xmlns="http://www.w3.org/2000/svg" xmlns:ev="http://www.w3.org/2001/xml-events" xmlns:xlink="http://www.w3.org/1999/xlink"><defs /><rect fill="#222222" height="300" width="200" x="0" y="0" /><text fill="#FFFFFF" style="font-size:12px; font-family:Arial; font-weight:bold;" x="10" y="20">Over 1km Runs</text><text fill="#FFFFFF" style="font-size:4px; font-family:Arial" x="10" y="280">ATHLETE</text><text fill="#FFFFFF" style="font-size:9px; font-family:Arial" x="10" y="290">Jiakai</text><text fill="#FFFFFF" style="font-size:4px; font-family:Arial" x="120" y="280">STATISTICS</text><text fill="#FFFFFF" style="font-size:3px; font-family:Arial" x="120" y="285">Number: 15</text><text fill="#FFFFFF" style="font-size:3px; font-family:Arial" x="120" y="290">Weekly: 5.0</text><text fill="#FFFFFF" style="font-size:3px; font-family:Arial" x="141" y="285">Total: 15.2 km</text><text fill="#FFFFFF" style="font-size:3px; font-family:Arial" x="141" y="290">Avg: 1.0 km</text><text fill="#FFFFFF" style="font-size:3px; font-family:Arial" x="167" y="285">Min: 1.0 km</text><text fill="#FFFFFF" style="font-size:3px; font-family:Arial" x="167" y="290">Max: 1.0 km</text><polyline fill="none" points="27.31156145595014,32.39999999990687 30.178035117685795,37.23841974232346 31.133526338264346,41.040031760465354 33.68150292523205,47.260844794567674 34.95549122057855,56.592048910446465 35.9109824411571,59.35684657283127 39.73294732160866,68.6880266778171 40.688438542187214,74.56320464937016 41.32543268986046,75.2544015753083 42.280923910439014,75.60000000009313 42.59942098334432,74.90880312444642 36.866473661735654,64.54083780758083 33.04450877942145,55.55524936784059 31.770520485937595,50.3712482242845 27.31156145595014,40.003228788264096 25.40057901479304,33.78240614850074" stroke="#4dd2ff" stroke-linecap="round" stroke-linejoin="round" stroke-width="0.5"><title>2023-09-28 1.0km</title><desc>9933629332</desc></polyline><polyline fill="none" points="91.55499407835305,37.30911202193238 93.96785291284323,45.81822670344263 98.4919632282108,52.0364156072028 101.5080367717892,63.16367933573201 105.73053973168135,70.69093020446599 106.93696914985776,74.94545767339878 108.14339856617153,75.60000000009313 108.74661327525973,74.6181864736136 108.14339856617153,73.30910143535584 105.73053973168135,70.03638715529814 98.79357058182359,55.963688334217295 95.174282329157,46.14550001965836 91.25338672474027,32.4000000001397" stroke="#4dd2ff" stroke-linecap="round" stroke-linejoin="round" stroke-width="0.5"><title>2023-09-27 1.0km</title><desc>9927137811</desc></polyline><polyline fill="none" points="169.58877128036693,32.39999999990687 168.72746617300436,36.553903574473225 167.8661610656418,38.942392597324215 167.19625709345564,41.850112912012264 163.27253382699564,50.05400581296999 161.2628219104372,53.4809343063971 160.88001964008436,54.93478024576325 161.07142077479511,56.07708672003355 161.5499236122705,57.738621760276146 162.985432124231,61.269377231248654 163.46393496217206,62.20398749609012 164.03813836677,63.8655153287109 165.95214971574023,66.2539581641322 166.81345482356846,68.1231714785099 167.77046049851924,69.57700234651566 168.5360650382936,71.65390099037904 169.68447184795514,73.2115729690995 171.11998035991564,75.59999999997672" stroke="#4dd2ff" stroke-linecap="round" stroke-linejoin="round" stroke-width="0.5"><title>2023-09-26 1.0km</title><desc>9920397094</desc></polyline><polyline fill="none" points="33.798252071253955,80.40000000002328 31.915271406061947,86.67573404638097 30.032290740404278,90.0325138795888 28.283808693289757,92.22171506029554 27.342318361159414,93.97307426633779 26.938822504132986,95.72443192708306 27.073321122210473,97.91362682997715 27.745814218185842,99.66498101409525 29.35979764536023,102.1460634629475 30.032290740404278,104.6271428107284 31.37727692956105,107.83794677478727 33.932750690262765,111.04874554555863 38.23670649714768,119.80544306931552 41.061177495867014,123.59999999997672" stroke="#4dd2ff" stroke-linecap="round" stroke-linejoin="round" stroke-width="0.5"><title>2023-09-25 1.0km</title><desc>9914573673</desc></polyline><polyline fill="none" points="103.18491734424606,80.40000000002328 102.12327822949737,82.01282140496187 101.9109504064545,82.81923148490023 102.12327822949737,83.85604383493774 102.22944214101881,84.8928554985905 100.10616391105577,88.80969336943235 99.5753443534486,91.45931343548 98.83219697372988,93.41772538679652 94.3733126912266,101.25134871248156 94.26714877970517,102.17294888128527 94.69180442532524,104.01614759361837 95.85960745206103,105.85934413736686 96.49659092072397,107.47213933430612 97.45206612395123,109.08493287116289 97.9828856815584,110.69772474770434 99.36301653087139,112.88651106820907 100.42465564515442,115.07529433106538 101.59245867235586,116.34248324355576 101.9109504064545,117.49447227467317 102.65409778663889,118.41606288962066 104.24655645946041,121.18083148286678 105.41435948573053,122.44801545748487 105.73285121982917,123.59999999997672" stroke="#4dd2ff" stroke-linecap="round" stroke-linejoin="round" stroke-width="0.5"><title>2023-09-24 1.0km</title><desc>9907510217</desc></polyline><polyline fill="none" points="167.6104994271882,80.39999999990687 166.7086197482422,81.79807362041902 166.06441997736692,83.19614621263463 165.67790011502802,85.01363904611208 165.54906016029418,87.39035782183055 163.35878093913198,90.32630044373218 162.0703813978471,93.6816578884609 160.91082180989906,95.35933439026121 160.1377820847556,97.59623409050982 160.00894213002175,99.9729371384019 162.71458116872236,106.8234175372636 163.74530080193654,108.92049843980931 167.0951396105811,114.23309304157738 168.51237910659984,117.72821297461633 170.31613846495748,119.96508636011276 171.34685809910297,121.78254404850304 171.99105786997825,123.59999999997672" stroke="#4dd2ff" stroke-linecap="round" stroke-linejoin="round" stroke-width="0.5"><title>2023-09-23 1.0km</title><desc>9901004991</desc></polyline><polyline fill="none" points="35.65881532477215,128.40000000002328 34.798688860144466,130.00001835264266 33.93856239551678,132.80004707211629 31.972559047397226,136.93341489916202 30.00655569927767,139.7334329127334 28.286302770022303,144.40011999430135 28.163427560590208,146.93345938052516 28.409177979454398,148.40012793440837 30.866682163905352,154.26679028652143 31.235307791735977,156.00011871301103 31.726808628533036,156.93344871792942 33.44706155825406,159.06677263998426 34.798688860144466,161.73342401278205 35.90456574317068,164.53340373479296 37.7476938823238,167.20004706969485 39.83657243940979,171.59999999997672" stroke="#4dd2ff" stroke-linecap="round" stroke-linejoin="round" stroke-width="0.5"><title>2023-09-22 1.0km</title><desc>9895405405</desc></polyline><polyline fill="none" points="102.29004349373281,128.39999999990687 101.93772911000997,129.6743516966235 101.23310034349561,130.4389622649178 99.70640468038619,133.24253146233968 99.11921404115856,135.28148803010117 97.35764212254435,139.74169715924654 95.47863207664341,143.56472441973165 94.30425079772249,146.36827238474507 93.95193641399965,147.77004466636572 93.95193641399965,148.6620809827 94.30425079772249,149.93641778093297 95.00887956470251,151.21075364237186 96.53557522781193,155.16118885797914 98.06227088999003,157.9647180646425 98.88433778518811,160.00364554859698 100.41103344783187,162.55230153060984 101.35053847078234,163.6991954999976 102.05516723776236,165.7381162380334 103.93417728412896,169.05135732179042 106.04806358600035,171.59999999997672" stroke="#4dd2ff" stroke-linecap="round" stroke-linejoin="round" stroke-width="0.5"><title>2023-09-21 1.0km</title><desc>9889267953</desc></polyline><polyline fill="none" points="170.39829714922234,128.39999999990687 168.85662598302588,133.02512360329274 167.94976059207693,136.66616710962262 166.49877596460283,139.71676350175403 164.77573172096163,144.8338773183059 161.7830759282224,150.4429988322081 160.9668970759958,153.49356382119004 161.05758361471817,154.18240011448506 161.60170284938067,155.6584766920423 162.7806278592907,158.2170055700699 163.50612017232925,160.38191080046818 165.31985095562413,162.94043064885773 166.40808942588046,165.00692387938034 167.042895199731,166.482988519012 167.7683875132352,167.76224322326016 168.94731252267957,168.647880379227 170.39829714922234,170.81276873778552 170.48898368841037,171.20638442679774 171.03310292353854,171.59999999997672" stroke="#4dd2ff" stroke-linecap="round" stroke-linejoin="round" stroke-width="0.5"><title>2023-09-20 1.0km</title><desc>9882714971</desc></polyline><polyline fill="none" points="37.58200726425275,176.40000000002328 36.66091968212277,178.73216522845905 34.921087582129985,183.8407050492242 34.818744517397135,185.50652951572556 34.20468612900004,186.39496847998817 33.48828467633575,188.06079012912232 33.078912417404354,189.61555534426589 32.26016790000722,191.72559129016008 29.90627741161734,195.5014377310872 29.29221902322024,197.72251946339384 29.087532894220203,199.72149022994563 29.29221902322024,201.72045835061 29.90627741161734,203.9415309377946 30.622678864281625,205.49627980554942 32.874226287938654,209.38314497319516 34.0,210.93788823939394 35.02343064639717,213.71421152062248 36.04686129372567,215.49105574237183 37.070291940588504,216.93474013358355 38.19606565218419,218.04526564944535 38.912467105314136,219.59999999997672" stroke="#4dd2ff" stroke-linecap="round" stroke-linejoin="round" stroke-width="0.5"><title>2023-09-19 1.0km</title><desc>9876194288</desc></polyline><polyline fill="none" points="99.68201589258388,176.40000000002328 98.91885403497145,177.64218640653417 97.64691760577261,180.12655675399583 97.2653366769664,181.7828018249711 94.97585110366344,185.78538804734126 93.19514010287821,189.51192616845947 92.81355917360634,190.89212359522935 92.94075281731784,192.41033959202468 93.70391467493027,194.34261272195727 94.84865746088326,196.41290315357037 95.86620660498738,199.31130592199042 97.2653366769664,202.34772307006642 98.79166039219126,205.1080980335828 100.19079046463594,206.90233958337922 101.84430782264099,209.66270784963854 102.86185696581379,212.83712633769028 104.64256796753034,215.59748587734066 105.53292346792296,218.0818059926387 107.18644082639366,219.59999999997672" stroke="#4dd2ff" stroke-linecap="round" stroke-linejoin="round" stroke-width="0.5"><title>2023-09-18 1.0km</title><desc>9870505463</desc></polyline><polyline fill="none" points="166.4340825630352,176.39999999990687 165.81396461604163,177.61122884624638 164.9457994904369,181.64865254447795 163.82958718622103,183.53278055600822 163.33349282853305,185.01316548977047 160.60497386241332,189.4543131077662 159.61278514796868,191.87675272126216 158.99266720050946,194.03002968570217 159.48876155819744,195.51040612952784 162.2172805238515,201.43189993163105 163.5815400071442,203.5851656558225 164.5737287220545,205.87300771195441 166.18603538395837,208.02626821165904 167.05420051002875,209.50663333560806 168.17041281377897,213.00567341549322 173.00733279949054,219.59999999997672" stroke="#4dd2ff" stroke-linecap="round" stroke-linejoin="round" stroke-width="0.5"><title>2023-09-16 1.0km</title><desc>9856514700</desc></polyline><polyline fill="none" points="33.40282573644072,224.39999999990687 32.07577181793749,228.43204031838104 30.3506017238833,231.16806294966955 26.767556143458933,238.0801030973671 26.63485075114295,239.66410886240192 26.767556143458933,241.5361140234163 27.563788494560868,243.4081173952436 28.890842413529754,245.42411902546883 30.085190939716995,248.16011791862547 32.208477209787816,251.7601106390357 34.86258504772559,256.80008933134377 35.12799583096057,258.6720781137701 36.05693357391283,259.39207332290243 37.11857670918107,260.83206294709817 38.8437468027696,263.71203901956324 40.701622288674116,265.29602405428886 41.099738464690745,266.3040138640208 41.36514924839139,267.5999999999767" stroke="#4dd2ff" stroke-linecap="round" stroke-linejoin="round" stroke-width="0.5"><title>2023-09-15 1.0km</title><desc>9850671982</desc></polyline><polyline fill="none" points="101.09825014648959,224.40000000002328 98.90174985397607,230.20970878144726 96.43068702472374,233.78490590455476 95.33243687869981,235.72146837890614 93.68506165966392,239.89251972874627 93.2732178545557,241.38217884406913 93.2732178545557,242.57390534703154 93.68506165966392,244.06356249086093 95.33243687869981,248.53252735047136 96.84253082983196,251.51183178054634 100.54912507347763,257.917321469984 102.05921902460977,260.7476476726588 102.33378156041726,262.3862557723187 103.43203170690686,263.42900569096673 105.21668819477782,266.25932419404853 106.7267821454443,267.5999999999767" stroke="#4dd2ff" stroke-linecap="round" stroke-linejoin="round" stroke-width="0.5"><title>2023-09-14 1.0km</title><desc>9844236351</desc></polyline><polyline fill="none" points="159.13419220456854,224.39999999990687 159.92450101533905,225.04318556562066 160.220866819378,225.6863708475139 160.41844402207062,227.07993798470125 161.0111756301485,228.2591091375798 161.40633003599942,231.58222270931583 161.40633003599942,233.19017816975247 161.20875283284113,234.04775369015988 161.40633003599942,235.11972238158341 161.900273042731,236.4060837707948 161.70269584003836,237.4780507280957 161.80148444138467,238.01403391116764 162.7893704548478,239.8363752599107 163.6784678674303,242.51628487021662 164.4687766782008,244.0170321004698 165.4566626921296,245.41058171656914 166.54333730693907,246.3753460550215 166.839703110978,247.01852192613296 167.13606891501695,248.41206867364235 167.92637772625312,249.80561408912763 168.81547513836995,252.37830981845036 170.00093835452572,254.62941485794727 170.59366996306926,256.558930697036 170.8900357671082,258.1668586120941 171.48276737565175,259.4531996678561 172.5694419904612,262.99063171900343 174.05127101112157,265.77769335138146 174.15005961293355,266.20647159114014 174.05127101112157,266.5280551883625 172.86580779450014,267.5999999999767 173.4585394030437,267.17122216976713 173.75490520708263,266.5280551883625 173.9524824093096,265.9920824870933 173.8536938088946,265.24172037420794 173.26096220035106,264.491357875173 171.48276737565175,260.6323446382303 170.59366996306926,257.7380780080566 168.71668653702363,253.5574605105212 167.8275891249068,249.4840268038679 167.33364611817524,248.30487281735986 165.4566626921296,245.83936594589613 163.57967926561832,242.3018922826741 162.6905818535015,239.40758926514536 162.39421604992822,237.4780507280957 161.60390723822638,235.44131283543538 160.02328961668536,232.01101100549567 159.62813521083444,230.40305424446706 158.24509479198605,227.8303197377827 157.9487289879471,226.43675331783015 157.8499403866008,224.72159281827044" stroke="#4dd2ff" stroke-linecap="round" stroke-linejoin="round" stroke-width="0.5"><title>2023-09-13 1.0km</title><desc>9837636972</desc></polyline></svg>