<svg xmlns="http://www.w3.org/2000/svg" xmlns:ev="http://www.w3.org/2001/xml-events" xmlns:xlink="http://www.w3.org/1999/xlink" width="200mm" height="300mm" baseProfile="full" version="1.1" viewBox="0 0 200 300"><rect width="200" height="300" x="0" y="0" fill="#222"/><text fill="#FFF" style="font-size:12px;font-family:Arial;font-weight:700" x="10" y="20">Over 1km Runs</text><text fill="#FFF" style="font-size:4px;font-family:Arial" x="10" y="280">ATHLETE</text><text fill="#FFF" style="font-size:9px;font-family:Arial" x="10" y="290">Jiakai</text><text fill="#FFF" style="font-size:4px;font-family:Arial" x="120" y="280">STATISTICS</text><text fill="#FFF" style="font-size:3px;font-family:Arial" x="120" y="285">Number: 48</text><text fill="#FFF" style="font-size:3px;font-family:Arial" x="120" y="290">Weekly: 6.0</text><text fill="#FFF" style="font-size:3px;font-family:Arial" x="141" y="285">Total: 50.1 km</text><text fill="#FFF" style="font-size:3px;font-family:Arial" x="141" y="290">Avg: 1.0 km</text><text fill="#FFF" style="font-size:3px;font-family:Arial" x="167" y="285">Min: 1.0 km</text><text fill="#FFF" style="font-size:3px;font-family:Arial" x="167" y="290">Max: 1.5 km</text><polyline fill="none" stroke="#4dd2ff" stroke-linecap="round" stroke-linejoin="round" stroke-width=".5" points="22.404 39.076 23.657 41.407 28.312 52.09 30.281 58.112 30.639 58.5 30.997 58.5 30.997 57.917 29.565 54.809 28.312 53.061 28.133 52.09 27.059 50.924 24.015 45.68 20.435 36.55 19.003 31.5"><title>2023-11-05 1.1km</title><desc>10161301187</desc></polyline><polyline fill="none" stroke="#4dd2ff" stroke-linecap="round" stroke-linejoin="round" stroke-width=".5" points="49.951 31.5 53.558 39.522 55.18 46.565 57.705 51.457 58.606 55.37 59.508 58.5 60.049 57.913 59.868 57.326 57.524 53.022 57.344 52.435 55.18 49.109 54.279 45.978 51.935 41.674 51.394 37.957 50.312 34.043"><title>2023-11-04 1.0km</title><desc>10155501797</desc></polyline><polyline fill="none" stroke="#4dd2ff" stroke-linecap="round" stroke-linejoin="round" stroke-width=".5" points="92.244 35.601 90.197 32.867 88.937 32.013 86.417 31.5 84.055 31.671 80.748 33.209 79.331 34.576 78.071 37.139 77.756 39.19 77.284 46.025 77.599 53.203 77.914 54.228 79.488 56.791 81.378 58.158 84.528 58.5 87.362 57.304 90.039 54.057 90.827 52.519 91.929 47.563 91.929 43.633 92.716 38.506 92.559 36.627 90.827 34.576 89.409 33.551 86.102 32.013 84.37 32.013 80.591 33.209 78.858 34.747 77.756 36.797 77.441 38.165 77.756 43.804 77.441 46.367"><title>2023-11-03 1.0km</title><desc>10152446508</desc></polyline><polyline fill="none" stroke="#4dd2ff" stroke-linecap="round" stroke-linejoin="round" stroke-width=".5" points="109.412 31.5 110.888 34.703 112.153 40.424 114.262 44.542 117.425 52.78 118.058 54.153 119.112 57.814 119.745 58.5 120.588 58.5 120.588 58.042 119.112 57.356 118.479 55.754 117.003 54.381 115.949 51.407 114.473 49.119 112.786 45.686 110.888 38.593 109.623 35.619"><title>2023-11-02 1.1km</title><desc>10144903556</desc></polyline><polyline fill="none" stroke="#4dd2ff" stroke-linecap="round" stroke-linejoin="round" stroke-width=".5" points="140.402 33.457 140.763 35.609 142.205 38.935 144.73 47.935 149.057 56.935 150.319 58.5 149.598 56.152 146.893 52.044 145.451 46.761 143.648 44.217 141.484 39.522 139.681 31.5"><title>2023-11-01 1.0km</title><desc>10138966680</desc></polyline><polyline fill="none" stroke="#4dd2ff" stroke-linecap="round" stroke-linejoin="round" stroke-width=".5" points="171.071 31.906 172.007 34.951 173.503 43.071 175.935 48.35 177.432 53.222 179.864 58.5 180.051 58.297 178.368 55.861 175.935 50.177 173.877 46.523 170.323 35.763 169.949 31.5"><title>2023-10-31 1.0km</title><desc>10133123337</desc></polyline><polyline fill="none" stroke="#4dd2ff" stroke-linecap="round" stroke-linejoin="round" stroke-width=".5" points="20.761 64.7 21.682 69.5 21.682 71.3 23.71 74.7 29.239 86.5 30.161 88.3 30.529 88.5 26.29 80.1 24.447 74.9 22.42 70.7 19.471 61.5"><title>2023-10-30 1.0km</title><desc>10127985445</desc></polyline><polyline fill="none" stroke="#4dd2ff" stroke-linecap="round" stroke-linejoin="round" stroke-width=".5" points="50.744 65.408 51.562 70.915 52.053 72.691 55.327 80.329 56.964 84.77 59.42 88.145 60.075 88.5 60.238 87.967 58.765 85.658 56.637 81.04 52.872 74.112 51.399 68.961 50.253 66.651 50.089 63.099 49.762 61.5"><title>2023-10-28 1.0km</title><desc>10115543824</desc></polyline><polyline fill="none" stroke="#4dd2ff" stroke-linecap="round" stroke-linejoin="round" stroke-width=".5" points="81.498 67.1 82.973 71.9 84.631 75.7 86.106 81.1 88.318 86.3 89.239 88.3 90.161 88.5 90.345 88.3 89.977 87.1 88.871 84.1 85.184 76.9 82.235 68.9 80.392 64.9 79.655 61.5"><title>2023-10-27 1.0km</title><desc>10110442644</desc></polyline><polyline fill="none" stroke="#4dd2ff" stroke-linecap="round" stroke-linejoin="round" stroke-width=".5" points="111.341 65.669 114.817 77.382 116.098 80.956 117.378 83.14 118.842 87.309 119.391 88.103 120.489 88.5 120.672 87.904 120.489 87.11 118.659 84.728 115.915 79.963 112.622 70.235 110.426 66.662 109.328 61.5"><title>2023-10-26 1.0km</title><desc>10104873905</desc></polyline><polyline fill="none" stroke="#4dd2ff" stroke-linecap="round" stroke-linejoin="round" stroke-width=".5" points="143.648 74.413 147.795 84.783 149.778 88.304 150.499 88.5 150.319 86.543 145.451 78.13 142.746 71.283 140.402 66.391 139.501 61.5"><title>2023-10-25 1.0km</title><desc>10098978222</desc></polyline><polyline fill="none" stroke="#4dd2ff" stroke-linecap="round" stroke-linejoin="round" stroke-width=".5" points="170.005 61.5 169.824 62.88 170.913 67.412 172.366 70.369 173.275 73.916 174.909 78.646 178.36 85.347 179.45 88.106 179.813 88.5 180.176 88.303 179.995 85.741 177.997 81.996 176.544 79.828 174.728 75.69 174.364 73.522 172.185 70.172 170.913 67.215 170.55 63.668 170.005 61.5"><title>2023-10-24 1.0km</title><desc>10092835699</desc></polyline><polyline fill="none" stroke="#4dd2ff" stroke-linecap="round" stroke-linejoin="round" stroke-width=".5" points="22.225 96.162 24.91 105.68 26.164 108.011 27.596 113.838 29.744 117.723 30.639 118.5 29.744 117.529 28.491 114.421 25.269 110.536 24.552 109.176 23.836 104.709 21.688 100.435 20.256 95.968 19.361 91.5"><title>2023-10-23 1.0km</title><desc>10087395010</desc></polyline><polyline fill="none" stroke="#4dd2ff" stroke-linecap="round" stroke-linejoin="round" stroke-width=".5" points="46.258 91.629 46.736 91.5 50.137 91.759 51.629 92.147 51.987 92.342 52.762 92.924 53.299 93.572 54.493 95.773 55.09 98.234 55.865 99.529 56.223 100.565 57.059 102.443 57.655 104.385 58.55 105.939 58.968 106.392 59.505 107.299 59.803 109.241 59.982 109.759 60.46 110.471 60.579 111.572 60.758 112.025 63.384 118.241 63.742 118.5 63.742 118.176 63.205 117.658 62.608 116.234 62.011 115.004 60.4 110.018"><title>2023-10-22 1.5km</title><desc>10080655811</desc></polyline><polyline fill="none" stroke="#4dd2ff" stroke-linecap="round" stroke-linejoin="round" stroke-width=".5" points="80.706 91.5 81.653 92.185 79.948 91.911 82.6 95.338 82.853 96.16 82.663 96.845 81.779 97.325 81.527 97.805 81.59 98.627 82.095 100.614 82.663 102.053 83.295 104.246 84.432 106.234 84.621 106.987 85.316 108.221 85.758 108.769 85.821 109.112 86.263 109.523 86.579 110.208 87.021 111.51 87.463 112.401 87.4 114.183 88.221 115.759 88.473 116.513 88.915 117.335 89.673 118.294 90.052 118.5 88.6 116.444 88.284 115.348 87.652 113.977 87.4 113.086 86.579 111.921 85.884 109.934"><title>2023-10-20 1.4km</title><desc>10069668027</desc></polyline><polyline fill="none" stroke="#4dd2ff" stroke-linecap="round" stroke-linejoin="round" stroke-width=".5" points="109.567 91.5 109.696 92.547 110.724 95.058 110.982 96.593 113.103 101.756 113.296 102.454 113.425 103.5 113.682 104.198 115.225 106.361 116.061 108.035 116.575 109.709 117.025 110.616 117.282 112.012 117.604 112.709 118.44 114.872 118.568 115.709 119.79 118.221 120.111 118.5 120.304 118.5 120.433 118.43 120.369 118.36 119.083 116.756 118.504 114.802 117.282 112.57 117.09 111.663 116.961 110.128"><title>2023-10-19 1.3km</title><desc>10064004415</desc></polyline><polyline fill="none" stroke="#4dd2ff" stroke-linecap="round" stroke-linejoin="round" stroke-width=".5" points="138.912 91.5 141.559 94.947 141.382 97.436 141.735 99.926 142.971 104.33 144.735 107.202 146.5 112.181 150.029 117.926 150.559 118.5 151.088 118.309 148.794 116.011 144.559 107.777 143.5 104.138 140.5 97.819"><title>2023-10-18 1.0km</title><desc>10058081424</desc></polyline><polyline fill="none" stroke="#4dd2ff" stroke-linecap="round" stroke-linejoin="round" stroke-width=".5" points="170.287 93.136 171.795 101.932 175.754 112.364 178.393 117.886 179.524 118.5 180.09 118.5 180.467 117.682 179.147 116.045 177.451 113.386 175.189 108.477 174.246 105.614 170.287 97.636 169.91 96.409 169.533 91.5"><title>2023-10-17 1.0km</title><desc>10051702317</desc></polyline><polyline fill="none" stroke="#4dd2ff" stroke-linecap="round" stroke-linejoin="round" stroke-width=".5" points="18.971 122.123 20.885 125.446 23.756 132.923 25.287 135.831 27.01 141.231 29.115 146.631 29.881 148.085 30.838 148.5 31.029 148.292 30.838 147.669 28.732 144.554 25.861 137.492 23.756 133.131 22.033 125.031 21.076 121.5"><title>2023-10-16 1.0km</title><desc>10046279660</desc></polyline><polyline fill="none" stroke="#4dd2ff" stroke-linecap="round" stroke-linejoin="round" stroke-width=".5" points="49.471 121.5 50.26 123.214 51.05 127.071 52.828 133.071 55.197 136.714 57.962 147 58.95 148.071 60.332 148.5 60.529 148.071 60.332 146.786 57.765 143.143 56.382 138.857 54.803 136.286 51.05 127.5 49.668 121.5"><title>2023-10-15 1.0km</title><desc>10039610121</desc></polyline><polyline fill="none" stroke="#4dd2ff" stroke-linecap="round" stroke-linejoin="round" stroke-width=".5" points="79.381 123.46 79.983 129.774 81.589 134.347 83.595 137.177 84.799 141.097 88.211 147.194 89.013 148.065 90.017 148.5 90.619 148.065 90.619 147.411 86.605 144.145 83.997 139.355 82.993 135.218 80.585 129.774 79.381 125.202 79.582 122.371 79.381 121.5"><title>2023-10-14 1.0km</title><desc>10033377496</desc></polyline><polyline fill="none" stroke="#4dd2ff" stroke-linecap="round" stroke-linejoin="round" stroke-width=".5" points="108.878 121.929 112.433 126.214 112.828 129.429 116.185 139.714 119.345 147.214 120.332 148.5 121.122 148.5 121.122 147.857 120.924 147.214 119.147 145.929 117.172 142.286 115 135.429 111.05 126.643 110.458 123.643 109.471 121.5"><title>2023-10-13 1.0km</title><desc>10028006924</desc></polyline><polyline fill="none" stroke="#4dd2ff" stroke-linecap="round" stroke-linejoin="round" stroke-width=".5" points="139.207 121.5 141.106 123.973 142.246 126.034 142.436 128.714 142.246 131.599 144.335 135.928 146.804 142.523 149.274 147.057 149.844 147.882 150.793 148.5 150.793 147.469 148.704 144.79 146.804 141.492 144.335 134.691 142.816 132.011 142.056 129.744"><title>2023-10-12 1.0km</title><desc>10021974100</desc></polyline><polyline fill="none" stroke="#4dd2ff" stroke-linecap="round" stroke-linejoin="round" stroke-width=".5" points="171.843 125.328 172.586 129.358 172.4 130.97 174.072 136.41 175.371 138.828 176.671 143.261 178.528 147.694 178.9 148.097 179.828 148.5 179.642 147.694 177.6 142.455 175.371 138.627 172.4 131.776 171.658 129.157 171.286 125.328 170.172 121.5"><title>2023-10-10 1.0km</title><desc>10009069592</desc></polyline><polyline fill="none" stroke="#4dd2ff" stroke-linecap="round" stroke-linejoin="round" stroke-width=".5" points="20.426 154.875 21.707 158.449 22.987 163.213 25.732 169.169 27.927 176.713 29.208 178.5 29.574 177.904 29.757 175.721 28.476 171.949 25.732 167.184 22.622 158.449 21.707 154.478 20.243 151.5"><title>2023-10-09 1.0km</title><desc>10003389142</desc></polyline><polyline fill="none" stroke="#4dd2ff" stroke-linecap="round" stroke-linejoin="round" stroke-width=".5" points="49.503 151.5 50.853 153.174 52.203 156.314 52.975 162.593 55.868 168.872 58.376 175.988 59.533 178.081 60.497 178.5 60.497 176.826 56.832 170.965 52.01 159.244 50.081 151.709"><title>2023-10-08 1.0km</title><desc>9996447828</desc></polyline><polyline fill="none" stroke="#4dd2ff" stroke-linecap="round" stroke-linejoin="round" stroke-width=".5" points="81.534 156.9 82.423 160.179 85.089 167.314 85.978 170.4 88.821 177.536 89.71 178.5 89.888 177.729 89.888 176.957 86.511 170.979 84.911 167.507 82.067 159.021 81.179 154.586 80.112 151.5"><title>2023-10-07 1.0km</title><desc>9989974159</desc></polyline><polyline fill="none" stroke="#4dd2ff" stroke-linecap="round" stroke-linejoin="round" stroke-width=".5" points="112.794 159.543 114.206 164.138 115.265 166.436 117.382 175.436 117.912 177.16 118.971 178.5 119.853 178.5 120.206 177.734 120.029 177.16 117.912 174.096 115.794 169.5 115.088 166.436 111.382 157.436 110.853 154.181 109.794 151.5"><title>2023-10-06 1.0km</title><desc>9984428862</desc></polyline><polyline fill="none" stroke="#4dd2ff" stroke-linecap="round" stroke-linejoin="round" stroke-width=".5" points="139.187 151.5 142.247 159.689 144.286 166.549 147.753 175.18 149.181 178.057 149.793 178.5 150.609 178.5 150.813 178.057 150.201 176.951 147.753 173.41 146.326 170.533 143.878 164.115 142.858 160.795 140.003 155.484 140.003 153.492"><title>2023-10-04 1.0km</title><desc>9971682885</desc></polyline><polyline fill="none" stroke="#4dd2ff" stroke-linecap="round" stroke-linejoin="round" stroke-width=".5" points="170.913 154.653 171.822 157.807 172.73 159.974 173.456 163.325 176.907 170.223 177.089 172.588 178.178 177.318 178.542 177.909 179.631 178.5 179.631 176.529 177.27 172.193 175.636 168.449 174.728 166.675 173.819 164.113 172.003 160.369 171.277 157.412 170.913 154.456 170.369 151.5"><title>2023-10-03 1.0km</title><desc>9965060084</desc></polyline><polyline fill="none" stroke="#4dd2ff" stroke-linecap="round" stroke-linejoin="round" stroke-width=".5" points="20.065 182.616 22.532 190.649 22.944 194.219 24.383 196.004 25.411 198.682 27.262 205.599 28.702 207.831 29.73 208.5 29.935 208.277 29.318 206.492 27.056 202.252 23.355 193.326 21.093 186.632 20.682 181.5"><title>2023-10-02 1.0km</title><desc>9958643020</desc></polyline><polyline fill="none" stroke="#4dd2ff" stroke-linecap="round" stroke-linejoin="round" stroke-width=".5" points="50.72 186.252 51.118 188.196 55.498 198.564 57.687 205.26 58.882 207.636 60.076 208.5 60.275 208.284 60.076 207.42 56.095 201.372 52.313 192.084 50.521 186.468 49.725 181.5"><title>2023-10-01 1.0km</title><desc>9952075403</desc></polyline><polyline fill="none" stroke="#4dd2ff" stroke-linecap="round" stroke-linejoin="round" stroke-width=".5" points="81.123 185.413 82.746 188.739 83.467 192.065 84.008 195.196 86.713 202.826 89.057 207.717 90.139 208.5 90.499 207.913 86.893 202.435 85.27 198.717 84.73 196.761 82.205 191.283 80.763 185.217 79.501 181.5"><title>2023-09-30 1.0km</title><desc>9945549317</desc></polyline><polyline fill="none" stroke="#4dd2ff" stroke-linecap="round" stroke-linejoin="round" stroke-width=".5" points="110.82 181.5 112.611 184.524 113.208 186.9 114.801 190.788 115.597 196.62 116.194 198.348 118.583 204.18 119.18 207.852 119.578 208.284 120.176 208.5 120.375 208.068 116.792 201.588 114.403 195.972 113.607 192.732 110.82 186.252 109.625 182.364"><title>2023-09-28 1.0km</title><desc>9933629332</desc></polyline><polyline fill="none" stroke="#4dd2ff" stroke-linecap="round" stroke-linejoin="round" stroke-width=".5" points="139.722 184.568 141.23 189.886 144.057 193.773 145.943 200.727 148.582 205.432 149.336 208.091 150.09 208.5 150.467 207.886 150.09 207.068 148.582 205.023 144.246 196.227 141.984 190.091 139.533 181.5"><title>2023-09-27 1.0km</title><desc>9927137811</desc></polyline><polyline fill="none" stroke="#4dd2ff" stroke-linecap="round" stroke-linejoin="round" stroke-width=".5" points="177.243 181.5 176.705 184.096 176.166 185.589 175.748 187.406 173.295 192.534 172.039 194.676 171.8 195.584 171.92 196.298 172.219 197.337 173.116 199.543 173.415 200.127 173.774 201.166 174.97 202.659 175.508 203.827 176.107 204.736 176.585 206.034 177.303 207.007 178.2 208.5"><title>2023-09-26 1.0km</title><desc>9920397094</desc></polyline><polyline fill="none" stroke="#4dd2ff" stroke-linecap="round" stroke-linejoin="round" stroke-width=".5" points="24.874 211.5 23.697 215.422 22.52 217.52 21.427 218.889 20.839 219.983 20.587 221.078 20.671 222.446 21.091 223.541 22.1 225.091 22.52 226.642 23.361 228.649 24.958 230.655 27.648 236.128 29.413 238.5"><title>2023-09-25 1.0km</title><desc>9914573673</desc></polyline><polyline fill="none" stroke="#4dd2ff" stroke-linecap="round" stroke-linejoin="round" stroke-width=".5" points="56.991 211.5 56.327 212.508 56.194 213.012 56.327 213.66 56.393 214.308 55.066 216.756 54.735 218.412 54.27 219.636 51.483 224.532 51.417 225.108 51.682 226.26 52.412 227.412 52.81 228.42 53.408 229.428 53.739 230.436 54.602 231.804 55.265 233.172 55.995 233.964 56.194 234.684 56.659 235.26 57.654 236.988 58.384 237.78 58.583 238.5"><title>2023-09-24 1.0km</title><desc>9907510217</desc></polyline><polyline fill="none" stroke="#4dd2ff" stroke-linecap="round" stroke-linejoin="round" stroke-width=".5" points="86.007 211.5 85.443 212.374 85.04 213.248 84.799 214.384 84.718 215.869 83.349 217.704 82.544 219.801 81.819 220.85 81.336 222.248 81.256 223.733 82.947 228.015 83.591 229.325 85.684 232.646 86.57 234.83 87.698 236.228 88.342 237.364 88.744 238.5"><title>2023-09-23 1.0km</title><desc>9901004991</desc></polyline><polyline fill="none" stroke="#4dd2ff" stroke-linecap="round" stroke-linejoin="round" stroke-width=".5" points="116.037 211.5 115.499 212.5 114.962 214.25 113.733 216.833 112.504 218.583 111.429 221.5 111.352 223.083 111.506 224 113.042 227.667 113.272 228.75 113.579 229.333 114.654 230.667 115.499 232.333 116.19 234.083 117.342 235.75 118.648 238.5"><title>2023-09-22 1.0km</title><desc>9895405405</desc></polyline><polyline fill="none" stroke="#4dd2ff" stroke-linecap="round" stroke-linejoin="round" stroke-width=".5" points="146.431 211.5 146.211 212.296 145.771 212.774 144.817 214.527 144.45 215.801 143.349 218.589 142.174 220.978 141.44 222.73 141.22 223.606 141.22 224.164 141.44 224.96 141.881 225.757 142.835 228.226 143.789 229.978 144.303 231.252 145.257 232.845 145.844 233.562 146.284 234.836 147.459 236.907 148.78 238.5"><title>2023-09-21 1.0km</title><desc>9889267953</desc></polyline><polyline fill="none" stroke="#4dd2ff" stroke-linecap="round" stroke-linejoin="round" stroke-width=".5" points="177.749 211.5 176.785 214.391 176.219 216.666 175.312 218.573 174.235 221.771 172.364 225.277 171.854 227.183 171.911 227.614 172.251 228.537 172.988 230.136 173.441 231.489 174.575 233.088 175.255 234.379 175.652 235.302 176.105 236.101 176.842 236.655 177.749 238.008 177.806 238.254 178.146 238.5"><title>2023-09-20 1.0km</title><desc>9882714971</desc></polyline><polyline fill="none" stroke="#4dd2ff" stroke-linecap="round" stroke-linejoin="round" stroke-width=".5" points="27.239 241.5 26.663 242.958 25.576 246.15 25.512 247.192 25.128 247.747 24.68 248.788 24.424 249.76 23.913 251.078 22.441 253.438 22.058 254.827 21.93 256.076 22.058 257.325 22.441 258.713 22.889 259.685 24.296 262.114 25 263.086 25.64 264.821 26.279 265.932 26.919 266.834 27.623 267.528 28.07 268.5"><title>2023-09-19 1.0km</title><desc>9876194288</desc></polyline><polyline fill="none" stroke="#4dd2ff" stroke-linecap="round" stroke-linejoin="round" stroke-width=".5" points="54.801 241.5 54.324 242.276 53.529 243.829 53.291 244.864 51.86 247.366 50.747 249.695 50.508 250.558 50.588 251.506 51.065 252.714 51.78 254.008 52.416 255.82 53.291 257.717 54.245 259.443 55.119 260.564 56.153 262.289 56.789 264.273 57.902 265.998 58.458 267.551 59.492 268.5"><title>2023-09-18 1.0km</title><desc>9870505463</desc></polyline><polyline fill="none" stroke="#4dd2ff" stroke-linecap="round" stroke-linejoin="round" stroke-width=".5" points="85.271 241.5 84.884 242.257 84.341 244.78 83.643 245.958 83.333 246.883 81.628 249.659 81.008 251.173 80.62 252.519 80.93 253.444 82.636 257.145 83.488 258.491 84.109 259.921 85.116 261.266 85.659 262.192 86.357 264.379 89.38 268.5"><title>2023-09-16 1.0km</title><desc>9856514700</desc></polyline><polyline fill="none" stroke="#4dd2ff" stroke-linecap="round" stroke-linejoin="round" stroke-width=".5" points="114.627 241.5 113.797 244.02 112.719 245.73 110.48 250.05 110.397 251.04 110.48 252.21 110.977 253.38 111.807 254.64 112.553 256.35 113.88 258.6 115.539 261.75 115.705 262.92 116.286 263.37 116.949 264.27 118.027 266.07 119.189 267.06 119.437 267.69 119.603 268.5"><title>2023-09-15 1.0km</title><desc>9850671982</desc></polyline><polyline fill="none" stroke="#4dd2ff" stroke-linecap="round" stroke-linejoin="round" stroke-width=".5" points="145.686 241.5 144.314 245.131 142.769 247.366 142.083 248.576 141.053 251.183 140.796 252.114 140.796 252.859 141.053 253.79 142.083 256.583 143.027 258.445 145.343 262.448 146.287 264.217 146.459 265.241 147.145 265.893 148.26 267.662 149.204 268.5"><title>2023-09-14 1.0km</title><desc>9844236351</desc></polyline><polyline fill="none" stroke="#4dd2ff" stroke-linecap="round" stroke-linejoin="round" stroke-width=".5" points="170.709 241.5 171.203 241.902 171.388 242.304 171.512 243.175 171.882 243.912 172.129 245.989 172.129 246.994 172.005 247.53 172.129 248.2 172.438 249.004 172.314 249.674 172.376 250.009 172.993 251.148 173.549 252.823 174.043 253.761 174.66 254.632 175.34 255.235 175.525 255.637 175.71 256.508 176.204 257.379 176.76 258.986 177.501 260.393 177.871 261.599 178.056 262.604 178.427 263.408 179.106 265.619 180.032 267.361 180.094 267.629 180.032 267.83 179.291 268.5 179.662 268.232 179.847 267.83 179.97 267.495 179.909 267.026 179.538 266.557 178.427 264.145 177.871 262.336 176.698 259.723 176.142 257.178 175.834 256.441 174.66 254.9 173.487 252.689 172.932 250.88 172.746 249.674 172.252 248.401 171.265 246.257 171.018 245.252 170.153 243.644 169.968 242.773 169.906 241.701"><title>2023-09-13 1.0km</title><desc>9837636972</desc></polyline></svg>