<svg xmlns="http://www.w3.org/2000/svg" xmlns:ev="http://www.w3.org/2001/xml-events" xmlns:xlink="http://www.w3.org/1999/xlink" width="200mm" height="300mm" baseProfile="full" version="1.1" viewBox="0 0 200 300"><rect width="200" height="300" x="0" y="0" fill="#222"/><text fill="#FFF" style="font-size:12px;font-family:Arial;font-weight:700" x="10" y="20">Over 1km Runs</text><text fill="#FFF" style="font-size:4px;font-family:Arial" x="10" y="280">ATHLETE</text><text fill="#FFF" style="font-size:9px;font-family:Arial" x="10" y="290">Jiakai</text><text fill="#FFF" style="font-size:4px;font-family:Arial" x="120" y="280">STATISTICS</text><text fill="#FFF" style="font-size:3px;font-family:Arial" x="120" y="285">Number: 22</text><text fill="#FFF" style="font-size:3px;font-family:Arial" x="120" y="290">Weekly: 5.5</text><text fill="#FFF" style="font-size:3px;font-family:Arial" x="141" y="285">Total: 22.3 km</text><text fill="#FFF" style="font-size:3px;font-family:Arial" x="141" y="290">Avg: 1.0 km</text><text fill="#FFF" style="font-size:3px;font-family:Arial" x="167" y="285">Min: 1.0 km</text><text fill="#FFF" style="font-size:3px;font-family:Arial" x="167" y="290">Max: 1.0 km</text><polyline fill="none" stroke="#4dd2ff" stroke-linecap="round" stroke-linejoin="round" stroke-width=".5" points="25.379 39.2 26.564 43.571 30.118 53.086 31.303 57.2 35.095 66.714 36.28 68 36.517 66.971 36.517 65.943 32.014 57.971 29.882 53.343 26.09 42.029 24.905 36.114 23.483 32"><title>2023-10-07 1.0km</title><desc>9989974159</desc></polyline><polyline fill="none" stroke="#4dd2ff" stroke-linecap="round" stroke-linejoin="round" stroke-width=".5" points="73.725 42.723 75.608 48.851 77.02 51.915 79.843 63.915 80.549 66.213 81.961 68 83.137 68 83.608 66.979 83.373 66.213 80.549 62.128 77.725 56 76.784 51.915 71.843 39.915 71.137 35.574 69.725 32"><title>2023-10-06 1.0km</title><desc>9984428862</desc></polyline><polyline fill="none" stroke="#4dd2ff" stroke-linecap="round" stroke-linejoin="round" stroke-width=".5" points="115.583 32 119.662 42.918 122.382 52.066 127.005 63.574 128.908 67.41 129.724 68 130.812 68 131.084 67.41 130.268 65.934 127.005 61.213 125.101 57.377 121.838 48.82 120.478 44.393 116.671 37.311 116.671 34.656"><title>2023-10-04 1.0km</title><desc>9971682885</desc></polyline><polyline fill="none" stroke="#4dd2ff" stroke-linecap="round" stroke-linejoin="round" stroke-width=".5" points="164.551 36.204 165.762 40.409 166.973 43.299 167.942 47.766 172.543 56.964 172.785 60.117 174.238 66.423 174.722 67.212 176.175 68 176.175 65.372 173.027 59.591 170.848 54.599 169.637 52.234 168.426 48.818 166.004 43.825 165.036 39.883 164.551 35.942 163.825 32"><title>2023-10-03 1.0km</title><desc>9965060084</desc></polyline><polyline fill="none" stroke="#4dd2ff" stroke-linecap="round" stroke-linejoin="round" stroke-width=".5" points="23.419 73.488 26.71 84.198 27.258 88.959 29.177 91.339 30.548 94.909 33.016 104.132 34.935 107.107 36.306 108 36.581 107.702 35.758 105.322 32.742 99.669 27.806 87.769 24.79 78.843 24.242 72"><title>2023-10-02 1.0km</title><desc>9958643020</desc></polyline><polyline fill="none" stroke="#4dd2ff" stroke-linecap="round" stroke-linejoin="round" stroke-width=".5" points="70.96 78.336 71.491 80.928 77.33 94.752 80.25 103.68 81.842 106.848 83.435 108 83.7 107.712 83.435 106.56 78.126 98.496 73.084 86.112 70.695 78.624 69.633 72"><title>2023-10-01 1.0km</title><desc>9952075403</desc></polyline><polyline fill="none" stroke="#4dd2ff" stroke-linecap="round" stroke-linejoin="round" stroke-width=".5" points="118.164 77.217 120.328 81.652 121.29 86.087 122.011 90.261 125.617 100.435 128.743 106.957 130.185 108 130.666 107.217 125.858 99.913 123.694 94.957 122.973 92.348 119.607 85.044 117.684 76.957 116.001 72"><title>2023-09-30 1.0km</title><desc>9945549317</desc></polyline><polyline fill="none" stroke="#4dd2ff" stroke-linecap="round" stroke-linejoin="round" stroke-width=".5" points="164.426 72 166.815 76.032 167.611 79.2 169.735 84.384 170.796 92.16 171.592 94.464 174.777 102.24 175.574 107.136 176.105 107.712 176.901 108 177.166 107.424 172.389 98.784 169.204 91.296 168.142 86.976 164.426 78.336 162.834 73.152"><title>2023-09-28 1.0km</title><desc>9933629332</desc></polyline><polyline fill="none" stroke="#4dd2ff" stroke-linecap="round" stroke-linejoin="round" stroke-width=".5" points="22.962 116.091 24.973 123.182 28.743 128.364 31.257 137.636 34.775 143.909 35.781 147.455 36.786 148 37.289 147.182 36.786 146.091 34.775 143.364 28.995 131.636 25.979 123.455 22.711 112"><title>2023-09-27 1.0km</title><desc>9927137811</desc></polyline><polyline fill="none" stroke="#4dd2ff" stroke-linecap="round" stroke-linejoin="round" stroke-width=".5" points="79.657 112 78.94 115.462 78.222 117.452 77.664 119.875 74.394 126.712 72.719 129.567 72.4 130.779 72.56 131.731 72.958 133.116 74.155 136.058 74.553 136.837 75.032 138.221 76.627 140.212 77.345 141.769 78.142 142.981 78.78 144.712 79.737 146.01 80.933 148"><title>2023-09-26 1.0km</title><desc>9920397094</desc></polyline><polyline fill="none" stroke="#4dd2ff" stroke-linecap="round" stroke-linejoin="round" stroke-width=".5" points="123.165 112 121.596 117.23 120.027 120.027 118.57 121.851 117.785 123.311 117.449 124.77 117.561 126.595 118.122 128.054 119.466 130.122 120.027 132.189 121.148 134.865 123.277 137.541 126.864 144.838 129.218 148"><title>2023-09-25 1.0km</title><desc>9914573673</desc></polyline><polyline fill="none" stroke="#4dd2ff" stroke-linecap="round" stroke-linejoin="round" stroke-width=".5" points="172.654 112 171.769 113.344 171.592 114.016 171.769 114.88 171.858 115.744 170.088 119.008 169.646 121.216 169.027 122.848 165.311 129.376 165.223 130.144 165.577 131.68 166.55 133.216 167.08 134.56 167.877 135.904 168.319 137.248 169.469 139.072 170.354 140.896 171.327 141.952 171.592 142.912 172.212 143.68 173.539 145.984 174.512 147.04 174.777 148"><title>2023-09-24 1.0km</title><desc>9907510217</desc></polyline><polyline fill="none" stroke="#4dd2ff" stroke-linecap="round" stroke-linejoin="round" stroke-width=".5" points="31.342 152 30.591 153.165 30.054 154.33 29.732 155.845 29.624 157.825 27.799 160.272 26.725 163.068 25.759 164.466 25.115 166.33 25.007 168.311 27.262 174.02 28.121 175.767 30.913 180.194 32.094 183.107 33.597 184.971 34.456 186.485 34.993 188"><title>2023-09-23 1.0km</title><desc>9901004991</desc></polyline><polyline fill="none" stroke="#4dd2ff" stroke-linecap="round" stroke-linejoin="round" stroke-width=".5" points="78.049 152 77.332 153.333 76.615 155.667 74.977 159.111 73.339 161.445 71.905 165.333 71.803 167.445 72.008 168.667 74.056 173.556 74.363 175 74.772 175.778 76.206 177.556 77.332 179.778 78.254 182.111 79.79 184.333 81.53 188"><title>2023-09-22 1.0km</title><desc>9895405405</desc></polyline><polyline fill="none" stroke="#4dd2ff" stroke-linecap="round" stroke-linejoin="round" stroke-width=".5" points="125.242 152 124.948 153.062 124.361 153.699 123.089 156.035 122.599 157.735 121.131 161.451 119.566 164.637 118.587 166.974 118.293 168.142 118.293 168.885 118.587 169.947 119.174 171.009 120.446 174.301 121.719 176.637 122.404 178.336 123.676 180.46 124.459 181.416 125.046 183.115 126.612 185.876 128.373 188"><title>2023-09-21 1.0km</title><desc>9889267953</desc></polyline><polyline fill="none" stroke="#4dd2ff" stroke-linecap="round" stroke-linejoin="round" stroke-width=".5" points="173.665 152 172.381 155.854 171.625 158.888 170.416 161.431 168.98 165.695 166.486 170.369 165.806 172.911 165.881 173.485 166.335 174.715 167.317 176.848 167.922 178.652 169.433 180.784 170.34 182.506 170.869 183.736 171.474 184.802 172.456 185.54 173.665 187.344 173.741 187.672 174.194 188"><title>2023-09-20 1.0km</title><desc>9882714971</desc></polyline><polyline fill="none" stroke="#4dd2ff" stroke-linecap="round" stroke-linejoin="round" stroke-width=".5" points="32.985 192 32.217 193.943 30.768 198.201 30.682 199.589 30.171 200.329 29.574 201.717 29.232 203.013 28.55 204.771 26.589 207.918 26.077 209.769 25.906 211.435 26.077 213.1 26.589 214.951 27.186 216.247 29.062 219.486 30 220.782 30.853 223.095 31.706 224.576 32.559 225.779 33.497 226.704 34.094 228"><title>2023-09-19 1.0km</title><desc>9876194288</desc></polyline><polyline fill="none" stroke="#4dd2ff" stroke-linecap="round" stroke-linejoin="round" stroke-width=".5" points="76.402 192 75.766 193.035 74.706 195.105 74.388 196.486 72.48 199.821 70.996 202.927 70.678 204.077 70.784 205.342 71.42 206.952 72.374 208.677 73.222 211.093 74.388 213.623 75.66 215.923 76.826 217.419 78.204 219.719 79.052 222.364 80.535 224.665 81.277 226.735 82.655 228"><title>2023-09-18 1.0km</title><desc>9870505463</desc></polyline><polyline fill="none" stroke="#4dd2ff" stroke-linecap="round" stroke-linejoin="round" stroke-width=".5" points="123.695 192 123.178 193.009 122.455 196.374 121.525 197.944 121.111 199.178 118.837 202.879 118.011 204.897 117.494 206.692 117.907 207.925 120.181 212.86 121.318 214.654 122.145 216.561 123.488 218.355 124.212 219.589 125.142 222.505 129.173 228"><title>2023-09-16 1.0km</title><desc>9856514700</desc></polyline><polyline fill="none" stroke="#4dd2ff" stroke-linecap="round" stroke-linejoin="round" stroke-width=".5" points="169.502 192 168.396 195.36 166.959 197.64 163.973 203.4 163.862 204.72 163.973 206.28 164.636 207.84 165.742 209.52 166.738 211.8 168.507 214.8 170.719 219 170.94 220.56 171.714 221.16 172.599 222.36 174.036 224.76 175.585 226.08 175.916 226.92 176.138 228"><title>2023-09-15 1.0km</title><desc>9850671982</desc></polyline><polyline fill="none" stroke="#4dd2ff" stroke-linecap="round" stroke-linejoin="round" stroke-width=".5" points="30.915 232 29.085 236.841 27.026 239.821 26.11 241.435 24.738 244.91 24.394 246.152 24.394 247.145 24.738 248.386 26.11 252.11 27.369 254.593 30.458 259.931 31.716 262.29 31.945 263.655 32.86 264.524 34.347 266.883 35.606 268"><title>2023-09-14 1.0km</title><desc>9844236351</desc></polyline><polyline fill="none" stroke="#4dd2ff" stroke-linecap="round" stroke-linejoin="round" stroke-width=".5" points="70.945 232 71.604 232.536 71.851 233.072 72.015 234.233 72.509 235.216 72.839 237.985 72.839 239.325 72.674 240.04 72.839 240.933 73.25 242.005 73.086 242.898 73.168 243.345 73.991 244.864 74.732 247.097 75.391 248.348 76.214 249.509 77.119 250.313 77.366 250.849 77.613 252.01 78.272 253.171 79.013 255.315 80.001 257.191 80.495 258.799 80.742 260.139 81.236 261.211 82.141 264.159 83.376 266.481 83.458 266.839 83.376 267.107 82.388 268 82.882 267.643 83.129 267.107 83.294 266.66 83.211 266.035 82.717 265.409 81.236 262.194 80.495 259.782 78.931 256.298 78.19 252.903 77.778 251.921 76.214 249.866 74.65 246.918 73.909 244.506 73.662 242.898 73.003 241.201 71.686 238.343 71.357 237.003 70.204 234.859 69.957 233.697 69.875 232.268"><title>2023-09-13 1.0km</title><desc>9837636972</desc></polyline></svg>