<svg xmlns="http://www.w3.org/2000/svg" xmlns:ev="http://www.w3.org/2001/xml-events" xmlns:xlink="http://www.w3.org/1999/xlink" width="200mm" height="300mm" baseProfile="full" version="1.1" viewBox="0 0 200 300"><rect width="200" height="300" x="0" y="0" fill="#222"/><text fill="#FFF" style="font-size:12px;font-family:Arial;font-weight:700" x="10" y="20">Over 1km Runs</text><text fill="#FFF" style="font-size:4px;font-family:Arial" x="10" y="280">ATHLETE</text><text fill="#FFF" style="font-size:9px;font-family:Arial" x="10" y="290">Jiakai</text><text fill="#FFF" style="font-size:4px;font-family:Arial" x="120" y="280">STATISTICS</text><text fill="#FFF" style="font-size:3px;font-family:Arial" x="120" y="285">Number: 86</text><text fill="#FFF" style="font-size:3px;font-family:Arial" x="120" y="290">Weekly: 6.1</text><text fill="#FFF" style="font-size:3px;font-family:Arial" x="141" y="285">Total: 88.7 km</text><text fill="#FFF" style="font-size:3px;font-family:Arial" x="141" y="290">Avg: 1.0 km</text><text fill="#FFF" style="font-size:3px;font-family:Arial" x="167" y="285">Min: 1.0 km</text><text fill="#FFF" style="font-size:3px;font-family:Arial" x="167" y="290">Max: 1.5 km</text><polyline fill="none" stroke="#4dd2ff" stroke-linecap="round" stroke-linejoin="round" stroke-width=".5" points="17.208 33.62 19.401 37.934 20.498 42.397 22.006 45.223 23.788 49.835 24.336 50.727 24.611 50.579 23.651 47.752 22.28 45.669 17.893 35.256 17.619 32.43 17.208 31.091"><title>2023-12-17 1.0km</title><desc>10391591057</desc></polyline><polyline fill="none" stroke="#4dd2ff" stroke-linecap="round" stroke-linejoin="round" stroke-width=".5" points="40.321 34.548 41.85 38.558 44.399 43.537 46.692 50.174 47.202 50.727 47.33 50.589 47.33 50.036 46.692 48.238 43.252 41.462 41.722 37.314 40.575 32.612 39.683 31.091"><title>2023-12-16 1.0km</title><desc>10386207035</desc></polyline><polyline fill="none" stroke="#4dd2ff" stroke-linecap="round" stroke-linejoin="round" stroke-width=".5" points="63.451 34.782 63.995 37.292 65.9 43.05 66.988 44.822 68.485 49.694 68.893 50.727 69.165 50.727 69.165 49.251 67.124 43.05 64.267 38.621 64.131 36.849 63.315 34.782 63.587 33.453 63.042 31.091"><title>2023-12-14 1.0km</title><desc>10376526598</desc></polyline><polyline fill="none" stroke="#4dd2ff" stroke-linecap="round" stroke-linejoin="round" stroke-width=".5" points="92.916 32.798 91.905 31.945 90.219 31.213 88.645 31.091 87.072 31.457 85.049 32.554 84.149 33.774 83.475 35.848 83.475 40.482 83.7 41.946 84.149 43.775 83.812 45.971 83.925 46.824 84.037 47.312 85.161 49.264 86.959 50.605 87.521 50.727 88.645 50.727 89.769 50.727 91.792 49.995 92.916 48.898 93.59 47.678 93.815 44.995 93.928 43.165 93.59 40.97 93.815 38.043 93.703 35.482 93.59 34.628 92.804 32.92 92.466 32.554 91.23 31.701 88.757 31.457 87.184 31.701 86.285 32.067 84.599 33.896 83.925 36.457 84.149 38.165"><title>2023-12-13 1.0km</title><desc>10373769329</desc></polyline><polyline fill="none" stroke="#4dd2ff" stroke-linecap="round" stroke-linejoin="round" stroke-width=".5" points="108.935 33.875 110.286 39.444 111.636 42.375 114.337 49.995 114.877 50.727 115.148 50.727 115.283 50.141 114.742 49.262 112.582 45.598 109.476 39.297 109.07 37.392 107.585 34.168 107.315 31.091"><title>2023-12-12 1.0km</title><desc>10365882163</desc></polyline><polyline fill="none" stroke="#4dd2ff" stroke-linecap="round" stroke-linejoin="round" stroke-width=".5" points="130.073 31.091 131.475 34.133 133.386 38.973 134.788 41.601 136.827 47.962 137.082 49.621 137.592 50.727 137.719 49.759 137.464 48.653 134.788 42.569 132.877 38.835 132.367 37.314 131.985 34.133 130.965 31.229"><title>2023-12-11 1.0km</title><desc>10361067591</desc></polyline><polyline fill="none" stroke="#4dd2ff" stroke-linecap="round" stroke-linejoin="round" stroke-width=".5" points="156.887 42.047 159.51 50.016 159.641 50.443 160.165 50.727 160.296 50.585 159.903 49.589 158.723 47.312 157.411 43.755 153.74 36.356 152.691 31.091"><title>2023-12-10 1.0km</title><desc>10355395415</desc></polyline><polyline fill="none" stroke="#4dd2ff" stroke-linecap="round" stroke-linejoin="round" stroke-width=".5" points="175.631 32.39 177.893 36 178.958 40.476 181.22 46.829 182.018 50.294 182.551 50.727 182.684 50.583 182.684 50.294 182.417 49.139 179.623 43.508 178.958 41.92 178.559 39.465 177.893 37.588 176.829 35.711 176.696 33.69 175.498 31.091"><title>2023-12-09 1.0km</title><desc>10350143310</desc></polyline><polyline fill="none" stroke="#4dd2ff" stroke-linecap="round" stroke-linejoin="round" stroke-width=".5" points="18.816 56.719 19.626 59.65 21.382 63.9 23.813 70.934 24.893 72.545 24.758 71.08 23.948 68.589 21.787 64.779 20.436 61.555 18.951 59.21 18.546 56.866 16.925 52.909"><title>2023-12-08 1.0km</title><desc>10345303898</desc></polyline><polyline fill="none" stroke="#4dd2ff" stroke-linecap="round" stroke-linejoin="round" stroke-width=".5" points="40.343 52.909 40.596 53.596 41.102 55.381 41.355 57.853 41.861 59.912 43.633 64.306 44.772 68.289 45.911 70.76 46.164 72.545 46.417 72.408 46.67 72.134 46.67 71.722 46.037 70.074 44.013 66.641 41.608 59.638 40.976 56.754"><title>2023-12-07 1.0km</title><desc>10340288256</desc></polyline><polyline fill="none" stroke="#4dd2ff" stroke-linecap="round" stroke-linejoin="round" stroke-width=".5" points="62.459 52.909 63.24 54.746 64.672 60.82 66.755 64.634 68.447 69.296 69.228 72.263 69.619 72.545 69.749 71.557 69.489 70.285 67.406 65.906 65.974 63.787 65.193 62.233 62.589 53.333"><title>2023-12-06 1.0km</title><desc>10334845031</desc></polyline><polyline fill="none" stroke="#4dd2ff" stroke-linecap="round" stroke-linejoin="round" stroke-width=".5" points="86.892 56.295 87.765 60.764 88.639 64.014 90.761 69.566 91.884 72.139 92.258 72.545 91.759 70.108 90.511 67.806 89.388 64.556 87.765 61.17 87.016 58.597 85.768 55.888 85.144 52.909"><title>2023-12-05 1.0km</title><desc>10329306344</desc></polyline><polyline fill="none" stroke="#4dd2ff" stroke-linecap="round" stroke-linejoin="round" stroke-width=".5" points="107.692 54.557 108.578 55.93 109.717 59.912 111.995 65.542 113.134 69.387 114.146 71.584 114.905 72.545 114.905 71.859 111.615 64.306 110.35 60.05 108.958 56.891 107.945 52.909"><title>2023-12-04 1.0km</title><desc>10324662812</desc></polyline><polyline fill="none" stroke="#4dd2ff" stroke-linecap="round" stroke-linejoin="round" stroke-width=".5" points="130.486 54.722 131.878 60.008 134.105 64.993 135.636 70.28 136.75 72.394 137.585 72.545 137.585 71.941 136.611 70.28 135.358 66.655 133.966 64.54 132.991 61.972 131.321 55.93 130.207 52.909"><title>2023-12-02 1.0km</title><desc>10313350310</desc></polyline><polyline fill="none" stroke="#4dd2ff" stroke-linecap="round" stroke-linejoin="round" stroke-width=".5" points="152.929 53.95 154.3 55.736 155.945 61.388 157.042 66 158.824 71.058 159.921 72.545 160.058 71.653 159.784 69.868 158.276 66.595 155.945 62.876 154.574 60.05 153.203 52.909"><title>2023-12-01 1.0km</title><desc>10308709030</desc></polyline><polyline fill="none" stroke="#4dd2ff" stroke-linecap="round" stroke-linejoin="round" stroke-width=".5" points="175.472 52.909 178.186 62.236 180.901 67.8 182.409 71.891 182.861 72.545 183.012 72.055 182.409 70.418 180.147 67.309 179.543 65.673 177.281 61.255 176.226 56.182 175.17 53.236"><title>2023-11-30 1.0km</title><desc>10303537703</desc></polyline><polyline fill="none" stroke="#4dd2ff" stroke-linecap="round" stroke-linejoin="round" stroke-width=".5" points="18.663 78.925 19.536 81.769 19.911 84.071 21.283 86.78 22.781 90.843 24.279 94.093 24.528 94.364 24.778 94.093 24.528 93.145 23.53 91.384 22.157 87.593 20.16 83.53 19.411 79.196 17.914 76.894 17.04 74.727"><title>2023-11-29 1.0km</title><desc>10298007687</desc></polyline><polyline fill="none" stroke="#4dd2ff" stroke-linecap="round" stroke-linejoin="round" stroke-width=".5" points="40.122 77.27 41.554 80.943 41.814 83.627 43.637 88.007 44.678 91.962 45.59 93.799 46.501 94.364 46.891 94.364 47.152 93.94 47.022 93.375 46.501 92.386 44.418 86.876 42.335 82.073 41.944 79.813 41.033 77.129 39.861 74.727"><title>2023-11-28 1.0km</title><desc>10292316108</desc></polyline><polyline fill="none" stroke="#4dd2ff" stroke-linecap="round" stroke-linejoin="round" stroke-width=".5" points="65.643 74.727 66.795 77.854 67.487 80.856 68.409 82.232 69.447 84.233 70.484 87.485 71.406 88.986 71.406 89.736 70.83 90.236 68.985 91.237 67.833 92.237 66.68 92.863 64.951 93.613 62.185 94.364 61.724 94.239 61.378 93.863 60.802 91.487"><title>2023-11-27 1.0km</title><desc>10287544518</desc></polyline><polyline fill="none" stroke="#4dd2ff" stroke-linecap="round" stroke-linejoin="round" stroke-width=".5" points="86.803 78.984 87.436 80.495 88.954 88.184 90.6 92.167 91.485 93.677 92.118 94.364 92.245 94.226 91.865 93.54 91.865 92.441 90.853 90.107 89.714 86.262 88.575 83.928 87.815 79.533 85.664 76.1 85.158 74.727"><title>2023-11-26 1.0km</title><desc>10281488289</desc></polyline><polyline fill="none" stroke="#4dd2ff" stroke-linecap="round" stroke-linejoin="round" stroke-width=".5" points="107.723 74.727 109.183 78.528 110.496 83.912 111.809 86.921 112.101 88.821 112.831 90.563 114.436 93.572 115.166 94.364 115.458 94.364 113.269 89.613 112.977 88.029 111.518 85.971 108.599 78.053 107.139 75.361"><title>2023-11-25 1.0km</title><desc>10275889695</desc></polyline><polyline fill="none" stroke="#4dd2ff" stroke-linecap="round" stroke-linejoin="round" stroke-width=".5" points="130.091 74.911 131.106 79.499 135.841 92.345 137.025 94.18 137.532 94.364 137.701 93.813 136.01 91.611 133.981 85.555 132.628 82.802 131.782 77.48 130.767 74.727"><title>2023-11-24 1.0km</title><desc>10271180196</desc></polyline><polyline fill="none" stroke="#4dd2ff" stroke-linecap="round" stroke-linejoin="round" stroke-width=".5" points="154.052 76.909 154.483 78.156 155.488 83.455 157.93 90.935 159.079 94.052 159.51 94.364 160.084 94.364 160.228 94.052 159.94 92.494 158.361 87.974 154.196 78.935 152.759 74.727"><title>2023-11-23 1.0km</title><desc>10265414399</desc></polyline><polyline fill="none" stroke="#4dd2ff" stroke-linecap="round" stroke-linejoin="round" stroke-width=".5" points="177.37 79.152 177.498 81.088 178.008 84.131 180.047 89.939 180.684 92.704 181.703 94.364 182.468 94.364 182.341 93.534 180.939 89.939 179.792 88.141 178.135 83.024 176.224 77.77 175.714 74.727"><title>2023-11-21 1.0km</title><desc>10253878272</desc></polyline><polyline fill="none" stroke="#4dd2ff" stroke-linecap="round" stroke-linejoin="round" stroke-width=".5" points="18.796 101.849 19.456 106.149 22.23 113.172 23.419 115.752 23.815 116.182 24.079 116.038 24.211 115.752 23.683 113.459 21.305 108.299 20.381 105.575 18.928 99.985 18.135 98.552 17.607 96.545"><title>2023-11-20 1.0km</title><desc>10248671423</desc></polyline><polyline fill="none" stroke="#4dd2ff" stroke-linecap="round" stroke-linejoin="round" stroke-width=".5" points="40.011 98.182 41.93 102.347 42.478 106.661 43.986 110.083 45.494 114.397 46.18 115.438 47.002 116.182 46.865 114.992 44.535 108.893 43.027 103.388 41.519 99.818 40.696 96.545"><title>2023-11-19 1.0km</title><desc>10242265034</desc></polyline><polyline fill="none" stroke="#4dd2ff" stroke-linecap="round" stroke-linejoin="round" stroke-width=".5" points="62.288 114.041 63.145 111.343 63.488 110.691 64.089 110.319 67.004 109.947 69.148 109.481 69.835 108.923 70.263 108.365 70.778 106.038 70.606 105.293 70.949 104.735 70.692 100.454 70.521 99.896 70.435 98.221 70.263 97.197 69.32 96.918 68.548 97.476 68.72 97.197 68.891 97.476 67.776 96.918 67.69 96.545 67.433 96.732 67.605 96.639 67.004 97.383 67.09 97.29 68.891 98.221 68.462 98.593 67.776 98.872 66.147 99.151 66.061 98.779 66.49 98.593 67.09 98.686 68.891 96.918 71.378 97.011 71.121 96.825 70.778 96.732 70.521 101.199 70.606 102.502 70.864 104.084 71.035 106.782 71.035 107.713 70.778 108.644 70.263 109.202 65.975 109.667 64.003 110.04 62.974 110.784 61.773 112.459 61.087 114.879 60.83 116.182"><title>2023-11-18 1.0km</title><desc>10236386505</desc></polyline><polyline fill="none" stroke="#4dd2ff" stroke-linecap="round" stroke-linejoin="round" stroke-width=".5" points="84.694 96.545 87.538 101.455 88.572 105.101 88.96 107.205 89.735 108.468 92.191 115.621 92.708 116.182 92.708 115.621 92.191 114.919 90.769 110.712 89.994 109.309 89.735 106.925 88.572 103.979 87.279 101.174 87.15 99.631"><title>2023-11-17 1.0km</title><desc>10231268371</desc></polyline><polyline fill="none" stroke="#4dd2ff" stroke-linecap="round" stroke-linejoin="round" stroke-width=".5" points="107.796 97.179 109.693 99.871 110.131 103.513 111.445 106.364 113.488 113.965 114.801 116.182 114.655 114.915 113.634 112.856 112.904 110.798 111.737 105.889 109.401 100.979 108.672 98.762 108.234 96.545"><title>2023-11-16 1.0km</title><desc>10225818993</desc></polyline><polyline fill="none" stroke="#4dd2ff" stroke-linecap="round" stroke-linejoin="round" stroke-width=".5" points="130.491 96.757 131.464 100.557 133.02 104.78 135.161 108.792 135.939 111.959 137.301 114.704 138.663 116.182 135.161 109.636 133.604 104.78 129.129 96.545"><title>2023-11-15 1.0km</title><desc>10219684298</desc></polyline><polyline fill="none" stroke="#4dd2ff" stroke-linecap="round" stroke-linejoin="round" stroke-width=".5" points="153.024 98.908 154.793 101.122 155.065 103.928 157.106 108.8 158.33 112.934 159.555 116.034 160.099 116.182 159.963 114.41 158.194 112.048 157.514 109.981 156.425 108.652 156.017 107.028 153.976 102.894 153.296 99.941 152.888 96.545"><title>2023-11-14 1.0km</title><desc>10213806154</desc></polyline><polyline fill="none" stroke="#4dd2ff" stroke-linecap="round" stroke-linejoin="round" stroke-width=".5" points="176.468 99.249 177.517 103.233 180.402 110.632 181.058 113.051 182.369 115.755 182.763 116.182 181.976 114.759 180.14 110.348 180.009 109.21 178.698 106.079 176.731 102.522 175.944 100.103 175.419 96.545"><title>2023-11-13 1.0km</title><desc>10208522228</desc></polyline><polyline fill="none" stroke="#4dd2ff" stroke-linecap="round" stroke-linejoin="round" stroke-width=".5" points="18.716 120.595 20.087 124.76 21.732 128.182 22.691 132.198 23.651 135.025 24.885 137.702 25.433 138 25.707 137.405 24.199 134.43 23.377 131.157 20.361 128.331 18.716 125.95 18.441 123.422 16.111 118.364"><title>2023-11-12 1.0km</title><desc>10202270880</desc></polyline><polyline fill="none" stroke="#4dd2ff" stroke-linecap="round" stroke-linejoin="round" stroke-width=".5" points="40.535 122.027 43.777 129.354 44.857 133.018 45.937 135.948 46.613 137.267 47.288 138 47.423 137.414 46.207 133.75 43.912 130.233 41.481 124.665 40.535 120.708 39.59 118.364"><title>2023-11-11 1.0km</title><desc>10196068378</desc></polyline><polyline fill="none" stroke="#4dd2ff" stroke-linecap="round" stroke-linejoin="round" stroke-width=".5" points="64.278 121.292 66.501 128.01 68.564 133.522 69.517 137.139 70.152 138 70.469 137.656 69.993 135.589 67.612 130.249 65.231 125.254 62.056 120.258 61.739 118.364"><title>2023-11-10 1.0km</title><desc>10191120477</desc></polyline><polyline fill="none" stroke="#4dd2ff" stroke-linecap="round" stroke-linejoin="round" stroke-width=".5" points="84.143 118.963 86.491 120.762 87.872 123.16 88.287 124.06 88.287 125.409 89.806 130.056 90.359 132.754 91.464 135.752 91.74 137.251 92.431 138 92.846 137.85 93.26 137.251 91.74 136.201 89.254 132.604 86.353 124.659 85.662 120.162 84.972 118.364"><title>2023-11-09 1.0km</title><desc>10185506531</desc></polyline><polyline fill="none" stroke="#4dd2ff" stroke-linecap="round" stroke-linejoin="round" stroke-width=".5" points="107.468 119.94 108.921 122.807 109.449 124.24 111.167 127.967 111.827 130.547 111.695 128.97 111.959 129.973 112.488 133.843 113.676 137.427 114.205 138 114.865 137.713 115.129 137.283 113.676 135.993 112.62 134.273 111.959 132.41 111.035 129.257 109.714 127.394 108.261 124.24 107.864 121.947 107.996 119.08 107.732 118.364"><title>2023-11-08 1.0km</title><desc>10179505859</desc></polyline><polyline fill="none" stroke="#4dd2ff" stroke-linecap="round" stroke-linejoin="round" stroke-width=".5" points="133.01 129.212 137.439 138 137.693 137.863 137.06 136.352 135.921 134.43 135.162 132.507 133.643 130.86 133.137 129.898 132.757 126.603 132.504 125.641 130.985 123.032 130.1 118.364"><title>2023-11-06 1.0km</title><desc>10167691585</desc></polyline><polyline fill="none" stroke="#4dd2ff" stroke-linecap="round" stroke-linejoin="round" stroke-width=".5" points="154.606 123.873 155.517 125.568 158.902 133.338 160.334 137.717 160.594 138 160.855 138 160.855 137.576 159.813 135.316 158.902 134.044 158.772 133.338 157.991 132.491 155.777 128.676 153.174 122.037 152.132 118.364"><title>2023-11-05 1.1km</title><desc>10161301187</desc></polyline><polyline fill="none" stroke="#4dd2ff" stroke-linecap="round" stroke-linejoin="round" stroke-width=".5" points="175.419 118.364 178.042 124.198 179.222 129.32 181.058 132.877 181.714 135.723 182.369 138 182.763 137.573 182.632 137.146 180.927 134.016 180.796 133.589 179.222 131.17 178.566 128.893 176.862 125.763 176.468 123.059 175.681 120.213"><title>2023-11-04 1.0km</title><desc>10155501797</desc></polyline><polyline fill="none" stroke="#4dd2ff" stroke-linecap="round" stroke-linejoin="round" stroke-width=".5" points="26.177 143.165 24.689 141.176 23.772 140.555 21.94 140.182 20.222 140.306 17.817 141.425 16.786 142.419 15.87 144.283 15.641 145.774 15.297 150.746 15.526 155.965 15.755 156.711 16.901 158.575 18.275 159.57 20.566 159.818 22.627 158.948 24.574 156.587 25.147 155.468 25.948 151.864 25.948 149.006 26.521 145.277 26.406 143.91 25.147 142.419 24.116 141.673 21.711 140.555 20.451 140.555 17.702 141.425 16.443 142.543 15.641 144.035 15.412 145.029 15.641 149.13 15.412 150.994"><title>2023-11-03 1.0km</title><desc>10152446508</desc></polyline><polyline fill="none" stroke="#4dd2ff" stroke-linecap="round" stroke-linejoin="round" stroke-width=".5" points="39.442 140.182 40.516 142.512 41.436 146.672 42.97 149.667 45.27 155.658 45.73 156.656 46.497 159.319 46.957 159.818 47.571 159.818 47.571 159.485 46.497 158.986 46.037 157.821 44.963 156.823 44.197 154.659 43.123 152.995 41.896 150.499 40.516 145.341 39.596 143.177"><title>2023-11-02 1.1km</title><desc>10144903556</desc></polyline><polyline fill="none" stroke="#4dd2ff" stroke-linecap="round" stroke-linejoin="round" stroke-width=".5" points="62.76 141.605 63.022 143.17 64.071 145.589 65.907 152.134 69.054 158.68 69.972 159.818 69.448 158.111 67.481 155.123 66.432 151.281 65.12 149.431 63.547 146.016 62.235 140.182"><title>2023-11-01 1.0km</title><desc>10138966680</desc></polyline><polyline fill="none" stroke="#4dd2ff" stroke-linecap="round" stroke-linejoin="round" stroke-width=".5" points="85.844 140.477 86.524 142.692 87.613 148.597 89.382 152.436 90.47 155.98 92.239 159.818 92.375 159.671 91.15 157.899 89.382 153.765 87.885 151.107 85.3 143.282 85.028 140.182"><title>2023-10-31 1.0km</title><desc>10133123337</desc></polyline><polyline fill="none" stroke="#4dd2ff" stroke-linecap="round" stroke-linejoin="round" stroke-width=".5" points="108.216 142.509 108.886 146 108.886 147.309 110.36 149.782 114.382 158.364 115.052 159.673 115.32 159.818 112.237 153.709 110.897 149.927 109.422 146.873 107.277 140.182"><title>2023-10-30 1.0km</title><desc>10127985445</desc></polyline><polyline fill="none" stroke="#4dd2ff" stroke-linecap="round" stroke-linejoin="round" stroke-width=".5" points="130.801 143.024 131.396 147.029 131.753 148.321 134.134 153.876 135.325 157.105 137.111 159.56 137.587 159.818 137.706 159.431 136.634 157.751 135.087 154.392 132.348 149.354 131.277 145.608 130.443 143.928 130.324 141.345 130.086 140.182"><title>2023-10-28 1.0km</title><desc>10115543824</desc></polyline><polyline fill="none" stroke="#4dd2ff" stroke-linecap="round" stroke-linejoin="round" stroke-width=".5" points="153.947 144.255 155.019 147.745 156.225 150.509 157.298 154.436 158.906 158.218 159.577 159.673 160.247 159.818 160.381 159.673 160.113 158.8 159.309 156.618 156.628 151.382 154.483 145.564 153.142 142.655 152.606 140.182"><title>2023-10-27 1.0km</title><desc>10110442644</desc></polyline><polyline fill="none" stroke="#4dd2ff" stroke-linecap="round" stroke-linejoin="round" stroke-width=".5" points="176.43 143.214 178.958 151.733 179.889 154.332 180.821 155.92 181.885 158.952 182.284 159.529 183.083 159.818 183.216 159.385 183.083 158.807 181.752 157.075 179.756 153.61 177.361 146.535 175.764 143.936 174.966 140.182"><title>2023-10-26 1.0km</title><desc>10104873905</desc></polyline><polyline fill="none" stroke="#4dd2ff" stroke-linecap="round" stroke-linejoin="round" stroke-width=".5" points="19.926 171.391 22.942 178.933 24.384 181.494 24.909 181.636 24.778 180.213 21.237 174.095 19.27 169.115 17.565 165.557 16.91 162"><title>2023-10-25 1.0km</title><desc>10098978222</desc></polyline><polyline fill="none" stroke="#4dd2ff" stroke-linecap="round" stroke-linejoin="round" stroke-width=".5" points="39.874 162 39.742 163.003 40.534 166.3 41.591 168.45 42.252 171.03 43.44 174.47 45.95 179.343 46.743 181.35 47.007 181.636 47.271 181.493 47.139 179.63 45.686 176.906 44.629 175.33 43.308 172.32 43.044 170.743 41.459 168.307 40.534 166.157 40.27 163.577 39.874 162"><title>2023-10-24 1.0km</title><desc>10092835699</desc></polyline><polyline fill="none" stroke="#4dd2ff" stroke-linecap="round" stroke-linejoin="round" stroke-width=".5" points="64.086 165.39 66.039 172.313 66.95 174.008 67.992 178.246 69.554 181.071 70.205 181.636 69.554 180.93 68.643 178.67 66.299 175.844 65.778 174.855 65.258 171.606 63.695 168.498 62.654 165.249 62.003 162"><title>2023-10-23 1.0km</title><desc>10087395010</desc></polyline><polyline fill="none" stroke="#4dd2ff" stroke-linecap="round" stroke-linejoin="round" stroke-width=".5" points="82.344 162.094 82.691 162 85.165 162.188 86.249 162.471 86.51 162.612 87.074 163.036 87.465 163.507 88.332 165.108 88.766 166.897 89.331 167.839 89.591 168.593 90.198 169.958 90.632 171.371 91.283 172.501 91.587 172.831 91.978 173.49 92.195 174.903 92.325 175.279 92.672 175.797 92.759 176.598 92.889 176.927 94.798 181.448 95.059 181.636 95.059 181.401 94.668 181.024 94.234 179.988 93.8 179.094 92.629 175.468"><title>2023-10-22 1.5km</title><desc>10080655811</desc></polyline><polyline fill="none" stroke="#4dd2ff" stroke-linecap="round" stroke-linejoin="round" stroke-width=".5" points="108.175 162 108.864 162.498 107.624 162.299 109.553 164.791 109.737 165.389 109.599 165.887 108.956 166.236 108.773 166.585 108.819 167.183 109.186 168.629 109.599 169.675 110.059 171.27 110.885 172.715 111.023 173.264 111.528 174.161 111.85 174.559 111.896 174.809 112.217 175.108 112.447 175.606 112.768 176.553 113.09 177.201 113.044 178.497 113.641 179.643 113.825 180.191 114.146 180.789 114.697 181.487 114.973 181.636 113.917 180.141 113.687 179.344 113.228 178.347 113.044 177.699 112.447 176.852 111.942 175.407"><title>2023-10-20 1.4km</title><desc>10069668027</desc></polyline><polyline fill="none" stroke="#4dd2ff" stroke-linecap="round" stroke-linejoin="round" stroke-width=".5" points="129.945 162 130.038 162.761 130.787 164.588 130.974 165.704 132.517 169.459 132.657 169.966 132.75 170.727 132.938 171.235 134.06 172.808 134.668 174.025 135.042 175.243 135.369 175.903 135.556 176.918 135.79 177.425 136.398 178.998 136.491 179.607 137.38 181.433 137.614 181.636 137.754 181.636 137.847 181.586 137.801 181.535 136.865 180.368 136.445 178.947 135.556 177.324 135.416 176.664 135.322 175.548"><title>2023-10-19 1.3km</title><desc>10064004415</desc></polyline><polyline fill="none" stroke="#4dd2ff" stroke-linecap="round" stroke-linejoin="round" stroke-width=".5" points="152.066 162 153.991 164.507 153.862 166.317 154.119 168.128 155.018 171.331 156.301 173.42 157.584 177.041 160.151 181.219 160.536 181.636 160.921 181.497 159.253 179.826 156.173 173.838 155.403 171.192 153.221 166.596"><title>2023-10-18 1.0km</title><desc>10058081424</desc></polyline><polyline fill="none" stroke="#4dd2ff" stroke-linecap="round" stroke-linejoin="round" stroke-width=".5" points="175.664 163.19 176.76 169.587 179.639 177.174 181.559 181.19 182.381 181.636 182.792 181.636 183.067 181.041 182.107 179.851 180.873 177.917 179.228 174.347 178.543 172.264 175.664 166.463 175.389 165.57 175.115 162"><title>2023-10-17 1.0km</title><desc>10051702317</desc></polyline><polyline fill="none" stroke="#4dd2ff" stroke-linecap="round" stroke-linejoin="round" stroke-width=".5" points="16.524 184.271 17.916 186.688 20.004 192.126 21.118 194.241 22.371 198.168 23.902 202.095 24.459 203.152 25.155 203.455 25.294 203.303 25.155 202.85 23.624 200.585 21.536 195.449 20.004 192.277 18.751 186.386 18.055 183.818"><title>2023-10-16 1.0km</title><desc>10046279660</desc></polyline><polyline fill="none" stroke="#4dd2ff" stroke-linecap="round" stroke-linejoin="round" stroke-width=".5" points="39.485 183.818 40.06 185.065 40.634 187.87 41.927 192.234 43.65 194.883 45.661 202.364 46.379 203.143 47.384 203.455 47.528 203.143 47.384 202.208 45.517 199.558 44.512 196.442 43.363 194.571 40.634 188.182 39.629 183.818"><title>2023-10-15 1.0km</title><desc>10039610121</desc></polyline><polyline fill="none" stroke="#4dd2ff" stroke-linecap="round" stroke-linejoin="round" stroke-width=".5" points="62.018 185.243 62.455 189.836 63.623 193.161 65.082 195.22 65.958 198.07 68.439 202.504 69.023 203.138 69.752 203.455 70.19 203.138 70.19 202.663 67.271 200.287 65.374 196.804 64.645 193.795 62.893 189.836 62.018 186.51 62.164 184.452 62.018 183.818"><title>2023-10-14 1.0km</title><desc>10033377496</desc></polyline><polyline fill="none" stroke="#4dd2ff" stroke-linecap="round" stroke-linejoin="round" stroke-width=".5" points="84.249 184.13 86.834 187.247 87.121 189.584 89.563 197.065 91.861 202.519 92.579 203.455 93.154 203.455 93.154 202.987 93.01 202.519 91.717 201.584 90.281 198.935 88.701 193.948 85.829 187.558 85.398 185.377 84.68 183.818"><title>2023-10-13 1.0km</title><desc>10028006924</desc></polyline><polyline fill="none" stroke="#4dd2ff" stroke-linecap="round" stroke-linejoin="round" stroke-width=".5" points="107.085 183.818 108.467 185.617 109.296 187.116 109.434 189.065 109.296 191.163 110.815 194.311 112.611 199.108 114.407 202.405 114.821 203.005 115.512 203.455 115.512 202.705 113.992 200.756 112.611 198.358 110.815 193.412 109.71 191.463 109.158 189.814"><title>2023-10-12 1.0km</title><desc>10021974100</desc></polyline><polyline fill="none" stroke="#4dd2ff" stroke-linecap="round" stroke-linejoin="round" stroke-width=".5" points="131.6 186.602 132.14 189.533 132.005 190.706 133.221 194.662 134.166 196.421 135.112 199.645 136.462 202.868 136.732 203.161 137.407 203.455 137.272 202.868 135.787 199.058 134.166 196.274 132.005 191.292 131.465 189.387 131.195 186.602 130.385 183.818"><title>2023-10-10 1.0km</title><desc>10009069592</desc></polyline><polyline fill="none" stroke="#4dd2ff" stroke-linecap="round" stroke-linejoin="round" stroke-width=".5" points="153.167 186.273 154.098 188.872 155.03 192.337 157.026 196.668 158.622 202.155 159.554 203.455 159.82 203.021 159.953 201.433 159.022 198.69 157.026 195.225 154.764 188.872 154.098 185.984 153.034 183.818"><title>2023-10-09 1.0km</title><desc>10003389142</desc></polyline><polyline fill="none" stroke="#4dd2ff" stroke-linecap="round" stroke-linejoin="round" stroke-width=".5" points="175.093 183.818 176.075 185.036 177.057 187.319 177.618 191.886 179.722 196.452 181.546 201.628 182.388 203.15 183.089 203.455 183.089 202.237 180.424 197.975 176.917 189.45 175.514 183.97"><title>2023-10-08 1.0km</title><desc>9996447828</desc></polyline><polyline fill="none" stroke="#4dd2ff" stroke-linecap="round" stroke-linejoin="round" stroke-width=".5" points="18.389 209.564 19.035 211.948 20.974 217.138 21.62 219.382 23.688 224.571 24.334 225.273 24.464 224.712 24.464 224.151 22.008 219.803 20.844 217.278 18.776 211.107 18.13 207.881 17.354 205.636"><title>2023-10-07 1.0km</title><desc>9989974159</desc></polyline><polyline fill="none" stroke="#4dd2ff" stroke-linecap="round" stroke-linejoin="round" stroke-width=".5" points="41.902 211.486 42.929 214.828 43.699 216.499 45.239 223.044 45.624 224.298 46.394 225.273 47.036 225.273 47.293 224.716 47.164 224.298 45.624 222.07 44.084 218.727 43.571 216.499 40.875 209.954 40.49 207.586 39.72 205.636"><title>2023-10-06 1.0km</title><desc>9984428862</desc></polyline><polyline fill="none" stroke="#4dd2ff" stroke-linecap="round" stroke-linejoin="round" stroke-width=".5" points="61.876 205.636 64.101 211.592 65.585 216.581 68.106 222.858 69.145 224.951 69.59 225.273 70.183 225.273 70.331 224.951 69.886 224.146 68.106 221.571 67.068 219.478 65.288 214.811 64.546 212.396 62.47 208.534 62.47 207.085"><title>2023-10-04 1.0km</title><desc>9971682885</desc></polyline><polyline fill="none" stroke="#4dd2ff" stroke-linecap="round" stroke-linejoin="round" stroke-width=".5" points="85.729 207.93 86.39 210.223 87.05 211.8 87.579 214.236 90.088 219.253 90.22 220.973 91.013 224.413 91.277 224.843 92.07 225.273 92.07 223.839 90.352 220.686 89.164 217.963 88.503 216.673 87.843 214.81 86.522 212.086 85.993 209.936 85.729 207.786 85.333 205.636"><title>2023-10-03 1.0km</title><desc>9965060084</desc></polyline><polyline fill="none" stroke="#4dd2ff" stroke-linecap="round" stroke-linejoin="round" stroke-width=".5" points="107.709 206.448 109.504 212.29 109.803 214.887 110.85 216.185 111.598 218.132 112.944 223.163 113.991 224.786 114.739 225.273 114.888 225.11 114.439 223.812 112.794 220.729 110.102 214.237 108.457 209.369 108.158 205.636"><title>2023-10-02 1.0km</title><desc>9958643020</desc></polyline><polyline fill="none" stroke="#4dd2ff" stroke-linecap="round" stroke-linejoin="round" stroke-width=".5" points="130.784 209.092 131.073 210.506 134.258 218.047 135.851 222.916 136.719 224.644 137.588 225.273 137.733 225.116 137.588 224.487 134.692 220.089 131.942 213.334 130.639 209.249 130.06 205.636"><title>2023-10-01 1.0km</title><desc>9952075403</desc></polyline><polyline fill="none" stroke="#4dd2ff" stroke-linecap="round" stroke-linejoin="round" stroke-width=".5" points="153.674 208.482 154.854 210.901 155.379 213.32 155.772 215.597 157.739 221.146 159.444 224.704 160.231 225.273 160.493 224.846 157.87 220.862 156.69 218.158 156.297 216.735 154.461 212.751 153.412 208.34 152.494 205.636"><title>2023-09-30 1.0km</title><desc>9945549317</desc></polyline><polyline fill="none" stroke="#4dd2ff" stroke-linecap="round" stroke-linejoin="round" stroke-width=".5" points="176.051 205.636 177.354 207.836 177.788 209.564 178.946 212.391 179.525 216.633 179.96 217.889 181.697 222.131 182.131 224.801 182.421 225.116 182.855 225.273 183 224.959 180.394 220.246 178.657 216.161 178.078 213.805 176.051 209.092 175.182 206.265"><title>2023-09-28 1.0km</title><desc>9933629332</desc></polyline><polyline fill="none" stroke="#4dd2ff" stroke-linecap="round" stroke-linejoin="round" stroke-width=".5" points="17.07 229.686 18.167 233.554 20.224 236.38 21.595 241.438 23.514 244.86 24.062 246.793 24.611 247.091 24.885 246.645 24.611 246.05 23.514 244.562 20.361 238.165 18.716 233.703 16.933 227.455"><title>2023-09-27 1.0km</title><desc>9927137811</desc></polyline><polyline fill="none" stroke="#4dd2ff" stroke-linecap="round" stroke-linejoin="round" stroke-width=".5" points="45.138 227.455 44.746 229.343 44.355 230.428 44.05 231.75 42.267 235.479 41.353 237.037 41.179 237.698 41.266 238.217 41.484 238.972 42.136 240.577 42.354 241.002 42.615 241.757 43.485 242.843 43.876 243.692 44.311 244.353 44.659 245.297 45.181 246.005 45.834 247.091"><title>2023-09-26 1.0km</title><desc>9920397094</desc></polyline><polyline fill="none" stroke="#4dd2ff" stroke-linecap="round" stroke-linejoin="round" stroke-width=".5" points="66.012 227.455 65.156 230.307 64.3 231.833 63.506 232.828 63.078 233.624 62.894 234.42 62.955 235.415 63.261 236.211 63.995 237.339 64.3 238.467 64.912 239.926 66.073 241.386 68.03 245.366 69.314 247.091"><title>2023-09-25 1.0km</title><desc>9914573673</desc></polyline><polyline fill="none" stroke="#4dd2ff" stroke-linecap="round" stroke-linejoin="round" stroke-width=".5" points="90.149 227.455 89.666 228.188 89.57 228.554 89.666 229.025 89.715 229.497 88.75 231.277 88.508 232.482 88.17 233.372 86.144 236.932 86.095 237.351 86.288 238.189 86.819 239.027 87.109 239.76 87.543 240.493 87.784 241.226 88.412 242.221 88.894 243.216 89.425 243.792 89.57 244.316 89.908 244.735 90.632 245.991 91.162 246.567 91.307 247.091"><title>2023-09-24 1.0km</title><desc>9907510217</desc></polyline><polyline fill="none" stroke="#4dd2ff" stroke-linecap="round" stroke-linejoin="round" stroke-width=".5" points="112.031 227.455 111.621 228.09 111.328 228.726 111.152 229.552 111.094 230.632 110.098 231.967 109.513 233.492 108.985 234.254 108.634 235.271 108.575 236.351 109.805 239.465 110.274 240.418 111.796 242.833 112.441 244.422 113.261 245.439 113.729 246.265 114.022 247.091"><title>2023-09-23 1.0km</title><desc>9901004991</desc></polyline><polyline fill="none" stroke="#4dd2ff" stroke-linecap="round" stroke-linejoin="round" stroke-width=".5" points="134.65 227.455 134.259 228.182 133.868 229.455 132.975 231.333 132.081 232.606 131.299 234.727 131.243 235.879 131.355 236.546 132.472 239.212 132.639 240 132.863 240.424 133.645 241.394 134.259 242.606 134.762 243.879 135.6 245.091 136.549 247.091"><title>2023-09-22 1.0km</title><desc>9895405405</desc></polyline><polyline fill="none" stroke="#4dd2ff" stroke-linecap="round" stroke-linejoin="round" stroke-width=".5" points="157.534 227.455 157.374 228.034 157.054 228.381 156.36 229.656 156.093 230.582 155.292 232.61 154.438 234.348 153.905 235.622 153.744 236.259 153.744 236.665 153.905 237.244 154.225 237.823 154.919 239.619 155.613 240.893 155.986 241.82 156.68 242.978 157.107 243.5 157.428 244.426 158.282 245.932 159.243 247.091"><title>2023-09-21 1.0km</title><desc>9889267953</desc></polyline><polyline fill="none" stroke="#4dd2ff" stroke-linecap="round" stroke-linejoin="round" stroke-width=".5" points="181.09 227.455 180.389 229.557 179.977 231.212 179.318 232.599 178.534 234.924 177.174 237.474 176.803 238.861 176.844 239.174 177.092 239.845 177.628 241.008 177.957 241.992 178.782 243.155 179.276 244.094 179.565 244.765 179.895 245.346 180.431 245.749 181.09 246.733 181.131 246.912 181.379 247.091"><title>2023-09-20 1.0km</title><desc>9882714971</desc></polyline><polyline fill="none" stroke="#4dd2ff" stroke-linecap="round" stroke-linejoin="round" stroke-width=".5" points="22.537 249.273 22.119 250.333 21.328 252.655 21.281 253.412 21.002 253.816 20.676 254.573 20.49 255.28 20.118 256.239 19.048 257.955 18.769 258.965 18.676 259.873 18.769 260.782 19.048 261.792 19.374 262.498 20.397 264.265 20.909 264.972 21.374 266.234 21.839 267.041 22.305 267.698 22.816 268.202 23.142 268.909"><title>2023-09-19 1.0km</title><desc>9876194288</desc></polyline><polyline fill="none" stroke="#4dd2ff" stroke-linecap="round" stroke-linejoin="round" stroke-width=".5" points="43.362 249.273 43.015 249.837 42.437 250.967 42.263 251.719 41.223 253.539 40.413 255.233 40.24 255.86 40.298 256.55 40.645 257.428 41.165 258.37 41.627 259.687 42.263 261.067 42.957 262.322 43.593 263.137 44.345 264.392 44.807 265.835 45.617 267.09 46.021 268.219 46.773 268.909"><title>2023-09-18 1.0km</title><desc>9870505463</desc></polyline><polyline fill="none" stroke="#4dd2ff" stroke-linecap="round" stroke-linejoin="round" stroke-width=".5" points="66.301 249.273 66.019 249.823 65.625 251.658 65.117 252.515 64.892 253.188 63.652 255.207 63.201 256.308 62.919 257.286 63.144 257.959 64.384 260.651 65.005 261.63 65.456 262.67 66.188 263.648 66.583 264.321 67.09 265.912 69.289 268.909"><title>2023-09-16 1.0km</title><desc>9856514700</desc></polyline><polyline fill="none" stroke="#4dd2ff" stroke-linecap="round" stroke-linejoin="round" stroke-width=".5" points="88.43 249.273 87.827 251.105 87.042 252.349 85.414 255.491 85.354 256.211 85.414 257.062 85.776 257.913 86.379 258.829 86.922 260.073 87.887 261.709 89.093 264 89.214 264.851 89.636 265.178 90.119 265.833 90.903 267.142 91.747 267.862 91.928 268.32 92.049 268.909"><title>2023-09-15 1.0km</title><desc>9850671982</desc></polyline><polyline fill="none" stroke="#4dd2ff" stroke-linecap="round" stroke-linejoin="round" stroke-width=".5" points="111.798 249.273 110.799 251.914 109.676 253.539 109.177 254.419 108.428 256.315 108.241 256.992 108.241 257.534 108.428 258.211 109.177 260.242 109.863 261.596 111.548 264.508 112.235 265.794 112.36 266.539 112.859 267.013 113.67 268.3 114.356 268.909"><title>2023-09-14 1.0km</title><desc>9844236351</desc></polyline><polyline fill="none" stroke="#4dd2ff" stroke-linecap="round" stroke-linejoin="round" stroke-width=".5" points="130.775 249.273 131.135 249.565 131.269 249.857 131.359 250.491 131.628 251.027 131.808 252.537 131.808 253.268 131.718 253.658 131.808 254.145 132.033 254.73 131.943 255.217 131.988 255.461 132.437 256.289 132.841 257.507 133.2 258.19 133.649 258.823 134.143 259.262 134.278 259.554 134.412 260.187 134.772 260.821 135.176 261.99 135.715 263.013 135.984 263.89 136.119 264.621 136.388 265.206 136.882 266.814 137.556 268.081 137.601 268.276 137.556 268.422 137.017 268.909 137.286 268.714 137.421 268.422 137.511 268.178 137.466 267.837 137.197 267.496 136.388 265.742 135.984 264.426 135.131 262.526 134.727 260.675 134.502 260.139 133.649 259.018 132.796 257.41 132.392 256.094 132.257 255.217 131.898 254.292 131.179 252.732 131 252.001 130.371 250.832 130.236 250.199 130.192 249.419"><title>2023-09-13 1.0km</title><desc>9837636972</desc></polyline></svg>