<svg xmlns="http://www.w3.org/2000/svg" xmlns:ev="http://www.w3.org/2001/xml-events" xmlns:xlink="http://www.w3.org/1999/xlink" width="200mm" height="300mm" baseProfile="full" version="1.1" viewBox="0 0 200 300"><rect width="200" height="300" x="0" y="0" fill="#222"/><text fill="#FFF" style="font-size:12px;font-family:Arial;font-weight:700" x="10" y="20">Over 1km Runs</text><text fill="#FFF" style="font-size:4px;font-family:Arial" x="10" y="280">ATHLETE</text><text fill="#FFF" style="font-size:9px;font-family:Arial" x="10" y="290">Jiakai</text><text fill="#FFF" style="font-size:4px;font-family:Arial" x="120" y="280">STATISTICS</text><text fill="#FFF" style="font-size:3px;font-family:Arial" x="120" y="285">Number: 75</text><text fill="#FFF" style="font-size:3px;font-family:Arial" x="120" y="290">Weekly: 5.8</text><text fill="#FFF" style="font-size:3px;font-family:Arial" x="141" y="285">Total: 77.5 km</text><text fill="#FFF" style="font-size:3px;font-family:Arial" x="141" y="290">Avg: 1.0 km</text><text fill="#FFF" style="font-size:3px;font-family:Arial" x="167" y="285">Min: 1.0 km</text><text fill="#FFF" style="font-size:3px;font-family:Arial" x="167" y="290">Max: 1.5 km</text><polyline fill="none" stroke="#4dd2ff" stroke-linecap="round" stroke-linejoin="round" stroke-width=".5" points="19.384 34.616 20.285 39.225 21.186 42.577 23.374 48.303 24.532 50.956 24.918 51.375 24.403 48.861 23.116 46.487 21.958 43.135 20.285 39.644 19.513 36.991 18.225 34.197 17.582 31.125"><title>2023-12-05 1.0km</title><desc>10329306344</desc></polyline><polyline fill="none" stroke="#4dd2ff" stroke-linecap="round" stroke-linejoin="round" stroke-width=".5" points="40.031 32.824 40.944 34.24 42.119 38.347 44.468 44.153 45.642 48.118 46.686 50.384 47.469 51.375 47.469 50.667 44.076 42.879 42.771 38.489 41.336 35.232 40.292 31.125"><title>2023-12-04 1.0km</title><desc>10324662812</desc></polyline><polyline fill="none" stroke="#4dd2ff" stroke-linecap="round" stroke-linejoin="round" stroke-width=".5" points="62.733 32.994 64.168 38.446 66.465 43.587 68.044 49.038 69.193 51.219 70.054 51.375 70.054 50.752 69.049 49.038 67.757 45.3 66.322 43.119 65.317 40.471 63.594 34.24 62.446 31.125"><title>2023-12-02 1.0km</title><desc>10313350310</desc></polyline><polyline fill="none" stroke="#4dd2ff" stroke-linecap="round" stroke-linejoin="round" stroke-width=".5" points="85.074 32.199 86.488 34.04 88.184 39.869 89.316 44.625 91.153 49.841 92.284 51.375 92.426 50.455 92.143 48.614 90.588 45.239 88.184 41.403 86.771 38.489 85.357 31.125"><title>2023-12-01 1.0km</title><desc>10308709030</desc></polyline><polyline fill="none" stroke="#4dd2ff" stroke-linecap="round" stroke-linejoin="round" stroke-width=".5" points="107.518 31.125 110.317 40.744 113.116 46.481 114.671 50.7 115.138 51.375 115.293 50.869 114.671 49.181 112.339 45.975 111.717 44.288 109.384 39.731 108.295 34.5 107.207 31.463"><title>2023-11-30 1.0km</title><desc>10303537703</desc></polyline><polyline fill="none" stroke="#4dd2ff" stroke-linecap="round" stroke-linejoin="round" stroke-width=".5" points="131.433 35.454 132.334 38.387 132.72 40.761 134.136 43.554 135.681 47.744 137.225 51.096 137.482 51.375 137.74 51.096 137.482 50.118 136.453 48.303 135.037 44.392 132.978 40.203 132.206 35.734 130.661 33.359 129.76 31.125"><title>2023-11-29 1.0km</title><desc>10298007687</desc></polyline><polyline fill="none" stroke="#4dd2ff" stroke-linecap="round" stroke-linejoin="round" stroke-width=".5" points="152.759 33.747 154.236 37.535 154.505 40.303 156.384 44.819 157.458 48.898 158.398 50.792 159.338 51.375 159.741 51.375 160.009 50.938 159.875 50.355 159.338 49.335 157.19 43.654 155.042 38.701 154.639 36.37 153.699 33.602 152.491 31.125"><title>2023-11-28 1.0km</title><desc>10292316108</desc></polyline><polyline fill="none" stroke="#4dd2ff" stroke-linecap="round" stroke-linejoin="round" stroke-width=".5" points="178.275 31.125 179.463 34.35 180.176 37.445 181.127 38.864 182.197 40.928 183.267 44.281 184.218 45.829 184.218 46.603 183.624 47.119 181.722 48.15 180.533 49.182 179.344 49.827 177.561 50.601 174.709 51.375 174.233 51.246 173.876 50.859 173.282 48.408"><title>2023-11-27 1.0km</title><desc>10287544518</desc></polyline><polyline fill="none" stroke="#4dd2ff" stroke-linecap="round" stroke-linejoin="round" stroke-width=".5" points="19.292 59.682 19.945 61.239 21.511 69.169 23.208 73.276 24.121 74.834 24.774 75.542 24.904 75.4 24.513 74.692 24.513 73.559 23.469 71.152 22.294 67.187 21.119 64.779 20.336 60.248 18.118 56.708 17.596 55.292"><title>2023-11-26 1.0km</title><desc>10281488289</desc></polyline><polyline fill="none" stroke="#4dd2ff" stroke-linecap="round" stroke-linejoin="round" stroke-width=".5" points="40.063 55.292 41.568 59.211 42.922 64.763 44.277 67.866 44.578 69.826 45.33 71.622 46.986 74.725 47.738 75.542 48.039 75.542 45.782 70.642 45.481 69.009 43.976 66.886 40.966 58.721 39.461 55.945"><title>2023-11-25 1.0km</title><desc>10275889695</desc></polyline><polyline fill="none" stroke="#4dd2ff" stroke-linecap="round" stroke-linejoin="round" stroke-width=".5" points="62.326 55.481 63.372 60.212 68.256 73.46 69.477 75.352 70 75.542 70.174 74.974 68.43 72.703 66.337 66.458 64.942 63.619 64.07 58.13 63.023 55.292"><title>2023-11-24 1.0km</title><desc>10271180196</desc></polyline><polyline fill="none" stroke="#4dd2ff" stroke-linecap="round" stroke-linejoin="round" stroke-width=".5" points="86.232 57.542 86.676 58.827 87.713 64.292 90.231 72.006 91.416 75.22 91.86 75.542 92.453 75.542 92.601 75.22 92.305 73.613 90.675 68.952 86.38 59.631 84.899 55.292"><title>2023-11-23 1.0km</title><desc>10265414399</desc></polyline><polyline fill="none" stroke="#4dd2ff" stroke-linecap="round" stroke-linejoin="round" stroke-width=".5" points="109.476 59.855 109.607 61.852 110.133 64.989 112.236 70.978 112.893 73.83 113.944 75.542 114.733 75.542 114.601 74.686 113.156 70.978 111.973 69.124 110.264 63.848 108.293 58.429 107.767 55.292"><title>2023-11-21 1.0km</title><desc>10253878272</desc></polyline><polyline fill="none" stroke="#4dd2ff" stroke-linecap="round" stroke-linejoin="round" stroke-width=".5" points="131.571 60.761 132.252 65.195 135.112 72.438 136.338 75.098 136.747 75.542 137.019 75.394 137.155 75.098 136.611 72.733 134.159 67.412 133.205 64.604 131.707 58.839 130.889 57.361 130.345 55.292"><title>2023-11-20 1.0km</title><desc>10248671423</desc></polyline><polyline fill="none" stroke="#4dd2ff" stroke-linecap="round" stroke-linejoin="round" stroke-width=".5" points="152.645 56.979 154.624 61.275 155.19 65.724 156.745 69.252 158.3 73.701 159.007 74.775 159.855 75.542 159.714 74.314 157.31 68.025 155.755 62.349 154.2 58.667 153.352 55.292"><title>2023-11-19 1.0km</title><desc>10242265034</desc></polyline><polyline fill="none" stroke="#4dd2ff" stroke-linecap="round" stroke-linejoin="round" stroke-width=".5" points="174.814 73.334 175.699 70.551 176.053 69.879 176.672 69.495 179.679 69.112 181.89 68.632 182.597 68.056 183.039 67.48 183.57 65.081 183.393 64.313 183.747 63.737 183.482 59.322 183.305 58.747 183.216 57.019 183.039 55.963 182.067 55.676 181.271 56.251 181.447 55.963 181.624 56.251 180.475 55.676 180.386 55.292 180.121 55.484 180.298 55.388 179.679 56.155 179.767 56.059 181.624 57.019 181.182 57.403 180.475 57.691 178.794 57.979 178.706 57.595 179.148 57.403 179.767 57.499 181.624 55.676 184.189 55.772 183.924 55.58 183.57 55.484 183.305 60.09 183.393 61.434 183.659 63.065 183.835 65.849 183.835 66.808 183.57 67.768 183.039 68.344 178.617 68.824 176.583 69.208 175.522 69.975 174.284 71.703 173.576 74.198 173.311 75.542"><title>2023-11-18 1.0km</title><desc>10236386505</desc></polyline><polyline fill="none" stroke="#4dd2ff" stroke-linecap="round" stroke-linejoin="round" stroke-width=".5" points="17.118 79.458 20.05 84.521 21.117 88.282 21.517 90.451 22.316 91.753 24.849 99.13 25.382 99.708 25.382 99.13 24.849 98.407 23.383 94.067 22.583 92.621 22.316 90.162 21.117 87.124 19.784 84.232 19.65 82.64"><title>2023-11-17 1.0km</title><desc>10231268371</desc></polyline><polyline fill="none" stroke="#4dd2ff" stroke-linecap="round" stroke-linejoin="round" stroke-width=".5" points="40.138 80.112 42.095 82.888 42.546 86.644 43.9 89.583 46.007 97.422 47.362 99.708 47.211 98.402 46.158 96.279 45.405 94.156 44.201 89.093 41.794 84.031 41.041 81.745 40.59 79.458"><title>2023-11-16 1.0km</title><desc>10225818993</desc></polyline><polyline fill="none" stroke="#4dd2ff" stroke-linecap="round" stroke-linejoin="round" stroke-width=".5" points="62.738 79.676 63.742 83.595 65.347 87.95 67.554 92.087 68.357 95.354 69.762 98.184 71.166 99.708 67.554 92.958 65.949 87.95 61.334 79.458"><title>2023-11-15 1.0km</title><desc>10219684298</desc></polyline><polyline fill="none" stroke="#4dd2ff" stroke-linecap="round" stroke-linejoin="round" stroke-width=".5" points="85.172 81.894 86.996 84.178 87.277 87.071 89.381 92.096 90.644 96.359 91.907 99.556 92.468 99.708 92.328 97.881 90.504 95.445 89.802 93.314 88.68 91.943 88.259 90.269 86.154 86.005 85.453 82.96 85.032 79.458"><title>2023-11-14 1.0km</title><desc>10213806154</desc></polyline><polyline fill="none" stroke="#4dd2ff" stroke-linecap="round" stroke-linejoin="round" stroke-width=".5" points="108.545 82.246 109.627 86.355 112.602 93.986 113.278 96.48 114.631 99.268 115.036 99.708 114.225 98.241 112.332 93.692 112.197 92.518 110.844 89.29 108.816 85.621 108.004 83.127 107.464 79.458"><title>2023-11-13 1.0km</title><desc>10208522228</desc></polyline><polyline fill="none" stroke="#4dd2ff" stroke-linecap="round" stroke-linejoin="round" stroke-width=".5" points="131.488 81.759 132.902 86.055 134.598 89.583 135.588 93.725 136.578 96.64 137.85 99.402 138.415 99.708 138.698 99.095 137.143 96.027 136.295 92.652 133.184 89.737 131.488 87.282 131.205 84.674 128.802 79.458"><title>2023-11-12 1.0km</title><desc>10202270880</desc></polyline><polyline fill="none" stroke="#4dd2ff" stroke-linecap="round" stroke-linejoin="round" stroke-width=".5" points="153.186 83.236 156.529 90.792 157.643 94.57 158.757 97.593 159.453 98.953 160.15 99.708 160.289 99.104 159.035 95.326 156.668 91.699 154.161 85.956 153.186 81.876 152.211 79.458"><title>2023-11-11 1.0km</title><desc>10196068378</desc></polyline><polyline fill="none" stroke="#4dd2ff" stroke-linecap="round" stroke-linejoin="round" stroke-width=".5" points="176.867 82.478 179.159 89.406 181.287 95.09 182.27 98.82 182.924 99.708 183.252 99.353 182.761 97.222 180.305 91.715 177.85 86.564 174.576 81.412 174.248 79.458"><title>2023-11-10 1.0km</title><desc>10191120477</desc></polyline><polyline fill="none" stroke="#4dd2ff" stroke-linecap="round" stroke-linejoin="round" stroke-width=".5" points="16.549 104.243 18.971 106.098 20.395 108.572 20.823 109.499 20.823 110.89 22.39 115.682 22.959 118.465 24.099 121.556 24.384 123.102 25.096 123.875 25.524 123.72 25.951 123.102 24.384 122.02 21.82 118.31 18.828 110.117 18.116 105.48 17.404 103.625"><title>2023-11-09 1.0km</title><desc>10185506531</desc></polyline><polyline fill="none" stroke="#4dd2ff" stroke-linecap="round" stroke-linejoin="round" stroke-width=".5" points="39.8 105.251 41.298 108.207 41.843 109.685 43.614 113.528 44.295 116.189 44.159 114.563 44.431 115.598 44.976 119.589 46.202 123.284 46.747 123.875 47.428 123.579 47.7 123.136 46.202 121.806 45.112 120.032 44.431 118.11 43.478 114.859 42.115 112.937 40.617 109.685 40.208 107.32 40.345 104.364 40.072 103.625"><title>2023-11-08 1.0km</title><desc>10179505859</desc></polyline><polyline fill="none" stroke="#4dd2ff" stroke-linecap="round" stroke-linejoin="round" stroke-width=".5" points="65.336 114.812 69.904 123.875 70.165 123.733 69.513 122.176 68.338 120.193 67.555 118.211 65.989 116.511 65.467 115.52 65.075 112.122 64.814 111.13 63.248 108.44 62.335 103.625"><title>2023-11-06 1.0km</title><desc>10167691585</desc></polyline><polyline fill="none" stroke="#4dd2ff" stroke-linecap="round" stroke-linejoin="round" stroke-width=".5" points="86.803 109.307 87.743 111.055 91.234 119.067 92.711 123.584 92.979 123.875 93.248 123.875 93.248 123.438 92.174 121.107 91.234 119.796 91.1 119.067 90.294 118.193 88.012 114.26 85.326 107.413 84.252 103.625"><title>2023-11-05 1.1km</title><desc>10161301187</desc></polyline><polyline fill="none" stroke="#4dd2ff" stroke-linecap="round" stroke-linejoin="round" stroke-width=".5" points="107.464 103.625 110.168 109.641 111.385 114.924 113.278 118.592 113.955 121.527 114.631 123.875 115.036 123.435 114.901 122.995 113.143 119.766 113.008 119.326 111.385 116.832 110.709 114.484 108.951 111.255 108.545 108.467 107.734 105.533"><title>2023-11-04 1.0km</title><desc>10155501797</desc></polyline><polyline fill="none" stroke="#4dd2ff" stroke-linecap="round" stroke-linejoin="round" stroke-width=".5" points="139.183 106.701 137.648 104.65 136.703 104.009 134.813 103.625 133.041 103.753 130.561 104.907 129.498 105.932 128.553 107.854 128.317 109.392 127.963 114.519 128.199 119.902 128.435 120.671 129.616 122.593 131.034 123.619 133.396 123.875 135.522 122.978 137.529 120.543 138.12 119.389 138.947 115.672 138.947 112.725 139.537 108.88 139.419 107.47 138.12 105.932 137.057 105.163 134.577 104.009 133.278 104.009 130.443 104.907 129.144 106.06 128.317 107.598 128.081 108.623 128.317 112.853 128.081 114.775"><title>2023-11-03 1.0km</title><desc>10152446508</desc></polyline><polyline fill="none" stroke="#4dd2ff" stroke-linecap="round" stroke-linejoin="round" stroke-width=".5" points="152.059 103.625 153.166 106.028 154.115 110.318 155.696 113.407 158.069 119.585 158.543 120.614 159.334 123.36 159.808 123.875 160.441 123.875 160.441 123.532 159.334 123.017 158.86 121.816 157.752 120.786 156.962 118.555 155.855 116.839 154.589 114.265 153.166 108.945 152.217 106.714"><title>2023-11-02 1.1km</title><desc>10144903556</desc></polyline><polyline fill="none" stroke="#4dd2ff" stroke-linecap="round" stroke-linejoin="round" stroke-width=".5" points="175.302 105.092 175.572 106.707 176.654 109.201 178.547 115.951 181.793 122.701 182.739 123.875 182.198 122.114 180.17 119.033 179.088 115.071 177.736 113.163 176.113 109.641 174.761 103.625"><title>2023-11-01 1.0km</title><desc>10138966680</desc></polyline><polyline fill="none" stroke="#4dd2ff" stroke-linecap="round" stroke-linejoin="round" stroke-width=".5" points="18.303 128.096 19.005 130.38 20.127 136.47 21.952 140.429 23.074 144.083 24.898 148.042 25.039 147.889 23.776 146.062 21.952 141.799 20.408 139.059 17.742 130.989 17.461 127.792"><title>2023-10-31 1.0km</title><desc>10133123337</desc></polyline><polyline fill="none" stroke="#4dd2ff" stroke-linecap="round" stroke-linejoin="round" stroke-width=".5" points="40.571 130.192 41.262 133.792 41.262 135.142 42.782 137.692 46.929 146.542 47.621 147.892 47.897 148.042 44.718 141.742 43.335 137.842 41.815 134.692 39.603 127.792"><title>2023-10-30 1.0km</title><desc>10127985445</desc></polyline><polyline fill="none" stroke="#4dd2ff" stroke-linecap="round" stroke-linejoin="round" stroke-width=".5" points="63.058 130.723 63.672 134.853 64.04 136.185 66.496 141.913 67.723 145.244 69.565 147.775 70.056 148.042 70.179 147.642 69.074 145.91 67.478 142.446 64.654 137.251 63.549 133.387 62.689 131.655 62.567 128.991 62.321 127.792"><title>2023-10-28 1.0km</title><desc>10115543824</desc></polyline><polyline fill="none" stroke="#4dd2ff" stroke-linecap="round" stroke-linejoin="round" stroke-width=".5" points="86.124 131.992 87.229 135.592 88.474 138.442 89.579 142.492 91.238 146.392 91.929 147.892 92.621 148.042 92.759 147.892 92.482 146.992 91.653 144.742 88.888 139.342 86.676 133.342 85.294 130.342 84.741 127.792"><title>2023-10-27 1.0km</title><desc>10110442644</desc></polyline><polyline fill="none" stroke="#4dd2ff" stroke-linecap="round" stroke-linejoin="round" stroke-width=".5" points="108.506 130.919 111.113 139.703 112.073 142.384 113.034 144.021 114.132 147.148 114.543 147.744 115.367 148.042 115.504 147.595 115.367 146.999 113.994 145.213 111.936 141.639 109.466 134.343 107.819 131.663 106.996 127.792"><title>2023-10-26 1.0km</title><desc>10104873905</desc></polyline><polyline fill="none" stroke="#4dd2ff" stroke-linecap="round" stroke-linejoin="round" stroke-width=".5" points="132.736 137.476 135.846 145.254 137.334 147.895 137.875 148.042 137.739 146.574 134.088 140.265 132.06 135.129 130.302 131.46 129.625 127.792"><title>2023-10-25 1.0km</title><desc>10098978222</desc></polyline><polyline fill="none" stroke="#4dd2ff" stroke-linecap="round" stroke-linejoin="round" stroke-width=".5" points="152.504 127.792 152.368 128.826 153.185 132.226 154.275 134.443 154.956 137.104 156.182 140.651 158.77 145.677 159.587 147.746 159.86 148.042 160.132 147.894 159.996 145.972 158.498 143.164 157.408 141.538 156.046 138.434 155.773 136.808 154.139 134.295 153.185 132.078 152.913 129.418 152.504 127.792"><title>2023-10-24 1.0km</title><desc>10092835699</desc></polyline><polyline fill="none" stroke="#4dd2ff" stroke-linecap="round" stroke-linejoin="round" stroke-width=".5" points="176.669 131.288 178.683 138.427 179.623 140.175 180.697 144.545 182.308 147.459 182.979 148.042 182.308 147.313 181.368 144.982 178.951 142.069 178.414 141.049 177.877 137.698 176.266 134.493 175.192 131.142 174.521 127.792"><title>2023-10-23 1.0km</title><desc>10087395010</desc></polyline><polyline fill="none" stroke="#4dd2ff" stroke-linecap="round" stroke-linejoin="round" stroke-width=".5" points="14.694 152.055 15.052 151.958 17.603 152.153 18.721 152.444 18.99 152.59 19.572 153.027 19.975 153.512 20.87 155.163 21.317 157.009 21.899 157.98 22.167 158.757 22.794 160.165 23.241 161.622 23.913 162.788 24.226 163.127 24.629 163.807 24.853 165.264 24.987 165.653 25.345 166.187 25.434 167.012 25.569 167.352 27.538 172.014 27.806 172.208 27.806 171.966 27.403 171.577 26.956 170.509 26.508 169.586 25.3 165.847"><title>2023-10-22 1.5km</title><desc>10080655811</desc></polyline><polyline fill="none" stroke="#4dd2ff" stroke-linecap="round" stroke-linejoin="round" stroke-width=".5" points="40.529 151.958 41.24 152.472 39.961 152.267 41.95 154.837 42.14 155.453 41.998 155.967 41.334 156.327 41.145 156.687 41.192 157.304 41.571 158.794 41.998 159.873 42.471 161.518 43.324 163.009 43.466 163.574 43.987 164.499 44.318 164.91 44.366 165.167 44.697 165.476 44.934 165.989 45.266 166.966 45.597 167.634 45.55 168.97 46.166 170.153 46.355 170.718 46.687 171.335 47.255 172.054 47.539 172.208 46.45 170.666 46.213 169.844 45.739 168.816 45.55 168.148 44.934 167.274 44.413 165.784"><title>2023-10-20 1.4km</title><desc>10069668027</desc></polyline><polyline fill="none" stroke="#4dd2ff" stroke-linecap="round" stroke-linejoin="round" stroke-width=".5" points="62.175 151.958 62.272 152.743 63.043 154.627 63.236 155.778 64.827 159.65 64.972 160.174 65.069 160.958 65.261 161.482 66.419 163.104 67.046 164.36 67.431 165.615 67.769 166.296 67.962 167.342 68.203 167.865 68.83 169.487 68.926 170.115 69.843 171.999 70.084 172.208 70.228 172.208 70.325 172.156 70.277 172.104 69.312 170.9 68.878 169.435 67.962 167.761 67.817 167.08 67.721 165.929"><title>2023-10-19 1.3km</title><desc>10064004415</desc></polyline><polyline fill="none" stroke="#4dd2ff" stroke-linecap="round" stroke-linejoin="round" stroke-width=".5" points="84.184 151.958 86.169 154.543 86.037 156.41 86.301 158.278 87.228 161.581 88.551 163.735 89.875 167.469 92.522 171.777 92.919 172.208 93.316 172.065 91.596 170.341 88.419 164.166 87.625 161.437 85.375 156.698"><title>2023-10-18 1.0km</title><desc>10058081424</desc></polyline><polyline fill="none" stroke="#4dd2ff" stroke-linecap="round" stroke-linejoin="round" stroke-width=".5" points="107.716 153.186 108.847 159.782 111.816 167.606 113.795 171.748 114.643 172.208 115.067 172.208 115.35 171.595 114.36 170.367 113.088 168.373 111.391 164.691 110.684 162.544 107.716 156.561 107.433 155.64 107.15 151.958"><title>2023-10-17 1.0km</title><desc>10051702317</desc></polyline><polyline fill="none" stroke="#4dd2ff" stroke-linecap="round" stroke-linejoin="round" stroke-width=".5" points="129.228 152.426 130.664 154.918 132.817 160.526 133.965 162.706 135.257 166.756 136.836 170.806 137.411 171.897 138.128 172.208 138.272 172.053 138.128 171.585 136.549 169.249 134.396 163.953 132.817 160.681 131.525 154.606 130.807 151.958"><title>2023-10-16 1.0km</title><desc>10046279660</desc></polyline><polyline fill="none" stroke="#4dd2ff" stroke-linecap="round" stroke-linejoin="round" stroke-width=".5" points="152.103 151.958 152.695 153.244 153.288 156.137 154.621 160.637 156.398 163.369 158.472 171.083 159.212 171.887 160.249 172.208 160.397 171.887 160.249 170.923 158.324 168.19 157.287 164.976 156.102 163.048 153.288 156.458 152.251 151.958"><title>2023-10-15 1.0km</title><desc>10039610121</desc></polyline><polyline fill="none" stroke="#4dd2ff" stroke-linecap="round" stroke-linejoin="round" stroke-width=".5" points="174.536 153.428 174.988 158.164 176.192 161.593 177.697 163.716 178.6 166.656 181.158 171.228 181.76 171.882 182.512 172.208 182.964 171.882 182.964 171.392 179.954 168.942 177.998 165.349 177.245 162.247 175.439 158.164 174.536 154.735 174.687 152.612 174.536 151.958"><title>2023-10-14 1.0km</title><desc>10033377496</desc></polyline><polyline fill="none" stroke="#4dd2ff" stroke-linecap="round" stroke-linejoin="round" stroke-width=".5" points="16.659 176.446 19.325 179.661 19.621 182.071 22.139 189.786 24.508 195.411 25.249 196.375 25.841 196.375 25.841 195.893 25.693 195.411 24.36 194.446 22.879 191.714 21.25 186.571 18.288 179.982 17.843 177.732 17.103 176.125"><title>2023-10-13 1.0km</title><desc>10028006924</desc></polyline><polyline fill="none" stroke="#4dd2ff" stroke-linecap="round" stroke-linejoin="round" stroke-width=".5" points="39.405 176.125 40.83 177.98 41.684 179.526 41.827 181.535 41.684 183.699 43.251 186.946 45.103 191.892 46.955 195.293 47.383 195.911 48.095 196.375 48.095 195.602 46.528 193.593 45.103 191.119 43.251 186.018 42.112 184.009 41.542 182.308"><title>2023-10-12 1.0km</title><desc>10021974100</desc></polyline><polyline fill="none" stroke="#4dd2ff" stroke-linecap="round" stroke-linejoin="round" stroke-width=".5" points="63.882 178.996 64.44 182.019 64.3 183.228 65.554 187.308 66.529 189.121 67.503 192.446 68.896 195.771 69.175 196.073 69.871 196.375 69.732 195.771 68.2 191.841 66.529 188.97 64.3 183.832 63.743 181.868 63.465 178.996 62.629 176.125"><title>2023-10-10 1.0km</title><desc>10009069592</desc></polyline><polyline fill="none" stroke="#4dd2ff" stroke-linecap="round" stroke-linejoin="round" stroke-width=".5" points="85.319 178.656 86.28 181.336 87.241 184.91 89.299 189.377 90.946 195.035 91.906 196.375 92.181 195.928 92.318 194.29 91.357 191.461 89.299 187.888 86.966 181.336 86.28 178.358 85.182 176.125"><title>2023-10-09 1.0km</title><desc>10003389142</desc></polyline><polyline fill="none" stroke="#4dd2ff" stroke-linecap="round" stroke-linejoin="round" stroke-width=".5" points="107.127 176.125 108.14 177.381 109.152 179.735 109.731 184.445 111.901 189.154 113.782 194.491 114.65 196.061 115.373 196.375 115.373 195.119 112.624 190.724 109.008 181.933 107.561 176.282"><title>2023-10-08 1.0km</title><desc>9996447828</desc></polyline><polyline fill="none" stroke="#4dd2ff" stroke-linecap="round" stroke-linejoin="round" stroke-width=".5" points="131.151 180.175 131.817 182.634 133.817 187.986 134.483 190.3 136.616 195.652 137.282 196.375 137.416 195.796 137.416 195.218 134.883 190.734 133.683 188.13 131.551 181.766 130.884 178.439 130.084 176.125"><title>2023-10-07 1.0km</title><desc>9989974159</desc></polyline><polyline fill="none" stroke="#4dd2ff" stroke-linecap="round" stroke-linejoin="round" stroke-width=".5" points="154.596 182.157 155.654 185.604 156.449 187.327 158.037 194.077 158.434 195.37 159.228 196.375 159.89 196.375 160.154 195.801 160.022 195.37 158.434 193.072 156.846 189.625 156.316 187.327 153.537 180.577 153.14 178.136 152.346 176.125"><title>2023-10-06 1.0km</title><desc>9984428862</desc></polyline><polyline fill="none" stroke="#4dd2ff" stroke-linecap="round" stroke-linejoin="round" stroke-width=".5" points="174.39 176.125 176.685 182.266 178.215 187.412 180.815 193.885 181.886 196.043 182.345 196.375 182.957 196.375 183.11 196.043 182.651 195.213 180.815 192.557 179.744 190.4 177.909 185.586 177.144 183.096 175.002 179.113 175.002 177.619"><title>2023-10-04 1.0km</title><desc>9971682885</desc></polyline><polyline fill="none" stroke="#4dd2ff" stroke-linecap="round" stroke-linejoin="round" stroke-width=".5" points="18.185 202.657 18.866 205.022 19.547 206.648 20.092 209.16 22.68 214.334 22.817 216.107 23.634 219.655 23.906 220.098 24.724 220.542 24.724 219.064 22.953 215.812 21.727 213.003 21.046 211.673 20.365 209.752 19.002 206.943 18.458 204.726 18.185 202.509 17.776 200.292"><title>2023-10-03 1.0km</title><desc>9965060084</desc></polyline><polyline fill="none" stroke="#4dd2ff" stroke-linecap="round" stroke-linejoin="round" stroke-width=".5" points="40.048 201.128 41.899 207.153 42.208 209.831 43.287 211.17 44.058 213.178 45.447 218.366 46.526 220.04 47.297 220.542 47.452 220.374 46.989 219.035 45.292 215.856 42.516 209.162 40.82 204.141 40.511 200.292"><title>2023-10-02 1.0km</title><desc>9958643020</desc></polyline><polyline fill="none" stroke="#4dd2ff" stroke-linecap="round" stroke-linejoin="round" stroke-width=".5" points="63.04 203.856 63.339 205.314 66.623 213.09 68.265 218.112 69.161 219.894 70.057 220.542 70.206 220.38 70.057 219.732 67.071 215.196 64.235 208.23 62.891 204.018 62.294 200.292"><title>2023-10-01 1.0km</title><desc>9952075403</desc></polyline><polyline fill="none" stroke="#4dd2ff" stroke-linecap="round" stroke-linejoin="round" stroke-width=".5" points="85.843 203.226 87.06 205.721 87.601 208.216 88.006 210.563 90.035 216.286 91.793 219.955 92.604 220.542 92.875 220.101 90.17 215.993 88.953 213.205 88.547 211.737 86.654 207.629 85.572 203.08 84.625 200.292"><title>2023-09-30 1.0km</title><desc>9945549317</desc></polyline><polyline fill="none" stroke="#4dd2ff" stroke-linecap="round" stroke-linejoin="round" stroke-width=".5" points="108.115 200.292 109.458 202.56 109.906 204.342 111.101 207.258 111.698 211.632 112.146 212.928 113.937 217.302 114.385 220.056 114.684 220.38 115.132 220.542 115.281 220.218 112.594 215.358 110.802 211.146 110.205 208.716 108.115 203.856 107.219 200.94"><title>2023-09-28 1.0km</title><desc>9933629332</desc></polyline><polyline fill="none" stroke="#4dd2ff" stroke-linecap="round" stroke-linejoin="round" stroke-width=".5" points="129.791 202.593 130.922 206.581 133.043 209.496 134.457 214.712 136.436 218.241 137.002 220.235 137.567 220.542 137.85 220.081 137.567 219.468 136.436 217.934 133.184 211.337 131.488 206.735 129.65 200.292"><title>2023-09-27 1.0km</title><desc>9927137811</desc></polyline><polyline fill="none" stroke="#4dd2ff" stroke-linecap="round" stroke-linejoin="round" stroke-width=".5" points="157.932 200.292 157.528 202.239 157.125 203.358 156.811 204.721 154.972 208.567 154.029 210.173 153.85 210.855 153.94 211.39 154.164 212.169 154.837 213.824 155.061 214.262 155.33 215.041 156.228 216.161 156.631 217.037 157.08 217.718 157.439 218.692 157.977 219.422 158.65 220.542"><title>2023-09-26 1.0km</title><desc>9920397094</desc></polyline><polyline fill="none" stroke="#4dd2ff" stroke-linecap="round" stroke-linejoin="round" stroke-width=".5" points="178.655 200.292 177.773 203.233 176.89 204.807 176.071 205.833 175.629 206.654 175.44 207.475 175.503 208.501 175.818 209.322 176.575 210.485 176.89 211.648 177.521 213.153 178.718 214.658 180.736 218.763 182.06 220.542"><title>2023-09-25 1.0km</title><desc>9914573673</desc></polyline><polyline fill="none" stroke="#4dd2ff" stroke-linecap="round" stroke-linejoin="round" stroke-width=".5" points="22.743 224.458 22.245 225.214 22.146 225.592 22.245 226.078 22.295 226.564 21.3 228.4 21.051 229.642 20.703 230.56 18.612 234.232 18.563 234.664 18.762 235.528 19.309 236.392 19.608 237.148 20.056 237.904 20.304 238.66 20.951 239.686 21.449 240.712 21.996 241.306 22.146 241.846 22.494 242.278 23.241 243.574 23.788 244.168 23.937 244.708"><title>2023-09-24 1.0km</title><desc>9907510217</desc></polyline><polyline fill="none" stroke="#4dd2ff" stroke-linecap="round" stroke-linejoin="round" stroke-width=".5" points="44.505 224.458 44.082 225.114 43.78 225.769 43.599 226.621 43.539 227.735 42.512 229.111 41.908 230.684 41.364 231.471 41.002 232.519 40.942 233.633 42.21 236.844 42.693 237.827 44.263 240.318 44.928 241.956 45.773 243.004 46.256 243.856 46.558 244.708"><title>2023-09-23 1.0km</title><desc>9901004991</desc></polyline><polyline fill="none" stroke="#4dd2ff" stroke-linecap="round" stroke-linejoin="round" stroke-width=".5" points="67.028 224.458 66.624 225.208 66.221 226.521 65.3 228.458 64.378 229.771 63.572 231.958 63.514 233.146 63.629 233.833 64.781 236.583 64.954 237.396 65.184 237.833 65.991 238.833 66.624 240.083 67.143 241.396 68.007 242.646 68.986 244.708"><title>2023-09-22 1.0km</title><desc>9895405405</desc></polyline><polyline fill="none" stroke="#4dd2ff" stroke-linecap="round" stroke-linejoin="round" stroke-width=".5" points="89.823 224.458 89.658 225.056 89.328 225.414 88.612 226.728 88.337 227.684 87.511 229.775 86.631 231.567 86.08 232.881 85.915 233.538 85.915 233.956 86.08 234.554 86.41 235.151 87.126 237.003 87.842 238.317 88.227 239.273 88.943 240.467 89.383 241.005 89.713 241.961 90.594 243.514 91.585 244.708"><title>2023-09-21 1.0km</title><desc>9889267953</desc></polyline><polyline fill="none" stroke="#4dd2ff" stroke-linecap="round" stroke-linejoin="round" stroke-width=".5" points="113.312 224.458 112.589 226.626 112.164 228.333 111.484 229.763 110.676 232.162 109.273 234.791 108.891 236.221 108.933 236.544 109.188 237.236 109.741 238.435 110.081 239.45 110.931 240.649 111.441 241.618 111.739 242.31 112.079 242.909 112.632 243.325 113.312 244.339 113.354 244.524 113.609 244.708"><title>2023-09-20 1.0km</title><desc>9882714971</desc></polyline><polyline fill="none" stroke="#4dd2ff" stroke-linecap="round" stroke-linejoin="round" stroke-width=".5" points="135.429 224.458 134.997 225.552 134.182 227.946 134.134 228.727 133.846 229.143 133.51 229.924 133.318 230.653 132.934 231.642 131.831 233.412 131.543 234.453 131.447 235.39 131.543 236.327 131.831 237.368 132.167 238.097 133.222 239.919 133.75 240.648 134.23 241.949 134.709 242.782 135.189 243.459 135.717 243.98 136.053 244.708"><title>2023-09-19 1.0km</title><desc>9876194288</desc></polyline><polyline fill="none" stroke="#4dd2ff" stroke-linecap="round" stroke-linejoin="round" stroke-width=".5" points="156.101 224.458 155.743 225.041 155.147 226.205 154.968 226.982 153.895 228.858 153.06 230.605 152.881 231.252 152.941 231.963 153.299 232.869 153.835 233.839 154.312 235.198 154.968 236.621 155.684 237.915 156.339 238.756 157.115 240.05 157.591 241.538 158.426 242.832 158.844 243.997 159.619 244.708"><title>2023-09-18 1.0km</title><desc>9870505463</desc></polyline><polyline fill="none" stroke="#4dd2ff" stroke-linecap="round" stroke-linejoin="round" stroke-width=".5" points="178.953 224.458 178.663 225.026 178.256 226.919 177.733 227.802 177.5 228.496 176.221 230.578 175.756 231.713 175.465 232.722 175.698 233.416 176.977 236.192 177.616 237.201 178.081 238.274 178.837 239.283 179.244 239.977 179.767 241.617 182.035 244.708"><title>2023-09-16 1.0km</title><desc>9856514700</desc></polyline><polyline fill="none" stroke="#4dd2ff" stroke-linecap="round" stroke-linejoin="round" stroke-width=".5" points="20.97 248.625 20.348 250.515 19.539 251.798 17.86 255.038 17.798 255.78 17.86 256.658 18.233 257.535 18.855 258.48 19.415 259.763 20.41 261.45 21.654 263.813 21.779 264.69 22.214 265.028 22.712 265.703 23.521 267.053 24.391 267.795 24.578 268.268 24.702 268.875"><title>2023-09-15 1.0km</title><desc>9850671982</desc></polyline><polyline fill="none" stroke="#4dd2ff" stroke-linecap="round" stroke-linejoin="round" stroke-width=".5" points="44.265 248.625 43.235 251.348 42.077 253.024 41.562 253.932 40.79 255.887 40.597 256.585 40.597 257.144 40.79 257.842 41.562 259.937 42.27 261.334 44.007 264.336 44.715 265.663 44.844 266.431 45.359 266.92 46.195 268.247 46.903 268.875"><title>2023-09-14 1.0km</title><desc>9844236351</desc></polyline><polyline fill="none" stroke="#4dd2ff" stroke-linecap="round" stroke-linejoin="round" stroke-width=".5" points="63.032 248.625 63.402 248.926 63.541 249.228 63.634 249.881 63.911 250.434 64.097 251.992 64.097 252.745 64.004 253.147 64.097 253.65 64.328 254.253 64.236 254.755 64.282 255.007 64.745 255.861 65.162 257.117 65.532 257.82 65.995 258.474 66.505 258.926 66.644 259.227 66.783 259.881 67.153 260.534 67.57 261.74 68.125 262.795 68.403 263.699 68.542 264.453 68.82 265.056 69.329 266.714 70.024 268.021 70.07 268.222 70.024 268.373 69.468 268.875 69.746 268.674 69.885 268.373 69.978 268.121 69.931 267.77 69.654 267.418 68.82 265.609 68.403 264.252 67.523 262.293 67.107 260.383 66.875 259.83 65.995 258.675 65.115 257.017 64.699 255.66 64.56 254.755 64.189 253.801 63.448 252.193 63.263 251.439 62.615 250.233 62.476 249.58 62.43 248.776"><title>2023-09-13 1.0km</title><desc>9837636972</desc></polyline></svg>