<svg xmlns="http://www.w3.org/2000/svg" xmlns:ev="http://www.w3.org/2001/xml-events" xmlns:xlink="http://www.w3.org/1999/xlink" width="200mm" height="300mm" baseProfile="full" version="1.1" viewBox="0 0 200 300"><rect width="200" height="300" x="0" y="0" fill="#222"/><text fill="#FFF" style="font-size:12px;font-family:Arial;font-weight:700" x="10" y="20">Over 1km Runs</text><text fill="#FFF" style="font-size:4px;font-family:Arial" x="10" y="280">ATHLETE</text><text fill="#FFF" style="font-size:9px;font-family:Arial" x="10" y="290">Jiakai</text><text fill="#FFF" style="font-size:4px;font-family:Arial" x="120" y="280">STATISTICS</text><text fill="#FFF" style="font-size:3px;font-family:Arial" x="120" y="285">Number: 62</text><text fill="#FFF" style="font-size:3px;font-family:Arial" x="120" y="290">Weekly: 5.6</text><text fill="#FFF" style="font-size:3px;font-family:Arial" x="141" y="285">Total: 64.3 km</text><text fill="#FFF" style="font-size:3px;font-family:Arial" x="141" y="290">Avg: 1.0 km</text><text fill="#FFF" style="font-size:3px;font-family:Arial" x="167" y="285">Min: 1.0 km</text><text fill="#FFF" style="font-size:3px;font-family:Arial" x="167" y="290">Max: 1.5 km</text><polyline fill="none" stroke="#4dd2ff" stroke-linecap="round" stroke-linejoin="round" stroke-width=".5" points="20.366 37.536 21.145 42.604 24.414 50.881 25.815 53.922 26.282 54.429 26.593 54.26 26.749 53.922 26.126 51.219 23.324 45.138 22.234 41.928 20.522 35.34 19.588 33.651 18.965 31.286"><title>2023-11-20 1.0km</title><desc>10248671423</desc></polyline><polyline fill="none" stroke="#4dd2ff" stroke-linecap="round" stroke-linejoin="round" stroke-width=".5" points="44.451 33.214 46.713 38.123 47.36 43.208 49.137 47.24 50.914 52.325 51.722 53.552 52.692 54.429 52.53 53.026 49.783 45.838 48.006 39.351 46.229 35.143 45.259 31.286"><title>2023-11-19 1.0km</title><desc>10242265034</desc></polyline><polyline fill="none" stroke="#4dd2ff" stroke-linecap="round" stroke-linejoin="round" stroke-width=".5" points="69.788 51.906 70.799 48.725 71.203 47.957 71.91 47.519 75.347 47.08 77.874 46.532 78.683 45.873 79.188 45.215 79.794 42.473 79.592 41.596 79.997 40.938 79.693 35.892 79.491 35.234 79.39 33.26 79.188 32.053 78.076 31.724 77.166 32.383 77.369 32.053 77.571 32.383 76.257 31.724 76.156 31.286 75.852 31.505 76.055 31.395 75.347 32.273 75.448 32.163 77.571 33.26 77.065 33.699 76.257 34.028 74.336 34.357 74.235 33.918 74.741 33.699 75.448 33.808 77.571 31.724 80.502 31.834 80.199 31.615 79.794 31.505 79.491 36.77 79.592 38.305 79.895 40.17 80.098 43.351 80.098 44.448 79.794 45.544 79.188 46.202 74.134 46.751 71.809 47.19 70.596 48.067 69.181 50.041 68.373 52.893 68.07 54.429"><title>2023-11-18 1.0km</title><desc>10236386505</desc></polyline><polyline fill="none" stroke="#4dd2ff" stroke-linecap="round" stroke-linejoin="round" stroke-width=".5" points="95.277 31.286 98.629 37.071 99.848 41.369 100.305 43.849 101.219 45.337 104.113 53.767 104.723 54.429 104.723 53.767 104.113 52.941 102.437 47.982 101.523 46.329 101.219 43.518 99.848 40.047 98.324 36.741 98.172 34.922"><title>2023-11-17 1.0km</title><desc>10231268371</desc></polyline><polyline fill="none" stroke="#4dd2ff" stroke-linecap="round" stroke-linejoin="round" stroke-width=".5" points="121.586 32.032 123.822 35.205 124.338 39.498 125.886 42.857 128.294 51.816 129.842 54.429 129.67 52.935 128.466 50.509 127.606 48.083 126.23 42.297 123.478 36.512 122.618 33.899 122.102 31.286"><title>2023-11-16 1.0km</title><desc>10225818993</desc></polyline><polyline fill="none" stroke="#4dd2ff" stroke-linecap="round" stroke-linejoin="round" stroke-width=".5" points="147.415 31.535 148.562 36.014 150.397 40.991 152.919 45.719 153.837 49.452 155.442 52.687 157.047 54.429 152.919 46.714 151.085 40.991 145.81 31.286"><title>2023-11-15 1.0km</title><desc>10219684298</desc></polyline><polyline fill="none" stroke="#4dd2ff" stroke-linecap="round" stroke-linejoin="round" stroke-width=".5" points="173.054 34.07 175.138 36.68 175.459 39.986 177.864 45.728 179.308 50.6 180.751 54.255 181.392 54.429 181.232 52.341 179.147 49.556 178.346 47.12 177.063 45.554 176.582 43.64 174.176 38.768 173.374 35.288 172.893 31.286"><title>2023-11-14 1.0km</title><desc>10213806154</desc></polyline><polyline fill="none" stroke="#4dd2ff" stroke-linecap="round" stroke-linejoin="round" stroke-width=".5" points="19.766 61.258 21.003 65.953 24.403 74.674 25.175 77.525 26.721 80.711 27.185 81.214 26.257 79.537 24.094 74.339 23.939 72.997 22.393 69.307 20.075 65.115 19.148 62.264 18.53 58.071"><title>2023-11-13 1.0km</title><desc>10208522228</desc></polyline><polyline fill="none" stroke="#4dd2ff" stroke-linecap="round" stroke-linejoin="round" stroke-width=".5" points="45.986 60.701 47.602 65.61 49.541 69.643 50.672 74.377 51.803 77.708 53.257 80.864 53.903 81.214 54.227 80.513 52.449 77.007 51.48 73.149 47.925 69.818 45.986 67.013 45.663 64.032 42.916 58.071"><title>2023-11-12 1.0km</title><desc>10202270880</desc></polyline><polyline fill="none" stroke="#4dd2ff" stroke-linecap="round" stroke-linejoin="round" stroke-width=".5" points="70.784 62.389 74.604 71.025 75.877 75.342 77.151 78.796 77.946 80.351 78.742 81.214 78.901 80.523 77.469 76.206 74.763 72.061 71.898 65.498 70.784 60.835 69.67 58.071"><title>2023-11-11 1.0km</title><desc>10196068378</desc></polyline><polyline fill="none" stroke="#4dd2ff" stroke-linecap="round" stroke-linejoin="round" stroke-width=".5" points="97.848 61.523 100.468 69.44 102.9 75.936 104.022 80.199 104.771 81.214 105.145 80.808 104.584 78.372 101.777 72.079 98.971 66.192 95.229 60.305 94.855 58.071"><title>2023-11-10 1.0km</title><desc>10191120477</desc></polyline><polyline fill="none" stroke="#4dd2ff" stroke-linecap="round" stroke-linejoin="round" stroke-width=".5" points="120.342 58.778 123.109 60.898 124.737 63.725 125.226 64.785 125.226 66.375 127.017 71.851 127.668 75.031 128.97 78.564 129.296 80.331 130.11 81.214 130.599 81.038 131.087 80.331 129.296 79.094 126.366 74.854 122.947 65.491 122.132 60.191 121.318 58.071"><title>2023-11-09 1.0km</title><desc>10185506531</desc></polyline><polyline fill="none" stroke="#4dd2ff" stroke-linecap="round" stroke-linejoin="round" stroke-width=".5" points="146.914 59.93 148.626 63.308 149.249 64.997 151.273 69.389 152.051 72.43 151.896 70.572 152.207 71.754 152.83 76.315 154.231 80.539 154.853 81.214 155.632 80.876 155.943 80.37 154.231 78.849 152.985 76.822 152.207 74.626 151.117 70.91 149.56 68.714 147.848 64.997 147.381 62.295 147.537 58.916 147.225 58.071"><title>2023-11-08 1.0km</title><desc>10179505859</desc></polyline><polyline fill="none" stroke="#4dd2ff" stroke-linecap="round" stroke-linejoin="round" stroke-width=".5" points="176.099 70.857 181.319 81.214 181.617 81.052 180.872 79.272 179.529 77.007 178.634 74.741 176.845 72.799 176.248 71.666 175.801 67.782 175.502 66.649 173.712 63.574 172.668 58.071"><title>2023-11-06 1.0km</title><desc>10167691585</desc></polyline><polyline fill="none" stroke="#4dd2ff" stroke-linecap="round" stroke-linejoin="round" stroke-width=".5" points="20.632 91.35 21.706 93.348 25.696 102.506 27.384 107.667 27.69 108 27.997 108 27.997 107.501 26.77 104.837 25.696 103.338 25.542 102.506 24.622 101.507 22.013 97.011 18.944 89.186 17.717 84.857"><title>2023-11-05 1.1km</title><desc>10161301187</desc></polyline><polyline fill="none" stroke="#4dd2ff" stroke-linecap="round" stroke-linejoin="round" stroke-width=".5" points="44.244 84.857 47.335 91.733 48.726 97.77 50.89 101.963 51.662 105.317 52.435 108 52.899 107.497 52.744 106.994 50.735 103.304 50.581 102.801 48.726 99.95 47.953 97.267 45.944 93.578 45.48 90.391 44.553 87.037"><title>2023-11-04 1.0km</title><desc>10155501797</desc></polyline><polyline fill="none" stroke="#4dd2ff" stroke-linecap="round" stroke-linejoin="round" stroke-width=".5" points="80.495 88.373 78.74 86.029 77.66 85.297 75.501 84.857 73.476 85.004 70.641 86.322 69.426 87.494 68.347 89.691 68.077 91.448 67.672 97.307 67.942 103.459 68.212 104.338 69.561 106.535 71.181 107.707 73.881 108 76.31 106.975 78.605 104.192 79.28 102.873 80.225 98.626 80.225 95.257 80.9 90.863 80.765 89.251 79.28 87.494 78.065 86.615 75.231 85.297 73.746 85.297 70.506 86.322 69.022 87.64 68.077 89.398 67.807 90.57 68.077 95.403 67.807 97.6"><title>2023-11-03 1.0km</title><desc>10152446508</desc></polyline><polyline fill="none" stroke="#4dd2ff" stroke-linecap="round" stroke-linejoin="round" stroke-width=".5" points="95.21 84.857 96.475 87.603 97.56 92.506 99.367 96.036 102.079 103.097 102.621 104.274 103.525 107.412 104.067 108 104.79 108 104.79 107.608 103.525 107.019 102.982 105.646 101.717 104.47 100.813 101.92 99.548 99.959 98.102 97.017 96.475 90.937 95.391 88.387"><title>2023-11-02 1.1km</title><desc>10144903556</desc></polyline><polyline fill="none" stroke="#4dd2ff" stroke-linecap="round" stroke-linejoin="round" stroke-width=".5" points="121.773 86.534 122.082 88.379 123.319 91.23 125.482 98.944 129.192 106.658 130.274 108 129.655 105.988 127.337 102.466 126.101 97.938 124.555 95.758 122.701 91.733 121.155 84.857"><title>2023-11-01 1.0km</title><desc>10138966680</desc></polyline><polyline fill="none" stroke="#4dd2ff" stroke-linecap="round" stroke-linejoin="round" stroke-width=".5" points="148.061 85.205 148.863 87.815 150.146 94.776 152.23 99.3 153.513 103.476 155.598 108 155.758 107.826 154.315 105.738 152.23 100.866 150.466 97.734 147.42 88.511 147.099 84.857"><title>2023-10-31 1.0km</title><desc>10133123337</desc></polyline><polyline fill="none" stroke="#4dd2ff" stroke-linecap="round" stroke-linejoin="round" stroke-width=".5" points="173.509 87.6 174.299 91.714 174.299 93.257 176.037 96.171 180.777 106.286 181.566 107.829 181.882 108 178.249 100.8 176.669 96.343 174.931 92.743 172.403 84.857"><title>2023-10-30 1.0km</title><desc>10127985445</desc></polyline><polyline fill="none" stroke="#4dd2ff" stroke-linecap="round" stroke-linejoin="round" stroke-width=".5" points="19.209 114.992 19.911 119.712 20.331 121.235 23.138 127.782 24.541 131.588 26.646 134.481 27.207 134.786 27.347 134.329 26.084 132.35 24.26 128.391 21.033 122.453 19.77 118.038 18.788 116.058 18.648 113.013 18.367 111.643"><title>2023-10-28 1.0km</title><desc>10115543824</desc></polyline><polyline fill="none" stroke="#4dd2ff" stroke-linecap="round" stroke-linejoin="round" stroke-width=".5" points="45.57 116.443 46.834 120.557 48.255 123.814 49.519 128.443 51.415 132.9 52.205 134.614 52.995 134.786 53.153 134.614 52.837 133.586 51.889 131.014 48.729 124.843 46.202 117.986 44.622 114.557 43.99 111.643"><title>2023-10-27 1.0km</title><desc>10110442644</desc></polyline><polyline fill="none" stroke="#4dd2ff" stroke-linecap="round" stroke-linejoin="round" stroke-width=".5" points="71.149 115.216 74.129 125.256 75.227 128.319 76.324 130.191 77.579 133.765 78.049 134.445 78.99 134.786 79.147 134.275 78.99 133.595 77.422 131.553 75.07 127.469 72.247 119.13 70.365 116.067 69.424 111.643"><title>2023-10-26 1.0km</title><desc>10104873905</desc></polyline><polyline fill="none" stroke="#4dd2ff" stroke-linecap="round" stroke-linejoin="round" stroke-width=".5" points="98.841 122.711 102.396 131.599 104.096 134.618 104.714 134.786 104.559 133.109 100.386 125.898 98.068 120.028 96.059 115.835 95.286 111.643"><title>2023-10-25 1.0km</title><desc>10098978222</desc></polyline><polyline fill="none" stroke="#4dd2ff" stroke-linecap="round" stroke-linejoin="round" stroke-width=".5" points="121.433 111.643 121.277 112.825 122.212 116.711 123.457 119.245 124.235 122.285 125.636 126.339 128.594 132.083 129.528 134.448 129.84 134.786 130.151 134.617 129.995 132.421 128.283 129.211 127.038 127.353 125.481 123.806 125.169 121.947 123.301 119.076 122.212 116.542 121.9 113.501 121.433 111.643"><title>2023-10-24 1.0km</title><desc>10092835699</desc></polyline><polyline fill="none" stroke="#4dd2ff" stroke-linecap="round" stroke-linejoin="round" stroke-width=".5" points="149.05 115.639 151.352 123.797 152.426 125.795 153.653 130.79 155.495 134.12 156.262 134.786 155.495 133.953 154.421 131.289 151.659 127.959 151.045 126.794 150.431 122.965 148.59 119.302 147.362 115.472 146.595 111.643"><title>2023-10-23 1.0km</title><desc>10087395010</desc></polyline><polyline fill="none" stroke="#4dd2ff" stroke-linecap="round" stroke-linejoin="round" stroke-width=".5" points="169.65 111.754 170.059 111.643 172.974 111.865 174.253 112.198 174.56 112.364 175.225 112.864 175.685 113.419 176.708 115.306 177.22 117.415 177.884 118.525 178.191 119.413 178.907 121.022 179.419 122.687 180.186 124.019 180.544 124.408 181.004 125.185 181.26 126.85 181.414 127.294 181.823 127.904 181.925 128.847 182.078 129.236 184.329 134.564 184.636 134.786 184.636 134.508 184.175 134.064 183.664 132.843 183.152 131.789 181.772 127.515"><title>2023-10-22 1.5km</title><desc>10080655811</desc></polyline><polyline fill="none" stroke="#4dd2ff" stroke-linecap="round" stroke-linejoin="round" stroke-width=".5" points="19.176 138.429 19.988 139.016 18.527 138.781 20.8 141.718 21.017 142.423 20.854 143.01 20.096 143.421 19.88 143.833 19.934 144.537 20.367 146.241 20.854 147.474 21.396 149.354 22.37 151.057 22.532 151.703 23.128 152.761 23.507 153.231 23.561 153.524 23.94 153.877 24.21 154.464 24.589 155.58 24.968 156.344 24.914 157.871 25.618 159.222 25.834 159.868 26.213 160.573 26.863 161.395 27.188 161.571 25.943 159.809 25.672 158.87 25.131 157.695 24.914 156.931 24.21 155.933 23.615 154.229"><title>2023-10-20 1.4km</title><desc>10069668027</desc></polyline><polyline fill="none" stroke="#4dd2ff" stroke-linecap="round" stroke-linejoin="round" stroke-width=".5" points="43.915 138.429 44.025 139.326 44.907 141.478 45.127 142.794 46.946 147.219 47.111 147.817 47.221 148.714 47.442 149.312 48.764 151.166 49.481 152.601 49.922 154.037 50.307 154.814 50.528 156.01 50.803 156.608 51.52 158.462 51.63 159.179 52.677 161.332 52.953 161.571 53.118 161.571 53.228 161.512 53.173 161.452 52.071 160.076 51.575 158.402 50.528 156.488 50.363 155.711 50.252 154.395"><title>2023-10-19 1.3km</title><desc>10064004415</desc></polyline><polyline fill="none" stroke="#4dd2ff" stroke-linecap="round" stroke-linejoin="round" stroke-width=".5" points="69.067 138.429 71.336 141.383 71.185 143.517 71.487 145.65 72.546 149.426 74.059 151.888 75.571 156.155 78.597 161.079 79.05 161.571 79.504 161.407 77.538 159.438 73.908 152.38 73 149.261 70.429 143.845"><title>2023-10-18 1.0km</title><desc>10058081424</desc></polyline><polyline fill="none" stroke="#4dd2ff" stroke-linecap="round" stroke-linejoin="round" stroke-width=".5" points="95.961 139.831 97.253 147.37 100.646 156.312 102.908 161.045 103.878 161.571 104.363 161.571 104.686 160.87 103.555 159.468 102.1 157.188 100.162 152.981 99.354 150.526 95.961 143.688 95.637 142.636 95.314 138.429"><title>2023-10-17 1.0km</title><desc>10051702317</desc></polyline><polyline fill="none" stroke="#4dd2ff" stroke-linecap="round" stroke-linejoin="round" stroke-width=".5" points="120.546 138.963 122.187 141.811 124.648 148.22 125.96 150.712 127.437 155.341 129.242 159.969 129.898 161.215 130.718 161.571 130.882 161.393 130.718 160.859 128.913 158.189 126.453 152.136 124.648 148.398 123.171 141.455 122.351 138.429"><title>2023-10-16 1.0km</title><desc>10046279660</desc></polyline><polyline fill="none" stroke="#4dd2ff" stroke-linecap="round" stroke-linejoin="round" stroke-width=".5" points="146.689 138.429 147.366 139.898 148.043 143.204 149.567 148.347 151.598 151.469 153.968 160.286 154.814 161.204 155.999 161.571 156.168 161.204 155.999 160.102 153.798 156.98 152.613 153.306 151.259 151.102 148.043 143.571 146.858 138.429"><title>2023-10-15 1.0km</title><desc>10039610121</desc></polyline><polyline fill="none" stroke="#4dd2ff" stroke-linecap="round" stroke-linejoin="round" stroke-width=".5" points="172.327 140.108 172.843 145.521 174.219 149.44 175.939 151.866 176.971 155.226 179.895 160.452 180.583 161.198 181.443 161.571 181.959 161.198 181.959 160.638 178.519 157.839 176.283 153.733 175.423 150.187 173.359 145.521 172.327 141.601 172.499 139.175 172.327 138.429"><title>2023-10-14 1.0km</title><desc>10033377496</desc></polyline><polyline fill="none" stroke="#4dd2ff" stroke-linecap="round" stroke-linejoin="round" stroke-width=".5" points="17.61 165.582 20.657 169.255 20.995 172.01 23.873 180.827 26.581 187.255 27.427 188.357 28.104 188.357 28.104 187.806 27.935 187.255 26.412 186.153 24.719 183.031 22.857 177.153 19.472 169.622 18.964 167.051 18.118 165.214"><title>2023-10-13 1.0km</title><desc>10028006924</desc></polyline><polyline fill="none" stroke="#4dd2ff" stroke-linecap="round" stroke-linejoin="round" stroke-width=".5" points="43.606 165.214 45.234 167.334 46.211 169.101 46.374 171.398 46.211 173.871 48.002 177.581 50.118 183.234 52.235 187.121 52.723 187.827 53.537 188.357 53.537 187.474 51.746 185.177 50.118 182.351 48.002 176.521 46.699 174.224 46.048 172.281"><title>2023-10-12 1.0km</title><desc>10021974100</desc></polyline><polyline fill="none" stroke="#4dd2ff" stroke-linecap="round" stroke-linejoin="round" stroke-width=".5" points="71.58 168.496 72.217 171.95 72.057 173.332 73.49 177.995 74.604 180.067 75.718 183.867 77.31 187.666 77.628 188.012 78.424 188.357 78.265 187.666 76.514 183.176 74.604 179.894 72.057 174.022 71.421 171.777 71.102 168.496 70.147 165.214"><title>2023-10-10 1.0km</title><desc>10009069592</desc></polyline><polyline fill="none" stroke="#4dd2ff" stroke-linecap="round" stroke-linejoin="round" stroke-width=".5" points="96.079 168.107 97.177 171.17 98.275 175.254 100.627 180.359 102.509 186.826 103.607 188.357 103.921 187.847 104.077 185.975 102.98 182.742 100.627 178.658 97.961 171.17 97.177 167.767 95.923 165.214"><title>2023-10-09 1.0km</title><desc>10003389142</desc></polyline><polyline fill="none" stroke="#4dd2ff" stroke-linecap="round" stroke-linejoin="round" stroke-width=".5" points="121.002 165.214 122.16 166.65 123.317 169.341 123.978 174.723 126.458 180.105 128.608 186.204 129.6 187.998 130.426 188.357 130.426 186.922 127.285 181.899 123.152 171.852 121.498 165.394"><title>2023-10-08 1.0km</title><desc>9996447828</desc></polyline><polyline fill="none" stroke="#4dd2ff" stroke-linecap="round" stroke-linejoin="round" stroke-width=".5" points="148.458 169.843 149.22 172.653 151.505 178.769 152.266 181.414 154.704 187.531 155.466 188.357 155.618 187.696 155.618 187.035 152.723 181.91 151.352 178.935 148.915 171.661 148.153 167.859 147.239 165.214"><title>2023-10-07 1.0km</title><desc>9989974159</desc></polyline><polyline fill="none" stroke="#4dd2ff" stroke-linecap="round" stroke-linejoin="round" stroke-width=".5" points="175.252 172.108 176.462 176.047 177.37 178.017 179.185 185.731 179.639 187.208 180.546 188.357 181.303 188.357 181.605 187.701 181.454 187.208 179.639 184.582 177.824 180.643 177.218 178.017 174.042 170.302 173.588 167.512 172.681 165.214"><title>2023-10-06 1.0km</title><desc>9984428862</desc></polyline><polyline fill="none" stroke="#4dd2ff" stroke-linecap="round" stroke-linejoin="round" stroke-width=".5" points="17.875 192 20.497 199.019 22.245 204.899 25.217 212.297 26.441 214.763 26.965 215.143 27.665 215.143 27.839 214.763 27.315 213.815 25.217 210.78 23.993 208.314 21.896 202.813 21.022 199.967 18.574 195.415 18.574 193.707"><title>2023-10-04 1.0km</title><desc>9971682885</desc></polyline><polyline fill="none" stroke="#4dd2ff" stroke-linecap="round" stroke-linejoin="round" stroke-width=".5" points="45.069 194.703 45.847 197.406 46.625 199.264 47.248 202.136 50.206 208.048 50.362 210.075 51.296 214.129 51.607 214.636 52.541 215.143 52.541 213.454 50.517 209.737 49.116 206.528 48.338 205.007 47.56 202.811 46.003 199.602 45.38 197.068 45.069 194.534 44.602 192"><title>2023-10-03 1.0km</title><desc>9965060084</desc></polyline><polyline fill="none" stroke="#4dd2ff" stroke-linecap="round" stroke-linejoin="round" stroke-width=".5" points="70.055 192.956 72.171 199.842 72.523 202.902 73.757 204.432 74.638 206.727 76.225 212.656 77.458 214.569 78.34 215.143 78.516 214.952 77.987 213.421 76.048 209.788 72.876 202.137 70.937 196.399 70.584 192"><title>2023-10-02 1.0km</title><desc>9958643020</desc></polyline><polyline fill="none" stroke="#4dd2ff" stroke-linecap="round" stroke-linejoin="round" stroke-width=".5" points="96.332 196.073 96.673 197.739 100.427 206.626 102.303 212.366 103.327 214.402 104.351 215.143 104.522 214.958 104.351 214.217 100.938 209.033 97.697 201.072 96.161 196.258 95.478 192"><title>2023-10-01 1.0km</title><desc>9952075403</desc></polyline><polyline fill="none" stroke="#4dd2ff" stroke-linecap="round" stroke-linejoin="round" stroke-width=".5" points="122.391 195.354 123.782 198.205 124.401 201.056 124.864 203.739 127.183 210.28 129.192 214.472 130.119 215.143 130.428 214.64 127.337 209.944 125.946 206.758 125.482 205.081 123.319 200.385 122.082 195.186 121.001 192"><title>2023-09-30 1.0km</title><desc>9945549317</desc></polyline><polyline fill="none" stroke="#4dd2ff" stroke-linecap="round" stroke-linejoin="round" stroke-width=".5" points="147.845 192 149.381 194.592 149.893 196.629 151.258 199.961 151.94 204.96 152.452 206.441 154.5 211.44 155.012 214.587 155.353 214.958 155.865 215.143 156.035 214.773 152.964 209.218 150.917 204.405 150.234 201.627 147.845 196.073 146.822 192.741"><title>2023-09-28 1.0km</title><desc>9933629332</desc></polyline><polyline fill="none" stroke="#4dd2ff" stroke-linecap="round" stroke-linejoin="round" stroke-width=".5" points="172.619 194.63 173.911 199.188 176.335 202.52 177.951 208.481 180.213 212.513 180.859 214.792 181.505 215.143 181.829 214.617 181.505 213.916 180.213 212.162 176.497 204.623 174.558 199.364 172.457 192"><title>2023-09-27 1.0km</title><desc>9927137811</desc></polyline><polyline fill="none" stroke="#4dd2ff" stroke-linecap="round" stroke-linejoin="round" stroke-width=".5" points="24.78 218.786 24.318 221.011 23.857 222.291 23.498 223.848 21.396 228.243 20.319 230.079 20.114 230.858 20.217 231.47 20.473 232.36 21.242 234.251 21.499 234.752 21.806 235.642 22.832 236.922 23.293 237.923 23.806 238.702 24.216 239.815 24.831 240.649 25.6 241.929"><title>2023-09-26 1.0km</title><desc>9920397094</desc></polyline><polyline fill="none" stroke="#4dd2ff" stroke-linecap="round" stroke-linejoin="round" stroke-width=".5" points="48.463 218.786 47.455 222.148 46.446 223.946 45.509 225.119 45.005 226.057 44.789 226.995 44.861 228.168 45.221 229.106 46.086 230.435 46.446 231.765 47.166 233.485 48.535 235.205 50.841 239.896 52.354 241.929"><title>2023-09-25 1.0km</title><desc>9914573673</desc></polyline><polyline fill="none" stroke="#4dd2ff" stroke-linecap="round" stroke-linejoin="round" stroke-width=".5" points="75.992 218.786 75.423 219.65 75.309 220.082 75.423 220.637 75.48 221.193 74.343 223.291 74.058 224.71 73.66 225.759 71.271 229.956 71.215 230.45 71.442 231.437 72.068 232.425 72.409 233.289 72.921 234.153 73.205 235.017 73.944 236.189 74.513 237.362 75.139 238.041 75.309 238.658 75.708 239.151 76.561 240.633 77.186 241.311 77.357 241.929"><title>2023-09-24 1.0km</title><desc>9907510217</desc></polyline><polyline fill="none" stroke="#4dd2ff" stroke-linecap="round" stroke-linejoin="round" stroke-width=".5" points="100.863 218.786 100.38 219.535 100.035 220.284 99.827 221.257 99.758 222.531 98.585 224.103 97.895 225.901 97.274 226.8 96.86 227.998 96.791 229.271 98.24 232.941 98.792 234.065 100.587 236.911 101.346 238.783 102.312 239.981 102.864 240.955 103.209 241.929"><title>2023-09-23 1.0km</title><desc>9901004991</desc></polyline><polyline fill="none" stroke="#4dd2ff" stroke-linecap="round" stroke-linejoin="round" stroke-width=".5" points="126.603 218.786 126.142 219.643 125.681 221.143 124.628 223.357 123.575 224.857 122.653 227.357 122.588 228.714 122.719 229.5 124.036 232.643 124.233 233.571 124.497 234.071 125.418 235.214 126.142 236.643 126.735 238.143 127.722 239.571 128.841 241.929"><title>2023-09-22 1.0km</title><desc>9895405405</desc></polyline><polyline fill="none" stroke="#4dd2ff" stroke-linecap="round" stroke-linejoin="round" stroke-width=".5" points="152.655 218.786 152.467 219.468 152.089 219.878 151.271 221.38 150.957 222.472 150.013 224.862 149.006 226.91 148.377 228.412 148.189 229.163 148.189 229.64 148.377 230.323 148.755 231.006 149.573 233.122 150.391 234.624 150.831 235.716 151.649 237.082 152.152 237.696 152.53 238.788 153.536 240.563 154.669 241.929"><title>2023-09-21 1.0km</title><desc>9889267953</desc></polyline><polyline fill="none" stroke="#4dd2ff" stroke-linecap="round" stroke-linejoin="round" stroke-width=".5" points="179.499 218.786 178.673 221.263 178.187 223.214 177.41 224.848 176.487 227.59 174.884 230.594 174.447 232.229 174.495 232.598 174.787 233.388 175.418 234.759 175.807 235.919 176.778 237.29 177.361 238.397 177.702 239.187 178.09 239.873 178.722 240.347 179.499 241.507 179.548 241.718 179.839 241.929"><title>2023-09-20 1.0km</title><desc>9882714971</desc></polyline><polyline fill="none" stroke="#4dd2ff" stroke-linecap="round" stroke-linejoin="round" stroke-width=".5" points="24.776 245.571 24.283 246.821 23.351 249.558 23.296 250.45 22.967 250.926 22.583 251.818 22.364 252.651 21.925 253.782 20.664 255.804 20.335 256.994 20.225 258.065 20.335 259.136 20.664 260.326 21.048 261.159 22.254 263.241 22.857 264.074 23.405 265.561 23.954 266.513 24.502 267.286 25.105 267.881 25.489 268.714"><title>2023-09-19 1.0km</title><desc>9876194288</desc></polyline><polyline fill="none" stroke="#4dd2ff" stroke-linecap="round" stroke-linejoin="round" stroke-width=".5" points="48.401 245.571 47.992 246.237 47.311 247.568 47.106 248.455 45.88 250.599 44.926 252.596 44.722 253.335 44.79 254.148 45.199 255.184 45.812 256.293 46.357 257.845 47.106 259.472 47.924 260.951 48.674 261.912 49.559 263.391 50.105 265.091 51.059 266.57 51.535 267.901 52.421 268.714"><title>2023-09-18 1.0km</title><desc>9870505463</desc></polyline><polyline fill="none" stroke="#4dd2ff" stroke-linecap="round" stroke-linejoin="round" stroke-width=".5" points="74.518 245.571 74.186 246.22 73.721 248.383 73.123 249.393 72.857 250.186 71.396 252.565 70.864 253.863 70.532 255.016 70.798 255.809 72.259 258.981 72.99 260.135 73.522 261.361 74.385 262.514 74.85 263.307 75.448 265.182 78.04 268.714"><title>2023-09-16 1.0km</title><desc>9856514700</desc></polyline><polyline fill="none" stroke="#4dd2ff" stroke-linecap="round" stroke-linejoin="round" stroke-width=".5" points="99.68 245.571 98.969 247.731 98.045 249.197 96.125 252.9 96.054 253.749 96.125 254.751 96.552 255.754 97.263 256.834 97.903 258.3 99.04 260.229 100.462 262.929 100.604 263.931 101.102 264.317 101.671 265.089 102.595 266.631 103.59 267.48 103.803 268.02 103.946 268.714"><title>2023-09-15 1.0km</title><desc>9850671982</desc></polyline><polyline fill="none" stroke="#4dd2ff" stroke-linecap="round" stroke-linejoin="round" stroke-width=".5" points="126.303 245.571 125.126 248.684 123.802 250.599 123.214 251.637 122.331 253.871 122.111 254.669 122.111 255.307 122.331 256.105 123.214 258.5 124.023 260.096 126.008 263.527 126.817 265.043 126.965 265.921 127.553 266.48 128.509 267.996 129.318 268.714"><title>2023-09-14 1.0km</title><desc>9844236351</desc></polyline><polyline fill="none" stroke="#4dd2ff" stroke-linecap="round" stroke-linejoin="round" stroke-width=".5" points="147.75 245.571 148.174 245.916 148.333 246.261 148.438 247.007 148.756 247.639 148.968 249.419 148.968 250.28 148.862 250.74 148.968 251.314 149.232 252.003 149.126 252.578 149.179 252.865 149.709 253.841 150.185 255.277 150.608 256.081 151.137 256.827 151.72 257.344 151.878 257.688 152.037 258.435 152.461 259.182 152.937 260.56 153.572 261.766 153.889 262.799 154.048 263.661 154.366 264.35 154.948 266.245 155.742 267.738 155.795 267.968 155.742 268.14 155.107 268.714 155.424 268.485 155.583 268.14 155.689 267.853 155.636 267.451 155.318 267.049 154.366 264.982 153.889 263.431 152.884 261.191 152.408 259.009 152.143 258.378 151.137 257.057 150.132 255.162 149.656 253.611 149.497 252.578 149.074 251.486 148.227 249.649 148.015 248.787 147.274 247.409 147.115 246.663 147.062 245.744"><title>2023-09-13 1.0km</title><desc>9837636972</desc></polyline></svg>