<?xml version="1.0" encoding="utf-8" ?>
<svg baseProfile="full" height="300mm" version="1.1" viewBox="0,0,200,300" width="200mm" xmlns="http://www.w3.org/2000/svg" xmlns:ev="http://www.w3.org/2001/xml-events" xmlns:xlink="http://www.w3.org/1999/xlink"><defs /><rect fill="#222222" height="300" width="200" x="0" y="0" /><text fill="#FFFFFF" style="font-size:12px; font-family:Arial; font-weight:bold;" x="10" y="20">Over 1km Runs</text><text fill="#FFFFFF" style="font-size:4px; font-family:Arial" x="10" y="280">ATHLETE</text><text fill="#FFFFFF" style="font-size:9px; font-family:Arial" x="10" y="290">Jiakai</text><text fill="#FFFFFF" style="font-size:4px; font-family:Arial" x="120" y="280">STATISTICS</text><text fill="#FFFFFF" style="font-size:3px; font-family:Arial" x="120" y="285">Number: 103</text><text fill="#FFFFFF" style="font-size:3px; font-family:Arial" x="120" y="290">Weekly: 5.2</text><text fill="#FFFFFF" style="font-size:3px; font-family:Arial" x="141" y="285">Total: 106.6 km</text><text fill="#FFFFFF" style="font-size:3px; font-family:Arial" x="141" y="290">Avg: 1.0 km</text><text fill="#FFFFFF" style="font-size:3px; font-family:Arial" x="167" y="285">Min: 1.0 km</text><text fill="#FFFFFF" style="font-size:3px; font-family:Arial" x="167" y="290">Max: 1.5 km</text><polyline fill="none" points="24.99270072975196,47.377882411761675 27.81751824822277,46.094781341496855 28.8686131387949,45.16809617925901 29.0,44.59782794682542 28.540145985549316,43.17215589864645 28.01459854026325,41.8177655111067 26.96350364969112,40.32080551341642 26.437956204405054,39.821818333817646 24.86131386877969,37.25559449708089 23.08759124088101,34.903216679929756 23.218978102086112,34.26165810279781 23.08759124088101,33.97652082127752 22.233576642349362,32.62211758829653 19.343065693508834,32.83597085613292 18.357664233539253,33.19239286438096 16.649635036243126,33.40624600643059 14.810218977974728,34.19037379033398 13.562043795594946,35.04578519478673 12.379562043584883,35.33092216210207 11.788321167696267,35.75862745550694 11.328467153245583,35.82991165283602 11.131386861437932,36.043764213100076 11.0,36.47146919200895 11.197080291807652,36.82788986392552 11.262773722410202,37.612014880462084 11.591240875655785,38.68127524480224 11.459854014450684,39.96438612561906 11.854014598531649,40.891076261294074 11.788321167696267,42.17418421758339" stroke="#4dd2ff" stroke-linecap="round" stroke-linejoin="round" stroke-width="0.5"><title>2024-03-04 1.0km</title><desc>10884866628</desc></polyline><polyline fill="none" points="31.0,33.371356112184 31.18652849784121,34.78817158623133 31.652849740814418,36.30618654761929 31.652849740814418,36.91339206311386 32.11917098471895,38.12780229107011 32.58549222862348,39.94941562402528 33.79792746109888,42.8842320345575 35.569948186632246,45.616641688742675 36.59585492266342,46.42624350753613 37.71502590691671,46.628643887816 40.41968911932781,46.32504330622032 44.15025906730443,45.51544142793864 45.26943005202338,44.705839073169045 46.85492227971554,43.997436622390524 49.0,42.68183110374957" stroke="#4dd2ff" stroke-linecap="round" stroke-linejoin="round" stroke-width="0.5"><title>2024-03-03 1.0km</title><desc>10877188327</desc></polyline><polyline fill="none" points="51.0,45.89884775434621 52.44966442976147,47.209696433274075 53.65771812107414,47.734035635367036 54.261744966730475,47.734035635367036 56.798657717648894,47.471866053529084 61.872483221814036,46.16101756738499 66.70469798659906,44.19474303117022 68.7583892615512,42.62172184092924 69.0,42.359551507630385 68.7583892615512,40.91761398559902 68.03355704713613,39.082419089158066 64.04697986552492,32.265964364632964" stroke="#4dd2ff" stroke-linecap="round" stroke-linejoin="round" stroke-width="0.5"><title>2024-03-02 1.0km</title><desc>10870189784</desc></polyline><polyline fill="none" points="79.9468319863081,31.0 80.47851212508976,32.26923753414303 80.6911841807887,33.07693361258134 80.79752020863816,34.92309451638721 84.2002730993554,43.000022937194444 84.94462529430166,45.192324908101 84.94462529430166,45.538477571099065 84.41294515505433,46.00001433584839 82.71156870992854,46.92308745859191 80.2658400698565,47.50000788480975 77.50110334577039,48.65384810080286 76.01239895634353,49.0 75.58705484494567,48.76923207566142 75.05537470569834,46.69231922866311" stroke="#4dd2ff" stroke-linecap="round" stroke-linejoin="round" stroke-width="0.5"><title>2024-01-19 1.0km</title><desc>10585384707</desc></polyline><polyline fill="none" points="96.75192282954231,33.26574467669707 96.86792558571324,35.15386295004282 97.0999310980551,36.03498409828171 99.30398346344009,39.93708659056574 100.34800826851279,42.32869339955505 100.92802204936743,44.34267548972275 101.97204685397446,46.3566552111879 102.08804961014539,48.244759048335254 102.7840661467053,48.87412653141655 103.13207441521809,49.0 103.59608543897048,48.87412653141655 103.48008268373087,48.37063256360125 102.7840661467053,47.237770594190806 99.41998621961102,39.55946415744256 97.33193660993129,35.279737427830696 96.40391456102952,31.0" stroke="#4dd2ff" stroke-linecap="round" stroke-linejoin="round" stroke-width="0.5"><title>2024-01-17 1.0km</title><desc>10572816563</desc></polyline><polyline fill="none" points="116.63048108154908,31.0 117.66725613363087,35.07813984097447 119.87040311843157,42.25001984962728 121.42556569585577,45.20313909614924 122.33274386683479,48.01562937779818 122.98072827374563,48.85937565623317 123.36951891845092,49.0 123.36951891845092,48.4375025635818 120.6479844073765,42.67189430666622 118.18564365943894,36.34376767894719 116.63048108154908,33.25000926339999" stroke="#4dd2ff" stroke-linecap="round" stroke-linejoin="round" stroke-width="0.5"><title>2024-01-16 1.0km</title><desc>10566280205</desc></polyline><polyline fill="none" points="136.38298093527555,31.406016977969557 138.25385286472738,35.330843146541156 139.7505504093133,40.473706149845384 141.4966975436546,43.99249887350015 142.9933950882405,48.32331145426724 143.36756947403774,49.0 143.61701906472445,49.0 139.87527520488948,41.28573583706748 139.00220163725317,38.57896882027853 138.37857766076922,36.142875102348626 137.5055040931329,34.38347207882907 136.63243052596226,31.0" stroke="#4dd2ff" stroke-linecap="round" stroke-linejoin="round" stroke-width="0.5"><title>2024-01-09 1.0km</title><desc>10520988068</desc></polyline><polyline fill="none" points="156.75715460581705,32.4887284807628 157.38077871967107,35.060165748465806 158.62802694831043,37.76693793933373 160.87307375948876,44.66918901109602 162.61922127986327,48.59398690296803 162.9933957476169,49.0 163.24284539418295,48.72932461183518 162.868670925498,47.24060926469974 162.24504681117833,46.293244325672276 160.37417446868494,41.42107408342417 158.62802694831043,37.76693793933373 157.13132907403633,31.0" stroke="#4dd2ff" stroke-linecap="round" stroke-linejoin="round" stroke-width="0.5"><title>2024-01-07 1.0km</title><desc>10508221625</desc></polyline><polyline fill="none" points="178.5869142622687,36.333351957728155 178.83266830444336,37.66668749670498 179.93856148933992,40.4666889377404 180.9215776543133,43.80001835001167 182.8876099837944,48.60000194073655 183.37911806628108,49.0 183.37911806628108,48.066671058069915 182.27322488091886,46.20001173368655 181.65883977804333,44.20001746760681 179.20129936560988,39.000022055231966 178.341160221491,36.73335272236727 177.72677511861548,35.666683820891194 176.62088193325326,31.0" stroke="#4dd2ff" stroke-linecap="round" stroke-linejoin="round" stroke-width="0.5"><title>2024-01-06 1.0km</title><desc>10501510624</desc></polyline><polyline fill="none" points="17.621943325269967,54.27274134848267 18.54996544169262,56.53848169394769 19.245982029940933,59.43358999455813 20.406009676400572,63.20981085568201 21.682040087413043,65.97903419390786 22.494059439748526,67.99301199009642 22.958070497959852,68.74825305328704 23.42208155663684,69.0 23.30607879208401,68.11888552387245 22.72606496885419,66.73427614511456 18.897973736282438,59.43358999455813 18.201957148499787,57.29372780956328 17.969951618928462,55.27973742748145 17.15793226659298,53.139870051061735 16.57791844336316,51.0" stroke="#4dd2ff" stroke-linecap="round" stroke-linejoin="round" stroke-width="0.5"><title>2024-01-05 1.0km</title><desc>10495609202</desc></polyline><polyline fill="none" points="36.206528631970286,51.0 36.9780821306631,52.81396122346632 37.62104337941855,54.76745598623529 38.52118912758306,56.58141360874288 40.19288837490603,61.325602270895615 42.25036437064409,66.06977907463443 43.0219178693369,68.58139728754759 43.536286868620664,69.0 43.793471368029714,68.30232876108494 43.66487911809236,67.32558859628625 40.57866512425244,61.046532678068615 39.54992712615058,57.41862423438579 38.52118912758306,51.55814209987875" stroke="#4dd2ff" stroke-linecap="round" stroke-linejoin="round" stroke-width="0.5"><title>2024-01-04 1.0km</title><desc>10489071805</desc></polyline><polyline fill="none" points="57.49954325752333,54.30883703043219 59.085198753047734,58.67649259837344 61.03677474707365,63.04413756961003 62.01256274431944,66.75000984175131 62.866377241909504,69.0 62.98835074156523,69.0 62.98835074156523,68.07353380450513 62.37848324328661,65.82354248885531 61.158748246729374,63.04413756961003 60.18296024994925,60.2647283594124 58.59730475442484,57.08825543615967 57.62151675764471,54.176483665942214 57.011649258900434,52.32353554200381 57.377569757867604,51.0" stroke="#4dd2ff" stroke-linecap="round" stroke-linejoin="round" stroke-width="0.5"><title>2024-01-03 1.0km</title><desc>10482519748</desc></polyline><polyline fill="none" points="76.3670011209324,51.297521962667815 79.52016995940357,60.52068110543769 82.8104330948554,68.40496123710182 83.49590458115563,69.0 83.6329988790676,68.40496123710182 83.22171598719433,67.36364297999535 79.7943585542962,60.81820166797843 78.56050987821072,57.54547307221219 76.77828401280567,51.0" stroke="#4dd2ff" stroke-linecap="round" stroke-linejoin="round" stroke-width="0.5"><title>2024-01-01 1.0km</title><desc>10470902913</desc></polyline><polyline fill="none" points="107.61672993563116,55.40818125801161 107.39104904886335,55.77552916947752 105.02139973500744,57.48981835064478 104.00583574408665,58.59186046384275 103.32879308285192,59.81635084503796 102.87743130931631,60.42859569785651 102.53890997869894,60.55104464129545 101.07198421377689,60.55104464129545 99.71789889177307,61.040840325760655 97.91245179576799,60.918391417944804 97.00972824729979,60.55104464129545 96.44552603038028,59.69390184734948 96.10700469976291,58.95920767285861 95.99416425637901,57.24492000427563 95.65564292529598,56.510224749101326 94.30155760375783,56.510224749101326 93.17315316898748,56.87757241737563 93.06031272560358,57.00002162193414 93.51167449960485,57.24492000427563 93.737355385907,57.00002162193414 92.94747228221968,57.00002162193414 92.72179139498621,56.7551232035039 92.49611050775275,55.89797845506109 92.38327006436884,54.42858643166255 92.94747228221968,54.55103581654839 93.39883405668661,55.530630571069196 94.41439804760739,56.63267398066819 95.20428115176037,56.63267398066819 95.8813238129951,56.142876999801956 96.44552603038028,56.26532625826076 96.55836647376418,56.020427731913514 95.54280248237774,53.081642604316585 95.31712159514427,52.959193111164495 94.07587671652436,52.83674360951409 92.83463183837011,52.959193111164495 93.62451494298875,52.959193111164495 92.49611050775275,51.734697686857544 92.38327006436884,51.0 92.72179139498621,51.489798494149 93.06031272560358,53.081642604316585 93.39883405668661,53.81633937230799 93.737355385907,55.40818125801161 93.06031272560358,59.571452840580605 93.85019582975656,63.36736785795074 94.5272384909913,64.46940608078148 94.6400789343752,66.30613483092748 95.65564292529598,69.0" stroke="#4dd2ff" stroke-linecap="round" stroke-linejoin="round" stroke-width="0.5"><title>2023-12-31 1.5km</title><desc>10466792666</desc></polyline><polyline fill="none" points="117.61318105319515,55.273397946031764 118.92593147419393,59.935274790157564 120.71604568464682,63.6906666085124 122.26747800037265,68.09352957841475 122.74484178982675,69.0 122.9835236845538,69.0 123.10286463145167,67.96403376583476 122.62550084246323,66.5395791985793 120.47736378991976,62.13671234436333 120.47736378991976,60.97124574659392 118.92593147419393,57.604337910655886 118.68724957946688,55.01440442644525 118.20988579047844,53.46044250787236 116.897135369014,51.0" stroke="#4dd2ff" stroke-linecap="round" stroke-linejoin="round" stroke-width="0.5"><title>2023-12-30 1.0km</title><desc>10458865202</desc></polyline><polyline fill="none" points="140.97876229183748,51.0 138.71215487923473,51.2236037919065 137.16674073366448,52.22982044820674 136.03343702713028,53.347838174086064 135.51829897845164,54.68945835984778 135.10618853988126,59.94412601995282 135.62132658809423,65.19877551647369 135.82738180737942,65.98138133413158 136.1364646363072,66.65218599990476 137.78490639152005,68.44099699554499 139.6394033660181,69.0 141.08178990148008,68.77639882266521 142.83325926586986,67.65839244390372 143.86353536276147,66.76398674899247 144.89381145965308,63.74536364292726 144.79078385047615,61.39754152763635 144.4817010210827,59.385119685321115 144.27564580226317,54.46585507784039 143.96656297286972,53.236036438611336 143.3483973145485,52.453424059203826 142.62720404658467,51.89441497006919 140.97876229183748,51.5590094178915 138.71215487923473,51.67081127688289 137.06371312355623,52.565225852420554 136.23949224641547,53.57144162070472 135.62132658809423,55.13666482537519 135.62132658809423,55.91927582339849 135.93040941702202,57.81990085518919 135.7243541982025,59.385119685321115" stroke="#4dd2ff" stroke-linecap="round" stroke-linejoin="round" stroke-width="0.5"><title>2023-12-29 1.0km</title><desc>10454615358</desc></polyline><polyline fill="none" points="157.48660630453378,52.90909918991383 159.24598189117387,59.18183983606286 162.01071495609358,67.6363697515335 162.89040275011212,69.0 163.0160724343732,69.0 163.0160724343732,67.6363697515335 161.13102716300637,61.909111761138774 159.62299094581977,58.22729371488094 158.61763346754014,56.318199999048375 156.98392756516114,51.0" stroke="#4dd2ff" stroke-linecap="round" stroke-linejoin="round" stroke-width="0.5"><title>2023-12-27 1.0km</title><desc>10441997651</desc></polyline><polyline fill="none" points="176.60691900970414,53.318191617610864 178.61763367056847,57.27274710254278 179.6229910007678,61.36365769722033 181.00535733019933,63.9545630736975 182.63906299276277,68.1818219712004 183.14174165716395,69.0 183.39308099029586,68.86363702046219 182.51339332573116,66.27273850073107 181.25669666333124,64.36365306563675 177.2352673416026,54.818196414853446 176.98392800893635,52.227278276346624 176.60691900970414,51.0" stroke="#4dd2ff" stroke-linecap="round" stroke-linejoin="round" stroke-width="0.5"><title>2023-12-17 1.0km</title><desc>10391591057</desc></polyline><polyline fill="none" points="17.079507754649967,74.16902771452442 18.481344032566994,77.84509256517049 20.817737828474492,82.40847251110245 22.92049224441871,88.49296031869017 23.387771003879607,89.0 23.504590693861246,88.87324009358417 23.504590693861246,88.36620037502144 22.92049224441871,86.71832025947515 19.76636062003672,80.50706566812005 18.364524342585355,76.7042456913041 17.313147134147584,72.39437291189097 16.495409305673093,71.0" stroke="#4dd2ff" stroke-linecap="round" stroke-linejoin="round" stroke-width="0.5"><title>2023-12-16 1.0km</title><desc>10386207035</desc></polyline><polyline fill="none" points="37.56786756357178,74.38347207952756 38.06676652468741,76.68422954087146 39.8129128892906,81.96242696943227 40.81071081198752,83.58648467215244 42.182682955637574,88.05263596656732 42.55685717659071,89.0 42.806306657381356,89.0 42.806306657381356,87.64662266056985 40.93543555215001,81.96242696943227 38.31621600501239,77.90227644436527 38.19149126531556,76.27821372705512 37.44314282340929,74.38347207952756 37.69259230373427,73.16542284714524 37.193693342618644,71.0" stroke="#4dd2ff" stroke-linecap="round" stroke-linejoin="round" stroke-width="0.5"><title>2023-12-14 1.0km</title><desc>10376526598</desc></polyline><polyline fill="none" points="63.8635347946547,72.56522585265338 62.9362864443101,71.7826131277252 61.39087252598256,71.11180190031882 59.948486202862114,71.0 58.50609987927601,71.33540567557793 56.65160317765549,72.34162225795444 55.82738242158666,73.45963990176097 55.20921685406938,75.36026800901163 55.20921685406938,79.60872224404011 55.41527204308659,80.95033690426499 55.82738242158666,82.6273535641376 55.51829963782802,84.63977111433633 55.621327232103795,85.42237722000573 55.72435482637957,85.86958052788395 56.75463077239692,87.65839244425297 58.403072284534574,88.88819941575639 58.91821025684476,89.0 59.948486202862114,89.0 60.978762147482485,89.0 62.833258849568665,88.32919637009036 63.8635347946547,87.32299037033226 64.48170036217198,86.20498292252887 64.68775555118918,83.74536364304367 64.79078314593062,82.0683482165914 64.48170036217198,80.05592726240866 64.68775555118918,77.37269517919049 64.58472795644775,75.02486322144978 64.48170036217198,74.2422517631203 63.760507200378925,72.6770276373718 63.451424416620284,72.34162225795444 62.31812087725848,71.55900941800792 60.051513797137886,71.33540567557793 58.60912747355178,71.55900941800792 57.784906717482954,71.89441497018561 56.239492799621075,73.57144162082113 55.621327232103795,75.91927582328208 55.82738242158666,77.48449661070481" stroke="#4dd2ff" stroke-linecap="round" stroke-linejoin="round" stroke-width="0.5"><title>2023-12-13 1.0km</title><desc>10373769329</desc></polyline><polyline fill="none" points="77.83360643964261,73.55224959517363 79.07154561718926,78.65673809009604 80.30948479427025,81.34330525412224 82.78536314889789,88.328361393651 83.28053881973028,89.0 83.52812665514648,89.0 83.65192057285458,88.46268913464155 83.15674490202218,87.65672254085075 81.17604221822694,84.29852457169909 78.328782110475,78.52240962779615 77.9574003573507,76.77613872440998 76.59566726256162,73.82090723980218 76.34807942714542,71.0" stroke="#4dd2ff" stroke-linecap="round" stroke-linejoin="round" stroke-width="0.5"><title>2023-12-12 1.0km</title><desc>10365882163</desc></polyline><polyline fill="none" points="96.49541033664718,71.0 97.7804265464656,73.78874469583388 99.53272137837484,78.22537468874361 100.81773758819327,80.63382618967444 102.68685207562521,86.46480010182131 102.92049138667062,87.98592048813589 103.38777000829577,89.0 103.50458966335282,88.11268045951147 103.27095035277307,87.09860042587388 100.81773758819327,81.52114957885351 99.06544275628403,78.09861399035435 98.59816413512453,76.70424569153693 98.24770516855642,73.78874469583388 97.31314792530611,71.1267612206284" stroke="#4dd2ff" stroke-linecap="round" stroke-linejoin="round" stroke-width="0.5"><title>2023-12-11 1.0km</title><desc>10361067591</desc></polyline><polyline fill="none" points="120.36061714449897,81.04350078164134 122.76473143929616,88.34782927564811 122.88493715412915,88.73913173889741 123.36576001346111,89.0 123.48596572736278,88.86956587433815 123.12534858379513,87.95652672543656 122.04349715076387,85.86957833555061 120.84144000336528,82.60871656169184 117.47567999083549,75.82610487437341 116.51403427263722,71.0" stroke="#4dd2ff" stroke-linecap="round" stroke-linejoin="round" stroke-width="0.5"><title>2023-12-10 1.0km</title><desc>10355395415</desc></polyline><polyline fill="none" points="136.82868994167075,72.1911820312962 138.90223882580176,75.50001687242184 139.87802653573453,79.60296362906229 141.95157541986555,85.42648490634747 142.68341620266438,88.60294311749749 143.17131005832925,89.0 143.2932835216634,88.86764771549497 143.2932835216634,88.60294311749749 143.0493365940638,87.5441243366804 140.48789385519922,82.38237386127003 139.87802653573453,80.92649284633808 139.51210614433512,78.67649259825703 138.90223882580176,76.95590227597859 137.92645111586899,75.23531030898448 137.80447765160352,73.3823632748099 136.70671647787094,71.0" stroke="#4dd2ff" stroke-linecap="round" stroke-linejoin="round" stroke-width="0.5"><title>2023-12-09 1.0km</title><desc>10350143310</desc></polyline><polyline fill="none" points="158.08119371067733,74.49255117913708 158.82395743578672,77.17912446556147 160.43327883956954,81.07464871532284 162.66157001350075,87.52239474025555 163.6519216466695,89.0 163.5281276931055,87.65672254085075 162.7853639679961,85.37314859370235 160.80466070165858,81.8806182127446 159.56672116043046,78.92539498396218 158.20498766517267,76.77613872475922 157.83360580261797,74.62687993713189 156.34807835286483,71.0" stroke="#4dd2ff" stroke-linecap="round" stroke-linejoin="round" stroke-width="0.5"><title>2023-12-08 1.0km</title><desc>10345303898</desc></polyline><polyline fill="none" points="177.09993195021525,71.0 177.33193739457056,71.6293738221284 177.79594828234985,73.26574467681348 178.02795372670516,75.5314863550011 178.4919646140188,77.41960212949198 180.11600272217765,81.44757549010683 181.1600272199139,85.09791816305369 182.20405171765015,87.36364418326411 182.43605716200545,89.0 182.6680626058951,88.87412653130013 182.90006804978475,88.62237956561148 182.90006804978475,88.24475904810242 182.3200544398278,86.7342761453474 180.46401088824496,83.58743248344399 178.25995917012915,77.16785348008852 177.67994556063786,74.52449042350054" stroke="#4dd2ff" stroke-linecap="round" stroke-linejoin="round" stroke-width="0.5"><title>2023-12-07 1.0km</title><desc>10340288256</desc></polyline><polyline fill="none" points="16.658453474286944,91.0 17.374499158468097,92.68346103455406 18.68724957946688,98.25182068638969 20.59670473728329,101.74822356412187 22.148137053009123,106.02159543370362 22.864182737190276,108.74100849858951 23.222205579280853,109.0 23.341546526178718,108.09352957841475 23.102864631917328,106.92806692188606 21.193409473635256,102.91368964756839 19.880659053102136,100.97124574659392 19.164613368920982,99.5467855243478 16.77779442211613,91.38849115080666" stroke="#4dd2ff" stroke-linecap="round" stroke-linejoin="round" stroke-width="0.5"><title>2023-12-06 1.0km</title><desc>10334845031</desc></polyline><polyline fill="none" points="38.34116107597947,94.1034619655693 39.14197986712679,98.20002302597277 39.942798658274114,101.17933391826227 41.88764429371804,106.2689778652275 42.91726845363155,108.62758815078996 43.26047650631517,109.0 42.802865769248456,106.76552767283283 41.65883892448619,104.65518998203333 40.62921476503834,101.67588522285223 39.14197986712679,98.57243717496749 38.455563760362566,96.21381284378003 37.31153691606596,93.73104683100246 36.73952349368483,91.0" stroke="#4dd2ff" stroke-linecap="round" stroke-linejoin="round" stroke-width="0.5"><title>2023-12-05 1.0km</title><desc>10329306344</desc></polyline><polyline fill="none" points="56.69392242329195,92.51049678423442 57.50594147713855,93.7692430865718 58.549965975340456,97.41960212949198 60.63801497081295,102.58044129051268 61.68203946901485,106.10490787529852 62.610061244573444,108.11888552398887 63.30607757670805,109.0 63.30607757670805,108.37063256313559 60.290006804745644,101.44757549010683 59.129979585297406,97.54547644068953 57.85394964320585,94.6503649475053 56.9259278671816,91.0" stroke="#4dd2ff" stroke-linecap="round" stroke-linejoin="round" stroke-width="0.5"><title>2023-12-04 1.0km</title><desc>10324662812</desc></polyline><polyline fill="none" points="76.8737258380279,92.66154566861223 78.14975610887632,97.50771216268186 80.19140454102308,102.07694343582261 81.59503783797845,106.92308570316527 82.61586205428466,108.86153911822475 83.38148021604866,109.0 83.38148021604866,108.44615641166456 82.48825902771205,106.92308570316527 81.33983178436756,103.60001806344371 80.0638015139848,101.66155923262704 79.17058032471687,99.3077136843931 77.63934400025755,93.76924196642358 76.618519784417,91.0" stroke="#4dd2ff" stroke-linecap="round" stroke-linejoin="round" stroke-width="0.5"><title>2023-12-02 1.0km</title><desc>10313350310</desc></polyline><polyline fill="none" points="96.73258963692933,91.95454984041862 97.98928593005985,93.59091985307168 99.49732148181647,98.77274870162364 100.5026785172522,103.00001940899529 102.13638369832188,107.63636975188274 103.14174073329195,109.0 103.267410362605,108.18182197131682 103.0160711039789,106.54546483117156 101.63370518060401,103.54547299188562 99.49732148181647,100.13638546620496 98.24062518915161,97.54547475650907 96.98392889508978,91.0" stroke="#4dd2ff" stroke-linecap="round" stroke-linejoin="round" stroke-width="0.5"><title>2023-12-01 1.0km</title><desc>10308709030</desc></polyline><polyline fill="none" points="116.68232080945745,91.0 119.17058020224795,99.55001980031375 121.65883959503844,104.65001455100719 123.04120592400432,108.40000255848281 123.45591582311317,109.0 123.59415245614946,108.55000193545129 123.04120592400432,107.05000766995363 120.96765642985702,104.20001552719623 120.41470989910886,102.70001806365326 118.34116040496156,98.65001940354705 117.37350397417322,94.0000110277906 116.40584754385054,91.30000130133703" stroke="#4dd2ff" stroke-linecap="round" stroke-linejoin="round" stroke-width="0.5"><title>2023-11-30 1.0km</title><desc>10303537703</desc></polyline><polyline fill="none" points="137.9407525882125,94.84829198836815 138.74157102638856,97.4551944816485 139.08477892819792,99.56554117088672 140.34320790180936,102.04829860525206 141.71603950997815,105.77242791187018 143.0888711172156,108.75172544328962 143.31767638539895,109.0 143.54648165311664,108.75172544328962 143.31767638539895,107.8827642062679 142.40245531359687,106.2689778652275 141.14402633998543,102.79312512371689 139.3135841959156,99.06898924615234 138.62716839229688,95.09656858979724 137.2543367841281,92.98621631483547 136.45351834688336,91.0" stroke="#4dd2ff" stroke-linecap="round" stroke-linejoin="round" stroke-width="0.5"><title>2023-11-29 1.0km</title><desc>10298007687</desc></polyline><polyline fill="none" points="156.89713673759252,93.33094561949838 158.20988657930866,96.69786162441596 158.4485683683306,99.15829617308918 160.11934089427814,103.17268200626131 161.07406805222854,106.79857102350798 161.90945431543514,108.48201695899479 162.74484057817608,109.0 163.10286326240748,109.0 163.34154505236074,108.61151273362339 163.22220415715128,108.09352957829833 162.74484057817608,107.18705868988764 160.83538626274094,102.13671234436333 158.92593194777146,97.73383448482491 158.56790926354006,95.66188815457281 157.7325229998678,93.20144872169476 156.65845494763926,91.0" stroke="#4dd2ff" stroke-linecap="round" stroke-linejoin="round" stroke-width="0.5"><title>2023-11-28 1.0km</title><desc>10292316108</desc></polyline><polyline fill="none" points="179.5773650407791,91.0 180.6339524402283,93.8662559457589 181.26790487999097,96.61785669741221 182.11317479936406,97.87900541932322 183.06410345900804,99.71340173971839 184.01503211865202,102.69429115857929 184.8603020380251,104.07008435309399 184.8603020380251,104.75798049510922 184.33200833853334,105.21657775470521 182.6414684993215,106.13377186935395 181.5848810998723,107.05096544418484 180.5282937004231,107.62421115464531 178.94341260101646,108.31210572912823 176.40760284243152,109.0 175.9849678822793,108.8853509761393 175.66799166239798,108.54140385333449 175.13969796244055,106.36307031358592" stroke="#4dd2ff" stroke-linecap="round" stroke-linejoin="round" stroke-width="0.5"><title>2023-11-27 1.0km</title><desc>10287544518</desc></polyline><polyline fill="none" points="18.259959042072296,114.90211396722589 18.839972694404423,116.2867329143919 20.232005461119115,123.33568474079948 21.740040957462043,126.98602338775527 22.552060071378946,128.370632563252 23.132073723711073,129.0 23.24807645427063,128.8741265310673 22.90006826305762,128.244759047986 22.90006826305762,127.23777059407439 21.972046418581158,125.09791816282086 20.9280218440108,121.57344950502738 19.883997269440442,119.43358999444172 19.187980886083096,115.40561189572327 17.21593446750194,112.25874741270673 16.751923545263708,111.0" stroke="#4dd2ff" stroke-linecap="round" stroke-linejoin="round" stroke-width="0.5"><title>2023-11-26 1.0km</title><desc>10281488289</desc></polyline><polyline fill="none" points="36.722453544382006,111.0 38.06022760737687,114.48388377402443 39.264224264770746,119.41937526513357 40.46822092263028,122.17743866576348 40.735775735229254,123.91937146021519 41.40466276742518,125.51614183862694 42.876214237418026,128.27419672347605 43.54510126914829,129.0 43.812656081747264,129.0 41.80599498609081,124.64517633756623 41.538440173026174,123.19356631604023 40.20066611003131,121.30647169239819 37.52511798264459,114.04839863895904 36.187343918252736,111.58064772281796" stroke="#4dd2ff" stroke-linecap="round" stroke-linejoin="round" stroke-width="0.5"><title>2023-11-25 1.0km</title><desc>10275889695</desc></polyline><polyline fill="none" points="56.51178423129022,111.16822495521046 57.4419751027599,115.37384479888715 61.7828658381477,127.14953924051952 62.86808852106333,128.83177635679021 63.33318395726383,129.0 63.4882157696411,128.49532903218642 61.93789764959365,126.4766440478852 60.0775159066543,120.92525115737226 58.837261410430074,118.40188630030025 58.06210235133767,113.52337301988155 57.13191147893667,111.0" stroke="#4dd2ff" stroke-linecap="round" stroke-linejoin="round" stroke-width="0.5"><title>2023-11-24 1.0km</title><desc>10271180196</desc></polyline><polyline fill="none" points="77.7618844024837,113.00000823463779 78.1568459784612,114.14286915806588 79.07842298876494,119.00002058548853 81.31653858721256,125.85715487215202 82.36976945679635,128.71428701689 82.76473103230819,129.0 83.29134646710008,129.0 83.42300032638013,128.71428701689 83.15969260875136,127.28572146955412 81.71150016319007,123.14287544379476 77.89353826083243,114.85715689428616 76.57699967408553,111.0" stroke="#4dd2ff" stroke-linecap="round" stroke-linejoin="round" stroke-width="0.5"><title>2023-11-23 1.0km</title><desc>10265414399</desc></polyline><polyline fill="none" points="98.42293546302244,115.0563544301549 98.53975505847484,116.83100649237167 99.00703343981877,119.61974175705109 100.8761469651945,124.94367837370373 101.46024494152516,127.47888050868642 102.39480170421302,129.0 103.09571927599609,129.0 102.97889968100935,128.23944042192306 101.6938841319643,124.94367837370373 100.6425077742897,123.29579498723615 99.12385303527117,118.60565672838129 97.37155910488218,113.78874469583388 96.90428072400391,111.0" stroke="#4dd2ff" stroke-linecap="round" stroke-linejoin="round" stroke-width="0.5"><title>2023-11-21 1.0km</title><desc>10253878272</desc></polyline><polyline fill="none" points="118.06266986951232,115.86133173853159 118.66808553505689,119.8029423590051 121.2108313315548,126.24088767752983 122.30057953018695,128.6058413576102 122.66382892988622,129.0 122.90599519619718,128.86861379561014 123.02707832911983,128.6058413576102 122.54274579649791,126.50366046302952 120.36324939923361,121.77374440978747 119.51566746784374,119.27739477856085 118.18375300243497,114.15329776948784 117.45725420350209,112.83942437497899 116.97292167088017,111.0" stroke="#4dd2ff" stroke-linecap="round" stroke-linejoin="round" stroke-width="0.5"><title>2023-11-20 1.0km</title><desc>10248671423</desc></polyline><polyline fill="none" points="136.79542374471202,112.50000667187851 138.55479894345626,116.31819999893196 139.05747757246718,120.27274908765685 140.4398437999189,123.40910961094778 141.8222100273706,127.36364358162973 142.45055831270292,128.31818500091322 143.20457625528798,129.0 143.0789065985009,127.90909588139039 140.94252242846414,122.3182022041874 139.56015620101243,117.27274710254278 138.17778997309506,114.00001213059295 137.42377203051,111.0" stroke="#4dd2ff" stroke-linecap="round" stroke-linejoin="round" stroke-width="0.5"><title>2023-11-19 1.0km</title><desc>10242265034</desc></polyline><polyline fill="none" points="156.50164541276172,127.03792825492565 157.2877925108187,124.56400697666686 157.602251350414,123.9668527743197 158.1525543187745,123.62562166358111 160.82545445347205,123.2843904523179 162.7908221995458,122.85785129718715 163.4197398778051,122.34600410389248 163.81281342729926,121.83415668504313 164.28450168622658,119.70145667501492 164.12727226642892,119.01899184362264 164.44173110602424,118.50714295677608 164.20588697632775,114.5829606532352 164.04865755699575,114.07110980903963 163.97004284663126,112.53555592079647 163.81281342729926,111.5971608775435 162.94805161934346,111.34123482485302 162.24051923071966,111.85308687353972 162.39774865005165,111.5971608775435 162.5549780698493,111.85308687353972 161.53298684209585,111.34123482485302 161.45437213266268,111.0 161.21852800250053,111.17061742488295 161.3757574222982,111.0853087156429 160.82545445347205,111.76777821453288 160.90406916337088,111.6824695491814 162.5549780698493,112.53555592079647 162.16190452082083,112.87679029384162 161.53298684209585,113.13271600776352 160.03930735541508,113.38864166522399 159.96069264505059,113.04740744258743 160.35376619407907,112.87679029384162 160.90406916337088,112.96209887135774 162.5549780698493,111.34123482485302 164.83480465505272,111.4265435153502 164.5989605258219,111.25592612795299 164.28450168622658,111.17061742488295 164.04865755699575,115.26542809442617 164.12727226642892,116.45974515046692 164.36311639565974,117.90998563647736 164.52034581592306,120.38392110483255 164.52034581592306,121.23700107744662 164.28450168622658,122.0900804225821 163.81281342729926,122.60192772879964 159.88207793561742,123.02846697799396 158.07393960934132,123.36969826457789 157.1305630914867,124.05216053628828 156.02995715336874,125.58769917994505 155.40103947510943,127.80569585470948 155.16519534541294,129.0" stroke="#4dd2ff" stroke-linecap="round" stroke-linejoin="round" stroke-width="0.5"><title>2023-11-18 1.0km</title><desc>10236386505</desc></polyline><polyline fill="none" points="176.3268576124683,111.0 178.93360382318497,115.50001736893319 179.88151153549552,118.84287991863675 180.23697692807764,120.77145155961625 180.9479077127762,121.92859352345113 183.1991885304451,128.48571685689967 183.6731423875317,129.0 183.6731423875317,128.48571685689967 183.1991885304451,127.84286271536257 181.89581542555243,123.98573290230706 181.18488464085385,122.70002107415348 180.9479077127762,120.51430879719555 179.88151153549552,117.81430750666186 178.69662689464167,115.24287383153569 178.57813843060285,113.82858369813766" stroke="#4dd2ff" stroke-linecap="round" stroke-linejoin="round" stroke-width="0.5"><title>2023-11-17 1.0km</title><desc>10231268371</desc></polyline><polyline fill="none" points="16.78934295522049,131.58064772293437 18.52844885410741,134.04839863884263 18.929780984763056,137.3871155574452 20.133777376729995,140.00002051191404 22.00666065281257,146.96775015315507 23.21065704477951,149.0 23.076879667583853,147.8387146294117 22.140438030008227,145.95162444526795 21.47155114542693,144.0645324572688 20.401332130189985,139.56453659269027 18.26089410064742,135.06453047250398 17.592007216066122,133.03226628201082 17.190675085410476,131.0" stroke="#4dd2ff" stroke-linecap="round" stroke-linejoin="round" stroke-width="0.5"><title>2023-11-16 1.0km</title><desc>10225818993</desc></polyline><polyline fill="none" points="36.878527528606355,131.19354904140346 37.7703768061474,134.67742935777642 39.19733565021306,138.54840207961388 41.159404060803354,142.22582089412026 41.87288348283619,145.12904264521785 43.121472471393645,147.6451655733399 44.3700614599511,149.0 41.159404060803354,143.00001367391087 39.73244521673769,138.54840207961388 35.6299385400489,131.0" stroke="#4dd2ff" stroke-linecap="round" stroke-linejoin="round" stroke-width="0.5"><title>2023-11-15 1.0km</title><desc>10219684298</desc></polyline><polyline fill="none" points="56.81951958918944,133.16542284714524 58.44094097521156,135.19550445268396 58.690390419214964,137.7669379391009 60.56126124924049,142.23310335271526 61.68378374679014,146.02256853983272 62.806306244805455,148.86466231115628 63.30520513281226,149.0 63.1804804103449,147.37594707356766 61.55905902478844,145.21054094214924 60.93543541477993,143.31580848805606 59.93763763876632,142.09776516607963 59.563463472761214,140.60904445615597 57.69259264320135,136.81956812529825 57.06896903319284,134.11279454140458 56.69479486718774,131.0" stroke="#4dd2ff" stroke-linecap="round" stroke-linejoin="round" stroke-width="0.5"><title>2023-11-14 1.0km</title><desc>10213806154</desc></polyline><polyline fill="none" points="77.59588517481461,133.47827171022072 78.55753110535443,137.1304552895017 81.20205741235986,143.91306199040264 81.80308611830696,146.1304470184259 83.00514353159815,148.60869759391062 83.36576075525954,149.0 82.6445263074711,147.695658311015 80.9616459296085,143.65219298156444 80.84144018869847,142.60871656169184 79.63938277587295,139.73915324313566 77.83629665756598,136.47828020178713 77.11506220977753,134.26088311010972 76.63423924474046,131.0" stroke="#4dd2ff" stroke-linecap="round" stroke-linejoin="round" stroke-width="0.5"><title>2023-11-13 1.0km</title><desc>10208522228</desc></polyline><polyline fill="none" points="97.9892856348306,133.04546334268525 99.24598211282864,136.86365554714575 100.7540178867057,140.000021835207 101.63370542181656,143.68183636269532 102.51339295646176,146.27273850084748 103.64441978698596,148.72727403056342 104.14709837734699,149.0 104.39843767369166,148.45454802096356 103.01607154728845,145.72728572005872 102.26205366104841,142.7272925573634 99.49732140870765,140.1363854664378 97.9892856348306,137.95456616173033 97.73794633895159,135.6363803385757 95.60156232584268,131.0" stroke="#4dd2ff" stroke-linecap="round" stroke-linejoin="round" stroke-width="0.5"><title>2023-11-12 1.0km</title><desc>10202270880</desc></polyline><polyline fill="none" points="117.27653280971572,134.35822241124697 120.24758792715147,141.07464871543925 121.23793963296339,144.4328526093159 122.2282913387753,147.11941128061153 122.84726115502417,148.32836139411665 123.46623097080737,149.0 123.59002493415028,148.4626891349908 122.47587926499546,145.10449264734052 120.37138189002872,141.880618212861 118.14309055218473,136.77613872487564 117.27653280971572,133.14926305413246 116.40997506631538,131.0" stroke="#4dd2ff" stroke-linecap="round" stroke-linejoin="round" stroke-width="0.5"><title>2023-11-11 1.0km</title><desc>10196068378</desc></polyline><polyline fill="none" points="138.3266083188355,133.68422009726055 140.3637807997875,139.84212411462795 142.25544096156955,144.8947501218645 143.1285148812458,148.21052947919816 143.71056416165084,149.0 144.00158880185336,148.6842118264176 143.56505184154958,146.78948180971202 141.38236704096198,141.89475486346055 139.19968223944306,137.31580665381625 136.2894358378835,132.73684868169948 135.99841119768098,131.0" stroke="#4dd2ff" stroke-linecap="round" stroke-linejoin="round" stroke-width="0.5"><title>2023-11-10 1.0km</title><desc>10191120477</desc></polyline><polyline fill="none" points="155.82124576484784,131.54962088621687 157.97393734101206,133.1984825761756 159.2402265034616,135.39696256595198 159.62011325219646,136.22139189543668 159.62011325219646,137.45803520805202 161.01303132995963,141.71757813193835 161.51954699493945,144.19085666537285 162.53257832489908,146.93894008581992 162.78583615692332,148.31298028095625 163.41898073861375,149.0 163.7988674864173,148.86259607644752 164.17875423515216,148.31298028095625 162.78583615692332,147.35115225065965 160.50651566544548,144.0534523880342 157.84730842523277,136.77101124660112 157.21416384354234,132.64886217436288 156.58101926231757,131.0" stroke="#4dd2ff" stroke-linecap="round" stroke-linejoin="round" stroke-width="0.5"><title>2023-11-09 1.0km</title><desc>10185506531</desc></polyline><polyline fill="none" points="176.48859197832644,132.44526216865052 177.820505366195,135.07300857105292 178.30483750626445,136.38688032352366 179.87891696533188,139.80294235935435 180.48433214100078,142.16790455882438 180.363249105867,140.72265025309753 180.60541517660022,141.64235767372884 181.08974731713533,145.18979614810087 182.17949463427067,148.47445512423292 182.6638267757371,149.0 183.26924195187166,148.73722758109216 183.51140802213922,148.34306888096035 182.17949463427067,147.16059225820936 181.21083035273477,145.58395554404706 180.60541517660022,143.87593086762354 179.75783392973244,140.98542385036126 178.54700357746333,139.2773947789101 177.21509018959478,136.38688032352366 176.85184108372778,134.2846850559581 176.97292411886156,131.65693749429192 176.730758048594,131.0" stroke="#4dd2ff" stroke-linecap="round" stroke-linejoin="round" stroke-width="0.5"><title>2023-11-08 1.0km</title><desc>10179505859</desc></polyline><polyline fill="none" points="19.187980766873807,160.9440793383401 23.248076932039112,169.0 23.4800824271515,168.87412653141655 22.90006868960336,167.4895177630242 21.856043961364776,165.72728680237196 21.160027475561947,163.96505402820185 19.76799450442195,162.45456734951586 19.303983515128493,161.57344950479455 18.955975271761417,158.55247059487738 18.723969776649028,157.6713507422246 17.331936805974692,155.27973742736503 16.5199175728485,151.0" stroke="#4dd2ff" stroke-linecap="round" stroke-linejoin="round" stroke-width="0.5"><title>2023-11-06 1.0km</title><desc>10167691585</desc></polyline><polyline fill="none" points="38.26955626299605,156.0503782769665 39.10494289500639,157.6043379106559 42.20780752599239,164.72663535596803 43.520557946991175,168.7410084985895 43.75923984171823,169.0 43.99792173597962,169.0 43.99792173597962,168.61151273350697 43.04319415707141,166.5395791985793 42.20780752599239,165.37411551410332 42.08846657862887,164.72663535596803 41.372420894447714,163.94965885241982 39.34362478926778,160.45326034456957 36.956805841997266,154.36692046013195 36.00207826355472,151.0" stroke="#4dd2ff" stroke-linecap="round" stroke-linejoin="round" stroke-width="0.5"><title>2023-11-05 1.1km</title><desc>10161301187</desc></polyline><polyline fill="none" points="56.63423998747021,151.0 59.03835428180173,156.3478451555129 60.12020571436733,161.04350078164134 61.803085720632225,164.30436543212272 62.40411429479718,166.9130528375972 63.005142868030816,169.0 63.36576001252979,168.60869759402703 63.24555429723114,168.21739510179032 61.682880006264895,165.34784085466526 61.56267429096624,164.95653764309827 60.12020571436733,162.7391511480091 59.519177140668035,160.65219662082382 57.95650284923613,157.78263013751712 57.59588570520282,155.30436443991493 56.87465141667053,152.69565996550955" stroke="#4dd2ff" stroke-linecap="round" stroke-linejoin="round" stroke-width="0.5"><title>2023-11-04 1.0km</title><desc>10155501797</desc></polyline><polyline fill="none" points="84.8292560079135,153.73419068823569 83.46446626633406,151.91139743244275 82.62459565652534,151.3417740999721 80.94485443644226,151.0 79.37009704252705,151.11392470856663 77.16543669067323,152.139246706618 76.22058225423098,153.05064346885774 75.3807116439566,154.759510952048 75.1707439920865,156.12660358159337 74.8557925131172,160.6835702988319 75.06576016545296,165.46837092377245 75.27572781778872,166.15191266383044 76.32556608086452,167.86076569382567 77.58537199581042,168.77215320582036 79.68504852149636,169.0 81.5747573939152,168.20253607374616 83.35948244063184,166.0379890614422 83.8844015719369,165.01267626299523 84.61928835557774,161.7088859624928 84.61928835557774,159.08863347244915 85.1442074868828,155.6709061722504 85.03922366071492,154.41773760621436 83.8844015719369,153.05064346885774 82.93954713549465,152.36709594738204 80.73488678364083,151.3417740999721 79.58006469486281,151.3417740999721 77.06045286497101,152.139246706618 75.90563077572733,153.16456802631728 75.1707439920865,154.53166206309106 74.96077633928508,155.44305741763674 75.1707439920865,159.20255758613348 74.96077633928508,160.9114182825433" stroke="#4dd2ff" stroke-linecap="round" stroke-linejoin="round" stroke-width="0.5"><title>2023-11-03 1.0km</title><desc>10152446508</desc></polyline><polyline fill="none" points="96.27463989239186,151.0 97.25869727879763,153.13560138468165 98.10217503923923,156.94916981831193 99.50797130679712,159.69493475090712 101.61666570650414,165.18645371461753 102.03840458672494,166.10170546243899 102.74130272027105,168.54237481567543 103.16304160049185,169.0 103.72536010714248,169.0 103.72536010714248,168.6949165549595 102.74130272027105,168.23729130346328 102.31956384051591,167.1694986578077 101.33550645317882,166.25424738100264 100.63260832009837,164.2712015635334 99.64855093276128,162.74578041420318 98.52391391946003,160.45764658704866 97.25869727879763,155.72882868233137 96.41521951835603,153.74577280506492" stroke="#4dd2ff" stroke-linecap="round" stroke-linejoin="round" stroke-width="0.5"><title>2023-11-02 1.1km</title><desc>10144903556</desc></polyline><polyline fill="none" points="116.93475404940546,152.30435396311805 117.1751654963009,153.73914221522864 118.13681128481403,155.95653995871544 119.81969141447917,161.9565434876131 122.70462878094986,167.95652672555298 123.54606884531677,169.0 123.06524595152587,167.4347898582928 121.26216009771451,164.6956687872298 120.30051430920139,161.17393548239488 119.09845707379282,159.47828362043947 117.65598839055747,156.34784515528008 116.45393115468323,151.0" stroke="#4dd2ff" stroke-linecap="round" stroke-linejoin="round" stroke-width="0.5"><title>2023-11-01 1.0km</title><desc>10138966680</desc></polyline><polyline fill="none" points="137.3807812235318,151.27067799540237 138.0044047422707,153.3007616904797 139.00220237160102,158.71430726593826 140.62362351827323,162.23310335283168 141.62142114760354,165.48121684766375 143.24284229520708,169.0 143.367566999048,168.8646623105742 142.24504466587678,167.24060926458333 140.62362351827323,163.45114658481907 139.25165177835152,161.01505931455176 136.88188240956515,153.84211696428247 136.63243300141767,151.0" stroke="#4dd2ff" stroke-linecap="round" stroke-linejoin="round" stroke-width="0.5"><title>2023-10-31 1.0km</title><desc>10133123337</desc></polyline><polyline fill="none" points="157.17383081186563,153.1333426652709 157.78821541834623,156.33335195819382 157.78821541834623,157.5333539872663 159.1398615515791,159.80002232000697 162.82616918860003,167.66667279333342 163.44055379508063,168.8666673231637 163.68630763702095,169.0 160.86013844888657,163.40001914394088 159.6313692368567,159.93335566332098 158.27972310315818,157.1333533989964 156.31369236344472,151.0" stroke="#4dd2ff" stroke-linecap="round" stroke-linejoin="round" stroke-width="0.5"><title>2023-10-30 1.0km</title><desc>10127985445</desc></polyline><polyline fill="none" points="177.1625133054331,153.60527560755145 177.70818382361904,157.27633863000665 178.0355861345306,158.46055072336458 180.21826820774004,163.5526528044138 181.30960924364626,166.5131698701298 182.94662079866976,168.76315920078196 183.38315721368417,169.0 183.4922913168557,168.6447387879016 182.510084384121,167.10527262999676 181.09134103683755,164.026335900533 178.58125665271655,159.40791977138724 177.5990497195162,155.97370432177559 176.83511099405587,154.43422605399974 176.72597689041868,152.06579507607967 176.5077086831443,151.0" stroke="#4dd2ff" stroke-linecap="round" stroke-linejoin="round" stroke-width="0.5"><title>2023-10-28 1.0km</title><desc>10115543824</desc></polyline><polyline fill="none" points="17.665338153019547,174.73334801755846 18.64835366792977,177.93335448706057 19.754246120806783,180.46668893785682 20.737261635717005,184.06668443838134 22.211784907616675,187.53334001882467 22.82616960350424,188.8666673237458 23.440554299857467,189.0 23.563431239686906,188.8666673237458 23.31767736049369,188.06667105830275 22.580415724776685,186.0666788512608 20.122876939363778,181.26668855571188 18.156845910008997,175.9333511054283 16.928076517302543,173.26667649880983 16.436568760313094,171.0" stroke="#4dd2ff" stroke-linecap="round" stroke-linejoin="round" stroke-width="0.5"><title>2023-10-27 1.0km</title><desc>10110442644</desc></polyline><polyline fill="none" points="37.560530186630785,173.77942351426464 39.8780265096575,181.58825709018856 40.73184094438329,183.9706063530175 41.585655379574746,185.42648490646388 42.561443304643035,188.20588614756707 42.92736377660185,188.7352954216767 43.659204720985144,189.0 43.78117821086198,188.60294311773032 43.659204720985144,188.07353380485438 42.439469813834876,186.48530493315775 40.609867453575134,183.3088429851923 38.41434462182224,176.82354910613503 36.95066273352131,174.44119038514327 36.21882178913802,171.0" stroke="#4dd2ff" stroke-linecap="round" stroke-linejoin="round" stroke-width="0.5"><title>2023-10-26 1.0km</title><desc>10104873905</desc></polyline><polyline fill="none" points="59.098457272630185,179.6087184365606 61.863188304938376,186.52174997131806 63.18545097252354,188.86956587433815 63.66627376014367,189.0 63.54606806393713,187.695658311015 60.300514242611825,182.0869781221263 58.49742878694087,177.52176022727508 56.93475472507998,174.26088311045896 56.33372623985633,171.0" stroke="#4dd2ff" stroke-linecap="round" stroke-linejoin="round" stroke-width="0.5"><title>2023-10-25 1.0km</title><desc>10098978222</desc></polyline><polyline fill="none" points="76.67021359270439,171.0 76.54913045093417,171.91971242427826 77.2756293034181,174.9416213426739 78.24429444037378,176.9124287540326 78.84971015015617,179.27739477867726 79.93945842934772,182.43067794316448 82.24003812810406,186.8978195694508 82.96653698058799,188.737227581325 83.20870326505974,189.0 83.45086954906583,188.8686137953773 83.32978640682995,187.16059225809295 81.99787184409797,184.6642501518363 81.02920670807362,183.2189978651004 79.81837528664619,180.45987661753315 79.57620900310576,179.01462093077134 78.12321129767224,176.78104166104458 77.2756293034181,174.8102341046324 77.03346301894635,172.44526216841768 76.67021359270439,171.0" stroke="#4dd2ff" stroke-linecap="round" stroke-linejoin="round" stroke-width="0.5"><title>2023-10-24 1.0km</title><desc>10092835699</desc></polyline><polyline fill="none" points="98.1502161314711,174.1079268073663 99.9403295526281,180.45326034456957 100.7757158158347,182.0072160938289 101.73044297331944,185.89209946908522 103.16253370977938,188.4820169589948 103.75923818396404,189.0 103.16253370977938,188.35252117482014 102.32714744703844,186.28058733535 100.17901134165004,183.69066660827957 99.7016477631405,182.7841934543103 99.2242841841653,179.80577837780584 97.7921934472397,176.9568548965035 96.83746628975496,173.9784299666062 96.24076181650162,171.0" stroke="#4dd2ff" stroke-linecap="round" stroke-linejoin="round" stroke-width="0.5"><title>2023-10-23 1.0km</title><desc>10087395010</desc></polyline><polyline fill="none" points="114.17224500933662,171.08633225236554 114.49048418970779,171.0 116.75793835008517,171.1726644920418 117.75243578874506,171.43166113487678 117.99111517402343,171.56115941354074 118.50825384235941,171.94965407782 118.86627292004414,172.3813145144959 119.66187087097205,173.8489576249267 120.05966984643601,175.4892602887703 120.57680851477198,176.35257563943742 120.81548789981753,177.04322700586636 121.37240646546707,178.29503053677035 121.77020544116385,179.58999689779012 122.36690390435979,180.62596793007106 122.64536318718456,180.92812580347527 123.00338226510212,181.5324410837493 123.2022817528341,182.82740030408604 123.32162144547328,183.17272228054935 123.63986062561162,183.6475396664464 123.71942042093724,184.38134759839159 123.83876011357643,184.68350353906862 125.58907560561784,188.82734075089684 125.82775499089621,189.0 125.82775499089621,188.78417593060294 125.46973591297865,188.43885725463042 125.07193693774752,187.48922984837554 124.67413796205074,186.6690958525287 123.60008072829805,183.34538319258718" stroke="#4dd2ff" stroke-linecap="round" stroke-linejoin="round" stroke-width="0.5"><title>2023-10-22 1.5km</title><desc>10080655811</desc></polyline><polyline fill="none" points="137.13705715793185,171.0 137.7685886672698,171.45685924118152 136.63183195027523,171.27411558496533 138.4001201763749,173.5584074241924 138.56852857908234,174.10663621604908 138.44222227716818,174.56349317287095 137.85279286839068,174.88329284300562 137.68438446591608,175.2030923484126 137.72648656647652,175.75131968891947 138.06330337142572,177.07620043179486 138.44222227716818,178.03559506835882 138.86324328323826,179.4975269040442 139.62108109449036,180.82239965925692 139.74738739640452,181.3249368618708 140.21051050303504,182.14726958947722 140.50522520765662,182.51275045255898 140.54732730798423,182.74117588269291 140.84204201260582,183.01528628816595 141.05255251564085,183.47213669511257 141.3472672200296,184.3401515429723 141.64198192441836,184.93405574030476 141.59987982385792,186.12186243198812 142.14720713184215,187.1726126128342 142.31561553431675,187.675144680019 142.61033023847267,188.22336101706605 143.1155554461293,188.86294613225618 143.3681680499576,189.0 142.39981973543763,187.62945996341296 142.1893092324026,186.89850404136814 141.76828822609968,185.98480792954797 141.59987982385792,185.3909047365305 141.05255251564085,184.6142612430849 140.5894294087775,183.28939657268347" stroke="#4dd2ff" stroke-linecap="round" stroke-linejoin="round" stroke-width="0.5"><title>2023-10-20 1.4km</title><desc>10069668027</desc></polyline><polyline fill="none" points="156.37802091496997,171.0 156.46374823059887,171.69768395990832 157.14956675539725,173.3721223237808 157.32102138688788,174.39538803097093 158.7355220944155,177.83726962580113 158.86411306774244,178.302387323929 158.94984038360417,179.0000632299343 159.12129501462914,179.46518007316627 160.15002280217595,180.90704011387425 160.7072503536474,182.02331659808988 161.050159616163,183.13959111261647 161.35020522098057,183.7442389856442 161.52165985223837,184.67446535412455 161.7359781411942,185.13957802538062 162.29320569266565,186.58142513339408 162.37893300829455,187.13955861562863 163.19334250688553,188.81395610782783 163.40766079584137,189.0 163.5362517691683,189.0 163.6219790847972,188.95348903205013 163.57911542709917,188.9069780607242 162.721842271043,187.83722477586707 162.33606935059652,186.5349139876198 161.52165985223837,185.04655551846372 161.3930688786786,184.44190889014862 161.3073415630497,183.41865943354787" stroke="#4dd2ff" stroke-linecap="round" stroke-linejoin="round" stroke-width="0.5"><title>2023-10-19 1.3km</title><desc>10064004415</desc></polyline><polyline fill="none" points="175.94113790709525,171.0 177.7058605561033,173.29788272990845 177.5882123792544,174.95746281044558 177.82350873248652,176.61704130494036 178.64704596903175,179.55321475525852 179.82352773472667,181.46810780919623 181.00000950088724,184.7872507669963 183.35297303367406,188.61702321912162 183.7059175632894,189.0 184.05886209290475,188.87234108219855 182.52943579666317,187.3404333399376 179.70587955834344,181.8510861665709 178.9999904986471,179.4255551431561 176.99997149594128,175.21278268191963" stroke="#4dd2ff" stroke-linecap="round" stroke-linejoin="round" stroke-width="0.5"><title>2023-10-18 1.0km</title><desc>10058081424</desc></polyline><polyline fill="none" points="16.858259035274386,192.09091406327207 17.863616143818945,197.95456616184674 20.50267855450511,204.9091062474763 22.26205349434167,208.59091103076935 23.016071326099336,209.0 23.39308024197817,209.0 23.644419518765062,208.4545480213128 22.764732049312443,207.36364358162973 21.633705301675946,205.59092249977402 20.125669638626277,202.31820220442023 19.49732144596055,200.4091126989806 16.858259035274386,195.09092442982364 16.606919758487493,194.27274026570376 16.355580481234938,191.0" stroke="#4dd2ff" stroke-linecap="round" stroke-linejoin="round" stroke-width="0.5"><title>2023-10-17 1.0km</title><desc>10051702317</desc></polyline><polyline fill="none" points="35.98050376260653,191.41538655466866 37.25653431424871,193.63077996543143 39.17058014171198,198.61540561076254 40.19140458293259,200.55386757676024 41.339832079131156,204.15386307716835 42.74346568621695,207.75385169649962 43.25387790706009,208.72307822608855 43.891893182415515,209.0 44.01949623785913,208.86153911834117 43.891893182415515,208.44615641143173 42.48825957579538,206.36924150353298 40.574213748797774,201.66155923274346 39.17058014171198,198.75386724586133 38.022152645513415,193.3538559313165 37.384137369226664,191.0" stroke="#4dd2ff" stroke-linecap="round" stroke-linejoin="round" stroke-width="0.5"><title>2023-10-16 1.0km</title><desc>10046279660</desc></polyline><polyline fill="none" points="56.31368951732293,191.0 56.840305301360786,192.14286210003775 57.36692108446732,194.71429936750792 58.55180659657344,198.71430613135453 60.13165394589305,201.14287764916662 61.974809186998755,208.00000437430572 62.633078916464,208.71428701665718 63.55465653678402,209.0 63.686310483142734,208.71428701665718 63.55465653678402,207.8571478142403 61.84315524157137,205.42858468799386 60.92157762078568,202.57144771213643 59.86834605457261,200.85716351040173 57.36692108446732,195.0000144095393 56.44534346368164,191.0" stroke="#4dd2ff" stroke-linecap="round" stroke-linejoin="round" stroke-width="0.5"><title>2023-10-15 1.0km</title><desc>10039610121</desc></polyline><polyline fill="none" points="76.25423207087442,192.3064571354771 76.65556434867904,196.51614647032693 77.72578375739977,199.5645365928067 79.06355801783502,201.45163288107142 79.86622257437557,204.06453245715238 82.1404388169758,208.12903603585437 82.6755485208705,208.70967872138135 83.34443565178663,209.0 83.74576792959124,208.70967872138135 83.74576792959124,208.2741967231268 81.07021940825507,206.0967852922622 79.3311128700152,202.9032441836316 78.66222574003041,200.1451817966299 77.05689662694931,196.51614647032693 76.25423207087442,193.4677516417578 76.38800949696451,191.5806477224687 76.25423207087442,191.0" stroke="#4dd2ff" stroke-linecap="round" stroke-linejoin="round" stroke-width="0.5"><title>2023-10-14 1.0km</title><desc>10033377496</desc></polyline><polyline fill="none" points="95.91872827988118,191.28571558836848 98.28849895577878,194.1428691581823 98.55180680891499,196.2857315784786 100.78992355847731,203.14287544356193 102.89638638170436,208.14286092377733 103.5546560138464,209.0 104.08127171965316,209.0 104.08127171965316,208.5714305093279 103.94961779285222,208.14286092377733 102.76473245490342,207.2857214693213 101.44819319108501,204.85715762886684 99.99999999953434,200.28573510737624 97.36692147096619,194.42858428391628 96.9719596914947,192.42857752018608 96.313690058887,191.0" stroke="#4dd2ff" stroke-linecap="round" stroke-linejoin="round" stroke-width="0.5"><title>2023-10-13 1.0km</title><desc>10028006924</desc></polyline><polyline fill="none" points="116.1378172035329,191.0 117.40410664491355,192.6488621745957 118.16388031002134,194.0229128751671 118.29050925420597,195.80917727621272 118.16388031002134,197.73284472187515 119.55679869512096,200.6183421780588 121.2029749690555,205.0152821157826 122.84915124299005,208.03817232279107 123.22903807554394,208.58778819919098 123.86218279600143,209.0 123.86218279600143,208.31298028118908 122.46926441043615,206.5267278305255 121.2029749690555,204.32826093258336 119.55679869512096,199.79391478805337 118.54376714210957,198.007654195535 118.03725136583671,196.4962015914498" stroke="#4dd2ff" stroke-linecap="round" stroke-linejoin="round" stroke-width="0.5"><title>2023-10-12 1.0km</title><desc>10021974100</desc></polyline><polyline fill="none" points="137.89550185156986,193.5522495948244 138.39067788608372,196.23882426461205 138.26688387757167,197.31345302646514 139.38102995604277,200.9403204311384 140.2475880170241,202.5522591888439 141.1141460784711,205.50747655145824 142.35208616545424,208.46268913452514 142.59967418340966,208.73134458682034 143.2186442273669,209.0 143.09485021792352,208.46268913452514 141.73311612196267,204.97016465931665 140.2475880170241,202.41793101315852 138.26688387757167,197.85076717019547 137.7717078421265,196.1044956248952 137.5241198251024,193.5522495948244 136.7813557726331,191.0" stroke="#4dd2ff" stroke-linecap="round" stroke-linejoin="round" stroke-width="0.5"><title>2023-10-10 1.0km</title><desc>10009069592</desc></polyline><polyline fill="none" points="156.95066273305565,193.2500098424498 157.80447716778144,195.6323701395886 158.65829160250723,198.80884563201107 160.48789396276698,202.7794321157271 161.95157585060224,207.80882909044158 162.80539028532803,209.0 163.04933726694435,208.60294311773032 163.17131075728685,207.14706713322084 162.31749632256106,204.63236947765108 160.48789396276698,201.4559042607434 158.41434462135658,195.6323701395886 157.80447716778144,192.98530294792727 156.8286892422475,191.0" stroke="#4dd2ff" stroke-linecap="round" stroke-linejoin="round" stroke-width="0.5"><title>2023-10-09 1.0km</title><desc>10003389142</desc></polyline><polyline fill="none" points="176.33512142067775,191.0 177.2352670370601,192.11628403502982 178.13541265344247,194.20931483071763 178.64978157635778,198.3953694977099 180.57866503950208,202.58141493203584 182.25036404049024,207.3255885966355 183.0219174255617,208.7209315354703 183.6648785797879,209.0 183.6648785797879,207.88372589554638 181.2216261937283,203.97676135855727 178.00682042259723,196.1628081573872 176.72089811321348,191.13953554059844" stroke="#4dd2ff" stroke-linecap="round" stroke-linejoin="round" stroke-width="0.5"><title>2023-10-08 1.0km</title><desc>9996447828</desc></polyline><polyline fill="none" points="17.689474100712687,214.60001482162625 18.281916639301926,216.78573449037503 20.05924425413832,221.54287962068338 20.65168679272756,223.60001945286058 22.547502914909273,228.35714604717214 23.139945453498513,229.0 23.25843396084383,228.48571685678326 23.25843396084383,227.97143356245942 21.00715231569484,223.98573290207423 19.940755746793002,221.67145093088038 18.044939623679966,216.01430433080532 17.452497085090727,213.05715223390143 16.74156603915617,211.0" stroke="#4dd2ff" stroke-linecap="round" stroke-linejoin="round" stroke-width="0.5"><title>2023-10-07 1.0km</title><desc>9989974159</desc></polyline><polyline fill="none" points="38.5293982247822,216.36172163987067 39.470583360642195,219.42555514350533 40.17647221311927,220.9574698683573 41.588249917607754,226.95745619398076 41.94119434338063,228.10638738039415 42.647083195857704,229.0 43.23532390547916,229.0 43.47062018932775,228.48936427361332 43.352972047869116,228.10638738039415 41.94119434338063,226.06384252291173 40.529416638892144,223.00002073205542 40.05882407119498,220.9574698683573 37.5882130889222,214.95746281091124 37.235268662683666,212.78724238602445 36.52937981067225,211.0" stroke="#4dd2ff" stroke-linecap="round" stroke-linejoin="round" stroke-width="0.5"><title>2023-10-06 1.0km</title><desc>9984428862</desc></polyline><polyline fill="none" points="56.12483936548233,211.0 58.16439759451896,216.45903345034458 59.52410308038816,221.0328068000963 61.83560240641236,226.78689395042602 62.78739624656737,228.7049193349667 63.19530789228156,229.0 63.739190086722374,229.0 63.87516063498333,228.7049193349667 63.467248988803476,227.96721748064738 61.83560240641236,225.60656972648576 60.88380856625736,223.6885413810378 59.25216198293492,219.40985615958925 58.57230924023315,217.19673953438178 56.6687215603888,213.65574785752688 56.6687215603888,212.32787436805665" stroke="#4dd2ff" stroke-linecap="round" stroke-linejoin="round" stroke-width="0.5"><title>2023-10-04 1.0km</title><desc>9971682885</desc></polyline><polyline fill="none" points="77.27562950411811,213.10219913115725 77.88104516966268,215.20439578976948 78.48646083520725,216.64965455804486 78.97079336829484,218.8832339918008 81.27137289801612,223.48177109507378 81.39245603140444,225.05840966361575 82.11895483080298,228.21168262825813 82.36112109664828,228.6058413576102 83.08761989604682,229.0 83.08761989604682,227.68613752059173 81.51353916525841,224.79563666554168 80.42379096662626,222.29929125588387 79.81837530015036,221.11681063415017 79.21295963414013,219.40878168831114 78.002128303051,216.912428754149 77.51779576996341,214.9416213426739 77.27562950411811,212.97081175807398 76.91238010441884,211.0" stroke="#4dd2ff" stroke-linecap="round" stroke-linejoin="round" stroke-width="0.5"><title>2023-10-03 1.0km</title><desc>9965060084</desc></polyline><polyline fill="none" points="96.70973855769262,211.7438048243057 98.35486927861348,217.09919148962945 98.62905773241073,219.47935879125725 99.58871732000262,220.66944139194675 100.27418845379725,222.45456398068927 101.50803649425507,227.06612337986007 102.46769608184695,228.55372094386257 103.15316721564159,229.0 103.29026144277304,228.8512403254863 102.87897876231,227.6611625365913 101.37094226805493,224.83472498285118 98.90324618574232,218.88431722810492 97.39520969148725,214.42149992857594 97.12102123815566,211.0" stroke="#4dd2ff" stroke-linecap="round" stroke-linejoin="round" stroke-width="0.5"><title>2023-10-02 1.0km</title><desc>9958643020</desc></polyline><polyline fill="none" points="117.146795372013,214.16801199468318 117.41220975574106,215.46401542495005 120.33176798000932,222.37601923558395 121.79154709167778,226.84000873356126 122.58779024379328,228.4240025616018 123.38403339544311,229.0 123.51674058800563,228.85600065614562 123.38403339544311,228.2800031756051 120.72988955536857,224.2480160703417 118.20845290785655,218.0560197121231 117.01408817991614,214.31201241828967 116.48325941199437,211.0" stroke="#4dd2ff" stroke-linecap="round" stroke-linejoin="round" stroke-width="0.5"><title>2023-10-01 1.0km</title><desc>9952075403</desc></polyline><polyline fill="none" points="137.41557656321675,213.60870696778875 138.4974282346666,215.8261048743734 138.97825119877234,218.04350000969134 139.3388684228994,220.1304576053517 141.14195454167202,225.21740646020044 142.70462917815894,228.47826343949419 143.42586362501606,229.0 143.6662751082331,228.60869759391062 141.26216028351337,224.95653764309827 140.18030861206353,222.47828196594492 139.81969138793647,221.17393548239488 138.13681101053953,217.52176022715867 137.17516508046538,213.47827171022072 136.3337248917669,211.0" stroke="#4dd2ff" stroke-linecap="round" stroke-linejoin="round" stroke-width="0.5"><title>2023-09-30 1.0km</title><desc>9945549317</desc></polyline><polyline fill="none" points="157.213150607422,211.0 158.40751463314518,213.0160082259681 158.80563597474247,214.60001323360484 159.86729288613424,217.19201866455842 160.3981213425286,221.0800203795079 160.79624268459156,222.23201940534636 162.38872805144638,226.12001111591235 162.78684939350933,228.56800193735398 163.05226362170652,228.85600065637846 163.4503849633038,229.0 163.58309207716957,228.7120013020467 161.19436402618885,224.39201575319748 159.60187865886837,220.64802057005 159.07105020293966,218.48802009352949 157.213150607422,214.16801199526526 156.4169079232961,211.57600256206933" stroke="#4dd2ff" stroke-linecap="round" stroke-linejoin="round" stroke-width="0.5"><title>2023-09-28 1.0km</title><desc>9933629332</desc></polyline><polyline fill="none" points="176.4812475326471,213.04546334245242 177.48660538066179,216.5909277930623 179.37165134493262,219.1818398362957 180.62834865506738,223.81819972326048 182.387724888511,226.9545542517444 182.89040381275117,228.72727403056342 183.39308273606002,229.0 183.64442219864577,228.59091103065293 183.39308273606002,228.04545893135946 182.387724888511,226.6818279812578 179.49732107575983,220.81820347253233 177.98928430397063,216.72729167481884 176.3555778018199,211.0" stroke="#4dd2ff" stroke-linecap="round" stroke-linejoin="round" stroke-width="0.5"><title>2023-09-27 1.0km</title><desc>9927137811</desc></polyline><polyline fill="none" points="21.495321366703138,231.0 21.13644423848018,232.73079315607902 20.777567110490054,233.72599691554205 20.498440455412492,234.93754704669118 18.863555761054158,238.35583575541386 18.026175795821473,239.78372262767516 17.866674849996343,240.38949176907772 17.946425322676077,240.86545280006249 18.145801505073905,241.55775906681083 18.743930051568896,243.02890717971604 18.943306233966723,243.4183281234 19.182557652704418,244.11063138698228 19.980062381597236,245.10581590171205 20.338939509587362,245.88465478277067 20.737691874150187,246.49041764438152 21.056693765800446,247.3557920793537 21.535196603043005,248.00482207047753 22.133325149770826,249.0" stroke="#4dd2ff" stroke-linecap="round" stroke-linejoin="round" stroke-width="0.5"><title>2023-09-26 1.0km</title><desc>9920397094</desc></polyline><polyline fill="none" points="39.91593836294487,231.0 39.131363085703924,233.61488918599207 38.34678780846298,235.01354744983837 37.618253622204065,235.92571460851468 37.22596598370001,236.65544761100318 37.05784271005541,237.38517996965675 37.113883800804615,238.29734451253898 37.3940892573446,239.02707542252028 38.06658235215582,240.06085977627663 38.34678780846298,241.0946428378229 38.90719872061163,242.43247782281833 39.97197945415974,243.77031064400217 41.76529437373392,247.4189346122439 42.94215728971176,249.0" stroke="#4dd2ff" stroke-linecap="round" stroke-linejoin="round" stroke-width="0.5"><title>2023-09-25 1.0km</title><desc>9914573673</desc></polyline><polyline fill="none" points="61.32704889355227,231.0 60.88469926244579,231.67200891877292 60.79622933617793,232.00801311869873 60.88469926244579,232.4400182645768 60.928934225579724,232.8720231244224 60.04423496313393,234.50403890397865 59.823060147464275,235.60804726480274 59.51341540599242,236.42405224451795 57.65554695483297,239.68806196353398 57.61131199169904,240.07206203386886 57.788251844001934,240.8400614973507 58.27483643847518,241.6080600572168 58.540246217278764,242.2800580559997 58.93836088525131,242.95205536298454 59.15953570092097,243.62405197828775 59.734590221429244,244.53604627848836 60.176939852302894,245.44803930463968 60.66352444700897,245.9760346848634 60.79622933617793,246.45603011449566 61.10587407811545,246.8400262040086 61.769398524891585,247.99201311788056 62.255983119132,248.5200064406381 62.38868800853379,249.0" stroke="#4dd2ff" stroke-linecap="round" stroke-linejoin="round" stroke-width="0.5"><title>2023-09-24 1.0km</title><desc>9907510217</desc></polyline><polyline fill="none" points="80.67104142787866,231.0 80.29525822820142,231.5825306751649 80.02684165723622,232.1650609219796 79.8657917145174,232.9223496025661 79.81210840004496,233.9126490924391 78.89949205797166,235.13595851819264 78.3626589155756,236.53402412019204 77.87950908741914,237.23305599595187 77.5574092019815,238.16509753774153 77.50372588750906,239.15539047430502 78.63107548677363,242.00975730718346 79.06054200069048,242.8835410165484 80.45630817115307,245.09712210064754 81.0468246275559,246.5534220727859 81.79839102714323,247.4854526500567 82.22785754106008,248.24272668687627 82.49627411249094,249.0" stroke="#4dd2ff" stroke-linecap="round" stroke-linejoin="round" stroke-width="0.5"><title>2023-09-23 1.0km</title><desc>9901004991</desc></polyline><polyline fill="none" points="100.69117305218242,231.0 100.33278702525422,231.6666743136011 99.97440099832602,232.83335294673452 99.15523293660954,234.5555895413272 98.33606487489305,235.7222637136001 97.61929282103665,237.66671666427283 97.5680948169902,238.72227474185638 97.6704908250831,239.33338663936593 98.69445090182126,241.7778292860603 98.84804491349496,242.5000494637643 99.05283692874946,242.88893696578452 99.76960898260586,243.77782193332678 100.33278702525422,244.88892667199252 100.79356905980967,246.05558488948736 101.56153911771253,247.16668627905892 102.43190518324263,249.0" stroke="#4dd2ff" stroke-linecap="round" stroke-linejoin="round" stroke-width="0.5"><title>2023-09-22 1.0km</title><desc>9895405405</desc></polyline><polyline fill="none" points="120.95418478921056,231.0 120.80738712917082,231.53097987367073 120.51379180978984,231.84956761042122 119.87766861682758,233.01772144268034 119.63300585048273,233.86728667921852 118.89901755098253,235.72570714971516 118.11609669867903,237.3186351749464 117.62677116552368,238.48678016033955 117.47997350571677,239.07085194438696 117.47997350571677,239.44253374281107 117.62677116552368,239.97350740875117 117.92036648537032,240.5044806843507 118.55648967833258,242.15049535757862 119.19261287082918,243.31863252696348 119.53514074371196,244.16818564524874 120.17126393644139,245.2301256377832 120.56272436259314,245.7079981250572 120.85631968243979,246.55754843255272 121.63924053497612,247.93806555081392 122.5200264940504,249.0" stroke="#4dd2ff" stroke-linecap="round" stroke-linejoin="round" stroke-width="0.5"><title>2023-09-21 1.0km</title><desc>9889267953</desc></polyline><polyline fill="none" points="141.83262381213717,231.0 141.1902608263772,232.9271348346956 140.81240024673752,234.4442362957052 140.20782331866212,235.71531812573085 139.48988821706735,237.84744888261775 138.2429483034648,240.18458284673397 137.90287378174253,241.45565159220132 137.9406598394271,241.74266671438818 138.16737618739717,242.3576986216649 138.65859494148754,243.42375232084305 138.9608834052924,244.32579616687144 139.71660456503741,245.39184610371012 140.17003726097755,246.2528849497321 140.4345396666322,246.86791188293137 140.73682813043706,247.4009346763487 141.22804688452743,247.76995015799184 141.83262381213717,248.6719869741064 141.8704098702874,248.83599351116573 142.09712621825747,249.0" stroke="#4dd2ff" stroke-linecap="round" stroke-linejoin="round" stroke-width="0.5"><title>2023-09-20 1.0km</title><desc>9882714971</desc></polyline><polyline fill="none" points="161.492503026966,231.0 161.10871653445065,231.97173551184824 160.3837864927482,234.10029377049068 160.3411435491871,234.79438729817048 160.08528588735498,235.16457019996597 159.78678528219461,235.85866255377186 159.61621350748464,236.50648139341502 159.27506995853037,237.3856630375376 158.29428225499578,238.9589323879336 158.03842459316365,239.88438310968922 157.9531387060415,240.71728759579128 158.03842459316365,241.55019097944023 158.29428225499578,242.47563789068954 158.59278286015615,243.12344991898863 159.53092762012966,244.74297707213555 160.00000000023283,245.39078676642384 160.42642943630926,246.5475881336024 160.85285887261853,247.28793989261612 161.27928830869496,247.889475055621 161.7483606885653,248.35219402058283 162.04686129419133,249.0" stroke="#4dd2ff" stroke-linecap="round" stroke-linejoin="round" stroke-width="0.5"><title>2023-09-19 1.0km</title><desc>9876194288</desc></polyline><polyline fill="none" points="179.86750662187114,231.0 179.54952251445502,231.51757766940864 179.01954900240526,232.5527319808025 178.8605569486972,233.24283409374766 177.90660462668166,234.91057835303945 177.1646417095326,236.46330257016234 177.00564965582453,237.03838483133586 177.05864700721577,237.67097482999088 177.3766311146319,238.47608863416826 177.85360727552325,239.33870964730158 178.27758608548902,240.5463774675154 178.8605569486972,241.81155127921375 179.4965251632966,242.96170751401223 180.07949602697045,243.70930815977044 180.76846159272827,244.85946160397725 181.19244040246122,246.18213597405702 181.9344033198431,247.33228578220587 182.30538477841765,248.36741916363826 182.9943503444083,249.0" stroke="#4dd2ff" stroke-linecap="round" stroke-linejoin="round" stroke-width="0.5"><title>2023-09-18 1.0km</title><desc>9870505463</desc></polyline><polyline fill="none" points="20.180867734597996,251.0 19.922485256800428,251.5046786859748 19.560749787837267,253.18693856027676 19.095661327708513,253.97199189837556 18.888955345377326,254.58881895412924 17.75207244278863,256.43929712829413 17.33866047835909,257.4486469672411 17.08027800032869,258.3458457023953 17.286983982659876,258.9626692206948 18.42386688501574,261.4299583049142 18.99230833654292,262.3271523566218 19.40572030097246,263.2804198800004 20.077514743432403,264.17761175491614 20.439250212628394,264.79443055659067 20.904338672524318,266.2523639231222 22.91972199990414,269.0" stroke="#4dd2ff" stroke-linecap="round" stroke-linejoin="round" stroke-width="0.5"><title>2023-09-16 1.0km</title><desc>9856514700</desc></polyline><polyline fill="none" points="39.75117739033885,251.0 39.198238257551566,252.68001679936424 38.47941738506779,253.82002622907748 36.98648172640242,256.7000429572654 36.931187813170254,257.36004535935353 36.98648172640242,258.1400475098053 37.318245206261054,258.92004891473334 37.87118433904834,259.76004959398415 38.368829558370635,260.9000491327606 39.25353217078373,262.4000460996176 40.35941043659113,264.50003722141264 40.46999826305546,265.2800325474236 40.85705565591343,265.58003055123845 41.29940696223639,266.18002622795757 42.018227834720165,267.38001625816105 42.7923426204361,268.04001002263976 42.95822436036542,268.46000577666564 43.068812187062576,269.0" stroke="#4dd2ff" stroke-linecap="round" stroke-linejoin="round" stroke-width="0.5"><title>2023-09-15 1.0km</title><desc>9850671982</desc></polyline><polyline fill="none" points="60.45760422758758,251.0 59.54239577241242,253.4207119922503 58.51278626034036,254.91037746024085 58.05518203275278,255.7172784911818 57.36877569137141,257.4552165536443 57.19717410602607,258.07590785168577 57.19717410602607,258.57246056129225 57.36877569137141,259.193151037849 58.05518203275278,261.05521972937277 58.684387845685706,262.29659657517914 60.22880211402662,264.96555061248364 60.858007926726714,266.14485319692176 60.97240898362361,266.82760657178005 61.43001321121119,267.26208570454037 62.17362008104101,268.44138508086326 62.80282589397393,269.0" stroke="#4dd2ff" stroke-linecap="round" stroke-linejoin="round" stroke-width="0.5"><title>2023-09-14 1.0km</title><desc>9844236351</desc></polyline><polyline fill="none" points="77.13924675201997,251.0 77.46854208991863,251.26799398573348 77.59202784160152,251.535987853189 77.67435167613439,252.11664082697826 77.92132317950018,252.60796214069705 78.08597084856592,253.99259279557737 78.08597084856592,254.66257423744537 78.00364701403305,255.01989737094846 78.08597084856592,255.46655099239433 78.29178043454885,256.00253490457544 78.20945660024881,256.4491878034314 78.25061851739883,256.6725141296629 78.66223768983036,257.4318230249919 79.03269494511187,258.54845202929573 79.3619902827777,259.17376337520545 79.77360945520923,259.7544090486481 80.22639054479077,260.1563941896311 80.34987629647367,260.42438413598575 80.47336204838939,261.00502861407585 80.80265738628805,261.5856725371559 81.17311464133672,262.6576290910598 81.6670576480683,263.5955895241932 81.91402915143408,264.39955445716623 82.0375149033498,265.0695244217641 82.28448640671559,265.6054998616455 82.73726749629714,267.0794298829278 83.35469625494443,268.2407055631047 83.39585817232728,268.41936316300416 83.35469625494443,268.5533563285135 82.86075324798003,269.0 83.10772475157864,268.8213425707654 83.23121050326154,268.5533563285135 83.31353433756158,268.330034369661 83.27237242064439,268.0173834892921 83.02540091704577,267.70473244803725 82.28448640671559,266.0968102659681 81.91402915143408,264.89086583675817 81.1319527241867,263.14894187945174 80.7614954689052,261.45167783496436 80.55568588292226,260.96036367397755 79.77360945520923,259.9330691441428 78.99153302772902,258.45912178448634 78.62107577244751,257.2531621938688 78.49759002099745,256.4491878034314 78.16829468286596,255.60054701479385 77.50970400730148,254.1712545856717 77.34505633823574,253.50127260189038 76.7687894969713,252.4292998908204 76.64530374505557,251.84864721581107 76.60414182790555,251.1339970076806" stroke="#4dd2ff" stroke-linecap="round" stroke-linejoin="round" stroke-width="0.5"><title>2023-09-13 1.0km</title><desc>9837636972</desc></polyline></svg>