<svg xmlns="http://www.w3.org/2000/svg" xmlns:ev="http://www.w3.org/2001/xml-events" xmlns:xlink="http://www.w3.org/1999/xlink" width="200mm" height="300mm" baseProfile="full" version="1.1" viewBox="0 0 200 300"><rect width="200" height="300" x="0" y="0" fill="#222"/><text fill="#FFF" style="font-size:12px;font-family:Arial;font-weight:700" x="10" y="20">Over 1km Runs</text><text fill="#FFF" style="font-size:4px;font-family:Arial" x="10" y="280">ATHLETE</text><text fill="#FFF" style="font-size:9px;font-family:Arial" x="10" y="290">Jiakai</text><text fill="#FFF" style="font-size:4px;font-family:Arial" x="120" y="280">STATISTICS</text><text fill="#FFF" style="font-size:3px;font-family:Arial" x="120" y="285">Number: 71</text><text fill="#FFF" style="font-size:3px;font-family:Arial" x="120" y="290">Weekly: 5.9</text><text fill="#FFF" style="font-size:3px;font-family:Arial" x="141" y="285">Total: 73.4 km</text><text fill="#FFF" style="font-size:3px;font-family:Arial" x="141" y="290">Avg: 1.0 km</text><text fill="#FFF" style="font-size:3px;font-family:Arial" x="167" y="285">Min: 1.0 km</text><text fill="#FFF" style="font-size:3px;font-family:Arial" x="167" y="290">Max: 1.5 km</text><polyline fill="none" stroke="#4dd2ff" stroke-linecap="round" stroke-linejoin="round" stroke-width=".5" points="17.518 31.125 20.317 40.744 23.116 46.481 24.671 50.7 25.138 51.375 25.293 50.869 24.671 49.181 22.339 45.975 21.717 44.288 19.384 39.731 18.295 34.5 17.207 31.463"><title>2023-11-30 1.0km</title><desc>10303537703</desc></polyline><polyline fill="none" stroke="#4dd2ff" stroke-linecap="round" stroke-linejoin="round" stroke-width=".5" points="41.433 35.454 42.334 38.387 42.72 40.761 44.136 43.554 45.681 47.744 47.225 51.096 47.482 51.375 47.74 51.096 47.482 50.118 46.453 48.303 45.037 44.392 42.978 40.203 42.206 35.734 40.661 33.359 39.76 31.125"><title>2023-11-29 1.0km</title><desc>10298007687</desc></polyline><polyline fill="none" stroke="#4dd2ff" stroke-linecap="round" stroke-linejoin="round" stroke-width=".5" points="62.759 33.747 64.236 37.535 64.505 40.303 66.384 44.819 67.458 48.898 68.398 50.792 69.338 51.375 69.741 51.375 70.009 50.938 69.875 50.355 69.338 49.335 67.19 43.654 65.042 38.701 64.639 36.37 63.699 33.602 62.491 31.125"><title>2023-11-28 1.0km</title><desc>10292316108</desc></polyline><polyline fill="none" stroke="#4dd2ff" stroke-linecap="round" stroke-linejoin="round" stroke-width=".5" points="88.275 31.125 89.463 34.35 90.176 37.445 91.127 38.864 92.197 40.928 93.267 44.281 94.218 45.829 94.218 46.603 93.624 47.119 91.722 48.15 90.533 49.182 89.344 49.827 87.561 50.601 84.709 51.375 84.233 51.246 83.876 50.859 83.282 48.408"><title>2023-11-27 1.0km</title><desc>10287544518</desc></polyline><polyline fill="none" stroke="#4dd2ff" stroke-linecap="round" stroke-linejoin="round" stroke-width=".5" points="109.292 35.515 109.945 37.073 111.511 45.003 113.208 49.109 114.121 50.667 114.774 51.375 114.904 51.233 114.513 50.525 114.513 49.392 113.469 46.985 112.294 43.02 111.119 40.613 110.336 36.081 108.118 32.541 107.596 31.125"><title>2023-11-26 1.0km</title><desc>10281488289</desc></polyline><polyline fill="none" stroke="#4dd2ff" stroke-linecap="round" stroke-linejoin="round" stroke-width=".5" points="130.063 31.125 131.568 35.044 132.922 40.597 134.277 43.7 134.578 45.659 135.33 47.456 136.986 50.558 137.738 51.375 138.039 51.375 135.782 46.476 135.481 44.843 133.976 42.72 130.966 34.554 129.461 31.778"><title>2023-11-25 1.0km</title><desc>10275889695</desc></polyline><polyline fill="none" stroke="#4dd2ff" stroke-linecap="round" stroke-linejoin="round" stroke-width=".5" points="152.326 31.314 153.372 36.046 158.256 49.293 159.477 51.186 160 51.375 160.174 50.807 158.43 48.536 156.337 42.291 154.942 39.452 154.07 33.964 153.023 31.125"><title>2023-11-24 1.0km</title><desc>10271180196</desc></polyline><polyline fill="none" stroke="#4dd2ff" stroke-linecap="round" stroke-linejoin="round" stroke-width=".5" points="176.232 33.375 176.676 34.661 177.713 40.125 180.231 47.839 181.416 51.054 181.86 51.375 182.453 51.375 182.601 51.054 182.305 49.446 180.675 44.786 176.38 35.464 174.899 31.125"><title>2023-11-23 1.0km</title><desc>10265414399</desc></polyline><polyline fill="none" stroke="#4dd2ff" stroke-linecap="round" stroke-linejoin="round" stroke-width=".5" points="19.476 62.876 19.607 64.872 20.133 68.01 22.236 73.999 22.893 76.851 23.944 78.563 24.733 78.563 24.601 77.707 23.156 73.999 21.973 72.145 20.264 66.869 18.293 61.45 17.767 58.313"><title>2023-11-21 1.0km</title><desc>10253878272</desc></polyline><polyline fill="none" stroke="#4dd2ff" stroke-linecap="round" stroke-linejoin="round" stroke-width=".5" points="41.571 63.781 42.252 68.216 45.112 75.458 46.338 78.119 46.747 78.563 47.019 78.415 47.155 78.119 46.611 75.754 44.159 70.433 43.205 67.625 41.707 61.86 40.889 60.382 40.345 58.313"><title>2023-11-20 1.0km</title><desc>10248671423</desc></polyline><polyline fill="none" stroke="#4dd2ff" stroke-linecap="round" stroke-linejoin="round" stroke-width=".5" points="62.645 60 64.624 64.295 65.19 68.744 66.745 72.273 68.3 76.722 69.007 77.795 69.855 78.563 69.714 77.335 67.31 71.045 65.755 65.369 64.2 61.688 63.352 58.313"><title>2023-11-19 1.0km</title><desc>10242265034</desc></polyline><polyline fill="none" stroke="#4dd2ff" stroke-linecap="round" stroke-linejoin="round" stroke-width=".5" points="84.814 76.355 85.699 73.572 86.053 72.9 86.672 72.516 89.679 72.132 91.89 71.653 92.597 71.077 93.039 70.501 93.57 68.102 93.393 67.334 93.747 66.758 93.482 62.343 93.305 61.767 93.216 60.04 93.039 58.984 92.067 58.696 91.271 59.272 91.447 58.984 91.624 59.272 90.475 58.696 90.386 58.313 90.121 58.504 90.298 58.408 89.679 59.176 89.767 59.08 91.624 60.04 91.182 60.424 90.475 60.712 88.794 61 88.706 60.616 89.148 60.424 89.767 60.52 91.624 58.696 94.189 58.792 93.924 58.6 93.57 58.504 93.305 63.111 93.393 64.455 93.659 66.086 93.835 68.869 93.835 69.829 93.57 70.789 93.039 71.365 88.617 71.845 86.583 72.228 85.522 72.996 84.284 74.724 83.576 77.219 83.311 78.563"><title>2023-11-18 1.0km</title><desc>10236386505</desc></polyline><polyline fill="none" stroke="#4dd2ff" stroke-linecap="round" stroke-linejoin="round" stroke-width=".5" points="107.118 58.313 110.05 63.375 111.117 67.136 111.517 69.305 112.316 70.607 114.849 77.984 115.382 78.563 115.382 77.984 114.849 77.261 113.383 72.921 112.583 71.475 112.316 69.016 111.117 65.979 109.784 63.086 109.65 61.495"><title>2023-11-17 1.0km</title><desc>10231268371</desc></polyline><polyline fill="none" stroke="#4dd2ff" stroke-linecap="round" stroke-linejoin="round" stroke-width=".5" points="130.138 58.966 132.095 61.742 132.546 65.498 133.9 68.438 136.007 76.276 137.362 78.563 137.211 77.256 136.158 75.133 135.405 73.01 134.201 67.948 131.794 62.885 131.041 60.599 130.59 58.313"><title>2023-11-16 1.0km</title><desc>10225818993</desc></polyline><polyline fill="none" stroke="#4dd2ff" stroke-linecap="round" stroke-linejoin="round" stroke-width=".5" points="152.738 58.53 153.742 62.45 155.347 66.804 157.554 70.942 158.357 74.208 159.762 77.038 161.166 78.563 157.554 71.813 155.949 66.804 151.334 58.313"><title>2023-11-15 1.0km</title><desc>10219684298</desc></polyline><polyline fill="none" stroke="#4dd2ff" stroke-linecap="round" stroke-linejoin="round" stroke-width=".5" points="175.172 60.749 176.996 63.032 177.277 65.925 179.381 70.95 180.644 75.213 181.907 78.41 182.468 78.563 182.328 76.735 180.504 74.299 179.802 72.168 178.68 70.797 178.259 69.123 176.154 64.86 175.453 61.814 175.032 58.313"><title>2023-11-14 1.0km</title><desc>10213806154</desc></polyline><polyline fill="none" stroke="#4dd2ff" stroke-linecap="round" stroke-linejoin="round" stroke-width=".5" points="18.545 88.288 19.627 92.397 22.602 100.027 23.278 102.522 24.631 105.31 25.036 105.75 24.225 104.283 22.332 99.734 22.197 98.56 20.844 95.332 18.816 91.663 18.004 89.168 17.464 85.5"><title>2023-11-13 1.0km</title><desc>10208522228</desc></polyline><polyline fill="none" stroke="#4dd2ff" stroke-linecap="round" stroke-linejoin="round" stroke-width=".5" points="41.488 87.801 42.902 92.097 44.598 95.625 45.588 99.767 46.578 102.682 47.85 105.443 48.415 105.75 48.698 105.136 47.143 102.068 46.295 98.693 43.184 95.778 41.488 93.324 41.205 90.716 38.802 85.5"><title>2023-11-12 1.0km</title><desc>10202270880</desc></polyline><polyline fill="none" stroke="#4dd2ff" stroke-linecap="round" stroke-linejoin="round" stroke-width=".5" points="63.186 89.278 66.529 96.834 67.643 100.612 68.757 103.634 69.453 104.994 70.15 105.75 70.289 105.146 69.035 101.368 66.668 97.741 64.161 91.998 63.186 87.918 62.211 85.5"><title>2023-11-11 1.0km</title><desc>10196068378</desc></polyline><polyline fill="none" stroke="#4dd2ff" stroke-linecap="round" stroke-linejoin="round" stroke-width=".5" points="86.867 88.52 89.159 95.447 91.287 101.132 92.27 104.862 92.924 105.75 93.252 105.395 92.761 103.263 90.305 97.757 87.85 92.605 84.576 87.454 84.248 85.5"><title>2023-11-10 1.0km</title><desc>10191120477</desc></polyline><polyline fill="none" stroke="#4dd2ff" stroke-linecap="round" stroke-linejoin="round" stroke-width=".5" points="106.549 86.118 108.971 87.973 110.395 90.447 110.823 91.374 110.823 92.765 112.39 97.557 112.959 100.34 114.099 103.431 114.384 104.977 115.096 105.75 115.524 105.595 115.951 104.977 114.384 103.895 111.82 100.185 108.828 91.992 108.116 87.355 107.404 85.5"><title>2023-11-09 1.0km</title><desc>10185506531</desc></polyline><polyline fill="none" stroke="#4dd2ff" stroke-linecap="round" stroke-linejoin="round" stroke-width=".5" points="129.8 87.126 131.298 90.082 131.843 91.56 133.614 95.403 134.295 98.064 134.159 96.438 134.431 97.473 134.976 101.464 136.202 105.159 136.747 105.75 137.428 105.454 137.7 105.011 136.202 103.681 135.112 101.907 134.431 99.985 133.478 96.734 132.115 94.812 130.617 91.56 130.208 89.195 130.345 86.239 130.072 85.5"><title>2023-11-08 1.0km</title><desc>10179505859</desc></polyline><polyline fill="none" stroke="#4dd2ff" stroke-linecap="round" stroke-linejoin="round" stroke-width=".5" points="155.336 96.687 159.904 105.75 160.165 105.608 159.513 104.051 158.338 102.068 157.555 100.086 155.989 98.386 155.467 97.395 155.075 93.997 154.814 93.005 153.248 90.315 152.335 85.5"><title>2023-11-06 1.0km</title><desc>10167691585</desc></polyline><polyline fill="none" stroke="#4dd2ff" stroke-linecap="round" stroke-linejoin="round" stroke-width=".5" points="176.803 91.182 177.743 92.93 181.234 100.942 182.711 105.459 182.979 105.75 183.248 105.75 183.248 105.313 182.174 102.982 181.234 101.671 181.1 100.942 180.294 100.068 178.012 96.135 175.326 89.288 174.252 85.5"><title>2023-11-05 1.1km</title><desc>10161301187</desc></polyline><polyline fill="none" stroke="#4dd2ff" stroke-linecap="round" stroke-linejoin="round" stroke-width=".5" points="17.464 112.688 20.168 118.704 21.385 123.986 23.278 127.655 23.955 130.59 24.631 132.938 25.036 132.497 24.901 132.057 23.143 128.829 23.008 128.389 21.385 125.894 20.709 123.546 18.951 120.318 18.545 117.53 17.734 114.595"><title>2023-11-04 1.0km</title><desc>10155501797</desc></polyline><polyline fill="none" stroke="#4dd2ff" stroke-linecap="round" stroke-linejoin="round" stroke-width=".5" points="49.183 115.763 47.648 113.713 46.703 113.072 44.813 112.688 43.041 112.816 40.561 113.969 39.498 114.994 38.553 116.917 38.317 118.455 37.963 123.582 38.199 128.964 38.435 129.733 39.616 131.656 41.034 132.681 43.396 132.938 45.522 132.04 47.529 129.605 48.12 128.452 48.947 124.735 48.947 121.787 49.537 117.942 49.419 116.532 48.12 114.994 47.057 114.225 44.577 113.072 43.278 113.072 40.443 113.969 39.144 115.123 38.317 116.661 38.081 117.686 38.317 121.915 38.081 123.838"><title>2023-11-03 1.0km</title><desc>10152446508</desc></polyline><polyline fill="none" stroke="#4dd2ff" stroke-linecap="round" stroke-linejoin="round" stroke-width=".5" points="62.059 112.688 63.166 115.09 64.115 119.38 65.696 122.469 68.069 128.647 68.543 129.677 69.334 132.423 69.808 132.938 70.441 132.938 70.441 132.594 69.334 132.079 68.86 130.878 67.752 129.849 66.962 127.618 65.855 125.902 64.589 123.327 63.166 118.007 62.217 115.776"><title>2023-11-02 1.1km</title><desc>10144903556</desc></polyline><polyline fill="none" stroke="#4dd2ff" stroke-linecap="round" stroke-linejoin="round" stroke-width=".5" points="85.302 114.155 85.572 115.769 86.654 118.264 88.547 125.014 91.793 131.764 92.739 132.938 92.198 131.177 90.17 128.095 89.088 124.133 87.736 122.226 86.113 118.704 84.761 112.688"><title>2023-11-01 1.0km</title><desc>10138966680</desc></polyline><polyline fill="none" stroke="#4dd2ff" stroke-linecap="round" stroke-linejoin="round" stroke-width=".5" points="108.303 112.992 109.005 115.276 110.127 121.366 111.952 125.325 113.074 128.979 114.898 132.938 115.039 132.785 113.776 130.958 111.952 126.695 110.408 123.954 107.742 115.885 107.461 112.688"><title>2023-10-31 1.0km</title><desc>10133123337</desc></polyline><polyline fill="none" stroke="#4dd2ff" stroke-linecap="round" stroke-linejoin="round" stroke-width=".5" points="130.571 115.088 131.262 118.688 131.262 120.038 132.782 122.588 136.929 131.438 137.621 132.788 137.897 132.938 134.718 126.638 133.335 122.738 131.815 119.588 129.603 112.688"><title>2023-10-30 1.0km</title><desc>10127985445</desc></polyline><polyline fill="none" stroke="#4dd2ff" stroke-linecap="round" stroke-linejoin="round" stroke-width=".5" points="153.058 115.618 153.672 119.748 154.04 121.081 156.496 126.809 157.723 130.14 159.565 132.671 160.056 132.938 160.179 132.538 159.074 130.806 157.478 127.342 154.654 122.146 153.549 118.283 152.689 116.551 152.567 113.887 152.321 112.688"><title>2023-10-28 1.0km</title><desc>10115543824</desc></polyline><polyline fill="none" stroke="#4dd2ff" stroke-linecap="round" stroke-linejoin="round" stroke-width=".5" points="176.124 116.888 177.229 120.488 178.474 123.338 179.579 127.388 181.238 131.288 181.929 132.788 182.621 132.938 182.759 132.788 182.482 131.888 181.653 129.638 178.888 124.238 176.676 118.238 175.294 115.238 174.741 112.688"><title>2023-10-27 1.0km</title><desc>10110442644</desc></polyline><polyline fill="none" stroke="#4dd2ff" stroke-linecap="round" stroke-linejoin="round" stroke-width=".5" points="18.506 143.002 21.113 151.787 22.073 154.467 23.034 156.105 24.132 159.232 24.543 159.827 25.367 160.125 25.504 159.678 25.367 159.083 23.994 157.296 21.936 153.722 19.466 146.426 17.819 143.746 16.996 139.875"><title>2023-10-26 1.0km</title><desc>10104873905</desc></polyline><polyline fill="none" stroke="#4dd2ff" stroke-linecap="round" stroke-linejoin="round" stroke-width=".5" points="42.736 149.56 45.846 157.337 47.334 159.978 47.875 160.125 47.739 158.658 44.088 152.348 42.06 147.212 40.302 143.543 39.625 139.875"><title>2023-10-25 1.0km</title><desc>10098978222</desc></polyline><polyline fill="none" stroke="#4dd2ff" stroke-linecap="round" stroke-linejoin="round" stroke-width=".5" points="62.504 139.875 62.368 140.91 63.185 144.309 64.275 146.526 64.956 149.187 66.182 152.735 68.77 157.76 69.587 159.829 69.86 160.125 70.132 159.977 69.996 158.056 68.498 155.247 67.408 153.621 66.046 150.517 65.773 148.891 64.139 146.379 63.185 144.162 62.913 141.501 62.504 139.875"><title>2023-10-24 1.0km</title><desc>10092835699</desc></polyline><polyline fill="none" stroke="#4dd2ff" stroke-linecap="round" stroke-linejoin="round" stroke-width=".5" points="86.669 143.371 88.683 150.51 89.623 152.258 90.697 156.629 92.308 159.542 92.979 160.125 92.308 159.397 91.368 157.066 88.951 154.152 88.414 153.132 87.877 149.782 86.266 146.576 85.192 143.226 84.521 139.875"><title>2023-10-23 1.0km</title><desc>10087395010</desc></polyline><polyline fill="none" stroke="#4dd2ff" stroke-linecap="round" stroke-linejoin="round" stroke-width=".5" points="104.694 139.972 105.052 139.875 107.603 140.069 108.721 140.361 108.99 140.506 109.572 140.943 109.975 141.429 110.87 143.08 111.317 144.925 111.899 145.897 112.167 146.674 112.794 148.082 113.241 149.539 113.913 150.704 114.226 151.044 114.629 151.724 114.853 153.181 114.987 153.569 115.345 154.103 115.434 154.929 115.569 155.269 117.538 159.931 117.806 160.125 117.806 159.882 117.403 159.494 116.956 158.425 116.508 157.503 115.3 153.764"><title>2023-10-22 1.5km</title><desc>10080655811</desc></polyline><polyline fill="none" stroke="#4dd2ff" stroke-linecap="round" stroke-linejoin="round" stroke-width=".5" points="130.529 139.875 131.24 140.389 129.961 140.183 131.95 142.753 132.14 143.37 131.998 143.884 131.334 144.244 131.145 144.603 131.192 145.22 131.571 146.711 131.998 147.79 132.471 149.435 133.324 150.925 133.466 151.491 133.987 152.416 134.318 152.827 134.366 153.084 134.697 153.392 134.934 153.906 135.266 154.883 135.597 155.551 135.55 156.887 136.166 158.069 136.355 158.635 136.687 159.251 137.255 159.971 137.539 160.125 136.45 158.583 136.213 157.761 135.739 156.733 135.55 156.065 134.934 155.191 134.413 153.701"><title>2023-10-20 1.4km</title><desc>10069668027</desc></polyline><polyline fill="none" stroke="#4dd2ff" stroke-linecap="round" stroke-linejoin="round" stroke-width=".5" points="152.175 139.875 152.272 140.66 153.043 142.544 153.236 143.695 154.827 147.567 154.972 148.09 155.069 148.875 155.261 149.398 156.419 151.02 157.046 152.276 157.431 153.532 157.769 154.212 157.962 155.259 158.203 155.782 158.83 157.404 158.926 158.032 159.843 159.916 160.084 160.125 160.228 160.125 160.325 160.073 160.277 160.02 159.312 158.817 158.878 157.352 157.962 155.677 157.817 154.997 157.721 153.846"><title>2023-10-19 1.3km</title><desc>10064004415</desc></polyline><polyline fill="none" stroke="#4dd2ff" stroke-linecap="round" stroke-linejoin="round" stroke-width=".5" points="174.184 139.875 176.169 142.46 176.037 144.327 176.301 146.194 177.228 149.497 178.551 151.652 179.875 155.386 182.522 159.694 182.919 160.125 183.316 159.981 181.596 158.258 178.419 152.082 177.625 149.354 175.375 144.614"><title>2023-10-18 1.0km</title><desc>10058081424</desc></polyline><polyline fill="none" stroke="#4dd2ff" stroke-linecap="round" stroke-linejoin="round" stroke-width=".5" points="17.716 168.29 18.847 174.886 21.816 182.71 23.795 186.852 24.643 187.313 25.067 187.313 25.35 186.699 24.36 185.472 23.088 183.477 21.391 179.795 20.684 177.648 17.716 171.665 17.433 170.744 17.15 167.063"><title>2023-10-17 1.0km</title><desc>10051702317</desc></polyline><polyline fill="none" stroke="#4dd2ff" stroke-linecap="round" stroke-linejoin="round" stroke-width=".5" points="39.228 167.53 40.664 170.022 42.817 175.63 43.965 177.811 45.257 181.861 46.836 185.911 47.411 187.001 48.128 187.313 48.272 187.157 48.128 186.689 46.549 184.353 44.396 179.057 42.817 175.786 41.525 169.711 40.807 167.063"><title>2023-10-16 1.0km</title><desc>10046279660</desc></polyline><polyline fill="none" stroke="#4dd2ff" stroke-linecap="round" stroke-linejoin="round" stroke-width=".5" points="62.103 167.063 62.695 168.348 63.288 171.241 64.621 175.741 66.398 178.473 68.472 186.188 69.212 186.991 70.249 187.313 70.397 186.991 70.249 186.027 68.324 183.295 67.287 180.08 66.102 178.152 63.288 171.563 62.251 167.063"><title>2023-10-15 1.0km</title><desc>10039610121</desc></polyline><polyline fill="none" stroke="#4dd2ff" stroke-linecap="round" stroke-linejoin="round" stroke-width=".5" points="84.536 168.532 84.988 173.268 86.192 176.698 87.697 178.821 88.6 181.76 91.158 186.333 91.76 186.986 92.512 187.313 92.964 186.986 92.964 186.496 89.954 184.046 87.998 180.454 87.245 177.351 85.439 173.268 84.536 169.839 84.687 167.716 84.536 167.063"><title>2023-10-14 1.0km</title><desc>10033377496</desc></polyline><polyline fill="none" stroke="#4dd2ff" stroke-linecap="round" stroke-linejoin="round" stroke-width=".5" points="106.659 167.384 109.325 170.598 109.621 173.009 112.139 180.723 114.508 186.348 115.249 187.313 115.841 187.313 115.841 186.83 115.693 186.348 114.36 185.384 112.879 182.652 111.25 177.509 108.288 170.92 107.843 168.67 107.103 167.063"><title>2023-10-13 1.0km</title><desc>10028006924</desc></polyline><polyline fill="none" stroke="#4dd2ff" stroke-linecap="round" stroke-linejoin="round" stroke-width=".5" points="129.405 167.063 130.83 168.917 131.684 170.463 131.827 172.473 131.684 174.637 133.251 177.883 135.103 182.83 136.955 186.23 137.383 186.849 138.095 187.313 138.095 186.54 136.528 184.53 135.103 182.057 133.251 176.956 132.112 174.946 131.542 173.246"><title>2023-10-12 1.0km</title><desc>10021974100</desc></polyline><polyline fill="none" stroke="#4dd2ff" stroke-linecap="round" stroke-linejoin="round" stroke-width=".5" points="153.882 169.934 154.44 172.956 154.3 174.165 155.554 178.245 156.529 180.059 157.503 183.383 158.896 186.708 159.175 187.01 159.871 187.313 159.732 186.708 158.2 182.779 156.529 179.908 154.3 174.77 153.743 172.805 153.465 169.934 152.629 167.063"><title>2023-10-10 1.0km</title><desc>10009069592</desc></polyline><polyline fill="none" stroke="#4dd2ff" stroke-linecap="round" stroke-linejoin="round" stroke-width=".5" points="175.319 169.594 176.28 172.274 177.241 175.847 179.299 180.314 180.946 185.972 181.906 187.313 182.181 186.866 182.318 185.228 181.357 182.399 179.299 178.825 176.966 172.274 176.28 169.296 175.182 167.063"><title>2023-10-09 1.0km</title><desc>10003389142</desc></polyline><polyline fill="none" stroke="#4dd2ff" stroke-linecap="round" stroke-linejoin="round" stroke-width=".5" points="17.127 194.25 18.14 195.506 19.152 197.86 19.731 202.57 21.901 207.279 23.782 212.616 24.65 214.186 25.373 214.5 25.373 213.244 22.624 208.849 19.008 200.058 17.561 194.407"><title>2023-10-08 1.0km</title><desc>9996447828</desc></polyline><polyline fill="none" stroke="#4dd2ff" stroke-linecap="round" stroke-linejoin="round" stroke-width=".5" points="41.151 198.3 41.817 200.759 43.817 206.111 44.483 208.425 46.616 213.777 47.282 214.5 47.416 213.921 47.416 213.343 44.883 208.859 43.683 206.255 41.551 199.891 40.884 196.564 40.084 194.25"><title>2023-10-07 1.0km</title><desc>9989974159</desc></polyline><polyline fill="none" stroke="#4dd2ff" stroke-linecap="round" stroke-linejoin="round" stroke-width=".5" points="64.596 200.282 65.654 203.729 66.449 205.452 68.037 212.202 68.434 213.495 69.228 214.5 69.89 214.5 70.154 213.926 70.022 213.495 68.434 211.197 66.846 207.75 66.316 205.452 63.537 198.702 63.14 196.261 62.346 194.25"><title>2023-10-06 1.0km</title><desc>9984428862</desc></polyline><polyline fill="none" stroke="#4dd2ff" stroke-linecap="round" stroke-linejoin="round" stroke-width=".5" points="84.39 194.25 86.685 200.391 88.215 205.537 90.815 212.01 91.886 214.168 92.345 214.5 92.957 214.5 93.11 214.168 92.651 213.338 90.815 210.682 89.744 208.525 87.909 203.711 87.144 201.221 85.002 197.238 85.002 195.744"><title>2023-10-04 1.0km</title><desc>9971682885</desc></polyline><polyline fill="none" stroke="#4dd2ff" stroke-linecap="round" stroke-linejoin="round" stroke-width=".5" points="108.185 196.615 108.866 198.98 109.547 200.606 110.092 203.119 112.68 208.292 112.817 210.066 113.634 213.613 113.906 214.057 114.724 214.5 114.724 213.022 112.953 209.77 111.727 206.962 111.046 205.631 110.365 203.71 109.002 200.901 108.458 198.684 108.185 196.467 107.776 194.25"><title>2023-10-03 1.0km</title><desc>9965060084</desc></polyline><polyline fill="none" stroke="#4dd2ff" stroke-linecap="round" stroke-linejoin="round" stroke-width=".5" points="130.048 195.087 131.899 201.112 132.208 203.789 133.287 205.128 134.058 207.136 135.447 212.324 136.526 213.998 137.297 214.5 137.452 214.333 136.989 212.994 135.292 209.814 132.516 203.12 130.82 198.099 130.511 194.25"><title>2023-10-02 1.0km</title><desc>9958643020</desc></polyline><polyline fill="none" stroke="#4dd2ff" stroke-linecap="round" stroke-linejoin="round" stroke-width=".5" points="153.04 197.814 153.339 199.272 156.623 207.048 158.265 212.07 159.161 213.852 160.057 214.5 160.206 214.338 160.057 213.69 157.071 209.154 154.235 202.188 152.891 197.976 152.294 194.25"><title>2023-10-01 1.0km</title><desc>9952075403</desc></polyline><polyline fill="none" stroke="#4dd2ff" stroke-linecap="round" stroke-linejoin="round" stroke-width=".5" points="175.843 197.185 177.06 199.679 177.601 202.174 178.006 204.522 180.035 210.245 181.793 213.913 182.604 214.5 182.875 214.06 180.17 209.951 178.953 207.163 178.547 205.696 176.654 201.587 175.572 197.038 174.625 194.25"><title>2023-09-30 1.0km</title><desc>9945549317</desc></polyline><polyline fill="none" stroke="#4dd2ff" stroke-linecap="round" stroke-linejoin="round" stroke-width=".5" points="18.115 221.438 19.458 223.706 19.906 225.488 21.101 228.404 21.698 232.778 22.146 234.074 23.937 238.448 24.385 241.202 24.684 241.526 25.132 241.688 25.281 241.364 22.594 236.504 20.802 232.292 20.205 229.862 18.115 225.002 17.219 222.086"><title>2023-09-28 1.0km</title><desc>9933629332</desc></polyline><polyline fill="none" stroke="#4dd2ff" stroke-linecap="round" stroke-linejoin="round" stroke-width=".5" points="39.791 223.739 40.922 227.727 43.043 230.642 44.457 235.858 46.436 239.386 47.002 241.381 47.567 241.688 47.85 241.227 47.567 240.614 46.436 239.08 43.184 232.483 41.488 227.881 39.65 221.438"><title>2023-09-27 1.0km</title><desc>9927137811</desc></polyline><polyline fill="none" stroke="#4dd2ff" stroke-linecap="round" stroke-linejoin="round" stroke-width=".5" points="67.932 221.438 67.528 223.385 67.125 224.504 66.811 225.867 64.972 229.713 64.029 231.319 63.85 232.001 63.94 232.536 64.164 233.315 64.837 234.97 65.061 235.408 65.33 236.187 66.228 237.307 66.631 238.183 67.08 238.864 67.439 239.838 67.977 240.568 68.65 241.688"><title>2023-09-26 1.0km</title><desc>9920397094</desc></polyline><polyline fill="none" stroke="#4dd2ff" stroke-linecap="round" stroke-linejoin="round" stroke-width=".5" points="88.655 221.438 87.773 224.379 86.89 225.953 86.071 226.979 85.629 227.8 85.44 228.621 85.503 229.647 85.818 230.468 86.575 231.631 86.89 232.794 87.521 234.299 88.718 235.804 90.736 239.909 92.06 241.688"><title>2023-09-25 1.0km</title><desc>9914573673</desc></polyline><polyline fill="none" stroke="#4dd2ff" stroke-linecap="round" stroke-linejoin="round" stroke-width=".5" points="112.743 221.438 112.245 222.194 112.146 222.572 112.245 223.058 112.295 223.544 111.3 225.38 111.051 226.622 110.703 227.54 108.612 231.212 108.563 231.644 108.762 232.508 109.309 233.372 109.608 234.128 110.056 234.884 110.304 235.64 110.951 236.666 111.449 237.692 111.996 238.286 112.146 238.826 112.494 239.258 113.241 240.554 113.788 241.148 113.937 241.688"><title>2023-09-24 1.0km</title><desc>9907510217</desc></polyline><polyline fill="none" stroke="#4dd2ff" stroke-linecap="round" stroke-linejoin="round" stroke-width=".5" points="134.505 221.438 134.082 222.093 133.78 222.748 133.599 223.6 133.539 224.714 132.512 226.09 131.908 227.663 131.364 228.45 131.002 229.498 130.942 230.612 132.21 233.823 132.693 234.806 134.263 237.297 134.928 238.935 135.773 239.984 136.256 240.836 136.558 241.688"><title>2023-09-23 1.0km</title><desc>9901004991</desc></polyline><polyline fill="none" stroke="#4dd2ff" stroke-linecap="round" stroke-linejoin="round" stroke-width=".5" points="157.028 221.438 156.624 222.188 156.221 223.5 155.3 225.438 154.378 226.75 153.572 228.938 153.514 230.125 153.629 230.813 154.781 233.563 154.954 234.375 155.184 234.813 155.991 235.813 156.624 237.063 157.143 238.375 158.007 239.625 158.986 241.688"><title>2023-09-22 1.0km</title><desc>9895405405</desc></polyline><polyline fill="none" stroke="#4dd2ff" stroke-linecap="round" stroke-linejoin="round" stroke-width=".5" points="179.823 221.438 179.658 222.035 179.328 222.393 178.612 223.707 178.337 224.663 177.511 226.754 176.631 228.546 176.08 229.86 175.915 230.517 175.915 230.935 176.08 231.533 176.41 232.13 177.126 233.982 177.842 235.296 178.227 236.252 178.943 237.446 179.383 237.984 179.713 238.94 180.594 240.493 181.585 241.688"><title>2023-09-21 1.0km</title><desc>9889267953</desc></polyline><polyline fill="none" stroke="#4dd2ff" stroke-linecap="round" stroke-linejoin="round" stroke-width=".5" points="23.312 248.625 22.589 250.793 22.164 252.5 21.484 253.93 20.676 256.328 19.273 258.958 18.891 260.388 18.933 260.711 19.188 261.402 19.741 262.602 20.081 263.617 20.931 264.816 21.441 265.784 21.739 266.476 22.079 267.076 22.632 267.491 23.312 268.506 23.354 268.69 23.609 268.875"><title>2023-09-20 1.0km</title><desc>9882714971</desc></polyline><polyline fill="none" stroke="#4dd2ff" stroke-linecap="round" stroke-linejoin="round" stroke-width=".5" points="45.429 248.625 44.997 249.718 44.182 252.113 44.134 252.894 43.846 253.31 43.51 254.091 43.318 254.82 42.934 255.809 41.831 257.579 41.543 258.62 41.447 259.557 41.543 260.494 41.831 261.535 42.167 262.264 43.222 264.086 43.75 264.815 44.23 266.116 44.709 266.949 45.189 267.626 45.717 268.146 46.053 268.875"><title>2023-09-19 1.0km</title><desc>9876194288</desc></polyline><polyline fill="none" stroke="#4dd2ff" stroke-linecap="round" stroke-linejoin="round" stroke-width=".5" points="66.101 248.625 65.743 249.207 65.147 250.372 64.968 251.148 63.895 253.024 63.06 254.771 62.881 255.418 62.941 256.13 63.299 257.036 63.835 258.006 64.312 259.365 64.968 260.788 65.684 262.082 66.339 262.923 67.115 264.217 67.591 265.705 68.426 266.999 68.844 268.163 69.619 268.875"><title>2023-09-18 1.0km</title><desc>9870505463</desc></polyline><polyline fill="none" stroke="#4dd2ff" stroke-linecap="round" stroke-linejoin="round" stroke-width=".5" points="88.953 248.625 88.663 249.193 88.256 251.085 87.733 251.968 87.5 252.662 86.221 254.744 85.756 255.88 85.465 256.889 85.698 257.583 86.977 260.359 87.616 261.368 88.081 262.44 88.837 263.45 89.244 264.144 89.767 265.784 92.035 268.875"><title>2023-09-16 1.0km</title><desc>9856514700</desc></polyline><polyline fill="none" stroke="#4dd2ff" stroke-linecap="round" stroke-linejoin="round" stroke-width=".5" points="110.97 248.625 110.348 250.515 109.539 251.798 107.86 255.038 107.798 255.78 107.86 256.658 108.233 257.535 108.855 258.48 109.415 259.763 110.41 261.45 111.654 263.813 111.779 264.69 112.214 265.028 112.712 265.703 113.521 267.053 114.391 267.795 114.578 268.268 114.702 268.875"><title>2023-09-15 1.0km</title><desc>9850671982</desc></polyline><polyline fill="none" stroke="#4dd2ff" stroke-linecap="round" stroke-linejoin="round" stroke-width=".5" points="134.265 248.625 133.235 251.348 132.077 253.024 131.562 253.932 130.79 255.887 130.597 256.585 130.597 257.144 130.79 257.842 131.562 259.937 132.27 261.334 134.007 264.336 134.715 265.663 134.844 266.431 135.359 266.92 136.195 268.247 136.903 268.875"><title>2023-09-14 1.0km</title><desc>9844236351</desc></polyline><polyline fill="none" stroke="#4dd2ff" stroke-linecap="round" stroke-linejoin="round" stroke-width=".5" points="153.032 248.625 153.402 248.926 153.541 249.228 153.634 249.881 153.911 250.434 154.097 251.992 154.097 252.745 154.004 253.147 154.097 253.65 154.328 254.253 154.236 254.755 154.282 255.007 154.745 255.861 155.162 257.117 155.532 257.82 155.995 258.474 156.505 258.926 156.644 259.227 156.783 259.881 157.153 260.534 157.57 261.74 158.125 262.795 158.403 263.699 158.542 264.453 158.82 265.056 159.329 266.714 160.024 268.021 160.07 268.222 160.024 268.373 159.468 268.875 159.746 268.674 159.885 268.373 159.978 268.121 159.931 267.77 159.654 267.418 158.82 265.609 158.403 264.252 157.523 262.293 157.107 260.383 156.875 259.83 155.995 258.675 155.115 257.017 154.699 255.66 154.56 254.755 154.189 253.801 153.448 252.193 153.263 251.439 152.615 250.233 152.476 249.58 152.43 248.776"><title>2023-09-13 1.0km</title><desc>9837636972</desc></polyline></svg>