<?xml version="1.0" encoding="utf-8" ?>
<svg baseProfile="full" height="300mm" version="1.1" viewBox="0,0,200,300" width="200mm" xmlns="http://www.w3.org/2000/svg" xmlns:ev="http://www.w3.org/2001/xml-events" xmlns:xlink="http://www.w3.org/1999/xlink"><defs /><rect fill="#222222" height="300" width="200" x="0" y="0" /><text fill="#FFFFFF" style="font-size:12px; font-family:Arial; font-weight:bold;" x="10" y="20">Over 1km Runs</text><text fill="#FFFFFF" style="font-size:4px; font-family:Arial" x="10" y="280">ATHLETE</text><text fill="#FFFFFF" style="font-size:9px; font-family:Arial" x="10" y="290">Jiakai</text><text fill="#FFFFFF" style="font-size:4px; font-family:Arial" x="120" y="280">STATISTICS</text><text fill="#FFFFFF" style="font-size:3px; font-family:Arial" x="120" y="285">Number: 44</text><text fill="#FFFFFF" style="font-size:3px; font-family:Arial" x="120" y="290">Weekly: 5.5</text><text fill="#FFFFFF" style="font-size:3px; font-family:Arial" x="141" y="285">Total: 45.9 km</text><text fill="#FFFFFF" style="font-size:3px; font-family:Arial" x="141" y="290">Avg: 1.0 km</text><text fill="#FFFFFF" style="font-size:3px; font-family:Arial" x="167" y="285">Min: 1.0 km</text><text fill="#FFFFFF" style="font-size:3px; font-family:Arial" x="167" y="290">Max: 1.5 km</text><polyline fill="none" points="20.402131074108183,33.45653094444424 20.76274824421853,35.60871332278475 22.205216927453876,38.93480993784033 24.72953712195158,47.93481523124501 29.056943171657622,56.934790088096634 30.31910326797515,58.5 29.59786892775446,56.15218478743918 26.89324014633894,52.04350318084471 25.450771464034915,46.7609032234177 23.647685610689223,44.217425430426374 21.48398258537054,39.521767732687294 19.68089673202485,31.5" stroke="#4dd2ff" stroke-linecap="round" stroke-linejoin="round" stroke-width="0.5"><title>2023-11-01 1.0km</title><desc>10138966680</desc></polyline><polyline fill="none" points="51.07117183506489,31.90601699310355 52.00660711247474,34.95114253554493 53.50330355670303,43.07146089873277 55.93543527740985,48.34965502936393 57.43213172070682,53.2218252713792 59.86426344234496,58.5 60.05135049764067,58.296993465861306 58.36756699811667,55.8609138969332 55.93543527740985,50.1767198771704 53.87747766729444,46.52258897176944 50.322823613882065,35.76317544630729 49.94864950235933,31.5" stroke="#4dd2ff" stroke-linecap="round" stroke-linejoin="round" stroke-width="0.5"><title>2023-10-31 1.0km</title><desc>10133123337</desc></polyline><polyline fill="none" points="80.76074621733278,34.70001399773173 81.68232312705368,39.5000279371161 81.68232312705368,41.30003098072484 83.7097923271358,44.70003348006867 89.2392537817359,56.500009189825505 90.1608306914568,58.30000098468736 90.5294614546001,58.5 86.2902076728642,50.100028715794906 84.44705385435373,44.900033494923264 82.4195846542716,40.7000300984364 79.47053854446858,31.5" stroke="#4dd2ff" stroke-linecap="round" stroke-linejoin="round" stroke-width="0.5"><title>2023-10-30 1.0km</title><desc>10127985445</desc></polyline><polyline fill="none" points="110.74376995768398,35.407913411268964 111.56227573473006,40.91450794483535 112.05337920133024,42.69082608493045 115.3274023104459,50.3289792065043 116.96441386453807,54.76975480490364 119.41993119753897,58.14473880105652 120.07473582029343,58.5 120.23843697458506,57.96710818167776 118.76512657571584,55.65790894487873 116.63701155409217,51.03950385074131 112.87188497837633,44.111879657022655 111.39857457857579,38.96055648243055 110.25266649015248,36.65133908088319 110.08896533492953,33.09869261388667 109.76156302448362,31.5" stroke="#4dd2ff" stroke-linecap="round" stroke-linejoin="round" stroke-width="0.5"><title>2023-10-28 1.0km</title><desc>10115543824</desc></polyline><polyline fill="none" points="141.49800723046064,37.10002202633768 142.97253050282598,41.900031730532646 144.63136918190867,45.700033406727016 146.105892454274,51.100026657572016 148.31767736189067,56.30001002806239 149.23925440665334,58.30000098561868 150.1608314504847,58.5 150.34514685999602,58.30000098561868 149.9765160419047,57.1000065873377 148.8706235876307,54.100018276833 145.18431541044265,46.900032833451405 142.235268865712,38.90002665808424 140.39211477618665,34.90001474809833 139.6548531409353,31.5" stroke="#4dd2ff" stroke-linecap="round" stroke-linejoin="round" stroke-width="0.5"><title>2023-10-27 1.0km</title><desc>10110442644</desc></polyline><polyline fill="none" points="171.34079528041184,35.669135271338746 174.81703976448625,47.382385635282844 176.09776141680777,50.955909529468045 177.3784830691293,53.13972735963762 178.84216495696455,57.30882922117598 179.39104566536844,58.10294313239865 180.4888070812449,58.5 180.67176731675863,57.90441467636265 180.4888070812449,57.11030070716515 178.65920472051948,54.727957399562 175.91480118129402,49.963264477672055 172.62151693273336,40.23532365914434 170.42599410098046,36.66178557742387 169.3282326841727,31.5" stroke="#4dd2ff" stroke-linecap="round" stroke-linejoin="round" stroke-width="0.5"><title>2023-10-26 1.0km</title><desc>10104873905</desc></polyline><polyline fill="none" points="23.647685908712447,74.41307765478268 27.794782457873225,84.78262495691888 29.77817645855248,88.30434881150723 30.499410640448332,88.5 30.31910209544003,86.54348746663891 25.4507713643834,78.13046718318947 22.746143179945648,71.28264034097083 20.402132087387145,66.39132466586307 19.500589359551668,61.5" stroke="#4dd2ff" stroke-linecap="round" stroke-linejoin="round" stroke-width="0.5"><title>2023-10-25 1.0km</title><desc>10098978222</desc></polyline><polyline fill="none" points="50.00532038975507,61.5 49.82369567640126,62.87956863641739 50.91344395559281,67.41243201401085 52.36644166056067,70.36864313087426 53.27456522639841,73.9160921680741 54.909187643788755,78.64601691463031 58.36005719285458,85.34672935400158 59.449805471114814,88.10584137192927 59.81305489782244,88.5 60.176304324530065,88.30292069306597 59.99467961024493,85.7408883869648 57.99680776707828,81.99637522781268 56.543810062110424,79.82849679747596 54.72756293043494,75.68981492612511 54.36431350465864,73.52193139609881 52.184816947206855,70.17156249145046 50.91344395559281,67.21535115689039 50.550194528885186,63.66789325256832 50.00532038975507,61.5" stroke="#4dd2ff" stroke-linecap="round" stroke-linejoin="round" stroke-width="0.5"><title>2023-10-24 1.0km</title><desc>10092835699</desc></polyline><polyline fill="none" points="82.22532419674098,66.16189021081664 84.91049432847649,75.67989051667973 86.16357372328639,78.01082414062694 87.59566445928067,83.83814920345321 89.74380056466907,87.72302543837577 90.63885727524757,88.5 89.74380056466907,87.5287817621138 88.49072116985917,84.42088100290857 85.26851701270789,80.53599991230294 84.55247164424509,79.17629018146545 83.83642627578229,74.70866756676696 81.68829017039388,70.43528234469704 80.2561994343996,65.96764494967647 79.36114272475243,61.5" stroke="#4dd2ff" stroke-linecap="round" stroke-linejoin="round" stroke-width="0.5"><title>2023-10-23 1.0km</title><desc>10087395010</desc></polyline><polyline fill="none" points="106.2583675137721,61.62949837860651 106.73572628409602,61.5 110.13690752442926,61.758996738062706 111.62865368253551,62.14749170234427 111.98667276045308,62.341739120311104 112.76238076295704,62.924481116759125 113.29940937971696,63.57197177177295 114.492806305876,65.77343643736094 115.08950476930477,68.23389043315547 115.8652127715759,69.52886345918523 116.22323184926063,70.56484050879953 117.05860969773494,72.44254580512643 117.6553081611637,74.38499534671428 118.55035585584119,75.93895189516479 118.96804478019476,76.3921887052129 119.50507339718752,77.29866162565304 119.80342262866907,79.24110045615816 119.98243216751143,79.75908342085313 120.45979093806818,80.47130949964048 120.57913063117303,81.57202139764559 120.75814016978256,82.02525530860294 123.38361340807751,88.24101112637436 123.74163248599507,88.5 123.74163248599507,88.17626389593352 123.20460386900231,87.65828588197473 122.60790540603921,86.23384477256332 122.01120694261044,85.00364377879305 120.400121091865,80.01807478885166" stroke="#4dd2ff" stroke-linecap="round" stroke-linejoin="round" stroke-width="0.5"><title>2023-10-22 1.5km</title><desc>10080655811</desc></polyline><polyline fill="none" points="140.70558573654853,61.5 141.65288300043903,62.18528886185959 139.94774792529643,61.911173377535306 142.60018026432954,65.33761113631772 142.85279286815785,66.15995432407362 142.66333341551945,66.84523975942284 141.7791893023532,67.32493926456664 141.52657669852488,67.80463852267712 141.5897298497148,68.62697953346651 142.09495505690575,70.61430064769229 142.66333341551945,72.05339260253822 143.2948649248574,74.24629035609541 144.4316216413863,76.23359948891448 144.62108109425753,76.98740529286442 145.31576575455256,78.22090438427404 145.7578378112521,78.76912567886757 145.82099096174352,79.11176382406848 146.2630630186759,79.52292943227803 146.57882877299562,80.20820504275616 147.020900829928,81.51022731454577 147.4629728863947,82.40108361048624 147.39981973543763,84.18279364804039 148.22081069741398,85.75891891930951 148.4734233012423,86.51271702011582 148.91549535747617,87.33504152559908 149.6733331689611,88.29441919847159 150.05225207447074,88.5 148.59972960315645,86.44418994517764 148.2839638486039,85.34775606211042 147.6524323390331,83.97721189440927 147.39981973543763,83.08635710488306 146.57882877299562,81.92139186465647 145.88414411293343,79.93409485905431" stroke="#4dd2ff" stroke-linecap="round" stroke-linejoin="round" stroke-width="0.5"><title>2023-10-20 1.4km</title><desc>10069668027</desc></polyline><polyline fill="none" points="169.56703137257136,61.5 169.69562234613113,62.54652593983337 170.7243501334451,65.05818348564208 170.98153208033182,66.5930820464855 173.10328314173967,71.75590443867259 173.29616960207932,72.45358098583529 173.42476057563908,73.50009484484326 173.68194252229296,74.1977701097494 175.22503420338035,76.36056017078226 176.06087553082034,78.03497489710571 176.57523942436092,79.7093866688665 177.02530783158727,80.61635847843718 177.28248977847397,82.01169803109951 177.60396721214056,82.70936703804182 178.43980853934772,84.87213770003291 178.56839951267466,85.70933792338474 179.79001376056112,88.22093416174175 180.11149119399488,88.5 180.3043776541017,88.5 180.43296862742864,88.43023354804609 180.36867314088158,88.36046709102811 179.0827634066809,86.7558371637715 178.5041040261276,84.8023709814297 177.28248977847397,82.56983327766648 177.08960331836715,81.66286333516473 176.9610123448074,80.1279891502927" stroke="#4dd2ff" stroke-linecap="round" stroke-linejoin="round" stroke-width="0.5"><title>2023-10-19 1.3km</title><desc>10064004415</desc></polyline><polyline fill="none" points="18.91170686017722,91.5 21.558790833689272,94.94682409497909 21.382318569347262,97.43619421566837 21.735263098962605,99.92556195752695 22.970568954013288,104.32982213282958 24.73529160209,107.20216171373613 26.500014251098037,112.18087615049444 30.02945955004543,117.92553482879885 30.558876344934106,118.5 31.08829313889146,118.30851162341423 28.794153694994748,116.01065000984818 24.55881933774799,107.77662924979813 23.49998574797064,104.13833271479234 20.499957243911922,97.81917402287945" stroke="#4dd2ff" stroke-linecap="round" stroke-linejoin="round" stroke-width="0.5"><title>2023-10-18 1.0km</title><desc>10058081424</desc></polyline><polyline fill="none" points="50.2873885538429,93.13637109496631 51.79542421642691,101.93184924288653 55.754017831757665,112.36365937138908 58.39308024197817,117.88636654615402 59.524106989614666,118.5 60.08962036296725,118.5 60.466629278846085,117.6818220319692 59.147098074667156,116.0454653725028 57.45055795367807,113.38638374954462 55.18850445840508,108.47730330657214 54.24598216917366,105.61366904852912 50.2873885538429,97.63638664479367 49.91037963796407,96.40911039849743 49.53337072208524,91.5" stroke="#4dd2ff" stroke-linecap="round" stroke-linejoin="round" stroke-width="0.5"><title>2023-10-17 1.0km</title><desc>10051702317</desc></polyline><polyline fill="none" points="78.9707556432113,92.12307983194478 80.88480147067457,95.44616994820535 83.75587021093816,102.9231084161438 85.28710687346756,105.83080136496574 87.00974811799824,111.2307946155779 89.1151985283941,116.63077754480764 89.88081685919315,118.08461733930744 90.83783977292478,118.5 91.02924435585737,118.29230867745355 90.83783977292478,117.6692346171476 88.73238936252892,114.55386225529946 85.86132062226534,107.4923388492316 83.75587021093816,103.13080086861737 82.0332289673388,95.03078389703296 81.07620605360717,91.5" stroke="#4dd2ff" stroke-linecap="round" stroke-linejoin="round" stroke-width="0.5"><title>2023-10-16 1.0km</title><desc>10046279660</desc></polyline><polyline fill="none" points="109.47053427621722,91.5 110.26045795157552,93.21429314976558 111.05038162600249,97.07144905114546 112.82770989462733,103.07145919674076 115.19748091883957,106.71431647357531 117.96221378073096,117.00000656116754 118.94961837399751,118.07143052481115 120.3319848049432,118.5 120.5294657247141,118.07143052481115 120.3319848049432,116.78572172136046 117.76473286189139,113.14287703181617 116.3823664309457,108.85717156808823 114.80251908209175,106.28574526542798 111.05038162600249,97.50002161413431 109.6680151950568,91.5" stroke="#4dd2ff" stroke-linecap="round" stroke-linejoin="round" stroke-width="0.5"><title>2023-10-15 1.0km</title><desc>10039610121</desc></polyline><polyline fill="none" points="139.3813481060788,93.45968570327386 139.98334652278572,99.77421970525756 141.58867563586682,104.34680488915183 143.59533702675253,107.17744932160713 144.7993338610977,111.09679868584499 148.21065822523087,117.19355405378155 149.0133227808401,118.06451808195561 150.01665347721428,118.5 150.6186518939212,118.06451808195561 150.6186518939212,117.41129508474842 146.60532911214978,114.1451779382769 143.99666930455714,109.354866275331 142.9933386091143,105.21777269500308 140.58534494042397,99.77421970525756 139.3813481060788,95.20162746263668 139.58201424591243,92.37097158376127 139.3813481060788,91.5" stroke="#4dd2ff" stroke-linecap="round" stroke-linejoin="round" stroke-width="0.5"><title>2023-10-14 1.0km</title><desc>10033377496</desc></polyline><polyline fill="none" points="168.87809242028743,91.92857338255271 172.43274843506515,96.21430373727344 172.82771021407098,99.4285973678343 176.18488533888012,109.7143131652847 179.3445795737207,117.2142913856078 180.33198402170092,118.5 181.1219075806439,118.5 181.1219075806439,117.85714576416649 180.92442669067532,117.2142913856078 179.1470986828208,115.92858220404014 177.17228978779167,112.28573644324206 175.00000000093132,105.42860266123898 171.05038220714778,96.64287642599083 170.45793953817338,93.64286628039554 169.47053508926183,91.5" stroke="#4dd2ff" stroke-linecap="round" stroke-linejoin="round" stroke-width="0.5"><title>2023-10-13 1.0km</title><desc>10028006924</desc></polyline><polyline fill="none" points="19.206725805066526,121.5 21.10615996737033,123.97329326206818 22.24582046456635,126.03436931292526 22.43576388154179,128.71376591431908 22.24582046456635,131.59926708275452 24.33519804291427,135.92751326714642 26.804462454281747,142.5229231736157 29.2737268647179,147.0572584841866 29.84355711378157,147.88168229884468 30.79327419400215,148.5 30.79327419400215,147.46947042178363 28.703896616585553,144.79009174578823 26.804462454281747,141.49239139887504 24.33519804291427,134.69087218213826 22.81565071363002,132.0114812932443 22.055877048522234,129.7443023873493" stroke="#4dd2ff" stroke-linecap="round" stroke-linejoin="round" stroke-width="0.5"><title>2023-10-12 1.0km</title><desc>10021974100</desc></polyline><polyline fill="none" points="51.84325277712196,125.328374392353 52.586016830056906,129.35823639691807 52.400325817056,130.97017953987233 54.07154493406415,136.4104806468822 55.37138202600181,138.82838878338225 56.67121911793947,143.2612148274202 58.52812924887985,147.69403370190412 58.89951127488166,148.09701688028872 59.82796634081751,148.5 59.642275327816606,147.69403370190412 57.59967418387532,142.4552469891496 55.37138202600181,138.6268965199124 52.400325817056,131.7761507553514 51.657561764121056,129.15674343751743 51.286179738119245,125.328374392353 50.17203365918249,121.5" stroke="#4dd2ff" stroke-linecap="round" stroke-linejoin="round" stroke-width="0.5"><title>2023-10-10 1.0km</title><desc>10009069592</desc></polyline><polyline fill="none" points="80.42599410098046,124.87501476355828 81.70671575237066,128.44855520920828 82.98743740469217,133.2132684479002 85.73184094484895,139.16914817341603 87.92736377660185,146.71324363560416 89.20808542892337,148.5 89.57400590088218,147.90441467636265 89.75696613732725,145.72060069977306 88.47624448500574,141.94855421641842 85.73184094484895,137.18385639088228 82.62151693273336,128.44855520920828 81.70671575237066,124.47795442165807 80.24303386360407,121.5" stroke="#4dd2ff" stroke-linecap="round" stroke-linejoin="round" stroke-width="0.5"><title>2023-10-09 1.0km</title><desc>10003389142</desc></polyline><polyline fill="none" points="109.5026821307838,121.5 110.85290055535734,123.17442605248652 112.20311897993088,126.31397224590182 112.97467236500233,132.59305424662307 115.86799755971879,138.87212239811197 118.37554606050253,145.98838289501145 119.53287613857538,148.08139730314724 120.4973178692162,148.5 120.4973178692162,146.82558884308673 116.83243929035962,140.9651420377195 112.01023063343018,129.24421223602258 110.08134717028588,121.70930331083946" stroke="#4dd2ff" stroke-linecap="round" stroke-linejoin="round" stroke-width="0.5"><title>2023-10-08 1.0km</title><desc>9996447828</desc></polyline><polyline fill="none" points="141.53421115130186,126.90002223243937 142.42287495918572,130.17860173550434 145.08886638097465,137.31431943108328 145.9775301888585,140.40002917940728 148.82125437259674,147.5357190708164 149.7099181804806,148.5 149.88765094149858,147.7285752852913 149.88765094149858,146.95715034380555 146.5107284737751,140.97859935299493 144.91113361995667,137.507176396437 142.06740943621844,129.02145649609156 141.17874562833458,124.58572835079394 140.11234905850142,121.5" stroke="#4dd2ff" stroke-linecap="round" stroke-linejoin="round" stroke-width="0.5"><title>2023-10-07 1.0km</title><desc>9989974159</desc></polyline><polyline fill="none" points="172.79409733694047,129.5425824597478 174.2058750409633,134.138332715258 175.26470831874758,136.43620480247773 177.38237487524748,145.43618429102935 177.91179151460528,147.15958107053302 178.9706247933209,148.5 179.8529858579859,148.5 180.20593028329313,147.73404641030356 180.02945807110518,147.15958107053302 177.91179151460528,144.0957637843676 175.79412495810539,139.50003109802492 175.08823610655963,136.43620480247773 171.38231963291764,127.43619421636686 170.85290299355984,124.18086357903667 169.79406971577555,121.5" stroke="#4dd2ff" stroke-linecap="round" stroke-linejoin="round" stroke-width="0.5"><title>2023-10-06 1.0km</title><desc>9984428862</desc></polyline><polyline fill="none" points="19.187259048223495,151.5 22.246596391312778,159.68855017540045 24.286154620349407,166.54921020008624 27.753403609618545,175.18034092569724 29.18109436891973,178.05737900245003 29.79296183772385,178.5 30.60878513008356,178.5 30.812740951776505,178.05737900245003 30.200873482972383,176.95082622091286 27.753403609618545,173.40985458972864 26.325712849386036,170.53281207149848 23.878242974169552,164.1147842395585 22.8584638601169,160.79510930157267 20.003082339651883,155.48362178634852 20.003082339651883,153.49181155208498" stroke="#4dd2ff" stroke-linecap="round" stroke-linejoin="round" stroke-width="0.5"><title>2023-10-04 1.0km</title><desc>9971682885</desc></polyline><polyline fill="none" points="50.91344425641,154.65329869673587 51.821567754261196,157.80659368471242 52.72969125304371,159.9744818371255 53.45619005244225,163.324850987643 56.90705934725702,170.22265664255247 57.088684047572315,172.58761449554004 58.178432245738804,177.317523942329 58.541681645438075,177.90876203635707 59.631429843604565,178.5 59.631429843604565,176.52920628082938 57.27030874788761,172.19345499831252 55.635686449706554,168.4489368838258 54.72756295092404,166.67521595116705 53.8194394512102,164.1131725325249 52.00319245457649,160.36864313133992 51.27669365517795,157.41243201401085 50.91344425641,154.45621763705276 50.368570156395435,151.5" stroke="#4dd2ff" stroke-linecap="round" stroke-linejoin="round" stroke-width="0.5"><title>2023-10-03 1.0km</title><desc>9965060084</desc></polyline><polyline fill="none" points="80.0646078363061,152.61570723657496 82.53230391815305,160.64878723444417 82.94358659908175,164.2190381870605 84.38307597953826,166.0041620878037 85.41128268092871,168.68184597115032 87.2620547413826,175.5991850697901 88.70154412277043,177.83058141567744 89.72975082322955,178.5 89.9353921636939,178.27686048811302 89.31846814323217,176.49174380488694 87.05641340184957,172.25208747433499 83.35486927814782,163.32647584215738 81.09281453676522,156.63224989292212 80.68153185676783,151.5" stroke="#4dd2ff" stroke-linecap="round" stroke-linejoin="round" stroke-width="0.5"><title>2023-10-02 1.0km</title><desc>9958643020</desc></polyline><polyline fill="none" points="110.72019305825233,156.25201799208298 111.11831463407725,158.1960231375415 115.49765197001398,168.56402885355055 117.687320638448,175.2600131004583 118.88168536685407,177.63600384257734 120.0760500933975,178.5 120.27511088270694,178.28400098439306 120.0760500933975,177.42000476364046 116.09483433328569,171.37202410562895 112.31267936248332,162.08402956835926 110.52113226987422,156.4680186274927 109.72488911822438,151.5" stroke="#4dd2ff" stroke-linecap="round" stroke-linejoin="round" stroke-width="0.5"><title>2023-10-01 1.0km</title><desc>9952075403</desc></polyline><polyline fill="none" points="141.12336484435946,155.41306045162492 142.74614235199988,158.7391573113855 143.46737679839134,162.0652500144206 144.00830263458192,165.19568640808575 146.71293181274086,172.82610969012603 149.05694376770407,177.71739515918307 150.1387954382226,178.5 150.49941266234964,177.9130463907495 146.8932404248044,172.43480646470562 145.2704629180953,168.71742294891737 144.72953708283603,166.76090322365053 142.2052165158093,161.282640340738 140.76274762116373,155.2174075653311 139.50058733765036,151.5" stroke="#4dd2ff" stroke-linecap="round" stroke-linejoin="round" stroke-width="0.5"><title>2023-09-30 1.0km</title><desc>9945549317</desc></polyline><polyline fill="none" points="170.819725911133,151.5 172.61127194948494,154.52401233883575 173.20845396257937,156.90001985034905 174.80093932896852,160.788027996663 175.59718201402575,166.62003056914546 176.19436402618885,168.34802910801955 178.58309207763523,174.18001667386852 179.18027408979833,177.8520029061474 179.57839543186128,178.2840009846259 180.1755774449557,178.5 180.37463811598718,178.06800195295364 176.79154603928328,171.58802362973802 174.4028179878369,165.97203085501678 173.60657530464232,162.73203014023602 170.819725911133,156.25201799278148 169.62536188494414,152.36400384292938" stroke="#4dd2ff" stroke-linecap="round" stroke-linejoin="round" stroke-width="0.5"><title>2023-09-28 1.0km</title><desc>9933629332</desc></polyline><polyline fill="none" points="19.721871298737824,184.56819501379505 21.22990807145834,189.88639168953523 24.057477017864585,193.77275975467637 25.942522982135415,200.72729958500713 28.581587332300842,205.43183137779124 29.33560571912676,208.09091104590334 30.089624104090035,208.5 30.466633298434317,207.8863665459212 30.089624104090035,207.06818839721382 28.581587332300842,205.02274197200313 24.245981614105403,196.2273052087985 21.983926456421614,190.09093751222827 19.533366702497005,181.5" stroke="#4dd2ff" stroke-linecap="round" stroke-linejoin="round" stroke-width="0.5"><title>2023-09-27 1.0km</title><desc>9927137811</desc></polyline><polyline fill="none" points="57.24298205017112,181.5 56.70466635818593,184.09618973411852 56.16635066620074,185.5889953733422 55.747660683467984,187.40632057009498 53.29533364181407,192.5337536331499 52.039263694081455,194.67558394157095 51.80001227511093,195.5842376536457 51.91963798436336,196.29817920009373 52.21870225784369,197.33663860021625 53.115895077819005,199.54336076957406 53.41495935129933,200.12749218509998 53.77383647928946,201.16594708053162 54.97009357251227,202.65872385265538 55.50840926473029,203.8269821741269 56.10653781169094,204.7356264666305 56.5850406489335,206.03368811903056 57.302794905146584,207.0072331057745 58.1999877251219,208.5" stroke="#4dd2ff" stroke-linecap="round" stroke-linejoin="round" stroke-width="0.5"><title>2023-09-26 1.0km</title><desc>9920397094</desc></polyline><polyline fill="none" points="84.87390754465014,181.5 83.6970446286723,185.4223337789299 82.52018171316013,187.52032117464114 81.4273804333061,188.8885719126556 80.83894897578284,189.98317141644657 80.58676406508312,191.07776995445602 80.67082570167258,192.44601676869206 81.09113388648257,193.5406131336931 82.09987352835014,195.09128966438584 82.52018171316013,196.64196425664704 83.36079808138311,198.64871673414018 84.95796918170527,200.65546596597414 87.64794156095013,206.12840191822033 89.41323593491688,208.5" stroke="#4dd2ff" stroke-linecap="round" stroke-linejoin="round" stroke-width="0.5"><title>2023-09-25 1.0km</title><desc>9914573673</desc></polyline><polyline fill="none" points="116.99057334009558,181.5 116.3270488937851,182.50801337813027 116.19434400415048,183.012019678019 116.3270488937851,183.6600273968652 116.39340133825317,184.30803468660451 115.0663524447009,186.75605835590977 114.73459022119641,188.412070897175 114.2701231087558,189.63607836677693 111.48332043224946,194.53209294530097 111.41696798754856,195.1080930508324 111.68237776588649,196.26009224599693 112.41225465759635,197.4120900858543 112.81036932580173,198.42008708399953 113.40754132764414,199.4280830444768 113.73930355114862,200.43607796734432 114.60188533202745,201.80406941764522 115.26540977857076,203.1720589569304 115.99528667051345,203.964052027266 116.19434400415048,204.6840451717144 116.65881111705676,205.2600393060129 117.65409778733738,206.98801967676263 118.38397467858158,207.78000966098625 118.58303201268427,208.5" stroke="#4dd2ff" stroke-linecap="round" stroke-linejoin="round" stroke-width="0.5"><title>2023-09-24 1.0km</title><desc>9907510217</desc></polyline><polyline fill="none" points="146.00656214216724,181.5 145.44288734253496,182.37379601283465 145.04026248585433,183.2475913829403 144.79868757212535,184.38352440390736 144.7181626004167,185.86897363874596 143.34923808695748,187.70393777731806 142.54398837359622,189.80103618034627 141.81926363147795,190.84958399401512 141.33611380308867,192.2476463066414 141.25558883138,193.73308571160305 142.94661323027685,198.0146359608043 143.59081300115213,199.32531152490992 145.6844622567296,202.64568315108772 146.57023694179952,204.83013310923707 147.69758654106408,206.22817897505593 148.34178631193936,207.36409003043082 148.74441116908565,208.5" stroke="#4dd2ff" stroke-linecap="round" stroke-linejoin="round" stroke-width="0.5"><title>2023-09-23 1.0km</title><desc>9901004991</desc></polyline><polyline fill="none" points="176.03675957862288,181.5 175.49918053811416,182.50001147040166 174.96160149760544,184.2500294201309 173.73284940514714,186.8333843119908 172.50409731268883,188.58339557045838 171.4289392316714,191.50007499643834 171.3521422254853,193.08341211284278 171.5057362378575,194.0000799590489 173.04167635319754,197.66674392909044 173.27206737035885,198.75007419561734 173.5792553932406,199.3334054487059 174.65441347425804,200.66673290001927 175.49918053811416,202.3333900080761 176.19035359006375,204.08337733428925 177.34230867680162,205.75002941855928 178.64785777498037,208.5" stroke="#4dd2ff" stroke-linecap="round" stroke-linejoin="round" stroke-width="0.5"><title>2023-09-22 1.0km</title><desc>9895405405</desc></polyline><polyline fill="none" points="26.431277183815837,211.5 26.211080694105476,212.29646981041878 25.770687714684755,212.77435141563183 24.816502925474197,214.5265821639914 24.44950877595693,215.80093001882778 23.348526326939464,218.58856072451454 22.174145048018545,220.97795276233228 21.440156748518348,222.73017024050932 21.219960258807987,223.60627791646402 21.219960258807987,224.1638006141875 21.440156748518348,224.96026111306855 21.88054972840473,225.75672102649696 22.83473451761529,228.22574303630972 23.788919306360185,229.97794879041612 24.30271111568436,231.2522784678731 25.256895904894918,232.8451884566457 25.844086544122547,233.5619971874985 26.28447952400893,234.83632264879998 27.45886080292985,236.90709832619177 28.780039741192013,238.5" stroke="#4dd2ff" stroke-linecap="round" stroke-linejoin="round" stroke-width="0.5"><title>2023-09-21 1.0km</title><desc>9889267953</desc></polyline><polyline fill="none" points="57.74893571832217,211.5 56.78539123968221,214.3907022520434 56.2186003702227,216.6663544435287 55.3117349781096,218.57297718862537 54.234832325717434,221.77117332391208 52.3644224551972,225.2768742701155 51.85431067249738,227.18347738828743 51.91098975925706,227.61400007159682 52.251064281212166,228.5365479324828 52.98789241211489,230.13562848127913 53.441325108055025,231.4886942502926 54.57490684767254,233.08776915556518 55.25505589158274,234.37932742462726 55.6518095000647,235.30186782439705 56.10524219577201,236.10140201455215 56.84207032690756,236.65492523700232 57.74893571832217,238.00798046117416 57.80561480554752,238.25399026670493 58.14568932750262,238.5" stroke="#4dd2ff" stroke-linecap="round" stroke-linejoin="round" stroke-width="0.5"><title>2023-09-20 1.0km</title><desc>9882714971</desc></polyline><polyline fill="none" points="87.23875454021618,211.5 86.66307480144314,212.95760326780146 85.57567973900586,216.15044065576512 85.51171532343142,217.19158094731392 85.12792883068323,217.74685529997805 84.68017792282626,218.7879938307451 84.4243202607613,219.75972209015163 83.91260493732989,221.0784945563646 82.44142338237725,223.4383985819295 82.05763688962907,224.82657466462115 81.92970805894583,226.07593139371602 82.05763688962907,227.32528646918945 82.44142338237725,228.71345683612162 82.88917429000139,229.68517487851204 84.29639142984524,232.11446560826153 85.0,233.08618014963577 85.63964415411465,234.8213822004036 86.27928830869496,235.9319098389824 86.91893246280961,236.83421258348972 87.62254103273153,237.52829103090335 88.07029194105417,238.5" stroke="#4dd2ff" stroke-linecap="round" stroke-linejoin="round" stroke-width="0.5"><title>2023-09-19 1.0km</title><desc>9876194288</desc></polyline><polyline fill="none" points="114.80125993303955,211.5 114.32428377168253,212.27636650414206 113.52932350384071,213.82909797120374 113.29083542292938,214.8642511406215 111.85990693978965,217.3658675296465 110.74696256406605,219.69495385535993 110.50847448362038,220.5575772470329 110.58797051059082,221.50646224501543 111.06494667194784,222.7141329512233 111.78041091328487,224.0080644710688 112.41637912811711,225.81956620130222 113.29083542292938,227.71732691884972 114.24478774517775,229.44256127101835 115.11924404045567,230.56396223965567 116.15269238920882,232.28919240599498 116.78866060357541,234.27320396108553 117.90160497976467,235.99842867336702 118.45807716762647,237.5511287454283 119.49152551637962,238.5" stroke="#4dd2ff" stroke-linecap="round" stroke-linejoin="round" stroke-width="0.5"><title>2023-09-18 1.0km</title><desc>9870505463</desc></polyline><polyline fill="none" points="145.27130160154775,211.5 144.8837278848514,212.2570180289331 144.34112468129024,214.78040784032783 143.64349199132994,215.95798784750514 143.33343301760033,216.88322843116475 141.62810866395012,219.6589456924121 141.00799071695656,221.1729704508325 140.6204170002602,222.51876855356386 140.93047597352415,223.4440038310131 142.63580032717437,227.14493745734217 143.48846250446513,228.4907285349327 144.10858045099303,229.92062982002972 145.11627211468294,231.2664176323451 145.65887531870976,232.1916458348278 146.35650800867006,234.37854588468326 149.37958299927413,238.5" stroke="#4dd2ff" stroke-linecap="round" stroke-linejoin="round" stroke-width="0.5"><title>2023-09-16 1.0km</title><desc>9856514700</desc></polyline><polyline fill="none" points="174.6267660856247,211.5 173.79735738644376,214.02002519892994 172.71912607783452,215.73003934358712 170.4797225901857,220.05006443581078 170.39678171975538,221.0400680389721 170.4797225901857,222.21007126464974 170.977367809508,223.3800733720418 171.80677650868893,224.64007439091802 172.5532443379052,226.35007369914092 173.88029825640842,228.6000691493973 175.53911565523595,231.75005583208986 175.7049973946996,232.92004882113542 176.28558348398656,233.37004582688678 176.94911044370383,234.27003934187815 178.02734175231308,236.07002438721247 179.18851393088698,237.06001503393054 179.43733654078096,237.69000866496935 179.60321828071028,238.5" stroke="#4dd2ff" stroke-linecap="round" stroke-linejoin="round" stroke-width="0.5"><title>2023-09-15 1.0km</title><desc>9850671982</desc></polyline><polyline fill="none" points="25.68640634138137,241.5 24.31359365861863,245.13106798846275 22.769179390277714,247.3655661904486 22.082773049362004,248.57591773686 21.053163537289947,251.18282483052462 20.795761159155518,252.11386177758686 20.795761159155518,252.85869084193837 21.053163537289947,253.78972655686084 22.082773049362004,256.58282959414646 23.026581768412143,258.4448948628269 25.343203171156347,262.44832591875456 26.287011890206486,264.21727979544085 26.458613475318998,265.2414098577574 27.14501981670037,265.89312855689786 28.260430121794343,267.662077621324 29.204238840844482,268.5" stroke="#4dd2ff" stroke-linecap="round" stroke-linejoin="round" stroke-width="0.5"><title>2023-09-14 1.0km</title><desc>9844236351</desc></polyline><polyline fill="none" points="50.70887012802996,241.5 51.20281313476153,241.90199097857112 51.38804176240228,242.3039817797835 51.511527514085174,243.1749612404965 51.88198476913385,243.91194321104558 52.12895627273247,245.98888919339515 52.12895627273247,246.99386135616805 52.00547052081674,247.52984605642268 52.12895627273247,248.1998264885624 52.43767065182328,249.00380235683406 52.31418490037322,249.67378170514712 52.37592777609825,250.00877119449433 52.993356534745544,251.14773453748785 53.549042417434976,252.8226780439727 54.042985424166545,253.76064506283728 54.66041418281384,254.63161357294302 55.33958581718616,255.23459128447575 55.524814444594085,255.6365762039204 55.71004307223484,256.5075429211138 56.20398607919924,257.378508805763 56.75967196188867,258.9864436365897 57.500586471986026,260.3933842863189 57.8710437270347,261.59933168569114 58.05627235467546,262.604286632617 58.426729609956965,263.40824979246827 59.10590124432929,265.6191448243917 60.03204438230023,267.36105834465707 60.09378725825809,267.62904474453535 60.03204438230023,267.8300344927702 59.29112987197004,268.5 59.66158712701872,268.2320138561772 59.846815754659474,267.8300344927702 59.970301506109536,267.4950515545206 59.908558630617335,267.0260752339964 59.53810137556866,266.55709867202677 58.426729609956965,264.14521539898124 57.8710437270347,262.33629875513725 56.69792908593081,259.7234128191485 56.14224320324138,257.17751675244654 55.83352882415056,256.44054551096633 54.66041418281384,254.8996037162142 53.487299541477114,252.6886826767004 52.93161365855485,250.87974329077406 52.74638503161259,249.67378170514712 52.25244202418253,248.40082052216167 51.26455601071939,246.25688187853666 51.01758450712077,245.25190890283557 50.153184245107695,243.6439498362015 49.96795561769977,242.7729708236875 49.90621274174191,241.70099551149178" stroke="#4dd2ff" stroke-linecap="round" stroke-linejoin="round" stroke-width="0.5"><title>2023-09-13 1.0km</title><desc>9837636972</desc></polyline></svg>