<svg xmlns="http://www.w3.org/2000/svg" xmlns:ev="http://www.w3.org/2001/xml-events" xmlns:xlink="http://www.w3.org/1999/xlink" width="200mm" height="300mm" baseProfile="full" version="1.1" viewBox="0 0 200 300"><rect width="200" height="300" x="0" y="0" fill="#222"/><text fill="#FFF" style="font-size:12px;font-family:Arial;font-weight:700" x="10" y="20">Over 1km Runs</text><text fill="#FFF" style="font-size:4px;font-family:Arial" x="10" y="280">ATHLETE</text><text fill="#FFF" style="font-size:9px;font-family:Arial" x="10" y="290">Jiakai</text><text fill="#FFF" style="font-size:4px;font-family:Arial" x="120" y="280">STATISTICS</text><text fill="#FFF" style="font-size:3px;font-family:Arial" x="120" y="285">Number: 36</text><text fill="#FFF" style="font-size:3px;font-family:Arial" x="120" y="290">Weekly: 5.1</text><text fill="#FFF" style="font-size:3px;font-family:Arial" x="141" y="285">Total: 37.7 km</text><text fill="#FFF" style="font-size:3px;font-family:Arial" x="141" y="290">Avg: 1.0 km</text><text fill="#FFF" style="font-size:3px;font-family:Arial" x="167" y="285">Min: 1.0 km</text><text fill="#FFF" style="font-size:3px;font-family:Arial" x="167" y="290">Max: 1.5 km</text><polyline fill="none" stroke="#4dd2ff" stroke-linecap="round" stroke-linejoin="round" stroke-width=".5" points="22.225 36.162 24.91 45.68 26.164 48.011 27.596 53.838 29.744 57.723 30.639 58.5 29.744 57.529 28.491 54.421 25.269 50.536 24.552 49.176 23.836 44.709 21.688 40.435 20.256 35.968 19.361 31.5"><title>2023-10-23 1.0km</title><desc>10087395010</desc></polyline><polyline fill="none" stroke="#4dd2ff" stroke-linecap="round" stroke-linejoin="round" stroke-width=".5" points="53.758 31.629 54.236 31.5 57.637 31.759 59.129 32.147 59.487 32.342 60.262 32.924 60.799 33.572 61.993 35.773 62.59 38.234 63.365 39.529 63.723 40.565 64.559 42.443 65.155 44.385 66.05 45.939 66.468 46.392 67.005 47.299 67.303 49.241 67.482 49.759 67.96 50.471 68.079 51.572 68.258 52.025 70.884 58.241 71.242 58.5 71.242 58.176 70.705 57.658 70.108 56.234 69.511 55.004 67.9 50.018"><title>2023-10-22 1.5km</title><desc>10080655811</desc></polyline><polyline fill="none" stroke="#4dd2ff" stroke-linecap="round" stroke-linejoin="round" stroke-width=".5" points="95.706 31.5 96.653 32.185 94.948 31.911 97.6 35.338 97.853 36.16 97.663 36.845 96.779 37.325 96.527 37.805 96.59 38.627 97.095 40.614 97.663 42.053 98.295 44.246 99.432 46.234 99.621 46.987 100.316 48.221 100.758 48.769 100.821 49.112 101.263 49.523 101.579 50.208 102.021 51.51 102.463 52.401 102.4 54.183 103.221 55.759 103.473 56.513 103.915 57.335 104.673 58.294 105.052 58.5 103.6 56.444 103.284 55.348 102.652 53.977 102.4 53.086 101.579 51.921 100.884 49.934"><title>2023-10-20 1.4km</title><desc>10069668027</desc></polyline><polyline fill="none" stroke="#4dd2ff" stroke-linecap="round" stroke-linejoin="round" stroke-width=".5" points="132.067 31.5 132.196 32.547 133.224 35.058 133.482 36.593 135.603 41.756 135.796 42.454 135.925 43.5 136.182 44.198 137.725 46.361 138.561 48.035 139.075 49.709 139.525 50.616 139.782 52.012 140.104 52.709 140.94 54.872 141.068 55.709 142.29 58.221 142.611 58.5 142.804 58.5 142.933 58.43 142.869 58.36 141.583 56.756 141.004 54.802 139.782 52.57 139.59 51.663 139.461 50.128"><title>2023-10-19 1.3km</title><desc>10064004415</desc></polyline><polyline fill="none" stroke="#4dd2ff" stroke-linecap="round" stroke-linejoin="round" stroke-width=".5" points="168.912 31.5 171.559 34.947 171.382 37.436 171.735 39.926 172.971 44.33 174.735 47.202 176.5 52.181 180.029 57.926 180.559 58.5 181.088 58.309 178.794 56.011 174.559 47.777 173.5 44.138 170.5 37.819"><title>2023-10-18 1.0km</title><desc>10058081424</desc></polyline><polyline fill="none" stroke="#4dd2ff" stroke-linecap="round" stroke-linejoin="round" stroke-width=".5" points="20.287 63.136 21.795 71.932 25.754 82.364 28.393 87.886 29.524 88.5 30.09 88.5 30.467 87.682 29.147 86.045 27.451 83.386 25.189 78.477 24.246 75.614 20.287 67.636 19.91 66.409 19.533 61.5"><title>2023-10-17 1.0km</title><desc>10051702317</desc></polyline><polyline fill="none" stroke="#4dd2ff" stroke-linecap="round" stroke-linejoin="round" stroke-width=".5" points="56.471 62.123 58.385 65.446 61.256 72.923 62.787 75.831 64.51 81.231 66.615 86.631 67.381 88.085 68.338 88.5 68.529 88.292 68.338 87.669 66.232 84.554 63.361 77.492 61.256 73.131 59.533 65.031 58.576 61.5"><title>2023-10-16 1.0km</title><desc>10046279660</desc></polyline><polyline fill="none" stroke="#4dd2ff" stroke-linecap="round" stroke-linejoin="round" stroke-width=".5" points="94.471 61.5 95.26 63.214 96.05 67.071 97.828 73.071 100.197 76.714 102.962 87 103.95 88.071 105.332 88.5 105.529 88.071 105.332 86.786 102.765 83.143 101.382 78.857 99.803 76.286 96.05 67.5 94.668 61.5"><title>2023-10-15 1.0km</title><desc>10039610121</desc></polyline><polyline fill="none" stroke="#4dd2ff" stroke-linecap="round" stroke-linejoin="round" stroke-width=".5" points="131.881 63.46 132.483 69.774 134.089 74.347 136.095 77.177 137.299 81.097 140.711 87.194 141.513 88.065 142.517 88.5 143.119 88.065 143.119 87.411 139.105 84.145 136.497 79.355 135.493 75.218 133.085 69.774 131.881 65.202 132.082 62.371 131.881 61.5"><title>2023-10-14 1.0km</title><desc>10033377496</desc></polyline><polyline fill="none" stroke="#4dd2ff" stroke-linecap="round" stroke-linejoin="round" stroke-width=".5" points="168.878 61.929 172.433 66.214 172.828 69.429 176.185 79.714 179.345 87.214 180.332 88.5 181.122 88.5 181.122 87.857 180.924 87.214 179.147 85.929 177.172 82.286 175 75.429 171.05 66.643 170.458 63.643 169.471 61.5"><title>2023-10-13 1.0km</title><desc>10028006924</desc></polyline><polyline fill="none" stroke="#4dd2ff" stroke-linecap="round" stroke-linejoin="round" stroke-width=".5" points="19.207 91.5 21.106 93.973 22.246 96.034 22.436 98.714 22.246 101.599 24.335 105.928 26.804 112.523 29.274 117.057 29.844 117.882 30.793 118.5 30.793 117.469 28.704 114.79 26.804 111.492 24.335 104.691 22.816 102.011 22.056 99.744"><title>2023-10-12 1.0km</title><desc>10021974100</desc></polyline><polyline fill="none" stroke="#4dd2ff" stroke-linecap="round" stroke-linejoin="round" stroke-width=".5" points="59.343 95.328 60.086 99.358 59.9 100.97 61.572 106.41 62.871 108.828 64.171 113.261 66.028 117.694 66.4 118.097 67.328 118.5 67.142 117.694 65.1 112.455 62.871 108.627 59.9 101.776 59.158 99.157 58.786 95.328 57.672 91.5"><title>2023-10-10 1.0km</title><desc>10009069592</desc></polyline><polyline fill="none" stroke="#4dd2ff" stroke-linecap="round" stroke-linejoin="round" stroke-width=".5" points="95.426 94.875 96.707 98.449 97.987 103.213 100.732 109.169 102.927 116.713 104.208 118.5 104.574 117.904 104.757 115.721 103.476 111.949 100.732 107.184 97.622 98.449 96.707 94.478 95.243 91.5"><title>2023-10-09 1.0km</title><desc>10003389142</desc></polyline><polyline fill="none" stroke="#4dd2ff" stroke-linecap="round" stroke-linejoin="round" stroke-width=".5" points="132.003 91.5 133.353 93.174 134.703 96.314 135.475 102.593 138.368 108.872 140.876 115.988 142.033 118.081 142.997 118.5 142.997 116.826 139.332 110.965 134.51 99.244 132.581 91.709"><title>2023-10-08 1.0km</title><desc>9996447828</desc></polyline><polyline fill="none" stroke="#4dd2ff" stroke-linecap="round" stroke-linejoin="round" stroke-width=".5" points="171.534 96.9 172.423 100.179 175.089 107.314 175.978 110.4 178.821 117.536 179.71 118.5 179.888 117.729 179.888 116.957 176.511 110.979 174.911 107.507 172.067 99.021 171.179 94.586 170.112 91.5"><title>2023-10-07 1.0km</title><desc>9989974159</desc></polyline><polyline fill="none" stroke="#4dd2ff" stroke-linecap="round" stroke-linejoin="round" stroke-width=".5" points="22.794 129.543 24.206 134.138 25.265 136.436 27.382 145.436 27.912 147.16 28.971 148.5 29.853 148.5 30.206 147.734 30.029 147.16 27.912 144.096 25.794 139.5 25.088 136.436 21.382 127.436 20.853 124.181 19.794 121.5"><title>2023-10-06 1.0km</title><desc>9984428862</desc></polyline><polyline fill="none" stroke="#4dd2ff" stroke-linecap="round" stroke-linejoin="round" stroke-width=".5" points="56.687 121.5 59.747 129.689 61.786 136.549 65.253 145.18 66.681 148.057 67.293 148.5 68.109 148.5 68.313 148.057 67.701 146.951 65.253 143.41 63.826 140.533 61.378 134.115 60.358 130.795 57.503 125.484 57.503 123.492"><title>2023-10-04 1.0km</title><desc>9971682885</desc></polyline><polyline fill="none" stroke="#4dd2ff" stroke-linecap="round" stroke-linejoin="round" stroke-width=".5" points="95.913 124.653 96.822 127.807 97.73 129.974 98.456 133.325 101.907 140.223 102.089 142.588 103.178 147.318 103.542 147.909 104.631 148.5 104.631 146.529 102.27 142.193 100.636 138.449 99.728 136.675 98.819 134.113 97.003 130.369 96.277 127.412 95.913 124.456 95.369 121.5"><title>2023-10-03 1.0km</title><desc>9965060084</desc></polyline><polyline fill="none" stroke="#4dd2ff" stroke-linecap="round" stroke-linejoin="round" stroke-width=".5" points="132.565 122.616 135.032 130.649 135.444 134.219 136.883 136.004 137.911 138.682 139.762 145.599 141.202 147.831 142.23 148.5 142.435 148.277 141.818 146.492 139.556 142.252 135.855 133.326 133.593 126.632 133.182 121.5"><title>2023-10-02 1.0km</title><desc>9958643020</desc></polyline><polyline fill="none" stroke="#4dd2ff" stroke-linecap="round" stroke-linejoin="round" stroke-width=".5" points="170.72 126.252 171.118 128.196 175.498 138.564 177.687 145.26 178.882 147.636 180.076 148.5 180.275 148.284 180.076 147.42 176.095 141.372 172.313 132.084 170.521 126.468 169.725 121.5"><title>2023-10-01 1.0km</title><desc>9952075403</desc></polyline><polyline fill="none" stroke="#4dd2ff" stroke-linecap="round" stroke-linejoin="round" stroke-width=".5" points="21.123 155.413 22.746 158.739 23.467 162.065 24.008 165.196 26.713 172.826 29.057 177.717 30.139 178.5 30.499 177.913 26.893 172.435 25.27 168.717 24.73 166.761 22.205 161.283 20.763 155.217 19.501 151.5"><title>2023-09-30 1.0km</title><desc>9945549317</desc></polyline><polyline fill="none" stroke="#4dd2ff" stroke-linecap="round" stroke-linejoin="round" stroke-width=".5" points="58.32 151.5 60.111 154.524 60.708 156.9 62.301 160.788 63.097 166.62 63.694 168.348 66.083 174.18 66.68 177.852 67.078 178.284 67.676 178.5 67.875 178.068 64.292 171.588 61.903 165.972 61.107 162.732 58.32 156.252 57.125 152.364"><title>2023-09-28 1.0km</title><desc>9933629332</desc></polyline><polyline fill="none" stroke="#4dd2ff" stroke-linecap="round" stroke-linejoin="round" stroke-width=".5" points="94.722 154.568 96.23 159.886 99.057 163.773 100.943 170.727 103.582 175.432 104.336 178.091 105.09 178.5 105.467 177.886 105.09 177.068 103.582 175.023 99.246 166.227 96.984 160.091 94.533 151.5"><title>2023-09-27 1.0km</title><desc>9927137811</desc></polyline><polyline fill="none" stroke="#4dd2ff" stroke-linecap="round" stroke-linejoin="round" stroke-width=".5" points="139.743 151.5 139.205 154.096 138.666 155.589 138.248 157.406 135.795 162.534 134.539 164.676 134.3 165.584 134.42 166.298 134.719 167.337 135.616 169.543 135.915 170.127 136.274 171.166 137.47 172.659 138.008 173.827 138.607 174.736 139.085 176.034 139.803 177.007 140.7 178.5"><title>2023-09-26 1.0km</title><desc>9920397094</desc></polyline><polyline fill="none" stroke="#4dd2ff" stroke-linecap="round" stroke-linejoin="round" stroke-width=".5" points="174.874 151.5 173.697 155.422 172.52 157.52 171.427 158.889 170.839 159.983 170.587 161.078 170.671 162.446 171.091 163.541 172.1 165.091 172.52 166.642 173.361 168.649 174.958 170.655 177.648 176.128 179.413 178.5"><title>2023-09-25 1.0km</title><desc>9914573673</desc></polyline><polyline fill="none" stroke="#4dd2ff" stroke-linecap="round" stroke-linejoin="round" stroke-width=".5" points="26.991 181.5 26.327 182.508 26.194 183.012 26.327 183.66 26.393 184.308 25.066 186.756 24.735 188.412 24.27 189.636 21.483 194.532 21.417 195.108 21.682 196.26 22.412 197.412 22.81 198.42 23.408 199.428 23.739 200.436 24.602 201.804 25.265 203.172 25.995 203.964 26.194 204.684 26.659 205.26 27.654 206.988 28.384 207.78 28.583 208.5"><title>2023-09-24 1.0km</title><desc>9907510217</desc></polyline><polyline fill="none" stroke="#4dd2ff" stroke-linecap="round" stroke-linejoin="round" stroke-width=".5" points="63.507 181.5 62.943 182.374 62.54 183.248 62.299 184.384 62.218 185.869 60.849 187.704 60.044 189.801 59.319 190.85 58.836 192.248 58.756 193.733 60.447 198.015 61.091 199.325 63.184 202.646 64.07 204.83 65.198 206.228 65.842 207.364 66.244 208.5"><title>2023-09-23 1.0km</title><desc>9901004991</desc></polyline><polyline fill="none" stroke="#4dd2ff" stroke-linecap="round" stroke-linejoin="round" stroke-width=".5" points="101.037 181.5 100.499 182.5 99.962 184.25 98.733 186.833 97.504 188.583 96.429 191.5 96.352 193.083 96.506 194 98.042 197.667 98.272 198.75 98.579 199.333 99.654 200.667 100.499 202.333 101.19 204.083 102.342 205.75 103.648 208.5"><title>2023-09-22 1.0km</title><desc>9895405405</desc></polyline><polyline fill="none" stroke="#4dd2ff" stroke-linecap="round" stroke-linejoin="round" stroke-width=".5" points="138.931 181.5 138.711 182.296 138.271 182.774 137.317 184.527 136.95 185.801 135.849 188.589 134.674 190.978 133.94 192.73 133.72 193.606 133.72 194.164 133.94 194.96 134.381 195.757 135.335 198.226 136.289 199.978 136.803 201.252 137.757 202.845 138.344 203.562 138.784 204.836 139.959 206.907 141.28 208.5"><title>2023-09-21 1.0km</title><desc>9889267953</desc></polyline><polyline fill="none" stroke="#4dd2ff" stroke-linecap="round" stroke-linejoin="round" stroke-width=".5" points="177.749 181.5 176.785 184.391 176.219 186.666 175.312 188.573 174.235 191.771 172.364 195.277 171.854 197.183 171.911 197.614 172.251 198.537 172.988 200.136 173.441 201.489 174.575 203.088 175.255 204.379 175.652 205.302 176.105 206.101 176.842 206.655 177.749 208.008 177.806 208.254 178.146 208.5"><title>2023-09-20 1.0km</title><desc>9882714971</desc></polyline><polyline fill="none" stroke="#4dd2ff" stroke-linecap="round" stroke-linejoin="round" stroke-width=".5" points="27.239 211.5 26.663 212.958 25.576 216.15 25.512 217.192 25.128 217.747 24.68 218.788 24.424 219.76 23.913 221.078 22.441 223.438 22.058 224.827 21.93 226.076 22.058 227.325 22.441 228.713 22.889 229.685 24.296 232.114 25 233.086 25.64 234.821 26.279 235.932 26.919 236.834 27.623 237.528 28.07 238.5"><title>2023-09-19 1.0km</title><desc>9876194288</desc></polyline><polyline fill="none" stroke="#4dd2ff" stroke-linecap="round" stroke-linejoin="round" stroke-width=".5" points="62.301 211.5 61.824 212.276 61.029 213.829 60.791 214.864 59.36 217.366 58.247 219.695 58.008 220.558 58.088 221.506 58.565 222.714 59.28 224.008 59.916 225.82 60.791 227.717 61.745 229.443 62.619 230.564 63.653 232.289 64.289 234.273 65.402 235.998 65.958 237.551 66.992 238.5"><title>2023-09-18 1.0km</title><desc>9870505463</desc></polyline><polyline fill="none" stroke="#4dd2ff" stroke-linecap="round" stroke-linejoin="round" stroke-width=".5" points="100.271 211.5 99.884 212.257 99.341 214.78 98.643 215.958 98.333 216.883 96.628 219.659 96.008 221.173 95.62 222.519 95.93 223.444 97.636 227.145 98.488 228.491 99.109 229.921 100.116 231.266 100.659 232.192 101.357 234.379 104.38 238.5"><title>2023-09-16 1.0km</title><desc>9856514700</desc></polyline><polyline fill="none" stroke="#4dd2ff" stroke-linecap="round" stroke-linejoin="round" stroke-width=".5" points="137.127 211.5 136.297 214.02 135.219 215.73 132.98 220.05 132.897 221.04 132.98 222.21 133.477 223.38 134.307 224.64 135.053 226.35 136.38 228.6 138.039 231.75 138.205 232.92 138.786 233.37 139.449 234.27 140.527 236.07 141.689 237.06 141.937 237.69 142.103 238.5"><title>2023-09-15 1.0km</title><desc>9850671982</desc></polyline><polyline fill="none" stroke="#4dd2ff" stroke-linecap="round" stroke-linejoin="round" stroke-width=".5" points="175.686 211.5 174.314 215.131 172.769 217.366 172.083 218.576 171.053 221.183 170.796 222.114 170.796 222.859 171.053 223.79 172.083 226.583 173.027 228.445 175.343 232.448 176.287 234.217 176.459 235.241 177.145 235.893 178.26 237.662 179.204 238.5"><title>2023-09-14 1.0km</title><desc>9844236351</desc></polyline><polyline fill="none" stroke="#4dd2ff" stroke-linecap="round" stroke-linejoin="round" stroke-width=".5" points="20.709 241.5 21.203 241.902 21.388 242.304 21.512 243.175 21.882 243.912 22.129 245.989 22.129 246.994 22.005 247.53 22.129 248.2 22.438 249.004 22.314 249.674 22.376 250.009 22.993 251.148 23.549 252.823 24.043 253.761 24.66 254.632 25.34 255.235 25.525 255.637 25.71 256.508 26.204 257.379 26.76 258.986 27.501 260.393 27.871 261.599 28.056 262.604 28.427 263.408 29.106 265.619 30.032 267.361 30.094 267.629 30.032 267.83 29.291 268.5 29.662 268.232 29.847 267.83 29.97 267.495 29.909 267.026 29.538 266.557 28.427 264.145 27.871 262.336 26.698 259.723 26.142 257.178 25.834 256.441 24.66 254.9 23.487 252.689 22.932 250.88 22.746 249.674 22.252 248.401 21.265 246.257 21.018 245.252 20.153 243.644 19.968 242.773 19.906 241.701"><title>2023-09-13 1.0km</title><desc>9837636972</desc></polyline></svg>