<?xml version="1.0" encoding="utf-8" ?>
<svg baseProfile="full" height="300mm" version="1.1" viewBox="0,0,200,300" width="200mm" xmlns="http://www.w3.org/2000/svg" xmlns:ev="http://www.w3.org/2001/xml-events" xmlns:xlink="http://www.w3.org/1999/xlink"><defs /><rect fill="#222222" height="300" width="200" x="0" y="0" /><text fill="#FFFFFF" style="font-size:12px; font-family:Arial; font-weight:bold;" x="10" y="20">Over 1km Runs</text><text fill="#FFFFFF" style="font-size:4px; font-family:Arial" x="10" y="280">ATHLETE</text><text fill="#FFFFFF" style="font-size:9px; font-family:Arial" x="10" y="290">Jiakai</text><text fill="#FFFFFF" style="font-size:4px; font-family:Arial" x="120" y="280">STATISTICS</text><text fill="#FFFFFF" style="font-size:3px; font-family:Arial" x="120" y="285">Number: 10</text><text fill="#FFFFFF" style="font-size:3px; font-family:Arial" x="120" y="290">Weekly: 5.0</text><text fill="#FFFFFF" style="font-size:3px; font-family:Arial" x="141" y="285">Total: 10.2 km</text><text fill="#FFFFFF" style="font-size:3px; font-family:Arial" x="141" y="290">Avg: 1.0 km</text><text fill="#FFFFFF" style="font-size:3px; font-family:Arial" x="167" y="285">Min: 1.0 km</text><text fill="#FFFFFF" style="font-size:3px; font-family:Arial" x="167" y="290">Max: 1.0 km</text><polyline fill="none" points="42.01312428433448,33.0 40.88577468506992,34.74759202566929 40.080524971708655,36.4951827658806 39.59737514425069,38.76704880781472 39.43632520083338,41.73794727749191 36.69847617391497,45.40787555463612 35.08797674719244,49.602072360692546 33.638527262955904,51.69916798803024 32.67222760617733,54.4952926132828 32.51117766276002,57.466171423206106 35.893226460553706,66.0292719216086 37.181626002304256,68.65062304981984 41.368924513459206,75.29136630217545 43.14047388359904,79.66026621847413 45.39517308212817,82.45635795011185 46.68357262387872,84.72818006086163 47.4888223381713,87.0" stroke="#4dd2ff" stroke-linecap="round" stroke-linejoin="round" stroke-width="0.5"><title>2023-09-23 1.0km</title><desc>9901004991</desc></polyline><polyline fill="none" points="102.07351915724576,33.0 100.99836107622832,35.00002294080332 99.92320299521089,38.50005884026177 97.46569881029427,43.666768623981625 95.00819462537766,47.16679114091676 92.85787846334279,53.000149992876686 92.70428445097059,56.16682422568556 93.01147247571498,58.00015991809778 96.08335270639509,65.33348785818089 96.54413474071771,67.50014839123469 97.1585107864812,68.66681089741178 99.30882694851607,71.33346580003854 100.99836107622832,74.66678001615219 102.3807071801275,78.1667546685785 104.68461735360324,81.50005883711856 107.29571554996073,87.0" stroke="#4dd2ff" stroke-linecap="round" stroke-linejoin="round" stroke-width="0.5"><title>2023-09-22 1.0km</title><desc>9895405405</desc></polyline><polyline fill="none" points="162.86255436763167,33.0 162.42216138821095,34.59293962083757 161.5413754293695,35.548702831263654 159.6330058509484,39.05316432798281 158.89901755191386,41.60186003765557 156.69705265387893,47.17712144902907 154.3482900960371,51.95590552466456 152.8803134970367,55.46034048101865 152.43992051761597,57.21255583292805 152.43992051761597,58.32760122837499 152.8803134970367,59.92052222613711 153.76109945680946,61.51344205299392 155.66946903523058,66.45148607261945 157.57783861272037,69.95589758083224 158.60542223136872,72.50455693574622 160.51379180978984,75.6903769132914 161.6881730882451,77.12399437499698 162.56895904801786,79.67264529759996 164.9177216058597,83.81419665238354 167.56007948238403,87.0" stroke="#4dd2ff" stroke-linecap="round" stroke-linejoin="round" stroke-width="0.5"><title>2023-09-21 1.0km</title><desc>9889267953</desc></polyline><polyline fill="none" points="45.497871436644346,93.0 43.570782479364425,98.78140450408682 42.437200740445405,103.33270888705738 40.623469956219196,107.14595437725075 38.46966465143487,113.54234664782416 34.7288449103944,120.55374854023103 33.708621344994754,124.36695477657486 33.82197951851413,125.22800014319364 34.50212856242433,127.07309586496558 35.97578482422978,130.27125696255825 36.88265021611005,132.97738850058522 39.149813695345074,136.17553831113037 40.510111783165485,138.75865484925453 41.3036190001294,140.6037356487941 42.210484391544014,142.2028040291043 43.68414065381512,143.30985047400463 45.497871436644346,146.0159609223483 45.61122961109504,146.50798053340986 46.291378655005246,147.0" stroke="#4dd2ff" stroke-linecap="round" stroke-linejoin="round" stroke-width="0.5"><title>2023-09-20 1.0km</title><desc>9882714971</desc></polyline><polyline fill="none" points="104.47750908043236,93.0 103.32614960288629,95.91520653560292 101.15135947801173,102.30088131153025 101.02343064686283,104.38316189462785 100.25585766136646,105.4937105999561 99.36035584565252,107.57598766149022 98.84864052152261,109.51944418030325 97.82520987465978,112.1569891127292 94.8828467647545,116.87679716385901 94.11527377925813,119.6531493292423 93.85941611789167,122.15186278743204 94.11527377925813,124.6505729383789 94.8828467647545,127.42691367224324 95.77834858000278,129.3703497570241 98.59278285969049,134.22893121652305 100.0,136.17236029927153 101.2792883082293,139.6427644008072 102.55857661738992,141.86381967796478 103.83786492561921,143.66842516697943 105.24508206546307,145.0565820618067 106.14058388210833,147.0" stroke="#4dd2ff" stroke-linecap="round" stroke-linejoin="round" stroke-width="0.5"><title>2023-09-19 1.0km</title><desc>9876194288</desc></polyline><polyline fill="none" points="159.6025198660791,93.0 158.64856754336506,94.55273300828412 157.05864700768143,97.65819594240747 156.58167084585875,99.72850228124298 153.7198138795793,104.73173505929299 151.4939251281321,109.38990771071985 151.01694896724075,111.11515449406579 151.17594102118164,113.01292449003085 152.12989334389567,115.42826590244658 153.56082182656974,118.01612894213758 154.83275825623423,121.63913240260445 156.58167084585875,125.43465383769944 158.4895754903555,128.8851225420367 160.23848808091134,131.12792447931133 162.30538477841765,134.57838481198996 163.57732120715082,138.54640792217106 165.80320995952934,141.99685734673403 166.91615433525294,145.10225749085657 168.98305103275925,147.0" stroke="#4dd2ff" stroke-linecap="round" stroke-linejoin="round" stroke-width="0.5"><title>2023-09-18 1.0km</title><desc>9870505463</desc></polyline><polyline fill="none" points="40.542603203095496,153.0 39.76745576970279,154.51403605786618 38.68224936258048,159.56081568065565 37.286983982659876,161.91597569501027 36.666866035200655,163.7664568623295 33.25621732790023,169.31789138482418 32.01598143391311,172.34594090166502 31.240834000520408,175.03753710712772 31.860951947048306,176.8880076620262 35.27160065434873,184.28987491468433 36.976925008930266,186.98145706986543 38.21716090198606,189.84125964005943 40.232544229365885,192.53283526469022 41.31775063741952,194.3832916696556 42.713016017340124,198.75709176936653 48.75916599854827,207.0" stroke="#4dd2ff" stroke-linecap="round" stroke-linejoin="round" stroke-width="0.5"><title>2023-09-16 1.0km</title><desc>9856514700</desc></polyline><polyline fill="none" points="99.25353217124939,153.0 97.59471477288753,158.0400503978599 95.43825215566903,161.46007868717425 90.9594451803714,170.10012887162156 90.79356343951076,172.0801360779442 90.9594451803714,174.42014252929948 91.95473561901599,176.7601467440836 93.61355301737785,179.28014878183603 95.1064886758104,182.70014739828184 97.76059651281685,187.20013829879463 101.07823131047189,193.5001116641797 101.4099947893992,195.84009764227085 102.57116696797311,196.74009165377356 103.89822088740766,198.5400786837563 106.05468350462615,202.14004877442494 108.37702786177397,204.12003006786108 108.87467308156192,205.3800173299387 109.20643656142056,207.0" stroke="#4dd2ff" stroke-linecap="round" stroke-linejoin="round" stroke-width="0.5"><title>2023-09-15 1.0km</title><desc>9850671982</desc></polyline><polyline fill="none" points="161.37281268276274,153.0 158.62718731723726,160.2621359769255 155.53835878055543,164.73113238089718 154.165546098724,167.15183547371998 152.1063270745799,172.36564966104925 151.59152231831104,174.22772355517372 151.59152231831104,175.71738168387674 152.1063270745799,177.57945311372168 154.165546098724,183.16565918829292 156.0531635368243,186.88978972565383 160.6864063423127,194.89665183750913 162.57402378041297,198.4345595908817 162.917226950638,200.48281971551478 164.29003963340074,201.78625711379573 166.5208602435887,205.32415524264798 168.40847768168896,207.0" stroke="#4dd2ff" stroke-linecap="round" stroke-linejoin="round" stroke-width="0.5"><title>2023-09-14 1.0km</title><desc>9844236351</desc></polyline><polyline fill="none" points="31.417740256059915,213.0 32.405626269523054,213.80398195714224 32.77608352480456,214.607963559567 33.02305502817035,216.34992248099297 33.7639695382677,217.82388642209116 34.25791254546493,221.9777783867903 34.25791254546493,223.9877227123361 34.01094104163349,225.05969211284537 34.25791254546493,226.3996529771248 34.875341303646564,228.00760471366812 34.62836980074644,229.34756341029424 34.7518555521965,230.01754238898866 35.98671306949109,232.2954690749757 37.09808483486995,235.6453560879454 38.08597084833309,237.52129012567457 39.320828365627676,239.26322714588605 40.679171634372324,240.4691825689515 41.04962888918817,241.27315240784083 41.42008614446968,243.01508584222756 42.40797215839848,244.75701761152595 43.51934392377734,247.97288727317937 45.00117294397205,250.7867685726378 45.742087454069406,253.19866337138228 46.112544709350914,255.208573265234 46.85345921991393,256.81649958493654 48.21180248865858,261.2382896487834 50.064088764600456,264.72211668931413 50.18757451651618,265.2580894890707 50.064088764600456,265.6600689855404 48.582259743940085,267.0 49.32317425403744,266.46402771235444 49.69363150931895,265.6600689855404 49.94060301221907,264.99010310904123 49.81711726123467,264.05215046799276 49.076202751137316,263.11419734405354 46.85345921991393,258.2904307979625 45.742087454069406,254.6725975102745 43.39585817186162,249.446825638297 42.284486406482756,244.35503350489307 41.667057648301125,242.88109102193266 39.320828365627676,239.79920743242837 36.97459908295423,235.37736535340082 35.863227317109704,231.75948658154812 35.49277006322518,229.34756341029424 34.50488404836506,226.80164104432333 32.52911202143878,222.51376375707332 32.035169014241546,220.50381780567113 30.30636849021539,217.287899672403 29.935911235399544,215.545941647375 29.81242548348382,213.40199102298357" stroke="#4dd2ff" stroke-linecap="round" stroke-linejoin="round" stroke-width="0.5"><title>2023-09-13 1.0km</title><desc>9837636972</desc></polyline></svg>