<svg xmlns="http://www.w3.org/2000/svg" xmlns:ev="http://www.w3.org/2001/xml-events" xmlns:xlink="http://www.w3.org/1999/xlink" width="200mm" height="300mm" baseProfile="full" version="1.1" viewBox="0 0 200 300"><rect width="200" height="300" x="0" y="0" fill="#222"/><text fill="#FFF" style="font-size:12px;font-family:Arial;font-weight:700" x="10" y="20">Over 1km Runs</text><text fill="#FFF" style="font-size:4px;font-family:Arial" x="10" y="280">ATHLETE</text><text fill="#FFF" style="font-size:9px;font-family:Arial" x="10" y="290">Jiakai</text><text fill="#FFF" style="font-size:4px;font-family:Arial" x="120" y="280">STATISTICS</text><text fill="#FFF" style="font-size:3px;font-family:Arial" x="120" y="285">Number: 95</text><text fill="#FFF" style="font-size:3px;font-family:Arial" x="120" y="290">Weekly: 5.9</text><text fill="#FFF" style="font-size:3px;font-family:Arial" x="141" y="285">Total: 98.4 km</text><text fill="#FFF" style="font-size:3px;font-family:Arial" x="141" y="290">Avg: 1.0 km</text><text fill="#FFF" style="font-size:3px;font-family:Arial" x="167" y="285">Min: 1.0 km</text><text fill="#FFF" style="font-size:3px;font-family:Arial" x="167" y="290">Max: 1.5 km</text><polyline fill="none" stroke="#4dd2ff" stroke-linecap="round" stroke-linejoin="round" stroke-width=".5" points="18.587 36.333 18.833 37.667 19.939 40.467 20.922 43.8 22.888 48.6 23.379 49 23.379 48.067 22.273 46.2 21.659 44.2 19.201 39 18.341 36.733 17.727 35.667 16.621 31"><title>2024-01-06 1.0km</title><desc>10501510624</desc></polyline><polyline fill="none" stroke="#4dd2ff" stroke-linecap="round" stroke-linejoin="round" stroke-width=".5" points="40.479 34.273 41.407 36.538 42.103 39.434 43.263 43.21 44.539 45.979 45.351 47.993 45.815 48.748 46.279 49 46.163 48.119 45.583 46.734 41.755 39.434 41.059 37.294 40.827 35.28 40.015 33.14 39.435 31"><title>2024-01-05 1.0km</title><desc>10495609202</desc></polyline><polyline fill="none" stroke="#4dd2ff" stroke-linecap="round" stroke-linejoin="round" stroke-width=".5" points="61.921 31 62.692 32.814 63.335 34.767 64.235 36.581 65.907 41.326 67.965 46.07 68.736 48.581 69.251 49 69.508 48.302 69.379 47.326 66.293 41.047 65.264 37.419 64.235 31.558"><title>2024-01-04 1.0km</title><desc>10489071805</desc></polyline><polyline fill="none" stroke="#4dd2ff" stroke-linecap="round" stroke-linejoin="round" stroke-width=".5" points="86.071 34.309 87.657 38.676 89.608 43.044 90.584 46.75 91.438 49 91.56 49 91.56 48.074 90.95 45.824 89.73 43.044 88.754 40.265 87.169 37.088 86.193 34.176 85.583 32.324 85.949 31"><title>2024-01-03 1.0km</title><desc>10482519748</desc></polyline><polyline fill="none" stroke="#4dd2ff" stroke-linecap="round" stroke-linejoin="round" stroke-width=".5" points="107.796 31.298 110.949 40.521 114.239 48.405 114.924 49 115.062 48.405 114.65 47.364 111.223 40.818 109.989 37.545 108.207 31"><title>2024-01-01 1.0km</title><desc>10470902913</desc></polyline><polyline fill="none" stroke="#4dd2ff" stroke-linecap="round" stroke-linejoin="round" stroke-width=".5" points="141.902 35.408 141.677 35.776 139.307 37.49 138.292 38.592 137.615 39.816 137.163 40.429 136.825 40.551 135.358 40.551 134.004 41.041 132.198 40.918 131.295 40.551 130.731 39.694 130.393 38.959 130.28 37.245 129.941 36.51 128.587 36.51 127.459 36.878 127.346 37 127.797 37.245 128.023 37 127.233 37 127.008 36.755 126.782 35.898 126.669 34.429 127.233 34.551 127.685 35.531 128.7 36.633 129.49 36.633 130.167 36.143 130.731 36.265 130.844 36.02 129.829 33.082 129.603 32.959 128.362 32.837 127.12 32.959 127.91 32.959 126.782 31.735 126.669 31 127.008 31.49 127.346 33.082 127.685 33.816 128.023 35.408 127.346 39.571 128.136 43.367 128.813 44.469 128.926 46.306 129.941 49"><title>2023-12-31 1.5km</title><desc>10466792666</desc></polyline><polyline fill="none" stroke="#4dd2ff" stroke-linecap="round" stroke-linejoin="round" stroke-width=".5" points="154.756 35.273 156.069 39.935 157.859 43.691 159.41 48.094 159.888 49 160.126 49 160.246 47.964 159.768 46.54 157.62 42.137 157.62 40.971 156.069 37.604 155.83 35.014 155.353 33.46 154.04 31"><title>2023-12-30 1.0km</title><desc>10458865202</desc></polyline><polyline fill="none" stroke="#4dd2ff" stroke-linecap="round" stroke-linejoin="round" stroke-width=".5" points="180.979 31 178.712 31.224 177.167 32.23 176.033 33.348 175.518 34.689 175.106 39.944 175.621 45.199 175.827 45.981 176.136 46.652 177.785 48.441 179.639 49 181.082 48.776 182.833 47.658 183.864 46.764 184.894 43.745 184.791 41.398 184.482 39.385 184.276 34.466 183.967 33.236 183.348 32.453 182.627 31.894 180.979 31.559 178.712 31.671 177.064 32.565 176.239 33.571 175.621 35.137 175.621 35.919 175.93 37.82 175.724 39.385"><title>2023-12-29 1.0km</title><desc>10454615358</desc></polyline><polyline fill="none" stroke="#4dd2ff" stroke-linecap="round" stroke-linejoin="round" stroke-width=".5" points="17.487 52.909 19.246 59.182 22.011 67.636 22.89 69 23.016 69 23.016 67.636 21.131 61.909 19.623 58.227 18.618 56.318 16.984 51"><title>2023-12-27 1.0km</title><desc>10441997651</desc></polyline><polyline fill="none" stroke="#4dd2ff" stroke-linecap="round" stroke-linejoin="round" stroke-width=".5" points="39.464 53.318 41.475 57.273 42.48 61.364 43.863 63.955 45.496 68.182 45.999 69 46.25 68.864 45.371 66.273 44.114 64.364 40.092 54.818 39.841 52.227 39.464 51"><title>2023-12-17 1.0km</title><desc>10391591057</desc></polyline><polyline fill="none" stroke="#4dd2ff" stroke-linecap="round" stroke-linejoin="round" stroke-width=".5" points="62.794 54.169 64.196 57.845 66.532 62.408 68.635 68.493 69.102 69 69.219 68.873 69.219 68.366 68.635 66.718 65.481 60.507 64.079 56.704 63.027 52.394 62.21 51"><title>2023-12-16 1.0km</title><desc>10386207035</desc></polyline><polyline fill="none" stroke="#4dd2ff" stroke-linecap="round" stroke-linejoin="round" stroke-width=".5" points="86.139 54.383 86.638 56.684 88.384 61.962 89.382 63.586 90.754 68.053 91.128 69 91.378 69 91.378 67.647 89.507 61.962 86.888 57.902 86.763 56.278 86.015 54.383 86.264 53.165 85.765 51"><title>2023-12-14 1.0km</title><desc>10376526598</desc></polyline><polyline fill="none" stroke="#4dd2ff" stroke-linecap="round" stroke-linejoin="round" stroke-width=".5" points="115.292 52.565 114.365 51.783 112.819 51.112 111.377 51 109.935 51.335 108.08 52.342 107.256 53.46 106.638 55.36 106.638 59.609 106.844 60.95 107.256 62.627 106.947 64.64 107.05 65.422 107.153 65.87 108.183 67.658 109.832 68.888 110.347 69 111.377 69 112.407 69 114.262 68.329 115.292 67.323 115.91 66.205 116.116 63.745 116.219 62.068 115.91 60.056 116.116 57.373 116.013 55.025 115.91 54.242 115.189 52.677 114.88 52.342 113.747 51.559 111.48 51.335 110.038 51.559 109.213 51.894 107.668 53.571 107.05 55.919 107.256 57.484"><title>2023-12-13 1.0km</title><desc>10373769329</desc></polyline><polyline fill="none" stroke="#4dd2ff" stroke-linecap="round" stroke-linejoin="round" stroke-width=".5" points="132.119 53.552 133.357 58.657 134.595 61.343 137.071 68.328 137.566 69 137.814 69 137.938 68.463 137.442 67.657 135.462 64.299 132.614 58.522 132.243 56.776 130.881 53.821 130.634 51"><title>2023-12-12 1.0km</title><desc>10365882163</desc></polyline><polyline fill="none" stroke="#4dd2ff" stroke-linecap="round" stroke-linejoin="round" stroke-width=".5" points="153.638 51 154.923 53.789 156.676 58.225 157.961 60.634 159.83 66.465 160.063 67.986 160.531 69 160.647 68.113 160.414 67.099 157.961 61.521 156.208 58.099 155.741 56.704 155.391 53.789 154.456 51.127"><title>2023-12-11 1.0km</title><desc>10361067591</desc></polyline><polyline fill="none" stroke="#4dd2ff" stroke-linecap="round" stroke-linejoin="round" stroke-width=".5" points="180.361 61.044 182.765 68.348 182.885 68.739 183.366 69 183.486 68.87 183.125 67.957 182.043 65.87 180.841 62.609 177.476 55.826 176.514 51"><title>2023-12-10 1.0km</title><desc>10355395415</desc></polyline><polyline fill="none" stroke="#4dd2ff" stroke-linecap="round" stroke-linejoin="round" stroke-width=".5" points="16.829 72.191 18.902 75.5 19.878 79.603 21.952 85.426 22.683 88.603 23.171 89 23.293 88.868 23.293 88.603 23.049 87.544 20.488 82.382 19.878 80.926 19.512 78.676 18.902 76.956 17.926 75.235 17.804 73.382 16.707 71"><title>2023-12-09 1.0km</title><desc>10350143310</desc></polyline><polyline fill="none" stroke="#4dd2ff" stroke-linecap="round" stroke-linejoin="round" stroke-width=".5" points="40.938 74.493 41.681 77.179 43.29 81.075 45.519 87.522 46.509 89 46.385 87.657 45.643 85.373 43.662 81.881 42.424 78.925 41.062 76.776 40.691 74.627 39.205 71"><title>2023-12-08 1.0km</title><desc>10345303898</desc></polyline><polyline fill="none" stroke="#4dd2ff" stroke-linecap="round" stroke-linejoin="round" stroke-width=".5" points="62.814 71 63.046 71.629 63.51 73.266 63.742 75.531 64.206 77.42 65.83 81.448 66.874 85.098 67.918 87.364 68.15 89 68.382 88.874 68.614 88.622 68.614 88.245 68.034 86.734 66.178 83.587 63.974 77.168 63.394 74.524"><title>2023-12-07 1.0km</title><desc>10340288256</desc></polyline><polyline fill="none" stroke="#4dd2ff" stroke-linecap="round" stroke-linejoin="round" stroke-width=".5" points="85.23 71 85.946 72.683 87.259 78.252 89.168 81.748 90.72 86.022 91.436 88.741 91.794 89 91.913 88.094 91.674 86.928 89.765 82.914 88.452 80.971 87.736 79.547 85.349 71.388"><title>2023-12-06 1.0km</title><desc>10334845031</desc></polyline><polyline fill="none" stroke="#4dd2ff" stroke-linecap="round" stroke-linejoin="round" stroke-width=".5" points="109.77 74.103 110.571 78.2 111.371 81.179 113.316 86.269 114.346 88.628 114.689 89 114.231 86.766 113.087 84.655 112.058 81.676 110.571 78.572 109.884 76.214 108.74 73.731 108.168 71"><title>2023-12-05 1.0km</title><desc>10329306344</desc></polyline><polyline fill="none" stroke="#4dd2ff" stroke-linecap="round" stroke-linejoin="round" stroke-width=".5" points="130.98 72.51 131.792 73.769 132.836 77.42 134.924 82.58 135.968 86.105 136.896 88.119 137.592 89 137.592 88.371 134.576 81.448 133.416 77.545 132.14 74.65 131.212 71"><title>2023-12-04 1.0km</title><desc>10324662812</desc></polyline><polyline fill="none" stroke="#4dd2ff" stroke-linecap="round" stroke-linejoin="round" stroke-width=".5" points="154.017 72.662 155.293 77.508 157.334 82.077 158.738 86.923 159.759 88.862 160.524 89 160.524 88.446 159.631 86.923 158.483 83.6 157.207 81.662 156.313 79.308 154.782 73.769 153.761 71"><title>2023-12-02 1.0km</title><desc>10313350310</desc></polyline><polyline fill="none" stroke="#4dd2ff" stroke-linecap="round" stroke-linejoin="round" stroke-width=".5" points="176.733 71.955 177.989 73.591 179.497 78.773 180.503 83 182.136 87.636 183.142 89 183.267 88.182 183.016 86.545 181.634 83.545 179.497 80.136 178.241 77.545 176.984 71"><title>2023-12-01 1.0km</title><desc>10308709030</desc></polyline><polyline fill="none" stroke="#4dd2ff" stroke-linecap="round" stroke-linejoin="round" stroke-width=".5" points="16.682 91 19.171 99.55 21.659 104.65 23.041 108.4 23.456 109 23.594 108.55 23.041 107.05 20.968 104.2 20.415 102.7 18.341 98.65 17.374 94 16.406 91.3"><title>2023-11-30 1.0km</title><desc>10303537703</desc></polyline><polyline fill="none" stroke="#4dd2ff" stroke-linecap="round" stroke-linejoin="round" stroke-width=".5" points="40.798 94.848 41.599 97.455 41.942 99.566 43.2 102.048 44.573 105.772 45.946 108.752 46.175 109 46.404 108.752 46.175 107.883 45.26 106.269 44.001 102.793 42.171 99.069 41.484 95.097 40.111 92.986 39.311 91"><title>2023-11-29 1.0km</title><desc>10298007687</desc></polyline><polyline fill="none" stroke="#4dd2ff" stroke-linecap="round" stroke-linejoin="round" stroke-width=".5" points="62.611 93.331 63.924 96.698 64.163 99.158 65.834 103.173 66.788 106.799 67.624 108.482 68.459 109 68.817 109 69.056 108.612 68.936 108.094 68.459 107.187 66.55 102.137 64.64 97.734 64.282 95.662 63.447 93.201 62.373 91"><title>2023-11-28 1.0km</title><desc>10292316108</desc></polyline><polyline fill="none" stroke="#4dd2ff" stroke-linecap="round" stroke-linejoin="round" stroke-width=".5" points="88.149 91 89.205 93.866 89.839 96.618 90.685 97.879 91.636 99.713 92.586 102.694 93.432 104.07 93.432 104.758 92.903 105.217 91.213 106.134 90.156 107.051 89.1 107.624 87.515 108.312 84.979 109 84.556 108.885 84.239 108.541 83.711 106.363"><title>2023-11-27 1.0km</title><desc>10287544518</desc></polyline><polyline fill="none" stroke="#4dd2ff" stroke-linecap="round" stroke-linejoin="round" stroke-width=".5" points="109.689 94.902 110.269 96.287 111.661 103.336 113.169 106.986 113.981 108.371 114.561 109 114.677 108.874 114.329 108.245 114.329 107.238 113.401 105.098 112.357 101.573 111.313 99.434 110.617 95.406 108.645 92.259 108.18 91"><title>2023-11-26 1.0km</title><desc>10281488289</desc></polyline><polyline fill="none" stroke="#4dd2ff" stroke-linecap="round" stroke-linejoin="round" stroke-width=".5" points="131.008 91 132.346 94.484 133.55 99.419 134.754 102.177 135.021 103.919 135.69 105.516 137.162 108.274 137.831 109 138.098 109 136.092 104.645 135.824 103.194 134.486 101.306 131.811 94.048 130.473 91.581"><title>2023-11-25 1.0km</title><desc>10275889695</desc></polyline><polyline fill="none" stroke="#4dd2ff" stroke-linecap="round" stroke-linejoin="round" stroke-width=".5" points="153.655 91.168 154.585 95.374 158.926 107.15 160.011 108.832 160.476 109 160.631 108.495 159.081 106.477 157.22 100.925 155.98 98.402 155.205 93.523 154.275 91"><title>2023-11-24 1.0km</title><desc>10271180196</desc></polyline><polyline fill="none" stroke="#4dd2ff" stroke-linecap="round" stroke-linejoin="round" stroke-width=".5" points="177.762 93 178.157 94.143 179.078 99 181.317 105.857 182.37 108.714 182.765 109 183.291 109 183.423 108.714 183.16 107.286 181.712 103.143 177.894 94.857 176.577 91"><title>2023-11-23 1.0km</title><desc>10265414399</desc></polyline><polyline fill="none" stroke="#4dd2ff" stroke-linecap="round" stroke-linejoin="round" stroke-width=".5" points="18.423 115.056 18.54 116.831 19.007 119.62 20.876 124.944 21.46 127.479 22.395 129 23.096 129 22.979 128.239 21.694 124.944 20.643 123.296 19.124 118.606 17.372 113.789 16.904 111"><title>2023-11-21 1.0km</title><desc>10253878272</desc></polyline><polyline fill="none" stroke="#4dd2ff" stroke-linecap="round" stroke-linejoin="round" stroke-width=".5" points="40.92 115.861 41.525 119.803 44.068 126.241 45.158 128.606 45.521 129 45.763 128.869 45.884 128.606 45.4 126.504 43.22 121.774 42.373 119.277 41.041 114.153 40.314 112.839 39.83 111"><title>2023-11-20 1.0km</title><desc>10248671423</desc></polyline><polyline fill="none" stroke="#4dd2ff" stroke-linecap="round" stroke-linejoin="round" stroke-width=".5" points="62.51 112.5 64.269 116.318 64.772 120.273 66.154 123.409 67.536 127.364 68.165 128.318 68.919 129 68.793 127.909 66.657 122.318 65.274 117.273 63.892 114 63.138 111"><title>2023-11-19 1.0km</title><desc>10242265034</desc></polyline><polyline fill="none" stroke="#4dd2ff" stroke-linecap="round" stroke-linejoin="round" stroke-width=".5" points="85.073 127.038 85.859 124.564 86.174 123.967 86.724 123.626 89.397 123.284 91.362 122.858 91.991 122.346 92.384 121.834 92.856 119.701 92.699 119.019 93.013 118.507 92.777 114.583 92.62 114.071 92.541 112.536 92.384 111.597 91.519 111.341 90.812 111.853 90.969 111.597 91.126 111.853 90.104 111.341 90.026 111 89.79 111.171 89.947 111.085 89.397 111.768 89.475 111.682 91.126 112.536 90.733 112.877 90.104 113.133 88.611 113.389 88.532 113.047 88.925 112.877 89.475 112.962 91.126 111.341 93.406 111.427 93.17 111.256 92.856 111.171 92.62 115.265 92.699 116.46 92.935 117.91 93.092 120.384 93.092 121.237 92.856 122.09 92.384 122.602 88.454 123.028 86.645 123.37 85.702 124.052 84.601 125.588 83.972 127.806 83.737 129"><title>2023-11-18 1.0km</title><desc>10236386505</desc></polyline><polyline fill="none" stroke="#4dd2ff" stroke-linecap="round" stroke-linejoin="round" stroke-width=".5" points="107.755 111 110.362 115.5 111.31 118.843 111.666 120.771 112.376 121.929 114.628 128.486 115.102 129 115.102 128.486 114.628 127.843 113.324 123.986 112.613 122.7 112.376 120.514 111.31 117.814 110.125 115.243 110.007 113.829"><title>2023-11-17 1.0km</title><desc>10231268371</desc></polyline><polyline fill="none" stroke="#4dd2ff" stroke-linecap="round" stroke-linejoin="round" stroke-width=".5" points="131.075 111.581 132.814 114.048 133.215 117.387 134.419 120 136.292 126.968 137.496 129 137.363 127.839 136.426 125.952 135.757 124.065 134.687 119.565 132.547 115.065 131.878 113.032 131.476 111"><title>2023-11-16 1.0km</title><desc>10225818993</desc></polyline><polyline fill="none" stroke="#4dd2ff" stroke-linecap="round" stroke-linejoin="round" stroke-width=".5" points="154.021 111.194 154.913 114.677 156.34 118.548 158.302 122.226 159.016 125.129 160.264 127.645 161.513 129 158.302 123 156.875 118.548 152.773 111"><title>2023-11-15 1.0km</title><desc>10219684298</desc></polyline><polyline fill="none" stroke="#4dd2ff" stroke-linecap="round" stroke-linejoin="round" stroke-width=".5" points="176.82 113.165 178.441 115.196 178.69 117.767 180.561 122.233 181.684 126.023 182.806 128.865 183.305 129 183.18 127.376 181.559 125.211 180.935 123.316 179.938 122.098 179.563 120.609 177.693 116.82 177.069 114.113 176.695 111"><title>2023-11-14 1.0km</title><desc>10213806154</desc></polyline><polyline fill="none" stroke="#4dd2ff" stroke-linecap="round" stroke-linejoin="round" stroke-width=".5" points="17.596 133.478 18.558 137.13 21.202 143.913 21.803 146.13 23.005 148.609 23.366 149 22.645 147.696 20.962 143.652 20.841 142.609 19.639 139.739 17.836 136.478 17.115 134.261 16.634 131"><title>2023-11-13 1.0km</title><desc>10208522228</desc></polyline><polyline fill="none" stroke="#4dd2ff" stroke-linecap="round" stroke-linejoin="round" stroke-width=".5" points="40.846 133.045 42.103 136.864 43.611 140 44.491 143.682 45.371 146.273 46.502 148.727 47.004 149 47.256 148.455 45.873 145.727 45.119 142.727 42.354 140.136 40.846 137.955 40.595 135.636 38.459 131"><title>2023-11-12 1.0km</title><desc>10202270880</desc></polyline><polyline fill="none" stroke="#4dd2ff" stroke-linecap="round" stroke-linejoin="round" stroke-width=".5" points="62.991 134.358 65.962 141.075 66.952 144.433 67.943 147.119 68.562 148.328 69.181 149 69.304 148.463 68.19 145.104 66.086 141.881 63.857 136.776 62.991 133.149 62.124 131"><title>2023-11-11 1.0km</title><desc>10196068378</desc></polyline><polyline fill="none" stroke="#4dd2ff" stroke-linecap="round" stroke-linejoin="round" stroke-width=".5" points="86.898 133.684 88.935 139.842 90.827 144.895 91.7 148.211 92.282 149 92.573 148.684 92.136 146.789 89.954 141.895 87.771 137.316 84.861 132.737 84.57 131"><title>2023-11-10 1.0km</title><desc>10191120477</desc></polyline><polyline fill="none" stroke="#4dd2ff" stroke-linecap="round" stroke-linejoin="round" stroke-width=".5" points="107.25 131.55 109.403 133.198 110.669 135.397 111.049 136.221 111.049 137.458 112.442 141.718 112.948 144.191 113.961 146.939 114.214 148.313 114.848 149 115.227 148.863 115.607 148.313 114.214 147.351 111.935 144.053 109.276 136.771 108.643 132.649 108.01 131"><title>2023-11-09 1.0km</title><desc>10185506531</desc></polyline><polyline fill="none" stroke="#4dd2ff" stroke-linecap="round" stroke-linejoin="round" stroke-width=".5" points="130.774 132.445 132.106 135.073 132.591 136.387 134.165 139.803 134.77 142.168 134.649 140.723 134.891 141.642 135.375 145.19 136.465 148.474 136.95 149 137.555 148.737 137.797 148.343 136.465 147.161 135.497 145.584 134.891 143.876 134.044 140.985 132.833 139.277 131.501 136.387 131.138 134.285 131.259 131.657 131.016 131"><title>2023-11-08 1.0km</title><desc>10179505859</desc></polyline><polyline fill="none" stroke="#4dd2ff" stroke-linecap="round" stroke-linejoin="round" stroke-width=".5" points="156.331 140.944 160.391 149 160.623 148.874 160.043 147.49 158.999 145.727 158.303 143.965 156.911 142.455 156.447 141.573 156.099 138.552 155.867 137.671 154.475 135.28 153.663 131"><title>2023-11-06 1.0km</title><desc>10167691585</desc></polyline><polyline fill="none" stroke="#4dd2ff" stroke-linecap="round" stroke-linejoin="round" stroke-width=".5" points="178.27 136.05 179.105 137.604 182.208 144.727 183.521 148.741 183.759 149 183.998 149 183.998 148.612 183.043 146.54 182.208 145.374 182.088 144.727 181.372 143.95 179.344 140.453 176.957 134.367 176.002 131"><title>2023-11-05 1.1km</title><desc>10161301187</desc></polyline><polyline fill="none" stroke="#4dd2ff" stroke-linecap="round" stroke-linejoin="round" stroke-width=".5" points="16.634 151 19.038 156.348 20.12 161.044 21.803 164.304 22.404 166.913 23.005 169 23.366 168.609 23.246 168.217 21.683 165.348 21.563 164.957 20.12 162.739 19.519 160.652 17.957 157.783 17.596 155.304 16.875 152.696"><title>2023-11-04 1.0km</title><desc>10155501797</desc></polyline><polyline fill="none" stroke="#4dd2ff" stroke-linecap="round" stroke-linejoin="round" stroke-width=".5" points="47.686 153.734 46.322 151.911 45.482 151.342 43.802 151 42.227 151.114 40.023 152.139 39.078 153.051 38.238 154.76 38.028 156.127 37.713 160.684 37.923 165.468 38.133 166.152 39.183 167.861 40.443 168.772 42.542 169 44.432 168.203 46.217 166.038 46.742 165.013 47.476 161.709 47.476 159.089 48.001 155.671 47.896 154.418 46.742 153.051 45.797 152.367 43.592 151.342 42.437 151.342 39.918 152.139 38.763 153.165 38.028 154.532 37.818 155.443 38.028 159.203 37.818 160.911"><title>2023-11-03 1.0km</title><desc>10152446508</desc></polyline><polyline fill="none" stroke="#4dd2ff" stroke-linecap="round" stroke-linejoin="round" stroke-width=".5" points="61.989 151 62.973 153.136 63.816 156.949 65.222 159.695 67.331 165.186 67.753 166.102 68.456 168.542 68.877 169 69.44 169 69.44 168.695 68.456 168.237 68.034 167.169 67.05 166.254 66.347 164.271 65.363 162.746 64.238 160.458 62.973 155.729 62.13 153.746"><title>2023-11-02 1.1km</title><desc>10144903556</desc></polyline><polyline fill="none" stroke="#4dd2ff" stroke-linecap="round" stroke-linejoin="round" stroke-width=".5" points="85.506 152.304 85.747 153.739 86.708 155.957 88.391 161.957 91.276 167.957 92.117 169 91.637 167.435 89.834 164.696 88.872 161.174 87.67 159.478 86.227 156.348 85.025 151"><title>2023-11-01 1.0km</title><desc>10138966680</desc></polyline><polyline fill="none" stroke="#4dd2ff" stroke-linecap="round" stroke-linejoin="round" stroke-width=".5" points="108.809 151.271 109.433 153.301 110.431 158.714 112.052 162.233 113.05 165.481 114.671 169 114.796 168.865 113.674 167.241 112.052 163.451 110.68 161.015 108.31 153.842 108.061 151"><title>2023-10-31 1.0km</title><desc>10133123337</desc></polyline><polyline fill="none" stroke="#4dd2ff" stroke-linecap="round" stroke-linejoin="round" stroke-width=".5" points="131.46 153.133 132.074 156.333 132.074 157.533 133.426 159.8 137.112 167.667 137.726 168.867 137.972 169 135.146 163.4 133.917 159.933 132.565 157.133 130.599 151"><title>2023-10-30 1.0km</title><desc>10127985445</desc></polyline><polyline fill="none" stroke="#4dd2ff" stroke-linecap="round" stroke-linejoin="round" stroke-width=".5" points="154.305 153.605 154.851 157.276 155.178 158.461 157.361 163.553 158.452 166.513 160.089 168.763 160.526 169 160.635 168.645 159.653 167.105 158.234 164.026 155.724 159.408 154.742 155.974 153.978 154.434 153.869 152.066 153.651 151"><title>2023-10-28 1.0km</title><desc>10115543824</desc></polyline><polyline fill="none" stroke="#4dd2ff" stroke-linecap="round" stroke-linejoin="round" stroke-width=".5" points="177.665 154.733 178.648 157.933 179.754 160.467 180.737 164.067 182.212 167.533 182.826 168.867 183.441 169 183.563 168.867 183.318 168.067 182.58 166.067 180.123 161.267 178.157 155.933 176.928 153.267 176.437 151"><title>2023-10-27 1.0km</title><desc>10110442644</desc></polyline><polyline fill="none" stroke="#4dd2ff" stroke-linecap="round" stroke-linejoin="round" stroke-width=".5" points="17.561 173.779 19.878 181.588 20.732 183.971 21.586 185.426 22.561 188.206 22.927 188.735 23.659 189 23.781 188.603 23.659 188.074 22.439 186.485 20.61 183.309 18.414 176.824 16.951 174.441 16.219 171"><title>2023-10-26 1.0km</title><desc>10104873905</desc></polyline><polyline fill="none" stroke="#4dd2ff" stroke-linecap="round" stroke-linejoin="round" stroke-width=".5" points="41.956 179.609 44.72 186.522 46.043 188.87 46.523 189 46.403 187.696 43.158 182.087 41.355 177.522 39.792 174.261 39.191 171"><title>2023-10-25 1.0km</title><desc>10098978222</desc></polyline><polyline fill="none" stroke="#4dd2ff" stroke-linecap="round" stroke-linejoin="round" stroke-width=".5" points="62.384 171 62.263 171.92 62.99 174.942 63.959 176.912 64.564 179.277 65.654 182.431 67.954 186.898 68.681 188.737 68.923 189 69.165 188.869 69.044 187.161 67.712 184.664 66.743 183.219 65.533 180.46 65.29 179.015 63.837 176.781 62.99 174.81 62.748 172.445 62.384 171"><title>2023-10-24 1.0km</title><desc>10092835699</desc></polyline><polyline fill="none" stroke="#4dd2ff" stroke-linecap="round" stroke-linejoin="round" stroke-width=".5" points="86.722 174.108 88.512 180.453 89.347 182.007 90.302 185.892 91.734 188.482 92.331 189 91.734 188.353 90.899 186.281 88.75 183.691 88.273 182.784 87.796 179.806 86.364 176.957 85.409 173.978 84.812 171"><title>2023-10-23 1.0km</title><desc>10087395010</desc></polyline><polyline fill="none" stroke="#4dd2ff" stroke-linecap="round" stroke-linejoin="round" stroke-width=".5" points="105.601 171.086 105.919 171 108.187 171.173 109.181 171.432 109.42 171.561 109.937 171.95 110.295 172.381 111.09 173.849 111.488 175.489 112.005 176.353 112.244 177.043 112.801 178.295 113.199 179.59 113.795 180.626 114.074 180.928 114.432 181.532 114.631 182.827 114.75 183.173 115.068 183.648 115.148 184.381 115.267 184.684 117.018 188.827 117.256 189 117.256 188.784 116.898 188.439 116.501 187.489 116.103 186.669 115.029 183.345"><title>2023-10-22 1.5km</title><desc>10080655811</desc></polyline><polyline fill="none" stroke="#4dd2ff" stroke-linecap="round" stroke-linejoin="round" stroke-width=".5" points="131.423 171 132.054 171.457 130.918 171.274 132.686 173.558 132.854 174.107 132.728 174.563 132.139 174.883 131.97 175.203 132.012 175.751 132.349 177.076 132.728 178.036 133.149 179.498 133.907 180.822 134.033 181.325 134.496 182.147 134.791 182.513 134.833 182.741 135.128 183.015 135.338 183.472 135.633 184.34 135.928 184.934 135.886 186.122 136.433 187.173 136.601 187.675 136.896 188.223 137.401 188.863 137.654 189 136.686 187.629 136.475 186.899 136.054 185.985 135.886 185.391 135.338 184.614 134.875 183.289"><title>2023-10-20 1.4km</title><desc>10069668027</desc></polyline><polyline fill="none" stroke="#4dd2ff" stroke-linecap="round" stroke-linejoin="round" stroke-width=".5" points="153.521 171 153.607 171.698 154.292 173.372 154.464 174.395 155.878 177.837 156.007 178.302 156.093 179 156.264 179.465 157.293 180.907 157.85 182.023 158.193 183.14 158.493 183.744 158.665 184.674 158.879 185.14 159.436 186.581 159.522 187.14 160.336 188.814 160.551 189 160.679 189 160.765 188.953 160.722 188.907 159.865 187.837 159.479 186.535 158.665 185.047 158.536 184.442 158.45 183.419"><title>2023-10-19 1.3km</title><desc>10064004415</desc></polyline><polyline fill="none" stroke="#4dd2ff" stroke-linecap="round" stroke-linejoin="round" stroke-width=".5" points="175.941 171 177.706 173.298 177.588 174.957 177.824 176.617 178.647 179.553 179.824 181.468 181 184.787 183.353 188.617 183.706 189 184.059 188.872 182.529 187.34 179.706 181.851 179 179.426 177 175.213"><title>2023-10-18 1.0km</title><desc>10058081424</desc></polyline><polyline fill="none" stroke="#4dd2ff" stroke-linecap="round" stroke-linejoin="round" stroke-width=".5" points="16.858 192.091 17.864 197.955 20.503 204.909 22.262 208.591 23.016 209 23.393 209 23.644 208.455 22.765 207.364 21.634 205.591 20.126 202.318 19.497 200.409 16.858 195.091 16.607 194.273 16.356 191"><title>2023-10-17 1.0km</title><desc>10051702317</desc></polyline><polyline fill="none" stroke="#4dd2ff" stroke-linecap="round" stroke-linejoin="round" stroke-width=".5" points="38.838 191.415 40.114 193.631 42.028 198.615 43.049 200.554 44.197 204.154 45.601 207.754 46.111 208.723 46.749 209 46.877 208.862 46.749 208.446 45.345 206.369 43.431 201.662 42.028 198.754 40.879 193.354 40.241 191"><title>2023-10-16 1.0km</title><desc>10046279660</desc></polyline><polyline fill="none" stroke="#4dd2ff" stroke-linecap="round" stroke-linejoin="round" stroke-width=".5" points="62.028 191 62.555 192.143 63.081 194.714 64.266 198.714 65.846 201.143 67.689 208 68.347 208.714 69.269 209 69.401 208.714 69.269 207.857 67.557 205.429 66.636 202.571 65.583 200.857 63.081 195 62.16 191"><title>2023-10-15 1.0km</title><desc>10039610121</desc></polyline><polyline fill="none" stroke="#4dd2ff" stroke-linecap="round" stroke-linejoin="round" stroke-width=".5" points="84.826 192.306 85.227 196.516 86.297 199.565 87.635 201.452 88.438 204.065 90.712 208.129 91.247 208.71 91.916 209 92.317 208.71 92.317 208.274 89.642 206.097 87.903 202.903 87.234 200.145 85.628 196.516 84.826 193.468 84.959 191.581 84.826 191"><title>2023-10-14 1.0km</title><desc>10033377496</desc></polyline><polyline fill="none" stroke="#4dd2ff" stroke-linecap="round" stroke-linejoin="round" stroke-width=".5" points="107.347 191.286 109.717 194.143 109.98 196.286 112.218 203.143 114.325 208.143 114.983 209 115.51 209 115.51 208.571 115.378 208.143 114.193 207.286 112.877 204.857 111.429 200.286 108.795 194.429 108.401 192.429 107.742 191"><title>2023-10-13 1.0km</title><desc>10028006924</desc></polyline><polyline fill="none" stroke="#4dd2ff" stroke-linecap="round" stroke-linejoin="round" stroke-width=".5" points="130.424 191 131.69 192.649 132.45 194.023 132.576 195.809 132.45 197.733 133.843 200.618 135.489 205.015 137.135 208.038 137.515 208.588 138.148 209 138.148 208.313 136.755 206.527 135.489 204.328 133.843 199.794 132.829 198.008 132.323 196.496"><title>2023-10-12 1.0km</title><desc>10021974100</desc></polyline><polyline fill="none" stroke="#4dd2ff" stroke-linecap="round" stroke-linejoin="round" stroke-width=".5" points="155.038 193.552 155.534 196.239 155.41 197.313 156.524 200.94 157.39 202.552 158.257 205.507 159.495 208.463 159.743 208.731 160.362 209 160.238 208.463 158.876 204.97 157.39 202.418 155.41 197.851 154.915 196.104 154.667 193.552 153.924 191"><title>2023-10-10 1.0km</title><desc>10009069592</desc></polyline><polyline fill="none" stroke="#4dd2ff" stroke-linecap="round" stroke-linejoin="round" stroke-width=".5" points="176.951 193.25 177.804 195.632 178.658 198.809 180.488 202.779 181.952 207.809 182.805 209 183.049 208.603 183.171 207.147 182.317 204.632 180.488 201.456 178.414 195.632 177.804 192.985 176.829 191"><title>2023-10-09 1.0km</title><desc>10003389142</desc></polyline><polyline fill="none" stroke="#4dd2ff" stroke-linecap="round" stroke-linejoin="round" stroke-width=".5" points="16.335 211 17.235 212.116 18.135 214.209 18.65 218.395 20.579 222.581 22.25 227.326 23.022 228.721 23.665 229 23.665 227.884 21.222 223.977 18.007 216.163 16.721 211.14"><title>2023-10-08 1.0km</title><desc>9996447828</desc></polyline><polyline fill="none" stroke="#4dd2ff" stroke-linecap="round" stroke-linejoin="round" stroke-width=".5" points="40.547 214.6 41.139 216.786 42.916 221.543 43.509 223.6 45.405 228.357 45.997 229 46.116 228.486 46.116 227.971 43.864 223.986 42.798 221.671 40.902 216.014 40.31 213.057 39.599 211"><title>2023-10-07 1.0km</title><desc>9989974159</desc></polyline><polyline fill="none" stroke="#4dd2ff" stroke-linecap="round" stroke-linejoin="round" stroke-width=".5" points="64.244 216.362 65.185 219.426 65.891 220.957 67.303 226.957 67.655 228.106 68.361 229 68.95 229 69.185 228.489 69.067 228.106 67.655 226.064 66.244 223 65.773 220.957 63.302 214.957 62.95 212.787 62.244 211"><title>2023-10-06 1.0km</title><desc>9984428862</desc></polyline><polyline fill="none" stroke="#4dd2ff" stroke-linecap="round" stroke-linejoin="round" stroke-width=".5" points="84.696 211 86.736 216.459 88.096 221.033 90.407 226.787 91.359 228.705 91.767 229 92.311 229 92.447 228.705 92.039 227.967 90.407 225.607 89.455 223.689 87.824 219.41 87.144 217.197 85.24 213.656 85.24 212.328"><title>2023-10-04 1.0km</title><desc>9971682885</desc></polyline><polyline fill="none" stroke="#4dd2ff" stroke-linecap="round" stroke-linejoin="round" stroke-width=".5" points="108.704 213.102 109.31 215.204 109.915 216.65 110.399 218.883 112.7 223.482 112.821 225.058 113.548 228.212 113.79 228.606 114.516 229 114.516 227.686 112.942 224.796 111.852 222.299 111.247 221.117 110.642 219.409 109.431 216.912 108.946 214.942 108.704 212.971 108.341 211"><title>2023-10-03 1.0km</title><desc>9965060084</desc></polyline><polyline fill="none" stroke="#4dd2ff" stroke-linecap="round" stroke-linejoin="round" stroke-width=".5" points="130.995 211.744 132.641 217.099 132.915 219.479 133.874 220.669 134.56 222.455 135.794 227.066 136.753 228.554 137.439 229 137.576 228.851 137.165 227.661 135.657 224.835 133.189 218.884 131.681 214.421 131.407 211"><title>2023-10-02 1.0km</title><desc>9958643020</desc></polyline><polyline fill="none" stroke="#4dd2ff" stroke-linecap="round" stroke-linejoin="round" stroke-width=".5" points="154.29 214.168 154.555 215.464 157.475 222.376 158.934 226.84 159.731 228.424 160.527 229 160.66 228.856 160.527 228.28 157.873 224.248 155.351 218.056 154.157 214.312 153.626 211"><title>2023-10-01 1.0km</title><desc>9952075403</desc></polyline><polyline fill="none" stroke="#4dd2ff" stroke-linecap="round" stroke-linejoin="round" stroke-width=".5" points="177.416 213.609 178.497 215.826 178.978 218.044 179.339 220.13 181.142 225.217 182.705 228.478 183.426 229 183.666 228.609 181.262 224.957 180.18 222.478 179.82 221.174 178.137 217.522 177.175 213.478 176.334 211"><title>2023-09-30 1.0km</title><desc>9945549317</desc></polyline><polyline fill="none" stroke="#4dd2ff" stroke-linecap="round" stroke-linejoin="round" stroke-width=".5" points="17.213 231 18.408 233.016 18.806 234.6 19.867 237.192 20.398 241.08 20.796 242.232 22.389 246.12 22.787 248.568 23.052 248.856 23.45 249 23.583 248.712 21.194 244.392 19.602 240.648 19.071 238.488 17.213 234.168 16.417 231.576"><title>2023-09-28 1.0km</title><desc>9933629332</desc></polyline><polyline fill="none" stroke="#4dd2ff" stroke-linecap="round" stroke-linejoin="round" stroke-width=".5" points="39.338 233.045 40.344 236.591 42.229 239.182 43.485 243.818 45.245 246.955 45.748 248.727 46.25 249 46.502 248.591 46.25 248.045 45.245 246.682 42.354 240.818 40.846 236.727 39.213 231"><title>2023-09-27 1.0km</title><desc>9927137811</desc></polyline><polyline fill="none" stroke="#4dd2ff" stroke-linecap="round" stroke-linejoin="round" stroke-width=".5" points="67.21 231 66.851 232.731 66.492 233.726 66.213 234.938 64.578 238.356 63.74 239.784 63.581 240.389 63.661 240.865 63.86 241.558 64.458 243.029 64.658 243.418 64.897 244.111 65.694 245.106 66.053 245.885 66.452 246.49 66.771 247.356 67.249 248.005 67.848 249"><title>2023-09-26 1.0km</title><desc>9920397094</desc></polyline><polyline fill="none" stroke="#4dd2ff" stroke-linecap="round" stroke-linejoin="round" stroke-width=".5" points="88.487 231 87.703 233.615 86.918 235.014 86.19 235.926 85.797 236.655 85.629 237.385 85.685 238.297 85.966 239.027 86.638 240.061 86.918 241.095 87.479 242.432 88.543 243.77 90.337 247.419 91.514 249"><title>2023-09-25 1.0km</title><desc>9914573673</desc></polyline><polyline fill="none" stroke="#4dd2ff" stroke-linecap="round" stroke-linejoin="round" stroke-width=".5" points="112.756 231 112.313 231.672 112.225 232.008 112.313 232.44 112.358 232.872 111.473 234.504 111.252 235.608 110.942 236.424 109.084 239.688 109.04 240.072 109.217 240.84 109.703 241.608 109.969 242.28 110.367 242.952 110.588 243.624 111.163 244.536 111.606 245.448 112.092 245.976 112.225 246.456 112.534 246.84 113.198 247.992 113.685 248.52 113.817 249"><title>2023-09-24 1.0km</title><desc>9907510217</desc></polyline><polyline fill="none" stroke="#4dd2ff" stroke-linecap="round" stroke-linejoin="round" stroke-width=".5" points="134.957 231 134.581 231.583 134.313 232.165 134.152 232.922 134.098 233.913 133.185 235.136 132.648 236.534 132.165 237.233 131.843 238.165 131.789 239.155 132.917 242.01 133.346 242.884 134.742 245.097 135.333 246.553 136.084 247.485 136.514 248.243 136.782 249"><title>2023-09-23 1.0km</title><desc>9901004991</desc></polyline><polyline fill="none" stroke="#4dd2ff" stroke-linecap="round" stroke-linejoin="round" stroke-width=".5" points="157.834 231 157.476 231.667 157.117 232.833 156.298 234.556 155.479 235.722 154.762 237.667 154.711 238.722 154.813 239.333 155.837 241.778 155.991 242.5 156.196 242.889 156.912 243.778 157.476 244.889 157.936 246.056 158.704 247.167 159.575 249"><title>2023-09-22 1.0km</title><desc>9895405405</desc></polyline><polyline fill="none" stroke="#4dd2ff" stroke-linecap="round" stroke-linejoin="round" stroke-width=".5" points="180.954 231 180.807 231.531 180.514 231.85 179.878 233.018 179.633 233.867 178.899 235.726 178.116 237.319 177.627 238.487 177.48 239.071 177.48 239.443 177.627 239.974 177.92 240.504 178.556 242.15 179.193 243.319 179.535 244.168 180.171 245.23 180.563 245.708 180.856 246.558 181.639 247.938 182.52 249"><title>2023-09-21 1.0km</title><desc>9889267953</desc></polyline><polyline fill="none" stroke="#4dd2ff" stroke-linecap="round" stroke-linejoin="round" stroke-width=".5" points="21.833 251 21.19 252.927 20.812 254.444 20.208 255.715 19.49 257.847 18.243 260.185 17.903 261.456 17.941 261.743 18.167 262.358 18.659 263.424 18.961 264.326 19.717 265.392 20.17 266.253 20.435 266.868 20.737 267.401 21.228 267.77 21.833 268.672 21.87 268.836 22.097 269"><title>2023-09-20 1.0km</title><desc>9882714971</desc></polyline><polyline fill="none" stroke="#4dd2ff" stroke-linecap="round" stroke-linejoin="round" stroke-width=".5" points="44.35 251 43.966 251.972 43.241 254.1 43.198 254.794 42.942 255.165 42.644 255.859 42.473 256.506 42.132 257.386 41.151 258.959 40.896 259.884 40.81 260.717 40.896 261.55 41.151 262.476 41.45 263.123 42.388 264.743 42.857 265.391 43.284 266.548 43.71 267.288 44.136 267.889 44.606 268.352 44.904 269"><title>2023-09-19 1.0km</title><desc>9876194288</desc></polyline><polyline fill="none" stroke="#4dd2ff" stroke-linecap="round" stroke-linejoin="round" stroke-width=".5" points="65.582 251 65.264 251.518 64.734 252.553 64.575 253.243 63.621 254.911 62.879 256.463 62.72 257.038 62.773 257.671 63.091 258.476 63.568 259.339 63.992 260.546 64.575 261.812 65.211 262.962 65.794 263.709 66.483 264.859 66.907 266.182 67.649 267.332 68.02 268.367 68.709 269"><title>2023-09-18 1.0km</title><desc>9870505463</desc></polyline><polyline fill="none" stroke="#4dd2ff" stroke-linecap="round" stroke-linejoin="round" stroke-width=".5" points="88.752 251 88.494 251.505 88.132 253.187 87.667 253.972 87.46 254.589 86.324 256.439 85.91 257.449 85.652 258.346 85.858 258.963 86.995 261.43 87.564 262.327 87.977 263.28 88.649 264.178 89.011 264.794 89.476 266.252 91.491 269"><title>2023-09-16 1.0km</title><desc>9856514700</desc></polyline><polyline fill="none" stroke="#4dd2ff" stroke-linecap="round" stroke-linejoin="round" stroke-width=".5" points="111.18 251 110.627 252.68 109.908 253.82 108.415 256.7 108.36 257.36 108.415 258.14 108.747 258.92 109.3 259.76 109.797 260.9 110.682 262.4 111.788 264.5 111.899 265.28 112.286 265.58 112.728 266.18 113.447 267.38 114.221 268.04 114.387 268.46 114.497 269"><title>2023-09-15 1.0km</title><desc>9850671982</desc></polyline><polyline fill="none" stroke="#4dd2ff" stroke-linecap="round" stroke-linejoin="round" stroke-width=".5" points="134.743 251 133.828 253.421 132.799 254.91 132.341 255.717 131.654 257.455 131.483 258.076 131.483 258.572 131.654 259.193 132.341 261.055 132.97 262.297 134.515 264.966 135.144 266.145 135.258 266.828 135.716 267.262 136.459 268.441 137.089 269"><title>2023-09-14 1.0km</title><desc>9844236351</desc></polyline><polyline fill="none" stroke="#4dd2ff" stroke-linecap="round" stroke-linejoin="round" stroke-width=".5" points="154.282 251 154.611 251.268 154.735 251.536 154.817 252.117 155.064 252.608 155.229 253.993 155.229 254.663 155.147 255.02 155.229 255.467 155.435 256.003 155.352 256.449 155.393 256.673 155.805 257.432 156.176 258.548 156.505 259.174 156.916 259.754 157.369 260.156 157.493 260.424 157.616 261.005 157.946 261.586 158.316 262.658 158.81 263.596 159.057 264.4 159.18 265.07 159.427 265.605 159.88 267.079 160.498 268.241 160.539 268.419 160.498 268.553 160.004 269 160.251 268.821 160.374 268.553 160.456 268.33 160.415 268.017 160.168 267.705 159.427 266.097 159.057 264.891 158.275 263.149 157.904 261.452 157.699 260.96 156.916 259.933 156.134 258.459 155.764 257.253 155.64 256.449 155.311 255.601 154.653 254.171 154.488 253.501 153.912 252.429 153.788 251.849 153.747 251.134"><title>2023-09-13 1.0km</title><desc>9837636972</desc></polyline></svg>