<svg xmlns="http://www.w3.org/2000/svg" xmlns:ev="http://www.w3.org/2001/xml-events" xmlns:xlink="http://www.w3.org/1999/xlink" width="200mm" height="300mm" baseProfile="full" version="1.1" viewBox="0 0 200 300"><rect width="200" height="300" x="0" y="0" fill="#222"/><text fill="#FFF" style="font-size:12px;font-family:Arial;font-weight:700" x="10" y="20">Over 1km Runs</text><text fill="#FFF" style="font-size:4px;font-family:Arial" x="10" y="280">ATHLETE</text><text fill="#FFF" style="font-size:9px;font-family:Arial" x="10" y="290">Jiakai</text><text fill="#FFF" style="font-size:4px;font-family:Arial" x="120" y="280">STATISTICS</text><text fill="#FFF" style="font-size:3px;font-family:Arial" x="120" y="285">Number: 107</text><text fill="#FFF" style="font-size:3px;font-family:Arial" x="120" y="290">Weekly: 5.3</text><text fill="#FFF" style="font-size:3px;font-family:Arial" x="141" y="285">Total: 110.6 km</text><text fill="#FFF" style="font-size:3px;font-family:Arial" x="141" y="290">Avg: 1.0 km</text><text fill="#FFF" style="font-size:3px;font-family:Arial" x="167" y="285">Min: 1.0 km</text><text fill="#FFF" style="font-size:3px;font-family:Arial" x="167" y="290">Max: 1.5 km</text><polyline fill="none" stroke="#4dd2ff" stroke-linecap="round" stroke-linejoin="round" stroke-width=".5" points="11.194 34.645 11 35.38 11.194 36.64 12.452 40.42 12.742 41.155 13.226 41.785 13.903 43.57 14.774 44.41 15.452 44.83 18.161 45.355 19.323 45.145 21.065 45.145 23.581 44.41 26.774 43.045 27.645 42.415 28.806 41.89 29 41.575 28.613 39.475"><title>2024-03-08 1.0km</title><desc>10912839308</desc></polyline><polyline fill="none" stroke="#4dd2ff" stroke-linecap="round" stroke-linejoin="round" stroke-width=".5" points="31 33.729 31.947 35.58 35.642 45.448 36.211 46.065 38.011 46.271 40.947 45.757 43.789 44.934 47.958 42.981 48.716 42.159 49 41.234 48.905 40.822"><title>2024-03-07 1.0km</title><desc>10906173208</desc></polyline><polyline fill="none" stroke="#4dd2ff" stroke-linecap="round" stroke-linejoin="round" stroke-width=".5" points="51 33.629 51.289 36.762 52.059 39.164 54.754 45.222 55.043 45.745 55.813 46.162 56.872 46.371 57.642 46.371 58.604 46.058 59.952 45.954 62.262 45.536 66.69 43.76 68.326 42.82 69 42.193 69 41.671"><title>2024-03-06 1.0km</title><desc>10898894581</desc></polyline><polyline fill="none" stroke="#4dd2ff" stroke-linecap="round" stroke-linejoin="round" stroke-width=".5" points="71 33.66 71.094 33.967 71.471 35.194 72.414 39.898 72.979 40.92 73.921 43.579 75.147 45.215 75.524 45.931 76.183 46.238 77.597 46.34 81.649 46.033 83.628 45.215 84.571 44.704 87.304 43.784 87.963 43.068 88.623 42.863 89 42.352 88.529 40.92"><title>2024-03-05 1.0km</title><desc>10891326638</desc></polyline><polyline fill="none" stroke="#4dd2ff" stroke-linecap="round" stroke-linejoin="round" stroke-width=".5" points="104.993 47.378 107.818 46.095 108.869 45.168 109 44.598 108.54 43.172 108.015 41.818 106.964 40.321 106.438 39.822 104.861 37.256 103.088 34.903 103.219 34.262 103.088 33.977 102.234 32.622 99.343 32.836 98.358 33.192 96.65 33.406 94.81 34.19 93.562 35.046 92.38 35.331 91.788 35.759 91.328 35.83 91.131 36.044 91 36.471 91.197 36.828 91.263 37.612 91.591 38.681 91.46 39.964 91.854 40.891 91.788 42.174"><title>2024-03-04 1.0km</title><desc>10884866628</desc></polyline><polyline fill="none" stroke="#4dd2ff" stroke-linecap="round" stroke-linejoin="round" stroke-width=".5" points="111 33.371 111.187 34.788 111.653 36.306 111.653 36.913 112.119 38.128 112.585 39.949 113.798 42.884 115.57 45.617 116.596 46.426 117.715 46.629 120.42 46.325 124.15 45.515 125.269 44.706 126.855 43.997 129 42.682"><title>2024-03-03 1.0km</title><desc>10877188327</desc></polyline><polyline fill="none" stroke="#4dd2ff" stroke-linecap="round" stroke-linejoin="round" stroke-width=".5" points="131 45.899 132.45 47.21 133.658 47.734 134.262 47.734 136.799 47.472 141.872 46.161 146.705 44.195 148.758 42.622 149 42.36 148.758 40.918 148.034 39.082 144.047 32.266"><title>2024-03-02 1.0km</title><desc>10870189784</desc></polyline><polyline fill="none" stroke="#4dd2ff" stroke-linecap="round" stroke-linejoin="round" stroke-width=".5" points="159.947 31 160.479 32.269 160.691 33.077 160.798 34.923 164.2 43 164.945 45.192 164.945 45.538 164.413 46 162.712 46.923 160.266 47.5 157.501 48.654 156.012 49 155.587 48.769 155.055 46.692"><title>2024-01-19 1.0km</title><desc>10585384707</desc></polyline><polyline fill="none" stroke="#4dd2ff" stroke-linecap="round" stroke-linejoin="round" stroke-width=".5" points="176.752 33.266 176.868 35.154 177.1 36.035 179.304 39.937 180.348 42.329 180.928 44.343 181.972 46.357 182.088 48.245 182.784 48.874 183.132 49 183.596 48.874 183.48 48.371 182.784 47.238 179.42 39.559 177.332 35.28 176.404 31"><title>2024-01-17 1.0km</title><desc>10572816563</desc></polyline><polyline fill="none" stroke="#4dd2ff" stroke-linecap="round" stroke-linejoin="round" stroke-width=".5" points="16.63 51 17.667 55.078 19.87 62.25 21.426 65.203 22.333 68.016 22.981 68.859 23.37 69 23.37 68.438 20.648 62.672 18.186 56.344 16.63 53.25"><title>2024-01-16 1.0km</title><desc>10566280205</desc></polyline><polyline fill="none" stroke="#4dd2ff" stroke-linecap="round" stroke-linejoin="round" stroke-width=".5" points="36.383 51.406 38.254 55.331 39.751 60.474 41.497 63.992 42.993 68.323 43.368 69 43.617 69 39.875 61.286 39.002 58.579 38.379 56.143 37.506 54.383 36.632 51"><title>2024-01-09 1.0km</title><desc>10520988068</desc></polyline><polyline fill="none" stroke="#4dd2ff" stroke-linecap="round" stroke-linejoin="round" stroke-width=".5" points="56.757 52.489 57.381 55.06 58.628 57.767 60.873 64.669 62.619 68.594 62.993 69 63.243 68.729 62.869 67.241 62.245 66.293 60.374 61.421 58.628 57.767 57.131 51"><title>2024-01-07 1.0km</title><desc>10508221625</desc></polyline><polyline fill="none" stroke="#4dd2ff" stroke-linecap="round" stroke-linejoin="round" stroke-width=".5" points="78.587 56.333 78.833 57.667 79.939 60.467 80.922 63.8 82.888 68.6 83.379 69 83.379 68.067 82.273 66.2 81.659 64.2 79.201 59 78.341 56.733 77.727 55.667 76.621 51"><title>2024-01-06 1.0km</title><desc>10501510624</desc></polyline><polyline fill="none" stroke="#4dd2ff" stroke-linecap="round" stroke-linejoin="round" stroke-width=".5" points="97.622 54.273 98.55 56.538 99.246 59.434 100.406 63.21 101.682 65.979 102.494 67.993 102.958 68.748 103.422 69 103.306 68.119 102.726 66.734 98.898 59.434 98.202 57.294 97.97 55.28 97.158 53.14 96.578 51"><title>2024-01-05 1.0km</title><desc>10495609202</desc></polyline><polyline fill="none" stroke="#4dd2ff" stroke-linecap="round" stroke-linejoin="round" stroke-width=".5" points="116.207 51 116.978 52.814 117.621 54.767 118.521 56.581 120.193 61.326 122.25 66.07 123.022 68.581 123.536 69 123.793 68.302 123.665 67.326 120.579 61.047 119.55 57.419 118.521 51.558"><title>2024-01-04 1.0km</title><desc>10489071805</desc></polyline><polyline fill="none" stroke="#4dd2ff" stroke-linecap="round" stroke-linejoin="round" stroke-width=".5" points="137.5 54.309 139.085 58.676 141.037 63.044 142.013 66.75 142.866 69 142.988 69 142.988 68.074 142.378 65.824 141.159 63.044 140.183 60.265 138.597 57.088 137.622 54.176 137.012 52.324 137.378 51"><title>2024-01-03 1.0km</title><desc>10482519748</desc></polyline><polyline fill="none" stroke="#4dd2ff" stroke-linecap="round" stroke-linejoin="round" stroke-width=".5" points="156.367 51.298 159.52 60.521 162.81 68.405 163.496 69 163.633 68.405 163.222 67.364 159.794 60.818 158.561 57.545 156.778 51"><title>2024-01-01 1.0km</title><desc>10470902913</desc></polyline><polyline fill="none" stroke="#4dd2ff" stroke-linecap="round" stroke-linejoin="round" stroke-width=".5" points="187.617 55.408 187.391 55.776 185.021 57.49 184.006 58.592 183.329 59.816 182.877 60.429 182.539 60.551 181.072 60.551 179.718 61.041 177.912 60.918 177.01 60.551 176.446 59.694 176.107 58.959 175.994 57.245 175.656 56.51 174.302 56.51 173.173 56.878 173.06 57 173.512 57.245 173.737 57 172.947 57 172.722 56.755 172.496 55.898 172.383 54.429 172.947 54.551 173.399 55.531 174.414 56.633 175.204 56.633 175.881 56.143 176.446 56.265 176.558 56.02 175.543 53.082 175.317 52.959 174.076 52.837 172.835 52.959 173.625 52.959 172.496 51.735 172.383 51 172.722 51.49 173.06 53.082 173.399 53.816 173.737 55.408 173.06 59.571 173.85 63.367 174.527 64.469 174.64 66.306 175.656 69"><title>2023-12-31 1.5km</title><desc>10466792666</desc></polyline><polyline fill="none" stroke="#4dd2ff" stroke-linecap="round" stroke-linejoin="round" stroke-width=".5" points="17.613 75.273 18.926 79.935 20.716 83.691 22.267 88.094 22.745 89 22.984 89 23.103 87.964 22.626 86.54 20.477 82.137 20.477 80.971 18.926 77.604 18.687 75.014 18.21 73.46 16.897 71"><title>2023-12-30 1.0km</title><desc>10458865202</desc></polyline><polyline fill="none" stroke="#4dd2ff" stroke-linecap="round" stroke-linejoin="round" stroke-width=".5" points="40.979 71 38.712 71.224 37.167 72.23 36.033 73.348 35.518 74.689 35.106 79.944 35.621 85.199 35.827 85.981 36.136 86.652 37.785 88.441 39.639 89 41.082 88.776 42.833 87.658 43.864 86.764 44.894 83.745 44.791 81.398 44.482 79.385 44.276 74.466 43.967 73.236 43.348 72.453 42.627 71.894 40.979 71.559 38.712 71.671 37.064 72.565 36.239 73.571 35.621 75.137 35.621 75.919 35.93 77.82 35.724 79.385"><title>2023-12-29 1.0km</title><desc>10454615358</desc></polyline><polyline fill="none" stroke="#4dd2ff" stroke-linecap="round" stroke-linejoin="round" stroke-width=".5" points="57.487 72.909 59.246 79.182 62.011 87.636 62.89 89 63.016 89 63.016 87.636 61.131 81.909 59.623 78.227 58.618 76.318 56.984 71"><title>2023-12-27 1.0km</title><desc>10441997651</desc></polyline><polyline fill="none" stroke="#4dd2ff" stroke-linecap="round" stroke-linejoin="round" stroke-width=".5" points="76.607 73.318 78.618 77.273 79.623 81.364 81.005 83.955 82.639 88.182 83.142 89 83.393 88.864 82.513 86.273 81.257 84.364 77.235 74.818 76.984 72.227 76.607 71"><title>2023-12-17 1.0km</title><desc>10391591057</desc></polyline><polyline fill="none" stroke="#4dd2ff" stroke-linecap="round" stroke-linejoin="round" stroke-width=".5" points="97.08 74.169 98.481 77.845 100.818 82.408 102.92 88.493 103.388 89 103.505 88.873 103.505 88.366 102.92 86.718 99.766 80.507 98.365 76.704 97.313 72.394 96.495 71"><title>2023-12-16 1.0km</title><desc>10386207035</desc></polyline><polyline fill="none" stroke="#4dd2ff" stroke-linecap="round" stroke-linejoin="round" stroke-width=".5" points="117.568 74.383 118.067 76.684 119.813 81.962 120.811 83.586 122.183 88.053 122.557 89 122.806 89 122.806 87.647 120.935 81.962 118.316 77.902 118.191 76.278 117.443 74.383 117.693 73.165 117.194 71"><title>2023-12-14 1.0km</title><desc>10376526598</desc></polyline><polyline fill="none" stroke="#4dd2ff" stroke-linecap="round" stroke-linejoin="round" stroke-width=".5" points="143.864 72.565 142.936 71.783 141.391 71.112 139.948 71 138.506 71.335 136.652 72.342 135.827 73.46 135.209 75.36 135.209 79.609 135.415 80.95 135.827 82.627 135.518 84.64 135.621 85.422 135.724 85.87 136.755 87.658 138.403 88.888 138.918 89 139.948 89 140.979 89 142.833 88.329 143.864 87.323 144.482 86.205 144.688 83.745 144.791 82.068 144.482 80.056 144.688 77.373 144.585 75.025 144.482 74.242 143.761 72.677 143.451 72.342 142.318 71.559 140.052 71.335 138.609 71.559 137.785 71.894 136.239 73.571 135.621 75.919 135.827 77.484"><title>2023-12-13 1.0km</title><desc>10373769329</desc></polyline><polyline fill="none" stroke="#4dd2ff" stroke-linecap="round" stroke-linejoin="round" stroke-width=".5" points="157.834 73.552 159.072 78.657 160.309 81.343 162.785 88.328 163.281 89 163.528 89 163.652 88.463 163.157 87.657 161.176 84.299 158.329 78.522 157.957 76.776 156.596 73.821 156.348 71"><title>2023-12-12 1.0km</title><desc>10365882163</desc></polyline><polyline fill="none" stroke="#4dd2ff" stroke-linecap="round" stroke-linejoin="round" stroke-width=".5" points="176.495 71 177.78 73.789 179.533 78.225 180.818 80.634 182.687 86.465 182.92 87.986 183.388 89 183.505 88.113 183.271 87.099 180.818 81.521 179.065 78.099 178.598 76.704 178.248 73.789 177.313 71.127"><title>2023-12-11 1.0km</title><desc>10361067591</desc></polyline><polyline fill="none" stroke="#4dd2ff" stroke-linecap="round" stroke-linejoin="round" stroke-width=".5" points="20.361 101.044 22.765 108.348 22.885 108.739 23.366 109 23.486 108.87 23.125 107.957 22.043 105.87 20.841 102.609 17.476 95.826 16.514 91"><title>2023-12-10 1.0km</title><desc>10355395415</desc></polyline><polyline fill="none" stroke="#4dd2ff" stroke-linecap="round" stroke-linejoin="round" stroke-width=".5" points="36.829 92.191 38.902 95.5 39.878 99.603 41.952 105.426 42.683 108.603 43.171 109 43.293 108.868 43.293 108.603 43.049 107.544 40.488 102.382 39.878 100.926 39.512 98.676 38.902 96.956 37.926 95.235 37.804 93.382 36.707 91"><title>2023-12-09 1.0km</title><desc>10350143310</desc></polyline><polyline fill="none" stroke="#4dd2ff" stroke-linecap="round" stroke-linejoin="round" stroke-width=".5" points="58.081 94.493 58.824 97.179 60.433 101.075 62.662 107.522 63.652 109 63.528 107.657 62.785 105.373 60.805 101.881 59.567 98.925 58.205 96.776 57.834 94.627 56.348 91"><title>2023-12-08 1.0km</title><desc>10345303898</desc></polyline><polyline fill="none" stroke="#4dd2ff" stroke-linecap="round" stroke-linejoin="round" stroke-width=".5" points="77.1 91 77.332 91.629 77.796 93.266 78.028 95.531 78.492 97.42 80.116 101.448 81.16 105.098 82.204 107.364 82.436 109 82.668 108.874 82.9 108.622 82.9 108.245 82.32 106.734 80.464 103.587 78.26 97.168 77.68 94.524"><title>2023-12-07 1.0km</title><desc>10340288256</desc></polyline><polyline fill="none" stroke="#4dd2ff" stroke-linecap="round" stroke-linejoin="round" stroke-width=".5" points="96.658 91 97.374 92.683 98.687 98.252 100.597 101.748 102.148 106.022 102.864 108.741 103.222 109 103.342 108.094 103.103 106.928 101.193 102.914 99.881 100.971 99.165 99.547 96.778 91.388"><title>2023-12-06 1.0km</title><desc>10334845031</desc></polyline><polyline fill="none" stroke="#4dd2ff" stroke-linecap="round" stroke-linejoin="round" stroke-width=".5" points="118.341 94.103 119.142 98.2 119.943 101.179 121.888 106.269 122.917 108.628 123.26 109 122.803 106.766 121.659 104.655 120.629 101.676 119.142 98.572 118.456 96.214 117.312 93.731 116.74 91"><title>2023-12-05 1.0km</title><desc>10329306344</desc></polyline><polyline fill="none" stroke="#4dd2ff" stroke-linecap="round" stroke-linejoin="round" stroke-width=".5" points="136.694 92.51 137.506 93.769 138.55 97.42 140.638 102.58 141.682 106.105 142.61 108.119 143.306 109 143.306 108.371 140.29 101.448 139.13 97.545 137.854 94.65 136.926 91"><title>2023-12-04 1.0km</title><desc>10324662812</desc></polyline><polyline fill="none" stroke="#4dd2ff" stroke-linecap="round" stroke-linejoin="round" stroke-width=".5" points="156.874 92.662 158.15 97.508 160.191 102.077 161.595 106.923 162.616 108.862 163.381 109 163.381 108.446 162.488 106.923 161.34 103.6 160.064 101.662 159.171 99.308 157.639 93.769 156.619 91"><title>2023-12-02 1.0km</title><desc>10313350310</desc></polyline><polyline fill="none" stroke="#4dd2ff" stroke-linecap="round" stroke-linejoin="round" stroke-width=".5" points="176.733 91.955 177.989 93.591 179.497 98.773 180.503 103 182.136 107.636 183.142 109 183.267 108.182 183.016 106.545 181.634 103.545 179.497 100.136 178.241 97.545 176.984 91"><title>2023-12-01 1.0km</title><desc>10308709030</desc></polyline><polyline fill="none" stroke="#4dd2ff" stroke-linecap="round" stroke-linejoin="round" stroke-width=".5" points="16.682 111 19.171 119.55 21.659 124.65 23.041 128.4 23.456 129 23.594 128.55 23.041 127.05 20.968 124.2 20.415 122.7 18.341 118.65 17.374 114 16.406 111.3"><title>2023-11-30 1.0km</title><desc>10303537703</desc></polyline><polyline fill="none" stroke="#4dd2ff" stroke-linecap="round" stroke-linejoin="round" stroke-width=".5" points="37.941 114.848 38.742 117.455 39.085 119.566 40.343 122.048 41.716 125.772 43.089 128.752 43.318 129 43.546 128.752 43.318 127.883 42.402 126.269 41.144 122.793 39.314 119.069 38.627 115.097 37.254 112.986 36.454 111"><title>2023-11-29 1.0km</title><desc>10298007687</desc></polyline><polyline fill="none" stroke="#4dd2ff" stroke-linecap="round" stroke-linejoin="round" stroke-width=".5" points="56.897 113.331 58.21 116.698 58.449 119.158 60.119 123.173 61.074 126.799 61.909 128.482 62.745 129 63.103 129 63.342 128.612 63.222 128.094 62.745 127.187 60.835 122.137 58.926 117.734 58.568 115.662 57.733 113.201 56.658 111"><title>2023-11-28 1.0km</title><desc>10292316108</desc></polyline><polyline fill="none" stroke="#4dd2ff" stroke-linecap="round" stroke-linejoin="round" stroke-width=".5" points="79.577 111 80.634 113.866 81.268 116.618 82.113 117.879 83.064 119.713 84.015 122.694 84.86 124.07 84.86 124.758 84.332 125.217 82.641 126.134 81.585 127.051 80.528 127.624 78.943 128.312 76.408 129 75.985 128.885 75.668 128.541 75.14 126.363"><title>2023-11-27 1.0km</title><desc>10287544518</desc></polyline><polyline fill="none" stroke="#4dd2ff" stroke-linecap="round" stroke-linejoin="round" stroke-width=".5" points="98.26 114.902 98.84 116.287 100.232 123.336 101.74 126.986 102.552 128.371 103.132 129 103.248 128.874 102.9 128.245 102.9 127.238 101.972 125.098 100.928 121.573 99.884 119.434 99.188 115.406 97.216 112.259 96.752 111"><title>2023-11-26 1.0km</title><desc>10281488289</desc></polyline><polyline fill="none" stroke="#4dd2ff" stroke-linecap="round" stroke-linejoin="round" stroke-width=".5" points="116.722 111 118.06 114.484 119.264 119.419 120.468 122.177 120.736 123.919 121.405 125.516 122.876 128.274 123.545 129 123.813 129 121.806 124.645 121.538 123.194 120.201 121.306 117.525 114.048 116.187 111.581"><title>2023-11-25 1.0km</title><desc>10275889695</desc></polyline><polyline fill="none" stroke="#4dd2ff" stroke-linecap="round" stroke-linejoin="round" stroke-width=".5" points="136.512 111.168 137.442 115.374 141.783 127.15 142.868 128.832 143.333 129 143.488 128.495 141.938 126.477 140.078 120.925 138.837 118.402 138.062 113.523 137.132 111"><title>2023-11-24 1.0km</title><desc>10271180196</desc></polyline><polyline fill="none" stroke="#4dd2ff" stroke-linecap="round" stroke-linejoin="round" stroke-width=".5" points="157.762 113 158.157 114.143 159.078 119 161.317 125.857 162.37 128.714 162.765 129 163.291 129 163.423 128.714 163.16 127.286 161.712 123.143 157.894 114.857 156.577 111"><title>2023-11-23 1.0km</title><desc>10265414399</desc></polyline><polyline fill="none" stroke="#4dd2ff" stroke-linecap="round" stroke-linejoin="round" stroke-width=".5" points="178.423 115.056 178.54 116.831 179.007 119.62 180.876 124.944 181.46 127.479 182.395 129 183.096 129 182.979 128.239 181.694 124.944 180.643 123.296 179.124 118.606 177.372 113.789 176.904 111"><title>2023-11-21 1.0km</title><desc>10253878272</desc></polyline><polyline fill="none" stroke="#4dd2ff" stroke-linecap="round" stroke-linejoin="round" stroke-width=".5" points="18.063 135.861 18.668 139.803 21.211 146.241 22.301 148.606 22.664 149 22.906 148.869 23.027 148.606 22.543 146.504 20.363 141.774 19.516 139.277 18.184 134.153 17.457 132.839 16.973 131"><title>2023-11-20 1.0km</title><desc>10248671423</desc></polyline><polyline fill="none" stroke="#4dd2ff" stroke-linecap="round" stroke-linejoin="round" stroke-width=".5" points="36.795 132.5 38.555 136.318 39.057 140.273 40.44 143.409 41.822 147.364 42.451 148.318 43.205 149 43.079 147.909 40.943 142.318 39.56 137.273 38.178 134 37.424 131"><title>2023-11-19 1.0km</title><desc>10242265034</desc></polyline><polyline fill="none" stroke="#4dd2ff" stroke-linecap="round" stroke-linejoin="round" stroke-width=".5" points="56.502 147.038 57.288 144.564 57.602 143.967 58.153 143.626 60.825 143.284 62.791 142.858 63.42 142.346 63.813 141.834 64.285 139.701 64.127 139.019 64.442 138.507 64.206 134.583 64.049 134.071 63.97 132.536 63.813 131.597 62.948 131.341 62.241 131.853 62.398 131.597 62.555 131.853 61.533 131.341 61.454 131 61.219 131.171 61.376 131.085 60.825 131.768 60.904 131.682 62.555 132.536 62.162 132.877 61.533 133.133 60.039 133.389 59.961 133.047 60.354 132.877 60.904 132.962 62.555 131.341 64.835 131.427 64.599 131.256 64.285 131.171 64.049 135.265 64.127 136.46 64.363 137.91 64.52 140.384 64.52 141.237 64.285 142.09 63.813 142.602 59.882 143.028 58.074 143.37 57.131 144.052 56.03 145.588 55.401 147.806 55.165 149"><title>2023-11-18 1.0km</title><desc>10236386505</desc></polyline><polyline fill="none" stroke="#4dd2ff" stroke-linecap="round" stroke-linejoin="round" stroke-width=".5" points="76.327 131 78.934 135.5 79.882 138.843 80.237 140.771 80.948 141.929 83.199 148.486 83.673 149 83.673 148.486 83.199 147.843 81.896 143.986 81.185 142.7 80.948 140.514 79.882 137.814 78.697 135.243 78.578 133.829"><title>2023-11-17 1.0km</title><desc>10231268371</desc></polyline><polyline fill="none" stroke="#4dd2ff" stroke-linecap="round" stroke-linejoin="round" stroke-width=".5" points="96.789 131.581 98.528 134.048 98.93 137.387 100.134 140 102.007 146.968 103.211 149 103.077 147.839 102.14 145.952 101.472 144.065 100.401 139.565 98.261 135.065 97.592 133.032 97.191 131"><title>2023-11-16 1.0km</title><desc>10225818993</desc></polyline><polyline fill="none" stroke="#4dd2ff" stroke-linecap="round" stroke-linejoin="round" stroke-width=".5" points="116.879 131.194 117.77 134.677 119.197 138.548 121.159 142.226 121.873 145.129 123.121 147.645 124.37 149 121.159 143 119.732 138.548 115.63 131"><title>2023-11-15 1.0km</title><desc>10219684298</desc></polyline><polyline fill="none" stroke="#4dd2ff" stroke-linecap="round" stroke-linejoin="round" stroke-width=".5" points="136.82 133.165 138.441 135.196 138.69 137.767 140.561 142.233 141.684 146.023 142.806 148.865 143.305 149 143.18 147.376 141.559 145.211 140.935 143.316 139.938 142.098 139.563 140.609 137.693 136.82 137.069 134.113 136.695 131"><title>2023-11-14 1.0km</title><desc>10213806154</desc></polyline><polyline fill="none" stroke="#4dd2ff" stroke-linecap="round" stroke-linejoin="round" stroke-width=".5" points="157.596 133.478 158.558 137.13 161.202 143.913 161.803 146.13 163.005 148.609 163.366 149 162.645 147.696 160.962 143.652 160.841 142.609 159.639 139.739 157.836 136.478 157.115 134.261 156.634 131"><title>2023-11-13 1.0km</title><desc>10208522228</desc></polyline><polyline fill="none" stroke="#4dd2ff" stroke-linecap="round" stroke-linejoin="round" stroke-width=".5" points="177.989 133.045 179.246 136.864 180.754 140 181.634 143.682 182.513 146.273 183.644 148.727 184.147 149 184.398 148.455 183.016 145.727 182.262 142.727 179.497 140.136 177.989 137.955 177.738 135.636 175.602 131"><title>2023-11-12 1.0km</title><desc>10202270880</desc></polyline><polyline fill="none" stroke="#4dd2ff" stroke-linecap="round" stroke-linejoin="round" stroke-width=".5" points="17.277 154.358 20.248 161.075 21.238 164.433 22.228 167.119 22.847 168.328 23.466 169 23.59 168.463 22.476 165.104 20.371 161.881 18.143 156.776 17.277 153.149 16.41 151"><title>2023-11-11 1.0km</title><desc>10196068378</desc></polyline><polyline fill="none" stroke="#4dd2ff" stroke-linecap="round" stroke-linejoin="round" stroke-width=".5" points="38.327 153.684 40.364 159.842 42.255 164.895 43.129 168.211 43.711 169 44.002 168.684 43.565 166.789 41.382 161.895 39.2 157.316 36.289 152.737 35.998 151"><title>2023-11-10 1.0km</title><desc>10191120477</desc></polyline><polyline fill="none" stroke="#4dd2ff" stroke-linecap="round" stroke-linejoin="round" stroke-width=".5" points="55.821 151.55 57.974 153.198 59.24 155.397 59.62 156.221 59.62 157.458 61.013 161.718 61.52 164.191 62.533 166.939 62.786 168.313 63.419 169 63.799 168.863 64.179 168.313 62.786 167.351 60.507 164.053 57.847 156.771 57.214 152.649 56.581 151"><title>2023-11-09 1.0km</title><desc>10185506531</desc></polyline><polyline fill="none" stroke="#4dd2ff" stroke-linecap="round" stroke-linejoin="round" stroke-width=".5" points="76.489 152.445 77.821 155.073 78.305 156.387 79.879 159.803 80.484 162.168 80.363 160.723 80.605 161.642 81.09 165.19 82.179 168.474 82.664 169 83.269 168.737 83.511 168.343 82.179 167.161 81.211 165.584 80.605 163.876 79.758 160.985 78.547 159.277 77.215 156.387 76.852 154.285 76.973 151.657 76.731 151"><title>2023-11-08 1.0km</title><desc>10179505859</desc></polyline><polyline fill="none" stroke="#4dd2ff" stroke-linecap="round" stroke-linejoin="round" stroke-width=".5" points="99.188 160.944 103.248 169 103.48 168.874 102.9 167.49 101.856 165.727 101.16 163.965 99.768 162.455 99.304 161.573 98.956 158.552 98.724 157.671 97.332 155.28 96.52 151"><title>2023-11-06 1.0km</title><desc>10167691585</desc></polyline><polyline fill="none" stroke="#4dd2ff" stroke-linecap="round" stroke-linejoin="round" stroke-width=".5" points="118.27 156.05 119.105 157.604 122.208 164.727 123.521 168.741 123.759 169 123.998 169 123.998 168.612 123.043 166.54 122.208 165.374 122.088 164.727 121.372 163.95 119.344 160.453 116.957 154.367 116.002 151"><title>2023-11-05 1.1km</title><desc>10161301187</desc></polyline><polyline fill="none" stroke="#4dd2ff" stroke-linecap="round" stroke-linejoin="round" stroke-width=".5" points="136.634 151 139.038 156.348 140.12 161.044 141.803 164.304 142.404 166.913 143.005 169 143.366 168.609 143.246 168.217 141.683 165.348 141.563 164.957 140.12 162.739 139.519 160.652 137.957 157.783 137.596 155.304 136.875 152.696"><title>2023-11-04 1.0km</title><desc>10155501797</desc></polyline><polyline fill="none" stroke="#4dd2ff" stroke-linecap="round" stroke-linejoin="round" stroke-width=".5" points="164.829 153.734 163.464 151.911 162.625 151.342 160.945 151 159.37 151.114 157.165 152.139 156.221 153.051 155.381 154.76 155.171 156.127 154.856 160.684 155.066 165.468 155.276 166.152 156.326 167.861 157.585 168.772 159.685 169 161.575 168.203 163.359 166.038 163.884 165.013 164.619 161.709 164.619 159.089 165.144 155.671 165.039 154.418 163.884 153.051 162.94 152.367 160.735 151.342 159.58 151.342 157.06 152.139 155.906 153.165 155.171 154.532 154.961 155.443 155.171 159.203 154.961 160.911"><title>2023-11-03 1.0km</title><desc>10152446508</desc></polyline><polyline fill="none" stroke="#4dd2ff" stroke-linecap="round" stroke-linejoin="round" stroke-width=".5" points="176.275 151 177.259 153.136 178.102 156.949 179.508 159.695 181.617 165.186 182.038 166.102 182.741 168.542 183.163 169 183.725 169 183.725 168.695 182.741 168.237 182.32 167.169 181.336 166.254 180.633 164.271 179.649 162.746 178.524 160.458 177.259 155.729 176.415 153.746"><title>2023-11-02 1.1km</title><desc>10144903556</desc></polyline><polyline fill="none" stroke="#4dd2ff" stroke-linecap="round" stroke-linejoin="round" stroke-width=".5" points="16.935 172.304 17.175 173.739 18.137 175.957 19.82 181.957 22.705 187.957 23.546 189 23.065 187.435 21.262 184.696 20.301 181.174 19.098 179.478 17.656 176.348 16.454 171"><title>2023-11-01 1.0km</title><desc>10138966680</desc></polyline><polyline fill="none" stroke="#4dd2ff" stroke-linecap="round" stroke-linejoin="round" stroke-width=".5" points="37.381 171.271 38.004 173.301 39.002 178.714 40.624 182.233 41.621 185.481 43.243 189 43.368 188.865 42.245 187.241 40.624 183.451 39.252 181.015 36.882 173.842 36.632 171"><title>2023-10-31 1.0km</title><desc>10133123337</desc></polyline><polyline fill="none" stroke="#4dd2ff" stroke-linecap="round" stroke-linejoin="round" stroke-width=".5" points="57.174 173.133 57.788 176.333 57.788 177.533 59.14 179.8 62.826 187.667 63.441 188.867 63.686 189 60.86 183.4 59.631 179.933 58.28 177.133 56.314 171"><title>2023-10-30 1.0km</title><desc>10127985445</desc></polyline><polyline fill="none" stroke="#4dd2ff" stroke-linecap="round" stroke-linejoin="round" stroke-width=".5" points="77.163 173.605 77.708 177.276 78.036 178.461 80.218 183.553 81.31 186.513 82.947 188.763 83.383 189 83.492 188.645 82.51 187.105 81.091 184.026 78.581 179.408 77.599 175.974 76.835 174.434 76.726 172.066 76.508 171"><title>2023-10-28 1.0km</title><desc>10115543824</desc></polyline><polyline fill="none" stroke="#4dd2ff" stroke-linecap="round" stroke-linejoin="round" stroke-width=".5" points="97.665 174.733 98.648 177.933 99.754 180.467 100.737 184.067 102.212 187.533 102.826 188.867 103.441 189 103.563 188.867 103.318 188.067 102.58 186.067 100.123 181.267 98.157 175.933 96.928 173.267 96.437 171"><title>2023-10-27 1.0km</title><desc>10110442644</desc></polyline><polyline fill="none" stroke="#4dd2ff" stroke-linecap="round" stroke-linejoin="round" stroke-width=".5" points="117.561 173.779 119.878 181.588 120.732 183.971 121.586 185.426 122.561 188.206 122.927 188.735 123.659 189 123.781 188.603 123.659 188.074 122.439 186.485 120.61 183.309 118.414 176.824 116.951 174.441 116.219 171"><title>2023-10-26 1.0km</title><desc>10104873905</desc></polyline><polyline fill="none" stroke="#4dd2ff" stroke-linecap="round" stroke-linejoin="round" stroke-width=".5" points="139.098 179.609 141.863 186.522 143.185 188.87 143.666 189 143.546 187.696 140.301 182.087 138.497 177.522 136.935 174.261 136.334 171"><title>2023-10-25 1.0km</title><desc>10098978222</desc></polyline><polyline fill="none" stroke="#4dd2ff" stroke-linecap="round" stroke-linejoin="round" stroke-width=".5" points="156.67 171 156.549 171.92 157.276 174.942 158.244 176.912 158.85 179.277 159.939 182.431 162.24 186.898 162.967 188.737 163.209 189 163.451 188.869 163.33 187.161 161.998 184.664 161.029 183.219 159.818 180.46 159.576 179.015 158.123 176.781 157.276 174.81 157.033 172.445 156.67 171"><title>2023-10-24 1.0km</title><desc>10092835699</desc></polyline><polyline fill="none" stroke="#4dd2ff" stroke-linecap="round" stroke-linejoin="round" stroke-width=".5" points="178.15 174.108 179.94 180.453 180.776 182.007 181.73 185.892 183.163 188.482 183.759 189 183.163 188.353 182.327 186.281 180.179 183.691 179.702 182.784 179.224 179.806 177.792 176.957 176.837 173.978 176.241 171"><title>2023-10-23 1.0km</title><desc>10087395010</desc></polyline><polyline fill="none" stroke="#4dd2ff" stroke-linecap="round" stroke-linejoin="round" stroke-width=".5" points="14.172 191.086 14.49 191 16.758 191.173 17.752 191.432 17.991 191.561 18.508 191.95 18.866 192.381 19.662 193.849 20.06 195.489 20.577 196.353 20.815 197.043 21.372 198.295 21.77 199.59 22.367 200.626 22.645 200.928 23.003 201.532 23.202 202.827 23.322 203.173 23.64 203.648 23.719 204.381 23.839 204.684 25.589 208.827 25.828 209 25.828 208.784 25.47 208.439 25.072 207.489 24.674 206.669 23.6 203.345"><title>2023-10-22 1.5km</title><desc>10080655811</desc></polyline><polyline fill="none" stroke="#4dd2ff" stroke-linecap="round" stroke-linejoin="round" stroke-width=".5" points="37.137 191 37.769 191.457 36.632 191.274 38.4 193.558 38.569 194.107 38.442 194.563 37.853 194.883 37.684 195.203 37.726 195.751 38.063 197.076 38.442 198.036 38.863 199.498 39.621 200.822 39.747 201.325 40.211 202.147 40.505 202.513 40.547 202.741 40.842 203.015 41.053 203.472 41.347 204.34 41.642 204.934 41.6 206.122 42.147 207.173 42.316 207.675 42.61 208.223 43.116 208.863 43.368 209 42.4 207.629 42.189 206.899 41.768 205.985 41.6 205.391 41.053 204.614 40.589 203.289"><title>2023-10-20 1.4km</title><desc>10069668027</desc></polyline><polyline fill="none" stroke="#4dd2ff" stroke-linecap="round" stroke-linejoin="round" stroke-width=".5" points="56.378 191 56.464 191.698 57.15 193.372 57.321 194.395 58.736 197.837 58.864 198.302 58.95 199 59.121 199.465 60.15 200.907 60.707 202.023 61.05 203.14 61.35 203.744 61.522 204.674 61.736 205.14 62.293 206.581 62.379 207.14 63.193 208.814 63.408 209 63.536 209 63.622 208.953 63.579 208.907 62.722 207.837 62.336 206.535 61.522 205.047 61.393 204.442 61.307 203.419"><title>2023-10-19 1.3km</title><desc>10064004415</desc></polyline><polyline fill="none" stroke="#4dd2ff" stroke-linecap="round" stroke-linejoin="round" stroke-width=".5" points="75.941 191 77.706 193.298 77.588 194.957 77.824 196.617 78.647 199.553 79.824 201.468 81 204.787 83.353 208.617 83.706 209 84.059 208.872 82.529 207.34 79.706 201.851 79 199.426 77 195.213"><title>2023-10-18 1.0km</title><desc>10058081424</desc></polyline><polyline fill="none" stroke="#4dd2ff" stroke-linecap="round" stroke-linejoin="round" stroke-width=".5" points="96.858 192.091 97.864 197.955 100.503 204.909 102.262 208.591 103.016 209 103.393 209 103.644 208.455 102.765 207.364 101.634 205.591 100.126 202.318 99.497 200.409 96.858 195.091 96.607 194.273 96.356 191"><title>2023-10-17 1.0km</title><desc>10051702317</desc></polyline><polyline fill="none" stroke="#4dd2ff" stroke-linecap="round" stroke-linejoin="round" stroke-width=".5" points="115.981 191.415 117.257 193.631 119.171 198.615 120.191 200.554 121.34 204.154 122.743 207.754 123.254 208.723 123.892 209 124.019 208.862 123.892 208.446 122.488 206.369 120.574 201.662 119.171 198.754 118.022 193.354 117.384 191"><title>2023-10-16 1.0km</title><desc>10046279660</desc></polyline><polyline fill="none" stroke="#4dd2ff" stroke-linecap="round" stroke-linejoin="round" stroke-width=".5" points="136.314 191 136.84 192.143 137.367 194.714 138.552 198.714 140.132 201.143 141.975 208 142.633 208.714 143.555 209 143.686 208.714 143.555 207.857 141.843 205.429 140.922 202.571 139.868 200.857 137.367 195 136.445 191"><title>2023-10-15 1.0km</title><desc>10039610121</desc></polyline><polyline fill="none" stroke="#4dd2ff" stroke-linecap="round" stroke-linejoin="round" stroke-width=".5" points="156.254 192.306 156.656 196.516 157.726 199.565 159.064 201.452 159.866 204.065 162.14 208.129 162.676 208.71 163.344 209 163.746 208.71 163.746 208.274 161.07 206.097 159.331 202.903 158.662 200.145 157.057 196.516 156.254 193.468 156.388 191.581 156.254 191"><title>2023-10-14 1.0km</title><desc>10033377496</desc></polyline><polyline fill="none" stroke="#4dd2ff" stroke-linecap="round" stroke-linejoin="round" stroke-width=".5" points="175.919 191.286 178.288 194.143 178.552 196.286 180.79 203.143 182.896 208.143 183.555 209 184.081 209 184.081 208.571 183.95 208.143 182.765 207.286 181.448 204.857 180 200.286 177.367 194.429 176.972 192.429 176.314 191"><title>2023-10-13 1.0km</title><desc>10028006924</desc></polyline><polyline fill="none" stroke="#4dd2ff" stroke-linecap="round" stroke-linejoin="round" stroke-width=".5" points="16.138 211 17.404 212.649 18.164 214.023 18.291 215.809 18.164 217.733 19.557 220.618 21.203 225.015 22.849 228.038 23.229 228.588 23.862 229 23.862 228.313 22.469 226.527 21.203 224.328 19.557 219.794 18.544 218.008 18.037 216.496"><title>2023-10-12 1.0km</title><desc>10021974100</desc></polyline><polyline fill="none" stroke="#4dd2ff" stroke-linecap="round" stroke-linejoin="round" stroke-width=".5" points="37.896 213.552 38.391 216.239 38.267 217.313 39.381 220.94 40.248 222.552 41.114 225.507 42.352 228.463 42.6 228.731 43.219 229 43.095 228.463 41.733 224.97 40.248 222.418 38.267 217.851 37.772 216.104 37.524 213.552 36.781 211"><title>2023-10-10 1.0km</title><desc>10009069592</desc></polyline><polyline fill="none" stroke="#4dd2ff" stroke-linecap="round" stroke-linejoin="round" stroke-width=".5" points="56.951 213.25 57.804 215.632 58.658 218.809 60.488 222.779 61.952 227.809 62.805 229 63.049 228.603 63.171 227.147 62.317 224.632 60.488 221.456 58.414 215.632 57.804 212.985 56.829 211"><title>2023-10-09 1.0km</title><desc>10003389142</desc></polyline><polyline fill="none" stroke="#4dd2ff" stroke-linecap="round" stroke-linejoin="round" stroke-width=".5" points="76.335 211 77.235 212.116 78.135 214.209 78.65 218.395 80.579 222.581 82.25 227.326 83.022 228.721 83.665 229 83.665 227.884 81.222 223.977 78.007 216.163 76.721 211.14"><title>2023-10-08 1.0km</title><desc>9996447828</desc></polyline><polyline fill="none" stroke="#4dd2ff" stroke-linecap="round" stroke-linejoin="round" stroke-width=".5" points="97.689 214.6 98.282 216.786 100.059 221.543 100.652 223.6 102.548 228.357 103.14 229 103.258 228.486 103.258 227.971 101.007 223.986 99.941 221.671 98.045 216.014 97.452 213.057 96.742 211"><title>2023-10-07 1.0km</title><desc>9989974159</desc></polyline><polyline fill="none" stroke="#4dd2ff" stroke-linecap="round" stroke-linejoin="round" stroke-width=".5" points="118.529 216.362 119.471 219.426 120.176 220.957 121.588 226.957 121.941 228.106 122.647 229 123.235 229 123.471 228.489 123.353 228.106 121.941 226.064 120.529 223 120.059 220.957 117.588 214.957 117.235 212.787 116.529 211"><title>2023-10-06 1.0km</title><desc>9984428862</desc></polyline><polyline fill="none" stroke="#4dd2ff" stroke-linecap="round" stroke-linejoin="round" stroke-width=".5" points="136.125 211 138.164 216.459 139.524 221.033 141.836 226.787 142.787 228.705 143.195 229 143.739 229 143.875 228.705 143.467 227.967 141.836 225.607 140.884 223.689 139.252 219.41 138.572 217.197 136.669 213.656 136.669 212.328"><title>2023-10-04 1.0km</title><desc>9971682885</desc></polyline><polyline fill="none" stroke="#4dd2ff" stroke-linecap="round" stroke-linejoin="round" stroke-width=".5" points="157.276 213.102 157.881 215.204 158.486 216.65 158.971 218.883 161.271 223.482 161.392 225.058 162.119 228.212 162.361 228.606 163.088 229 163.088 227.686 161.514 224.796 160.424 222.299 159.818 221.117 159.213 219.409 158.002 216.912 157.518 214.942 157.276 212.971 156.912 211"><title>2023-10-03 1.0km</title><desc>9965060084</desc></polyline><polyline fill="none" stroke="#4dd2ff" stroke-linecap="round" stroke-linejoin="round" stroke-width=".5" points="176.71 211.744 178.355 217.099 178.629 219.479 179.589 220.669 180.274 222.455 181.508 227.066 182.468 228.554 183.153 229 183.29 228.851 182.879 227.661 181.371 224.835 178.903 218.884 177.395 214.421 177.121 211"><title>2023-10-02 1.0km</title><desc>9958643020</desc></polyline><polyline fill="none" stroke="#4dd2ff" stroke-linecap="round" stroke-linejoin="round" stroke-width=".5" points="17.147 234.168 17.412 235.464 20.332 242.376 21.792 246.84 22.588 248.424 23.384 249 23.517 248.856 23.384 248.28 20.73 244.248 18.208 238.056 17.014 234.312 16.483 231"><title>2023-10-01 1.0km</title><desc>9952075403</desc></polyline><polyline fill="none" stroke="#4dd2ff" stroke-linecap="round" stroke-linejoin="round" stroke-width=".5" points="37.416 233.609 38.497 235.826 38.978 238.044 39.339 240.13 41.142 245.217 42.705 248.478 43.426 249 43.666 248.609 41.262 244.957 40.18 242.478 39.82 241.174 38.137 237.522 37.175 233.478 36.334 231"><title>2023-09-30 1.0km</title><desc>9945549317</desc></polyline><polyline fill="none" stroke="#4dd2ff" stroke-linecap="round" stroke-linejoin="round" stroke-width=".5" points="57.213 231 58.408 233.016 58.806 234.6 59.867 237.192 60.398 241.08 60.796 242.232 62.389 246.12 62.787 248.568 63.052 248.856 63.45 249 63.583 248.712 61.194 244.392 59.602 240.648 59.071 238.488 57.213 234.168 56.417 231.576"><title>2023-09-28 1.0km</title><desc>9933629332</desc></polyline><polyline fill="none" stroke="#4dd2ff" stroke-linecap="round" stroke-linejoin="round" stroke-width=".5" points="76.481 233.045 77.487 236.591 79.372 239.182 80.628 243.818 82.388 246.955 82.89 248.727 83.393 249 83.644 248.591 83.393 248.045 82.388 246.682 79.497 240.818 77.989 236.727 76.356 231"><title>2023-09-27 1.0km</title><desc>9927137811</desc></polyline><polyline fill="none" stroke="#4dd2ff" stroke-linecap="round" stroke-linejoin="round" stroke-width=".5" points="101.495 231 101.136 232.731 100.778 233.726 100.498 234.938 98.864 238.356 98.026 239.784 97.867 240.389 97.946 240.865 98.146 241.558 98.744 243.029 98.943 243.418 99.183 244.111 99.98 245.106 100.339 245.885 100.738 246.49 101.057 247.356 101.535 248.005 102.133 249"><title>2023-09-26 1.0km</title><desc>9920397094</desc></polyline><polyline fill="none" stroke="#4dd2ff" stroke-linecap="round" stroke-linejoin="round" stroke-width=".5" points="119.916 231 119.131 233.615 118.347 235.014 117.618 235.926 117.226 236.655 117.058 237.385 117.114 238.297 117.394 239.027 118.067 240.061 118.347 241.095 118.907 242.432 119.972 243.77 121.765 247.419 122.942 249"><title>2023-09-25 1.0km</title><desc>9914573673</desc></polyline><polyline fill="none" stroke="#4dd2ff" stroke-linecap="round" stroke-linejoin="round" stroke-width=".5" points="141.327 231 140.885 231.672 140.796 232.008 140.885 232.44 140.929 232.872 140.044 234.504 139.823 235.608 139.513 236.424 137.656 239.688 137.611 240.072 137.788 240.84 138.275 241.608 138.54 242.28 138.938 242.952 139.16 243.624 139.735 244.536 140.177 245.448 140.664 245.976 140.796 246.456 141.106 246.84 141.769 247.992 142.256 248.52 142.389 249"><title>2023-09-24 1.0km</title><desc>9907510217</desc></polyline><polyline fill="none" stroke="#4dd2ff" stroke-linecap="round" stroke-linejoin="round" stroke-width=".5" points="160.671 231 160.295 231.583 160.027 232.165 159.866 232.922 159.812 233.913 158.899 235.136 158.363 236.534 157.88 237.233 157.557 238.165 157.504 239.155 158.631 242.01 159.061 242.884 160.456 245.097 161.047 246.553 161.798 247.485 162.228 248.243 162.496 249"><title>2023-09-23 1.0km</title><desc>9901004991</desc></polyline><polyline fill="none" stroke="#4dd2ff" stroke-linecap="round" stroke-linejoin="round" stroke-width=".5" points="180.691 231 180.333 231.667 179.974 232.833 179.155 234.556 178.336 235.722 177.619 237.667 177.568 238.722 177.67 239.333 178.694 241.778 178.848 242.5 179.053 242.889 179.77 243.778 180.333 244.889 180.794 246.056 181.562 247.167 182.432 249"><title>2023-09-22 1.0km</title><desc>9895405405</desc></polyline><polyline fill="none" stroke="#4dd2ff" stroke-linecap="round" stroke-linejoin="round" stroke-width=".5" points="20.954 251 20.807 251.531 20.514 251.85 19.878 253.018 19.633 253.867 18.899 255.726 18.116 257.319 17.627 258.487 17.48 259.071 17.48 259.443 17.627 259.974 17.92 260.504 18.556 262.15 19.193 263.319 19.535 264.168 20.171 265.23 20.563 265.708 20.856 266.558 21.639 267.938 22.52 269"><title>2023-09-21 1.0km</title><desc>9889267953</desc></polyline><polyline fill="none" stroke="#4dd2ff" stroke-linecap="round" stroke-linejoin="round" stroke-width=".5" points="41.833 251 41.19 252.927 40.812 254.444 40.208 255.715 39.49 257.847 38.243 260.185 37.903 261.456 37.941 261.743 38.167 262.358 38.659 263.424 38.961 264.326 39.717 265.392 40.17 266.253 40.435 266.868 40.737 267.401 41.228 267.77 41.833 268.672 41.87 268.836 42.097 269"><title>2023-09-20 1.0km</title><desc>9882714971</desc></polyline><polyline fill="none" stroke="#4dd2ff" stroke-linecap="round" stroke-linejoin="round" stroke-width=".5" points="61.493 251 61.109 251.972 60.384 254.1 60.341 254.794 60.085 255.165 59.787 255.859 59.616 256.506 59.275 257.386 58.294 258.959 58.038 259.884 57.953 260.717 58.038 261.55 58.294 262.476 58.593 263.123 59.531 264.743 60 265.391 60.426 266.548 60.853 267.288 61.279 267.889 61.748 268.352 62.047 269"><title>2023-09-19 1.0km</title><desc>9876194288</desc></polyline><polyline fill="none" stroke="#4dd2ff" stroke-linecap="round" stroke-linejoin="round" stroke-width=".5" points="79.868 251 79.55 251.518 79.02 252.553 78.861 253.243 77.907 254.911 77.165 256.463 77.006 257.038 77.059 257.671 77.377 258.476 77.854 259.339 78.278 260.546 78.861 261.812 79.497 262.962 80.079 263.709 80.768 264.859 81.192 266.182 81.934 267.332 82.305 268.367 82.994 269"><title>2023-09-18 1.0km</title><desc>9870505463</desc></polyline><polyline fill="none" stroke="#4dd2ff" stroke-linecap="round" stroke-linejoin="round" stroke-width=".5" points="100.181 251 99.922 251.505 99.561 253.187 99.096 253.972 98.889 254.589 97.752 256.439 97.339 257.449 97.08 258.346 97.287 258.963 98.424 261.43 98.992 262.327 99.406 263.28 100.078 264.178 100.439 264.794 100.904 266.252 102.92 269"><title>2023-09-16 1.0km</title><desc>9856514700</desc></polyline><polyline fill="none" stroke="#4dd2ff" stroke-linecap="round" stroke-linejoin="round" stroke-width=".5" points="119.751 251 119.198 252.68 118.479 253.82 116.986 256.7 116.931 257.36 116.986 258.14 117.318 258.92 117.871 259.76 118.369 260.9 119.254 262.4 120.359 264.5 120.47 265.28 120.857 265.58 121.299 266.18 122.018 267.38 122.792 268.04 122.958 268.46 123.069 269"><title>2023-09-15 1.0km</title><desc>9850671982</desc></polyline><polyline fill="none" stroke="#4dd2ff" stroke-linecap="round" stroke-linejoin="round" stroke-width=".5" points="140.458 251 139.542 253.421 138.513 254.91 138.055 255.717 137.369 257.455 137.197 258.076 137.197 258.572 137.369 259.193 138.055 261.055 138.684 262.297 140.229 264.966 140.858 266.145 140.972 266.828 141.43 267.262 142.174 268.441 142.803 269"><title>2023-09-14 1.0km</title><desc>9844236351</desc></polyline><polyline fill="none" stroke="#4dd2ff" stroke-linecap="round" stroke-linejoin="round" stroke-width=".5" points="157.139 251 157.469 251.268 157.592 251.536 157.674 252.117 157.921 252.608 158.086 253.993 158.086 254.663 158.004 255.02 158.086 255.467 158.292 256.003 158.209 256.449 158.251 256.673 158.662 257.432 159.033 258.548 159.362 259.174 159.774 259.754 160.226 260.156 160.35 260.424 160.473 261.005 160.803 261.586 161.173 262.658 161.667 263.596 161.914 264.4 162.038 265.07 162.284 265.605 162.737 267.079 163.355 268.241 163.396 268.419 163.355 268.553 162.861 269 163.108 268.821 163.231 268.553 163.314 268.33 163.272 268.017 163.025 267.705 162.284 266.097 161.914 264.891 161.132 263.149 160.761 261.452 160.556 260.96 159.774 259.933 158.992 258.459 158.621 257.253 158.498 256.449 158.168 255.601 157.51 254.171 157.345 253.501 156.769 252.429 156.645 251.849 156.604 251.134"><title>2023-09-13 1.0km</title><desc>9837636972</desc></polyline></svg>