<?xml version="1.0" encoding="utf-8" ?>
<svg baseProfile="full" height="300mm" version="1.1" viewBox="0,0,200,300" width="200mm" xmlns="http://www.w3.org/2000/svg" xmlns:ev="http://www.w3.org/2001/xml-events" xmlns:xlink="http://www.w3.org/1999/xlink"><defs /><rect fill="#222222" height="300" width="200" x="0" y="0" /><text fill="#FFFFFF" style="font-size:12px; font-family:Arial; font-weight:bold;" x="10" y="20">Over 1km Runs</text><text fill="#FFFFFF" style="font-size:4px; font-family:Arial" x="10" y="280">ATHLETE</text><text fill="#FFFFFF" style="font-size:9px; font-family:Arial" x="10" y="290">Jiakai</text><text fill="#FFFFFF" style="font-size:4px; font-family:Arial" x="120" y="280">STATISTICS</text><text fill="#FFFFFF" style="font-size:3px; font-family:Arial" x="120" y="285">Number: 97</text><text fill="#FFFFFF" style="font-size:3px; font-family:Arial" x="120" y="290">Weekly: 5.7</text><text fill="#FFFFFF" style="font-size:3px; font-family:Arial" x="141" y="285">Total: 100.4 km</text><text fill="#FFFFFF" style="font-size:3px; font-family:Arial" x="141" y="290">Avg: 1.0 km</text><text fill="#FFFFFF" style="font-size:3px; font-family:Arial" x="167" y="285">Min: 1.0 km</text><text fill="#FFFFFF" style="font-size:3px; font-family:Arial" x="167" y="290">Max: 1.5 km</text><polyline fill="none" points="16.382980935275555,31.406016977969557 18.253852864727378,35.330843146541156 19.75055040931329,40.473706149845384 21.49669754365459,43.99249887350015 22.993395088240504,48.32331145426724 23.367569474037737,49.0 23.617019064724445,49.0 19.875275204889476,41.28573583706748 19.002201637253165,38.57896882027853 18.378577660769224,36.142875102348626 17.505504093132913,34.38347207882907 16.632430525962263,31.0" stroke="#4dd2ff" stroke-linecap="round" stroke-linejoin="round" stroke-width="0.5"><title>2024-01-09 1.0km</title><desc>10520988068</desc></polyline><polyline fill="none" points="36.75715460581705,32.4887284807628 37.38077871967107,35.060165748465806 38.628026948310435,37.76693793933373 40.87307375948876,44.66918901109602 42.61922127986327,48.59398690296803 42.99339574761689,49.0 43.24284539418295,48.72932461183518 42.86867092549801,47.24060926469974 42.24504681117833,46.293244325672276 40.37417446868494,41.42107408342417 38.628026948310435,37.76693793933373 37.13132907403633,31.0" stroke="#4dd2ff" stroke-linecap="round" stroke-linejoin="round" stroke-width="0.5"><title>2024-01-07 1.0km</title><desc>10508221625</desc></polyline><polyline fill="none" points="58.58691426226869,36.333351957728155 58.83266830444336,37.66668749670498 59.93856148933992,40.4666889377404 60.921577654313296,43.80001835001167 62.88760998379439,48.60000194073655 63.37911806628108,49.0 63.37911806628108,48.066671058069915 62.27322488091886,46.20001173368655 61.65883977804333,44.20001746760681 59.201299365609884,39.000022055231966 58.34116022149101,36.73335272236727 57.72677511861548,35.666683820891194 56.62088193325326,31.0" stroke="#4dd2ff" stroke-linecap="round" stroke-linejoin="round" stroke-width="0.5"><title>2024-01-06 1.0km</title><desc>10501510624</desc></polyline><polyline fill="none" points="77.62194332526997,34.27274134848267 78.54996544169262,36.53848169394769 79.24598202994093,39.43358999455813 80.40600967640057,43.20981085568201 81.68204008741304,45.979034193907864 82.49405943974853,47.99301199009642 82.95807049795985,48.748253053287044 83.42208155663684,49.0 83.30607879208401,48.11888552387245 82.72606496885419,46.73427614511456 78.89797373628244,39.43358999455813 78.20195714849979,37.29372780956328 77.96995161892846,35.27973742748145 77.15793226659298,33.139870051061735 76.57791844336316,31.0" stroke="#4dd2ff" stroke-linecap="round" stroke-linejoin="round" stroke-width="0.5"><title>2024-01-05 1.0km</title><desc>10495609202</desc></polyline><polyline fill="none" points="96.20652863197029,31.0 96.9780821306631,32.81396122346632 97.62104337941855,34.76745598623529 98.52118912758306,36.58141360874288 100.19288837490603,41.325602270895615 102.25036437064409,46.069779074634425 103.0219178693369,48.58139728754759 103.53628686862066,49.0 103.79347136802971,48.30232876108494 103.66487911809236,47.32558859628625 100.57866512425244,41.046532678068615 99.54992712615058,37.41862423438579 98.52118912758306,31.55814209987875" stroke="#4dd2ff" stroke-linecap="round" stroke-linejoin="round" stroke-width="0.5"><title>2024-01-04 1.0km</title><desc>10489071805</desc></polyline><polyline fill="none" points="117.49954325752333,34.30883703043219 119.08519875304773,38.67649259837344 121.03677474707365,43.04413756961003 122.01256274431944,46.75000984175131 122.8663772419095,49.0 122.98835074156523,49.0 122.98835074156523,48.07353380450513 122.37848324328661,45.82354248885531 121.15874824672937,43.04413756961003 120.18296024994925,40.2647283594124 118.59730475442484,37.08825543615967 117.62151675764471,34.176483665942214 117.01164925890043,32.32353554200381 117.3775697578676,31.0" stroke="#4dd2ff" stroke-linecap="round" stroke-linejoin="round" stroke-width="0.5"><title>2024-01-03 1.0km</title><desc>10482519748</desc></polyline><polyline fill="none" points="136.3670011209324,31.297521962667815 139.52016995940357,40.52068110543769 142.8104330948554,48.404961237101816 143.49590458115563,49.0 143.6329988790676,48.404961237101816 143.22171598719433,47.36364297999535 139.7943585542962,40.81820166797843 138.56050987821072,37.54547307221219 136.77828401280567,31.0" stroke="#4dd2ff" stroke-linecap="round" stroke-linejoin="round" stroke-width="0.5"><title>2024-01-01 1.0km</title><desc>10470902913</desc></polyline><polyline fill="none" points="167.61672993563116,35.40818125801161 167.39104904886335,35.77552916947752 165.02139973500744,37.48981835064478 164.00583574408665,38.59186046384275 163.32879308285192,39.81635084503796 162.8774313093163,40.42859569785651 162.53890997869894,40.55104464129545 161.0719842137769,40.55104464129545 159.71789889177307,41.040840325760655 157.912451795768,40.918391417944804 157.0097282472998,40.55104464129545 156.44552603038028,39.69390184734948 156.1070046997629,38.95920767285861 155.994164256379,37.24492000427563 155.65564292529598,36.510224749101326 154.30155760375783,36.510224749101326 153.17315316898748,36.87757241737563 153.06031272560358,37.00002162193414 153.51167449960485,37.24492000427563 153.737355385907,37.00002162193414 152.94747228221968,37.00002162193414 152.7217913949862,36.7551232035039 152.49611050775275,35.89797845506109 152.38327006436884,34.42858643166255 152.94747228221968,34.55103581654839 153.3988340566866,35.530630571069196 154.4143980476074,36.63267398066819 155.20428115176037,36.63267398066819 155.8813238129951,36.142876999801956 156.44552603038028,36.26532625826076 156.55836647376418,36.020427731913514 155.54280248237774,33.081642604316585 155.31712159514427,32.959193111164495 154.07587671652436,32.83674360951409 152.83463183837011,32.959193111164495 153.62451494298875,32.959193111164495 152.49611050775275,31.734697686857544 152.38327006436884,31.0 152.7217913949862,31.489798494149 153.06031272560358,33.081642604316585 153.3988340566866,33.81633937230799 153.737355385907,35.40818125801161 153.06031272560358,39.571452840580605 153.85019582975656,43.36736785795074 154.5272384909913,44.46940608078148 154.6400789343752,46.306134830927476 155.65564292529598,49.0" stroke="#4dd2ff" stroke-linecap="round" stroke-linejoin="round" stroke-width="0.5"><title>2023-12-31 1.5km</title><desc>10466792666</desc></polyline><polyline fill="none" points="177.61318105319515,35.273397946031764 178.92593147419393,39.935274790157564 180.71604568464682,43.6906666085124 182.26747800037265,48.093529578414746 182.74484178982675,49.0 182.9835236845538,49.0 183.10286463145167,47.964033765834756 182.62550084246323,46.539579198579304 180.47736378991976,42.13671234436333 180.47736378991976,40.97124574659392 178.92593147419393,37.604337910655886 178.68724957946688,35.01440442644525 178.20988579047844,33.46044250787236 176.897135369014,31.0" stroke="#4dd2ff" stroke-linecap="round" stroke-linejoin="round" stroke-width="0.5"><title>2023-12-30 1.0km</title><desc>10458865202</desc></polyline><polyline fill="none" points="20.978762291837484,53.0 18.71215487923473,53.2236037919065 17.166740733664483,54.22982044820674 16.033437027130276,55.347838174086064 15.51829897845164,56.68945835984778 15.10618853988126,61.94412601995282 15.621326588094234,67.19877551647369 15.827381807379425,67.98138133413158 16.13646463630721,68.65218599990476 17.784906391520053,70.44099699554499 19.639403366018087,71.0 21.08178990148008,70.77639882266521 22.833259265869856,69.65839244390372 23.863535362761468,68.76398674899247 24.89381145965308,65.74536364292726 24.790783850476146,63.39754152763635 24.4817010210827,61.385119685321115 24.27564580226317,56.46585507784039 23.966562972869724,55.236036438611336 23.348397314548492,54.453424059203826 22.627204046584666,53.89441497006919 20.978762291837484,53.5590094178915 18.71215487923473,53.67081127688289 17.063713123556226,54.565225852420554 16.239492246415466,55.57144162070472 15.621326588094234,57.13666482537519 15.621326588094234,57.91927582339849 15.93040941702202,59.81990085518919 15.72435419820249,61.385119685321115" stroke="#4dd2ff" stroke-linecap="round" stroke-linejoin="round" stroke-width="0.5"><title>2023-12-29 1.0km</title><desc>10454615358</desc></polyline><polyline fill="none" points="37.48660630453378,54.90909918991383 39.24598189117387,61.18183983606286 42.01071495609358,69.6363697515335 42.890402750112116,71.0 43.0160724343732,71.0 43.0160724343732,69.6363697515335 41.131027163006365,63.909111761138774 39.622990945819765,60.22729371488094 38.617633467540145,58.318199999048375 36.98392756516114,53.0" stroke="#4dd2ff" stroke-linecap="round" stroke-linejoin="round" stroke-width="0.5"><title>2023-12-27 1.0km</title><desc>10441997651</desc></polyline><polyline fill="none" points="56.60691900970414,55.318191617610864 58.617633670568466,59.27274710254278 59.6229910007678,63.36365769722033 61.00535733019933,65.9545630736975 62.639062992762774,70.1818219712004 63.14174165716395,71.0 63.39308099029586,70.86363702046219 62.51339332573116,68.27273850073107 61.25669666333124,66.36365306563675 57.235267341602594,56.818196414853446 56.983928008936346,54.227278276346624 56.60691900970414,53.0" stroke="#4dd2ff" stroke-linecap="round" stroke-linejoin="round" stroke-width="0.5"><title>2023-12-17 1.0km</title><desc>10391591057</desc></polyline><polyline fill="none" points="77.07950775464997,56.16902771452442 78.481344032567,59.84509256517049 80.81773782847449,64.40847251110245 82.92049224441871,70.49296031869017 83.3877710038796,71.0 83.50459069386125,70.87324009358417 83.50459069386125,70.36620037502144 82.92049224441871,68.71832025947515 79.76636062003672,62.50706566812005 78.36452434258536,58.704245691304095 77.31314713414758,54.39437291189097 76.49540930567309,53.0" stroke="#4dd2ff" stroke-linecap="round" stroke-linejoin="round" stroke-width="0.5"><title>2023-12-16 1.0km</title><desc>10386207035</desc></polyline><polyline fill="none" points="97.56786756357178,56.383472079527564 98.06676652468741,58.684229540871456 99.8129128892906,63.96242696943227 100.81071081198752,65.58648467215244 102.18268295563757,70.05263596656732 102.55685717659071,71.0 102.80630665738136,71.0 102.80630665738136,69.64662266056985 100.93543555215001,63.96242696943227 98.3162160050124,59.90227644436527 98.19149126531556,58.27821372705512 97.44314282340929,56.383472079527564 97.69259230373427,55.16542284714524 97.19369334261864,53.0" stroke="#4dd2ff" stroke-linecap="round" stroke-linejoin="round" stroke-width="0.5"><title>2023-12-14 1.0km</title><desc>10376526598</desc></polyline><polyline fill="none" points="123.8635347946547,54.565225852653384 122.9362864443101,53.7826131277252 121.39087252598256,53.111801900318824 119.94848620286211,53.0 118.50609987927601,53.33540567557793 116.65160317765549,54.34162225795444 115.82738242158666,55.459639901760966 115.20921685406938,57.360268009011634 115.20921685406938,61.60872224404011 115.41527204308659,62.95033690426499 115.82738242158666,64.6273535641376 115.51829963782802,66.63977111433633 115.6213272321038,67.42237722000573 115.72435482637957,67.86958052788395 116.75463077239692,69.65839244425297 118.40307228453457,70.88819941575639 118.91821025684476,71.0 119.94848620286211,71.0 120.97876214748248,71.0 122.83325884956867,70.32919637009036 123.8635347946547,69.32299037033226 124.48170036217198,68.20498292252887 124.68775555118918,65.74536364304367 124.79078314593062,64.0683482165914 124.48170036217198,62.05592726240866 124.68775555118918,59.37269517919049 124.58472795644775,57.02486322144978 124.48170036217198,56.242251763120294 123.76050720037892,54.67702763737179 123.45142441662028,54.34162225795444 122.31812087725848,53.55900941800792 120.05151379713789,53.33540567557793 118.60912747355178,53.55900941800792 117.78490671748295,53.89441497018561 116.23949279962108,55.57144162082113 115.6213272321038,57.91927582328208 115.82738242158666,59.48449661070481" stroke="#4dd2ff" stroke-linecap="round" stroke-linejoin="round" stroke-width="0.5"><title>2023-12-13 1.0km</title><desc>10373769329</desc></polyline><polyline fill="none" points="137.8336064396426,55.552249595173635 139.07154561718926,60.65673809009604 140.30948479427025,63.34330525412224 142.7853631488979,70.328361393651 143.28053881973028,71.0 143.52812665514648,71.0 143.65192057285458,70.46268913464155 143.15674490202218,69.65672254085075 141.17604221822694,66.29852457169909 138.328782110475,60.52240962779615 137.9574003573507,58.776138724409975 136.59566726256162,55.82090723980218 136.34807942714542,53.0" stroke="#4dd2ff" stroke-linecap="round" stroke-linejoin="round" stroke-width="0.5"><title>2023-12-12 1.0km</title><desc>10365882163</desc></polyline><polyline fill="none" points="156.49541033664718,53.0 157.7804265464656,55.788744695833884 159.53272137837484,60.225374688743614 160.81773758819327,62.63382618967444 162.6868520756252,68.46480010182131 162.92049138667062,69.98592048813589 163.38777000829577,71.0 163.50458966335282,70.11268045951147 163.27095035277307,69.09860042587388 160.81773758819327,63.52114957885351 159.06544275628403,60.09861399035435 158.59816413512453,58.704245691536926 158.24770516855642,55.788744695833884 157.3131479253061,53.126761220628396" stroke="#4dd2ff" stroke-linecap="round" stroke-linejoin="round" stroke-width="0.5"><title>2023-12-11 1.0km</title><desc>10361067591</desc></polyline><polyline fill="none" points="180.36061714449897,63.04350078164134 182.76473143929616,70.34782927564811 182.88493715412915,70.73913173889741 183.3657600134611,71.0 183.48596572736278,70.86956587433815 183.12534858379513,69.95652672543656 182.04349715076387,67.86957833555061 180.84144000336528,64.60871656169184 177.4756799908355,57.826104874373414 176.51403427263722,53.0" stroke="#4dd2ff" stroke-linecap="round" stroke-linejoin="round" stroke-width="0.5"><title>2023-12-10 1.0km</title><desc>10355395415</desc></polyline><polyline fill="none" points="16.828689941670746,76.1911820312962 18.90223882580176,79.50001687242184 19.878026535734534,83.60296362906229 21.95157541986555,89.42648490634747 22.683416202664375,92.60294311749749 23.171310058329254,93.0 23.293283521663398,92.86764771549497 23.293283521663398,92.60294311749749 23.04933659406379,91.5441243366804 20.487893855199218,86.38237386127003 19.878026535734534,84.92649284633808 19.51210614433512,82.67649259825703 18.90223882580176,80.95590227597859 17.926451115868986,79.23531030898448 17.80447765160352,77.3823632748099 16.70671647787094,75.0" stroke="#4dd2ff" stroke-linecap="round" stroke-linejoin="round" stroke-width="0.5"><title>2023-12-09 1.0km</title><desc>10350143310</desc></polyline><polyline fill="none" points="38.081193710677326,78.49255117913708 38.823957435786724,81.17912446556147 40.43327883956954,85.07464871532284 42.66157001350075,91.52239474025555 43.65192164666951,93.0 43.52812769310549,91.65672254085075 42.78536396799609,89.37314859370235 40.80466070165858,85.8806182127446 39.56672116043046,82.92539498396218 38.204987665172666,80.77613872475922 37.83360580261797,78.62687993713189 36.34807835286483,75.0" stroke="#4dd2ff" stroke-linecap="round" stroke-linejoin="round" stroke-width="0.5"><title>2023-12-08 1.0km</title><desc>10345303898</desc></polyline><polyline fill="none" points="57.09993195021525,75.0 57.33193739457056,75.6293738221284 57.795948282349855,77.26574467681348 58.027953726705164,79.5314863550011 58.4919646140188,81.41960212949198 60.116002722177655,85.44757549010683 61.1600272199139,89.09791816305369 62.204051717650145,91.36364418326411 62.436057162005454,93.0 62.6680626058951,92.87412653130013 62.90006804978475,92.62237956561148 62.90006804978475,92.24475904810242 62.3200544398278,90.7342761453474 60.46401088824496,87.58743248344399 58.25995917012915,81.16785348008852 57.67994556063786,78.52449042350054" stroke="#4dd2ff" stroke-linecap="round" stroke-linejoin="round" stroke-width="0.5"><title>2023-12-07 1.0km</title><desc>10340288256</desc></polyline><polyline fill="none" points="76.65845347428694,75.0 77.3744991584681,76.68346103455406 78.68724957946688,82.25182068638969 80.59670473728329,85.74822356412187 82.14813705300912,90.02159543370362 82.86418273719028,92.74100849858951 83.22220557928085,93.0 83.34154652617872,92.09352957841475 83.10286463191733,90.92806692188606 81.19340947363526,86.91368964756839 79.88065905310214,84.97124574659392 79.16461336892098,83.5467855243478 76.77779442211613,75.38849115080666" stroke="#4dd2ff" stroke-linecap="round" stroke-linejoin="round" stroke-width="0.5"><title>2023-12-06 1.0km</title><desc>10334845031</desc></polyline><polyline fill="none" points="98.34116107597947,78.1034619655693 99.14197986712679,82.20002302597277 99.94279865827411,85.17933391826227 101.88764429371804,90.2689778652275 102.91726845363155,92.62758815078996 103.26047650631517,93.0 102.80286576924846,90.76552767283283 101.65883892448619,88.65518998203333 100.62921476503834,85.67588522285223 99.14197986712679,82.57243717496749 98.45556376036257,80.21381284378003 97.31153691606596,77.73104683100246 96.73952349368483,75.0" stroke="#4dd2ff" stroke-linecap="round" stroke-linejoin="round" stroke-width="0.5"><title>2023-12-05 1.0km</title><desc>10329306344</desc></polyline><polyline fill="none" points="116.69392242329195,76.51049678423442 117.50594147713855,77.7692430865718 118.54996597534046,81.41960212949198 120.63801497081295,86.58044129051268 121.68203946901485,90.10490787529852 122.61006124457344,92.11888552398887 123.30607757670805,93.0 123.30607757670805,92.37063256313559 120.29000680474564,85.44757549010683 119.1299795852974,81.54547644068953 117.85394964320585,78.6503649475053 116.9259278671816,75.0" stroke="#4dd2ff" stroke-linecap="round" stroke-linejoin="round" stroke-width="0.5"><title>2023-12-04 1.0km</title><desc>10324662812</desc></polyline><polyline fill="none" points="136.8737258380279,76.66154566861223 138.14975610887632,81.50771216268186 140.19140454102308,86.07694343582261 141.59503783797845,90.92308570316527 142.61586205428466,92.86153911822475 143.38148021604866,93.0 143.38148021604866,92.44615641166456 142.48825902771205,90.92308570316527 141.33983178436756,87.60001806344371 140.0638015139848,85.66155923262704 139.17058032471687,83.3077136843931 137.63934400025755,77.76924196642358 136.618519784417,75.0" stroke="#4dd2ff" stroke-linecap="round" stroke-linejoin="round" stroke-width="0.5"><title>2023-12-02 1.0km</title><desc>10313350310</desc></polyline><polyline fill="none" points="156.73258963692933,75.95454984041862 157.98928593005985,77.59091985307168 159.49732148181647,82.77274870162364 160.5026785172522,87.00001940899529 162.13638369832188,91.63636975188274 163.14174073329195,93.0 163.267410362605,92.18182197131682 163.0160711039789,90.54546483117156 161.633705180604,87.54547299188562 159.49732148181647,84.13638546620496 158.24062518915161,81.54547475650907 156.98392889508978,75.0" stroke="#4dd2ff" stroke-linecap="round" stroke-linejoin="round" stroke-width="0.5"><title>2023-12-01 1.0km</title><desc>10308709030</desc></polyline><polyline fill="none" points="176.68232080945745,75.0 179.17058020224795,83.55001980031375 181.65883959503844,88.65001455100719 183.04120592400432,92.40000255848281 183.45591582311317,93.0 183.59415245614946,92.55000193545129 183.04120592400432,91.05000766995363 180.96765642985702,88.20001552719623 180.41470989910886,86.70001806365326 178.34116040496156,82.65001940354705 177.37350397417322,78.0000110277906 176.40584754385054,75.30000130133703" stroke="#4dd2ff" stroke-linecap="round" stroke-linejoin="round" stroke-width="0.5"><title>2023-11-30 1.0km</title><desc>10303537703</desc></polyline><polyline fill="none" points="17.94075258821249,100.84829198836815 18.741571026388556,103.4551944816485 19.08477892819792,105.56554117088672 20.343207901809365,108.04829860525206 21.716039509978145,111.77242791187018 23.088871117215604,114.75172544328962 23.317676385398954,115.0 23.546481653116643,114.75172544328962 23.317676385398954,113.8827642062679 22.402455313596874,112.2689778652275 21.14402633998543,108.79312512371689 19.31358419591561,105.06898924615234 18.62716839229688,101.09656858979724 17.2543367841281,98.98621631483547 16.453518346883357,97.0" stroke="#4dd2ff" stroke-linecap="round" stroke-linejoin="round" stroke-width="0.5"><title>2023-11-29 1.0km</title><desc>10298007687</desc></polyline><polyline fill="none" points="36.89713673759252,99.33094561949838 38.20988657930866,102.69786162441596 38.4485683683306,105.15829617308918 40.11934089427814,109.17268200626131 41.07406805222854,112.79857102350798 41.90945431543514,114.48201695899479 42.74484057817608,115.0 43.10286326240748,115.0 43.34154505236074,114.61151273362339 43.22220415715128,114.09352957829833 42.74484057817608,113.18705868988764 40.83538626274094,108.13671234436333 38.92593194777146,103.73383448482491 38.56790926354006,101.66188815457281 37.7325229998678,99.20144872169476 36.65845494763926,97.0" stroke="#4dd2ff" stroke-linecap="round" stroke-linejoin="round" stroke-width="0.5"><title>2023-11-28 1.0km</title><desc>10292316108</desc></polyline><polyline fill="none" points="59.577365040779114,97.0 60.63395244022831,99.8662559457589 61.267904879990965,102.61785669741221 62.11317479936406,103.87900541932322 63.06410345900804,105.71340173971839 64.01503211865202,108.69429115857929 64.86030203802511,110.07008435309399 64.86030203802511,110.75798049510922 64.33200833853334,111.21657775470521 62.64146849932149,112.13377186935395 61.58488109987229,113.05096544418484 60.52829370042309,113.62421115464531 58.94341260101646,114.31210572912823 56.407602842431515,115.0 55.98496788227931,114.8853509761393 55.66799166239798,114.54140385333449 55.13969796244055,112.36307031358592" stroke="#4dd2ff" stroke-linecap="round" stroke-linejoin="round" stroke-width="0.5"><title>2023-11-27 1.0km</title><desc>10287544518</desc></polyline><polyline fill="none" points="78.2599590420723,100.90211396722589 78.83997269440442,102.2867329143919 80.23200546111912,109.33568474079948 81.74004095746204,112.98602338775527 82.55206007137895,114.370632563252 83.13207372371107,115.0 83.24807645427063,114.8741265310673 82.90006826305762,114.24475904798601 82.90006826305762,113.23777059407439 81.97204641858116,111.09791816282086 80.9280218440108,107.57344950502738 79.88399726944044,105.43358999444172 79.1879808860831,101.40561189572327 77.21593446750194,98.25874741270673 76.75192354526371,97.0" stroke="#4dd2ff" stroke-linecap="round" stroke-linejoin="round" stroke-width="0.5"><title>2023-11-26 1.0km</title><desc>10281488289</desc></polyline><polyline fill="none" points="96.722453544382,97.0 98.06022760737687,100.48388377402443 99.26422426477075,105.41937526513357 100.46822092263028,108.17743866576348 100.73577573522925,109.91937146021519 101.40466276742518,111.51614183862694 102.87621423741803,114.27419672347605 103.54510126914829,115.0 103.81265608174726,115.0 101.80599498609081,110.64517633756623 101.53844017302617,109.19356631604023 100.2006661100313,107.30647169239819 97.52511798264459,100.04839863895904 96.18734391825274,97.58064772281796" stroke="#4dd2ff" stroke-linecap="round" stroke-linejoin="round" stroke-width="0.5"><title>2023-11-25 1.0km</title><desc>10275889695</desc></polyline><polyline fill="none" points="116.51178423129022,97.16822495521046 117.4419751027599,101.37384479888715 121.7828658381477,113.14953924051952 122.86808852106333,114.83177635679021 123.33318395726383,115.0 123.4882157696411,114.49532903218642 121.93789764959365,112.4766440478852 120.0775159066543,106.92525115737226 118.83726141043007,104.40188630030025 118.06210235133767,99.52337301988155 117.13191147893667,97.0" stroke="#4dd2ff" stroke-linecap="round" stroke-linejoin="round" stroke-width="0.5"><title>2023-11-24 1.0km</title><desc>10271180196</desc></polyline><polyline fill="none" points="137.7618844024837,99.00000823463779 138.1568459784612,100.14286915806588 139.07842298876494,105.00002058548853 141.31653858721256,111.85715487215202 142.36976945679635,114.71428701689001 142.7647310323082,115.0 143.29134646710008,115.0 143.42300032638013,114.71428701689001 143.15969260875136,113.28572146955412 141.71150016319007,109.14287544379476 137.89353826083243,100.85715689428616 136.57699967408553,97.0" stroke="#4dd2ff" stroke-linecap="round" stroke-linejoin="round" stroke-width="0.5"><title>2023-11-23 1.0km</title><desc>10265414399</desc></polyline><polyline fill="none" points="158.42293546302244,101.0563544301549 158.53975505847484,102.83100649237167 159.00703343981877,105.61974175705109 160.8761469651945,110.94367837370373 161.46024494152516,113.47888050868642 162.39480170421302,115.0 163.0957192759961,115.0 162.97889968100935,114.23944042192306 161.6938841319643,110.94367837370373 160.6425077742897,109.29579498723615 159.12385303527117,104.60565672838129 157.37155910488218,99.78874469583388 156.9042807240039,97.0" stroke="#4dd2ff" stroke-linecap="round" stroke-linejoin="round" stroke-width="0.5"><title>2023-11-21 1.0km</title><desc>10253878272</desc></polyline><polyline fill="none" points="178.06266986951232,101.86133173853159 178.6680855350569,105.8029423590051 181.2108313315548,112.24088767752983 182.30057953018695,114.60584135761019 182.66382892988622,115.0 182.90599519619718,114.86861379561014 183.02707832911983,114.60584135761019 182.5427457964979,112.50366046302952 180.3632493992336,107.77374440978747 179.51566746784374,105.27739477856085 178.18375300243497,100.15329776948784 177.4572542035021,98.83942437497899 176.97292167088017,97.0" stroke="#4dd2ff" stroke-linecap="round" stroke-linejoin="round" stroke-width="0.5"><title>2023-11-20 1.0km</title><desc>10248671423</desc></polyline><polyline fill="none" points="16.795423744712025,120.50000667187851 18.554798943456262,124.31819999893196 19.057477572467178,128.27274908765685 20.43984379991889,131.40910961094778 21.822210027370602,135.36364358162973 22.450558312702924,136.31818500091322 23.204576255287975,137.0 23.078906598500907,135.90909588139039 20.942522428464144,130.3182022041874 19.560156201012433,125.27274710254278 18.17778997309506,122.00001213059295 17.42377203051001,119.0" stroke="#4dd2ff" stroke-linecap="round" stroke-linejoin="round" stroke-width="0.5"><title>2023-11-19 1.0km</title><desc>10242265034</desc></polyline><polyline fill="none" points="36.50164541276172,135.03792825492565 37.28779251081869,132.56400697666686 37.60225135041401,131.9668527743197 38.15255431877449,131.62562166358111 40.82545445347205,131.2843904523179 42.7908221995458,130.85785129718715 43.419739877805114,130.34600410389248 43.81281342729926,129.83415668504313 44.28450168622658,127.70145667501492 44.12727226642892,127.01899184362264 44.441731106024235,126.50714295677608 44.20588697632775,122.5829606532352 44.04865755699575,122.07110980903963 43.97004284663126,120.53555592079647 43.81281342729926,119.5971608775435 42.94805161934346,119.34123482485302 42.240519230719656,119.85308687353972 42.39774865005165,119.5971608775435 42.55497806984931,119.85308687353972 41.53298684209585,119.34123482485302 41.454372132662684,119.0 41.218528002500534,119.17061742488295 41.37575742229819,119.0853087156429 40.82545445347205,119.76777821453288 40.90406916337088,119.6824695491814 42.55497806984931,120.53555592079647 42.161904520820826,120.87679029384162 41.53298684209585,121.13271600776352 40.039307355415076,121.38864166522399 39.960692645050585,121.04740744258743 40.35376619407907,120.87679029384162 40.90406916337088,120.96209887135774 42.55497806984931,119.34123482485302 44.83480465505272,119.4265435153502 44.598960525821894,119.25592612795299 44.28450168622658,119.17061742488295 44.04865755699575,123.26542809442617 44.12727226642892,124.45974515046692 44.363116395659745,125.90998563647736 44.520345815923065,128.38392110483255 44.520345815923065,129.23700107744662 44.28450168622658,130.0900804225821 43.81281342729926,130.60192772879964 39.88207793561742,131.02846697799396 38.07393960934132,131.3696982645779 37.13056309148669,132.05216053628828 36.02995715336874,133.58769917994505 35.40103947510943,135.80569585470948 35.16519534541294,137.0" stroke="#4dd2ff" stroke-linecap="round" stroke-linejoin="round" stroke-width="0.5"><title>2023-11-18 1.0km</title><desc>10236386505</desc></polyline><polyline fill="none" points="56.3268576124683,119.0 58.93360382318497,123.50001736893319 59.88151153549552,126.84287991863675 60.23697692807764,128.77145155961625 60.947907712776214,129.92859352345113 63.1991885304451,136.48571685689967 63.6731423875317,137.0 63.6731423875317,136.48571685689967 63.1991885304451,135.84286271536257 61.89581542555243,131.98573290230706 61.18488464085385,130.70002107415348 60.947907712776214,128.51430879719555 59.88151153549552,125.81430750666186 58.69662689464167,123.24287383153569 58.57813843060285,121.82858369813766" stroke="#4dd2ff" stroke-linecap="round" stroke-linejoin="round" stroke-width="0.5"><title>2023-11-17 1.0km</title><desc>10231268371</desc></polyline><polyline fill="none" points="76.78934295522049,119.58064772293437 78.52844885410741,122.04839863884263 78.92978098476306,125.38711555744521 80.13377737673,128.00002051191404 82.00666065281257,134.96775015315507 83.21065704477951,137.0 83.07687966758385,135.8387146294117 82.14043803000823,133.95162444526795 81.47155114542693,132.0645324572688 80.40133213018999,127.56453659269027 78.26089410064742,123.06453047250398 77.59200721606612,121.03226628201082 77.19067508541048,119.0" stroke="#4dd2ff" stroke-linecap="round" stroke-linejoin="round" stroke-width="0.5"><title>2023-11-16 1.0km</title><desc>10225818993</desc></polyline><polyline fill="none" points="96.87852752860636,119.19354904140346 97.7703768061474,122.67742935777642 99.19733565021306,126.54840207961388 101.15940406080335,130.22582089412026 101.87288348283619,133.12904264521785 103.12147247139364,135.6451655733399 104.3700614599511,137.0 101.15940406080335,131.00001367391087 99.73244521673769,126.54840207961388 95.6299385400489,119.0" stroke="#4dd2ff" stroke-linecap="round" stroke-linejoin="round" stroke-width="0.5"><title>2023-11-15 1.0km</title><desc>10219684298</desc></polyline><polyline fill="none" points="116.81951958918944,121.16542284714524 118.44094097521156,123.19550445268396 118.69039041921496,125.7669379391009 120.56126124924049,130.23310335271526 121.68378374679014,134.02256853983272 122.80630624480546,136.86466231115628 123.30520513281226,137.0 123.1804804103449,135.37594707356766 121.55905902478844,133.21054094214924 120.93543541477993,131.31580848805606 119.93763763876632,130.09776516607963 119.56346347276121,128.60904445615597 117.69259264320135,124.81956812529825 117.06896903319284,122.11279454140458 116.69479486718774,119.0" stroke="#4dd2ff" stroke-linecap="round" stroke-linejoin="round" stroke-width="0.5"><title>2023-11-14 1.0km</title><desc>10213806154</desc></polyline><polyline fill="none" points="137.5958851748146,121.47827171022072 138.55753110535443,125.1304552895017 141.20205741235986,131.91306199040264 141.80308611830696,134.1304470184259 143.00514353159815,136.60869759391062 143.36576075525954,137.0 142.6445263074711,135.695658311015 140.9616459296085,131.65219298156444 140.84144018869847,130.60871656169184 139.63938277587295,127.73915324313566 137.83629665756598,124.47828020178713 137.11506220977753,122.26088311010972 136.63423924474046,119.0" stroke="#4dd2ff" stroke-linecap="round" stroke-linejoin="round" stroke-width="0.5"><title>2023-11-13 1.0km</title><desc>10208522228</desc></polyline><polyline fill="none" points="157.9892856348306,121.04546334268525 159.24598211282864,124.86365554714575 160.7540178867057,128.000021835207 161.63370542181656,131.68183636269532 162.51339295646176,134.27273850084748 163.64441978698596,136.72727403056342 164.147098377347,137.0 164.39843767369166,136.45454802096356 163.01607154728845,133.72728572005872 162.2620536610484,130.7272925573634 159.49732140870765,128.1363854664378 157.9892856348306,125.95456616173033 157.7379463389516,123.63638033857569 155.60156232584268,119.0" stroke="#4dd2ff" stroke-linecap="round" stroke-linejoin="round" stroke-width="0.5"><title>2023-11-12 1.0km</title><desc>10202270880</desc></polyline><polyline fill="none" points="177.27653280971572,122.35822241124697 180.24758792715147,129.07464871543925 181.2379396329634,132.4328526093159 182.2282913387753,135.11941128061153 182.84726115502417,136.32836139411665 183.46623097080737,137.0 183.59002493415028,136.4626891349908 182.47587926499546,133.10449264734052 180.37138189002872,129.880618212861 178.14309055218473,124.77613872487564 177.27653280971572,121.14926305413246 176.40997506631538,119.0" stroke="#4dd2ff" stroke-linecap="round" stroke-linejoin="round" stroke-width="0.5"><title>2023-11-11 1.0km</title><desc>10196068378</desc></polyline><polyline fill="none" points="18.326608318835497,143.68422009726055 20.36378079978749,149.84212411462795 22.255440961569548,154.8947501218645 23.128514881245792,158.21052947919816 23.710564161650836,159.0 24.00158880185336,158.6842118264176 23.565051841549575,156.78948180971202 21.38236704096198,151.89475486346055 19.199682239443064,147.31580665381625 16.289435837883502,142.73684868169948 15.99841119768098,141.0" stroke="#4dd2ff" stroke-linecap="round" stroke-linejoin="round" stroke-width="0.5"><title>2023-11-10 1.0km</title><desc>10191120477</desc></polyline><polyline fill="none" points="35.821245764847845,141.54962088621687 37.97393734101206,143.1984825761756 39.2402265034616,145.39696256595198 39.62011325219646,146.22139189543668 39.62011325219646,147.45803520805202 41.01303132995963,151.71757813193835 41.51954699493945,154.19085666537285 42.53257832489908,156.93894008581992 42.785836156923324,158.31298028095625 43.418980738613755,159.0 43.79886748641729,158.86259607644752 44.178754235152155,158.31298028095625 42.785836156923324,157.35115225065965 40.50651566544548,154.0534523880342 37.84730842523277,146.77101124660112 37.21416384354234,142.64886217436288 36.58101926231757,141.0" stroke="#4dd2ff" stroke-linecap="round" stroke-linejoin="round" stroke-width="0.5"><title>2023-11-09 1.0km</title><desc>10185506531</desc></polyline><polyline fill="none" points="56.48859197832644,142.44526216865052 57.82050536619499,145.07300857105292 58.30483750626445,146.38688032352366 59.87891696533188,149.80294235935435 60.48433214100078,152.16790455882438 60.363249105867,150.72265025309753 60.60541517660022,151.64235767372884 61.089747317135334,155.18979614810087 62.17949463427067,158.47445512423292 62.66382677573711,159.0 63.26924195187166,158.73722758109216 63.51140802213922,158.34306888096035 62.17949463427067,157.16059225820936 61.210830352734774,155.58395554404706 60.60541517660022,153.87593086762354 59.75783392973244,150.98542385036126 58.54700357746333,149.2773947789101 57.215090189594775,146.38688032352366 56.85184108372778,144.2846850559581 56.972924118861556,141.65693749429192 56.730758048594,141.0" stroke="#4dd2ff" stroke-linecap="round" stroke-linejoin="round" stroke-width="0.5"><title>2023-11-08 1.0km</title><desc>10179505859</desc></polyline><polyline fill="none" points="79.1879807668738,150.9440793383401 83.24807693203911,159.0 83.4800824271515,158.87412653141655 82.90006868960336,157.4895177630242 81.85604396136478,155.72728680237196 81.16002747556195,153.96505402820185 79.76799450442195,152.45456734951586 79.3039835151285,151.57344950479455 78.95597527176142,148.55247059487738 78.72396977664903,147.6713507422246 77.33193680597469,145.27973742736503 76.5199175728485,141.0" stroke="#4dd2ff" stroke-linecap="round" stroke-linejoin="round" stroke-width="0.5"><title>2023-11-06 1.0km</title><desc>10167691585</desc></polyline><polyline fill="none" points="98.26955626299605,146.0503782769665 99.10494289500639,147.6043379106559 102.2078075259924,154.72663535596803 103.52055794699118,158.7410084985895 103.75923984171823,159.0 103.99792173597962,159.0 103.99792173597962,158.61151273350697 103.04319415707141,156.5395791985793 102.2078075259924,155.37411551410332 102.08846657862887,154.72663535596803 101.37242089444771,153.94965885241982 99.34362478926778,150.45326034456957 96.95680584199727,144.36692046013195 96.00207826355472,141.0" stroke="#4dd2ff" stroke-linecap="round" stroke-linejoin="round" stroke-width="0.5"><title>2023-11-05 1.1km</title><desc>10161301187</desc></polyline><polyline fill="none" points="116.63423998747021,141.0 119.03835428180173,146.3478451555129 120.12020571436733,151.04350078164134 121.80308572063223,154.30436543212272 122.40411429479718,156.9130528375972 123.00514286803082,159.0 123.36576001252979,158.60869759402703 123.24555429723114,158.21739510179032 121.6828800062649,155.34784085466526 121.56267429096624,154.95653764309827 120.12020571436733,152.7391511480091 119.51917714066803,150.65219662082382 117.95650284923613,147.78263013751712 117.59588570520282,145.30436443991493 116.87465141667053,142.69565996550955" stroke="#4dd2ff" stroke-linecap="round" stroke-linejoin="round" stroke-width="0.5"><title>2023-11-04 1.0km</title><desc>10155501797</desc></polyline><polyline fill="none" points="144.8292560079135,143.73419068823569 143.46446626633406,141.91139743244275 142.62459565652534,141.3417740999721 140.94485443644226,141.0 139.37009704252705,141.11392470856663 137.16543669067323,142.139246706618 136.22058225423098,143.05064346885774 135.3807116439566,144.759510952048 135.1707439920865,146.12660358159337 134.8557925131172,150.6835702988319 135.06576016545296,155.46837092377245 135.27572781778872,156.15191266383044 136.32556608086452,157.86076569382567 137.58537199581042,158.77215320582036 139.68504852149636,159.0 141.5747573939152,158.20253607374616 143.35948244063184,156.0379890614422 143.8844015719369,155.01267626299523 144.61928835557774,151.7088859624928 144.61928835557774,149.08863347244915 145.1442074868828,145.6709061722504 145.03922366071492,144.41773760621436 143.8844015719369,143.05064346885774 142.93954713549465,142.36709594738204 140.73488678364083,141.3417740999721 139.5800646948628,141.3417740999721 137.060452864971,142.139246706618 135.90563077572733,143.16456802631728 135.1707439920865,144.53166206309106 134.96077633928508,145.44305741763674 135.1707439920865,149.20255758613348 134.96077633928508,150.9114182825433" stroke="#4dd2ff" stroke-linecap="round" stroke-linejoin="round" stroke-width="0.5"><title>2023-11-03 1.0km</title><desc>10152446508</desc></polyline><polyline fill="none" points="156.27463989239186,141.0 157.25869727879763,143.13560138468165 158.10217503923923,146.94916981831193 159.50797130679712,149.69493475090712 161.61666570650414,155.18645371461753 162.03840458672494,156.10170546243899 162.74130272027105,158.54237481567543 163.16304160049185,159.0 163.72536010714248,159.0 163.72536010714248,158.6949165549595 162.74130272027105,158.23729130346328 162.3195638405159,157.1694986578077 161.33550645317882,156.25424738100264 160.63260832009837,154.2712015635334 159.64855093276128,152.74578041420318 158.52391391946003,150.45764658704866 157.25869727879763,145.72882868233137 156.41521951835603,143.74577280506492" stroke="#4dd2ff" stroke-linecap="round" stroke-linejoin="round" stroke-width="0.5"><title>2023-11-02 1.1km</title><desc>10144903556</desc></polyline><polyline fill="none" points="176.93475404940546,142.30435396311805 177.1751654963009,143.73914221522864 178.13681128481403,145.95653995871544 179.81969141447917,151.9565434876131 182.70462878094986,157.95652672555298 183.54606884531677,159.0 183.06524595152587,157.4347898582928 181.2621600977145,154.6956687872298 180.3005143092014,151.17393548239488 179.09845707379282,149.47828362043947 177.65598839055747,146.34784515528008 176.45393115468323,141.0" stroke="#4dd2ff" stroke-linecap="round" stroke-linejoin="round" stroke-width="0.5"><title>2023-11-01 1.0km</title><desc>10138966680</desc></polyline><polyline fill="none" points="17.380781223531812,163.27067799540237 18.004404742270708,165.3007616904797 19.002202371601015,170.71430726593826 20.623623518273234,174.23310335283168 21.62142114760354,177.48121684766375 23.242842295207083,181.0 23.367566999047995,180.8646623105742 22.245044665876776,179.24060926458333 20.623623518273234,175.45114658481907 19.251651778351516,173.01505931455176 16.88188240956515,165.84211696428247 16.632433001417667,163.0" stroke="#4dd2ff" stroke-linecap="round" stroke-linejoin="round" stroke-width="0.5"><title>2023-10-31 1.0km</title><desc>10133123337</desc></polyline><polyline fill="none" points="37.17383081186563,165.1333426652709 37.788215418346226,168.33335195819382 37.788215418346226,169.5333539872663 39.13986155157909,171.80002232000697 42.82616918860003,179.66667279333342 43.44055379508063,180.8666673231637 43.686307637020946,181.0 40.86013844888657,175.40001914394088 39.6313692368567,171.93335566332098 38.279723103158176,169.1333533989964 36.313692363444716,163.0" stroke="#4dd2ff" stroke-linecap="round" stroke-linejoin="round" stroke-width="0.5"><title>2023-10-30 1.0km</title><desc>10127985445</desc></polyline><polyline fill="none" points="57.162513305433095,165.60527560755145 57.70818382361904,169.27633863000665 58.035586134530604,170.46055072336458 60.21826820774004,175.5526528044138 61.309609243646264,178.5131698701298 62.946620798669755,180.76315920078196 63.38315721368417,181.0 63.4922913168557,180.6447387879016 62.510084384121,179.10527262999676 61.09134103683755,176.026335900533 58.58125665271655,171.40791977138724 57.59904971951619,167.97370432177559 56.83511099405587,166.43422605399974 56.72597689041868,164.06579507607967 56.5077086831443,163.0" stroke="#4dd2ff" stroke-linecap="round" stroke-linejoin="round" stroke-width="0.5"><title>2023-10-28 1.0km</title><desc>10115543824</desc></polyline><polyline fill="none" points="77.66533815301955,166.73334801755846 78.64835366792977,169.93335448706057 79.75424612080678,172.46668893785682 80.737261635717,176.06668443838134 82.21178490761667,179.53334001882467 82.82616960350424,180.8666673237458 83.44055429985747,181.0 83.5634312396869,180.8666673237458 83.31767736049369,180.06667105830275 82.58041572477669,178.0666788512608 80.12287693936378,173.26668855571188 78.156845910009,167.9333511054283 76.92807651730254,165.26667649880983 76.4365687603131,163.0" stroke="#4dd2ff" stroke-linecap="round" stroke-linejoin="round" stroke-width="0.5"><title>2023-10-27 1.0km</title><desc>10110442644</desc></polyline><polyline fill="none" points="97.56053018663079,165.77942351426464 99.8780265096575,173.58825709018856 100.7318409443833,175.9706063530175 101.58565537957475,177.42648490646388 102.56144330464303,180.20588614756707 102.92736377660185,180.7352954216767 103.65920472098514,181.0 103.78117821086198,180.60294311773032 103.65920472098514,180.07353380485438 102.43946981383488,178.48530493315775 100.60986745357513,175.3088429851923 98.41434462182224,168.82354910613503 96.95066273352131,166.44119038514327 96.21882178913802,163.0" stroke="#4dd2ff" stroke-linecap="round" stroke-linejoin="round" stroke-width="0.5"><title>2023-10-26 1.0km</title><desc>10104873905</desc></polyline><polyline fill="none" points="119.09845727263018,171.6087184365606 121.86318830493838,178.52174997131806 123.18545097252354,180.86956587433815 123.66627376014367,181.0 123.54606806393713,179.695658311015 120.30051424261183,174.0869781221263 118.49742878694087,169.52176022727508 116.93475472507998,166.26088311045896 116.33372623985633,163.0" stroke="#4dd2ff" stroke-linecap="round" stroke-linejoin="round" stroke-width="0.5"><title>2023-10-25 1.0km</title><desc>10098978222</desc></polyline><polyline fill="none" points="136.67021359270439,163.0 136.54913045093417,163.91971242427826 137.2756293034181,166.9416213426739 138.24429444037378,168.9124287540326 138.84971015015617,171.27739477867726 139.93945842934772,174.43067794316448 142.24003812810406,178.8978195694508 142.966536980588,180.737227581325 143.20870326505974,181.0 143.45086954906583,180.8686137953773 143.32978640682995,179.16059225809295 141.99787184409797,176.6642501518363 141.02920670807362,175.2189978651004 139.8183752866462,172.45987661753315 139.57620900310576,171.01462093077134 138.12321129767224,168.78104166104458 137.2756293034181,166.8102341046324 137.03346301894635,164.44526216841768 136.67021359270439,163.0" stroke="#4dd2ff" stroke-linecap="round" stroke-linejoin="round" stroke-width="0.5"><title>2023-10-24 1.0km</title><desc>10092835699</desc></polyline><polyline fill="none" points="158.1502161314711,166.1079268073663 159.9403295526281,172.45326034456957 160.7757158158347,174.0072160938289 161.73044297331944,177.89209946908522 163.16253370977938,180.4820169589948 163.75923818396404,181.0 163.16253370977938,180.35252117482014 162.32714744703844,178.28058733535 160.17901134165004,175.69066660827957 159.7016477631405,174.7841934543103 159.2242841841653,171.80577837780584 157.7921934472397,168.9568548965035 156.83746628975496,165.9784299666062 156.24076181650162,163.0" stroke="#4dd2ff" stroke-linecap="round" stroke-linejoin="round" stroke-width="0.5"><title>2023-10-23 1.0km</title><desc>10087395010</desc></polyline><polyline fill="none" points="174.17224500933662,163.08633225236554 174.4904841897078,163.0 176.75793835008517,163.1726644920418 177.75243578874506,163.43166113487678 177.99111517402343,163.56115941354074 178.5082538423594,163.94965407782 178.86627292004414,164.3813145144959 179.66187087097205,165.8489576249267 180.059669846436,167.4892602887703 180.57680851477198,168.35257563943742 180.81548789981753,169.04322700586636 181.37240646546707,170.29503053677035 181.77020544116385,171.58999689779012 182.3669039043598,172.62596793007106 182.64536318718456,172.92812580347527 183.00338226510212,173.5324410837493 183.2022817528341,174.82740030408604 183.32162144547328,175.17272228054935 183.63986062561162,175.6475396664464 183.71942042093724,176.38134759839159 183.83876011357643,176.68350353906862 185.58907560561784,180.82734075089684 185.8277549908962,181.0 185.8277549908962,180.78417593060294 185.46973591297865,180.43885725463042 185.07193693774752,179.48922984837554 184.67413796205074,178.6690958525287 183.60008072829805,175.34538319258718" stroke="#4dd2ff" stroke-linecap="round" stroke-linejoin="round" stroke-width="0.5"><title>2023-10-22 1.5km</title><desc>10080655811</desc></polyline><polyline fill="none" points="17.13705715793185,185.0 17.768588667269796,185.45685924118152 16.631831950275227,185.27411558496533 18.400120176374912,187.5584074241924 18.56852857908234,188.10663621604908 18.442222277168185,188.56349317287095 17.85279286839068,188.88329284300562 17.684384465916082,189.2030923484126 17.726486566476524,189.75131968891947 18.063303371425718,191.07620043179486 18.442222277168185,192.03559506835882 18.863243283238262,193.4975269040442 19.621081094490364,194.82239965925692 19.74738739640452,195.3249368618708 20.21051050303504,196.14726958947722 20.505225207656622,196.51275045255898 20.547327307984233,196.74117588269291 20.842042012605816,197.01528628816595 21.052552515640855,197.47213669511257 21.347267220029607,198.3401515429723 21.64198192441836,198.93405574030476 21.59987982385792,200.12186243198812 22.14720713184215,201.1726126128342 22.31561553431675,201.675144680019 22.61033023847267,202.22336101706605 23.115555446129292,202.86294613225618 23.368168049957603,203.0 22.39981973543763,201.62945996341296 22.189309232402593,200.89850404136814 21.768288226099685,199.98480792954797 21.59987982385792,199.3909047365305 21.052552515640855,198.6142612430849 20.589429408777505,197.28939657268347" stroke="#4dd2ff" stroke-linecap="round" stroke-linejoin="round" stroke-width="0.5"><title>2023-10-20 1.4km</title><desc>10069668027</desc></polyline><polyline fill="none" points="36.378020914969966,185.0 36.46374823059887,185.69768395990832 37.149566755397245,187.3721223237808 37.32102138688788,188.39538803097093 38.7355220944155,191.83726962580113 38.86411306774244,192.302387323929 38.94984038360417,193.0000632299343 39.12129501462914,193.46518007316627 40.150022802175954,194.90704011387425 40.707250353647396,196.02331659808988 41.050159616163,197.13959111261647 41.35020522098057,197.7442389856442 41.52165985223837,198.67446535412455 41.73597814119421,199.13957802538062 42.29320569266565,200.58142513339408 42.37893300829455,201.13955861562863 43.19334250688553,202.81395610782783 43.407660795841366,203.0 43.5362517691683,203.0 43.6219790847972,202.95348903205013 43.57911542709917,202.9069780607242 42.72184227104299,201.83722477586707 42.33606935059652,200.5349139876198 41.52165985223837,199.04655551846372 41.393068878678605,198.44190889014862 41.307341563049704,197.41865943354787" stroke="#4dd2ff" stroke-linecap="round" stroke-linejoin="round" stroke-width="0.5"><title>2023-10-19 1.3km</title><desc>10064004415</desc></polyline><polyline fill="none" points="55.94113790709525,185.0 57.70586055610329,187.29788272990845 57.5882123792544,188.95746281044558 57.823508732486516,190.61704130494036 58.64704596903175,193.55321475525852 59.82352773472667,195.46810780919623 61.000009500887245,198.7872507669963 63.35297303367406,202.61702321912162 63.705917563289404,203.0 64.05886209290475,202.87234108219855 62.529435796663165,201.3404333399376 59.70587955834344,195.8510861665709 58.999990498647094,193.4255551431561 56.99997149594128,189.21278268191963" stroke="#4dd2ff" stroke-linecap="round" stroke-linejoin="round" stroke-width="0.5"><title>2023-10-18 1.0km</title><desc>10058081424</desc></polyline><polyline fill="none" points="76.85825903527439,186.09091406327207 77.86361614381894,191.95456616184674 80.50267855450511,198.9091062474763 82.26205349434167,202.59091103076935 83.01607132609934,203.0 83.39308024197817,203.0 83.64441951876506,202.4545480213128 82.76473204931244,201.36364358162973 81.63370530167595,199.59092249977402 80.12566963862628,196.31820220442023 79.49732144596055,194.4091126989806 76.85825903527439,189.09092442982364 76.60691975848749,188.27274026570376 76.35558048123494,185.0" stroke="#4dd2ff" stroke-linecap="round" stroke-linejoin="round" stroke-width="0.5"><title>2023-10-17 1.0km</title><desc>10051702317</desc></polyline><polyline fill="none" points="95.98050376260653,185.41538655466866 97.25653431424871,187.63077996543143 99.17058014171198,192.61540561076254 100.19140458293259,194.55386757676024 101.33983207913116,198.15386307716835 102.74346568621695,201.75385169649962 103.25387790706009,202.72307822608855 103.89189318241552,203.0 104.01949623785913,202.86153911834117 103.89189318241552,202.44615641143173 102.48825957579538,200.36924150353298 100.57421374879777,195.66155923274346 99.17058014171198,192.75386724586133 98.02215264551342,187.3538559313165 97.38413736922666,185.0" stroke="#4dd2ff" stroke-linecap="round" stroke-linejoin="round" stroke-width="0.5"><title>2023-10-16 1.0km</title><desc>10046279660</desc></polyline><polyline fill="none" points="116.31368951732293,185.0 116.84030530136079,186.14286210003775 117.36692108446732,188.71429936750792 118.55180659657344,192.71430613135453 120.13165394589305,195.14287764916662 121.97480918699875,202.00000437430572 122.633078916464,202.71428701665718 123.55465653678402,203.0 123.68631048314273,202.71428701665718 123.55465653678402,201.8571478142403 121.84315524157137,199.42858468799386 120.92157762078568,196.57144771213643 119.86834605457261,194.85716351040173 117.36692108446732,189.0000144095393 116.44534346368164,185.0" stroke="#4dd2ff" stroke-linecap="round" stroke-linejoin="round" stroke-width="0.5"><title>2023-10-15 1.0km</title><desc>10039610121</desc></polyline><polyline fill="none" points="136.25423207087442,186.3064571354771 136.65556434867904,190.51614647032693 137.72578375739977,193.5645365928067 139.06355801783502,195.45163288107142 139.86622257437557,198.06453245715238 142.1404388169758,202.12903603585437 142.6755485208705,202.70967872138135 143.34443565178663,203.0 143.74576792959124,202.70967872138135 143.74576792959124,202.2741967231268 141.07021940825507,200.0967852922622 139.3311128700152,196.9032441836316 138.6622257400304,194.1451817966299 137.0568966269493,190.51614647032693 136.25423207087442,187.4677516417578 136.38800949696451,185.5806477224687 136.25423207087442,185.0" stroke="#4dd2ff" stroke-linecap="round" stroke-linejoin="round" stroke-width="0.5"><title>2023-10-14 1.0km</title><desc>10033377496</desc></polyline><polyline fill="none" points="155.91872827988118,185.28571558836848 158.28849895577878,188.1428691581823 158.551806808915,190.2857315784786 160.7899235584773,197.14287544356193 162.89638638170436,202.14286092377733 163.5546560138464,203.0 164.08127171965316,203.0 164.08127171965316,202.5714305093279 163.94961779285222,202.14286092377733 162.76473245490342,201.2857214693213 161.448193191085,198.85715762886684 159.99999999953434,194.28573510737624 157.3669214709662,188.42858428391628 156.9719596914947,186.42857752018608 156.313690058887,185.0" stroke="#4dd2ff" stroke-linecap="round" stroke-linejoin="round" stroke-width="0.5"><title>2023-10-13 1.0km</title><desc>10028006924</desc></polyline><polyline fill="none" points="176.1378172035329,185.0 177.40410664491355,186.6488621745957 178.16388031002134,188.0229128751671 178.29050925420597,189.80917727621272 178.16388031002134,191.73284472187515 179.55679869512096,194.6183421780588 181.2029749690555,199.0152821157826 182.84915124299005,202.03817232279107 183.22903807554394,202.58778819919098 183.86218279600143,203.0 183.86218279600143,202.31298028118908 182.46926441043615,200.5267278305255 181.2029749690555,198.32826093258336 179.55679869512096,193.79391478805337 178.54376714210957,192.007654195535 178.0372513658367,190.4962015914498" stroke="#4dd2ff" stroke-linecap="round" stroke-linejoin="round" stroke-width="0.5"><title>2023-10-12 1.0km</title><desc>10021974100</desc></polyline><polyline fill="none" points="17.89550185156986,209.5522495948244 18.390677886083722,212.23882426461205 18.266883877571672,213.31345302646514 19.381029956042767,216.9403204311384 20.2475880170241,218.5522591888439 21.114146078471094,221.50747655145824 22.35208616545424,224.46268913452514 22.59967418340966,224.73134458682034 23.218644227366894,225.0 23.094850217923522,224.46268913452514 21.733116121962667,220.97016465931665 20.2475880170241,218.41793101315852 18.266883877571672,213.85076717019547 17.77170784212649,212.1044956248952 17.52411982510239,209.5522495948244 16.781355772633106,207.0" stroke="#4dd2ff" stroke-linecap="round" stroke-linejoin="round" stroke-width="0.5"><title>2023-10-10 1.0km</title><desc>10009069592</desc></polyline><polyline fill="none" points="36.95066273305565,209.2500098424498 37.80447716778144,211.6323701395886 38.658291602507234,214.80884563201107 40.487893962766975,218.7794321157271 41.95157585060224,223.80882909044158 42.80539028532803,225.0 43.04933726694435,224.60294311773032 43.17131075728685,223.14706713322084 42.317496322561055,220.63236947765108 40.487893962766975,217.4559042607434 38.41434462135658,211.6323701395886 37.80447716778144,208.98530294792727 36.82868924224749,207.0" stroke="#4dd2ff" stroke-linecap="round" stroke-linejoin="round" stroke-width="0.5"><title>2023-10-09 1.0km</title><desc>10003389142</desc></polyline><polyline fill="none" points="56.33512142067775,207.0 57.23526703706011,208.11628403502982 58.13541265344247,210.20931483071763 58.64978157635778,214.3953694977099 60.578665039502084,218.58141493203584 62.25036404049024,223.3255885966355 63.021917425561696,224.7209315354703 63.66487857978791,225.0 63.66487857978791,223.88372589554638 61.2216261937283,219.97676135855727 58.00682042259723,212.1628081573872 56.72089811321348,207.13953554059844" stroke="#4dd2ff" stroke-linecap="round" stroke-linejoin="round" stroke-width="0.5"><title>2023-10-08 1.0km</title><desc>9996447828</desc></polyline><polyline fill="none" points="77.68947410071269,210.60001482162625 78.28191663930193,212.78573449037503 80.05924425413832,217.54287962068338 80.65168679272756,219.60001945286058 82.54750291490927,224.35714604717214 83.13994545349851,225.0 83.25843396084383,224.48571685678326 83.25843396084383,223.97143356245942 81.00715231569484,219.98573290207423 79.940755746793,217.67145093088038 78.04493962367997,212.01430433080532 77.45249708509073,209.05715223390143 76.74156603915617,207.0" stroke="#4dd2ff" stroke-linecap="round" stroke-linejoin="round" stroke-width="0.5"><title>2023-10-07 1.0km</title><desc>9989974159</desc></polyline><polyline fill="none" points="98.5293982247822,212.36172163987067 99.4705833606422,215.42555514350533 100.17647221311927,216.9574698683573 101.58824991760775,222.95745619398076 101.94119434338063,224.10638738039415 102.6470831958577,225.0 103.23532390547916,225.0 103.47062018932775,224.48936427361332 103.35297204786912,224.10638738039415 101.94119434338063,222.06384252291173 100.52941663889214,219.00002073205542 100.05882407119498,216.9574698683573 97.5882130889222,210.95746281091124 97.23526866268367,208.78724238602445 96.52937981067225,207.0" stroke="#4dd2ff" stroke-linecap="round" stroke-linejoin="round" stroke-width="0.5"><title>2023-10-06 1.0km</title><desc>9984428862</desc></polyline><polyline fill="none" points="116.12483936548233,207.0 118.16439759451896,212.45903345034458 119.52410308038816,217.0328068000963 121.83560240641236,222.78689395042602 122.78739624656737,224.7049193349667 123.19530789228156,225.0 123.73919008672237,225.0 123.87516063498333,224.7049193349667 123.46724898880348,223.96721748064738 121.83560240641236,221.60656972648576 120.88380856625736,219.6885413810378 119.25216198293492,215.40985615958925 118.57230924023315,213.19673953438178 116.6687215603888,209.65574785752688 116.6687215603888,208.32787436805665" stroke="#4dd2ff" stroke-linecap="round" stroke-linejoin="round" stroke-width="0.5"><title>2023-10-04 1.0km</title><desc>9971682885</desc></polyline><polyline fill="none" points="137.27562950411811,209.10219913115725 137.88104516966268,211.20439578976948 138.48646083520725,212.64965455804486 138.97079336829484,214.8832339918008 141.27137289801612,219.48177109507378 141.39245603140444,221.05840966361575 142.11895483080298,224.21168262825813 142.36112109664828,224.6058413576102 143.08761989604682,225.0 143.08761989604682,223.68613752059173 141.5135391652584,220.79563666554168 140.42379096662626,218.29929125588387 139.81837530015036,217.11681063415017 139.21295963414013,215.40878168831114 138.002128303051,212.912428754149 137.5177957699634,210.9416213426739 137.27562950411811,208.97081175807398 136.91238010441884,207.0" stroke="#4dd2ff" stroke-linecap="round" stroke-linejoin="round" stroke-width="0.5"><title>2023-10-03 1.0km</title><desc>9965060084</desc></polyline><polyline fill="none" points="156.70973855769262,207.7438048243057 158.35486927861348,213.09919148962945 158.62905773241073,215.47935879125725 159.58871732000262,216.66944139194675 160.27418845379725,218.45456398068927 161.50803649425507,223.06612337986007 162.46769608184695,224.55372094386257 163.1531672156416,225.0 163.29026144277304,224.8512403254863 162.87897876231,223.6611625365913 161.37094226805493,220.83472498285118 158.90324618574232,214.88431722810492 157.39520969148725,210.42149992857594 157.12102123815566,207.0" stroke="#4dd2ff" stroke-linecap="round" stroke-linejoin="round" stroke-width="0.5"><title>2023-10-02 1.0km</title><desc>9958643020</desc></polyline><polyline fill="none" points="177.146795372013,210.16801199468318 177.41220975574106,211.46401542495005 180.33176798000932,218.37601923558395 181.79154709167778,222.84000873356126 182.58779024379328,224.4240025616018 183.3840333954431,225.0 183.51674058800563,224.85600065614562 183.3840333954431,224.2800031756051 180.72988955536857,220.2480160703417 178.20845290785655,214.0560197121231 177.01408817991614,210.31201241828967 176.48325941199437,207.0" stroke="#4dd2ff" stroke-linecap="round" stroke-linejoin="round" stroke-width="0.5"><title>2023-10-01 1.0km</title><desc>9952075403</desc></polyline><polyline fill="none" points="17.415576563216746,231.60870696778875 18.497428234666586,233.8261048743734 18.97825119877234,236.04350000969134 19.338868422899395,238.1304576053517 21.14195454167202,243.21740646020044 22.70462917815894,246.47826343949419 23.425863625016063,247.0 23.666275108233094,246.60869759391062 21.262160283513367,242.95653764309827 20.180308612063527,240.47828196594492 19.819691387936473,239.17393548239488 18.13681101053953,235.52176022715867 17.175165080465376,231.47827171022072 16.333724891766906,229.0" stroke="#4dd2ff" stroke-linecap="round" stroke-linejoin="round" stroke-width="0.5"><title>2023-09-30 1.0km</title><desc>9945549317</desc></polyline><polyline fill="none" points="37.213150607421994,229.0 38.40751463314518,231.0160082259681 38.80563597474247,232.60001323360484 39.86729288613424,235.19201866455842 40.39812134252861,239.0800203795079 40.79624268459156,240.23201940534636 42.38872805144638,244.12001111591235 42.78684939350933,246.56800193735398 43.052263621706516,246.85600065637846 43.450384963303804,247.0 43.58309207716957,246.7120013020467 41.19436402618885,242.39201575319748 39.60187865886837,238.64802057005 39.07105020293966,236.48802009352949 37.213150607421994,232.16801199526526 36.416907923296094,229.57600256206933" stroke="#4dd2ff" stroke-linecap="round" stroke-linejoin="round" stroke-width="0.5"><title>2023-09-28 1.0km</title><desc>9933629332</desc></polyline><polyline fill="none" points="56.4812475326471,231.04546334245242 57.486605380661786,234.5909277930623 59.371651344932616,237.1818398362957 60.628348655067384,241.81819972326048 62.387724888511,244.9545542517444 62.890403812751174,246.72727403056342 63.39308273606002,247.0 63.64442219864577,246.59091103065293 63.39308273606002,246.04545893135946 62.387724888511,244.6818279812578 59.49732107575983,238.81820347253233 57.989284303970635,234.72729167481884 56.35557780181989,229.0" stroke="#4dd2ff" stroke-linecap="round" stroke-linejoin="round" stroke-width="0.5"><title>2023-09-27 1.0km</title><desc>9927137811</desc></polyline><polyline fill="none" points="81.49532136670314,229.0 81.13644423848018,230.73079315607902 80.77756711049005,231.72599691554205 80.49844045541249,232.93754704669118 78.86355576105416,236.35583575541386 78.02617579582147,237.78372262767516 77.86667484999634,238.38949176907772 77.94642532267608,238.86545280006249 78.1458015050739,239.55775906681083 78.7439300515689,241.02890717971604 78.94330623396672,241.4183281234 79.18255765270442,242.11063138698228 79.98006238159724,243.10581590171205 80.33893950958736,243.88465478277067 80.73769187415019,244.49041764438152 81.05669376580045,245.3557920793537 81.535196603043,246.00482207047753 82.13332514977083,247.0" stroke="#4dd2ff" stroke-linecap="round" stroke-linejoin="round" stroke-width="0.5"><title>2023-09-26 1.0km</title><desc>9920397094</desc></polyline><polyline fill="none" points="99.91593836294487,229.0 99.13136308570392,231.61488918599207 98.34678780846298,233.01354744983837 97.61825362220407,233.92571460851468 97.22596598370001,234.65544761100318 97.05784271005541,235.38517996965675 97.11388380080462,236.29734451253898 97.3940892573446,237.02707542252028 98.06658235215582,238.06085977627663 98.34678780846298,239.0946428378229 98.90719872061163,240.43247782281833 99.97197945415974,241.77031064400217 101.76529437373392,245.4189346122439 102.94215728971176,247.0" stroke="#4dd2ff" stroke-linecap="round" stroke-linejoin="round" stroke-width="0.5"><title>2023-09-25 1.0km</title><desc>9914573673</desc></polyline><polyline fill="none" points="121.32704889355227,229.0 120.88469926244579,229.67200891877292 120.79622933617793,230.00801311869873 120.88469926244579,230.4400182645768 120.92893422557972,230.8720231244224 120.04423496313393,232.50403890397865 119.82306014746428,233.60804726480274 119.51341540599242,234.42405224451795 117.65554695483297,237.68806196353398 117.61131199169904,238.07206203386886 117.78825184400193,238.8400614973507 118.27483643847518,239.6080600572168 118.54024621727876,240.2800580559997 118.93836088525131,240.95205536298454 119.15953570092097,241.62405197828775 119.73459022142924,242.53604627848836 120.1769398523029,243.44803930463968 120.66352444700897,243.9760346848634 120.79622933617793,244.45603011449566 121.10587407811545,244.8400262040086 121.76939852489159,245.99201311788056 122.255983119132,246.5200064406381 122.38868800853379,247.0" stroke="#4dd2ff" stroke-linecap="round" stroke-linejoin="round" stroke-width="0.5"><title>2023-09-24 1.0km</title><desc>9907510217</desc></polyline><polyline fill="none" points="140.67104142787866,229.0 140.29525822820142,229.5825306751649 140.02684165723622,230.1650609219796 139.8657917145174,230.9223496025661 139.81210840004496,231.9126490924391 138.89949205797166,233.13595851819264 138.3626589155756,234.53402412019204 137.87950908741914,235.23305599595187 137.5574092019815,236.16509753774153 137.50372588750906,237.15539047430502 138.63107548677363,240.00975730718346 139.06054200069048,240.8835410165484 140.45630817115307,243.09712210064754 141.0468246275559,244.5534220727859 141.79839102714323,245.4854526500567 142.22785754106008,246.24272668687627 142.49627411249094,247.0" stroke="#4dd2ff" stroke-linecap="round" stroke-linejoin="round" stroke-width="0.5"><title>2023-09-23 1.0km</title><desc>9901004991</desc></polyline><polyline fill="none" points="160.69117305218242,229.0 160.33278702525422,229.6666743136011 159.97440099832602,230.83335294673452 159.15523293660954,232.5555895413272 158.33606487489305,233.7222637136001 157.61929282103665,235.66671666427283 157.5680948169902,236.72227474185638 157.6704908250831,237.33338663936593 158.69445090182126,239.7778292860603 158.84804491349496,240.5000494637643 159.05283692874946,240.88893696578452 159.76960898260586,241.77782193332678 160.33278702525422,242.88892667199252 160.79356905980967,244.05558488948736 161.56153911771253,245.16668627905892 162.43190518324263,247.0" stroke="#4dd2ff" stroke-linecap="round" stroke-linejoin="round" stroke-width="0.5"><title>2023-09-22 1.0km</title><desc>9895405405</desc></polyline><polyline fill="none" points="180.95418478921056,229.0 180.80738712917082,229.53097987367073 180.51379180978984,229.84956761042122 179.87766861682758,231.01772144268034 179.63300585048273,231.86728667921852 178.89901755098253,233.72570714971516 178.11609669867903,235.3186351749464 177.62677116552368,236.48678016033955 177.47997350571677,237.07085194438696 177.47997350571677,237.44253374281107 177.62677116552368,237.97350740875117 177.92036648537032,238.5044806843507 178.55648967833258,240.15049535757862 179.19261287082918,241.31863252696348 179.53514074371196,242.16818564524874 180.1712639364414,243.2301256377832 180.56272436259314,243.7079981250572 180.8563196824398,244.55754843255272 181.63924053497612,245.93806555081392 182.5200264940504,247.0" stroke="#4dd2ff" stroke-linecap="round" stroke-linejoin="round" stroke-width="0.5"><title>2023-09-21 1.0km</title><desc>9889267953</desc></polyline><polyline fill="none" points="21.83262381213717,251.0 21.190260826377198,252.9271348346956 20.812400246737525,254.4442362957052 20.207823318662122,255.71531812573085 19.489888217067346,257.84744888261775 18.2429483034648,260.184582846734 17.902873781742528,261.4556515922013 17.9406598394271,261.7426667143882 18.167376187397167,262.3576986216649 18.658594941487536,263.42375232084305 18.960883405292407,264.32579616687144 19.716604565037414,265.3918461037101 20.17003726097755,266.2528849497321 20.43453966663219,266.86791188293137 20.73682813043706,267.4009346763487 21.22804688452743,267.76995015799184 21.83262381213717,268.6719869741064 21.870409870287403,268.8359935111657 22.097126218257472,269.0" stroke="#4dd2ff" stroke-linecap="round" stroke-linejoin="round" stroke-width="0.5"><title>2023-09-20 1.0km</title><desc>9882714971</desc></polyline><polyline fill="none" points="41.492503026966006,251.0 41.10871653445065,251.97173551184824 40.383786492748186,254.10029377049068 40.34114354918711,254.79438729817048 40.085285887354985,255.16457019996597 39.786785282194614,255.85866255377186 39.616213507484645,256.506481393415 39.275069958530366,257.3856630375376 38.29428225499578,258.9589323879336 38.038424593163654,259.8843831096892 37.9531387060415,260.7172875957913 38.038424593163654,261.55019097944023 38.29428225499578,262.47563789068954 38.59278286015615,263.1234499189886 39.53092762012966,264.74297707213555 40.00000000023283,265.39078676642384 40.42642943630926,266.5475881336024 40.852858872618526,267.2879398926161 41.27928830869496,267.889475055621 41.7483606885653,268.35219402058283 42.04686129419133,269.0" stroke="#4dd2ff" stroke-linecap="round" stroke-linejoin="round" stroke-width="0.5"><title>2023-09-19 1.0km</title><desc>9876194288</desc></polyline><polyline fill="none" points="59.867506621871144,251.0 59.54952251445502,251.51757766940864 59.019549002405256,252.5527319808025 58.860556948697194,253.24283409374766 57.906604626681656,254.91057835303945 57.16464170953259,256.46330257016234 57.00564965582453,257.03838483133586 57.05864700721577,257.6709748299909 57.37663111463189,258.47608863416826 57.853607275523245,259.3387096473016 58.27758608548902,260.5463774675154 58.860556948697194,261.81155127921375 59.49652516329661,262.96170751401223 60.079496026970446,263.70930815977044 60.76846159272827,264.85946160397725 61.192440402461216,266.182135974057 61.93440331984311,267.3322857822059 62.30538477841765,268.36741916363826 62.9943503444083,269.0" stroke="#4dd2ff" stroke-linecap="round" stroke-linejoin="round" stroke-width="0.5"><title>2023-09-18 1.0km</title><desc>9870505463</desc></polyline><polyline fill="none" points="80.180867734598,251.0 79.92248525680043,251.5046786859748 79.56074978783727,253.18693856027676 79.09566132770851,253.97199189837556 78.88895534537733,254.58881895412924 77.75207244278863,256.43929712829413 77.33866047835909,257.4486469672411 77.08027800032869,258.3458457023953 77.28698398265988,258.9626692206948 78.42386688501574,261.4299583049142 78.99230833654292,262.3271523566218 79.40572030097246,263.2804198800004 80.0775147434324,264.17761175491614 80.4392502126284,264.79443055659067 80.90433867252432,266.2523639231222 82.91972199990414,269.0" stroke="#4dd2ff" stroke-linecap="round" stroke-linejoin="round" stroke-width="0.5"><title>2023-09-16 1.0km</title><desc>9856514700</desc></polyline><polyline fill="none" points="99.75117739033885,251.0 99.19823825755157,252.68001679936424 98.47941738506779,253.82002622907748 96.98648172640242,256.7000429572654 96.93118781317025,257.36004535935353 96.98648172640242,258.1400475098053 97.31824520626105,258.92004891473334 97.87118433904834,259.76004959398415 98.36882955837063,260.9000491327606 99.25353217078373,262.4000460996176 100.35941043659113,264.50003722141264 100.46999826305546,265.2800325474236 100.85705565591343,265.58003055123845 101.29940696223639,266.18002622795757 102.01822783472016,267.38001625816105 102.7923426204361,268.04001002263976 102.95822436036542,268.46000577666564 103.06881218706258,269.0" stroke="#4dd2ff" stroke-linecap="round" stroke-linejoin="round" stroke-width="0.5"><title>2023-09-15 1.0km</title><desc>9850671982</desc></polyline><polyline fill="none" points="120.45760422758758,251.0 119.54239577241242,253.4207119922503 118.51278626034036,254.91037746024085 118.05518203275278,255.7172784911818 117.36877569137141,257.4552165536443 117.19717410602607,258.07590785168577 117.19717410602607,258.57246056129225 117.36877569137141,259.193151037849 118.05518203275278,261.05521972937277 118.6843878456857,262.29659657517914 120.22880211402662,264.96555061248364 120.85800792672671,266.14485319692176 120.97240898362361,266.82760657178005 121.43001321121119,267.26208570454037 122.17362008104101,268.44138508086326 122.80282589397393,269.0" stroke="#4dd2ff" stroke-linecap="round" stroke-linejoin="round" stroke-width="0.5"><title>2023-09-14 1.0km</title><desc>9844236351</desc></polyline><polyline fill="none" points="137.13924675201997,251.0 137.46854208991863,251.26799398573348 137.59202784160152,251.535987853189 137.6743516761344,252.11664082697826 137.92132317950018,252.60796214069705 138.08597084856592,253.99259279557737 138.08597084856592,254.66257423744537 138.00364701403305,255.01989737094846 138.08597084856592,255.46655099239433 138.29178043454885,256.00253490457544 138.2094566002488,256.4491878034314 138.25061851739883,256.6725141296629 138.66223768983036,257.4318230249919 139.03269494511187,258.54845202929573 139.3619902827777,259.17376337520545 139.77360945520923,259.7544090486481 140.22639054479077,260.1563941896311 140.34987629647367,260.42438413598575 140.4733620483894,261.00502861407585 140.80265738628805,261.5856725371559 141.17311464133672,262.6576290910598 141.6670576480683,263.5955895241932 141.91402915143408,264.39955445716623 142.0375149033498,265.0695244217641 142.2844864067156,265.6054998616455 142.73726749629714,267.0794298829278 143.35469625494443,268.2407055631047 143.39585817232728,268.41936316300416 143.35469625494443,268.5533563285135 142.86075324798003,269.0 143.10772475157864,268.8213425707654 143.23121050326154,268.5533563285135 143.31353433756158,268.330034369661 143.2723724206444,268.0173834892921 143.02540091704577,267.70473244803725 142.2844864067156,266.0968102659681 141.91402915143408,264.89086583675817 141.1319527241867,263.14894187945174 140.7614954689052,261.45167783496436 140.55568588292226,260.96036367397755 139.77360945520923,259.9330691441428 138.99153302772902,258.45912178448634 138.6210757724475,257.2531621938688 138.49759002099745,256.4491878034314 138.16829468286596,255.60054701479385 137.50970400730148,254.1712545856717 137.34505633823574,253.50127260189038 136.7687894969713,252.4292998908204 136.64530374505557,251.84864721581107 136.60414182790555,251.1339970076806" stroke="#4dd2ff" stroke-linecap="round" stroke-linejoin="round" stroke-width="0.5"><title>2023-09-13 1.0km</title><desc>9837636972</desc></polyline></svg>