<svg xmlns="http://www.w3.org/2000/svg" xmlns:ev="http://www.w3.org/2001/xml-events" xmlns:xlink="http://www.w3.org/1999/xlink" width="200mm" height="300mm" baseProfile="full" version="1.1" viewBox="0 0 200 300"><rect width="200" height="300" x="0" y="0" fill="#222"/><text fill="#FFF" style="font-size:12px;font-family:Arial;font-weight:700" x="10" y="20">Over 1km Runs</text><text fill="#FFF" style="font-size:4px;font-family:Arial" x="10" y="280">ATHLETE</text><text fill="#FFF" style="font-size:9px;font-family:Arial" x="10" y="290">Jiakai</text><text fill="#FFF" style="font-size:4px;font-family:Arial" x="120" y="280">STATISTICS</text><text fill="#FFF" style="font-size:3px;font-family:Arial" x="120" y="285">Number: 24</text><text fill="#FFF" style="font-size:3px;font-family:Arial" x="120" y="290">Weekly: 4.8</text><text fill="#FFF" style="font-size:3px;font-family:Arial" x="141" y="285">Total: 24.4 km</text><text fill="#FFF" style="font-size:3px;font-family:Arial" x="141" y="290">Avg: 1.0 km</text><text fill="#FFF" style="font-size:3px;font-family:Arial" x="167" y="285">Min: 1.0 km</text><text fill="#FFF" style="font-size:3px;font-family:Arial" x="167" y="290">Max: 1.0 km</text><polyline fill="none" stroke="#4dd2ff" stroke-linecap="round" stroke-linejoin="round" stroke-width=".5" points="23.901 36.5 25.609 41.265 27.317 47.618 30.976 55.559 33.903 65.618 35.611 68 36.099 67.206 36.343 64.294 34.635 59.265 30.976 52.912 26.829 41.265 25.609 35.971 23.657 32"><title>2023-10-09 1.0km</title><desc>10003389142</desc></polyline><polyline fill="none" stroke="#4dd2ff" stroke-linecap="round" stroke-linejoin="round" stroke-width=".5" points="69.337 32 71.137 34.233 72.937 38.419 73.966 46.791 77.824 55.163 81.167 64.651 82.711 67.442 83.996 68 83.996 65.767 79.11 57.954 72.68 42.326 70.108 32.279"><title>2023-10-08 1.0km</title><desc>9996447828</desc></polyline><polyline fill="none" stroke="#4dd2ff" stroke-linecap="round" stroke-linejoin="round" stroke-width=".5" points="118.712 39.2 119.897 43.571 123.452 53.086 124.637 57.2 128.428 66.714 129.613 68 129.85 66.971 129.85 65.943 125.348 57.971 123.215 53.343 119.423 42.029 118.238 36.114 116.816 32"><title>2023-10-07 1.0km</title><desc>9989974159</desc></polyline><polyline fill="none" stroke="#4dd2ff" stroke-linecap="round" stroke-linejoin="round" stroke-width=".5" points="167.059 42.723 168.941 48.851 170.353 51.915 173.176 63.915 173.882 66.213 175.294 68 176.471 68 176.941 66.979 176.706 66.213 173.882 62.128 171.059 56 170.118 51.915 165.176 39.915 164.471 35.574 163.059 32"><title>2023-10-06 1.0km</title><desc>9984428862</desc></polyline><polyline fill="none" stroke="#4dd2ff" stroke-linecap="round" stroke-linejoin="round" stroke-width=".5" points="22.25 72 26.329 82.918 29.048 92.066 33.671 103.574 35.575 107.41 36.391 108 37.478 108 37.75 107.41 36.934 105.934 33.671 101.213 31.768 97.377 28.504 88.82 27.145 84.393 23.337 77.311 23.337 74.656"><title>2023-10-04 1.0km</title><desc>9971682885</desc></polyline><polyline fill="none" stroke="#4dd2ff" stroke-linecap="round" stroke-linejoin="round" stroke-width=".5" points="71.218 76.204 72.429 80.409 73.64 83.299 74.608 87.766 79.209 96.964 79.452 100.117 80.905 106.423 81.389 107.212 82.842 108 82.842 105.372 79.694 99.591 77.514 94.599 76.303 92.234 75.093 88.818 72.671 83.825 71.702 79.883 71.218 75.942 70.491 72"><title>2023-10-03 1.0km</title><desc>9965060084</desc></polyline><polyline fill="none" stroke="#4dd2ff" stroke-linecap="round" stroke-linejoin="round" stroke-width=".5" points="116.753 73.488 120.043 84.198 120.591 88.959 122.511 91.339 123.882 94.909 126.349 104.132 128.269 107.107 129.64 108 129.914 107.702 129.091 105.322 126.075 99.669 121.14 87.769 118.124 78.843 117.575 72"><title>2023-10-02 1.0km</title><desc>9958643020</desc></polyline><polyline fill="none" stroke="#4dd2ff" stroke-linecap="round" stroke-linejoin="round" stroke-width=".5" points="164.294 78.336 164.824 80.928 170.664 94.752 173.583 103.68 175.176 106.848 176.768 108 177.033 107.712 176.768 106.56 171.46 98.496 166.417 86.112 164.028 78.624 162.967 72"><title>2023-10-01 1.0km</title><desc>9952075403</desc></polyline><polyline fill="none" stroke="#4dd2ff" stroke-linecap="round" stroke-linejoin="round" stroke-width=".5" points="24.831 117.217 26.995 121.652 27.957 126.087 28.678 130.261 32.284 140.435 35.409 146.957 36.852 148 37.333 147.217 32.524 139.913 30.361 134.957 29.639 132.348 26.274 125.044 24.35 116.957 22.667 112"><title>2023-09-30 1.0km</title><desc>9945549317</desc></polyline><polyline fill="none" stroke="#4dd2ff" stroke-linecap="round" stroke-linejoin="round" stroke-width=".5" points="71.093 112 73.482 116.032 74.278 119.2 76.401 124.384 77.463 132.16 78.259 134.464 81.444 142.24 82.24 147.136 82.771 147.712 83.567 148 83.833 147.424 79.055 138.784 75.87 131.296 74.809 126.976 71.093 118.336 69.5 113.152"><title>2023-09-28 1.0km</title><desc>9933629332</desc></polyline><polyline fill="none" stroke="#4dd2ff" stroke-linecap="round" stroke-linejoin="round" stroke-width=".5" points="116.296 116.091 118.307 123.182 122.077 128.364 124.59 137.636 128.109 143.909 129.114 147.455 130.119 148 130.622 147.182 130.119 146.091 128.109 143.364 122.328 131.636 119.312 123.455 116.044 112"><title>2023-09-27 1.0km</title><desc>9927137811</desc></polyline><polyline fill="none" stroke="#4dd2ff" stroke-linecap="round" stroke-linejoin="round" stroke-width=".5" points="172.991 112 172.273 115.462 171.555 117.452 170.997 119.875 167.727 126.712 166.052 129.567 165.733 130.779 165.893 131.731 166.292 133.116 167.488 136.058 167.887 136.837 168.365 138.221 169.96 140.212 170.678 141.769 171.475 142.981 172.113 144.712 173.07 146.01 174.267 148"><title>2023-09-26 1.0km</title><desc>9920397094</desc></polyline><polyline fill="none" stroke="#4dd2ff" stroke-linecap="round" stroke-linejoin="round" stroke-width=".5" points="29.832 152 28.263 157.23 26.694 160.027 25.237 161.851 24.452 163.311 24.116 164.77 24.228 166.595 24.788 168.054 26.133 170.122 26.694 172.189 27.814 174.865 29.944 177.541 33.531 184.838 35.884 188"><title>2023-09-25 1.0km</title><desc>9914573673</desc></polyline><polyline fill="none" stroke="#4dd2ff" stroke-linecap="round" stroke-linejoin="round" stroke-width=".5" points="79.321 152 78.436 153.344 78.259 154.016 78.436 154.88 78.525 155.744 76.755 159.008 76.313 161.216 75.693 162.848 71.978 169.376 71.889 170.144 72.243 171.68 73.216 173.216 73.747 174.56 74.543 175.904 74.986 177.248 76.136 179.072 77.021 180.896 77.994 181.952 78.259 182.912 78.878 183.68 80.205 185.984 81.179 187.04 81.444 188"><title>2023-09-24 1.0km</title><desc>9907510217</desc></polyline><polyline fill="none" stroke="#4dd2ff" stroke-linecap="round" stroke-linejoin="round" stroke-width=".5" points="124.675 152 123.924 153.165 123.387 154.33 123.065 155.845 122.958 157.825 121.132 160.272 120.059 163.068 119.092 164.466 118.448 166.33 118.341 168.311 120.595 174.02 121.454 175.767 124.246 180.194 125.427 183.107 126.93 184.971 127.789 186.485 128.326 188"><title>2023-09-23 1.0km</title><desc>9901004991</desc></polyline><polyline fill="none" stroke="#4dd2ff" stroke-linecap="round" stroke-linejoin="round" stroke-width=".5" points="171.382 152 170.666 153.333 169.949 155.667 168.31 159.111 166.672 161.445 165.239 165.333 165.136 167.445 165.341 168.667 167.389 173.556 167.696 175 168.106 175.778 169.539 177.556 170.666 179.778 171.587 182.111 173.123 184.333 174.864 188"><title>2023-09-22 1.0km</title><desc>9895405405</desc></polyline><polyline fill="none" stroke="#4dd2ff" stroke-linecap="round" stroke-linejoin="round" stroke-width=".5" points="31.908 192 31.615 193.062 31.028 193.699 29.755 196.035 29.266 197.735 27.798 201.451 26.232 204.637 25.254 206.974 24.96 208.142 24.96 208.885 25.254 209.947 25.841 211.009 27.113 214.301 28.385 216.637 29.07 218.336 30.343 220.46 31.125 221.416 31.713 223.115 33.278 225.876 35.04 228"><title>2023-09-21 1.0km</title><desc>9889267953</desc></polyline><polyline fill="none" stroke="#4dd2ff" stroke-linecap="round" stroke-linejoin="round" stroke-width=".5" points="80.332 192 79.047 195.854 78.291 198.888 77.082 201.431 75.646 205.695 73.153 210.369 72.472 212.911 72.548 213.485 73.001 214.715 73.984 216.848 74.588 218.652 76.1 220.784 77.007 222.506 77.536 223.736 78.14 224.802 79.123 225.54 80.332 227.344 80.407 227.672 80.861 228"><title>2023-09-20 1.0km</title><desc>9882714971</desc></polyline><polyline fill="none" stroke="#4dd2ff" stroke-linecap="round" stroke-linejoin="round" stroke-width=".5" points="126.318 192 125.551 193.943 124.101 198.201 124.016 199.589 123.504 200.329 122.907 201.717 122.566 203.013 121.883 204.771 119.922 207.918 119.41 209.769 119.24 211.435 119.41 213.1 119.922 214.951 120.519 216.247 122.395 219.486 123.333 220.782 124.186 223.095 125.039 224.576 125.892 225.779 126.83 226.704 127.427 228"><title>2023-09-19 1.0km</title><desc>9876194288</desc></polyline><polyline fill="none" stroke="#4dd2ff" stroke-linecap="round" stroke-linejoin="round" stroke-width=".5" points="169.735 192 169.099 193.035 168.039 195.105 167.721 196.486 165.813 199.821 164.329 202.927 164.011 204.077 164.117 205.342 164.753 206.952 165.707 208.677 166.555 211.093 167.721 213.623 168.993 215.923 170.159 217.419 171.537 219.719 172.385 222.364 173.869 224.665 174.611 226.735 175.989 228"><title>2023-09-18 1.0km</title><desc>9870505463</desc></polyline><polyline fill="none" stroke="#4dd2ff" stroke-linecap="round" stroke-linejoin="round" stroke-width=".5" points="30.362 232 29.845 233.009 29.121 236.374 28.191 237.944 27.778 239.178 25.504 242.879 24.677 244.897 24.161 246.692 24.574 247.925 26.848 252.86 27.985 254.654 28.811 256.561 30.155 258.355 30.879 259.589 31.809 262.505 35.839 268"><title>2023-09-16 1.0km</title><desc>9856514700</desc></polyline><polyline fill="none" stroke="#4dd2ff" stroke-linecap="round" stroke-linejoin="round" stroke-width=".5" points="76.169 232 75.063 235.36 73.626 237.64 70.64 243.4 70.529 244.72 70.64 246.28 71.303 247.84 72.409 249.52 73.404 251.8 75.174 254.8 77.385 259 77.607 260.56 78.381 261.16 79.265 262.36 80.703 264.76 82.251 266.08 82.583 266.92 82.804 268"><title>2023-09-15 1.0km</title><desc>9850671982</desc></polyline><polyline fill="none" stroke="#4dd2ff" stroke-linecap="round" stroke-linejoin="round" stroke-width=".5" points="124.249 232 122.418 236.841 120.359 239.821 119.444 241.435 118.071 244.91 117.728 246.152 117.728 247.145 118.071 248.386 119.444 252.11 120.702 254.593 123.791 259.931 125.049 262.29 125.278 263.655 126.193 264.524 127.681 266.883 128.939 268"><title>2023-09-14 1.0km</title><desc>9844236351</desc></polyline><polyline fill="none" stroke="#4dd2ff" stroke-linecap="round" stroke-linejoin="round" stroke-width=".5" points="164.278 232 164.937 232.536 165.184 233.072 165.349 234.233 165.843 235.216 166.172 237.985 166.172 239.325 166.007 240.04 166.172 240.933 166.584 242.005 166.419 242.898 166.501 243.345 167.324 244.864 168.065 247.097 168.724 248.348 169.547 249.509 170.453 250.313 170.7 250.849 170.947 252.01 171.605 253.171 172.346 255.315 173.334 257.191 173.828 258.799 174.075 260.139 174.569 261.211 175.475 264.159 176.709 266.481 176.792 266.839 176.709 267.107 175.722 268 176.215 267.643 176.462 267.107 176.627 266.66 176.545 266.035 176.051 265.409 174.569 262.194 173.828 259.782 172.264 256.298 171.523 252.903 171.111 251.921 169.547 249.866 167.983 246.918 167.242 244.506 166.995 242.898 166.337 241.201 165.019 238.343 164.69 237.003 163.538 234.859 163.291 233.697 163.208 232.268"><title>2023-09-13 1.0km</title><desc>9837636972</desc></polyline></svg>