<?xml version="1.0" encoding="utf-8" ?>
<svg baseProfile="full" height="300mm" version="1.1" viewBox="0,0,200,300" width="200mm" xmlns="http://www.w3.org/2000/svg" xmlns:ev="http://www.w3.org/2001/xml-events" xmlns:xlink="http://www.w3.org/1999/xlink"><defs /><rect fill="#222222" height="300" width="200" x="0" y="0" /><text fill="#FFFFFF" style="font-size:12px; font-family:Arial; font-weight:bold;" x="10" y="20">Over 1km Runs</text><text fill="#FFFFFF" style="font-size:4px; font-family:Arial" x="10" y="280">ATHLETE</text><text fill="#FFFFFF" style="font-size:9px; font-family:Arial" x="10" y="290">Jiakai</text><text fill="#FFFFFF" style="font-size:4px; font-family:Arial" x="120" y="280">STATISTICS</text><text fill="#FFFFFF" style="font-size:3px; font-family:Arial" x="120" y="285">Number: 93</text><text fill="#FFFFFF" style="font-size:3px; font-family:Arial" x="120" y="290">Weekly: 5.8</text><text fill="#FFFFFF" style="font-size:3px; font-family:Arial" x="141" y="285">Total: 96.4 km</text><text fill="#FFFFFF" style="font-size:3px; font-family:Arial" x="141" y="290">Avg: 1.0 km</text><text fill="#FFFFFF" style="font-size:3px; font-family:Arial" x="167" y="285">Min: 1.0 km</text><text fill="#FFFFFF" style="font-size:3px; font-family:Arial" x="167" y="290">Max: 1.5 km</text><polyline fill="none" points="16.206528631970286,31.0 16.978082130663097,32.81396122346632 17.621043379418552,34.76745598623529 18.521189127583057,36.58141360874288 20.192888374906033,41.325602270895615 22.250364370644093,46.069779074634425 23.021917869336903,48.58139728754759 23.536286868620664,49.0 23.793471368029714,48.30232876108494 23.664879118092358,47.32558859628625 20.57866512425244,41.046532678068615 19.54992712615058,37.41862423438579 18.521189127583057,31.55814209987875" stroke="#4dd2ff" stroke-linecap="round" stroke-linejoin="round" stroke-width="0.5"><title>2024-01-04 1.0km</title><desc>10489071805</desc></polyline><polyline fill="none" points="40.35668611433357,34.30883703043219 41.942341609857976,38.67649259837344 43.89391760388389,43.04413756961003 44.86970560112968,46.75000984175131 45.723520098719746,49.0 45.84549359837547,49.0 45.84549359837547,48.07353380450513 45.23562610009685,45.82354248885531 44.015891103539616,43.04413756961003 43.04010310675949,40.2647283594124 41.45444761123508,37.08825543615967 40.478659614454955,34.176483665942214 39.868792115710676,32.32353554200381 40.234712614677846,31.0" stroke="#4dd2ff" stroke-linecap="round" stroke-linejoin="round" stroke-width="0.5"><title>2024-01-03 1.0km</title><desc>10482519748</desc></polyline><polyline fill="none" points="62.081286835018545,31.297521962667815 65.23445567348972,40.52068110543769 68.52471880894154,48.404961237101816 69.21019029524177,49.0 69.34728459315374,48.404961237101816 68.93600170128047,47.36364297999535 65.50864426838234,40.81820166797843 64.27479559229687,37.54547307221219 62.492569726891816,31.0" stroke="#4dd2ff" stroke-linecap="round" stroke-linejoin="round" stroke-width="0.5"><title>2024-01-01 1.0km</title><desc>10470902913</desc></polyline><polyline fill="none" points="96.1881585069932,35.40818125801161 95.9624776202254,35.77552916947752 93.59282830636948,37.48981835064478 92.5772643154487,38.59186046384275 91.90022165421396,39.81635084503796 91.44885988067836,40.42859569785651 91.11033855006099,40.55104464129545 89.64341278513893,40.55104464129545 88.28932746313512,41.040840325760655 86.48388036713004,40.918391417944804 85.58115681866184,40.55104464129545 85.01695460174233,39.69390184734948 84.67843327112496,38.95920767285861 84.56559282774106,37.24492000427563 84.22707149665803,36.510224749101326 82.87298617511988,36.510224749101326 81.74458174034953,36.87757241737563 81.63174129696563,37.00002162193414 82.0831030709669,37.24492000427563 82.30878395726904,37.00002162193414 81.51890085358173,37.00002162193414 81.29321996634826,36.7551232035039 81.0675390791148,35.89797845506109 80.95469863573089,34.42858643166255 81.51890085358173,34.55103581654839 81.97026262804866,35.530630571069196 82.98582661896944,36.63267398066819 83.77570972312242,36.63267398066819 84.45275238435715,36.142876999801956 85.01695460174233,36.26532625826076 85.12979504512623,36.020427731913514 84.11423105373979,33.081642604316585 83.88855016650632,32.959193111164495 82.64730528788641,32.83674360951409 81.40606040973216,32.959193111164495 82.1959435143508,32.959193111164495 81.0675390791148,31.734697686857544 80.95469863573089,31.0 81.29321996634826,31.489798494149 81.63174129696563,33.081642604316585 81.97026262804866,33.81633937230799 82.30878395726904,35.40818125801161 81.63174129696563,39.571452840580605 82.4216244011186,43.36736785795074 83.09866706235334,44.46940608078148 83.21150750573725,46.306134830927476 84.22707149665803,49.0" stroke="#4dd2ff" stroke-linecap="round" stroke-linejoin="round" stroke-width="0.5"><title>2023-12-31 1.5km</title><desc>10466792666</desc></polyline><polyline fill="none" points="109.04175248136744,35.273397946031764 110.35450290236622,39.935274790157564 112.1446171128191,43.6906666085124 113.69604942854494,48.093529578414746 114.17341321799904,49.0 114.41209511272609,49.0 114.53143605962396,47.964033765834756 114.05407227063552,46.539579198579304 111.90593521809205,42.13671234436333 111.90593521809205,40.97124574659392 110.35450290236622,37.604337910655886 110.11582100763917,35.01440442644525 109.63845721865073,33.46044250787236 108.32570679718629,31.0" stroke="#4dd2ff" stroke-linecap="round" stroke-linejoin="round" stroke-width="0.5"><title>2023-12-30 1.0km</title><desc>10458865202</desc></polyline><polyline fill="none" points="135.26447657775134,31.0 132.9978691651486,31.2236037919065 131.45245501957834,32.22982044820674 130.31915131304413,33.347838174086064 129.8040132643655,34.68945835984778 129.3919028257951,39.94412601995282 129.9070408740081,45.19877551647369 130.11309609329328,45.981381334131584 130.42217892222106,46.65218599990476 132.0706206774339,48.44099699554499 133.92511765193194,49.0 135.36750418739393,48.776398822665215 137.1189735517837,47.65839244390372 138.14924964867532,46.763986748992465 139.17952574556693,43.74536364292726 139.07649813639,41.39754152763635 138.76741530699655,39.385119685321115 138.56136008817703,34.46585507784039 138.25227725878358,33.236036438611336 137.63411160046235,32.453424059203826 136.91291833249852,31.894414970069192 135.26447657775134,31.559009417891502 132.9978691651486,31.670811276882887 131.34942740947008,32.565225852420554 130.52520653232932,33.57144162070472 129.9070408740081,35.13666482537519 129.9070408740081,35.91927582339849 130.21612370293587,37.81990085518919 130.01006848411635,39.385119685321115" stroke="#4dd2ff" stroke-linecap="round" stroke-linejoin="round" stroke-width="0.5"><title>2023-12-29 1.0km</title><desc>10454615358</desc></polyline><polyline fill="none" points="154.62946344772354,32.90909918991383 156.38883903436363,39.18183983606286 159.15357209928334,47.63636975153349 160.03325989330187,49.0 160.15892957756296,49.0 160.15892957756296,47.63636975153349 158.27388430619612,41.909111761138774 156.76584808900952,38.22729371488094 155.7604906107299,36.318199999048375 154.1267847083509,31.0" stroke="#4dd2ff" stroke-linecap="round" stroke-linejoin="round" stroke-width="0.5"><title>2023-12-27 1.0km</title><desc>10441997651</desc></polyline><polyline fill="none" points="176.60691900970414,33.318191617610864 178.61763367056847,37.27274710254278 179.6229910007678,41.36365769722033 181.00535733019933,43.9545630736975 182.63906299276277,48.18182197120041 183.14174165716395,49.0 183.39308099029586,48.86363702046219 182.51339332573116,46.272738500731066 181.25669666333124,44.363653065636754 177.2352673416026,34.818196414853446 176.98392800893635,32.227278276346624 176.60691900970414,31.0" stroke="#4dd2ff" stroke-linecap="round" stroke-linejoin="round" stroke-width="0.5"><title>2023-12-17 1.0km</title><desc>10391591057</desc></polyline><polyline fill="none" points="17.079507754649967,54.16902771452442 18.481344032566994,57.84509256517049 20.817737828474492,62.408472511102445 22.92049224441871,68.49296031869017 23.387771003879607,69.0 23.504590693861246,68.87324009358417 23.504590693861246,68.36620037502144 22.92049224441871,66.71832025947515 19.76636062003672,60.50706566812005 18.364524342585355,56.704245691304095 17.313147134147584,52.39437291189097 16.495409305673093,51.0" stroke="#4dd2ff" stroke-linecap="round" stroke-linejoin="round" stroke-width="0.5"><title>2023-12-16 1.0km</title><desc>10386207035</desc></polyline><polyline fill="none" points="40.425010420847684,54.383472079527564 40.92390938196331,56.684229540871456 42.670055746566504,61.96242696943227 43.66785366926342,63.58648467215244 45.03982581291348,68.05263596656732 45.414000033866614,69.0 45.66344951465726,69.0 45.66344951465726,67.64662266056985 43.792578409425914,61.96242696943227 41.173358862288296,57.90227644436527 41.048634122591466,56.27821372705512 40.30028568068519,54.383472079527564 40.549735161010176,53.16542284714524 40.05083619989455,51.0" stroke="#4dd2ff" stroke-linecap="round" stroke-linejoin="round" stroke-width="0.5"><title>2023-12-14 1.0km</title><desc>10376526598</desc></polyline><polyline fill="none" points="69.5778205092065,52.565225852653384 68.6505721588619,51.7826131277252 67.10515824053437,51.111801900318824 65.66277191741392,51.0 64.22038559382781,51.33540567557793 62.365888892207295,52.34162225795444 61.54166813613847,53.459639901760966 60.92350256862119,55.360268009011634 60.92350256862119,59.60872224404011 61.129557757638395,60.95033690426499 61.54166813613847,62.62735356413759 61.23258535237983,64.63977111433633 61.3356129466556,65.42237722000573 61.438640540931374,65.86958052788395 62.46891648694873,67.65839244425297 64.11735799908638,68.88819941575639 64.63249597139657,69.0 65.66277191741392,69.0 66.69304786203429,69.0 68.54754456412047,68.32919637009036 69.5778205092065,67.32299037033226 70.19598607672378,66.20498292252887 70.40204126574099,63.745363643043675 70.50506886048242,62.0683482165914 70.19598607672378,60.05592726240866 70.40204126574099,57.37269517919049 70.29901367099956,55.02486322144978 70.19598607672378,54.242251763120294 69.47479291493073,52.67702763737179 69.16571013117209,52.34162225795444 68.03240659181029,51.55900941800792 65.76579951168969,51.33540567557793 64.32341318810359,51.55900941800792 63.49919243203476,51.89441497018561 61.95377851417288,53.57144162082113 61.3356129466556,55.91927582328208 61.54166813613847,57.48449661070481" stroke="#4dd2ff" stroke-linecap="round" stroke-linejoin="round" stroke-width="0.5"><title>2023-12-13 1.0km</title><desc>10373769329</desc></polyline><polyline fill="none" points="86.40503501100466,53.552249595173635 87.6429741885513,58.65673809009604 88.8809133656323,61.34330525412224 91.35679172025993,68.328361393651 91.85196739109233,69.0 92.09955522650853,69.0 92.22334914421663,68.46268913464155 91.72817347338423,67.65672254085075 89.74747078958899,64.29852457169909 86.90021068183705,58.52240962779615 86.52882892871276,56.776138724409975 85.16709583392367,53.82090723980218 84.91950799850747,51.0" stroke="#4dd2ff" stroke-linecap="round" stroke-linejoin="round" stroke-width="0.5"><title>2023-12-12 1.0km</title><desc>10365882163</desc></polyline><polyline fill="none" points="107.92398176528513,51.0 109.20899797510356,53.788744695833884 110.9612928070128,58.225374688743614 112.24630901683122,60.63382618967444 114.11542350426316,66.46480010182131 114.34906281530857,67.98592048813589 114.81634143693373,69.0 114.93316109199077,68.11268045951147 114.69952178141102,67.09860042587388 112.24630901683122,61.52114957885351 110.49401418492198,58.09861399035435 110.02673556376249,56.704245691536926 109.67627659719437,53.788744695833884 108.74171935394406,51.126761220628396" stroke="#4dd2ff" stroke-linecap="round" stroke-linejoin="round" stroke-width="0.5"><title>2023-12-11 1.0km</title><desc>10361067591</desc></polyline><polyline fill="none" points="134.64633143041283,61.04350078164134 137.05044572521,68.34782927564811 137.170651440043,68.73913173889741 137.65147429937497,69.0 137.77168001327664,68.86956587433815 137.41106286970899,67.95652672543656 136.32921143667772,65.86957833555061 135.12715428927913,62.608716561691836 131.76139427674934,55.826104874373414 130.79974855855107,51.0" stroke="#4dd2ff" stroke-linecap="round" stroke-linejoin="round" stroke-width="0.5"><title>2023-12-10 1.0km</title><desc>10355395415</desc></polyline><polyline fill="none" points="153.97154708439484,52.191182031296194 156.04509596852586,55.50001687242184 157.02088367845863,59.60296362906229 159.09443256258965,65.42648490634747 159.82627334538847,68.60294311749749 160.31416720105335,69.0 160.4361406643875,68.86764771549497 160.4361406643875,68.60294311749749 160.19219373678789,67.5441243366804 157.63075099792331,62.382373861270025 157.02088367845863,60.92649284633808 156.65496328705922,58.67649259825703 156.04509596852586,56.95590227597859 155.06930825859308,55.23531030898448 154.94733479432762,53.382363274809904 153.84957362059504,51.0" stroke="#4dd2ff" stroke-linecap="round" stroke-linejoin="round" stroke-width="0.5"><title>2023-12-09 1.0km</title><desc>10350143310</desc></polyline><polyline fill="none" points="178.08119371067733,54.49255117913708 178.82395743578672,57.17912446556147 180.43327883956954,61.07464871532284 182.66157001350075,67.52239474025555 183.6519216466695,69.0 183.5281276931055,67.65672254085075 182.7853639679961,65.37314859370235 180.80466070165858,61.880618212744594 179.56672116043046,58.92539498396218 178.20498766517267,56.77613872475922 177.83360580261797,54.62687993713189 176.34807835286483,51.0" stroke="#4dd2ff" stroke-linecap="round" stroke-linejoin="round" stroke-width="0.5"><title>2023-12-08 1.0km</title><desc>10345303898</desc></polyline><polyline fill="none" points="17.09993195021525,71.0 17.33193739457056,71.6293738221284 17.795948282349855,73.26574467681348 18.027953726705164,75.5314863550011 18.491964614018798,77.41960212949198 20.116002722177655,81.44757549010683 21.1600272199139,85.09791816305369 22.204051717650145,87.36364418326411 22.436057162005454,89.0 22.668062605895102,88.87412653130013 22.90006804978475,88.62237956561148 22.90006804978475,88.24475904810242 22.3200544398278,86.7342761453474 20.464010888244957,83.58743248344399 18.25995917012915,77.16785348008852 17.67994556063786,74.52449042350054" stroke="#4dd2ff" stroke-linecap="round" stroke-linejoin="round" stroke-width="0.5"><title>2023-12-07 1.0km</title><desc>10340288256</desc></polyline><polyline fill="none" points="39.515596331097186,71.0 40.23164201527834,72.68346103455406 41.54439243627712,78.25182068638969 43.45384759409353,81.74822356412187 45.005279909819365,86.02159543370362 45.72132559400052,88.74100849858951 46.079348436091095,89.0 46.19868938298896,88.09352957841475 45.96000748872757,86.92806692188606 44.0505523304455,82.91368964756839 42.73780190991238,80.97124574659392 42.021756225731224,79.5467855243478 39.63493727892637,71.38849115080666" stroke="#4dd2ff" stroke-linecap="round" stroke-linejoin="round" stroke-width="0.5"><title>2023-12-06 1.0km</title><desc>10334845031</desc></polyline><polyline fill="none" points="64.05544679006562,74.1034619655693 64.85626558121294,78.20002302597277 65.65708437236026,81.17933391826227 67.60193000780419,86.2689778652275 68.6315541677177,88.62758815078996 68.97476222040132,89.0 68.5171514833346,86.76552767283283 67.37312463857234,84.65518998203333 66.34350047912449,81.67588522285223 64.85626558121294,78.57243717496749 64.16984947444871,76.21381284378003 63.025822630152106,73.73104683100246 62.45380920777097,71.0" stroke="#4dd2ff" stroke-linecap="round" stroke-linejoin="round" stroke-width="0.5"><title>2023-12-05 1.0km</title><desc>10329306344</desc></polyline><polyline fill="none" points="85.265350994654,72.51049678423442 86.0773700485006,73.7692430865718 87.1213945467025,77.41960212949198 89.209443542175,82.58044129051268 90.2534680403769,86.10490787529852 91.18148981593549,88.11888552398887 91.8775061480701,89.0 91.8775061480701,88.37063256313559 88.86143537610769,81.44757549010683 87.70140815665945,77.54547644068953 86.4253782145679,74.6503649475053 85.49735643854365,71.0" stroke="#4dd2ff" stroke-linecap="round" stroke-linejoin="round" stroke-width="0.5"><title>2023-12-04 1.0km</title><desc>10324662812</desc></polyline><polyline fill="none" points="108.30229726620018,72.66154566861223 109.57832753704861,77.50771216268186 111.61997596919537,82.07694343582261 113.02360926615074,86.92308570316527 114.04443348245695,88.86153911822475 114.81005164422095,89.0 114.81005164422095,88.44615641166456 113.91683045588434,86.92308570316527 112.76840321253985,83.60001806344371 111.49237294215709,81.66155923262704 110.59915175288916,79.3077136843931 109.06791542842984,73.76924196642358 108.0470912125893,71.0" stroke="#4dd2ff" stroke-linecap="round" stroke-linejoin="round" stroke-width="0.5"><title>2023-12-02 1.0km</title><desc>10313350310</desc></polyline><polyline fill="none" points="131.0183039228432,71.95454984041862 132.2750002159737,73.59091985307168 133.78303576773033,78.77274870162364 134.78839280316606,83.00001940899529 136.42209798423573,87.63636975188274 137.4274550192058,89.0 137.55312464851886,88.18182197131682 137.30178538989276,86.54546483117156 135.91941946651787,83.54547299188562 133.78303576773033,80.13638546620496 132.52633947506547,77.54547475650907 131.26964318100363,71.0" stroke="#4dd2ff" stroke-linecap="round" stroke-linejoin="round" stroke-width="0.5"><title>2023-12-01 1.0km</title><desc>10308709030</desc></polyline><polyline fill="none" points="153.82517795218155,71.0 156.31343734497204,79.55001980031375 158.80169673776254,84.65001455100719 160.1840630667284,88.40000255848281 160.59877296583727,89.0 160.73700959887356,88.55000193545129 160.1840630667284,87.05000766995363 158.1105135725811,84.20001552719623 157.55756704183295,82.70001806365326 155.48401754768565,78.65001940354705 154.51636111689731,74.0000110277906 153.54870468657464,71.30000130133703" stroke="#4dd2ff" stroke-linecap="round" stroke-linejoin="round" stroke-width="0.5"><title>2023-11-30 1.0km</title><desc>10303537703</desc></polyline><polyline fill="none" points="177.9407525882125,74.84829198836815 178.74157102638856,77.4551944816485 179.08477892819792,79.56554117088672 180.34320790180936,82.04829860525206 181.71603950997815,85.77242791187018 183.0888711172156,88.75172544328962 183.31767638539895,89.0 183.54648165311664,88.75172544328962 183.31767638539895,87.8827642062679 182.40245531359687,86.2689778652275 181.14402633998543,82.79312512371689 179.3135841959156,79.06898924615234 178.62716839229688,75.09656858979724 177.2543367841281,72.98621631483547 176.45351834688336,71.0" stroke="#4dd2ff" stroke-linecap="round" stroke-linejoin="round" stroke-width="0.5"><title>2023-11-29 1.0km</title><desc>10298007687</desc></polyline><polyline fill="none" points="16.89713673759252,93.33094561949838 18.20988657930866,96.69786162441596 18.448568368330598,99.15829617308918 20.11934089427814,103.17268200626131 21.07406805222854,106.79857102350798 21.90945431543514,108.48201695899479 22.74484057817608,109.0 23.10286326240748,109.0 23.341545052360743,108.61151273362339 23.222204157151282,108.09352957829833 22.74484057817608,107.18705868988764 20.83538626274094,102.13671234436333 18.92593194777146,97.73383448482491 18.56790926354006,95.66188815457281 17.732522999867797,93.20144872169476 16.658454947639257,91.0" stroke="#4dd2ff" stroke-linecap="round" stroke-linejoin="round" stroke-width="0.5"><title>2023-11-28 1.0km</title><desc>10292316108</desc></polyline><polyline fill="none" points="42.43450789805502,91.0 43.491095297504216,93.8662559457589 44.12504773726687,96.61785669741221 44.97031765663996,97.87900541932322 45.92124631628394,99.71340173971839 46.87217497592792,102.69429115857929 47.717444895301014,104.07008435309399 47.717444895301014,104.75798049510922 47.189151195809245,105.21657775470521 45.498611356597394,106.13377186935395 44.442023957148194,107.05096544418484 43.385436557698995,107.62421115464531 41.800555458292365,108.31210572912823 39.26474569970742,109.0 38.84211073955521,108.8853509761393 38.525134519673884,108.54140385333449 37.99684081971645,106.36307031358592" stroke="#4dd2ff" stroke-linecap="round" stroke-linejoin="round" stroke-width="0.5"><title>2023-11-27 1.0km</title><desc>10287544518</desc></polyline><polyline fill="none" points="63.9742447566241,94.90211396722589 64.55425840895623,96.2867329143919 65.94629117567092,103.33568474079948 67.45432667201385,106.98602338775527 68.26634578593075,108.370632563252 68.84635943826288,109.0 68.96236216882244,108.8741265310673 68.61435397760943,108.24475904798601 68.61435397760943,107.23777059407439 67.68633213313296,105.09791816282086 66.6423075585626,101.57344950502738 65.59828298399225,99.43358999444172 64.9022666006349,95.40561189572327 62.930220182053745,92.25874741270673 62.466209259815514,91.0" stroke="#4dd2ff" stroke-linecap="round" stroke-linejoin="round" stroke-width="0.5"><title>2023-11-26 1.0km</title><desc>10281488289</desc></polyline><polyline fill="none" points="85.29388211574405,91.0 86.63165617873892,94.48388377402443 87.8356528361328,99.41937526513357 89.03964949399233,102.17743866576348 89.3072043065913,103.91937146021519 89.97609133878723,105.51614183862694 91.44764280878007,108.27419672347605 92.11652984051034,109.0 92.38408465310931,109.0 90.37742355745286,104.64517633756623 90.10986874438822,103.19356631604023 88.77209468139336,101.30647169239819 86.09654655400664,94.04839863895904 84.75877248961478,91.58064772281796" stroke="#4dd2ff" stroke-linecap="round" stroke-linejoin="round" stroke-width="0.5"><title>2023-11-25 1.0km</title><desc>10275889695</desc></polyline><polyline fill="none" points="107.94035565946251,91.16822495521046 108.87054653093219,95.37384479888715 113.21143726631999,107.14953924051952 114.29665994923562,108.83177635679021 114.76175538543612,109.0 114.91678719781339,108.49532903218642 113.36646907776594,106.4766440478852 111.50608733482659,100.92525115737226 110.26583283860236,98.40188630030025 109.49067377950996,93.52337301988155 108.56048290710896,91.0" stroke="#4dd2ff" stroke-linecap="round" stroke-linejoin="round" stroke-width="0.5"><title>2023-11-24 1.0km</title><desc>10271180196</desc></polyline><polyline fill="none" points="132.0475986879319,93.00000823463779 132.4425602639094,94.14286915806588 133.36413727421314,99.00002058548853 135.60225287266076,105.85715487215202 136.65548374224454,108.71428701689001 137.05044531775638,109.0 137.57706075254828,109.0 137.70871461182833,108.71428701689001 137.44540689419955,107.28572146955412 135.99721444863826,103.14287544379476 132.17925254628062,94.85715689428616 130.86271395953372,91.0" stroke="#4dd2ff" stroke-linecap="round" stroke-linejoin="round" stroke-width="0.5"><title>2023-11-23 1.0km</title><desc>10265414399</desc></polyline><polyline fill="none" points="155.56579260574654,95.0563544301549 155.68261220119894,96.83100649237167 156.14989058254287,99.61974175705109 158.0190041079186,104.94367837370373 158.60310208424926,107.47888050868642 159.53765884693712,109.0 160.23857641872019,109.0 160.12175682373345,108.23944042192306 158.8367412746884,104.94367837370373 157.7853649170138,103.29579498723615 156.26671017799526,98.60565672838129 154.51441624760628,93.78874469583388 154.047137866728,91.0" stroke="#4dd2ff" stroke-linecap="round" stroke-linejoin="round" stroke-width="0.5"><title>2023-11-21 1.0km</title><desc>10253878272</desc></polyline><polyline fill="none" points="178.06266986951232,95.86133173853159 178.6680855350569,99.8029423590051 181.2108313315548,106.24088767752983 182.30057953018695,108.60584135761019 182.66382892988622,109.0 182.90599519619718,108.86861379561014 183.02707832911983,108.60584135761019 182.5427457964979,106.50366046302952 180.3632493992336,101.77374440978747 179.51566746784374,99.27739477856085 178.18375300243497,94.15329776948784 177.4572542035021,92.83942437497899 176.97292167088017,91.0" stroke="#4dd2ff" stroke-linecap="round" stroke-linejoin="round" stroke-width="0.5"><title>2023-11-20 1.0km</title><desc>10248671423</desc></polyline><polyline fill="none" points="16.795423744712025,112.50000667187851 18.554798943456262,116.31819999893196 19.057477572467178,120.27274908765685 20.43984379991889,123.40910961094778 21.822210027370602,127.36364358162973 22.450558312702924,128.31818500091322 23.204576255287975,129.0 23.078906598500907,127.90909588139039 20.942522428464144,122.3182022041874 19.560156201012433,117.27274710254278 18.17778997309506,114.00001213059295 17.42377203051001,111.0" stroke="#4dd2ff" stroke-linecap="round" stroke-linejoin="round" stroke-width="0.5"><title>2023-11-19 1.0km</title><desc>10242265034</desc></polyline><polyline fill="none" points="39.35878826957196,127.03792825492565 40.14493536762893,124.56400697666686 40.45939420722425,123.9668527743197 41.00969717558473,123.62562166358111 43.68259731028229,123.2843904523179 45.64796505635604,122.85785129718715 46.276882734615356,122.34600410389248 46.6699562841095,121.83415668504313 47.14164454303682,119.70145667501492 46.98441512323916,119.01899184362264 47.29887396283448,118.50714295677608 47.06302983313799,114.5829606532352 46.90580041380599,114.07110980903963 46.8271857034415,112.53555592079647 46.6699562841095,111.5971608775435 45.8051944761537,111.34123482485302 45.0976620875299,111.85308687353972 45.254891506861895,111.5971608775435 45.412120926659554,111.85308687353972 44.390129698906094,111.34123482485302 44.311514989472926,111.0 44.075670859310776,111.17061742488295 44.232900279108435,111.0853087156429 43.68259731028229,111.76777821453288 43.76121202018112,111.6824695491814 45.412120926659554,112.53555592079647 45.01904737763107,112.87679029384162 44.390129698906094,113.13271600776352 42.89645021222532,113.38864166522399 42.81783550186083,113.04740744258743 43.21090905088931,112.87679029384162 43.76121202018112,112.96209887135774 45.412120926659554,111.34123482485302 47.69194751186296,111.4265435153502 47.456103382632136,111.25592612795299 47.14164454303682,111.17061742488295 46.90580041380599,115.26542809442617 46.98441512323916,116.45974515046692 47.22025925246999,117.90998563647736 47.37748867273331,120.38392110483255 47.37748867273331,121.23700107744662 47.14164454303682,122.0900804225821 46.6699562841095,122.60192772879964 42.73922079242766,123.02846697799396 40.931082466151565,123.36969826457789 39.987705948296934,124.05216053628828 38.88710001017898,125.58769917994505 38.25818233191967,127.80569585470948 38.02233820222318,129.0" stroke="#4dd2ff" stroke-linecap="round" stroke-linejoin="round" stroke-width="0.5"><title>2023-11-18 1.0km</title><desc>10236386505</desc></polyline><polyline fill="none" points="62.04114332655445,111.0 64.64788953727111,115.50001736893319 65.59579724958166,118.84287991863675 65.95126264216378,120.77145155961625 66.66219342686236,121.92859352345113 68.91347424453124,128.48571685689967 69.38742810161784,129.0 69.38742810161784,128.48571685689967 68.91347424453124,127.84286271536257 67.61010113963857,123.98573290230706 66.89917035494,122.70002107415348 66.66219342686236,120.51430879719555 65.59579724958166,117.81430750666186 64.41091260872781,115.24287383153569 64.292424144689,113.82858369813766" stroke="#4dd2ff" stroke-linecap="round" stroke-linejoin="round" stroke-width="0.5"><title>2023-11-17 1.0km</title><desc>10231268371</desc></polyline><polyline fill="none" points="85.36077152658254,111.58064772293437 87.09987742546946,114.04839863884263 87.5012095561251,117.38711555744521 88.70520594809204,120.00002051191404 90.57808922417462,126.96775015315507 91.78208561614156,129.0 91.6483082389459,127.8387146294117 90.71186660137028,125.95162444526795 90.04297971678898,124.0645324572688 88.97276070155203,119.56453659269027 86.83232267200947,115.06453047250398 86.16343578742817,113.03226628201082 85.76210365677252,111.0" stroke="#4dd2ff" stroke-linecap="round" stroke-linejoin="round" stroke-width="0.5"><title>2023-11-16 1.0km</title><desc>10225818993</desc></polyline><polyline fill="none" points="108.30709895677865,111.19354904140346 109.19894823431969,114.67742935777642 110.62590707838535,118.54840207961388 112.58797548897564,122.22582089412026 113.30145491100848,125.12904264521785 114.55004389956594,127.64516557333991 115.7986328881234,129.0 112.58797548897564,123.00001367391087 111.16101664490998,118.54840207961388 107.05850996822119,111.0" stroke="#4dd2ff" stroke-linecap="round" stroke-linejoin="round" stroke-width="0.5"><title>2023-11-15 1.0km</title><desc>10219684298</desc></polyline><polyline fill="none" points="131.1052338751033,113.16542284714524 132.72665526112542,115.19550445268396 132.97610470512882,117.7669379391009 134.84697553515434,122.23310335271526 135.969498032704,126.02256853983272 137.0920205307193,128.86466231115628 137.59091941872612,129.0 137.46619469625875,127.37594707356766 135.8447733107023,125.21054094214924 135.2211497006938,123.31580848805606 134.22335192468017,122.09776516607963 133.84917775867507,120.60904445615597 131.9783069291152,116.81956812529825 131.3546833191067,114.11279454140458 130.9805091531016,111.0" stroke="#4dd2ff" stroke-linecap="round" stroke-linejoin="round" stroke-width="0.5"><title>2023-11-14 1.0km</title><desc>10213806154</desc></polyline><polyline fill="none" points="154.7387423175387,113.47827171022072 155.70038824807853,117.1304552895017 158.34491455508396,123.91306199040264 158.94594326103106,126.13044701842591 160.14800067432225,128.60869759391062 160.50861789798364,129.0 159.7873834501952,127.695658311015 158.1045030723326,123.65219298156444 157.98429733142257,122.60871656169184 156.78223991859704,119.73915324313566 154.97915380029008,116.47828020178713 154.25791935250163,114.26088311010972 153.77709638746455,111.0" stroke="#4dd2ff" stroke-linecap="round" stroke-linejoin="round" stroke-width="0.5"><title>2023-11-13 1.0km</title><desc>10208522228</desc></polyline><polyline fill="none" points="177.9892856348306,113.04546334268525 179.24598211282864,116.86365554714575 180.7540178867057,120.00002183520701 181.63370542181656,123.68183636269532 182.51339295646176,126.27273850084748 183.64441978698596,128.72727403056342 184.147098377347,129.0 184.39843767369166,128.45454802096356 183.01607154728845,125.72728572005872 182.2620536610484,122.7272925573634 179.49732140870765,120.13638546643779 177.9892856348306,117.95456616173033 177.7379463389516,115.63638033857569 175.60156232584268,111.0" stroke="#4dd2ff" stroke-linecap="round" stroke-linejoin="round" stroke-width="0.5"><title>2023-11-12 1.0km</title><desc>10202270880</desc></polyline><polyline fill="none" points="17.276532809715718,134.35822241124697 20.24758792715147,141.07464871543925 21.23793963296339,144.4328526093159 22.228291338775307,147.11941128061153 22.84726115502417,148.32836139411665 23.466230970807374,149.0 23.59002493415028,148.4626891349908 22.475879264995456,145.10449264734052 20.371381890028715,141.880618212861 18.14309055218473,136.77613872487564 17.276532809715718,133.14926305413246 16.409975066315383,131.0" stroke="#4dd2ff" stroke-linecap="round" stroke-linejoin="round" stroke-width="0.5"><title>2023-11-11 1.0km</title><desc>10196068378</desc></polyline><polyline fill="none" points="41.1837511761114,133.68422009726055 43.220923657063395,139.84212411462795 45.11258381884545,144.8947501218645 45.985657738521695,148.21052947919816 46.56770701892674,149.0 46.85873165912926,148.6842118264176 46.42219469882548,146.78948180971202 44.239509898237884,141.89475486346055 42.05682509671897,137.31580665381625 39.146578695159405,132.73684868169948 38.85555405495688,131.0" stroke="#4dd2ff" stroke-linecap="round" stroke-linejoin="round" stroke-width="0.5"><title>2023-11-10 1.0km</title><desc>10191120477</desc></polyline><polyline fill="none" points="61.53553147893399,131.54962088621687 63.688223055098206,133.1984825761756 64.95451221754774,135.39696256595198 65.3343989662826,136.22139189543668 65.3343989662826,137.45803520805202 66.72731704404578,141.71757813193835 67.23383270902559,144.19085666537285 68.24686403898522,146.93894008581992 68.50012187100947,148.31298028095625 69.1332664526999,149.0 69.51315320050344,148.86259607644752 69.8930399492383,148.31298028095625 68.50012187100947,147.35115225065965 66.22080137953162,144.0534523880342 63.56159413931891,136.77101124660112 62.92844955762848,132.64886217436288 62.29530497640371,131.0" stroke="#4dd2ff" stroke-linecap="round" stroke-linejoin="round" stroke-width="0.5"><title>2023-11-09 1.0km</title><desc>10185506531</desc></polyline><polyline fill="none" points="85.06002054968849,132.44526216865052 86.39193393755704,135.07300857105292 86.8762660776265,136.38688032352366 88.45034553669393,139.80294235935435 89.05576071236283,142.16790455882438 88.93467767722905,140.72265025309753 89.17684374796227,141.64235767372884 89.66117588849738,145.18979614810087 90.75092320563272,148.47445512423292 91.23525534709916,149.0 91.84067052323371,148.73722758109216 92.08283659350127,148.34306888096035 90.75092320563272,147.16059225820936 89.78225892409682,145.58395554404706 89.17684374796227,143.87593086762354 88.32926250109449,140.98542385036126 87.11843214882538,139.2773947789101 85.78651876095682,136.38688032352366 85.42326965508983,134.2846850559581 85.5443526902236,131.65693749429192 85.30218661995605,131.0" stroke="#4dd2ff" stroke-linecap="round" stroke-linejoin="round" stroke-width="0.5"><title>2023-11-08 1.0km</title><desc>10179505859</desc></polyline><polyline fill="none" points="110.61655219551176,140.9440793383401 114.67664836067706,149.0 114.90865385578945,148.87412653141655 114.32864011824131,147.4895177630242 113.28461539000273,145.72728680237196 112.5885989041999,143.96505402820185 111.1965659330599,142.45456734951586 110.73255494376644,141.57344950479455 110.38454670039937,138.55247059487738 110.15254120528698,137.6713507422246 108.76050823461264,135.27973742736503 107.94848900148645,131.0" stroke="#4dd2ff" stroke-linecap="round" stroke-linejoin="round" stroke-width="0.5"><title>2023-11-06 1.0km</title><desc>10167691585</desc></polyline><polyline fill="none" points="132.5552705489099,136.0503782769665 133.39065718092024,137.6043379106559 136.49352181190625,144.72663535596803 137.80627223290503,148.7410084985895 138.04495412763208,149.0 138.28363602189347,149.0 138.28363602189347,148.61151273350697 137.32890844298527,146.5395791985793 136.49352181190625,145.37411551410332 136.37418086454272,144.72663535596803 135.65813518036157,143.94965885241982 133.62933907518163,140.45326034456957 131.24252012791112,134.36692046013195 130.28779254946858,131.0" stroke="#4dd2ff" stroke-linecap="round" stroke-linejoin="round" stroke-width="0.5"><title>2023-11-05 1.1km</title><desc>10161301187</desc></polyline><polyline fill="none" points="153.7770971301943,131.0 156.18121142452583,136.3478451555129 157.26306285709143,141.04350078164134 158.94594286335632,144.30436543212272 159.54697143752128,146.9130528375972 160.1480000107549,149.0 160.5086171552539,148.60869759402703 160.38841143995523,148.21739510179032 158.825737148989,145.34784085466526 158.70553143369034,144.95653764309827 157.26306285709143,142.7391511480091 156.66203428339213,140.65219662082382 155.09935999196023,137.78263013751712 154.73874284792691,135.30436443991493 154.01750855939463,132.69565996550955" stroke="#4dd2ff" stroke-linecap="round" stroke-linejoin="round" stroke-width="0.5"><title>2023-11-04 1.0km</title><desc>10155501797</desc></polyline><polyline fill="none" points="184.8292560079135,133.73419068823569 183.46446626633406,131.91139743244275 182.62459565652534,131.3417740999721 180.94485443644226,131.0 179.37009704252705,131.11392470856663 177.16543669067323,132.139246706618 176.22058225423098,133.05064346885774 175.3807116439566,134.759510952048 175.1707439920865,136.12660358159337 174.8557925131172,140.6835702988319 175.06576016545296,145.46837092377245 175.27572781778872,146.15191266383044 176.32556608086452,147.86076569382567 177.58537199581042,148.77215320582036 179.68504852149636,149.0 181.5747573939152,148.20253607374616 183.35948244063184,146.0379890614422 183.8844015719369,145.01267626299523 184.61928835557774,141.7088859624928 184.61928835557774,139.08863347244915 185.1442074868828,135.6709061722504 185.03922366071492,134.41773760621436 183.8844015719369,133.05064346885774 182.93954713549465,132.36709594738204 180.73488678364083,131.3417740999721 179.5800646948628,131.3417740999721 177.060452864971,132.139246706618 175.90563077572733,133.16456802631728 175.1707439920865,134.53166206309106 174.96077633928508,135.44305741763674 175.1707439920865,139.20255758613348 174.96077633928508,140.9114182825433" stroke="#4dd2ff" stroke-linecap="round" stroke-linejoin="round" stroke-width="0.5"><title>2023-11-03 1.0km</title><desc>10152446508</desc></polyline><polyline fill="none" points="16.27463989239186,151.0 17.258697278797626,153.13560138468165 18.102175039239228,156.94916981831193 19.507971306797117,159.69493475090712 21.616665706504136,165.18645371461753 22.038404586724937,166.10170546243899 22.74130272027105,168.54237481567543 23.16304160049185,169.0 23.72536010714248,169.0 23.72536010714248,168.6949165549595 22.74130272027105,168.23729130346328 22.31956384051591,167.1694986578077 21.335506453178823,166.25424738100264 20.63260832009837,164.2712015635334 19.64855093276128,162.74578041420318 18.52391391946003,160.45764658704866 17.258697278797626,155.72882868233137 16.415219518356025,153.74577280506492" stroke="#4dd2ff" stroke-linecap="round" stroke-linejoin="round" stroke-width="0.5"><title>2023-11-02 1.1km</title><desc>10144903556</desc></polyline><polyline fill="none" points="39.79189690668136,152.30435396311805 40.03230835357681,153.73914221522864 40.99395414208993,155.95653995871544 42.67683427175507,161.9565434876131 45.561771638225764,167.95652672555298 46.40321170259267,169.0 45.92238880880177,167.4347898582928 44.11930295499042,164.6956687872298 43.15765716647729,161.17393548239488 41.95559993106872,159.47828362043947 40.51313124783337,156.34784515528008 39.311074011959136,151.0" stroke="#4dd2ff" stroke-linecap="round" stroke-linejoin="round" stroke-width="0.5"><title>2023-11-01 1.0km</title><desc>10138966680</desc></polyline><polyline fill="none" points="63.09506693761796,151.27067799540237 63.71869045635685,153.3007616904797 64.71648808568716,158.71430726593826 66.33790923235938,162.23310335283168 67.33570686168969,165.48121684766375 68.95712800929323,169.0 69.08185271313414,168.8646623105742 67.95933037996292,167.24060926458333 66.33790923235938,163.45114658481907 64.96593749243766,161.01505931455176 62.596168123651296,153.84211696428247 62.34671871550381,151.0" stroke="#4dd2ff" stroke-linecap="round" stroke-linejoin="round" stroke-width="0.5"><title>2023-10-31 1.0km</title><desc>10133123337</desc></polyline><polyline fill="none" points="85.74525938322768,153.1333426652709 86.35964398970827,156.33335195819382 86.35964398970827,157.5333539872663 87.71129012294114,159.80002232000697 91.39759775996208,167.66667279333342 92.01198236644268,168.8666673231637 92.257736208383,169.0 89.43156702024862,163.40001914394088 88.20279780821875,159.93335566332098 86.85115167452022,157.1333533989964 84.88512093480676,151.0" stroke="#4dd2ff" stroke-linecap="round" stroke-linejoin="round" stroke-width="0.5"><title>2023-10-30 1.0km</title><desc>10127985445</desc></polyline><polyline fill="none" points="108.59108473407105,153.60527560755145 109.13675525225699,157.27633863000665 109.46415756316856,158.46055072336458 111.64683963637799,163.5526528044138 112.73818067228422,166.5131698701298 114.3751922273077,168.76315920078196 114.81172864232212,169.0 114.92086274549365,168.6447387879016 113.93865581275895,167.10527262999676 112.5199124654755,164.026335900533 110.0098280813545,159.40791977138724 109.02762114815414,155.97370432177559 108.26368242269382,154.43422605399974 108.15454831905663,152.06579507607967 107.93628011178225,151.0" stroke="#4dd2ff" stroke-linecap="round" stroke-linejoin="round" stroke-width="0.5"><title>2023-10-28 1.0km</title><desc>10115543824</desc></polyline><polyline fill="none" points="131.9510524389334,154.73334801755846 132.93406795384362,157.93335448706057 134.03996040672064,160.46668893785682 135.02297592163086,164.06668443838134 136.49749919353053,167.53334001882467 137.1118838894181,168.8666673237458 137.72626858577132,169.0 137.84914552560076,168.8666673237458 137.60339164640754,168.06667105830275 136.86613001069054,166.0666788512608 134.40859122527763,161.26668855571188 132.44256019592285,155.9333511054283 131.2137908032164,153.26667649880983 130.72228304622695,151.0" stroke="#4dd2ff" stroke-linecap="round" stroke-linejoin="round" stroke-width="0.5"><title>2023-10-27 1.0km</title><desc>10110442644</desc></polyline><polyline fill="none" points="154.70338732935488,153.77942351426464 157.0208836523816,161.58825709018856 157.8746980871074,163.9706063530175 158.72851252229884,165.42648490646388 159.70430044736713,168.20588614756707 160.07022091932595,168.7352954216767 160.80206186370924,169.0 160.92403535358608,168.60294311773032 160.80206186370924,168.07353380485438 159.58232695655897,166.48530493315775 157.75272459629923,163.3088429851923 155.55720176454633,156.82354910613503 154.0935198762454,154.44119038514327 153.36167893186212,151.0" stroke="#4dd2ff" stroke-linecap="round" stroke-linejoin="round" stroke-width="0.5"><title>2023-10-26 1.0km</title><desc>10104873905</desc></polyline><polyline fill="none" points="179.09845727263018,159.6087184365606 181.86318830493838,166.52174997131806 183.18545097252354,168.86956587433815 183.66627376014367,169.0 183.54606806393713,167.695658311015 180.30051424261183,162.0869781221263 178.49742878694087,157.52176022727508 176.93475472507998,154.26088311045896 176.33372623985633,151.0" stroke="#4dd2ff" stroke-linecap="round" stroke-linejoin="round" stroke-width="0.5"><title>2023-10-25 1.0km</title><desc>10098978222</desc></polyline><polyline fill="none" points="16.670213592704386,171.0 16.54913045093417,171.91971242427826 17.2756293034181,174.9416213426739 18.24429444037378,176.9124287540326 18.84971015015617,179.27739477867726 19.939458429347724,182.43067794316448 22.24003812810406,186.8978195694508 22.96653698058799,188.737227581325 23.20870326505974,189.0 23.45086954906583,188.8686137953773 23.329786406829953,187.16059225809295 21.997871844097972,184.6642501518363 21.029206708073616,183.2189978651004 19.818375286646187,180.45987661753315 19.57620900310576,179.01462093077134 18.123211297672242,176.78104166104458 17.2756293034181,174.8102341046324 17.03346301894635,172.44526216841768 16.670213592704386,171.0" stroke="#4dd2ff" stroke-linecap="round" stroke-linejoin="round" stroke-width="0.5"><title>2023-10-24 1.0km</title><desc>10092835699</desc></polyline><polyline fill="none" points="41.00735898828134,174.1079268073663 42.79747240943834,180.45326034456957 43.63285867264494,182.0072160938289 44.58758583012968,185.89209946908522 46.019676566589624,188.4820169589948 46.616381040774286,189.0 46.019676566589624,188.35252117482014 45.184290303848684,186.28058733535 43.03615419846028,183.69066660827957 42.55879061995074,182.7841934543103 42.08142704097554,179.80577837780584 40.64933630404994,176.9568548965035 39.6946091465652,173.9784299666062 39.09790467331186,171.0" stroke="#4dd2ff" stroke-linecap="round" stroke-linejoin="round" stroke-width="0.5"><title>2023-10-23 1.0km</title><desc>10087395010</desc></polyline><polyline fill="none" points="59.886530723422766,171.08633225236554 60.20476990379393,171.0 62.472224064171314,171.1726644920418 63.466721502831206,171.43166113487678 63.70540088810958,171.56115941354074 64.22253955644555,171.94965407782 64.58055863413028,172.3813145144959 65.3761565850582,173.8489576249267 65.77395556052215,175.4892602887703 66.29109422885813,176.35257563943742 66.52977361390367,177.04322700586636 67.08669217955321,178.29503053677035 67.48449115525,179.58999689779012 68.08118961844593,180.62596793007106 68.3596489012707,180.92812580347527 68.71766797918826,181.5324410837493 68.91656746692024,182.82740030408604 69.03590715955943,183.17272228054935 69.35414633969776,183.6475396664464 69.43370613502339,184.38134759839159 69.55304582766257,184.68350353906862 71.30336131970398,188.82734075089684 71.54204070498236,189.0 71.54204070498236,188.78417593060294 71.1840216270648,188.43885725463042 70.78622265183367,187.48922984837554 70.38842367613688,186.6690958525287 69.3143664423842,183.34538319258718" stroke="#4dd2ff" stroke-linecap="round" stroke-linejoin="round" stroke-width="0.5"><title>2023-10-22 1.5km</title><desc>10080655811</desc></polyline><polyline fill="none" points="85.7084857292939,171.0 86.34001723863184,171.45685924118152 85.20326052163728,171.27411558496533 86.97154874773696,173.5584074241924 87.13995715044439,174.10663621604908 87.01365084853023,174.56349317287095 86.42422143975273,174.88329284300562 86.25581303727813,175.2030923484126 86.29791513783857,175.75131968891947 86.63473194278777,177.07620043179486 87.01365084853023,178.03559506835882 87.43467185460031,179.4975269040442 88.19250966585241,180.82239965925692 88.31881596776657,181.3249368618708 88.78193907439709,182.14726958947722 89.07665377901867,182.51275045255898 89.11875587934628,182.74117588269291 89.41347058396786,183.01528628816595 89.6239810870029,183.47213669511257 89.91869579139166,184.3401515429723 90.21341049578041,184.93405574030476 90.17130839521997,186.12186243198812 90.7186357032042,187.1726126128342 90.8870441056788,187.675144680019 91.18175880983472,188.22336101706605 91.68698401749134,188.86294613225618 91.93959662131965,189.0 90.97124830679968,187.62945996341296 90.76073780376464,186.89850404136814 90.33971679746173,185.98480792954797 90.17130839521997,185.3909047365305 89.6239810870029,184.6142612430849 89.16085798013955,183.28939657268347" stroke="#4dd2ff" stroke-linecap="round" stroke-linejoin="round" stroke-width="0.5"><title>2023-10-20 1.4km</title><desc>10069668027</desc></polyline><polyline fill="none" points="107.80659234360792,171.0 107.89231965923682,171.69768395990832 108.5781381840352,173.3721223237808 108.74959281552583,174.39538803097093 110.16409352305345,177.83726962580113 110.29268449638039,178.302387323929 110.37841181224212,179.0000632299343 110.54986644326709,179.46518007316627 111.5785942308139,180.90704011387425 112.13582178228535,182.02331659808988 112.47873104480095,183.13959111261647 112.77877664961852,183.7442389856442 112.95023128087632,184.67446535412455 113.16454956983216,185.13957802538062 113.7217771213036,186.58142513339408 113.8075044369325,187.13955861562863 114.62191393552348,188.81395610782783 114.83623222447932,189.0 114.96482319780625,189.0 115.05055051343516,188.95348903205013 115.00768685573712,188.9069780607242 114.15041369968094,187.83722477586707 113.76464077923447,186.5349139876198 112.95023128087632,185.04655551846372 112.82164030731656,184.44190889014862 112.73591299168766,183.41865943354787" stroke="#4dd2ff" stroke-linecap="round" stroke-linejoin="round" stroke-width="0.5"><title>2023-10-19 1.3km</title><desc>10064004415</desc></polyline><polyline fill="none" points="130.22685219254345,171.0 131.99157484155148,173.29788272990845 131.8739266647026,174.95746281044558 132.1092230179347,176.61704130494036 132.93276025447994,179.55321475525852 134.10924202017486,181.46810780919623 135.28572378633544,184.7872507669963 137.63868731912225,188.61702321912162 137.9916318487376,189.0 138.34457637835294,188.87234108219855 136.81515008211136,187.3404333399376 133.99159384379163,181.8510861665709 133.2857047840953,179.4255551431561 131.28568578138947,175.21278268191963" stroke="#4dd2ff" stroke-linecap="round" stroke-linejoin="round" stroke-width="0.5"><title>2023-10-18 1.0km</title><desc>10058081424</desc></polyline><polyline fill="none" points="154.00111617799848,172.09091406327207 155.00647328654304,177.95456616184674 157.6455356972292,184.9091062474763 159.40491063706577,188.59091103076935 160.15892846882343,189.0 160.53593738470227,189.0 160.78727666148916,188.4545480213128 159.90758919203654,187.36364358162973 158.77656244440004,185.59092249977402 157.26852678135037,182.31820220442023 156.64017858868465,180.4091126989806 154.00111617799848,175.09092442982364 153.7497769012116,174.27274026570376 153.49843762395903,171.0" stroke="#4dd2ff" stroke-linecap="round" stroke-linejoin="round" stroke-width="0.5"><title>2023-10-17 1.0km</title><desc>10051702317</desc></polyline><polyline fill="none" points="175.98050376260653,171.41538655466866 177.2565343142487,173.63077996543143 179.17058014171198,178.61540561076254 180.1914045829326,180.55386757676024 181.33983207913116,184.15386307716835 182.74346568621695,187.75385169649962 183.2538779070601,188.72307822608855 183.89189318241552,189.0 184.01949623785913,188.86153911834117 183.89189318241552,188.44615641143173 182.48825957579538,186.36924150353298 180.57421374879777,181.66155923274346 179.17058014171198,178.75386724586133 178.02215264551342,173.3538559313165 177.38413736922666,171.0" stroke="#4dd2ff" stroke-linecap="round" stroke-linejoin="round" stroke-width="0.5"><title>2023-10-16 1.0km</title><desc>10046279660</desc></polyline><polyline fill="none" points="16.313689517322928,191.0 16.840305301360786,192.14286210003775 17.36692108446732,194.71429936750792 18.551806596573442,198.71430613135453 20.13165394589305,201.14287764916662 21.974809186998755,208.00000437430572 22.633078916464,208.71428701665718 23.554656536784023,209.0 23.686310483142734,208.71428701665718 23.554656536784023,207.8571478142403 21.843155241571367,205.42858468799386 20.921577620785683,202.57144771213643 19.868346054572612,200.85716351040173 17.36692108446732,195.0000144095393 16.44534346368164,191.0" stroke="#4dd2ff" stroke-linecap="round" stroke-linejoin="round" stroke-width="0.5"><title>2023-10-15 1.0km</title><desc>10039610121</desc></polyline><polyline fill="none" points="39.111374927684665,192.3064571354771 39.51270720548928,196.51614647032693 40.58292661421001,199.5645365928067 41.92070087464526,201.45163288107142 42.72336543118581,204.06453245715238 44.997581673786044,208.12903603585437 45.53269137768075,208.70967872138135 46.20157850859687,209.0 46.60291078640148,208.70967872138135 46.60291078640148,208.2741967231268 43.92736226506531,206.0967852922622 42.188255726825446,202.9032441836316 41.51936859684065,200.1451817966299 39.91403948375955,196.51614647032693 39.111374927684665,193.4677516417578 39.245152353774756,191.5806477224687 39.111374927684665,191.0" stroke="#4dd2ff" stroke-linecap="round" stroke-linejoin="round" stroke-width="0.5"><title>2023-10-14 1.0km</title><desc>10033377496</desc></polyline><polyline fill="none" points="61.633013993967324,191.28571558836848 64.00278466986492,194.1428691581823 64.26609252300113,196.2857315784786 66.50420927256346,203.14287544356193 68.6106720957905,208.14286092377733 69.26894172793254,209.0 69.7955574337393,209.0 69.7955574337393,208.5714305093279 69.66390350693837,208.14286092377733 68.47901816898957,207.2857214693213 67.16247890517116,204.85715762886684 65.71428571362048,200.28573510737624 63.081207185052335,194.42858428391628 62.68624540558085,192.42857752018608 62.02797577297315,191.0" stroke="#4dd2ff" stroke-linecap="round" stroke-linejoin="round" stroke-width="0.5"><title>2023-10-13 1.0km</title><desc>10028006924</desc></polyline><polyline fill="none" points="84.70924577489495,191.0 85.9755352162756,192.6488621745957 86.73530888138339,194.0229128751671 86.86193782556802,195.80917727621272 86.73530888138339,197.73284472187515 88.12822726648301,200.6183421780588 89.77440354041755,205.0152821157826 91.4205798143521,208.03817232279107 91.80046664690599,208.58778819919098 92.43361136736348,209.0 92.43361136736348,208.31298028118908 91.0406929817982,206.5267278305255 89.77440354041755,204.32826093258336 88.12822726648301,199.79391478805337 87.11519571347162,198.007654195535 86.60867993719876,196.4962015914498" stroke="#4dd2ff" stroke-linecap="round" stroke-linejoin="round" stroke-width="0.5"><title>2023-10-12 1.0km</title><desc>10021974100</desc></polyline><polyline fill="none" points="109.32407328020781,193.5522495948244 109.81924931472167,196.23882426461205 109.69545530620962,197.31345302646514 110.80960138468072,200.9403204311384 111.67615944566205,202.5522591888439 112.54271750710905,205.50747655145824 113.78065759409219,208.46268913452514 114.02824561204761,208.73134458682034 114.64721565600485,209.0 114.52342164656147,208.46268913452514 113.16168755060062,204.97016465931665 111.67615944566205,202.41793101315852 109.69545530620962,197.85076717019547 109.20027927076444,196.1044956248952 108.95269125374034,193.5522495948244 108.20992720127106,191.0" stroke="#4dd2ff" stroke-linecap="round" stroke-linejoin="round" stroke-width="0.5"><title>2023-10-10 1.0km</title><desc>10009069592</desc></polyline><polyline fill="none" points="131.2363770189695,193.2500098424498 132.0901914536953,195.6323701395886 132.9440058884211,198.80884563201107 134.77360824868083,202.7794321157271 136.2372901365161,207.80882909044158 137.09110457124189,209.0 137.3350515528582,208.60294311773032 137.4570250432007,207.14706713322084 136.6032106084749,204.63236947765108 134.77360824868083,201.4559042607434 132.70005890727043,195.6323701395886 132.0901914536953,192.98530294792727 131.11440352816135,191.0" stroke="#4dd2ff" stroke-linecap="round" stroke-linejoin="round" stroke-width="0.5"><title>2023-10-09 1.0km</title><desc>10003389142</desc></polyline><polyline fill="none" points="153.47797856340185,191.0 154.3781241797842,192.11628403502982 155.27826979616657,194.20931483071763 155.79263871908188,198.3953694977099 157.72152218222618,202.58141493203584 159.39322118321434,207.3255885966355 160.1647745682858,208.7209315354703 160.807735722512,209.0 160.807735722512,207.88372589554638 158.3644833364524,203.97676135855727 155.14967756532133,196.1628081573872 153.86375525593758,191.13953554059844" stroke="#4dd2ff" stroke-linecap="round" stroke-linejoin="round" stroke-width="0.5"><title>2023-10-08 1.0km</title><desc>9996447828</desc></polyline><polyline fill="none" points="177.6894741007127,194.60001482162625 178.28191663930193,196.78573449037503 180.05924425413832,201.54287962068338 180.65168679272756,203.60001945286058 182.54750291490927,208.35714604717214 183.1399454534985,209.0 183.25843396084383,208.48571685678326 183.25843396084383,207.97143356245942 181.00715231569484,203.98573290207423 179.940755746793,201.67145093088038 178.04493962367997,196.01430433080532 177.45249708509073,193.05715223390143 176.74156603915617,191.0" stroke="#4dd2ff" stroke-linecap="round" stroke-linejoin="round" stroke-width="0.5"><title>2023-10-07 1.0km</title><desc>9989974159</desc></polyline><polyline fill="none" points="18.5293982247822,216.36172163987067 19.470583360642195,219.42555514350533 20.17647221311927,220.9574698683573 21.588249917607754,226.95745619398076 21.94119434338063,228.10638738039415 22.647083195857704,229.0 23.235323905479163,229.0 23.470620189327747,228.48936427361332 23.352972047869116,228.10638738039415 21.94119434338063,226.06384252291173 20.529416638892144,223.00002073205542 20.058824071194977,220.9574698683573 17.588213088922203,214.95746281091124 17.235268662683666,212.78724238602445 16.529379810672253,211.0" stroke="#4dd2ff" stroke-linecap="round" stroke-linejoin="round" stroke-width="0.5"><title>2023-10-06 1.0km</title><desc>9984428862</desc></polyline><polyline fill="none" points="38.98198222229257,211.0 41.0215404513292,216.45903345034458 42.3812459371984,221.0328068000963 44.692745263222605,226.78689395042602 45.64453910337761,228.7049193349667 46.052450749091804,229.0 46.596332943532616,229.0 46.73230349179357,228.7049193349667 46.32439184561372,227.96721748064738 44.692745263222605,225.60656972648576 43.7409514230676,223.6885413810378 42.109304839745164,219.40985615958925 41.429452097043395,217.19673953438178 39.525864417199045,213.65574785752688 39.525864417199045,212.32787436805665" stroke="#4dd2ff" stroke-linecap="round" stroke-linejoin="round" stroke-width="0.5"><title>2023-10-04 1.0km</title><desc>9971682885</desc></polyline><polyline fill="none" points="62.98991521820426,213.10219913115725 63.59533088374883,215.20439578976948 64.2007465492934,216.64965455804486 64.68507908238098,218.8832339918008 66.98565861210227,223.48177109507378 67.10674174549058,225.05840966361575 67.83324054488912,228.21168262825813 68.07540681073442,228.6058413576102 68.80190561013296,229.0 68.80190561013296,227.68613752059173 67.22782487934455,224.79563666554168 66.1380766807124,222.29929125588387 65.53266101423651,221.11681063415017 64.92724534822628,219.40878168831114 63.71641401713714,216.912428754149 63.23208148404956,214.9416213426739 62.98991521820426,212.97081175807398 62.62666581850499,211.0" stroke="#4dd2ff" stroke-linecap="round" stroke-linejoin="round" stroke-width="0.5"><title>2023-10-03 1.0km</title><desc>9965060084</desc></polyline><polyline fill="none" points="85.28116712905467,211.7438048243057 86.92629784997553,217.09919148962945 87.20048630377278,219.47935879125725 88.16014589136466,220.66944139194675 88.8456170251593,222.45456398068927 90.07946506561711,227.06612337986007 91.039124653209,228.55372094386257 91.72459578700364,229.0 91.86169001413509,228.8512403254863 91.45040733367205,227.6611625365913 89.94237083941698,224.83472498285118 87.47467475710437,218.88431722810492 85.9666382628493,214.42149992857594 85.69244980951771,211.0" stroke="#4dd2ff" stroke-linecap="round" stroke-linejoin="round" stroke-width="0.5"><title>2023-10-02 1.0km</title><desc>9958643020</desc></polyline><polyline fill="none" points="108.57536680065095,214.16801199468318 108.84078118437901,215.46401542495005 111.76033940864727,222.37601923558395 113.22011852031574,226.84000873356126 114.01636167243123,228.4240025616018 114.81260482408106,229.0 114.94531201664358,228.85600065614562 114.81260482408106,228.2800031756051 112.15846098400652,224.2480160703417 109.6370243364945,218.0560197121231 108.4426596085541,214.31201241828967 107.91183084063232,211.0" stroke="#4dd2ff" stroke-linecap="round" stroke-linejoin="round" stroke-width="0.5"><title>2023-10-01 1.0km</title><desc>9952075403</desc></polyline><polyline fill="none" points="131.70129084866494,213.60870696778875 132.78314252011478,215.8261048743734 133.26396548422053,218.04350000969134 133.6245827083476,220.1304576053517 135.42766882712021,225.21740646020044 136.99034346360713,228.47826343949419 137.71157791046426,229.0 137.9519893936813,228.60869759391062 135.54787456896156,224.95653764309827 134.46602289751172,222.47828196594492 134.10540567338467,221.17393548239488 132.42252529598773,217.52176022715867 131.46087936591357,213.47827171022072 130.6194391772151,211.0" stroke="#4dd2ff" stroke-linecap="round" stroke-linejoin="round" stroke-width="0.5"><title>2023-09-30 1.0km</title><desc>9945549317</desc></polyline><polyline fill="none" points="154.3560077501461,211.0 155.55037177586928,213.0160082259681 155.94849311746657,214.60001323360484 157.01015002885833,217.19201866455842 157.5409784852527,221.0800203795079 157.93909982731566,222.23201940534636 159.53158519417048,226.12001111591235 159.92970653623343,228.56800193735398 160.1951207644306,228.85600065637846 160.5932421060279,229.0 160.72594921989366,228.7120013020467 158.33722116891295,224.39201575319748 156.74473580159247,220.64802057005 156.21390734566376,218.48802009352949 154.3560077501461,214.16801199526526 153.5597650660202,211.57600256206933" stroke="#4dd2ff" stroke-linecap="round" stroke-linejoin="round" stroke-width="0.5"><title>2023-09-28 1.0km</title><desc>9933629332</desc></polyline><polyline fill="none" points="176.4812475326471,213.04546334245242 177.48660538066179,216.5909277930623 179.37165134493262,219.1818398362957 180.62834865506738,223.81819972326048 182.387724888511,226.9545542517444 182.89040381275117,228.72727403056342 183.39308273606002,229.0 183.64442219864577,228.59091103065293 183.39308273606002,228.04545893135946 182.387724888511,226.6818279812578 179.49732107575983,220.81820347253233 177.98928430397063,216.72729167481884 176.3555778018199,211.0" stroke="#4dd2ff" stroke-linecap="round" stroke-linejoin="round" stroke-width="0.5"><title>2023-09-27 1.0km</title><desc>9927137811</desc></polyline><polyline fill="none" points="21.495321366703138,231.0 21.13644423848018,232.73079315607902 20.777567110490054,233.72599691554205 20.498440455412492,234.93754704669118 18.863555761054158,238.35583575541386 18.026175795821473,239.78372262767516 17.866674849996343,240.38949176907772 17.946425322676077,240.86545280006249 18.145801505073905,241.55775906681083 18.743930051568896,243.02890717971604 18.943306233966723,243.4183281234 19.182557652704418,244.11063138698228 19.980062381597236,245.10581590171205 20.338939509587362,245.88465478277067 20.737691874150187,246.49041764438152 21.056693765800446,247.3557920793537 21.535196603043005,248.00482207047753 22.133325149770826,249.0" stroke="#4dd2ff" stroke-linecap="round" stroke-linejoin="round" stroke-width="0.5"><title>2023-09-26 1.0km</title><desc>9920397094</desc></polyline><polyline fill="none" points="42.773081219987944,231.0 41.988505942747,233.61488918599207 41.20393066550605,235.01354744983837 40.47539647924714,235.92571460851468 40.08310884074308,236.65544761100318 39.91498556709848,237.38517996965675 39.97102665784769,238.29734451253898 40.251232114387676,239.02707542252028 40.92372520919889,240.06085977627663 41.20393066550605,241.0946428378229 41.764341577654704,242.43247782281833 42.82912231120281,243.77031064400217 44.622437230776995,247.4189346122439 45.79930014675483,249.0" stroke="#4dd2ff" stroke-linecap="round" stroke-linejoin="round" stroke-width="0.5"><title>2023-09-25 1.0km</title><desc>9914573673</desc></polyline><polyline fill="none" points="67.04133460787125,231.0 66.59898497676477,231.67200891877292 66.5105150504969,232.00801311869873 66.59898497676477,232.4400182645768 66.6432199398987,232.8720231244224 65.7585206774529,234.50403890397865 65.53734586178325,235.60804726480274 65.2277011203114,236.42405224451795 63.36983266915195,239.68806196353398 63.325597706018016,240.07206203386886 63.50253755832091,240.8400614973507 63.98912215279415,241.6080600572168 64.25453193159774,242.2800580559997 64.65264659957029,242.95205536298454 64.87382141523995,243.62405197828775 65.44887593574822,244.53604627848836 65.89122556662187,245.44803930463968 66.37781016132794,245.9760346848634 66.5105150504969,246.45603011449566 66.82015979243442,246.8400262040086 67.48368423921056,247.99201311788056 67.97026883345097,248.5200064406381 68.10297372285277,249.0" stroke="#4dd2ff" stroke-linecap="round" stroke-linejoin="round" stroke-width="0.5"><title>2023-09-24 1.0km</title><desc>9907510217</desc></polyline><polyline fill="none" points="89.24246999924071,231.0 88.86668679956347,231.5825306751649 88.59827022859827,232.1650609219796 88.43722028587945,232.9223496025661 88.38353697140701,233.9126490924391 87.4709206293337,235.13595851819264 86.93408748693764,236.53402412019204 86.45093765878119,237.23305599595187 86.12883777334355,238.16509753774153 86.07515445887111,239.15539047430502 87.20250405813567,242.00975730718346 87.63197057205252,242.8835410165484 89.02773674251512,245.09712210064754 89.61825319891796,246.5534220727859 90.36981959850527,247.4854526500567 90.79928611242212,248.24272668687627 91.06770268385299,249.0" stroke="#4dd2ff" stroke-linecap="round" stroke-linejoin="round" stroke-width="0.5"><title>2023-09-23 1.0km</title><desc>9901004991</desc></polyline><polyline fill="none" points="112.11974448058754,231.0 111.76135845365934,231.6666743136011 111.40297242673114,232.83335294673452 110.58380436501466,234.5555895413272 109.76463630329818,235.7222637136001 109.04786424944177,237.66671666427283 108.99666624539532,238.72227474185638 109.09906225348823,239.33338663936593 110.12302233022638,241.7778292860603 110.27661634190008,242.5000494637643 110.48140835715458,242.88893696578452 111.19818041101098,243.77782193332678 111.76135845365934,244.88892667199252 112.22214048821479,246.05558488948736 112.99011054611765,247.16668627905892 113.86047661164775,249.0" stroke="#4dd2ff" stroke-linecap="round" stroke-linejoin="round" stroke-width="0.5"><title>2023-09-22 1.0km</title><desc>9895405405</desc></polyline><polyline fill="none" points="135.2398990751244,231.0 135.09310141508467,231.53097987367073 134.7995060957037,231.84956761042122 134.16338290274143,233.01772144268034 133.9187201363966,233.86728667921852 133.1847318368964,235.72570714971516 132.40181098459288,237.3186351749464 131.91248545143753,238.48678016033955 131.76568779163063,239.07085194438696 131.76568779163063,239.44253374281107 131.91248545143753,239.97350740875117 132.20608077128418,240.5044806843507 132.84220396424644,242.15049535757862 133.47832715674303,243.31863252696348 133.82085502962582,244.16818564524874 134.45697822235525,245.2301256377832 134.848438648507,245.7079981250572 135.14203396835364,246.55754843255272 135.92495482088998,247.93806555081392 136.80574077996425,249.0" stroke="#4dd2ff" stroke-linecap="round" stroke-linejoin="round" stroke-width="0.5"><title>2023-09-21 1.0km</title><desc>9889267953</desc></polyline><polyline fill="none" points="158.97548095486127,231.0 158.3331179691013,232.9271348346956 157.95525738946162,234.4442362957052 157.35068046138622,235.71531812573085 156.63274535979144,237.84744888261775 155.3858054461889,240.18458284673397 155.04573092446662,241.45565159220132 155.0835169821512,241.74266671438818 155.31023333012126,242.3576986216649 155.80145208421163,243.42375232084305 156.1037405480165,244.32579616687144 156.8594617077615,245.39184610371012 157.31289440370165,246.2528849497321 157.5773968093563,246.86791188293137 157.87968527316116,247.4009346763487 158.37090402725153,247.76995015799184 158.97548095486127,248.6719869741064 159.0132670130115,248.83599351116573 159.23998336098157,249.0" stroke="#4dd2ff" stroke-linecap="round" stroke-linejoin="round" stroke-width="0.5"><title>2023-09-20 1.0km</title><desc>9882714971</desc></polyline><polyline fill="none" points="181.492503026966,231.0 181.10871653445065,231.97173551184824 180.3837864927482,234.10029377049068 180.3411435491871,234.79438729817048 180.08528588735498,235.16457019996597 179.78678528219461,235.85866255377186 179.61621350748464,236.50648139341502 179.27506995853037,237.3856630375376 178.29428225499578,238.9589323879336 178.03842459316365,239.88438310968922 177.9531387060415,240.71728759579128 178.03842459316365,241.55019097944023 178.29428225499578,242.47563789068954 178.59278286015615,243.12344991898863 179.53092762012966,244.74297707213555 180.00000000023283,245.39078676642384 180.42642943630926,246.5475881336024 180.85285887261853,247.28793989261612 181.27928830869496,247.889475055621 181.7483606885653,248.35219402058283 182.04686129419133,249.0" stroke="#4dd2ff" stroke-linecap="round" stroke-linejoin="round" stroke-width="0.5"><title>2023-09-19 1.0km</title><desc>9876194288</desc></polyline><polyline fill="none" points="19.867506621871144,251.0 19.54952251445502,251.51757766940864 19.019549002405256,252.5527319808025 18.860556948697194,253.24283409374766 17.906604626681656,254.91057835303945 17.16464170953259,256.46330257016234 17.005649655824527,257.03838483133586 17.058647007215768,257.6709748299909 17.37663111463189,258.47608863416826 17.853607275523245,259.3387096473016 18.27758608548902,260.5463774675154 18.860556948697194,261.81155127921375 19.49652516329661,262.96170751401223 20.079496026970446,263.70930815977044 20.768461592728272,264.85946160397725 21.192440402461216,266.182135974057 21.934403319843113,267.3322857822059 22.305384778417647,268.36741916363826 22.994350344408303,269.0" stroke="#4dd2ff" stroke-linecap="round" stroke-linejoin="round" stroke-width="0.5"><title>2023-09-18 1.0km</title><desc>9870505463</desc></polyline><polyline fill="none" points="43.03801059164107,251.0 42.7796281138435,251.5046786859748 42.41789264488034,253.18693856027676 41.952804184751585,253.97199189837556 41.7460982024204,254.58881895412924 40.6092152998317,256.43929712829413 40.19580333540216,257.4486469672411 39.93742085737176,258.3458457023953 40.14412683970295,258.9626692206948 41.281009742058814,261.4299583049142 41.84945119358599,262.3271523566218 42.262863158015534,263.2804198800004 42.934657600475475,264.17761175491614 43.29639306967147,264.79443055659067 43.76148152956739,266.2523639231222 45.77686485694721,269.0" stroke="#4dd2ff" stroke-linecap="round" stroke-linejoin="round" stroke-width="0.5"><title>2023-09-16 1.0km</title><desc>9856514700</desc></polyline><polyline fill="none" points="65.465463104425,251.0 64.91252397163771,252.68001679936424 64.19370309915394,253.82002622907748 62.70076744048856,256.7000429572654 62.6454735272564,257.36004535935353 62.70076744048856,258.1400475098053 63.0325309203472,258.92004891473334 63.585470053134486,259.76004959398415 64.08311527245678,260.9000491327606 64.96781788486987,262.4000460996176 66.07369615067728,264.50003722141264 66.1842839771416,265.2800325474236 66.57134136999957,265.58003055123845 67.01369267632253,266.18002622795757 67.73251354880631,267.38001625816105 68.50662833452225,268.04001002263976 68.67251007445157,268.46000577666564 68.78309790114872,269.0" stroke="#4dd2ff" stroke-linecap="round" stroke-linejoin="round" stroke-width="0.5"><title>2023-09-15 1.0km</title><desc>9850671982</desc></polyline><polyline fill="none" points="89.02903279894963,251.0 88.11382434377447,253.4207119922503 87.08421483170241,254.91037746024085 86.62661060411483,255.7172784911818 85.94020426273346,257.4552165536443 85.76860267738812,258.07590785168577 85.76860267738812,258.57246056129225 85.94020426273346,259.193151037849 86.62661060411483,261.05521972937277 87.25581641704775,262.29659657517914 88.80023068538867,264.96555061248364 89.42943649808876,266.14485319692176 89.54383755498566,266.82760657178005 90.00144178257324,267.26208570454037 90.74504865240306,268.44138508086326 91.37425446533598,269.0" stroke="#4dd2ff" stroke-linecap="round" stroke-linejoin="round" stroke-width="0.5"><title>2023-09-14 1.0km</title><desc>9844236351</desc></polyline><polyline fill="none" points="108.56781818042509,251.0 108.89711351832375,251.26799398573348 109.02059927000664,251.535987853189 109.10292310453951,252.11664082697826 109.3498946079053,252.60796214069705 109.51454227697104,253.99259279557737 109.51454227697104,254.66257423744537 109.43221844243817,255.01989737094846 109.51454227697104,255.46655099239433 109.72035186295398,256.00253490457544 109.63802802865393,256.4491878034314 109.67918994580396,256.6725141296629 110.09080911823548,257.4318230249919 110.46126637351699,258.54845202929573 110.79056171118282,259.17376337520545 111.20218088361435,259.7544090486481 111.6549619731959,260.1563941896311 111.77844772487879,260.42438413598575 111.90193347679451,261.00502861407585 112.23122881469317,261.5856725371559 112.60168606974185,262.6576290910598 113.09562907647341,263.5955895241932 113.3426005798392,264.39955445716623 113.46608633175492,265.0695244217641 113.71305783512071,265.6054998616455 114.16583892470226,267.0794298829278 114.78326768334955,268.2407055631047 114.8244296007324,268.41936316300416 114.78326768334955,268.5533563285135 114.28932467638515,269.0 114.53629617998376,268.8213425707654 114.65978193166666,268.5533563285135 114.7421057659667,268.330034369661 114.70094384904951,268.0173834892921 114.4539723454509,267.70473244803725 113.71305783512071,266.0968102659681 113.3426005798392,264.89086583675817 112.56052415259182,263.14894187945174 112.19006689731032,261.45167783496436 111.98425731132738,260.96036367397755 111.20218088361435,259.9330691441428 110.42010445613414,258.45912178448634 110.04964720085263,257.2531621938688 109.92616144940257,256.4491878034314 109.59686611127108,255.60054701479385 108.9382754357066,254.1712545856717 108.77362776664086,253.50127260189038 108.19736092537642,252.4292998908204 108.07387517346069,251.84864721581107 108.03271325631067,251.1339970076806" stroke="#4dd2ff" stroke-linecap="round" stroke-linejoin="round" stroke-width="0.5"><title>2023-09-13 1.0km</title><desc>9837636972</desc></polyline></svg>