<?xml version="1.0" encoding="utf-8" ?>
<svg baseProfile="full" height="300mm" version="1.1" viewBox="0,0,200,300" width="200mm" xmlns="http://www.w3.org/2000/svg" xmlns:ev="http://www.w3.org/2001/xml-events" xmlns:xlink="http://www.w3.org/1999/xlink"><defs /><rect fill="#222222" height="300" width="200" x="0" y="0" /><text fill="#FFFFFF" style="font-size:12px; font-family:Arial; font-weight:bold;" x="10" y="20">Over 1km Runs</text><text fill="#FFFFFF" style="font-size:4px; font-family:Arial" x="10" y="280">ATHLETE</text><text fill="#FFFFFF" style="font-size:9px; font-family:Arial" x="10" y="290">Jiakai</text><text fill="#FFFFFF" style="font-size:4px; font-family:Arial" x="120" y="280">STATISTICS</text><text fill="#FFFFFF" style="font-size:3px; font-family:Arial" x="120" y="285">Number: 5</text><text fill="#FFFFFF" style="font-size:3px; font-family:Arial" x="120" y="290">Weekly: 2.5</text><text fill="#FFFFFF" style="font-size:3px; font-family:Arial" x="141" y="285">Total: 5.1 km</text><text fill="#FFFFFF" style="font-size:3px; font-family:Arial" x="141" y="290">Avg: 1.0 km</text><text fill="#FFFFFF" style="font-size:3px; font-family:Arial" x="167" y="285">Min: 1.0 km</text><text fill="#FFFFFF" style="font-size:3px; font-family:Arial" x="167" y="290">Max: 1.0 km</text><polyline fill="none" points="49.470026487484574,34.0 48.19809005782008,36.07031067763455 46.078196009621024,40.210927923209965 45.44222779478878,42.97133637499064 41.62641850672662,49.64231341215782 38.658566838130355,55.853210280649364 38.02259862329811,58.153539325343445 38.23458802886307,60.68389931996353 39.506524458527565,63.904354536673054 41.41442910209298,67.35483858920634 43.11034434195608,72.18550987006165 45.44222779478878,77.24620511685498 47.98610065318644,81.84683005604893 50.317984107881784,84.83723263908178 53.07384637091309,89.43784641590901 54.76976160984486,94.72854389622808 57.737613279372454,99.32914312882349 59.22153911367059,103.46967665455304 61.977401377633214,106.0" stroke="#4dd2ff" stroke-linecap="round" stroke-linejoin="round" stroke-width="0.5"><title>2023-09-18 1.0km</title><desc>9870505463</desc></polyline><polyline fill="none" points="150.72347093839198,34.0 149.6899410272017,36.01871474389918 148.24299915134907,42.74775424110703 146.38264531083405,45.88796759350225 145.5558213815093,48.35527581651695 141.00828977115452,55.757188513176516 139.35464191343635,59.7945878689643 138.32111200131476,63.383382809581235 139.1479359306395,65.85067688277923 143.69546754006296,75.71983321965672 145.96923334617168,79.30860942648724 147.62288120388985,83.12167952000163 150.3100589737296,86.71044701966457 151.75700085051358,89.17772222636268 153.61735469009727,95.0094556924887 161.67888799961656,106.0" stroke="#4dd2ff" stroke-linecap="round" stroke-linejoin="round" stroke-width="0.5"><title>2023-09-16 1.0km</title><desc>9856514700</desc></polyline><polyline fill="none" points="49.00470956135541,114.0 46.79295303020626,120.72006719745696 43.91766954027116,125.28010491630994 37.94592690560967,136.80017182906158 37.72475125268102,139.44018143741414 37.94592690560967,142.5601900392212 39.272980825044215,145.68019565893337 41.484737356193364,149.0401983759366 43.47531823348254,153.60019653104246 47.01412868313491,159.60018439847045 51.437641746364534,168.00014888565056 51.879993052221835,171.12013018969446 53.42822262365371,172.3201222049538 55.19762784894556,174.72010491183028 58.07291133888066,179.5200650326442 61.16937048174441,182.16004009055905 61.83289744146168,183.84002310666256 62.275248748250306,186.0" stroke="#4dd2ff" stroke-linecap="round" stroke-linejoin="round" stroke-width="0.5"><title>2023-09-15 1.0km</title><desc>9850671982</desc></polyline><polyline fill="none" points="151.83041691035032,114.0 148.16958308964968,123.68284796900116 144.05114504136145,129.6415098409634 142.22072813101113,132.86911396472715 139.47510276548564,139.8208662145771 138.78869642410427,142.30363140674308 138.78869642410427,144.28984224516898 139.47510276548564,146.77260415139608 142.22072813101113,154.22087891749106 144.73755138274282,159.18638630071655 150.91520845610648,169.86220244993456 153.43203170690686,174.57941278768703 153.88963593449444,177.3104262871202 155.72005284484476,179.04834281816147 158.69448032416403,183.76554032345302 161.21130357589573,186.0" stroke="#4dd2ff" stroke-linecap="round" stroke-linejoin="round" stroke-width="0.5"><title>2023-09-14 1.0km</title><desc>9844236351</desc></polyline><polyline fill="none" points="38.556987008079886,194.0 39.87416835967451,195.07197594293393 40.36811136640608,196.143951412756 40.69740670453757,198.46656330791302 41.68529271800071,200.43184856278822 42.343883394263685,205.97037118230946 42.343883394263685,208.65029694978148 42.0145880561322,210.07958948379382 42.343883394263685,211.86620396957733 43.16712173819542,214.01013961830176 42.837826400995255,215.79675121372566 43.00247406959534,216.69005651865155 44.64895075932145,219.7272920999676 46.13077978044748,224.19380811718293 47.44796113111079,226.6950535008218 49.0944378208369,229.01763619459234 50.9055621791631,230.6255767585244 51.39950518589467,231.697536543943 51.89344819355756,234.02011445630342 53.21062954515219,236.34269014862366 54.6924585653469,240.63051636423916 56.668230592273176,244.3823580967728 57.656116605736315,247.59821782866493 58.15005961339921,250.2780976870563 59.13794562686235,252.42199944658205 60.949069985188544,258.3177195317112 63.418785019777715,262.96282225241885 63.58343268930912,263.67745265201665 63.418785019777715,264.2134253140539 61.443012991920114,266.0 62.430899006314576,265.28537028306164 62.924842013046145,264.2134253140539 63.25413735024631,263.320137478644 63.08948968257755,262.06953395716846 62.10160366818309,260.818929792149 59.13794562686235,254.38724106387235 57.656116605736315,249.56346334703267 54.527810896746814,242.59576751780696 53.04598187562078,235.80671133985743 52.22274353168905,233.84145469591022 49.0944378208369,229.73227657657117 45.96613211091608,223.83648713794537 44.484303089790046,219.0126487754751 43.9903600839898,215.79675121372566 42.67317873146385,212.4021880591754 40.03881602920592,206.68501834268682 39.380225352942944,204.0050904075615 37.07515798788518,199.7171995632816 36.581214980222285,197.39458886324428 36.4165673116222,194.53598803072236" stroke="#4dd2ff" stroke-linecap="round" stroke-linejoin="round" stroke-width="0.5"><title>2023-09-13 1.0km</title><desc>9837636972</desc></polyline></svg>