<svg xmlns="http://www.w3.org/2000/svg" xmlns:ev="http://www.w3.org/2001/xml-events" xmlns:xlink="http://www.w3.org/1999/xlink" width="200mm" height="300mm" baseProfile="full" version="1.1" viewBox="0 0 200 300"><rect width="200" height="300" x="0" y="0" fill="#222"/><text fill="#FFF" style="font-size:12px;font-family:Arial;font-weight:700" x="10" y="20">Over 1km Runs</text><text fill="#FFF" style="font-size:4px;font-family:Arial" x="10" y="280">ATHLETE</text><text fill="#FFF" style="font-size:9px;font-family:Arial" x="10" y="290">Jiakai</text><text fill="#FFF" style="font-size:4px;font-family:Arial" x="120" y="280">STATISTICS</text><text fill="#FFF" style="font-size:3px;font-family:Arial" x="120" y="285">Number: 99</text><text fill="#FFF" style="font-size:3px;font-family:Arial" x="120" y="290">Weekly: 5.5</text><text fill="#FFF" style="font-size:3px;font-family:Arial" x="141" y="285">Total: 102.5 km</text><text fill="#FFF" style="font-size:3px;font-family:Arial" x="141" y="290">Avg: 1.0 km</text><text fill="#FFF" style="font-size:3px;font-family:Arial" x="167" y="285">Min: 1.0 km</text><text fill="#FFF" style="font-size:3px;font-family:Arial" x="167" y="290">Max: 1.5 km</text><polyline fill="none" stroke="#4dd2ff" stroke-linecap="round" stroke-linejoin="round" stroke-width=".5" points="16.752 33.266 16.868 35.154 17.1 36.035 19.304 39.937 20.348 42.329 20.928 44.343 21.972 46.357 22.088 48.245 22.784 48.874 23.132 49 23.596 48.874 23.48 48.371 22.784 47.238 19.42 39.559 17.332 35.28 16.404 31"><title>2024-01-17 1.0km</title><desc>10572816563</desc></polyline><polyline fill="none" stroke="#4dd2ff" stroke-linecap="round" stroke-linejoin="round" stroke-width=".5" points="36.63 31 37.667 35.078 39.87 42.25 41.426 45.203 42.333 48.016 42.981 48.859 43.37 49 43.37 48.438 40.648 42.672 38.186 36.344 36.63 33.25"><title>2024-01-16 1.0km</title><desc>10566280205</desc></polyline><polyline fill="none" stroke="#4dd2ff" stroke-linecap="round" stroke-linejoin="round" stroke-width=".5" points="56.383 31.406 58.254 35.331 59.751 40.474 61.497 43.992 62.993 48.323 63.368 49 63.617 49 59.875 41.286 59.002 38.579 58.379 36.143 57.506 34.383 56.632 31"><title>2024-01-09 1.0km</title><desc>10520988068</desc></polyline><polyline fill="none" stroke="#4dd2ff" stroke-linecap="round" stroke-linejoin="round" stroke-width=".5" points="76.757 32.489 77.381 35.06 78.628 37.767 80.873 44.669 82.619 48.594 82.993 49 83.243 48.729 82.869 47.241 82.245 46.293 80.374 41.421 78.628 37.767 77.131 31"><title>2024-01-07 1.0km</title><desc>10508221625</desc></polyline><polyline fill="none" stroke="#4dd2ff" stroke-linecap="round" stroke-linejoin="round" stroke-width=".5" points="98.587 36.333 98.833 37.667 99.939 40.467 100.922 43.8 102.888 48.6 103.379 49 103.379 48.067 102.273 46.2 101.659 44.2 99.201 39 98.341 36.733 97.727 35.667 96.621 31"><title>2024-01-06 1.0km</title><desc>10501510624</desc></polyline><polyline fill="none" stroke="#4dd2ff" stroke-linecap="round" stroke-linejoin="round" stroke-width=".5" points="117.622 34.273 118.55 36.538 119.246 39.434 120.406 43.21 121.682 45.979 122.494 47.993 122.958 48.748 123.422 49 123.306 48.119 122.726 46.734 118.898 39.434 118.202 37.294 117.97 35.28 117.158 33.14 116.578 31"><title>2024-01-05 1.0km</title><desc>10495609202</desc></polyline><polyline fill="none" stroke="#4dd2ff" stroke-linecap="round" stroke-linejoin="round" stroke-width=".5" points="136.207 31 136.978 32.814 137.621 34.767 138.521 36.581 140.193 41.326 142.25 46.07 143.022 48.581 143.536 49 143.793 48.302 143.665 47.326 140.579 41.047 139.55 37.419 138.521 31.558"><title>2024-01-04 1.0km</title><desc>10489071805</desc></polyline><polyline fill="none" stroke="#4dd2ff" stroke-linecap="round" stroke-linejoin="round" stroke-width=".5" points="157.5 34.309 159.085 38.676 161.037 43.044 162.013 46.75 162.866 49 162.988 49 162.988 48.074 162.378 45.824 161.159 43.044 160.183 40.265 158.597 37.088 157.622 34.176 157.012 32.324 157.378 31"><title>2024-01-03 1.0km</title><desc>10482519748</desc></polyline><polyline fill="none" stroke="#4dd2ff" stroke-linecap="round" stroke-linejoin="round" stroke-width=".5" points="176.367 31.298 179.52 40.521 182.81 48.405 183.496 49 183.633 48.405 183.222 47.364 179.794 40.818 178.561 37.545 176.778 31"><title>2024-01-01 1.0km</title><desc>10470902913</desc></polyline><polyline fill="none" stroke="#4dd2ff" stroke-linecap="round" stroke-linejoin="round" stroke-width=".5" points="27.617 57.408 27.391 57.776 25.021 59.49 24.006 60.592 23.329 61.816 22.877 62.429 22.539 62.551 21.072 62.551 19.718 63.041 17.912 62.918 17.01 62.551 16.446 61.694 16.107 60.959 15.994 59.245 15.656 58.51 14.302 58.51 13.173 58.878 13.06 59 13.512 59.245 13.737 59 12.947 59 12.722 58.755 12.496 57.898 12.383 56.429 12.947 56.551 13.399 57.531 14.414 58.633 15.204 58.633 15.881 58.143 16.446 58.265 16.558 58.02 15.543 55.082 15.317 54.959 14.076 54.837 12.835 54.959 13.625 54.959 12.496 53.735 12.383 53 12.722 53.49 13.06 55.082 13.399 55.816 13.737 57.408 13.06 61.571 13.85 65.367 14.527 66.469 14.64 68.306 15.656 71"><title>2023-12-31 1.5km</title><desc>10466792666</desc></polyline><polyline fill="none" stroke="#4dd2ff" stroke-linecap="round" stroke-linejoin="round" stroke-width=".5" points="37.613 57.273 38.926 61.935 40.716 65.691 42.267 70.094 42.745 71 42.984 71 43.103 69.964 42.626 68.54 40.477 64.137 40.477 62.971 38.926 59.604 38.687 57.014 38.21 55.46 36.897 53"><title>2023-12-30 1.0km</title><desc>10458865202</desc></polyline><polyline fill="none" stroke="#4dd2ff" stroke-linecap="round" stroke-linejoin="round" stroke-width=".5" points="60.979 53 58.712 53.224 57.167 54.23 56.033 55.348 55.518 56.689 55.106 61.944 55.621 67.199 55.827 67.981 56.136 68.652 57.785 70.441 59.639 71 61.082 70.776 62.833 69.658 63.864 68.764 64.894 65.745 64.791 63.398 64.482 61.385 64.276 56.466 63.967 55.236 63.348 54.453 62.627 53.894 60.979 53.559 58.712 53.671 57.064 54.565 56.239 55.571 55.621 57.137 55.621 57.919 55.93 59.82 55.724 61.385"><title>2023-12-29 1.0km</title><desc>10454615358</desc></polyline><polyline fill="none" stroke="#4dd2ff" stroke-linecap="round" stroke-linejoin="round" stroke-width=".5" points="77.487 54.909 79.246 61.182 82.011 69.636 82.89 71 83.016 71 83.016 69.636 81.131 63.909 79.623 60.227 78.618 58.318 76.984 53"><title>2023-12-27 1.0km</title><desc>10441997651</desc></polyline><polyline fill="none" stroke="#4dd2ff" stroke-linecap="round" stroke-linejoin="round" stroke-width=".5" points="96.607 55.318 98.618 59.273 99.623 63.364 101.005 65.955 102.639 70.182 103.142 71 103.393 70.864 102.513 68.273 101.257 66.364 97.235 56.818 96.984 54.227 96.607 53"><title>2023-12-17 1.0km</title><desc>10391591057</desc></polyline><polyline fill="none" stroke="#4dd2ff" stroke-linecap="round" stroke-linejoin="round" stroke-width=".5" points="117.08 56.169 118.481 59.845 120.818 64.408 122.92 70.493 123.388 71 123.505 70.873 123.505 70.366 122.92 68.718 119.766 62.507 118.365 58.704 117.313 54.394 116.495 53"><title>2023-12-16 1.0km</title><desc>10386207035</desc></polyline><polyline fill="none" stroke="#4dd2ff" stroke-linecap="round" stroke-linejoin="round" stroke-width=".5" points="137.568 56.383 138.067 58.684 139.813 63.962 140.811 65.586 142.183 70.053 142.557 71 142.806 71 142.806 69.647 140.935 63.962 138.316 59.902 138.191 58.278 137.443 56.383 137.693 55.165 137.194 53"><title>2023-12-14 1.0km</title><desc>10376526598</desc></polyline><polyline fill="none" stroke="#4dd2ff" stroke-linecap="round" stroke-linejoin="round" stroke-width=".5" points="163.864 54.565 162.936 53.783 161.391 53.112 159.948 53 158.506 53.335 156.652 54.342 155.827 55.46 155.209 57.36 155.209 61.609 155.415 62.95 155.827 64.627 155.518 66.64 155.621 67.422 155.724 67.87 156.755 69.658 158.403 70.888 158.918 71 159.948 71 160.979 71 162.833 70.329 163.864 69.323 164.482 68.205 164.688 65.745 164.791 64.068 164.482 62.056 164.688 59.373 164.585 57.025 164.482 56.242 163.761 54.677 163.451 54.342 162.318 53.559 160.052 53.335 158.609 53.559 157.785 53.894 156.239 55.571 155.621 57.919 155.827 59.484"><title>2023-12-13 1.0km</title><desc>10373769329</desc></polyline><polyline fill="none" stroke="#4dd2ff" stroke-linecap="round" stroke-linejoin="round" stroke-width=".5" points="177.834 55.552 179.072 60.657 180.309 63.343 182.785 70.328 183.281 71 183.528 71 183.652 70.463 183.157 69.657 181.176 66.299 178.329 60.522 177.957 58.776 176.596 55.821 176.348 53"><title>2023-12-12 1.0km</title><desc>10365882163</desc></polyline><polyline fill="none" stroke="#4dd2ff" stroke-linecap="round" stroke-linejoin="round" stroke-width=".5" points="16.495 75 17.78 77.789 19.533 82.225 20.818 84.634 22.687 90.465 22.92 91.986 23.388 93 23.505 92.113 23.271 91.099 20.818 85.521 19.065 82.099 18.598 80.704 18.248 77.789 17.313 75.127"><title>2023-12-11 1.0km</title><desc>10361067591</desc></polyline><polyline fill="none" stroke="#4dd2ff" stroke-linecap="round" stroke-linejoin="round" stroke-width=".5" points="40.361 85.044 42.765 92.348 42.885 92.739 43.366 93 43.486 92.87 43.125 91.957 42.043 89.87 40.841 86.609 37.476 79.826 36.514 75"><title>2023-12-10 1.0km</title><desc>10355395415</desc></polyline><polyline fill="none" stroke="#4dd2ff" stroke-linecap="round" stroke-linejoin="round" stroke-width=".5" points="56.829 76.191 58.902 79.5 59.878 83.603 61.952 89.426 62.683 92.603 63.171 93 63.293 92.868 63.293 92.603 63.049 91.544 60.488 86.382 59.878 84.926 59.512 82.676 58.902 80.956 57.926 79.235 57.804 77.382 56.707 75"><title>2023-12-09 1.0km</title><desc>10350143310</desc></polyline><polyline fill="none" stroke="#4dd2ff" stroke-linecap="round" stroke-linejoin="round" stroke-width=".5" points="78.081 78.493 78.824 81.179 80.433 85.075 82.662 91.522 83.652 93 83.528 91.657 82.785 89.373 80.805 85.881 79.567 82.925 78.205 80.776 77.834 78.627 76.348 75"><title>2023-12-08 1.0km</title><desc>10345303898</desc></polyline><polyline fill="none" stroke="#4dd2ff" stroke-linecap="round" stroke-linejoin="round" stroke-width=".5" points="97.1 75 97.332 75.629 97.796 77.266 98.028 79.531 98.492 81.42 100.116 85.448 101.16 89.098 102.204 91.364 102.436 93 102.668 92.874 102.9 92.622 102.9 92.245 102.32 90.734 100.464 87.587 98.26 81.168 97.68 78.524"><title>2023-12-07 1.0km</title><desc>10340288256</desc></polyline><polyline fill="none" stroke="#4dd2ff" stroke-linecap="round" stroke-linejoin="round" stroke-width=".5" points="116.658 75 117.374 76.683 118.687 82.252 120.597 85.748 122.148 90.022 122.864 92.741 123.222 93 123.342 92.094 123.103 90.928 121.193 86.914 119.881 84.971 119.165 83.547 116.778 75.388"><title>2023-12-06 1.0km</title><desc>10334845031</desc></polyline><polyline fill="none" stroke="#4dd2ff" stroke-linecap="round" stroke-linejoin="round" stroke-width=".5" points="138.341 78.103 139.142 82.2 139.943 85.179 141.888 90.269 142.917 92.628 143.26 93 142.803 90.766 141.659 88.655 140.629 85.676 139.142 82.572 138.456 80.214 137.312 77.731 136.74 75"><title>2023-12-05 1.0km</title><desc>10329306344</desc></polyline><polyline fill="none" stroke="#4dd2ff" stroke-linecap="round" stroke-linejoin="round" stroke-width=".5" points="156.694 76.51 157.506 77.769 158.55 81.42 160.638 86.58 161.682 90.105 162.61 92.119 163.306 93 163.306 92.371 160.29 85.448 159.13 81.545 157.854 78.65 156.926 75"><title>2023-12-04 1.0km</title><desc>10324662812</desc></polyline><polyline fill="none" stroke="#4dd2ff" stroke-linecap="round" stroke-linejoin="round" stroke-width=".5" points="176.874 76.662 178.15 81.508 180.191 86.077 181.595 90.923 182.616 92.862 183.381 93 183.381 92.446 182.488 90.923 181.34 87.6 180.064 85.662 179.171 83.308 177.639 77.769 176.619 75"><title>2023-12-02 1.0km</title><desc>10313350310</desc></polyline><polyline fill="none" stroke="#4dd2ff" stroke-linecap="round" stroke-linejoin="round" stroke-width=".5" points="16.733 97.955 17.989 99.591 19.497 104.773 20.503 109 22.136 113.636 23.142 115 23.267 114.182 23.016 112.545 21.634 109.545 19.497 106.136 18.241 103.545 16.984 97"><title>2023-12-01 1.0km</title><desc>10308709030</desc></polyline><polyline fill="none" stroke="#4dd2ff" stroke-linecap="round" stroke-linejoin="round" stroke-width=".5" points="36.682 97 39.171 105.55 41.659 110.65 43.041 114.4 43.456 115 43.594 114.55 43.041 113.05 40.968 110.2 40.415 108.7 38.341 104.65 37.374 100 36.406 97.3"><title>2023-11-30 1.0km</title><desc>10303537703</desc></polyline><polyline fill="none" stroke="#4dd2ff" stroke-linecap="round" stroke-linejoin="round" stroke-width=".5" points="57.941 100.848 58.742 103.455 59.085 105.566 60.343 108.048 61.716 111.772 63.089 114.752 63.318 115 63.546 114.752 63.318 113.883 62.402 112.269 61.144 108.793 59.314 105.069 58.627 101.097 57.254 98.986 56.454 97"><title>2023-11-29 1.0km</title><desc>10298007687</desc></polyline><polyline fill="none" stroke="#4dd2ff" stroke-linecap="round" stroke-linejoin="round" stroke-width=".5" points="76.897 99.331 78.21 102.698 78.449 105.158 80.119 109.173 81.074 112.799 81.909 114.482 82.745 115 83.103 115 83.342 114.612 83.222 114.094 82.745 113.187 80.835 108.137 78.926 103.734 78.568 101.662 77.733 99.201 76.658 97"><title>2023-11-28 1.0km</title><desc>10292316108</desc></polyline><polyline fill="none" stroke="#4dd2ff" stroke-linecap="round" stroke-linejoin="round" stroke-width=".5" points="99.577 97 100.634 99.866 101.268 102.618 102.113 103.879 103.064 105.713 104.015 108.694 104.86 110.07 104.86 110.758 104.332 111.217 102.641 112.134 101.585 113.051 100.528 113.624 98.943 114.312 96.408 115 95.985 114.885 95.668 114.541 95.14 112.363"><title>2023-11-27 1.0km</title><desc>10287544518</desc></polyline><polyline fill="none" stroke="#4dd2ff" stroke-linecap="round" stroke-linejoin="round" stroke-width=".5" points="118.26 100.902 118.84 102.287 120.232 109.336 121.74 112.986 122.552 114.371 123.132 115 123.248 114.874 122.9 114.245 122.9 113.238 121.972 111.098 120.928 107.573 119.884 105.434 119.188 101.406 117.216 98.259 116.752 97"><title>2023-11-26 1.0km</title><desc>10281488289</desc></polyline><polyline fill="none" stroke="#4dd2ff" stroke-linecap="round" stroke-linejoin="round" stroke-width=".5" points="136.722 97 138.06 100.484 139.264 105.419 140.468 108.177 140.736 109.919 141.405 111.516 142.876 114.274 143.545 115 143.813 115 141.806 110.645 141.538 109.194 140.201 107.306 137.525 100.048 136.187 97.581"><title>2023-11-25 1.0km</title><desc>10275889695</desc></polyline><polyline fill="none" stroke="#4dd2ff" stroke-linecap="round" stroke-linejoin="round" stroke-width=".5" points="156.512 97.168 157.442 101.374 161.783 113.15 162.868 114.832 163.333 115 163.488 114.495 161.938 112.477 160.078 106.925 158.837 104.402 158.062 99.523 157.132 97"><title>2023-11-24 1.0km</title><desc>10271180196</desc></polyline><polyline fill="none" stroke="#4dd2ff" stroke-linecap="round" stroke-linejoin="round" stroke-width=".5" points="177.762 99 178.157 100.143 179.078 105 181.317 111.857 182.37 114.714 182.765 115 183.291 115 183.423 114.714 183.16 113.286 181.712 109.143 177.894 100.857 176.577 97"><title>2023-11-23 1.0km</title><desc>10265414399</desc></polyline><polyline fill="none" stroke="#4dd2ff" stroke-linecap="round" stroke-linejoin="round" stroke-width=".5" points="18.423 123.056 18.54 124.831 19.007 127.62 20.876 132.944 21.46 135.479 22.395 137 23.096 137 22.979 136.239 21.694 132.944 20.643 131.296 19.124 126.606 17.372 121.789 16.904 119"><title>2023-11-21 1.0km</title><desc>10253878272</desc></polyline><polyline fill="none" stroke="#4dd2ff" stroke-linecap="round" stroke-linejoin="round" stroke-width=".5" points="38.063 123.861 38.668 127.803 41.211 134.241 42.301 136.606 42.664 137 42.906 136.869 43.027 136.606 42.543 134.504 40.363 129.774 39.516 127.277 38.184 122.153 37.457 120.839 36.973 119"><title>2023-11-20 1.0km</title><desc>10248671423</desc></polyline><polyline fill="none" stroke="#4dd2ff" stroke-linecap="round" stroke-linejoin="round" stroke-width=".5" points="56.795 120.5 58.555 124.318 59.057 128.273 60.44 131.409 61.822 135.364 62.451 136.318 63.205 137 63.079 135.909 60.943 130.318 59.56 125.273 58.178 122 57.424 119"><title>2023-11-19 1.0km</title><desc>10242265034</desc></polyline><polyline fill="none" stroke="#4dd2ff" stroke-linecap="round" stroke-linejoin="round" stroke-width=".5" points="76.502 135.038 77.288 132.564 77.602 131.967 78.153 131.626 80.825 131.284 82.791 130.858 83.42 130.346 83.813 129.834 84.285 127.701 84.127 127.019 84.442 126.507 84.206 122.583 84.049 122.071 83.97 120.536 83.813 119.597 82.948 119.341 82.241 119.853 82.398 119.597 82.555 119.853 81.533 119.341 81.454 119 81.219 119.171 81.376 119.085 80.825 119.768 80.904 119.682 82.555 120.536 82.162 120.877 81.533 121.133 80.039 121.389 79.961 121.047 80.354 120.877 80.904 120.962 82.555 119.341 84.835 119.427 84.599 119.256 84.285 119.171 84.049 123.265 84.127 124.46 84.363 125.91 84.52 128.384 84.52 129.237 84.285 130.09 83.813 130.602 79.882 131.028 78.074 131.37 77.131 132.052 76.03 133.588 75.401 135.806 75.165 137"><title>2023-11-18 1.0km</title><desc>10236386505</desc></polyline><polyline fill="none" stroke="#4dd2ff" stroke-linecap="round" stroke-linejoin="round" stroke-width=".5" points="96.327 119 98.934 123.5 99.882 126.843 100.237 128.771 100.948 129.929 103.199 136.486 103.673 137 103.673 136.486 103.199 135.843 101.896 131.986 101.185 130.7 100.948 128.514 99.882 125.814 98.697 123.243 98.578 121.829"><title>2023-11-17 1.0km</title><desc>10231268371</desc></polyline><polyline fill="none" stroke="#4dd2ff" stroke-linecap="round" stroke-linejoin="round" stroke-width=".5" points="116.789 119.581 118.528 122.048 118.93 125.387 120.134 128 122.007 134.968 123.211 137 123.077 135.839 122.14 133.952 121.472 132.065 120.401 127.565 118.261 123.065 117.592 121.032 117.191 119"><title>2023-11-16 1.0km</title><desc>10225818993</desc></polyline><polyline fill="none" stroke="#4dd2ff" stroke-linecap="round" stroke-linejoin="round" stroke-width=".5" points="136.879 119.194 137.77 122.677 139.197 126.548 141.159 130.226 141.873 133.129 143.121 135.645 144.37 137 141.159 131 139.732 126.548 135.63 119"><title>2023-11-15 1.0km</title><desc>10219684298</desc></polyline><polyline fill="none" stroke="#4dd2ff" stroke-linecap="round" stroke-linejoin="round" stroke-width=".5" points="156.82 121.165 158.441 123.196 158.69 125.767 160.561 130.233 161.684 134.023 162.806 136.865 163.305 137 163.18 135.376 161.559 133.211 160.935 131.316 159.938 130.098 159.563 128.609 157.693 124.82 157.069 122.113 156.695 119"><title>2023-11-14 1.0km</title><desc>10213806154</desc></polyline><polyline fill="none" stroke="#4dd2ff" stroke-linecap="round" stroke-linejoin="round" stroke-width=".5" points="177.596 121.478 178.558 125.13 181.202 131.913 181.803 134.13 183.005 136.609 183.366 137 182.645 135.696 180.962 131.652 180.841 130.609 179.639 127.739 177.836 124.478 177.115 122.261 176.634 119"><title>2023-11-13 1.0km</title><desc>10208522228</desc></polyline><polyline fill="none" stroke="#4dd2ff" stroke-linecap="round" stroke-linejoin="round" stroke-width=".5" points="17.989 143.045 19.246 146.864 20.754 150 21.634 153.682 22.513 156.273 23.644 158.727 24.147 159 24.398 158.455 23.016 155.727 22.262 152.727 19.497 150.136 17.989 147.955 17.738 145.636 15.602 141"><title>2023-11-12 1.0km</title><desc>10202270880</desc></polyline><polyline fill="none" stroke="#4dd2ff" stroke-linecap="round" stroke-linejoin="round" stroke-width=".5" points="37.277 144.358 40.248 151.075 41.238 154.433 42.228 157.119 42.847 158.328 43.466 159 43.59 158.463 42.476 155.104 40.371 151.881 38.143 146.776 37.277 143.149 36.41 141"><title>2023-11-11 1.0km</title><desc>10196068378</desc></polyline><polyline fill="none" stroke="#4dd2ff" stroke-linecap="round" stroke-linejoin="round" stroke-width=".5" points="58.327 143.684 60.364 149.842 62.255 154.895 63.129 158.211 63.711 159 64.002 158.684 63.565 156.789 61.382 151.895 59.2 147.316 56.289 142.737 55.998 141"><title>2023-11-10 1.0km</title><desc>10191120477</desc></polyline><polyline fill="none" stroke="#4dd2ff" stroke-linecap="round" stroke-linejoin="round" stroke-width=".5" points="75.821 141.55 77.974 143.198 79.24 145.397 79.62 146.221 79.62 147.458 81.013 151.718 81.52 154.191 82.533 156.939 82.786 158.313 83.419 159 83.799 158.863 84.179 158.313 82.786 157.351 80.507 154.053 77.847 146.771 77.214 142.649 76.581 141"><title>2023-11-09 1.0km</title><desc>10185506531</desc></polyline><polyline fill="none" stroke="#4dd2ff" stroke-linecap="round" stroke-linejoin="round" stroke-width=".5" points="96.489 142.445 97.821 145.073 98.305 146.387 99.879 149.803 100.484 152.168 100.363 150.723 100.605 151.642 101.09 155.19 102.179 158.474 102.664 159 103.269 158.737 103.511 158.343 102.179 157.161 101.211 155.584 100.605 153.876 99.758 150.985 98.547 149.277 97.215 146.387 96.852 144.285 96.973 141.657 96.731 141"><title>2023-11-08 1.0km</title><desc>10179505859</desc></polyline><polyline fill="none" stroke="#4dd2ff" stroke-linecap="round" stroke-linejoin="round" stroke-width=".5" points="119.188 150.944 123.248 159 123.48 158.874 122.9 157.49 121.856 155.727 121.16 153.965 119.768 152.455 119.304 151.573 118.956 148.552 118.724 147.671 117.332 145.28 116.52 141"><title>2023-11-06 1.0km</title><desc>10167691585</desc></polyline><polyline fill="none" stroke="#4dd2ff" stroke-linecap="round" stroke-linejoin="round" stroke-width=".5" points="138.27 146.05 139.105 147.604 142.208 154.727 143.521 158.741 143.759 159 143.998 159 143.998 158.612 143.043 156.54 142.208 155.374 142.088 154.727 141.372 153.95 139.344 150.453 136.957 144.367 136.002 141"><title>2023-11-05 1.1km</title><desc>10161301187</desc></polyline><polyline fill="none" stroke="#4dd2ff" stroke-linecap="round" stroke-linejoin="round" stroke-width=".5" points="156.634 141 159.038 146.348 160.12 151.044 161.803 154.304 162.404 156.913 163.005 159 163.366 158.609 163.246 158.217 161.683 155.348 161.563 154.957 160.12 152.739 159.519 150.652 157.957 147.783 157.596 145.304 156.875 142.696"><title>2023-11-04 1.0km</title><desc>10155501797</desc></polyline><polyline fill="none" stroke="#4dd2ff" stroke-linecap="round" stroke-linejoin="round" stroke-width=".5" points="184.829 143.734 183.464 141.911 182.625 141.342 180.945 141 179.37 141.114 177.165 142.139 176.221 143.051 175.381 144.76 175.171 146.127 174.856 150.684 175.066 155.468 175.276 156.152 176.326 157.861 177.585 158.772 179.685 159 181.575 158.203 183.359 156.038 183.884 155.013 184.619 151.709 184.619 149.089 185.144 145.671 185.039 144.418 183.884 143.051 182.94 142.367 180.735 141.342 179.58 141.342 177.06 142.139 175.906 143.165 175.171 144.532 174.961 145.443 175.171 149.203 174.961 150.911"><title>2023-11-03 1.0km</title><desc>10152446508</desc></polyline><polyline fill="none" stroke="#4dd2ff" stroke-linecap="round" stroke-linejoin="round" stroke-width=".5" points="16.275 163 17.259 165.136 18.102 168.949 19.508 171.695 21.617 177.186 22.038 178.102 22.741 180.542 23.163 181 23.725 181 23.725 180.695 22.741 180.237 22.32 179.169 21.336 178.254 20.633 176.271 19.649 174.746 18.524 172.458 17.259 167.729 16.415 165.746"><title>2023-11-02 1.1km</title><desc>10144903556</desc></polyline><polyline fill="none" stroke="#4dd2ff" stroke-linecap="round" stroke-linejoin="round" stroke-width=".5" points="36.935 164.304 37.175 165.739 38.137 167.957 39.82 173.957 42.705 179.957 43.546 181 43.065 179.435 41.262 176.696 40.301 173.174 39.098 171.478 37.656 168.348 36.454 163"><title>2023-11-01 1.0km</title><desc>10138966680</desc></polyline><polyline fill="none" stroke="#4dd2ff" stroke-linecap="round" stroke-linejoin="round" stroke-width=".5" points="57.381 163.271 58.004 165.301 59.002 170.714 60.624 174.233 61.621 177.481 63.243 181 63.368 180.865 62.245 179.241 60.624 175.451 59.252 173.015 56.882 165.842 56.632 163"><title>2023-10-31 1.0km</title><desc>10133123337</desc></polyline><polyline fill="none" stroke="#4dd2ff" stroke-linecap="round" stroke-linejoin="round" stroke-width=".5" points="77.174 165.133 77.788 168.333 77.788 169.533 79.14 171.8 82.826 179.667 83.441 180.867 83.686 181 80.86 175.4 79.631 171.933 78.28 169.133 76.314 163"><title>2023-10-30 1.0km</title><desc>10127985445</desc></polyline><polyline fill="none" stroke="#4dd2ff" stroke-linecap="round" stroke-linejoin="round" stroke-width=".5" points="97.163 165.605 97.708 169.276 98.036 170.461 100.218 175.553 101.31 178.513 102.947 180.763 103.383 181 103.492 180.645 102.51 179.105 101.091 176.026 98.581 171.408 97.599 167.974 96.835 166.434 96.726 164.066 96.508 163"><title>2023-10-28 1.0km</title><desc>10115543824</desc></polyline><polyline fill="none" stroke="#4dd2ff" stroke-linecap="round" stroke-linejoin="round" stroke-width=".5" points="117.665 166.733 118.648 169.933 119.754 172.467 120.737 176.067 122.212 179.533 122.826 180.867 123.441 181 123.563 180.867 123.318 180.067 122.58 178.067 120.123 173.267 118.157 167.933 116.928 165.267 116.437 163"><title>2023-10-27 1.0km</title><desc>10110442644</desc></polyline><polyline fill="none" stroke="#4dd2ff" stroke-linecap="round" stroke-linejoin="round" stroke-width=".5" points="137.561 165.779 139.878 173.588 140.732 175.971 141.586 177.426 142.561 180.206 142.927 180.735 143.659 181 143.781 180.603 143.659 180.074 142.439 178.485 140.61 175.309 138.414 168.824 136.951 166.441 136.219 163"><title>2023-10-26 1.0km</title><desc>10104873905</desc></polyline><polyline fill="none" stroke="#4dd2ff" stroke-linecap="round" stroke-linejoin="round" stroke-width=".5" points="159.098 171.609 161.863 178.522 163.185 180.87 163.666 181 163.546 179.696 160.301 174.087 158.497 169.522 156.935 166.261 156.334 163"><title>2023-10-25 1.0km</title><desc>10098978222</desc></polyline><polyline fill="none" stroke="#4dd2ff" stroke-linecap="round" stroke-linejoin="round" stroke-width=".5" points="176.67 163 176.549 163.92 177.276 166.942 178.244 168.912 178.85 171.277 179.939 174.431 182.24 178.898 182.967 180.737 183.209 181 183.451 180.869 183.33 179.161 181.998 176.664 181.029 175.219 179.818 172.46 179.576 171.015 178.123 168.781 177.276 166.81 177.033 164.445 176.67 163"><title>2023-10-24 1.0km</title><desc>10092835699</desc></polyline><polyline fill="none" stroke="#4dd2ff" stroke-linecap="round" stroke-linejoin="round" stroke-width=".5" points="18.15 188.108 19.94 194.453 20.776 196.007 21.73 199.892 23.163 202.482 23.759 203 23.163 202.353 22.327 200.281 20.179 197.691 19.702 196.784 19.224 193.806 17.792 190.957 16.837 187.978 16.241 185"><title>2023-10-23 1.0km</title><desc>10087395010</desc></polyline><polyline fill="none" stroke="#4dd2ff" stroke-linecap="round" stroke-linejoin="round" stroke-width=".5" points="34.172 185.086 34.49 185 36.758 185.173 37.752 185.432 37.991 185.561 38.508 185.95 38.866 186.381 39.662 187.849 40.06 189.489 40.577 190.353 40.815 191.043 41.372 192.295 41.77 193.59 42.367 194.626 42.645 194.928 43.003 195.532 43.202 196.827 43.322 197.173 43.64 197.648 43.719 198.381 43.839 198.684 45.589 202.827 45.828 203 45.828 202.784 45.47 202.439 45.072 201.489 44.674 200.669 43.6 197.345"><title>2023-10-22 1.5km</title><desc>10080655811</desc></polyline><polyline fill="none" stroke="#4dd2ff" stroke-linecap="round" stroke-linejoin="round" stroke-width=".5" points="57.137 185 57.769 185.457 56.632 185.274 58.4 187.558 58.569 188.107 58.442 188.563 57.853 188.883 57.684 189.203 57.726 189.751 58.063 191.076 58.442 192.036 58.863 193.498 59.621 194.822 59.747 195.325 60.211 196.147 60.505 196.513 60.547 196.741 60.842 197.015 61.053 197.472 61.347 198.34 61.642 198.934 61.6 200.122 62.147 201.173 62.316 201.675 62.61 202.223 63.116 202.863 63.368 203 62.4 201.629 62.189 200.899 61.768 199.985 61.6 199.391 61.053 198.614 60.589 197.289"><title>2023-10-20 1.4km</title><desc>10069668027</desc></polyline><polyline fill="none" stroke="#4dd2ff" stroke-linecap="round" stroke-linejoin="round" stroke-width=".5" points="76.378 185 76.464 185.698 77.15 187.372 77.321 188.395 78.736 191.837 78.864 192.302 78.95 193 79.121 193.465 80.15 194.907 80.707 196.023 81.05 197.14 81.35 197.744 81.522 198.674 81.736 199.14 82.293 200.581 82.379 201.14 83.193 202.814 83.408 203 83.536 203 83.622 202.953 83.579 202.907 82.722 201.837 82.336 200.535 81.522 199.047 81.393 198.442 81.307 197.419"><title>2023-10-19 1.3km</title><desc>10064004415</desc></polyline><polyline fill="none" stroke="#4dd2ff" stroke-linecap="round" stroke-linejoin="round" stroke-width=".5" points="95.941 185 97.706 187.298 97.588 188.957 97.824 190.617 98.647 193.553 99.824 195.468 101 198.787 103.353 202.617 103.706 203 104.059 202.872 102.529 201.34 99.706 195.851 99 193.426 97 189.213"><title>2023-10-18 1.0km</title><desc>10058081424</desc></polyline><polyline fill="none" stroke="#4dd2ff" stroke-linecap="round" stroke-linejoin="round" stroke-width=".5" points="116.858 186.091 117.864 191.955 120.503 198.909 122.262 202.591 123.016 203 123.393 203 123.644 202.455 122.765 201.364 121.634 199.591 120.126 196.318 119.497 194.409 116.858 189.091 116.607 188.273 116.356 185"><title>2023-10-17 1.0km</title><desc>10051702317</desc></polyline><polyline fill="none" stroke="#4dd2ff" stroke-linecap="round" stroke-linejoin="round" stroke-width=".5" points="135.981 185.415 137.257 187.631 139.171 192.615 140.191 194.554 141.34 198.154 142.743 201.754 143.254 202.723 143.892 203 144.019 202.862 143.892 202.446 142.488 200.369 140.574 195.662 139.171 192.754 138.022 187.354 137.384 185"><title>2023-10-16 1.0km</title><desc>10046279660</desc></polyline><polyline fill="none" stroke="#4dd2ff" stroke-linecap="round" stroke-linejoin="round" stroke-width=".5" points="156.314 185 156.84 186.143 157.367 188.714 158.552 192.714 160.132 195.143 161.975 202 162.633 202.714 163.555 203 163.686 202.714 163.555 201.857 161.843 199.429 160.922 196.571 159.868 194.857 157.367 189 156.445 185"><title>2023-10-15 1.0km</title><desc>10039610121</desc></polyline><polyline fill="none" stroke="#4dd2ff" stroke-linecap="round" stroke-linejoin="round" stroke-width=".5" points="176.254 186.306 176.656 190.516 177.726 193.565 179.064 195.452 179.866 198.065 182.14 202.129 182.676 202.71 183.344 203 183.746 202.71 183.746 202.274 181.07 200.097 179.331 196.903 178.662 194.145 177.057 190.516 176.254 187.468 176.388 185.581 176.254 185"><title>2023-10-14 1.0km</title><desc>10033377496</desc></polyline><polyline fill="none" stroke="#4dd2ff" stroke-linecap="round" stroke-linejoin="round" stroke-width=".5" points="15.919 207.286 18.288 210.143 18.552 212.286 20.79 219.143 22.896 224.143 23.555 225 24.081 225 24.081 224.571 23.95 224.143 22.765 223.286 21.448 220.857 20 216.286 17.367 210.429 16.972 208.429 16.314 207"><title>2023-10-13 1.0km</title><desc>10028006924</desc></polyline><polyline fill="none" stroke="#4dd2ff" stroke-linecap="round" stroke-linejoin="round" stroke-width=".5" points="36.138 207 37.404 208.649 38.164 210.023 38.291 211.809 38.164 213.733 39.557 216.618 41.203 221.015 42.849 224.038 43.229 224.588 43.862 225 43.862 224.313 42.469 222.527 41.203 220.328 39.557 215.794 38.544 214.008 38.037 212.496"><title>2023-10-12 1.0km</title><desc>10021974100</desc></polyline><polyline fill="none" stroke="#4dd2ff" stroke-linecap="round" stroke-linejoin="round" stroke-width=".5" points="57.896 209.552 58.391 212.239 58.267 213.313 59.381 216.94 60.248 218.552 61.114 221.507 62.352 224.463 62.6 224.731 63.219 225 63.095 224.463 61.733 220.97 60.248 218.418 58.267 213.851 57.772 212.104 57.524 209.552 56.781 207"><title>2023-10-10 1.0km</title><desc>10009069592</desc></polyline><polyline fill="none" stroke="#4dd2ff" stroke-linecap="round" stroke-linejoin="round" stroke-width=".5" points="76.951 209.25 77.804 211.632 78.658 214.809 80.488 218.779 81.952 223.809 82.805 225 83.049 224.603 83.171 223.147 82.317 220.632 80.488 217.456 78.414 211.632 77.804 208.985 76.829 207"><title>2023-10-09 1.0km</title><desc>10003389142</desc></polyline><polyline fill="none" stroke="#4dd2ff" stroke-linecap="round" stroke-linejoin="round" stroke-width=".5" points="96.335 207 97.235 208.116 98.135 210.209 98.65 214.395 100.579 218.581 102.25 223.326 103.022 224.721 103.665 225 103.665 223.884 101.222 219.977 98.007 212.163 96.721 207.14"><title>2023-10-08 1.0km</title><desc>9996447828</desc></polyline><polyline fill="none" stroke="#4dd2ff" stroke-linecap="round" stroke-linejoin="round" stroke-width=".5" points="117.689 210.6 118.282 212.786 120.059 217.543 120.652 219.6 122.548 224.357 123.14 225 123.258 224.486 123.258 223.971 121.007 219.986 119.941 217.671 118.045 212.014 117.452 209.057 116.742 207"><title>2023-10-07 1.0km</title><desc>9989974159</desc></polyline><polyline fill="none" stroke="#4dd2ff" stroke-linecap="round" stroke-linejoin="round" stroke-width=".5" points="138.529 212.362 139.471 215.426 140.176 216.957 141.588 222.957 141.941 224.106 142.647 225 143.235 225 143.471 224.489 143.353 224.106 141.941 222.064 140.529 219 140.059 216.957 137.588 210.957 137.235 208.787 136.529 207"><title>2023-10-06 1.0km</title><desc>9984428862</desc></polyline><polyline fill="none" stroke="#4dd2ff" stroke-linecap="round" stroke-linejoin="round" stroke-width=".5" points="156.125 207 158.164 212.459 159.524 217.033 161.836 222.787 162.787 224.705 163.195 225 163.739 225 163.875 224.705 163.467 223.967 161.836 221.607 160.884 219.689 159.252 215.41 158.572 213.197 156.669 209.656 156.669 208.328"><title>2023-10-04 1.0km</title><desc>9971682885</desc></polyline><polyline fill="none" stroke="#4dd2ff" stroke-linecap="round" stroke-linejoin="round" stroke-width=".5" points="177.276 209.102 177.881 211.204 178.486 212.65 178.971 214.883 181.271 219.482 181.392 221.058 182.119 224.212 182.361 224.606 183.088 225 183.088 223.686 181.514 220.796 180.424 218.299 179.818 217.117 179.213 215.409 178.002 212.912 177.518 210.942 177.276 208.971 176.912 207"><title>2023-10-03 1.0km</title><desc>9965060084</desc></polyline><polyline fill="none" stroke="#4dd2ff" stroke-linecap="round" stroke-linejoin="round" stroke-width=".5" points="16.71 229.744 18.355 235.099 18.629 237.479 19.589 238.669 20.274 240.455 21.508 245.066 22.468 246.554 23.153 247 23.29 246.851 22.879 245.661 21.371 242.835 18.903 236.884 17.395 232.421 17.121 229"><title>2023-10-02 1.0km</title><desc>9958643020</desc></polyline><polyline fill="none" stroke="#4dd2ff" stroke-linecap="round" stroke-linejoin="round" stroke-width=".5" points="37.147 232.168 37.412 233.464 40.332 240.376 41.792 244.84 42.588 246.424 43.384 247 43.517 246.856 43.384 246.28 40.73 242.248 38.208 236.056 37.014 232.312 36.483 229"><title>2023-10-01 1.0km</title><desc>9952075403</desc></polyline><polyline fill="none" stroke="#4dd2ff" stroke-linecap="round" stroke-linejoin="round" stroke-width=".5" points="57.416 231.609 58.497 233.826 58.978 236.044 59.339 238.13 61.142 243.217 62.705 246.478 63.426 247 63.666 246.609 61.262 242.957 60.18 240.478 59.82 239.174 58.137 235.522 57.175 231.478 56.334 229"><title>2023-09-30 1.0km</title><desc>9945549317</desc></polyline><polyline fill="none" stroke="#4dd2ff" stroke-linecap="round" stroke-linejoin="round" stroke-width=".5" points="77.213 229 78.408 231.016 78.806 232.6 79.867 235.192 80.398 239.08 80.796 240.232 82.389 244.12 82.787 246.568 83.052 246.856 83.45 247 83.583 246.712 81.194 242.392 79.602 238.648 79.071 236.488 77.213 232.168 76.417 229.576"><title>2023-09-28 1.0km</title><desc>9933629332</desc></polyline><polyline fill="none" stroke="#4dd2ff" stroke-linecap="round" stroke-linejoin="round" stroke-width=".5" points="96.481 231.045 97.487 234.591 99.372 237.182 100.628 241.818 102.388 244.955 102.89 246.727 103.393 247 103.644 246.591 103.393 246.045 102.388 244.682 99.497 238.818 97.989 234.727 96.356 229"><title>2023-09-27 1.0km</title><desc>9927137811</desc></polyline><polyline fill="none" stroke="#4dd2ff" stroke-linecap="round" stroke-linejoin="round" stroke-width=".5" points="121.495 229 121.136 230.731 120.778 231.726 120.498 232.938 118.864 236.356 118.026 237.784 117.867 238.389 117.946 238.865 118.146 239.558 118.744 241.029 118.943 241.418 119.183 242.111 119.98 243.106 120.339 243.885 120.738 244.49 121.057 245.356 121.535 246.005 122.133 247"><title>2023-09-26 1.0km</title><desc>9920397094</desc></polyline><polyline fill="none" stroke="#4dd2ff" stroke-linecap="round" stroke-linejoin="round" stroke-width=".5" points="139.916 229 139.131 231.615 138.347 233.014 137.618 233.926 137.226 234.655 137.058 235.385 137.114 236.297 137.394 237.027 138.067 238.061 138.347 239.095 138.907 240.432 139.972 241.77 141.765 245.419 142.942 247"><title>2023-09-25 1.0km</title><desc>9914573673</desc></polyline><polyline fill="none" stroke="#4dd2ff" stroke-linecap="round" stroke-linejoin="round" stroke-width=".5" points="161.327 229 160.885 229.672 160.796 230.008 160.885 230.44 160.929 230.872 160.044 232.504 159.823 233.608 159.513 234.424 157.656 237.688 157.611 238.072 157.788 238.84 158.275 239.608 158.54 240.28 158.938 240.952 159.16 241.624 159.735 242.536 160.177 243.448 160.664 243.976 160.796 244.456 161.106 244.84 161.769 245.992 162.256 246.52 162.389 247"><title>2023-09-24 1.0km</title><desc>9907510217</desc></polyline><polyline fill="none" stroke="#4dd2ff" stroke-linecap="round" stroke-linejoin="round" stroke-width=".5" points="180.671 229 180.295 229.583 180.027 230.165 179.866 230.922 179.812 231.913 178.899 233.136 178.363 234.534 177.88 235.233 177.557 236.165 177.504 237.155 178.631 240.01 179.061 240.884 180.456 243.097 181.047 244.553 181.798 245.485 182.228 246.243 182.496 247"><title>2023-09-23 1.0km</title><desc>9901004991</desc></polyline><polyline fill="none" stroke="#4dd2ff" stroke-linecap="round" stroke-linejoin="round" stroke-width=".5" points="20.691 251 20.333 251.667 19.974 252.833 19.155 254.556 18.336 255.722 17.619 257.667 17.568 258.722 17.67 259.333 18.694 261.778 18.848 262.5 19.053 262.889 19.77 263.778 20.333 264.889 20.794 266.056 21.562 267.167 22.432 269"><title>2023-09-22 1.0km</title><desc>9895405405</desc></polyline><polyline fill="none" stroke="#4dd2ff" stroke-linecap="round" stroke-linejoin="round" stroke-width=".5" points="40.954 251 40.807 251.531 40.514 251.85 39.878 253.018 39.633 253.867 38.899 255.726 38.116 257.319 37.627 258.487 37.48 259.071 37.48 259.443 37.627 259.974 37.92 260.504 38.556 262.15 39.193 263.319 39.535 264.168 40.171 265.23 40.563 265.708 40.856 266.558 41.639 267.938 42.52 269"><title>2023-09-21 1.0km</title><desc>9889267953</desc></polyline><polyline fill="none" stroke="#4dd2ff" stroke-linecap="round" stroke-linejoin="round" stroke-width=".5" points="61.833 251 61.19 252.927 60.812 254.444 60.208 255.715 59.49 257.847 58.243 260.185 57.903 261.456 57.941 261.743 58.167 262.358 58.659 263.424 58.961 264.326 59.717 265.392 60.17 266.253 60.435 266.868 60.737 267.401 61.228 267.77 61.833 268.672 61.87 268.836 62.097 269"><title>2023-09-20 1.0km</title><desc>9882714971</desc></polyline><polyline fill="none" stroke="#4dd2ff" stroke-linecap="round" stroke-linejoin="round" stroke-width=".5" points="81.493 251 81.109 251.972 80.384 254.1 80.341 254.794 80.085 255.165 79.787 255.859 79.616 256.506 79.275 257.386 78.294 258.959 78.038 259.884 77.953 260.717 78.038 261.55 78.294 262.476 78.593 263.123 79.531 264.743 80 265.391 80.426 266.548 80.853 267.288 81.279 267.889 81.748 268.352 82.047 269"><title>2023-09-19 1.0km</title><desc>9876194288</desc></polyline><polyline fill="none" stroke="#4dd2ff" stroke-linecap="round" stroke-linejoin="round" stroke-width=".5" points="99.868 251 99.55 251.518 99.02 252.553 98.861 253.243 97.907 254.911 97.165 256.463 97.006 257.038 97.059 257.671 97.377 258.476 97.854 259.339 98.278 260.546 98.861 261.812 99.497 262.962 100.079 263.709 100.768 264.859 101.192 266.182 101.934 267.332 102.305 268.367 102.994 269"><title>2023-09-18 1.0km</title><desc>9870505463</desc></polyline><polyline fill="none" stroke="#4dd2ff" stroke-linecap="round" stroke-linejoin="round" stroke-width=".5" points="120.181 251 119.922 251.505 119.561 253.187 119.096 253.972 118.889 254.589 117.752 256.439 117.339 257.449 117.08 258.346 117.287 258.963 118.424 261.43 118.992 262.327 119.406 263.28 120.078 264.178 120.439 264.794 120.904 266.252 122.92 269"><title>2023-09-16 1.0km</title><desc>9856514700</desc></polyline><polyline fill="none" stroke="#4dd2ff" stroke-linecap="round" stroke-linejoin="round" stroke-width=".5" points="139.751 251 139.198 252.68 138.479 253.82 136.986 256.7 136.931 257.36 136.986 258.14 137.318 258.92 137.871 259.76 138.369 260.9 139.254 262.4 140.359 264.5 140.47 265.28 140.857 265.58 141.299 266.18 142.018 267.38 142.792 268.04 142.958 268.46 143.069 269"><title>2023-09-15 1.0km</title><desc>9850671982</desc></polyline><polyline fill="none" stroke="#4dd2ff" stroke-linecap="round" stroke-linejoin="round" stroke-width=".5" points="160.458 251 159.542 253.421 158.513 254.91 158.055 255.717 157.369 257.455 157.197 258.076 157.197 258.572 157.369 259.193 158.055 261.055 158.684 262.297 160.229 264.966 160.858 266.145 160.972 266.828 161.43 267.262 162.174 268.441 162.803 269"><title>2023-09-14 1.0km</title><desc>9844236351</desc></polyline><polyline fill="none" stroke="#4dd2ff" stroke-linecap="round" stroke-linejoin="round" stroke-width=".5" points="177.139 251 177.469 251.268 177.592 251.536 177.674 252.117 177.921 252.608 178.086 253.993 178.086 254.663 178.004 255.02 178.086 255.467 178.292 256.003 178.209 256.449 178.251 256.673 178.662 257.432 179.033 258.548 179.362 259.174 179.774 259.754 180.226 260.156 180.35 260.424 180.473 261.005 180.803 261.586 181.173 262.658 181.667 263.596 181.914 264.4 182.038 265.07 182.284 265.605 182.737 267.079 183.355 268.241 183.396 268.419 183.355 268.553 182.861 269 183.108 268.821 183.231 268.553 183.314 268.33 183.272 268.017 183.025 267.705 182.284 266.097 181.914 264.891 181.132 263.149 180.761 261.452 180.556 260.96 179.774 259.933 178.992 258.459 178.621 257.253 178.498 256.449 178.168 255.601 177.51 254.171 177.345 253.501 176.769 252.429 176.645 251.849 176.604 251.134"><title>2023-09-13 1.0km</title><desc>9837636972</desc></polyline></svg>