<?xml version="1.0" encoding="utf-8" ?>
<svg baseProfile="full" height="300mm" version="1.1" viewBox="0,0,200,300" width="200mm" xmlns="http://www.w3.org/2000/svg" xmlns:ev="http://www.w3.org/2001/xml-events" xmlns:xlink="http://www.w3.org/1999/xlink"><defs /><rect fill="#222222" height="300" width="200" x="0" y="0" /><text fill="#FFFFFF" style="font-size:12px; font-family:Arial; font-weight:bold;" x="10" y="20">Over 1km Runs</text><text fill="#FFFFFF" style="font-size:4px; font-family:Arial" x="10" y="280">ATHLETE</text><text fill="#FFFFFF" style="font-size:9px; font-family:Arial" x="10" y="290">Jiakai</text><text fill="#FFFFFF" style="font-size:4px; font-family:Arial" x="120" y="280">STATISTICS</text><text fill="#FFFFFF" style="font-size:3px; font-family:Arial" x="120" y="285">Number: 13</text><text fill="#FFFFFF" style="font-size:3px; font-family:Arial" x="120" y="290">Weekly: 4.3</text><text fill="#FFFFFF" style="font-size:3px; font-family:Arial" x="141" y="285">Total: 13.2 km</text><text fill="#FFFFFF" style="font-size:3px; font-family:Arial" x="141" y="290">Avg: 1.0 km</text><text fill="#FFFFFF" style="font-size:3px; font-family:Arial" x="167" y="285">Min: 1.0 km</text><text fill="#FFFFFF" style="font-size:3px; font-family:Arial" x="167" y="290">Max: 1.0 km</text><polyline fill="none" points="37.58877128036693,32.39999999990687 36.72746617300436,36.553903574473225 35.86616106564179,38.942392597324215 35.19625709345564,41.850112912012264 31.27253382699564,50.05400581296999 29.262821910437196,53.4809343063971 28.880019640084356,54.93478024576325 29.071420774795115,56.07708672003355 29.549923612270504,57.738621760276146 30.98543212423101,61.269377231248654 31.46393496217206,62.20398749609012 32.03813836677,63.8655153287109 33.952149715740234,66.2539581641322 34.81345482356846,68.1231714785099 35.77046049851924,69.57700234651566 36.5360650382936,71.65390099037904 37.68447184795514,73.2115729690995 39.119980359915644,75.59999999997672" stroke="#4dd2ff" stroke-linecap="round" stroke-linejoin="round" stroke-width="0.5"><title>2023-09-26 1.0km</title><desc>9920397094</desc></polyline><polyline fill="none" points="99.79825207125396,32.40000000002328 97.91527140606195,38.67573404638097 96.03229074040428,42.032513879588805 94.28380869328976,44.22171506029554 93.34231836115941,45.97307426633779 92.93882250413299,47.72443192708306 93.07332112221047,49.91362682997715 93.74581421818584,51.66498101409525 95.35979764536023,54.146063462947495 96.03229074040428,56.6271428107284 97.37727692956105,59.83794677478727 99.93275069026276,63.04874554555863 104.23670649714768,71.80544306931552 107.06117749586701,75.59999999997672" stroke="#4dd2ff" stroke-linecap="round" stroke-linejoin="round" stroke-width="0.5"><title>2023-09-25 1.0km</title><desc>9914573673</desc></polyline><polyline fill="none" points="169.18491734424606,32.40000000002328 168.12327822949737,34.01282140496187 167.9109504064545,34.81923148490023 168.12327822949737,35.856043834937736 168.2294421410188,36.89285549859051 166.10616391105577,40.80969336943235 165.5753443534486,43.45931343548 164.83219697372988,45.41772538679652 160.3733126912266,53.25134871248156 160.26714877970517,54.172948881285265 160.69180442532524,56.01614759361837 161.85960745206103,57.85934413736686 162.49659092072397,59.47213933430612 163.45206612395123,61.08493287116289 163.9828856815584,62.69772474770434 165.3630165308714,64.88651106820907 166.42465564515442,67.07529433106538 167.59245867235586,68.34248324355576 167.9109504064545,69.49447227467317 168.65409778663889,70.41606288962066 170.2465564594604,73.18083148286678 171.41435948573053,74.44801545748487 171.73285121982917,75.59999999997672" stroke="#4dd2ff" stroke-linecap="round" stroke-linejoin="round" stroke-width="0.5"><title>2023-09-24 1.0km</title><desc>9907510217</desc></polyline><polyline fill="none" points="35.61049942718819,80.39999999990687 34.7086197482422,81.79807362041902 34.064419977366924,83.19614621263463 33.677900115028024,85.01363904611208 33.549060160294175,87.39035782183055 31.358780939131975,90.32630044373218 30.070381397847086,93.6816578884609 28.910821809899062,95.35933439026121 28.1377820847556,97.59623409050982 28.00894213002175,99.9729371384019 30.71458116872236,106.8234175372636 31.745300801936537,108.92049843980931 35.0951396105811,114.23309304157738 36.51237910659984,117.72821297461633 38.316138464957476,119.96508636011276 39.346858099102974,121.78254404850304 39.99105786997825,123.59999999997672" stroke="#4dd2ff" stroke-linecap="round" stroke-linejoin="round" stroke-width="0.5"><title>2023-09-23 1.0km</title><desc>9901004991</desc></polyline><polyline fill="none" points="101.65881532477215,80.40000000002328 100.79868886014447,82.00001835264266 99.93856239551678,84.80004707211629 97.97255904739723,88.93341489916202 96.00655569927767,91.7334329127334 94.2863027700223,96.40011999430135 94.16342756059021,98.93345938052516 94.4091779794544,100.40012793440837 96.86668216390535,106.26679028652143 97.23530779173598,108.00011871301103 97.72680862853304,108.93344871792942 99.44706155825406,111.06677263998426 100.79868886014447,113.73342401278205 101.90456574317068,116.53340373479296 103.7476938823238,119.20004706969485 105.83657243940979,123.59999999997672" stroke="#4dd2ff" stroke-linecap="round" stroke-linejoin="round" stroke-width="0.5"><title>2023-09-22 1.0km</title><desc>9895405405</desc></polyline><polyline fill="none" points="168.2900434937328,80.39999999990687 167.93772911000997,81.67435169662349 167.2331003434956,82.43896226491779 165.70640468038619,85.24253146233968 165.11921404115856,87.28148803010117 163.35764212254435,91.74169715924654 161.4786320766434,95.56472441973165 160.3042507977225,98.36827238474507 159.95193641399965,99.77004466636572 159.95193641399965,100.66208098269999 160.3042507977225,101.93641778093297 161.0088795647025,103.21075364237186 162.53557522781193,107.16118885797914 164.06227088999003,109.96471806464251 164.8843377851881,112.00364554859698 166.41103344783187,114.55230153060984 167.35053847078234,115.69919549999759 168.05516723776236,117.7381162380334 169.93417728412896,121.05135732179042 172.04806358600035,123.59999999997672" stroke="#4dd2ff" stroke-linecap="round" stroke-linejoin="round" stroke-width="0.5"><title>2023-09-21 1.0km</title><desc>9889267953</desc></polyline><polyline fill="none" points="38.398297149222344,128.39999999990687 36.85662598302588,133.02512360329274 35.94976059207693,136.66616710962262 34.49877596460283,139.71676350175403 32.77573172096163,144.8338773183059 29.783075928222388,150.4429988322081 28.966897075995803,153.49356382119004 29.05758361471817,154.18240011448506 29.601702849380672,155.6584766920423 30.78062785929069,158.2170055700699 31.506120172329247,160.38191080046818 33.31985095562413,162.94043064885773 34.40808942588046,165.00692387938034 35.04289519973099,166.482988519012 35.76838751323521,167.76224322326016 36.94731252267957,168.647880379227 38.398297149222344,170.81276873778552 38.48898368841037,171.20638442679774 39.033102923538536,171.59999999997672" stroke="#4dd2ff" stroke-linecap="round" stroke-linejoin="round" stroke-width="0.5"><title>2023-09-20 1.0km</title><desc>9882714971</desc></polyline><polyline fill="none" points="103.58200726425275,128.40000000002328 102.66091968212277,130.73216522845905 100.92108758212999,135.8407050492242 100.81874451739714,137.50652951572556 100.20468612900004,138.39496847998817 99.48828467633575,140.06079012912232 99.07891241740435,141.61555534426589 98.26016790000722,143.72559129016008 95.90627741161734,147.5014377310872 95.29221902322024,149.72251946339384 95.0875328942202,151.72149022994563 95.29221902322024,153.72045835061 95.90627741161734,155.9415309377946 96.62267886428162,157.49627980554942 98.87422628793865,161.38314497319516 100.0,162.93788823939394 101.02343064639717,165.71421152062248 102.04686129372567,167.49105574237183 103.0702919405885,168.93474013358355 104.19606565218419,170.04526564944535 104.91246710531414,171.59999999997672" stroke="#4dd2ff" stroke-linecap="round" stroke-linejoin="round" stroke-width="0.5"><title>2023-09-19 1.0km</title><desc>9876194288</desc></polyline><polyline fill="none" points="165.68201589258388,128.40000000002328 164.91885403497145,129.64218640653417 163.64691760577261,132.12655675399583 163.2653366769664,133.7828018249711 160.97585110366344,137.78538804734126 159.1951401028782,141.51192616845947 158.81355917360634,142.89212359522935 158.94075281731784,144.41033959202468 159.70391467493027,146.34261272195727 160.84865746088326,148.41290315357037 161.86620660498738,151.31130592199042 163.2653366769664,154.34772307006642 164.79166039219126,157.1080980335828 166.19079046463594,158.90233958337922 167.84430782264099,161.66270784963854 168.8618569658138,164.83712633769028 170.64256796753034,167.59748587734066 171.53292346792296,170.0818059926387 173.18644082639366,171.59999999997672" stroke="#4dd2ff" stroke-linecap="round" stroke-linejoin="round" stroke-width="0.5"><title>2023-09-18 1.0km</title><desc>9870505463</desc></polyline><polyline fill="none" points="34.43408256303519,176.39999999990687 33.81396461604163,177.61122884624638 32.94579949043691,181.64865254447795 31.829587186221033,183.53278055600822 31.333492828533053,185.01316548977047 28.604973862413317,189.4543131077662 27.61278514796868,191.87675272126216 26.99266720050946,194.03002968570217 27.48876155819744,195.51040612952784 30.217280523851514,201.43189993163105 31.581540007144213,203.5851656558225 32.57372872205451,205.87300771195441 34.18603538395837,208.02626821165904 35.05420051002875,209.50663333560806 36.17041281377897,213.00567341549322 41.00733279949054,219.59999999997672" stroke="#4dd2ff" stroke-linecap="round" stroke-linejoin="round" stroke-width="0.5"><title>2023-09-16 1.0km</title><desc>9856514700</desc></polyline><polyline fill="none" points="99.40282573644072,176.39999999990687 98.0757718179375,180.43204031838104 96.3506017238833,183.16806294966955 92.76755614345893,190.0801030973671 92.63485075114295,191.66410886240192 92.76755614345893,193.5361140234163 93.56378849456087,195.4081173952436 94.89084241352975,197.42411902546883 96.085190939717,200.16011791862547 98.20847720978782,203.7601106390357 100.86258504772559,208.80008933134377 101.12799583096057,210.6720781137701 102.05693357391283,211.39207332290243 103.11857670918107,212.83206294709817 104.8437468027696,215.71203901956324 106.70162228867412,217.29602405428886 107.09973846469074,218.30401386402082 107.36514924839139,219.59999999997672" stroke="#4dd2ff" stroke-linecap="round" stroke-linejoin="round" stroke-width="0.5"><title>2023-09-15 1.0km</title><desc>9850671982</desc></polyline><polyline fill="none" points="167.0982501464896,176.40000000002328 164.90174985397607,182.20970878144726 162.43068702472374,185.78490590455476 161.3324368786998,187.72146837890614 159.68506165966392,191.89251972874627 159.2732178545557,193.38217884406913 159.2732178545557,194.57390534703154 159.68506165966392,196.06356249086093 161.3324368786998,200.53252735047136 162.84253082983196,203.51183178054634 166.54912507347763,209.91732146998402 168.05921902460977,212.7476476726588 168.33378156041726,214.3862557723187 169.43203170690686,215.42900569096673 171.21668819477782,218.25932419404853 172.7267821454443,219.59999999997672" stroke="#4dd2ff" stroke-linecap="round" stroke-linejoin="round" stroke-width="0.5"><title>2023-09-14 1.0km</title><desc>9844236351</desc></polyline><polyline fill="none" points="27.134192204568535,224.39999999990687 27.924501015339047,225.04318556562066 28.22086681937799,225.6863708475139 28.418444022070616,227.07993798470125 29.0111756301485,228.2591091375798 29.406330035999417,231.58222270931583 29.406330035999417,233.19017816975247 29.208752832841128,234.04775369015988 29.406330035999417,235.11972238158341 29.900273042730987,236.4060837707948 29.70269584003836,237.4780507280957 29.801484441384673,238.01403391116764 30.789370454847813,239.8363752599107 31.6784678674303,242.51628487021662 32.46877667820081,244.0170321004698 33.45666269212961,245.41058171656914 34.543337306939065,246.3753460550215 34.83970311097801,247.01852192613296 35.13606891501695,248.41206867364235 35.92637772625312,249.80561408912763 36.81547513836995,252.37830981845036 38.000938354525715,254.62941485794727 38.59366996306926,256.558930697036 38.8900357671082,258.1668586120941 39.48276737565175,259.4531996678561 40.5694419904612,262.99063171900343 42.05127101112157,265.77769335138146 42.150059612933546,266.20647159114014 42.05127101112157,266.5280551883625 40.86580779450014,267.5999999999767 41.45853940304369,267.17122216976713 41.75490520708263,266.5280551883625 41.952482409309596,265.9920824870933 41.853693808894604,265.24172037420794 41.26096220035106,264.491357875173 39.48276737565175,260.6323446382303 38.59366996306926,257.7380780080566 36.716686537023634,253.5574605105212 35.82758912490681,249.4840268038679 35.33364611817524,248.30487281735986 33.45666269212961,245.83936594589613 31.579679265618324,242.3018922826741 30.6905818535015,239.40758926514536 30.394216049928218,237.4780507280957 29.603907238226384,235.44131283543538 28.02328961668536,232.01101100549567 27.628135210834444,230.40305424446706 26.245094791986048,227.8303197377827 25.948728987947106,226.43675331783015 25.849940386600792,224.72159281827044" stroke="#4dd2ff" stroke-linecap="round" stroke-linejoin="round" stroke-width="0.5"><title>2023-09-13 1.0km</title><desc>9837636972</desc></polyline></svg>