<?xml version="1.0" encoding="utf-8" ?>
<svg baseProfile="full" height="300mm" version="1.1" viewBox="0,0,200,300" width="200mm" xmlns="http://www.w3.org/2000/svg" xmlns:ev="http://www.w3.org/2001/xml-events" xmlns:xlink="http://www.w3.org/1999/xlink"><defs /><rect fill="#222222" height="300" width="200" x="0" y="0" /><text fill="#FFFFFF" style="font-size:12px; font-family:Arial; font-weight:bold;" x="10" y="20">Over 1km Runs</text><text fill="#FFFFFF" style="font-size:4px; font-family:Arial" x="10" y="280">ATHLETE</text><text fill="#FFFFFF" style="font-size:9px; font-family:Arial" x="10" y="290">Jiakai</text><text fill="#FFFFFF" style="font-size:4px; font-family:Arial" x="120" y="280">STATISTICS</text><text fill="#FFFFFF" style="font-size:3px; font-family:Arial" x="120" y="285">Number: 47</text><text fill="#FFFFFF" style="font-size:3px; font-family:Arial" x="120" y="290">Weekly: 5.9</text><text fill="#FFFFFF" style="font-size:3px; font-family:Arial" x="141" y="285">Total: 49.0 km</text><text fill="#FFFFFF" style="font-size:3px; font-family:Arial" x="141" y="290">Avg: 1.0 km</text><text fill="#FFFFFF" style="font-size:3px; font-family:Arial" x="167" y="285">Min: 1.0 km</text><text fill="#FFFFFF" style="font-size:3px; font-family:Arial" x="167" y="290">Max: 1.5 km</text><polyline fill="none" points="19.951359981670976,31.5 23.55753142386675,39.521767733385786 25.18030857294798,46.56525117252022 27.70462858211249,51.4565481483005 28.606171443127096,55.369579256512225 29.507714303210378,58.5 30.048640019260347,57.913046390982345 29.86833144724369,57.32609265274368 27.524320010095835,53.02176128211431 27.344011437147856,52.43480646493845 25.18030857294798,49.10872672195546 24.278765711933374,45.97829493135214 21.93475427478552,41.67394520621747 21.39382855873555,37.956546660047024 20.31197712570429,34.04348994838074" stroke="#4dd2ff" stroke-linecap="round" stroke-linejoin="round" stroke-width="0.5"><title>2023-11-04 1.0km</title><desc>10155501797</desc></polyline><polyline fill="none" points="62.24388401117176,35.60128603235353 60.196699399501085,32.86709614878055 58.936893484555185,32.012661150074564 56.41728165373206,31.5 54.055145563557744,31.67088706290815 50.74815503600985,33.20887006004341 49.33087338041514,34.57596520334482 48.07106746546924,37.13926642818842 47.75611598789692,39.189905372448266 47.28368876967579,46.02535544836428 47.59864024724811,53.2025563857751 47.91359172668308,54.22786899586208 49.48834912106395,56.79114854091313 51.37805799394846,58.15822980878875 54.52757278177887,58.5 57.36213609017432,57.303804110735655 60.039223660714924,54.05698359222151 60.8266023574397,52.51901439449284 61.928932533599436,47.5633289439138 61.928932533599436,43.63295020873193 62.71631123032421,38.506359258433804 62.558835490606725,36.626606409437954 60.8266023574397,34.57596520334482 59.40932070277631,33.55064392124768 56.10233017522842,32.012661150074564 54.37009704206139,32.012661150074564 50.59067929722369,33.20887006004341 48.858446163125336,34.74685203959234 47.75611598789692,36.797493094811216 47.44116450846195,38.16458612657152 47.75611598789692,43.803836379316635 47.44116450846195,46.36712742398959" stroke="#4dd2ff" stroke-linecap="round" stroke-linejoin="round" stroke-width="0.5"><title>2023-11-03 1.0km</title><desc>10152446508</desc></polyline><polyline fill="none" points="79.41195983905345,31.5 80.88804591912776,34.70340207708068 82.1532625593245,40.423754727467895 84.26195696089417,44.542402126360685 87.42499855998904,52.77968057175167 88.05760688055307,54.152558193774894 89.11195408180356,57.81356222345494 89.74456240143627,58.5 90.58804016187787,58.5 90.58804016187787,58.04237483232282 89.11195408180356,57.35593695519492 88.47934576123953,55.75424798671156 87.00325968116522,54.38137107156217 85.94891248084605,51.40680234506726 84.47282639984041,49.11867062118836 82.78587087988853,45.68646988039836 80.88804591912776,38.59324302338064 79.6228292779997,35.618659207597375" stroke="#4dd2ff" stroke-linecap="round" stroke-linejoin="round" stroke-width="0.5"><title>2023-11-02 1.1km</title><desc>10144903556</desc></polyline><polyline fill="none" points="110.40213107410818,33.45653094444424 110.76274824421853,35.60871332278475 112.20521692745388,38.93480993784033 114.72953712195158,47.93481523124501 119.05694317165762,56.934790088096634 120.31910326797515,58.5 119.59786892775446,56.15218478743918 116.89324014633894,52.04350318084471 115.45077146403491,46.7609032234177 113.64768561068922,44.217425430426374 111.48398258537054,39.521767732687294 109.68089673202485,31.5" stroke="#4dd2ff" stroke-linecap="round" stroke-linejoin="round" stroke-width="0.5"><title>2023-11-01 1.0km</title><desc>10138966680</desc></polyline><polyline fill="none" points="141.0711718350649,31.90601699310355 142.00660711247474,34.95114253554493 143.50330355670303,43.07146089873277 145.93543527740985,48.34965502936393 147.43213172070682,53.2218252713792 149.86426344234496,58.5 150.05135049764067,58.296993465861306 148.36756699811667,55.8609138969332 145.93543527740985,50.1767198771704 143.87747766729444,46.52258897176944 140.32282361388206,35.76317544630729 139.94864950235933,31.5" stroke="#4dd2ff" stroke-linecap="round" stroke-linejoin="round" stroke-width="0.5"><title>2023-10-31 1.0km</title><desc>10133123337</desc></polyline><polyline fill="none" points="170.76074621733278,34.70001399773173 171.68232312705368,39.5000279371161 171.68232312705368,41.30003098072484 173.7097923271358,44.70003348006867 179.2392537817359,56.500009189825505 180.1608306914568,58.30000098468736 180.5294614546001,58.5 176.2902076728642,50.100028715794906 174.44705385435373,44.900033494923264 172.4195846542716,40.7000300984364 169.47053854446858,31.5" stroke="#4dd2ff" stroke-linecap="round" stroke-linejoin="round" stroke-width="0.5"><title>2023-10-30 1.0km</title><desc>10127985445</desc></polyline><polyline fill="none" points="20.74376995768398,65.40791341126896 21.562275734730065,70.91450794483535 22.053379201330245,72.69082608493045 25.327402310445905,80.3289792065043 26.964413864538074,84.76975480490364 29.419931197538972,88.14473880105652 30.074735820293427,88.5 30.238436974585056,87.96710818167776 28.76512657571584,85.65790894487873 26.63701155409217,81.03950385074131 22.87188497837633,74.11187965702266 21.39857457857579,68.96055648243055 20.252666490152478,66.65133908088319 20.088965334929526,63.09869261388667 19.76156302448362,61.5" stroke="#4dd2ff" stroke-linecap="round" stroke-linejoin="round" stroke-width="0.5"><title>2023-10-28 1.0km</title><desc>10115543824</desc></polyline><polyline fill="none" points="51.498007230460644,67.10002202633768 52.972530502825975,71.90003173053265 54.63136918190867,75.70003340672702 56.105892454274,81.10002665757202 58.317677361890674,86.30001002806239 59.239254406653345,88.30000098561868 60.16083145048469,88.5 60.34514685999602,88.30000098561868 59.97651604190469,87.1000065873377 58.87062358763069,84.100018276833 55.18431541044265,76.9000328334514 52.23526886571199,68.90002665808424 50.392114776186645,64.90001474809833 49.6548531409353,61.5" stroke="#4dd2ff" stroke-linecap="round" stroke-linejoin="round" stroke-width="0.5"><title>2023-10-27 1.0km</title><desc>10110442644</desc></polyline><polyline fill="none" points="81.34079528041184,65.66913527133875 84.81703976448625,77.38238563528284 86.09776141680777,80.95590952946804 87.37848306912929,83.13972735963762 88.84216495696455,87.30882922117598 89.39104566536844,88.10294313239865 90.48880708124489,88.5 90.67176731675863,87.90441467636265 90.48880708124489,87.11030070716515 88.65920472051948,84.727957399562 85.91480118129402,79.96326447767206 82.62151693273336,70.23532365914434 80.42599410098046,66.66178557742387 79.32823268417269,61.5" stroke="#4dd2ff" stroke-linecap="round" stroke-linejoin="round" stroke-width="0.5"><title>2023-10-26 1.0km</title><desc>10104873905</desc></polyline><polyline fill="none" points="113.64768590871245,74.41307765478268 117.79478245787323,84.78262495691888 119.77817645855248,88.30434881150723 120.49941064044833,88.5 120.31910209544003,86.54348746663891 115.4507713643834,78.13046718318947 112.74614317994565,71.28264034097083 110.40213208738714,66.39132466586307 109.50058935955167,61.5" stroke="#4dd2ff" stroke-linecap="round" stroke-linejoin="round" stroke-width="0.5"><title>2023-10-25 1.0km</title><desc>10098978222</desc></polyline><polyline fill="none" points="140.00532038975507,61.5 139.82369567640126,62.87956863641739 140.9134439555928,67.41243201401085 142.36644166056067,70.36864313087426 143.2745652263984,73.9160921680741 144.90918764378875,78.64601691463031 148.36005719285458,85.34672935400158 149.44980547111481,88.10584137192927 149.81305489782244,88.5 150.17630432453007,88.30292069306597 149.99467961024493,85.7408883869648 147.99680776707828,81.99637522781268 146.54381006211042,79.82849679747596 144.72756293043494,75.68981492612511 144.36431350465864,73.52193139609881 142.18481694720685,70.17156249145046 140.9134439555928,67.21535115689039 140.55019452888519,63.66789325256832 140.00532038975507,61.5" stroke="#4dd2ff" stroke-linecap="round" stroke-linejoin="round" stroke-width="0.5"><title>2023-10-24 1.0km</title><desc>10092835699</desc></polyline><polyline fill="none" points="172.22532419674098,66.16189021081664 174.9104943284765,75.67989051667973 176.1635737232864,78.01082414062694 177.59566445928067,83.83814920345321 179.74380056466907,87.72302543837577 180.63885727524757,88.5 179.74380056466907,87.5287817621138 178.49072116985917,84.42088100290857 175.2685170127079,80.53599991230294 174.5524716442451,79.17629018146545 173.8364262757823,74.70866756676696 171.68829017039388,70.43528234469704 170.2561994343996,65.96764494967647 169.36114272475243,61.5" stroke="#4dd2ff" stroke-linecap="round" stroke-linejoin="round" stroke-width="0.5"><title>2023-10-23 1.0km</title><desc>10087395010</desc></polyline><polyline fill="none" points="16.2583675137721,91.62949837860651 16.735726284096017,91.5 20.13690752442926,91.7589967380627 21.628653682535514,92.14749170234427 21.986672760453075,92.3417391203111 22.762380762957036,92.92448111675913 23.299409379716963,93.57197177177295 24.492806305876,95.77343643736094 25.089504769304767,98.23389043315547 25.865212771575898,99.52886345918523 26.223231849260628,100.56484050879953 27.058609697734937,102.44254580512643 27.655308161163703,104.38499534671428 28.55035585584119,105.93895189516479 28.96804478019476,106.3921887052129 29.505073397187516,107.29866162565304 29.803422628669068,109.24110045615816 29.982432167511433,109.75908342085313 30.45979093806818,110.47130949964048 30.57913063117303,111.57202139764559 30.758140169782564,112.02525530860294 33.38361340807751,118.24101112637436 33.74163248599507,118.5 33.74163248599507,118.17626389593352 33.20460386900231,117.65828588197473 32.60790540603921,116.23384477256332 32.01120694261044,115.00364377879305 30.400121091865003,110.01807478885166" stroke="#4dd2ff" stroke-linecap="round" stroke-linejoin="round" stroke-width="0.5"><title>2023-10-22 1.5km</title><desc>10080655811</desc></polyline><polyline fill="none" points="50.70558573654853,91.5 51.65288300043903,92.18528886185959 49.947747925296426,91.9111733775353 52.60018026432954,95.33761113631772 52.85279286815785,96.15995432407362 52.663333415519446,96.84523975942284 51.77918930235319,97.32493926456664 51.52657669852488,97.80463852267712 51.589729849714786,98.62697953346651 52.09495505690575,100.61430064769229 52.663333415519446,102.05339260253822 53.29486492485739,104.24629035609541 54.4316216413863,106.23359948891448 54.62108109425753,106.98740529286442 55.31576575455256,108.22090438427404 55.7578378112521,108.76912567886757 55.82099096174352,109.11176382406848 56.26306301867589,109.52292943227803 56.57882877299562,110.20820504275616 57.020900829927996,111.51022731454577 57.46297288639471,112.40108361048624 57.39981973543763,114.18279364804039 58.22081069741398,115.75891891930951 58.47342330124229,116.51271702011582 58.915495357476175,117.33504152559908 59.67333316896111,118.29441919847159 60.05225207447074,118.5 58.59972960315645,116.44418994517764 58.28396384860389,115.34775606211042 57.65243233903311,113.97721189440927 57.39981973543763,113.08635710488306 56.57882877299562,111.92139186465647 55.88414411293343,109.93409485905431" stroke="#4dd2ff" stroke-linecap="round" stroke-linejoin="round" stroke-width="0.5"><title>2023-10-20 1.4km</title><desc>10069668027</desc></polyline><polyline fill="none" points="79.56703137257136,91.5 79.69562234613113,92.54652593983337 80.72435013344511,95.05818348564208 80.98153208033182,96.5930820464855 83.10328314173967,101.75590443867259 83.29616960207932,102.45358098583529 83.42476057563908,103.50009484484326 83.68194252229296,104.1977701097494 85.22503420338035,106.36056017078226 86.06087553082034,108.03497489710571 86.57523942436092,109.7093866688665 87.02530783158727,110.61635847843718 87.28248977847397,112.01169803109951 87.60396721214056,112.70936703804182 88.43980853934772,114.87213770003291 88.56839951267466,115.70933792338474 89.79001376056112,118.22093416174175 90.11149119399488,118.5 90.3043776541017,118.5 90.43296862742864,118.43023354804609 90.36867314088158,118.36046709102811 89.0827634066809,116.7558371637715 88.5041040261276,114.8023709814297 87.28248977847397,112.56983327766648 87.08960331836715,111.66286333516473 86.96101234480739,110.1279891502927" stroke="#4dd2ff" stroke-linecap="round" stroke-linejoin="round" stroke-width="0.5"><title>2023-10-19 1.3km</title><desc>10064004415</desc></polyline><polyline fill="none" points="108.91170686017722,91.5 111.55879083368927,94.94682409497909 111.38231856934726,97.43619421566837 111.7352630989626,99.92556195752695 112.97056895401329,104.32982213282958 114.73529160209,107.20216171373613 116.50001425109804,112.18087615049444 120.02945955004543,117.92553482879885 120.5588763449341,118.5 121.08829313889146,118.30851162341423 118.79415369499475,116.01065000984818 114.55881933774799,107.77662924979813 113.49998574797064,104.13833271479234 110.49995724391192,97.81917402287945" stroke="#4dd2ff" stroke-linecap="round" stroke-linejoin="round" stroke-width="0.5"><title>2023-10-18 1.0km</title><desc>10058081424</desc></polyline><polyline fill="none" points="140.2873885538429,93.13637109496631 141.7954242164269,101.93184924288653 145.75401783175766,112.36365937138908 148.39308024197817,117.88636654615402 149.52410698961467,118.5 150.08962036296725,118.5 150.46662927884609,117.6818220319692 149.14709807466716,116.0454653725028 147.45055795367807,113.38638374954462 145.18850445840508,108.47730330657214 144.24598216917366,105.61366904852912 140.2873885538429,97.63638664479367 139.91037963796407,96.40911039849743 139.53337072208524,91.5" stroke="#4dd2ff" stroke-linecap="round" stroke-linejoin="round" stroke-width="0.5"><title>2023-10-17 1.0km</title><desc>10051702317</desc></polyline><polyline fill="none" points="168.9707556432113,92.12307983194478 170.88480147067457,95.44616994820535 173.75587021093816,102.9231084161438 175.28710687346756,105.83080136496574 177.00974811799824,111.2307946155779 179.1151985283941,116.63077754480764 179.88081685919315,118.08461733930744 180.83783977292478,118.5 181.02924435585737,118.29230867745355 180.83783977292478,117.6692346171476 178.73238936252892,114.55386225529946 175.86132062226534,107.4923388492316 173.75587021093816,103.13080086861737 172.0332289673388,95.03078389703296 171.07620605360717,91.5" stroke="#4dd2ff" stroke-linecap="round" stroke-linejoin="round" stroke-width="0.5"><title>2023-10-16 1.0km</title><desc>10046279660</desc></polyline><polyline fill="none" points="19.470534276217222,121.5 20.260457951575518,123.21429314976558 21.05038162600249,127.07144905114546 22.827709894627333,133.07145919674076 25.197480918839574,136.7143164735753 27.962213780730963,147.00000656116754 28.94961837399751,148.07143052481115 30.331984804943204,148.5 30.5294657247141,148.07143052481115 30.331984804943204,146.78572172136046 27.76473286189139,143.14287703181617 26.382366430945694,138.85717156808823 24.80251908209175,136.28574526542798 21.05038162600249,127.50002161413431 19.668015195056796,121.5" stroke="#4dd2ff" stroke-linecap="round" stroke-linejoin="round" stroke-width="0.5"><title>2023-10-15 1.0km</title><desc>10039610121</desc></polyline><polyline fill="none" points="49.3813481060788,123.45968570327386 49.98334652278572,129.77421970525756 51.58867563586682,134.34680488915183 53.59533702675253,137.17744932160713 54.79933386109769,141.096798685845 58.21065822523087,147.19355405378155 59.0133227808401,148.0645180819556 60.01665347721428,148.5 60.6186518939212,148.0645180819556 60.6186518939212,147.41129508474842 56.605329112149775,144.1451779382769 53.996669304557145,139.354866275331 52.99333860911429,135.21777269500308 50.585344940423965,129.77421970525756 49.3813481060788,125.20162746263668 49.58201424591243,122.37097158376127 49.3813481060788,121.5" stroke="#4dd2ff" stroke-linecap="round" stroke-linejoin="round" stroke-width="0.5"><title>2023-10-14 1.0km</title><desc>10033377496</desc></polyline><polyline fill="none" points="78.87809242028743,121.92857338255271 82.43274843506515,126.21430373727344 82.82771021407098,129.4285973678343 86.18488533888012,139.7143131652847 89.3445795737207,147.2142913856078 90.33198402170092,148.5 91.12190758064389,148.5 91.12190758064389,147.8571457641665 90.92442669067532,147.2142913856078 89.1470986828208,145.92858220404014 87.17228978779167,142.28573644324206 85.00000000093132,135.42860266123898 81.05038220714778,126.64287642599083 80.45793953817338,123.64286628039554 79.47053508926183,121.5" stroke="#4dd2ff" stroke-linecap="round" stroke-linejoin="round" stroke-width="0.5"><title>2023-10-13 1.0km</title><desc>10028006924</desc></polyline><polyline fill="none" points="109.20672580506653,121.5 111.10615996737033,123.97329326206818 112.24582046456635,126.03436931292526 112.43576388154179,128.71376591431908 112.24582046456635,131.59926708275452 114.33519804291427,135.92751326714642 116.80446245428175,142.5229231736157 119.2737268647179,147.0572584841866 119.84355711378157,147.88168229884468 120.79327419400215,148.5 120.79327419400215,147.46947042178363 118.70389661658555,144.79009174578823 116.80446245428175,141.49239139887504 114.33519804291427,134.69087218213826 112.81565071363002,132.0114812932443 112.05587704852223,129.7443023873493" stroke="#4dd2ff" stroke-linecap="round" stroke-linejoin="round" stroke-width="0.5"><title>2023-10-12 1.0km</title><desc>10021974100</desc></polyline><polyline fill="none" points="141.84325277712196,125.328374392353 142.5860168300569,129.35823639691807 142.400325817056,130.97017953987233 144.07154493406415,136.4104806468822 145.3713820260018,138.82838878338225 146.67121911793947,143.2612148274202 148.52812924887985,147.69403370190412 148.89951127488166,148.09701688028872 149.8279663408175,148.5 149.6422753278166,147.69403370190412 147.59967418387532,142.4552469891496 145.3713820260018,138.6268965199124 142.400325817056,131.7761507553514 141.65756176412106,129.15674343751743 141.28617973811924,125.328374392353 140.1720336591825,121.5" stroke="#4dd2ff" stroke-linecap="round" stroke-linejoin="round" stroke-width="0.5"><title>2023-10-10 1.0km</title><desc>10009069592</desc></polyline><polyline fill="none" points="170.42599410098046,124.87501476355828 171.70671575237066,128.44855520920828 172.98743740469217,133.2132684479002 175.73184094484895,139.16914817341603 177.92736377660185,146.71324363560416 179.20808542892337,148.5 179.57400590088218,147.90441467636265 179.75696613732725,145.72060069977306 178.47624448500574,141.94855421641842 175.73184094484895,137.18385639088228 172.62151693273336,128.44855520920828 171.70671575237066,124.47795442165807 170.24303386360407,121.5" stroke="#4dd2ff" stroke-linecap="round" stroke-linejoin="round" stroke-width="0.5"><title>2023-10-09 1.0km</title><desc>10003389142</desc></polyline><polyline fill="none" points="19.502682130783796,151.5 20.852900555357337,153.17442605248652 22.203118979930878,156.31397224590182 22.974672365002334,162.59305424662307 25.867997559718788,168.87212239811197 28.37554606050253,175.98838289501145 29.532876138575375,178.08139730314724 30.497317869216204,178.5 30.497317869216204,176.82558884308673 26.832439290359616,170.9651420377195 22.010230633430183,159.24421223602258 20.08134717028588,151.70930331083946" stroke="#4dd2ff" stroke-linecap="round" stroke-linejoin="round" stroke-width="0.5"><title>2023-10-08 1.0km</title><desc>9996447828</desc></polyline><polyline fill="none" points="51.53421115130186,156.90002223243937 52.42287495918572,160.17860173550434 55.08886638097465,167.31431943108328 55.97753018885851,170.40002917940728 58.82125437259674,177.5357190708164 59.7099181804806,178.5 59.88765094149858,177.7285752852913 59.88765094149858,176.95715034380555 56.51072847377509,170.97859935299493 54.91113361995667,167.507176396437 52.06740943621844,159.02145649609156 51.17874562833458,154.58572835079394 50.11234905850142,151.5" stroke="#4dd2ff" stroke-linecap="round" stroke-linejoin="round" stroke-width="0.5"><title>2023-10-07 1.0km</title><desc>9989974159</desc></polyline><polyline fill="none" points="82.79409733694047,159.5425824597478 84.20587504096329,164.138332715258 85.26470831874758,166.43620480247773 87.38237487524748,175.43618429102935 87.91179151460528,177.15958107053302 88.9706247933209,178.5 89.85298585798591,178.5 90.20593028329313,177.73404641030356 90.02945807110518,177.15958107053302 87.91179151460528,174.0957637843676 85.79412495810539,169.50003109802492 85.08823610655963,166.43620480247773 81.38231963291764,157.43619421636686 80.85290299355984,154.18086357903667 79.79406971577555,151.5" stroke="#4dd2ff" stroke-linecap="round" stroke-linejoin="round" stroke-width="0.5"><title>2023-10-06 1.0km</title><desc>9984428862</desc></polyline><polyline fill="none" points="109.1872590482235,151.5 112.24659639131278,159.68855017540045 114.28615462034941,166.54921020008624 117.75340360961854,175.18034092569724 119.18109436891973,178.05737900245003 119.79296183772385,178.5 120.60878513008356,178.5 120.8127409517765,178.05737900245003 120.20087348297238,176.95082622091286 117.75340360961854,173.40985458972864 116.32571284938604,170.53281207149848 113.87824297416955,164.1147842395585 112.8584638601169,160.79510930157267 110.00308233965188,155.48362178634852 110.00308233965188,153.49181155208498" stroke="#4dd2ff" stroke-linecap="round" stroke-linejoin="round" stroke-width="0.5"><title>2023-10-04 1.0km</title><desc>9971682885</desc></polyline><polyline fill="none" points="140.91344425641,154.65329869673587 141.8215677542612,157.80659368471242 142.7296912530437,159.9744818371255 143.45619005244225,163.324850987643 146.90705934725702,170.22265664255247 147.08868404757231,172.58761449554004 148.1784322457388,177.317523942329 148.54168164543808,177.90876203635707 149.63142984360456,178.5 149.63142984360456,176.52920628082938 147.2703087478876,172.19345499831252 145.63568644970655,168.4489368838258 144.72756295092404,166.67521595116705 143.8194394512102,164.1131725325249 142.0031924545765,160.36864313133992 141.27669365517795,157.41243201401085 140.91344425641,154.45621763705276 140.36857015639544,151.5" stroke="#4dd2ff" stroke-linecap="round" stroke-linejoin="round" stroke-width="0.5"><title>2023-10-03 1.0km</title><desc>9965060084</desc></polyline><polyline fill="none" points="170.0646078363061,152.61570723657496 172.53230391815305,160.64878723444417 172.94358659908175,164.2190381870605 174.38307597953826,166.0041620878037 175.4112826809287,168.68184597115032 177.2620547413826,175.5991850697901 178.70154412277043,177.83058141567744 179.72975082322955,178.5 179.9353921636939,178.27686048811302 179.31846814323217,176.49174380488694 177.05641340184957,172.25208747433499 173.35486927814782,163.32647584215738 171.09281453676522,156.63224989292212 170.68153185676783,151.5" stroke="#4dd2ff" stroke-linecap="round" stroke-linejoin="round" stroke-width="0.5"><title>2023-10-02 1.0km</title><desc>9958643020</desc></polyline><polyline fill="none" points="20.720193058252335,186.25201799208298 21.11831463407725,188.1960231375415 25.497651970013976,198.56402885355055 27.687320638448,205.2600131004583 28.88168536685407,207.63600384257734 30.076050093397498,208.5 30.27511088270694,208.28400098439306 30.076050093397498,207.42000476364046 26.09483433328569,201.37202410562895 22.312679362483323,192.08402956835926 20.521132269874215,186.4680186274927 19.724889118224382,181.5" stroke="#4dd2ff" stroke-linecap="round" stroke-linejoin="round" stroke-width="0.5"><title>2023-10-01 1.0km</title><desc>9952075403</desc></polyline><polyline fill="none" points="51.12336484435946,185.41306045162492 52.74614235199988,188.7391573113855 53.46737679839134,192.0652500144206 54.00830263458192,195.19568640808575 56.71293181274086,202.82610969012603 59.05694376770407,207.71739515918307 60.13879543822259,208.5 60.49941266234964,207.9130463907495 56.89324042480439,202.43480646470562 55.27046291809529,198.71742294891737 54.72953708283603,196.76090322365053 52.2052165158093,191.282640340738 50.762747621163726,185.2174075653311 49.50058733765036,181.5" stroke="#4dd2ff" stroke-linecap="round" stroke-linejoin="round" stroke-width="0.5"><title>2023-09-30 1.0km</title><desc>9945549317</desc></polyline><polyline fill="none" points="80.81972591113299,181.5 82.61127194948494,184.52401233883575 83.20845396257937,186.90001985034905 84.80093932896852,190.788027996663 85.59718201402575,196.62003056914546 86.19436402618885,198.34802910801955 88.58309207763523,204.18001667386852 89.18027408979833,207.8520029061474 89.57839543186128,208.2840009846259 90.1755774449557,208.5 90.37463811598718,208.06800195295364 86.79154603928328,201.58802362973802 84.4028179878369,195.97203085501678 83.60657530464232,192.73203014023602 80.81972591113299,186.25201799278148 79.62536188494414,182.36400384292938" stroke="#4dd2ff" stroke-linecap="round" stroke-linejoin="round" stroke-width="0.5"><title>2023-09-28 1.0km</title><desc>9933629332</desc></polyline><polyline fill="none" points="109.72187129873782,184.56819501379505 111.22990807145834,189.88639168953523 114.05747701786458,193.77275975467637 115.94252298213542,200.72729958500713 118.58158733230084,205.43183137779124 119.33560571912676,208.09091104590334 120.08962410409003,208.5 120.46663329843432,207.8863665459212 120.08962410409003,207.06818839721382 118.58158733230084,205.02274197200313 114.2459816141054,196.2273052087985 111.98392645642161,190.09093751222827 109.533366702497,181.5" stroke="#4dd2ff" stroke-linecap="round" stroke-linejoin="round" stroke-width="0.5"><title>2023-09-27 1.0km</title><desc>9927137811</desc></polyline><polyline fill="none" points="147.24298205017112,181.5 146.70466635818593,184.09618973411852 146.16635066620074,185.5889953733422 145.74766068346798,187.40632057009498 143.29533364181407,192.5337536331499 142.03926369408146,194.67558394157095 141.80001227511093,195.5842376536457 141.91963798436336,196.29817920009373 142.2187022578437,197.33663860021625 143.115895077819,199.54336076957406 143.41495935129933,200.12749218509998 143.77383647928946,201.16594708053162 144.97009357251227,202.65872385265538 145.5084092647303,203.8269821741269 146.10653781169094,204.7356264666305 146.5850406489335,206.03368811903056 147.30279490514658,207.0072331057745 148.1999877251219,208.5" stroke="#4dd2ff" stroke-linecap="round" stroke-linejoin="round" stroke-width="0.5"><title>2023-09-26 1.0km</title><desc>9920397094</desc></polyline><polyline fill="none" points="174.87390754465014,181.5 173.6970446286723,185.4223337789299 172.52018171316013,187.52032117464114 171.4273804333061,188.8885719126556 170.83894897578284,189.98317141644657 170.58676406508312,191.07776995445602 170.67082570167258,192.44601676869206 171.09113388648257,193.5406131336931 172.09987352835014,195.09128966438584 172.52018171316013,196.64196425664704 173.3607980813831,198.64871673414018 174.95796918170527,200.65546596597414 177.64794156095013,206.12840191822033 179.41323593491688,208.5" stroke="#4dd2ff" stroke-linecap="round" stroke-linejoin="round" stroke-width="0.5"><title>2023-09-25 1.0km</title><desc>9914573673</desc></polyline><polyline fill="none" points="26.99057334009558,211.5 26.327048893785104,212.50801337813027 26.19434400415048,213.012019678019 26.327048893785104,213.6600273968652 26.39340133825317,214.30803468660451 25.066352444700897,216.75605835590977 24.734590221196413,218.412070897175 24.270123108755797,219.63607836677693 21.483320432249457,224.53209294530097 21.41696798754856,225.1080930508324 21.682377765886486,226.26009224599693 22.41225465759635,227.4120900858543 22.81036932580173,228.42008708399953 23.40754132764414,229.4280830444768 23.739303551148623,230.43607796734432 24.60188533202745,231.80406941764522 25.265409778570756,233.1720589569304 25.99528667051345,233.964052027266 26.19434400415048,234.6840451717144 26.658811117056757,235.2600393060129 27.654097787337378,236.98801967676263 28.38397467858158,237.78000966098625 28.58303201268427,238.5" stroke="#4dd2ff" stroke-linecap="round" stroke-linejoin="round" stroke-width="0.5"><title>2023-09-24 1.0km</title><desc>9907510217</desc></polyline><polyline fill="none" points="56.00656214216724,211.5 55.44288734253496,212.37379601283465 55.04026248585433,213.2475913829403 54.798687572125345,214.38352440390736 54.71816260041669,215.86897363874596 53.349238086957484,217.70393777731806 52.54398837359622,219.80103618034627 51.81926363147795,220.84958399401512 51.336113803088665,222.2476463066414 51.25558883138001,223.73308571160305 52.94661323027685,228.0146359608043 53.59081300115213,229.32531152490992 55.6844622567296,232.64568315108772 56.57023694179952,234.83013310923707 57.697586541064084,236.22817897505593 58.34178631193936,237.36409003043082 58.74441116908565,238.5" stroke="#4dd2ff" stroke-linecap="round" stroke-linejoin="round" stroke-width="0.5"><title>2023-09-23 1.0km</title><desc>9901004991</desc></polyline><polyline fill="none" points="86.03675957862288,211.5 85.49918053811416,212.50001147040166 84.96160149760544,214.2500294201309 83.73284940514714,216.8333843119908 82.50409731268883,218.58339557045838 81.4289392316714,221.50007499643834 81.3521422254853,223.08341211284278 81.50573623785749,224.0000799590489 83.04167635319754,227.66674392909044 83.27206737035885,228.75007419561734 83.5792553932406,229.3334054487059 84.65441347425804,230.66673290001927 85.49918053811416,232.3333900080761 86.19035359006375,234.08337733428925 87.34230867680162,235.75002941855928 88.64785777498037,238.5" stroke="#4dd2ff" stroke-linecap="round" stroke-linejoin="round" stroke-width="0.5"><title>2023-09-22 1.0km</title><desc>9895405405</desc></polyline><polyline fill="none" points="116.43127718381584,211.5 116.21108069410548,212.29646981041878 115.77068771468475,212.77435141563183 114.8165029254742,214.5265821639914 114.44950877595693,215.80093001882778 113.34852632693946,218.58856072451454 112.17414504801854,220.97795276233228 111.44015674851835,222.73017024050932 111.21996025880799,223.60627791646402 111.21996025880799,224.1638006141875 111.44015674851835,224.96026111306855 111.88054972840473,225.75672102649696 112.83473451761529,228.22574303630972 113.78891930636019,229.97794879041612 114.30271111568436,231.2522784678731 115.25689590489492,232.8451884566457 115.84408654412255,233.5619971874985 116.28447952400893,234.83632264879998 117.45886080292985,236.90709832619177 118.78003974119201,238.5" stroke="#4dd2ff" stroke-linecap="round" stroke-linejoin="round" stroke-width="0.5"><title>2023-09-21 1.0km</title><desc>9889267953</desc></polyline><polyline fill="none" points="147.74893571832217,211.5 146.7853912396822,214.3907022520434 146.2186003702227,216.6663544435287 145.3117349781096,218.57297718862537 144.23483232571743,221.77117332391208 142.3644224551972,225.2768742701155 141.85431067249738,227.18347738828743 141.91098975925706,227.61400007159682 142.25106428121217,228.5365479324828 142.9878924121149,230.13562848127913 143.44132510805503,231.4886942502926 144.57490684767254,233.08776915556518 145.25505589158274,234.37932742462726 145.6518095000647,235.30186782439705 146.105242195772,236.10140201455215 146.84207032690756,236.65492523700232 147.74893571832217,238.00798046117416 147.80561480554752,238.25399026670493 148.14568932750262,238.5" stroke="#4dd2ff" stroke-linecap="round" stroke-linejoin="round" stroke-width="0.5"><title>2023-09-20 1.0km</title><desc>9882714971</desc></polyline><polyline fill="none" points="177.23875454021618,211.5 176.66307480144314,212.95760326780146 175.57567973900586,216.15044065576512 175.51171532343142,217.19158094731392 175.12792883068323,217.74685529997805 174.68017792282626,218.7879938307451 174.4243202607613,219.75972209015163 173.9126049373299,221.0784945563646 172.44142338237725,223.4383985819295 172.05763688962907,224.82657466462115 171.92970805894583,226.07593139371602 172.05763688962907,227.32528646918945 172.44142338237725,228.71345683612162 172.8891742900014,229.68517487851204 174.29639142984524,232.11446560826153 175.0,233.08618014963577 175.63964415411465,234.8213822004036 176.27928830869496,235.9319098389824 176.9189324628096,236.83421258348972 177.62254103273153,237.52829103090335 178.07029194105417,238.5" stroke="#4dd2ff" stroke-linecap="round" stroke-linejoin="round" stroke-width="0.5"><title>2023-09-19 1.0km</title><desc>9876194288</desc></polyline><polyline fill="none" points="24.801259933039546,241.5 24.32428377168253,242.27636650414206 23.529323503840715,243.82909797120374 23.290835422929376,244.8642511406215 21.859906939789653,247.3658675296465 20.746962564066052,249.69495385535993 20.508474483620375,250.5575772470329 20.58797051059082,251.50646224501543 21.064946671947837,252.7141329512233 21.780410913284868,254.0080644710688 22.416379128117114,255.81956620130222 23.290835422929376,257.7173269188497 24.244787745177746,259.44256127101835 25.11924404045567,260.56396223965567 26.152692389208823,262.289192405995 26.78866060357541,264.2732039610855 27.90160497976467,265.998428673367 28.45807716762647,267.5511287454283 29.491525516379625,268.5" stroke="#4dd2ff" stroke-linecap="round" stroke-linejoin="round" stroke-width="0.5"><title>2023-09-18 1.0km</title><desc>9870505463</desc></polyline><polyline fill="none" points="55.27130160154775,241.5 54.883727884851396,242.2570180289331 54.34112468129024,244.78040784032783 53.64349199132994,245.95798784750514 53.33343301760033,246.88322843116475 51.628108663950115,249.6589456924121 51.007990716956556,251.1729704508325 50.620417000260204,252.51876855356386 50.93047597352415,253.4440038310131 52.635800327174366,257.14493745734217 53.48846250446513,258.4907285349327 54.10858045099303,259.9206298200297 55.11627211468294,261.2664176323451 55.65887531870976,262.1916458348278 56.35650800867006,264.37854588468326 59.379582999274135,268.5" stroke="#4dd2ff" stroke-linecap="round" stroke-linejoin="round" stroke-width="0.5"><title>2023-09-16 1.0km</title><desc>9856514700</desc></polyline><polyline fill="none" points="84.6267660856247,241.5 83.79735738644376,244.02002519892994 82.71912607783452,245.73003934358712 80.4797225901857,250.05006443581078 80.39678171975538,251.0400680389721 80.4797225901857,252.21007126464974 80.977367809508,253.3800733720418 81.80677650868893,254.64007439091802 82.5532443379052,256.3500736991409 83.88029825640842,258.6000691493973 85.53911565523595,261.75005583208986 85.7049973946996,262.9200488211354 86.28558348398656,263.3700458268868 86.94911044370383,264.27003934187815 88.02734175231308,266.07002438721247 89.18851393088698,267.06001503393054 89.43733654078096,267.69000866496935 89.60321828071028,268.5" stroke="#4dd2ff" stroke-linecap="round" stroke-linejoin="round" stroke-width="0.5"><title>2023-09-15 1.0km</title><desc>9850671982</desc></polyline><polyline fill="none" points="115.68640634138137,241.5 114.31359365861863,245.13106798846275 112.76917939027771,247.3655661904486 112.082773049362,248.57591773686 111.05316353728995,251.18282483052462 110.79576115915552,252.11386177758686 110.79576115915552,252.85869084193837 111.05316353728995,253.78972655686084 112.082773049362,256.58282959414646 113.02658176841214,258.4448948628269 115.34320317115635,262.44832591875456 116.28701189020649,264.21727979544085 116.458613475319,265.2414098577574 117.14501981670037,265.89312855689786 118.26043012179434,267.662077621324 119.20423884084448,268.5" stroke="#4dd2ff" stroke-linecap="round" stroke-linejoin="round" stroke-width="0.5"><title>2023-09-14 1.0km</title><desc>9844236351</desc></polyline><polyline fill="none" points="140.70887012802996,241.5 141.20281313476153,241.90199097857112 141.38804176240228,242.3039817797835 141.51152751408517,243.1749612404965 141.88198476913385,243.91194321104558 142.12895627273247,245.98888919339515 142.12895627273247,246.99386135616805 142.00547052081674,247.52984605642268 142.12895627273247,248.1998264885624 142.43767065182328,249.00380235683406 142.31418490037322,249.67378170514712 142.37592777609825,250.00877119449433 142.99335653474554,251.14773453748785 143.54904241743498,252.8226780439727 144.04298542416655,253.76064506283728 144.66041418281384,254.63161357294302 145.33958581718616,255.23459128447575 145.52481444459409,255.6365762039204 145.71004307223484,256.5075429211138 146.20398607919924,257.378508805763 146.75967196188867,258.9864436365897 147.50058647198603,260.3933842863189 147.8710437270347,261.59933168569114 148.05627235467546,262.604286632617 148.42672960995696,263.40824979246827 149.1059012443293,265.6191448243917 150.03204438230023,267.36105834465707 150.0937872582581,267.62904474453535 150.03204438230023,267.8300344927702 149.29112987197004,268.5 149.66158712701872,268.2320138561772 149.84681575465947,267.8300344927702 149.97030150610954,267.4950515545206 149.90855863061734,267.0260752339964 149.53810137556866,266.55709867202677 148.42672960995696,264.14521539898124 147.8710437270347,262.33629875513725 146.6979290859308,259.7234128191485 146.14224320324138,257.17751675244654 145.83352882415056,256.44054551096633 144.66041418281384,254.8996037162142 143.4872995414771,252.6886826767004 142.93161365855485,250.87974329077406 142.7463850316126,249.67378170514712 142.25244202418253,248.40082052216167 141.2645560107194,246.25688187853666 141.01758450712077,245.25190890283557 140.1531842451077,243.6439498362015 139.96795561769977,242.7729708236875 139.9062127417419,241.70099551149178" stroke="#4dd2ff" stroke-linecap="round" stroke-linejoin="round" stroke-width="0.5"><title>2023-09-13 1.0km</title><desc>9837636972</desc></polyline></svg>