<?xml version="1.0" encoding="utf-8" ?>
<svg baseProfile="full" height="300mm" version="1.1" viewBox="0,0,200,300" width="200mm" xmlns="http://www.w3.org/2000/svg" xmlns:ev="http://www.w3.org/2001/xml-events" xmlns:xlink="http://www.w3.org/1999/xlink"><defs /><rect fill="#222222" height="300" width="200" x="0" y="0" /><text fill="#FFFFFF" style="font-size:12px; font-family:Arial; font-weight:bold;" x="10" y="20">Over 1km Runs</text><text fill="#FFFFFF" style="font-size:4px; font-family:Arial" x="10" y="280">ATHLETE</text><text fill="#FFFFFF" style="font-size:9px; font-family:Arial" x="10" y="290">Jiakai</text><text fill="#FFFFFF" style="font-size:4px; font-family:Arial" x="120" y="280">STATISTICS</text><text fill="#FFFFFF" style="font-size:3px; font-family:Arial" x="120" y="285">Number: 81</text><text fill="#FFFFFF" style="font-size:3px; font-family:Arial" x="120" y="290">Weekly: 5.8</text><text fill="#FFFFFF" style="font-size:3px; font-family:Arial" x="141" y="285">Total: 83.6 km</text><text fill="#FFFFFF" style="font-size:3px; font-family:Arial" x="141" y="290">Avg: 1.0 km</text><text fill="#FFFFFF" style="font-size:3px; font-family:Arial" x="167" y="285">Min: 1.0 km</text><text fill="#FFFFFF" style="font-size:3px; font-family:Arial" x="167" y="290">Max: 1.5 km</text><polyline fill="none" points="17.085902185644954,31.09090909094084 18.48773805098608,34.1331760318717 20.399332412984222,38.97313602420036 21.801168277859688,41.60053766157944 23.840202264022082,47.96160011109896 24.09508151235059,49.62100416899193 24.604840009007603,50.727272727293894 24.732279632706195,49.759287774097174 24.47740038484335,48.65301864652429 21.801168277859688,42.568526813411154 19.889573915861547,38.83485162584111 19.379815420135856,37.31372257263865 18.997496547643095,34.1331760318717 17.97797955479473,31.229194058920257" stroke="#4dd2ff" stroke-linecap="round" stroke-linejoin="round" stroke-width="0.5"><title>2023-12-11 1.0km</title><desc>10361067591</desc></polyline><polyline fill="none" points="43.89989402750507,42.047455398133025 46.52256416762248,50.01581375533715 46.653697674162686,50.442689169663936 47.17823170265183,50.727272727293894 47.30936520919204,50.58498095383402 46.91596468864009,49.588938245899044 45.735763125587255,47.312267275177874 44.42442805552855,43.75496352184564 40.75268985982984,36.35575077205431 39.70362180378288,31.09090909094084" stroke="#4dd2ff" stroke-linecap="round" stroke-linejoin="round" stroke-width="0.5"><title>2023-12-10 1.0km</title><desc>10355395415</desc></polyline><polyline fill="none" points="62.644285132177174,32.39038039778825 64.90633846027777,36.00001840631012 65.97083414392546,40.47596032265574 68.23288747202605,46.82889262505341 69.03125923499465,50.29411976446863 69.56350707728416,50.727272727293894 69.6965690376237,50.58288841682952 69.6965690376237,50.29411976446863 69.43044511647895,49.139044730807655 66.63614394655451,43.50804421224166 65.97083414392546,41.91981037775986 65.57164826244116,39.46526465250645 64.90633846027777,37.58825702825561 63.841842776630074,35.71124760969542 63.708780815824866,33.689850845141336 62.511223170906305,31.09090909094084" stroke="#4dd2ff" stroke-linecap="round" stroke-linejoin="round" stroke-width="0.5"><title>2023-12-09 1.0km</title><desc>10350143310</desc></polyline><polyline fill="none" points="86.60805547656491,34.90096492273733 87.41834317659959,37.831772144301794 89.17396652605385,42.08143496210687 91.60482962522656,49.115339716663584 92.68521322496235,50.727272727293894 92.5501652751118,49.261879135505296 91.73987757554278,46.77070755674504 89.57911037607118,42.960674413945526 88.22863087616861,39.73679452808574 86.74310342688113,37.392151336185634 86.3379595768638,35.047505385940894 84.7173841772601,31.09090909094084" stroke="#4dd2ff" stroke-linecap="round" stroke-linejoin="round" stroke-width="0.5"><title>2023-12-08 1.0km</title><desc>10345303898</desc></polyline><polyline fill="none" points="108.13499069912359,31.09090909094084 108.3880875473842,31.777498715091497 108.89428124343976,33.5626305565238 109.14737809170038,36.034348750836216 109.65357178682461,38.09411141392775 111.42524972278625,42.488264170940965 112.56418553832918,46.47045617783442 113.70312135433778,48.94215729087591 113.9562182025984,50.727272727293894 114.209315050859,50.589956215932034 114.46241189865395,50.31532316247467 114.46241189865395,49.90337350696791 113.82966977870092,48.25557397666853 111.80489499494433,44.82265361829195 109.40047493902966,37.81947652378585 108.76773281954229,34.93580773472786" stroke="#4dd2ff" stroke-linecap="round" stroke-linejoin="round" stroke-width="0.5"><title>2023-12-07 1.0km</title><desc>10340288256</desc></polyline><polyline fill="none" points="130.25078041339293,31.090909090824425 131.0319211599417,32.92741203762125 132.46401252783835,39.00198620336596 134.54705451847985,42.81624388799537 136.2395261353813,47.47810410952661 137.02066688193008,50.444736543809995 137.41123725520447,50.727272727293894 137.54142737900838,49.73839590372518 137.28104713046923,48.466982096550055 135.19800513982773,44.08766143361572 133.76591377193108,41.96863172343001 132.9847730253823,40.41467511735391 130.38097053812817,31.51471761893481" stroke="#4dd2ff" stroke-linecap="round" stroke-linejoin="round" stroke-width="0.5"><title>2023-12-06 1.0km</title><desc>10334845031</desc></polyline><polyline fill="none" points="154.68386403098702,34.47650396253448 155.55748453037813,38.94547966471873 156.43110502976924,42.19563700177241 158.55275481380522,47.74797585303895 159.67598117003217,50.32100525544956 160.05038995528594,50.727272727293894 159.5511782420799,48.28966655221302 158.30314895650372,45.98747998056933 157.17992260074243,42.737329334020615 155.55748453037813,39.35174964554608 154.80866695940495,36.77870492055081 153.56063767476007,34.070232906611636 152.93662303173915,31.09090909094084" stroke="#4dd2ff" stroke-linecap="round" stroke-linejoin="round" stroke-width="0.5"><title>2023-12-05 1.0km</title><desc>10329306344</desc></polyline><polyline fill="none" points="175.48427900718525,32.7387237646617 176.37011797493324,34.111901548923925 177.50905379094183,38.09411141392775 179.78692542249337,43.724117771489546 180.92586123850197,47.56899040937424 181.93824863014743,49.76605693530291 182.6975391744636,50.727272727293894 182.6975391744636,50.04069006885402 179.40728015080094,42.488264170940965 178.14179591136053,38.231428844388574 176.74976324709132,35.07312539732084 175.7373758549802,31.09090909094084" stroke="#4dd2ff" stroke-linecap="round" stroke-linejoin="round" stroke-width="0.5"><title>2023-12-04 1.0km</title><desc>10324662812</desc></polyline><polyline fill="none" points="17.498610004782677,54.721686183824204 18.890643027611077,60.00841326825321 21.117895862087607,64.99302920256741 22.64913218654692,70.2797298579244 23.76275860425085,72.39440631074831 24.597978417295963,72.54545454541221 24.597978417295963,71.9412615399342 23.623555302154273,70.2797298579244 22.37072558235377,66.65456516004633 20.978692560456693,64.53988279914483 20.004269444849342,61.97205129195936 18.333829818293452,55.930082145147026 17.220203401055187,52.90909090905916" stroke="#4dd2ff" stroke-linecap="round" stroke-linejoin="round" stroke-width="0.5"><title>2023-12-02 1.0km</title><desc>10313350310</desc></polyline><polyline fill="none" points="39.94204583764076,53.95041800767649 41.312987248413265,55.735548930591904 42.958116941619664,61.38845312898047 44.05487007042393,66.0000211733859 45.83709390508011,71.05785791110247 46.933847033418715,72.54545454541221 47.070941174868494,71.65289669588674 46.7967528924346,69.86777981568594 45.288717340212315,66.59506144560874 42.958116941619664,62.87605687219184 41.58717553084716,60.049608825240284 40.216234119609,52.90909090905916" stroke="#4dd2ff" stroke-linecap="round" stroke-linejoin="round" stroke-width="0.5"><title>2023-12-01 1.0km</title><desc>10308709030</desc></polyline><polyline fill="none" points="62.48460971470922,52.90909090905916 65.19907450769097,62.236385236727074 67.91353929881006,67.80001587385777 69.42157529480755,71.89091188192833 69.8739860933274,72.54545454541221 70.02478969376534,72.05454756587278 69.42157529480755,70.41819018532988 67.15952130127698,67.30910784786101 66.55630690325052,65.67274697858375 64.29425290971994,61.254566622083075 63.23862771317363,56.18183021212462 62.18300251569599,53.23636505601462" stroke="#4dd2ff" stroke-linecap="round" stroke-linejoin="round" stroke-width="0.5"><title>2023-11-30 1.0km</title><desc>10303537703</desc></polyline><polyline fill="none" points="86.45484697911888,57.10722762369551 87.32846709387377,59.95112125261221 87.70287571428344,62.25331764097791 89.0757073215209,64.96178029652219 90.57334180315956,69.02446681284346 92.07097628386691,72.27460957446601 92.32058203080669,72.54545454541221 92.57018777728081,72.27460957446601 92.32058203080669,71.32665186130907 91.32215904304758,69.56615767115727 89.94932743581012,65.77431831671856 87.95248146075755,61.71162463212386 87.20366421993822,57.378074825159274 85.70602973876521,55.07587234349921 84.83240962494165,52.909090908942744" stroke="#4dd2ff" stroke-linecap="round" stroke-linejoin="round" stroke-width="0.5"><title>2023-11-29 1.0km</title><desc>10298007687</desc></polyline><polyline fill="none" points="107.91375955799595,55.45194067573175 109.34585029445589,59.12493995379191 109.6062304279767,61.80905037058983 111.42889136541635,66.18838037038222 112.47041190136224,70.14389566204045 113.3817423703149,71.98038213711698 114.29307283880189,72.54545454541221 114.6836430397816,72.54545454541221 114.94402317423373,72.12165025481954 114.81383310677484,71.5565777218435 114.29307283880189,70.56770038895775 112.21003176737577,65.05823164840695 110.1269906964153,60.255092165316455 109.7364204954356,57.99478707765229 108.82509002601728,55.31067133275792 107.65337942354381,52.90909090905916" stroke="#4dd2ff" stroke-linecap="round" stroke-linejoin="round" stroke-width="0.5"><title>2023-11-28 1.0km</title><desc>10292316108</desc></polyline><polyline fill="none" points="133.43504757620394,52.90909090905916 134.58768837573007,56.035915577202104 135.27927285525948,59.03766185173299 136.20138549478725,60.413460457581095 137.2387622143142,62.414620079798624 138.27613893384114,65.66649944579694 139.1982515733689,67.16736474877689 139.1982515733689,67.91779690387193 138.62193117383868,68.41808482341003 136.77770589478314,69.41866022115573 135.625065095257,70.41923503007274 134.4724242957309,71.04459398693871 132.74346309667453,71.79502443177626 129.97712517809123,72.54545454541221 129.5160688580945,72.4203828831669 129.17027661856264,72.04516783996951 128.59395621856675,69.66880397847854" stroke="#4dd2ff" stroke-linecap="round" stroke-linejoin="round" stroke-width="0.5"><title>2023-11-27 1.0km</title><desc>10287544518</desc></polyline><polyline fill="none" points="154.59527999488637,57.165942509658635 155.22802216093987,58.67643590667285 156.7466033603996,66.36620153533295 158.39173299307004,70.34838915034197 159.27757202647626,71.85887188708875 159.91031419252977,72.54545454541221 160.03686262620613,72.40813803393394 159.65721732610837,71.72155532496981 159.65721732610837,70.62302246619947 158.64482985949144,68.28863799571991 157.50589396059513,64.44376309635118 156.3669580607675,62.10937090299558 155.60766746103764,57.71521297714207 153.45634409505874,54.28226990473922 152.9501503612846,52.90909090905916" stroke="#4dd2ff" stroke-linecap="round" stroke-linejoin="round" stroke-width="0.5"><title>2023-11-26 1.0km</title><desc>10281488289</desc></polyline><polyline fill="none" points="175.51540386583656,52.90909090905916 176.9747937526554,56.70969138981309 178.28824465256184,62.09386392554734 179.60169555153698,65.10266036260873 179.893573529087,67.0029506838182 180.62326847296208,68.7448820057325 182.22859734948725,71.75366915285122 182.95829229336232,72.54545454541221 183.25017026998103,72.54545454541221 181.06108543928713,67.79473782272544 180.7692074617371,66.21116325375624 179.30981757398695,64.15251457353588 176.39103779848665,56.234616697067395 174.9316479107365,53.54252478852868" stroke="#4dd2ff" stroke-linecap="round" stroke-linejoin="round" stroke-width="0.5"><title>2023-11-25 1.0km</title><desc>10275889695</desc></polyline><polyline fill="none" points="17.10376461595297,74.91079086018726 18.1185182929039,79.49873978062533 22.854035458527505,92.3449518987909 24.037914750166237,94.18011966184713 24.545291588641703,94.36363636353053 24.71441720239818,93.81308621680364 23.02316107135266,91.61088441568427 20.993653715588152,85.55481944442727 19.640648811124265,82.80205778218806 18.795020746067166,77.4800432943739 17.78026706725359,74.7272727272939" stroke="#4dd2ff" stroke-linecap="round" stroke-linejoin="round" stroke-width="0.5"><title>2023-11-24 1.0km</title><desc>10271180196</desc></polyline><polyline fill="none" points="41.06491285422817,76.90909989213105 41.495780028402805,78.15585726324935 42.50113676674664,83.4545679113362 44.94271741947159,90.9350780423265 46.091696550138295,94.05194947286509 46.52256372338161,94.36363636364695 47.09705328848213,94.36363636364695 47.240675680339336,94.05194947286509 46.953430897556245,92.49351433035918 45.37358459318057,87.97404593857937 41.208535245619714,78.93508024816401 39.77231133263558,74.7272727272939" stroke="#4dd2ff" stroke-linecap="round" stroke-linejoin="round" stroke-width="0.5"><title>2023-11-23 1.0km</title><desc>10265414399</desc></polyline><polyline fill="none" points="64.38346206350252,79.15238665114157 64.5109016224742,81.08837071899325 65.02065985649824,84.13062737148721 67.0596927930601,89.93855822598562 67.69689058559015,92.70423328236211 68.71640705363825,94.36363636364695 69.48104440467432,94.36363636364695 69.35360484663397,93.533935005893 67.95176970213652,89.93855822598562 66.80481367558241,88.14086725900415 65.14809941453859,83.02435279462952 63.23650603648275,77.76953966822475 62.726747802924365,74.7272727272939" stroke="#4dd2ff" stroke-linecap="round" stroke-linejoin="round" stroke-width="0.5"><title>2023-11-21 1.0km</title><desc>10253878272</desc></polyline><polyline fill="none" points="86.58784765005112,80.03054371476173 87.24830110324547,84.33048257348128 90.02220560843125,91.35369564825669 91.21102182520553,93.93364511744585 91.60729389730841,94.36363636364695 91.87147527933121,94.22030595887918 92.00356596987695,93.93364511744585 91.47520320676267,91.64035686873831 89.09757077367976,86.48044844705146 88.17293593892828,83.75715794030111 86.71993834059685,78.16723393043503 85.92739419592544,76.73391750000883 85.39903143327683,74.7272727272939" stroke="#4dd2ff" stroke-linecap="round" stroke-linejoin="round" stroke-width="0.5"><title>2023-11-20 1.0km</title><desc>10248671423</desc></polyline><polyline fill="none" points="107.80279992939904,76.36364364193287 109.72211832785979,80.52894545334857 110.27049501379952,84.84299900464248 111.77853089850396,88.26448321191128 113.28656678274274,92.57852027076297 113.97203763993457,93.61983818281442 114.79460266791284,94.36363636364695 114.65750849666074,93.17355914332438 112.32690758397803,87.07440240448341 110.81887169973925,81.57026956626214 109.31083581456915,78.0000132333953 108.48827078659087,74.72727272717748" stroke="#4dd2ff" stroke-linecap="round" stroke-linejoin="round" stroke-width="0.5"><title>2023-11-19 1.0km</title><desc>10242265034</desc></polyline><polyline fill="none" points="130.07971707358956,92.2231944600353 130.93733208999038,89.52437124738935 131.28037809673697,88.87293029925786 131.880708607845,88.50067817850504 134.79659966332838,88.12842594808899 136.94063720433041,87.66311050613876 137.62672921735793,87.10473174985964 138.055536726024,86.54635274747852 138.57010573567823,84.21977091825102 138.39858273230493,83.47526382945944 138.74162873905152,82.91688322566915 138.48434423375875,78.63595707633067 138.3128212308511,78.07757433725055 138.22705972893164,76.40242464095354 138.055536726024,75.3787209574366 137.11216020816937,75.09952889988199 136.34030669322237,75.65791295305826 136.51182969613,75.3787209574366 136.6833526995033,75.65791295305826 135.56845317827538,75.09952889988199 135.48269167682156,74.7272727272939 135.2254071715288,74.91340082720853 135.39693017536774,74.82033678086009 134.79659966332838,75.56484896142501 134.88236116524786,75.47178496280685 136.6833526995033,76.40242464095354 136.25454519176856,76.77468032063916 135.56845317827538,77.05387200857513 133.93898464739323,77.33306363481097 133.85322314547375,76.96080811927095 134.28203065367416,76.77468032063916 134.88236116524786,76.86774422344752 136.6833526995033,75.09952889988199 139.17043624678627,75.19259292585775 138.91315174242482,75.0064648669213 138.57010573567823,74.91340082720853 138.3128212308511,79.38046701217536 138.39858273230493,80.68335834599566 138.65586723713204,82.2654388762312 138.827390240971,84.96427756897174 138.827390240971,85.89491026639007 138.57010573567823,86.82554227928631 138.055536726024,87.38392115884926 133.76746164401993,87.84923670336138 131.7949471063912,88.22148901596665 130.76580908661708,88.96599331242032 129.56514806346968,90.64112637820654 128.87905605044216,93.06075911433436 128.62177154561505,94.36363636364695" stroke="#4dd2ff" stroke-linecap="round" stroke-linejoin="round" stroke-width="0.5"><title>2023-11-18 1.0km</title><desc>10236386505</desc></polyline><polyline fill="none" points="152.48644207092002,74.7272727272939 155.33016520971432,79.63638258411083 156.36424635071307,83.2831417293055 156.75202677911147,85.38703806500416 157.52758763497695,86.64937475277111 159.98353034537286,93.80260020738933 160.50057091657072,94.36363636364695 160.50057091657072,93.80260020738933 159.98353034537286,93.1013047802262 158.5616687759757,88.89352680242155 157.78610792011023,87.4909320807783 157.52758763497695,85.10651868779678 156.36424635071307,82.16106273443438 155.0716449241154,79.3558623616118 154.94238478178158,77.8130003977567" stroke="#4dd2ff" stroke-linecap="round" stroke-linejoin="round" stroke-width="0.5"><title>2023-11-17 1.0km</title><desc>10231268371</desc></polyline><polyline fill="none" points="175.5883741332218,75.36070660687983 177.48558056820184,78.05279851518571 177.92339743766934,81.69503515365068 179.23684804793447,84.54547692206688 181.27999344002455,92.14663653075695 182.59344404935837,94.36363636364695 182.44750509224832,93.09677959571127 181.42593239620328,91.03813575848471 180.696237613447,88.97948995348997 179.52872596029192,84.07040355575737 177.1937026558444,79.16130597004667 176.4640078721568,76.94429048954044 176.0261910026893,74.7272727272939" stroke="#4dd2ff" stroke-linecap="round" stroke-linejoin="round" stroke-width="0.5"><title>2023-11-16 1.0km</title><desc>10225818993</desc></polyline><polyline fill="none" points="17.503848212771118,96.75659895432182 18.476774697192013,100.55719566298649 20.033457073383033,104.78007499617524 22.173895339481533,108.79180461168289 22.95223652664572,111.95895561296493 24.31433360464871,114.70381698920391 25.67643068358302,116.18181818188168 22.173895339481533,109.63637855346315 20.617212964221835,104.78007499617524 16.14175113476813,96.54545454564504" stroke="#4dd2ff" stroke-linecap="round" stroke-linejoin="round" stroke-width="0.5"><title>2023-11-15 1.0km</title><desc>10219684298</desc></polyline><polyline fill="none" points="40.03687851317227,98.9077340150252 41.805701843462884,101.12236849369947 42.07782850926742,103.92756866081618 44.11877850582823,108.79974911198951 45.34334850311279,112.93371113424655 46.567918500863016,116.03417706664186 47.11217183340341,116.18181818176527 46.97610849980265,114.41012408013921 45.207285170443356,112.04786284593865 44.526968504767865,109.98088198690675 43.43846184015274,108.65210745378863 43.030271840747446,107.0280484976247 40.989321845117956,102.89407431846485 40.309005179442465,99.94123040873092 39.90081518003717,96.54545454541221" stroke="#4dd2ff" stroke-linecap="round" stroke-linejoin="round" stroke-width="0.5"><title>2023-11-14 1.0km</title><desc>10213806154</desc></polyline><polyline fill="none" points="63.48122538579628,99.24902368383482 64.5302936732769,103.23322395212017 67.4152314630337,110.63243126217276 68.07089914241806,113.05139674723614 69.38223450211808,115.75494282960426 69.77563510974869,116.18181818176527 68.98883389402181,114.75889997556806 67.1529643908143,110.34784688882064 67.0218308554031,109.2095089762006 65.71049549616873,106.07907626521774 63.74349245755002,102.52176022005733 62.9566912422888,100.10278157447465 62.432157097849995,96.5454545452958" stroke="#4dd2ff" stroke-linecap="round" stroke-linejoin="round" stroke-width="0.5"><title>2023-11-13 1.0km</title><desc>10208522228</desc></polyline><polyline fill="none" points="86.50779212126508,98.77686910098419 87.87873373366892,102.94216968759429 89.52386366901919,106.36366018361878 90.48352279746905,110.38018512283452 91.44318192638457,113.20662381884176 92.67702937778085,115.88429894228466 93.22540602227673,116.18181818176527 93.49959434568882,115.58677965903189 91.9915585713461,112.6115844217129 91.16899360436946,109.33886460785288 88.15292205614969,106.51242050866131 86.50779212126508,104.13225399446674 86.23360379831865,101.60332400549669 83.9030030569993,96.5454545452958" stroke="#4dd2ff" stroke-linecap="round" stroke-linejoin="round" stroke-width="0.5"><title>2023-11-12 1.0km</title><desc>10202270880</desc></polyline><polyline fill="none" points="108.32764618145302,100.20896990329493 111.56879721861333,107.53598041681107 112.64918089751154,111.19947557384148 113.72956457734108,114.13026685162913 114.40480437641963,115.44912152085453 115.08004417549819,116.18181818176527 115.2150921355933,115.59566087462008 113.99966049659997,111.93217379716225 111.70384517870843,108.41521986864973 109.27298190072179,102.84669679077342 108.32764618145302,98.89010515005793 107.38231046171859,96.54545454541221" stroke="#4dd2ff" stroke-linecap="round" stroke-linejoin="round" stroke-width="0.5"><title>2023-11-11 1.0km</title><desc>10196068378</desc></polyline><polyline fill="none" points="132.07058569975197,99.47369465162046 134.29295567888767,106.191408125218 136.3565849456936,111.70336376945488 137.30902922246605,115.32057761377655 137.94399207364768,116.18181818188168 138.2614734992385,115.83732199249789 137.7852513603866,113.77034379262477 135.40414066892117,108.43064166931435 133.0230299765244,103.43542544078082 129.84821572061628,98.44019856210798 129.53073429409415,96.54545454564504" stroke="#4dd2ff" stroke-linecap="round" stroke-linejoin="round" stroke-width="0.5"><title>2023-11-10 1.0km</title><desc>10191120477</desc></polyline><polyline fill="none" points="151.93486550962552,97.14504096680321 154.28325632028282,98.94379917392507 155.66466267872602,101.34214098099619 156.0790845863521,102.24151843134314 156.0790845863521,103.5905838633189 157.5986315808259,108.23735796206165 158.15119412448257,110.93547999858856 159.25631921133026,113.93338918453082 159.53260048292577,115.43234212475363 160.22330366261303,116.18181818176527 160.63772556977347,116.03192299243528 161.05214747739956,115.43234212475363 159.53260048292577,114.38307518244255 157.04606903763488,110.78558442334179 154.14511568425223,102.84110317809973 153.45441250456497,98.34421328105964 152.7637093248777,96.54545454541221" stroke="#4dd2ff" stroke-linecap="round" stroke-linejoin="round" stroke-width="0.5"><title>2023-11-09 1.0km</title><desc>10185506531</desc></polyline><polyline fill="none" points="175.2602821579203,98.12210418388713 176.71327858045697,100.98873662296683 177.24164091562852,102.42205126199406 178.95881850691512,106.14866439194884 179.61927142599598,108.72862315492239 179.48718084255233,107.15198209416121 179.75136201037094,108.15529928030446 180.2797243455425,112.02523216151167 181.46853960072622,115.60849649913143 181.9969019368291,116.18181818176527 182.65735485590994,115.89515736117028 182.9215360232629,115.46516605187207 181.46853960072622,114.1751915543573 180.4118149294518,112.45522422983777 179.75136201037094,110.59192458284087 178.82672792254016,107.4386442003306 177.5058220839128,105.57533975865226 176.05282566091046,102.42205126199406 175.65655390918255,100.12874733365607 175.7886444926262,97.26211363007315 175.52446332527325,96.54545454541221" stroke="#4dd2ff" stroke-linecap="round" stroke-linejoin="round" stroke-width="0.5"><title>2023-11-08 1.0km</title><desc>10179505859</desc></polyline><polyline fill="none" points="20.023251745849848,129.21172291447874 24.452447562478483,138.0 24.705544466152787,137.86268348875456 24.072802206967026,136.3522011960158 22.933866139501333,134.42976742074825 22.17457542801276,132.5073316671187 20.65599400503561,130.85952801757958 20.14980019815266,129.89830855070613 19.770154842175543,126.60269519442227 19.51705793850124,125.64147353696171 17.99847651552409,123.03244082990568 17.112637352198362,118.36363636364695" stroke="#4dd2ff" stroke-linecap="round" stroke-linejoin="round" stroke-width="0.5"><title>2023-11-06 1.0km</title><desc>10167691585</desc></polyline><polyline fill="none" points="41.61873670248315,123.87313993833959 42.530067573767155,125.56836862966884 45.91501080757007,133.3381476609502 47.34710217639804,137.7174638165161 47.60748242493719,138.0 47.86786267347634,138.0 47.86786267347634,137.5761957091745 46.82634167838842,135.31590458017308 45.91501080757007,134.04448965168558 45.784820683300495,133.3381476609502 45.00367993675172,132.4905369298067 42.790447822306305,128.6762840122683 40.1866453345865,122.03664050193038 39.14512433949858,118.36363636353053" stroke="#4dd2ff" stroke-linecap="round" stroke-linejoin="round" stroke-width="0.5"><title>2023-11-05 1.1km</title><desc>10161301187</desc></polyline><polyline fill="none" points="62.432157908566296,118.36363636364695 65.05482804775238,124.19764926051721 66.23502961080521,129.32018267083913 68.0708987088874,132.87748956226278 68.72656624391675,135.72333036828786 69.38223377848044,138.0 69.77563429949805,137.5731246479554 69.64450079249218,137.14624920184724 67.93976520188153,134.01582638698164 67.80863169441,133.5889501561178 66.23502961080521,131.16998307046015 65.57936207577586,128.893305404461 63.87462648516521,125.76286924083252 63.4812259641476,123.0593066617148 62.694424922112375,120.213447235059" stroke="#4dd2ff" stroke-linecap="round" stroke-linejoin="round" stroke-width="0.5"><title>2023-11-04 1.0km</title><desc>10155501797</desc></polyline><polyline fill="none" points="93.96957798255607,121.34638984163757 92.48071644641459,119.35788810811937 91.56449396302924,118.73648083629087 89.7320489953272,118.36363636353053 88.0141318384558,118.48791786388028 85.60904781799763,119.60645095270593 84.57829752378166,120.60070196597371 83.6620750403963,122.46492103859782 83.43301941966638,123.95629481622018 83.08943598810583,128.92753123503644 83.31849160883576,134.14731373498216 83.54754723003134,134.8929956331849 84.69282533461228,136.75719893875066 86.0671590603888,137.7514398607891 88.35771527001634,138.0 90.41921585798264,137.13003935315646 92.36618863651529,134.7687153397128 92.93882768880576,133.65019228681922 93.74052236182615,130.0460574136814 93.74052236182615,127.18760015175212 94.31316141411662,123.4591703696642 94.19863360375166,122.09207738854457 92.93882768880576,120.60070196597371 91.90807739412412,119.85501376073807 89.50299337413162,118.73648083629087 88.24318745918572,118.73648083629087 85.49452000809833,119.60645095270593 84.23471409268677,120.72498330136295 83.43301941966638,122.21635861427058 83.2039637984708,123.21060809190385 83.43301941966638,127.31188100308646 83.2039637984708,129.17609267192893" stroke="#4dd2ff" stroke-linecap="round" stroke-linejoin="round" stroke-width="0.5"><title>2023-11-03 1.0km</title><desc>10152446508</desc></polyline><polyline fill="none" points="107.23467209096998,118.36363636364695 108.30818924028426,120.69338332873303 109.22834679670632,124.85363980184775 110.76194272562861,127.84901972825173 113.06233661621809,133.83976768853609 113.52241539396346,134.83822414081078 114.2892133584246,137.50077252613846 114.74929213710129,138.0 115.36273050773889,138.0 115.36273050773889,137.6671816961607 114.2892133584246,137.16795414919034 113.82913457974792,136.00308944482822 112.75561743043363,135.00463350652717 111.9888194669038,132.8413107964443 110.91530231758952,131.17721499723848 109.68842557538301,128.68106900400016 108.30818924028426,123.52235856244806 107.38803168386221,121.35902487824205" stroke="#4dd2ff" stroke-linecap="round" stroke-linejoin="round" stroke-width="0.5"><title>2023-11-02 1.1km</title><desc>10144903556</desc></polyline><polyline fill="none" points="130.55219922214746,119.78656795970164 130.81446625525132,121.35179150744807 131.8635343881324,123.77077086397912 133.6994036207907,130.31622925924603 136.84660802036524,136.86166551872157 137.7645426359959,138.0 137.24000857025385,136.29249802720733 135.2730058208108,133.30436594970524 134.22393768792972,129.46247507166117 132.91260252147913,127.612673040363 131.33900032145903,124.19764926028438 130.0276651554741,118.36363636364695" stroke="#4dd2ff" stroke-linecap="round" stroke-linejoin="round" stroke-width="0.5"><title>2023-11-01 1.0km</title><desc>10138966680</desc></polyline><polyline fill="none" points="153.63617691863328,118.65892144944519 154.3164934841916,120.87355820776429 155.4049999890849,126.77924429008272 157.1738230586052,130.61793093034066 158.26232956303284,134.16132747021038 160.03115263348445,138.0 160.16721594659612,137.85235888429452 158.94264612859115,136.0806646522833 157.1738230586052,131.94670536520425 155.67712661530823,129.2891556158429 153.09192366711795,121.46412759739906 152.81979704042897,118.36363636364695" stroke="#4dd2ff" stroke-linecap="round" stroke-linejoin="round" stroke-width="0.5"><title>2023-10-31 1.0km</title><desc>10133123337</desc></polyline><polyline fill="none" points="176.00781543087214,120.6909192710882 176.67805318301544,124.18183849973138 176.67805318301544,125.49093162233476 178.15257623791695,127.96366071270313 182.1740027507767,136.54546122893225 182.84424050292,137.85454617068172 183.1123356036842,138.0 180.0292419437319,131.89092997508124 178.68876643991098,128.1091152690351 177.2142433845438,125.0545673443703 175.06948257796466,118.36363636353053" stroke="#4dd2ff" stroke-linecap="round" stroke-linejoin="round" stroke-width="0.5"><title>2023-10-30 1.0km</title><desc>10127985445</desc></polyline><polyline fill="none" points="17.81365087814629,143.023937026388 18.408927807118744,147.02873305091634 18.76609396468848,148.32060078915674 21.14720168057829,153.87562124116812 22.337755538523197,157.1052762218751 24.123586325906217,159.5598100371426 24.59980786917731,159.81818181823473 24.71886325441301,159.43062413216103 23.647364782635123,157.7512065054616 22.09964476712048,154.3923664370086 19.36137089319527,149.3540942959953 18.289872420951724,145.60767744190525 17.456484720576555,143.92824660427868 17.337429334875196,141.34450371935964 17.09931856347248,140.18181818188168" stroke="#4dd2ff" stroke-linecap="round" stroke-linejoin="round" stroke-width="0.5"><title>2023-10-28 1.0km</title><desc>10115543824</desc></polyline><polyline fill="none" points="40.95958967367187,144.25456147361547 42.03197023551911,147.7454776223749 43.238398366142064,150.50911520502996 44.31077892752364,154.43638302374166 45.91934976959601,158.2181891114451 46.589587619993836,159.67272798961494 47.25982547039166,159.81818181823473 47.39387304103002,159.67272798961494 47.125777900218964,158.8000047908863 46.32149247964844,156.61819511046633 43.64054107712582,151.3818420608295 41.49577995436266,145.56365575140808 40.15530425310135,142.6545561804669 39.61911397241056,140.18181818188168" stroke="#4dd2ff" stroke-linecap="round" stroke-linejoin="round" stroke-width="0.5"><title>2023-10-27 1.0km</title><desc>10110442644</desc></polyline><polyline fill="none" points="63.44265630701557,143.21391656110063 65.97083411412314,151.7326440984616 66.90226804278791,154.3315705669811 67.83370197191834,155.91980171622708 68.89819789025933,158.9518757974729 69.29738386021927,159.52941318729427 70.09575579920784,159.81818181823473 70.22881778841838,159.38502885575872 70.09575579920784,158.80749142356217 68.76513590011746,157.07487810892053 66.7692060531117,153.60964689298999 64.37409023661166,146.53478084306698 62.77734635816887,143.9358440565411 61.978974419180304,140.18181818188168" stroke="#4dd2ff" stroke-linecap="round" stroke-linejoin="round" stroke-width="0.5"><title>2023-10-26 1.0km</title><desc>10104873905</desc></polyline><polyline fill="none" points="87.71779754385352,149.57314738538116 90.73386776121333,157.11463633237872 92.1763361254707,159.67589004477486 92.70087007572874,159.81818181823473 92.56973658874631,158.39526361203752 89.02913242019713,152.27670340589248 87.0621301047504,147.29646570247132 85.35739476466551,143.7391452115262 84.70172732649371,140.18181818188168" stroke="#4dd2ff" stroke-linecap="round" stroke-linejoin="round" stroke-width="0.5"><title>2023-10-25 1.0km</title><desc>10098978222</desc></polyline><polyline fill="none" points="107.66620703646913,140.18181818188168 107.5341163361445,141.18514082662296 108.32666053902358,144.48176873766351 109.3833861425519,146.63174045912456 110.04383964464068,149.21170339512173 111.23265594849363,152.6516486654291 113.74237925652415,157.52489407581743 114.53492345940322,159.531520997989 114.79910486051813,159.81818181823473 115.06328626163304,159.67485141323414 114.93119556084275,157.81155519071035 113.4781978558749,155.08827289310284 112.42147225281224,153.51163403480314 111.10056524770334,150.5016835827846 110.83638384751976,148.92504101549275 109.25129544176161,146.48840908485 108.32666053902358,144.33843720518053 108.06247913790867,141.75846782024018 107.66620703646913,140.18181818188168" stroke="#4dd2ff" stroke-linecap="round" stroke-linejoin="round" stroke-width="0.5"><title>2023-10-24 1.0km</title><desc>10092835699</desc></polyline><polyline fill="none" points="131.8781578578055,143.57228378986474 133.83100886270404,150.49446583050303 134.74233933119103,152.18969028419815 135.78385986713693,156.4277448754292 137.3461406705901,159.2531094099395 137.99709100602195,159.81818181823473 137.3461406705901,159.11184128164314 136.4348102021031,156.8515498203924 134.09138899622485,154.02618175453972 133.57062872871757,153.0373019502731 133.04986846074462,149.78812186676078 131.48758765682578,146.68020534166135 130.44606712134555,143.4310145090567 129.79511678684503,140.18181818188168" stroke="#4dd2ff" stroke-linecap="round" stroke-linejoin="round" stroke-width="0.5"><title>2023-10-23 1.0km</title><desc>10087395010</desc></polyline><polyline fill="none" points="150.13595559448004,140.27599882084178 150.48312560934573,140.18181818182347 152.95671196607873,140.37017944589024 154.04161826265045,140.65272123808973 154.30199577403255,140.79399208753603 154.86614704853855,141.21780444862088 155.25671331514604,141.68870674312348 156.12463835231028,143.28977195447078 156.55860087135807,145.07919304235838 157.12275214563124,146.02099160669604 157.3831296567805,146.77442946098745 157.99067718279548,148.1400333128986 158.42463970184326,149.55272388859885 159.07558347983286,150.68287410557969 159.37935724272393,151.0125008765608 159.76992350979708,151.67175390961347 159.98690476897173,153.08443669544067 160.11709352466278,153.46115157881286 160.46426353952847,153.9791341816308 160.55105604347773,154.77965192560805 160.68124479893595,155.10927658813307 162.59067988116294,159.62982627376914 162.85105739254504,159.81818181817653 162.85105739254504,159.5827373788925 162.46049112570472,159.20602609601337 162.0265286071226,158.17006892553763 161.59256608807482,157.27537729369942 160.42086728778668,153.6495089373784" stroke="#4dd2ff" stroke-linecap="round" stroke-linejoin="round" stroke-width="0.5"><title>2023-10-22 1.5km</title><desc>10080655811</desc></polyline><polyline fill="none" points="175.96769871748984,140.18181818182347 176.65664218203165,140.68021008133655 175.41654394567013,140.4808533655014 177.34558564680628,142.972808099119 177.52930390415713,143.57087587204296 177.3915152112022,144.06926527956966 176.74850131082349,144.41813764697872 176.56478305347264,144.76700983464252 176.61071261786856,145.3650760243181 176.97814913233742,146.81040047103306 177.3915152112022,147.85701280186186 177.85081085423008,149.45184753165813 178.67754301195964,150.89716326462803 178.81533170491457,151.44538566755364 179.32055691233836,152.34247591585154 179.64206386264414,152.74118231190369 179.6879934265744,152.99037369026337 180.009500377113,153.2894032234908 180.23914819862694,153.78778548561968 180.5606551489327,154.73471077420982 180.88216209900565,155.38260626216652 180.83623253484257,156.67839538038243 181.43331687082537,157.8246683049365 181.6170351281762,158.37288510549115 181.93854207824916,158.97093929135008 182.48969685006887,159.6686685079476 182.76527423597872,159.81818181817653 181.70889425673522,158.32304723287234 181.47924643522128,157.52564077242278 181.01995079196058,156.52888137777336 180.83623253484257,155.88098698534304 180.23914819862694,155.03373953793198 179.73392299120314,153.58843262476148" stroke="#4dd2ff" stroke-linecap="round" stroke-linejoin="round" stroke-width="0.5"><title>2023-10-20 1.4km</title><desc>10069668027</desc></polyline><polyline fill="none" points="16.957840998191386,162.0 17.051361706340685,162.7611097744084 17.799527369672433,164.5877698076656 17.9865687857382,165.7040596701554 19.52966046682559,169.45883959176717 19.669941528700292,169.9662407169235 19.76346223684959,170.72734170535114 19.950503652682528,171.23474189796252 21.07275214791298,172.80768012418412 21.680636749602854,174.02543628879357 22.05471958150156,175.24319030460902 22.38204205944203,175.9028061660938 22.569083475274965,176.91759856807766 22.802885245298967,177.42499420949025 23.41076984675601,178.9979183272808 23.50429055467248,179.6067912169965 24.39273728034459,181.43340666306904 24.62653905013576,181.63636363635305 24.766820112010464,181.63636363635305 24.860340819926932,181.58562439854722 24.81358046620153,181.5348851570743 23.878373386571184,180.36788157362025 23.457530200947076,178.94717889558524 22.569083475274965,177.32351511099841 22.428802413400263,176.66390060738195 22.335281705250964,175.5476284729084" stroke="#4dd2ff" stroke-linecap="round" stroke-linejoin="round" stroke-width="0.5"><title>2023-10-19 1.3km</title><desc>10064004415</desc></polyline><polyline fill="none" points="39.078643950633705,162.0 41.00379593111575,164.50678116001654 40.87545246584341,166.3172321569873 41.132139396388084,168.12768142367713 42.03054365469143,171.33077973301988 43.31397830788046,173.41975397372153 44.59741296200082,177.040637200349 47.16428227024153,181.21857078454923 47.5493126665242,181.63636363635305 47.93434306234121,181.49709936243016 46.265878011938184,179.825927280006 43.185634842608124,173.8375485453289 42.41557405050844,171.1915147016989 40.2337351385504,166.5957629258046" stroke="#4dd2ff" stroke-linecap="round" stroke-linejoin="round" stroke-width="0.5"><title>2023-10-18 1.0km</title><desc>10058081424</desc></polyline><polyline fill="none" points="62.67654232401401,163.19008806895 63.77329553337768,169.58679944928735 66.65227270871401,177.17357045179233 68.57159082498401,181.1900847607758 69.39415573235601,181.63636363635305 69.80543818604201,181.63636363635305 70.07962648803368,181.04132511408534 69.11996743036434,179.85124754346907 67.88612006930634,177.91736999968998 66.24099025502801,174.34712967742234 65.55551949935034,172.26448658062145 62.67654232401401,166.46282665070612 62.40235402202234,165.57026210788172 62.128165719565004,162.0" stroke="#4dd2ff" stroke-linecap="round" stroke-linejoin="round" stroke-width="0.5"><title>2023-10-17 1.0km</title><desc>10051702317</desc></polyline><polyline fill="none" points="84.3163937148638,162.4531489686342 85.70842704409733,164.86994178034365 87.7964770370163,170.30771521176212 88.91010370058939,172.42240099271294 90.16293369652703,176.34966881130822 91.69417035859078,180.27692912344355 92.25098369037732,181.33426715573296 92.94700035452843,181.63636363635305 93.08620368782431,181.48531540168915 92.94700035452843,181.0321706305258 91.41576369293034,178.76644527656026 89.32771369954571,173.6307918902021 87.7964770370163,170.45876426808536 86.54364704154432,164.56784283404704 85.8476303764619,162.0" stroke="#4dd2ff" stroke-linecap="round" stroke-linejoin="round" stroke-width="0.5"><title>2023-10-16 1.0km</title><desc>10046279660</desc></polyline><polyline fill="none" points="107.27727168099955,162.0 107.85176162654534,163.2467586544808 108.42625157162547,166.05196294630878 109.7188539491035,170.41560668870807 111.4423237843439,173.06495743535925 113.45303859282285,180.54545931739267 114.17115102475509,181.32467674533837 115.17650842899457,181.63636363635305 115.32013091584668,181.32467674533837 115.17650842899457,180.3896157973213 113.30941610690206,177.74027420498896 112.30405870266259,174.62339750409592 111.15507881203666,172.75326928403229 108.42625157162547,166.36365208309144 107.420894167386,162.0" stroke="#4dd2ff" stroke-linecap="round" stroke-linejoin="round" stroke-width="0.5"><title>2023-10-15 1.0km</title><desc>10039610121</desc></polyline><polyline fill="none" points="129.80981160979718,163.42522596602794 130.24762864038348,168.01761433121283 131.41514072287828,171.34313082846347 132.87453082483262,173.40178132476285 133.75016488693655,176.25221722596325 136.23112806025892,180.68622112995945 136.81488410104066,181.31964951416012 137.54457915294915,181.63636363635305 137.98239618260413,181.31964951416012 137.98239618260413,180.8445782433264 135.06361597776413,178.4692203187151 133.1664088452235,174.98535729118157 132.43671379424632,171.97656195994932 130.68544567096978,168.01761433121283 129.80981160979718,164.6920927001629 129.9557506199926,162.63343387912028 129.80981160979718,162.0" stroke="#4dd2ff" stroke-linecap="round" stroke-linejoin="round" stroke-width="0.5"><title>2023-10-14 1.0km</title><desc>10033377496</desc></polyline><polyline fill="none" points="152.0412100716494,162.31168973259628 154.6264144461602,165.42858453607187 154.91365937655792,167.7662526309723 157.35524128517136,175.24677321105264 159.65320072881877,180.7013028258225 160.37131305458024,181.63636363635305 160.94580291584134,181.63636363635305 160.94580291584134,181.1688332828926 160.802180449944,180.7013028258225 159.50957826292142,179.76624160283245 158.0733536113985,177.11689923144877 156.49350649351254,172.12989284435753 153.62105718953535,165.74027376412414 153.19018979370594,163.55844820383936 152.4720774674788,162.0" stroke="#4dd2ff" stroke-linecap="round" stroke-linejoin="round" stroke-width="0.5"><title>2023-10-13 1.0km</title><desc>10028006924</desc></polyline><polyline fill="none" points="174.87761876778677,162.0 176.25902543123811,163.79875873599667 177.08786942902952,165.29772313660942 177.22601009579375,167.2463752104668 177.08786942902952,169.34492151474115 178.60741675877944,172.49273692152929 180.40324542112648,177.28939867182635 182.1990740839392,180.5870970794931 182.6134960828349,181.186678035534 183.30419941432774,181.63636363635305 183.30419941432774,180.88688757945783 181.78465208457783,178.93824854237027 180.40324542112648,176.53992101736367 178.60741675877944,171.5933615869144 177.5022914283909,169.64471366780344 176.94972876319662,167.99585628160276" stroke="#4dd2ff" stroke-linecap="round" stroke-linejoin="round" stroke-width="0.5"><title>2023-10-12 1.0km</title><desc>10021974100</desc></polyline><polyline fill="none" points="18.613274747040123,186.60245410341304 19.1534667853266,189.53326283406932 19.018418775871396,190.70558511989657 20.233850860968232,194.66216774319764 21.17918692762032,196.42064638785087 22.124522995203733,199.6445198743604 23.475003089755774,202.8683881467441 23.745099109131843,203.16146682202816 24.420339156873524,203.4545454545878 24.28529114695266,202.8683881467441 22.799763042479753,199.05836144660134 21.17918692762032,196.2741065598093 19.018418775871396,191.29174600390252 18.478226737119257,189.38672249997035 18.20813071867451,186.60245410341304 17.397842661011964,183.81818181823473" stroke="#4dd2ff" stroke-linecap="round" stroke-linejoin="round" stroke-width="0.5"><title>2023-10-10 1.0km</title><desc>10009069592</desc></polyline><polyline fill="none" points="40.179943760856986,186.27273801004048 41.11137768952176,188.87167651590426 42.042811618652195,192.3369225076167 44.03874146612361,196.6684713989962 45.63548534363508,202.15508628054522 46.566919272299856,203.4545454545878 46.83304325258359,203.02139249211177 46.9661052422598,201.43316414533183 46.034671313129365,198.68985761201475 44.03874146612361,195.22462282993365 41.77668763929978,188.87167651590426 41.11137768952176,185.98396685230546 40.04688177071512,183.81818181823473" stroke="#4dd2ff" stroke-linecap="round" stroke-linejoin="round" stroke-width="0.5"><title>2023-10-09 1.0km</title><desc>10003389142</desc></polyline><polyline fill="none" points="62.105846744496375,183.81818181823473 63.08782378071919,185.03594622015953 64.06980081647635,187.31925254268572 64.6309305508621,191.88585763401352 66.7351670563221,196.4524526532041 68.55883869342506,201.62791483278852 69.40053329523653,203.15010712959338 70.10194546356797,203.4545454545878 70.10194546356797,202.23679188604 67.43657922418788,197.97464875481091 63.92951838299632,189.45033617177978 62.52669404586777,183.97040240792558" stroke="#4dd2ff" stroke-linecap="round" stroke-linejoin="round" stroke-width="0.5"><title>2023-10-08 1.0km</title><desc>9996447828</desc></polyline><polyline fill="none" points="86.1807249924168,187.74547071452253 86.82702594390139,190.12989217124414 88.76592879602686,195.31950504076667 89.41222974751145,197.5636575849494 91.48039278993383,202.75325023324694 92.12669374095276,203.4545454545878 92.25595393124968,202.89350929833017 92.25595393124968,202.33247297722846 89.80001031793654,197.98443589312956 88.6366686061956,195.45976465183776 86.56850556330755,189.28833199723158 85.92220461182296,186.06234789139125 85.14664347097278,183.81818181823473" stroke="#4dd2ff" stroke-linecap="round" stroke-linejoin="round" stroke-width="0.5"><title>2023-10-07 1.0km</title><desc>9989974159</desc></polyline><polyline fill="none" points="109.69440845306963,189.6673326981254 110.72115587443113,193.00969652016647 111.49121644021943,194.6808762201108 113.03133757226169,201.22631584806368 113.41636785538867,202.4796953239711 114.18642842164263,203.4545454545878 114.8281455594115,203.4545454545878 115.08483241451904,202.89748829847667 114.95648898743093,202.4796953239711 113.41636785538867,200.25146457052324 111.87624672334641,196.90911352587864 111.36287301266566,194.6808762201108 108.66766103217378,188.13541397557128 108.2826307490468,185.76790078473277 107.5125701832585,183.81818181823473" stroke="#4dd2ff" stroke-linecap="round" stroke-linejoin="round" stroke-width="0.5"><title>2023-10-06 1.0km</title><desc>9984428862</desc></polyline><polyline fill="none" points="129.6686559310183,183.81818181823473 131.89362854417413,189.77349103672896 133.3769436199218,194.76306196383666 135.89857924822718,201.04024794592988 136.9368998007849,203.1326392745832 137.38189432397485,203.4545454545878 137.97522035427392,203.4545454545878 138.12355186138302,203.1326392745832 137.67855733819306,202.32787361531518 135.89857924822718,199.75262151972856 134.86025869566947,197.66022696113214 133.08028060477227,192.99257035600021 132.3386230673641,190.57826131023467 130.26198196131736,186.71536129922606 130.26198196131736,185.26677203795407" stroke="#4dd2ff" stroke-linecap="round" stroke-linejoin="round" stroke-width="0.5"><title>2023-10-04 1.0km</title><desc>9971682885</desc></polyline><polyline fill="none" points="153.5214659520425,186.11148996138945 154.1819194057025,188.40479540708475 154.84237285889685,189.98144133610185 155.3707356224768,192.41807344567496 157.88045874563977,197.43465937650762 158.01254943711683,199.15462872409262 158.80509358132258,202.5945628673071 159.06927496241406,203.0245542083867 159.86181910708547,203.4545454545878 159.86181910708547,202.02124093158636 158.14464012812823,198.86796727159526 156.95582391135395,196.14468137011863 156.29537045722827,194.8547025100561 155.63491700356826,192.991398205515 154.3140100967139,190.2681040954776 153.78564733313397,188.11813237390015 153.5214659520425,185.96815828164108 153.12519387993962,183.81818181823473" stroke="#4dd2ff" stroke-linecap="round" stroke-linejoin="round" stroke-width="0.5"><title>2023-10-03 1.0km</title><desc>9965060084</desc></polyline><polyline fill="none" points="175.50153297185898,184.62960526300594 177.29622103087604,190.47184526151977 177.59533570706844,193.06839140877128 178.6422370756045,194.36666333675385 179.39002376701683,196.3140697972849 180.7360398117453,201.34486186900176 181.78294117935002,202.96769557520747 182.53072787076235,203.4545454545878 182.68028520978987,203.29226217325777 182.23161319456995,201.99399549444206 180.58648247364908,198.91060907230712 177.89445038326085,192.41925515804905 176.24931966233999,187.55072719487362 175.95020498614758,183.81818181823473" stroke="#4dd2ff" stroke-linecap="round" stroke-linejoin="round" stroke-width="0.5"><title>2023-10-02 1.0km</title><desc>9958643020</desc></polyline><polyline fill="none" points="17.796504042577,209.09237672155723 18.08604700677097,210.50619864545297 21.271019614767283,218.0465664388612 22.86350591853261,222.91637316404376 23.732134812045842,224.6443664309336 24.600763704627752,225.2727272727061 24.745535186957568,225.11563707957976 24.600763704627752,224.48727619170677 21.705334060825408,220.0887448041467 18.95467589981854,213.3338396861218 17.651732560247183,209.24946809280664 17.07264663139358,205.63636363635305" stroke="#4dd2ff" stroke-linecap="round" stroke-linejoin="round" stroke-width="0.5"><title>2023-10-01 1.0km</title><desc>9952075403</desc></polyline><polyline fill="none" points="40.68712248420343,208.48222578293644 41.86732430756092,210.9012053173501 42.39185845060274,213.3201818286907 42.78525905823335,215.59686284209602 44.752262097317725,221.14626159286126 46.4569980641827,224.7035601157695 47.24379927944392,225.2727272727061 47.50606635166332,224.8458519205451 44.88339563366026,220.8616774288239 43.703193810302764,218.15812578098848 43.30979320220649,216.73520234436728 41.47392369993031,212.75101115682628 40.424855411984026,208.33993277477566 39.506920660845935,205.63636363623664" stroke="#4dd2ff" stroke-linecap="round" stroke-linejoin="round" stroke-width="0.5"><title>2023-09-30 1.0km</title><desc>9945549317</desc></polyline><polyline fill="none" points="63.06369676627219,205.63636363635305 64.36663933936507,207.83564533735625 64.80095353070647,209.56365080014803 65.95912470668554,212.39129308855627 66.5382102956064,216.63274950475898 66.97252448648214,217.88947571488097 68.70978125091642,222.13092121726368 69.14409544179216,224.80145665886812 69.43363823601976,225.11563707957976 69.86795242736116,225.2727272727061 70.0127238240093,224.95854687481187 67.40683867782354,220.2458353670081 65.6695819129236,216.161476985435 65.09049632493407,213.80511282931548 63.06369676627219,209.0923767220229 62.19506838358939,206.26473006757442" stroke="#4dd2ff" stroke-linecap="round" stroke-linejoin="round" stroke-width="0.5"><title>2023-09-28 1.0km</title><desc>9933629332</desc></polyline><polyline fill="none" points="84.86265964573249,207.8677781916922 85.95941366162151,211.7355575923575 88.01582744112238,214.56200709415134 89.38676996063441,219.61985424347222 91.30608948832378,223.0413319109939 91.85446649650112,224.9752080332255 92.40284350374714,225.2727272727061 92.67703200830147,224.82644839701243 92.40284350374714,224.23140974331181 91.30608948832378,222.74381234310567 88.15292169293389,216.34713106090203 86.50779066886753,211.8843181906268 84.72556539392099,205.63636363623664" stroke="#4dd2ff" stroke-linecap="round" stroke-linejoin="round" stroke-width="0.5"><title>2023-09-27 1.0km</title><desc>9927137811</desc></polyline><polyline fill="none" points="112.92996097146533,205.63636363635305 112.5384586500004,207.52450162480818 112.14695632853545,208.6101784533239 111.84245452308096,209.93186950549716 110.05894394731149,213.66091173316818 109.14543853071518,215.21860650292365 108.97143749869429,215.8794455662719 109.0584380144719,216.3986757818493 109.27593930438161,217.15391898195958 109.92844317341223,218.75880783243338 110.14594446332194,219.1836306800251 110.40694601088762,219.93887060403358 111.27695116959512,221.02452643826837 111.66845349106006,221.87416885391576 112.10345607064664,222.53500106662977 112.45145813422278,223.47904590476537 112.97346122958697,224.18707862234442 113.6259650986176,225.2727272727061" stroke="#4dd2ff" stroke-linecap="round" stroke-linejoin="round" stroke-width="0.5"><title>2023-09-26 1.0km</title><desc>9920397094</desc></polyline><polyline fill="none" points="133.80440029222518,205.63636363635305 132.94849998969585,208.48897002107697 132.0925996871665,210.01477903616615 131.2978351204656,211.0098704819684 130.86988496943377,211.80594284838298 130.68647776171565,212.60201451228932 130.74761349731125,213.5971031045774 131.0532921771519,214.39317318820395 131.78692100779153,215.52093793771928 132.0925996871665,216.6487012776197 132.70395704591647,218.108157624898 133.8655360280536,219.56761161162285 135.82187957665883,223.5479286678601 137.10573003068566,225.2727272727061" stroke="#4dd2ff" stroke-linecap="round" stroke-linejoin="round" stroke-width="0.5"><title>2023-09-25 1.0km</title><desc>9914573673</desc></polyline><polyline fill="none" points="157.9411961955484,205.63636363629485 157.45863296161406,206.3694642749615 157.36212031473406,206.73601431126008 157.45863296161406,207.20729265216505 157.50688928505406,207.67857068113517 156.54176281695254,209.45895153150195 156.30048119975254,210.66332428879105 155.9626869361382,211.55351153941592 153.935921353288,215.11424941470614 153.887665029848,215.53315858234419 154.08069032337517,216.37097617884865 154.61150988098234,217.20879278966459 154.9010478213895,217.94188151555136 155.33535473188385,218.67496948683402 155.57663634885103,219.40805670345435 156.20396855310537,220.40295957640046 156.6865317870397,221.39786105952226 157.2173513446469,221.9738560197875 157.36212031473406,222.49748739751521 157.69991457858123,222.9163922225125 158.42375942971557,224.17310521943728 158.95457898708992,224.7490979352151 159.0993479571771,225.2727272727061" stroke="#4dd2ff" stroke-linecap="round" stroke-linejoin="round" stroke-width="0.5"><title>2023-09-24 1.0km</title><desc>9907510217</desc></polyline><polyline fill="none" points="179.82295428495854,205.63636363629485 179.41300897626206,206.27185164560797 179.12019089865498,206.90733918757178 178.9445000521373,207.73347229365027 178.8859364364762,208.81379900989123 177.89035497233272,210.14831838349346 177.30471881711856,211.67348085838603 176.77764627709985,212.43606108648237 176.42626458383165,213.45283367752563 176.36770096817054,214.53315324470168 177.59753689472564,217.64700797147816 178.0660458188504,218.60022656351794 179.58869982301258,221.0150422916049 180.23289959388785,222.6037331702537 181.0527902112808,223.6204938000301 181.52129913587123,224.44661093113245 181.8141172134783,225.2727272727061" stroke="#4dd2ff" stroke-linecap="round" stroke-linejoin="round" stroke-width="0.5"><title>2023-09-23 1.0km</title><desc>9901004991</desc></polyline><polyline fill="none" points="21.66309787519276,227.45454545452958 21.272131300298497,228.1818265238544 20.881164725404233,229.45456685096724 19.987526839831844,231.33337040868355 19.093888954492286,232.6061058694031 18.311955804703757,234.72732727008406 18.256103436695412,235.87884517293423 18.367808172712103,236.5455126974266 19.48485552938655,239.21217740292195 19.652412632713094,240.00005396042252 19.875822104047984,240.42429487174377 20.657755253836513,241.39398756361334 21.272131300298497,242.60610182397068 21.77480261074379,243.87881987943547 22.612588128307834,245.09093048621435 23.562078381655738,247.09090909088263" stroke="#4dd2ff" stroke-linecap="round" stroke-linejoin="round" stroke-width="0.5"><title>2023-09-22 1.0km</title><desc>9895405405</desc></polyline><polyline fill="none" points="44.5474223671481,227.45454545447137 44.38727946556173,228.03379622573266 44.066993662388995,228.38134648406412 43.37304108822718,229.65569611924002 43.10613625240512,230.58249455911573 42.30542174400762,232.6098623450962 41.45132626849227,234.34760200895835 40.91751659614965,235.62194199307123 40.757373694563285,236.25911121198442 40.757373694563285,236.66458226484247 40.91751659614965,237.24382626404986 41.23780239955522,237.82306983741 41.931754973717034,239.6187222081935 42.625707547413185,240.89305366569897 42.9993743179366,241.81983888568357 43.69332689163275,242.97831887751818 44.12037462927401,243.49963431817014 44.44066043267958,244.42641647183336 45.29475590819493,245.93243514624191 46.2556133181788,247.09090909088263" stroke="#4dd2ff" stroke-linecap="round" stroke-linejoin="round" stroke-width="0.5"><title>2023-09-21 1.0km</title><desc>9889267953</desc></polyline><polyline fill="none" points="68.10312208090909,227.45454545447137 67.4023624600377,229.55687436508015 66.9901509184856,231.21189414069522 66.33061245153658,232.59852886438603 65.54741052235477,234.9244896901073 64.18711243500002,237.47409037820762 63.81612204760313,238.86071082780836 63.85734320152551,239.1738182338304 64.10467012645677,239.84476213267772 64.64054513094015,241.00772980455076 64.97031436418183,241.99177763657644 65.79473744751886,243.1547412039945 66.2893912976142,244.09405630873516 66.57793937670067,244.76499478134792 66.90770860994235,245.34647419233806 67.4435836141929,245.74903653596994 68.10312208090909,246.73307669896167 68.1443432350643,246.9119929212029 68.39167016022839,247.09090909088263" stroke="#4dd2ff" stroke-linecap="round" stroke-linejoin="round" stroke-width="0.5"><title>2023-09-20 1.0km</title><desc>9882714971</desc></polyline><polyline fill="none" points="90.32948382152244,227.45454545452958 89.91080764774233,228.51462055841694 89.11997487512417,230.83668411325198 89.0734553001821,231.59387705259724 88.79433785099536,231.99771294544917 88.46870082709938,232.75490460416768 88.28262252756394,233.46161606558599 87.91046592849307,234.42072331369855 86.84051570668817,236.13701715046773 86.56139825750142,237.1465997560881 86.46835910785012,238.05522283178288 86.56139825750142,238.96384470484918 86.84051570668817,239.97342315351125 87.16615273058414,240.6801271843724 88.18958337767981,242.44688407873036 88.70129870134406,243.1535855633556 89.16649444983341,244.41555069119204 89.63169019855559,245.2232071555918 90.09688594704494,245.8794273334206 90.60860127047636,246.38421165884938 90.934238294838,247.09090909088263" stroke="#4dd2ff" stroke-linecap="round" stroke-linejoin="round" stroke-width="0.5"><title>2023-09-19 1.0km</title><desc>9876194288</desc></polyline><polyline fill="none" points="111.15416306816041,227.45454545452958 110.80727131455205,228.01917563931784 110.22911839233711,229.14843488816405 110.05567251564935,229.90127355681034 109.0149972550571,231.72063093056204 108.20558316353709,233.414511894749 108.03213728684932,234.0418743614573 108.0899525792338,234.7319725418347 108.43684433284216,235.6102785099647 108.95718196290545,236.55131961521693 109.4197043008171,237.86877541907597 110.05567251564935,239.24896503181662 110.74945602240041,240.5036809243611 111.38542423723266,241.3192452651565 112.13702303636819,242.5739581134403 112.59954537404701,244.0168756080093 113.40895946579985,245.27158448967384 113.81366651155986,246.40082090575015 114.5652653106954,247.09090909088263" stroke="#4dd2ff" stroke-linecap="round" stroke-linejoin="round" stroke-width="0.5"><title>2023-09-18 1.0km</title><desc>9870505463</desc></polyline><polyline fill="none" points="134.09341415204108,227.45454545452958 133.81154235778376,228.00510402099462 133.41692184633575,229.84029661113163 132.90955261723138,230.69671843457036 132.68405518168584,231.36962067720015 131.44381928816438,233.38832413993077 130.99282441777177,234.4894330551033 130.7109526237473,235.46819531172514 130.93645005882718,236.14109369524522 132.17668595234863,238.83268178714206 132.7968038993422,239.81143893447006 133.2477987697348,240.85136714181863 133.98066543438472,241.83012191439047 134.37528594606556,242.50301515258616 134.88265517516993,244.09348791610682 137.08125516865402,247.09090909088263" stroke="#4dd2ff" stroke-linecap="round" stroke-linejoin="round" stroke-width="0.5"><title>2023-09-16 1.0km</title><desc>9856514700</desc></polyline><polyline fill="none" points="156.2220636466518,227.45454545452958 155.61885732016526,229.28729105379898 154.8346890953835,230.53093770437408 153.2060320135206,233.6727741351351 153.1457113805227,234.39277675561607 153.2060320135206,235.24368819245137 153.56795580941252,236.09459881600924 154.1711621361319,237.01096319337375 154.71404782985337,238.25459905387834 155.6791779526975,239.8909593813587 156.88559060613625,242.18185878696386 157.00623187143356,243.03276277898112 157.42847630009055,243.36003332858672 157.91104136151262,244.01457406685222 158.6952095858287,245.323654099775 159.5396984431427,246.0436472974252 159.72066034120508,246.50182448362466 159.84130160673521,247.09090909088263" stroke="#4dd2ff" stroke-linecap="round" stroke-linejoin="round" stroke-width="0.5"><title>2023-09-15 1.0km</title><desc>9850671982</desc></polyline><polyline fill="none" points="179.59011370292865,227.45454545452958 178.59170447918586,230.09532217337983 177.468494102126,231.72041177481879 176.96928949048743,232.60066744493088 176.2204825724475,234.4965998766711 176.03328084293753,235.17371765640564 176.03328084293753,235.71541152137797 176.2204825724475,236.39252840494737 176.96928949048743,238.4238760683802 177.65569583163597,239.77810535475146 179.34051139699295,242.68969157728134 180.02691773837432,243.97620348754572 180.15171889122576,244.7210253510275 180.65092350332998,245.19500258681364 181.46213099756278,246.4815109972842 182.14853733894415,247.09090909088263" stroke="#4dd2ff" stroke-linecap="round" stroke-linejoin="round" stroke-width="0.5"><title>2023-09-14 1.0km</title><desc>9844236351</desc></polyline><polyline fill="none" points="17.78826918406412,249.2727272727643 18.147500461898744,249.56508434808347 18.28221219102852,249.85744129441446 18.37202001037076,250.4908809022163 18.641443468630314,251.02686778991483 18.821059107547626,252.537373958854 18.821059107547626,253.26826280454407 18.731251288205385,253.65806985925883 18.821059107547626,254.14532835537102 19.045578656019643,254.73003807774512 18.955770836677402,255.21729578560917 19.000674746464938,255.4609245051397 19.449713843641803,256.2892614818411 19.85384903103113,257.5074022138142 20.213080308632925,258.189560045721 20.66211940580979,258.8229916894343 21.15606241254136,259.26152093417477 21.290774141671136,259.55387360288296 21.425485871033743,260.1873039426282 21.784717148635536,260.82073367695557 22.188852336024866,261.9901408266742 22.72769925254397,263.0133703900501 22.997122710803524,263.8904230442131 23.1318344399333,264.62129936920246 23.401257898192853,265.20599984913133 23.895200905157253,266.81392350868555 24.568759550806135,268.0807697052369 24.6136634608265,268.2756689051748 24.568759550806135,268.4218432675116 24.02991263428703,268.90909090911737 24.299336092546582,268.71419189544395 24.43404782167636,268.4218432675116 24.5238556410186,268.1782193123945 24.478951731696725,267.8371456247405 24.20952827320434,267.4960717615322 23.401257898192853,265.7419748356333 22.997122710803524,264.4263990946929 22.14394842647016,262.52611841395264 21.739813238848,260.67455763818 21.515293690375984,260.1385785534512 20.66211940580979,259.0178936118609 19.808945121243596,257.4099510376691 19.404809933621436,256.09435875696363 19.27009820495732,255.21729578560917 18.910866926889867,254.29150583437877 18.19240437168628,252.73227772989776 18.012788732536137,252.0013882930507 17.38413399667479,250.83196351729566 17.249422267545015,250.19852423545672 17.20451835775748,249.41890582657652" stroke="#4dd2ff" stroke-linecap="round" stroke-linejoin="round" stroke-width="0.5"><title>2023-09-13 1.0km</title><desc>9837636972</desc></polyline></svg>