<?xml version="1.0" encoding="utf-8" ?>
<svg baseProfile="full" height="300mm" version="1.1" viewBox="0,0,200,300" width="200mm" xmlns="http://www.w3.org/2000/svg" xmlns:ev="http://www.w3.org/2001/xml-events" xmlns:xlink="http://www.w3.org/1999/xlink"><defs /><rect fill="#222222" height="300" width="200" x="0" y="0" /><text fill="#FFFFFF" style="font-size:12px; font-family:Arial; font-weight:bold;" x="10" y="20">Over 1km Runs</text><text fill="#FFFFFF" style="font-size:4px; font-family:Arial" x="10" y="280">ATHLETE</text><text fill="#FFFFFF" style="font-size:9px; font-family:Arial" x="10" y="290">Jiakai</text><text fill="#FFFFFF" style="font-size:4px; font-family:Arial" x="120" y="280">STATISTICS</text><text fill="#FFFFFF" style="font-size:3px; font-family:Arial" x="120" y="285">Number: 38</text><text fill="#FFFFFF" style="font-size:3px; font-family:Arial" x="120" y="290">Weekly: 5.4</text><text fill="#FFFFFF" style="font-size:3px; font-family:Arial" x="141" y="285">Total: 39.7 km</text><text fill="#FFFFFF" style="font-size:3px; font-family:Arial" x="141" y="290">Avg: 1.0 km</text><text fill="#FFFFFF" style="font-size:3px; font-family:Arial" x="167" y="285">Min: 1.0 km</text><text fill="#FFFFFF" style="font-size:3px; font-family:Arial" x="167" y="290">Max: 1.5 km</text><polyline fill="none" points="23.647685908712447,44.41307765478268 27.794782457873225,54.78262495691888 29.77817645855248,58.304348811507225 30.499410640448332,58.5 30.31910209544003,56.54348746663891 25.4507713643834,48.13046718318947 22.746143179945648,41.28264034097083 20.402132087387145,36.39132466586307 19.500589359551668,31.5" stroke="#4dd2ff" stroke-linecap="round" stroke-linejoin="round" stroke-width="0.5"><title>2023-10-25 1.0km</title><desc>10098978222</desc></polyline><polyline fill="none" points="57.50532038975507,31.5 57.32369567640126,32.87956863641739 58.41344395559281,37.41243201401085 59.86644166056067,40.36864313087426 60.77456522639841,43.9160921680741 62.409187643788755,48.64601691463031 65.86005719285458,55.34672935400158 66.94980547111481,58.10584137192927 67.31305489782244,58.5 67.67630432453007,58.30292069306597 67.49467961024493,55.7408883869648 65.49680776707828,51.99637522781268 64.04381006211042,49.828496797475964 62.22756293043494,45.68981492612511 61.86431350465864,43.52193139609881 59.684816947206855,40.17156249145046 58.41344395559281,37.21535115689039 58.050194528885186,33.66789325256832 57.50532038975507,31.5" stroke="#4dd2ff" stroke-linecap="round" stroke-linejoin="round" stroke-width="0.5"><title>2023-10-24 1.0km</title><desc>10092835699</desc></polyline><polyline fill="none" points="97.22532419674098,36.16189021081664 99.91049432847649,45.679890516679734 101.16357372328639,48.01082414062694 102.59566445928067,53.83814920345321 104.74380056466907,57.72302543837577 105.63885727524757,58.5 104.74380056466907,57.528781762113795 103.49072116985917,54.42088100290857 100.26851701270789,50.53599991230294 99.55247164424509,49.17629018146545 98.83642627578229,44.70866756676696 96.68829017039388,40.43528234469704 95.2561994343996,35.96764494967647 94.36114272475243,31.5" stroke="#4dd2ff" stroke-linecap="round" stroke-linejoin="round" stroke-width="0.5"><title>2023-10-23 1.0km</title><desc>10087395010</desc></polyline><polyline fill="none" points="128.7583675137721,31.629498378606513 129.23572628409602,31.5 132.63690752442926,31.758996738062706 134.12865368253551,32.14749170234427 134.48667276045308,32.341739120311104 135.26238076295704,32.924481116759125 135.79940937971696,33.57197177177295 136.992806305876,35.77343643736094 137.58950476930477,38.233890433155466 138.3652127715759,39.52886345918523 138.72323184926063,40.564840508799534 139.55860969773494,42.44254580512643 140.1553081611637,44.38499534671428 141.0503558558412,45.93895189516479 141.46804478019476,46.3921887052129 142.00507339718752,47.29866162565304 142.30342262866907,49.241100456158165 142.48243216751143,49.75908342085313 142.95979093806818,50.47130949964048 143.07913063117303,51.572021397645585 143.25814016978256,52.02525530860294 145.8836134080775,58.24101112637436 146.24163248599507,58.5 146.24163248599507,58.176263895933516 145.7046038690023,57.658285881974734 145.1079054060392,56.233844772563316 144.51120694261044,55.00364377879305 142.900121091865,50.01807478885166" stroke="#4dd2ff" stroke-linecap="round" stroke-linejoin="round" stroke-width="0.5"><title>2023-10-22 1.5km</title><desc>10080655811</desc></polyline><polyline fill="none" points="170.70558573654853,31.5 171.65288300043903,32.18528886185959 169.94774792529643,31.911173377535306 172.60018026432954,35.33761113631772 172.85279286815785,36.159954324073624 172.66333341551945,36.84523975942284 171.7791893023532,37.32493926456664 171.52657669852488,37.80463852267712 171.5897298497148,38.62697953346651 172.09495505690575,40.61430064769229 172.66333341551945,42.053392602538224 173.2948649248574,44.246290356095415 174.4316216413863,46.23359948891448 174.62108109425753,46.98740529286442 175.31576575455256,48.220904384274036 175.7578378112521,48.76912567886757 175.82099096174352,49.111763824068476 176.2630630186759,49.52292943227803 176.57882877299562,50.20820504275616 177.020900829928,51.51022731454577 177.4629728863947,52.40108361048624 177.39981973543763,54.18279364804039 178.22081069741398,55.75891891930951 178.4734233012423,56.512717020115815 178.91549535747617,57.33504152559908 179.6733331689611,58.29441919847159 180.05225207447074,58.5 178.59972960315645,56.44418994517764 178.2839638486039,55.34775606211042 177.6524323390331,53.977211894409265 177.39981973543763,53.086357104883064 176.57882877299562,51.92139186465647 175.88414411293343,49.93409485905431" stroke="#4dd2ff" stroke-linecap="round" stroke-linejoin="round" stroke-width="0.5"><title>2023-10-20 1.4km</title><desc>10069668027</desc></polyline><polyline fill="none" points="19.567031372571364,61.5 19.69562234613113,62.54652593983337 20.724350133445114,65.05818348564208 20.981532080331817,66.5930820464855 23.103283141739666,71.75590443867259 23.296169602079317,72.45358098583529 23.424760575639084,73.50009484484326 23.681942522292957,74.1977701097494 25.225034203380346,76.36056017078226 26.06087553082034,78.03497489710571 26.575239424360916,79.7093866688665 27.02530783158727,80.61635847843718 27.282489778473973,82.01169803109951 27.60396721214056,82.70936703804182 28.439808539347723,84.87213770003291 28.56839951267466,85.70933792338474 29.790013760561123,88.22093416174175 30.11149119399488,88.5 30.3043776541017,88.5 30.432968627428636,88.43023354804609 30.368673140881583,88.36046709102811 29.082763406680897,86.7558371637715 28.504104026127607,84.8023709814297 27.282489778473973,82.56983327766648 27.089603318367153,81.66286333516473 26.961012344807386,80.1279891502927" stroke="#4dd2ff" stroke-linecap="round" stroke-linejoin="round" stroke-width="0.5"><title>2023-10-19 1.3km</title><desc>10064004415</desc></polyline><polyline fill="none" points="56.41170686017722,61.5 59.05879083368927,64.94682409497909 58.88231856934726,67.43619421566837 59.235263098962605,69.92556195752695 60.47056895401329,74.32982213282958 62.23529160209,77.20216171373613 64.00001425109804,82.18087615049444 67.52945955004543,87.92553482879885 68.0588763449341,88.5 68.58829313889146,88.30851162341423 66.29415369499475,86.01065000984818 62.05881933774799,77.77662924979813 60.99998574797064,74.13833271479234 57.99995724391192,67.81917402287945" stroke="#4dd2ff" stroke-linecap="round" stroke-linejoin="round" stroke-width="0.5"><title>2023-10-18 1.0km</title><desc>10058081424</desc></polyline><polyline fill="none" points="95.2873885538429,63.13637109496631 96.79542421642691,71.93184924288653 100.75401783175766,82.36365937138908 103.39308024197817,87.88636654615402 104.52410698961467,88.5 105.08962036296725,88.5 105.46662927884609,87.6818220319692 104.14709807466716,86.0454653725028 102.45055795367807,83.38638374954462 100.18850445840508,78.47730330657214 99.24598216917366,75.61366904852912 95.2873885538429,67.63638664479367 94.91037963796407,66.40911039849743 94.53337072208524,61.5" stroke="#4dd2ff" stroke-linecap="round" stroke-linejoin="round" stroke-width="0.5"><title>2023-10-17 1.0km</title><desc>10051702317</desc></polyline><polyline fill="none" points="131.4707556432113,62.12307983194478 133.38480147067457,65.44616994820535 136.25587021093816,72.9231084161438 137.78710687346756,75.83080136496574 139.50974811799824,81.2307946155779 141.6151985283941,86.63077754480764 142.38081685919315,88.08461733930744 143.33783977292478,88.5 143.52924435585737,88.29230867745355 143.33783977292478,87.6692346171476 141.23238936252892,84.55386225529946 138.36132062226534,77.4923388492316 136.25587021093816,73.13080086861737 134.5332289673388,65.03078389703296 133.57620605360717,61.5" stroke="#4dd2ff" stroke-linecap="round" stroke-linejoin="round" stroke-width="0.5"><title>2023-10-16 1.0km</title><desc>10046279660</desc></polyline><polyline fill="none" points="169.47053427621722,61.5 170.26045795157552,63.21429314976558 171.0503816260025,67.07144905114546 172.82770989462733,73.07145919674076 175.19748091883957,76.71431647357531 177.96221378073096,87.00000656116754 178.9496183739975,88.07143052481115 180.3319848049432,88.5 180.5294657247141,88.07143052481115 180.3319848049432,86.78572172136046 177.7647328618914,83.14287703181617 176.3823664309457,78.85717156808823 174.80251908209175,76.28574526542798 171.0503816260025,67.50002161413431 169.6680151950568,61.5" stroke="#4dd2ff" stroke-linecap="round" stroke-linejoin="round" stroke-width="0.5"><title>2023-10-15 1.0km</title><desc>10039610121</desc></polyline><polyline fill="none" points="19.381348106078804,93.45968570327386 19.983346522785723,99.77421970525756 21.58867563586682,104.34680488915183 23.59533702675253,107.17744932160713 24.799333861097693,111.09679868584499 28.210658225230873,117.19355405378155 29.0133227808401,118.06451808195561 30.016653477214277,118.5 30.618651893921196,118.06451808195561 30.618651893921196,117.41129508474842 26.605329112149775,114.1451779382769 23.996669304557145,109.354866275331 22.99333860911429,105.21777269500308 20.585344940423965,99.77421970525756 19.381348106078804,95.20162746263668 19.582014245912433,92.37097158376127 19.381348106078804,91.5" stroke="#4dd2ff" stroke-linecap="round" stroke-linejoin="round" stroke-width="0.5"><title>2023-10-14 1.0km</title><desc>10033377496</desc></polyline><polyline fill="none" points="56.37809242028743,91.92857338255271 59.93274843506515,96.21430373727344 60.327710214070976,99.4285973678343 63.68488533888012,109.7143131652847 66.8445795737207,117.2142913856078 67.83198402170092,118.5 68.62190758064389,118.5 68.62190758064389,117.85714576416649 68.42442669067532,117.2142913856078 66.6470986828208,115.92858220404014 64.67228978779167,112.28573644324206 62.50000000093132,105.42860266123898 58.55038220714778,96.64287642599083 57.95793953817338,93.64286628039554 56.97053508926183,91.5" stroke="#4dd2ff" stroke-linecap="round" stroke-linejoin="round" stroke-width="0.5"><title>2023-10-13 1.0km</title><desc>10028006924</desc></polyline><polyline fill="none" points="94.20672580506653,91.5 96.10615996737033,93.97329326206818 97.24582046456635,96.03436931292526 97.43576388154179,98.71376591431908 97.24582046456635,101.59926708275452 99.33519804291427,105.92751326714642 101.80446245428175,112.52292317361571 104.2737268647179,117.0572584841866 104.84355711378157,117.88168229884468 105.79327419400215,118.5 105.79327419400215,117.46947042178363 103.70389661658555,114.79009174578823 101.80446245428175,111.49239139887504 99.33519804291427,104.69087218213826 97.81565071363002,102.01148129324429 97.05587704852223,99.74430238734931" stroke="#4dd2ff" stroke-linecap="round" stroke-linejoin="round" stroke-width="0.5"><title>2023-10-12 1.0km</title><desc>10021974100</desc></polyline><polyline fill="none" points="134.34325277712196,95.328374392353 135.0860168300569,99.35823639691807 134.900325817056,100.97017953987233 136.57154493406415,106.4104806468822 137.8713820260018,108.82838878338225 139.17121911793947,113.26121482742019 141.02812924887985,117.69403370190412 141.39951127488166,118.09701688028872 142.3279663408175,118.5 142.1422753278166,117.69403370190412 140.09967418387532,112.4552469891496 137.8713820260018,108.6268965199124 134.900325817056,101.77615075535141 134.15756176412106,99.15674343751743 133.78617973811924,95.328374392353 132.6720336591825,91.5" stroke="#4dd2ff" stroke-linecap="round" stroke-linejoin="round" stroke-width="0.5"><title>2023-10-10 1.0km</title><desc>10009069592</desc></polyline><polyline fill="none" points="170.42599410098046,94.87501476355828 171.70671575237066,98.44855520920828 172.98743740469217,103.21326844790019 175.73184094484895,109.16914817341603 177.92736377660185,116.71324363560416 179.20808542892337,118.5 179.57400590088218,117.90441467636265 179.75696613732725,115.72060069977306 178.47624448500574,111.94855421641842 175.73184094484895,107.18385639088228 172.62151693273336,98.44855520920828 171.70671575237066,94.47795442165807 170.24303386360407,91.5" stroke="#4dd2ff" stroke-linecap="round" stroke-linejoin="round" stroke-width="0.5"><title>2023-10-09 1.0km</title><desc>10003389142</desc></polyline><polyline fill="none" points="19.502682130783796,121.5 20.852900555357337,123.17442605248652 22.203118979930878,126.31397224590182 22.974672365002334,132.59305424662307 25.867997559718788,138.87212239811197 28.37554606050253,145.98838289501145 29.532876138575375,148.08139730314724 30.497317869216204,148.5 30.497317869216204,146.82558884308673 26.832439290359616,140.9651420377195 22.010230633430183,129.24421223602258 20.08134717028588,121.70930331083946" stroke="#4dd2ff" stroke-linecap="round" stroke-linejoin="round" stroke-width="0.5"><title>2023-10-08 1.0km</title><desc>9996447828</desc></polyline><polyline fill="none" points="59.03421115130186,126.90002223243937 59.92287495918572,130.17860173550434 62.58886638097465,137.31431943108328 63.47753018885851,140.40002917940728 66.32125437259674,147.5357190708164 67.2099181804806,148.5 67.38765094149858,147.7285752852913 67.38765094149858,146.95715034380555 64.01072847377509,140.97859935299493 62.41113361995667,137.507176396437 59.56740943621844,129.02145649609156 58.67874562833458,124.58572835079394 57.61234905850142,121.5" stroke="#4dd2ff" stroke-linecap="round" stroke-linejoin="round" stroke-width="0.5"><title>2023-10-07 1.0km</title><desc>9989974159</desc></polyline><polyline fill="none" points="97.79409733694047,129.5425824597478 99.20587504096329,134.138332715258 100.26470831874758,136.43620480247773 102.38237487524748,145.43618429102935 102.91179151460528,147.15958107053302 103.9706247933209,148.5 104.85298585798591,148.5 105.20593028329313,147.73404641030356 105.02945807110518,147.15958107053302 102.91179151460528,144.0957637843676 100.79412495810539,139.50003109802492 100.08823610655963,136.43620480247773 96.38231963291764,127.43619421636686 95.85290299355984,124.18086357903667 94.79406971577555,121.5" stroke="#4dd2ff" stroke-linecap="round" stroke-linejoin="round" stroke-width="0.5"><title>2023-10-06 1.0km</title><desc>9984428862</desc></polyline><polyline fill="none" points="131.6872590482235,121.5 134.74659639131278,129.68855017540045 136.7861546203494,136.54921020008624 140.25340360961854,145.18034092569724 141.68109436891973,148.05737900245003 142.29296183772385,148.5 143.10878513008356,148.5 143.3127409517765,148.05737900245003 142.70087348297238,146.95082622091286 140.25340360961854,143.40985458972864 138.82571284938604,140.53281207149848 136.37824297416955,134.1147842395585 135.3584638601169,130.79510930157267 132.50308233965188,125.48362178634852 132.50308233965188,123.49181155208498" stroke="#4dd2ff" stroke-linecap="round" stroke-linejoin="round" stroke-width="0.5"><title>2023-10-04 1.0km</title><desc>9971682885</desc></polyline><polyline fill="none" points="170.91344425641,124.65329869673587 171.8215677542612,127.80659368471242 172.7296912530437,129.9744818371255 173.45619005244225,133.324850987643 176.90705934725702,140.22265664255247 177.08868404757231,142.58761449554004 178.1784322457388,147.317523942329 178.54168164543808,147.90876203635707 179.63142984360456,148.5 179.63142984360456,146.52920628082938 177.2703087478876,142.19345499831252 175.63568644970655,138.4489368838258 174.72756295092404,136.67521595116705 173.8194394512102,134.1131725325249 172.0031924545765,130.36864313133992 171.27669365517795,127.41243201401085 170.91344425641,124.45621763705276 170.36857015639544,121.5" stroke="#4dd2ff" stroke-linecap="round" stroke-linejoin="round" stroke-width="0.5"><title>2023-10-03 1.0km</title><desc>9965060084</desc></polyline><polyline fill="none" points="20.064607836306095,152.61570723657496 22.532303918153048,160.64878723444417 22.943586599081755,164.2190381870605 24.383075979538262,166.0041620878037 25.411282680928707,168.68184597115032 27.2620547413826,175.5991850697901 28.70154412277043,177.83058141567744 29.72975082322955,178.5 29.935392163693905,178.27686048811302 29.318468143232167,176.49174380488694 27.056413401849568,172.25208747433499 23.354869278147817,163.32647584215738 21.092814536765218,156.63224989292212 20.681531856767833,151.5" stroke="#4dd2ff" stroke-linecap="round" stroke-linejoin="round" stroke-width="0.5"><title>2023-10-02 1.0km</title><desc>9958643020</desc></polyline><polyline fill="none" points="58.220193058252335,156.25201799208298 58.61831463407725,158.1960231375415 62.997651970013976,168.56402885355055 65.187320638448,175.2600131004583 66.38168536685407,177.63600384257734 67.5760500933975,178.5 67.77511088270694,178.28400098439306 67.5760500933975,177.42000476364046 63.59483433328569,171.37202410562895 59.81267936248332,162.08402956835926 58.021132269874215,156.4680186274927 57.22488911822438,151.5" stroke="#4dd2ff" stroke-linecap="round" stroke-linejoin="round" stroke-width="0.5"><title>2023-10-01 1.0km</title><desc>9952075403</desc></polyline><polyline fill="none" points="96.12336484435946,155.41306045162492 97.74614235199988,158.7391573113855 98.46737679839134,162.0652500144206 99.00830263458192,165.19568640808575 101.71293181274086,172.82610969012603 104.05694376770407,177.71739515918307 105.13879543822259,178.5 105.49941266234964,177.9130463907495 101.89324042480439,172.43480646470562 100.27046291809529,168.71742294891737 99.72953708283603,166.76090322365053 97.2052165158093,161.282640340738 95.76274762116373,155.2174075653311 94.50058733765036,151.5" stroke="#4dd2ff" stroke-linecap="round" stroke-linejoin="round" stroke-width="0.5"><title>2023-09-30 1.0km</title><desc>9945549317</desc></polyline><polyline fill="none" points="133.319725911133,151.5 135.11127194948494,154.52401233883575 135.70845396257937,156.90001985034905 137.30093932896852,160.788027996663 138.09718201402575,166.62003056914546 138.69436402618885,168.34802910801955 141.08309207763523,174.18001667386852 141.68027408979833,177.8520029061474 142.07839543186128,178.2840009846259 142.6755774449557,178.5 142.87463811598718,178.06800195295364 139.29154603928328,171.58802362973802 136.9028179878369,165.97203085501678 136.10657530464232,162.73203014023602 133.319725911133,156.25201799278148 132.12536188494414,152.36400384292938" stroke="#4dd2ff" stroke-linecap="round" stroke-linejoin="round" stroke-width="0.5"><title>2023-09-28 1.0km</title><desc>9933629332</desc></polyline><polyline fill="none" points="169.72187129873782,154.56819501379505 171.22990807145834,159.88639168953523 174.05747701786458,163.77275975467637 175.94252298213542,170.72729958500713 178.58158733230084,175.43183137779124 179.33560571912676,178.09091104590334 180.08962410409003,178.5 180.46663329843432,177.8863665459212 180.08962410409003,177.06818839721382 178.58158733230084,175.02274197200313 174.2459816141054,166.2273052087985 171.9839264564216,160.09093751222827 169.533366702497,151.5" stroke="#4dd2ff" stroke-linecap="round" stroke-linejoin="round" stroke-width="0.5"><title>2023-09-27 1.0km</title><desc>9927137811</desc></polyline><polyline fill="none" points="27.242982050171122,181.5 26.704666358185932,184.09618973411852 26.166350666200742,185.5889953733422 25.747660683467984,187.40632057009498 23.295333641814068,192.5337536331499 22.039263694081455,194.67558394157095 21.80001227511093,195.5842376536457 21.919637984363362,196.29817920009373 22.218702257843688,197.33663860021625 23.115895077819005,199.54336076957406 23.41495935129933,200.12749218509998 23.773836479289457,201.16594708053162 24.97009357251227,202.65872385265538 25.50840926473029,203.8269821741269 26.10653781169094,204.7356264666305 26.5850406489335,206.03368811903056 27.302794905146584,207.0072331057745 28.1999877251219,208.5" stroke="#4dd2ff" stroke-linecap="round" stroke-linejoin="round" stroke-width="0.5"><title>2023-09-26 1.0km</title><desc>9920397094</desc></polyline><polyline fill="none" points="62.37390754465014,181.5 61.1970446286723,185.4223337789299 60.02018171316013,187.52032117464114 58.9273804333061,188.8885719126556 58.33894897578284,189.98317141644657 58.086764065083116,191.07776995445602 58.170825701672584,192.44601676869206 58.59113388648257,193.5406131336931 59.599873528350145,195.09128966438584 60.02018171316013,196.64196425664704 60.86079808138311,198.64871673414018 62.457969181705266,200.65546596597414 65.14794156095013,206.12840191822033 66.91323593491688,208.5" stroke="#4dd2ff" stroke-linecap="round" stroke-linejoin="round" stroke-width="0.5"><title>2023-09-25 1.0km</title><desc>9914573673</desc></polyline><polyline fill="none" points="101.99057334009558,181.5 101.3270488937851,182.50801337813027 101.19434400415048,183.012019678019 101.3270488937851,183.6600273968652 101.39340133825317,184.30803468660451 100.0663524447009,186.75605835590977 99.73459022119641,188.412070897175 99.2701231087558,189.63607836677693 96.48332043224946,194.53209294530097 96.41696798754856,195.1080930508324 96.68237776588649,196.26009224599693 97.41225465759635,197.4120900858543 97.81036932580173,198.42008708399953 98.40754132764414,199.4280830444768 98.73930355114862,200.43607796734432 99.60188533202745,201.80406941764522 100.26540977857076,203.1720589569304 100.99528667051345,203.964052027266 101.19434400415048,204.6840451717144 101.65881111705676,205.2600393060129 102.65409778733738,206.98801967676263 103.38397467858158,207.78000966098625 103.58303201268427,208.5" stroke="#4dd2ff" stroke-linecap="round" stroke-linejoin="round" stroke-width="0.5"><title>2023-09-24 1.0km</title><desc>9907510217</desc></polyline><polyline fill="none" points="138.50656214216724,181.5 137.94288734253496,182.37379601283465 137.54026248585433,183.2475913829403 137.29868757212535,184.38352440390736 137.2181626004167,185.86897363874596 135.84923808695748,187.70393777731806 135.04398837359622,189.80103618034627 134.31926363147795,190.84958399401512 133.83611380308867,192.2476463066414 133.75558883138,193.73308571160305 135.44661323027685,198.0146359608043 136.09081300115213,199.32531152490992 138.1844622567296,202.64568315108772 139.07023694179952,204.83013310923707 140.19758654106408,206.22817897505593 140.84178631193936,207.36409003043082 141.24441116908565,208.5" stroke="#4dd2ff" stroke-linecap="round" stroke-linejoin="round" stroke-width="0.5"><title>2023-09-23 1.0km</title><desc>9901004991</desc></polyline><polyline fill="none" points="176.03675957862288,181.5 175.49918053811416,182.50001147040166 174.96160149760544,184.2500294201309 173.73284940514714,186.8333843119908 172.50409731268883,188.58339557045838 171.4289392316714,191.50007499643834 171.3521422254853,193.08341211284278 171.5057362378575,194.0000799590489 173.04167635319754,197.66674392909044 173.27206737035885,198.75007419561734 173.5792553932406,199.3334054487059 174.65441347425804,200.66673290001927 175.49918053811416,202.3333900080761 176.19035359006375,204.08337733428925 177.34230867680162,205.75002941855928 178.64785777498037,208.5" stroke="#4dd2ff" stroke-linecap="round" stroke-linejoin="round" stroke-width="0.5"><title>2023-09-22 1.0km</title><desc>9895405405</desc></polyline><polyline fill="none" points="26.431277183815837,211.5 26.211080694105476,212.29646981041878 25.770687714684755,212.77435141563183 24.816502925474197,214.5265821639914 24.44950877595693,215.80093001882778 23.348526326939464,218.58856072451454 22.174145048018545,220.97795276233228 21.440156748518348,222.73017024050932 21.219960258807987,223.60627791646402 21.219960258807987,224.1638006141875 21.440156748518348,224.96026111306855 21.88054972840473,225.75672102649696 22.83473451761529,228.22574303630972 23.788919306360185,229.97794879041612 24.30271111568436,231.2522784678731 25.256895904894918,232.8451884566457 25.844086544122547,233.5619971874985 26.28447952400893,234.83632264879998 27.45886080292985,236.90709832619177 28.780039741192013,238.5" stroke="#4dd2ff" stroke-linecap="round" stroke-linejoin="round" stroke-width="0.5"><title>2023-09-21 1.0km</title><desc>9889267953</desc></polyline><polyline fill="none" points="65.24893571832217,211.5 64.28539123968221,214.3907022520434 63.7186003702227,216.6663544435287 62.8117349781096,218.57297718862537 61.734832325717434,221.77117332391208 59.8644224551972,225.2768742701155 59.35431067249738,227.18347738828743 59.41098975925706,227.61400007159682 59.751064281212166,228.5365479324828 60.48789241211489,230.13562848127913 60.941325108055025,231.4886942502926 62.07490684767254,233.08776915556518 62.75505589158274,234.37932742462726 63.1518095000647,235.30186782439705 63.60524219577201,236.10140201455215 64.34207032690756,236.65492523700232 65.24893571832217,238.00798046117416 65.30561480554752,238.25399026670493 65.64568932750262,238.5" stroke="#4dd2ff" stroke-linecap="round" stroke-linejoin="round" stroke-width="0.5"><title>2023-09-20 1.0km</title><desc>9882714971</desc></polyline><polyline fill="none" points="102.23875454021618,211.5 101.66307480144314,212.95760326780146 100.57567973900586,216.15044065576512 100.51171532343142,217.19158094731392 100.12792883068323,217.74685529997805 99.68017792282626,218.7879938307451 99.4243202607613,219.75972209015163 98.91260493732989,221.0784945563646 97.44142338237725,223.4383985819295 97.05763688962907,224.82657466462115 96.92970805894583,226.07593139371602 97.05763688962907,227.32528646918945 97.44142338237725,228.71345683612162 97.88917429000139,229.68517487851204 99.29639142984524,232.11446560826153 100.0,233.08618014963577 100.63964415411465,234.8213822004036 101.27928830869496,235.9319098389824 101.91893246280961,236.83421258348972 102.62254103273153,237.52829103090335 103.07029194105417,238.5" stroke="#4dd2ff" stroke-linecap="round" stroke-linejoin="round" stroke-width="0.5"><title>2023-09-19 1.0km</title><desc>9876194288</desc></polyline><polyline fill="none" points="137.30125993303955,211.5 136.82428377168253,212.27636650414206 136.02932350384071,213.82909797120374 135.79083542292938,214.8642511406215 134.35990693978965,217.3658675296465 133.24696256406605,219.69495385535993 133.00847448362038,220.5575772470329 133.08797051059082,221.50646224501543 133.56494667194784,222.7141329512233 134.28041091328487,224.0080644710688 134.91637912811711,225.81956620130222 135.79083542292938,227.71732691884972 136.74478774517775,229.44256127101835 137.61924404045567,230.56396223965567 138.65269238920882,232.28919240599498 139.2886606035754,234.27320396108553 140.40160497976467,235.99842867336702 140.95807716762647,237.5511287454283 141.99152551637962,238.5" stroke="#4dd2ff" stroke-linecap="round" stroke-linejoin="round" stroke-width="0.5"><title>2023-09-18 1.0km</title><desc>9870505463</desc></polyline><polyline fill="none" points="175.27130160154775,211.5 174.8837278848514,212.2570180289331 174.34112468129024,214.78040784032783 173.64349199132994,215.95798784750514 173.33343301760033,216.88322843116475 171.62810866395012,219.6589456924121 171.00799071695656,221.1729704508325 170.6204170002602,222.51876855356386 170.93047597352415,223.4440038310131 172.63580032717437,227.14493745734217 173.48846250446513,228.4907285349327 174.10858045099303,229.92062982002972 175.11627211468294,231.2664176323451 175.65887531870976,232.1916458348278 176.35650800867006,234.37854588468326 179.37958299927413,238.5" stroke="#4dd2ff" stroke-linecap="round" stroke-linejoin="round" stroke-width="0.5"><title>2023-09-16 1.0km</title><desc>9856514700</desc></polyline><polyline fill="none" points="24.626766085624695,241.5 23.797357386443764,244.02002519892994 22.719126077834517,245.73003934358712 20.479722590185702,250.05006443581078 20.39678171975538,251.0400680389721 20.479722590185702,252.21007126464974 20.977367809507996,253.3800733720418 21.806776508688927,254.64007439091802 22.5532443379052,256.3500736991409 23.880298256408423,258.6000691493973 25.539115655235946,261.75005583208986 25.704997394699603,262.9200488211354 26.285583483986557,263.3700458268868 26.94911044370383,264.27003934187815 28.027341752313077,266.07002438721247 29.188513930886984,267.06001503393054 29.43733654078096,267.69000866496935 29.60321828071028,268.5" stroke="#4dd2ff" stroke-linecap="round" stroke-linejoin="round" stroke-width="0.5"><title>2023-09-15 1.0km</title><desc>9850671982</desc></polyline><polyline fill="none" points="63.18640634138137,241.5 61.81359365861863,245.13106798846275 60.26917939027771,247.3655661904486 59.582773049362004,248.57591773686 58.55316353728995,251.18282483052462 58.29576115915552,252.11386177758686 58.29576115915552,252.85869084193837 58.55316353728995,253.78972655686084 59.582773049362004,256.58282959414646 60.52658176841214,258.4448948628269 62.84320317115635,262.44832591875456 63.787011890206486,264.21727979544085 63.958613475319,265.2414098577574 64.64501981670037,265.89312855689786 65.76043012179434,267.662077621324 66.70423884084448,268.5" stroke="#4dd2ff" stroke-linecap="round" stroke-linejoin="round" stroke-width="0.5"><title>2023-09-14 1.0km</title><desc>9844236351</desc></polyline><polyline fill="none" points="95.70887012802996,241.5 96.20281313476153,241.90199097857112 96.38804176240228,242.3039817797835 96.51152751408517,243.1749612404965 96.88198476913385,243.91194321104558 97.12895627273247,245.98888919339515 97.12895627273247,246.99386135616805 97.00547052081674,247.52984605642268 97.12895627273247,248.1998264885624 97.43767065182328,249.00380235683406 97.31418490037322,249.67378170514712 97.37592777609825,250.00877119449433 97.99335653474554,251.14773453748785 98.54904241743498,252.8226780439727 99.04298542416655,253.76064506283728 99.66041418281384,254.63161357294302 100.33958581718616,255.23459128447575 100.52481444459409,255.6365762039204 100.71004307223484,256.5075429211138 101.20398607919924,257.378508805763 101.75967196188867,258.9864436365897 102.50058647198603,260.3933842863189 102.8710437270347,261.59933168569114 103.05627235467546,262.604286632617 103.42672960995696,263.40824979246827 104.10590124432929,265.6191448243917 105.03204438230023,267.36105834465707 105.09378725825809,267.62904474453535 105.03204438230023,267.8300344927702 104.29112987197004,268.5 104.66158712701872,268.2320138561772 104.84681575465947,267.8300344927702 104.97030150610954,267.4950515545206 104.90855863061734,267.0260752339964 104.53810137556866,266.55709867202677 103.42672960995696,264.14521539898124 102.8710437270347,262.33629875513725 101.69792908593081,259.7234128191485 101.14224320324138,257.17751675244654 100.83352882415056,256.44054551096633 99.66041418281384,254.8996037162142 98.48729954147711,252.6886826767004 97.93161365855485,250.87974329077406 97.74638503161259,249.67378170514712 97.25244202418253,248.40082052216167 96.26455601071939,246.25688187853666 96.01758450712077,245.25190890283557 95.1531842451077,243.6439498362015 94.96795561769977,242.7729708236875 94.90621274174191,241.70099551149178" stroke="#4dd2ff" stroke-linecap="round" stroke-linejoin="round" stroke-width="0.5"><title>2023-09-13 1.0km</title><desc>9837636972</desc></polyline></svg>