<?xml version="1.0" encoding="utf-8" ?>
<svg baseProfile="full" height="300mm" version="1.1" viewBox="0,0,200,300" width="200mm" xmlns="http://www.w3.org/2000/svg" xmlns:ev="http://www.w3.org/2001/xml-events" xmlns:xlink="http://www.w3.org/1999/xlink"><defs /><rect fill="#222222" height="300" width="200" x="0" y="0" /><text fill="#FFFFFF" style="font-size:12px; font-family:Arial; font-weight:bold;" x="10" y="20">Over 1km Runs</text><text fill="#FFFFFF" style="font-size:4px; font-family:Arial" x="10" y="280">ATHLETE</text><text fill="#FFFFFF" style="font-size:9px; font-family:Arial" x="10" y="290">Jiakai</text><text fill="#FFFFFF" style="font-size:4px; font-family:Arial" x="120" y="280">STATISTICS</text><text fill="#FFFFFF" style="font-size:3px; font-family:Arial" x="120" y="285">Number: 6</text><text fill="#FFFFFF" style="font-size:3px; font-family:Arial" x="120" y="290">Weekly: 3.0</text><text fill="#FFFFFF" style="font-size:3px; font-family:Arial" x="141" y="285">Total: 6.1 km</text><text fill="#FFFFFF" style="font-size:3px; font-family:Arial" x="141" y="290">Avg: 1.0 km</text><text fill="#FFFFFF" style="font-size:3px; font-family:Arial" x="167" y="285">Min: 1.0 km</text><text fill="#FFFFFF" style="font-size:3px; font-family:Arial" x="167" y="290">Max: 1.0 km</text><polyline fill="none" points="55.97001210786402,34.0 54.4348661378026,37.88694204739295 51.535145970992744,46.40117508196272 51.364574196748435,49.17754919268191 50.34114354941994,50.65828079986386 49.14714112877846,53.43465021508746 48.46485402993858,56.02592557366006 47.100279834121466,59.54265215015039 43.17712901998311,65.8357295517344 42.15369837265462,69.5375324387569 41.812554824166,72.8691503831651 42.15369837265462,76.20076391776092 43.17712901998311,79.90255156275816 44.371131440624595,82.4937996759545 48.12371048051864,88.97190828854218 50.00000000093132,91.56314706569538 51.70571774523705,96.19035253440961 53.411435490474105,99.15175957046449 55.117153234779835,101.55790022248402 56.993442754261196,103.40877608233131 58.18744517676532,106.0" stroke="#4dd2ff" stroke-linecap="round" stroke-linejoin="round" stroke-width="0.5"><title>2023-09-19 1.0km</title><desc>9876194288</desc></polyline><polyline fill="none" points="149.47002648748457,34.0 148.19809005782008,36.07031067763455 146.07819600962102,40.210927923209965 145.44222779478878,42.97133637499064 141.62641850672662,49.64231341215782 138.65856683813035,55.853210280649364 138.0225986232981,58.153539325343445 138.23458802886307,60.68389931996353 139.50652445852757,63.904354536673054 141.41442910209298,67.35483858920634 143.11034434195608,72.18550987006165 145.44222779478878,77.24620511685498 147.98610065318644,81.84683005604893 150.31798410788178,84.83723263908178 153.0738463709131,89.43784641590901 154.76976160984486,94.72854389622808 157.73761327937245,99.32914312882349 159.2215391136706,103.46967665455304 161.9774013776332,106.0" stroke="#4dd2ff" stroke-linecap="round" stroke-linejoin="round" stroke-width="0.5"><title>2023-09-18 1.0km</title><desc>9870505463</desc></polyline><polyline fill="none" points="50.72347093839198,114.0 49.68994102720171,116.01871474389918 48.24299915134907,122.74775424110703 46.38264531083405,125.88796759350225 45.555821381509304,128.35527581651695 41.00828977115452,135.75718851317652 39.35464191343635,139.7945878689643 38.32111200131476,143.38338280958124 39.147935930639505,145.85067688277923 43.695467540062964,155.71983321965672 45.96923334617168,159.30860942648724 47.62288120388985,163.12167952000163 50.31005897372961,166.71044701966457 51.75700085051358,169.17772222636268 53.61735469009727,175.0094556924887 61.67888799961656,186.0" stroke="#4dd2ff" stroke-linecap="round" stroke-linejoin="round" stroke-width="0.5"><title>2023-09-16 1.0km</title><desc>9856514700</desc></polyline><polyline fill="none" points="149.0047095613554,114.0 146.79295303020626,120.72006719745696 143.91766954027116,125.28010491630994 137.94592690560967,136.80017182906158 137.72475125268102,139.44018143741414 137.94592690560967,142.5601900392212 139.27298082504421,145.68019565893337 141.48473735619336,149.0401983759366 143.47531823348254,153.60019653104246 147.0141286831349,159.60018439847045 151.43764174636453,168.00014888565056 151.87999305222183,171.12013018969446 153.4282226236537,172.3201222049538 155.19762784894556,174.72010491183028 158.07291133888066,179.5200650326442 161.1693704817444,182.16004009055905 161.83289744146168,183.84002310666256 162.2752487482503,186.0" stroke="#4dd2ff" stroke-linecap="round" stroke-linejoin="round" stroke-width="0.5"><title>2023-09-15 1.0km</title><desc>9850671982</desc></polyline><polyline fill="none" points="51.83041691035032,194.0 48.16958308964968,203.68284796900116 44.05114504136145,209.6415098409634 42.22072813101113,212.86911396472715 39.475102765485644,219.8208662145771 38.78869642410427,222.30363140674308 38.78869642410427,224.28984224516898 39.475102765485644,226.77260415139608 42.22072813101113,234.22087891749106 44.73755138274282,239.18638630071655 50.915208456106484,249.86220244993456 53.432031706906855,254.57941278768703 53.889635934494436,257.3104262871202 55.72005284484476,259.0483428181615 58.69448032416403,263.765540323453 61.21130357589573,266.0" stroke="#4dd2ff" stroke-linecap="round" stroke-linejoin="round" stroke-width="0.5"><title>2023-09-14 1.0km</title><desc>9844236351</desc></polyline><polyline fill="none" points="138.5569870080799,194.0 139.8741683596745,195.07197594293393 140.36811136640608,196.143951412756 140.69740670453757,198.46656330791302 141.6852927180007,200.43184856278822 142.34388339426368,205.97037118230946 142.34388339426368,208.65029694978148 142.0145880561322,210.07958948379382 142.34388339426368,211.86620396957733 143.16712173819542,214.01013961830176 142.83782640099525,215.79675121372566 143.00247406959534,216.69005651865155 144.64895075932145,219.7272920999676 146.13077978044748,224.19380811718293 147.4479611311108,226.6950535008218 149.0944378208369,229.01763619459234 150.9055621791631,230.6255767585244 151.39950518589467,231.697536543943 151.89344819355756,234.02011445630342 153.2106295451522,236.34269014862366 154.6924585653469,240.63051636423916 156.66823059227318,244.3823580967728 157.65611660573632,247.59821782866493 158.1500596133992,250.2780976870563 159.13794562686235,252.42199944658205 160.94906998518854,258.3177195317112 163.41878501977772,262.96282225241885 163.58343268930912,263.67745265201665 163.41878501977772,264.2134253140539 161.4430129919201,266.0 162.43089900631458,265.28537028306164 162.92484201304615,264.2134253140539 163.2541373502463,263.320137478644 163.08948968257755,262.06953395716846 162.1016036681831,260.818929792149 159.13794562686235,254.38724106387235 157.65611660573632,249.56346334703267 154.52781089674681,242.59576751780696 153.04598187562078,235.80671133985743 152.22274353168905,233.84145469591022 149.0944378208369,229.73227657657117 145.96613211091608,223.83648713794537 144.48430308979005,219.0126487754751 143.9903600839898,215.79675121372566 142.67317873146385,212.4021880591754 140.03881602920592,206.68501834268682 139.38022535294294,204.0050904075615 137.07515798788518,199.7171995632816 136.58121498022228,197.39458886324428 136.4165673116222,194.53598803072236" stroke="#4dd2ff" stroke-linecap="round" stroke-linejoin="round" stroke-width="0.5"><title>2023-09-13 1.0km</title><desc>9837636972</desc></polyline></svg>