<?xml version="1.0" encoding="utf-8" ?>
<svg baseProfile="full" height="300mm" version="1.1" viewBox="0,0,200,300" width="200mm" xmlns="http://www.w3.org/2000/svg" xmlns:ev="http://www.w3.org/2001/xml-events" xmlns:xlink="http://www.w3.org/1999/xlink"><defs /><rect fill="#222222" height="300" width="200" x="0" y="0" /><text fill="#FFFFFF" style="font-size:12px; font-family:Arial; font-weight:bold;" x="10" y="20">Over 1km Runs</text><text fill="#FFFFFF" style="font-size:4px; font-family:Arial" x="10" y="280">ATHLETE</text><text fill="#FFFFFF" style="font-size:9px; font-family:Arial" x="10" y="290">Jiakai</text><text fill="#FFFFFF" style="font-size:4px; font-family:Arial" x="120" y="280">STATISTICS</text><text fill="#FFFFFF" style="font-size:3px; font-family:Arial" x="120" y="285">Number: 64</text><text fill="#FFFFFF" style="font-size:3px; font-family:Arial" x="120" y="290">Weekly: 5.8</text><text fill="#FFFFFF" style="font-size:3px; font-family:Arial" x="141" y="285">Total: 66.3 km</text><text fill="#FFFFFF" style="font-size:3px; font-family:Arial" x="141" y="290">Avg: 1.0 km</text><text fill="#FFFFFF" style="font-size:3px; font-family:Arial" x="167" y="285">Min: 1.0 km</text><text fill="#FFFFFF" style="font-size:3px; font-family:Arial" x="167" y="290">Max: 1.5 km</text><polyline fill="none" points="19.314261282794178,33.60000988165848 19.78821517433971,34.971442989772186 20.894107586704195,40.800024702679366 23.57984630484134,49.02858584676869 24.843723348341882,52.457144420361146 25.317677238956094,52.800000000046566 25.949615760706365,52.800000000046566 26.107600391842425,52.457144420361146 25.791631130501628,50.74286576360464 24.053800196386874,45.771450532600284 19.472245912998915,35.828588273143396 17.892399609088898,31.200000000186265" stroke="#4dd2ff" stroke-linecap="round" stroke-linejoin="round" stroke-width="0.5"><title>2023-11-23 1.0km</title><desc>10265414399</desc></polyline><polyline fill="none" points="46.10752255516127,36.06762531620916 46.247706070076674,38.197207790915854 46.808440127409995,41.54369010857772 49.0513763576746,47.93241404858418 49.752293929457664,50.97465661051683 50.87376204458997,52.800000000046566 51.71486313082278,52.800000000046566 51.574679616838694,51.887328506447375 50.032660957891494,47.93241404858418 48.77100932877511,45.95495398482308 46.94862364185974,40.326788074104115 44.84587092557922,34.54649363504723 44.28513686871156,31.20000000006985" stroke="#4dd2ff" stroke-linecap="round" stroke-linejoin="round" stroke-width="0.5"><title>2023-11-21 1.0km</title><desc>10253878272</desc></polyline><polyline fill="none" points="71.67520384350792,37.03359808633104 72.40170264197513,41.76353083085269 75.45299759786576,49.489065213128924 76.76069543603808,52.32700962922536 77.19659471558407,52.800000000046566 77.48719423543662,52.642336554825306 77.63249399513006,52.32700962922536 77.05129495589063,49.804392555728555 74.43589927954599,44.12849329179153 73.41880096122622,41.13287373445928 71.82050360320136,34.983957323478535 70.94870504410937,33.40730924997479 70.36750600486994,31.20000000006985" stroke="#4dd2ff" stroke-linecap="round" stroke-linejoin="round" stroke-width="0.5"><title>2023-11-20 1.0km</title><desc>10248671423</desc></polyline><polyline fill="none" points="96.1545084938407,33.00000800623093 98.26575873233378,37.58183999871835 98.86897308658808,42.32729890511837 100.52781255915761,46.090931533137336 102.18665203265846,50.83637229795568 102.94066997524351,51.98182200116571 103.8454915061593,52.800000000046566 103.69468791782856,51.49091505771503 101.13102691341192,44.78184264502488 99.47218744084239,38.727296523051336 97.81334796734154,34.80001455673482 96.90852643642575,31.20000000006985" stroke="#4dd2ff" stroke-linecap="round" stroke-linejoin="round" stroke-width="0.5"><title>2023-11-19 1.0km</title><desc>10242265034</desc></polyline><polyline fill="none" points="121.80197449494153,50.44551390595734 122.74535101279616,47.47680837207008 123.12270162068307,46.760223329183646 123.78306518262252,46.3507459963439 126.99054534407333,45.94126854289789 129.34898663917556,45.42942155664787 130.1036878535524,44.815204924787395 130.57537611294538,44.200988022144884 131.14140202384442,41.641748010064475 130.95272671990097,40.82279021234717 131.33007732685655,40.20857154822443 131.04706437140703,35.49955278390553 130.8583890683949,34.885331770870835 130.7640514159575,33.042667104979046 130.57537611294538,31.916593053145334 129.53766194311902,31.609481789870188 128.68862307677045,32.22370424831752 128.87729838024825,31.916593053145334 129.06597368372604,32.22370424831752 127.83958421042189,31.609481789870188 127.74524655891582,31.20000000006985 127.46223360300064,31.404740909929387 127.6509089069441,31.302370458841324 126.99054534407333,32.121333857416175 127.08488299604505,32.01896345906425 129.06597368372604,33.042667104979046 128.59428542479873,33.45214835263323 127.83958421042189,33.75925920938607 126.0471688262187,34.06636999826878 125.95283117424697,33.65688893117476 126.42451943317428,33.45214835263323 127.08488299604505,33.55451864562929 129.06597368372604,31.609481789870188 131.80176558578387,31.711852218490094 131.5187526308,31.50711135356687 131.14140202384442,31.404740909929387 130.8583890683949,36.318513713311404 130.95272671990097,37.751694180537015 131.23573967488483,39.49198276386596 131.42441497929394,42.460705325822346 131.42441497929394,43.48440129298251 131.14140202384442,44.508096507168375 130.57537611294538,45.1223132746527 125.8584935227409,45.634160373709165 123.68872753111646,46.043637917609885 122.55667570978403,46.86259264359251 121.23594858404249,48.705239015980624 120.48124736966565,51.36683502572123 120.19823441421613,52.800000000046566" stroke="#4dd2ff" stroke-linecap="round" stroke-linejoin="round" stroke-width="0.5"><title>2023-11-18 1.0km</title><desc>10236386505</desc></polyline><polyline fill="none" points="147.59222913486883,31.20000000006985 150.72032458754256,36.60002084262669 151.85781384306028,40.61145590234082 152.28437231387943,42.925741871469654 153.13748925551772,44.31431222811807 155.83902623690665,52.18286022823304 156.40777086513117,52.800000000046566 156.40777086513117,52.18286022823304 155.83902623690665,51.41143525834195 154.27497851056978,46.78287948272191 153.4218615689315,45.24002528889105 153.13748925551772,42.61717055668123 151.85781384306028,39.3771690079011 150.43595227366313,36.29144859779626 150.29376611672342,34.594300437602215" stroke="#4dd2ff" stroke-linecap="round" stroke-linejoin="round" stroke-width="0.5"><title>2023-11-17 1.0km</title><desc>10231268371</desc></polyline><polyline fill="none" points="174.14721154607832,31.896777267567813 176.23413862474263,34.85807836661115 176.71573718171567,38.86453866888769 178.16053285170346,42.000024614157155 180.40799278300256,50.36130018369295 181.85278845299035,52.800000000046566 181.69225560035557,51.40645755524747 180.56852563563734,49.141949334181845 179.76586137432605,46.877438948722556 178.48159855604172,41.4774439111352 175.91307292040437,36.077436567051336 175.11040865909308,33.638719538459554 174.62881010212004,31.199999999953434" stroke="#4dd2ff" stroke-linecap="round" stroke-linejoin="round" stroke-width="0.5"><title>2023-11-16 1.0km</title><desc>10225818993</desc></polyline><polyline fill="none" points="18.254233033396304,55.432258849730715 19.324452166445553,59.612915229285136 21.036802779883146,64.25808249553666 23.39128487277776,68.67098507285118 24.247460179030895,72.15485117421485 25.74576696474105,75.17419868800789 27.24407375138253,76.80000000004657 23.39128487277776,69.60001640883274 21.67893426027149,64.25808249553666 16.755926247686148,55.199999999953434" stroke="#4dd2ff" stroke-linecap="round" stroke-linejoin="round" stroke-width="0.5"><title>2023-11-15 1.0km</title><desc>10219684298</desc></polyline><polyline fill="none" points="44.18342350795865,57.79850741662085 46.12912917137146,60.23460534319747 46.42846850398928,63.32032552699093 48.67351350001991,68.67972402321175 50.020540496334434,73.22708224784583 51.367567494511604,76.6375947734341 51.96624615974724,76.80000000004657 51.81657649297267,74.85113648837432 49.870870830491185,72.25264913064893 49.122522498480976,69.97897018573713 47.925165167078376,68.51731819927227 47.47615616861731,66.73085334745701 45.23111117258668,62.183481750427745 44.48276284057647,58.93535344977863 44.03375384118408,55.20000000006985" stroke="#4dd2ff" stroke-linecap="round" stroke-linejoin="round" stroke-width="0.5"><title>2023-11-14 1.0km</title><desc>10213806154</desc></polyline><polyline fill="none" points="71.1150622102432,58.17392605240457 72.26903732679784,62.5565463474486 75.44246889511123,70.6956743884366 76.16370334243402,73.35653642215766 77.60617223801091,76.33043711271603 78.03891290677711,76.80000000004657 77.17343156971037,75.23478997324128 75.15397511608899,70.38263157790061 75.0097282268107,69.13045987405349 73.56725933169946,65.68698389187921 71.40355598926544,61.773936242214404 70.5380746521987,59.11305973213166 69.96108709368855,55.20000000006985" stroke="#4dd2ff" stroke-linecap="round" stroke-linejoin="round" stroke-width="0.5"><title>2023-11-13 1.0km</title><desc>10208522228</desc></polyline><polyline fill="none" points="97.58714276179671,57.654556011315435 99.09517853613943,62.23638665652834 100.9048214647919,66.00002620217856 101.96044650673866,70.41820363525767 103.01607154775411,73.52728620090056 104.37330374494195,76.47272883669939 104.97651805356145,76.80000000004657 105.27812520880252,76.14545762503985 103.61928585730493,72.87274286395404 102.71446439344436,69.2727510688128 99.39678569044918,66.16366255970206 97.58714276179671,63.545479394029826 97.28553560655564,60.7636564061977 94.72187479119748,55.20000000006985" stroke="#4dd2ff" stroke-linecap="round" stroke-linejoin="round" stroke-width="0.5"><title>2023-11-12 1.0km</title><desc>10202270880</desc></polyline><polyline fill="none" points="122.7318393709138,59.22986689361278 126.29710551165044,67.2895784585271 127.48552755825222,71.31942313129548 128.6739496057853,74.54329353687353 129.41671338491142,75.99403367296327 130.15947716403753,76.80000000004657 130.30802992079407,76.1552269620588 128.97105511743575,72.12539117690176 126.44565826747566,68.25674185552634 123.77170866169035,62.13136646989733 122.7318393709138,57.77911566500552 121.69197007920593,55.199999999953434" stroke="#4dd2ff" stroke-linecap="round" stroke-linejoin="round" stroke-width="0.5"><title>2023-11-11 1.0km</title><desc>10196068378</desc></polyline><polyline fill="none" points="149.99192998278886,58.421064116759226 152.43653696030378,65.81054893764667 154.70652915351093,71.87370014633052 155.75421785749495,75.85263537522405 156.45267699379474,76.80000000004657 156.8019065624103,76.42105419188738 156.27806221041828,74.14737817179412 153.6588404495269,68.27370583638549 151.0396186877042,62.7789679847192 147.54732300620526,57.28421841817908 147.1980934375897,55.200000000186265" stroke="#4dd2ff" stroke-linecap="round" stroke-linejoin="round" stroke-width="0.5"><title>2023-11-10 1.0km</title><desc>10191120477</desc></polyline><polyline fill="none" points="172.98549491818994,55.85954506357666 175.5687248101458,57.83817909145728 177.08827180415392,60.476355079212226 177.54413590300828,61.465670274687 177.54413590300828,62.94964224973228 179.2156375972554,68.06109375844244 179.82345639448613,71.02902799856383 181.03909399081022,74.32672810310032 181.34300338942558,75.97557633731049 182.1027768868953,76.80000000004657 182.55864098481834,76.63511529180687 183.01450508274138,75.97557633731049 181.34300338942558,74.82138270081487 178.60781879909337,70.86414286575746 175.41677011083812,62.12521349603776 174.6569966133684,57.17863460932858 173.89722311589867,55.20000000006985" stroke="#4dd2ff" stroke-linecap="round" stroke-linejoin="round" stroke-width="0.5"><title>2023-11-09 1.0km</title><desc>10185506531</desc></polyline><polyline fill="none" points="17.786310373805463,80.9343146024039 19.384606439154595,84.08761028537992 19.96580500761047,85.66425638832152 21.854700358118862,89.76353083131835 22.581198568921536,92.6014854706591 22.435898927040398,90.86718030378688 22.726498211733997,91.97082920849789 23.307696780189872,96.22775537776761 24.615393561311066,100.16934614919592 25.196592130698264,100.80000000004657 25.9230903419666,100.48467309738044 26.213689626194537,100.0116826571757 24.615393561311066,98.5927107098978 23.452996423002332,96.70074665301945 22.726498211733997,94.65111704124138 21.7094007153064,91.18250862043351 20.25640429276973,89.13287373469211 18.6581082274206,85.66425638832152 18.2222093003802,83.1416220671963 18.36750894226134,79.98832499329001 18.0769096580334,79.20000000006985" stroke="#4dd2ff" stroke-linecap="round" stroke-linejoin="round" stroke-width="0.5"><title>2023-11-08 1.0km</title><desc>10179505859</desc></polyline><polyline fill="none" points="47.02557692071423,91.13289520586841 51.89769231854007,100.80000000004657 52.17609891248867,100.64895183767658 51.48008242761716,98.98742131562904 50.22725275345147,96.87274416279979 49.392032970674336,94.75806483370252 47.721593405585736,92.9454808193259 47.16478021815419,91.88813940575346 46.747170326299965,88.26296471385285 46.46876373235136,87.20562089059968 44.79832416726276,84.33568491286132 43.82390108751133,79.19999999995343" stroke="#4dd2ff" stroke-linecap="round" stroke-linejoin="round" stroke-width="0.5"><title>2023-11-06 1.0km</title><desc>10167691585</desc></polyline><polyline fill="none" points="71.92346751550213,85.26045393233653 72.92593147419393,87.12520549283363 76.64936903119087,95.6719624272082 78.22466953657568,100.48921019840054 78.511087810155,100.80000000004657 78.79750608326867,100.80000000004657 78.79750608326867,100.33381528023165 77.65183298895136,97.84749503829516 76.64936903119087,96.4489386169007 76.50615989463404,95.6719624272082 75.64690507343039,94.73959062295035 73.2123497473076,90.54391241364647 70.34816701058298,83.24030455225147 69.20249391626567,79.20000000006985" stroke="#4dd2ff" stroke-linecap="round" stroke-linejoin="round" stroke-width="0.5"><title>2023-11-05 1.1km</title><desc>10161301187</desc></polyline><polyline fill="none" points="95.96108798496425,79.19999999995343 98.84602513816208,85.61741418659221 100.14424685761333,91.25220093794633 102.1637028651312,95.1652385185007 102.88493715366349,98.29566340509336 103.60617144219577,100.80000000004657 104.03891201503575,100.33043711283244 103.89466515695676,99.8608741221251 102.01945600751787,96.41740902571473 101.87520914943889,95.94784517178778 100.14424685761333,93.28698137763422 99.42301256908104,90.78263594501186 97.54780341964215,87.33915616502054 97.11506284633651,84.36523732787464 96.2495817001909,81.23479195870459" stroke="#4dd2ff" stroke-linecap="round" stroke-linejoin="round" stroke-width="0.5"><title>2023-11-04 1.0km</title><desc>10155501797</desc></polyline><polyline fill="none" points="131.795107210055,82.48102882597595 130.1573595199734,80.293676919071 129.14951478829607,79.61012892005965 127.1338253240101,79.20000000006985 125.24411645112559,79.3367096503498 122.59852402890101,80.56709604803473 121.46469870535657,81.66077216272242 120.45685397321358,83.71141314262059 120.20489279041067,85.3519242979819 119.82695101574063,90.82028435869142 120.07891219854355,96.56204510864336 120.33087338181213,97.3822951966431 121.59067929722369,99.43291883275378 123.10244639543816,100.52658384700771 125.62205822579563,100.80000000004657 127.88970887288451,99.84304328868166 130.0313789290376,97.24558687384706 130.66128188651055,96.01521151571069 131.54314602725208,92.05066315515433 131.54314602725208,88.90636016707867 132.17304898425937,84.80508740677033 132.04706839332357,83.30128512752708 130.66128188651055,81.66077216272242 129.5274565629661,80.840515137068 126.88186414074153,79.61012892005965 125.49607763392851,79.61012892005965 122.47254343796521,80.56709604803473 121.0867569311522,81.79748163174372 120.20489279041067,83.43799447582569 119.95293160714209,84.53166890132707 120.20489279041067,89.04306910349987 119.95293160714209,91.09370193921495" stroke="#4dd2ff" stroke-linecap="round" stroke-linejoin="round" stroke-width="0.5"><title>2023-11-03 1.0km</title><desc>10152446508</desc></polyline><polyline fill="none" points="147.52956787124276,79.19999999995343 148.7104367353022,81.76272166171111 149.72261004708707,86.33900378202088 151.4095655689016,89.63392170099542 153.93999884836376,96.2237444575876 154.4460855042562,97.32204655488022 155.2895632646978,100.25084977876395 155.79564992152154,100.80000000004657 156.47043212968856,100.80000000004657 156.47043212968856,100.43389986595139 155.2895632646978,99.88474956410937 154.78347660880536,98.60339838941582 153.6026077447459,97.50509685720317 152.7591299843043,95.12544187624007 151.57826111931354,93.29493649699725 150.22869670391083,90.54917590436526 148.7104367353022,84.87459441879764 147.69826342258602,82.49492736603133" stroke="#4dd2ff" stroke-linecap="round" stroke-linejoin="round" stroke-width="0.5"><title>2023-11-02 1.1km</title><desc>10144903556</desc></polyline><polyline fill="none" points="174.32170485937968,80.76522475562524 174.6101985955611,82.48697065818124 175.7641735416837,85.14784795034211 177.78362969774753,92.34785218513571 181.24555453751236,99.547832070617 182.25528261484578,100.80000000004657 181.6782951420173,98.92174782999791 179.51459211762995,95.63480254472233 178.36061717150733,91.40872257878073 176.91814848827198,89.37394034443423 175.18718606885523,85.61741418624297 173.74471738561988,79.20000000006985" stroke="#4dd2ff" stroke-linecap="round" stroke-linejoin="round" stroke-width="0.5"><title>2023-11-01 1.0km</title><desc>10138966680</desc></polyline><polyline fill="none" points="18.85693746805191,103.5248135945294 19.605285690166056,105.96091402857564 20.80264284554869,112.4571687191492 22.748348222114146,116.67972402344458 23.945705376565456,120.57746021717321 25.891410754062235,124.80000000004657 26.041080398485065,124.63759477273561 24.694053598679602,122.68873111752328 22.748348222114146,118.14137590187602 21.101982134394348,115.2180711774854 18.258258891291916,106.61054035718553 17.958919601514935,103.20000000006985" stroke="#4dd2ff" stroke-linecap="round" stroke-linejoin="round" stroke-width="0.5"><title>2023-10-31 1.0km</title><desc>10133123337</desc></polyline><polyline fill="none" points="44.60859697405249,105.76001119834837 45.345858502201736,109.60002234985586 45.345858502201736,111.04002478462644 46.96783386170864,113.76002678414807 51.39140302594751,123.20000735193025 52.12866455409676,124.64000078791287 52.42356916423887,124.80000000004657 49.03216613829136,118.08002297277562 47.55764308385551,113.92002679605503 45.93566772341728,110.56002407881897 43.57643083576113,103.20000000006985" stroke="#4dd2ff" stroke-linecap="round" stroke-linejoin="round" stroke-width="0.5"><title>2023-10-30 1.0km</title><desc>10127985445</desc></polyline><polyline fill="none" points="70.59501596633345,106.32633072906174 71.24982058815658,110.7316063559847 71.64270336134359,112.15266086801421 74.26192184910178,118.26318336534314 75.57153109228238,121.81580384413246 77.5359449586831,124.51579104084522 78.059788656421,124.80000000004657 78.19074958004057,124.37368654541206 77.0121012609452,122.52632715599611 75.30960924411193,118.83160308073275 72.29750798316672,113.28950372571126 71.11885966314003,109.16844518610742 70.20213319268078,107.32107126468327 70.07117226859555,104.47895409131888 69.80925041995943,103.20000000006985" stroke="#4dd2ff" stroke-linecap="round" stroke-linejoin="round" stroke-width="0.5"><title>2023-10-28 1.0km</title><desc>10115543824</desc></polyline><polyline fill="none" points="97.19840578362346,107.68001762102358 98.3780244011432,111.52002538449597 99.7050953451544,114.56002672552131 100.88471396267414,118.88002132612746 102.65414188895375,123.04000802256633 103.39140352420509,124.64000078849494 104.12866515945643,124.80000000004657 104.27611748687923,124.64000078849494 103.98121283296496,123.68000526994001 103.0964988693595,121.28001462155953 100.1474523274228,115.5200262669241 97.788215091452,109.1200213264674 96.313691820018,105.92001179850195 95.72388251218945,103.20000000006985" stroke="#4dd2ff" stroke-linecap="round" stroke-linejoin="round" stroke-width="0.5"><title>2023-10-27 1.0km</title><desc>10110442644</desc></polyline><polyline fill="none" points="123.07263622339815,106.53530821716413 125.85363181121647,115.90590850834269 126.87820913270116,118.76472762366757 127.90278645511717,120.51178188773338 129.07373196445405,123.84706337715033 129.51283653173596,124.48235450603534 130.39104566443712,124.80000000004657 130.53741385228932,124.32353174127638 130.39104566443712,123.68824056594167 128.92736377567053,121.7823659197893 126.73184094391763,117.97061158227734 124.09721354581416,110.18825892731547 122.34079527948052,107.32942846219521 121.46258614677936,103.20000000006985" stroke="#4dd2ff" stroke-linecap="round" stroke-linejoin="round" stroke-width="0.5"><title>2023-10-26 1.0km</title><desc>10104873905</desc></polyline><polyline fill="none" points="150.91814872715622,113.53046212380286 154.23582596611232,121.82609996548854 155.82254116702825,124.64347904920578 156.39952851226553,124.80000000004657 156.2552816765383,123.23478997312486 152.36061709094793,116.50437374645844 150.19691454432905,111.02611227263696 148.32170567009598,107.11305973259732 147.60047148773447,103.19999999995343" stroke="#4dd2ff" stroke-linecap="round" stroke-linejoin="round" stroke-width="0.5"><title>2023-10-25 1.0km</title><desc>10098978222</desc></polyline><polyline fill="none" points="174.0042563113384,103.20000000006985 173.85895654093474,104.30365490925033 174.73075516428798,107.92994561139494 175.89315332844853,110.2949145049788 176.6196521804668,113.1328737345757 177.927350115031,116.91681353189051 180.68804575363174,122.27738348336425 181.55984437698498,124.48467309772968 181.8504439177923,124.80000000004657 182.14104345906526,124.64233655459248 181.99574368819594,122.59271070978139 180.3974462132901,119.59710018231999 179.2350480495952,117.86279743816704 177.7820503441617,114.55185194103979 177.49145080335438,112.81754511699546 175.74785355757922,110.1372499933932 174.73075516428798,107.77228092565201 174.44015562301502,104.93431460228749 174.0042563113384,103.20000000006985" stroke="#4dd2ff" stroke-linecap="round" stroke-linejoin="round" stroke-width="0.5"><title>2023-10-24 1.0km</title><desc>10092835699</desc></polyline><polyline fill="none" points="19.780259357765317,130.92951216874644 21.92839546268806,138.54391241353005 22.93085897853598,140.40865931252483 24.0765315676108,145.07051936292555 25.79504045145586,148.17842035088688 26.511085820384324,148.80000000004657 25.79504045145586,148.02302540978417 24.7925769360736,145.53670480242 22.214813609607518,142.4287999299122 21.641977315302938,141.34103214519564 21.06914102099836,137.7669340533903 19.350632136687636,134.34822587575763 18.204959547612816,130.77411595988087 17.488914179615676,127.20000000006985" stroke="#4dd2ff" stroke-linecap="round" stroke-linejoin="round" stroke-width="0.5"><title>2023-10-23 1.0km</title><desc>10087395010</desc></polyline><polyline fill="none" points="41.00669401115738,127.30359870288521 41.388581027509645,127.19999999995343 44.10952601977624,127.40719739045016 45.30292294616811,127.71799336187541 45.589338208548725,127.87339129624888 46.209904610412195,128.33958489343058 46.6395275038667,128.85757741745329 47.59424504474737,130.6187491499004 48.071603815536946,132.58711234654766 48.69217021740042,133.62309076730162 48.9785854795482,134.45187240705127 49.64688775828108,135.95403664413607 50.12424652907066,137.507996277418 50.84028468490578,138.7511615161202 51.17443582415581,139.11375096417032 51.604058717843145,139.8389293004875 51.84273810312152,141.39288036490325 51.98594573419541,141.80726673663594 52.36783275054768,142.37704759970075 52.46330450498499,143.2576171181281 52.60651213605888,143.620204246894 54.70689072646201,148.5928089010995 54.99330598884262,148.79999999998836 54.99330598884262,148.54101111670025 54.563683095388114,148.12662870559143 54.08632432483137,146.9870758180623 53.60896555404179,146.00291502301116 52.32009687367827,142.01445983105805" stroke="#4dd2ff" stroke-linecap="round" stroke-linejoin="round" stroke-width="0.5"><title>2023-10-22 1.5km</title><desc>10080655811</desc></polyline><polyline fill="none" points="70.56446858961135,127.20000000001164 71.32230640063062,127.74823108949931 69.95819834037684,127.5289387020166 72.0801442116499,130.27008890907746 72.28223429480568,130.92796345928218 72.13066673255526,131.47619180753827 71.42335144220851,131.85995141166495 71.22126135905273,132.24371081811842 71.2717838799581,132.90158362674993 71.675964045804,134.49144051817711 72.13066673255526,135.64271408203058 72.63589193997905,137.39703228487633 73.54529731348157,138.98687959113158 73.69686487573199,139.58992423431482 74.25261260382831,140.57672350743087 74.60627024923451,141.0153005431057 74.65679276967421,141.2894110592897 75.01045041508041,141.61834354582243 75.2630630186759,142.16656403418165 75.6167206640821,143.2081818516017 75.97037830925547,143.92086688842392 75.91985578858294,145.3462349184556 76.57664855802432,146.6071351354476 76.7787386411801,147.21017361606937 77.13239628635347,147.86803322046762 77.73866653535515,148.63553535874235 78.04180165985599,148.79999999998836 76.87978368275799,147.1553519561421 76.62717107892968,146.27820484968834 76.12194587127306,145.18176951550413 75.91985578858294,144.46908568392973 75.2630630186759,143.53711349173682 74.70731529057957,141.94727588724345" stroke="#4dd2ff" stroke-linecap="round" stroke-linejoin="round" stroke-width="0.5"><title>2023-10-20 1.4km</title><desc>10069668027</desc></polyline><polyline fill="none" points="95.65362509805709,127.19999999995343 95.75649787695147,128.0372207518085 96.57948010670952,130.04654678847874 96.78522566426545,131.27446563716512 98.48262651334517,135.4047235508915 98.63693568157032,135.96286478859838 98.7398084604647,136.80007587582804 98.9455540177878,137.3582160877413 100.18002736265771,139.08844813657925 100.84870042465627,140.42797991767293 101.2601915395353,141.76750933506992 101.62024626531638,142.49308678269153 101.82599182263948,143.6093584248447 102.08317376975901,144.16749363043346 102.75184683129191,145.89771016000304 102.8547196101863,146.56747033866122 103.83201100840233,148.57674732932355 104.0891929550562,148.79999999998836 104.24350212328136,148.79999999998836 104.34637490171008,148.7441868383903 104.29493851261213,148.68837367277592 103.26621072529815,147.40466973098228 102.80328322085552,145.84189678513212 101.82599182263948,144.05586662207497 101.67168265464716,143.33029066812014 101.56880987575278,142.10239132016432" stroke="#4dd2ff" stroke-linecap="round" stroke-linejoin="round" stroke-width="0.5"><title>2023-10-19 1.3km</title><desc>10064004415</desc></polyline><polyline fill="none" points="121.12936548842117,127.20000000006985 123.24703266704455,129.95745927596 123.10585485538468,131.9489553726744 123.38821047870442,133.94044956599828 124.3764551631175,137.46385770628694 125.78823328157887,139.76172937103547 127.20001140097156,143.74470092041884 130.0235676402226,148.34042786306236 130.44710107613355,148.80000000004657 130.87063451157883,148.64680929866154 129.0353229562752,146.80852000799496 125.647055469919,140.22130339988507 124.79998859809712,137.31066617183387 122.39996579522267,132.25533921841998" stroke="#4dd2ff" stroke-linecap="round" stroke-linejoin="round" stroke-width="0.5"><title>2023-10-18 1.0km</title><desc>10058081424</desc></polyline><polyline fill="none" points="148.229910842143,128.5090968760196 149.436339372769,135.54547939426266 152.60321426484734,143.8909274970647 154.71446419321,148.30909323703963 155.61928559094667,148.80000000004657 156.071696289815,148.80000000004657 156.37330342270434,148.14545762562193 155.31767845898867,146.83637229795568 153.96044636238366,144.70910699968226 152.150803565979,140.7818426452577 151.39678573515266,138.49093523877673 148.229910842143,132.1091093159048 147.928303710185,131.12728831882123 147.62669657729566,127.20000000006985" stroke="#4dd2ff" stroke-linecap="round" stroke-linejoin="round" stroke-width="0.5"><title>2023-10-17 1.0km</title><desc>10051702317</desc></polyline><polyline fill="none" points="173.17660451494157,127.69846386567224 174.70784117653966,130.35693595849443 177.0046961689368,136.33848673303146 178.22968549933285,138.66464109206572 179.6077984943986,142.98463569255546 181.29215882346034,147.30462203593925 181.90465348772705,148.46769387146924 182.6702718185261,148.80000000004657 182.82339548505843,148.63384694198612 182.6702718185261,148.13538769376464 180.98591149039567,145.6430898043327 178.68905649799854,139.99387107940856 177.0046961689368,136.50464069505688 175.62658317387104,130.02462711755652 174.860964843072,127.20000000006985" stroke="#4dd2ff" stroke-linecap="round" stroke-linejoin="round" stroke-width="0.5"><title>2023-10-16 1.0km</title><desc>10046279660</desc></polyline><polyline fill="none" points="17.57642742060125,151.20000000018626 18.20836636144668,152.57143451995216 18.840305301360786,155.65715924091637 20.262167915701866,160.457167357672 22.157984734512866,163.3714531790465 24.36977102421224,171.60000524926 25.159694699570537,172.45714441989549 26.265587843954563,172.80000000004657 26.42357257939875,172.45714441989549 26.265587843954563,171.42857737722807 24.211786289699376,168.51430162554607 23.105893144384027,165.08573725470342 21.842015265487134,163.02859621262178 18.840305301360786,156.00001729140058 17.734412156045437,151.20000000018626" stroke="#4dd2ff" stroke-linecap="round" stroke-linejoin="round" stroke-width="0.5"><title>2023-10-15 1.0km</title><desc>10039610121</desc></polyline><polyline fill="none" points="43.50507848523557,152.7677485626191 43.9866772191599,157.81937576434575 45.27094050962478,161.47744391136803 46.876269621774554,163.7419594572857 47.83946708962321,166.87743894872256 50.568526580929756,171.7548432429321 51.21065822523087,172.4516144655645 52.01332278177142,172.80000000004657 52.49492151569575,172.4516144655645 52.49492151569575,171.92903606779873 49.28426329046488,169.3161423506681 47.19733544345945,165.48389302031137 46.394670887850225,162.17421815590933 44.46827595215291,157.81937576434575 43.50507848523557,154.16130197024904 43.66561139654368,151.89677726710215 43.50507848523557,151.19999999995343" stroke="#4dd2ff" stroke-linecap="round" stroke-linejoin="round" stroke-width="0.5"><title>2023-10-14 1.0km</title><desc>10033377496</desc></polyline><polyline fill="none" points="69.10247393604368,151.54285870608874 71.94619874749333,154.97144298977219 72.26216817181557,157.54287789412774 74.9479082711041,165.77145053213462 77.47566365916282,171.77143310848624 78.26558721717447,172.80000000004657 78.89752606488764,172.80000000004657 78.89752606488764,172.2857166111935 78.73954135272652,171.77143310848624 77.3176789470017,170.74286576313898 75.73783183004707,167.8285891546402 74.0,162.34288212889805 70.84030576609075,155.3143011406064 70.3663516305387,152.9142930242233 69.57642807159573,151.19999999995343" stroke="#4dd2ff" stroke-linecap="round" stroke-linejoin="round" stroke-width="0.5"><title>2023-10-13 1.0km</title><desc>10028006924</desc></polyline><polyline fill="none" points="95.36538064479828,151.20000000006985 96.88492797501385,153.17863460967783 97.79665637295693,154.82749545027036 97.94861110579222,156.9710127315484 97.79665637295693,159.2794136662269 99.46815843507648,162.74201061367057 101.44356996379793,168.01833853893913 103.41898149251938,171.64580678741913 103.87484569195658,172.3053458391223 104.63461935613304,172.80000000004657 104.63461935613304,171.97557633754332 102.9631172940135,169.83207339665387 101.44356996379793,167.1939131191466 99.46815843507648,161.75269774568733 98.25252057146281,159.609185034642 97.64470164012164,157.7954419098096" stroke="#4dd2ff" stroke-linecap="round" stroke-linejoin="round" stroke-width="0.5"><title>2023-10-12 1.0km</title><desc>10021974100</desc></polyline><polyline fill="none" points="123.4746022215113,154.26269951381255 124.068813463673,157.48658911755774 123.92026065289974,158.77614363189787 125.25723594706506,163.12838451750576 126.29710562061518,165.06271102663595 127.33697529416531,168.6089718618896 128.82250339910388,172.15522696147673 129.11960901971906,172.47761350416113 129.862373072654,172.80000000004657 129.71382026188076,172.15522696147673 128.07973934616894,167.9641975912964 126.29710562061518,164.90151721588336 123.92026065289974,159.42092060425784 123.32604941073805,157.32539474999066 123.02894379012287,154.26269951381255 122.13762692734599,151.20000000006985" stroke="#4dd2ff" stroke-linecap="round" stroke-linejoin="round" stroke-width="0.5"><title>2023-10-10 1.0km</title><desc>10009069592</desc></polyline><polyline fill="none" points="148.34079527948052,153.90001181093976 149.3653726009652,156.75884416745976 150.3899499224499,160.57061475841329 152.5854727551341,165.33531853882596 154.34189102053642,171.37059490859974 155.3664683420211,172.80000000004657 155.65920471958816,172.32353174127638 155.8055729083717,170.5764805598883 154.780995586887,167.55884337320458 152.5854727551341,163.74708511296194 150.09721354581416,156.75884416745976 149.3653726009652,153.58236353751272 148.194427090697,151.20000000006985" stroke="#4dd2ff" stroke-linecap="round" stroke-linejoin="round" stroke-width="0.5"><title>2023-10-09 1.0km</title><desc>10003389142</desc></polyline><polyline fill="none" points="173.60214570444077,151.20000000006985 174.68232044391334,152.53954084217548 175.7624951833859,155.05117779690772 176.3797378912568,160.07444339734502 178.69439804647118,165.09769791853614 180.70043684728444,170.79070631600916 181.62630091048777,172.46511784254108 182.3978542946279,172.80000000004657 182.3978542946279,171.46047107467894 179.46595143154263,166.7721136303153 175.60818450618535,157.39536978886463 174.06507773511112,151.36744264874142" stroke="#4dd2ff" stroke-linecap="round" stroke-linejoin="round" stroke-width="0.5"><title>2023-10-08 1.0km</title><desc>9996447828</desc></polyline><polyline fill="none" points="19.22736892104149,179.5200177859515 19.938299966976047,182.14288138831034 22.07109310477972,187.85145554482006 22.78202415117994,190.3200233434327 25.057003498077393,196.02857525658328 25.76793454401195,196.80000000004657 25.91012075310573,196.18286022811662 25.91012075310573,195.56572027492803 23.20858277892694,190.78287948237266 21.92890689568594,188.00574111705646 19.653927548322827,181.21716519689653 18.94299650238827,177.66858268063515 18.08987924689427,175.20000000006985" stroke="#4dd2ff" stroke-linecap="round" stroke-linejoin="round" stroke-width="0.5"><title>2023-10-07 1.0km</title><desc>9989974159</desc></polyline><polyline fill="none" points="46.23527786973864,181.6340659679845 47.364700032863766,185.31066617229953 48.21176665555686,187.14896384219173 49.90589990047738,194.3489474329399 50.329433212056756,195.72766485647298 51.17649983474985,196.80000000004657 51.8823886862956,196.80000000004657 52.164744226727635,196.18723712838255 52.02356645744294,195.72766485647298 50.329433212056756,193.27661102765705 48.63529996667057,189.60002487862948 48.07058888534084,187.14896384219173 45.10585570661351,179.94895537314005 44.682322395034134,177.3446908632759 43.835255772806704,175.20000000006985" stroke="#4dd2ff" stroke-linecap="round" stroke-linejoin="round" stroke-width="0.5"><title>2023-10-06 1.0km</title><desc>9984428862</desc></polyline><polyline fill="none" points="69.34980723820627,175.19999999995343 71.79727711249143,181.7508401402738 73.42892369627953,187.23936816002242 76.20272288657725,194.14427274046466 77.34487549494952,196.44590320182033 77.83436947036535,196.80000000004657 78.48702810332179,196.80000000004657 78.65019276086241,196.44590320182033 78.1606987863779,195.56066097668372 76.20272288657725,192.7278836716432 75.0605702791363,190.42624965729192 73.10259437933564,185.29182739160024 72.28677108790725,182.63608744111843 70.00246587116271,178.38689742889255 70.00246587116271,176.793449241668" stroke="#4dd2ff" stroke-linecap="round" stroke-linejoin="round" stroke-width="0.5"><title>2023-10-04 1.0km</title><desc>9971682885</desc></polyline><polyline fill="none" points="96.73075540456921,177.72263895755168 97.45725420350209,180.2452749478398 98.18375300196931,181.9795854698168 98.7649520416744,184.65988079027738 101.52564747771248,190.17812531418167 101.67094723787159,192.0700915964553 102.54274579696357,195.8540191539796 102.8333453158848,196.32700962922536 103.70514387497678,196.80000000004657 103.70514387497678,195.22336502477992 101.81624699803069,191.7547639987897 100.50854915985838,188.75914950715378 99.78205036045983,187.3401727611199 99.05555156106129,185.29053802613635 97.6025539636612,182.29491450509522 97.0213549239561,179.92994561127853 96.73075540456921,177.56497410975862 96.29485612502322,175.20000000006985" stroke="#4dd2ff" stroke-linecap="round" stroke-linejoin="round" stroke-width="0.5"><title>2023-10-03 1.0km</title><desc>9965060084</desc></polyline><polyline fill="none" points="122.05168626923114,176.09256578912027 124.02584313414991,182.51902978750877 124.35486927907914,185.37523054960184 125.50646078400314,186.8033296703361 126.32902614492923,188.94547677692026 127.80964379385114,194.47934805578552 128.9612352978438,196.26446513272822 129.7838006587699,196.80000000004657 129.94831373076886,196.6214883904904 129.454774514772,195.19339504395612 127.64513072185218,191.801669979468 124.68389542307705,184.66118067363277 122.87425162922591,179.30579991429113 122.54522548615932,175.19999999995343" stroke="#4dd2ff" stroke-linecap="round" stroke-linejoin="round" stroke-width="0.5"><title>2023-10-02 1.0km</title><desc>9958643020</desc></polyline><polyline fill="none" points="148.57615444716066,179.00161439389922 148.8946517072618,180.5568185101729 152.39812157675624,188.85122308298014 154.14985651057214,194.20801048050635 155.1053482927382,196.10880307410844 156.06084007490426,196.80000000004657 156.2200887054205,196.62720078765415 156.06084007490426,195.93600381095894 152.8758674673736,191.09761928464286 149.85014348942786,183.66722365492024 148.4169058157131,179.174414902227 147.7799112945795,175.20000000018626" stroke="#4dd2ff" stroke-linecap="round" stroke-linejoin="round" stroke-width="0.5"><title>2023-10-01 1.0km</title><desc>9952075403</desc></polyline><polyline fill="none" points="174.8986918758601,178.3304483613465 176.19691388169304,180.99132584920153 176.7739014388062,183.6522000116529 177.2066421075724,186.15654912649188 179.37034545000643,192.26088775217067 181.24555501388386,196.1739161274163 182.11103635048494,196.80000000004657 182.39953012997285,196.33043711271603 179.51459234021604,191.94784517178778 178.2163703343831,188.97393835918047 177.7836296656169,187.40872257889714 175.76417321292683,183.02611227263696 174.6101980963722,178.17392605240457 173.60046987002715,175.20000000006985" stroke="#4dd2ff" stroke-linecap="round" stroke-linejoin="round" stroke-width="0.5"><title>2023-09-30 1.0km</title><desc>9945549317</desc></polyline><polyline fill="none" points="18.65578072797507,199.19999999995343 20.089017558842897,201.61920987116173 20.566763169132173,203.52001588023268 21.840751462616026,206.63042239728384 22.477745610289276,211.29602445522323 22.95549122057855,212.67842328641564 24.86647366080433,217.34401333890855 25.344219271093607,220.28160232468508 25.66271634493023,220.62720078765415 26.140461955219507,220.80000000004657 26.29971049167216,220.4544015622232 23.433236830867827,215.27041890379041 21.522254389710724,210.7776246839203 20.885260242968798,208.18562411214225 18.65578072797507,203.00161439413205 17.70028950739652,199.89120307425037" stroke="#4dd2ff" stroke-linecap="round" stroke-linejoin="round" stroke-width="0.5"><title>2023-09-28 1.0km</title><desc>9933629332</desc></polyline><polyline fill="none" points="43.777497039176524,201.6545560109662 44.983926456421614,205.90911335172132 47.2459816141054,209.0182078036014 48.7540183858946,214.581839667866 50.86526986584067,218.345465102233 51.46848457492888,220.4727288366994 52.07169928308576,220.80000000004657 52.37330663762987,220.3090932368068 52.07169928308576,219.65455071767792 50.86526986584067,218.01819357764907 47.396785290911794,210.98184416710865 45.5871411645785,206.07275000982918 43.62669336237013,199.20000000006985" stroke="#4dd2ff" stroke-linecap="round" stroke-linejoin="round" stroke-width="0.5"><title>2023-09-27 1.0km</title><desc>9927137811</desc></polyline><polyline fill="none" points="75.79438564018346,199.19999999995343 75.36373308650218,201.2769517872366 74.9330805328209,202.4711962986621 74.59812854672782,203.92505645600613 72.63626691349782,208.027002906485 71.6314109552186,209.74046715319855 71.44000982004218,210.46739012288162 71.53571038739756,211.03854336001677 71.77496180613525,211.86931088013807 72.4927160621155,213.63468861562433 72.73196748108603,214.10199374804506 73.019069183385,214.93275766435545 73.97607485787012,216.1269790820661 74.40672741178423,217.06158573925495 74.88523024925962,217.78850117325783 75.2680325191468,218.82695049518952 75.84223592397757,219.60578648454975 76.55999017995782,220.79999999998836" stroke="#4dd2ff" stroke-linecap="round" stroke-linejoin="round" stroke-width="0.5"><title>2023-09-26 1.0km</title><desc>9920397094</desc></polyline><polyline fill="none" points="99.89912603562698,199.20000000001164 98.95763570303097,202.33786702319048 98.01614537020214,204.0162569397944 97.14190434664488,205.11085753014777 96.6711591805797,205.9865371331689 96.4694112520665,206.86221596354153 96.53666056110524,207.95681341498857 96.87290710909292,208.83249050704762 97.67989882268012,210.07303173147375 98.01614537020214,211.3135714053642 98.68863846478052,212.91897338739363 99.96637534513138,214.52437277277932 102.11835324857384,218.90272153465776 103.5305887479335,220.79999999998836" stroke="#4dd2ff" stroke-linecap="round" stroke-linejoin="round" stroke-width="0.5"><title>2023-09-25 1.0km</title><desc>9914573673</desc></polyline><polyline fill="none" points="127.59245867212303,199.20000000001164 127.06163911474869,200.00641070248093 126.95547520322725,200.40961574245011 127.06163911474869,200.92802191746887 127.1147210705094,201.44642774929525 126.05308195552789,203.40484668471618 125.7876721767243,204.72965671774 125.41609848686494,205.70886269339826 123.1866563456133,209.62567435624078 123.13357438985258,210.08647444064263 123.34590221266262,211.00807379680919 123.92980372603051,211.92967206868343 124.24829546036199,212.73606966715306 124.72603306197561,213.54246643558145 124.9914428407792,214.34886237385217 125.6815082654357,215.44325553410454 126.21232782257721,216.5376471655327 126.79622933617793,217.17124162177788 126.95547520322725,217.74723613733659 127.32704889331944,218.20803144481033 128.1232782297302,219.5904157414334 128.70717974286526,220.22400772874244 128.8664256099146,220.79999999998836" stroke="#4dd2ff" stroke-linecap="round" stroke-linejoin="round" stroke-width="0.5"><title>2023-09-24 1.0km</title><desc>9907510217</desc></polyline><polyline fill="none" points="152.8052497135941,199.19999999995343 152.3543098741211,199.8990368102095 152.03220998868346,200.59807310631732 151.838950057514,201.50681952305604 151.7745300801471,202.69517891091527 150.679390469566,204.1631502218661 150.03519069892354,205.84082894423045 149.45541090494953,206.6796671951306 149.0688910423778,207.7981170452549 149.00447106501088,208.98646856920095 150.35729058436118,212.4117087686318 150.87265040096827,213.46024921990465 152.54756980529055,216.1165465207887 153.25618955329992,217.86410648730816 154.15806923247874,218.98254318005638 154.6734290495515,219.89127202425152 154.99552893498912,220.79999999998836" stroke="#4dd2ff" stroke-linecap="round" stroke-linejoin="round" stroke-width="0.5"><title>2023-09-23 1.0km</title><desc>9901004991</desc></polyline><polyline fill="none" points="178.82940766238607,199.20000000001164 178.39934443007223,200.00000917632133 177.9692811977584,201.40002353605814 176.9862795236986,203.466707449581 176.00327784963883,204.8667164563667 175.14315138501115,207.20005999715067 175.0817137802951,208.46672969026258 175.2045889897272,209.2000639672042 176.43334108195268,212.1333951432607 176.617653895868,213.00005935650552 176.86340431426652,213.4667243589647 177.72353077912703,214.53338631999213 178.39934443007223,215.86671200639103 178.95228287158534,217.26670186739648 179.8738469411619,218.60002353484742 180.9182862197049,220.79999999998836" stroke="#4dd2ff" stroke-linecap="round" stroke-linejoin="round" stroke-width="0.5"><title>2023-09-22 1.0km</title><desc>9895405405</desc></polyline><polyline fill="none" points="23.145021746866405,223.19999999995343 22.968864555004984,223.83717584831174 22.616550171747804,224.2194811324589 21.853202340193093,225.62126573116984 21.55960702057928,226.6407440150506 20.678821061272174,228.87084857962327 19.739316038321704,230.78236220986582 19.152125398861244,232.18413619237253 18.975968206999823,232.88502233318286 18.975968206999823,233.33104049135 19.152125398861244,233.96820889046649 19.504439782351255,234.60537682118593 20.267787613905966,236.58059442898957 21.031135444995016,237.98235903232126 21.442168892594054,239.0018227742985 22.205516723915935,240.27615076530492 22.67526923539117,240.8495977499988 23.02758361888118,241.8690581190167 23.967088642064482,243.5256786608952 25.024031793000177,244.79999999998836" stroke="#4dd2ff" stroke-linecap="round" stroke-linejoin="round" stroke-width="0.5"><title>2023-09-21 1.0km</title><desc>9889267953</desc></polyline><polyline fill="none" points="50.19914857461117,223.19999999995343 49.42831299151294,225.51256180164637 48.974880296038464,227.3330835548113 48.249387982301414,228.85838175087702 47.387865860480815,231.41693865915295 45.891537964111194,234.22149941610405 45.4834485379979,235.74678191059502 45.528791807359084,236.09120005724253 45.800851424690336,236.82923834602116 46.390313929645345,238.10850278503494 46.75306008616462,239.1909554002341 47.65992547781207,240.47021532442886 48.20404471294023,241.50346193969017 48.521447599865496,242.241494259506 48.884193756617606,242.88112161163008 49.473656261339784,243.3239401896135 50.19914857461117,244.40638436889276 50.244491844205186,244.60319221339887 50.51655146176927,244.79999999998836" stroke="#4dd2ff" stroke-linecap="round" stroke-linejoin="round" stroke-width="0.5"><title>2023-09-20 1.0km</title><desc>9882714971</desc></polyline><polyline fill="none" points="75.79100363212638,223.20000000001164 75.33045984106138,224.36608261422953 74.46054379106499,226.9203525246121 74.40937225869857,227.75326475786278 74.10234306450002,228.19748423999408 73.74414233816788,229.03039506456116 73.53945620870218,229.80777767213294 73.13008395000361,230.86279564508004 71.95313870580867,232.7507188655436 71.64610951161012,233.86125973169692 71.5437664471101,234.86074511497281 71.64610951161012,235.860229175305 71.95313870580867,236.9707654688973 72.31133943214081,237.7481399027747 73.43711314396933,239.69157248659758 74.0,240.46894411969697 74.51171532319859,241.85710576031124 75.02343064686283,242.7455278711859 75.53514597029425,243.46737006679177 76.0980328260921,244.02263282472268 76.45623355265707,244.79999999998836" stroke="#4dd2ff" stroke-linecap="round" stroke-linejoin="round" stroke-width="0.5"><title>2023-09-19 1.0km</title><desc>9876194288</desc></polyline><polyline fill="none" points="99.84100794629194,223.20000000001164 99.45942701748572,223.82109320326708 98.82345880288631,225.0632783769979 98.6326683384832,225.89140091248555 97.48792555183172,227.89269402367063 96.5975700514391,229.75596308422973 96.40677958680317,230.44606179761468 96.47037640865892,231.20516979601234 96.85195733746514,232.17130636097863 97.42432873044163,233.20645157678518 97.93310330249369,234.6556529609952 98.6326683384832,236.1738615350332 99.39583019609563,237.5540490167914 100.09539523231797,238.4511697916896 100.92215391132049,239.83135392481927 101.4309284829069,241.41856316884514 102.32128398376517,242.79874293867033 102.76646173396148,244.04090299631935 103.59322041319683,244.79999999998836" stroke="#4dd2ff" stroke-linecap="round" stroke-linejoin="round" stroke-width="0.5"><title>2023-09-18 1.0km</title><desc>9870505463</desc></polyline><polyline fill="none" points="126.2170412815176,223.19999999995343 125.90698230802082,223.8056144231232 125.47289974521846,225.82432627223898 124.91479359311052,226.7663902780041 124.66674641426653,227.50658274488524 123.30248693120666,229.7271565538831 122.80639257398434,230.93837636063108 122.49633360025473,232.0150148428511 122.74438077909872,232.75520306476392 124.10864026192576,235.71594996581553 124.7907700035721,236.79258282791125 125.28686436102726,237.9365038559772 126.09301769197918,239.01313410582952 126.52710025501437,239.75331666780403 127.08520640688948,241.5028367077466 129.50366639974527,244.79999999998836" stroke="#4dd2ff" stroke-linecap="round" stroke-linejoin="round" stroke-width="0.5"><title>2023-09-16 1.0km</title><desc>9856514700</desc></polyline><polyline fill="none" points="151.70141286822036,223.19999999995343 151.03788590896875,225.21602015919052 150.17530086194165,226.58403147483477 148.38377807172947,230.04005154868355 148.31742537557147,230.83205443120096 148.38377807172947,231.76805701170815 148.78189424728043,232.7040586976218 149.44542120676488,233.7120595127344 150.0425954698585,235.08005895931274 151.1042386048939,236.88005531951785 152.4312925238628,239.40004466567189 152.5639979154803,240.33603905688506 153.02846678695641,240.69603666145122 153.55928835459054,241.41603147354908 154.4218734013848,242.85601950978162 155.35081114433706,243.64801202714443 155.54986923234537,244.1520069320104 155.6825746241957,244.79999999998836" stroke="#4dd2ff" stroke-linecap="round" stroke-linejoin="round" stroke-width="0.5"><title>2023-09-15 1.0km</title><desc>9850671982</desc></polyline><polyline fill="none" points="178.5491250732448,223.20000000001164 177.45087492698804,226.10485439072363 176.21534351236187,227.89245295227738 175.6662184393499,228.86073418945307 174.84253082983196,230.94625986437313 174.63660892727785,231.69108942203457 174.63660892727785,232.28695267351577 174.84253082983196,233.03178124543047 175.6662184393499,235.26626367523568 176.42126541491598,236.75591589027317 178.2745625367388,239.958660734992 179.0296095123049,241.3738238363294 179.16689078020863,242.19312788615935 179.71601585345343,242.71450284548337 180.6083440973889,244.12966209702427 181.36339107272215,244.79999999998836" stroke="#4dd2ff" stroke-linecap="round" stroke-linejoin="round" stroke-width="0.5"><title>2023-09-14 1.0km</title><desc>9844236351</desc></polyline><polyline fill="none" points="18.567096102284268,247.19999999995343 18.962250507669523,247.52159278281033 19.110433409688994,247.84318542375695 19.20922201103531,248.53996899235062 19.50558781507425,249.1295545687899 19.70316501799971,250.79111135465791 19.70316501799971,251.59508908487624 19.604376416420564,252.02387684507994 19.70316501799971,252.5598611907917 19.950136521365494,253.2030418853974 19.85134792001918,253.73902536404785 19.900742220692337,254.00701695558382 20.394685227423906,254.91818762995536 20.83923393371515,256.2581424351083 21.234388339100406,257.0085160502349 21.728331346064806,257.70529085828457 22.271668653469533,258.18767302751075 22.419851555489004,258.5092609630665 22.568034457508475,259.2060343368212 22.96318886312656,259.9028070445638 23.407737569184974,261.1891549092252 24.000469177262858,262.31470742897363 24.29683498153463,263.279465348518 24.4450178835541,264.08342930604704 24.741383687825873,264.72659983392805 25.2847209952306,266.4953158595017 26.025635505560786,267.88884667569073 26.075029806466773,268.1032357955701 26.025635505560786,268.26402759418124 25.43290389725007,268.79999999998836 25.729269701521844,268.58561108488357 25.877452603541315,268.26402759418124 25.976241204654798,267.99604124354664 25.926846904447302,267.620860187104 25.63048110017553,267.2456789375865 24.741383687825873,265.31617231911514 24.29683498153463,263.8690390040283 23.358343268511817,261.7787302552606 22.913794562453404,259.74201340193395 22.66682305908762,259.15243640867993 21.728331346064806,257.91968297294807 20.789839632809162,256.15094614133704 20.34529092675075,254.70379463257268 20.19710802496411,253.73902536404785 19.801953619113192,252.7206564177177 19.01164480834268,251.00550550274784 18.814067605417222,250.20152712223353 18.122547395993024,248.91515986889135 17.974364493973553,248.21837665891508 17.924970193300396,247.36079640913522" stroke="#4dd2ff" stroke-linecap="round" stroke-linejoin="round" stroke-width="0.5"><title>2023-09-13 1.0km</title><desc>9837636972</desc></polyline></svg>