<?xml version="1.0" encoding="utf-8" ?>
<svg baseProfile="full" height="300mm" version="1.1" viewBox="0,0,200,300" width="200mm" xmlns="http://www.w3.org/2000/svg" xmlns:ev="http://www.w3.org/2001/xml-events" xmlns:xlink="http://www.w3.org/1999/xlink"><defs /><rect fill="#222222" height="300" width="200" x="0" y="0" /><text fill="#FFFFFF" style="font-size:12px; font-family:Arial; font-weight:bold;" x="10" y="20">Over 1km Runs</text><text fill="#FFFFFF" style="font-size:4px; font-family:Arial" x="10" y="280">ATHLETE</text><text fill="#FFFFFF" style="font-size:9px; font-family:Arial" x="10" y="290">Jiakai</text><text fill="#FFFFFF" style="font-size:4px; font-family:Arial" x="120" y="280">STATISTICS</text><text fill="#FFFFFF" style="font-size:3px; font-family:Arial" x="120" y="285">Number: 73</text><text fill="#FFFFFF" style="font-size:3px; font-family:Arial" x="120" y="290">Weekly: 6.1</text><text fill="#FFFFFF" style="font-size:3px; font-family:Arial" x="141" y="285">Total: 75.4 km</text><text fill="#FFFFFF" style="font-size:3px; font-family:Arial" x="141" y="290">Avg: 1.0 km</text><text fill="#FFFFFF" style="font-size:3px; font-family:Arial" x="167" y="285">Min: 1.0 km</text><text fill="#FFFFFF" style="font-size:3px; font-family:Arial" x="167" y="290">Max: 1.5 km</text><polyline fill="none" points="17.732941567897797,32.994238877203315 19.168475622311234,38.44617618306074 21.465330108534545,43.58656136528589 23.044417567551136,49.038471416104585 24.192844810895622,51.219231507973745 25.054165243171155,51.375 25.054165243171155,50.75192596309353 24.049291405826807,49.038471416104585 22.757310756947845,45.30002032138873 21.32177670300007,43.11925413669087 20.31690286565572,40.47117789497133 18.59426200063899,34.24039721232839 17.445834757294506,31.125" stroke="#4dd2ff" stroke-linecap="round" stroke-linejoin="round" stroke-width="0.5"><title>2023-12-02 1.0km</title><desc>10313350310</desc></polyline><polyline fill="none" points="40.074163341429085,32.19886857050005 41.48794667189941,34.039784834720194 43.184486667625606,39.869342289399356 44.31551333190873,44.62502183509059 46.15343166096136,49.84091597085353 47.284458324778825,51.375 47.425836658570915,50.45454971771687 47.14307999238372,48.61364793498069 45.587918328586966,45.23865711595863 43.184486667625606,41.40343364945147 41.770703338086605,38.4886591010727 40.35692000715062,31.125" stroke="#4dd2ff" stroke-linecap="round" stroke-linejoin="round" stroke-width="0.5"><title>2023-12-01 1.0km</title><desc>10308709030</desc></polyline><polyline fill="none" points="62.517610910348594,31.125 65.31690272688866,40.74377227539662 68.11619454342872,46.48126636992674 69.6713566640392,50.700002878322266 70.13790530059487,51.375 70.29342151246965,50.86875217733905 69.6713566640392,49.18125862872694 67.33861348312348,45.97501746809576 66.71654863562435,44.287520321668126 64.38380545470864,39.731271829106845 63.29519197065383,34.50001240626443 62.20657848659903,31.46250146406237" stroke="#4dd2ff" stroke-linecap="round" stroke-linejoin="round" stroke-width="0.5"><title>2023-11-30 1.0km</title><desc>10303537703</desc></polyline><polyline fill="none" points="86.43334666127339,35.45432848704513 87.33426740439609,38.38709379185457 87.72037629410625,40.76123381732032 89.13610888971016,43.55433593096677 90.68054444855079,47.743981400853954 92.22498000692576,51.09569112374447 92.4823859333992,51.375 92.73979185940698,51.09569112374447 92.4823859333992,50.11810973205138 91.45276222750545,48.30260009842459 90.03702963190153,44.3922657641815 87.97778222057968,40.2026129020378 87.2055644406937,35.733639663551 85.66112888185307,33.35949335433543 84.76020814012736,31.125" stroke="#4dd2ff" stroke-linecap="round" stroke-linejoin="round" stroke-width="0.5"><title>2023-11-29 1.0km</title><desc>10298007687</desc></polyline><polyline fill="none" points="107.75927883014083,33.747313821921125 109.23612240189686,37.53509432740975 109.50463941460475,40.30308319476899 111.38425850635394,44.81926725700032 112.45832655904815,48.89839240151923 113.39813610492274,50.792269078898244 114.33794565079734,51.375 114.7407211707905,51.375 115.00923818396404,50.93795182532631 114.87497967714444,50.35522077570204 114.33794565079734,49.33544102625456 112.1898095458746,43.65380138740875 110.04167344141752,38.700563795515336 109.63889792142436,36.36962417385075 108.6990883750841,33.60162981192116 107.49076181603596,31.125" stroke="#4dd2ff" stroke-linecap="round" stroke-linejoin="round" stroke-width="0.5"><title>2023-11-28 1.0km</title><desc>10292316108</desc></polyline><polyline fill="none" points="133.27453567041084,31.125 134.46319649508223,34.34953793894965 135.1763929896988,37.445088784676045 136.1273216488771,38.863881096825935 137.19711639126763,40.9275769572705 138.26691113319248,44.28107755351812 139.2178397923708,45.828844897216186 139.2178397923708,46.602728057070635 138.62350938050076,47.118649974116124 136.7216520612128,48.150493353023194 135.53299123700708,49.18233612482436 134.34433041280136,49.827237549005076 132.56133917579427,50.601118945283815 129.708553197328,51.375 129.23308886773884,51.246019848273136 128.87649062043056,50.8590793350013 128.2821602076292,48.408454102813266" stroke="#4dd2ff" stroke-linecap="round" stroke-linejoin="round" stroke-width="0.5"><title>2023-11-27 1.0km</title><desc>10287544518</desc></polyline><polyline fill="none" points="154.29245392326266,35.51487821305636 154.94496928201988,37.0725745287491 156.51100614434108,45.00264533329755 158.20754607766867,49.10927631123923 159.12106758076698,50.666961633600295 159.7735829395242,51.375 159.90408601192757,51.23339234746527 159.51257679611444,50.5253539289115 159.51257679611444,49.392491918290034 158.46855222107843,46.98515793308616 157.29402457503602,43.0201306930976 156.11949692852795,40.612788743688725 155.33647849736735,36.08131338271778 153.11792627628893,32.54109083930962 152.5959139885381,31.125" stroke="#4dd2ff" stroke-linecap="round" stroke-linejoin="round" stroke-width="0.5"><title>2023-11-26 1.0km</title><desc>10281488289</desc></polyline><polyline fill="none" points="175.06276023760438,31.125 176.56775605864823,35.04436924576294 177.92225229833275,40.59679717326071 179.27674853801727,43.69961849891115 179.57774770259857,45.65929289266933 180.33024561405182,47.4556595684262 181.98574101738632,50.55847131391056 182.73823892790824,51.375 183.03923809248954,51.375 180.78174435999244,46.4758233797038 180.48074519541115,44.84276210551616 178.9757493743673,42.719780653947964 175.96575773041695,34.554448468843475 174.46076190844178,31.778228688170202" stroke="#4dd2ff" stroke-linecap="round" stroke-linejoin="round" stroke-width="0.5"><title>2023-11-25 1.0km</title><desc>10275889695</desc></polyline><polyline fill="none" points="17.325757259503007,55.48091974109411 18.372221989557147,60.212242065463215 23.255724065937102,73.45989831234328 24.47659958526492,75.35241506807506 24.99983195029199,75.54166666674428 25.17424273956567,74.97391182789579 23.43013485427946,72.70289122057147 21.337205393239856,66.45757421874441 19.94191908556968,63.618788754567504 19.069865143857896,58.1304613139946 18.023400412872434,55.29166666674428" stroke="#4dd2ff" stroke-linecap="round" stroke-linejoin="round" stroke-width="0.5"><title>2023-11-24 1.0km</title><desc>10271180196</desc></polyline><polyline fill="none" points="41.2321199523285,57.54167593049351 41.67645172588527,58.82739446940832 42.71322586201131,64.29168982524425 45.23110591061413,72.00596589781344 46.415990638546646,75.22023956058547 46.86032241117209,75.54166666662786 47.45276477560401,75.54166666662786 47.60087536741048,75.22023956058547 47.30465418472886,73.6131033198908 45.67543768323958,68.95240154094063 41.38023054320365,59.63096817256883 39.89912463352084,55.29166666662786" stroke="#4dd2ff" stroke-linecap="round" stroke-linejoin="round" stroke-width="0.5"><title>2023-11-23 1.0km</title><desc>10265414399</desc></polyline><polyline fill="none" points="64.47580239595845,59.85506540059578 64.60722444113344,61.85154897056054 65.13291261997074,64.98887614335399 67.2356653357856,70.97830483713187 67.89277555933222,73.83040723903105 68.94415191700682,75.54166666662786 69.73268418526277,75.54166666662786 69.6012621410191,74.68603714136407 68.15561964828521,70.97830483713187 66.97282124590129,69.1244360273704 65.2643346642144,63.848030486144125 63.29300399310887,58.42900444951374 62.76731581473723,55.29166666662786" stroke="#4dd2ff" stroke-linecap="round" stroke-linejoin="round" stroke-width="0.5"><title>2023-11-21 1.0km</title><desc>10253878272</desc></polyline><polyline fill="none" points="86.57050360320136,60.7606648724759 87.25159622682258,65.19497682049405 90.11218524770811,72.4376653037034 91.3381519713439,75.09823819377925 91.74680754588917,75.54166666662786 92.01924459589645,75.39385718666017 92.15546312043443,75.09823819377925 91.61058902135119,72.73328468750697 89.1586555740796,67.4121291275369 88.20512590091676,64.6037357924506 86.70672212773934,58.83912665722892 85.88941097864881,57.36101908842102 85.34453687956557,55.29166666662786" stroke="#4dd2ff" stroke-linecap="round" stroke-linejoin="round" stroke-width="0.5"><title>2023-11-20 1.0km</title><desc>10248671423</desc></polyline><polyline fill="none" points="107.64485171297565,56.97917417238932 109.62414881167933,61.27464166539721 110.18966226885095,65.72350939013995 111.74482427490875,69.25191497895867 113.29998628096655,73.70076569588855 114.00687810219824,74.77462479262613 114.85514828702435,75.54166666662786 114.71376992342994,74.3143995332066 112.31033773208037,68.02464414632414 110.75517572602257,62.348507156944834 109.20001371949911,58.66668031353038 108.35174353420734,55.29166666662786" stroke="#4dd2ff" stroke-linecap="round" stroke-linejoin="round" stroke-width="0.5"><title>2023-11-19 1.0km</title><desc>10242265034</desc></polyline><polyline fill="none" points="129.81435108883306,73.33433595346287 130.69876657472923,70.55117451550905 131.05253276927397,69.8793760377448 131.6716236085631,69.495491038193 134.67863625986502,69.1116059256019 136.88967497413978,68.63174937595613 137.59720736276358,68.05592128355056 138.03941510571167,67.48009293735959 138.5700643970631,65.08080542599782 138.39318129979074,64.31303249078337 138.7469474938698,63.737202493008226 138.4816228481941,59.322497401502915 138.3047397513874,58.74666520184837 138.21629820251837,57.0191670776112 138.03941510571167,55.96347265399527 137.06655807141215,55.67555584467482 136.270584134385,56.251389399403706 136.4474672311917,55.96347265399527 136.62435032846406,56.251389399403706 135.47461019689217,55.67555584467482 135.38616864895448,55.29166666662786 135.1208440028131,55.483611269737594 135.29772710008547,55.3876389717916 134.67863625986502,56.15541715803556 134.76707780873403,56.05944490956608 136.62435032846406,57.0191670776112 136.18214258598164,57.40305574727245 135.47461019689217,57.69097217544913 133.7942207744345,57.97888854006305 133.7057792255655,57.59500003955327 134.14798696851358,57.40305574727245 134.76707780873403,57.49902789702173 136.62435032846406,55.67555584467482 139.1891552368179,55.77152812143322 138.92383059114218,55.57958356058225 138.5700643970631,55.483611269737594 138.3047397513874,60.090273272944614 138.39318129979074,61.43387996091042 138.6585059450008,63.06540050776675 138.83538904273883,65.84857790963724 138.83538904273883,66.80829287879169 138.5700643970631,67.76800714212004 138.03941510571167,68.34383536165114 133.61733767716214,68.82369201700203 131.58318206015974,69.20757721434347 130.52188347745687,69.97534727002494 129.28370179748163,71.70282824407332 128.57616940885782,74.19807450321969 128.3108447631821,75.54166666662786" stroke="#4dd2ff" stroke-linecap="round" stroke-linejoin="round" stroke-width="0.5"><title>2023-11-18 1.0km</title><desc>10236386505</desc></polyline><polyline fill="none" points="152.11771481391042,55.29166666662786 155.05030430061743,60.354186206590384 156.11670047743246,64.1149065750651 156.51659904420376,66.28454967110883 157.31639617681503,67.58633438055404 159.84908709675074,74.96309813065454 160.3822851856239,75.54166666662786 160.3822851856239,74.96309813065454 159.84908709675074,74.2398872213671 158.38279235363007,69.9006161816651 157.5829952210188,68.45419037493411 157.31639617681503,65.99526406347286 156.11670047743246,62.95776261156425 154.78370525641367,60.06489972700365 154.6504057343118,58.47382332687266" stroke="#4dd2ff" stroke-linecap="round" stroke-linejoin="round" stroke-width="0.5"><title>2023-11-17 1.0km</title><desc>10231268371</desc></polyline><polyline fill="none" points="175.1380108250305,55.944895355030894 177.09450496174395,58.72111513547134 177.54600360803306,62.47717166878283 178.90049954969436,65.41668974247295 181.00749323517084,73.25538558897097 182.36198917590082,75.54166666662786 182.21148962620646,74.23522062471602 181.15799278393388,72.11224416748155 180.40549503918737,69.98926568112802 179.20149864722043,64.92677033343352 176.79350586421788,59.864263448282145 176.04100811854005,57.577966233948246 175.58950947131962,55.29166666662786" stroke="#4dd2ff" stroke-linecap="round" stroke-linejoin="round" stroke-width="0.5"><title>2023-11-16 1.0km</title><desc>10225818993</desc></polyline><polyline fill="none" points="17.738343468867242,79.67607600498013 18.741673906333745,83.59544136095792 20.34700260683894,87.95028567290865 22.55432956852019,92.08738183928654 23.356993918307126,95.35350630921312 24.761656530201435,98.18414460332133 26.166319143027067,99.70833333325572 22.55432956852019,92.95834871660918 20.949000868946314,87.95028567290865 16.333680857904255,79.45833333325572" stroke="#4dd2ff" stroke-linecap="round" stroke-linejoin="round" stroke-width="0.5"><title>2023-11-15 1.0km</title><desc>10219684298</desc></polyline><polyline fill="none" points="40.17195953754708,81.89443403633777 41.99605859722942,84.17827584256884 42.27668922115117,87.0711385149043 44.381418905220926,92.09557460516226 45.644256714731455,96.3587229406694 46.90709452517331,99.5560784334084 47.46835577394813,99.70833333337214 47.328040461521596,97.88127379107755 45.50394140277058,95.44519189326093 44.802364841103554,93.31361788243521 43.6798423435539,91.9433191451244 43.25889640673995,90.2685083465185 41.15416672360152,86.00534747436177 40.452590161934495,82.96022719249595 40.031644225586206,79.45833333337214" stroke="#4dd2ff" stroke-linecap="round" stroke-linejoin="round" stroke-width="0.5"><title>2023-11-14 1.0km</title><desc>10213806154</desc></polyline><polyline fill="none" points="63.54537082230672,82.24638900742866 64.62722249375656,86.35509553411976 67.60231458954513,93.98552807257511 68.27847188385203,96.4800862291595 69.63078647339717,99.26811812655069 70.03648085007444,99.70833333337214 69.22509209671989,98.24094893329311 67.33185167144984,93.69205043767579 67.19662021286786,92.51813946524635 65.84430562378839,89.28988073195796 63.81583374040201,85.62139856035355 63.0044449865818,83.12682683218736 62.46351915039122,79.45833333337214" stroke="#4dd2ff" stroke-linecap="round" stroke-linejoin="round" stroke-width="0.5"><title>2023-11-13 1.0km</title><desc>10208522228</desc></polyline><polyline fill="none" points="86.48794633941725,81.75947959395126 87.90172987710685,86.0549458238529 89.59827012289315,89.58335789793637 90.58791859960184,93.72539924143348 91.57756707584485,96.6401641467819 92.84997226018459,99.40151661774144 93.41548567498103,99.70833333337214 93.69824238307774,99.09469985682517 92.14308049110696,96.02652976836544 91.29481036867946,92.65153746039141 88.18448658520356,89.73676698305644 86.48794633941725,87.28222026536241 86.20518963132054,84.67426121421158 83.80175761692226,79.45833333337214" stroke="#4dd2ff" stroke-linecap="round" stroke-linejoin="round" stroke-width="0.5"><title>2023-11-12 1.0km</title><desc>10202270880</desc></polyline><polyline fill="none" points="108.18609941005707,83.23633354611229 111.52853641752154,90.79231313825585 112.6426820862107,94.57029251893982 113.75682775583118,97.59267102414742 114.4531687987037,98.95273990172427 115.14950984157622,99.70833333337214 115.28877805033699,99.1038586103823 114.0353641724214,95.32588756165933 111.66780462581664,91.69902882294264 109.16097687045112,85.95648939884268 108.18609941005707,81.87625426938757 107.21122194919735,79.45833333337214" stroke="#4dd2ff" stroke-linecap="round" stroke-linejoin="round" stroke-width="0.5"><title>2023-11-11 1.0km</title><desc>10196068378</desc></polyline><polyline fill="none" points="131.8674343591556,82.47808094252832 134.15925339981914,89.40572296222672 136.28737108130008,95.08992722025141 137.26957924105227,98.82017899723724 137.92438468150795,99.70833333325572 138.25178740173578,99.35307163791731 137.76068332139403,97.22150036902167 135.30516292061657,91.71493255463429 132.8496425198391,86.5636158187408 129.57561531756073,81.41228810022585 129.2482125973329,79.45833333325572" stroke="#4dd2ff" stroke-linecap="round" stroke-linejoin="round" stroke-width="0.5"><title>2023-11-10 1.0km</title><desc>10191120477</desc></polyline><polyline fill="none" points="151.5489014852792,80.07665683049709 153.97067950852215,81.93162623164244 155.39525481592864,84.40491622011177 155.82262740842998,85.33239921589848 155.82262740842998,86.72362294245977 157.38966024620458,91.5156087318901 157.95949036907405,94.29804708203301 159.09915061527863,97.38964092999231 159.38406567648053,98.93543614959344 160.09635333064944,99.70833333337214 160.52372592221946,99.5537539194338 160.9510985147208,98.93543614959344 159.38406567648053,97.85337961546611 156.81983012333512,94.14346727007069 153.82822197815403,85.95072098588571 153.11593432398513,81.31330327957403 152.4036466702819,79.45833333337214" stroke="#4dd2ff" stroke-linecap="round" stroke-linejoin="round" stroke-width="0.5"><title>2023-11-09 1.0km</title><desc>10185506531</desc></polyline><polyline fill="none" points="174.7996659753844,81.084253272973 176.2980685364455,84.04046797577757 176.8429421945475,85.51857369730715 178.61378158535808,89.36164348758757 179.29487365856767,92.02222596190404 179.15865524392575,90.39631486800499 179.43109207367525,91.43098571617156 179.9759657313116,95.42185399995651 181.2019314635545,99.11709534807596 181.74680512258783,99.70833333337214 182.42789719533175,99.41271436202805 182.7003340246156,98.96928582433611 181.2019314635545,97.63899962382857 180.11218414641917,95.86528332042508 179.43109207367525,93.94375555939041 178.4775631702505,90.69193516497035 177.115379024297,88.77040245954413 175.61697646277025,85.51857369730715 175.2083212188445,83.1536040212959 175.34453963348642,80.1973880144069 175.0721028042026,79.45833333337214" stroke="#4dd2ff" stroke-linecap="round" stroke-linejoin="round" stroke-width="0.5"><title>2023-11-08 1.0km</title><desc>10179505859</desc></polyline><polyline fill="none" points="20.33647836279124,114.81208925554529 24.90408654883504,123.875 25.165092730429024,123.73339234781452 24.51257727574557,122.17570748343132 23.338049456477165,120.19319765258115 22.55503091029823,118.21068578166887 20.988993817474693,116.51138826808892 20.466981454286724,115.52013069286477 20.075472180731595,112.12152941920795 19.81446599867195,111.13026958494447 18.248428906314075,108.43970460584387 17.334907269570976,103.625" stroke="#4dd2ff" stroke-linecap="round" stroke-linejoin="round" stroke-width="0.5"><title>2023-11-06 1.0km</title><desc>10167691585</desc></polyline><polyline fill="none" points="41.80325079616159,109.30667556147091 42.743060756940395,111.05488014931325 46.23378346674144,119.06746477528941 47.71062769088894,123.58363456081133 47.9791448218748,123.875 48.247661953326315,123.875 48.247661953326315,123.43795182509348 47.173593427054584,121.10702659829985 46.23378346674144,119.79587995330803 46.099524901248515,119.06746477528941 45.2939735064283,118.19336620881222 43.01157788839191,114.25991788762622 40.326406572479755,107.41278551763389 39.252338046673685,103.625" stroke="#4dd2ff" stroke-linecap="round" stroke-linejoin="round" stroke-width="0.5"><title>2023-11-05 1.1km</title><desc>10161301187</desc></polyline><polyline fill="none" points="62.46351998578757,103.625 65.16814856696874,109.64132579986472 66.38523142877966,114.92393837927375 68.27847143588588,118.59241111110896 68.95462858164683,121.52718444226775 69.63078572647646,123.875 70.03648001421243,123.43478479317855 69.90124858450145,122.99456948938314 68.14324000710621,119.76632096152753 68.00800857739523,119.32610484852921 66.38523142877966,116.83154504140839 65.70907428301871,114.48372119839769 63.95106570562348,111.2554589046631 63.54537141835317,108.46740999480244 62.733982843812555,105.53261746116914" stroke="#4dd2ff" stroke-linecap="round" stroke-linejoin="round" stroke-width="0.5"><title>2023-11-04 1.0km</title><desc>10155501797</desc></polyline><polyline fill="none" points="94.18291300861165,106.70096452429425 92.64752454962581,104.65032211167272 91.70267011318356,104.00949586252682 89.81296124076471,103.625 88.04135917266831,103.75316529721022 85.56111627677456,104.90665254509076 84.49815503554419,105.93197390250862 83.55330059956759,107.85444982117042 83.31708699045703,109.3924290293362 82.96276657702401,114.5190165862441 83.19898018566892,119.90191728936043 83.43519379524514,120.67090174683835 84.6162618403323,122.59336140565574 86.03354349546134,123.61867235659156 88.39567958610132,123.875 90.5216020680964,122.97785308305174 92.52941774576902,120.54273769422434 93.1199517683126,119.38926079589874 93.94669939996675,115.67249670787714 93.94669939996675,112.72471265657805 94.53723342251033,108.87976944388356 94.41912661818787,107.46995480707847 93.1199517683126,105.93197390250862 92.05699052708223,105.16298294090666 89.57674763118848,104.00949586252682 88.27757278131321,104.00949586252682 85.44300947291777,104.90665254509076 84.14383462257683,106.06013902975246 83.31708699045703,107.5981198210502 83.08087338134646,108.62343959498685 83.31708699045703,112.85287728451658 83.08087338134646,114.77534556796309" stroke="#4dd2ff" stroke-linecap="round" stroke-linejoin="round" stroke-width="0.5"><title>2023-11-03 1.0km</title><desc>10152446508</desc></polyline><polyline fill="none" points="107.05896987952292,103.625 108.16603443957865,106.02755155786872 109.11494691949338,110.31781604560092 110.69646772090346,113.4068015946541 113.0687489202246,119.58476042887196 113.54320516064763,120.61441864538938 114.33396556135267,123.360171667533 114.8084218017757,123.875 115.4410301214084,123.875 115.4410301214084,123.53178112418391 114.33396556135267,123.0169527165126 113.85950932092965,121.81568599003367 112.75244476087391,120.78602830367163 111.9616843611002,118.55510175903328 110.85461980011314,116.83900296594948 109.5894031599164,114.26485241041519 108.16603443957865,108.94493226753548 107.2171219587326,106.71399440569803" stroke="#4dd2ff" stroke-linecap="round" stroke-linejoin="round" stroke-width="0.5"><title>2023-11-02 1.1km</title><desc>10144903556</desc></polyline><polyline fill="none" points="130.3015983053483,105.0923982084496 130.57206118293107,106.70653499208856 131.65391269512475,109.20110745343845 133.54715284146369,115.95111142355017 136.79270737851039,122.70109256613068 137.73932745074853,123.875 137.19840169558302,122.11413859052118 135.1699301097542,119.03262738557532 134.0880785980262,115.07067741767969 132.7357642077841,113.16306907287799 131.1129869390279,109.64132579963189 129.7606725487858,103.625" stroke="#4dd2ff" stroke-linecap="round" stroke-linejoin="round" stroke-width="0.5"><title>2023-11-01 1.0km</title><desc>10138966680</desc></polyline><polyline fill="none" points="153.30337887629867,103.92951274476945 154.00495533458889,106.2133569016587 155.1274776677601,112.30359567410778 156.95157645829022,116.26224127190653 158.07409879099578,119.9163689535344 159.89819758245721,123.875 160.038512873929,123.72274509933777 158.775675249286,121.89568542258348 156.95157645829022,117.63253990781959 155.40810825070366,114.89194172876887 152.7421177108772,106.82238158478867 152.46148712653667,103.625" stroke="#4dd2ff" stroke-linecap="round" stroke-linejoin="round" stroke-width="0.5"><title>2023-10-31 1.0km</title><desc>10133123337</desc></polyline><polyline fill="none" points="175.57055966323242,106.02501049847342 176.2617423455231,109.6250209530117 176.2617423455231,110.97502323566005 177.78234424535185,113.52502511010971 181.92944033676758,122.37500689248554 182.62062301905826,123.72500073863193 182.89709609141573,123.875 179.71765575464815,117.57502153690439 178.3352903914638,113.67502512130886 176.8146884907037,110.52502257388551 174.60290390858427,103.625" stroke="#4dd2ff" stroke-linecap="round" stroke-linejoin="round" stroke-width="0.5"><title>2023-10-30 1.0km</title><desc>10127985445</desc></polyline><polyline fill="none" points="18.057827468030155,130.7226017251378 18.671706800814718,134.85254762531258 19.040034400764853,136.1847862303257 21.49555173330009,141.9134010715643 22.723310398869216,145.24398277048022 24.56494839815423,147.77522076736204 25.05605186522007,148.04166666662786 25.178827730938792,147.6419978030026 24.07384493201971,145.91009837540332 22.477758666034788,142.44629455474205 19.653913733549416,137.25057640939485 18.548930934164673,133.3870840285672 17.68949986761436,131.65517097723205 17.566724001429975,128.9906861272175 17.321172268595546,127.79166666662786" stroke="#4dd2ff" stroke-linecap="round" stroke-linejoin="round" stroke-width="0.5"><title>2023-10-28 1.0km</title><desc>10115543824</desc></polyline><polyline fill="none" points="41.12350542237982,131.9916831862647 42.22939787618816,135.59169046452735 43.47352688619867,138.44169172167312 44.57941934000701,142.49168665974867 46.238258020952344,146.39167418773286 46.929440803825855,147.89166740584187 47.62062358716503,148.04166666662786 47.758860144298524,147.89166740584187 47.482387030962855,146.99167160713114 46.652967690490186,144.7416803742526 43.888236556667835,139.34169129177462 41.67645164905116,133.34168666007463 40.29408608190715,130.3416777276434 39.741139855235815,127.79166666662786" stroke="#4dd2ff" stroke-linecap="round" stroke-linejoin="round" stroke-width="0.5"><title>2023-10-27 1.0km</title><desc>10110442644</desc></polyline><polyline fill="none" points="63.50559645984322,130.91851812019013 66.11277982359752,139.70345589309 67.07332106260583,142.3835988137871 68.0338623020798,144.02146218635608 69.13162371795624,147.14828858268447 69.54328424902633,147.74387401598506 70.3666053111665,148.04166666662786 70.50382548756897,147.59497767395806 70.3666053111665,146.99939219711814 68.99440354062244,145.21263471641578 66.93610088573769,141.6391150249401 64.46613769978285,134.34315941098612 62.81949557503685,131.66300584981218 61.99617451289669,127.79166666662786" stroke="#4dd2ff" stroke-linecap="round" stroke-linejoin="round" stroke-width="0.5"><title>2023-10-26 1.0km</title><desc>10104873905</desc></polyline><polyline fill="none" points="87.7357644313015,137.47647490771487 90.84608684293926,145.2536353842588 92.33363234438002,147.89492827525828 92.87455798033625,148.04166666662786 92.73932657158002,146.57428226654883 89.08807852305472,140.26451705396175 87.05960738519207,135.12864692218136 85.30159906577319,131.46016016590875 84.62544201966375,127.79166666662786" stroke="#4dd2ff" stroke-linecap="round" stroke-linejoin="round" stroke-width="0.5"><title>2023-10-25 1.0km</title><desc>10098978222</desc></polyline><polyline fill="none" points="107.50399029208347,127.79166666662786 107.36777175730094,128.8263431439409 108.18508296646178,132.225990677136 109.27483124518767,134.44314901495818 109.95592391910031,137.10373579268344 111.18189073260874,140.6511793526588 113.77004289394245,145.67671368212905 114.58735410310328,147.74604769563302 114.859791173134,148.04166666662786 115.13222824316472,147.89385718642734 114.99600970791653,145.97233295696788 113.49760582484305,143.16394808748737 112.40785754658282,141.53803926485125 111.04567219736055,138.4340278612217 110.77323512826115,136.80811521364376 109.13861270993948,134.29533853533212 108.18508296646178,132.07818003429566 107.91264589643106,129.4175866061123 107.50399029208347,127.79166666662786" stroke="#4dd2ff" stroke-linecap="round" stroke-linejoin="round" stroke-width="0.5"><title>2023-10-24 1.0km</title><desc>10092835699</desc></polyline><polyline fill="none" points="131.6689931480214,131.28808432491496 133.68287074705586,138.42658455425408 134.6226802924648,140.17478477221448 135.69674834469333,144.5452785693342 137.30785042373464,147.4589357455261 137.97914295690134,148.04166666662786 137.30785042373464,147.31325298827142 136.36804087786004,144.9823274188675 133.95138775976375,142.06866660097148 133.41435373341665,141.04888430284336 132.8773197075352,137.6981673417613 131.2662176284939,134.49312842520885 130.19214957626536,131.14240037905984 129.52085704356432,127.79166666662786" stroke="#4dd2ff" stroke-linecap="round" stroke-linejoin="round" stroke-width="0.5"><title>2023-10-23 1.0km</title><desc>10087395010</desc></polyline><polyline fill="none" points="149.6937756354455,127.88879045064095 150.05179471336305,127.79166666668607 152.60268064355478,127.98591422027675 153.72149026207626,128.27728544350248 153.99000457045622,128.4229710069485 154.5717855724506,128.86002750432817 154.97455703490414,129.345645495574 155.86960472958162,130.99674399476498 156.3171285772696,132.84208449162543 156.89890957879834,133.81331426108954 157.1674238871783,134.59029704832938 157.79395727347583,135.9985760205891 158.24148112116382,137.45541317679454 158.91276689223014,138.62088058807421 159.2260335853789,138.9608081956394 159.62880504806526,139.6406628859695 159.85256697167642,141.09749200881924 159.98682412598282,141.48597923235502 160.34484320366755,142.02014879143098 160.43434797343798,142.84568271494936 160.56860512751155,143.18560814816738 162.53771005617455,147.8474250115105 162.8062243645545,148.04166666668607 162.8062243645545,147.7988645886653 162.40345290186815,147.41038107819622 161.95592905464582,146.34205024613766 161.50840520719066,145.4193995008245 160.30009081913158,141.68022275838302" stroke="#4dd2ff" stroke-linecap="round" stroke-linejoin="round" stroke-width="0.5"><title>2023-10-22 1.5km</title><desc>10080655811</desc></polyline><polyline fill="none" points="175.52918930258602,127.79166666668607 176.2396622505039,128.30563331308076 174.96081094397232,128.10004669980844 176.95013519842178,130.6698750189389 177.139594651293,131.28663240972674 176.997500061756,131.8005964862532 176.33439197693951,132.16037111514015 176.14493252406828,132.5201455586939 176.1922973874025,133.13690131675685 176.57121629291214,134.62739215244073 176.997500061756,135.70671111857519 177.47114869370125,137.35138443374308 178.32371623115614,138.84186628338648 178.46581082069315,139.40722063631983 178.98682431597263,140.3323449548916 179.31837835838087,140.7435109258513 179.36574322148226,141.00048953475198 179.69729726412334,141.30886374088004 179.93412157986313,141.8228204487241 180.2656756225042,142.7993371525663 180.59722966491245,143.46747937455075 180.54986480181105,144.8037619027309 181.16560802306049,145.98585585615365 181.35506747616455,146.55120443174383 181.68662151833996,147.16794781089993 182.25499987672083,147.8874810655252 182.53918905602768,148.04166666668607 181.44979720236734,146.49980912555475 181.2129728863947,145.67748371325433 180.73932425421663,144.64957558747847 180.54986480181105,143.98143449536292 179.93412157986313,143.10771056520753 179.41310808481649,141.6172378109768" stroke="#4dd2ff" stroke-linecap="round" stroke-linejoin="round" stroke-width="0.5"><title>2023-10-20 1.4km</title><desc>10069668027</desc></polyline><polyline fill="none" points="17.17527352948673,151.95833333331393 17.27171675954014,152.74322778818896 18.04326259996742,154.62697094748728 18.23614906030707,155.77814486814896 19.82746235630475,159.65026166231837 19.97212720150128,160.17351907264674 20.06857043178752,160.95840446691727 20.26145689189434,161.48166091559688 21.41877565253526,163.10375346138608 22.04565664823167,164.35956450609956 22.43142956844531,165.6153733349638 22.76898087374866,166.2956021921127 22.96186733385548,167.34210685663857 23.20297540910542,167.86535861185985 23.829856404569,169.48743660835316 23.92629963462241,170.11533677583793 24.84251032047905,171.9990339545766 25.08361839549616,172.20833333331393 25.22828324069269,172.20833333331393 25.32472647051327,172.1560084943194 25.27650485583581,172.10368365154136 24.31207255506888,170.90021120611345 23.87807801971212,169.4351115693571 22.96186733385548,167.76070829154924 22.81720248865895,167.08048083470203 22.72075925860554,165.9293251960189" stroke="#4dd2ff" stroke-linecap="round" stroke-linejoin="round" stroke-width="0.5"><title>2023-10-19 1.3km</title><desc>10064004415</desc></polyline><polyline fill="none" points="39.183780145365745,151.95833333337214 41.169093125034124,154.54345140454825 41.036738926544785,156.41047899518162 41.30144732398912,158.27750480151735 42.227926715277135,161.58069993299432 43.5514687015675,163.73495461873244 44.87501068832353,167.46899044618476 47.522094662766904,171.77748445491306 47.91915725870058,172.20833333337214 48.316219854168594,172.0647170508746 46.59561527147889,170.34132084075827 43.41911450307816,164.16580527077895 42.62498931074515,161.4370828694664 40.37496793316677,156.69771385064814" stroke="#4dd2ff" stroke-linecap="round" stroke-linejoin="round" stroke-width="0.5"><title>2023-10-18 1.0km</title><desc>10058081424</desc></polyline><polyline fill="none" points="62.715541414916515,153.18561165465508 63.84656816208735,159.78222026547883 66.81551337428391,167.60607786185574 68.79481018148363,171.74810824298766 69.64308024197817,172.20833333337214 70.06721527222544,172.20833333337214 70.34997195890173,171.59469985740725 69.36032355576754,170.36743236274924 68.08791846502572,168.37312114564702 66.39137834357098,164.69131081330124 65.68448662711307,162.54358511976898 62.715541414916515,156.5606233170256 62.43278472870588,155.6401661322452 62.15002804156393,151.95833333337214" stroke="#4dd2ff" stroke-linecap="round" stroke-linejoin="round" stroke-width="0.5"><title>2023-10-17 1.0km</title><desc>10051702317</desc></polyline><polyline fill="none" points="84.22806673264131,152.42564320727251 85.66360110323876,154.91796079440974 87.81690265890211,160.52566464548 88.96533015556633,162.70643435709644 90.25731108849868,166.75642929505557 91.83639889676124,170.80641649197787 92.41061264462769,171.8967963376781 93.12837982969359,172.20833333337214 93.27193326735869,172.0525648414623 93.12837982969359,171.58525929611642 91.54929202236235,169.24873002478853 89.395990466699,163.95258747017942 87.81690265890211,160.68143398489337 86.5249217255041,154.60642125597224 85.80715453997254,151.95833333337214" stroke="#4dd2ff" stroke-linecap="round" stroke-linejoin="round" stroke-width="0.5"><title>2023-10-16 1.0km</title><desc>10046279660</desc></polyline><polyline fill="none" points="107.10290070716292,151.95833333337214 107.69534346461296,153.24405319569632 108.28778622020036,156.13692012173124 109.62078242190182,160.63692773098592 111.39811068959534,163.3690706884954 113.47166033554822,171.0833382543642 114.21221378166229,171.8869062269805 115.24898860417306,172.20833333337214 115.3970992937684,171.8869062269805 115.24898860417306,170.92262462433428 113.3235496468842,168.19049110729247 112.2867748234421,164.9762120094383 111.1018893122673,163.04764228244312 108.28778622020036,156.45834954397287 107.25101139675826,151.95833333337214" stroke="#4dd2ff" stroke-linecap="round" stroke-linejoin="round" stroke-width="0.5"><title>2023-10-15 1.0km</title><desc>10039610121</desc></polyline><polyline fill="none" points="129.53601107932627,153.42809761082754 129.98750989232212,158.16399811243173 131.19150672666728,161.5934370001778 132.69650277029723,163.71642032451928 133.59950039628893,166.65593234763946 136.15799366869032,171.2284988736501 136.75999208539724,171.88172189483885 137.51249010767788,172.20833333337214 137.96398892067373,171.88172189483885 137.96398892067373,171.39180464681704 134.95399683434516,168.94221678713802 132.9975019786507,165.34948303981218 132.24500395730138,162.24666285456624 130.43900870531797,158.16399811243173 129.53601107932627,154.73455393034965 129.68651068396866,152.6115620211931 129.53601107932627,151.95833333337214" stroke="#4dd2ff" stroke-linecap="round" stroke-linejoin="round" stroke-width="0.5"><title>2023-10-14 1.0km</title><desc>10033377496</desc></polyline><polyline fill="none" points="151.65856931451708,152.27976337017026 154.3245613258332,155.4940611361526 154.6207826603204,157.90478135913145 157.1386640034616,165.61906820721924 159.5084346793592,171.24405187251978 160.2489880155772,172.20833333337214 160.84143068548292,172.20833333337214 160.84143068548292,171.72619265632238 160.693320017308,171.24405187251978 159.3603240121156,170.27976998628583 157.8792173396796,167.54763566574547 156.25,162.40478532912675 153.287786655128,155.81549065269064 152.8434546533972,153.56548304355238 152.10290131624788,151.95833333337214" stroke="#4dd2ff" stroke-linecap="round" stroke-linejoin="round" stroke-width="0.5"><title>2023-10-13 1.0km</title><desc>10028006924</desc></polyline><polyline fill="none" points="174.40504435403273,151.95833333337214 175.82961997529492,153.81330327980686 176.68436534842476,155.35911031800788 176.82682291138917,157.36865776905324 176.68436534842476,159.53278364543803 178.2513985321857,162.77896828367375 180.10334684047848,167.72552571364213 181.95529514877126,171.12627719645388 182.38266783533618,171.74459505744744 183.0949556455016,172.20833333337214 183.0949556455016,171.43543614970986 181.52792246220633,169.4259021426551 180.10334684047848,166.9526268824702 178.2513985321857,161.85148746985942 177.11173803498968,159.84194430324715 176.54190778639168,158.1415601237677" stroke="#4dd2ff" stroke-linecap="round" stroke-linejoin="round" stroke-width="0.5"><title>2023-10-12 1.0km</title><desc>10021974100</desc></polyline><polyline fill="none" points="18.8824395830743,178.99628079403192 19.439512622077018,182.01867729763035 19.30024436255917,183.22763465484604 20.553658700548112,187.30786048504524 21.52853651950136,189.12129158736207 22.503414338454604,192.44591112039052 23.896096936427057,195.77052527631167 24.174633456394076,196.07276266010012 24.870974755845964,196.375 24.731706495396793,195.77052527631167 23.19975563744083,191.84143524174578 21.52853651950136,188.97017238975968 19.30024436255917,183.83211306645535 18.74317132262513,181.86755757802166 18.464634803589433,178.99628079403192 17.629025244154036,176.125" stroke="#4dd2ff" stroke-linecap="round" stroke-linejoin="round" stroke-width="0.5"><title>2023-10-10 1.0km</title><desc>10009069592</desc></polyline><polyline fill="none" points="40.31949557503685,178.65626107272692 41.28003681404516,181.33641640702263 42.24057805305347,184.90995133598335 44.29888070886955,189.37686113012023 45.94552283268422,195.03493272676133 46.906064071692526,196.375 47.18050442589447,195.9283110073302 47.31772460276261,194.290450524888 46.3571833637543,191.4614156623138 44.29888070886955,187.88789229327813 41.96613769978285,181.33641640702263 41.28003681404516,178.35846581635997 40.18227539770305,176.125" stroke="#4dd2ff" stroke-linecap="round" stroke-linejoin="round" stroke-width="0.5"><title>2023-10-09 1.0km</title><desc>10003389142</desc></polyline><polyline fill="none" points="62.12701159808785,176.125 63.139675416518,177.3808195394231 64.1523392344825,179.73547918454278 64.73100427305326,184.4447906849673 66.9009981690906,189.15409179858398 68.78165954491124,194.4912871712586 69.64965710323304,196.06104797730222 70.37298840191215,196.375 70.37298840191215,195.11919163237326 67.62432946776971,190.72385652828962 64.0076729748398,181.93315917695872 62.56101037748158,176.2819774830714" stroke="#4dd2ff" stroke-linecap="round" stroke-linejoin="round" stroke-width="0.5"><title>2023-10-08 1.0km</title><desc>9996447828</desc></polyline><polyline fill="none" points="86.1506583634764,180.17501667432953 86.81715621938929,182.63395130157005 88.81664978573099,187.98573957325425 89.48314764164388,190.30002188449726 91.61594077944756,195.6517893030541 92.28243863536045,196.375 92.41573820635676,195.79643146391027 92.41573820635676,195.21786275773775 89.88304635509849,190.7339495148044 88.68335021473467,188.13038229721133 86.550557076931,181.76609237212688 85.8840592210181,178.43929626303725 85.0842617941089,176.125" stroke="#4dd2ff" stroke-linecap="round" stroke-linejoin="round" stroke-width="0.5"><title>2023-10-07 1.0km</title><desc>9989974159</desc></polyline><polyline fill="none" points="109.59557300293818,182.15693684492726 110.65440628072247,185.6037495364435 111.44853123975918,187.32715360203292 113.03678115690127,194.07713821833022 113.43384363641962,195.36968580295797 114.22796859499067,196.375 114.88973939372227,196.375 115.15444771293551,195.8005348078441 115.02209355402738,195.36968580295797 113.43384363641962,193.0718228383921 111.84559371881187,189.6250233236933 111.31617707991973,187.32715360203292 108.5367397251539,180.57714566227514 108.13967724563554,178.1356476843357 107.34555228706449,176.125" stroke="#4dd2ff" stroke-linecap="round" stroke-linejoin="round" stroke-width="0.5"><title>2023-10-06 1.0km</title><desc>9984428862</desc></polyline><polyline fill="none" points="129.39044428616762,176.125 131.68494729418308,182.26641263160855 133.21461596526206,187.41190765006468 135.81505270767957,193.8852556941565 136.88582077715546,196.04303425177932 137.34472137875855,196.375 137.956588848494,196.375 138.1095557147637,196.04303425177932 137.6506551131606,195.21311966574285 135.81505270767957,192.55739094223827 134.74428463727236,190.39960905362386 132.90868223086,185.58608817961067 132.14384789578617,183.0963319762377 130.00231175590307,179.1127163397614 130.00231175590307,177.61885866406374" stroke="#4dd2ff" stroke-linecap="round" stroke-linejoin="round" stroke-width="0.5"><title>2023-10-04 1.0km</title><desc>9971682885</desc></polyline><polyline fill="none" points="153.18508319184184,178.4899740224937 153.86617581546307,180.8549452634761 154.54726843954995,182.4808613777859 155.09214253909886,184.99363824073225 157.68029451044276,190.16699248191435 157.8165130354464,191.9407108714804 158.63382418453693,195.48814295674674 158.9062612336129,195.9315715271514 159.72357238270342,196.375 159.72357238270342,194.89690471056383 157.95273156045005,191.64509124867618 156.72676483727992,188.83670266275294 156.04567221272737,187.50641196337529 155.36457958864048,185.58487939927727 154.00239434093237,182.77648234833032 153.4575202409178,180.55932401039172 153.18508319184184,178.34216322784778 152.77642761729658,176.125" stroke="#4dd2ff" stroke-linecap="round" stroke-linejoin="round" stroke-width="0.5"><title>2023-10-03 1.0km</title><desc>9965060084</desc></polyline><polyline fill="none" points="175.04845587722957,176.96178042737301 176.89922793861479,182.98659042594954 177.20768994838,185.66427864029538 178.28730698488653,187.0031215660274 179.05846201069653,189.01138447842095 180.44654105603695,194.1993888024008 181.52615809161216,195.8729360619327 182.29731311742216,196.375 182.45154412277043,196.20764536620118 181.98885110765696,194.8688078536652 180.29231005162,191.68906560575124 177.51615195907652,184.99485688167624 175.81961090210825,179.9741874197498 175.51114889234304,176.125" stroke="#4dd2ff" stroke-linecap="round" stroke-linejoin="round" stroke-width="0.5"><title>2023-10-02 1.0km</title><desc>9958643020</desc></polyline><polyline fill="none" points="18.04014479368925,203.8556801606901 18.338735975325108,205.31368401984219 21.623238977976143,213.08968830667436 23.265490478836,218.1116764920298 24.161264024674892,219.89366954844445 25.057037570513785,220.54166666662786 25.206333161331713,220.37966740492266 25.057037570513785,219.7316702393582 22.07112575042993,215.19568474590778 19.234509521164,208.2296888428973 17.89084920194,204.0176806373056 17.293666838668287,200.29166666662786" stroke="#4dd2ff" stroke-linecap="round" stroke-linejoin="round" stroke-width="0.5"><title>2023-10-01 1.0km</title><desc>9952075403</desc></polyline><polyline fill="none" points="40.84252363303676,203.22646200540476 42.05960676353425,205.7210346502252 42.600532598327845,208.21560417755973 43.00622697547078,210.56343147263397 45.034698859322816,216.2862489343388 46.79270782507956,219.95471303607337 47.60409657796845,220.54166666662786 47.8745594965294,220.1014514598064 45.16993031837046,215.99277151515707 43.95284718833864,213.2047338783741 43.5471528111957,211.73734408442397 41.65391238685697,207.62864692218136 40.57206071494147,203.07972234068438 39.62544050300494,200.29166666662786" stroke="#4dd2ff" stroke-linecap="round" stroke-linejoin="round" stroke-width="0.5"><title>2023-09-30 1.0km</title><desc>9945549317</desc></polyline><polyline fill="none" points="63.11479443218559,200.29166666662786 64.45845396164805,202.5596759208711 64.90634047053754,204.34168155433144 66.1007044967264,207.25768766424153 66.69788650982082,211.63168959354516 67.14577301964164,212.9276884975843 68.93731905706227,217.30167917197105 69.38520556688309,220.055668846122 69.6837965734303,220.37966740503907 70.13168308325112,220.54166666662786 70.28097858652472,220.2176681313431 67.59365952853113,215.35768438887317 65.80211349017918,211.14568980794866 65.20493147801608,208.71568927180488 63.11479443218559,203.85568016127218 62.219021413475275,200.9396695488831" stroke="#4dd2ff" stroke-linecap="round" stroke-linejoin="round" stroke-width="0.5"><title>2023-09-28 1.0km</title><desc>9933629332</desc></polyline><polyline fill="none" points="84.7914034742862,202.59281292685773 85.9224310531281,206.58146043377928 88.04310776293278,209.4962364824023 89.45689223660156,214.71214135515038 91.43619049945846,218.24054019979667 92.00170428911224,220.23484995088074 92.5672180778347,220.54166666662786 92.84997497312725,220.08144157601055 92.5672180778347,219.4678079644218 91.43619049945846,217.9337231455138 88.18448621034622,211.33714557311032 86.48794484185055,206.73486980074085 84.65002502687275,200.29166666662786" stroke="#4dd2ff" stroke-linecap="round" stroke-linejoin="round" stroke-width="0.5"><title>2023-09-27 1.0km</title><desc>9927137811</desc></polyline><polyline fill="none" points="112.93223653757013,200.29166666668607 112.52849976834841,202.2388089672313 112.12476299959235,203.3584131966927 111.81074551236816,204.72140709421365 109.97150023118593,208.5669818915194 109.02944777044468,210.17335462279152 108.85000920621678,210.85484490689123 108.93972848821431,211.3903010667418 109.16402669320814,212.16914561681915 109.83692130818963,213.82418724382296 110.06121951318346,214.26228580548195 110.33037735940889,215.04112697707023 111.22757017915137,216.16070955613395 111.6313069483731,217.0369032972376 112.07990335859358,217.71838651661528 112.43878048658371,218.69193275592988 112.9770961785689,219.4220914959442 113.64999079355039,220.54166666668607" stroke="#4dd2ff" stroke-linecap="round" stroke-linejoin="round" stroke-width="0.5"><title>2023-09-26 1.0km</title><desc>9920397094</desc></polyline><polyline fill="none" points="133.65543065872043,200.29166666668607 132.77278347173706,203.2334170009708 131.89013628475368,204.80690754775424 131.0705353252124,205.83309560123598 130.62921173195355,206.6540452290792 130.44007304892875,207.47499413252808 130.50311927613802,208.50117924326332 130.8183504147455,209.32212651707232 131.57490514637902,210.48513391497545 131.89013628475368,211.64813985925866 132.5205985608045,213.15320421737852 133.71847688616253,214.65826614119578 135.73595617059618,218.76296810543863 137.05992695130408,220.54166666668607" stroke="#4dd2ff" stroke-linecap="round" stroke-linejoin="round" stroke-width="0.5"><title>2023-09-25 1.0km</title><desc>9914573673</desc></polyline><polyline fill="none" points="157.74293000507168,200.29166666668607 157.24528667028062,201.04767670028377 157.14575800322928,201.4256814252003 157.24528667028062,201.91168721433496 157.2950510038063,202.39769268163946 156.29976433352567,204.2337104336475 156.0509426658973,205.47571983956732 155.70259233145043,206.39372544176877 153.61249032407068,210.0657363756909 153.562725990545,210.49773645482492 153.76178332441486,211.36173585121287 154.30919099319726,212.22573423106223 154.6077769943513,212.98173197970027 155.0556559956167,213.73772895004367 155.30447766324505,214.49372514220886 155.9514139990788,215.5197187299491 156.44905733386986,216.54571088438388 156.9964650028851,217.13970568712102 157.14575800322928,217.67970054544276 157.49410833767615,218.11169614619575 158.2405733403284,219.40768142428715 158.78798100887798,220.00167391239665 158.937274009455,220.54166666668607" stroke="#4dd2ff" stroke-linecap="round" stroke-linejoin="round" stroke-width="0.5"><title>2023-09-24 1.0km</title><desc>9907510217</desc></polyline><polyline fill="none" points="179.50492160650901,200.29166666668607 179.08216550690122,200.94701367628295 178.78019686439075,201.6023602039204 178.59901567874476,202.45430996955838 178.5386219501961,203.56839689571643 177.51192856533453,204.94461999973282 176.90799128031358,206.51744380191667 176.36444772337563,207.3038546621683 176.0020853523165,208.35240139666712 175.941691623535,209.46648095035926 177.20995992282405,212.6776436372893 177.69310975074768,213.6606503103394 179.2633466925472,216.15092902997276 179.9276777061168,217.78926649858477 180.77318990556523,218.83780089800712 181.25633973395452,219.68973418948008 181.55830837669782,220.54166666668607" stroke="#4dd2ff" stroke-linecap="round" stroke-linejoin="round" stroke-width="0.5"><title>2023-09-23 1.0km</title><desc>9901004991</desc></polyline><polyline fill="none" points="22.027569683734328,224.45833333331393 21.624385403236374,225.20834193611518 21.22120112297125,226.5208553984412 20.29963705362752,228.45837156730704 19.37807298428379,229.77088001114316 18.571704423520714,231.95838958065724 18.514106668997556,233.14589241793146 18.629302178043872,233.8333933026297 19.781257264548913,236.58339128014632 19.954050527419895,237.3958889800706 20.184441544814035,237.83338741987245 20.99081010557711,238.83338300831383 21.624385403236374,240.0833758393419 22.14276519208215,241.39586633403087 23.006731507368386,242.64585539727705 23.985893331002444,244.70833333331393" stroke="#4dd2ff" stroke-linecap="round" stroke-linejoin="round" stroke-width="0.5"><title>2023-09-22 1.0km</title><desc>9895405405</desc></polyline><polyline fill="none" points="44.82345788786188,224.45833333331393 44.65831052046269,225.05568569112802 44.32801578589715,225.41409689502325 43.61237719398923,226.72826995630749 43.337131581734866,227.6840308473911 42.51139474497177,229.77475387667073 41.630608786130324,231.5667979050777 41.08011756138876,232.88096101366682 40.914970193989575,233.53804177069105 40.914970193989575,233.95618379395455 41.08011756138876,234.5535291681299 41.4104122959543,235.15087410318665 42.12605088809505,237.00264061050257 42.84168947977014,238.31679492612602 43.227033336879686,239.27254218421876 43.94267192855477,240.46722467575455 44.383064907975495,241.00483122392325 44.71335964277387,241.9605753198848 45.59414560184814,243.5136570779141 46.585029805777594,244.70833333331393" stroke="#4dd2ff" stroke-linecap="round" stroke-linejoin="round" stroke-width="0.5"><title>2023-09-21 1.0km</title><desc>9889267953</desc></polyline><polyline fill="none" points="68.311701788567,224.45833333331393 67.58904342958704,226.6263600223465 67.1639502774924,228.33309916598955 66.4838012335822,229.76306622481206 65.67612424399704,232.16171332629165 64.27331684133969,234.79098903591512 63.890733004314825,236.22094137454405 63.93324231938459,236.5438333870261 64.1882982107345,237.23574428271968 64.74091930896975,238.43505469430238 65.08099383092485,239.44985402107704 65.93118013557978,240.64916020003147 66.44129191851243,241.61782890179893 66.73885712493211,242.30973420158261 67.07893164665438,242.9093848442426 67.63155274488963,243.32452726108022 68.311701788567,244.33931867918 68.35421110410243,244.52382603340084 68.60926699545234,244.70833333331393" stroke="#4dd2ff" stroke-linecap="round" stroke-linejoin="round" stroke-width="0.5"><title>2023-09-20 1.0km</title><desc>9882714971</desc></polyline><polyline fill="none" points="90.42906590504572,224.45833333331393 89.99730610102415,225.55153578415047 89.1817598042544,227.94616382510867 89.13378649251536,228.72701904381393 88.84594662301242,229.14347480831202 88.51013344223611,229.92432870634366 88.3182401957456,230.6531249009422 87.93445370299742,231.64220425055828 86.83106753672473,233.41213226976106 86.5432276672218,234.45326433179434 86.44728104420938,235.3902818786446 86.5432276672218,236.32729818520602 86.83106753672473,237.3684259604197 87.16688071750104,238.09721449221252 88.22229357250035,239.91918253951008 88.75,240.6479684455553 89.22973311552778,241.9493699836312 89.70946623152122,242.78226571256528 90.189199347049,243.45899277093122 90.71690577454865,243.97955160652054 91.05271895579062,244.70833333331393" stroke="#4dd2ff" stroke-linecap="round" stroke-linejoin="round" stroke-width="0.5"><title>2023-09-19 1.0km</title><desc>9876194288</desc></polyline><polyline fill="none" points="111.10094494954683,224.45833333331393 110.74321282887831,225.04060821142048 110.14699262776412,226.20515681174584 109.96812656731345,226.98152168880915 108.89493020484224,228.8577339805197 108.06022192304954,230.60454872477567 107.88135586259887,231.2515162685886 107.94097788305953,231.9631800170755 108.29871000372805,232.8689330467605 108.83530818484724,233.83938168658642 109.31228434597142,235.1980079842615 109.96812656731345,236.62132852245122 110.68359080865048,237.9152542866068 111.33943303022534,238.75630501308478 112.1145192917902,240.05022763781017 112.59149545268156,241.53823630412808 113.42620373470709,242.8321548383683 113.84355787560344,243.99667989241425 114.61864413740113,244.70833333331393" stroke="#4dd2ff" stroke-linecap="round" stroke-linejoin="round" stroke-width="0.5"><title>2023-09-18 1.0km</title><desc>9870505463</desc></polyline><polyline fill="none" points="133.95347620127723,224.45833333331393 133.66279591363855,225.0260968549992 133.2558435110841,226.91863921360346 132.73261899338104,227.80182421894278 132.50007476331666,228.49575465667294 131.221081498079,230.57754260260845 130.75599303795025,231.7130611714092 130.46531275031157,232.72240974853048 130.69785698037595,233.41633620654466 131.9768502456136,236.1920364263351 132.61634687846527,237.20137973449891 133.0814353383612,238.27380569832167 133.83720408612862,239.28314655757276 134.2441564889159,239.97706770943478 134.76738100638613,241.61724274681183 137.03468724968843,244.70833333331393" stroke="#4dd2ff" stroke-linecap="round" stroke-linejoin="round" stroke-width="0.5"><title>2023-09-16 1.0km</title><desc>9856514700</desc></polyline><polyline fill="none" points="155.9700745639857,224.45833333331393 155.3480180397164,226.3483522325405 154.53934455802664,227.63086284097517 152.85979194217362,230.87088166020112 152.79758628970012,231.6133843626012 152.85979194217362,232.49088678183034 153.23302585678175,233.3683883624035 153.85508238128386,234.31338912650244 154.41493325307965,235.59588860766962 155.41022369195707,237.28338519536192 156.6543367409613,239.64587520738132 156.77874804567546,240.5233699491946 157.2141876127571,240.8608677034499 157.7118328323122,241.53586283978075 158.52050631376915,242.8858516237815 159.3913854479324,243.62834460882004 159.5780024053529,244.10083983209915 159.70241371029988,244.70833333331393" stroke="#4dd2ff" stroke-linecap="round" stroke-linejoin="round" stroke-width="0.5"><title>2023-09-15 1.0km</title><desc>9850671982</desc></polyline><polyline fill="none" points="179.26480475603603,224.45833333331393 178.23519524396397,227.181634324661 177.0768845428247,228.85750797612127 176.5620797870215,229.76527163595892 175.78987265285105,231.7204519562074 175.59682086925022,232.41872966650408 175.59682086925022,232.9773514647968 175.78987265285105,233.67562825093046 176.5620797870215,235.77045552886557 177.26993632642552,237.16700448043412 179.00740237813443,240.16957777243806 179.71525891753845,241.49629317992367 179.84396010637283,242.26439072663197 180.3587648626417,242.75317975098733 181.19532259111293,244.07989154930692 181.90317913074978,244.70833333331393" stroke="#4dd2ff" stroke-linecap="round" stroke-linejoin="round" stroke-width="0.5"><title>2023-09-14 1.0km</title><desc>9844236351</desc></polyline><polyline fill="none" points="18.031652596080676,248.625 18.402109851129353,248.9264932339429 18.541031321743503,249.22798633488128 18.63364563579671,249.88122093037236 18.91148857702501,250.43395740829874 19.096717204665765,251.99166689504636 19.096717204665765,252.74539601715514 19.004102890845388,253.14738454233157 19.096717204665765,253.64986986643635 19.328252989100292,254.2528517676401 19.235638675279915,254.7553362788749 19.28194583207369,255.00657839589985 19.745017401175573,255.8608009031159 20.161781813250855,257.1170085329795 20.532239068299532,257.8204837971134 20.995310637168586,258.47371017967816 21.504689362831414,258.92594346334226 21.643610833678395,259.22743215295486 21.782532304292545,259.88065719080623 22.152989559574053,260.53388160432223 22.569753971416503,261.73983272747137 23.125439854105935,262.7950382147101 23.403282795567065,263.69949876429746 23.542204266181216,264.45321497449186 23.820047207642347,265.05618734436575 24.329425933305174,266.7143586183083 25.024033286841586,268.02079375850735 25.07034044386819,268.2217835584306 25.024033286841586,268.37252586957766 24.468347403919324,268.875 24.746190345380455,268.674010392162 24.885111815994605,268.37252586957766 24.977726129814982,268.12128866591956 24.93141897302121,267.76955642551184 24.65357603179291,267.4178240040201 23.820047207642347,265.60891154926503 23.403282795567065,264.25222406635294 22.52344681462273,262.29255961440504 22.10668240254745,260.38313756434945 21.87514661811292,259.83040913322475 20.995310637168586,258.67470278718974 20.11547465622425,257.01651200756896 19.69871024414897,255.6598074681242 19.55978877376765,254.7553362788749 19.18933151825331,253.8006153916358 18.448417008155957,252.19266140891705 18.263188380515203,251.43893167714123 17.614888184005395,250.23296237713657 17.475966713391244,249.57972811779473 17.42965955636464,248.77574663364794" stroke="#4dd2ff" stroke-linecap="round" stroke-linejoin="round" stroke-width="0.5"><title>2023-09-13 1.0km</title><desc>9837636972</desc></polyline></svg>