<?xml version="1.0" encoding="utf-8" ?>
<svg baseProfile="full" height="300mm" version="1.1" viewBox="0,0,200,300" width="200mm" xmlns="http://www.w3.org/2000/svg" xmlns:ev="http://www.w3.org/2001/xml-events" xmlns:xlink="http://www.w3.org/1999/xlink"><defs /><rect fill="#222222" height="300" width="200" x="0" y="0" /><text fill="#FFFFFF" style="font-size:12px; font-family:Arial; font-weight:bold;" x="10" y="20">Over 1km Runs</text><text fill="#FFFFFF" style="font-size:4px; font-family:Arial" x="10" y="280">ATHLETE</text><text fill="#FFFFFF" style="font-size:9px; font-family:Arial" x="10" y="290">Jiakai</text><text fill="#FFFFFF" style="font-size:4px; font-family:Arial" x="120" y="280">STATISTICS</text><text fill="#FFFFFF" style="font-size:3px; font-family:Arial" x="120" y="285">Number: 8</text><text fill="#FFFFFF" style="font-size:3px; font-family:Arial" x="120" y="290">Weekly: 4.0</text><text fill="#FFFFFF" style="font-size:3px; font-family:Arial" x="141" y="285">Total: 8.1 km</text><text fill="#FFFFFF" style="font-size:3px; font-family:Arial" x="141" y="290">Avg: 1.0 km</text><text fill="#FFFFFF" style="font-size:3px; font-family:Arial" x="167" y="285">Min: 1.0 km</text><text fill="#FFFFFF" style="font-size:3px; font-family:Arial" x="167" y="290">Max: 1.0 km</text><polyline fill="none" points="42.862554367631674,33.0 42.42216138821095,34.59293962083757 41.54137542936951,35.548702831263654 39.63300585094839,39.05316432798281 38.89901755191386,41.60186003765557 36.69705265387893,47.17712144902907 34.34829009603709,51.95590552466456 32.880313497036695,55.46034048101865 32.439920517615974,57.21255583292805 32.439920517615974,58.32760122837499 32.880313497036695,59.92052222613711 33.76109945680946,61.51344205299392 35.66946903523058,66.45148607261945 37.57783861272037,69.95589758083224 38.60542223136872,72.50455693574622 40.513791809789836,75.6903769132914 41.688173088245094,77.12399437499698 42.56895904801786,79.67264529759996 44.9177216058597,83.81419665238354 47.560079482384026,87.0" stroke="#4dd2ff" stroke-linecap="round" stroke-linejoin="round" stroke-width="0.5"><title>2023-09-21 1.0km</title><desc>9889267953</desc></polyline><polyline fill="none" points="165.49787143664435,33.0 163.57078247936442,38.78140450408682 162.4372007404454,43.33270888705738 160.6234699562192,47.145954377250746 158.46966465143487,53.54234664782416 154.7288449103944,60.55374854023103 153.70862134499475,64.36695477657486 153.82197951851413,65.22800014319364 154.50212856242433,67.07309586496558 155.97578482422978,70.27125696255825 156.88265021611005,72.97738850058522 159.14981369534507,76.17553831113037 160.51011178316548,78.75865484925453 161.3036190001294,80.6037356487941 162.21048439154401,82.2028040291043 163.68414065381512,83.30985047400463 165.49787143664435,86.01596092234831 165.61122961109504,86.50798053340986 166.29137865500525,87.0" stroke="#4dd2ff" stroke-linecap="round" stroke-linejoin="round" stroke-width="0.5"><title>2023-09-20 1.0km</title><desc>9882714971</desc></polyline><polyline fill="none" points="44.477509080432355,93.0 43.32614960288629,95.91520653560292 41.15135947801173,102.30088131153025 41.023430646862835,104.38316189462785 40.25585766136646,105.4937105999561 39.36035584565252,107.57598766149022 38.84864052152261,109.51944418030325 37.82520987465978,112.1569891127292 34.882846764754504,116.87679716385901 34.11527377925813,119.6531493292423 33.85941611789167,122.15186278743204 34.11527377925813,124.6505729383789 34.882846764754504,127.42691367224324 35.778348580002785,129.3703497570241 38.59278285969049,134.22893121652305 40.0,136.17236029927153 41.2792883082293,139.6427644008072 42.55857661738992,141.86381967796478 43.837864925619215,143.66842516697943 45.245082065463066,145.0565820618067 46.14058388210833,147.0" stroke="#4dd2ff" stroke-linecap="round" stroke-linejoin="round" stroke-width="0.5"><title>2023-09-19 1.0km</title><desc>9876194288</desc></polyline><polyline fill="none" points="159.6025198660791,93.0 158.64856754336506,94.55273300828412 157.05864700768143,97.65819594240747 156.58167084585875,99.72850228124298 153.7198138795793,104.73173505929299 151.4939251281321,109.38990771071985 151.01694896724075,111.11515449406579 151.17594102118164,113.01292449003085 152.12989334389567,115.42826590244658 153.56082182656974,118.01612894213758 154.83275825623423,121.63913240260445 156.58167084585875,125.43465383769944 158.4895754903555,128.8851225420367 160.23848808091134,131.12792447931133 162.30538477841765,134.57838481198996 163.57732120715082,138.54640792217106 165.80320995952934,141.99685734673403 166.91615433525294,145.10225749085657 168.98305103275925,147.0" stroke="#4dd2ff" stroke-linecap="round" stroke-linejoin="round" stroke-width="0.5"><title>2023-09-18 1.0km</title><desc>9870505463</desc></polyline><polyline fill="none" points="40.542603203095496,153.0 39.76745576970279,154.51403605786618 38.68224936258048,159.56081568065565 37.286983982659876,161.91597569501027 36.666866035200655,163.7664568623295 33.25621732790023,169.31789138482418 32.01598143391311,172.34594090166502 31.240834000520408,175.03753710712772 31.860951947048306,176.8880076620262 35.27160065434873,184.28987491468433 36.976925008930266,186.98145706986543 38.21716090198606,189.84125964005943 40.232544229365885,192.53283526469022 41.31775063741952,194.3832916696556 42.713016017340124,198.75709176936653 48.75916599854827,207.0" stroke="#4dd2ff" stroke-linecap="round" stroke-linejoin="round" stroke-width="0.5"><title>2023-09-16 1.0km</title><desc>9856514700</desc></polyline><polyline fill="none" points="159.2535321712494,153.0 157.59471477288753,158.0400503978599 155.43825215566903,161.46007868717425 150.9594451803714,170.10012887162156 150.79356343951076,172.0801360779442 150.9594451803714,174.42014252929948 151.954735619016,176.7601467440836 153.61355301737785,179.28014878183603 155.1064886758104,182.70014739828184 157.76059651281685,187.20013829879463 161.0782313104719,193.5001116641797 161.4099947893992,195.84009764227085 162.5711669679731,196.74009165377356 163.89822088740766,198.5400786837563 166.05468350462615,202.14004877442494 168.37702786177397,204.12003006786108 168.87467308156192,205.3800173299387 169.20643656142056,207.0" stroke="#4dd2ff" stroke-linecap="round" stroke-linejoin="round" stroke-width="0.5"><title>2023-09-15 1.0km</title><desc>9850671982</desc></polyline><polyline fill="none" points="41.37281268276274,213.0 38.62718731723726,220.2621359769255 35.53835878055543,224.73113238089718 34.16554609872401,227.15183547371998 32.106327074579895,232.36564966104925 31.591522318311036,234.22772355517372 31.591522318311036,235.71738168387674 32.106327074579895,237.57945311372168 34.16554609872401,243.16565918829292 36.053163536824286,246.88978972565383 40.686406342312694,254.89665183750913 42.57402378041297,258.4345595908817 42.917226950637996,260.4828197155148 44.29003963340074,261.7862571137957 46.520860243588686,265.324155242648 48.408477681688964,267.0" stroke="#4dd2ff" stroke-linecap="round" stroke-linejoin="round" stroke-width="0.5"><title>2023-09-14 1.0km</title><desc>9844236351</desc></polyline><polyline fill="none" points="151.41774025605991,213.0 152.40562626952305,213.80398195714224 152.77608352480456,214.607963559567 153.02305502817035,216.34992248099297 153.7639695382677,217.82388642209116 154.25791254546493,221.9777783867903 154.25791254546493,223.9877227123361 154.0109410416335,225.05969211284537 154.25791254546493,226.3996529771248 154.87534130364656,228.00760471366812 154.62836980074644,229.34756341029424 154.7518555521965,230.01754238898866 155.9867130694911,232.2954690749757 157.09808483486995,235.6453560879454 158.0859708483331,237.52129012567457 159.32082836562768,239.26322714588605 160.67917163437232,240.4691825689515 161.04962888918817,241.27315240784083 161.42008614446968,243.01508584222756 162.40797215839848,244.75701761152595 163.51934392377734,247.97288727317937 165.00117294397205,250.7867685726378 165.7420874540694,253.19866337138228 166.1125447093509,255.208573265234 166.85345921991393,256.81649958493654 168.21180248865858,261.2382896487834 170.06408876460046,264.72211668931413 170.18757451651618,265.2580894890707 170.06408876460046,265.6600689855404 168.58225974394009,267.0 169.32317425403744,266.46402771235444 169.69363150931895,265.6600689855404 169.94060301221907,264.99010310904123 169.81711726123467,264.05215046799276 169.07620275113732,263.11419734405354 166.85345921991393,258.2904307979625 165.7420874540694,254.6725975102745 163.39585817186162,249.446825638297 162.28448640648276,244.35503350489307 161.66705764830112,242.88109102193266 159.32082836562768,239.79920743242837 156.97459908295423,235.37736535340082 155.8632273171097,231.75948658154812 155.49277006322518,229.34756341029424 154.50488404836506,226.80164104432333 152.52911202143878,222.51376375707332 152.03516901424155,220.50381780567113 150.3063684902154,217.287899672403 149.93591123539954,215.545941647375 149.81242548348382,213.40199102298357" stroke="#4dd2ff" stroke-linecap="round" stroke-linejoin="round" stroke-width="0.5"><title>2023-09-13 1.0km</title><desc>9837636972</desc></polyline></svg>