<?xml version="1.0" encoding="utf-8" ?>
<svg baseProfile="full" height="300mm" version="1.1" viewBox="0,0,200,300" width="200mm" xmlns="http://www.w3.org/2000/svg" xmlns:ev="http://www.w3.org/2001/xml-events" xmlns:xlink="http://www.w3.org/1999/xlink"><defs /><rect fill="#222222" height="300" width="200" x="0" y="0" /><text fill="#FFFFFF" style="font-size:12px; font-family:Arial; font-weight:bold;" x="10" y="20">Over 1km Runs</text><text fill="#FFFFFF" style="font-size:4px; font-family:Arial" x="10" y="280">ATHLETE</text><text fill="#FFFFFF" style="font-size:9px; font-family:Arial" x="10" y="290">Jiakai</text><text fill="#FFFFFF" style="font-size:4px; font-family:Arial" x="120" y="280">STATISTICS</text><text fill="#FFFFFF" style="font-size:3px; font-family:Arial" x="120" y="285">Number: 26</text><text fill="#FFFFFF" style="font-size:3px; font-family:Arial" x="120" y="290">Weekly: 5.2</text><text fill="#FFFFFF" style="font-size:3px; font-family:Arial" x="141" y="285">Total: 26.4 km</text><text fill="#FFFFFF" style="font-size:3px; font-family:Arial" x="141" y="290">Avg: 1.0 km</text><text fill="#FFFFFF" style="font-size:3px; font-family:Arial" x="167" y="285">Min: 1.0 km</text><text fill="#FFFFFF" style="font-size:3px; font-family:Arial" x="167" y="290">Max: 1.0 km</text><polyline fill="none" points="21.048070966266096,31.799999999813735 23.327391960658133,34.76795191434212 24.694984558038414,37.24124317523092 24.922916658222675,40.45651909708977 24.694984558038414,43.91912049916573 27.20223765168339,49.113015920389444 30.165354944765568,57.027507808292285 33.128472237847745,62.46871018107049 33.812268536537886,63.45801875856705 34.951929033733904,64.19999999995343 34.951929033733904,62.96336450614035 32.444675939157605,59.74811009480618 30.165354944765568,55.790869678603485 27.20223765168339,47.629046618472785 25.378780856728554,44.41377755184658 24.467052458785474,41.69316286453977" stroke="#4dd2ff" stroke-linecap="round" stroke-linejoin="round" stroke-width="0.5"><title>2023-10-12 1.0km</title><desc>10021974100</desc></polyline><polyline fill="none" points="60.21190333273262,36.3940492705442 61.10322019550949,41.22988367616199 60.880390980280936,43.16421544761397 62.885853921063244,49.69257677602582 64.44565843138844,52.594066539779305 66.00546294264495,57.91345779271796 68.23375509865582,63.23284044209868 68.67941353004426,63.71642025606707 69.79355960991234,64.19999999995343 69.57073039282113,63.23284044209868 67.11960902065039,56.94629638665356 64.44565843138844,52.352275823708624 60.880390980280936,44.13138090632856 59.98907411657274,40.98809212492779 59.54341568611562,36.3940492705442 58.20644039101899,31.800000000046566" stroke="#4dd2ff" stroke-linecap="round" stroke-linejoin="round" stroke-width="0.5"><title>2023-10-10 1.0km</title><desc>10009069592</desc></polyline><polyline fill="none" points="94.51119292061776,35.85001771640964 96.04805890284479,40.138266251189634 97.58492488600314,45.85592213761993 100.8782091345638,53.00297780823894 103.51283653266728,62.05589236272499 105.0497025148943,64.19999999995343 105.48880708124489,63.485297611914575 105.70835936442018,60.864720839774236 104.17149338219315,56.338265059748664 100.8782091345638,50.6206276693847 97.14582031965256,40.138266251189634 96.04805890284479,35.37354530626908 94.29164063651115,31.800000000046566" stroke="#4dd2ff" stroke-linecap="round" stroke-linejoin="round" stroke-width="0.5"><title>2023-10-09 1.0km</title><desc>10003389142</desc></polyline><polyline fill="none" points="129.40321855712682,31.799999999813735 131.02348066680133,33.809311263030395 132.64374277554452,37.576766695128754 133.5696068368852,45.11166509590112 137.04159707110375,52.6465468776878 140.05065527185798,61.186059473780915 141.43945136573166,63.69767676363699 142.59678144287318,64.19999999995343 142.59678144287318,62.19070661184378 138.19892714824528,55.15817044535652 132.4122767597437,41.093054683180526 130.097616603598,32.05116397282109" stroke="#4dd2ff" stroke-linecap="round" stroke-linejoin="round" stroke-width="0.5"><title>2023-10-08 1.0km</title><desc>9996447828</desc></polyline><polyline fill="none" points="167.84105338156223,38.28002667869441 168.9074499513954,42.214322082465515 172.1066396581009,50.77718331711367 173.17303622700274,54.48003501514904 176.5855052471161,63.0428628847003 177.65190181694925,64.19999999995343 177.8651811303571,63.27429034211673 177.8651811303571,62.34858041233383 173.8128741690889,55.17431922350079 171.89336034469306,51.00861167535186 168.4808913236484,40.82574779517017 167.41449475381523,35.5028740207199 166.13481887057424,31.799999999813735" stroke="#4dd2ff" stroke-linecap="round" stroke-linejoin="round" stroke-width="0.5"><title>2023-10-07 1.0km</title><desc>9989974159</desc></polyline><polyline fill="none" points="25.35291680507362,82.25109895179048 27.04705004952848,87.76599925826304 28.317649983800948,90.52344576292671 30.85884985141456,101.32342114928178 31.494149819016457,103.39149728463963 32.7647497523576,105.0 33.82358303014189,105.0 34.247116341255605,104.08085569227114 34.03534968663007,103.39149728463963 31.494149819016457,99.71491654124111 28.95294995047152,94.20003731758334 28.10588332824409,90.52344576292671 23.658783560618758,79.72343305964023 23.023483593948185,75.817036294844 21.752883659675717,72.5999999998603" stroke="#4dd2ff" stroke-linecap="round" stroke-linejoin="round" stroke-width="0.5"><title>2023-10-06 1.0km</title><desc>9984428862</desc></polyline><polyline fill="none" points="57.0247108573094,72.5999999998603 60.69591567013413,82.42626021034084 63.14338554441929,90.65905223996378 67.3040843307972,101.01640911051072 69.01731324288994,104.46885480266064 69.75155420601368,105.0 70.73054215591401,105.0 70.9752891426906,104.46885480266064 70.24104818049818,103.14099146495573 67.3040843307972,98.89182550739497 65.59085541870445,95.43937448575161 62.65389156900346,87.73774108709767 61.43015663232654,83.7541311616078 58.00369880814105,77.3803461433854 58.00369880814105,74.99017386231571" stroke="#4dd2ff" stroke-linecap="round" stroke-linejoin="round" stroke-width="0.5"><title>2023-10-04 1.0km</title><desc>9971682885</desc></polyline><polyline fill="none" points="95.09613310638815,76.38395843608305 96.18588130455464,80.16791242151521 97.27562950272113,82.76937820436433 98.14742806181312,86.7898211851716 102.28847121540457,95.06718797096983 102.50642085634172,97.90513739455491 103.81411869451404,103.58102873084135 104.25001797359437,104.29051444353536 105.55771581176668,105.0 105.55771581176668,102.63504753704183 102.72437049634755,97.43214599788189 100.76282373908907,92.9387242605444 99.67307553999126,90.81025914149359 98.58332734089345,87.73580703884363 96.40383094456047,83.24237175751477 95.53203238546848,79.69491841667332 95.09613310638815,76.14746116450988 94.442284187302,72.5999999998603" stroke="#4dd2ff" stroke-linecap="round" stroke-linejoin="round" stroke-width="0.5"><title>2023-10-03 1.0km</title><desc>9965060084</desc></polyline><polyline fill="none" points="130.07752940338105,73.93884868384339 133.03876470122486,83.57854468142614 133.53230391722172,87.86284582433291 135.25969117507339,90.00499450555071 136.49353921599686,93.21821516542695 138.71446568891406,101.51902208384126 140.44185294676572,104.19669769890606 141.67570098675787,105.0 141.92247059568763,104.73223258601502 141.18216177169234,102.59009256586432 138.46769608184695,97.50250496924855 134.0258431332186,86.79177101072855 131.3113774433732,78.75869987159967 130.81783822830766,72.60000000009313" stroke="#4dd2ff" stroke-linecap="round" stroke-linejoin="round" stroke-width="0.5"><title>2023-10-02 1.0km</title><desc>9958643020</desc></polyline><polyline fill="none" points="166.86423167027533,78.30242159054615 167.3419775608927,80.63522776495665 172.59718236420304,93.07683462416753 175.22478476632386,101.11201572045684 176.65802244003862,103.96320461085998 178.09126011282206,105.0 178.33013305906206,104.74080118117854 178.09126011282206,103.70400571636856 173.3138012001291,96.44642892666161 168.77521523460746,85.30083548207767 166.62535872403532,78.56162235303782 165.66986694186926,72.5999999998603" stroke="#4dd2ff" stroke-linecap="round" stroke-linejoin="round" stroke-width="0.5"><title>2023-10-01 1.0km</title><desc>9952075403</desc></polyline><polyline fill="none" points="23.34803781285882,118.09567254199646 25.29537082184106,122.0869887736626 26.160852157510817,126.07830001739785 26.809963160194457,129.83482368965633 30.055518174543977,138.99133162829094 32.8683325201273,144.86087419115938 34.16655452456325,145.80000000004657 34.599295194260776,145.09565566899255 30.27188850939274,138.52176775760017 28.324555500410497,134.06090753874741 27.675444497726858,131.71308386838064 24.6462598182261,125.13916840869933 22.91529714409262,117.86088907835074 21.4007048048079,113.39999999990687" stroke="#4dd2ff" stroke-linecap="round" stroke-linejoin="round" stroke-width="0.5"><title>2023-09-30 1.0km</title><desc>9945549317</desc></polyline><polyline fill="none" points="58.98367109242827,113.4000000001397 61.133526338264346,117.0288148066029 61.85014475416392,119.88002382032573 63.7611271943897,124.5456335961353 64.71661841589957,131.54403668292798 65.43323683086783,133.61763492948376 68.29971049167216,140.6160200086888 69.01632890757173,145.02240348723717 69.49407451786101,145.54080118145794 70.21069293282926,145.80000000004657 70.44956573843956,145.28160234354436 66.1498552467674,137.50562835554592 63.28338158503175,130.76643702597357 62.3278903644532,126.87843616842292 58.98367109242827,119.10242159152403 57.55043426156044,114.43680461170152" stroke="#4dd2ff" stroke-linecap="round" stroke-linejoin="round" stroke-width="0.5"><title>2023-09-28 1.0km</title><desc>9933629332</desc></polyline><polyline fill="none" points="93.66624555829912,117.08183401660062 95.47588968463242,123.46367002767511 98.86897242069244,128.12731170561165 101.13102757837623,136.47275950200856 104.29790479876101,142.11819765344262 105.20272686239332,145.309093255084 106.10754892416298,145.80000000004657 106.55995995737612,145.06363985524513 106.10754892416298,144.08182607661 104.29790479876101,141.62729036645032 99.09517793636769,131.0727662506979 96.38071174733341,123.70912501472048 93.44004004262388,113.4000000001397" stroke="#4dd2ff" stroke-linecap="round" stroke-linejoin="round" stroke-width="0.5"><title>2023-09-27 1.0km</title><desc>9927137811</desc></polyline><polyline fill="none" points="138.69157846015878,113.40000000002328 138.04559962963685,116.51542768091895 137.39962079934776,118.30679444799898 136.89719282020815,120.48758468410233 133.95440037013032,126.64050435979152 132.44711643271148,129.21070072986186 132.16001473017968,130.30108518438647 132.30356558109634,131.1578150400892 132.6624427093193,132.40396632021293 133.73907409328967,135.05203292350052 134.09795122151263,135.7529906220734 134.52860377519391,136.9991364966263 135.9641122869216,138.79046862316318 136.61009111744352,140.19237860897556 137.32784537388943,141.28275175992167 137.9020487787202,142.8404257428483 138.76335388608277,144.00867972685955 139.83998526982032,145.79999999998836" stroke="#4dd2ff" stroke-linecap="round" stroke-linejoin="round" stroke-width="0.5"><title>2023-09-26 1.0km</title><desc>9920397094</desc></polyline><polyline fill="none" points="171.8486890536733,113.40000000002328 170.43645355431363,118.10680053476244 169.02421805541962,120.62438540975563 167.71285651996732,122.26628629525658 167.00673877075315,123.57980569987558 166.70411687809974,124.89332394534722 166.8049908420071,126.53522012254689 167.30936066340655,127.84873576054815 168.51984823402017,129.70954759733286 169.02421805541962,131.57035710813943 170.0329576972872,133.97846008115448 171.94956301758066,136.3865591592621 175.17752987286076,142.95408230205067 177.29588312190026,145.80000000004657" stroke="#4dd2ff" stroke-linecap="round" stroke-linejoin="round" stroke-width="0.5"><title>2023-09-25 1.0km</title><desc>9914573673</desc></polyline><polyline fill="none" points="30.3886880078353,154.20000000006985 29.5924586718902,155.4096160538029 29.433212804608047,156.01442361366935 29.5924586718902,156.79203287616838 29.672081605531275,157.56964162387885 28.079622933175415,160.50727002706844 27.681508264970034,162.49448507663328 27.124147729948163,163.96329404017888 23.77998451795429,169.83851153438445 23.700361584778875,170.52971166092902 24.018853318877518,171.91211069514975 24.894705588463694,173.29450810304843 25.37244319031015,174.50410450075287 26.089049592614174,175.71369965339545 26.487164260819554,176.92329356085975 27.522262397687882,178.56488330115099 28.318491733632982,180.2064707482932 29.19434400415048,181.1568624327192 29.433212804608047,182.02085420605727 29.99057333962992,182.71204716723878 31.18491734424606,184.78562361211516 32.060769613832235,185.73601159313694 32.299638414755464,186.59999999997672" stroke="#4dd2ff" stroke-linecap="round" stroke-linejoin="round" stroke-width="0.5"><title>2023-09-24 1.0km</title><desc>9907510217</desc></polyline><polyline fill="none" points="65.20787457050756,154.19999999995343 64.53146481141448,155.24855521530844 64.0483149830252,156.29710965952836 63.75842508627102,157.66022928454913 63.66179512022063,159.4427683664253 62.01908570434898,161.64472533285152 61.05278604850173,164.16124341636896 60.18311635777354,165.4195007927483 59.60333656379953,167.09717556799296 59.506706597749144,168.87970285385381 61.535935876425356,174.01756315294188 62.30897560156882,175.59037382982206 64.82135470816866,179.57481978123542 65.8842843300663,182.19615973101463 67.23710384918377,183.87381477002054 68.01014357432723,185.23690803640056 68.49329340271652,186.59999999997672" stroke="#4dd2ff" stroke-linecap="round" stroke-linejoin="round" stroke-width="0.5"><title>2023-09-23 1.0km</title><desc>9901004991</desc></polyline><polyline fill="none" points="101.24411149369553,154.19999999995343 100.59901664499193,155.40001376438886 99.953921796754,157.5000353041105 98.4794192854315,160.6000611743657 97.00491677457467,162.70007468445692 95.71472707763314,166.20008999563288 95.62257067020983,168.10009453527164 95.8068834845908,169.20009595074225 97.65001162327826,173.60009271476883 97.92648084368557,174.90008903469425 98.29510647151619,175.60008653835393 99.58529616845772,177.20007947995327 100.59901664499193,179.20006800955161 101.42842430714518,181.3000528010307 102.81077041151002,183.300035302178 104.37742932932451,186.59999999997672" stroke="#4dd2ff" stroke-linecap="round" stroke-linejoin="round" stroke-width="0.5"><title>2023-09-22 1.0km</title><desc>9895405405</desc></polyline><polyline fill="none" points="137.71753262076527,154.19999999995343 137.4532968327403,155.1557637724327 136.9248252576217,155.72922169871163 135.77980351028964,157.83189859671984 135.33941053086892,159.36111602257006 134.0182315921411,162.70627286937088 132.6089740577154,165.57354331482202 131.72818809840828,167.67620428849477 131.46395231038332,168.72753349971026 131.46395231038332,169.39656073693186 131.72818809840828,170.3523133356357 132.25665967399254,171.30806523177307 133.40168142085895,174.27089164347854 134.54670316772535,176.37353854847606 135.1632533390075,177.9027341613546 136.3082750858739,179.81422614783514 137.01290385285392,180.67439662502147 137.5413754284382,182.20358717849012 138.95063296332955,184.688517991337 140.53604768961668,186.59999999997672" stroke="#4dd2ff" stroke-linecap="round" stroke-linejoin="round" stroke-width="0.5"><title>2023-09-21 1.0km</title><desc>9889267953</desc></polyline><polyline fill="none" points="175.29872286203317,154.20000000001164 174.14246948761865,157.66884270246373 173.4623204441741,160.39962533226935 172.37408197368495,162.6875726263388 171.08179879072122,166.5254079887527 168.8373069462832,170.73224912415026 168.22517280699685,173.02017286594491 168.29318771115504,173.53680008591618 168.70127713750117,174.64385751902591 169.58547089458443,176.5627541775466 170.12959012947977,178.18643310037442 171.48988821706735,180.1053229867248 172.3060670697596,181.65519290952943 172.78217140003107,182.76224138925318 173.3262906349264,183.7216824174393 174.2104843922425,184.38591028441442 175.29872286203317,186.00957655342063 175.36673776665702,186.30478832009248 175.77482719300315,186.59999999997672" stroke="#4dd2ff" stroke-linecap="round" stroke-linejoin="round" stroke-width="0.5"><title>2023-09-20 1.0km</title><desc>9882714971</desc></polyline><polyline fill="none" points="30.68650544853881,195.0000000000582 29.995689761824906,196.74912392144324 28.690815686713904,200.5805287869298 28.614058387931436,201.82989713683492 28.153514597099274,202.49622636003187 27.616213507484645,203.7455925969407 27.309184313286096,204.91166650824016 26.695125924889,206.4941934676608 24.929708058945835,209.32607829838526 24.46916426764801,210.99188959761523 24.315649670548737,212.49111767252907 24.46916426764801,213.99034376308555 24.929708058945835,215.6561482033576 25.467009148094803,216.82220985426102 27.15566971618682,219.7373587299371 28.0,220.9034161796444 28.76757298503071,222.9856586405076 29.535145970527083,224.3182918067905 30.302718955557793,225.4010551001993 31.147049239370972,226.23394923715387 31.684350329451263,227.40000000002328" stroke="#4dd2ff" stroke-linecap="round" stroke-linejoin="round" stroke-width="0.5"><title>2023-09-19 1.0km</title><desc>9876194288</desc></polyline><polyline fill="none" points="63.76151191955432,195.0 63.18914052657783,195.93163980485406 62.23518820479512,197.7949175654212 61.949002508074045,199.03710136876907 60.231888328213245,202.03904103545938 58.89635507715866,204.83394462626893 58.61016938043758,205.86909269634634 58.70556461298838,207.00775469397195 59.27793600643054,208.45695954142138 60.136493096128106,210.00967736518942 60.89965495374054,212.18347944144625 61.949002508074045,214.46079230250325 63.09374529449269,216.53107352519874 64.1430928488262,217.87675468751695 65.38323086732998,219.94703088712413 66.14639272447675,222.32784475327935 67.481925975997,224.39811440801714 68.14969260105863,226.26135449449066 69.38983062002808,227.40000000002328" stroke="#4dd2ff" stroke-linecap="round" stroke-linejoin="round" stroke-width="0.5"><title>2023-09-18 1.0km</title><desc>9870505463</desc></polyline><polyline fill="none" points="100.32556192250922,195.0 99.86047346191481,195.90842163469642 99.20934961782768,198.9364894083701 98.37219038978219,200.349585417076 98.00011962139979,201.4598741173977 95.9537303969264,204.7907348308945 95.20958886109293,206.60756454092916 94.74450040049851,208.22252226434648 95.11657116888091,209.33280459721573 97.16296039288864,213.77392494876403 98.18615500582382,215.3888742418494 98.9302965416573,217.10475578403566 100.13952653808519,218.71970115881413 100.79065038263798,219.8299750017468 101.62780961068347,222.45425506157335 105.25549959996715,227.40000000002328" stroke="#4dd2ff" stroke-linecap="round" stroke-linejoin="round" stroke-width="0.5"><title>2023-09-16 1.0km</title><desc>9856514700</desc></polyline><polyline fill="none" points="135.55211930256337,195.0 134.55682886345312,198.02403023885563 133.2629512930289,200.0760472123511 130.57566710747778,205.26007732306607 130.47613806370646,206.44808164681308 130.57566710747778,207.85208551760297 131.17284137103707,209.25608804647345 132.16813181014732,210.76808926917147 133.06389320502058,212.82008843903895 134.65635790722445,215.52008297934663 136.6469387859106,219.30006699846126 136.84599687345326,220.70405858533923 137.5427001803182,221.24405499221757 138.3389325318858,222.32404721027706 139.63281010231003,224.48402926477138 141.02621671697125,225.6720180407865 141.3248038487509,226.42801039805636 141.52386193629354,227.40000000002328" stroke="#4dd2ff" stroke-linecap="round" stroke-linejoin="round" stroke-width="0.5"><title>2023-09-15 1.0km</title><desc>9850671982</desc></polyline><polyline fill="none" points="172.82368760975078,195.0 171.17631239024922,199.3572815861553 169.3230152684264,202.0386794283986 168.4993276586756,203.49110128416214 167.26379624428228,206.61938979651313 166.95491339080036,207.73663413303439 166.95491339080036,208.6304290102562 167.26379624428228,209.74767186818644 168.4993276586756,213.09939551283605 169.6318981219083,215.3338738353923 172.41184380510822,220.13799110252876 173.54441426787525,222.26073575450573 173.75033617019653,223.48969182919245 174.5740237799473,224.2717542682076 175.9125161455013,226.39449314551894 177.04508660873398,227.40000000002328" stroke="#4dd2ff" stroke-linecap="round" stroke-linejoin="round" stroke-width="0.5"><title>2023-09-14 1.0km</title><desc>9844236351</desc></polyline><polyline fill="none" points="22.850644153542817,235.79999999998836 23.44337576208636,236.2823891742737 23.665650114882737,236.76477813575184 23.81383301736787,237.80995348858414 24.25838172296062,238.69433185324306 24.554747527465224,241.18666703207418 24.554747527465224,242.39263362740166 24.406564625445753,243.03581526770722 24.554747527465224,243.83979178627487 24.92520478228107,244.8045628281543 24.77702188072726,245.60853804612998 24.851113331504166,246.01052543340484 25.59202784160152,247.37728144496214 26.25885090092197,249.38721365272067 26.851582508999854,250.51277407538146 27.59249701956287,251.55793628748506 28.40750298090279,252.28150954138255 28.629777333699167,252.76389144471614 28.852051686961204,253.80905150528997 29.44478329550475,254.85421056690393 30.111606354359537,256.7837323639542 31.000703766476363,258.47206114354776 31.445252473000437,259.9191980228643 31.667526825796813,261.12514395912876 32.11207553232089,262.0898997509503 32.927081493195146,264.7429737892817 34.03845325903967,266.8332700136234 34.112544710282236,267.1548536934424 34.03845325903967,267.39604139130097 33.14935584645718,268.20000000001164 33.593904552515596,267.87841662741266 33.81617890577763,267.39604139130097 33.964361807797104,266.99406186537817 33.8902703570202,266.4312902807724 33.44572165096179,265.86851840640884 32.11207553232089,262.9742584787309 31.445252473000437,260.8035585061298 30.037514903582633,257.6680953829782 29.370691844262183,254.61302010295913 29.000234588980675,253.7286546131363 27.59249701956287,251.8795244594803 26.184759449679404,249.22641921206377 25.517936390358955,247.05569194891723 25.29566203802824,245.60853804612998 24.702930429484695,244.08098462660564 23.517467213328928,241.50825825420907 23.221101408824325,240.3022906834376 22.183821094222367,238.37273980339523 21.96154674142599,237.32756498840172 21.887455290183425,236.04119461379014" stroke="#4dd2ff" stroke-linecap="round" stroke-linejoin="round" stroke-width="0.5"><title>2023-09-13 1.0km</title><desc>9837636972</desc></polyline></svg>