<?xml version="1.0" encoding="utf-8" ?>
<svg baseProfile="full" height="300mm" version="1.1" viewBox="0,0,200,300" width="200mm" xmlns="http://www.w3.org/2000/svg" xmlns:ev="http://www.w3.org/2001/xml-events" xmlns:xlink="http://www.w3.org/1999/xlink"><defs /><rect fill="#222222" height="300" width="200" x="0" y="0" /><text fill="#FFFFFF" style="font-size:12px; font-family:Arial; font-weight:bold;" x="10" y="20">Over 1km Runs</text><text fill="#FFFFFF" style="font-size:4px; font-family:Arial" x="10" y="280">ATHLETE</text><text fill="#FFFFFF" style="font-size:9px; font-family:Arial" x="10" y="290">Jiakai</text><text fill="#FFFFFF" style="font-size:4px; font-family:Arial" x="120" y="280">STATISTICS</text><text fill="#FFFFFF" style="font-size:3px; font-family:Arial" x="120" y="285">Number: 37</text><text fill="#FFFFFF" style="font-size:3px; font-family:Arial" x="120" y="290">Weekly: 5.3</text><text fill="#FFFFFF" style="font-size:3px; font-family:Arial" x="141" y="285">Total: 38.7 km</text><text fill="#FFFFFF" style="font-size:3px; font-family:Arial" x="141" y="290">Avg: 1.0 km</text><text fill="#FFFFFF" style="font-size:3px; font-family:Arial" x="167" y="285">Min: 1.0 km</text><text fill="#FFFFFF" style="font-size:3px; font-family:Arial" x="167" y="290">Max: 1.5 km</text><polyline fill="none" points="20.00532038975507,31.5 19.823695676401258,32.87956863641739 20.91344395559281,37.41243201401085 22.366441660560668,40.36864313087426 23.27456522639841,43.9160921680741 24.909187643788755,48.64601691463031 28.360057192854583,55.34672935400158 29.449805471114814,58.10584137192927 29.81305489782244,58.5 30.176304324530065,58.30292069306597 29.99467961024493,55.7408883869648 27.99680776707828,51.99637522781268 26.543810062110424,49.828496797475964 24.727562930434942,45.68981492612511 24.36431350465864,43.52193139609881 22.184816947206855,40.17156249145046 20.91344395559281,37.21535115689039 20.550194528885186,33.66789325256832 20.00532038975507,31.5" stroke="#4dd2ff" stroke-linecap="round" stroke-linejoin="round" stroke-width="0.5"><title>2023-10-24 1.0km</title><desc>10092835699</desc></polyline><polyline fill="none" points="59.725324196740985,36.16189021081664 62.41049432847649,45.679890516679734 63.66357372328639,48.01082414062694 65.09566445928067,53.83814920345321 67.24380056466907,57.72302543837577 68.13885727524757,58.5 67.24380056466907,57.528781762113795 65.99072116985917,54.42088100290857 62.76851701270789,50.53599991230294 62.05247164424509,49.17629018146545 61.33642627578229,44.70866756676696 59.188290170393884,40.43528234469704 57.756199434399605,35.96764494967647 56.861142724752426,31.5" stroke="#4dd2ff" stroke-linecap="round" stroke-linejoin="round" stroke-width="0.5"><title>2023-10-23 1.0km</title><desc>10087395010</desc></polyline><polyline fill="none" points="91.2583675137721,31.629498378606513 91.73572628409602,31.5 95.13690752442926,31.758996738062706 96.62865368253551,32.14749170234427 96.98667276045308,32.341739120311104 97.76238076295704,32.924481116759125 98.29940937971696,33.57197177177295 99.492806305876,35.77343643736094 100.08950476930477,38.233890433155466 100.8652127715759,39.52886345918523 101.22323184926063,40.564840508799534 102.05860969773494,42.44254580512643 102.6553081611637,44.38499534671428 103.55035585584119,45.93895189516479 103.96804478019476,46.3921887052129 104.50507339718752,47.29866162565304 104.80342262866907,49.241100456158165 104.98243216751143,49.75908342085313 105.45979093806818,50.47130949964048 105.57913063117303,51.572021397645585 105.75814016978256,52.02525530860294 108.38361340807751,58.24101112637436 108.74163248599507,58.5 108.74163248599507,58.176263895933516 108.20460386900231,57.658285881974734 107.60790540603921,56.233844772563316 107.01120694261044,55.00364377879305 105.400121091865,50.01807478885166" stroke="#4dd2ff" stroke-linecap="round" stroke-linejoin="round" stroke-width="0.5"><title>2023-10-22 1.5km</title><desc>10080655811</desc></polyline><polyline fill="none" points="133.20558573654853,31.5 134.15288300043903,32.18528886185959 132.44774792529643,31.911173377535306 135.10018026432954,35.33761113631772 135.35279286815785,36.159954324073624 135.16333341551945,36.84523975942284 134.2791893023532,37.32493926456664 134.02657669852488,37.80463852267712 134.0897298497148,38.62697953346651 134.59495505690575,40.61430064769229 135.16333341551945,42.053392602538224 135.7948649248574,44.246290356095415 136.9316216413863,46.23359948891448 137.12108109425753,46.98740529286442 137.81576575455256,48.220904384274036 138.2578378112521,48.76912567886757 138.32099096174352,49.111763824068476 138.7630630186759,49.52292943227803 139.07882877299562,50.20820504275616 139.520900829928,51.51022731454577 139.9629728863947,52.40108361048624 139.89981973543763,54.18279364804039 140.72081069741398,55.75891891930951 140.9734233012423,56.512717020115815 141.41549535747617,57.33504152559908 142.1733331689611,58.29441919847159 142.55225207447074,58.5 141.09972960315645,56.44418994517764 140.7839638486039,55.34775606211042 140.1524323390331,53.977211894409265 139.89981973543763,53.086357104883064 139.07882877299562,51.92139186465647 138.38414411293343,49.93409485905431" stroke="#4dd2ff" stroke-linecap="round" stroke-linejoin="round" stroke-width="0.5"><title>2023-10-20 1.4km</title><desc>10069668027</desc></polyline><polyline fill="none" points="169.56703137257136,31.5 169.69562234613113,32.54652593983337 170.7243501334451,35.058183485642076 170.98153208033182,36.593082046485506 173.10328314173967,41.75590443867259 173.29616960207932,42.45358098583529 173.42476057563908,43.50009484484326 173.68194252229296,44.1977701097494 175.22503420338035,46.360560170782264 176.06087553082034,48.03497489710571 176.57523942436092,49.7093866688665 177.02530783158727,50.61635847843718 177.28248977847397,52.01169803109951 177.60396721214056,52.70936703804182 178.43980853934772,54.87213770003291 178.56839951267466,55.70933792338474 179.79001376056112,58.22093416174175 180.11149119399488,58.5 180.3043776541017,58.5 180.43296862742864,58.43023354804609 180.36867314088158,58.36046709102811 179.0827634066809,56.7558371637715 178.5041040261276,54.8023709814297 177.28248977847397,52.569833277666476 177.08960331836715,51.66286333516473 176.9610123448074,50.127989150292706" stroke="#4dd2ff" stroke-linecap="round" stroke-linejoin="round" stroke-width="0.5"><title>2023-10-19 1.3km</title><desc>10064004415</desc></polyline><polyline fill="none" points="18.91170686017722,61.5 21.558790833689272,64.94682409497909 21.382318569347262,67.43619421566837 21.735263098962605,69.92556195752695 22.970568954013288,74.32982213282958 24.73529160209,77.20216171373613 26.500014251098037,82.18087615049444 30.02945955004543,87.92553482879885 30.558876344934106,88.5 31.08829313889146,88.30851162341423 28.794153694994748,86.01065000984818 24.55881933774799,77.77662924979813 23.49998574797064,74.13833271479234 20.499957243911922,67.81917402287945" stroke="#4dd2ff" stroke-linecap="round" stroke-linejoin="round" stroke-width="0.5"><title>2023-10-18 1.0km</title><desc>10058081424</desc></polyline><polyline fill="none" points="57.7873885538429,63.13637109496631 59.29542421642691,71.93184924288653 63.254017831757665,82.36365937138908 65.89308024197817,87.88636654615402 67.02410698961467,88.5 67.58962036296725,88.5 67.96662927884609,87.6818220319692 66.64709807466716,86.0454653725028 64.95055795367807,83.38638374954462 62.68850445840508,78.47730330657214 61.74598216917366,75.61366904852912 57.7873885538429,67.63638664479367 57.41037963796407,66.40911039849743 57.03337072208524,61.5" stroke="#4dd2ff" stroke-linecap="round" stroke-linejoin="round" stroke-width="0.5"><title>2023-10-17 1.0km</title><desc>10051702317</desc></polyline><polyline fill="none" points="93.9707556432113,62.12307983194478 95.88480147067457,65.44616994820535 98.75587021093816,72.9231084161438 100.28710687346756,75.83080136496574 102.00974811799824,81.2307946155779 104.1151985283941,86.63077754480764 104.88081685919315,88.08461733930744 105.83783977292478,88.5 106.02924435585737,88.29230867745355 105.83783977292478,87.6692346171476 103.73238936252892,84.55386225529946 100.86132062226534,77.4923388492316 98.75587021093816,73.13080086861737 97.0332289673388,65.03078389703296 96.07620605360717,61.5" stroke="#4dd2ff" stroke-linecap="round" stroke-linejoin="round" stroke-width="0.5"><title>2023-10-16 1.0km</title><desc>10046279660</desc></polyline><polyline fill="none" points="131.97053427621722,61.5 132.76045795157552,63.21429314976558 133.5503816260025,67.07144905114546 135.32770989462733,73.07145919674076 137.69748091883957,76.71431647357531 140.46221378073096,87.00000656116754 141.4496183739975,88.07143052481115 142.8319848049432,88.5 143.0294657247141,88.07143052481115 142.8319848049432,86.78572172136046 140.2647328618914,83.14287703181617 138.8823664309457,78.85717156808823 137.30251908209175,76.28574526542798 133.5503816260025,67.50002161413431 132.1680151950568,61.5" stroke="#4dd2ff" stroke-linecap="round" stroke-linejoin="round" stroke-width="0.5"><title>2023-10-15 1.0km</title><desc>10039610121</desc></polyline><polyline fill="none" points="169.3813481060788,63.45968570327386 169.98334652278572,69.77421970525756 171.58867563586682,74.34680488915183 173.59533702675253,77.17744932160713 174.7993338610977,81.09679868584499 178.21065822523087,87.19355405378155 179.0133227808401,88.06451808195561 180.01665347721428,88.5 180.6186518939212,88.06451808195561 180.6186518939212,87.41129508474842 176.60532911214978,84.1451779382769 173.99666930455714,79.354866275331 172.9933386091143,75.21777269500308 170.58534494042397,69.77421970525756 169.3813481060788,65.20162746263668 169.58201424591243,62.370971583761275 169.3813481060788,61.5" stroke="#4dd2ff" stroke-linecap="round" stroke-linejoin="round" stroke-width="0.5"><title>2023-10-14 1.0km</title><desc>10033377496</desc></polyline><polyline fill="none" points="18.87809242028743,91.92857338255271 22.43274843506515,96.21430373727344 22.827710214070976,99.4285973678343 26.18488533888012,109.7143131652847 29.344579573720694,117.2142913856078 30.33198402170092,118.5 31.121907580643892,118.5 31.121907580643892,117.85714576416649 30.92442669067532,117.2142913856078 29.147098682820797,115.92858220404014 27.17228978779167,112.28573644324206 25.000000000931323,105.42860266123898 21.050382207147777,96.64287642599083 20.457939538173378,93.64286628039554 19.47053508926183,91.5" stroke="#4dd2ff" stroke-linecap="round" stroke-linejoin="round" stroke-width="0.5"><title>2023-10-13 1.0km</title><desc>10028006924</desc></polyline><polyline fill="none" points="56.706725805066526,91.5 58.60615996737033,93.97329326206818 59.74582046456635,96.03436931292526 59.93576388154179,98.71376591431908 59.74582046456635,101.59926708275452 61.83519804291427,105.92751326714642 64.30446245428175,112.52292317361571 66.7737268647179,117.0572584841866 67.34355711378157,117.88168229884468 68.29327419400215,118.5 68.29327419400215,117.46947042178363 66.20389661658555,114.79009174578823 64.30446245428175,111.49239139887504 61.83519804291427,104.69087218213826 60.31565071363002,102.01148129324429 59.555877048522234,99.74430238734931" stroke="#4dd2ff" stroke-linecap="round" stroke-linejoin="round" stroke-width="0.5"><title>2023-10-12 1.0km</title><desc>10021974100</desc></polyline><polyline fill="none" points="96.84325277712196,95.328374392353 97.5860168300569,99.35823639691807 97.400325817056,100.97017953987233 99.07154493406415,106.4104806468822 100.37138202600181,108.82838878338225 101.67121911793947,113.26121482742019 103.52812924887985,117.69403370190412 103.89951127488166,118.09701688028872 104.82796634081751,118.5 104.6422753278166,117.69403370190412 102.59967418387532,112.4552469891496 100.37138202600181,108.6268965199124 97.400325817056,101.77615075535141 96.65756176412106,99.15674343751743 96.28617973811924,95.328374392353 95.17203365918249,91.5" stroke="#4dd2ff" stroke-linecap="round" stroke-linejoin="round" stroke-width="0.5"><title>2023-10-10 1.0km</title><desc>10009069592</desc></polyline><polyline fill="none" points="132.92599410098046,94.87501476355828 134.20671575237066,98.44855520920828 135.48743740469217,103.21326844790019 138.23184094484895,109.16914817341603 140.42736377660185,116.71324363560416 141.70808542892337,118.5 142.07400590088218,117.90441467636265 142.25696613732725,115.72060069977306 140.97624448500574,111.94855421641842 138.23184094484895,107.18385639088228 135.12151693273336,98.44855520920828 134.20671575237066,94.47795442165807 132.74303386360407,91.5" stroke="#4dd2ff" stroke-linecap="round" stroke-linejoin="round" stroke-width="0.5"><title>2023-10-09 1.0km</title><desc>10003389142</desc></polyline><polyline fill="none" points="169.5026821307838,91.5 170.85290055535734,93.17442605248652 172.20311897993088,96.31397224590182 172.97467236500233,102.59305424662307 175.8679975597188,108.87212239811197 178.37554606050253,115.98838289501145 179.53287613857538,118.08139730314724 180.4973178692162,118.5 180.4973178692162,116.82558884308673 176.83243929035962,110.96514203771949 172.01023063343018,99.24421223602258 170.08134717028588,91.70930331083946" stroke="#4dd2ff" stroke-linecap="round" stroke-linejoin="round" stroke-width="0.5"><title>2023-10-08 1.0km</title><desc>9996447828</desc></polyline><polyline fill="none" points="21.53421115130186,126.90002223243937 22.42287495918572,130.17860173550434 25.08886638097465,137.31431943108328 25.97753018885851,140.40002917940728 28.82125437259674,147.5357190708164 29.7099181804806,148.5 29.887650941498578,147.7285752852913 29.887650941498578,146.95715034380555 26.51072847377509,140.97859935299493 24.911133619956672,137.507176396437 22.06740943621844,129.02145649609156 21.178745628334582,124.58572835079394 20.112349058501422,121.5" stroke="#4dd2ff" stroke-linecap="round" stroke-linejoin="round" stroke-width="0.5"><title>2023-10-07 1.0km</title><desc>9989974159</desc></polyline><polyline fill="none" points="60.29409733694047,129.5425824597478 61.70587504096329,134.138332715258 62.76470831874758,136.43620480247773 64.88237487524748,145.43618429102935 65.41179151460528,147.15958107053302 66.4706247933209,148.5 67.35298585798591,148.5 67.70593028329313,147.73404641030356 67.52945807110518,147.15958107053302 65.41179151460528,144.0957637843676 63.294124958105385,139.50003109802492 62.588236106559634,136.43620480247773 58.88231963291764,127.43619421636686 58.35290299355984,124.18086357903667 57.29406971577555,121.5" stroke="#4dd2ff" stroke-linecap="round" stroke-linejoin="round" stroke-width="0.5"><title>2023-10-06 1.0km</title><desc>9984428862</desc></polyline><polyline fill="none" points="94.1872590482235,121.5 97.24659639131278,129.68855017540045 99.28615462034941,136.54921020008624 102.75340360961854,145.18034092569724 104.18109436891973,148.05737900245003 104.79296183772385,148.5 105.60878513008356,148.5 105.8127409517765,148.05737900245003 105.20087348297238,146.95082622091286 102.75340360961854,143.40985458972864 101.32571284938604,140.53281207149848 98.87824297416955,134.1147842395585 97.8584638601169,130.79510930157267 95.00308233965188,125.48362178634852 95.00308233965188,123.49181155208498" stroke="#4dd2ff" stroke-linecap="round" stroke-linejoin="round" stroke-width="0.5"><title>2023-10-04 1.0km</title><desc>9971682885</desc></polyline><polyline fill="none" points="133.41344425641,124.65329869673587 134.3215677542612,127.80659368471242 135.2296912530437,129.9744818371255 135.95619005244225,133.324850987643 139.40705934725702,140.22265664255247 139.58868404757231,142.58761449554004 140.6784322457388,147.317523942329 141.04168164543808,147.90876203635707 142.13142984360456,148.5 142.13142984360456,146.52920628082938 139.7703087478876,142.19345499831252 138.13568644970655,138.4489368838258 137.22756295092404,136.67521595116705 136.3194394512102,134.1131725325249 134.5031924545765,130.36864313133992 133.77669365517795,127.41243201401085 133.41344425641,124.45621763705276 132.86857015639544,121.5" stroke="#4dd2ff" stroke-linecap="round" stroke-linejoin="round" stroke-width="0.5"><title>2023-10-03 1.0km</title><desc>9965060084</desc></polyline><polyline fill="none" points="170.0646078363061,122.61570723657496 172.53230391815305,130.64878723444417 172.94358659908175,134.2190381870605 174.38307597953826,136.0041620878037 175.4112826809287,138.68184597115032 177.2620547413826,145.5991850697901 178.70154412277043,147.83058141567744 179.72975082322955,148.5 179.9353921636939,148.27686048811302 179.31846814323217,146.49174380488694 177.05641340184957,142.25208747433499 173.35486927814782,133.32647584215738 171.09281453676522,126.63224989292212 170.68153185676783,121.5" stroke="#4dd2ff" stroke-linecap="round" stroke-linejoin="round" stroke-width="0.5"><title>2023-10-02 1.0km</title><desc>9958643020</desc></polyline><polyline fill="none" points="20.720193058252335,156.25201799208298 21.11831463407725,158.1960231375415 25.497651970013976,168.56402885355055 27.687320638448,175.2600131004583 28.88168536685407,177.63600384257734 30.076050093397498,178.5 30.27511088270694,178.28400098439306 30.076050093397498,177.42000476364046 26.09483433328569,171.37202410562895 22.312679362483323,162.08402956835926 20.521132269874215,156.4680186274927 19.724889118224382,151.5" stroke="#4dd2ff" stroke-linecap="round" stroke-linejoin="round" stroke-width="0.5"><title>2023-10-01 1.0km</title><desc>9952075403</desc></polyline><polyline fill="none" points="58.62336484435946,155.41306045162492 60.24614235199988,158.7391573113855 60.96737679839134,162.0652500144206 61.50830263458192,165.19568640808575 64.21293181274086,172.82610969012603 66.55694376770407,177.71739515918307 67.63879543822259,178.5 67.99941266234964,177.9130463907495 64.39324042480439,172.43480646470562 62.77046291809529,168.71742294891737 62.22953708283603,166.76090322365053 59.7052165158093,161.282640340738 58.262747621163726,155.2174075653311 57.00058733765036,151.5" stroke="#4dd2ff" stroke-linecap="round" stroke-linejoin="round" stroke-width="0.5"><title>2023-09-30 1.0km</title><desc>9945549317</desc></polyline><polyline fill="none" points="95.81972591113299,151.5 97.61127194948494,154.52401233883575 98.20845396257937,156.90001985034905 99.80093932896852,160.788027996663 100.59718201402575,166.62003056914546 101.19436402618885,168.34802910801955 103.58309207763523,174.18001667386852 104.18027408979833,177.8520029061474 104.57839543186128,178.2840009846259 105.1755774449557,178.5 105.37463811598718,178.06800195295364 101.79154603928328,171.58802362973802 99.4028179878369,165.97203085501678 98.60657530464232,162.73203014023602 95.81972591113299,156.25201799278148 94.62536188494414,152.36400384292938" stroke="#4dd2ff" stroke-linecap="round" stroke-linejoin="round" stroke-width="0.5"><title>2023-09-28 1.0km</title><desc>9933629332</desc></polyline><polyline fill="none" points="132.22187129873782,154.56819501379505 133.72990807145834,159.88639168953523 136.55747701786458,163.77275975467637 138.44252298213542,170.72729958500713 141.08158733230084,175.43183137779124 141.83560571912676,178.09091104590334 142.58962410409003,178.5 142.96663329843432,177.8863665459212 142.58962410409003,177.06818839721382 141.08158733230084,175.02274197200313 136.7459816141054,166.2273052087985 134.4839264564216,160.09093751222827 132.033366702497,151.5" stroke="#4dd2ff" stroke-linecap="round" stroke-linejoin="round" stroke-width="0.5"><title>2023-09-27 1.0km</title><desc>9927137811</desc></polyline><polyline fill="none" points="177.24298205017112,151.5 176.70466635818593,154.09618973411852 176.16635066620074,155.5889953733422 175.74766068346798,157.40632057009498 173.29533364181407,162.5337536331499 172.03926369408146,164.67558394157095 171.80001227511093,165.5842376536457 171.91963798436336,166.29817920009373 172.2187022578437,167.33663860021625 173.115895077819,169.54336076957406 173.41495935129933,170.12749218509998 173.77383647928946,171.16594708053162 174.97009357251227,172.65872385265538 175.5084092647303,173.8269821741269 176.10653781169094,174.7356264666305 176.5850406489335,176.03368811903056 177.30279490514658,177.0072331057745 178.1999877251219,178.5" stroke="#4dd2ff" stroke-linecap="round" stroke-linejoin="round" stroke-width="0.5"><title>2023-09-26 1.0km</title><desc>9920397094</desc></polyline><polyline fill="none" points="24.873907544650137,181.5 23.6970446286723,185.4223337789299 22.520181713160127,187.52032117464114 21.427380433306098,188.8885719126556 20.83894897578284,189.98317141644657 20.586764065083116,191.07776995445602 20.670825701672584,192.44601676869206 21.091133886482567,193.5406131336931 22.099873528350145,195.09128966438584 22.520181713160127,196.64196425664704 23.36079808138311,198.64871673414018 24.957969181705266,200.65546596597414 27.64794156095013,206.12840191822033 29.413235934916884,208.5" stroke="#4dd2ff" stroke-linecap="round" stroke-linejoin="round" stroke-width="0.5"><title>2023-09-25 1.0km</title><desc>9914573673</desc></polyline><polyline fill="none" points="64.49057334009558,181.5 63.827048893785104,182.50801337813027 63.69434400415048,183.012019678019 63.827048893785104,183.6600273968652 63.89340133825317,184.30803468660451 62.5663524447009,186.75605835590977 62.23459022119641,188.412070897175 61.7701231087558,189.63607836677693 58.98332043224946,194.53209294530097 58.91696798754856,195.1080930508324 59.182377765886486,196.26009224599693 59.91225465759635,197.4120900858543 60.31036932580173,198.42008708399953 60.90754132764414,199.4280830444768 61.23930355114862,200.43607796734432 62.10188533202745,201.80406941764522 62.765409778570756,203.1720589569304 63.49528667051345,203.964052027266 63.69434400415048,204.6840451717144 64.15881111705676,205.2600393060129 65.15409778733738,206.98801967676263 65.88397467858158,207.78000966098625 66.08303201268427,208.5" stroke="#4dd2ff" stroke-linecap="round" stroke-linejoin="round" stroke-width="0.5"><title>2023-09-24 1.0km</title><desc>9907510217</desc></polyline><polyline fill="none" points="101.00656214216724,181.5 100.44288734253496,182.37379601283465 100.04026248585433,183.2475913829403 99.79868757212535,184.38352440390736 99.71816260041669,185.86897363874596 98.34923808695748,187.70393777731806 97.54398837359622,189.80103618034627 96.81926363147795,190.84958399401512 96.33611380308867,192.2476463066414 96.25558883138001,193.73308571160305 97.94661323027685,198.0146359608043 98.59081300115213,199.32531152490992 100.6844622567296,202.64568315108772 101.57023694179952,204.83013310923707 102.69758654106408,206.22817897505593 103.34178631193936,207.36409003043082 103.74441116908565,208.5" stroke="#4dd2ff" stroke-linecap="round" stroke-linejoin="round" stroke-width="0.5"><title>2023-09-23 1.0km</title><desc>9901004991</desc></polyline><polyline fill="none" points="138.53675957862288,181.5 137.99918053811416,182.50001147040166 137.46160149760544,184.2500294201309 136.23284940514714,186.8333843119908 135.00409731268883,188.58339557045838 133.9289392316714,191.50007499643834 133.8521422254853,193.08341211284278 134.0057362378575,194.0000799590489 135.54167635319754,197.66674392909044 135.77206737035885,198.75007419561734 136.0792553932406,199.3334054487059 137.15441347425804,200.66673290001927 137.99918053811416,202.3333900080761 138.69035359006375,204.08337733428925 139.84230867680162,205.75002941855928 141.14785777498037,208.5" stroke="#4dd2ff" stroke-linecap="round" stroke-linejoin="round" stroke-width="0.5"><title>2023-09-22 1.0km</title><desc>9895405405</desc></polyline><polyline fill="none" points="176.43127718381584,181.5 176.21108069410548,182.29646981041878 175.77068771468475,182.77435141563183 174.8165029254742,184.5265821639914 174.44950877595693,185.80093001882778 173.34852632693946,188.58856072451454 172.17414504801854,190.97795276233228 171.44015674851835,192.73017024050932 171.219960258808,193.60627791646402 171.219960258808,194.1638006141875 171.44015674851835,194.96026111306855 171.88054972840473,195.75672102649696 172.8347345176153,198.22574303630972 173.78891930636019,199.97794879041612 174.30271111568436,201.2522784678731 175.25689590489492,202.8451884566457 175.84408654412255,203.5619971874985 176.28447952400893,204.83632264879998 177.45886080292985,206.90709832619177 178.780039741192,208.5" stroke="#4dd2ff" stroke-linecap="round" stroke-linejoin="round" stroke-width="0.5"><title>2023-09-21 1.0km</title><desc>9889267953</desc></polyline><polyline fill="none" points="27.748935718322173,211.5 26.785391239682212,214.3907022520434 26.218600370222703,216.6663544435287 25.311734978109598,218.57297718862537 24.234832325717434,221.77117332391208 22.3644224551972,225.2768742701155 21.854310672497377,227.18347738828743 21.910989759257063,227.61400007159682 22.251064281212166,228.5365479324828 22.98789241211489,230.13562848127913 23.441325108055025,231.4886942502926 24.574906847672537,233.08776915556518 25.255055891582742,234.37932742462726 25.6518095000647,235.30186782439705 26.105242195772007,236.10140201455215 26.84207032690756,236.65492523700232 27.748935718322173,238.00798046117416 27.80561480554752,238.25399026670493 28.145689327502623,238.5" stroke="#4dd2ff" stroke-linecap="round" stroke-linejoin="round" stroke-width="0.5"><title>2023-09-20 1.0km</title><desc>9882714971</desc></polyline><polyline fill="none" points="64.73875454021618,211.5 64.16307480144314,212.95760326780146 63.075679739005864,216.15044065576512 63.01171532343142,217.19158094731392 62.62792883068323,217.74685529997805 62.18017792282626,218.7879938307451 61.924320260761306,219.75972209015163 61.41260493732989,221.0784945563646 59.94142338237725,223.4383985819295 59.557636889629066,224.82657466462115 59.429708058945835,226.07593139371602 59.557636889629066,227.32528646918945 59.94142338237725,228.71345683612162 60.38917429000139,229.68517487851204 61.796391429845244,232.11446560826153 62.5,233.08618014963577 63.13964415411465,234.8213822004036 63.77928830869496,235.9319098389824 64.41893246280961,236.83421258348972 65.12254103273153,237.52829103090335 65.57029194105417,238.5" stroke="#4dd2ff" stroke-linecap="round" stroke-linejoin="round" stroke-width="0.5"><title>2023-09-19 1.0km</title><desc>9876194288</desc></polyline><polyline fill="none" points="99.80125993303955,211.5 99.32428377168253,212.27636650414206 98.52932350384071,213.82909797120374 98.29083542292938,214.8642511406215 96.85990693978965,217.3658675296465 95.74696256406605,219.69495385535993 95.50847448362038,220.5575772470329 95.58797051059082,221.50646224501543 96.06494667194784,222.7141329512233 96.78041091328487,224.0080644710688 97.41637912811711,225.81956620130222 98.29083542292938,227.71732691884972 99.24478774517775,229.44256127101835 100.11924404045567,230.56396223965567 101.15269238920882,232.28919240599498 101.78866060357541,234.27320396108553 102.90160497976467,235.99842867336702 103.45807716762647,237.5511287454283 104.49152551637962,238.5" stroke="#4dd2ff" stroke-linecap="round" stroke-linejoin="round" stroke-width="0.5"><title>2023-09-18 1.0km</title><desc>9870505463</desc></polyline><polyline fill="none" points="137.77130160154775,211.5 137.3837278848514,212.2570180289331 136.84112468129024,214.78040784032783 136.14349199132994,215.95798784750514 135.83343301760033,216.88322843116475 134.12810866395012,219.6589456924121 133.50799071695656,221.1729704508325 133.1204170002602,222.51876855356386 133.43047597352415,223.4440038310131 135.13580032717437,227.14493745734217 135.98846250446513,228.4907285349327 136.60858045099303,229.92062982002972 137.61627211468294,231.2664176323451 138.15887531870976,232.1916458348278 138.85650800867006,234.37854588468326 141.87958299927413,238.5" stroke="#4dd2ff" stroke-linecap="round" stroke-linejoin="round" stroke-width="0.5"><title>2023-09-16 1.0km</title><desc>9856514700</desc></polyline><polyline fill="none" points="174.6267660856247,211.5 173.79735738644376,214.02002519892994 172.71912607783452,215.73003934358712 170.4797225901857,220.05006443581078 170.39678171975538,221.0400680389721 170.4797225901857,222.21007126464974 170.977367809508,223.3800733720418 171.80677650868893,224.64007439091802 172.5532443379052,226.35007369914092 173.88029825640842,228.6000691493973 175.53911565523595,231.75005583208986 175.7049973946996,232.92004882113542 176.28558348398656,233.37004582688678 176.94911044370383,234.27003934187815 178.02734175231308,236.07002438721247 179.18851393088698,237.06001503393054 179.43733654078096,237.69000866496935 179.60321828071028,238.5" stroke="#4dd2ff" stroke-linecap="round" stroke-linejoin="round" stroke-width="0.5"><title>2023-09-15 1.0km</title><desc>9850671982</desc></polyline><polyline fill="none" points="25.68640634138137,241.5 24.31359365861863,245.13106798846275 22.769179390277714,247.3655661904486 22.082773049362004,248.57591773686 21.053163537289947,251.18282483052462 20.795761159155518,252.11386177758686 20.795761159155518,252.85869084193837 21.053163537289947,253.78972655686084 22.082773049362004,256.58282959414646 23.026581768412143,258.4448948628269 25.343203171156347,262.44832591875456 26.287011890206486,264.21727979544085 26.458613475318998,265.2414098577574 27.14501981670037,265.89312855689786 28.260430121794343,267.662077621324 29.204238840844482,268.5" stroke="#4dd2ff" stroke-linecap="round" stroke-linejoin="round" stroke-width="0.5"><title>2023-09-14 1.0km</title><desc>9844236351</desc></polyline><polyline fill="none" points="58.20887012802996,241.5 58.70281313476153,241.90199097857112 58.88804176240228,242.3039817797835 59.011527514085174,243.1749612404965 59.38198476913385,243.91194321104558 59.62895627273247,245.98888919339515 59.62895627273247,246.99386135616805 59.50547052081674,247.52984605642268 59.62895627273247,248.1998264885624 59.93767065182328,249.00380235683406 59.81418490037322,249.67378170514712 59.87592777609825,250.00877119449433 60.493356534745544,251.14773453748785 61.049042417434976,252.8226780439727 61.542985424166545,253.76064506283728 62.16041418281384,254.63161357294302 62.83958581718616,255.23459128447575 63.024814444594085,255.6365762039204 63.21004307223484,256.5075429211138 63.70398607919924,257.378508805763 64.25967196188867,258.9864436365897 65.00058647198603,260.3933842863189 65.3710437270347,261.59933168569114 65.55627235467546,262.604286632617 65.92672960995696,263.40824979246827 66.60590124432929,265.6191448243917 67.53204438230023,267.36105834465707 67.59378725825809,267.62904474453535 67.53204438230023,267.8300344927702 66.79112987197004,268.5 67.16158712701872,268.2320138561772 67.34681575465947,267.8300344927702 67.47030150610954,267.4950515545206 67.40855863061734,267.0260752339964 67.03810137556866,266.55709867202677 65.92672960995696,264.14521539898124 65.3710437270347,262.33629875513725 64.19792908593081,259.7234128191485 63.64224320324138,257.17751675244654 63.33352882415056,256.44054551096633 62.16041418281384,254.8996037162142 60.987299541477114,252.6886826767004 60.43161365855485,250.87974329077406 60.24638503161259,249.67378170514712 59.75244202418253,248.40082052216167 58.76455601071939,246.25688187853666 58.51758450712077,245.25190890283557 57.653184245107695,243.6439498362015 57.46795561769977,242.7729708236875 57.40621274174191,241.70099551149178" stroke="#4dd2ff" stroke-linecap="round" stroke-linejoin="round" stroke-width="0.5"><title>2023-09-13 1.0km</title><desc>9837636972</desc></polyline></svg>