<svg xmlns="http://www.w3.org/2000/svg" xmlns:ev="http://www.w3.org/2001/xml-events" xmlns:xlink="http://www.w3.org/1999/xlink" width="200mm" height="300mm" baseProfile="full" version="1.1" viewBox="0 0 200 300"><rect width="200" height="300" x="0" y="0" fill="#222"/><text fill="#FFF" style="font-size:12px;font-family:Arial;font-weight:700" x="10" y="20">Over 1km Runs</text><text fill="#FFF" style="font-size:4px;font-family:Arial" x="10" y="280">ATHLETE</text><text fill="#FFF" style="font-size:9px;font-family:Arial" x="10" y="290">Jiakai</text><text fill="#FFF" style="font-size:4px;font-family:Arial" x="120" y="280">STATISTICS</text><text fill="#FFF" style="font-size:3px;font-family:Arial" x="120" y="285">Number: 94</text><text fill="#FFF" style="font-size:3px;font-family:Arial" x="120" y="290">Weekly: 5.9</text><text fill="#FFF" style="font-size:3px;font-family:Arial" x="141" y="285">Total: 97.4 km</text><text fill="#FFF" style="font-size:3px;font-family:Arial" x="141" y="290">Avg: 1.0 km</text><text fill="#FFF" style="font-size:3px;font-family:Arial" x="167" y="285">Min: 1.0 km</text><text fill="#FFF" style="font-size:3px;font-family:Arial" x="167" y="290">Max: 1.5 km</text><polyline fill="none" stroke="#4dd2ff" stroke-linecap="round" stroke-linejoin="round" stroke-width=".5" points="17.622 34.273 18.55 36.538 19.246 39.434 20.406 43.21 21.682 45.979 22.494 47.993 22.958 48.748 23.422 49 23.306 48.119 22.726 46.734 18.898 39.434 18.202 37.294 17.97 35.28 17.158 33.14 16.578 31"><title>2024-01-05 1.0km</title><desc>10495609202</desc></polyline><polyline fill="none" stroke="#4dd2ff" stroke-linecap="round" stroke-linejoin="round" stroke-width=".5" points="39.064 31 39.835 32.814 40.478 34.767 41.378 36.581 43.05 41.326 45.108 46.07 45.879 48.581 46.393 49 46.651 48.302 46.522 47.326 43.436 41.047 42.407 37.419 41.378 31.558"><title>2024-01-04 1.0km</title><desc>10489071805</desc></polyline><polyline fill="none" stroke="#4dd2ff" stroke-linecap="round" stroke-linejoin="round" stroke-width=".5" points="63.214 34.309 64.799 38.676 66.751 43.044 67.727 46.75 68.581 49 68.703 49 68.703 48.074 68.093 45.824 66.873 43.044 65.897 40.265 64.312 37.088 63.336 34.176 62.726 32.324 63.092 31"><title>2024-01-03 1.0km</title><desc>10482519748</desc></polyline><polyline fill="none" stroke="#4dd2ff" stroke-linecap="round" stroke-linejoin="round" stroke-width=".5" points="84.938 31.298 88.092 40.521 91.382 48.405 92.067 49 92.204 48.405 91.793 47.364 88.366 40.818 87.132 37.545 85.35 31"><title>2024-01-01 1.0km</title><desc>10470902913</desc></polyline><polyline fill="none" stroke="#4dd2ff" stroke-linecap="round" stroke-linejoin="round" stroke-width=".5" points="119.045 35.408 118.82 35.776 116.45 37.49 115.434 38.592 114.757 39.816 114.306 40.429 113.967 40.551 112.501 40.551 111.146 41.041 109.341 40.918 108.438 40.551 107.874 39.694 107.536 38.959 107.423 37.245 107.084 36.51 105.73 36.51 104.602 36.878 104.489 37 104.94 37.245 105.166 37 104.376 37 104.15 36.755 103.925 35.898 103.812 34.429 104.376 34.551 104.827 35.531 105.843 36.633 106.633 36.633 107.31 36.143 107.874 36.265 107.987 36.02 106.971 33.082 106.746 32.959 105.504 32.837 104.263 32.959 105.053 32.959 103.925 31.735 103.812 31 104.15 31.49 104.489 33.082 104.827 33.816 105.166 35.408 104.489 39.571 105.279 43.367 105.956 44.469 106.069 46.306 107.084 49"><title>2023-12-31 1.5km</title><desc>10466792666</desc></polyline><polyline fill="none" stroke="#4dd2ff" stroke-linecap="round" stroke-linejoin="round" stroke-width=".5" points="131.899 35.273 133.212 39.935 135.002 43.691 136.553 48.094 137.031 49 137.269 49 137.389 47.964 136.911 46.54 134.763 42.137 134.763 40.971 133.212 37.604 132.973 35.014 132.496 33.46 131.183 31"><title>2023-12-30 1.0km</title><desc>10458865202</desc></polyline><polyline fill="none" stroke="#4dd2ff" stroke-linecap="round" stroke-linejoin="round" stroke-width=".5" points="158.122 31 155.855 31.224 154.31 32.23 153.176 33.348 152.661 34.689 152.249 39.944 152.764 45.199 152.97 45.981 153.279 46.652 154.928 48.441 156.782 49 158.225 48.776 159.976 47.658 161.006 46.764 162.037 43.745 161.934 41.398 161.625 39.385 161.419 34.466 161.109 33.236 160.491 32.453 159.77 31.894 158.122 31.559 155.855 31.671 154.207 32.565 153.382 33.571 152.764 35.137 152.764 35.919 153.073 37.82 152.867 39.385"><title>2023-12-29 1.0km</title><desc>10454615358</desc></polyline><polyline fill="none" stroke="#4dd2ff" stroke-linecap="round" stroke-linejoin="round" stroke-width=".5" points="177.487 32.909 179.246 39.182 182.011 47.636 182.89 49 183.016 49 183.016 47.636 181.131 41.909 179.623 38.227 178.618 36.318 176.984 31"><title>2023-12-27 1.0km</title><desc>10441997651</desc></polyline><polyline fill="none" stroke="#4dd2ff" stroke-linecap="round" stroke-linejoin="round" stroke-width=".5" points="16.607 53.318 18.618 57.273 19.623 61.364 21.005 63.955 22.639 68.182 23.142 69 23.393 68.864 22.513 66.273 21.257 64.364 17.235 54.818 16.984 52.227 16.607 51"><title>2023-12-17 1.0km</title><desc>10391591057</desc></polyline><polyline fill="none" stroke="#4dd2ff" stroke-linecap="round" stroke-linejoin="round" stroke-width=".5" points="39.937 54.169 41.338 57.845 43.675 62.408 45.778 68.493 46.245 69 46.362 68.873 46.362 68.366 45.778 66.718 42.624 60.507 41.222 56.704 40.17 52.394 39.353 51"><title>2023-12-16 1.0km</title><desc>10386207035</desc></polyline><polyline fill="none" stroke="#4dd2ff" stroke-linecap="round" stroke-linejoin="round" stroke-width=".5" points="63.282 54.383 63.781 56.684 65.527 61.962 66.525 63.586 67.897 68.053 68.271 69 68.521 69 68.521 67.647 66.65 61.962 64.031 57.902 63.906 56.278 63.157 54.383 63.407 53.165 62.908 51"><title>2023-12-14 1.0km</title><desc>10376526598</desc></polyline><polyline fill="none" stroke="#4dd2ff" stroke-linecap="round" stroke-linejoin="round" stroke-width=".5" points="92.435 52.565 91.508 51.783 89.962 51.112 88.52 51 87.078 51.335 85.223 52.342 84.399 53.46 83.781 55.36 83.781 59.609 83.987 60.95 84.399 62.627 84.09 64.64 84.193 65.422 84.296 65.87 85.326 67.658 86.975 68.888 87.49 69 88.52 69 89.55 69 91.405 68.329 92.435 67.323 93.053 66.205 93.259 63.745 93.362 62.068 93.053 60.056 93.259 57.373 93.156 55.025 93.053 54.242 92.332 52.677 92.023 52.342 90.89 51.559 88.623 51.335 87.181 51.559 86.356 51.894 84.811 53.571 84.193 55.919 84.399 57.484"><title>2023-12-13 1.0km</title><desc>10373769329</desc></polyline><polyline fill="none" stroke="#4dd2ff" stroke-linecap="round" stroke-linejoin="round" stroke-width=".5" points="109.262 53.552 110.5 58.657 111.738 61.343 114.214 68.328 114.709 69 114.957 69 115.08 68.463 114.585 67.657 112.605 64.299 109.757 58.522 109.386 56.776 108.024 53.821 107.777 51"><title>2023-12-12 1.0km</title><desc>10365882163</desc></polyline><polyline fill="none" stroke="#4dd2ff" stroke-linecap="round" stroke-linejoin="round" stroke-width=".5" points="130.781 51 132.066 53.789 133.818 58.225 135.103 60.634 136.973 66.465 137.206 67.986 137.673 69 137.79 68.113 137.557 67.099 135.103 61.521 133.351 58.099 132.884 56.704 132.533 53.789 131.599 51.127"><title>2023-12-11 1.0km</title><desc>10361067591</desc></polyline><polyline fill="none" stroke="#4dd2ff" stroke-linecap="round" stroke-linejoin="round" stroke-width=".5" points="157.503 61.044 159.908 68.348 160.028 68.739 160.509 69 160.629 68.87 160.268 67.957 159.186 65.87 157.984 62.609 154.619 55.826 153.657 51"><title>2023-12-10 1.0km</title><desc>10355395415</desc></polyline><polyline fill="none" stroke="#4dd2ff" stroke-linecap="round" stroke-linejoin="round" stroke-width=".5" points="176.829 52.191 178.902 55.5 179.878 59.603 181.952 65.426 182.683 68.603 183.171 69 183.293 68.868 183.293 68.603 183.049 67.544 180.488 62.382 179.878 60.926 179.512 58.676 178.902 56.956 177.926 55.235 177.804 53.382 176.707 51"><title>2023-12-09 1.0km</title><desc>10350143310</desc></polyline><polyline fill="none" stroke="#4dd2ff" stroke-linecap="round" stroke-linejoin="round" stroke-width=".5" points="18.081 74.493 18.824 77.179 20.433 81.075 22.662 87.522 23.652 89 23.528 87.657 22.785 85.373 20.805 81.881 19.567 78.925 18.205 76.776 17.834 74.627 16.348 71"><title>2023-12-08 1.0km</title><desc>10345303898</desc></polyline><polyline fill="none" stroke="#4dd2ff" stroke-linecap="round" stroke-linejoin="round" stroke-width=".5" points="39.957 71 40.189 71.629 40.653 73.266 40.885 75.531 41.349 77.42 42.973 81.448 44.017 85.098 45.061 87.364 45.293 89 45.525 88.874 45.757 88.622 45.757 88.245 45.177 86.734 43.321 83.587 41.117 77.168 40.537 74.524"><title>2023-12-07 1.0km</title><desc>10340288256</desc></polyline><polyline fill="none" stroke="#4dd2ff" stroke-linecap="round" stroke-linejoin="round" stroke-width=".5" points="62.373 71 63.089 72.683 64.402 78.252 66.311 81.748 67.862 86.022 68.578 88.741 68.936 89 69.056 88.094 68.817 86.928 66.908 82.914 65.595 80.971 64.879 79.547 62.492 71.388"><title>2023-12-06 1.0km</title><desc>10334845031</desc></polyline><polyline fill="none" stroke="#4dd2ff" stroke-linecap="round" stroke-linejoin="round" stroke-width=".5" points="86.913 74.103 87.713 78.2 88.514 81.179 90.459 86.269 91.489 88.628 91.832 89 91.374 86.766 90.23 84.655 89.201 81.676 87.713 78.572 87.027 76.214 85.883 73.731 85.311 71"><title>2023-12-05 1.0km</title><desc>10329306344</desc></polyline><polyline fill="none" stroke="#4dd2ff" stroke-linecap="round" stroke-linejoin="round" stroke-width=".5" points="108.122 72.51 108.935 73.769 109.979 77.42 112.067 82.58 113.111 86.105 114.039 88.119 114.735 89 114.735 88.371 111.719 81.448 110.559 77.545 109.283 74.65 108.354 71"><title>2023-12-04 1.0km</title><desc>10324662812</desc></polyline><polyline fill="none" stroke="#4dd2ff" stroke-linecap="round" stroke-linejoin="round" stroke-width=".5" points="131.159 72.662 132.435 77.508 134.477 82.077 135.881 86.923 136.902 88.862 137.667 89 137.667 88.446 136.774 86.923 135.626 83.6 134.35 81.662 133.456 79.308 131.925 73.769 130.904 71"><title>2023-12-02 1.0km</title><desc>10313350310</desc></polyline><polyline fill="none" stroke="#4dd2ff" stroke-linecap="round" stroke-linejoin="round" stroke-width=".5" points="153.875 71.955 155.132 73.591 156.64 78.773 157.646 83 159.279 87.636 160.285 89 160.41 88.182 160.159 86.545 158.777 83.545 156.64 80.136 155.383 77.545 154.127 71"><title>2023-12-01 1.0km</title><desc>10308709030</desc></polyline><polyline fill="none" stroke="#4dd2ff" stroke-linecap="round" stroke-linejoin="round" stroke-width=".5" points="176.682 71 179.171 79.55 181.659 84.65 183.041 88.4 183.456 89 183.594 88.55 183.041 87.05 180.968 84.2 180.415 82.7 178.341 78.65 177.374 74 176.406 71.3"><title>2023-11-30 1.0km</title><desc>10303537703</desc></polyline><polyline fill="none" stroke="#4dd2ff" stroke-linecap="round" stroke-linejoin="round" stroke-width=".5" points="17.941 94.848 18.742 97.455 19.085 99.566 20.343 102.048 21.716 105.772 23.089 108.752 23.318 109 23.546 108.752 23.318 107.883 22.402 106.269 21.144 102.793 19.314 99.069 18.627 95.097 17.254 92.986 16.454 91"><title>2023-11-29 1.0km</title><desc>10298007687</desc></polyline><polyline fill="none" stroke="#4dd2ff" stroke-linecap="round" stroke-linejoin="round" stroke-width=".5" points="39.754 93.331 41.067 96.698 41.306 99.158 42.976 103.173 43.931 106.799 44.767 108.482 45.602 109 45.96 109 46.199 108.612 46.079 108.094 45.602 107.187 43.693 102.137 41.783 97.734 41.425 95.662 40.59 93.201 39.516 91"><title>2023-11-28 1.0km</title><desc>10292316108</desc></polyline><polyline fill="none" stroke="#4dd2ff" stroke-linecap="round" stroke-linejoin="round" stroke-width=".5" points="65.292 91 66.348 93.866 66.982 96.618 67.827 97.879 68.778 99.713 69.729 102.694 70.575 104.07 70.575 104.758 70.046 105.217 68.356 106.134 67.299 107.051 66.243 107.624 64.658 108.312 62.122 109 61.699 108.885 61.382 108.541 60.854 106.363"><title>2023-11-27 1.0km</title><desc>10287544518</desc></polyline><polyline fill="none" stroke="#4dd2ff" stroke-linecap="round" stroke-linejoin="round" stroke-width=".5" points="86.831 94.902 87.411 96.287 88.803 103.336 90.311 106.986 91.123 108.371 91.704 109 91.82 108.874 91.471 108.245 91.471 107.238 90.543 105.098 89.499 101.573 88.455 99.434 87.759 95.406 85.787 92.259 85.323 91"><title>2023-11-26 1.0km</title><desc>10281488289</desc></polyline><polyline fill="none" stroke="#4dd2ff" stroke-linecap="round" stroke-linejoin="round" stroke-width=".5" points="108.151 91 109.489 94.484 110.693 99.419 111.897 102.177 112.164 103.919 112.833 105.516 114.305 108.274 114.974 109 115.241 109 113.235 104.645 112.967 103.194 111.629 101.306 108.954 94.048 107.616 91.581"><title>2023-11-25 1.0km</title><desc>10275889695</desc></polyline><polyline fill="none" stroke="#4dd2ff" stroke-linecap="round" stroke-linejoin="round" stroke-width=".5" points="130.797 91.168 131.728 95.374 136.069 107.15 137.154 108.832 137.619 109 137.774 108.495 136.224 106.477 134.363 100.925 133.123 98.402 132.348 93.523 131.418 91"><title>2023-11-24 1.0km</title><desc>10271180196</desc></polyline><polyline fill="none" stroke="#4dd2ff" stroke-linecap="round" stroke-linejoin="round" stroke-width=".5" points="154.905 93 155.3 94.143 156.221 99 158.459 105.857 159.513 108.714 159.908 109 160.434 109 160.566 108.714 160.303 107.286 158.854 103.143 155.036 94.857 153.72 91"><title>2023-11-23 1.0km</title><desc>10265414399</desc></polyline><polyline fill="none" stroke="#4dd2ff" stroke-linecap="round" stroke-linejoin="round" stroke-width=".5" points="178.423 95.056 178.54 96.831 179.007 99.62 180.876 104.944 181.46 107.479 182.395 109 183.096 109 182.979 108.239 181.694 104.944 180.643 103.296 179.124 98.606 177.372 93.789 176.904 91"><title>2023-11-21 1.0km</title><desc>10253878272</desc></polyline><polyline fill="none" stroke="#4dd2ff" stroke-linecap="round" stroke-linejoin="round" stroke-width=".5" points="18.063 115.861 18.668 119.803 21.211 126.241 22.301 128.606 22.664 129 22.906 128.869 23.027 128.606 22.543 126.504 20.363 121.774 19.516 119.277 18.184 114.153 17.457 112.839 16.973 111"><title>2023-11-20 1.0km</title><desc>10248671423</desc></polyline><polyline fill="none" stroke="#4dd2ff" stroke-linecap="round" stroke-linejoin="round" stroke-width=".5" points="39.653 112.5 41.412 116.318 41.915 120.273 43.297 123.409 44.679 127.364 45.308 128.318 46.062 129 45.936 127.909 43.8 122.318 42.417 117.273 41.035 114 40.281 111"><title>2023-11-19 1.0km</title><desc>10242265034</desc></polyline><polyline fill="none" stroke="#4dd2ff" stroke-linecap="round" stroke-linejoin="round" stroke-width=".5" points="62.216 127.038 63.002 124.564 63.317 123.967 63.867 123.626 66.54 123.284 68.505 122.858 69.134 122.346 69.527 121.834 69.999 119.701 69.842 119.019 70.156 118.507 69.92 114.583 69.763 114.071 69.684 112.536 69.527 111.597 68.662 111.341 67.955 111.853 68.112 111.597 68.269 111.853 67.247 111.341 67.169 111 66.933 111.171 67.09 111.085 66.54 111.768 66.618 111.682 68.269 112.536 67.876 112.877 67.247 113.133 65.754 113.389 65.675 113.047 66.068 112.877 66.618 112.962 68.269 111.341 70.549 111.427 70.313 111.256 69.999 111.171 69.763 115.265 69.842 116.46 70.077 117.91 70.235 120.384 70.235 121.237 69.999 122.09 69.527 122.602 65.596 123.028 63.788 123.37 62.845 124.052 61.744 125.588 61.115 127.806 60.879 129"><title>2023-11-18 1.0km</title><desc>10236386505</desc></polyline><polyline fill="none" stroke="#4dd2ff" stroke-linecap="round" stroke-linejoin="round" stroke-width=".5" points="84.898 111 87.505 115.5 88.453 118.843 88.808 120.771 89.519 121.929 91.771 128.486 92.245 129 92.245 128.486 91.771 127.843 90.467 123.986 89.756 122.7 89.519 120.514 88.453 117.814 87.268 115.243 87.15 113.829"><title>2023-11-17 1.0km</title><desc>10231268371</desc></polyline><polyline fill="none" stroke="#4dd2ff" stroke-linecap="round" stroke-linejoin="round" stroke-width=".5" points="108.218 111.581 109.957 114.048 110.358 117.387 111.562 120 113.435 126.968 114.639 129 114.505 127.839 113.569 125.952 112.9 124.065 111.83 119.565 109.689 115.065 109.021 113.032 108.619 111"><title>2023-11-16 1.0km</title><desc>10225818993</desc></polyline><polyline fill="none" stroke="#4dd2ff" stroke-linecap="round" stroke-linejoin="round" stroke-width=".5" points="131.164 111.194 132.056 114.677 133.483 118.548 135.445 122.226 136.159 125.129 137.407 127.645 138.656 129 135.445 123 134.018 118.548 129.916 111"><title>2023-11-15 1.0km</title><desc>10219684298</desc></polyline><polyline fill="none" stroke="#4dd2ff" stroke-linecap="round" stroke-linejoin="round" stroke-width=".5" points="153.962 113.165 155.584 115.196 155.833 117.767 157.704 122.233 158.827 126.023 159.949 128.865 160.448 129 160.323 127.376 158.702 125.211 158.078 123.316 157.08 122.098 156.706 120.609 154.835 116.82 154.212 114.113 153.838 111"><title>2023-11-14 1.0km</title><desc>10213806154</desc></polyline><polyline fill="none" stroke="#4dd2ff" stroke-linecap="round" stroke-linejoin="round" stroke-width=".5" points="177.596 113.478 178.558 117.13 181.202 123.913 181.803 126.13 183.005 128.609 183.366 129 182.645 127.696 180.962 123.652 180.841 122.609 179.639 119.739 177.836 116.478 177.115 114.261 176.634 111"><title>2023-11-13 1.0km</title><desc>10208522228</desc></polyline><polyline fill="none" stroke="#4dd2ff" stroke-linecap="round" stroke-linejoin="round" stroke-width=".5" points="17.989 133.045 19.246 136.864 20.754 140 21.634 143.682 22.513 146.273 23.644 148.727 24.147 149 24.398 148.455 23.016 145.727 22.262 142.727 19.497 140.136 17.989 137.955 17.738 135.636 15.602 131"><title>2023-11-12 1.0km</title><desc>10202270880</desc></polyline><polyline fill="none" stroke="#4dd2ff" stroke-linecap="round" stroke-linejoin="round" stroke-width=".5" points="40.134 134.358 43.105 141.075 44.095 144.433 45.085 147.119 45.704 148.328 46.323 149 46.447 148.463 45.333 145.104 43.229 141.881 41 136.776 40.134 133.149 39.267 131"><title>2023-11-11 1.0km</title><desc>10196068378</desc></polyline><polyline fill="none" stroke="#4dd2ff" stroke-linecap="round" stroke-linejoin="round" stroke-width=".5" points="64.041 133.684 66.078 139.842 67.97 144.895 68.843 148.211 69.425 149 69.716 148.684 69.279 146.789 67.097 141.895 64.914 137.316 62.004 132.737 61.713 131"><title>2023-11-10 1.0km</title><desc>10191120477</desc></polyline><polyline fill="none" stroke="#4dd2ff" stroke-linecap="round" stroke-linejoin="round" stroke-width=".5" points="84.393 131.55 86.545 133.198 87.812 135.397 88.192 136.221 88.192 137.458 89.584 141.718 90.091 144.191 91.104 146.939 91.357 148.313 91.99 149 92.37 148.863 92.75 148.313 91.357 147.351 89.078 144.053 86.419 136.771 85.786 132.649 85.152 131"><title>2023-11-09 1.0km</title><desc>10185506531</desc></polyline><polyline fill="none" stroke="#4dd2ff" stroke-linecap="round" stroke-linejoin="round" stroke-width=".5" points="107.917 132.445 109.249 135.073 109.733 136.387 111.307 139.803 111.913 142.168 111.792 140.723 112.034 141.642 112.518 145.19 113.608 148.474 114.092 149 114.698 148.737 114.94 148.343 113.608 147.161 112.639 145.584 112.034 143.876 111.186 140.985 109.976 139.277 108.644 136.387 108.28 134.285 108.401 131.657 108.159 131"><title>2023-11-08 1.0km</title><desc>10179505859</desc></polyline><polyline fill="none" stroke="#4dd2ff" stroke-linecap="round" stroke-linejoin="round" stroke-width=".5" points="133.474 140.944 137.534 149 137.766 148.874 137.186 147.49 136.142 145.727 135.446 143.965 134.054 142.455 133.59 141.573 133.242 138.552 133.01 137.671 131.618 135.28 130.806 131"><title>2023-11-06 1.0km</title><desc>10167691585</desc></polyline><polyline fill="none" stroke="#4dd2ff" stroke-linecap="round" stroke-linejoin="round" stroke-width=".5" points="155.412 136.05 156.248 137.604 159.351 144.727 160.663 148.741 160.902 149 161.141 149 161.141 148.612 160.186 146.54 159.351 145.374 159.231 144.727 158.515 143.95 156.486 140.453 154.1 134.367 153.145 131"><title>2023-11-05 1.1km</title><desc>10161301187</desc></polyline><polyline fill="none" stroke="#4dd2ff" stroke-linecap="round" stroke-linejoin="round" stroke-width=".5" points="176.634 131 179.038 136.348 180.12 141.044 181.803 144.304 182.404 146.913 183.005 149 183.366 148.609 183.246 148.217 181.683 145.348 181.563 144.957 180.12 142.739 179.519 140.652 177.957 137.783 177.596 135.304 176.875 132.696"><title>2023-11-04 1.0km</title><desc>10155501797</desc></polyline><polyline fill="none" stroke="#4dd2ff" stroke-linecap="round" stroke-linejoin="round" stroke-width=".5" points="24.829 153.734 23.464 151.911 22.625 151.342 20.945 151 19.37 151.114 17.165 152.139 16.221 153.051 15.381 154.76 15.171 156.127 14.856 160.684 15.066 165.468 15.276 166.152 16.326 167.861 17.585 168.772 19.685 169 21.575 168.203 23.359 166.038 23.884 165.013 24.619 161.709 24.619 159.089 25.144 155.671 25.039 154.418 23.884 153.051 22.94 152.367 20.735 151.342 19.58 151.342 17.06 152.139 15.906 153.165 15.171 154.532 14.961 155.443 15.171 159.203 14.961 160.911"><title>2023-11-03 1.0km</title><desc>10152446508</desc></polyline><polyline fill="none" stroke="#4dd2ff" stroke-linecap="round" stroke-linejoin="round" stroke-width=".5" points="39.132 151 40.116 153.136 40.959 156.949 42.365 159.695 44.474 165.186 44.896 166.102 45.598 168.542 46.02 169 46.583 169 46.583 168.695 45.598 168.237 45.177 167.169 44.193 166.254 43.49 164.271 42.506 162.746 41.381 160.458 40.116 155.729 39.272 153.746"><title>2023-11-02 1.1km</title><desc>10144903556</desc></polyline><polyline fill="none" stroke="#4dd2ff" stroke-linecap="round" stroke-linejoin="round" stroke-width=".5" points="62.649 152.304 62.889 153.739 63.851 155.957 65.534 161.957 68.419 167.957 69.26 169 68.78 167.435 66.976 164.696 66.015 161.174 64.813 159.478 63.37 156.348 62.168 151"><title>2023-11-01 1.0km</title><desc>10138966680</desc></polyline><polyline fill="none" stroke="#4dd2ff" stroke-linecap="round" stroke-linejoin="round" stroke-width=".5" points="85.952 151.271 86.576 153.301 87.574 158.714 89.195 162.233 90.193 165.481 91.814 169 91.939 168.865 90.816 167.241 89.195 163.451 87.823 161.015 85.453 153.842 85.204 151"><title>2023-10-31 1.0km</title><desc>10133123337</desc></polyline><polyline fill="none" stroke="#4dd2ff" stroke-linecap="round" stroke-linejoin="round" stroke-width=".5" points="108.602 153.133 109.217 156.333 109.217 157.533 110.568 159.8 114.255 167.667 114.869 168.867 115.115 169 112.289 163.4 111.06 159.933 109.708 157.133 107.742 151"><title>2023-10-30 1.0km</title><desc>10127985445</desc></polyline><polyline fill="none" stroke="#4dd2ff" stroke-linecap="round" stroke-linejoin="round" stroke-width=".5" points="131.448 153.605 131.994 157.276 132.321 158.461 134.504 163.553 135.595 166.513 137.232 168.763 137.669 169 137.778 168.645 136.796 167.105 135.377 164.026 132.867 159.408 131.885 155.974 131.121 154.434 131.012 152.066 130.793 151"><title>2023-10-28 1.0km</title><desc>10115543824</desc></polyline><polyline fill="none" stroke="#4dd2ff" stroke-linecap="round" stroke-linejoin="round" stroke-width=".5" points="154.808 154.733 155.791 157.933 156.897 160.467 157.88 164.067 159.355 167.533 159.969 168.867 160.583 169 160.706 168.867 160.461 168.067 159.723 166.067 157.266 161.267 155.3 155.933 154.071 153.267 153.579 151"><title>2023-10-27 1.0km</title><desc>10110442644</desc></polyline><polyline fill="none" stroke="#4dd2ff" stroke-linecap="round" stroke-linejoin="round" stroke-width=".5" points="177.561 153.779 179.878 161.588 180.732 163.971 181.586 165.426 182.561 168.206 182.927 168.735 183.659 169 183.781 168.603 183.659 168.074 182.439 166.485 180.61 163.309 178.414 156.824 176.951 154.441 176.219 151"><title>2023-10-26 1.0km</title><desc>10104873905</desc></polyline><polyline fill="none" stroke="#4dd2ff" stroke-linecap="round" stroke-linejoin="round" stroke-width=".5" points="19.098 179.609 21.863 186.522 23.185 188.87 23.666 189 23.546 187.696 20.301 182.087 18.497 177.522 16.935 174.261 16.334 171"><title>2023-10-25 1.0km</title><desc>10098978222</desc></polyline><polyline fill="none" stroke="#4dd2ff" stroke-linecap="round" stroke-linejoin="round" stroke-width=".5" points="39.527 171 39.406 171.92 40.133 174.942 41.101 176.912 41.707 179.277 42.797 182.431 45.097 186.898 45.824 188.737 46.066 189 46.308 188.869 46.187 187.161 44.855 184.664 43.886 183.219 42.676 180.46 42.433 179.015 40.98 176.781 40.133 174.81 39.891 172.445 39.527 171"><title>2023-10-24 1.0km</title><desc>10092835699</desc></polyline><polyline fill="none" stroke="#4dd2ff" stroke-linecap="round" stroke-linejoin="round" stroke-width=".5" points="63.865 174.108 65.655 180.453 66.49 182.007 67.445 185.892 68.877 188.482 69.474 189 68.877 188.353 68.041 186.281 65.893 183.691 65.416 182.784 64.939 179.806 63.506 176.957 62.552 173.978 61.955 171"><title>2023-10-23 1.0km</title><desc>10087395010</desc></polyline><polyline fill="none" stroke="#4dd2ff" stroke-linecap="round" stroke-linejoin="round" stroke-width=".5" points="82.744 171.086 83.062 171 85.329 171.173 86.324 171.432 86.563 171.561 87.08 171.95 87.438 172.381 88.233 173.849 88.631 175.489 89.148 176.353 89.387 177.043 89.944 178.295 90.342 179.59 90.938 180.626 91.217 180.928 91.575 181.532 91.774 182.827 91.893 183.173 92.211 183.648 92.291 184.381 92.41 184.684 94.161 188.827 94.399 189 94.399 188.784 94.041 188.439 93.643 187.489 93.246 186.669 92.172 183.345"><title>2023-10-22 1.5km</title><desc>10080655811</desc></polyline><polyline fill="none" stroke="#4dd2ff" stroke-linecap="round" stroke-linejoin="round" stroke-width=".5" points="108.566 171 109.197 171.457 108.06 171.274 109.829 173.558 109.997 174.107 109.871 174.563 109.281 174.883 109.113 175.203 109.155 175.751 109.492 177.076 109.871 178.036 110.292 179.498 111.05 180.822 111.176 181.325 111.639 182.147 111.934 182.513 111.976 182.741 112.271 183.015 112.481 183.472 112.776 184.34 113.071 184.934 113.028 186.122 113.576 187.173 113.744 187.675 114.039 188.223 114.544 188.863 114.797 189 113.828 187.629 113.618 186.899 113.197 185.985 113.028 185.391 112.481 184.614 112.018 183.289"><title>2023-10-20 1.4km</title><desc>10069668027</desc></polyline><polyline fill="none" stroke="#4dd2ff" stroke-linecap="round" stroke-linejoin="round" stroke-width=".5" points="130.664 171 130.749 171.698 131.435 173.372 131.607 174.395 133.021 177.837 133.15 178.302 133.236 179 133.407 179.465 134.436 180.907 134.993 182.023 135.336 183.14 135.636 183.744 135.807 184.674 136.022 185.14 136.579 186.581 136.665 187.14 137.479 188.814 137.693 189 137.822 189 137.908 188.953 137.865 188.907 137.008 187.837 136.622 186.535 135.807 185.047 135.679 184.442 135.593 183.419"><title>2023-10-19 1.3km</title><desc>10064004415</desc></polyline><polyline fill="none" stroke="#4dd2ff" stroke-linecap="round" stroke-linejoin="round" stroke-width=".5" points="153.084 171 154.849 173.298 154.731 174.957 154.966 176.617 155.79 179.553 156.966 181.468 158.143 184.787 160.496 188.617 160.849 189 161.202 188.872 159.672 187.34 156.849 181.851 156.143 179.426 154.143 175.213"><title>2023-10-18 1.0km</title><desc>10058081424</desc></polyline><polyline fill="none" stroke="#4dd2ff" stroke-linecap="round" stroke-linejoin="round" stroke-width=".5" points="176.858 172.091 177.864 177.955 180.503 184.909 182.262 188.591 183.016 189 183.393 189 183.644 188.455 182.765 187.364 181.634 185.591 180.126 182.318 179.497 180.409 176.858 175.091 176.607 174.273 176.356 171"><title>2023-10-17 1.0km</title><desc>10051702317</desc></polyline><polyline fill="none" stroke="#4dd2ff" stroke-linecap="round" stroke-linejoin="round" stroke-width=".5" points="15.981 191.415 17.257 193.631 19.171 198.615 20.191 200.554 21.34 204.154 22.743 207.754 23.254 208.723 23.892 209 24.019 208.862 23.892 208.446 22.488 206.369 20.574 201.662 19.171 198.754 18.022 193.354 17.384 191"><title>2023-10-16 1.0km</title><desc>10046279660</desc></polyline><polyline fill="none" stroke="#4dd2ff" stroke-linecap="round" stroke-linejoin="round" stroke-width=".5" points="39.171 191 39.697 192.143 40.224 194.714 41.409 198.714 42.989 201.143 44.832 208 45.49 208.714 46.412 209 46.543 208.714 46.412 207.857 44.7 205.429 43.779 202.571 42.725 200.857 40.224 195 39.302 191"><title>2023-10-15 1.0km</title><desc>10039610121</desc></polyline><polyline fill="none" stroke="#4dd2ff" stroke-linecap="round" stroke-linejoin="round" stroke-width=".5" points="61.969 192.306 62.37 196.516 63.44 199.565 64.778 201.452 65.581 204.065 67.855 208.129 68.39 208.71 69.059 209 69.46 208.71 69.46 208.274 66.785 206.097 65.045 202.903 64.377 200.145 62.771 196.516 61.969 193.468 62.102 191.581 61.969 191"><title>2023-10-14 1.0km</title><desc>10033377496</desc></polyline><polyline fill="none" stroke="#4dd2ff" stroke-linecap="round" stroke-linejoin="round" stroke-width=".5" points="84.49 191.286 86.86 194.143 87.123 196.286 89.361 203.143 91.468 208.143 92.126 209 92.653 209 92.653 208.571 92.521 208.143 91.336 207.286 90.02 204.857 88.571 200.286 85.938 194.429 85.543 192.429 84.885 191"><title>2023-10-13 1.0km</title><desc>10028006924</desc></polyline><polyline fill="none" stroke="#4dd2ff" stroke-linecap="round" stroke-linejoin="round" stroke-width=".5" points="107.566 191 108.833 192.649 109.592 194.023 109.719 195.809 109.592 197.733 110.985 200.618 112.632 205.015 114.278 208.038 114.658 208.588 115.291 209 115.291 208.313 113.898 206.527 112.632 204.328 110.985 199.794 109.972 198.008 109.466 196.496"><title>2023-10-12 1.0km</title><desc>10021974100</desc></polyline><polyline fill="none" stroke="#4dd2ff" stroke-linecap="round" stroke-linejoin="round" stroke-width=".5" points="132.181 193.552 132.676 196.239 132.553 197.313 133.667 200.94 134.533 202.552 135.4 205.507 136.638 208.463 136.885 208.731 137.504 209 137.381 208.463 136.019 204.97 134.533 202.418 132.553 197.851 132.057 196.104 131.81 193.552 131.067 191"><title>2023-10-10 1.0km</title><desc>10009069592</desc></polyline><polyline fill="none" stroke="#4dd2ff" stroke-linecap="round" stroke-linejoin="round" stroke-width=".5" points="154.094 193.25 154.947 195.632 155.801 198.809 157.631 202.779 159.094 207.809 159.948 209 160.192 208.603 160.314 207.147 159.46 204.632 157.631 201.456 155.557 195.632 154.947 192.985 153.972 191"><title>2023-10-09 1.0km</title><desc>10003389142</desc></polyline><polyline fill="none" stroke="#4dd2ff" stroke-linecap="round" stroke-linejoin="round" stroke-width=".5" points="176.335 191 177.235 192.116 178.135 194.209 178.65 198.395 180.579 202.581 182.25 207.326 183.022 208.721 183.665 209 183.665 207.884 181.222 203.977 178.007 196.163 176.721 191.14"><title>2023-10-08 1.0km</title><desc>9996447828</desc></polyline><polyline fill="none" stroke="#4dd2ff" stroke-linecap="round" stroke-linejoin="round" stroke-width=".5" points="17.689 214.6 18.282 216.786 20.059 221.543 20.652 223.6 22.548 228.357 23.14 229 23.258 228.486 23.258 227.971 21.007 223.986 19.941 221.671 18.045 216.014 17.452 213.057 16.742 211"><title>2023-10-07 1.0km</title><desc>9989974159</desc></polyline><polyline fill="none" stroke="#4dd2ff" stroke-linecap="round" stroke-linejoin="round" stroke-width=".5" points="41.387 216.362 42.328 219.426 43.034 220.957 44.445 226.957 44.798 228.106 45.504 229 46.092 229 46.328 228.489 46.21 228.106 44.798 226.064 43.387 223 42.916 220.957 40.445 214.957 40.092 212.787 39.387 211"><title>2023-10-06 1.0km</title><desc>9984428862</desc></polyline><polyline fill="none" stroke="#4dd2ff" stroke-linecap="round" stroke-linejoin="round" stroke-width=".5" points="61.839 211 63.879 216.459 65.238 221.033 67.55 226.787 68.502 228.705 68.91 229 69.453 229 69.589 228.705 69.182 227.967 67.55 225.607 66.598 223.689 64.966 219.41 64.287 217.197 62.383 213.656 62.383 212.328"><title>2023-10-04 1.0km</title><desc>9971682885</desc></polyline><polyline fill="none" stroke="#4dd2ff" stroke-linecap="round" stroke-linejoin="round" stroke-width=".5" points="85.847 213.102 86.452 215.204 87.058 216.65 87.542 218.883 89.843 223.482 89.964 225.058 90.69 228.212 90.933 228.606 91.659 229 91.659 227.686 90.085 224.796 88.995 222.299 88.39 221.117 87.784 219.409 86.574 216.912 86.089 214.942 85.847 212.971 85.484 211"><title>2023-10-03 1.0km</title><desc>9965060084</desc></polyline><polyline fill="none" stroke="#4dd2ff" stroke-linecap="round" stroke-linejoin="round" stroke-width=".5" points="108.138 211.744 109.783 217.099 110.058 219.479 111.017 220.669 111.703 222.455 112.937 227.066 113.896 228.554 114.582 229 114.719 228.851 114.308 227.661 112.8 224.835 110.332 218.884 108.824 214.421 108.55 211"><title>2023-10-02 1.0km</title><desc>9958643020</desc></polyline><polyline fill="none" stroke="#4dd2ff" stroke-linecap="round" stroke-linejoin="round" stroke-width=".5" points="131.433 214.168 131.698 215.464 134.617 222.376 136.077 226.84 136.874 228.424 137.67 229 137.802 228.856 137.67 228.28 135.016 224.248 132.494 218.056 131.3 214.312 130.769 211"><title>2023-10-01 1.0km</title><desc>9952075403</desc></polyline><polyline fill="none" stroke="#4dd2ff" stroke-linecap="round" stroke-linejoin="round" stroke-width=".5" points="154.558 213.609 155.64 215.826 156.121 218.044 156.482 220.13 158.285 225.217 159.847 228.478 160.569 229 160.809 228.609 158.405 224.957 157.323 222.478 156.963 221.174 155.28 217.522 154.318 213.478 153.477 211"><title>2023-09-30 1.0km</title><desc>9945549317</desc></polyline><polyline fill="none" stroke="#4dd2ff" stroke-linecap="round" stroke-linejoin="round" stroke-width=".5" points="177.213 211 178.408 213.016 178.806 214.6 179.867 217.192 180.398 221.08 180.796 222.232 182.389 226.12 182.787 228.568 183.052 228.856 183.45 229 183.583 228.712 181.194 224.392 179.602 220.648 179.071 218.488 177.213 214.168 176.417 211.576"><title>2023-09-28 1.0km</title><desc>9933629332</desc></polyline><polyline fill="none" stroke="#4dd2ff" stroke-linecap="round" stroke-linejoin="round" stroke-width=".5" points="16.481 233.045 17.487 236.591 19.372 239.182 20.628 243.818 22.388 246.955 22.89 248.727 23.393 249 23.644 248.591 23.393 248.045 22.388 246.682 19.497 240.818 17.989 236.727 16.356 231"><title>2023-09-27 1.0km</title><desc>9927137811</desc></polyline><polyline fill="none" stroke="#4dd2ff" stroke-linecap="round" stroke-linejoin="round" stroke-width=".5" points="44.352 231 43.994 232.731 43.635 233.726 43.356 234.938 41.721 238.356 40.883 239.784 40.724 240.389 40.804 240.865 41.003 241.558 41.601 243.029 41.8 243.418 42.04 244.111 42.837 245.106 43.196 245.885 43.595 246.49 43.914 247.356 44.392 248.005 44.99 249"><title>2023-09-26 1.0km</title><desc>9920397094</desc></polyline><polyline fill="none" stroke="#4dd2ff" stroke-linecap="round" stroke-linejoin="round" stroke-width=".5" points="65.63 231 64.846 233.615 64.061 235.014 63.333 235.926 62.94 236.655 62.772 237.385 62.828 238.297 63.108 239.027 63.781 240.061 64.061 241.095 64.621 242.432 65.686 243.77 67.48 247.419 68.656 249"><title>2023-09-25 1.0km</title><desc>9914573673</desc></polyline><polyline fill="none" stroke="#4dd2ff" stroke-linecap="round" stroke-linejoin="round" stroke-width=".5" points="89.898 231 89.456 231.672 89.368 232.008 89.456 232.44 89.5 232.872 88.616 234.504 88.394 235.608 88.085 236.424 86.227 239.688 86.183 240.072 86.36 240.84 86.846 241.608 87.112 242.28 87.51 242.952 87.731 243.624 88.306 244.536 88.748 245.448 89.235 245.976 89.368 246.456 89.677 246.84 90.341 247.992 90.827 248.52 90.96 249"><title>2023-09-24 1.0km</title><desc>9907510217</desc></polyline><polyline fill="none" stroke="#4dd2ff" stroke-linecap="round" stroke-linejoin="round" stroke-width=".5" points="112.1 231 111.724 231.583 111.455 232.165 111.294 232.922 111.241 233.913 110.328 235.136 109.791 236.534 109.308 237.233 108.986 238.165 108.932 239.155 110.06 242.01 110.489 242.884 111.885 245.097 112.475 246.553 113.227 247.485 113.656 248.243 113.925 249"><title>2023-09-23 1.0km</title><desc>9901004991</desc></polyline><polyline fill="none" stroke="#4dd2ff" stroke-linecap="round" stroke-linejoin="round" stroke-width=".5" points="134.977 231 134.619 231.667 134.26 232.833 133.441 234.556 132.622 235.722 131.905 237.667 131.854 238.722 131.956 239.333 132.98 241.778 133.134 242.5 133.339 242.889 134.055 243.778 134.619 244.889 135.079 246.056 135.847 247.167 136.718 249"><title>2023-09-22 1.0km</title><desc>9895405405</desc></polyline><polyline fill="none" stroke="#4dd2ff" stroke-linecap="round" stroke-linejoin="round" stroke-width=".5" points="158.097 231 157.95 231.531 157.657 231.85 157.021 233.018 156.776 233.867 156.042 235.726 155.259 237.319 154.77 238.487 154.623 239.071 154.623 239.443 154.77 239.974 155.063 240.504 155.699 242.15 156.335 243.319 156.678 244.168 157.314 245.23 157.706 245.708 157.999 246.558 158.782 247.938 159.663 249"><title>2023-09-21 1.0km</title><desc>9889267953</desc></polyline><polyline fill="none" stroke="#4dd2ff" stroke-linecap="round" stroke-linejoin="round" stroke-width=".5" points="181.833 231 181.19 232.927 180.812 234.444 180.208 235.715 179.49 237.847 178.243 240.185 177.903 241.456 177.941 241.743 178.167 242.358 178.659 243.424 178.961 244.326 179.717 245.392 180.17 246.253 180.435 246.868 180.737 247.401 181.228 247.77 181.833 248.672 181.87 248.836 182.097 249"><title>2023-09-20 1.0km</title><desc>9882714971</desc></polyline><polyline fill="none" stroke="#4dd2ff" stroke-linecap="round" stroke-linejoin="round" stroke-width=".5" points="21.493 251 21.109 251.972 20.384 254.1 20.341 254.794 20.085 255.165 19.787 255.859 19.616 256.506 19.275 257.386 18.294 258.959 18.038 259.884 17.953 260.717 18.038 261.55 18.294 262.476 18.593 263.123 19.531 264.743 20 265.391 20.426 266.548 20.853 267.288 21.279 267.889 21.748 268.352 22.047 269"><title>2023-09-19 1.0km</title><desc>9876194288</desc></polyline><polyline fill="none" stroke="#4dd2ff" stroke-linecap="round" stroke-linejoin="round" stroke-width=".5" points="42.725 251 42.407 251.518 41.877 252.553 41.718 253.243 40.764 254.911 40.022 256.463 39.863 257.038 39.916 257.671 40.234 258.476 40.711 259.339 41.135 260.546 41.718 261.812 42.354 262.962 42.937 263.709 43.626 264.859 44.05 266.182 44.792 267.332 45.163 268.367 45.851 269"><title>2023-09-18 1.0km</title><desc>9870505463</desc></polyline><polyline fill="none" stroke="#4dd2ff" stroke-linecap="round" stroke-linejoin="round" stroke-width=".5" points="65.895 251 65.637 251.505 65.275 253.187 64.81 253.972 64.603 254.589 63.466 256.439 63.053 257.449 62.795 258.346 63.001 258.963 64.138 261.43 64.707 262.327 65.12 263.28 65.792 264.178 66.154 264.794 66.619 266.252 68.634 269"><title>2023-09-16 1.0km</title><desc>9856514700</desc></polyline><polyline fill="none" stroke="#4dd2ff" stroke-linecap="round" stroke-linejoin="round" stroke-width=".5" points="88.323 251 87.77 252.68 87.051 253.82 85.558 256.7 85.503 257.36 85.558 258.14 85.89 258.92 86.443 259.76 86.94 260.9 87.825 262.4 88.931 264.5 89.041 265.28 89.428 265.58 89.871 266.18 90.59 267.38 91.364 268.04 91.53 268.46 91.64 269"><title>2023-09-15 1.0km</title><desc>9850671982</desc></polyline><polyline fill="none" stroke="#4dd2ff" stroke-linecap="round" stroke-linejoin="round" stroke-width=".5" points="111.886 251 110.971 253.421 109.941 254.91 109.484 255.717 108.797 257.455 108.626 258.076 108.626 258.572 108.797 259.193 109.484 261.055 110.113 262.297 111.657 264.966 112.287 266.145 112.401 266.828 112.859 267.262 113.602 268.441 114.231 269"><title>2023-09-14 1.0km</title><desc>9844236351</desc></polyline><polyline fill="none" stroke="#4dd2ff" stroke-linecap="round" stroke-linejoin="round" stroke-width=".5" points="131.425 251 131.754 251.268 131.878 251.536 131.96 252.117 132.207 252.608 132.372 253.993 132.372 254.663 132.289 255.02 132.372 255.467 132.577 256.003 132.495 256.449 132.536 256.673 132.948 257.432 133.318 258.548 133.648 259.174 134.059 259.754 134.512 260.156 134.636 260.424 134.759 261.005 135.088 261.586 135.459 262.658 135.953 263.596 136.2 264.4 136.323 265.07 136.57 265.605 137.023 267.079 137.64 268.241 137.682 268.419 137.64 268.553 137.146 269 137.393 268.821 137.517 268.553 137.599 268.33 137.558 268.017 137.311 267.705 136.57 266.097 136.2 264.891 135.418 263.149 135.047 261.452 134.841 260.96 134.059 259.933 133.277 258.459 132.907 257.253 132.783 256.449 132.454 255.601 131.795 254.171 131.631 253.501 131.055 252.429 130.931 251.849 130.89 251.134"><title>2023-09-13 1.0km</title><desc>9837636972</desc></polyline></svg>