<?xml version="1.0" encoding="utf-8" ?>
<svg baseProfile="full" height="300mm" version="1.1" viewBox="0,0,200,300" width="200mm" xmlns="http://www.w3.org/2000/svg" xmlns:ev="http://www.w3.org/2001/xml-events" xmlns:xlink="http://www.w3.org/1999/xlink"><defs /><rect fill="#222222" height="300" width="200" x="0" y="0" /><text fill="#FFFFFF" style="font-size:12px; font-family:Arial; font-weight:bold;" x="10" y="20">Over 1km Runs</text><text fill="#FFFFFF" style="font-size:4px; font-family:Arial" x="10" y="280">ATHLETE</text><text fill="#FFFFFF" style="font-size:9px; font-family:Arial" x="10" y="290">Jiakai</text><text fill="#FFFFFF" style="font-size:4px; font-family:Arial" x="120" y="280">STATISTICS</text><text fill="#FFFFFF" style="font-size:3px; font-family:Arial" x="120" y="285">Number: 9</text><text fill="#FFFFFF" style="font-size:3px; font-family:Arial" x="120" y="290">Weekly: 4.5</text><text fill="#FFFFFF" style="font-size:3px; font-family:Arial" x="141" y="285">Total: 9.2 km</text><text fill="#FFFFFF" style="font-size:3px; font-family:Arial" x="141" y="290">Avg: 1.0 km</text><text fill="#FFFFFF" style="font-size:3px; font-family:Arial" x="167" y="285">Min: 1.0 km</text><text fill="#FFFFFF" style="font-size:3px; font-family:Arial" x="167" y="290">Max: 1.0 km</text><polyline fill="none" points="42.073519157245755,33.0 40.99836107622832,35.00002294080332 39.923202995210886,38.50005884026177 37.46569881029427,43.666768623981625 35.008194625377655,47.16679114091676 32.857878463342786,53.000149992876686 32.70428445097059,56.16682422568556 33.01147247571498,58.00015991809778 36.08335270639509,65.33348785818089 36.54413474071771,67.50014839123469 37.1585107864812,68.66681089741178 39.30882694851607,71.33346580003854 40.99836107622832,74.66678001615219 42.3807071801275,78.1667546685785 44.684617353603244,81.50005883711856 47.29571554996073,87.0" stroke="#4dd2ff" stroke-linecap="round" stroke-linejoin="round" stroke-width="0.5"><title>2023-09-22 1.0km</title><desc>9895405405</desc></polyline><polyline fill="none" points="102.86255436763167,33.0 102.42216138821095,34.59293962083757 101.54137542936951,35.548702831263654 99.6330058509484,39.05316432798281 98.89901755191386,41.60186003765557 96.69705265387893,47.17712144902907 94.34829009603709,51.95590552466456 92.8803134970367,55.46034048101865 92.43992051761597,57.21255583292805 92.43992051761597,58.32760122837499 92.8803134970367,59.92052222613711 93.76109945680946,61.51344205299392 95.66946903523058,66.45148607261945 97.57783861272037,69.95589758083224 98.60542223136872,72.50455693574622 100.51379180978984,75.6903769132914 101.6881730882451,77.12399437499698 102.56895904801786,79.67264529759996 104.9177216058597,83.81419665238354 107.56007948238403,87.0" stroke="#4dd2ff" stroke-linecap="round" stroke-linejoin="round" stroke-width="0.5"><title>2023-09-21 1.0km</title><desc>9889267953</desc></polyline><polyline fill="none" points="165.49787143664435,33.0 163.57078247936442,38.78140450408682 162.4372007404454,43.33270888705738 160.6234699562192,47.145954377250746 158.46966465143487,53.54234664782416 154.7288449103944,60.55374854023103 153.70862134499475,64.36695477657486 153.82197951851413,65.22800014319364 154.50212856242433,67.07309586496558 155.97578482422978,70.27125696255825 156.88265021611005,72.97738850058522 159.14981369534507,76.17553831113037 160.51011178316548,78.75865484925453 161.3036190001294,80.6037356487941 162.21048439154401,82.2028040291043 163.68414065381512,83.30985047400463 165.49787143664435,86.01596092234831 165.61122961109504,86.50798053340986 166.29137865500525,87.0" stroke="#4dd2ff" stroke-linecap="round" stroke-linejoin="round" stroke-width="0.5"><title>2023-09-20 1.0km</title><desc>9882714971</desc></polyline><polyline fill="none" points="44.477509080432355,123.0 43.32614960288629,125.91520653560292 41.15135947801173,132.30088131153025 41.023430646862835,134.38316189462785 40.25585766136646,135.4937105999561 39.36035584565252,137.57598766149022 38.84864052152261,139.51944418030325 37.82520987465978,142.1569891127292 34.882846764754504,146.876797163859 34.11527377925813,149.6531493292423 33.85941611789167,152.15186278743204 34.11527377925813,154.6505729383789 34.882846764754504,157.42691367224324 35.778348580002785,159.3703497570241 38.59278285969049,164.22893121652305 40.0,166.17236029927153 41.2792883082293,169.6427644008072 42.55857661738992,171.86381967796478 43.837864925619215,173.66842516697943 45.245082065463066,175.0565820618067 46.14058388210833,177.0" stroke="#4dd2ff" stroke-linecap="round" stroke-linejoin="round" stroke-width="0.5"><title>2023-09-19 1.0km</title><desc>9876194288</desc></polyline><polyline fill="none" points="99.60251986607909,123.0 98.64856754336506,124.55273300828412 97.05864700768143,127.65819594240747 96.58167084585875,129.72850228124298 93.7198138795793,134.731735059293 91.4939251281321,139.38990771071985 91.01694896724075,141.1151544940658 91.17594102118164,143.01292449003085 92.12989334389567,145.42826590244658 93.56082182656974,148.01612894213758 94.83275825623423,151.63913240260445 96.58167084585875,155.43465383769944 98.48957549035549,158.8851225420367 100.23848808091134,161.12792447931133 102.30538477841765,164.57838481198996 103.57732120715082,168.54640792217106 105.80320995952934,171.99685734673403 106.91615433525294,175.10225749085657 108.98305103275925,177.0" stroke="#4dd2ff" stroke-linecap="round" stroke-linejoin="round" stroke-width="0.5"><title>2023-09-18 1.0km</title><desc>9870505463</desc></polyline><polyline fill="none" points="160.5426032030955,123.0 159.7674557697028,124.51403605786618 158.68224936258048,129.56081568065565 157.28698398265988,131.91597569501027 156.66686603520066,133.7664568623295 153.25621732790023,139.31789138482418 152.0159814339131,142.34594090166502 151.2408340005204,145.03753710712772 151.8609519470483,146.8880076620262 155.27160065434873,154.28987491468433 156.97692500893027,156.98145706986543 158.21716090198606,159.84125964005943 160.23254422936589,162.53283526469022 161.31775063741952,164.3832916696556 162.71301601734012,168.75709176936653 168.75916599854827,177.0" stroke="#4dd2ff" stroke-linecap="round" stroke-linejoin="round" stroke-width="0.5"><title>2023-09-16 1.0km</title><desc>9856514700</desc></polyline><polyline fill="none" points="39.25353217124939,213.0 37.59471477288753,218.0400503978599 35.43825215566903,221.46007868717425 30.959445180371404,230.10012887162156 30.793563439510763,232.0801360779442 30.959445180371404,234.42014252929948 31.95473561901599,236.7601467440836 33.61355301737785,239.28014878183603 35.1064886758104,242.70014739828184 37.760596512816846,247.20013829879463 41.07823131047189,253.5001116641797 41.40999478939921,255.84009764227085 42.57116696797311,256.74009165377356 43.89822088740766,258.5400786837563 46.054683504626155,262.14004877442494 48.37702786177397,264.1200300678611 48.87467308156192,265.3800173299387 49.20643656142056,267.0" stroke="#4dd2ff" stroke-linecap="round" stroke-linejoin="round" stroke-width="0.5"><title>2023-09-15 1.0km</title><desc>9850671982</desc></polyline><polyline fill="none" points="101.37281268276274,213.0 98.62718731723726,220.2621359769255 95.53835878055543,224.73113238089718 94.16554609872401,227.15183547371998 92.1063270745799,232.36564966104925 91.59152231831104,234.22772355517372 91.59152231831104,235.71738168387674 92.1063270745799,237.57945311372168 94.16554609872401,243.16565918829292 96.05316353682429,246.88978972565383 100.6864063423127,254.89665183750913 102.57402378041297,258.4345595908817 102.917226950638,260.4828197155148 104.29003963340074,261.7862571137957 106.52086024358869,265.324155242648 108.40847768168896,267.0" stroke="#4dd2ff" stroke-linecap="round" stroke-linejoin="round" stroke-width="0.5"><title>2023-09-14 1.0km</title><desc>9844236351</desc></polyline><polyline fill="none" points="151.41774025605991,213.0 152.40562626952305,213.80398195714224 152.77608352480456,214.607963559567 153.02305502817035,216.34992248099297 153.7639695382677,217.82388642209116 154.25791254546493,221.9777783867903 154.25791254546493,223.9877227123361 154.0109410416335,225.05969211284537 154.25791254546493,226.3996529771248 154.87534130364656,228.00760471366812 154.62836980074644,229.34756341029424 154.7518555521965,230.01754238898866 155.9867130694911,232.2954690749757 157.09808483486995,235.6453560879454 158.0859708483331,237.52129012567457 159.32082836562768,239.26322714588605 160.67917163437232,240.4691825689515 161.04962888918817,241.27315240784083 161.42008614446968,243.01508584222756 162.40797215839848,244.75701761152595 163.51934392377734,247.97288727317937 165.00117294397205,250.7867685726378 165.7420874540694,253.19866337138228 166.1125447093509,255.208573265234 166.85345921991393,256.81649958493654 168.21180248865858,261.2382896487834 170.06408876460046,264.72211668931413 170.18757451651618,265.2580894890707 170.06408876460046,265.6600689855404 168.58225974394009,267.0 169.32317425403744,266.46402771235444 169.69363150931895,265.6600689855404 169.94060301221907,264.99010310904123 169.81711726123467,264.05215046799276 169.07620275113732,263.11419734405354 166.85345921991393,258.2904307979625 165.7420874540694,254.6725975102745 163.39585817186162,249.446825638297 162.28448640648276,244.35503350489307 161.66705764830112,242.88109102193266 159.32082836562768,239.79920743242837 156.97459908295423,235.37736535340082 155.8632273171097,231.75948658154812 155.49277006322518,229.34756341029424 154.50488404836506,226.80164104432333 152.52911202143878,222.51376375707332 152.03516901424155,220.50381780567113 150.3063684902154,217.287899672403 149.93591123539954,215.545941647375 149.81242548348382,213.40199102298357" stroke="#4dd2ff" stroke-linecap="round" stroke-linejoin="round" stroke-width="0.5"><title>2023-09-13 1.0km</title><desc>9837636972</desc></polyline></svg>