<?xml version="1.0" encoding="utf-8" ?>
<svg baseProfile="full" height="300mm" version="1.1" viewBox="0,0,200,300" width="200mm" xmlns="http://www.w3.org/2000/svg" xmlns:ev="http://www.w3.org/2001/xml-events" xmlns:xlink="http://www.w3.org/1999/xlink"><defs /><rect fill="#222222" height="300" width="200" x="0" y="0" /><text fill="#FFFFFF" style="font-size:12px; font-family:Arial; font-weight:bold;" x="10" y="20">Over 1km Runs</text><text fill="#FFFFFF" style="font-size:4px; font-family:Arial" x="10" y="280">ATHLETE</text><text fill="#FFFFFF" style="font-size:9px; font-family:Arial" x="10" y="290">Jiakai</text><text fill="#FFFFFF" style="font-size:4px; font-family:Arial" x="120" y="280">STATISTICS</text><text fill="#FFFFFF" style="font-size:3px; font-family:Arial" x="120" y="285">Number: 11</text><text fill="#FFFFFF" style="font-size:3px; font-family:Arial" x="120" y="290">Weekly: 5.5</text><text fill="#FFFFFF" style="font-size:3px; font-family:Arial" x="141" y="285">Total: 11.2 km</text><text fill="#FFFFFF" style="font-size:3px; font-family:Arial" x="141" y="290">Avg: 1.0 km</text><text fill="#FFFFFF" style="font-size:3px; font-family:Arial" x="167" y="285">Min: 1.0 km</text><text fill="#FFFFFF" style="font-size:3px; font-family:Arial" x="167" y="290">Max: 1.0 km</text><polyline fill="none" points="43.98114668019116,33.0 42.65409778757021,35.016026756260544 42.38868800830096,36.024039356037974 42.65409778757021,37.32005479373038 42.78680267650634,38.61606937320903 40.13270488940179,43.512116711819544 39.469180442392826,46.82414179435 38.540246217511594,49.27215673355386 32.96664086449891,59.06418589060195 32.83393597509712,60.21618610166479 33.36475553177297,62.52018449199386 34.8245093151927,64.82418017170858 35.62073865160346,66.84017416799907 36.81508265528828,68.85616608895361 37.47860710229725,70.87215593468864 39.2037706640549,73.60813883529045 40.53081955714151,76.34411791386083 41.9905733410269,77.92810405453201 42.38868800830096,79.36809034342878 43.317622234113514,80.52007861202583 45.308195574674755,83.97603935352527 46.76794935716316,85.5600193219725 47.16606402536854,87.0" stroke="#4dd2ff" stroke-linecap="round" stroke-linejoin="round" stroke-width="0.5"><title>2023-09-24 1.0km</title><desc>9907510217</desc></polyline><polyline fill="none" points="102.01312428433448,33.0 100.88577468506992,34.74759202566929 100.08052497170866,36.4951827658806 99.59737514425069,38.76704880781472 99.43632520083338,41.73794727749191 96.69847617391497,45.40787555463612 95.08797674719244,49.602072360692546 93.6385272629559,51.69916798803024 92.67222760617733,54.4952926132828 92.51117766276002,57.466171423206106 95.8932264605537,66.0292719216086 97.18162600230426,68.65062304981984 101.3689245134592,75.29136630217545 103.14047388359904,79.66026621847413 105.39517308212817,82.45635795011185 106.68357262387872,84.72818006086163 107.4888223381713,87.0" stroke="#4dd2ff" stroke-linecap="round" stroke-linejoin="round" stroke-width="0.5"><title>2023-09-23 1.0km</title><desc>9901004991</desc></polyline><polyline fill="none" points="162.07351915724576,33.0 160.99836107622832,35.00002294080332 159.9232029952109,38.50005884026177 157.46569881029427,43.666768623981625 155.00819462537766,47.16679114091676 152.8578784633428,53.000149992876686 152.7042844509706,56.16682422568556 153.01147247571498,58.00015991809778 156.0833527063951,65.33348785818089 156.5441347407177,67.50014839123469 157.1585107864812,68.66681089741178 159.30882694851607,71.33346580003854 160.99836107622832,74.66678001615219 162.3807071801275,78.1667546685785 164.68461735360324,81.50005883711856 167.29571554996073,87.0" stroke="#4dd2ff" stroke-linecap="round" stroke-linejoin="round" stroke-width="0.5"><title>2023-09-22 1.0km</title><desc>9895405405</desc></polyline><polyline fill="none" points="42.862554367631674,93.0 42.42216138821095,94.59293962083757 41.54137542936951,95.54870283126365 39.63300585094839,99.05316432798281 38.89901755191386,101.60186003765557 36.69705265387893,107.17712144902907 34.34829009603709,111.95590552466456 32.880313497036695,115.46034048101865 32.439920517615974,117.21255583292805 32.439920517615974,118.32760122837499 32.880313497036695,119.92052222613711 33.76109945680946,121.51344205299392 35.66946903523058,126.45148607261945 37.57783861272037,129.95589758083224 38.60542223136872,132.50455693574622 40.513791809789836,135.6903769132914 41.688173088245094,137.12399437499698 42.56895904801786,139.67264529759996 44.9177216058597,143.81419665238354 47.560079482384026,147.0" stroke="#4dd2ff" stroke-linecap="round" stroke-linejoin="round" stroke-width="0.5"><title>2023-09-21 1.0km</title><desc>9889267953</desc></polyline><polyline fill="none" points="105.49787143664435,93.0 103.57078247936442,98.78140450408682 102.4372007404454,103.33270888705738 100.6234699562192,107.14595437725075 98.46966465143487,113.54234664782416 94.7288449103944,120.55374854023103 93.70862134499475,124.36695477657486 93.82197951851413,125.22800014319364 94.50212856242433,127.07309586496558 95.97578482422978,130.27125696255825 96.88265021611005,132.97738850058522 99.14981369534507,136.17553831113037 100.51011178316548,138.75865484925453 101.3036190001294,140.6037356487941 102.21048439154401,142.2028040291043 103.68414065381512,143.30985047400463 105.49787143664435,146.0159609223483 105.61122961109504,146.50798053340986 106.29137865500525,147.0" stroke="#4dd2ff" stroke-linecap="round" stroke-linejoin="round" stroke-width="0.5"><title>2023-09-20 1.0km</title><desc>9882714971</desc></polyline><polyline fill="none" points="164.47750908043236,93.0 163.3261496028863,95.91520653560292 161.15135947801173,102.30088131153025 161.02343064686283,104.38316189462785 160.25585766136646,105.4937105999561 159.36035584565252,107.57598766149022 158.8486405215226,109.51944418030325 157.82520987465978,112.1569891127292 154.8828467647545,116.87679716385901 154.11527377925813,119.6531493292423 153.85941611789167,122.15186278743204 154.11527377925813,124.6505729383789 154.8828467647545,127.42691367224324 155.77834858000278,129.3703497570241 158.5927828596905,134.22893121652305 160.0,136.17236029927153 161.2792883082293,139.6427644008072 162.55857661738992,141.86381967796478 163.83786492561921,143.66842516697943 165.24508206546307,145.0565820618067 166.14058388210833,147.0" stroke="#4dd2ff" stroke-linecap="round" stroke-linejoin="round" stroke-width="0.5"><title>2023-09-19 1.0km</title><desc>9876194288</desc></polyline><polyline fill="none" points="39.60251986607909,153.0 38.64856754336506,154.55273300828412 37.05864700768143,157.65819594240747 36.58167084585875,159.72850228124298 33.719813879579306,164.731735059293 31.493925128132105,169.38990771071985 31.01694896724075,171.1151544940658 31.175941021181643,173.01292449003085 32.129893343895674,175.42826590244658 33.560821826569736,178.01612894213758 34.83275825623423,181.63913240260445 36.58167084585875,185.43465383769944 38.48957549035549,188.8851225420367 40.23848808091134,191.12792447931133 42.30538477841765,194.57838481198996 43.57732120715082,198.54640792217106 45.80320995952934,201.99685734673403 46.91615433525294,205.10225749085657 48.98305103275925,207.0" stroke="#4dd2ff" stroke-linecap="round" stroke-linejoin="round" stroke-width="0.5"><title>2023-09-18 1.0km</title><desc>9870505463</desc></polyline><polyline fill="none" points="100.5426032030955,153.0 99.76745576970279,154.51403605786618 98.68224936258048,159.56081568065565 97.28698398265988,161.91597569501027 96.66686603520066,163.7664568623295 93.25621732790023,169.31789138482418 92.01598143391311,172.34594090166502 91.24083400052041,175.03753710712772 91.8609519470483,176.8880076620262 95.27160065434873,184.28987491468433 96.97692500893027,186.98145706986543 98.21716090198606,189.84125964005943 100.23254422936589,192.53283526469022 101.31775063741952,194.3832916696556 102.71301601734012,198.75709176936653 108.75916599854827,207.0" stroke="#4dd2ff" stroke-linecap="round" stroke-linejoin="round" stroke-width="0.5"><title>2023-09-16 1.0km</title><desc>9856514700</desc></polyline><polyline fill="none" points="159.2535321712494,153.0 157.59471477288753,158.0400503978599 155.43825215566903,161.46007868717425 150.9594451803714,170.10012887162156 150.79356343951076,172.0801360779442 150.9594451803714,174.42014252929948 151.954735619016,176.7601467440836 153.61355301737785,179.28014878183603 155.1064886758104,182.70014739828184 157.76059651281685,187.20013829879463 161.0782313104719,193.5001116641797 161.4099947893992,195.84009764227085 162.5711669679731,196.74009165377356 163.89822088740766,198.5400786837563 166.05468350462615,202.14004877442494 168.37702786177397,204.12003006786108 168.87467308156192,205.3800173299387 169.20643656142056,207.0" stroke="#4dd2ff" stroke-linecap="round" stroke-linejoin="round" stroke-width="0.5"><title>2023-09-15 1.0km</title><desc>9850671982</desc></polyline><polyline fill="none" points="41.37281268276274,213.0 38.62718731723726,220.2621359769255 35.53835878055543,224.73113238089718 34.16554609872401,227.15183547371998 32.106327074579895,232.36564966104925 31.591522318311036,234.22772355517372 31.591522318311036,235.71738168387674 32.106327074579895,237.57945311372168 34.16554609872401,243.16565918829292 36.053163536824286,246.88978972565383 40.686406342312694,254.89665183750913 42.57402378041297,258.4345595908817 42.917226950637996,260.4828197155148 44.29003963340074,261.7862571137957 46.520860243588686,265.324155242648 48.408477681688964,267.0" stroke="#4dd2ff" stroke-linecap="round" stroke-linejoin="round" stroke-width="0.5"><title>2023-09-14 1.0km</title><desc>9844236351</desc></polyline><polyline fill="none" points="91.41774025605991,213.0 92.40562626952305,213.80398195714224 92.77608352480456,214.607963559567 93.02305502817035,216.34992248099297 93.7639695382677,217.82388642209116 94.25791254546493,221.9777783867903 94.25791254546493,223.9877227123361 94.01094104163349,225.05969211284537 94.25791254546493,226.3996529771248 94.87534130364656,228.00760471366812 94.62836980074644,229.34756341029424 94.7518555521965,230.01754238898866 95.98671306949109,232.2954690749757 97.09808483486995,235.6453560879454 98.08597084833309,237.52129012567457 99.32082836562768,239.26322714588605 100.67917163437232,240.4691825689515 101.04962888918817,241.27315240784083 101.42008614446968,243.01508584222756 102.40797215839848,244.75701761152595 103.51934392377734,247.97288727317937 105.00117294397205,250.7867685726378 105.7420874540694,253.19866337138228 106.11254470935091,255.208573265234 106.85345921991393,256.81649958493654 108.21180248865858,261.2382896487834 110.06408876460046,264.72211668931413 110.18757451651618,265.2580894890707 110.06408876460046,265.6600689855404 108.58225974394009,267.0 109.32317425403744,266.46402771235444 109.69363150931895,265.6600689855404 109.94060301221907,264.99010310904123 109.81711726123467,264.05215046799276 109.07620275113732,263.11419734405354 106.85345921991393,258.2904307979625 105.7420874540694,254.6725975102745 103.39585817186162,249.446825638297 102.28448640648276,244.35503350489307 101.66705764830112,242.88109102193266 99.32082836562768,239.79920743242837 96.97459908295423,235.37736535340082 95.8632273171097,231.75948658154812 95.49277006322518,229.34756341029424 94.50488404836506,226.80164104432333 92.52911202143878,222.51376375707332 92.03516901424155,220.50381780567113 90.30636849021539,217.287899672403 89.93591123539954,215.545941647375 89.81242548348382,213.40199102298357" stroke="#4dd2ff" stroke-linecap="round" stroke-linejoin="round" stroke-width="0.5"><title>2023-09-13 1.0km</title><desc>9837636972</desc></polyline></svg>