<?xml version="1.0" encoding="utf-8" ?>
<svg baseProfile="full" height="300mm" version="1.1" viewBox="0,0,200,300" width="200mm" xmlns="http://www.w3.org/2000/svg" xmlns:ev="http://www.w3.org/2001/xml-events" xmlns:xlink="http://www.w3.org/1999/xlink"><defs /><rect fill="#222222" height="300" width="200" x="0" y="0" /><text fill="#FFFFFF" style="font-size:12px; font-family:Arial; font-weight:bold;" x="10" y="20">Over 1km Runs</text><text fill="#FFFFFF" style="font-size:4px; font-family:Arial" x="10" y="280">ATHLETE</text><text fill="#FFFFFF" style="font-size:9px; font-family:Arial" x="10" y="290">Jiakai</text><text fill="#FFFFFF" style="font-size:4px; font-family:Arial" x="120" y="280">STATISTICS</text><text fill="#FFFFFF" style="font-size:3px; font-family:Arial" x="120" y="285">Number: 76</text><text fill="#FFFFFF" style="font-size:3px; font-family:Arial" x="120" y="290">Weekly: 5.8</text><text fill="#FFFFFF" style="font-size:3px; font-family:Arial" x="141" y="285">Total: 78.5 km</text><text fill="#FFFFFF" style="font-size:3px; font-family:Arial" x="141" y="290">Avg: 1.0 km</text><text fill="#FFFFFF" style="font-size:3px; font-family:Arial" x="167" y="285">Min: 1.0 km</text><text fill="#FFFFFF" style="font-size:3px; font-family:Arial" x="167" y="290">Max: 1.5 km</text><polyline fill="none" points="17.490760158281773,31.125 18.296311553101987,33.01889366377145 19.773155776783824,39.28329827217385 21.921292829327285,43.21675150946248 23.66665418446064,48.02429486287292 24.472205579280853,51.08363456081133 24.87498127669096,51.375 25.009239841718227,50.35522077570204 24.74072271026671,49.04407528694719 22.592585657723248,44.52790085342713 21.115741434507072,42.342651464859955 20.31019003968686,40.74013371474575 17.625018724706024,31.562052544555627" stroke="#4dd2ff" stroke-linecap="round" stroke-linejoin="round" stroke-width="0.5"><title>2023-12-06 1.0km</title><desc>10334845031</desc></polyline><polyline fill="none" points="41.883806210942566,34.61639471130911 42.78472735080868,39.22502590424847 43.685648490674794,42.576750658103265 45.87359983054921,48.30260009842459 47.03192701051012,50.95603666966781 47.418036070186645,51.375 46.90322399046272,48.86121863196604 45.61619379045442,46.48708872986026 44.45786661049351,43.13537087570876 42.78472735080868,39.643991821911186 42.0125092305243,36.990539449383505 40.725479030516,34.197427685023285 40.08196393027902,31.125" stroke="#4dd2ff" stroke-linecap="round" stroke-linejoin="round" stroke-width="0.5"><title>2023-12-05 1.0km</title><desc>10329306344</desc></polyline><polyline fill="none" points="62.5306627266109,32.82430888223462 63.44418416218832,34.24039847229142 64.61871172254905,38.34705239557661 66.96776684233919,44.152996451826766 68.14229440269992,48.11802135966718 69.18631890043616,50.38374621444382 69.96933727385476,51.375 69.96933727385476,50.66696163348388 66.57625765539706,42.87852242635563 65.27122703380883,38.48866099573206 63.83569334866479,35.23166056594346 62.791668850462884,31.125" stroke="#4dd2ff" stroke-linecap="round" stroke-linejoin="round" stroke-width="0.5"><title>2023-12-04 1.0km</title><desc>10324662812</desc></polyline><polyline fill="none" points="85.2329415678978,32.994238877203315 86.66847562231123,38.44617618306074 88.96533010853454,43.58656136528589 90.54441756755114,49.038471416104585 91.69284481089562,51.219231507973745 92.55416524317116,51.375 92.55416524317116,50.75192596309353 91.5492914058268,49.038471416104585 90.25731075694785,45.30002032138873 88.82177670300007,43.11925413669087 87.81690286565572,40.47117789497133 86.09426200063899,34.24039721232839 84.9458347572945,31.125" stroke="#4dd2ff" stroke-linecap="round" stroke-linejoin="round" stroke-width="0.5"><title>2023-12-02 1.0km</title><desc>10313350310</desc></polyline><polyline fill="none" points="107.57416334142908,32.19886857050005 108.98794667189941,34.039784834720194 110.6844866676256,39.869342289399356 111.81551333190873,44.62502183509059 113.65343166096136,49.84091597085353 114.78445832477883,51.375 114.92583665857092,50.45454971771687 114.64307999238372,48.61364793498069 113.08791832858697,45.23865711595863 110.6844866676256,41.40343364945147 109.2707033380866,38.4886591010727 107.85692000715062,31.125" stroke="#4dd2ff" stroke-linecap="round" stroke-linejoin="round" stroke-width="0.5"><title>2023-12-01 1.0km</title><desc>10308709030</desc></polyline><polyline fill="none" points="130.0176109103486,31.125 132.81690272688866,40.74377227539662 135.61619454342872,46.48126636992674 137.1713566640392,50.700002878322266 137.63790530059487,51.375 137.79342151246965,50.86875217733905 137.1713566640392,49.18125862872694 134.83861348312348,45.97501746809576 134.21654863562435,44.287520321668126 131.88380545470864,39.731271829106845 130.79519197065383,34.50001240626443 129.70657848659903,31.46250146406237" stroke="#4dd2ff" stroke-linecap="round" stroke-linejoin="round" stroke-width="0.5"><title>2023-11-30 1.0km</title><desc>10303537703</desc></polyline><polyline fill="none" points="153.9333466612734,35.45432848704513 154.8342674043961,38.38709379185457 155.22037629410625,40.76123381732032 156.63610888971016,43.55433593096677 158.1805444485508,47.743981400853954 159.72498000692576,51.09569112374447 159.9823859333992,51.375 160.23979185940698,51.09569112374447 159.9823859333992,50.11810973205138 158.95276222750545,48.30260009842459 157.53702963190153,44.3922657641815 155.47778222057968,40.2026129020378 154.7055644406937,35.733639663551 153.16112888185307,33.35949335433543 152.26020814012736,31.125" stroke="#4dd2ff" stroke-linecap="round" stroke-linejoin="round" stroke-width="0.5"><title>2023-11-29 1.0km</title><desc>10298007687</desc></polyline><polyline fill="none" points="175.25927883014083,33.747313821921125 176.73612240189686,37.53509432740975 177.00463941460475,40.30308319476899 178.88425850635394,44.81926725700032 179.95832655904815,48.89839240151923 180.89813610492274,50.792269078898244 181.83794565079734,51.375 182.2407211707905,51.375 182.50923818396404,50.93795182532631 182.37497967714444,50.35522077570204 181.83794565079734,49.33544102625456 179.6898095458746,43.65380138740875 177.54167344141752,38.700563795515336 177.13889792142436,36.36962417385075 176.1990883750841,33.60162981192116 174.99076181603596,31.125" stroke="#4dd2ff" stroke-linecap="round" stroke-linejoin="round" stroke-width="0.5"><title>2023-11-28 1.0km</title><desc>10292316108</desc></polyline><polyline fill="none" points="20.77453567041084,55.29166666662786 21.96319649508223,58.516204605577514 22.676392989698797,61.61175545130391 23.627321648877114,63.0305477634538 24.697116391267627,65.09424362389836 25.76691113319248,68.44774422014598 26.717839792370796,69.99551156384405 26.717839792370796,70.7693947236985 26.123509380500764,71.28531664074399 24.221652061212808,72.31716001965106 23.03299123700708,73.34900279145222 21.844330412801355,73.99390421563294 20.061339175794274,74.76778561191168 17.208553197328,75.54166666662786 16.733088867738843,75.412686514901 16.37649062043056,75.02574600162916 15.782160207629204,72.57512076944113" stroke="#4dd2ff" stroke-linecap="round" stroke-linejoin="round" stroke-width="0.5"><title>2023-11-27 1.0km</title><desc>10287544518</desc></polyline><polyline fill="none" points="41.792453923262656,59.681544879684225 42.44496928201988,61.23924119537696 44.01100614434108,69.16931199992541 45.70754607766867,73.27594297786709 46.621067580766976,74.83362830022816 47.2735829395242,75.54166666662786 47.404086011927575,75.40005901409313 47.012576796114445,74.69202059553936 47.012576796114445,73.5591585849179 45.968552221078426,71.15182459971402 44.79402457503602,67.18679735972546 43.61949692852795,64.77945541031659 42.83647849736735,60.24798004934564 40.61792627628893,56.70775750593748 40.095913988538086,55.29166666662786" stroke="#4dd2ff" stroke-linecap="round" stroke-linejoin="round" stroke-width="0.5"><title>2023-11-26 1.0km</title><desc>10281488289</desc></polyline><polyline fill="none" points="62.56276023760438,55.29166666662786 64.06775605864823,59.2110359123908 65.42225229833275,64.76346383988857 66.77674853801727,67.86628516553901 67.07774770259857,69.82595955929719 67.83024561405182,71.62232623505406 69.48574101738632,74.72513798053842 70.23823892790824,75.54166666662786 70.53923809248954,75.54166666662786 68.28174435999244,70.64249004633166 67.98074519541115,69.00942877214402 66.4757493743673,66.88644732057583 63.465757730416954,58.72111513547134 61.96076190844178,55.944895354798064" stroke="#4dd2ff" stroke-linecap="round" stroke-linejoin="round" stroke-width="0.5"><title>2023-11-25 1.0km</title><desc>10275889695</desc></polyline><polyline fill="none" points="84.825757259503,55.48091974109411 85.87222198955715,60.212242065463215 90.7557240659371,73.45989831234328 91.97659958526492,75.35241506807506 92.49983195029199,75.54166666674428 92.67424273956567,74.97391182789579 90.93013485427946,72.70289122057147 88.83720539323986,66.45757421874441 87.44191908556968,63.618788754567504 86.5698651438579,58.1304613139946 85.52340041287243,55.29166666674428" stroke="#4dd2ff" stroke-linecap="round" stroke-linejoin="round" stroke-width="0.5"><title>2023-11-24 1.0km</title><desc>10271180196</desc></polyline><polyline fill="none" points="108.7321199523285,57.54167593049351 109.17645172588527,58.82739446940832 110.21322586201131,64.29168982524425 112.73110591061413,72.00596589781344 113.91599063854665,75.22023956058547 114.36032241117209,75.54166666662786 114.95276477560401,75.54166666662786 115.10087536741048,75.22023956058547 114.80465418472886,73.6131033198908 113.17543768323958,68.95240154094063 108.88023054320365,59.63096817256883 107.39912463352084,55.29166666662786" stroke="#4dd2ff" stroke-linecap="round" stroke-linejoin="round" stroke-width="0.5"><title>2023-11-23 1.0km</title><desc>10265414399</desc></polyline><polyline fill="none" points="131.97580239595845,59.85506540059578 132.10722444113344,61.85154897056054 132.63291261997074,64.98887614335399 134.7356653357856,70.97830483713187 135.39277555933222,73.83040723903105 136.44415191700682,75.54166666662786 137.23268418526277,75.54166666662786 137.1012621410191,74.68603714136407 135.6556196482852,70.97830483713187 134.4728212459013,69.1244360273704 132.7643346642144,63.848030486144125 130.79300399310887,58.42900444951374 130.26731581473723,55.29166666662786" stroke="#4dd2ff" stroke-linecap="round" stroke-linejoin="round" stroke-width="0.5"><title>2023-11-21 1.0km</title><desc>10253878272</desc></polyline><polyline fill="none" points="154.07050360320136,60.7606648724759 154.75159622682258,65.19497682049405 157.6121852477081,72.4376653037034 158.8381519713439,75.09823819377925 159.24680754588917,75.54166666662786 159.51924459589645,75.39385718666017 159.65546312043443,75.09823819377925 159.1105890213512,72.73328468750697 156.6586555740796,67.4121291275369 155.70512590091676,64.6037357924506 154.20672212773934,58.83912665722892 153.3894109786488,57.36101908842102 152.84453687956557,55.29166666662786" stroke="#4dd2ff" stroke-linecap="round" stroke-linejoin="round" stroke-width="0.5"><title>2023-11-20 1.0km</title><desc>10248671423</desc></polyline><polyline fill="none" points="175.14485171297565,56.97917417238932 177.12414881167933,61.27464166539721 177.68966226885095,65.72350939013995 179.24482427490875,69.25191497895867 180.79998628096655,73.70076569588855 181.50687810219824,74.77462479262613 182.35514828702435,75.54166666662786 182.21376992342994,74.3143995332066 179.81033773208037,68.02464414632414 178.25517572602257,62.348507156944834 176.7000137194991,58.66668031353038 175.85174353420734,55.29166666662786" stroke="#4dd2ff" stroke-linecap="round" stroke-linejoin="round" stroke-width="0.5"><title>2023-11-19 1.0km</title><desc>10242265034</desc></polyline><polyline fill="none" points="17.314351088833064,97.50100262020715 18.198766574729234,94.71784118225332 18.552532769273967,94.04604270448908 19.171623608563095,93.66215770493727 22.178636259865016,93.27827259234618 24.38967497413978,92.79841604270041 25.097207362763584,92.22258795029484 25.53941510571167,91.64675960410386 26.070064397063106,89.2474720927421 25.89318129979074,88.47969915752765 26.24694749386981,87.9038691597525 25.981622848194093,83.48916406824719 25.804739751387388,82.91333186859265 25.716298202518374,81.18583374435548 25.53941510571167,80.13013932073954 24.566558071412146,79.8422225114191 23.77058413438499,80.41805606614798 23.947467231191695,80.13013932073954 24.12435032846406,80.41805606614798 22.974610196892172,79.8422225114191 22.88616864895448,79.45833333337214 22.6208440028131,79.65027793648187 22.797727100085467,79.55430563853588 22.178636259865016,80.32208382477984 22.26707780873403,80.22611157631036 24.12435032846406,81.18583374435548 23.682142585981637,81.56972241401672 22.974610196892172,81.85763884219341 21.294220774434507,82.14555520680733 21.205779225565493,81.76166670629755 21.647986968513578,81.56972241401672 22.26707780873403,81.66569456376601 24.12435032846406,79.8422225114191 26.689155236817896,79.9381947881775 26.423830591142178,79.74625022732653 26.070064397063106,79.65027793648187 25.804739751387388,84.25693993968889 25.89318129979074,85.6005466276547 26.158505945000798,87.23206717451103 26.335389042738825,90.01524457638152 26.335389042738825,90.97495954553597 26.070064397063106,91.93467380886432 25.53941510571167,92.51050202839542 21.11733767716214,92.99035868374631 19.083182060159743,93.37424388108775 18.021883477456868,94.14201393676922 16.783701797481626,95.8694949108176 16.076169408857822,98.36474116996396 15.810844763182104,99.70833333337214" stroke="#4dd2ff" stroke-linecap="round" stroke-linejoin="round" stroke-width="0.5"><title>2023-11-18 1.0km</title><desc>10236386505</desc></polyline><polyline fill="none" points="39.617714813910425,79.45833333337214 42.55030430061743,84.52085287333466 43.61670047743246,88.28157324180938 44.01659904420376,90.45121633785311 44.81639617681503,91.75300104729831 47.349087096750736,99.12976479739882 47.882285185623914,99.70833333337214 47.882285185623914,99.12976479739882 47.349087096750736,98.40655388811138 45.882792353630066,94.06728284840938 45.08299522101879,92.62085704167839 44.81639617681503,90.16193073021714 43.61670047743246,87.12442927830853 42.28370525641367,84.23156639374793 42.15040573431179,82.64048999361694" stroke="#4dd2ff" stroke-linecap="round" stroke-linejoin="round" stroke-width="0.5"><title>2023-11-17 1.0km</title><desc>10231268371</desc></polyline><polyline fill="none" points="62.638010825030506,80.11156202177517 64.59450496174395,82.88778180221561 65.04600360803306,86.64383833552711 66.40049954969436,89.58335640921723 68.50749323517084,97.42205225571524 69.86198917590082,99.70833333337214 69.71148962620646,98.4018872914603 68.65799278393388,96.27891083422583 67.90549503918737,94.1559323478723 66.70149864722043,89.0934370001778 64.29350586421788,84.03093011502642 63.54100811854005,81.74463290069252 63.089509471319616,79.45833333337214" stroke="#4dd2ff" stroke-linecap="round" stroke-linejoin="round" stroke-width="0.5"><title>2023-11-16 1.0km</title><desc>10225818993</desc></polyline><polyline fill="none" points="85.23834346886724,79.67607600498013 86.24167390633374,83.59544136095792 87.84700260683894,87.95028567290865 90.05432956852019,92.08738183928654 90.85699391830713,95.35350630921312 92.26165653020144,98.18414460332133 93.66631914302707,99.70833333325572 90.05432956852019,92.95834871660918 88.44900086894631,87.95028567290865 83.83368085790426,79.45833333325572" stroke="#4dd2ff" stroke-linecap="round" stroke-linejoin="round" stroke-width="0.5"><title>2023-11-15 1.0km</title><desc>10219684298</desc></polyline><polyline fill="none" points="107.67195953754708,81.89443403633777 109.49605859722942,84.17827584256884 109.77668922115117,87.0711385149043 111.88141890522093,92.09557460516226 113.14425671473145,96.3587229406694 114.4070945251733,99.5560784334084 114.96835577394813,99.70833333337214 114.8280404615216,97.88127379107755 113.00394140277058,95.44519189326093 112.30236484110355,93.31361788243521 111.1798423435539,91.9433191451244 110.75889640673995,90.2685083465185 108.65416672360152,86.00534747436177 107.9525901619345,82.96022719249595 107.5316442255862,79.45833333337214" stroke="#4dd2ff" stroke-linecap="round" stroke-linejoin="round" stroke-width="0.5"><title>2023-11-14 1.0km</title><desc>10213806154</desc></polyline><polyline fill="none" points="131.04537082230672,82.24638900742866 132.12722249375656,86.35509553411976 135.10231458954513,93.98552807257511 135.77847188385203,96.4800862291595 137.13078647339717,99.26811812655069 137.53648085007444,99.70833333337214 136.7250920967199,98.24094893329311 134.83185167144984,93.69205043767579 134.69662021286786,92.51813946524635 133.3443056237884,89.28988073195796 131.315833740402,85.62139856035355 130.5044449865818,83.12682683218736 129.96351915039122,79.45833333337214" stroke="#4dd2ff" stroke-linecap="round" stroke-linejoin="round" stroke-width="0.5"><title>2023-11-13 1.0km</title><desc>10208522228</desc></polyline><polyline fill="none" points="153.98794633941725,81.75947959395126 155.40172987710685,86.0549458238529 157.09827012289315,89.58335789793637 158.08791859960184,93.72539924143348 159.07756707584485,96.6401641467819 160.3499722601846,99.40151661774144 160.91548567498103,99.70833333337214 161.19824238307774,99.09469985682517 159.64308049110696,96.02652976836544 158.79481036867946,92.65153746039141 155.68448658520356,89.73676698305644 153.98794633941725,87.28222026536241 153.70518963132054,84.67426121421158 151.30175761692226,79.45833333337214" stroke="#4dd2ff" stroke-linecap="round" stroke-linejoin="round" stroke-width="0.5"><title>2023-11-12 1.0km</title><desc>10202270880</desc></polyline><polyline fill="none" points="175.68609941005707,83.23633354611229 179.02853641752154,90.79231313825585 180.1426820862107,94.57029251893982 181.25682775583118,97.59267102414742 181.9531687987037,98.95273990172427 182.64950984157622,99.70833333337214 182.788778050337,99.1038586103823 181.5353641724214,95.32588756165933 179.16780462581664,91.69902882294264 176.66097687045112,85.95648939884268 175.68609941005707,81.87625426938757 174.71122194919735,79.45833333337214" stroke="#4dd2ff" stroke-linecap="round" stroke-linejoin="round" stroke-width="0.5"><title>2023-11-11 1.0km</title><desc>10196068378</desc></polyline><polyline fill="none" points="19.367434359155595,106.6447476092726 21.659253399819136,113.572389628971 23.78737108130008,119.25659388699569 24.76957924105227,122.98684566398151 25.424384681507945,123.875 25.751787401735783,123.51973830466159 25.260683321394026,121.38816703576595 22.805162920616567,115.88159922137856 20.349642519839108,110.73028248548508 17.075615317560732,105.57895476697013 16.748212597332895,103.625" stroke="#4dd2ff" stroke-linecap="round" stroke-linejoin="round" stroke-width="0.5"><title>2023-11-10 1.0km</title><desc>10191120477</desc></polyline><polyline fill="none" points="39.0489014852792,104.24332349712495 41.47067950852215,106.0982928982703 42.89525481592864,108.57158288673963 43.32262740842998,109.49906588252634 43.32262740842998,110.89028960908763 44.889660246204585,115.68227539851796 45.45949036907405,118.46471374866087 46.59915061527863,121.55630759662017 46.88406567648053,123.1021028162213 47.596353330649436,123.875 48.023725922219455,123.72042058606166 48.4510985147208,123.1021028162213 46.88406567648053,122.02004628209397 44.31983012333512,118.31013393669855 41.32822197815403,110.11738765251357 40.61593432398513,105.47996994620189 39.90364667028189,103.625" stroke="#4dd2ff" stroke-linecap="round" stroke-linejoin="round" stroke-width="0.5"><title>2023-11-09 1.0km</title><desc>10185506531</desc></polyline><polyline fill="none" points="62.299665975384414,105.25091993960086 63.7980685364455,108.20713464240544 64.3429421945475,109.68524036393501 66.11378158535808,113.52831015421543 66.79487365856767,116.1888926285319 66.65865524392575,114.56298153463285 66.93109207367525,115.59765238279942 67.47596573131159,119.58852066658437 68.7019314635545,123.28376201470383 69.24680512258783,123.875 69.92789719533175,123.57938102865592 70.20033402461559,123.13595249096397 68.7019314635545,121.80566629045643 67.61218414641917,120.03194998705294 66.93109207367525,118.11042222601827 65.9775631702505,114.85860183159821 64.615379024297,112.93706912617199 63.11697646277025,109.68524036393501 62.7083212188445,107.32027068792377 62.84453963348642,104.36405468103476 62.572102804202586,103.625" stroke="#4dd2ff" stroke-linecap="round" stroke-linejoin="round" stroke-width="0.5"><title>2023-11-08 1.0km</title><desc>10179505859</desc></polyline><polyline fill="none" points="87.83647836279124,114.81208925554529 92.40408654883504,123.875 92.66509273042902,123.73339234781452 92.01257727574557,122.17570748343132 90.83804945647717,120.19319765258115 90.05503091029823,118.21068578166887 88.4889938174747,116.51138826808892 87.96698145428672,115.52013069286477 87.5754721807316,112.12152941920795 87.31446599867195,111.13026958494447 85.74842890631407,108.43970460584387 84.83490726957098,103.625" stroke="#4dd2ff" stroke-linecap="round" stroke-linejoin="round" stroke-width="0.5"><title>2023-11-06 1.0km</title><desc>10167691585</desc></polyline><polyline fill="none" points="109.30325079616159,109.30667556147091 110.2430607569404,111.05488014931325 113.73378346674144,119.06746477528941 115.21062769088894,123.58363456081133 115.4791448218748,123.875 115.74766195332631,123.875 115.74766195332631,123.43795182509348 114.67359342705458,121.10702659829985 113.73378346674144,119.79587995330803 113.59952490124851,119.06746477528941 112.7939735064283,118.19336620881222 110.51157788839191,114.25991788762622 107.82640657247975,107.41278551763389 106.75233804667369,103.625" stroke="#4dd2ff" stroke-linecap="round" stroke-linejoin="round" stroke-width="0.5"><title>2023-11-05 1.1km</title><desc>10161301187</desc></polyline><polyline fill="none" points="129.96351998578757,103.625 132.66814856696874,109.64132579986472 133.88523142877966,114.92393837927375 135.77847143588588,118.59241111110896 136.45462858164683,121.52718444226775 137.13078572647646,123.875 137.53648001421243,123.43478479317855 137.40124858450145,122.99456948938314 135.64324000710621,119.76632096152753 135.50800857739523,119.32610484852921 133.88523142877966,116.83154504140839 133.2090742830187,114.48372119839769 131.45106570562348,111.2554589046631 131.04537141835317,108.46740999480244 130.23398284381256,105.53261746116914" stroke="#4dd2ff" stroke-linecap="round" stroke-linejoin="round" stroke-width="0.5"><title>2023-11-04 1.0km</title><desc>10155501797</desc></polyline><polyline fill="none" points="161.68291300861165,106.70096452429425 160.1475245496258,104.65032211167272 159.20267011318356,104.00949586252682 157.3129612407647,103.625 155.5413591726683,103.75316529721022 153.06111627677456,104.90665254509076 151.9981550355442,105.93197390250862 151.0533005995676,107.85444982117042 150.81708699045703,109.3924290293362 150.462766577024,114.5190165862441 150.69898018566892,119.90191728936043 150.93519379524514,120.67090174683835 152.1162618403323,122.59336140565574 153.53354349546134,123.61867235659156 155.89567958610132,123.875 158.0216020680964,122.97785308305174 160.02941774576902,120.54273769422434 160.6199517683126,119.38926079589874 161.44669939996675,115.67249670787714 161.44669939996675,112.72471265657805 162.03723342251033,108.87976944388356 161.91912661818787,107.46995480707847 160.6199517683126,105.93197390250862 159.55699052708223,105.16298294090666 157.07674763118848,104.00949586252682 155.7775727813132,104.00949586252682 152.94300947291777,104.90665254509076 151.64383462257683,106.06013902975246 150.81708699045703,107.5981198210502 150.58087338134646,108.62343959498685 150.81708699045703,112.85287728451658 150.58087338134646,114.77534556796309" stroke="#4dd2ff" stroke-linecap="round" stroke-linejoin="round" stroke-width="0.5"><title>2023-11-03 1.0km</title><desc>10152446508</desc></polyline><polyline fill="none" points="174.55896987952292,103.625 175.66603443957865,106.02755155786872 176.61494691949338,110.31781604560092 178.19646772090346,113.4068015946541 180.5687489202246,119.58476042887196 181.04320516064763,120.61441864538938 181.83396556135267,123.360171667533 182.3084218017757,123.875 182.9410301214084,123.875 182.9410301214084,123.53178112418391 181.83396556135267,123.0169527165126 181.35950932092965,121.81568599003367 180.2524447608739,120.78602830367163 179.4616843611002,118.55510175903328 178.35461980011314,116.83900296594948 177.0894031599164,114.26485241041519 175.66603443957865,108.94493226753548 174.7171219587326,106.71399440569803" stroke="#4dd2ff" stroke-linecap="round" stroke-linejoin="round" stroke-width="0.5"><title>2023-11-02 1.1km</title><desc>10144903556</desc></polyline><polyline fill="none" points="17.801598305348307,129.25906487507746 18.072061182931066,130.87320165871643 19.153912695124745,133.36777412006631 21.047152841463685,140.11777809017804 24.292707378510386,146.86775923275854 25.239327450748533,148.04166666662786 24.698401695583016,146.28080525714904 22.669930109754205,143.1992940522032 21.588078598026186,139.23734408430755 20.235764207784086,137.32973573950585 18.612986939027905,133.80799246625975 17.260672548785806,127.79166666662786" stroke="#4dd2ff" stroke-linecap="round" stroke-linejoin="round" stroke-width="0.5"><title>2023-11-01 1.0km</title><desc>10138966680</desc></polyline><polyline fill="none" points="40.803378876298666,128.09617941139732 41.504955334588885,130.38002356828656 42.627477667760104,136.47026234073564 44.45157645829022,140.4289079385344 45.57409879099578,144.08303562016226 47.398197582457215,148.04166666662786 47.538512873928994,147.88941176596563 46.275675249285996,146.06235208921134 44.45157645829022,141.79920657444745 42.90810825070366,139.05860839539673 40.24211771087721,130.98904825141653 39.96148712653667,127.79166666662786" stroke="#4dd2ff" stroke-linecap="round" stroke-linejoin="round" stroke-width="0.5"><title>2023-10-31 1.0km</title><desc>10133123337</desc></polyline><polyline fill="none" points="63.070559663232416,130.19167716510128 63.76174234552309,133.79168761963956 63.76174234552309,135.1416899022879 65.28234424535185,137.69169177673757 69.42944033676758,146.5416735591134 70.12062301905826,147.8916674052598 70.39709609141573,148.04166666662786 67.21765575464815,141.74168820353225 65.83529039146379,137.84169178793672 64.3146884907037,134.69168924051337 62.10290390858427,127.79166666662786" stroke="#4dd2ff" stroke-linecap="round" stroke-linejoin="round" stroke-width="0.5"><title>2023-10-30 1.0km</title><desc>10127985445</desc></polyline><polyline fill="none" points="85.55782746803015,130.7226017251378 86.17170680081472,134.85254762531258 86.54003440076485,136.1847862303257 88.99555173330009,141.9134010715643 90.22331039886922,145.24398277048022 92.06494839815423,147.77522076736204 92.55605186522007,148.04166666662786 92.67882773093879,147.6419978030026 91.57384493201971,145.91009837540332 89.97775866603479,142.44629455474205 87.15391373354942,137.25057640939485 86.04893093416467,133.3870840285672 85.18949986761436,131.65517097723205 85.06672400142998,128.9906861272175 84.82117226859555,127.79166666662786" stroke="#4dd2ff" stroke-linecap="round" stroke-linejoin="round" stroke-width="0.5"><title>2023-10-28 1.0km</title><desc>10115543824</desc></polyline><polyline fill="none" points="108.62350542237982,131.9916831862647 109.72939787618816,135.59169046452735 110.97352688619867,138.44169172167312 112.07941934000701,142.49168665974867 113.73825802095234,146.39167418773286 114.42944080382586,147.89166740584187 115.12062358716503,148.04166666662786 115.25886014429852,147.89166740584187 114.98238703096285,146.99167160713114 114.15296769049019,144.7416803742526 111.38823655666783,139.34169129177462 109.17645164905116,133.34168666007463 107.79408608190715,130.3416777276434 107.24113985523582,127.79166666662786" stroke="#4dd2ff" stroke-linecap="round" stroke-linejoin="round" stroke-width="0.5"><title>2023-10-27 1.0km</title><desc>10110442644</desc></polyline><polyline fill="none" points="131.00559645984322,130.91851812019013 133.61277982359752,139.70345589309 134.57332106260583,142.3835988137871 135.5338623020798,144.02146218635608 136.63162371795624,147.14828858268447 137.04328424902633,147.74387401598506 137.8666053111665,148.04166666662786 138.00382548756897,147.59497767395806 137.8666053111665,146.99939219711814 136.49440354062244,145.21263471641578 134.4361008857377,141.6391150249401 131.96613769978285,134.34315941098612 130.31949557503685,131.66300584981218 129.4961745128967,127.79166666662786" stroke="#4dd2ff" stroke-linecap="round" stroke-linejoin="round" stroke-width="0.5"><title>2023-10-26 1.0km</title><desc>10104873905</desc></polyline><polyline fill="none" points="155.2357644313015,137.47647490771487 158.34608684293926,145.2536353842588 159.83363234438002,147.89492827525828 160.37455798033625,148.04166666662786 160.23932657158002,146.57428226654883 156.58807852305472,140.26451705396175 154.55960738519207,135.12864692218136 152.8015990657732,131.46016016590875 152.12544201966375,127.79166666662786" stroke="#4dd2ff" stroke-linecap="round" stroke-linejoin="round" stroke-width="0.5"><title>2023-10-25 1.0km</title><desc>10098978222</desc></polyline><polyline fill="none" points="175.00399029208347,127.79166666662786 174.86777175730094,128.8263431439409 175.68508296646178,132.225990677136 176.77483124518767,134.44314901495818 177.45592391910031,137.10373579268344 178.68189073260874,140.6511793526588 181.27004289394245,145.67671368212905 182.08735410310328,147.74604769563302 182.359791173134,148.04166666662786 182.63222824316472,147.89385718642734 182.49600970791653,145.97233295696788 180.99760582484305,143.16394808748737 179.90785754658282,141.53803926485125 178.54567219736055,138.4340278612217 178.27323512826115,136.80811521364376 176.63861270993948,134.29533853533212 175.68508296646178,132.07818003429566 175.41264589643106,129.4175866061123 175.00399029208347,127.79166666662786" stroke="#4dd2ff" stroke-linecap="round" stroke-linejoin="round" stroke-width="0.5"><title>2023-10-24 1.0km</title><desc>10092835699</desc></polyline><polyline fill="none" points="19.1689931480214,155.45475099165924 21.18287074705586,162.59325122099835 22.122680292464793,164.34145143895876 23.196748344693333,168.71194523607846 24.807850423734635,171.62560241227038 25.47914295690134,172.20833333337214 24.807850423734635,171.4799196550157 23.86804087786004,169.14899408561178 21.451387759763747,166.23533326771576 20.914353733416647,165.21555096958764 20.377319707535207,161.86483400850557 18.766217628493905,158.65979509195313 17.692149576265365,155.3090670458041 17.02085704356432,151.95833333337214" stroke="#4dd2ff" stroke-linecap="round" stroke-linejoin="round" stroke-width="0.5"><title>2023-10-23 1.0km</title><desc>10087395010</desc></polyline><polyline fill="none" points="37.19377563544549,152.05545711726882 37.55179471336305,151.95833333331393 40.10268064355478,152.15258088690462 41.22149026207626,152.44395211013034 41.49000457045622,152.58963767357636 42.07178557245061,153.02669417095603 42.47455703490414,153.51231216220185 43.369604729581624,155.16341066139285 43.817128577269614,157.0087511582533 44.39890957879834,157.9799809277174 44.6674238871783,158.75696371495724 45.293957273475826,160.16524268721696 45.741481121163815,161.6220798434224 46.41276689223014,162.78754725470208 46.7260335853789,163.12747486226726 47.12880504806526,163.80732955259737 47.352566971676424,165.2641586754471 47.48682412598282,165.65264589898288 47.84484320366755,166.18681545805885 47.93434797343798,167.01234938157722 48.068605127511546,167.35227481479524 50.03771005617455,172.01409167813836 50.30622436455451,172.20833333331393 50.30622436455451,171.96553125529317 49.90345290186815,171.57704774482409 49.45592905464582,170.50871691276552 49.00840520719066,169.58606616745237 47.80009081913158,165.8468894250109" stroke="#4dd2ff" stroke-linecap="round" stroke-linejoin="round" stroke-width="0.5"><title>2023-10-22 1.5km</title><desc>10080655811</desc></polyline><polyline fill="none" points="63.02918930258602,151.95833333331393 63.7396622505039,152.47229997970862 62.46081094397232,152.2667133664363 64.45013519842178,154.83654168556677 64.63959465129301,155.4532990763546 64.497500061756,155.96726315288106 63.834391976939514,156.327037781768 63.64493252406828,156.68681222532177 63.692297387402505,157.3035679833847 64.07121629291214,158.7940588190686 64.497500061756,159.87337778520305 64.97114869370125,161.51805110037094 65.82371623115614,163.00853295001434 65.96581082069315,163.5738873029477 66.48682431597263,164.49901162151946 66.81837835838087,164.91017759247916 66.86574322148226,165.16715620137984 67.19729726412334,165.4755304075079 67.43412157986313,165.98948711535195 67.7656756225042,166.96600381919416 68.09722966491245,167.6341460411786 68.04986480181105,168.97042856935877 68.66560802306049,170.1525225227815 68.85506747616455,170.7178710983717 69.18662151833996,171.3346144775278 69.75499987672083,172.05414773215307 70.03918905602768,172.20833333331393 68.94979720236734,170.6664757921826 68.71297288639471,169.8441503798822 68.23932425421663,168.81624225410633 68.04986480181105,168.14810116199078 67.43412157986313,167.2743772318354 66.91310808481649,165.78390447760466" stroke="#4dd2ff" stroke-linecap="round" stroke-linejoin="round" stroke-width="0.5"><title>2023-10-20 1.4km</title><desc>10069668027</desc></polyline><polyline fill="none" points="84.67527352948673,151.95833333331393 84.77171675954014,152.74322778818896 85.54326259996742,154.62697094748728 85.73614906030707,155.77814486814896 87.32746235630475,159.65026166231837 87.47212720150128,160.17351907264674 87.56857043178752,160.95840446691727 87.76145689189434,161.48166091559688 88.91877565253526,163.10375346138608 89.54565664823167,164.35956450609956 89.93142956844531,165.6153733349638 90.26898087374866,166.2956021921127 90.46186733385548,167.34210685663857 90.70297540910542,167.86535861185985 91.329856404569,169.48743660835316 91.42629963462241,170.11533677583793 92.34251032047905,171.9990339545766 92.58361839549616,172.20833333331393 92.72828324069269,172.20833333331393 92.82472647051327,172.1560084943194 92.77650485583581,172.10368365154136 91.81207255506888,170.90021120611345 91.37807801971212,169.4351115693571 90.46186733385548,167.76070829154924 90.31720248865895,167.08048083470203 90.22075925860554,165.9293251960189" stroke="#4dd2ff" stroke-linecap="round" stroke-linejoin="round" stroke-width="0.5"><title>2023-10-19 1.3km</title><desc>10064004415</desc></polyline><polyline fill="none" points="106.68378014536574,151.95833333337214 108.66909312503412,154.54345140454825 108.53673892654479,156.41047899518162 108.80144732398912,158.27750480151735 109.72792671527714,161.58069993299432 111.0514687015675,163.73495461873244 112.37501068832353,167.46899044618476 115.0220946627669,171.77748445491306 115.41915725870058,172.20833333337214 115.8162198541686,172.0647170508746 114.09561527147889,170.34132084075827 110.91911450307816,164.16580527077895 110.12498931074515,161.4370828694664 107.87496793316677,156.69771385064814" stroke="#4dd2ff" stroke-linecap="round" stroke-linejoin="round" stroke-width="0.5"><title>2023-10-18 1.0km</title><desc>10058081424</desc></polyline><polyline fill="none" points="130.21554141491652,153.18561165465508 131.34656816208735,159.78222026547883 134.3155133742839,167.60607786185574 136.29481018148363,171.74810824298766 137.14308024197817,172.20833333337214 137.56721527222544,172.20833333337214 137.84997195890173,171.59469985740725 136.86032355576754,170.36743236274924 135.58791846502572,168.37312114564702 133.89137834357098,164.69131081330124 133.18448662711307,162.54358511976898 130.21554141491652,156.5606233170256 129.93278472870588,155.6401661322452 129.65002804156393,151.95833333337214" stroke="#4dd2ff" stroke-linecap="round" stroke-linejoin="round" stroke-width="0.5"><title>2023-10-17 1.0km</title><desc>10051702317</desc></polyline><polyline fill="none" points="151.7280667326413,152.42564320727251 153.16360110323876,154.91796079440974 155.3169026589021,160.52566464548 156.46533015556633,162.70643435709644 157.75731108849868,166.75642929505557 159.33639889676124,170.80641649197787 159.9106126446277,171.8967963376781 160.62837982969359,172.20833333337214 160.7719332673587,172.0525648414623 160.62837982969359,171.58525929611642 159.04929202236235,169.24873002478853 156.895990466699,163.95258747017942 155.3169026589021,160.68143398489337 154.0249217255041,154.60642125597224 153.30715453997254,151.95833333337214" stroke="#4dd2ff" stroke-linecap="round" stroke-linejoin="round" stroke-width="0.5"><title>2023-10-16 1.0km</title><desc>10046279660</desc></polyline><polyline fill="none" points="174.60290070716292,151.95833333337214 175.19534346461296,153.24405319569632 175.78778622020036,156.13692012173124 177.12078242190182,160.63692773098592 178.89811068959534,163.3690706884954 180.97166033554822,171.0833382543642 181.71221378166229,171.8869062269805 182.74898860417306,172.20833333337214 182.8970992937684,171.8869062269805 182.74898860417306,170.92262462433428 180.8235496468842,168.19049110729247 179.7867748234421,164.9762120094383 178.6018893122673,163.04764228244312 175.78778622020036,156.45834954397287 174.75101139675826,151.95833333337214" stroke="#4dd2ff" stroke-linecap="round" stroke-linejoin="round" stroke-width="0.5"><title>2023-10-15 1.0km</title><desc>10039610121</desc></polyline><polyline fill="none" points="17.036011079326272,177.5947642774554 17.487509892322123,182.3306647790596 18.691506726667285,185.76010366680566 20.19650277029723,187.88308699114714 21.09950039628893,190.82259901426733 23.657993668690324,195.39516554027796 24.259992085397243,196.0483885614667 25.012490107677877,196.375 25.463988920673728,196.0483885614667 25.463988920673728,195.5584713134449 22.453996834345162,193.10888345376588 20.49750197865069,189.51614970644005 19.74500395730138,186.4133295211941 17.939008705317974,182.3306647790596 17.036011079326272,178.9012205969775 17.186510683968663,176.77822868782096 17.036011079326272,176.125" stroke="#4dd2ff" stroke-linecap="round" stroke-linejoin="round" stroke-width="0.5"><title>2023-10-14 1.0km</title><desc>10033377496</desc></polyline><polyline fill="none" points="39.15856931451708,176.44643003679812 41.8245613258332,179.66072780278046 42.1207826603204,182.0714480257593 44.6386640034616,189.7857348738471 47.0084346793592,195.41071853914764 47.7489880155772,196.375 48.34143068548292,196.375 48.34143068548292,195.89285932295024 48.193320017308,195.41071853914764 46.8603240121156,194.4464366529137 45.3792173396796,191.71430233237334 43.75,186.57145199575461 40.787786655128,179.9821573193185 40.3434546533972,177.73214971018024 39.60290131624788,176.125" stroke="#4dd2ff" stroke-linecap="round" stroke-linejoin="round" stroke-width="0.5"><title>2023-10-13 1.0km</title><desc>10028006924</desc></polyline><polyline fill="none" points="61.905044354032725,176.125 63.32961997529492,177.97996994643472 64.18436534842476,179.52577698463574 64.32682291138917,181.5353244356811 64.18436534842476,183.6994503120659 65.7513985321857,186.9456349503016 67.60334684047848,191.89219238027 69.45529514877126,195.29294386308175 69.88266783533618,195.9112617240753 70.59495564550161,196.375 70.59495564550161,195.60210281633772 69.02792246220633,193.59256880928297 67.60334684047848,191.11929354909807 65.7513985321857,186.01815413648728 64.61173803498968,184.008610969875 64.04190778639168,182.30822679039557" stroke="#4dd2ff" stroke-linecap="round" stroke-linejoin="round" stroke-width="0.5"><title>2023-10-12 1.0km</title><desc>10021974100</desc></polyline><polyline fill="none" points="86.3824395830743,178.99628079403192 86.93951262207702,182.01867729763035 86.80024436255917,183.22763465484604 88.05365870054811,187.30786048504524 89.02853651950136,189.12129158736207 90.0034143384546,192.44591112039052 91.39609693642706,195.77052527631167 91.67463345639408,196.07276266010012 92.37097475584596,196.375 92.23170649539679,195.77052527631167 90.69975563744083,191.84143524174578 89.02853651950136,188.97017238975968 86.80024436255917,183.83211306645535 86.24317132262513,181.86755757802166 85.96463480358943,178.99628079403192 85.12902524415404,176.125" stroke="#4dd2ff" stroke-linecap="round" stroke-linejoin="round" stroke-width="0.5"><title>2023-10-10 1.0km</title><desc>10009069592</desc></polyline><polyline fill="none" points="107.81949557503685,178.65626107272692 108.78003681404516,181.33641640702263 109.74057805305347,184.90995133598335 111.79888070886955,189.37686113012023 113.44552283268422,195.03493272676133 114.40606407169253,196.375 114.68050442589447,195.9283110073302 114.81772460276261,194.290450524888 113.8571833637543,191.4614156623138 111.79888070886955,187.88789229327813 109.46613769978285,181.33641640702263 108.78003681404516,178.35846581635997 107.68227539770305,176.125" stroke="#4dd2ff" stroke-linecap="round" stroke-linejoin="round" stroke-width="0.5"><title>2023-10-09 1.0km</title><desc>10003389142</desc></polyline><polyline fill="none" points="129.62701159808785,176.125 130.639675416518,177.3808195394231 131.6523392344825,179.73547918454278 132.23100427305326,184.4447906849673 134.4009981690906,189.15409179858398 136.28165954491124,194.4912871712586 137.14965710323304,196.06104797730222 137.87298840191215,196.375 137.87298840191215,195.11919163237326 135.1243294677697,190.72385652828962 131.5076729748398,181.93315917695872 130.06101037748158,176.2819774830714" stroke="#4dd2ff" stroke-linecap="round" stroke-linejoin="round" stroke-width="0.5"><title>2023-10-08 1.0km</title><desc>9996447828</desc></polyline><polyline fill="none" points="153.6506583634764,180.17501667432953 154.3171562193893,182.63395130157005 156.316649785731,187.98573957325425 156.98314764164388,190.30002188449726 159.11594077944756,195.6517893030541 159.78243863536045,196.375 159.91573820635676,195.79643146391027 159.91573820635676,195.21786275773775 157.3830463550985,190.7339495148044 156.18335021473467,188.13038229721133 154.050557076931,181.76609237212688 153.3840592210181,178.43929626303725 152.5842617941089,176.125" stroke="#4dd2ff" stroke-linecap="round" stroke-linejoin="round" stroke-width="0.5"><title>2023-10-07 1.0km</title><desc>9989974159</desc></polyline><polyline fill="none" points="177.09557300293818,182.15693684492726 178.15440628072247,185.6037495364435 178.94853123975918,187.32715360203292 180.53678115690127,194.07713821833022 180.93384363641962,195.36968580295797 181.72796859499067,196.375 182.38973939372227,196.375 182.6544477129355,195.8005348078441 182.52209355402738,195.36968580295797 180.93384363641962,193.0718228383921 179.34559371881187,189.6250233236933 178.81617707991973,187.32715360203292 176.0367397251539,180.57714566227514 175.63967724563554,178.1356476843357 174.8455522870645,176.125" stroke="#4dd2ff" stroke-linecap="round" stroke-linejoin="round" stroke-width="0.5"><title>2023-10-06 1.0km</title><desc>9984428862</desc></polyline><polyline fill="none" points="16.89044428616762,200.29166666662786 19.184947294183075,206.4330792982364 20.714615965262055,211.57857431669254 23.31505270767957,218.05192236078437 24.38582077715546,220.20970091840718 24.84472137875855,220.54166666662786 25.456588848493993,220.54166666662786 25.6095557147637,220.20970091840718 25.15065511316061,219.3797863323707 23.31505270767957,216.72405760886613 22.244284637272358,214.56627572025172 20.408682230859995,209.75275484623853 19.643847895786166,207.26299864286557 17.502311755903065,203.27938300638925 17.502311755903065,201.7855253306916" stroke="#4dd2ff" stroke-linecap="round" stroke-linejoin="round" stroke-width="0.5"><title>2023-10-04 1.0km</title><desc>9971682885</desc></polyline><polyline fill="none" points="40.68508319184184,202.65664068912156 41.366175815463066,205.02161193010397 42.04726843954995,206.64752804441378 42.59214253909886,209.1603049073601 45.180294510442764,214.3336591485422 45.316513035446405,216.10737753810827 46.133824184536934,219.6548096233746 46.406261233612895,220.09823819377925 47.22357238270342,220.54166666662786 47.22357238270342,219.0635713771917 45.45273156045005,215.81175791530404 44.226764837279916,213.0033693293808 43.54567221272737,211.67307863000315 42.86457958864048,209.75154606590513 41.50239434093237,206.94314901495818 40.9575202409178,204.72599067701958 40.68508319184184,202.50882989447564 40.27642761729658,200.29166666662786" stroke="#4dd2ff" stroke-linecap="round" stroke-linejoin="round" stroke-width="0.5"><title>2023-10-03 1.0km</title><desc>9965060084</desc></polyline><polyline fill="none" points="62.54845587722957,201.12844709400088 64.39922793861479,207.1532570925774 64.70768994838,209.83094530692324 65.78730698488653,211.16978823265526 66.55846201069653,213.1780511450488 67.94654105603695,218.36605546902865 69.02615809161216,220.03960272856057 69.79731311742216,220.54166666662786 69.95154412277043,220.37431203282904 69.48885110765696,219.03547452029306 67.79231005162,215.8557322723791 65.01615195907652,209.1615235483041 63.31961090210825,204.14085408637766 63.011148892343044,200.29166666662786" stroke="#4dd2ff" stroke-linecap="round" stroke-linejoin="round" stroke-width="0.5"><title>2023-10-02 1.0km</title><desc>9958643020</desc></polyline><polyline fill="none" points="85.54014479368925,203.8556801606901 85.83873597532511,205.31368401984219 89.12323897797614,213.08968830667436 90.765490478836,218.1116764920298 91.66126402467489,219.89366954844445 92.55703757051378,220.54166666662786 92.70633316133171,220.37966740492266 92.55703757051378,219.7316702393582 89.57112575042993,215.19568474590778 86.734509521164,208.2296888428973 85.39084920194,204.0176806373056 84.79366683866829,200.29166666662786" stroke="#4dd2ff" stroke-linecap="round" stroke-linejoin="round" stroke-width="0.5"><title>2023-10-01 1.0km</title><desc>9952075403</desc></polyline><polyline fill="none" points="108.34252363303676,203.22646200540476 109.55960676353425,205.7210346502252 110.10053259832785,208.21560417755973 110.50622697547078,210.56343147263397 112.53469885932282,216.2862489343388 114.29270782507956,219.95471303607337 115.10409657796845,220.54166666662786 115.3745594965294,220.1014514598064 112.66993031837046,215.99277151515707 111.45284718833864,213.2047338783741 111.0471528111957,211.73734408442397 109.15391238685697,207.62864692218136 108.07206071494147,203.07972234068438 107.12544050300494,200.29166666662786" stroke="#4dd2ff" stroke-linecap="round" stroke-linejoin="round" stroke-width="0.5"><title>2023-09-30 1.0km</title><desc>9945549317</desc></polyline><polyline fill="none" points="130.6147944321856,200.29166666662786 131.95845396164805,202.5596759208711 132.40634047053754,204.34168155433144 133.6007044967264,207.25768766424153 134.19788650982082,211.63168959354516 134.64577301964164,212.9276884975843 136.43731905706227,217.30167917197105 136.8852055668831,220.055668846122 137.1837965734303,220.37966740503907 137.63168308325112,220.54166666662786 137.78097858652472,220.2176681313431 135.09365952853113,215.35768438887317 133.30211349017918,211.14568980794866 132.70493147801608,208.71568927180488 130.6147944321856,203.85568016127218 129.71902141347528,200.9396695488831" stroke="#4dd2ff" stroke-linecap="round" stroke-linejoin="round" stroke-width="0.5"><title>2023-09-28 1.0km</title><desc>9933629332</desc></polyline><polyline fill="none" points="152.2914034742862,202.59281292685773 153.4224310531281,206.58146043377928 155.54310776293278,209.4962364824023 156.95689223660156,214.71214135515038 158.93619049945846,218.24054019979667 159.50170428911224,220.23484995088074 160.0672180778347,220.54166666662786 160.34997497312725,220.08144157601055 160.0672180778347,219.4678079644218 158.93619049945846,217.9337231455138 155.68448621034622,211.33714557311032 153.98794484185055,206.73486980074085 152.15002502687275,200.29166666662786" stroke="#4dd2ff" stroke-linecap="round" stroke-linejoin="round" stroke-width="0.5"><title>2023-09-27 1.0km</title><desc>9927137811</desc></polyline><polyline fill="none" points="180.43223653757013,200.29166666668607 180.0284997683484,202.2388089672313 179.62476299959235,203.3584131966927 179.31074551236816,204.72140709421365 177.47150023118593,208.5669818915194 176.52944777044468,210.17335462279152 176.35000920621678,210.85484490689123 176.4397284882143,211.3903010667418 176.66402669320814,212.16914561681915 177.33692130818963,213.82418724382296 177.56121951318346,214.26228580548195 177.83037735940889,215.04112697707023 178.72757017915137,216.16070955613395 179.1313069483731,217.0369032972376 179.57990335859358,217.71838651661528 179.9387804865837,218.69193275592988 180.4770961785689,219.4220914959442 181.1499907935504,220.54166666668607" stroke="#4dd2ff" stroke-linecap="round" stroke-linejoin="round" stroke-width="0.5"><title>2023-09-26 1.0km</title><desc>9920397094</desc></polyline><polyline fill="none" points="21.155430658720434,224.45833333331393 20.272783471737057,227.40008366759866 19.39013628475368,228.9735742143821 18.570535325212404,229.99976226786384 18.129211731953546,230.82071189570706 17.940073048928753,231.64166079915594 18.003119276138023,232.66784590989118 18.31835041474551,233.48879318370018 19.074905146379024,234.6518005816033 19.39013628475368,235.81480652588652 20.0205985608045,237.31987088400638 21.218476886162534,238.82493280782364 23.235956170596182,242.9296347720665 24.559926951304078,244.70833333331393" stroke="#4dd2ff" stroke-linecap="round" stroke-linejoin="round" stroke-width="0.5"><title>2023-09-25 1.0km</title><desc>9914573673</desc></polyline><polyline fill="none" points="45.242930005071685,224.45833333331393 44.74528667028062,225.21434336691163 44.645758003229275,225.59234809182817 44.74528667028062,226.07835388096282 44.79505100380629,226.56435934826732 43.79976433352567,228.40037710027536 43.55094266589731,229.64238650619518 43.20259233145043,230.56039210839663 41.11249032407068,234.23240304231877 41.062725990545005,234.66440312145278 41.261783324414864,235.52840251784073 41.80919099319726,236.3924008976901 42.1077769943513,237.14839864632813 42.55565599561669,237.90439561667154 42.80447766324505,238.66039180883672 43.451413999078795,239.68638539657695 43.94905733386986,240.71237755101174 44.49646500288509,241.30637235374888 44.645758003229275,241.84636721207062 44.99410833767615,242.27836281282362 45.74057334032841,243.574348090915 46.28798100887798,244.16834057902452 46.437274009454995,244.70833333331393" stroke="#4dd2ff" stroke-linecap="round" stroke-linejoin="round" stroke-width="0.5"><title>2023-09-24 1.0km</title><desc>9907510217</desc></polyline><polyline fill="none" points="67.00492160650901,224.45833333331393 66.58216550690122,225.1136803429108 66.28019686439075,225.76902687054826 66.09901567874476,226.62097663618624 66.0386219501961,227.7350635623443 65.01192856533453,229.11128666636068 64.40799128031358,230.68411046854453 63.86444772337563,231.47052132879617 63.5020853523165,232.51906806329498 63.44169162353501,233.63314761698712 64.70995992282405,236.84431030391715 65.19310975074768,237.82731697696727 66.7633466925472,240.31759569660062 67.42767770611681,241.95593316521263 68.27318990556523,243.00446756463498 68.75633973395452,243.85640085610794 69.05830837669782,244.70833333331393" stroke="#4dd2ff" stroke-linecap="round" stroke-linejoin="round" stroke-width="0.5"><title>2023-09-23 1.0km</title><desc>9901004991</desc></polyline><polyline fill="none" points="89.52756968373433,224.45833333331393 89.12438540323637,225.20834193611518 88.72120112297125,226.5208553984412 87.79963705362752,228.45837156730704 86.87807298428379,229.77088001114316 86.07170442352071,231.95838958065724 86.01410666899756,233.14589241793146 86.12930217804387,233.8333933026297 87.28125726454891,236.58339128014632 87.4540505274199,237.3958889800706 87.68444154481404,237.83338741987245 88.49081010557711,238.83338300831383 89.12438540323637,240.0833758393419 89.64276519208215,241.39586633403087 90.50673150736839,242.64585539727705 91.48589333100244,244.70833333331393" stroke="#4dd2ff" stroke-linecap="round" stroke-linejoin="round" stroke-width="0.5"><title>2023-09-22 1.0km</title><desc>9895405405</desc></polyline><polyline fill="none" points="112.32345788786188,224.45833333331393 112.15831052046269,225.05568569112802 111.82801578589715,225.41409689502325 111.11237719398923,226.72826995630749 110.83713158173487,227.6840308473911 110.01139474497177,229.77475387667073 109.13060878613032,231.5667979050777 108.58011756138876,232.88096101366682 108.41497019398957,233.53804177069105 108.41497019398957,233.95618379395455 108.58011756138876,234.5535291681299 108.9104122959543,235.15087410318665 109.62605088809505,237.00264061050257 110.34168947977014,238.31679492612602 110.72703333687969,239.27254218421876 111.44267192855477,240.46722467575455 111.8830649079755,241.00483122392325 112.21335964277387,241.9605753198848 113.09414560184814,243.5136570779141 114.0850298057776,244.70833333331393" stroke="#4dd2ff" stroke-linecap="round" stroke-linejoin="round" stroke-width="0.5"><title>2023-09-21 1.0km</title><desc>9889267953</desc></polyline><polyline fill="none" points="135.811701788567,224.45833333331393 135.08904342958704,226.6263600223465 134.6639502774924,228.33309916598955 133.9838012335822,229.76306622481206 133.17612424399704,232.16171332629165 131.7733168413397,234.79098903591512 131.39073300431482,236.22094137454405 131.4332423193846,236.5438333870261 131.6882982107345,237.23574428271968 132.24091930896975,238.43505469430238 132.58099383092485,239.44985402107704 133.43118013557978,240.64916020003147 133.94129191851243,241.61782890179893 134.2388571249321,242.30973420158261 134.57893164665438,242.9093848442426 135.13155274488963,243.32452726108022 135.811701788567,244.33931867918 135.85421110410243,244.52382603340084 136.10926699545234,244.70833333331393" stroke="#4dd2ff" stroke-linecap="round" stroke-linejoin="round" stroke-width="0.5"><title>2023-09-20 1.0km</title><desc>9882714971</desc></polyline><polyline fill="none" points="157.92906590504572,224.45833333331393 157.49730610102415,225.55153578415047 156.6817598042544,227.94616382510867 156.63378649251536,228.72701904381393 156.34594662301242,229.14347480831202 156.0101334422361,229.92432870634366 155.8182401957456,230.6531249009422 155.43445370299742,231.64220425055828 154.33106753672473,233.41213226976106 154.0432276672218,234.45326433179434 153.94728104420938,235.3902818786446 154.0432276672218,236.32729818520602 154.33106753672473,237.3684259604197 154.66688071750104,238.09721449221252 155.72229357250035,239.91918253951008 156.25,240.6479684455553 156.72973311552778,241.9493699836312 157.20946623152122,242.78226571256528 157.689199347049,243.45899277093122 158.21690577454865,243.97955160652054 158.55271895579062,244.70833333331393" stroke="#4dd2ff" stroke-linecap="round" stroke-linejoin="round" stroke-width="0.5"><title>2023-09-19 1.0km</title><desc>9876194288</desc></polyline><polyline fill="none" points="178.60094494954683,224.45833333331393 178.2432128288783,225.04060821142048 177.64699262776412,226.20515681174584 177.46812656731345,226.98152168880915 176.39493020484224,228.8577339805197 175.56022192304954,230.60454872477567 175.38135586259887,231.2515162685886 175.44097788305953,231.9631800170755 175.79871000372805,232.8689330467605 176.33530818484724,233.83938168658642 176.81228434597142,235.1980079842615 177.46812656731345,236.62132852245122 178.18359080865048,237.9152542866068 178.83943303022534,238.75630501308478 179.6145192917902,240.05022763781017 180.09149545268156,241.53823630412808 180.9262037347071,242.8321548383683 181.34355787560344,243.99667989241425 182.11864413740113,244.70833333331393" stroke="#4dd2ff" stroke-linecap="round" stroke-linejoin="round" stroke-width="0.5"><title>2023-09-18 1.0km</title><desc>9870505463</desc></polyline><polyline fill="none" points="21.453476201277226,248.625 21.162795913638547,249.19276352168527 20.755843511084095,251.08530588028952 20.23261899338104,251.96849088562885 20.00007476331666,252.662421323359 18.721081498079002,254.74420926929452 18.255993037950248,255.87972783809528 17.96531275031157,256.88907641521655 18.197856980375946,257.5830028732307 19.476850245613605,260.3587030930212 20.116346878465265,261.368046401185 20.58143533836119,262.44047236500774 21.337204086128622,263.44981322425883 21.744156488915905,264.14373437612085 22.26738100638613,265.7839094134979 24.53468724968843,268.875" stroke="#4dd2ff" stroke-linecap="round" stroke-linejoin="round" stroke-width="0.5"><title>2023-09-16 1.0km</title><desc>9856514700</desc></polyline><polyline fill="none" points="43.47007456398569,248.625 42.84801803971641,250.51501889922656 42.03934455802664,251.79752950766124 40.359791942173615,255.0375483268872 40.29758628970012,255.78005102928728 40.359791942173615,256.6575534485164 40.73302585678175,257.53505502908956 41.355082381283864,258.4800557931885 41.91493325307965,259.7625552743557 42.91022369195707,261.450051862048 44.1543367409613,263.8125418740674 44.27874804567546,264.6900366158807 44.71418761275709,265.027534370136 45.21183283231221,265.7025295064668 46.02050631376915,267.05251829046756 46.89138544793241,267.7950112755061 47.07800240535289,268.2675064987852 47.20241371029988,268.875" stroke="#4dd2ff" stroke-linecap="round" stroke-linejoin="round" stroke-width="0.5"><title>2023-09-15 1.0km</title><desc>9850671982</desc></polyline><polyline fill="none" points="66.76480475603603,248.625 65.73519524396397,251.34830099134706 64.5768845428247,253.02417464280734 64.0620797870215,253.931938302645 63.289872652851045,255.88711862289347 63.09682086925022,256.58539633319015 63.09682086925022,257.1440181314829 63.289872652851045,257.8422949176165 64.0620797870215,259.93712219555164 64.76993632642552,261.3336711471202 66.50740237813443,264.33624443912413 67.21525891753845,265.66295984660974 67.34396010637283,266.43105739331804 67.85876486264169,266.9198464176734 68.69532259111293,268.246558215993 69.40317913074978,268.875" stroke="#4dd2ff" stroke-linecap="round" stroke-linejoin="round" stroke-width="0.5"><title>2023-09-14 1.0km</title><desc>9844236351</desc></polyline><polyline fill="none" points="85.53165259608068,248.625 85.90210985112935,248.9264932339429 86.0410313217435,249.22798633488128 86.13364563579671,249.88122093037236 86.41148857702501,250.43395740829874 86.59671720466577,251.99166689504636 86.59671720466577,252.74539601715514 86.50410289084539,253.14738454233157 86.59671720466577,253.64986986643635 86.82825298910029,254.2528517676401 86.73563867527992,254.7553362788749 86.78194583207369,255.00657839589985 87.24501740117557,255.8608009031159 87.66178181325085,257.1170085329795 88.03223906829953,257.8204837971134 88.49531063716859,258.47371017967816 89.00468936283141,258.92594346334226 89.1436108336784,259.22743215295486 89.28253230429254,259.88065719080623 89.65298955957405,260.53388160432223 90.0697539714165,261.73983272747137 90.62543985410593,262.7950382147101 90.90328279556707,263.69949876429746 91.04220426618122,264.45321497449186 91.32004720764235,265.05618734436575 91.82942593330517,266.7143586183083 92.52403328684159,268.02079375850735 92.57034044386819,268.2217835584306 92.52403328684159,268.37252586957766 91.96834740391932,268.875 92.24619034538046,268.674010392162 92.3851118159946,268.37252586957766 92.47772612981498,268.12128866591956 92.43141897302121,267.76955642551184 92.15357603179291,267.4178240040201 91.32004720764235,265.60891154926503 90.90328279556707,264.25222406635294 90.02344681462273,262.29255961440504 89.60668240254745,260.38313756434945 89.37514661811292,259.83040913322475 88.49531063716859,258.67470278718974 87.61547465622425,257.01651200756896 87.19871024414897,255.6598074681242 87.05978877376765,254.7553362788749 86.68933151825331,253.8006153916358 85.94841700815596,252.19266140891705 85.7631883805152,251.43893167714123 85.1148881840054,250.23296237713657 84.97596671339124,249.57972811779473 84.92965955636464,248.77574663364794" stroke="#4dd2ff" stroke-linecap="round" stroke-linejoin="round" stroke-width="0.5"><title>2023-09-13 1.0km</title><desc>9837636972</desc></polyline></svg>