<svg xmlns="http://www.w3.org/2000/svg" xmlns:ev="http://www.w3.org/2001/xml-events" xmlns:xlink="http://www.w3.org/1999/xlink" width="200mm" height="300mm" baseProfile="full" version="1.1" viewBox="0 0 200 300"><rect width="200" height="300" x="0" y="0" fill="#222"/><text fill="#FFF" style="font-size:12px;font-family:Arial;font-weight:700" x="10" y="20">Over 1km Runs</text><text fill="#FFF" style="font-size:4px;font-family:Arial" x="10" y="280">ATHLETE</text><text fill="#FFF" style="font-size:9px;font-family:Arial" x="10" y="290">Jiakai</text><text fill="#FFF" style="font-size:4px;font-family:Arial" x="120" y="280">STATISTICS</text><text fill="#FFF" style="font-size:3px;font-family:Arial" x="120" y="285">Number: 41</text><text fill="#FFF" style="font-size:3px;font-family:Arial" x="120" y="290">Weekly: 5.9</text><text fill="#FFF" style="font-size:3px;font-family:Arial" x="141" y="285">Total: 42.8 km</text><text fill="#FFF" style="font-size:3px;font-family:Arial" x="141" y="290">Avg: 1.0 km</text><text fill="#FFF" style="font-size:3px;font-family:Arial" x="167" y="285">Min: 1.0 km</text><text fill="#FFF" style="font-size:3px;font-family:Arial" x="167" y="290">Max: 1.5 km</text><polyline fill="none" stroke="#4dd2ff" stroke-linecap="round" stroke-linejoin="round" stroke-width=".5" points="20.744 35.408 21.562 40.915 22.053 42.691 25.327 50.329 26.964 54.77 29.42 58.145 30.075 58.5 30.238 57.967 28.765 55.658 26.637 51.04 22.872 44.112 21.399 38.961 20.253 36.651 20.089 33.099 19.762 31.5"><title>2023-10-28 1.0km</title><desc>10115543824</desc></polyline><polyline fill="none" stroke="#4dd2ff" stroke-linecap="round" stroke-linejoin="round" stroke-width=".5" points="51.498 37.1 52.973 41.9 54.631 45.7 56.106 51.1 58.318 56.3 59.239 58.3 60.161 58.5 60.345 58.3 59.977 57.1 58.871 54.1 55.184 46.9 52.235 38.9 50.392 34.9 49.655 31.5"><title>2023-10-27 1.0km</title><desc>10110442644</desc></polyline><polyline fill="none" stroke="#4dd2ff" stroke-linecap="round" stroke-linejoin="round" stroke-width=".5" points="81.341 35.669 84.817 47.382 86.098 50.956 87.378 53.14 88.842 57.309 89.391 58.103 90.489 58.5 90.672 57.904 90.489 57.11 88.659 54.728 85.915 49.963 82.622 40.235 80.426 36.662 79.328 31.5"><title>2023-10-26 1.0km</title><desc>10104873905</desc></polyline><polyline fill="none" stroke="#4dd2ff" stroke-linecap="round" stroke-linejoin="round" stroke-width=".5" points="113.648 44.413 117.795 54.783 119.778 58.304 120.499 58.5 120.319 56.543 115.451 48.13 112.746 41.283 110.402 36.391 109.501 31.5"><title>2023-10-25 1.0km</title><desc>10098978222</desc></polyline><polyline fill="none" stroke="#4dd2ff" stroke-linecap="round" stroke-linejoin="round" stroke-width=".5" points="140.005 31.5 139.824 32.88 140.913 37.412 142.366 40.369 143.275 43.916 144.909 48.646 148.36 55.347 149.45 58.106 149.813 58.5 150.176 58.303 149.995 55.741 147.997 51.996 146.544 49.828 144.728 45.69 144.364 43.522 142.185 40.172 140.913 37.215 140.55 33.668 140.005 31.5"><title>2023-10-24 1.0km</title><desc>10092835699</desc></polyline><polyline fill="none" stroke="#4dd2ff" stroke-linecap="round" stroke-linejoin="round" stroke-width=".5" points="172.225 36.162 174.91 45.68 176.164 48.011 177.596 53.838 179.744 57.723 180.639 58.5 179.744 57.529 178.491 54.421 175.269 50.536 174.552 49.176 173.836 44.709 171.688 40.435 170.256 35.968 169.361 31.5"><title>2023-10-23 1.0km</title><desc>10087395010</desc></polyline><polyline fill="none" stroke="#4dd2ff" stroke-linecap="round" stroke-linejoin="round" stroke-width=".5" points="16.258 66.629 16.736 66.5 20.137 66.759 21.629 67.147 21.987 67.342 22.762 67.924 23.299 68.572 24.493 70.773 25.09 73.234 25.865 74.529 26.223 75.565 27.059 77.443 27.655 79.385 28.55 80.939 28.968 81.392 29.505 82.299 29.803 84.241 29.982 84.759 30.46 85.471 30.579 86.572 30.758 87.025 33.384 93.241 33.742 93.5 33.742 93.176 33.205 92.658 32.608 91.234 32.011 90.004 30.4 85.018"><title>2023-10-22 1.5km</title><desc>10080655811</desc></polyline><polyline fill="none" stroke="#4dd2ff" stroke-linecap="round" stroke-linejoin="round" stroke-width=".5" points="50.706 66.5 51.653 67.185 49.948 66.911 52.6 70.338 52.853 71.16 52.663 71.845 51.779 72.325 51.527 72.805 51.59 73.627 52.095 75.614 52.663 77.053 53.295 79.246 54.432 81.234 54.621 81.987 55.316 83.221 55.758 83.769 55.821 84.112 56.263 84.523 56.579 85.208 57.021 86.51 57.463 87.401 57.4 89.183 58.221 90.759 58.473 91.513 58.915 92.335 59.673 93.294 60.052 93.5 58.6 91.444 58.284 90.348 57.652 88.977 57.4 88.086 56.579 86.921 55.884 84.934"><title>2023-10-20 1.4km</title><desc>10069668027</desc></polyline><polyline fill="none" stroke="#4dd2ff" stroke-linecap="round" stroke-linejoin="round" stroke-width=".5" points="79.567 66.5 79.696 67.547 80.724 70.058 80.982 71.593 83.103 76.756 83.296 77.454 83.425 78.5 83.682 79.198 85.225 81.361 86.061 83.035 86.575 84.709 87.025 85.616 87.282 87.012 87.604 87.709 88.44 89.872 88.568 90.709 89.79 93.221 90.111 93.5 90.304 93.5 90.433 93.43 90.369 93.36 89.083 91.756 88.504 89.802 87.282 87.57 87.09 86.663 86.961 85.128"><title>2023-10-19 1.3km</title><desc>10064004415</desc></polyline><polyline fill="none" stroke="#4dd2ff" stroke-linecap="round" stroke-linejoin="round" stroke-width=".5" points="108.912 66.5 111.559 69.947 111.382 72.436 111.735 74.926 112.971 79.33 114.735 82.202 116.5 87.181 120.029 92.926 120.559 93.5 121.088 93.309 118.794 91.011 114.559 82.777 113.5 79.138 110.5 72.819"><title>2023-10-18 1.0km</title><desc>10058081424</desc></polyline><polyline fill="none" stroke="#4dd2ff" stroke-linecap="round" stroke-linejoin="round" stroke-width=".5" points="140.287 68.136 141.795 76.932 145.754 87.364 148.393 92.886 149.524 93.5 150.09 93.5 150.467 92.682 149.147 91.045 147.451 88.386 145.189 83.477 144.246 80.614 140.287 72.636 139.91 71.409 139.533 66.5"><title>2023-10-17 1.0km</title><desc>10051702317</desc></polyline><polyline fill="none" stroke="#4dd2ff" stroke-linecap="round" stroke-linejoin="round" stroke-width=".5" points="168.971 67.123 170.885 70.446 173.756 77.923 175.287 80.831 177.01 86.231 179.115 91.631 179.881 93.085 180.838 93.5 181.029 93.292 180.838 92.669 178.732 89.554 175.861 82.492 173.756 78.131 172.033 70.031 171.076 66.5"><title>2023-10-16 1.0km</title><desc>10046279660</desc></polyline><polyline fill="none" stroke="#4dd2ff" stroke-linecap="round" stroke-linejoin="round" stroke-width=".5" points="19.471 101.5 20.26 103.214 21.05 107.071 22.828 113.071 25.197 116.714 27.962 127 28.95 128.071 30.332 128.5 30.529 128.071 30.332 126.786 27.765 123.143 26.382 118.857 24.803 116.286 21.05 107.5 19.668 101.5"><title>2023-10-15 1.0km</title><desc>10039610121</desc></polyline><polyline fill="none" stroke="#4dd2ff" stroke-linecap="round" stroke-linejoin="round" stroke-width=".5" points="49.381 103.46 49.983 109.774 51.589 114.347 53.595 117.177 54.799 121.097 58.211 127.194 59.013 128.065 60.017 128.5 60.619 128.065 60.619 127.411 56.605 124.145 53.997 119.355 52.993 115.218 50.585 109.774 49.381 105.202 49.582 102.371 49.381 101.5"><title>2023-10-14 1.0km</title><desc>10033377496</desc></polyline><polyline fill="none" stroke="#4dd2ff" stroke-linecap="round" stroke-linejoin="round" stroke-width=".5" points="78.878 101.929 82.433 106.214 82.828 109.429 86.185 119.714 89.345 127.214 90.332 128.5 91.122 128.5 91.122 127.857 90.924 127.214 89.147 125.929 87.172 122.286 85 115.429 81.05 106.643 80.458 103.643 79.471 101.5"><title>2023-10-13 1.0km</title><desc>10028006924</desc></polyline><polyline fill="none" stroke="#4dd2ff" stroke-linecap="round" stroke-linejoin="round" stroke-width=".5" points="109.207 101.5 111.106 103.973 112.246 106.034 112.436 108.714 112.246 111.599 114.335 115.928 116.804 122.523 119.274 127.057 119.844 127.882 120.793 128.5 120.793 127.469 118.704 124.79 116.804 121.492 114.335 114.691 112.816 112.011 112.056 109.744"><title>2023-10-12 1.0km</title><desc>10021974100</desc></polyline><polyline fill="none" stroke="#4dd2ff" stroke-linecap="round" stroke-linejoin="round" stroke-width=".5" points="141.843 105.328 142.586 109.358 142.4 110.97 144.072 116.41 145.371 118.828 146.671 123.261 148.528 127.694 148.9 128.097 149.828 128.5 149.642 127.694 147.6 122.455 145.371 118.627 142.4 111.776 141.658 109.157 141.286 105.328 140.172 101.5"><title>2023-10-10 1.0km</title><desc>10009069592</desc></polyline><polyline fill="none" stroke="#4dd2ff" stroke-linecap="round" stroke-linejoin="round" stroke-width=".5" points="170.426 104.875 171.707 108.449 172.987 113.213 175.732 119.169 177.927 126.713 179.208 128.5 179.574 127.904 179.757 125.721 178.476 121.949 175.732 117.184 172.622 108.449 171.707 104.478 170.243 101.5"><title>2023-10-09 1.0km</title><desc>10003389142</desc></polyline><polyline fill="none" stroke="#4dd2ff" stroke-linecap="round" stroke-linejoin="round" stroke-width=".5" points="19.503 136.5 20.853 138.174 22.203 141.314 22.975 147.593 25.868 153.872 28.376 160.988 29.533 163.081 30.497 163.5 30.497 161.826 26.832 155.965 22.01 144.244 20.081 136.709"><title>2023-10-08 1.0km</title><desc>9996447828</desc></polyline><polyline fill="none" stroke="#4dd2ff" stroke-linecap="round" stroke-linejoin="round" stroke-width=".5" points="51.534 141.9 52.423 145.179 55.089 152.314 55.978 155.4 58.821 162.536 59.71 163.5 59.888 162.729 59.888 161.957 56.511 155.979 54.911 152.507 52.067 144.021 51.179 139.586 50.112 136.5"><title>2023-10-07 1.0km</title><desc>9989974159</desc></polyline><polyline fill="none" stroke="#4dd2ff" stroke-linecap="round" stroke-linejoin="round" stroke-width=".5" points="82.794 144.543 84.206 149.138 85.265 151.436 87.382 160.436 87.912 162.16 88.971 163.5 89.853 163.5 90.206 162.734 90.029 162.16 87.912 159.096 85.794 154.5 85.088 151.436 81.382 142.436 80.853 139.181 79.794 136.5"><title>2023-10-06 1.0km</title><desc>9984428862</desc></polyline><polyline fill="none" stroke="#4dd2ff" stroke-linecap="round" stroke-linejoin="round" stroke-width=".5" points="109.187 136.5 112.247 144.689 114.286 151.549 117.753 160.18 119.181 163.057 119.793 163.5 120.609 163.5 120.813 163.057 120.201 161.951 117.753 158.41 116.326 155.533 113.878 149.115 112.858 145.795 110.003 140.484 110.003 138.492"><title>2023-10-04 1.0km</title><desc>9971682885</desc></polyline><polyline fill="none" stroke="#4dd2ff" stroke-linecap="round" stroke-linejoin="round" stroke-width=".5" points="140.913 139.653 141.822 142.807 142.73 144.974 143.456 148.325 146.907 155.223 147.089 157.588 148.178 162.318 148.542 162.909 149.631 163.5 149.631 161.529 147.27 157.193 145.636 153.449 144.728 151.675 143.819 149.113 142.003 145.369 141.277 142.412 140.913 139.456 140.369 136.5"><title>2023-10-03 1.0km</title><desc>9965060084</desc></polyline><polyline fill="none" stroke="#4dd2ff" stroke-linecap="round" stroke-linejoin="round" stroke-width=".5" points="170.065 137.616 172.532 145.649 172.944 149.219 174.383 151.004 175.411 153.682 177.262 160.599 178.702 162.831 179.73 163.5 179.935 163.277 179.318 161.492 177.056 157.252 173.355 148.326 171.093 141.632 170.682 136.5"><title>2023-10-02 1.0km</title><desc>9958643020</desc></polyline><polyline fill="none" stroke="#4dd2ff" stroke-linecap="round" stroke-linejoin="round" stroke-width=".5" points="20.72 176.252 21.118 178.196 25.498 188.564 27.687 195.26 28.882 197.636 30.076 198.5 30.275 198.284 30.076 197.42 26.095 191.372 22.313 182.084 20.521 176.468 19.725 171.5"><title>2023-10-01 1.0km</title><desc>9952075403</desc></polyline><polyline fill="none" stroke="#4dd2ff" stroke-linecap="round" stroke-linejoin="round" stroke-width=".5" points="51.123 175.413 52.746 178.739 53.467 182.065 54.008 185.196 56.713 192.826 59.057 197.717 60.139 198.5 60.499 197.913 56.893 192.435 55.27 188.717 54.73 186.761 52.205 181.283 50.763 175.217 49.501 171.5"><title>2023-09-30 1.0km</title><desc>9945549317</desc></polyline><polyline fill="none" stroke="#4dd2ff" stroke-linecap="round" stroke-linejoin="round" stroke-width=".5" points="80.82 171.5 82.611 174.524 83.208 176.9 84.801 180.788 85.597 186.62 86.194 188.348 88.583 194.18 89.18 197.852 89.578 198.284 90.176 198.5 90.375 198.068 86.792 191.588 84.403 185.972 83.607 182.732 80.82 176.252 79.625 172.364"><title>2023-09-28 1.0km</title><desc>9933629332</desc></polyline><polyline fill="none" stroke="#4dd2ff" stroke-linecap="round" stroke-linejoin="round" stroke-width=".5" points="109.722 174.568 111.23 179.886 114.057 183.773 115.943 190.727 118.582 195.432 119.336 198.091 120.09 198.5 120.467 197.886 120.09 197.068 118.582 195.023 114.246 186.227 111.984 180.091 109.533 171.5"><title>2023-09-27 1.0km</title><desc>9927137811</desc></polyline><polyline fill="none" stroke="#4dd2ff" stroke-linecap="round" stroke-linejoin="round" stroke-width=".5" points="147.243 171.5 146.705 174.096 146.166 175.589 145.748 177.406 143.295 182.534 142.039 184.676 141.8 185.584 141.92 186.298 142.219 187.337 143.116 189.543 143.415 190.127 143.774 191.166 144.97 192.659 145.508 193.827 146.107 194.736 146.585 196.034 147.303 197.007 148.2 198.5"><title>2023-09-26 1.0km</title><desc>9920397094</desc></polyline><polyline fill="none" stroke="#4dd2ff" stroke-linecap="round" stroke-linejoin="round" stroke-width=".5" points="174.874 171.5 173.697 175.422 172.52 177.52 171.427 178.889 170.839 179.983 170.587 181.078 170.671 182.446 171.091 183.541 172.1 185.091 172.52 186.642 173.361 188.649 174.958 190.655 177.648 196.128 179.413 198.5"><title>2023-09-25 1.0km</title><desc>9914573673</desc></polyline><polyline fill="none" stroke="#4dd2ff" stroke-linecap="round" stroke-linejoin="round" stroke-width=".5" points="26.991 206.5 26.327 207.508 26.194 208.012 26.327 208.66 26.393 209.308 25.066 211.756 24.735 213.412 24.27 214.636 21.483 219.532 21.417 220.108 21.682 221.26 22.412 222.412 22.81 223.42 23.408 224.428 23.739 225.436 24.602 226.804 25.265 228.172 25.995 228.964 26.194 229.684 26.659 230.26 27.654 231.988 28.384 232.78 28.583 233.5"><title>2023-09-24 1.0km</title><desc>9907510217</desc></polyline><polyline fill="none" stroke="#4dd2ff" stroke-linecap="round" stroke-linejoin="round" stroke-width=".5" points="56.007 206.5 55.443 207.374 55.04 208.248 54.799 209.384 54.718 210.869 53.349 212.704 52.544 214.801 51.819 215.85 51.336 217.248 51.256 218.733 52.947 223.015 53.591 224.325 55.684 227.646 56.57 229.83 57.698 231.228 58.342 232.364 58.744 233.5"><title>2023-09-23 1.0km</title><desc>9901004991</desc></polyline><polyline fill="none" stroke="#4dd2ff" stroke-linecap="round" stroke-linejoin="round" stroke-width=".5" points="86.037 206.5 85.499 207.5 84.962 209.25 83.733 211.833 82.504 213.583 81.429 216.5 81.352 218.083 81.506 219 83.042 222.667 83.272 223.75 83.579 224.333 84.654 225.667 85.499 227.333 86.19 229.083 87.342 230.75 88.648 233.5"><title>2023-09-22 1.0km</title><desc>9895405405</desc></polyline><polyline fill="none" stroke="#4dd2ff" stroke-linecap="round" stroke-linejoin="round" stroke-width=".5" points="116.431 206.5 116.211 207.296 115.771 207.774 114.817 209.527 114.45 210.801 113.349 213.589 112.174 215.978 111.44 217.73 111.22 218.606 111.22 219.164 111.44 219.96 111.881 220.757 112.835 223.226 113.789 224.978 114.303 226.252 115.257 227.845 115.844 228.562 116.284 229.836 117.459 231.907 118.78 233.5"><title>2023-09-21 1.0km</title><desc>9889267953</desc></polyline><polyline fill="none" stroke="#4dd2ff" stroke-linecap="round" stroke-linejoin="round" stroke-width=".5" points="147.749 206.5 146.785 209.391 146.219 211.666 145.312 213.573 144.235 216.771 142.364 220.277 141.854 222.183 141.911 222.614 142.251 223.537 142.988 225.136 143.441 226.489 144.575 228.088 145.255 229.379 145.652 230.302 146.105 231.101 146.842 231.655 147.749 233.008 147.806 233.254 148.146 233.5"><title>2023-09-20 1.0km</title><desc>9882714971</desc></polyline><polyline fill="none" stroke="#4dd2ff" stroke-linecap="round" stroke-linejoin="round" stroke-width=".5" points="177.239 206.5 176.663 207.958 175.576 211.15 175.512 212.192 175.128 212.747 174.68 213.788 174.424 214.76 173.913 216.078 172.441 218.438 172.058 219.827 171.93 221.076 172.058 222.325 172.441 223.713 172.889 224.685 174.296 227.114 175 228.086 175.64 229.821 176.279 230.932 176.919 231.834 177.623 232.528 178.07 233.5"><title>2023-09-19 1.0km</title><desc>9876194288</desc></polyline><polyline fill="none" stroke="#4dd2ff" stroke-linecap="round" stroke-linejoin="round" stroke-width=".5" points="24.801 241.5 24.324 242.276 23.529 243.829 23.291 244.864 21.86 247.366 20.747 249.695 20.508 250.558 20.588 251.506 21.065 252.714 21.78 254.008 22.416 255.82 23.291 257.717 24.245 259.443 25.119 260.564 26.153 262.289 26.789 264.273 27.902 265.998 28.458 267.551 29.492 268.5"><title>2023-09-18 1.0km</title><desc>9870505463</desc></polyline><polyline fill="none" stroke="#4dd2ff" stroke-linecap="round" stroke-linejoin="round" stroke-width=".5" points="55.271 241.5 54.884 242.257 54.341 244.78 53.643 245.958 53.333 246.883 51.628 249.659 51.008 251.173 50.62 252.519 50.93 253.444 52.636 257.145 53.488 258.491 54.109 259.921 55.116 261.266 55.659 262.192 56.357 264.379 59.38 268.5"><title>2023-09-16 1.0km</title><desc>9856514700</desc></polyline><polyline fill="none" stroke="#4dd2ff" stroke-linecap="round" stroke-linejoin="round" stroke-width=".5" points="84.627 241.5 83.797 244.02 82.719 245.73 80.48 250.05 80.397 251.04 80.48 252.21 80.977 253.38 81.807 254.64 82.553 256.35 83.88 258.6 85.539 261.75 85.705 262.92 86.286 263.37 86.949 264.27 88.027 266.07 89.189 267.06 89.437 267.69 89.603 268.5"><title>2023-09-15 1.0km</title><desc>9850671982</desc></polyline><polyline fill="none" stroke="#4dd2ff" stroke-linecap="round" stroke-linejoin="round" stroke-width=".5" points="115.686 241.5 114.314 245.131 112.769 247.366 112.083 248.576 111.053 251.183 110.796 252.114 110.796 252.859 111.053 253.79 112.083 256.583 113.027 258.445 115.343 262.448 116.287 264.217 116.459 265.241 117.145 265.893 118.26 267.662 119.204 268.5"><title>2023-09-14 1.0km</title><desc>9844236351</desc></polyline><polyline fill="none" stroke="#4dd2ff" stroke-linecap="round" stroke-linejoin="round" stroke-width=".5" points="140.709 241.5 141.203 241.902 141.388 242.304 141.512 243.175 141.882 243.912 142.129 245.989 142.129 246.994 142.005 247.53 142.129 248.2 142.438 249.004 142.314 249.674 142.376 250.009 142.993 251.148 143.549 252.823 144.043 253.761 144.66 254.632 145.34 255.235 145.525 255.637 145.71 256.508 146.204 257.379 146.76 258.986 147.501 260.393 147.871 261.599 148.056 262.604 148.427 263.408 149.106 265.619 150.032 267.361 150.094 267.629 150.032 267.83 149.291 268.5 149.662 268.232 149.847 267.83 149.97 267.495 149.909 267.026 149.538 266.557 148.427 264.145 147.871 262.336 146.698 259.723 146.142 257.178 145.834 256.441 144.66 254.9 143.487 252.689 142.932 250.88 142.746 249.674 142.252 248.401 141.265 246.257 141.018 245.252 140.153 243.644 139.968 242.773 139.906 241.701"><title>2023-09-13 1.0km</title><desc>9837636972</desc></polyline></svg>