<svg xmlns="http://www.w3.org/2000/svg" xmlns:ev="http://www.w3.org/2001/xml-events" xmlns:xlink="http://www.w3.org/1999/xlink" width="200mm" height="300mm" baseProfile="full" version="1.1" viewBox="0 0 200 300"><rect width="200" height="300" x="0" y="0" fill="#222"/><text fill="#FFF" style="font-size:12px;font-family:Arial;font-weight:700" x="10" y="20">Over 1km Runs</text><text fill="#FFF" style="font-size:4px;font-family:Arial" x="10" y="280">ATHLETE</text><text fill="#FFF" style="font-size:9px;font-family:Arial" x="10" y="290">Jiakai</text><text fill="#FFF" style="font-size:4px;font-family:Arial" x="120" y="280">STATISTICS</text><text fill="#FFF" style="font-size:3px;font-family:Arial" x="120" y="285">Number: 70</text><text fill="#FFF" style="font-size:3px;font-family:Arial" x="120" y="290">Weekly: 5.8</text><text fill="#FFF" style="font-size:3px;font-family:Arial" x="141" y="285">Total: 72.4 km</text><text fill="#FFF" style="font-size:3px;font-family:Arial" x="141" y="290">Avg: 1.0 km</text><text fill="#FFF" style="font-size:3px;font-family:Arial" x="167" y="285">Min: 1.0 km</text><text fill="#FFF" style="font-size:3px;font-family:Arial" x="167" y="290">Max: 1.5 km</text><polyline fill="none" stroke="#4dd2ff" stroke-linecap="round" stroke-linejoin="round" stroke-width=".5" points="19.529 35.818 20.49 38.946 20.902 41.479 22.412 44.458 24.059 48.927 25.707 52.502 25.981 52.8 26.256 52.502 25.981 51.459 24.883 49.523 23.373 45.352 21.176 40.883 20.353 36.116 18.705 33.583 17.744 31.2"><title>2023-11-29 1.0km</title><desc>10298007687</desc></polyline><polyline fill="none" stroke="#4dd2ff" stroke-linecap="round" stroke-linejoin="round" stroke-width=".5" points="44.277 33.997 45.852 38.037 46.138 40.99 48.143 45.807 49.289 50.158 50.291 52.178 51.294 52.8 51.723 52.8 52.01 52.334 51.867 51.712 51.294 50.624 49.002 44.564 46.711 39.281 46.281 36.794 45.279 33.842 43.99 31.2"><title>2023-11-28 1.0km</title><desc>10292316108</desc></polyline><polyline fill="none" stroke="#4dd2ff" stroke-linecap="round" stroke-linejoin="round" stroke-width=".5" points="73.493 31.2 74.761 34.64 75.521 37.941 76.536 39.455 77.677 41.656 78.818 45.233 79.832 46.884 79.832 47.71 79.198 48.26 77.17 49.361 75.902 50.461 74.634 51.149 72.732 51.975 69.689 52.8 69.182 52.662 68.802 52.25 68.168 49.636"><title>2023-11-27 1.0km</title><desc>10287544518</desc></polyline><polyline fill="none" stroke="#4dd2ff" stroke-linecap="round" stroke-linejoin="round" stroke-width=".5" points="97.912 35.883 98.608 37.544 100.278 46.003 102.088 50.383 103.062 52.045 103.758 52.8 103.898 52.649 103.48 51.894 103.48 50.685 102.366 48.118 101.114 43.888 99.861 41.32 99.026 36.487 96.659 32.71 96.102 31.2"><title>2023-11-26 1.0km</title><desc>10281488289</desc></polyline><polyline fill="none" stroke="#4dd2ff" stroke-linecap="round" stroke-linejoin="round" stroke-width=".5" points="122.067 31.2 123.672 35.381 125.117 41.303 126.562 44.613 126.883 46.703 127.686 48.619 129.451 51.929 130.254 52.8 130.575 52.8 128.167 47.574 127.846 45.832 126.241 43.568 123.03 34.858 121.425 31.897"><title>2023-11-25 1.0km</title><desc>10275889695</desc></polyline><polyline fill="none" stroke="#4dd2ff" stroke-linecap="round" stroke-linejoin="round" stroke-width=".5" points="147.814 31.402 148.93 36.449 154.139 50.579 155.442 52.598 156 52.8 156.186 52.194 154.325 49.772 152.093 43.11 150.605 40.082 149.675 34.228 148.558 31.2"><title>2023-11-24 1.0km</title><desc>10271180196</desc></polyline><polyline fill="none" stroke="#4dd2ff" stroke-linecap="round" stroke-linejoin="round" stroke-width=".5" points="175.314 33.6 175.788 34.971 176.894 40.8 179.58 49.029 180.844 52.457 181.318 52.8 181.95 52.8 182.108 52.457 181.792 50.743 180.054 45.771 175.472 35.829 173.892 31.2"><title>2023-11-23 1.0km</title><desc>10265414399</desc></polyline><polyline fill="none" stroke="#4dd2ff" stroke-linecap="round" stroke-linejoin="round" stroke-width=".5" points="20.108 60.068 20.248 62.197 20.808 65.544 23.051 71.932 23.752 74.975 24.874 76.8 25.715 76.8 25.575 75.887 24.033 71.932 22.771 69.955 20.949 64.327 18.846 58.546 18.285 55.2"><title>2023-11-21 1.0km</title><desc>10253878272</desc></polyline><polyline fill="none" stroke="#4dd2ff" stroke-linecap="round" stroke-linejoin="round" stroke-width=".5" points="45.675 61.034 46.402 65.764 49.453 73.489 50.761 76.327 51.197 76.8 51.487 76.642 51.632 76.327 51.051 73.804 48.436 68.128 47.419 65.133 45.821 58.984 44.949 57.407 44.368 55.2"><title>2023-11-20 1.0km</title><desc>10248671423</desc></polyline><polyline fill="none" stroke="#4dd2ff" stroke-linecap="round" stroke-linejoin="round" stroke-width=".5" points="70.155 57 72.266 61.582 72.869 66.327 74.528 70.091 76.187 74.836 76.941 75.982 77.845 76.8 77.695 75.491 75.131 68.782 73.472 62.727 71.813 58.8 70.909 55.2"><title>2023-11-19 1.0km</title><desc>10242265034</desc></polyline><polyline fill="none" stroke="#4dd2ff" stroke-linecap="round" stroke-linejoin="round" stroke-width=".5" points="95.802 74.446 96.745 71.477 97.123 70.76 97.783 70.351 100.991 69.941 103.349 69.429 104.104 68.815 104.575 68.201 105.141 65.642 104.953 64.823 105.33 64.209 105.047 59.5 104.858 58.885 104.764 57.043 104.575 55.917 103.538 55.609 102.689 56.224 102.877 55.917 103.066 56.224 101.84 55.609 101.745 55.2 101.462 55.405 101.651 55.302 100.991 56.121 101.085 56.019 103.066 57.043 102.594 57.452 101.84 57.759 100.047 58.066 99.953 57.657 100.425 57.452 101.085 57.555 103.066 55.609 105.802 55.712 105.519 55.507 105.141 55.405 104.858 60.319 104.953 61.752 105.236 63.492 105.424 66.461 105.424 67.484 105.141 68.508 104.575 69.122 99.858 69.634 97.689 70.044 96.557 70.863 95.236 72.705 94.481 75.367 94.198 76.8"><title>2023-11-18 1.0km</title><desc>10236386505</desc></polyline><polyline fill="none" stroke="#4dd2ff" stroke-linecap="round" stroke-linejoin="round" stroke-width=".5" points="121.592 55.2 124.72 60.6 125.858 64.611 126.284 66.926 127.137 68.314 129.839 76.183 130.408 76.8 130.408 76.183 129.839 75.411 128.275 70.783 127.422 69.24 127.137 66.617 125.858 63.377 124.436 60.291 124.294 58.594"><title>2023-11-17 1.0km</title><desc>10231268371</desc></polyline><polyline fill="none" stroke="#4dd2ff" stroke-linecap="round" stroke-linejoin="round" stroke-width=".5" points="148.147 55.897 150.234 58.858 150.716 62.865 152.161 66 154.408 74.361 155.853 76.8 155.692 75.406 154.569 73.142 153.766 70.877 152.482 65.477 149.913 60.077 149.11 57.639 148.629 55.2"><title>2023-11-16 1.0km</title><desc>10225818993</desc></polyline><polyline fill="none" stroke="#4dd2ff" stroke-linecap="round" stroke-linejoin="round" stroke-width=".5" points="174.254 55.432 175.324 59.613 177.037 64.258 179.391 68.671 180.247 72.155 181.746 75.174 183.244 76.8 179.391 69.6 177.679 64.258 172.756 55.2"><title>2023-11-15 1.0km</title><desc>10219684298</desc></polyline><polyline fill="none" stroke="#4dd2ff" stroke-linecap="round" stroke-linejoin="round" stroke-width=".5" points="18.183 81.799 20.129 84.235 20.428 87.32 22.674 92.68 24.021 97.227 25.368 100.638 25.966 100.8 25.817 98.851 23.871 96.253 23.123 93.979 21.925 92.517 21.476 90.731 19.231 86.183 18.483 82.935 18.034 79.2"><title>2023-11-14 1.0km</title><desc>10213806154</desc></polyline><polyline fill="none" stroke="#4dd2ff" stroke-linecap="round" stroke-linejoin="round" stroke-width=".5" points="45.115 82.174 46.269 86.557 49.442 94.696 50.164 97.357 51.606 100.33 52.039 100.8 51.173 99.235 49.154 94.383 49.01 93.13 47.567 89.687 45.404 85.774 44.538 83.113 43.961 79.2"><title>2023-11-13 1.0km</title><desc>10208522228</desc></polyline><polyline fill="none" stroke="#4dd2ff" stroke-linecap="round" stroke-linejoin="round" stroke-width=".5" points="71.587 81.655 73.095 86.236 74.905 90 75.96 94.418 77.016 97.527 78.373 100.473 78.977 100.8 79.278 100.145 77.619 96.873 76.714 93.273 73.397 90.164 71.587 87.545 71.286 84.764 68.722 79.2"><title>2023-11-12 1.0km</title><desc>10202270880</desc></polyline><polyline fill="none" stroke="#4dd2ff" stroke-linecap="round" stroke-linejoin="round" stroke-width=".5" points="96.732 83.23 100.297 91.29 101.486 95.319 102.674 98.543 103.417 99.994 104.159 100.8 104.308 100.155 102.971 96.125 100.446 92.257 97.772 86.131 96.732 81.779 95.692 79.2"><title>2023-11-11 1.0km</title><desc>10196068378</desc></polyline><polyline fill="none" stroke="#4dd2ff" stroke-linecap="round" stroke-linejoin="round" stroke-width=".5" points="123.992 82.421 126.437 89.811 128.707 95.874 129.754 99.853 130.453 100.8 130.802 100.421 130.278 98.147 127.659 92.274 125.04 86.779 121.547 81.284 121.198 79.2"><title>2023-11-10 1.0km</title><desc>10191120477</desc></polyline><polyline fill="none" stroke="#4dd2ff" stroke-linecap="round" stroke-linejoin="round" stroke-width=".5" points="146.985 79.86 149.569 81.838 151.088 84.476 151.544 85.466 151.544 86.95 153.216 92.061 153.823 95.029 155.039 98.327 155.343 99.976 156.103 100.8 156.559 100.635 157.015 99.976 155.343 98.821 152.608 94.864 149.417 86.125 148.657 81.179 147.897 79.2"><title>2023-11-09 1.0km</title><desc>10185506531</desc></polyline><polyline fill="none" stroke="#4dd2ff" stroke-linecap="round" stroke-linejoin="round" stroke-width=".5" points="173.786 80.934 175.385 84.088 175.966 85.664 177.855 89.764 178.581 92.601 178.436 90.867 178.726 91.971 179.308 96.228 180.615 100.169 181.197 100.8 181.923 100.485 182.214 100.012 180.615 98.593 179.453 96.701 178.726 94.651 177.709 91.183 176.256 89.133 174.658 85.664 174.222 83.142 174.368 79.988 174.077 79.2"><title>2023-11-08 1.0km</title><desc>10179505859</desc></polyline><polyline fill="none" stroke="#4dd2ff" stroke-linecap="round" stroke-linejoin="round" stroke-width=".5" points="21.026 115.133 25.898 124.8 26.176 124.649 25.48 122.987 24.227 120.873 23.392 118.758 21.722 116.945 21.165 115.888 20.747 112.263 20.469 111.206 18.798 108.336 17.824 103.2"><title>2023-11-06 1.0km</title><desc>10167691585</desc></polyline><polyline fill="none" stroke="#4dd2ff" stroke-linecap="round" stroke-linejoin="round" stroke-width=".5" points="45.923 109.26 46.926 111.125 50.649 119.672 52.225 124.489 52.511 124.8 52.798 124.8 52.798 124.334 51.652 121.847 50.649 120.449 50.506 119.672 49.647 118.74 47.212 114.544 44.348 107.24 43.202 103.2"><title>2023-11-05 1.1km</title><desc>10161301187</desc></polyline><polyline fill="none" stroke="#4dd2ff" stroke-linecap="round" stroke-linejoin="round" stroke-width=".5" points="69.961 103.2 72.846 109.617 74.144 115.252 76.164 119.165 76.885 122.296 77.606 124.8 78.039 124.33 77.895 123.861 76.019 120.417 75.875 119.948 74.144 117.287 73.423 114.783 71.548 111.339 71.115 108.365 70.25 105.235"><title>2023-11-04 1.0km</title><desc>10155501797</desc></polyline><polyline fill="none" stroke="#4dd2ff" stroke-linecap="round" stroke-linejoin="round" stroke-width=".5" points="105.795 106.481 104.157 104.294 103.15 103.61 101.134 103.2 99.244 103.337 96.599 104.567 95.465 105.661 94.457 107.711 94.205 109.352 93.827 114.82 94.079 120.562 94.331 121.382 95.591 123.433 97.102 124.527 99.622 124.8 101.89 123.843 104.031 121.246 104.661 120.015 105.543 116.051 105.543 112.906 106.173 108.805 106.047 107.301 104.661 105.661 103.527 104.841 100.882 103.61 99.496 103.61 96.473 104.567 95.087 105.797 94.205 107.438 93.953 108.532 94.205 113.043 93.953 115.094"><title>2023-11-03 1.0km</title><desc>10152446508</desc></polyline><polyline fill="none" stroke="#4dd2ff" stroke-linecap="round" stroke-linejoin="round" stroke-width=".5" points="121.53 103.2 122.71 105.763 123.723 110.339 125.41 113.634 127.94 120.224 128.446 121.322 129.29 124.251 129.796 124.8 130.47 124.8 130.47 124.434 129.29 123.885 128.783 122.603 127.603 121.505 126.759 119.125 125.578 117.295 124.229 114.549 122.71 108.875 121.698 106.495"><title>2023-11-02 1.1km</title><desc>10144903556</desc></polyline><polyline fill="none" stroke="#4dd2ff" stroke-linecap="round" stroke-linejoin="round" stroke-width=".5" points="148.322 104.765 148.61 106.487 149.764 109.148 151.784 116.348 155.246 123.548 156.255 124.8 155.678 122.922 153.515 119.635 152.361 115.409 150.918 113.374 149.187 109.617 147.745 103.2"><title>2023-11-01 1.0km</title><desc>10138966680</desc></polyline><polyline fill="none" stroke="#4dd2ff" stroke-linecap="round" stroke-linejoin="round" stroke-width=".5" points="174.857 103.525 175.605 105.961 176.803 112.457 178.748 116.68 179.946 120.577 181.891 124.8 182.041 124.638 180.694 122.689 178.748 118.141 177.102 115.218 174.258 106.611 173.959 103.2"><title>2023-10-31 1.0km</title><desc>10133123337</desc></polyline><polyline fill="none" stroke="#4dd2ff" stroke-linecap="round" stroke-linejoin="round" stroke-width=".5" points="18.609 129.76 19.346 133.6 19.346 135.04 20.968 137.76 25.391 147.2 26.129 148.64 26.424 148.8 23.032 142.08 21.558 137.92 19.936 134.56 17.576 127.2"><title>2023-10-30 1.0km</title><desc>10127985445</desc></polyline><polyline fill="none" stroke="#4dd2ff" stroke-linecap="round" stroke-linejoin="round" stroke-width=".5" points="44.595 130.326 45.25 134.732 45.643 136.153 48.262 142.263 49.572 145.816 51.536 148.516 52.06 148.8 52.191 148.374 51.012 146.526 49.31 142.832 46.298 137.29 45.119 133.168 44.202 131.321 44.071 128.479 43.809 127.2"><title>2023-10-28 1.0km</title><desc>10115543824</desc></polyline><polyline fill="none" stroke="#4dd2ff" stroke-linecap="round" stroke-linejoin="round" stroke-width=".5" points="71.198 131.68 72.378 135.52 73.705 138.56 74.885 142.88 76.654 147.04 77.391 148.64 78.129 148.8 78.276 148.64 77.981 147.68 77.096 145.28 74.147 139.52 71.788 133.12 70.314 129.92 69.724 127.2"><title>2023-10-27 1.0km</title><desc>10110442644</desc></polyline><polyline fill="none" stroke="#4dd2ff" stroke-linecap="round" stroke-linejoin="round" stroke-width=".5" points="97.073 130.535 99.854 139.906 100.878 142.765 101.903 144.512 103.074 147.847 103.513 148.482 104.391 148.8 104.537 148.324 104.391 147.688 102.927 145.782 100.732 141.971 98.097 134.188 96.341 131.329 95.463 127.2"><title>2023-10-26 1.0km</title><desc>10104873905</desc></polyline><polyline fill="none" stroke="#4dd2ff" stroke-linecap="round" stroke-linejoin="round" stroke-width=".5" points="124.918 137.53 128.236 145.826 129.823 148.643 130.4 148.8 130.255 147.235 126.361 140.504 124.197 135.026 122.322 131.113 121.6 127.2"><title>2023-10-25 1.0km</title><desc>10098978222</desc></polyline><polyline fill="none" stroke="#4dd2ff" stroke-linecap="round" stroke-linejoin="round" stroke-width=".5" points="148.004 127.2 147.859 128.304 148.731 131.93 149.893 134.295 150.62 137.133 151.927 140.917 154.688 146.277 155.56 148.485 155.85 148.8 156.141 148.642 155.996 146.593 154.397 143.597 153.235 141.863 151.782 138.552 151.491 136.818 149.748 134.137 148.731 131.772 148.44 128.934 148.004 127.2"><title>2023-10-24 1.0km</title><desc>10092835699</desc></polyline><polyline fill="none" stroke="#4dd2ff" stroke-linecap="round" stroke-linejoin="round" stroke-width=".5" points="175.78 130.93 177.928 138.544 178.931 140.409 180.077 145.071 181.795 148.178 182.511 148.8 181.795 148.023 180.793 145.537 178.215 142.429 177.642 141.341 177.069 137.767 175.351 134.348 174.205 130.774 173.489 127.2"><title>2023-10-23 1.0km</title><desc>10087395010</desc></polyline><polyline fill="none" stroke="#4dd2ff" stroke-linecap="round" stroke-linejoin="round" stroke-width=".5" points="15.007 151.304 15.389 151.2 18.11 151.407 19.303 151.718 19.589 151.873 20.21 152.34 20.64 152.858 21.594 154.619 22.072 156.587 22.692 157.623 22.979 158.452 23.647 159.954 24.124 161.508 24.84 162.751 25.174 163.114 25.604 163.839 25.843 165.393 25.986 165.807 26.368 166.377 26.463 167.258 26.607 167.62 28.707 172.593 28.993 172.8 28.993 172.541 28.564 172.127 28.086 170.987 27.609 170.003 26.32 166.014"><title>2023-10-22 1.5km</title><desc>10080655811</desc></polyline><polyline fill="none" stroke="#4dd2ff" stroke-linecap="round" stroke-linejoin="round" stroke-width=".5" points="44.564 151.2 45.322 151.748 43.958 151.529 46.08 154.27 46.282 154.928 46.131 155.476 45.423 155.86 45.221 156.244 45.272 156.902 45.676 158.491 46.131 159.643 46.636 161.397 47.545 162.987 47.697 163.59 48.253 164.577 48.606 165.015 48.657 165.289 49.01 165.618 49.263 166.167 49.617 167.208 49.97 167.921 49.92 169.346 50.577 170.607 50.779 171.21 51.132 171.868 51.739 172.636 52.042 172.8 50.88 171.155 50.627 170.278 50.122 169.182 49.92 168.469 49.263 167.537 48.707 165.947"><title>2023-10-20 1.4km</title><desc>10069668027</desc></polyline><polyline fill="none" stroke="#4dd2ff" stroke-linecap="round" stroke-linejoin="round" stroke-width=".5" points="69.654 151.2 69.756 152.037 70.579 154.047 70.785 155.274 72.483 159.405 72.637 159.963 72.74 160.8 72.946 161.358 74.18 163.088 74.849 164.428 75.26 165.768 75.62 166.493 75.826 167.609 76.083 168.167 76.752 169.898 76.855 170.567 77.832 172.577 78.089 172.8 78.244 172.8 78.346 172.744 78.295 172.688 77.266 171.405 76.803 169.842 75.826 168.056 75.672 167.33 75.569 166.102"><title>2023-10-19 1.3km</title><desc>10064004415</desc></polyline><polyline fill="none" stroke="#4dd2ff" stroke-linecap="round" stroke-linejoin="round" stroke-width=".5" points="95.129 151.2 97.247 153.957 97.106 155.949 97.388 157.94 98.376 161.464 99.788 163.762 101.2 167.745 104.024 172.34 104.447 172.8 104.871 172.647 103.035 170.809 99.647 164.221 98.8 161.311 96.4 156.255"><title>2023-10-18 1.0km</title><desc>10058081424</desc></polyline><polyline fill="none" stroke="#4dd2ff" stroke-linecap="round" stroke-linejoin="round" stroke-width=".5" points="122.23 152.509 123.436 159.545 126.603 167.891 128.714 172.309 129.619 172.8 130.072 172.8 130.373 172.145 129.318 170.836 127.96 168.709 126.151 164.782 125.397 162.491 122.23 156.109 121.928 155.127 121.627 151.2"><title>2023-10-17 1.0km</title><desc>10051702317</desc></polyline><polyline fill="none" stroke="#4dd2ff" stroke-linecap="round" stroke-linejoin="round" stroke-width=".5" points="147.177 151.698 148.708 154.357 151.005 160.338 152.23 162.665 153.608 166.985 155.292 171.305 155.905 172.468 156.67 172.8 156.823 172.634 156.67 172.135 154.986 169.643 152.689 163.994 151.005 160.505 149.627 154.025 148.861 151.2"><title>2023-10-16 1.0km</title><desc>10046279660</desc></polyline><polyline fill="none" stroke="#4dd2ff" stroke-linecap="round" stroke-linejoin="round" stroke-width=".5" points="173.576 151.2 174.208 152.571 174.84 155.657 176.262 160.457 178.158 163.371 180.37 171.6 181.16 172.457 182.266 172.8 182.424 172.457 182.266 171.429 180.212 168.514 179.106 165.086 177.842 163.029 174.84 156 173.734 151.2"><title>2023-10-15 1.0km</title><desc>10039610121</desc></polyline><polyline fill="none" stroke="#4dd2ff" stroke-linecap="round" stroke-linejoin="round" stroke-width=".5" points="17.505 176.768 17.987 181.819 19.271 185.477 20.876 187.742 21.839 190.877 24.569 195.755 25.211 196.452 26.013 196.8 26.495 196.452 26.495 195.929 23.284 193.316 21.197 189.484 20.395 186.174 18.468 181.819 17.505 178.161 17.666 175.897 17.505 175.2"><title>2023-10-14 1.0km</title><desc>10033377496</desc></polyline><polyline fill="none" stroke="#4dd2ff" stroke-linecap="round" stroke-linejoin="round" stroke-width=".5" points="43.102 175.543 45.946 178.971 46.262 181.543 48.948 189.771 51.476 195.771 52.266 196.8 52.898 196.8 52.898 196.286 52.74 195.771 51.318 194.743 49.738 191.829 48 186.343 44.84 179.314 44.366 176.914 43.576 175.2"><title>2023-10-13 1.0km</title><desc>10028006924</desc></polyline><polyline fill="none" stroke="#4dd2ff" stroke-linecap="round" stroke-linejoin="round" stroke-width=".5" points="69.365 175.2 70.885 177.179 71.797 178.827 71.949 180.971 71.797 183.279 73.468 186.742 75.444 192.018 77.419 195.646 77.875 196.305 78.635 196.8 78.635 195.976 76.963 193.832 75.444 191.194 73.468 185.753 72.253 183.609 71.645 181.795"><title>2023-10-12 1.0km</title><desc>10021974100</desc></polyline><polyline fill="none" stroke="#4dd2ff" stroke-linecap="round" stroke-linejoin="round" stroke-width=".5" points="97.475 178.263 98.069 181.487 97.92 182.776 99.257 187.128 100.297 189.063 101.337 192.609 102.823 196.155 103.12 196.478 103.862 196.8 103.714 196.155 102.08 191.964 100.297 188.902 97.92 183.421 97.326 181.325 97.029 178.263 96.138 175.2"><title>2023-10-10 1.0km</title><desc>10009069592</desc></polyline><polyline fill="none" stroke="#4dd2ff" stroke-linecap="round" stroke-linejoin="round" stroke-width=".5" points="122.341 177.9 123.365 180.759 124.39 184.571 126.585 189.335 128.342 195.371 129.366 196.8 129.659 196.324 129.806 194.576 128.781 191.559 126.585 187.747 124.097 180.759 123.365 177.582 122.194 175.2"><title>2023-10-09 1.0km</title><desc>10003389142</desc></polyline><polyline fill="none" stroke="#4dd2ff" stroke-linecap="round" stroke-linejoin="round" stroke-width=".5" points="147.602 175.2 148.682 176.54 149.762 179.051 150.38 184.074 152.694 189.098 154.7 194.791 155.626 196.465 156.398 196.8 156.398 195.46 153.466 190.772 149.608 181.395 148.065 175.367"><title>2023-10-08 1.0km</title><desc>9996447828</desc></polyline><polyline fill="none" stroke="#4dd2ff" stroke-linecap="round" stroke-linejoin="round" stroke-width=".5" points="175.227 179.52 175.938 182.143 178.071 187.851 178.782 190.32 181.057 196.029 181.768 196.8 181.91 196.183 181.91 195.566 179.209 190.783 177.929 188.006 175.654 181.217 174.943 177.669 174.09 175.2"><title>2023-10-07 1.0km</title><desc>9989974159</desc></polyline><polyline fill="none" stroke="#4dd2ff" stroke-linecap="round" stroke-linejoin="round" stroke-width=".5" points="20.235 205.634 21.365 209.311 22.212 211.149 23.906 218.349 24.329 219.728 25.176 220.8 25.882 220.8 26.165 220.187 26.024 219.728 24.329 217.277 22.635 213.6 22.071 211.149 19.106 203.949 18.682 201.345 17.835 199.2"><title>2023-10-06 1.0km</title><desc>9984428862</desc></polyline><polyline fill="none" stroke="#4dd2ff" stroke-linecap="round" stroke-linejoin="round" stroke-width=".5" points="43.35 199.2 45.797 205.751 47.429 211.239 50.203 218.144 51.345 220.446 51.834 220.8 52.487 220.8 52.65 220.446 52.161 219.561 50.203 216.728 49.061 214.426 47.103 209.292 46.287 206.636 44.002 202.387 44.002 200.793"><title>2023-10-04 1.0km</title><desc>9971682885</desc></polyline><polyline fill="none" stroke="#4dd2ff" stroke-linecap="round" stroke-linejoin="round" stroke-width=".5" points="70.731 201.723 71.457 204.245 72.184 205.98 72.765 208.66 75.526 214.178 75.671 216.07 76.543 219.854 76.833 220.327 77.705 220.8 77.705 219.223 75.816 215.755 74.509 212.759 73.782 211.34 73.056 209.291 71.603 206.295 71.021 203.93 70.731 201.565 70.295 199.2"><title>2023-10-03 1.0km</title><desc>9965060084</desc></polyline><polyline fill="none" stroke="#4dd2ff" stroke-linecap="round" stroke-linejoin="round" stroke-width=".5" points="96.052 200.093 98.026 206.519 98.355 209.375 99.506 210.803 100.329 212.945 101.81 218.479 102.961 220.264 103.784 220.8 103.948 220.621 103.455 219.193 101.645 215.802 98.684 208.661 96.874 203.306 96.545 199.2"><title>2023-10-02 1.0km</title><desc>9958643020</desc></polyline><polyline fill="none" stroke="#4dd2ff" stroke-linecap="round" stroke-linejoin="round" stroke-width=".5" points="122.576 203.002 122.895 204.557 126.398 212.851 128.15 218.208 129.105 220.109 130.061 220.8 130.22 220.627 130.061 219.936 126.876 215.098 123.85 207.667 122.417 203.174 121.78 199.2"><title>2023-10-01 1.0km</title><desc>9952075403</desc></polyline><polyline fill="none" stroke="#4dd2ff" stroke-linecap="round" stroke-linejoin="round" stroke-width=".5" points="148.899 202.33 150.197 204.991 150.774 207.652 151.207 210.157 153.37 216.261 155.246 220.174 156.111 220.8 156.4 220.33 153.515 215.948 152.216 212.974 151.784 211.409 149.764 207.026 148.61 202.174 147.6 199.2"><title>2023-09-30 1.0km</title><desc>9945549317</desc></polyline><polyline fill="none" stroke="#4dd2ff" stroke-linecap="round" stroke-linejoin="round" stroke-width=".5" points="174.656 199.2 176.089 201.619 176.567 203.52 177.841 206.63 178.478 211.296 178.955 212.678 180.866 217.344 181.344 220.282 181.663 220.627 182.14 220.8 182.3 220.454 179.433 215.27 177.522 210.778 176.885 208.186 174.656 203.002 173.7 199.891"><title>2023-09-28 1.0km</title><desc>9933629332</desc></polyline><polyline fill="none" stroke="#4dd2ff" stroke-linecap="round" stroke-linejoin="round" stroke-width=".5" points="17.777 225.655 18.984 229.909 21.246 233.018 22.754 238.582 24.865 242.345 25.468 244.473 26.072 244.8 26.373 244.309 26.072 243.655 24.865 242.018 21.397 234.982 19.587 230.073 17.627 223.2"><title>2023-09-27 1.0km</title><desc>9927137811</desc></polyline><polyline fill="none" stroke="#4dd2ff" stroke-linecap="round" stroke-linejoin="round" stroke-width=".5" points="49.794 223.2 49.364 225.277 48.933 226.471 48.598 227.925 46.636 232.027 45.631 233.74 45.44 234.467 45.536 235.039 45.775 235.869 46.493 237.635 46.732 238.102 47.019 238.933 47.976 240.127 48.407 241.062 48.885 241.789 49.268 242.827 49.842 243.606 50.56 244.8"><title>2023-09-26 1.0km</title><desc>9920397094</desc></polyline><polyline fill="none" stroke="#4dd2ff" stroke-linecap="round" stroke-linejoin="round" stroke-width=".5" points="73.899 223.2 72.958 226.338 72.016 228.016 71.142 229.111 70.671 229.987 70.469 230.862 70.537 231.957 70.873 232.832 71.68 234.073 72.016 235.314 72.689 236.919 73.966 238.524 76.118 242.903 77.531 244.8"><title>2023-09-25 1.0km</title><desc>9914573673</desc></polyline><polyline fill="none" stroke="#4dd2ff" stroke-linecap="round" stroke-linejoin="round" stroke-width=".5" points="101.592 223.2 101.062 224.006 100.955 224.41 101.062 224.928 101.115 225.446 100.053 227.405 99.788 228.73 99.416 229.709 97.187 233.626 97.134 234.086 97.346 235.008 97.93 235.93 98.248 236.736 98.726 237.542 98.991 238.349 99.682 239.443 100.212 240.538 100.796 241.171 100.955 241.747 101.327 242.208 102.123 243.59 102.707 244.224 102.866 244.8"><title>2023-09-24 1.0km</title><desc>9907510217</desc></polyline><polyline fill="none" stroke="#4dd2ff" stroke-linecap="round" stroke-linejoin="round" stroke-width=".5" points="126.805 223.2 126.354 223.899 126.032 224.598 125.839 225.507 125.775 226.695 124.679 228.163 124.035 229.841 123.455 230.68 123.069 231.798 123.004 232.986 124.357 236.412 124.873 237.46 126.548 240.117 127.256 241.864 128.158 242.983 128.673 243.891 128.996 244.8"><title>2023-09-23 1.0km</title><desc>9901004991</desc></polyline><polyline fill="none" stroke="#4dd2ff" stroke-linecap="round" stroke-linejoin="round" stroke-width=".5" points="152.829 223.2 152.399 224 151.969 225.4 150.986 227.467 150.003 228.867 149.143 231.2 149.082 232.467 149.205 233.2 150.433 236.133 150.618 237 150.863 237.467 151.724 238.533 152.399 239.867 152.952 241.267 153.874 242.6 154.918 244.8"><title>2023-09-22 1.0km</title><desc>9895405405</desc></polyline><polyline fill="none" stroke="#4dd2ff" stroke-linecap="round" stroke-linejoin="round" stroke-width=".5" points="179.145 223.2 178.969 223.837 178.617 224.219 177.853 225.621 177.56 226.641 176.679 228.871 175.739 230.782 175.152 232.184 174.976 232.885 174.976 233.331 175.152 233.968 175.504 234.605 176.268 236.581 177.031 237.982 177.442 239.002 178.206 240.276 178.675 240.85 179.028 241.869 179.967 243.526 181.024 244.8"><title>2023-09-21 1.0km</title><desc>9889267953</desc></polyline><polyline fill="none" stroke="#4dd2ff" stroke-linecap="round" stroke-linejoin="round" stroke-width=".5" points="24.199 247.2 23.428 249.513 22.975 251.333 22.249 252.858 21.388 255.417 19.892 258.221 19.483 259.747 19.529 260.091 19.801 260.829 20.39 262.109 20.753 263.191 21.66 264.47 22.204 265.503 22.521 266.241 22.884 266.881 23.474 267.324 24.199 268.406 24.244 268.603 24.517 268.8"><title>2023-09-20 1.0km</title><desc>9882714971</desc></polyline><polyline fill="none" stroke="#4dd2ff" stroke-linecap="round" stroke-linejoin="round" stroke-width=".5" points="49.791 247.2 49.33 248.366 48.461 250.92 48.409 251.753 48.102 252.197 47.744 253.03 47.539 253.808 47.13 254.863 45.953 256.751 45.646 257.861 45.544 258.861 45.646 259.86 45.953 260.971 46.311 261.748 47.437 263.692 48 264.469 48.512 265.857 49.023 266.746 49.535 267.467 50.098 268.023 50.456 268.8"><title>2023-09-19 1.0km</title><desc>9876194288</desc></polyline><polyline fill="none" stroke="#4dd2ff" stroke-linecap="round" stroke-linejoin="round" stroke-width=".5" points="73.841 247.2 73.459 247.821 72.823 249.063 72.633 249.891 71.488 251.893 70.598 253.756 70.407 254.446 70.47 255.205 70.852 256.171 71.424 257.206 71.933 258.656 72.633 260.174 73.396 261.554 74.095 262.451 74.922 263.831 75.431 265.419 76.321 266.799 76.766 268.041 77.593 268.8"><title>2023-09-18 1.0km</title><desc>9870505463</desc></polyline><polyline fill="none" stroke="#4dd2ff" stroke-linecap="round" stroke-linejoin="round" stroke-width=".5" points="100.217 247.2 99.907 247.806 99.473 249.824 98.915 250.766 98.667 251.507 97.302 253.727 96.806 254.938 96.496 256.015 96.744 256.755 98.109 259.716 98.791 260.793 99.287 261.937 100.093 263.013 100.527 263.753 101.085 265.503 103.504 268.8"><title>2023-09-16 1.0km</title><desc>9856514700</desc></polyline><polyline fill="none" stroke="#4dd2ff" stroke-linecap="round" stroke-linejoin="round" stroke-width=".5" points="125.701 247.2 125.038 249.216 124.175 250.584 122.384 254.04 122.317 254.832 122.384 255.768 122.782 256.704 123.445 257.712 124.043 259.08 125.104 260.88 126.431 263.4 126.564 264.336 127.028 264.696 127.559 265.416 128.422 266.856 129.351 267.648 129.55 268.152 129.683 268.8"><title>2023-09-15 1.0km</title><desc>9850671982</desc></polyline><polyline fill="none" stroke="#4dd2ff" stroke-linecap="round" stroke-linejoin="round" stroke-width=".5" points="152.549 247.2 151.451 250.105 150.215 251.892 149.666 252.861 148.843 254.946 148.637 255.691 148.637 256.287 148.843 257.032 149.666 259.266 150.421 260.756 152.275 263.959 153.03 265.374 153.167 266.193 153.716 266.715 154.608 268.13 155.363 268.8"><title>2023-09-14 1.0km</title><desc>9844236351</desc></polyline><polyline fill="none" stroke="#4dd2ff" stroke-linecap="round" stroke-linejoin="round" stroke-width=".5" points="174.567 247.2 174.962 247.522 175.11 247.843 175.209 248.54 175.506 249.13 175.703 250.791 175.703 251.595 175.604 252.024 175.703 252.56 175.95 253.203 175.851 253.739 175.901 254.007 176.395 254.918 176.839 256.258 177.234 257.009 177.728 257.705 178.272 258.188 178.42 258.509 178.568 259.206 178.963 259.903 179.408 261.189 180 262.315 180.297 263.279 180.445 264.083 180.741 264.727 181.285 266.495 182.026 267.889 182.075 268.103 182.026 268.264 181.433 268.8 181.729 268.586 181.877 268.264 181.976 267.996 181.927 267.621 181.63 267.246 180.741 265.316 180.297 263.869 179.358 261.779 178.914 259.742 178.667 259.152 177.728 257.92 176.79 256.151 176.345 254.704 176.197 253.739 175.802 252.721 175.012 251.006 174.814 250.202 174.123 248.915 173.974 248.218 173.925 247.361"><title>2023-09-13 1.0km</title><desc>9837636972</desc></polyline></svg>