<?xml version="1.0" encoding="utf-8" ?>
<svg baseProfile="full" height="300mm" version="1.1" viewBox="0,0,200,300" width="200mm" xmlns="http://www.w3.org/2000/svg" xmlns:ev="http://www.w3.org/2001/xml-events" xmlns:xlink="http://www.w3.org/1999/xlink"><defs /><rect fill="#222222" height="300" width="200" x="0" y="0" /><text fill="#FFFFFF" style="font-size:12px; font-family:Arial; font-weight:bold;" x="10" y="20">Over 1km Runs</text><text fill="#FFFFFF" style="font-size:4px; font-family:Arial" x="10" y="280">ATHLETE</text><text fill="#FFFFFF" style="font-size:9px; font-family:Arial" x="10" y="290">Jiakai</text><text fill="#FFFFFF" style="font-size:4px; font-family:Arial" x="120" y="280">STATISTICS</text><text fill="#FFFFFF" style="font-size:3px; font-family:Arial" x="120" y="285">Number: 39</text><text fill="#FFFFFF" style="font-size:3px; font-family:Arial" x="120" y="290">Weekly: 5.6</text><text fill="#FFFFFF" style="font-size:3px; font-family:Arial" x="141" y="285">Total: 40.8 km</text><text fill="#FFFFFF" style="font-size:3px; font-family:Arial" x="141" y="290">Avg: 1.0 km</text><text fill="#FFFFFF" style="font-size:3px; font-family:Arial" x="167" y="285">Min: 1.0 km</text><text fill="#FFFFFF" style="font-size:3px; font-family:Arial" x="167" y="290">Max: 1.5 km</text><polyline fill="none" points="21.34079528041184,35.669135271338746 24.817039764486253,47.382385635282844 26.09776141680777,50.955909529468045 27.378483069129288,53.13972735963762 28.842164956964552,57.30882922117598 29.391045665368438,58.10294313239865 30.488807081244886,58.5 30.671767316758633,57.90441467636265 30.488807081244886,57.11030070716515 28.659204720519483,54.727957399562 25.914801181294024,49.963264477672055 22.621516932733357,40.23532365914434 20.42599410098046,36.66178557742387 19.32823268417269,31.5" stroke="#4dd2ff" stroke-linecap="round" stroke-linejoin="round" stroke-width="0.5"><title>2023-10-26 1.0km</title><desc>10104873905</desc></polyline><polyline fill="none" points="61.14768590871245,44.41307765478268 65.29478245787323,54.78262495691888 67.27817645855248,58.304348811507225 67.99941064044833,58.5 67.81910209544003,56.54348746663891 62.9507713643834,48.13046718318947 60.24614317994565,41.28264034097083 57.902132087387145,36.39132466586307 57.00058935955167,31.5" stroke="#4dd2ff" stroke-linecap="round" stroke-linejoin="round" stroke-width="0.5"><title>2023-10-25 1.0km</title><desc>10098978222</desc></polyline><polyline fill="none" points="95.00532038975507,31.5 94.82369567640126,32.87956863641739 95.91344395559281,37.41243201401085 97.36644166056067,40.36864313087426 98.27456522639841,43.9160921680741 99.90918764378875,48.64601691463031 103.36005719285458,55.34672935400158 104.44980547111481,58.10584137192927 104.81305489782244,58.5 105.17630432453007,58.30292069306597 104.99467961024493,55.7408883869648 102.99680776707828,51.99637522781268 101.54381006211042,49.828496797475964 99.72756293043494,45.68981492612511 99.36431350465864,43.52193139609881 97.18481694720685,40.17156249145046 95.91344395559281,37.21535115689039 95.55019452888519,33.66789325256832 95.00532038975507,31.5" stroke="#4dd2ff" stroke-linecap="round" stroke-linejoin="round" stroke-width="0.5"><title>2023-10-24 1.0km</title><desc>10092835699</desc></polyline><polyline fill="none" points="134.72532419674098,36.16189021081664 137.4104943284765,45.679890516679734 138.6635737232864,48.01082414062694 140.09566445928067,53.83814920345321 142.24380056466907,57.72302543837577 143.13885727524757,58.5 142.24380056466907,57.528781762113795 140.99072116985917,54.42088100290857 137.7685170127079,50.53599991230294 137.0524716442451,49.17629018146545 136.3364262757823,44.70866756676696 134.18829017039388,40.43528234469704 132.7561994343996,35.96764494967647 131.86114272475243,31.5" stroke="#4dd2ff" stroke-linecap="round" stroke-linejoin="round" stroke-width="0.5"><title>2023-10-23 1.0km</title><desc>10087395010</desc></polyline><polyline fill="none" points="166.2583675137721,31.629498378606513 166.73572628409602,31.5 170.13690752442926,31.758996738062706 171.62865368253551,32.14749170234427 171.98667276045308,32.341739120311104 172.76238076295704,32.924481116759125 173.29940937971696,33.57197177177295 174.492806305876,35.77343643736094 175.08950476930477,38.233890433155466 175.8652127715759,39.52886345918523 176.22323184926063,40.564840508799534 177.05860969773494,42.44254580512643 177.6553081611637,44.38499534671428 178.5503558558412,45.93895189516479 178.96804478019476,46.3921887052129 179.50507339718752,47.29866162565304 179.80342262866907,49.241100456158165 179.98243216751143,49.75908342085313 180.45979093806818,50.47130949964048 180.57913063117303,51.572021397645585 180.75814016978256,52.02525530860294 183.3836134080775,58.24101112637436 183.74163248599507,58.5 183.74163248599507,58.176263895933516 183.2046038690023,57.658285881974734 182.6079054060392,56.233844772563316 182.01120694261044,55.00364377879305 180.400121091865,50.01807478885166" stroke="#4dd2ff" stroke-linecap="round" stroke-linejoin="round" stroke-width="0.5"><title>2023-10-22 1.5km</title><desc>10080655811</desc></polyline><polyline fill="none" points="20.705585736548528,61.5 21.652883000439033,62.18528886185959 19.947747925296426,61.911173377535306 22.600180264329538,65.33761113631772 22.85279286815785,66.15995432407362 22.663333415519446,66.84523975942284 21.77918930235319,67.32493926456664 21.526576698524877,67.80463852267712 21.589729849714786,68.62697953346651 22.094955056905746,70.61430064769229 22.663333415519446,72.05339260253822 23.294864924857393,74.24629035609541 24.4316216413863,76.23359948891448 24.621081094257534,76.98740529286442 25.315765754552558,78.22090438427404 25.757837811252102,78.76912567886757 25.82099096174352,79.11176382406848 26.263063018675894,79.52292943227803 26.57882877299562,80.20820504275616 27.020900829927996,81.51022731454577 27.46297288639471,82.40108361048624 27.39981973543763,84.18279364804039 28.22081069741398,85.75891891930951 28.473423301242292,86.51271702011582 28.915495357476175,87.33504152559908 29.673333168961108,88.29441919847159 30.052252074470744,88.5 28.599729603156447,86.44418994517764 28.28396384860389,85.34775606211042 27.652432339033112,83.97721189440927 27.39981973543763,83.08635710488306 26.57882877299562,81.92139186465647 25.884144112933427,79.93409485905431" stroke="#4dd2ff" stroke-linecap="round" stroke-linejoin="round" stroke-width="0.5"><title>2023-10-20 1.4km</title><desc>10069668027</desc></polyline><polyline fill="none" points="57.067031372571364,61.5 57.19562234613113,62.54652593983337 58.224350133445114,65.05818348564208 58.48153208033182,66.5930820464855 60.60328314173967,71.75590443867259 60.79616960207932,72.45358098583529 60.924760575639084,73.50009484484326 61.18194252229296,74.1977701097494 62.725034203380346,76.36056017078226 63.56087553082034,78.03497489710571 64.07523942436092,79.7093866688665 64.52530783158727,80.61635847843718 64.78248977847397,82.01169803109951 65.10396721214056,82.70936703804182 65.93980853934772,84.87213770003291 66.06839951267466,85.70933792338474 67.29001376056112,88.22093416174175 67.61149119399488,88.5 67.8043776541017,88.5 67.93296862742864,88.43023354804609 67.86867314088158,88.36046709102811 66.5827634066809,86.7558371637715 66.0041040261276,84.8023709814297 64.78248977847397,82.56983327766648 64.58960331836715,81.66286333516473 64.46101234480739,80.1279891502927" stroke="#4dd2ff" stroke-linecap="round" stroke-linejoin="round" stroke-width="0.5"><title>2023-10-19 1.3km</title><desc>10064004415</desc></polyline><polyline fill="none" points="93.91170686017722,61.5 96.55879083368927,64.94682409497909 96.38231856934726,67.43619421566837 96.7352630989626,69.92556195752695 97.97056895401329,74.32982213282958 99.73529160209,77.20216171373613 101.50001425109804,82.18087615049444 105.02945955004543,87.92553482879885 105.5588763449341,88.5 106.08829313889146,88.30851162341423 103.79415369499475,86.01065000984818 99.55881933774799,77.77662924979813 98.49998574797064,74.13833271479234 95.49995724391192,67.81917402287945" stroke="#4dd2ff" stroke-linecap="round" stroke-linejoin="round" stroke-width="0.5"><title>2023-10-18 1.0km</title><desc>10058081424</desc></polyline><polyline fill="none" points="132.7873885538429,63.13637109496631 134.2954242164269,71.93184924288653 138.25401783175766,82.36365937138908 140.89308024197817,87.88636654615402 142.02410698961467,88.5 142.58962036296725,88.5 142.96662927884609,87.6818220319692 141.64709807466716,86.0454653725028 139.95055795367807,83.38638374954462 137.68850445840508,78.47730330657214 136.74598216917366,75.61366904852912 132.7873885538429,67.63638664479367 132.41037963796407,66.40911039849743 132.03337072208524,61.5" stroke="#4dd2ff" stroke-linecap="round" stroke-linejoin="round" stroke-width="0.5"><title>2023-10-17 1.0km</title><desc>10051702317</desc></polyline><polyline fill="none" points="168.9707556432113,62.12307983194478 170.88480147067457,65.44616994820535 173.75587021093816,72.9231084161438 175.28710687346756,75.83080136496574 177.00974811799824,81.2307946155779 179.1151985283941,86.63077754480764 179.88081685919315,88.08461733930744 180.83783977292478,88.5 181.02924435585737,88.29230867745355 180.83783977292478,87.6692346171476 178.73238936252892,84.55386225529946 175.86132062226534,77.4923388492316 173.75587021093816,73.13080086861737 172.0332289673388,65.03078389703296 171.07620605360717,61.5" stroke="#4dd2ff" stroke-linecap="round" stroke-linejoin="round" stroke-width="0.5"><title>2023-10-16 1.0km</title><desc>10046279660</desc></polyline><polyline fill="none" points="19.470534276217222,91.5 20.260457951575518,93.21429314976558 21.05038162600249,97.07144905114546 22.827709894627333,103.07145919674076 25.197480918839574,106.71431647357531 27.962213780730963,117.00000656116754 28.94961837399751,118.07143052481115 30.331984804943204,118.5 30.5294657247141,118.07143052481115 30.331984804943204,116.78572172136046 27.76473286189139,113.14287703181617 26.382366430945694,108.85717156808823 24.80251908209175,106.28574526542798 21.05038162600249,97.50002161413431 19.668015195056796,91.5" stroke="#4dd2ff" stroke-linecap="round" stroke-linejoin="round" stroke-width="0.5"><title>2023-10-15 1.0km</title><desc>10039610121</desc></polyline><polyline fill="none" points="56.8813481060788,93.45968570327386 57.48334652278572,99.77421970525756 59.08867563586682,104.34680488915183 61.09533702675253,107.17744932160713 62.29933386109769,111.09679868584499 65.71065822523087,117.19355405378155 66.5133227808401,118.06451808195561 67.51665347721428,118.5 68.1186518939212,118.06451808195561 68.1186518939212,117.41129508474842 64.10532911214978,114.1451779382769 61.496669304557145,109.354866275331 60.49333860911429,105.21777269500308 58.085344940423965,99.77421970525756 56.8813481060788,95.20162746263668 57.08201424591243,92.37097158376127 56.8813481060788,91.5" stroke="#4dd2ff" stroke-linecap="round" stroke-linejoin="round" stroke-width="0.5"><title>2023-10-14 1.0km</title><desc>10033377496</desc></polyline><polyline fill="none" points="93.87809242028743,91.92857338255271 97.43274843506515,96.21430373727344 97.82771021407098,99.4285973678343 101.18488533888012,109.7143131652847 104.3445795737207,117.2142913856078 105.33198402170092,118.5 106.12190758064389,118.5 106.12190758064389,117.85714576416649 105.92442669067532,117.2142913856078 104.1470986828208,115.92858220404014 102.17228978779167,112.28573644324206 100.00000000093132,105.42860266123898 96.05038220714778,96.64287642599083 95.45793953817338,93.64286628039554 94.47053508926183,91.5" stroke="#4dd2ff" stroke-linecap="round" stroke-linejoin="round" stroke-width="0.5"><title>2023-10-13 1.0km</title><desc>10028006924</desc></polyline><polyline fill="none" points="131.70672580506653,91.5 133.60615996737033,93.97329326206818 134.74582046456635,96.03436931292526 134.9357638815418,98.71376591431908 134.74582046456635,101.59926708275452 136.83519804291427,105.92751326714642 139.30446245428175,112.52292317361571 141.7737268647179,117.0572584841866 142.34355711378157,117.88168229884468 143.29327419400215,118.5 143.29327419400215,117.46947042178363 141.20389661658555,114.79009174578823 139.30446245428175,111.49239139887504 136.83519804291427,104.69087218213826 135.31565071363002,102.01148129324429 134.55587704852223,99.74430238734931" stroke="#4dd2ff" stroke-linecap="round" stroke-linejoin="round" stroke-width="0.5"><title>2023-10-12 1.0km</title><desc>10021974100</desc></polyline><polyline fill="none" points="171.84325277712196,95.328374392353 172.5860168300569,99.35823639691807 172.400325817056,100.97017953987233 174.07154493406415,106.4104806468822 175.3713820260018,108.82838878338225 176.67121911793947,113.26121482742019 178.52812924887985,117.69403370190412 178.89951127488166,118.09701688028872 179.8279663408175,118.5 179.6422753278166,117.69403370190412 177.59967418387532,112.4552469891496 175.3713820260018,108.6268965199124 172.400325817056,101.77615075535141 171.65756176412106,99.15674343751743 171.28617973811924,95.328374392353 170.1720336591825,91.5" stroke="#4dd2ff" stroke-linecap="round" stroke-linejoin="round" stroke-width="0.5"><title>2023-10-10 1.0km</title><desc>10009069592</desc></polyline><polyline fill="none" points="20.42599410098046,124.87501476355828 21.706715752370656,128.44855520920828 22.987437404692173,133.2132684479002 25.731840944848955,139.16914817341603 27.92736377660185,146.71324363560416 29.20808542892337,148.5 29.574005900882185,147.90441467636265 29.756966137327254,145.72060069977306 28.476244485005736,141.94855421641842 25.731840944848955,137.18385639088228 22.621516932733357,128.44855520920828 21.706715752370656,124.47795442165807 20.24303386360407,121.5" stroke="#4dd2ff" stroke-linecap="round" stroke-linejoin="round" stroke-width="0.5"><title>2023-10-09 1.0km</title><desc>10003389142</desc></polyline><polyline fill="none" points="57.002682130783796,121.5 58.35290055535734,123.17442605248652 59.70311897993088,126.31397224590182 60.474672365002334,132.59305424662307 63.36799755971879,138.87212239811197 65.87554606050253,145.98838289501145 67.03287613857538,148.08139730314724 67.9973178692162,148.5 67.9973178692162,146.82558884308673 64.33243929035962,140.9651420377195 59.51023063343018,129.24421223602258 57.58134717028588,121.70930331083946" stroke="#4dd2ff" stroke-linecap="round" stroke-linejoin="round" stroke-width="0.5"><title>2023-10-08 1.0km</title><desc>9996447828</desc></polyline><polyline fill="none" points="96.53421115130186,126.90002223243937 97.42287495918572,130.17860173550434 100.08886638097465,137.31431943108328 100.97753018885851,140.40002917940728 103.82125437259674,147.5357190708164 104.7099181804806,148.5 104.88765094149858,147.7285752852913 104.88765094149858,146.95715034380555 101.51072847377509,140.97859935299493 99.91113361995667,137.507176396437 97.06740943621844,129.02145649609156 96.17874562833458,124.58572835079394 95.11234905850142,121.5" stroke="#4dd2ff" stroke-linecap="round" stroke-linejoin="round" stroke-width="0.5"><title>2023-10-07 1.0km</title><desc>9989974159</desc></polyline><polyline fill="none" points="135.29409733694047,129.5425824597478 136.7058750409633,134.138332715258 137.76470831874758,136.43620480247773 139.88237487524748,145.43618429102935 140.41179151460528,147.15958107053302 141.4706247933209,148.5 142.3529858579859,148.5 142.70593028329313,147.73404641030356 142.52945807110518,147.15958107053302 140.41179151460528,144.0957637843676 138.29412495810539,139.50003109802492 137.58823610655963,136.43620480247773 133.88231963291764,127.43619421636686 133.35290299355984,124.18086357903667 132.29406971577555,121.5" stroke="#4dd2ff" stroke-linecap="round" stroke-linejoin="round" stroke-width="0.5"><title>2023-10-06 1.0km</title><desc>9984428862</desc></polyline><polyline fill="none" points="169.1872590482235,121.5 172.24659639131278,129.68855017540045 174.2861546203494,136.54921020008624 177.75340360961854,145.18034092569724 179.18109436891973,148.05737900245003 179.79296183772385,148.5 180.60878513008356,148.5 180.8127409517765,148.05737900245003 180.20087348297238,146.95082622091286 177.75340360961854,143.40985458972864 176.32571284938604,140.53281207149848 173.87824297416955,134.1147842395585 172.8584638601169,130.79510930157267 170.00308233965188,125.48362178634852 170.00308233965188,123.49181155208498" stroke="#4dd2ff" stroke-linecap="round" stroke-linejoin="round" stroke-width="0.5"><title>2023-10-04 1.0km</title><desc>9971682885</desc></polyline><polyline fill="none" points="20.913444256410003,154.65329869673587 21.821567754261196,157.80659368471242 22.72969125304371,159.9744818371255 23.456190052442253,163.324850987643 26.907059347257018,170.22265664255247 27.088684047572315,172.58761449554004 28.178432245738804,177.317523942329 28.541681645438075,177.90876203635707 29.631429843604565,178.5 29.631429843604565,176.52920628082938 27.27030874788761,172.19345499831252 25.635686449706554,168.4489368838258 24.72756295092404,166.67521595116705 23.8194394512102,164.1131725325249 22.003192454576492,160.36864313133992 21.27669365517795,157.41243201401085 20.913444256410003,154.45621763705276 20.368570156395435,151.5" stroke="#4dd2ff" stroke-linecap="round" stroke-linejoin="round" stroke-width="0.5"><title>2023-10-03 1.0km</title><desc>9965060084</desc></polyline><polyline fill="none" points="57.564607836306095,152.61570723657496 60.03230391815305,160.64878723444417 60.443586599081755,164.2190381870605 61.88307597953826,166.0041620878037 62.91128268092871,168.68184597115032 64.7620547413826,175.5991850697901 66.20154412277043,177.83058141567744 67.22975082322955,178.5 67.4353921636939,178.27686048811302 66.81846814323217,176.49174380488694 64.55641340184957,172.25208747433499 60.85486927814782,163.32647584215738 58.59281453676522,156.63224989292212 58.18153185676783,151.5" stroke="#4dd2ff" stroke-linecap="round" stroke-linejoin="round" stroke-width="0.5"><title>2023-10-02 1.0km</title><desc>9958643020</desc></polyline><polyline fill="none" points="95.72019305825233,156.25201799208298 96.11831463407725,158.1960231375415 100.49765197001398,168.56402885355055 102.687320638448,175.2600131004583 103.88168536685407,177.63600384257734 105.0760500933975,178.5 105.27511088270694,178.28400098439306 105.0760500933975,177.42000476364046 101.09483433328569,171.37202410562895 97.31267936248332,162.08402956835926 95.52113226987422,156.4680186274927 94.72488911822438,151.5" stroke="#4dd2ff" stroke-linecap="round" stroke-linejoin="round" stroke-width="0.5"><title>2023-10-01 1.0km</title><desc>9952075403</desc></polyline><polyline fill="none" points="133.62336484435946,155.41306045162492 135.24614235199988,158.7391573113855 135.96737679839134,162.0652500144206 136.50830263458192,165.19568640808575 139.21293181274086,172.82610969012603 141.55694376770407,177.71739515918307 142.6387954382226,178.5 142.99941266234964,177.9130463907495 139.3932404248044,172.43480646470562 137.7704629180953,168.71742294891737 137.22953708283603,166.76090322365053 134.7052165158093,161.282640340738 133.26274762116373,155.2174075653311 132.00058733765036,151.5" stroke="#4dd2ff" stroke-linecap="round" stroke-linejoin="round" stroke-width="0.5"><title>2023-09-30 1.0km</title><desc>9945549317</desc></polyline><polyline fill="none" points="170.819725911133,151.5 172.61127194948494,154.52401233883575 173.20845396257937,156.90001985034905 174.80093932896852,160.788027996663 175.59718201402575,166.62003056914546 176.19436402618885,168.34802910801955 178.58309207763523,174.18001667386852 179.18027408979833,177.8520029061474 179.57839543186128,178.2840009846259 180.1755774449557,178.5 180.37463811598718,178.06800195295364 176.79154603928328,171.58802362973802 174.4028179878369,165.97203085501678 173.60657530464232,162.73203014023602 170.819725911133,156.25201799278148 169.62536188494414,152.36400384292938" stroke="#4dd2ff" stroke-linecap="round" stroke-linejoin="round" stroke-width="0.5"><title>2023-09-28 1.0km</title><desc>9933629332</desc></polyline><polyline fill="none" points="19.721871298737824,184.56819501379505 21.22990807145834,189.88639168953523 24.057477017864585,193.77275975467637 25.942522982135415,200.72729958500713 28.581587332300842,205.43183137779124 29.33560571912676,208.09091104590334 30.089624104090035,208.5 30.466633298434317,207.8863665459212 30.089624104090035,207.06818839721382 28.581587332300842,205.02274197200313 24.245981614105403,196.2273052087985 21.983926456421614,190.09093751222827 19.533366702497005,181.5" stroke="#4dd2ff" stroke-linecap="round" stroke-linejoin="round" stroke-width="0.5"><title>2023-09-27 1.0km</title><desc>9927137811</desc></polyline><polyline fill="none" points="64.74298205017112,181.5 64.20466635818593,184.09618973411852 63.66635066620074,185.5889953733422 63.247660683467984,187.40632057009498 60.79533364181407,192.5337536331499 59.539263694081455,194.67558394157095 59.30001227511093,195.5842376536457 59.41963798436336,196.29817920009373 59.71870225784369,197.33663860021625 60.615895077819005,199.54336076957406 60.91495935129933,200.12749218509998 61.27383647928946,201.16594708053162 62.47009357251227,202.65872385265538 63.00840926473029,203.8269821741269 63.60653781169094,204.7356264666305 64.0850406489335,206.03368811903056 64.80279490514658,207.0072331057745 65.6999877251219,208.5" stroke="#4dd2ff" stroke-linecap="round" stroke-linejoin="round" stroke-width="0.5"><title>2023-09-26 1.0km</title><desc>9920397094</desc></polyline><polyline fill="none" points="99.87390754465014,181.5 98.6970446286723,185.4223337789299 97.52018171316013,187.52032117464114 96.4273804333061,188.8885719126556 95.83894897578284,189.98317141644657 95.58676406508312,191.07776995445602 95.67082570167258,192.44601676869206 96.09113388648257,193.5406131336931 97.09987352835014,195.09128966438584 97.52018171316013,196.64196425664704 98.36079808138311,198.64871673414018 99.95796918170527,200.65546596597414 102.64794156095013,206.12840191822033 104.41323593491688,208.5" stroke="#4dd2ff" stroke-linecap="round" stroke-linejoin="round" stroke-width="0.5"><title>2023-09-25 1.0km</title><desc>9914573673</desc></polyline><polyline fill="none" points="139.49057334009558,181.5 138.8270488937851,182.50801337813027 138.69434400415048,183.012019678019 138.8270488937851,183.6600273968652 138.89340133825317,184.30803468660451 137.5663524447009,186.75605835590977 137.2345902211964,188.412070897175 136.7701231087558,189.63607836677693 133.98332043224946,194.53209294530097 133.91696798754856,195.1080930508324 134.18237776588649,196.26009224599693 134.91225465759635,197.4120900858543 135.31036932580173,198.42008708399953 135.90754132764414,199.4280830444768 136.23930355114862,200.43607796734432 137.10188533202745,201.80406941764522 137.76540977857076,203.1720589569304 138.49528667051345,203.964052027266 138.69434400415048,204.6840451717144 139.15881111705676,205.2600393060129 140.15409778733738,206.98801967676263 140.88397467858158,207.78000966098625 141.08303201268427,208.5" stroke="#4dd2ff" stroke-linecap="round" stroke-linejoin="round" stroke-width="0.5"><title>2023-09-24 1.0km</title><desc>9907510217</desc></polyline><polyline fill="none" points="176.00656214216724,181.5 175.44288734253496,182.37379601283465 175.04026248585433,183.2475913829403 174.79868757212535,184.38352440390736 174.7181626004167,185.86897363874596 173.34923808695748,187.70393777731806 172.54398837359622,189.80103618034627 171.81926363147795,190.84958399401512 171.33611380308867,192.2476463066414 171.25558883138,193.73308571160305 172.94661323027685,198.0146359608043 173.59081300115213,199.32531152490992 175.6844622567296,202.64568315108772 176.57023694179952,204.83013310923707 177.69758654106408,206.22817897505593 178.34178631193936,207.36409003043082 178.74441116908565,208.5" stroke="#4dd2ff" stroke-linecap="round" stroke-linejoin="round" stroke-width="0.5"><title>2023-09-23 1.0km</title><desc>9901004991</desc></polyline><polyline fill="none" points="26.036759578622878,211.5 25.49918053811416,212.50001147040166 24.961601497605443,214.2500294201309 23.732849405147135,216.8333843119908 22.504097312688828,218.58339557045838 21.428939231671393,221.50007499643834 21.352142225485295,223.08341211284278 21.50573623785749,224.0000799590489 23.041676353197545,227.66674392909044 23.272067370358855,228.75007419561734 23.5792553932406,229.3334054487059 24.654413474258035,230.66673290001927 25.49918053811416,232.3333900080761 26.19035359006375,234.08337733428925 27.342308676801622,235.75002941855928 28.647857774980366,238.5" stroke="#4dd2ff" stroke-linecap="round" stroke-linejoin="round" stroke-width="0.5"><title>2023-09-22 1.0km</title><desc>9895405405</desc></polyline><polyline fill="none" points="63.93127718381584,211.5 63.711080694105476,212.29646981041878 63.270687714684755,212.77435141563183 62.3165029254742,214.5265821639914 61.94950877595693,215.80093001882778 60.848526326939464,218.58856072451454 59.674145048018545,220.97795276233228 58.94015674851835,222.73017024050932 58.71996025880799,223.60627791646402 58.71996025880799,224.1638006141875 58.94015674851835,224.96026111306855 59.38054972840473,225.75672102649696 60.33473451761529,228.22574303630972 61.288919306360185,229.97794879041612 61.80271111568436,231.2522784678731 62.75689590489492,232.8451884566457 63.34408654412255,233.5619971874985 63.78447952400893,234.83632264879998 64.95886080292985,236.90709832619177 66.28003974119201,238.5" stroke="#4dd2ff" stroke-linecap="round" stroke-linejoin="round" stroke-width="0.5"><title>2023-09-21 1.0km</title><desc>9889267953</desc></polyline><polyline fill="none" points="102.74893571832217,211.5 101.78539123968221,214.3907022520434 101.2186003702227,216.6663544435287 100.3117349781096,218.57297718862537 99.23483232571743,221.77117332391208 97.3644224551972,225.2768742701155 96.85431067249738,227.18347738828743 96.91098975925706,227.61400007159682 97.25106428121217,228.5365479324828 97.98789241211489,230.13562848127913 98.44132510805503,231.4886942502926 99.57490684767254,233.08776915556518 100.25505589158274,234.37932742462726 100.6518095000647,235.30186782439705 101.10524219577201,236.10140201455215 101.84207032690756,236.65492523700232 102.74893571832217,238.00798046117416 102.80561480554752,238.25399026670493 103.14568932750262,238.5" stroke="#4dd2ff" stroke-linecap="round" stroke-linejoin="round" stroke-width="0.5"><title>2023-09-20 1.0km</title><desc>9882714971</desc></polyline><polyline fill="none" points="139.73875454021618,211.5 139.16307480144314,212.95760326780146 138.07567973900586,216.15044065576512 138.01171532343142,217.19158094731392 137.62792883068323,217.74685529997805 137.18017792282626,218.7879938307451 136.9243202607613,219.75972209015163 136.4126049373299,221.0784945563646 134.94142338237725,223.4383985819295 134.55763688962907,224.82657466462115 134.42970805894583,226.07593139371602 134.55763688962907,227.32528646918945 134.94142338237725,228.71345683612162 135.3891742900014,229.68517487851204 136.79639142984524,232.11446560826153 137.5,233.08618014963577 138.13964415411465,234.8213822004036 138.77928830869496,235.9319098389824 139.4189324628096,236.83421258348972 140.12254103273153,237.52829103090335 140.57029194105417,238.5" stroke="#4dd2ff" stroke-linecap="round" stroke-linejoin="round" stroke-width="0.5"><title>2023-09-19 1.0km</title><desc>9876194288</desc></polyline><polyline fill="none" points="174.80125993303955,211.5 174.32428377168253,212.27636650414206 173.52932350384071,213.82909797120374 173.29083542292938,214.8642511406215 171.85990693978965,217.3658675296465 170.74696256406605,219.69495385535993 170.50847448362038,220.5575772470329 170.58797051059082,221.50646224501543 171.06494667194784,222.7141329512233 171.78041091328487,224.0080644710688 172.41637912811711,225.81956620130222 173.29083542292938,227.71732691884972 174.24478774517775,229.44256127101835 175.11924404045567,230.56396223965567 176.15269238920882,232.28919240599498 176.7886606035754,234.27320396108553 177.90160497976467,235.99842867336702 178.45807716762647,237.5511287454283 179.49152551637962,238.5" stroke="#4dd2ff" stroke-linecap="round" stroke-linejoin="round" stroke-width="0.5"><title>2023-09-18 1.0km</title><desc>9870505463</desc></polyline><polyline fill="none" points="25.271301601547748,241.5 24.883727884851396,242.2570180289331 24.34112468129024,244.78040784032783 23.643491991329938,245.95798784750514 23.333433017600328,246.88322843116475 21.628108663950115,249.6589456924121 21.007990716956556,251.1729704508325 20.620417000260204,252.51876855356386 20.930475973524153,253.4440038310131 22.635800327174366,257.14493745734217 23.488462504465133,258.4907285349327 24.10858045099303,259.9206298200297 25.116272114682943,261.2664176323451 25.65887531870976,262.1916458348278 26.356508008670062,264.37854588468326 29.379582999274135,268.5" stroke="#4dd2ff" stroke-linecap="round" stroke-linejoin="round" stroke-width="0.5"><title>2023-09-16 1.0km</title><desc>9856514700</desc></polyline><polyline fill="none" points="62.126766085624695,241.5 61.297357386443764,244.02002519892994 60.21912607783452,245.73003934358712 57.9797225901857,250.05006443581078 57.89678171975538,251.0400680389721 57.9797225901857,252.21007126464974 58.477367809507996,253.3800733720418 59.30677650868893,254.64007439091802 60.0532443379052,256.3500736991409 61.38029825640842,258.6000691493973 63.039115655235946,261.75005583208986 63.2049973946996,262.9200488211354 63.78558348398656,263.3700458268868 64.44911044370383,264.27003934187815 65.52734175231308,266.07002438721247 66.68851393088698,267.06001503393054 66.93733654078096,267.69000866496935 67.10321828071028,268.5" stroke="#4dd2ff" stroke-linecap="round" stroke-linejoin="round" stroke-width="0.5"><title>2023-09-15 1.0km</title><desc>9850671982</desc></polyline><polyline fill="none" points="100.68640634138137,241.5 99.31359365861863,245.13106798846275 97.76917939027771,247.3655661904486 97.082773049362,248.57591773686 96.05316353728995,251.18282483052462 95.79576115915552,252.11386177758686 95.79576115915552,252.85869084193837 96.05316353728995,253.78972655686084 97.082773049362,256.58282959414646 98.02658176841214,258.4448948628269 100.34320317115635,262.44832591875456 101.28701189020649,264.21727979544085 101.458613475319,265.2414098577574 102.14501981670037,265.89312855689786 103.26043012179434,267.662077621324 104.20423884084448,268.5" stroke="#4dd2ff" stroke-linecap="round" stroke-linejoin="round" stroke-width="0.5"><title>2023-09-14 1.0km</title><desc>9844236351</desc></polyline><polyline fill="none" points="133.20887012802996,241.5 133.70281313476153,241.90199097857112 133.88804176240228,242.3039817797835 134.01152751408517,243.1749612404965 134.38198476913385,243.91194321104558 134.62895627273247,245.98888919339515 134.62895627273247,246.99386135616805 134.50547052081674,247.52984605642268 134.62895627273247,248.1998264885624 134.93767065182328,249.00380235683406 134.81418490037322,249.67378170514712 134.87592777609825,250.00877119449433 135.49335653474554,251.14773453748785 136.04904241743498,252.8226780439727 136.54298542416655,253.76064506283728 137.16041418281384,254.63161357294302 137.83958581718616,255.23459128447575 138.02481444459409,255.6365762039204 138.21004307223484,256.5075429211138 138.70398607919924,257.378508805763 139.25967196188867,258.9864436365897 140.00058647198603,260.3933842863189 140.3710437270347,261.59933168569114 140.55627235467546,262.604286632617 140.92672960995696,263.40824979246827 141.6059012443293,265.6191448243917 142.53204438230023,267.36105834465707 142.5937872582581,267.62904474453535 142.53204438230023,267.8300344927702 141.79112987197004,268.5 142.16158712701872,268.2320138561772 142.34681575465947,267.8300344927702 142.47030150610954,267.4950515545206 142.40855863061734,267.0260752339964 142.03810137556866,266.55709867202677 140.92672960995696,264.14521539898124 140.3710437270347,262.33629875513725 139.1979290859308,259.7234128191485 138.64224320324138,257.17751675244654 138.33352882415056,256.44054551096633 137.16041418281384,254.8996037162142 135.9872995414771,252.6886826767004 135.43161365855485,250.87974329077406 135.2463850316126,249.67378170514712 134.75244202418253,248.40082052216167 133.7645560107194,246.25688187853666 133.51758450712077,245.25190890283557 132.6531842451077,243.6439498362015 132.46795561769977,242.7729708236875 132.4062127417419,241.70099551149178" stroke="#4dd2ff" stroke-linecap="round" stroke-linejoin="round" stroke-width="0.5"><title>2023-09-13 1.0km</title><desc>9837636972</desc></polyline></svg>