<?xml version="1.0" encoding="utf-8" ?>
<svg baseProfile="full" height="300mm" version="1.1" viewBox="0,0,200,300" width="200mm" xmlns="http://www.w3.org/2000/svg" xmlns:ev="http://www.w3.org/2001/xml-events" xmlns:xlink="http://www.w3.org/1999/xlink"><defs /><rect fill="#222222" height="300" width="200" x="0" y="0" /><text fill="#FFFFFF" style="font-size:12px; font-family:Arial; font-weight:bold;" x="10" y="20">Over 1km Runs</text><text fill="#FFFFFF" style="font-size:4px; font-family:Arial" x="10" y="280">ATHLETE</text><text fill="#FFFFFF" style="font-size:9px; font-family:Arial" x="10" y="290">Jiakai</text><text fill="#FFFFFF" style="font-size:4px; font-family:Arial" x="120" y="280">STATISTICS</text><text fill="#FFFFFF" style="font-size:3px; font-family:Arial" x="120" y="285">Number: 52</text><text fill="#FFFFFF" style="font-size:3px; font-family:Arial" x="120" y="290">Weekly: 5.8</text><text fill="#FFFFFF" style="font-size:3px; font-family:Arial" x="141" y="285">Total: 54.2 km</text><text fill="#FFFFFF" style="font-size:3px; font-family:Arial" x="141" y="290">Avg: 1.0 km</text><text fill="#FFFFFF" style="font-size:3px; font-family:Arial" x="167" y="285">Min: 1.0 km</text><text fill="#FFFFFF" style="font-size:3px; font-family:Arial" x="167" y="290">Max: 1.5 km</text><polyline fill="none" points="21.102144425734878,34.912293462781236 23.818374400027096,43.122832152759656 26.340587948448956,49.85966682899743 27.504686508327723,54.28070597210899 28.28075221553445,55.33333333325572 28.66878506913781,54.91228243499063 28.086735788732767,52.38597574620508 25.176489387638867,45.85967315128073 22.266242986544967,39.754408871755004 18.38591445144266,33.64913157559931 17.997881596907973,31.333333333255723" stroke="#4dd2ff" stroke-linecap="round" stroke-linejoin="round" stroke-width="0.5"><title>2023-11-10 1.0km</title><desc>10191120477</desc></polyline><polyline fill="none" points="48.42832768615335,32.066161181544885 51.29858312103897,34.26464343466796 52.98696867097169,37.195950087858364 53.49348433595151,38.295189193915576 53.49348433595151,39.944046943914145 55.350708439946175,45.62343750917353 56.02606265991926,48.92114222049713 57.37677109986544,52.5852534477599 57.71444820892066,54.417307041352615 58.55864098388702,55.33333333325572 59.06515664886683,55.15012810193002 59.57167231384665,54.417307041352615 57.71444820892066,53.13486966746859 54.67535421997309,48.737936517456546 51.1297445660457,39.02801499539055 50.28555179107934,33.531816232483834 49.44135901611298,31.333333333255723" stroke="#4dd2ff" stroke-linecap="round" stroke-linejoin="round" stroke-width="0.5"><title>2023-11-09 1.0km</title><desc>10185506531</desc></polyline><polyline fill="none" points="79.98478930443525,33.26034955796786 81.76067382190377,36.764011427992955 82.40645000897348,38.515840431209654 84.50522262044251,43.07058981247246 85.31244285497814,46.22387274494395 85.15099880844355,44.296867003897205 85.47388690244406,45.523143564816564 86.11966308951378,50.25306153064594 87.57265951298177,54.63260683231056 88.21843570098281,55.33333333325572 89.02565593551844,54.982970108045265 89.34854402951896,54.45742517453618 87.57265951298177,52.88078967761248 86.2811071369797,50.77860739198513 85.47388690244406,48.501241156831384 84.34377857297659,44.64723180048168 82.72933810390532,42.36985970498063 80.95345358643681,38.515840431209654 80.46912144497037,35.71291340794414 80.63056549243629,32.20924999238923 80.30767739843577,31.333333333255723" stroke="#4dd2ff" stroke-linecap="round" stroke-linejoin="round" stroke-width="0.5"><title>2023-11-08 1.0km</title><desc>10179505859</desc></polyline><polyline fill="none" points="114.25064102280885,44.592105784337036 119.66410257667303,55.33333333337214 119.973443236202,55.16550204181112 119.20009158551693,53.3193570174044 117.8080586148426,50.96971573645715 116.88003663439304,48.62007203756366 115.0239926725626,46.60608979931567 114.40531135350466,45.43126600631513 113.94130036234856,41.40329412650317 113.63195970281959,40.22846765618306 111.77591574098915,37.039649903192185 110.6932234307751,31.33333333337214" stroke="#4dd2ff" stroke-linecap="round" stroke-linejoin="round" stroke-width="0.5"><title>2023-11-06 1.0km</title><desc>10167691585</desc></polyline><polyline fill="none" points="143.6927416836843,38.06717103580013 144.80659052636474,40.13911721413024 148.94374336767942,49.63551380787976 150.6940772626549,54.98801133129746 151.01231978833675,55.33333333325572 151.33056231494993,55.33333333325572 151.33056231494993,54.815350311109796 150.05759220942855,52.052772264694795 148.94374336767942,50.49882068531588 148.7846221048385,49.63551380787976 147.82989452593029,48.599545136559755 145.1248330520466,43.937680459348485 141.94240778964013,35.82256061350927 140.66943768505007,31.333333333255723" stroke="#4dd2ff" stroke-linecap="round" stroke-linejoin="round" stroke-width="0.5"><title>2023-11-05 1.1km</title><desc>10161301187</desc></polyline><polyline fill="none" points="172.17898664996028,31.333333333255723 175.38447237573564,38.463793540606275 176.82694095280021,44.72466770885512 179.0707809617743,49.072487242752686 179.8721523936838,52.550737116718665 180.67352382466197,55.33333333325572 181.15434668399394,54.811596791958436 180.9940723972395,54.28986013564281 178.91050667501986,50.46378780622035 178.75023238826543,49.94205019087531 176.82694095280021,46.98553486401215 176.0255695208907,44.20292882760987 173.9420037996024,40.376840183278546 173.46118094027042,37.07248591980897 172.49953522253782,33.594213287346065" stroke="#4dd2ff" stroke-linecap="round" stroke-linejoin="round" stroke-width="0.5"><title>2023-11-04 1.0km</title><desc>10155501797</desc></polyline><polyline fill="none" points="29.772341344039887,61.64558758435305 27.95262168860063,59.21519657666795 26.832794208545238,58.45569880004041 24.593139248434454,58.0 22.49346272321418,58.151899611460976 19.55391558725387,59.518995608901605 18.294109672307968,60.73419129184913 17.174282192252576,63.01268126943614 16.89432532247156,64.83547144208569 16.474390017334372,70.91142706514802 16.75434688711539,77.2911612316966 17.034303757362068,78.20255021844059 18.434088107664138,80.48102092521731 20.113829328212887,81.69620427442715 22.913398028351367,82.0 25.43300985870883,80.9367147651501 27.812643254175782,78.05065208196174 28.512535429093987,76.6835683506215 29.49238447425887,72.27851461677346 29.49238447425887,68.78484463004861 30.192276649177074,64.22787489637267 30.052298214286566,62.556983474991284 28.512535429093987,60.73419129184913 27.252729513682425,59.82279459654819 24.313182378187776,58.45569880004041 22.773419592995197,58.45569880004041 19.413937153294683,59.518995608901605 17.874174367636442,60.88609070179518 16.89432532247156,62.70888275082689 16.61436845222488,63.92407655692659 16.89432532247156,68.93674344825558 16.61436845222488,71.21522437687963" stroke="#4dd2ff" stroke-linecap="round" stroke-linejoin="round" stroke-width="0.5"><title>2023-11-03 1.0km</title><desc>10152446508</desc></polyline><polyline fill="none" points="49.032853189855814,58.0 50.34492970537394,60.847468513064086 51.469566718675196,65.93222642457113 53.3439617427066,69.59324633446522 56.15555427502841,76.91527161956765 56.71787278261036,78.13560728332959 57.655070293694735,81.38983308756724 58.217388801276684,82.0 58.967146810144186,82.0 58.967146810144186,81.59322207327932 57.655070293694735,80.9830550714396 57.09275178704411,79.55933154374361 55.78067527152598,78.33899650815874 54.8434777604416,75.69493541796692 53.53140124399215,73.6610405521933 52.031885226257145,70.6101954493206 50.34492970537394,64.30510490969755 49.22029269114137,61.66103040683083" stroke="#4dd2ff" stroke-linecap="round" stroke-linejoin="round" stroke-width="0.5"><title>2023-11-02 1.1km</title><desc>10144903556</desc></polyline><polyline fill="none" points="80.57967206649482,59.73913861718029 80.90022066235542,61.65218962007202 82.18241504672915,64.60871994472109 84.426255219616,72.60872464999557 88.27283837459981,80.60870230058208 89.39475846104324,82.0 88.75366126932204,79.91305314423516 86.34954679757357,76.2608917162288 85.06735241319984,71.56524730962701 83.4646094320342,69.30437816050835 81.54131785407662,65.13046020688489 79.93857487291098,58.0" stroke="#4dd2ff" stroke-linecap="round" stroke-linejoin="round" stroke-width="0.5"><title>2023-11-01 1.0km</title><desc>10138966680</desc></polyline><polyline fill="none" points="111.84104163106531,58.36090399394743 112.6725396560505,61.06768225389533 114.00293649546802,68.2857430211734 116.16483135800809,72.97747113718651 117.49522819649428,77.30828913021833 119.65712305996567,82.0 119.82342266477644,81.81954974750988 118.32672622147948,79.65414568618871 116.16483135800809,74.60152877983637 114.33553570415825,71.35341241932474 111.17584321275353,61.78948928578757 110.84324400220066,58.0" stroke="#4dd2ff" stroke-linecap="round" stroke-linejoin="round" stroke-width="0.5"><title>2023-10-31 1.0km</title><desc>10133123337</desc></polyline><polyline fill="none" points="142.23177441582084,60.84445688710548 143.05095389019698,65.11113594425842 143.05095389019698,66.7111386496108 144.85314873512834,69.73336309357546 149.76822558417916,80.22223039111122 150.58740505948663,81.82222309778444 150.91507684905082,82.0 147.14685126487166,74.53335885866545 145.50849231518805,69.91114088450558 143.7062974702567,66.17780453222804 141.08492315094918,58.0" stroke="#4dd2ff" stroke-linecap="round" stroke-linejoin="round" stroke-width="0.5"><title>2023-10-30 1.0km</title><desc>10127985445</desc></polyline><polyline fill="none" points="172.883351074066,61.47370080999099 173.61091176467016,66.36845150659792 174.04744817921892,67.9474009644473 176.95769094349816,74.73687040584628 178.41281232517213,78.68422649335116 180.59549439838156,81.68421226751525 181.17754295188934,82.0 181.3230550889857,81.52631838375237 180.0134458458051,79.47369683999568 178.12178804911673,75.36844786733855 174.77500887028873,69.21055969514418 173.4653996261768,64.63160576228984 172.44681465858594,62.57896807184443 172.30130252055824,59.421060101361945 172.01027824450284,58.0" stroke="#4dd2ff" stroke-linecap="round" stroke-linejoin="round" stroke-width="0.5"><title>2023-10-28 1.0km</title><desc>10115543824</desc></polyline><polyline fill="none" points="20.220450871624053,89.64446402341127 21.53113822452724,93.91113931615837 23.005661495029926,97.2889185838867 24.316348847933114,102.08891258458607 26.282379877753556,106.71112002525479 27.10155947227031,108.48888976522721 27.920739067718387,108.66666666674428 28.08457498718053,108.48888976522721 27.756903148256242,107.42222807789221 26.773887634277344,104.7555718019139 23.49716925341636,98.3555847411044 20.875794547609985,91.24446814064868 19.23743535671383,87.6889019983355 18.5820916807279,84.66666666674428" stroke="#4dd2ff" stroke-linecap="round" stroke-linejoin="round" stroke-width="0.5"><title>2023-10-27 1.0km</title><desc>10110442644</desc></polyline><polyline fill="none" points="50.74737358279526,88.37256468576379 53.83736868016422,98.7843427869957 54.97578792646527,101.96080847084522 56.11420717276633,103.90197987528518 57.41525773983449,107.6078481967561 57.903151703067124,108.31372722890228 58.878939628601074,108.66666666674428 59.041570948436856,108.13725749030709 58.878939628601074,107.4313784064725 57.25262641813606,105.31373991095461 54.81315660569817,101.07845731358975 51.88579282909632,92.43139880825765 49.93421697802842,89.25492051360197 48.958429052494466,84.66666666674428" stroke="#4dd2ff" stroke-linecap="round" stroke-linejoin="round" stroke-width="0.5"><title>2023-10-26 1.0km</title><desc>10104873905</desc></polyline><polyline fill="none" points="83.4646096965298,96.14495791541412 87.1509177396074,105.36233329516836 88.91393463034183,108.49275449919514 89.555031680502,108.66666666674428 89.39475741889328,106.92754441476427 85.06735232379287,99.4493041629903 82.66323838289827,93.36234696977772 80.57967296708375,89.0145108141005 79.77830165345222,84.66666666674428" stroke="#4dd2ff" stroke-linecap="round" stroke-linejoin="round" stroke-width="0.5"><title>2023-10-25 1.0km</title><desc>10098978222</desc></polyline><polyline fill="none" points="110.89361812360585,84.66666666674428 110.7321739345789,85.8929498991929 111.70083907153457,89.9221617905423 112.99239258747548,92.54990500560962 113.79961353354156,95.70319303846918 115.25261123850942,99.90757059096359 118.32005083747208,105.8637594259344 119.28871597442776,108.31630344199948 119.61160435341299,108.66666666674428 119.93449273239821,108.4914850606583 119.77304854243994,106.2141230108682 117.99716245941818,102.88566686934792 116.70560894347727,100.95866382028908 115.09116704855114,97.2798354900442 114.76827867049724,95.35282790777273 112.8309483975172,92.37472221488133 111.70083907153457,89.74697880633175 111.37795069254935,86.59368289145641 110.89361812360585,84.66666666674428" stroke="#4dd2ff" stroke-linecap="round" stroke-linejoin="round" stroke-width="0.5"><title>2023-10-24 1.0km</title><desc>10092835699</desc></polyline><polyline fill="none" points="143.53362150862813,88.8105690763332 145.92043940350413,97.27101379283704 147.03428775444627,99.34295479184948 148.3072572974488,104.52279929211363 150.21671161334962,107.97602261207066 151.01231757830828,108.66666666674428 150.21671161334962,107.80336156650446 149.10286326240748,105.04078311379999 146.2386817894876,101.58755547762848 145.60219701752067,100.37892460590228 144.96571224555373,96.40770450374112 143.05625792965293,92.60913986200467 141.78328838665038,88.6379066221416 140.98768242169172,84.66666666674428" stroke="#4dd2ff" stroke-linecap="round" stroke-linejoin="round" stroke-width="0.5"><title>2023-10-23 1.0km</title><desc>10087395010</desc></polyline><polyline fill="none" points="168.89632667903788,84.7817763366038 169.32064558612183,84.66666666668607 172.3439177996479,84.89688598946668 173.66991438460536,85.24221484659938 173.98815356497653,85.41487921809312 174.6776717894245,85.93287210387643 175.1550305597484,86.50841935275821 176.21582782757469,88.4652768332744 176.74622646183707,90.65234705177136 177.4357446860522,91.80343418597477 177.75398386619054,92.72430267452728 178.49654195364565,94.39337404910475 179.02694058790803,96.11999586381717 179.82253853883594,97.50129057350568 180.19381758244708,97.90416773804463 180.67117635323666,98.70992144505726 180.93637567013502,100.436533738859 181.0954952603206,100.89696304081008 181.51981416740455,101.5300528886728 181.62589389435016,102.50846346461913 181.78501348453574,102.91133805218851 184.11876747384667,108.43645433458732 184.43700665421784,108.66666666668607 184.43700665421784,108.37890124088153 183.9596478836611,107.91847633960424 183.42924924986437,106.65230646455893 182.89885061583482,105.55879447009647 181.46677430393174,101.12717759015504" stroke="#4dd2ff" stroke-linecap="round" stroke-linejoin="round" stroke-width="0.5"><title>2023-10-22 1.5km</title><desc>10080655811</desc></polyline><polyline fill="none" points="19.516076210187748,111.33333333331393 20.358118222560734,111.94247898831964 18.84244260028936,111.69882078003138 21.20016023493372,114.74454323225655 21.424704771721736,115.47551495471271 21.25629636924714,116.08465756388614 20.470390490954742,116.5110571240657 20.245845954166725,116.93745646456955 20.301982088480145,117.66842625197023 20.751071161590517,119.43493390904041 21.25629636924714,120.71412675781175 21.81765771075152,122.66336920537287 22.8281081255991,124.42986621236196 22.9965165280737,125.09991581586655 23.614014003891498,126.1963594526751 24.00696694315411,126.68366727011744 24.06310307700187,126.98823451029602 24.456056016497314,127.35371505090734 24.73673668713309,127.96284892683616 25.129689626395702,129.12020205735462 25.522642565425485,129.91207432042575 25.466506431344897,131.49581657606177 26.196276175323874,132.89681681717047 26.42082071211189,133.56685957341688 26.813773651141673,134.297814689402 27.48740726104006,135.15059484308586 27.824224066222087,135.33333333331393 26.533092980273068,133.50594661792275 26.252412309637293,132.531338721863 25.691050967900082,131.3130772394361 25.466506431344897,130.5212063154322 24.73673668713309,129.48568165750476 24.11923921131529,127.71919543022523" stroke="#4dd2ff" stroke-linecap="round" stroke-linejoin="round" stroke-width="0.5"><title>2023-10-20 1.4km</title><desc>10069668027</desc></polyline><polyline fill="none" points="49.17069455352612,111.33333333331393 49.28499764110893,112.26357861311408 50.19942234107293,114.49616309825797 50.428028516238555,115.86051737458911 52.31402945960872,120.4496928343433 52.48548409086652,121.06984976516105 52.59978717844933,122.00008430652088 52.828393353382125,122.62024009751622 54.20003040321171,124.54272015171591 54.94300047191791,126.03108879737556 55.4002128217835,127.51945481676375 55.800273628439754,128.3256519807619 56.02887980337255,129.5659538054024 56.31463752221316,130.1861040337826 57.05760759068653,132.10856684442842 57.17191067826934,132.85274482076056 58.257790009491146,135.0852748103789 58.54354772809893,135.33333333331393 58.71500235935673,135.33333333331393 58.82930544670671,135.27131870930316 58.77215390326455,135.2093040808686 57.62912302836776,133.78296636772575 57.11475913459435,132.04655198345426 56.02887980337255,130.06207402452128 55.857425172114745,129.25587852013996 55.74312208453193,127.89154591131955" stroke="#4dd2ff" stroke-linecap="round" stroke-linejoin="round" stroke-width="0.5"><title>2023-10-19 1.3km</title><desc>10064004415</desc></polyline><polyline fill="none" points="79.25485054310411,111.33333333337214 81.60781407449394,114.3971769734053 81.45094983931631,116.60995041404385 81.76467830967158,118.8227217401145 82.862727958709,122.73761967383325 84.43137031327933,125.29081041237805 86.00001266784966,129.71633435611147 89.13729737792164,134.8226976256119 89.60789008438587,135.33333333337214 90.0784827908501,135.163121443009 88.03924772888422,133.12057778669987 84.2745060781017,125.80144822213333 83.33332066517323,122.56740685773548 80.66662866156548,116.9503769093426" stroke="#4dd2ff" stroke-linecap="round" stroke-linejoin="round" stroke-width="0.5"><title>2023-10-18 1.0km</title><desc>10058081424</desc></polyline><polyline fill="none" points="111.14434538036585,112.78788541769609 112.48482152540237,120.60608821571805 116.00357140600681,129.878808330046 118.34940465912223,134.78788137435913 119.35476176813245,135.33333333325572 119.85744032263756,135.33333333325572 120.19255935866386,134.60606402833946 119.01964273210615,133.1515247754287 117.51160706952214,130.78789666621014 115.5008928515017,126.42426960589364 114.6630952609703,123.87881693197414 111.14434538036585,116.78789923968725 110.80922634433955,115.69698702078313 110.47410730831325,111.33333333325572" stroke="#4dd2ff" stroke-linecap="round" stroke-linejoin="round" stroke-width="0.5"><title>2023-10-17 1.0km</title><desc>10051702317</desc></polyline><polyline fill="none" points="140.64067168347538,111.88718207273632 142.34204575233161,114.84103995375335 144.89410685561597,121.4872074809391 146.25520611088723,124.07182343560271 147.78644277248532,128.87181743606925 149.6579542485997,133.67180226184428 150.33850387576967,134.96410430129617 151.1891909101978,135.33333333325572 151.35932831745595,135.14871882437728 151.1891909101978,134.5948752150871 149.3176794340834,131.82565533788875 146.76561833173037,125.54874564358033 144.89410685561597,121.67182299424894 143.3628701940179,114.47180790826678 142.51218315865844,111.33333333325572" stroke="#4dd2ff" stroke-linecap="round" stroke-linejoin="round" stroke-width="0.5"><title>2023-10-16 1.0km</title><desc>10046279660</desc></polyline><polyline fill="none" points="171.7515860227868,111.33333333325572 172.4537404011935,112.85714946663938 173.15589477866888,116.28573248977773 174.73574212845415,121.61907484172843 176.8422052608803,124.85717019881122 179.29974558297545,134.0000058321748 180.17743855528533,134.9523826886434 181.4062087154016,135.33333333325572 181.5817473102361,134.9523826886434 181.4062087154016,133.80953041883186 179.12420698814094,130.57144625065848 177.89543682802469,126.76193028269336 176.49112807307392,124.47621801379137 173.15589477866888,116.6666858792305 171.92712461855263,111.33333333325572" stroke="#4dd2ff" stroke-linecap="round" stroke-linejoin="round" stroke-width="0.5"><title>2023-10-15 1.0km</title><desc>10039610121</desc></polyline><polyline fill="none" points="18.33897609449923,139.74194284738041 18.874085797928274,145.35486196051352 20.301045009866357,149.41938212374225 22.08474402409047,151.93551050825045 23.1549634328112,155.41937660961412 26.187251755967736,160.8387147146277 26.900731360539794,161.6129049619194 27.792580869048834,162.0 28.327690572477877,161.6129049619194 28.327690572477877,161.03226229758002 24.760292544029653,158.12904705642723 22.441483826376498,153.87099224491976 21.549634319730103,150.1935757289175 19.40919550228864,145.35486196051352 18.33897609449923,141.29033552249894 18.517345995642245,138.77419696352445 18.33897609449923,138.0" stroke="#4dd2ff" stroke-linecap="round" stroke-linejoin="round" stroke-width="0.5"><title>2023-10-14 1.0km</title><desc>10033377496</desc></polyline><polyline fill="none" points="48.558304373174906,138.38095411774702 51.71799860801548,142.19049221090972 52.06907574553043,145.0476421045605 55.053231411613524,154.1905005914159 57.86184850893915,160.85714789829217 58.7395413517952,162.0 59.441695626825094,162.0 59.441695626825094,161.4285740123596 59.26615705806762,160.85714789829217 57.68630994018167,159.714295292506 55.93092425446957,156.47621017182246 54.0,150.3809801430907 50.4892286285758,142.57144571188837 49.96261292230338,139.90477002691478 49.08492007944733,138.0" stroke="#4dd2ff" stroke-linecap="round" stroke-linejoin="round" stroke-width="0.5"><title>2023-10-13 1.0km</title><desc>10028006924</desc></polyline><polyline fill="none" points="79.5170896044001,138.0 81.20547552593052,140.19848289946094 82.21850707940757,142.030550500378 82.38734567258507,144.41223636828363 82.21850707940757,146.97712629567832 84.07573159318417,150.82445623748936 86.27063329238445,156.68704282096587 88.4655349906534,160.71756309713237 88.97205076739192,161.4503842657432 89.81624372769147,162.0 89.81624372769147,161.08397370832972 87.95901921391487,158.70230377395637 86.27063329238445,155.77101457677782 84.07573159318417,149.7252197174821 82.7250228561461,147.34353892738 82.0496684871614,145.32826878875494" stroke="#4dd2ff" stroke-linecap="round" stroke-linejoin="round" stroke-width="0.5"><title>2023-10-12 1.0km</title><desc>10021974100</desc></polyline><polyline fill="none" points="112.52733580302447,141.40299945976585 113.18757051602006,144.98509901948273 113.022511838004,146.4179373686202 114.50803994201124,151.25376057485119 115.66345068998635,153.40301225171424 116.81886143889278,157.3433020687662 118.46944822184741,161.2835855127778 118.79956557881087,161.6417927823495 119.62485897075385,162.0 119.45980029180646,161.2835855127778 117.64415482990444,156.6268862124998 115.66345068998635,153.2239080176223 113.022511838004,147.1343562270049 112.36227712407708,144.80599416652694 112.03215976804495,141.40299945976585 111.04180769715458,138.0" stroke="#4dd2ff" stroke-linecap="round" stroke-linejoin="round" stroke-width="0.5"><title>2023-10-10 1.0km</title><desc>10009069592</desc></polyline><polyline fill="none" points="141.9342169770971,141.0000131232664 143.07263622339815,144.17649351945147 144.2110554696992,148.41179417585954 146.65052528399974,153.70590948755853 148.60210113413632,160.41177212051116 149.74052038043737,162.0 150.0657830229029,161.47059082356282 150.2284143427387,159.52942284429446 149.08999509736896,156.1764926367905 146.65052528399974,151.941205680836 143.885792828165,144.17649351945147 143.07263622339815,140.64707059715874 141.77158565633,138.0" stroke="#4dd2ff" stroke-linecap="round" stroke-linejoin="round" stroke-width="0.5"><title>2023-10-09 1.0km</title><desc>10003389142</desc></polyline><polyline fill="none" points="171.78016189392656,138.0 172.98035604972392,139.4883787133731 174.18055020365864,142.27908644080162 174.8663754351437,147.860492663458 177.43822005204856,153.44188657589257 179.66715205367655,159.76745146210305 180.6958899004385,161.6279087138828 181.55317143909633,162.0 181.55317143909633,160.51163452723995 178.29550159163773,155.30234847799875 174.00909389648587,144.88374420977198 172.29453081730753,138.18604738730937" stroke="#4dd2ff" stroke-linecap="round" stroke-linejoin="round" stroke-width="0.5"><title>2023-10-08 1.0km</title><desc>9996447828</desc></polyline><polyline fill="none" points="20.2526321336627,169.46668642875738 21.042555518448353,172.38097932026722 23.412325671873987,178.7238394941669 24.20224905665964,181.46669260389172 26.730003885924816,187.80952806281857 27.51992727071047,188.66666666674428 27.677911947481334,187.98095580912195 27.677911947481334,187.2952447498683 24.676203086972237,181.9809772025328 23.25434099510312,178.8952679077629 20.72658616490662,171.3524057744071 19.93666278012097,167.40953631163575 18.98875471856445,164.66666666674428" stroke="#4dd2ff" stroke-linecap="round" stroke-linejoin="round" stroke-width="0.5"><title>2023-10-07 1.0km</title><desc>9989974159</desc></polyline><polyline fill="none" points="52.03919763304293,171.8156288531609 53.294111147522926,175.90074019122403 54.235296283848584,177.9432931577321 56.1176665564999,185.94327492523007 56.588259124197066,187.47518317366485 57.52944426052272,188.66666666662786 58.31376520730555,188.66666666662786 58.62749358545989,187.985819031368 58.47062939684838,187.47518317366485 56.588259124197066,184.75179003051016 54.705888852477074,180.6666943093296 54.078432095237076,177.9432931577321 50.78428411856294,169.94328374776524 50.31369155086577,167.04965651454404 49.37250641454011,164.66666666662786" stroke="#4dd2ff" stroke-linecap="round" stroke-linejoin="round" stroke-width="0.5"><title>2023-10-06 1.0km</title><desc>9984428862</desc></polyline><polyline fill="none" points="79.49978582002223,164.66666666674428 82.21919679176062,171.94537793379277 84.03213743958622,178.0437424001284 87.11413654126227,185.71585860056803 88.3831949941814,188.2732257801108 88.92707718908787,188.66666666674428 89.65225344896317,188.66666666674428 89.83354751206934,188.2732257801108 89.2896653180942,187.28962330752984 87.11413654126227,184.14209296857007 85.84507808741182,181.58472184138373 83.66954930964857,175.87980821286328 82.7630789866671,172.9289860459976 80.22496207989752,168.20766381011344 80.22496207989752,166.43716582423076" stroke="#4dd2ff" stroke-linecap="round" stroke-linejoin="round" stroke-width="0.5"><title>2023-10-04 1.0km</title><desc>9971682885</desc></polyline><polyline fill="none" points="111.70083933789283,167.4695988416206 112.50806022528559,170.27252771984786 113.31528111360967,172.19953941064887 113.96105782408267,175.17764532240108 117.02849719673395,181.30902812676504 117.18994137551636,183.411212884821 118.1586064407602,187.6155768376775 118.48149479553103,188.1411218100693 119.45015986077487,188.66666666674428 119.45015986077487,186.91485002753325 117.35138555336744,183.0608488873113 115.89838795457035,179.7323883411009 115.0911670671776,178.15574751212262 114.28394617885351,175.87837558449246 112.669504404068,172.54990500560962 112.02372769266367,169.92216179030947 111.70083933789283,167.29441567743197 111.21650680527091,164.66666666674428" stroke="#4dd2ff" stroke-linecap="round" stroke-linejoin="round" stroke-width="0.5"><title>2023-10-03 1.0km</title><desc>9965060084</desc></polyline><polyline fill="none" points="141.6129847439006,165.6584064324852 143.80649237148464,172.7989219862502 144.17207697685808,175.97247838857584 145.45162309333682,177.55925518926233 146.36558460537344,179.93941864091903 148.0107153262943,186.0881645064801 149.29026144277304,188.0716279251501 150.20422295387834,188.66666666674428 150.38701525703073,188.46832043398172 149.83863834943622,186.88155004871078 147.82792302407324,183.1129666438792 144.5376615813002,175.17908963747323 142.5269462550059,169.2286665714346 142.1613616514951,164.66666666674428" stroke="#4dd2ff" stroke-linecap="round" stroke-linejoin="round" stroke-width="0.5"><title>2023-10-02 1.0km</title><desc>9958643020</desc></polyline><polyline fill="none" points="172.86239382997155,168.89068265957758 173.21627967525274,170.61868723342195 177.10902397427708,179.83469231403433 179.05539612378925,185.78667831164785 180.1170536596328,187.89867008221336 181.17871119454503,188.66666666674428 181.3556541185826,188.47466754168272 181.17871119454503,187.70667090103962 177.6398527417332,182.33068809378892 174.2779372110963,174.07469294965267 172.6854509068653,169.08268322446384 171.97767921630293,164.66666666674428" stroke="#4dd2ff" stroke-linecap="round" stroke-linejoin="round" stroke-width="0.5"><title>2023-10-01 1.0km</title><desc>9952075403</desc></polyline><polyline fill="none" points="19.887435417622328,194.8116092903074 21.3299043122679,197.76813983242027 21.971001598984003,200.72466667951085 22.45182456355542,203.5072768072132 24.85593938920647,210.28987528034486 26.939505570568144,214.63768458599225 27.9011515006423,215.33333333325572 28.221700144931674,214.81159679195844 25.016213711351156,209.9420501908753 23.573744815774262,206.63770928792655 23.092921851202846,204.8985806433484 20.849081347696483,200.02901363628916 19.566886774264276,194.63769561378285 18.444966522045434,191.33333333325572" stroke="#4dd2ff" stroke-linecap="round" stroke-linejoin="round" stroke-width="0.5"><title>2023-09-30 1.0km</title><desc>9945549317</desc></polyline><polyline fill="none" points="50.28420080896467,191.33333333325572 51.87668617628515,194.0213443012908 52.4075146317482,196.13335097790696 53.82305718027055,199.5893582191784 54.53082845546305,204.77336050593294 55.061656911857426,206.30935920705087 57.184970734640956,211.4933481544722 57.71579919010401,214.75733591639437 58.06968482770026,215.141334208427 58.60051328316331,215.33333333325572 58.777456101961434,214.94933506916277 55.59248536732048,209.18935433751903 53.469171543605626,204.19736076006666 52.76140026934445,201.31736012455076 50.28420080896467,195.55734932702035 49.22254389710724,192.10133674927056" stroke="#4dd2ff" stroke-linecap="round" stroke-linejoin="round" stroke-width="0.5"><title>2023-09-28 1.0km</title><desc>9933629332</desc></polyline><polyline fill="none" points="79.97499671019614,194.06061778985895 81.31547384057194,198.78790372400545 83.82886845991015,202.24245311506093 85.50446487311274,208.42426629760303 87.85029985103756,212.60607233573683 88.52053841669112,214.96969870734029 89.19077698048204,215.33333333325572 89.52589626424015,214.7878813741263 89.19077698048204,214.0606119085569 87.85029985103756,212.24243730842136 83.99642810039222,204.42427129670978 81.98571240529418,198.96972223301418 79.80743706878275,191.33333333325572" stroke="#4dd2ff" stroke-linecap="round" stroke-linejoin="round" stroke-width="0.5"><title>2023-09-27 1.0km</title><desc>9927137811</desc></polyline><polyline fill="none" points="117.32709515560418,191.33333333331393 116.8485923181288,193.6410575414193 116.37008948088624,194.96799588744761 115.99792060744949,196.5833960623131 113.81807434814982,201.14111434057122 112.70156772783957,203.0449635036057 112.48889979999512,203.85265569214243 112.59523376380093,204.48727040010272 112.86106867343187,205.41034542239504 113.65857340232469,207.371876239602 113.92440831195563,207.89110416453332 114.24341020360589,208.81417518266244 115.30674984212965,210.1410878690076 115.78525267960504,211.1795397103415 116.31692249909975,211.98722352588084 116.74225835432298,213.14105610584375 117.3802621376235,214.00642942730337 118.17776686651632,215.33333333331393" stroke="#4dd2ff" stroke-linecap="round" stroke-linejoin="round" stroke-width="0.5"><title>2023-09-26 1.0km</title><desc>9920397094</desc></polyline><polyline fill="none" points="145.88791781757027,191.33333333331393 144.84181744791567,194.81985224795062 143.79571707826108,196.68472993309842 142.8243381632492,197.9009528112947 142.3012879784219,198.87393014802365 142.07712361356243,199.8469066261896 142.15184506820515,201.06312601669924 142.52545234328136,202.03610056336038 143.42210980318487,203.41447970166337 143.79571707826108,204.7928571170778 144.54293162794784,206.5766370970523 145.96263927267864,208.36041419196408 148.35372583195567,213.22524614958093 149.92287638690323,215.33333333331393" stroke="#4dd2ff" stroke-linecap="round" stroke-linejoin="round" stroke-width="0.5"><title>2023-09-25 1.0km</title><desc>9914573673</desc></polyline><polyline fill="none" points="178.4360651911702,191.33333333331393 177.84626568318345,192.22934522503056 177.72830578149296,192.67735082493164 177.84626568318345,193.25335768604418 177.9052456340287,193.82936416583834 176.7256466173567,196.00538520526607 176.43074686313048,197.4773963530315 176.01788720767945,198.5654029926518 173.5407292728778,202.91741595137864 173.4817493222654,203.42941604513908 173.7176691251807,204.4534153297427 174.36644858447835,205.4774134096224 174.7203282895498,206.3734107412747 175.2511478466913,207.26940715062665 175.54604760091752,208.16540263762 176.31278696167283,209.38139503792627 176.90258646965958,210.59738573950017 177.55136592919007,211.30137957975967 177.72830578149296,211.9413734858972 178.14116543717682,212.45336827199208 179.02586469962262,213.98935082380194 179.67464415868744,214.6933419208508 179.85158401122317,215.33333333331393" stroke="#4dd2ff" stroke-linecap="round" stroke-linejoin="round" stroke-width="0.5"><title>2023-09-24 1.0km</title><desc>9907510217</desc></polyline><polyline fill="none" points="24.22805523732677,218.0 23.727010970935225,218.77670756692532 23.36912220949307,219.55341456260066 23.154388952534646,220.56313280342147 23.08281120005995,221.88353212329093 21.865989410551265,223.5146113576484 21.150211887434125,225.37869882694213 20.50601211655885,226.31074132793583 20.07654560240917,227.55346338369418 20.004967849934474,228.87385396577884 21.50810064910911,232.67967640957795 22.08072266750969,233.84472135547549 23.94174422812648,236.7961628009216 24.729099503485486,238.73789609706728 25.731188036035746,239.9806035333895 26.303810054901987,240.99030224920716 26.661698816576973,242.0" stroke="#4dd2ff" stroke-linecap="round" stroke-linejoin="round" stroke-width="0.5"><title>2023-09-23 1.0km</title><desc>9901004991</desc></polyline><polyline fill="none" points="54.92156406934373,218.0 54.44371603336185,218.88889908476267 53.965867997612804,220.44447059562663 52.87364391516894,222.74078605504474 51.78141983295791,224.29635161813349 50.82572376099415,226.88895555236377 50.7574597557541,228.29636632249458 50.893987766467035,229.11118218576303 52.25926786893979,232.3704390480416 52.464059884427115,233.33339928498026 52.737115904921666,233.85191595437936 53.69281197665259,235.03709591110237 54.44371603336185,236.51856889599003 55.058092079591006,238.07411318598315 56.082052156794816,239.5555817053537 57.24254024401307,242.0" stroke="#4dd2ff" stroke-linecap="round" stroke-linejoin="round" stroke-width="0.5"><title>2023-09-22 1.0km</title><desc>9895405405</desc></polyline><polyline fill="none" points="85.93891305243596,218.0 85.74318283912726,218.7079731648555 85.35172241320834,219.13275681389496 84.50355815584771,220.69029525690712 84.17734113405459,221.8230489056441 83.19869006820954,224.30094286624808 82.15479559847154,226.42484689992853 81.50236155441962,227.9823735471 81.30663134111091,228.76113592577167 81.30663134111091,229.25671165710082 81.50236155441962,229.96467654500157 81.8938219808042,230.6726409124676 82.741986237932,232.86732714337995 83.59015049459413,234.42484336928464 84.04685432533734,235.55758086033165 84.8950185822323,236.9735008503776 85.4169658171013,237.61066416668473 85.80842624348588,238.7433979100897 86.85232071368955,240.58408740104642 88.02670199237764,242.0" stroke="#4dd2ff" stroke-linecap="round" stroke-linejoin="round" stroke-width="0.5"><title>2023-09-21 1.0km</title><desc>9889267953</desc></polyline><polyline fill="none" points="117.77683174959384,218.0 116.92034776858054,220.56951311294688 116.41653366223909,222.59231506095966 115.6104310916271,224.2870908343466 114.65318428957835,227.12993184349034 112.99059773795307,230.24611046235077 112.53716504224576,231.94086878962116 112.58754645264708,232.32355561922304 112.88983491668478,233.14359816221986 113.54479325539432,234.5650030944962 113.94784454046749,235.76772822253406 114.95547275338322,237.18912813829957 115.56004968122579,238.33717993297614 115.91271955566481,239.1572158439085 116.31577084073797,239.86791290179826 116.97072917944752,240.35993354400853 117.77683174959384,241.56264929880854 117.82721316046081,241.7813246815349 118.12950162449852,242.0" stroke="#4dd2ff" stroke-linecap="round" stroke-linejoin="round" stroke-width="0.5"><title>2023-09-20 1.0km</title><desc>9882714971</desc></polyline><polyline fill="none" points="147.99000403564423,218.0 147.47828871244565,219.29564734915039 146.51171532343142,222.1337250273209 146.45485806511715,223.0591830642661 146.11371451616287,223.5527602666407 145.71571370912716,224.4782167383819 145.48828467633575,225.34197519125883 145.03342661098577,226.51421738340287 143.7257096732501,228.61190985055873 143.38456612406299,229.8458441462717 143.2708516079001,230.95638346107444 143.38456612406299,232.0669213059009 143.7257096732501,233.3008505209582 144.12371048005298,234.16459989198484 145.37457015994005,236.32396942953346 146.0,237.18771568854572 146.56857258151285,238.73011751146987 147.13714516325854,239.71725319017423 147.7057177447714,240.51930007420015 148.3311475845985,241.13625869411044 148.72914839186706,242.0" stroke="#4dd2ff" stroke-linecap="round" stroke-linejoin="round" stroke-width="0.5"><title>2023-09-19 1.0km</title><desc>9876194288</desc></polyline><polyline fill="none" points="176.49000882916152,218.0 176.06603001942858,218.6901035591727 175.3593986700289,220.07030930777546 175.1474092649296,220.9904454583302 173.87547283549793,223.21410447073868 172.88618894596584,225.28440342692193 172.67419954086654,226.05117977509508 172.74486267613247,226.8946331066545 173.16884148609824,227.96811817889102 173.80480970046483,229.11827952973545 174.3701147804968,230.72850328998175 175.1474092649296,232.41540170559892 175.99536688439548,233.9489433519775 176.77266136929393,234.94574421300786 177.6912821235601,236.47928213869454 178.25658720335923,238.24284796538996 179.24587109312415,239.77638104296057 179.7405130378902,241.1565588848316 180.65913379238918,242.0" stroke="#4dd2ff" stroke-linecap="round" stroke-linejoin="round" stroke-width="0.5"><title>2023-09-18 1.0km</title><desc>9870505463</desc></polyline><polyline fill="none" points="23.574490312719718,244.66666666668607 23.22998034209013,245.33957158122212 22.747666383627802,247.58258474699687 22.127548436867073,248.6293225311092 21.85194046027027,249.45175860548625 20.33609659038484,251.9190628377255 19.784880637656897,253.2648626229493 19.44037066702731,254.46112760319375 19.71597864339128,255.2835589608876 21.23182251327671,258.57327773986617 21.989744448568672,259.76953647547634 22.540960401296616,261.04055983998114 23.436686324421316,262.2368156731827 23.919000283349305,263.0592407420627 24.539118230110034,265.00315189751564 27.226295999949798,268.66666666668607" stroke="#4dd2ff" stroke-linecap="round" stroke-linejoin="round" stroke-width="0.5"><title>2023-09-16 1.0km</title><desc>9856514700</desc></polyline><polyline fill="none" points="53.668236520607024,244.66666666668607 52.93098434340209,246.90668906579958 51.9725565132685,248.42670163878938 49.98197563551366,252.26672394300113 49.90825041756034,253.14672714582412 49.98197563551366,254.18673001305433 50.424326941836625,255.22673188633053 51.1615791185759,256.34673279197887 51.82510607782751,257.86673217703355 53.00470956135541,259.8667281328235 54.479213915299624,262.66671629523626 54.62666435074061,263.7067100632703 55.14274087455124,264.1067074016901 55.732542616315186,264.90670163731556 56.69097044644877,266.50668834423414 57.72312349407002,267.38668003020575 57.944299146998674,267.9466743689263 58.09174958290532,268.66666666668607" stroke="#4dd2ff" stroke-linecap="round" stroke-linejoin="round" stroke-width="0.5"><title>2023-09-15 1.0km</title><desc>9850671982</desc></polyline><polyline fill="none" points="85.27680563740432,244.66666666668607 84.05652769701555,247.89428265637252 82.68371501425281,249.88050328032114 82.0735760438256,250.95637132163392 81.15836758865044,253.2736220715451 80.92956547485664,254.10121046897257 80.92956547485664,254.76328074838966 81.15836758865044,255.59086805046536 82.0735760438256,258.07362630584976 82.9125171280466,259.7287954335916 84.97173615219072,263.28740081668366 85.81067723594606,264.85980426258175 85.96321197832003,265.77014209574554 86.57335094874725,266.34944760613143 87.56482677487656,267.92184677446494 88.40376785863191,268.66666666668607" stroke="#4dd2ff" stroke-linecap="round" stroke-linejoin="round" stroke-width="0.5"><title>2023-09-14 1.0km</title><desc>9844236351</desc></polyline><polyline fill="none" points="111.51899566920474,244.66666666668607 111.95805611973628,245.02399198093917 112.12270378880203,245.38131713756593 112.23246890143491,246.15552110265708 112.56176423910074,246.81061618757667 112.78129446459934,248.65679039410315 112.78129446459934,249.5500989832217 112.67152935196646,250.02652982791187 112.78129446459934,250.6220679898397 113.05570724606514,251.33671320602298 112.94594213366508,251.93225040455582 113.00082468986511,252.2300188395311 113.54965025302954,253.242430699931 114.04359325999394,254.7312693723943 114.48265371029265,255.56501783360727 115.03147927345708,256.3392120648059 115.63518739305437,256.87519225286087 115.79983506188728,257.2325121812755 115.96448273095302,258.0067048187484 116.40354318148457,258.7808967162273 116.89748618821613,260.21017212141305 117.55607686401345,261.4607860322576 117.8853722019121,262.53273927618284 118.05001987097785,263.4260325622745 118.3793152088765,264.1406664822134 118.98302332824096,266.105906510551 119.80626167310402,267.6542740841396 119.86114422953688,267.8924842173583 119.80626167310402,268.0711417713319 119.1476709973067,268.66666666668607 119.47696633520536,268.42845676100114 119.64161400403827,268.0711417713319 119.75137911667116,267.7733791595092 119.69649656070396,267.35651131905615 119.36720122257248,266.93964326399146 118.3793152088765,264.7957470212714 117.8853722019121,263.18782111565815 116.84260363201611,260.8652558392496 116.3486606250517,258.6022371132858 116.07424784358591,257.947151565284 115.03147927345708,256.5774255255237 113.98871070356108,254.61216237925692 113.49476769659668,253.0042162584723 113.3301200279966,251.93225040455582 112.89105957723223,250.80072935303906 112.01293867616914,248.89500611420954 111.79340845090337,248.0016968025011 111.02505266247317,246.572399854369 110.86040499340743,245.7981962877093 110.8055224372074,244.8453293435159" stroke="#4dd2ff" stroke-linecap="round" stroke-linejoin="round" stroke-width="0.5"><title>2023-09-13 1.0km</title><desc>9837636972</desc></polyline></svg>