<?xml version="1.0" encoding="utf-8" ?>
<svg baseProfile="full" height="300mm" version="1.1" viewBox="0,0,200,300" width="200mm" xmlns="http://www.w3.org/2000/svg" xmlns:ev="http://www.w3.org/2001/xml-events" xmlns:xlink="http://www.w3.org/1999/xlink"><defs /><rect fill="#222222" height="300" width="200" x="0" y="0" /><text fill="#FFFFFF" style="font-size:12px; font-family:Arial; font-weight:bold;" x="10" y="20">Over 1km Runs</text><text fill="#FFFFFF" style="font-size:4px; font-family:Arial" x="10" y="280">ATHLETE</text><text fill="#FFFFFF" style="font-size:9px; font-family:Arial" x="10" y="290">Jiakai</text><text fill="#FFFFFF" style="font-size:4px; font-family:Arial" x="120" y="280">STATISTICS</text><text fill="#FFFFFF" style="font-size:3px; font-family:Arial" x="120" y="285">Number: 77</text><text fill="#FFFFFF" style="font-size:3px; font-family:Arial" x="120" y="290">Weekly: 5.9</text><text fill="#FFFFFF" style="font-size:3px; font-family:Arial" x="141" y="285">Total: 79.5 km</text><text fill="#FFFFFF" style="font-size:3px; font-family:Arial" x="141" y="290">Avg: 1.0 km</text><text fill="#FFFFFF" style="font-size:3px; font-family:Arial" x="167" y="285">Min: 1.0 km</text><text fill="#FFFFFF" style="font-size:3px; font-family:Arial" x="167" y="290">Max: 1.5 km</text><polyline fill="none" points="17.98742344416678,31.125 18.248429568950087,31.833045549923554 18.77044181758538,33.67396276129875 19.031447942368686,36.22292214934714 19.553460190538317,38.34705239557661 21.380503062158823,42.87852242635563 22.55503062205389,46.9851579334354 23.72955818241462,49.534099706215784 23.990564306732267,51.375 24.251570431515574,51.2333923476981 24.51257655583322,50.95017701131292 24.51257655583322,50.525353929027915 23.860061245039105,48.82606066344306 21.772012249100953,45.285861543845385 19.29245406622067,38.06383516511414 18.639938755426556,35.09005172632169" stroke="#4dd2ff" stroke-linecap="round" stroke-linejoin="round" stroke-width="0.5"><title>2023-12-07 1.0km</title><desc>10340288256</desc></polyline><polyline fill="none" points="39.99076015828177,31.125 40.79631155310199,33.01889366377145 42.273155776783824,39.28329827217385 44.421292829327285,43.21675150946248 46.16665418446064,48.02429486287292 46.97220557928085,51.08363456081133 47.37498127669096,51.375 47.50923984171823,50.35522077570204 47.24072271026671,49.04407528694719 45.09258565772325,44.52790085342713 43.61574143450707,42.342651464859955 42.81019003968686,40.74013371474575 40.125018724706024,31.562052544555627" stroke="#4dd2ff" stroke-linecap="round" stroke-linejoin="round" stroke-width="0.5"><title>2023-12-06 1.0km</title><desc>10334845031</desc></polyline><polyline fill="none" points="64.38380621094257,34.61639471130911 65.28472735080868,39.22502590424847 66.1856484906748,42.576750658103265 68.37359983054921,48.30260009842459 69.53192701051012,50.95603666966781 69.91803607018664,51.375 69.40322399046272,48.86121863196604 68.11619379045442,46.48708872986026 66.95786661049351,43.13537087570876 65.28472735080868,39.643991821911186 64.5125092305243,36.990539449383505 63.225479030516,34.197427685023285 62.58196393027902,31.125" stroke="#4dd2ff" stroke-linecap="round" stroke-linejoin="round" stroke-width="0.5"><title>2023-12-05 1.0km</title><desc>10329306344</desc></polyline><polyline fill="none" points="85.0306627266109,32.82430888223462 85.94418416218832,34.24039847229142 87.11871172254905,38.34705239557661 89.46776684233919,44.152996451826766 90.64229440269992,48.11802135966718 91.68631890043616,50.38374621444382 92.46933727385476,51.375 92.46933727385476,50.66696163348388 89.07625765539706,42.87852242635563 87.77122703380883,38.48866099573206 86.33569334866479,35.23166056594346 85.29166885046288,31.125" stroke="#4dd2ff" stroke-linecap="round" stroke-linejoin="round" stroke-width="0.5"><title>2023-12-04 1.0km</title><desc>10324662812</desc></polyline><polyline fill="none" points="107.7329415678978,32.994238877203315 109.16847562231123,38.44617618306074 111.46533010853454,43.58656136528589 113.04441756755114,49.038471416104585 114.19284481089562,51.219231507973745 115.05416524317116,51.375 115.05416524317116,50.75192596309353 114.0492914058268,49.038471416104585 112.75731075694785,45.30002032138873 111.32177670300007,43.11925413669087 110.31690286565572,40.47117789497133 108.59426200063899,34.24039721232839 107.4458347572945,31.125" stroke="#4dd2ff" stroke-linecap="round" stroke-linejoin="round" stroke-width="0.5"><title>2023-12-02 1.0km</title><desc>10313350310</desc></polyline><polyline fill="none" points="130.07416334142908,32.19886857050005 131.4879466718994,34.039784834720194 133.1844866676256,39.869342289399356 134.31551333190873,44.62502183509059 136.15343166096136,49.84091597085353 137.28445832477883,51.375 137.42583665857092,50.45454971771687 137.14307999238372,48.61364793498069 135.58791832858697,45.23865711595863 133.1844866676256,41.40343364945147 131.7707033380866,38.4886591010727 130.35692000715062,31.125" stroke="#4dd2ff" stroke-linecap="round" stroke-linejoin="round" stroke-width="0.5"><title>2023-12-01 1.0km</title><desc>10308709030</desc></polyline><polyline fill="none" points="152.5176109103486,31.125 155.31690272688866,40.74377227539662 158.11619454342872,46.48126636992674 159.6713566640392,50.700002878322266 160.13790530059487,51.375 160.29342151246965,50.86875217733905 159.6713566640392,49.18125862872694 157.33861348312348,45.97501746809576 156.71654863562435,44.287520321668126 154.38380545470864,39.731271829106845 153.29519197065383,34.50001240626443 152.20657848659903,31.46250146406237" stroke="#4dd2ff" stroke-linecap="round" stroke-linejoin="round" stroke-width="0.5"><title>2023-11-30 1.0km</title><desc>10303537703</desc></polyline><polyline fill="none" points="176.4333466612734,35.45432848704513 177.3342674043961,38.38709379185457 177.72037629410625,40.76123381732032 179.13610888971016,43.55433593096677 180.6805444485508,47.743981400853954 182.22498000692576,51.09569112374447 182.4823859333992,51.375 182.73979185940698,51.09569112374447 182.4823859333992,50.11810973205138 181.45276222750545,48.30260009842459 180.03702963190153,44.3922657641815 177.97778222057968,40.2026129020378 177.2055644406937,35.733639663551 175.66112888185307,33.35949335433543 174.76020814012736,31.125" stroke="#4dd2ff" stroke-linecap="round" stroke-linejoin="round" stroke-width="0.5"><title>2023-11-29 1.0km</title><desc>10298007687</desc></polyline><polyline fill="none" points="17.75927883014083,57.91398048854899 19.236122401896864,61.70176099403761 19.504639414604753,64.46974986139685 21.384258506353945,68.98593392362818 22.458326559048146,73.0650590681471 23.39813610492274,74.9589357455261 24.337945650797337,75.54166666662786 24.740721170790493,75.54166666662786 25.009238183964044,75.10461849195417 24.874979677144438,74.5218874423299 24.337945650797337,73.50210769288242 22.189809545874596,67.82046805403661 20.041673441417515,62.8672304621432 19.63889792142436,60.536290840478614 18.699088375084102,57.76829647854902 17.490761816035956,55.29166666662786" stroke="#4dd2ff" stroke-linecap="round" stroke-linejoin="round" stroke-width="0.5"><title>2023-11-28 1.0km</title><desc>10292316108</desc></polyline><polyline fill="none" points="43.27453567041084,55.29166666662786 44.46319649508223,58.516204605577514 45.1763929896988,61.61175545130391 46.127321648877114,63.0305477634538 47.19711639126763,65.09424362389836 48.26691113319248,68.44774422014598 49.217839792370796,69.99551156384405 49.217839792370796,70.7693947236985 48.623509380500764,71.28531664074399 46.72165206121281,72.31716001965106 45.53299123700708,73.34900279145222 44.344330412801355,73.99390421563294 42.561339175794274,74.76778561191168 39.708553197328,75.54166666662786 39.23308886773884,75.412686514901 38.87649062043056,75.02574600162916 38.282160207629204,72.57512076944113" stroke="#4dd2ff" stroke-linecap="round" stroke-linejoin="round" stroke-width="0.5"><title>2023-11-27 1.0km</title><desc>10287544518</desc></polyline><polyline fill="none" points="64.29245392326266,59.681544879684225 64.94496928201988,61.23924119537696 66.51100614434108,69.16931199992541 68.20754607766867,73.27594297786709 69.12106758076698,74.83362830022816 69.7735829395242,75.54166666662786 69.90408601192757,75.40005901409313 69.51257679611444,74.69202059553936 69.51257679611444,73.5591585849179 68.46855222107843,71.15182459971402 67.29402457503602,67.18679735972546 66.11949692852795,64.77945541031659 65.33647849736735,60.24798004934564 63.11792627628893,56.70775750593748 62.595913988538086,55.29166666662786" stroke="#4dd2ff" stroke-linecap="round" stroke-linejoin="round" stroke-width="0.5"><title>2023-11-26 1.0km</title><desc>10281488289</desc></polyline><polyline fill="none" points="85.06276023760438,55.29166666662786 86.56775605864823,59.2110359123908 87.92225229833275,64.76346383988857 89.27674853801727,67.86628516553901 89.57774770259857,69.82595955929719 90.33024561405182,71.62232623505406 91.98574101738632,74.72513798053842 92.73823892790824,75.54166666662786 93.03923809248954,75.54166666662786 90.78174435999244,70.64249004633166 90.48074519541115,69.00942877214402 88.9757493743673,66.88644732057583 85.96575773041695,58.72111513547134 84.46076190844178,55.944895354798064" stroke="#4dd2ff" stroke-linecap="round" stroke-linejoin="round" stroke-width="0.5"><title>2023-11-25 1.0km</title><desc>10275889695</desc></polyline><polyline fill="none" points="107.325757259503,55.48091974109411 108.37222198955715,60.212242065463215 113.2557240659371,73.45989831234328 114.47659958526492,75.35241506807506 114.99983195029199,75.54166666674428 115.17424273956567,74.97391182789579 113.43013485427946,72.70289122057147 111.33720539323986,66.45757421874441 109.94191908556968,63.618788754567504 109.0698651438579,58.1304613139946 108.02340041287243,55.29166666674428" stroke="#4dd2ff" stroke-linecap="round" stroke-linejoin="round" stroke-width="0.5"><title>2023-11-24 1.0km</title><desc>10271180196</desc></polyline><polyline fill="none" points="131.2321199523285,57.54167593049351 131.67645172588527,58.82739446940832 132.7132258620113,64.29168982524425 135.23110591061413,72.00596589781344 136.41599063854665,75.22023956058547 136.8603224111721,75.54166666662786 137.452764775604,75.54166666662786 137.60087536741048,75.22023956058547 137.30465418472886,73.6131033198908 135.67543768323958,68.95240154094063 131.38023054320365,59.63096817256883 129.89912463352084,55.29166666662786" stroke="#4dd2ff" stroke-linecap="round" stroke-linejoin="round" stroke-width="0.5"><title>2023-11-23 1.0km</title><desc>10265414399</desc></polyline><polyline fill="none" points="154.47580239595845,59.85506540059578 154.60722444113344,61.85154897056054 155.13291261997074,64.98887614335399 157.2356653357856,70.97830483713187 157.89277555933222,73.83040723903105 158.94415191700682,75.54166666662786 159.73268418526277,75.54166666662786 159.6012621410191,74.68603714136407 158.1556196482852,70.97830483713187 156.9728212459013,69.1244360273704 155.2643346642144,63.848030486144125 153.29300399310887,58.42900444951374 152.76731581473723,55.29166666662786" stroke="#4dd2ff" stroke-linecap="round" stroke-linejoin="round" stroke-width="0.5"><title>2023-11-21 1.0km</title><desc>10253878272</desc></polyline><polyline fill="none" points="176.57050360320136,60.7606648724759 177.25159622682258,65.19497682049405 180.1121852477081,72.4376653037034 181.3381519713439,75.09823819377925 181.74680754588917,75.54166666662786 182.01924459589645,75.39385718666017 182.15546312043443,75.09823819377925 181.6105890213512,72.73328468750697 179.1586555740796,67.4121291275369 178.20512590091676,64.6037357924506 176.70672212773934,58.83912665722892 175.8894109786488,57.36101908842102 175.34453687956557,55.29166666662786" stroke="#4dd2ff" stroke-linecap="round" stroke-linejoin="round" stroke-width="0.5"><title>2023-11-20 1.0km</title><desc>10248671423</desc></polyline><polyline fill="none" points="17.64485171297565,81.1458408391336 19.624148811679333,85.44130833214149 20.189662268850952,89.89017605688423 21.74482427490875,93.41858164570294 23.29998628096655,97.86743236263283 24.006878102198243,98.9412914593704 24.85514828702435,99.70833333337214 24.713769923429936,98.48106619995087 22.31033773208037,92.19131081306841 20.75517572602257,86.51517382368911 19.20001371949911,82.83334698027465 18.351743534207344,79.45833333337214" stroke="#4dd2ff" stroke-linecap="round" stroke-linejoin="round" stroke-width="0.5"><title>2023-11-19 1.0km</title><desc>10242265034</desc></polyline><polyline fill="none" points="39.814351088833064,97.50100262020715 40.698766574729234,94.71784118225332 41.05253276927397,94.04604270448908 41.671623608563095,93.66215770493727 44.678636259865016,93.27827259234618 46.88967497413978,92.79841604270041 47.597207362763584,92.22258795029484 48.03941510571167,91.64675960410386 48.570064397063106,89.2474720927421 48.39318129979074,88.47969915752765 48.74694749386981,87.9038691597525 48.48162284819409,83.48916406824719 48.30473975138739,82.91333186859265 48.216298202518374,81.18583374435548 48.03941510571167,80.13013932073954 47.066558071412146,79.8422225114191 46.27058413438499,80.41805606614798 46.447467231191695,80.13013932073954 46.62435032846406,80.41805606614798 45.47461019689217,79.8422225114191 45.38616864895448,79.45833333337214 45.1208440028131,79.65027793648187 45.29772710008547,79.55430563853588 44.678636259865016,80.32208382477984 44.76707780873403,80.22611157631036 46.62435032846406,81.18583374435548 46.18214258598164,81.56972241401672 45.47461019689217,81.85763884219341 43.79422077443451,82.14555520680733 43.70577922556549,81.76166670629755 44.14798696851358,81.56972241401672 44.76707780873403,81.66569456376601 46.62435032846406,79.8422225114191 49.189155236817896,79.9381947881775 48.92383059114218,79.74625022732653 48.570064397063106,79.65027793648187 48.30473975138739,84.25693993968889 48.39318129979074,85.6005466276547 48.6585059450008,87.23206717451103 48.835389042738825,90.01524457638152 48.835389042738825,90.97495954553597 48.570064397063106,91.93467380886432 48.03941510571167,92.51050202839542 43.61733767716214,92.99035868374631 41.58318206015974,93.37424388108775 40.52188347745687,94.14201393676922 39.283701797481626,95.8694949108176 38.57616940885782,98.36474116996396 38.310844763182104,99.70833333337214" stroke="#4dd2ff" stroke-linecap="round" stroke-linejoin="round" stroke-width="0.5"><title>2023-11-18 1.0km</title><desc>10236386505</desc></polyline><polyline fill="none" points="62.117714813910425,79.45833333337214 65.05030430061743,84.52085287333466 66.11670047743246,88.28157324180938 66.51659904420376,90.45121633785311 67.31639617681503,91.75300104729831 69.84908709675074,99.12976479739882 70.38228518562391,99.70833333337214 70.38228518562391,99.12976479739882 69.84908709675074,98.40655388811138 68.38279235363007,94.06728284840938 67.58299522101879,92.62085704167839 67.31639617681503,90.16193073021714 66.11670047743246,87.12442927830853 64.78370525641367,84.23156639374793 64.65040573431179,82.64048999361694" stroke="#4dd2ff" stroke-linecap="round" stroke-linejoin="round" stroke-width="0.5"><title>2023-11-17 1.0km</title><desc>10231268371</desc></polyline><polyline fill="none" points="85.1380108250305,80.11156202177517 87.09450496174395,82.88778180221561 87.54600360803306,86.64383833552711 88.90049954969436,89.58335640921723 91.00749323517084,97.42205225571524 92.36198917590082,99.70833333337214 92.21148962620646,98.4018872914603 91.15799278393388,96.27891083422583 90.40549503918737,94.1559323478723 89.20149864722043,89.0934370001778 86.79350586421788,84.03093011502642 86.04100811854005,81.74463290069252 85.58950947131962,79.45833333337214" stroke="#4dd2ff" stroke-linecap="round" stroke-linejoin="round" stroke-width="0.5"><title>2023-11-16 1.0km</title><desc>10225818993</desc></polyline><polyline fill="none" points="107.73834346886724,79.67607600498013 108.74167390633374,83.59544136095792 110.34700260683894,87.95028567290865 112.55432956852019,92.08738183928654 113.35699391830713,95.35350630921312 114.76165653020144,98.18414460332133 116.16631914302707,99.70833333325572 112.55432956852019,92.95834871660918 110.94900086894631,87.95028567290865 106.33368085790426,79.45833333325572" stroke="#4dd2ff" stroke-linecap="round" stroke-linejoin="round" stroke-width="0.5"><title>2023-11-15 1.0km</title><desc>10219684298</desc></polyline><polyline fill="none" points="130.17195953754708,81.89443403633777 131.99605859722942,84.17827584256884 132.27668922115117,87.0711385149043 134.38141890522093,92.09557460516226 135.64425671473145,96.3587229406694 136.9070945251733,99.5560784334084 137.46835577394813,99.70833333337214 137.3280404615216,97.88127379107755 135.50394140277058,95.44519189326093 134.80236484110355,93.31361788243521 133.6798423435539,91.9433191451244 133.25889640673995,90.2685083465185 131.15416672360152,86.00534747436177 130.4525901619345,82.96022719249595 130.0316442255862,79.45833333337214" stroke="#4dd2ff" stroke-linecap="round" stroke-linejoin="round" stroke-width="0.5"><title>2023-11-14 1.0km</title><desc>10213806154</desc></polyline><polyline fill="none" points="153.54537082230672,82.24638900742866 154.62722249375656,86.35509553411976 157.60231458954513,93.98552807257511 158.27847188385203,96.4800862291595 159.63078647339717,99.26811812655069 160.03648085007444,99.70833333337214 159.2250920967199,98.24094893329311 157.33185167144984,93.69205043767579 157.19662021286786,92.51813946524635 155.8443056237884,89.28988073195796 153.815833740402,85.62139856035355 153.0044449865818,83.12682683218736 152.46351915039122,79.45833333337214" stroke="#4dd2ff" stroke-linecap="round" stroke-linejoin="round" stroke-width="0.5"><title>2023-11-13 1.0km</title><desc>10208522228</desc></polyline><polyline fill="none" points="176.48794633941725,81.75947959395126 177.90172987710685,86.0549458238529 179.59827012289315,89.58335789793637 180.58791859960184,93.72539924143348 181.57756707584485,96.6401641467819 182.8499722601846,99.40151661774144 183.41548567498103,99.70833333337214 183.69824238307774,99.09469985682517 182.14308049110696,96.02652976836544 181.29481036867946,92.65153746039141 178.18448658520356,89.73676698305644 176.48794633941725,87.28222026536241 176.20518963132054,84.67426121421158 173.80175761692226,79.45833333337214" stroke="#4dd2ff" stroke-linecap="round" stroke-linejoin="round" stroke-width="0.5"><title>2023-11-12 1.0km</title><desc>10202270880</desc></polyline><polyline fill="none" points="18.186099410057068,107.40300021274015 21.528536417521536,114.95897980488371 22.642682086210698,118.73695918556768 23.756827755831182,121.75933769077528 24.4531687987037,123.11940656835213 25.14950984157622,123.875 25.288778050336987,123.27052527701017 24.035364172421396,119.49255422828719 21.667804625816643,115.8656954895705 19.160976870451123,110.12315606547054 18.186099410057068,106.04292093601543 17.211221949197352,103.625" stroke="#4dd2ff" stroke-linecap="round" stroke-linejoin="round" stroke-width="0.5"><title>2023-11-11 1.0km</title><desc>10196068378</desc></polyline><polyline fill="none" points="41.867434359155595,106.6447476092726 44.159253399819136,113.572389628971 46.28737108130008,119.25659388699569 47.26957924105227,122.98684566398151 47.924384681507945,123.875 48.25178740173578,123.51973830466159 47.760683321394026,121.38816703576595 45.30516292061657,115.88159922137856 42.84964251983911,110.73028248548508 39.57561531756073,105.57895476697013 39.248212597332895,103.625" stroke="#4dd2ff" stroke-linecap="round" stroke-linejoin="round" stroke-width="0.5"><title>2023-11-10 1.0km</title><desc>10191120477</desc></polyline><polyline fill="none" points="61.5489014852792,104.24332349712495 63.97067950852215,106.0982928982703 65.39525481592864,108.57158288673963 65.82262740842998,109.49906588252634 65.82262740842998,110.89028960908763 67.38966024620458,115.68227539851796 67.95949036907405,118.46471374866087 69.09915061527863,121.55630759662017 69.38406567648053,123.1021028162213 70.09635333064944,123.875 70.52372592221946,123.72042058606166 70.9510985147208,123.1021028162213 69.38406567648053,122.02004628209397 66.81983012333512,118.31013393669855 63.82822197815403,110.11738765251357 63.11593432398513,105.47996994620189 62.40364667028189,103.625" stroke="#4dd2ff" stroke-linecap="round" stroke-linejoin="round" stroke-width="0.5"><title>2023-11-09 1.0km</title><desc>10185506531</desc></polyline><polyline fill="none" points="84.79966597538441,105.25091993960086 86.2980685364455,108.20713464240544 86.8429421945475,109.68524036393501 88.61378158535808,113.52831015421543 89.29487365856767,116.1888926285319 89.15865524392575,114.56298153463285 89.43109207367525,115.59765238279942 89.97596573131159,119.58852066658437 91.2019314635545,123.28376201470383 91.74680512258783,123.875 92.42789719533175,123.57938102865592 92.70033402461559,123.13595249096397 91.2019314635545,121.80566629045643 90.11218414641917,120.03194998705294 89.43109207367525,118.11042222601827 88.4775631702505,114.85860183159821 87.115379024297,112.93706912617199 85.61697646277025,109.68524036393501 85.2083212188445,107.32027068792377 85.34453963348642,104.36405468103476 85.07210280420259,103.625" stroke="#4dd2ff" stroke-linecap="round" stroke-linejoin="round" stroke-width="0.5"><title>2023-11-08 1.0km</title><desc>10179505859</desc></polyline><polyline fill="none" points="110.33647836279124,114.81208925554529 114.90408654883504,123.875 115.16509273042902,123.73339234781452 114.51257727574557,122.17570748343132 113.33804945647717,120.19319765258115 112.55503091029823,118.21068578166887 110.9889938174747,116.51138826808892 110.46698145428672,115.52013069286477 110.0754721807316,112.12152941920795 109.81446599867195,111.13026958494447 108.24842890631407,108.43970460584387 107.33490726957098,103.625" stroke="#4dd2ff" stroke-linecap="round" stroke-linejoin="round" stroke-width="0.5"><title>2023-11-06 1.0km</title><desc>10167691585</desc></polyline><polyline fill="none" points="131.8032507961616,109.30667556147091 132.7430607569404,111.05488014931325 136.23378346674144,119.06746477528941 137.71062769088894,123.58363456081133 137.9791448218748,123.875 138.24766195332631,123.875 138.24766195332631,123.43795182509348 137.17359342705458,121.10702659829985 136.23378346674144,119.79587995330803 136.09952490124851,119.06746477528941 135.2939735064283,118.19336620881222 133.0115778883919,114.25991788762622 130.32640657247975,107.41278551763389 129.25233804667369,103.625" stroke="#4dd2ff" stroke-linecap="round" stroke-linejoin="round" stroke-width="0.5"><title>2023-11-05 1.1km</title><desc>10161301187</desc></polyline><polyline fill="none" points="152.46351998578757,103.625 155.16814856696874,109.64132579986472 156.38523142877966,114.92393837927375 158.27847143588588,118.59241111110896 158.95462858164683,121.52718444226775 159.63078572647646,123.875 160.03648001421243,123.43478479317855 159.90124858450145,122.99456948938314 158.14324000710621,119.76632096152753 158.00800857739523,119.32610484852921 156.38523142877966,116.83154504140839 155.7090742830187,114.48372119839769 153.95106570562348,111.2554589046631 153.54537141835317,108.46740999480244 152.73398284381256,105.53261746116914" stroke="#4dd2ff" stroke-linecap="round" stroke-linejoin="round" stroke-width="0.5"><title>2023-11-04 1.0km</title><desc>10155501797</desc></polyline><polyline fill="none" points="184.18291300861165,106.70096452429425 182.6475245496258,104.65032211167272 181.70267011318356,104.00949586252682 179.8129612407647,103.625 178.0413591726683,103.75316529721022 175.56111627677456,104.90665254509076 174.4981550355442,105.93197390250862 173.5533005995676,107.85444982117042 173.31708699045703,109.3924290293362 172.962766577024,114.5190165862441 173.19898018566892,119.90191728936043 173.43519379524514,120.67090174683835 174.6162618403323,122.59336140565574 176.03354349546134,123.61867235659156 178.39567958610132,123.875 180.5216020680964,122.97785308305174 182.52941774576902,120.54273769422434 183.1199517683126,119.38926079589874 183.94669939996675,115.67249670787714 183.94669939996675,112.72471265657805 184.53723342251033,108.87976944388356 184.41912661818787,107.46995480707847 183.1199517683126,105.93197390250862 182.05699052708223,105.16298294090666 179.57674763118848,104.00949586252682 178.2775727813132,104.00949586252682 175.44300947291777,104.90665254509076 174.14383462257683,106.06013902975246 173.31708699045703,107.5981198210502 173.08087338134646,108.62343959498685 173.31708699045703,112.85287728451658 173.08087338134646,114.77534556796309" stroke="#4dd2ff" stroke-linecap="round" stroke-linejoin="round" stroke-width="0.5"><title>2023-11-03 1.0km</title><desc>10152446508</desc></polyline><polyline fill="none" points="17.05896987952292,127.79166666674428 18.166034439578652,130.194218224613 19.114946919493377,134.4844827123452 20.696467720903456,137.57346826139838 23.068748920224607,143.75142709561624 23.54320516064763,144.78108531213365 24.33396556135267,147.52683833427727 24.808421801775694,148.04166666674428 25.441030121408403,148.04166666674428 25.441030121408403,147.69844779092818 24.33396556135267,147.18361938325688 23.859509320929646,145.98235265677795 22.752444760873914,144.9526949704159 21.961684361100197,142.72176842577755 20.85461980011314,141.00566963269375 19.5894031599164,138.43151907715946 18.166034439578652,133.11159893427975 17.217121958732605,130.8806610724423" stroke="#4dd2ff" stroke-linecap="round" stroke-linejoin="round" stroke-width="0.5"><title>2023-11-02 1.1km</title><desc>10144903556</desc></polyline><polyline fill="none" points="40.30159830534831,129.25906487507746 40.572061182931066,130.87320165871643 41.653912695124745,133.36777412006631 43.547152841463685,140.11777809017804 46.792707378510386,146.86775923275854 47.73932745074853,148.04166666662786 47.198401695583016,146.28080525714904 45.169930109754205,143.1992940522032 44.088078598026186,139.23734408430755 42.73576420778409,137.32973573950585 41.112986939027905,133.80799246625975 39.760672548785806,127.79166666662786" stroke="#4dd2ff" stroke-linecap="round" stroke-linejoin="round" stroke-width="0.5"><title>2023-11-01 1.0km</title><desc>10138966680</desc></polyline><polyline fill="none" points="63.303378876298666,128.09617941139732 64.00495533458889,130.38002356828656 65.1274776677601,136.47026234073564 66.95157645829022,140.4289079385344 68.07409879099578,144.08303562016226 69.89819758245721,148.04166666662786 70.038512873929,147.88941176596563 68.775675249286,146.06235208921134 66.95157645829022,141.79920657444745 65.40810825070366,139.05860839539673 62.74211771087721,130.98904825141653 62.46148712653667,127.79166666662786" stroke="#4dd2ff" stroke-linecap="round" stroke-linejoin="round" stroke-width="0.5"><title>2023-10-31 1.0km</title><desc>10133123337</desc></polyline><polyline fill="none" points="85.57055966323242,130.19167716510128 86.26174234552309,133.79168761963956 86.26174234552309,135.1416899022879 87.78234424535185,137.69169177673757 91.92944033676758,146.5416735591134 92.62062301905826,147.8916674052598 92.89709609141573,148.04166666662786 89.71765575464815,141.74168820353225 88.33529039146379,137.84169178793672 86.8146884907037,134.69168924051337 84.60290390858427,127.79166666662786" stroke="#4dd2ff" stroke-linecap="round" stroke-linejoin="round" stroke-width="0.5"><title>2023-10-30 1.0km</title><desc>10127985445</desc></polyline><polyline fill="none" points="108.05782746803015,130.7226017251378 108.67170680081472,134.85254762531258 109.04003440076485,136.1847862303257 111.49555173330009,141.9134010715643 112.72331039886922,145.24398277048022 114.56494839815423,147.77522076736204 115.05605186522007,148.04166666662786 115.17882773093879,147.6419978030026 114.07384493201971,145.91009837540332 112.47775866603479,142.44629455474205 109.65391373354942,137.25057640939485 108.54893093416467,133.3870840285672 107.68949986761436,131.65517097723205 107.56672400142998,128.9906861272175 107.32117226859555,127.79166666662786" stroke="#4dd2ff" stroke-linecap="round" stroke-linejoin="round" stroke-width="0.5"><title>2023-10-28 1.0km</title><desc>10115543824</desc></polyline><polyline fill="none" points="131.12350542237982,131.9916831862647 132.22939787618816,135.59169046452735 133.47352688619867,138.44169172167312 134.579419340007,142.49168665974867 136.23825802095234,146.39167418773286 136.92944080382586,147.89166740584187 137.62062358716503,148.04166666662786 137.75886014429852,147.89166740584187 137.48238703096285,146.99167160713114 136.6529676904902,144.7416803742526 133.88823655666783,139.34169129177462 131.67645164905116,133.34168666007463 130.29408608190715,130.3416777276434 129.74113985523582,127.79166666662786" stroke="#4dd2ff" stroke-linecap="round" stroke-linejoin="round" stroke-width="0.5"><title>2023-10-27 1.0km</title><desc>10110442644</desc></polyline><polyline fill="none" points="153.50559645984322,130.91851812019013 156.11277982359752,139.70345589309 157.07332106260583,142.3835988137871 158.0338623020798,144.02146218635608 159.13162371795624,147.14828858268447 159.54328424902633,147.74387401598506 160.3666053111665,148.04166666662786 160.50382548756897,147.59497767395806 160.3666053111665,146.99939219711814 158.99440354062244,145.21263471641578 156.9361008857377,141.6391150249401 154.46613769978285,134.34315941098612 152.81949557503685,131.66300584981218 151.9961745128967,127.79166666662786" stroke="#4dd2ff" stroke-linecap="round" stroke-linejoin="round" stroke-width="0.5"><title>2023-10-26 1.0km</title><desc>10104873905</desc></polyline><polyline fill="none" points="177.7357644313015,137.47647490771487 180.84608684293926,145.2536353842588 182.33363234438002,147.89492827525828 182.87455798033625,148.04166666662786 182.73932657158002,146.57428226654883 179.08807852305472,140.26451705396175 177.05960738519207,135.12864692218136 175.3015990657732,131.46016016590875 174.62544201966375,127.79166666662786" stroke="#4dd2ff" stroke-linecap="round" stroke-linejoin="round" stroke-width="0.5"><title>2023-10-25 1.0km</title><desc>10098978222</desc></polyline><polyline fill="none" points="17.503990292083472,151.95833333337214 17.367771757300943,152.99300981068518 18.185082966461778,156.39265734388027 19.27483124518767,158.60981568170246 19.955923919100314,161.27040245942771 21.181890732608736,164.81784601940308 23.770042893942446,169.84338034887332 24.58735410310328,171.9127143623773 24.859791173134,172.20833333337214 25.132228243164718,172.06052385317162 24.996009707916528,170.13899962371215 23.49760582484305,167.33061475423165 22.407857546582818,165.70470593159553 21.045672197360545,162.60069452796597 20.77323512826115,160.97478188038804 19.13861270993948,158.4620052020764 18.185082966461778,156.24484670103993 17.91264589643106,153.58425327285659 17.503990292083472,151.95833333337214" stroke="#4dd2ff" stroke-linecap="round" stroke-linejoin="round" stroke-width="0.5"><title>2023-10-24 1.0km</title><desc>10092835699</desc></polyline><polyline fill="none" points="41.6689931480214,155.45475099165924 43.68287074705586,162.59325122099835 44.62268029246479,164.34145143895876 45.69674834469333,168.71194523607846 47.307850423734635,171.62560241227038 47.97914295690134,172.20833333337214 47.307850423734635,171.4799196550157 46.36804087786004,169.14899408561178 43.95138775976375,166.23533326771576 43.41435373341665,165.21555096958764 42.87731970753521,161.86483400850557 41.266217628493905,158.65979509195313 40.192149576265365,155.3090670458041 39.52085704356432,151.95833333337214" stroke="#4dd2ff" stroke-linecap="round" stroke-linejoin="round" stroke-width="0.5"><title>2023-10-23 1.0km</title><desc>10087395010</desc></polyline><polyline fill="none" points="59.69377563544549,152.05545711726882 60.05179471336305,151.95833333331393 62.60268064355478,152.15258088690462 63.72149026207626,152.44395211013034 63.99000457045622,152.58963767357636 64.57178557245061,153.02669417095603 64.97455703490414,153.51231216220185 65.86960472958162,155.16341066139285 66.31712857726961,157.0087511582533 66.89890957879834,157.9799809277174 67.1674238871783,158.75696371495724 67.79395727347583,160.16524268721696 68.24148112116382,161.6220798434224 68.91276689223014,162.78754725470208 69.2260335853789,163.12747486226726 69.62880504806526,163.80732955259737 69.85256697167642,165.2641586754471 69.98682412598282,165.65264589898288 70.34484320366755,166.18681545805885 70.43434797343798,167.01234938157722 70.56860512751155,167.35227481479524 72.53771005617455,172.01409167813836 72.80622436455451,172.20833333331393 72.80622436455451,171.96553125529317 72.40345290186815,171.57704774482409 71.95592905464582,170.50871691276552 71.50840520719066,169.58606616745237 70.30009081913158,165.8468894250109" stroke="#4dd2ff" stroke-linecap="round" stroke-linejoin="round" stroke-width="0.5"><title>2023-10-22 1.5km</title><desc>10080655811</desc></polyline><polyline fill="none" points="85.52918930258602,151.95833333331393 86.2396622505039,152.47229997970862 84.96081094397232,152.2667133664363 86.95013519842178,154.83654168556677 87.13959465129301,155.4532990763546 86.997500061756,155.96726315288106 86.33439197693951,156.327037781768 86.14493252406828,156.68681222532177 86.1922973874025,157.3035679833847 86.57121629291214,158.7940588190686 86.997500061756,159.87337778520305 87.47114869370125,161.51805110037094 88.32371623115614,163.00853295001434 88.46581082069315,163.5738873029477 88.98682431597263,164.49901162151946 89.31837835838087,164.91017759247916 89.36574322148226,165.16715620137984 89.69729726412334,165.4755304075079 89.93412157986313,165.98948711535195 90.2656756225042,166.96600381919416 90.59722966491245,167.6341460411786 90.54986480181105,168.97042856935877 91.16560802306049,170.1525225227815 91.35506747616455,170.7178710983717 91.68662151833996,171.3346144775278 92.25499987672083,172.05414773215307 92.53918905602768,172.20833333331393 91.44979720236734,170.6664757921826 91.21297288639471,169.8441503798822 90.73932425421663,168.81624225410633 90.54986480181105,168.14810116199078 89.93412157986313,167.2743772318354 89.41310808481649,165.78390447760466" stroke="#4dd2ff" stroke-linecap="round" stroke-linejoin="round" stroke-width="0.5"><title>2023-10-20 1.4km</title><desc>10069668027</desc></polyline><polyline fill="none" points="107.17527352948673,151.95833333331393 107.27171675954014,152.74322778818896 108.04326259996742,154.62697094748728 108.23614906030707,155.77814486814896 109.82746235630475,159.65026166231837 109.97212720150128,160.17351907264674 110.06857043178752,160.95840446691727 110.26145689189434,161.48166091559688 111.41877565253526,163.10375346138608 112.04565664823167,164.35956450609956 112.43142956844531,165.6153733349638 112.76898087374866,166.2956021921127 112.96186733385548,167.34210685663857 113.20297540910542,167.86535861185985 113.829856404569,169.48743660835316 113.92629963462241,170.11533677583793 114.84251032047905,171.9990339545766 115.08361839549616,172.20833333331393 115.22828324069269,172.20833333331393 115.32472647051327,172.1560084943194 115.27650485583581,172.10368365154136 114.31207255506888,170.90021120611345 113.87807801971212,169.4351115693571 112.96186733385548,167.76070829154924 112.81720248865895,167.08048083470203 112.72075925860554,165.9293251960189" stroke="#4dd2ff" stroke-linecap="round" stroke-linejoin="round" stroke-width="0.5"><title>2023-10-19 1.3km</title><desc>10064004415</desc></polyline><polyline fill="none" points="129.18378014536574,151.95833333337214 131.16909312503412,154.54345140454825 131.03673892654479,156.41047899518162 131.30144732398912,158.27750480151735 132.22792671527714,161.58069993299432 133.5514687015675,163.73495461873244 134.87501068832353,167.46899044618476 137.5220946627669,171.77748445491306 137.91915725870058,172.20833333337214 138.3162198541686,172.0647170508746 136.5956152714789,170.34132084075827 133.41911450307816,164.16580527077895 132.62498931074515,161.4370828694664 130.37496793316677,156.69771385064814" stroke="#4dd2ff" stroke-linecap="round" stroke-linejoin="round" stroke-width="0.5"><title>2023-10-18 1.0km</title><desc>10058081424</desc></polyline><polyline fill="none" points="152.71554141491652,153.18561165465508 153.84656816208735,159.78222026547883 156.8155133742839,167.60607786185574 158.79481018148363,171.74810824298766 159.64308024197817,172.20833333337214 160.06721527222544,172.20833333337214 160.34997195890173,171.59469985740725 159.36032355576754,170.36743236274924 158.08791846502572,168.37312114564702 156.39137834357098,164.69131081330124 155.68448662711307,162.54358511976898 152.71554141491652,156.5606233170256 152.43278472870588,155.6401661322452 152.15002804156393,151.95833333337214" stroke="#4dd2ff" stroke-linecap="round" stroke-linejoin="round" stroke-width="0.5"><title>2023-10-17 1.0km</title><desc>10051702317</desc></polyline><polyline fill="none" points="174.2280667326413,152.42564320727251 175.66360110323876,154.91796079440974 177.8169026589021,160.52566464548 178.96533015556633,162.70643435709644 180.25731108849868,166.75642929505557 181.83639889676124,170.80641649197787 182.4106126446277,171.8967963376781 183.12837982969359,172.20833333337214 183.2719332673587,172.0525648414623 183.12837982969359,171.58525929611642 181.54929202236235,169.24873002478853 179.395990466699,163.95258747017942 177.8169026589021,160.68143398489337 176.5249217255041,154.60642125597224 175.80715453997254,151.95833333337214" stroke="#4dd2ff" stroke-linecap="round" stroke-linejoin="round" stroke-width="0.5"><title>2023-10-16 1.0km</title><desc>10046279660</desc></polyline><polyline fill="none" points="17.102900707162917,176.125 17.69534346461296,177.41071986232419 18.28778622020036,180.3035867883591 19.620782421901822,184.80359439761378 21.39811068959534,187.53573735512327 23.471660335548222,195.25000492099207 24.212213781662285,196.05357289360836 25.248988604173064,196.375 25.397099293768406,196.05357289360836 25.248988604173064,195.08929129096214 23.323549646884203,192.35715777392033 22.2867748234421,189.14287867606618 21.101889312267303,187.21430894907098 18.28778622020036,180.62501621060073 17.25101139675826,176.125" stroke="#4dd2ff" stroke-linecap="round" stroke-linejoin="round" stroke-width="0.5"><title>2023-10-15 1.0km</title><desc>10039610121</desc></polyline><polyline fill="none" points="39.53601107932627,177.5947642774554 39.98750989232212,182.3306647790596 41.191506726667285,185.76010366680566 42.69650277029723,187.88308699114714 43.59950039628893,190.82259901426733 46.157993668690324,195.39516554027796 46.75999208539724,196.0483885614667 47.51249010767788,196.375 47.96398892067373,196.0483885614667 47.96398892067373,195.5584713134449 44.95399683434516,193.10888345376588 42.99750197865069,189.51614970644005 42.24500395730138,186.4133295211941 40.439008705317974,182.3306647790596 39.53601107932627,178.9012205969775 39.68651068396866,176.77822868782096 39.53601107932627,176.125" stroke="#4dd2ff" stroke-linecap="round" stroke-linejoin="round" stroke-width="0.5"><title>2023-10-14 1.0km</title><desc>10033377496</desc></polyline><polyline fill="none" points="61.65856931451708,176.44643003679812 64.3245613258332,179.66072780278046 64.6207826603204,182.0714480257593 67.1386640034616,189.7857348738471 69.5084346793592,195.41071853914764 70.2489880155772,196.375 70.84143068548292,196.375 70.84143068548292,195.89285932295024 70.693320017308,195.41071853914764 69.3603240121156,194.4464366529137 67.8792173396796,191.71430233237334 66.25,186.57145199575461 63.287786655128,179.9821573193185 62.8434546533972,177.73214971018024 62.10290131624788,176.125" stroke="#4dd2ff" stroke-linecap="round" stroke-linejoin="round" stroke-width="0.5"><title>2023-10-13 1.0km</title><desc>10028006924</desc></polyline><polyline fill="none" points="84.40504435403273,176.125 85.82961997529492,177.97996994643472 86.68436534842476,179.52577698463574 86.82682291138917,181.5353244356811 86.68436534842476,183.6994503120659 88.2513985321857,186.9456349503016 90.10334684047848,191.89219238027 91.95529514877126,195.29294386308175 92.38266783533618,195.9112617240753 93.09495564550161,196.375 93.09495564550161,195.60210281633772 91.52792246220633,193.59256880928297 90.10334684047848,191.11929354909807 88.2513985321857,186.01815413648728 87.11173803498968,184.008610969875 86.54190778639168,182.30822679039557" stroke="#4dd2ff" stroke-linecap="round" stroke-linejoin="round" stroke-width="0.5"><title>2023-10-12 1.0km</title><desc>10021974100</desc></polyline><polyline fill="none" points="108.8824395830743,178.99628079403192 109.43951262207702,182.01867729763035 109.30024436255917,183.22763465484604 110.55365870054811,187.30786048504524 111.52853651950136,189.12129158736207 112.5034143384546,192.44591112039052 113.89609693642706,195.77052527631167 114.17463345639408,196.07276266010012 114.87097475584596,196.375 114.73170649539679,195.77052527631167 113.19975563744083,191.84143524174578 111.52853651950136,188.97017238975968 109.30024436255917,183.83211306645535 108.74317132262513,181.86755757802166 108.46463480358943,178.99628079403192 107.62902524415404,176.125" stroke="#4dd2ff" stroke-linecap="round" stroke-linejoin="round" stroke-width="0.5"><title>2023-10-10 1.0km</title><desc>10009069592</desc></polyline><polyline fill="none" points="130.31949557503685,178.65626107272692 131.28003681404516,181.33641640702263 132.24057805305347,184.90995133598335 134.29888070886955,189.37686113012023 135.94552283268422,195.03493272676133 136.90606407169253,196.375 137.18050442589447,195.9283110073302 137.3177246027626,194.290450524888 136.3571833637543,191.4614156623138 134.29888070886955,187.88789229327813 131.96613769978285,181.33641640702263 131.28003681404516,178.35846581635997 130.18227539770305,176.125" stroke="#4dd2ff" stroke-linecap="round" stroke-linejoin="round" stroke-width="0.5"><title>2023-10-09 1.0km</title><desc>10003389142</desc></polyline><polyline fill="none" points="152.12701159808785,176.125 153.139675416518,177.3808195394231 154.1523392344825,179.73547918454278 154.73100427305326,184.4447906849673 156.9009981690906,189.15409179858398 158.78165954491124,194.4912871712586 159.64965710323304,196.06104797730222 160.37298840191215,196.375 160.37298840191215,195.11919163237326 157.6243294677697,190.72385652828962 154.0076729748398,181.93315917695872 152.56101037748158,176.2819774830714" stroke="#4dd2ff" stroke-linecap="round" stroke-linejoin="round" stroke-width="0.5"><title>2023-10-08 1.0km</title><desc>9996447828</desc></polyline><polyline fill="none" points="176.1506583634764,180.17501667432953 176.8171562193893,182.63395130157005 178.816649785731,187.98573957325425 179.48314764164388,190.30002188449726 181.61594077944756,195.6517893030541 182.28243863536045,196.375 182.41573820635676,195.79643146391027 182.41573820635676,195.21786275773775 179.8830463550985,190.7339495148044 178.68335021473467,188.13038229721133 176.550557076931,181.76609237212688 175.8840592210181,178.43929626303725 175.0842617941089,176.125" stroke="#4dd2ff" stroke-linecap="round" stroke-linejoin="round" stroke-width="0.5"><title>2023-10-07 1.0km</title><desc>9989974159</desc></polyline><polyline fill="none" points="19.59557300293818,206.32360351155512 20.65440628072247,209.77041620307136 21.448531239759177,211.49382026866078 23.03678115690127,218.24380488495808 23.433843636419624,219.53635246958584 24.22796859499067,220.54166666662786 24.889739393722266,220.54166666662786 25.154447712935507,219.96720147447195 25.02209355402738,219.53635246958584 23.433843636419624,217.23848950501997 21.84559371881187,213.79168999032117 21.316177079919726,211.49382026866078 18.536739725153893,204.743812328903 18.13967724563554,202.30231435096357 17.345552287064493,200.29166666662786" stroke="#4dd2ff" stroke-linecap="round" stroke-linejoin="round" stroke-width="0.5"><title>2023-10-06 1.0km</title><desc>9984428862</desc></polyline><polyline fill="none" points="39.39044428616762,200.29166666662786 41.684947294183075,206.4330792982364 43.214615965262055,211.57857431669254 45.81505270767957,218.05192236078437 46.88582077715546,220.20970091840718 47.34472137875855,220.54166666662786 47.95658884849399,220.54166666662786 48.1095557147637,220.20970091840718 47.65065511316061,219.3797863323707 45.81505270767957,216.72405760886613 44.74428463727236,214.56627572025172 42.908682230859995,209.75275484623853 42.143847895786166,207.26299864286557 40.002311755903065,203.27938300638925 40.002311755903065,201.7855253306916" stroke="#4dd2ff" stroke-linecap="round" stroke-linejoin="round" stroke-width="0.5"><title>2023-10-04 1.0km</title><desc>9971682885</desc></polyline><polyline fill="none" points="63.18508319184184,202.65664068912156 63.866175815463066,205.02161193010397 64.54726843954995,206.64752804441378 65.09214253909886,209.1603049073601 67.68029451044276,214.3336591485422 67.8165130354464,216.10737753810827 68.63382418453693,219.6548096233746 68.9062612336129,220.09823819377925 69.72357238270342,220.54166666662786 69.72357238270342,219.0635713771917 67.95273156045005,215.81175791530404 66.72676483727992,213.0033693293808 66.04567221272737,211.67307863000315 65.36457958864048,209.75154606590513 64.00239434093237,206.94314901495818 63.4575202409178,204.72599067701958 63.18508319184184,202.50882989447564 62.77642761729658,200.29166666662786" stroke="#4dd2ff" stroke-linecap="round" stroke-linejoin="round" stroke-width="0.5"><title>2023-10-03 1.0km</title><desc>9965060084</desc></polyline><polyline fill="none" points="85.04845587722957,201.12844709400088 86.89922793861479,207.1532570925774 87.20768994838,209.83094530692324 88.28730698488653,211.16978823265526 89.05846201069653,213.1780511450488 90.44654105603695,218.36605546902865 91.52615809161216,220.03960272856057 92.29731311742216,220.54166666662786 92.45154412277043,220.37431203282904 91.98885110765696,219.03547452029306 90.29231005162,215.8557322723791 87.51615195907652,209.1615235483041 85.81961090210825,204.14085408637766 85.51114889234304,200.29166666662786" stroke="#4dd2ff" stroke-linecap="round" stroke-linejoin="round" stroke-width="0.5"><title>2023-10-02 1.0km</title><desc>9958643020</desc></polyline><polyline fill="none" points="108.04014479368925,203.8556801606901 108.33873597532511,205.31368401984219 111.62323897797614,213.08968830667436 113.265490478836,218.1116764920298 114.16126402467489,219.89366954844445 115.05703757051378,220.54166666662786 115.20633316133171,220.37966740492266 115.05703757051378,219.7316702393582 112.07112575042993,215.19568474590778 109.234509521164,208.2296888428973 107.89084920194,204.0176806373056 107.29366683866829,200.29166666662786" stroke="#4dd2ff" stroke-linecap="round" stroke-linejoin="round" stroke-width="0.5"><title>2023-10-01 1.0km</title><desc>9952075403</desc></polyline><polyline fill="none" points="130.84252363303676,203.22646200540476 132.05960676353425,205.7210346502252 132.60053259832785,208.21560417755973 133.00622697547078,210.56343147263397 135.03469885932282,216.2862489343388 136.79270782507956,219.95471303607337 137.60409657796845,220.54166666662786 137.8745594965294,220.1014514598064 135.16993031837046,215.99277151515707 133.95284718833864,213.2047338783741 133.5471528111957,211.73734408442397 131.65391238685697,207.62864692218136 130.57206071494147,203.07972234068438 129.62544050300494,200.29166666662786" stroke="#4dd2ff" stroke-linecap="round" stroke-linejoin="round" stroke-width="0.5"><title>2023-09-30 1.0km</title><desc>9945549317</desc></polyline><polyline fill="none" points="153.1147944321856,200.29166666662786 154.45845396164805,202.5596759208711 154.90634047053754,204.34168155433144 156.1007044967264,207.25768766424153 156.69788650982082,211.63168959354516 157.14577301964164,212.9276884975843 158.93731905706227,217.30167917197105 159.3852055668831,220.055668846122 159.6837965734303,220.37966740503907 160.13168308325112,220.54166666662786 160.28097858652472,220.2176681313431 157.59365952853113,215.35768438887317 155.80211349017918,211.14568980794866 155.20493147801608,208.71568927180488 153.1147944321856,203.85568016127218 152.21902141347528,200.9396695488831" stroke="#4dd2ff" stroke-linecap="round" stroke-linejoin="round" stroke-width="0.5"><title>2023-09-28 1.0km</title><desc>9933629332</desc></polyline><polyline fill="none" points="174.7914034742862,202.59281292685773 175.9224310531281,206.58146043377928 178.04310776293278,209.4962364824023 179.45689223660156,214.71214135515038 181.43619049945846,218.24054019979667 182.00170428911224,220.23484995088074 182.5672180778347,220.54166666662786 182.84997497312725,220.08144157601055 182.5672180778347,219.4678079644218 181.43619049945846,217.9337231455138 178.18448621034622,211.33714557311032 176.48794484185055,206.73486980074085 174.65002502687275,200.29166666662786" stroke="#4dd2ff" stroke-linecap="round" stroke-linejoin="round" stroke-width="0.5"><title>2023-09-27 1.0km</title><desc>9927137811</desc></polyline><polyline fill="none" points="22.932236537570134,224.45833333331393 22.52849976834841,226.40547563385917 22.12476299959235,227.52507986332057 21.810745512368158,228.8880737608415 19.971500231185928,232.73364855814725 19.029447770444676,234.34002128941938 18.850009206216782,235.0215115735191 18.939728488214314,235.55696773336967 19.164026693208143,236.335812283447 19.83692130818963,237.99085391045082 20.06121951318346,238.4289524721098 20.330377359408885,239.2077936436981 21.22757017915137,240.3273762227618 21.631306948373094,241.20356996386545 22.079903358593583,241.88505318324314 22.43878048658371,242.85859942255775 22.9770961785689,243.58875816257205 23.649990793550387,244.70833333331393" stroke="#4dd2ff" stroke-linecap="round" stroke-linejoin="round" stroke-width="0.5"><title>2023-09-26 1.0km</title><desc>9920397094</desc></polyline><polyline fill="none" points="43.655430658720434,224.45833333331393 42.77278347173706,227.40008366759866 41.89013628475368,228.9735742143821 41.070535325212404,229.99976226786384 40.629211731953546,230.82071189570706 40.44007304892875,231.64166079915594 40.50311927613802,232.66784590989118 40.81835041474551,233.48879318370018 41.574905146379024,234.6518005816033 41.89013628475368,235.81480652588652 42.5205985608045,237.31987088400638 43.718476886162534,238.82493280782364 45.73595617059618,242.9296347720665 47.05992695130408,244.70833333331393" stroke="#4dd2ff" stroke-linecap="round" stroke-linejoin="round" stroke-width="0.5"><title>2023-09-25 1.0km</title><desc>9914573673</desc></polyline><polyline fill="none" points="67.74293000507168,224.45833333331393 67.24528667028062,225.21434336691163 67.14575800322928,225.59234809182817 67.24528667028062,226.07835388096282 67.2950510038063,226.56435934826732 66.29976433352567,228.40037710027536 66.05094266589731,229.64238650619518 65.70259233145043,230.56039210839663 63.61249032407068,234.23240304231877 63.562725990545005,234.66440312145278 63.761783324414864,235.52840251784073 64.30919099319726,236.3924008976901 64.6077769943513,237.14839864632813 65.05565599561669,237.90439561667154 65.30447766324505,238.66039180883672 65.9514139990788,239.68638539657695 66.44905733386986,240.71237755101174 66.99646500288509,241.30637235374888 67.14575800322928,241.84636721207062 67.49410833767615,242.27836281282362 68.24057334032841,243.574348090915 68.78798100887798,244.16834057902452 68.937274009455,244.70833333331393" stroke="#4dd2ff" stroke-linecap="round" stroke-linejoin="round" stroke-width="0.5"><title>2023-09-24 1.0km</title><desc>9907510217</desc></polyline><polyline fill="none" points="89.50492160650901,224.45833333331393 89.08216550690122,225.1136803429108 88.78019686439075,225.76902687054826 88.59901567874476,226.62097663618624 88.5386219501961,227.7350635623443 87.51192856533453,229.11128666636068 86.90799128031358,230.68411046854453 86.36444772337563,231.47052132879617 86.0020853523165,232.51906806329498 85.94169162353501,233.63314761698712 87.20995992282405,236.84431030391715 87.69310975074768,237.82731697696727 89.2633466925472,240.31759569660062 89.92767770611681,241.95593316521263 90.77318990556523,243.00446756463498 91.25633973395452,243.85640085610794 91.55830837669782,244.70833333331393" stroke="#4dd2ff" stroke-linecap="round" stroke-linejoin="round" stroke-width="0.5"><title>2023-09-23 1.0km</title><desc>9901004991</desc></polyline><polyline fill="none" points="112.02756968373433,224.45833333331393 111.62438540323637,225.20834193611518 111.22120112297125,226.5208553984412 110.29963705362752,228.45837156730704 109.37807298428379,229.77088001114316 108.57170442352071,231.95838958065724 108.51410666899756,233.14589241793146 108.62930217804387,233.8333933026297 109.78125726454891,236.58339128014632 109.9540505274199,237.3958889800706 110.18444154481404,237.83338741987245 110.99081010557711,238.83338300831383 111.62438540323637,240.0833758393419 112.14276519208215,241.39586633403087 113.00673150736839,242.64585539727705 113.98589333100244,244.70833333331393" stroke="#4dd2ff" stroke-linecap="round" stroke-linejoin="round" stroke-width="0.5"><title>2023-09-22 1.0km</title><desc>9895405405</desc></polyline><polyline fill="none" points="134.82345788786188,224.45833333331393 134.6583105204627,225.05568569112802 134.32801578589715,225.41409689502325 133.61237719398923,226.72826995630749 133.33713158173487,227.6840308473911 132.51139474497177,229.77475387667073 131.63060878613032,231.5667979050777 131.08011756138876,232.88096101366682 130.91497019398957,233.53804177069105 130.91497019398957,233.95618379395455 131.08011756138876,234.5535291681299 131.4104122959543,235.15087410318665 132.12605088809505,237.00264061050257 132.84168947977014,238.31679492612602 133.22703333687969,239.27254218421876 133.94267192855477,240.46722467575455 134.3830649079755,241.00483122392325 134.71335964277387,241.9605753198848 135.59414560184814,243.5136570779141 136.5850298057776,244.70833333331393" stroke="#4dd2ff" stroke-linecap="round" stroke-linejoin="round" stroke-width="0.5"><title>2023-09-21 1.0km</title><desc>9889267953</desc></polyline><polyline fill="none" points="158.311701788567,224.45833333331393 157.58904342958704,226.6263600223465 157.1639502774924,228.33309916598955 156.4838012335822,229.76306622481206 155.67612424399704,232.16171332629165 154.2733168413397,234.79098903591512 153.89073300431482,236.22094137454405 153.9332423193846,236.5438333870261 154.1882982107345,237.23574428271968 154.74091930896975,238.43505469430238 155.08099383092485,239.44985402107704 155.93118013557978,240.64916020003147 156.44129191851243,241.61782890179893 156.7388571249321,242.30973420158261 157.07893164665438,242.9093848442426 157.63155274488963,243.32452726108022 158.311701788567,244.33931867918 158.35421110410243,244.52382603340084 158.60926699545234,244.70833333331393" stroke="#4dd2ff" stroke-linecap="round" stroke-linejoin="round" stroke-width="0.5"><title>2023-09-20 1.0km</title><desc>9882714971</desc></polyline><polyline fill="none" points="180.42906590504572,224.45833333331393 179.99730610102415,225.55153578415047 179.1817598042544,227.94616382510867 179.13378649251536,228.72701904381393 178.84594662301242,229.14347480831202 178.5101334422361,229.92432870634366 178.3182401957456,230.6531249009422 177.93445370299742,231.64220425055828 176.83106753672473,233.41213226976106 176.5432276672218,234.45326433179434 176.44728104420938,235.3902818786446 176.5432276672218,236.32729818520602 176.83106753672473,237.3684259604197 177.16688071750104,238.09721449221252 178.22229357250035,239.91918253951008 178.75,240.6479684455553 179.22973311552778,241.9493699836312 179.70946623152122,242.78226571256528 180.189199347049,243.45899277093122 180.71690577454865,243.97955160652054 181.05271895579062,244.70833333331393" stroke="#4dd2ff" stroke-linecap="round" stroke-linejoin="round" stroke-width="0.5"><title>2023-09-19 1.0km</title><desc>9876194288</desc></polyline><polyline fill="none" points="21.10094494954683,248.625 20.743212828878313,249.20727487810655 20.14699262776412,250.3718234784319 19.968126567313448,251.14818835549522 18.89493020484224,253.02440064720577 18.06022192304954,254.77121539146174 17.881355862598866,255.41818293527467 17.94097788305953,256.12984668376157 18.298710003728047,257.0355997134466 18.835308184847236,258.0060483532725 19.31228434597142,259.36467465094756 19.968126567313448,260.7879951891373 20.68359080865048,262.08192095329287 21.339433030225337,262.92297167977085 22.114519291790202,264.21689430449624 22.591495452681556,265.70490297081415 23.426203734707087,266.99882150505437 23.843557875603437,268.1633465591003 24.618644137401134,268.875" stroke="#4dd2ff" stroke-linecap="round" stroke-linejoin="round" stroke-width="0.5"><title>2023-09-18 1.0km</title><desc>9870505463</desc></polyline><polyline fill="none" points="43.953476201277226,248.625 43.66279591363855,249.19276352168527 43.255843511084095,251.08530588028952 42.73261899338104,251.96849088562885 42.50007476331666,252.662421323359 41.221081498079,254.74420926929452 40.75599303795025,255.87972783809528 40.46531275031157,256.88907641521655 40.697856980375946,257.5830028732307 41.976850245613605,260.3587030930212 42.616346878465265,261.368046401185 43.08143533836119,262.44047236500774 43.83720408612862,263.44981322425883 44.244156488915905,264.14373437612085 44.76738100638613,265.7839094134979 47.03468724968843,268.875" stroke="#4dd2ff" stroke-linecap="round" stroke-linejoin="round" stroke-width="0.5"><title>2023-09-16 1.0km</title><desc>9856514700</desc></polyline><polyline fill="none" points="65.97007456398569,248.625 65.34801803971641,250.51501889922656 64.53934455802664,251.79752950766124 62.859791942173615,255.0375483268872 62.79758628970012,255.78005102928728 62.859791942173615,256.6575534485164 63.23302585678175,257.53505502908956 63.855082381283864,258.4800557931885 64.41493325307965,259.7625552743557 65.41022369195707,261.450051862048 66.6543367409613,263.8125418740674 66.77874804567546,264.6900366158807 67.21418761275709,265.027534370136 67.71183283231221,265.7025295064668 68.52050631376915,267.05251829046756 69.39138544793241,267.7950112755061 69.57800240535289,268.2675064987852 69.70241371029988,268.875" stroke="#4dd2ff" stroke-linecap="round" stroke-linejoin="round" stroke-width="0.5"><title>2023-09-15 1.0km</title><desc>9850671982</desc></polyline><polyline fill="none" points="89.26480475603603,248.625 88.23519524396397,251.34830099134706 87.0768845428247,253.02417464280734 86.5620797870215,253.931938302645 85.78987265285105,255.88711862289347 85.59682086925022,256.58539633319015 85.59682086925022,257.1440181314829 85.78987265285105,257.8422949176165 86.5620797870215,259.93712219555164 87.26993632642552,261.3336711471202 89.00740237813443,264.33624443912413 89.71525891753845,265.66295984660974 89.84396010637283,266.43105739331804 90.35876486264169,266.9198464176734 91.19532259111293,268.246558215993 91.90317913074978,268.875" stroke="#4dd2ff" stroke-linecap="round" stroke-linejoin="round" stroke-width="0.5"><title>2023-09-14 1.0km</title><desc>9844236351</desc></polyline><polyline fill="none" points="108.03165259608068,248.625 108.40210985112935,248.9264932339429 108.5410313217435,249.22798633488128 108.63364563579671,249.88122093037236 108.91148857702501,250.43395740829874 109.09671720466577,251.99166689504636 109.09671720466577,252.74539601715514 109.00410289084539,253.14738454233157 109.09671720466577,253.64986986643635 109.32825298910029,254.2528517676401 109.23563867527992,254.7553362788749 109.28194583207369,255.00657839589985 109.74501740117557,255.8608009031159 110.16178181325085,257.1170085329795 110.53223906829953,257.8204837971134 110.99531063716859,258.47371017967816 111.50468936283141,258.92594346334226 111.6436108336784,259.22743215295486 111.78253230429254,259.88065719080623 112.15298955957405,260.53388160432223 112.5697539714165,261.73983272747137 113.12543985410593,262.7950382147101 113.40328279556707,263.69949876429746 113.54220426618122,264.45321497449186 113.82004720764235,265.05618734436575 114.32942593330517,266.7143586183083 115.02403328684159,268.02079375850735 115.07034044386819,268.2217835584306 115.02403328684159,268.37252586957766 114.46834740391932,268.875 114.74619034538046,268.674010392162 114.8851118159946,268.37252586957766 114.97772612981498,268.12128866591956 114.93141897302121,267.76955642551184 114.65357603179291,267.4178240040201 113.82004720764235,265.60891154926503 113.40328279556707,264.25222406635294 112.52344681462273,262.29255961440504 112.10668240254745,260.38313756434945 111.87514661811292,259.83040913322475 110.99531063716859,258.67470278718974 110.11547465622425,257.01651200756896 109.69871024414897,255.6598074681242 109.55978877376765,254.7553362788749 109.18933151825331,253.8006153916358 108.44841700815596,252.19266140891705 108.2631883805152,251.43893167714123 107.6148881840054,250.23296237713657 107.47596671339124,249.57972811779473 107.42965955636464,248.77574663364794" stroke="#4dd2ff" stroke-linecap="round" stroke-linejoin="round" stroke-width="0.5"><title>2023-09-13 1.0km</title><desc>9837636972</desc></polyline></svg>