<svg xmlns="http://www.w3.org/2000/svg" xmlns:ev="http://www.w3.org/2001/xml-events" xmlns:xlink="http://www.w3.org/1999/xlink" width="200mm" height="300mm" baseProfile="full" version="1.1" viewBox="0 0 200 300"><rect width="200" height="300" x="0" y="0" fill="#222"/><text fill="#FFF" style="font-size:12px;font-family:Arial;font-weight:700" x="10" y="20">Over 1km Runs</text><text fill="#FFF" style="font-size:4px;font-family:Arial" x="10" y="280">ATHLETE</text><text fill="#FFF" style="font-size:9px;font-family:Arial" x="10" y="290">Jiakai</text><text fill="#FFF" style="font-size:4px;font-family:Arial" x="120" y="280">STATISTICS</text><text fill="#FFF" style="font-size:3px;font-family:Arial" x="120" y="285">Number: 104</text><text fill="#FFF" style="font-size:3px;font-family:Arial" x="120" y="290">Weekly: 5.2</text><text fill="#FFF" style="font-size:3px;font-family:Arial" x="141" y="285">Total: 107.6 km</text><text fill="#FFF" style="font-size:3px;font-family:Arial" x="141" y="290">Avg: 1.0 km</text><text fill="#FFF" style="font-size:3px;font-family:Arial" x="167" y="285">Min: 1.0 km</text><text fill="#FFF" style="font-size:3px;font-family:Arial" x="167" y="290">Max: 1.5 km</text><polyline fill="none" stroke="#4dd2ff" stroke-linecap="round" stroke-linejoin="round" stroke-width=".5" points="11 33.66 11.094 33.967 11.471 35.194 12.414 39.898 12.979 40.92 13.921 43.579 15.147 45.215 15.524 45.931 16.183 46.238 17.597 46.34 21.649 46.033 23.628 45.215 24.571 44.704 27.304 43.784 27.963 43.068 28.623 42.863 29 42.352 28.529 40.92"><title>2024-03-05 1.0km</title><desc>10891326638</desc></polyline><polyline fill="none" stroke="#4dd2ff" stroke-linecap="round" stroke-linejoin="round" stroke-width=".5" points="44.993 47.378 47.818 46.095 48.869 45.168 49 44.598 48.54 43.172 48.015 41.818 46.964 40.321 46.438 39.822 44.861 37.256 43.088 34.903 43.219 34.262 43.088 33.977 42.234 32.622 39.343 32.836 38.358 33.192 36.65 33.406 34.81 34.19 33.562 35.046 32.38 35.331 31.788 35.759 31.328 35.83 31.131 36.044 31 36.471 31.197 36.828 31.263 37.612 31.591 38.681 31.46 39.964 31.854 40.891 31.788 42.174"><title>2024-03-04 1.0km</title><desc>10884866628</desc></polyline><polyline fill="none" stroke="#4dd2ff" stroke-linecap="round" stroke-linejoin="round" stroke-width=".5" points="51 33.371 51.187 34.788 51.653 36.306 51.653 36.913 52.119 38.128 52.585 39.949 53.798 42.884 55.57 45.617 56.596 46.426 57.715 46.629 60.42 46.325 64.15 45.515 65.269 44.706 66.855 43.997 69 42.682"><title>2024-03-03 1.0km</title><desc>10877188327</desc></polyline><polyline fill="none" stroke="#4dd2ff" stroke-linecap="round" stroke-linejoin="round" stroke-width=".5" points="71 45.899 72.45 47.21 73.658 47.734 74.262 47.734 76.799 47.472 81.872 46.161 86.705 44.195 88.758 42.622 89 42.36 88.758 40.918 88.034 39.082 84.047 32.266"><title>2024-03-02 1.0km</title><desc>10870189784</desc></polyline><polyline fill="none" stroke="#4dd2ff" stroke-linecap="round" stroke-linejoin="round" stroke-width=".5" points="99.947 31 100.479 32.269 100.691 33.077 100.798 34.923 104.2 43 104.945 45.192 104.945 45.538 104.413 46 102.712 46.923 100.266 47.5 97.501 48.654 96.012 49 95.587 48.769 95.055 46.692"><title>2024-01-19 1.0km</title><desc>10585384707</desc></polyline><polyline fill="none" stroke="#4dd2ff" stroke-linecap="round" stroke-linejoin="round" stroke-width=".5" points="116.752 33.266 116.868 35.154 117.1 36.035 119.304 39.937 120.348 42.329 120.928 44.343 121.972 46.357 122.088 48.245 122.784 48.874 123.132 49 123.596 48.874 123.48 48.371 122.784 47.238 119.42 39.559 117.332 35.28 116.404 31"><title>2024-01-17 1.0km</title><desc>10572816563</desc></polyline><polyline fill="none" stroke="#4dd2ff" stroke-linecap="round" stroke-linejoin="round" stroke-width=".5" points="136.63 31 137.667 35.078 139.87 42.25 141.426 45.203 142.333 48.016 142.981 48.859 143.37 49 143.37 48.438 140.648 42.672 138.186 36.344 136.63 33.25"><title>2024-01-16 1.0km</title><desc>10566280205</desc></polyline><polyline fill="none" stroke="#4dd2ff" stroke-linecap="round" stroke-linejoin="round" stroke-width=".5" points="156.383 31.406 158.254 35.331 159.751 40.474 161.497 43.992 162.993 48.323 163.368 49 163.617 49 159.875 41.286 159.002 38.579 158.379 36.143 157.506 34.383 156.632 31"><title>2024-01-09 1.0km</title><desc>10520988068</desc></polyline><polyline fill="none" stroke="#4dd2ff" stroke-linecap="round" stroke-linejoin="round" stroke-width=".5" points="176.757 32.489 177.381 35.06 178.628 37.767 180.873 44.669 182.619 48.594 182.993 49 183.243 48.729 182.869 47.241 182.245 46.293 180.374 41.421 178.628 37.767 177.131 31"><title>2024-01-07 1.0km</title><desc>10508221625</desc></polyline><polyline fill="none" stroke="#4dd2ff" stroke-linecap="round" stroke-linejoin="round" stroke-width=".5" points="18.587 56.333 18.833 57.667 19.939 60.467 20.922 63.8 22.888 68.6 23.379 69 23.379 68.067 22.273 66.2 21.659 64.2 19.201 59 18.341 56.733 17.727 55.667 16.621 51"><title>2024-01-06 1.0km</title><desc>10501510624</desc></polyline><polyline fill="none" stroke="#4dd2ff" stroke-linecap="round" stroke-linejoin="round" stroke-width=".5" points="37.622 54.273 38.55 56.538 39.246 59.434 40.406 63.21 41.682 65.979 42.494 67.993 42.958 68.748 43.422 69 43.306 68.119 42.726 66.734 38.898 59.434 38.202 57.294 37.97 55.28 37.158 53.14 36.578 51"><title>2024-01-05 1.0km</title><desc>10495609202</desc></polyline><polyline fill="none" stroke="#4dd2ff" stroke-linecap="round" stroke-linejoin="round" stroke-width=".5" points="56.207 51 56.978 52.814 57.621 54.767 58.521 56.581 60.193 61.326 62.25 66.07 63.022 68.581 63.536 69 63.793 68.302 63.665 67.326 60.579 61.047 59.55 57.419 58.521 51.558"><title>2024-01-04 1.0km</title><desc>10489071805</desc></polyline><polyline fill="none" stroke="#4dd2ff" stroke-linecap="round" stroke-linejoin="round" stroke-width=".5" points="77.5 54.309 79.085 58.676 81.037 63.044 82.013 66.75 82.866 69 82.988 69 82.988 68.074 82.378 65.824 81.159 63.044 80.183 60.265 78.597 57.088 77.622 54.176 77.012 52.324 77.378 51"><title>2024-01-03 1.0km</title><desc>10482519748</desc></polyline><polyline fill="none" stroke="#4dd2ff" stroke-linecap="round" stroke-linejoin="round" stroke-width=".5" points="96.367 51.298 99.52 60.521 102.81 68.405 103.496 69 103.633 68.405 103.222 67.364 99.794 60.818 98.561 57.545 96.778 51"><title>2024-01-01 1.0km</title><desc>10470902913</desc></polyline><polyline fill="none" stroke="#4dd2ff" stroke-linecap="round" stroke-linejoin="round" stroke-width=".5" points="127.617 55.408 127.391 55.776 125.021 57.49 124.006 58.592 123.329 59.816 122.877 60.429 122.539 60.551 121.072 60.551 119.718 61.041 117.912 60.918 117.01 60.551 116.446 59.694 116.107 58.959 115.994 57.245 115.656 56.51 114.302 56.51 113.173 56.878 113.06 57 113.512 57.245 113.737 57 112.947 57 112.722 56.755 112.496 55.898 112.383 54.429 112.947 54.551 113.399 55.531 114.414 56.633 115.204 56.633 115.881 56.143 116.446 56.265 116.558 56.02 115.543 53.082 115.317 52.959 114.076 52.837 112.835 52.959 113.625 52.959 112.496 51.735 112.383 51 112.722 51.49 113.06 53.082 113.399 53.816 113.737 55.408 113.06 59.571 113.85 63.367 114.527 64.469 114.64 66.306 115.656 69"><title>2023-12-31 1.5km</title><desc>10466792666</desc></polyline><polyline fill="none" stroke="#4dd2ff" stroke-linecap="round" stroke-linejoin="round" stroke-width=".5" points="137.613 55.273 138.926 59.935 140.716 63.691 142.267 68.094 142.745 69 142.984 69 143.103 67.964 142.626 66.54 140.477 62.137 140.477 60.971 138.926 57.604 138.687 55.014 138.21 53.46 136.897 51"><title>2023-12-30 1.0km</title><desc>10458865202</desc></polyline><polyline fill="none" stroke="#4dd2ff" stroke-linecap="round" stroke-linejoin="round" stroke-width=".5" points="160.979 51 158.712 51.224 157.167 52.23 156.033 53.348 155.518 54.689 155.106 59.944 155.621 65.199 155.827 65.981 156.136 66.652 157.785 68.441 159.639 69 161.082 68.776 162.833 67.658 163.864 66.764 164.894 63.745 164.791 61.398 164.482 59.385 164.276 54.466 163.967 53.236 163.348 52.453 162.627 51.894 160.979 51.559 158.712 51.671 157.064 52.565 156.239 53.571 155.621 55.137 155.621 55.919 155.93 57.82 155.724 59.385"><title>2023-12-29 1.0km</title><desc>10454615358</desc></polyline><polyline fill="none" stroke="#4dd2ff" stroke-linecap="round" stroke-linejoin="round" stroke-width=".5" points="177.487 52.909 179.246 59.182 182.011 67.636 182.89 69 183.016 69 183.016 67.636 181.131 61.909 179.623 58.227 178.618 56.318 176.984 51"><title>2023-12-27 1.0km</title><desc>10441997651</desc></polyline><polyline fill="none" stroke="#4dd2ff" stroke-linecap="round" stroke-linejoin="round" stroke-width=".5" points="16.607 73.318 18.618 77.273 19.623 81.364 21.005 83.955 22.639 88.182 23.142 89 23.393 88.864 22.513 86.273 21.257 84.364 17.235 74.818 16.984 72.227 16.607 71"><title>2023-12-17 1.0km</title><desc>10391591057</desc></polyline><polyline fill="none" stroke="#4dd2ff" stroke-linecap="round" stroke-linejoin="round" stroke-width=".5" points="37.08 74.169 38.481 77.845 40.818 82.408 42.92 88.493 43.388 89 43.505 88.873 43.505 88.366 42.92 86.718 39.766 80.507 38.365 76.704 37.313 72.394 36.495 71"><title>2023-12-16 1.0km</title><desc>10386207035</desc></polyline><polyline fill="none" stroke="#4dd2ff" stroke-linecap="round" stroke-linejoin="round" stroke-width=".5" points="57.568 74.383 58.067 76.684 59.813 81.962 60.811 83.586 62.183 88.053 62.557 89 62.806 89 62.806 87.647 60.935 81.962 58.316 77.902 58.191 76.278 57.443 74.383 57.693 73.165 57.194 71"><title>2023-12-14 1.0km</title><desc>10376526598</desc></polyline><polyline fill="none" stroke="#4dd2ff" stroke-linecap="round" stroke-linejoin="round" stroke-width=".5" points="83.864 72.565 82.936 71.783 81.391 71.112 79.948 71 78.506 71.335 76.652 72.342 75.827 73.46 75.209 75.36 75.209 79.609 75.415 80.95 75.827 82.627 75.518 84.64 75.621 85.422 75.724 85.87 76.755 87.658 78.403 88.888 78.918 89 79.948 89 80.979 89 82.833 88.329 83.864 87.323 84.482 86.205 84.688 83.745 84.791 82.068 84.482 80.056 84.688 77.373 84.585 75.025 84.482 74.242 83.761 72.677 83.451 72.342 82.318 71.559 80.052 71.335 78.609 71.559 77.785 71.894 76.239 73.571 75.621 75.919 75.827 77.484"><title>2023-12-13 1.0km</title><desc>10373769329</desc></polyline><polyline fill="none" stroke="#4dd2ff" stroke-linecap="round" stroke-linejoin="round" stroke-width=".5" points="97.834 73.552 99.072 78.657 100.309 81.343 102.785 88.328 103.281 89 103.528 89 103.652 88.463 103.157 87.657 101.176 84.299 98.329 78.522 97.957 76.776 96.596 73.821 96.348 71"><title>2023-12-12 1.0km</title><desc>10365882163</desc></polyline><polyline fill="none" stroke="#4dd2ff" stroke-linecap="round" stroke-linejoin="round" stroke-width=".5" points="116.495 71 117.78 73.789 119.533 78.225 120.818 80.634 122.687 86.465 122.92 87.986 123.388 89 123.505 88.113 123.271 87.099 120.818 81.521 119.065 78.099 118.598 76.704 118.248 73.789 117.313 71.127"><title>2023-12-11 1.0km</title><desc>10361067591</desc></polyline><polyline fill="none" stroke="#4dd2ff" stroke-linecap="round" stroke-linejoin="round" stroke-width=".5" points="140.361 81.044 142.765 88.348 142.885 88.739 143.366 89 143.486 88.87 143.125 87.957 142.043 85.87 140.841 82.609 137.476 75.826 136.514 71"><title>2023-12-10 1.0km</title><desc>10355395415</desc></polyline><polyline fill="none" stroke="#4dd2ff" stroke-linecap="round" stroke-linejoin="round" stroke-width=".5" points="156.829 72.191 158.902 75.5 159.878 79.603 161.952 85.426 162.683 88.603 163.171 89 163.293 88.868 163.293 88.603 163.049 87.544 160.488 82.382 159.878 80.926 159.512 78.676 158.902 76.956 157.926 75.235 157.804 73.382 156.707 71"><title>2023-12-09 1.0km</title><desc>10350143310</desc></polyline><polyline fill="none" stroke="#4dd2ff" stroke-linecap="round" stroke-linejoin="round" stroke-width=".5" points="178.081 74.493 178.824 77.179 180.433 81.075 182.662 87.522 183.652 89 183.528 87.657 182.785 85.373 180.805 81.881 179.567 78.925 178.205 76.776 177.834 74.627 176.348 71"><title>2023-12-08 1.0km</title><desc>10345303898</desc></polyline><polyline fill="none" stroke="#4dd2ff" stroke-linecap="round" stroke-linejoin="round" stroke-width=".5" points="17.1 91 17.332 91.629 17.796 93.266 18.028 95.531 18.492 97.42 20.116 101.448 21.16 105.098 22.204 107.364 22.436 109 22.668 108.874 22.9 108.622 22.9 108.245 22.32 106.734 20.464 103.587 18.26 97.168 17.68 94.524"><title>2023-12-07 1.0km</title><desc>10340288256</desc></polyline><polyline fill="none" stroke="#4dd2ff" stroke-linecap="round" stroke-linejoin="round" stroke-width=".5" points="36.658 91 37.374 92.683 38.687 98.252 40.597 101.748 42.148 106.022 42.864 108.741 43.222 109 43.342 108.094 43.103 106.928 41.193 102.914 39.881 100.971 39.165 99.547 36.778 91.388"><title>2023-12-06 1.0km</title><desc>10334845031</desc></polyline><polyline fill="none" stroke="#4dd2ff" stroke-linecap="round" stroke-linejoin="round" stroke-width=".5" points="58.341 94.103 59.142 98.2 59.943 101.179 61.888 106.269 62.917 108.628 63.26 109 62.803 106.766 61.659 104.655 60.629 101.676 59.142 98.572 58.456 96.214 57.312 93.731 56.74 91"><title>2023-12-05 1.0km</title><desc>10329306344</desc></polyline><polyline fill="none" stroke="#4dd2ff" stroke-linecap="round" stroke-linejoin="round" stroke-width=".5" points="76.694 92.51 77.506 93.769 78.55 97.42 80.638 102.58 81.682 106.105 82.61 108.119 83.306 109 83.306 108.371 80.29 101.448 79.13 97.545 77.854 94.65 76.926 91"><title>2023-12-04 1.0km</title><desc>10324662812</desc></polyline><polyline fill="none" stroke="#4dd2ff" stroke-linecap="round" stroke-linejoin="round" stroke-width=".5" points="96.874 92.662 98.15 97.508 100.191 102.077 101.595 106.923 102.616 108.862 103.381 109 103.381 108.446 102.488 106.923 101.34 103.6 100.064 101.662 99.171 99.308 97.639 93.769 96.619 91"><title>2023-12-02 1.0km</title><desc>10313350310</desc></polyline><polyline fill="none" stroke="#4dd2ff" stroke-linecap="round" stroke-linejoin="round" stroke-width=".5" points="116.733 91.955 117.989 93.591 119.497 98.773 120.503 103 122.136 107.636 123.142 109 123.267 108.182 123.016 106.545 121.634 103.545 119.497 100.136 118.241 97.545 116.984 91"><title>2023-12-01 1.0km</title><desc>10308709030</desc></polyline><polyline fill="none" stroke="#4dd2ff" stroke-linecap="round" stroke-linejoin="round" stroke-width=".5" points="136.682 91 139.171 99.55 141.659 104.65 143.041 108.4 143.456 109 143.594 108.55 143.041 107.05 140.968 104.2 140.415 102.7 138.341 98.65 137.374 94 136.406 91.3"><title>2023-11-30 1.0km</title><desc>10303537703</desc></polyline><polyline fill="none" stroke="#4dd2ff" stroke-linecap="round" stroke-linejoin="round" stroke-width=".5" points="157.941 94.848 158.742 97.455 159.085 99.566 160.343 102.048 161.716 105.772 163.089 108.752 163.318 109 163.546 108.752 163.318 107.883 162.402 106.269 161.144 102.793 159.314 99.069 158.627 95.097 157.254 92.986 156.454 91"><title>2023-11-29 1.0km</title><desc>10298007687</desc></polyline><polyline fill="none" stroke="#4dd2ff" stroke-linecap="round" stroke-linejoin="round" stroke-width=".5" points="176.897 93.331 178.21 96.698 178.449 99.158 180.119 103.173 181.074 106.799 181.909 108.482 182.745 109 183.103 109 183.342 108.612 183.222 108.094 182.745 107.187 180.835 102.137 178.926 97.734 178.568 95.662 177.733 93.201 176.658 91"><title>2023-11-28 1.0km</title><desc>10292316108</desc></polyline><polyline fill="none" stroke="#4dd2ff" stroke-linecap="round" stroke-linejoin="round" stroke-width=".5" points="19.577 111 20.634 113.866 21.268 116.618 22.113 117.879 23.064 119.713 24.015 122.694 24.86 124.07 24.86 124.758 24.332 125.217 22.641 126.134 21.585 127.051 20.528 127.624 18.943 128.312 16.408 129 15.985 128.885 15.668 128.541 15.14 126.363"><title>2023-11-27 1.0km</title><desc>10287544518</desc></polyline><polyline fill="none" stroke="#4dd2ff" stroke-linecap="round" stroke-linejoin="round" stroke-width=".5" points="38.26 114.902 38.84 116.287 40.232 123.336 41.74 126.986 42.552 128.371 43.132 129 43.248 128.874 42.9 128.245 42.9 127.238 41.972 125.098 40.928 121.573 39.884 119.434 39.188 115.406 37.216 112.259 36.752 111"><title>2023-11-26 1.0km</title><desc>10281488289</desc></polyline><polyline fill="none" stroke="#4dd2ff" stroke-linecap="round" stroke-linejoin="round" stroke-width=".5" points="56.722 111 58.06 114.484 59.264 119.419 60.468 122.177 60.736 123.919 61.405 125.516 62.876 128.274 63.545 129 63.813 129 61.806 124.645 61.538 123.194 60.201 121.306 57.525 114.048 56.187 111.581"><title>2023-11-25 1.0km</title><desc>10275889695</desc></polyline><polyline fill="none" stroke="#4dd2ff" stroke-linecap="round" stroke-linejoin="round" stroke-width=".5" points="76.512 111.168 77.442 115.374 81.783 127.15 82.868 128.832 83.333 129 83.488 128.495 81.938 126.477 80.078 120.925 78.837 118.402 78.062 113.523 77.132 111"><title>2023-11-24 1.0km</title><desc>10271180196</desc></polyline><polyline fill="none" stroke="#4dd2ff" stroke-linecap="round" stroke-linejoin="round" stroke-width=".5" points="97.762 113 98.157 114.143 99.078 119 101.317 125.857 102.37 128.714 102.765 129 103.291 129 103.423 128.714 103.16 127.286 101.712 123.143 97.894 114.857 96.577 111"><title>2023-11-23 1.0km</title><desc>10265414399</desc></polyline><polyline fill="none" stroke="#4dd2ff" stroke-linecap="round" stroke-linejoin="round" stroke-width=".5" points="118.423 115.056 118.54 116.831 119.007 119.62 120.876 124.944 121.46 127.479 122.395 129 123.096 129 122.979 128.239 121.694 124.944 120.643 123.296 119.124 118.606 117.372 113.789 116.904 111"><title>2023-11-21 1.0km</title><desc>10253878272</desc></polyline><polyline fill="none" stroke="#4dd2ff" stroke-linecap="round" stroke-linejoin="round" stroke-width=".5" points="138.063 115.861 138.668 119.803 141.211 126.241 142.301 128.606 142.664 129 142.906 128.869 143.027 128.606 142.543 126.504 140.363 121.774 139.516 119.277 138.184 114.153 137.457 112.839 136.973 111"><title>2023-11-20 1.0km</title><desc>10248671423</desc></polyline><polyline fill="none" stroke="#4dd2ff" stroke-linecap="round" stroke-linejoin="round" stroke-width=".5" points="156.795 112.5 158.555 116.318 159.057 120.273 160.44 123.409 161.822 127.364 162.451 128.318 163.205 129 163.079 127.909 160.943 122.318 159.56 117.273 158.178 114 157.424 111"><title>2023-11-19 1.0km</title><desc>10242265034</desc></polyline><polyline fill="none" stroke="#4dd2ff" stroke-linecap="round" stroke-linejoin="round" stroke-width=".5" points="176.502 127.038 177.288 124.564 177.602 123.967 178.153 123.626 180.825 123.284 182.791 122.858 183.42 122.346 183.813 121.834 184.285 119.701 184.127 119.019 184.442 118.507 184.206 114.583 184.049 114.071 183.97 112.536 183.813 111.597 182.948 111.341 182.241 111.853 182.398 111.597 182.555 111.853 181.533 111.341 181.454 111 181.219 111.171 181.376 111.085 180.825 111.768 180.904 111.682 182.555 112.536 182.162 112.877 181.533 113.133 180.039 113.389 179.961 113.047 180.354 112.877 180.904 112.962 182.555 111.341 184.835 111.427 184.599 111.256 184.285 111.171 184.049 115.265 184.127 116.46 184.363 117.91 184.52 120.384 184.52 121.237 184.285 122.09 183.813 122.602 179.882 123.028 178.074 123.37 177.131 124.052 176.03 125.588 175.401 127.806 175.165 129"><title>2023-11-18 1.0km</title><desc>10236386505</desc></polyline><polyline fill="none" stroke="#4dd2ff" stroke-linecap="round" stroke-linejoin="round" stroke-width=".5" points="16.327 131 18.934 135.5 19.882 138.843 20.237 140.771 20.948 141.929 23.199 148.486 23.673 149 23.673 148.486 23.199 147.843 21.896 143.986 21.185 142.7 20.948 140.514 19.882 137.814 18.697 135.243 18.578 133.829"><title>2023-11-17 1.0km</title><desc>10231268371</desc></polyline><polyline fill="none" stroke="#4dd2ff" stroke-linecap="round" stroke-linejoin="round" stroke-width=".5" points="36.789 131.581 38.528 134.048 38.93 137.387 40.134 140 42.007 146.968 43.211 149 43.077 147.839 42.14 145.952 41.472 144.065 40.401 139.565 38.261 135.065 37.592 133.032 37.191 131"><title>2023-11-16 1.0km</title><desc>10225818993</desc></polyline><polyline fill="none" stroke="#4dd2ff" stroke-linecap="round" stroke-linejoin="round" stroke-width=".5" points="56.879 131.194 57.77 134.677 59.197 138.548 61.159 142.226 61.873 145.129 63.121 147.645 64.37 149 61.159 143 59.732 138.548 55.63 131"><title>2023-11-15 1.0km</title><desc>10219684298</desc></polyline><polyline fill="none" stroke="#4dd2ff" stroke-linecap="round" stroke-linejoin="round" stroke-width=".5" points="76.82 133.165 78.441 135.196 78.69 137.767 80.561 142.233 81.684 146.023 82.806 148.865 83.305 149 83.18 147.376 81.559 145.211 80.935 143.316 79.938 142.098 79.563 140.609 77.693 136.82 77.069 134.113 76.695 131"><title>2023-11-14 1.0km</title><desc>10213806154</desc></polyline><polyline fill="none" stroke="#4dd2ff" stroke-linecap="round" stroke-linejoin="round" stroke-width=".5" points="97.596 133.478 98.558 137.13 101.202 143.913 101.803 146.13 103.005 148.609 103.366 149 102.645 147.696 100.962 143.652 100.841 142.609 99.639 139.739 97.836 136.478 97.115 134.261 96.634 131"><title>2023-11-13 1.0km</title><desc>10208522228</desc></polyline><polyline fill="none" stroke="#4dd2ff" stroke-linecap="round" stroke-linejoin="round" stroke-width=".5" points="117.989 133.045 119.246 136.864 120.754 140 121.634 143.682 122.513 146.273 123.644 148.727 124.147 149 124.398 148.455 123.016 145.727 122.262 142.727 119.497 140.136 117.989 137.955 117.738 135.636 115.602 131"><title>2023-11-12 1.0km</title><desc>10202270880</desc></polyline><polyline fill="none" stroke="#4dd2ff" stroke-linecap="round" stroke-linejoin="round" stroke-width=".5" points="137.277 134.358 140.248 141.075 141.238 144.433 142.228 147.119 142.847 148.328 143.466 149 143.59 148.463 142.476 145.104 140.371 141.881 138.143 136.776 137.277 133.149 136.41 131"><title>2023-11-11 1.0km</title><desc>10196068378</desc></polyline><polyline fill="none" stroke="#4dd2ff" stroke-linecap="round" stroke-linejoin="round" stroke-width=".5" points="158.327 133.684 160.364 139.842 162.255 144.895 163.129 148.211 163.711 149 164.002 148.684 163.565 146.789 161.382 141.895 159.2 137.316 156.289 132.737 155.998 131"><title>2023-11-10 1.0km</title><desc>10191120477</desc></polyline><polyline fill="none" stroke="#4dd2ff" stroke-linecap="round" stroke-linejoin="round" stroke-width=".5" points="175.821 131.55 177.974 133.198 179.24 135.397 179.62 136.221 179.62 137.458 181.013 141.718 181.52 144.191 182.533 146.939 182.786 148.313 183.419 149 183.799 148.863 184.179 148.313 182.786 147.351 180.507 144.053 177.847 136.771 177.214 132.649 176.581 131"><title>2023-11-09 1.0km</title><desc>10185506531</desc></polyline><polyline fill="none" stroke="#4dd2ff" stroke-linecap="round" stroke-linejoin="round" stroke-width=".5" points="16.489 152.445 17.821 155.073 18.305 156.387 19.879 159.803 20.484 162.168 20.363 160.723 20.605 161.642 21.09 165.19 22.179 168.474 22.664 169 23.269 168.737 23.511 168.343 22.179 167.161 21.211 165.584 20.605 163.876 19.758 160.985 18.547 159.277 17.215 156.387 16.852 154.285 16.973 151.657 16.731 151"><title>2023-11-08 1.0km</title><desc>10179505859</desc></polyline><polyline fill="none" stroke="#4dd2ff" stroke-linecap="round" stroke-linejoin="round" stroke-width=".5" points="39.188 160.944 43.248 169 43.48 168.874 42.9 167.49 41.856 165.727 41.16 163.965 39.768 162.455 39.304 161.573 38.956 158.552 38.724 157.671 37.332 155.28 36.52 151"><title>2023-11-06 1.0km</title><desc>10167691585</desc></polyline><polyline fill="none" stroke="#4dd2ff" stroke-linecap="round" stroke-linejoin="round" stroke-width=".5" points="58.27 156.05 59.105 157.604 62.208 164.727 63.521 168.741 63.759 169 63.998 169 63.998 168.612 63.043 166.54 62.208 165.374 62.088 164.727 61.372 163.95 59.344 160.453 56.957 154.367 56.002 151"><title>2023-11-05 1.1km</title><desc>10161301187</desc></polyline><polyline fill="none" stroke="#4dd2ff" stroke-linecap="round" stroke-linejoin="round" stroke-width=".5" points="76.634 151 79.038 156.348 80.12 161.044 81.803 164.304 82.404 166.913 83.005 169 83.366 168.609 83.246 168.217 81.683 165.348 81.563 164.957 80.12 162.739 79.519 160.652 77.957 157.783 77.596 155.304 76.875 152.696"><title>2023-11-04 1.0km</title><desc>10155501797</desc></polyline><polyline fill="none" stroke="#4dd2ff" stroke-linecap="round" stroke-linejoin="round" stroke-width=".5" points="104.829 153.734 103.464 151.911 102.625 151.342 100.945 151 99.37 151.114 97.165 152.139 96.221 153.051 95.381 154.76 95.171 156.127 94.856 160.684 95.066 165.468 95.276 166.152 96.326 167.861 97.585 168.772 99.685 169 101.575 168.203 103.359 166.038 103.884 165.013 104.619 161.709 104.619 159.089 105.144 155.671 105.039 154.418 103.884 153.051 102.94 152.367 100.735 151.342 99.58 151.342 97.06 152.139 95.906 153.165 95.171 154.532 94.961 155.443 95.171 159.203 94.961 160.911"><title>2023-11-03 1.0km</title><desc>10152446508</desc></polyline><polyline fill="none" stroke="#4dd2ff" stroke-linecap="round" stroke-linejoin="round" stroke-width=".5" points="116.275 151 117.259 153.136 118.102 156.949 119.508 159.695 121.617 165.186 122.038 166.102 122.741 168.542 123.163 169 123.725 169 123.725 168.695 122.741 168.237 122.32 167.169 121.336 166.254 120.633 164.271 119.649 162.746 118.524 160.458 117.259 155.729 116.415 153.746"><title>2023-11-02 1.1km</title><desc>10144903556</desc></polyline><polyline fill="none" stroke="#4dd2ff" stroke-linecap="round" stroke-linejoin="round" stroke-width=".5" points="136.935 152.304 137.175 153.739 138.137 155.957 139.82 161.957 142.705 167.957 143.546 169 143.065 167.435 141.262 164.696 140.301 161.174 139.098 159.478 137.656 156.348 136.454 151"><title>2023-11-01 1.0km</title><desc>10138966680</desc></polyline><polyline fill="none" stroke="#4dd2ff" stroke-linecap="round" stroke-linejoin="round" stroke-width=".5" points="157.381 151.271 158.004 153.301 159.002 158.714 160.624 162.233 161.621 165.481 163.243 169 163.368 168.865 162.245 167.241 160.624 163.451 159.252 161.015 156.882 153.842 156.632 151"><title>2023-10-31 1.0km</title><desc>10133123337</desc></polyline><polyline fill="none" stroke="#4dd2ff" stroke-linecap="round" stroke-linejoin="round" stroke-width=".5" points="177.174 153.133 177.788 156.333 177.788 157.533 179.14 159.8 182.826 167.667 183.441 168.867 183.686 169 180.86 163.4 179.631 159.933 178.28 157.133 176.314 151"><title>2023-10-30 1.0km</title><desc>10127985445</desc></polyline><polyline fill="none" stroke="#4dd2ff" stroke-linecap="round" stroke-linejoin="round" stroke-width=".5" points="17.163 173.605 17.708 177.276 18.036 178.461 20.218 183.553 21.31 186.513 22.947 188.763 23.383 189 23.492 188.645 22.51 187.105 21.091 184.026 18.581 179.408 17.599 175.974 16.835 174.434 16.726 172.066 16.508 171"><title>2023-10-28 1.0km</title><desc>10115543824</desc></polyline><polyline fill="none" stroke="#4dd2ff" stroke-linecap="round" stroke-linejoin="round" stroke-width=".5" points="37.665 174.733 38.648 177.933 39.754 180.467 40.737 184.067 42.212 187.533 42.826 188.867 43.441 189 43.563 188.867 43.318 188.067 42.58 186.067 40.123 181.267 38.157 175.933 36.928 173.267 36.437 171"><title>2023-10-27 1.0km</title><desc>10110442644</desc></polyline><polyline fill="none" stroke="#4dd2ff" stroke-linecap="round" stroke-linejoin="round" stroke-width=".5" points="57.561 173.779 59.878 181.588 60.732 183.971 61.586 185.426 62.561 188.206 62.927 188.735 63.659 189 63.781 188.603 63.659 188.074 62.439 186.485 60.61 183.309 58.414 176.824 56.951 174.441 56.219 171"><title>2023-10-26 1.0km</title><desc>10104873905</desc></polyline><polyline fill="none" stroke="#4dd2ff" stroke-linecap="round" stroke-linejoin="round" stroke-width=".5" points="79.098 179.609 81.863 186.522 83.185 188.87 83.666 189 83.546 187.696 80.301 182.087 78.497 177.522 76.935 174.261 76.334 171"><title>2023-10-25 1.0km</title><desc>10098978222</desc></polyline><polyline fill="none" stroke="#4dd2ff" stroke-linecap="round" stroke-linejoin="round" stroke-width=".5" points="96.67 171 96.549 171.92 97.276 174.942 98.244 176.912 98.85 179.277 99.939 182.431 102.24 186.898 102.967 188.737 103.209 189 103.451 188.869 103.33 187.161 101.998 184.664 101.029 183.219 99.818 180.46 99.576 179.015 98.123 176.781 97.276 174.81 97.033 172.445 96.67 171"><title>2023-10-24 1.0km</title><desc>10092835699</desc></polyline><polyline fill="none" stroke="#4dd2ff" stroke-linecap="round" stroke-linejoin="round" stroke-width=".5" points="118.15 174.108 119.94 180.453 120.776 182.007 121.73 185.892 123.163 188.482 123.759 189 123.163 188.353 122.327 186.281 120.179 183.691 119.702 182.784 119.224 179.806 117.792 176.957 116.837 173.978 116.241 171"><title>2023-10-23 1.0km</title><desc>10087395010</desc></polyline><polyline fill="none" stroke="#4dd2ff" stroke-linecap="round" stroke-linejoin="round" stroke-width=".5" points="134.172 171.086 134.49 171 136.758 171.173 137.752 171.432 137.991 171.561 138.508 171.95 138.866 172.381 139.662 173.849 140.06 175.489 140.577 176.353 140.815 177.043 141.372 178.295 141.77 179.59 142.367 180.626 142.645 180.928 143.003 181.532 143.202 182.827 143.322 183.173 143.64 183.648 143.719 184.381 143.839 184.684 145.589 188.827 145.828 189 145.828 188.784 145.47 188.439 145.072 187.489 144.674 186.669 143.6 183.345"><title>2023-10-22 1.5km</title><desc>10080655811</desc></polyline><polyline fill="none" stroke="#4dd2ff" stroke-linecap="round" stroke-linejoin="round" stroke-width=".5" points="157.137 171 157.769 171.457 156.632 171.274 158.4 173.558 158.569 174.107 158.442 174.563 157.853 174.883 157.684 175.203 157.726 175.751 158.063 177.076 158.442 178.036 158.863 179.498 159.621 180.822 159.747 181.325 160.211 182.147 160.505 182.513 160.547 182.741 160.842 183.015 161.053 183.472 161.347 184.34 161.642 184.934 161.6 186.122 162.147 187.173 162.316 187.675 162.61 188.223 163.116 188.863 163.368 189 162.4 187.629 162.189 186.899 161.768 185.985 161.6 185.391 161.053 184.614 160.589 183.289"><title>2023-10-20 1.4km</title><desc>10069668027</desc></polyline><polyline fill="none" stroke="#4dd2ff" stroke-linecap="round" stroke-linejoin="round" stroke-width=".5" points="176.378 171 176.464 171.698 177.15 173.372 177.321 174.395 178.736 177.837 178.864 178.302 178.95 179 179.121 179.465 180.15 180.907 180.707 182.023 181.05 183.14 181.35 183.744 181.522 184.674 181.736 185.14 182.293 186.581 182.379 187.14 183.193 188.814 183.408 189 183.536 189 183.622 188.953 183.579 188.907 182.722 187.837 182.336 186.535 181.522 185.047 181.393 184.442 181.307 183.419"><title>2023-10-19 1.3km</title><desc>10064004415</desc></polyline><polyline fill="none" stroke="#4dd2ff" stroke-linecap="round" stroke-linejoin="round" stroke-width=".5" points="15.941 191 17.706 193.298 17.588 194.957 17.824 196.617 18.647 199.553 19.824 201.468 21 204.787 23.353 208.617 23.706 209 24.059 208.872 22.529 207.34 19.706 201.851 19 199.426 17 195.213"><title>2023-10-18 1.0km</title><desc>10058081424</desc></polyline><polyline fill="none" stroke="#4dd2ff" stroke-linecap="round" stroke-linejoin="round" stroke-width=".5" points="36.858 192.091 37.864 197.955 40.503 204.909 42.262 208.591 43.016 209 43.393 209 43.644 208.455 42.765 207.364 41.634 205.591 40.126 202.318 39.497 200.409 36.858 195.091 36.607 194.273 36.356 191"><title>2023-10-17 1.0km</title><desc>10051702317</desc></polyline><polyline fill="none" stroke="#4dd2ff" stroke-linecap="round" stroke-linejoin="round" stroke-width=".5" points="55.981 191.415 57.257 193.631 59.171 198.615 60.191 200.554 61.34 204.154 62.743 207.754 63.254 208.723 63.892 209 64.019 208.862 63.892 208.446 62.488 206.369 60.574 201.662 59.171 198.754 58.022 193.354 57.384 191"><title>2023-10-16 1.0km</title><desc>10046279660</desc></polyline><polyline fill="none" stroke="#4dd2ff" stroke-linecap="round" stroke-linejoin="round" stroke-width=".5" points="76.314 191 76.84 192.143 77.367 194.714 78.552 198.714 80.132 201.143 81.975 208 82.633 208.714 83.555 209 83.686 208.714 83.555 207.857 81.843 205.429 80.922 202.571 79.868 200.857 77.367 195 76.445 191"><title>2023-10-15 1.0km</title><desc>10039610121</desc></polyline><polyline fill="none" stroke="#4dd2ff" stroke-linecap="round" stroke-linejoin="round" stroke-width=".5" points="96.254 192.306 96.656 196.516 97.726 199.565 99.064 201.452 99.866 204.065 102.14 208.129 102.676 208.71 103.344 209 103.746 208.71 103.746 208.274 101.07 206.097 99.331 202.903 98.662 200.145 97.057 196.516 96.254 193.468 96.388 191.581 96.254 191"><title>2023-10-14 1.0km</title><desc>10033377496</desc></polyline><polyline fill="none" stroke="#4dd2ff" stroke-linecap="round" stroke-linejoin="round" stroke-width=".5" points="115.919 191.286 118.288 194.143 118.552 196.286 120.79 203.143 122.896 208.143 123.555 209 124.081 209 124.081 208.571 123.95 208.143 122.765 207.286 121.448 204.857 120 200.286 117.367 194.429 116.972 192.429 116.314 191"><title>2023-10-13 1.0km</title><desc>10028006924</desc></polyline><polyline fill="none" stroke="#4dd2ff" stroke-linecap="round" stroke-linejoin="round" stroke-width=".5" points="136.138 191 137.404 192.649 138.164 194.023 138.291 195.809 138.164 197.733 139.557 200.618 141.203 205.015 142.849 208.038 143.229 208.588 143.862 209 143.862 208.313 142.469 206.527 141.203 204.328 139.557 199.794 138.544 198.008 138.037 196.496"><title>2023-10-12 1.0km</title><desc>10021974100</desc></polyline><polyline fill="none" stroke="#4dd2ff" stroke-linecap="round" stroke-linejoin="round" stroke-width=".5" points="157.896 193.552 158.391 196.239 158.267 197.313 159.381 200.94 160.248 202.552 161.114 205.507 162.352 208.463 162.6 208.731 163.219 209 163.095 208.463 161.733 204.97 160.248 202.418 158.267 197.851 157.772 196.104 157.524 193.552 156.781 191"><title>2023-10-10 1.0km</title><desc>10009069592</desc></polyline><polyline fill="none" stroke="#4dd2ff" stroke-linecap="round" stroke-linejoin="round" stroke-width=".5" points="176.951 193.25 177.804 195.632 178.658 198.809 180.488 202.779 181.952 207.809 182.805 209 183.049 208.603 183.171 207.147 182.317 204.632 180.488 201.456 178.414 195.632 177.804 192.985 176.829 191"><title>2023-10-09 1.0km</title><desc>10003389142</desc></polyline><polyline fill="none" stroke="#4dd2ff" stroke-linecap="round" stroke-linejoin="round" stroke-width=".5" points="16.335 211 17.235 212.116 18.135 214.209 18.65 218.395 20.579 222.581 22.25 227.326 23.022 228.721 23.665 229 23.665 227.884 21.222 223.977 18.007 216.163 16.721 211.14"><title>2023-10-08 1.0km</title><desc>9996447828</desc></polyline><polyline fill="none" stroke="#4dd2ff" stroke-linecap="round" stroke-linejoin="round" stroke-width=".5" points="37.689 214.6 38.282 216.786 40.059 221.543 40.652 223.6 42.548 228.357 43.14 229 43.258 228.486 43.258 227.971 41.007 223.986 39.941 221.671 38.045 216.014 37.452 213.057 36.742 211"><title>2023-10-07 1.0km</title><desc>9989974159</desc></polyline><polyline fill="none" stroke="#4dd2ff" stroke-linecap="round" stroke-linejoin="round" stroke-width=".5" points="58.529 216.362 59.471 219.426 60.176 220.957 61.588 226.957 61.941 228.106 62.647 229 63.235 229 63.471 228.489 63.353 228.106 61.941 226.064 60.529 223 60.059 220.957 57.588 214.957 57.235 212.787 56.529 211"><title>2023-10-06 1.0km</title><desc>9984428862</desc></polyline><polyline fill="none" stroke="#4dd2ff" stroke-linecap="round" stroke-linejoin="round" stroke-width=".5" points="76.125 211 78.164 216.459 79.524 221.033 81.836 226.787 82.787 228.705 83.195 229 83.739 229 83.875 228.705 83.467 227.967 81.836 225.607 80.884 223.689 79.252 219.41 78.572 217.197 76.669 213.656 76.669 212.328"><title>2023-10-04 1.0km</title><desc>9971682885</desc></polyline><polyline fill="none" stroke="#4dd2ff" stroke-linecap="round" stroke-linejoin="round" stroke-width=".5" points="97.276 213.102 97.881 215.204 98.486 216.65 98.971 218.883 101.271 223.482 101.392 225.058 102.119 228.212 102.361 228.606 103.088 229 103.088 227.686 101.514 224.796 100.424 222.299 99.818 221.117 99.213 219.409 98.002 216.912 97.518 214.942 97.276 212.971 96.912 211"><title>2023-10-03 1.0km</title><desc>9965060084</desc></polyline><polyline fill="none" stroke="#4dd2ff" stroke-linecap="round" stroke-linejoin="round" stroke-width=".5" points="116.71 211.744 118.355 217.099 118.629 219.479 119.589 220.669 120.274 222.455 121.508 227.066 122.468 228.554 123.153 229 123.29 228.851 122.879 227.661 121.371 224.835 118.903 218.884 117.395 214.421 117.121 211"><title>2023-10-02 1.0km</title><desc>9958643020</desc></polyline><polyline fill="none" stroke="#4dd2ff" stroke-linecap="round" stroke-linejoin="round" stroke-width=".5" points="137.147 214.168 137.412 215.464 140.332 222.376 141.792 226.84 142.588 228.424 143.384 229 143.517 228.856 143.384 228.28 140.73 224.248 138.208 218.056 137.014 214.312 136.483 211"><title>2023-10-01 1.0km</title><desc>9952075403</desc></polyline><polyline fill="none" stroke="#4dd2ff" stroke-linecap="round" stroke-linejoin="round" stroke-width=".5" points="157.416 213.609 158.497 215.826 158.978 218.044 159.339 220.13 161.142 225.217 162.705 228.478 163.426 229 163.666 228.609 161.262 224.957 160.18 222.478 159.82 221.174 158.137 217.522 157.175 213.478 156.334 211"><title>2023-09-30 1.0km</title><desc>9945549317</desc></polyline><polyline fill="none" stroke="#4dd2ff" stroke-linecap="round" stroke-linejoin="round" stroke-width=".5" points="177.213 211 178.408 213.016 178.806 214.6 179.867 217.192 180.398 221.08 180.796 222.232 182.389 226.12 182.787 228.568 183.052 228.856 183.45 229 183.583 228.712 181.194 224.392 179.602 220.648 179.071 218.488 177.213 214.168 176.417 211.576"><title>2023-09-28 1.0km</title><desc>9933629332</desc></polyline><polyline fill="none" stroke="#4dd2ff" stroke-linecap="round" stroke-linejoin="round" stroke-width=".5" points="16.481 233.045 17.487 236.591 19.372 239.182 20.628 243.818 22.388 246.955 22.89 248.727 23.393 249 23.644 248.591 23.393 248.045 22.388 246.682 19.497 240.818 17.989 236.727 16.356 231"><title>2023-09-27 1.0km</title><desc>9927137811</desc></polyline><polyline fill="none" stroke="#4dd2ff" stroke-linecap="round" stroke-linejoin="round" stroke-width=".5" points="41.495 231 41.136 232.731 40.778 233.726 40.498 234.938 38.864 238.356 38.026 239.784 37.867 240.389 37.946 240.865 38.146 241.558 38.744 243.029 38.943 243.418 39.183 244.111 39.98 245.106 40.339 245.885 40.738 246.49 41.057 247.356 41.535 248.005 42.133 249"><title>2023-09-26 1.0km</title><desc>9920397094</desc></polyline><polyline fill="none" stroke="#4dd2ff" stroke-linecap="round" stroke-linejoin="round" stroke-width=".5" points="59.916 231 59.131 233.615 58.347 235.014 57.618 235.926 57.226 236.655 57.058 237.385 57.114 238.297 57.394 239.027 58.067 240.061 58.347 241.095 58.907 242.432 59.972 243.77 61.765 247.419 62.942 249"><title>2023-09-25 1.0km</title><desc>9914573673</desc></polyline><polyline fill="none" stroke="#4dd2ff" stroke-linecap="round" stroke-linejoin="round" stroke-width=".5" points="81.327 231 80.885 231.672 80.796 232.008 80.885 232.44 80.929 232.872 80.044 234.504 79.823 235.608 79.513 236.424 77.656 239.688 77.611 240.072 77.788 240.84 78.275 241.608 78.54 242.28 78.938 242.952 79.16 243.624 79.735 244.536 80.177 245.448 80.664 245.976 80.796 246.456 81.106 246.84 81.769 247.992 82.256 248.52 82.389 249"><title>2023-09-24 1.0km</title><desc>9907510217</desc></polyline><polyline fill="none" stroke="#4dd2ff" stroke-linecap="round" stroke-linejoin="round" stroke-width=".5" points="100.671 231 100.295 231.583 100.027 232.165 99.866 232.922 99.812 233.913 98.899 235.136 98.363 236.534 97.88 237.233 97.557 238.165 97.504 239.155 98.631 242.01 99.061 242.884 100.456 245.097 101.047 246.553 101.798 247.485 102.228 248.243 102.496 249"><title>2023-09-23 1.0km</title><desc>9901004991</desc></polyline><polyline fill="none" stroke="#4dd2ff" stroke-linecap="round" stroke-linejoin="round" stroke-width=".5" points="120.691 231 120.333 231.667 119.974 232.833 119.155 234.556 118.336 235.722 117.619 237.667 117.568 238.722 117.67 239.333 118.694 241.778 118.848 242.5 119.053 242.889 119.77 243.778 120.333 244.889 120.794 246.056 121.562 247.167 122.432 249"><title>2023-09-22 1.0km</title><desc>9895405405</desc></polyline><polyline fill="none" stroke="#4dd2ff" stroke-linecap="round" stroke-linejoin="round" stroke-width=".5" points="140.954 231 140.807 231.531 140.514 231.85 139.878 233.018 139.633 233.867 138.899 235.726 138.116 237.319 137.627 238.487 137.48 239.071 137.48 239.443 137.627 239.974 137.92 240.504 138.556 242.15 139.193 243.319 139.535 244.168 140.171 245.23 140.563 245.708 140.856 246.558 141.639 247.938 142.52 249"><title>2023-09-21 1.0km</title><desc>9889267953</desc></polyline><polyline fill="none" stroke="#4dd2ff" stroke-linecap="round" stroke-linejoin="round" stroke-width=".5" points="161.833 231 161.19 232.927 160.812 234.444 160.208 235.715 159.49 237.847 158.243 240.185 157.903 241.456 157.941 241.743 158.167 242.358 158.659 243.424 158.961 244.326 159.717 245.392 160.17 246.253 160.435 246.868 160.737 247.401 161.228 247.77 161.833 248.672 161.87 248.836 162.097 249"><title>2023-09-20 1.0km</title><desc>9882714971</desc></polyline><polyline fill="none" stroke="#4dd2ff" stroke-linecap="round" stroke-linejoin="round" stroke-width=".5" points="181.493 231 181.109 231.972 180.384 234.1 180.341 234.794 180.085 235.165 179.787 235.859 179.616 236.506 179.275 237.386 178.294 238.959 178.038 239.884 177.953 240.717 178.038 241.55 178.294 242.476 178.593 243.123 179.531 244.743 180 245.391 180.426 246.548 180.853 247.288 181.279 247.889 181.748 248.352 182.047 249"><title>2023-09-19 1.0km</title><desc>9876194288</desc></polyline><polyline fill="none" stroke="#4dd2ff" stroke-linecap="round" stroke-linejoin="round" stroke-width=".5" points="19.868 251 19.55 251.518 19.02 252.553 18.861 253.243 17.907 254.911 17.165 256.463 17.006 257.038 17.059 257.671 17.377 258.476 17.854 259.339 18.278 260.546 18.861 261.812 19.497 262.962 20.079 263.709 20.768 264.859 21.192 266.182 21.934 267.332 22.305 268.367 22.994 269"><title>2023-09-18 1.0km</title><desc>9870505463</desc></polyline><polyline fill="none" stroke="#4dd2ff" stroke-linecap="round" stroke-linejoin="round" stroke-width=".5" points="40.181 251 39.922 251.505 39.561 253.187 39.096 253.972 38.889 254.589 37.752 256.439 37.339 257.449 37.08 258.346 37.287 258.963 38.424 261.43 38.992 262.327 39.406 263.28 40.078 264.178 40.439 264.794 40.904 266.252 42.92 269"><title>2023-09-16 1.0km</title><desc>9856514700</desc></polyline><polyline fill="none" stroke="#4dd2ff" stroke-linecap="round" stroke-linejoin="round" stroke-width=".5" points="59.751 251 59.198 252.68 58.479 253.82 56.986 256.7 56.931 257.36 56.986 258.14 57.318 258.92 57.871 259.76 58.369 260.9 59.254 262.4 60.359 264.5 60.47 265.28 60.857 265.58 61.299 266.18 62.018 267.38 62.792 268.04 62.958 268.46 63.069 269"><title>2023-09-15 1.0km</title><desc>9850671982</desc></polyline><polyline fill="none" stroke="#4dd2ff" stroke-linecap="round" stroke-linejoin="round" stroke-width=".5" points="80.458 251 79.542 253.421 78.513 254.91 78.055 255.717 77.369 257.455 77.197 258.076 77.197 258.572 77.369 259.193 78.055 261.055 78.684 262.297 80.229 264.966 80.858 266.145 80.972 266.828 81.43 267.262 82.174 268.441 82.803 269"><title>2023-09-14 1.0km</title><desc>9844236351</desc></polyline><polyline fill="none" stroke="#4dd2ff" stroke-linecap="round" stroke-linejoin="round" stroke-width=".5" points="97.139 251 97.469 251.268 97.592 251.536 97.674 252.117 97.921 252.608 98.086 253.993 98.086 254.663 98.004 255.02 98.086 255.467 98.292 256.003 98.209 256.449 98.251 256.673 98.662 257.432 99.033 258.548 99.362 259.174 99.774 259.754 100.226 260.156 100.35 260.424 100.473 261.005 100.803 261.586 101.173 262.658 101.667 263.596 101.914 264.4 102.038 265.07 102.284 265.605 102.737 267.079 103.355 268.241 103.396 268.419 103.355 268.553 102.861 269 103.108 268.821 103.231 268.553 103.314 268.33 103.272 268.017 103.025 267.705 102.284 266.097 101.914 264.891 101.132 263.149 100.761 261.452 100.556 260.96 99.774 259.933 98.992 258.459 98.621 257.253 98.498 256.449 98.168 255.601 97.51 254.171 97.345 253.501 96.769 252.429 96.645 251.849 96.604 251.134"><title>2023-09-13 1.0km</title><desc>9837636972</desc></polyline></svg>