<?xml version="1.0" encoding="utf-8" ?>
<svg baseProfile="full" height="300mm" version="1.1" viewBox="0,0,200,300" width="200mm" xmlns="http://www.w3.org/2000/svg" xmlns:ev="http://www.w3.org/2001/xml-events" xmlns:xlink="http://www.w3.org/1999/xlink"><defs /><rect fill="#222222" height="300" width="200" x="0" y="0" /><text fill="#FFFFFF" style="font-size:12px; font-family:Arial; font-weight:bold;" x="10" y="20">Over 1km Runs</text><text fill="#FFFFFF" style="font-size:4px; font-family:Arial" x="10" y="280">ATHLETE</text><text fill="#FFFFFF" style="font-size:9px; font-family:Arial" x="10" y="290">Jiakai</text><text fill="#FFFFFF" style="font-size:4px; font-family:Arial" x="120" y="280">STATISTICS</text><text fill="#FFFFFF" style="font-size:3px; font-family:Arial" x="120" y="285">Number: 100</text><text fill="#FFFFFF" style="font-size:3px; font-family:Arial" x="120" y="290">Weekly: 5.6</text><text fill="#FFFFFF" style="font-size:3px; font-family:Arial" x="141" y="285">Total: 103.5 km</text><text fill="#FFFFFF" style="font-size:3px; font-family:Arial" x="141" y="290">Avg: 1.0 km</text><text fill="#FFFFFF" style="font-size:3px; font-family:Arial" x="167" y="285">Min: 1.0 km</text><text fill="#FFFFFF" style="font-size:3px; font-family:Arial" x="167" y="290">Max: 1.5 km</text><polyline fill="none" points="19.946831986308098,31.0 20.478512125089765,32.26923753414303 20.691184180788696,33.07693361258134 20.79752020863816,34.92309451638721 24.2002730993554,43.000022937194444 24.94462529430166,45.192324908101 24.94462529430166,45.538477571099065 24.41294515505433,46.00001433584839 22.711568709928542,46.92308745859191 20.265840069856495,47.50000788480975 17.50110334577039,48.65384810080286 16.01239895634353,49.0 15.58705484494567,48.76923207566142 15.055374705698341,46.69231922866311" stroke="#4dd2ff" stroke-linecap="round" stroke-linejoin="round" stroke-width="0.5"><title>2024-01-19 1.0km</title><desc>10585384707</desc></polyline><polyline fill="none" points="36.75192282954231,33.26574467669707 36.86792558571324,35.15386295004282 37.099931098055094,36.03498409828171 39.30398346344009,39.93708659056574 40.348008268512785,42.32869339955505 40.92802204936743,44.34267548972275 41.97204685397446,46.3566552111879 42.08804961014539,48.244759048335254 42.7840661467053,48.87412653141655 43.132074415218085,49.0 43.596085438970476,48.87412653141655 43.48008268373087,48.37063256360125 42.7840661467053,47.237770594190806 39.41998621961102,39.55946415744256 37.33193660993129,35.279737427830696 36.403914561029524,31.0" stroke="#4dd2ff" stroke-linecap="round" stroke-linejoin="round" stroke-width="0.5"><title>2024-01-17 1.0km</title><desc>10572816563</desc></polyline><polyline fill="none" points="56.63048108154908,31.0 57.66725613363087,35.07813984097447 59.87040311843157,42.25001984962728 61.42556569585577,45.20313909614924 62.33274386683479,48.01562937779818 62.980728273745626,48.85937565623317 63.36951891845092,49.0 63.36951891845092,48.4375025635818 60.6479844073765,42.67189430666622 58.18564365943894,36.34376767894719 56.63048108154908,33.25000926339999" stroke="#4dd2ff" stroke-linecap="round" stroke-linejoin="round" stroke-width="0.5"><title>2024-01-16 1.0km</title><desc>10566280205</desc></polyline><polyline fill="none" points="76.38298093527555,31.406016977969557 78.25385286472738,35.330843146541156 79.75055040931329,40.473706149845384 81.49669754365459,43.99249887350015 82.9933950882405,48.32331145426724 83.36756947403774,49.0 83.61701906472445,49.0 79.87527520488948,41.28573583706748 79.00220163725317,38.57896882027853 78.37857766076922,36.142875102348626 77.50550409313291,34.38347207882907 76.63243052596226,31.0" stroke="#4dd2ff" stroke-linecap="round" stroke-linejoin="round" stroke-width="0.5"><title>2024-01-09 1.0km</title><desc>10520988068</desc></polyline><polyline fill="none" points="96.75715460581705,32.4887284807628 97.38077871967107,35.060165748465806 98.62802694831043,37.76693793933373 100.87307375948876,44.66918901109602 102.61922127986327,48.59398690296803 102.99339574761689,49.0 103.24284539418295,48.72932461183518 102.86867092549801,47.24060926469974 102.24504681117833,46.293244325672276 100.37417446868494,41.42107408342417 98.62802694831043,37.76693793933373 97.13132907403633,31.0" stroke="#4dd2ff" stroke-linecap="round" stroke-linejoin="round" stroke-width="0.5"><title>2024-01-07 1.0km</title><desc>10508221625</desc></polyline><polyline fill="none" points="118.58691426226869,36.333351957728155 118.83266830444336,37.66668749670498 119.93856148933992,40.4666889377404 120.9215776543133,43.80001835001167 122.88760998379439,48.60000194073655 123.37911806628108,49.0 123.37911806628108,48.066671058069915 122.27322488091886,46.20001173368655 121.65883977804333,44.20001746760681 119.20129936560988,39.000022055231966 118.34116022149101,36.73335272236727 117.72677511861548,35.666683820891194 116.62088193325326,31.0" stroke="#4dd2ff" stroke-linecap="round" stroke-linejoin="round" stroke-width="0.5"><title>2024-01-06 1.0km</title><desc>10501510624</desc></polyline><polyline fill="none" points="137.62194332526997,34.27274134848267 138.54996544169262,36.53848169394769 139.24598202994093,39.43358999455813 140.40600967640057,43.20981085568201 141.68204008741304,45.979034193907864 142.49405943974853,47.99301199009642 142.95807049795985,48.748253053287044 143.42208155663684,49.0 143.306078792084,48.11888552387245 142.7260649688542,46.73427614511456 138.89797373628244,39.43358999455813 138.2019571484998,37.29372780956328 137.96995161892846,35.27973742748145 137.15793226659298,33.139870051061735 136.57791844336316,31.0" stroke="#4dd2ff" stroke-linecap="round" stroke-linejoin="round" stroke-width="0.5"><title>2024-01-05 1.0km</title><desc>10495609202</desc></polyline><polyline fill="none" points="156.2065286319703,31.0 156.9780821306631,32.81396122346632 157.62104337941855,34.76745598623529 158.52118912758306,36.58141360874288 160.19288837490603,41.325602270895615 162.2503643706441,46.069779074634425 163.0219178693369,48.58139728754759 163.53628686862066,49.0 163.7934713680297,48.30232876108494 163.66487911809236,47.32558859628625 160.57866512425244,41.046532678068615 159.54992712615058,37.41862423438579 158.52118912758306,31.55814209987875" stroke="#4dd2ff" stroke-linecap="round" stroke-linejoin="round" stroke-width="0.5"><title>2024-01-04 1.0km</title><desc>10489071805</desc></polyline><polyline fill="none" points="177.49954325752333,34.30883703043219 179.08519875304773,38.67649259837344 181.03677474707365,43.04413756961003 182.01256274431944,46.75000984175131 182.8663772419095,49.0 182.98835074156523,49.0 182.98835074156523,48.07353380450513 182.3784832432866,45.82354248885531 181.15874824672937,43.04413756961003 180.18296024994925,40.2647283594124 178.59730475442484,37.08825543615967 177.6215167576447,34.176483665942214 177.01164925890043,32.32353554200381 177.3775697578676,31.0" stroke="#4dd2ff" stroke-linecap="round" stroke-linejoin="round" stroke-width="0.5"><title>2024-01-03 1.0km</title><desc>10482519748</desc></polyline><polyline fill="none" points="16.3670011209324,51.297521962667815 19.520169959403574,60.52068110543769 22.810433094855398,68.40496123710182 23.495904581155628,69.0 23.6329988790676,68.40496123710182 23.22171598719433,67.36364297999535 19.794358554296196,60.81820166797843 18.560509878210723,57.54547307221219 16.77828401280567,51.0" stroke="#4dd2ff" stroke-linecap="round" stroke-linejoin="round" stroke-width="0.5"><title>2024-01-01 1.0km</title><desc>10470902913</desc></polyline><polyline fill="none" points="47.616729935631156,55.40818125801161 47.39104904886335,55.77552916947752 45.021399735007435,57.48981835064478 44.00583574408665,58.59186046384275 43.32879308285192,59.81635084503796 42.87743130931631,60.42859569785651 42.53890997869894,60.55104464129545 41.07198421377689,60.55104464129545 39.717898891773075,61.040840325760655 37.91245179576799,60.918391417944804 37.00972824729979,60.55104464129545 36.44552603038028,59.69390184734948 36.10700469976291,58.95920767285861 35.99416425637901,57.24492000427563 35.65564292529598,56.510224749101326 34.30155760375783,56.510224749101326 33.17315316898748,56.87757241737563 33.06031272560358,57.00002162193414 33.51167449960485,57.24492000427563 33.737355385906994,57.00002162193414 32.94747228221968,57.00002162193414 32.72179139498621,56.7551232035039 32.496110507752746,55.89797845506109 32.383270064368844,54.42858643166255 32.94747228221968,54.55103581654839 33.39883405668661,55.530630571069196 34.41439804760739,56.63267398066819 35.20428115176037,56.63267398066819 35.881323812995106,56.142876999801956 36.44552603038028,56.26532625826076 36.55836647376418,56.020427731913514 35.54280248237774,53.081642604316585 35.31712159514427,52.959193111164495 34.07587671652436,52.83674360951409 32.834631838370115,52.959193111164495 33.62451494298875,52.959193111164495 32.496110507752746,51.734697686857544 32.383270064368844,51.0 32.72179139498621,51.489798494149 33.06031272560358,53.081642604316585 33.39883405668661,53.81633937230799 33.737355385906994,55.40818125801161 33.06031272560358,59.571452840580605 33.85019582975656,63.36736785795074 34.527238490991294,64.46940608078148 34.6400789343752,66.30613483092748 35.65564292529598,69.0" stroke="#4dd2ff" stroke-linecap="round" stroke-linejoin="round" stroke-width="0.5"><title>2023-12-31 1.5km</title><desc>10466792666</desc></polyline><polyline fill="none" points="57.61318105319515,55.273397946031764 58.92593147419393,59.935274790157564 60.716045684646815,63.6906666085124 62.26747800037265,68.09352957841475 62.74484178982675,69.0 62.9835236845538,69.0 63.102864631451666,67.96403376583476 62.625500842463225,66.5395791985793 60.477363789919764,62.13671234436333 60.477363789919764,60.97124574659392 58.92593147419393,57.604337910655886 58.68724957946688,55.01440442644525 58.20988579047844,53.46044250787236 56.897135369013995,51.0" stroke="#4dd2ff" stroke-linecap="round" stroke-linejoin="round" stroke-width="0.5"><title>2023-12-30 1.0km</title><desc>10458865202</desc></polyline><polyline fill="none" points="80.97876229183748,51.0 78.71215487923473,51.2236037919065 77.16674073366448,52.22982044820674 76.03343702713028,53.347838174086064 75.51829897845164,54.68945835984778 75.10618853988126,59.94412601995282 75.62132658809423,65.19877551647369 75.82738180737942,65.98138133413158 76.13646463630721,66.65218599990476 77.78490639152005,68.44099699554499 79.63940336601809,69.0 81.08178990148008,68.77639882266521 82.83325926586986,67.65839244390372 83.86353536276147,66.76398674899247 84.89381145965308,63.74536364292726 84.79078385047615,61.39754152763635 84.4817010210827,59.385119685321115 84.27564580226317,54.46585507784039 83.96656297286972,53.236036438611336 83.34839731454849,52.453424059203826 82.62720404658467,51.89441497006919 80.97876229183748,51.5590094178915 78.71215487923473,51.67081127688289 77.06371312355623,52.565225852420554 76.23949224641547,53.57144162070472 75.62132658809423,55.13666482537519 75.62132658809423,55.91927582339849 75.93040941702202,57.81990085518919 75.72435419820249,59.385119685321115" stroke="#4dd2ff" stroke-linecap="round" stroke-linejoin="round" stroke-width="0.5"><title>2023-12-29 1.0km</title><desc>10454615358</desc></polyline><polyline fill="none" points="97.48660630453378,52.90909918991383 99.24598189117387,59.18183983606286 102.01071495609358,67.6363697515335 102.89040275011212,69.0 103.0160724343732,69.0 103.0160724343732,67.6363697515335 101.13102716300637,61.909111761138774 99.62299094581977,58.22729371488094 98.61763346754014,56.318199999048375 96.98392756516114,51.0" stroke="#4dd2ff" stroke-linecap="round" stroke-linejoin="round" stroke-width="0.5"><title>2023-12-27 1.0km</title><desc>10441997651</desc></polyline><polyline fill="none" points="116.60691900970414,53.318191617610864 118.61763367056847,57.27274710254278 119.6229910007678,61.36365769722033 121.00535733019933,63.9545630736975 122.63906299276277,68.1818219712004 123.14174165716395,69.0 123.39308099029586,68.86363702046219 122.51339332573116,66.27273850073107 121.25669666333124,64.36365306563675 117.2352673416026,54.818196414853446 116.98392800893635,52.227278276346624 116.60691900970414,51.0" stroke="#4dd2ff" stroke-linecap="round" stroke-linejoin="round" stroke-width="0.5"><title>2023-12-17 1.0km</title><desc>10391591057</desc></polyline><polyline fill="none" points="137.07950775464997,54.16902771452442 138.481344032567,57.84509256517049 140.8177378284745,62.408472511102445 142.9204922444187,68.49296031869017 143.3877710038796,69.0 143.50459069386125,68.87324009358417 143.50459069386125,68.36620037502144 142.9204922444187,66.71832025947515 139.76636062003672,60.50706566812005 138.36452434258536,56.704245691304095 137.31314713414758,52.39437291189097 136.4954093056731,51.0" stroke="#4dd2ff" stroke-linecap="round" stroke-linejoin="round" stroke-width="0.5"><title>2023-12-16 1.0km</title><desc>10386207035</desc></polyline><polyline fill="none" points="157.56786756357178,54.383472079527564 158.0667665246874,56.684229540871456 159.8129128892906,61.96242696943227 160.81071081198752,63.58648467215244 162.18268295563757,68.05263596656732 162.5568571765907,69.0 162.80630665738136,69.0 162.80630665738136,67.64662266056985 160.93543555215,61.96242696943227 158.3162160050124,57.90227644436527 158.19149126531556,56.27821372705512 157.4431428234093,54.383472079527564 157.69259230373427,53.16542284714524 157.19369334261864,51.0" stroke="#4dd2ff" stroke-linecap="round" stroke-linejoin="round" stroke-width="0.5"><title>2023-12-14 1.0km</title><desc>10376526598</desc></polyline><polyline fill="none" points="183.8635347946547,52.565225852653384 182.9362864443101,51.7826131277252 181.39087252598256,51.111801900318824 179.9484862028621,51.0 178.506099879276,51.33540567557793 176.6516031776555,52.34162225795444 175.82738242158666,53.459639901760966 175.20921685406938,55.360268009011634 175.20921685406938,59.60872224404011 175.4152720430866,60.95033690426499 175.82738242158666,62.62735356413759 175.51829963782802,64.63977111433633 175.6213272321038,65.42237722000573 175.72435482637957,65.86958052788395 176.75463077239692,67.65839244425297 178.40307228453457,68.88819941575639 178.91821025684476,69.0 179.9484862028621,69.0 180.97876214748248,69.0 182.83325884956867,68.32919637009036 183.8635347946547,67.32299037033226 184.48170036217198,66.20498292252887 184.68775555118918,63.745363643043675 184.79078314593062,62.0683482165914 184.48170036217198,60.05592726240866 184.68775555118918,57.37269517919049 184.58472795644775,55.02486322144978 184.48170036217198,54.242251763120294 183.76050720037892,52.67702763737179 183.45142441662028,52.34162225795444 182.31812087725848,51.55900941800792 180.0515137971379,51.33540567557793 178.60912747355178,51.55900941800792 177.78490671748295,51.89441497018561 176.23949279962108,53.57144162082113 175.6213272321038,55.91927582328208 175.82738242158666,57.48449661070481" stroke="#4dd2ff" stroke-linecap="round" stroke-linejoin="round" stroke-width="0.5"><title>2023-12-13 1.0km</title><desc>10373769329</desc></polyline><polyline fill="none" points="17.833606439642608,73.55224959517363 19.07154561718926,78.65673809009604 20.309484794270247,81.34330525412224 22.785363148897886,88.328361393651 23.280538819730282,89.0 23.52812665514648,89.0 23.65192057285458,88.46268913464155 23.156744902022183,87.65672254085075 21.17604221822694,84.29852457169909 18.328782110475004,78.52240962779615 17.957400357350707,76.77613872440998 16.59566726256162,73.82090723980218 16.34807942714542,71.0" stroke="#4dd2ff" stroke-linecap="round" stroke-linejoin="round" stroke-width="0.5"><title>2023-12-12 1.0km</title><desc>10365882163</desc></polyline><polyline fill="none" points="36.49541033664718,71.0 37.780426546465605,73.78874469583388 39.532721378374845,78.22537468874361 40.81773758819327,80.63382618967444 42.68685207562521,86.46480010182131 42.92049138667062,87.98592048813589 43.387770008295774,89.0 43.50458966335282,88.11268045951147 43.27095035277307,87.09860042587388 40.81773758819327,81.52114957885351 39.06544275628403,78.09861399035435 38.598164135124534,76.70424569153693 38.24770516855642,73.78874469583388 37.31314792530611,71.1267612206284" stroke="#4dd2ff" stroke-linecap="round" stroke-linejoin="round" stroke-width="0.5"><title>2023-12-11 1.0km</title><desc>10361067591</desc></polyline><polyline fill="none" points="60.360617144498974,81.04350078164134 62.764731439296156,88.34782927564811 62.88493715412915,88.73913173889741 63.36576001346111,89.0 63.48596572736278,88.86956587433815 63.12534858379513,87.95652672543656 62.04349715076387,85.86957833555061 60.84144000336528,82.60871656169184 57.47567999083549,75.82610487437341 56.51403427263722,71.0" stroke="#4dd2ff" stroke-linecap="round" stroke-linejoin="round" stroke-width="0.5"><title>2023-12-10 1.0km</title><desc>10355395415</desc></polyline><polyline fill="none" points="76.82868994167075,72.1911820312962 78.90223882580176,75.50001687242184 79.87802653573453,79.60296362906229 81.95157541986555,85.42648490634747 82.68341620266438,88.60294311749749 83.17131005832925,89.0 83.2932835216634,88.86764771549497 83.2932835216634,88.60294311749749 83.04933659406379,87.5441243366804 80.48789385519922,82.38237386127003 79.87802653573453,80.92649284633808 79.51210614433512,78.67649259825703 78.90223882580176,76.95590227597859 77.92645111586899,75.23531030898448 77.80447765160352,73.3823632748099 76.70671647787094,71.0" stroke="#4dd2ff" stroke-linecap="round" stroke-linejoin="round" stroke-width="0.5"><title>2023-12-09 1.0km</title><desc>10350143310</desc></polyline><polyline fill="none" points="98.08119371067733,74.49255117913708 98.82395743578672,77.17912446556147 100.43327883956954,81.07464871532284 102.66157001350075,87.52239474025555 103.6519216466695,89.0 103.52812769310549,87.65672254085075 102.78536396799609,85.37314859370235 100.80466070165858,81.8806182127446 99.56672116043046,78.92539498396218 98.20498766517267,76.77613872475922 97.83360580261797,74.62687993713189 96.34807835286483,71.0" stroke="#4dd2ff" stroke-linecap="round" stroke-linejoin="round" stroke-width="0.5"><title>2023-12-08 1.0km</title><desc>10345303898</desc></polyline><polyline fill="none" points="117.09993195021525,71.0 117.33193739457056,71.6293738221284 117.79594828234985,73.26574467681348 118.02795372670516,75.5314863550011 118.4919646140188,77.41960212949198 120.11600272217765,81.44757549010683 121.1600272199139,85.09791816305369 122.20405171765015,87.36364418326411 122.43605716200545,89.0 122.6680626058951,88.87412653130013 122.90006804978475,88.62237956561148 122.90006804978475,88.24475904810242 122.3200544398278,86.7342761453474 120.46401088824496,83.58743248344399 118.25995917012915,77.16785348008852 117.67994556063786,74.52449042350054" stroke="#4dd2ff" stroke-linecap="round" stroke-linejoin="round" stroke-width="0.5"><title>2023-12-07 1.0km</title><desc>10340288256</desc></polyline><polyline fill="none" points="136.65845347428694,71.0 137.3744991584681,72.68346103455406 138.68724957946688,78.25182068638969 140.5967047372833,81.74822356412187 142.14813705300912,86.02159543370362 142.86418273719028,88.74100849858951 143.22220557928085,89.0 143.34154652617872,88.09352957841475 143.10286463191733,86.92806692188606 141.19340947363526,82.91368964756839 139.88065905310214,80.97124574659392 139.16461336892098,79.5467855243478 136.77779442211613,71.38849115080666" stroke="#4dd2ff" stroke-linecap="round" stroke-linejoin="round" stroke-width="0.5"><title>2023-12-06 1.0km</title><desc>10334845031</desc></polyline><polyline fill="none" points="158.34116107597947,74.1034619655693 159.1419798671268,78.20002302597277 159.9427986582741,81.17933391826227 161.88764429371804,86.2689778652275 162.91726845363155,88.62758815078996 163.26047650631517,89.0 162.80286576924846,86.76552767283283 161.6588389244862,84.65518998203333 160.62921476503834,81.67588522285223 159.1419798671268,78.57243717496749 158.45556376036257,76.21381284378003 157.31153691606596,73.73104683100246 156.73952349368483,71.0" stroke="#4dd2ff" stroke-linecap="round" stroke-linejoin="round" stroke-width="0.5"><title>2023-12-05 1.0km</title><desc>10329306344</desc></polyline><polyline fill="none" points="176.69392242329195,72.51049678423442 177.50594147713855,73.7692430865718 178.54996597534046,77.41960212949198 180.63801497081295,82.58044129051268 181.68203946901485,86.10490787529852 182.61006124457344,88.11888552398887 183.30607757670805,89.0 183.30607757670805,88.37063256313559 180.29000680474564,81.44757549010683 179.1299795852974,77.54547644068953 177.85394964320585,74.6503649475053 176.9259278671816,71.0" stroke="#4dd2ff" stroke-linecap="round" stroke-linejoin="round" stroke-width="0.5"><title>2023-12-04 1.0km</title><desc>10324662812</desc></polyline><polyline fill="none" points="16.873725838027894,92.66154566861223 18.149756108876318,97.50771216268186 20.191404541023076,102.07694343582261 21.595037837978452,106.92308570316527 22.615862054284662,108.86153911822475 23.381480216048658,109.0 23.381480216048658,108.44615641166456 22.488259027712047,106.92308570316527 21.33983178436756,103.60001806344371 20.0638015139848,101.66155923262704 19.170580324716866,99.3077136843931 17.63934400025755,93.76924196642358 16.618519784417003,91.0" stroke="#4dd2ff" stroke-linecap="round" stroke-linejoin="round" stroke-width="0.5"><title>2023-12-02 1.0km</title><desc>10313350310</desc></polyline><polyline fill="none" points="36.73258963692933,91.95454984041862 37.98928593005985,93.59091985307168 39.49732148181647,98.77274870162364 40.50267851725221,103.00001940899529 42.13638369832188,107.63636975188274 43.141740733291954,109.0 43.267410362605006,108.18182197131682 43.0160711039789,106.54546483117156 41.63370518060401,103.54547299188562 39.49732148181647,100.13638546620496 38.240625189151615,97.54547475650907 36.983928895089775,91.0" stroke="#4dd2ff" stroke-linecap="round" stroke-linejoin="round" stroke-width="0.5"><title>2023-12-01 1.0km</title><desc>10308709030</desc></polyline><polyline fill="none" points="56.68232080945745,91.0 59.17058020224795,99.55001980031375 61.658839595038444,104.65001455100719 63.041205924004316,108.40000255848281 63.45591582311317,109.0 63.59415245614946,108.55000193545129 63.041205924004316,107.05000766995363 60.967656429857016,104.20001552719623 60.41470989910886,102.70001806365326 58.341160404961556,98.65001940354705 57.37350397417322,94.0000110277906 56.40584754385054,91.30000130133703" stroke="#4dd2ff" stroke-linecap="round" stroke-linejoin="round" stroke-width="0.5"><title>2023-11-30 1.0km</title><desc>10303537703</desc></polyline><polyline fill="none" points="77.94075258821249,94.84829198836815 78.74157102638856,97.4551944816485 79.08477892819792,99.56554117088672 80.34320790180936,102.04829860525206 81.71603950997815,105.77242791187018 83.0888711172156,108.75172544328962 83.31767638539895,109.0 83.54648165311664,108.75172544328962 83.31767638539895,107.8827642062679 82.40245531359687,106.2689778652275 81.14402633998543,102.79312512371689 79.31358419591561,99.06898924615234 78.62716839229688,95.09656858979724 77.2543367841281,92.98621631483547 76.45351834688336,91.0" stroke="#4dd2ff" stroke-linecap="round" stroke-linejoin="round" stroke-width="0.5"><title>2023-11-29 1.0km</title><desc>10298007687</desc></polyline><polyline fill="none" points="96.89713673759252,93.33094561949838 98.20988657930866,96.69786162441596 98.4485683683306,99.15829617308918 100.11934089427814,103.17268200626131 101.07406805222854,106.79857102350798 101.90945431543514,108.48201695899479 102.74484057817608,109.0 103.10286326240748,109.0 103.34154505236074,108.61151273362339 103.22220415715128,108.09352957829833 102.74484057817608,107.18705868988764 100.83538626274094,102.13671234436333 98.92593194777146,97.73383448482491 98.56790926354006,95.66188815457281 97.7325229998678,93.20144872169476 96.65845494763926,91.0" stroke="#4dd2ff" stroke-linecap="round" stroke-linejoin="round" stroke-width="0.5"><title>2023-11-28 1.0km</title><desc>10292316108</desc></polyline><polyline fill="none" points="119.57736504077911,91.0 120.63395244022831,93.8662559457589 121.26790487999097,96.61785669741221 122.11317479936406,97.87900541932322 123.06410345900804,99.71340173971839 124.01503211865202,102.69429115857929 124.86030203802511,104.07008435309399 124.86030203802511,104.75798049510922 124.33200833853334,105.21657775470521 122.64146849932149,106.13377186935395 121.58488109987229,107.05096544418484 120.52829370042309,107.62421115464531 118.94341260101646,108.31210572912823 116.40760284243152,109.0 115.9849678822793,108.8853509761393 115.66799166239798,108.54140385333449 115.13969796244055,106.36307031358592" stroke="#4dd2ff" stroke-linecap="round" stroke-linejoin="round" stroke-width="0.5"><title>2023-11-27 1.0km</title><desc>10287544518</desc></polyline><polyline fill="none" points="138.2599590420723,94.90211396722589 138.83997269440442,96.2867329143919 140.23200546111912,103.33568474079948 141.74004095746204,106.98602338775527 142.55206007137895,108.370632563252 143.13207372371107,109.0 143.24807645427063,108.8741265310673 142.90006826305762,108.24475904798601 142.90006826305762,107.23777059407439 141.97204641858116,105.09791816282086 140.9280218440108,101.57344950502738 139.88399726944044,99.43358999444172 139.1879808860831,95.40561189572327 137.21593446750194,92.25874741270673 136.7519235452637,91.0" stroke="#4dd2ff" stroke-linecap="round" stroke-linejoin="round" stroke-width="0.5"><title>2023-11-26 1.0km</title><desc>10281488289</desc></polyline><polyline fill="none" points="156.722453544382,91.0 158.06022760737687,94.48388377402443 159.26422426477075,99.41937526513357 160.46822092263028,102.17743866576348 160.73577573522925,103.91937146021519 161.40466276742518,105.51614183862694 162.87621423741803,108.27419672347605 163.5451012691483,109.0 163.81265608174726,109.0 161.8059949860908,104.64517633756623 161.53844017302617,103.19356631604023 160.2006661100313,101.30647169239819 157.5251179826446,94.04839863895904 156.18734391825274,91.58064772281796" stroke="#4dd2ff" stroke-linecap="round" stroke-linejoin="round" stroke-width="0.5"><title>2023-11-25 1.0km</title><desc>10275889695</desc></polyline><polyline fill="none" points="176.51178423129022,91.16822495521046 177.4419751027599,95.37384479888715 181.7828658381477,107.14953924051952 182.86808852106333,108.83177635679021 183.33318395726383,109.0 183.4882157696411,108.49532903218642 181.93789764959365,106.4766440478852 180.0775159066543,100.92525115737226 178.83726141043007,98.40188630030025 178.06210235133767,93.52337301988155 177.13191147893667,91.0" stroke="#4dd2ff" stroke-linecap="round" stroke-linejoin="round" stroke-width="0.5"><title>2023-11-24 1.0km</title><desc>10271180196</desc></polyline><polyline fill="none" points="17.7618844024837,113.00000823463779 18.156845978461206,114.14286915806588 19.07842298876494,119.00002058548853 21.316538587212563,125.85715487215202 22.369769456796348,128.71428701689 22.76473103230819,129.0 23.291346467100084,129.0 23.423000326380134,128.71428701689 23.159692608751357,127.28572146955412 21.711500163190067,123.14287544379476 17.89353826083243,114.85715689428616 16.576999674085528,111.0" stroke="#4dd2ff" stroke-linecap="round" stroke-linejoin="round" stroke-width="0.5"><title>2023-11-23 1.0km</title><desc>10265414399</desc></polyline><polyline fill="none" points="38.42293546302244,115.0563544301549 38.53975505847484,116.83100649237167 39.00703343981877,119.61974175705109 40.87614696519449,124.94367837370373 41.46024494152516,127.47888050868642 42.39480170421302,129.0 43.09571927599609,129.0 42.97889968100935,128.23944042192306 41.693884131964296,124.94367837370373 40.6425077742897,123.29579498723615 39.12385303527117,118.60565672838129 37.37155910488218,113.78874469583388 36.90428072400391,111.0" stroke="#4dd2ff" stroke-linecap="round" stroke-linejoin="round" stroke-width="0.5"><title>2023-11-21 1.0km</title><desc>10253878272</desc></polyline><polyline fill="none" points="58.06266986951232,115.86133173853159 58.66808553505689,119.8029423590051 61.2108313315548,126.24088767752983 62.30057953018695,128.6058413576102 62.66382892988622,129.0 62.90599519619718,128.86861379561014 63.02707832911983,128.6058413576102 62.54274579649791,126.50366046302952 60.36324939923361,121.77374440978747 59.51566746784374,119.27739477856085 58.18375300243497,114.15329776948784 57.45725420350209,112.83942437497899 56.97292167088017,111.0" stroke="#4dd2ff" stroke-linecap="round" stroke-linejoin="round" stroke-width="0.5"><title>2023-11-20 1.0km</title><desc>10248671423</desc></polyline><polyline fill="none" points="76.79542374471202,112.50000667187851 78.55479894345626,116.31819999893196 79.05747757246718,120.27274908765685 80.43984379991889,123.40910961094778 81.8222100273706,127.36364358162973 82.45055831270292,128.31818500091322 83.20457625528798,129.0 83.07890659850091,127.90909588139039 80.94252242846414,122.3182022041874 79.56015620101243,117.27274710254278 78.17778997309506,114.00001213059295 77.42377203051001,111.0" stroke="#4dd2ff" stroke-linecap="round" stroke-linejoin="round" stroke-width="0.5"><title>2023-11-19 1.0km</title><desc>10242265034</desc></polyline><polyline fill="none" points="96.50164541276172,127.03792825492565 97.28779251081869,124.56400697666686 97.60225135041401,123.9668527743197 98.15255431877449,123.62562166358111 100.82545445347205,123.2843904523179 102.7908221995458,122.85785129718715 103.41973987780511,122.34600410389248 103.81281342729926,121.83415668504313 104.28450168622658,119.70145667501492 104.12727226642892,119.01899184362264 104.44173110602424,118.50714295677608 104.20588697632775,114.5829606532352 104.04865755699575,114.07110980903963 103.97004284663126,112.53555592079647 103.81281342729926,111.5971608775435 102.94805161934346,111.34123482485302 102.24051923071966,111.85308687353972 102.39774865005165,111.5971608775435 102.55497806984931,111.85308687353972 101.53298684209585,111.34123482485302 101.45437213266268,111.0 101.21852800250053,111.17061742488295 101.3757574222982,111.0853087156429 100.82545445347205,111.76777821453288 100.90406916337088,111.6824695491814 102.55497806984931,112.53555592079647 102.16190452082083,112.87679029384162 101.53298684209585,113.13271600776352 100.03930735541508,113.38864166522399 99.96069264505059,113.04740744258743 100.35376619407907,112.87679029384162 100.90406916337088,112.96209887135774 102.55497806984931,111.34123482485302 104.83480465505272,111.4265435153502 104.5989605258219,111.25592612795299 104.28450168622658,111.17061742488295 104.04865755699575,115.26542809442617 104.12727226642892,116.45974515046692 104.36311639565974,117.90998563647736 104.52034581592306,120.38392110483255 104.52034581592306,121.23700107744662 104.28450168622658,122.0900804225821 103.81281342729926,122.60192772879964 99.88207793561742,123.02846697799396 98.07393960934132,123.36969826457789 97.13056309148669,124.05216053628828 96.02995715336874,125.58769917994505 95.40103947510943,127.80569585470948 95.16519534541294,129.0" stroke="#4dd2ff" stroke-linecap="round" stroke-linejoin="round" stroke-width="0.5"><title>2023-11-18 1.0km</title><desc>10236386505</desc></polyline><polyline fill="none" points="116.3268576124683,111.0 118.93360382318497,115.50001736893319 119.88151153549552,118.84287991863675 120.23697692807764,120.77145155961625 120.94790771277621,121.92859352345113 123.1991885304451,128.48571685689967 123.6731423875317,129.0 123.6731423875317,128.48571685689967 123.1991885304451,127.84286271536257 121.89581542555243,123.98573290230706 121.18488464085385,122.70002107415348 120.94790771277621,120.51430879719555 119.88151153549552,117.81430750666186 118.69662689464167,115.24287383153569 118.57813843060285,113.82858369813766" stroke="#4dd2ff" stroke-linecap="round" stroke-linejoin="round" stroke-width="0.5"><title>2023-11-17 1.0km</title><desc>10231268371</desc></polyline><polyline fill="none" points="136.7893429552205,111.58064772293437 138.5284488541074,114.04839863884263 138.92978098476306,117.38711555744521 140.13377737673,120.00002051191404 142.00666065281257,126.96775015315507 143.2106570447795,129.0 143.07687966758385,127.8387146294117 142.14043803000823,125.95162444526795 141.47155114542693,124.0645324572688 140.40133213018999,119.56453659269027 138.26089410064742,115.06453047250398 137.59200721606612,113.03226628201082 137.19067508541048,111.0" stroke="#4dd2ff" stroke-linecap="round" stroke-linejoin="round" stroke-width="0.5"><title>2023-11-16 1.0km</title><desc>10225818993</desc></polyline><polyline fill="none" points="156.87852752860636,111.19354904140346 157.7703768061474,114.67742935777642 159.19733565021306,118.54840207961388 161.15940406080335,122.22582089412026 161.8728834828362,125.12904264521785 163.12147247139364,127.64516557333991 164.3700614599511,129.0 161.15940406080335,123.00001367391087 159.7324452167377,118.54840207961388 155.6299385400489,111.0" stroke="#4dd2ff" stroke-linecap="round" stroke-linejoin="round" stroke-width="0.5"><title>2023-11-15 1.0km</title><desc>10219684298</desc></polyline><polyline fill="none" points="176.81951958918944,113.16542284714524 178.44094097521156,115.19550445268396 178.69039041921496,117.7669379391009 180.5612612492405,122.23310335271526 181.68378374679014,126.02256853983272 182.80630624480546,128.86466231115628 183.30520513281226,129.0 183.1804804103449,127.37594707356766 181.55905902478844,125.21054094214924 180.93543541477993,123.31580848805606 179.93763763876632,122.09776516607963 179.5634634727612,120.60904445615597 177.69259264320135,116.81956812529825 177.06896903319284,114.11279454140458 176.69479486718774,111.0" stroke="#4dd2ff" stroke-linecap="round" stroke-linejoin="round" stroke-width="0.5"><title>2023-11-14 1.0km</title><desc>10213806154</desc></polyline><polyline fill="none" points="17.59588517481461,133.47827171022072 18.55753110535443,137.1304552895017 21.202057412359864,143.91306199040264 21.803086118306965,146.1304470184259 23.00514353159815,148.60869759391062 23.365760755259544,149.0 22.644526307471097,147.695658311015 20.961645929608494,143.65219298156444 20.84144018869847,142.60871656169184 19.639382775872946,139.73915324313566 17.83629665756598,136.47828020178713 17.115062209777534,134.26088311010972 16.634239244740456,131.0" stroke="#4dd2ff" stroke-linecap="round" stroke-linejoin="round" stroke-width="0.5"><title>2023-11-13 1.0km</title><desc>10208522228</desc></polyline><polyline fill="none" points="37.989285634830594,133.04546334268525 39.24598211282864,136.86365554714575 40.7540178867057,140.000021835207 41.63370542181656,143.68183636269532 42.51339295646176,146.27273850084748 43.644419786985964,148.72727403056342 44.14709837734699,149.0 44.39843767369166,148.45454802096356 43.01607154728845,145.72728572005872 42.26205366104841,142.7272925573634 39.49732140870765,140.1363854664378 37.989285634830594,137.95456616173033 37.73794633895159,135.6363803385757 35.60156232584268,131.0" stroke="#4dd2ff" stroke-linecap="round" stroke-linejoin="round" stroke-width="0.5"><title>2023-11-12 1.0km</title><desc>10202270880</desc></polyline><polyline fill="none" points="57.27653280971572,134.35822241124697 60.24758792715147,141.07464871543925 61.23793963296339,144.4328526093159 62.22829133877531,147.11941128061153 62.84726115502417,148.32836139411665 63.46623097080737,149.0 63.59002493415028,148.4626891349908 62.475879264995456,145.10449264734052 60.371381890028715,141.880618212861 58.14309055218473,136.77613872487564 57.27653280971572,133.14926305413246 56.40997506631538,131.0" stroke="#4dd2ff" stroke-linecap="round" stroke-linejoin="round" stroke-width="0.5"><title>2023-11-11 1.0km</title><desc>10196068378</desc></polyline><polyline fill="none" points="78.3266083188355,133.68422009726055 80.36378079978749,139.84212411462795 82.25544096156955,144.8947501218645 83.12851488124579,148.21052947919816 83.71056416165084,149.0 84.00158880185336,148.6842118264176 83.56505184154958,146.78948180971202 81.38236704096198,141.89475486346055 79.19968223944306,137.31580665381625 76.2894358378835,132.73684868169948 75.99841119768098,131.0" stroke="#4dd2ff" stroke-linecap="round" stroke-linejoin="round" stroke-width="0.5"><title>2023-11-10 1.0km</title><desc>10191120477</desc></polyline><polyline fill="none" points="95.82124576484784,131.54962088621687 97.97393734101206,133.1984825761756 99.2402265034616,135.39696256595198 99.62011325219646,136.22139189543668 99.62011325219646,137.45803520805202 101.01303132995963,141.71757813193835 101.51954699493945,144.19085666537285 102.53257832489908,146.93894008581992 102.78583615692332,148.31298028095625 103.41898073861375,149.0 103.7988674864173,148.86259607644752 104.17875423515216,148.31298028095625 102.78583615692332,147.35115225065965 100.50651566544548,144.0534523880342 97.84730842523277,136.77101124660112 97.21416384354234,132.64886217436288 96.58101926231757,131.0" stroke="#4dd2ff" stroke-linecap="round" stroke-linejoin="round" stroke-width="0.5"><title>2023-11-09 1.0km</title><desc>10185506531</desc></polyline><polyline fill="none" points="116.48859197832644,132.44526216865052 117.820505366195,135.07300857105292 118.30483750626445,136.38688032352366 119.87891696533188,139.80294235935435 120.48433214100078,142.16790455882438 120.363249105867,140.72265025309753 120.60541517660022,141.64235767372884 121.08974731713533,145.18979614810087 122.17949463427067,148.47445512423292 122.6638267757371,149.0 123.26924195187166,148.73722758109216 123.51140802213922,148.34306888096035 122.17949463427067,147.16059225820936 121.21083035273477,145.58395554404706 120.60541517660022,143.87593086762354 119.75783392973244,140.98542385036126 118.54700357746333,139.2773947789101 117.21509018959478,136.38688032352366 116.85184108372778,134.2846850559581 116.97292411886156,131.65693749429192 116.730758048594,131.0" stroke="#4dd2ff" stroke-linecap="round" stroke-linejoin="round" stroke-width="0.5"><title>2023-11-08 1.0km</title><desc>10179505859</desc></polyline><polyline fill="none" points="139.1879807668738,140.9440793383401 143.2480769320391,149.0 143.4800824271515,148.87412653141655 142.90006868960336,147.4895177630242 141.85604396136478,145.72728680237196 141.16002747556195,143.96505402820185 139.76799450442195,142.45456734951586 139.3039835151285,141.57344950479455 138.95597527176142,138.55247059487738 138.72396977664903,137.6713507422246 137.3319368059747,135.27973742736503 136.5199175728485,131.0" stroke="#4dd2ff" stroke-linecap="round" stroke-linejoin="round" stroke-width="0.5"><title>2023-11-06 1.0km</title><desc>10167691585</desc></polyline><polyline fill="none" points="158.26955626299605,136.0503782769665 159.1049428950064,137.6043379106559 162.2078075259924,144.72663535596803 163.52055794699118,148.7410084985895 163.75923984171823,149.0 163.99792173597962,149.0 163.99792173597962,148.61151273350697 163.0431941570714,146.5395791985793 162.2078075259924,145.37411551410332 162.08846657862887,144.72663535596803 161.3724208944477,143.94965885241982 159.34362478926778,140.45326034456957 156.95680584199727,134.36692046013195 156.00207826355472,131.0" stroke="#4dd2ff" stroke-linecap="round" stroke-linejoin="round" stroke-width="0.5"><title>2023-11-05 1.1km</title><desc>10161301187</desc></polyline><polyline fill="none" points="176.6342399874702,131.0 179.03835428180173,136.3478451555129 180.12020571436733,141.04350078164134 181.80308572063223,144.30436543212272 182.40411429479718,146.9130528375972 183.00514286803082,149.0 183.3657600125298,148.60869759402703 183.24555429723114,148.21739510179032 181.6828800062649,145.34784085466526 181.56267429096624,144.95653764309827 180.12020571436733,142.7391511480091 179.51917714066803,140.65219662082382 177.95650284923613,137.78263013751712 177.59588570520282,135.30436443991493 176.87465141667053,132.69565996550955" stroke="#4dd2ff" stroke-linecap="round" stroke-linejoin="round" stroke-width="0.5"><title>2023-11-04 1.0km</title><desc>10155501797</desc></polyline><polyline fill="none" points="24.8292560079135,153.73419068823569 23.464466266334057,151.91139743244275 22.624595656525344,151.3417740999721 20.944854436442256,151.0 19.37009704252705,151.11392470856663 17.165436690673232,152.139246706618 16.220582254230976,153.05064346885774 15.380711643956602,154.759510952048 15.1707439920865,156.12660358159337 14.855792513117194,160.6835702988319 15.065760165452957,165.46837092377245 15.27572781778872,166.15191266383044 16.32556608086452,167.86076569382567 17.58537199581042,168.77215320582036 19.685048521496356,169.0 21.574757393915206,168.20253607374616 23.359482440631837,166.0379890614422 23.884401571936905,165.01267626299523 24.619288355577737,161.7088859624928 24.619288355577737,159.08863347244915 25.144207486882806,155.6709061722504 25.039223660714924,154.41773760621436 23.884401571936905,153.05064346885774 22.93954713549465,152.36709594738204 20.73488678364083,151.3417740999721 19.580064694862813,151.3417740999721 17.060452864971012,152.139246706618 15.905630775727332,153.16456802631728 15.1707439920865,154.53166206309106 14.960776339285076,155.44305741763674 15.1707439920865,159.20255758613348 14.960776339285076,160.9114182825433" stroke="#4dd2ff" stroke-linecap="round" stroke-linejoin="round" stroke-width="0.5"><title>2023-11-03 1.0km</title><desc>10152446508</desc></polyline><polyline fill="none" points="36.27463989239186,151.0 37.25869727879763,153.13560138468165 38.10217503923923,156.94916981831193 39.50797130679712,159.69493475090712 41.616665706504136,165.18645371461753 42.03840458672494,166.10170546243899 42.74130272027105,168.54237481567543 43.16304160049185,169.0 43.72536010714248,169.0 43.72536010714248,168.6949165549595 42.74130272027105,168.23729130346328 42.31956384051591,167.1694986578077 41.33550645317882,166.25424738100264 40.63260832009837,164.2712015635334 39.64855093276128,162.74578041420318 38.52391391946003,160.45764658704866 37.25869727879763,155.72882868233137 36.415219518356025,153.74577280506492" stroke="#4dd2ff" stroke-linecap="round" stroke-linejoin="round" stroke-width="0.5"><title>2023-11-02 1.1km</title><desc>10144903556</desc></polyline><polyline fill="none" points="56.934754049405456,152.30435396311805 57.175165496300906,153.73914221522864 58.13681128481403,155.95653995871544 59.819691414479166,161.9565434876131 62.70462878094986,167.95652672555298 63.54606884531677,169.0 63.06524595152587,167.4347898582928 61.26216009771451,164.6956687872298 60.30051430920139,161.17393548239488 59.098457073792815,159.47828362043947 57.65598839055747,156.34784515528008 56.45393115468323,151.0" stroke="#4dd2ff" stroke-linecap="round" stroke-linejoin="round" stroke-width="0.5"><title>2023-11-01 1.0km</title><desc>10138966680</desc></polyline><polyline fill="none" points="77.38078122353181,151.27067799540237 78.00440474227071,153.3007616904797 79.00220237160102,158.71430726593826 80.62362351827323,162.23310335283168 81.62142114760354,165.48121684766375 83.24284229520708,169.0 83.367566999048,168.8646623105742 82.24504466587678,167.24060926458333 80.62362351827323,163.45114658481907 79.25165177835152,161.01505931455176 76.88188240956515,153.84211696428247 76.63243300141767,151.0" stroke="#4dd2ff" stroke-linecap="round" stroke-linejoin="round" stroke-width="0.5"><title>2023-10-31 1.0km</title><desc>10133123337</desc></polyline><polyline fill="none" points="97.17383081186563,153.1333426652709 97.78821541834623,156.33335195819382 97.78821541834623,157.5333539872663 99.13986155157909,159.80002232000697 102.82616918860003,167.66667279333342 103.44055379508063,168.8666673231637 103.68630763702095,169.0 100.86013844888657,163.40001914394088 99.6313692368567,159.93335566332098 98.27972310315818,157.1333533989964 96.31369236344472,151.0" stroke="#4dd2ff" stroke-linecap="round" stroke-linejoin="round" stroke-width="0.5"><title>2023-10-30 1.0km</title><desc>10127985445</desc></polyline><polyline fill="none" points="117.1625133054331,153.60527560755145 117.70818382361904,157.27633863000665 118.0355861345306,158.46055072336458 120.21826820774004,163.5526528044138 121.30960924364626,166.5131698701298 122.94662079866976,168.76315920078196 123.38315721368417,169.0 123.4922913168557,168.6447387879016 122.510084384121,167.10527262999676 121.09134103683755,164.026335900533 118.58125665271655,159.40791977138724 117.59904971951619,155.97370432177559 116.83511099405587,154.43422605399974 116.72597689041868,152.06579507607967 116.5077086831443,151.0" stroke="#4dd2ff" stroke-linecap="round" stroke-linejoin="round" stroke-width="0.5"><title>2023-10-28 1.0km</title><desc>10115543824</desc></polyline><polyline fill="none" points="137.66533815301955,154.73334801755846 138.64835366792977,157.93335448706057 139.75424612080678,160.46668893785682 140.737261635717,164.06668443838134 142.21178490761667,167.53334001882467 142.82616960350424,168.8666673237458 143.44055429985747,169.0 143.5634312396869,168.8666673237458 143.3176773604937,168.06667105830275 142.58041572477669,166.0666788512608 140.12287693936378,161.26668855571188 138.156845910009,155.9333511054283 136.92807651730254,153.26667649880983 136.4365687603131,151.0" stroke="#4dd2ff" stroke-linecap="round" stroke-linejoin="round" stroke-width="0.5"><title>2023-10-27 1.0km</title><desc>10110442644</desc></polyline><polyline fill="none" points="157.56053018663079,153.77942351426464 159.8780265096575,161.58825709018856 160.7318409443833,163.9706063530175 161.58565537957475,165.42648490646388 162.56144330464303,168.20588614756707 162.92736377660185,168.7352954216767 163.65920472098514,169.0 163.78117821086198,168.60294311773032 163.65920472098514,168.07353380485438 162.43946981383488,166.48530493315775 160.60986745357513,163.3088429851923 158.41434462182224,156.82354910613503 156.9506627335213,154.44119038514327 156.21882178913802,151.0" stroke="#4dd2ff" stroke-linecap="round" stroke-linejoin="round" stroke-width="0.5"><title>2023-10-26 1.0km</title><desc>10104873905</desc></polyline><polyline fill="none" points="179.09845727263018,159.6087184365606 181.86318830493838,166.52174997131806 183.18545097252354,168.86956587433815 183.66627376014367,169.0 183.54606806393713,167.695658311015 180.30051424261183,162.0869781221263 178.49742878694087,157.52176022727508 176.93475472507998,154.26088311045896 176.33372623985633,151.0" stroke="#4dd2ff" stroke-linecap="round" stroke-linejoin="round" stroke-width="0.5"><title>2023-10-25 1.0km</title><desc>10098978222</desc></polyline><polyline fill="none" points="16.670213592704386,171.0 16.54913045093417,171.91971242427826 17.2756293034181,174.9416213426739 18.24429444037378,176.9124287540326 18.84971015015617,179.27739477867726 19.939458429347724,182.43067794316448 22.24003812810406,186.8978195694508 22.96653698058799,188.737227581325 23.20870326505974,189.0 23.45086954906583,188.8686137953773 23.329786406829953,187.16059225809295 21.997871844097972,184.6642501518363 21.029206708073616,183.2189978651004 19.818375286646187,180.45987661753315 19.57620900310576,179.01462093077134 18.123211297672242,176.78104166104458 17.2756293034181,174.8102341046324 17.03346301894635,172.44526216841768 16.670213592704386,171.0" stroke="#4dd2ff" stroke-linecap="round" stroke-linejoin="round" stroke-width="0.5"><title>2023-10-24 1.0km</title><desc>10092835699</desc></polyline><polyline fill="none" points="38.1502161314711,174.1079268073663 39.9403295526281,180.45326034456957 40.7757158158347,182.0072160938289 41.73044297331944,185.89209946908522 43.16253370977938,188.4820169589948 43.759238183964044,189.0 43.16253370977938,188.35252117482014 42.32714744703844,186.28058733535 40.17901134165004,183.69066660827957 39.7016477631405,182.7841934543103 39.2242841841653,179.80577837780584 37.7921934472397,176.9568548965035 36.83746628975496,173.9784299666062 36.24076181650162,171.0" stroke="#4dd2ff" stroke-linecap="round" stroke-linejoin="round" stroke-width="0.5"><title>2023-10-23 1.0km</title><desc>10087395010</desc></polyline><polyline fill="none" points="54.17224500933662,171.08633225236554 54.490484189707786,171.0 56.75793835008517,171.1726644920418 57.75243578874506,171.43166113487678 57.991115174023435,171.56115941354074 58.50825384235941,171.94965407782 58.86627292004414,172.3813145144959 59.66187087097205,173.8489576249267 60.05966984643601,175.4892602887703 60.57680851477198,176.35257563943742 60.815487899817526,177.04322700586636 61.372406465467066,178.29503053677035 61.77020544116385,179.58999689779012 62.36690390435979,180.62596793007106 62.64536318718456,180.92812580347527 63.00338226510212,181.5324410837493 63.2022817528341,182.82740030408604 63.32162144547328,183.17272228054935 63.63986062561162,183.6475396664464 63.71942042093724,184.38134759839159 63.83876011357643,184.68350353906862 65.58907560561784,188.82734075089684 65.82775499089621,189.0 65.82775499089621,188.78417593060294 65.46973591297865,188.43885725463042 65.07193693774752,187.48922984837554 64.67413796205074,186.6690958525287 63.60008072829805,183.34538319258718" stroke="#4dd2ff" stroke-linecap="round" stroke-linejoin="round" stroke-width="0.5"><title>2023-10-22 1.5km</title><desc>10080655811</desc></polyline><polyline fill="none" points="77.13705715793185,171.0 77.7685886672698,171.45685924118152 76.63183195027523,171.27411558496533 78.40012017637491,173.5584074241924 78.56852857908234,174.10663621604908 78.44222227716818,174.56349317287095 77.85279286839068,174.88329284300562 77.68438446591608,175.2030923484126 77.72648656647652,175.75131968891947 78.06330337142572,177.07620043179486 78.44222227716818,178.03559506835882 78.86324328323826,179.4975269040442 79.62108109449036,180.82239965925692 79.74738739640452,181.3249368618708 80.21051050303504,182.14726958947722 80.50522520765662,182.51275045255898 80.54732730798423,182.74117588269291 80.84204201260582,183.01528628816595 81.05255251564085,183.47213669511257 81.34726722002961,184.3401515429723 81.64198192441836,184.93405574030476 81.59987982385792,186.12186243198812 82.14720713184215,187.1726126128342 82.31561553431675,187.675144680019 82.61033023847267,188.22336101706605 83.11555544612929,188.86294613225618 83.3681680499576,189.0 82.39981973543763,187.62945996341296 82.1893092324026,186.89850404136814 81.76828822609968,185.98480792954797 81.59987982385792,185.3909047365305 81.05255251564085,184.6142612430849 80.5894294087775,183.28939657268347" stroke="#4dd2ff" stroke-linecap="round" stroke-linejoin="round" stroke-width="0.5"><title>2023-10-20 1.4km</title><desc>10069668027</desc></polyline><polyline fill="none" points="96.37802091496997,171.0 96.46374823059887,171.69768395990832 97.14956675539725,173.3721223237808 97.32102138688788,174.39538803097093 98.7355220944155,177.83726962580113 98.86411306774244,178.302387323929 98.94984038360417,179.0000632299343 99.12129501462914,179.46518007316627 100.15002280217595,180.90704011387425 100.7072503536474,182.02331659808988 101.050159616163,183.13959111261647 101.35020522098057,183.7442389856442 101.52165985223837,184.67446535412455 101.73597814119421,185.13957802538062 102.29320569266565,186.58142513339408 102.37893300829455,187.13955861562863 103.19334250688553,188.81395610782783 103.40766079584137,189.0 103.5362517691683,189.0 103.6219790847972,188.95348903205013 103.57911542709917,188.9069780607242 102.72184227104299,187.83722477586707 102.33606935059652,186.5349139876198 101.52165985223837,185.04655551846372 101.3930688786786,184.44190889014862 101.3073415630497,183.41865943354787" stroke="#4dd2ff" stroke-linecap="round" stroke-linejoin="round" stroke-width="0.5"><title>2023-10-19 1.3km</title><desc>10064004415</desc></polyline><polyline fill="none" points="115.94113790709525,171.0 117.70586055610329,173.29788272990845 117.5882123792544,174.95746281044558 117.82350873248652,176.61704130494036 118.64704596903175,179.55321475525852 119.82352773472667,181.46810780919623 121.00000950088724,184.7872507669963 123.35297303367406,188.61702321912162 123.7059175632894,189.0 124.05886209290475,188.87234108219855 122.52943579666317,187.3404333399376 119.70587955834344,181.8510861665709 118.9999904986471,179.4255551431561 116.99997149594128,175.21278268191963" stroke="#4dd2ff" stroke-linecap="round" stroke-linejoin="round" stroke-width="0.5"><title>2023-10-18 1.0km</title><desc>10058081424</desc></polyline><polyline fill="none" points="136.8582590352744,172.09091406327207 137.86361614381894,177.95456616184674 140.5026785545051,184.9091062474763 142.26205349434167,188.59091103076935 143.01607132609934,189.0 143.39308024197817,189.0 143.64441951876506,188.4545480213128 142.76473204931244,187.36364358162973 141.63370530167595,185.59092249977402 140.12566963862628,182.31820220442023 139.49732144596055,180.4091126989806 136.8582590352744,175.09092442982364 136.6069197584875,174.27274026570376 136.35558048123494,171.0" stroke="#4dd2ff" stroke-linecap="round" stroke-linejoin="round" stroke-width="0.5"><title>2023-10-17 1.0km</title><desc>10051702317</desc></polyline><polyline fill="none" points="155.98050376260653,171.41538655466866 157.2565343142487,173.63077996543143 159.17058014171198,178.61540561076254 160.1914045829326,180.55386757676024 161.33983207913116,184.15386307716835 162.74346568621695,187.75385169649962 163.2538779070601,188.72307822608855 163.89189318241552,189.0 164.01949623785913,188.86153911834117 163.89189318241552,188.44615641143173 162.48825957579538,186.36924150353298 160.57421374879777,181.66155923274346 159.17058014171198,178.75386724586133 158.02215264551342,173.3538559313165 157.38413736922666,171.0" stroke="#4dd2ff" stroke-linecap="round" stroke-linejoin="round" stroke-width="0.5"><title>2023-10-16 1.0km</title><desc>10046279660</desc></polyline><polyline fill="none" points="176.31368951732293,171.0 176.8403053013608,172.14286210003775 177.36692108446732,174.71429936750792 178.55180659657344,178.71430613135453 180.13165394589305,181.14287764916662 181.97480918699875,188.00000437430572 182.633078916464,188.71428701665718 183.55465653678402,189.0 183.68631048314273,188.71428701665718 183.55465653678402,187.8571478142403 181.84315524157137,185.42858468799386 180.92157762078568,182.57144771213643 179.8683460545726,180.85716351040173 177.36692108446732,175.0000144095393 176.44534346368164,171.0" stroke="#4dd2ff" stroke-linecap="round" stroke-linejoin="round" stroke-width="0.5"><title>2023-10-15 1.0km</title><desc>10039610121</desc></polyline><polyline fill="none" points="16.254232070874423,192.3064571354771 16.655564348679036,196.51614647032693 17.725783757399768,199.5645365928067 19.06355801783502,201.45163288107142 19.86622257437557,204.06453245715238 22.140438816975802,208.12903603585437 22.675548520870507,208.70967872138135 23.344435651786625,209.0 23.74576792959124,208.70967872138135 23.74576792959124,208.2741967231268 21.07021940825507,206.0967852922622 19.331112870015204,202.9032441836316 18.662225740030408,200.1451817966299 17.05689662694931,196.51614647032693 16.254232070874423,193.4677516417578 16.388009496964514,191.5806477224687 16.254232070874423,191.0" stroke="#4dd2ff" stroke-linecap="round" stroke-linejoin="round" stroke-width="0.5"><title>2023-10-14 1.0km</title><desc>10033377496</desc></polyline><polyline fill="none" points="35.91872827988118,191.28571558836848 38.28849895577878,194.1428691581823 38.55180680891499,196.2857315784786 40.78992355847731,203.14287544356193 42.89638638170436,208.14286092377733 43.5546560138464,209.0 44.08127171965316,209.0 44.08127171965316,208.5714305093279 43.94961779285222,208.14286092377733 42.764732454903424,207.2857214693213 41.44819319108501,204.85715762886684 39.99999999953434,200.28573510737624 37.36692147096619,194.42858428391628 36.9719596914947,192.42857752018608 36.313690058887005,191.0" stroke="#4dd2ff" stroke-linecap="round" stroke-linejoin="round" stroke-width="0.5"><title>2023-10-13 1.0km</title><desc>10028006924</desc></polyline><polyline fill="none" points="56.137817203532904,191.0 57.404106644913554,192.6488621745957 58.16388031002134,194.0229128751671 58.29050925420597,195.80917727621272 58.16388031002134,197.73284472187515 59.55679869512096,200.6183421780588 61.202974969055504,205.0152821157826 62.84915124299005,208.03817232279107 63.22903807554394,208.58778819919098 63.862182796001434,209.0 63.862182796001434,208.31298028118908 62.46926441043615,206.5267278305255 61.202974969055504,204.32826093258336 59.55679869512096,199.79391478805337 58.54376714210957,198.007654195535 58.03725136583671,196.4962015914498" stroke="#4dd2ff" stroke-linecap="round" stroke-linejoin="round" stroke-width="0.5"><title>2023-10-12 1.0km</title><desc>10021974100</desc></polyline><polyline fill="none" points="77.89550185156986,193.5522495948244 78.39067788608372,196.23882426461205 78.26688387757167,197.31345302646514 79.38102995604277,200.9403204311384 80.2475880170241,202.5522591888439 81.1141460784711,205.50747655145824 82.35208616545424,208.46268913452514 82.59967418340966,208.73134458682034 83.2186442273669,209.0 83.09485021792352,208.46268913452514 81.73311612196267,204.97016465931665 80.2475880170241,202.41793101315852 78.26688387757167,197.85076717019547 77.77170784212649,196.1044956248952 77.52411982510239,193.5522495948244 76.7813557726331,191.0" stroke="#4dd2ff" stroke-linecap="round" stroke-linejoin="round" stroke-width="0.5"><title>2023-10-10 1.0km</title><desc>10009069592</desc></polyline><polyline fill="none" points="96.95066273305565,193.2500098424498 97.80447716778144,195.6323701395886 98.65829160250723,198.80884563201107 100.48789396276698,202.7794321157271 101.95157585060224,207.80882909044158 102.80539028532803,209.0 103.04933726694435,208.60294311773032 103.17131075728685,207.14706713322084 102.31749632256106,204.63236947765108 100.48789396276698,201.4559042607434 98.41434462135658,195.6323701395886 97.80447716778144,192.98530294792727 96.82868924224749,191.0" stroke="#4dd2ff" stroke-linecap="round" stroke-linejoin="round" stroke-width="0.5"><title>2023-10-09 1.0km</title><desc>10003389142</desc></polyline><polyline fill="none" points="116.33512142067775,191.0 117.23526703706011,192.11628403502982 118.13541265344247,194.20931483071763 118.64978157635778,198.3953694977099 120.57866503950208,202.58141493203584 122.25036404049024,207.3255885966355 123.0219174255617,208.7209315354703 123.66487857978791,209.0 123.66487857978791,207.88372589554638 121.2216261937283,203.97676135855727 118.00682042259723,196.1628081573872 116.72089811321348,191.13953554059844" stroke="#4dd2ff" stroke-linecap="round" stroke-linejoin="round" stroke-width="0.5"><title>2023-10-08 1.0km</title><desc>9996447828</desc></polyline><polyline fill="none" points="137.6894741007127,194.60001482162625 138.28191663930193,196.78573449037503 140.05924425413832,201.54287962068338 140.65168679272756,203.60001945286058 142.54750291490927,208.35714604717214 143.1399454534985,209.0 143.25843396084383,208.48571685678326 143.25843396084383,207.97143356245942 141.00715231569484,203.98573290207423 139.940755746793,201.67145093088038 138.04493962367997,196.01430433080532 137.45249708509073,193.05715223390143 136.74156603915617,191.0" stroke="#4dd2ff" stroke-linecap="round" stroke-linejoin="round" stroke-width="0.5"><title>2023-10-07 1.0km</title><desc>9989974159</desc></polyline><polyline fill="none" points="158.5293982247822,196.36172163987067 159.4705833606422,199.42555514350533 160.17647221311927,200.9574698683573 161.58824991760775,206.95745619398076 161.94119434338063,208.10638738039415 162.6470831958577,209.0 163.23532390547916,209.0 163.47062018932775,208.48936427361332 163.35297204786912,208.10638738039415 161.94119434338063,206.06384252291173 160.52941663889214,203.00002073205542 160.05882407119498,200.9574698683573 157.5882130889222,194.95746281091124 157.23526866268367,192.78724238602445 156.52937981067225,191.0" stroke="#4dd2ff" stroke-linecap="round" stroke-linejoin="round" stroke-width="0.5"><title>2023-10-06 1.0km</title><desc>9984428862</desc></polyline><polyline fill="none" points="176.12483936548233,191.0 178.16439759451896,196.45903345034458 179.52410308038816,201.0328068000963 181.83560240641236,206.78689395042602 182.78739624656737,208.7049193349667 183.19530789228156,209.0 183.73919008672237,209.0 183.87516063498333,208.7049193349667 183.46724898880348,207.96721748064738 181.83560240641236,205.60656972648576 180.88380856625736,203.6885413810378 179.25216198293492,199.40985615958925 178.57230924023315,197.19673953438178 176.6687215603888,193.65574785752688 176.6687215603888,192.32787436805665" stroke="#4dd2ff" stroke-linecap="round" stroke-linejoin="round" stroke-width="0.5"><title>2023-10-04 1.0km</title><desc>9971682885</desc></polyline><polyline fill="none" points="17.275629504118115,213.10219913115725 17.881045169662684,215.20439578976948 18.486460835207254,216.64965455804486 18.970793368294835,218.8832339918008 21.271372898016125,223.48177109507378 21.392456031404436,225.05840966361575 22.118954830802977,228.21168262825813 22.361121096648276,228.6058413576102 23.087619896046817,229.0 23.087619896046817,227.68613752059173 21.513539165258408,224.79563666554168 20.423790966626257,222.29929125588387 19.818375300150365,221.11681063415017 19.212959634140134,219.40878168831114 18.002128303050995,216.912428754149 17.517795769963413,214.9416213426739 17.275629504118115,212.97081175807398 16.912380104418844,211.0" stroke="#4dd2ff" stroke-linecap="round" stroke-linejoin="round" stroke-width="0.5"><title>2023-10-03 1.0km</title><desc>9965060084</desc></polyline><polyline fill="none" points="36.70973855769262,211.7438048243057 38.35486927861348,217.09919148962945 38.62905773241073,219.47935879125725 39.588717320002615,220.66944139194675 40.27418845379725,222.45456398068927 41.508036494255066,227.06612337986007 42.46769608184695,228.55372094386257 43.15316721564159,229.0 43.290261442773044,228.8512403254863 42.87897876231,227.6611625365913 41.37094226805493,224.83472498285118 38.90324618574232,218.88431722810492 37.39520969148725,214.42149992857594 37.12102123815566,211.0" stroke="#4dd2ff" stroke-linecap="round" stroke-linejoin="round" stroke-width="0.5"><title>2023-10-02 1.0km</title><desc>9958643020</desc></polyline><polyline fill="none" points="57.146795372013,214.16801199468318 57.41220975574106,215.46401542495005 60.33176798000932,222.37601923558395 61.791547091677785,226.84000873356126 62.58779024379328,228.4240025616018 63.38403339544311,229.0 63.51674058800563,228.85600065614562 63.38403339544311,228.2800031756051 60.72988955536857,224.2480160703417 58.208452907856554,218.0560197121231 57.01408817991614,214.31201241828967 56.48325941199437,211.0" stroke="#4dd2ff" stroke-linecap="round" stroke-linejoin="round" stroke-width="0.5"><title>2023-10-01 1.0km</title><desc>9952075403</desc></polyline><polyline fill="none" points="77.41557656321675,213.60870696778875 78.49742823466659,215.8261048743734 78.97825119877234,218.04350000969134 79.3388684228994,220.1304576053517 81.14195454167202,225.21740646020044 82.70462917815894,228.47826343949419 83.42586362501606,229.0 83.6662751082331,228.60869759391062 81.26216028351337,224.95653764309827 80.18030861206353,222.47828196594492 79.81969138793647,221.17393548239488 78.13681101053953,217.52176022715867 77.17516508046538,213.47827171022072 76.3337248917669,211.0" stroke="#4dd2ff" stroke-linecap="round" stroke-linejoin="round" stroke-width="0.5"><title>2023-09-30 1.0km</title><desc>9945549317</desc></polyline><polyline fill="none" points="97.213150607422,211.0 98.40751463314518,213.0160082259681 98.80563597474247,214.60001323360484 99.86729288613424,217.19201866455842 100.39812134252861,221.0800203795079 100.79624268459156,222.23201940534636 102.38872805144638,226.12001111591235 102.78684939350933,228.56800193735398 103.05226362170652,228.85600065637846 103.4503849633038,229.0 103.58309207716957,228.7120013020467 101.19436402618885,224.39201575319748 99.60187865886837,220.64802057005 99.07105020293966,218.48802009352949 97.213150607422,214.16801199526526 96.4169079232961,211.57600256206933" stroke="#4dd2ff" stroke-linecap="round" stroke-linejoin="round" stroke-width="0.5"><title>2023-09-28 1.0km</title><desc>9933629332</desc></polyline><polyline fill="none" points="116.4812475326471,213.04546334245242 117.48660538066179,216.5909277930623 119.37165134493262,219.1818398362957 120.62834865506738,223.81819972326048 122.387724888511,226.9545542517444 122.89040381275117,228.72727403056342 123.39308273606002,229.0 123.64442219864577,228.59091103065293 123.39308273606002,228.04545893135946 122.387724888511,226.6818279812578 119.49732107575983,220.81820347253233 117.98928430397063,216.72729167481884 116.35557780181989,211.0" stroke="#4dd2ff" stroke-linecap="round" stroke-linejoin="round" stroke-width="0.5"><title>2023-09-27 1.0km</title><desc>9927137811</desc></polyline><polyline fill="none" points="141.49532136670314,211.0 141.13644423848018,212.73079315607902 140.77756711049005,213.72599691554205 140.4984404554125,214.93754704669118 138.86355576105416,218.35583575541386 138.02617579582147,219.78372262767516 137.86667484999634,220.38949176907772 137.94642532267608,220.86545280006249 138.1458015050739,221.55775906681083 138.7439300515689,223.02890717971604 138.94330623396672,223.4183281234 139.18255765270442,224.11063138698228 139.98006238159724,225.10581590171205 140.33893950958736,225.88465478277067 140.7376918741502,226.49041764438152 141.05669376580045,227.3557920793537 141.535196603043,228.00482207047753 142.13332514977083,229.0" stroke="#4dd2ff" stroke-linecap="round" stroke-linejoin="round" stroke-width="0.5"><title>2023-09-26 1.0km</title><desc>9920397094</desc></polyline><polyline fill="none" points="159.91593836294487,211.0 159.13136308570392,213.61488918599207 158.34678780846298,215.01354744983837 157.61825362220407,215.92571460851468 157.2259659837,216.65544761100318 157.0578427100554,217.38517996965675 157.11388380080462,218.29734451253898 157.3940892573446,219.02707542252028 158.06658235215582,220.06085977627663 158.34678780846298,221.0946428378229 158.90719872061163,222.43247782281833 159.97197945415974,223.77031064400217 161.76529437373392,227.4189346122439 162.94215728971176,229.0" stroke="#4dd2ff" stroke-linecap="round" stroke-linejoin="round" stroke-width="0.5"><title>2023-09-25 1.0km</title><desc>9914573673</desc></polyline><polyline fill="none" points="181.32704889355227,211.0 180.8846992624458,211.67200891877292 180.79622933617793,212.00801311869873 180.8846992624458,212.4400182645768 180.92893422557972,212.8720231244224 180.04423496313393,214.50403890397865 179.82306014746428,215.60804726480274 179.51341540599242,216.42405224451795 177.65554695483297,219.68806196353398 177.61131199169904,220.07206203386886 177.78825184400193,220.8400614973507 178.27483643847518,221.6080600572168 178.54024621727876,222.2800580559997 178.9383608852513,222.95205536298454 179.15953570092097,223.62405197828775 179.73459022142924,224.53604627848836 180.1769398523029,225.44803930463968 180.66352444700897,225.9760346848634 180.79622933617793,226.45603011449566 181.10587407811545,226.8400262040086 181.76939852489159,227.99201311788056 182.255983119132,228.5200064406381 182.3886880085338,229.0" stroke="#4dd2ff" stroke-linecap="round" stroke-linejoin="round" stroke-width="0.5"><title>2023-09-24 1.0km</title><desc>9907510217</desc></polyline><polyline fill="none" points="20.671041427878663,231.0 20.29525822820142,231.5825306751649 20.02684165723622,232.1650609219796 19.8657917145174,232.9223496025661 19.812108400044963,233.9126490924391 18.899492057971656,235.13595851819264 18.362658915575594,236.53402412019204 17.879509087419137,237.23305599595187 17.5574092019815,238.16509753774153 17.503725887509063,239.15539047430502 18.631075486773625,242.00975730718346 19.060542000690475,242.8835410165484 20.45630817115307,245.09712210064754 21.046824627555907,246.5534220727859 21.798391027143225,247.4854526500567 22.227857541060075,248.24272668687627 22.496274112490937,249.0" stroke="#4dd2ff" stroke-linecap="round" stroke-linejoin="round" stroke-width="0.5"><title>2023-09-23 1.0km</title><desc>9901004991</desc></polyline><polyline fill="none" points="40.69117305218242,231.0 40.33278702525422,231.6666743136011 39.97440099832602,232.83335294673452 39.155232936609536,234.5555895413272 38.336064874893054,235.7222637136001 37.61929282103665,237.66671666427283 37.5680948169902,238.72227474185638 37.67049082508311,239.33338663936593 38.694450901821256,241.7778292860603 38.84804491349496,242.5000494637643 39.05283692874946,242.88893696578452 39.76960898260586,243.77782193332678 40.33278702525422,244.88892667199252 40.79356905980967,246.05558488948736 41.56153911771253,247.16668627905892 42.431905183242634,249.0" stroke="#4dd2ff" stroke-linecap="round" stroke-linejoin="round" stroke-width="0.5"><title>2023-09-22 1.0km</title><desc>9895405405</desc></polyline><polyline fill="none" points="60.95418478921056,231.0 60.80738712917082,231.53097987367073 60.513791809789836,231.84956761042122 59.87766861682758,233.01772144268034 59.63300585048273,233.86728667921852 58.899017550982535,235.72570714971516 58.11609669867903,237.3186351749464 57.62677116552368,238.48678016033955 57.47997350571677,239.07085194438696 57.47997350571677,239.44253374281107 57.62677116552368,239.97350740875117 57.92036648537032,240.5044806843507 58.55648967833258,242.15049535757862 59.19261287082918,243.31863252696348 59.53514074371196,244.16818564524874 60.17126393644139,245.2301256377832 60.562724362593144,245.7079981250572 60.85631968243979,246.55754843255272 61.639240534976125,247.93806555081392 62.5200264940504,249.0" stroke="#4dd2ff" stroke-linecap="round" stroke-linejoin="round" stroke-width="0.5"><title>2023-09-21 1.0km</title><desc>9889267953</desc></polyline><polyline fill="none" points="81.83262381213717,231.0 81.1902608263772,232.9271348346956 80.81240024673752,234.4442362957052 80.20782331866212,235.71531812573085 79.48988821706735,237.84744888261775 78.2429483034648,240.18458284673397 77.90287378174253,241.45565159220132 77.9406598394271,241.74266671438818 78.16737618739717,242.3576986216649 78.65859494148754,243.42375232084305 78.9608834052924,244.32579616687144 79.71660456503741,245.39184610371012 80.17003726097755,246.2528849497321 80.43453966663219,246.86791188293137 80.73682813043706,247.4009346763487 81.22804688452743,247.76995015799184 81.83262381213717,248.6719869741064 81.8704098702874,248.83599351116573 82.09712621825747,249.0" stroke="#4dd2ff" stroke-linecap="round" stroke-linejoin="round" stroke-width="0.5"><title>2023-09-20 1.0km</title><desc>9882714971</desc></polyline><polyline fill="none" points="101.492503026966,231.0 101.10871653445065,231.97173551184824 100.38378649274819,234.10029377049068 100.34114354918711,234.79438729817048 100.08528588735498,235.16457019996597 99.78678528219461,235.85866255377186 99.61621350748464,236.50648139341502 99.27506995853037,237.3856630375376 98.29428225499578,238.9589323879336 98.03842459316365,239.88438310968922 97.9531387060415,240.71728759579128 98.03842459316365,241.55019097944023 98.29428225499578,242.47563789068954 98.59278286015615,243.12344991898863 99.53092762012966,244.74297707213555 100.00000000023283,245.39078676642384 100.42642943630926,246.5475881336024 100.85285887261853,247.28793989261612 101.27928830869496,247.889475055621 101.7483606885653,248.35219402058283 102.04686129419133,249.0" stroke="#4dd2ff" stroke-linecap="round" stroke-linejoin="round" stroke-width="0.5"><title>2023-09-19 1.0km</title><desc>9876194288</desc></polyline><polyline fill="none" points="119.86750662187114,231.0 119.54952251445502,231.51757766940864 119.01954900240526,232.5527319808025 118.8605569486972,233.24283409374766 117.90660462668166,234.91057835303945 117.16464170953259,236.46330257016234 117.00564965582453,237.03838483133586 117.05864700721577,237.67097482999088 117.37663111463189,238.47608863416826 117.85360727552325,239.33870964730158 118.27758608548902,240.5463774675154 118.8605569486972,241.81155127921375 119.49652516329661,242.96170751401223 120.07949602697045,243.70930815977044 120.76846159272827,244.85946160397725 121.19244040246122,246.18213597405702 121.93440331984311,247.33228578220587 122.30538477841765,248.36741916363826 122.9943503444083,249.0" stroke="#4dd2ff" stroke-linecap="round" stroke-linejoin="round" stroke-width="0.5"><title>2023-09-18 1.0km</title><desc>9870505463</desc></polyline><polyline fill="none" points="140.180867734598,231.0 139.92248525680043,231.5046786859748 139.56074978783727,233.18693856027676 139.0956613277085,233.97199189837556 138.88895534537733,234.58881895412924 137.75207244278863,236.43929712829413 137.3386604783591,237.44864696724107 137.0802780003287,238.3458457023953 137.28698398265988,238.9626692206948 138.42386688501574,241.42995830491418 138.99230833654292,242.3271523566218 139.40572030097246,243.2804198800004 140.0775147434324,244.17761175491614 140.4392502126284,244.79443055659067 140.90433867252432,246.25236392312218 142.91972199990414,249.0" stroke="#4dd2ff" stroke-linecap="round" stroke-linejoin="round" stroke-width="0.5"><title>2023-09-16 1.0km</title><desc>9856514700</desc></polyline><polyline fill="none" points="159.75117739033885,231.0 159.19823825755157,232.68001679936424 158.4794173850678,233.82002622907748 156.98648172640242,236.7000429572654 156.93118781317025,237.36004535935353 156.98648172640242,238.1400475098053 157.31824520626105,238.92004891473334 157.87118433904834,239.76004959398415 158.36882955837063,240.9000491327606 159.25353217078373,242.4000460996176 160.35941043659113,244.50003722141264 160.46999826305546,245.28003254742362 160.85705565591343,245.58003055123845 161.2994069622364,246.18002622795757 162.01822783472016,247.38001625816105 162.7923426204361,248.04001002263976 162.95822436036542,248.46000577666564 163.06881218706258,249.0" stroke="#4dd2ff" stroke-linecap="round" stroke-linejoin="round" stroke-width="0.5"><title>2023-09-15 1.0km</title><desc>9850671982</desc></polyline><polyline fill="none" points="180.45760422758758,231.0 179.54239577241242,233.4207119922503 178.51278626034036,234.91037746024085 178.05518203275278,235.7172784911818 177.3687756913714,237.45521655364428 177.19717410602607,238.07590785168577 177.19717410602607,238.57246056129225 177.3687756913714,239.19315103784902 178.05518203275278,241.05521972937277 178.6843878456857,242.29659657517914 180.22880211402662,244.96555061248364 180.8580079267267,246.14485319692176 180.9724089836236,246.82760657178005 181.4300132112112,247.26208570454037 182.173620081041,248.44138508086326 182.80282589397393,249.0" stroke="#4dd2ff" stroke-linecap="round" stroke-linejoin="round" stroke-width="0.5"><title>2023-09-14 1.0km</title><desc>9844236351</desc></polyline><polyline fill="none" points="17.13924675201997,251.0 17.46854208991863,251.26799398573348 17.59202784160152,251.535987853189 17.674351676134393,252.11664082697826 17.921323179500178,252.60796214069705 18.08597084856592,253.99259279557737 18.08597084856592,254.66257423744537 18.00364701403305,255.01989737094846 18.08597084856592,255.46655099239433 18.291780434548855,256.00253490457544 18.209456600248814,256.4491878034314 18.250618517398834,256.6725141296629 18.662237689830363,257.4318230249919 19.03269494511187,258.54845202929573 19.361990282777697,259.17376337520545 19.773609455209225,259.7544090486481 20.226390544790775,260.1563941896311 20.349876296473667,260.42438413598575 20.47336204838939,261.00502861407585 20.802657386288047,261.5856725371559 21.173114641336724,262.6576290910598 21.667057648068294,263.5955895241932 21.91402915143408,264.39955445716623 22.037514903349802,265.0695244217641 22.284486406715587,265.6054998616455 22.737267496297136,267.0794298829278 23.35469625494443,268.2407055631047 23.39585817232728,268.41936316300416 23.35469625494443,268.5533563285135 22.86075324798003,269.0 23.107724751578644,268.8213425707654 23.231210503261536,268.5533563285135 23.313534337561578,268.330034369661 23.272372420644388,268.0173834892921 23.025400917045772,267.70473244803725 22.284486406715587,266.0968102659681 21.91402915143408,264.89086583675817 21.131952724186704,263.14894187945174 20.761495468905196,261.45167783496436 20.555685882922262,260.96036367397755 19.773609455209225,259.9330691441428 18.99153302772902,258.45912178448634 18.62107577244751,257.2531621938688 18.49759002099745,256.4491878034314 18.168294682865962,255.60054701479385 17.50970400730148,254.1712545856717 17.345056338235736,253.50127260189038 16.768789496971294,252.4292998908204 16.64530374505557,251.84864721581107 16.60414182790555,251.1339970076806" stroke="#4dd2ff" stroke-linecap="round" stroke-linejoin="round" stroke-width="0.5"><title>2023-09-13 1.0km</title><desc>9837636972</desc></polyline></svg>