<?xml version="1.0" encoding="utf-8" ?>
<svg baseProfile="full" height="300mm" version="1.1" viewBox="0,0,200,300" width="200mm" xmlns="http://www.w3.org/2000/svg" xmlns:ev="http://www.w3.org/2001/xml-events" xmlns:xlink="http://www.w3.org/1999/xlink"><defs /><rect fill="#222222" height="300" width="200" x="0" y="0" /><text fill="#FFFFFF" style="font-size:12px; font-family:Arial; font-weight:bold;" x="10" y="20">Over 1km Runs</text><text fill="#FFFFFF" style="font-size:4px; font-family:Arial" x="10" y="280">ATHLETE</text><text fill="#FFFFFF" style="font-size:9px; font-family:Arial" x="10" y="290">Jiakai</text><text fill="#FFFFFF" style="font-size:4px; font-family:Arial" x="120" y="280">STATISTICS</text><text fill="#FFFFFF" style="font-size:3px; font-family:Arial" x="120" y="285">Number: 43</text><text fill="#FFFFFF" style="font-size:3px; font-family:Arial" x="120" y="290">Weekly: 5.4</text><text fill="#FFFFFF" style="font-size:3px; font-family:Arial" x="141" y="285">Total: 44.8 km</text><text fill="#FFFFFF" style="font-size:3px; font-family:Arial" x="141" y="290">Avg: 1.0 km</text><text fill="#FFFFFF" style="font-size:3px; font-family:Arial" x="167" y="285">Min: 1.0 km</text><text fill="#FFFFFF" style="font-size:3px; font-family:Arial" x="167" y="290">Max: 1.5 km</text><polyline fill="none" points="21.071171835064888,31.90601699310355 22.00660711247474,34.95114253554493 23.50330355670303,43.07146089873277 25.93543527740985,48.34965502936393 27.43213172070682,53.2218252713792 29.864263442344964,58.5 30.05135049764067,58.296993465861306 28.367566998116672,55.8609138969332 25.93543527740985,50.1767198771704 23.877477667294443,46.52258897176944 20.322823613882065,35.76317544630729 19.94864950235933,31.5" stroke="#4dd2ff" stroke-linecap="round" stroke-linejoin="round" stroke-width="0.5"><title>2023-10-31 1.0km</title><desc>10133123337</desc></polyline><polyline fill="none" points="50.76074621733278,34.70001399773173 51.68232312705368,39.5000279371161 51.68232312705368,41.30003098072484 53.7097923271358,44.70003348006867 59.2392537817359,56.500009189825505 60.160830691456795,58.30000098468736 60.529461454600096,58.5 56.2902076728642,50.100028715794906 54.447053854353726,44.900033494923264 52.4195846542716,40.7000300984364 49.47053854446858,31.5" stroke="#4dd2ff" stroke-linecap="round" stroke-linejoin="round" stroke-width="0.5"><title>2023-10-30 1.0km</title><desc>10127985445</desc></polyline><polyline fill="none" points="80.74376995768398,35.407913411268964 81.56227573473006,40.91450794483535 82.05337920133024,42.69082608493045 85.3274023104459,50.3289792065043 86.96441386453807,54.76975480490364 89.41993119753897,58.14473880105652 90.07473582029343,58.5 90.23843697458506,57.96710818167776 88.76512657571584,55.65790894487873 86.63701155409217,51.03950385074131 82.87188497837633,44.111879657022655 81.39857457857579,38.96055648243055 80.25266649015248,36.65133908088319 80.08896533492953,33.09869261388667 79.76156302448362,31.5" stroke="#4dd2ff" stroke-linecap="round" stroke-linejoin="round" stroke-width="0.5"><title>2023-10-28 1.0km</title><desc>10115543824</desc></polyline><polyline fill="none" points="111.49800723046064,37.10002202633768 112.97253050282598,41.900031730532646 114.63136918190867,45.700033406727016 116.105892454274,51.100026657572016 118.31767736189067,56.30001002806239 119.23925440665334,58.30000098561868 120.1608314504847,58.5 120.34514685999602,58.30000098561868 119.97651604190469,57.1000065873377 118.87062358763069,54.100018276833 115.18431541044265,46.900032833451405 112.23526886571199,38.90002665808424 110.39211477618665,34.90001474809833 109.6548531409353,31.5" stroke="#4dd2ff" stroke-linecap="round" stroke-linejoin="round" stroke-width="0.5"><title>2023-10-27 1.0km</title><desc>10110442644</desc></polyline><polyline fill="none" points="141.34079528041184,35.669135271338746 144.81703976448625,47.382385635282844 146.09776141680777,50.955909529468045 147.3784830691293,53.13972735963762 148.84216495696455,57.30882922117598 149.39104566536844,58.10294313239865 150.4888070812449,58.5 150.67176731675863,57.90441467636265 150.4888070812449,57.11030070716515 148.65920472051948,54.727957399562 145.91480118129402,49.963264477672055 142.62151693273336,40.23532365914434 140.42599410098046,36.66178557742387 139.3282326841727,31.5" stroke="#4dd2ff" stroke-linecap="round" stroke-linejoin="round" stroke-width="0.5"><title>2023-10-26 1.0km</title><desc>10104873905</desc></polyline><polyline fill="none" points="173.64768590871245,44.41307765478268 177.79478245787323,54.78262495691888 179.77817645855248,58.304348811507225 180.49941064044833,58.5 180.31910209544003,56.54348746663891 175.4507713643834,48.13046718318947 172.74614317994565,41.28264034097083 170.40213208738714,36.39132466586307 169.50058935955167,31.5" stroke="#4dd2ff" stroke-linecap="round" stroke-linejoin="round" stroke-width="0.5"><title>2023-10-25 1.0km</title><desc>10098978222</desc></polyline><polyline fill="none" points="20.00532038975507,61.5 19.823695676401258,62.87956863641739 20.91344395559281,67.41243201401085 22.366441660560668,70.36864313087426 23.27456522639841,73.9160921680741 24.909187643788755,78.64601691463031 28.360057192854583,85.34672935400158 29.449805471114814,88.10584137192927 29.81305489782244,88.5 30.176304324530065,88.30292069306597 29.99467961024493,85.7408883869648 27.99680776707828,81.99637522781268 26.543810062110424,79.82849679747596 24.727562930434942,75.68981492612511 24.36431350465864,73.52193139609881 22.184816947206855,70.17156249145046 20.91344395559281,67.21535115689039 20.550194528885186,63.66789325256832 20.00532038975507,61.5" stroke="#4dd2ff" stroke-linecap="round" stroke-linejoin="round" stroke-width="0.5"><title>2023-10-24 1.0km</title><desc>10092835699</desc></polyline><polyline fill="none" points="52.225324196740985,66.16189021081664 54.91049432847649,75.67989051667973 56.16357372328639,78.01082414062694 57.59566445928067,83.83814920345321 59.74380056466907,87.72302543837577 60.638857275247574,88.5 59.74380056466907,87.5287817621138 58.49072116985917,84.42088100290857 55.26851701270789,80.53599991230294 54.55247164424509,79.17629018146545 53.83642627578229,74.70866756676696 51.688290170393884,70.43528234469704 50.256199434399605,65.96764494967647 49.361142724752426,61.5" stroke="#4dd2ff" stroke-linecap="round" stroke-linejoin="round" stroke-width="0.5"><title>2023-10-23 1.0km</title><desc>10087395010</desc></polyline><polyline fill="none" points="76.2583675137721,61.62949837860651 76.73572628409602,61.5 80.13690752442926,61.758996738062706 81.62865368253551,62.14749170234427 81.98667276045308,62.341739120311104 82.76238076295704,62.924481116759125 83.29940937971696,63.57197177177295 84.492806305876,65.77343643736094 85.08950476930477,68.23389043315547 85.8652127715759,69.52886345918523 86.22323184926063,70.56484050879953 87.05860969773494,72.44254580512643 87.6553081611637,74.38499534671428 88.55035585584119,75.93895189516479 88.96804478019476,76.3921887052129 89.50507339718752,77.29866162565304 89.80342262866907,79.24110045615816 89.98243216751143,79.75908342085313 90.45979093806818,80.47130949964048 90.57913063117303,81.57202139764559 90.75814016978256,82.02525530860294 93.38361340807751,88.24101112637436 93.74163248599507,88.5 93.74163248599507,88.17626389593352 93.20460386900231,87.65828588197473 92.60790540603921,86.23384477256332 92.01120694261044,85.00364377879305 90.400121091865,80.01807478885166" stroke="#4dd2ff" stroke-linecap="round" stroke-linejoin="round" stroke-width="0.5"><title>2023-10-22 1.5km</title><desc>10080655811</desc></polyline><polyline fill="none" points="110.70558573654853,61.5 111.65288300043903,62.18528886185959 109.94774792529643,61.911173377535306 112.60018026432954,65.33761113631772 112.85279286815785,66.15995432407362 112.66333341551945,66.84523975942284 111.77918930235319,67.32493926456664 111.52657669852488,67.80463852267712 111.58972984971479,68.62697953346651 112.09495505690575,70.61430064769229 112.66333341551945,72.05339260253822 113.2948649248574,74.24629035609541 114.4316216413863,76.23359948891448 114.62108109425753,76.98740529286442 115.31576575455256,78.22090438427404 115.7578378112521,78.76912567886757 115.82099096174352,79.11176382406848 116.2630630186759,79.52292943227803 116.57882877299562,80.20820504275616 117.020900829928,81.51022731454577 117.46297288639471,82.40108361048624 117.39981973543763,84.18279364804039 118.22081069741398,85.75891891930951 118.47342330124229,86.51271702011582 118.91549535747617,87.33504152559908 119.67333316896111,88.29441919847159 120.05225207447074,88.5 118.59972960315645,86.44418994517764 118.28396384860389,85.34775606211042 117.65243233903311,83.97721189440927 117.39981973543763,83.08635710488306 116.57882877299562,81.92139186465647 115.88414411293343,79.93409485905431" stroke="#4dd2ff" stroke-linecap="round" stroke-linejoin="round" stroke-width="0.5"><title>2023-10-20 1.4km</title><desc>10069668027</desc></polyline><polyline fill="none" points="139.56703137257136,61.5 139.69562234613113,62.54652593983337 140.7243501334451,65.05818348564208 140.98153208033182,66.5930820464855 143.10328314173967,71.75590443867259 143.29616960207932,72.45358098583529 143.42476057563908,73.50009484484326 143.68194252229296,74.1977701097494 145.22503420338035,76.36056017078226 146.06087553082034,78.03497489710571 146.57523942436092,79.7093866688665 147.02530783158727,80.61635847843718 147.28248977847397,82.01169803109951 147.60396721214056,82.70936703804182 148.43980853934772,84.87213770003291 148.56839951267466,85.70933792338474 149.79001376056112,88.22093416174175 150.11149119399488,88.5 150.3043776541017,88.5 150.43296862742864,88.43023354804609 150.36867314088158,88.36046709102811 149.0827634066809,86.7558371637715 148.5041040261276,84.8023709814297 147.28248977847397,82.56983327766648 147.08960331836715,81.66286333516473 146.9610123448074,80.1279891502927" stroke="#4dd2ff" stroke-linecap="round" stroke-linejoin="round" stroke-width="0.5"><title>2023-10-19 1.3km</title><desc>10064004415</desc></polyline><polyline fill="none" points="168.91170686017722,61.5 171.55879083368927,64.94682409497909 171.38231856934726,67.43619421566837 171.7352630989626,69.92556195752695 172.9705689540133,74.32982213282958 174.73529160209,77.20216171373613 176.50001425109804,82.18087615049444 180.02945955004543,87.92553482879885 180.5588763449341,88.5 181.08829313889146,88.30851162341423 178.79415369499475,86.01065000984818 174.558819337748,77.77662924979813 173.49998574797064,74.13833271479234 170.49995724391192,67.81917402287945" stroke="#4dd2ff" stroke-linecap="round" stroke-linejoin="round" stroke-width="0.5"><title>2023-10-18 1.0km</title><desc>10058081424</desc></polyline><polyline fill="none" points="20.287388553842902,93.13637109496631 21.79542421642691,101.93184924288653 25.754017831757665,112.36365937138908 28.39308024197817,117.88636654615402 29.524106989614666,118.5 30.089620362967253,118.5 30.466629278846085,117.6818220319692 29.147098074667156,116.0454653725028 27.45055795367807,113.38638374954462 25.188504458405077,108.47730330657214 24.245982169173658,105.61366904852912 20.287388553842902,97.63638664479367 19.91037963796407,96.40911039849743 19.533370722085238,91.5" stroke="#4dd2ff" stroke-linecap="round" stroke-linejoin="round" stroke-width="0.5"><title>2023-10-17 1.0km</title><desc>10051702317</desc></polyline><polyline fill="none" points="48.970755643211305,92.12307983194478 50.884801470674574,95.44616994820535 53.755870210938156,102.9231084161438 55.287106873467565,105.83080136496574 57.00974811799824,111.2307946155779 59.1151985283941,116.63077754480764 59.880816859193146,118.08461733930744 60.83783977292478,118.5 61.02924435585737,118.29230867745355 60.83783977292478,117.6692346171476 58.73238936252892,114.55386225529946 55.86132062226534,107.4923388492316 53.755870210938156,103.13080086861737 52.0332289673388,95.03078389703296 51.076206053607166,91.5" stroke="#4dd2ff" stroke-linecap="round" stroke-linejoin="round" stroke-width="0.5"><title>2023-10-16 1.0km</title><desc>10046279660</desc></polyline><polyline fill="none" points="79.47053427621722,91.5 80.26045795157552,93.21429314976558 81.05038162600249,97.07144905114546 82.82770989462733,103.07145919674076 85.19748091883957,106.71431647357531 87.96221378073096,117.00000656116754 88.94961837399751,118.07143052481115 90.3319848049432,118.5 90.5294657247141,118.07143052481115 90.3319848049432,116.78572172136046 87.76473286189139,113.14287703181617 86.3823664309457,108.85717156808823 84.80251908209175,106.28574526542798 81.05038162600249,97.50002161413431 79.6680151950568,91.5" stroke="#4dd2ff" stroke-linecap="round" stroke-linejoin="round" stroke-width="0.5"><title>2023-10-15 1.0km</title><desc>10039610121</desc></polyline><polyline fill="none" points="109.3813481060788,93.45968570327386 109.98334652278572,99.77421970525756 111.58867563586682,104.34680488915183 113.59533702675253,107.17744932160713 114.7993338610977,111.09679868584499 118.21065822523087,117.19355405378155 119.0133227808401,118.06451808195561 120.01665347721428,118.5 120.6186518939212,118.06451808195561 120.6186518939212,117.41129508474842 116.60532911214978,114.1451779382769 113.99666930455714,109.354866275331 112.99333860911429,105.21777269500308 110.58534494042397,99.77421970525756 109.3813481060788,95.20162746263668 109.58201424591243,92.37097158376127 109.3813481060788,91.5" stroke="#4dd2ff" stroke-linecap="round" stroke-linejoin="round" stroke-width="0.5"><title>2023-10-14 1.0km</title><desc>10033377496</desc></polyline><polyline fill="none" points="138.87809242028743,91.92857338255271 142.43274843506515,96.21430373727344 142.82771021407098,99.4285973678343 146.18488533888012,109.7143131652847 149.3445795737207,117.2142913856078 150.33198402170092,118.5 151.1219075806439,118.5 151.1219075806439,117.85714576416649 150.92442669067532,117.2142913856078 149.1470986828208,115.92858220404014 147.17228978779167,112.28573644324206 145.00000000093132,105.42860266123898 141.05038220714778,96.64287642599083 140.45793953817338,93.64286628039554 139.47053508926183,91.5" stroke="#4dd2ff" stroke-linecap="round" stroke-linejoin="round" stroke-width="0.5"><title>2023-10-13 1.0km</title><desc>10028006924</desc></polyline><polyline fill="none" points="169.20672580506653,91.5 171.10615996737033,93.97329326206818 172.24582046456635,96.03436931292526 172.4357638815418,98.71376591431908 172.24582046456635,101.59926708275452 174.33519804291427,105.92751326714642 176.80446245428175,112.52292317361571 179.2737268647179,117.0572584841866 179.84355711378157,117.88168229884468 180.79327419400215,118.5 180.79327419400215,117.46947042178363 178.70389661658555,114.79009174578823 176.80446245428175,111.49239139887504 174.33519804291427,104.69087218213826 172.81565071363002,102.01148129324429 172.05587704852223,99.74430238734931" stroke="#4dd2ff" stroke-linecap="round" stroke-linejoin="round" stroke-width="0.5"><title>2023-10-12 1.0km</title><desc>10021974100</desc></polyline><polyline fill="none" points="21.84325277712196,125.328374392353 22.586016830056906,129.35823639691807 22.400325817056,130.97017953987233 24.07154493406415,136.4104806468822 25.37138202600181,138.82838878338225 26.671219117939472,143.2612148274202 28.52812924887985,147.69403370190412 28.89951127488166,148.09701688028872 29.82796634081751,148.5 29.642275327816606,147.69403370190412 27.599674183875322,142.4552469891496 25.37138202600181,138.6268965199124 22.400325817056,131.7761507553514 21.657561764121056,129.15674343751743 21.286179738119245,125.328374392353 20.17203365918249,121.5" stroke="#4dd2ff" stroke-linecap="round" stroke-linejoin="round" stroke-width="0.5"><title>2023-10-10 1.0km</title><desc>10009069592</desc></polyline><polyline fill="none" points="50.42599410098046,124.87501476355828 51.706715752370656,128.44855520920828 52.98743740469217,133.2132684479002 55.731840944848955,139.16914817341603 57.92736377660185,146.71324363560416 59.20808542892337,148.5 59.574005900882185,147.90441467636265 59.756966137327254,145.72060069977306 58.476244485005736,141.94855421641842 55.731840944848955,137.18385639088228 52.62151693273336,128.44855520920828 51.706715752370656,124.47795442165807 50.24303386360407,121.5" stroke="#4dd2ff" stroke-linecap="round" stroke-linejoin="round" stroke-width="0.5"><title>2023-10-09 1.0km</title><desc>10003389142</desc></polyline><polyline fill="none" points="79.5026821307838,121.5 80.85290055535734,123.17442605248652 82.20311897993088,126.31397224590182 82.97467236500233,132.59305424662307 85.86799755971879,138.87212239811197 88.37554606050253,145.98838289501145 89.53287613857538,148.08139730314724 90.4973178692162,148.5 90.4973178692162,146.82558884308673 86.83243929035962,140.9651420377195 82.01023063343018,129.24421223602258 80.08134717028588,121.70930331083946" stroke="#4dd2ff" stroke-linecap="round" stroke-linejoin="round" stroke-width="0.5"><title>2023-10-08 1.0km</title><desc>9996447828</desc></polyline><polyline fill="none" points="111.53421115130186,126.90002223243937 112.42287495918572,130.17860173550434 115.08886638097465,137.31431943108328 115.97753018885851,140.40002917940728 118.82125437259674,147.5357190708164 119.7099181804806,148.5 119.88765094149858,147.7285752852913 119.88765094149858,146.95715034380555 116.51072847377509,140.97859935299493 114.91113361995667,137.507176396437 112.06740943621844,129.02145649609156 111.17874562833458,124.58572835079394 110.11234905850142,121.5" stroke="#4dd2ff" stroke-linecap="round" stroke-linejoin="round" stroke-width="0.5"><title>2023-10-07 1.0km</title><desc>9989974159</desc></polyline><polyline fill="none" points="142.79409733694047,129.5425824597478 144.2058750409633,134.138332715258 145.26470831874758,136.43620480247773 147.38237487524748,145.43618429102935 147.91179151460528,147.15958107053302 148.9706247933209,148.5 149.8529858579859,148.5 150.20593028329313,147.73404641030356 150.02945807110518,147.15958107053302 147.91179151460528,144.0957637843676 145.79412495810539,139.50003109802492 145.08823610655963,136.43620480247773 141.38231963291764,127.43619421636686 140.85290299355984,124.18086357903667 139.79406971577555,121.5" stroke="#4dd2ff" stroke-linecap="round" stroke-linejoin="round" stroke-width="0.5"><title>2023-10-06 1.0km</title><desc>9984428862</desc></polyline><polyline fill="none" points="169.1872590482235,121.5 172.24659639131278,129.68855017540045 174.2861546203494,136.54921020008624 177.75340360961854,145.18034092569724 179.18109436891973,148.05737900245003 179.79296183772385,148.5 180.60878513008356,148.5 180.8127409517765,148.05737900245003 180.20087348297238,146.95082622091286 177.75340360961854,143.40985458972864 176.32571284938604,140.53281207149848 173.87824297416955,134.1147842395585 172.8584638601169,130.79510930157267 170.00308233965188,125.48362178634852 170.00308233965188,123.49181155208498" stroke="#4dd2ff" stroke-linecap="round" stroke-linejoin="round" stroke-width="0.5"><title>2023-10-04 1.0km</title><desc>9971682885</desc></polyline><polyline fill="none" points="20.913444256410003,154.65329869673587 21.821567754261196,157.80659368471242 22.72969125304371,159.9744818371255 23.456190052442253,163.324850987643 26.907059347257018,170.22265664255247 27.088684047572315,172.58761449554004 28.178432245738804,177.317523942329 28.541681645438075,177.90876203635707 29.631429843604565,178.5 29.631429843604565,176.52920628082938 27.27030874788761,172.19345499831252 25.635686449706554,168.4489368838258 24.72756295092404,166.67521595116705 23.8194394512102,164.1131725325249 22.003192454576492,160.36864313133992 21.27669365517795,157.41243201401085 20.913444256410003,154.45621763705276 20.368570156395435,151.5" stroke="#4dd2ff" stroke-linecap="round" stroke-linejoin="round" stroke-width="0.5"><title>2023-10-03 1.0km</title><desc>9965060084</desc></polyline><polyline fill="none" points="50.064607836306095,152.61570723657496 52.53230391815305,160.64878723444417 52.943586599081755,164.2190381870605 54.38307597953826,166.0041620878037 55.41128268092871,168.68184597115032 57.2620547413826,175.5991850697901 58.70154412277043,177.83058141567744 59.72975082322955,178.5 59.935392163693905,178.27686048811302 59.31846814323217,176.49174380488694 57.05641340184957,172.25208747433499 53.35486927814782,163.32647584215738 51.09281453676522,156.63224989292212 50.68153185676783,151.5" stroke="#4dd2ff" stroke-linecap="round" stroke-linejoin="round" stroke-width="0.5"><title>2023-10-02 1.0km</title><desc>9958643020</desc></polyline><polyline fill="none" points="80.72019305825233,156.25201799208298 81.11831463407725,158.1960231375415 85.49765197001398,168.56402885355055 87.687320638448,175.2600131004583 88.88168536685407,177.63600384257734 90.0760500933975,178.5 90.27511088270694,178.28400098439306 90.0760500933975,177.42000476364046 86.09483433328569,171.37202410562895 82.31267936248332,162.08402956835926 80.52113226987422,156.4680186274927 79.72488911822438,151.5" stroke="#4dd2ff" stroke-linecap="round" stroke-linejoin="round" stroke-width="0.5"><title>2023-10-01 1.0km</title><desc>9952075403</desc></polyline><polyline fill="none" points="111.12336484435946,155.41306045162492 112.74614235199988,158.7391573113855 113.46737679839134,162.0652500144206 114.00830263458192,165.19568640808575 116.71293181274086,172.82610969012603 119.05694376770407,177.71739515918307 120.13879543822259,178.5 120.49941266234964,177.9130463907495 116.89324042480439,172.43480646470562 115.27046291809529,168.71742294891737 114.72953708283603,166.76090322365053 112.2052165158093,161.282640340738 110.76274762116373,155.2174075653311 109.50058733765036,151.5" stroke="#4dd2ff" stroke-linecap="round" stroke-linejoin="round" stroke-width="0.5"><title>2023-09-30 1.0km</title><desc>9945549317</desc></polyline><polyline fill="none" points="140.819725911133,151.5 142.61127194948494,154.52401233883575 143.20845396257937,156.90001985034905 144.80093932896852,160.788027996663 145.59718201402575,166.62003056914546 146.19436402618885,168.34802910801955 148.58309207763523,174.18001667386852 149.18027408979833,177.8520029061474 149.57839543186128,178.2840009846259 150.1755774449557,178.5 150.37463811598718,178.06800195295364 146.79154603928328,171.58802362973802 144.4028179878369,165.97203085501678 143.60657530464232,162.73203014023602 140.819725911133,156.25201799278148 139.62536188494414,152.36400384292938" stroke="#4dd2ff" stroke-linecap="round" stroke-linejoin="round" stroke-width="0.5"><title>2023-09-28 1.0km</title><desc>9933629332</desc></polyline><polyline fill="none" points="169.72187129873782,154.56819501379505 171.22990807145834,159.88639168953523 174.05747701786458,163.77275975467637 175.94252298213542,170.72729958500713 178.58158733230084,175.43183137779124 179.33560571912676,178.09091104590334 180.08962410409003,178.5 180.46663329843432,177.8863665459212 180.08962410409003,177.06818839721382 178.58158733230084,175.02274197200313 174.2459816141054,166.2273052087985 171.9839264564216,160.09093751222827 169.533366702497,151.5" stroke="#4dd2ff" stroke-linecap="round" stroke-linejoin="round" stroke-width="0.5"><title>2023-09-27 1.0km</title><desc>9927137811</desc></polyline><polyline fill="none" points="27.242982050171122,181.5 26.704666358185932,184.09618973411852 26.166350666200742,185.5889953733422 25.747660683467984,187.40632057009498 23.295333641814068,192.5337536331499 22.039263694081455,194.67558394157095 21.80001227511093,195.5842376536457 21.919637984363362,196.29817920009373 22.218702257843688,197.33663860021625 23.115895077819005,199.54336076957406 23.41495935129933,200.12749218509998 23.773836479289457,201.16594708053162 24.97009357251227,202.65872385265538 25.50840926473029,203.8269821741269 26.10653781169094,204.7356264666305 26.5850406489335,206.03368811903056 27.302794905146584,207.0072331057745 28.1999877251219,208.5" stroke="#4dd2ff" stroke-linecap="round" stroke-linejoin="round" stroke-width="0.5"><title>2023-09-26 1.0km</title><desc>9920397094</desc></polyline><polyline fill="none" points="54.87390754465014,181.5 53.6970446286723,185.4223337789299 52.52018171316013,187.52032117464114 51.4273804333061,188.8885719126556 50.83894897578284,189.98317141644657 50.586764065083116,191.07776995445602 50.670825701672584,192.44601676869206 51.09113388648257,193.5406131336931 52.099873528350145,195.09128966438584 52.52018171316013,196.64196425664704 53.36079808138311,198.64871673414018 54.957969181705266,200.65546596597414 57.64794156095013,206.12840191822033 59.413235934916884,208.5" stroke="#4dd2ff" stroke-linecap="round" stroke-linejoin="round" stroke-width="0.5"><title>2023-09-25 1.0km</title><desc>9914573673</desc></polyline><polyline fill="none" points="86.99057334009558,181.5 86.3270488937851,182.50801337813027 86.19434400415048,183.012019678019 86.3270488937851,183.6600273968652 86.39340133825317,184.30803468660451 85.0663524447009,186.75605835590977 84.73459022119641,188.412070897175 84.2701231087558,189.63607836677693 81.48332043224946,194.53209294530097 81.41696798754856,195.1080930508324 81.68237776588649,196.26009224599693 82.41225465759635,197.4120900858543 82.81036932580173,198.42008708399953 83.40754132764414,199.4280830444768 83.73930355114862,200.43607796734432 84.60188533202745,201.80406941764522 85.26540977857076,203.1720589569304 85.99528667051345,203.964052027266 86.19434400415048,204.6840451717144 86.65881111705676,205.2600393060129 87.65409778733738,206.98801967676263 88.38397467858158,207.78000966098625 88.58303201268427,208.5" stroke="#4dd2ff" stroke-linecap="round" stroke-linejoin="round" stroke-width="0.5"><title>2023-09-24 1.0km</title><desc>9907510217</desc></polyline><polyline fill="none" points="116.00656214216724,181.5 115.44288734253496,182.37379601283465 115.04026248585433,183.2475913829403 114.79868757212535,184.38352440390736 114.71816260041669,185.86897363874596 113.34923808695748,187.70393777731806 112.54398837359622,189.80103618034627 111.81926363147795,190.84958399401512 111.33611380308867,192.2476463066414 111.25558883138001,193.73308571160305 112.94661323027685,198.0146359608043 113.59081300115213,199.32531152490992 115.6844622567296,202.64568315108772 116.57023694179952,204.83013310923707 117.69758654106408,206.22817897505593 118.34178631193936,207.36409003043082 118.74441116908565,208.5" stroke="#4dd2ff" stroke-linecap="round" stroke-linejoin="round" stroke-width="0.5"><title>2023-09-23 1.0km</title><desc>9901004991</desc></polyline><polyline fill="none" points="146.03675957862288,181.5 145.49918053811416,182.50001147040166 144.96160149760544,184.2500294201309 143.73284940514714,186.8333843119908 142.50409731268883,188.58339557045838 141.4289392316714,191.50007499643834 141.3521422254853,193.08341211284278 141.5057362378575,194.0000799590489 143.04167635319754,197.66674392909044 143.27206737035885,198.75007419561734 143.5792553932406,199.3334054487059 144.65441347425804,200.66673290001927 145.49918053811416,202.3333900080761 146.19035359006375,204.08337733428925 147.34230867680162,205.75002941855928 148.64785777498037,208.5" stroke="#4dd2ff" stroke-linecap="round" stroke-linejoin="round" stroke-width="0.5"><title>2023-09-22 1.0km</title><desc>9895405405</desc></polyline><polyline fill="none" points="176.43127718381584,181.5 176.21108069410548,182.29646981041878 175.77068771468475,182.77435141563183 174.8165029254742,184.5265821639914 174.44950877595693,185.80093001882778 173.34852632693946,188.58856072451454 172.17414504801854,190.97795276233228 171.44015674851835,192.73017024050932 171.219960258808,193.60627791646402 171.219960258808,194.1638006141875 171.44015674851835,194.96026111306855 171.88054972840473,195.75672102649696 172.8347345176153,198.22574303630972 173.78891930636019,199.97794879041612 174.30271111568436,201.2522784678731 175.25689590489492,202.8451884566457 175.84408654412255,203.5619971874985 176.28447952400893,204.83632264879998 177.45886080292985,206.90709832619177 178.780039741192,208.5" stroke="#4dd2ff" stroke-linecap="round" stroke-linejoin="round" stroke-width="0.5"><title>2023-09-21 1.0km</title><desc>9889267953</desc></polyline><polyline fill="none" points="27.748935718322173,211.5 26.785391239682212,214.3907022520434 26.218600370222703,216.6663544435287 25.311734978109598,218.57297718862537 24.234832325717434,221.77117332391208 22.3644224551972,225.2768742701155 21.854310672497377,227.18347738828743 21.910989759257063,227.61400007159682 22.251064281212166,228.5365479324828 22.98789241211489,230.13562848127913 23.441325108055025,231.4886942502926 24.574906847672537,233.08776915556518 25.255055891582742,234.37932742462726 25.6518095000647,235.30186782439705 26.105242195772007,236.10140201455215 26.84207032690756,236.65492523700232 27.748935718322173,238.00798046117416 27.80561480554752,238.25399026670493 28.145689327502623,238.5" stroke="#4dd2ff" stroke-linecap="round" stroke-linejoin="round" stroke-width="0.5"><title>2023-09-20 1.0km</title><desc>9882714971</desc></polyline><polyline fill="none" points="57.23875454021618,211.5 56.663074801443145,212.95760326780146 55.575679739005864,216.15044065576512 55.51171532343142,217.19158094731392 55.12792883068323,217.74685529997805 54.68017792282626,218.7879938307451 54.424320260761306,219.75972209015163 53.91260493732989,221.0784945563646 52.44142338237725,223.4383985819295 52.057636889629066,224.82657466462115 51.929708058945835,226.07593139371602 52.057636889629066,227.32528646918945 52.44142338237725,228.71345683612162 52.88917429000139,229.68517487851204 54.296391429845244,232.11446560826153 55.0,233.08618014963577 55.63964415411465,234.8213822004036 56.27928830869496,235.9319098389824 56.91893246280961,236.83421258348972 57.62254103273153,237.52829103090335 58.070291941054165,238.5" stroke="#4dd2ff" stroke-linecap="round" stroke-linejoin="round" stroke-width="0.5"><title>2023-09-19 1.0km</title><desc>9876194288</desc></polyline><polyline fill="none" points="84.80125993303955,211.5 84.32428377168253,212.27636650414206 83.52932350384071,213.82909797120374 83.29083542292938,214.8642511406215 81.85990693978965,217.3658675296465 80.74696256406605,219.69495385535993 80.50847448362038,220.5575772470329 80.58797051059082,221.50646224501543 81.06494667194784,222.7141329512233 81.78041091328487,224.0080644710688 82.41637912811711,225.81956620130222 83.29083542292938,227.71732691884972 84.24478774517775,229.44256127101835 85.11924404045567,230.56396223965567 86.15269238920882,232.28919240599498 86.78866060357541,234.27320396108553 87.90160497976467,235.99842867336702 88.45807716762647,237.5511287454283 89.49152551637962,238.5" stroke="#4dd2ff" stroke-linecap="round" stroke-linejoin="round" stroke-width="0.5"><title>2023-09-18 1.0km</title><desc>9870505463</desc></polyline><polyline fill="none" points="115.27130160154775,211.5 114.8837278848514,212.2570180289331 114.34112468129024,214.78040784032783 113.64349199132994,215.95798784750514 113.33343301760033,216.88322843116475 111.62810866395012,219.6589456924121 111.00799071695656,221.1729704508325 110.6204170002602,222.51876855356386 110.93047597352415,223.4440038310131 112.63580032717437,227.14493745734217 113.48846250446513,228.4907285349327 114.10858045099303,229.92062982002972 115.11627211468294,231.2664176323451 115.65887531870976,232.1916458348278 116.35650800867006,234.37854588468326 119.37958299927413,238.5" stroke="#4dd2ff" stroke-linecap="round" stroke-linejoin="round" stroke-width="0.5"><title>2023-09-16 1.0km</title><desc>9856514700</desc></polyline><polyline fill="none" points="144.6267660856247,211.5 143.79735738644376,214.02002519892994 142.71912607783452,215.73003934358712 140.4797225901857,220.05006443581078 140.39678171975538,221.0400680389721 140.4797225901857,222.21007126464974 140.977367809508,223.3800733720418 141.80677650868893,224.64007439091802 142.5532443379052,226.35007369914092 143.88029825640842,228.6000691493973 145.53911565523595,231.75005583208986 145.7049973946996,232.92004882113542 146.28558348398656,233.37004582688678 146.94911044370383,234.27003934187815 148.02734175231308,236.07002438721247 149.18851393088698,237.06001503393054 149.43733654078096,237.69000866496935 149.60321828071028,238.5" stroke="#4dd2ff" stroke-linecap="round" stroke-linejoin="round" stroke-width="0.5"><title>2023-09-15 1.0km</title><desc>9850671982</desc></polyline><polyline fill="none" points="175.68640634138137,211.5 174.31359365861863,215.13106798846275 172.7691793902777,217.3655661904486 172.082773049362,218.57591773686 171.05316353728995,221.18282483052462 170.79576115915552,222.11386177758686 170.79576115915552,222.85869084193837 171.05316353728995,223.78972655686084 172.082773049362,226.58282959414646 173.02658176841214,228.4448948628269 175.34320317115635,232.44832591875456 176.2870118902065,234.21727979544085 176.458613475319,235.2414098577574 177.14501981670037,235.89312855689786 178.26043012179434,237.662077621324 179.20423884084448,238.5" stroke="#4dd2ff" stroke-linecap="round" stroke-linejoin="round" stroke-width="0.5"><title>2023-09-14 1.0km</title><desc>9844236351</desc></polyline><polyline fill="none" points="20.708870128029957,241.5 21.202813134761527,241.90199097857112 21.38804176240228,242.3039817797835 21.511527514085174,243.1749612404965 21.88198476913385,243.91194321104558 22.128956272732466,245.98888919339515 22.128956272732466,246.99386135616805 22.005470520816743,247.52984605642268 22.128956272732466,248.1998264885624 22.437670651823282,249.00380235683406 22.31418490037322,249.67378170514712 22.37592777609825,250.00877119449433 22.993356534745544,251.14773453748785 23.549042417434976,252.8226780439727 24.042985424166545,253.76064506283728 24.660414182813838,254.63161357294302 25.339585817186162,255.23459128447575 25.524814444594085,255.6365762039204 25.71004307223484,256.5075429211138 26.20398607919924,257.378508805763 26.75967196188867,258.9864436365897 27.500586471986026,260.3933842863189 27.871043727034703,261.59933168569114 28.056272354675457,262.604286632617 28.426729609956965,263.40824979246827 29.10590124432929,265.6191448243917 30.032044382300228,267.36105834465707 30.09378725825809,267.62904474453535 30.032044382300228,267.8300344927702 29.291129871970043,268.5 29.66158712701872,268.2320138561772 29.846815754659474,267.8300344927702 29.970301506109536,267.4950515545206 29.908558630617335,267.0260752339964 29.538101375568658,266.55709867202677 28.426729609956965,264.14521539898124 27.871043727034703,262.33629875513725 26.69792908593081,259.7234128191485 26.142243203241378,257.17751675244654 25.833528824150562,256.44054551096633 24.660414182813838,254.8996037162142 23.487299541477114,252.6886826767004 22.931613658554852,250.87974329077406 22.74638503161259,249.67378170514712 22.25244202418253,248.40082052216167 21.26455601071939,246.25688187853666 21.017584507120773,245.25190890283557 20.153184245107695,243.6439498362015 19.967955617699772,242.7729708236875 19.90621274174191,241.70099551149178" stroke="#4dd2ff" stroke-linecap="round" stroke-linejoin="round" stroke-width="0.5"><title>2023-09-13 1.0km</title><desc>9837636972</desc></polyline></svg>