<?xml version="1.0" encoding="utf-8" ?>
<svg baseProfile="full" height="300mm" version="1.1" viewBox="0,0,200,300" width="200mm" xmlns="http://www.w3.org/2000/svg" xmlns:ev="http://www.w3.org/2001/xml-events" xmlns:xlink="http://www.w3.org/1999/xlink"><defs /><rect fill="#222222" height="300" width="200" x="0" y="0" /><text fill="#FFFFFF" style="font-size:12px; font-family:Arial; font-weight:bold;" x="10" y="20">Over 1km Runs</text><text fill="#FFFFFF" style="font-size:4px; font-family:Arial" x="10" y="280">ATHLETE</text><text fill="#FFFFFF" style="font-size:9px; font-family:Arial" x="10" y="290">Jiakai</text><text fill="#FFFFFF" style="font-size:4px; font-family:Arial" x="120" y="280">STATISTICS</text><text fill="#FFFFFF" style="font-size:3px; font-family:Arial" x="120" y="285">Number: 89</text><text fill="#FFFFFF" style="font-size:3px; font-family:Arial" x="120" y="290">Weekly: 5.9</text><text fill="#FFFFFF" style="font-size:3px; font-family:Arial" x="141" y="285">Total: 91.8 km</text><text fill="#FFFFFF" style="font-size:3px; font-family:Arial" x="141" y="290">Avg: 1.0 km</text><text fill="#FFFFFF" style="font-size:3px; font-family:Arial" x="167" y="285">Min: 1.0 km</text><text fill="#FFFFFF" style="font-size:3px; font-family:Arial" x="167" y="290">Max: 1.5 km</text><polyline fill="none" points="17.61318105319515,35.273397946031764 18.92593147419393,39.935274790157564 20.716045684646815,43.6906666085124 22.26747800037265,48.093529578414746 22.74484178982675,49.0 22.983523684553802,49.0 23.102864631451666,47.964033765834756 22.625500842463225,46.539579198579304 20.477363789919764,42.13671234436333 20.477363789919764,40.97124574659392 18.92593147419393,37.604337910655886 18.68724957946688,35.01440442644525 18.209885790478438,33.46044250787236 16.897135369013995,31.0" stroke="#4dd2ff" stroke-linecap="round" stroke-linejoin="round" stroke-width="0.5"><title>2023-12-30 1.0km</title><desc>10458865202</desc></polyline><polyline fill="none" points="43.83590514911339,31.0 41.569297736510634,31.2236037919065 40.023883590940386,32.22982044820674 38.89057988440618,33.347838174086064 38.37544183572754,34.68945835984778 37.96333139715716,39.94412601995282 38.47846944537014,45.19877551647369 38.68452466465533,45.981381334131584 38.99360749358311,46.65218599990476 40.642049248795956,48.44099699554499 42.49654622329399,49.0 43.93893275875598,48.776398822665215 45.69040212314576,47.65839244390372 46.72067822003737,46.763986748992465 47.75095431692898,43.74536364292726 47.64792670775205,41.39754152763635 47.3388438783586,39.385119685321115 47.132788659539074,34.46585507784039 46.82370583014563,33.236036438611336 46.205540171824396,32.453424059203826 45.48434690386057,31.894414970069192 43.83590514911339,31.559009417891502 41.569297736510634,31.670811276882887 39.92085598083213,32.565225852420554 39.09663510369137,33.57144162070472 38.47846944537014,35.13666482537519 38.47846944537014,35.91927582339849 38.78755227429792,37.81990085518919 38.581497055478394,39.385119685321115" stroke="#4dd2ff" stroke-linecap="round" stroke-linejoin="round" stroke-width="0.5"><title>2023-12-29 1.0km</title><desc>10454615358</desc></polyline><polyline fill="none" points="63.200892019085586,32.90909918991383 64.96026760572568,39.18183983606286 67.72500067064539,47.63636975153349 68.60468846466392,49.0 68.730358148925,49.0 68.730358148925,47.63636975153349 66.84531287755817,41.909111761138774 65.33727666037157,38.22729371488094 64.33191918209195,36.318199999048375 62.698213279712945,31.0" stroke="#4dd2ff" stroke-linecap="round" stroke-linejoin="round" stroke-width="0.5"><title>2023-12-27 1.0km</title><desc>10441997651</desc></polyline><polyline fill="none" points="85.17834758106619,33.318191617610864 87.18906224193051,37.27274710254278 88.19441957212985,41.36365769722033 89.57678590156138,43.9545630736975 91.21049156412482,48.18182197120041 91.713170228526,49.0 91.9645095616579,48.86363702046219 91.0848218970932,46.272738500731066 89.82812523469329,44.363653065636754 85.80669591296464,34.818196414853446 85.5553565802984,32.227278276346624 85.17834758106619,31.0" stroke="#4dd2ff" stroke-linecap="round" stroke-linejoin="round" stroke-width="0.5"><title>2023-12-17 1.0km</title><desc>10391591057</desc></polyline><polyline fill="none" points="108.50807918328792,34.16902771452442 109.90991546120495,37.84509256517049 112.24630925711244,42.408472511102445 114.34906367305666,48.492960318690166 114.81634243251756,49.0 114.9331621224992,48.87324009358417 114.9331621224992,48.366200375021435 114.34906367305666,46.71832025947515 111.19493204867467,40.50706566812005 109.7930957712233,36.704245691304095 108.74171856278554,32.39437291189097 107.92398073431104,31.0" stroke="#4dd2ff" stroke-linecap="round" stroke-linejoin="round" stroke-width="0.5"><title>2023-12-16 1.0km</title><desc>10386207035</desc></polyline><polyline fill="none" points="131.85358184901997,34.383472079527564 132.3524808101356,36.684229540871456 134.0986271747388,41.96242696943227 135.0964250974357,43.58648467215244 136.46839724108577,48.05263596656732 136.8425714620389,49.0 137.09202094282955,49.0 137.09202094282955,47.64662266056985 135.2211498375982,41.96242696943227 132.6019302904606,37.90227644436527 132.47720555076376,36.27821372705512 131.72885710885748,34.383472079527564 131.97830658918247,33.16542284714524 131.47940762806684,31.0" stroke="#4dd2ff" stroke-linecap="round" stroke-linejoin="round" stroke-width="0.5"><title>2023-12-14 1.0km</title><desc>10376526598</desc></polyline><polyline fill="none" points="161.00639193784446,32.565225852653384 160.07914358749986,31.7826131277252 158.53372966917232,31.111801900318824 157.09134334605187,31.0 155.64895702246577,31.33540567557793 153.79446032084525,32.34162225795444 152.97023956477642,33.459639901760966 152.35207399725914,35.360268009011634 152.35207399725914,39.60872224404011 152.55812918627635,40.95033690426499 152.97023956477642,42.62735356413759 152.66115678101778,44.63977111433633 152.76418437529355,45.42237722000573 152.86721196956933,45.869580527883954 153.89748791558668,47.65839244425297 155.54592942772433,48.88819941575639 156.06106740003452,49.0 157.09134334605187,49.0 158.12161929067224,49.0 159.97611599275842,48.32919637009036 161.00639193784446,47.32299037033226 161.62455750536174,46.20498292252887 161.83061269437894,43.745363643043675 161.93364028912038,42.0683482165914 161.62455750536174,40.05592726240866 161.83061269437894,37.37269517919049 161.7275850996375,35.02486322144978 161.62455750536174,34.242251763120294 160.90336434356868,32.67702763737179 160.59428155981004,32.34162225795444 159.46097802044824,31.559009418007918 157.19437094032764,31.33540567557793 155.75198461674154,31.559009418007918 154.9277638606727,31.894414970185608 153.38234994281083,33.57144162082113 152.76418437529355,35.91927582328208 152.97023956477642,37.48449661070481" stroke="#4dd2ff" stroke-linecap="round" stroke-linejoin="round" stroke-width="0.5"><title>2023-12-13 1.0km</title><desc>10373769329</desc></polyline><polyline fill="none" points="177.8336064396426,33.552249595173635 179.07154561718926,38.65673809009604 180.30948479427025,41.34330525412224 182.7853631488979,48.328361393650994 183.28053881973028,49.0 183.52812665514648,49.0 183.65192057285458,48.46268913464155 183.15674490202218,47.65672254085075 181.17604221822694,44.29852457169909 178.328782110475,38.52240962779615 177.9574003573507,36.776138724409975 176.59566726256162,33.82090723980218 176.34807942714542,31.0" stroke="#4dd2ff" stroke-linecap="round" stroke-linejoin="round" stroke-width="0.5"><title>2023-12-12 1.0km</title><desc>10365882163</desc></polyline><polyline fill="none" points="16.495410336647183,51.0 17.780426546465605,53.788744695833884 19.532721378374845,58.225374688743614 20.817737588193268,60.63382618967444 22.68685207562521,66.46480010182131 22.92049138667062,67.98592048813589 23.387770008295774,69.0 23.504589663352817,68.11268045951147 23.27095035277307,67.09860042587388 20.817737588193268,61.52114957885351 19.06544275628403,58.09861399035435 18.598164135124534,56.704245691536926 18.247705168556422,53.788744695833884 17.31314792530611,51.126761220628396" stroke="#4dd2ff" stroke-linecap="round" stroke-linejoin="round" stroke-width="0.5"><title>2023-12-11 1.0km</title><desc>10361067591</desc></polyline><polyline fill="none" points="43.21776000177488,61.04350078164134 45.62187429657206,68.34782927564811 45.74208001140505,68.73913173889741 46.222902870737016,69.0 46.343108584638685,68.86956587433815 45.98249144107103,67.95652672543656 44.90064000803977,65.86957833555061 43.69858286064118,62.608716561691836 40.33282284811139,55.826104874373414 39.37117712991312,51.0" stroke="#4dd2ff" stroke-linecap="round" stroke-linejoin="round" stroke-width="0.5"><title>2023-12-10 1.0km</title><desc>10355395415</desc></polyline><polyline fill="none" points="62.54297565622255,52.191182031296194 64.61652454035357,55.50001687242184 65.59231225028634,59.60296362906229 67.66586113441736,65.42648490634747 68.39770191721618,68.60294311749749 68.88559577288106,69.0 69.0075692362152,68.86764771549497 69.0075692362152,68.60294311749749 68.7636223086156,67.5441243366804 66.20217956975102,62.382373861270025 65.59231225028634,60.92649284633808 65.22639185888693,58.67649259825703 64.61652454035357,56.95590227597859 63.64073683042079,55.23531030898448 63.518763366155326,53.382363274809904 62.42100219242275,51.0" stroke="#4dd2ff" stroke-linecap="round" stroke-linejoin="round" stroke-width="0.5"><title>2023-12-09 1.0km</title><desc>10350143310</desc></polyline><polyline fill="none" points="86.65262228203937,54.49255117913708 87.39538600714877,57.17912446556147 89.00470741093159,61.07464871532284 91.2329985848628,67.52239474025555 92.22335021803156,69.0 92.09955626446754,67.65672254085075 91.35679253935814,65.37314859370235 89.37608927302063,61.880618212744594 88.13814973179251,58.92539498396218 86.77641623653471,56.77613872475922 86.40503437398002,54.62687993713189 84.91950692422688,51.0" stroke="#4dd2ff" stroke-linecap="round" stroke-linejoin="round" stroke-width="0.5"><title>2023-12-08 1.0km</title><desc>10345303898</desc></polyline><polyline fill="none" points="108.5285033788532,51.0 108.76050882320851,51.6293738221284 109.2245197109878,53.26574467681348 109.45652515534312,55.53148635500111 109.92053604265675,57.41960212949198 111.5445741508156,61.44757549010683 112.58859864855185,65.09791816305369 113.6326231462881,67.36364418326411 113.8646285906434,69.0 114.09663403453305,68.87412653130013 114.3286394784227,68.62237956561148 114.3286394784227,68.24475904810242 113.74862586846575,66.7342761453474 111.89258231688291,63.58743248344399 109.6885305987671,57.167853480088525 109.10851698927581,54.52449042350054" stroke="#4dd2ff" stroke-linecap="round" stroke-linejoin="round" stroke-width="0.5"><title>2023-12-07 1.0km</title><desc>10340288256</desc></polyline><polyline fill="none" points="130.94416775973514,51.0 131.6602134439163,52.68346103455406 132.97296386491507,58.25182068638969 134.88241902273148,61.74822356412187 136.43385133845732,66.02159543370362 137.14989702263847,68.74100849858951 137.50791986472905,69.0 137.6272608116269,68.09352957841475 137.38857891736552,66.92806692188606 135.47912375908345,62.91368964756839 134.16637333855033,60.97124574659392 133.45032765436918,59.5467855243478 131.06350870756432,51.38849115080666" stroke="#4dd2ff" stroke-linecap="round" stroke-linejoin="round" stroke-width="0.5"><title>2023-12-06 1.0km</title><desc>10334845031</desc></polyline><polyline fill="none" points="155.48401821870357,54.103461965569295 156.2848370098509,58.20002302597277 157.0856558009982,61.17933391826227 159.03050143644214,66.2689778652275 160.06012559635565,68.62758815078996 160.40333364903927,69.0 159.94572291197255,66.76552767283283 158.8016960672103,64.65518998203333 157.77207190776244,61.67588522285223 156.2848370098509,58.57243717496749 155.59842090308666,56.21381284378003 154.45439405879006,53.73104683100246 153.88238063640893,51.0" stroke="#4dd2ff" stroke-linecap="round" stroke-linejoin="round" stroke-width="0.5"><title>2023-12-05 1.0km</title><desc>10329306344</desc></polyline><polyline fill="none" points="176.69392242329195,52.51049678423442 177.50594147713855,53.769243086571805 178.54996597534046,57.41960212949198 180.63801497081295,62.58044129051268 181.68203946901485,66.10490787529852 182.61006124457344,68.11888552398887 183.30607757670805,69.0 183.30607757670805,68.37063256313559 180.29000680474564,61.44757549010683 179.1299795852974,57.54547644068953 177.85394964320585,54.650364947505295 176.9259278671816,51.0" stroke="#4dd2ff" stroke-linecap="round" stroke-linejoin="round" stroke-width="0.5"><title>2023-12-04 1.0km</title><desc>10324662812</desc></polyline><polyline fill="none" points="16.873725838027894,72.66154566861223 18.149756108876318,77.50771216268186 20.191404541023076,82.07694343582261 21.595037837978452,86.92308570316527 22.615862054284662,88.86153911822475 23.381480216048658,89.0 23.381480216048658,88.44615641166456 22.488259027712047,86.92308570316527 21.33983178436756,83.60001806344371 20.0638015139848,81.66155923262704 19.170580324716866,79.3077136843931 17.63934400025755,73.76924196642358 16.618519784417003,71.0" stroke="#4dd2ff" stroke-linecap="round" stroke-linejoin="round" stroke-width="0.5"><title>2023-12-02 1.0km</title><desc>10313350310</desc></polyline><polyline fill="none" points="39.589732494205236,71.95454984041862 40.84642878733575,73.59091985307168 42.354464339092374,78.77274870162364 43.35982137452811,83.00001940899529 44.99352655559778,87.63636975188274 45.99888359056786,89.0 46.12455321988091,88.18182197131682 45.873213961254805,86.54546483117156 44.490848037879914,83.54547299188562 42.354464339092374,80.13638546620496 41.09776804642752,77.54547475650907 39.84107175236568,71.0" stroke="#4dd2ff" stroke-linecap="round" stroke-linejoin="round" stroke-width="0.5"><title>2023-12-01 1.0km</title><desc>10308709030</desc></polyline><polyline fill="none" points="62.396606523543596,71.0 64.88486591633409,79.55001980031375 67.37312530912459,84.65001455100719 68.75549163809046,88.40000255848281 69.17020153719932,89.0 69.3084381702356,88.55000193545129 68.75549163809046,87.05000766995363 66.68194214394316,84.20001552719623 66.128995613195,82.70001806365326 64.0554461190477,78.65001940354705 63.08778968825936,74.0000110277906 62.120133257936686,71.30000130133703" stroke="#4dd2ff" stroke-linecap="round" stroke-linejoin="round" stroke-width="0.5"><title>2023-11-30 1.0km</title><desc>10303537703</desc></polyline><polyline fill="none" points="86.51218115957454,74.84829198836815 87.3129995977506,77.4551944816485 87.65620749955997,79.56554117088672 88.91463647317141,82.04829860525206 90.2874680813402,85.77242791187018 91.66029968857765,88.75172544328962 91.889104956761,89.0 92.11791022447869,88.75172544328962 91.889104956761,87.8827642062679 90.97388388495892,86.2689778652275 89.71545491134748,82.79312512371689 87.88501276727766,79.06898924615234 87.19859696365893,75.09656858979724 85.82576535549015,72.98621631483547 85.0249469182454,71.0" stroke="#4dd2ff" stroke-linecap="round" stroke-linejoin="round" stroke-width="0.5"><title>2023-11-29 1.0km</title><desc>10298007687</desc></polyline><polyline fill="none" points="108.32570816623047,73.33094561949838 109.63845800794661,76.69786162441596 109.87713979696855,79.15829617308918 111.54791232291609,83.17268200626131 112.50263948086649,86.79857102350798 113.3380257440731,88.48201695899479 114.17341200681403,89.0 114.53143469104543,89.0 114.7701164809987,88.61151273362339 114.65077558578923,88.09352957829833 114.17341200681403,87.18705868988764 112.26395769137889,82.13671234436333 110.35450337640941,77.73383448482491 109.99648069217801,75.66188815457281 109.16109442850575,73.20144872169476 108.08702637627721,71.0" stroke="#4dd2ff" stroke-linecap="round" stroke-linejoin="round" stroke-width="0.5"><title>2023-11-28 1.0km</title><desc>10292316108</desc></polyline><polyline fill="none" points="133.8630793262273,71.0 134.9196667256765,73.8662559457589 135.55361916543916,76.61785669741221 136.39888908481225,77.87900541932322 137.34981774445623,79.71340173971839 138.3007464041002,82.69429115857929 139.1460163234733,84.07008435309399 139.1460163234733,84.75798049510922 138.61772262398154,85.21657775470521 136.92718278476968,86.13377186935395 135.87059538532048,87.05096544418484 134.81400798587129,87.62421115464531 133.22912688646466,88.31210572912823 130.6933171278797,89.0 130.2706821677275,88.8853509761393 129.95370594784617,88.54140385333449 129.42541224788874,86.36307031358592" stroke="#4dd2ff" stroke-linecap="round" stroke-linejoin="round" stroke-width="0.5"><title>2023-11-27 1.0km</title><desc>10287544518</desc></polyline><polyline fill="none" points="155.4028161847964,74.90211396722589 155.98282983712852,76.2867329143919 157.3748626038432,83.33568474079948 158.88289810018614,86.98602338775527 159.69491721410304,88.370632563252 160.27493086643517,89.0 160.39093359699473,88.8741265310673 160.04292540578172,88.24475904798601 160.04292540578172,87.23777059407439 159.11490356130525,85.09791816282086 158.0708789867349,81.57344950502738 157.02685441216454,79.43358999444172 156.3308380288072,75.40561189572327 154.35879161022604,72.25874741270673 153.8947806879878,71.0" stroke="#4dd2ff" stroke-linecap="round" stroke-linejoin="round" stroke-width="0.5"><title>2023-11-26 1.0km</title><desc>10281488289</desc></polyline><polyline fill="none" points="176.722453544382,71.0 178.06022760737687,74.48388377402443 179.26422426477075,79.41937526513357 180.46822092263028,82.17743866576348 180.73577573522925,83.91937146021519 181.40466276742518,85.51614183862694 182.87621423741803,88.27419672347605 183.5451012691483,89.0 183.81265608174726,89.0 181.8059949860908,84.64517633756623 181.53844017302617,83.19356631604023 180.2006661100313,81.30647169239819 177.5251179826446,74.04839863895904 176.18734391825274,71.58064772281796" stroke="#4dd2ff" stroke-linecap="round" stroke-linejoin="round" stroke-width="0.5"><title>2023-11-25 1.0km</title><desc>10275889695</desc></polyline><polyline fill="none" points="16.51178423129022,91.16822495521046 17.441975102759898,95.37384479888715 21.7828658381477,107.14953924051952 22.868088521063328,108.83177635679021 23.333183957263827,109.0 23.4882157696411,108.49532903218642 21.93789764959365,106.4766440478852 20.0775159066543,100.92525115737226 18.837261410430074,98.40188630030025 18.06210235133767,93.52337301988155 17.131911478936672,91.0" stroke="#4dd2ff" stroke-linecap="round" stroke-linejoin="round" stroke-width="0.5"><title>2023-11-24 1.0km</title><desc>10271180196</desc></polyline><polyline fill="none" points="40.619027259293944,93.00000823463779 41.01398883527145,94.14286915806588 41.935565845575184,99.00002058548853 44.173681444022804,105.85715487215202 45.22691231360659,108.71428701689001 45.62187388911843,109.0 46.148489323910326,109.0 46.280143183190376,108.71428701689001 46.0168354655616,107.28572146955412 44.56864302000031,103.14287544379476 40.75068111764267,94.85715689428616 39.43414253089577,91.0" stroke="#4dd2ff" stroke-linecap="round" stroke-linejoin="round" stroke-width="0.5"><title>2023-11-23 1.0km</title><desc>10265414399</desc></polyline><polyline fill="none" points="64.13722117757425,95.0563544301549 64.25404077302665,96.83100649237167 64.72131915437058,99.61974175705109 66.5904326797463,104.94367837370373 67.17453065607697,107.47888050868642 68.10908741876483,109.0 68.8100049905479,109.0 68.69318539556116,108.23944042192306 67.4081698465161,104.94367837370373 66.3567934888415,103.29579498723615 64.83813874982297,98.60565672838129 63.08584481943399,93.78874469583388 62.61856643855572,91.0" stroke="#4dd2ff" stroke-linecap="round" stroke-linejoin="round" stroke-width="0.5"><title>2023-11-21 1.0km</title><desc>10253878272</desc></polyline><polyline fill="none" points="86.63409844087437,95.86133173853159 87.23951410641894,99.8029423590051 89.78225990291685,106.24088767752983 90.872008101549,108.60584135761019 91.23525750124827,109.0 91.47742376755923,108.86861379561014 91.59850690048188,108.60584135761019 91.11417436785996,106.50366046302952 88.93467797059566,101.77374440978747 88.08709603920579,99.27739477856085 86.75518157379702,94.15329776948784 86.02868277486414,92.83942437497899 85.54435024224222,91.0" stroke="#4dd2ff" stroke-linecap="round" stroke-linejoin="round" stroke-width="0.5"><title>2023-11-20 1.0km</title><desc>10248671423</desc></polyline><polyline fill="none" points="108.22399517334998,92.50000667187851 109.98337037209421,96.31819999893196 110.48604900110513,100.27274908765685 111.86841522855684,103.40910961094778 113.25078145600855,107.36364358162973 113.87912974134088,108.31818500091322 114.63314768392593,109.0 114.50747802713886,107.90909588139039 112.3710938571021,102.3182022041874 110.98872762965038,97.27274710254278 109.60636140173301,94.00001213059295 108.85234345914796,91.0" stroke="#4dd2ff" stroke-linecap="round" stroke-linejoin="round" stroke-width="0.5"><title>2023-11-19 1.0km</title><desc>10242265034</desc></polyline><polyline fill="none" points="130.7873596982099,107.03792825492565 131.57350679626688,104.56400697666686 131.8879656358622,103.9668527743197 132.43826860422269,103.62562166358111 135.11116873892024,103.2843904523179 137.076536484994,102.85785129718715 137.7054541632533,102.34600410389248 138.09852771274745,101.83415668504313 138.57021597167477,99.70145667501492 138.4129865518771,99.01899184362264 138.72744539147243,98.50714295677608 138.49160126177594,94.5829606532352 138.33437184244394,94.07110980903963 138.25575713207945,92.53555592079647 138.09852771274745,91.5971608775435 137.23376590479165,91.34123482485302 136.52623351616785,91.85308687353972 136.68346293549985,91.5971608775435 136.8406923552975,91.85308687353972 135.81870112754405,91.34123482485302 135.74008641811088,91.0 135.50424228794873,91.17061742488295 135.6614717077464,91.0853087156429 135.11116873892024,91.76777821453288 135.18978344881907,91.6824695491814 136.8406923552975,92.53555592079647 136.44761880626902,92.87679029384162 135.81870112754405,93.13271600776352 134.32502164086327,93.38864166522399 134.24640693049878,93.04740744258743 134.63948047952726,92.87679029384162 135.18978344881907,92.96209887135774 136.8406923552975,91.34123482485302 139.12051894050092,91.4265435153502 138.8846748112701,91.25592612795299 138.57021597167477,91.17061742488295 138.33437184244394,95.26542809442617 138.4129865518771,96.45974515046692 138.64883068110794,97.90998563647736 138.80606010137126,100.38392110483255 138.80606010137126,101.23700107744662 138.57021597167477,102.0900804225821 138.09852771274745,102.60192772879964 134.1677922210656,103.02846697799396 132.35965389478952,103.36969826457789 131.4162773769349,104.05216053628828 130.31567143881693,105.58769917994505 129.68675376055762,107.80569585470948 129.45090963086113,109.0" stroke="#4dd2ff" stroke-linecap="round" stroke-linejoin="round" stroke-width="0.5"><title>2023-11-18 1.0km</title><desc>10236386505</desc></polyline><polyline fill="none" points="153.4697147551924,91.0 156.07646096590906,95.50001736893319 157.02436867821962,98.84287991863675 157.37983407080173,100.77145155961625 158.0907648555003,101.92859352345113 160.3420456731692,108.48571685689967 160.8159995302558,109.0 160.8159995302558,108.48571685689967 160.3420456731692,107.84286271536257 159.03867256827652,103.98573290230706 158.32774178357795,102.70002107415348 158.0907648555003,100.51430879719555 157.02436867821962,97.81430750666186 155.83948403736576,95.24287383153569 155.72099557332695,93.82858369813766" stroke="#4dd2ff" stroke-linecap="round" stroke-linejoin="round" stroke-width="0.5"><title>2023-11-17 1.0km</title><desc>10231268371</desc></polyline><polyline fill="none" points="176.7893429552205,91.58064772293437 178.5284488541074,94.04839863884263 178.92978098476306,97.38711555744521 180.13377737673,100.00002051191404 182.00666065281257,106.96775015315507 183.2106570447795,109.0 183.07687966758385,107.8387146294117 182.14043803000823,105.95162444526795 181.47155114542693,104.0645324572688 180.40133213018999,99.56453659269027 178.26089410064742,95.06453047250398 177.59200721606612,93.03226628201082 177.19067508541048,91.0" stroke="#4dd2ff" stroke-linecap="round" stroke-linejoin="round" stroke-width="0.5"><title>2023-11-16 1.0km</title><desc>10225818993</desc></polyline><polyline fill="none" points="16.878527528606355,111.19354904140346 17.770376806147397,114.67742935777642 19.197335650213063,118.54840207961388 21.159404060803354,122.22582089412026 21.872883482836187,125.12904264521785 23.121472471393645,127.64516557333991 24.370061459951103,129.0 21.159404060803354,123.00001367391087 19.732445216737688,118.54840207961388 15.629938540048897,111.0" stroke="#4dd2ff" stroke-linecap="round" stroke-linejoin="round" stroke-width="0.5"><title>2023-11-15 1.0km</title><desc>10219684298</desc></polyline><polyline fill="none" points="39.67666244646534,113.16542284714524 41.298083832487464,115.19550445268396 41.54753327649087,117.7669379391009 43.41840410651639,122.23310335271526 44.540926604066044,126.02256853983272 45.66344910208136,128.86466231115628 46.162347990088165,129.0 46.0376232676208,127.37594707356766 44.41620188206434,125.21054094214924 43.792578272055835,123.31580848805606 42.79478049604222,122.09776516607963 42.42060633003712,120.60904445615597 40.549735500477254,116.81956812529825 39.926111890468746,114.11279454140458 39.55193772446364,111.0" stroke="#4dd2ff" stroke-linecap="round" stroke-linejoin="round" stroke-width="0.5"><title>2023-11-14 1.0km</title><desc>10213806154</desc></polyline><polyline fill="none" points="63.31017088890076,113.47827171022072 64.27181681944057,117.1304552895017 66.91634312644601,123.91306199040264 67.51737183239311,126.13044701842591 68.7194292456843,128.60869759391062 69.08004646934569,129.0 68.35881202155724,127.695658311015 66.67593164369464,123.65219298156444 66.55572590278462,122.60871656169184 65.35366848995909,119.73915324313566 63.550582371652126,116.47828020178713 62.82934792386368,114.26088311010972 62.3485249588266,111.0" stroke="#4dd2ff" stroke-linecap="round" stroke-linejoin="round" stroke-width="0.5"><title>2023-11-13 1.0km</title><desc>10208522228</desc></polyline><polyline fill="none" points="86.5607142066583,113.04546334268525 87.81741068465635,116.86365554714575 89.3254464585334,120.00002183520701 90.20513399364427,123.68183636269532 91.08482152828947,126.27273850084748 92.21584835881367,128.72727403056342 92.7185269491747,129.0 92.96986624551937,128.45454802096356 91.58750011911616,125.72728572005872 90.83348223287612,122.7272925573634 88.06874998053536,120.13638546643779 86.5607142066583,117.95456616173033 86.3093749107793,115.63638033857569 84.17299089767039,111.0" stroke="#4dd2ff" stroke-linecap="round" stroke-linejoin="round" stroke-width="0.5"><title>2023-11-12 1.0km</title><desc>10202270880</desc></polyline><polyline fill="none" points="108.70510423788801,114.35822241124697 111.67615935532376,121.07464871543925 112.66651106113568,124.43285260931589 113.6568627669476,127.11941128061153 114.27583258319646,128.32836139411665 114.89480239897966,129.0 115.01859636232257,128.4626891349908 113.90445069316775,125.10449264734052 111.799953318201,121.88061821286101 109.57166198035702,116.77613872487564 108.70510423788801,113.14926305413246 107.83854649448767,111.0" stroke="#4dd2ff" stroke-linecap="round" stroke-linejoin="round" stroke-width="0.5"><title>2023-11-11 1.0km</title><desc>10196068378</desc></polyline><polyline fill="none" points="132.61232260474935,113.68422009726055 134.64949508570135,119.84212411462795 136.5411552474834,124.89475012186449 137.41422916715965,128.21052947919816 137.9962784475647,129.0 138.2873030877672,128.6842118264176 137.85076612746343,126.78948180971202 135.66808132687584,121.89475486346055 133.48539652535692,117.31580665381625 130.57515012379736,112.73684868169948 130.28412548359483,111.0" stroke="#4dd2ff" stroke-linecap="round" stroke-linejoin="round" stroke-width="0.5"><title>2023-11-10 1.0km</title><desc>10191120477</desc></polyline><polyline fill="none" points="152.96410290757194,111.54962088621687 155.11679448373616,113.19848257617559 156.3830836461857,115.39696256595198 156.76297039492056,116.22139189543668 156.76297039492056,117.45803520805202 158.15588847268373,121.71757813193835 158.66240413766354,124.19085666537285 159.67543546762317,126.93894008581992 159.92869329964742,128.31298028095625 160.56183788133785,129.0 160.9417246291414,128.86259607644752 161.32161137787625,128.31298028095625 159.92869329964742,127.35115225065965 157.64937280816957,124.0534523880342 154.99016556795686,116.77101124660112 154.35702098626643,112.64886217436288 153.72387640504166,111.0" stroke="#4dd2ff" stroke-linecap="round" stroke-linejoin="round" stroke-width="0.5"><title>2023-11-09 1.0km</title><desc>10185506531</desc></polyline><polyline fill="none" points="176.48859197832644,112.44526216865052 177.820505366195,115.07300857105292 178.30483750626445,116.38688032352366 179.87891696533188,119.80294235935435 180.48433214100078,122.16790455882438 180.363249105867,120.72265025309753 180.60541517660022,121.64235767372884 181.08974731713533,125.18979614810087 182.17949463427067,128.47445512423292 182.6638267757371,129.0 183.26924195187166,128.73722758109216 183.51140802213922,128.34306888096035 182.17949463427067,127.16059225820936 181.21083035273477,125.58395554404706 180.60541517660022,123.87593086762354 179.75783392973244,120.98542385036126 178.54700357746333,119.2773947789101 177.21509018959478,116.38688032352366 176.85184108372778,114.28468505595811 176.97292411886156,111.65693749429192 176.730758048594,111.0" stroke="#4dd2ff" stroke-linecap="round" stroke-linejoin="round" stroke-width="0.5"><title>2023-11-08 1.0km</title><desc>10179505859</desc></polyline><polyline fill="none" points="19.187980766873807,140.9440793383401 23.248076932039112,149.0 23.4800824271515,148.87412653141655 22.90006868960336,147.4895177630242 21.856043961364776,145.72728680237196 21.160027475561947,143.96505402820185 19.76799450442195,142.45456734951586 19.303983515128493,141.57344950479455 18.955975271761417,138.55247059487738 18.723969776649028,137.6713507422246 17.331936805974692,135.27973742736503 16.5199175728485,131.0" stroke="#4dd2ff" stroke-linecap="round" stroke-linejoin="round" stroke-width="0.5"><title>2023-11-06 1.0km</title><desc>10167691585</desc></polyline><polyline fill="none" points="41.12669912027195,136.0503782769665 41.96208575228229,137.6043379106559 45.0649503832683,144.72663535596803 46.37770080426708,148.7410084985895 46.61638269899413,149.0 46.85506459325552,149.0 46.85506459325552,148.61151273350697 45.900337014347315,146.5395791985793 45.0649503832683,145.37411551410332 44.94560943590477,144.72663535596803 44.22956375172362,143.94965885241982 42.20076764654368,140.45326034456957 39.81394869927317,134.36692046013195 38.859221120830625,131.0" stroke="#4dd2ff" stroke-linecap="round" stroke-linejoin="round" stroke-width="0.5"><title>2023-11-05 1.1km</title><desc>10161301187</desc></polyline><polyline fill="none" points="62.348525701556355,131.0 64.75263999588788,136.3478451555129 65.83449142845348,141.04350078164134 67.51737143471837,144.30436543212272 68.11840000888333,146.9130528375972 68.71942858211696,149.0 69.08004572661594,148.60869759402703 68.95984001131728,148.21739510179032 67.39716572035104,145.34784085466526 67.27696000505239,144.95653764309827 65.83449142845348,142.7391511480091 65.23346285475418,140.65219662082382 63.670788563322276,137.78263013751712 63.31017141928896,135.30436443991493 62.588937130756676,132.69565996550955" stroke="#4dd2ff" stroke-linecap="round" stroke-linejoin="round" stroke-width="0.5"><title>2023-11-04 1.0km</title><desc>10155501797</desc></polyline><polyline fill="none" points="93.40068457927555,133.73419068823569 92.0358948376961,131.91139743244275 91.19602422788739,131.3417740999721 89.5162830078043,131.0 87.9415256138891,131.11392470856663 85.73686526203528,132.139246706618 84.79201082559302,133.05064346885774 83.95214021531865,134.759510952048 83.74217256344855,136.12660358159337 83.42722108447924,140.6835702988319 83.637188736815,145.46837092377245 83.84715638915077,146.15191266383044 84.89699465222657,147.86076569382567 86.15680056717247,148.77215320582036 88.2564770928584,149.0 90.14618596527725,148.20253607374616 91.93091101199389,146.0379890614422 92.45583014329895,145.01267626299523 93.19071692693979,141.7088859624928 93.19071692693979,139.08863347244915 93.71563605824485,135.6709061722504 93.61065223207697,134.41773760621436 92.45583014329895,133.05064346885774 91.5109757068567,132.36709594738204 89.30631535500288,131.3417740999721 88.15149326622486,131.3417740999721 85.63188143633306,132.139246706618 84.47705934708938,133.16456802631728 83.74217256344855,134.53166206309106 83.53220491064712,135.44305741763674 83.74217256344855,139.20255758613348 83.53220491064712,140.9114182825433" stroke="#4dd2ff" stroke-linecap="round" stroke-linejoin="round" stroke-width="0.5"><title>2023-11-03 1.0km</title><desc>10152446508</desc></polyline><polyline fill="none" points="107.70321132102981,131.0 108.68726870743558,133.13560138468165 109.53074646787718,136.94916981831193 110.93654273543507,139.69493475090712 113.04523713514209,145.18645371461753 113.46697601536289,146.10170546243899 114.169874148909,148.54237481567543 114.5916130291298,149.0 115.15393153578043,149.0 115.15393153578043,148.6949165549595 114.169874148909,148.23729130346328 113.74813526915386,147.1694986578077 112.76407788181677,146.25424738100264 112.06117974873632,144.2712015635334 111.07712236139923,142.74578041420318 109.95248534809798,140.45764658704866 108.68726870743558,135.72882868233137 107.84379094699398,133.74577280506492" stroke="#4dd2ff" stroke-linecap="round" stroke-linejoin="round" stroke-width="0.5"><title>2023-11-02 1.1km</title><desc>10144903556</desc></polyline><polyline fill="none" points="131.22046833485365,132.30435396311805 131.4608797817491,133.73914221522864 132.42252557026222,135.95653995871544 134.10540569992736,141.9565434876131 136.99034306639805,147.95652672555298 137.83178313076496,149.0 137.35096023697406,147.4347898582928 135.5478743831627,144.6956687872298 134.58622859464958,141.17393548239488 133.384171359241,139.47828362043947 131.94170267600566,136.34784515528008 130.73964544013143,131.0" stroke="#4dd2ff" stroke-linecap="round" stroke-linejoin="round" stroke-width="0.5"><title>2023-11-01 1.0km</title><desc>10138966680</desc></polyline><polyline fill="none" points="154.5236383662559,131.27067799540237 155.1472618849948,133.3007616904797 156.1450595143251,138.71430726593826 157.76648066099733,142.23310335283168 158.76427829032764,145.48121684766375 160.38569943793118,149.0 160.5104241417721,148.8646623105742 159.38790180860087,147.24060926458333 157.76648066099733,143.45114658481907 156.3945089210756,141.01505931455176 154.02473955228925,133.84211696428247 153.77529014414176,131.0" stroke="#4dd2ff" stroke-linecap="round" stroke-linejoin="round" stroke-width="0.5"><title>2023-10-31 1.0km</title><desc>10133123337</desc></polyline><polyline fill="none" points="177.17383081186563,133.1333426652709 177.78821541834623,136.33335195819382 177.78821541834623,137.5333539872663 179.1398615515791,139.80002232000697 182.82616918860003,147.66667279333342 183.44055379508063,148.8666673231637 183.68630763702095,149.0 180.86013844888657,143.40001914394088 179.6313692368567,139.93335566332098 178.27972310315818,137.1333533989964 176.31369236344472,131.0" stroke="#4dd2ff" stroke-linecap="round" stroke-linejoin="round" stroke-width="0.5"><title>2023-10-30 1.0km</title><desc>10127985445</desc></polyline><polyline fill="none" points="17.162513305433095,153.60527560755145 17.708183823619038,157.27633863000665 18.035586134530604,158.46055072336458 20.21826820774004,163.5526528044138 21.309609243646264,166.5131698701298 22.946620798669755,168.76315920078196 23.38315721368417,169.0 23.4922913168557,168.6447387879016 22.510084384121,167.10527262999676 21.091341036837548,164.026335900533 18.581256652716547,159.40791977138724 17.599049719516188,155.97370432177559 16.835110994055867,154.43422605399974 16.72597689041868,152.06579507607967 16.5077086831443,151.0" stroke="#4dd2ff" stroke-linecap="round" stroke-linejoin="round" stroke-width="0.5"><title>2023-10-28 1.0km</title><desc>10115543824</desc></polyline><polyline fill="none" points="40.52248101029545,154.73334801755846 41.50549652520567,157.93335448706057 42.61138897808269,160.46668893785682 43.59440449299291,164.06668443838134 45.06892776489258,167.53334001882467 45.683312460780144,168.8666673237458 46.29769715713337,169.0 46.42057409696281,168.8666673237458 46.17482021776959,168.06667105830275 45.43755858205259,166.0666788512608 42.98001979663968,161.26668855571188 41.0139887672849,155.9333511054283 39.785219374578446,153.26667649880983 39.293711617589,151.0" stroke="#4dd2ff" stroke-linecap="round" stroke-linejoin="round" stroke-width="0.5"><title>2023-10-27 1.0km</title><desc>10110442644</desc></polyline><polyline fill="none" points="63.27481590118259,153.77942351426464 65.59231222420931,161.58825709018856 66.4461266589351,163.9706063530175 67.29994109412655,165.42648490646388 68.27572901919484,168.20588614756707 68.64164949115366,168.7352954216767 69.37349043553695,169.0 69.49546392541379,168.60294311773032 69.37349043553695,168.07353380485438 68.15375552838668,166.48530493315775 66.32415316812694,163.3088429851923 64.12863033637404,156.82354910613503 62.66494844807312,154.44119038514327 61.933107503689826,151.0" stroke="#4dd2ff" stroke-linecap="round" stroke-linejoin="round" stroke-width="0.5"><title>2023-10-26 1.0km</title><desc>10104873905</desc></polyline><polyline fill="none" points="87.66988584399223,159.6087184365606 90.43461687630042,166.52174997131806 91.75687954388559,168.86956587433815 92.23770233150572,169.0 92.11749663529918,167.695658311015 88.87194281397387,162.0869781221263 87.06885735830292,157.52176022727508 85.50618329644203,154.26088311045896 84.90515481121838,151.0" stroke="#4dd2ff" stroke-linecap="round" stroke-linejoin="round" stroke-width="0.5"><title>2023-10-25 1.0km</title><desc>10098978222</desc></polyline><polyline fill="none" points="108.09878502134234,151.0 107.97770187957212,151.91971242427826 108.70420073205605,154.9416213426739 109.67286586901173,156.9124287540326 110.27828157879412,159.27739477867726 111.36802985798568,162.43067794316448 113.66860955674201,166.8978195694508 114.39510840922594,168.737227581325 114.63727469369769,169.0 114.87944097770378,168.8686137953773 114.7583578354679,167.16059225809295 113.42644327273592,164.6642501518363 112.45777813671157,163.2189978651004 111.24694671528414,160.45987661753315 111.00478043174371,159.01462093077134 109.5517827263102,156.78104166104458 108.70420073205605,154.8102341046324 108.4620344475843,152.44526216841768 108.09878502134234,151.0" stroke="#4dd2ff" stroke-linecap="round" stroke-linejoin="round" stroke-width="0.5"><title>2023-10-24 1.0km</title><desc>10092835699</desc></polyline><polyline fill="none" points="132.4359304169193,154.1079268073663 134.2260438380763,160.45326034456957 135.0614301012829,162.0072160938289 136.01615725876763,165.89209946908522 137.44824799522758,168.4820169589948 138.04495246941224,169.0 137.44824799522758,168.35252117482014 136.61286173248664,166.28058733535 134.46472562709823,163.69066660827957 133.9873620485887,162.7841934543103 133.5099984696135,159.80577837780584 132.0779077326879,156.9568548965035 131.12318057520315,153.9784299666062 130.5264761019498,151.0" stroke="#4dd2ff" stroke-linecap="round" stroke-linejoin="round" stroke-width="0.5"><title>2023-10-23 1.0km</title><desc>10087395010</desc></polyline><polyline fill="none" points="151.31510215206072,151.08633225236554 151.63334133243188,151.0 153.90079549280927,151.1726644920418 154.89529293146916,151.43166113487678 155.13397231674753,151.56115941354074 155.6511109850835,151.94965407782 156.00913006276824,152.3813145144959 156.80472801369615,153.8489576249267 157.2025269891601,155.4892602887703 157.71966565749608,156.35257563943742 157.95834504254162,157.04322700586636 158.51526360819116,158.29503053677035 158.91306258388795,159.58999689779012 159.50976104708388,160.62596793007106 159.78822032990865,160.92812580347527 160.14623940782622,161.5324410837493 160.3451388955582,162.82740030408604 160.46447858819738,163.17272228054935 160.78271776833571,163.6475396664464 160.86227756366134,164.38134759839159 160.98161725630052,164.68350353906862 162.73193274834193,168.82734075089684 162.9706121336203,169.0 162.9706121336203,168.78417593060294 162.61259305570275,168.43885725463042 162.21479408047162,167.48922984837554 161.81699510477483,166.6690958525287 160.74293787102215,163.34538319258718" stroke="#4dd2ff" stroke-linecap="round" stroke-linejoin="round" stroke-width="0.5"><title>2023-10-22 1.5km</title><desc>10080655811</desc></polyline><polyline fill="none" points="177.13705715793185,151.0 177.7685886672698,151.45685924118152 176.63183195027523,151.27411558496533 178.4001201763749,153.5584074241924 178.56852857908234,154.10663621604908 178.44222227716818,154.56349317287095 177.85279286839068,154.88329284300562 177.68438446591608,155.2030923484126 177.72648656647652,155.75131968891947 178.06330337142572,157.07620043179486 178.44222227716818,158.03559506835882 178.86324328323826,159.4975269040442 179.62108109449036,160.82239965925692 179.74738739640452,161.3249368618708 180.21051050303504,162.14726958947722 180.50522520765662,162.51275045255898 180.54732730798423,162.74117588269291 180.84204201260582,163.01528628816595 181.05255251564085,163.47213669511257 181.3472672200296,164.3401515429723 181.64198192441836,164.93405574030476 181.59987982385792,166.12186243198812 182.14720713184215,167.1726126128342 182.31561553431675,167.675144680019 182.61033023847267,168.22336101706605 183.1155554461293,168.86294613225618 183.3681680499576,169.0 182.39981973543763,167.62945996341296 182.1893092324026,166.89850404136814 181.76828822609968,165.98480792954797 181.59987982385792,165.3909047365305 181.05255251564085,164.6142612430849 180.5894294087775,163.28939657268347" stroke="#4dd2ff" stroke-linecap="round" stroke-linejoin="round" stroke-width="0.5"><title>2023-10-20 1.4km</title><desc>10069668027</desc></polyline><polyline fill="none" points="16.378020914969966,171.0 16.463748230598867,171.69768395990832 17.149566755397245,173.3721223237808 17.321021386887878,174.39538803097093 18.7355220944155,177.83726962580113 18.864113067742437,178.302387323929 18.94984038360417,179.0000632299343 19.12129501462914,179.46518007316627 20.150022802175954,180.90704011387425 20.707250353647396,182.02331659808988 21.050159616163,183.13959111261647 21.35020522098057,183.7442389856442 21.521659852238372,184.67446535412455 21.73597814119421,185.13957802538062 22.29320569266565,186.58142513339408 22.378933008294553,187.13955861562863 23.19334250688553,188.81395610782783 23.407660795841366,189.0 23.536251769168302,189.0 23.621979084797204,188.95348903205013 23.57911542709917,188.9069780607242 22.721842271042988,187.83722477586707 22.336069350596517,186.5349139876198 21.521659852238372,185.04655551846372 21.393068878678605,184.44190889014862 21.307341563049704,183.41865943354787" stroke="#4dd2ff" stroke-linecap="round" stroke-linejoin="round" stroke-width="0.5"><title>2023-10-19 1.3km</title><desc>10064004415</desc></polyline><polyline fill="none" points="38.79828076437116,171.0 40.56300341337919,173.29788272990845 40.445355236530304,174.95746281044558 40.68065158976242,176.61704130494036 41.504188826307654,179.55321475525852 42.68067059200257,181.46810780919623 43.85715235816315,184.7872507669963 46.210115890949965,188.61702321912162 46.56306042056531,189.0 46.91600495018065,188.87234108219855 45.38657865393907,187.3404333399376 42.56302241561934,181.8510861665709 41.857133355923,179.4255551431561 39.857114353217185,175.21278268191963" stroke="#4dd2ff" stroke-linecap="round" stroke-linejoin="round" stroke-width="0.5"><title>2023-10-18 1.0km</title><desc>10058081424</desc></polyline><polyline fill="none" points="62.57254474936053,172.09091406327207 63.57790185790509,177.95456616184674 66.21696426859125,184.9091062474763 67.97633920842782,188.59091103076935 68.73035704018548,189.0 69.10736595606431,189.0 69.35870523285121,188.4545480213128 68.47901776339859,187.36364358162973 67.34799101576209,185.59092249977402 65.83995535271242,182.31820220442023 65.2116071600467,180.4091126989806 62.57254474936053,175.09092442982364 62.32120547257364,174.27274026570376 62.06986619532108,171.0" stroke="#4dd2ff" stroke-linecap="round" stroke-linejoin="round" stroke-width="0.5"><title>2023-10-17 1.0km</title><desc>10051702317</desc></polyline><polyline fill="none" points="84.55193233396858,171.41538655466866 85.82796288561076,173.63077996543143 87.74200871307403,178.61540561076254 88.76283315429464,180.55386757676024 89.9112606504932,184.15386307716835 91.314894257579,187.75385169649962 91.82530647842214,188.72307822608855 92.46332175377756,189.0 92.59092480922118,188.86153911834117 92.46332175377756,188.44615641143173 91.05968814715743,186.36924150353298 89.14564232015982,181.66155923274346 87.74200871307403,178.75386724586133 86.59358121687546,173.3538559313165 85.95556594058871,171.0" stroke="#4dd2ff" stroke-linecap="round" stroke-linejoin="round" stroke-width="0.5"><title>2023-10-16 1.0km</title><desc>10046279660</desc></polyline><polyline fill="none" points="107.74226094596088,171.0 108.26887672999874,172.14286210003775 108.79549251310527,174.71429936750792 109.9803780252114,178.71430613135453 111.560225374531,181.14287764916662 113.4033806156367,188.00000437430572 114.06165034510195,188.71428701665718 114.98322796542197,189.0 115.11488191178069,188.71428701665718 114.98322796542197,187.8571478142403 113.27172667020932,185.42858468799386 112.35014904942364,182.57144771213643 111.29691748321056,180.85716351040173 108.79549251310527,175.0000144095393 107.87391489231959,171.0" stroke="#4dd2ff" stroke-linecap="round" stroke-linejoin="round" stroke-width="0.5"><title>2023-10-15 1.0km</title><desc>10039610121</desc></polyline><polyline fill="none" points="130.53994635632262,172.3064571354771 130.94127863412723,176.51614647032693 132.01149804284796,179.5645365928067 133.34927230328321,181.45163288107142 134.15193685982376,184.06453245715238 136.426153102424,188.12903603585437 136.9612628063187,188.70967872138135 137.63014993723482,189.0 138.03148221503943,188.70967872138135 138.03148221503943,188.2741967231268 135.35593369370326,186.0967852922622 133.6168271554634,182.9032441836316 132.9479400254786,180.1451817966299 131.3426109123975,176.51614647032693 130.53994635632262,173.4677516417578 130.6737237824127,171.5806477224687 130.53994635632262,171.0" stroke="#4dd2ff" stroke-linecap="round" stroke-linejoin="round" stroke-width="0.5"><title>2023-10-14 1.0km</title><desc>10033377496</desc></polyline><polyline fill="none" points="153.06158542260528,171.28571558836848 155.43135609850287,174.1428691581823 155.6946639516391,176.2857315784786 157.9327807012014,183.14287544356193 160.03924352442846,188.14286092377733 160.6975131565705,189.0 161.22412886237726,189.0 161.22412886237726,188.5714305093279 161.09247493557632,188.14286092377733 159.90758959762752,187.2857214693213 158.5910503338091,184.85715762886684 157.14285714225844,180.28573510737624 154.5097786136903,174.42858428391628 154.1148168342188,172.42857752018608 153.4565472016111,171.0" stroke="#4dd2ff" stroke-linecap="round" stroke-linejoin="round" stroke-width="0.5"><title>2023-10-13 1.0km</title><desc>10028006924</desc></polyline><polyline fill="none" points="176.1378172035329,171.0 177.40410664491355,172.6488621745957 178.16388031002134,174.0229128751671 178.29050925420597,175.80917727621272 178.16388031002134,177.73284472187515 179.55679869512096,180.6183421780588 181.2029749690555,185.0152821157826 182.84915124299005,188.03817232279107 183.22903807554394,188.58778819919098 183.86218279600143,189.0 183.86218279600143,188.31298028118908 182.46926441043615,186.5267278305255 181.2029749690555,184.32826093258336 179.55679869512096,179.79391478805337 178.54376714210957,178.007654195535 178.0372513658367,176.4962015914498" stroke="#4dd2ff" stroke-linecap="round" stroke-linejoin="round" stroke-width="0.5"><title>2023-10-12 1.0km</title><desc>10021974100</desc></polyline><polyline fill="none" points="17.89550185156986,193.5522495948244 18.390677886083722,196.23882426461205 18.266883877571672,197.31345302646514 19.381029956042767,200.9403204311384 20.2475880170241,202.5522591888439 21.114146078471094,205.50747655145824 22.35208616545424,208.46268913452514 22.59967418340966,208.73134458682034 23.218644227366894,209.0 23.094850217923522,208.46268913452514 21.733116121962667,204.97016465931665 20.2475880170241,202.41793101315852 18.266883877571672,197.85076717019547 17.77170784212649,196.1044956248952 17.52411982510239,193.5522495948244 16.781355772633106,191.0" stroke="#4dd2ff" stroke-linecap="round" stroke-linejoin="round" stroke-width="0.5"><title>2023-10-10 1.0km</title><desc>10009069592</desc></polyline><polyline fill="none" points="39.807805590331554,193.2500098424498 40.661620025057346,195.6323701395886 41.51543445978314,198.80884563201107 43.34503682004288,202.7794321157271 44.80871870787814,207.80882909044158 45.662533142603934,209.0 45.90648012422025,208.60294311773032 46.02845361456275,207.14706713322084 45.17463917983696,204.63236947765108 43.34503682004288,201.4559042607434 41.27148747863248,195.6323701395886 40.661620025057346,192.98530294792727 39.685832099523395,191.0" stroke="#4dd2ff" stroke-linecap="round" stroke-linejoin="round" stroke-width="0.5"><title>2023-10-09 1.0km</title><desc>10003389142</desc></polyline><polyline fill="none" points="62.0494071347639,191.0 62.94955275114626,192.11628403502982 63.84969836752862,194.20931483071763 64.36406729044393,198.3953694977099 66.29295075358823,202.58141493203584 67.96464975457639,207.3255885966355 68.73620313964784,208.7209315354703 69.37916429387406,209.0 69.37916429387406,207.88372589554638 66.93591190781444,203.97676135855727 63.721106136683375,196.1628081573872 62.435183827299625,191.13953554059844" stroke="#4dd2ff" stroke-linecap="round" stroke-linejoin="round" stroke-width="0.5"><title>2023-10-08 1.0km</title><desc>9996447828</desc></polyline><polyline fill="none" points="86.26090267207474,194.60001482162625 86.85334521066397,196.78573449037503 88.63067282550037,201.54287962068338 89.22311536408961,203.60001945286058 91.11893148627132,208.35714604717214 91.71137402486056,209.0 91.82986253220588,208.48571685678326 91.82986253220588,207.97143356245942 89.57858088705689,203.98573290207423 88.51218431815505,201.67145093088038 86.61636819504201,196.01430433080532 86.02392565645278,193.05715223390143 85.31299461051822,191.0" stroke="#4dd2ff" stroke-linecap="round" stroke-linejoin="round" stroke-width="0.5"><title>2023-10-07 1.0km</title><desc>9989974159</desc></polyline><polyline fill="none" points="109.95796965342015,196.36172163987067 110.89915478928015,199.42555514350533 111.60504364175722,200.9574698683573 113.0168213462457,206.95745619398076 113.36976577201858,208.10638738039415 114.07565462449566,209.0 114.66389533411711,209.0 114.8991916179657,208.48936427361332 114.78154347650707,208.10638738039415 113.36976577201858,206.06384252291173 111.9579880675301,203.00002073205542 111.48739549983293,200.9574698683573 109.01678451756015,194.95746281091124 108.66384009132162,192.78724238602445 107.9579512393102,191.0" stroke="#4dd2ff" stroke-linecap="round" stroke-linejoin="round" stroke-width="0.5"><title>2023-10-06 1.0km</title><desc>9984428862</desc></polyline><polyline fill="none" points="130.41055365093052,191.0 132.45011187996715,196.45903345034458 133.80981736583635,201.0328068000963 136.12131669186056,206.78689395042602 137.07311053201556,208.7049193349667 137.48102217772976,209.0 138.02490437217057,209.0 138.16087492043152,208.7049193349667 137.75296327425167,207.96721748064738 136.12131669186056,205.60656972648576 135.16952285170555,203.6885413810378 133.53787626838312,199.40985615958925 132.85802352568135,197.19673953438178 130.954435845837,193.65574785752688 130.954435845837,192.32787436805665" stroke="#4dd2ff" stroke-linecap="round" stroke-linejoin="round" stroke-width="0.5"><title>2023-10-04 1.0km</title><desc>9971682885</desc></polyline><polyline fill="none" points="154.4184866468422,193.10219913115725 155.02390231238678,195.20439578976948 155.62931797793135,196.64965455804486 156.11365051101893,198.8832339918008 158.41423004074022,203.48177109507378 158.53531317412853,205.05840966361575 159.26181197352707,208.21168262825813 159.50397823937237,208.6058413576102 160.2304770387709,209.0 160.2304770387709,207.68613752059173 158.6563963079825,204.79563666554168 157.56664810935035,202.29929125588387 156.96123244287446,201.11681063415017 156.35581677686423,199.40878168831114 155.1449854457751,196.912428754149 154.6606529126875,194.9416213426739 154.4184866468422,192.97081175807398 154.05523724714294,191.0" stroke="#4dd2ff" stroke-linecap="round" stroke-linejoin="round" stroke-width="0.5"><title>2023-10-03 1.0km</title><desc>9965060084</desc></polyline><polyline fill="none" points="176.70973855769262,191.7438048243057 178.35486927861348,197.09919148962945 178.62905773241073,199.47935879125725 179.58871732000262,200.66944139194675 180.27418845379725,202.45456398068927 181.50803649425507,207.06612337986007 182.46769608184695,208.55372094386257 183.1531672156416,209.0 183.29026144277304,208.8512403254863 182.87897876231,207.6611625365913 181.37094226805493,204.83472498285118 178.90324618574232,198.88431722810492 177.39520969148725,194.42149992857594 177.12102123815566,191.0" stroke="#4dd2ff" stroke-linecap="round" stroke-linejoin="round" stroke-width="0.5"><title>2023-10-02 1.0km</title><desc>9958643020</desc></polyline><polyline fill="none" points="17.146795372013003,214.16801199468318 17.41220975574106,215.46401542495005 20.331767980009317,222.37601923558395 21.791547091677785,226.84000873356126 22.58779024379328,228.4240025616018 23.38403339544311,229.0 23.516740588005632,228.85600065614562 23.38403339544311,228.2800031756051 20.729889555368572,224.2480160703417 18.208452907856554,218.0560197121231 17.014088179916143,214.31201241828967 16.483259411994368,211.0" stroke="#4dd2ff" stroke-linecap="round" stroke-linejoin="round" stroke-width="0.5"><title>2023-10-01 1.0km</title><desc>9952075403</desc></polyline><polyline fill="none" points="40.27271942002699,213.60870696778875 41.35457109147683,215.8261048743734 41.83539405558258,218.04350000969134 42.19601127970964,220.1304576053517 43.99909739848226,225.21740646020044 45.56177203496918,228.47826343949419 46.283006481826305,229.0 46.523417965043336,228.60869759391062 44.11930314032361,224.95653764309827 43.03745146887377,222.47828196594492 42.676834244746715,221.17393548239488 40.993953867349774,217.52176022715867 40.03230793727562,213.47827171022072 39.19086774857715,211.0" stroke="#4dd2ff" stroke-linecap="round" stroke-linejoin="round" stroke-width="0.5"><title>2023-09-30 1.0km</title><desc>9945549317</desc></polyline><polyline fill="none" points="62.92743632150814,211.0 64.12180034723133,213.0160082259681 64.51992168882862,214.60001323360484 65.58157860022038,217.19201866455842 66.11240705661476,221.0800203795079 66.5105283986777,222.23201940534636 68.10301376553252,226.12001111591235 68.50113510759547,228.56800193735398 68.76654933579266,228.85600065637846 69.16467067738995,229.0 69.29737779125571,228.7120013020467 66.908649740275,224.39201575319748 65.31616437295452,220.64802057005 64.7853359170258,218.48802009352949 62.92743632150814,214.16801199526526 62.13119363738224,211.57600256206933" stroke="#4dd2ff" stroke-linecap="round" stroke-linejoin="round" stroke-width="0.5"><title>2023-09-28 1.0km</title><desc>9933629332</desc></polyline><polyline fill="none" points="85.05267610400915,213.04546334245242 86.05803395202383,216.5909277930623 87.94307991629466,219.1818398362957 89.19977722642943,223.81819972326048 90.95915345987305,226.9545542517444 91.46183238411322,228.72727403056342 91.96451130742207,229.0 92.21585077000782,228.59091103065293 91.96451130742207,228.04545893135946 90.95915345987305,226.6818279812578 88.06874964712188,220.81820347253233 86.56071287533268,216.72729167481884 84.92700637318194,211.0" stroke="#4dd2ff" stroke-linecap="round" stroke-linejoin="round" stroke-width="0.5"><title>2023-09-27 1.0km</title><desc>9927137811</desc></polyline><polyline fill="none" points="112.92389279534109,211.0 112.56501566711813,212.73079315607902 112.206138539128,213.72599691554205 111.92701188405044,214.93754704669118 110.29212718969211,218.35583575541386 109.45474722445942,219.78372262767516 109.2952462786343,220.38949176907772 109.37499675131403,220.86545280006249 109.57437293371186,221.55775906681083 110.17250148020685,223.02890717971604 110.37187766260467,223.4183281234 110.61112908134237,224.11063138698228 111.40863381023519,225.10581590171205 111.76751093822531,225.88465478277067 112.16626330278814,226.49041764438152 112.4852651944384,227.3557920793537 112.96376803168096,228.00482207047753 113.56189657840878,229.0" stroke="#4dd2ff" stroke-linecap="round" stroke-linejoin="round" stroke-width="0.5"><title>2023-09-26 1.0km</title><desc>9920397094</desc></polyline><polyline fill="none" points="134.2016526486259,211.0 133.41707737138495,213.61488918599207 132.632502094144,215.01354744983837 131.9039679078851,215.92571460851468 131.51168026938103,216.65544761100318 131.34355699573644,217.38517996965675 131.39959808648564,218.29734451253898 131.67980354302563,219.02707542252028 132.35229663783684,220.06085977627663 132.632502094144,221.0946428378229 133.19291300629266,222.43247782281833 134.25769373984076,223.77031064400217 136.05100865941495,227.4189346122439 137.22787157539278,229.0" stroke="#4dd2ff" stroke-linecap="round" stroke-linejoin="round" stroke-width="0.5"><title>2023-09-25 1.0km</title><desc>9914573673</desc></polyline><polyline fill="none" points="158.46990603627637,211.0 158.0275564051699,211.67200891877292 157.93908647890203,212.00801311869873 158.0275564051699,212.4400182645768 158.07179136830382,212.8720231244224 157.18709210585803,214.50403890397865 156.96591729018837,215.60804726480274 156.65627254871652,216.42405224451795 154.79840409755707,219.68806196353398 154.75416913442314,220.07206203386886 154.93110898672603,220.8400614973507 155.41769358119927,221.6080600572168 155.68310336000286,222.2800580559997 156.0812180279754,222.95205536298454 156.30239284364507,223.62405197828775 156.87744736415334,224.53604627848836 157.319796995027,225.44803930463968 157.80638158973306,225.9760346848634 157.93908647890203,226.45603011449566 158.24873122083955,226.8400262040086 158.91225566761568,227.99201311788056 159.3988402618561,228.5200064406381 159.5315451512579,229.0" stroke="#4dd2ff" stroke-linecap="round" stroke-linejoin="round" stroke-width="0.5"><title>2023-09-24 1.0km</title><desc>9907510217</desc></polyline><polyline fill="none" points="180.67104142787866,211.0 180.29525822820142,211.5825306751649 180.02684165723622,212.1650609219796 179.8657917145174,212.9223496025661 179.81210840004496,213.9126490924391 178.89949205797166,215.13595851819264 178.3626589155756,216.53402412019204 177.87950908741914,217.23305599595187 177.5574092019815,218.16509753774153 177.50372588750906,219.15539047430502 178.63107548677363,222.00975730718346 179.06054200069048,222.8835410165484 180.45630817115307,225.09712210064754 181.0468246275559,226.5534220727859 181.79839102714323,227.4854526500567 182.22785754106008,228.24272668687627 182.49627411249094,229.0" stroke="#4dd2ff" stroke-linecap="round" stroke-linejoin="round" stroke-width="0.5"><title>2023-09-23 1.0km</title><desc>9901004991</desc></polyline><polyline fill="none" points="20.69117305218242,231.0 20.33278702525422,231.6666743136011 19.97440099832602,232.83335294673452 19.155232936609536,234.5555895413272 18.336064874893054,235.7222637136001 17.61929282103665,237.66671666427283 17.568094816990197,238.72227474185638 17.670490825083107,239.33338663936593 18.694450901821256,241.7778292860603 18.84804491349496,242.5000494637643 19.052836928749457,242.88893696578452 19.76960898260586,243.77782193332678 20.33278702525422,244.88892667199252 20.79356905980967,246.05558488948736 21.561539117712528,247.16668627905892 22.431905183242634,249.0" stroke="#4dd2ff" stroke-linecap="round" stroke-linejoin="round" stroke-width="0.5"><title>2023-09-22 1.0km</title><desc>9895405405</desc></polyline><polyline fill="none" points="43.81132764648646,231.0 43.66452998644672,231.53097987367073 43.37093466706574,231.84956761042122 42.73481147410348,233.01772144268034 42.490148707758635,233.86728667921852 41.75616040825844,235.72570714971516 40.97323955595493,237.3186351749464 40.48391402279958,238.48678016033955 40.337116362992674,239.07085194438696 40.337116362992674,239.44253374281107 40.48391402279958,239.97350740875117 40.777509342646226,240.5044806843507 41.413632535608485,242.15049535757862 42.04975572810508,243.31863252696348 42.39228360098787,244.16818564524874 43.028406793717295,245.2301256377832 43.41986721986905,245.7079981250572 43.71346253971569,246.55754843255272 44.49638339225203,247.93806555081392 45.3771693513263,249.0" stroke="#4dd2ff" stroke-linecap="round" stroke-linejoin="round" stroke-width="0.5"><title>2023-09-21 1.0km</title><desc>9889267953</desc></polyline><polyline fill="none" points="67.54690952645615,231.0 66.90454654069617,232.9271348346956 66.5266859610565,234.4442362957052 65.9221090329811,235.71531812573085 65.20417393138632,237.84744888261775 63.957234017783776,240.18458284673397 63.617159496061504,241.45565159220132 63.654945553746074,241.74266671438818 63.88166190171614,242.3576986216649 64.37288065580651,243.42375232084305 64.67516911961138,244.32579616687144 65.43089027935639,245.39184610371012 65.88432297529653,246.2528849497321 66.14882538095117,246.86791188293137 66.45111384475604,247.4009346763487 66.9423325988464,247.76995015799184 67.54690952645615,248.6719869741064 67.58469558460638,248.83599351116573 67.81141193257645,249.0" stroke="#4dd2ff" stroke-linecap="round" stroke-linejoin="round" stroke-width="0.5"><title>2023-09-20 1.0km</title><desc>9882714971</desc></polyline><polyline fill="none" points="90.06393159832805,231.0 89.6801451058127,231.97173551184824 88.95521506411023,234.10029377049068 88.91257212054916,234.79438729817048 88.65671445871703,235.16457019996597 88.35821385355666,235.85866255377186 88.1876420788467,236.50648139341502 87.84649852989241,237.3856630375376 86.86571082635783,238.9589323879336 86.6098531645257,239.88438310968922 86.52456727740355,240.71728759579128 86.6098531645257,241.55019097944023 86.86571082635783,242.47563789068954 87.1642114315182,243.12344991898863 88.10235619149171,244.74297707213555 88.57142857159488,245.39078676642384 88.99785800767131,246.5475881336024 89.42428744398057,247.28793989261612 89.850716880057,247.889475055621 90.31978925992735,248.35219402058283 90.61828986555338,249.0" stroke="#4dd2ff" stroke-linecap="round" stroke-linejoin="round" stroke-width="0.5"><title>2023-09-19 1.0km</title><desc>9876194288</desc></polyline><polyline fill="none" points="111.29607805027626,231.0 110.97809394286014,231.51757766940864 110.44812043081038,232.5527319808025 110.28912837710232,233.24283409374766 109.33517605508678,234.91057835303945 108.59321313793771,236.46330257016234 108.43422108422965,237.03838483133586 108.48721843562089,237.67097482999088 108.80520254303701,238.47608863416826 109.28217870392837,239.33870964730158 109.70615751389414,240.5463774675154 110.28912837710232,241.81155127921375 110.92509659170173,242.96170751401223 111.50806745537557,243.70930815977044 112.1970330211334,244.85946160397725 112.62101183086634,246.18213597405702 113.36297474824823,247.33228578220587 113.73395620682277,248.36741916363826 114.42292177281342,249.0" stroke="#4dd2ff" stroke-linecap="round" stroke-linejoin="round" stroke-width="0.5"><title>2023-09-18 1.0km</title><desc>9870505463</desc></polyline><polyline fill="none" points="134.46658202027902,231.0 134.20819954248145,231.5046786859748 133.8464640735183,233.18693856027676 133.38137561338954,233.97199189837556 133.17466963105835,234.58881895412924 132.03778672846965,236.43929712829413 131.6243747640401,237.44864696724107 131.3659922860097,238.3458457023953 131.5726982683409,238.9626692206948 132.70958117069677,241.42995830491418 133.27802262222394,242.3271523566218 133.6914345866535,243.2804198800004 134.36322902911343,244.17761175491614 134.72496449830942,244.79443055659067 135.19005295820534,246.25236392312218 137.20543628558517,249.0" stroke="#4dd2ff" stroke-linecap="round" stroke-linejoin="round" stroke-width="0.5"><title>2023-09-16 1.0km</title><desc>9856514700</desc></polyline><polyline fill="none" points="156.89403453306295,231.0 156.34109540027566,232.68001679936424 155.6222745277919,233.82002622907748 154.1293388691265,236.7000429572654 154.07404495589435,237.36004535935353 154.1293388691265,238.1400475098053 154.46110234898515,238.92004891473334 155.01404148177244,239.76004959398415 155.51168670109473,240.9000491327606 156.39638931350783,242.4000460996176 157.50226757931523,244.50003722141264 157.61285540577956,245.28003254742362 157.99991279863752,245.58003055123845 158.4422641049605,246.18002622795757 159.16108497744426,247.38001625816105 159.9351997631602,248.04001002263976 160.10108150308952,248.46000577666564 160.21166932978667,249.0" stroke="#4dd2ff" stroke-linecap="round" stroke-linejoin="round" stroke-width="0.5"><title>2023-09-15 1.0km</title><desc>9850671982</desc></polyline><polyline fill="none" points="180.45760422758758,231.0 179.54239577241242,233.4207119922503 178.51278626034036,234.91037746024085 178.05518203275278,235.7172784911818 177.3687756913714,237.45521655364428 177.19717410602607,238.07590785168577 177.19717410602607,238.57246056129225 177.3687756913714,239.19315103784902 178.05518203275278,241.05521972937277 178.6843878456857,242.29659657517914 180.22880211402662,244.96555061248364 180.8580079267267,246.14485319692176 180.9724089836236,246.82760657178005 181.4300132112112,247.26208570454037 182.173620081041,248.44138508086326 182.80282589397393,249.0" stroke="#4dd2ff" stroke-linecap="round" stroke-linejoin="round" stroke-width="0.5"><title>2023-09-14 1.0km</title><desc>9844236351</desc></polyline><polyline fill="none" points="17.13924675201997,251.0 17.46854208991863,251.26799398573348 17.59202784160152,251.535987853189 17.674351676134393,252.11664082697826 17.921323179500178,252.60796214069705 18.08597084856592,253.99259279557737 18.08597084856592,254.66257423744537 18.00364701403305,255.01989737094846 18.08597084856592,255.46655099239433 18.291780434548855,256.00253490457544 18.209456600248814,256.4491878034314 18.250618517398834,256.6725141296629 18.662237689830363,257.4318230249919 19.03269494511187,258.54845202929573 19.361990282777697,259.17376337520545 19.773609455209225,259.7544090486481 20.226390544790775,260.1563941896311 20.349876296473667,260.42438413598575 20.47336204838939,261.00502861407585 20.802657386288047,261.5856725371559 21.173114641336724,262.6576290910598 21.667057648068294,263.5955895241932 21.91402915143408,264.39955445716623 22.037514903349802,265.0695244217641 22.284486406715587,265.6054998616455 22.737267496297136,267.0794298829278 23.35469625494443,268.2407055631047 23.39585817232728,268.41936316300416 23.35469625494443,268.5533563285135 22.86075324798003,269.0 23.107724751578644,268.8213425707654 23.231210503261536,268.5533563285135 23.313534337561578,268.330034369661 23.272372420644388,268.0173834892921 23.025400917045772,267.70473244803725 22.284486406715587,266.0968102659681 21.91402915143408,264.89086583675817 21.131952724186704,263.14894187945174 20.761495468905196,261.45167783496436 20.555685882922262,260.96036367397755 19.773609455209225,259.9330691441428 18.99153302772902,258.45912178448634 18.62107577244751,257.2531621938688 18.49759002099745,256.4491878034314 18.168294682865962,255.60054701479385 17.50970400730148,254.1712545856717 17.345056338235736,253.50127260189038 16.768789496971294,252.4292998908204 16.64530374505557,251.84864721581107 16.60414182790555,251.1339970076806" stroke="#4dd2ff" stroke-linecap="round" stroke-linejoin="round" stroke-width="0.5"><title>2023-09-13 1.0km</title><desc>9837636972</desc></polyline></svg>