<svg xmlns="http://www.w3.org/2000/svg" xmlns:ev="http://www.w3.org/2001/xml-events" xmlns:xlink="http://www.w3.org/1999/xlink" width="200mm" height="300mm" baseProfile="full" version="1.1" viewBox="0 0 200 300"><rect width="200" height="300" x="0" y="0" fill="#222"/><text fill="#FFF" style="font-size:12px;font-family:Arial;font-weight:700" x="10" y="20">Over 1km Runs</text><text fill="#FFF" style="font-size:4px;font-family:Arial" x="10" y="280">ATHLETE</text><text fill="#FFF" style="font-size:9px;font-family:Arial" x="10" y="290">Jiakai</text><text fill="#FFF" style="font-size:4px;font-family:Arial" x="120" y="280">STATISTICS</text><text fill="#FFF" style="font-size:3px;font-family:Arial" x="120" y="285">Number: 80</text><text fill="#FFF" style="font-size:3px;font-family:Arial" x="120" y="290">Weekly: 6.2</text><text fill="#FFF" style="font-size:3px;font-family:Arial" x="141" y="285">Total: 82.6 km</text><text fill="#FFF" style="font-size:3px;font-family:Arial" x="141" y="290">Avg: 1.0 km</text><text fill="#FFF" style="font-size:3px;font-family:Arial" x="167" y="285">Min: 1.0 km</text><text fill="#FFF" style="font-size:3px;font-family:Arial" x="167" y="290">Max: 1.5 km</text><polyline fill="none" stroke="#4dd2ff" stroke-linecap="round" stroke-linejoin="round" stroke-width=".5" points="21.656 42.424 24.36 50.641 24.496 51.082 25.036 51.375 25.172 51.228 24.766 50.201 23.549 47.853 22.197 44.185 18.41 36.554 17.328 31.125"><title>2023-12-10 1.0km</title><desc>10355395415</desc></polyline><polyline fill="none" stroke="#4dd2ff" stroke-linecap="round" stroke-linejoin="round" stroke-width=".5" points="40.182 32.465 42.515 36.188 43.613 40.803 45.946 47.355 46.769 50.928 47.318 51.375 47.455 51.226 47.455 50.928 47.181 49.737 44.299 43.93 43.613 42.292 43.201 39.761 42.515 37.825 41.417 35.89 41.28 33.805 40.045 31.125"><title>2023-12-09 1.0km</title><desc>10350143310</desc></polyline><polyline fill="none" stroke="#4dd2ff" stroke-linecap="round" stroke-linejoin="round" stroke-width=".5" points="64.091 35.054 64.927 38.077 66.737 42.459 69.244 49.713 70.358 51.375 70.219 49.864 69.384 47.295 67.155 43.366 65.763 40.041 64.231 37.623 63.813 35.205 62.142 31.125"><title>2023-12-08 1.0km</title><desc>10345303898</desc></polyline><polyline fill="none" stroke="#4dd2ff" stroke-linecap="round" stroke-linejoin="round" stroke-width=".5" points="85.487 31.125 85.748 31.833 86.27 33.674 86.531 36.223 87.053 38.347 88.881 42.879 90.055 46.985 91.23 49.534 91.491 51.375 91.752 51.233 92.013 50.95 92.013 50.525 91.36 48.826 89.272 45.286 86.792 38.064 86.14 35.09"><title>2023-12-07 1.0km</title><desc>10340288256</desc></polyline><polyline fill="none" stroke="#4dd2ff" stroke-linecap="round" stroke-linejoin="round" stroke-width=".5" points="107.491 31.125 108.296 33.019 109.773 39.283 111.921 43.217 113.667 48.024 114.472 51.084 114.875 51.375 115.009 50.355 114.741 49.044 112.593 44.528 111.116 42.343 110.31 40.74 107.625 31.562"><title>2023-12-06 1.0km</title><desc>10334845031</desc></polyline><polyline fill="none" stroke="#4dd2ff" stroke-linecap="round" stroke-linejoin="round" stroke-width=".5" points="131.884 34.616 132.785 39.225 133.686 42.577 135.874 48.303 137.032 50.956 137.418 51.375 136.903 48.861 135.616 46.487 134.458 43.135 132.785 39.644 132.013 36.991 130.725 34.197 130.082 31.125"><title>2023-12-05 1.0km</title><desc>10329306344</desc></polyline><polyline fill="none" stroke="#4dd2ff" stroke-linecap="round" stroke-linejoin="round" stroke-width=".5" points="152.531 32.824 153.444 34.24 154.619 38.347 156.968 44.153 158.142 48.118 159.186 50.384 159.969 51.375 159.969 50.667 156.576 42.879 155.271 38.489 153.836 35.232 152.792 31.125"><title>2023-12-04 1.0km</title><desc>10324662812</desc></polyline><polyline fill="none" stroke="#4dd2ff" stroke-linecap="round" stroke-linejoin="round" stroke-width=".5" points="175.233 32.994 176.668 38.446 178.965 43.587 180.544 49.038 181.693 51.219 182.554 51.375 182.554 50.752 181.549 49.038 180.257 45.3 178.822 43.119 177.817 40.471 176.094 34.24 174.946 31.125"><title>2023-12-02 1.0km</title><desc>10313350310</desc></polyline><polyline fill="none" stroke="#4dd2ff" stroke-linecap="round" stroke-linejoin="round" stroke-width=".5" points="17.574 56.366 18.988 58.206 20.684 64.036 21.816 68.792 23.653 74.008 24.784 75.542 24.926 74.621 24.643 72.78 23.088 69.405 20.684 65.57 19.271 62.655 17.857 55.292"><title>2023-12-01 1.0km</title><desc>10308709030</desc></polyline><polyline fill="none" stroke="#4dd2ff" stroke-linecap="round" stroke-linejoin="round" stroke-width=".5" points="40.018 55.292 42.817 64.91 45.616 70.648 47.171 74.867 47.638 75.542 47.793 75.035 47.171 73.348 44.839 70.142 44.217 68.454 41.884 63.898 40.795 58.667 39.707 55.629"><title>2023-11-30 1.0km</title><desc>10303537703</desc></polyline><polyline fill="none" stroke="#4dd2ff" stroke-linecap="round" stroke-linejoin="round" stroke-width=".5" points="63.933 59.621 64.834 62.554 65.22 64.928 66.636 67.721 68.181 71.911 69.725 75.262 69.982 75.542 70.24 75.262 69.982 74.285 68.953 72.469 67.537 68.559 65.478 64.369 64.706 59.9 63.161 57.526 62.26 55.292"><title>2023-11-29 1.0km</title><desc>10298007687</desc></polyline><polyline fill="none" stroke="#4dd2ff" stroke-linecap="round" stroke-linejoin="round" stroke-width=".5" points="85.259 57.914 86.736 61.702 87.005 64.47 88.884 68.986 89.958 73.065 90.898 74.959 91.838 75.542 92.241 75.542 92.509 75.105 92.375 74.522 91.838 73.502 89.69 67.82 87.542 62.867 87.139 60.536 86.199 57.768 84.991 55.292"><title>2023-11-28 1.0km</title><desc>10292316108</desc></polyline><polyline fill="none" stroke="#4dd2ff" stroke-linecap="round" stroke-linejoin="round" stroke-width=".5" points="110.775 55.292 111.963 58.516 112.676 61.612 113.627 63.031 114.697 65.094 115.767 68.448 116.718 69.996 116.718 70.769 116.124 71.285 114.222 72.317 113.033 73.349 111.844 73.994 110.061 74.768 107.209 75.542 106.733 75.413 106.376 75.026 105.782 72.575"><title>2023-11-27 1.0km</title><desc>10287544518</desc></polyline><polyline fill="none" stroke="#4dd2ff" stroke-linecap="round" stroke-linejoin="round" stroke-width=".5" points="131.792 59.682 132.445 61.239 134.011 69.169 135.708 73.276 136.621 74.834 137.274 75.542 137.404 75.4 137.013 74.692 137.013 73.559 135.969 71.152 134.794 67.187 133.619 64.779 132.836 60.248 130.618 56.708 130.096 55.292"><title>2023-11-26 1.0km</title><desc>10281488289</desc></polyline><polyline fill="none" stroke="#4dd2ff" stroke-linecap="round" stroke-linejoin="round" stroke-width=".5" points="152.563 55.292 154.068 59.211 155.422 64.763 156.777 67.866 157.078 69.826 157.83 71.622 159.486 74.725 160.238 75.542 160.539 75.542 158.282 70.642 157.981 69.009 156.476 66.886 153.466 58.721 151.961 55.945"><title>2023-11-25 1.0km</title><desc>10275889695</desc></polyline><polyline fill="none" stroke="#4dd2ff" stroke-linecap="round" stroke-linejoin="round" stroke-width=".5" points="174.826 55.481 175.872 60.212 180.756 73.46 181.977 75.352 182.5 75.542 182.674 74.974 180.93 72.703 178.837 66.458 177.442 63.619 176.57 58.13 175.523 55.292"><title>2023-11-24 1.0km</title><desc>10271180196</desc></polyline><polyline fill="none" stroke="#4dd2ff" stroke-linecap="round" stroke-linejoin="round" stroke-width=".5" points="18.732 81.708 19.176 82.994 20.213 88.458 22.731 96.173 23.916 99.387 24.36 99.708 24.953 99.708 25.101 99.387 24.805 97.78 23.175 93.119 18.88 83.798 17.399 79.458"><title>2023-11-23 1.0km</title><desc>10265414399</desc></polyline><polyline fill="none" stroke="#4dd2ff" stroke-linecap="round" stroke-linejoin="round" stroke-width=".5" points="41.976 84.022 42.107 86.018 42.633 89.156 44.736 95.145 45.393 97.997 46.444 99.708 47.233 99.708 47.101 98.853 45.656 95.145 44.473 93.291 42.764 88.015 40.793 82.596 40.267 79.458"><title>2023-11-21 1.0km</title><desc>10253878272</desc></polyline><polyline fill="none" stroke="#4dd2ff" stroke-linecap="round" stroke-linejoin="round" stroke-width=".5" points="64.071 84.927 64.752 89.362 67.612 96.604 68.838 99.265 69.247 99.708 69.519 99.561 69.655 99.265 69.111 96.9 66.659 91.579 65.705 88.77 64.207 83.006 63.389 81.528 62.845 79.458"><title>2023-11-20 1.0km</title><desc>10248671423</desc></polyline><polyline fill="none" stroke="#4dd2ff" stroke-linecap="round" stroke-linejoin="round" stroke-width=".5" points="85.145 81.146 87.124 85.441 87.69 89.89 89.245 93.419 90.8 97.867 91.507 98.941 92.355 99.708 92.214 98.481 89.81 92.191 88.255 86.515 86.7 82.833 85.852 79.458"><title>2023-11-19 1.0km</title><desc>10242265034</desc></polyline><polyline fill="none" stroke="#4dd2ff" stroke-linecap="round" stroke-linejoin="round" stroke-width=".5" points="107.314 97.501 108.199 94.718 108.553 94.046 109.172 93.662 112.179 93.278 114.39 92.798 115.097 92.223 115.539 91.647 116.07 89.247 115.893 88.48 116.247 87.904 115.982 83.489 115.805 82.913 115.716 81.186 115.539 80.13 114.567 79.842 113.771 80.418 113.947 80.13 114.124 80.418 112.975 79.842 112.886 79.458 112.621 79.65 112.798 79.554 112.179 80.322 112.267 80.226 114.124 81.186 113.682 81.57 112.975 81.858 111.294 82.146 111.206 81.762 111.648 81.57 112.267 81.666 114.124 79.842 116.689 79.938 116.424 79.746 116.07 79.65 115.805 84.257 115.893 85.601 116.159 87.232 116.335 90.015 116.335 90.975 116.07 91.935 115.539 92.511 111.117 92.99 109.083 93.374 108.022 94.142 106.784 95.869 106.076 98.365 105.811 99.708"><title>2023-11-18 1.0km</title><desc>10236386505</desc></polyline><polyline fill="none" stroke="#4dd2ff" stroke-linecap="round" stroke-linejoin="round" stroke-width=".5" points="129.618 79.458 132.55 84.521 133.617 88.282 134.017 90.451 134.816 91.753 137.349 99.13 137.882 99.708 137.882 99.13 137.349 98.407 135.883 94.067 135.083 92.621 134.816 90.162 133.617 87.124 132.284 84.232 132.15 82.64"><title>2023-11-17 1.0km</title><desc>10231268371</desc></polyline><polyline fill="none" stroke="#4dd2ff" stroke-linecap="round" stroke-linejoin="round" stroke-width=".5" points="152.638 80.112 154.595 82.888 155.046 86.644 156.4 89.583 158.507 97.422 159.862 99.708 159.711 98.402 158.658 96.279 157.905 94.156 156.701 89.093 154.294 84.031 153.541 81.745 153.09 79.458"><title>2023-11-16 1.0km</title><desc>10225818993</desc></polyline><polyline fill="none" stroke="#4dd2ff" stroke-linecap="round" stroke-linejoin="round" stroke-width=".5" points="175.238 79.676 176.242 83.595 177.847 87.95 180.054 92.087 180.857 95.354 182.262 98.184 183.666 99.708 180.054 92.958 178.449 87.95 173.834 79.458"><title>2023-11-15 1.0km</title><desc>10219684298</desc></polyline><polyline fill="none" stroke="#4dd2ff" stroke-linecap="round" stroke-linejoin="round" stroke-width=".5" points="17.672 106.061 19.496 108.345 19.777 111.238 21.881 116.262 23.144 120.525 24.407 123.723 24.968 123.875 24.828 122.048 23.004 119.612 22.302 117.48 21.18 116.11 20.759 114.435 18.654 110.172 17.953 107.127 17.532 103.625"><title>2023-11-14 1.0km</title><desc>10213806154</desc></polyline><polyline fill="none" stroke="#4dd2ff" stroke-linecap="round" stroke-linejoin="round" stroke-width=".5" points="41.045 106.413 42.127 110.522 45.102 118.152 45.778 120.647 47.131 123.435 47.536 123.875 46.725 122.408 44.832 117.859 44.697 116.685 43.344 113.457 41.316 109.788 40.504 107.293 39.964 103.625"><title>2023-11-13 1.0km</title><desc>10208522228</desc></polyline><polyline fill="none" stroke="#4dd2ff" stroke-linecap="round" stroke-linejoin="round" stroke-width=".5" points="63.988 105.926 65.402 110.222 67.098 113.75 68.088 117.892 69.078 120.807 70.35 123.568 70.915 123.875 71.198 123.261 69.643 120.193 68.795 116.818 65.684 113.903 63.988 111.449 63.705 108.841 61.302 103.625"><title>2023-11-12 1.0km</title><desc>10202270880</desc></polyline><polyline fill="none" stroke="#4dd2ff" stroke-linecap="round" stroke-linejoin="round" stroke-width=".5" points="85.686 107.403 89.029 114.959 90.143 118.737 91.257 121.759 91.953 123.119 92.65 123.875 92.789 123.271 91.535 119.493 89.168 115.866 86.661 110.123 85.686 106.043 84.711 103.625"><title>2023-11-11 1.0km</title><desc>10196068378</desc></polyline><polyline fill="none" stroke="#4dd2ff" stroke-linecap="round" stroke-linejoin="round" stroke-width=".5" points="109.367 106.645 111.659 113.572 113.787 119.257 114.77 122.987 115.424 123.875 115.752 123.52 115.261 121.388 112.805 115.882 110.35 110.73 107.076 105.579 106.748 103.625"><title>2023-11-10 1.0km</title><desc>10191120477</desc></polyline><polyline fill="none" stroke="#4dd2ff" stroke-linecap="round" stroke-linejoin="round" stroke-width=".5" points="129.049 104.243 131.471 106.098 132.895 108.572 133.323 109.499 133.323 110.89 134.89 115.682 135.459 118.465 136.599 121.556 136.884 123.102 137.596 123.875 138.024 123.72 138.451 123.102 136.884 122.02 134.32 118.31 131.328 110.117 130.616 105.48 129.904 103.625"><title>2023-11-09 1.0km</title><desc>10185506531</desc></polyline><polyline fill="none" stroke="#4dd2ff" stroke-linecap="round" stroke-linejoin="round" stroke-width=".5" points="152.3 105.251 153.798 108.207 154.343 109.685 156.114 113.528 156.795 116.189 156.659 114.563 156.931 115.598 157.476 119.589 158.702 123.284 159.247 123.875 159.928 123.579 160.2 123.136 158.702 121.806 157.612 120.032 156.931 118.11 155.978 114.859 154.615 112.937 153.117 109.685 152.708 107.32 152.845 104.364 152.572 103.625"><title>2023-11-08 1.0km</title><desc>10179505859</desc></polyline><polyline fill="none" stroke="#4dd2ff" stroke-linecap="round" stroke-linejoin="round" stroke-width=".5" points="177.836 114.812 182.404 123.875 182.665 123.733 182.013 122.176 180.838 120.193 180.055 118.211 178.489 116.511 177.967 115.52 177.575 112.122 177.314 111.13 175.748 108.44 174.835 103.625"><title>2023-11-06 1.0km</title><desc>10167691585</desc></polyline><polyline fill="none" stroke="#4dd2ff" stroke-linecap="round" stroke-linejoin="round" stroke-width=".5" points="19.303 133.473 20.243 135.222 23.734 143.234 25.211 147.75 25.479 148.042 25.748 148.042 25.748 147.605 24.674 145.274 23.734 143.963 23.6 143.234 22.794 142.36 20.512 138.427 17.826 131.579 16.752 127.792"><title>2023-11-05 1.1km</title><desc>10161301187</desc></polyline><polyline fill="none" stroke="#4dd2ff" stroke-linecap="round" stroke-linejoin="round" stroke-width=".5" points="39.964 127.792 42.668 133.808 43.885 139.091 45.778 142.759 46.455 145.694 47.131 148.042 47.536 147.601 47.401 147.161 45.643 143.933 45.508 143.493 43.885 140.998 43.209 138.65 41.451 135.422 41.045 132.634 40.234 129.699"><title>2023-11-04 1.0km</title><desc>10155501797</desc></polyline><polyline fill="none" stroke="#4dd2ff" stroke-linecap="round" stroke-linejoin="round" stroke-width=".5" points="71.683 130.868 70.148 128.817 69.203 128.176 67.313 127.792 65.541 127.92 63.061 129.073 61.998 130.099 61.053 132.021 60.817 133.559 60.463 138.686 60.699 144.069 60.935 144.838 62.116 146.76 63.534 147.785 65.896 148.042 68.022 147.145 70.029 144.709 70.62 143.556 71.447 139.839 71.447 136.891 72.037 133.046 71.919 131.637 70.62 130.099 69.557 129.33 67.077 128.176 65.778 128.176 62.943 129.073 61.644 130.227 60.817 131.765 60.581 132.79 60.817 137.02 60.581 138.942"><title>2023-11-03 1.0km</title><desc>10152446508</desc></polyline><polyline fill="none" stroke="#4dd2ff" stroke-linecap="round" stroke-linejoin="round" stroke-width=".5" points="84.559 127.792 85.666 130.194 86.615 134.484 88.196 137.573 90.569 143.751 91.043 144.781 91.834 147.527 92.308 148.042 92.941 148.042 92.941 147.698 91.834 147.184 91.36 145.982 90.252 144.953 89.462 142.722 88.355 141.006 87.089 138.432 85.666 133.112 84.717 130.881"><title>2023-11-02 1.1km</title><desc>10144903556</desc></polyline><polyline fill="none" stroke="#4dd2ff" stroke-linecap="round" stroke-linejoin="round" stroke-width=".5" points="107.802 129.259 108.072 130.873 109.154 133.368 111.047 140.118 114.293 146.868 115.239 148.042 114.698 146.281 112.67 143.199 111.588 139.237 110.236 137.33 108.613 133.808 107.261 127.792"><title>2023-11-01 1.0km</title><desc>10138966680</desc></polyline><polyline fill="none" stroke="#4dd2ff" stroke-linecap="round" stroke-linejoin="round" stroke-width=".5" points="130.803 128.096 131.505 130.38 132.627 136.47 134.452 140.429 135.574 144.083 137.398 148.042 137.539 147.889 136.276 146.062 134.452 141.799 132.908 139.059 130.242 130.989 129.961 127.792"><title>2023-10-31 1.0km</title><desc>10133123337</desc></polyline><polyline fill="none" stroke="#4dd2ff" stroke-linecap="round" stroke-linejoin="round" stroke-width=".5" points="153.071 130.192 153.762 133.792 153.762 135.142 155.282 137.692 159.429 146.542 160.121 147.892 160.397 148.042 157.218 141.742 155.835 137.842 154.315 134.692 152.103 127.792"><title>2023-10-30 1.0km</title><desc>10127985445</desc></polyline><polyline fill="none" stroke="#4dd2ff" stroke-linecap="round" stroke-linejoin="round" stroke-width=".5" points="175.558 130.723 176.172 134.853 176.54 136.185 178.996 141.913 180.223 145.244 182.065 147.775 182.556 148.042 182.679 147.642 181.574 145.91 179.978 142.446 177.154 137.251 176.049 133.387 175.189 131.655 175.067 128.991 174.821 127.792"><title>2023-10-28 1.0km</title><desc>10115543824</desc></polyline><polyline fill="none" stroke="#4dd2ff" stroke-linecap="round" stroke-linejoin="round" stroke-width=".5" points="18.624 156.158 19.729 159.758 20.974 162.608 22.079 166.658 23.738 170.558 24.429 172.058 25.121 172.208 25.259 172.058 24.982 171.158 24.153 168.908 21.388 163.508 19.176 157.508 17.794 154.508 17.241 151.958"><title>2023-10-27 1.0km</title><desc>10110442644</desc></polyline><polyline fill="none" stroke="#4dd2ff" stroke-linecap="round" stroke-linejoin="round" stroke-width=".5" points="41.006 155.085 43.613 163.87 44.573 166.55 45.534 168.188 46.632 171.315 47.043 171.911 47.867 172.208 48.004 171.762 47.867 171.166 46.494 169.379 44.436 165.806 41.966 158.51 40.319 155.83 39.496 151.958"><title>2023-10-26 1.0km</title><desc>10104873905</desc></polyline><polyline fill="none" stroke="#4dd2ff" stroke-linecap="round" stroke-linejoin="round" stroke-width=".5" points="65.236 161.643 68.346 169.42 69.834 172.062 70.375 172.208 70.239 170.741 66.588 164.431 64.56 159.295 62.802 155.627 62.125 151.958"><title>2023-10-25 1.0km</title><desc>10098978222</desc></polyline><polyline fill="none" stroke="#4dd2ff" stroke-linecap="round" stroke-linejoin="round" stroke-width=".5" points="85.004 151.958 84.868 152.993 85.685 156.393 86.775 158.61 87.456 161.27 88.682 164.818 91.27 169.843 92.087 171.913 92.36 172.208 92.632 172.061 92.496 170.139 90.998 167.331 89.908 165.705 88.546 162.601 88.273 160.975 86.639 158.462 85.685 156.245 85.413 153.584 85.004 151.958"><title>2023-10-24 1.0km</title><desc>10092835699</desc></polyline><polyline fill="none" stroke="#4dd2ff" stroke-linecap="round" stroke-linejoin="round" stroke-width=".5" points="109.169 155.455 111.183 162.593 112.123 164.341 113.197 168.712 114.808 171.626 115.479 172.208 114.808 171.48 113.868 169.149 111.451 166.235 110.914 165.216 110.377 161.865 108.766 158.66 107.692 155.309 107.021 151.958"><title>2023-10-23 1.0km</title><desc>10087395010</desc></polyline><polyline fill="none" stroke="#4dd2ff" stroke-linecap="round" stroke-linejoin="round" stroke-width=".5" points="127.194 152.055 127.552 151.958 130.103 152.153 131.221 152.444 131.49 152.59 132.072 153.027 132.475 153.512 133.37 155.163 133.817 157.009 134.399 157.98 134.667 158.757 135.294 160.165 135.741 161.622 136.413 162.788 136.726 163.127 137.129 163.807 137.353 165.264 137.487 165.653 137.845 166.187 137.934 167.012 138.069 167.352 140.038 172.014 140.306 172.208 140.306 171.966 139.903 171.577 139.456 170.509 139.008 169.586 137.8 165.847"><title>2023-10-22 1.5km</title><desc>10080655811</desc></polyline><polyline fill="none" stroke="#4dd2ff" stroke-linecap="round" stroke-linejoin="round" stroke-width=".5" points="153.029 151.958 153.74 152.472 152.461 152.267 154.45 154.837 154.64 155.453 154.498 155.967 153.834 156.327 153.645 156.687 153.692 157.304 154.071 158.794 154.498 159.873 154.971 161.518 155.824 163.009 155.966 163.574 156.487 164.499 156.818 164.91 156.866 165.167 157.197 165.476 157.434 165.989 157.766 166.966 158.097 167.634 158.05 168.97 158.666 170.153 158.855 170.718 159.187 171.335 159.755 172.054 160.039 172.208 158.95 170.666 158.713 169.844 158.239 168.816 158.05 168.148 157.434 167.274 156.913 165.784"><title>2023-10-20 1.4km</title><desc>10069668027</desc></polyline><polyline fill="none" stroke="#4dd2ff" stroke-linecap="round" stroke-linejoin="round" stroke-width=".5" points="174.675 151.958 174.772 152.743 175.543 154.627 175.736 155.778 177.327 159.65 177.472 160.174 177.569 160.958 177.761 161.482 178.919 163.104 179.546 164.36 179.931 165.615 180.269 166.296 180.462 167.342 180.703 167.865 181.33 169.487 181.426 170.115 182.343 171.999 182.584 172.208 182.728 172.208 182.825 172.156 182.777 172.104 181.812 170.9 181.378 169.435 180.462 167.761 180.317 167.08 180.221 165.929"><title>2023-10-19 1.3km</title><desc>10064004415</desc></polyline><polyline fill="none" stroke="#4dd2ff" stroke-linecap="round" stroke-linejoin="round" stroke-width=".5" points="16.684 176.125 18.669 178.71 18.537 180.577 18.801 182.444 19.728 185.747 21.051 187.902 22.375 191.636 25.022 195.944 25.419 196.375 25.816 196.231 24.096 194.508 20.919 188.332 20.125 185.604 17.875 180.864"><title>2023-10-18 1.0km</title><desc>10058081424</desc></polyline><polyline fill="none" stroke="#4dd2ff" stroke-linecap="round" stroke-linejoin="round" stroke-width=".5" points="40.216 177.352 41.347 183.949 44.316 191.773 46.295 195.915 47.143 196.375 47.567 196.375 47.85 195.761 46.86 194.534 45.588 192.54 43.891 188.858 43.184 186.71 40.216 180.727 39.933 179.807 39.65 176.125"><title>2023-10-17 1.0km</title><desc>10051702317</desc></polyline><polyline fill="none" stroke="#4dd2ff" stroke-linecap="round" stroke-linejoin="round" stroke-width=".5" points="61.728 176.592 63.164 179.085 65.317 184.692 66.465 186.873 67.757 190.923 69.336 194.973 69.911 196.063 70.628 196.375 70.772 196.219 70.628 195.752 69.049 193.415 66.896 188.119 65.317 184.848 64.025 178.773 63.307 176.125"><title>2023-10-16 1.0km</title><desc>10046279660</desc></polyline><polyline fill="none" stroke="#4dd2ff" stroke-linecap="round" stroke-linejoin="round" stroke-width=".5" points="84.603 176.125 85.195 177.411 85.788 180.304 87.121 184.804 88.898 187.536 90.972 195.25 91.712 196.054 92.749 196.375 92.897 196.054 92.749 195.089 90.824 192.357 89.787 189.143 88.602 187.214 85.788 180.625 84.751 176.125"><title>2023-10-15 1.0km</title><desc>10039610121</desc></polyline><polyline fill="none" stroke="#4dd2ff" stroke-linecap="round" stroke-linejoin="round" stroke-width=".5" points="107.036 177.595 107.488 182.331 108.692 185.76 110.197 187.883 111.1 190.823 113.658 195.395 114.26 196.048 115.012 196.375 115.464 196.048 115.464 195.558 112.454 193.109 110.498 189.516 109.745 186.413 107.939 182.331 107.036 178.901 107.187 176.778 107.036 176.125"><title>2023-10-14 1.0km</title><desc>10033377496</desc></polyline><polyline fill="none" stroke="#4dd2ff" stroke-linecap="round" stroke-linejoin="round" stroke-width=".5" points="129.159 176.446 131.825 179.661 132.121 182.071 134.639 189.786 137.008 195.411 137.749 196.375 138.341 196.375 138.341 195.893 138.193 195.411 136.86 194.446 135.379 191.714 133.75 186.571 130.788 179.982 130.343 177.732 129.603 176.125"><title>2023-10-13 1.0km</title><desc>10028006924</desc></polyline><polyline fill="none" stroke="#4dd2ff" stroke-linecap="round" stroke-linejoin="round" stroke-width=".5" points="151.905 176.125 153.33 177.98 154.184 179.526 154.327 181.535 154.184 183.699 155.751 186.946 157.603 191.892 159.455 195.293 159.883 195.911 160.595 196.375 160.595 195.602 159.028 193.593 157.603 191.119 155.751 186.018 154.612 184.009 154.042 182.308"><title>2023-10-12 1.0km</title><desc>10021974100</desc></polyline><polyline fill="none" stroke="#4dd2ff" stroke-linecap="round" stroke-linejoin="round" stroke-width=".5" points="176.382 178.996 176.94 182.019 176.8 183.228 178.054 187.308 179.029 189.121 180.003 192.446 181.396 195.771 181.675 196.073 182.371 196.375 182.232 195.771 180.7 191.841 179.029 188.97 176.8 183.832 176.243 181.868 175.965 178.996 175.129 176.125"><title>2023-10-10 1.0km</title><desc>10009069592</desc></polyline><polyline fill="none" stroke="#4dd2ff" stroke-linecap="round" stroke-linejoin="round" stroke-width=".5" points="17.819 202.823 18.78 205.503 19.741 209.077 21.799 213.544 23.446 219.202 24.406 220.542 24.681 220.095 24.818 218.457 23.857 215.628 21.799 212.055 19.466 205.503 18.78 202.525 17.682 200.292"><title>2023-10-09 1.0km</title><desc>10003389142</desc></polyline><polyline fill="none" stroke="#4dd2ff" stroke-linecap="round" stroke-linejoin="round" stroke-width=".5" points="39.627 200.292 40.64 201.547 41.652 203.902 42.231 208.611 44.401 213.321 46.282 218.658 47.15 220.228 47.873 220.542 47.873 219.286 45.124 214.891 41.508 206.1 40.061 200.449"><title>2023-10-08 1.0km</title><desc>9996447828</desc></polyline><polyline fill="none" stroke="#4dd2ff" stroke-linecap="round" stroke-linejoin="round" stroke-width=".5" points="63.651 204.342 64.317 206.801 66.317 212.152 66.983 214.467 69.116 219.818 69.782 220.542 69.916 219.963 69.916 219.385 67.383 214.901 66.183 212.297 64.051 205.933 63.384 202.606 62.584 200.292"><title>2023-10-07 1.0km</title><desc>9989974159</desc></polyline><polyline fill="none" stroke="#4dd2ff" stroke-linecap="round" stroke-linejoin="round" stroke-width=".5" points="87.096 206.324 88.154 209.77 88.949 211.494 90.537 218.244 90.934 219.536 91.728 220.542 92.39 220.542 92.654 219.967 92.522 219.536 90.934 217.238 89.346 213.792 88.816 211.494 86.037 204.744 85.64 202.302 84.846 200.292"><title>2023-10-06 1.0km</title><desc>9984428862</desc></polyline><polyline fill="none" stroke="#4dd2ff" stroke-linecap="round" stroke-linejoin="round" stroke-width=".5" points="106.89 200.292 109.185 206.433 110.715 211.579 113.315 218.052 114.386 220.21 114.845 220.542 115.457 220.542 115.61 220.21 115.151 219.38 113.315 216.724 112.244 214.566 110.409 209.753 109.644 207.263 107.502 203.279 107.502 201.786"><title>2023-10-04 1.0km</title><desc>9971682885</desc></polyline><polyline fill="none" stroke="#4dd2ff" stroke-linecap="round" stroke-linejoin="round" stroke-width=".5" points="130.685 202.657 131.366 205.022 132.047 206.648 132.592 209.16 135.18 214.334 135.317 216.107 136.134 219.655 136.406 220.098 137.224 220.542 137.224 219.064 135.453 215.812 134.227 213.003 133.546 211.673 132.865 209.752 131.502 206.943 130.958 204.726 130.685 202.509 130.276 200.292"><title>2023-10-03 1.0km</title><desc>9965060084</desc></polyline><polyline fill="none" stroke="#4dd2ff" stroke-linecap="round" stroke-linejoin="round" stroke-width=".5" points="152.548 201.128 154.399 207.153 154.708 209.831 155.787 211.17 156.558 213.178 157.947 218.366 159.026 220.04 159.797 220.542 159.952 220.374 159.489 219.035 157.792 215.856 155.016 209.162 153.32 204.141 153.011 200.292"><title>2023-10-02 1.0km</title><desc>9958643020</desc></polyline><polyline fill="none" stroke="#4dd2ff" stroke-linecap="round" stroke-linejoin="round" stroke-width=".5" points="175.54 203.856 175.839 205.314 179.123 213.09 180.765 218.112 181.661 219.894 182.557 220.542 182.706 220.38 182.557 219.732 179.571 215.196 176.735 208.23 175.391 204.018 174.794 200.292"><title>2023-10-01 1.0km</title><desc>9952075403</desc></polyline><polyline fill="none" stroke="#4dd2ff" stroke-linecap="round" stroke-linejoin="round" stroke-width=".5" points="18.343 227.393 19.56 229.888 20.101 232.382 20.506 234.73 22.535 240.453 24.293 244.121 25.104 244.708 25.375 244.268 22.67 240.159 21.453 237.371 21.047 235.904 19.154 231.795 18.072 227.246 17.125 224.458"><title>2023-09-30 1.0km</title><desc>9945549317</desc></polyline><polyline fill="none" stroke="#4dd2ff" stroke-linecap="round" stroke-linejoin="round" stroke-width=".5" points="40.615 224.458 41.958 226.726 42.406 228.508 43.601 231.424 44.198 235.798 44.646 237.094 46.437 241.468 46.885 244.222 47.184 244.546 47.632 244.708 47.781 244.384 45.094 239.524 43.302 235.312 42.705 232.882 40.615 228.022 39.719 225.106"><title>2023-09-28 1.0km</title><desc>9933629332</desc></polyline><polyline fill="none" stroke="#4dd2ff" stroke-linecap="round" stroke-linejoin="round" stroke-width=".5" points="62.291 226.759 63.422 230.748 65.543 233.663 66.957 238.879 68.936 242.407 69.502 244.402 70.067 244.708 70.35 244.248 70.067 243.634 68.936 242.1 65.684 235.504 63.988 230.902 62.15 224.458"><title>2023-09-27 1.0km</title><desc>9927137811</desc></polyline><polyline fill="none" stroke="#4dd2ff" stroke-linecap="round" stroke-linejoin="round" stroke-width=".5" points="90.432 224.458 90.028 226.405 89.625 227.525 89.311 228.888 87.472 232.734 86.529 234.34 86.35 235.022 86.44 235.557 86.664 236.336 87.337 237.991 87.561 238.429 87.83 239.208 88.728 240.327 89.131 241.204 89.58 241.885 89.939 242.859 90.477 243.589 91.15 244.708"><title>2023-09-26 1.0km</title><desc>9920397094</desc></polyline><polyline fill="none" stroke="#4dd2ff" stroke-linecap="round" stroke-linejoin="round" stroke-width=".5" points="111.155 224.458 110.273 227.4 109.39 228.974 108.571 230 108.129 230.821 107.94 231.642 108.003 232.668 108.318 233.489 109.075 234.652 109.39 235.815 110.021 237.32 111.218 238.825 113.236 242.93 114.56 244.708"><title>2023-09-25 1.0km</title><desc>9914573673</desc></polyline><polyline fill="none" stroke="#4dd2ff" stroke-linecap="round" stroke-linejoin="round" stroke-width=".5" points="135.243 224.458 134.745 225.214 134.646 225.592 134.745 226.078 134.795 226.564 133.8 228.4 133.551 229.642 133.203 230.56 131.112 234.232 131.063 234.664 131.262 235.528 131.809 236.392 132.108 237.148 132.556 237.904 132.804 238.66 133.451 239.686 133.949 240.712 134.496 241.306 134.646 241.846 134.994 242.278 135.741 243.574 136.288 244.168 136.437 244.708"><title>2023-09-24 1.0km</title><desc>9907510217</desc></polyline><polyline fill="none" stroke="#4dd2ff" stroke-linecap="round" stroke-linejoin="round" stroke-width=".5" points="157.005 224.458 156.582 225.114 156.28 225.769 156.099 226.621 156.039 227.735 155.012 229.111 154.408 230.684 153.864 231.471 153.502 232.519 153.442 233.633 154.71 236.844 155.193 237.827 156.763 240.318 157.428 241.956 158.273 243.004 158.756 243.856 159.058 244.708"><title>2023-09-23 1.0km</title><desc>9901004991</desc></polyline><polyline fill="none" stroke="#4dd2ff" stroke-linecap="round" stroke-linejoin="round" stroke-width=".5" points="179.528 224.458 179.124 225.208 178.721 226.521 177.8 228.458 176.878 229.771 176.072 231.958 176.014 233.146 176.129 233.833 177.281 236.583 177.454 237.396 177.684 237.833 178.491 238.833 179.124 240.083 179.643 241.396 180.507 242.646 181.486 244.708"><title>2023-09-22 1.0km</title><desc>9895405405</desc></polyline><polyline fill="none" stroke="#4dd2ff" stroke-linecap="round" stroke-linejoin="round" stroke-width=".5" points="22.323 248.625 22.158 249.222 21.828 249.581 21.112 250.895 20.837 251.851 20.011 253.941 19.131 255.733 18.58 257.048 18.415 257.705 18.415 258.123 18.58 258.72 18.91 259.318 19.626 261.169 20.342 262.483 20.727 263.439 21.443 264.634 21.883 265.171 22.213 266.127 23.094 267.68 24.085 268.875"><title>2023-09-21 1.0km</title><desc>9889267953</desc></polyline><polyline fill="none" stroke="#4dd2ff" stroke-linecap="round" stroke-linejoin="round" stroke-width=".5" points="45.812 248.625 45.089 250.793 44.664 252.5 43.984 253.93 43.176 256.328 41.773 258.958 41.391 260.388 41.433 260.711 41.688 261.402 42.241 262.602 42.581 263.617 43.431 264.816 43.941 265.784 44.239 266.476 44.579 267.076 45.132 267.491 45.812 268.506 45.854 268.69 46.109 268.875"><title>2023-09-20 1.0km</title><desc>9882714971</desc></polyline><polyline fill="none" stroke="#4dd2ff" stroke-linecap="round" stroke-linejoin="round" stroke-width=".5" points="67.929 248.625 67.497 249.718 66.682 252.113 66.634 252.894 66.346 253.31 66.01 254.091 65.818 254.82 65.434 255.809 64.331 257.579 64.043 258.62 63.947 259.557 64.043 260.494 64.331 261.535 64.667 262.264 65.722 264.086 66.25 264.815 66.73 266.116 67.209 266.949 67.689 267.626 68.217 268.146 68.553 268.875"><title>2023-09-19 1.0km</title><desc>9876194288</desc></polyline><polyline fill="none" stroke="#4dd2ff" stroke-linecap="round" stroke-linejoin="round" stroke-width=".5" points="88.601 248.625 88.243 249.207 87.647 250.372 87.468 251.148 86.395 253.024 85.56 254.771 85.381 255.418 85.441 256.13 85.799 257.036 86.335 258.006 86.812 259.365 87.468 260.788 88.184 262.082 88.839 262.923 89.615 264.217 90.091 265.705 90.926 266.999 91.344 268.163 92.119 268.875"><title>2023-09-18 1.0km</title><desc>9870505463</desc></polyline><polyline fill="none" stroke="#4dd2ff" stroke-linecap="round" stroke-linejoin="round" stroke-width=".5" points="111.453 248.625 111.163 249.193 110.756 251.085 110.233 251.968 110 252.662 108.721 254.744 108.256 255.88 107.965 256.889 108.198 257.583 109.477 260.359 110.116 261.368 110.581 262.44 111.337 263.45 111.744 264.144 112.267 265.784 114.535 268.875"><title>2023-09-16 1.0km</title><desc>9856514700</desc></polyline><polyline fill="none" stroke="#4dd2ff" stroke-linecap="round" stroke-linejoin="round" stroke-width=".5" points="133.47 248.625 132.848 250.515 132.039 251.798 130.36 255.038 130.298 255.78 130.36 256.658 130.733 257.535 131.355 258.48 131.915 259.763 132.91 261.45 134.154 263.813 134.279 264.69 134.714 265.028 135.212 265.703 136.021 267.053 136.891 267.795 137.078 268.268 137.202 268.875"><title>2023-09-15 1.0km</title><desc>9850671982</desc></polyline><polyline fill="none" stroke="#4dd2ff" stroke-linecap="round" stroke-linejoin="round" stroke-width=".5" points="156.765 248.625 155.735 251.348 154.577 253.024 154.062 253.932 153.29 255.887 153.097 256.585 153.097 257.144 153.29 257.842 154.062 259.937 154.77 261.334 156.507 264.336 157.215 265.663 157.344 266.431 157.859 266.92 158.695 268.247 159.403 268.875"><title>2023-09-14 1.0km</title><desc>9844236351</desc></polyline><polyline fill="none" stroke="#4dd2ff" stroke-linecap="round" stroke-linejoin="round" stroke-width=".5" points="175.532 248.625 175.902 248.926 176.041 249.228 176.134 249.881 176.411 250.434 176.597 251.992 176.597 252.745 176.504 253.147 176.597 253.65 176.828 254.253 176.736 254.755 176.782 255.007 177.245 255.861 177.662 257.117 178.032 257.82 178.495 258.474 179.005 258.926 179.144 259.227 179.283 259.881 179.653 260.534 180.07 261.74 180.625 262.795 180.903 263.699 181.042 264.453 181.32 265.056 181.829 266.714 182.524 268.021 182.57 268.222 182.524 268.373 181.968 268.875 182.246 268.674 182.385 268.373 182.478 268.121 182.431 267.77 182.154 267.418 181.32 265.609 180.903 264.252 180.023 262.293 179.607 260.383 179.375 259.83 178.495 258.675 177.615 257.017 177.199 255.66 177.06 254.755 176.689 253.801 175.948 252.193 175.763 251.439 175.115 250.233 174.976 249.58 174.93 248.776"><title>2023-09-13 1.0km</title><desc>9837636972</desc></polyline></svg>