<?xml version="1.0" encoding="utf-8" ?>
<svg baseProfile="full" height="300mm" version="1.1" viewBox="0,0,200,300" width="200mm" xmlns="http://www.w3.org/2000/svg" xmlns:ev="http://www.w3.org/2001/xml-events" xmlns:xlink="http://www.w3.org/1999/xlink"><defs /><rect fill="#222222" height="300" width="200" x="0" y="0" /><text fill="#FFFFFF" style="font-size:12px; font-family:Arial; font-weight:bold;" x="10" y="20">Over 1km Runs</text><text fill="#FFFFFF" style="font-size:4px; font-family:Arial" x="10" y="280">ATHLETE</text><text fill="#FFFFFF" style="font-size:9px; font-family:Arial" x="10" y="290">Jiakai</text><text fill="#FFFFFF" style="font-size:4px; font-family:Arial" x="120" y="280">STATISTICS</text><text fill="#FFFFFF" style="font-size:3px; font-family:Arial" x="120" y="285">Number: 109</text><text fill="#FFFFFF" style="font-size:3px; font-family:Arial" x="120" y="290">Weekly: 5.2</text><text fill="#FFFFFF" style="font-size:3px; font-family:Arial" x="141" y="285">Total: 112.6 km</text><text fill="#FFFFFF" style="font-size:3px; font-family:Arial" x="141" y="290">Avg: 1.0 km</text><text fill="#FFFFFF" style="font-size:3px; font-family:Arial" x="167" y="285">Min: 1.0 km</text><text fill="#FFFFFF" style="font-size:3px; font-family:Arial" x="167" y="290">Max: 1.5 km</text><polyline fill="none" points="10.923076923005283,32.90635932527948 11.097060007974505,33.944699974614196 11.35803463542834,34.69985628302675 12.401933145243675,36.30456196377054 12.575916230212897,36.776533841271885 12.575916230212897,37.437294178060256 13.793797824997455,39.60836146213114 14.22875553695485,42.06260701478459 14.924687877297401,44.13927266432438 15.272654047235847,44.89442297711503 15.707611759658903,45.271997966687195 17.273459524381906,45.55517913622316 18.92629883158952,45.366391696734354 21.884011276531965,44.5168478761334 24.92871526349336,43.289728031726554 25.798630688805133,42.912152459146455 27.364478453062475,41.8738190617878 27.53846153849736,41.30745503655635" stroke="#4dd2ff" stroke-linecap="round" stroke-linejoin="round" stroke-width="0.5"><title>2024-03-12 1.0km</title><desc>10939588558</desc></polyline><polyline fill="none" points="41.388740974478424,31.484410436241888 40.561092952732,31.259877055650577 39.21616491721943,31.14761035318952 37.76778087904677,31.596677114022896 36.42285284399986,32.3825436278712 35.90557283023372,33.05614317476284 35.49174881912768,33.72974242444616 35.28483681380749,35.41373924841173 35.28483681380749,37.32226673618425 35.18138081114739,41.58837837446481 35.38829281646758,44.50728999450803 35.69866082444787,45.742212461074814 37.0435888604261,46.97713392879814 38.80234090657905,47.53846153849736 40.76800495805219,47.20166499749757 42.112932993564755,46.52807169267908 43.04403701797128,45.62994682381395 43.66477303439751,43.833695500623435 43.66477303439751,38.781727322610095 43.45786102861166,36.1996037971694 43.66477303439751,34.627874295110814 43.354405025951564,33.392942836973816 42.73366900999099,32.27027700794861 41.595652979798615,31.484410436241888 39.42307692300528,30.923076923121698 37.97469288483262,31.37214374996256 36.62976484885439,32.27027700794861 35.90557283023372,33.28067629085854 35.28483681380749,34.627874295110814" stroke="#4dd2ff" stroke-linecap="round" stroke-linejoin="round" stroke-width="0.5"><title>2024-03-11 1.0km</title><desc>10935364964</desc></polyline><polyline fill="none" points="51.48635235708207,34.28725915728137 51.30769230751321,34.965782517101616 51.48635235708207,36.12896460772026 52.6476426795125,39.61850472167134 52.91563275363296,40.297025338048115 53.36228287825361,40.878614159883 53.987593051977456,42.526447761803865 54.791563275270164,43.30189815629274 55.41687344899401,43.68962318217382 57.918114143423736,44.17427930433769 58.99007444130257,43.980416877078824 60.598014887887985,43.980416877078824 62.92059553321451,43.30189815629274 65.86848635179922,42.04179103393108 66.67245657555759,41.460202725138515 67.74441687343642,40.97554560541175 67.92307692253962,40.68475124798715 67.56575682386756,38.74612055916805" stroke="#4dd2ff" stroke-linecap="round" stroke-linejoin="round" stroke-width="0.5"><title>2024-03-08 1.0km</title><desc>10912839308</desc></polyline><polyline fill="none" points="71.5,33.44242229696829 72.37449392769486,35.15046562696807 75.78502024291083,44.25999187922571 76.30971659952775,44.829335135174915 77.97125506075099,45.01911616465077 80.68218623520806,44.544663538457826 83.30566801642999,43.78553897375241 87.1534412954934,41.98261634353548 87.85303643764928,41.223490271833725 88.11538461549208,40.36947290797252 88.02793522272259,39.98990945343394" stroke="#4dd2ff" stroke-linecap="round" stroke-linejoin="round" stroke-width="0.5"><title>2024-03-07 1.0km</title><desc>10906173208</desc></polyline><polyline fill="none" points="91.69230769248679,33.34955981897656 91.95886466512457,36.24196767201647 92.66968325804919,38.45947603916284 95.15754833444953,44.0514370102901 95.4241053070873,44.53350149502512 96.13492390001193,44.91915295494255 97.11229946557432,45.11197864252608 97.82311805849895,45.11197864252608 98.71164130046964,44.82274010044057 99.95557383820415,44.72632723907009 102.08802961790934,44.34067572222557 106.17523652827367,42.70165551069658 107.68572603864595,41.83393809874542 108.30769230797887,41.255459505249746 108.30769230797887,40.77339381549973" stroke="#4dd2ff" stroke-linecap="round" stroke-linejoin="round" stroke-width="0.5"><title>2024-03-06 1.0km</title><desc>10898894581</desc></polyline><polyline fill="none" points="111.88461538450792,33.37833107449114 111.97160692699254,33.66151482553687 112.31957309646532,34.79424920468591 113.1894885217771,39.136388401617296 113.71143777668476,40.080329762073234 114.58135320153087,42.534574051736854 115.71224325383082,44.0448758979328 116.06020942376927,44.70563239743933 116.6691502216272,44.988813649863005 117.97402335843071,45.0832073870115 121.714659685269,44.80002615530975 123.5414820779115,44.0448758979328 124.41139750275761,43.57290676177945 126.93415223481134,42.72336187947076 127.54309303266928,42.06260436028242 128.1520338295959,41.87381643522531 128.5,41.4018465008121 128.06504228757694,40.080329762073234" stroke="#4dd2ff" stroke-linecap="round" stroke-linejoin="round" stroke-width="0.5"><title>2024-03-05 1.0km</title><desc>10891326638</desc></polyline><polyline fill="none" points="144.99326221249066,46.04112222621916 147.60078607546166,44.85672123823315 148.57102751289494,44.00131955003599 148.6923076924868,43.4749181047664 148.2678270637989,42.15891313715838 147.78270634496585,40.908706625632476 146.81246490753256,39.52689739695052 146.32734418893233,39.066293846582994 144.8719820328988,36.69747184345033 143.2346996073611,34.52604616608005 143.35597978672013,33.93383824866032 143.2346996073611,33.67063460423378 142.446378439432,32.42041623534169 139.77821448654868,32.61781925178366 138.8686131387949,32.94682418246521 137.2919708029367,33.1442270828411 135.59404828748666,33.86803734488785 134.441886580782,34.65764787211083 133.35036496352404,34.920851226488594 132.80460415501148,35.315656112739816 132.3801235263236,35.381456910283305 132.1982032568194,35.57885927357711 132.07692307699472,35.973663869546726 132.2588433464989,36.302667566691525 132.31948343641125,37.02647527423687 132.62268388550729,38.013484841329046 132.50140370591544,39.197894885146525 132.86524424492382,40.05330116424011 132.80460415501148,41.23770850850269" stroke="#4dd2ff" stroke-linecap="round" stroke-linejoin="round" stroke-width="0.5"><title>2024-03-04 1.0km</title><desc>10884866628</desc></polyline><polyline fill="none" points="152.26923076901585,33.11202102655079 152.4414109205827,34.419850694946945 152.8718612990342,35.82109527476132 152.8718612990342,36.38159267359879 153.30231167795137,37.50258673017379 153.73276205686852,39.18407596054021 154.85193304065615,41.89313726266846 156.48764447961003,44.41536155878566 157.4346353127621,45.16268631455023 158.46771622169763,45.34951743495185 160.9643284175545,45.06927074410487 164.40793144656345,44.32194593350869 165.44101235549897,43.574620682979 166.90454364242032,42.92071072838735 168.88461538450792,41.706305634230375" stroke="#4dd2ff" stroke-linecap="round" stroke-linejoin="round" stroke-width="0.5"><title>2024-03-03 1.0km</title><desc>10877188327</desc></polyline><polyline fill="none" points="172.46153846150264,44.675859465496615 173.79969024285674,45.885873630759306 174.91481672693044,46.369879047968425 175.47237996943295,46.369879047968425 177.81414558598772,46.127876357058994 182.49767682002857,44.917862369911745 186.95818275678903,43.10283972113393 188.85389777971432,41.6508201607503 189.07692307699472,41.40881677623838 188.85389777971432,40.077797525096685 188.18482188973576,38.38377146690618 184.50490449136123,32.09165941353422" stroke="#4dd2ff" stroke-linecap="round" stroke-linejoin="round" stroke-width="0.5"><title>2024-03-02 1.0km</title><desc>10870189784</desc></polyline><polyline fill="none" points="19.181691064033657,49.38461538462434 19.67247273074463,50.556219262303784 19.868785397615284,51.30178487312514 19.96694173105061,53.00593339977786 23.107944399584085,60.46155963442288 23.79503873316571,62.485222992138006 23.79503873316571,62.80474852712359 23.304257065989077,63.23078246379737 21.733755732420832,64.0828499617055 19.476160064339638,64.61539189366158 16.924095396418124,65.68047516990919 15.54990672878921,66.0 15.157281395513564,65.78698345448356 14.66649972833693,63.86983313411474" stroke="#4dd2ff" stroke-linecap="round" stroke-linejoin="round" stroke-width="0.5"><title>2024-01-19 1.0km</title><desc>10585384707</desc></polyline><polyline fill="none" points="36.4248518422246,51.47607200918719 36.53193130996078,53.21895041537937 36.74609024403617,54.03229301376268 38.780600119847804,57.63423377589788 39.74431532435119,59.84187083039433 40.27971266023815,61.70093122124672 41.243427864741534,63.55998942570295 41.35050733201206,65.30285450606607 41.992984135169536,65.88380910595879 42.314222536981106,66.0 42.74254040513188,65.88380910595879 42.635460938327014,65.41904544318095 41.992984135169536,64.37332670227624 38.88767958711833,57.28565922228154 36.96024917811155,53.3351422410924 36.10361344087869,49.38461538462434" stroke="#4dd2ff" stroke-linecap="round" stroke-linejoin="round" stroke-width="0.5"><title>2024-01-17 1.0km</title><desc>10572816563</desc></polyline><polyline fill="none" points="56.505059459712356,49.384615384507924 57.462082584854215,53.14905216090847 59.49575672484934,59.7692490919726 60.93129141163081,62.49520531948656 61.7686866465956,65.09135019488167 62.3668260993436,65.87019291333854 62.725709770806134,66.0 62.725709770806134,65.48077159712557 60.21352406870574,60.15867166768294 57.940594146959484,54.317324011353776 56.505059459712356,51.461547012324445" stroke="#4dd2ff" stroke-linecap="round" stroke-linejoin="round" stroke-width="0.5"><title>2024-01-16 1.0km</title><desc>10566280205</desc></polyline><polyline fill="none" points="76.4689054787159,49.75940028729383 78.19586418289691,53.38231675059069 79.57743114652112,58.129574907477945 81.18925927113742,61.377691267756745 82.57082623522729,65.37536441918928 82.9162179757841,66.0 83.14647913631052,66.0 79.69256172748283,58.879140772507526 78.88664766494185,56.380586603307165 78.31099476339296,54.131884709815495 77.50508070131764,52.507820380385965 76.69916663924232,49.384615384507924" stroke="#4dd2ff" stroke-linecap="round" stroke-linejoin="round" stroke-width="0.5"><title>2024-01-09 1.0km</title><desc>10520988068</desc></polyline><polyline fill="none" points="97.00660425145179,50.75882628990803 97.58225728012621,53.13246069091838 98.7335633370094,55.63101963629015 100.80591423949227,62.002328317961656 102.41774271987379,65.6252186796628 102.76313453679904,66.0 102.99339574854821,65.75014579552226 102.64800393162295,64.37594701361377 102.07235090294853,63.50145630061161 100.34539181739092,59.00406838476192 98.7335633370094,55.63101963629015 97.35199606884271,49.38461538462434" stroke="#4dd2ff" stroke-linecap="round" stroke-linejoin="round" stroke-width="0.5"><title>2024-01-07 1.0km</title><desc>10508221625</desc></polyline><polyline fill="none" points="118.88792085787281,54.30770949937869 119.11477074259892,55.53848076623399 120.13559522107244,58.12309748097323 121.04299475811422,61.20001693838276 122.85779383126646,65.63077102228999 123.31149359978735,66.0 123.31149359978735,65.13846559205558 122.29066912084818,63.41539544647094 121.72354441089556,61.569246893166564 119.4550455682911,56.76925112796016 118.66107097407803,54.676940974546596 118.09394626365975,53.69232352694962 117.07312178472057,49.38461538462434" stroke="#4dd2ff" stroke-linecap="round" stroke-linejoin="round" stroke-width="0.5"><title>2024-01-06 1.0km</title><desc>10501510624</desc></polyline><polyline fill="none" points="138.18948614643887,52.405607398599386 139.046121946536,54.49706002511084 139.68859879672527,57.16946768714115 140.7593935476616,60.65521002060268 141.93726777285337,63.211416178848594 142.6868240982294,65.07047260622494 143.1151419985108,65.7676182029536 143.5434598987922,66.0 143.43638042360544,65.18666356045287 142.90098304860294,63.90856259537395 139.3673603720963,57.16946768714115 138.72488352190703,55.194210285670124 138.5107245715335,53.33514224074315 137.76116824615747,51.3598800470354 137.2257708706893,49.38461538462434" stroke="#4dd2ff" stroke-linecap="round" stroke-linejoin="round" stroke-width="0.5"><title>2024-01-05 1.0km</title><desc>10495609202</desc></polyline><polyline fill="none" points="157.07525719888508,49.38461538462434 157.7874604286626,51.05904112930875 158.38096312014386,52.86226706416346 159.2118668872863,54.536689484957606 160.75497388467193,58.915940557722934 162.65418249648064,63.29518068418838 163.3663857257925,65.61359749606345 163.8411878789775,66.0 164.07858895557,65.35599577939138 163.9598884168081,64.45438947353978 161.11107549956068,58.6583378566429 160.16147119365633,55.30949929333292 159.2118668872863,49.89982347667683" stroke="#4dd2ff" stroke-linecap="round" stroke-linejoin="round" stroke-width="0.5"><title>2024-01-04 1.0km</title><desc>10489071805</desc></polyline><polyline fill="none" points="178.46111685223877,52.43892648955807 179.92479884810746,56.470608552219346 181.72625361196697,60.50228083343245 182.62698099389672,63.92308600770775 183.4151174533181,66.0 183.52770837629214,66.0 183.52770837629214,65.14480043493677 182.9647537623532,63.06788537430111 181.83884453494102,60.50228083343245 180.93811715301126,57.936672331765294 179.47443515714258,55.00454347941559 178.57370777567849,52.31675415311474 178.01075316173956,50.6063405002933 178.34852592973039,49.38461538462434" stroke="#4dd2ff" stroke-linecap="round" stroke-linejoin="round" stroke-width="0.5"><title>2024-01-03 1.0km</title><desc>10482519748</desc></polyline><polyline fill="none" points="15.87723180372268,68.12078950391151 18.787849193438888,76.63447486655787 21.825015164446086,83.91227191116195 22.457758075091988,84.46153846150264 22.584306657779962,83.91227191116195 22.204660911113024,82.95105505839456 19.040946357883513,76.90910923201591 17.90200911834836,73.88812898972537 16.256877550389618,67.84615384612698" stroke="#4dd2ff" stroke-linecap="round" stroke-linejoin="round" stroke-width="0.5"><title>2024-01-01 1.0km</title><desc>10470902913</desc></polyline><polyline fill="none" points="46.4539045561105,71.91524423821829 46.245583737734705,72.25433461787179 44.058215140365064,73.83675540063996 43.12077145650983,74.85402504354715 42.49580899998546,75.98432385700289 42.0791673627682,76.54947295191232 41.76668613450602,76.66250274586491 40.41260081296787,76.66250274586491 39.162675900384784,77.11462183913682 37.496109350118786,77.00159207812976 36.66282607475296,76.66250274586491 36.142024028114974,75.87129401299171 35.82954279985279,75.19311477488372 35.72538239089772,73.61069538851734 35.412901162169874,72.93251515296288 34.16297625005245,72.93251515296288 33.12137215631083,73.27160530828405 33.0172117468901,73.38463534333277 33.43385338410735,73.61069538851734 33.64217420294881,73.38463534333277 32.91305133746937,73.38463534333277 32.70473051862791,73.15857526473701 32.496409699786454,72.36736472777557 32.392249290365726,71.0110028599156 32.91305133746937,71.12403306132182 33.329692975617945,72.02827437326778 34.26713665947318,73.04554521292448 34.99625952541828,73.04554521292448 35.62122198147699,72.59342492290307 36.142024028114974,72.70645500766113 36.2461844375357,72.48039482941385 35.308740753214806,69.76767009624746 35.10041993437335,69.65463979495689 33.954655431210995,69.54160948563367 32.80889092804864,69.65463979495689 33.53801379399374,69.65463979495689 32.496409699786454,68.52433632640168 32.392249290365726,67.84615384612698 32.70473051862791,68.29827553301584 33.0172117468901,69.76767009624746 33.329692975617945,70.4458517282037 33.64217420294881,71.91524423821829 33.0172117468901,75.75826416048221 33.74633461236954,79.2621857150225 34.37129706889391,80.27945176686626 34.47545747831464,81.9748936900869 35.412901162169874,84.46153846150264" stroke="#4dd2ff" stroke-linecap="round" stroke-linejoin="round" stroke-width="0.5"><title>2023-12-31 1.5km</title><desc>10466792666</desc></polyline><polyline fill="none" points="57.41216712584719,71.79082887328696 58.62393674487248,76.09409980627242 60.276349862571806,79.56061533093452 61.70844123093411,83.62479653395712 62.149084728676826,84.46153846150264 62.36940647801384,84.46153846150264 62.47956735175103,83.50526193762198 62.03892385447398,82.19038079865277 60.05602811323479,78.12619601015467 60.05602811323479,77.05038068909198 58.62393674487248,73.94246576365549 58.403614996466786,71.55175793205854 57.96297149825841,70.11733154568356 56.75120187876746,67.84615384612698" stroke="#4dd2ff" stroke-linecap="round" stroke-linejoin="round" stroke-width="0.5"><title>2023-12-30 1.0km</title><desc>10458865202</desc></polyline><polyline fill="none" points="80.71116519253701,67.84615384612698 78.6189121962525,68.05255734641105 77.19237606180832,68.98137272137683 76.14624956343323,70.01338908378966 75.67073751892895,71.25180771679152 75.29032788285986,76.10227017232683 75.76583992736414,80.95271586126182 75.95604474563152,81.67512123147026 76.24135197186843,82.29432553832885 77.76299051567912,83.94553568819538 79.47483387636021,84.46153846150264 80.80626760143787,84.25513737474103 82.42300855368376,83.22313148668036 83.37403264269233,82.39752622984815 84.32505673216656,79.61110490118153 84.2299543232657,77.44388448703103 83.94464709656313,75.58626432495657 83.75444227876142,71.0454046871746 83.46913505205885,69.91018748190254 82.89852059818804,69.18777605460491 82.23280373541638,68.67176766472403 80.71116519253701,68.36216253961902 78.6189121962525,68.46536425559316 77.0972736524418,69.29097770992666 76.33645438123494,70.21979226521216 75.76583992736414,71.66461368498858 75.76583992736414,72.38702383695636 76.05114715453237,74.14144694327842 75.86094233673066,75.58626432495657" stroke="#4dd2ff" stroke-linecap="round" stroke-linejoin="round" stroke-width="0.5"><title>2023-12-29 1.0km</title><desc>10454615358</desc></polyline><polyline fill="none" points="97.6799442814663,69.60839925217442 99.30398328462616,75.39862138708122 101.85604457510635,83.2028028476052 102.66806407691911,84.46153846150264 102.78406686289236,84.46153846150264 102.78406686289236,83.2028028476052 101.04402507375926,77.91610316408332 99.65199164254591,74.51750189065933 98.72396935522556,72.75526153750252 97.21593313710764,67.84615384612698" stroke="#4dd2ff" stroke-linecap="round" stroke-linejoin="round" stroke-width="0.5"><title>2023-12-27 1.0km</title><desc>10441997651</desc></polyline><polyline fill="none" points="117.0602329322137,69.9860230316408 118.91627723444253,73.63638194079977 119.84429938578978,77.4126071050996 121.12032984336838,79.80421206797473 122.62836583936587,83.70629720424768 123.092376914341,84.46153846150264 123.32438245275989,84.33566494192928 122.51236307015643,81.94406630832236 121.35233538178727,80.18183359899558 117.64024677686393,71.37064284447115 117.4082412389107,68.97902610118035 117.0602329322137,67.84615384612698" stroke="#4dd2ff" stroke-linecap="round" stroke-linejoin="round" stroke-width="0.5"><title>2023-12-17 1.0km</title><desc>10391591057</desc></polyline><polyline fill="none" points="137.68877638923004,70.77141019783448 138.98277910752222,74.16470082930755 141.13945030374452,78.37705154856667 143.08045438025147,83.99350183247589 143.51178861921653,84.46153846150264 143.61962217930704,84.34452931699343 143.61962217930704,83.87649265362415 143.08045438025147,82.3553725470556 140.16894826525822,76.62190677039325 138.8749455474317,73.11161140725017 137.9044435089454,69.13326730311383 137.14960859017447,67.84615384612698" stroke="#4dd2ff" stroke-linecap="round" stroke-linejoin="round" stroke-width="0.5"><title>2023-12-16 1.0km</title><desc>10386207035</desc></polyline><polyline fill="none" points="158.33187775081024,70.9693588425871 158.79239986883476,73.09313496074174 160.40422728238627,77.96531720249914 161.325271518901,79.46444738970604 162.59170734370127,83.58704858447891 162.93709893198684,84.46153846150264 163.16735999146476,84.46153846150264 163.16735999146476,83.21226707135793 161.4404020481743,77.96531720249914 159.02266092784703,74.21748594858218 158.9075303990394,72.71835113270208 158.21674722153693,70.9693588425871 158.4470082805492,69.84500570502132 157.98648616252467,67.84615384612698" stroke="#4dd2ff" stroke-linecap="round" stroke-linejoin="round" stroke-width="0.5"><title>2023-12-14 1.0km</title><desc>10376526598</desc></polyline><polyline fill="none" points="184.33557057986036,69.29097771004308 183.4796490254812,68.5685659640003 182.05311310105026,67.94935560028534 180.72167957155034,67.84615384612698 179.39024604251608,68.15575908508617 177.6784029332921,69.08457439194899 176.91758377337828,70.11659067857545 176.34696940379217,71.87101662368514 176.34696940379217,75.7926666866988 176.5371741936542,77.03108021931257 176.91758377337828,78.57909559761174 176.63227658858523,80.43671179783996 176.72737898351625,81.15911743382458 176.82248137844726,81.57192048721481 177.7735053282231,83.2231314870296 179.2951436471194,84.35833792225458 179.7706556217745,84.46153846150264 180.72167957155034,84.46153846150264 181.67270352086052,84.46153846150264 183.38454663008451,83.84233511076309 184.33557057986036,82.91352957254276 184.90618494944647,81.88152269774582 185.09638973977417,79.61110490129795 185.1914921347052,78.06309066142421 184.90618494944647,76.20547131914645 185.09638973977417,73.72864170384128 185.0012873443775,71.56141220440622 184.90618494944647,70.83900162752252 184.24046818492934,69.39417935756501 183.9551610001363,69.08457439194899 182.90903465589508,68.36216253973544 180.81678196648136,68.15575908508617 179.4853484374471,68.36216253973544 178.7245292775333,68.67176766472403 177.29799335356802,70.21979226532858 176.72737898351625,72.38702383683994 176.91758377337828,73.83184302516747" stroke="#4dd2ff" stroke-linecap="round" stroke-linejoin="round" stroke-width="0.5"><title>2023-12-13 1.0km</title><desc>10373769329</desc></polyline><polyline fill="none" points="17.23102132929489,88.6636150109116 18.373734415974468,93.37545054464135 19.516447502654046,95.85535869607702 21.8018736760132,102.30310282495338 22.2589589105919,102.9230769231217 22.48750152811408,102.9230769231217 22.60177283640951,102.42709766270127 22.14468760183081,101.68312849919312 20.316346663050354,98.58325345080812 17.68810656387359,93.25145504111424 17.34529263759032,91.639512668713 16.08830824214965,88.91160668281373 15.859765625093132,86.30769230774604" stroke="#4dd2ff" stroke-linecap="round" stroke-linejoin="round" stroke-width="0.5"><title>2023-12-12 1.0km</title><desc>10365882163</desc></polyline><polyline fill="none" points="36.188071080017835,86.30769230774604 37.374239888973534,88.88191818085033 38.99174281070009,92.9772689435631 40.17791161965579,95.20045494439546 41.903248069342226,100.58289240172599 42.11891512572765,101.98700352758169 42.55024923803285,102.9230769231217 42.65808276599273,102.10401273192838 42.442415710072964,101.16793885477819 40.17791161965579,96.01952268823516 38.56040869792923,92.86025906808209 38.1290745860897,91.57314986921847 37.80557400174439,88.88191818085033 36.942905777134,86.4247026653029" stroke="#4dd2ff" stroke-linecap="round" stroke-linejoin="round" stroke-width="0.5"><title>2023-12-11 1.0km</title><desc>10361067591</desc></polyline><polyline fill="none" points="59.948261979501694,95.5786161061842 62.167444405611604,102.32107317761984 62.2784035266377,102.6822754512541 62.72224001213908,102.9230769231217 62.83319913316518,102.8026761917863 62.50032176962122,101.95987082354259 61.50168967759237,100.03345692518633 60.39209846453741,97.02343067235779 57.28524306882173,90.76255834568292 56.39757009781897,86.30769230774604" stroke="#4dd2ff" stroke-linecap="round" stroke-linejoin="round" stroke-width="0.5"><title>2023-12-10 1.0km</title><desc>10355395415</desc></polyline><polyline fill="none" points="76.88032917724922,87.40724495204631 78.79437430109829,90.46155403624289 79.69510141806677,94.24888950388413 81.60914654191583,99.62444760592189 82.28469187952578,102.55656287772581 82.73505543870851,102.9230769231217 82.84764632815495,102.80090558365919 82.84764632815495,102.55656287772581 82.62246454879642,101.57919169543311 80.25805586623028,96.81449894898105 79.69510141806677,95.4706087813247 79.35732874879614,93.39368547534104 78.79437430109829,91.8054482548032 77.8936471841298,90.21720951597672 77.7810562942177,88.50679686910007 76.76773828733712,86.30769230774604" stroke="#4dd2ff" stroke-linecap="round" stroke-linejoin="round" stroke-width="0.5"><title>2023-12-09 1.0km</title><desc>10350143310</desc></polyline><polyline fill="none" points="98.22879419475794,89.53158570383675 98.91442224849015,92.01149950677063 100.39994969777763,95.60736804490443 102.45683385897428,101.55913360638078 103.3710045972839,102.9230769231217 103.2567332549952,101.68312849930953 102.57110520126298,99.57521408656612 100.74276372464374,96.35133988875896 99.60005030222237,93.6234415237559 98.34306553704664,91.63951266906224 98.00025151018053,89.65558148047421 96.6289954027161,86.30769230774604" stroke="#4dd2ff" stroke-linecap="round" stroke-linejoin="round" stroke-width="0.5"><title>2023-12-08 1.0km</title><desc>10345303898</desc></polyline><polyline fill="none" points="117.51532180048525,86.30769230774604 117.72948067169636,86.88865275890566 118.15779841458425,88.3991489324253 118.37195728626102,90.49060278921388 118.80027502821758,92.23347888875287 120.29938712809235,95.95160814467818 121.26310204900801,99.3211552274879 122.22681697038934,101.4125946307322 122.44097584160045,102.9230769231217 122.65513471327722,102.80688602896407 122.86929358448833,102.57450421445537 122.86929358448833,102.22593142895494 122.33389640599489,100.83163951872848 120.62062543537468,97.92686075391248 118.58611615700647,92.00109552009962 118.0507189789787,89.56106808315963" stroke="#4dd2ff" stroke-linecap="round" stroke-linejoin="round" stroke-width="0.5"><title>2023-12-07 1.0km</title><desc>10340288256</desc></polyline><polyline fill="none" points="137.30011089937761,86.30769230774604 137.96107614645734,87.86165633960627 139.17284576548263,93.00168063363526 140.9354197573848,96.22912944376003 142.36751112574711,100.1737804004224 143.02847637282684,102.68400784488767 143.3589589963667,102.9230769231217 143.4691198701039,102.08633499557618 143.2487981216982,101.0105233124923 141.48622412979603,97.30494429008104 140.27445451030508,95.51191915071104 139.61348926322535,94.1970327916788 137.41027177404612,86.66629952378571" stroke="#4dd2ff" stroke-linecap="round" stroke-linejoin="round" stroke-width="0.5"><title>2023-12-06 1.0km</title><desc>10334845031</desc></polyline><polyline fill="none" points="159.04568714741617,89.17242642981 159.78490449301898,92.9538674086798 160.5241218386218,95.70400053996127 162.31936396332458,100.40213341417257 163.26978626521304,102.57931213919073 163.5865936987102,102.9230769231217 163.16418378753588,100.86048708274029 162.10815900750458,98.91248306049965 161.15773670608178,96.16235559037887 159.78490449301898,93.29763431544416 159.15128962509334,91.12044262513518 158.09526484599337,88.82865861337632 157.5672524557449,86.30769230774604" stroke="#4dd2ff" stroke-linecap="round" stroke-linejoin="round" stroke-width="0.5"><title>2023-12-05 1.0km</title><desc>10329306344</desc></polyline><polyline fill="none" points="177.7174668526277,87.70199703169055 178.46702290233225,88.86391669523437 179.4307378232479,92.23347888875287 181.3581676655449,96.99733042204753 182.32188258692622,100.25068419252057 183.17851807223633,102.10974048369098 183.82099468633533,102.9230769231217 183.82099468633533,102.3421223659534 181.03692935826257,95.95160814467818 179.966135002207,92.34967056068126 178.7882612091489,89.67725995159708 177.9316257238388,86.30769230774604" stroke="#4dd2ff" stroke-linecap="round" stroke-linejoin="round" stroke-width="0.5"><title>2023-12-04 1.0km</title><desc>10324662812</desc></polyline><polyline fill="none" points="16.344977696891874,106.30296523252036 17.522851792629808,110.77634968864731 19.40745034534484,114.99410163308494 20.703111850190908,119.4674637260614 21.645411126781255,121.25680533994455 22.352135583758354,121.38461538462434 22.352135583758354,120.87337514921091 21.527623717673123,119.4674637260614 20.467537031508982,116.400016673957 19.289662935771048,114.6106700609671 18.465151069220155,112.43788955477066 17.051702154334635,107.32545412285253 16.109402877744287,104.76923076924868" stroke="#4dd2ff" stroke-linecap="round" stroke-linejoin="round" stroke-width="0.5"><title>2023-12-02 1.0km</title><desc>10313350310</desc></polyline><polyline fill="none" points="36.40700581856072,105.65035369887482 37.56703316606581,107.16084909508936 38.95906598307192,111.94407572457567 39.88708786154166,115.84617176209576 41.39512341376394,120.12587977095973 42.323145291768014,121.38461538462434 42.439148026984185,120.62937412736937 42.207142557017505,119.11889061331749 40.93111247429624,116.34966737718787 38.95906598307192,113.20281735341996 37.79903863603249,110.8112074675737 36.63901128759608,104.76923076924868" stroke="#4dd2ff" stroke-linecap="round" stroke-linejoin="round" stroke-width="0.5"><title>2023-12-01 1.0km</title><desc>10308709030</desc></polyline><polyline fill="none" points="56.55291151627898,104.76923076924868 58.84976634057239,112.66155673877802 61.14662116440013,117.3692442009924 62.42265162244439,120.83077159244567 62.805460759904236,121.38461538462434 62.933063806034625,120.96923255571164 62.42265162244439,119.5846224646084 60.50860593514517,116.95386048662476 59.99819375295192,115.56924744334538 58.0841480656527,111.83078714180738 57.19092674553394,107.53847171796951 56.29770542494953,105.04615504737012" stroke="#4dd2ff" stroke-linecap="round" stroke-linejoin="round" stroke-width="0.5"><title>2023-11-30 1.0km</title><desc>10303537703</desc></polyline><polyline fill="none" points="77.90684854285792,108.32150029705372 78.64606556296349,110.7278718292946 78.96287285676226,112.67588415788487 80.12449960177764,114.96766025107354 81.39172877836972,118.40531807253137 82.65895795449615,121.15543887077365 82.87016281718388,121.38461538462434 83.08136767987162,121.15543887077365 82.87016281718388,120.35332080582157 82.02534336596727,118.86367187567521 80.86371662141755,115.65519242186565 79.17407771945,112.21752853505313 78.54046313092113,108.55067869834602 77.27323395432904,106.60266121383756 76.53401693562046,104.76923076924868" stroke="#4dd2ff" stroke-linecap="round" stroke-linejoin="round" stroke-width="0.5"><title>2023-11-29 1.0km</title><desc>10298007687</desc></polyline><polyline fill="none" points="97.13581852708012,106.92087287944742 98.34758761152625,110.02879534556996 98.5679092630744,112.29996569827199 100.11016082577407,116.00555262109265 100.99144743289798,119.35252709861379 101.76257321424782,120.90647719288245 102.53369899559766,121.38461538462434 102.86418147338554,121.38461538462434 103.08450312539935,121.02601175406016 102.97434229915962,120.5478734569624 102.53369899559766,119.71113109844737 100.77112578134984,115.04927293327637 99.00855256710202,110.98507798602805 98.67807008931413,109.07251214259304 97.9069443079643,106.80133728159126 96.91549687460065,104.76923076924868" stroke="#4dd2ff" stroke-linecap="round" stroke-linejoin="round" stroke-width="0.5"><title>2023-11-28 1.0km</title><desc>10292316108</desc></polyline><polyline fill="none" points="119.80218311445788,104.76923076924868 120.77749455999583,107.4150054884376 121.36268142750487,109.95494464377407 122.14293058402836,111.11908192560077 123.02071088505909,112.81237083673477 123.89849118655547,115.56396106956527 124.67874034261331,116.83392401819583 124.67874034261331,117.46890507242642 124.19108462007716,117.89222561975475 122.63058630703017,118.73886634095106 121.65527486149222,119.5855065638898 120.6799634154886,120.11465645045973 119.21699624694884,120.74963605764788 116.87624877737835,121.38461538462434 116.48612419934943,121.27878551650792 116.19353076536208,120.96129586466122 115.70587504236028,118.95052644331008" stroke="#4dd2ff" stroke-linecap="round" stroke-linejoin="round" stroke-width="0.5"><title>2023-11-27 1.0km</title><desc>10287544518</desc></polyline><polyline fill="none" points="138.77842373168096,108.37118212366477 139.31382094928995,109.64929192105774 140.59877427201718,116.15601668390445 141.99080703780055,119.52556005027145 142.7403631429188,120.80366082757246 143.27576036052778,121.38461538462434 143.38283980451524,121.26842449023388 143.0616014734842,120.68746989045758 143.0616014734842,119.75794208690058 142.20496592484415,117.78269368875772 141.24125093314797,114.52933800464962 140.27753594098613,112.5540830718819 139.63505927985534,108.83594944223296 137.81470873951912,105.93115145794582 137.38639096496627,104.76923076924868" stroke="#4dd2ff" stroke-linecap="round" stroke-linejoin="round" stroke-width="0.5"><title>2023-11-26 1.0km</title><desc>10281488289</desc></polyline><polyline fill="none" points="157.551495579537,104.76923076924868 158.7863639453426,107.98512348381337 159.89774547563866,112.54096178314649 161.00912700546905,115.08686646074057 161.25610067881644,116.69480442488566 161.87353486241773,118.16874631261453 163.2318900655955,120.71464312938042 163.84932424873114,121.38461538462434 164.09629792161286,121.38461538462434 162.2439953717403,117.36477815778926 161.99702169839293,116.02483044553082 160.76215333258733,114.28289694688283 158.29241659957916,107.58313720521983 157.05754823237658,105.3052132826997" stroke="#4dd2ff" stroke-linecap="round" stroke-linejoin="round" stroke-width="0.5"><title>2023-11-25 1.0km</title><desc>10275889695</desc></polyline><polyline fill="none" points="177.54933929024264,104.92451534315478 178.407977017574,108.80662596819457 182.4149530804716,119.67649776046164 183.4166970960796,121.22933202167042 183.8460159599781,121.38461538462434 183.98912224825472,120.91876526048873 182.55805936828256,119.05536373646464 180.84078391315416,113.93100106832571 179.69593360926956,111.60174120031297 178.98040216974914,107.09849817224313 178.1217644419521,104.76923076924868" stroke="#4dd2ff" stroke-linecap="round" stroke-linejoin="round" stroke-width="0.5"><title>2023-11-24 1.0km</title><desc>10271180196</desc></polyline><polyline fill="none" points="17.164816371165216,125.07693067810033 17.529396287631243,126.13187922281213 18.380082758609205,130.61540361738298 20.446035618893802,136.9450660358416 21.418248729314655,139.58241878484841 21.78282864531502,139.84615384612698 22.268935200292617,139.84615384612698 22.390461839269847,139.58241878484841 22.14740856178105,138.263742894982 20.81061553489417,134.4395773326978 17.286343010142446,126.79122174845543 16.071076622232795,123.23076923075132" stroke="#4dd2ff" stroke-linecap="round" stroke-linejoin="round" stroke-width="0.5"><title>2023-11-23 1.0km</title><desc>10265414399</desc></polyline><polyline fill="none" points="37.967325042933226,126.97509639698546 38.07515851594508,128.6132367621176 38.50649240612984,131.1874539295677 40.23182796826586,136.10185696044937 40.77099533099681,138.4420435464708 41.63366311183199,139.84615384612698 42.280663947574794,139.84615384612698 42.172830475028604,139.14409885101486 40.98666227608919,136.10185696044937 40.01616102270782,134.5807338344166 38.61432587867603,130.25137544155587 36.996823789551854,125.80499510385562 36.565489899367094,123.23076923075132" stroke="#4dd2ff" stroke-linecap="round" stroke-linejoin="round" stroke-width="0.5"><title>2023-11-21 1.0km</title><desc>10253878272</desc></polyline><polyline fill="none" points="57.82707987958565,127.71815237402916 58.3859251094982,131.35656217753422 60.733075075317174,137.29928093310446 61.73899648943916,139.48231509933248 62.07430362747982,139.84615384612698 62.29784171981737,139.72487427294254 62.40961076552048,139.48231509933248 61.96253458177671,137.54184042743873 59.950691753067076,133.17576407047454 59.1683084317483,130.87144133413676 57.93884892528877,126.14150563336443 57.26823464920744,124.92869942297693 56.82115846546367,123.23076923075132" stroke="#4dd2ff" stroke-linecap="round" stroke-linejoin="round" stroke-width="0.5"><title>2023-11-20 1.0km</title><desc>10248671423</desc></polyline><polyline fill="none" points="76.84962191805243,124.6153907738626 78.47366056311876,128.13987692201044 78.93767160503194,131.79022992693353 80.21370196901262,134.68533194845077 81.48973233252764,138.33567099831998 82.0697461348027,139.21678615466226 82.76576269697398,139.84615384612698 82.6497599366121,138.8391654288862 80.67771301046014,133.6783404960297 79.40168264694512,129.0209973253077 78.12565228249878,126.00001119740773 77.4296357203275,123.2307692306349" stroke="#4dd2ff" stroke-linecap="round" stroke-linejoin="round" stroke-width="0.5"><title>2023-11-19 1.0km</title><desc>10242265034</desc></polyline><polyline fill="none" points="96.77074961154722,138.03501069679623 97.49642385612242,135.75139105535345 97.7866935543716,135.20017179159913 98.29466552520171,134.88518922787625 100.76195795694366,134.57020657137036 102.5761435686145,134.17647812044015 103.15668296441436,133.70400378818158 103.51952008670196,133.2315292477142 103.95492463372648,131.26288308459334 103.80978978448547,130.6329155479325 104.10005948226899,130.16043965239078 103.88235720898956,126.53811752604088 103.73722236021422,126.06563982367516 103.6646549354773,124.64820546534611 103.51952008670196,123.781994656194 102.7212784178555,123.54575522290543 102.06817159755155,124.01823403709568 102.2133064463269,123.781994656194 102.35844129533507,124.01823403709568 101.41506477724761,123.54575522290543 101.34249735320918,123.23076923069311 101.12479507946409,123.38826223835349 101.26992992847227,123.309515737521 100.76195795694366,123.93948758259648 100.83452538168058,123.86074112227652 102.35844129533507,124.64820546534611 101.99560417304747,124.96319104044233 101.41506477724761,125.19943016098114 100.03628371260129,125.43566922936589 99.96371628786437,125.12068379315315 100.32655341015197,124.96319104044233 100.83452538168058,125.04193741967902 102.35844129533507,123.54575522290543 104.46289660455659,123.62450170639204 104.24519433150999,123.46700873348163 103.95492463372648,123.38826223835349 103.73722236021422,127.16808747174218 103.80978978448547,128.27053398499265 104.0274920577649,129.60921751055866 104.1726269070059,131.8928502505296 104.1726269070059,132.68030868686037 103.95492463372648,133.4677665439085 103.51952008670196,133.940240980417 99.89114886359312,134.33396951813484 98.22209810093045,134.64895224419888 97.35128900734708,135.27891741809435 96.33534506475553,136.69633770454675 95.7548056691885,138.74371925048763 95.53710339567624,139.84615384612698" stroke="#4dd2ff" stroke-linecap="round" stroke-linejoin="round" stroke-width="0.5"><title>2023-11-18 1.0km</title><desc>10236386505</desc></polyline><polyline fill="none" points="116.80171471927315,123.23076923075132 119.20794199081138,127.38463141734246 120.08293372532353,130.47035069402773 120.41105562634766,132.25057067035232 121.0672994274646,133.31870171392802 123.14540479751304,139.37143094476778 123.58290066570044,139.84615384612698 123.58290066570044,139.37143094476778 123.14540479751304,138.77802712167613 121.94229116244242,135.2175996020669 121.28604736085981,134.03078868368175 121.0672994274646,132.01320812036283 120.08293372532353,129.52089923678432 118.98919405695051,127.14726815209724 118.87982008978724,125.84176956734154" stroke="#4dd2ff" stroke-linecap="round" stroke-linejoin="round" stroke-width="0.5"><title>2023-11-17 1.0km</title><desc>10231268371</desc></polyline><polyline fill="none" points="137.42093195859343,123.76675174420234 139.0262604802847,126.04467566660605 139.3967209085822,129.12656820681877 140.50810219347477,131.53848047240172 142.23691752552986,137.9702309105778 143.34829881042242,139.84615384612698 143.22481200052425,138.77419811941218 142.36040433496237,137.0322687185835 141.74297028779984,135.2903376527829 140.75507581233978,131.1364953162847 138.77928686188534,126.98264351312537 138.1618528147228,125.10670733719599 137.7913923864253,123.23076923075132" stroke="#4dd2ff" stroke-linecap="round" stroke-linejoin="round" stroke-width="0.5"><title>2023-11-16 1.0km</title><desc>10225818993</desc></polyline><polyline fill="none" points="157.69556387141347,123.4094298845157 158.51880935858935,126.62531940732151 159.8360021384433,130.1985249966383 161.64714220911264,133.59306544065475 162.3057385990396,136.27296244166791 163.45828228071332,138.59553745226003 164.61082596238703,139.8461538462434 161.64714220911264,134.3077049299609 160.32994943019003,130.1985249966383 156.5430201906711,123.23076923075132" stroke="#4dd2ff" stroke-linecap="round" stroke-linejoin="round" stroke-width="0.5"><title>2023-11-15 1.0km</title><desc>10219684298</desc></polyline><polyline fill="none" points="177.83340269699693,125.22962108964566 179.330099361483,127.10354257165454 179.560360386502,129.4771734821843 181.28731807600707,133.5997877101181 182.32349268905818,137.09775557520334 183.35966730257496,139.72122674866114 183.8201893530786,139.84615384612698 183.70505884010345,138.34702806780115 182.2083621765487,136.3481916388264 181.6327096130699,134.59920783503912 180.71166551252827,133.474860153161 180.36627397453412,132.10065642104018 178.63931628596038,128.6026782693807 178.06366372248158,126.1041180382017 177.7182721849531,123.23076923075132" stroke="#4dd2ff" stroke-linecap="round" stroke-linejoin="round" stroke-width="0.5"><title>2023-11-14 1.0km</title><desc>10213806154</desc></polyline><polyline fill="none" points="17.01158631546423,143.97994311724324 17.899259481579065,147.35118949809112 20.340360688511282,153.612057221937 20.895156417042017,155.6588741708547 22.00474787503481,157.9464900867315 22.33762531261891,158.30769230774604 21.67187043791637,157.1036845948547 20.118442396633327,153.37125505995937 20.00748325092718,152.40804605698213 18.89789179340005,149.75921837834176 17.233504606876522,146.74918172473554 16.56774973217398,144.70235364011023 16.12391314888373,141.69230769237038" stroke="#4dd2ff" stroke-linecap="round" stroke-linejoin="round" stroke-width="0.5"><title>2023-11-13 1.0km</title><desc>10208522228</desc></polyline><polyline fill="none" points="37.56703289365396,143.58042770100292 38.727060412056744,147.10491281282157 40.11909343441948,150.00002015556674 40.93111269688234,153.39861818100326 41.74313195981085,155.79022015456576 42.78715672623366,158.05594525905326 43.251167733222246,158.30769230774604 43.48317323764786,157.804198173224 42.20714296679944,155.28672527999151 41.51112645631656,152.5175008221995 38.9590659160167,150.1258942767745 37.56703289365396,148.11190722626634 37.335027389694005,145.97204338945448 35.362980608828366,141.69230769237038" stroke="#4dd2ff" stroke-linecap="round" stroke-linejoin="round" stroke-width="0.5"><title>2023-11-12 1.0km</title><desc>10202270880</desc></polyline><polyline fill="none" points="57.101414900738746,144.79220530285966 59.84392731683329,150.9919834297616 60.75809812173247,154.091863947222 61.67226892756298,156.5717642592499 62.24362568091601,157.68771821004339 62.81498243380338,158.30769230774604 62.92925378493965,157.81171304779127 61.90081162843853,154.71183936693706 59.95819866703823,151.7359552734997 57.90131435543299,147.024128053803 57.101414900738746,143.67624281928875 56.30151544557884,141.69230769237038" stroke="#4dd2ff" stroke-linecap="round" stroke-linejoin="round" stroke-width="0.5"><title>2023-11-11 1.0km</title><desc>10196068378</desc></polyline><polyline fill="none" points="78.26302306400612,144.17004932055715 80.14348996942863,149.85426841361914 81.88963781064376,154.5182308817748 82.69555219868198,157.5789502885891 83.23282845690846,158.30769230774604 83.5014665867202,158.01619553216733 83.09850939270109,156.26721397822257 81.08372342260554,151.7490044895094 79.06893745204434,147.5222830651328 76.38255615858361,143.2955526293954 76.11391802877188,141.69230769237038" stroke="#4dd2ff" stroke-linecap="round" stroke-linejoin="round" stroke-width="0.5"><title>2023-11-10 1.0km</title><desc>10191120477</desc></polyline><polyline fill="none" points="96.14268839824945,142.19965004897676 98.12978831492364,143.7216762242606 99.2986706183292,145.75104236870538 99.64933530939743,146.51205405744258 99.64933530939743,147.65357096132357 100.93510584300384,151.58545673731714 101.40265876473859,153.86848307575565 102.33776460774243,156.40517546387855 102.57154106814414,157.67352025944274 103.15598222007975,158.30769230774604 103.50664691068232,158.18085791682824 103.85731160175055,157.67352025944274 102.57154106814414,156.78567900066264 100.46755292173475,153.74164835829288 98.01290008472279,147.01939499692526 97.42845893278718,143.21433431480546 96.84401778038591,141.69230769237038" stroke="#4dd2ff" stroke-linecap="round" stroke-linejoin="round" stroke-width="0.5"><title>2023-11-09 1.0km</title><desc>10185506531</desc></polyline><polyline fill="none" points="116.951007979922,143.0263958480209 118.18046649172902,145.45200791186653 118.62754231365398,146.66481260641012 120.08053873712197,149.81810063950252 120.63938351487741,152.00114266970195 120.52761455904692,150.66706177219748 120.7511524707079,151.51602246810216 121.19822829263285,154.79058105987497 122.20414889324456,157.82257396099158 122.65122471610084,158.30769230774604 123.21006949385628,158.06513315194752 123.43360740458593,157.7012943517184 122.20414889324456,156.60977746918797 121.30999724846333,155.15442050236743 120.7511524707079,153.57778233953286 119.96876978082582,150.90962201578077 118.85108022531494,149.33297979598865 117.62162171304226,146.66481260641012 117.28631484648213,144.7243246671278 117.39808380184695,142.29871153330896 117.1745458911173,141.69230769237038" stroke="#4dd2ff" stroke-linecap="round" stroke-linejoin="round" stroke-width="0.5"><title>2023-11-08 1.0km</title><desc>10179505859</desc></polyline><polyline fill="none" points="139.63505916949362,150.87145785067696 143.38284024503082,158.30769230774604 143.59699916327372,158.1915014135884 143.06160186696798,156.91340101207606 142.0978867332451,155.2867262790678 141.45540997711942,153.66004987212364 140.17045646579936,152.26575447642244 139.7421386288479,151.45241492753848 139.42090025078505,148.6638190106023 139.2067413320765,147.8504776081536 137.92178782075644,145.64283454837278 137.17223160574213,141.69230769237038" stroke="#4dd2ff" stroke-linecap="round" stroke-linejoin="round" stroke-width="0.5"><title>2023-11-06 1.0km</title><desc>10167691585</desc></polyline><polyline fill="none" points="158.97959039686248,146.3541953326203 159.75071651861072,147.7886196098989 162.61489925486967,154.3630480208667 163.82666887482628,158.068623229512 164.04699062323198,158.30769230774604 164.26731237210333,158.30769230774604 164.26731237210333,157.94908867706545 163.3860253766179,156.03653464489616 162.61489925486967,154.9607220130274 162.50473838066682,154.3630480208667 161.8437731335871,153.64583894074894 159.97103826748207,150.41839416429866 157.7678207778372,144.80023427098058 156.8865337818861,141.69230769237038" stroke="#4dd2ff" stroke-linecap="round" stroke-linejoin="round" stroke-width="0.5"><title>2023-11-05 1.1km</title><desc>10161301187</desc></polyline><polyline fill="none" points="177.6623753728345,141.69230769237038 179.88155779847875,146.6287801435683 180.88018989004195,150.96323149080854 182.43361758813262,153.97326039895415 182.98841319512576,156.3812795424601 183.54320880118757,158.30769230774604 183.8760861651972,157.94649008684792 183.76512704370543,157.58528778632171 182.32265846710652,154.93646848131903 182.21169934561476,154.57526551675983 180.88018989004195,152.5284472135827 180.32539428351447,150.60202764999121 178.88292570691556,147.95319705002476 178.55004834290594,145.66556717536878 177.88429361535236,143.25753227598034" stroke="#4dd2ff" stroke-linecap="round" stroke-linejoin="round" stroke-width="0.5"><title>2023-11-04 1.0km</title><desc>10155501797</desc></polyline><polyline fill="none" points="23.68854400748387,162.67771448148414 22.428738092072308,160.99513609160203 21.653472913894802,160.46932993852533 20.10294255660847,160.15384615387302 18.649320346768945,160.25900742341764 16.614249253179878,161.2054584985599 15.7420759270899,162.04674781742506 14.966810748446733,163.6241639557993 14.772994454018772,164.88609561382327 14.482270012144,169.09252642979845 14.67608630657196,173.50926546822302 14.869902601465583,174.14022707438562 15.838984074536711,175.71762987133116 17.00188184250146,176.55891065159813 18.94004478910938,176.76923076924868 20.684391440823674,176.03311022208072 22.33182994555682,174.0350668260362 22.816370681859553,173.0886242428096 23.49472771305591,170.03897165774833 23.49472771305591,167.62027705158107 23.979268449358642,164.46545185137074 23.882360302377492,163.3086808673106 22.816370681859553,162.04674781742506 21.944197355769575,161.4157808746677 19.909126261714846,160.46932993852533 18.843136641196907,160.46932993852533 16.517341106198728,161.2054584985599 15.451351485215127,162.15190894750413 14.772994454018772,163.41384190449025 14.57917815912515,164.255129924044 14.772994454018772,167.7254377718782 14.57917815912515,169.30284764559474" stroke="#4dd2ff" stroke-linecap="round" stroke-linejoin="round" stroke-width="0.5"><title>2023-11-03 1.0km</title><desc>10152446508</desc></polyline><polyline fill="none" points="35.98428297787905,160.15384615387302 36.8926436426118,162.12517050886527 37.67123849829659,165.6453875246225 38.96889659110457,168.17993977002334 40.91538372961804,173.24903419800103 41.304681157227606,174.09388196538202 41.953510203864425,176.34680752211716 42.34280763193965,176.76923076924868 42.86187086859718,176.76923076924868 42.86187086859718,176.48761528136674 41.953510203864425,176.0651919724187 41.56421277625486,175.07953722251114 40.65585211152211,174.2346898901742 40.00702306535095,172.40418605855666 39.09866239968687,170.99610499758273 38.06053592590615,168.88398146489635 36.8926436426118,164.51891878363676 36.11404878646135,162.68840566615108" stroke="#4dd2ff" stroke-linecap="round" stroke-linejoin="round" stroke-width="0.5"><title>2023-11-02 1.1km</title><desc>10144903556</desc></polyline><polyline fill="none" points="56.785926814656705,161.3578651966527 57.00784507300705,162.68228512175847 57.895518108736724,164.72911380801816 59.44894592091441,170.26757860393263 62.11196502810344,175.80602466966957 62.888678933959454,176.76923076924868 62.44484241679311,175.32442140765488 60.78045547474176,172.79600195749663 59.89278243901208,169.54517121450044 58.7831911444664,167.97995411115699 57.451681591104716,165.0903186048381 56.342090296559036,160.15384615387302" stroke="#4dd2ff" stroke-linecap="round" stroke-linejoin="round" stroke-width="0.5"><title>2023-11-01 1.0km</title><desc>10138966680</desc></polyline><polyline fill="none" points="77.38995189825073,160.4037027648883 77.96560437697917,162.27762617566623 78.88664834247902,167.2747451683972 80.38334478577599,170.52286463335622 81.30438875127584,173.52112324396148 82.80108519550413,176.76923076924868 82.91621569078416,176.64430367131718 81.88004122953862,175.14517778262962 80.38334478577599,171.64721223211382 79.11690933350474,169.39851629023906 76.9294299161993,162.77733873622492 76.69916892424226,160.1538461537566" stroke="#4dd2ff" stroke-linecap="round" stroke-linejoin="round" stroke-width="0.5"><title>2023-10-31 1.0km</title><desc>10133123337</desc></polyline><polyline fill="none" points="97.39122844161466,162.12308553722687 97.95835269382223,165.07694026909303 97.95835269382223,166.18463444977533 99.20602604746819,168.2769436801318 102.60877155838534,175.53846719383728 103.17589581059292,176.6461544522317 103.40274551091716,176.76923076924868 100.79397395253181,171.6000176713569 99.65972544904798,168.40002061228734 98.41205209493637,165.81540313758887 96.59725448908284,160.15384615387302" stroke="#4dd2ff" stroke-linecap="round" stroke-linejoin="round" stroke-width="0.5"><title>2023-10-30 1.0km</title><desc>10127985445</desc></polyline><polyline fill="none" points="117.57308920519426,162.55871594545897 118.07678506802768,165.94738950452302 118.37900258554146,167.04050836001989 120.39378603780642,171.74091028096154 121.40117776347324,174.47369526466355 122.9122653529048,176.55060849292204 123.31522204354405,176.76923076924868 123.4159612157382,176.44129734265152 122.50930866226554,175.02025165839586 121.19969941861928,172.17815621581394 118.88269844837487,167.91500286583323 117.9760458949022,164.74495783541352 117.27087168674916,163.32390097284224 117.17013251408935,161.13765699323267 116.96865416923538,160.15384615387302" stroke="#4dd2ff" stroke-linecap="round" stroke-linejoin="round" stroke-width="0.5"><title>2023-10-28 1.0km</title><desc>10115543824</desc></polyline><polyline fill="none" points="138.22954291058704,163.6000135546783 139.13694184739143,166.55386568047106 140.15776565065607,168.89232825033832 141.0651645869948,172.21540102013387 142.42626299150288,175.41539078659844 142.99338732659817,176.64615445269737 143.56051166169345,176.76923076924868 143.67393652908504,176.64615445269737 143.44708679476753,175.9076963615371 142.76653759228066,174.06154970882926 140.4980402518995,169.6307894360507 138.6832423787564,164.70770871266723 137.54899370856583,162.24616292188875 137.09529424039647,160.15384615387302" stroke="#4dd2ff" stroke-linecap="round" stroke-linejoin="round" stroke-width="0.5"><title>2023-10-27 1.0km</title><desc>10110442644</desc></polyline><polyline fill="none" points="158.3251047874801,162.71946785924956 160.46433216240257,169.92762192944065 161.25246856361628,172.12671355658676 162.04060496529564,173.47060145204887 162.9413322811015,176.03620259778108 163.27910502441227,176.5248880814761 163.9546505114995,176.76923076924868 164.06724142516032,176.4027167239692 163.9546505114995,175.91403120441828 162.8287413660437,174.44797378440853 161.1398776494898,171.51585506321862 159.11324118915945,165.5294299441157 157.76215021545067,163.33032958616968 157.08660472836345,160.15384615387302" stroke="#4dd2ff" stroke-linecap="round" stroke-linejoin="round" stroke-width="0.5"><title>2023-10-26 1.0km</title><desc>10104873905</desc></polyline><polyline fill="none" points="179.93703748239204,168.10035547986627 182.48909689718857,174.4816153581487 183.70964705152437,176.64883003791329 184.15348347090185,176.76923076924868 184.04252436663955,175.56522305635735 181.04662853153422,170.38797980500385 179.3822419573553,166.17393251741305 177.9397735921666,163.16389210196212 177.3849780675955,160.15384615387302" stroke="#4dd2ff" stroke-linecap="round" stroke-linejoin="round" stroke-width="0.5"><title>2023-10-25 1.0km</title><desc>10098978222</desc></polyline><polyline fill="none" points="16.157120239455253,178.61538461537566 16.045351185370237,179.46434993017465 16.715965510811657,182.25380431639496 17.61011794488877,184.07301115756854 18.168963215313852,186.2560567187611 19.174884703475982,189.16677963989787 21.298496733419597,193.29029498714954 21.969111058861017,194.98821007506922 22.19264916749671,195.23076923075132 22.416187276132405,195.10948965733405 22.304418221581727,193.53285439207684 21.074958625249565,191.22853860177565 20.180806191638112,189.89445956773125 19.063115648925304,187.3475784161128 18.839577540755272,186.01349624374416 17.498348890338093,183.95173076400533 16.715965510811657,182.13252378895413 16.492427402175963,179.94947277090978 16.157120239455253,178.61538461537566" stroke="#4dd2ff" stroke-linecap="round" stroke-linejoin="round" stroke-width="0.5"><title>2023-10-24 1.0km</title><desc>10092835699</desc></polyline><polyline fill="none" points="37.7155841216445,181.48424012982287 39.367996510118246,187.34147108730394 40.139122291468084,188.7758917788742 41.020408898126334,192.36193797143642 42.34233880927786,194.75263103900943 42.89314293907955,195.23076923075132 42.34233880927786,194.63309646898415 41.571213027928025,192.72054215567186 39.58831816166639,190.32984609995037 39.14767485810444,189.4931016501505 38.70703155454248,186.7437954256311 37.385101643856615,184.11401990440208 36.5038150367327,181.36470458447002 35.953010907396674,178.61538461537566" stroke="#4dd2ff" stroke-linecap="round" stroke-linejoin="round" stroke-width="0.5"><title>2023-10-23 1.0km</title><desc>10087395010</desc></polyline><polyline fill="none" points="54.23591846995987,178.69507592532318 54.52967771328986,178.61538461540476 56.62271232274361,178.77476722345455 57.54070995841175,179.0138410476502 57.761029391083866,179.13337792022503 58.238388161873445,179.49198837959557 58.568867310648784,179.89044416727847 59.30326541909017,181.24519165381207 59.67046447331086,182.75931718968786 60.14782324410044,183.55622366722673 60.36814267653972,184.1937480054621 60.88222135254182,185.34925895705237 61.24942040699534,186.54461252110195 61.80021898820996,187.50089347397443 62.05725832632743,187.77980843401747 62.38773747510277,188.33763792351237 62.57133700232953,189.53298489612644 62.681496718432754,189.85174364360864 62.97525596199557,190.2900366152171 63.048695772886276,190.96739778321353 63.15885548922233,191.24631095919176 64.7745313278865,195.0713914624066 64.99485076055862,195.23076923078042 64.99485076055862,195.0315470129135 64.66437161178328,194.71279131202027 64.29717255756259,193.83621216777829 63.92997350310907,193.0791654023633 62.93853605655022,190.0111229470349" stroke="#4dd2ff" stroke-linecap="round" stroke-linejoin="round" stroke-width="0.5"><title>2023-10-22 1.5km</title><desc>10080655811</desc></polyline><polyline fill="none" points="77.16497583780438,178.61538461540476 77.74792800028808,179.03710083806072 76.69861410791054,178.86841438617557 78.33088016253896,180.97699146851664 78.48633407265879,181.48304881481454 78.36974364030175,181.90476292886888 77.825654955348,182.1999626243487 77.67020104522817,182.4951621677901 77.70906452275813,183.0012181744387 78.01997234276496,184.22418501396896 78.36974364030175,185.10978006312507 78.75837841513567,186.45925560372416 79.45792100997642,187.68221507009002 79.57451144256629,188.14609556485084 80.00200969493017,188.90517192878178 80.27405403763987,189.24253887930536 80.312917514937,189.45339312250144 80.5849618576467,189.7064181121823 80.77927924483083,190.12812618014868 81.05132358754054,190.92937065509614 81.32336793001741,191.47758991416777 81.28450445248745,192.57402686035493 81.78972965991125,193.54395010418375 81.94518357003108,194.00782585851266 82.21722791227512,194.51387170806993 82.68358964240178,195.1042579682835 82.9167705073487,195.23076923078042 82.02291052485816,193.96565535088303 81.8285931374412,193.2909268074436 81.43995836237445,192.4475150119397 81.28450445248745,191.89929667994147 80.77927924483083,191.182394993637 80.35178099246696,189.95944299019175" stroke="#4dd2ff" stroke-linecap="round" stroke-linejoin="round" stroke-width="0.5"><title>2023-10-20 1.4km</title><desc>10069668027</desc></polyline><polyline fill="none" points="96.65663469093852,178.61538461537566 96.73576759756543,179.25940057833213 97.3688308512792,180.80503599112853 97.52709666476585,181.7495889516431 98.83278962573968,184.9267104237806 98.95148898591287,185.35604983742815 99.03062189253978,186.00005836604396 99.18888770602643,186.42939699057024 100.13848258671351,187.76034472044557 100.65284648048691,188.79075378284324 100.96937810722739,189.8211610270082 101.24634328112006,190.3792975251563 101.40460909437388,191.2379680191516 101.60244136140682,191.66730279265903 102.1168052549474,192.99823858460877 102.19593816180713,193.51343872206053 102.9477007756941,195.05903640721226 103.14553304249421,195.23076923075132 103.26423240243457,195.23076923075132 103.34336530906148,195.18783602950862 103.30379885598086,195.14490282523911 102.51246978878044,194.15743825456593 102.15637170849368,192.95530521933688 101.40460909437388,191.58143586316146 101.28590973443352,191.02330051391618 101.20677682757378,190.0787625539815" stroke="#4dd2ff" stroke-linecap="round" stroke-linejoin="round" stroke-width="0.5"><title>2023-10-19 1.3km</title><desc>10064004415</desc></polyline><polyline fill="none" points="116.44566576043144,178.61538461537566 118.07464051339775,180.73650713532697 117.96604219637811,182.2684272096958 118.18323882995173,183.80034581990913 118.94342704862356,186.51065977406688 120.02941021649167,188.27825336228125 121.1153933852911,191.34207763103768 123.28735972335562,194.8772522022482 123.61315467394888,195.23076923075132 123.93894962407649,195.1129302297486 122.52717150468379,193.69886154448614 119.92081189993769,188.6317718459759 119.26922199875116,186.3928201321978 117.42305061174557,182.50410709099378" stroke="#4dd2ff" stroke-linecap="round" stroke-linejoin="round" stroke-width="0.5"><title>2023-10-18 1.0km</title><desc>10058081424</desc></polyline><polyline fill="none" points="137.48454680200666,179.6223822121974 138.41256874846295,185.03498414938804 140.84862635843456,191.45455961301923 142.47266476461664,194.85314864374232 143.16868122434244,195.23076923075132 143.51668945420533,195.23076923075132 143.74869494093582,194.7272750964621 142.9366757380776,193.72028638294432 141.89265104802325,192.0839284611866 140.500618128106,189.06295588088688 139.92060441197827,187.300719414372 137.48454680200666,182.3916225505527 137.25254131574184,181.63637562969234 137.02053582901135,178.61538461537566" stroke="#4dd2ff" stroke-linecap="round" stroke-linejoin="round" stroke-width="0.5"><title>2023-10-17 1.0km</title><desc>10051702317</desc></polyline><polyline fill="none" points="156.866618857719,178.99881835805718 158.04449321283028,181.04379689111374 159.81130474573,185.64498979458585 160.75360423047096,187.43433930154424 161.8136911499314,190.75741207110696 163.10935294115916,194.0804784890497 163.58050268283114,194.97514913172927 164.1694398606196,195.23076923075132 164.28722729627043,195.10295918607153 164.1694398606196,194.71952899510507 162.8737780698575,192.8023767725099 161.10696653695777,188.45682390709408 159.81130474573,185.77280053449795 158.75121782626957,180.7881747056963 158.1622806484811,178.61538461537566" stroke="#4dd2ff" stroke-linecap="round" stroke-linejoin="round" stroke-width="0.5"><title>2023-10-16 1.0km</title><desc>10046279660</desc></polyline><polyline fill="none" points="177.36648263130337,178.61538461537566 177.85258950851858,179.6703342460096 178.33869638526812,182.0439686467871 179.43243685783818,185.73628258274402 180.89075748808682,187.97804090683348 182.59213155694306,194.30769634537864 183.19976515322924,194.9670341691235 184.05045218765736,195.23076923075132 184.171978907194,194.9670341691235 184.05045218765736,194.17582875152584 182.4706048378721,191.93407817347907 181.61991780344397,189.29672096506692 180.64770404994488,187.7143047787249 178.33869638526812,182.30770560866222 177.48800935084,178.61538461537566" stroke="#4dd2ff" stroke-linecap="round" stroke-linejoin="round" stroke-width="0.5"><title>2023-10-15 1.0km</title><desc>10039610121</desc></polyline><polyline fill="none" points="15.773137296084315,198.2828835096443 16.14359786035493,202.16875058796722 17.131492699496448,204.9826491625281 18.366361247375607,206.72458419785835 19.1072823763825,209.1364914989099 21.206558908335865,212.88834095618222 21.70050632674247,213.42431881965604 22.317940601613373,213.69230769225396 22.688401165418327,213.42431881965604 22.688401165418327,213.0223354366608 20.218664069194347,211.0124171928037 18.61333495657891,208.0645330925472 17.995900683104992,205.51862935069948 16.514058425091207,202.16875058796722 15.773137296084315,199.3548476693686 15.896624151151627,197.61290558998007 15.773137296084315,197.0769230768783" stroke="#4dd2ff" stroke-linecap="round" stroke-linejoin="round" stroke-width="0.5"><title>2023-10-14 1.0km</title><desc>10033377496</desc></polyline><polyline fill="none" points="35.6557491812855,197.3406605430646 37.843229805119336,199.9780330689391 38.08628320833668,201.95605991850607 40.152237130794674,208.28573117859196 42.096664352342486,212.90110239107162 42.704297858756036,213.69230769225396 43.190404664259404,213.69230769225396 43.190404664259404,213.29670508555137 43.0688779624179,212.90110239107162 41.97513765050098,212.10989674087614 40.759870637673885,209.86814550345298 39.42307692253962,205.64837086829357 36.9925428959541,200.241770108114 36.627962791826576,198.3956100186333 36.020329284947366,197.0769230768783" stroke="#4dd2ff" stroke-linecap="round" stroke-linejoin="round" stroke-width="0.5"><title>2023-10-13 1.0km</title><desc>10028006924</desc></polyline><polyline fill="none" points="56.05029280344024,197.0769230768783 57.21917536435649,198.59894969966263 57.92050490155816,199.8673041925067 58.03739315783605,201.51616363960784 57.92050490155816,203.29185666632839 59.206275718752295,205.95539277978241 60.72582304850221,210.01410656841472 62.24537037825212,212.80446675955318 62.596035147085786,213.3118044915609 63.18047642707825,213.69230769225396 63.18047642707825,213.0581356441835 61.89470560988411,211.4092872281326 60.72582304850221,209.37993316852953 59.206275718752295,205.19438288128003 58.27116966992617,203.5455269496888 57.80361664528027,202.15033993066754" stroke="#4dd2ff" stroke-linecap="round" stroke-linejoin="round" stroke-width="0.5"><title>2023-10-12 1.0km</title><desc>10021974100</desc></polyline><polyline fill="none" points="77.86507863271981,199.43284577969462 78.3221642030403,201.91276085947175 78.20789281046018,202.9047258705832 79.2363353446126,206.25260347488802 80.03623509313911,207.74054694338702 80.83613484259695,210.4684398935642 81.97884876886383,213.19632843171712 82.20739155448973,213.4443180799717 82.778748517856,213.69230769225396 82.66447712481022,213.19632843171712 81.40749180549756,209.97245968540665 80.03623509313911,207.61655170435552 78.20789281046018,203.4007081569871 77.75080723967403,201.78876519214828 77.52226445451379,199.43284577969462 76.83663609810174,197.0769230767619" stroke="#4dd2ff" stroke-linecap="round" stroke-linejoin="round" stroke-width="0.5"><title>2023-10-10 1.0km</title><desc>10009069592</desc></polyline><polyline fill="none" points="97.18522713892162,199.15385523904115 97.97336354013532,201.35295705182943 98.76149994134903,204.28508827555925 100.45036365836859,207.95024502975866 101.80145463207737,212.59276531415526 102.58959103329107,213.69230769225396 102.81477286247537,213.3257936469745 102.92736377660185,211.9819081228925 102.13922737538815,209.66064874851145 100.45036365836859,206.7285270098364 98.5363181126304,201.35295705182943 97.97336354013532,198.90951041330118 97.07263622386381,197.0769230768783" stroke="#4dd2ff" stroke-linecap="round" stroke-linejoin="round" stroke-width="0.5"><title>2023-10-09 1.0km</title><desc>10003389142</desc></polyline><polyline fill="none" points="116.80934284999967,197.0769230768783 117.64024649607018,198.10733910929412 118.47115014120936,200.03936753596645 118.94595222454518,203.9034179978771 120.726460036356,207.7674599372549 122.26956680649891,212.14669716614299 122.98176993103698,213.4347060326254 123.57527253497392,213.69230769225396 123.57527253497392,212.66190082661342 121.31996264029294,209.05547202320304 118.35244962060824,201.8425921451999 117.1654444122687,197.20572511432692" stroke="#4dd2ff" stroke-linecap="round" stroke-linejoin="round" stroke-width="0.5"><title>2023-10-08 1.0km</title><desc>9996447828</desc></polyline><polyline fill="none" points="138.25182224670425,200.40001368138473 138.79869228228927,202.41760106780566 140.439302388113,206.80881195748225 140.986172423698,208.7077102640178 142.73615653673187,213.09890404343605 143.28302657231688,213.69230769225396 143.39240057952702,213.21758479077835 143.39240057952702,212.74286174983718 141.31429444532841,209.06375344784465 140.32992838136852,206.92749316687696 138.579944267869,201.70551168976817 138.03307423228398,198.97583283111453 137.3768301899545,197.0769230768783" stroke="#4dd2ff" stroke-linecap="round" stroke-linejoin="round" stroke-width="0.5"><title>2023-10-07 1.0km</title><desc>9989974159</desc></polyline><polyline fill="none" points="159.21944451564923,202.02620459068567 160.08823079476133,204.85435859393328 160.73982050456107,206.26843372464646 162.04299992416054,211.80688264057972 162.36879477882758,212.86743450490758 163.02038448862731,213.69230769225396 163.56337591307238,213.69230769225396 163.7805724828504,213.22095163713675 163.67197419842705,212.86743450490758 162.36879477882758,210.9820084826788 161.06561535969377,208.15386529115494 160.63122221967205,206.26843372464646 158.35065823607147,200.7299656715477 158.02486338140443,198.72668527939823 157.3732736716047,197.0769230768783" stroke="#4dd2ff" stroke-linecap="round" stroke-linejoin="round" stroke-width="0.5"><title>2023-10-06 1.0km</title><desc>9984428862</desc></polyline><polyline fill="none" points="177.19215941429138,197.0769230768783 179.07482854882255,202.11603087722324 180.3299413053319,206.3379755077185 182.46363299060613,211.6494405695703 183.3422119198367,213.41992553987075 183.7187457466498,213.69230769225396 184.22079084953293,213.69230769225396 184.34630212467164,213.41992553987075 183.96976829785854,212.73896998213604 182.46363299060613,210.55991051660385 181.58505406137556,208.78942281322088 180.0789187536575,204.83986722421832 179.45136237610132,202.79699033941142 177.6942045171745,199.52838263765443 177.6942045171745,198.30265326285735" stroke="#4dd2ff" stroke-linecap="round" stroke-linejoin="round" stroke-width="0.5"><title>2023-10-04 1.0km</title><desc>9971682885</desc></polyline><polyline fill="none" points="16.715965695679188,217.47895304427948 17.274810925591737,219.41944226750638 17.833656155038625,220.753527284367 18.280732339713722,222.81529291556217 20.404344213195145,227.0600963954348 20.51611325982958,228.51545507414266 21.186727535910904,231.42616857995745 21.41026562731713,231.79000740707852 22.080879903398454,232.15384615387302 22.080879903398454,230.9410500191152 20.627882305998355,228.27289538364857 19.62196089187637,225.96857654396445 19.06311566149816,224.8770559700206 18.50427043111995,223.30041386617813 17.38657997176051,220.99608808080666 16.939503787551075,219.17688123940025 16.715965695679188,217.35767239215784 16.380658557638526,215.53846153849736" stroke="#4dd2ff" stroke-linecap="round" stroke-linejoin="round" stroke-width="0.5"><title>2023-10-03 1.0km</title><desc>9965060084</desc></polyline><polyline fill="none" points="36.385912514757365,216.2250506071141 37.90449471864849,221.16848445194773 38.15759175317362,223.36556196119636 39.043431371916085,224.4640997464303 39.67617395753041,226.11190521297976 40.81511061033234,230.36872927378863 41.70095022954047,231.74189625587314 42.33369281422347,232.15384615387302 42.46024133171886,232.0165295312181 42.080595780629665,230.91799618757796 40.68856209330261,228.30897690728307 38.41068878676742,222.81629282596987 37.018655099440366,218.69676916487515 36.76555806584656,215.53846153838094" stroke="#4dd2ff" stroke-linecap="round" stroke-linejoin="round" stroke-width="0.5"><title>2023-10-02 1.0km</title><desc>9958643020</desc></polyline><polyline fill="none" points="56.98165726661682,218.46278030285612 57.226655159145594,219.659091161564 59.9216319816187,226.03940237127244 61.269120392389596,230.16000806179363 62.004114071372896,231.62215621070936 62.739107749424875,232.15384615387302 62.86160669662058,232.02092368272133 62.739107749424875,231.48923370067496 60.28912882041186,227.7673994495999 57.961648838128895,222.05171050364152 56.859158319886774,218.5957037707558 56.36916253389791,215.53846153849736" stroke="#4dd2ff" stroke-linecap="round" stroke-linejoin="round" stroke-width="0.5"><title>2023-10-01 1.0km</title><desc>9952075403</desc></polyline><polyline fill="none" points="77.4220706736669,217.94649873953313 78.42070298548788,219.99332757631782 78.86453956831247,222.04015385510866 79.1974170054309,223.96657625108492 80.8618041924201,228.66222134779673 82.30427308753133,231.6722431749804 82.97002796176821,232.15384615387302 83.19194625364617,231.79264393285848 80.9727633385919,228.4214193628868 79.97413102630526,226.1337987377774 79.64125358918682,224.92978659912478 78.08782554836944,221.5585479020374 77.20015238178894,217.82609696337022 76.42343836138025,215.53846153849736" stroke="#4dd2ff" stroke-linecap="round" stroke-linejoin="round" stroke-width="0.5"><title>2023-09-30 1.0km</title><desc>9945549317</desc></polyline><polyline fill="none" points="97.4275236367248,215.53846153849736 98.53001350676641,217.39939220866654 98.89751012995839,218.86155067721847 99.87750112498179,221.25417107495014 100.36749662319198,224.8430957349483 100.73499324638397,225.90647945110686 102.2049797391519,229.49539487622678 102.57247636234388,231.75507871143054 102.81747411144897,232.02092368283775 103.18497073464096,232.15384615387302 103.3074696091935,231.88800120190717 101.10248986957595,227.90032223367598 99.63250337680802,224.4443266800372 99.14250787906349,222.45048008637968 97.4275236367248,218.46278030332178 96.69253039034083,216.07015621114988" stroke="#4dd2ff" stroke-linecap="round" stroke-linejoin="round" stroke-width="0.5"><title>2023-09-28 1.0km</title><desc>9933629332</desc></polyline><polyline fill="none" points="116.94422849128023,217.42658154689707 117.87225112039596,220.69931796286255 119.61229354888201,223.09092907968443 120.7723218346946,227.3706458983943 122.39636143483222,230.26574238634203 122.86037274962291,231.90209910506383 123.32438406348228,232.15384615387302 123.55638972111046,231.7762255667476 123.32438406348228,231.27273132128175 122.39636143483222,230.01399505964946 119.72829637723044,224.6014185900567 118.33626243425533,220.82519231527112 116.8282256629318,215.53846153849736" stroke="#4dd2ff" stroke-linecap="round" stroke-linejoin="round" stroke-width="0.5"><title>2023-09-27 1.0km</title><desc>9927137811</desc></polyline><polyline fill="none" points="141.76491203065962,215.53846153846825 141.4336408355739,217.13611675947323 141.102369640721,218.05476638360415 140.8447142667137,219.17312035083887 139.33558993320912,222.32846377426176 138.56262381165288,223.64651319480618 138.4153921692632,224.20568470994476 138.48900799034163,224.64503335391055 138.6730475432705,225.28408529242733 139.2251662015915,226.6420681659074 139.40920575452037,227.00153365236474 139.63005321798846,227.64058281879988 140.36621142923832,228.55921467856388 140.69748262432404,229.27814287639922 141.0655617301818,229.83730859484058 141.36002501449548,230.63611576557742 141.80171994143166,231.23522037276416 142.35383859998547,232.15384615384392" stroke="#4dd2ff" stroke-linecap="round" stroke-linejoin="round" stroke-width="0.5"><title>2023-09-26 1.0km</title><desc>9920397094</desc></polyline><polyline fill="none" points="160.49932771991007,215.53846153849736 159.7751043869648,217.95220540248556 159.0508810542524,219.24327456910396 158.3783879589755,220.08527502324432 158.0162762927357,220.758874717867 157.86108557856642,221.43247381813126 157.91281581646763,222.27447185770143 158.17146700713784,222.9480696208193 158.792229863815,223.90233210119186 159.0508810542524,224.85659338877304 159.56818343466148,226.0915179902804 160.55105795781128,227.3264405944501 162.2064255757723,230.69440118048806 163.29276057542302,232.15384615387302" stroke="#4dd2ff" stroke-linecap="round" stroke-linejoin="round" stroke-width="0.5"><title>2023-09-25 1.0km</title><desc>9914573673</desc></polyline><polyline fill="none" points="181.9941989784129,215.53846153849736 181.58587624202482,216.1587774634827 181.50421169470064,216.46893518650904 181.58587624202482,216.86770916730165 181.62670851568691,217.26648288406432 180.81006304267794,218.7729589882656 180.6059016743675,219.7920436290442 180.3200757589657,220.5452789949486 178.60512026562355,223.55821104330244 178.5642879921943,223.91267264669295 178.727617086377,224.6215952283237 179.17677209666,225.3305169758969 179.42176573863253,225.95082282094518 179.7892562013585,226.5711280273972 179.99341756966896,227.1914325953112 180.5242371270433,228.0332734878175 180.93255986343138,228.8751132042962 181.3817148739472,229.36249355523614 181.50421169470064,229.8055662595434 181.79003761010244,230.1600241883425 182.4025217150338,231.2233967242064 182.85167672508396,231.71077517600497 182.97417354607023,232.15384615387302" stroke="#4dd2ff" stroke-linecap="round" stroke-linejoin="round" stroke-width="0.5"><title>2023-09-24 1.0km</title><desc>9907510217</desc></polyline><polyline fill="none" points="19.850192087469622,233.9999999999418 19.50331528787501,234.53772062325152 19.255546145141125,235.07544085104018 19.106884659733623,235.7744765561656 19.057330830954015,236.68859916221118 18.21491574589163,237.81780786294257 17.71937746088952,239.10832995706005 17.273393003968522,239.753590150096 16.976070032687858,240.61393618868897 16.92651620390825,241.52805274550337 17.967146603390574,244.16285289893858 18.363577231531963,244.96942247683182 19.651976773515344,247.01272809290094 20.197068887297064,248.35700499021914 20.890822486719117,249.21734090772225 21.287253115093336,249.91636309557362 21.535022257827222,250.61538461537566" stroke="#4dd2ff" stroke-linecap="round" stroke-linejoin="round" stroke-width="0.5"><title>2023-09-23 1.0km</title><desc>9901004991</desc></polyline><polyline fill="none" points="40.06108281738125,234.0 39.73026494635269,234.61539167410228 39.39944707532413,235.6923257969902 38.643291941378266,237.28208265354624 37.88713680766523,238.359012658766 37.22550106537528,240.153892305505 37.17824136954732,241.1282536078943 37.272760761436075,241.69235689786728 38.217954678693786,243.9487654948025 38.35973376617767,244.61543027422158 38.548772549722344,244.97440335305873 39.21040829177946,245.794912553858 39.73026494635269,246.82054769725073 40.15560220903717,247.89746297494275 40.864497647155076,248.9230950268102 41.667912476696074,250.61538461537566" stroke="#4dd2ff" stroke-linecap="round" stroke-linejoin="round" stroke-width="0.5"><title>2023-09-22 1.0km</title><desc>9895405405</desc></polyline><polyline fill="none" points="60.49617057456635,233.9999999999418 60.36066504241899,234.49013526795898 60.08965397812426,234.78421625576448 59.5024633386638,235.8625121008954 59.27662078500725,236.64672616537428 58.59909312403761,238.3621912150411 57.87639695266262,239.83258631528588 57.42471184534952,240.9108739941148 57.28920631296933,241.45001717936248 57.28920631296933,241.79310807026923 57.42471184534952,242.28323760803323 57.695722909644246,242.77336678549182 58.282913549337536,244.29276494536316 58.870104188565165,245.37104540946893 59.18628376349807,246.15524828789057 59.77347440295853,247.13550058868714 60.13482248876244,247.57661365385866 60.405833553057164,248.36081393773202 61.128529724664986,249.63513743143994 61.941562917781994,250.61538461537566" stroke="#4dd2ff" stroke-linecap="round" stroke-linejoin="round" stroke-width="0.5"><title>2023-09-21 1.0km</title><desc>9889267953</desc></polyline><polyline fill="none" points="81.49934505741112,233.9999999999709 80.9063946090173,235.77889369355398 80.55760022776667,237.17929504218046 79.99952921736985,238.35260134682176 79.33681989274919,240.3207220454933 78.18579843395855,242.4780764738971 77.87188349082135,243.65137070047786 77.90676292881835,243.9163077363337 78.1160395576153,244.48402949693264 78.56947225367185,245.46807906538015 78.84850775869563,246.30073492325027 79.54609652154613,247.2847810187959 79.96464977937285,248.07958610742935 80.2088058461668,248.6473032765207 80.487841351307,249.13932431660942 80.94127404724713,249.4799539919768 81.49934505741112,250.31260336071136 81.53422449575737,250.4639940102934 81.74350112455431,250.61538461537566" stroke="#4dd2ff" stroke-linecap="round" stroke-linejoin="round" stroke-width="0.5"><title>2023-09-20 1.0km</title><desc>9882714971</desc></polyline><polyline fill="none" points="101.37769510177895,234.0 101.02343064709567,234.89698662635055 100.35426445491612,236.86180963431252 100.31490173749626,237.50251135221333 100.07872543437406,237.84421864614706 99.80318641429767,238.48491928045405 99.64573554531671,239.08290590165416 99.33083380782045,239.89445818852982 98.42549131228589,241.34670681966236 98.18931500916369,242.20096902438672 98.11058957478963,242.96980393462582 98.18931500916369,243.73863782719127 98.42549131228589,244.5928965145431 98.70103033259511,245.1908768483263 99.56701011094265,246.68582498969045 100.0,247.2838031690335 100.39362717187032,248.3516198156285 100.78725434397347,249.0350214393693 101.1808815158438,249.5902846667741 101.61387140490115,250.01740986519144 101.8894104254432,250.61538461537566" stroke="#4dd2ff" stroke-linecap="round" stroke-linejoin="round" stroke-width="0.5"><title>2023-09-19 1.0km</title><desc>9876194288</desc></polyline><polyline fill="none" points="120.07000611256808,234.0 119.77648232108913,234.47776400251314 119.2872760023456,235.4332910592202 119.14051410648972,236.07030839426443 118.25994273228571,237.60976463358384 117.57505388557911,239.04304852633504 117.42829198995605,239.57389369048178 117.47721262206323,240.1578229200095 117.77073641330935,240.90100489306496 118.21102210041136,241.697270443663 118.60238715563901,242.8120407392271 119.14051410648972,243.97989348851843 119.72756168921478,245.04157616681186 120.26568864029832,245.73166907054838 120.90165685489774,246.79334917292 121.29302190989256,248.0142793606501 121.97791075683199,249.07595610670978 122.32035517995246,250.03146384336287 122.9563233947847,250.61538461537566" stroke="#4dd2ff" stroke-linecap="round" stroke-linejoin="round" stroke-width="0.5"><title>2023-09-18 1.0km</title><desc>9870505463</desc></polyline><polyline fill="none" points="140.55157021642663,233.9999999999418 140.31306331371889,234.46585724852048 139.9791536501143,236.0187125171069 139.5498412256129,236.74337713688146 139.35903570335358,237.31275595759507 138.30960533185862,239.02088965685107 137.9279942875728,239.95259720046306 137.68948738486506,240.780780648347 137.88029290689155,241.35015620366903 138.92972327838652,243.6276538198581 139.45443846448325,244.45583294454264 139.83604950853623,245.33577219687868 140.45616745529696,246.16394931217656 140.79007711913437,246.73332051368197 141.2193895438686,248.07910515979165 143.07974338438362,250.61538461537566" stroke="#4dd2ff" stroke-linecap="round" stroke-linejoin="round" stroke-width="0.5"><title>2023-09-16 1.0km</title><desc>9856514700</desc></polyline><polyline fill="none" points="160.347240668023,234.0 159.83683531475253,235.55078473780304 159.1733083552681,236.60310113447485 157.79521390143782,239.26157811435405 157.74417336587794,239.87081110093277 157.79521390143782,240.59081308590248 158.1014571134001,241.31081438279944 158.61186246667057,242.0861996251624 159.071227284614,243.13850689178798 159.88787584984675,244.52311947656563 160.90868655685335,246.46157281973865 161.01076762727462,247.18156850530067 161.36805137456395,247.4584897395689 161.77637565741315,248.01233190268977 162.43990261666477,249.12001500750193 163.15447011124343,249.72924002085347 163.30759171722457,250.11692840920296 163.40967278787866,250.61538461537566" stroke="#4dd2ff" stroke-linecap="round" stroke-linejoin="round" stroke-width="0.5"><title>2023-09-15 1.0km</title><desc>9850671982</desc></polyline><polyline fill="none" points="181.19163467176259,234.0 180.3468268669676,236.23450337752 179.39641808648594,237.6095791941043 178.97401418420486,238.35441091499524 178.34040833055042,239.95866143418243 178.1820068671368,240.53160724777263 178.1820068671368,240.9899635950569 178.34040833055042,241.5629086503759 178.97401418420486,243.28174128866522 179.55481954989955,244.427627607889 180.98043272062205,246.8912774884957 181.56123808631673,247.97986448951997 181.6668390617706,248.61009837401798 182.0892429642845,249.01115603500511 182.77564930566587,250.09974007465644 183.35645467136055,250.61538461537566" stroke="#4dd2ff" stroke-linecap="round" stroke-linejoin="round" stroke-width="0.5"><title>2023-09-14 1.0km</title><desc>9844236351</desc></polyline><polyline fill="none" points="16.5900739247445,252.46153846156085 16.89403885207139,252.70891752530588 17.008025699760765,252.95629647988244 17.084016931708902,253.49228384031449 17.311990627087653,253.94581120679504 17.463973090751097,255.22393181131338 17.463973090751097,255.842376219196 17.38798185903579,256.172212957812 17.463973090751097,256.5845086083573 17.65395117038861,257.0792629888165 17.577959938673303,257.4915579723893 17.61595555441454,257.697705350467 17.995911713456735,258.39860586920986 18.33787225675769,259.42934033475467 18.64183718408458,260.0065508079133 19.021793343126774,260.5425314294989 19.439745118143037,260.91359463660046 19.553731965832412,261.16096997165005 19.667718813521788,261.69694948990946 19.971683741081506,262.23292849585414 20.313644284149632,263.2224268533173 20.769591674907133,264.0882364838908 20.997565370518714,264.8303579604544 21.11155221820809,265.4487917739316 21.33952591381967,265.9435383338423 21.757477688603103,267.3040891227138 22.32741192751564,268.3760359044245 22.36540754348971,268.5409506120195 22.32741192751564,268.66463661094895 21.87146453652531,269.0769230769365 22.09943823190406,268.9120085268805 22.213425079593435,268.66463661094895 22.289416311541572,268.4584932643047 22.251420695800334,268.1698924516677 22.023447000188753,267.8812914904847 21.33952591381967,266.3970556301356 20.997565370518714,265.2838761570165 20.275648668175563,263.6759463502676 19.933688125107437,262.1092410784331 19.743710045469925,261.65572031444754 19.021793343126774,260.70744844074943 18.299876640783623,259.3468816472159 17.957916097482666,258.233688178967 17.84392925002612,257.4915579723893 17.539964322466403,256.7081972444139 16.932034468045458,255.38885038677836 16.780052004382014,254.7704054786882 16.248113381676376,253.7808922068798 16.13412653375417,253.24490512229386 16.096130918012932,252.58522800708306" stroke="#4dd2ff" stroke-linecap="round" stroke-linejoin="round" stroke-width="0.5"><title>2023-09-13 1.0km</title><desc>9837636972</desc></polyline></svg>