<?xml version="1.0" encoding="utf-8" ?>
<svg baseProfile="full" height="300mm" version="1.1" viewBox="0,0,200,300" width="200mm" xmlns="http://www.w3.org/2000/svg" xmlns:ev="http://www.w3.org/2001/xml-events" xmlns:xlink="http://www.w3.org/1999/xlink"><defs /><rect fill="#222222" height="300" width="200" x="0" y="0" /><text fill="#FFFFFF" style="font-size:12px; font-family:Arial; font-weight:bold;" x="10" y="20">Over 1km Runs</text><text fill="#FFFFFF" style="font-size:4px; font-family:Arial" x="10" y="280">ATHLETE</text><text fill="#FFFFFF" style="font-size:9px; font-family:Arial" x="10" y="290">Jiakai</text><text fill="#FFFFFF" style="font-size:4px; font-family:Arial" x="120" y="280">STATISTICS</text><text fill="#FFFFFF" style="font-size:3px; font-family:Arial" x="120" y="285">Number: 87</text><text fill="#FFFFFF" style="font-size:3px; font-family:Arial" x="120" y="290">Weekly: 5.8</text><text fill="#FFFFFF" style="font-size:3px; font-family:Arial" x="141" y="285">Total: 89.7 km</text><text fill="#FFFFFF" style="font-size:3px; font-family:Arial" x="141" y="290">Avg: 1.0 km</text><text fill="#FFFFFF" style="font-size:3px; font-family:Arial" x="167" y="285">Min: 1.0 km</text><text fill="#FFFFFF" style="font-size:3px; font-family:Arial" x="167" y="290">Max: 1.5 km</text><polyline fill="none" points="18.167206878308207,33.173562752781436 20.086525700055063,40.0165525485063 23.102598134428263,49.239676092751324 24.06225754553452,50.727272727293894 24.199351747054607,50.727272727293894 24.199351747054607,49.239676092751324 22.142938723787665,42.99175828497391 20.49780830461532,38.97522950731218 19.401054692454636,36.89258181722835 17.618830071296543,31.09090909094084" stroke="#4dd2ff" stroke-linecap="round" stroke-linejoin="round" stroke-width="0.5"><title>2023-12-27 1.0km</title><desc>10441997651</desc></polyline><polyline fill="none" points="39.804950607940555,33.619845401030034 41.99845751095563,37.9339059300255 43.09521096199751,42.396717487834394 44.603246957529336,45.223159716813825 46.385471316520125,49.83471487776842 46.9338480415754,50.727272727293894 47.20803640503436,50.57851311331615 46.24837713455781,47.752078364486806 44.8774353209883,45.66943970799912 40.490421515423805,35.256214270717464 40.216233152430505,32.429758119629696 39.804950607940555,31.09090909094084" stroke="#4dd2ff" stroke-linecap="round" stroke-linejoin="round" stroke-width="0.5"><title>2023-12-17 1.0km</title><desc>10391591057</desc></polyline><polyline fill="none" points="62.91790456371382,34.54803023394197 64.447180503048,38.55828279838897 66.99597373511642,43.53651546663605 69.28988764388487,50.174138529459015 69.79964629001915,50.727272727293894 69.92708595190197,50.588989192969166 69.92708595190197,50.03585495450534 69.28988764388487,48.238167555769905 65.84901678049937,41.46225345612038 64.31974084116518,37.31372257240582 63.17278388654813,32.61204317654483 62.280706255696714,31.09090909094084" stroke="#4dd2ff" stroke-linecap="round" stroke-linejoin="round" stroke-width="0.5"><title>2023-12-16 1.0km</title><desc>10386207035</desc></polyline><polyline fill="none" points="86.0480633159168,34.78196954121813 86.59231672855094,37.29188677179627 88.49720367137343,43.04992033028975 89.58571049617603,44.82161964243278 91.08240737998858,49.6937846908113 91.49059743946418,50.727272727293894 91.76272414578125,50.727272727293894 91.76272414578125,49.250861084321514 89.72177384933457,43.04992033028975 86.86444343393669,38.62066521192901 86.72838008170947,36.84896042954642 85.91199996322393,34.78196954121813 86.18412666907534,33.453188560553826 85.63987325690687,31.09090909094084" stroke="#4dd2ff" stroke-linecap="round" stroke-linejoin="round" stroke-width="0.5"><title>2023-12-14 1.0km</title><desc>10376526598</desc></polyline><polyline fill="none" points="115.51346652954817,32.79842820286285 114.50192287424579,31.944668866577558 112.81601678207517,31.212874800316058 111.24250442907214,31.09090909094084 109.66899207653478,31.456806191476062 107.6459047649987,32.55449700867757 106.74675484932959,33.774152620113455 106.07239241246134,35.847565100644715 106.07239241246134,40.48224244802259 106.2971798912622,41.94582207745407 106.74675484932959,43.77529479726218 106.40957363089547,45.97065939742606 106.52196737052873,46.82441151270177 106.63436110969633,47.312269666814245 107.75829850509763,49.263700848212466 109.55659833643585,50.605308453552425 110.11856703367084,50.727272727293894 111.24250442907214,50.727272727293894 112.36644182354212,50.727272727293894 114.38952913461253,49.995486949104816 115.51346652954817,48.897807676694356 116.18782896641642,47.67816318827681 116.41261644568294,44.994942156015895 116.5250101853162,43.165470781736076 116.18782896641642,40.97010246803984 116.41261644568294,38.04294019541703 116.30022270604968,35.4816689689178 116.18782896641642,34.627911014365964 115.40107279038057,32.92039378627669 115.06389157148078,32.55449700867757 113.82756043737754,31.700737546896562 111.35489816823974,31.456806191476062 109.78138581570238,31.700737546896562 108.8822358995676,32.06663451297209 107.19632980739698,33.896118131815456 106.52196737052873,36.457391807227395 106.74675484932959,38.16490539337974" stroke="#4dd2ff" stroke-linecap="round" stroke-linejoin="round" stroke-width="0.5"><title>2023-12-13 1.0km</title><desc>10373769329</desc></polyline><polyline fill="none" points="131.53276546671987,33.875181376584806 132.88324456941336,39.44371428003069 134.2337236716412,42.37451482261531 136.93468187656254,49.994576065801084 137.47487351763994,50.727272727293894 137.74496933817863,50.727272727293894 137.88001724844798,50.14111541956663 137.33982560737059,49.261879135505296 135.17905904352665,45.59839044196997 132.07295710779727,39.2971741395304 131.66781337698922,37.39215133571997 130.18228636402637,34.16826244338881 129.91219054395333,31.09090909094084" stroke="#4dd2ff" stroke-linecap="round" stroke-linejoin="round" stroke-width="0.5"><title>2023-12-12 1.0km</title><desc>10365882163</desc></polyline><polyline fill="none" points="152.67031776998192,31.09090909094084 154.07215363532305,34.1331760318717 155.9837479973212,38.97313602420036 157.38558386219665,41.60053766157944 159.42461784835905,47.96160011109896 159.67949709668756,49.62100416899193 160.18925559334457,50.727272727293894 160.31669521704316,49.759287774097174 160.06181596918032,48.65301864652429 157.38558386219665,42.568526813411154 155.4739895001985,38.83485162584111 154.96423100447282,37.31372257263865 154.58191213198006,34.1331760318717 153.5623951391317,31.229194058920257" stroke="#4dd2ff" stroke-linecap="round" stroke-linejoin="round" stroke-width="0.5"><title>2023-12-11 1.0km</title><desc>10361067591</desc></polyline><polyline fill="none" points="179.48430961184204,42.047455398133025 182.10697975195944,50.01581375533715 182.23811325849965,50.442689169663936 182.7626472869888,50.727272727293894 182.893780793529,50.58498095383402 182.50038027297705,49.588938245899044 181.32017870992422,47.312267275177874 180.00884363986552,43.75496352184564 176.3371054441668,36.35575077205431 175.28803738811985,31.09090909094084" stroke="#4dd2ff" stroke-linecap="round" stroke-linejoin="round" stroke-width="0.5"><title>2023-12-10 1.0km</title><desc>10355395415</desc></polyline><polyline fill="none" points="17.449479937087744,54.20856221590657 19.711533265188336,57.81820022442844 20.77602894883603,62.294142140774056 23.03808227693662,68.64707444317173 23.83645403990522,72.11230158258695 24.368701882194728,72.54545454541221 24.501763842534274,72.40107023494784 24.501763842534274,72.11230158258695 24.23563992138952,70.95722654892597 21.441338751465082,65.32622603035998 20.77602894883603,63.73799219587818 20.37684306735173,61.28344647062477 19.711533265188336,59.40643884637393 18.647037581540644,57.52942942781374 18.513975620735437,55.508032663259655 17.316417975816876,52.90909090905916" stroke="#4dd2ff" stroke-linecap="round" stroke-linejoin="round" stroke-width="0.5"><title>2023-12-09 1.0km</title><desc>10350143310</desc></polyline><polyline fill="none" points="41.413250281941146,56.71914674085565 42.223537981975824,59.64995396242011 43.97916133143008,63.89961678022519 46.41002443060279,70.9335215347819 47.490408030338585,72.54545454541221 47.355360080488026,71.08006095362362 46.54507238091901,68.58888937486336 44.38430518144742,64.77885623206384 43.03382568154484,61.55497634620406 41.548298232257366,59.21033315430395 41.14315438224003,56.86568720405921 39.52257898263633,52.90909090905916" stroke="#4dd2ff" stroke-linecap="round" stroke-linejoin="round" stroke-width="0.5"><title>2023-12-08 1.0km</title><desc>10345303898</desc></polyline><polyline fill="none" points="62.94018550449982,52.90909090905916 63.193282352760434,53.595680533209816 63.699476048815995,55.38081237464212 63.95257289707661,57.852530568954535 64.45876659220085,59.91229323204607 66.23044452816248,64.30644598905928 67.36938034370542,68.28863799595274 68.50831615971401,70.76033910899423 68.76141300797462,72.54545454541221 69.01450985623524,72.40813803405035 69.26760670403019,72.13350498059299 69.26760670403019,71.72155532508623 68.63486458407715,70.07375579478685 66.61008980032057,66.64083543641027 64.2056697444059,59.63765834190417 63.57292762491852,56.75398955284618" stroke="#4dd2ff" stroke-linecap="round" stroke-linejoin="round" stroke-width="0.5"><title>2023-12-07 1.0km</title><desc>10340288256</desc></polyline><polyline fill="none" points="85.0559752183035,52.909090908942744 85.83711596485227,54.74559385573957 87.26920733274892,60.82016802148428 89.35224932339042,64.63442570611369 91.04472094029188,69.29628592764493 91.82586168684065,72.26291836192831 92.21643206011504,72.54545454541221 92.34662218391895,71.5565777218435 92.0862419353798,70.28516391466837 90.0031999447383,65.90584325173404 88.57110857684165,63.78681354154833 87.78996783029288,62.23285693547223 85.18616534303874,53.33289943705313" stroke="#4dd2ff" stroke-linecap="round" stroke-linejoin="round" stroke-width="0.5"><title>2023-12-06 1.0km</title><desc>10334845031</desc></polyline><polyline fill="none" points="109.48905883636326,56.2946857806528 110.36267933575436,60.76366148283705 111.23629983514547,64.01381881989073 113.35794961918145,69.56615767115727 114.4811759754084,72.13918707356788 114.85558476066217,72.54545454541221 114.35637304745615,70.10784837033134 113.10834376187995,67.80566179868765 111.98511740611866,64.55551115213893 110.36267933575436,61.1699314636644 109.61386176478118,58.59688673866913 108.3658324801363,55.888414724729955 107.74181783711538,52.90909090905916" stroke="#4dd2ff" stroke-linecap="round" stroke-linejoin="round" stroke-width="0.5"><title>2023-12-05 1.0km</title><desc>10329306344</desc></polyline><polyline fill="none" points="130.28947381256148,54.55690558278002 131.17531278030947,55.93008336704224 132.31424859631807,59.91229323204607 134.5921202278696,65.54229958960786 135.7310560438782,69.38717222749256 136.74344343552366,71.58423875342123 137.50273397983983,72.54545454541221 137.50273397983983,71.85887188697234 134.21247495617718,64.30644598905928 132.94699071673676,60.04961066250689 131.55495805246755,56.891307215439156 130.54257066035643,52.90909090905916" stroke="#4dd2ff" stroke-linecap="round" stroke-linejoin="round" stroke-width="0.5"><title>2023-12-04 1.0km</title><desc>10324662812</desc></polyline><polyline fill="none" points="153.08302558911964,54.721686183824204 154.47505861194804,60.00841326825321 156.70231144642457,64.99302920256741 158.2335477708839,70.2797298579244 159.34717418858781,72.39440631074831 160.18239400163293,72.54545454541221 160.18239400163293,71.9412615399342 159.20797088649124,70.2797298579244 157.95514116669074,66.65456516004633 156.56310814479366,64.53988279914483 155.5886850291863,61.97205129195936 153.91824540263042,55.930082145147026 152.80461898539215,52.90909090905916" stroke="#4dd2ff" stroke-linecap="round" stroke-linejoin="round" stroke-width="0.5"><title>2023-12-02 1.0km</title><desc>10313350310</desc></polyline><polyline fill="none" points="175.52646142197773,53.95041800767649 176.89740283275023,55.735548930591904 178.54253252595663,61.38845312898047 179.6392856547609,66.0000211733859 181.42150948941708,71.05785791110247 182.51826261775568,72.54545454541221 182.65535675920546,71.65289669588674 182.38116847677156,69.86777981568594 180.87313292454928,66.59506144560874 178.54253252595663,62.87605687219184 177.17159111518413,60.049608825240284 175.80064970394596,52.90909090905916" stroke="#4dd2ff" stroke-linecap="round" stroke-linejoin="round" stroke-width="0.5"><title>2023-12-01 1.0km</title><desc>10308709030</desc></polyline><polyline fill="none" points="17.28980451915413,74.7272727272939 20.004269312135875,84.05456705496181 22.718734103254974,89.61819769209251 24.226770099252462,93.70909370016307 24.679180897772312,94.36363636364695 24.82998449821025,93.87272938410752 24.226770099252462,92.23637200356461 21.96471610572189,89.12728966609575 21.361501707695425,87.49092879681848 19.099447714164853,83.07274844031781 18.043822517618537,78.00001203035936 16.9881973201409,75.05454687424935" stroke="#4dd2ff" stroke-linecap="round" stroke-linejoin="round" stroke-width="0.5"><title>2023-11-30 1.0km</title><desc>10303537703</desc></polyline><polyline fill="none" points="41.260041784495115,78.92540944193024 42.13366189925,81.76930307084695 42.50807051965967,84.07149945921265 43.880902126897126,86.77996211475693 45.378536608535796,90.84264863107819 46.876171089243144,94.09279139270075 47.12577683618292,94.36363636364695 47.37538258265704,94.09279139270075 47.12577683618292,93.14483367954381 46.12735384842381,91.384339489392 44.75452224118635,87.5925001349533 42.757676266133785,83.52980645035859 42.00885902531445,79.19625664339401 40.51122454414144,76.89405416173395 39.63760443031788,74.72727272717748" stroke="#4dd2ff" stroke-linecap="round" stroke-linejoin="round" stroke-width="0.5"><title>2023-11-29 1.0km</title><desc>10298007687</desc></polyline><polyline fill="none" points="62.718954362906516,77.27012249396648 64.15104509936646,80.94312177202664 64.41142523288727,83.62723218882456 66.23408617032692,88.00656218861695 67.27560670627281,91.96207748027518 68.18693717522547,93.79856395535171 69.09826764371246,94.36363636364695 69.48883784469217,94.36363636364695 69.7492179791443,93.93983207305428 69.61902791168541,93.37475954007823 69.09826764371246,92.38588220719248 67.01522657228634,86.87641346664168 64.93218550132588,82.07327398355119 64.54161530034617,79.81296889588702 63.63028483092785,77.12885315099265 62.45857422845438,74.7272727272939" stroke="#4dd2ff" stroke-linecap="round" stroke-linejoin="round" stroke-width="0.5"><title>2023-11-28 1.0km</title><desc>10292316108</desc></polyline><polyline fill="none" points="88.24024238158017,74.7272727272939 89.3928831811063,77.85409739543684 90.08446766063571,80.85584366996773 91.00658030016348,82.23164227581583 92.04395701969042,84.23280189803336 93.08133373921737,87.48468126403168 94.00344637874514,88.98554656701162 94.00344637874514,89.73597872210667 93.4271259792149,90.23626664164476 91.58290070015937,91.23684203939047 90.43025990063325,92.23741684830748 89.27761910110712,92.86277580517344 87.54865790205076,93.61320625001099 84.78231998346746,94.36363636364695 84.32126366347075,94.23856470140163 83.97547142393887,93.86334965820424 83.39915102394298,91.48698579671327" stroke="#4dd2ff" stroke-linecap="round" stroke-linejoin="round" stroke-width="0.5"><title>2023-11-27 1.0km</title><desc>10287544518</desc></polyline><polyline fill="none" points="109.40047479979694,78.98412432789337 110.03321696585044,80.49461772490758 111.55179816531017,88.18438335356768 113.1969277979806,92.1665709685767 114.08276683138683,93.67705370532349 114.71550899744034,94.36363636364695 114.8420574311167,94.22631985216867 114.46241213101894,93.53973714320455 114.46241213101894,92.4412042844342 113.45002466440201,90.10681981395464 112.3110887655057,86.26194491458591 111.17215286567807,83.92755272123031 110.4128622659482,79.53339479537681 108.26153889996931,76.10045172297396 107.75534516619518,74.7272727272939" stroke="#4dd2ff" stroke-linecap="round" stroke-linejoin="round" stroke-width="0.5"><title>2023-11-26 1.0km</title><desc>10281488289</desc></polyline><polyline fill="none" points="130.3205986712128,74.7272727272939 131.77998855803162,78.52787320804782 133.09343945793808,83.91204574378207 134.4068903569132,86.92084218084347 134.69876833446324,88.82113250205293 135.4284632783383,90.56306382396724 137.03379215486348,93.57185097108595 137.76348709873855,94.36363636364695 138.05536507535726,94.36363636364695 135.86628024466336,89.61291964096017 135.57440226711333,88.02934507199097 134.11501237936318,85.97069639177062 131.19623260386288,78.05279851530213 129.73684271611273,75.36070660676342" stroke="#4dd2ff" stroke-linecap="round" stroke-linejoin="round" stroke-width="0.5"><title>2023-11-25 1.0km</title><desc>10275889695</desc></polyline><polyline fill="none" points="152.68818019982427,74.91079086018726 153.7029338767752,79.49873978062533 158.4384510423988,92.3449518987909 159.62233033403754,94.18011966184713 160.129707172513,94.36363636353053 160.2988327862695,93.81308621680364 158.60757665522397,91.61088441568427 156.57806929945946,85.55481944442727 155.22506439499557,82.80205778218806 154.37943632993847,77.4800432943739 153.3646826511249,74.7272727272939" stroke="#4dd2ff" stroke-linecap="round" stroke-linejoin="round" stroke-width="0.5"><title>2023-11-24 1.0km</title><desc>10271180196</desc></polyline><polyline fill="none" points="176.64932843856514,76.90909989213105 177.08019561273977,78.15585726324935 178.0855523510836,83.4545679113362 180.52713300380856,90.9350780423265 181.67611213447526,94.05194947286509 182.10697930771858,94.36363636364695 182.6814688728191,94.36363636364695 182.8250912646763,94.05194947286509 182.5378464818932,92.49351433035918 180.95800017751753,87.97404593857937 176.79295082995668,78.93508024816401 175.35672691697255,74.7272727272939" stroke="#4dd2ff" stroke-linecap="round" stroke-linejoin="round" stroke-width="0.5"><title>2023-11-23 1.0km</title><desc>10265414399</desc></polyline><polyline fill="none" points="19.188656868878752,100.97056846925989 19.316096427850425,102.90655253711157 19.825854661874473,105.94880918960553 21.864887598436326,111.75674004410394 22.502085390966386,114.52241510048043 23.52160185901448,116.18181818176527 24.286239210050553,116.18181818176527 24.158799652010202,115.35211682401132 22.75696450751275,111.75674004410394 21.61000848095864,109.95904907712247 19.953294219914824,104.84253461274784 18.041700841858983,99.58772148634307 17.531942608300596,96.54545454541221" stroke="#4dd2ff" stroke-linecap="round" stroke-linejoin="round" stroke-width="0.5"><title>2023-11-21 1.0km</title><desc>10253878272</desc></polyline><polyline fill="none" points="41.39304245496169,101.84872553288005 42.05349590815604,106.1486643915996 44.82740041334182,113.17187746637501 46.016216630116105,115.75182693556417 46.41248870221898,116.18181818176527 46.67667008424178,116.0384877769975 46.808760774787515,115.75182693556417 46.28039801167324,113.45853868685663 43.90276557859033,108.29863026516978 42.97813074383885,105.57533975841943 41.525133145507425,99.98541574855335 40.732589000836015,98.55209931812715 40.2042262381874,96.54545454541221" stroke="#4dd2ff" stroke-linecap="round" stroke-linejoin="round" stroke-width="0.5"><title>2023-11-20 1.0km</title><desc>10248671423</desc></polyline><polyline fill="none" points="62.607994734775275,98.18182546005119 64.52731313323602,102.34712727146689 65.07568981917575,106.6611808227608 66.58372570388019,110.0826650300296 68.09176158811897,114.39670208888128 68.7772324453108,115.43802000093274 69.59979747328907,116.18181818176527 69.46270330203697,114.9917409614427 67.13210238935426,108.89258422260173 65.62406650511548,103.38845138438046 64.11603061994538,99.81819505151361 63.293465591967106,96.5454545452958" stroke="#4dd2ff" stroke-linecap="round" stroke-linejoin="round" stroke-width="0.5"><title>2023-11-19 1.0km</title><desc>10242265034</desc></polyline><polyline fill="none" points="84.88491187850013,114.04137627815362 85.74252689490095,111.34255306550767 86.08557290164754,110.69111211737618 86.68590341275558,110.31885999662336 89.60179446823895,109.94660776620731 91.74583200924098,109.48129232425708 92.4319240222685,108.92291356797796 92.86073153093457,108.36453456559684 93.3753005405888,106.03795273636933 93.2037775372155,105.29344564757776 93.54682354396209,104.73506504378747 93.28953903866932,100.45413889444899 93.11801603576168,99.89575615536887 93.0322545338422,98.22060645907186 92.86073153093457,97.19690277555492 91.91735501307994,96.91771071800031 91.14550149813294,97.47609477117658 91.31702450104058,97.19690277555492 91.48854750441387,97.47609477117658 90.37364798318595,96.91771071800031 90.28788648173213,96.54545454541221 90.03060197643936,96.73158264532685 90.20212498027831,96.63851859897841 89.60179446823895,97.38303077954333 89.68755597015843,97.28996678092517 91.48854750441387,98.22060645907186 91.05973999667913,98.59286213875748 90.37364798318595,98.87205382669345 88.7441794523038,99.15124545292929 88.65841795038432,98.77898993738927 89.08722545858473,98.59286213875748 89.68755597015843,98.68592604156584 91.48854750441387,96.91771071800031 93.97563105169684,97.01077474397607 93.71834654733539,96.82464668503962 93.3753005405888,96.73158264532685 93.11801603576168,101.19864883029368 93.2037775372155,102.50154016411398 93.46106204204261,104.08362069434952 93.63258504588157,106.78245938709006 93.63258504588157,107.71309208450839 93.3753005405888,108.64372409740463 92.86073153093457,109.20210297696758 88.5726564489305,109.6674185214797 86.60014191130176,110.03967083408497 85.57100389152765,110.78417513053864 84.37034286838025,112.45930819632486 83.68425085535273,114.87894093245268 83.42696635052562,116.18181818176527" stroke="#4dd2ff" stroke-linecap="round" stroke-linejoin="round" stroke-width="0.5"><title>2023-11-18 1.0km</title><desc>10236386505</desc></polyline><polyline fill="none" points="107.29163687583059,96.54545454541221 110.1353600146249,101.45456440222915 111.16944115562364,105.10132354742382 111.55722158402205,107.20521988312248 112.33278243988752,108.46755657088943 114.78872515028343,115.62078202550765 115.3057657214813,116.18181818176527 115.3057657214813,115.62078202550765 114.78872515028343,114.91948659834452 113.36686358088627,110.71170862053987 112.5913027250208,109.30911389889661 112.33278243988752,106.9247005059151 111.16944115562364,103.9792445525527 109.87683972902596,101.17404417973012 109.74757958669215,99.63118221587501" stroke="#4dd2ff" stroke-linecap="round" stroke-linejoin="round" stroke-width="0.5"><title>2023-11-17 1.0km</title><desc>10231268371</desc></polyline><polyline fill="none" points="130.39356893859804,97.17888842499815 132.29077537357807,99.87098033330403 132.72859224304557,103.513216971769 134.0420428533107,106.3636587401852 136.0851882454008,113.96481834887527 137.3986388547346,116.18181818176527 137.25269989762455,114.91496141382959 136.2311272015795,112.85631757660303 135.50143241882324,110.7976717716083 134.33392076566815,105.88858537387569 131.99889746122062,100.97948778816499 131.26920267753303,98.76247230765875 130.83138580806553,96.54545454541221" stroke="#4dd2ff" stroke-linecap="round" stroke-linejoin="round" stroke-width="0.5"><title>2023-11-16 1.0km</title><desc>10225818993</desc></polyline><polyline fill="none" points="153.08826379664242,96.75659895432182 154.06119028106332,100.55719566298649 155.61787265725434,104.78007499617524 157.75831092335284,108.79180461168289 158.53665211051702,111.95895561296493 159.89874918852001,114.70381698920391 161.26084626745433,116.18181818188168 157.75831092335284,109.63637855346315 156.20162854809314,104.78007499617524 151.72616671863943,96.54545454564504" stroke="#4dd2ff" stroke-linecap="round" stroke-linejoin="round" stroke-width="0.5"><title>2023-11-15 1.0km</title><desc>10219684298</desc></polyline><polyline fill="none" points="175.62129409750924,98.9077340150252 177.39011742779985,101.12236849369947 177.6622440936044,103.92756866081618 179.7031940901652,108.79974911198951 180.92776408744976,112.93371113424655 182.15233408519998,116.03417706664186 182.69658741774037,116.18181818176527 182.56052408413962,114.41012408013921 180.79170075478032,112.04786284593865 180.11138408910483,109.98088198690675 179.0228774244897,108.65210745378863 178.6146874250844,107.0280484976247 176.57373742945492,102.89407431846485 175.89342076377943,99.94123040873092 175.48523076437414,96.54545454541221" stroke="#4dd2ff" stroke-linecap="round" stroke-linejoin="round" stroke-width="0.5"><title>2023-11-14 1.0km</title><desc>10213806154</desc></polyline><polyline fill="none" points="18.28642019117251,121.06720550206956 19.335488478653133,125.0514057703549 22.220426268409938,132.4506130804075 22.87609394779429,134.86957856547087 24.187429307494313,137.573124647839 24.580829915124923,138.0 23.79402869939804,136.5770817938028 21.958159196190536,132.16602870705537 21.827025660779327,131.02769079443533 20.515690301544964,127.89725808345247 18.54868726292625,124.33994203829207 17.76188604766503,121.92096339270938 17.237351903226227,118.36363636353053" stroke="#4dd2ff" stroke-linecap="round" stroke-linejoin="round" stroke-width="0.5"><title>2023-11-13 1.0km</title><desc>10208522228</desc></polyline><polyline fill="none" points="41.312986926641315,120.59505091921892 42.683928539045155,124.76035150582902 44.329058474395424,128.1818420018535 45.28871760284528,132.19836694106925 46.2483767317608,135.0248056370765 47.482224183157086,137.7024807605194 48.03060082765296,138.0 48.30478915106505,137.40496147726662 46.796753376722336,134.42976623994764 45.97418840974569,131.15704642608762 42.95811686152592,128.33060232689604 41.312986926641315,125.95043581270147 41.038798603694886,123.42150582373142 38.70819786237553,118.36363636353053" stroke="#4dd2ff" stroke-linecap="round" stroke-linejoin="round" stroke-width="0.5"><title>2023-11-12 1.0km</title><desc>10202270880</desc></polyline><polyline fill="none" points="63.13284098682925,122.02715172152966 66.37399202398956,129.3541622350458 67.45437570288777,133.01765739207622 68.53475938271731,135.94844866986386 69.20999918179587,137.26730333908927 69.88523898087442,138.0 70.02028694096953,137.41384269285481 68.8048553019762,133.75035561539698 66.50903998408467,130.23340168688446 64.07817670609802,124.66487860900816 63.13284098682925,120.70828696829267 62.18750526709482,118.36363636364695" stroke="#4dd2ff" stroke-linecap="round" stroke-linejoin="round" stroke-width="0.5"><title>2023-11-11 1.0km</title><desc>10196068378</desc></polyline><polyline fill="none" points="86.87578050419688,121.29187646973878 89.09815048333257,128.00958994333632 91.16177975013852,133.5215455875732 92.11422402691096,137.13875943189487 92.74918687809259,138.0 93.0666683036834,137.6555038106162 92.59044616483152,135.5885256107431 90.20933547336608,130.24882348743267 87.82822478096932,125.25360725889914 84.65341052506119,120.2583803802263 84.33592909853905,118.36363636376336" stroke="#4dd2ff" stroke-linecap="round" stroke-linejoin="round" stroke-width="0.5"><title>2023-11-10 1.0km</title><desc>10191120477</desc></polyline><polyline fill="none" points="106.74006031500176,118.96322278503794 109.08845112565905,120.7619809921598 110.46985748410225,123.16032279923093 110.88427939172834,124.05970024957787 110.88427939172834,125.40876568155363 112.40382638620213,130.05553978029639 112.9563889298588,132.7536618168233 114.0615140167065,135.75157100276556 114.337795288302,137.25052394298837 115.02849846798927,138.0 115.4429203751497,137.85010481067002 115.85734228277579,137.25052394298837 114.337795288302,136.2012570006773 111.85126384301111,132.60376624157652 108.95031048962846,124.65928499633446 108.2596073099412,120.16239509929437 107.56890413025394,118.36363636364695" stroke="#4dd2ff" stroke-linecap="round" stroke-linejoin="round" stroke-width="0.5"><title>2023-11-09 1.0km</title><desc>10185506531</desc></polyline><polyline fill="none" points="130.06547696329653,119.94028600212187 131.5184733858332,122.80691844120156 132.04683572100475,124.24023308022879 133.76401331229135,127.96684621018358 134.4244662313722,130.54680497315712 134.29237564792857,128.97016391239595 134.55655681574717,129.9734810985392 135.08491915091872,133.8434139797464 136.27373440610245,137.42667831736617 136.80209674220532,138.0 137.46254966128618,137.713339179405 137.72673082863912,137.2833478701068 136.27373440610245,135.99337337259203 135.21700973482803,134.2734060480725 134.55655681574717,132.4101064010756 133.6319227279164,129.25682601856533 132.31101688928902,127.393521576887 130.8580204662867,124.24023308022879 130.46174871455878,121.9469291518908 130.59383929800242,119.08029544830788 130.32965813064948,118.36363636364695" stroke="#4dd2ff" stroke-linecap="round" stroke-linejoin="round" stroke-width="0.5"><title>2023-11-08 1.0km</title><desc>10179505859</desc></polyline><polyline fill="none" points="155.6076673301868,129.21172291447874 160.03686314681545,138.0 160.28996005048975,137.86268348875456 159.657217791304,136.3522011960158 158.5182817238383,134.42976742074825 157.75899101234972,132.5073316671187 156.24040958937258,130.85952801757958 155.73421578248963,129.89830855070613 155.3545704265125,126.60269519442227 155.1014735228382,125.64147353696171 153.58289209986106,123.03244082990568 152.69705293653533,118.36363636364695" stroke="#4dd2ff" stroke-linecap="round" stroke-linejoin="round" stroke-width="0.5"><title>2023-11-06 1.0km</title><desc>10167691585</desc></polyline><polyline fill="none" points="177.2031522868201,123.87313993833959 178.11448315810412,125.56836862966884 181.49942639190704,133.3381476609502 182.931517760735,137.7174638165161 183.19189800927415,138.0 183.4522782578133,138.0 183.4522782578133,137.5761957091745 182.41075726272538,135.31590458017308 181.49942639190704,134.04448965168558 181.36923626763746,133.3381476609502 180.5880955210887,132.4905369298067 178.37486340664327,128.6762840122683 175.77106091892347,122.03664050193038 174.72953992383555,118.36363636353053" stroke="#4dd2ff" stroke-linecap="round" stroke-linejoin="round" stroke-width="0.5"><title>2023-11-05 1.1km</title><desc>10161301187</desc></polyline><polyline fill="none" points="17.237352713476866,140.18181818188168 19.86002285266295,146.01583107875194 21.040224415715784,151.13836448907387 22.87609351379797,154.69567138049752 23.53176104882732,157.5415121865226 24.18742858339101,159.81818181823473 24.580829104408622,159.39130646619014 24.44969559740275,158.96443102008197 22.7449600067921,155.83400820521638 22.613826499320567,155.40713197435252 21.040224415715784,152.98816488869488 20.384556880686432,150.71148722269572 18.67982129007578,147.58105105906725 18.286420769058168,144.87748847994953 17.499619727022946,142.03162905329373" stroke="#4dd2ff" stroke-linecap="round" stroke-linejoin="round" stroke-width="0.5"><title>2023-11-04 1.0km</title><desc>10155501797</desc></polyline><polyline fill="none" points="48.77477278793231,143.1645716598723 47.28591125179082,141.1760699263541 46.36968876840547,140.5546626545256 44.537243800703436,140.18181818176527 42.81932664383203,140.30609968211502 40.414242623373866,141.42463277094066 39.38349232915789,142.41888378420845 38.467269845772535,144.28310285683256 38.23821422504261,145.7744766344549 37.894630793482065,150.74571305327117 38.12368641421199,155.9654955532169 38.35274203540757,156.71117745141964 39.49802013998851,158.5753807569854 40.872353865765035,159.56962167902384 43.162910075392574,159.81818181823473 45.22441066335887,158.9482211713912 47.17138344189152,156.58689715794753 47.74402249418199,155.46837410505395 48.54571716720238,151.86423923191614 48.54571716720238,149.00578196998686 49.11835621949285,145.27735218789894 49.00382840912789,143.9102592067793 47.74402249418199,142.41888378420845 46.71327219950035,141.6731955789728 44.30818817950785,140.5546626545256 43.04838226456195,140.5546626545256 40.299714813474566,141.42463277094066 39.039908898063004,142.5431651195977 38.23821422504261,144.0345404325053 38.00915860384703,145.02878991013858 38.23821422504261,149.1300628213212 38.00915860384703,150.99427449016366" stroke="#4dd2ff" stroke-linecap="round" stroke-linejoin="round" stroke-width="0.5"><title>2023-11-03 1.0km</title><desc>10152446508</desc></polyline><polyline fill="none" points="62.03986689541489,140.18181818188168 63.11338404472917,142.51156514696777 64.03354160115123,146.67182162008248 65.56713753007352,149.66720154648647 67.867531420663,155.65794950677082 68.32761019840837,156.65640595904551 69.09440816286951,159.3189543443732 69.5544869415462,159.81818181823473 70.1679253121838,159.81818181823473 70.1679253121838,159.48536351439543 69.09440816286951,158.98613596742507 68.63432938419282,157.82127126306295 67.56081223487854,156.8228153247619 66.79401427134871,154.65949261467904 65.72049712203443,152.9953968154732 64.49362037982792,150.4992508222349 63.11338404472917,145.3405403806828 62.19322648830712,143.1772066964768" stroke="#4dd2ff" stroke-linecap="round" stroke-linejoin="round" stroke-width="0.5"><title>2023-11-02 1.1km</title><desc>10144903556</desc></polyline><polyline fill="none" points="85.3573940275237,141.60474977793638 85.61966106062755,143.1699733256828 86.66872919350863,145.58895268221386 88.50459842616692,152.13441107748076 91.65180282574147,158.6798473369563 92.56973744137213,159.81818181823473 92.04520337563008,158.11067984544206 90.07820062618703,155.12254776793998 89.02913249330595,151.2806568898959 87.71779732685536,149.43085485859774 86.14419512683526,146.0158310785191 84.83285996085033,140.18181818188168" stroke="#4dd2ff" stroke-linecap="round" stroke-linejoin="round" stroke-width="0.5"><title>2023-11-01 1.0km</title><desc>10138966680</desc></polyline><polyline fill="none" points="108.44137172400951,140.47710326767992 109.12168828956783,142.69174002599902 110.21019479446113,148.59742610831745 111.97901786398143,152.4361127485754 113.06752436840907,155.97950928844512 114.83634743886068,159.81818181823473 114.97241075197235,159.67054070252925 113.74784093396738,157.89884647051804 111.97901786398143,153.764887183439 110.48232142068446,151.10733743407764 107.89711847249418,143.2823094156338 107.6249918458052,140.18181818188168" stroke="#4dd2ff" stroke-linecap="round" stroke-linejoin="round" stroke-width="0.5"><title>2023-10-31 1.0km</title><desc>10133123337</desc></polyline><polyline fill="none" points="130.81301023624837,142.50910108932294 131.48324798839167,146.00002031796612 131.48324798839167,147.3091134405695 132.95777104329318,149.78184253093787 136.97919755615294,158.363643047167 137.64943530829623,159.67272798891645 137.91753040906042,159.81818181823473 134.83443674910814,153.70911179331597 133.4939612452872,149.92729708726984 132.01943818992004,146.87274916260503 129.8746773833409,140.18181818176527" stroke="#4dd2ff" stroke-linecap="round" stroke-linejoin="round" stroke-width="0.5"><title>2023-10-30 1.0km</title><desc>10127985445</desc></polyline><polyline fill="none" points="153.39806646248326,143.023937026388 153.9933433914557,147.02873305091634 154.35050954902545,148.32060078915674 156.73161726491526,153.87562124116812 157.92217112286016,157.1052762218751 159.70800191024318,159.5598100371426 160.18422345351428,159.81818181823473 160.30327883874997,159.43062413216103 159.2317803669721,157.7512065054616 157.68406035145745,154.3923664370086 154.94578647753224,149.3540942959953 153.8742880052887,145.60767744190525 153.04090030491352,143.92824660427868 152.92184491921216,141.34450371935964 152.68373414780945,140.18181818188168" stroke="#4dd2ff" stroke-linecap="round" stroke-linejoin="round" stroke-width="0.5"><title>2023-10-28 1.0km</title><desc>10115543824</desc></polyline><polyline fill="none" points="176.54400525800884,144.25456147361547 177.61638581985608,147.7454776223749 178.82281395047903,150.50911520502996 179.8951945118606,154.43638302374166 181.50376535393298,158.2181891114451 182.1740032043308,159.67272798961494 182.84424105472863,159.81818181823473 182.978288625367,159.67272798961494 182.71019348455593,158.8000047908863 181.9059080639854,156.61819511046633 179.22495666146278,151.3818420608295 177.08019553869963,145.56365575140808 175.73971983743832,142.6545561804669 175.20352955674753,140.18181818188168" stroke="#4dd2ff" stroke-linecap="round" stroke-linejoin="round" stroke-width="0.5"><title>2023-10-27 1.0km</title><desc>10110442644</desc></polyline><polyline fill="none" points="18.2478511123918,165.03209837921895 20.776028919499367,173.55082591657992 21.70746284816414,176.14975238509942 22.638896777294576,177.7379835343454 23.703392695635557,180.7700576155912 24.1025786655955,181.3475950054126 24.900950604584068,181.63636363635305 25.034012593794614,181.20321067387704 24.900950604584068,180.6256732416805 23.57033070549369,178.89305992703885 21.574400858487934,175.4278287111083 19.179285041987896,168.3529626611853 17.582541163545102,165.75402587465942 16.784169224556535,162.0" stroke="#4dd2ff" stroke-linecap="round" stroke-linejoin="round" stroke-width="0.5"><title>2023-10-26 1.0km</title><desc>10104873905</desc></polyline><polyline fill="none" points="42.52299234922975,171.39132920349948 45.539062566589564,178.93281815049704 46.98153093084693,181.49407186289318 47.506064881104976,181.63636363635305 47.37493139412254,180.21344543015584 43.83432722557336,174.0948852240108 41.86732491012663,169.11464752058964 40.162589570041746,165.5573270296445 39.50692213186994,162.0" stroke="#4dd2ff" stroke-linecap="round" stroke-linejoin="round" stroke-width="0.5"><title>2023-10-25 1.0km</title><desc>10098978222</desc></polyline><polyline fill="none" points="62.4714018413797,162.0 62.33931114105508,163.00332264474127 63.13185534393415,166.29995055578183 64.18858094746247,168.44992227724288 64.84903444955125,171.02988521324005 66.0378507534042,174.4698304835474 68.54757406143472,179.34307589393575 69.34011826431379,181.3497028161073 69.6042996654287,181.63636363635305 69.86848106654361,181.49303323135246 69.73639036575332,179.62973700882867 68.28339266078547,176.90645471122116 67.2266670577228,175.32981585292146 65.90576005261391,172.31986540090293 65.64157865243033,170.74322283361107 64.05649024667218,168.3065909029683 63.13185534393415,166.15661902329884 62.86767394281924,163.5766496383585 62.4714018413797,162.0" stroke="#4dd2ff" stroke-linecap="round" stroke-linejoin="round" stroke-width="0.5"><title>2023-10-24 1.0km</title><desc>10092835699</desc></polyline><polyline fill="none" points="86.68335266271606,165.39046560798306 88.63620366761461,172.31264764862135 89.5475341361016,174.00787210231647 90.5890546720475,178.24592669354752 92.15133547550067,181.07129122805782 92.80228581093252,181.63636363635305 92.15133547550067,180.93002309976146 91.24000500701368,178.6697316385107 88.89658380113542,175.84436357265804 88.37582353362814,174.85548376839142 87.85506326565519,171.6063036848791 86.29278246173635,168.49838715977967 85.25126192625612,165.249196327175 84.6003115917556,162.0" stroke="#4dd2ff" stroke-linecap="round" stroke-linejoin="round" stroke-width="0.5"><title>2023-10-23 1.0km</title><desc>10087395010</desc></polyline><polyline fill="none" points="104.94115039962344,162.0941806390183 105.28832041448914,162.0 107.76190677122213,162.18836126406677 108.84681306779385,162.47090305626625 109.10719057917595,162.61217390571255 109.67134185368195,163.0359862667974 110.06190812028944,163.5068885613 110.92983315745369,165.1079537726473 111.36379567650147,166.8973748605349 111.92794695077464,167.83917342487257 112.18832446192391,168.59261127916398 112.79587198793888,169.95821513107512 113.22983450698666,171.37090570677537 113.88077828497626,172.5010559237562 114.18455204786733,172.83068269473733 114.57511831494048,173.48993572779 114.79209957411513,174.9026185136172 114.92228832980618,175.2793333969894 115.26945834467188,175.79731599980732 115.35625084862113,176.59783374378458 115.48643960407935,176.9274584063096 117.39587468630634,181.44800809194567 117.65625219768845,181.63636363635305 117.65625219768845,181.40091919706902 117.26568593084812,181.0242079141899 116.831723412266,179.98825074371416 116.39776089321822,179.09355911187595 115.22606209293008,175.46769075555494" stroke="#4dd2ff" stroke-linecap="round" stroke-linejoin="round" stroke-width="0.5"><title>2023-10-22 1.5km</title><desc>10080655811</desc></polyline><polyline fill="none" points="130.77289352286607,162.0 131.46183698740788,162.49839189951308 130.22173875104636,162.29903518367792 132.15078045218252,164.79098991729552 132.33449870953336,165.3890576902195 132.19671001657844,165.8874470977462 131.55369611619972,166.23631946515525 131.36997785884887,166.58519165281905 131.4159074232448,167.18325784249464 131.78334393771365,168.6285822892096 132.19671001657844,169.67519462003838 132.6560056596063,171.27002934983466 133.48273781733587,172.71534508280456 133.6205265102908,173.26356748573016 134.1257517177146,174.16065773402806 134.44725866802037,174.5593641300802 134.49318823195063,174.8085555084399 134.81469518248923,175.10758504166733 135.04434300400317,175.6059673037962 135.36584995430894,176.55289259238634 135.6873569043819,177.20078808034305 135.6414273402188,178.49657719855895 136.2385116762016,179.64285012311302 136.42222993355244,180.19106692366768 136.7437368836254,180.7891211095266 137.2948916554451,181.4868503261241 137.57046904135495,181.63636363635305 136.51408906211145,180.14122905104887 136.28444124059752,179.3438225905993 135.8251455973368,178.3470631959499 135.6414273402188,177.69916880351957 135.04434300400317,176.8519213561085 134.53911779657938,175.406614442938" stroke="#4dd2ff" stroke-linecap="round" stroke-linejoin="round" stroke-width="0.5"><title>2023-10-20 1.4km</title><desc>10069668027</desc></polyline><polyline fill="none" points="152.54225658276118,162.0 152.63577729091048,162.7611097744084 153.38394295424223,164.5877698076656 153.570984370308,165.7040596701554 155.1140760513954,169.45883959176717 155.2543571132701,169.9662407169235 155.3478778214194,170.72734170535114 155.53491923725232,171.23474189796252 156.65716773248278,172.80768012418412 157.26505233417265,174.02543628879357 157.63913516607136,175.24319030460902 157.96645764401183,175.9028061660938 158.15349905984476,176.91759856807766 158.38730082986876,177.42499420949025 158.9951854313258,178.9979183272808 159.08870613924228,179.6067912169965 159.9771528649144,181.43340666306904 160.21095463470556,181.63636363635305 160.35123569658026,181.63636363635305 160.44475640449673,181.58562439854722 160.39799605077133,181.5348851570743 159.46278897114098,180.36788157362025 159.04194578551687,178.94717889558524 158.15349905984476,177.32351511099841 158.01321799797006,176.66390060738195 157.91969728982076,175.5476284729084" stroke="#4dd2ff" stroke-linecap="round" stroke-linejoin="round" stroke-width="0.5"><title>2023-10-19 1.3km</title><desc>10064004415</desc></polyline><polyline fill="none" points="174.66305953497067,162.0 176.5882115154527,164.50678116001654 176.45986805018038,166.3172321569873 176.71655498072505,168.12768142367713 177.6149592390284,171.33077973301988 178.89839389221743,173.41975397372153 180.18182854633778,177.040637200349 182.7486978545785,181.21857078454923 183.13372825086117,181.63636363635305 183.51875864667818,181.49709936243016 181.85029359627515,179.825927280006 178.7700504269451,173.8375485453289 177.9999896348454,171.1915147016989 175.81815072288737,166.5957629258046" stroke="#4dd2ff" stroke-linecap="round" stroke-linejoin="round" stroke-width="0.5"><title>2023-10-18 1.0km</title><desc>10058081424</desc></polyline><polyline fill="none" points="17.48173712939024,185.00826988718472 18.57849033875391,191.4049812675221 21.45746751409024,198.99175227002706 23.376785630360246,203.00826657901052 24.199350537732244,203.4545454545878 24.610632991418242,203.4545454545878 24.884821293409914,202.85950693232007 23.925162235740572,201.6694293617038 22.691314874682575,199.73555181792472 21.04618506040424,196.16531149565708 20.36071430472657,194.08266839885619 17.48173712939024,188.28100846894085 17.20754882739857,187.38844392611645 16.933360524941236,183.81818181823473" stroke="#4dd2ff" stroke-linecap="round" stroke-linejoin="round" stroke-width="0.5"><title>2023-10-17 1.0km</title><desc>10051702317</desc></polyline><polyline fill="none" points="39.12158852024004,184.27133078686893 40.513621849473566,186.6881235985784 42.601671842392534,192.12589702999685 43.71529850596562,194.24058281094767 44.968128501903266,198.16785062954295 46.49936516396701,202.09511094167829 47.05617849575356,203.1524489739677 47.75219515990466,203.4545454545878 47.89139849320054,203.30349721992388 47.75219515990466,202.85035244876053 46.22095849830657,200.584627094795 44.13290850492194,195.44897370843682 42.601671842392534,192.2769460863201 41.34884184692055,186.38602465228178 40.652825181838125,183.81818181823473" stroke="#4dd2ff" stroke-linecap="round" stroke-linejoin="round" stroke-width="0.5"><title>2023-10-16 1.0km</title><desc>10046279660</desc></polyline><polyline fill="none" points="62.08246648637578,183.81818181823473 62.65695643192157,185.06494047271553 63.2314463770017,187.8701447645435 64.52404875447974,192.2337885069428 66.24751858972013,194.88313925359398 68.25823339819908,202.3636411356274 68.97634583013132,203.1428585635731 69.9817032343708,203.4545454545878 70.12532572122291,203.1428585635731 69.9817032343708,202.20779761555605 68.1146109122783,199.5584560232237 67.10925350803882,196.44157932233065 65.9602736174129,194.57145110226702 63.2314463770017,188.18183390132617 62.22608897276223,183.81818181823473" stroke="#4dd2ff" stroke-linecap="round" stroke-linejoin="round" stroke-width="0.5"><title>2023-10-15 1.0km</title><desc>10039610121</desc></polyline><polyline fill="none" points="84.61500641517341,185.24340778426267 85.05282344575971,189.83579614944756 86.22033552825451,193.1613126466982 87.67972563020885,195.21996314299759 88.55535969231278,198.07039904419798 91.03632286563516,202.50440294819418 91.6200789064169,203.13783133239485 92.34977395832539,203.4545454545878 92.78759098798037,203.13783133239485 92.78759098798037,202.66276006156113 89.86881078314036,200.28740213694982 87.97160365059972,196.8035391094163 87.24190859962255,193.79474377818406 85.49064047634602,189.83579614944756 84.61500641517341,186.51027451839764 84.76094542536885,184.451615697355 84.61500641517341,183.81818181823473" stroke="#4dd2ff" stroke-linecap="round" stroke-linejoin="round" stroke-width="0.5"><title>2023-10-14 1.0km</title><desc>10033377496</desc></polyline><polyline fill="none" points="106.84640487655997,184.129871550831 109.43160925107077,187.2467663543066 109.71885418146849,189.58443444920704 112.16043609008193,197.06495502928738 114.45839553372934,202.51948464405723 115.17650785949081,203.4545454545878 115.75099772075191,203.4545454545878 115.75099772075191,202.98701510112733 115.60737525485456,202.51948464405723 114.314773067832,201.58442342106719 112.87854841630906,198.9350810496835 111.29870129842311,193.94807466259226 108.42625199444592,187.55845558235887 107.99538459861651,185.3766300220741 107.27727227238938,183.81818181823473" stroke="#4dd2ff" stroke-linecap="round" stroke-linejoin="round" stroke-width="0.5"><title>2023-10-13 1.0km</title><desc>10028006924</desc></polyline><polyline fill="none" points="129.68281357269734,183.81818181823473 131.06422023614869,185.6169405542314 131.8930642339401,187.11590495484415 132.03120490070432,189.06455702870153 131.8930642339401,191.16310333297588 133.41261156369,194.31091873976402 135.20844022603706,199.10758049006108 137.00426888884977,202.40527889772784 137.41869088774547,203.00485985376872 138.1093942192383,203.4545454545878 138.1093942192383,202.70506939769257 136.5898468894884,200.756430360605 135.20844022603706,198.3581028355984 133.41261156369,193.41154340514913 132.30748623330146,191.46289548603818 131.7549235681072,189.8140380998375" stroke="#4dd2ff" stroke-linecap="round" stroke-linejoin="round" stroke-width="0.5"><title>2023-10-12 1.0km</title><desc>10021974100</desc></polyline><polyline fill="none" points="154.1976903313771,186.60245410341304 154.73788236966357,189.53326283406932 154.60283436020836,190.70558511989657 155.8182664453052,194.66216774319764 156.7636025119573,196.42064638785087 157.7089385795407,199.6445198743604 159.05941867409274,202.8683881467441 159.3295146934688,203.16146682202816 160.0047547412105,203.4545454545878 159.86970673128963,202.8683881467441 158.38417862681672,199.05836144660134 156.7636025119573,196.2741065598093 154.60283436020836,191.29174600390252 154.06264232145622,189.38672249997035 153.79254630301148,186.60245410341304 152.98225824534893,183.81818181823473" stroke="#4dd2ff" stroke-linecap="round" stroke-linejoin="round" stroke-width="0.5"><title>2023-10-10 1.0km</title><desc>10009069592</desc></polyline><polyline fill="none" points="175.76435934519395,186.27273801004048 176.69579327385873,188.87167651590426 177.62722720298916,192.3369225076167 179.62315705046058,196.6684713989962 181.21990092797205,202.15508628054522 182.15133485663682,203.4545454545878 182.41745883692056,203.02139249211177 182.55052082659677,201.43316414533183 181.61908689746633,198.68985761201475 179.62315705046058,195.22462282993365 177.36110322363675,188.87167651590426 176.69579327385873,185.98396685230546 175.63129735505208,183.81818181823473" stroke="#4dd2ff" stroke-linecap="round" stroke-linejoin="round" stroke-width="0.5"><title>2023-10-09 1.0km</title><desc>10003389142</desc></polyline><polyline fill="none" points="16.911041549872607,205.63636363635305 17.893018586095423,206.85412803827785 18.874995621852577,209.13743436080404 19.436125356238335,213.70403945213184 21.54036186169833,218.2706344713224 23.36403349880129,223.44609665090684 24.20572810061276,224.9682889477117 24.907140268944204,225.2727272727061 24.907140268944204,224.05497370415833 22.241774029564112,219.79283057292923 18.734713188372552,211.2685179898981 17.331888851244003,205.7885842260439" stroke="#4dd2ff" stroke-linecap="round" stroke-linejoin="round" stroke-width="0.5"><title>2023-10-08 1.0km</title><desc>9996447828</desc></polyline><polyline fill="none" points="40.98591979779303,209.56365253264084 41.63222074927762,211.94807398936246 43.57112360140309,217.137686858885 44.21742455288768,219.38183940306772 46.28558759531006,224.57143205136526 46.93188854632899,225.2727272727061 47.06114873662591,224.7116911164485 47.06114873662591,224.15065479534678 44.60520512331277,219.80261771124788 43.44186341157183,217.27794646995608 41.373700368683785,211.1065138153499 40.727399417199194,207.88052970950957 39.95183827634901,205.63636363635305" stroke="#4dd2ff" stroke-linecap="round" stroke-linejoin="round" stroke-width="0.5"><title>2023-10-07 1.0km</title><desc>9989974159</desc></polyline><polyline fill="none" points="64.4996032579802,211.4855145162437 65.5263506793417,214.8278783382848 66.29641124513,216.49905803822912 67.83653237717226,223.044497666182 68.22156266029924,224.29787714208942 68.9916232265532,225.2727272727061 69.63334036432207,225.2727272727061 69.89002721942961,224.715670116595 69.7616837923415,224.29787714208942 68.22156266029924,222.06964638864156 66.68144152825698,218.72729534399696 66.16806781757623,216.49905803822912 63.47285583708435,209.9535957936896 63.08782555395737,207.5860826028511 62.317764988169074,205.63636363635305" stroke="#4dd2ff" stroke-linecap="round" stroke-linejoin="round" stroke-width="0.5"><title>2023-10-06 1.0km</title><desc>9984428862</desc></polyline><polyline fill="none" points="84.47385073639452,205.63636363635305 86.69882334955037,211.59167285484727 88.18213842529804,216.58124378195498 90.70377405360341,222.8584297640482 91.74209460616112,224.95082109270152 92.18708912935108,225.2727272727061 92.78041515965015,225.2727272727061 92.92874666675925,224.95082109270152 92.48375214356929,224.1460554334335 90.70377405360341,221.57080333784688 89.6654535010457,219.47840877925046 87.8854754101485,214.81075217411853 87.14381787274033,212.39644312835298 85.06717676669359,208.53354311734438 85.06717676669359,207.0849538560724" stroke="#4dd2ff" stroke-linecap="round" stroke-linejoin="round" stroke-width="0.5"><title>2023-10-04 1.0km</title><desc>9971682885</desc></polyline><polyline fill="none" points="108.32666075741872,207.92967177950777 108.98711421107873,210.22297722520307 109.64756766427308,211.79962315422017 110.17593042785302,214.23625526379328 112.685653551016,219.25284119462594 112.81774424249306,220.97281054221094 113.61028838669881,224.41274468542542 113.87446976779029,224.842736026505 114.6670139124617,225.2727272727061 114.6670139124617,223.83942274970468 112.94983493350446,220.68614908971358 111.76101871673018,217.96286318823695 111.1005652626045,216.6728843281744 110.4401118089445,214.80958002363332 109.11920490209013,212.08628591359593 108.5908421385102,209.93631419201847 108.32666075741872,207.7863400997594 107.93038868531585,205.63636363635305" stroke="#4dd2ff" stroke-linecap="round" stroke-linejoin="round" stroke-width="0.5"><title>2023-10-03 1.0km</title><desc>9965060084</desc></polyline><polyline fill="none" points="130.3067277772352,206.44778708112426 132.10141583625227,212.2900270796381 132.40053051244467,214.8865732268896 133.44743188098073,216.18484515487216 134.19521857239306,218.13225161540322 135.54123461712152,223.16304368712008 136.58813598472625,224.7858773933258 137.33592267613858,225.2727272727061 137.4854800151661,225.1104439913761 137.03680799994618,223.81217731256038 135.39167727902532,220.72879089042544 132.69964518863708,214.23743697616737 131.05451446771622,209.36890901299194 130.7553997915238,205.63636363635305" stroke="#4dd2ff" stroke-linecap="round" stroke-linejoin="round" stroke-width="0.5"><title>2023-10-02 1.0km</title><desc>9958643020</desc></polyline><polyline fill="none" points="153.38091962691396,209.09237672155723 153.67046259110793,210.50619864545297 156.85543519910425,218.0465664388612 158.44792150286958,222.91637316404376 159.3165503963828,224.6443664309336 160.18517928896472,225.2727272727061 160.32995077129453,225.11563707957976 160.18517928896472,224.48727619170677 157.28974964516237,220.0887448041467 154.5390914841555,213.3338396861218 153.23614814458415,209.24946809280664 152.65706221573055,205.63636363635305" stroke="#4dd2ff" stroke-linecap="round" stroke-linejoin="round" stroke-width="0.5"><title>2023-10-01 1.0km</title><desc>9952075403</desc></polyline><polyline fill="none" points="176.27153806900606,208.48222578293644 177.45173989236355,210.9012053173501 177.97627403540537,213.3201818286907 178.36967464303598,215.59686284209602 180.33667768212035,221.14626159286126 182.04141364898533,224.7035601157695 182.82821486424655,225.2727272727061 183.09048193646595,224.8458519205451 180.46781121846288,220.8616774288239 179.2876093951054,218.15812578098848 178.89420878700912,216.73520234436728 177.05833928473294,212.75101115682628 176.00927099678665,208.33993277477566 175.09133624564856,205.63636363623664" stroke="#4dd2ff" stroke-linecap="round" stroke-linejoin="round" stroke-width="0.5"><title>2023-09-30 1.0km</title><desc>9945549317</desc></polyline><polyline fill="none" points="17.86889157164842,227.4545454545878 19.171834144741297,229.653827155591 19.606148336082697,231.38183261838276 20.764319512061775,234.209474906791 21.343405100982636,238.4509313229937 21.777719291858375,239.7076575331157 23.514976056292653,243.9491030354984 23.949290247168392,246.61963847710285 24.238833041395992,246.9338188978145 24.673147232737392,247.09090909094084 24.81791862938553,246.7767286930466 22.212033483199775,242.06401718524285 20.474776718299836,237.97965880366974 19.895691130310297,235.6232946475502 17.86889157164842,230.91055854025763 17.00026318896562,228.08291188580915" stroke="#4dd2ff" stroke-linecap="round" stroke-linejoin="round" stroke-width="0.5"><title>2023-09-28 1.0km</title><desc>9933629332</desc></polyline><polyline fill="none" points="39.667854451108724,229.68596000992693 40.76460846699774,233.55373941059224 42.821022246498615,236.38018891238607 44.19196476601064,241.43803606170695 46.11128429370001,244.85951372922864 46.65966130187735,246.79338985146023 47.20803830912337,247.09090909094084 47.4822268136777,246.64463021524716 47.20803830912337,246.04959156154655 46.11128429370001,244.5619941613404 42.95811649831012,238.16531287913676 41.31298547424376,233.70250000886153 39.53076019929722,227.45454545447137" stroke="#4dd2ff" stroke-linecap="round" stroke-linejoin="round" stroke-width="0.5"><title>2023-09-27 1.0km</title><desc>9927137811</desc></polyline><polyline fill="none" points="67.73515577684157,227.45454545452958 67.34365345537663,229.3426834429847 66.95215113391168,230.42836027150042 66.64764932845719,231.7500513236737 64.86413875268772,235.4790935513447 63.950633336091414,237.03678832110018 63.77663230407052,237.69762738444842 63.863632819848135,238.21685760002583 64.08113410975784,238.9721008001361 64.73363797878847,240.5769896506099 64.95113926869817,241.00181249820162 65.21214081626385,241.7570524222101 66.08214597497135,242.8427082564449 66.4736482964363,243.6923506720923 66.90865087602288,244.3531828848063 67.25665293959901,245.2972277229419 67.7786560349632,246.00526044052094 68.43115990399383,247.09090909088263" stroke="#4dd2ff" stroke-linecap="round" stroke-linejoin="round" stroke-width="0.5"><title>2023-09-26 1.0km</title><desc>9920397094</desc></polyline><polyline fill="none" points="88.60959509736858,227.45454545452958 87.75369479483925,230.3071518392535 86.89779449230991,231.83296085434267 86.10302992560901,232.82805230014492 85.67507977457717,233.6241246665595 85.49167256685905,234.42019633046584 85.55280830245465,235.41528492275393 85.85848698229529,236.21135500638047 86.59211581293494,237.3391197558958 86.89779449230991,238.46688309579622 87.50915185105987,239.92633944307454 88.67073083319701,241.38579342979938 90.62707438180223,245.36611048603663 91.91092483582906,247.09090909088263" stroke="#4dd2ff" stroke-linecap="round" stroke-linejoin="round" stroke-width="0.5"><title>2023-09-25 1.0km</title><desc>9914573673</desc></polyline><polyline fill="none" points="112.7463910006918,227.45454545447137 112.26382776675746,228.18764609313803 112.16731511987746,228.5541961294366 112.26382776675746,229.02547447034158 112.31208409019746,229.4967524993117 111.34695762209594,231.27713334967848 111.10567600489594,232.48150610696757 110.7678817412816,233.37169335759245 108.7411161584314,236.93243123288266 108.6928598349914,237.3513404005207 108.88588512851857,238.18915799702518 109.41670468612574,239.0269746078411 109.70624262653291,239.76006333372789 110.14054953702725,240.49315130501054 110.38183115399443,241.22623852163088 111.00916335824877,242.221141394577 111.49172659218311,243.21604287769878 112.02254614979029,243.79203783796402 112.16731511987746,244.31566921569174 112.50510938372463,244.73457404068904 113.22895423485897,245.9912870376138 113.75977379223332,246.56727975339163 113.90454276232049,247.09090909088263" stroke="#4dd2ff" stroke-linecap="round" stroke-linejoin="round" stroke-width="0.5"><title>2023-09-24 1.0km</title><desc>9907510217</desc></polyline><polyline fill="none" points="134.62814909010194,227.45454545447137 134.21820378140546,228.0900334637845 133.92538570379838,228.7255210057483 133.7496948572807,229.5516541118268 133.6911312416196,230.63198082806775 132.69554977747612,231.96650020167 132.10991362226196,233.49166267656256 131.58284108224325,234.2542429046589 131.23145938897505,235.27101549570216 131.17289577331394,236.3513350628782 132.40273169986904,239.4651897896547 132.8712406239938,240.41840838169446 134.39389462815598,242.83322410978144 135.03809439903125,244.42191498843022 135.8579850164242,245.43867561820662 136.32649394101463,246.26479274930898 136.6193120186217,247.09090909088263" stroke="#4dd2ff" stroke-linecap="round" stroke-linejoin="round" stroke-width="0.5"><title>2023-09-23 1.0km</title><desc>9901004991</desc></polyline><polyline fill="none" points="157.24751345952973,227.45454545452958 156.85654688463546,228.1818265238544 156.4655803097412,229.45456685096724 155.5719424241688,231.33337040868355 154.67830453882925,232.6061058694031 153.89637138904072,234.72732727008406 153.84051902103238,235.87884517293423 153.95222375704907,236.5455126974266 155.06927111372352,239.21217740292195 155.23682821705006,240.00005396042252 155.46023768838495,240.42429487174377 156.24217083817348,241.39398756361334 156.85654688463546,242.60610182397068 157.35921819508076,243.87881987943547 158.1970037126448,245.09093048621435 159.1464939659927,247.09090909088263" stroke="#4dd2ff" stroke-linecap="round" stroke-linejoin="round" stroke-width="0.5"><title>2023-09-22 1.0km</title><desc>9895405405</desc></polyline><polyline fill="none" points="180.1318379517179,227.45454545447137 179.97169505013153,228.03379622573266 179.6514092469588,228.38134648406412 178.95745667279698,229.65569611924002 178.69055183697492,230.58249455911573 177.8898373285774,232.6098623450962 177.03574185306206,234.34760200895835 176.50193218071945,235.62194199307123 176.34178927913308,236.25911121198442 176.34178927913308,236.66458226484247 176.50193218071945,237.24382626404986 176.82221798412502,237.82306983741 177.51617055828683,239.6187222081935 178.21012313198298,240.89305366569897 178.5837899025064,241.81983888568357 179.27774247620255,242.97831887751818 179.7047902138438,243.49963431817014 180.02507601724938,244.42641647183336 180.87917149276473,245.93243514624191 181.8400289027486,247.09090909088263" stroke="#4dd2ff" stroke-linecap="round" stroke-linejoin="round" stroke-width="0.5"><title>2023-09-21 1.0km</title><desc>9889267953</desc></polyline><polyline fill="none" points="22.90831688605249,249.2727272727061 22.207557265181094,251.37505618331488 21.795345723628998,253.03007595892996 21.135807256679982,254.41671068262076 20.352605327498168,256.742671508342 18.99230724014342,259.29227219644235 18.62131685274653,260.6788926460431 18.66253800666891,260.9920000520651 18.90986493160017,261.66294395091245 19.445739936083555,262.8259116227855 19.775509169325233,263.8099594548112 20.599932252662256,264.9729230222292 21.094586102757603,265.9122381269699 21.38313418184407,266.58317659958266 21.712903415085748,267.1646560105728 22.248778419336304,267.56721835420467 22.90831688605249,268.5512585171964 22.9495380402077,268.73017473943764 23.196864965371788,268.90909090911737" stroke="#4dd2ff" stroke-linecap="round" stroke-linejoin="round" stroke-width="0.5"><title>2023-09-20 1.0km</title><desc>9882714971</desc></polyline><polyline fill="none" points="45.134678626665846,249.2727272727643 44.71600245288573,250.33280237665167 43.92516968026757,252.6548659314867 43.878650105325505,253.41205887083197 43.59953265613876,253.8158947636839 43.273895632242784,254.5730864224024 43.087817332707345,255.27979788382072 42.71566073363647,256.2389051319333 41.64571051183157,257.95519896870246 41.366593062644824,258.96478157432284 41.27355391299352,259.8734046500176 41.366593062644824,260.7820265230839 41.64571051183157,261.791604971746 41.971347535727546,262.49830900260713 42.99477818282321,264.2650658969651 43.50649350648746,264.9717673815903 43.97168925497681,266.2337325094268 44.43688500369899,267.04138897382654 44.90208075218834,267.69760915165534 45.41379607561976,268.2023934770841 45.7394330999814,268.90909090911737" stroke="#4dd2ff" stroke-linecap="round" stroke-linejoin="round" stroke-width="0.5"><title>2023-09-19 1.0km</title><desc>9876194288</desc></polyline><polyline fill="none" points="65.95935787330382,249.2727272727643 65.61246611969545,249.83735745755257 65.03431319748051,250.96661670639878 64.86086732079275,251.71945537504507 63.8201920602005,253.53881274879677 63.010777968680486,255.23269371298375 62.83733209199272,255.86005617969204 62.895147384377196,256.5501543600694 63.24203913798556,257.42846032819944 63.76237676804885,258.36950143345166 64.2248991059605,259.6869572373107 64.86086732079275,261.06714685005136 65.55465082754381,262.32186274259584 66.19061904237606,263.13742708339123 66.94221784151159,264.39213993167505 67.40474017919041,265.835057426244 68.21415427094325,267.0897663079086 68.61886131670326,268.2190027239849 69.3704601158388,268.90909090911737" stroke="#4dd2ff" stroke-linecap="round" stroke-linejoin="round" stroke-width="0.5"><title>2023-09-18 1.0km</title><desc>9870505463</desc></polyline><polyline fill="none" points="88.89860895718448,249.2727272727643 88.61673716292717,249.82328583922936 88.22211665147915,251.65847842936637 87.71474742237478,252.5149002528051 87.48924998682924,253.18780249543488 86.24901409330778,255.2065059581655 85.79801922291517,256.307614873338 85.51614742889069,257.2863771299599 85.74164486397058,257.95927551347995 86.98188075749204,260.6508636053768 87.6019987044856,261.6296207527048 88.0529935748782,262.66954896005336 88.78586023952812,263.6483037326252 89.18048075120896,264.3211969708209 89.68784998031333,265.91166973434156 91.88644997379743,268.90909090911737" stroke="#4dd2ff" stroke-linecap="round" stroke-linejoin="round" stroke-width="0.5"><title>2023-09-16 1.0km</title><desc>9856514700</desc></polyline><polyline fill="none" points="111.0272584517952,249.2727272727643 110.42405212530866,251.10547287203372 109.63988390052691,252.34911952260882 108.011226818664,255.49095595336985 107.9509061856661,256.2109585738508 108.011226818664,257.0618700106861 108.37315061455593,257.912780634244 108.9763569412753,258.8291450116085 109.51924263499677,260.07278087211307 110.4843727578409,261.70914119959343 111.69078541127965,264.0000406051986 111.81142667657696,264.85094459721586 112.23367110523395,265.17821514682146 112.71623616665602,265.83275588508695 113.50040439097211,267.14183591800975 114.3448932482861,267.86182911565993 114.52585514634848,268.3200063018594 114.64649641187862,268.90909090911737" stroke="#4dd2ff" stroke-linecap="round" stroke-linejoin="round" stroke-width="0.5"><title>2023-09-15 1.0km</title><desc>9850671982</desc></polyline><polyline fill="none" points="134.39530850807205,249.2727272727643 133.39689928432927,251.91350399161456 132.2736889072694,253.53859359305352 131.77448429563083,254.4188492631656 131.0256773775909,256.31478169490583 130.83847564808093,256.9918994746404 130.83847564808093,257.5335933396127 131.0256773775909,258.2107102231821 131.77448429563083,260.24205788661493 132.46089063677937,261.5962871729862 134.14570620213635,264.50787339551607 134.83211254351772,265.79438530578045 134.95691369636916,266.5392071692622 135.45611830847338,267.0131844050484 136.26732580270618,268.29969281551894 136.95373214408755,268.90909090911737" stroke="#4dd2ff" stroke-linecap="round" stroke-linejoin="round" stroke-width="0.5"><title>2023-09-14 1.0km</title><desc>9844236351</desc></polyline><polyline fill="none" points="153.3726847684011,249.2727272727643 153.7319160462357,249.56508434808347 153.8666277753655,249.85744129441446 153.95643559470773,250.4908809022163 154.22585905296728,251.02686778991483 154.4054746918846,252.537373958854 154.4054746918846,253.26826280454407 154.31566687254235,253.65806985925883 154.4054746918846,254.14532835537102 154.6299942403566,254.73003807774512 154.54018642101437,255.21729578560917 154.5850903308019,255.4609245051397 155.03412942797877,256.2892614818411 155.4382646153681,257.5074022138142 155.7974958929699,258.189560045721 156.24653499014676,258.8229916894343 156.74047799687833,259.26152093417477 156.8751897260081,259.55387360288296 157.0099014553707,260.1873039426282 157.3691327329725,260.82073367695557 157.77326792036183,261.9901408266742 158.31211483688094,263.0133703900501 158.5815382951405,263.8904230442131 158.71625002427027,264.62129936920246 158.98567348252982,265.20599984913133 159.47961648949422,266.81392350868555 160.1531751351431,268.0807697052369 160.19807904516347,268.2756689051748 160.1531751351431,268.4218432675116 159.614328218624,268.90909090911737 159.88375167688355,268.71419189544395 160.01846340601332,268.4218432675116 160.10827122535557,268.1782193123945 160.0633673160337,267.8371456247405 159.7939438575413,267.4960717615322 158.98567348252982,265.7419748356333 158.5815382951405,264.4263990946929 157.72836401080713,262.52611841395264 157.32422882318497,260.67455763818 157.09970927471295,260.1385785534512 156.24653499014676,259.0178936118609 155.39336070558056,257.4099510376691 154.9892255179584,256.09435875696363 154.8545137892943,255.21729578560917 154.49528251122683,254.29150583437877 153.77681995602325,252.73227772989776 153.5972043168731,252.0013882930507 152.96854958101176,250.83196351729566 152.83383785188198,250.19852423545672 152.78893394209445,249.41890582657652" stroke="#4dd2ff" stroke-linecap="round" stroke-linejoin="round" stroke-width="0.5"><title>2023-09-13 1.0km</title><desc>9837636972</desc></polyline></svg>