<?xml version="1.0" encoding="utf-8" ?>
<svg baseProfile="full" height="300mm" version="1.1" viewBox="0,0,200,300" width="200mm" xmlns="http://www.w3.org/2000/svg" xmlns:ev="http://www.w3.org/2001/xml-events" xmlns:xlink="http://www.w3.org/1999/xlink"><defs /><rect fill="#222222" height="300" width="200" x="0" y="0" /><text fill="#FFFFFF" style="font-size:12px; font-family:Arial; font-weight:bold;" x="10" y="20">Over 1km Runs</text><text fill="#FFFFFF" style="font-size:4px; font-family:Arial" x="10" y="280">ATHLETE</text><text fill="#FFFFFF" style="font-size:9px; font-family:Arial" x="10" y="290">Jiakai</text><text fill="#FFFFFF" style="font-size:4px; font-family:Arial" x="120" y="280">STATISTICS</text><text fill="#FFFFFF" style="font-size:3px; font-family:Arial" x="120" y="285">Number: 60</text><text fill="#FFFFFF" style="font-size:3px; font-family:Arial" x="120" y="290">Weekly: 6.0</text><text fill="#FFFFFF" style="font-size:3px; font-family:Arial" x="141" y="285">Total: 62.3 km</text><text fill="#FFFFFF" style="font-size:3px; font-family:Arial" x="141" y="290">Avg: 1.0 km</text><text fill="#FFFFFF" style="font-size:3px; font-family:Arial" x="167" y="285">Min: 1.0 km</text><text fill="#FFFFFF" style="font-size:3px; font-family:Arial" x="167" y="290">Max: 1.5 km</text><polyline fill="none" points="18.35925838770345,51.90590775629971 19.370018942747265,48.72515182720963 19.774323164951056,47.95738213835284 20.4818555531092,47.518656424595974 23.91844143997878,47.0799305816181 26.44534282758832,46.53152309637517 27.25395127153024,45.873433847911656 27.75933154951781,45.21534430934116 28.365787882357836,42.47330143931322 28.16363577125594,41.59584665612783 28.56793999345973,40.93775523011573 28.264711826574057,35.89237798273098 28.062559715937823,35.23428404016886 27.961483660154045,33.26000046962872 27.75933154951781,32.05349255690817 26.647494939155877,31.724444774794392 25.737810439430177,32.38254026602954 25.93996255006641,32.05349255690817 26.142114661168307,32.38254026602954 24.828125939704478,31.724444774794392 24.727049884852022,31.285714285681024 24.423821717966348,31.50507954636123 24.625973829068244,31.39539692015387 23.91844143997878,32.27285770443268 24.019517495762557,32.16317513468675 26.142114661168307,33.26000046962872 25.63673438411206,33.698730377829634 24.828125939704478,34.027777724317275 22.907680885400623,34.356824998161756 22.806604829616845,33.91809528332669 23.311985107138753,33.698730377829634 24.019517495762557,33.8084128346527 26.142114661168307,31.724444774794392 29.07332027051598,31.83412737690378 28.770092104561627,31.614762164535932 28.365787882357836,31.50507954636123 28.062559715937823,36.76983612135518 28.16363577125594,38.30538662197068 28.466863937675953,40.16998153261375 28.66901604924351,43.35075570619665 28.66901604924351,44.447572813834995 28.365787882357836,45.544389114831574 27.75933154951781,46.20247850846499 22.705528774298728,46.750886114663444 20.38077949779108,47.189612054498866 19.16786683164537,48.0670635466231 17.752802054397762,50.04132751713041 16.94419361045584,52.893037527566776 16.640965444035828,54.428571428521536" stroke="#4dd2ff" stroke-linecap="round" stroke-linejoin="round" stroke-width="0.5"><title>2023-11-18 1.0km</title><desc>10236386505</desc></polyline><polyline fill="none" points="43.84881693031639,31.285714285681024 47.20034777279943,37.07145090273116 48.41908626072109,41.3694170381641 48.87611319310963,43.849009147961624 49.790167059749365,45.3367631015135 52.68467096798122,53.767350244452246 53.29404021240771,54.428571428521536 53.29404021240771,53.767350244452246 52.68467096798122,52.94082349096425 51.00890554767102,47.98165658861399 50.09485168103129,46.32859852374531 49.790167059749365,43.518397024832666 48.41908626072109,40.04696679417975 46.89566315058619,36.74083778320346 46.743320839479566,34.922464754548855" stroke="#4dd2ff" stroke-linecap="round" stroke-linejoin="round" stroke-width="0.5"><title>2023-11-17 1.0km</title><desc>10231268371</desc></polyline><polyline fill="none" points="70.15772665664554,32.0322613583412 72.39371995534748,35.20508396439254 72.90971840918064,39.49772000266239 74.4577137697488,42.85716922977008 76.86570655368268,51.81567876855843 78.41370191425085,54.42857142863795 78.24170242995024,52.93549023801461 77.03770603891462,50.5092314297799 76.17770861554891,48.082970302319154 74.80171273835003,42.29726133355871 72.04972098674625,36.51153917913325 71.18972356338054,33.898628077004105 70.67372510954738,31.285714285913855" stroke="#4dd2ff" stroke-linecap="round" stroke-linejoin="round" stroke-width="0.5"><title>2023-11-16 1.0km</title><desc>10225818993</desc></polyline><polyline fill="none" points="95.98667825013399,31.534563053166494 97.13334160670638,36.013837745646015 98.96800297871232,40.9908026738558 101.49066236335784,45.71891257795505 102.40799304842949,49.45162625797093 104.01332174800336,52.686641451437026 105.61865044850856,54.42857142863795 101.49066236335784,46.71430329512805 99.65600099228323,40.9908026738558 94.38134955149144,31.285714285681024" stroke="#4dd2ff" stroke-linecap="round" stroke-linejoin="round" stroke-width="0.5"><title>2023-11-15 1.0km</title><desc>10219684298</desc></polyline><polyline fill="none" points="121.62509661354125,34.069829374784604 123.70978125371039,36.67993429629132 124.030501967296,39.98606306454167 126.43590732011944,45.72827573912218 127.87915053125471,50.600445265416056 129.32239374238998,54.25456582871266 129.96383517049253,54.42857142863795 129.8034748127684,52.34050338040106 127.7187901744619,49.55640978273004 126.91698838956654,47.1203251988627 125.63410553522408,45.55426949914545 125.15302446484566,43.64020001515746 122.74761911202222,38.76801616116427 121.94581732805818,35.28787869610824 121.46473625767976,31.285714285681024" stroke="#4dd2ff" stroke-linecap="round" stroke-linejoin="round" stroke-width="0.5"><title>2023-11-14 1.0km</title><desc>10213806154</desc></polyline><polyline fill="none" points="148.33756665326655,34.472063627443276 149.57396856416017,39.16772822930943 152.97407381609082,47.88822255900595 153.74682500958443,50.73914616648108 155.29232739750296,53.92546833504457 155.75597811397165,54.428571428521536 154.82867668103427,52.75156068557408 152.6649733381346,47.55281954759266 152.51042309962213,46.21120700775646 150.9649207117036,42.52176845539361 148.64666713122278,38.329217402264476 147.7193656982854,35.47827828431036 147.10116474330425,31.285714285681024" stroke="#4dd2ff" stroke-linecap="round" stroke-linejoin="round" stroke-width="0.5"><title>2023-11-13 1.0km</title><desc>10208522228</desc></polyline><polyline fill="none" points="174.5576529596001,33.91559572634287 176.17340557463467,38.82469998905435 178.11230871267617,42.85717093083076 179.24333554226905,47.590932466322556 180.37436237279326,50.92209235811606 181.82853972632438,54.07792375353165 182.4748407714069,54.42857142863795 182.79799129534513,53.727276026736945 181.0206634188071,50.220795925706625 180.05121185071766,46.363661859417334 176.4965560976416,43.032495599705726 174.5576529596001,40.227299350779504 174.23450243659317,37.246774720959365 171.4877229910344,31.285714285681024" stroke="#4dd2ff" stroke-linecap="round" stroke-linejoin="round" stroke-width="0.5"><title>2023-11-12 1.0km</title><desc>10202270880</desc></polyline><polyline fill="none" points="19.355542183853686,62.38914310047403 23.17547019198537,71.02454834850505 24.448779528029263,75.34223906928673 25.722088864073157,78.79638593248092 26.517907199449837,80.35075036389753 27.313725533895195,81.21428571431898 27.472889200784266,80.52345745940693 26.0404161978513,76.20577626116574 23.33463385887444,72.06079484522343 20.46968785300851,65.49789264635183 19.355542183853686,60.83476678398438 18.24139651376754,58.07142857159488" stroke="#4dd2ff" stroke-linecap="round" stroke-linejoin="round" stroke-width="0.5"><title>2023-11-11 1.0km</title><desc>10196068378</desc></polyline><polyline fill="none" points="46.41992498189211,61.52256869641133 49.03914674278349,69.43987386161461 51.47128123603761,75.93610729952343 52.593804847449064,80.19925218750723 53.342153921723366,81.21428571431898 53.71632845979184,80.8082723482512 53.15506665315479,78.37219089805149 50.34875762369484,72.0789705386851 47.54244859330356,66.19175141211599 43.80070322006941,60.304519733646885 43.42652868293226,58.07142857136205" stroke="#4dd2ff" stroke-linecap="round" stroke-linejoin="round" stroke-width="0.5"><title>2023-11-10 1.0km</title><desc>10191120477</desc></polyline><polyline fill="none" points="68.91303026862442,58.77808399661444 71.68077658023685,60.898049026494846 73.30886264611036,63.72466615634039 73.79728846624494,64.78464672272094 73.79728846624494,66.37461669603363 75.5881831375882,71.85117188398726 76.23941756412387,75.03110142680816 77.5418864171952,78.5643515388947 77.86750362999737,80.3309746470768 78.68154666293412,81.21428571431898 79.16997248213738,81.03762352676131 79.65839830134064,80.3309746470768 77.86750362999737,79.09433860797435 74.93694871198386,74.85443878476508 71.51796797383577,65.49130017426796 70.70392494089901,60.191394224064425 69.88988190796226,58.07142857136205" stroke="#4dd2ff" stroke-linecap="round" stroke-linejoin="round" stroke-width="0.5"><title>2023-11-09 1.0km</title><desc>10185506531</desc></polyline><polyline fill="none" points="95.48533254303038,59.929622788215056 97.19779261294752,63.3081538771512 97.82050536479801,64.99741755891591 99.84432181157172,69.3894973192364 100.62271275278181,72.43016300420277 100.46703456435353,70.57197889685631 100.77839094121009,71.75445986620616 101.40110369306058,76.3154521904653 102.80220738705248,80.53858515981119 103.42492013983428,81.21428571431898 104.20331108011305,80.8764354614541 104.5146674560383,80.36965998983942 102.80220738705248,78.8493329033954 101.55678188148886,76.82222855673172 100.77839094121009,74.62619682983495 99.68864362314343,70.90983066475019 98.1318617425859,68.71379328717012 96.41940167173743,64.99741755891591 95.9523671073839,62.29459507192951 96.10804529488087,58.916062492644414 95.79668891895562,58.071428571478464" stroke="#4dd2ff" stroke-linecap="round" stroke-linejoin="round" stroke-width="0.5"><title>2023-11-08 1.0km</title><desc>10179505859</desc></polyline><polyline fill="none" points="124.67026098631322,70.85667343484238 129.89038462750614,81.21428571431898 130.18867740686983,81.0524483975023 129.44294545799494,79.2722371238051 128.10062795039266,77.0065116030164 127.20574961230159,74.74078375042882 125.41599293518811,72.79872944927774 124.81940737646073,71.6658636489883 124.37196820694953,67.78174790763296 124.07367542758584,66.64887952560093 122.28391875047237,63.57394812093116 121.23989402223378,58.071428571478464" stroke="#4dd2ff" stroke-linecap="round" stroke-linejoin="round" stroke-width="0.5"><title>2023-11-06 1.0km</title><desc>10167691585</desc></polyline><polyline fill="none" points="149.20371519587934,64.5647720702691 150.27778372261673,66.56272017071024 154.26718110591173,75.71995974332094 155.95500307623297,80.8812966409605 156.26187979709357,81.21428571431898 156.5687565188855,81.21428571431898 156.5687565188855,80.71480208588764 155.3412496317178,78.05088754103053 154.26718110591173,76.55243423231877 154.1137427445501,75.71995974332094 153.19311257917434,74.72098995302804 150.58466044440866,70.22562044300139 147.51589322648942,62.40032630588394 146.28838633932173,58.071428571478464" stroke="#4dd2ff" stroke-linecap="round" stroke-linejoin="round" stroke-width="0.5"><title>2023-11-05 1.1km</title><desc>10161301187</desc></polyline><polyline fill="none" points="172.8154514124617,58.071428571478464 175.90645550563931,64.94722948572598 177.29740734770894,70.98450100491755 179.46111021284014,75.17704126995523 180.2338612359017,78.53106793412007 181.0066122589633,81.21428571431898 181.4702628729865,80.71118262095843 181.31571266800165,80.20807941665407 179.3065600078553,76.51865252759308 179.15200980287045,76.01554839836899 177.29740734770894,73.16462290461641 176.52465632371604,70.48139565531164 174.5155036635697,66.79195303400047 174.05185304954648,63.605611422797665 173.12455182150006,60.25156281294767" stroke="#4dd2ff" stroke-linecap="round" stroke-linejoin="round" stroke-width="0.5"><title>2023-11-04 1.0km</title><desc>10155501797</desc></polyline><polyline fill="none" points="29.066186296287924,88.37253088480793 27.31145662860945,86.02893955609761 26.231622986961156,85.29656669998076 24.07195570366457,84.85714285715949 22.047267626039684,85.00361748237628 19.212704316712916,86.32188862282783 17.997891469858587,87.49368445994332 16.918057828210294,89.69079979555681 16.648099418263882,91.44849031907506 16.243161802645773,97.3074475270696 16.513120212592185,103.45933404483367 16.78307862346992,104.33817342494149 18.132870675064623,106.53527017787565 19.752621138002723,107.70705412165262 22.452205241657794,108.0 24.88183093536645,106.97468923777342 27.176477423869073,104.19170022185426 27.851373449899256,102.87344090954866 28.79622788587585,98.62571052322164 28.79622788587585,95.25681446457747 29.471123911906034,90.86259365000296 29.336144706699997,89.25137692224234 27.851373449899256,87.49368445994332 26.636560602579266,86.6148376467172 23.801997293252498,85.29656669998076 22.317226036451757,85.29656669998076 19.07772511197254,86.32188862282783 17.59295385470614,87.64015889097936 16.648099418263882,89.39785122405738 16.37814100785181,90.56964525126386 16.648099418263882,95.40328832506202 16.37814100785181,97.60039493476506" stroke="#4dd2ff" stroke-linecap="round" stroke-linejoin="round" stroke-width="0.5"><title>2023-11-03 1.0km</title><desc>10152446508</desc></polyline><polyline fill="none" points="43.78167986217886,84.85714285704307 45.04689650144428,87.60291606606916 46.131367907859385,92.50607548072003 47.938820252195,96.03634467977099 50.64999876637012,103.09686906146817 51.19223446864635,104.27362130885012 52.09596064127982,107.41162476292811 52.63819634448737,108.0 53.36117728147656,108.0 53.36117728147656,107.60774985630997 52.09596064127982,107.01937453309074 51.553724938072264,105.64649827429093 50.288508297875524,104.46974663273431 49.38478212617338,101.9201162958052 48.119565485045314,99.95886053238064 46.67360361106694,97.01697418326512 45.04689650144428,90.93706544861197 43.9624250959605,88.3874221779406" stroke="#4dd2ff" stroke-linecap="round" stroke-linejoin="round" stroke-width="0.5"><title>2023-11-02 1.1km</title><desc>10144903556</desc></polyline><polyline fill="none" points="70.34468377754092,86.53416938101873 70.65378420986235,88.37889713374898 71.89018593728542,91.22983708966058 74.05388896167278,98.9441273411503 77.76309414673597,106.65839150408283 78.84494565799832,108.0 78.22674479521811,105.98758696066216 75.90849155467004,102.4658598692622 74.67208982631564,97.93791704869363 73.12658766563982,95.7577932261629 71.27198507357389,91.73294377094135 69.72648291289806,84.85714285715949" stroke="#4dd2ff" stroke-linecap="round" stroke-linejoin="round" stroke-width="0.5"><title>2023-11-01 1.0km</title><desc>10138966680</desc></polyline><polyline fill="none" points="96.63243300188333,85.20515742269345 97.43423466850072,87.81526503060013 98.71711733471602,94.77553791319951 100.8018016666174,99.29970431071706 102.0846843328327,103.475850232644 104.16936866566539,108.0 104.32972899824381,107.82599439937621 102.88648599945009,105.73792619723827 100.8018016666174,100.86575989471748 99.03783800080419,97.73364769015461 95.990991669707,88.5112932396587 95.67027100175619,84.85714285704307" stroke="#4dd2ff" stroke-linecap="round" stroke-linejoin="round" stroke-width="0.5"><title>2023-10-31 1.0km</title><desc>10133123337</desc></polyline><polyline fill="none" points="122.08063961565495,87.60001199808903 122.87056268099695,91.71430966048501 122.87056268099695,93.25716941198334 124.60839342325926,96.1714572685305 129.34793181344867,106.28572216280736 130.13785487879068,107.8285722725559 130.45382410474122,108.0 126.82017800584435,100.80002461350523 125.24033187609166,96.34288585279137 123.50250113289803,92.7428829416167 120.9747473243624,84.85714285704307" stroke="#4dd2ff" stroke-linecap="round" stroke-linejoin="round" stroke-width="0.5"><title>2023-10-30 1.0km</title><desc>10127985445</desc></polyline><polyline fill="none" points="147.78037424990907,88.20678292401135 148.48195063043386,92.92672109557316 148.90289645874873,94.4492795013357 151.70920198131353,100.99626789137255 153.11235474189743,104.80264697573148 155.2170838844031,107.69549040088896 155.7783449892886,108.0 155.9186602649279,107.543235584395 154.65582277998328,105.56392195285298 152.83172419015318,101.60528901498765 149.6044728392735,95.66732542030513 148.34163535386324,91.25190555641893 147.35942842066288,89.2725763550261 147.21911314502358,86.22745081200264 146.93848259281367,84.85714285715949" stroke="#4dd2ff" stroke-linecap="round" stroke-linejoin="round" stroke-width="0.5"><title>2023-10-28 1.0km</title><desc>10115543824</desc></polyline><polyline fill="none" points="174.1411490542814,89.65716173662804 175.40502614434808,93.77145576896146 176.82688787020743,97.02860006294213 178.0907649602741,101.65716570639051 179.9865805953741,106.11429430986755 180.77650377620012,107.8285722732544 181.56642695702612,108.0 181.72441159375012,107.8285722732544 181.40844232123345,106.80000564618967 180.46053450368345,104.22858709446155 177.3008417794481,98.05717100016773 174.77308759931475,91.20002284971997 173.1932412367314,87.77144121262245 172.56130269169807,84.85714285704307" stroke="#4dd2ff" stroke-linecap="round" stroke-linejoin="round" stroke-width="0.5"><title>2023-10-27 1.0km</title><desc>10110442644</desc></polyline><polyline fill="none" points="19.720681668259203,115.21640166104771 22.700319797731936,125.25633054447826 23.798081213608384,128.31935102527495 24.895842630416155,130.1911948795896 26.15042710583657,133.76471076102462 26.620896284468472,134.44537982763723 27.561834640800953,134.78571428568102 27.718657699413598,134.27521257975604 27.561834640800953,133.59454346331768 25.993604046292603,131.55253491387703 23.64125815499574,127.46851240936667 20.818443085066974,119.13027742202394 18.93656637147069,116.06724478071555 17.99562801513821,111.6428571427241" stroke="#4dd2ff" stroke-linecap="round" stroke-linejoin="round" stroke-width="0.5"><title>2023-10-26 1.0km</title><desc>10104873905</desc></polyline><polyline fill="none" points="47.41230220720172,122.71120941836853 50.96695639193058,131.59939282014966 52.6670083925128,134.61801326693967 53.28520912025124,134.78571428568102 53.13065893854946,133.10870354261715 48.95780402608216,125.89754329971038 46.63955129683018,120.02797743491828 44.63039893191308,115.83542114193551 43.85764802247286,111.64285714284051" stroke="#4dd2ff" stroke-linecap="round" stroke-linejoin="round" stroke-width="0.5"><title>2023-10-25 1.0km</title><desc>10098978222</desc></polyline><polyline fill="none" points="70.00456033367664,111.64285714284051 69.84888200834394,112.82534454553388 70.78295196220279,116.71065601205919 72.02837856672704,119.24455125513487 72.80677019339055,122.28522185829934 74.2078751232475,126.33944306976628 77.16576330829412,132.0829108748585 78.09983326122165,134.44786403304897 78.41118991281837,134.78571428568102 78.72254656348377,134.6167891654186 78.56686823815107,132.42076147464104 76.85440665762872,129.21117876667995 75.60898005310446,127.35299725504592 74.0521967979148,123.80555565096438 73.7408401472494,121.94736976805143 71.87270024046302,119.07562499272171 70.78295196220279,116.54172956303228 70.47159531060606,113.50105135946069 70.00456033367664,111.64285714284051" stroke="#4dd2ff" stroke-linecap="round" stroke-linejoin="round" stroke-width="0.5"><title>2023-10-24 1.0km</title><desc>10092835699</desc></polyline><polyline fill="none" points="97.62170645501465,115.63876303785946 99.9232808528468,123.79704901436344 100.997348905541,125.79499212047085 102.22485525067896,130.78984217438847 104.06611477024853,134.11973609006964 104.83330623619258,134.78571428568102 104.06611477024853,133.95324151031673 102.99204671755433,131.28932657383848 100.23015743959695,127.95942849630956 99.61640426609665,126.79396301263478 99.00265109352767,122.96457219996955 97.16139157488942,119.30167058110237 95.93388522975147,115.47226709977258 95.16669376380742,111.6428571427241" stroke="#4dd2ff" stroke-linecap="round" stroke-linejoin="round" stroke-width="0.5"><title>2023-10-23 1.0km</title><desc>10087395010</desc></polyline><polyline fill="none" points="118.2214578690473,111.75385575310793 118.63062252942473,111.64285714289872 121.54592073545791,111.86485434696078 122.8245602992829,112.19785003067227 123.13143379474059,112.36434781743446 123.79632636834867,112.86384095728863 124.25663661118597,113.41883294726722 125.27954826224595,115.30580266064499 125.7910040882416,117.41476322850212 126.45589666138403,118.52474010788137 126.7627701566089,119.4127204361721 127.47880831244402,121.02218211872969 127.99026413820684,122.68713886867044 128.75744787673466,124.01910162443528 129.11546695465222,124.40759031882044 129.57577719772235,125.18456710776081 129.83150511048734,126.84951467678184 129.98494185809977,127.29350007505855 130.3941065184772,127.90397957118694 130.4963976838626,128.84744691231754 130.64983443147503,129.23593312170124 132.90024006413296,134.56372382264817 133.20711355959065,134.78571428573923 133.20711355959065,134.50822619657265 132.74680331652053,134.06424504175084 132.23534749099053,132.84329551941482 131.7238916652277,131.78883752471302 130.34296093601733,127.51549267623341" stroke="#4dd2ff" stroke-linecap="round" stroke-linejoin="round" stroke-width="0.5"><title>2023-10-22 1.5km</title><desc>10080655811</desc></polyline><polyline fill="none" points="147.74764491734095,111.64285714289872 148.55961400060914,112.23024759587133 147.09806965035386,111.99529146647546 149.37158308387734,114.93223811686039 149.58810817287304,115.63710370636545 149.4257143563591,116.22449122235412 148.667876545107,116.6356622268213 148.4513514561113,117.04683301941259 148.50548272836022,117.75169674295466 148.93853290611878,119.45511484093731 149.4257143563591,120.68862223078031 149.9670270786155,122.56824887666153 150.94138997863047,124.27165670477552 151.10378379537724,124.91777596535394 151.69922778964974,125.97506090078969 152.07814669562504,126.44496486760909 152.1322779674083,126.7386547063943 152.51119687315077,127.09108237054897 152.78185323416255,127.67846146522788 153.16077214013785,128.79448055534158 153.5396910456475,129.55807166616432 153.48555977339856,131.08525169832865 154.1892663121689,132.43621621659258 154.40579140139744,133.08232887438498 154.78471030667424,133.78717845055507 155.4342855734285,134.6095021701185 155.75907320692204,134.78571428573923 154.51405394566245,133.0235913816141 154.24339758465067,132.08379091037204 153.70208486216143,130.9090387666365 153.48555977339856,130.1454489470343 152.78185323416255,129.1469073126209 152.18640923989005,127.44350987917278" stroke="#4dd2ff" stroke-linecap="round" stroke-linejoin="round" stroke-width="0.5"><title>2023-10-20 1.4km</title><desc>10069668027</desc></polyline><polyline fill="none" points="172.48602689080872,111.64285714289872 172.59624772518873,112.53987937700003 173.47801439999603,114.69272870197892 173.6984560689889,116.00835603987798 175.5170998359099,120.43363237607991 175.6824310873635,121.03164084500168 175.79265192197636,121.92865272419294 176.01309359050356,122.52666009409586 177.33574360306375,124.3804801463848 178.05217902641743,125.81569276901428 178.49306236370467,127.25090285908664 178.87883528438397,128.02830726723187 179.09927695291117,129.22431259811856 179.37482903897762,129.8223146040691 180.09126446209848,131.6761180286412 180.20148529671133,132.3937182200607 181.24858322320506,134.5465149958036 181.52413530903868,134.78571428573923 181.68946656072512,134.78571428573923 181.7996873948723,134.72591446974548 181.74457697803155,134.66611464950256 180.6423686342314,133.290717568947 180.14637487963773,131.61631798412418 179.09927695291117,129.70271423802478 178.93394570145756,128.92531143018277 178.8237248668447,127.60970498598181" stroke="#4dd2ff" stroke-linecap="round" stroke-linejoin="round" stroke-width="0.5"><title>2023-10-19 1.3km</title><desc>10064004415</desc></polyline><polyline fill="none" points="17.63860588055104,138.42857142863795 19.90753500070423,141.38299208146054 19.75627305917442,143.51673789927736 20.058796941302717,145.65048167784698 21.11763053201139,149.42556182818953 22.630249944515526,151.88756718323566 24.142869357950985,156.1550367004238 27.168108185753226,161.0790298532229 27.621894010342658,161.57142857147846 28.075679834000766,161.40729567722883 26.109274595975876,159.43770000850782 22.478988002985716,152.3799679283984 21.571416354738176,149.2614280412672 18.99996335245669,143.84500630549155" stroke="#4dd2ff" stroke-linecap="round" stroke-linejoin="round" stroke-width="0.5"><title>2023-10-18 1.0km</title><desc>10058081424</desc></polyline><polyline fill="none" points="44.53204733040184,139.83117522415705 45.8246493274346,147.37015649373643 49.21772956941277,156.31170803238638 51.47978306375444,161.04545703949407 52.44923456199467,161.57142857136205 52.93396031111479,161.57142857136205 53.25711080990732,160.87013317015953 52.12608406320214,159.4675417477265 50.671906815841794,157.18832892808132 48.733003821223974,152.9805456912145 47.92512757331133,150.52600204129703 44.53204733040184,143.68833140959032 44.20889683160931,142.63638034136966 43.88574633281678,138.42857142840512" stroke="#4dd2ff" stroke-linecap="round" stroke-linejoin="round" stroke-width="0.5"><title>2023-10-17 1.0km</title><desc>10051702317</desc></polyline><polyline fill="none" points="69.11779055185616,138.9626398559194 70.75840126164258,141.81100281258114 73.21931732445955,148.21980721363798 74.53180589247495,150.71211545565166 76.00835552997887,155.3406810988672 77.81302731111646,159.96923789544962 78.4692715946585,161.21538629056886 79.28957694862038,161.57142857136205 79.45363801997155,161.39340743771754 79.28957694862038,160.85934395738877 77.48490516934544,158.18902479019016 75.02398910559714,152.13629044196568 73.21931732445955,148.39782931585796 71.74276768695563,141.45495762582868 70.92246233206242,138.42857142840512" stroke="#4dd2ff" stroke-linecap="round" stroke-linejoin="round" stroke-width="0.5"><title>2023-10-16 1.0km</title><desc>10046279660</desc></polyline><polyline fill="none" points="95.2604579506442,138.42857142840512 95.93753538653255,139.89796555694193 96.6146128224209,143.20409918646328 98.13803705200553,148.34696502564475 100.16926935873926,151.46941412007436 102.5390403829515,160.2857199094724 103.3853871775791,161.20408330694772 104.57027268968523,161.57142857136205 104.7395420493558,161.20408330694772 104.57027268968523,160.1020471896045 102.36977102421224,156.97960888431408 101.18488551210612,153.30614705826156 99.83073064126074,151.10206737020053 96.6146128224209,143.57144709769636 95.42972731031477,138.42857142840512" stroke="#4dd2ff" stroke-linecap="round" stroke-linejoin="round" stroke-width="0.5"><title>2023-10-15 1.0km</title><desc>10039610121</desc></polyline><polyline fill="none" points="120.89829837623984,140.10830203117803 121.41429701913148,145.52075974736363 122.79029340203851,149.4401184762828 124.51028888020664,151.86638513277285 125.54228616692126,155.22582744481042 128.46627847850323,160.4516177601181 129.15427666902542,161.19815835589543 130.0142744090408,161.57142857136205 130.53027305193245,161.19815835589543 130.53027305193245,160.63825292955153 127.09028209652752,157.83872394706123 124.85428797546774,153.73274252167903 123.99429023638368,150.18666230980307 121.93029566295445,145.52075974736363 120.89829837623984,141.6013949678745 121.07029792480171,139.1751185003668 120.89829837623984,138.42857142840512" stroke="#4dd2ff" stroke-linecap="round" stroke-linejoin="round" stroke-width="0.5"><title>2023-10-14 1.0km</title><desc>10033377496</desc></polyline><polyline fill="none" points="146.1812220737338,138.79592004208826 149.22807008586824,142.46940320334397 149.56660875398666,145.2245120294392 152.44418743252754,154.04083985602483 155.15249677654356,160.46939261630177 155.99884344637394,161.57142857136205 156.67592078261077,161.57142857136205 156.67592078261077,161.02041065483354 156.5066514480859,160.46939261630177 154.9832274420187,159.3673561748583 153.29053410235792,156.24491695151664 151.4285714281723,150.3673737095669 148.04318474791944,142.8367512221448 147.53537674620748,140.26531395455822 146.68903007544577,138.42857142863795" stroke="#4dd2ff" stroke-linecap="round" stroke-linejoin="round" stroke-width="0.5"><title>2023-10-13 1.0km</title><desc>10028006924</desc></polyline><polyline fill="none" points="172.17719354759902,138.42857142840512 173.80527997296304,140.54853708157316 174.7821318274364,142.31517369649373 174.94494047015905,144.61179935513064 174.7821318274364,147.08508607069962 176.57302689459175,150.79501137160696 178.68953924719244,156.4482198629994 180.8060515988618,160.33479298627935 181.2944775260985,161.041441970272 182.1085207387805,161.57142857136205 182.1085207387805,160.6881175043527 180.31762567162514,158.3915072104428 178.68953924719244,155.56490691308863 176.57302689459175,149.7350332988426 175.27055775467306,147.4384125370998 174.61932318564504,145.49511633184738" stroke="#4dd2ff" stroke-linecap="round" stroke-linejoin="round" stroke-width="0.5"><title>2023-10-12 1.0km</title><desc>10021974100</desc></polyline><polyline fill="none" points="20.15135952271521,168.49574947892688 20.788014424964786,171.94991691154428 20.628850699402392,173.33158246264793 22.061324228532612,177.99469769722782 23.175470307469368,180.06719038565643 24.289616386406124,183.86675556609407 25.881253641098738,187.66631460143253 26.199581092223525,188.01172875449993 26.995399720966816,188.35714285704307 26.8362359944731,187.66631460143253 25.085435014218092,183.1759259905666 23.175470307469368,179.89448273112066 20.628850699402392,174.02241493295878 19.992195797152817,171.7772086604964 19.67386834602803,168.49574947892688 18.71888599358499,165.21428571431898" stroke="#4dd2ff" stroke-linecap="round" stroke-linejoin="round" stroke-width="0.5"><title>2023-10-10 1.0km</title><desc>10009069592</desc></polyline><polyline fill="none" points="44.650852085091174,168.1071555116214 45.74861350096762,171.17019017937128 46.84637491684407,175.2542300982168 49.198720809072256,180.35926986287814 51.08059752173722,186.82563740201294 52.178358937613666,188.3571428571595 52.49200505763292,187.8466411512345 52.64882811624557,185.97480059973896 51.55106670036912,182.74161789973732 49.198720809072256,178.6575911922846 46.53272879868746,171.17019017937128 45.74861350096762,167.76681807579007 44.494029025547206,165.21428571420256" stroke="#4dd2ff" stroke-linecap="round" stroke-linejoin="round" stroke-width="0.5"><title>2023-10-09 1.0km</title><desc>10003389142</desc></polyline><polyline fill="none" points="69.57372754067183,165.21428571408615 70.73105761874467,166.64950804505497 71.88838769681752,169.34054763941094 72.54971916973591,174.7226179256104 75.02971219364554,180.1046763411723 77.17903948016465,186.20432819565758 78.17103668954223,187.998340545455 78.99770103022456,188.35714285704307 78.99770103022456,186.92193329404108 75.85637653432786,181.8986931750551 71.72305482812226,171.85218191659078 70.06972614489496,165.39368855208158" stroke="#4dd2ff" stroke-linecap="round" stroke-linejoin="round" stroke-width="0.5"><title>2023-10-08 1.0km</title><desc>9996447828</desc></polyline><polyline fill="none" points="97.0293238433078,169.84287619916722 97.791035679169,172.6530872018775 100.07617118395865,178.76941665518098 100.83788301888853,181.41431072517298 103.27536089066416,187.53061634639744 104.03707272559404,188.3571428571595 104.18941509258002,187.69592167297378 104.18941509258002,187.03470029460732 101.29491011984646,181.9102280169027 99.92382881697267,178.93472262541763 97.48635094426572,171.6612484252546 96.72463910933584,167.85919572925195 95.81058490741998,165.21428571431898" stroke="#4dd2ff" stroke-linecap="round" stroke-linejoin="round" stroke-width="0.5"><title>2023-10-07 1.0km</title><desc>9989974159</desc></polyline><polyline fill="none" points="123.82351200375706,172.10792782274075 125.03360717836767,176.0471423274139 125.94117856025696,178.01674697361887 127.7563213231042,185.7310151066631 128.21010701358318,187.2082123461878 129.11767839454114,188.3571428571595 129.87398787867278,188.3571428571595 130.17651167232543,187.70061120891478 130.02524977643043,187.2082123461878 128.21010701358318,184.58208324376028 126.39496425073594,180.64288379845675 125.78991666343063,178.01674697361887 122.61341682914644,170.30245218542404 122.15963113866746,167.5121687820647 121.25205975677818,165.21428571431898" stroke="#4dd2ff" stroke-linecap="round" stroke-linejoin="round" stroke-width="0.5"><title>2023-10-06 1.0km</title><desc>9984428862</desc></polyline><polyline fill="none" points="146.44622204080224,165.21428571431898 149.06851119268686,172.23304300755262 150.8167039602995,178.11360874283127 153.78863166458905,185.51172079332173 155.0123666021973,187.97775343060493 155.53682443220168,188.35714285704307 156.23610153980553,188.35714285704307 156.41092081554234,187.97775343060493 155.88646298553795,187.02927961805835 153.78863166458905,183.99416107684374 152.56489672791213,181.5281246327795 150.4670654060319,176.0269579195883 149.59296902269125,173.18152225832455 147.1454991484061,168.62881867401302 147.1454991484061,166.92155275889672" stroke="#4dd2ff" stroke-linecap="round" stroke-linejoin="round" stroke-width="0.5"><title>2023-10-04 1.0km</title><desc>9971682885</desc></polyline><polyline fill="none" points="173.6400950755924,167.91711316874716 174.41848664637655,170.61993744410574 175.19687821622938,172.47812728898134 175.8195914728567,175.34987227525562 178.77747943997383,181.26227712223772 178.93315775413066,183.28938385332003 179.86722763907164,187.34359195071738 180.17858426645398,187.8503674598178 181.11265415139496,188.3571428571595 181.11265415139496,186.66789109795354 179.08883606921881,182.95153285574634 177.68773124180734,179.74194590048864 176.9093396710232,178.22161367256194 176.13094810023904,176.02557645644993 174.57416496053338,172.81597982684616 173.95145170390606,170.28208458342124 173.6400950755924,167.748186546145 173.17306013405323,165.21428571431898" stroke="#4dd2ff" stroke-linecap="round" stroke-linejoin="round" stroke-width="0.5"><title>2023-10-03 1.0km</title><desc>9965060084</desc></polyline><polyline fill="none" points="18.626806716434658,192.9563204885926 20.74197478685528,199.8418176297564 21.09450279828161,202.9020327317994 22.328350839205086,204.432138932636 23.209670868702233,206.72729654680006 24.79604692105204,212.65644434583373 26.029894961975515,214.56906978506595 26.91121499054134,215.14285714295693 27.087478997185826,214.95159470429644 26.558686980046332,213.42149469000287 24.619782915338874,209.7875035495963 21.44703080970794,202.13697929354385 19.508126745931804,196.3990713369567 19.155598734505475,192.00000000023283" stroke="#4dd2ff" stroke-linecap="round" stroke-linejoin="round" stroke-width="0.5"><title>2023-10-02 1.0km</title><desc>9958643020</desc></polyline><polyline fill="none" points="44.90302262175828,196.0731582788285 45.24426968675107,197.73944840370677 48.99798740353435,206.62631044583395 50.874846261925995,212.3657255147118 51.89858745690435,214.4022890077904 52.92232865188271,215.14285714295693 53.09295218531042,214.95771512947977 52.92232865188271,214.21714694029652 49.50985800102353,209.03316351911053 46.268010881729424,201.0720253442414 44.73239908926189,196.25830168067478 44.049904958344996,192.0" stroke="#4dd2ff" stroke-linecap="round" stroke-linejoin="round" stroke-width="0.5"><title>2023-10-01 1.0km</title><desc>9952075403</desc></polyline><polyline fill="none" points="70.9628841523081,195.35405181569513 72.35383630171418,198.20499198127072 72.97203725576401,201.05592858383898 73.4356879722327,203.73915977822617 75.75394155364484,210.27952259161975 77.76309465710074,214.47205299360212 78.6903960891068,215.1428571428405 78.99949656799436,214.63975404936355 75.90849179308861,209.94411982689053 74.51753964368254,206.75779109902214 74.05388892721385,205.08077419165056 71.89018558524549,200.38512029196136 70.65378367435187,195.18634934176225 69.57193200383335,192.0" stroke="#4dd2ff" stroke-linecap="round" stroke-linejoin="round" stroke-width="0.5"><title>2023-09-30 1.0km</title><desc>9945549317</desc></polyline><polyline fill="none" points="96.4169079232961,192.0 97.95251881331205,194.59201057627797 98.46438910998404,196.62858844315633 99.82937656808645,199.96116685448214 100.51187029760331,204.96002620225772 101.0237405942753,206.44116780697368 103.07122178003192,211.44001429202035 103.5830920767039,214.58743106247857 103.92433894146234,214.9577151297126 104.43620923813432,215.14285714295693 104.60683267004788,214.77257310249843 101.53561089094728,209.21830596844666 99.48812970332801,204.40459787589498 98.80563597474247,201.62745440611616 96.4169079232961,196.0731582797598 95.39316732995212,192.74057472264394" stroke="#4dd2ff" stroke-linecap="round" stroke-linejoin="round" stroke-width="0.5"><title>2023-09-28 1.0km</title><desc>9933629332</desc></polyline><polyline fill="none" points="121.1901753982529,194.62988144042902 122.48277834616601,199.1883357341867 124.90640887152404,202.51950836111791 126.52216255571693,208.48054250143468 128.78421771340072,212.5129983238876 129.43051918689162,214.79220946785063 130.0768206594512,215.14285714295693 130.39997139759362,214.61688561108895 130.0768206594512,213.91559005482122 128.78421771340072,212.16235026181675 125.06798424012959,204.62340446491726 123.12907981872559,199.3636607248336 121.02860003057867,192.00000000023283" stroke="#4dd2ff" stroke-linecap="round" stroke-linejoin="round" stroke-width="0.5"><title>2023-09-27 1.0km</title><desc>9927137811</desc></polyline><polyline fill="none" points="153.351127471542,191.9999999999418 152.8897140212357,194.22530548635405 152.42830057092942,195.50485317711718 152.0694234429393,197.0625604885863 149.96742883580737,201.45750311407028 148.89079745206982,203.29335766413715 148.68572480720468,204.07220370310824 148.788261129288,204.68415360001381 149.0446019351948,205.57426165725337 149.81362435221672,207.46573780244216 150.06996515812352,207.96642187290126 150.377574125072,208.85652606899384 151.40293734776787,210.13604901649524 151.864350798307,211.1374132920755 152.37703240988776,211.91625125706196 152.78717769891955,213.028875530581 153.40239563281648,213.86334266205085 154.1714180498384,215.1428571428405" stroke="#4dd2ff" stroke-linecap="round" stroke-linejoin="round" stroke-width="0.5"><title>2023-09-26 1.0km</title><desc>9920397094</desc></polyline><polyline fill="none" points="177.03477789554745,191.9999999999418 176.0260382532142,195.3620003819815 175.0172986111138,197.1602752925828 174.08061180007644,198.33306163945235 173.57624197914265,199.2712897855672 173.3600834843237,200.2095171037945 173.43213631561957,201.3823000874836 173.7924004739616,202.32052554324036 174.6570344530046,203.64967685518786 175.0172986111138,204.9788265057141 175.73782692663372,206.69890005787602 177.10683072707616,208.41897082794458 179.41252133785747,213.1100587871042 180.92563080135733,215.1428571428405" stroke="#4dd2ff" stroke-linecap="round" stroke-linejoin="round" stroke-width="0.5"><title>2023-09-25 1.0km</title><desc>9914573673</desc></polyline><polyline fill="none" points="24.56334857735783,218.78571428573923 23.99461333733052,219.64972575270804 23.880866289371625,220.08173115260433 23.99461333733052,220.6371663401369 24.051486861426383,221.19260115997167 22.914016381138936,223.29090716224164 22.62964876089245,224.71034648327623 22.23153409315273,225.75949574296828 19.84284608461894,229.9560796673759 19.78597256075591,230.449794043554 20.01346665644087,231.4372219251236 20.63907542079687,232.4246486449847 20.98031656490639,233.28864607197465 21.492178280837834,234.15264260955155 21.776545900851488,235.0166382577736 22.515901713166386,236.18920235801488 23.084636952960864,237.36176482023438 23.710245717549697,238.04061602335423 23.880866289371625,238.65775300428504 24.278980957344174,239.15146226232173 25.132083817617968,240.63258829439292 25.75769258174114,241.31143685226562 25.928313153795898,241.92857142857974" stroke="#4dd2ff" stroke-linecap="round" stroke-linejoin="round" stroke-width="0.5"><title>2023-09-24 1.0km</title><desc>9907510217</desc></polyline><polyline fill="none" points="49.43419612175785,218.78571428568102 48.951046293601394,219.53468229668215 48.60593927348964,220.28364975680597 48.398875061422586,221.25730663182912 48.329853657167405,222.53054883313598 47.15648978878744,224.10337523772614 46.46627574879676,225.900888154516 45.84508311236277,226.79964342340827 45.43095468822867,227.99798254854977 45.361933283973485,229.2712163241813 46.811382768675685,232.94111653784057 47.36355400085449,234.0645527355955 49.158110505668446,236.91058555798372 49.917345949914306,238.78297123644734 50.88364560622722,239.98129626433365 51.43581683863886,240.95493431173963 51.78092385875061,241.92857142857974" stroke="#4dd2ff" stroke-linecap="round" stroke-linejoin="round" stroke-width="0.5"><title>2023-09-23 1.0km</title><desc>9901004991</desc></polyline><polyline fill="none" points="75.1743653526064,218.78571428573923 74.71358331805095,219.6428669745801 74.25280128326267,221.14288236008724 73.19958520401269,223.35718655312667 72.14636912476271,224.85719620325835 71.22480505541898,227.35720713983756 71.15897905034944,228.7143532395712 71.29063106048852,229.5000685363193 72.60715115931816,232.6429233677918 72.80462917429395,233.57149216765538 73.06793319410644,234.0714903845801 73.98949726345018,235.21434248570586 74.71358331805095,236.64290572114987 75.30601736251265,238.14289485791232 76.29340743692592,239.5714537873282 77.4124495210126,241.92857142857974" stroke="#4dd2ff" stroke-linecap="round" stroke-linejoin="round" stroke-width="0.5"><title>2023-09-22 1.0km</title><desc>9895405405</desc></polyline><polyline fill="none" points="101.22680901433341,218.78571428573923 101.03806916601025,219.46840269467793 100.66058946936391,219.87801549909636 99.8427167928312,221.37992756912718 99.52815037895925,222.47222573042382 98.58445113687776,224.86162347818026 97.57783861248754,226.9096737963264 96.94870578427799,228.41157449188177 96.75996593595482,229.16252392844763 96.75996593595482,229.64040052646305 96.94870578427799,230.3230809540837 97.32618548115715,231.0057608798379 98.14405815768987,233.1220654596691 98.96193083375692,234.62395610607928 99.40232381341048,235.7162386867567 100.22019648971036,237.08159010566305 100.72350275190547,237.695997589326 101.10098244878463,238.78827655612258 102.10759497364052,240.5632271367358 103.24003406381235,241.92857142857974" stroke="#4dd2ff" stroke-linecap="round" stroke-linejoin="round" stroke-width="0.5"><title>2023-09-21 1.0km</title><desc>9889267953</desc></polyline><polyline fill="none" points="128.07051633019,218.78571428573923 127.24462106265128,221.263459073205 126.75880031730048,223.214018094528 125.98148712422699,224.8482661617454 125.0584277077578,227.58957713481504 123.45521924737841,230.5944636601489 123.01798057649285,232.22869490430458 123.06656265095808,232.59771434712457 123.35805509821512,233.3884696564637 123.9896220676601,234.7591101268772 124.37827866408043,235.91888078604825 125.34992015524767,237.28951641911408 125.93290504999459,238.39656636398286 126.27297957148403,239.1873152781045 126.66163616790436,239.87263029819587 127.29320313734934,240.34707877459005 128.07051633019,241.5068403953337 128.11909840488806,241.7177059429814 128.4105908521451,241.92857142857974" stroke="#4dd2ff" stroke-linecap="round" stroke-linejoin="round" stroke-width="0.5"><title>2023-09-20 1.0km</title><desc>9882714971</desc></polyline><polyline fill="none" points="153.3475038916804,218.78571428573923 152.85406411555596,220.0350885152584 151.92201120499521,222.77180627640337 151.86718456307426,223.66421224054648 151.5382247120142,224.1401616857038 151.15443821973167,225.03256614063866 150.9351316522807,225.86547607730608 150.4965185180772,226.9958524769172 149.2355057564564,229.01862735598115 148.90654590562917,230.20849256968359 148.7968926220201,231.27936976606725 148.90654590562917,232.35024554503616 149.2355057564564,233.5401058595162 149.61929224873893,234.3730070387246 150.8254783686716,236.45525623566937 151.42857142863795,237.28815441404004 151.9768378464505,238.77547045750543 152.52510426472872,239.72735129058128 153.07337068254128,240.50075364299119 153.67646374250762,241.0956780264969 154.0602502352558,241.92857142857974" stroke="#4dd2ff" stroke-linecap="round" stroke-linejoin="round" stroke-width="0.5"><title>2023-09-19 1.0km</title><desc>9876194288</desc></polyline><polyline fill="none" points="176.97250851406716,218.78571428573923 176.56367180449888,219.4511712892563 175.8822772889398,220.782083975384 175.67785893427208,221.6693581205909 174.45134880580008,223.8136007396388 173.49739648378454,225.80996044742642 173.292978128884,226.54935192601988 173.36111758067273,227.36268192430725 173.769954290241,228.3978282439639 174.38320935424417,229.50691240374 174.92832496692427,231.05962817254476 175.67785893427208,232.6862802161486 176.49553235294297,234.16505251801573 177.24506632052362,235.12625334830955 178.13087919075042,236.60502206231467 178.67599480319768,238.30560339521617 179.62994712544605,239.78436743433122 180.10692328657024,241.1152532103588 180.99273615702987,241.92857142857974" stroke="#4dd2ff" stroke-linecap="round" stroke-linejoin="round" stroke-width="0.5"><title>2023-09-18 1.0km</title><desc>9870505463</desc></polyline><polyline fill="none" points="23.08968708710745,245.57142857142026 22.75748104392551,246.220301167632 22.292392583796754,248.3832067202893 21.694421706721187,249.39256101218052 21.428656872129068,250.18562436959473 19.966950283385813,252.56481059349608 19.435420614667237,253.86254610068863 19.103214571718127,255.01608733163448 19.368979405844584,255.8091461408767 20.83068599482067,258.9813749634195 21.561539289541543,260.13491017278284 22.09306895802729,261.3605398457148 22.956804669694975,262.5140722562792 23.42189313005656,263.30712500127265 24.01986400736496,265.18161075829994 26.61107114236802,268.71428571426077" stroke="#4dd2ff" stroke-linecap="round" stroke-linejoin="round" stroke-width="0.5"><title>2023-09-16 1.0km</title><desc>9856514700</desc></polyline><polyline fill="none" points="48.251513787778094,245.57142857142026 47.540592045523226,247.7314501705696 46.616393780801445,249.1971765802009 44.696905076969415,252.9000552307116 44.62581290258095,253.7486297477153 44.696905076969415,254.75148965540575 45.1234581223689,255.75434860464884 45.83437986462377,256.83434947789647 46.47420943225734,258.3000631706673 47.611684219678864,260.22863069950836 49.0335277041886,262.92861928464845 49.175712052499875,263.9314704181161 49.673357272055,264.31718213728163 50.24209466576576,265.08860515023116 51.16629293048754,266.6314494747785 52.16158336936496,267.4800128862262 52.374859892064705,268.02000742714154 52.51704424060881,268.71428571426077" stroke="#4dd2ff" stroke-linecap="round" stroke-linejoin="round" stroke-width="0.5"><title>2023-09-15 1.0km</title><desc>9850671982</desc></polyline><polyline fill="none" points="74.87406257819384,245.57142857142026 73.6973659931682,248.6837725614896 72.37358233425766,250.59905673458707 71.78523404197767,251.63650091725867 70.9027116028592,253.87099271186162 70.68208099342883,254.66902438079705 70.68208099342883,255.30744929309003 70.9027116028592,256.10547990584746 71.78523404197767,258.4995682234876 72.5942129441537,260.0956241681124 74.57988843182102,263.52713650179794 75.38886733399704,265.0433826817898 75.53595440695062,265.92120844946476 76.12430270016193,266.479824477341 77.08036867529154,267.9960665325634 77.88934757746756,268.71428571426077" stroke="#4dd2ff" stroke-linecap="round" stroke-linejoin="round" stroke-width="0.5"><title>2023-09-14 1.0km</title><desc>9844236351</desc></polyline><polyline fill="none" points="96.32188868126832,245.57142857136205 96.74526840122417,245.9159922673134 96.90403579641134,246.26055581122637 97.0098807264585,247.00710963463644 97.32741551636718,247.6388084665523 97.53910537669435,249.41904787998646 97.53910537669435,250.2804525909596 97.43326044664718,250.73986804834567 97.53910537669435,251.3141369901714 97.80371770169586,252.0032591629424 97.69787277164869,252.57752717577387 97.75079523678869,252.86466102383565 98.2800198867917,253.84091531776357 98.75632207212038,255.27658118045656 99.17970179230906,256.08055291092023 99.70892644231208,256.82709734817035 100.29107355768792,257.343935386627 100.44984095264226,257.688493889058 100.60860834782943,258.43503678945126 101.03198806801811,259.1815789762768 101.50829025311396,260.5598088313127 102.14335983316414,261.7657579596271 102.46089462330565,262.7994271591306 102.61966201849282,263.66081711358856 102.93719680863433,264.34992839349434 103.51934392377734,266.2449812780251 104.31318089924753,267.73805000964785 104.36610336438753,267.9677526380983 104.31318089924753,268.14002956519835 103.67811131873168,268.71428571426077 103.99564610887319,268.4845833052532 104.15441350406036,268.14002956519835 104.2602584338747,267.8529013323714 104.20733596920036,267.45092162903165 103.88980117905885,267.0489417188219 102.93719680863433,264.98161319905194 102.46089462330565,263.4311132186558 101.45536778820679,261.1914967020857 100.97906560287811,259.00930007349234 100.7144532778766,258.37761043792125 99.70892644231208,257.0568031852599 98.70339960698038,255.16172800853383 98.2270974216517,253.61120853491593 98.06833002716303,252.57752717577387 97.64495030650869,251.48641759040765 96.79819086636417,249.64875589578878 96.58650100626983,248.78735048812814 95.84558649593964,247.40909985953476 95.68681910075247,246.66254642023705 95.6338966358453,245.74371043837164" stroke="#4dd2ff" stroke-linecap="round" stroke-linejoin="round" stroke-width="0.5"><title>2023-09-13 1.0km</title><desc>9837636972</desc></polyline></svg>