<svg xmlns="http://www.w3.org/2000/svg" xmlns:ev="http://www.w3.org/2001/xml-events" xmlns:xlink="http://www.w3.org/1999/xlink" width="200mm" height="300mm" baseProfile="full" version="1.1" viewBox="0 0 200 300"><rect width="200" height="300" x="0" y="0" fill="#222"/><text fill="#FFF" style="font-size:12px;font-family:Arial;font-weight:700" x="10" y="20">Over 1km Runs</text><text fill="#FFF" style="font-size:4px;font-family:Arial" x="10" y="280">ATHLETE</text><text fill="#FFF" style="font-size:9px;font-family:Arial" x="10" y="290">Jiakai</text><text fill="#FFF" style="font-size:4px;font-family:Arial" x="120" y="280">STATISTICS</text><text fill="#FFF" style="font-size:3px;font-family:Arial" x="120" y="285">Number: 50</text><text fill="#FFF" style="font-size:3px;font-family:Arial" x="120" y="290">Weekly: 5.6</text><text fill="#FFF" style="font-size:3px;font-family:Arial" x="141" y="285">Total: 52.1 km</text><text fill="#FFF" style="font-size:3px;font-family:Arial" x="141" y="290">Avg: 1.0 km</text><text fill="#FFF" style="font-size:3px;font-family:Arial" x="167" y="285">Min: 1.0 km</text><text fill="#FFF" style="font-size:3px;font-family:Arial" x="167" y="290">Max: 1.5 km</text><polyline fill="none" stroke="#4dd2ff" stroke-linecap="round" stroke-linejoin="round" stroke-width=".5" points="18.651 33.26 20.427 36.764 21.073 38.516 23.172 43.071 23.979 46.224 23.818 44.297 24.141 45.523 24.786 50.253 26.239 54.633 26.885 55.333 27.692 54.983 28.015 54.457 26.239 52.881 24.948 50.779 24.141 48.501 23.01 44.647 21.396 42.37 19.62 38.516 19.136 35.713 19.297 32.209 18.974 31.333"><title>2023-11-08 1.0km</title><desc>10179505859</desc></polyline><polyline fill="none" stroke="#4dd2ff" stroke-linecap="round" stroke-linejoin="round" stroke-width=".5" points="52.917 44.592 58.331 55.333 58.64 55.166 57.867 53.319 56.475 50.97 55.547 48.62 53.691 46.606 53.072 45.431 52.608 41.403 52.299 40.228 50.443 37.04 49.36 31.333"><title>2023-11-06 1.0km</title><desc>10167691585</desc></polyline><polyline fill="none" stroke="#4dd2ff" stroke-linecap="round" stroke-linejoin="round" stroke-width=".5" points="82.359 38.067 83.473 40.139 87.61 49.636 89.361 54.988 89.679 55.333 89.997 55.333 89.997 54.815 88.724 52.053 87.61 50.499 87.451 49.636 86.497 48.6 83.791 43.938 80.609 35.823 79.336 31.333"><title>2023-11-05 1.1km</title><desc>10161301187</desc></polyline><polyline fill="none" stroke="#4dd2ff" stroke-linecap="round" stroke-linejoin="round" stroke-width=".5" points="110.846 31.333 114.051 38.464 115.494 44.725 117.737 49.072 118.539 52.551 119.34 55.333 119.821 54.812 119.661 54.29 117.577 50.464 117.417 49.942 115.494 46.986 114.692 44.203 112.609 40.377 112.128 37.072 111.166 33.594"><title>2023-11-04 1.0km</title><desc>10155501797</desc></polyline><polyline fill="none" stroke="#4dd2ff" stroke-linecap="round" stroke-linejoin="round" stroke-width=".5" points="152.439 34.979 150.619 32.549 149.499 31.789 147.26 31.333 145.16 31.485 142.221 32.852 140.961 34.068 139.841 36.346 139.561 38.169 139.141 44.245 139.421 50.624 139.701 51.536 141.101 53.814 142.78 55.03 145.58 55.333 148.1 54.27 150.479 51.384 151.179 50.017 152.159 45.612 152.159 42.118 152.859 37.561 152.719 35.89 151.179 34.068 149.919 33.156 146.98 31.789 145.44 31.789 142.081 32.852 140.541 34.219 139.561 36.042 139.281 37.257 139.561 42.27 139.281 44.549"><title>2023-11-03 1.0km</title><desc>10152446508</desc></polyline><polyline fill="none" stroke="#4dd2ff" stroke-linecap="round" stroke-linejoin="round" stroke-width=".5" points="171.7 31.333 173.012 34.181 174.136 39.266 176.011 42.927 178.822 50.249 179.385 51.469 180.322 54.723 180.884 55.333 181.634 55.333 181.634 54.927 180.322 54.316 179.759 52.893 178.447 51.672 177.51 49.028 176.198 46.994 174.699 43.944 173.012 37.638 171.887 34.994"><title>2023-11-02 1.1km</title><desc>10144903556</desc></polyline><polyline fill="none" stroke="#4dd2ff" stroke-linecap="round" stroke-linejoin="round" stroke-width=".5" points="19.246 59.739 19.567 61.652 20.849 64.609 23.093 72.609 26.94 80.609 28.061 82 27.42 79.913 25.016 76.261 23.734 71.565 22.131 69.304 20.208 65.13 18.605 58"><title>2023-11-01 1.0km</title><desc>10138966680</desc></polyline><polyline fill="none" stroke="#4dd2ff" stroke-linecap="round" stroke-linejoin="round" stroke-width=".5" points="50.508 58.361 51.339 61.068 52.67 68.286 54.831 72.977 56.162 77.308 58.324 82 58.49 81.82 56.993 79.654 54.831 74.602 53.002 71.353 49.843 61.789 49.51 58"><title>2023-10-31 1.0km</title><desc>10133123337</desc></polyline><polyline fill="none" stroke="#4dd2ff" stroke-linecap="round" stroke-linejoin="round" stroke-width=".5" points="80.898 60.844 81.718 65.111 81.718 66.711 83.52 69.733 88.435 80.222 89.254 81.822 89.582 82 85.814 74.533 84.175 69.911 82.373 66.178 79.752 58"><title>2023-10-30 1.0km</title><desc>10127985445</desc></polyline><polyline fill="none" stroke="#4dd2ff" stroke-linecap="round" stroke-linejoin="round" stroke-width=".5" points="111.55 61.474 112.278 66.368 112.714 67.947 115.624 74.737 117.079 78.684 119.262 81.684 119.844 82 119.99 81.526 118.68 79.474 116.788 75.368 113.442 69.211 112.132 64.632 111.113 62.579 110.968 59.421 110.677 58"><title>2023-10-28 1.0km</title><desc>10115543824</desc></polyline><polyline fill="none" stroke="#4dd2ff" stroke-linecap="round" stroke-linejoin="round" stroke-width=".5" points="142.887 62.978 144.198 67.244 145.672 70.622 146.983 75.422 148.949 80.044 149.768 81.822 150.587 82 150.751 81.822 150.424 80.756 149.441 78.089 146.164 71.689 143.542 64.578 141.904 61.022 141.249 58"><title>2023-10-27 1.0km</title><desc>10110442644</desc></polyline><polyline fill="none" stroke="#4dd2ff" stroke-linecap="round" stroke-linejoin="round" stroke-width=".5" points="173.414 61.706 176.504 72.118 177.642 75.294 178.781 77.235 180.082 80.941 180.57 81.647 181.546 82 181.708 81.471 181.546 80.765 179.919 78.647 177.48 74.412 174.552 65.765 172.601 62.588 171.625 58"><title>2023-10-26 1.0km</title><desc>10104873905</desc></polyline><polyline fill="none" stroke="#4dd2ff" stroke-linecap="round" stroke-linejoin="round" stroke-width=".5" points="22.131 96.145 25.818 105.362 27.581 108.493 28.222 108.667 28.061 106.928 23.734 99.449 21.33 93.362 19.246 89.015 18.445 84.667"><title>2023-10-25 1.0km</title><desc>10098978222</desc></polyline><polyline fill="none" stroke="#4dd2ff" stroke-linecap="round" stroke-linejoin="round" stroke-width=".5" points="49.56 84.667 49.399 85.893 50.368 89.922 51.659 92.55 52.466 95.703 53.919 99.908 56.987 105.864 57.955 108.316 58.278 108.667 58.601 108.491 58.44 106.214 56.664 102.886 55.372 100.959 53.758 97.28 53.435 95.353 51.498 92.375 50.368 89.747 50.045 86.594 49.56 84.667"><title>2023-10-24 1.0km</title><desc>10092835699</desc></polyline><polyline fill="none" stroke="#4dd2ff" stroke-linecap="round" stroke-linejoin="round" stroke-width=".5" points="82.2 88.811 84.587 97.271 85.701 99.343 86.974 104.523 88.883 107.976 89.679 108.667 88.883 107.803 87.77 105.041 84.905 101.588 84.269 100.379 83.632 96.408 81.723 92.609 80.45 88.638 79.654 84.667"><title>2023-10-23 1.0km</title><desc>10087395010</desc></polyline><polyline fill="none" stroke="#4dd2ff" stroke-linecap="round" stroke-linejoin="round" stroke-width=".5" points="107.563 84.782 107.987 84.667 111.011 84.897 112.337 85.242 112.655 85.415 113.344 85.933 113.822 86.508 114.882 88.465 115.413 90.652 116.102 91.803 116.421 92.724 117.163 94.393 117.694 96.12 118.489 97.501 118.86 97.904 119.338 98.71 119.603 100.437 119.762 100.897 120.186 101.53 120.293 102.508 120.452 102.911 122.785 108.436 123.104 108.667 123.104 108.379 122.626 107.918 122.096 106.652 121.566 105.559 120.133 101.127"><title>2023-10-22 1.5km</title><desc>10080655811</desc></polyline><polyline fill="none" stroke="#4dd2ff" stroke-linecap="round" stroke-linejoin="round" stroke-width=".5" points="142.183 84.667 143.025 85.276 141.509 85.032 143.867 88.078 144.091 88.809 143.923 89.418 143.137 89.844 142.913 90.271 142.969 91.002 143.418 92.768 143.923 94.047 144.484 95.997 145.495 97.763 145.663 98.433 146.281 99.53 146.674 100.017 146.73 100.322 147.123 100.687 147.403 101.296 147.796 102.454 148.189 103.245 148.133 104.829 148.863 106.23 149.087 106.9 149.48 107.631 150.154 108.484 150.491 108.667 149.2 106.839 148.919 105.865 148.358 104.646 148.133 103.855 147.403 102.819 146.786 101.053"><title>2023-10-20 1.4km</title><desc>10069668027</desc></polyline><polyline fill="none" stroke="#4dd2ff" stroke-linecap="round" stroke-linejoin="round" stroke-width=".5" points="171.837 84.667 171.952 85.597 172.866 87.829 173.095 89.194 174.981 93.783 175.152 94.403 175.266 95.333 175.495 95.954 176.867 97.876 177.61 99.364 178.067 100.853 178.467 101.659 178.696 102.899 178.981 103.519 179.724 105.442 179.839 106.186 180.924 108.419 181.21 108.667 181.382 108.667 181.496 108.605 181.439 108.543 180.296 107.116 179.781 105.38 178.696 103.395 178.524 102.589 178.41 101.225"><title>2023-10-19 1.3km</title><desc>10064004415</desc></polyline><polyline fill="none" stroke="#4dd2ff" stroke-linecap="round" stroke-linejoin="round" stroke-width=".5" points="17.922 111.333 20.274 114.397 20.118 116.61 20.431 118.823 21.529 122.738 23.098 125.291 24.667 129.716 27.804 134.823 28.275 135.333 28.745 135.163 26.706 133.121 22.941 125.801 22 122.567 19.333 116.95"><title>2023-10-18 1.0km</title><desc>10058081424</desc></polyline><polyline fill="none" stroke="#4dd2ff" stroke-linecap="round" stroke-linejoin="round" stroke-width=".5" points="49.811 112.788 51.151 120.606 54.67 129.879 57.016 134.788 58.021 135.333 58.524 135.333 58.859 134.606 57.686 133.152 56.178 130.788 54.168 126.424 53.33 123.879 49.811 116.788 49.476 115.697 49.141 111.333"><title>2023-10-17 1.0km</title><desc>10051702317</desc></polyline><polyline fill="none" stroke="#4dd2ff" stroke-linecap="round" stroke-linejoin="round" stroke-width=".5" points="79.307 111.887 81.009 114.841 83.561 121.487 84.922 124.072 86.453 128.872 88.325 133.672 89.005 134.964 89.856 135.333 90.026 135.149 89.856 134.595 87.984 131.826 85.432 125.549 83.561 121.672 82.03 114.472 81.179 111.333"><title>2023-10-16 1.0km</title><desc>10046279660</desc></polyline><polyline fill="none" stroke="#4dd2ff" stroke-linecap="round" stroke-linejoin="round" stroke-width=".5" points="110.418 111.333 111.12 112.857 111.823 116.286 113.402 121.619 115.509 124.857 117.966 134 118.844 134.952 120.073 135.333 120.248 134.952 120.073 133.81 117.791 130.571 116.562 126.762 115.158 124.476 111.823 116.667 110.594 111.333"><title>2023-10-15 1.0km</title><desc>10039610121</desc></polyline><polyline fill="none" stroke="#4dd2ff" stroke-linecap="round" stroke-linejoin="round" stroke-width=".5" points="141.006 113.075 141.541 118.688 142.968 122.753 144.751 125.269 145.822 128.753 148.854 134.172 149.567 134.946 150.459 135.333 150.994 134.946 150.994 134.366 147.427 131.462 145.108 127.204 144.216 123.527 142.076 118.688 141.006 114.624 141.184 112.108 141.006 111.333"><title>2023-10-14 1.0km</title><desc>10033377496</desc></polyline><polyline fill="none" stroke="#4dd2ff" stroke-linecap="round" stroke-linejoin="round" stroke-width=".5" points="171.225 111.714 174.385 115.524 174.736 118.381 177.72 127.524 180.529 134.19 181.406 135.333 182.108 135.333 182.108 134.762 181.933 134.19 180.353 133.048 178.598 129.81 176.667 123.714 173.156 115.905 172.629 113.238 171.752 111.333"><title>2023-10-13 1.0km</title><desc>10028006924</desc></polyline><polyline fill="none" stroke="#4dd2ff" stroke-linecap="round" stroke-linejoin="round" stroke-width=".5" points="18.184 138 19.872 140.198 20.885 142.031 21.054 144.412 20.885 146.977 22.742 150.824 24.937 156.687 27.132 160.718 27.639 161.45 28.483 162 28.483 161.084 26.626 158.702 24.937 155.771 22.742 149.725 21.392 147.344 20.716 145.328"><title>2023-10-12 1.0km</title><desc>10021974100</desc></polyline><polyline fill="none" stroke="#4dd2ff" stroke-linecap="round" stroke-linejoin="round" stroke-width=".5" points="51.194 141.403 51.854 144.985 51.689 146.418 53.175 151.254 54.33 153.403 55.486 157.343 57.136 161.284 57.466 161.642 58.292 162 58.126 161.284 56.311 156.627 54.33 153.224 51.689 147.134 51.029 144.806 50.699 141.403 49.708 138"><title>2023-10-10 1.0km</title><desc>10009069592</desc></polyline><polyline fill="none" stroke="#4dd2ff" stroke-linecap="round" stroke-linejoin="round" stroke-width=".5" points="80.601 141 81.739 144.176 82.878 148.412 85.317 153.706 87.269 160.412 88.407 162 88.732 161.471 88.895 159.529 87.757 156.176 85.317 151.941 82.552 144.176 81.739 140.647 80.438 138"><title>2023-10-09 1.0km</title><desc>10003389142</desc></polyline><polyline fill="none" stroke="#4dd2ff" stroke-linecap="round" stroke-linejoin="round" stroke-width=".5" points="110.447 138 111.647 139.488 112.847 142.279 113.533 147.86 116.105 153.442 118.334 159.767 119.363 161.628 120.22 162 120.22 160.512 116.962 155.302 112.676 144.884 110.961 138.186"><title>2023-10-08 1.0km</title><desc>9996447828</desc></polyline><polyline fill="none" stroke="#4dd2ff" stroke-linecap="round" stroke-linejoin="round" stroke-width=".5" points="142.919 142.8 143.709 145.714 146.079 152.057 146.869 154.8 149.397 161.143 150.187 162 150.345 161.314 150.345 160.629 147.343 155.314 145.921 152.229 143.393 144.686 142.603 140.743 141.655 138"><title>2023-10-07 1.0km</title><desc>9989974159</desc></polyline><polyline fill="none" stroke="#4dd2ff" stroke-linecap="round" stroke-linejoin="round" stroke-width=".5" points="174.706 145.149 175.961 149.234 176.902 151.277 178.784 159.277 179.255 160.809 180.196 162 180.98 162 181.294 161.319 181.137 160.809 179.255 158.085 177.373 154 176.745 151.277 173.451 143.277 172.98 140.383 172.039 138"><title>2023-10-06 1.0km</title><desc>9984428862</desc></polyline><polyline fill="none" stroke="#4dd2ff" stroke-linecap="round" stroke-linejoin="round" stroke-width=".5" points="18.166 164.667 20.886 171.945 22.699 178.044 25.781 185.716 27.05 188.273 27.594 188.667 28.319 188.667 28.5 188.273 27.956 187.29 25.781 184.142 24.512 181.585 22.336 175.88 21.43 172.929 18.892 168.208 18.892 166.437"><title>2023-10-04 1.0km</title><desc>9971682885</desc></polyline><polyline fill="none" stroke="#4dd2ff" stroke-linecap="round" stroke-linejoin="round" stroke-width=".5" points="50.368 167.47 51.175 170.273 51.982 172.2 52.628 175.178 55.695 181.309 55.857 183.411 56.825 187.616 57.148 188.141 58.117 188.667 58.117 186.915 56.018 183.061 54.565 179.732 53.758 178.156 52.951 175.878 51.336 172.55 50.69 169.922 50.368 167.294 49.883 164.667"><title>2023-10-03 1.0km</title><desc>9965060084</desc></polyline><polyline fill="none" stroke="#4dd2ff" stroke-linecap="round" stroke-linejoin="round" stroke-width=".5" points="80.28 165.658 82.473 172.799 82.839 175.972 84.118 177.559 85.032 179.939 86.677 186.088 87.957 188.072 88.871 188.667 89.054 188.468 88.505 186.882 86.495 183.113 83.204 175.179 81.194 169.229 80.828 164.667"><title>2023-10-02 1.0km</title><desc>9958643020</desc></polyline><polyline fill="none" stroke="#4dd2ff" stroke-linecap="round" stroke-linejoin="round" stroke-width=".5" points="111.529 168.891 111.883 170.619 115.776 179.835 117.722 185.787 118.784 187.899 119.845 188.667 120.022 188.475 119.845 187.707 116.307 182.331 112.945 174.075 111.352 169.083 110.644 164.667"><title>2023-10-01 1.0km</title><desc>9952075403</desc></polyline><polyline fill="none" stroke="#4dd2ff" stroke-linecap="round" stroke-linejoin="round" stroke-width=".5" points="142.554 168.145 143.997 171.101 144.638 174.058 145.118 176.841 147.523 183.623 149.606 187.971 150.568 188.667 150.888 188.145 147.683 183.275 146.24 179.971 145.76 178.232 143.516 173.362 142.234 167.971 141.112 164.667"><title>2023-09-30 1.0km</title><desc>9945549317</desc></polyline><polyline fill="none" stroke="#4dd2ff" stroke-linecap="round" stroke-linejoin="round" stroke-width=".5" points="172.951 164.667 174.543 167.355 175.074 169.467 176.49 172.923 177.197 178.107 177.728 179.643 179.852 184.827 180.382 188.091 180.736 188.475 181.267 188.667 181.444 188.283 178.259 182.523 176.136 177.531 175.428 174.651 172.951 168.891 171.889 165.435"><title>2023-09-28 1.0km</title><desc>9933629332</desc></polyline><polyline fill="none" stroke="#4dd2ff" stroke-linecap="round" stroke-linejoin="round" stroke-width=".5" points="18.642 194.061 19.982 198.788 22.496 202.242 24.171 208.424 26.517 212.606 27.187 214.97 27.857 215.333 28.193 214.788 27.857 214.061 26.517 212.242 22.663 204.424 20.652 198.97 18.474 191.333"><title>2023-09-27 1.0km</title><desc>9927137811</desc></polyline><polyline fill="none" stroke="#4dd2ff" stroke-linecap="round" stroke-linejoin="round" stroke-width=".5" points="55.994 191.333 55.515 193.641 55.037 194.968 54.665 196.583 52.485 201.141 51.368 203.045 51.156 203.853 51.262 204.487 51.528 205.41 52.325 207.372 52.591 207.891 52.91 208.814 53.973 210.141 54.452 211.18 54.984 211.987 55.409 213.141 56.047 214.006 56.844 215.333"><title>2023-09-26 1.0km</title><desc>9920397094</desc></polyline><polyline fill="none" stroke="#4dd2ff" stroke-linecap="round" stroke-linejoin="round" stroke-width=".5" points="84.555 191.333 83.508 194.82 82.462 196.685 81.491 197.901 80.968 198.874 80.744 199.847 80.819 201.063 81.192 202.036 82.089 203.414 82.462 204.793 83.21 206.577 84.629 208.36 87.02 213.225 88.59 215.333"><title>2023-09-25 1.0km</title><desc>9914573673</desc></polyline><polyline fill="none" stroke="#4dd2ff" stroke-linecap="round" stroke-linejoin="round" stroke-width=".5" points="117.103 191.333 116.513 192.229 116.395 192.677 116.513 193.253 116.572 193.829 115.392 196.005 115.097 197.477 114.685 198.565 112.207 202.917 112.148 203.429 112.384 204.453 113.033 205.477 113.387 206.373 113.918 207.269 114.213 208.165 114.979 209.381 115.569 210.597 116.218 211.301 116.395 211.941 116.808 212.453 117.693 213.989 118.341 214.693 118.518 215.333"><title>2023-09-24 1.0km</title><desc>9907510217</desc></polyline><polyline fill="none" stroke="#4dd2ff" stroke-linecap="round" stroke-linejoin="round" stroke-width=".5" points="146.895 191.333 146.394 192.11 146.036 192.887 145.821 193.896 145.749 195.217 144.533 196.848 143.817 198.712 143.173 199.644 142.743 200.887 142.672 202.207 144.175 206.013 144.747 207.178 146.608 210.129 147.396 212.071 148.398 213.314 148.97 214.324 149.328 215.333"><title>2023-09-23 1.0km</title><desc>9901004991</desc></polyline><polyline fill="none" stroke="#4dd2ff" stroke-linecap="round" stroke-linejoin="round" stroke-width=".5" points="177.588 191.333 177.11 192.222 176.633 193.778 175.54 196.074 174.448 197.63 173.492 200.222 173.424 201.63 173.561 202.445 174.926 205.704 175.131 206.667 175.404 207.185 176.359 208.37 177.11 209.852 177.725 211.407 178.749 212.889 179.909 215.333"><title>2023-09-22 1.0km</title><desc>9895405405</desc></polyline><polyline fill="none" stroke="#4dd2ff" stroke-linecap="round" stroke-linejoin="round" stroke-width=".5" points="24.606 218 24.41 218.708 24.018 219.133 23.17 220.69 22.844 221.823 21.865 224.301 20.821 226.425 20.169 227.982 19.973 228.761 19.973 229.257 20.169 229.965 20.56 230.673 21.409 232.867 22.257 234.425 22.714 235.558 23.562 236.974 24.084 237.611 24.475 238.743 25.519 240.584 26.693 242"><title>2023-09-21 1.0km</title><desc>9889267953</desc></polyline><polyline fill="none" stroke="#4dd2ff" stroke-linecap="round" stroke-linejoin="round" stroke-width=".5" points="56.443 218 55.587 220.57 55.083 222.592 54.277 224.287 53.32 227.13 51.657 230.246 51.204 231.941 51.254 232.324 51.557 233.144 52.211 234.565 52.615 235.768 53.622 237.189 54.227 238.337 54.579 239.157 54.982 239.868 55.637 240.36 56.443 241.563 56.494 241.781 56.796 242"><title>2023-09-20 1.0km</title><desc>9882714971</desc></polyline><polyline fill="none" stroke="#4dd2ff" stroke-linecap="round" stroke-linejoin="round" stroke-width=".5" points="86.657 218 86.145 219.296 85.178 222.134 85.122 223.059 84.78 223.553 84.382 224.478 84.155 225.342 83.7 226.514 82.392 228.612 82.051 229.846 81.938 230.956 82.051 232.067 82.392 233.301 82.79 234.165 84.041 236.324 84.667 237.188 85.235 238.73 85.804 239.717 86.372 240.519 86.998 241.136 87.396 242"><title>2023-09-19 1.0km</title><desc>9876194288</desc></polyline><polyline fill="none" stroke="#4dd2ff" stroke-linecap="round" stroke-linejoin="round" stroke-width=".5" points="115.157 218 114.733 218.69 114.026 220.07 113.814 220.99 112.542 223.214 111.553 225.284 111.341 226.051 111.412 226.895 111.836 227.968 112.471 229.118 113.037 230.729 113.814 232.415 114.662 233.949 115.439 234.946 116.358 236.479 116.923 238.243 117.913 239.776 118.407 241.157 119.326 242"><title>2023-09-18 1.0km</title><desc>9870505463</desc></polyline><polyline fill="none" stroke="#4dd2ff" stroke-linecap="round" stroke-linejoin="round" stroke-width=".5" points="146.241 218 145.897 218.673 145.414 220.916 144.794 221.963 144.519 222.785 143.003 225.252 142.452 226.598 142.107 227.794 142.383 228.617 143.898 231.907 144.656 233.103 145.208 234.374 146.103 235.57 146.586 236.393 147.206 238.336 149.893 242"><title>2023-09-16 1.0km</title><desc>9856514700</desc></polyline><polyline fill="none" stroke="#4dd2ff" stroke-linecap="round" stroke-linejoin="round" stroke-width=".5" points="176.335 218 175.598 220.24 174.639 221.76 172.649 225.6 172.575 226.48 172.649 227.52 173.091 228.56 173.828 229.68 174.492 231.2 175.671 233.2 177.146 236 177.293 237.04 177.809 237.44 178.399 238.24 179.358 239.84 180.39 240.72 180.611 241.28 180.758 242"><title>2023-09-15 1.0km</title><desc>9850671982</desc></polyline><polyline fill="none" stroke="#4dd2ff" stroke-linecap="round" stroke-linejoin="round" stroke-width=".5" points="23.943 244.667 22.723 247.894 21.35 249.881 20.74 250.956 19.825 253.274 19.596 254.101 19.596 254.763 19.825 255.591 20.74 258.074 21.579 259.729 23.638 263.287 24.477 264.86 24.63 265.77 25.24 266.349 26.231 267.922 27.07 268.667"><title>2023-09-14 1.0km</title><desc>9844236351</desc></polyline><polyline fill="none" stroke="#4dd2ff" stroke-linecap="round" stroke-linejoin="round" stroke-width=".5" points="50.186 244.667 50.625 245.024 50.789 245.381 50.899 246.156 51.228 246.811 51.448 248.657 51.448 249.55 51.338 250.027 51.448 250.622 51.722 251.337 51.613 251.932 51.667 252.23 52.216 253.242 52.71 254.731 53.149 255.565 53.698 256.339 54.302 256.875 54.467 257.233 54.631 258.007 55.07 258.781 55.564 260.21 56.223 261.461 56.552 262.533 56.717 263.426 57.046 264.141 57.65 266.106 58.473 267.654 58.528 267.892 58.473 268.071 57.814 268.667 58.144 268.428 58.308 268.071 58.418 267.773 58.363 267.357 58.034 266.94 57.046 264.796 56.552 263.188 55.509 260.865 55.015 258.602 54.741 257.947 53.698 256.577 52.655 254.612 52.161 253.004 51.997 251.932 51.558 250.801 50.68 248.895 50.46 248.002 49.692 246.572 49.527 245.798 49.472 244.845"><title>2023-09-13 1.0km</title><desc>9837636972</desc></polyline></svg>