<svg xmlns="http://www.w3.org/2000/svg" xmlns:ev="http://www.w3.org/2001/xml-events" xmlns:xlink="http://www.w3.org/1999/xlink" width="200mm" height="300mm" baseProfile="full" version="1.1" viewBox="0 0 200 300"><rect width="200" height="300" x="0" y="0" fill="#222"/><text fill="#FFF" style="font-size:12px;font-family:Arial;font-weight:700" x="10" y="20">Over 1km Runs</text><text fill="#FFF" style="font-size:4px;font-family:Arial" x="10" y="280">ATHLETE</text><text fill="#FFF" style="font-size:9px;font-family:Arial" x="10" y="290">Jiakai</text><text fill="#FFF" style="font-size:4px;font-family:Arial" x="120" y="280">STATISTICS</text><text fill="#FFF" style="font-size:3px;font-family:Arial" x="120" y="285">Number: 42</text><text fill="#FFF" style="font-size:3px;font-family:Arial" x="120" y="290">Weekly: 5.2</text><text fill="#FFF" style="font-size:3px;font-family:Arial" x="141" y="285">Total: 43.8 km</text><text fill="#FFF" style="font-size:3px;font-family:Arial" x="141" y="290">Avg: 1.0 km</text><text fill="#FFF" style="font-size:3px;font-family:Arial" x="167" y="285">Min: 1.0 km</text><text fill="#FFF" style="font-size:3px;font-family:Arial" x="167" y="290">Max: 1.5 km</text><polyline fill="none" stroke="#4dd2ff" stroke-linecap="round" stroke-linejoin="round" stroke-width=".5" points="20.761 34.7 21.682 39.5 21.682 41.3 23.71 44.7 29.239 56.5 30.161 58.3 30.529 58.5 26.29 50.1 24.447 44.9 22.42 40.7 19.471 31.5"><title>2023-10-30 1.0km</title><desc>10127985445</desc></polyline><polyline fill="none" stroke="#4dd2ff" stroke-linecap="round" stroke-linejoin="round" stroke-width=".5" points="50.744 35.408 51.562 40.915 52.053 42.691 55.327 50.329 56.964 54.77 59.42 58.145 60.075 58.5 60.238 57.967 58.765 55.658 56.637 51.04 52.872 44.112 51.399 38.961 50.253 36.651 50.089 33.099 49.762 31.5"><title>2023-10-28 1.0km</title><desc>10115543824</desc></polyline><polyline fill="none" stroke="#4dd2ff" stroke-linecap="round" stroke-linejoin="round" stroke-width=".5" points="81.498 37.1 82.973 41.9 84.631 45.7 86.106 51.1 88.318 56.3 89.239 58.3 90.161 58.5 90.345 58.3 89.977 57.1 88.871 54.1 85.184 46.9 82.235 38.9 80.392 34.9 79.655 31.5"><title>2023-10-27 1.0km</title><desc>10110442644</desc></polyline><polyline fill="none" stroke="#4dd2ff" stroke-linecap="round" stroke-linejoin="round" stroke-width=".5" points="111.341 35.669 114.817 47.382 116.098 50.956 117.378 53.14 118.842 57.309 119.391 58.103 120.489 58.5 120.672 57.904 120.489 57.11 118.659 54.728 115.915 49.963 112.622 40.235 110.426 36.662 109.328 31.5"><title>2023-10-26 1.0km</title><desc>10104873905</desc></polyline><polyline fill="none" stroke="#4dd2ff" stroke-linecap="round" stroke-linejoin="round" stroke-width=".5" points="143.648 44.413 147.795 54.783 149.778 58.304 150.499 58.5 150.319 56.543 145.451 48.13 142.746 41.283 140.402 36.391 139.501 31.5"><title>2023-10-25 1.0km</title><desc>10098978222</desc></polyline><polyline fill="none" stroke="#4dd2ff" stroke-linecap="round" stroke-linejoin="round" stroke-width=".5" points="170.005 31.5 169.824 32.88 170.913 37.412 172.366 40.369 173.275 43.916 174.909 48.646 178.36 55.347 179.45 58.106 179.813 58.5 180.176 58.303 179.995 55.741 177.997 51.996 176.544 49.828 174.728 45.69 174.364 43.522 172.185 40.172 170.913 37.215 170.55 33.668 170.005 31.5"><title>2023-10-24 1.0km</title><desc>10092835699</desc></polyline><polyline fill="none" stroke="#4dd2ff" stroke-linecap="round" stroke-linejoin="round" stroke-width=".5" points="22.225 71.162 24.91 80.68 26.164 83.011 27.596 88.838 29.744 92.723 30.639 93.5 29.744 92.529 28.491 89.421 25.269 85.536 24.552 84.176 23.836 79.709 21.688 75.435 20.256 70.968 19.361 66.5"><title>2023-10-23 1.0km</title><desc>10087395010</desc></polyline><polyline fill="none" stroke="#4dd2ff" stroke-linecap="round" stroke-linejoin="round" stroke-width=".5" points="46.258 66.629 46.736 66.5 50.137 66.759 51.629 67.147 51.987 67.342 52.762 67.924 53.299 68.572 54.493 70.773 55.09 73.234 55.865 74.529 56.223 75.565 57.059 77.443 57.655 79.385 58.55 80.939 58.968 81.392 59.505 82.299 59.803 84.241 59.982 84.759 60.46 85.471 60.579 86.572 60.758 87.025 63.384 93.241 63.742 93.5 63.742 93.176 63.205 92.658 62.608 91.234 62.011 90.004 60.4 85.018"><title>2023-10-22 1.5km</title><desc>10080655811</desc></polyline><polyline fill="none" stroke="#4dd2ff" stroke-linecap="round" stroke-linejoin="round" stroke-width=".5" points="80.706 66.5 81.653 67.185 79.948 66.911 82.6 70.338 82.853 71.16 82.663 71.845 81.779 72.325 81.527 72.805 81.59 73.627 82.095 75.614 82.663 77.053 83.295 79.246 84.432 81.234 84.621 81.987 85.316 83.221 85.758 83.769 85.821 84.112 86.263 84.523 86.579 85.208 87.021 86.51 87.463 87.401 87.4 89.183 88.221 90.759 88.473 91.513 88.915 92.335 89.673 93.294 90.052 93.5 88.6 91.444 88.284 90.348 87.652 88.977 87.4 88.086 86.579 86.921 85.884 84.934"><title>2023-10-20 1.4km</title><desc>10069668027</desc></polyline><polyline fill="none" stroke="#4dd2ff" stroke-linecap="round" stroke-linejoin="round" stroke-width=".5" points="109.567 66.5 109.696 67.547 110.724 70.058 110.982 71.593 113.103 76.756 113.296 77.454 113.425 78.5 113.682 79.198 115.225 81.361 116.061 83.035 116.575 84.709 117.025 85.616 117.282 87.012 117.604 87.709 118.44 89.872 118.568 90.709 119.79 93.221 120.111 93.5 120.304 93.5 120.433 93.43 120.369 93.36 119.083 91.756 118.504 89.802 117.282 87.57 117.09 86.663 116.961 85.128"><title>2023-10-19 1.3km</title><desc>10064004415</desc></polyline><polyline fill="none" stroke="#4dd2ff" stroke-linecap="round" stroke-linejoin="round" stroke-width=".5" points="138.912 66.5 141.559 69.947 141.382 72.436 141.735 74.926 142.971 79.33 144.735 82.202 146.5 87.181 150.029 92.926 150.559 93.5 151.088 93.309 148.794 91.011 144.559 82.777 143.5 79.138 140.5 72.819"><title>2023-10-18 1.0km</title><desc>10058081424</desc></polyline><polyline fill="none" stroke="#4dd2ff" stroke-linecap="round" stroke-linejoin="round" stroke-width=".5" points="170.287 68.136 171.795 76.932 175.754 87.364 178.393 92.886 179.524 93.5 180.09 93.5 180.467 92.682 179.147 91.045 177.451 88.386 175.189 83.477 174.246 80.614 170.287 72.636 169.91 71.409 169.533 66.5"><title>2023-10-17 1.0km</title><desc>10051702317</desc></polyline><polyline fill="none" stroke="#4dd2ff" stroke-linecap="round" stroke-linejoin="round" stroke-width=".5" points="18.971 102.123 20.885 105.446 23.756 112.923 25.287 115.831 27.01 121.231 29.115 126.631 29.881 128.085 30.838 128.5 31.029 128.292 30.838 127.669 28.732 124.554 25.861 117.492 23.756 113.131 22.033 105.031 21.076 101.5"><title>2023-10-16 1.0km</title><desc>10046279660</desc></polyline><polyline fill="none" stroke="#4dd2ff" stroke-linecap="round" stroke-linejoin="round" stroke-width=".5" points="49.471 101.5 50.26 103.214 51.05 107.071 52.828 113.071 55.197 116.714 57.962 127 58.95 128.071 60.332 128.5 60.529 128.071 60.332 126.786 57.765 123.143 56.382 118.857 54.803 116.286 51.05 107.5 49.668 101.5"><title>2023-10-15 1.0km</title><desc>10039610121</desc></polyline><polyline fill="none" stroke="#4dd2ff" stroke-linecap="round" stroke-linejoin="round" stroke-width=".5" points="79.381 103.46 79.983 109.774 81.589 114.347 83.595 117.177 84.799 121.097 88.211 127.194 89.013 128.065 90.017 128.5 90.619 128.065 90.619 127.411 86.605 124.145 83.997 119.355 82.993 115.218 80.585 109.774 79.381 105.202 79.582 102.371 79.381 101.5"><title>2023-10-14 1.0km</title><desc>10033377496</desc></polyline><polyline fill="none" stroke="#4dd2ff" stroke-linecap="round" stroke-linejoin="round" stroke-width=".5" points="108.878 101.929 112.433 106.214 112.828 109.429 116.185 119.714 119.345 127.214 120.332 128.5 121.122 128.5 121.122 127.857 120.924 127.214 119.147 125.929 117.172 122.286 115 115.429 111.05 106.643 110.458 103.643 109.471 101.5"><title>2023-10-13 1.0km</title><desc>10028006924</desc></polyline><polyline fill="none" stroke="#4dd2ff" stroke-linecap="round" stroke-linejoin="round" stroke-width=".5" points="139.207 101.5 141.106 103.973 142.246 106.034 142.436 108.714 142.246 111.599 144.335 115.928 146.804 122.523 149.274 127.057 149.844 127.882 150.793 128.5 150.793 127.469 148.704 124.79 146.804 121.492 144.335 114.691 142.816 112.011 142.056 109.744"><title>2023-10-12 1.0km</title><desc>10021974100</desc></polyline><polyline fill="none" stroke="#4dd2ff" stroke-linecap="round" stroke-linejoin="round" stroke-width=".5" points="171.843 105.328 172.586 109.358 172.4 110.97 174.072 116.41 175.371 118.828 176.671 123.261 178.528 127.694 178.9 128.097 179.828 128.5 179.642 127.694 177.6 122.455 175.371 118.627 172.4 111.776 171.658 109.157 171.286 105.328 170.172 101.5"><title>2023-10-10 1.0km</title><desc>10009069592</desc></polyline><polyline fill="none" stroke="#4dd2ff" stroke-linecap="round" stroke-linejoin="round" stroke-width=".5" points="20.426 139.875 21.707 143.449 22.987 148.213 25.732 154.169 27.927 161.713 29.208 163.5 29.574 162.904 29.757 160.721 28.476 156.949 25.732 152.184 22.622 143.449 21.707 139.478 20.243 136.5"><title>2023-10-09 1.0km</title><desc>10003389142</desc></polyline><polyline fill="none" stroke="#4dd2ff" stroke-linecap="round" stroke-linejoin="round" stroke-width=".5" points="49.503 136.5 50.853 138.174 52.203 141.314 52.975 147.593 55.868 153.872 58.376 160.988 59.533 163.081 60.497 163.5 60.497 161.826 56.832 155.965 52.01 144.244 50.081 136.709"><title>2023-10-08 1.0km</title><desc>9996447828</desc></polyline><polyline fill="none" stroke="#4dd2ff" stroke-linecap="round" stroke-linejoin="round" stroke-width=".5" points="81.534 141.9 82.423 145.179 85.089 152.314 85.978 155.4 88.821 162.536 89.71 163.5 89.888 162.729 89.888 161.957 86.511 155.979 84.911 152.507 82.067 144.021 81.179 139.586 80.112 136.5"><title>2023-10-07 1.0km</title><desc>9989974159</desc></polyline><polyline fill="none" stroke="#4dd2ff" stroke-linecap="round" stroke-linejoin="round" stroke-width=".5" points="112.794 144.543 114.206 149.138 115.265 151.436 117.382 160.436 117.912 162.16 118.971 163.5 119.853 163.5 120.206 162.734 120.029 162.16 117.912 159.096 115.794 154.5 115.088 151.436 111.382 142.436 110.853 139.181 109.794 136.5"><title>2023-10-06 1.0km</title><desc>9984428862</desc></polyline><polyline fill="none" stroke="#4dd2ff" stroke-linecap="round" stroke-linejoin="round" stroke-width=".5" points="139.187 136.5 142.247 144.689 144.286 151.549 147.753 160.18 149.181 163.057 149.793 163.5 150.609 163.5 150.813 163.057 150.201 161.951 147.753 158.41 146.326 155.533 143.878 149.115 142.858 145.795 140.003 140.484 140.003 138.492"><title>2023-10-04 1.0km</title><desc>9971682885</desc></polyline><polyline fill="none" stroke="#4dd2ff" stroke-linecap="round" stroke-linejoin="round" stroke-width=".5" points="170.913 139.653 171.822 142.807 172.73 144.974 173.456 148.325 176.907 155.223 177.089 157.588 178.178 162.318 178.542 162.909 179.631 163.5 179.631 161.529 177.27 157.193 175.636 153.449 174.728 151.675 173.819 149.113 172.003 145.369 171.277 142.412 170.913 139.456 170.369 136.5"><title>2023-10-03 1.0km</title><desc>9965060084</desc></polyline><polyline fill="none" stroke="#4dd2ff" stroke-linecap="round" stroke-linejoin="round" stroke-width=".5" points="20.065 172.616 22.532 180.649 22.944 184.219 24.383 186.004 25.411 188.682 27.262 195.599 28.702 197.831 29.73 198.5 29.935 198.277 29.318 196.492 27.056 192.252 23.355 183.326 21.093 176.632 20.682 171.5"><title>2023-10-02 1.0km</title><desc>9958643020</desc></polyline><polyline fill="none" stroke="#4dd2ff" stroke-linecap="round" stroke-linejoin="round" stroke-width=".5" points="50.72 176.252 51.118 178.196 55.498 188.564 57.687 195.26 58.882 197.636 60.076 198.5 60.275 198.284 60.076 197.42 56.095 191.372 52.313 182.084 50.521 176.468 49.725 171.5"><title>2023-10-01 1.0km</title><desc>9952075403</desc></polyline><polyline fill="none" stroke="#4dd2ff" stroke-linecap="round" stroke-linejoin="round" stroke-width=".5" points="81.123 175.413 82.746 178.739 83.467 182.065 84.008 185.196 86.713 192.826 89.057 197.717 90.139 198.5 90.499 197.913 86.893 192.435 85.27 188.717 84.73 186.761 82.205 181.283 80.763 175.217 79.501 171.5"><title>2023-09-30 1.0km</title><desc>9945549317</desc></polyline><polyline fill="none" stroke="#4dd2ff" stroke-linecap="round" stroke-linejoin="round" stroke-width=".5" points="110.82 171.5 112.611 174.524 113.208 176.9 114.801 180.788 115.597 186.62 116.194 188.348 118.583 194.18 119.18 197.852 119.578 198.284 120.176 198.5 120.375 198.068 116.792 191.588 114.403 185.972 113.607 182.732 110.82 176.252 109.625 172.364"><title>2023-09-28 1.0km</title><desc>9933629332</desc></polyline><polyline fill="none" stroke="#4dd2ff" stroke-linecap="round" stroke-linejoin="round" stroke-width=".5" points="139.722 174.568 141.23 179.886 144.057 183.773 145.943 190.727 148.582 195.432 149.336 198.091 150.09 198.5 150.467 197.886 150.09 197.068 148.582 195.023 144.246 186.227 141.984 180.091 139.533 171.5"><title>2023-09-27 1.0km</title><desc>9927137811</desc></polyline><polyline fill="none" stroke="#4dd2ff" stroke-linecap="round" stroke-linejoin="round" stroke-width=".5" points="177.243 171.5 176.705 174.096 176.166 175.589 175.748 177.406 173.295 182.534 172.039 184.676 171.8 185.584 171.92 186.298 172.219 187.337 173.116 189.543 173.415 190.127 173.774 191.166 174.97 192.659 175.508 193.827 176.107 194.736 176.585 196.034 177.303 197.007 178.2 198.5"><title>2023-09-26 1.0km</title><desc>9920397094</desc></polyline><polyline fill="none" stroke="#4dd2ff" stroke-linecap="round" stroke-linejoin="round" stroke-width=".5" points="24.874 206.5 23.697 210.422 22.52 212.52 21.427 213.889 20.839 214.983 20.587 216.078 20.671 217.446 21.091 218.541 22.1 220.091 22.52 221.642 23.361 223.649 24.958 225.655 27.648 231.128 29.413 233.5"><title>2023-09-25 1.0km</title><desc>9914573673</desc></polyline><polyline fill="none" stroke="#4dd2ff" stroke-linecap="round" stroke-linejoin="round" stroke-width=".5" points="56.991 206.5 56.327 207.508 56.194 208.012 56.327 208.66 56.393 209.308 55.066 211.756 54.735 213.412 54.27 214.636 51.483 219.532 51.417 220.108 51.682 221.26 52.412 222.412 52.81 223.42 53.408 224.428 53.739 225.436 54.602 226.804 55.265 228.172 55.995 228.964 56.194 229.684 56.659 230.26 57.654 231.988 58.384 232.78 58.583 233.5"><title>2023-09-24 1.0km</title><desc>9907510217</desc></polyline><polyline fill="none" stroke="#4dd2ff" stroke-linecap="round" stroke-linejoin="round" stroke-width=".5" points="86.007 206.5 85.443 207.374 85.04 208.248 84.799 209.384 84.718 210.869 83.349 212.704 82.544 214.801 81.819 215.85 81.336 217.248 81.256 218.733 82.947 223.015 83.591 224.325 85.684 227.646 86.57 229.83 87.698 231.228 88.342 232.364 88.744 233.5"><title>2023-09-23 1.0km</title><desc>9901004991</desc></polyline><polyline fill="none" stroke="#4dd2ff" stroke-linecap="round" stroke-linejoin="round" stroke-width=".5" points="116.037 206.5 115.499 207.5 114.962 209.25 113.733 211.833 112.504 213.583 111.429 216.5 111.352 218.083 111.506 219 113.042 222.667 113.272 223.75 113.579 224.333 114.654 225.667 115.499 227.333 116.19 229.083 117.342 230.75 118.648 233.5"><title>2023-09-22 1.0km</title><desc>9895405405</desc></polyline><polyline fill="none" stroke="#4dd2ff" stroke-linecap="round" stroke-linejoin="round" stroke-width=".5" points="146.431 206.5 146.211 207.296 145.771 207.774 144.817 209.527 144.45 210.801 143.349 213.589 142.174 215.978 141.44 217.73 141.22 218.606 141.22 219.164 141.44 219.96 141.881 220.757 142.835 223.226 143.789 224.978 144.303 226.252 145.257 227.845 145.844 228.562 146.284 229.836 147.459 231.907 148.78 233.5"><title>2023-09-21 1.0km</title><desc>9889267953</desc></polyline><polyline fill="none" stroke="#4dd2ff" stroke-linecap="round" stroke-linejoin="round" stroke-width=".5" points="177.749 206.5 176.785 209.391 176.219 211.666 175.312 213.573 174.235 216.771 172.364 220.277 171.854 222.183 171.911 222.614 172.251 223.537 172.988 225.136 173.441 226.489 174.575 228.088 175.255 229.379 175.652 230.302 176.105 231.101 176.842 231.655 177.749 233.008 177.806 233.254 178.146 233.5"><title>2023-09-20 1.0km</title><desc>9882714971</desc></polyline><polyline fill="none" stroke="#4dd2ff" stroke-linecap="round" stroke-linejoin="round" stroke-width=".5" points="27.239 241.5 26.663 242.958 25.576 246.15 25.512 247.192 25.128 247.747 24.68 248.788 24.424 249.76 23.913 251.078 22.441 253.438 22.058 254.827 21.93 256.076 22.058 257.325 22.441 258.713 22.889 259.685 24.296 262.114 25 263.086 25.64 264.821 26.279 265.932 26.919 266.834 27.623 267.528 28.07 268.5"><title>2023-09-19 1.0km</title><desc>9876194288</desc></polyline><polyline fill="none" stroke="#4dd2ff" stroke-linecap="round" stroke-linejoin="round" stroke-width=".5" points="54.801 241.5 54.324 242.276 53.529 243.829 53.291 244.864 51.86 247.366 50.747 249.695 50.508 250.558 50.588 251.506 51.065 252.714 51.78 254.008 52.416 255.82 53.291 257.717 54.245 259.443 55.119 260.564 56.153 262.289 56.789 264.273 57.902 265.998 58.458 267.551 59.492 268.5"><title>2023-09-18 1.0km</title><desc>9870505463</desc></polyline><polyline fill="none" stroke="#4dd2ff" stroke-linecap="round" stroke-linejoin="round" stroke-width=".5" points="85.271 241.5 84.884 242.257 84.341 244.78 83.643 245.958 83.333 246.883 81.628 249.659 81.008 251.173 80.62 252.519 80.93 253.444 82.636 257.145 83.488 258.491 84.109 259.921 85.116 261.266 85.659 262.192 86.357 264.379 89.38 268.5"><title>2023-09-16 1.0km</title><desc>9856514700</desc></polyline><polyline fill="none" stroke="#4dd2ff" stroke-linecap="round" stroke-linejoin="round" stroke-width=".5" points="114.627 241.5 113.797 244.02 112.719 245.73 110.48 250.05 110.397 251.04 110.48 252.21 110.977 253.38 111.807 254.64 112.553 256.35 113.88 258.6 115.539 261.75 115.705 262.92 116.286 263.37 116.949 264.27 118.027 266.07 119.189 267.06 119.437 267.69 119.603 268.5"><title>2023-09-15 1.0km</title><desc>9850671982</desc></polyline><polyline fill="none" stroke="#4dd2ff" stroke-linecap="round" stroke-linejoin="round" stroke-width=".5" points="145.686 241.5 144.314 245.131 142.769 247.366 142.083 248.576 141.053 251.183 140.796 252.114 140.796 252.859 141.053 253.79 142.083 256.583 143.027 258.445 145.343 262.448 146.287 264.217 146.459 265.241 147.145 265.893 148.26 267.662 149.204 268.5"><title>2023-09-14 1.0km</title><desc>9844236351</desc></polyline><polyline fill="none" stroke="#4dd2ff" stroke-linecap="round" stroke-linejoin="round" stroke-width=".5" points="170.709 241.5 171.203 241.902 171.388 242.304 171.512 243.175 171.882 243.912 172.129 245.989 172.129 246.994 172.005 247.53 172.129 248.2 172.438 249.004 172.314 249.674 172.376 250.009 172.993 251.148 173.549 252.823 174.043 253.761 174.66 254.632 175.34 255.235 175.525 255.637 175.71 256.508 176.204 257.379 176.76 258.986 177.501 260.393 177.871 261.599 178.056 262.604 178.427 263.408 179.106 265.619 180.032 267.361 180.094 267.629 180.032 267.83 179.291 268.5 179.662 268.232 179.847 267.83 179.97 267.495 179.909 267.026 179.538 266.557 178.427 264.145 177.871 262.336 176.698 259.723 176.142 257.178 175.834 256.441 174.66 254.9 173.487 252.689 172.932 250.88 172.746 249.674 172.252 248.401 171.265 246.257 171.018 245.252 170.153 243.644 169.968 242.773 169.906 241.701"><title>2023-09-13 1.0km</title><desc>9837636972</desc></polyline></svg>