<svg xmlns="http://www.w3.org/2000/svg" xmlns:ev="http://www.w3.org/2001/xml-events" xmlns:xlink="http://www.w3.org/1999/xlink" width="200mm" height="300mm" baseProfile="full" version="1.1" viewBox="0 0 200 300"><rect width="200" height="300" x="0" y="0" fill="#222"/><text fill="#FFF" style="font-size:12px;font-family:Arial;font-weight:700" x="10" y="20">Over 1km Runs</text><text fill="#FFF" style="font-size:4px;font-family:Arial" x="10" y="280">ATHLETE</text><text fill="#FFF" style="font-size:9px;font-family:Arial" x="10" y="290">Jiakai</text><text fill="#FFF" style="font-size:4px;font-family:Arial" x="120" y="280">STATISTICS</text><text fill="#FFF" style="font-size:3px;font-family:Arial" x="120" y="285">Number: 63</text><text fill="#FFF" style="font-size:3px;font-family:Arial" x="120" y="290">Weekly: 5.7</text><text fill="#FFF" style="font-size:3px;font-family:Arial" x="141" y="285">Total: 65.3 km</text><text fill="#FFF" style="font-size:3px;font-family:Arial" x="141" y="290">Avg: 1.0 km</text><text fill="#FFF" style="font-size:3px;font-family:Arial" x="167" y="285">Min: 1.0 km</text><text fill="#FFF" style="font-size:3px;font-family:Arial" x="167" y="290">Max: 1.5 km</text><polyline fill="none" stroke="#4dd2ff" stroke-linecap="round" stroke-linejoin="round" stroke-width=".5" points="20.829 36.501 20.98 38.783 21.58 42.368 23.984 49.213 24.735 52.473 25.936 54.429 26.837 54.429 26.687 53.451 25.035 49.213 23.683 47.095 21.731 41.064 19.478 34.871 18.877 31.286"><title>2023-11-21 1.0km</title><desc>10253878272</desc></polyline><polyline fill="none" stroke="#4dd2ff" stroke-linecap="round" stroke-linejoin="round" stroke-width=".5" points="46.081 37.536 46.859 42.604 50.128 50.881 51.529 53.922 51.996 54.429 52.308 54.26 52.463 53.922 51.841 51.219 49.038 45.138 47.949 41.928 46.236 35.34 45.302 33.651 44.679 31.286"><title>2023-11-20 1.0km</title><desc>10248671423</desc></polyline><polyline fill="none" stroke="#4dd2ff" stroke-linecap="round" stroke-linejoin="round" stroke-width=".5" points="70.166 33.214 72.428 38.123 73.074 43.208 74.851 47.24 76.629 52.325 77.436 53.552 78.406 54.429 78.244 53.026 75.498 45.838 73.72 39.351 71.943 35.143 70.973 31.286"><title>2023-11-19 1.0km</title><desc>10242265034</desc></polyline><polyline fill="none" stroke="#4dd2ff" stroke-linecap="round" stroke-linejoin="round" stroke-width=".5" points="95.502 51.906 96.513 48.725 96.917 47.957 97.625 47.519 101.061 47.08 103.588 46.532 104.397 45.873 104.902 45.215 105.509 42.473 105.306 41.596 105.711 40.938 105.408 35.892 105.205 35.234 105.104 33.26 104.902 32.053 103.79 31.724 102.881 32.383 103.083 32.053 103.285 32.383 101.971 31.724 101.87 31.286 101.567 31.505 101.769 31.395 101.061 32.273 101.162 32.163 103.285 33.26 102.78 33.699 101.971 34.028 100.051 34.357 99.949 33.918 100.455 33.699 101.162 33.808 103.285 31.724 106.216 31.834 105.913 31.615 105.509 31.505 105.205 36.77 105.306 38.305 105.61 40.17 105.812 43.351 105.812 44.448 105.509 45.544 104.902 46.202 99.848 46.751 97.524 47.19 96.311 48.067 94.896 50.041 94.087 52.893 93.784 54.429"><title>2023-11-18 1.0km</title><desc>10236386505</desc></polyline><polyline fill="none" stroke="#4dd2ff" stroke-linecap="round" stroke-linejoin="round" stroke-width=".5" points="120.992 31.286 124.343 37.071 125.562 41.369 126.019 43.849 126.933 45.337 129.828 53.767 130.437 54.429 130.437 53.767 129.828 52.941 128.152 47.982 127.238 46.329 126.933 43.518 125.562 40.047 124.039 36.741 123.886 34.922"><title>2023-11-17 1.0km</title><desc>10231268371</desc></polyline><polyline fill="none" stroke="#4dd2ff" stroke-linecap="round" stroke-linejoin="round" stroke-width=".5" points="147.301 32.032 149.537 35.205 150.053 39.498 151.601 42.857 154.009 51.816 155.557 54.429 155.385 52.935 154.181 50.509 153.321 48.083 151.945 42.297 149.193 36.512 148.333 33.899 147.817 31.286"><title>2023-11-16 1.0km</title><desc>10225818993</desc></polyline><polyline fill="none" stroke="#4dd2ff" stroke-linecap="round" stroke-linejoin="round" stroke-width=".5" points="173.13 31.535 174.276 36.014 176.111 40.991 178.634 45.719 179.551 49.452 181.156 52.687 182.762 54.429 178.634 46.714 176.799 40.991 171.524 31.286"><title>2023-11-15 1.0km</title><desc>10219684298</desc></polyline><polyline fill="none" stroke="#4dd2ff" stroke-linecap="round" stroke-linejoin="round" stroke-width=".5" points="18.768 60.856 20.853 63.466 21.173 66.772 23.579 72.514 25.022 77.386 26.465 81.04 27.107 81.214 26.946 79.126 24.862 76.342 24.06 73.906 22.777 72.34 22.296 70.426 19.89 65.554 19.089 62.074 18.608 58.071"><title>2023-11-14 1.0km</title><desc>10213806154</desc></polyline><polyline fill="none" stroke="#4dd2ff" stroke-linecap="round" stroke-linejoin="round" stroke-width=".5" points="45.48 61.258 46.717 65.953 50.117 74.674 50.89 77.525 52.435 80.711 52.899 81.214 51.972 79.537 49.808 74.339 49.653 72.997 48.108 69.307 45.79 65.115 44.862 62.264 44.244 58.071"><title>2023-11-13 1.0km</title><desc>10208522228</desc></polyline><polyline fill="none" stroke="#4dd2ff" stroke-linecap="round" stroke-linejoin="round" stroke-width=".5" points="71.701 60.701 73.316 65.61 75.255 69.643 76.386 74.377 77.517 77.708 78.971 80.864 79.618 81.214 79.941 80.513 78.164 77.007 77.194 73.149 73.639 69.818 71.701 67.013 71.377 64.032 68.631 58.071"><title>2023-11-12 1.0km</title><desc>10202270880</desc></polyline><polyline fill="none" stroke="#4dd2ff" stroke-linecap="round" stroke-linejoin="round" stroke-width=".5" points="96.498 62.389 100.318 71.025 101.592 75.342 102.865 78.796 103.661 80.351 104.457 81.214 104.616 80.523 103.183 76.206 100.477 72.061 97.613 65.498 96.498 60.835 95.384 58.071"><title>2023-11-11 1.0km</title><desc>10196068378</desc></polyline><polyline fill="none" stroke="#4dd2ff" stroke-linecap="round" stroke-linejoin="round" stroke-width=".5" points="123.563 61.523 126.182 69.44 128.614 75.936 129.737 80.199 130.485 81.214 130.859 80.808 130.298 78.372 127.492 72.079 124.685 66.192 120.944 60.305 120.569 58.071"><title>2023-11-10 1.0km</title><desc>10191120477</desc></polyline><polyline fill="none" stroke="#4dd2ff" stroke-linecap="round" stroke-linejoin="round" stroke-width=".5" points="146.056 58.778 148.824 60.898 150.452 63.725 150.94 64.785 150.94 66.375 152.731 71.851 153.382 75.031 154.685 78.564 155.01 80.331 155.824 81.214 156.313 81.038 156.801 80.331 155.01 79.094 152.08 74.854 148.661 65.491 147.847 60.191 147.033 58.071"><title>2023-11-09 1.0km</title><desc>10185506531</desc></polyline><polyline fill="none" stroke="#4dd2ff" stroke-linecap="round" stroke-linejoin="round" stroke-width=".5" points="172.628 59.93 174.341 63.308 174.963 64.997 176.987 69.389 177.766 72.43 177.61 70.572 177.921 71.754 178.544 76.315 179.945 80.539 180.568 81.214 181.346 80.876 181.658 80.37 179.945 78.849 178.7 76.822 177.921 74.626 176.832 70.91 175.275 68.714 173.562 64.997 173.095 62.295 173.251 58.916 172.94 58.071"><title>2023-11-08 1.0km</title><desc>10179505859</desc></polyline><polyline fill="none" stroke="#4dd2ff" stroke-linecap="round" stroke-linejoin="round" stroke-width=".5" points="21.813 97.642 27.033 108 27.332 107.838 26.586 106.058 25.243 103.792 24.349 101.526 22.559 99.584 21.962 98.452 21.515 94.567 21.217 93.435 19.427 90.36 18.383 84.857"><title>2023-11-06 1.0km</title><desc>10167691585</desc></polyline><polyline fill="none" stroke="#4dd2ff" stroke-linecap="round" stroke-linejoin="round" stroke-width=".5" points="46.347 91.35 47.421 93.348 51.41 102.506 53.098 107.667 53.405 108 53.712 108 53.712 107.501 52.484 104.837 51.41 103.338 51.257 102.506 50.336 101.507 47.728 97.011 44.659 89.186 43.431 84.857"><title>2023-11-05 1.1km</title><desc>10161301187</desc></polyline><polyline fill="none" stroke="#4dd2ff" stroke-linecap="round" stroke-linejoin="round" stroke-width=".5" points="69.958 84.857 73.049 91.733 74.44 97.77 76.604 101.963 77.377 105.317 78.149 108 78.613 107.497 78.459 106.994 76.449 103.304 76.295 102.801 74.44 99.95 73.668 97.267 71.658 93.578 71.195 90.391 70.267 87.037"><title>2023-11-04 1.0km</title><desc>10155501797</desc></polyline><polyline fill="none" stroke="#4dd2ff" stroke-linecap="round" stroke-linejoin="round" stroke-width=".5" points="106.209 88.373 104.454 86.029 103.374 85.297 101.215 84.857 99.19 85.004 96.356 86.322 95.141 87.494 94.061 89.691 93.791 91.448 93.386 97.307 93.656 103.459 93.926 104.338 95.276 106.535 96.895 107.707 99.595 108 102.025 106.975 104.319 104.192 104.994 102.873 105.939 98.626 105.939 95.257 106.614 90.863 106.479 89.251 104.994 87.494 103.779 86.615 100.945 85.297 99.46 85.297 96.221 86.322 94.736 87.64 93.791 89.398 93.521 90.57 93.791 95.403 93.521 97.6"><title>2023-11-03 1.0km</title><desc>10152446508</desc></polyline><polyline fill="none" stroke="#4dd2ff" stroke-linecap="round" stroke-linejoin="round" stroke-width=".5" points="120.925 84.857 122.19 87.603 123.274 92.506 125.082 96.036 127.793 103.097 128.335 104.274 129.239 107.412 129.781 108 130.504 108 130.504 107.608 129.239 107.019 128.697 105.646 127.431 104.47 126.528 101.92 125.262 99.959 123.816 97.017 122.19 90.937 121.105 88.387"><title>2023-11-02 1.1km</title><desc>10144903556</desc></polyline><polyline fill="none" stroke="#4dd2ff" stroke-linecap="round" stroke-linejoin="round" stroke-width=".5" points="147.488 86.534 147.797 88.379 149.033 91.23 151.197 98.944 154.906 106.658 155.988 108 155.37 105.988 153.051 102.466 151.815 97.938 150.269 95.758 148.415 91.733 146.869 84.857"><title>2023-11-01 1.0km</title><desc>10138966680</desc></polyline><polyline fill="none" stroke="#4dd2ff" stroke-linecap="round" stroke-linejoin="round" stroke-width=".5" points="173.775 85.205 174.577 87.815 175.86 94.776 177.945 99.3 179.228 103.476 181.312 108 181.473 107.826 180.029 105.738 177.945 100.866 176.181 97.734 173.134 88.511 172.813 84.857"><title>2023-10-31 1.0km</title><desc>10133123337</desc></polyline><polyline fill="none" stroke="#4dd2ff" stroke-linecap="round" stroke-linejoin="round" stroke-width=".5" points="19.223 114.386 20.013 118.5 20.013 120.043 21.751 122.957 26.491 133.071 27.281 134.614 27.597 134.786 23.963 127.586 22.383 123.129 20.645 119.529 18.118 111.643"><title>2023-10-30 1.0km</title><desc>10127985445</desc></polyline><polyline fill="none" stroke="#4dd2ff" stroke-linecap="round" stroke-linejoin="round" stroke-width=".5" points="44.923 114.992 45.625 119.712 46.046 121.235 48.852 127.782 50.255 131.588 52.36 134.481 52.921 134.786 53.062 134.329 51.799 132.35 49.975 128.391 46.747 122.453 45.484 118.038 44.502 116.058 44.362 113.013 44.081 111.643"><title>2023-10-28 1.0km</title><desc>10115543824</desc></polyline><polyline fill="none" stroke="#4dd2ff" stroke-linecap="round" stroke-linejoin="round" stroke-width=".5" points="71.284 116.443 72.548 120.557 73.97 123.814 75.234 128.443 77.129 132.9 77.919 134.614 78.709 134.786 78.867 134.614 78.551 133.586 77.603 131.014 74.444 124.843 71.916 117.986 70.336 114.557 69.704 111.643"><title>2023-10-27 1.0km</title><desc>10110442644</desc></polyline><polyline fill="none" stroke="#4dd2ff" stroke-linecap="round" stroke-linejoin="round" stroke-width=".5" points="96.864 115.216 99.843 125.256 100.941 128.319 102.039 130.191 103.293 133.765 103.764 134.445 104.705 134.786 104.862 134.275 104.705 133.595 103.136 131.553 100.784 127.469 97.961 119.13 96.079 116.067 95.138 111.643"><title>2023-10-26 1.0km</title><desc>10104873905</desc></polyline><polyline fill="none" stroke="#4dd2ff" stroke-linecap="round" stroke-linejoin="round" stroke-width=".5" points="124.555 122.711 128.11 131.599 129.81 134.618 130.428 134.786 130.274 133.109 126.101 125.898 123.782 120.028 121.773 115.835 121.001 111.643"><title>2023-10-25 1.0km</title><desc>10098978222</desc></polyline><polyline fill="none" stroke="#4dd2ff" stroke-linecap="round" stroke-linejoin="round" stroke-width=".5" points="147.147 111.643 146.992 112.825 147.926 116.711 149.171 119.245 149.95 122.285 151.351 126.339 154.309 132.083 155.243 134.448 155.554 134.786 155.865 134.617 155.71 132.421 153.997 129.211 152.752 127.353 151.195 123.806 150.884 121.947 149.016 119.076 147.926 116.542 147.614 113.501 147.147 111.643"><title>2023-10-24 1.0km</title><desc>10092835699</desc></polyline><polyline fill="none" stroke="#4dd2ff" stroke-linecap="round" stroke-linejoin="round" stroke-width=".5" points="174.765 115.639 177.066 123.797 178.14 125.795 179.368 130.79 181.209 134.12 181.976 134.786 181.209 133.953 180.135 131.289 177.373 127.959 176.759 126.794 176.146 122.965 174.304 119.302 173.077 115.472 172.31 111.643"><title>2023-10-23 1.0km</title><desc>10087395010</desc></polyline><polyline fill="none" stroke="#4dd2ff" stroke-linecap="round" stroke-linejoin="round" stroke-width=".5" points="15.364 138.54 15.773 138.429 18.689 138.651 19.967 138.984 20.274 139.15 20.939 139.65 21.399 140.205 22.422 142.092 22.934 144.2 23.599 145.31 23.906 146.198 24.622 147.808 25.133 149.473 25.9 150.805 26.258 151.193 26.719 151.97 26.974 153.635 27.128 154.079 27.537 154.69 27.639 155.633 27.793 156.022 30.043 161.349 30.35 161.571 30.35 161.294 29.89 160.85 29.378 159.629 28.867 158.575 27.486 154.301"><title>2023-10-22 1.5km</title><desc>10080655811</desc></polyline><polyline fill="none" stroke="#4dd2ff" stroke-linecap="round" stroke-linejoin="round" stroke-width=".5" points="44.891 138.429 45.702 139.016 44.241 138.781 46.514 141.718 46.731 142.423 46.569 143.01 45.811 143.421 45.594 143.833 45.648 144.537 46.081 146.241 46.569 147.474 47.11 149.354 48.084 151.057 48.247 151.703 48.842 152.761 49.221 153.231 49.275 153.524 49.654 153.877 49.925 154.464 50.304 155.58 50.683 156.344 50.628 157.871 51.332 159.222 51.549 159.868 51.928 160.573 52.577 161.395 52.902 161.571 51.657 159.809 51.386 158.87 50.845 157.695 50.628 156.931 49.925 155.933 49.329 154.229"><title>2023-10-20 1.4km</title><desc>10069668027</desc></polyline><polyline fill="none" stroke="#4dd2ff" stroke-linecap="round" stroke-linejoin="round" stroke-width=".5" points="69.629 138.429 69.739 139.326 70.621 141.478 70.841 142.794 72.66 147.219 72.825 147.817 72.936 148.714 73.156 149.312 74.479 151.166 75.195 152.601 75.636 154.037 76.022 154.814 76.242 156.01 76.518 156.608 77.234 158.462 77.344 159.179 78.391 161.332 78.667 161.571 78.832 161.571 78.943 161.512 78.887 161.452 77.785 160.076 77.289 158.402 76.242 156.488 76.077 155.711 75.967 154.395"><title>2023-10-19 1.3km</title><desc>10064004415</desc></polyline><polyline fill="none" stroke="#4dd2ff" stroke-linecap="round" stroke-linejoin="round" stroke-width=".5" points="94.781 138.429 97.05 141.383 96.899 143.517 97.202 145.65 98.26 149.426 99.773 151.888 101.286 156.155 104.311 161.079 104.765 161.571 105.219 161.407 103.252 159.438 99.622 152.38 98.714 149.261 96.143 143.845"><title>2023-10-18 1.0km</title><desc>10058081424</desc></polyline><polyline fill="none" stroke="#4dd2ff" stroke-linecap="round" stroke-linejoin="round" stroke-width=".5" points="121.675 139.831 122.968 147.37 126.361 156.312 128.623 161.045 129.592 161.571 130.077 161.571 130.4 160.87 129.269 159.468 127.815 157.188 125.876 152.981 125.068 150.526 121.675 143.688 121.352 142.636 121.029 138.429"><title>2023-10-17 1.0km</title><desc>10051702317</desc></polyline><polyline fill="none" stroke="#4dd2ff" stroke-linecap="round" stroke-linejoin="round" stroke-width=".5" points="146.261 138.963 147.901 141.811 150.362 148.22 151.675 150.712 153.151 155.341 154.956 159.969 155.612 161.215 156.432 161.571 156.596 161.393 156.432 160.859 154.628 158.189 152.167 152.136 150.362 148.398 148.886 141.455 148.065 138.429"><title>2023-10-16 1.0km</title><desc>10046279660</desc></polyline><polyline fill="none" stroke="#4dd2ff" stroke-linecap="round" stroke-linejoin="round" stroke-width=".5" points="172.403 138.429 173.08 139.898 173.757 143.204 175.281 148.347 177.312 151.469 179.682 160.286 180.528 161.204 181.713 161.571 181.882 161.204 181.713 160.102 179.513 156.98 178.328 153.306 176.974 151.102 173.757 143.571 172.573 138.429"><title>2023-10-15 1.0km</title><desc>10039610121</desc></polyline><polyline fill="none" stroke="#4dd2ff" stroke-linecap="round" stroke-linejoin="round" stroke-width=".5" points="18.041 166.894 18.557 172.306 19.933 176.226 21.653 178.652 22.685 182.012 25.609 187.237 26.297 187.984 27.157 188.357 27.673 187.984 27.673 187.424 24.233 184.624 21.997 180.518 21.137 176.972 19.073 172.306 18.041 168.387 18.213 165.961 18.041 165.214"><title>2023-10-14 1.0km</title><desc>10033377496</desc></polyline><polyline fill="none" stroke="#4dd2ff" stroke-linecap="round" stroke-linejoin="round" stroke-width=".5" points="43.324 165.582 46.371 169.255 46.709 172.01 49.587 180.827 52.295 187.255 53.142 188.357 53.819 188.357 53.819 187.806 53.65 187.255 52.126 186.153 50.433 183.031 48.571 177.153 45.186 169.622 44.678 167.051 43.832 165.214"><title>2023-10-13 1.0km</title><desc>10028006924</desc></polyline><polyline fill="none" stroke="#4dd2ff" stroke-linecap="round" stroke-linejoin="round" stroke-width=".5" points="69.32 165.214 70.948 167.334 71.925 169.101 72.088 171.398 71.925 173.871 73.716 177.581 75.832 183.234 77.949 187.121 78.437 187.827 79.251 188.357 79.251 187.474 77.46 185.177 75.832 182.351 73.716 176.521 72.413 174.224 71.762 172.281"><title>2023-10-12 1.0km</title><desc>10021974100</desc></polyline><polyline fill="none" stroke="#4dd2ff" stroke-linecap="round" stroke-linejoin="round" stroke-width=".5" points="97.294 168.496 97.931 171.95 97.772 173.332 99.204 177.995 100.318 180.067 101.432 183.867 103.024 187.666 103.342 188.012 104.138 188.357 103.979 187.666 102.228 183.176 100.318 179.894 97.772 174.022 97.135 171.777 96.817 168.496 95.862 165.214"><title>2023-10-10 1.0km</title><desc>10009069592</desc></polyline><polyline fill="none" stroke="#4dd2ff" stroke-linecap="round" stroke-linejoin="round" stroke-width=".5" points="121.794 168.107 122.891 171.17 123.989 175.254 126.342 180.359 128.223 186.826 129.321 188.357 129.635 187.847 129.792 185.975 128.694 182.742 126.342 178.658 123.676 171.17 122.891 167.767 121.637 165.214"><title>2023-10-09 1.0km</title><desc>10003389142</desc></polyline><polyline fill="none" stroke="#4dd2ff" stroke-linecap="round" stroke-linejoin="round" stroke-width=".5" points="146.717 165.214 147.874 166.65 149.031 169.341 149.693 174.723 152.173 180.105 154.322 186.204 155.314 187.998 156.141 188.357 156.141 186.922 152.999 181.899 148.866 171.852 147.213 165.394"><title>2023-10-08 1.0km</title><desc>9996447828</desc></polyline><polyline fill="none" stroke="#4dd2ff" stroke-linecap="round" stroke-linejoin="round" stroke-width=".5" points="174.172 169.843 174.934 172.653 177.219 178.769 177.981 181.414 180.418 187.531 181.18 188.357 181.332 187.696 181.332 187.035 178.438 181.91 177.067 178.935 174.629 171.661 173.867 167.859 172.953 165.214"><title>2023-10-07 1.0km</title><desc>9989974159</desc></polyline><polyline fill="none" stroke="#4dd2ff" stroke-linecap="round" stroke-linejoin="round" stroke-width=".5" points="20.966 198.894 22.176 202.833 23.084 204.802 24.899 212.517 25.353 213.994 26.261 215.143 27.017 215.143 27.319 214.486 27.168 213.994 25.353 211.368 23.538 207.429 22.933 204.802 19.756 197.088 19.302 194.298 18.395 192"><title>2023-10-06 1.0km</title><desc>9984428862</desc></polyline><polyline fill="none" stroke="#4dd2ff" stroke-linecap="round" stroke-linejoin="round" stroke-width=".5" points="43.589 192 46.211 199.019 47.96 204.899 50.931 212.297 52.155 214.763 52.68 215.143 53.379 215.143 53.554 214.763 53.029 213.815 50.931 210.78 49.708 208.314 47.61 202.813 46.736 199.967 44.288 195.415 44.288 193.707"><title>2023-10-04 1.0km</title><desc>9971682885</desc></polyline><polyline fill="none" stroke="#4dd2ff" stroke-linecap="round" stroke-linejoin="round" stroke-width=".5" points="70.783 194.703 71.561 197.406 72.34 199.264 72.962 202.136 75.92 208.048 76.076 210.075 77.01 214.129 77.321 214.636 78.256 215.143 78.256 213.454 76.232 209.737 74.831 206.528 74.052 205.007 73.274 202.811 71.717 199.602 71.094 197.068 70.783 194.534 70.316 192"><title>2023-10-03 1.0km</title><desc>9965060084</desc></polyline><polyline fill="none" stroke="#4dd2ff" stroke-linecap="round" stroke-linejoin="round" stroke-width=".5" points="95.77 192.956 97.885 199.842 98.237 202.902 99.471 204.432 100.353 206.727 101.939 212.656 103.173 214.569 104.054 215.143 104.23 214.952 103.702 213.421 101.763 209.788 98.59 202.137 96.651 196.399 96.298 192"><title>2023-10-02 1.0km</title><desc>9958643020</desc></polyline><polyline fill="none" stroke="#4dd2ff" stroke-linecap="round" stroke-linejoin="round" stroke-width=".5" points="122.046 196.073 122.387 197.739 126.141 206.626 128.018 212.366 129.041 214.402 130.065 215.143 130.236 214.958 130.065 214.217 126.653 209.033 123.411 201.072 121.875 196.258 121.193 192"><title>2023-10-01 1.0km</title><desc>9952075403</desc></polyline><polyline fill="none" stroke="#4dd2ff" stroke-linecap="round" stroke-linejoin="round" stroke-width=".5" points="148.106 195.354 149.497 198.205 150.115 201.056 150.579 203.739 152.897 210.28 154.906 214.472 155.833 215.143 156.142 214.64 153.051 209.944 151.66 206.758 151.197 205.081 149.033 200.385 147.797 195.186 146.715 192"><title>2023-09-30 1.0km</title><desc>9945549317</desc></polyline><polyline fill="none" stroke="#4dd2ff" stroke-linecap="round" stroke-linejoin="round" stroke-width=".5" points="173.56 192 175.095 194.592 175.607 196.629 176.972 199.961 177.655 204.96 178.167 206.441 180.214 211.44 180.726 214.587 181.067 214.958 181.579 215.143 181.75 214.773 178.678 209.218 176.631 204.405 175.948 201.627 173.56 196.073 172.536 192.741"><title>2023-09-28 1.0km</title><desc>9933629332</desc></polyline><polyline fill="none" stroke="#4dd2ff" stroke-linecap="round" stroke-linejoin="round" stroke-width=".5" points="18.333 221.416 19.626 225.974 22.049 229.305 23.665 235.266 25.927 239.299 26.573 241.578 27.22 241.929 27.543 241.403 27.22 240.701 25.927 238.948 22.211 231.409 20.272 226.149 18.171 218.786"><title>2023-09-27 1.0km</title><desc>9927137811</desc></polyline><polyline fill="none" stroke="#4dd2ff" stroke-linecap="round" stroke-linejoin="round" stroke-width=".5" points="50.494 218.786 50.033 221.011 49.571 222.291 49.212 223.848 47.11 228.243 46.034 230.079 45.829 230.858 45.931 231.47 46.187 232.36 46.956 234.251 47.213 234.752 47.52 235.642 48.546 236.922 49.007 237.923 49.52 238.702 49.93 239.815 50.545 240.649 51.314 241.929"><title>2023-09-26 1.0km</title><desc>9920397094</desc></polyline><polyline fill="none" stroke="#4dd2ff" stroke-linecap="round" stroke-linejoin="round" stroke-width=".5" points="74.178 218.786 73.169 222.148 72.16 223.946 71.223 225.119 70.719 226.057 70.503 226.995 70.575 228.168 70.935 229.106 71.8 230.435 72.16 231.765 72.881 233.485 74.25 235.205 76.555 239.896 78.068 241.929"><title>2023-09-25 1.0km</title><desc>9914573673</desc></polyline><polyline fill="none" stroke="#4dd2ff" stroke-linecap="round" stroke-linejoin="round" stroke-width=".5" points="101.706 218.786 101.137 219.65 101.024 220.082 101.137 220.637 101.194 221.193 100.057 223.291 99.773 224.71 99.374 225.759 96.986 229.956 96.929 230.45 97.156 231.437 97.782 232.425 98.123 233.289 98.635 234.153 98.919 235.017 99.659 236.189 100.227 237.362 100.853 238.041 101.024 238.658 101.422 239.151 102.275 240.633 102.901 241.311 103.071 241.929"><title>2023-09-24 1.0km</title><desc>9907510217</desc></polyline><polyline fill="none" stroke="#4dd2ff" stroke-linecap="round" stroke-linejoin="round" stroke-width=".5" points="126.577 218.786 126.094 219.535 125.749 220.284 125.542 221.257 125.473 222.531 124.299 224.103 123.609 225.901 122.988 226.8 122.574 227.998 122.505 229.271 123.954 232.941 124.506 234.065 126.301 236.911 127.06 238.783 128.027 239.981 128.579 240.955 128.924 241.929"><title>2023-09-23 1.0km</title><desc>9901004991</desc></polyline><polyline fill="none" stroke="#4dd2ff" stroke-linecap="round" stroke-linejoin="round" stroke-width=".5" points="152.317 218.786 151.856 219.643 151.396 221.143 150.342 223.357 149.289 224.857 148.368 227.357 148.302 228.714 148.433 229.5 149.75 232.643 149.947 233.571 150.211 234.071 151.132 235.214 151.856 236.643 152.449 238.143 153.436 239.571 154.555 241.929"><title>2023-09-22 1.0km</title><desc>9895405405</desc></polyline><polyline fill="none" stroke="#4dd2ff" stroke-linecap="round" stroke-linejoin="round" stroke-width=".5" points="178.37 218.786 178.181 219.468 177.803 219.878 176.986 221.38 176.671 222.472 175.727 224.862 174.721 226.91 174.092 228.412 173.903 229.163 173.903 229.64 174.092 230.323 174.469 231.006 175.287 233.122 176.105 234.624 176.545 235.716 177.363 237.082 177.866 237.696 178.244 238.788 179.25 240.563 180.383 241.929"><title>2023-09-21 1.0km</title><desc>9889267953</desc></polyline><polyline fill="none" stroke="#4dd2ff" stroke-linecap="round" stroke-linejoin="round" stroke-width=".5" points="25.213 245.571 24.387 248.049 23.902 250 23.124 251.634 22.201 254.375 20.598 257.38 20.161 259.014 20.209 259.383 20.501 260.174 21.132 261.545 21.521 262.705 22.493 264.075 23.076 265.182 23.416 265.973 23.804 266.658 24.436 267.133 25.213 268.293 25.262 268.503 25.553 268.714"><title>2023-09-20 1.0km</title><desc>9882714971</desc></polyline><polyline fill="none" stroke="#4dd2ff" stroke-linecap="round" stroke-linejoin="round" stroke-width=".5" points="50.49 245.571 49.997 246.821 49.065 249.558 49.01 250.45 48.681 250.926 48.297 251.818 48.078 252.651 47.639 253.782 46.378 255.804 46.049 256.994 45.94 258.065 46.049 259.136 46.378 260.326 46.762 261.159 47.968 263.241 48.571 264.074 49.12 265.561 49.668 266.513 50.216 267.286 50.819 267.881 51.203 268.714"><title>2023-09-19 1.0km</title><desc>9876194288</desc></polyline><polyline fill="none" stroke="#4dd2ff" stroke-linecap="round" stroke-linejoin="round" stroke-width=".5" points="74.115 245.571 73.707 246.237 73.025 247.568 72.821 248.455 71.594 250.599 70.64 252.596 70.436 253.335 70.504 254.148 70.913 255.184 71.526 256.293 72.071 257.845 72.821 259.472 73.638 260.951 74.388 261.912 75.274 263.391 75.819 265.091 76.773 266.57 77.25 267.901 78.136 268.714"><title>2023-09-18 1.0km</title><desc>9870505463</desc></polyline><polyline fill="none" stroke="#4dd2ff" stroke-linecap="round" stroke-linejoin="round" stroke-width=".5" points="100.233 245.571 99.9 246.22 99.435 248.383 98.837 249.393 98.572 250.186 97.11 252.565 96.578 253.863 96.246 255.016 96.512 255.809 97.974 258.981 98.704 260.135 99.236 261.361 100.1 262.514 100.565 263.307 101.163 265.182 103.754 268.714"><title>2023-09-16 1.0km</title><desc>9856514700</desc></polyline><polyline fill="none" stroke="#4dd2ff" stroke-linecap="round" stroke-linejoin="round" stroke-width=".5" points="125.394 245.571 124.683 247.731 123.759 249.197 121.84 252.9 121.769 253.749 121.84 254.751 122.266 255.754 122.977 256.834 123.617 258.3 124.755 260.229 126.176 262.929 126.319 263.931 126.816 264.317 127.385 265.089 128.309 266.631 129.304 267.48 129.518 268.02 129.66 268.714"><title>2023-09-15 1.0km</title><desc>9850671982</desc></polyline><polyline fill="none" stroke="#4dd2ff" stroke-linecap="round" stroke-linejoin="round" stroke-width=".5" points="152.017 245.571 150.84 248.684 149.516 250.599 148.928 251.637 148.046 253.871 147.825 254.669 147.825 255.307 148.046 256.105 148.928 258.5 149.737 260.096 151.723 263.527 152.532 265.043 152.679 265.921 153.267 266.48 154.223 267.996 155.032 268.714"><title>2023-09-14 1.0km</title><desc>9844236351</desc></polyline><polyline fill="none" stroke="#4dd2ff" stroke-linecap="round" stroke-linejoin="round" stroke-width=".5" points="173.465 245.571 173.888 245.916 174.047 246.261 174.153 247.007 174.47 247.639 174.682 249.419 174.682 250.28 174.576 250.74 174.682 251.314 174.947 252.003 174.841 252.578 174.894 252.865 175.423 253.841 175.899 255.277 176.323 256.081 176.852 256.827 177.434 257.344 177.593 257.688 177.751 258.435 178.175 259.182 178.651 260.56 179.286 261.766 179.604 262.799 179.763 263.661 180.08 264.35 180.662 266.245 181.456 267.738 181.509 267.968 181.456 268.14 180.821 268.714 181.139 268.485 181.297 268.14 181.403 267.853 181.35 267.451 181.033 267.049 180.08 264.982 179.604 263.431 178.598 261.191 178.122 259.009 177.857 258.378 176.852 257.057 175.846 255.162 175.37 253.611 175.211 252.578 174.788 251.486 173.941 249.649 173.729 248.787 172.988 247.409 172.83 246.663 172.777 245.744"><title>2023-09-13 1.0km</title><desc>9837636972</desc></polyline></svg>