<svg xmlns="http://www.w3.org/2000/svg" xmlns:ev="http://www.w3.org/2001/xml-events" xmlns:xlink="http://www.w3.org/1999/xlink" width="200mm" height="300mm" baseProfile="full" version="1.1" viewBox="0 0 200 300"><rect width="200" height="300" x="0" y="0" fill="#222"/><text fill="#FFF" style="font-size:12px;font-family:Arial;font-weight:700" x="10" y="20">Over 1km Runs</text><text fill="#FFF" style="font-size:4px;font-family:Arial" x="10" y="280">ATHLETE</text><text fill="#FFF" style="font-size:9px;font-family:Arial" x="10" y="290">Jiakai</text><text fill="#FFF" style="font-size:4px;font-family:Arial" x="120" y="280">STATISTICS</text><text fill="#FFF" style="font-size:3px;font-family:Arial" x="120" y="285">Number: 74</text><text fill="#FFF" style="font-size:3px;font-family:Arial" x="120" y="290">Weekly: 5.7</text><text fill="#FFF" style="font-size:3px;font-family:Arial" x="141" y="285">Total: 76.5 km</text><text fill="#FFF" style="font-size:3px;font-family:Arial" x="141" y="290">Avg: 1.0 km</text><text fill="#FFF" style="font-size:3px;font-family:Arial" x="167" y="285">Min: 1.0 km</text><text fill="#FFF" style="font-size:3px;font-family:Arial" x="167" y="290">Max: 1.5 km</text><polyline fill="none" stroke="#4dd2ff" stroke-linecap="round" stroke-linejoin="round" stroke-width=".5" points="17.531 32.824 18.444 34.24 19.619 38.347 21.968 44.153 23.142 48.118 24.186 50.384 24.969 51.375 24.969 50.667 21.576 42.879 20.271 38.489 18.836 35.232 17.792 31.125"><title>2023-12-04 1.0km</title><desc>10324662812</desc></polyline><polyline fill="none" stroke="#4dd2ff" stroke-linecap="round" stroke-linejoin="round" stroke-width=".5" points="40.233 32.994 41.668 38.446 43.965 43.587 45.544 49.038 46.693 51.219 47.554 51.375 47.554 50.752 46.549 49.038 45.257 45.3 43.822 43.119 42.817 40.471 41.094 34.24 39.946 31.125"><title>2023-12-02 1.0km</title><desc>10313350310</desc></polyline><polyline fill="none" stroke="#4dd2ff" stroke-linecap="round" stroke-linejoin="round" stroke-width=".5" points="62.574 32.199 63.988 34.04 65.684 39.869 66.816 44.625 68.653 49.841 69.784 51.375 69.926 50.455 69.643 48.614 68.088 45.239 65.684 41.403 64.271 38.489 62.857 31.125"><title>2023-12-01 1.0km</title><desc>10308709030</desc></polyline><polyline fill="none" stroke="#4dd2ff" stroke-linecap="round" stroke-linejoin="round" stroke-width=".5" points="85.018 31.125 87.817 40.744 90.616 46.481 92.171 50.7 92.638 51.375 92.793 50.869 92.171 49.181 89.839 45.975 89.217 44.288 86.884 39.731 85.795 34.5 84.707 31.463"><title>2023-11-30 1.0km</title><desc>10303537703</desc></polyline><polyline fill="none" stroke="#4dd2ff" stroke-linecap="round" stroke-linejoin="round" stroke-width=".5" points="108.933 35.454 109.834 38.387 110.22 40.761 111.636 43.554 113.181 47.744 114.725 51.096 114.982 51.375 115.24 51.096 114.982 50.118 113.953 48.303 112.537 44.392 110.478 40.203 109.706 35.734 108.161 33.359 107.26 31.125"><title>2023-11-29 1.0km</title><desc>10298007687</desc></polyline><polyline fill="none" stroke="#4dd2ff" stroke-linecap="round" stroke-linejoin="round" stroke-width=".5" points="130.259 33.747 131.736 37.535 132.005 40.303 133.884 44.819 134.958 48.898 135.898 50.792 136.838 51.375 137.241 51.375 137.509 50.938 137.375 50.355 136.838 49.335 134.69 43.654 132.542 38.701 132.139 36.37 131.199 33.602 129.991 31.125"><title>2023-11-28 1.0km</title><desc>10292316108</desc></polyline><polyline fill="none" stroke="#4dd2ff" stroke-linecap="round" stroke-linejoin="round" stroke-width=".5" points="155.775 31.125 156.963 34.35 157.676 37.445 158.627 38.864 159.697 40.928 160.767 44.281 161.718 45.829 161.718 46.603 161.124 47.119 159.222 48.15 158.033 49.182 156.844 49.827 155.061 50.601 152.209 51.375 151.733 51.246 151.376 50.859 150.782 48.408"><title>2023-11-27 1.0km</title><desc>10287544518</desc></polyline><polyline fill="none" stroke="#4dd2ff" stroke-linecap="round" stroke-linejoin="round" stroke-width=".5" points="176.792 35.515 177.445 37.073 179.011 45.003 180.708 49.109 181.621 50.667 182.274 51.375 182.404 51.233 182.013 50.525 182.013 49.392 180.969 46.985 179.794 43.02 178.619 40.613 177.836 36.081 175.618 32.541 175.096 31.125"><title>2023-11-26 1.0km</title><desc>10281488289</desc></polyline><polyline fill="none" stroke="#4dd2ff" stroke-linecap="round" stroke-linejoin="round" stroke-width=".5" points="17.563 55.292 19.068 59.211 20.422 64.763 21.777 67.866 22.078 69.826 22.83 71.622 24.486 74.725 25.238 75.542 25.539 75.542 23.282 70.642 22.981 69.009 21.476 66.886 18.466 58.721 16.961 55.945"><title>2023-11-25 1.0km</title><desc>10275889695</desc></polyline><polyline fill="none" stroke="#4dd2ff" stroke-linecap="round" stroke-linejoin="round" stroke-width=".5" points="39.826 55.481 40.872 60.212 45.756 73.46 46.977 75.352 47.5 75.542 47.674 74.974 45.93 72.703 43.837 66.458 42.442 63.619 41.57 58.13 40.523 55.292"><title>2023-11-24 1.0km</title><desc>10271180196</desc></polyline><polyline fill="none" stroke="#4dd2ff" stroke-linecap="round" stroke-linejoin="round" stroke-width=".5" points="63.732 57.542 64.176 58.827 65.213 64.292 67.731 72.006 68.916 75.22 69.36 75.542 69.953 75.542 70.101 75.22 69.805 73.613 68.175 68.952 63.88 59.631 62.399 55.292"><title>2023-11-23 1.0km</title><desc>10265414399</desc></polyline><polyline fill="none" stroke="#4dd2ff" stroke-linecap="round" stroke-linejoin="round" stroke-width=".5" points="86.976 59.855 87.107 61.852 87.633 64.989 89.736 70.978 90.393 73.83 91.444 75.542 92.233 75.542 92.101 74.686 90.656 70.978 89.473 69.124 87.764 63.848 85.793 58.429 85.267 55.292"><title>2023-11-21 1.0km</title><desc>10253878272</desc></polyline><polyline fill="none" stroke="#4dd2ff" stroke-linecap="round" stroke-linejoin="round" stroke-width=".5" points="109.071 60.761 109.752 65.195 112.612 72.438 113.838 75.098 114.247 75.542 114.519 75.394 114.655 75.098 114.111 72.733 111.659 67.412 110.705 64.604 109.207 58.839 108.389 57.361 107.845 55.292"><title>2023-11-20 1.0km</title><desc>10248671423</desc></polyline><polyline fill="none" stroke="#4dd2ff" stroke-linecap="round" stroke-linejoin="round" stroke-width=".5" points="130.145 56.979 132.124 61.275 132.69 65.724 134.245 69.252 135.8 73.701 136.507 74.775 137.355 75.542 137.214 74.314 134.81 68.025 133.255 62.349 131.7 58.667 130.852 55.292"><title>2023-11-19 1.0km</title><desc>10242265034</desc></polyline><polyline fill="none" stroke="#4dd2ff" stroke-linecap="round" stroke-linejoin="round" stroke-width=".5" points="152.314 73.334 153.199 70.551 153.553 69.879 154.172 69.495 157.179 69.112 159.39 68.632 160.097 68.056 160.539 67.48 161.07 65.081 160.893 64.313 161.247 63.737 160.982 59.322 160.805 58.747 160.716 57.019 160.539 55.963 159.567 55.676 158.771 56.251 158.947 55.963 159.124 56.251 157.975 55.676 157.886 55.292 157.621 55.484 157.798 55.388 157.179 56.155 157.267 56.059 159.124 57.019 158.682 57.403 157.975 57.691 156.294 57.979 156.206 57.595 156.648 57.403 157.267 57.499 159.124 55.676 161.689 55.772 161.424 55.58 161.07 55.484 160.805 60.09 160.893 61.434 161.159 63.065 161.335 65.849 161.335 66.808 161.07 67.768 160.539 68.344 156.117 68.824 154.083 69.208 153.022 69.975 151.784 71.703 151.076 74.198 150.811 75.542"><title>2023-11-18 1.0km</title><desc>10236386505</desc></polyline><polyline fill="none" stroke="#4dd2ff" stroke-linecap="round" stroke-linejoin="round" stroke-width=".5" points="174.618 55.292 177.55 60.354 178.617 64.115 179.017 66.285 179.816 67.586 182.349 74.963 182.882 75.542 182.882 74.963 182.349 74.24 180.883 69.901 180.083 68.454 179.816 65.995 178.617 62.958 177.284 60.065 177.15 58.474"><title>2023-11-17 1.0km</title><desc>10231268371</desc></polyline><polyline fill="none" stroke="#4dd2ff" stroke-linecap="round" stroke-linejoin="round" stroke-width=".5" points="17.638 80.112 19.595 82.888 20.046 86.644 21.4 89.583 23.507 97.422 24.862 99.708 24.711 98.402 23.658 96.279 22.905 94.156 21.701 89.093 19.294 84.031 18.541 81.745 18.09 79.458"><title>2023-11-16 1.0km</title><desc>10225818993</desc></polyline><polyline fill="none" stroke="#4dd2ff" stroke-linecap="round" stroke-linejoin="round" stroke-width=".5" points="40.238 79.676 41.242 83.595 42.847 87.95 45.054 92.087 45.857 95.354 47.262 98.184 48.666 99.708 45.054 92.958 43.449 87.95 38.834 79.458"><title>2023-11-15 1.0km</title><desc>10219684298</desc></polyline><polyline fill="none" stroke="#4dd2ff" stroke-linecap="round" stroke-linejoin="round" stroke-width=".5" points="62.672 81.894 64.496 84.178 64.777 87.071 66.881 92.096 68.144 96.359 69.407 99.556 69.968 99.708 69.828 97.881 68.004 95.445 67.302 93.314 66.18 91.943 65.759 90.269 63.654 86.005 62.953 82.96 62.532 79.458"><title>2023-11-14 1.0km</title><desc>10213806154</desc></polyline><polyline fill="none" stroke="#4dd2ff" stroke-linecap="round" stroke-linejoin="round" stroke-width=".5" points="86.045 82.246 87.127 86.355 90.102 93.986 90.778 96.48 92.131 99.268 92.536 99.708 91.725 98.241 89.832 93.692 89.697 92.518 88.344 89.29 86.316 85.621 85.504 83.127 84.964 79.458"><title>2023-11-13 1.0km</title><desc>10208522228</desc></polyline><polyline fill="none" stroke="#4dd2ff" stroke-linecap="round" stroke-linejoin="round" stroke-width=".5" points="108.988 81.759 110.402 86.055 112.098 89.583 113.088 93.725 114.078 96.64 115.35 99.402 115.915 99.708 116.198 99.095 114.643 96.027 113.795 92.652 110.684 89.737 108.988 87.282 108.705 84.674 106.302 79.458"><title>2023-11-12 1.0km</title><desc>10202270880</desc></polyline><polyline fill="none" stroke="#4dd2ff" stroke-linecap="round" stroke-linejoin="round" stroke-width=".5" points="130.686 83.236 134.029 90.792 135.143 94.57 136.257 97.593 136.953 98.953 137.65 99.708 137.789 99.104 136.535 95.326 134.168 91.699 131.661 85.956 130.686 81.876 129.711 79.458"><title>2023-11-11 1.0km</title><desc>10196068378</desc></polyline><polyline fill="none" stroke="#4dd2ff" stroke-linecap="round" stroke-linejoin="round" stroke-width=".5" points="154.367 82.478 156.659 89.406 158.787 95.09 159.77 98.82 160.424 99.708 160.752 99.353 160.261 97.222 157.805 91.715 155.35 86.564 152.076 81.412 151.748 79.458"><title>2023-11-10 1.0km</title><desc>10191120477</desc></polyline><polyline fill="none" stroke="#4dd2ff" stroke-linecap="round" stroke-linejoin="round" stroke-width=".5" points="174.049 80.077 176.471 81.932 177.895 84.405 178.323 85.332 178.323 86.724 179.89 91.516 180.459 94.298 181.599 97.39 181.884 98.935 182.596 99.708 183.024 99.554 183.451 98.935 181.884 97.853 179.32 94.143 176.328 85.951 175.616 81.313 174.904 79.458"><title>2023-11-09 1.0km</title><desc>10185506531</desc></polyline><polyline fill="none" stroke="#4dd2ff" stroke-linecap="round" stroke-linejoin="round" stroke-width=".5" points="17.3 105.251 18.798 108.207 19.343 109.685 21.114 113.528 21.795 116.189 21.659 114.563 21.931 115.598 22.476 119.589 23.702 123.284 24.247 123.875 24.928 123.579 25.2 123.136 23.702 121.806 22.612 120.032 21.931 118.11 20.978 114.859 19.615 112.937 18.117 109.685 17.708 107.32 17.845 104.364 17.572 103.625"><title>2023-11-08 1.0km</title><desc>10179505859</desc></polyline><polyline fill="none" stroke="#4dd2ff" stroke-linecap="round" stroke-linejoin="round" stroke-width=".5" points="42.836 114.812 47.404 123.875 47.665 123.733 47.013 122.176 45.838 120.193 45.055 118.211 43.489 116.511 42.967 115.52 42.575 112.122 42.314 111.13 40.748 108.44 39.835 103.625"><title>2023-11-06 1.0km</title><desc>10167691585</desc></polyline><polyline fill="none" stroke="#4dd2ff" stroke-linecap="round" stroke-linejoin="round" stroke-width=".5" points="64.303 109.307 65.243 111.055 68.734 119.067 70.211 123.584 70.479 123.875 70.748 123.875 70.748 123.438 69.674 121.107 68.734 119.796 68.6 119.067 67.794 118.193 65.512 114.26 62.826 107.413 61.752 103.625"><title>2023-11-05 1.1km</title><desc>10161301187</desc></polyline><polyline fill="none" stroke="#4dd2ff" stroke-linecap="round" stroke-linejoin="round" stroke-width=".5" points="84.964 103.625 87.668 109.641 88.885 114.924 90.778 118.592 91.455 121.527 92.131 123.875 92.536 123.435 92.401 122.995 90.643 119.766 90.508 119.326 88.885 116.832 88.209 114.484 86.451 111.255 86.045 108.467 85.234 105.533"><title>2023-11-04 1.0km</title><desc>10155501797</desc></polyline><polyline fill="none" stroke="#4dd2ff" stroke-linecap="round" stroke-linejoin="round" stroke-width=".5" points="116.683 106.701 115.148 104.65 114.203 104.009 112.313 103.625 110.541 103.753 108.061 104.907 106.998 105.932 106.053 107.854 105.817 109.392 105.463 114.519 105.699 119.902 105.935 120.671 107.116 122.593 108.534 123.619 110.896 123.875 113.022 122.978 115.029 120.543 115.62 119.389 116.447 115.672 116.447 112.725 117.037 108.88 116.919 107.47 115.62 105.932 114.557 105.163 112.077 104.009 110.778 104.009 107.943 104.907 106.644 106.06 105.817 107.598 105.581 108.623 105.817 112.853 105.581 114.775"><title>2023-11-03 1.0km</title><desc>10152446508</desc></polyline><polyline fill="none" stroke="#4dd2ff" stroke-linecap="round" stroke-linejoin="round" stroke-width=".5" points="129.559 103.625 130.666 106.028 131.615 110.318 133.196 113.407 135.569 119.585 136.043 120.614 136.834 123.36 137.308 123.875 137.941 123.875 137.941 123.532 136.834 123.017 136.36 121.816 135.252 120.786 134.462 118.555 133.355 116.839 132.089 114.265 130.666 108.945 129.717 106.714"><title>2023-11-02 1.1km</title><desc>10144903556</desc></polyline><polyline fill="none" stroke="#4dd2ff" stroke-linecap="round" stroke-linejoin="round" stroke-width=".5" points="152.802 105.092 153.072 106.707 154.154 109.201 156.047 115.951 159.293 122.701 160.239 123.875 159.698 122.114 157.67 119.033 156.588 115.071 155.236 113.163 153.613 109.641 152.261 103.625"><title>2023-11-01 1.0km</title><desc>10138966680</desc></polyline><polyline fill="none" stroke="#4dd2ff" stroke-linecap="round" stroke-linejoin="round" stroke-width=".5" points="175.803 103.93 176.505 106.213 177.627 112.304 179.452 116.262 180.574 119.916 182.398 123.875 182.539 123.723 181.276 121.896 179.452 117.633 177.908 114.892 175.242 106.822 174.961 103.625"><title>2023-10-31 1.0km</title><desc>10133123337</desc></polyline><polyline fill="none" stroke="#4dd2ff" stroke-linecap="round" stroke-linejoin="round" stroke-width=".5" points="18.071 130.192 18.762 133.792 18.762 135.142 20.282 137.692 24.429 146.542 25.121 147.892 25.397 148.042 22.218 141.742 20.835 137.842 19.315 134.692 17.103 127.792"><title>2023-10-30 1.0km</title><desc>10127985445</desc></polyline><polyline fill="none" stroke="#4dd2ff" stroke-linecap="round" stroke-linejoin="round" stroke-width=".5" points="40.558 130.723 41.172 134.853 41.54 136.185 43.996 141.913 45.223 145.244 47.065 147.775 47.556 148.042 47.679 147.642 46.574 145.91 44.978 142.446 42.154 137.251 41.049 133.387 40.189 131.655 40.067 128.991 39.821 127.792"><title>2023-10-28 1.0km</title><desc>10115543824</desc></polyline><polyline fill="none" stroke="#4dd2ff" stroke-linecap="round" stroke-linejoin="round" stroke-width=".5" points="63.624 131.992 64.729 135.592 65.974 138.442 67.079 142.492 68.738 146.392 69.429 147.892 70.121 148.042 70.259 147.892 69.982 146.992 69.153 144.742 66.388 139.342 64.176 133.342 62.794 130.342 62.241 127.792"><title>2023-10-27 1.0km</title><desc>10110442644</desc></polyline><polyline fill="none" stroke="#4dd2ff" stroke-linecap="round" stroke-linejoin="round" stroke-width=".5" points="86.006 130.919 88.613 139.703 89.573 142.384 90.534 144.021 91.632 147.148 92.043 147.744 92.867 148.042 93.004 147.595 92.867 146.999 91.494 145.213 89.436 141.639 86.966 134.343 85.319 131.663 84.496 127.792"><title>2023-10-26 1.0km</title><desc>10104873905</desc></polyline><polyline fill="none" stroke="#4dd2ff" stroke-linecap="round" stroke-linejoin="round" stroke-width=".5" points="110.236 137.476 113.346 145.254 114.834 147.895 115.375 148.042 115.239 146.574 111.588 140.265 109.56 135.129 107.802 131.46 107.125 127.792"><title>2023-10-25 1.0km</title><desc>10098978222</desc></polyline><polyline fill="none" stroke="#4dd2ff" stroke-linecap="round" stroke-linejoin="round" stroke-width=".5" points="130.004 127.792 129.868 128.826 130.685 132.226 131.775 134.443 132.456 137.104 133.682 140.651 136.27 145.677 137.087 147.746 137.36 148.042 137.632 147.894 137.496 145.972 135.998 143.164 134.908 141.538 133.546 138.434 133.273 136.808 131.639 134.295 130.685 132.078 130.413 129.418 130.004 127.792"><title>2023-10-24 1.0km</title><desc>10092835699</desc></polyline><polyline fill="none" stroke="#4dd2ff" stroke-linecap="round" stroke-linejoin="round" stroke-width=".5" points="154.169 131.288 156.183 138.427 157.123 140.175 158.197 144.545 159.808 147.459 160.479 148.042 159.808 147.313 158.868 144.982 156.451 142.069 155.914 141.049 155.377 137.698 153.766 134.493 152.692 131.142 152.021 127.792"><title>2023-10-23 1.0km</title><desc>10087395010</desc></polyline><polyline fill="none" stroke="#4dd2ff" stroke-linecap="round" stroke-linejoin="round" stroke-width=".5" points="172.194 127.889 172.552 127.792 175.103 127.986 176.221 128.277 176.49 128.423 177.072 128.86 177.475 129.346 178.37 130.997 178.817 132.842 179.399 133.813 179.667 134.59 180.294 135.999 180.741 137.455 181.413 138.621 181.726 138.961 182.129 139.641 182.353 141.097 182.487 141.486 182.845 142.02 182.934 142.846 183.069 143.186 185.038 147.847 185.306 148.042 185.306 147.799 184.903 147.41 184.456 146.342 184.008 145.419 182.8 141.68"><title>2023-10-22 1.5km</title><desc>10080655811</desc></polyline><polyline fill="none" stroke="#4dd2ff" stroke-linecap="round" stroke-linejoin="round" stroke-width=".5" points="18.029 151.958 18.74 152.472 17.461 152.267 19.45 154.837 19.64 155.453 19.498 155.967 18.834 156.327 18.645 156.687 18.692 157.304 19.071 158.794 19.498 159.873 19.971 161.518 20.824 163.009 20.966 163.574 21.487 164.499 21.818 164.91 21.866 165.167 22.197 165.476 22.434 165.989 22.766 166.966 23.097 167.634 23.05 168.97 23.666 170.153 23.855 170.718 24.187 171.335 24.755 172.054 25.039 172.208 23.95 170.666 23.713 169.844 23.239 168.816 23.05 168.148 22.434 167.274 21.913 165.784"><title>2023-10-20 1.4km</title><desc>10069668027</desc></polyline><polyline fill="none" stroke="#4dd2ff" stroke-linecap="round" stroke-linejoin="round" stroke-width=".5" points="39.675 151.958 39.772 152.743 40.543 154.627 40.736 155.778 42.327 159.65 42.472 160.174 42.569 160.958 42.761 161.482 43.919 163.104 44.546 164.36 44.931 165.615 45.269 166.296 45.462 167.342 45.703 167.865 46.33 169.487 46.426 170.115 47.343 171.999 47.584 172.208 47.728 172.208 47.825 172.156 47.777 172.104 46.812 170.9 46.378 169.435 45.462 167.761 45.317 167.08 45.221 165.929"><title>2023-10-19 1.3km</title><desc>10064004415</desc></polyline><polyline fill="none" stroke="#4dd2ff" stroke-linecap="round" stroke-linejoin="round" stroke-width=".5" points="61.684 151.958 63.669 154.543 63.537 156.41 63.801 158.278 64.728 161.581 66.051 163.735 67.375 167.469 70.022 171.777 70.419 172.208 70.816 172.065 69.096 170.341 65.919 164.166 65.125 161.437 62.875 156.698"><title>2023-10-18 1.0km</title><desc>10058081424</desc></polyline><polyline fill="none" stroke="#4dd2ff" stroke-linecap="round" stroke-linejoin="round" stroke-width=".5" points="85.216 153.186 86.347 159.782 89.316 167.606 91.295 171.748 92.143 172.208 92.567 172.208 92.85 171.595 91.86 170.367 90.588 168.373 88.891 164.691 88.184 162.544 85.216 156.561 84.933 155.64 84.65 151.958"><title>2023-10-17 1.0km</title><desc>10051702317</desc></polyline><polyline fill="none" stroke="#4dd2ff" stroke-linecap="round" stroke-linejoin="round" stroke-width=".5" points="106.728 152.426 108.164 154.918 110.317 160.526 111.465 162.706 112.757 166.756 114.336 170.806 114.911 171.897 115.628 172.208 115.772 172.053 115.628 171.585 114.049 169.249 111.896 163.953 110.317 160.681 109.025 154.606 108.307 151.958"><title>2023-10-16 1.0km</title><desc>10046279660</desc></polyline><polyline fill="none" stroke="#4dd2ff" stroke-linecap="round" stroke-linejoin="round" stroke-width=".5" points="129.603 151.958 130.195 153.244 130.788 156.137 132.121 160.637 133.898 163.369 135.972 171.083 136.712 171.887 137.749 172.208 137.897 171.887 137.749 170.923 135.824 168.19 134.787 164.976 133.602 163.048 130.788 156.458 129.751 151.958"><title>2023-10-15 1.0km</title><desc>10039610121</desc></polyline><polyline fill="none" stroke="#4dd2ff" stroke-linecap="round" stroke-linejoin="round" stroke-width=".5" points="152.036 153.428 152.488 158.164 153.692 161.593 155.197 163.716 156.1 166.656 158.658 171.228 159.26 171.882 160.012 172.208 160.464 171.882 160.464 171.392 157.454 168.942 155.498 165.349 154.745 162.247 152.939 158.164 152.036 154.735 152.187 152.612 152.036 151.958"><title>2023-10-14 1.0km</title><desc>10033377496</desc></polyline><polyline fill="none" stroke="#4dd2ff" stroke-linecap="round" stroke-linejoin="round" stroke-width=".5" points="174.159 152.28 176.825 155.494 177.121 157.905 179.639 165.619 182.008 171.244 182.749 172.208 183.341 172.208 183.341 171.726 183.193 171.244 181.86 170.28 180.379 167.548 178.75 162.405 175.788 155.815 175.343 153.565 174.603 151.958"><title>2023-10-13 1.0km</title><desc>10028006924</desc></polyline><polyline fill="none" stroke="#4dd2ff" stroke-linecap="round" stroke-linejoin="round" stroke-width=".5" points="16.905 176.125 18.33 177.98 19.184 179.526 19.327 181.535 19.184 183.699 20.751 186.946 22.603 191.892 24.455 195.293 24.883 195.911 25.595 196.375 25.595 195.602 24.028 193.593 22.603 191.119 20.751 186.018 19.612 184.009 19.042 182.308"><title>2023-10-12 1.0km</title><desc>10021974100</desc></polyline><polyline fill="none" stroke="#4dd2ff" stroke-linecap="round" stroke-linejoin="round" stroke-width=".5" points="41.382 178.996 41.94 182.019 41.8 183.228 43.054 187.308 44.029 189.121 45.003 192.446 46.396 195.771 46.675 196.073 47.371 196.375 47.232 195.771 45.7 191.841 44.029 188.97 41.8 183.832 41.243 181.868 40.965 178.996 40.129 176.125"><title>2023-10-10 1.0km</title><desc>10009069592</desc></polyline><polyline fill="none" stroke="#4dd2ff" stroke-linecap="round" stroke-linejoin="round" stroke-width=".5" points="62.819 178.656 63.78 181.336 64.741 184.91 66.799 189.377 68.446 195.035 69.406 196.375 69.681 195.928 69.818 194.29 68.857 191.461 66.799 187.888 64.466 181.336 63.78 178.358 62.682 176.125"><title>2023-10-09 1.0km</title><desc>10003389142</desc></polyline><polyline fill="none" stroke="#4dd2ff" stroke-linecap="round" stroke-linejoin="round" stroke-width=".5" points="84.627 176.125 85.64 177.381 86.652 179.735 87.231 184.445 89.401 189.154 91.282 194.491 92.15 196.061 92.873 196.375 92.873 195.119 90.124 190.724 86.508 181.933 85.061 176.282"><title>2023-10-08 1.0km</title><desc>9996447828</desc></polyline><polyline fill="none" stroke="#4dd2ff" stroke-linecap="round" stroke-linejoin="round" stroke-width=".5" points="108.651 180.175 109.317 182.634 111.317 187.986 111.983 190.3 114.116 195.652 114.782 196.375 114.916 195.796 114.916 195.218 112.383 190.734 111.183 188.13 109.051 181.766 108.384 178.439 107.584 176.125"><title>2023-10-07 1.0km</title><desc>9989974159</desc></polyline><polyline fill="none" stroke="#4dd2ff" stroke-linecap="round" stroke-linejoin="round" stroke-width=".5" points="132.096 182.157 133.154 185.604 133.949 187.327 135.537 194.077 135.934 195.37 136.728 196.375 137.39 196.375 137.654 195.801 137.522 195.37 135.934 193.072 134.346 189.625 133.816 187.327 131.037 180.577 130.64 178.136 129.846 176.125"><title>2023-10-06 1.0km</title><desc>9984428862</desc></polyline><polyline fill="none" stroke="#4dd2ff" stroke-linecap="round" stroke-linejoin="round" stroke-width=".5" points="151.89 176.125 154.185 182.266 155.715 187.412 158.315 193.885 159.386 196.043 159.845 196.375 160.457 196.375 160.61 196.043 160.151 195.213 158.315 192.557 157.244 190.4 155.409 185.586 154.644 183.096 152.502 179.113 152.502 177.619"><title>2023-10-04 1.0km</title><desc>9971682885</desc></polyline><polyline fill="none" stroke="#4dd2ff" stroke-linecap="round" stroke-linejoin="round" stroke-width=".5" points="175.685 178.49 176.366 180.855 177.047 182.481 177.592 184.994 180.18 190.167 180.317 191.941 181.134 195.488 181.406 195.932 182.224 196.375 182.224 194.897 180.453 191.645 179.227 188.837 178.546 187.506 177.865 185.585 176.502 182.776 175.958 180.559 175.685 178.342 175.276 176.125"><title>2023-10-03 1.0km</title><desc>9965060084</desc></polyline><polyline fill="none" stroke="#4dd2ff" stroke-linecap="round" stroke-linejoin="round" stroke-width=".5" points="17.548 201.128 19.399 207.153 19.708 209.831 20.787 211.17 21.558 213.178 22.947 218.366 24.026 220.04 24.797 220.542 24.952 220.374 24.489 219.035 22.792 215.856 20.016 209.162 18.32 204.141 18.011 200.292"><title>2023-10-02 1.0km</title><desc>9958643020</desc></polyline><polyline fill="none" stroke="#4dd2ff" stroke-linecap="round" stroke-linejoin="round" stroke-width=".5" points="40.54 203.856 40.839 205.314 44.123 213.09 45.765 218.112 46.661 219.894 47.557 220.542 47.706 220.38 47.557 219.732 44.571 215.196 41.735 208.23 40.391 204.018 39.794 200.292"><title>2023-10-01 1.0km</title><desc>9952075403</desc></polyline><polyline fill="none" stroke="#4dd2ff" stroke-linecap="round" stroke-linejoin="round" stroke-width=".5" points="63.343 203.226 64.56 205.721 65.101 208.216 65.506 210.563 67.535 216.286 69.293 219.955 70.104 220.542 70.375 220.101 67.67 215.993 66.453 213.205 66.047 211.737 64.154 207.629 63.072 203.08 62.125 200.292"><title>2023-09-30 1.0km</title><desc>9945549317</desc></polyline><polyline fill="none" stroke="#4dd2ff" stroke-linecap="round" stroke-linejoin="round" stroke-width=".5" points="85.615 200.292 86.958 202.56 87.406 204.342 88.601 207.258 89.198 211.632 89.646 212.928 91.437 217.302 91.885 220.056 92.184 220.38 92.632 220.542 92.781 220.218 90.094 215.358 88.302 211.146 87.705 208.716 85.615 203.856 84.719 200.94"><title>2023-09-28 1.0km</title><desc>9933629332</desc></polyline><polyline fill="none" stroke="#4dd2ff" stroke-linecap="round" stroke-linejoin="round" stroke-width=".5" points="107.291 202.593 108.422 206.581 110.543 209.496 111.957 214.712 113.936 218.241 114.502 220.235 115.067 220.542 115.35 220.081 115.067 219.468 113.936 217.934 110.684 211.337 108.988 206.735 107.15 200.292"><title>2023-09-27 1.0km</title><desc>9927137811</desc></polyline><polyline fill="none" stroke="#4dd2ff" stroke-linecap="round" stroke-linejoin="round" stroke-width=".5" points="135.432 200.292 135.028 202.239 134.625 203.358 134.311 204.721 132.472 208.567 131.529 210.173 131.35 210.855 131.44 211.39 131.664 212.169 132.337 213.824 132.561 214.262 132.83 215.041 133.728 216.161 134.131 217.037 134.58 217.718 134.939 218.692 135.477 219.422 136.15 220.542"><title>2023-09-26 1.0km</title><desc>9920397094</desc></polyline><polyline fill="none" stroke="#4dd2ff" stroke-linecap="round" stroke-linejoin="round" stroke-width=".5" points="156.155 200.292 155.273 203.233 154.39 204.807 153.571 205.833 153.129 206.654 152.94 207.475 153.003 208.501 153.318 209.322 154.075 210.485 154.39 211.648 155.021 213.153 156.218 214.658 158.236 218.763 159.56 220.542"><title>2023-09-25 1.0km</title><desc>9914573673</desc></polyline><polyline fill="none" stroke="#4dd2ff" stroke-linecap="round" stroke-linejoin="round" stroke-width=".5" points="180.243 200.292 179.745 201.048 179.646 201.426 179.745 201.912 179.795 202.398 178.8 204.234 178.551 205.476 178.203 206.394 176.112 210.066 176.063 210.498 176.262 211.362 176.809 212.226 177.108 212.982 177.556 213.738 177.804 214.494 178.451 215.52 178.949 216.546 179.496 217.14 179.646 217.68 179.994 218.112 180.741 219.408 181.288 220.002 181.437 220.542"><title>2023-09-24 1.0km</title><desc>9907510217</desc></polyline><polyline fill="none" stroke="#4dd2ff" stroke-linecap="round" stroke-linejoin="round" stroke-width=".5" points="22.005 224.458 21.582 225.114 21.28 225.769 21.099 226.621 21.039 227.735 20.012 229.111 19.408 230.684 18.864 231.471 18.502 232.519 18.442 233.633 19.71 236.844 20.193 237.827 21.763 240.318 22.428 241.956 23.273 243.004 23.756 243.856 24.058 244.708"><title>2023-09-23 1.0km</title><desc>9901004991</desc></polyline><polyline fill="none" stroke="#4dd2ff" stroke-linecap="round" stroke-linejoin="round" stroke-width=".5" points="44.528 224.458 44.124 225.208 43.721 226.521 42.8 228.458 41.878 229.771 41.072 231.958 41.014 233.146 41.129 233.833 42.281 236.583 42.454 237.396 42.684 237.833 43.491 238.833 44.124 240.083 44.643 241.396 45.507 242.646 46.486 244.708"><title>2023-09-22 1.0km</title><desc>9895405405</desc></polyline><polyline fill="none" stroke="#4dd2ff" stroke-linecap="round" stroke-linejoin="round" stroke-width=".5" points="67.323 224.458 67.158 225.056 66.828 225.414 66.112 226.728 65.837 227.684 65.011 229.775 64.131 231.567 63.58 232.881 63.415 233.538 63.415 233.956 63.58 234.554 63.91 235.151 64.626 237.003 65.342 238.317 65.727 239.273 66.443 240.467 66.883 241.005 67.213 241.961 68.094 243.514 69.085 244.708"><title>2023-09-21 1.0km</title><desc>9889267953</desc></polyline><polyline fill="none" stroke="#4dd2ff" stroke-linecap="round" stroke-linejoin="round" stroke-width=".5" points="90.812 224.458 90.089 226.626 89.664 228.333 88.984 229.763 88.176 232.162 86.773 234.791 86.391 236.221 86.433 236.544 86.688 237.236 87.241 238.435 87.581 239.45 88.431 240.649 88.941 241.618 89.239 242.31 89.579 242.909 90.132 243.325 90.812 244.339 90.854 244.524 91.109 244.708"><title>2023-09-20 1.0km</title><desc>9882714971</desc></polyline><polyline fill="none" stroke="#4dd2ff" stroke-linecap="round" stroke-linejoin="round" stroke-width=".5" points="112.929 224.458 112.497 225.552 111.682 227.946 111.634 228.727 111.346 229.143 111.01 229.924 110.818 230.653 110.434 231.642 109.331 233.412 109.043 234.453 108.947 235.39 109.043 236.327 109.331 237.368 109.667 238.097 110.722 239.919 111.25 240.648 111.73 241.949 112.209 242.782 112.689 243.459 113.217 243.98 113.553 244.708"><title>2023-09-19 1.0km</title><desc>9876194288</desc></polyline><polyline fill="none" stroke="#4dd2ff" stroke-linecap="round" stroke-linejoin="round" stroke-width=".5" points="133.601 224.458 133.243 225.041 132.647 226.205 132.468 226.982 131.395 228.858 130.56 230.605 130.381 231.252 130.441 231.963 130.799 232.869 131.335 233.839 131.812 235.198 132.468 236.621 133.184 237.915 133.839 238.756 134.615 240.05 135.091 241.538 135.926 242.832 136.344 243.997 137.119 244.708"><title>2023-09-18 1.0km</title><desc>9870505463</desc></polyline><polyline fill="none" stroke="#4dd2ff" stroke-linecap="round" stroke-linejoin="round" stroke-width=".5" points="156.453 224.458 156.163 225.026 155.756 226.919 155.233 227.802 155 228.496 153.721 230.578 153.256 231.713 152.965 232.722 153.198 233.416 154.477 236.192 155.116 237.201 155.581 238.274 156.337 239.283 156.744 239.977 157.267 241.617 159.535 244.708"><title>2023-09-16 1.0km</title><desc>9856514700</desc></polyline><polyline fill="none" stroke="#4dd2ff" stroke-linecap="round" stroke-linejoin="round" stroke-width=".5" points="178.47 224.458 177.848 226.348 177.039 227.631 175.36 230.871 175.298 231.613 175.36 232.491 175.733 233.368 176.355 234.313 176.915 235.596 177.91 237.283 179.154 239.646 179.279 240.523 179.714 240.861 180.212 241.536 181.021 242.886 181.891 243.628 182.078 244.101 182.202 244.708"><title>2023-09-15 1.0km</title><desc>9850671982</desc></polyline><polyline fill="none" stroke="#4dd2ff" stroke-linecap="round" stroke-linejoin="round" stroke-width=".5" points="21.765 248.625 20.735 251.348 19.577 253.024 19.062 253.932 18.29 255.887 18.097 256.585 18.097 257.144 18.29 257.842 19.062 259.937 19.77 261.334 21.507 264.336 22.215 265.663 22.344 266.431 22.859 266.92 23.695 268.247 24.403 268.875"><title>2023-09-14 1.0km</title><desc>9844236351</desc></polyline><polyline fill="none" stroke="#4dd2ff" stroke-linecap="round" stroke-linejoin="round" stroke-width=".5" points="40.532 248.625 40.902 248.926 41.041 249.228 41.134 249.881 41.411 250.434 41.597 251.992 41.597 252.745 41.504 253.147 41.597 253.65 41.828 254.253 41.736 254.755 41.782 255.007 42.245 255.861 42.662 257.117 43.032 257.82 43.495 258.474 44.005 258.926 44.144 259.227 44.283 259.881 44.653 260.534 45.07 261.74 45.625 262.795 45.903 263.699 46.042 264.453 46.32 265.056 46.829 266.714 47.524 268.021 47.57 268.222 47.524 268.373 46.968 268.875 47.246 268.674 47.385 268.373 47.478 268.121 47.431 267.77 47.154 267.418 46.32 265.609 45.903 264.252 45.023 262.293 44.607 260.383 44.375 259.83 43.495 258.675 42.615 257.017 42.199 255.66 42.06 254.755 41.689 253.801 40.948 252.193 40.763 251.439 40.115 250.233 39.976 249.58 39.93 248.776"><title>2023-09-13 1.0km</title><desc>9837636972</desc></polyline></svg>