<?xml version="1.0" encoding="utf-8" ?>
<svg baseProfile="full" height="300mm" version="1.1" viewBox="0,0,200,300" width="200mm" xmlns="http://www.w3.org/2000/svg" xmlns:ev="http://www.w3.org/2001/xml-events" xmlns:xlink="http://www.w3.org/1999/xlink"><defs /><rect fill="#222222" height="300" width="200" x="0" y="0" /><text fill="#FFFFFF" style="font-size:12px; font-family:Arial; font-weight:bold;" x="10" y="20">Over 1km Runs</text><text fill="#FFFFFF" style="font-size:4px; font-family:Arial" x="10" y="280">ATHLETE</text><text fill="#FFFFFF" style="font-size:9px; font-family:Arial" x="10" y="290">Jiakai</text><text fill="#FFFFFF" style="font-size:4px; font-family:Arial" x="120" y="280">STATISTICS</text><text fill="#FFFFFF" style="font-size:3px; font-family:Arial" x="120" y="285">Number: 69</text><text fill="#FFFFFF" style="font-size:3px; font-family:Arial" x="120" y="290">Weekly: 5.8</text><text fill="#FFFFFF" style="font-size:3px; font-family:Arial" x="141" y="285">Total: 71.4 km</text><text fill="#FFFFFF" style="font-size:3px; font-family:Arial" x="141" y="290">Avg: 1.0 km</text><text fill="#FFFFFF" style="font-size:3px; font-family:Arial" x="167" y="285">Min: 1.0 km</text><text fill="#FFFFFF" style="font-size:3px; font-family:Arial" x="167" y="290">Max: 1.5 km</text><polyline fill="none" points="18.27656408539042,33.99713474337477 19.85186389507726,38.03743394929916 20.13828204246238,40.98995540768374 22.1432090732269,45.807218407513574 23.28888166323304,50.1582852283027 24.291345178615302,52.17842035088688 25.293808693997562,52.800000000046566 25.723435915075243,52.800000000046566 26.009854062926024,52.33381528034806 25.866644988767803,51.71223549405113 25.293808693997562,50.62447042798158 23.00246351538226,44.564054813236 20.71111833723262,39.28060138190631 20.28149111615494,36.79426578548737 19.279027600307018,33.841738466056995 17.990145937073976,31.20000000006985" stroke="#4dd2ff" stroke-linecap="round" stroke-linejoin="round" stroke-width="0.5"><title>2023-11-28 1.0km</title><desc>10292316108</desc></polyline><polyline fill="none" points="47.49283804837614,31.20000000006985 48.760742927435786,34.63950713502709 49.52148585533723,37.941428037011065 50.535809758584946,39.45480650337413 51.676924149971455,41.656082087778486 52.818038541823626,45.233149390434846 53.83236244507134,46.884101223782636 53.83236244507134,47.70957659429405 53.19841000577435,48.25989330583252 51.1697621983476,49.360526243341155 49.901857319287956,50.461158533231355 48.63395243976265,51.14905338571407 46.732095120474696,51.974526875070296 43.68912341026589,52.800000000046566 43.181961458642036,52.66242117155343 42.80158999469131,52.24968462414108 42.16763755492866,49.63568437634967" stroke="#4dd2ff" stroke-linecap="round" stroke-linejoin="round" stroke-width="0.5"><title>2023-11-27 1.0km</title><desc>10287544518</desc></polyline><polyline fill="none" points="71.91195085085928,35.8825367607642 72.60796723375097,37.544079497340135 74.27840655297041,46.00282168900594 76.08804914867505,50.38322806544602 77.06247208546847,52.044759075855836 77.75848846836016,52.800000000046566 77.89769174531102,52.64895183732733 77.48008191538975,51.89371085760649 77.48008191538975,50.68532471288927 76.36645570211112,48.117501795408316 75.11362621281296,43.88813940610271 73.86079672304913,41.32030799333006 73.02557706367224,36.486734274891205 70.65912136109546,32.71049689524807 70.10230825422332,31.20000000006985" stroke="#4dd2ff" stroke-linecap="round" stroke-linejoin="round" stroke-width="0.5"><title>2023-11-26 1.0km</title><desc>10281488289</desc></polyline><polyline fill="none" points="96.06694425363094,31.200000000186265 97.6722731301561,35.380660529015586 99.11706911865622,41.30325031816028 100.56186510808766,44.612926399102435 100.88293088320643,46.70324575249106 101.68559532240033,48.61937020649202 103.45145708601922,51.929036068264395 104.2541215242818,52.800000000046566 104.57518729846925,52.800000000046566 102.16719398461282,47.57421160512604 101.84612820856273,45.83227957924828 100.24079933296889,43.56776603101753 97.03014157991856,34.85807836684398 95.42481270246208,31.896777267567813" stroke="#4dd2ff" stroke-linecap="round" stroke-linejoin="round" stroke-width="0.5"><title>2023-11-25 1.0km</title><desc>10275889695</desc></polyline><polyline fill="none" points="121.81414107698947,31.401869946159422 122.93037012219429,36.44861375866458 128.1394390044734,50.57944708853029 129.44170622434467,52.59813162800856 129.99982074741274,52.800000000046566 130.18585892301053,52.19439483853057 128.32547717820853,49.771972857415676 126.09301908686757,43.11030138889328 124.6047136913985,40.082263560267165 123.67452282086015,34.22804762376472 122.558293774724,31.199999999953434" stroke="#4dd2ff" stroke-linecap="round" stroke-linejoin="round" stroke-width="0.5"><title>2023-11-24 1.0km</title><desc>10271180196</desc></polyline><polyline fill="none" points="149.31426128279418,33.60000988165848 149.7882151743397,34.971442989772186 150.8941075867042,40.800024702679366 153.57984630484134,49.02858584676869 154.84372334834188,52.457144420361146 155.3176772389561,52.800000000046566 155.94961576070637,52.800000000046566 156.10760039184242,52.457144420361146 155.79163113050163,50.74286576360464 154.05380019638687,45.771450532600284 149.47224591299891,35.828588273143396 147.8923996090889,31.200000000186265" stroke="#4dd2ff" stroke-linecap="round" stroke-linejoin="round" stroke-width="0.5"><title>2023-11-23 1.0km</title><desc>10265414399</desc></polyline><polyline fill="none" points="176.10752255516127,36.06762531620916 176.24770607007667,38.197207790915854 176.80844012741,41.54369010857772 179.0513763576746,47.93241404858418 179.75229392945766,50.97465661051683 180.87376204458997,52.800000000046566 181.71486313082278,52.800000000046566 181.5746796168387,51.887328506447375 180.0326609578915,47.93241404858418 178.7710093287751,45.95495398482308 176.94862364185974,40.326788074104115 174.84587092557922,34.54649363504723 174.28513686871156,31.20000000006985" stroke="#4dd2ff" stroke-linecap="round" stroke-linejoin="round" stroke-width="0.5"><title>2023-11-21 1.0km</title><desc>10253878272</desc></polyline><polyline fill="none" points="19.675203843507916,61.03359808633104 20.401702641975135,65.76353083085269 23.45299759786576,73.48906521312892 24.760695436038077,76.32700962922536 25.19659471558407,76.80000000004657 25.48719423543662,76.6423365548253 25.632493995130062,76.32700962922536 25.051294955890626,73.80439255572855 22.435899279545993,68.12849329179153 21.418800961226225,65.13287373445928 19.82050360320136,58.983957323478535 18.948705044109374,57.40730924997479 18.367506004869938,55.20000000006985" stroke="#4dd2ff" stroke-linecap="round" stroke-linejoin="round" stroke-width="0.5"><title>2023-11-20 1.0km</title><desc>10248671423</desc></polyline><polyline fill="none" points="44.154508493840694,57.00000800623093 46.26575873233378,61.58183999871835 46.868973086588085,66.32729890511837 48.52781255915761,70.09093153313734 50.18665203265846,74.83637229795568 50.94066997524351,75.98182200116571 51.845491506159306,76.80000000004657 51.69468791782856,75.49091505771503 49.131026913411915,68.78184264502488 47.47218744084239,62.727296523051336 45.81334796734154,58.80001455673482 44.908526436425745,55.20000000006985" stroke="#4dd2ff" stroke-linecap="round" stroke-linejoin="round" stroke-width="0.5"><title>2023-11-19 1.0km</title><desc>10242265034</desc></polyline><polyline fill="none" points="69.80197449494153,74.44551390595734 70.74535101279616,71.47680837207008 71.12270162068307,70.76022332918365 71.78306518262252,70.3507459963439 74.99054534407333,69.94126854289789 77.34898663917556,69.42942155664787 78.1036878535524,68.8152049247874 78.57537611294538,68.20098802214488 79.14140202384442,65.64174801006448 78.95272671990097,64.82279021234717 79.33007732685655,64.20857154822443 79.04706437140703,59.49955278390553 78.8583890683949,58.885331770870835 78.76405141595751,57.042667104979046 78.57537611294538,55.916593053145334 77.53766194311902,55.60948178987019 76.68862307677045,56.22370424831752 76.87729838024825,55.916593053145334 77.06597368372604,56.22370424831752 75.83958421042189,55.60948178987019 75.74524655891582,55.20000000006985 75.46223360300064,55.40474090992939 75.6509089069441,55.302370458841324 74.99054534407333,56.121333857416175 75.08488299604505,56.01896345906425 77.06597368372604,57.042667104979046 76.59428542479873,57.45214835263323 75.83958421042189,57.75925920938607 74.0471688262187,58.06636999826878 73.95283117424697,57.65688893117476 74.42451943317428,57.45214835263323 75.08488299604505,57.55451864562929 77.06597368372604,55.60948178987019 79.80176558578387,55.711852218490094 79.51875263080001,55.50711135356687 79.14140202384442,55.40474090992939 78.8583890683949,60.318513713311404 78.95272671990097,61.751694180537015 79.23573967488483,63.49198276386596 79.42441497929394,66.46070532582235 79.42441497929394,67.48440129298251 79.14140202384442,68.50809650716837 78.57537611294538,69.1223132746527 73.8584935227409,69.63416037370916 71.68872753111646,70.04363791760989 70.55667570978403,70.8625926435925 69.23594858404249,72.70523901598062 68.48124736966565,75.36683502572123 68.19823441421613,76.80000000004657" stroke="#4dd2ff" stroke-linecap="round" stroke-linejoin="round" stroke-width="0.5"><title>2023-11-18 1.0km</title><desc>10236386505</desc></polyline><polyline fill="none" points="95.59222913486883,55.20000000006985 98.72032458754256,60.60002084262669 99.85781384306028,64.61145590234082 100.28437231387943,66.92574187146965 101.13748925551772,68.31431222811807 103.83902623690665,76.18286022823304 104.40777086513117,76.80000000004657 104.40777086513117,76.18286022823304 103.83902623690665,75.41143525834195 102.27497851056978,70.78287948272191 101.42186156893149,69.24002528889105 101.13748925551772,66.61717055668123 99.85781384306028,63.3771690079011 98.43595227366313,60.29144859779626 98.29376611672342,58.594300437602215" stroke="#4dd2ff" stroke-linecap="round" stroke-linejoin="round" stroke-width="0.5"><title>2023-11-17 1.0km</title><desc>10231268371</desc></polyline><polyline fill="none" points="122.14721154607832,55.89677726756781 124.23413862474263,58.85807836661115 124.71573718171567,62.86453866888769 126.16053285170346,66.00002461415716 128.40799278300256,74.36130018369295 129.85278845299035,76.80000000004657 129.69225560035557,75.40645755524747 128.56852563563734,73.14194933418185 127.76586137432605,70.87743894872256 126.48159855604172,65.4774439111352 123.91307292040437,60.077436567051336 123.11040865909308,57.638719538459554 122.62881010212004,55.199999999953434" stroke="#4dd2ff" stroke-linecap="round" stroke-linejoin="round" stroke-width="0.5"><title>2023-11-16 1.0km</title><desc>10225818993</desc></polyline><polyline fill="none" points="148.2542330333963,55.432258849730715 149.32445216644555,59.612915229285136 151.03680277988315,64.25808249553666 153.39128487277776,68.67098507285118 154.2474601790309,72.15485117421485 155.74576696474105,75.17419868800789 157.24407375138253,76.80000000004657 153.39128487277776,69.60001640883274 151.6789342602715,64.25808249553666 146.75592624768615,55.199999999953434" stroke="#4dd2ff" stroke-linecap="round" stroke-linejoin="round" stroke-width="0.5"><title>2023-11-15 1.0km</title><desc>10219684298</desc></polyline><polyline fill="none" points="174.18342350795865,57.79850741662085 176.12912917137146,60.23460534319747 176.42846850398928,63.32032552699093 178.6735135000199,68.67972402321175 180.02054049633443,73.22708224784583 181.3675674945116,76.6375947734341 181.96624615974724,76.80000000004657 181.81657649297267,74.85113648837432 179.87087083049119,72.25264913064893 179.12252249848098,69.97897018573713 177.92516516707838,68.51731819927227 177.4761561686173,66.73085334745701 175.23111117258668,62.183481750427745 174.48276284057647,58.93535344977863 174.03375384118408,55.20000000006985" stroke="#4dd2ff" stroke-linecap="round" stroke-linejoin="round" stroke-width="0.5"><title>2023-11-14 1.0km</title><desc>10213806154</desc></polyline><polyline fill="none" points="19.115062210243195,82.17392605240457 20.269037326797843,86.5565463474486 23.442468895111233,94.6956743884366 24.16370334243402,97.35653642215766 25.606172238010913,100.33043711271603 26.038912906777114,100.80000000004657 25.173431569710374,99.23478997324128 23.153975116088986,94.38263157790061 23.009728226810694,93.13045987405349 21.56725933169946,89.68698389187921 19.403555989265442,85.7739362422144 18.538074652198702,83.11305973213166 17.961087093688548,79.20000000006985" stroke="#4dd2ff" stroke-linecap="round" stroke-linejoin="round" stroke-width="0.5"><title>2023-11-13 1.0km</title><desc>10208522228</desc></polyline><polyline fill="none" points="45.58714276179671,81.65455601131544 47.09517853613943,86.23638665652834 48.904821464791894,90.00002620217856 49.96044650673866,94.41820363525767 51.01607154775411,97.52728620090056 52.37330374494195,100.47272883669939 52.97651805356145,100.80000000004657 53.27812520880252,100.14545762503985 51.61928585730493,96.87274286395404 50.71446439344436,93.2727510688128 47.39678569044918,90.16366255970206 45.58714276179671,87.54547939402983 45.28553560655564,84.7636564061977 42.72187479119748,79.20000000006985" stroke="#4dd2ff" stroke-linecap="round" stroke-linejoin="round" stroke-width="0.5"><title>2023-11-12 1.0km</title><desc>10202270880</desc></polyline><polyline fill="none" points="70.7318393709138,83.22986689361278 74.29710551165044,91.2895784585271 75.48552755825222,95.31942313129548 76.67394960578531,98.54329353687353 77.41671338491142,99.99403367296327 78.15947716403753,100.80000000004657 78.30802992079407,100.1552269620588 76.97105511743575,96.12539117690176 74.44565826747566,92.25674185552634 71.77170866169035,86.13136646989733 70.7318393709138,81.77911566500552 69.69197007920593,79.19999999995343" stroke="#4dd2ff" stroke-linecap="round" stroke-linejoin="round" stroke-width="0.5"><title>2023-11-11 1.0km</title><desc>10196068378</desc></polyline><polyline fill="none" points="97.99192998278886,82.42106411675923 100.43653696030378,89.81054893764667 102.70652915351093,95.87370014633052 103.75421785749495,99.85263537522405 104.45267699379474,100.80000000004657 104.8019065624103,100.42105419188738 104.27806221041828,98.14737817179412 101.6588404495269,92.27370583638549 99.0396186877042,86.7789679847192 95.54732300620526,81.28421841817908 95.1980934375897,79.20000000018626" stroke="#4dd2ff" stroke-linecap="round" stroke-linejoin="round" stroke-width="0.5"><title>2023-11-10 1.0km</title><desc>10191120477</desc></polyline><polyline fill="none" points="120.98549491818994,79.85954506357666 123.5687248101458,81.83817909145728 125.08827180415392,84.47635507921223 125.54413590300828,85.465670274687 125.54413590300828,86.94964224973228 127.21563759725541,92.06109375844244 127.82345639448613,95.02902799856383 129.03909399081022,98.32672810310032 129.34300338942558,99.97557633731049 130.1027768868953,100.80000000004657 130.55864098481834,100.63511529180687 131.01450508274138,99.97557633731049 129.34300338942558,98.82138270081487 126.60781879909337,94.86414286575746 123.41677011083812,86.12521349603776 122.65699661336839,81.17863460932858 121.89722311589867,79.20000000006985" stroke="#4dd2ff" stroke-linecap="round" stroke-linejoin="round" stroke-width="0.5"><title>2023-11-09 1.0km</title><desc>10185506531</desc></polyline><polyline fill="none" points="147.78631037380546,80.9343146024039 149.3846064391546,84.08761028537992 149.96580500761047,85.66425638832152 151.85470035811886,89.76353083131835 152.58119856892154,92.6014854706591 152.4358989270404,90.86718030378688 152.726498211734,91.97082920849789 153.30769678018987,96.22775537776761 154.61539356131107,100.16934614919592 155.19659213069826,100.80000000004657 155.9230903419666,100.48467309738044 156.21368962619454,100.0116826571757 154.61539356131107,98.5927107098978 153.45299642300233,96.70074665301945 152.726498211734,94.65111704124138 151.7094007153064,91.18250862043351 150.25640429276973,89.13287373469211 148.6581082274206,85.66425638832152 148.2222093003802,83.1416220671963 148.36750894226134,79.98832499329001 148.0769096580334,79.20000000006985" stroke="#4dd2ff" stroke-linecap="round" stroke-linejoin="round" stroke-width="0.5"><title>2023-11-08 1.0km</title><desc>10179505859</desc></polyline><polyline fill="none" points="177.02557692071423,91.13289520586841 181.89769231854007,100.80000000004657 182.17609891248867,100.64895183767658 181.48008242761716,98.98742131562904 180.22725275345147,96.87274416279979 179.39203297067434,94.75806483370252 177.72159340558574,92.9454808193259 177.1647802181542,91.88813940575346 176.74717032629997,88.26296471385285 176.46876373235136,87.20562089059968 174.79832416726276,84.33568491286132 173.82390108751133,79.19999999995343" stroke="#4dd2ff" stroke-linecap="round" stroke-linejoin="round" stroke-width="0.5"><title>2023-11-06 1.0km</title><desc>10167691585</desc></polyline><polyline fill="none" points="19.923467515502125,109.26045393233653 20.92593147419393,111.12520549283363 24.649369031190872,119.6719624272082 26.224669536575675,124.48921019840054 26.511087810155004,124.80000000004657 26.797506083268672,124.80000000004657 26.797506083268672,124.33381528023165 25.651832988951355,121.84749503829516 24.649369031190872,120.4489386169007 24.506159894634038,119.6719624272082 23.64690507343039,118.73959062295035 21.2123497473076,114.54391241364647 18.348167010582983,107.24030455225147 17.202493916265666,103.20000000006985" stroke="#4dd2ff" stroke-linecap="round" stroke-linejoin="round" stroke-width="0.5"><title>2023-11-05 1.1km</title><desc>10161301187</desc></polyline><polyline fill="none" points="43.96108798496425,103.19999999995343 46.84602513816208,109.61741418659221 48.144246857613325,115.25220093794633 50.1637028651312,119.1652385185007 50.884937153663486,122.29566340509336 51.60617144219577,124.80000000004657 52.03891201503575,124.33043711283244 51.89466515695676,123.8608741221251 50.019456007517874,120.41740902571473 49.87520914943889,119.94784517178778 48.144246857613325,117.28698137763422 47.42301256908104,114.78263594501186 45.54780341964215,111.33915616502054 45.115062846336514,108.36523732787464 44.2495817001909,105.23479195870459" stroke="#4dd2ff" stroke-linecap="round" stroke-linejoin="round" stroke-width="0.5"><title>2023-11-04 1.0km</title><desc>10155501797</desc></polyline><polyline fill="none" points="79.795107210055,106.48102882597595 78.1573595199734,104.293676919071 77.14951478829607,103.61012892005965 75.1338253240101,103.20000000006985 73.24411645112559,103.3367096503498 70.59852402890101,104.56709604803473 69.46469870535657,105.66077216272242 68.45685397321358,107.71141314262059 68.20489279041067,109.3519242979819 67.82695101574063,114.82028435869142 68.07891219854355,120.56204510864336 68.33087338181213,121.3822951966431 69.59067929722369,123.43291883275378 71.10244639543816,124.52658384700771 73.62205822579563,124.80000000004657 75.88970887288451,123.84304328868166 78.0313789290376,121.24558687384706 78.66128188651055,120.01521151571069 79.54314602725208,116.05066315515433 79.54314602725208,112.90636016707867 80.17304898425937,108.80508740677033 80.04706839332357,107.30128512752708 78.66128188651055,105.66077216272242 77.52745656296611,104.840515137068 74.88186414074153,103.61012892005965 73.49607763392851,103.61012892005965 70.47254343796521,104.56709604803473 69.0867569311522,105.79748163174372 68.20489279041067,107.43799447582569 67.95293160714209,108.53166890132707 68.20489279041067,113.04306910349987 67.95293160714209,115.09370193921495" stroke="#4dd2ff" stroke-linecap="round" stroke-linejoin="round" stroke-width="0.5"><title>2023-11-03 1.0km</title><desc>10152446508</desc></polyline><polyline fill="none" points="95.52956787124276,103.19999999995343 96.71043673530221,105.76272166171111 97.72261004708707,110.33900378202088 99.4095655689016,113.63392170099542 101.93999884836376,120.2237444575876 102.44608550425619,121.32204655488022 103.28956326469779,124.25084977876395 103.79564992152154,124.80000000004657 104.47043212968856,124.80000000004657 104.47043212968856,124.43389986595139 103.28956326469779,123.88474956410937 102.78347660880536,122.60339838941582 101.60260774474591,121.50509685720317 100.75912998430431,119.12544187624007 99.57826111931354,117.29493649699725 98.22869670391083,114.54917590436526 96.71043673530221,108.87459441879764 95.69826342258602,106.49492736603133" stroke="#4dd2ff" stroke-linecap="round" stroke-linejoin="round" stroke-width="0.5"><title>2023-11-02 1.1km</title><desc>10144903556</desc></polyline><polyline fill="none" points="122.32170485937968,104.76522475562524 122.61019859556109,106.48697065818124 123.7641735416837,109.14784795034211 125.78362969774753,116.34785218513571 129.24555453751236,123.547832070617 130.25528261484578,124.80000000004657 129.6782951420173,122.92174782999791 127.51459211762995,119.63480254472233 126.36061717150733,115.40872257878073 124.91814848827198,113.37394034443423 123.18718606885523,109.61741418624297 121.74471738561988,103.20000000006985" stroke="#4dd2ff" stroke-linecap="round" stroke-linejoin="round" stroke-width="0.5"><title>2023-11-01 1.0km</title><desc>10138966680</desc></polyline><polyline fill="none" points="148.8569374680519,103.5248135945294 149.60528569016606,105.96091402857564 150.8026428455487,112.4571687191492 152.74834822211415,116.67972402344458 153.94570537656546,120.57746021717321 155.89141075406224,124.80000000004657 156.04108039848506,124.63759477273561 154.6940535986796,122.68873111752328 152.74834822211415,118.14137590187602 151.10198213439435,115.2180711774854 148.25825889129192,106.61054035718553 147.95891960151494,103.20000000006985" stroke="#4dd2ff" stroke-linecap="round" stroke-linejoin="round" stroke-width="0.5"><title>2023-10-31 1.0km</title><desc>10133123337</desc></polyline><polyline fill="none" points="174.6085969740525,105.76001119834837 175.34585850220174,109.60002234985586 175.34585850220174,111.04002478462644 176.96783386170864,113.76002678414807 181.3914030259475,123.20000735193025 182.12866455409676,124.64000078791287 182.42356916423887,124.80000000004657 179.03216613829136,118.08002297277562 177.5576430838555,113.92002679605503 175.93566772341728,110.56002407881897 173.57643083576113,103.20000000006985" stroke="#4dd2ff" stroke-linecap="round" stroke-linejoin="round" stroke-width="0.5"><title>2023-10-30 1.0km</title><desc>10127985445</desc></polyline><polyline fill="none" points="18.59501596633345,130.32633072906174 19.24982058815658,134.7316063559847 19.642703361343592,136.1526608680142 22.261921849101782,142.26318336534314 23.571531092282385,145.81580384413246 25.535944958683103,148.51579104084522 26.059788656421006,148.80000000004657 26.190749580040574,148.37368654541206 25.0121012609452,146.5263271559961 23.309609244111925,142.83160308073275 20.297507983166724,137.28950372571126 19.11885966314003,133.16844518610742 18.202133192680776,131.32107126468327 18.071172268595546,128.47895409131888 17.809250419959426,127.20000000006985" stroke="#4dd2ff" stroke-linecap="round" stroke-linejoin="round" stroke-width="0.5"><title>2023-10-28 1.0km</title><desc>10115543824</desc></polyline><polyline fill="none" points="45.19840578362346,131.68001762102358 46.37802440114319,135.52002538449597 47.705095345154405,138.5600267255213 48.88471396267414,142.88002132612746 50.654141888953745,147.04000802256633 51.39140352420509,148.64000078849494 52.12866515945643,148.80000000004657 52.27611748687923,148.64000078849494 51.98121283296496,147.68000526994 51.09649886935949,145.28001462155953 48.1474523274228,139.5200262669241 45.788215091452,133.1200213264674 44.31369182001799,129.92001179850195 43.72388251218945,127.20000000006985" stroke="#4dd2ff" stroke-linecap="round" stroke-linejoin="round" stroke-width="0.5"><title>2023-10-27 1.0km</title><desc>10110442644</desc></polyline><polyline fill="none" points="71.07263622339815,130.53530821716413 73.85363181121647,139.9059085083427 74.87820913270116,142.76472762366757 75.90278645511717,144.51178188773338 77.07373196445405,147.84706337715033 77.51283653173596,148.48235450603534 78.39104566443712,148.80000000004657 78.53741385228932,148.32353174127638 78.39104566443712,147.68824056594167 76.92736377567053,145.7823659197893 74.73184094391763,141.97061158227734 72.09721354581416,134.18825892731547 70.34079527948052,131.3294284621952 69.46258614677936,127.20000000006985" stroke="#4dd2ff" stroke-linecap="round" stroke-linejoin="round" stroke-width="0.5"><title>2023-10-26 1.0km</title><desc>10104873905</desc></polyline><polyline fill="none" points="98.91814872715622,137.53046212380286 102.23582596611232,145.82609996548854 103.82254116702825,148.64347904920578 104.39952851226553,148.80000000004657 104.25528167653829,147.23478997312486 100.36061709094793,140.50437374645844 98.19691454432905,135.02611227263696 96.32170567009598,131.11305973259732 95.60047148773447,127.19999999995343" stroke="#4dd2ff" stroke-linecap="round" stroke-linejoin="round" stroke-width="0.5"><title>2023-10-25 1.0km</title><desc>10098978222</desc></polyline><polyline fill="none" points="122.0042563113384,127.20000000006985 121.85895654093474,128.30365490925033 122.73075516428798,131.92994561139494 123.89315332844853,134.2949145049788 124.6196521804668,137.1328737345757 125.927350115031,140.9168135318905 128.68804575363174,146.27738348336425 129.55984437698498,148.48467309772968 129.8504439177923,148.80000000004657 130.14104345906526,148.64233655459248 129.99574368819594,146.5927107097814 128.3974462132901,143.59710018232 127.2350480495952,141.86279743816704 125.78205034416169,138.55185194103979 125.49145080335438,136.81754511699546 123.74785355757922,134.1372499933932 122.73075516428798,131.772280925652 122.44015562301502,128.9343146022875 122.0042563113384,127.20000000006985" stroke="#4dd2ff" stroke-linecap="round" stroke-linejoin="round" stroke-width="0.5"><title>2023-10-24 1.0km</title><desc>10092835699</desc></polyline><polyline fill="none" points="149.78025935776532,130.92951216874644 151.92839546268806,138.54391241353005 152.93085897853598,140.40865931252483 154.0765315676108,145.07051936292555 155.79504045145586,148.17842035088688 156.51108582038432,148.80000000004657 155.79504045145586,148.02302540978417 154.7925769360736,145.53670480242 152.21481360960752,142.4287999299122 151.64197731530294,141.34103214519564 151.06914102099836,137.7669340533903 149.35063213668764,134.34822587575763 148.20495954761282,130.77411595988087 147.48891417961568,127.20000000006985" stroke="#4dd2ff" stroke-linecap="round" stroke-linejoin="round" stroke-width="0.5"><title>2023-10-23 1.0km</title><desc>10087395010</desc></polyline><polyline fill="none" points="171.00669401115738,127.30359870288521 171.38858102750964,127.19999999995343 174.10952601977624,127.40719739045016 175.3029229461681,127.71799336187541 175.58933820854872,127.87339129624888 176.2099046104122,128.33958489343058 176.6395275038667,128.85757741745329 177.59424504474737,130.6187491499004 178.07160381553695,132.58711234654766 178.69217021740042,133.62309076730162 178.9785854795482,134.45187240705127 179.64688775828108,135.95403664413607 180.12424652907066,137.507996277418 180.84028468490578,138.7511615161202 181.1744358241558,139.11375096417032 181.60405871784315,139.8389293004875 181.84273810312152,141.39288036490325 181.9859457341954,141.80726673663594 182.36783275054768,142.37704759970075 182.463304504985,143.2576171181281 182.60651213605888,143.620204246894 184.706890726462,148.5928089010995 184.99330598884262,148.79999999998836 184.99330598884262,148.54101111670025 184.56368309538811,148.12662870559143 184.08632432483137,146.9870758180623 183.6089655540418,146.00291502301116 182.32009687367827,142.01445983105805" stroke="#4dd2ff" stroke-linecap="round" stroke-linejoin="round" stroke-width="0.5"><title>2023-10-22 1.5km</title><desc>10080655811</desc></polyline><polyline fill="none" points="18.56446858961135,151.20000000001164 19.322306400630623,151.7482310894993 17.95819834037684,151.5289387020166 20.080144211649895,154.27008890907746 20.282234294805676,154.92796345928218 20.130666732555255,155.47619180753827 19.423351442208514,155.85995141166495 19.221261359052733,156.24371081811842 19.271783879958093,156.90158362674993 19.675964045803994,158.49144051817711 20.130666732555255,159.64271408203058 20.635891939979047,161.39703228487633 21.54529731348157,162.98687959113158 21.69686487573199,163.58992423431482 22.25261260382831,164.57672350743087 22.606270249234512,165.0153005431057 22.65679276967421,165.2894110592897 23.010450415080413,165.61834354582243 23.263063018675894,166.16656403418165 23.616720664082095,167.2081818516017 23.970378309255466,167.92086688842392 23.919855788582936,169.3462349184556 24.576648558024317,170.6071351354476 24.778738641180098,171.21017361606937 25.13239628635347,171.86803322046762 25.73866653535515,172.63553535874235 26.04180165985599,172.79999999998836 24.87978368275799,171.1553519561421 24.627171078929678,170.27820484968834 24.121945871273056,169.18176951550413 23.919855788582936,168.46908568392973 23.263063018675894,167.53711349173682 22.707315290579572,165.94727588724345" stroke="#4dd2ff" stroke-linecap="round" stroke-linejoin="round" stroke-width="0.5"><title>2023-10-20 1.4km</title><desc>10069668027</desc></polyline><polyline fill="none" points="43.65362509805709,151.19999999995343 43.75649787695147,152.0372207518085 44.579480106709525,154.04654678847874 44.785225664265454,155.27446563716512 46.48262651334517,159.4047235508915 46.63693568157032,159.96286478859838 46.7398084604647,160.80007587582804 46.9455540177878,161.3582160877413 48.18002736265771,163.08844813657925 48.84870042465627,164.42797991767293 49.2601915395353,165.76750933506992 49.62024626531638,166.49308678269153 49.82599182263948,167.6093584248447 50.083173769759014,168.16749363043346 50.751846831291914,169.89771016000304 50.854719610186294,170.56747033866122 51.83201100840233,172.57674732932355 52.089192955056205,172.79999999998836 52.24350212328136,172.79999999998836 52.34637490171008,172.7441868383903 52.294938512612134,172.68837367277592 51.26621072529815,171.40466973098228 50.80328322085552,169.84189678513212 49.82599182263948,168.05586662207497 49.67168265464716,167.33029066812014 49.56880987575278,166.10239132016432" stroke="#4dd2ff" stroke-linecap="round" stroke-linejoin="round" stroke-width="0.5"><title>2023-10-19 1.3km</title><desc>10064004415</desc></polyline><polyline fill="none" points="69.12936548842117,151.20000000006985 71.24703266704455,153.95745927596 71.10585485538468,155.9489553726744 71.38821047870442,157.94044956599828 72.3764551631175,161.46385770628694 73.78823328157887,163.76172937103547 75.20001140097156,167.74470092041884 78.02356764022261,172.34042786306236 78.44710107613355,172.80000000004657 78.87063451157883,172.64680929866154 77.0353229562752,170.80852000799496 73.647055469919,164.22130339988507 72.79998859809712,161.31066617183387 70.39996579522267,156.25533921841998" stroke="#4dd2ff" stroke-linecap="round" stroke-linejoin="round" stroke-width="0.5"><title>2023-10-18 1.0km</title><desc>10058081424</desc></polyline><polyline fill="none" points="96.229910842143,152.5090968760196 97.436339372769,159.54547939426266 100.60321426484734,167.8909274970647 102.71446419321,172.30909323703963 103.61928559094667,172.80000000004657 104.07169628981501,172.80000000004657 104.37330342270434,172.14545762562193 103.31767845898867,170.83637229795568 101.96044636238366,168.70910699968226 100.150803565979,164.7818426452577 99.39678573515266,162.49093523877673 96.229910842143,156.1091093159048 95.92830371018499,155.12728831882123 95.62669657729566,151.20000000006985" stroke="#4dd2ff" stroke-linecap="round" stroke-linejoin="round" stroke-width="0.5"><title>2023-10-17 1.0km</title><desc>10051702317</desc></polyline><polyline fill="none" points="121.17660451494157,151.69846386567224 122.70784117653966,154.35693595849443 125.00469616893679,160.33848673303146 126.22968549933285,162.66464109206572 127.6077984943986,166.98463569255546 129.29215882346034,171.30462203593925 129.90465348772705,172.46769387146924 130.6702718185261,172.80000000004657 130.82339548505843,172.63384694198612 130.6702718185261,172.13538769376464 128.98591149039567,169.6430898043327 126.68905649799854,163.99387107940856 125.00469616893679,160.50464069505688 123.62658317387104,154.02462711755652 122.860964843072,151.20000000006985" stroke="#4dd2ff" stroke-linecap="round" stroke-linejoin="round" stroke-width="0.5"><title>2023-10-16 1.0km</title><desc>10046279660</desc></polyline><polyline fill="none" points="147.57642742060125,151.20000000018626 148.20836636144668,152.57143451995216 148.8403053013608,155.65715924091637 150.26216791570187,160.457167357672 152.15798473451287,163.3714531790465 154.36977102421224,171.60000524926 155.15969469957054,172.45714441989549 156.26558784395456,172.80000000004657 156.42357257939875,172.45714441989549 156.26558784395456,171.42857737722807 154.21178628969938,168.51430162554607 153.10589314438403,165.08573725470342 151.84201526548713,163.02859621262178 148.8403053013608,156.00001729140058 147.73441215604544,151.20000000018626" stroke="#4dd2ff" stroke-linecap="round" stroke-linejoin="round" stroke-width="0.5"><title>2023-10-15 1.0km</title><desc>10039610121</desc></polyline><polyline fill="none" points="173.50507848523557,152.7677485626191 173.9866772191599,157.81937576434575 175.27094050962478,161.47744391136803 176.87626962177455,163.7419594572857 177.8394670896232,166.87743894872256 180.56852658092976,171.7548432429321 181.21065822523087,172.4516144655645 182.01332278177142,172.80000000004657 182.49492151569575,172.4516144655645 182.49492151569575,171.92903606779873 179.28426329046488,169.3161423506681 177.19733544345945,165.48389302031137 176.39467088785022,162.17421815590933 174.4682759521529,157.81937576434575 173.50507848523557,154.16130197024904 173.66561139654368,151.89677726710215 173.50507848523557,151.19999999995343" stroke="#4dd2ff" stroke-linecap="round" stroke-linejoin="round" stroke-width="0.5"><title>2023-10-14 1.0km</title><desc>10033377496</desc></polyline><polyline fill="none" points="17.10247393604368,175.54285870608874 19.946198747493327,178.97144298977219 20.262168171815574,181.54287789412774 22.947908271104097,189.77145053213462 25.47566365916282,195.77143310848624 26.26558721717447,196.80000000004657 26.897526064887643,196.80000000004657 26.897526064887643,196.2857166111935 26.73954135272652,195.77143310848624 25.317678947001696,194.74286576313898 23.73783183004707,191.8285891546402 22.0,186.34288212889805 18.84030576609075,179.3143011406064 18.366351630538702,176.9142930242233 17.57642807159573,175.19999999995343" stroke="#4dd2ff" stroke-linecap="round" stroke-linejoin="round" stroke-width="0.5"><title>2023-10-13 1.0km</title><desc>10028006924</desc></polyline><polyline fill="none" points="43.36538064479828,175.20000000006985 44.88492797501385,177.17863460967783 45.79665637295693,178.82749545027036 45.948611105792224,180.9710127315484 45.79665637295693,183.2794136662269 47.468158435076475,186.74201061367057 49.44356996379793,192.01833853893913 51.41898149251938,195.64580678741913 51.87484569195658,196.3053458391223 52.634619356133044,196.80000000004657 52.634619356133044,195.97557633754332 50.9631172940135,193.83207339665387 49.44356996379793,191.1939131191466 47.468158435076475,185.75269774568733 46.25252057146281,183.609185034642 45.64470164012164,181.7954419098096" stroke="#4dd2ff" stroke-linecap="round" stroke-linejoin="round" stroke-width="0.5"><title>2023-10-12 1.0km</title><desc>10021974100</desc></polyline><polyline fill="none" points="71.4746022215113,178.26269951381255 72.068813463673,181.48658911755774 71.92026065289974,182.77614363189787 73.25723594706506,187.12838451750576 74.29710562061518,189.06271102663595 75.33697529416531,192.6089718618896 76.82250339910388,196.15522696147673 77.11960901971906,196.47761350416113 77.86237307265401,196.80000000004657 77.71382026188076,196.15522696147673 76.07973934616894,191.9641975912964 74.29710562061518,188.90151721588336 71.92026065289974,183.42092060425784 71.32604941073805,181.32539474999066 71.02894379012287,178.26269951381255 70.13762692734599,175.20000000006985" stroke="#4dd2ff" stroke-linecap="round" stroke-linejoin="round" stroke-width="0.5"><title>2023-10-10 1.0km</title><desc>10009069592</desc></polyline><polyline fill="none" points="96.34079527948052,177.90001181093976 97.3653726009652,180.75884416745976 98.38994992244989,184.57061475841329 100.5854727551341,189.33531853882596 102.34189102053642,195.37059490859974 103.36646834202111,196.80000000004657 103.65920471958816,196.32353174127638 103.80557290837169,194.5764805598883 102.780995586887,191.55884337320458 100.5854727551341,187.74708511296194 98.09721354581416,180.75884416745976 97.3653726009652,177.58236353751272 96.19442709069699,175.20000000006985" stroke="#4dd2ff" stroke-linecap="round" stroke-linejoin="round" stroke-width="0.5"><title>2023-10-09 1.0km</title><desc>10003389142</desc></polyline><polyline fill="none" points="121.60214570444077,175.20000000006985 122.68232044391334,176.53954084217548 123.76249518338591,179.05117779690772 124.37973789125681,184.07444339734502 126.69439804647118,189.09769791853614 128.70043684728444,194.79070631600916 129.62630091048777,196.46511784254108 130.3978542946279,196.80000000004657 130.3978542946279,195.46047107467894 127.46595143154263,190.7721136303153 123.60818450618535,181.39536978886463 122.06507773511112,175.36744264874142" stroke="#4dd2ff" stroke-linecap="round" stroke-linejoin="round" stroke-width="0.5"><title>2023-10-08 1.0km</title><desc>9996447828</desc></polyline><polyline fill="none" points="149.2273689210415,179.5200177859515 149.93829996697605,182.14288138831034 152.07109310477972,187.85145554482006 152.78202415117994,190.3200233434327 155.0570034980774,196.02857525658328 155.76793454401195,196.80000000004657 155.91012075310573,196.18286022811662 155.91012075310573,195.56572027492803 153.20858277892694,190.78287948237266 151.92890689568594,188.00574111705646 149.65392754832283,181.21716519689653 148.94299650238827,177.66858268063515 148.08987924689427,175.20000000006985" stroke="#4dd2ff" stroke-linecap="round" stroke-linejoin="round" stroke-width="0.5"><title>2023-10-07 1.0km</title><desc>9989974159</desc></polyline><polyline fill="none" points="176.23527786973864,181.6340659679845 177.36470003286377,185.31066617229953 178.21176665555686,187.14896384219173 179.90589990047738,194.3489474329399 180.32943321205676,195.72766485647298 181.17649983474985,196.80000000004657 181.8823886862956,196.80000000004657 182.16474422672763,196.18723712838255 182.02356645744294,195.72766485647298 180.32943321205676,193.27661102765705 178.63529996667057,189.60002487862948 178.07058888534084,187.14896384219173 175.1058557066135,179.94895537314005 174.68232239503413,177.3446908632759 173.8352557728067,175.20000000006985" stroke="#4dd2ff" stroke-linecap="round" stroke-linejoin="round" stroke-width="0.5"><title>2023-10-06 1.0km</title><desc>9984428862</desc></polyline><polyline fill="none" points="17.349807238206267,199.19999999995343 19.79727711249143,205.7508401402738 21.428923696279526,211.23936816002242 24.20272288657725,218.14427274046466 25.34487549494952,220.44590320182033 25.834369470365345,220.80000000004657 26.48702810332179,220.80000000004657 26.65019276086241,220.44590320182033 26.160698786377907,219.56066097668372 24.20272288657725,216.7278836716432 23.0605702791363,214.42624965729192 21.102594379335642,209.29182739160024 20.286771087907255,206.63608744111843 18.002465871162713,202.38689742889255 18.002465871162713,200.793449241668" stroke="#4dd2ff" stroke-linecap="round" stroke-linejoin="round" stroke-width="0.5"><title>2023-10-04 1.0km</title><desc>9971682885</desc></polyline><polyline fill="none" points="44.73075540456921,201.72263895755168 45.45725420350209,204.2452749478398 46.18375300196931,205.9795854698168 46.764952041674405,208.65988079027738 49.52564747771248,214.17812531418167 49.67094723787159,216.0700915964553 50.54274579696357,219.8540191539796 50.8333453158848,220.32700962922536 51.705143874976784,220.80000000004657 51.705143874976784,219.22336502477992 49.81624699803069,215.7547639987897 48.508549159858376,212.75914950715378 47.782050360459834,211.3401727611199 47.05555156106129,209.29053802613635 45.602553963661194,206.29491450509522 45.021354923956096,203.92994561127853 44.73075540456921,201.56497410975862 44.294856125023216,199.20000000006985" stroke="#4dd2ff" stroke-linecap="round" stroke-linejoin="round" stroke-width="0.5"><title>2023-10-03 1.0km</title><desc>9965060084</desc></polyline><polyline fill="none" points="70.05168626923114,200.09256578912027 72.02584313414991,206.51902978750877 72.35486927907914,209.37523054960184 73.50646078400314,210.8033296703361 74.32902614492923,212.94547677692026 75.80964379385114,218.47934805578552 76.96123529784381,220.26446513272822 77.7838006587699,220.80000000004657 77.94831373076886,220.6214883904904 77.454774514772,219.19339504395612 75.64513072185218,215.801669979468 72.68389542307705,208.66118067363277 70.87425162922591,203.30579991429113 70.54522548615932,199.19999999995343" stroke="#4dd2ff" stroke-linecap="round" stroke-linejoin="round" stroke-width="0.5"><title>2023-10-02 1.0km</title><desc>9958643020</desc></polyline><polyline fill="none" points="96.57615444716066,203.00161439389922 96.8946517072618,204.5568185101729 100.39812157675624,212.85122308298014 102.14985651057214,218.20801048050635 103.1053482927382,220.10880307410844 104.06084007490426,220.80000000004657 104.2200887054205,220.62720078765415 104.06084007490426,219.93600381095894 100.87586746737361,215.09761928464286 97.85014348942786,207.66722365492024 96.41690581571311,203.174414902227 95.7799112945795,199.20000000018626" stroke="#4dd2ff" stroke-linecap="round" stroke-linejoin="round" stroke-width="0.5"><title>2023-10-01 1.0km</title><desc>9952075403</desc></polyline><polyline fill="none" points="122.8986918758601,202.3304483613465 124.19691388169304,204.99132584920153 124.7739014388062,207.6522000116529 125.2066421075724,210.15654912649188 127.37034545000643,216.26088775217067 129.24555501388386,220.1739161274163 130.11103635048494,220.80000000004657 130.39953012997285,220.33043711271603 127.51459234021604,215.94784517178778 126.2163703343831,212.97393835918047 125.7836296656169,211.40872257889714 123.76417321292683,207.02611227263696 122.61019809637219,202.17392605240457 121.60046987002715,199.20000000006985" stroke="#4dd2ff" stroke-linecap="round" stroke-linejoin="round" stroke-width="0.5"><title>2023-09-30 1.0km</title><desc>9945549317</desc></polyline><polyline fill="none" points="148.65578072797507,199.19999999995343 150.0890175588429,201.61920987116173 150.56676316913217,203.52001588023268 151.84075146261603,206.63042239728384 152.47774561028928,211.29602445522323 152.95549122057855,212.67842328641564 154.86647366080433,217.34401333890855 155.3442192710936,220.28160232468508 155.66271634493023,220.62720078765415 156.1404619552195,220.80000000004657 156.29971049167216,220.4544015622232 153.43323683086783,215.27041890379041 151.52225438971072,210.7776246839203 150.8852602429688,208.18562411214225 148.65578072797507,203.00161439413205 147.70028950739652,199.89120307425037" stroke="#4dd2ff" stroke-linecap="round" stroke-linejoin="round" stroke-width="0.5"><title>2023-09-28 1.0km</title><desc>9933629332</desc></polyline><polyline fill="none" points="173.77749703917652,201.6545560109662 174.9839264564216,205.90911335172132 177.2459816141054,209.0182078036014 178.7540183858946,214.581839667866 180.86526986584067,218.345465102233 181.46848457492888,220.4727288366994 182.07169928308576,220.80000000004657 182.37330663762987,220.3090932368068 182.07169928308576,219.65455071767792 180.86526986584067,218.01819357764907 177.3967852909118,210.98184416710865 175.5871411645785,206.07275000982918 173.62669336237013,199.20000000006985" stroke="#4dd2ff" stroke-linecap="round" stroke-linejoin="round" stroke-width="0.5"><title>2023-09-27 1.0km</title><desc>9927137811</desc></polyline><polyline fill="none" points="23.794385640183464,223.19999999995343 23.36373308650218,225.2769517872366 22.933080532820895,226.4711962986621 22.59812854672782,227.92505645600613 20.63626691349782,232.027002906485 19.6314109552186,233.74046715319855 19.440009820042178,234.46739012288162 19.535710387397557,235.03854336001677 19.774961806135252,235.86931088013807 20.492716062115505,237.63468861562433 20.73196748108603,238.10199374804506 21.019069183385,238.93275766435545 21.976074857870117,240.1269790820661 22.40672741178423,241.06158573925495 22.88523024925962,241.78850117325783 23.2680325191468,242.82695049518952 23.84223592397757,243.60578648454975 24.559990179957822,244.79999999998836" stroke="#4dd2ff" stroke-linecap="round" stroke-linejoin="round" stroke-width="0.5"><title>2023-09-26 1.0km</title><desc>9920397094</desc></polyline><polyline fill="none" points="47.89912603562698,223.20000000001164 46.957635703030974,226.33786702319048 46.01614537020214,228.0162569397944 45.14190434664488,229.11085753014777 44.67115918057971,229.9865371331689 44.46941125206649,230.86221596354153 44.536660561105236,231.95681341498857 44.87290710909292,232.83249050704762 45.679898822680116,234.07303173147375 46.01614537020214,235.3135714053642 46.688638464780524,236.91897338739363 47.96637534513138,238.52437277277932 50.11835324857384,242.90272153465776 51.53058874793351,244.79999999998836" stroke="#4dd2ff" stroke-linecap="round" stroke-linejoin="round" stroke-width="0.5"><title>2023-09-25 1.0km</title><desc>9914573673</desc></polyline><polyline fill="none" points="75.59245867212303,223.20000000001164 75.06163911474869,224.00641070248093 74.95547520322725,224.40961574245011 75.06163911474869,224.92802191746887 75.1147210705094,225.44642774929525 74.05308195552789,227.40484668471618 73.7876721767243,228.72965671774 73.41609848686494,229.70886269339826 71.1866563456133,233.62567435624078 71.13357438985258,234.08647444064263 71.34590221266262,235.00807379680919 71.92980372603051,235.92967206868343 72.24829546036199,236.73606966715306 72.72603306197561,237.54246643558145 72.9914428407792,238.34886237385217 73.6815082654357,239.44325553410454 74.21232782257721,240.5376471655327 74.79622933617793,241.17124162177788 74.95547520322725,241.74723613733659 75.32704889331944,242.20803144481033 76.1232782297302,243.5904157414334 76.70717974286526,244.22400772874244 76.86642560991459,244.79999999998836" stroke="#4dd2ff" stroke-linecap="round" stroke-linejoin="round" stroke-width="0.5"><title>2023-09-24 1.0km</title><desc>9907510217</desc></polyline><polyline fill="none" points="100.8052497135941,223.19999999995343 100.3543098741211,223.8990368102095 100.03220998868346,224.59807310631732 99.83895005751401,225.50681952305604 99.77453008014709,226.69517891091527 98.67939046956599,228.1631502218661 98.03519069892354,229.84082894423045 97.45541090494953,230.6796671951306 97.0688910423778,231.7981170452549 97.00447106501088,232.98646856920095 98.35729058436118,236.4117087686318 98.87265040096827,237.46024921990465 100.54756980529055,240.1165465207887 101.25618955329992,241.86410648730816 102.15806923247874,242.98254318005638 102.67342904955149,243.89127202425152 102.99552893498912,244.79999999998836" stroke="#4dd2ff" stroke-linecap="round" stroke-linejoin="round" stroke-width="0.5"><title>2023-09-23 1.0km</title><desc>9901004991</desc></polyline><polyline fill="none" points="126.82940766238607,223.20000000001164 126.39934443007223,224.00000917632133 125.96928119775839,225.40002353605814 124.98627952369861,227.466707449581 124.00327784963883,228.8667164563667 123.14315138501115,231.20005999715067 123.0817137802951,232.46672969026258 123.2045889897272,233.2000639672042 124.43334108195268,236.1333951432607 124.61765389586799,237.00005935650552 124.86340431426652,237.4667243589647 125.72353077912703,238.53338631999213 126.39934443007223,239.86671200639103 126.95228287158534,241.26670186739648 127.8738469411619,242.60002353484742 128.9182862197049,244.79999999998836" stroke="#4dd2ff" stroke-linecap="round" stroke-linejoin="round" stroke-width="0.5"><title>2023-09-22 1.0km</title><desc>9895405405</desc></polyline><polyline fill="none" points="153.1450217468664,223.19999999995343 152.96886455500498,223.83717584831174 152.6165501717478,224.2194811324589 151.8532023401931,225.62126573116984 151.55960702057928,226.6407440150506 150.67882106127217,228.87084857962327 149.7393160383217,230.78236220986582 149.15212539886124,232.18413619237253 148.97596820699982,232.88502233318286 148.97596820699982,233.33104049135 149.15212539886124,233.96820889046649 149.50443978235126,234.60537682118593 150.26778761390597,236.58059442898957 151.03113544499502,237.98235903232126 151.44216889259405,239.0018227742985 152.20551672391593,240.27615076530492 152.67526923539117,240.8495977499988 153.02758361888118,241.8690581190167 153.96708864206448,243.5256786608952 155.02403179300018,244.79999999998836" stroke="#4dd2ff" stroke-linecap="round" stroke-linejoin="round" stroke-width="0.5"><title>2023-09-21 1.0km</title><desc>9889267953</desc></polyline><polyline fill="none" points="180.19914857461117,223.19999999995343 179.42831299151294,225.51256180164637 178.97488029603846,227.3330835548113 178.2493879823014,228.85838175087702 177.38786586048082,231.41693865915295 175.8915379641112,234.22149941610405 175.4834485379979,235.74678191059502 175.52879180735908,236.09120005724253 175.80085142469034,236.82923834602116 176.39031392964534,238.10850278503494 176.75306008616462,239.1909554002341 177.65992547781207,240.47021532442886 178.20404471294023,241.50346193969017 178.5214475998655,242.241494259506 178.8841937566176,242.88112161163008 179.47365626133978,243.3239401896135 180.19914857461117,244.40638436889276 180.24449184420519,244.60319221339887 180.51655146176927,244.79999999998836" stroke="#4dd2ff" stroke-linecap="round" stroke-linejoin="round" stroke-width="0.5"><title>2023-09-20 1.0km</title><desc>9882714971</desc></polyline><polyline fill="none" points="23.791003632126376,247.20000000001164 23.330459841061383,248.36608261422953 22.460543791064993,250.9203525246121 22.409372258698568,251.75326475786278 22.10234306450002,252.19748423999408 21.744142338167876,253.03039506456116 21.539456208702177,253.80777767213294 21.13008395000361,254.86279564508004 19.95313870580867,256.7507188655436 19.64610951161012,257.8612597316969 19.5437664471101,258.8607451149728 19.64610951161012,259.860229175305 19.95313870580867,260.9707654688973 20.311339432140812,261.7481399027747 21.437113143969327,263.6915724865976 22.0,264.46894411969697 22.511715323198587,265.85710576031124 23.023430646862835,266.7455278711859 23.535145970294252,267.4673700667918 24.098032826092094,268.0226328247227 24.456233552657068,268.79999999998836" stroke="#4dd2ff" stroke-linecap="round" stroke-linejoin="round" stroke-width="0.5"><title>2023-09-19 1.0km</title><desc>9876194288</desc></polyline><polyline fill="none" points="47.84100794629194,247.20000000001164 47.45942701748572,247.82109320326708 46.82345880288631,249.0632783769979 46.6326683384832,249.89140091248555 45.48792555183172,251.89269402367063 44.59757005143911,253.75596308422973 44.40677958680317,254.44606179761468 44.47037640865892,255.20516979601234 44.85195733746514,256.17130636097863 45.42432873044163,257.2064515767852 45.93310330249369,258.6556529609952 46.6326683384832,260.1738615350332 47.39583019609563,261.5540490167914 48.09539523231797,262.4511697916896 48.92215391132049,263.83135392481927 49.43092848290689,265.41856316884514 50.32128398376517,266.79874293867033 50.76646173396148,268.04090299631935 51.59322041319683,268.79999999998836" stroke="#4dd2ff" stroke-linecap="round" stroke-linejoin="round" stroke-width="0.5"><title>2023-09-18 1.0km</title><desc>9870505463</desc></polyline><polyline fill="none" points="74.2170412815176,247.19999999995343 73.90698230802082,247.8056144231232 73.47289974521846,249.82432627223898 72.91479359311052,250.7663902780041 72.66674641426653,251.50658274488524 71.30248693120666,253.7271565538831 70.80639257398434,254.93837636063108 70.49633360025473,256.0150148428511 70.74438077909872,256.7552030647639 72.10864026192576,259.7159499658155 72.7907700035721,260.79258282791125 73.28686436102726,261.9365038559772 74.09301769197918,263.0131341058295 74.52710025501437,263.75331666780403 75.08520640688948,265.5028367077466 77.50366639974527,268.79999999998836" stroke="#4dd2ff" stroke-linecap="round" stroke-linejoin="round" stroke-width="0.5"><title>2023-09-16 1.0km</title><desc>9856514700</desc></polyline><polyline fill="none" points="99.70141286822036,247.19999999995343 99.03788590896875,249.21602015919052 98.17530086194165,250.58403147483477 96.38377807172947,254.04005154868355 96.31742537557147,254.83205443120096 96.38377807172947,255.76805701170815 96.78189424728043,256.7040586976218 97.44542120676488,257.7120595127344 98.0425954698585,259.08005895931274 99.10423860489391,260.88005531951785 100.4312925238628,263.4000446656719 100.56399791548029,264.33603905688506 101.02846678695641,264.6960366614512 101.55928835459054,265.4160314735491 102.4218734013848,266.8560195097816 103.35081114433706,267.64801202714443 103.54986923234537,268.1520069320104 103.6825746241957,268.79999999998836" stroke="#4dd2ff" stroke-linecap="round" stroke-linejoin="round" stroke-width="0.5"><title>2023-09-15 1.0km</title><desc>9850671982</desc></polyline><polyline fill="none" points="126.5491250732448,247.20000000001164 125.45087492698804,250.10485439072363 124.21534351236187,251.89245295227738 123.6662184393499,252.86073418945307 122.84253082983196,254.94625986437313 122.63660892727785,255.69108942203457 122.63660892727785,256.28695267351577 122.84253082983196,257.03178124543047 123.6662184393499,259.2662636752357 124.42126541491598,260.7559158902732 126.27456253673881,263.958660734992 127.02960951230489,265.3738238363294 127.16689078020863,266.19312788615935 127.71601585345343,266.71450284548337 128.6083440973889,268.12966209702427 129.36339107272215,268.79999999998836" stroke="#4dd2ff" stroke-linecap="round" stroke-linejoin="round" stroke-width="0.5"><title>2023-09-14 1.0km</title><desc>9844236351</desc></polyline><polyline fill="none" points="148.56709610228427,247.19999999995343 148.96225050766952,247.52159278281033 149.110433409689,247.84318542375695 149.2092220110353,248.53996899235062 149.50558781507425,249.1295545687899 149.7031650179997,250.79111135465791 149.7031650179997,251.59508908487624 149.60437641642056,252.02387684507994 149.7031650179997,252.5598611907917 149.9501365213655,253.2030418853974 149.85134792001918,253.73902536404785 149.90074222069234,254.00701695558382 150.3946852274239,254.91818762995536 150.83923393371515,256.2581424351083 151.2343883391004,257.0085160502349 151.7283313460648,257.70529085828457 152.27166865346953,258.18767302751075 152.419851555489,258.5092609630665 152.56803445750847,259.2060343368212 152.96318886312656,259.9028070445638 153.40773756918497,261.1891549092252 154.00046917726286,262.31470742897363 154.29683498153463,263.279465348518 154.4450178835541,264.08342930604704 154.74138368782587,264.72659983392805 155.2847209952306,266.4953158595017 156.02563550556079,267.88884667569073 156.07502980646677,268.1032357955701 156.02563550556079,268.26402759418124 155.43290389725007,268.79999999998836 155.72926970152184,268.58561108488357 155.87745260354131,268.26402759418124 155.9762412046548,267.99604124354664 155.9268469044473,267.620860187104 155.63048110017553,267.2456789375865 154.74138368782587,265.31617231911514 154.29683498153463,263.8690390040283 153.35834326851182,261.7787302552606 152.9137945624534,259.74201340193395 152.66682305908762,259.15243640867993 151.7283313460648,257.91968297294807 150.78983963280916,256.15094614133704 150.34529092675075,254.70379463257268 150.1971080249641,253.73902536404785 149.8019536191132,252.7206564177177 149.01164480834268,251.00550550274784 148.81406760541722,250.20152712223353 148.12254739599302,248.91515986889135 147.97436449397355,248.21837665891508 147.9249701933004,247.36079640913522" stroke="#4dd2ff" stroke-linecap="round" stroke-linejoin="round" stroke-width="0.5"><title>2023-09-13 1.0km</title><desc>9837636972</desc></polyline></svg>