<?xml version="1.0" encoding="utf-8" ?>
<svg baseProfile="full" height="300mm" version="1.1" viewBox="0,0,200,300" width="200mm" xmlns="http://www.w3.org/2000/svg" xmlns:ev="http://www.w3.org/2001/xml-events" xmlns:xlink="http://www.w3.org/1999/xlink"><defs /><rect fill="#222222" height="300" width="200" x="0" y="0" /><text fill="#FFFFFF" style="font-size:12px; font-family:Arial; font-weight:bold;" x="10" y="20">Over 1km Runs</text><text fill="#FFFFFF" style="font-size:4px; font-family:Arial" x="10" y="280">ATHLETE</text><text fill="#FFFFFF" style="font-size:9px; font-family:Arial" x="10" y="290">Jiakai</text><text fill="#FFFFFF" style="font-size:4px; font-family:Arial" x="120" y="280">STATISTICS</text><text fill="#FFFFFF" style="font-size:3px; font-family:Arial" x="120" y="285">Number: 28</text><text fill="#FFFFFF" style="font-size:3px; font-family:Arial" x="120" y="290">Weekly: 5.6</text><text fill="#FFFFFF" style="font-size:3px; font-family:Arial" x="141" y="285">Total: 28.4 km</text><text fill="#FFFFFF" style="font-size:3px; font-family:Arial" x="141" y="290">Avg: 1.0 km</text><text fill="#FFFFFF" style="font-size:3px; font-family:Arial" x="167" y="285">Min: 1.0 km</text><text fill="#FFFFFF" style="font-size:3px; font-family:Arial" x="167" y="290">Max: 1.0 km</text><polyline fill="none" points="21.257617726922035,34.151622843928635 21.980015827342868,41.72906364640221 23.906410763040185,47.216165866935626 26.31440443173051,50.61293918592855 27.759200633503497,55.31615842296742 31.85278987046331,62.63226486439817 32.815987336449325,63.677421698346734 34.01998417265713,64.19999999995343 34.74238227214664,63.677421698346734 34.74238227214664,62.89355410146527 29.926394934765995,58.974213525885716 26.796003165654838,53.22583953035064 25.592006331309676,48.261327233863994 22.702413928695023,41.72906364640221 21.257617726922035,36.24195295525715 21.49841709434986,32.8451659004204 21.257617726922035,31.799999999813735" stroke="#4dd2ff" stroke-linecap="round" stroke-linejoin="round" stroke-width="0.5"><title>2023-10-14 1.0km</title><desc>10033377496</desc></polyline><polyline fill="none" points="56.65371090359986,32.31428805901669 60.91929812077433,37.45716448454186 61.39325225632638,41.31431684130803 65.42186240572482,53.65717579820193 69.21349548734725,62.65714966272935 70.39838082436472,64.19999999995343 71.34628909640014,64.19999999995343 71.34628909640014,63.428574916673824 71.1093120276928,62.65714966272935 68.9765184186399,61.11429864470847 66.60674774367362,56.742883731843904 64.0,48.51432319311425 59.2604586482048,37.971451710909605 58.54952744487673,34.37143953633495 57.36464210692793,31.800000000046566" stroke="#4dd2ff" stroke-linecap="round" stroke-linejoin="round" stroke-width="0.5"><title>2023-10-13 1.0km</title><desc>10028006924</desc></polyline><polyline fill="none" points="93.0480709662661,31.799999999813735 95.32739196065813,34.76795191434212 96.69498455803841,37.24124317523092 96.92291665822268,40.45651909708977 96.69498455803841,43.91912049916573 99.20223765168339,49.113015920389444 102.16535494476557,57.027507808292285 105.12847223784775,62.46871018107049 105.81226853653789,63.45801875856705 106.9519290337339,64.19999999995343 106.9519290337339,62.96336450614035 104.4446759391576,59.74811009480618 102.16535494476557,55.790869678603485 99.20223765168339,47.629046618472785 97.37878085672855,44.41377755184658 96.46705245878547,41.69316286453977" stroke="#4dd2ff" stroke-linecap="round" stroke-linejoin="round" stroke-width="0.5"><title>2023-10-12 1.0km</title><desc>10021974100</desc></polyline><polyline fill="none" points="132.21190333273262,36.3940492705442 133.1032201955095,41.22988367616199 132.88039098028094,43.16421544761397 134.88585392106324,49.69257677602582 136.44565843138844,52.594066539779305 138.00546294264495,57.91345779271796 140.23375509865582,63.23284044209868 140.67941353004426,63.71642025606707 141.79355960991234,64.19999999995343 141.57073039282113,63.23284044209868 139.1196090206504,56.94629638665356 136.44565843138844,52.352275823708624 132.88039098028094,44.13138090632856 131.98907411657274,40.98809212492779 131.54341568611562,36.3940492705442 130.206440391019,31.800000000046566" stroke="#4dd2ff" stroke-linecap="round" stroke-linejoin="round" stroke-width="0.5"><title>2023-10-10 1.0km</title><desc>10009069592</desc></polyline><polyline fill="none" points="166.51119292061776,35.85001771640964 168.0480589028448,40.138266251189634 169.58492488600314,45.85592213761993 172.8782091345638,53.00297780823894 175.51283653266728,62.05589236272499 177.0497025148943,64.19999999995343 177.4888070812449,63.485297611914575 177.70835936442018,60.864720839774236 176.17149338219315,56.338265059748664 172.8782091345638,50.6206276693847 169.14582031965256,40.138266251189634 168.0480589028448,35.37354530626908 166.29164063651115,31.800000000046566" stroke="#4dd2ff" stroke-linecap="round" stroke-linejoin="round" stroke-width="0.5"><title>2023-10-09 1.0km</title><desc>10003389142</desc></polyline><polyline fill="none" points="21.40321855712682,72.5999999998603 23.023480666801333,74.60931126307696 24.643742775544524,78.37676669517532 25.569606836885214,85.91166509594768 29.04159707110375,93.44654687773436 32.05065527185798,101.98605947382748 33.43945136573166,104.49767676368356 34.59678144287318,105.0 34.59678144287318,102.99070661189035 30.198927148245275,95.95817044540308 24.41227675974369,81.89305468322709 22.097616603598,72.85116397286765" stroke="#4dd2ff" stroke-linecap="round" stroke-linejoin="round" stroke-width="0.5"><title>2023-10-08 1.0km</title><desc>9996447828</desc></polyline><polyline fill="none" points="59.84105338156223,79.08002667874098 60.90744995139539,83.01432208251208 64.1066396581009,91.57718331716023 65.17303622700274,95.28003501519561 68.58550524711609,103.84286288474686 69.65190181694925,105.0 69.86518113035709,104.0742903421633 69.86518113035709,103.1485804123804 65.8128741690889,95.97431922354735 63.893360344693065,91.80861167539842 60.48089132364839,81.62574779521674 59.414494753815234,76.30287402076647 58.134818870574236,72.5999999998603" stroke="#4dd2ff" stroke-linecap="round" stroke-linejoin="round" stroke-width="0.5"><title>2023-10-07 1.0km</title><desc>9989974159</desc></polyline><polyline fill="none" points="97.35291680507362,82.25109895179048 99.04705004952848,87.76599925826304 100.31764998380095,90.52344576292671 102.85884985141456,101.32342114928178 103.49414981901646,103.39149728463963 104.7647497523576,105.0 105.82358303014189,105.0 106.2471163412556,104.08085569227114 106.03534968663007,103.39149728463963 103.49414981901646,99.71491654124111 100.95294995047152,94.20003731758334 100.10588332824409,90.52344576292671 95.65878356061876,79.72343305964023 95.02348359394819,75.817036294844 93.75288365967572,72.5999999998603" stroke="#4dd2ff" stroke-linecap="round" stroke-linejoin="round" stroke-width="0.5"><title>2023-10-06 1.0km</title><desc>9984428862</desc></polyline><polyline fill="none" points="129.0247108573094,72.5999999998603 132.69591567013413,82.42626021034084 135.1433855444193,90.65905223996378 139.3040843307972,101.01640911051072 141.01731324288994,104.46885480266064 141.75155420601368,105.0 142.730542155914,105.0 142.9752891426906,104.46885480266064 142.24104818049818,103.14099146495573 139.3040843307972,98.89182550739497 137.59085541870445,95.43937448575161 134.65389156900346,87.73774108709767 133.43015663232654,83.7541311616078 130.00369880814105,77.3803461433854 130.00369880814105,74.99017386231571" stroke="#4dd2ff" stroke-linecap="round" stroke-linejoin="round" stroke-width="0.5"><title>2023-10-04 1.0km</title><desc>9971682885</desc></polyline><polyline fill="none" points="167.09613310638815,76.38395843608305 168.18588130455464,80.16791242151521 169.27562950272113,82.76937820436433 170.14742806181312,86.7898211851716 174.28847121540457,95.06718797096983 174.50642085634172,97.90513739455491 175.81411869451404,103.58102873084135 176.25001797359437,104.29051444353536 177.55771581176668,105.0 177.55771581176668,102.63504753704183 174.72437049634755,97.43214599788189 172.76282373908907,92.9387242605444 171.67307553999126,90.81025914149359 170.58332734089345,87.73580703884363 168.40383094456047,83.24237175751477 167.53203238546848,79.69491841667332 167.09613310638815,76.14746116450988 166.442284187302,72.5999999998603" stroke="#4dd2ff" stroke-linecap="round" stroke-linejoin="round" stroke-width="0.5"><title>2023-10-03 1.0km</title><desc>9965060084</desc></polyline><polyline fill="none" points="22.07752940338105,114.73884868388996 25.038764701224864,124.3785446814727 25.532303917221725,128.66284582437947 27.259691175073385,130.80499450559728 28.49353921599686,134.01821516547352 30.71446568891406,142.31902208388783 32.44185294676572,144.99669769895263 33.675700986757874,145.80000000004657 33.92247059568763,145.53223258606158 33.182161771692336,143.3900925659109 30.467696081846952,138.30250496929511 26.025843133218586,127.59177101077512 23.311377443373203,119.55869987164624 22.817838228307664,113.4000000001397" stroke="#4dd2ff" stroke-linecap="round" stroke-linejoin="round" stroke-width="0.5"><title>2023-10-02 1.0km</title><desc>9958643020</desc></polyline><polyline fill="none" points="58.86423167027533,119.10242159059271 59.3419775608927,121.43522776500322 64.59718236420304,133.8768346242141 67.22478476632386,141.9120157205034 68.65802244003862,144.76320461090654 70.09126011282206,145.80000000004657 70.33013305906206,145.5408011812251 70.09126011282206,144.50400571641512 65.31380120012909,137.24642892670818 60.77521523460746,126.10083548212424 58.62535872403532,119.36162235308439 57.66986694186926,113.39999999990687" stroke="#4dd2ff" stroke-linecap="round" stroke-linejoin="round" stroke-width="0.5"><title>2023-10-01 1.0km</title><desc>9952075403</desc></polyline><polyline fill="none" points="95.34803781285882,118.09567254199646 97.29537082184106,122.0869887736626 98.16085215751082,126.07830001739785 98.80996316019446,129.83482368965633 102.05551817454398,138.99133162829094 104.8683325201273,144.86087419115938 106.16655452456325,145.80000000004657 106.59929519426078,145.09565566899255 102.27188850939274,138.52176775760017 100.3245555004105,134.06090753874741 99.67544449772686,131.71308386838064 96.6462598182261,125.13916840869933 94.91529714409262,117.86088907835074 93.4007048048079,113.39999999990687" stroke="#4dd2ff" stroke-linecap="round" stroke-linejoin="round" stroke-width="0.5"><title>2023-09-30 1.0km</title><desc>9945549317</desc></polyline><polyline fill="none" points="130.98367109242827,113.4000000001397 133.13352633826435,117.0288148066029 133.85014475416392,119.88002382032573 135.7611271943897,124.5456335961353 136.71661841589957,131.54403668292798 137.43323683086783,133.61763492948376 140.29971049167216,140.6160200086888 141.01632890757173,145.02240348723717 141.494074517861,145.54080118145794 142.21069293282926,145.80000000004657 142.44956573843956,145.28160234354436 138.1498552467674,137.50562835554592 135.28338158503175,130.76643702597357 134.3278903644532,126.87843616842292 130.98367109242827,119.10242159152403 129.55043426156044,114.43680461170152" stroke="#4dd2ff" stroke-linecap="round" stroke-linejoin="round" stroke-width="0.5"><title>2023-09-28 1.0km</title><desc>9933629332</desc></polyline><polyline fill="none" points="165.66624555829912,117.08183401660062 167.47588968463242,123.46367002767511 170.86897242069244,128.12731170561165 173.13102757837623,136.47275950200856 176.297904798761,142.11819765344262 177.20272686239332,145.309093255084 178.10754892416298,145.80000000004657 178.55995995737612,145.06363985524513 178.10754892416298,144.08182607661 176.297904798761,141.62729036645032 171.0951779363677,131.0727662506979 168.3807117473334,123.70912501472048 165.44004004262388,113.4000000001397" stroke="#4dd2ff" stroke-linecap="round" stroke-linejoin="round" stroke-width="0.5"><title>2023-09-27 1.0km</title><desc>9927137811</desc></polyline><polyline fill="none" points="30.69157846015878,154.20000000001164 30.045599629636854,157.3154276809073 29.39962079934776,159.10679444798734 28.897192820208147,161.2875846840907 25.954400370130315,167.44050435977988 24.447116432711482,170.0107007298502 24.160014730179682,171.10108518437482 24.303565581096336,171.95781504007755 24.662442709319293,173.2039663202013 25.739074093289673,175.85203292348888 26.09795122151263,176.55299062206177 26.528603775193915,177.79913649661466 27.96411228692159,179.59046862315154 28.610091117443517,180.99237860896392 29.32784537388943,182.08275175991002 29.9020487787202,183.64042574283667 30.76335388608277,184.8086797268479 31.839985269820318,186.59999999997672" stroke="#4dd2ff" stroke-linecap="round" stroke-linejoin="round" stroke-width="0.5"><title>2023-09-26 1.0km</title><desc>9920397094</desc></polyline><polyline fill="none" points="63.8486890536733,154.19999999995343 62.43645355431363,158.9068005346926 61.024218055419624,161.42438540968578 59.71285651996732,163.06628629518673 59.006738770753145,164.37980569980573 58.70411687809974,165.69332394527737 58.8049908420071,167.33522012247704 59.30936066340655,168.6487357604783 60.51984823402017,170.509547597263 61.024218055419624,172.37035710806958 62.0329576972872,174.77846008108463 63.94956301758066,177.18655915919226 67.17752987286076,183.75408230198082 69.29588312190026,186.59999999997672" stroke="#4dd2ff" stroke-linecap="round" stroke-linejoin="round" stroke-width="0.5"><title>2023-09-25 1.0km</title><desc>9914573673</desc></polyline><polyline fill="none" points="102.3886880078353,154.20000000006985 101.5924586718902,155.4096160538029 101.43321280460805,156.01442361366935 101.5924586718902,156.79203287616838 101.67208160553128,157.56964162387885 100.07962293317541,160.50727002706844 99.68150826497003,162.49448507663328 99.12414772994816,163.96329404017888 95.77998451795429,169.83851153438445 95.70036158477888,170.52971166092902 96.01885331887752,171.91211069514975 96.8947055884637,173.29450810304843 97.37244319031015,174.50410450075287 98.08904959261417,175.71369965339545 98.48716426081955,176.92329356085975 99.52226239768788,178.56488330115099 100.31849173363298,180.2064707482932 101.19434400415048,181.1568624327192 101.43321280460805,182.02085420605727 101.99057333962992,182.71204716723878 103.18491734424606,184.78562361211516 104.06076961383224,185.73601159313694 104.29963841475546,186.59999999997672" stroke="#4dd2ff" stroke-linecap="round" stroke-linejoin="round" stroke-width="0.5"><title>2023-09-24 1.0km</title><desc>9907510217</desc></polyline><polyline fill="none" points="137.20787457050756,154.19999999995343 136.53146481141448,155.24855521530844 136.0483149830252,156.29710965952836 135.75842508627102,157.66022928454913 135.66179512022063,159.4427683664253 134.01908570434898,161.64472533285152 133.05278604850173,164.16124341636896 132.18311635777354,165.4195007927483 131.60333656379953,167.09717556799296 131.50670659774914,168.87970285385381 133.53593587642536,174.01756315294188 134.30897560156882,175.59037382982206 136.82135470816866,179.57481978123542 137.8842843300663,182.19615973101463 139.23710384918377,183.87381477002054 140.01014357432723,185.23690803640056 140.49329340271652,186.59999999997672" stroke="#4dd2ff" stroke-linecap="round" stroke-linejoin="round" stroke-width="0.5"><title>2023-09-23 1.0km</title><desc>9901004991</desc></polyline><polyline fill="none" points="173.24411149369553,154.19999999995343 172.59901664499193,155.40001376438886 171.953921796754,157.5000353041105 170.4794192854315,160.6000611743657 169.00491677457467,162.70007468445692 167.71472707763314,166.20008999563288 167.62257067020983,168.10009453527164 167.8068834845908,169.20009595074225 169.65001162327826,173.60009271476883 169.92648084368557,174.90008903469425 170.2951064715162,175.60008653835393 171.58529616845772,177.20007947995327 172.59901664499193,179.20006800955161 173.42842430714518,181.3000528010307 174.81077041151002,183.300035302178 176.3774293293245,186.59999999997672" stroke="#4dd2ff" stroke-linecap="round" stroke-linejoin="round" stroke-width="0.5"><title>2023-09-22 1.0km</title><desc>9895405405</desc></polyline><polyline fill="none" points="29.71753262076527,195.0 29.453296832740307,195.95576377247926 28.924825257621706,196.5292216987582 27.77980351028964,198.6318985967664 27.339410530868918,200.16111602261662 26.018231592141092,203.50627286941744 24.608974057715386,206.37354331486858 23.728188098408282,208.47620428854134 23.46395231038332,209.52753349975683 23.46395231038332,210.19656073697843 23.728188098408282,211.15231333568227 24.256659673992544,212.10806523181964 25.40168142085895,215.0708916435251 26.546703167725354,217.17353854852263 27.163253339007497,218.70273416140117 28.308275085873902,220.6142261478817 29.012903852853924,221.47439662506804 29.541375428438187,223.0035871785367 30.950632963329554,225.48851799138356 32.53604768961668,227.40000000002328" stroke="#4dd2ff" stroke-linecap="round" stroke-linejoin="round" stroke-width="0.5"><title>2023-09-21 1.0km</title><desc>9889267953</desc></polyline><polyline fill="none" points="67.29872286203317,195.0000000000582 66.14246948761865,198.4688427025103 65.46232044417411,201.19962533231592 64.37408197368495,203.48757262638537 63.08179879072122,207.32540798879927 60.837306946283206,211.53224912419682 60.22517280699685,213.82017286599148 60.29318771115504,214.33680008596275 60.701277137501165,215.44385751907248 61.58547089458443,217.36275417759316 62.129590129479766,218.98643310042098 63.489888217067346,220.90532298677135 64.30606706975959,222.455192909576 64.78217140003107,223.56224138929974 65.32629063492641,224.52168241748586 66.2104843922425,225.185910284461 67.29872286203317,226.8095765534672 67.36673776665702,227.10478832013905 67.77482719300315,227.40000000002328" stroke="#4dd2ff" stroke-linecap="round" stroke-linejoin="round" stroke-width="0.5"><title>2023-09-20 1.0km</title><desc>9882714971</desc></polyline><polyline fill="none" points="102.68650544853881,195.0000000000582 101.9956897618249,196.74912392144324 100.6908156867139,200.5805287869298 100.61405838793144,201.82989713683492 100.15351459709927,202.49622636003187 99.61621350748464,203.7455925969407 99.3091843132861,204.91166650824016 98.695125924889,206.4941934676608 96.92970805894583,209.32607829838526 96.46916426764801,210.99188959761523 96.31564967054874,212.49111767252907 96.46916426764801,213.99034376308555 96.92970805894583,215.6561482033576 97.4670091480948,216.82220985426102 99.15566971618682,219.7373587299371 100.0,220.9034161796444 100.76757298503071,222.9856586405076 101.53514597052708,224.3182918067905 102.3027189555578,225.4010551001993 103.14704923937097,226.23394923715387 103.68435032945126,227.40000000002328" stroke="#4dd2ff" stroke-linecap="round" stroke-linejoin="round" stroke-width="0.5"><title>2023-09-19 1.0km</title><desc>9876194288</desc></polyline><polyline fill="none" points="135.76151191955432,195.0 135.18914052657783,195.93163980485406 134.23518820479512,197.7949175654212 133.94900250807405,199.03710136876907 132.23188832821324,202.03904103545938 130.89635507715866,204.83394462626893 130.61016938043758,205.86909269634634 130.70556461298838,207.00775469397195 131.27793600643054,208.45695954142138 132.1364930961281,210.00967736518942 132.89965495374054,212.18347944144625 133.94900250807405,214.46079230250325 135.0937452944927,216.53107352519874 136.1430928488262,217.87675468751695 137.38323086732998,219.94703088712413 138.14639272447675,222.32784475327935 139.481925975997,224.39811440801714 140.14969260105863,226.26135449449066 141.38983062002808,227.40000000002328" stroke="#4dd2ff" stroke-linecap="round" stroke-linejoin="round" stroke-width="0.5"><title>2023-09-18 1.0km</title><desc>9870505463</desc></polyline><polyline fill="none" points="172.32556192250922,195.0 171.8604734619148,195.90842163469642 171.20934961782768,198.9364894083701 170.3721903897822,200.349585417076 170.0001196213998,201.4598741173977 167.9537303969264,204.7907348308945 167.20958886109293,206.60756454092916 166.7445004004985,208.22252226434648 167.1165711688809,209.33280459721573 169.16296039288864,213.77392494876403 170.18615500582382,215.3888742418494 170.9302965416573,217.10475578403566 172.1395265380852,218.71970115881413 172.79065038263798,219.8299750017468 173.62780961068347,222.45425506157335 177.25549959996715,227.40000000002328" stroke="#4dd2ff" stroke-linecap="round" stroke-linejoin="round" stroke-width="0.5"><title>2023-09-16 1.0km</title><desc>9856514700</desc></polyline><polyline fill="none" points="27.55211930256337,235.79999999993015 26.55682886345312,238.82403023878578 25.26295129302889,240.87604721228126 22.575667107477784,246.06007732299622 22.476138063706458,247.24808164674323 22.575667107477784,248.65208551753312 23.172841371037066,250.0560880464036 24.168131810147315,251.56808926910162 25.063893205020577,253.6200884389691 26.656357907224447,256.3200829792768 28.646938785910606,260.1000669983914 28.84599687345326,261.5040585852694 29.542700180318207,262.0440549921477 30.338932531885803,263.1240472102072 31.63281010231003,265.28402926470153 33.02621671697125,266.47201804071665 33.32480384875089,267.2280103979865 33.52386193629354,268.19999999995343" stroke="#4dd2ff" stroke-linecap="round" stroke-linejoin="round" stroke-width="0.5"><title>2023-09-15 1.0km</title><desc>9850671982</desc></polyline><polyline fill="none" points="64.82368760975078,235.79999999993015 63.17631239024922,240.15728158608545 61.32301526842639,242.83867942832876 60.49932765867561,244.2911012840923 59.263796244282275,247.41938979644328 58.95491339080036,248.53663413296454 58.95491339080036,249.43042901018634 59.263796244282275,250.5476718681166 60.49932765867561,253.8993955127662 61.63189812190831,256.13387383532245 64.41184380510822,260.9379911024589 65.54441426787525,263.0607357544359 65.75033617019653,264.2896918291226 66.57402377994731,265.07175426813774 67.91251614550129,267.1944931454491 69.04508660873398,268.19999999995343" stroke="#4dd2ff" stroke-linecap="round" stroke-linejoin="round" stroke-width="0.5"><title>2023-09-14 1.0km</title><desc>9844236351</desc></polyline><polyline fill="none" points="94.85064415354282,235.79999999998836 95.44337576208636,236.2823891742737 95.66565011488274,236.76477813575184 95.81383301736787,237.80995348858414 96.25838172296062,238.69433185324306 96.55474752746522,241.18666703207418 96.55474752746522,242.39263362740166 96.40656462544575,243.03581526770722 96.55474752746522,243.83979178627487 96.92520478228107,244.8045628281543 96.77702188072726,245.60853804612998 96.85111333150417,246.01052543340484 97.59202784160152,247.37728144496214 98.25885090092197,249.38721365272067 98.85158250899985,250.51277407538146 99.59249701956287,251.55793628748506 100.40750298090279,252.28150954138255 100.62977733369917,252.76389144471614 100.8520516869612,253.80905150528997 101.44478329550475,254.85421056690393 102.11160635435954,256.7837323639542 103.00070376647636,258.47206114354776 103.44525247300044,259.9191980228643 103.66752682579681,261.12514395912876 104.11207553232089,262.0898997509503 104.92708149319515,264.7429737892817 106.03845325903967,266.8332700136234 106.11254471028224,267.1548536934424 106.03845325903967,267.39604139130097 105.14935584645718,268.20000000001164 105.5939045525156,267.87841662741266 105.81617890577763,267.39604139130097 105.9643618077971,266.99406186537817 105.8902703570202,266.4312902807724 105.44572165096179,265.86851840640884 104.11207553232089,262.9742584787309 103.44525247300044,260.8035585061298 102.03751490358263,257.6680953829782 101.37069184426218,254.61302010295913 101.00023458898067,253.7286546131363 99.59249701956287,251.8795244594803 98.1847594496794,249.22641921206377 97.51793639035895,247.05569194891723 97.29566203802824,245.60853804612998 96.7029304294847,244.08098462660564 95.51746721332893,241.50825825420907 95.22110140882432,240.3022906834376 94.18382109422237,238.37273980339523 93.96154674142599,237.32756498840172 93.88745529018342,236.04119461379014" stroke="#4dd2ff" stroke-linecap="round" stroke-linejoin="round" stroke-width="0.5"><title>2023-09-13 1.0km</title><desc>9837636972</desc></polyline></svg>