<?xml version="1.0" encoding="utf-8" ?>
<svg baseProfile="full" height="200mm" version="1.1" viewBox="0,0,200,200" width="200mm" xmlns="http://www.w3.org/2000/svg" xmlns:ev="http://www.w3.org/2001/xml-events" xmlns:xlink="http://www.w3.org/1999/xlink"><defs /><rect fill="#1a1a1a" height="200" width="200" x="0" y="0" /><text alignment-baseline="middle" fill="#e1ed5e" style="dominant-baseline: central; font-size:9.0px; font-family:Arial;" text-anchor="middle" x="100.0" y="100.0">2023</text><line stroke="#e1ed5e" stroke-width="0.3" x1="100.0" x2="100.0" y1="15.0" y2="10.0" /><path d="M 100.0 14.0 a86.0,86.0 0 0,1 42.46469731375804,11.215312516191453" fill="none" id="id1" stroke="none" /><text fill="#e1ed5e" style="font-size:6.75px; font-family:Arial;" text-anchor="middle"><textPath startOffset="22.20632615414155" xlink:href="#id1">January</textPath></text><line stroke="#e1ed5e" stroke-width="0.3" x1="143.23703022742887" x2="145.7803849466894" y1="26.81831364943548" y2="22.513508569990506" /><path d="M 143.74570117128098 25.957352633546492 a86.0,86.0 0 0,1 28.547481713284135,27.462654790039103" fill="none" id="id2" stroke="none" /><text fill="#e1ed5e" style="font-size:6.75px; font-family:Arial;" text-anchor="middle"><textPath startOffset="19.985693538727396" xlink:href="#id2">February</textPath></text><line stroke="#e1ed5e" stroke-width="0.3" x1="172.23445277983987" x2="176.4835382374775" y1="55.19839476539836" y2="52.563006222186495" /><path d="M 173.08426987136738 54.67131705675599 a86.0,86.0 0 0,1 12.851231095245387,41.99856678651699" fill="none" id="id3" stroke="none" /><text fill="#e1ed5e" style="font-size:6.75px; font-family:Arial;" text-anchor="middle"><textPath startOffset="22.20632615414155" xlink:href="#id3">March</textPath></text><line stroke="#e1ed5e" stroke-width="0.3" x1="184.98032266829074" x2="189.97916517819016" y1="98.17113171792111" y2="98.06355123074" /><path d="M 185.9800911702706 98.14961562048488 a86.0,86.0 0 0,1 -9.607161424134198,41.387399972396054" fill="none" id="id4" stroke="none" /><text fill="#e1ed5e" style="font-size:6.75px; font-family:Arial;" text-anchor="middle"><textPath startOffset="21.466115282336823" xlink:href="#id4">April</textPath></text><line stroke="#e1ed5e" stroke-width="0.3" x1="174.80103733775053" x2="179.2010983576182" y1="140.37084112569926" y2="142.7455964860345" /><path d="M 175.68104954172406 140.8457921977663 a86.0,86.0 0 0,1 -30.038265399797805,32.042727171017184" fill="none" id="id5" stroke="none" /><text fill="#e1ed5e" style="font-size:6.75px; font-family:Arial;" text-anchor="middle"><textPath startOffset="22.206326154141568" xlink:href="#id5">May</textPath></text><line stroke="#e1ed5e" stroke-width="0.3" x1="143.8653032363475" x2="146.44561519142675" y1="172.8068346515853" y2="177.08958963109032" /><path d="M 144.38136562736335 173.6633856474863 a86.0,86.0 0 0,1 -40.68145358897372,12.25698825130547" fill="none" id="id6" stroke="none" /><text fill="#e1ed5e" style="font-size:6.75px; font-family:Arial;" text-anchor="middle"><textPath startOffset="21.466115282336833" xlink:href="#id6">June</textPath></text><line stroke="#e1ed5e" stroke-width="0.3" x1="102.19456741930631" x2="102.32365962044197" y1="184.97166512339345" y2="189.96999836594603" /><path d="M 102.22038585953345 185.97133177190398 a86.0,86.0 0 0,1 -42.740103519485714,-10.115201625700543" fill="none" id="id7" stroke="none" /><text fill="#e1ed5e" style="font-size:6.75px; font-family:Arial;" text-anchor="middle"><textPath startOffset="22.20632615414155" xlink:href="#id7">July</textPath></text><line stroke="#e1ed5e" stroke-width="0.3" x1="58.666819895761336" x2="56.23545636021788" y1="174.27360380694188" y2="178.64263932499728" /><path d="M 58.180547188652646 175.14741091055294 a86.0,86.0 0 0,1 -31.652253787137756,-30.449443065178592" fill="none" id="id8" stroke="none" /><text fill="#e1ed5e" style="font-size:6.75px; font-family:Arial;" text-anchor="middle"><textPath startOffset="22.20632615414155" xlink:href="#id8">August</textPath></text><line stroke="#e1ed5e" stroke-width="0.3" x1="26.63291911575756" x2="22.317208475507996" y1="142.92168965132927" y2="145.44649492493687" /><path d="M 25.769776987707644 143.4266507060508 a86.0,86.0 0 0,1 -11.730757126820373,-40.83630448921669" fill="none" id="id9" stroke="none" /><text fill="#e1ed5e" style="font-size:6.75px; font-family:Arial;" text-anchor="middle"><textPath startOffset="21.46611528233685" xlink:href="#id9">September</textPath></text><path d="M 80.0844068197444 106.66101706037122 l -58.40126030817648 19.533025591505464 a82.58121705797797,82.58121705797797 0 0,0 -0.4392838983754873,-1.3519768221764101 l 58.728836457568214 -18.52484986935125" fill="#e4ff1a" stroke="none" /><path d="M 79.97269907076064 106.31721596034903 l -58.27397586147528 18.38137309095137 a82.1042644944897,82.1042644944897 0 0,0 -0.41354443079011916,-1.351487127342746 l 58.58174706477153 -17.375558991056575" fill="#ff6c09" stroke="none" /><path d="M 79.86692584326677 105.97154293290107 l -58.32706898248224 17.300020546672968 a81.8386200287494,81.8386200287494 0 0,0 -0.38895699361664515,-1.3540103211432775 l 58.61621861298499 -16.293452750025097" fill="#ff0000" stroke="none" /><path d="M 79.76711848015287 105.62410040840567 l -58.70347109677925 16.3177061777566 a81.92918064206997,81.92918064206997 0 0,0 -0.36599685903689533,-1.3620104666497974 l 58.97565603215792 -15.304804777931267" fill="#ff2603" stroke="none" /><path d="M 79.58551787078972 104.9243191809786 l -59.69988851509164 14.40062521578755 a82.4121705797796,82.4121705797796 0 0,0 -0.320777342077416,-1.3819003941464818 l 59.93892642309961 -13.370856164292492" fill="#ffdf14" stroke="none" /><path d="M 79.50377843672027 104.57218783832718 l -59.99195929154317 13.3826864538598 a82.46650694777193,82.46650694777193 0 0,0 -0.2971384533924166,-1.3881319317646805 l 60.21343178366003 -12.348040702678954" fill="#fff216" stroke="none" /><path d="M 79.4281124754447 104.21870165774334 l -61.715662573665874 12.656104973230022 a84.0,84.0 0 0,0 -0.2782802680973342,-1.4189450917281805 l 61.92437277473888 -11.591896154433886" fill="#4dd2ff" stroke="none" /><path d="M 79.35854240842038 103.8639653848113 l -59.98979246572451 11.229753543380179 a82.03181600383326,82.03181600383326 0 0,0 -0.2478671698485855,-1.3901707218603492 l 60.17420607791229 -10.195464070786617" fill="#ff4f07" stroke="none" /><path d="M 79.29508885075956 103.50808413554451 l -60.47778551306646 10.246900282836286 a82.33972208912314,82.33972208912314 0 0,0 -0.22474135316797209,-1.399464620709359 l 60.64520862059572 -9.204356432433713" fill="#ffc512" stroke="none" /><path d="M 79.23777060512086 103.15116336523772 l -60.40047894013859 9.16721286809023 a82.09218974604696,82.09218974604696 0 0,0 -0.2000154663086625,-1.398907705507954 l 60.54932845746385 -8.126159690601876" fill="#ff6709" stroke="none" /><path d="M 79.18660465613746 102.79330883721812 l -60.39375156845366 8.105280142034264 a81.93521801629132,81.93521801629132 0 0,0 -0.17556957858397942,-1.3994622857635308 l 60.52432265628448 -7.064500101983325" fill="#ff2803" stroke="none" /><path d="M 79.1416061653843 102.43462659150553 l -60.776182514757096 7.093897605627763 a82.18878773358888,82.18878773358888 0 0,0 -0.15192283724935707,-1.4066167910134642 l 60.8892876535075 -6.046684492729517" fill="#ff8c0c" stroke="none" /><path d="M 79.10278846688536 102.07522291339032 l -61.309835274202676 6.088447483799183 a82.61140392908482,82.61140392908482 0 0,0 -0.12834430501447602,-1.4162687110763161 l 61.40555417549423 -5.032197384174301" fill="#daff1c" stroke="none" /><path d="M 79.07016306316243 101.71520430193888 l -61.52589823071322 5.042059603447547 a82.73215141351221,82.73215141351221 0 0,0 -0.10409848330706027,-1.4203410980946976 l 61.60357327268461 -3.982245368856089" fill="#b2ff20" stroke="none" /><line stroke="#e1ed5e" stroke-width="0.3" x1="15.007084014347285" x2="10.007500721073583" y1="101.09737516637583" y2="101.16192664675087" /><path d="M 14.007167355692545 101.11028546245083 a86.0,86.0 0 0,1 10.666146001902534,-42.60595125391555" fill="none" id="id10" stroke="none" /><text fill="#e1ed5e" style="font-size:6.75px; font-family:Arial;" text-anchor="middle"><textPath startOffset="22.20632615414155" xlink:href="#id10">October</textPath></text><line stroke="#e1ed5e" stroke-width="0.3" x1="26.266209847984243" x2="21.928928074336255" y1="57.711370442889674" y2="55.22380399835377" /><path d="M 25.398753493254645 57.213857153982495 a86.0,86.0 0 0,1 29.58750427330803,-30.492523968695096" fill="none" id="id11" stroke="none" /><text fill="#e1ed5e" style="font-size:6.75px; font-family:Arial;" text-anchor="middle"><textPath startOffset="21.46611528233685" xlink:href="#id11">November</textPath></text><line stroke="#e1ed5e" stroke-width="0.3" x1="56.762969772571076" x2="54.21961505331055" y1="26.818313649435495" y2="22.513508569990535" /><path d="M 56.25429882871897 25.957352633546506 a86.0,86.0 0 0,1 42.265352541879196,-11.944610805530505" fill="none" id="id12" stroke="none" /><text fill="#e1ed5e" style="font-size:6.75px; font-family:Arial;" text-anchor="middle"><textPath startOffset="22.20632615414155" xlink:href="#id12">December</textPath></text></svg>