<svg xmlns="http://www.w3.org/2000/svg" xmlns:ev="http://www.w3.org/2001/xml-events" xmlns:xlink="http://www.w3.org/1999/xlink" width="200mm" height="200mm" baseProfile="full" version="1.1" viewBox="0 0 200 200"><rect width="200" height="200" x="0" y="0" fill="#1a1a1a"/><text fill="#e1ed5e" alignment-baseline="middle" style="dominant-baseline:central;font-size:9px;font-family:Arial" x="100" y="100" text-anchor="middle">2024</text><line x1="100" x2="100" y1="15" y2="10" stroke="#e1ed5e" stroke-width=".3"/><path id="id13" fill="none" stroke="none" d="M 100.0 14.0 a86.0,86.0 0 0,1 42.35913384403234,11.155469271406648"/><text fill="#e1ed5e" style="font-size:6.75px;font-family:Arial" text-anchor="middle"><textPath startOffset="22.146" xlink:href="#id13">January</textPath></text><path fill="red" stroke="none" d="M 100.0 79.0 l 0.0 -61.24171897633994 a82.24171897633994,82.24171897633994 0 0,0 1.4117884675418262,0.012118506033695698 l -1.0512955426929713 61.23269486850068"/><path fill="#37ff7c" stroke="none" d="M 100.72087961077811 79.0123766808444 l 2.14572200515722 -62.470354992082505 a83.50719459198456,83.50719459198456 0 0,0 1.4322447760250474,0.06150675325249253 l -3.217792541783104 62.42431567040418"/><path fill="#4dd2ff" stroke="none" d="M 101.08105385017728 79.02784411241856 l 3.2431615505318314 -62.916467662744324 a84.0,84.0 0 0,0 1.4394225914701506,0.08659208870123303 l -4.322728494134444 62.8515235962184"/><path fill="#9eff22" stroke="none" d="M 101.44090949804482 79.04949213459386 l 4.255518519479143 -61.87430531529216 a83.020473201352,83.020473201352 0 0,0 1.4209586731903685,0.10999118807566284 l -5.317046187444745 61.79213636022145"/><path fill="#ffb110" stroke="none" d="M 101.80034050326958 79.07731436759882 l 5.281578349427654 -61.37994631975696 a82.60676001931435,82.60676001931435 0 0,0 1.4117905827753037,0.13369803602195582 l -6.33446849558797 61.28023652822982"/><path fill="#72ff27" stroke="none" d="M 102.15924093988457 79.11130261209362 l 6.38889262743827 -61.80674063428906 a83.13606953162723,83.13606953162723 0 0,0 1.4183175712000908,0.15892544218032223 l -7.448946100239158 61.68795943160177"/><path fill="#7dff26" stroke="none" d="M 102.87502721639298 79.19773525538626 l 8.502639640252884 -61.520864851670794 a83.1056494447127,83.1056494447127 0 0,0 1.4115094637665668,0.2074432831757699 l -9.557474209627133 61.365840495196146"/><path fill="#ffc212" stroke="none" d="M 105.3480935250658 79.69241777938227 l 15.698759129686158 -59.61074545416673 a82.64326412361179,82.64326412361179 0 0,0 1.3688030642694673,0.3730733619635024 l -16.719743594890318 59.33247159805909"/><path fill="#ffdd14" stroke="none" d="M 105.69591212413111 79.78721728523813 l 16.736245513164 -59.39103108443697 a82.70410429744086,82.70410429744086 0 0,0 1.3631998875003177,0.39680761976331225 l -17.753305413045922 59.09497977037114"/><line x1="143.13" x2="145.667" y1="26.755" y2="22.447" stroke="#e1ed5e" stroke-width=".3"/><path id="id14" fill="none" stroke="none" d="M 143.63769802327073 25.89364864446614 a86.0,86.0 0 0,1 29.32050498858742,28.57503671076993"/><text fill="#e1ed5e" style="font-size:6.75px;font-family:Arial" text-anchor="middle"><textPath startOffset="20.669" xlink:href="#id14">February</textPath></text><line x1="172.872" x2="177.158" y1="56.243" y2="53.669" stroke="#e1ed5e" stroke-width=".3"/><path id="id15" fill="none" stroke="none" d="M 173.72905801456457 55.72781907015455 a86.0,86.0 0 0,1 12.242430191666344,42.057860355516425"/><text fill="#e1ed5e" style="font-size:6.75px;font-family:Arial" text-anchor="middle"><textPath startOffset="22.146" xlink:href="#id15">March</textPath></text><line x1="184.997" x2="189.997" y1="99.27" y2="99.227" stroke="#e1ed5e" stroke-width=".3"/><path id="id16" fill="none" stroke="none" d="M 185.99683186730306 99.26182062694052 a86.0,86.0 0 0,1 -10.086455211305974,41.156179273409016"/><text fill="#e1ed5e" style="font-size:6.75px;font-family:Arial" text-anchor="middle"><textPath startOffset="21.407" xlink:href="#id16">April</textPath></text><line x1="174.331" x2="178.703" y1="141.23" y2="143.655" stroke="#e1ed5e" stroke-width=".3"/><path id="id17" fill="none" stroke="none" d="M 175.20536237346943 141.71514677278685 a86.0,86.0 0 0,1 -30.301960400862466,31.631185727798858"/><text fill="#e1ed5e" style="font-size:6.75px;font-family:Arial" text-anchor="middle"><textPath startOffset="22.146" xlink:href="#id17">May</textPath></text><line x1="143.13" x2="145.667" y1="173.245" y2="177.553" stroke="#e1ed5e" stroke-width=".3"/><path id="id18" fill="none" stroke="none" d="M 143.63769802327073 174.10635135553383 a86.0,86.0 0 0,1 -40.68552437913181,11.842963189579606"/><text fill="#e1ed5e" style="font-size:6.75px;font-family:Arial" text-anchor="middle"><textPath startOffset="21.407" xlink:href="#id18">June</textPath></text><line x1="101.459" x2="101.545" y1="184.987" y2="189.987" stroke="#e1ed5e" stroke-width=".3"/><path id="id19" fill="none" stroke="none" d="M 101.47630435890484 185.9873277026323 a86.0,86.0 0 0,1 -42.54439059252881,-10.42667462771756"/><text fill="#e1ed5e" style="font-size:6.75px;font-family:Arial" text-anchor="middle"><textPath startOffset="22.146" xlink:href="#id19">July</textPath></text><line x1="58.133" x2="55.671" y1="173.974" y2="178.326" stroke="#e1ed5e" stroke-width=".3"/><path id="id20" fill="none" stroke="none" d="M 57.64086615596768 174.84453072859336 a86.0,86.0 0 0,1 -31.369924170532247,-30.572349798747897"/><text fill="#e1ed5e" style="font-size:6.75px;font-family:Arial" text-anchor="middle"><textPath startOffset="22.146" xlink:href="#id20">August</textPath></text><line x1="26.388" x2="22.058" y1="142.5" y2="145" stroke="#e1ed5e" stroke-width=".3"/><path id="id21" fill="none" stroke="none" d="M 25.521815274538298 143.00000000000003 a86.0,86.0 0 0,1 -11.493303480769221,-40.785679425670985"/><text fill="#e1ed5e" style="font-size:6.75px;font-family:Arial" text-anchor="middle"><textPath startOffset="21.407" xlink:href="#id21">September</textPath></text><line x1="15.003" x2="10.003" y1="100.73" y2="100.773" stroke="#e1ed5e" stroke-width=".3"/><path id="id22" fill="none" stroke="none" d="M 14.003168132696942 100.73817937305945 a86.0,86.0 0 0,1 10.791469493833604,-42.45332614584628"/><text fill="#e1ed5e" style="font-size:6.75px;font-family:Arial" text-anchor="middle"><textPath startOffset="22.146" xlink:href="#id22">October</textPath></text><line x1="26.388" x2="22.058" y1="57.5" y2="55" stroke="#e1ed5e" stroke-width=".3"/><path id="id23" fill="none" stroke="none" d="M 25.521815274538284 56.99999999999999 a86.0,86.0 0 0,1 29.574782752854787,-30.34633250058573"/><text fill="#e1ed5e" style="font-size:6.75px;font-family:Arial" text-anchor="middle"><textPath startOffset="21.407" xlink:href="#id23">November</textPath></text><line x1="56.87" x2="54.333" y1="26.755" y2="22.447" stroke="#e1ed5e" stroke-width=".3"/><path id="id24" fill="none" stroke="none" d="M 56.362301976729285 25.89364864446614 a86.0,86.0 0 0,1 42.16139366436587,-11.88097634709845"/><text fill="#e1ed5e" style="font-size:6.75px;font-family:Arial" text-anchor="middle"><textPath startOffset="22.146" xlink:href="#id24">December</textPath></text></svg>