<?xml version="1.0" encoding="utf-8" ?>
<svg baseProfile="full" height="300mm" version="1.1" viewBox="0,0,200,300" width="200mm" xmlns="http://www.w3.org/2000/svg" xmlns:ev="http://www.w3.org/2001/xml-events" xmlns:xlink="http://www.w3.org/1999/xlink"><defs /><rect fill="#222222" height="300" width="200" x="0" y="0" /><text fill="#FFFFFF" style="font-size:12px; font-family:Arial; font-weight:bold;" x="10" y="20">Over 1km Runs</text><text fill="#FFFFFF" style="font-size:4px; font-family:Arial" x="10" y="280">ATHLETE</text><text fill="#FFFFFF" style="font-size:9px; font-family:Arial" x="10" y="290">Jiakai</text><text fill="#FFFFFF" style="font-size:4px; font-family:Arial" x="120" y="280">STATISTICS</text><text fill="#FFFFFF" style="font-size:3px; font-family:Arial" x="120" y="285">Number: 95</text><text fill="#FFFFFF" style="font-size:3px; font-family:Arial" x="120" y="290">Weekly: 5.9</text><text fill="#FFFFFF" style="font-size:3px; font-family:Arial" x="141" y="285">Total: 98.4 km</text><text fill="#FFFFFF" style="font-size:3px; font-family:Arial" x="141" y="290">Avg: 1.0 km</text><text fill="#FFFFFF" style="font-size:3px; font-family:Arial" x="167" y="285">Min: 1.0 km</text><text fill="#FFFFFF" style="font-size:3px; font-family:Arial" x="167" y="290">Max: 1.5 km</text><polyline fill="none" points="18.586914262268692,36.333351957728155 18.83266830444336,37.66668749670498 19.938561489339918,40.4666889377404 20.921577654313296,43.80001835001167 22.88760998379439,48.60000194073655 23.37911806628108,49.0 23.37911806628108,48.066671058069915 22.27322488091886,46.20001173368655 21.65883977804333,44.20001746760681 19.201299365609884,39.000022055231966 18.34116022149101,36.73335272236727 17.72677511861548,35.666683820891194 16.62088193325326,31.0" stroke="#4dd2ff" stroke-linecap="round" stroke-linejoin="round" stroke-width="0.5"><title>2024-01-06 1.0km</title><desc>10501510624</desc></polyline><polyline fill="none" points="40.47908618208021,34.27274134848267 41.40710829850286,36.53848169394769 42.103124886751175,39.43358999455813 43.263152533210814,43.20981085568201 44.539182944223285,45.979034193907864 45.35120229655877,47.99301199009642 45.815213354770094,48.748253053287044 46.27922441344708,49.0 46.16322164889425,48.11888552387245 45.58320782566443,46.73427614511456 41.75511659309268,39.43358999455813 41.05910000531003,37.29372780956328 40.827094475738704,35.27973742748145 40.01507512340322,33.139870051061735 39.4350613001734,31.0" stroke="#4dd2ff" stroke-linecap="round" stroke-linejoin="round" stroke-width="0.5"><title>2024-01-05 1.0km</title><desc>10495609202</desc></polyline><polyline fill="none" points="61.92081434605643,31.0 62.69236784474924,32.81396122346632 63.3353290935047,34.76745598623529 64.2354748416692,36.58141360874288 65.90717408899218,41.325602270895615 67.96465008473024,46.069779074634425 68.73620358342305,48.58139728754759 69.25057258270681,49.0 69.50775708211586,48.30232876108494 69.3791648321785,47.32558859628625 66.29295083833858,41.046532678068615 65.26421284023672,37.41862423438579 64.2354748416692,31.55814209987875" stroke="#4dd2ff" stroke-linecap="round" stroke-linejoin="round" stroke-width="0.5"><title>2024-01-04 1.0km</title><desc>10489071805</desc></polyline><polyline fill="none" points="86.07097182888538,34.30883703043219 87.65662732440978,38.67649259837344 89.6082033184357,43.04413756961003 90.58399131568149,46.75000984175131 91.43780581327155,49.0 91.55977931292728,49.0 91.55977931292728,48.07353380450513 90.94991181464866,45.82354248885531 89.73017681809142,43.04413756961003 88.7543888213113,40.2647283594124 87.16873332578689,37.08825543615967 86.19294532900676,34.176483665942214 85.58307783026248,32.32353554200381 85.94899832922965,31.0" stroke="#4dd2ff" stroke-linecap="round" stroke-linejoin="round" stroke-width="0.5"><title>2024-01-03 1.0km</title><desc>10482519748</desc></polyline><polyline fill="none" points="107.79557254957035,31.297521962667815 110.94874138804153,40.52068110543769 114.23900452349335,48.404961237101816 114.92447600979358,49.0 115.06157030770555,48.404961237101816 114.65028741583228,47.36364297999535 111.22292998293415,40.81820166797843 109.98908130684868,37.54547307221219 108.20685544144362,31.0" stroke="#4dd2ff" stroke-linecap="round" stroke-linejoin="round" stroke-width="0.5"><title>2024-01-01 1.0km</title><desc>10470902913</desc></polyline><polyline fill="none" points="141.902444221545,35.40818125801161 141.6767633347772,35.77552916947752 139.3071140209213,37.48981835064478 138.2915500300005,38.59186046384275 137.61450736876577,39.81635084503796 137.16314559523016,40.42859569785651 136.8246242646128,40.55104464129545 135.35769849969074,40.55104464129545 134.00361317768693,41.040840325760655 132.19816608168185,40.918391417944804 131.29544253321365,40.55104464129545 130.73124031629413,39.69390184734948 130.39271898567677,38.95920767285861 130.27987854229286,37.24492000427563 129.94135721120983,36.510224749101326 128.58727188967168,36.510224749101326 127.45886745490134,36.87757241737563 127.34602701151744,37.00002162193414 127.7973887855187,37.24492000427563 128.02306967182085,37.00002162193414 127.23318656813353,37.00002162193414 127.00750568090007,36.7551232035039 126.7818247936666,35.89797845506109 126.6689843502827,34.42858643166255 127.23318656813353,34.55103581654839 127.68454834260046,35.530630571069196 128.70011233352125,36.63267398066819 129.48999543767422,36.63267398066819 130.16703809890896,36.142876999801956 130.73124031629413,36.26532625826076 130.84408075967804,36.020427731913514 129.8285167682916,33.081642604316585 129.60283588105813,32.959193111164495 128.36159100243822,32.83674360951409 127.12034612428397,32.959193111164495 127.91022922890261,32.959193111164495 126.7818247936666,31.734697686857544 126.6689843502827,31.0 127.00750568090007,31.489798494149 127.34602701151744,33.081642604316585 127.68454834260046,33.81633937230799 128.02306967182085,35.40818125801161 127.34602701151744,39.571452840580605 128.1359101156704,43.36736785795074 128.81295277690515,44.46940608078148 128.92579322028905,46.306134830927476 129.94135721120983,49.0" stroke="#4dd2ff" stroke-linecap="round" stroke-linejoin="round" stroke-width="0.5"><title>2023-12-31 1.5km</title><desc>10466792666</desc></polyline><polyline fill="none" points="154.75603819591925,35.273397946031764 156.06878861691803,39.935274790157564 157.8589028273709,43.6906666085124 159.41033514309675,48.093529578414746 159.88769893255085,49.0 160.1263808272779,49.0 160.24572177417576,47.964033765834756 159.76835798518732,46.539579198579304 157.62022093264386,42.13671234436333 157.62022093264386,40.97124574659392 156.06878861691803,37.604337910655886 155.83010672219098,35.01440442644525 155.35274293320253,33.46044250787236 154.0399925117381,31.0" stroke="#4dd2ff" stroke-linecap="round" stroke-linejoin="round" stroke-width="0.5"><title>2023-12-30 1.0km</title><desc>10458865202</desc></polyline><polyline fill="none" points="180.97876229183748,31.0 178.71215487923473,31.2236037919065 177.16674073366448,32.22982044820674 176.03343702713028,33.347838174086064 175.51829897845164,34.68945835984778 175.10618853988126,39.94412601995282 175.62132658809423,45.19877551647369 175.82738180737942,45.981381334131584 176.1364646363072,46.65218599990476 177.78490639152005,48.44099699554499 179.6394033660181,49.0 181.08178990148008,48.776398822665215 182.83325926586986,47.65839244390372 183.86353536276147,46.763986748992465 184.89381145965308,43.74536364292726 184.79078385047615,41.39754152763635 184.4817010210827,39.385119685321115 184.27564580226317,34.46585507784039 183.96656297286972,33.236036438611336 183.3483973145485,32.453424059203826 182.62720404658467,31.894414970069192 180.97876229183748,31.559009417891502 178.71215487923473,31.670811276882887 177.06371312355623,32.565225852420554 176.23949224641547,33.57144162070472 175.62132658809423,35.13666482537519 175.62132658809423,35.91927582339849 175.93040941702202,37.81990085518919 175.7243541982025,39.385119685321115" stroke="#4dd2ff" stroke-linecap="round" stroke-linejoin="round" stroke-width="0.5"><title>2023-12-29 1.0km</title><desc>10454615358</desc></polyline><polyline fill="none" points="17.48660630453378,52.90909918991383 19.24598189117387,59.18183983606286 22.01071495609358,67.6363697515335 22.890402750112116,69.0 23.0160724343732,69.0 23.0160724343732,67.6363697515335 21.131027163006365,61.909111761138774 19.622990945819765,58.22729371488094 18.617633467540145,56.318199999048375 16.98392756516114,51.0" stroke="#4dd2ff" stroke-linecap="round" stroke-linejoin="round" stroke-width="0.5"><title>2023-12-27 1.0km</title><desc>10441997651</desc></polyline><polyline fill="none" points="39.464061866980046,53.318191617610864 41.47477652784437,57.27274710254278 42.4801338580437,61.36365769722033 43.862500187475234,63.9545630736975 45.49620585003868,68.1818219712004 45.99888451443985,69.0 46.25022384757176,68.86363702046219 45.37053618300706,66.27273850073107 44.113839520607144,64.36365306563675 40.0924101988785,54.818196414853446 39.84107086621225,52.227278276346624 39.464061866980046,51.0" stroke="#4dd2ff" stroke-linecap="round" stroke-linejoin="round" stroke-width="0.5"><title>2023-12-17 1.0km</title><desc>10391591057</desc></polyline><polyline fill="none" points="62.79379346920177,54.16902771452442 64.1956297471188,57.84509256517049 66.5320235430263,62.408472511102445 68.63477795897052,68.49296031869017 69.10205671843141,69.0 69.21887640841305,68.87324009358417 69.21887640841305,68.36620037502144 68.63477795897052,66.71832025947515 65.48064633458853,60.50706566812005 64.07881005713716,56.704245691304095 63.02743284869939,52.39437291189097 62.2096950202249,51.0" stroke="#4dd2ff" stroke-linecap="round" stroke-linejoin="round" stroke-width="0.5"><title>2023-12-16 1.0km</title><desc>10386207035</desc></polyline><polyline fill="none" points="86.13929613493383,54.383472079527564 86.63819509604946,56.684229540871456 88.38434146065265,61.96242696943227 89.38213938334957,63.58648467215244 90.75411152699962,68.05263596656732 91.12828574795276,69.0 91.3777352287434,69.0 91.3777352287434,67.64662266056985 89.50686412351206,61.96242696943227 86.88764457637444,57.90227644436527 86.76291983667761,56.27821372705512 86.01457139477134,54.383472079527564 86.26402087509632,53.16542284714524 85.76512191398069,51.0" stroke="#4dd2ff" stroke-linecap="round" stroke-linejoin="round" stroke-width="0.5"><title>2023-12-14 1.0km</title><desc>10376526598</desc></polyline><polyline fill="none" points="115.29210622329265,52.565225852653384 114.36485787294805,51.7826131277252 112.81944395462051,51.111801900318824 111.37705763150007,51.0 109.93467130791396,51.33540567557793 108.08017460629344,52.34162225795444 107.25595385022461,53.459639901760966 106.63778828270733,55.360268009011634 106.63778828270733,59.60872224404011 106.84384347172454,60.95033690426499 107.25595385022461,62.62735356413759 106.94687106646597,64.63977111433633 107.04989866074175,65.42237722000573 107.15292625501752,65.86958052788395 108.18320220103487,67.65839244425297 109.83164371317253,68.88819941575639 110.34678168548271,69.0 111.37705763150007,69.0 112.40733357612044,69.0 114.26183027820662,68.32919637009036 115.29210622329265,67.32299037033226 115.91027179080993,66.20498292252887 116.11632697982714,63.745363643043675 116.21935457456857,62.0683482165914 115.91027179080993,60.05592726240866 116.11632697982714,57.37269517919049 116.0132993850857,55.02486322144978 115.91027179080993,54.242251763120294 115.18907862901688,52.67702763737179 114.87999584525824,52.34162225795444 113.74669230589643,51.55900941800792 111.48008522577584,51.33540567557793 110.03769890218973,51.55900941800792 109.2134781461209,51.89441497018561 107.66806422825903,53.57144162082113 107.04989866074175,55.91927582328208 107.25595385022461,57.48449661070481" stroke="#4dd2ff" stroke-linecap="round" stroke-linejoin="round" stroke-width="0.5"><title>2023-12-13 1.0km</title><desc>10373769329</desc></polyline><polyline fill="none" points="132.11932072555646,53.552249595173635 133.3572599031031,58.65673809009604 134.5951990801841,61.34330525412224 137.07107743481174,68.328361393651 137.56625310564414,69.0 137.81384094106033,69.0 137.93763485876843,68.46268913464155 137.44245918793604,67.65672254085075 135.4617565041408,64.29852457169909 132.61449639638886,58.52240962779615 132.24311464326456,56.776138724409975 130.88138154847547,53.82090723980218 130.63379371305928,51.0" stroke="#4dd2ff" stroke-linecap="round" stroke-linejoin="round" stroke-width="0.5"><title>2023-12-12 1.0km</title><desc>10365882163</desc></polyline><polyline fill="none" points="153.63826747937128,51.0 154.9232836891897,53.788744695833884 156.67557852109894,58.225374688743614 157.96059473091736,60.63382618967444 159.8297092183493,66.46480010182131 160.06334852939472,67.98592048813589 160.53062715101987,69.0 160.6474468060769,68.11268045951147 160.41380749549717,67.09860042587388 157.96059473091736,61.52114957885351 156.20829989900813,58.09861399035435 155.74102127784863,56.704245691536926 155.39056231128052,53.788744695833884 154.4560050680302,51.126761220628396" stroke="#4dd2ff" stroke-linecap="round" stroke-linejoin="round" stroke-width="0.5"><title>2023-12-11 1.0km</title><desc>10361067591</desc></polyline><polyline fill="none" points="180.36061714449897,61.04350078164134 182.76473143929616,68.34782927564811 182.88493715412915,68.73913173889741 183.3657600134611,69.0 183.48596572736278,68.86956587433815 183.12534858379513,67.95652672543656 182.04349715076387,65.86957833555061 180.84144000336528,62.608716561691836 177.4756799908355,55.826104874373414 176.51403427263722,51.0" stroke="#4dd2ff" stroke-linecap="round" stroke-linejoin="round" stroke-width="0.5"><title>2023-12-10 1.0km</title><desc>10355395415</desc></polyline><polyline fill="none" points="16.828689941670746,72.1911820312962 18.90223882580176,75.50001687242184 19.878026535734534,79.60296362906229 21.95157541986555,85.42648490634747 22.683416202664375,88.60294311749749 23.171310058329254,89.0 23.293283521663398,88.86764771549497 23.293283521663398,88.60294311749749 23.04933659406379,87.5441243366804 20.487893855199218,82.38237386127003 19.878026535734534,80.92649284633808 19.51210614433512,78.67649259825703 18.90223882580176,76.95590227597859 17.926451115868986,75.23531030898448 17.80447765160352,73.3823632748099 16.70671647787094,71.0" stroke="#4dd2ff" stroke-linecap="round" stroke-linejoin="round" stroke-width="0.5"><title>2023-12-09 1.0km</title><desc>10350143310</desc></polyline><polyline fill="none" points="40.93833656795323,74.49255117913708 41.68110029306263,77.17912446556147 43.29042169684544,81.07464871532284 45.51871287077665,87.52239474025555 46.50906450394541,89.0 46.38527055038139,87.65672254085075 45.642506825271994,85.37314859370235 43.66180355893448,81.8806182127446 42.423864017706364,78.92539498396218 41.06213052244857,76.77613872475922 40.69074865989387,74.62687993713189 39.205221210140735,71.0" stroke="#4dd2ff" stroke-linecap="round" stroke-linejoin="round" stroke-width="0.5"><title>2023-12-08 1.0km</title><desc>10345303898</desc></polyline><polyline fill="none" points="62.81421766476706,71.0 63.046223109122366,71.6293738221284 63.51023399690166,73.26574467681348 63.74223944125697,75.5314863550011 64.2062503285706,77.41960212949198 65.83028843672946,81.44757549010683 66.8743129344657,85.09791816305369 67.91833743220195,87.36364418326411 68.15034287655726,89.0 68.38234832044691,88.87412653130013 68.61435376433656,88.62237956561148 68.61435376433656,88.24475904810242 68.0343401543796,86.7342761453474 66.17829660279676,83.58743248344399 63.97424488468096,77.16785348008852 63.39423127518967,74.52449042350054" stroke="#4dd2ff" stroke-linecap="round" stroke-linejoin="round" stroke-width="0.5"><title>2023-12-07 1.0km</title><desc>10340288256</desc></polyline><polyline fill="none" points="85.22988204564899,71.0 85.94592772983015,72.68346103455406 87.25867815082893,78.25182068638969 89.16813330864534,81.74822356412187 90.71956562437117,86.02159543370362 91.43561130855232,88.74100849858951 91.7936341506429,89.0 91.91297509754077,88.09352957841475 91.67429320327938,86.92806692188606 89.7648380449973,82.91368964756839 88.45208762446418,80.97124574659392 87.73604194028303,79.5467855243478 85.34922299347818,71.38849115080666" stroke="#4dd2ff" stroke-linecap="round" stroke-linejoin="round" stroke-width="0.5"><title>2023-12-06 1.0km</title><desc>10334845031</desc></polyline><polyline fill="none" points="109.76973250415176,74.1034619655693 110.57055129529908,78.20002302597277 111.3713700864464,81.17933391826227 113.31621572189033,86.2689778652275 114.34583988180384,88.62758815078996 114.68904793448746,89.0 114.23143719742075,86.76552767283283 113.08741035265848,84.65518998203333 112.05778619321063,81.67588522285223 110.57055129529908,78.57243717496749 109.88413518853486,76.21381284378003 108.74010834423825,73.73104683100246 108.16809492185712,71.0" stroke="#4dd2ff" stroke-linecap="round" stroke-linejoin="round" stroke-width="0.5"><title>2023-12-05 1.0km</title><desc>10329306344</desc></polyline><polyline fill="none" points="130.9796367092058,72.51049678423442 131.7916557630524,73.7692430865718 132.8356802612543,77.41960212949198 134.9237292567268,82.58044129051268 135.9677537549287,86.10490787529852 136.8957755304873,88.11888552398887 137.5917918626219,89.0 137.5917918626219,88.37063256313559 134.5757210906595,81.44757549010683 133.41569387121126,77.54547644068953 132.1396639291197,74.6503649475053 131.21164215309545,71.0" stroke="#4dd2ff" stroke-linecap="round" stroke-linejoin="round" stroke-width="0.5"><title>2023-12-04 1.0km</title><desc>10324662812</desc></polyline><polyline fill="none" points="154.016582980752,72.66154566861223 155.29261325160041,77.50771216268186 157.33426168374717,82.07694343582261 158.73789498070255,86.92308570316527 159.75871919700876,88.86153911822475 160.52433735877275,89.0 160.52433735877275,88.44615641166456 159.63111617043614,86.92308570316527 158.48268892709166,83.60001806344371 157.2066586567089,81.66155923262704 156.31343746744096,79.3077136843931 154.78220114298165,73.76924196642358 153.7613769271411,71.0" stroke="#4dd2ff" stroke-linecap="round" stroke-linejoin="round" stroke-width="0.5"><title>2023-12-02 1.0km</title><desc>10313350310</desc></polyline><polyline fill="none" points="176.73258963692933,71.95454984041862 177.98928593005985,73.59091985307168 179.49732148181647,78.77274870162364 180.5026785172522,83.00001940899529 182.13638369832188,87.63636975188274 183.14174073329195,89.0 183.267410362605,88.18182197131682 183.0160711039789,86.54546483117156 181.633705180604,83.54547299188562 179.49732148181647,80.13638546620496 178.24062518915161,77.54547475650907 176.98392889508978,71.0" stroke="#4dd2ff" stroke-linecap="round" stroke-linejoin="round" stroke-width="0.5"><title>2023-12-01 1.0km</title><desc>10308709030</desc></polyline><polyline fill="none" points="16.68232080945745,91.0 19.170580202247947,99.55001980031375 21.658839595038444,104.65001455100719 23.041205924004316,108.40000255848281 23.455915823113173,109.0 23.59415245614946,108.55000193545129 23.041205924004316,107.05000766995363 20.967656429857016,104.20001552719623 20.414709899108857,102.70001806365326 18.341160404961556,98.65001940354705 17.373503974173218,94.0000110277906 16.40584754385054,91.30000130133703" stroke="#4dd2ff" stroke-linecap="round" stroke-linejoin="round" stroke-width="0.5"><title>2023-11-30 1.0km</title><desc>10303537703</desc></polyline><polyline fill="none" points="40.79789544548839,94.84829198836815 41.59871388366446,97.4551944816485 41.94192178547382,99.56554117088672 43.20035075908527,102.04829860525206 44.57318236725405,105.77242791187018 45.94601397449151,108.75172544328962 46.17481924267486,109.0 46.40362451039255,108.75172544328962 46.17481924267486,107.8827642062679 45.25959817087278,106.2689778652275 44.00116919726133,102.79312512371689 42.17072705319151,99.06898924615234 41.484311249572784,95.09656858979724 40.111479641404,92.98621631483547 39.31066120415926,91.0" stroke="#4dd2ff" stroke-linecap="round" stroke-linejoin="round" stroke-width="0.5"><title>2023-11-29 1.0km</title><desc>10298007687</desc></polyline><polyline fill="none" points="62.61142245167866,93.33094561949838 63.924172293394804,96.69786162441596 64.16285408241674,99.15829617308918 65.83362660836428,103.17268200626131 66.78835376631469,106.79857102350798 67.62374002952129,108.48201695899479 68.45912629226223,109.0 68.81714897649363,109.0 69.05583076644689,108.61151273362339 68.93648987123743,108.09352957829833 68.45912629226223,107.18705868988764 66.54967197682709,102.13671234436333 64.6402176618576,97.73383448482491 64.2821949776262,95.66188815457281 63.44680871395394,93.20144872169476 62.3727406617254,91.0" stroke="#4dd2ff" stroke-linecap="round" stroke-linejoin="round" stroke-width="0.5"><title>2023-11-28 1.0km</title><desc>10292316108</desc></polyline><polyline fill="none" points="88.14879361214116,91.0 89.20538101159036,93.8662559457589 89.83933345135301,96.61785669741221 90.68460337072611,97.87900541932322 91.63553203037009,99.71340173971839 92.58646069001406,102.69429115857929 93.43173060938716,104.07008435309399 93.43173060938716,104.75798049510922 92.90343690989539,105.21657775470521 91.21289707068354,106.13377186935395 90.15630967123434,107.05096544418484 89.09972227178514,107.62421115464531 87.51484117237851,108.31210572912823 84.97903141379356,109.0 84.55639645364136,108.8853509761393 84.23942023376003,108.54140385333449 83.7111265338026,106.36307031358592" stroke="#4dd2ff" stroke-linecap="round" stroke-linejoin="round" stroke-width="0.5"><title>2023-11-27 1.0km</title><desc>10287544518</desc></polyline><polyline fill="none" points="109.68853047071025,94.90211396722589 110.26854412304237,96.2867329143919 111.66057688975707,103.33568474079948 113.1686123861,106.98602338775527 113.9806315000169,108.370632563252 114.56064515234903,109.0 114.67664788290858,108.8741265310673 114.32863969169557,108.24475904798601 114.32863969169557,107.23777059407439 113.40061784721911,105.09791816282086 112.35659327264875,101.57344950502738 111.3125686980784,99.43358999444172 110.61655231472105,95.40561189572327 108.64450589613989,92.25874741270673 108.18049497390166,91.0" stroke="#4dd2ff" stroke-linecap="round" stroke-linejoin="round" stroke-width="0.5"><title>2023-11-26 1.0km</title><desc>10281488289</desc></polyline><polyline fill="none" points="131.00816783029586,91.0 132.34594189329073,94.48388377402443 133.5499385506846,99.41937526513357 134.75393520854414,102.17743866576348 135.0214900211431,103.91937146021519 135.69037705333903,105.51614183862694 137.16192852333188,108.27419672347605 137.83081555506214,109.0 138.09837036766112,109.0 136.09170927200466,104.64517633756623 135.82415445894003,103.19356631604023 134.48638039594516,101.30647169239819 131.81083226855844,94.04839863895904 130.4730582041666,91.58064772281796" stroke="#4dd2ff" stroke-linecap="round" stroke-linejoin="round" stroke-width="0.5"><title>2023-11-25 1.0km</title><desc>10275889695</desc></polyline><polyline fill="none" points="153.65464137401432,91.16822495521046 154.584832245484,95.37384479888715 158.9257229808718,107.14953924051952 160.01094566378742,108.83177635679021 160.47604109998792,109.0 160.6310729123652,108.49532903218642 159.08075479231775,106.4766440478852 157.2203730493784,100.92525115737226 155.98011855315417,98.40188630030025 155.20495949406177,93.52337301988155 154.27476862166077,91.0" stroke="#4dd2ff" stroke-linecap="round" stroke-linejoin="round" stroke-width="0.5"><title>2023-11-24 1.0km</title><desc>10271180196</desc></polyline><polyline fill="none" points="177.7618844024837,93.00000823463779 178.1568459784612,94.14286915806588 179.07842298876494,99.00002058548853 181.31653858721256,105.85715487215202 182.36976945679635,108.71428701689001 182.7647310323082,109.0 183.29134646710008,109.0 183.42300032638013,108.71428701689001 183.15969260875136,107.28572146955412 181.71150016319007,103.14287544379476 177.89353826083243,94.85715689428616 176.57699967408553,91.0" stroke="#4dd2ff" stroke-linecap="round" stroke-linejoin="round" stroke-width="0.5"><title>2023-11-23 1.0km</title><desc>10265414399</desc></polyline><polyline fill="none" points="18.42293546302244,115.0563544301549 18.53975505847484,116.83100649237167 19.00703343981877,119.61974175705109 20.876146965194494,124.94367837370373 21.46024494152516,127.47888050868642 22.394801704213023,129.0 23.09571927599609,129.0 22.978899681009352,128.23944042192306 21.693884131964296,124.94367837370373 20.642507774289697,123.29579498723615 19.123853035271168,118.60565672838129 17.37155910488218,113.78874469583388 16.90428072400391,111.0" stroke="#4dd2ff" stroke-linecap="round" stroke-linejoin="round" stroke-width="0.5"><title>2023-11-21 1.0km</title><desc>10253878272</desc></polyline><polyline fill="none" points="40.91981272678822,115.86133173853159 41.52522839233279,119.8029423590051 44.0679741888307,126.24088767752983 45.157722387462854,128.6058413576102 45.520971787162125,129.0 45.763138053473085,128.86861379561014 45.884221186395735,128.6058413576102 45.399888653773814,126.50366046302952 43.22039225650951,121.77374440978747 42.372810325119644,119.27739477856085 41.04089585971087,114.15329776948784 40.31439706077799,112.83942437497899 39.83006452815607,111.0" stroke="#4dd2ff" stroke-linecap="round" stroke-linejoin="round" stroke-width="0.5"><title>2023-11-20 1.0km</title><desc>10248671423</desc></polyline><polyline fill="none" points="62.50970945926383,112.50000667187851 64.26908465800807,116.31819999893196 64.77176328701898,120.27274908765685 66.1541295144707,123.40910961094778 67.53649574192241,127.36364358162973 68.16484402725473,128.31818500091322 68.91886196983978,129.0 68.79319231305271,127.90909588139039 66.65680814301595,122.3182022041874 65.27444191556424,117.27274710254278 63.892075687646866,114.00001213059295 63.138057745061815,111.0" stroke="#4dd2ff" stroke-linecap="round" stroke-linejoin="round" stroke-width="0.5"><title>2023-11-19 1.0km</title><desc>10242265034</desc></polyline><polyline fill="none" points="85.07307398412377,127.03792825492565 85.85922108218074,124.56400697666686 86.17367992177606,123.9668527743197 86.72398289013654,123.62562166358111 89.3968830248341,123.2843904523179 91.36225077090785,122.85785129718715 91.99116844916716,122.34600410389248 92.38424199866131,121.83415668504313 92.85593025758862,119.70145667501492 92.69870083779097,119.01899184362264 93.01315967738628,118.50714295677608 92.7773155476898,114.5829606532352 92.6200861283578,114.07110980903963 92.54147141799331,112.53555592079647 92.38424199866131,111.5971608775435 91.51948019070551,111.34123482485302 90.8119478020817,111.85308687353972 90.9691772214137,111.5971608775435 91.12640664121136,111.85308687353972 90.1044154134579,111.34123482485302 90.02580070402473,111.0 89.78995657386258,111.17061742488295 89.94718599366024,111.0853087156429 89.3968830248341,111.76777821453288 89.47549773473293,111.6824695491814 91.12640664121136,112.53555592079647 90.73333309218287,112.87679029384162 90.1044154134579,113.13271600776352 88.61073592677712,113.38864166522399 88.53212121641263,113.04740744258743 88.92519476544112,112.87679029384162 89.47549773473293,112.96209887135774 91.12640664121136,111.34123482485302 93.40623322641477,111.4265435153502 93.17038909718394,111.25592612795299 92.85593025758862,111.17061742488295 92.6200861283578,115.26542809442617 92.69870083779097,116.45974515046692 92.9345449670218,117.90998563647736 93.09177438728511,120.38392110483255 93.09177438728511,121.23700107744662 92.85593025758862,122.0900804225821 92.38424199866131,122.60192772879964 88.45350650697947,123.02846697799396 86.64536818070337,123.36969826457789 85.70199166284874,124.05216053628828 84.60138572473079,125.58769917994505 83.97246804647148,127.80569585470948 83.73662391677499,129.0" stroke="#4dd2ff" stroke-linecap="round" stroke-linejoin="round" stroke-width="0.5"><title>2023-11-18 1.0km</title><desc>10236386505</desc></polyline><polyline fill="none" points="107.75542904110625,111.0 110.36217525182292,115.50001736893319 111.31008296413347,118.84287991863675 111.66554835671559,120.77145155961625 112.37647914141417,121.92859352345113 114.62775995908305,128.48571685689967 115.10171381616965,129.0 115.10171381616965,128.48571685689967 114.62775995908305,127.84286271536257 113.32438685419038,123.98573290230706 112.6134560694918,122.70002107415348 112.37647914141417,120.51430879719555 111.31008296413347,117.81430750666186 110.12519832327962,115.24287383153569 110.0067098592408,113.82858369813766" stroke="#4dd2ff" stroke-linecap="round" stroke-linejoin="round" stroke-width="0.5"><title>2023-11-17 1.0km</title><desc>10231268371</desc></polyline><polyline fill="none" points="131.07505724113435,111.58064772293437 132.81416314002126,114.04839863884263 133.2154952706769,117.38711555744521 134.41949166264385,120.00002051191404 136.29237493872643,126.96775015315507 137.49637133069336,129.0 137.3625939534977,127.8387146294117 136.42615231592208,125.95162444526795 135.75726543134078,124.0645324572688 134.68704641610384,119.56453659269027 132.54660838656127,115.06453047250398 131.87772150197998,113.03226628201082 131.47638937132433,111.0" stroke="#4dd2ff" stroke-linecap="round" stroke-linejoin="round" stroke-width="0.5"><title>2023-11-16 1.0km</title><desc>10225818993</desc></polyline><polyline fill="none" points="154.02138467133045,111.19354904140346 154.9132339488715,114.67742935777642 156.34019279293716,118.54840207961388 158.30226120352745,122.22582089412026 159.01574062556028,125.12904264521785 160.26432961411774,127.64516557333991 161.5129186026752,129.0 158.30226120352745,123.00001367391087 156.87530235946178,118.54840207961388 152.772795682773,111.0" stroke="#4dd2ff" stroke-linecap="round" stroke-linejoin="round" stroke-width="0.5"><title>2023-11-15 1.0km</title><desc>10219684298</desc></polyline><polyline fill="none" points="176.81951958918944,113.16542284714524 178.44094097521156,115.19550445268396 178.69039041921496,117.7669379391009 180.5612612492405,122.23310335271526 181.68378374679014,126.02256853983272 182.80630624480546,128.86466231115628 183.30520513281226,129.0 183.1804804103449,127.37594707356766 181.55905902478844,125.21054094214924 180.93543541477993,123.31580848805606 179.93763763876632,122.09776516607963 179.5634634727612,120.60904445615597 177.69259264320135,116.81956812529825 177.06896903319284,114.11279454140458 176.69479486718774,111.0" stroke="#4dd2ff" stroke-linecap="round" stroke-linejoin="round" stroke-width="0.5"><title>2023-11-14 1.0km</title><desc>10213806154</desc></polyline><polyline fill="none" points="17.59588517481461,133.47827171022072 18.55753110535443,137.1304552895017 21.202057412359864,143.91306199040264 21.803086118306965,146.1304470184259 23.00514353159815,148.60869759391062 23.365760755259544,149.0 22.644526307471097,147.695658311015 20.961645929608494,143.65219298156444 20.84144018869847,142.60871656169184 19.639382775872946,139.73915324313566 17.83629665756598,136.47828020178713 17.115062209777534,134.26088311010972 16.634239244740456,131.0" stroke="#4dd2ff" stroke-linecap="round" stroke-linejoin="round" stroke-width="0.5"><title>2023-11-13 1.0km</title><desc>10208522228</desc></polyline><polyline fill="none" points="40.8464284921065,133.04546334268525 42.103124970104545,136.86365554714575 43.6111607439816,140.000021835207 44.49084827909246,143.68183636269532 45.37053581373766,146.27273850084748 46.50156264426187,148.72727403056342 47.004241234622896,149.0 47.25558053096756,148.45454802096356 45.87321440456435,145.72728572005872 45.119196518324316,142.7272925573634 42.35446426598355,140.1363854664378 40.8464284921065,137.95456616173033 40.59508919622749,135.6363803385757 38.45870518311858,131.0" stroke="#4dd2ff" stroke-linecap="round" stroke-linejoin="round" stroke-width="0.5"><title>2023-11-12 1.0km</title><desc>10202270880</desc></polyline><polyline fill="none" points="62.99081852380186,134.35822241124697 65.96187364123762,141.07464871543925 66.95222534704953,144.4328526093159 67.94257705286145,147.11941128061153 68.56154686911032,148.32836139411665 69.18051668489352,149.0 69.30431064823642,148.4626891349908 68.1901649790816,145.10449264734052 66.08566760411486,141.880618212861 63.857376266270876,136.77613872487564 62.99081852380186,133.14926305413246 62.12426078040153,131.0" stroke="#4dd2ff" stroke-linecap="round" stroke-linejoin="round" stroke-width="0.5"><title>2023-11-11 1.0km</title><desc>10196068378</desc></polyline><polyline fill="none" points="86.8980368906632,133.68422009726055 88.9352093716152,139.84212411462795 90.82686953339726,144.8947501218645 91.6999434530735,148.21052947919816 92.28199273347855,149.0 92.57301737368107,148.6842118264176 92.13648041337729,146.78948180971202 89.95379561278969,141.89475486346055 87.77111081127077,137.31580665381625 84.86086440971121,132.73684868169948 84.56983976950869,131.0" stroke="#4dd2ff" stroke-linecap="round" stroke-linejoin="round" stroke-width="0.5"><title>2023-11-10 1.0km</title><desc>10191120477</desc></polyline><polyline fill="none" points="107.2498171934858,131.54962088621687 109.40250876965001,133.1984825761756 110.66879793209955,135.39696256595198 111.04868468083441,136.22139189543668 111.04868468083441,137.45803520805202 112.44160275859758,141.71757813193835 112.9481184235774,144.19085666537285 113.96114975353703,146.93894008581992 114.21440758556128,148.31298028095625 114.8475521672517,149.0 115.22743891505525,148.86259607644752 115.6073256637901,148.31298028095625 114.21440758556128,147.35115225065965 111.93508709408343,144.0534523880342 109.27587985387072,136.77101124660112 108.64273527218029,132.64886217436288 108.00959069095552,131.0" stroke="#4dd2ff" stroke-linecap="round" stroke-linejoin="round" stroke-width="0.5"><title>2023-11-09 1.0km</title><desc>10185506531</desc></polyline><polyline fill="none" points="130.77430626377463,132.44526216865052 132.1062196516432,135.07300857105292 132.59055179171264,136.38688032352366 134.16463125078008,139.80294235935435 134.77004642644897,142.16790455882438 134.6489633913152,140.72265025309753 134.8911294620484,141.64235767372884 135.37546160258353,145.18979614810087 136.46520891971886,148.47445512423292 136.9495410611853,149.0 137.55495623731986,148.73722758109216 137.79712230758741,148.34306888096035 136.46520891971886,147.16059225820936 135.49654463818297,145.58395554404706 134.8911294620484,143.87593086762354 134.04354821518064,140.98542385036126 132.83271786291152,139.2773947789101 131.50080447504297,136.38688032352366 131.13755536917597,134.2846850559581 131.25863840430975,131.65693749429192 131.0164723340422,131.0" stroke="#4dd2ff" stroke-linecap="round" stroke-linejoin="round" stroke-width="0.5"><title>2023-11-08 1.0km</title><desc>10179505859</desc></polyline><polyline fill="none" points="156.3308379095979,140.9440793383401 160.3909340747632,149.0 160.6229395698756,148.87412653141655 160.04292583232746,147.4895177630242 158.99890110408887,145.72728680237196 158.30288461828604,143.96505402820185 156.91085164714605,142.45456734951586 156.4468406578526,141.57344950479455 156.0988324144855,138.55247059487738 155.86682691937312,137.6713507422246 154.4747939486988,135.27973742736503 153.6627747155726,131.0" stroke="#4dd2ff" stroke-linecap="round" stroke-linejoin="round" stroke-width="0.5"><title>2023-11-06 1.0km</title><desc>10167691585</desc></polyline><polyline fill="none" points="178.26955626299605,136.0503782769665 179.1049428950064,137.6043379106559 182.2078075259924,144.72663535596803 183.52055794699118,148.7410084985895 183.75923984171823,149.0 183.99792173597962,149.0 183.99792173597962,148.61151273350697 183.0431941570714,146.5395791985793 182.2078075259924,145.37411551410332 182.08846657862887,144.72663535596803 181.3724208944477,143.94965885241982 179.34362478926778,140.45326034456957 176.95680584199727,134.36692046013195 176.00207826355472,131.0" stroke="#4dd2ff" stroke-linecap="round" stroke-linejoin="round" stroke-width="0.5"><title>2023-11-05 1.1km</title><desc>10161301187</desc></polyline><polyline fill="none" points="16.63423998747021,151.0 19.03835428180173,156.3478451555129 20.12020571436733,161.04350078164134 21.803085720632225,164.30436543212272 22.404114294797182,166.9130528375972 23.005142868030816,169.0 23.36576001252979,168.60869759402703 23.245554297231138,168.21739510179032 21.682880006264895,165.34784085466526 21.562674290966243,164.95653764309827 20.12020571436733,162.7391511480091 19.519177140668035,160.65219662082382 17.95650284923613,157.78263013751712 17.595885705202818,155.30436443991493 16.87465141667053,152.69565996550955" stroke="#4dd2ff" stroke-linecap="round" stroke-linejoin="round" stroke-width="0.5"><title>2023-11-04 1.0km</title><desc>10155501797</desc></polyline><polyline fill="none" points="47.6863988651894,153.73419068823569 46.32160912360996,151.91139743244275 45.48173851380125,151.3417740999721 43.80199729371816,151.0 42.22723989980295,151.11392470856663 40.022579547949135,152.139246706618 39.07772511150688,153.05064346885774 38.237854501232505,154.759510952048 38.0278868493624,156.12660358159337 37.7129353703931,160.6835702988319 37.92290302272886,165.46837092377245 38.13287067506462,166.15191266383044 39.18270893814042,167.86076569382567 40.44251485308632,168.77215320582036 42.54219137877226,169.0 44.43190025119111,168.20253607374616 46.21662529790774,166.0379890614422 46.74154442921281,165.01267626299523 47.47643121285364,161.7088859624928 47.47643121285364,159.08863347244915 48.00135034415871,155.6709061722504 47.89636651799083,154.41773760621436 46.74154442921281,153.05064346885774 45.79668999277055,152.36709594738204 43.592029640916735,151.3417740999721 42.437207552138716,151.3417740999721 39.917595722246915,152.139246706618 38.762773633003235,153.16456802631728 38.0278868493624,154.53166206309106 37.81791919656098,155.44305741763674 38.0278868493624,159.20255758613348 37.81791919656098,160.9114182825433" stroke="#4dd2ff" stroke-linecap="round" stroke-linejoin="round" stroke-width="0.5"><title>2023-11-03 1.0km</title><desc>10152446508</desc></polyline><polyline fill="none" points="61.98892560694367,151.0 62.97298299334943,153.13560138468165 63.816460753791034,156.94916981831193 65.22225702134892,159.69493475090712 67.33095142105594,165.18645371461753 67.75269030127674,166.10170546243899 68.45558843482286,168.54237481567543 68.87732731504366,169.0 69.43964582169428,169.0 69.43964582169428,168.6949165549595 68.45558843482286,168.23729130346328 68.03384955506772,167.1694986578077 67.04979216773063,166.25424738100264 66.34689403465018,164.2712015635334 65.36283664731309,162.74578041420318 64.23819963401183,160.45764658704866 62.97298299334943,155.72882868233137 62.12950523290783,153.74577280506492" stroke="#4dd2ff" stroke-linecap="round" stroke-linejoin="round" stroke-width="0.5"><title>2023-11-02 1.1km</title><desc>10144903556</desc></polyline><polyline fill="none" points="85.5061826207675,152.30435396311805 85.74659406766295,153.73914221522864 86.70823985617608,155.95653995871544 88.39111998584121,161.9565434876131 91.27605735231191,167.95652672555298 92.11749741667882,169.0 91.63667452288792,167.4347898582928 89.83358866907656,164.6956687872298 88.87194288056344,161.17393548239488 87.66988564515486,159.47828362043947 86.22741696191952,156.34784515528008 85.02535972604528,151.0" stroke="#4dd2ff" stroke-linecap="round" stroke-linejoin="round" stroke-width="0.5"><title>2023-11-01 1.0km</title><desc>10138966680</desc></polyline><polyline fill="none" points="108.80935265216976,151.27067799540237 109.43297617090866,153.3007616904797 110.43077380023897,158.71430726593826 112.05219494691119,162.23310335283168 113.0499925762415,165.48121684766375 114.67141372384503,169.0 114.79613842768595,168.8646623105742 113.67361609451473,167.24060926458333 112.05219494691119,163.45114658481907 110.68022320698947,161.01505931455176 108.3104538382031,153.84211696428247 108.06100443005562,151.0" stroke="#4dd2ff" stroke-linecap="round" stroke-linejoin="round" stroke-width="0.5"><title>2023-10-31 1.0km</title><desc>10133123337</desc></polyline><polyline fill="none" points="131.45954509731382,153.1333426652709 132.07392970379442,156.33335195819382 132.07392970379442,157.5333539872663 133.42557583702728,159.80002232000697 137.11188347404823,167.66667279333342 137.72626808052883,168.8666673231637 137.97202192246914,169.0 135.14585273433477,163.40001914394088 133.9170835223049,159.93335566332098 132.56543738860637,157.1333533989964 130.5994066488929,151.0" stroke="#4dd2ff" stroke-linecap="round" stroke-linejoin="round" stroke-width="0.5"><title>2023-10-30 1.0km</title><desc>10127985445</desc></polyline><polyline fill="none" points="154.3053704481572,153.60527560755145 154.85104096634313,157.27633863000665 155.1784432772547,158.46055072336458 157.36112535046414,163.5526528044138 158.45246638637036,166.5131698701298 160.08947794139385,168.76315920078196 160.52601435640827,169.0 160.6351484595798,168.6447387879016 159.6529415268451,167.10527262999676 158.23419817956164,164.026335900533 155.72411379544064,159.40791977138724 154.74190686224028,155.97370432177559 153.97796813677996,154.43422605399974 153.86883403314278,152.06579507607967 153.6505658258684,151.0" stroke="#4dd2ff" stroke-linecap="round" stroke-linejoin="round" stroke-width="0.5"><title>2023-10-28 1.0km</title><desc>10115543824</desc></polyline><polyline fill="none" points="177.66533815301955,154.73334801755846 178.64835366792977,157.93335448706057 179.75424612080678,160.46668893785682 180.737261635717,164.06668443838134 182.21178490761667,167.53334001882467 182.82616960350424,168.8666673237458 183.44055429985747,169.0 183.5634312396869,168.8666673237458 183.3176773604937,168.06667105830275 182.58041572477669,166.0666788512608 180.12287693936378,161.26668855571188 178.156845910009,155.9333511054283 176.92807651730254,153.26667649880983 176.4365687603131,151.0" stroke="#4dd2ff" stroke-linecap="round" stroke-linejoin="round" stroke-width="0.5"><title>2023-10-27 1.0km</title><desc>10110442644</desc></polyline><polyline fill="none" points="17.560530186630785,173.77942351426464 19.878026509657502,181.58825709018856 20.731840944383293,183.9706063530175 21.585655379574746,185.42648490646388 22.561443304643035,188.20588614756707 22.92736377660185,188.7352954216767 23.659204720985144,189.0 23.78117821086198,188.60294311773032 23.659204720985144,188.07353380485438 22.439469813834876,186.48530493315775 20.609867453575134,183.3088429851923 18.414344621822238,176.82354910613503 16.950662733521312,174.44119038514327 16.21882178913802,171.0" stroke="#4dd2ff" stroke-linecap="round" stroke-linejoin="round" stroke-width="0.5"><title>2023-10-26 1.0km</title><desc>10104873905</desc></polyline><polyline fill="none" points="41.95560012990609,179.6087184365606 44.72033116221428,186.52174997131806 46.04259382979944,188.86956587433815 46.52341661741957,189.0 46.40321092121303,187.695658311015 43.15765709988773,182.0869781221263 41.354571644216776,177.52176022727508 39.79189758235589,174.26088311045896 39.190869097132236,171.0" stroke="#4dd2ff" stroke-linecap="round" stroke-linejoin="round" stroke-width="0.5"><title>2023-10-25 1.0km</title><desc>10098978222</desc></polyline><polyline fill="none" points="62.38449930679053,171.0 62.26341616502032,171.91971242427826 62.989915017504245,174.9416213426739 63.95858015445992,176.9124287540326 64.56399586424232,179.27739477867726 65.65374414343387,182.43067794316448 67.9543238421902,186.8978195694508 68.68082269467413,188.737227581325 68.92298897914588,189.0 69.16515526315197,188.8686137953773 69.0440721209161,187.16059225809295 67.71215755818412,184.6642501518363 66.74349242215976,183.2189978651004 65.53266100073233,180.45987661753315 65.2904947171919,179.01462093077134 63.83749701175839,176.78104166104458 62.989915017504245,174.8102341046324 62.747748733032495,172.44526216841768 62.38449930679053,171.0" stroke="#4dd2ff" stroke-linecap="round" stroke-linejoin="round" stroke-width="0.5"><title>2023-10-24 1.0km</title><desc>10092835699</desc></polyline><polyline fill="none" points="86.72164470283315,174.1079268073663 88.51175812399015,180.45326034456957 89.34714438719675,182.0072160938289 90.30187154468149,185.89209946908522 91.73396228114143,188.4820169589948 92.33066675532609,189.0 91.73396228114143,188.35252117482014 90.89857601840049,186.28058733535 88.75043991301209,183.69066660827957 88.27307633450255,182.7841934543103 87.79571275552735,179.80577837780584 86.36362201860175,176.9568548965035 85.408894861117,173.9784299666062 84.81219038786367,171.0" stroke="#4dd2ff" stroke-linecap="round" stroke-linejoin="round" stroke-width="0.5"><title>2023-10-23 1.0km</title><desc>10087395010</desc></polyline><polyline fill="none" points="105.60081643774174,171.08633225236554 105.9190556181129,171.0 108.18650977849029,171.1726644920418 109.18100721715018,171.43166113487678 109.41968660242856,171.56115941354074 109.93682527076453,171.94965407782 110.29484434844926,172.3813145144959 111.09044229937717,173.8489576249267 111.48824127484113,175.4892602887703 112.0053799431771,176.35257563943742 112.24405932822265,177.04322700586636 112.80097789387219,178.29503053677035 113.19877686956897,179.58999689779012 113.79547533276491,180.62596793007106 114.07393461558968,180.92812580347527 114.43195369350724,181.5324410837493 114.63085318123922,182.82740030408604 114.7501928738784,183.17272228054935 115.06843205401674,183.6475396664464 115.14799184934236,184.38134759839159 115.26733154198155,184.68350353906862 117.01764703402296,188.82734075089684 117.25632641930133,189.0 117.25632641930133,188.78417593060294 116.89830734138377,188.43885725463042 116.50050836615264,187.48922984837554 116.10270939045586,186.6690958525287 115.02865215670317,183.34538319258718" stroke="#4dd2ff" stroke-linecap="round" stroke-linejoin="round" stroke-width="0.5"><title>2023-10-22 1.5km</title><desc>10080655811</desc></polyline><polyline fill="none" points="131.42277144361287,171.0 132.05430295295082,171.45685924118152 130.91754623595625,171.27411558496533 132.68583446205594,173.5584074241924 132.85424286476336,174.10663621604908 132.7279365628492,174.56349317287095 132.1385071540717,174.88329284300562 131.9700987515971,175.2030923484126 132.01220085215755,175.75131968891947 132.34901765710674,177.07620043179486 132.7279365628492,178.03559506835882 133.1489575689193,179.4975269040442 133.9067953801714,180.82239965925692 134.03310168208554,181.3249368618708 134.49622478871606,182.14726958947722 134.79093949333765,182.51275045255898 134.83304159366526,182.74117588269291 135.12775629828684,183.01528628816595 135.33826680132188,183.47213669511257 135.63298150571063,184.3401515429723 135.92769621009938,184.93405574030476 135.88559410953894,186.12186243198812 136.43292141752318,187.1726126128342 136.60132981999777,187.675144680019 136.8960445241537,188.22336101706605 137.40126973181032,188.86294613225618 137.65388233563863,189.0 136.68553402111866,187.62945996341296 136.47502351808362,186.89850404136814 136.0540025117807,185.98480792954797 135.88559410953894,185.3909047365305 135.33826680132188,184.6142612430849 134.87514369445853,183.28939657268347" stroke="#4dd2ff" stroke-linecap="round" stroke-linejoin="round" stroke-width="0.5"><title>2023-10-20 1.4km</title><desc>10069668027</desc></polyline><polyline fill="none" points="153.5208780579269,171.0 153.6066053735558,171.69768395990832 154.29242389835417,173.3721223237808 154.4638785298448,174.39538803097093 155.87837923737243,177.83726962580113 156.00697021069936,178.302387323929 156.0926975265611,179.0000632299343 156.26415215758607,179.46518007316627 157.29287994513288,180.90704011387425 157.85010749660432,182.02331659808988 158.19301675911993,183.13959111261647 158.4930623639375,183.7442389856442 158.6645169951953,184.67446535412455 158.87883528415114,185.13957802538062 159.43606283562258,186.58142513339408 159.52179015125148,187.13955861562863 160.33619964984246,188.81395610782783 160.5505179387983,189.0 160.67910891212523,189.0 160.76483622775413,188.95348903205013 160.7219725700561,188.9069780607242 159.86469941399992,187.83722477586707 159.47892649355344,186.5349139876198 158.6645169951953,185.04655551846372 158.53592602163553,184.44190889014862 158.45019870600663,183.41865943354787" stroke="#4dd2ff" stroke-linecap="round" stroke-linejoin="round" stroke-width="0.5"><title>2023-10-19 1.3km</title><desc>10064004415</desc></polyline><polyline fill="none" points="175.94113790709525,171.0 177.7058605561033,173.29788272990845 177.5882123792544,174.95746281044558 177.82350873248652,176.61704130494036 178.64704596903175,179.55321475525852 179.82352773472667,181.46810780919623 181.00000950088724,184.7872507669963 183.35297303367406,188.61702321912162 183.7059175632894,189.0 184.05886209290475,188.87234108219855 182.52943579666317,187.3404333399376 179.70587955834344,181.8510861665709 178.9999904986471,179.4255551431561 176.99997149594128,175.21278268191963" stroke="#4dd2ff" stroke-linecap="round" stroke-linejoin="round" stroke-width="0.5"><title>2023-10-18 1.0km</title><desc>10058081424</desc></polyline><polyline fill="none" points="16.858259035274386,192.09091406327207 17.863616143818945,197.95456616184674 20.50267855450511,204.9091062474763 22.26205349434167,208.59091103076935 23.016071326099336,209.0 23.39308024197817,209.0 23.644419518765062,208.4545480213128 22.764732049312443,207.36364358162973 21.633705301675946,205.59092249977402 20.125669638626277,202.31820220442023 19.49732144596055,200.4091126989806 16.858259035274386,195.09092442982364 16.606919758487493,194.27274026570376 16.355580481234938,191.0" stroke="#4dd2ff" stroke-linecap="round" stroke-linejoin="round" stroke-width="0.5"><title>2023-10-17 1.0km</title><desc>10051702317</desc></polyline><polyline fill="none" points="38.83764661941677,191.41538655466866 40.11367717105895,193.63077996543143 42.02772299852222,198.61540561076254 43.04854743974283,200.55386757676024 44.1969749359414,204.15386307716835 45.60060854302719,207.75385169649962 46.11102076387033,208.72307822608855 46.74903603922576,209.0 46.87663909466937,208.86153911834117 46.74903603922576,208.44615641143173 45.345402432605624,206.36924150353298 43.431356605608016,201.66155923274346 42.02772299852222,198.75386724586133 40.87929550232366,193.3538559313165 40.241280226036906,191.0" stroke="#4dd2ff" stroke-linecap="round" stroke-linejoin="round" stroke-width="0.5"><title>2023-10-16 1.0km</title><desc>10046279660</desc></polyline><polyline fill="none" points="62.02797523140907,191.0 62.55459101544693,192.14286210003775 63.08120679855347,194.71429936750792 64.26609231065959,198.71430613135453 65.8459396599792,201.14287764916662 67.6890949010849,208.00000437430572 68.34736463055015,208.71428701665718 69.26894225087017,209.0 69.40059619722888,208.71428701665718 69.26894225087017,207.8571478142403 67.55744095565751,205.42858468799386 66.63586333487183,202.57144771213643 65.58263176865876,200.85716351040173 63.08120679855347,195.0000144095393 62.15962917776778,191.0" stroke="#4dd2ff" stroke-linecap="round" stroke-linejoin="round" stroke-width="0.5"><title>2023-10-15 1.0km</title><desc>10039610121</desc></polyline><polyline fill="none" points="84.82566064223647,192.3064571354771 85.22699292004108,196.51614647032693 86.29721232876182,199.5645365928067 87.63498658919707,201.45163288107142 88.43765114573762,204.06453245715238 90.71186738833785,208.12903603585437 91.24697709223256,208.70967872138135 91.91586422314867,209.0 92.31719650095329,208.70967872138135 92.31719650095329,208.2741967231268 89.64164797961712,206.0967852922622 87.90254144137725,202.9032441836316 87.23365431139246,200.1451817966299 85.62832519831136,196.51614647032693 84.82566064223647,193.4677516417578 84.95943806832656,191.5806477224687 84.82566064223647,191.0" stroke="#4dd2ff" stroke-linecap="round" stroke-linejoin="round" stroke-width="0.5"><title>2023-10-14 1.0km</title><desc>10033377496</desc></polyline><polyline fill="none" points="107.34729970851913,191.28571558836848 109.71707038441673,194.1428691581823 109.98037823755294,196.2857315784786 112.21849498711526,203.14287544356193 114.32495781034231,208.14286092377733 114.98322744248435,209.0 115.50984314829111,209.0 115.50984314829111,208.5714305093279 115.37818922149017,208.14286092377733 114.19330388354138,207.2857214693213 112.87676461972296,204.85715762886684 111.42857142817229,200.28573510737624 108.79549289960414,194.42858428391628 108.40053112013265,192.42857752018608 107.74226148752496,191.0" stroke="#4dd2ff" stroke-linecap="round" stroke-linejoin="round" stroke-width="0.5"><title>2023-10-13 1.0km</title><desc>10028006924</desc></polyline><polyline fill="none" points="130.42353148944676,191.0 131.6898209308274,192.6488621745957 132.4495945959352,194.0229128751671 132.57622354011983,195.80917727621272 132.4495945959352,197.73284472187515 133.84251298103482,200.6183421780588 135.48868925496936,205.0152821157826 137.1348655289039,208.03817232279107 137.5147523614578,208.58778819919098 138.1478970819153,209.0 138.1478970819153,208.31298028118908 136.75497869635,206.5267278305255 135.48868925496936,204.32826093258336 133.84251298103482,199.79391478805337 132.82948142802343,198.007654195535 132.32296565175056,196.4962015914498" stroke="#4dd2ff" stroke-linecap="round" stroke-linejoin="round" stroke-width="0.5"><title>2023-10-12 1.0km</title><desc>10021974100</desc></polyline><polyline fill="none" points="155.03835899429396,193.5522495948244 155.53353502880782,196.23882426461205 155.40974102029577,197.31345302646514 156.52388709876686,200.9403204311384 157.3904451597482,202.5522591888439 158.2570032211952,205.50747655145824 159.49494330817834,208.46268913452514 159.74253132613376,208.73134458682034 160.361501370091,209.0 160.23770736064762,208.46268913452514 158.87597326468676,204.97016465931665 157.3904451597482,202.41793101315852 155.40974102029577,197.85076717019547 154.91456498485059,196.1044956248952 154.66697696782649,193.5522495948244 153.9242129153572,191.0" stroke="#4dd2ff" stroke-linecap="round" stroke-linejoin="round" stroke-width="0.5"><title>2023-10-10 1.0km</title><desc>10009069592</desc></polyline><polyline fill="none" points="176.95066273305565,193.2500098424498 177.80447716778144,195.6323701395886 178.65829160250723,198.80884563201107 180.48789396276698,202.7794321157271 181.95157585060224,207.80882909044158 182.80539028532803,209.0 183.04933726694435,208.60294311773032 183.17131075728685,207.14706713322084 182.31749632256106,204.63236947765108 180.48789396276698,201.4559042607434 178.41434462135658,195.6323701395886 177.80447716778144,192.98530294792727 176.8286892422475,191.0" stroke="#4dd2ff" stroke-linecap="round" stroke-linejoin="round" stroke-width="0.5"><title>2023-10-09 1.0km</title><desc>10003389142</desc></polyline><polyline fill="none" points="16.33512142067775,211.0 17.23526703706011,212.11628403502982 18.135412653442472,214.20931483071763 18.649781576357782,218.3953694977099 20.578665039502084,222.58141493203584 22.25036404049024,227.3255885966355 23.021917425561696,228.7209315354703 23.66487857978791,229.0 23.66487857978791,227.88372589554638 21.221626193728298,223.97676135855727 18.00682042259723,216.1628081573872 16.72089811321348,211.13953554059844" stroke="#4dd2ff" stroke-linecap="round" stroke-linejoin="round" stroke-width="0.5"><title>2023-10-08 1.0km</title><desc>9996447828</desc></polyline><polyline fill="none" points="40.54661695752293,214.60001482162625 41.13905949611217,216.78573449037503 42.91638711094856,221.54287962068338 43.5088296495378,223.60001945286058 45.404645771719515,228.35714604717214 45.997088310308754,229.0 46.11557681765407,228.48571685678326 46.11557681765407,227.97143356245942 43.86429517250508,223.98573290207423 42.797898603603244,221.67145093088038 40.90208248049021,216.01430433080532 40.30963994190097,213.05715223390143 39.59870889596641,211.0" stroke="#4dd2ff" stroke-linecap="round" stroke-linejoin="round" stroke-width="0.5"><title>2023-10-07 1.0km</title><desc>9989974159</desc></polyline><polyline fill="none" points="64.24368393886834,216.36172163987067 65.18486907472834,219.42555514350533 65.89075792720541,220.9574698683573 67.3025356316939,226.95745619398076 67.65548005746678,228.10638738039415 68.36136890994385,229.0 68.94960961956531,229.0 69.18490590341389,228.48936427361332 69.06725776195526,228.10638738039415 67.65548005746678,226.06384252291173 66.24370235297829,223.00002073205542 65.77310978528112,220.9574698683573 63.30249880300835,214.95746281091124 62.94955437676981,212.78724238602445 62.2436655247584,211.0" stroke="#4dd2ff" stroke-linecap="round" stroke-linejoin="round" stroke-width="0.5"><title>2023-10-06 1.0km</title><desc>9984428862</desc></polyline><polyline fill="none" points="84.69626793684438,211.0 86.73582616588101,216.45903345034458 88.0955316517502,221.0328068000963 90.40703097777441,226.78689395042602 91.35882481792942,228.7049193349667 91.76673646364361,229.0 92.31061865808442,229.0 92.44658920634538,228.7049193349667 92.03867756016552,227.96721748064738 90.40703097777441,225.60656972648576 89.4552371376194,223.6885413810378 87.82359055429697,219.40985615958925 87.1437378115952,217.19673953438178 85.24015013175085,213.65574785752688 85.24015013175085,212.32787436805665" stroke="#4dd2ff" stroke-linecap="round" stroke-linejoin="round" stroke-width="0.5"><title>2023-10-04 1.0km</title><desc>9971682885</desc></polyline><polyline fill="none" points="108.70420093275607,213.10219913115725 109.30961659830064,215.20439578976948 109.9150322638452,216.64965455804486 110.39936479693279,218.8832339918008 112.69994432665408,223.48177109507378 112.82102746004239,225.05840966361575 113.54752625944093,228.21168262825813 113.78969252528623,228.6058413576102 114.51619132468477,229.0 114.51619132468477,227.68613752059173 112.94211059389636,224.79563666554168 111.85236239526421,222.29929125588387 111.24694672878832,221.11681063415017 110.64153106277809,219.40878168831114 109.43069973168895,216.912428754149 108.94636719860137,214.9416213426739 108.70420093275607,212.97081175807398 108.3409515330568,211.0" stroke="#4dd2ff" stroke-linecap="round" stroke-linejoin="round" stroke-width="0.5"><title>2023-10-03 1.0km</title><desc>9965060084</desc></polyline><polyline fill="none" points="130.9954528431408,211.7438048243057 132.64058356406167,217.09919148962945 132.91477201785892,219.47935879125725 133.8744316054508,220.66944139194675 134.55990273924544,222.45456398068927 135.79375077970326,227.06612337986007 136.75341036729515,228.55372094386257 137.43888150108978,229.0 137.57597572822124,228.8512403254863 137.1646930477582,227.6611625365913 135.65665655350313,224.83472498285118 133.1889604711905,218.88431722810492 131.68092397693545,214.42149992857594 131.40673552360386,211.0" stroke="#4dd2ff" stroke-linecap="round" stroke-linejoin="round" stroke-width="0.5"><title>2023-10-02 1.0km</title><desc>9958643020</desc></polyline><polyline fill="none" points="154.2896525147371,214.16801199468318 154.55506689846516,215.46401542495005 157.4746251227334,222.37601923558395 158.93440423440188,226.84000873356126 159.73064738651738,228.4240025616018 160.5268905381672,229.0 160.65959773072973,228.85600065614562 160.5268905381672,228.2800031756051 157.87274669809267,224.2480160703417 155.35131005058065,218.0560197121231 154.15694532264024,214.31201241828967 153.62611655471846,211.0" stroke="#4dd2ff" stroke-linecap="round" stroke-linejoin="round" stroke-width="0.5"><title>2023-10-01 1.0km</title><desc>9952075403</desc></polyline><polyline fill="none" points="177.41557656321675,213.60870696778875 178.4974282346666,215.8261048743734 178.97825119877234,218.04350000969134 179.3388684228994,220.1304576053517 181.14195454167202,225.21740646020044 182.70462917815894,228.47826343949419 183.42586362501606,229.0 183.6662751082331,228.60869759391062 181.26216028351337,224.95653764309827 180.18030861206353,222.47828196594492 179.81969138793647,221.17393548239488 178.13681101053953,217.52176022715867 177.17516508046538,213.47827171022072 176.3337248917669,211.0" stroke="#4dd2ff" stroke-linecap="round" stroke-linejoin="round" stroke-width="0.5"><title>2023-09-30 1.0km</title><desc>9945549317</desc></polyline><polyline fill="none" points="17.213150607421994,231.0 18.407514633145183,233.0160082259681 18.805635974742472,234.60001323360484 19.867292886134237,237.19201866455842 20.39812134252861,241.0800203795079 20.79624268459156,242.23201940534636 22.38872805144638,246.12001111591235 22.78684939350933,248.56800193735398 23.052263621706516,248.85600065637846 23.450384963303804,249.0 23.583092077169567,248.7120013020467 21.19436402618885,244.39201575319748 19.601878658868372,240.64802057005 19.07105020293966,238.48802009352949 17.213150607421994,234.16801199526526 16.416907923296094,231.57600256206933" stroke="#4dd2ff" stroke-linecap="round" stroke-linejoin="round" stroke-width="0.5"><title>2023-09-28 1.0km</title><desc>9933629332</desc></polyline><polyline fill="none" points="39.338390389457345,233.04546334245242 40.34374823747203,236.5909277930623 42.22879420174286,239.1818398362957 43.485491511877626,243.81819972326048 45.244867745321244,246.9545542517444 45.747546669561416,248.72727403056342 46.250225592870265,249.0 46.50156505545601,248.59091103065293 46.250225592870265,248.04545893135946 45.244867745321244,246.6818279812578 42.35446393257007,240.81820347253233 40.84642716078088,236.72729167481884 39.21272065863013,231.0" stroke="#4dd2ff" stroke-linecap="round" stroke-linejoin="round" stroke-width="0.5"><title>2023-09-27 1.0km</title><desc>9927137811</desc></polyline><polyline fill="none" points="67.20960708102211,231.0 66.85072995279916,232.73079315607902 66.49185282480903,233.72599691554205 66.21272616973147,234.93754704669118 64.57784147537313,238.35583575541386 63.74046151014045,239.78372262767516 63.58096056431532,240.38949176907772 63.66071103699505,240.86545280006249 63.86008721939288,241.55775906681083 64.45821576588787,243.02890717971604 64.6575919482857,243.4183281234 64.8968433670234,244.11063138698228 65.69434809591621,245.10581590171205 66.05322522390634,245.88465478277067 66.45197758846916,246.49041764438152 66.77097948011942,247.3557920793537 67.24948231736198,248.00482207047753 67.8476108640898,249.0" stroke="#4dd2ff" stroke-linecap="round" stroke-linejoin="round" stroke-width="0.5"><title>2023-09-26 1.0km</title><desc>9920397094</desc></polyline><polyline fill="none" points="88.48736693430692,231.0 87.70279165706597,233.61488918599207 86.91821637982503,235.01354744983837 86.18968219356611,235.92571460851468 85.79739455506206,236.65544761100318 85.62927128141746,237.38517996965675 85.68531237216666,238.29734451253898 85.96551782870665,239.02707542252028 86.63801092351787,240.06085977627663 86.91821637982503,241.0946428378229 87.47862729197368,242.43247782281833 88.54340802552179,243.77031064400217 90.33672294509597,247.4189346122439 91.5135858610738,249.0" stroke="#4dd2ff" stroke-linecap="round" stroke-linejoin="round" stroke-width="0.5"><title>2023-09-25 1.0km</title><desc>9914573673</desc></polyline><polyline fill="none" points="112.7556203219574,231.0 112.31327069085091,231.67200891877292 112.22480076458305,232.00801311869873 112.31327069085091,232.4400182645768 112.35750565398484,232.8720231244224 111.47280639153905,234.50403890397865 111.2516315758694,235.60804726480274 110.94198683439754,236.42405224451795 109.08411838323809,239.68806196353398 109.03988342010416,240.07206203386886 109.21682327240705,240.8400614973507 109.7034078668803,241.6080600572168 109.96881764568388,242.2800580559997 110.36693231365643,242.95205536298454 110.58810712932609,243.62405197828775 111.16316164983436,244.53604627848836 111.60551128070801,245.44803930463968 112.09209587541409,245.9760346848634 112.22480076458305,246.45603011449566 112.53444550652057,246.8400262040086 113.1979699532967,247.99201311788056 113.68455454753712,248.5200064406381 113.81725943693891,249.0" stroke="#4dd2ff" stroke-linecap="round" stroke-linejoin="round" stroke-width="0.5"><title>2023-09-24 1.0km</title><desc>9907510217</desc></polyline><polyline fill="none" points="134.9567557135597,231.0 134.58097251388244,231.5825306751649 134.31255594291724,232.1650609219796 134.15150600019842,232.9223496025661 134.097822685726,233.9126490924391 133.18520634365268,235.13595851819264 132.64837320125662,236.53402412019204 132.16522337310016,237.23305599595187 131.84312348766252,238.16509753774153 131.7894401731901,239.15539047430502 132.91678977245465,242.00975730718346 133.3462562863715,242.8835410165484 134.7420224568341,245.09712210064754 135.33253891323693,246.5534220727859 136.08410531282425,247.4854526500567 136.5135718267411,248.24272668687627 136.78198839817196,249.0" stroke="#4dd2ff" stroke-linecap="round" stroke-linejoin="round" stroke-width="0.5"><title>2023-09-23 1.0km</title><desc>9901004991</desc></polyline><polyline fill="none" points="157.83403019490652,231.0 157.47564416797832,231.6666743136011 157.11725814105012,232.83335294673452 156.29809007933363,234.5555895413272 155.47892201761715,235.7222637136001 154.76214996376075,237.66671666427283 154.7109519597143,238.72227474185638 154.8133479678072,239.33338663936593 155.83730804454535,241.7778292860603 155.99090205621906,242.5000494637643 156.19569407147355,242.88893696578452 156.91246612532996,243.77782193332678 157.47564416797832,244.88892667199252 157.93642620253377,246.05558488948736 158.70439626043662,247.16668627905892 159.57476232596673,249.0" stroke="#4dd2ff" stroke-linecap="round" stroke-linejoin="round" stroke-width="0.5"><title>2023-09-22 1.0km</title><desc>9895405405</desc></polyline><polyline fill="none" points="180.95418478921056,231.0 180.80738712917082,231.53097987367073 180.51379180978984,231.84956761042122 179.87766861682758,233.01772144268034 179.63300585048273,233.86728667921852 178.89901755098253,235.72570714971516 178.11609669867903,237.3186351749464 177.62677116552368,238.48678016033955 177.47997350571677,239.07085194438696 177.47997350571677,239.44253374281107 177.62677116552368,239.97350740875117 177.92036648537032,240.5044806843507 178.55648967833258,242.15049535757862 179.19261287082918,243.31863252696348 179.53514074371196,244.16818564524874 180.1712639364414,245.2301256377832 180.56272436259314,245.7079981250572 180.8563196824398,246.55754843255272 181.63924053497612,247.93806555081392 182.5200264940504,249.0" stroke="#4dd2ff" stroke-linecap="round" stroke-linejoin="round" stroke-width="0.5"><title>2023-09-21 1.0km</title><desc>9889267953</desc></polyline><polyline fill="none" points="21.83262381213717,251.0 21.190260826377198,252.9271348346956 20.812400246737525,254.4442362957052 20.207823318662122,255.71531812573085 19.489888217067346,257.84744888261775 18.2429483034648,260.184582846734 17.902873781742528,261.4556515922013 17.9406598394271,261.7426667143882 18.167376187397167,262.3576986216649 18.658594941487536,263.42375232084305 18.960883405292407,264.32579616687144 19.716604565037414,265.3918461037101 20.17003726097755,266.2528849497321 20.43453966663219,266.86791188293137 20.73682813043706,267.4009346763487 21.22804688452743,267.76995015799184 21.83262381213717,268.6719869741064 21.870409870287403,268.8359935111657 22.097126218257472,269.0" stroke="#4dd2ff" stroke-linecap="round" stroke-linejoin="round" stroke-width="0.5"><title>2023-09-20 1.0km</title><desc>9882714971</desc></polyline><polyline fill="none" points="44.34964588400908,251.0 43.96585939149372,251.97173551184824 43.24092934979126,254.10029377049068 43.19828640623018,254.79438729817048 42.94242874439806,255.16457019996597 42.64392813923769,255.85866255377186 42.47335636452772,256.506481393415 42.13221281557344,257.3856630375376 41.15142511203885,258.9589323879336 40.89556745020673,259.8843831096892 40.81028156308457,260.7172875957913 40.89556745020673,261.55019097944023 41.15142511203885,262.47563789068954 41.44992571719922,263.1234499189886 42.38807047717273,264.74297707213555 42.8571428572759,265.39078676642384 43.283572293352336,266.5475881336024 43.7100017296616,267.2879398926161 44.13643116573803,267.889475055621 44.60550354560837,268.35219402058283 44.9040041512344,269.0" stroke="#4dd2ff" stroke-linecap="round" stroke-linejoin="round" stroke-width="0.5"><title>2023-09-19 1.0km</title><desc>9876194288</desc></polyline><polyline fill="none" points="65.58179233595729,251.0 65.26380822854117,251.51757766940864 64.7338347164914,252.5527319808025 64.57484266278334,253.24283409374766 63.6208903407678,254.91057835303945 62.878927423618734,256.46330257016234 62.71993536991067,257.03838483133586 62.77293272130191,257.6709748299909 63.090916828718036,258.47608863416826 63.56789298960939,259.3387096473016 63.991871799575165,260.5463774675154 64.57484266278334,261.81155127921375 65.21081087738276,262.96170751401223 65.79378174105659,263.70930815977044 66.48274730681442,264.85946160397725 66.90672611654736,266.182135974057 67.64868903392926,267.3322857822059 68.01967049250379,268.36741916363826 68.70863605849445,269.0" stroke="#4dd2ff" stroke-linecap="round" stroke-linejoin="round" stroke-width="0.5"><title>2023-09-18 1.0km</title><desc>9870505463</desc></polyline><polyline fill="none" points="88.75229630596004,251.0 88.49391382816248,251.5046786859748 88.13217835919932,253.18693856027676 87.66708989907056,253.97199189837556 87.46038391673937,254.58881895412924 86.32350101415068,256.43929712829413 85.91008904972114,257.4486469672411 85.65170657169074,258.3458457023953 85.85841255402192,258.9626692206948 86.99529545637779,261.4299583049142 87.56373690790497,262.3271523566218 87.97714887233451,263.2804198800004 88.64894331479445,264.17761175491614 89.01067878399044,264.79443055659067 89.47576724388637,266.2523639231222 91.49115057126619,269.0" stroke="#4dd2ff" stroke-linecap="round" stroke-linejoin="round" stroke-width="0.5"><title>2023-09-16 1.0km</title><desc>9856514700</desc></polyline><polyline fill="none" points="111.17974881874397,251.0 110.62680968595669,252.68001679936424 109.90798881347291,253.82002622907748 108.41505315480754,256.7000429572654 108.35975924157538,257.36004535935353 108.41505315480754,258.1400475098053 108.74681663466617,258.92004891473334 109.29975576745346,259.76004959398415 109.79740098677576,260.9000491327606 110.68210359918885,262.4000460996176 111.78798186499625,264.50003722141264 111.89856969146058,265.2800325474236 112.28562708431855,265.58003055123845 112.72797839064151,266.18002622795757 113.44679926312529,267.38001625816105 114.22091404884122,268.04001002263976 114.38679578877054,268.46000577666564 114.4973836154677,269.0" stroke="#4dd2ff" stroke-linecap="round" stroke-linejoin="round" stroke-width="0.5"><title>2023-09-15 1.0km</title><desc>9850671982</desc></polyline><polyline fill="none" points="134.7433185132686,251.0 133.82811005809344,253.4207119922503 132.7985005460214,254.91037746024085 132.3408963184338,255.7172784911818 131.65448997705244,257.4552165536443 131.4828883917071,258.07590785168577 131.4828883917071,258.57246056129225 131.65448997705244,259.193151037849 132.3408963184338,261.05521972937277 132.97010213136673,262.29659657517914 134.51451639970765,264.96555061248364 135.14372221240774,266.14485319692176 135.25812326930463,266.82760657178005 135.7157274968922,267.26208570454037 136.45933436672203,268.44138508086326 137.08854017965496,269.0" stroke="#4dd2ff" stroke-linecap="round" stroke-linejoin="round" stroke-width="0.5"><title>2023-09-14 1.0km</title><desc>9844236351</desc></polyline><polyline fill="none" points="154.28210389474407,251.0 154.61139923264273,251.26799398573348 154.73488498432562,251.535987853189 154.8172088188585,252.11664082697826 155.06418032222427,252.60796214069705 155.22882799129002,253.99259279557737 155.22882799129002,254.66257423744537 155.14650415675715,255.01989737094846 155.22882799129002,255.46655099239433 155.43463757727295,256.00253490457544 155.3523137429729,256.4491878034314 155.39347566012293,256.6725141296629 155.80509483255446,257.4318230249919 156.17555208783597,258.54845202929573 156.5048474255018,259.17376337520545 156.91646659793332,259.7544090486481 157.36924768751487,260.1563941896311 157.49273343919776,260.42438413598575 157.6162191911135,261.00502861407585 157.94551452901214,261.5856725371559 158.31597178406082,262.6576290910598 158.8099147907924,263.5955895241932 159.05688629415818,264.39955445716623 159.1803720460739,265.0695244217641 159.42734354943968,265.6054998616455 159.88012463902123,267.0794298829278 160.49755339766853,268.2407055631047 160.53871531505138,268.41936316300416 160.49755339766853,268.5533563285135 160.00361039070413,269.0 160.25058189430274,268.8213425707654 160.37406764598563,268.5533563285135 160.45639148028567,268.330034369661 160.41522956336848,268.0173834892921 160.16825805976987,267.70473244803725 159.42734354943968,266.0968102659681 159.05688629415818,264.89086583675817 158.2748098669108,263.14894187945174 157.9043526116293,261.45167783496436 157.69854302564636,260.96036367397755 156.91646659793332,259.9330691441428 156.13439017045312,258.45912178448634 155.7639329151716,257.2531621938688 155.64044716372155,256.4491878034314 155.31115182559006,255.60054701479385 154.65256115002558,254.1712545856717 154.48791348095983,253.50127260189038 153.9116466396954,252.4292998908204 153.78816088777967,251.84864721581107 153.74699897062965,251.1339970076806" stroke="#4dd2ff" stroke-linecap="round" stroke-linejoin="round" stroke-width="0.5"><title>2023-09-13 1.0km</title><desc>9837636972</desc></polyline></svg>