<?xml version="1.0" encoding="utf-8" ?>
<svg baseProfile="full" height="300mm" version="1.1" viewBox="0,0,200,300" width="200mm" xmlns="http://www.w3.org/2000/svg" xmlns:ev="http://www.w3.org/2001/xml-events" xmlns:xlink="http://www.w3.org/1999/xlink"><defs /><rect fill="#222222" height="300" width="200" x="0" y="0" /><text fill="#FFFFFF" style="font-size:12px; font-family:Arial; font-weight:bold;" x="10" y="20">Over 1km Runs</text><text fill="#FFFFFF" style="font-size:4px; font-family:Arial" x="10" y="280">ATHLETE</text><text fill="#FFFFFF" style="font-size:9px; font-family:Arial" x="10" y="290">Jiakai</text><text fill="#FFFFFF" style="font-size:4px; font-family:Arial" x="120" y="280">STATISTICS</text><text fill="#FFFFFF" style="font-size:3px; font-family:Arial" x="120" y="285">Number: 4</text><text fill="#FFFFFF" style="font-size:3px; font-family:Arial" x="120" y="290">Weekly: 4.0</text><text fill="#FFFFFF" style="font-size:3px; font-family:Arial" x="141" y="285">Total: 4.0 km</text><text fill="#FFFFFF" style="font-size:3px; font-family:Arial" x="141" y="290">Avg: 1.0 km</text><text fill="#FFFFFF" style="font-size:3px; font-family:Arial" x="167" y="285">Min: 1.0 km</text><text fill="#FFFFFF" style="font-size:3px; font-family:Arial" x="167" y="290">Max: 1.0 km</text><polyline fill="none" points="55.813904805108905,34.5 54.65118365455419,36.77105408674106 53.02337404433638,44.3412235211581 50.93047597352415,47.87396354251541 50.000299053266644,50.64968529343605 44.88432599231601,58.97683707717806 43.02397215180099,63.51891135238111 41.86125100124627,67.5563056608662 42.79142792150378,70.3320114929229 47.90740098245442,81.4348123720847 50.46538751386106,85.47218560473993 52.325741353444755,89.76188946003094 55.34881634451449,93.79925289703533 56.97662595566362,96.57493750448339 59.069524025544524,103.13563765399158 68.13874899875373,115.5" stroke="#4dd2ff" stroke-linecap="round" stroke-linejoin="round" stroke-width="0.5"><title>2023-09-16 1.0km</title><desc>9856514700</desc></polyline><polyline fill="none" points="143.88029825594276,34.5 141.39207215886563,42.060075596906245 138.15737823210657,47.19011803064495 131.43916776869446,60.15019330754876 131.19034515880048,63.120204117149115 131.43916776869446,66.63021379406564 132.932103427127,70.14022011635825 135.42032952513546,73.92022317275405 137.6597330123186,79.05022109742276 141.64089476782829,85.80020744819194 146.6173469638452,95.25016749626957 147.11499218270183,98.76014646352269 148.85675045102835,100.11013748054393 150.84733132924885,102.81011802586727 154.0820252550766,108.21007316187024 157.56554179172963,111.18004510202445 158.31200962141156,113.0700259951409 158.80965484119952,115.5" stroke="#4dd2ff" stroke-linecap="round" stroke-linejoin="round" stroke-width="0.5"><title>2023-09-15 1.0km</title><desc>9850671982</desc></polyline><polyline fill="none" points="57.05921902414411,184.5 52.94078097585589,195.39320396538824 48.3075381712988,202.09669857122935 46.24831914808601,205.72775321057998 43.15949061140418,213.54847449157387 42.38728347700089,216.3415853327606 42.38728347700089,218.57607252593152 43.15949061140418,221.3691796704661 46.24831914808601,229.74848878220655 49.07974530570209,235.33468458848074 56.02960951253772,247.34497775649652 58.8610356701538,252.65183938643895 59.37584042549133,255.72422957327217 61.43505945056677,257.6793856706936 64.7812903644517,262.98623286397196 67.61271652299911,265.5" stroke="#4dd2ff" stroke-linecap="round" stroke-linejoin="round" stroke-width="0.5"><title>2023-09-14 1.0km</title><desc>9844236351</desc></polyline><polyline fill="none" points="132.1266103843227,184.5 133.6084394045174,185.70597293577157 134.164125286974,186.91194533952512 134.53458254318684,189.52488372148946 135.64595430810004,191.73582963319495 136.38686881866306,197.96666758018546 136.38686881866306,200.98158406862058 136.01641156338155,202.58953816932626 136.38686881866306,204.5994794657454 137.31301195640117,207.01140707056038 136.94255470111966,209.02134511549957 137.12778332829475,210.0263135835994 138.9800696047023,213.44320361246355 140.64712725300342,218.4680341319181 142.12895627319813,221.28193518845364 143.98124254867435,223.89484071871266 146.01875745132565,225.70377385336906 146.57444333471358,226.90972861181945 147.13012921717018,229.52262876322493 148.6119582382962,232.13552641728893 150.279015885666,236.95933090988547 152.50175941642374,241.1801528588403 153.61313118226826,244.79799505718984 154.16881706472486,247.81285989796743 155.2801888305694,250.224749377463 157.3177037332207,256.8574344732333 160.09613314736634,262.0831750340294 160.28136177547276,262.88713423372246 160.09613314736634,263.49010347831063 157.8733896156773,265.5 158.98476138152182,264.69604156864807 159.54044726397842,263.49010347831063 159.91090451925993,262.48515466367826 159.72567589208484,261.07822570204735 158.61430412717164,259.6712960160803 155.2801888305694,252.43564619706012 153.61313118226826,247.00889626541175 150.09378725849092,239.17023845762014 148.4267296101898,231.53255025739782 147.5005864724517,229.321636532899 143.98124254867435,224.69881114875898 140.461898624897,218.06604803027585 138.79484097659588,212.6392298724968 138.2391550950706,209.02134511549957 136.75732607301325,205.2024615665432 133.79366803262383,198.7706456356682 133.0527535220608,195.7557267085649 130.45955273602158,190.9318495085463 129.90386685356498,188.31891247117892 129.71863822545856,185.10298653459176" stroke="#4dd2ff" stroke-linecap="round" stroke-linejoin="round" stroke-width="0.5"><title>2023-09-13 1.0km</title><desc>9837636972</desc></polyline></svg>