<?xml version="1.0" encoding="utf-8" ?>
<svg baseProfile="full" height="300mm" version="1.1" viewBox="0,0,200,300" width="200mm" xmlns="http://www.w3.org/2000/svg" xmlns:ev="http://www.w3.org/2001/xml-events" xmlns:xlink="http://www.w3.org/1999/xlink"><defs /><rect fill="#222222" height="300" width="200" x="0" y="0" /><text fill="#FFFFFF" style="font-size:12px; font-family:Arial; font-weight:bold;" x="10" y="20">Over 1km Runs</text><text fill="#FFFFFF" style="font-size:4px; font-family:Arial" x="10" y="280">ATHLETE</text><text fill="#FFFFFF" style="font-size:9px; font-family:Arial" x="10" y="290">Jiakai</text><text fill="#FFFFFF" style="font-size:4px; font-family:Arial" x="120" y="280">STATISTICS</text><text fill="#FFFFFF" style="font-size:3px; font-family:Arial" x="120" y="285">Number: 7</text><text fill="#FFFFFF" style="font-size:3px; font-family:Arial" x="120" y="290">Weekly: 3.5</text><text fill="#FFFFFF" style="font-size:3px; font-family:Arial" x="141" y="285">Total: 7.1 km</text><text fill="#FFFFFF" style="font-size:3px; font-family:Arial" x="141" y="290">Avg: 1.0 km</text><text fill="#FFFFFF" style="font-size:3px; font-family:Arial" x="167" y="285">Min: 1.0 km</text><text fill="#FFFFFF" style="font-size:3px; font-family:Arial" x="167" y="290">Max: 1.0 km</text><polyline fill="none" points="45.497871436644346,33.0 43.570782479364425,38.78140450408682 42.437200740445405,43.33270888705738 40.623469956219196,47.145954377250746 38.46966465143487,53.54234664782416 34.7288449103944,60.55374854023103 33.708621344994754,64.36695477657486 33.82197951851413,65.22800014319364 34.50212856242433,67.07309586496558 35.97578482422978,70.27125696255825 36.88265021611005,72.97738850058522 39.149813695345074,76.17553831113037 40.510111783165485,78.75865484925453 41.3036190001294,80.6037356487941 42.210484391544014,82.2028040291043 43.68414065381512,83.30985047400463 45.497871436644346,86.01596092234831 45.61122961109504,86.50798053340986 46.291378655005246,87.0" stroke="#4dd2ff" stroke-linecap="round" stroke-linejoin="round" stroke-width="0.5"><title>2023-09-20 1.0km</title><desc>9882714971</desc></polyline><polyline fill="none" points="164.47750908043236,33.0 163.3261496028863,35.91520653560292 161.15135947801173,42.30088131153025 161.02343064686283,44.38316189462785 160.25585766136646,45.4937105999561 159.36035584565252,47.57598766149022 158.8486405215226,49.51944418030325 157.82520987465978,52.15698911272921 154.8828467647545,56.87679716385901 154.11527377925813,59.6531493292423 153.85941611789167,62.15186278743204 154.11527377925813,64.6505729383789 154.8828467647545,67.42691367224324 155.77834858000278,69.37034975702409 158.5927828596905,74.22893121652305 160.0,76.17236029927153 161.2792883082293,79.64276440080721 162.55857661738992,81.86381967796478 163.83786492561921,83.66842516697943 165.24508206546307,85.0565820618067 166.14058388210833,87.0" stroke="#4dd2ff" stroke-linecap="round" stroke-linejoin="round" stroke-width="0.5"><title>2023-09-19 1.0km</title><desc>9876194288</desc></polyline><polyline fill="none" points="39.60251986607909,93.0 38.64856754336506,94.55273300828412 37.05864700768143,97.65819594240747 36.58167084585875,99.72850228124298 33.719813879579306,104.73173505929299 31.493925128132105,109.38990771071985 31.01694896724075,111.11515449406579 31.175941021181643,113.01292449003085 32.129893343895674,115.42826590244658 33.560821826569736,118.01612894213758 34.83275825623423,121.63913240260445 36.58167084585875,125.43465383769944 38.48957549035549,128.8851225420367 40.23848808091134,131.12792447931133 42.30538477841765,134.57838481198996 43.57732120715082,138.54640792217106 45.80320995952934,141.99685734673403 46.91615433525294,145.10225749085657 48.98305103275925,147.0" stroke="#4dd2ff" stroke-linecap="round" stroke-linejoin="round" stroke-width="0.5"><title>2023-09-18 1.0km</title><desc>9870505463</desc></polyline><polyline fill="none" points="160.5426032030955,93.0 159.7674557697028,94.51403605786618 158.68224936258048,99.56081568065565 157.28698398265988,101.91597569501027 156.66686603520066,103.7664568623295 153.25621732790023,109.31789138482418 152.0159814339131,112.34594090166502 151.2408340005204,115.03753710712772 151.8609519470483,116.88800766202621 155.27160065434873,124.28987491468433 156.97692500893027,126.98145706986543 158.21716090198606,129.84125964005943 160.23254422936589,132.53283526469022 161.31775063741952,134.3832916696556 162.71301601734012,138.75709176936653 168.75916599854827,147.0" stroke="#4dd2ff" stroke-linecap="round" stroke-linejoin="round" stroke-width="0.5"><title>2023-09-16 1.0km</title><desc>9856514700</desc></polyline><polyline fill="none" points="39.25353217124939,153.0 37.59471477288753,158.0400503978599 35.43825215566903,161.46007868717425 30.959445180371404,170.10012887162156 30.793563439510763,172.0801360779442 30.959445180371404,174.42014252929948 31.95473561901599,176.7601467440836 33.61355301737785,179.28014878183603 35.1064886758104,182.70014739828184 37.760596512816846,187.20013829879463 41.07823131047189,193.5001116641797 41.40999478939921,195.84009764227085 42.57116696797311,196.74009165377356 43.89822088740766,198.5400786837563 46.054683504626155,202.14004877442494 48.37702786177397,204.12003006786108 48.87467308156192,205.3800173299387 49.20643656142056,207.0" stroke="#4dd2ff" stroke-linecap="round" stroke-linejoin="round" stroke-width="0.5"><title>2023-09-15 1.0km</title><desc>9850671982</desc></polyline><polyline fill="none" points="161.37281268276274,153.0 158.62718731723726,160.2621359769255 155.53835878055543,164.73113238089718 154.165546098724,167.15183547371998 152.1063270745799,172.36564966104925 151.59152231831104,174.22772355517372 151.59152231831104,175.71738168387674 152.1063270745799,177.57945311372168 154.165546098724,183.16565918829292 156.0531635368243,186.88978972565383 160.6864063423127,194.89665183750913 162.57402378041297,198.4345595908817 162.917226950638,200.48281971551478 164.29003963340074,201.78625711379573 166.5208602435887,205.32415524264798 168.40847768168896,207.0" stroke="#4dd2ff" stroke-linecap="round" stroke-linejoin="round" stroke-width="0.5"><title>2023-09-14 1.0km</title><desc>9844236351</desc></polyline><polyline fill="none" points="31.417740256059915,213.0 32.405626269523054,213.80398195714224 32.77608352480456,214.607963559567 33.02305502817035,216.34992248099297 33.7639695382677,217.82388642209116 34.25791254546493,221.9777783867903 34.25791254546493,223.9877227123361 34.01094104163349,225.05969211284537 34.25791254546493,226.3996529771248 34.875341303646564,228.00760471366812 34.62836980074644,229.34756341029424 34.7518555521965,230.01754238898866 35.98671306949109,232.2954690749757 37.09808483486995,235.6453560879454 38.08597084833309,237.52129012567457 39.320828365627676,239.26322714588605 40.679171634372324,240.4691825689515 41.04962888918817,241.27315240784083 41.42008614446968,243.01508584222756 42.40797215839848,244.75701761152595 43.51934392377734,247.97288727317937 45.00117294397205,250.7867685726378 45.742087454069406,253.19866337138228 46.112544709350914,255.208573265234 46.85345921991393,256.81649958493654 48.21180248865858,261.2382896487834 50.064088764600456,264.72211668931413 50.18757451651618,265.2580894890707 50.064088764600456,265.6600689855404 48.582259743940085,267.0 49.32317425403744,266.46402771235444 49.69363150931895,265.6600689855404 49.94060301221907,264.99010310904123 49.81711726123467,264.05215046799276 49.076202751137316,263.11419734405354 46.85345921991393,258.2904307979625 45.742087454069406,254.6725975102745 43.39585817186162,249.446825638297 42.284486406482756,244.35503350489307 41.667057648301125,242.88109102193266 39.320828365627676,239.79920743242837 36.97459908295423,235.37736535340082 35.863227317109704,231.75948658154812 35.49277006322518,229.34756341029424 34.50488404836506,226.80164104432333 32.52911202143878,222.51376375707332 32.035169014241546,220.50381780567113 30.30636849021539,217.287899672403 29.935911235399544,215.545941647375 29.81242548348382,213.40199102298357" stroke="#4dd2ff" stroke-linecap="round" stroke-linejoin="round" stroke-width="0.5"><title>2023-09-13 1.0km</title><desc>9837636972</desc></polyline></svg>