<?xml version="1.0" encoding="utf-8" ?>
<svg baseProfile="full" height="300mm" version="1.1" viewBox="0,0,200,300" width="200mm" xmlns="http://www.w3.org/2000/svg" xmlns:ev="http://www.w3.org/2001/xml-events" xmlns:xlink="http://www.w3.org/1999/xlink"><defs /><rect fill="#222222" height="300" width="200" x="0" y="0" /><text fill="#FFFFFF" style="font-size:12px; font-family:Arial; font-weight:bold;" x="10" y="20">Over 1km Runs</text><text fill="#FFFFFF" style="font-size:4px; font-family:Arial" x="10" y="280">ATHLETE</text><text fill="#FFFFFF" style="font-size:9px; font-family:Arial" x="10" y="290">Jiakai</text><text fill="#FFFFFF" style="font-size:4px; font-family:Arial" x="120" y="280">STATISTICS</text><text fill="#FFFFFF" style="font-size:3px; font-family:Arial" x="120" y="285">Number: 92</text><text fill="#FFFFFF" style="font-size:3px; font-family:Arial" x="120" y="290">Weekly: 5.8</text><text fill="#FFFFFF" style="font-size:3px; font-family:Arial" x="141" y="285">Total: 95.3 km</text><text fill="#FFFFFF" style="font-size:3px; font-family:Arial" x="141" y="290">Avg: 1.0 km</text><text fill="#FFFFFF" style="font-size:3px; font-family:Arial" x="167" y="285">Min: 1.0 km</text><text fill="#FFFFFF" style="font-size:3px; font-family:Arial" x="167" y="290">Max: 1.5 km</text><polyline fill="none" points="17.499543257523328,34.30883703043219 19.085198753047734,38.67649259837344 21.03677474707365,43.04413756961003 22.01256274431944,46.75000984175131 22.866377241909504,49.0 22.988350741565228,49.0 22.988350741565228,48.07353380450513 22.37848324328661,45.82354248885531 21.158748246729374,43.04413756961003 20.182960249949247,40.2647283594124 18.59730475442484,37.08825543615967 17.621516757644713,34.176483665942214 17.011649258900434,32.32353554200381 17.377569757867604,31.0" stroke="#4dd2ff" stroke-linecap="round" stroke-linejoin="round" stroke-width="0.5"><title>2024-01-03 1.0km</title><desc>10482519748</desc></polyline><polyline fill="none" points="39.2241439782083,31.297521962667815 42.37731281667948,40.52068110543769 45.6675759521313,48.404961237101816 46.35304743843153,49.0 46.4901417363435,48.404961237101816 46.07885884447023,47.36364297999535 42.6515014115721,40.81820166797843 41.41765273548663,37.54547307221219 39.635426870081574,31.0" stroke="#4dd2ff" stroke-linecap="round" stroke-linejoin="round" stroke-width="0.5"><title>2024-01-01 1.0km</title><desc>10470902913</desc></polyline><polyline fill="none" points="73.33101565018296,35.40818125801161 73.10533476341516,35.77552916947752 70.73568544955924,37.48981835064478 69.72012145863846,38.59186046384275 69.04307879740372,39.81635084503796 68.59171702386811,40.42859569785651 68.25319569325075,40.55104464129545 66.7862699283287,40.55104464129545 65.43218460632488,41.040840325760655 63.6267375103198,40.918391417944804 62.7240139618516,40.55104464129545 62.159811744932085,39.69390184734948 61.82129041431472,38.95920767285861 61.708449970930815,37.24492000427563 61.369928639847785,36.510224749101326 60.015843318309635,36.510224749101326 58.88743888353929,36.87757241737563 58.77459844015539,37.00002162193414 59.22596021415666,37.24492000427563 59.4516411004588,37.00002162193414 58.661757996771485,37.00002162193414 58.43607710953802,36.7551232035039 58.21039622230455,35.89797845506109 58.09755577892065,34.42858643166255 58.661757996771485,34.55103581654839 59.113119771238416,35.530630571069196 60.1286837621592,36.63267398066819 60.918566866312176,36.63267398066819 61.59560952754691,36.142876999801956 62.159811744932085,36.26532625826076 62.27265218831599,36.020427731913514 61.257088196929544,33.081642604316585 61.03140730969608,32.959193111164495 59.79016243107617,32.83674360951409 58.54891755292192,32.959193111164495 59.33880065754056,32.959193111164495 58.21039622230455,31.734697686857544 58.09755577892065,31.0 58.43607710953802,31.489798494149 58.77459844015539,33.081642604316585 59.113119771238416,33.81633937230799 59.4516411004588,35.40818125801161 58.77459844015539,39.571452840580605 59.564481544308364,43.36736785795074 60.2415242055431,44.46940608078148 60.354364648927,46.306134830927476 61.369928639847785,49.0" stroke="#4dd2ff" stroke-linecap="round" stroke-linejoin="round" stroke-width="0.5"><title>2023-12-31 1.5km</title><desc>10466792666</desc></polyline><polyline fill="none" points="86.1846096245572,35.273397946031764 87.49736004555598,39.935274790157564 89.28747425600886,43.6906666085124 90.8389065717347,48.093529578414746 91.3162703611888,49.0 91.55495225591585,49.0 91.67429320281371,47.964033765834756 91.19692941382527,46.539579198579304 89.04879236128181,42.13671234436333 89.04879236128181,40.97124574659392 87.49736004555598,37.604337910655886 87.25867815082893,35.01440442644525 86.78131436184049,33.46044250787236 85.46856394037604,31.0" stroke="#4dd2ff" stroke-linecap="round" stroke-linejoin="round" stroke-width="0.5"><title>2023-12-30 1.0km</title><desc>10458865202</desc></polyline><polyline fill="none" points="112.40733372047544,31.0 110.14072630787268,31.2236037919065 108.59531216230243,32.22982044820674 107.46200845576823,33.347838174086064 106.94687040708959,34.68945835984778 106.53475996851921,39.94412601995282 107.04989801673219,45.19877551647369 107.25595323601738,45.981381334131584 107.56503606494516,46.65218599990476 109.213477820158,48.44099699554499 111.06797479465604,49.0 112.51036133011803,48.776398822665215 114.26183069450781,47.65839244390372 115.29210679139942,46.763986748992465 116.32238288829103,43.74536364292726 116.2193552791141,41.39754152763635 115.91027244972065,39.385119685321115 115.70421723090112,34.46585507784039 115.39513440150768,33.236036438611336 114.77696874318644,32.453424059203826 114.05577547522262,31.894414970069192 112.40733372047544,31.559009417891502 110.14072630787268,31.670811276882887 108.49228455219418,32.565225852420554 107.66806367505342,33.57144162070472 107.04989801673219,35.13666482537519 107.04989801673219,35.91927582339849 107.35898084565997,37.81990085518919 107.15292562684044,39.385119685321115" stroke="#4dd2ff" stroke-linecap="round" stroke-linejoin="round" stroke-width="0.5"><title>2023-12-29 1.0km</title><desc>10454615358</desc></polyline><polyline fill="none" points="131.77232059044763,32.90909918991383 133.53169617708772,39.18183983606286 136.29642924200743,47.63636975153349 137.17611703602597,49.0 137.30178672028705,49.0 137.30178672028705,47.63636975153349 135.41674144892022,41.909111761138774 133.90870523173362,38.22729371488094 132.903347753454,36.318199999048375 131.269641851075,31.0" stroke="#4dd2ff" stroke-linecap="round" stroke-linejoin="round" stroke-width="0.5"><title>2023-12-27 1.0km</title><desc>10441997651</desc></polyline><polyline fill="none" points="153.74977615242824,33.318191617610864 155.76049081329256,37.27274710254278 156.7658481434919,41.36365769722033 158.14821447292343,43.9545630736975 159.78192013548687,48.18182197120041 160.28459879988804,49.0 160.53593813301995,48.86363702046219 159.65625046845526,46.272738500731066 158.39955380605534,44.363653065636754 154.3781244843267,34.818196414853446 154.12678515166044,32.227278276346624 153.74977615242824,31.0" stroke="#4dd2ff" stroke-linecap="round" stroke-linejoin="round" stroke-width="0.5"><title>2023-12-17 1.0km</title><desc>10391591057</desc></polyline><polyline fill="none" points="177.07950775464997,34.16902771452442 178.481344032567,37.84509256517049 180.8177378284745,42.408472511102445 182.9204922444187,48.492960318690166 183.3877710038796,49.0 183.50459069386125,48.87324009358417 183.50459069386125,48.366200375021435 182.9204922444187,46.71832025947515 179.76636062003672,40.50706566812005 178.36452434258536,36.704245691304095 177.31314713414758,32.39437291189097 176.4954093056731,31.0" stroke="#4dd2ff" stroke-linecap="round" stroke-linejoin="round" stroke-width="0.5"><title>2023-12-16 1.0km</title><desc>10386207035</desc></polyline><polyline fill="none" points="17.56786756357178,54.383472079527564 18.06676652468741,56.684229540871456 19.8129128892906,61.96242696943227 20.81071081198752,63.58648467215244 22.182682955637574,68.05263596656732 22.55685717659071,69.0 22.806306657381356,69.0 22.806306657381356,67.64662266056985 20.93543555215001,61.96242696943227 18.316216005012393,57.90227644436527 18.191491265315562,56.27821372705512 17.44314282340929,54.383472079527564 17.692592303734273,53.16542284714524 17.193693342618644,51.0" stroke="#4dd2ff" stroke-linecap="round" stroke-linejoin="round" stroke-width="0.5"><title>2023-12-14 1.0km</title><desc>10376526598</desc></polyline><polyline fill="none" points="46.7206776519306,52.565225852653384 45.793429301586,51.7826131277252 44.24801538325846,51.111801900318824 42.80562906013802,51.0 41.36324273655191,51.33540567557793 39.50874603493139,52.34162225795444 38.684525278862566,53.459639901760966 38.066359711345285,55.360268009011634 38.066359711345285,59.60872224404011 38.27241490036249,60.95033690426499 38.684525278862566,62.62735356413759 38.375442495103925,64.63977111433633 38.4784700893797,65.42237722000573 38.58149768365547,65.86958052788395 39.611773629672825,67.65839244425297 41.26021514181048,68.88819941575639 41.77535311412066,69.0 42.80562906013802,69.0 43.83590500475839,69.0 45.69040170684457,68.32919637009036 46.7206776519306,67.32299037033226 47.33884321944788,66.20498292252887 47.54489840846509,63.745363643043675 47.64792600320652,62.0683482165914 47.33884321944788,60.05592726240866 47.54489840846509,57.37269517919049 47.441870813723654,55.02486322144978 47.33884321944788,54.242251763120294 46.61765005765483,52.67702763737179 46.30856727389619,52.34162225795444 45.17526373453438,51.55900941800792 42.90865665441379,51.33540567557793 41.46627033082768,51.55900941800792 40.64204957475886,51.89441497018561 39.09663565689698,53.57144162082113 38.4784700893797,55.91927582328208 38.684525278862566,57.48449661070481" stroke="#4dd2ff" stroke-linecap="round" stroke-linejoin="round" stroke-width="0.5"><title>2023-12-13 1.0km</title><desc>10373769329</desc></polyline><polyline fill="none" points="63.547892154194415,53.552249595173635 64.78583133174106,58.65673809009604 66.02377050882205,61.34330525412224 68.49964886344969,68.328361393651 68.99482453428209,69.0 69.24241236969829,69.0 69.36620628740638,68.46268913464155 68.87103061657399,67.65672254085075 66.89032793277875,64.29852457169909 64.04306782502681,58.52240962779615 63.67168607190251,56.776138724409975 62.309952977113426,53.82090723980218 62.06236514169723,51.0" stroke="#4dd2ff" stroke-linecap="round" stroke-linejoin="round" stroke-width="0.5"><title>2023-12-12 1.0km</title><desc>10365882163</desc></polyline><polyline fill="none" points="85.06683890800923,51.0 86.35185511782765,53.788744695833884 88.1041499497369,58.225374688743614 89.38916615955532,60.63382618967444 91.25828064698726,66.46480010182131 91.49191995803267,67.98592048813589 91.95919857965782,69.0 92.07601823471487,68.11268045951147 91.84237892413512,67.09860042587388 89.38916615955532,61.52114957885351 87.63687132764608,58.09861399035435 87.16959270648658,56.704245691536926 86.81913373991847,53.788744695833884 85.88457649666816,51.126761220628396" stroke="#4dd2ff" stroke-linecap="round" stroke-linejoin="round" stroke-width="0.5"><title>2023-12-11 1.0km</title><desc>10361067591</desc></polyline><polyline fill="none" points="111.78918857313693,61.04350078164134 114.19330286793411,68.34782927564811 114.3135085827671,68.73913173889741 114.79433144209906,69.0 114.91453715600073,68.86956587433815 114.55392001243308,67.95652672543656 113.47206857940182,65.86957833555061 112.27001143200323,62.608716561691836 108.90425141947344,55.826104874373414 107.94260570127517,51.0" stroke="#4dd2ff" stroke-linecap="round" stroke-linejoin="round" stroke-width="0.5"><title>2023-12-10 1.0km</title><desc>10355395415</desc></polyline><polyline fill="none" points="131.1144042275846,52.191182031296194 133.18795311171561,55.50001687242184 134.1637408216484,59.60296362906229 136.2372897057794,65.42648490634747 136.96913048857823,68.60294311749749 137.4570243442431,69.0 137.57899780757725,68.86764771549497 137.57899780757725,68.60294311749749 137.33505087997764,67.5441243366804 134.77360814111307,62.382373861270025 134.1637408216484,60.92649284633808 133.79782043024898,58.67649259825703 133.18795311171561,56.95590227597859 132.21216540178284,55.23531030898448 132.09019193751737,53.382363274809904 130.9924307637848,51.0" stroke="#4dd2ff" stroke-linecap="round" stroke-linejoin="round" stroke-width="0.5"><title>2023-12-09 1.0km</title><desc>10350143310</desc></polyline><polyline fill="none" points="155.22405085386708,54.49255117913708 155.96681457897648,57.17912446556147 157.5761359827593,61.07464871532284 159.8044271566905,67.52239474025555 160.79477878985927,69.0 160.67098483629525,67.65672254085075 159.92822111118585,65.37314859370235 157.94751784484833,61.880618212744594 156.70957830362022,58.92539498396218 155.34784480836242,56.77613872475922 154.97646294580773,54.62687993713189 153.4909354960546,51.0" stroke="#4dd2ff" stroke-linecap="round" stroke-linejoin="round" stroke-width="0.5"><title>2023-12-08 1.0km</title><desc>10345303898</desc></polyline><polyline fill="none" points="177.09993195021525,51.0 177.33193739457056,51.6293738221284 177.79594828234985,53.26574467681348 178.02795372670516,55.53148635500111 178.4919646140188,57.41960212949198 180.11600272217765,61.44757549010683 181.1600272199139,65.09791816305369 182.20405171765015,67.36364418326411 182.43605716200545,69.0 182.6680626058951,68.87412653130013 182.90006804978475,68.62237956561148 182.90006804978475,68.24475904810242 182.3200544398278,66.7342761453474 180.46401088824496,63.58743248344399 178.25995917012915,57.167853480088525 177.67994556063786,54.52449042350054" stroke="#4dd2ff" stroke-linecap="round" stroke-linejoin="round" stroke-width="0.5"><title>2023-12-07 1.0km</title><desc>10340288256</desc></polyline><polyline fill="none" points="16.658453474286944,71.0 17.374499158468097,72.68346103455406 18.68724957946688,78.25182068638969 20.59670473728329,81.74822356412187 22.148137053009123,86.02159543370362 22.864182737190276,88.74100849858951 23.222205579280853,89.0 23.341546526178718,88.09352957841475 23.102864631917328,86.92806692188606 21.193409473635256,82.91368964756839 19.880659053102136,80.97124574659392 19.164613368920982,79.5467855243478 16.77779442211613,71.38849115080666" stroke="#4dd2ff" stroke-linecap="round" stroke-linejoin="round" stroke-width="0.5"><title>2023-12-06 1.0km</title><desc>10334845031</desc></polyline><polyline fill="none" points="41.19830393278971,74.1034619655693 41.999122723937035,78.20002302597277 42.799941515084356,81.17933391826227 44.74478715052828,86.2689778652275 45.77441131044179,88.62758815078996 46.117619363125414,89.0 45.6600086260587,86.76552767283283 44.51598178129643,84.65518998203333 43.48635762184858,81.67588522285223 41.999122723937035,78.57243717496749 41.31270661717281,76.21381284378003 40.1686797728762,73.73104683100246 39.59666635049507,71.0" stroke="#4dd2ff" stroke-linecap="round" stroke-linejoin="round" stroke-width="0.5"><title>2023-12-05 1.0km</title><desc>10329306344</desc></polyline><polyline fill="none" points="62.40820813784376,72.51049678423442 63.220227191690356,73.7692430865718 64.26425168989226,77.41960212949198 66.35230068536475,82.58044129051268 67.39632518356666,86.10490787529852 68.32434695912525,88.11888552398887 69.02036329125986,89.0 69.02036329125986,88.37063256313559 66.00429251929745,81.44757549010683 64.84426529984921,77.54547644068953 63.56823535775766,74.6503649475053 62.640213581733406,71.0" stroke="#4dd2ff" stroke-linecap="round" stroke-linejoin="round" stroke-width="0.5"><title>2023-12-04 1.0km</title><desc>10324662812</desc></polyline><polyline fill="none" points="85.44515440938994,72.66154566861223 86.72118468023837,77.50771216268186 88.76283311238512,82.07694343582261 90.1664664093405,86.92308570316527 91.18729062564671,88.86153911822475 91.9529087874107,89.0 91.9529087874107,88.44615641166456 91.0596875990741,86.92308570316527 89.91126035572961,83.60001806344371 88.63523008534685,81.66155923262704 87.74200889607891,79.3077136843931 86.2107725716196,73.76924196642358 85.18994835577905,71.0" stroke="#4dd2ff" stroke-linecap="round" stroke-linejoin="round" stroke-width="0.5"><title>2023-12-02 1.0km</title><desc>10313350310</desc></polyline><polyline fill="none" points="108.16116106556728,71.95454984041862 109.4178573586978,73.59091985307168 110.92589291045442,78.77274870162364 111.93124994589016,83.00001940899529 113.56495512695983,87.63636975188274 114.5703121619299,89.0 114.69598179124296,88.18182197131682 114.44464253261685,86.54546483117156 113.06227660924196,83.54547299188562 110.92589291045442,80.13638546620496 109.66919661778957,77.54547475650907 108.41250032372773,71.0" stroke="#4dd2ff" stroke-linecap="round" stroke-linejoin="round" stroke-width="0.5"><title>2023-12-01 1.0km</title><desc>10308709030</desc></polyline><polyline fill="none" points="130.96803509490564,71.0 133.45629448769614,79.55001980031375 135.94455388048664,84.65001455100719 137.3269202094525,88.40000255848281 137.74163010856137,89.0 137.87986674159765,88.55000193545129 137.3269202094525,87.05000766995363 135.2533707153052,84.20001552719623 134.70042418455705,82.70001806365326 132.62687469040975,78.65001940354705 131.6592182596214,74.0000110277906 130.69156182929873,71.30000130133703" stroke="#4dd2ff" stroke-linecap="round" stroke-linejoin="round" stroke-width="0.5"><title>2023-11-30 1.0km</title><desc>10303537703</desc></polyline><polyline fill="none" points="155.0836097309366,74.84829198836815 155.88442816911265,77.4551944816485 156.22763607092202,79.56554117088672 157.48606504453346,82.04829860525206 158.85889665270224,85.77242791187018 160.2317282599397,88.75172544328962 160.46053352812305,89.0 160.68933879584074,88.75172544328962 160.46053352812305,87.8827642062679 159.54531245632097,86.2689778652275 158.28688348270953,82.79312512371689 156.4564413386397,79.06898924615234 155.77002553502098,75.09656858979724 154.3971939268522,72.98621631483547 153.59637548960745,71.0" stroke="#4dd2ff" stroke-linecap="round" stroke-linejoin="round" stroke-width="0.5"><title>2023-11-29 1.0km</title><desc>10298007687</desc></polyline><polyline fill="none" points="176.89713673759252,73.33094561949838 178.20988657930866,76.69786162441596 178.4485683683306,79.15829617308918 180.11934089427814,83.17268200626131 181.07406805222854,86.79857102350798 181.90945431543514,88.48201695899479 182.74484057817608,89.0 183.10286326240748,89.0 183.34154505236074,88.61151273362339 183.22220415715128,88.09352957829833 182.74484057817608,87.18705868988764 180.83538626274094,82.13671234436333 178.92593194777146,77.73383448482491 178.56790926354006,75.66188815457281 177.7325229998678,73.20144872169476 176.65845494763926,71.0" stroke="#4dd2ff" stroke-linecap="round" stroke-linejoin="round" stroke-width="0.5"><title>2023-11-28 1.0km</title><desc>10292316108</desc></polyline><polyline fill="none" points="19.577365040779114,91.0 20.633952440228313,93.8662559457589 21.267904879990965,96.61785669741221 22.11317479936406,97.87900541932322 23.064103459008038,99.71340173971839 24.015032118652016,102.69429115857929 24.86030203802511,104.07008435309399 24.86030203802511,104.75798049510922 24.332008338533342,105.21657775470521 22.64146849932149,106.13377186935395 21.58488109987229,107.05096544418484 20.52829370042309,107.62421115464531 18.943412601016462,108.31210572912823 16.407602842431515,109.0 15.984967882279307,108.8853509761393 15.66799166239798,108.54140385333449 15.13969796244055,106.36307031358592" stroke="#4dd2ff" stroke-linecap="round" stroke-linejoin="round" stroke-width="0.5"><title>2023-11-27 1.0km</title><desc>10287544518</desc></polyline><polyline fill="none" points="41.1171018993482,94.90211396722589 41.69711555168033,96.2867329143919 43.08914831839502,103.33568474079948 44.597183814737946,106.98602338775527 45.40920292865485,108.370632563252 45.98921658098698,109.0 46.105219311546534,108.8741265310673 45.75721112033352,108.24475904798601 45.75721112033352,107.23777059407439 44.82918927585706,105.09791816282086 43.7851647012867,101.57344950502738 42.741140126716346,99.43358999444172 42.045123743359,95.40561189572327 40.07307732477784,92.25874741270673 39.60906640253961,91.0" stroke="#4dd2ff" stroke-linecap="round" stroke-linejoin="round" stroke-width="0.5"><title>2023-11-26 1.0km</title><desc>10281488289</desc></polyline><polyline fill="none" points="62.43673925893381,91.0 63.77451332192868,94.48388377402443 64.97850997932255,99.41937526513357 66.18250663718209,102.17743866576348 66.45006144978106,103.91937146021519 67.11894848197699,105.51614183862694 68.59049995196983,108.27419672347605 69.2593869837001,109.0 69.52694179629907,109.0 67.52028070064262,104.64517633756623 67.25272588757798,103.19356631604023 65.91495182458311,101.30647169239819 63.239403697196394,94.04839863895904 61.90162963280454,91.58064772281796" stroke="#4dd2ff" stroke-linecap="round" stroke-linejoin="round" stroke-width="0.5"><title>2023-11-25 1.0km</title><desc>10275889695</desc></polyline><polyline fill="none" points="85.08321280218661,91.16822495521046 86.01340367365628,95.37384479888715 90.35429440904409,107.14953924051952 91.43951709195971,108.83177635679021 91.90461252816021,109.0 92.05964434053749,108.49532903218642 90.50932622049004,106.4766440478852 88.64894447755069,100.92525115737226 87.40868998132646,98.40188630030025 86.63353092223406,93.52337301988155 85.70334004983306,91.0" stroke="#4dd2ff" stroke-linecap="round" stroke-linejoin="round" stroke-width="0.5"><title>2023-11-24 1.0km</title><desc>10271180196</desc></polyline><polyline fill="none" points="109.19045583112165,93.00000823463779 109.58541740709916,94.14286915806588 110.5069944174029,99.00002058548853 112.74511001585051,105.85715487215202 113.7983408854343,108.71428701689001 114.19330246094614,109.0 114.71991789573804,109.0 114.85157175501809,108.71428701689001 114.58826403738931,107.28572146955412 113.14007159182802,103.14287544379476 109.32210968947038,94.85715689428616 108.00557110272348,91.0" stroke="#4dd2ff" stroke-linecap="round" stroke-linejoin="round" stroke-width="0.5"><title>2023-11-23 1.0km</title><desc>10265414399</desc></polyline><polyline fill="none" points="132.7086497489363,95.0563544301549 132.8254693443887,96.83100649237167 133.29274772573262,99.61974175705109 135.16186125110835,104.94367837370373 135.74595922743902,107.47888050868642 136.68051599012688,109.0 137.38143356190994,109.0 137.2646139669232,108.23944042192306 135.97959841787815,104.94367837370373 134.92822206020355,103.29579498723615 133.40956732118502,98.60565672838129 131.65727339079604,93.78874469583388 131.18999500991777,91.0" stroke="#4dd2ff" stroke-linecap="round" stroke-linejoin="round" stroke-width="0.5"><title>2023-11-21 1.0km</title><desc>10253878272</desc></polyline><polyline fill="none" points="155.20552701223642,95.86133173853159 155.810942677781,99.8029423590051 158.3536884742789,106.24088767752983 159.44343667291105,108.60584135761019 159.80668607261032,109.0 160.04885233892128,108.86861379561014 160.16993547184393,108.60584135761019 159.685602939222,106.50366046302952 157.5061065419577,101.77374440978747 156.65852461056784,99.27739477856085 155.32661014515907,94.15329776948784 154.60011134622619,92.83942437497899 154.11577881360427,91.0" stroke="#4dd2ff" stroke-linecap="round" stroke-linejoin="round" stroke-width="0.5"><title>2023-11-20 1.0km</title><desc>10248671423</desc></polyline><polyline fill="none" points="176.79542374471202,92.50000667187851 178.55479894345626,96.31819999893196 179.05747757246718,100.27274908765685 180.4398437999189,103.40910961094778 181.8222100273706,107.36364358162973 182.45055831270292,108.31818500091322 183.20457625528798,109.0 183.0789065985009,107.90909588139039 180.94252242846414,102.3182022041874 179.56015620101243,97.27274710254278 178.17778997309506,94.00001213059295 177.42377203051,91.0" stroke="#4dd2ff" stroke-linecap="round" stroke-linejoin="round" stroke-width="0.5"><title>2023-11-19 1.0km</title><desc>10242265034</desc></polyline><polyline fill="none" points="16.501645412761718,127.03792825492565 17.28779251081869,124.56400697666686 17.602251350414008,123.9668527743197 18.15255431877449,123.62562166358111 20.825454453472048,123.2843904523179 22.7908221995458,122.85785129718715 23.419739877805114,122.34600410389248 23.81281342729926,121.83415668504313 24.284501686226577,119.70145667501492 24.127272266428918,119.01899184362264 24.441731106024235,118.50714295677608 24.205886976327747,114.5829606532352 24.04865755699575,114.07110980903963 23.97004284663126,112.53555592079647 23.81281342729926,111.5971608775435 22.94805161934346,111.34123482485302 22.240519230719656,111.85308687353972 22.397748650051653,111.5971608775435 22.554978069849312,111.85308687353972 21.532986842095852,111.34123482485302 21.454372132662684,111.0 21.218528002500534,111.17061742488295 21.375757422298193,111.0853087156429 20.825454453472048,111.76777821453288 20.904069163370878,111.6824695491814 22.554978069849312,112.53555592079647 22.161904520820826,112.87679029384162 21.532986842095852,113.13271600776352 20.039307355415076,113.38864166522399 19.960692645050585,113.04740744258743 20.35376619407907,112.87679029384162 20.904069163370878,112.96209887135774 22.554978069849312,111.34123482485302 24.83480465505272,111.4265435153502 24.598960525821894,111.25592612795299 24.284501686226577,111.17061742488295 24.04865755699575,115.26542809442617 24.127272266428918,116.45974515046692 24.363116395659745,117.90998563647736 24.520345815923065,120.38392110483255 24.520345815923065,121.23700107744662 24.284501686226577,122.0900804225821 23.81281342729926,122.60192772879964 19.882077935617417,123.02846697799396 18.073939609341323,123.36969826457789 17.130563091486692,124.05216053628828 16.02995715336874,125.58769917994505 15.401039475109428,127.80569585470948 15.16519534541294,129.0" stroke="#4dd2ff" stroke-linecap="round" stroke-linejoin="round" stroke-width="0.5"><title>2023-11-18 1.0km</title><desc>10236386505</desc></polyline><polyline fill="none" points="39.184000469744205,111.0 41.79074668046087,115.50001736893319 42.73865439277142,118.84287991863675 43.09411978535354,120.77145155961625 43.80505057005212,121.92859352345113 46.056331387721,128.48571685689967 46.5302852448076,129.0 46.5302852448076,128.48571685689967 46.056331387721,127.84286271536257 44.75295828282833,123.98573290230706 44.042027498129755,122.70002107415348 43.80505057005212,120.51430879719555 42.73865439277142,117.81430750666186 41.55376975191757,115.24287383153569 41.43528128787875,113.82858369813766" stroke="#4dd2ff" stroke-linecap="round" stroke-linejoin="round" stroke-width="0.5"><title>2023-11-17 1.0km</title><desc>10231268371</desc></polyline><polyline fill="none" points="62.503628669306636,111.58064772293437 64.24273456819355,114.04839863884263 64.6440666988492,117.38711555744521 65.84806309081614,120.00002051191404 67.72094636689872,126.96775015315507 68.92494275886565,129.0 68.79116538167,127.8387146294117 67.85472374409437,125.95162444526795 67.18583685951307,124.0645324572688 66.11561784427613,119.56453659269027 63.975179814733565,115.06453047250398 63.30629293015227,113.03226628201082 62.90496079949662,111.0" stroke="#4dd2ff" stroke-linecap="round" stroke-linejoin="round" stroke-width="0.5"><title>2023-11-16 1.0km</title><desc>10225818993</desc></polyline><polyline fill="none" points="85.44995610043406,111.19354904140346 86.3418053779751,114.67742935777642 87.76876422204077,118.54840207961388 89.73083263263106,122.22582089412026 90.4443120546639,125.12904264521785 91.69290104322135,127.64516557333991 92.94149003177881,129.0 89.73083263263106,123.00001367391087 88.3038737885654,118.54840207961388 84.2013671118766,111.0" stroke="#4dd2ff" stroke-linecap="round" stroke-linejoin="round" stroke-width="0.5"><title>2023-11-15 1.0km</title><desc>10219684298</desc></polyline><polyline fill="none" points="108.24809101782739,113.16542284714524 109.86951240384951,115.19550445268396 110.11896184785292,117.7669379391009 111.98983267787844,122.23310335271526 113.11235517542809,126.02256853983272 114.2348776734434,128.86466231115628 114.73377656145021,129.0 114.60905183898285,127.37594707356766 112.98763045342639,125.21054094214924 112.36400684341788,123.31580848805606 111.36620906740427,122.09776516607963 110.99203490139917,120.60904445615597 109.1211640718393,116.81956812529825 108.4975404618308,114.11279454140458 108.12336629582569,111.0" stroke="#4dd2ff" stroke-linecap="round" stroke-linejoin="round" stroke-width="0.5"><title>2023-11-14 1.0km</title><desc>10213806154</desc></polyline><polyline fill="none" points="131.8815994602628,113.47827171022072 132.84324539080262,117.1304552895017 135.48777169780806,123.91306199040264 136.08880040375516,126.13044701842591 137.29085781704634,128.60869759391062 137.65147504070774,129.0 136.9302405929193,127.695658311015 135.2473602150567,123.65219298156444 135.12715447414666,122.60871656169184 133.92509706132114,119.73915324313566 132.12201094301417,116.47828020178713 131.40077649522573,114.26088311010972 130.91995353018865,111.0" stroke="#4dd2ff" stroke-linecap="round" stroke-linejoin="round" stroke-width="0.5"><title>2023-11-13 1.0km</title><desc>10208522228</desc></polyline><polyline fill="none" points="155.13214277802035,113.04546334268525 156.3888392560184,116.86365554714575 157.89687502989545,120.00002183520701 158.77656256500632,123.68183636269532 159.65625009965152,126.27273850084748 160.78727693017572,128.72727403056342 161.28995552053675,129.0 161.54129481688142,128.45454802096356 160.1589286904782,125.72728572005872 159.40491080423817,122.7272925573634 156.6401785518974,120.13638546643779 155.13214277802035,117.95456616173033 154.88080348214135,115.63638033857569 152.74441946903244,111.0" stroke="#4dd2ff" stroke-linecap="round" stroke-linejoin="round" stroke-width="0.5"><title>2023-11-12 1.0km</title><desc>10202270880</desc></polyline><polyline fill="none" points="177.27653280971572,114.35822241124697 180.24758792715147,121.07464871543925 181.2379396329634,124.43285260931589 182.2282913387753,127.11941128061153 182.84726115502417,128.32836139411665 183.46623097080737,129.0 183.59002493415028,128.4626891349908 182.47587926499546,125.10449264734052 180.37138189002872,121.88061821286101 178.14309055218473,116.77613872487564 177.27653280971572,113.14926305413246 176.40997506631538,111.0" stroke="#4dd2ff" stroke-linecap="round" stroke-linejoin="round" stroke-width="0.5"><title>2023-11-11 1.0km</title><desc>10196068378</desc></polyline><polyline fill="none" points="18.326608318835497,133.68422009726055 20.36378079978749,139.84212411462795 22.255440961569548,144.8947501218645 23.128514881245792,148.21052947919816 23.710564161650836,149.0 24.00158880185336,148.6842118264176 23.565051841549575,146.78948180971202 21.38236704096198,141.89475486346055 19.199682239443064,137.31580665381625 16.289435837883502,132.73684868169948 15.99841119768098,131.0" stroke="#4dd2ff" stroke-linecap="round" stroke-linejoin="round" stroke-width="0.5"><title>2023-11-10 1.0km</title><desc>10191120477</desc></polyline><polyline fill="none" points="38.67838862212375,131.54962088621687 40.831080198287964,133.1984825761756 42.0973693607375,135.39696256595198 42.477256109472364,136.22139189543668 42.477256109472364,137.45803520805202 43.870174187235534,141.71757813193835 44.37668985221535,144.19085666537285 45.38972118217498,146.93894008581992 45.64297901419923,148.31298028095625 46.27612359588966,149.0 46.6560103436932,148.86259607644752 47.03589709242806,148.31298028095625 45.64297901419923,147.35115225065965 43.36365852272138,144.0534523880342 40.70445128250867,136.77101124660112 40.07130670081824,132.64886217436288 39.43816211959347,131.0" stroke="#4dd2ff" stroke-linecap="round" stroke-linejoin="round" stroke-width="0.5"><title>2023-11-09 1.0km</title><desc>10185506531</desc></polyline><polyline fill="none" points="62.202877692412585,132.44526216865052 63.53479108028114,135.07300857105292 64.0191232203506,136.38688032352366 65.59320267941803,139.80294235935435 66.19861785508692,142.16790455882438 66.07753481995314,140.72265025309753 66.31970089068636,141.64235767372884 66.80403303122148,145.18979614810087 67.89378034835681,148.47445512423292 68.37811248982325,149.0 68.98352766595781,148.73722758109216 69.22569373622537,148.34306888096035 67.89378034835681,147.16059225820936 66.92511606682092,145.58395554404706 66.31970089068636,143.87593086762354 65.47211964381859,140.98542385036126 64.26128929154947,139.2773947789101 62.92937590368092,136.38688032352366 62.56612679781392,134.2846850559581 62.6872098329477,131.65693749429192 62.44504376268014,131.0" stroke="#4dd2ff" stroke-linecap="round" stroke-linejoin="round" stroke-width="0.5"><title>2023-11-08 1.0km</title><desc>10179505859</desc></polyline><polyline fill="none" points="87.75940933823586,140.9440793383401 91.81950550340116,149.0 92.05151099851355,148.87412653141655 91.4714972609654,147.4895177630242 90.42747253272682,145.72728680237196 89.731456046924,143.96505402820185 88.339423075784,142.45456734951586 87.87541208649054,141.57344950479455 87.52740384312347,138.55247059487738 87.29539834801108,137.6713507422246 85.90336537733674,135.27973742736503 85.09134614421055,131.0" stroke="#4dd2ff" stroke-linecap="round" stroke-linejoin="round" stroke-width="0.5"><title>2023-11-06 1.0km</title><desc>10167691585</desc></polyline><polyline fill="none" points="109.698127691634,136.0503782769665 110.53351432364434,137.6043379106559 113.63637895463035,144.72663535596803 114.94912937562913,148.7410084985895 115.18781127035618,149.0 115.42649316461757,149.0 115.42649316461757,148.61151273350697 114.47176558570936,146.5395791985793 113.63637895463035,145.37411551410332 113.51703800726682,144.72663535596803 112.80099232308567,143.94965885241982 110.77219621790573,140.45326034456957 108.38537727063522,134.36692046013195 107.43064969219267,131.0" stroke="#4dd2ff" stroke-linecap="round" stroke-linejoin="round" stroke-width="0.5"><title>2023-11-05 1.1km</title><desc>10161301187</desc></polyline><polyline fill="none" points="130.91995427338406,131.0 133.32406856771559,136.3478451555129 134.40592000028118,141.04350078164134 136.08880000654608,144.30436543212272 136.68982858071104,146.9130528375972 137.29085715394467,149.0 137.65147429844365,148.60869759402703 137.531268583145,148.21739510179032 135.96859429217875,145.34784085466526 135.8483885768801,144.95653764309827 134.40592000028118,142.7391511480091 133.8048914265819,140.65219662082382 132.24221713514999,137.78263013751712 131.88159999111667,135.30436443991493 131.1603657025844,132.69565996550955" stroke="#4dd2ff" stroke-linecap="round" stroke-linejoin="round" stroke-width="0.5"><title>2023-11-04 1.0km</title><desc>10155501797</desc></polyline><polyline fill="none" points="161.9721131506376,133.73419068823569 160.60732340905815,131.91139743244275 159.76745279924944,131.3417740999721 158.08771157916635,131.0 156.51295418525115,131.11392470856663 154.30829383339733,132.139246706618 153.36343939695507,133.05064346885774 152.5235687866807,134.759510952048 152.3136011348106,136.12660358159337 151.9986496558413,140.6835702988319 152.20861730817705,145.46837092377245 152.41858496051282,146.15191266383044 153.46842322358862,147.86076569382567 154.72822913853452,148.77215320582036 156.82790566422045,149.0 158.7176145366393,148.20253607374616 160.50233958335593,146.0379890614422 161.027258714661,145.01267626299523 161.76214549830183,141.7088859624928 161.76214549830183,139.08863347244915 162.2870646296069,135.6709061722504 162.18208080343902,134.41773760621436 161.027258714661,133.05064346885774 160.08240427821875,132.36709594738204 157.87774392636493,131.3417740999721 156.7229218375869,131.3417740999721 154.2033100076951,132.139246706618 153.04848791845143,133.16456802631728 152.3136011348106,134.53166206309106 152.10363348200917,135.44305741763674 152.3136011348106,139.20255758613348 152.10363348200917,140.9114182825433" stroke="#4dd2ff" stroke-linecap="round" stroke-linejoin="round" stroke-width="0.5"><title>2023-11-03 1.0km</title><desc>10152446508</desc></polyline><polyline fill="none" points="176.27463989239186,131.0 177.25869727879763,133.13560138468165 178.10217503923923,136.94916981831193 179.50797130679712,139.69493475090712 181.61666570650414,145.18645371461753 182.03840458672494,146.10170546243899 182.74130272027105,148.54237481567543 183.16304160049185,149.0 183.72536010714248,149.0 183.72536010714248,148.6949165549595 182.74130272027105,148.23729130346328 182.3195638405159,147.1694986578077 181.33550645317882,146.25424738100264 180.63260832009837,144.2712015635334 179.64855093276128,142.74578041420318 178.52391391946003,140.45764658704866 177.25869727879763,135.72882868233137 176.41521951835603,133.74577280506492" stroke="#4dd2ff" stroke-linecap="round" stroke-linejoin="round" stroke-width="0.5"><title>2023-11-02 1.1km</title><desc>10144903556</desc></polyline><polyline fill="none" points="16.934754049405456,152.30435396311805 17.175165496300906,153.73914221522864 18.13681128481403,155.95653995871544 19.819691414479166,161.9565434876131 22.70462878094986,167.95652672555298 23.546068845316768,169.0 23.065245951525867,167.4347898582928 21.262160097714514,164.6956687872298 20.30051430920139,161.17393548239488 19.098457073792815,159.47828362043947 17.655988390557468,156.34784515528008 16.453931154683232,151.0" stroke="#4dd2ff" stroke-linecap="round" stroke-linejoin="round" stroke-width="0.5"><title>2023-11-01 1.0km</title><desc>10138966680</desc></polyline><polyline fill="none" points="40.237924080807716,151.27067799540237 40.86154759954661,153.3007616904797 41.85934522887692,158.71430726593826 43.48076637554914,162.23310335283168 44.478564004879445,165.48121684766375 46.09998515248299,169.0 46.2247098563239,168.8646623105742 45.10218752315268,167.24060926458333 43.48076637554914,163.45114658481907 42.10879463562742,161.01505931455176 39.739025266841054,153.84211696428247 39.48957585869357,151.0" stroke="#4dd2ff" stroke-linecap="round" stroke-linejoin="round" stroke-width="0.5"><title>2023-10-31 1.0km</title><desc>10133123337</desc></polyline><polyline fill="none" points="62.88811652595177,153.1333426652709 63.50250113243237,156.33335195819382 63.50250113243237,157.5333539872663 64.85414726566523,159.80002232000697 68.54045490268618,167.66667279333342 69.15483950916678,168.8666673231637 69.40059335110709,169.0 66.57442416297272,163.40001914394088 65.34565495094284,159.93335566332098 63.99400881724432,157.1333533989964 62.02797807753086,151.0" stroke="#4dd2ff" stroke-linecap="round" stroke-linejoin="round" stroke-width="0.5"><title>2023-10-30 1.0km</title><desc>10127985445</desc></polyline><polyline fill="none" points="85.73394187679514,153.60527560755145 86.27961239498109,157.27633863000665 86.60701470589265,158.46055072336458 88.78969677910209,163.5526528044138 89.88103781500831,166.5131698701298 91.5180493700318,168.76315920078196 91.95458578504622,169.0 92.06371988821775,168.6447387879016 91.08151295548305,167.10527262999676 89.6627696081996,164.026335900533 87.1526852240786,159.40791977138724 86.17047829087824,155.97370432177559 85.40653956541792,154.43422605399974 85.29740546178073,152.06579507607967 85.07913725450635,151.0" stroke="#4dd2ff" stroke-linecap="round" stroke-linejoin="round" stroke-width="0.5"><title>2023-10-28 1.0km</title><desc>10115543824</desc></polyline><polyline fill="none" points="109.0939095816575,154.73334801755846 110.07692509656772,157.93335448706057 111.18281754944474,160.46668893785682 112.16583306435496,164.06668443838134 113.64035633625463,167.53334001882467 114.25474103214219,168.8666673237458 114.86912572849542,169.0 114.99200266832486,168.8666673237458 114.74624878913164,168.06667105830275 114.00898715341464,166.0666788512608 111.55144836800173,161.26668855571188 109.58541733864695,155.9333511054283 108.3566479459405,153.26667649880983 107.86514018895105,151.0" stroke="#4dd2ff" stroke-linecap="round" stroke-linejoin="round" stroke-width="0.5"><title>2023-10-27 1.0km</title><desc>10110442644</desc></polyline><polyline fill="none" points="131.84624447254464,153.77942351426464 134.16374079557136,161.58825709018856 135.01755523029715,163.9706063530175 135.8713696654886,165.42648490646388 136.8471575905569,168.20588614756707 137.2130780625157,168.7352954216767 137.944919006899,169.0 138.06689249677584,168.60294311773032 137.944919006899,168.07353380485438 136.72518409974873,166.48530493315775 134.895581739489,163.3088429851923 132.7000589077361,156.82354910613503 131.23637701943517,154.44119038514327 130.50453607505187,151.0" stroke="#4dd2ff" stroke-linecap="round" stroke-linejoin="round" stroke-width="0.5"><title>2023-10-26 1.0km</title><desc>10104873905</desc></polyline><polyline fill="none" points="156.24131441535428,159.6087184365606 159.00604544766247,166.52174997131806 160.32830811524764,168.86956587433815 160.80913090286776,169.0 160.68892520666122,167.695658311015 157.44337138533592,162.0869781221263 155.64028592966497,157.52176022727508 154.07761186780408,154.26088311045896 153.47658338258043,151.0" stroke="#4dd2ff" stroke-linecap="round" stroke-linejoin="round" stroke-width="0.5"><title>2023-10-25 1.0km</title><desc>10098978222</desc></polyline><polyline fill="none" points="176.67021359270439,151.0 176.54913045093417,151.91971242427826 177.2756293034181,154.9416213426739 178.24429444037378,156.9124287540326 178.84971015015617,159.27739477867726 179.93945842934772,162.43067794316448 182.24003812810406,166.8978195694508 182.966536980588,168.737227581325 183.20870326505974,169.0 183.45086954906583,168.8686137953773 183.32978640682995,167.16059225809295 181.99787184409797,164.6642501518363 181.02920670807362,163.2189978651004 179.8183752866462,160.45987661753315 179.57620900310576,159.01462093077134 178.12321129767224,156.78104166104458 177.2756293034181,154.8102341046324 177.03346301894635,152.44526216841768 176.67021359270439,151.0" stroke="#4dd2ff" stroke-linecap="round" stroke-linejoin="round" stroke-width="0.5"><title>2023-10-24 1.0km</title><desc>10092835699</desc></polyline><polyline fill="none" points="18.150216131471097,174.1079268073663 19.9403295526281,180.45326034456957 20.7757158158347,182.0072160938289 21.73044297331944,185.89209946908522 23.16253370977938,188.4820169589948 23.759238183964044,189.0 23.16253370977938,188.35252117482014 22.327147447038442,186.28058733535 20.17901134165004,183.69066660827957 19.7016477631405,182.7841934543103 19.2242841841653,179.80577837780584 17.792193447239697,176.9568548965035 16.837466289754957,173.9784299666062 16.240761816501617,171.0" stroke="#4dd2ff" stroke-linecap="round" stroke-linejoin="round" stroke-width="0.5"><title>2023-10-23 1.0km</title><desc>10087395010</desc></polyline><polyline fill="none" points="37.02938786637969,171.08633225236554 37.34762704675086,171.0 39.61508120712824,171.1726644920418 40.60957864578813,171.43166113487678 40.84825803106651,171.56115941354074 41.36539669940248,171.94965407782 41.72341577708721,172.3813145144959 42.519013728015125,173.8489576249267 42.91681270347908,175.4892602887703 43.433951371815056,176.35257563943742 43.6726307568606,177.04322700586636 44.22954932251014,178.29503053677035 44.627348298206925,179.58999689779012 45.22404676140286,180.62596793007106 45.50250604422763,180.92812580347527 45.86052512214519,181.5324410837493 46.05942460987717,182.82740030408604 46.178764302516356,183.17272228054935 46.49700348265469,183.6475396664464 46.57656327798031,184.38134759839159 46.6959029706195,184.68350353906862 48.44621846266091,188.82734075089684 48.68489784793928,189.0 48.68489784793928,188.78417593060294 48.32687877002172,188.43885725463042 47.929079794790596,187.48922984837554 47.53128081909381,186.6690958525287 46.457223585341126,183.34538319258718" stroke="#4dd2ff" stroke-linecap="round" stroke-linejoin="round" stroke-width="0.5"><title>2023-10-22 1.5km</title><desc>10080655811</desc></polyline><polyline fill="none" points="62.851342872250825,171.0 63.48287438158877,171.45685924118152 62.3461176645942,171.27411558496533 64.11440589069389,173.5584074241924 64.28281429340132,174.10663621604908 64.15650799148716,174.56349317287095 63.567078582709655,174.88329284300562 63.39867018023506,175.2030923484126 63.4407722807955,175.75131968891947 63.777589085744694,177.07620043179486 64.15650799148716,178.03559506835882 64.57752899755724,179.4975269040442 65.33536680880934,180.82239965925692 65.4616731107235,181.3249368618708 65.92479621735401,182.14726958947722 66.2195109219756,182.51275045255898 66.26161302230321,182.74117588269291 66.55632772692479,183.01528628816595 66.76683822995983,183.47213669511257 67.06155293434858,184.3401515429723 67.35626763873734,184.93405574030476 67.3141655381769,186.12186243198812 67.86149284616113,187.1726126128342 68.02990124863572,187.675144680019 68.32461595279165,188.22336101706605 68.82984116044827,188.86294613225618 69.08245376427658,189.0 68.11410544975661,187.62945996341296 67.90359494672157,186.89850404136814 67.48257394041866,185.98480792954797 67.3141655381769,185.3909047365305 66.76683822995983,184.6142612430849 66.30371512309648,183.28939657268347" stroke="#4dd2ff" stroke-linecap="round" stroke-linejoin="round" stroke-width="0.5"><title>2023-10-20 1.4km</title><desc>10069668027</desc></polyline><polyline fill="none" points="84.94944948656484,171.0 85.03517680219375,171.69768395990832 85.72099532699212,173.3721223237808 85.89244995848276,174.39538803097093 87.30695066601038,177.83726962580113 87.43554163933732,178.302387323929 87.52126895519905,179.0000632299343 87.69272358622402,179.46518007316627 88.72145137377083,180.90704011387425 89.27867892524227,182.02331659808988 89.62158818775788,183.13959111261647 89.92163379257545,183.7442389856442 90.09308842383325,184.67446535412455 90.30740671278909,185.13957802538062 90.86463426426053,186.58142513339408 90.95036157988943,187.13955861562863 91.76477107848041,188.81395610782783 91.97908936743625,189.0 92.10768034076318,189.0 92.19340765639208,188.95348903205013 92.15054399869405,188.9069780607242 91.29327084263787,187.83722477586707 90.9074979221914,186.5349139876198 90.09308842383325,185.04655551846372 89.96449745027348,184.44190889014862 89.87877013464458,183.41865943354787" stroke="#4dd2ff" stroke-linecap="round" stroke-linejoin="round" stroke-width="0.5"><title>2023-10-19 1.3km</title><desc>10064004415</desc></polyline><polyline fill="none" points="107.3697093357332,171.0 109.13443198474124,173.29788272990845 109.01678380789235,174.95746281044558 109.25208016112447,176.61704130494036 110.0756173976697,179.55321475525852 111.25209916336462,181.46810780919623 112.4285809295252,184.7872507669963 114.78154446231201,188.61702321912162 115.13448899192736,189.0 115.4874335215427,188.87234108219855 113.95800722530112,187.3404333399376 111.13445098698139,181.8510861665709 110.42856192728505,179.4255551431561 108.42854292457923,175.21278268191963" stroke="#4dd2ff" stroke-linecap="round" stroke-linejoin="round" stroke-width="0.5"><title>2023-10-18 1.0km</title><desc>10058081424</desc></polyline><polyline fill="none" points="131.14397332072258,172.09091406327207 132.14933042926714,177.95456616184674 134.7883928399533,184.9091062474763 136.54776777978987,188.59091103076935 137.30178561154753,189.0 137.67879452742636,189.0 137.93013380421326,188.4545480213128 137.05044633476064,187.36364358162973 135.91941958712414,185.59092249977402 134.41138392407447,182.31820220442023 133.78303573140875,180.4091126989806 131.14397332072258,175.09092442982364 130.8926340439357,174.27274026570376 130.64129476668313,171.0" stroke="#4dd2ff" stroke-linecap="round" stroke-linejoin="round" stroke-width="0.5"><title>2023-10-17 1.0km</title><desc>10051702317</desc></polyline><polyline fill="none" points="153.12336090533063,171.41538655466866 154.3993914569728,173.63077996543143 156.31343728443608,178.61540561076254 157.3342617256567,180.55386757676024 158.48268922185525,184.15386307716835 159.88632282894105,187.75385169649962 160.39673504978418,188.72307822608855 161.0347503251396,189.0 161.16235338058323,188.86153911834117 161.0347503251396,188.44615641143173 159.63111671851948,186.36924150353298 157.71707089152187,181.66155923274346 156.31343728443608,178.75386724586133 155.1650097882375,173.3538559313165 154.52699451195076,171.0" stroke="#4dd2ff" stroke-linecap="round" stroke-linejoin="round" stroke-width="0.5"><title>2023-10-16 1.0km</title><desc>10046279660</desc></polyline><polyline fill="none" points="176.31368951732293,171.0 176.8403053013608,172.14286210003775 177.36692108446732,174.71429936750792 178.55180659657344,178.71430613135453 180.13165394589305,181.14287764916662 181.97480918699875,188.00000437430572 182.633078916464,188.71428701665718 183.55465653678402,189.0 183.68631048314273,188.71428701665718 183.55465653678402,187.8571478142403 181.84315524157137,185.42858468799386 180.92157762078568,182.57144771213643 179.8683460545726,180.85716351040173 177.36692108446732,175.0000144095393 176.44534346368164,171.0" stroke="#4dd2ff" stroke-linecap="round" stroke-linejoin="round" stroke-width="0.5"><title>2023-10-15 1.0km</title><desc>10039610121</desc></polyline><polyline fill="none" points="16.254232070874423,192.3064571354771 16.655564348679036,196.51614647032693 17.725783757399768,199.5645365928067 19.06355801783502,201.45163288107142 19.86622257437557,204.06453245715238 22.140438816975802,208.12903603585437 22.675548520870507,208.70967872138135 23.344435651786625,209.0 23.74576792959124,208.70967872138135 23.74576792959124,208.2741967231268 21.07021940825507,206.0967852922622 19.331112870015204,202.9032441836316 18.662225740030408,200.1451817966299 17.05689662694931,196.51614647032693 16.254232070874423,193.4677516417578 16.388009496964514,191.5806477224687 16.254232070874423,191.0" stroke="#4dd2ff" stroke-linecap="round" stroke-linejoin="round" stroke-width="0.5"><title>2023-10-14 1.0km</title><desc>10033377496</desc></polyline><polyline fill="none" points="38.77587113715708,191.28571558836848 41.14564181305468,194.1428691581823 41.40894966619089,196.2857315784786 43.647066415753216,203.14287544356193 45.75352923898026,208.14286092377733 46.4117988711223,209.0 46.93841457692906,209.0 46.93841457692906,208.5714305093279 46.806760650128126,208.14286092377733 45.62187531217933,207.2857214693213 44.305336048360914,204.85715762886684 42.85714285681024,200.28573510737624 40.22406432824209,194.42858428391628 39.82910254877061,192.42857752018608 39.17083291616291,191.0" stroke="#4dd2ff" stroke-linecap="round" stroke-linejoin="round" stroke-width="0.5"><title>2023-10-13 1.0km</title><desc>10028006924</desc></polyline><polyline fill="none" points="61.85210291808471,191.0 63.11839235946536,192.6488621745957 63.87816602457315,194.0229128751671 64.00479496875778,195.80917727621272 63.87816602457315,197.73284472187515 65.27108440967277,200.6183421780588 66.91726068360731,205.0152821157826 68.56343695754185,208.03817232279107 68.94332379009575,208.58778819919098 69.57646851055324,209.0 69.57646851055324,208.31298028118908 68.18355012498796,206.5267278305255 66.91726068360731,204.32826093258336 65.27108440967277,199.79391478805337 64.25805285666138,198.007654195535 63.751537080388516,196.4962015914498" stroke="#4dd2ff" stroke-linecap="round" stroke-linejoin="round" stroke-width="0.5"><title>2023-10-12 1.0km</title><desc>10021974100</desc></polyline><polyline fill="none" points="86.46693042293191,193.5522495948244 86.96210645744577,196.23882426461205 86.83831244893372,197.31345302646514 87.95245852740481,200.9403204311384 88.81901658838615,202.5522591888439 89.68557464983314,205.50747655145824 90.92351473681629,208.46268913452514 91.17110275477171,208.73134458682034 91.79007279872894,209.0 91.66627878928557,208.46268913452514 90.30454469332471,204.97016465931665 88.81901658838615,202.41793101315852 86.83831244893372,197.85076717019547 86.34313641348854,196.1044956248952 86.09554839646444,193.5522495948244 85.35278434399515,191.0" stroke="#4dd2ff" stroke-linecap="round" stroke-linejoin="round" stroke-width="0.5"><title>2023-10-10 1.0km</title><desc>10009069592</desc></polyline><polyline fill="none" points="108.3792341616936,193.2500098424498 109.2330485964194,195.6323701395886 110.08686303114519,198.80884563201107 111.91646539140493,202.7794321157271 113.38014727924019,207.80882909044158 114.23396171396598,209.0 114.4779086955823,208.60294311773032 114.5998821859248,207.14706713322084 113.746067751199,204.63236947765108 111.91646539140493,201.4559042607434 109.84291604999453,195.6323701395886 109.2330485964194,192.98530294792727 108.25726067088544,191.0" stroke="#4dd2ff" stroke-linecap="round" stroke-linejoin="round" stroke-width="0.5"><title>2023-10-09 1.0km</title><desc>10003389142</desc></polyline><polyline fill="none" points="130.62083570612594,191.0 131.5209813225083,192.11628403502982 132.42112693889067,194.20931483071763 132.93549586180598,198.3953694977099 134.86437932495028,202.58141493203584 136.53607832593843,207.3255885966355 137.3076317110099,208.7209315354703 137.9505928652361,209.0 137.9505928652361,207.88372589554638 135.5073404791765,203.97676135855727 132.29253470804542,196.1628081573872 131.00661239866167,191.13953554059844" stroke="#4dd2ff" stroke-linecap="round" stroke-linejoin="round" stroke-width="0.5"><title>2023-10-08 1.0km</title><desc>9996447828</desc></polyline><polyline fill="none" points="154.83233124343678,194.60001482162625 155.42477378202602,196.78573449037503 157.20210139686242,201.54287962068338 157.79454393545166,203.60001945286058 159.69036005763337,208.35714604717214 160.2828025962226,209.0 160.40129110356793,208.48571685678326 160.40129110356793,207.97143356245942 158.15000945841894,203.98573290207423 157.0836128895171,201.67145093088038 155.18779676640406,196.01430433080532 154.59535422781482,193.05715223390143 153.88442318188027,191.0" stroke="#4dd2ff" stroke-linecap="round" stroke-linejoin="round" stroke-width="0.5"><title>2023-10-07 1.0km</title><desc>9989974159</desc></polyline><polyline fill="none" points="178.5293982247822,196.36172163987067 179.4705833606422,199.42555514350533 180.17647221311927,200.9574698683573 181.58824991760775,206.95745619398076 181.94119434338063,208.10638738039415 182.6470831958577,209.0 183.23532390547916,209.0 183.47062018932775,208.48936427361332 183.35297204786912,208.10638738039415 181.94119434338063,206.06384252291173 180.52941663889214,203.00002073205542 180.05882407119498,200.9574698683573 177.5882130889222,194.95746281091124 177.23526866268367,192.78724238602445 176.52937981067225,191.0" stroke="#4dd2ff" stroke-linecap="round" stroke-linejoin="round" stroke-width="0.5"><title>2023-10-06 1.0km</title><desc>9984428862</desc></polyline><polyline fill="none" points="16.12483936548233,211.0 18.16439759451896,216.45903345034458 19.52410308038816,221.0328068000963 21.835602406412363,226.78689395042602 22.78739624656737,228.7049193349667 23.195307892281562,229.0 23.739190086722374,229.0 23.87516063498333,228.7049193349667 23.467248988803476,227.96721748064738 21.835602406412363,225.60656972648576 20.883808566257358,223.6885413810378 19.252161982934922,219.40985615958925 18.572309240233153,217.19673953438178 16.668721560388803,213.65574785752688 16.668721560388803,212.32787436805665" stroke="#4dd2ff" stroke-linecap="round" stroke-linejoin="round" stroke-width="0.5"><title>2023-10-04 1.0km</title><desc>9971682885</desc></polyline><polyline fill="none" points="40.13277236092836,213.10219913115725 40.738188026472926,215.20439578976948 41.343603692017496,216.64965455804486 41.82793622510508,218.8832339918008 44.12851575482637,223.48177109507378 44.24959888821468,225.05840966361575 44.97609768761322,228.21168262825813 45.21826395345852,228.6058413576102 45.94476275285706,229.0 45.94476275285706,227.68613752059173 44.37068202206865,224.79563666554168 43.2809338234365,222.29929125588387 42.67551815696061,221.11681063415017 42.070102490950376,219.40878168831114 40.85927115986124,216.912428754149 40.374938626773655,214.9416213426739 40.13277236092836,212.97081175807398 39.769522961229086,211.0" stroke="#4dd2ff" stroke-linecap="round" stroke-linejoin="round" stroke-width="0.5"><title>2023-10-03 1.0km</title><desc>9965060084</desc></polyline><polyline fill="none" points="62.42402427177876,211.7438048243057 64.06915499269962,217.09919148962945 64.34334344649687,219.47935879125725 65.30300303408876,220.66944139194675 65.9884741678834,222.45456398068927 67.22232220834121,227.06612337986007 68.1819817959331,228.55372094386257 68.86745292972773,229.0 69.00454715685919,228.8512403254863 68.59326447639614,227.6611625365913 67.08522798214108,224.83472498285118 64.61753189982846,218.88431722810492 63.1094954055734,214.42149992857594 62.83530695224181,211.0" stroke="#4dd2ff" stroke-linecap="round" stroke-linejoin="round" stroke-width="0.5"><title>2023-10-02 1.0km</title><desc>9958643020</desc></polyline><polyline fill="none" points="85.71822394337505,214.16801199468318 85.98363832710311,215.46401542495005 88.90319655137137,222.37601923558395 90.36297566303983,226.84000873356126 91.15921881515533,228.4240025616018 91.95546196680516,229.0 92.08816915936768,228.85600065614562 91.95546196680516,228.2800031756051 89.30131812673062,224.2480160703417 86.7798814792186,218.0560197121231 85.58551675127819,214.31201241828967 85.05468798335642,211.0" stroke="#4dd2ff" stroke-linecap="round" stroke-linejoin="round" stroke-width="0.5"><title>2023-10-01 1.0km</title><desc>9952075403</desc></polyline><polyline fill="none" points="108.8441479918547,213.60870696778875 109.92599966330454,215.8261048743734 110.40682262741029,218.04350000969134 110.76743985153735,220.1304576053517 112.57052597030997,225.21740646020044 114.13320060679689,228.47826343949419 114.85443505365402,229.0 115.09484653687105,228.60869759391062 112.69073171215132,224.95653764309827 111.60888004070148,222.47828196594492 111.24826281657442,221.17393548239488 109.56538243917748,217.52176022715867 108.60373650910333,213.47827171022072 107.76229632040486,211.0" stroke="#4dd2ff" stroke-linecap="round" stroke-linejoin="round" stroke-width="0.5"><title>2023-09-30 1.0km</title><desc>9945549317</desc></polyline><polyline fill="none" points="131.4988648928702,211.0 132.69322891859338,213.0160082259681 133.09135026019067,214.60001323360484 134.15300717158243,217.19201866455842 134.6838356279768,221.0800203795079 135.08195697003976,222.23201940534636 136.67444233689457,226.12001111591235 137.07256367895752,228.56800193735398 137.3379779071547,228.85600065637846 137.736099248752,229.0 137.86880636261776,228.7120013020467 135.48007831163704,224.39201575319748 133.88759294431657,220.64802057005 133.35676448838785,218.48802009352949 131.4988648928702,214.16801199526526 130.7026222087443,211.57600256206933" stroke="#4dd2ff" stroke-linecap="round" stroke-linejoin="round" stroke-width="0.5"><title>2023-09-28 1.0km</title><desc>9933629332</desc></polyline><polyline fill="none" points="153.6241046753712,213.04546334245242 154.62946252338588,216.5909277930623 156.5145084876567,219.1818398362957 157.77120579779148,223.81819972326048 159.5305820312351,226.9545542517444 160.03326095547527,228.72727403056342 160.53593987878412,229.0 160.78727934136987,228.59091103065293 160.53593987878412,228.04545893135946 159.5305820312351,226.6818279812578 156.64017821848392,220.81820347253233 155.13214144669473,216.72729167481884 153.498434944544,211.0" stroke="#4dd2ff" stroke-linecap="round" stroke-linejoin="round" stroke-width="0.5"><title>2023-09-27 1.0km</title><desc>9927137811</desc></polyline><polyline fill="none" points="181.49532136670314,211.0 181.13644423848018,212.73079315607902 180.77756711049005,213.72599691554205 180.4984404554125,214.93754704669118 178.86355576105416,218.35583575541386 178.02617579582147,219.78372262767516 177.86667484999634,220.38949176907772 177.94642532267608,220.86545280006249 178.1458015050739,221.55775906681083 178.7439300515689,223.02890717971604 178.94330623396672,223.4183281234 179.18255765270442,224.11063138698228 179.98006238159724,225.10581590171205 180.33893950958736,225.88465478277067 180.7376918741502,226.49041764438152 181.05669376580045,227.3557920793537 181.535196603043,228.00482207047753 182.13332514977083,229.0" stroke="#4dd2ff" stroke-linecap="round" stroke-linejoin="round" stroke-width="0.5"><title>2023-09-26 1.0km</title><desc>9920397094</desc></polyline><polyline fill="none" points="19.91593836294487,231.0 19.131363085703924,233.61488918599207 18.346787808462977,235.01354744983837 17.618253622204065,235.92571460851468 17.225965983700007,236.65544761100318 17.05784271005541,237.38517996965675 17.113883800804615,238.29734451253898 17.394089257344604,239.02707542252028 18.06658235215582,240.06085977627663 18.346787808462977,241.0946428378229 18.907198720611632,242.43247782281833 19.971979454159737,243.77031064400217 21.765294373733923,247.4189346122439 22.94215728971176,249.0" stroke="#4dd2ff" stroke-linecap="round" stroke-linejoin="round" stroke-width="0.5"><title>2023-09-25 1.0km</title><desc>9914573673</desc></polyline><polyline fill="none" points="44.184191750595346,231.0 43.741842119488865,231.67200891877292 43.653372193221,232.00801311869873 43.741842119488865,232.4400182645768 43.786077082622796,232.8720231244224 42.901377820177004,234.50403890397865 42.68020300450735,235.60804726480274 42.37055826303549,236.42405224451795 40.512689811876044,239.68806196353398 40.46845484874211,240.07206203386886 40.64539470104501,240.8400614973507 41.13197929551825,241.6080600572168 41.397389074321836,242.2800580559997 41.795503742294386,242.95205536298454 42.01667855796404,243.62405197828775 42.591733078472316,244.53604627848836 43.03408270934597,245.44803930463968 43.52066730405204,245.9760346848634 43.653372193221,246.45603011449566 43.96301693515852,246.8400262040086 44.62654138193466,247.99201311788056 45.11312597617507,248.5200064406381 45.24583086557686,249.0" stroke="#4dd2ff" stroke-linecap="round" stroke-linejoin="round" stroke-width="0.5"><title>2023-09-24 1.0km</title><desc>9907510217</desc></polyline><polyline fill="none" points="66.38532714219764,231.0 66.0095439425204,231.5825306751649 65.7411273715552,232.1650609219796 65.58007742883638,232.9223496025661 65.52639411436394,233.9126490924391 64.61377777229063,235.13595851819264 64.07694462989457,236.53402412019204 63.59379480173811,237.23305599595187 63.271694916300476,238.16509753774153 63.21801160182804,239.15539047430502 64.3453612010926,242.00975730718346 64.77482771500945,242.8835410165484 66.17059388547204,245.09712210064754 66.76111034187488,246.5534220727859 67.5126767414622,247.4854526500567 67.94214325537905,248.24272668687627 68.21055982680991,249.0" stroke="#4dd2ff" stroke-linecap="round" stroke-linejoin="round" stroke-width="0.5"><title>2023-09-23 1.0km</title><desc>9901004991</desc></polyline><polyline fill="none" points="89.26260162354447,231.0 88.90421559661627,231.6666743136011 88.54582956968807,232.83335294673452 87.72666150797158,234.5555895413272 86.9074934462551,235.7222637136001 86.1907213923987,237.66671666427283 86.13952338835225,238.72227474185638 86.24191939644516,239.33338663936593 87.2658794731833,241.7778292860603 87.41947348485701,242.5000494637643 87.6242655001115,242.88893696578452 88.34103755396791,243.77782193332678 88.90421559661627,244.88892667199252 89.36499763117172,246.05558488948736 90.13296768907458,247.16668627905892 91.00333375460468,249.0" stroke="#4dd2ff" stroke-linecap="round" stroke-linejoin="round" stroke-width="0.5"><title>2023-09-22 1.0km</title><desc>9895405405</desc></polyline><polyline fill="none" points="112.38275621784851,231.0 112.23595855780877,231.53097987367073 111.94236323842779,231.84956761042122 111.30624004546553,233.01772144268034 111.06157727912068,233.86728667921852 110.32758897962049,235.72570714971516 109.54466812731698,237.3186351749464 109.05534259416163,238.48678016033955 108.90854493435472,239.07085194438696 108.90854493435472,239.44253374281107 109.05534259416163,239.97350740875117 109.34893791400827,240.5044806843507 109.98506110697053,242.15049535757862 110.62118429946713,243.31863252696348 110.96371217234991,244.16818564524874 111.59983536507934,245.2301256377832 111.9912957912311,245.7079981250572 112.28489111107774,246.55754843255272 113.06781196361408,247.93806555081392 113.94859792268835,249.0" stroke="#4dd2ff" stroke-linecap="round" stroke-linejoin="round" stroke-width="0.5"><title>2023-09-21 1.0km</title><desc>9889267953</desc></polyline><polyline fill="none" points="136.1183380978182,231.0 135.47597511205822,232.9271348346956 135.09811453241855,234.4442362957052 134.49353760434315,235.71531812573085 133.77560250274837,237.84744888261775 132.52866258914582,240.18458284673397 132.18858806742355,241.45565159220132 132.22637412510812,241.74266671438818 132.4530904730782,242.3576986216649 132.94430922716856,243.42375232084305 133.24659769097343,244.32579616687144 134.00231885071844,245.39184610371012 134.45575154665858,246.2528849497321 134.72025395231321,246.86791188293137 135.02254241611809,247.4009346763487 135.51376117020845,247.76995015799184 136.1183380978182,248.6719869741064 136.15612415596843,248.83599351116573 136.3828405039385,249.0" stroke="#4dd2ff" stroke-linecap="round" stroke-linejoin="round" stroke-width="0.5"><title>2023-09-20 1.0km</title><desc>9882714971</desc></polyline><polyline fill="none" points="158.6353601696901,231.0 158.25157367717475,231.97173551184824 157.52664363547228,234.10029377049068 157.4840006919112,234.79438729817048 157.22814303007908,235.16457019996597 156.9296424249187,235.85866255377186 156.75907065020874,236.50648139341502 156.41792710125446,237.3856630375376 155.43713939771987,238.9589323879336 155.18128173588775,239.88438310968922 155.0959958487656,240.71728759579128 155.18128173588775,241.55019097944023 155.43713939771987,242.47563789068954 155.73564000288025,243.12344991898863 156.67378476285376,244.74297707213555 157.14285714295693,245.39078676642384 157.56928657903336,246.5475881336024 157.99571601534262,247.28793989261612 158.42214545141906,247.889475055621 158.8912178312894,248.35219402058283 159.18971843691543,249.0" stroke="#4dd2ff" stroke-linecap="round" stroke-linejoin="round" stroke-width="0.5"><title>2023-09-19 1.0km</title><desc>9876194288</desc></polyline><polyline fill="none" points="179.86750662187114,231.0 179.54952251445502,231.51757766940864 179.01954900240526,232.5527319808025 178.8605569486972,233.24283409374766 177.90660462668166,234.91057835303945 177.1646417095326,236.46330257016234 177.00564965582453,237.03838483133586 177.05864700721577,237.67097482999088 177.3766311146319,238.47608863416826 177.85360727552325,239.33870964730158 178.27758608548902,240.5463774675154 178.8605569486972,241.81155127921375 179.4965251632966,242.96170751401223 180.07949602697045,243.70930815977044 180.76846159272827,244.85946160397725 181.19244040246122,246.18213597405702 181.9344033198431,247.33228578220587 182.30538477841765,248.36741916363826 182.9943503444083,249.0" stroke="#4dd2ff" stroke-linecap="round" stroke-linejoin="round" stroke-width="0.5"><title>2023-09-18 1.0km</title><desc>9870505463</desc></polyline><polyline fill="none" points="20.180867734597996,251.0 19.922485256800428,251.5046786859748 19.560749787837267,253.18693856027676 19.095661327708513,253.97199189837556 18.888955345377326,254.58881895412924 17.75207244278863,256.43929712829413 17.33866047835909,257.4486469672411 17.08027800032869,258.3458457023953 17.286983982659876,258.9626692206948 18.42386688501574,261.4299583049142 18.99230833654292,262.3271523566218 19.40572030097246,263.2804198800004 20.077514743432403,264.17761175491614 20.439250212628394,264.79443055659067 20.904338672524318,266.2523639231222 22.91972199990414,269.0" stroke="#4dd2ff" stroke-linecap="round" stroke-linejoin="round" stroke-width="0.5"><title>2023-09-16 1.0km</title><desc>9856514700</desc></polyline><polyline fill="none" points="42.608320247381926,251.0 42.05538111459464,252.68001679936424 41.33656024211086,253.82002622907748 39.84362458344549,256.7000429572654 39.78833067021333,257.36004535935353 39.84362458344549,258.1400475098053 40.175388063304126,258.92004891473334 40.72832719609141,259.76004959398415 41.22597241541371,260.9000491327606 42.1106750278268,262.4000460996176 43.216553293634206,264.50003722141264 43.32714112009853,265.2800325474236 43.7141985129565,265.58003055123845 44.15654981927946,266.18002622795757 44.87537069176324,267.38001625816105 45.649485477479175,268.04001002263976 45.81536721740849,268.46000577666564 45.92595504410565,269.0" stroke="#4dd2ff" stroke-linecap="round" stroke-linejoin="round" stroke-width="0.5"><title>2023-09-15 1.0km</title><desc>9850671982</desc></polyline><polyline fill="none" points="66.17188994190656,251.0 65.2566814867314,253.4207119922503 64.22707197465934,254.91037746024085 63.76946774707176,255.7172784911818 63.08306140569039,257.4552165536443 62.911459820345044,258.07590785168577 62.911459820345044,258.57246056129225 63.08306140569039,259.193151037849 63.76946774707176,261.05521972937277 64.39867356000468,262.29659657517914 65.9430878283456,264.96555061248364 66.57229364104569,266.14485319692176 66.68669469794258,266.82760657178005 67.14429892553017,267.26208570454037 67.88790579535998,268.44138508086326 68.51711160829291,269.0" stroke="#4dd2ff" stroke-linecap="round" stroke-linejoin="round" stroke-width="0.5"><title>2023-09-14 1.0km</title><desc>9844236351</desc></polyline><polyline fill="none" points="85.71067532338202,251.0 86.03997066128068,251.26799398573348 86.16345641296357,251.535987853189 86.24578024749644,252.11664082697826 86.49275175086223,252.60796214069705 86.65739941992797,253.99259279557737 86.65739941992797,254.66257423744537 86.5750755853951,255.01989737094846 86.65739941992797,255.46655099239433 86.8632090059109,256.00253490457544 86.78088517161086,256.4491878034314 86.82204708876088,256.6725141296629 87.23366626119241,257.4318230249919 87.60412351647392,258.54845202929573 87.93341885413975,259.17376337520545 88.34503802657127,259.7544090486481 88.79781911615282,260.1563941896311 88.92130486783572,260.42438413598575 89.04479061975144,261.00502861407585 89.3740859576501,261.5856725371559 89.74454321269877,262.6576290910598 90.23848621943034,263.5955895241932 90.48545772279613,264.39955445716623 90.60894347471185,265.0695244217641 90.85591497807764,265.6054998616455 91.30869606765918,267.0794298829278 91.92612482630648,268.2407055631047 91.96728674368933,268.41936316300416 91.92612482630648,268.5533563285135 91.43218181934208,269.0 91.67915332294069,268.8213425707654 91.80263907462358,268.5533563285135 91.88496290892363,268.330034369661 91.84380099200644,268.0173834892921 91.59682948840782,267.70473244803725 90.85591497807764,266.0968102659681 90.48545772279613,264.89086583675817 89.70338129554875,263.14894187945174 89.33292404026724,261.45167783496436 89.12711445428431,260.96036367397755 88.34503802657127,259.9330691441428 87.56296159909107,258.45912178448634 87.19250434380956,257.2531621938688 87.0690185923595,256.4491878034314 86.73972325422801,255.60054701479385 86.08113257866353,254.1712545856717 85.91648490959778,253.50127260189038 85.34021806833334,252.4292998908204 85.21673231641762,251.84864721581107 85.1755703992676,251.1339970076806" stroke="#4dd2ff" stroke-linecap="round" stroke-linejoin="round" stroke-width="0.5"><title>2023-09-13 1.0km</title><desc>9837636972</desc></polyline></svg>