<?xml version="1.0" encoding="utf-8" ?>
<svg baseProfile="full" height="300mm" version="1.1" viewBox="0,0,200,300" width="200mm" xmlns="http://www.w3.org/2000/svg" xmlns:ev="http://www.w3.org/2001/xml-events" xmlns:xlink="http://www.w3.org/1999/xlink"><defs /><rect fill="#222222" height="300" width="200" x="0" y="0" /><text fill="#FFFFFF" style="font-size:12px; font-family:Arial; font-weight:bold;" x="10" y="20">Over 1km Runs</text><text fill="#FFFFFF" style="font-size:4px; font-family:Arial" x="10" y="280">ATHLETE</text><text fill="#FFFFFF" style="font-size:9px; font-family:Arial" x="10" y="290">Jiakai</text><text fill="#FFFFFF" style="font-size:4px; font-family:Arial" x="120" y="280">STATISTICS</text><text fill="#FFFFFF" style="font-size:3px; font-family:Arial" x="120" y="285">Number: 63</text><text fill="#FFFFFF" style="font-size:3px; font-family:Arial" x="120" y="290">Weekly: 5.7</text><text fill="#FFFFFF" style="font-size:3px; font-family:Arial" x="141" y="285">Total: 65.3 km</text><text fill="#FFFFFF" style="font-size:3px; font-family:Arial" x="141" y="290">Avg: 1.0 km</text><text fill="#FFFFFF" style="font-size:3px; font-family:Arial" x="167" y="285">Min: 1.0 km</text><text fill="#FFFFFF" style="font-size:3px; font-family:Arial" x="167" y="290">Max: 1.5 km</text><polyline fill="none" points="20.829488451592624,36.50102712435182 20.97968507464975,38.78272263298277 21.580471565015614,42.36823940183967 23.983617526479065,49.213300766190514 24.734600638970733,52.47284636832774 25.936173618771136,54.428571428521536 26.83735335431993,54.428571428521536 26.687156732194126,53.45070911385119 25.03499388322234,49.213300766190514 23.68322428036481,47.094593554968014 21.73066818714142,41.06441579351667 19.477718848735094,34.871243180241436 18.876932359300554,31.28571428556461" stroke="#4dd2ff" stroke-linecap="round" stroke-linejoin="round" stroke-width="0.5"><title>2023-11-21 1.0km</title><desc>10253878272</desc></polyline><polyline fill="none" points="46.08057554624975,37.535997949540615 46.858967116102576,42.6037830329733 50.12821171153337,50.88114129961468 51.52931653894484,53.92179603117984 51.99635148048401,54.428571428521536 52.30770810879767,54.25964630860835 52.4633864229545,53.92179603117984 51.8406731672585,51.2189920238452 49.03846351336688,45.137671383912675 47.94871531520039,41.928079001023434 46.23625386040658,35.33995427505579 45.302183975465596,33.6506884819828 44.6794707197696,31.285714285681024" stroke="#4dd2ff" stroke-linecap="round" stroke-linejoin="round" stroke-width="0.5"><title>2023-11-20 1.0km</title><desc>10248671423</desc></polyline><polyline fill="none" points="70.16554481443018,33.21429429226555 72.42759864125401,38.12339999852702 73.07389973476529,43.207820255542174 74.85122774168849,47.240283785387874 76.62855574861169,52.3246846050024 77.43643211573362,53.551952143898234 78.40588375553489,54.42857142863795 78.24430848285556,53.02598041878082 75.4975288361311,45.837688548257574 73.7202008292079,39.350674845976755 71.94287282135338,35.14287273935042 70.97342118155211,31.285714285681024" stroke="#4dd2ff" stroke-linecap="round" stroke-linejoin="round" stroke-width="0.5"><title>2023-11-19 1.0km</title><desc>10242265034</desc></polyline><polyline fill="none" points="95.50211553042755,51.90590775629971 96.51287608547136,48.72515182720963 96.91718030767515,47.95738213835284 97.6247126958333,47.518656424595974 101.06129858270288,47.0799305816181 103.58819997031242,46.53152309637517 104.39680841425434,45.873433847911656 104.90218869224191,45.21534430934116 105.50864502508193,42.47330143931322 105.30649291398004,41.59584665612783 105.71079713618383,40.93775523011573 105.40756896929815,35.89237798273098 105.20541685866192,35.23428404016886 105.10434080287814,33.26000046962872 104.90218869224191,32.05349255690817 103.79035208187997,31.724444774794392 102.88066758215427,32.38254026602954 103.08281969279051,32.05349255690817 103.2849718038924,32.38254026602954 101.97098308242857,31.724444774794392 101.86990702757612,31.285714285681024 101.56667886069044,31.50507954636123 101.76883097179234,31.39539692015387 101.06129858270288,32.27285770443268 101.16237463848665,32.16317513468675 103.2849718038924,33.26000046962872 102.77959152683616,33.698730377829634 101.97098308242857,34.027777724317275 100.05053802812472,34.356824998161756 99.94946197234094,33.91809528332669 100.45484224986285,33.698730377829634 101.16237463848665,33.8084128346527 103.2849718038924,31.724444774794392 106.21617741324008,31.83412737690378 105.91294924728572,31.614762164535932 105.50864502508193,31.50507954636123 105.20541685866192,36.76983612135518 105.30649291398004,38.30538662197068 105.60972108040005,40.16998153261375 105.8118731919676,43.35075570619665 105.8118731919676,44.447572813834995 105.50864502508193,45.544389114831574 104.90218869224191,46.20247850846499 99.84838591702282,46.750886114663444 97.52363664051518,47.189612054498866 96.31072397436947,48.0670635466231 94.89565919712186,50.04132751713041 94.08705075317994,52.893037527566776 93.78382258675992,54.428571428521536" stroke="#4dd2ff" stroke-linecap="round" stroke-linejoin="round" stroke-width="0.5"><title>2023-11-18 1.0km</title><desc>10236386505</desc></polyline><polyline fill="none" points="120.99167407304049,31.285714285681024 124.34320491552353,37.07145090273116 125.56194340344518,41.3694170381641 126.01897033583373,43.849009147961624 126.93302420247346,45.3367631015135 129.82752811070532,53.767350244452246 130.4368973551318,54.428571428521536 130.4368973551318,53.767350244452246 129.82752811070532,52.94082349096425 128.15176269039512,47.98165658861399 127.23770882375538,46.32859852374531 126.93302420247346,43.518397024832666 125.56194340344518,40.04696679417975 124.03852029331028,36.74083778320346 123.88617798220366,34.922464754548855" stroke="#4dd2ff" stroke-linecap="round" stroke-linejoin="round" stroke-width="0.5"><title>2023-11-17 1.0km</title><desc>10231268371</desc></polyline><polyline fill="none" points="147.30058379936963,32.0322613583412 149.53657709807158,35.20508396439254 150.05257555190474,39.49772000266239 151.6005709124729,42.85716922977008 154.00856369640678,51.81567876855843 155.55655905697495,54.42857142863795 155.38455957267433,52.93549023801461 154.18056318163872,50.5092314297799 153.320565758273,48.082970302319154 151.94456988107413,42.29726133355871 149.19257812947035,36.51153917913325 148.33258070610464,33.898628077004105 147.81658225227147,31.285714285913855" stroke="#4dd2ff" stroke-linecap="round" stroke-linejoin="round" stroke-width="0.5"><title>2023-11-16 1.0km</title><desc>10225818993</desc></polyline><polyline fill="none" points="173.1295353928581,31.534563053166494 174.27619874943048,36.013837745646015 176.11086012143642,40.9908026738558 178.63351950608194,45.71891257795505 179.5508501911536,49.45162625797093 181.15617889072746,52.686641451437026 182.76150759123266,54.42857142863795 178.63351950608194,46.71430329512805 176.79885813500732,40.9908026738558 171.52420669421554,31.285714285681024" stroke="#4dd2ff" stroke-linecap="round" stroke-linejoin="round" stroke-width="0.5"><title>2023-11-15 1.0km</title><desc>10219684298</desc></polyline><polyline fill="none" points="18.767953756265342,60.85554366046563 20.852638396434486,63.465648581972346 21.1733591100201,66.77177735022269 23.578764462843537,72.5139900248032 25.022007673978806,77.38615955109708 26.465250885114074,81.04028011439368 27.106692313216627,81.21428571431898 26.946331955492496,79.12621766608208 24.861647317185998,76.34212406841107 24.059845532290637,73.90603948454373 22.776962677948177,72.33998378482647 22.295881607569754,70.42591430083849 19.890476254746318,65.5537304468453 19.08867447078228,62.07359298178926 18.607593400403857,58.07142857136205" stroke="#4dd2ff" stroke-linecap="round" stroke-linejoin="round" stroke-width="0.5"><title>2023-11-14 1.0km</title><desc>10213806154</desc></polyline><polyline fill="none" points="45.480423795990646,61.257777913240716 46.716825706884265,65.95344251510687 50.11693095881492,74.67393684480339 50.889682152308524,77.52486045227852 52.435184540227056,80.71118262084201 52.89883525669575,81.21428571431898 51.971533823758364,79.53727497137152 49.807830480858684,74.3385338333901 49.65328024234623,72.9969212935539 48.107777854427695,69.30748274119105 45.78952427394688,65.11493168806192 44.8622228410095,62.2639925701078 44.24402188602835,58.071428571478464" stroke="#4dd2ff" stroke-linecap="round" stroke-linejoin="round" stroke-width="0.5"><title>2023-11-13 1.0km</title><desc>10208522228</desc></polyline><polyline fill="none" points="71.70051010232419,60.701310012023896 73.31626271735877,65.61041427473538 75.25516585540026,69.64288521651179 76.38619268499315,74.37664675200358 77.51721951551735,77.70780664379708 78.97139686904848,80.86363803921267 79.61769791413099,81.21428571431898 79.94084843806922,80.51299031241797 78.16352056153119,77.00651021138765 77.19406899344176,73.14937614509836 73.63941324036568,69.81820988538675 71.70051010232419,67.01301363646053 71.37735957931727,64.03248900664039 68.63058013375849,58.07142857136205" stroke="#4dd2ff" stroke-linecap="round" stroke-linejoin="round" stroke-width="0.5"><title>2023-11-12 1.0km</title><desc>10202270880</desc></polyline><polyline fill="none" points="96.49839932657778,62.38914310047403 100.31832733470947,71.02454834850505 101.59163667075336,75.34223906928673 102.86494600679725,78.79638593248092 103.66076434217393,80.35075036389753 104.45658267661929,81.21428571431898 104.61574634350836,80.52345745940693 103.1832733405754,76.20577626116574 100.47749100159854,72.06079484522343 97.6125449957326,65.49789264635183 96.49839932657778,60.83476678398438 95.38425365649164,58.07142857159488" stroke="#4dd2ff" stroke-linecap="round" stroke-linejoin="round" stroke-width="0.5"><title>2023-11-11 1.0km</title><desc>10196068378</desc></polyline><polyline fill="none" points="123.5627821246162,61.52256869641133 126.18200388550758,69.43987386161461 128.6141383787617,75.93610729952343 129.73666199017316,80.19925218750723 130.48501106444746,81.21428571431898 130.85918560251594,80.8082723482512 130.2979237958789,78.37219089805149 127.49161476641893,72.0789705386851 124.68530573602766,66.19175141211599 120.9435603627935,60.304519733646885 120.56938582565635,58.07142857136205" stroke="#4dd2ff" stroke-linecap="round" stroke-linejoin="round" stroke-width="0.5"><title>2023-11-10 1.0km</title><desc>10191120477</desc></polyline><polyline fill="none" points="146.05588741227984,58.77808399661444 148.82363372389227,60.898049026494846 150.45171978976578,63.72466615634039 150.94014560990036,64.78464672272094 150.94014560990036,66.37461669603363 152.73104028124362,71.85117188398726 153.3822747077793,75.03110142680816 154.68474356085062,78.5643515388947 155.0103607736528,80.3309746470768 155.82440380658954,81.21428571431898 156.3128296257928,81.03762352676131 156.80125544499606,80.3309746470768 155.0103607736528,79.09433860797435 152.07980585563928,74.85443878476508 148.66082511749119,65.49130017426796 147.84678208455443,60.191394224064425 147.03273905161768,58.07142857136205" stroke="#4dd2ff" stroke-linecap="round" stroke-linejoin="round" stroke-width="0.5"><title>2023-11-09 1.0km</title><desc>10185506531</desc></polyline><polyline fill="none" points="172.6281896866858,59.929622788215056 174.34064975660294,63.3081538771512 174.96336250845343,64.99741755891591 176.98717895522714,69.3894973192364 177.76556989643723,72.43016300420277 177.60989170800894,70.57197889685631 177.9212480848655,71.75445986620616 178.543960836716,76.3154521904653 179.9450645307079,80.53858515981119 180.5677772834897,81.21428571431898 181.34616822376847,80.8764354614541 181.65752459969372,80.36965998983942 179.9450645307079,78.8493329033954 178.69963902514428,76.82222855673172 177.9212480848655,74.62619682983495 176.83150076679885,70.90983066475019 175.27471888624132,68.71379328717012 173.56225881539285,64.99741755891591 173.09522425103933,62.29459507192951 173.2509024385363,58.916062492644414 172.93954606261104,58.071428571478464" stroke="#4dd2ff" stroke-linecap="round" stroke-linejoin="round" stroke-width="0.5"><title>2023-11-08 1.0km</title><desc>10179505859</desc></polyline><polyline fill="none" points="21.81311812903732,97.6423877205234 27.033241770230234,108.0 27.331534549593925,107.83816268318333 26.585802600719035,106.05795140948612 25.24348509311676,103.79222588869743 24.348606755025685,101.52649803610984 22.55885007791221,99.58444373495877 21.962264519184828,98.45157793466933 21.51482534967363,94.56746219331399 21.216532570309937,93.43459381128196 19.426775893196464,90.35966240661219 18.38275116495788,84.85714285715949" stroke="#4dd2ff" stroke-linecap="round" stroke-linejoin="round" stroke-width="0.5"><title>2023-11-06 1.0km</title><desc>10167691585</desc></polyline><polyline fill="none" points="46.34657233860344,91.35048635595012 47.42064086534083,93.34843445639126 51.41003824863583,102.50567402900197 53.09786021895707,107.66701092664152 53.40473693981767,108.0 53.71161366160959,108.0 53.71161366160959,107.50051637156866 52.4841067744419,104.83660182671156 51.41003824863583,103.3381485179998 51.256599887274206,102.50567402900197 50.33596972189844,101.50670423870906 47.72751758713275,97.01133472868241 44.65875036921352,89.18604059156496 43.43124348204583,84.85714285715949" stroke="#4dd2ff" stroke-linecap="round" stroke-linejoin="round" stroke-width="0.5"><title>2023-11-05 1.1km</title><desc>10161301187</desc></polyline><polyline fill="none" points="69.9583085551858,84.85714285715949 73.04931264836341,91.73294377140701 74.44026449043304,97.77021529059857 76.60396735556424,101.96275555563625 77.37671837862581,105.3167822198011 78.14946940168738,108.0 78.61312001571059,107.49689690663945 78.45856981072575,106.9937937023351 76.4494171505794,103.3043668132741 76.29486694559455,102.80126268405002 74.44026449043304,99.95033719029743 73.66751346644014,97.26710994099267 71.65836080629379,93.5776673196815 71.19471019227058,90.39132570847869 70.26740896422416,87.03727709862869" stroke="#4dd2ff" stroke-linecap="round" stroke-linejoin="round" stroke-width="0.5"><title>2023-11-04 1.0km</title><desc>10155501797</desc></polyline><polyline fill="none" points="106.20904343901202,88.37253088480793 104.45431377133355,86.02893955609761 103.37448012968525,85.29656669998076 101.21481284638867,84.85714285715949 99.19012476876378,85.00361748237628 96.35556145943701,86.32188862282783 95.14074861258268,87.49368445994332 94.06091497093439,89.69079979555681 93.79095656098798,91.44849031907506 93.38601894536987,97.3074475270696 93.65597735531628,103.45933404483367 93.92593576619402,104.33817342494149 95.27572781778872,106.53527017787565 96.89547828072682,107.70705412165262 99.59506238438189,108.0 102.02468807809055,106.97468923777342 104.31933456659317,104.19170022185426 104.99423059262335,102.87344090954866 105.93908502859995,98.62571052322164 105.93908502859995,95.25681446457747 106.61398105463013,90.86259365000296 106.4790018494241,89.25137692224234 104.99423059262335,87.49368445994332 103.77941774530336,86.6148376467172 100.9448544359766,85.29656669998076 99.46008317917585,85.29656669998076 96.22058225469664,86.32188862282783 94.73581099743024,87.64015889097936 93.79095656098798,89.39785122405738 93.5209981505759,90.56964525126386 93.79095656098798,95.40328832506202 93.5209981505759,97.60039493476506" stroke="#4dd2ff" stroke-linecap="round" stroke-linejoin="round" stroke-width="0.5"><title>2023-11-03 1.0km</title><desc>10152446508</desc></polyline><polyline fill="none" points="120.92453700490296,84.85714285704307 122.18975364416838,87.60291606606916 123.27422505058348,92.50607548072003 125.0816773949191,96.03634467977099 127.79285590909421,103.09686906146817 128.33509161137044,104.27362130885012 129.2388177840039,107.41162476292811 129.78105348721147,108.0 130.50403442420065,108.0 130.50403442420065,107.60774985630997 129.2388177840039,107.01937453309074 128.69658208079636,105.64649827429093 127.43136544059962,104.46974663273431 126.52763926889747,101.9201162958052 125.26242262776941,99.95886053238064 123.81646075379103,97.01697418326512 122.18975364416838,90.93706544861197 121.1052822386846,88.3874221779406" stroke="#4dd2ff" stroke-linecap="round" stroke-linejoin="round" stroke-width="0.5"><title>2023-11-02 1.1km</title><desc>10144903556</desc></polyline><polyline fill="none" points="147.48754092026502,86.53416938101873 147.79664135258645,88.37889713374898 149.03304308000952,91.22983708966058 151.19674610439688,98.9441273411503 154.90595128946006,106.65839150408283 155.98780280072242,108.0 155.3696019379422,105.98758696066216 153.05134869739413,102.4658598692622 151.81494696903974,97.93791704869363 150.26944480836391,95.7577932261629 148.41484221629798,91.73294377094135 146.86934005562216,84.85714285715949" stroke="#4dd2ff" stroke-linecap="round" stroke-linejoin="round" stroke-width="0.5"><title>2023-11-01 1.0km</title><desc>10138966680</desc></polyline><polyline fill="none" points="173.77529014460742,85.20515742269345 174.57709181122482,87.81526503060013 175.85997447744012,94.77553791319951 177.9446588093415,99.29970431071706 179.2275414755568,103.475850232644 181.31222580838948,108.0 181.4725861409679,107.82599439937621 180.02934314217418,105.73792619723827 177.9446588093415,100.86575989471748 176.18069514352828,97.73364769015461 173.1338488124311,88.5112932396587 172.8131281444803,84.85714285704307" stroke="#4dd2ff" stroke-linecap="round" stroke-linejoin="round" stroke-width="0.5"><title>2023-10-31 1.0km</title><desc>10133123337</desc></polyline><polyline fill="none" points="19.223496758379042,114.38572628377005 20.01341982372105,118.50002394616604 20.01341982372105,120.04288369766437 21.751250565983355,122.95717155421153 26.490788956172764,133.07143644848838 27.280712021514773,134.61428655823693 27.596681247465312,134.78571428568102 23.96303514856845,127.58573889918625 22.383189018815756,123.1286001384724 20.64535827562213,119.52859722729772 18.117604467086494,111.6428571427241" stroke="#4dd2ff" stroke-linecap="round" stroke-linejoin="round" stroke-width="0.5"><title>2023-10-30 1.0km</title><desc>10127985445</desc></polyline><polyline fill="none" points="44.92323139263317,114.99249720969237 45.624807773157954,119.71243538125418 46.045753601472825,121.23499378701672 48.85205912403762,127.78198217705358 50.25521188462153,131.5883612614125 52.359941027127206,134.48120468656998 52.921202132012695,134.78571428568102 53.06151740765199,134.32894987007603 51.79867992270738,132.349636238534 49.97458133287728,128.39100330066867 46.74732998199761,122.45303970598616 45.484492496587336,118.03761984209996 44.50228556338698,116.05829064070713 44.36197028774768,113.01316509768367 44.08133973553777,111.64285714284051" stroke="#4dd2ff" stroke-linecap="round" stroke-linejoin="round" stroke-width="0.5"><title>2023-10-28 1.0km</title><desc>10115543824</desc></polyline><polyline fill="none" points="71.28400619700551,116.44287602230906 72.54788328707218,120.55717005464248 73.96974501293153,123.81431434862316 75.2336221029982,128.44287999207154 77.1294377380982,132.90000859554857 77.91936091892421,134.61428655893542 78.70928409975022,134.78571428568102 78.86726873647422,134.61428655893542 78.55129946395755,133.5857199318707 77.60339164640754,131.01430138014257 74.44369892217219,124.84288528584875 71.91594474203885,117.985737135401 70.3360983794555,114.55715549830347 69.70415983442217,111.6428571427241" stroke="#4dd2ff" stroke-linecap="round" stroke-linejoin="round" stroke-width="0.5"><title>2023-10-27 1.0km</title><desc>10110442644</desc></polyline><polyline fill="none" points="96.8635388109833,115.21640166104771 99.84317694045603,125.25633054447826 100.94093835633248,128.31935102527495 102.03869977314025,130.1911948795896 103.29328424856067,133.76471076102462 103.76375342719257,134.44537982763723 104.70469178352505,134.78571428568102 104.8615148421377,134.27521257975604 104.70469178352505,133.59454346331768 103.1364611890167,131.55253491387703 100.78411529771984,127.46851240936667 97.96130022779107,119.13027742202394 96.07942351419479,116.06724478071555 95.1384851578623,111.6428571427241" stroke="#4dd2ff" stroke-linecap="round" stroke-linejoin="round" stroke-width="0.5"><title>2023-10-26 1.0km</title><desc>10104873905</desc></polyline><polyline fill="none" points="124.55515934992582,122.71120941836853 128.10981353465468,131.59939282014966 129.8098655352369,134.61801326693967 130.42806626297534,134.78571428568102 130.27351608127356,133.10870354261715 126.10066116880625,125.89754329971038 123.78240843955427,120.02797743491828 121.77325607463717,115.83542114193551 121.00050516519696,111.64285714284051" stroke="#4dd2ff" stroke-linecap="round" stroke-linejoin="round" stroke-width="0.5"><title>2023-10-25 1.0km</title><desc>10098978222</desc></polyline><polyline fill="none" points="147.14741747640073,111.64285714284051 146.99173915106803,112.82534454553388 147.92580910492688,116.71065601205919 149.17123570945114,119.24455125513487 149.94962733611465,122.28522185829934 151.3507322659716,126.33944306976628 154.30862045101821,132.0829108748585 155.24269040394574,134.44786403304897 155.55404705554247,134.78571428568102 155.86540370620787,134.6167891654186 155.70972538087517,132.42076147464104 153.9972638003528,129.21117876667995 152.75183719582856,127.35299725504592 151.1950539406389,123.80555565096438 150.8836972899735,121.94736976805143 149.01555738318712,119.07562499272171 147.92580910492688,116.54172956303228 147.61445245333016,113.50105135946069 147.14741747640073,111.64285714284051" stroke="#4dd2ff" stroke-linecap="round" stroke-linejoin="round" stroke-width="0.5"><title>2023-10-24 1.0km</title><desc>10092835699</desc></polyline><polyline fill="none" points="174.76456359773874,115.63876303785946 177.0661379955709,123.79704901436344 178.1402060482651,125.79499212047085 179.36771239340305,130.78984217438847 181.20897191297263,134.11973609006964 181.97616337891668,134.78571428568102 181.20897191297263,133.95324151031673 180.13490386027843,131.28932657383848 177.37301458232105,127.95942849630956 176.75926140882075,126.79396301263478 176.14550823625177,122.96457219996955 174.30424871761352,119.30167058110237 173.07674237247556,115.47226709977258 172.3095509065315,111.6428571427241" stroke="#4dd2ff" stroke-linecap="round" stroke-linejoin="round" stroke-width="0.5"><title>2023-10-23 1.0km</title><desc>10087395010</desc></polyline><polyline fill="none" points="15.364315011771396,138.53957003878895 15.773479672148824,138.42857142857974 18.68877787818201,138.6505686326418 19.96741744200699,138.9835643163533 20.274290937464684,139.1500621031155 20.93918351107277,139.64955524296965 21.399493753910065,140.20454723294824 22.42240540497005,142.091516946326 22.933861230965704,144.20047751418315 23.598753804108128,145.3104543935624 23.90562729933299,146.19843472185312 24.621665455168113,147.8078964044107 25.133121280930936,149.47285315435147 25.900305019458756,150.8048159101163 26.258324097376317,151.19330460450146 26.718634340446442,151.97028139344184 26.97436225321144,153.63522896246286 27.12779900082387,154.07921436073957 27.5369636612013,154.68969385686796 27.639254826586694,155.63316119799856 27.792691574199125,156.02164740738226 30.043097206857055,161.3494381083292 30.34997070231475,161.57142857142026 30.34997070231475,161.29394048225367 29.889660459244624,160.84995932743186 29.37820463371463,159.62900980509585 28.866748807951808,158.57455181039404 27.48581807874143,154.30120696191443" stroke="#4dd2ff" stroke-linecap="round" stroke-linejoin="round" stroke-width="0.5"><title>2023-10-22 1.5km</title><desc>10080655811</desc></polyline><polyline fill="none" points="44.89050206029788,138.42857142857974 45.70247114356607,139.01596188155236 44.24092679331079,138.7810057521565 46.51444022683427,141.7179524025414 46.73096531582996,142.42281799204648 46.56857149931602,143.01020550803514 45.81073368806392,143.42137651250232 45.594208599068224,143.8325473050936 45.64833987131715,144.5374110286357 46.08139004907571,146.24082912661834 46.56857149931602,147.47433651646134 47.10988422157243,149.35396316234255 48.084247121587396,151.05737099045655 48.24664093833417,151.70349025103496 48.84208493260667,152.7607751864707 49.221003838581964,153.2306791532901 49.27513511036523,153.52436899207532 49.65405401610769,153.87679665623 49.92471037711948,154.4641757509089 50.30362928309478,155.5801948410226 50.682548188604414,156.34378595184535 50.62841691635549,157.87096598400967 51.33212345512584,159.2219305022736 51.548648544354364,159.868043160066 51.92756744963117,160.5728927362361 52.577142716385424,161.39521645579953 52.90193034987897,161.57142857142026 51.65691108861938,159.80930566729512 51.38625472760759,158.86950519605307 50.844942005118355,157.69475305231754 50.62841691635549,156.93116323271533 49.92471037711948,155.93262159830192 49.32926638284698,154.2292241648538" stroke="#4dd2ff" stroke-linecap="round" stroke-linejoin="round" stroke-width="0.5"><title>2023-10-20 1.4km</title><desc>10069668027</desc></polyline><polyline fill="none" points="69.62888403376564,138.42857142857974 69.73910486814566,139.32559366268106 70.62087154295295,141.47844298765995 70.84131321194582,142.794070325559 72.65995697886683,147.21934666176094 72.82528823032044,147.8173551306827 72.93550906493329,148.71436700987397 73.15595073346049,149.31237437977688 74.47860074602067,151.16619443206582 75.19503616937436,152.6014070546953 75.6359195066616,154.03661714476766 76.0216924273409,154.8140215529129 76.2421340958681,156.01002688379958 76.51768618193455,156.60802888975013 77.2341216050554,158.46183231432224 77.34434243966825,159.17943250574172 78.39144036616199,161.33222928148462 78.66699245199561,161.57142857142026 78.83232370368205,161.57142857142026 78.94254453782924,161.5116287554265 78.88743412098847,161.45182893518358 77.78522577718832,160.07643185462803 77.28923202259466,158.4020322698052 76.2421340958681,156.4884285237058 76.07680284441449,155.7110257158638 75.96658200980164,154.39541927166283" stroke="#4dd2ff" stroke-linecap="round" stroke-linejoin="round" stroke-width="0.5"><title>2023-10-19 1.3km</title><desc>10064004415</desc></polyline><polyline fill="none" points="94.78146302327514,138.42857142863795 97.05039214342833,141.38299208146054 96.89913020189852,143.51673789927736 97.20165408402681,145.65048167784698 98.26048767473549,149.42556182818953 99.77310708723962,151.88756718323566 101.28572650067508,156.1550367004238 104.31096532847732,161.0790298532229 104.76475115306675,161.57142857147846 105.21853697672486,161.40729567722883 103.25213173869997,159.43770000850782 99.62184514570981,152.3799679283984 98.71427349746227,149.2614280412672 96.14282049518079,143.84500630549155" stroke="#4dd2ff" stroke-linecap="round" stroke-linejoin="round" stroke-width="0.5"><title>2023-10-18 1.0km</title><desc>10058081424</desc></polyline><polyline fill="none" points="121.67490447312593,139.83117522415705 122.9675064701587,147.37015649373643 126.36058671213686,156.31170803238638 128.62264020647854,161.04545703949407 129.59209170471877,161.57142857136205 130.07681745383888,161.57142857136205 130.3999679526314,160.87013317015953 129.26894120592624,159.4675417477265 127.81476395856589,157.18832892808132 125.87586096394807,152.9805456912145 125.06798471603543,150.52600204129703 121.67490447312593,143.68833140959032 121.3517539743334,142.63638034136966 121.02860347554088,138.42857142840512" stroke="#4dd2ff" stroke-linecap="round" stroke-linejoin="round" stroke-width="0.5"><title>2023-10-17 1.0km</title><desc>10051702317</desc></polyline><polyline fill="none" points="146.26064769458026,138.9626398559194 147.90125840436667,141.81100281258114 150.36217446718365,148.21980721363798 151.67466303519905,150.71211545565166 153.15121267270297,155.3406810988672 154.95588445384055,159.96923789544962 155.6121287373826,161.21538629056886 156.43243409134448,161.57142857136205 156.59649516269565,161.39340743771754 156.43243409134448,160.85934395738877 154.62776231206954,158.18902479019016 152.16684624832124,152.13629044196568 150.36217446718365,148.39782931585796 148.88562482967973,141.45495762582868 148.06531947478652,138.42857142840512" stroke="#4dd2ff" stroke-linecap="round" stroke-linejoin="round" stroke-width="0.5"><title>2023-10-16 1.0km</title><desc>10046279660</desc></polyline><polyline fill="none" points="172.4033150933683,138.42857142840512 173.08039252925664,139.89796555694193 173.757469965145,143.20409918646328 175.28089419472963,148.34696502564475 177.31212650146335,151.46941412007436 179.6818975256756,160.2857199094724 180.5282443203032,161.20408330694772 181.71312983240932,161.57142857136205 181.8823991920799,161.20408330694772 181.71312983240932,160.1020471896045 179.51262816693634,156.97960888431408 178.32774265483022,153.30614705826156 176.97358778398484,151.10206737020053 173.757469965145,143.57144709769636 172.57258445303887,138.42857142840512" stroke="#4dd2ff" stroke-linecap="round" stroke-linejoin="round" stroke-width="0.5"><title>2023-10-15 1.0km</title><desc>10039610121</desc></polyline><polyline fill="none" points="18.041155518963933,166.89401631685905 18.55715416185558,172.30647403304465 19.93315054476261,176.22583276196383 21.65314602293074,178.65209941845387 22.685143309645355,182.01154173049144 25.609135621227324,187.23733204579912 26.297133811749518,187.98387264157645 27.157131551764905,188.35714285704307 27.67313019465655,187.98387264157645 27.67313019465655,187.42396721523255 24.233139239251614,184.62443823274225 21.99714511819184,180.51845680736005 21.137147379107773,176.9723765954841 19.073152805678546,172.30647403304465 18.041155518963933,168.38710925355554 18.213155067525804,165.96083278604783 18.041155518963933,165.21428571408615" stroke="#4dd2ff" stroke-linecap="round" stroke-linejoin="round" stroke-width="0.5"><title>2023-10-14 1.0km</title><desc>10033377496</desc></polyline><polyline fill="none" points="43.324079217389226,165.58163432776928 46.37092722952366,169.255117489025 46.709465897642076,172.01022631512024 49.58704457618296,180.82655414170586 52.29535392019898,187.2551069019828 53.14170059002936,188.35714285704307 53.81877792626619,188.35714285704307 53.81877792626619,187.80612494051456 53.64950859174132,187.2551069019828 52.12608458567411,186.1530704605393 50.43339124601334,183.03063123719767 48.57142857182771,177.15308799524792 45.18604189157486,169.62246550782584 44.678233889862895,167.05102824023925 43.83188721910119,165.21428571431898" stroke="#4dd2ff" stroke-linecap="round" stroke-linejoin="round" stroke-width="0.5"><title>2023-10-13 1.0km</title><desc>10028006924</desc></polyline><polyline fill="none" points="69.32005069032311,165.21428571408615 70.94813711568713,167.33425136725418 71.92498897016048,169.10088798217475 72.08779761288315,171.39751364081167 71.92498897016048,173.87080035638064 73.71588403731585,177.58072565728799 75.83239638991654,183.23393414868042 77.94890874158591,187.12050727196038 78.43733466882259,187.827156255953 79.2513778815046,188.35714285704307 79.2513778815046,187.47383179003373 77.46048281434923,185.17722149612382 75.83239638991654,182.35062119876966 73.71588403731585,176.52074758452363 72.41341489739716,174.22412682278082 71.76218032836914,172.2808306175284" stroke="#4dd2ff" stroke-linecap="round" stroke-linejoin="round" stroke-width="0.5"><title>2023-10-12 1.0km</title><desc>10021974100</desc></polyline><polyline fill="none" points="97.29421666543931,168.49574947892688 97.93087156768888,171.94991691154428 97.77170784212649,173.33158246264793 99.20418137125671,177.99469769722782 100.31832745019346,180.06719038565643 101.43247352913022,183.86675556609407 103.02411078382283,187.66631460143253 103.34243823494762,188.01172875449993 104.13825686369091,188.35714285704307 103.9790931371972,187.66631460143253 102.22829215694219,183.1759259905666 100.31832745019346,179.89448273112066 97.77170784212649,174.02241493295878 97.13505293987691,171.7772086604964 96.81672548875213,168.49574947892688 95.86174313630909,165.21428571431898" stroke="#4dd2ff" stroke-linecap="round" stroke-linejoin="round" stroke-width="0.5"><title>2023-10-10 1.0km</title><desc>10009069592</desc></polyline><polyline fill="none" points="121.79370922781527,168.1071555116214 122.89147064369172,171.17019017937128 123.98923205956817,175.2542300982168 126.34157795179635,180.35926986287814 128.22345466446131,186.82563740201294 129.32121608033776,188.3571428571595 129.63486220035702,187.8466411512345 129.79168525896966,185.97480059973896 128.69392384309322,182.74161789973732 126.34157795179635,178.6575911922846 123.67558594141155,171.17019017937128 122.89147064369172,167.76681807579007 121.6368861682713,165.21428571420256" stroke="#4dd2ff" stroke-linecap="round" stroke-linejoin="round" stroke-width="0.5"><title>2023-10-09 1.0km</title><desc>10003389142</desc></polyline><polyline fill="none" points="146.71658468339592,165.21428571408615 147.87391476146877,166.64950804505497 149.0312448395416,169.34054763941094 149.69257631246,174.7226179256104 152.17256933636963,180.1046763411723 154.32189662288874,186.20432819565758 155.31389383226633,187.998340545455 156.14055817294866,188.35714285704307 156.14055817294866,186.92193329404108 152.99923367705196,181.8986931750551 148.86591197084635,171.85218191659078 147.21258328761905,165.39368855208158" stroke="#4dd2ff" stroke-linecap="round" stroke-linejoin="round" stroke-width="0.5"><title>2023-10-08 1.0km</title><desc>9996447828</desc></polyline><polyline fill="none" points="174.1721809860319,169.84287619916722 174.9338928218931,172.6530872018775 177.21902832668275,178.76941665518098 177.98074016161263,181.41431072517298 180.41821803338826,187.53061634639744 181.17992986831814,188.3571428571595 181.33227223530412,187.69592167297378 181.33227223530412,187.03470029460732 178.43776726257056,181.9102280169027 177.06668595969677,178.93472262541763 174.62920808698982,171.6612484252546 173.86749625205994,167.85919572925195 172.95344205014408,165.21428571431898" stroke="#4dd2ff" stroke-linecap="round" stroke-linejoin="round" stroke-width="0.5"><title>2023-10-07 1.0km</title><desc>9989974159</desc></polyline><polyline fill="none" points="20.966369146481156,198.89364210842177 22.17646432109177,202.83285661309492 23.084035702981055,204.8024612592999 24.8991784658283,212.51672939234413 25.35296415630728,213.99392663186882 26.26053553726524,215.1428571428405 27.016845021396875,215.1428571428405 27.31936881504953,214.4863254945958 27.168106919154525,213.99392663186882 25.35296415630728,211.3677975294413 23.537821393460035,207.42859808413778 22.932773806154728,204.8024612592999 19.75627397187054,197.08816647110507 19.30248828139156,194.29788306774572 18.394916899502277,192.0" stroke="#4dd2ff" stroke-linecap="round" stroke-linejoin="round" stroke-width="0.5"><title>2023-10-06 1.0km</title><desc>9984428862</desc></polyline><polyline fill="none" points="43.58907918352634,192.00000000023283 46.21136833541095,199.01875729346648 47.95956110302359,204.89932302874513 50.931488807313144,212.29743507923558 52.155223744921386,214.7634677165188 52.67968157492578,215.14285714295693 53.37895868252963,215.14285714295693 53.55377795826644,214.7634677165188 53.02932012826204,213.8149939039722 50.931488807313144,210.7798753627576 49.707753870636225,208.31383891869336 47.609922548756,202.81267220550217 46.73582616541535,199.9672365442384 44.288356291130185,195.41453295992687 44.288356291130185,193.70726704481058" stroke="#4dd2ff" stroke-linecap="round" stroke-linejoin="round" stroke-width="0.5"><title>2023-10-04 1.0km</title><desc>9971682885</desc></polyline><polyline fill="none" points="70.7829522183165,194.7028274544282 71.56134378910065,197.40565172978677 72.33973535895348,199.26384157466237 72.9624486155808,202.13558656093664 75.92033658269793,208.04799140791874 76.07601489685476,210.07509813900106 77.01008478179574,214.1293062363984 77.32144140917808,214.6360817454988 78.25551129411906,215.1428571428405 78.25551129411906,213.45360538363457 76.23169321194291,209.73724714142736 74.83058838453144,206.52766018616967 74.05219681374729,205.00732795824297 73.27380524296314,202.81129074213095 71.71702210325748,199.60169411252718 71.09430884663016,197.06779886910226 70.7829522183165,194.53390083182603 70.31591727677733,192.0" stroke="#4dd2ff" stroke-linecap="round" stroke-linejoin="round" stroke-width="0.5"><title>2023-10-03 1.0km</title><desc>9965060084</desc></polyline><polyline fill="none" points="95.76966386009008,192.9563204885926 97.8848319305107,199.8418176297564 98.23735994193703,202.9020327317994 99.4712079828605,204.432138932636 100.35252801235765,206.72729654680006 101.93890406470746,212.65644434583373 103.17275210563093,214.56906978506595 104.05407213419676,215.14285714295693 104.23033614084125,214.95159470429644 103.70154412370175,213.42149469000287 101.7626400589943,209.7875035495963 98.58988795336336,202.13697929354385 96.65098388958722,196.3990713369567 96.2984558781609,192.00000000023283" stroke="#4dd2ff" stroke-linecap="round" stroke-linejoin="round" stroke-width="0.5"><title>2023-10-02 1.0km</title><desc>9958643020</desc></polyline><polyline fill="none" points="122.04587976448238,196.0731582788285 122.38712682947516,197.73944840370677 126.14084454625845,206.62631044583395 128.0177034046501,212.3657255147118 129.04144459962845,214.4022890077904 130.0651857946068,215.14285714295693 130.23580932803452,214.95771512947977 130.0651857946068,214.21714694029652 126.65271514374763,209.03316351911053 123.41086802445352,201.0720253442414 121.87525623198599,196.25830168067478 121.19276210106909,192.0" stroke="#4dd2ff" stroke-linecap="round" stroke-linejoin="round" stroke-width="0.5"><title>2023-10-01 1.0km</title><desc>9952075403</desc></polyline><polyline fill="none" points="148.1057412950322,195.35405181569513 149.49669344443828,198.20499198127072 150.1148943984881,201.05592858383898 150.5785451149568,203.73915977822617 152.89679869636893,210.27952259161975 154.90595179982483,214.47205299360212 155.8332532318309,215.1428571428405 156.14235371071845,214.63975404936355 153.0513489358127,209.94411982689053 151.66039678640664,206.75779109902214 151.19674606993794,205.08077419165056 149.0330427279696,200.38512029196136 147.79664081707597,195.18634934176225 146.71478914655745,192.0" stroke="#4dd2ff" stroke-linecap="round" stroke-linejoin="round" stroke-width="0.5"><title>2023-09-30 1.0km</title><desc>9945549317</desc></polyline><polyline fill="none" points="173.5597650660202,192.0 175.09537595603615,194.59201057627797 175.60724625270814,196.62858844315633 176.97223371081054,199.96116685448214 177.6547274403274,204.96002620225772 178.1665977369994,206.44116780697368 180.21407892275602,211.44001429202035 180.725949219428,214.58743106247857 181.06719608418643,214.9577151297126 181.57906638085842,215.14285714295693 181.74968981277198,214.77257310249843 178.67846803367138,209.21830596844666 176.6309868460521,204.40459787589498 175.94849311746657,201.62745440611616 173.5597650660202,196.0731582797598 172.53602447267622,192.74057472264394" stroke="#4dd2ff" stroke-linecap="round" stroke-linejoin="round" stroke-width="0.5"><title>2023-09-28 1.0km</title><desc>9933629332</desc></polyline><polyline fill="none" points="18.333032540977,221.41559572611004 19.62563548889011,225.97405001986772 22.049266014248133,229.30522264679894 23.66501969844103,235.2662567871157 25.92707485612482,239.2987126095686 26.573376329615712,241.57792375353165 27.219677802175283,241.92857142863795 27.542828540317714,241.40259989676997 27.219677802175283,240.70130434050225 25.92707485612482,238.94806454749778 22.210841382853687,231.40911875059828 20.271936961449683,226.14937501051463 18.17145717330277,218.78571428591385" stroke="#4dd2ff" stroke-linecap="round" stroke-linejoin="round" stroke-width="0.5"><title>2023-09-27 1.0km</title><desc>9927137811</desc></polyline><polyline fill="none" points="50.49398461449891,218.78571428568102 50.03257116419263,221.01101977209328 49.57115771388635,222.29056746285642 49.212280585896224,223.84827477432555 47.110285978764296,228.2432173998095 46.033654595026746,230.07907194987638 45.828581950161606,230.85791798884748 45.93111827224493,231.46986788575305 46.18745907815173,232.3599759429926 46.95648149517365,234.2514520881814 47.21282230108045,234.7521361586405 47.520431268028915,235.64224035473308 48.5457944907248,236.92176330223447 49.007207941263914,237.92312757781474 49.51988955284469,238.7019655428012 49.93003484187648,239.81458981632022 50.545252775773406,240.6490569477901 51.31427519279532,241.92857142857974" stroke="#4dd2ff" stroke-linecap="round" stroke-linejoin="round" stroke-width="0.5"><title>2023-09-26 1.0km</title><desc>9920397094</desc></polyline><polyline fill="none" points="74.17763503850438,218.78571428568102 73.16889539617114,222.14771466772072 72.16015575407073,223.94598957832204 71.22346894303337,225.11877592519158 70.71909912209958,226.05700407130644 70.50294062728062,226.99523138953373 70.5749934585765,228.16801437322283 70.93525761691853,229.1062398289796 71.79989159596153,230.4353911409271 72.16015575407073,231.76454079145333 72.88068406959064,233.48461434361525 74.24968787003309,235.2046851136838 76.5553784808144,239.89577307284344 78.06848794431426,241.92857142857974" stroke="#4dd2ff" stroke-linecap="round" stroke-linejoin="round" stroke-width="0.5"><title>2023-09-25 1.0km</title><desc>9914573673</desc></polyline><polyline fill="none" points="101.70620572008193,218.78571428573923 101.13747048005462,219.64972575270804 101.02372343209572,220.08173115260433 101.13747048005462,220.6371663401369 101.19434400415048,221.19260115997167 100.05687352386303,223.29090716224164 99.77250590361655,224.71034648327623 99.37439123587683,225.75949574296828 96.98570322734304,229.9560796673759 96.92882970348,230.449794043554 97.15632379916497,231.4372219251236 97.78193256352097,232.4246486449847 98.12317370763049,233.28864607197465 98.63503542356193,234.15264260955155 98.91940304357558,235.0166382577736 99.65875885589048,236.18920235801488 100.22749409568496,237.36176482023438 100.8531028602738,238.04061602335423 101.02372343209572,238.65775300428504 101.42183810006827,239.15146226232173 102.27494096034206,240.63258829439292 102.90054972446524,241.31143685226562 103.07117029652,241.92857142857974" stroke="#4dd2ff" stroke-linecap="round" stroke-linejoin="round" stroke-width="0.5"><title>2023-09-24 1.0km</title><desc>9907510217</desc></polyline><polyline fill="none" points="126.57705326448195,218.78571428568102 126.09390343632549,219.53468229668215 125.74879641621374,220.28364975680597 125.54173220414668,221.25730663182912 125.4727107998915,222.53054883313598 124.29934693151154,224.10337523772614 123.60913289152086,225.900888154516 122.98794025508687,226.79964342340827 122.57381183095276,227.99798254854977 122.50479042669758,229.2712163241813 123.95423991139978,232.94111653784057 124.50641114357859,234.0645527355955 126.30096764839254,236.91058555798372 127.0602030926384,238.78297123644734 128.02650274895132,239.98129626433365 128.57867398136295,240.95493431173963 128.9237810014747,241.92857142857974" stroke="#4dd2ff" stroke-linecap="round" stroke-linejoin="round" stroke-width="0.5"><title>2023-09-23 1.0km</title><desc>9901004991</desc></polyline><polyline fill="none" points="152.3172224953305,218.78571428573923 151.85644046077505,219.6428669745801 151.39565842598677,221.14288236008724 150.3424423467368,223.35718655312667 149.2892262674868,224.85719620325835 148.36766219814308,227.35720713983756 148.30183619307354,228.7143532395712 148.43348820321262,229.5000685363193 149.75000830204226,232.6429233677918 149.94748631701805,233.57149216765538 150.21079033683054,234.0714903845801 151.13235440617427,235.21434248570586 151.85644046077505,236.64290572114987 152.44887450523674,238.14289485791232 153.43626457965001,239.5714537873282 154.5553066637367,241.92857142857974" stroke="#4dd2ff" stroke-linecap="round" stroke-linejoin="round" stroke-width="0.5"><title>2023-09-22 1.0km</title><desc>9895405405</desc></polyline><polyline fill="none" points="178.36966615729034,218.78571428573923 178.18092630896717,219.46840269467793 177.80344661232084,219.87801549909636 176.98557393578812,221.37992756912718 176.67100752191618,222.47222573042382 175.7273082798347,224.86162347818026 174.72069575544447,226.9096737963264 174.09156292723492,228.41157449188177 173.90282307891175,229.16252392844763 173.90282307891175,229.64040052646305 174.09156292723492,230.3230809540837 174.46904262411408,231.0057608798379 175.2869153006468,233.1220654596691 176.10478797671385,234.62395610607928 176.5451809563674,235.7162386867567 177.3630536326673,237.08159010566305 177.8663598948624,237.695997589326 178.24383959174156,238.78827655612258 179.25045211659744,240.5632271367358 180.38289120676927,241.92857142857974" stroke="#4dd2ff" stroke-linecap="round" stroke-linejoin="round" stroke-width="0.5"><title>2023-09-21 1.0km</title><desc>9889267953</desc></polyline><polyline fill="none" points="25.2133734729141,245.57142857142026 24.387478205375373,248.04917335888604 23.90165746002458,249.99973238020902 23.124344266951084,251.63398044742644 22.201284850481898,254.37529142049607 20.598076390102506,257.3801779458299 20.160837719216943,259.0144091899856 20.209419793682173,259.3834286328056 20.500912240939215,260.17418394214474 21.13247921038419,261.5448244125582 21.521135806804523,262.7045950717293 22.49277729797177,264.0752307047951 23.075762192718685,265.1822806496639 23.415836714208126,265.97302956378553 23.80449331062846,266.6583445838769 24.436060280073434,267.13279306027107 25.2133734729141,268.29255468101474 25.26195554761216,268.50342022866243 25.553447994869202,268.71428571426077" stroke="#4dd2ff" stroke-linecap="round" stroke-linejoin="round" stroke-width="0.5"><title>2023-09-20 1.0km</title><desc>9882714971</desc></polyline><polyline fill="none" points="50.490361034404486,245.57142857142026 49.996921258280054,246.82080280093942 49.06486834771931,249.5575205620844 49.01004170579836,250.4499265262275 48.681081854738295,250.9258759713848 48.29729536245577,251.8182804263197 48.077988795004785,252.6511903629871 47.639375660801306,253.78156676259823 46.3783628991805,255.80434164166218 46.04940304835327,256.9942068553646 45.93974976474419,258.0650840517483 46.04940304835327,259.1359598307172 46.3783628991805,260.3258201451972 46.762149391463026,261.15872132440563 47.96833551139571,263.2409705213504 48.57142857136205,264.07386869972106 49.119694989174604,265.56118474318646 49.66796140745282,266.5130655762623 50.21622782526538,267.2864679286722 50.81932088523172,267.8813923121779 51.203107377979904,268.71428571426077" stroke="#4dd2ff" stroke-linecap="round" stroke-linejoin="round" stroke-width="0.5"><title>2023-09-19 1.0km</title><desc>9876194288</desc></polyline><polyline fill="none" points="74.11536565679125,245.57142857142026 73.70652894722298,246.23688557493733 73.0251344316639,247.56779826106504 72.82071607699618,248.45507240627194 71.59420594852418,250.5993150253198 70.64025362650864,252.59567473310744 70.43583527160808,253.3350662117009 70.50397472339682,254.14839620998828 70.9128114329651,255.1835425296449 71.52606649696827,256.292626689421 72.07118210964836,257.8453424582258 72.82071607699618,259.4719945018296 73.63838949566707,260.95076680369675 74.38792346324772,261.91196763399057 75.27373633347452,263.3907363479957 75.81885194592178,265.0913176808972 76.77280426817015,266.57008172001224 77.24978042929433,267.9009674960398 78.13559329975396,268.71428571426077" stroke="#4dd2ff" stroke-linecap="round" stroke-linejoin="round" stroke-width="0.5"><title>2023-09-18 1.0km</title><desc>9870505463</desc></polyline><polyline fill="none" points="100.23254423006438,245.57142857142026 99.90033818688244,246.220301167632 99.43524972675368,248.3832067202893 98.83727884967811,249.39256101218052 98.571514015086,250.18562436959473 97.10980742634274,252.56481059349608 96.57827775762416,253.86254610068863 96.24607171467505,255.01608733163448 96.51183654880151,255.8091461408767 97.9735431377776,258.9813749634195 98.70439643249847,260.13491017278284 99.23592610098422,261.3605398457148 100.0996618126519,262.5140722562792 100.56475027301349,263.30712500127265 101.16272115032189,265.18161075829994 103.75392828532495,268.71428571426077" stroke="#4dd2ff" stroke-linecap="round" stroke-linejoin="round" stroke-width="0.5"><title>2023-09-16 1.0km</title><desc>9856514700</desc></polyline><polyline fill="none" points="125.39437093050219,245.57142857142026 124.68344918824732,247.7314501705696 123.75925092352554,249.1971765802009 121.83976221969351,252.9000552307116 121.76867004530504,253.7486297477153 121.83976221969351,254.75148965540575 122.266315265093,255.75434860464884 122.97723700734787,256.83434947789647 123.61706657498144,258.3000631706673 124.75454136240296,260.22863069950836 126.1763848469127,262.92861928464845 126.31856919522397,263.9314704181161 126.8162144147791,264.31718213728163 127.38495180848986,265.08860515023116 128.30915007321164,266.6314494747785 129.30444051208906,267.4800128862262 129.5177170347888,268.02000742714154 129.6599013833329,268.71428571426077" stroke="#4dd2ff" stroke-linecap="round" stroke-linejoin="round" stroke-width="0.5"><title>2023-09-15 1.0km</title><desc>9850671982</desc></polyline><polyline fill="none" points="152.01691972091794,245.57142857142026 150.8402231358923,248.6837725614896 149.51643947698176,250.59905673458707 148.92809118470177,251.63650091725867 148.0455687455833,253.87099271186162 147.82493813615292,254.66902438079705 147.82493813615292,255.30744929309003 148.0455687455833,256.10547990584746 148.92809118470177,258.4995682234876 149.7370700868778,260.0956241681124 151.72274557454512,263.52713650179794 152.53172447672114,265.0433826817898 152.67881154967472,265.92120844946476 153.26715984288603,266.479824477341 154.22322581801564,267.9960665325634 155.03220472019166,268.71428571426077" stroke="#4dd2ff" stroke-linecap="round" stroke-linejoin="round" stroke-width="0.5"><title>2023-09-14 1.0km</title><desc>9844236351</desc></polyline><polyline fill="none" points="173.46474582399242,245.57142857136205 173.88812554394826,245.9159922673134 174.04689293913543,246.26055581122637 174.1527378691826,247.00710963463644 174.47027265909128,247.6388084665523 174.68196251941845,249.41904787998646 174.68196251941845,250.2804525909596 174.57611758937128,250.73986804834567 174.68196251941845,251.3141369901714 174.94657484441996,252.0032591629424 174.8407299143728,252.57752717577387 174.8936523795128,252.86466102383565 175.4228770295158,253.84091531776357 175.89917921484448,255.27658118045656 176.32255893503316,256.08055291092023 176.85178358503617,256.82709734817035 177.43393070041202,257.343935386627 177.59269809536636,257.688493889058 177.75146549055353,258.43503678945126 178.1748452107422,259.1815789762768 178.65114739583805,260.5598088313127 179.28621697588824,261.7657579596271 179.60375176602975,262.7994271591306 179.76251916121691,263.66081711358856 180.08005395135842,264.34992839349434 180.66220106650144,266.2449812780251 181.45603804197162,267.73805000964785 181.50896050711162,267.9677526380983 181.45603804197162,268.14002956519835 180.82096846145578,268.71428571426077 181.13850325159729,268.4845833052532 181.29727064678445,268.14002956519835 181.4031155765988,267.8529013323714 181.35019311192445,267.45092162903165 181.03265832178295,267.0489417188219 180.08005395135842,264.98161319905194 179.60375176602975,263.4311132186558 178.59822493093088,261.1914967020857 178.1219227456022,259.00930007349234 177.8573104206007,258.37761043792125 176.85178358503617,257.0568031852599 175.84625674970448,255.16172800853383 175.3699545643758,253.61120853491593 175.21118716988713,252.57752717577387 174.7878074492328,251.48641759040765 173.94104800908826,249.64875589578878 173.72935814899392,248.78735048812814 172.98844363866374,247.40909985953476 172.82967624347657,246.66254642023705 172.7767537785694,245.74371043837164" stroke="#4dd2ff" stroke-linecap="round" stroke-linejoin="round" stroke-width="0.5"><title>2023-09-13 1.0km</title><desc>9837636972</desc></polyline></svg>