<?xml version="1.0" encoding="utf-8" ?>
<svg baseProfile="full" height="300mm" version="1.1" viewBox="0,0,200,300" width="200mm" xmlns="http://www.w3.org/2000/svg" xmlns:ev="http://www.w3.org/2001/xml-events" xmlns:xlink="http://www.w3.org/1999/xlink"><defs /><rect fill="#222222" height="300" width="200" x="0" y="0" /><text fill="#FFFFFF" style="font-size:12px; font-family:Arial; font-weight:bold;" x="10" y="20">Over 1km Runs</text><text fill="#FFFFFF" style="font-size:4px; font-family:Arial" x="10" y="280">ATHLETE</text><text fill="#FFFFFF" style="font-size:9px; font-family:Arial" x="10" y="290">Jiakai</text><text fill="#FFFFFF" style="font-size:4px; font-family:Arial" x="120" y="280">STATISTICS</text><text fill="#FFFFFF" style="font-size:3px; font-family:Arial" x="120" y="285">Number: 61</text><text fill="#FFFFFF" style="font-size:3px; font-family:Arial" x="120" y="290">Weekly: 6.1</text><text fill="#FFFFFF" style="font-size:3px; font-family:Arial" x="141" y="285">Total: 63.3 km</text><text fill="#FFFFFF" style="font-size:3px; font-family:Arial" x="141" y="290">Avg: 1.0 km</text><text fill="#FFFFFF" style="font-size:3px; font-family:Arial" x="167" y="285">Min: 1.0 km</text><text fill="#FFFFFF" style="font-size:3px; font-family:Arial" x="167" y="290">Max: 1.5 km</text><polyline fill="none" points="18.736973386257887,33.21429429226555 20.999027213081717,38.12339999852702 21.645328306593,43.207820255542174 23.4226563135162,47.240283785387874 25.1999843204394,52.3246846050024 26.007860687561333,53.551952143898234 26.977312327362597,54.42857142863795 26.815737054683268,53.02598041878082 24.068957407958806,45.837688548257574 22.291629401035607,39.350674845976755 20.514301393181086,35.14287273935042 19.544849753379822,31.285714285681024" stroke="#4dd2ff" stroke-linecap="round" stroke-linejoin="round" stroke-width="0.5"><title>2023-11-19 1.0km</title><desc>10242265034</desc></polyline><polyline fill="none" points="44.073544101789594,51.90590775629971 45.08430465683341,48.72515182720963 45.4886088790372,47.95738213835284 46.196141267195344,47.518656424595974 49.63272715406492,47.0799305816181 52.159628541674465,46.53152309637517 52.968236985616386,45.873433847911656 53.473617263603956,45.21534430934116 54.08007359644398,42.47330143931322 53.877921485342085,41.59584665612783 54.28222570754588,40.93775523011573 53.9789975406602,35.89237798273098 53.77684543002397,35.23428404016886 53.67576937424019,33.26000046962872 53.473617263603956,32.05349255690817 52.36178065324202,31.724444774794392 51.45209615351632,32.38254026602954 51.65424826415256,32.05349255690817 51.85640037525445,32.38254026602954 50.54241165379062,31.724444774794392 50.44133559893817,31.285714285681024 50.13810743205249,31.50507954636123 50.34025954315439,31.39539692015387 49.63272715406492,32.27285770443268 49.7338032098487,32.16317513468675 51.85640037525445,33.26000046962872 51.351020098198205,33.698730377829634 50.54241165379062,34.027777724317275 48.62196659948677,34.356824998161756 48.52089054370299,33.91809528332669 49.0262708212249,33.698730377829634 49.7338032098487,33.8084128346527 51.85640037525445,31.724444774794392 54.78760598460212,31.83412737690378 54.48437781864777,31.614762164535932 54.08007359644398,31.50507954636123 53.77684543002397,36.76983612135518 53.877921485342085,38.30538662197068 54.1811496517621,40.16998153261375 54.383301763329655,43.35075570619665 54.383301763329655,44.447572813834995 54.08007359644398,45.544389114831574 53.473617263603956,46.20247850846499 48.41981448838487,46.750886114663444 46.09506521187723,47.189612054498866 44.882152545731515,48.0670635466231 43.46708776848391,50.04132751713041 42.658479324541986,52.893037527566776 42.35525115812197,54.428571428521536" stroke="#4dd2ff" stroke-linecap="round" stroke-linejoin="round" stroke-width="0.5"><title>2023-11-18 1.0km</title><desc>10236386505</desc></polyline><polyline fill="none" points="69.5631026448682,31.285714285681024 72.91463348735124,37.07145090273116 74.1333719752729,41.3694170381641 74.59039890766144,43.849009147961624 75.50445277430117,45.3367631015135 78.39895668253303,53.767350244452246 79.00832592695951,54.428571428521536 79.00832592695951,53.767350244452246 78.39895668253303,52.94082349096425 76.72319126222283,47.98165658861399 75.8091373955831,46.32859852374531 75.50445277430117,43.518397024832666 74.1333719752729,40.04696679417975 72.609948865138,36.74083778320346 72.45760655403137,34.922464754548855" stroke="#4dd2ff" stroke-linecap="round" stroke-linejoin="round" stroke-width="0.5"><title>2023-11-17 1.0km</title><desc>10231268371</desc></polyline><polyline fill="none" points="95.87201237119734,32.0322613583412 98.10800566989928,35.20508396439254 98.62400412373245,39.49772000266239 100.17199948430061,42.85716922977008 102.57999226823449,51.81567876855843 104.12798762880266,54.42857142863795 103.95598814450204,52.93549023801461 102.75199175346643,50.5092314297799 101.89199433010072,48.082970302319154 100.51599845290184,42.29726133355871 97.76400670129806,36.51153917913325 96.90400927793235,33.898628077004105 96.38801082409918,31.285714285913855" stroke="#4dd2ff" stroke-linecap="round" stroke-linejoin="round" stroke-width="0.5"><title>2023-11-16 1.0km</title><desc>10225818993</desc></polyline><polyline fill="none" points="121.7009639646858,31.534563053166494 122.84762732125819,36.013837745646015 124.68228869326413,40.9908026738558 127.20494807790965,45.71891257795505 128.1222787629813,49.45162625797093 129.72760746255517,52.686641451437026 131.33293616306037,54.42857142863795 127.20494807790965,46.71430329512805 125.37028670683503,40.9908026738558 120.09563526604325,31.285714285681024" stroke="#4dd2ff" stroke-linecap="round" stroke-linejoin="round" stroke-width="0.5"><title>2023-11-15 1.0km</title><desc>10219684298</desc></polyline><polyline fill="none" points="147.33938232809305,34.069829374784604 149.4240669682622,36.67993429629132 149.7447876818478,39.98606306454167 152.15019303467125,45.72827573912218 153.59343624580652,50.600445265416056 155.03667945694178,54.25456582871266 155.67812088504434,54.42857142863795 155.5177605273202,52.34050338040106 153.4330758890137,49.55640978273004 152.63127410411835,47.1203251988627 151.3483912497759,45.55426949914545 150.86731017939746,43.64020001515746 148.46190482657403,38.76801616116427 147.66010304261,35.28787869610824 147.17902197223157,31.285714285681024" stroke="#4dd2ff" stroke-linecap="round" stroke-linejoin="round" stroke-width="0.5"><title>2023-11-14 1.0km</title><desc>10213806154</desc></polyline><polyline fill="none" points="174.05185236781836,34.472063627443276 175.28825427871197,39.16772822930943 178.68835953064263,47.88822255900595 179.46111072413623,50.73914616648108 181.00661311205477,53.92546833504457 181.47026382852346,54.428571428521536 180.54296239558607,52.75156068557408 178.3792590526864,47.55281954759266 178.22470881417394,46.21120700775646 176.6792064262554,42.52176845539361 174.3609528457746,38.329217402264476 173.4336514128372,35.47827828431036 172.81545045785606,31.285714285681024" stroke="#4dd2ff" stroke-linecap="round" stroke-linejoin="round" stroke-width="0.5"><title>2023-11-13 1.0km</title><desc>10208522228</desc></polyline><polyline fill="none" points="20.271938673220575,60.701310012023896 21.887691288255155,65.61041427473538 23.82659442629665,69.64288521651179 24.957621255889535,74.37664675200358 26.08864808641374,77.70780664379708 27.542825439944863,80.86363803921267 28.189126485027373,81.21428571431898 28.51227700896561,80.51299031241797 26.734949132427573,77.00651021138765 25.765497564338148,73.14937614509836 22.21084181126207,69.81820988538675 20.271938673220575,67.01301363646053 19.94878815021366,64.03248900664039 17.202008704654872,58.07142857136205" stroke="#4dd2ff" stroke-linecap="round" stroke-linejoin="round" stroke-width="0.5"><title>2023-11-12 1.0km</title><desc>10202270880</desc></polyline><polyline fill="none" points="45.06982789840549,62.38914310047403 48.889755906537175,71.02454834850505 50.16306524258107,75.34223906928673 51.436374578624964,78.79638593248092 52.232192914001644,80.35075036389753 53.028011248447,81.21428571431898 53.18717491533607,80.52345745940693 51.75470191240311,76.20577626116574 49.04891957342625,72.06079484522343 46.183973567560315,65.49789264635183 45.06982789840549,60.83476678398438 43.95568222831935,58.07142857159488" stroke="#4dd2ff" stroke-linecap="round" stroke-linejoin="round" stroke-width="0.5"><title>2023-11-11 1.0km</title><desc>10196068378</desc></polyline><polyline fill="none" points="72.13421069644392,61.52256869641133 74.7534324573353,69.43987386161461 77.18556695058942,75.93610729952343 78.30809056200087,80.19925218750723 79.05643963627517,81.21428571431898 79.43061417434365,80.8082723482512 78.8693523677066,78.37219089805149 76.06304333824664,72.0789705386851 73.25673430785537,66.19175141211599 69.51498893462121,60.304519733646885 69.14081439748406,58.07142857136205" stroke="#4dd2ff" stroke-linecap="round" stroke-linejoin="round" stroke-width="0.5"><title>2023-11-10 1.0km</title><desc>10191120477</desc></polyline><polyline fill="none" points="94.62731598317623,58.77808399661444 97.39506229478866,60.898049026494846 99.02314836066216,63.72466615634039 99.51157418079674,64.78464672272094 99.51157418079674,66.37461669603363 101.30246885214001,71.85117188398726 101.95370327867568,75.03110142680816 103.25617213174701,78.5643515388947 103.58178934454918,80.3309746470768 104.39583237748593,81.21428571431898 104.88425819668919,81.03762352676131 105.37268401589245,80.3309746470768 103.58178934454918,79.09433860797435 100.65123442653567,74.85443878476508 97.23225368838757,65.49130017426796 96.41821065545082,60.191394224064425 95.60416762251407,58.07142857136205" stroke="#4dd2ff" stroke-linecap="round" stroke-linejoin="round" stroke-width="0.5"><title>2023-11-09 1.0km</title><desc>10185506531</desc></polyline><polyline fill="none" points="121.19961825758219,59.929622788215056 122.91207832749933,63.3081538771512 123.53479107934982,64.99741755891591 125.55860752612352,69.3894973192364 126.33699846733361,72.43016300420277 126.18132027890533,70.57197889685631 126.4926766557619,71.75445986620616 127.11538940761238,76.3154521904653 128.51649310160428,80.53858515981119 129.1392058543861,81.21428571431898 129.91759679466486,80.8764354614541 130.2289531705901,80.36965998983942 128.51649310160428,78.8493329033954 127.27106759604067,76.82222855673172 126.4926766557619,74.62619682983495 125.40292933769524,70.90983066475019 123.8461474571377,68.71379328717012 122.13368738628924,64.99741755891591 121.66665282193571,62.29459507192951 121.82233100943267,58.916062492644414 121.51097463350743,58.071428571478464" stroke="#4dd2ff" stroke-linecap="round" stroke-linejoin="round" stroke-width="0.5"><title>2023-11-08 1.0km</title><desc>10179505859</desc></polyline><polyline fill="none" points="150.38454670086503,70.85667343484238 155.60467034205794,81.21428571431898 155.90296312142164,81.0524483975023 155.15723117254674,79.2722371238051 153.81491366494447,77.0065116030164 152.9200353268534,74.74078375042882 151.13027864973992,72.79872944927774 150.53369309101254,71.6658636489883 150.08625392150134,67.78174790763296 149.78796114213765,66.64887952560093 147.99820446502417,63.57394812093116 146.9541797367856,58.071428571478464" stroke="#4dd2ff" stroke-linecap="round" stroke-linejoin="round" stroke-width="0.5"><title>2023-11-06 1.0km</title><desc>10167691585</desc></polyline><polyline fill="none" points="174.91800090949982,64.5647720702691 175.99206943623722,66.56272017071024 179.98146681953222,75.71995974332094 181.66928878985345,80.8812966409605 181.97616551071405,81.21428571431898 182.28304223250598,81.21428571431898 182.28304223250598,80.71480208588764 181.05553534533828,78.05088754103053 179.98146681953222,76.55243423231877 179.8280284581706,75.71995974332094 178.90739829279482,74.72098995302804 176.29894615802914,70.22562044300139 173.2301789401099,62.40032630588394 172.00267205294222,58.071428571478464" stroke="#4dd2ff" stroke-linecap="round" stroke-linejoin="round" stroke-width="0.5"><title>2023-11-05 1.1km</title><desc>10161301187</desc></polyline><polyline fill="none" points="18.529737127013505,84.85714285715949 21.62074122019112,91.73294377140701 23.011693062260747,97.77021529059857 25.175395927391946,101.96275555563625 25.94814695045352,105.3167822198011 26.720897973515093,108.0 27.184548587538302,107.49689690663945 27.029998382553458,106.9937937023351 25.020845722407103,103.3043668132741 24.86629551742226,102.80126268405002 23.011693062260747,99.95033719029743 22.23894203826785,97.26710994099267 20.229789378121495,93.5776673196815 19.766138764098287,90.39132570847869 18.83883753605187,87.03727709862869" stroke="#4dd2ff" stroke-linecap="round" stroke-linejoin="round" stroke-width="0.5"><title>2023-11-04 1.0km</title><desc>10155501797</desc></polyline><polyline fill="none" points="54.78047201037407,88.37253088480793 53.025742342695594,86.02893955609761 51.9459087010473,85.29656669998076 49.786241417750716,84.85714285715949 47.76155334012583,85.00361748237628 44.92699003079906,86.32188862282783 43.71217718394473,87.49368445994332 42.63234354229644,89.69079979555681 42.36238513235003,91.44849031907506 41.95744751673192,97.3074475270696 42.22740592667833,103.45933404483367 42.497364337556064,104.33817342494149 43.84715638915077,106.53527017787565 45.46690685208887,107.70705412165262 48.16649095574394,108.0 50.5961166494526,106.97468923777342 52.89076313795522,104.19170022185426 53.5656591639854,102.87344090954866 54.510513599961996,98.62571052322164 54.510513599961996,95.25681446457747 55.18540962599218,90.86259365000296 55.05043042078614,89.25137692224234 53.5656591639854,87.49368445994332 52.35084631666541,86.6148376467172 49.51628300733864,85.29656669998076 48.0315117505379,85.29656669998076 44.792010826058686,86.32188862282783 43.30723956879228,87.64015889097936 42.36238513235003,89.39785122405738 42.092426721937954,90.56964525126386 42.36238513235003,95.40328832506202 42.092426721937954,97.60039493476506" stroke="#4dd2ff" stroke-linecap="round" stroke-linejoin="round" stroke-width="0.5"><title>2023-11-03 1.0km</title><desc>10152446508</desc></polyline><polyline fill="none" points="69.49596557579935,84.85714285704307 70.76118221506476,87.60291606606916 71.84565362147987,92.50607548072003 73.65310596581548,96.03634467977099 76.3642844799906,103.09686906146817 76.90652018226683,104.27362130885012 77.8102463549003,107.41162476292811 78.35248205810785,108.0 79.07546299509704,108.0 79.07546299509704,107.60774985630997 77.8102463549003,107.01937453309074 77.26801065169275,105.64649827429093 76.00279401149601,104.46974663273431 75.09906783979386,101.9201162958052 73.8338511986658,99.95886053238064 72.38788932468742,97.01697418326512 70.76118221506476,90.93706544861197 69.67671080958098,88.3874221779406" stroke="#4dd2ff" stroke-linecap="round" stroke-linejoin="round" stroke-width="0.5"><title>2023-11-02 1.1km</title><desc>10144903556</desc></polyline><polyline fill="none" points="96.05896949209273,86.53416938101873 96.36806992441416,88.37889713374898 97.60447165183723,91.22983708966058 99.76817467622459,98.9441273411503 103.47737986128777,106.65839150408283 104.55923137255013,108.0 103.94103050976992,105.98758696066216 101.62277726922184,102.4658598692622 100.38637554086745,97.93791704869363 98.84087338019162,95.7577932261629 96.9862707881257,91.73294377094135 95.44076862744987,84.85714285715949" stroke="#4dd2ff" stroke-linecap="round" stroke-linejoin="round" stroke-width="0.5"><title>2023-11-01 1.0km</title><desc>10138966680</desc></polyline><polyline fill="none" points="122.34671871643513,85.20515742269345 123.14852038305253,87.81526503060013 124.43140304926783,94.77553791319951 126.5160873811692,99.29970431071706 127.7989700473845,103.475850232644 129.8836543802172,108.0 130.04401471279562,107.82599439937621 128.6007717140019,105.73792619723827 126.5160873811692,100.86575989471748 124.75212371535599,97.73364769015461 121.7052773842588,88.5112932396587 121.384556716308,84.85714285704307" stroke="#4dd2ff" stroke-linecap="round" stroke-linejoin="round" stroke-width="0.5"><title>2023-10-31 1.0km</title><desc>10133123337</desc></polyline><polyline fill="none" points="147.79492532927543,87.60001199808903 148.58484839461744,91.71430966048501 148.58484839461744,93.25716941198334 150.32267913687974,96.1714572685305 155.06221752706915,106.28572216280736 155.85214059241116,107.8285722725559 156.1681098183617,108.0 152.53446371946484,100.80002461350523 150.95461758971214,96.34288585279137 149.21678684651852,92.7428829416167 146.68903303798288,84.85714285704307" stroke="#4dd2ff" stroke-linecap="round" stroke-linejoin="round" stroke-width="0.5"><title>2023-10-30 1.0km</title><desc>10127985445</desc></polyline><polyline fill="none" points="173.49465996399522,88.20678292401135 174.19623634452,92.92672109557316 174.61718217283487,94.4492795013357 177.42348769539967,100.99626789137255 178.82664045598358,104.80264697573148 180.93136959848925,107.69549040088896 181.49263070337474,108.0 181.63294597901404,107.543235584395 180.37010849406943,105.56392195285298 178.54600990423933,101.60528901498765 175.31875855335966,95.66732542030513 174.05592106794938,91.25190555641893 173.07371413474903,89.2725763550261 172.93339885910973,86.22745081200264 172.65276830689982,84.85714285715949" stroke="#4dd2ff" stroke-linecap="round" stroke-linejoin="round" stroke-width="0.5"><title>2023-10-28 1.0km</title><desc>10115543824</desc></polyline><polyline fill="none" points="19.85543476883322,116.44287602230906 21.11931185889989,120.55717005464248 22.541173584759235,123.81431434862316 23.805050674825907,128.44287999207154 25.700866309925914,132.90000859554857 26.490789490751922,134.61428655893542 27.28071267157793,134.78571428568102 27.438697308301926,134.61428655893542 27.122728035785258,133.5857199318707 26.174820218235254,131.01430138014257 23.0151274939999,124.84288528584875 20.487373313866556,117.985737135401 18.907526951283216,114.55715549830347 18.27558840624988,111.6428571427241" stroke="#4dd2ff" stroke-linecap="round" stroke-linejoin="round" stroke-width="0.5"><title>2023-10-27 1.0km</title><desc>10110442644</desc></polyline><polyline fill="none" points="45.43496738187969,115.21640166104771 48.41460551135242,125.25633054447826 49.51236692722887,128.31935102527495 50.61012834403664,130.1911948795896 51.864712819457054,133.76471076102462 52.335181998088956,134.44537982763723 53.27612035442144,134.78571428568102 53.43294341303408,134.27521257975604 53.27612035442144,133.59454346331768 51.70788975991309,131.55253491387703 49.35554386861622,127.46851240936667 46.53272879868746,119.13027742202394 44.650852085091174,116.06724478071555 43.70991372875869,111.6428571427241" stroke="#4dd2ff" stroke-linecap="round" stroke-linejoin="round" stroke-width="0.5"><title>2023-10-26 1.0km</title><desc>10104873905</desc></polyline><polyline fill="none" points="73.12658792175353,122.71120941836853 76.68124210648239,131.59939282014966 78.3812941070646,134.61801326693967 78.99949483480304,134.78571428568102 78.84494465310127,133.10870354261715 74.67208974063396,125.89754329971038 72.35383701138198,120.02797743491828 70.34468464646488,115.83542114193551 69.57193373702466,111.64285714284051" stroke="#4dd2ff" stroke-linecap="round" stroke-linejoin="round" stroke-width="0.5"><title>2023-10-25 1.0km</title><desc>10098978222</desc></polyline><polyline fill="none" points="95.71884604822844,111.64285714284051 95.56316772289574,112.82534454553388 96.4972376767546,116.71065601205919 97.74266428127885,119.24455125513487 98.52105590794235,122.28522185829934 99.92216083779931,126.33944306976628 102.88004902284592,132.0829108748585 103.81411897577345,134.44786403304897 104.12547562737018,134.78571428568102 104.43683227803558,134.6167891654186 104.28115395270288,132.42076147464104 102.56869237218052,129.21117876667995 101.32326576765627,127.35299725504592 99.76648251246661,123.80555565096438 99.4551258618012,121.94736976805143 97.58698595501482,119.07562499272171 96.4972376767546,116.54172956303228 96.18588102515787,113.50105135946069 95.71884604822844,111.64285714284051" stroke="#4dd2ff" stroke-linecap="round" stroke-linejoin="round" stroke-width="0.5"><title>2023-10-24 1.0km</title><desc>10092835699</desc></polyline><polyline fill="none" points="123.33599216956645,115.63876303785946 125.63756656739861,123.79704901436344 126.71163462009281,125.79499212047085 127.93914096523076,130.78984217438847 129.78040048480034,134.11973609006964 130.5475919507444,134.78571428568102 129.78040048480034,133.95324151031673 128.70633243210614,131.28932657383848 125.94444315414876,127.95942849630956 125.33068998064846,126.79396301263478 124.71693680807948,122.96457219996955 122.87567728944123,119.30167058110237 121.64817094430327,115.47226709977258 120.88097947835922,111.6428571427241" stroke="#4dd2ff" stroke-linecap="round" stroke-linejoin="round" stroke-width="0.5"><title>2023-10-23 1.0km</title><desc>10087395010</desc></polyline><polyline fill="none" points="143.93574358336627,111.75385575310793 144.3449082437437,111.64285714289872 147.2602064497769,111.86485434696078 148.53884601360187,112.19785003067227 148.84571950905956,112.36434781743446 149.51061208266765,112.86384095728863 149.97092232550494,113.41883294726722 150.99383397656493,115.30580266064499 151.50528980256058,117.41476322850212 152.170182375703,118.52474010788137 152.47705587092787,119.4127204361721 153.193094026763,121.02218211872969 153.70454985252582,122.68713886867044 154.47173359105363,124.01910162443528 154.8297526689712,124.40759031882044 155.29006291204132,125.18456710776081 155.54579082480632,126.84951467678184 155.69922757241875,127.29350007505855 156.10839223279618,127.90397957118694 156.21068339818157,128.84744691231754 156.364120145794,129.23593312170124 158.61452577845193,134.56372382264817 158.92139927390963,134.78571428573923 158.92139927390963,134.50822619657265 158.4610890308395,134.06424504175084 157.9496332053095,132.84329551941482 157.4381773795467,131.78883752471302 156.0572466503363,127.51549267623341" stroke="#4dd2ff" stroke-linecap="round" stroke-linejoin="round" stroke-width="0.5"><title>2023-10-22 1.5km</title><desc>10080655811</desc></polyline><polyline fill="none" points="173.46193063165992,111.64285714289872 174.27389971492812,112.23024759587133 172.81235536467284,111.99529146647546 175.08586879819632,114.93223811686039 175.302393887192,115.63710370636545 175.14000007067807,116.22449122235412 174.38216225942597,116.6356622268213 174.16563717043027,117.04683301941259 174.2197684426792,117.75169674295466 174.65281862043776,119.45511484093731 175.14000007067807,120.68862223078031 175.68131279293448,122.56824887666153 176.65567569294944,124.27165670477552 176.81806950969622,124.91777596535394 177.41351350396872,125.97506090078969 177.792432409944,126.44496486760909 177.84656368172728,126.7386547063943 178.22548258746974,127.09108237054897 178.49613894848153,127.67846146522788 178.87505785445683,128.79448055534158 179.25397675996646,129.55807166616432 179.19984548771754,131.08525169832865 179.9035520264879,132.43621621659258 180.1200771157164,133.08232887438498 180.49899602099322,133.78717845055507 181.14857128774747,134.6095021701185 181.47335892124102,134.78571428573923 180.22833965998143,133.0235913816141 179.95768329896964,132.08379091037204 179.4163705764804,130.9090387666365 179.19984548771754,130.1454489470343 178.49613894848153,129.1469073126209 177.90069495420903,127.44350987917278" stroke="#4dd2ff" stroke-linecap="round" stroke-linejoin="round" stroke-width="0.5"><title>2023-10-20 1.4km</title><desc>10069668027</desc></polyline><polyline fill="none" points="18.200312605127692,138.42857142857974 18.310533439507708,139.32559366268106 19.192300114315003,141.47844298765995 19.412741783307865,142.794070325559 21.23138555022888,147.21934666176094 21.396716801682487,147.8173551306827 21.506937636295334,148.71436700987397 21.727379304822534,149.31237437977688 23.050029317382723,151.16619443206582 23.76646474073641,152.6014070546953 24.207348078023642,154.03661714476766 24.593120998702943,154.8140215529129 24.813562667230144,156.01002688379958 25.0891147532966,156.60802888975013 25.805550176417455,158.46183231432224 25.9157710110303,159.17943250574172 26.962868937524036,161.33222928148462 27.23842102335766,161.57142857142026 27.4037522750441,161.57142857142026 27.513973109191284,161.5116287554265 27.45886269235052,161.45182893518358 26.356654348550364,160.07643185462803 25.86066059395671,158.4020322698052 24.813562667230144,156.4884285237058 24.648231415776536,155.7110257158638 24.53801058116369,154.39541927166283" stroke="#4dd2ff" stroke-linecap="round" stroke-linejoin="round" stroke-width="0.5"><title>2023-10-19 1.3km</title><desc>10064004415</desc></polyline><polyline fill="none" points="43.35289159510285,138.42857142863795 45.621820715256035,141.38299208146054 45.470558773726225,143.51673789927736 45.77308265585452,145.65048167784698 46.831916246563196,149.42556182818953 48.34453565906733,151.88756718323566 49.85715507250279,156.1550367004238 52.88239390030503,161.0790298532229 53.336179724894464,161.57142857147846 53.78996554855257,161.40729567722883 51.82356031052768,159.43770000850782 48.19327371753752,152.3799679283984 47.28570206928998,149.2614280412672 44.714249067008495,143.84500630549155" stroke="#4dd2ff" stroke-linecap="round" stroke-linejoin="round" stroke-width="0.5"><title>2023-10-18 1.0km</title><desc>10058081424</desc></polyline><polyline fill="none" points="70.24633304495364,139.83117522415705 71.5389350419864,147.37015649373643 74.93201528396457,156.31170803238638 77.19406877830625,161.04545703949407 78.16352027654648,161.57142857136205 78.6482460256666,161.57142857136205 78.97139652445912,160.87013317015953 77.84036977775395,159.4675417477265 76.3861925303936,157.18832892808132 74.44728953577578,152.9805456912145 73.63941328786314,150.52600204129703 70.24633304495364,143.68833140959032 69.92318254616112,142.63638034136966 69.60003204736859,138.42857142840512" stroke="#4dd2ff" stroke-linecap="round" stroke-linejoin="round" stroke-width="0.5"><title>2023-10-17 1.0km</title><desc>10051702317</desc></polyline><polyline fill="none" points="94.83207626640797,138.9626398559194 96.47268697619438,141.81100281258114 98.93360303901136,148.21980721363798 100.24609160702676,150.71211545565166 101.72264124453068,155.3406810988672 103.52731302566826,159.96923789544962 104.1835573092103,161.21538629056886 105.00386266317219,161.57142857136205 105.16792373452336,161.39340743771754 105.00386266317219,160.85934395738877 103.19919088389724,158.18902479019016 100.73827482014894,152.13629044196568 98.93360303901136,148.39782931585796 97.45705340150744,141.45495762582868 96.63674804661423,138.42857142840512" stroke="#4dd2ff" stroke-linecap="round" stroke-linejoin="round" stroke-width="0.5"><title>2023-10-16 1.0km</title><desc>10046279660</desc></polyline><polyline fill="none" points="120.974743665196,138.42857142840512 121.65182110108435,139.89796555694193 122.3288985369727,143.20409918646328 123.85232276655734,148.34696502564475 125.88355507329106,151.46941412007436 128.2533260975033,160.2857199094724 129.0996728921309,161.20408330694772 130.28455840423703,161.57142857136205 130.4538277639076,161.20408330694772 130.28455840423703,160.1020471896045 128.08405673876405,156.97960888431408 126.89917122665793,153.30614705826156 125.54501635581255,151.10206737020053 122.3288985369727,143.57144709769636 121.14401302486658,138.42857142840512" stroke="#4dd2ff" stroke-linecap="round" stroke-linejoin="round" stroke-width="0.5"><title>2023-10-15 1.0km</title><desc>10039610121</desc></polyline><polyline fill="none" points="146.61258409079164,140.10830203117803 147.1285827336833,145.52075974736363 148.50457911659032,149.4401184762828 150.22457459475845,151.86638513277285 151.25657188147306,155.22582744481042 154.18056419305503,160.4516177601181 154.86856238357723,161.19815835589543 155.72856012359262,161.57142857136205 156.24455876648426,161.19815835589543 156.24455876648426,160.63825292955153 152.80456781107932,157.83872394706123 150.56857369001955,153.73274252167903 149.70857595093548,150.18666230980307 147.64458137750626,145.52075974736363 146.61258409079164,141.6013949678745 146.7845836393535,139.1751185003668 146.61258409079164,138.42857142840512" stroke="#4dd2ff" stroke-linecap="round" stroke-linejoin="round" stroke-width="0.5"><title>2023-10-14 1.0km</title><desc>10033377496</desc></polyline><polyline fill="none" points="171.8955077882856,138.79592004208826 174.94235580042005,142.46940320334397 175.28089446853846,145.2245120294392 178.15847314707935,154.04083985602483 180.86678249109536,160.46939261630177 181.71312916092575,161.57142857136205 182.39020649716258,161.57142857136205 182.39020649716258,161.02041065483354 182.2209371626377,160.46939261630177 180.6975131565705,159.3673561748583 179.00481981690973,156.24491695151664 177.1428571427241,150.3673737095669 173.75747046247125,142.8367512221448 173.24966246075928,140.26531395455822 172.40331578999758,138.42857142863795" stroke="#4dd2ff" stroke-linecap="round" stroke-linejoin="round" stroke-width="0.5"><title>2023-10-13 1.0km</title><desc>10028006924</desc></polyline><polyline fill="none" points="17.891479262150824,165.21428571408615 19.51956568751484,167.33425136725418 20.496417541988194,169.10088798217475 20.65922618471086,171.39751364081167 20.496417541988194,173.87080035638064 22.287312609143555,177.58072565728799 24.40382496174425,183.23393414868042 26.52033731341362,187.12050727196038 27.008763240650296,187.827156255953 27.822806453332305,188.35714285704307 27.822806453332305,187.47383179003373 26.031911386176944,185.17722149612382 24.40382496174425,182.35062119876966 22.287312609143555,176.52074758452363 20.98484346922487,174.22412682278082 20.33360890019685,172.2808306175284" stroke="#4dd2ff" stroke-linecap="round" stroke-linejoin="round" stroke-width="0.5"><title>2023-10-12 1.0km</title><desc>10021974100</desc></polyline><polyline fill="none" points="45.86564523726702,168.49574947892688 46.50230013951659,171.94991691154428 46.3431364139542,173.33158246264793 47.77560994308442,177.99469769722782 48.889756022021174,180.06719038565643 50.00390210095793,183.86675556609407 51.595539355650544,187.66631460143253 51.91386680677533,188.01172875449993 52.70968543551862,188.35714285704307 52.550521709024906,187.66631460143253 50.7997207287699,183.1759259905666 48.889756022021174,179.89448273112066 46.3431364139542,174.02241493295878 45.706481511704624,171.7772086604964 45.388154060579836,168.49574947892688 44.4331717081368,165.21428571431898" stroke="#4dd2ff" stroke-linecap="round" stroke-linejoin="round" stroke-width="0.5"><title>2023-10-10 1.0km</title><desc>10009069592</desc></polyline><polyline fill="none" points="70.36513779964298,168.1071555116214 71.46289921551943,171.17019017937128 72.56066063139588,175.2542300982168 74.91300652362406,180.35926986287814 76.79488323628902,186.82563740201294 77.89264465216547,188.3571428571595 78.20629077218473,187.8466411512345 78.36311383079737,185.97480059973896 77.26535241492093,182.74161789973732 74.91300652362406,178.6575911922846 72.24701451323926,171.17019017937128 71.46289921551943,167.76681807579007 70.20831474009901,165.21428571420256" stroke="#4dd2ff" stroke-linecap="round" stroke-linejoin="round" stroke-width="0.5"><title>2023-10-09 1.0km</title><desc>10003389142</desc></polyline><polyline fill="none" points="95.28801325522363,165.21428571408615 96.44534333329648,166.64950804505497 97.60267341136932,169.34054763941094 98.26400488428771,174.7226179256104 100.74399790819734,180.1046763411723 102.89332519471645,186.20432819565758 103.88532240409404,187.998340545455 104.71198674477637,188.35714285704307 104.71198674477637,186.92193329404108 101.57066224887967,181.8986931750551 97.43734054267406,171.85218191659078 95.78401185944676,165.39368855208158" stroke="#4dd2ff" stroke-linecap="round" stroke-linejoin="round" stroke-width="0.5"><title>2023-10-08 1.0km</title><desc>9996447828</desc></polyline><polyline fill="none" points="122.7436095578596,169.84287619916722 123.5053213937208,172.6530872018775 125.79045689851046,178.76941665518098 126.55216873344034,181.41431072517298 128.98964660521597,187.53061634639744 129.75135844014585,188.3571428571595 129.90370080713183,187.69592167297378 129.90370080713183,187.03470029460732 127.00919583439827,181.9102280169027 125.63811453152448,178.93472262541763 123.20063665881753,171.6612484252546 122.43892482388765,167.85919572925195 121.52487062197179,165.21428571431898" stroke="#4dd2ff" stroke-linecap="round" stroke-linejoin="round" stroke-width="0.5"><title>2023-10-07 1.0km</title><desc>9989974159</desc></polyline><polyline fill="none" points="149.53779771830887,172.10792782274075 150.74789289291948,176.0471423274139 151.65546427480876,178.01674697361887 153.470607037656,185.7310151066631 153.924392728135,187.2082123461878 154.83196410909295,188.3571428571595 155.58827359322459,188.3571428571595 155.89079738687724,187.70061120891478 155.73953549098223,187.2082123461878 153.924392728135,184.58208324376028 152.10924996528774,180.64288379845675 151.50420237798244,178.01674697361887 148.32770254369825,170.30245218542404 147.87391685321927,167.5121687820647 146.96634547133,165.21428571431898" stroke="#4dd2ff" stroke-linecap="round" stroke-linejoin="round" stroke-width="0.5"><title>2023-10-06 1.0km</title><desc>9984428862</desc></polyline><polyline fill="none" points="172.16050775535405,165.21428571431898 174.78279690723866,172.23304300755262 176.5309896748513,178.11360874283127 179.50291737914085,185.51172079332173 180.7266523167491,187.97775343060493 181.2511101467535,188.35714285704307 181.95038725435734,188.35714285704307 182.12520653009415,187.97775343060493 181.60074870008975,187.02927961805835 179.50291737914085,183.99416107684374 178.27918244246393,181.5281246327795 176.1813511205837,176.0269579195883 175.30725473724306,173.18152225832455 172.8597848629579,168.62881867401302 172.8597848629579,166.92155275889672" stroke="#4dd2ff" stroke-linecap="round" stroke-linejoin="round" stroke-width="0.5"><title>2023-10-04 1.0km</title><desc>9971682885</desc></polyline><polyline fill="none" points="19.354380790144205,194.7028274544282 20.132772360928357,197.40565172978677 20.911163930781186,199.26384157466237 21.533877187408507,202.13558656093664 24.491765154525638,208.04799140791874 24.647443468682468,210.07509813900106 25.58151335362345,214.1293062363984 25.892869981005788,214.6360817454988 26.82693986594677,215.1428571428405 26.82693986594677,213.45360538363457 24.80312178377062,209.73724714142736 23.402016956359148,206.52766018616967 22.623625385574996,205.00732795824297 21.845233814790845,202.81129074213095 20.288450675085187,199.60169411252718 19.665737418457866,197.06779886910226 19.354380790144205,194.53390083182603 18.887345848605037,192.0" stroke="#4dd2ff" stroke-linecap="round" stroke-linejoin="round" stroke-width="0.5"><title>2023-10-03 1.0km</title><desc>9965060084</desc></polyline><polyline fill="none" points="44.341092430986464,192.9563204885926 46.45626050140709,199.8418176297564 46.80878851283342,202.9020327317994 48.04263655375689,204.432138932636 48.92395658325404,206.72729654680006 50.510332635603845,212.65644434583373 51.74418067652732,214.56906978506595 52.625500705093145,215.14285714295693 52.80176471173763,214.95159470429644 52.27297269459814,213.42149469000287 50.33406862989068,209.7875035495963 47.161316524259746,202.13697929354385 45.22241246048361,196.3990713369567 44.86988444905728,192.00000000023283" stroke="#4dd2ff" stroke-linecap="round" stroke-linejoin="round" stroke-width="0.5"><title>2023-10-02 1.0km</title><desc>9958643020</desc></polyline><polyline fill="none" points="70.61730833631009,196.0731582788285 70.95855540130287,197.73944840370677 74.71227311808616,206.62631044583395 76.5891319764778,212.3657255147118 77.61287317145616,214.4022890077904 78.63661436643451,215.14285714295693 78.80723789986223,214.95771512947977 78.63661436643451,214.21714694029652 75.22414371557534,209.03316351911053 71.98229659628123,201.0720253442414 70.4466848038137,196.25830168067478 69.7641906728968,192.0" stroke="#4dd2ff" stroke-linecap="round" stroke-linejoin="round" stroke-width="0.5"><title>2023-10-01 1.0km</title><desc>9952075403</desc></polyline><polyline fill="none" points="96.67716986592859,195.35405181569513 98.06812201533467,198.20499198127072 98.68632296938449,201.05592858383898 99.14997368585318,203.73915977822617 101.46822726726532,210.27952259161975 103.47738037072122,214.47205299360212 104.40468180272728,215.1428571428405 104.71378228161484,214.63975404936355 101.6227775067091,209.94411982689053 100.23182535730302,206.75779109902214 99.76817464083433,205.08077419165056 97.60447129886597,200.38512029196136 96.36806938797235,195.18634934176225 95.28621771745384,192.0" stroke="#4dd2ff" stroke-linecap="round" stroke-linejoin="round" stroke-width="0.5"><title>2023-09-30 1.0km</title><desc>9945549317</desc></polyline><polyline fill="none" points="122.13119363691658,192.0 123.66680452693254,194.59201057627797 124.17867482360452,196.62858844315633 125.54366228170693,199.96116685448214 126.2261560112238,204.96002620225772 126.73802630789578,206.44116780697368 128.7855074936524,211.44001429202035 129.2973777903244,214.58743106247857 129.63862465508282,214.9577151297126 130.1504949517548,215.14285714295693 130.32111838366836,214.77257310249843 127.24989660456777,209.21830596844666 125.2024154169485,204.40459787589498 124.51992168836296,201.62745440611616 122.13119363691658,196.0731582797598 121.1074530435726,192.74057472264394" stroke="#4dd2ff" stroke-linecap="round" stroke-linejoin="round" stroke-width="0.5"><title>2023-09-28 1.0km</title><desc>9933629332</desc></polyline><polyline fill="none" points="146.9044611128047,194.62988144042902 148.19706406071782,199.1883357341867 150.62069458607584,202.51950836111791 152.23644827026874,208.48054250143468 154.49850342795253,212.5129983238876 155.14480490144342,214.79220946785063 155.791106374003,215.14285714295693 156.11425711214542,214.61688561108895 155.791106374003,213.91559005482122 154.49850342795253,212.16235026181675 150.7822699546814,204.62340446491726 148.8433655332774,199.3636607248336 146.74288574513048,192.00000000023283" stroke="#4dd2ff" stroke-linecap="round" stroke-linejoin="round" stroke-width="0.5"><title>2023-09-27 1.0km</title><desc>9927137811</desc></polyline><polyline fill="none" points="179.06541318586096,191.9999999999418 178.60399973555468,194.22530548635405 178.1425862852484,195.50485317711718 177.78370915725827,197.0625604885863 175.68171455012634,201.45750311407028 174.6050831663888,203.29335766413715 174.40001052152365,204.07220370310824 174.50254684360698,204.68415360001381 174.75888764951378,205.57426165725337 175.5279100665357,207.46573780244216 175.7842508724425,207.96642187290126 176.09185983939096,208.85652606899384 177.11722306208685,210.13604901649524 177.57863651262596,211.1374132920755 178.09131812420674,211.91625125706196 178.50146341323853,213.028875530581 179.11668134713545,213.86334266205085 179.88570376415737,215.1428571428405" stroke="#4dd2ff" stroke-linecap="round" stroke-linejoin="round" stroke-width="0.5"><title>2023-09-26 1.0km</title><desc>9920397094</desc></polyline><polyline fill="none" points="22.749063609866425,218.78571428568102 21.740323967533186,222.14771466772072 20.731584325432777,223.94598957832204 19.794897514395416,225.11877592519158 19.290527693461627,226.05700407130644 19.07436919864267,226.99523138953373 19.14642202993855,228.16801437322283 19.506686188280582,229.1062398289796 20.371320167323574,230.4353911409271 20.731584325432777,231.76454079145333 21.45211264095269,233.48461434361525 22.821116441395134,235.2046851136838 25.126807052176446,239.89577307284344 26.639916515676305,241.92857142857974" stroke="#4dd2ff" stroke-linecap="round" stroke-linejoin="round" stroke-width="0.5"><title>2023-09-25 1.0km</title><desc>9914573673</desc></polyline><polyline fill="none" points="50.277634291443974,218.78571428573923 49.708899051416665,219.64972575270804 49.59515200345777,220.08173115260433 49.708899051416665,220.6371663401369 49.76577257551253,221.19260115997167 48.62830209522508,223.29090716224164 48.343934474978596,224.71034648327623 47.94581980723888,225.75949574296828 45.557131798705086,229.9560796673759 45.500258274842054,230.449794043554 45.727752370527014,231.4372219251236 46.353361134883016,232.4246486449847 46.694602278992534,233.28864607197465 47.20646399492398,234.15264260955155 47.49083161493763,235.0166382577736 48.23018742725253,236.18920235801488 48.79892266704701,237.36176482023438 49.42453143163584,238.04061602335423 49.59515200345777,238.65775300428504 49.99326667143032,239.15146226232173 50.84636953170411,240.63258829439292 51.471978295827284,241.31143685226562 51.64259886788204,241.92857142857974" stroke="#4dd2ff" stroke-linecap="round" stroke-linejoin="round" stroke-width="0.5"><title>2023-09-24 1.0km</title><desc>9907510217</desc></polyline><polyline fill="none" points="75.14848183607683,218.78571428568102 74.66533200792037,219.53468229668215 74.32022498780861,220.28364975680597 74.11316077574156,221.25730663182912 74.04413937148638,222.53054883313598 72.87077550310642,224.10337523772614 72.18056146311574,225.900888154516 71.55936882668175,226.79964342340827 71.14524040254764,227.99798254854977 71.07621899829246,229.2712163241813 72.52566848299466,232.94111653784057 73.07783971517347,234.0645527355955 74.87239621998742,236.91058555798372 75.63163166423328,238.78297123644734 76.5979313205462,239.98129626433365 77.15010255295783,240.95493431173963 77.49520957306959,241.92857142857974" stroke="#4dd2ff" stroke-linecap="round" stroke-linejoin="round" stroke-width="0.5"><title>2023-09-23 1.0km</title><desc>9901004991</desc></polyline><polyline fill="none" points="100.88865106692538,218.78571428573923 100.42786903236993,219.6428669745801 99.96708699758165,221.14288236008724 98.91387091833167,223.35718655312667 97.86065483908169,224.85719620325835 96.93909076973796,227.35720713983756 96.87326476466842,228.7143532395712 97.0049167748075,229.5000685363193 98.32143687363714,232.6429233677918 98.51891488861293,233.57149216765538 98.78221890842542,234.0714903845801 99.70378297776915,235.21434248570586 100.42786903236993,236.64290572114987 101.02030307683162,238.14289485791232 102.0076931512449,239.5714537873282 103.12673523533158,241.92857142857974" stroke="#4dd2ff" stroke-linecap="round" stroke-linejoin="round" stroke-width="0.5"><title>2023-09-22 1.0km</title><desc>9895405405</desc></polyline><polyline fill="none" points="126.94109472865239,218.78571428573923 126.75235488032922,219.46840269467793 126.37487518368289,219.87801549909636 125.55700250715017,221.37992756912718 125.24243609327823,222.47222573042382 124.29873685119674,224.86162347818026 123.29212432680652,226.9096737963264 122.66299149859697,228.41157449188177 122.4742516502738,229.16252392844763 122.4742516502738,229.64040052646305 122.66299149859697,230.3230809540837 123.04047119547613,231.0057608798379 123.85834387200885,233.1220654596691 124.6762165480759,234.62395610607928 125.11660952772945,235.7162386867567 125.93448220402934,237.08159010566305 126.43778846622445,237.695997589326 126.81526816310361,238.78827655612258 127.82188068795949,240.5632271367358 128.95431977813132,241.92857142857974" stroke="#4dd2ff" stroke-linecap="round" stroke-linejoin="round" stroke-width="0.5"><title>2023-09-21 1.0km</title><desc>9889267953</desc></polyline><polyline fill="none" points="153.78480204450898,218.78571428573923 152.95890677697025,221.263459073205 152.47308603161946,223.214018094528 151.69577283854596,224.8482661617454 150.77271342207678,227.58957713481504 149.16950496169738,230.5944636601489 148.73226629081182,232.22869490430458 148.78084836527705,232.59771434712457 149.0723408125341,233.3884696564637 149.70390778197907,234.7591101268772 150.0925643783994,235.91888078604825 151.06420586956665,237.28951641911408 151.64719076431356,238.39656636398286 151.987265285803,239.1873152781045 152.37592188222334,239.87263029819587 153.0074888516683,240.34707877459005 153.78480204450898,241.5068403953337 153.83338411920704,241.7177059429814 154.12487656646408,241.92857142857974" stroke="#4dd2ff" stroke-linecap="round" stroke-linejoin="round" stroke-width="0.5"><title>2023-09-20 1.0km</title><desc>9882714971</desc></polyline><polyline fill="none" points="179.06178960599937,218.78571428573923 178.56834982987493,220.0350885152584 177.6362969193142,222.77180627640337 177.58147027739324,223.66421224054648 177.25251042633317,224.1401616857038 176.86872393405065,225.03256614063866 176.64941736659966,225.86547607730608 176.21080423239619,226.9958524769172 174.94979147077538,229.01862735598115 174.62083161994815,230.20849256968359 174.51117833633907,231.27936976606725 174.62083161994815,232.35024554503616 174.94979147077538,233.5401058595162 175.3335779630579,234.3730070387246 176.5397640829906,236.45525623566937 177.14285714295693,237.28815441404004 177.69112356076948,238.77547045750543 178.2393899790477,239.72735129058128 178.78765639686026,240.50075364299119 179.3907494568266,241.0956780264969 179.77453594957478,241.92857142857974" stroke="#4dd2ff" stroke-linecap="round" stroke-linejoin="round" stroke-width="0.5"><title>2023-09-19 1.0km</title><desc>9876194288</desc></polyline><polyline fill="none" points="22.686794228153303,245.57142857142026 22.277957518585026,246.23688557493733 21.59656300302595,247.56779826106504 21.392144648358226,248.45507240627194 20.165634519886225,250.5993150253198 19.211682197870687,252.59567473310744 19.007263842970133,253.3350662117009 19.07540329475887,254.14839620998828 19.484240004327148,255.1835425296449 20.097495068330318,256.292626689421 20.64261068101041,257.8453424582258 21.392144648358226,259.4719945018296 22.20981806702912,260.95076680369675 22.959352034609765,261.91196763399057 23.845164904836565,263.3907363479957 24.390280517283827,265.0913176808972 25.344232839532197,266.57008172001224 25.82120900065638,267.9009674960398 26.707021871116012,268.71428571426077" stroke="#4dd2ff" stroke-linecap="round" stroke-linejoin="round" stroke-width="0.5"><title>2023-09-18 1.0km</title><desc>9870505463</desc></polyline><polyline fill="none" points="48.803972801426426,245.57142857142026 48.471766758244485,246.220301167632 48.00667829811573,248.3832067202893 47.40870742104016,249.39256101218052 47.142942586448044,250.18562436959473 45.68123599770479,252.56481059349608 45.14970632898621,253.86254610068863 44.8175002860371,255.01608733163448 45.08326512016356,255.8091461408767 46.544971709139645,258.9813749634195 47.27582500386052,260.13491017278284 47.807354672346264,261.3605398457148 48.67109038401395,262.5140722562792 49.136178844375536,263.30712500127265 49.734149721683934,265.18161075829994 52.325356856686994,268.71428571426077" stroke="#4dd2ff" stroke-linecap="round" stroke-linejoin="round" stroke-width="0.5"><title>2023-09-16 1.0km</title><desc>9856514700</desc></polyline><polyline fill="none" points="73.96579950209707,245.57142857142026 73.2548777598422,247.7314501705696 72.33067949512042,249.1971765802009 70.41119079128839,252.9000552307116 70.34009861689992,253.7486297477153 70.41119079128839,254.75148965540575 70.83774383668788,255.75434860464884 71.54866557894275,256.83434947789647 72.18849514657632,258.3000631706673 73.32596993399784,260.22863069950836 74.74781341850758,262.92861928464845 74.88999776681885,263.9314704181161 75.38764298637398,264.31718213728163 75.95638038008474,265.08860515023116 76.88057864480652,266.6314494747785 77.87586908368394,267.4800128862262 78.08914560638368,268.02000742714154 78.23132995492779,268.71428571426077" stroke="#4dd2ff" stroke-linecap="round" stroke-linejoin="round" stroke-width="0.5"><title>2023-09-15 1.0km</title><desc>9850671982</desc></polyline><polyline fill="none" points="100.58834829274565,245.57142857142026 99.41165170772001,248.6837725614896 98.08786804880947,250.59905673458707 97.49951975652948,251.63650091725867 96.616997317411,253.87099271186162 96.39636670798063,254.66902438079705 96.39636670798063,255.30744929309003 96.616997317411,256.10547990584746 97.49951975652948,258.4995682234876 98.3084986587055,260.0956241681124 100.29417414637282,263.52713650179794 101.10315304854885,265.0433826817898 101.25024012150243,265.92120844946476 101.83858841471374,266.479824477341 102.79465438984334,267.9960665325634 103.60363329201937,268.71428571426077" stroke="#4dd2ff" stroke-linecap="round" stroke-linejoin="round" stroke-width="0.5"><title>2023-09-14 1.0km</title><desc>9844236351</desc></polyline><polyline fill="none" points="122.0361743955873,245.57142857136205 122.45955411554314,245.9159922673134 122.61832151073031,246.26055581122637 122.72416644077748,247.00710963463644 123.04170123068616,247.6388084665523 123.25339109101333,249.41904787998646 123.25339109101333,250.2804525909596 123.14754616096616,250.73986804834567 123.25339109101333,251.3141369901714 123.51800341601484,252.0032591629424 123.41215848596767,252.57752717577387 123.46508095110767,252.86466102383565 123.99430560111068,253.84091531776357 124.47060778643936,255.27658118045656 124.89398750662804,256.08055291092023 125.42321215663105,256.82709734817035 126.0053592720069,257.343935386627 126.16412666696124,257.688493889058 126.3228940621484,258.43503678945126 126.74627378233708,259.1815789762768 127.22257596743293,260.5598088313127 127.85764554748312,261.7657579596271 128.17518033762462,262.7994271591306 128.3339477328118,263.66081711358856 128.6514825229533,264.34992839349434 129.23362963809632,266.2449812780251 130.0274666135665,267.73805000964785 130.0803890787065,267.9677526380983 130.0274666135665,268.14002956519835 129.39239703305066,268.71428571426077 129.70993182319216,268.4845833052532 129.86869921837933,268.14002956519835 129.97454414819367,267.8529013323714 129.92162168351933,267.45092162903165 129.60408689337783,267.0489417188219 128.6514825229533,264.98161319905194 128.17518033762462,263.4311132186558 127.16965350252576,261.1914967020857 126.69335131719708,259.00930007349234 126.42873899219558,258.37761043792125 125.42321215663105,257.0568031852599 124.41768532129936,255.16172800853383 123.94138313597068,253.61120853491593 123.782615741482,252.57752717577387 123.35923602082767,251.48641759040765 122.51247658068314,249.64875589578878 122.3007867205888,248.78735048812814 121.55987221025862,247.40909985953476 121.40110481507145,246.66254642023705 121.34818235016428,245.74371043837164" stroke="#4dd2ff" stroke-linecap="round" stroke-linejoin="round" stroke-width="0.5"><title>2023-09-13 1.0km</title><desc>9837636972</desc></polyline></svg>