<?xml version="1.0" encoding="utf-8" ?>
<svg baseProfile="full" height="300mm" version="1.1" viewBox="0,0,200,300" width="200mm" xmlns="http://www.w3.org/2000/svg" xmlns:ev="http://www.w3.org/2001/xml-events" xmlns:xlink="http://www.w3.org/1999/xlink"><defs /><rect fill="#222222" height="300" width="200" x="0" y="0" /><text fill="#FFFFFF" style="font-size:12px; font-family:Arial; font-weight:bold;" x="10" y="20">Over 1km Runs</text><text fill="#FFFFFF" style="font-size:4px; font-family:Arial" x="10" y="280">ATHLETE</text><text fill="#FFFFFF" style="font-size:9px; font-family:Arial" x="10" y="290">Jiakai</text><text fill="#FFFFFF" style="font-size:4px; font-family:Arial" x="120" y="280">STATISTICS</text><text fill="#FFFFFF" style="font-size:3px; font-family:Arial" x="120" y="285">Number: 12</text><text fill="#FFFFFF" style="font-size:3px; font-family:Arial" x="120" y="290">Weekly: 4.0</text><text fill="#FFFFFF" style="font-size:3px; font-family:Arial" x="141" y="285">Total: 12.2 km</text><text fill="#FFFFFF" style="font-size:3px; font-family:Arial" x="141" y="290">Avg: 1.0 km</text><text fill="#FFFFFF" style="font-size:3px; font-family:Arial" x="167" y="285">Min: 1.0 km</text><text fill="#FFFFFF" style="font-size:3px; font-family:Arial" x="167" y="290">Max: 1.0 km</text><polyline fill="none" points="39.747815089300275,33.0 37.3940892573446,40.84466755785979 35.040363426320255,45.04064234928228 32.854760866612196,47.777143825311214 31.677897951565683,49.96634283289313 31.173528130166233,52.15553990891203 31.341651403345168,54.89203353738412 32.18226777296513,57.08122626738623 34.19974705670029,60.18257932877168 35.040363426320255,63.283928513294086 36.72159616276622,67.29743346828036 39.91593836341053,71.31093193194829 45.29588312190026,82.25680383644067 48.82647186983377,87.0" stroke="#4dd2ff" stroke-linecap="round" stroke-linejoin="round" stroke-width="0.5"><title>2023-09-25 1.0km</title><desc>9914573673</desc></polyline><polyline fill="none" points="103.98114668019116,33.0 102.65409778757021,35.016026756260544 102.38868800830096,36.024039356037974 102.65409778757021,37.32005479373038 102.78680267650634,38.61606937320903 100.1327048894018,43.512116711819544 99.46918044239283,46.82414179435 98.5402462175116,49.27215673355386 92.96664086449891,59.06418589060195 92.83393597509712,60.21618610166479 93.36475553177297,62.52018449199386 94.8245093151927,64.82418017170858 95.62073865160346,66.84017416799907 96.81508265528828,68.85616608895361 97.47860710229725,70.87215593468864 99.2037706640549,73.60813883529045 100.53081955714151,76.34411791386083 101.9905733410269,77.92810405453201 102.38868800830096,79.36809034342878 103.31762223411351,80.52007861202583 105.30819557467476,83.97603935352527 106.76794935716316,85.5600193219725 107.16606402536854,87.0" stroke="#4dd2ff" stroke-linecap="round" stroke-linejoin="round" stroke-width="0.5"><title>2023-09-24 1.0km</title><desc>9907510217</desc></polyline><polyline fill="none" points="162.01312428433448,33.0 160.88577468506992,34.74759202566929 160.08052497170866,36.4951827658806 159.5973751442507,38.76704880781472 159.43632520083338,41.73794727749191 156.69847617391497,45.40787555463612 155.08797674719244,49.602072360692546 153.6385272629559,51.69916798803024 152.67222760617733,54.4952926132828 152.51117766276002,57.466171423206106 155.8932264605537,66.0292719216086 157.18162600230426,68.65062304981984 161.3689245134592,75.29136630217545 163.14047388359904,79.66026621847413 165.39517308212817,82.45635795011185 166.68357262387872,84.72818006086163 167.4888223381713,87.0" stroke="#4dd2ff" stroke-linecap="round" stroke-linejoin="round" stroke-width="0.5"><title>2023-09-23 1.0km</title><desc>9901004991</desc></polyline><polyline fill="none" points="42.073519157245755,93.0 40.99836107622832,95.00002294080332 39.923202995210886,98.50005884026177 37.46569881029427,103.66676862398162 35.008194625377655,107.16679114091676 32.857878463342786,113.00014999287669 32.70428445097059,116.16682422568556 33.01147247571498,118.00015991809778 36.08335270639509,125.33348785818089 36.54413474071771,127.50014839123469 37.1585107864812,128.66681089741178 39.30882694851607,131.33346580003854 40.99836107622832,134.6667800161522 42.3807071801275,138.1667546685785 44.684617353603244,141.50005883711856 47.29571554996073,147.0" stroke="#4dd2ff" stroke-linecap="round" stroke-linejoin="round" stroke-width="0.5"><title>2023-09-22 1.0km</title><desc>9895405405</desc></polyline><polyline fill="none" points="102.86255436763167,93.0 102.42216138821095,94.59293962083757 101.54137542936951,95.54870283126365 99.6330058509484,99.05316432798281 98.89901755191386,101.60186003765557 96.69705265387893,107.17712144902907 94.34829009603709,111.95590552466456 92.8803134970367,115.46034048101865 92.43992051761597,117.21255583292805 92.43992051761597,118.32760122837499 92.8803134970367,119.92052222613711 93.76109945680946,121.51344205299392 95.66946903523058,126.45148607261945 97.57783861272037,129.95589758083224 98.60542223136872,132.50455693574622 100.51379180978984,135.6903769132914 101.6881730882451,137.12399437499698 102.56895904801786,139.67264529759996 104.9177216058597,143.81419665238354 107.56007948238403,147.0" stroke="#4dd2ff" stroke-linecap="round" stroke-linejoin="round" stroke-width="0.5"><title>2023-09-21 1.0km</title><desc>9889267953</desc></polyline><polyline fill="none" points="165.49787143664435,93.0 163.57078247936442,98.78140450408682 162.4372007404454,103.33270888705738 160.6234699562192,107.14595437725075 158.46966465143487,113.54234664782416 154.7288449103944,120.55374854023103 153.70862134499475,124.36695477657486 153.82197951851413,125.22800014319364 154.50212856242433,127.07309586496558 155.97578482422978,130.27125696255825 156.88265021611005,132.97738850058522 159.14981369534507,136.17553831113037 160.51011178316548,138.75865484925453 161.3036190001294,140.6037356487941 162.21048439154401,142.2028040291043 163.68414065381512,143.30985047400463 165.49787143664435,146.0159609223483 165.61122961109504,146.50798053340986 166.29137865500525,147.0" stroke="#4dd2ff" stroke-linecap="round" stroke-linejoin="round" stroke-width="0.5"><title>2023-09-20 1.0km</title><desc>9882714971</desc></polyline><polyline fill="none" points="44.477509080432355,153.0 43.32614960288629,155.91520653560292 41.15135947801173,162.30088131153025 41.023430646862835,164.38316189462785 40.25585766136646,165.4937105999561 39.36035584565252,167.57598766149022 38.84864052152261,169.51944418030325 37.82520987465978,172.1569891127292 34.882846764754504,176.876797163859 34.11527377925813,179.6531493292423 33.85941611789167,182.15186278743204 34.11527377925813,184.6505729383789 34.882846764754504,187.42691367224324 35.778348580002785,189.3703497570241 38.59278285969049,194.22893121652305 40.0,196.17236029927153 41.2792883082293,199.6427644008072 42.55857661738992,201.86381967796478 43.837864925619215,203.66842516697943 45.245082065463066,205.0565820618067 46.14058388210833,207.0" stroke="#4dd2ff" stroke-linecap="round" stroke-linejoin="round" stroke-width="0.5"><title>2023-09-19 1.0km</title><desc>9876194288</desc></polyline><polyline fill="none" points="99.60251986607909,153.0 98.64856754336506,154.55273300828412 97.05864700768143,157.65819594240747 96.58167084585875,159.72850228124298 93.7198138795793,164.731735059293 91.4939251281321,169.38990771071985 91.01694896724075,171.1151544940658 91.17594102118164,173.01292449003085 92.12989334389567,175.42826590244658 93.56082182656974,178.01612894213758 94.83275825623423,181.63913240260445 96.58167084585875,185.43465383769944 98.48957549035549,188.8851225420367 100.23848808091134,191.12792447931133 102.30538477841765,194.57838481198996 103.57732120715082,198.54640792217106 105.80320995952934,201.99685734673403 106.91615433525294,205.10225749085657 108.98305103275925,207.0" stroke="#4dd2ff" stroke-linecap="round" stroke-linejoin="round" stroke-width="0.5"><title>2023-09-18 1.0km</title><desc>9870505463</desc></polyline><polyline fill="none" points="160.5426032030955,153.0 159.7674557697028,154.51403605786618 158.68224936258048,159.56081568065565 157.28698398265988,161.91597569501027 156.66686603520066,163.7664568623295 153.25621732790023,169.31789138482418 152.0159814339131,172.34594090166502 151.2408340005204,175.03753710712772 151.8609519470483,176.8880076620262 155.27160065434873,184.28987491468433 156.97692500893027,186.98145706986543 158.21716090198606,189.84125964005943 160.23254422936589,192.53283526469022 161.31775063741952,194.3832916696556 162.71301601734012,198.75709176936653 168.75916599854827,207.0" stroke="#4dd2ff" stroke-linecap="round" stroke-linejoin="round" stroke-width="0.5"><title>2023-09-16 1.0km</title><desc>9856514700</desc></polyline><polyline fill="none" points="39.25353217124939,213.0 37.59471477288753,218.0400503978599 35.43825215566903,221.46007868717425 30.959445180371404,230.10012887162156 30.793563439510763,232.0801360779442 30.959445180371404,234.42014252929948 31.95473561901599,236.7601467440836 33.61355301737785,239.28014878183603 35.1064886758104,242.70014739828184 37.760596512816846,247.20013829879463 41.07823131047189,253.5001116641797 41.40999478939921,255.84009764227085 42.57116696797311,256.74009165377356 43.89822088740766,258.5400786837563 46.054683504626155,262.14004877442494 48.37702786177397,264.1200300678611 48.87467308156192,265.3800173299387 49.20643656142056,267.0" stroke="#4dd2ff" stroke-linecap="round" stroke-linejoin="round" stroke-width="0.5"><title>2023-09-15 1.0km</title><desc>9850671982</desc></polyline><polyline fill="none" points="101.37281268276274,213.0 98.62718731723726,220.2621359769255 95.53835878055543,224.73113238089718 94.16554609872401,227.15183547371998 92.1063270745799,232.36564966104925 91.59152231831104,234.22772355517372 91.59152231831104,235.71738168387674 92.1063270745799,237.57945311372168 94.16554609872401,243.16565918829292 96.05316353682429,246.88978972565383 100.6864063423127,254.89665183750913 102.57402378041297,258.4345595908817 102.917226950638,260.4828197155148 104.29003963340074,261.7862571137957 106.52086024358869,265.324155242648 108.40847768168896,267.0" stroke="#4dd2ff" stroke-linecap="round" stroke-linejoin="round" stroke-width="0.5"><title>2023-09-14 1.0km</title><desc>9844236351</desc></polyline><polyline fill="none" points="151.41774025605991,213.0 152.40562626952305,213.80398195714224 152.77608352480456,214.607963559567 153.02305502817035,216.34992248099297 153.7639695382677,217.82388642209116 154.25791254546493,221.9777783867903 154.25791254546493,223.9877227123361 154.0109410416335,225.05969211284537 154.25791254546493,226.3996529771248 154.87534130364656,228.00760471366812 154.62836980074644,229.34756341029424 154.7518555521965,230.01754238898866 155.9867130694911,232.2954690749757 157.09808483486995,235.6453560879454 158.0859708483331,237.52129012567457 159.32082836562768,239.26322714588605 160.67917163437232,240.4691825689515 161.04962888918817,241.27315240784083 161.42008614446968,243.01508584222756 162.40797215839848,244.75701761152595 163.51934392377734,247.97288727317937 165.00117294397205,250.7867685726378 165.7420874540694,253.19866337138228 166.1125447093509,255.208573265234 166.85345921991393,256.81649958493654 168.21180248865858,261.2382896487834 170.06408876460046,264.72211668931413 170.18757451651618,265.2580894890707 170.06408876460046,265.6600689855404 168.58225974394009,267.0 169.32317425403744,266.46402771235444 169.69363150931895,265.6600689855404 169.94060301221907,264.99010310904123 169.81711726123467,264.05215046799276 169.07620275113732,263.11419734405354 166.85345921991393,258.2904307979625 165.7420874540694,254.6725975102745 163.39585817186162,249.446825638297 162.28448640648276,244.35503350489307 161.66705764830112,242.88109102193266 159.32082836562768,239.79920743242837 156.97459908295423,235.37736535340082 155.8632273171097,231.75948658154812 155.49277006322518,229.34756341029424 154.50488404836506,226.80164104432333 152.52911202143878,222.51376375707332 152.03516901424155,220.50381780567113 150.3063684902154,217.287899672403 149.93591123539954,215.545941647375 149.81242548348382,213.40199102298357" stroke="#4dd2ff" stroke-linecap="round" stroke-linejoin="round" stroke-width="0.5"><title>2023-09-13 1.0km</title><desc>9837636972</desc></polyline></svg>