<svg xmlns="http://www.w3.org/2000/svg" xmlns:ev="http://www.w3.org/2001/xml-events" xmlns:xlink="http://www.w3.org/1999/xlink" width="200mm" height="300mm" baseProfile="full" version="1.1" viewBox="0 0 200 300"><rect width="200" height="300" x="0" y="0" fill="#222"/><text fill="#FFF" style="font-size:12px;font-family:Arial;font-weight:700" x="10" y="20">Over 1km Runs</text><text fill="#FFF" style="font-size:4px;font-family:Arial" x="10" y="280">ATHLETE</text><text fill="#FFF" style="font-size:9px;font-family:Arial" x="10" y="290">Jiakai</text><text fill="#FFF" style="font-size:4px;font-family:Arial" x="120" y="280">STATISTICS</text><text fill="#FFF" style="font-size:3px;font-family:Arial" x="120" y="285">Number: 19</text><text fill="#FFF" style="font-size:3px;font-family:Arial" x="120" y="290">Weekly: 4.8</text><text fill="#FFF" style="font-size:3px;font-family:Arial" x="141" y="285">Total: 19.3 km</text><text fill="#FFF" style="font-size:3px;font-family:Arial" x="141" y="290">Avg: 1.0 km</text><text fill="#FFF" style="font-size:3px;font-family:Arial" x="167" y="285">Min: 1.0 km</text><text fill="#FFF" style="font-size:3px;font-family:Arial" x="167" y="290">Max: 1.0 km</text><polyline fill="none" stroke="#4dd2ff" stroke-linecap="round" stroke-linejoin="round" stroke-width=".5" points="26.37 36.98 27.732 41.71 29.095 44.962 30.184 49.987 35.361 60.334 35.633 63.881 37.268 70.976 37.813 71.863 39.447 72.75 39.447 69.794 35.905 63.29 33.454 57.673 32.091 55.013 30.729 51.17 28.005 45.553 26.915 41.119 26.37 36.684 25.553 32.25"><title>2023-10-03 1.0km</title><desc>9965060084</desc></polyline><polyline fill="none" stroke="#4dd2ff" stroke-linecap="round" stroke-linejoin="round" stroke-width=".5" points="70.097 33.924 73.798 45.973 74.415 51.329 76.575 54.006 78.117 58.023 80.893 68.399 83.052 71.746 84.595 72.75 84.903 72.415 83.978 69.738 80.585 63.378 75.032 49.99 71.639 39.948 71.022 32.25"><title>2023-10-02 1.0km</title><desc>9958643020</desc></polyline><polyline fill="none" stroke="#4dd2ff" stroke-linecap="round" stroke-linejoin="round" stroke-width=".5" points="116.08 39.378 116.677 42.294 123.246 57.846 126.531 67.89 128.323 71.454 130.114 72.75 130.413 72.426 130.114 71.13 124.142 62.058 118.469 48.126 115.782 39.702 114.587 32.25"><title>2023-10-01 1.0km</title><desc>9952075403</desc></polyline><polyline fill="none" stroke="#4dd2ff" stroke-linecap="round" stroke-linejoin="round" stroke-width=".5" points="161.685 38.12 164.119 43.109 165.201 48.098 166.012 52.794 170.069 64.239 173.585 71.576 175.208 72.75 175.749 71.87 170.34 63.652 167.906 58.076 167.094 55.141 163.308 46.924 161.144 37.826 159.251 32.25"><title>2023-09-30 1.0km</title><desc>9945549317</desc></polyline><polyline fill="none" stroke="#4dd2ff" stroke-linecap="round" stroke-linejoin="round" stroke-width=".5" points="26.23 81 28.917 85.536 29.813 89.1 32.201 94.932 33.396 103.68 34.292 106.272 37.875 115.02 38.77 120.528 39.368 121.176 40.263 121.5 40.562 120.852 35.187 111.132 31.604 102.708 30.41 97.848 26.23 88.128 24.438 82.296"><title>2023-09-28 1.0km</title><desc>9933629332</desc></polyline><polyline fill="none" stroke="#4dd2ff" stroke-linecap="round" stroke-linejoin="round" stroke-width=".5" points="69.583 85.602 71.845 93.58 76.086 99.409 78.914 109.841 82.872 116.898 84.003 120.886 85.134 121.5 85.7 120.58 85.134 119.352 82.872 116.284 76.369 103.091 72.976 93.886 69.3 81"><title>2023-09-27 1.0km</title><desc>9927137811</desc></polyline><polyline fill="none" stroke="#4dd2ff" stroke-linecap="round" stroke-linejoin="round" stroke-width=".5" points="125.864 81 125.057 84.894 124.25 87.133 123.621 89.859 119.943 97.551 118.059 100.763 117.7 102.126 117.879 103.197 118.328 104.755 119.674 108.065 120.122 108.941 120.661 110.499 122.455 112.738 123.263 114.49 124.16 115.853 124.878 117.801 125.954 119.261 127.3 121.5"><title>2023-09-26 1.0km</title><desc>9920397094</desc></polyline><polyline fill="none" stroke="#4dd2ff" stroke-linecap="round" stroke-linejoin="round" stroke-width=".5" points="167.311 81 165.546 86.884 163.78 90.03 162.141 92.083 161.258 93.725 160.88 95.367 161.006 97.419 161.637 99.061 163.15 101.387 163.78 103.713 165.041 106.723 167.437 109.733 171.472 117.943 174.12 121.5"><title>2023-09-25 1.0km</title><desc>9914573673</desc></polyline><polyline fill="none" stroke="#4dd2ff" stroke-linecap="round" stroke-linejoin="round" stroke-width=".5" points="35.486 129.75 34.491 131.262 34.292 132.018 34.491 132.99 34.59 133.962 32.6 137.634 32.102 140.118 31.405 141.954 27.225 149.298 27.125 150.162 27.524 151.89 28.618 153.618 29.216 155.13 30.111 156.642 30.609 158.154 31.903 160.206 32.898 162.258 33.993 163.446 34.292 164.526 34.988 165.39 36.481 167.982 37.576 169.17 37.875 170.25"><title>2023-09-24 1.0km</title><desc>9907510217</desc></polyline><polyline fill="none" stroke="#4dd2ff" stroke-linecap="round" stroke-linejoin="round" stroke-width=".5" points="79.01 129.75 78.164 131.061 77.56 132.371 77.198 134.075 77.077 136.303 75.024 139.056 73.816 142.202 72.729 143.774 72.004 145.871 71.883 148.1 74.42 154.522 75.386 156.488 78.527 161.469 79.855 164.745 81.546 166.842 82.513 168.546 83.117 170.25"><title>2023-09-23 1.0km</title><desc>9901004991</desc></polyline><polyline fill="none" stroke="#4dd2ff" stroke-linecap="round" stroke-linejoin="round" stroke-width=".5" points="124.055 129.75 123.249 131.25 122.442 133.875 120.599 137.75 118.756 140.375 117.143 144.75 117.028 147.125 117.259 148.5 119.563 154 119.908 155.625 120.369 156.5 121.982 158.5 123.249 161 124.286 163.625 126.013 166.125 127.972 170.25"><title>2023-09-22 1.0km</title><desc>9895405405</desc></polyline><polyline fill="none" stroke="#4dd2ff" stroke-linecap="round" stroke-linejoin="round" stroke-width=".5" points="169.647 129.75 169.317 130.945 168.656 131.662 167.225 134.29 166.674 136.201 165.023 140.383 163.261 143.967 162.16 146.595 161.83 147.909 161.83 148.746 162.16 149.94 162.821 151.135 164.252 154.839 165.683 157.467 166.454 159.378 167.885 161.768 168.766 162.843 169.427 164.754 171.188 167.861 173.17 170.25"><title>2023-09-21 1.0km</title><desc>9889267953</desc></polyline><polyline fill="none" stroke="#4dd2ff" stroke-linecap="round" stroke-linejoin="round" stroke-width=".5" points="36.623 178.5 35.178 182.836 34.328 186.25 32.968 189.109 31.352 193.907 28.547 199.165 27.781 202.025 27.866 202.671 28.377 204.055 29.482 206.453 30.162 208.483 31.862 210.882 32.883 212.819 33.478 214.203 34.158 215.402 35.263 216.232 36.623 218.262 36.708 218.631 37.219 219"><title>2023-09-20 1.0km</title><desc>9882714971</desc></polyline><polyline fill="none" stroke="#4dd2ff" stroke-linecap="round" stroke-linejoin="round" stroke-width=".5" points="80.858 178.5 79.995 180.686 78.364 185.476 78.268 187.037 77.692 187.87 77.02 189.432 76.636 190.89 75.869 192.868 73.662 196.408 73.086 198.49 72.895 200.364 73.086 202.238 73.662 204.32 74.334 205.778 76.445 209.422 77.5 210.879 78.459 213.482 79.419 215.148 80.378 216.501 81.434 217.542 82.105 219"><title>2023-09-19 1.0km</title><desc>9876194288</desc></polyline><polyline fill="none" stroke="#4dd2ff" stroke-linecap="round" stroke-linejoin="round" stroke-width=".5" points="122.202 178.5 121.486 179.665 120.294 181.994 119.936 183.546 117.79 187.299 116.12 190.792 115.763 192.086 115.882 193.51 116.597 195.321 117.671 197.262 118.625 199.979 119.936 202.826 121.367 205.414 122.679 207.096 124.229 209.684 125.183 212.66 126.852 215.248 127.687 217.577 129.237 219"><title>2023-09-18 1.0km</title><desc>9870505463</desc></polyline><polyline fill="none" stroke="#4dd2ff" stroke-linecap="round" stroke-linejoin="round" stroke-width=".5" points="167.907 178.5 167.326 179.636 166.512 183.421 165.465 185.187 165 186.575 162.442 190.738 161.512 193.009 160.931 195.028 161.396 196.416 163.954 201.967 165.233 203.986 166.163 206.131 167.674 208.15 168.488 209.537 169.535 212.818 174.069 219"><title>2023-09-16 1.0km</title><desc>9856514700</desc></polyline><polyline fill="none" stroke="#4dd2ff" stroke-linecap="round" stroke-linejoin="round" stroke-width=".5" points="31.94 227.25 30.696 231.03 29.079 233.595 25.72 240.075 25.595 241.56 25.72 243.315 26.466 245.07 27.71 246.96 28.83 249.525 30.82 252.9 33.309 257.625 33.557 259.38 34.428 260.055 35.424 261.405 37.041 264.105 38.783 265.59 39.156 266.535 39.405 267.75"><title>2023-09-15 1.0km</title><desc>9850671982</desc></polyline><polyline fill="none" stroke="#4dd2ff" stroke-linecap="round" stroke-linejoin="round" stroke-width=".5" points="78.53 227.25 76.47 232.697 74.154 236.048 73.124 237.864 71.58 241.774 71.194 243.171 71.194 244.288 71.58 245.685 73.124 249.874 74.54 252.667 78.015 258.672 79.431 261.326 79.688 262.862 80.718 263.84 82.391 266.493 83.806 267.75"><title>2023-09-14 1.0km</title><desc>9844236351</desc></polyline><polyline fill="none" stroke="#4dd2ff" stroke-linecap="round" stroke-linejoin="round" stroke-width=".5" points="116.063 227.25 116.804 227.853 117.082 228.456 117.267 229.762 117.823 230.868 118.193 233.983 118.193 235.491 118.008 236.295 118.193 237.3 118.657 238.506 118.471 239.511 118.564 240.013 119.49 241.722 120.324 244.234 121.064 245.641 121.991 246.947 123.009 247.852 123.287 248.455 123.565 249.761 124.306 251.068 125.14 253.48 126.251 255.59 126.807 257.399 127.084 258.906 127.64 260.112 128.659 263.429 130.048 266.042 130.141 266.444 130.048 266.745 128.937 267.75 129.492 267.348 129.77 266.745 129.955 266.243 129.863 265.539 129.307 264.836 127.64 261.218 126.807 258.504 125.047 254.585 124.213 250.766 123.75 249.661 121.991 247.349 120.231 244.033 119.397 241.32 119.12 239.511 118.379 237.601 116.897 234.385 116.526 232.878 115.23 230.466 114.952 229.159 114.859 227.551"><title>2023-09-13 1.0km</title><desc>9837636972</desc></polyline></svg>