<?xml version="1.0" encoding="utf-8" ?>
<svg baseProfile="full" height="300mm" version="1.1" viewBox="0,0,200,300" width="200mm" xmlns="http://www.w3.org/2000/svg" xmlns:ev="http://www.w3.org/2001/xml-events" xmlns:xlink="http://www.w3.org/1999/xlink"><defs /><rect fill="#222222" height="300" width="200" x="0" y="0" /><text fill="#FFFFFF" style="font-size:12px; font-family:Arial; font-weight:bold;" x="10" y="20">Over 1km Runs</text><text fill="#FFFFFF" style="font-size:4px; font-family:Arial" x="10" y="280">ATHLETE</text><text fill="#FFFFFF" style="font-size:9px; font-family:Arial" x="10" y="290">Jiakai</text><text fill="#FFFFFF" style="font-size:4px; font-family:Arial" x="120" y="280">STATISTICS</text><text fill="#FFFFFF" style="font-size:3px; font-family:Arial" x="120" y="285">Number: 65</text><text fill="#FFFFFF" style="font-size:3px; font-family:Arial" x="120" y="290">Weekly: 5.9</text><text fill="#FFFFFF" style="font-size:3px; font-family:Arial" x="141" y="285">Total: 67.4 km</text><text fill="#FFFFFF" style="font-size:3px; font-family:Arial" x="141" y="290">Avg: 1.0 km</text><text fill="#FFFFFF" style="font-size:3px; font-family:Arial" x="167" y="285">Min: 1.0 km</text><text fill="#FFFFFF" style="font-size:3px; font-family:Arial" x="167" y="290">Max: 1.5 km</text><polyline fill="none" points="17.814141076989472,31.401869946159422 18.93037012219429,36.44861375866458 24.139439004473388,50.57944708853029 25.44170622434467,52.59813162800856 25.99982074741274,52.800000000046566 26.185858923010528,52.19439483853057 24.32547717820853,49.771972857415676 22.09301908686757,43.11030138889328 20.6047136913985,40.082263560267165 19.674522820860147,34.22804762376472 18.558293774724007,31.199999999953434" stroke="#4dd2ff" stroke-linecap="round" stroke-linejoin="round" stroke-width="0.5"><title>2023-11-24 1.0km</title><desc>10271180196</desc></polyline><polyline fill="none" points="45.31426128279418,33.60000988165848 45.78821517433971,34.971442989772186 46.894107586704195,40.800024702679366 49.57984630484134,49.02858584676869 50.84372334834188,52.457144420361146 51.317677238956094,52.800000000046566 51.949615760706365,52.800000000046566 52.107600391842425,52.457144420361146 51.79163113050163,50.74286576360464 50.053800196386874,45.771450532600284 45.472245912998915,35.828588273143396 43.8923996090889,31.200000000186265" stroke="#4dd2ff" stroke-linecap="round" stroke-linejoin="round" stroke-width="0.5"><title>2023-11-23 1.0km</title><desc>10265414399</desc></polyline><polyline fill="none" points="72.10752255516127,36.06762531620916 72.24770607007667,38.197207790915854 72.80844012741,41.54369010857772 75.0513763576746,47.93241404858418 75.75229392945766,50.97465661051683 76.87376204458997,52.800000000046566 77.71486313082278,52.800000000046566 77.5746796168387,51.887328506447375 76.0326609578915,47.93241404858418 74.77100932877511,45.95495398482308 72.94862364185974,40.326788074104115 70.84587092557922,34.54649363504723 70.28513686871156,31.20000000006985" stroke="#4dd2ff" stroke-linecap="round" stroke-linejoin="round" stroke-width="0.5"><title>2023-11-21 1.0km</title><desc>10253878272</desc></polyline><polyline fill="none" points="97.67520384350792,37.03359808633104 98.40170264197513,41.76353083085269 101.45299759786576,49.489065213128924 102.76069543603808,52.32700962922536 103.19659471558407,52.800000000046566 103.48719423543662,52.642336554825306 103.63249399513006,52.32700962922536 103.05129495589063,49.804392555728555 100.43589927954599,44.12849329179153 99.41880096122622,41.13287373445928 97.82050360320136,34.983957323478535 96.94870504410937,33.40730924997479 96.36750600486994,31.20000000006985" stroke="#4dd2ff" stroke-linecap="round" stroke-linejoin="round" stroke-width="0.5"><title>2023-11-20 1.0km</title><desc>10248671423</desc></polyline><polyline fill="none" points="122.1545084938407,33.00000800623093 124.26575873233378,37.58183999871835 124.86897308658808,42.32729890511837 126.52781255915761,46.090931533137336 128.18665203265846,50.83637229795568 128.9406699752435,51.98182200116571 129.8454915061593,52.800000000046566 129.69468791782856,51.49091505771503 127.13102691341192,44.78184264502488 125.47218744084239,38.727296523051336 123.81334796734154,34.80001455673482 122.90852643642575,31.20000000006985" stroke="#4dd2ff" stroke-linecap="round" stroke-linejoin="round" stroke-width="0.5"><title>2023-11-19 1.0km</title><desc>10242265034</desc></polyline><polyline fill="none" points="147.80197449494153,50.44551390595734 148.74535101279616,47.47680837207008 149.12270162068307,46.760223329183646 149.78306518262252,46.3507459963439 152.99054534407333,45.94126854289789 155.34898663917556,45.42942155664787 156.1036878535524,44.815204924787395 156.57537611294538,44.200988022144884 157.14140202384442,41.641748010064475 156.95272671990097,40.82279021234717 157.33007732685655,40.20857154822443 157.04706437140703,35.49955278390553 156.8583890683949,34.885331770870835 156.7640514159575,33.042667104979046 156.57537611294538,31.916593053145334 155.53766194311902,31.609481789870188 154.68862307677045,32.22370424831752 154.87729838024825,31.916593053145334 155.06597368372604,32.22370424831752 153.8395842104219,31.609481789870188 153.74524655891582,31.20000000006985 153.46223360300064,31.404740909929387 153.6509089069441,31.302370458841324 152.99054534407333,32.121333857416175 153.08488299604505,32.01896345906425 155.06597368372604,33.042667104979046 154.59428542479873,33.45214835263323 153.8395842104219,33.75925920938607 152.0471688262187,34.06636999826878 151.95283117424697,33.65688893117476 152.42451943317428,33.45214835263323 153.08488299604505,33.55451864562929 155.06597368372604,31.609481789870188 157.80176558578387,31.711852218490094 157.5187526308,31.50711135356687 157.14140202384442,31.404740909929387 156.8583890683949,36.318513713311404 156.95272671990097,37.751694180537015 157.23573967488483,39.49198276386596 157.42441497929394,42.460705325822346 157.42441497929394,43.48440129298251 157.14140202384442,44.508096507168375 156.57537611294538,45.1223132746527 151.8584935227409,45.634160373709165 149.68872753111646,46.043637917609885 148.55667570978403,46.86259264359251 147.2359485840425,48.705239015980624 146.48124736966565,51.36683502572123 146.19823441421613,52.800000000046566" stroke="#4dd2ff" stroke-linecap="round" stroke-linejoin="round" stroke-width="0.5"><title>2023-11-18 1.0km</title><desc>10236386505</desc></polyline><polyline fill="none" points="173.59222913486883,31.20000000006985 176.72032458754256,36.60002084262669 177.85781384306028,40.61145590234082 178.28437231387943,42.925741871469654 179.13748925551772,44.31431222811807 181.83902623690665,52.18286022823304 182.40777086513117,52.800000000046566 182.40777086513117,52.18286022823304 181.83902623690665,51.41143525834195 180.27497851056978,46.78287948272191 179.4218615689315,45.24002528889105 179.13748925551772,42.61717055668123 177.85781384306028,39.3771690079011 176.43595227366313,36.29144859779626 176.29376611672342,34.594300437602215" stroke="#4dd2ff" stroke-linecap="round" stroke-linejoin="round" stroke-width="0.5"><title>2023-11-17 1.0km</title><desc>10231268371</desc></polyline><polyline fill="none" points="18.147211546078324,55.89677726756781 20.234138624742627,58.85807836661115 20.715737181715667,62.86453866888769 22.160532851703465,66.00002461415716 24.407992783002555,74.36130018369295 25.852788452990353,76.80000000004657 25.692255600355566,75.40645755524747 24.568525635637343,73.14194933418185 23.76586137432605,70.87743894872256 22.481598556041718,65.4774439111352 19.913072920404375,60.077436567051336 19.110408659093082,57.638719538459554 18.628810102120042,55.199999999953434" stroke="#4dd2ff" stroke-linecap="round" stroke-linejoin="round" stroke-width="0.5"><title>2023-11-16 1.0km</title><desc>10225818993</desc></polyline><polyline fill="none" points="44.254233033396304,55.432258849730715 45.32445216644555,59.612915229285136 47.036802779883146,64.25808249553666 49.39128487277776,68.67098507285118 50.247460179030895,72.15485117421485 51.74576696474105,75.17419868800789 53.24407375138253,76.80000000004657 49.39128487277776,69.60001640883274 47.67893426027149,64.25808249553666 42.75592624768615,55.199999999953434" stroke="#4dd2ff" stroke-linecap="round" stroke-linejoin="round" stroke-width="0.5"><title>2023-11-15 1.0km</title><desc>10219684298</desc></polyline><polyline fill="none" points="70.18342350795865,57.79850741662085 72.12912917137146,60.23460534319747 72.42846850398928,63.32032552699093 74.67351350001991,68.67972402321175 76.02054049633443,73.22708224784583 77.3675674945116,76.6375947734341 77.96624615974724,76.80000000004657 77.81657649297267,74.85113648837432 75.87087083049119,72.25264913064893 75.12252249848098,69.97897018573713 73.92516516707838,68.51731819927227 73.47615616861731,66.73085334745701 71.23111117258668,62.183481750427745 70.48276284057647,58.93535344977863 70.03375384118408,55.20000000006985" stroke="#4dd2ff" stroke-linecap="round" stroke-linejoin="round" stroke-width="0.5"><title>2023-11-14 1.0km</title><desc>10213806154</desc></polyline><polyline fill="none" points="97.1150622102432,58.17392605240457 98.26903732679784,62.5565463474486 101.44246889511123,70.6956743884366 102.16370334243402,73.35653642215766 103.60617223801091,76.33043711271603 104.03891290677711,76.80000000004657 103.17343156971037,75.23478997324128 101.15397511608899,70.38263157790061 101.0097282268107,69.13045987405349 99.56725933169946,65.68698389187921 97.40355598926544,61.773936242214404 96.5380746521987,59.11305973213166 95.96108709368855,55.20000000006985" stroke="#4dd2ff" stroke-linecap="round" stroke-linejoin="round" stroke-width="0.5"><title>2023-11-13 1.0km</title><desc>10208522228</desc></polyline><polyline fill="none" points="123.58714276179671,57.654556011315435 125.09517853613943,62.23638665652834 126.9048214647919,66.00002620217856 127.96044650673866,70.41820363525767 129.0160715477541,73.52728620090056 130.37330374494195,76.47272883669939 130.97651805356145,76.80000000004657 131.27812520880252,76.14545762503985 129.61928585730493,72.87274286395404 128.71446439344436,69.2727510688128 125.39678569044918,66.16366255970206 123.58714276179671,63.545479394029826 123.28553560655564,60.7636564061977 120.72187479119748,55.20000000006985" stroke="#4dd2ff" stroke-linecap="round" stroke-linejoin="round" stroke-width="0.5"><title>2023-11-12 1.0km</title><desc>10202270880</desc></polyline><polyline fill="none" points="148.7318393709138,59.22986689361278 152.29710551165044,67.2895784585271 153.48552755825222,71.31942313129548 154.6739496057853,74.54329353687353 155.41671338491142,75.99403367296327 156.15947716403753,76.80000000004657 156.30802992079407,76.1552269620588 154.97105511743575,72.12539117690176 152.44565826747566,68.25674185552634 149.77170866169035,62.13136646989733 148.7318393709138,57.77911566500552 147.69197007920593,55.199999999953434" stroke="#4dd2ff" stroke-linecap="round" stroke-linejoin="round" stroke-width="0.5"><title>2023-11-11 1.0km</title><desc>10196068378</desc></polyline><polyline fill="none" points="175.99192998278886,58.421064116759226 178.43653696030378,65.81054893764667 180.70652915351093,71.87370014633052 181.75421785749495,75.85263537522405 182.45267699379474,76.80000000004657 182.8019065624103,76.42105419188738 182.27806221041828,74.14737817179412 179.6588404495269,68.27370583638549 177.0396186877042,62.7789679847192 173.54732300620526,57.28421841817908 173.1980934375897,55.200000000186265" stroke="#4dd2ff" stroke-linecap="round" stroke-linejoin="round" stroke-width="0.5"><title>2023-11-10 1.0km</title><desc>10191120477</desc></polyline><polyline fill="none" points="16.985494918189943,79.85954506357666 19.568724810145795,81.83817909145728 21.08827180415392,84.47635507921223 21.544135903008282,85.465670274687 21.544135903008282,86.94964224973228 23.21563759725541,92.06109375844244 23.82345639448613,95.02902799856383 25.039093990810215,98.32672810310032 25.343003389425576,99.97557633731049 26.1027768868953,100.80000000004657 26.55864098481834,100.63511529180687 27.01450508274138,99.97557633731049 25.343003389425576,98.82138270081487 22.607818799093366,94.86414286575746 19.416770110838115,86.12521349603776 18.656996613368392,81.17863460932858 17.89722311589867,79.20000000006985" stroke="#4dd2ff" stroke-linecap="round" stroke-linejoin="round" stroke-width="0.5"><title>2023-11-09 1.0km</title><desc>10185506531</desc></polyline><polyline fill="none" points="43.78631037380546,80.9343146024039 45.384606439154595,84.08761028537992 45.96580500761047,85.66425638832152 47.85470035811886,89.76353083131835 48.581198568921536,92.6014854706591 48.4358989270404,90.86718030378688 48.726498211734,91.97082920849789 49.30769678018987,96.22775537776761 50.615393561311066,100.16934614919592 51.196592130698264,100.80000000004657 51.9230903419666,100.48467309738044 52.21368962619454,100.0116826571757 50.615393561311066,98.5927107098978 49.45299642300233,96.70074665301945 48.726498211734,94.65111704124138 47.7094007153064,91.18250862043351 46.25640429276973,89.13287373469211 44.6581082274206,85.66425638832152 44.2222093003802,83.1416220671963 44.36750894226134,79.98832499329001 44.0769096580334,79.20000000006985" stroke="#4dd2ff" stroke-linecap="round" stroke-linejoin="round" stroke-width="0.5"><title>2023-11-08 1.0km</title><desc>10179505859</desc></polyline><polyline fill="none" points="73.02557692071423,91.13289520586841 77.89769231854007,100.80000000004657 78.17609891248867,100.64895183767658 77.48008242761716,98.98742131562904 76.22725275345147,96.87274416279979 75.39203297067434,94.75806483370252 73.72159340558574,92.9454808193259 73.16478021815419,91.88813940575346 72.74717032629997,88.26296471385285 72.46876373235136,87.20562089059968 70.79832416726276,84.33568491286132 69.82390108751133,79.19999999995343" stroke="#4dd2ff" stroke-linecap="round" stroke-linejoin="round" stroke-width="0.5"><title>2023-11-06 1.0km</title><desc>10167691585</desc></polyline><polyline fill="none" points="97.92346751550213,85.26045393233653 98.92593147419393,87.12520549283363 102.64936903119087,95.6719624272082 104.22466953657568,100.48921019840054 104.511087810155,100.80000000004657 104.79750608326867,100.80000000004657 104.79750608326867,100.33381528023165 103.65183298895136,97.84749503829516 102.64936903119087,96.4489386169007 102.50615989463404,95.6719624272082 101.64690507343039,94.73959062295035 99.2123497473076,90.54391241364647 96.34816701058298,83.24030455225147 95.20249391626567,79.20000000006985" stroke="#4dd2ff" stroke-linecap="round" stroke-linejoin="round" stroke-width="0.5"><title>2023-11-05 1.1km</title><desc>10161301187</desc></polyline><polyline fill="none" points="121.96108798496425,79.19999999995343 124.84602513816208,85.61741418659221 126.14424685761333,91.25220093794633 128.1637028651312,95.1652385185007 128.8849371536635,98.29566340509336 129.60617144219577,100.80000000004657 130.03891201503575,100.33043711283244 129.89466515695676,99.8608741221251 128.01945600751787,96.41740902571473 127.87520914943889,95.94784517178778 126.14424685761333,93.28698137763422 125.42301256908104,90.78263594501186 123.54780341964215,87.33915616502054 123.11506284633651,84.36523732787464 122.2495817001909,81.23479195870459" stroke="#4dd2ff" stroke-linecap="round" stroke-linejoin="round" stroke-width="0.5"><title>2023-11-04 1.0km</title><desc>10155501797</desc></polyline><polyline fill="none" points="157.795107210055,82.48102882597595 156.1573595199734,80.293676919071 155.14951478829607,79.61012892005965 153.1338253240101,79.20000000006985 151.2441164511256,79.3367096503498 148.598524028901,80.56709604803473 147.46469870535657,81.66077216272242 146.45685397321358,83.71141314262059 146.20489279041067,85.3519242979819 145.82695101574063,90.82028435869142 146.07891219854355,96.56204510864336 146.33087338181213,97.3822951966431 147.5906792972237,99.43291883275378 149.10244639543816,100.52658384700771 151.62205822579563,100.80000000004657 153.8897088728845,99.84304328868166 156.0313789290376,97.24558687384706 156.66128188651055,96.01521151571069 157.54314602725208,92.05066315515433 157.54314602725208,88.90636016707867 158.17304898425937,84.80508740677033 158.04706839332357,83.30128512752708 156.66128188651055,81.66077216272242 155.5274565629661,80.840515137068 152.88186414074153,79.61012892005965 151.4960776339285,79.61012892005965 148.47254343796521,80.56709604803473 147.0867569311522,81.79748163174372 146.20489279041067,83.43799447582569 145.9529316071421,84.53166890132707 146.20489279041067,89.04306910349987 145.9529316071421,91.09370193921495" stroke="#4dd2ff" stroke-linecap="round" stroke-linejoin="round" stroke-width="0.5"><title>2023-11-03 1.0km</title><desc>10152446508</desc></polyline><polyline fill="none" points="173.52956787124276,79.19999999995343 174.7104367353022,81.76272166171111 175.72261004708707,86.33900378202088 177.4095655689016,89.63392170099542 179.93999884836376,96.2237444575876 180.4460855042562,97.32204655488022 181.2895632646978,100.25084977876395 181.79564992152154,100.80000000004657 182.47043212968856,100.80000000004657 182.47043212968856,100.43389986595139 181.2895632646978,99.88474956410937 180.78347660880536,98.60339838941582 179.6026077447459,97.50509685720317 178.7591299843043,95.12544187624007 177.57826111931354,93.29493649699725 176.22869670391083,90.54917590436526 174.7104367353022,84.87459441879764 173.69826342258602,82.49492736603133" stroke="#4dd2ff" stroke-linecap="round" stroke-linejoin="round" stroke-width="0.5"><title>2023-11-02 1.1km</title><desc>10144903556</desc></polyline><polyline fill="none" points="18.32170485937968,104.76522475562524 18.610198595561087,106.48697065818124 19.764173541683704,109.14784795034211 21.78362969774753,116.34785218513571 25.245554537512362,123.547832070617 26.255282614845783,124.80000000004657 25.678295142017305,122.92174782999791 23.514592117629945,119.63480254472233 22.36061717150733,115.40872257878073 20.91814848827198,113.37394034443423 19.187186068855226,109.61741418624297 17.74471738561988,103.20000000006985" stroke="#4dd2ff" stroke-linecap="round" stroke-linejoin="round" stroke-width="0.5"><title>2023-11-01 1.0km</title><desc>10138966680</desc></polyline><polyline fill="none" points="44.85693746805191,103.5248135945294 45.605285690166056,105.96091402857564 46.80264284554869,112.4571687191492 48.748348222114146,116.67972402344458 49.945705376565456,120.57746021717321 51.891410754062235,124.80000000004657 52.041080398485065,124.63759477273561 50.6940535986796,122.68873111752328 48.748348222114146,118.14137590187602 47.10198213439435,115.2180711774854 44.258258891291916,106.61054035718553 43.958919601514935,103.20000000006985" stroke="#4dd2ff" stroke-linecap="round" stroke-linejoin="round" stroke-width="0.5"><title>2023-10-31 1.0km</title><desc>10133123337</desc></polyline><polyline fill="none" points="70.60859697405249,105.76001119834837 71.34585850220174,109.60002234985586 71.34585850220174,111.04002478462644 72.96783386170864,113.76002678414807 77.39140302594751,123.20000735193025 78.12866455409676,124.64000078791287 78.42356916423887,124.80000000004657 75.03216613829136,118.08002297277562 73.55764308385551,113.92002679605503 71.93566772341728,110.56002407881897 69.57643083576113,103.20000000006985" stroke="#4dd2ff" stroke-linecap="round" stroke-linejoin="round" stroke-width="0.5"><title>2023-10-30 1.0km</title><desc>10127985445</desc></polyline><polyline fill="none" points="96.59501596633345,106.32633072906174 97.24982058815658,110.7316063559847 97.64270336134359,112.15266086801421 100.26192184910178,118.26318336534314 101.57153109228238,121.81580384413246 103.5359449586831,124.51579104084522 104.059788656421,124.80000000004657 104.19074958004057,124.37368654541206 103.0121012609452,122.52632715599611 101.30960924411193,118.83160308073275 98.29750798316672,113.28950372571126 97.11885966314003,109.16844518610742 96.20213319268078,107.32107126468327 96.07117226859555,104.47895409131888 95.80925041995943,103.20000000006985" stroke="#4dd2ff" stroke-linecap="round" stroke-linejoin="round" stroke-width="0.5"><title>2023-10-28 1.0km</title><desc>10115543824</desc></polyline><polyline fill="none" points="123.19840578362346,107.68001762102358 124.3780244011432,111.52002538449597 125.7050953451544,114.56002672552131 126.88471396267414,118.88002132612746 128.65414188895375,123.04000802256633 129.3914035242051,124.64000078849494 130.12866515945643,124.80000000004657 130.27611748687923,124.64000078849494 129.98121283296496,123.68000526994001 129.0964988693595,121.28001462155953 126.1474523274228,115.5200262669241 123.788215091452,109.1200213264674 122.313691820018,105.92001179850195 121.72388251218945,103.20000000006985" stroke="#4dd2ff" stroke-linecap="round" stroke-linejoin="round" stroke-width="0.5"><title>2023-10-27 1.0km</title><desc>10110442644</desc></polyline><polyline fill="none" points="149.07263622339815,106.53530821716413 151.85363181121647,115.90590850834269 152.87820913270116,118.76472762366757 153.90278645511717,120.51178188773338 155.07373196445405,123.84706337715033 155.51283653173596,124.48235450603534 156.39104566443712,124.80000000004657 156.53741385228932,124.32353174127638 156.39104566443712,123.68824056594167 154.92736377567053,121.7823659197893 152.73184094391763,117.97061158227734 150.09721354581416,110.18825892731547 148.34079527948052,107.32942846219521 147.46258614677936,103.20000000006985" stroke="#4dd2ff" stroke-linecap="round" stroke-linejoin="round" stroke-width="0.5"><title>2023-10-26 1.0km</title><desc>10104873905</desc></polyline><polyline fill="none" points="176.91814872715622,113.53046212380286 180.23582596611232,121.82609996548854 181.82254116702825,124.64347904920578 182.39952851226553,124.80000000004657 182.2552816765383,123.23478997312486 178.36061709094793,116.50437374645844 176.19691454432905,111.02611227263696 174.32170567009598,107.11305973259732 173.60047148773447,103.19999999995343" stroke="#4dd2ff" stroke-linecap="round" stroke-linejoin="round" stroke-width="0.5"><title>2023-10-25 1.0km</title><desc>10098978222</desc></polyline><polyline fill="none" points="18.004256311338395,127.20000000006985 17.85895654093474,128.30365490925033 18.730755164287984,131.92994561139494 19.893153328448534,134.2949145049788 20.6196521804668,137.1328737345757 21.927350115031004,140.9168135318905 24.68804575363174,146.27738348336425 25.559844376984984,148.48467309772968 25.85044391779229,148.80000000004657 26.14104345906526,148.64233655459248 25.995743688195944,146.5927107097814 24.397446213290095,143.59710018232 23.235048049595207,141.86279743816704 21.78205034416169,138.55185194103979 21.491450803354383,136.81754511699546 19.74785355757922,134.1372499933932 18.730755164287984,131.772280925652 18.440155623015016,128.9343146022875 18.004256311338395,127.20000000006985" stroke="#4dd2ff" stroke-linecap="round" stroke-linejoin="round" stroke-width="0.5"><title>2023-10-24 1.0km</title><desc>10092835699</desc></polyline><polyline fill="none" points="45.78025935776532,130.92951216874644 47.92839546268806,138.54391241353005 48.93085897853598,140.40865931252483 50.0765315676108,145.07051936292555 51.79504045145586,148.17842035088688 52.511085820384324,148.80000000004657 51.79504045145586,148.02302540978417 50.7925769360736,145.53670480242 48.21481360960752,142.4287999299122 47.64197731530294,141.34103214519564 47.06914102099836,137.7669340533903 45.350632136687636,134.34822587575763 44.204959547612816,130.77411595988087 43.488914179615676,127.20000000006985" stroke="#4dd2ff" stroke-linecap="round" stroke-linejoin="round" stroke-width="0.5"><title>2023-10-23 1.0km</title><desc>10087395010</desc></polyline><polyline fill="none" points="67.00669401115738,127.30359870288521 67.38858102750964,127.19999999995343 70.10952601977624,127.40719739045016 71.30292294616811,127.71799336187541 71.58933820854872,127.87339129624888 72.2099046104122,128.33958489343058 72.6395275038667,128.85757741745329 73.59424504474737,130.6187491499004 74.07160381553695,132.58711234654766 74.69217021740042,133.62309076730162 74.9785854795482,134.45187240705127 75.64688775828108,135.95403664413607 76.12424652907066,137.507996277418 76.84028468490578,138.7511615161202 77.17443582415581,139.11375096417032 77.60405871784315,139.8389293004875 77.84273810312152,141.39288036490325 77.98594573419541,141.80726673663594 78.36783275054768,142.37704759970075 78.46330450498499,143.2576171181281 78.60651213605888,143.620204246894 80.706890726462,148.5928089010995 80.99330598884262,148.79999999998836 80.99330598884262,148.54101111670025 80.56368309538811,148.12662870559143 80.08632432483137,146.9870758180623 79.60896555404179,146.00291502301116 78.32009687367827,142.01445983105805" stroke="#4dd2ff" stroke-linecap="round" stroke-linejoin="round" stroke-width="0.5"><title>2023-10-22 1.5km</title><desc>10080655811</desc></polyline><polyline fill="none" points="96.56446858961135,127.20000000001164 97.32230640063062,127.74823108949931 95.95819834037684,127.5289387020166 98.0801442116499,130.27008890907746 98.28223429480568,130.92796345928218 98.13066673255526,131.47619180753827 97.42335144220851,131.85995141166495 97.22126135905273,132.24371081811842 97.2717838799581,132.90158362674993 97.675964045804,134.49144051817711 98.13066673255526,135.64271408203058 98.63589193997905,137.39703228487633 99.54529731348157,138.98687959113158 99.69686487573199,139.58992423431482 100.25261260382831,140.57672350743087 100.60627024923451,141.0153005431057 100.65679276967421,141.2894110592897 101.01045041508041,141.61834354582243 101.2630630186759,142.16656403418165 101.6167206640821,143.2081818516017 101.97037830925547,143.92086688842392 101.91985578858294,145.3462349184556 102.57664855802432,146.6071351354476 102.7787386411801,147.21017361606937 103.13239628635347,147.86803322046762 103.73866653535515,148.63553535874235 104.04180165985599,148.79999999998836 102.87978368275799,147.1553519561421 102.62717107892968,146.27820484968834 102.12194587127306,145.18176951550413 101.91985578858294,144.46908568392973 101.2630630186759,143.53711349173682 100.70731529057957,141.94727588724345" stroke="#4dd2ff" stroke-linecap="round" stroke-linejoin="round" stroke-width="0.5"><title>2023-10-20 1.4km</title><desc>10069668027</desc></polyline><polyline fill="none" points="121.65362509805709,127.19999999995343 121.75649787695147,128.0372207518085 122.57948010670952,130.04654678847874 122.78522566426545,131.27446563716512 124.48262651334517,135.4047235508915 124.63693568157032,135.96286478859838 124.7398084604647,136.80007587582804 124.9455540177878,137.3582160877413 126.18002736265771,139.08844813657925 126.84870042465627,140.42797991767293 127.2601915395353,141.76750933506992 127.62024626531638,142.49308678269153 127.82599182263948,143.6093584248447 128.08317376975901,144.16749363043346 128.7518468312919,145.89771016000304 128.8547196101863,146.56747033866122 129.83201100840233,148.57674732932355 130.0891929550562,148.79999999998836 130.24350212328136,148.79999999998836 130.34637490171008,148.7441868383903 130.29493851261213,148.68837367277592 129.26621072529815,147.40466973098228 128.80328322085552,145.84189678513212 127.82599182263948,144.05586662207497 127.67168265464716,143.33029066812014 127.56880987575278,142.10239132016432" stroke="#4dd2ff" stroke-linecap="round" stroke-linejoin="round" stroke-width="0.5"><title>2023-10-19 1.3km</title><desc>10064004415</desc></polyline><polyline fill="none" points="147.12936548842117,127.20000000006985 149.24703266704455,129.95745927596 149.10585485538468,131.9489553726744 149.38821047870442,133.94044956599828 150.3764551631175,137.46385770628694 151.78823328157887,139.76172937103547 153.20001140097156,143.74470092041884 156.0235676402226,148.34042786306236 156.44710107613355,148.80000000004657 156.87063451157883,148.64680929866154 155.0353229562752,146.80852000799496 151.647055469919,140.22130339988507 150.79998859809712,137.31066617183387 148.39996579522267,132.25533921841998" stroke="#4dd2ff" stroke-linecap="round" stroke-linejoin="round" stroke-width="0.5"><title>2023-10-18 1.0km</title><desc>10058081424</desc></polyline><polyline fill="none" points="174.229910842143,128.5090968760196 175.436339372769,135.54547939426266 178.60321426484734,143.8909274970647 180.71446419321,148.30909323703963 181.61928559094667,148.80000000004657 182.071696289815,148.80000000004657 182.37330342270434,148.14545762562193 181.31767845898867,146.83637229795568 179.96044636238366,144.70910699968226 178.150803565979,140.7818426452577 177.39678573515266,138.49093523877673 174.229910842143,132.1091093159048 173.928303710185,131.12728831882123 173.62669657729566,127.20000000006985" stroke="#4dd2ff" stroke-linecap="round" stroke-linejoin="round" stroke-width="0.5"><title>2023-10-17 1.0km</title><desc>10051702317</desc></polyline><polyline fill="none" points="17.176604514941573,151.69846386567224 18.70784117653966,154.35693595849443 21.00469616893679,160.33848673303146 22.229685499332845,162.66464109206572 23.607798494398594,166.98463569255546 25.29215882346034,171.30462203593925 25.904653487727046,172.46769387146924 26.67027181852609,172.80000000004657 26.823395485058427,172.63384694198612 26.67027181852609,172.13538769376464 24.985911490395665,169.6430898043327 22.689056497998536,163.99387107940856 21.00469616893679,160.50464069505688 19.62658317387104,154.02462711755652 18.860964843071997,151.20000000006985" stroke="#4dd2ff" stroke-linecap="round" stroke-linejoin="round" stroke-width="0.5"><title>2023-10-16 1.0km</title><desc>10046279660</desc></polyline><polyline fill="none" points="43.57642742060125,151.20000000018626 44.20836636144668,152.57143451995216 44.840305301360786,155.65715924091637 46.262167915701866,160.457167357672 48.157984734512866,163.3714531790465 50.36977102421224,171.60000524926 51.15969469957054,172.45714441989549 52.26558784395456,172.80000000004657 52.42357257939875,172.45714441989549 52.26558784395456,171.42857737722807 50.211786289699376,168.51430162554607 49.10589314438403,165.08573725470342 47.842015265487134,163.02859621262178 44.840305301360786,156.00001729140058 43.73441215604544,151.20000000018626" stroke="#4dd2ff" stroke-linecap="round" stroke-linejoin="round" stroke-width="0.5"><title>2023-10-15 1.0km</title><desc>10039610121</desc></polyline><polyline fill="none" points="69.50507848523557,152.7677485626191 69.9866772191599,157.81937576434575 71.27094050962478,161.47744391136803 72.87626962177455,163.7419594572857 73.83946708962321,166.87743894872256 76.56852658092976,171.7548432429321 77.21065822523087,172.4516144655645 78.01332278177142,172.80000000004657 78.49492151569575,172.4516144655645 78.49492151569575,171.92903606779873 75.28426329046488,169.3161423506681 73.19733544345945,165.48389302031137 72.39467088785022,162.17421815590933 70.46827595215291,157.81937576434575 69.50507848523557,154.16130197024904 69.66561139654368,151.89677726710215 69.50507848523557,151.19999999995343" stroke="#4dd2ff" stroke-linecap="round" stroke-linejoin="round" stroke-width="0.5"><title>2023-10-14 1.0km</title><desc>10033377496</desc></polyline><polyline fill="none" points="95.10247393604368,151.54285870608874 97.94619874749333,154.97144298977219 98.26216817181557,157.54287789412774 100.9479082711041,165.77145053213462 103.47566365916282,171.77143310848624 104.26558721717447,172.80000000004657 104.89752606488764,172.80000000004657 104.89752606488764,172.2857166111935 104.73954135272652,171.77143310848624 103.3176789470017,170.74286576313898 101.73783183004707,167.8285891546402 100.0,162.34288212889805 96.84030576609075,155.3143011406064 96.3663516305387,152.9142930242233 95.57642807159573,151.19999999995343" stroke="#4dd2ff" stroke-linecap="round" stroke-linejoin="round" stroke-width="0.5"><title>2023-10-13 1.0km</title><desc>10028006924</desc></polyline><polyline fill="none" points="121.36538064479828,151.20000000006985 122.88492797501385,153.17863460967783 123.79665637295693,154.82749545027036 123.94861110579222,156.9710127315484 123.79665637295693,159.2794136662269 125.46815843507648,162.74201061367057 127.44356996379793,168.01833853893913 129.41898149251938,171.64580678741913 129.87484569195658,172.3053458391223 130.63461935613304,172.80000000004657 130.63461935613304,171.97557633754332 128.9631172940135,169.83207339665387 127.44356996379793,167.1939131191466 125.46815843507648,161.75269774568733 124.25252057146281,159.609185034642 123.64470164012164,157.7954419098096" stroke="#4dd2ff" stroke-linecap="round" stroke-linejoin="round" stroke-width="0.5"><title>2023-10-12 1.0km</title><desc>10021974100</desc></polyline><polyline fill="none" points="149.4746022215113,154.26269951381255 150.068813463673,157.48658911755774 149.92026065289974,158.77614363189787 151.25723594706506,163.12838451750576 152.29710562061518,165.06271102663595 153.3369752941653,168.6089718618896 154.82250339910388,172.15522696147673 155.11960901971906,172.47761350416113 155.862373072654,172.80000000004657 155.71382026188076,172.15522696147673 154.07973934616894,167.9641975912964 152.29710562061518,164.90151721588336 149.92026065289974,159.42092060425784 149.32604941073805,157.32539474999066 149.02894379012287,154.26269951381255 148.137626927346,151.20000000006985" stroke="#4dd2ff" stroke-linecap="round" stroke-linejoin="round" stroke-width="0.5"><title>2023-10-10 1.0km</title><desc>10009069592</desc></polyline><polyline fill="none" points="174.34079527948052,153.90001181093976 175.3653726009652,156.75884416745976 176.3899499224499,160.57061475841329 178.5854727551341,165.33531853882596 180.34189102053642,171.37059490859974 181.3664683420211,172.80000000004657 181.65920471958816,172.32353174127638 181.8055729083717,170.5764805598883 180.780995586887,167.55884337320458 178.5854727551341,163.74708511296194 176.09721354581416,156.75884416745976 175.3653726009652,153.58236353751272 174.194427090697,151.20000000006985" stroke="#4dd2ff" stroke-linecap="round" stroke-linejoin="round" stroke-width="0.5"><title>2023-10-09 1.0km</title><desc>10003389142</desc></polyline><polyline fill="none" points="17.602145704440773,175.20000000006985 18.68232044391334,176.53954084217548 19.76249518338591,179.05117779690772 20.37973789125681,184.07444339734502 22.69439804647118,189.09769791853614 24.700436847284436,194.79070631600916 25.62630091048777,196.46511784254108 26.397854294627905,196.80000000004657 26.397854294627905,195.46047107467894 23.465951431542635,190.7721136303153 19.608184506185353,181.39536978886463 18.065077735111117,175.36744264874142" stroke="#4dd2ff" stroke-linecap="round" stroke-linejoin="round" stroke-width="0.5"><title>2023-10-08 1.0km</title><desc>9996447828</desc></polyline><polyline fill="none" points="45.22736892104149,179.5200177859515 45.93829996697605,182.14288138831034 48.07109310477972,187.85145554482006 48.78202415117994,190.3200233434327 51.05700349807739,196.02857525658328 51.76793454401195,196.80000000004657 51.91012075310573,196.18286022811662 51.91012075310573,195.56572027492803 49.20858277892694,190.78287948237266 47.92890689568594,188.00574111705646 45.65392754832283,181.21716519689653 44.94299650238827,177.66858268063515 44.08987924689427,175.20000000006985" stroke="#4dd2ff" stroke-linecap="round" stroke-linejoin="round" stroke-width="0.5"><title>2023-10-07 1.0km</title><desc>9989974159</desc></polyline><polyline fill="none" points="72.23527786973864,181.6340659679845 73.36470003286377,185.31066617229953 74.21176665555686,187.14896384219173 75.90589990047738,194.3489474329399 76.32943321205676,195.72766485647298 77.17649983474985,196.80000000004657 77.8823886862956,196.80000000004657 78.16474422672763,196.18723712838255 78.02356645744294,195.72766485647298 76.32943321205676,193.27661102765705 74.63529996667057,189.60002487862948 74.07058888534084,187.14896384219173 71.10585570661351,179.94895537314005 70.68232239503413,177.3446908632759 69.8352557728067,175.20000000006985" stroke="#4dd2ff" stroke-linecap="round" stroke-linejoin="round" stroke-width="0.5"><title>2023-10-06 1.0km</title><desc>9984428862</desc></polyline><polyline fill="none" points="95.34980723820627,175.19999999995343 97.79727711249143,181.7508401402738 99.42892369627953,187.23936816002242 102.20272288657725,194.14427274046466 103.34487549494952,196.44590320182033 103.83436947036535,196.80000000004657 104.48702810332179,196.80000000004657 104.65019276086241,196.44590320182033 104.1606987863779,195.56066097668372 102.20272288657725,192.7278836716432 101.0605702791363,190.42624965729192 99.10259437933564,185.29182739160024 98.28677108790725,182.63608744111843 96.00246587116271,178.38689742889255 96.00246587116271,176.793449241668" stroke="#4dd2ff" stroke-linecap="round" stroke-linejoin="round" stroke-width="0.5"><title>2023-10-04 1.0km</title><desc>9971682885</desc></polyline><polyline fill="none" points="122.73075540456921,177.72263895755168 123.45725420350209,180.2452749478398 124.18375300196931,181.9795854698168 124.7649520416744,184.65988079027738 127.52564747771248,190.17812531418167 127.67094723787159,192.0700915964553 128.54274579696357,195.8540191539796 128.8333453158848,196.32700962922536 129.70514387497678,196.80000000004657 129.70514387497678,195.22336502477992 127.81624699803069,191.7547639987897 126.50854915985838,188.75914950715378 125.78205036045983,187.3401727611199 125.05555156106129,185.29053802613635 123.6025539636612,182.29491450509522 123.0213549239561,179.92994561127853 122.73075540456921,177.56497410975862 122.29485612502322,175.20000000006985" stroke="#4dd2ff" stroke-linecap="round" stroke-linejoin="round" stroke-width="0.5"><title>2023-10-03 1.0km</title><desc>9965060084</desc></polyline><polyline fill="none" points="148.05168626923114,176.09256578912027 150.0258431341499,182.51902978750877 150.35486927907914,185.37523054960184 151.50646078400314,186.8033296703361 152.32902614492923,188.94547677692026 153.80964379385114,194.47934805578552 154.9612352978438,196.26446513272822 155.7838006587699,196.80000000004657 155.94831373076886,196.6214883904904 155.454774514772,195.19339504395612 153.64513072185218,191.801669979468 150.68389542307705,184.66118067363277 148.8742516292259,179.30579991429113 148.54522548615932,175.19999999995343" stroke="#4dd2ff" stroke-linecap="round" stroke-linejoin="round" stroke-width="0.5"><title>2023-10-02 1.0km</title><desc>9958643020</desc></polyline><polyline fill="none" points="174.57615444716066,179.00161439389922 174.8946517072618,180.5568185101729 178.39812157675624,188.85122308298014 180.14985651057214,194.20801048050635 181.1053482927382,196.10880307410844 182.06084007490426,196.80000000004657 182.2200887054205,196.62720078765415 182.06084007490426,195.93600381095894 178.8758674673736,191.09761928464286 175.85014348942786,183.66722365492024 174.4169058157131,179.174414902227 173.7799112945795,175.20000000018626" stroke="#4dd2ff" stroke-linecap="round" stroke-linejoin="round" stroke-width="0.5"><title>2023-10-01 1.0km</title><desc>9952075403</desc></polyline><polyline fill="none" points="18.898691875860095,202.3304483613465 20.196913881693035,204.99132584920153 20.773901438806206,207.6522000116529 21.206642107572407,210.15654912649188 23.370345450006425,216.26088775217067 25.24555501388386,220.1739161274163 26.111036350484937,220.80000000004657 26.399530129972845,220.33043711271603 23.51459234021604,215.94784517178778 22.2163703343831,212.97393835918047 21.7836296656169,211.40872257889714 19.764173212926835,207.02611227263696 18.610198096372187,202.17392605240457 17.600469870027155,199.20000000006985" stroke="#4dd2ff" stroke-linecap="round" stroke-linejoin="round" stroke-width="0.5"><title>2023-09-30 1.0km</title><desc>9945549317</desc></polyline><polyline fill="none" points="44.65578072797507,199.19999999995343 46.0890175588429,201.61920987116173 46.56676316913217,203.52001588023268 47.840751462616026,206.63042239728384 48.477745610289276,211.29602445522323 48.95549122057855,212.67842328641564 50.86647366080433,217.34401333890855 51.34421927109361,220.28160232468508 51.66271634493023,220.62720078765415 52.14046195521951,220.80000000004657 52.29971049167216,220.4544015622232 49.43323683086783,215.27041890379041 47.522254389710724,210.7776246839203 46.8852602429688,208.18562411214225 44.65578072797507,203.00161439413205 43.70028950739652,199.89120307425037" stroke="#4dd2ff" stroke-linecap="round" stroke-linejoin="round" stroke-width="0.5"><title>2023-09-28 1.0km</title><desc>9933629332</desc></polyline><polyline fill="none" points="69.77749703917652,201.6545560109662 70.98392645642161,205.90911335172132 73.2459816141054,209.0182078036014 74.7540183858946,214.581839667866 76.86526986584067,218.345465102233 77.46848457492888,220.4727288366994 78.07169928308576,220.80000000004657 78.37330663762987,220.3090932368068 78.07169928308576,219.65455071767792 76.86526986584067,218.01819357764907 73.3967852909118,210.98184416710865 71.5871411645785,206.07275000982918 69.62669336237013,199.20000000006985" stroke="#4dd2ff" stroke-linecap="round" stroke-linejoin="round" stroke-width="0.5"><title>2023-09-27 1.0km</title><desc>9927137811</desc></polyline><polyline fill="none" points="101.79438564018346,199.19999999995343 101.36373308650218,201.2769517872366 100.9330805328209,202.4711962986621 100.59812854672782,203.92505645600613 98.63626691349782,208.027002906485 97.6314109552186,209.74046715319855 97.44000982004218,210.46739012288162 97.53571038739756,211.03854336001677 97.77496180613525,211.86931088013807 98.4927160621155,213.63468861562433 98.73196748108603,214.10199374804506 99.019069183385,214.93275766435545 99.97607485787012,216.1269790820661 100.40672741178423,217.06158573925495 100.88523024925962,217.78850117325783 101.2680325191468,218.82695049518952 101.84223592397757,219.60578648454975 102.55999017995782,220.79999999998836" stroke="#4dd2ff" stroke-linecap="round" stroke-linejoin="round" stroke-width="0.5"><title>2023-09-26 1.0km</title><desc>9920397094</desc></polyline><polyline fill="none" points="125.89912603562698,199.20000000001164 124.95763570303097,202.33786702319048 124.01614537020214,204.0162569397944 123.14190434664488,205.11085753014777 122.6711591805797,205.9865371331689 122.4694112520665,206.86221596354153 122.53666056110524,207.95681341498857 122.87290710909292,208.83249050704762 123.67989882268012,210.07303173147375 124.01614537020214,211.3135714053642 124.68863846478052,212.91897338739363 125.96637534513138,214.52437277277932 128.11835324857384,218.90272153465776 129.5305887479335,220.79999999998836" stroke="#4dd2ff" stroke-linecap="round" stroke-linejoin="round" stroke-width="0.5"><title>2023-09-25 1.0km</title><desc>9914573673</desc></polyline><polyline fill="none" points="153.59245867212303,199.20000000001164 153.0616391147487,200.00641070248093 152.95547520322725,200.40961574245011 153.0616391147487,200.92802191746887 153.1147210705094,201.44642774929525 152.0530819555279,203.40484668471618 151.7876721767243,204.72965671774 151.41609848686494,205.70886269339826 149.1866563456133,209.62567435624078 149.13357438985258,210.08647444064263 149.34590221266262,211.00807379680919 149.9298037260305,211.92967206868343 150.248295460362,212.73606966715306 150.7260330619756,213.54246643558145 150.9914428407792,214.34886237385217 151.6815082654357,215.44325553410454 152.2123278225772,216.5376471655327 152.79622933617793,217.17124162177788 152.95547520322725,217.74723613733659 153.32704889331944,218.20803144481033 154.1232782297302,219.5904157414334 154.70717974286526,220.22400772874244 154.8664256099146,220.79999999998836" stroke="#4dd2ff" stroke-linecap="round" stroke-linejoin="round" stroke-width="0.5"><title>2023-09-24 1.0km</title><desc>9907510217</desc></polyline><polyline fill="none" points="178.8052497135941,199.19999999995343 178.3543098741211,199.8990368102095 178.03220998868346,200.59807310631732 177.838950057514,201.50681952305604 177.7745300801471,202.69517891091527 176.679390469566,204.1631502218661 176.03519069892354,205.84082894423045 175.45541090494953,206.6796671951306 175.0688910423778,207.7981170452549 175.00447106501088,208.98646856920095 176.35729058436118,212.4117087686318 176.87265040096827,213.46024921990465 178.54756980529055,216.1165465207887 179.25618955329992,217.86410648730816 180.15806923247874,218.98254318005638 180.6734290495515,219.89127202425152 180.99552893498912,220.79999999998836" stroke="#4dd2ff" stroke-linecap="round" stroke-linejoin="round" stroke-width="0.5"><title>2023-09-23 1.0km</title><desc>9901004991</desc></polyline><polyline fill="none" points="22.829407662386075,223.20000000001164 22.399344430072233,224.00000917632133 21.96928119775839,225.40002353605814 20.986279523698613,227.466707449581 20.003277849638835,228.8667164563667 19.14315138501115,231.20005999715067 19.081713780295104,232.46672969026258 19.2045889897272,233.2000639672042 20.433341081952676,236.1333951432607 20.61765389586799,237.00005935650552 20.863404314266518,237.4667243589647 21.72353077912703,238.53338631999213 22.399344430072233,239.86671200639103 22.95228287158534,241.26670186739648 23.8738469411619,242.60002353484742 24.918286219704896,244.79999999998836" stroke="#4dd2ff" stroke-linecap="round" stroke-linejoin="round" stroke-width="0.5"><title>2023-09-22 1.0km</title><desc>9895405405</desc></polyline><polyline fill="none" points="49.145021746866405,223.19999999995343 48.968864555004984,223.83717584831174 48.616550171747804,224.2194811324589 47.85320234019309,225.62126573116984 47.55960702057928,226.6407440150506 46.678821061272174,228.87084857962327 45.739316038321704,230.78236220986582 45.152125398861244,232.18413619237253 44.97596820699982,232.88502233318286 44.97596820699982,233.33104049135 45.152125398861244,233.96820889046649 45.504439782351255,234.60537682118593 46.267787613905966,236.58059442898957 47.031135444995016,237.98235903232126 47.442168892594054,239.0018227742985 48.205516723915935,240.27615076530492 48.67526923539117,240.8495977499988 49.02758361888118,241.8690581190167 49.96708864206448,243.5256786608952 51.02403179300018,244.79999999998836" stroke="#4dd2ff" stroke-linecap="round" stroke-linejoin="round" stroke-width="0.5"><title>2023-09-21 1.0km</title><desc>9889267953</desc></polyline><polyline fill="none" points="76.19914857461117,223.19999999995343 75.42831299151294,225.51256180164637 74.97488029603846,227.3330835548113 74.24938798230141,228.85838175087702 73.38786586048082,231.41693865915295 71.8915379641112,234.22149941610405 71.4834485379979,235.74678191059502 71.52879180735908,236.09120005724253 71.80085142469034,236.82923834602116 72.39031392964534,238.10850278503494 72.75306008616462,239.1909554002341 73.65992547781207,240.47021532442886 74.20404471294023,241.50346193969017 74.5214475998655,242.241494259506 74.8841937566176,242.88112161163008 75.47365626133978,243.3239401896135 76.19914857461117,244.40638436889276 76.24449184420519,244.60319221339887 76.51655146176927,244.79999999998836" stroke="#4dd2ff" stroke-linecap="round" stroke-linejoin="round" stroke-width="0.5"><title>2023-09-20 1.0km</title><desc>9882714971</desc></polyline><polyline fill="none" points="101.79100363212638,223.20000000001164 101.33045984106138,224.36608261422953 100.46054379106499,226.9203525246121 100.40937225869857,227.75326475786278 100.10234306450002,228.19748423999408 99.74414233816788,229.03039506456116 99.53945620870218,229.80777767213294 99.13008395000361,230.86279564508004 97.95313870580867,232.7507188655436 97.64610951161012,233.86125973169692 97.5437664471101,234.86074511497281 97.64610951161012,235.860229175305 97.95313870580867,236.9707654688973 98.31133943214081,237.7481399027747 99.43711314396933,239.69157248659758 100.0,240.46894411969697 100.51171532319859,241.85710576031124 101.02343064686283,242.7455278711859 101.53514597029425,243.46737006679177 102.0980328260921,244.02263282472268 102.45623355265707,244.79999999998836" stroke="#4dd2ff" stroke-linecap="round" stroke-linejoin="round" stroke-width="0.5"><title>2023-09-19 1.0km</title><desc>9876194288</desc></polyline><polyline fill="none" points="125.84100794629194,223.20000000001164 125.45942701748572,223.82109320326708 124.82345880288631,225.0632783769979 124.6326683384832,225.89140091248555 123.48792555183172,227.89269402367063 122.5975700514391,229.75596308422973 122.40677958680317,230.44606179761468 122.47037640865892,231.20516979601234 122.85195733746514,232.17130636097863 123.42432873044163,233.20645157678518 123.93310330249369,234.6556529609952 124.6326683384832,236.1738615350332 125.39583019609563,237.5540490167914 126.09539523231797,238.4511697916896 126.92215391132049,239.83135392481927 127.4309284829069,241.41856316884514 128.32128398376517,242.79874293867033 128.76646173396148,244.04090299631935 129.59322041319683,244.79999999998836" stroke="#4dd2ff" stroke-linecap="round" stroke-linejoin="round" stroke-width="0.5"><title>2023-09-18 1.0km</title><desc>9870505463</desc></polyline><polyline fill="none" points="152.2170412815176,223.19999999995343 151.90698230802082,223.8056144231232 151.47289974521846,225.82432627223898 150.91479359311052,226.7663902780041 150.66674641426653,227.50658274488524 149.30248693120666,229.7271565538831 148.80639257398434,230.93837636063108 148.49633360025473,232.0150148428511 148.74438077909872,232.75520306476392 150.10864026192576,235.71594996581553 150.7907700035721,236.79258282791125 151.28686436102726,237.9365038559772 152.09301769197918,239.01313410582952 152.52710025501437,239.75331666780403 153.08520640688948,241.5028367077466 155.50366639974527,244.79999999998836" stroke="#4dd2ff" stroke-linecap="round" stroke-linejoin="round" stroke-width="0.5"><title>2023-09-16 1.0km</title><desc>9856514700</desc></polyline><polyline fill="none" points="177.70141286822036,223.19999999995343 177.03788590896875,225.21602015919052 176.17530086194165,226.58403147483477 174.38377807172947,230.04005154868355 174.31742537557147,230.83205443120096 174.38377807172947,231.76805701170815 174.78189424728043,232.7040586976218 175.44542120676488,233.7120595127344 176.0425954698585,235.08005895931274 177.1042386048939,236.88005531951785 178.4312925238628,239.40004466567189 178.5639979154803,240.33603905688506 179.02846678695641,240.69603666145122 179.55928835459054,241.41603147354908 180.4218734013848,242.85601950978162 181.35081114433706,243.64801202714443 181.54986923234537,244.1520069320104 181.6825746241957,244.79999999998836" stroke="#4dd2ff" stroke-linecap="round" stroke-linejoin="round" stroke-width="0.5"><title>2023-09-15 1.0km</title><desc>9850671982</desc></polyline><polyline fill="none" points="22.549125073244795,247.20000000001164 21.450874926988035,250.10485439072363 20.21534351236187,251.89245295227738 19.666218439349905,252.86073418945307 18.842530829831958,254.94625986437313 18.636608927277848,255.69108942203457 18.636608927277848,256.28695267351577 18.842530829831958,257.03178124543047 19.666218439349905,259.2662636752357 20.42126541491598,260.7559158902732 22.274562536738813,263.958660734992 23.029609512304887,265.3738238363294 23.166890780208632,266.19312788615935 23.716015853453428,266.71450284548337 24.60834409738891,268.12966209702427 25.363391072722152,268.79999999998836" stroke="#4dd2ff" stroke-linecap="round" stroke-linejoin="round" stroke-width="0.5"><title>2023-09-14 1.0km</title><desc>9844236351</desc></polyline><polyline fill="none" points="44.56709610228427,247.19999999995343 44.96225050766952,247.52159278281033 45.110433409688994,247.84318542375695 45.20922201103531,248.53996899235062 45.50558781507425,249.1295545687899 45.70316501799971,250.79111135465791 45.70316501799971,251.59508908487624 45.604376416420564,252.02387684507994 45.70316501799971,252.5598611907917 45.95013652136549,253.2030418853974 45.85134792001918,253.73902536404785 45.90074222069234,254.00701695558382 46.394685227423906,254.91818762995536 46.83923393371515,256.2581424351083 47.234388339100406,257.0085160502349 47.728331346064806,257.70529085828457 48.27166865346953,258.18767302751075 48.419851555489004,258.5092609630665 48.568034457508475,259.2060343368212 48.96318886312656,259.9028070445638 49.407737569184974,261.1891549092252 50.00046917726286,262.31470742897363 50.29683498153463,263.279465348518 50.4450178835541,264.08342930604704 50.74138368782587,264.72659983392805 51.2847209952306,266.4953158595017 52.025635505560786,267.88884667569073 52.07502980646677,268.1032357955701 52.025635505560786,268.26402759418124 51.43290389725007,268.79999999998836 51.729269701521844,268.58561108488357 51.877452603541315,268.26402759418124 51.9762412046548,267.99604124354664 51.9268469044473,267.620860187104 51.63048110017553,267.2456789375865 50.74138368782587,265.31617231911514 50.29683498153463,263.8690390040283 49.35834326851182,261.7787302552606 48.913794562453404,259.74201340193395 48.66682305908762,259.15243640867993 47.728331346064806,257.91968297294807 46.78983963280916,256.15094614133704 46.34529092675075,254.70379463257268 46.19710802496411,253.73902536404785 45.80195361911319,252.7206564177177 45.01164480834268,251.00550550274784 44.81406760541722,250.20152712223353 44.122547395993024,248.91515986889135 43.97436449397355,248.21837665891508 43.924970193300396,247.36079640913522" stroke="#4dd2ff" stroke-linecap="round" stroke-linejoin="round" stroke-width="0.5"><title>2023-09-13 1.0km</title><desc>9837636972</desc></polyline></svg>