<?xml version="1.0" encoding="utf-8" ?>
<svg baseProfile="full" height="300mm" version="1.1" viewBox="0,0,200,300" width="200mm" xmlns="http://www.w3.org/2000/svg" xmlns:ev="http://www.w3.org/2001/xml-events" xmlns:xlink="http://www.w3.org/1999/xlink"><defs /><rect fill="#222222" height="300" width="200" x="0" y="0" /><text fill="#FFFFFF" style="font-size:12px; font-family:Arial; font-weight:bold;" x="10" y="20">Over 1km Runs</text><text fill="#FFFFFF" style="font-size:4px; font-family:Arial" x="10" y="280">ATHLETE</text><text fill="#FFFFFF" style="font-size:9px; font-family:Arial" x="10" y="290">Jiakai</text><text fill="#FFFFFF" style="font-size:4px; font-family:Arial" x="120" y="280">STATISTICS</text><text fill="#FFFFFF" style="font-size:3px; font-family:Arial" x="120" y="285">Number: 30</text><text fill="#FFFFFF" style="font-size:3px; font-family:Arial" x="120" y="290">Weekly: 5.0</text><text fill="#FFFFFF" style="font-size:3px; font-family:Arial" x="141" y="285">Total: 30.5 km</text><text fill="#FFFFFF" style="font-size:3px; font-family:Arial" x="141" y="290">Avg: 1.0 km</text><text fill="#FFFFFF" style="font-size:3px; font-family:Arial" x="167" y="285">Min: 1.0 km</text><text fill="#FFFFFF" style="font-size:3px; font-family:Arial" x="167" y="290">Max: 1.0 km</text><polyline fill="none" points="20.76490677241236,32.547695798333734 23.061761765740812,36.535403937567025 26.507044254802167,45.507730099372566 28.34452824946493,48.99696163786575 30.411697742529213,55.476953538600355 32.93823823519051,61.95693305367604 33.85698023252189,63.70154080702923 35.005407728254795,64.19999999995343 35.23509322851896,63.95077041280456 35.005407728254795,63.20308154053055 32.47886723652482,59.464634706266224 29.033584747463465,50.99080661893822 26.507044254802167,45.75696104229428 24.439874761737883,36.03694067616016 23.291447265073657,31.800000000046566" stroke="#4dd2ff" stroke-linecap="round" stroke-linejoin="round" stroke-width="0.5"><title>2023-10-16 1.0km</title><desc>10046279660</desc></polyline><polyline fill="none" points="57.36464113090187,31.800000000046566 58.312549540773034,33.85715177981183 59.260457950644195,38.48573886137456 61.39325187262148,45.68575103627518 64.23697710130364,50.05717976833694 67.55465653538704,62.400007873540744 68.73954204842448,63.68571662972681 70.39838176593184,64.19999999995343 70.6353588681668,63.68571662972681 70.39838176593184,62.142866065725684 67.3176794340834,57.7714524383191 65.65883971657604,52.62860588193871 63.76302289776504,49.54289431869984 59.260457950644195,39.00002593710087 57.601618234068155,31.800000000046566" stroke="#4dd2ff" stroke-linecap="round" stroke-linejoin="round" stroke-width="0.5"><title>2023-10-15 1.0km</title><desc>10039610121</desc></polyline><polyline fill="none" points="93.25761772692204,34.151622843928635 93.98001582734287,41.72906364640221 95.90641076304018,47.216165866935626 98.31440443173051,50.61293918592855 99.7592006335035,55.31615842296742 103.85278987046331,62.63226486439817 104.81598733644933,63.677421698346734 106.01998417265713,64.19999999995343 106.74238227214664,63.677421698346734 106.74238227214664,62.89355410146527 101.926394934766,58.974213525885716 98.79600316565484,53.22583953035064 97.59200633130968,48.261327233863994 94.70241392869502,41.72906364640221 93.25761772692204,36.24195295525715 93.49841709434986,32.8451659004204 93.25761772692204,31.799999999813735" stroke="#4dd2ff" stroke-linecap="round" stroke-linejoin="round" stroke-width="0.5"><title>2023-10-14 1.0km</title><desc>10033377496</desc></polyline><polyline fill="none" points="128.65371090359986,32.31428805901669 132.91929812077433,37.45716448454186 133.39325225632638,41.31431684130803 137.42186240572482,53.65717579820193 141.21349548734725,62.65714966272935 142.39838082436472,64.19999999995343 143.34628909640014,64.19999999995343 143.34628909640014,63.428574916673824 143.1093120276928,62.65714966272935 140.9765184186399,61.11429864470847 138.60674774367362,56.742883731843904 136.0,48.51432319311425 131.2604586482048,37.971451710909605 130.54952744487673,34.37143953633495 129.36464210692793,31.800000000046566" stroke="#4dd2ff" stroke-linecap="round" stroke-linejoin="round" stroke-width="0.5"><title>2023-10-13 1.0km</title><desc>10028006924</desc></polyline><polyline fill="none" points="165.0480709662661,31.799999999813735 167.32739196065813,34.76795191434212 168.6949845580384,37.24124317523092 168.92291665822268,40.45651909708977 168.6949845580384,43.91912049916573 171.2022376516834,49.113015920389444 174.16535494476557,57.027507808292285 177.12847223784775,62.46871018107049 177.81226853653789,63.45801875856705 178.9519290337339,64.19999999995343 178.9519290337339,62.96336450614035 176.4446759391576,59.74811009480618 174.16535494476557,55.790869678603485 171.2022376516834,47.629046618472785 169.37878085672855,44.41377755184658 168.46705245878547,41.69316286453977" stroke="#4dd2ff" stroke-linecap="round" stroke-linejoin="round" stroke-width="0.5"><title>2023-10-12 1.0km</title><desc>10021974100</desc></polyline><polyline fill="none" points="24.211903332732618,77.19404927059077 25.103220195509493,82.02988367620856 24.880390980280936,83.96421544766054 26.885853921063244,90.49257677607238 28.445658431388438,93.39406653982587 30.005462942644954,98.71345779276453 32.23375509865582,104.03284044214524 32.67941353004426,104.51642025611363 33.793559609912336,105.0 33.57073039282113,104.03284044214524 31.119609020650387,97.74629638670012 28.445658431388438,93.15227582375519 24.880390980280936,84.93138090637513 23.989074116572738,81.78809212497436 23.543415686115623,77.19404927059077 22.206440391018987,72.60000000009313" stroke="#4dd2ff" stroke-linecap="round" stroke-linejoin="round" stroke-width="0.5"><title>2023-10-10 1.0km</title><desc>10009069592</desc></polyline><polyline fill="none" points="58.51119292061776,76.6500177164562 60.04805890284479,80.9382662512362 61.58492488600314,86.6559221376665 64.8782091345638,93.8029778082855 67.51283653266728,102.85589236277156 69.0497025148943,105.0 69.48880708124489,104.28529761196114 69.70835936442018,101.6647208398208 68.17149338219315,97.13826505979523 64.8782091345638,91.42062766943127 61.14582031965256,80.9382662512362 60.04805890284479,76.17354530631565 58.29164063651115,72.60000000009313" stroke="#4dd2ff" stroke-linecap="round" stroke-linejoin="round" stroke-width="0.5"><title>2023-10-09 1.0km</title><desc>10003389142</desc></polyline><polyline fill="none" points="93.40321855712682,72.5999999998603 95.02348066680133,74.60931126307696 96.64374277554452,78.37676669517532 97.56960683688521,85.91166509594768 101.04159707110375,93.44654687773436 104.05065527185798,101.98605947382748 105.43945136573166,104.49767676368356 106.59678144287318,105.0 106.59678144287318,102.99070661189035 102.19892714824528,95.95817044540308 96.41227675974369,81.89305468322709 94.097616603598,72.85116397286765" stroke="#4dd2ff" stroke-linecap="round" stroke-linejoin="round" stroke-width="0.5"><title>2023-10-08 1.0km</title><desc>9996447828</desc></polyline><polyline fill="none" points="131.84105338156223,79.08002667874098 132.9074499513954,83.01432208251208 136.1066396581009,91.57718331716023 137.17303622700274,95.28003501519561 140.5855052471161,103.84286288474686 141.65190181694925,105.0 141.8651811303571,104.0742903421633 141.8651811303571,103.1485804123804 137.8128741690889,95.97431922354735 135.89336034469306,91.80861167539842 132.4808913236484,81.62574779521674 131.41449475381523,76.30287402076647 130.13481887057424,72.5999999998603" stroke="#4dd2ff" stroke-linecap="round" stroke-linejoin="round" stroke-width="0.5"><title>2023-10-07 1.0km</title><desc>9989974159</desc></polyline><polyline fill="none" points="169.35291680507362,82.25109895179048 171.04705004952848,87.76599925826304 172.31764998380095,90.52344576292671 174.85884985141456,101.32342114928178 175.49414981901646,103.39149728463963 176.7647497523576,105.0 177.8235830301419,105.0 178.2471163412556,104.08085569227114 178.03534968663007,103.39149728463963 175.49414981901646,99.71491654124111 172.95294995047152,94.20003731758334 172.1058833282441,90.52344576292671 167.65878356061876,79.72343305964023 167.02348359394819,75.817036294844 165.75288365967572,72.5999999998603" stroke="#4dd2ff" stroke-linecap="round" stroke-linejoin="round" stroke-width="0.5"><title>2023-10-06 1.0km</title><desc>9984428862</desc></polyline><polyline fill="none" points="21.0247108573094,113.39999999990687 24.695915670134127,123.22626021038741 27.14338554441929,131.45905224001035 31.304084330797195,141.8164091105573 33.01731324288994,145.2688548027072 33.75155420601368,145.80000000004657 34.73054215591401,145.80000000004657 34.9752891426906,145.2688548027072 34.24104818049818,143.9409914650023 31.304084330797195,139.69182550744154 29.59085541870445,136.23937448579818 26.653891569003463,128.53774108714424 25.430156632326543,124.55413116165437 22.003698808141053,118.18034614343196 22.003698808141053,115.79017386236228" stroke="#4dd2ff" stroke-linecap="round" stroke-linejoin="round" stroke-width="0.5"><title>2023-10-04 1.0km</title><desc>9971682885</desc></polyline><polyline fill="none" points="59.09613310638815,117.18395843612961 60.18588130455464,120.96791242156178 61.27562950272113,123.5693782044109 62.147428061813116,127.58982118521817 66.28847121540457,135.8671879710164 66.50642085634172,138.70513739460148 67.81411869451404,144.38102873088792 68.25001797359437,145.09051444358192 69.55771581176668,145.80000000004657 69.55771581176668,143.4350475370884 66.72437049634755,138.23214599792846 64.76282373908907,133.73872426059097 63.67307553999126,131.61025914154015 62.58332734089345,128.5358070388902 60.40383094456047,124.04237175756134 59.53203238546848,120.49491841671988 59.09613310638815,116.94746116455644 58.44228418730199,113.39999999990687" stroke="#4dd2ff" stroke-linecap="round" stroke-linejoin="round" stroke-width="0.5"><title>2023-10-03 1.0km</title><desc>9965060084</desc></polyline><polyline fill="none" points="94.07752940338105,114.73884868388996 97.03876470122486,124.3785446814727 97.53230391722172,128.66284582437947 99.25969117507339,130.80499450559728 100.49353921599686,134.01821516547352 102.71446568891406,142.31902208388783 104.44185294676572,144.99669769895263 105.67570098675787,145.80000000004657 105.92247059568763,145.53223258606158 105.18216177169234,143.3900925659109 102.46769608184695,138.30250496929511 98.02584313321859,127.59177101077512 95.3113774433732,119.55869987164624 94.81783822830766,113.4000000001397" stroke="#4dd2ff" stroke-linecap="round" stroke-linejoin="round" stroke-width="0.5"><title>2023-10-02 1.0km</title><desc>9958643020</desc></polyline><polyline fill="none" points="130.86423167027533,119.10242159059271 131.3419775608927,121.43522776500322 136.59718236420304,133.8768346242141 139.22478476632386,141.9120157205034 140.65802244003862,144.76320461090654 142.09126011282206,145.80000000004657 142.33013305906206,145.5408011812251 142.09126011282206,144.50400571641512 137.3138012001291,137.24642892670818 132.77521523460746,126.10083548212424 130.62535872403532,119.36162235308439 129.66986694186926,113.39999999990687" stroke="#4dd2ff" stroke-linecap="round" stroke-linejoin="round" stroke-width="0.5"><title>2023-10-01 1.0km</title><desc>9952075403</desc></polyline><polyline fill="none" points="167.34803781285882,118.09567254199646 169.29537082184106,122.0869887736626 170.16085215751082,126.07830001739785 170.80996316019446,129.83482368965633 174.05551817454398,138.99133162829094 176.8683325201273,144.86087419115938 178.16655452456325,145.80000000004657 178.59929519426078,145.09565566899255 174.27188850939274,138.52176775760017 172.3245555004105,134.06090753874741 171.67544449772686,131.71308386838064 168.6462598182261,125.13916840869933 166.91529714409262,117.86088907835074 165.4007048048079,113.39999999990687" stroke="#4dd2ff" stroke-linecap="round" stroke-linejoin="round" stroke-width="0.5"><title>2023-09-30 1.0km</title><desc>9945549317</desc></polyline><polyline fill="none" points="22.983671092428267,154.20000000018626 25.133526338264346,157.82881480664946 25.85014475416392,160.6800238203723 27.7611271943897,165.34563359618187 28.716618415899575,172.34403668297455 29.433236830867827,174.41763492953032 32.29971049167216,181.41602000873536 33.01632890757173,185.82240348728374 33.49407451786101,186.3408011815045 34.21069293282926,186.60000000009313 34.44956573843956,186.08160234359093 30.1498552467674,178.3056283555925 27.283381585031748,171.56643702602014 26.327890364453197,167.6784361684695 22.983671092428267,159.9024215915706 21.55043426156044,155.23680461174808" stroke="#4dd2ff" stroke-linecap="round" stroke-linejoin="round" stroke-width="0.5"><title>2023-09-28 1.0km</title><desc>9933629332</desc></polyline><polyline fill="none" points="57.666245558299124,157.8818340166472 59.47588968463242,164.26367002772167 62.868972420692444,168.9273117056582 65.13102757837623,177.27275950205512 68.29790479876101,182.9181976534892 69.20272686239332,186.10909325513057 70.10754892416298,186.60000000009313 70.55995995737612,185.8636398552917 70.10754892416298,184.88182607665658 68.29790479876101,182.4272903664969 63.09517793636769,171.87276625074446 60.38071174733341,164.50912501476705 57.44004004262388,154.20000000018626" stroke="#4dd2ff" stroke-linecap="round" stroke-linejoin="round" stroke-width="0.5"><title>2023-09-27 1.0km</title><desc>9927137811</desc></polyline><polyline fill="none" points="102.69157846015878,154.20000000001164 102.04559962963685,157.3154276809073 101.39962079934776,159.10679444798734 100.89719282020815,161.2875846840907 97.95440037013032,167.44050435977988 96.44711643271148,170.0107007298502 96.16001473017968,171.10108518437482 96.30356558109634,171.95781504007755 96.6624427093193,173.2039663202013 97.73907409328967,175.85203292348888 98.09795122151263,176.55299062206177 98.52860377519391,177.79913649661466 99.96411228692159,179.59046862315154 100.61009111744352,180.99237860896392 101.32784537388943,182.08275175991002 101.9020487787202,183.64042574283667 102.76335388608277,184.8086797268479 103.83998526982032,186.59999999997672" stroke="#4dd2ff" stroke-linecap="round" stroke-linejoin="round" stroke-width="0.5"><title>2023-09-26 1.0km</title><desc>9920397094</desc></polyline><polyline fill="none" points="135.8486890536733,154.19999999995343 134.43645355431363,158.9068005346926 133.02421805541962,161.42438540968578 131.71285651996732,163.06628629518673 131.00673877075315,164.37980569980573 130.70411687809974,165.69332394527737 130.8049908420071,167.33522012247704 131.30936066340655,168.6487357604783 132.51984823402017,170.509547597263 133.02421805541962,172.37035710806958 134.0329576972872,174.77846008108463 135.94956301758066,177.18655915919226 139.17752987286076,183.75408230198082 141.29588312190026,186.59999999997672" stroke="#4dd2ff" stroke-linecap="round" stroke-linejoin="round" stroke-width="0.5"><title>2023-09-25 1.0km</title><desc>9914573673</desc></polyline><polyline fill="none" points="174.3886880078353,154.20000000006985 173.5924586718902,155.4096160538029 173.43321280460805,156.01442361366935 173.5924586718902,156.79203287616838 173.67208160553128,157.56964162387885 172.07962293317541,160.50727002706844 171.68150826497003,162.49448507663328 171.12414772994816,163.96329404017888 167.7799845179543,169.83851153438445 167.70036158477888,170.52971166092902 168.01885331887752,171.91211069514975 168.8947055884637,173.29450810304843 169.37244319031015,174.50410450075287 170.08904959261417,175.71369965339545 170.48716426081955,176.92329356085975 171.52226239768788,178.56488330115099 172.31849173363298,180.2064707482932 173.19434400415048,181.1568624327192 173.43321280460805,182.02085420605727 173.99057333962992,182.71204716723878 175.18491734424606,184.78562361211516 176.06076961383224,185.73601159313694 176.29963841475546,186.59999999997672" stroke="#4dd2ff" stroke-linecap="round" stroke-linejoin="round" stroke-width="0.5"><title>2023-09-24 1.0km</title><desc>9907510217</desc></polyline><polyline fill="none" points="29.207874570507556,195.0 28.53146481141448,196.048555215355 28.048314983025193,197.09710965957493 27.758425086271018,198.4602292845957 27.66179512022063,200.24276836647186 26.01908570434898,202.4447253328981 25.05278604850173,204.96124341641553 24.183116357773542,206.21950079279486 23.60333656379953,207.89717556803953 23.506706597749144,209.67970285390038 25.535935876425356,214.81756315298844 26.308975601568818,216.39037382986862 28.821354708168656,220.37481978128199 29.884284330066293,222.9961597310612 31.237103849183768,224.6738147700671 32.01014357432723,226.03690803644713 32.49329340271652,227.40000000002328" stroke="#4dd2ff" stroke-linecap="round" stroke-linejoin="round" stroke-width="0.5"><title>2023-09-23 1.0km</title><desc>9901004991</desc></polyline><polyline fill="none" points="65.24411149369553,195.0 64.59901664499193,196.20001376443543 63.953921796754,198.30003530415706 62.479419285431504,201.40006117441226 61.00491677457467,203.5000746845035 59.71472707763314,207.00008999567945 59.622570670209825,208.9000945353182 59.8068834845908,210.00009595078882 61.65001162327826,214.4000927148154 61.92648084368557,215.7000890347408 62.29510647151619,216.4000865384005 63.58529616845772,218.00007947999984 64.59901664499193,220.00006800959818 65.42842430714518,222.10005280107725 66.81077041151002,224.10003530222457 68.37742932932451,227.40000000002328" stroke="#4dd2ff" stroke-linecap="round" stroke-linejoin="round" stroke-width="0.5"><title>2023-09-22 1.0km</title><desc>9895405405</desc></polyline><polyline fill="none" points="101.71753262076527,195.0 101.4532968327403,195.95576377247926 100.9248252576217,196.5292216987582 99.77980351028964,198.6318985967664 99.33941053086892,200.16111602261662 98.01823159214109,203.50627286941744 96.60897405771539,206.37354331486858 95.72818809840828,208.47620428854134 95.46395231038332,209.52753349975683 95.46395231038332,210.19656073697843 95.72818809840828,211.15231333568227 96.25665967399254,212.10806523181964 97.40168142085895,215.0708916435251 98.54670316772535,217.17353854852263 99.1632533390075,218.70273416140117 100.3082750858739,220.6142261478817 101.01290385285392,221.47439662506804 101.54137542843819,223.0035871785367 102.95063296332955,225.48851799138356 104.53604768961668,227.40000000002328" stroke="#4dd2ff" stroke-linecap="round" stroke-linejoin="round" stroke-width="0.5"><title>2023-09-21 1.0km</title><desc>9889267953</desc></polyline><polyline fill="none" points="139.29872286203317,195.0000000000582 138.14246948761865,198.4688427025103 137.4623204441741,201.19962533231592 136.37408197368495,203.48757262638537 135.08179879072122,207.32540798879927 132.8373069462832,211.53224912419682 132.22517280699685,213.82017286599148 132.29318771115504,214.33680008596275 132.70127713750117,215.44385751907248 133.58547089458443,217.36275417759316 134.12959012947977,218.98643310042098 135.48988821706735,220.90532298677135 136.3060670697596,222.455192909576 136.78217140003107,223.56224138929974 137.3262906349264,224.52168241748586 138.2104843922425,225.185910284461 139.29872286203317,226.8095765534672 139.36673776665702,227.10478832013905 139.77482719300315,227.40000000002328" stroke="#4dd2ff" stroke-linecap="round" stroke-linejoin="round" stroke-width="0.5"><title>2023-09-20 1.0km</title><desc>9882714971</desc></polyline><polyline fill="none" points="174.6865054485388,195.0000000000582 173.9956897618249,196.74912392144324 172.6908156867139,200.5805287869298 172.61405838793144,201.82989713683492 172.15351459709927,202.49622636003187 171.61621350748464,203.7455925969407 171.3091843132861,204.91166650824016 170.695125924889,206.4941934676608 168.92970805894583,209.32607829838526 168.469164267648,210.99188959761523 168.31564967054874,212.49111767252907 168.469164267648,213.99034376308555 168.92970805894583,215.6561482033576 169.4670091480948,216.82220985426102 171.15566971618682,219.7373587299371 172.0,220.9034161796444 172.7675729850307,222.9856586405076 173.53514597052708,224.3182918067905 174.3027189555578,225.4010551001993 175.14704923937097,226.23394923715387 175.68435032945126,227.40000000002328" stroke="#4dd2ff" stroke-linecap="round" stroke-linejoin="round" stroke-width="0.5"><title>2023-09-19 1.0km</title><desc>9876194288</desc></polyline><polyline fill="none" points="27.761511919554323,235.79999999993015 27.18914052657783,236.7316398047842 26.235188204795122,238.59491756535135 25.949002508074045,239.83710136869922 24.231888328213245,242.83904103538953 22.89635507715866,245.63394462619908 22.610169380437583,246.6690926962765 22.705564612988383,247.8077546939021 23.277936006430537,249.25695954135153 24.136493096128106,250.80967736511957 24.899654953740537,252.9834794413764 25.949002508074045,255.2607923024334 27.09374529449269,257.3310735251289 28.1430928488262,258.6767546874471 29.383230867329985,260.7470308870543 30.146392724476755,263.1278447532095 31.481925975997,265.1981144079473 32.14969260105863,267.0613544944208 33.38983062002808,268.19999999995343" stroke="#4dd2ff" stroke-linecap="round" stroke-linejoin="round" stroke-width="0.5"><title>2023-09-18 1.0km</title><desc>9870505463</desc></polyline><polyline fill="none" points="64.32556192250922,235.79999999993015 63.86047346191481,236.70842163462657 63.209349617827684,239.73648940830026 62.37219038978219,241.14958541700616 62.00011962139979,242.25987411732785 59.9537303969264,245.59073483082466 59.209588861092925,247.4075645408593 58.74450040049851,249.02252226427663 59.11657116888091,250.13280459714588 61.162960392888635,254.57392494869418 62.18615500582382,256.18887424177956 62.9302965416573,257.9047557839658 64.13952653808519,259.5197011587443 64.79065038263798,260.62997500167694 65.62780961068347,263.2542550615035 69.25549959996715,268.19999999995343" stroke="#4dd2ff" stroke-linecap="round" stroke-linejoin="round" stroke-width="0.5"><title>2023-09-16 1.0km</title><desc>9856514700</desc></polyline><polyline fill="none" points="99.55211930256337,235.79999999993015 98.55682886345312,238.82403023878578 97.26295129302889,240.87604721228126 94.57566710747778,246.06007732299622 94.47613806370646,247.24808164674323 94.57566710747778,248.65208551753312 95.17284137103707,250.0560880464036 96.16813181014732,251.56808926910162 97.06389320502058,253.6200884389691 98.65635790722445,256.3200829792768 100.6469387859106,260.1000669983914 100.84599687345326,261.5040585852694 101.5427001803182,262.0440549921477 102.3389325318858,263.1240472102072 103.63281010231003,265.28402926470153 105.02621671697125,266.47201804071665 105.32480384875089,267.2280103979865 105.52386193629354,268.19999999995343" stroke="#4dd2ff" stroke-linecap="round" stroke-linejoin="round" stroke-width="0.5"><title>2023-09-15 1.0km</title><desc>9850671982</desc></polyline><polyline fill="none" points="136.82368760975078,235.79999999993015 135.17631239024922,240.15728158608545 133.3230152684264,242.83867942832876 132.4993276586756,244.2911012840923 131.26379624428228,247.41938979644328 130.95491339080036,248.53663413296454 130.95491339080036,249.43042901018634 131.26379624428228,250.5476718681166 132.4993276586756,253.8993955127662 133.6318981219083,256.13387383532245 136.41184380510822,260.9379911024589 137.54441426787525,263.0607357544359 137.75033617019653,264.2896918291226 138.5740237799473,265.07175426813774 139.9125161455013,267.1944931454491 141.04508660873398,268.19999999995343" stroke="#4dd2ff" stroke-linecap="round" stroke-linejoin="round" stroke-width="0.5"><title>2023-09-14 1.0km</title><desc>9844236351</desc></polyline><polyline fill="none" points="166.85064415354282,235.79999999998836 167.44337576208636,236.2823891742737 167.66565011488274,236.76477813575184 167.81383301736787,237.80995348858414 168.25838172296062,238.69433185324306 168.55474752746522,241.18666703207418 168.55474752746522,242.39263362740166 168.40656462544575,243.03581526770722 168.55474752746522,243.83979178627487 168.92520478228107,244.8045628281543 168.77702188072726,245.60853804612998 168.85111333150417,246.01052543340484 169.59202784160152,247.37728144496214 170.25885090092197,249.38721365272067 170.85158250899985,250.51277407538146 171.59249701956287,251.55793628748506 172.4075029809028,252.28150954138255 172.62977733369917,252.76389144471614 172.8520516869612,253.80905150528997 173.44478329550475,254.85421056690393 174.11160635435954,256.7837323639542 175.00070376647636,258.47206114354776 175.44525247300044,259.9191980228643 175.6675268257968,261.12514395912876 176.1120755323209,262.0898997509503 176.92708149319515,264.7429737892817 178.03845325903967,266.8332700136234 178.11254471028224,267.1548536934424 178.03845325903967,267.39604139130097 177.14935584645718,268.20000000001164 177.5939045525156,267.87841662741266 177.81617890577763,267.39604139130097 177.9643618077971,266.99406186537817 177.8902703570202,266.4312902807724 177.4457216509618,265.86851840640884 176.1120755323209,262.9742584787309 175.44525247300044,260.8035585061298 174.03751490358263,257.6680953829782 173.37069184426218,254.61302010295913 173.00023458898067,253.7286546131363 171.59249701956287,251.8795244594803 170.1847594496794,249.22641921206377 169.51793639035895,247.05569194891723 169.29566203802824,245.60853804612998 168.7029304294847,244.08098462660564 167.51746721332893,241.50825825420907 167.22110140882432,240.3022906834376 166.18382109422237,238.37273980339523 165.961546741426,237.32756498840172 165.88745529018342,236.04119461379014" stroke="#4dd2ff" stroke-linecap="round" stroke-linejoin="round" stroke-width="0.5"><title>2023-09-13 1.0km</title><desc>9837636972</desc></polyline></svg>