<?xml version="1.0" encoding="utf-8" ?>
<svg baseProfile="full" height="300mm" version="1.1" viewBox="0,0,200,300" width="200mm" xmlns="http://www.w3.org/2000/svg" xmlns:ev="http://www.w3.org/2001/xml-events" xmlns:xlink="http://www.w3.org/1999/xlink"><defs /><rect fill="#222222" height="300" width="200" x="0" y="0" /><text fill="#FFFFFF" style="font-size:12px; font-family:Arial; font-weight:bold;" x="10" y="20">Over 1km Runs</text><text fill="#FFFFFF" style="font-size:4px; font-family:Arial" x="10" y="280">ATHLETE</text><text fill="#FFFFFF" style="font-size:9px; font-family:Arial" x="10" y="290">Jiakai</text><text fill="#FFFFFF" style="font-size:4px; font-family:Arial" x="120" y="280">STATISTICS</text><text fill="#FFFFFF" style="font-size:3px; font-family:Arial" x="120" y="285">Number: 51</text><text fill="#FFFFFF" style="font-size:3px; font-family:Arial" x="120" y="290">Weekly: 5.7</text><text fill="#FFFFFF" style="font-size:3px; font-family:Arial" x="141" y="285">Total: 53.1 km</text><text fill="#FFFFFF" style="font-size:3px; font-family:Arial" x="141" y="290">Avg: 1.0 km</text><text fill="#FFFFFF" style="font-size:3px; font-family:Arial" x="167" y="285">Min: 1.0 km</text><text fill="#FFFFFF" style="font-size:3px; font-family:Arial" x="167" y="290">Max: 1.5 km</text><polyline fill="none" points="17.761661020107567,32.066161181544885 20.63191645499319,34.26464343466796 22.320302004925907,37.195950087858364 22.826817669905722,38.295189193915576 22.826817669905722,39.944046943914145 24.68404177390039,45.62343750917353 25.359395993873477,48.92114222049713 26.71010443381965,52.5852534477599 27.047781542874873,54.417307041352615 27.891974317841232,55.33333333325572 28.398489982821047,55.15012810193002 28.905005647800863,54.417307041352615 27.047781542874873,53.13486966746859 24.008687553927302,48.737936517456546 20.463077899999917,39.02801499539055 19.618885125033557,33.531816232483834 18.7746923500672,31.333333333255723" stroke="#4dd2ff" stroke-linecap="round" stroke-linejoin="round" stroke-width="0.5"><title>2023-11-09 1.0km</title><desc>10185506531</desc></polyline><polyline fill="none" points="49.318122637458146,33.26034955796786 51.09400715492666,36.764011427992955 51.73978334199637,38.515840431209654 53.8385559534654,43.07058981247246 54.64577618800104,46.22387274494395 54.48433214146644,44.296867003897205 54.80722023546696,45.523143564816564 55.45299642253667,50.25306153064594 56.905992846004665,54.63260683231056 57.5517690340057,55.33333333325572 58.358989268541336,54.982970108045265 58.681877362541854,54.45742517453618 56.905992846004665,52.88078967761248 55.61444047000259,50.77860739198513 54.80722023546696,48.501241156831384 53.67711190599948,44.64723180048168 52.06267143692821,42.36985970498063 50.2867869194597,38.515840431209654 49.80245477799326,35.71291340794414 49.96389882545918,32.20924999238923 49.641010731458664,31.333333333255723" stroke="#4dd2ff" stroke-linecap="round" stroke-linejoin="round" stroke-width="0.5"><title>2023-11-08 1.0km</title><desc>10179505859</desc></polyline><polyline fill="none" points="83.58397435583174,44.592105784337036 88.99743590969592,55.33333333337214 89.3067765692249,55.16550204181112 88.53342491853982,53.3193570174044 87.14139194786549,50.96971573645715 86.21336996741593,48.62007203756366 84.35732600558549,46.60608979931567 83.73864468652755,45.43126600631513 83.27463369537145,41.40329412650317 82.96529303584248,40.22846765618306 81.10924907401204,37.039649903192185 80.026556763798,31.33333333337214" stroke="#4dd2ff" stroke-linecap="round" stroke-linejoin="round" stroke-width="0.5"><title>2023-11-06 1.0km</title><desc>10167691585</desc></polyline><polyline fill="none" points="113.02607501670718,38.06717103580013 114.13992385938764,40.13911721413024 118.27707670070231,49.63551380787976 120.0274105956778,54.98801133129746 120.34565312135965,55.33333333325572 120.66389564797282,55.33333333325572 120.66389564797282,54.815350311109796 119.39092554245144,52.052772264694795 118.27707670070231,50.49882068531588 118.11795543786138,49.63551380787976 117.16322785895318,48.599545136559755 114.45816638506949,43.937680459348485 111.27574112266302,35.82256061350927 110.00277101807296,31.333333333255723" stroke="#4dd2ff" stroke-linecap="round" stroke-linejoin="round" stroke-width="0.5"><title>2023-11-05 1.1km</title><desc>10161301187</desc></polyline><polyline fill="none" points="141.51231998298317,31.333333333255723 144.71780570875853,38.463793540606275 146.1602742858231,44.72466770885512 148.40411429479718,49.072487242752686 149.20548572670668,52.550737116718665 150.00685715768486,55.33333333325572 150.48768001701683,54.811596791958436 150.3274057302624,54.28986013564281 148.24384000804275,50.46378780622035 148.08356572128832,49.94205019087531 146.1602742858231,46.98553486401215 145.3589028539136,44.20292882760987 143.27533713262528,40.376840183278546 142.79451427329332,37.07248591980897 141.8328685555607,33.594213287346065" stroke="#4dd2ff" stroke-linecap="round" stroke-linejoin="round" stroke-width="0.5"><title>2023-11-04 1.0km</title><desc>10155501797</desc></polyline><polyline fill="none" points="183.10567467752844,34.97892091772519 181.28595502208918,32.54852991004009 180.1661275420338,31.789032133412547 177.926472581923,31.33333333337214 175.82679605670273,31.485232944833115 172.88724892074242,32.85232894227374 171.62744300579652,34.06752462522127 170.50761552574113,36.34601460280828 170.2276586559601,38.16880477545783 169.80772335082293,44.24476039852016 170.08768022060394,50.624494565068744 170.36763709085062,51.53588355181273 171.7674214411527,53.81435425858945 173.44716266170144,55.029537607799284 176.24673136183992,55.33333333337214 178.76634319219738,54.27004809852224 181.14597658766434,51.38398541533388 181.84586876258254,50.01690168399364 182.82571780774742,45.6118479501456 182.82571780774742,42.11817796342075 183.52560998266563,37.56120822974481 183.38563154777512,35.89031680836342 181.84586876258254,34.06752462522127 180.58606284717098,33.15612792992033 177.64651571167633,31.789032133412547 176.10675292648375,31.789032133412547 172.74727048678324,32.85232894227374 171.207507701125,34.21942403516732 170.2276586559601,36.042216084199026 169.94770178571343,37.25740989029873 170.2276586559601,42.27007678162772 169.94770178571343,44.54855771025177" stroke="#4dd2ff" stroke-linecap="round" stroke-linejoin="round" stroke-width="0.5"><title>2023-11-03 1.0km</title><desc>10152446508</desc></polyline><polyline fill="none" points="18.36618652381003,58.0 19.678263039328158,60.847468513064086 20.80290005262941,65.93222642457113 22.677295076660812,69.59324633446522 25.488887608982623,76.91527161956765 26.051206116564572,78.13560728332959 26.98840362764895,81.38983308756724 27.5507221352309,82.0 28.3004801440984,82.0 28.3004801440984,81.59322207327932 26.98840362764895,80.9830550714396 26.426085120998323,79.55933154374361 25.114008605480194,78.33899650815874 24.176811094395816,75.69493541796692 22.864734577946365,73.6610405521933 21.36521856021136,70.6101954493206 19.678263039328158,64.30510490969755 18.553626025095582,61.66103040683083" stroke="#4dd2ff" stroke-linecap="round" stroke-linejoin="round" stroke-width="0.5"><title>2023-11-02 1.1km</title><desc>10144903556</desc></polyline><polyline fill="none" points="49.913005399517715,59.73913861718029 50.233553995378315,61.65218962007202 51.51574837975204,64.60871994472109 53.75958855263889,72.60872464999557 57.60617170762271,80.60870230058208 58.72809179406613,82.0 58.08699460234493,79.91305314423516 55.68288013059646,76.2608917162288 54.400685746222734,71.56524730962701 52.79794276505709,69.30437816050835 50.874651187099516,65.13046020688489 49.27190820593387,58.0" stroke="#4dd2ff" stroke-linecap="round" stroke-linejoin="round" stroke-width="0.5"><title>2023-11-01 1.0km</title><desc>10138966680</desc></polyline><polyline fill="none" points="81.1743749640882,58.36090399394743 82.0058729890734,61.06768225389533 83.33626982849091,68.2857430211734 85.49816469103098,72.97747113718651 86.82856152951717,77.30828913021833 88.99045639298856,82.0 89.15675599779934,81.81954974750988 87.66005955450237,79.65414568618871 85.49816469103098,74.60152877983637 83.66886903718114,71.35341241932474 80.50917654577643,61.78948928578757 80.17657733522356,58.0" stroke="#4dd2ff" stroke-linecap="round" stroke-linejoin="round" stroke-width="0.5"><title>2023-10-31 1.0km</title><desc>10133123337</desc></polyline><polyline fill="none" points="111.56510774884373,60.84445688710548 112.38428722321987,65.11113594425842 112.38428722321987,66.7111386496108 114.18648206815124,69.73336309357546 119.10155891720206,80.22223039111122 119.92073839250952,81.82222309778444 120.24841018207371,82.0 116.48018459789455,74.53335885866545 114.84182564821094,69.91114088450558 113.03963080327958,66.17780453222804 110.41825648397207,58.0" stroke="#4dd2ff" stroke-linecap="round" stroke-linejoin="round" stroke-width="0.5"><title>2023-10-30 1.0km</title><desc>10127985445</desc></polyline><polyline fill="none" points="142.2166844070889,61.47370080999099 142.94424509769306,66.36845150659792 143.3807815122418,67.9474009644473 146.29102427652106,74.73687040584628 147.74614565819502,78.68422649335116 149.92882773140445,81.68421226751525 150.51087628491223,82.0 150.6563884220086,81.52631838375237 149.346779178828,79.47369683999568 147.45512138213962,75.36844786733855 144.10834220331162,69.21055969514418 142.7987329591997,64.63160576228984 141.78014799160883,62.57896807184443 141.63463585358113,59.421060101361945 141.34361157752573,58.0" stroke="#4dd2ff" stroke-linecap="round" stroke-linejoin="round" stroke-width="0.5"><title>2023-10-28 1.0km</title><desc>10115543824</desc></polyline><polyline fill="none" points="173.55378420464694,62.977797356667 174.86447155755013,67.24447264941409 176.33899482805282,70.62225191714242 177.649682180956,75.42224591784179 179.61571321077645,80.04445335851051 180.4348928052932,81.82222309848294 181.25407240074128,82.0 181.41790832020342,81.82222309848294 181.09023648127913,80.75556141114794 180.10722096730024,78.08890513516963 176.83050258643925,71.68891807436012 174.20912788063288,64.5778014739044 172.57076868973672,61.02223533159122 171.9154250137508,58.0" stroke="#4dd2ff" stroke-linecap="round" stroke-linejoin="round" stroke-width="0.5"><title>2023-10-27 1.0km</title><desc>10110442644</desc></polyline><polyline fill="none" points="20.080706915818155,88.37256468576379 23.17070201318711,98.7843427869957 24.309121259488165,101.96080847084522 25.44754050578922,103.90197987528518 26.74859107285738,107.6078481967561 27.236485036090016,108.31372722890228 28.212272961623967,108.66666666674428 28.37490428145975,108.13725749030709 28.212272961623967,107.4313784064725 26.585959751158953,105.31373991095461 24.14648993872106,101.07845731358975 21.21912616211921,92.43139880825765 19.26755031105131,89.25492051360197 18.29176238551736,84.66666666674428" stroke="#4dd2ff" stroke-linecap="round" stroke-linejoin="round" stroke-width="0.5"><title>2023-10-26 1.0km</title><desc>10104873905</desc></polyline><polyline fill="none" points="52.7979430295527,96.14495791541412 56.484251072630286,105.36233329516836 58.24726796336472,108.49275449919514 58.88836501352489,108.66666666674428 58.72809075191617,106.92754441476427 54.40068565681577,99.4493041629903 51.996571715921164,93.36234696977772 49.913006300106645,89.0145108141005 49.11163498647511,84.66666666674428" stroke="#4dd2ff" stroke-linecap="round" stroke-linejoin="round" stroke-width="0.5"><title>2023-10-25 1.0km</title><desc>10098978222</desc></polyline><polyline fill="none" points="80.22695145662874,84.66666666674428 80.06550726760179,85.8929498991929 81.03417240455747,89.9221617905423 82.32572592049837,92.54990500560962 83.13294686656445,95.70319303846918 84.58594457153231,99.90757059096359 87.65338417049497,105.8637594259344 88.62204930745065,108.31630344199948 88.94493768643588,108.66666666674428 89.2678260654211,108.4914850606583 89.10638187546283,106.2141230108682 87.33049579244107,102.88566686934792 86.03894227650017,100.95866382028908 84.42450038157403,97.2798354900442 84.10161200352013,95.35282790777273 82.1642817305401,92.37472221488133 81.03417240455747,89.74697880633175 80.71128402557224,86.59368289145641 80.22695145662874,84.66666666674428" stroke="#4dd2ff" stroke-linecap="round" stroke-linejoin="round" stroke-width="0.5"><title>2023-10-24 1.0km</title><desc>10092835699</desc></polyline><polyline fill="none" points="112.86695484165102,88.8105690763332 115.25377273652703,97.27101379283704 116.36762108746916,99.34295479184948 117.6405906304717,104.52279929211363 119.55004494637251,107.97602261207066 120.34565091133118,108.66666666674428 119.55004494637251,107.80336156650446 118.43619659543037,105.04078311379999 115.57201512251049,101.58755547762848 114.93553035054356,100.37892460590228 114.29904557857662,96.40770450374112 112.38959126267582,92.60913986200467 111.11662171967328,88.6379066221416 110.32101575471461,84.66666666674428" stroke="#4dd2ff" stroke-linecap="round" stroke-linejoin="round" stroke-width="0.5"><title>2023-10-23 1.0km</title><desc>10087395010</desc></polyline><polyline fill="none" points="138.2296600122936,84.7817763366038 138.65397891937755,84.66666666668607 141.67725113290362,84.89688598946668 143.0032477178611,85.24221484659938 143.32148689823225,85.41487921809312 144.01100512268022,85.93287210387643 144.48836389300413,86.50841935275821 145.5491611608304,88.4652768332744 146.0795597950928,90.65234705177136 146.76907801930793,91.80343418597477 147.08731719944626,92.72430267452728 147.82987528690137,94.39337404910475 148.36027392116375,96.11999586381717 149.15587187209167,97.50129057350568 149.5271509157028,97.90416773804463 150.00450968649238,98.70992144505726 150.26970900339074,100.436533738859 150.42882859357633,100.89696304081008 150.85314750066027,101.5300528886728 150.95922722760588,102.50846346461913 151.11834681779146,102.91133805218851 153.4521008071024,108.43645433458732 153.77033998747356,108.66666666668607 153.77033998747356,108.37890124088153 153.29298121691681,107.91847633960424 152.7625825831201,106.65230646455893 152.23218394909054,105.55879447009647 150.80010763718747,101.12717759015504" stroke="#4dd2ff" stroke-linecap="round" stroke-linejoin="round" stroke-width="0.5"><title>2023-10-22 1.5km</title><desc>10080655811</desc></polyline><polyline fill="none" points="172.8494095436763,84.66666666668607 173.6914515560493,85.27581232169177 172.1757759337779,85.03215411340352 174.53349356842227,88.07787656562869 174.7580381052103,88.80884828808485 174.5896297027357,89.41799089725828 173.8037238244433,89.84439045743784 173.57917928765528,90.27078979794169 173.6353154219687,91.00175958534237 174.08440449507907,92.76826724241255 174.5896297027357,94.0474600911839 175.15099104424007,95.99670253874501 176.16144145908765,97.7631995457341 176.32984986156225,98.43324914923869 176.94734733738005,99.52969278604724 177.34030027664267,100.01700060348958 177.39643641049042,100.32156784366816 177.78938934998587,100.68704838427948 178.07007002062164,101.2961822602083 178.46302295988426,102.45353539072676 178.85597589891404,103.24540765379788 178.79983976483345,104.82914990943391 179.52960950881243,106.23015015054261 179.75415404560044,106.90019290678902 180.14710698463023,107.63114802277414 180.82074059452862,108.483928176458 181.15755739971064,108.66666666668607 179.86642631376162,106.83927995129488 179.58574564312585,105.86467205523513 179.02438430138864,104.64641057280824 178.79983976483345,103.85453964880435 178.07007002062164,102.8190149908769 177.45257254480384,101.05252876359737" stroke="#4dd2ff" stroke-linecap="round" stroke-linejoin="round" stroke-width="0.5"><title>2023-10-20 1.4km</title><desc>10069668027</desc></polyline><polyline fill="none" points="18.50402788678184,111.33333333331393 18.618330974364653,112.26357861311408 19.532755674328655,114.49616309825797 19.76136184949428,115.86051737458911 21.647362792864442,120.4496928343433 21.818817424122244,121.06984976516105 21.933120511705056,122.00008430652088 22.16172668663785,122.62024009751622 23.533363736467436,124.54272015171591 24.276333805173635,126.03108879737556 24.73354615503922,127.51945481676375 25.133606961695477,128.3256519807619 25.36221313662827,129.5659538054024 25.647970855468884,130.1861040337826 26.390940923942253,132.10856684442842 26.505244011525065,132.85274482076056 27.59112334274687,135.0852748103789 27.876881061354652,135.33333333331393 28.048335692612454,135.33333333331393 28.162638779962435,135.27131870930316 28.105487236520275,135.2093040808686 26.96245636162348,133.78296636772575 26.448092467850074,132.04655198345426 25.36221313662827,130.06207402452128 25.190758505370468,129.25587852013996 25.076455417787656,127.89154591131955" stroke="#4dd2ff" stroke-linecap="round" stroke-linejoin="round" stroke-width="0.5"><title>2023-10-19 1.3km</title><desc>10064004415</desc></polyline><polyline fill="none" points="48.588183876127005,111.33333333337214 50.94114740751684,114.3971769734053 50.7842831723392,116.60995041404385 51.09801164269447,118.8227217401145 52.196061291731894,122.73761967383325 53.76470364630222,125.29081041237805 55.33334600087255,129.71633435611147 58.47063071094453,134.8226976256119 58.941223417408764,135.33333333337214 59.411816123872995,135.163121443009 57.37258106190711,133.12057778669987 53.60783941112459,125.80144822213333 52.666653998196125,122.56740685773548 49.999961994588375,116.9503769093426" stroke="#4dd2ff" stroke-linecap="round" stroke-linejoin="round" stroke-width="0.5"><title>2023-10-18 1.0km</title><desc>10058081424</desc></polyline><polyline fill="none" points="80.47767871338874,112.78788541769609 81.81815485842526,120.60608821571805 85.3369047390297,129.878808330046 87.68273799214512,134.78788137435913 88.68809510115534,135.33333333325572 89.19077365566045,135.33333333325572 89.52589269168675,134.60606402833946 88.35297606512904,133.1515247754287 86.84494040254503,130.78789666621014 84.8342261845246,126.42426960589364 83.99642859399319,123.87881693197414 80.47767871338874,116.78789923968725 80.14255967736244,115.69698702078313 79.80744064133614,111.33333333325572" stroke="#4dd2ff" stroke-linecap="round" stroke-linejoin="round" stroke-width="0.5"><title>2023-10-17 1.0km</title><desc>10051702317</desc></polyline><polyline fill="none" points="109.97400501649827,111.88718207273632 111.6753790853545,114.84103995375335 114.22744018863887,121.4872074809391 115.58853944391012,124.07182343560271 117.11977610550821,128.87181743606925 118.9912875816226,133.67180226184428 119.67183720879257,134.96410430129617 120.52252424322069,135.33333333325572 120.69266165047884,135.14871882437728 120.52252424322069,134.5948752150871 118.6510127671063,131.82565533788875 116.09895166475326,125.54874564358033 114.22744018863887,121.67182299424894 112.69620352704078,114.47180790826678 111.84551649168134,111.33333333325572" stroke="#4dd2ff" stroke-linecap="round" stroke-linejoin="round" stroke-width="0.5"><title>2023-10-16 1.0km</title><desc>10046279660</desc></polyline><polyline fill="none" points="141.084919356741,111.33333333325572 141.78707373514771,112.85714946663938 142.4892281126231,116.28573248977773 144.06907546240836,121.61907484172843 146.1755385948345,124.85717019881122 148.63307891692966,134.0000058321748 149.51077188923955,134.9523826886434 150.7395420493558,135.33333333325572 150.9150806441903,134.9523826886434 150.7395420493558,133.80953041883186 148.45754032209516,130.57144625065848 147.2287701619789,126.76193028269336 145.82446140702814,124.47621801379137 142.4892281126231,116.6666858792305 141.26045795250684,111.33333333325572" stroke="#4dd2ff" stroke-linecap="round" stroke-linejoin="round" stroke-width="0.5"><title>2023-10-15 1.0km</title><desc>10039610121</desc></polyline><polyline fill="none" points="171.67230942752212,113.07527618063614 172.20741913095117,118.68819529376924 173.63437834288925,122.75271545699798 175.41807735711336,125.26884384150617 176.4882967658341,128.75270994286984 179.52058508899063,134.17204804788344 180.2340646935627,134.94623829517514 181.12591420207173,135.33333333325572 181.66102390550077,134.94623829517514 181.66102390550077,134.36559563083574 178.09362587705255,131.46238038968295 175.7748171593994,127.20432557817549 174.882967652753,123.52690906217322 172.74252883531153,118.68819529376924 171.67230942752212,114.62366885575466 171.85067932866514,112.10753029678017 171.67230942752212,111.33333333325572" stroke="#4dd2ff" stroke-linecap="round" stroke-linejoin="round" stroke-width="0.5"><title>2023-10-14 1.0km</title><desc>10033377496</desc></polyline><polyline fill="none" points="17.8916377061978,138.38095411774702 21.05133194103837,142.19049221090972 21.40240907855332,145.0476421045605 24.386564744636416,154.1905005914159 27.19518184196204,160.85714789829217 28.07287468481809,162.0 28.775028959847987,162.0 28.775028959847987,161.4285740123596 28.599490391090512,160.85714789829217 27.019643273204565,159.714295292506 25.264257587492466,156.47621017182246 23.333333333022892,150.3809801430907 19.822561961598694,142.57144571188837 19.29594625532627,139.90477002691478 18.41825341247022,138.0" stroke="#4dd2ff" stroke-linecap="round" stroke-linejoin="round" stroke-width="0.5"><title>2023-10-13 1.0km</title><desc>10028006924</desc></polyline><polyline fill="none" points="48.85042293835431,138.0 50.53880885988474,140.19848289946094 51.55184041336179,142.030550500378 51.720679006539285,144.41223636828363 51.55184041336179,146.97712629567832 53.40906492713839,150.82445623748936 55.60396662633866,156.68704282096587 57.79886832460761,160.71756309713237 58.305384101346135,161.4503842657432 59.14957706164569,162.0 59.14957706164569,161.08397370832972 57.292352547869086,158.70230377395637 55.60396662633866,155.77101457677782 53.40906492713839,149.7252197174821 52.05835619010031,147.34353892738 51.38300182111561,145.32826878875494" stroke="#4dd2ff" stroke-linecap="round" stroke-linejoin="round" stroke-width="0.5"><title>2023-10-12 1.0km</title><desc>10021974100</desc></polyline><polyline fill="none" points="81.86066913604736,141.40299945976585 82.52090384904295,144.98509901948273 82.35584517102689,146.4179373686202 83.84137327503413,151.25376057485119 84.99678402300924,153.40301225171424 86.15219477191567,157.3433020687662 87.80278155487031,161.2835855127778 88.13289891183376,161.6417927823495 88.95819230377674,162.0 88.79313362482935,161.2835855127778 86.97748816292733,156.6268862124998 84.99678402300924,153.2239080176223 82.35584517102689,147.1343562270049 81.69561045709997,144.80599416652694 81.36549310106784,141.40299945976585 80.37514103017747,138.0" stroke="#4dd2ff" stroke-linecap="round" stroke-linejoin="round" stroke-width="0.5"><title>2023-10-10 1.0km</title><desc>10009069592</desc></polyline><polyline fill="none" points="111.26755031011999,141.0000131232664 112.40596955642104,144.17649351945147 113.5443888027221,148.41179417585954 115.98385861702263,153.70590948755853 117.93543446715921,160.41177212051116 119.07385371346027,162.0 119.3991163559258,161.47059082356282 119.56174767576158,159.52942284429446 118.42332843039185,156.1764926367905 115.98385861702263,151.941205680836 113.21912616118789,144.17649351945147 112.40596955642104,140.64707059715874 111.10491898935288,138.0" stroke="#4dd2ff" stroke-linecap="round" stroke-linejoin="round" stroke-width="0.5"><title>2023-10-09 1.0km</title><desc>10003389142</desc></polyline><polyline fill="none" points="141.11349522788078,138.0 142.31368938367814,139.4883787133731 143.51388353761286,142.27908644080162 144.19970876909792,147.860492663458 146.77155338600278,153.44188657589257 149.00048538763076,159.76745146210305 150.0292232343927,161.6279087138828 150.88650477305055,162.0 150.88650477305055,160.51163452723995 147.62883492559195,155.30234847799875 143.34242723044008,144.88374420977198 141.62786415126175,138.18604738730937" stroke="#4dd2ff" stroke-linecap="round" stroke-linejoin="round" stroke-width="0.5"><title>2023-10-08 1.0km</title><desc>9996447828</desc></polyline><polyline fill="none" points="173.58596546761692,142.8000197620131 174.37588885240257,145.71431265352294 176.7456590058282,152.05717282742262 177.53558239061385,154.80002593714744 180.06333721987903,161.1428613960743 180.85326060466468,162.0 181.01124528143555,161.31428914237767 181.01124528143555,160.628578083124 178.00953642092645,155.31431053578854 176.58767432905734,152.22860124101862 174.05991949886084,144.6857391076628 173.26999611407518,140.74286964489147 172.32208805251867,138.0" stroke="#4dd2ff" stroke-linecap="round" stroke-linejoin="round" stroke-width="0.5"><title>2023-10-07 1.0km</title><desc>9989974159</desc></polyline><polyline fill="none" points="21.372530966065824,171.8156288531609 22.62744448054582,175.90074019122403 23.568629616871476,177.9432931577321 25.45099988952279,185.94327492523007 25.92159245721996,187.47518317366485 26.862777593545616,188.66666666662786 27.647098540328443,188.66666666662786 27.96082691848278,187.985819031368 27.803962729871273,187.47518317366485 25.92159245721996,184.75179003051016 24.039222185499966,180.6666943093296 23.41176542825997,177.9432931577321 20.11761745158583,169.94328374776524 19.647024883888662,167.04965651454404 18.705839747563004,164.66666666662786" stroke="#4dd2ff" stroke-linecap="round" stroke-linejoin="round" stroke-width="0.5"><title>2023-10-06 1.0km</title><desc>9984428862</desc></polyline><polyline fill="none" points="48.83311915397644,164.66666666674428 51.55253012571484,171.94537793379277 53.36547077354044,178.0437424001284 56.447469875216484,185.71585860056803 57.71652832813561,188.2732257801108 58.26041052304208,188.66666666674428 58.98558678291738,188.66666666674428 59.16688084602356,188.2732257801108 58.62299865204841,187.28962330752984 56.447469875216484,184.14209296857007 55.178411421366036,181.58472184138373 53.00288264360279,175.87980821286328 52.09641232062131,172.9289860459976 49.55829541385174,168.20766381011344 49.55829541385174,166.43716582423076" stroke="#4dd2ff" stroke-linecap="round" stroke-linejoin="round" stroke-width="0.5"><title>2023-10-04 1.0km</title><desc>9971682885</desc></polyline><polyline fill="none" points="81.03417267184705,167.4695988416206 81.8413935592398,170.27252771984786 82.64861444756389,172.19953941064887 83.29439115803689,175.17764532240108 86.36183053068817,181.30902812676504 86.52327470947057,183.411212884821 87.49193977471441,187.6155768376775 87.81482812948525,188.1411218100693 88.78349319472909,188.66666666674428 88.78349319472909,186.91485002753325 86.68471888732165,183.0608488873113 85.23172128852457,179.7323883411009 84.42450040113181,178.15574751212262 83.61727951280773,175.87837558449246 82.00283773802221,172.54990500560962 81.35706102661788,169.92216179030947 81.03417267184705,167.29441567743197 80.54984013922513,164.66666666674428" stroke="#4dd2ff" stroke-linecap="round" stroke-linejoin="round" stroke-width="0.5"><title>2023-10-03 1.0km</title><desc>9965060084</desc></polyline><polyline fill="none" points="110.94631807692349,165.6584064324852 113.13982570450753,172.7989219862502 113.50541030988097,175.97247838857584 114.78495642635971,177.55925518926233 115.69891793839633,179.93941864091903 117.3440486593172,186.0881645064801 118.62359477579594,188.0716279251501 119.53755628690124,188.66666666674428 119.72034859005362,188.46832043398172 119.17197168245912,186.88155004871078 117.16125635709614,183.1129666438792 113.87099491432309,175.17908963747323 111.86027958802879,169.2286665714346 111.49469498451799,164.66666666674428" stroke="#4dd2ff" stroke-linecap="round" stroke-linejoin="round" stroke-width="0.5"><title>2023-10-02 1.0km</title><desc>9958643020</desc></polyline><polyline fill="none" points="142.19572716299444,168.89068265957758 142.54961300827563,170.61868723342195 146.44235730729997,179.83469231403433 148.38872945681214,185.78667831164785 149.4503869926557,187.89867008221336 150.51204452756792,188.66666666674428 150.6889874516055,188.47466754168272 150.51204452756792,187.70667090103962 146.9731860747561,182.33068809378892 143.61127054411918,174.07469294965267 142.0187842398882,169.08268322446384 141.31101254932582,164.66666666674428" stroke="#4dd2ff" stroke-linecap="round" stroke-linejoin="round" stroke-width="0.5"><title>2023-10-01 1.0km</title><desc>9952075403</desc></polyline><polyline fill="none" points="173.22076875064522,168.14494262379594 174.6632376452908,171.10147316590883 175.3043349320069,174.0580000129994 175.7851578965783,176.84061014070176 178.18927272222936,183.6232086138334 180.27283890359104,187.9710179194808 181.2344848336652,188.66666666674428 181.55503347795457,188.144930125447 178.34954704437405,183.27538352436386 176.90707814879715,179.9710426214151 176.42625518422574,178.23191397683695 174.18241468071938,173.36234696977772 172.90022010728717,167.9710289472714 171.77829985506833,164.66666666674428" stroke="#4dd2ff" stroke-linecap="round" stroke-linejoin="round" stroke-width="0.5"><title>2023-09-30 1.0km</title><desc>9945549317</desc></polyline><polyline fill="none" points="19.617534142918885,191.33333333325572 21.210019510239363,194.0213443012908 21.740847965702415,196.13335097790696 23.156390514224768,199.5893582191784 23.864161789417267,204.77336050593294 24.39499024581164,206.30935920705087 26.51830406859517,211.4933481544722 27.049132524058223,214.75733591639437 27.403018161654472,215.141334208427 27.933846617117524,215.33333333325572 28.11078943591565,214.94933506916277 24.925818701274693,209.18935433751903 22.80250487755984,204.19736076006666 22.094733603298664,201.31736012455076 19.617534142918885,195.55734932702035 18.55587723106146,192.10133674927056" stroke="#4dd2ff" stroke-linecap="round" stroke-linejoin="round" stroke-width="0.5"><title>2023-09-28 1.0km</title><desc>9933629332</desc></polyline><polyline fill="none" points="49.30833004321903,194.06061778985895 50.64880717359483,198.78790372400545 53.16220179293305,202.24245311506093 54.83779820613563,208.42426629760303 57.183633184060454,212.60607233573683 57.85387174971402,214.96969870734029 58.524110313504934,215.33333333325572 58.85922959726304,214.7878813741263 58.524110313504934,214.0606119085569 57.183633184060454,212.24243730842136 53.329761433415115,204.42427129670978 51.31904573831707,198.96972223301418 49.14077040180564,191.33333333325572" stroke="#4dd2ff" stroke-linecap="round" stroke-linejoin="round" stroke-width="0.5"><title>2023-09-27 1.0km</title><desc>9927137811</desc></polyline><polyline fill="none" points="86.66042848909274,191.33333333331393 86.18192565161735,193.6410575414193 85.70342281437479,194.96799588744761 85.33125394093804,196.5833960623131 83.15140768163837,201.14111434057122 82.03490106132813,203.0449635036057 81.82223313348368,203.85265569214243 81.92856709728949,204.48727040010272 82.19440200692043,205.41034542239504 82.99190673581325,207.371876239602 83.25774164544418,207.89110416453332 83.57674353709444,208.81417518266244 84.6400831756182,210.1410878690076 85.11858601309359,211.1795397103415 85.6502558325883,211.98722352588084 86.07559168781154,213.14105610584375 86.71359547111206,214.00642942730337 87.51110020000488,215.33333333331393" stroke="#4dd2ff" stroke-linecap="round" stroke-linejoin="round" stroke-width="0.5"><title>2023-09-26 1.0km</title><desc>9920397094</desc></polyline><polyline fill="none" points="115.22125115059316,191.33333333331393 114.17515078093857,194.81985224795062 113.12905041128397,196.68472993309842 112.15767149627209,197.9009528112947 111.63462131144479,198.87393014802365 111.41045694658533,199.8469066261896 111.48517840122804,201.06312601669924 111.85878567630425,202.03610056336038 112.75544313620776,203.41447970166337 113.12905041128397,204.7928571170778 113.87626496097073,206.5766370970523 115.29597260570154,208.36041419196408 117.68705916497856,213.22524614958093 119.25620971992612,215.33333333331393" stroke="#4dd2ff" stroke-linecap="round" stroke-linejoin="round" stroke-width="0.5"><title>2023-09-25 1.0km</title><desc>9914573673</desc></polyline><polyline fill="none" points="147.76939852442592,191.33333333331393 147.17959901643917,192.22934522503056 147.0616391147487,192.67735082493164 147.17959901643917,193.25335768604418 147.2385789672844,193.82936416583834 146.0589799506124,196.00538520526607 145.7640801963862,197.4773963530315 145.35122054093517,198.5654029926518 142.87406260613352,202.91741595137864 142.8150826555211,203.42941604513908 143.05100245843641,204.4534153297427 143.69978191773407,205.4774134096224 144.05366162280552,206.3734107412747 144.58448117994703,207.26940715062665 144.87938093417324,208.16540263762 145.64612029492855,209.38139503792627 146.2359198029153,210.59738573950017 146.8846992624458,211.30137957975967 147.0616391147487,211.9413734858972 147.47449877043255,212.45336827199208 148.35919803287834,213.98935082380194 149.00797749194317,214.6933419208508 149.1849173444789,215.33333333331393" stroke="#4dd2ff" stroke-linecap="round" stroke-linejoin="round" stroke-width="0.5"><title>2023-09-24 1.0km</title><desc>9907510217</desc></polyline><polyline fill="none" points="177.56138857081532,191.33333333331393 177.06034430442378,192.11004090023926 176.70245554298162,192.8867478959146 176.4877222860232,193.8964661367354 176.4161445335485,195.21686545660486 175.19932274403982,196.84794469096232 174.48354522092268,198.71203216025606 173.8393454500474,199.64407466124976 173.40987893589772,200.8867967170081 173.33830118342303,202.20718729909277 174.84143398259766,206.01300974289188 175.41405600099824,207.17805468878942 177.27507756161503,210.12949613423552 178.06243283697404,212.0712294303812 179.0645213695243,213.31393686670344 179.63714338839054,214.3236355825211 179.99503215006553,215.33333333331393" stroke="#4dd2ff" stroke-linecap="round" stroke-linejoin="round" stroke-width="0.5"><title>2023-09-23 1.0km</title><desc>9901004991</desc></polyline><polyline fill="none" points="24.254897402832285,218.0 23.777049366850406,218.88889908476267 23.299201331101358,220.44447059562663 22.206977248657495,222.74078605504474 21.114753166446462,224.29635161813349 20.159057094482705,226.88895555236377 20.090793089242652,228.29636632249458 20.22732109995559,229.11118218576303 21.59260120242834,232.3704390480416 21.79739321791567,233.33339928498026 22.07044923841022,233.85191595437936 23.026145310141146,235.03709591110237 23.777049366850406,236.51856889599003 24.39142541307956,238.07411318598315 25.41538549028337,239.5555817053537 26.575873577501625,242.0" stroke="#4dd2ff" stroke-linecap="round" stroke-linejoin="round" stroke-width="0.5"><title>2023-09-22 1.0km</title><desc>9895405405</desc></polyline><polyline fill="none" points="55.27224638569169,218.0 55.07651617238298,218.7079731648555 54.68505574646406,219.13275681389496 53.83689148910344,220.69029525690712 53.51067446731031,221.8230489056441 52.53202340146527,224.30094286624808 51.48812893172726,226.42484689992853 50.835694887675345,227.9823735471 50.63996467436664,228.76113592577167 50.63996467436664,229.25671165710082 50.835694887675345,229.96467654500157 51.22715531405993,230.6726409124676 52.07531957118772,232.86732714337995 52.92348382784985,234.42484336928464 53.38018765859306,235.55758086033165 54.22835191548802,236.9735008503776 54.75029915035702,237.61066416668473 55.141759576741606,238.7433979100897 56.185654046945274,240.58408740104642 57.36003532563336,242.0" stroke="#4dd2ff" stroke-linecap="round" stroke-linejoin="round" stroke-width="0.5"><title>2023-09-21 1.0km</title><desc>9889267953</desc></polyline><polyline fill="none" points="87.11016508284956,218.0 86.25368110183626,220.56951311294688 85.74986699549481,222.59231506095966 84.94376442488283,224.2870908343466 83.98651762283407,227.12993184349034 82.32393107120879,230.24611046235077 81.87049837550148,231.94086878962116 81.9208797859028,232.32355561922304 82.2231682499405,233.14359816221986 82.87812658865005,234.5650030944962 83.28117787372321,235.76772822253406 84.28880608663894,237.18912813829957 84.89338301448151,238.33717993297614 85.24605288892053,239.1572158439085 85.64910417399369,239.86791290179826 86.30406251270324,240.35993354400853 87.11016508284956,241.56264929880854 87.16054649371654,241.7813246815349 87.46283495775424,242.0" stroke="#4dd2ff" stroke-linecap="round" stroke-linejoin="round" stroke-width="0.5"><title>2023-09-20 1.0km</title><desc>9882714971</desc></polyline><polyline fill="none" points="117.32333736913279,218.0 116.8116220459342,219.29564734915039 115.84504865691997,222.1337250273209 115.7881913986057,223.0591830642661 115.44704784965143,223.5527602666407 115.04904704261571,224.4782167383819 114.8216180098243,225.34197519125883 114.36675994447432,226.51421738340287 113.05904300673865,228.61190985055873 112.71789945755154,229.8458441462717 112.60418494138867,230.95638346107444 112.71789945755154,232.0669213059009 113.05904300673865,233.3008505209582 113.45704381354153,234.16459989198484 114.7079034934286,236.32396942953346 115.33333333348855,237.18771568854572 115.90190591500141,238.73011751146987 116.47047849674709,239.71725319017423 117.03905107825994,240.51930007420015 117.66448091808707,241.13625869411044 118.06248172535561,242.0" stroke="#4dd2ff" stroke-linecap="round" stroke-linejoin="round" stroke-width="0.5"><title>2023-09-19 1.0km</title><desc>9876194288</desc></polyline><polyline fill="none" points="145.82334216265008,218.0 145.39936335291713,218.6901035591727 144.69273200351745,220.07030930777546 144.48074259841815,220.9904454583302 143.20880616898648,223.21410447073868 142.2195222794544,225.28440342692193 142.0075328743551,226.05117977509508 142.07819600962102,226.8946331066545 142.5021748195868,227.96811817889102 143.13814303395338,229.11827952973545 143.70344811398536,230.72850328998175 144.48074259841815,232.41540170559892 145.32870021788403,233.9489433519775 146.10599470278248,234.94574421300786 147.02461545704864,236.47928213869454 147.58992053684779,238.24284796538996 148.5792044266127,239.77638104296057 149.07384637137875,241.1565588848316 149.99246712587774,242.0" stroke="#4dd2ff" stroke-linecap="round" stroke-linejoin="round" stroke-width="0.5"><title>2023-09-18 1.0km</title><desc>9870505463</desc></polyline><polyline fill="none" points="176.90782364597544,218.0 176.56331367534585,218.67290491453605 176.08099971688353,220.9159180803108 175.4608817701228,221.96265586442314 175.185273793526,222.78509193880018 173.66942992364056,225.25239617103944 173.11821397091262,226.59819595626323 172.77370400028303,227.79446093650768 173.049311976647,228.61689229420153 174.56515584653243,231.9066110731801 175.3230777818244,233.10286980879027 175.87429373455234,234.37389317329507 176.77001965767704,235.57014900649665 177.25233361660503,236.39257407537661 177.87245156336576,238.33648523082957 180.55962933320552,242.0" stroke="#4dd2ff" stroke-linecap="round" stroke-linejoin="round" stroke-width="0.5"><title>2023-09-16 1.0km</title><desc>9856514700</desc></polyline><polyline fill="none" points="23.001569853629917,244.66666666668607 22.26431767642498,246.90668906579958 21.305889846291393,248.42670163878938 19.315308968536556,252.26672394300113 19.24158375058323,253.14672714582412 19.315308968536556,254.18673001305433 19.757660274859518,255.22673188633053 20.494912451598793,256.34673279197887 21.158439410850406,257.86673217703355 22.338042894378304,259.8667281328235 23.812547248322517,262.66671629523626 23.959997683763504,263.7067100632703 24.47607420757413,264.1067074016901 25.06587594933808,264.90670163731556 26.024303779471666,266.50668834423414 27.056456827092916,267.38668003020575 27.277632480021566,267.9466743689263 27.425082915928215,268.66666666668607" stroke="#4dd2ff" stroke-linecap="round" stroke-linejoin="round" stroke-width="0.5"><title>2023-09-15 1.0km</title><desc>9850671982</desc></polyline><polyline fill="none" points="54.610138970427215,244.66666666668607 53.389861030038446,247.89428265637252 52.017048347275704,249.88050328032114 51.40690937684849,250.95637132163392 50.49170092167333,253.2736220715451 50.26289880787954,254.10121046897257 50.26289880787954,254.76328074838966 50.49170092167333,255.59086805046536 51.40690937684849,258.07362630584976 52.245850461069494,259.7287954335916 54.30506948521361,263.28740081668366 55.14401056896895,264.85980426258175 55.296545311342925,265.77014209574554 55.90668428177014,266.34944760613143 56.89816010789946,267.92184677446494 57.7371011916548,268.66666666668607" stroke="#4dd2ff" stroke-linecap="round" stroke-linejoin="round" stroke-width="0.5"><title>2023-09-14 1.0km</title><desc>9844236351</desc></polyline><polyline fill="none" points="80.85232900246046,244.66666666668607 81.29138945299201,245.02399198093917 81.45603712205775,245.38131713756593 81.56580223469064,246.15552110265708 81.89509757235646,246.81061618757667 82.11462779785506,248.65679039410315 82.11462779785506,249.5500989832217 82.00486268522218,250.02652982791187 82.11462779785506,250.6220679898397 82.38904057932086,251.33671320602298 82.27927546692081,251.93225040455582 82.33415802312084,252.2300188395311 82.88298358628526,253.242430699931 83.37692659324966,254.7312693723943 83.81598704354838,255.56501783360727 84.3648126067128,256.3392120648059 84.96852072631009,256.87519225286087 85.133168395143,257.2325121812755 85.29781606420875,258.0067048187484 85.73687651474029,258.7808967162273 86.23081952147186,260.21017212141305 86.88941019726917,261.4607860322576 87.21870553516783,262.53273927618284 87.38335320423357,263.4260325622745 87.71264854213223,264.1406664822134 88.31635666149668,266.105906510551 89.13959500635974,267.6542740841396 89.1944775627926,267.8924842173583 89.13959500635974,268.0711417713319 88.48100433056243,268.66666666668607 88.81029966846108,268.42845676100114 88.974947337294,268.0711417713319 89.08471244992688,267.7733791595092 89.02982989395969,267.35651131905615 88.7005345558282,266.93964326399146 87.71264854213223,264.7957470212714 87.21870553516783,263.18782111565815 86.17593696527183,260.8652558392496 85.68199395830743,258.6022371132858 85.40758117684163,257.947151565284 84.3648126067128,256.5774255255237 83.3220440368168,254.61216237925692 82.8281010298524,253.0042162584723 82.66345336125232,251.93225040455582 82.22439291048795,250.80072935303906 81.34627200942487,248.89500611420954 81.1267417841591,248.0016968025011 80.3583859957289,246.572399854369 80.19373832666315,245.7981962877093 80.13885577046312,244.8453293435159" stroke="#4dd2ff" stroke-linecap="round" stroke-linejoin="round" stroke-width="0.5"><title>2023-09-13 1.0km</title><desc>9837636972</desc></polyline></svg>