<svg xmlns="http://www.w3.org/2000/svg" xmlns:ev="http://www.w3.org/2001/xml-events" xmlns:xlink="http://www.w3.org/1999/xlink" width="200mm" height="300mm" baseProfile="full" version="1.1" viewBox="0 0 200 300"><rect width="200" height="300" x="0" y="0" fill="#222"/><text fill="#FFF" style="font-size:12px;font-family:Arial;font-weight:700" x="10" y="20">Over 1km Runs</text><text fill="#FFF" style="font-size:4px;font-family:Arial" x="10" y="280">ATHLETE</text><text fill="#FFF" style="font-size:9px;font-family:Arial" x="10" y="290">Jiakai</text><text fill="#FFF" style="font-size:4px;font-family:Arial" x="120" y="280">STATISTICS</text><text fill="#FFF" style="font-size:3px;font-family:Arial" x="120" y="285">Number: 66</text><text fill="#FFF" style="font-size:3px;font-family:Arial" x="120" y="290">Weekly: 6.0</text><text fill="#FFF" style="font-size:3px;font-family:Arial" x="141" y="285">Total: 68.4 km</text><text fill="#FFF" style="font-size:3px;font-family:Arial" x="141" y="290">Avg: 1.0 km</text><text fill="#FFF" style="font-size:3px;font-family:Arial" x="167" y="285">Min: 1.0 km</text><text fill="#FFF" style="font-size:3px;font-family:Arial" x="167" y="290">Max: 1.5 km</text><polyline fill="none" stroke="#4dd2ff" stroke-linecap="round" stroke-linejoin="round" stroke-width=".5" points="18.067 31.2 19.672 35.381 21.117 41.303 22.562 44.613 22.883 46.703 23.686 48.619 25.451 51.929 26.254 52.8 26.575 52.8 24.167 47.574 23.846 45.832 22.241 43.568 19.03 34.858 17.425 31.897"><title>2023-11-25 1.0km</title><desc>10275889695</desc></polyline><polyline fill="none" stroke="#4dd2ff" stroke-linecap="round" stroke-linejoin="round" stroke-width=".5" points="43.814 31.402 44.93 36.449 50.139 50.579 51.442 52.598 52 52.8 52.186 52.194 50.325 49.772 48.093 43.11 46.605 40.082 45.675 34.228 44.558 31.2"><title>2023-11-24 1.0km</title><desc>10271180196</desc></polyline><polyline fill="none" stroke="#4dd2ff" stroke-linecap="round" stroke-linejoin="round" stroke-width=".5" points="71.314 33.6 71.788 34.971 72.894 40.8 75.58 49.029 76.844 52.457 77.318 52.8 77.95 52.8 78.108 52.457 77.792 50.743 76.054 45.771 71.472 35.829 69.892 31.2"><title>2023-11-23 1.0km</title><desc>10265414399</desc></polyline><polyline fill="none" stroke="#4dd2ff" stroke-linecap="round" stroke-linejoin="round" stroke-width=".5" points="98.108 36.068 98.248 38.197 98.808 41.544 101.051 47.932 101.752 50.975 102.874 52.8 103.715 52.8 103.575 51.887 102.033 47.932 100.771 45.955 98.949 40.327 96.846 34.546 96.285 31.2"><title>2023-11-21 1.0km</title><desc>10253878272</desc></polyline><polyline fill="none" stroke="#4dd2ff" stroke-linecap="round" stroke-linejoin="round" stroke-width=".5" points="123.675 37.034 124.402 41.764 127.453 49.489 128.761 52.327 129.197 52.8 129.487 52.642 129.632 52.327 129.051 49.804 126.436 44.128 125.419 41.133 123.821 34.984 122.949 33.407 122.368 31.2"><title>2023-11-20 1.0km</title><desc>10248671423</desc></polyline><polyline fill="none" stroke="#4dd2ff" stroke-linecap="round" stroke-linejoin="round" stroke-width=".5" points="148.155 33 150.266 37.582 150.869 42.327 152.528 46.091 154.187 50.836 154.941 51.982 155.845 52.8 155.695 51.491 153.131 44.782 151.472 38.727 149.813 34.8 148.909 31.2"><title>2023-11-19 1.0km</title><desc>10242265034</desc></polyline><polyline fill="none" stroke="#4dd2ff" stroke-linecap="round" stroke-linejoin="round" stroke-width=".5" points="173.802 50.446 174.745 47.477 175.123 46.76 175.783 46.351 178.991 45.941 181.349 45.429 182.104 44.815 182.575 44.201 183.141 41.642 182.953 40.823 183.33 40.209 183.047 35.5 182.858 34.885 182.764 33.043 182.575 31.917 181.538 31.609 180.689 32.224 180.877 31.917 181.066 32.224 179.84 31.609 179.745 31.2 179.462 31.405 179.651 31.302 178.991 32.121 179.085 32.019 181.066 33.043 180.594 33.452 179.84 33.759 178.047 34.066 177.953 33.657 178.425 33.452 179.085 33.555 181.066 31.609 183.802 31.712 183.519 31.507 183.141 31.405 182.858 36.319 182.953 37.752 183.236 39.492 183.424 42.461 183.424 43.484 183.141 44.508 182.575 45.122 177.858 45.634 175.689 46.044 174.557 46.863 173.236 48.705 172.481 51.367 172.198 52.8"><title>2023-11-18 1.0km</title><desc>10236386505</desc></polyline><polyline fill="none" stroke="#4dd2ff" stroke-linecap="round" stroke-linejoin="round" stroke-width=".5" points="17.592 55.2 20.72 60.6 21.858 64.611 22.284 66.926 23.137 68.314 25.839 76.183 26.408 76.8 26.408 76.183 25.839 75.411 24.275 70.783 23.422 69.24 23.137 66.617 21.858 63.377 20.436 60.291 20.294 58.594"><title>2023-11-17 1.0km</title><desc>10231268371</desc></polyline><polyline fill="none" stroke="#4dd2ff" stroke-linecap="round" stroke-linejoin="round" stroke-width=".5" points="44.147 55.897 46.234 58.858 46.716 62.865 48.161 66 50.408 74.361 51.853 76.8 51.692 75.406 50.569 73.142 49.766 70.877 48.482 65.477 45.913 60.077 45.11 57.639 44.629 55.2"><title>2023-11-16 1.0km</title><desc>10225818993</desc></polyline><polyline fill="none" stroke="#4dd2ff" stroke-linecap="round" stroke-linejoin="round" stroke-width=".5" points="70.254 55.432 71.324 59.613 73.037 64.258 75.391 68.671 76.247 72.155 77.746 75.174 79.244 76.8 75.391 69.6 73.679 64.258 68.756 55.2"><title>2023-11-15 1.0km</title><desc>10219684298</desc></polyline><polyline fill="none" stroke="#4dd2ff" stroke-linecap="round" stroke-linejoin="round" stroke-width=".5" points="96.183 57.799 98.129 60.235 98.428 63.32 100.674 68.68 102.021 73.227 103.368 76.638 103.966 76.8 103.817 74.851 101.871 72.253 101.123 69.979 99.925 68.517 99.476 66.731 97.231 62.183 96.483 58.935 96.034 55.2"><title>2023-11-14 1.0km</title><desc>10213806154</desc></polyline><polyline fill="none" stroke="#4dd2ff" stroke-linecap="round" stroke-linejoin="round" stroke-width=".5" points="123.115 58.174 124.269 62.557 127.442 70.696 128.164 73.357 129.606 76.33 130.039 76.8 129.173 75.235 127.154 70.383 127.01 69.13 125.567 65.687 123.404 61.774 122.538 59.113 121.961 55.2"><title>2023-11-13 1.0km</title><desc>10208522228</desc></polyline><polyline fill="none" stroke="#4dd2ff" stroke-linecap="round" stroke-linejoin="round" stroke-width=".5" points="149.587 57.655 151.095 62.236 152.905 66 153.96 70.418 155.016 73.527 156.373 76.473 156.977 76.8 157.278 76.145 155.619 72.873 154.714 69.273 151.397 66.164 149.587 63.545 149.286 60.764 146.722 55.2"><title>2023-11-12 1.0km</title><desc>10202270880</desc></polyline><polyline fill="none" stroke="#4dd2ff" stroke-linecap="round" stroke-linejoin="round" stroke-width=".5" points="174.732 59.23 178.297 67.29 179.486 71.319 180.674 74.543 181.417 75.994 182.159 76.8 182.308 76.155 180.971 72.125 178.446 68.257 175.772 62.131 174.732 57.779 173.692 55.2"><title>2023-11-11 1.0km</title><desc>10196068378</desc></polyline><polyline fill="none" stroke="#4dd2ff" stroke-linecap="round" stroke-linejoin="round" stroke-width=".5" points="19.992 82.421 22.437 89.811 24.707 95.874 25.754 99.853 26.453 100.8 26.802 100.421 26.278 98.147 23.659 92.274 21.04 86.779 17.547 81.284 17.198 79.2"><title>2023-11-10 1.0km</title><desc>10191120477</desc></polyline><polyline fill="none" stroke="#4dd2ff" stroke-linecap="round" stroke-linejoin="round" stroke-width=".5" points="42.985 79.86 45.569 81.838 47.088 84.476 47.544 85.466 47.544 86.95 49.216 92.061 49.823 95.029 51.039 98.327 51.343 99.976 52.103 100.8 52.559 100.635 53.015 99.976 51.343 98.821 48.608 94.864 45.417 86.125 44.657 81.179 43.897 79.2"><title>2023-11-09 1.0km</title><desc>10185506531</desc></polyline><polyline fill="none" stroke="#4dd2ff" stroke-linecap="round" stroke-linejoin="round" stroke-width=".5" points="69.786 80.934 71.385 84.088 71.966 85.664 73.855 89.764 74.581 92.601 74.436 90.867 74.726 91.971 75.308 96.228 76.615 100.169 77.197 100.8 77.923 100.485 78.214 100.012 76.615 98.593 75.453 96.701 74.726 94.651 73.709 91.183 72.256 89.133 70.658 85.664 70.222 83.142 70.368 79.988 70.077 79.2"><title>2023-11-08 1.0km</title><desc>10179505859</desc></polyline><polyline fill="none" stroke="#4dd2ff" stroke-linecap="round" stroke-linejoin="round" stroke-width=".5" points="99.026 91.133 103.898 100.8 104.176 100.649 103.48 98.987 102.227 96.873 101.392 94.758 99.722 92.945 99.165 91.888 98.747 88.263 98.469 87.206 96.798 84.336 95.824 79.2"><title>2023-11-06 1.0km</title><desc>10167691585</desc></polyline><polyline fill="none" stroke="#4dd2ff" stroke-linecap="round" stroke-linejoin="round" stroke-width=".5" points="123.923 85.26 124.926 87.125 128.649 95.672 130.225 100.489 130.511 100.8 130.798 100.8 130.798 100.334 129.652 97.847 128.649 96.449 128.506 95.672 127.647 94.74 125.212 90.544 122.348 83.24 121.202 79.2"><title>2023-11-05 1.1km</title><desc>10161301187</desc></polyline><polyline fill="none" stroke="#4dd2ff" stroke-linecap="round" stroke-linejoin="round" stroke-width=".5" points="147.961 79.2 150.846 85.617 152.144 91.252 154.164 95.165 154.885 98.296 155.606 100.8 156.039 100.33 155.895 99.861 154.019 96.417 153.875 95.948 152.144 93.287 151.423 90.783 149.548 87.339 149.115 84.365 148.25 81.235"><title>2023-11-04 1.0km</title><desc>10155501797</desc></polyline><polyline fill="none" stroke="#4dd2ff" stroke-linecap="round" stroke-linejoin="round" stroke-width=".5" points="183.795 82.481 182.157 80.294 181.15 79.61 179.134 79.2 177.244 79.337 174.599 80.567 173.465 81.661 172.457 83.711 172.205 85.352 171.827 90.82 172.079 96.562 172.331 97.382 173.591 99.433 175.102 100.527 177.622 100.8 179.89 99.843 182.031 97.246 182.661 96.015 183.543 92.051 183.543 88.906 184.173 84.805 184.047 83.301 182.661 81.661 181.527 80.841 178.882 79.61 177.496 79.61 174.473 80.567 173.087 81.797 172.205 83.438 171.953 84.532 172.205 89.043 171.953 91.094"><title>2023-11-03 1.0km</title><desc>10152446508</desc></polyline><polyline fill="none" stroke="#4dd2ff" stroke-linecap="round" stroke-linejoin="round" stroke-width=".5" points="17.53 103.2 18.71 105.763 19.723 110.339 21.41 113.634 23.94 120.224 24.446 121.322 25.29 124.251 25.796 124.8 26.47 124.8 26.47 124.434 25.29 123.885 24.783 122.603 23.603 121.505 22.759 119.125 21.578 117.295 20.229 114.549 18.71 108.875 17.698 106.495"><title>2023-11-02 1.1km</title><desc>10144903556</desc></polyline><polyline fill="none" stroke="#4dd2ff" stroke-linecap="round" stroke-linejoin="round" stroke-width=".5" points="44.322 104.765 44.61 106.487 45.764 109.148 47.784 116.348 51.246 123.548 52.255 124.8 51.678 122.922 49.515 119.635 48.361 115.409 46.918 113.374 45.187 109.617 43.745 103.2"><title>2023-11-01 1.0km</title><desc>10138966680</desc></polyline><polyline fill="none" stroke="#4dd2ff" stroke-linecap="round" stroke-linejoin="round" stroke-width=".5" points="70.857 103.525 71.605 105.961 72.803 112.457 74.748 116.68 75.946 120.577 77.891 124.8 78.041 124.638 76.694 122.689 74.748 118.141 73.102 115.218 70.258 106.611 69.959 103.2"><title>2023-10-31 1.0km</title><desc>10133123337</desc></polyline><polyline fill="none" stroke="#4dd2ff" stroke-linecap="round" stroke-linejoin="round" stroke-width=".5" points="96.609 105.76 97.346 109.6 97.346 111.04 98.968 113.76 103.391 123.2 104.129 124.64 104.424 124.8 101.032 118.08 99.558 113.92 97.936 110.56 95.576 103.2"><title>2023-10-30 1.0km</title><desc>10127985445</desc></polyline><polyline fill="none" stroke="#4dd2ff" stroke-linecap="round" stroke-linejoin="round" stroke-width=".5" points="122.595 106.326 123.25 110.732 123.643 112.153 126.262 118.263 127.572 121.816 129.536 124.516 130.06 124.8 130.191 124.374 129.012 122.526 127.31 118.832 124.298 113.29 123.119 109.168 122.202 107.321 122.071 104.479 121.809 103.2"><title>2023-10-28 1.0km</title><desc>10115543824</desc></polyline><polyline fill="none" stroke="#4dd2ff" stroke-linecap="round" stroke-linejoin="round" stroke-width=".5" points="149.198 107.68 150.378 111.52 151.705 114.56 152.885 118.88 154.654 123.04 155.391 124.64 156.129 124.8 156.276 124.64 155.981 123.68 155.096 121.28 152.147 115.52 149.788 109.12 148.314 105.92 147.724 103.2"><title>2023-10-27 1.0km</title><desc>10110442644</desc></polyline><polyline fill="none" stroke="#4dd2ff" stroke-linecap="round" stroke-linejoin="round" stroke-width=".5" points="175.073 106.535 177.854 115.906 178.878 118.765 179.903 120.512 181.074 123.847 181.513 124.482 182.391 124.8 182.537 124.324 182.391 123.688 180.927 121.782 178.732 117.971 176.097 110.188 174.341 107.329 173.463 103.2"><title>2023-10-26 1.0km</title><desc>10104873905</desc></polyline><polyline fill="none" stroke="#4dd2ff" stroke-linecap="round" stroke-linejoin="round" stroke-width=".5" points="20.918 137.53 24.236 145.826 25.823 148.643 26.4 148.8 26.255 147.235 22.361 140.504 20.197 135.026 18.322 131.113 17.6 127.2"><title>2023-10-25 1.0km</title><desc>10098978222</desc></polyline><polyline fill="none" stroke="#4dd2ff" stroke-linecap="round" stroke-linejoin="round" stroke-width=".5" points="44.004 127.2 43.859 128.304 44.731 131.93 45.893 134.295 46.62 137.133 47.927 140.917 50.688 146.277 51.56 148.485 51.85 148.8 52.141 148.642 51.996 146.593 50.397 143.597 49.235 141.863 47.782 138.552 47.491 136.818 45.748 134.137 44.731 131.772 44.44 128.934 44.004 127.2"><title>2023-10-24 1.0km</title><desc>10092835699</desc></polyline><polyline fill="none" stroke="#4dd2ff" stroke-linecap="round" stroke-linejoin="round" stroke-width=".5" points="71.78 130.93 73.928 138.544 74.931 140.409 76.077 145.071 77.795 148.178 78.511 148.8 77.795 148.023 76.793 145.537 74.215 142.429 73.642 141.341 73.069 137.767 71.351 134.348 70.205 130.774 69.489 127.2"><title>2023-10-23 1.0km</title><desc>10087395010</desc></polyline><polyline fill="none" stroke="#4dd2ff" stroke-linecap="round" stroke-linejoin="round" stroke-width=".5" points="93.007 127.304 93.389 127.2 96.11 127.407 97.303 127.718 97.589 127.873 98.21 128.34 98.64 128.858 99.594 130.619 100.072 132.587 100.692 133.623 100.979 134.452 101.647 135.954 102.124 137.508 102.84 138.751 103.174 139.114 103.604 139.839 103.843 141.393 103.986 141.807 104.368 142.377 104.463 143.258 104.607 143.62 106.707 148.593 106.993 148.8 106.993 148.541 106.564 148.127 106.086 146.987 105.609 146.003 104.32 142.014"><title>2023-10-22 1.5km</title><desc>10080655811</desc></polyline><polyline fill="none" stroke="#4dd2ff" stroke-linecap="round" stroke-linejoin="round" stroke-width=".5" points="122.564 127.2 123.322 127.748 121.958 127.529 124.08 130.27 124.282 130.928 124.131 131.476 123.423 131.86 123.221 132.244 123.272 132.902 123.676 134.491 124.131 135.643 124.636 137.397 125.545 138.987 125.697 139.59 126.253 140.577 126.606 141.015 126.657 141.289 127.01 141.618 127.263 142.167 127.617 143.208 127.97 143.921 127.92 145.346 128.577 146.607 128.779 147.21 129.132 147.868 129.739 148.636 130.042 148.8 128.88 147.155 128.627 146.278 128.122 145.182 127.92 144.469 127.263 143.537 126.707 141.947"><title>2023-10-20 1.4km</title><desc>10069668027</desc></polyline><polyline fill="none" stroke="#4dd2ff" stroke-linecap="round" stroke-linejoin="round" stroke-width=".5" points="147.654 127.2 147.756 128.037 148.579 130.047 148.785 131.274 150.483 135.405 150.637 135.963 150.74 136.8 150.946 137.358 152.18 139.088 152.849 140.428 153.26 141.768 153.62 142.493 153.826 143.609 154.083 144.167 154.752 145.898 154.855 146.567 155.832 148.577 156.089 148.8 156.244 148.8 156.346 148.744 156.295 148.688 155.266 147.405 154.803 145.842 153.826 144.056 153.672 143.33 153.569 142.102"><title>2023-10-19 1.3km</title><desc>10064004415</desc></polyline><polyline fill="none" stroke="#4dd2ff" stroke-linecap="round" stroke-linejoin="round" stroke-width=".5" points="173.129 127.2 175.247 129.957 175.106 131.949 175.388 133.94 176.376 137.464 177.788 139.762 179.2 143.745 182.024 148.34 182.447 148.8 182.871 148.647 181.035 146.809 177.647 140.221 176.8 137.311 174.4 132.255"><title>2023-10-18 1.0km</title><desc>10058081424</desc></polyline><polyline fill="none" stroke="#4dd2ff" stroke-linecap="round" stroke-linejoin="round" stroke-width=".5" points="18.23 152.509 19.436 159.545 22.603 167.891 24.714 172.309 25.619 172.8 26.072 172.8 26.373 172.145 25.318 170.836 23.96 168.709 22.151 164.782 21.397 162.491 18.23 156.109 17.928 155.127 17.627 151.2"><title>2023-10-17 1.0km</title><desc>10051702317</desc></polyline><polyline fill="none" stroke="#4dd2ff" stroke-linecap="round" stroke-linejoin="round" stroke-width=".5" points="43.177 151.698 44.708 154.357 47.005 160.338 48.23 162.665 49.608 166.985 51.292 171.305 51.905 172.468 52.67 172.8 52.823 172.634 52.67 172.135 50.986 169.643 48.689 163.994 47.005 160.505 45.627 154.025 44.861 151.2"><title>2023-10-16 1.0km</title><desc>10046279660</desc></polyline><polyline fill="none" stroke="#4dd2ff" stroke-linecap="round" stroke-linejoin="round" stroke-width=".5" points="69.576 151.2 70.208 152.571 70.84 155.657 72.262 160.457 74.158 163.371 76.37 171.6 77.16 172.457 78.266 172.8 78.424 172.457 78.266 171.429 76.212 168.514 75.106 165.086 73.842 163.029 70.84 156 69.734 151.2"><title>2023-10-15 1.0km</title><desc>10039610121</desc></polyline><polyline fill="none" stroke="#4dd2ff" stroke-linecap="round" stroke-linejoin="round" stroke-width=".5" points="95.505 152.768 95.987 157.819 97.271 161.477 98.876 163.742 99.839 166.877 102.569 171.755 103.211 172.452 104.013 172.8 104.495 172.452 104.495 171.929 101.284 169.316 99.197 165.484 98.395 162.174 96.468 157.819 95.505 154.161 95.666 151.897 95.505 151.2"><title>2023-10-14 1.0km</title><desc>10033377496</desc></polyline><polyline fill="none" stroke="#4dd2ff" stroke-linecap="round" stroke-linejoin="round" stroke-width=".5" points="121.102 151.543 123.946 154.971 124.262 157.543 126.948 165.771 129.476 171.771 130.266 172.8 130.898 172.8 130.898 172.286 130.74 171.771 129.318 170.743 127.738 167.829 126 162.343 122.84 155.314 122.366 152.914 121.576 151.2"><title>2023-10-13 1.0km</title><desc>10028006924</desc></polyline><polyline fill="none" stroke="#4dd2ff" stroke-linecap="round" stroke-linejoin="round" stroke-width=".5" points="147.365 151.2 148.885 153.179 149.797 154.827 149.949 156.971 149.797 159.279 151.468 162.742 153.444 168.018 155.419 171.646 155.875 172.305 156.635 172.8 156.635 171.976 154.963 169.832 153.444 167.194 151.468 161.753 150.253 159.609 149.645 157.795"><title>2023-10-12 1.0km</title><desc>10021974100</desc></polyline><polyline fill="none" stroke="#4dd2ff" stroke-linecap="round" stroke-linejoin="round" stroke-width=".5" points="175.475 154.263 176.069 157.487 175.92 158.776 177.257 163.128 178.297 165.063 179.337 168.609 180.823 172.155 181.12 172.478 181.862 172.8 181.714 172.155 180.08 167.964 178.297 164.902 175.92 159.421 175.326 157.325 175.029 154.263 174.138 151.2"><title>2023-10-10 1.0km</title><desc>10009069592</desc></polyline><polyline fill="none" stroke="#4dd2ff" stroke-linecap="round" stroke-linejoin="round" stroke-width=".5" points="18.341 177.9 19.365 180.759 20.39 184.571 22.585 189.335 24.342 195.371 25.366 196.8 25.659 196.324 25.806 194.576 24.781 191.559 22.585 187.747 20.097 180.759 19.365 177.582 18.194 175.2"><title>2023-10-09 1.0km</title><desc>10003389142</desc></polyline><polyline fill="none" stroke="#4dd2ff" stroke-linecap="round" stroke-linejoin="round" stroke-width=".5" points="43.602 175.2 44.682 176.54 45.762 179.051 46.38 184.074 48.694 189.098 50.7 194.791 51.626 196.465 52.398 196.8 52.398 195.46 49.466 190.772 45.608 181.395 44.065 175.367"><title>2023-10-08 1.0km</title><desc>9996447828</desc></polyline><polyline fill="none" stroke="#4dd2ff" stroke-linecap="round" stroke-linejoin="round" stroke-width=".5" points="71.227 179.52 71.938 182.143 74.071 187.851 74.782 190.32 77.057 196.029 77.768 196.8 77.91 196.183 77.91 195.566 75.209 190.783 73.929 188.006 71.654 181.217 70.943 177.669 70.09 175.2"><title>2023-10-07 1.0km</title><desc>9989974159</desc></polyline><polyline fill="none" stroke="#4dd2ff" stroke-linecap="round" stroke-linejoin="round" stroke-width=".5" points="98.235 181.634 99.365 185.311 100.212 187.149 101.906 194.349 102.329 195.728 103.176 196.8 103.882 196.8 104.165 196.187 104.024 195.728 102.329 193.277 100.635 189.6 100.071 187.149 97.106 179.949 96.682 177.345 95.835 175.2"><title>2023-10-06 1.0km</title><desc>9984428862</desc></polyline><polyline fill="none" stroke="#4dd2ff" stroke-linecap="round" stroke-linejoin="round" stroke-width=".5" points="121.35 175.2 123.797 181.751 125.429 187.239 128.203 194.144 129.345 196.446 129.834 196.8 130.487 196.8 130.65 196.446 130.161 195.561 128.203 192.728 127.061 190.426 125.103 185.292 124.287 182.636 122.002 178.387 122.002 176.793"><title>2023-10-04 1.0km</title><desc>9971682885</desc></polyline><polyline fill="none" stroke="#4dd2ff" stroke-linecap="round" stroke-linejoin="round" stroke-width=".5" points="148.731 177.723 149.457 180.245 150.184 181.98 150.765 184.66 153.526 190.178 153.671 192.07 154.543 195.854 154.833 196.327 155.705 196.8 155.705 195.223 153.816 191.755 152.509 188.759 151.782 187.34 151.056 185.291 149.603 182.295 149.021 179.93 148.731 177.565 148.295 175.2"><title>2023-10-03 1.0km</title><desc>9965060084</desc></polyline><polyline fill="none" stroke="#4dd2ff" stroke-linecap="round" stroke-linejoin="round" stroke-width=".5" points="174.052 176.093 176.026 182.519 176.355 185.375 177.506 186.803 178.329 188.945 179.81 194.479 180.961 196.264 181.784 196.8 181.948 196.621 181.455 195.193 179.645 191.802 176.684 184.661 174.874 179.306 174.545 175.2"><title>2023-10-02 1.0km</title><desc>9958643020</desc></polyline><polyline fill="none" stroke="#4dd2ff" stroke-linecap="round" stroke-linejoin="round" stroke-width=".5" points="18.576 203.002 18.895 204.557 22.398 212.851 24.15 218.208 25.105 220.109 26.061 220.8 26.22 220.627 26.061 219.936 22.876 215.098 19.85 207.667 18.417 203.174 17.78 199.2"><title>2023-10-01 1.0km</title><desc>9952075403</desc></polyline><polyline fill="none" stroke="#4dd2ff" stroke-linecap="round" stroke-linejoin="round" stroke-width=".5" points="44.899 202.33 46.197 204.991 46.774 207.652 47.207 210.157 49.37 216.261 51.246 220.174 52.111 220.8 52.4 220.33 49.515 215.948 48.216 212.974 47.784 211.409 45.764 207.026 44.61 202.174 43.6 199.2"><title>2023-09-30 1.0km</title><desc>9945549317</desc></polyline><polyline fill="none" stroke="#4dd2ff" stroke-linecap="round" stroke-linejoin="round" stroke-width=".5" points="70.656 199.2 72.089 201.619 72.567 203.52 73.841 206.63 74.478 211.296 74.955 212.678 76.866 217.344 77.344 220.282 77.663 220.627 78.14 220.8 78.3 220.454 75.433 215.27 73.522 210.778 72.885 208.186 70.656 203.002 69.7 199.891"><title>2023-09-28 1.0km</title><desc>9933629332</desc></polyline><polyline fill="none" stroke="#4dd2ff" stroke-linecap="round" stroke-linejoin="round" stroke-width=".5" points="95.777 201.655 96.984 205.909 99.246 209.018 100.754 214.582 102.865 218.345 103.468 220.473 104.072 220.8 104.373 220.309 104.072 219.655 102.865 218.018 99.397 210.982 97.587 206.073 95.627 199.2"><title>2023-09-27 1.0km</title><desc>9927137811</desc></polyline><polyline fill="none" stroke="#4dd2ff" stroke-linecap="round" stroke-linejoin="round" stroke-width=".5" points="127.794 199.2 127.364 201.277 126.933 202.471 126.598 203.925 124.636 208.027 123.631 209.74 123.44 210.467 123.536 211.039 123.775 211.869 124.493 213.635 124.732 214.102 125.019 214.933 125.976 216.127 126.407 217.062 126.885 217.789 127.268 218.827 127.842 219.606 128.56 220.8"><title>2023-09-26 1.0km</title><desc>9920397094</desc></polyline><polyline fill="none" stroke="#4dd2ff" stroke-linecap="round" stroke-linejoin="round" stroke-width=".5" points="151.899 199.2 150.958 202.338 150.016 204.016 149.142 205.111 148.671 205.987 148.469 206.862 148.537 207.957 148.873 208.832 149.68 210.073 150.016 211.314 150.689 212.919 151.966 214.524 154.118 218.903 155.531 220.8"><title>2023-09-25 1.0km</title><desc>9914573673</desc></polyline><polyline fill="none" stroke="#4dd2ff" stroke-linecap="round" stroke-linejoin="round" stroke-width=".5" points="179.592 199.2 179.062 200.006 178.955 200.41 179.062 200.928 179.115 201.446 178.053 203.405 177.788 204.73 177.416 205.709 175.187 209.626 175.134 210.086 175.346 211.008 175.93 211.93 176.248 212.736 176.726 213.542 176.991 214.349 177.682 215.443 178.212 216.538 178.796 217.171 178.955 217.747 179.327 218.208 180.123 219.59 180.707 220.224 180.866 220.8"><title>2023-09-24 1.0km</title><desc>9907510217</desc></polyline><polyline fill="none" stroke="#4dd2ff" stroke-linecap="round" stroke-linejoin="round" stroke-width=".5" points="22.805 223.2 22.354 223.899 22.032 224.598 21.839 225.507 21.775 226.695 20.679 228.163 20.035 229.841 19.455 230.68 19.069 231.798 19.004 232.986 20.357 236.412 20.873 237.46 22.548 240.117 23.256 241.864 24.158 242.983 24.673 243.891 24.996 244.8"><title>2023-09-23 1.0km</title><desc>9901004991</desc></polyline><polyline fill="none" stroke="#4dd2ff" stroke-linecap="round" stroke-linejoin="round" stroke-width=".5" points="48.829 223.2 48.399 224 47.969 225.4 46.986 227.467 46.003 228.867 45.143 231.2 45.082 232.467 45.205 233.2 46.433 236.133 46.618 237 46.863 237.467 47.724 238.533 48.399 239.867 48.952 241.267 49.874 242.6 50.918 244.8"><title>2023-09-22 1.0km</title><desc>9895405405</desc></polyline><polyline fill="none" stroke="#4dd2ff" stroke-linecap="round" stroke-linejoin="round" stroke-width=".5" points="75.145 223.2 74.969 223.837 74.617 224.219 73.853 225.621 73.56 226.641 72.679 228.871 71.739 230.782 71.152 232.184 70.976 232.885 70.976 233.331 71.152 233.968 71.504 234.605 72.268 236.581 73.031 237.982 73.442 239.002 74.206 240.276 74.675 240.85 75.028 241.869 75.967 243.526 77.024 244.8"><title>2023-09-21 1.0km</title><desc>9889267953</desc></polyline><polyline fill="none" stroke="#4dd2ff" stroke-linecap="round" stroke-linejoin="round" stroke-width=".5" points="102.199 223.2 101.428 225.513 100.975 227.333 100.249 228.858 99.388 231.417 97.892 234.221 97.483 235.747 97.529 236.091 97.801 236.829 98.39 238.109 98.753 239.191 99.66 240.47 100.204 241.503 100.521 242.241 100.884 242.881 101.474 243.324 102.199 244.406 102.244 244.603 102.517 244.8"><title>2023-09-20 1.0km</title><desc>9882714971</desc></polyline><polyline fill="none" stroke="#4dd2ff" stroke-linecap="round" stroke-linejoin="round" stroke-width=".5" points="127.791 223.2 127.33 224.366 126.461 226.92 126.409 227.753 126.102 228.197 125.744 229.03 125.539 229.808 125.13 230.863 123.953 232.751 123.646 233.861 123.544 234.861 123.646 235.86 123.953 236.971 124.311 237.748 125.437 239.692 126 240.469 126.512 241.857 127.023 242.746 127.535 243.467 128.098 244.023 128.456 244.8"><title>2023-09-19 1.0km</title><desc>9876194288</desc></polyline><polyline fill="none" stroke="#4dd2ff" stroke-linecap="round" stroke-linejoin="round" stroke-width=".5" points="151.841 223.2 151.459 223.821 150.823 225.063 150.633 225.891 149.488 227.893 148.598 229.756 148.407 230.446 148.47 231.205 148.852 232.171 149.424 233.206 149.933 234.656 150.633 236.174 151.396 237.554 152.095 238.451 152.922 239.831 153.431 241.419 154.321 242.799 154.766 244.041 155.593 244.8"><title>2023-09-18 1.0km</title><desc>9870505463</desc></polyline><polyline fill="none" stroke="#4dd2ff" stroke-linecap="round" stroke-linejoin="round" stroke-width=".5" points="178.217 223.2 177.907 223.806 177.473 225.824 176.915 226.766 176.667 227.507 175.302 229.727 174.806 230.938 174.496 232.015 174.744 232.755 176.109 235.716 176.791 236.793 177.287 237.937 178.093 239.013 178.527 239.753 179.085 241.503 181.504 244.8"><title>2023-09-16 1.0km</title><desc>9856514700</desc></polyline><polyline fill="none" stroke="#4dd2ff" stroke-linecap="round" stroke-linejoin="round" stroke-width=".5" points="21.701 247.2 21.038 249.216 20.175 250.584 18.384 254.04 18.317 254.832 18.384 255.768 18.782 256.704 19.445 257.712 20.043 259.08 21.104 260.88 22.431 263.4 22.564 264.336 23.028 264.696 23.559 265.416 24.422 266.856 25.351 267.648 25.55 268.152 25.683 268.8"><title>2023-09-15 1.0km</title><desc>9850671982</desc></polyline><polyline fill="none" stroke="#4dd2ff" stroke-linecap="round" stroke-linejoin="round" stroke-width=".5" points="48.549 247.2 47.451 250.105 46.215 251.892 45.666 252.861 44.843 254.946 44.637 255.691 44.637 256.287 44.843 257.032 45.666 259.266 46.421 260.756 48.275 263.959 49.03 265.374 49.167 266.193 49.716 266.715 50.608 268.13 51.363 268.8"><title>2023-09-14 1.0km</title><desc>9844236351</desc></polyline><polyline fill="none" stroke="#4dd2ff" stroke-linecap="round" stroke-linejoin="round" stroke-width=".5" points="70.567 247.2 70.962 247.522 71.11 247.843 71.209 248.54 71.506 249.13 71.703 250.791 71.703 251.595 71.604 252.024 71.703 252.56 71.95 253.203 71.851 253.739 71.901 254.007 72.395 254.918 72.839 256.258 73.234 257.009 73.728 257.705 74.272 258.188 74.42 258.509 74.568 259.206 74.963 259.903 75.408 261.189 76 262.315 76.297 263.279 76.445 264.083 76.741 264.727 77.285 266.495 78.026 267.889 78.075 268.103 78.026 268.264 77.433 268.8 77.729 268.586 77.877 268.264 77.976 267.996 77.927 267.621 77.63 267.246 76.741 265.316 76.297 263.869 75.358 261.779 74.914 259.742 74.667 259.152 73.728 257.92 72.79 256.151 72.345 254.704 72.197 253.739 71.802 252.721 71.012 251.006 70.814 250.202 70.123 248.915 69.974 248.218 69.925 247.361"><title>2023-09-13 1.0km</title><desc>9837636972</desc></polyline></svg>