<?xml version="1.0" encoding="utf-8" ?>
<svg baseProfile="full" height="300mm" version="1.1" viewBox="0,0,200,300" width="200mm" xmlns="http://www.w3.org/2000/svg" xmlns:ev="http://www.w3.org/2001/xml-events" xmlns:xlink="http://www.w3.org/1999/xlink"><defs /><rect fill="#222222" height="300" width="200" x="0" y="0" /><text fill="#FFFFFF" style="font-size:12px; font-family:Arial; font-weight:bold;" x="10" y="20">Over 1km Runs</text><text fill="#FFFFFF" style="font-size:4px; font-family:Arial" x="10" y="280">ATHLETE</text><text fill="#FFFFFF" style="font-size:9px; font-family:Arial" x="10" y="290">Jiakai</text><text fill="#FFFFFF" style="font-size:4px; font-family:Arial" x="120" y="280">STATISTICS</text><text fill="#FFFFFF" style="font-size:3px; font-family:Arial" x="120" y="285">Number: 20</text><text fill="#FFFFFF" style="font-size:3px; font-family:Arial" x="120" y="290">Weekly: 5.0</text><text fill="#FFFFFF" style="font-size:3px; font-family:Arial" x="141" y="285">Total: 20.3 km</text><text fill="#FFFFFF" style="font-size:3px; font-family:Arial" x="141" y="290">Avg: 1.0 km</text><text fill="#FFFFFF" style="font-size:3px; font-family:Arial" x="167" y="285">Min: 1.0 km</text><text fill="#FFFFFF" style="font-size:3px; font-family:Arial" x="167" y="290">Max: 1.0 km</text><polyline fill="none" points="23.780888572335243,32.25 28.36989458836615,44.53282526321709 31.42923193052411,54.823815300129354 36.63010541535914,67.77051138831303 38.77164155431092,72.08606850355864 39.6894427575171,72.75 40.91317769698799,72.75 41.2191114295274,72.08606850355864 40.30131022632122,70.4262393314857 36.63010541535914,65.11478188447654 34.488569274544716,60.799218107247725 30.81736446171999,51.17217635922134 29.287695791572332,46.192663952475414 25.00462351180613,38.22543267952278 25.00462351180613,35.237717328127474" stroke="#4dd2ff" stroke-linecap="round" stroke-linejoin="round" stroke-width="0.5"><title>2023-10-04 1.0km</title><desc>9971682885</desc></polyline><polyline fill="none" points="71.37016638368368,36.979948044987395 72.73235163092613,41.70989052695222 74.0945368790999,44.96172275557183 75.18428507819772,49.987276481464505 80.36058902088553,60.3339849638287 80.63302607089281,63.88142174296081 82.26764836907387,70.97628591349348 82.81252246722579,71.86314305430278 84.44714476540685,72.75 84.44714476540685,69.79380942112766 80.9054631209001,63.29018249735236 78.45352967455983,57.67340532550588 77.09134442545474,55.01282392675057 75.72915917728096,51.16975879855454 73.00478868186474,45.55296469666064 71.9150404818356,41.11864802078344 71.37016638368368,36.684326455695555 70.55285523459315,32.25" stroke="#4dd2ff" stroke-linecap="round" stroke-linejoin="round" stroke-width="0.5"><title>2023-10-03 1.0km</title><desc>9965060084</desc></polyline><polyline fill="none" points="115.09691175445914,33.92356085474603 118.79845587722957,45.97318085189909 119.41537989675999,51.32855728059076 121.57461396977305,54.006243132054806 123.11692402139306,58.0227689568419 125.8930821120739,68.39877760480158 128.05231618322432,71.74587212386541 129.59462623484433,72.75 129.90308824554086,72.41529073240235 128.9777022153139,69.7376157073304 125.58462010324001,63.37813121150248 120.03230391815305,49.98971376335248 116.6392218042165,39.94837483949959 116.02229778468609,32.25" stroke="#4dd2ff" stroke-linecap="round" stroke-linejoin="round" stroke-width="0.5"><title>2023-10-02 1.0km</title><desc>9958643020</desc></polyline><polyline fill="none" points="161.0802895873785,39.378026988124475 161.67747195065022,42.29403470642865 168.2464779559523,57.846043280093 171.530980957672,67.89001965080388 173.32252804934978,71.45400576363318 175.11407514102757,72.75 175.41266632266343,72.42600147658959 175.11407514102757,71.1300071454607 169.14225150085986,62.058036158559844 163.469019042328,48.126044352538884 160.78169840388,39.70202794135548 159.58733367733657,32.25" stroke="#4dd2ff" stroke-linecap="round" stroke-linejoin="round" stroke-width="0.5"><title>2023-10-01 1.0km</title><desc>9952075403</desc></polyline><polyline fill="none" points="26.685047266073525,86.86959067755379 29.119213527068496,91.85873596719466 30.20106519665569,96.84787502186373 31.012453950941563,101.54352961201221 35.06939771864563,112.98916453542188 38.58541565015912,120.32609273889102 40.2081931559369,121.5 40.7491189930588,120.6195695863571 35.33986063674092,112.40220969705842 32.905694376677275,106.82613442349248 32.0943056223914,103.89135483559221 28.307824773713946,95.673960511107 26.144121429882944,86.57611134811305 24.250881006009877,81.0" stroke="#4dd2ff" stroke-linecap="round" stroke-linejoin="round" stroke-width="0.5"><title>2023-09-30 1.0km</title><desc>9945549317</desc></polyline><polyline fill="none" points="71.22958886437118,81.0 73.9169079232961,85.53601850848645 74.81268094107509,89.10002977540717 77.20140899345279,94.93204199522734 78.39577301964164,103.6800458538346 79.29154603928328,106.2720436619129 82.87463811412454,115.02002501068637 83.77041113376617,120.52800435898826 84.3675931468606,121.17600147682242 85.26336616650224,121.5 85.56195717304945,120.85200292943045 80.18731905706227,111.13203544449061 76.60422698035836,102.70804628264159 75.40986295603216,97.84804521035403 71.22958886437118,88.12802698928863 69.43804282695055,82.29600576451048" stroke="#4dd2ff" stroke-linecap="round" stroke-linejoin="round" stroke-width="0.5"><title>2023-09-28 1.0km</title><desc>9933629332</desc></polyline><polyline fill="none" points="114.5828069485724,85.60229252045974 116.84486210625619,93.57958753430285 121.08621552586555,99.4091396315489 123.91378447320312,109.84094937704504 127.87238099891692,116.89774706633762 129.00340857822448,120.88636656850576 130.1344361556694,121.5 130.6999499462545,120.57954981876537 130.1344361556694,119.3522825955879 127.87238099891692,116.28411295777187 121.36897242069244,103.09095781296492 117.9758896837011,93.88640626822598 114.30005005374551,81.0" stroke="#4dd2ff" stroke-linecap="round" stroke-linejoin="round" stroke-width="0.5"><title>2023-09-27 1.0km</title><desc>9927137811</desc></polyline><polyline fill="none" points="170.86447307514027,81.0 170.05699953669682,84.89428460109048 169.2495259991847,87.13349306001328 168.62149102473632,89.85948085505515 164.94300046237186,97.55063044966664 163.05889554088935,100.7633759122109 162.70001841243356,102.12635648041032 162.87945697642863,103.19726880011149 163.3280533864163,104.75495790026616 164.67384261637926,108.06504115427379 165.12243902636692,108.94123827759176 165.66075471881777,110.49892062076833 167.45514035830274,112.73808577889577 168.2626138967462,114.49047326110303 169.15980671718717,115.85343969985843 169.87756097316742,117.80053217848763 170.9541923571378,119.26084965851624 172.29998158710077,121.5" stroke="#4dd2ff" stroke-linecap="round" stroke-linejoin="round" stroke-width="0.5"><title>2023-09-26 1.0km</title><desc>9920397094</desc></polyline><polyline fill="none" points="32.31086131744087,129.75 30.545566943474114,135.63350066856947 28.78027256950736,138.78048176213633 27.14107065042481,140.83285786909983 26.258423463907093,142.47475712478627 25.880146097857505,144.11665493168402 26.006238552276045,146.1690251531545 26.63670082949102,147.8109197007725 28.149810292758048,150.13693449657876 28.78027256950736,152.4629463851452 30.041197121609002,155.4730751013849 32.43695377232507,158.48319894901942 36.471912341192365,166.69260287750512 39.119853902608156,170.25" stroke="#4dd2ff" stroke-linecap="round" stroke-linejoin="round" stroke-width="0.5"><title>2023-09-25 1.0km</title><desc>9914573673</desc></polyline><polyline fill="none" points="80.48586001014337,129.75 79.49057334056124,131.2620200671954 79.29151600645855,132.01802951702848 79.49057334056124,132.99004109529778 79.59010200761259,133.96205202990677 77.59952866705135,137.63408753392287 77.10188533179462,140.1181063457625 76.40518466290087,141.9541175501654 72.22498064814135,149.29813941800967 72.12545198109001,150.1621395762777 72.52356664882973,151.8901383690536 73.61838198639452,153.61813512875233 74.2155539887026,155.1301306260284 75.11131199123338,156.6421245667152 75.6089553264901,158.15411695104558 76.90282799815759,160.20610412652604 77.89811466773972,162.25808843539562 78.99293000577018,163.4460780408699 79.29151600645855,164.52606775751337 79.9882166753523,165.39005895901937 81.48114668065682,167.98202951520216 82.57596201775596,169.17001449142117 82.87454801890999,170.25" stroke="#4dd2ff" stroke-linecap="round" stroke-linejoin="round" stroke-width="0.5"><title>2023-09-24 1.0km</title><desc>9907510217</desc></polyline><polyline fill="none" points="124.00984321301803,129.75 123.16433101380244,131.06069401919376 122.56039372878149,132.37138707446866 122.19803135748953,134.07528660574462 122.0772439003922,136.30346045806073 120.02385713066906,139.0559066660935 118.81598256062716,142.2015542704612 117.72889544675127,143.77437599096447 117.004170704633,145.8714694599621 116.88338324707001,148.09962856734637 119.41991984564811,154.52195394120645 120.38621950149536,156.48796728730667 123.5266933850944,161.46852472657338 124.85535541223362,164.7451996637974 126.54637981113046,166.8422684626421 127.51267946790904,168.54613504558802 128.11661675339565,170.25" stroke="#4dd2ff" stroke-linecap="round" stroke-linejoin="round" stroke-width="0.5"><title>2023-09-23 1.0km</title><desc>9901004991</desc></polyline><polyline fill="none" points="169.05513936746866,129.75 168.24877080647275,131.2500172056025 167.4424022459425,133.87504413025454 165.59927410725504,137.75007646798622 163.75614596856758,140.37509335565846 162.14340884704143,144.75011249468662 162.0282133379951,147.12511816923507 162.25860435608774,148.50011993863154 164.56251452909783,154.00011589366477 164.9081010548398,155.62511129351333 165.36888308962807,156.50010817311704 166.98162021115422,158.5000993499998 168.24877080647275,161.00008501205593 169.2855303841643,163.62506600143388 171.01346301473677,166.12504412792623 172.9717866620049,170.25" stroke="#4dd2ff" stroke-linecap="round" stroke-linejoin="round" stroke-width="0.5"><title>2023-09-22 1.0km</title><desc>9895405405</desc></polyline><polyline fill="none" points="34.646915775723755,178.5 34.316621040925384,179.69470471562818 33.6560315717943,180.41152712341864 32.224754387978464,183.0398732459871 31.674263163469732,184.95139502815437 30.022789489943534,189.1328410867136 28.261217572260648,192.71692914352752 27.16023512277752,195.34525536070578 26.82994038797915,196.65941687475424 26.82994038797915,197.49570092128124 27.16023512277752,198.69039166963194 27.820824591908604,199.88508153974544 29.252101776190102,203.58861455437727 30.683378959540278,206.21692318562418 31.45406667375937,208.12841770180967 32.88534385710955,210.51778268488124 33.76612981595099,211.59299578121863 34.42671928554773,213.50448397314176 36.18829120369628,216.61064748920035 38.17005961155519,219.0" stroke="#4dd2ff" stroke-linecap="round" stroke-linejoin="round" stroke-width="0.5"><title>2023-09-21 1.0km</title><desc>9889267953</desc></polyline><polyline fill="none" points="81.62340357713401,178.5 80.17808685917407,182.83605337806512 79.32790055498481,186.24953166535124 77.9676024671644,189.10946578299627 76.35224848799407,193.90675998595543 73.54663368267938,199.16531140520237 72.78146600862965,202.02521608246025 72.86648463876918,202.67100010742433 73.376596421469,204.0548218988115 74.4818386179395,206.4534427219769 75.16198766184971,208.48304137552623 76.86236027115956,210.8816537334351 77.88258383702487,212.81899113697 78.47771424986422,214.20280173653737 79.15786329330876,215.40210302185733 80.26310548977926,216.23238785553258 81.62340357713401,218.26197069173213 81.70842220820487,218.6309854001738 82.21853399090469,219.0" stroke="#4dd2ff" stroke-linecap="round" stroke-linejoin="round" stroke-width="0.5"><title>2023-09-20 1.0km</title><desc>9882714971</desc></polyline><polyline fill="none" points="125.85813181009144,178.5 124.9946122020483,180.6864049016731 123.3635196085088,185.47566098358948 123.26757298503071,187.037371421 122.69189324602485,187.87028294999618 122.02026688447222,189.43199074605945 121.6364803914912,190.88958313525654 120.86890740599483,192.8677418344887 118.66213507344946,196.40759787289426 118.0864553344436,198.48986199696083 117.89456208841875,200.36389709066134 118.0864553344436,202.23792970378418 118.66213507344946,204.32018525421154 119.33376143500209,205.77776231779717 121.4445871450007,209.4216984123923 122.5,210.87927022448275 123.45946623105556,213.4820733006345 124.41893246304244,215.1478647585027 125.378398694098,216.50131887523457 126.4338115490973,217.54243654641323 127.10543791158125,219.0" stroke="#4dd2ff" stroke-linecap="round" stroke-linejoin="round" stroke-width="0.5"><title>2023-09-19 1.0km</title><desc>9876194288</desc></polyline><polyline fill="none" points="167.20188989909366,178.5 166.48642565775663,179.6645497562131 165.29398525552824,181.9936469568638 164.9362531346269,183.54637671099044 162.78986040968448,187.29880129441153 161.12044384609908,190.79243078292347 160.76271172519773,192.08636587054934 160.88195576611906,193.50969336752314 161.5974200074561,195.32119942689314 162.67061636969447,197.26209670654498 163.62456869194284,199.97934930189513 164.9362531346269,202.82599037827458 166.36718161730096,205.41384190658573 167.67886606045067,207.0959433595417 169.2290385835804,209.68378860899247 170.1829909053631,212.6598059416283 171.85240746941417,215.24764301010873 172.68711575120687,217.57669311820064 174.23728827480227,219.0" stroke="#4dd2ff" stroke-linecap="round" stroke-linejoin="round" stroke-width="0.5"><title>2023-09-18 1.0km</title><desc>9870505463</desc></polyline><polyline fill="none" points="32.90695240255445,227.25 32.325591827277094,228.38552704337053 31.51168702216819,232.17061176057905 30.465237986762077,233.9369817712577 30.000149526633322,235.32484264671803 27.442162996158004,239.48841853858903 26.511986075900495,241.75945567619056 25.930625500623137,243.7781528304331 26.39571396075189,245.16600574646145 28.95370049122721,250.71740618604235 30.23269375693053,252.73609280236997 31.162870676722378,254.88094473001547 32.674408172257245,256.89962644851767 33.48831297783181,258.2874687522417 34.53476201277226,261.5678188269958 39.06937449937686,267.75" stroke="#4dd2ff" stroke-linecap="round" stroke-linejoin="round" stroke-width="0.5"><title>2023-09-16 1.0km</title><desc>9856514700</desc></polyline><polyline fill="none" points="76.94014912797138,227.25 75.69603607943282,231.03003779845312 74.07868911605328,233.59505901532248 70.71958388434723,240.07509665377438 70.59517257940024,241.56010205857456 70.71958388434723,243.31510689703282 71.4660517135635,245.07011005817913 72.71016476256773,246.96011158637702 73.8298665061593,249.52511054871138 75.82044738391414,252.90010372409597 78.3086734819226,257.6250837481348 78.55749609135091,259.38007323176134 79.42837522551417,260.05506874027196 80.42366566462442,261.40505901293363 82.0410126275383,264.1050365809351 83.78277089586481,265.5900225510122 84.15600481070578,266.53501299757045 84.40482742059976,267.75" stroke="#4dd2ff" stroke-linecap="round" stroke-linejoin="round" stroke-width="0.5"><title>2023-09-15 1.0km</title><desc>9850671982</desc></polyline><polyline fill="none" points="123.52960951207206,227.25 121.47039048792794,232.69660198269412 119.1537690856494,236.04834928561468 118.124159574043,237.86387660529 116.57974530570209,241.77423724578694 116.19364173850045,243.1707926663803 116.19364173850045,244.28803626296576 116.57974530570209,245.68458983523306 118.124159574043,249.87424439110328 119.53987265285105,252.66734229424037 123.01480475626886,258.67248887824826 124.4305178350769,261.3259196932195 124.68792021274567,262.8621147866361 125.71752972528338,263.8396928353468 127.39064518222585,266.493116431986 128.80635826149955,267.75" stroke="#4dd2ff" stroke-linecap="round" stroke-linejoin="round" stroke-width="0.5"><title>2023-09-14 1.0km</title><desc>9844236351</desc></polyline><polyline fill="none" points="161.06330519216135,227.25 161.8042197022587,227.85298646788578 162.082062643487,228.45597266976256 162.26729127159342,229.76244186074473 162.82297715405002,230.86791481659748 163.19343440933153,233.98333379009273 163.19343440933153,235.4907920343103 163.00820578169078,236.29476908466313 163.19343440933153,237.2997397328727 163.65650597820058,238.5057035352802 163.47127735055983,239.51067255774979 163.56389166414738,240.0131567917997 164.49003480235115,241.72160180623177 165.3235636265017,244.23401706595905 166.06447813659906,245.64096759422682 166.99062127433717,246.94742035935633 168.00937872566283,247.85188692668453 168.2872216673568,248.45486430590972 168.5650646085851,249.76131438161246 169.3059791191481,251.06776320864446 170.139507942833,253.47966545494273 171.25087970821187,255.59007642942015 171.80656559113413,257.3989975285949 172.08440853236243,258.9064299489837 172.6400944152847,260.1123746887315 173.65885186661035,263.42871723661665 175.04806657368317,266.0415875170147 175.14068088773638,266.44356711686123 175.04806657368317,266.7450517391553 173.93669480783865,267.75 174.4923806907609,267.34802078432404 174.7702236319892,266.7450517391553 174.95545225962996,266.24257733183913 174.86283794604242,265.5391128510237 174.30715206358582,264.83564800804015 172.6400944152847,261.21782309853006 171.80656559113413,258.5044481327059 170.04689362924546,254.58511922881007 169.2133648050949,250.7662751286989 168.75029323622584,249.6608182664495 166.99062127433717,247.3494055743795 165.2309493124485,244.03302401513793 164.39742048829794,241.3196149362484 164.1195775475353,239.51067255774979 163.37866303650662,237.6012307832716 161.8968340163119,234.3853228178341 161.5263767610304,232.87786335428245 160.2297763680108,230.46592475427315 159.9519334267825,229.15945623558946 159.85931911272928,227.55149326729588" stroke="#4dd2ff" stroke-linecap="round" stroke-linejoin="round" stroke-width="0.5"><title>2023-09-13 1.0km</title><desc>9837636972</desc></polyline></svg>