<svg xmlns="http://www.w3.org/2000/svg" xmlns:ev="http://www.w3.org/2001/xml-events" xmlns:xlink="http://www.w3.org/1999/xlink" width="200mm" height="300mm" baseProfile="full" version="1.1" viewBox="0 0 200 300"><rect width="200" height="300" x="0" y="0" fill="#222"/><text fill="#FFF" style="font-size:12px;font-family:Arial;font-weight:700" x="10" y="20">Over 1km Runs</text><text fill="#FFF" style="font-size:4px;font-family:Arial" x="10" y="280">ATHLETE</text><text fill="#FFF" style="font-size:9px;font-family:Arial" x="10" y="290">Jiakai</text><text fill="#FFF" style="font-size:4px;font-family:Arial" x="120" y="280">STATISTICS</text><text fill="#FFF" style="font-size:3px;font-family:Arial" x="120" y="285">Number: 92</text><text fill="#FFF" style="font-size:3px;font-family:Arial" x="120" y="290">Weekly: 5.8</text><text fill="#FFF" style="font-size:3px;font-family:Arial" x="141" y="285">Total: 95.3 km</text><text fill="#FFF" style="font-size:3px;font-family:Arial" x="141" y="290">Avg: 1.0 km</text><text fill="#FFF" style="font-size:3px;font-family:Arial" x="167" y="285">Min: 1.0 km</text><text fill="#FFF" style="font-size:3px;font-family:Arial" x="167" y="290">Max: 1.5 km</text><polyline fill="none" stroke="#4dd2ff" stroke-linecap="round" stroke-linejoin="round" stroke-width=".5" points="17.5 34.309 19.085 38.676 21.037 43.044 22.013 46.75 22.866 49 22.988 49 22.988 48.074 22.378 45.824 21.159 43.044 20.183 40.265 18.597 37.088 17.622 34.176 17.012 32.324 17.378 31"><title>2024-01-03 1.0km</title><desc>10482519748</desc></polyline><polyline fill="none" stroke="#4dd2ff" stroke-linecap="round" stroke-linejoin="round" stroke-width=".5" points="39.224 31.298 42.377 40.521 45.668 48.405 46.353 49 46.49 48.405 46.079 47.364 42.652 40.818 41.418 37.545 39.635 31"><title>2024-01-01 1.0km</title><desc>10470902913</desc></polyline><polyline fill="none" stroke="#4dd2ff" stroke-linecap="round" stroke-linejoin="round" stroke-width=".5" points="73.331 35.408 73.105 35.776 70.736 37.49 69.72 38.592 69.043 39.816 68.592 40.429 68.253 40.551 66.786 40.551 65.432 41.041 63.627 40.918 62.724 40.551 62.16 39.694 61.821 38.959 61.708 37.245 61.37 36.51 60.016 36.51 58.887 36.878 58.775 37 59.226 37.245 59.452 37 58.662 37 58.436 36.755 58.21 35.898 58.098 34.429 58.662 34.551 59.113 35.531 60.129 36.633 60.919 36.633 61.596 36.143 62.16 36.265 62.273 36.02 61.257 33.082 61.031 32.959 59.79 32.837 58.549 32.959 59.339 32.959 58.21 31.735 58.098 31 58.436 31.49 58.775 33.082 59.113 33.816 59.452 35.408 58.775 39.571 59.564 43.367 60.242 44.469 60.354 46.306 61.37 49"><title>2023-12-31 1.5km</title><desc>10466792666</desc></polyline><polyline fill="none" stroke="#4dd2ff" stroke-linecap="round" stroke-linejoin="round" stroke-width=".5" points="86.185 35.273 87.497 39.935 89.287 43.691 90.839 48.094 91.316 49 91.555 49 91.674 47.964 91.197 46.54 89.049 42.137 89.049 40.971 87.497 37.604 87.259 35.014 86.781 33.46 85.469 31"><title>2023-12-30 1.0km</title><desc>10458865202</desc></polyline><polyline fill="none" stroke="#4dd2ff" stroke-linecap="round" stroke-linejoin="round" stroke-width=".5" points="112.407 31 110.141 31.224 108.595 32.23 107.462 33.348 106.947 34.689 106.535 39.944 107.05 45.199 107.256 45.981 107.565 46.652 109.213 48.441 111.068 49 112.51 48.776 114.262 47.658 115.292 46.764 116.322 43.745 116.219 41.398 115.91 39.385 115.704 34.466 115.395 33.236 114.777 32.453 114.056 31.894 112.407 31.559 110.141 31.671 108.492 32.565 107.668 33.571 107.05 35.137 107.05 35.919 107.359 37.82 107.153 39.385"><title>2023-12-29 1.0km</title><desc>10454615358</desc></polyline><polyline fill="none" stroke="#4dd2ff" stroke-linecap="round" stroke-linejoin="round" stroke-width=".5" points="131.772 32.909 133.532 39.182 136.296 47.636 137.176 49 137.302 49 137.302 47.636 135.417 41.909 133.909 38.227 132.903 36.318 131.27 31"><title>2023-12-27 1.0km</title><desc>10441997651</desc></polyline><polyline fill="none" stroke="#4dd2ff" stroke-linecap="round" stroke-linejoin="round" stroke-width=".5" points="153.75 33.318 155.76 37.273 156.766 41.364 158.148 43.955 159.782 48.182 160.285 49 160.536 48.864 159.656 46.273 158.4 44.364 154.378 34.818 154.127 32.227 153.75 31"><title>2023-12-17 1.0km</title><desc>10391591057</desc></polyline><polyline fill="none" stroke="#4dd2ff" stroke-linecap="round" stroke-linejoin="round" stroke-width=".5" points="177.08 34.169 178.481 37.845 180.818 42.408 182.92 48.493 183.388 49 183.505 48.873 183.505 48.366 182.92 46.718 179.766 40.507 178.365 36.704 177.313 32.394 176.495 31"><title>2023-12-16 1.0km</title><desc>10386207035</desc></polyline><polyline fill="none" stroke="#4dd2ff" stroke-linecap="round" stroke-linejoin="round" stroke-width=".5" points="17.568 54.383 18.067 56.684 19.813 61.962 20.811 63.586 22.183 68.053 22.557 69 22.806 69 22.806 67.647 20.935 61.962 18.316 57.902 18.191 56.278 17.443 54.383 17.693 53.165 17.194 51"><title>2023-12-14 1.0km</title><desc>10376526598</desc></polyline><polyline fill="none" stroke="#4dd2ff" stroke-linecap="round" stroke-linejoin="round" stroke-width=".5" points="46.721 52.565 45.793 51.783 44.248 51.112 42.806 51 41.363 51.335 39.509 52.342 38.685 53.46 38.066 55.36 38.066 59.609 38.272 60.95 38.685 62.627 38.375 64.64 38.478 65.422 38.581 65.87 39.612 67.658 41.26 68.888 41.775 69 42.806 69 43.836 69 45.69 68.329 46.721 67.323 47.339 66.205 47.545 63.745 47.648 62.068 47.339 60.056 47.545 57.373 47.442 55.025 47.339 54.242 46.618 52.677 46.309 52.342 45.175 51.559 42.909 51.335 41.466 51.559 40.642 51.894 39.097 53.571 38.478 55.919 38.685 57.484"><title>2023-12-13 1.0km</title><desc>10373769329</desc></polyline><polyline fill="none" stroke="#4dd2ff" stroke-linecap="round" stroke-linejoin="round" stroke-width=".5" points="63.548 53.552 64.786 58.657 66.024 61.343 68.5 68.328 68.995 69 69.242 69 69.366 68.463 68.871 67.657 66.89 64.299 64.043 58.522 63.672 56.776 62.31 53.821 62.062 51"><title>2023-12-12 1.0km</title><desc>10365882163</desc></polyline><polyline fill="none" stroke="#4dd2ff" stroke-linecap="round" stroke-linejoin="round" stroke-width=".5" points="85.067 51 86.352 53.789 88.104 58.225 89.389 60.634 91.258 66.465 91.492 67.986 91.959 69 92.076 68.113 91.842 67.099 89.389 61.521 87.637 58.099 87.17 56.704 86.819 53.789 85.885 51.127"><title>2023-12-11 1.0km</title><desc>10361067591</desc></polyline><polyline fill="none" stroke="#4dd2ff" stroke-linecap="round" stroke-linejoin="round" stroke-width=".5" points="111.789 61.044 114.193 68.348 114.314 68.739 114.794 69 114.915 68.87 114.554 67.957 113.472 65.87 112.27 62.609 108.904 55.826 107.943 51"><title>2023-12-10 1.0km</title><desc>10355395415</desc></polyline><polyline fill="none" stroke="#4dd2ff" stroke-linecap="round" stroke-linejoin="round" stroke-width=".5" points="131.114 52.191 133.188 55.5 134.164 59.603 136.237 65.426 136.969 68.603 137.457 69 137.579 68.868 137.579 68.603 137.335 67.544 134.774 62.382 134.164 60.926 133.798 58.676 133.188 56.956 132.212 55.235 132.09 53.382 130.992 51"><title>2023-12-09 1.0km</title><desc>10350143310</desc></polyline><polyline fill="none" stroke="#4dd2ff" stroke-linecap="round" stroke-linejoin="round" stroke-width=".5" points="155.224 54.493 155.967 57.179 157.576 61.075 159.804 67.522 160.795 69 160.671 67.657 159.928 65.373 157.948 61.881 156.71 58.925 155.348 56.776 154.976 54.627 153.491 51"><title>2023-12-08 1.0km</title><desc>10345303898</desc></polyline><polyline fill="none" stroke="#4dd2ff" stroke-linecap="round" stroke-linejoin="round" stroke-width=".5" points="177.1 51 177.332 51.629 177.796 53.266 178.028 55.531 178.492 57.42 180.116 61.448 181.16 65.098 182.204 67.364 182.436 69 182.668 68.874 182.9 68.622 182.9 68.245 182.32 66.734 180.464 63.587 178.26 57.168 177.68 54.524"><title>2023-12-07 1.0km</title><desc>10340288256</desc></polyline><polyline fill="none" stroke="#4dd2ff" stroke-linecap="round" stroke-linejoin="round" stroke-width=".5" points="16.658 71 17.374 72.683 18.687 78.252 20.597 81.748 22.148 86.022 22.864 88.741 23.222 89 23.342 88.094 23.103 86.928 21.193 82.914 19.881 80.971 19.165 79.547 16.778 71.388"><title>2023-12-06 1.0km</title><desc>10334845031</desc></polyline><polyline fill="none" stroke="#4dd2ff" stroke-linecap="round" stroke-linejoin="round" stroke-width=".5" points="41.198 74.103 41.999 78.2 42.8 81.179 44.745 86.269 45.774 88.628 46.118 89 45.66 86.766 44.516 84.655 43.486 81.676 41.999 78.572 41.313 76.214 40.169 73.731 39.597 71"><title>2023-12-05 1.0km</title><desc>10329306344</desc></polyline><polyline fill="none" stroke="#4dd2ff" stroke-linecap="round" stroke-linejoin="round" stroke-width=".5" points="62.408 72.51 63.22 73.769 64.264 77.42 66.352 82.58 67.396 86.105 68.324 88.119 69.02 89 69.02 88.371 66.004 81.448 64.844 77.545 63.568 74.65 62.64 71"><title>2023-12-04 1.0km</title><desc>10324662812</desc></polyline><polyline fill="none" stroke="#4dd2ff" stroke-linecap="round" stroke-linejoin="round" stroke-width=".5" points="85.445 72.662 86.721 77.508 88.763 82.077 90.166 86.923 91.187 88.862 91.953 89 91.953 88.446 91.06 86.923 89.911 83.6 88.635 81.662 87.742 79.308 86.211 73.769 85.19 71"><title>2023-12-02 1.0km</title><desc>10313350310</desc></polyline><polyline fill="none" stroke="#4dd2ff" stroke-linecap="round" stroke-linejoin="round" stroke-width=".5" points="108.161 71.955 109.418 73.591 110.926 78.773 111.931 83 113.565 87.636 114.57 89 114.696 88.182 114.445 86.545 113.062 83.545 110.926 80.136 109.669 77.545 108.413 71"><title>2023-12-01 1.0km</title><desc>10308709030</desc></polyline><polyline fill="none" stroke="#4dd2ff" stroke-linecap="round" stroke-linejoin="round" stroke-width=".5" points="130.968 71 133.456 79.55 135.945 84.65 137.327 88.4 137.742 89 137.88 88.55 137.327 87.05 135.253 84.2 134.7 82.7 132.627 78.65 131.659 74 130.692 71.3"><title>2023-11-30 1.0km</title><desc>10303537703</desc></polyline><polyline fill="none" stroke="#4dd2ff" stroke-linecap="round" stroke-linejoin="round" stroke-width=".5" points="155.084 74.848 155.884 77.455 156.228 79.566 157.486 82.048 158.859 85.772 160.232 88.752 160.461 89 160.689 88.752 160.461 87.883 159.545 86.269 158.287 82.793 156.456 79.069 155.77 75.097 154.397 72.986 153.596 71"><title>2023-11-29 1.0km</title><desc>10298007687</desc></polyline><polyline fill="none" stroke="#4dd2ff" stroke-linecap="round" stroke-linejoin="round" stroke-width=".5" points="176.897 73.331 178.21 76.698 178.449 79.158 180.119 83.173 181.074 86.799 181.909 88.482 182.745 89 183.103 89 183.342 88.612 183.222 88.094 182.745 87.187 180.835 82.137 178.926 77.734 178.568 75.662 177.733 73.201 176.658 71"><title>2023-11-28 1.0km</title><desc>10292316108</desc></polyline><polyline fill="none" stroke="#4dd2ff" stroke-linecap="round" stroke-linejoin="round" stroke-width=".5" points="19.577 91 20.634 93.866 21.268 96.618 22.113 97.879 23.064 99.713 24.015 102.694 24.86 104.07 24.86 104.758 24.332 105.217 22.641 106.134 21.585 107.051 20.528 107.624 18.943 108.312 16.408 109 15.985 108.885 15.668 108.541 15.14 106.363"><title>2023-11-27 1.0km</title><desc>10287544518</desc></polyline><polyline fill="none" stroke="#4dd2ff" stroke-linecap="round" stroke-linejoin="round" stroke-width=".5" points="41.117 94.902 41.697 96.287 43.089 103.336 44.597 106.986 45.409 108.371 45.989 109 46.105 108.874 45.757 108.245 45.757 107.238 44.829 105.098 43.785 101.573 42.741 99.434 42.045 95.406 40.073 92.259 39.609 91"><title>2023-11-26 1.0km</title><desc>10281488289</desc></polyline><polyline fill="none" stroke="#4dd2ff" stroke-linecap="round" stroke-linejoin="round" stroke-width=".5" points="62.437 91 63.775 94.484 64.979 99.419 66.183 102.177 66.45 103.919 67.119 105.516 68.59 108.274 69.259 109 69.527 109 67.52 104.645 67.253 103.194 65.915 101.306 63.239 94.048 61.902 91.581"><title>2023-11-25 1.0km</title><desc>10275889695</desc></polyline><polyline fill="none" stroke="#4dd2ff" stroke-linecap="round" stroke-linejoin="round" stroke-width=".5" points="85.083 91.168 86.013 95.374 90.354 107.15 91.44 108.832 91.905 109 92.06 108.495 90.509 106.477 88.649 100.925 87.409 98.402 86.634 93.523 85.703 91"><title>2023-11-24 1.0km</title><desc>10271180196</desc></polyline><polyline fill="none" stroke="#4dd2ff" stroke-linecap="round" stroke-linejoin="round" stroke-width=".5" points="109.19 93 109.585 94.143 110.507 99 112.745 105.857 113.798 108.714 114.193 109 114.72 109 114.852 108.714 114.588 107.286 113.14 103.143 109.322 94.857 108.006 91"><title>2023-11-23 1.0km</title><desc>10265414399</desc></polyline><polyline fill="none" stroke="#4dd2ff" stroke-linecap="round" stroke-linejoin="round" stroke-width=".5" points="132.709 95.056 132.825 96.831 133.293 99.62 135.162 104.944 135.746 107.479 136.681 109 137.381 109 137.265 108.239 135.98 104.944 134.928 103.296 133.41 98.606 131.657 93.789 131.19 91"><title>2023-11-21 1.0km</title><desc>10253878272</desc></polyline><polyline fill="none" stroke="#4dd2ff" stroke-linecap="round" stroke-linejoin="round" stroke-width=".5" points="155.206 95.861 155.811 99.803 158.354 106.241 159.443 108.606 159.807 109 160.049 108.869 160.17 108.606 159.686 106.504 157.506 101.774 156.659 99.277 155.327 94.153 154.6 92.839 154.116 91"><title>2023-11-20 1.0km</title><desc>10248671423</desc></polyline><polyline fill="none" stroke="#4dd2ff" stroke-linecap="round" stroke-linejoin="round" stroke-width=".5" points="176.795 92.5 178.555 96.318 179.057 100.273 180.44 103.409 181.822 107.364 182.451 108.318 183.205 109 183.079 107.909 180.943 102.318 179.56 97.273 178.178 94 177.424 91"><title>2023-11-19 1.0km</title><desc>10242265034</desc></polyline><polyline fill="none" stroke="#4dd2ff" stroke-linecap="round" stroke-linejoin="round" stroke-width=".5" points="16.502 127.038 17.288 124.564 17.602 123.967 18.153 123.626 20.825 123.284 22.791 122.858 23.42 122.346 23.813 121.834 24.285 119.701 24.127 119.019 24.442 118.507 24.206 114.583 24.049 114.071 23.97 112.536 23.813 111.597 22.948 111.341 22.241 111.853 22.398 111.597 22.555 111.853 21.533 111.341 21.454 111 21.219 111.171 21.376 111.085 20.825 111.768 20.904 111.682 22.555 112.536 22.162 112.877 21.533 113.133 20.039 113.389 19.961 113.047 20.354 112.877 20.904 112.962 22.555 111.341 24.835 111.427 24.599 111.256 24.285 111.171 24.049 115.265 24.127 116.46 24.363 117.91 24.52 120.384 24.52 121.237 24.285 122.09 23.813 122.602 19.882 123.028 18.074 123.37 17.131 124.052 16.03 125.588 15.401 127.806 15.165 129"><title>2023-11-18 1.0km</title><desc>10236386505</desc></polyline><polyline fill="none" stroke="#4dd2ff" stroke-linecap="round" stroke-linejoin="round" stroke-width=".5" points="39.184 111 41.791 115.5 42.739 118.843 43.094 120.771 43.805 121.929 46.056 128.486 46.53 129 46.53 128.486 46.056 127.843 44.753 123.986 44.042 122.7 43.805 120.514 42.739 117.814 41.554 115.243 41.435 113.829"><title>2023-11-17 1.0km</title><desc>10231268371</desc></polyline><polyline fill="none" stroke="#4dd2ff" stroke-linecap="round" stroke-linejoin="round" stroke-width=".5" points="62.504 111.581 64.243 114.048 64.644 117.387 65.848 120 67.721 126.968 68.925 129 68.791 127.839 67.855 125.952 67.186 124.065 66.116 119.565 63.975 115.065 63.306 113.032 62.905 111"><title>2023-11-16 1.0km</title><desc>10225818993</desc></polyline><polyline fill="none" stroke="#4dd2ff" stroke-linecap="round" stroke-linejoin="round" stroke-width=".5" points="85.45 111.194 86.342 114.677 87.769 118.548 89.731 122.226 90.444 125.129 91.693 127.645 92.941 129 89.731 123 88.304 118.548 84.201 111"><title>2023-11-15 1.0km</title><desc>10219684298</desc></polyline><polyline fill="none" stroke="#4dd2ff" stroke-linecap="round" stroke-linejoin="round" stroke-width=".5" points="108.248 113.165 109.87 115.196 110.119 117.767 111.99 122.233 113.112 126.023 114.235 128.865 114.734 129 114.609 127.376 112.988 125.211 112.364 123.316 111.366 122.098 110.992 120.609 109.121 116.82 108.498 114.113 108.123 111"><title>2023-11-14 1.0km</title><desc>10213806154</desc></polyline><polyline fill="none" stroke="#4dd2ff" stroke-linecap="round" stroke-linejoin="round" stroke-width=".5" points="131.882 113.478 132.843 117.13 135.488 123.913 136.089 126.13 137.291 128.609 137.651 129 136.93 127.696 135.247 123.652 135.127 122.609 133.925 119.739 132.122 116.478 131.401 114.261 130.92 111"><title>2023-11-13 1.0km</title><desc>10208522228</desc></polyline><polyline fill="none" stroke="#4dd2ff" stroke-linecap="round" stroke-linejoin="round" stroke-width=".5" points="155.132 113.045 156.389 116.864 157.897 120 158.777 123.682 159.656 126.273 160.787 128.727 161.29 129 161.541 128.455 160.159 125.727 159.405 122.727 156.64 120.136 155.132 117.955 154.881 115.636 152.744 111"><title>2023-11-12 1.0km</title><desc>10202270880</desc></polyline><polyline fill="none" stroke="#4dd2ff" stroke-linecap="round" stroke-linejoin="round" stroke-width=".5" points="177.277 114.358 180.248 121.075 181.238 124.433 182.228 127.119 182.847 128.328 183.466 129 183.59 128.463 182.476 125.104 180.371 121.881 178.143 116.776 177.277 113.149 176.41 111"><title>2023-11-11 1.0km</title><desc>10196068378</desc></polyline><polyline fill="none" stroke="#4dd2ff" stroke-linecap="round" stroke-linejoin="round" stroke-width=".5" points="18.327 133.684 20.364 139.842 22.255 144.895 23.129 148.211 23.711 149 24.002 148.684 23.565 146.789 21.382 141.895 19.2 137.316 16.289 132.737 15.998 131"><title>2023-11-10 1.0km</title><desc>10191120477</desc></polyline><polyline fill="none" stroke="#4dd2ff" stroke-linecap="round" stroke-linejoin="round" stroke-width=".5" points="38.678 131.55 40.831 133.198 42.097 135.397 42.477 136.221 42.477 137.458 43.87 141.718 44.377 144.191 45.39 146.939 45.643 148.313 46.276 149 46.656 148.863 47.036 148.313 45.643 147.351 43.364 144.053 40.704 136.771 40.071 132.649 39.438 131"><title>2023-11-09 1.0km</title><desc>10185506531</desc></polyline><polyline fill="none" stroke="#4dd2ff" stroke-linecap="round" stroke-linejoin="round" stroke-width=".5" points="62.203 132.445 63.535 135.073 64.019 136.387 65.593 139.803 66.199 142.168 66.078 140.723 66.32 141.642 66.804 145.19 67.894 148.474 68.378 149 68.984 148.737 69.226 148.343 67.894 147.161 66.925 145.584 66.32 143.876 65.472 140.985 64.261 139.277 62.929 136.387 62.566 134.285 62.687 131.657 62.445 131"><title>2023-11-08 1.0km</title><desc>10179505859</desc></polyline><polyline fill="none" stroke="#4dd2ff" stroke-linecap="round" stroke-linejoin="round" stroke-width=".5" points="87.759 140.944 91.82 149 92.052 148.874 91.471 147.49 90.427 145.727 89.731 143.965 88.339 142.455 87.875 141.573 87.527 138.552 87.295 137.671 85.903 135.28 85.091 131"><title>2023-11-06 1.0km</title><desc>10167691585</desc></polyline><polyline fill="none" stroke="#4dd2ff" stroke-linecap="round" stroke-linejoin="round" stroke-width=".5" points="109.698 136.05 110.534 137.604 113.636 144.727 114.949 148.741 115.188 149 115.426 149 115.426 148.612 114.472 146.54 113.636 145.374 113.517 144.727 112.801 143.95 110.772 140.453 108.385 134.367 107.431 131"><title>2023-11-05 1.1km</title><desc>10161301187</desc></polyline><polyline fill="none" stroke="#4dd2ff" stroke-linecap="round" stroke-linejoin="round" stroke-width=".5" points="130.92 131 133.324 136.348 134.406 141.044 136.089 144.304 136.69 146.913 137.291 149 137.651 148.609 137.531 148.217 135.969 145.348 135.848 144.957 134.406 142.739 133.805 140.652 132.242 137.783 131.882 135.304 131.16 132.696"><title>2023-11-04 1.0km</title><desc>10155501797</desc></polyline><polyline fill="none" stroke="#4dd2ff" stroke-linecap="round" stroke-linejoin="round" stroke-width=".5" points="161.972 133.734 160.607 131.911 159.767 131.342 158.088 131 156.513 131.114 154.308 132.139 153.363 133.051 152.524 134.76 152.314 136.127 151.999 140.684 152.209 145.468 152.419 146.152 153.468 147.861 154.728 148.772 156.828 149 158.718 148.203 160.502 146.038 161.027 145.013 161.762 141.709 161.762 139.089 162.287 135.671 162.182 134.418 161.027 133.051 160.082 132.367 157.878 131.342 156.723 131.342 154.203 132.139 153.048 133.165 152.314 134.532 152.104 135.443 152.314 139.203 152.104 140.911"><title>2023-11-03 1.0km</title><desc>10152446508</desc></polyline><polyline fill="none" stroke="#4dd2ff" stroke-linecap="round" stroke-linejoin="round" stroke-width=".5" points="176.275 131 177.259 133.136 178.102 136.949 179.508 139.695 181.617 145.186 182.038 146.102 182.741 148.542 183.163 149 183.725 149 183.725 148.695 182.741 148.237 182.32 147.169 181.336 146.254 180.633 144.271 179.649 142.746 178.524 140.458 177.259 135.729 176.415 133.746"><title>2023-11-02 1.1km</title><desc>10144903556</desc></polyline><polyline fill="none" stroke="#4dd2ff" stroke-linecap="round" stroke-linejoin="round" stroke-width=".5" points="16.935 152.304 17.175 153.739 18.137 155.957 19.82 161.957 22.705 167.957 23.546 169 23.065 167.435 21.262 164.696 20.301 161.174 19.098 159.478 17.656 156.348 16.454 151"><title>2023-11-01 1.0km</title><desc>10138966680</desc></polyline><polyline fill="none" stroke="#4dd2ff" stroke-linecap="round" stroke-linejoin="round" stroke-width=".5" points="40.238 151.271 40.862 153.301 41.859 158.714 43.481 162.233 44.479 165.481 46.1 169 46.225 168.865 45.102 167.241 43.481 163.451 42.109 161.015 39.739 153.842 39.49 151"><title>2023-10-31 1.0km</title><desc>10133123337</desc></polyline><polyline fill="none" stroke="#4dd2ff" stroke-linecap="round" stroke-linejoin="round" stroke-width=".5" points="62.888 153.133 63.503 156.333 63.503 157.533 64.854 159.8 68.54 167.667 69.155 168.867 69.401 169 66.574 163.4 65.346 159.933 63.994 157.133 62.028 151"><title>2023-10-30 1.0km</title><desc>10127985445</desc></polyline><polyline fill="none" stroke="#4dd2ff" stroke-linecap="round" stroke-linejoin="round" stroke-width=".5" points="85.734 153.605 86.28 157.276 86.607 158.461 88.79 163.553 89.881 166.513 91.518 168.763 91.955 169 92.064 168.645 91.082 167.105 89.663 164.026 87.153 159.408 86.17 155.974 85.407 154.434 85.297 152.066 85.079 151"><title>2023-10-28 1.0km</title><desc>10115543824</desc></polyline><polyline fill="none" stroke="#4dd2ff" stroke-linecap="round" stroke-linejoin="round" stroke-width=".5" points="109.094 154.733 110.077 157.933 111.183 160.467 112.166 164.067 113.64 167.533 114.255 168.867 114.869 169 114.992 168.867 114.746 168.067 114.009 166.067 111.551 161.267 109.585 155.933 108.357 153.267 107.865 151"><title>2023-10-27 1.0km</title><desc>10110442644</desc></polyline><polyline fill="none" stroke="#4dd2ff" stroke-linecap="round" stroke-linejoin="round" stroke-width=".5" points="131.846 153.779 134.164 161.588 135.018 163.971 135.871 165.426 136.847 168.206 137.213 168.735 137.945 169 138.067 168.603 137.945 168.074 136.725 166.485 134.896 163.309 132.7 156.824 131.236 154.441 130.505 151"><title>2023-10-26 1.0km</title><desc>10104873905</desc></polyline><polyline fill="none" stroke="#4dd2ff" stroke-linecap="round" stroke-linejoin="round" stroke-width=".5" points="156.241 159.609 159.006 166.522 160.328 168.87 160.809 169 160.689 167.696 157.443 162.087 155.64 157.522 154.078 154.261 153.477 151"><title>2023-10-25 1.0km</title><desc>10098978222</desc></polyline><polyline fill="none" stroke="#4dd2ff" stroke-linecap="round" stroke-linejoin="round" stroke-width=".5" points="176.67 151 176.549 151.92 177.276 154.942 178.244 156.912 178.85 159.277 179.939 162.431 182.24 166.898 182.967 168.737 183.209 169 183.451 168.869 183.33 167.161 181.998 164.664 181.029 163.219 179.818 160.46 179.576 159.015 178.123 156.781 177.276 154.81 177.033 152.445 176.67 151"><title>2023-10-24 1.0km</title><desc>10092835699</desc></polyline><polyline fill="none" stroke="#4dd2ff" stroke-linecap="round" stroke-linejoin="round" stroke-width=".5" points="18.15 174.108 19.94 180.453 20.776 182.007 21.73 185.892 23.163 188.482 23.759 189 23.163 188.353 22.327 186.281 20.179 183.691 19.702 182.784 19.224 179.806 17.792 176.957 16.837 173.978 16.241 171"><title>2023-10-23 1.0km</title><desc>10087395010</desc></polyline><polyline fill="none" stroke="#4dd2ff" stroke-linecap="round" stroke-linejoin="round" stroke-width=".5" points="37.029 171.086 37.348 171 39.615 171.173 40.61 171.432 40.848 171.561 41.365 171.95 41.723 172.381 42.519 173.849 42.917 175.489 43.434 176.353 43.673 177.043 44.23 178.295 44.627 179.59 45.224 180.626 45.503 180.928 45.861 181.532 46.059 182.827 46.179 183.173 46.497 183.648 46.577 184.381 46.696 184.684 48.446 188.827 48.685 189 48.685 188.784 48.327 188.439 47.929 187.489 47.531 186.669 46.457 183.345"><title>2023-10-22 1.5km</title><desc>10080655811</desc></polyline><polyline fill="none" stroke="#4dd2ff" stroke-linecap="round" stroke-linejoin="round" stroke-width=".5" points="62.851 171 63.483 171.457 62.346 171.274 64.114 173.558 64.283 174.107 64.157 174.563 63.567 174.883 63.399 175.203 63.441 175.751 63.778 177.076 64.157 178.036 64.578 179.498 65.335 180.822 65.462 181.325 65.925 182.147 66.22 182.513 66.262 182.741 66.556 183.015 66.767 183.472 67.062 184.34 67.356 184.934 67.314 186.122 67.861 187.173 68.03 187.675 68.325 188.223 68.83 188.863 69.082 189 68.114 187.629 67.904 186.899 67.483 185.985 67.314 185.391 66.767 184.614 66.304 183.289"><title>2023-10-20 1.4km</title><desc>10069668027</desc></polyline><polyline fill="none" stroke="#4dd2ff" stroke-linecap="round" stroke-linejoin="round" stroke-width=".5" points="84.949 171 85.035 171.698 85.721 173.372 85.892 174.395 87.307 177.837 87.436 178.302 87.521 179 87.693 179.465 88.721 180.907 89.279 182.023 89.622 183.14 89.922 183.744 90.093 184.674 90.307 185.14 90.865 186.581 90.95 187.14 91.765 188.814 91.979 189 92.108 189 92.193 188.953 92.151 188.907 91.293 187.837 90.907 186.535 90.093 185.047 89.964 184.442 89.879 183.419"><title>2023-10-19 1.3km</title><desc>10064004415</desc></polyline><polyline fill="none" stroke="#4dd2ff" stroke-linecap="round" stroke-linejoin="round" stroke-width=".5" points="107.37 171 109.134 173.298 109.017 174.957 109.252 176.617 110.076 179.553 111.252 181.468 112.429 184.787 114.782 188.617 115.134 189 115.487 188.872 113.958 187.34 111.134 181.851 110.429 179.426 108.429 175.213"><title>2023-10-18 1.0km</title><desc>10058081424</desc></polyline><polyline fill="none" stroke="#4dd2ff" stroke-linecap="round" stroke-linejoin="round" stroke-width=".5" points="131.144 172.091 132.149 177.955 134.788 184.909 136.548 188.591 137.302 189 137.679 189 137.93 188.455 137.05 187.364 135.919 185.591 134.411 182.318 133.783 180.409 131.144 175.091 130.893 174.273 130.641 171"><title>2023-10-17 1.0km</title><desc>10051702317</desc></polyline><polyline fill="none" stroke="#4dd2ff" stroke-linecap="round" stroke-linejoin="round" stroke-width=".5" points="153.123 171.415 154.399 173.631 156.313 178.615 157.334 180.554 158.483 184.154 159.886 187.754 160.397 188.723 161.035 189 161.162 188.862 161.035 188.446 159.631 186.369 157.717 181.662 156.313 178.754 155.165 173.354 154.527 171"><title>2023-10-16 1.0km</title><desc>10046279660</desc></polyline><polyline fill="none" stroke="#4dd2ff" stroke-linecap="round" stroke-linejoin="round" stroke-width=".5" points="176.314 171 176.84 172.143 177.367 174.714 178.552 178.714 180.132 181.143 181.975 188 182.633 188.714 183.555 189 183.686 188.714 183.555 187.857 181.843 185.429 180.922 182.571 179.868 180.857 177.367 175 176.445 171"><title>2023-10-15 1.0km</title><desc>10039610121</desc></polyline><polyline fill="none" stroke="#4dd2ff" stroke-linecap="round" stroke-linejoin="round" stroke-width=".5" points="16.254 192.306 16.656 196.516 17.726 199.565 19.064 201.452 19.866 204.065 22.14 208.129 22.676 208.71 23.344 209 23.746 208.71 23.746 208.274 21.07 206.097 19.331 202.903 18.662 200.145 17.057 196.516 16.254 193.468 16.388 191.581 16.254 191"><title>2023-10-14 1.0km</title><desc>10033377496</desc></polyline><polyline fill="none" stroke="#4dd2ff" stroke-linecap="round" stroke-linejoin="round" stroke-width=".5" points="38.776 191.286 41.146 194.143 41.409 196.286 43.647 203.143 45.754 208.143 46.412 209 46.938 209 46.938 208.571 46.807 208.143 45.622 207.286 44.305 204.857 42.857 200.286 40.224 194.429 39.829 192.429 39.171 191"><title>2023-10-13 1.0km</title><desc>10028006924</desc></polyline><polyline fill="none" stroke="#4dd2ff" stroke-linecap="round" stroke-linejoin="round" stroke-width=".5" points="61.852 191 63.118 192.649 63.878 194.023 64.005 195.809 63.878 197.733 65.271 200.618 66.917 205.015 68.563 208.038 68.943 208.588 69.576 209 69.576 208.313 68.184 206.527 66.917 204.328 65.271 199.794 64.258 198.008 63.752 196.496"><title>2023-10-12 1.0km</title><desc>10021974100</desc></polyline><polyline fill="none" stroke="#4dd2ff" stroke-linecap="round" stroke-linejoin="round" stroke-width=".5" points="86.467 193.552 86.962 196.239 86.838 197.313 87.952 200.94 88.819 202.552 89.686 205.507 90.924 208.463 91.171 208.731 91.79 209 91.666 208.463 90.305 204.97 88.819 202.418 86.838 197.851 86.343 196.104 86.096 193.552 85.353 191"><title>2023-10-10 1.0km</title><desc>10009069592</desc></polyline><polyline fill="none" stroke="#4dd2ff" stroke-linecap="round" stroke-linejoin="round" stroke-width=".5" points="108.379 193.25 109.233 195.632 110.087 198.809 111.916 202.779 113.38 207.809 114.234 209 114.478 208.603 114.6 207.147 113.746 204.632 111.916 201.456 109.843 195.632 109.233 192.985 108.257 191"><title>2023-10-09 1.0km</title><desc>10003389142</desc></polyline><polyline fill="none" stroke="#4dd2ff" stroke-linecap="round" stroke-linejoin="round" stroke-width=".5" points="130.621 191 131.521 192.116 132.421 194.209 132.935 198.395 134.864 202.581 136.536 207.326 137.308 208.721 137.951 209 137.951 207.884 135.507 203.977 132.293 196.163 131.007 191.14"><title>2023-10-08 1.0km</title><desc>9996447828</desc></polyline><polyline fill="none" stroke="#4dd2ff" stroke-linecap="round" stroke-linejoin="round" stroke-width=".5" points="154.832 194.6 155.425 196.786 157.202 201.543 157.795 203.6 159.69 208.357 160.283 209 160.401 208.486 160.401 207.971 158.15 203.986 157.084 201.671 155.188 196.014 154.595 193.057 153.884 191"><title>2023-10-07 1.0km</title><desc>9989974159</desc></polyline><polyline fill="none" stroke="#4dd2ff" stroke-linecap="round" stroke-linejoin="round" stroke-width=".5" points="178.529 196.362 179.471 199.426 180.176 200.957 181.588 206.957 181.941 208.106 182.647 209 183.235 209 183.471 208.489 183.353 208.106 181.941 206.064 180.529 203 180.059 200.957 177.588 194.957 177.235 192.787 176.529 191"><title>2023-10-06 1.0km</title><desc>9984428862</desc></polyline><polyline fill="none" stroke="#4dd2ff" stroke-linecap="round" stroke-linejoin="round" stroke-width=".5" points="16.125 211 18.164 216.459 19.524 221.033 21.836 226.787 22.787 228.705 23.195 229 23.739 229 23.875 228.705 23.467 227.967 21.836 225.607 20.884 223.689 19.252 219.41 18.572 217.197 16.669 213.656 16.669 212.328"><title>2023-10-04 1.0km</title><desc>9971682885</desc></polyline><polyline fill="none" stroke="#4dd2ff" stroke-linecap="round" stroke-linejoin="round" stroke-width=".5" points="40.133 213.102 40.738 215.204 41.344 216.65 41.828 218.883 44.129 223.482 44.25 225.058 44.976 228.212 45.218 228.606 45.945 229 45.945 227.686 44.371 224.796 43.281 222.299 42.676 221.117 42.07 219.409 40.859 216.912 40.375 214.942 40.133 212.971 39.77 211"><title>2023-10-03 1.0km</title><desc>9965060084</desc></polyline><polyline fill="none" stroke="#4dd2ff" stroke-linecap="round" stroke-linejoin="round" stroke-width=".5" points="62.424 211.744 64.069 217.099 64.343 219.479 65.303 220.669 65.988 222.455 67.222 227.066 68.182 228.554 68.867 229 69.005 228.851 68.593 227.661 67.085 224.835 64.618 218.884 63.109 214.421 62.835 211"><title>2023-10-02 1.0km</title><desc>9958643020</desc></polyline><polyline fill="none" stroke="#4dd2ff" stroke-linecap="round" stroke-linejoin="round" stroke-width=".5" points="85.718 214.168 85.984 215.464 88.903 222.376 90.363 226.84 91.159 228.424 91.955 229 92.088 228.856 91.955 228.28 89.301 224.248 86.78 218.056 85.586 214.312 85.055 211"><title>2023-10-01 1.0km</title><desc>9952075403</desc></polyline><polyline fill="none" stroke="#4dd2ff" stroke-linecap="round" stroke-linejoin="round" stroke-width=".5" points="108.844 213.609 109.926 215.826 110.407 218.044 110.767 220.13 112.571 225.217 114.133 228.478 114.854 229 115.095 228.609 112.691 224.957 111.609 222.478 111.248 221.174 109.565 217.522 108.604 213.478 107.762 211"><title>2023-09-30 1.0km</title><desc>9945549317</desc></polyline><polyline fill="none" stroke="#4dd2ff" stroke-linecap="round" stroke-linejoin="round" stroke-width=".5" points="131.499 211 132.693 213.016 133.091 214.6 134.153 217.192 134.684 221.08 135.082 222.232 136.674 226.12 137.073 228.568 137.338 228.856 137.736 229 137.869 228.712 135.48 224.392 133.888 220.648 133.357 218.488 131.499 214.168 130.703 211.576"><title>2023-09-28 1.0km</title><desc>9933629332</desc></polyline><polyline fill="none" stroke="#4dd2ff" stroke-linecap="round" stroke-linejoin="round" stroke-width=".5" points="153.624 213.045 154.629 216.591 156.515 219.182 157.771 223.818 159.531 226.955 160.033 228.727 160.536 229 160.787 228.591 160.536 228.045 159.531 226.682 156.64 220.818 155.132 216.727 153.498 211"><title>2023-09-27 1.0km</title><desc>9927137811</desc></polyline><polyline fill="none" stroke="#4dd2ff" stroke-linecap="round" stroke-linejoin="round" stroke-width=".5" points="181.495 211 181.136 212.731 180.778 213.726 180.498 214.938 178.864 218.356 178.026 219.784 177.867 220.389 177.946 220.865 178.146 221.558 178.744 223.029 178.943 223.418 179.183 224.111 179.98 225.106 180.339 225.885 180.738 226.49 181.057 227.356 181.535 228.005 182.133 229"><title>2023-09-26 1.0km</title><desc>9920397094</desc></polyline><polyline fill="none" stroke="#4dd2ff" stroke-linecap="round" stroke-linejoin="round" stroke-width=".5" points="19.916 231 19.131 233.615 18.347 235.014 17.618 235.926 17.226 236.655 17.058 237.385 17.114 238.297 17.394 239.027 18.067 240.061 18.347 241.095 18.907 242.432 19.972 243.77 21.765 247.419 22.942 249"><title>2023-09-25 1.0km</title><desc>9914573673</desc></polyline><polyline fill="none" stroke="#4dd2ff" stroke-linecap="round" stroke-linejoin="round" stroke-width=".5" points="44.184 231 43.742 231.672 43.653 232.008 43.742 232.44 43.786 232.872 42.901 234.504 42.68 235.608 42.371 236.424 40.513 239.688 40.468 240.072 40.645 240.84 41.132 241.608 41.397 242.28 41.796 242.952 42.017 243.624 42.592 244.536 43.034 245.448 43.521 245.976 43.653 246.456 43.963 246.84 44.627 247.992 45.113 248.52 45.246 249"><title>2023-09-24 1.0km</title><desc>9907510217</desc></polyline><polyline fill="none" stroke="#4dd2ff" stroke-linecap="round" stroke-linejoin="round" stroke-width=".5" points="66.385 231 66.01 231.583 65.741 232.165 65.58 232.922 65.526 233.913 64.614 235.136 64.077 236.534 63.594 237.233 63.272 238.165 63.218 239.155 64.345 242.01 64.775 242.884 66.171 245.097 66.761 246.553 67.513 247.485 67.942 248.243 68.211 249"><title>2023-09-23 1.0km</title><desc>9901004991</desc></polyline><polyline fill="none" stroke="#4dd2ff" stroke-linecap="round" stroke-linejoin="round" stroke-width=".5" points="89.263 231 88.904 231.667 88.546 232.833 87.727 234.556 86.907 235.722 86.191 237.667 86.14 238.722 86.242 239.333 87.266 241.778 87.419 242.5 87.624 242.889 88.341 243.778 88.904 244.889 89.365 246.056 90.133 247.167 91.003 249"><title>2023-09-22 1.0km</title><desc>9895405405</desc></polyline><polyline fill="none" stroke="#4dd2ff" stroke-linecap="round" stroke-linejoin="round" stroke-width=".5" points="112.383 231 112.236 231.531 111.942 231.85 111.306 233.018 111.062 233.867 110.328 235.726 109.545 237.319 109.055 238.487 108.909 239.071 108.909 239.443 109.055 239.974 109.349 240.504 109.985 242.15 110.621 243.319 110.964 244.168 111.6 245.23 111.991 245.708 112.285 246.558 113.068 247.938 113.949 249"><title>2023-09-21 1.0km</title><desc>9889267953</desc></polyline><polyline fill="none" stroke="#4dd2ff" stroke-linecap="round" stroke-linejoin="round" stroke-width=".5" points="136.118 231 135.476 232.927 135.098 234.444 134.494 235.715 133.776 237.847 132.529 240.185 132.189 241.456 132.226 241.743 132.453 242.358 132.944 243.424 133.247 244.326 134.002 245.392 134.456 246.253 134.72 246.868 135.023 247.401 135.514 247.77 136.118 248.672 136.156 248.836 136.383 249"><title>2023-09-20 1.0km</title><desc>9882714971</desc></polyline><polyline fill="none" stroke="#4dd2ff" stroke-linecap="round" stroke-linejoin="round" stroke-width=".5" points="158.635 231 158.252 231.972 157.527 234.1 157.484 234.794 157.228 235.165 156.93 235.859 156.759 236.506 156.418 237.386 155.437 238.959 155.181 239.884 155.096 240.717 155.181 241.55 155.437 242.476 155.736 243.123 156.674 244.743 157.143 245.391 157.569 246.548 157.996 247.288 158.422 247.889 158.891 248.352 159.19 249"><title>2023-09-19 1.0km</title><desc>9876194288</desc></polyline><polyline fill="none" stroke="#4dd2ff" stroke-linecap="round" stroke-linejoin="round" stroke-width=".5" points="179.868 231 179.55 231.518 179.02 232.553 178.861 233.243 177.907 234.911 177.165 236.463 177.006 237.038 177.059 237.671 177.377 238.476 177.854 239.339 178.278 240.546 178.861 241.812 179.497 242.962 180.079 243.709 180.768 244.859 181.192 246.182 181.934 247.332 182.305 248.367 182.994 249"><title>2023-09-18 1.0km</title><desc>9870505463</desc></polyline><polyline fill="none" stroke="#4dd2ff" stroke-linecap="round" stroke-linejoin="round" stroke-width=".5" points="20.181 251 19.922 251.505 19.561 253.187 19.096 253.972 18.889 254.589 17.752 256.439 17.339 257.449 17.08 258.346 17.287 258.963 18.424 261.43 18.992 262.327 19.406 263.28 20.078 264.178 20.439 264.794 20.904 266.252 22.92 269"><title>2023-09-16 1.0km</title><desc>9856514700</desc></polyline><polyline fill="none" stroke="#4dd2ff" stroke-linecap="round" stroke-linejoin="round" stroke-width=".5" points="42.608 251 42.055 252.68 41.337 253.82 39.844 256.7 39.788 257.36 39.844 258.14 40.175 258.92 40.728 259.76 41.226 260.9 42.111 262.4 43.217 264.5 43.327 265.28 43.714 265.58 44.157 266.18 44.875 267.38 45.649 268.04 45.815 268.46 45.926 269"><title>2023-09-15 1.0km</title><desc>9850671982</desc></polyline><polyline fill="none" stroke="#4dd2ff" stroke-linecap="round" stroke-linejoin="round" stroke-width=".5" points="66.172 251 65.257 253.421 64.227 254.91 63.769 255.717 63.083 257.455 62.911 258.076 62.911 258.572 63.083 259.193 63.769 261.055 64.399 262.297 65.943 264.966 66.572 266.145 66.687 266.828 67.144 267.262 67.888 268.441 68.517 269"><title>2023-09-14 1.0km</title><desc>9844236351</desc></polyline><polyline fill="none" stroke="#4dd2ff" stroke-linecap="round" stroke-linejoin="round" stroke-width=".5" points="85.711 251 86.04 251.268 86.163 251.536 86.246 252.117 86.493 252.608 86.657 253.993 86.657 254.663 86.575 255.02 86.657 255.467 86.863 256.003 86.781 256.449 86.822 256.673 87.234 257.432 87.604 258.548 87.933 259.174 88.345 259.754 88.798 260.156 88.921 260.424 89.045 261.005 89.374 261.586 89.745 262.658 90.238 263.596 90.485 264.4 90.609 265.07 90.856 265.605 91.309 267.079 91.926 268.241 91.967 268.419 91.926 268.553 91.432 269 91.679 268.821 91.803 268.553 91.885 268.33 91.844 268.017 91.597 267.705 90.856 266.097 90.485 264.891 89.703 263.149 89.333 261.452 89.127 260.96 88.345 259.933 87.563 258.459 87.193 257.253 87.069 256.449 86.74 255.601 86.081 254.171 85.916 253.501 85.34 252.429 85.217 251.849 85.176 251.134"><title>2023-09-13 1.0km</title><desc>9837636972</desc></polyline></svg>