<?xml version="1.0" encoding="utf-8" ?>
<svg baseProfile="full" height="300mm" version="1.1" viewBox="0,0,200,300" width="200mm" xmlns="http://www.w3.org/2000/svg" xmlns:ev="http://www.w3.org/2001/xml-events" xmlns:xlink="http://www.w3.org/1999/xlink"><defs /><rect fill="#222222" height="300" width="200" x="0" y="0" /><text fill="#FFFFFF" style="font-size:12px; font-family:Arial; font-weight:bold;" x="10" y="20">Over 1km Runs</text><text fill="#FFFFFF" style="font-size:4px; font-family:Arial" x="10" y="280">ATHLETE</text><text fill="#FFFFFF" style="font-size:9px; font-family:Arial" x="10" y="290">Jiakai</text><text fill="#FFFFFF" style="font-size:4px; font-family:Arial" x="120" y="280">STATISTICS</text><text fill="#FFFFFF" style="font-size:3px; font-family:Arial" x="120" y="285">Number: 3</text><text fill="#FFFFFF" style="font-size:3px; font-family:Arial" x="120" y="290">Weekly: 3.0</text><text fill="#FFFFFF" style="font-size:3px; font-family:Arial" x="141" y="285">Total: 3.0 km</text><text fill="#FFFFFF" style="font-size:3px; font-family:Arial" x="141" y="290">Avg: 1.0 km</text><text fill="#FFFFFF" style="font-size:3px; font-family:Arial" x="167" y="285">Min: 1.0 km</text><text fill="#FFFFFF" style="font-size:3px; font-family:Arial" x="167" y="290">Max: 1.0 km</text><polyline fill="none" points="53.88029825594276,34.5 51.39207215886563,42.060075596906245 48.157378232106566,47.19011803064495 41.43916776869446,60.15019330754876 41.19034515880048,63.120204117149115 41.43916776869446,66.63021379383281 42.932103427127004,70.14022011635825 45.42032952513546,73.92022317275405 47.65973301231861,79.05022109742276 51.640894767828286,85.80020744819194 56.61734696384519,95.25016749626957 57.114992182701826,98.76014646352269 58.85675045102835,100.11013748054393 60.847331329248846,102.81011802586727 64.08202525507659,108.21007316187024 67.56554179172963,111.18004510132596 68.31200962141156,113.0700259951409 68.80965484119952,115.5" stroke="#4dd2ff" stroke-linecap="round" stroke-linejoin="round" stroke-width="0.5"><title>2023-09-15 1.0km</title><desc>9850671982</desc></polyline><polyline fill="none" points="148.76765251904726,34.5 146.88382625952363,41.3991271823179 143.11617374047637,51.36450893059373 138.8775646565482,57.49703734065406 136.99373839702457,60.818819044856355 134.16799900773913,67.9734150073491 133.46156416088343,70.52862428175285 133.46156416088343,72.57279034773819 134.16799900773913,75.12799623957835 136.99373839702457,82.79360264446586 139.5839995034039,87.90399752068333 145.94191312976182,98.89132105815224 148.53217423614115,103.74617388169281 149.00313080009073,106.55687504820526 150.88695706054568,108.34550187923014 153.94817473180592,113.20034149568528 156.53843583818525,115.5" stroke="#4dd2ff" stroke-linecap="round" stroke-linejoin="round" stroke-width="0.5"><title>2023-09-14 1.0km</title><desc>9844236351</desc></polyline><polyline fill="none" points="40.77718857116997,184.5 40.77718857116997,185.67962925694883 42.40782937221229,186.26944369007833 43.8572878614068,187.44907216657884 44.400834795087576,188.62870012247004 44.763199417851865,191.1845589079894 45.85029328428209,193.34720674157143 46.57502252981067,199.44193213433027 46.57502252981067,202.39098782115616 46.21265790704638,203.96381619060412 46.57502252981067,205.92985035199672 47.48093408532441,208.2890894371085 47.11856946349144,210.2551204180345 47.29975177440792,211.23813536623493 49.111574886366725,214.58038348774426 50.74221568740904,219.49544666567817 52.191674176603556,222.2478780990932 54.00349728856236,224.8037047504913 55.99650271143764,226.57312177005224 56.540049645118415,227.75273246620782 57.08359657879919,230.30855385609902 58.5330550679937,232.86437280313112 60.16369586903602,237.58280136459507 62.33788360282779,241.71141952625476 63.42497747018933,245.25023002014495 63.968524403870106,248.19923518714495 65.05561827123165,250.55843698023818 67.04862369410694,257.04623117716983 69.7663583625108,262.15781551995315 69.94754067342728,262.94421224389225 69.7663583625108,263.5340096352156 67.59217062778771,265.5 68.67926449514925,264.7136040274054 69.22281142883003,263.5340096352156 69.585176050663,262.55101391114295 69.40399373974651,261.1748192899395 68.31689987331629,259.7986239604652 65.05561827123165,252.72103679482825 63.42497747018933,247.4128341274336 59.982513558119535,239.74541167239659 58.35187275707722,232.2745686476119 57.44596120156348,230.11195229762234 54.00349728856236,225.59011245914735 50.56103337556124,219.10224194382317 48.93039257451892,213.79397254087962 48.38684564176947,210.2551204180345 46.937387151643634,206.51966031850316 44.03847017232329,200.22834730241448 43.31374092772603,197.2792892307043 40.77718857116997,192.56078955018893 40.2336416374892,190.00493207992986 40.052459326572716,186.85925799352117" stroke="#4dd2ff" stroke-linecap="round" stroke-linejoin="round" stroke-width="0.5"><title>2023-09-13 1.0km</title><desc>9837636972</desc></polyline></svg>