<?xml version="1.0" encoding="utf-8" ?>
<svg baseProfile="full" height="300mm" version="1.1" viewBox="0,0,200,300" width="200mm" xmlns="http://www.w3.org/2000/svg" xmlns:ev="http://www.w3.org/2001/xml-events" xmlns:xlink="http://www.w3.org/1999/xlink"><defs /><rect fill="#222222" height="300" width="200" x="0" y="0" /><text fill="#FFFFFF" style="font-size:12px; font-family:Arial; font-weight:bold;" x="10" y="20">Over 1km Runs</text><text fill="#FFFFFF" style="font-size:4px; font-family:Arial" x="10" y="280">ATHLETE</text><text fill="#FFFFFF" style="font-size:9px; font-family:Arial" x="10" y="290">Jiakai</text><text fill="#FFFFFF" style="font-size:4px; font-family:Arial" x="120" y="280">STATISTICS</text><text fill="#FFFFFF" style="font-size:3px; font-family:Arial" x="120" y="285">Number: 104</text><text fill="#FFFFFF" style="font-size:3px; font-family:Arial" x="120" y="290">Weekly: 5.2</text><text fill="#FFFFFF" style="font-size:3px; font-family:Arial" x="141" y="285">Total: 107.6 km</text><text fill="#FFFFFF" style="font-size:3px; font-family:Arial" x="141" y="290">Avg: 1.0 km</text><text fill="#FFFFFF" style="font-size:3px; font-family:Arial" x="167" y="285">Min: 1.0 km</text><text fill="#FFFFFF" style="font-size:3px; font-family:Arial" x="167" y="290">Max: 1.5 km</text><polyline fill="none" points="11.0,33.65985866403207 11.094240837264806,33.96664106100798 11.471204188186675,35.19376997172367 12.413612565491349,39.89775410166476 12.979057591874152,40.920357242110185 13.921465968247503,43.57912188931368 15.146596858277917,45.215282222721726 15.523560209199786,45.9311017638538 16.183246073313057,46.23788145405706 17.596858638804406,46.34014133596793 21.649214659351856,46.03336166823283 23.628272251226008,45.215282222721726 24.57068062806502,44.70398232527077 27.30366492131725,43.78364203614183 27.96335078543052,43.067821390228346 28.62303664861247,42.863301138044335 29.0,42.352000375743955 28.528795811347663,40.920357242110185" stroke="#4dd2ff" stroke-linecap="round" stroke-linejoin="round" stroke-width="0.5"><title>2024-03-05 1.0km</title><desc>10891326638</desc></polyline><polyline fill="none" points="44.99270072975196,47.377882411761675 47.81751824822277,46.094781341496855 48.8686131387949,45.16809617925901 49.0,44.59782794682542 48.540145985549316,43.17215589864645 48.01459854026325,41.8177655111067 46.96350364969112,40.32080551341642 46.437956204405054,39.821818333817646 44.86131386877969,37.25559449708089 43.08759124088101,34.903216679929756 43.21897810208611,34.26165810279781 43.08759124088101,33.97652082127752 42.23357664234936,32.62211758829653 39.343065693508834,32.83597085613292 38.35766423353925,33.19239286438096 36.649635036243126,33.40624600643059 34.81021897797473,34.19037379033398 33.562043795594946,35.04578519478673 32.37956204358488,35.33092216210207 31.788321167696267,35.75862745550694 31.328467153245583,35.82991165283602 31.13138686143793,36.043764213100076 31.0,36.47146919200895 31.19708029180765,36.82788986392552 31.262773722410202,37.612014880462084 31.591240875655785,38.68127524480224 31.459854014450684,39.96438612561906 31.85401459853165,40.891076261294074 31.788321167696267,42.17418421758339" stroke="#4dd2ff" stroke-linecap="round" stroke-linejoin="round" stroke-width="0.5"><title>2024-03-04 1.0km</title><desc>10884866628</desc></polyline><polyline fill="none" points="51.0,33.371356112184 51.18652849784121,34.78817158623133 51.65284974081442,36.30618654761929 51.65284974081442,36.91339206311386 52.11917098471895,38.12780229107011 52.58549222862348,39.94941562402528 53.79792746109888,42.8842320345575 55.569948186632246,45.616641688742675 56.59585492266342,46.42624350753613 57.71502590691671,46.628643887816 60.41968911932781,46.32504330622032 64.15025906730443,45.51544142793864 65.26943005202338,44.705839073169045 66.85492227971554,43.997436622390524 69.0,42.68183110374957" stroke="#4dd2ff" stroke-linecap="round" stroke-linejoin="round" stroke-width="0.5"><title>2024-03-03 1.0km</title><desc>10877188327</desc></polyline><polyline fill="none" points="71.0,45.89884775434621 72.44966442976147,47.209696433274075 73.65771812107414,47.734035635367036 74.26174496673048,47.734035635367036 76.7986577176489,47.471866053529084 81.87248322181404,46.16101756738499 86.70469798659906,44.19474303117022 88.7583892615512,42.62172184092924 89.0,42.359551507630385 88.7583892615512,40.91761398559902 88.03355704713613,39.082419089158066 84.04697986552492,32.265964364632964" stroke="#4dd2ff" stroke-linecap="round" stroke-linejoin="round" stroke-width="0.5"><title>2024-03-02 1.0km</title><desc>10870189784</desc></polyline><polyline fill="none" points="99.9468319863081,31.0 100.47851212508976,32.26923753414303 100.6911841807887,33.07693361258134 100.79752020863816,34.92309451638721 104.2002730993554,43.000022937194444 104.94462529430166,45.192324908101 104.94462529430166,45.538477571099065 104.41294515505433,46.00001433584839 102.71156870992854,46.92308745859191 100.2658400698565,47.50000788480975 97.50110334577039,48.65384810080286 96.01239895634353,49.0 95.58705484494567,48.76923207566142 95.05537470569834,46.69231922866311" stroke="#4dd2ff" stroke-linecap="round" stroke-linejoin="round" stroke-width="0.5"><title>2024-01-19 1.0km</title><desc>10585384707</desc></polyline><polyline fill="none" points="116.75192282954231,33.26574467669707 116.86792558571324,35.15386295004282 117.0999310980551,36.03498409828171 119.30398346344009,39.93708659056574 120.34800826851279,42.32869339955505 120.92802204936743,44.34267548972275 121.97204685397446,46.3566552111879 122.08804961014539,48.244759048335254 122.7840661467053,48.87412653141655 123.13207441521809,49.0 123.59608543897048,48.87412653141655 123.48008268373087,48.37063256360125 122.7840661467053,47.237770594190806 119.41998621961102,39.55946415744256 117.33193660993129,35.279737427830696 116.40391456102952,31.0" stroke="#4dd2ff" stroke-linecap="round" stroke-linejoin="round" stroke-width="0.5"><title>2024-01-17 1.0km</title><desc>10572816563</desc></polyline><polyline fill="none" points="136.63048108154908,31.0 137.66725613363087,35.07813984097447 139.87040311843157,42.25001984962728 141.42556569585577,45.20313909614924 142.3327438668348,48.01562937779818 142.98072827374563,48.85937565623317 143.36951891845092,49.0 143.36951891845092,48.4375025635818 140.6479844073765,42.67189430666622 138.18564365943894,36.34376767894719 136.63048108154908,33.25000926339999" stroke="#4dd2ff" stroke-linecap="round" stroke-linejoin="round" stroke-width="0.5"><title>2024-01-16 1.0km</title><desc>10566280205</desc></polyline><polyline fill="none" points="156.38298093527555,31.406016977969557 158.25385286472738,35.330843146541156 159.7505504093133,40.473706149845384 161.4966975436546,43.99249887350015 162.9933950882405,48.32331145426724 163.36756947403774,49.0 163.61701906472445,49.0 159.87527520488948,41.28573583706748 159.00220163725317,38.57896882027853 158.37857766076922,36.142875102348626 157.5055040931329,34.38347207882907 156.63243052596226,31.0" stroke="#4dd2ff" stroke-linecap="round" stroke-linejoin="round" stroke-width="0.5"><title>2024-01-09 1.0km</title><desc>10520988068</desc></polyline><polyline fill="none" points="176.75715460581705,32.4887284807628 177.38077871967107,35.060165748465806 178.62802694831043,37.76693793933373 180.87307375948876,44.66918901109602 182.61922127986327,48.59398690296803 182.9933957476169,49.0 183.24284539418295,48.72932461183518 182.868670925498,47.24060926469974 182.24504681117833,46.293244325672276 180.37417446868494,41.42107408342417 178.62802694831043,37.76693793933373 177.13132907403633,31.0" stroke="#4dd2ff" stroke-linecap="round" stroke-linejoin="round" stroke-width="0.5"><title>2024-01-07 1.0km</title><desc>10508221625</desc></polyline><polyline fill="none" points="18.586914262268692,56.333351957728155 18.83266830444336,57.66668749670498 19.938561489339918,60.4666889377404 20.921577654313296,63.80001835001167 22.88760998379439,68.60000194073655 23.37911806628108,69.0 23.37911806628108,68.06667105806991 22.27322488091886,66.20001173368655 21.65883977804333,64.20001746760681 19.201299365609884,59.000022055231966 18.34116022149101,56.73335272236727 17.72677511861548,55.666683820891194 16.62088193325326,51.0" stroke="#4dd2ff" stroke-linecap="round" stroke-linejoin="round" stroke-width="0.5"><title>2024-01-06 1.0km</title><desc>10501510624</desc></polyline><polyline fill="none" points="37.62194332526997,54.27274134848267 38.54996544169262,56.53848169394769 39.24598202994093,59.43358999455813 40.40600967640057,63.20981085568201 41.68204008741304,65.97903419390786 42.494059439748526,67.99301199009642 42.95807049795985,68.74825305328704 43.42208155663684,69.0 43.30607879208401,68.11888552387245 42.72606496885419,66.73427614511456 38.89797373628244,59.43358999455813 38.20195714849979,57.29372780956328 37.96995161892846,55.27973742748145 37.15793226659298,53.139870051061735 36.57791844336316,51.0" stroke="#4dd2ff" stroke-linecap="round" stroke-linejoin="round" stroke-width="0.5"><title>2024-01-05 1.0km</title><desc>10495609202</desc></polyline><polyline fill="none" points="56.206528631970286,51.0 56.9780821306631,52.81396122346632 57.62104337941855,54.76745598623529 58.52118912758306,56.58141360874288 60.19288837490603,61.325602270895615 62.25036437064409,66.06977907463443 63.0219178693369,68.58139728754759 63.536286868620664,69.0 63.793471368029714,68.30232876108494 63.66487911809236,67.32558859628625 60.57866512425244,61.046532678068615 59.54992712615058,57.41862423438579 58.52118912758306,51.55814209987875" stroke="#4dd2ff" stroke-linecap="round" stroke-linejoin="round" stroke-width="0.5"><title>2024-01-04 1.0km</title><desc>10489071805</desc></polyline><polyline fill="none" points="77.49954325752333,54.30883703043219 79.08519875304773,58.67649259837344 81.03677474707365,63.04413756961003 82.01256274431944,66.75000984175131 82.8663772419095,69.0 82.98835074156523,69.0 82.98835074156523,68.07353380450513 82.37848324328661,65.82354248885531 81.15874824672937,63.04413756961003 80.18296024994925,60.2647283594124 78.59730475442484,57.08825543615967 77.62151675764471,54.176483665942214 77.01164925890043,52.32353554200381 77.3775697578676,51.0" stroke="#4dd2ff" stroke-linecap="round" stroke-linejoin="round" stroke-width="0.5"><title>2024-01-03 1.0km</title><desc>10482519748</desc></polyline><polyline fill="none" points="96.3670011209324,51.297521962667815 99.52016995940357,60.52068110543769 102.8104330948554,68.40496123710182 103.49590458115563,69.0 103.6329988790676,68.40496123710182 103.22171598719433,67.36364297999535 99.7943585542962,60.81820166797843 98.56050987821072,57.54547307221219 96.77828401280567,51.0" stroke="#4dd2ff" stroke-linecap="round" stroke-linejoin="round" stroke-width="0.5"><title>2024-01-01 1.0km</title><desc>10470902913</desc></polyline><polyline fill="none" points="127.61672993563116,55.40818125801161 127.39104904886335,55.77552916947752 125.02139973500744,57.48981835064478 124.00583574408665,58.59186046384275 123.32879308285192,59.81635084503796 122.87743130931631,60.42859569785651 122.53890997869894,60.55104464129545 121.07198421377689,60.55104464129545 119.71789889177307,61.040840325760655 117.91245179576799,60.918391417944804 117.00972824729979,60.55104464129545 116.44552603038028,59.69390184734948 116.10700469976291,58.95920767285861 115.99416425637901,57.24492000427563 115.65564292529598,56.510224749101326 114.30155760375783,56.510224749101326 113.17315316898748,56.87757241737563 113.06031272560358,57.00002162193414 113.51167449960485,57.24492000427563 113.737355385907,57.00002162193414 112.94747228221968,57.00002162193414 112.72179139498621,56.7551232035039 112.49611050775275,55.89797845506109 112.38327006436884,54.42858643166255 112.94747228221968,54.55103581654839 113.39883405668661,55.530630571069196 114.41439804760739,56.63267398066819 115.20428115176037,56.63267398066819 115.8813238129951,56.142876999801956 116.44552603038028,56.26532625826076 116.55836647376418,56.020427731913514 115.54280248237774,53.081642604316585 115.31712159514427,52.959193111164495 114.07587671652436,52.83674360951409 112.83463183837011,52.959193111164495 113.62451494298875,52.959193111164495 112.49611050775275,51.734697686857544 112.38327006436884,51.0 112.72179139498621,51.489798494149 113.06031272560358,53.081642604316585 113.39883405668661,53.81633937230799 113.737355385907,55.40818125801161 113.06031272560358,59.571452840580605 113.85019582975656,63.36736785795074 114.5272384909913,64.46940608078148 114.6400789343752,66.30613483092748 115.65564292529598,69.0" stroke="#4dd2ff" stroke-linecap="round" stroke-linejoin="round" stroke-width="0.5"><title>2023-12-31 1.5km</title><desc>10466792666</desc></polyline><polyline fill="none" points="137.61318105319515,55.273397946031764 138.92593147419393,59.935274790157564 140.71604568464682,63.6906666085124 142.26747800037265,68.09352957841475 142.74484178982675,69.0 142.9835236845538,69.0 143.10286463145167,67.96403376583476 142.62550084246323,66.5395791985793 140.47736378991976,62.13671234436333 140.47736378991976,60.97124574659392 138.92593147419393,57.604337910655886 138.68724957946688,55.01440442644525 138.20988579047844,53.46044250787236 136.897135369014,51.0" stroke="#4dd2ff" stroke-linecap="round" stroke-linejoin="round" stroke-width="0.5"><title>2023-12-30 1.0km</title><desc>10458865202</desc></polyline><polyline fill="none" points="160.97876229183748,51.0 158.71215487923473,51.2236037919065 157.16674073366448,52.22982044820674 156.03343702713028,53.347838174086064 155.51829897845164,54.68945835984778 155.10618853988126,59.94412601995282 155.62132658809423,65.19877551647369 155.82738180737942,65.98138133413158 156.1364646363072,66.65218599990476 157.78490639152005,68.44099699554499 159.6394033660181,69.0 161.08178990148008,68.77639882266521 162.83325926586986,67.65839244390372 163.86353536276147,66.76398674899247 164.89381145965308,63.74536364292726 164.79078385047615,61.39754152763635 164.4817010210827,59.385119685321115 164.27564580226317,54.46585507784039 163.96656297286972,53.236036438611336 163.3483973145485,52.453424059203826 162.62720404658467,51.89441497006919 160.97876229183748,51.5590094178915 158.71215487923473,51.67081127688289 157.06371312355623,52.565225852420554 156.23949224641547,53.57144162070472 155.62132658809423,55.13666482537519 155.62132658809423,55.91927582339849 155.93040941702202,57.81990085518919 155.7243541982025,59.385119685321115" stroke="#4dd2ff" stroke-linecap="round" stroke-linejoin="round" stroke-width="0.5"><title>2023-12-29 1.0km</title><desc>10454615358</desc></polyline><polyline fill="none" points="177.48660630453378,52.90909918991383 179.24598189117387,59.18183983606286 182.01071495609358,67.6363697515335 182.89040275011212,69.0 183.0160724343732,69.0 183.0160724343732,67.6363697515335 181.13102716300637,61.909111761138774 179.62299094581977,58.22729371488094 178.61763346754014,56.318199999048375 176.98392756516114,51.0" stroke="#4dd2ff" stroke-linecap="round" stroke-linejoin="round" stroke-width="0.5"><title>2023-12-27 1.0km</title><desc>10441997651</desc></polyline><polyline fill="none" points="16.606919009704143,73.31819161761086 18.617633670568466,77.27274710254278 19.622991000767797,81.36365769722033 21.00535733019933,83.9545630736975 22.639062992762774,88.1818219712004 23.141741657163948,89.0 23.393080990295857,88.86363702046219 22.51339332573116,86.27273850073107 21.25669666333124,84.36365306563675 17.235267341602594,74.81819641485345 16.983928008936346,72.22727827634662 16.606919009704143,71.0" stroke="#4dd2ff" stroke-linecap="round" stroke-linejoin="round" stroke-width="0.5"><title>2023-12-17 1.0km</title><desc>10391591057</desc></polyline><polyline fill="none" points="37.07950775464997,74.16902771452442 38.481344032566994,77.84509256517049 40.81773782847449,82.40847251110245 42.92049224441871,88.49296031869017 43.38777100387961,89.0 43.504590693861246,88.87324009358417 43.504590693861246,88.36620037502144 42.92049224441871,86.71832025947515 39.76636062003672,80.50706566812005 38.364524342585355,76.7042456913041 37.313147134147584,72.39437291189097 36.49540930567309,71.0" stroke="#4dd2ff" stroke-linecap="round" stroke-linejoin="round" stroke-width="0.5"><title>2023-12-16 1.0km</title><desc>10386207035</desc></polyline><polyline fill="none" points="57.56786756357178,74.38347207952756 58.06676652468741,76.68422954087146 59.8129128892906,81.96242696943227 60.81071081198752,83.58648467215244 62.182682955637574,88.05263596656732 62.55685717659071,89.0 62.806306657381356,89.0 62.806306657381356,87.64662266056985 60.93543555215001,81.96242696943227 58.31621600501239,77.90227644436527 58.19149126531556,76.27821372705512 57.44314282340929,74.38347207952756 57.69259230373427,73.16542284714524 57.193693342618644,71.0" stroke="#4dd2ff" stroke-linecap="round" stroke-linejoin="round" stroke-width="0.5"><title>2023-12-14 1.0km</title><desc>10376526598</desc></polyline><polyline fill="none" points="83.8635347946547,72.56522585265338 82.9362864443101,71.7826131277252 81.39087252598256,71.11180190031882 79.94848620286211,71.0 78.50609987927601,71.33540567557793 76.65160317765549,72.34162225795444 75.82738242158666,73.45963990176097 75.20921685406938,75.36026800901163 75.20921685406938,79.60872224404011 75.41527204308659,80.95033690426499 75.82738242158666,82.6273535641376 75.51829963782802,84.63977111433633 75.6213272321038,85.42237722000573 75.72435482637957,85.86958052788395 76.75463077239692,87.65839244425297 78.40307228453457,88.88819941575639 78.91821025684476,89.0 79.94848620286211,89.0 80.97876214748248,89.0 82.83325884956867,88.32919637009036 83.8635347946547,87.32299037033226 84.48170036217198,86.20498292252887 84.68775555118918,83.74536364304367 84.79078314593062,82.0683482165914 84.48170036217198,80.05592726240866 84.68775555118918,77.37269517919049 84.58472795644775,75.02486322144978 84.48170036217198,74.2422517631203 83.76050720037892,72.6770276373718 83.45142441662028,72.34162225795444 82.31812087725848,71.55900941800792 80.05151379713789,71.33540567557793 78.60912747355178,71.55900941800792 77.78490671748295,71.89441497018561 76.23949279962108,73.57144162082113 75.6213272321038,75.91927582328208 75.82738242158666,77.48449661070481" stroke="#4dd2ff" stroke-linecap="round" stroke-linejoin="round" stroke-width="0.5"><title>2023-12-13 1.0km</title><desc>10373769329</desc></polyline><polyline fill="none" points="97.83360643964261,73.55224959517363 99.07154561718926,78.65673809009604 100.30948479427025,81.34330525412224 102.78536314889789,88.328361393651 103.28053881973028,89.0 103.52812665514648,89.0 103.65192057285458,88.46268913464155 103.15674490202218,87.65672254085075 101.17604221822694,84.29852457169909 98.328782110475,78.52240962779615 97.9574003573507,76.77613872440998 96.59566726256162,73.82090723980218 96.34807942714542,71.0" stroke="#4dd2ff" stroke-linecap="round" stroke-linejoin="round" stroke-width="0.5"><title>2023-12-12 1.0km</title><desc>10365882163</desc></polyline><polyline fill="none" points="116.49541033664718,71.0 117.7804265464656,73.78874469583388 119.53272137837484,78.22537468874361 120.81773758819327,80.63382618967444 122.68685207562521,86.46480010182131 122.92049138667062,87.98592048813589 123.38777000829577,89.0 123.50458966335282,88.11268045951147 123.27095035277307,87.09860042587388 120.81773758819327,81.52114957885351 119.06544275628403,78.09861399035435 118.59816413512453,76.70424569153693 118.24770516855642,73.78874469583388 117.31314792530611,71.1267612206284" stroke="#4dd2ff" stroke-linecap="round" stroke-linejoin="round" stroke-width="0.5"><title>2023-12-11 1.0km</title><desc>10361067591</desc></polyline><polyline fill="none" points="140.36061714449897,81.04350078164134 142.76473143929616,88.34782927564811 142.88493715412915,88.73913173889741 143.3657600134611,89.0 143.48596572736278,88.86956587433815 143.12534858379513,87.95652672543656 142.04349715076387,85.86957833555061 140.84144000336528,82.60871656169184 137.4756799908355,75.82610487437341 136.51403427263722,71.0" stroke="#4dd2ff" stroke-linecap="round" stroke-linejoin="round" stroke-width="0.5"><title>2023-12-10 1.0km</title><desc>10355395415</desc></polyline><polyline fill="none" points="156.82868994167075,72.1911820312962 158.90223882580176,75.50001687242184 159.87802653573453,79.60296362906229 161.95157541986555,85.42648490634747 162.68341620266438,88.60294311749749 163.17131005832925,89.0 163.2932835216634,88.86764771549497 163.2932835216634,88.60294311749749 163.0493365940638,87.5441243366804 160.48789385519922,82.38237386127003 159.87802653573453,80.92649284633808 159.51210614433512,78.67649259825703 158.90223882580176,76.95590227597859 157.92645111586899,75.23531030898448 157.80447765160352,73.3823632748099 156.70671647787094,71.0" stroke="#4dd2ff" stroke-linecap="round" stroke-linejoin="round" stroke-width="0.5"><title>2023-12-09 1.0km</title><desc>10350143310</desc></polyline><polyline fill="none" points="178.08119371067733,74.49255117913708 178.82395743578672,77.17912446556147 180.43327883956954,81.07464871532284 182.66157001350075,87.52239474025555 183.6519216466695,89.0 183.5281276931055,87.65672254085075 182.7853639679961,85.37314859370235 180.80466070165858,81.8806182127446 179.56672116043046,78.92539498396218 178.20498766517267,76.77613872475922 177.83360580261797,74.62687993713189 176.34807835286483,71.0" stroke="#4dd2ff" stroke-linecap="round" stroke-linejoin="round" stroke-width="0.5"><title>2023-12-08 1.0km</title><desc>10345303898</desc></polyline><polyline fill="none" points="17.09993195021525,91.0 17.33193739457056,91.6293738221284 17.795948282349855,93.26574467681348 18.027953726705164,95.5314863550011 18.491964614018798,97.41960212949198 20.116002722177655,101.44757549010683 21.1600272199139,105.09791816305369 22.204051717650145,107.36364418326411 22.436057162005454,109.0 22.668062605895102,108.87412653130013 22.90006804978475,108.62237956561148 22.90006804978475,108.24475904810242 22.3200544398278,106.7342761453474 20.464010888244957,103.58743248344399 18.25995917012915,97.16785348008852 17.67994556063786,94.52449042350054" stroke="#4dd2ff" stroke-linecap="round" stroke-linejoin="round" stroke-width="0.5"><title>2023-12-07 1.0km</title><desc>10340288256</desc></polyline><polyline fill="none" points="36.658453474286944,91.0 37.3744991584681,92.68346103455406 38.68724957946688,98.25182068638969 40.59670473728329,101.74822356412187 42.14813705300912,106.02159543370362 42.864182737190276,108.74100849858951 43.22220557928085,109.0 43.34154652617872,108.09352957841475 43.10286463191733,106.92806692188606 41.193409473635256,102.91368964756839 39.880659053102136,100.97124574659392 39.16461336892098,99.5467855243478 36.77779442211613,91.38849115080666" stroke="#4dd2ff" stroke-linecap="round" stroke-linejoin="round" stroke-width="0.5"><title>2023-12-06 1.0km</title><desc>10334845031</desc></polyline><polyline fill="none" points="58.34116107597947,94.1034619655693 59.14197986712679,98.20002302597277 59.942798658274114,101.17933391826227 61.88764429371804,106.2689778652275 62.91726845363155,108.62758815078996 63.26047650631517,109.0 62.802865769248456,106.76552767283283 61.65883892448619,104.65518998203333 60.62921476503834,101.67588522285223 59.14197986712679,98.57243717496749 58.455563760362566,96.21381284378003 57.31153691606596,93.73104683100246 56.73952349368483,91.0" stroke="#4dd2ff" stroke-linecap="round" stroke-linejoin="round" stroke-width="0.5"><title>2023-12-05 1.0km</title><desc>10329306344</desc></polyline><polyline fill="none" points="76.69392242329195,92.51049678423442 77.50594147713855,93.7692430865718 78.54996597534046,97.41960212949198 80.63801497081295,102.58044129051268 81.68203946901485,106.10490787529852 82.61006124457344,108.11888552398887 83.30607757670805,109.0 83.30607757670805,108.37063256313559 80.29000680474564,101.44757549010683 79.1299795852974,97.54547644068953 77.85394964320585,94.6503649475053 76.9259278671816,91.0" stroke="#4dd2ff" stroke-linecap="round" stroke-linejoin="round" stroke-width="0.5"><title>2023-12-04 1.0km</title><desc>10324662812</desc></polyline><polyline fill="none" points="96.8737258380279,92.66154566861223 98.14975610887632,97.50771216268186 100.19140454102308,102.07694343582261 101.59503783797845,106.92308570316527 102.61586205428466,108.86153911822475 103.38148021604866,109.0 103.38148021604866,108.44615641166456 102.48825902771205,106.92308570316527 101.33983178436756,103.60001806344371 100.0638015139848,101.66155923262704 99.17058032471687,99.3077136843931 97.63934400025755,93.76924196642358 96.618519784417,91.0" stroke="#4dd2ff" stroke-linecap="round" stroke-linejoin="round" stroke-width="0.5"><title>2023-12-02 1.0km</title><desc>10313350310</desc></polyline><polyline fill="none" points="116.73258963692933,91.95454984041862 117.98928593005985,93.59091985307168 119.49732148181647,98.77274870162364 120.5026785172522,103.00001940899529 122.13638369832188,107.63636975188274 123.14174073329195,109.0 123.267410362605,108.18182197131682 123.0160711039789,106.54546483117156 121.63370518060401,103.54547299188562 119.49732148181647,100.13638546620496 118.24062518915161,97.54547475650907 116.98392889508978,91.0" stroke="#4dd2ff" stroke-linecap="round" stroke-linejoin="round" stroke-width="0.5"><title>2023-12-01 1.0km</title><desc>10308709030</desc></polyline><polyline fill="none" points="136.68232080945745,91.0 139.17058020224795,99.55001980031375 141.65883959503844,104.65001455100719 143.04120592400432,108.40000255848281 143.45591582311317,109.0 143.59415245614946,108.55000193545129 143.04120592400432,107.05000766995363 140.96765642985702,104.20001552719623 140.41470989910886,102.70001806365326 138.34116040496156,98.65001940354705 137.37350397417322,94.0000110277906 136.40584754385054,91.30000130133703" stroke="#4dd2ff" stroke-linecap="round" stroke-linejoin="round" stroke-width="0.5"><title>2023-11-30 1.0km</title><desc>10303537703</desc></polyline><polyline fill="none" points="157.9407525882125,94.84829198836815 158.74157102638856,97.4551944816485 159.08477892819792,99.56554117088672 160.34320790180936,102.04829860525206 161.71603950997815,105.77242791187018 163.0888711172156,108.75172544328962 163.31767638539895,109.0 163.54648165311664,108.75172544328962 163.31767638539895,107.8827642062679 162.40245531359687,106.2689778652275 161.14402633998543,102.79312512371689 159.3135841959156,99.06898924615234 158.62716839229688,95.09656858979724 157.2543367841281,92.98621631483547 156.45351834688336,91.0" stroke="#4dd2ff" stroke-linecap="round" stroke-linejoin="round" stroke-width="0.5"><title>2023-11-29 1.0km</title><desc>10298007687</desc></polyline><polyline fill="none" points="176.89713673759252,93.33094561949838 178.20988657930866,96.69786162441596 178.4485683683306,99.15829617308918 180.11934089427814,103.17268200626131 181.07406805222854,106.79857102350798 181.90945431543514,108.48201695899479 182.74484057817608,109.0 183.10286326240748,109.0 183.34154505236074,108.61151273362339 183.22220415715128,108.09352957829833 182.74484057817608,107.18705868988764 180.83538626274094,102.13671234436333 178.92593194777146,97.73383448482491 178.56790926354006,95.66188815457281 177.7325229998678,93.20144872169476 176.65845494763926,91.0" stroke="#4dd2ff" stroke-linecap="round" stroke-linejoin="round" stroke-width="0.5"><title>2023-11-28 1.0km</title><desc>10292316108</desc></polyline><polyline fill="none" points="19.577365040779114,111.0 20.633952440228313,113.8662559457589 21.267904879990965,116.61785669741221 22.11317479936406,117.87900541932322 23.064103459008038,119.71340173971839 24.015032118652016,122.69429115857929 24.86030203802511,124.07008435309399 24.86030203802511,124.75798049510922 24.332008338533342,125.21657775470521 22.64146849932149,126.13377186935395 21.58488109987229,127.05096544418484 20.52829370042309,127.62421115464531 18.943412601016462,128.31210572912823 16.407602842431515,129.0 15.984967882279307,128.8853509761393 15.66799166239798,128.5414038533345 15.13969796244055,126.36307031358592" stroke="#4dd2ff" stroke-linecap="round" stroke-linejoin="round" stroke-width="0.5"><title>2023-11-27 1.0km</title><desc>10287544518</desc></polyline><polyline fill="none" points="38.259959042072296,114.90211396722589 38.83997269440442,116.2867329143919 40.232005461119115,123.33568474079948 41.74004095746204,126.98602338775527 42.552060071378946,128.370632563252 43.13207372371107,129.0 43.24807645427063,128.8741265310673 42.90006826305762,128.244759047986 42.90006826305762,127.23777059407439 41.97204641858116,125.09791816282086 40.9280218440108,121.57344950502738 39.88399726944044,119.43358999444172 39.187980886083096,115.40561189572327 37.21593446750194,112.25874741270673 36.75192354526371,111.0" stroke="#4dd2ff" stroke-linecap="round" stroke-linejoin="round" stroke-width="0.5"><title>2023-11-26 1.0km</title><desc>10281488289</desc></polyline><polyline fill="none" points="56.722453544382006,111.0 58.06022760737687,114.48388377402443 59.264224264770746,119.41937526513357 60.46822092263028,122.17743866576348 60.735775735229254,123.91937146021519 61.40466276742518,125.51614183862694 62.876214237418026,128.27419672347605 63.54510126914829,129.0 63.812656081747264,129.0 61.80599498609081,124.64517633756623 61.538440173026174,123.19356631604023 60.20066611003131,121.30647169239819 57.52511798264459,114.04839863895904 56.187343918252736,111.58064772281796" stroke="#4dd2ff" stroke-linecap="round" stroke-linejoin="round" stroke-width="0.5"><title>2023-11-25 1.0km</title><desc>10275889695</desc></polyline><polyline fill="none" points="76.51178423129022,111.16822495521046 77.4419751027599,115.37384479888715 81.7828658381477,127.14953924051952 82.86808852106333,128.83177635679021 83.33318395726383,129.0 83.4882157696411,128.49532903218642 81.93789764959365,126.4766440478852 80.0775159066543,120.92525115737226 78.83726141043007,118.40188630030025 78.06210235133767,113.52337301988155 77.13191147893667,111.0" stroke="#4dd2ff" stroke-linecap="round" stroke-linejoin="round" stroke-width="0.5"><title>2023-11-24 1.0km</title><desc>10271180196</desc></polyline><polyline fill="none" points="97.7618844024837,113.00000823463779 98.1568459784612,114.14286915806588 99.07842298876494,119.00002058548853 101.31653858721256,125.85715487215202 102.36976945679635,128.71428701689 102.76473103230819,129.0 103.29134646710008,129.0 103.42300032638013,128.71428701689 103.15969260875136,127.28572146955412 101.71150016319007,123.14287544379476 97.89353826083243,114.85715689428616 96.57699967408553,111.0" stroke="#4dd2ff" stroke-linecap="round" stroke-linejoin="round" stroke-width="0.5"><title>2023-11-23 1.0km</title><desc>10265414399</desc></polyline><polyline fill="none" points="118.42293546302244,115.0563544301549 118.53975505847484,116.83100649237167 119.00703343981877,119.61974175705109 120.8761469651945,124.94367837370373 121.46024494152516,127.47888050868642 122.39480170421302,129.0 123.09571927599609,129.0 122.97889968100935,128.23944042192306 121.6938841319643,124.94367837370373 120.6425077742897,123.29579498723615 119.12385303527117,118.60565672838129 117.37155910488218,113.78874469583388 116.90428072400391,111.0" stroke="#4dd2ff" stroke-linecap="round" stroke-linejoin="round" stroke-width="0.5"><title>2023-11-21 1.0km</title><desc>10253878272</desc></polyline><polyline fill="none" points="138.06266986951232,115.86133173853159 138.6680855350569,119.8029423590051 141.2108313315548,126.24088767752983 142.30057953018695,128.6058413576102 142.66382892988622,129.0 142.90599519619718,128.86861379561014 143.02707832911983,128.6058413576102 142.5427457964979,126.50366046302952 140.3632493992336,121.77374440978747 139.51566746784374,119.27739477856085 138.18375300243497,114.15329776948784 137.4572542035021,112.83942437497899 136.97292167088017,111.0" stroke="#4dd2ff" stroke-linecap="round" stroke-linejoin="round" stroke-width="0.5"><title>2023-11-20 1.0km</title><desc>10248671423</desc></polyline><polyline fill="none" points="156.79542374471202,112.50000667187851 158.55479894345626,116.31819999893196 159.05747757246718,120.27274908765685 160.4398437999189,123.40910961094778 161.8222100273706,127.36364358162973 162.45055831270292,128.31818500091322 163.20457625528798,129.0 163.0789065985009,127.90909588139039 160.94252242846414,122.3182022041874 159.56015620101243,117.27274710254278 158.17778997309506,114.00001213059295 157.42377203051,111.0" stroke="#4dd2ff" stroke-linecap="round" stroke-linejoin="round" stroke-width="0.5"><title>2023-11-19 1.0km</title><desc>10242265034</desc></polyline><polyline fill="none" points="176.50164541276172,127.03792825492565 177.2877925108187,124.56400697666686 177.602251350414,123.9668527743197 178.1525543187745,123.62562166358111 180.82545445347205,123.2843904523179 182.7908221995458,122.85785129718715 183.4197398778051,122.34600410389248 183.81281342729926,121.83415668504313 184.28450168622658,119.70145667501492 184.12727226642892,119.01899184362264 184.44173110602424,118.50714295677608 184.20588697632775,114.5829606532352 184.04865755699575,114.07110980903963 183.97004284663126,112.53555592079647 183.81281342729926,111.5971608775435 182.94805161934346,111.34123482485302 182.24051923071966,111.85308687353972 182.39774865005165,111.5971608775435 182.5549780698493,111.85308687353972 181.53298684209585,111.34123482485302 181.45437213266268,111.0 181.21852800250053,111.17061742488295 181.3757574222982,111.0853087156429 180.82545445347205,111.76777821453288 180.90406916337088,111.6824695491814 182.5549780698493,112.53555592079647 182.16190452082083,112.87679029384162 181.53298684209585,113.13271600776352 180.03930735541508,113.38864166522399 179.96069264505059,113.04740744258743 180.35376619407907,112.87679029384162 180.90406916337088,112.96209887135774 182.5549780698493,111.34123482485302 184.83480465505272,111.4265435153502 184.5989605258219,111.25592612795299 184.28450168622658,111.17061742488295 184.04865755699575,115.26542809442617 184.12727226642892,116.45974515046692 184.36311639565974,117.90998563647736 184.52034581592306,120.38392110483255 184.52034581592306,121.23700107744662 184.28450168622658,122.0900804225821 183.81281342729926,122.60192772879964 179.88207793561742,123.02846697799396 178.07393960934132,123.36969826457789 177.1305630914867,124.05216053628828 176.02995715336874,125.58769917994505 175.40103947510943,127.80569585470948 175.16519534541294,129.0" stroke="#4dd2ff" stroke-linecap="round" stroke-linejoin="round" stroke-width="0.5"><title>2023-11-18 1.0km</title><desc>10236386505</desc></polyline><polyline fill="none" points="16.326857612468302,131.0 18.933603823184967,135.5000173689332 19.88151153549552,138.84287991863675 20.236976928077638,140.77145155961625 20.947907712776214,141.92859352345113 23.1991885304451,148.48571685689967 23.673142387531698,149.0 23.673142387531698,148.48571685689967 23.1991885304451,147.84286271536257 21.895815425552428,143.98573290230706 21.184884640853852,142.70002107415348 20.947907712776214,140.51430879719555 19.88151153549552,137.81430750666186 18.696626894641668,135.2428738315357 18.57813843060285,133.82858369813766" stroke="#4dd2ff" stroke-linecap="round" stroke-linejoin="round" stroke-width="0.5"><title>2023-11-17 1.0km</title><desc>10231268371</desc></polyline><polyline fill="none" points="36.78934295522049,131.58064772293437 38.52844885410741,134.04839863884263 38.929780984763056,137.3871155574452 40.133777376729995,140.00002051191404 42.00666065281257,146.96775015315507 43.21065704477951,149.0 43.07687966758385,147.8387146294117 42.14043803000823,145.95162444526795 41.47155114542693,144.0645324572688 40.401332130189985,139.56453659269027 38.26089410064742,135.06453047250398 37.59200721606612,133.03226628201082 37.190675085410476,131.0" stroke="#4dd2ff" stroke-linecap="round" stroke-linejoin="round" stroke-width="0.5"><title>2023-11-16 1.0km</title><desc>10225818993</desc></polyline><polyline fill="none" points="56.878527528606355,131.19354904140346 57.7703768061474,134.67742935777642 59.19733565021306,138.54840207961388 61.159404060803354,142.22582089412026 61.87288348283619,145.12904264521785 63.121472471393645,147.6451655733399 64.3700614599511,149.0 61.159404060803354,143.00001367391087 59.73244521673769,138.54840207961388 55.6299385400489,131.0" stroke="#4dd2ff" stroke-linecap="round" stroke-linejoin="round" stroke-width="0.5"><title>2023-11-15 1.0km</title><desc>10219684298</desc></polyline><polyline fill="none" points="76.81951958918944,133.16542284714524 78.44094097521156,135.19550445268396 78.69039041921496,137.7669379391009 80.56126124924049,142.23310335271526 81.68378374679014,146.02256853983272 82.80630624480546,148.86466231115628 83.30520513281226,149.0 83.1804804103449,147.37594707356766 81.55905902478844,145.21054094214924 80.93543541477993,143.31580848805606 79.93763763876632,142.09776516607963 79.56346347276121,140.60904445615597 77.69259264320135,136.81956812529825 77.06896903319284,134.11279454140458 76.69479486718774,131.0" stroke="#4dd2ff" stroke-linecap="round" stroke-linejoin="round" stroke-width="0.5"><title>2023-11-14 1.0km</title><desc>10213806154</desc></polyline><polyline fill="none" points="97.59588517481461,133.47827171022072 98.55753110535443,137.1304552895017 101.20205741235986,143.91306199040264 101.80308611830696,146.1304470184259 103.00514353159815,148.60869759391062 103.36576075525954,149.0 102.6445263074711,147.695658311015 100.9616459296085,143.65219298156444 100.84144018869847,142.60871656169184 99.63938277587295,139.73915324313566 97.83629665756598,136.47828020178713 97.11506220977753,134.26088311010972 96.63423924474046,131.0" stroke="#4dd2ff" stroke-linecap="round" stroke-linejoin="round" stroke-width="0.5"><title>2023-11-13 1.0km</title><desc>10208522228</desc></polyline><polyline fill="none" points="117.9892856348306,133.04546334268525 119.24598211282864,136.86365554714575 120.7540178867057,140.000021835207 121.63370542181656,143.68183636269532 122.51339295646176,146.27273850084748 123.64441978698596,148.72727403056342 124.14709837734699,149.0 124.39843767369166,148.45454802096356 123.01607154728845,145.72728572005872 122.26205366104841,142.7272925573634 119.49732140870765,140.1363854664378 117.9892856348306,137.95456616173033 117.73794633895159,135.6363803385757 115.60156232584268,131.0" stroke="#4dd2ff" stroke-linecap="round" stroke-linejoin="round" stroke-width="0.5"><title>2023-11-12 1.0km</title><desc>10202270880</desc></polyline><polyline fill="none" points="137.27653280971572,134.35822241124697 140.24758792715147,141.07464871543925 141.2379396329634,144.4328526093159 142.2282913387753,147.11941128061153 142.84726115502417,148.32836139411665 143.46623097080737,149.0 143.59002493415028,148.4626891349908 142.47587926499546,145.10449264734052 140.37138189002872,141.880618212861 138.14309055218473,136.77613872487564 137.27653280971572,133.14926305413246 136.40997506631538,131.0" stroke="#4dd2ff" stroke-linecap="round" stroke-linejoin="round" stroke-width="0.5"><title>2023-11-11 1.0km</title><desc>10196068378</desc></polyline><polyline fill="none" points="158.3266083188355,133.68422009726055 160.3637807997875,139.84212411462795 162.25544096156955,144.8947501218645 163.1285148812458,148.21052947919816 163.71056416165084,149.0 164.00158880185336,148.6842118264176 163.56505184154958,146.78948180971202 161.38236704096198,141.89475486346055 159.19968223944306,137.31580665381625 156.2894358378835,132.73684868169948 155.99841119768098,131.0" stroke="#4dd2ff" stroke-linecap="round" stroke-linejoin="round" stroke-width="0.5"><title>2023-11-10 1.0km</title><desc>10191120477</desc></polyline><polyline fill="none" points="175.82124576484784,131.54962088621687 177.97393734101206,133.1984825761756 179.2402265034616,135.39696256595198 179.62011325219646,136.22139189543668 179.62011325219646,137.45803520805202 181.01303132995963,141.71757813193835 181.51954699493945,144.19085666537285 182.53257832489908,146.93894008581992 182.78583615692332,148.31298028095625 183.41898073861375,149.0 183.7988674864173,148.86259607644752 184.17875423515216,148.31298028095625 182.78583615692332,147.35115225065965 180.50651566544548,144.0534523880342 177.84730842523277,136.77101124660112 177.21416384354234,132.64886217436288 176.58101926231757,131.0" stroke="#4dd2ff" stroke-linecap="round" stroke-linejoin="round" stroke-width="0.5"><title>2023-11-09 1.0km</title><desc>10185506531</desc></polyline><polyline fill="none" points="16.48859197832644,152.44526216865052 17.820505366194993,155.07300857105292 18.304837506264448,156.38688032352366 19.878916965331882,159.80294235935435 20.484332141000777,162.16790455882438 20.363249105867,160.72265025309753 20.605415176600218,161.64235767372884 21.089747317135334,165.18979614810087 22.179494634270668,168.47445512423292 22.663826775737107,169.0 23.269241951871663,168.73722758109216 23.51140802213922,168.34306888096035 22.179494634270668,167.16059225820936 21.210830352734774,165.58395554404706 20.605415176600218,163.87593086762354 19.757833929732442,160.98542385036126 18.54700357746333,159.2773947789101 17.215090189594775,156.38688032352366 16.851841083727777,154.2846850559581 16.972924118861556,151.65693749429192 16.730758048593998,151.0" stroke="#4dd2ff" stroke-linecap="round" stroke-linejoin="round" stroke-width="0.5"><title>2023-11-08 1.0km</title><desc>10179505859</desc></polyline><polyline fill="none" points="39.18798076687381,160.9440793383401 43.24807693203911,169.0 43.4800824271515,168.87412653141655 42.90006868960336,167.4895177630242 41.856043961364776,165.72728680237196 41.16002747556195,163.96505402820185 39.76799450442195,162.45456734951586 39.30398351512849,161.57344950479455 38.95597527176142,158.55247059487738 38.72396977664903,157.6713507422246 37.33193680597469,155.27973742736503 36.5199175728485,151.0" stroke="#4dd2ff" stroke-linecap="round" stroke-linejoin="round" stroke-width="0.5"><title>2023-11-06 1.0km</title><desc>10167691585</desc></polyline><polyline fill="none" points="58.26955626299605,156.0503782769665 59.10494289500639,157.6043379106559 62.20780752599239,164.72663535596803 63.520557946991175,168.7410084985895 63.75923984171823,169.0 63.99792173597962,169.0 63.99792173597962,168.61151273350697 63.04319415707141,166.5395791985793 62.20780752599239,165.37411551410332 62.08846657862887,164.72663535596803 61.372420894447714,163.94965885241982 59.34362478926778,160.45326034456957 56.956805841997266,154.36692046013195 56.00207826355472,151.0" stroke="#4dd2ff" stroke-linecap="round" stroke-linejoin="round" stroke-width="0.5"><title>2023-11-05 1.1km</title><desc>10161301187</desc></polyline><polyline fill="none" points="76.63423998747021,151.0 79.03835428180173,156.3478451555129 80.12020571436733,161.04350078164134 81.80308572063223,164.30436543212272 82.40411429479718,166.9130528375972 83.00514286803082,169.0 83.36576001252979,168.60869759402703 83.24555429723114,168.21739510179032 81.6828800062649,165.34784085466526 81.56267429096624,164.95653764309827 80.12020571436733,162.7391511480091 79.51917714066803,160.65219662082382 77.95650284923613,157.78263013751712 77.59588570520282,155.30436443991493 76.87465141667053,152.69565996550955" stroke="#4dd2ff" stroke-linecap="round" stroke-linejoin="round" stroke-width="0.5"><title>2023-11-04 1.0km</title><desc>10155501797</desc></polyline><polyline fill="none" points="104.8292560079135,153.73419068823569 103.46446626633406,151.91139743244275 102.62459565652534,151.3417740999721 100.94485443644226,151.0 99.37009704252705,151.11392470856663 97.16543669067323,152.139246706618 96.22058225423098,153.05064346885774 95.3807116439566,154.759510952048 95.1707439920865,156.12660358159337 94.8557925131172,160.6835702988319 95.06576016545296,165.46837092377245 95.27572781778872,166.15191266383044 96.32556608086452,167.86076569382567 97.58537199581042,168.77215320582036 99.68504852149636,169.0 101.5747573939152,168.20253607374616 103.35948244063184,166.0379890614422 103.8844015719369,165.01267626299523 104.61928835557774,161.7088859624928 104.61928835557774,159.08863347244915 105.1442074868828,155.6709061722504 105.03922366071492,154.41773760621436 103.8844015719369,153.05064346885774 102.93954713549465,152.36709594738204 100.73488678364083,151.3417740999721 99.58006469486281,151.3417740999721 97.06045286497101,152.139246706618 95.90563077572733,153.16456802631728 95.1707439920865,154.53166206309106 94.96077633928508,155.44305741763674 95.1707439920865,159.20255758613348 94.96077633928508,160.9114182825433" stroke="#4dd2ff" stroke-linecap="round" stroke-linejoin="round" stroke-width="0.5"><title>2023-11-03 1.0km</title><desc>10152446508</desc></polyline><polyline fill="none" points="116.27463989239186,151.0 117.25869727879763,153.13560138468165 118.10217503923923,156.94916981831193 119.50797130679712,159.69493475090712 121.61666570650414,165.18645371461753 122.03840458672494,166.10170546243899 122.74130272027105,168.54237481567543 123.16304160049185,169.0 123.72536010714248,169.0 123.72536010714248,168.6949165549595 122.74130272027105,168.23729130346328 122.31956384051591,167.1694986578077 121.33550645317882,166.25424738100264 120.63260832009837,164.2712015635334 119.64855093276128,162.74578041420318 118.52391391946003,160.45764658704866 117.25869727879763,155.72882868233137 116.41521951835603,153.74577280506492" stroke="#4dd2ff" stroke-linecap="round" stroke-linejoin="round" stroke-width="0.5"><title>2023-11-02 1.1km</title><desc>10144903556</desc></polyline><polyline fill="none" points="136.93475404940546,152.30435396311805 137.1751654963009,153.73914221522864 138.13681128481403,155.95653995871544 139.81969141447917,161.9565434876131 142.70462878094986,167.95652672555298 143.54606884531677,169.0 143.06524595152587,167.4347898582928 141.2621600977145,164.6956687872298 140.3005143092014,161.17393548239488 139.09845707379282,159.47828362043947 137.65598839055747,156.34784515528008 136.45393115468323,151.0" stroke="#4dd2ff" stroke-linecap="round" stroke-linejoin="round" stroke-width="0.5"><title>2023-11-01 1.0km</title><desc>10138966680</desc></polyline><polyline fill="none" points="157.3807812235318,151.27067799540237 158.0044047422707,153.3007616904797 159.00220237160102,158.71430726593826 160.62362351827323,162.23310335283168 161.62142114760354,165.48121684766375 163.24284229520708,169.0 163.367566999048,168.8646623105742 162.24504466587678,167.24060926458333 160.62362351827323,163.45114658481907 159.25165177835152,161.01505931455176 156.88188240956515,153.84211696428247 156.63243300141767,151.0" stroke="#4dd2ff" stroke-linecap="round" stroke-linejoin="round" stroke-width="0.5"><title>2023-10-31 1.0km</title><desc>10133123337</desc></polyline><polyline fill="none" points="177.17383081186563,153.1333426652709 177.78821541834623,156.33335195819382 177.78821541834623,157.5333539872663 179.1398615515791,159.80002232000697 182.82616918860003,167.66667279333342 183.44055379508063,168.8666673231637 183.68630763702095,169.0 180.86013844888657,163.40001914394088 179.6313692368567,159.93335566332098 178.27972310315818,157.1333533989964 176.31369236344472,151.0" stroke="#4dd2ff" stroke-linecap="round" stroke-linejoin="round" stroke-width="0.5"><title>2023-10-30 1.0km</title><desc>10127985445</desc></polyline><polyline fill="none" points="17.162513305433095,173.60527560755145 17.708183823619038,177.27633863000665 18.035586134530604,178.46055072336458 20.21826820774004,183.5526528044138 21.309609243646264,186.5131698701298 22.946620798669755,188.76315920078196 23.38315721368417,189.0 23.4922913168557,188.6447387879016 22.510084384121,187.10527262999676 21.091341036837548,184.026335900533 18.581256652716547,179.40791977138724 17.599049719516188,175.97370432177559 16.835110994055867,174.43422605399974 16.72597689041868,172.06579507607967 16.5077086831443,171.0" stroke="#4dd2ff" stroke-linecap="round" stroke-linejoin="round" stroke-width="0.5"><title>2023-10-28 1.0km</title><desc>10115543824</desc></polyline><polyline fill="none" points="37.66533815301955,174.73334801755846 38.64835366792977,177.93335448706057 39.75424612080678,180.46668893785682 40.737261635717005,184.06668443838134 42.211784907616675,187.53334001882467 42.82616960350424,188.8666673237458 43.44055429985747,189.0 43.563431239686906,188.8666673237458 43.31767736049369,188.06667105830275 42.580415724776685,186.0666788512608 40.12287693936378,181.26668855571188 38.156845910009,175.9333511054283 36.92807651730254,173.26667649880983 36.436568760313094,171.0" stroke="#4dd2ff" stroke-linecap="round" stroke-linejoin="round" stroke-width="0.5"><title>2023-10-27 1.0km</title><desc>10110442644</desc></polyline><polyline fill="none" points="57.560530186630785,173.77942351426464 59.8780265096575,181.58825709018856 60.73184094438329,183.9706063530175 61.585655379574746,185.42648490646388 62.561443304643035,188.20588614756707 62.92736377660185,188.7352954216767 63.659204720985144,189.0 63.78117821086198,188.60294311773032 63.659204720985144,188.07353380485438 62.439469813834876,186.48530493315775 60.609867453575134,183.3088429851923 58.41434462182224,176.82354910613503 56.95066273352131,174.44119038514327 56.21882178913802,171.0" stroke="#4dd2ff" stroke-linecap="round" stroke-linejoin="round" stroke-width="0.5"><title>2023-10-26 1.0km</title><desc>10104873905</desc></polyline><polyline fill="none" points="79.09845727263018,179.6087184365606 81.86318830493838,186.52174997131806 83.18545097252354,188.86956587433815 83.66627376014367,189.0 83.54606806393713,187.695658311015 80.30051424261183,182.0869781221263 78.49742878694087,177.52176022727508 76.93475472507998,174.26088311045896 76.33372623985633,171.0" stroke="#4dd2ff" stroke-linecap="round" stroke-linejoin="round" stroke-width="0.5"><title>2023-10-25 1.0km</title><desc>10098978222</desc></polyline><polyline fill="none" points="96.67021359270439,171.0 96.54913045093417,171.91971242427826 97.2756293034181,174.9416213426739 98.24429444037378,176.9124287540326 98.84971015015617,179.27739477867726 99.93945842934772,182.43067794316448 102.24003812810406,186.8978195694508 102.96653698058799,188.737227581325 103.20870326505974,189.0 103.45086954906583,188.8686137953773 103.32978640682995,187.16059225809295 101.99787184409797,184.6642501518363 101.02920670807362,183.2189978651004 99.81837528664619,180.45987661753315 99.57620900310576,179.01462093077134 98.12321129767224,176.78104166104458 97.2756293034181,174.8102341046324 97.03346301894635,172.44526216841768 96.67021359270439,171.0" stroke="#4dd2ff" stroke-linecap="round" stroke-linejoin="round" stroke-width="0.5"><title>2023-10-24 1.0km</title><desc>10092835699</desc></polyline><polyline fill="none" points="118.1502161314711,174.1079268073663 119.9403295526281,180.45326034456957 120.7757158158347,182.0072160938289 121.73044297331944,185.89209946908522 123.16253370977938,188.4820169589948 123.75923818396404,189.0 123.16253370977938,188.35252117482014 122.32714744703844,186.28058733535 120.17901134165004,183.69066660827957 119.7016477631405,182.7841934543103 119.2242841841653,179.80577837780584 117.7921934472397,176.9568548965035 116.83746628975496,173.9784299666062 116.24076181650162,171.0" stroke="#4dd2ff" stroke-linecap="round" stroke-linejoin="round" stroke-width="0.5"><title>2023-10-23 1.0km</title><desc>10087395010</desc></polyline><polyline fill="none" points="134.17224500933662,171.08633225236554 134.4904841897078,171.0 136.75793835008517,171.1726644920418 137.75243578874506,171.43166113487678 137.99111517402343,171.56115941354074 138.5082538423594,171.94965407782 138.86627292004414,172.3813145144959 139.66187087097205,173.8489576249267 140.059669846436,175.4892602887703 140.57680851477198,176.35257563943742 140.81548789981753,177.04322700586636 141.37240646546707,178.29503053677035 141.77020544116385,179.58999689779012 142.3669039043598,180.62596793007106 142.64536318718456,180.92812580347527 143.00338226510212,181.5324410837493 143.2022817528341,182.82740030408604 143.32162144547328,183.17272228054935 143.63986062561162,183.6475396664464 143.71942042093724,184.38134759839159 143.83876011357643,184.68350353906862 145.58907560561784,188.82734075089684 145.8277549908962,189.0 145.8277549908962,188.78417593060294 145.46973591297865,188.43885725463042 145.07193693774752,187.48922984837554 144.67413796205074,186.6690958525287 143.60008072829805,183.34538319258718" stroke="#4dd2ff" stroke-linecap="round" stroke-linejoin="round" stroke-width="0.5"><title>2023-10-22 1.5km</title><desc>10080655811</desc></polyline><polyline fill="none" points="157.13705715793185,171.0 157.7685886672698,171.45685924118152 156.63183195027523,171.27411558496533 158.4001201763749,173.5584074241924 158.56852857908234,174.10663621604908 158.44222227716818,174.56349317287095 157.85279286839068,174.88329284300562 157.68438446591608,175.2030923484126 157.72648656647652,175.75131968891947 158.06330337142572,177.07620043179486 158.44222227716818,178.03559506835882 158.86324328323826,179.4975269040442 159.62108109449036,180.82239965925692 159.74738739640452,181.3249368618708 160.21051050303504,182.14726958947722 160.50522520765662,182.51275045255898 160.54732730798423,182.74117588269291 160.84204201260582,183.01528628816595 161.05255251564085,183.47213669511257 161.3472672200296,184.3401515429723 161.64198192441836,184.93405574030476 161.59987982385792,186.12186243198812 162.14720713184215,187.1726126128342 162.31561553431675,187.675144680019 162.61033023847267,188.22336101706605 163.1155554461293,188.86294613225618 163.3681680499576,189.0 162.39981973543763,187.62945996341296 162.1893092324026,186.89850404136814 161.76828822609968,185.98480792954797 161.59987982385792,185.3909047365305 161.05255251564085,184.6142612430849 160.5894294087775,183.28939657268347" stroke="#4dd2ff" stroke-linecap="round" stroke-linejoin="round" stroke-width="0.5"><title>2023-10-20 1.4km</title><desc>10069668027</desc></polyline><polyline fill="none" points="176.37802091496997,171.0 176.46374823059887,171.69768395990832 177.14956675539725,173.3721223237808 177.32102138688788,174.39538803097093 178.7355220944155,177.83726962580113 178.86411306774244,178.302387323929 178.94984038360417,179.0000632299343 179.12129501462914,179.46518007316627 180.15002280217595,180.90704011387425 180.7072503536474,182.02331659808988 181.050159616163,183.13959111261647 181.35020522098057,183.7442389856442 181.52165985223837,184.67446535412455 181.7359781411942,185.13957802538062 182.29320569266565,186.58142513339408 182.37893300829455,187.13955861562863 183.19334250688553,188.81395610782783 183.40766079584137,189.0 183.5362517691683,189.0 183.6219790847972,188.95348903205013 183.57911542709917,188.9069780607242 182.721842271043,187.83722477586707 182.33606935059652,186.5349139876198 181.52165985223837,185.04655551846372 181.3930688786786,184.44190889014862 181.3073415630497,183.41865943354787" stroke="#4dd2ff" stroke-linecap="round" stroke-linejoin="round" stroke-width="0.5"><title>2023-10-19 1.3km</title><desc>10064004415</desc></polyline><polyline fill="none" points="15.941137907095253,191.0 17.70586055610329,193.29788272990845 17.5882123792544,194.95746281044558 17.823508732486516,196.61704130494036 18.64704596903175,199.55321475525852 19.823527734726667,201.46810780919623 21.000009500887245,204.7872507669963 23.35297303367406,208.61702321912162 23.705917563289404,209.0 24.058862092904747,208.87234108219855 22.529435796663165,207.3404333399376 19.70587955834344,201.8510861665709 18.999990498647094,199.4255551431561 16.99997149594128,195.21278268191963" stroke="#4dd2ff" stroke-linecap="round" stroke-linejoin="round" stroke-width="0.5"><title>2023-10-18 1.0km</title><desc>10058081424</desc></polyline><polyline fill="none" points="36.858259035274386,192.09091406327207 37.863616143818945,197.95456616184674 40.50267855450511,204.9091062474763 42.26205349434167,208.59091103076935 43.016071326099336,209.0 43.39308024197817,209.0 43.64441951876506,208.4545480213128 42.76473204931244,207.36364358162973 41.633705301675946,205.59092249977402 40.12566963862628,202.31820220442023 39.49732144596055,200.4091126989806 36.858259035274386,195.09092442982364 36.60691975848749,194.27274026570376 36.35558048123494,191.0" stroke="#4dd2ff" stroke-linecap="round" stroke-linejoin="round" stroke-width="0.5"><title>2023-10-17 1.0km</title><desc>10051702317</desc></polyline><polyline fill="none" points="55.98050376260653,191.41538655466866 57.25653431424871,193.63077996543143 59.17058014171198,198.61540561076254 60.19140458293259,200.55386757676024 61.339832079131156,204.15386307716835 62.74346568621695,207.75385169649962 63.25387790706009,208.72307822608855 63.891893182415515,209.0 64.01949623785913,208.86153911834117 63.891893182415515,208.44615641143173 62.48825957579538,206.36924150353298 60.574213748797774,201.66155923274346 59.17058014171198,198.75386724586133 58.022152645513415,193.3538559313165 57.384137369226664,191.0" stroke="#4dd2ff" stroke-linecap="round" stroke-linejoin="round" stroke-width="0.5"><title>2023-10-16 1.0km</title><desc>10046279660</desc></polyline><polyline fill="none" points="76.31368951732293,191.0 76.84030530136079,192.14286210003775 77.36692108446732,194.71429936750792 78.55180659657344,198.71430613135453 80.13165394589305,201.14287764916662 81.97480918699875,208.00000437430572 82.633078916464,208.71428701665718 83.55465653678402,209.0 83.68631048314273,208.71428701665718 83.55465653678402,207.8571478142403 81.84315524157137,205.42858468799386 80.92157762078568,202.57144771213643 79.86834605457261,200.85716351040173 77.36692108446732,195.0000144095393 76.44534346368164,191.0" stroke="#4dd2ff" stroke-linecap="round" stroke-linejoin="round" stroke-width="0.5"><title>2023-10-15 1.0km</title><desc>10039610121</desc></polyline><polyline fill="none" points="96.25423207087442,192.3064571354771 96.65556434867904,196.51614647032693 97.72578375739977,199.5645365928067 99.06355801783502,201.45163288107142 99.86622257437557,204.06453245715238 102.1404388169758,208.12903603585437 102.6755485208705,208.70967872138135 103.34443565178663,209.0 103.74576792959124,208.70967872138135 103.74576792959124,208.2741967231268 101.07021940825507,206.0967852922622 99.3311128700152,202.9032441836316 98.66222574003041,200.1451817966299 97.05689662694931,196.51614647032693 96.25423207087442,193.4677516417578 96.38800949696451,191.5806477224687 96.25423207087442,191.0" stroke="#4dd2ff" stroke-linecap="round" stroke-linejoin="round" stroke-width="0.5"><title>2023-10-14 1.0km</title><desc>10033377496</desc></polyline><polyline fill="none" points="115.91872827988118,191.28571558836848 118.28849895577878,194.1428691581823 118.55180680891499,196.2857315784786 120.78992355847731,203.14287544356193 122.89638638170436,208.14286092377733 123.5546560138464,209.0 124.08127171965316,209.0 124.08127171965316,208.5714305093279 123.94961779285222,208.14286092377733 122.76473245490342,207.2857214693213 121.44819319108501,204.85715762886684 119.99999999953434,200.28573510737624 117.36692147096619,194.42858428391628 116.9719596914947,192.42857752018608 116.313690058887,191.0" stroke="#4dd2ff" stroke-linecap="round" stroke-linejoin="round" stroke-width="0.5"><title>2023-10-13 1.0km</title><desc>10028006924</desc></polyline><polyline fill="none" points="136.1378172035329,191.0 137.40410664491355,192.6488621745957 138.16388031002134,194.0229128751671 138.29050925420597,195.80917727621272 138.16388031002134,197.73284472187515 139.55679869512096,200.6183421780588 141.2029749690555,205.0152821157826 142.84915124299005,208.03817232279107 143.22903807554394,208.58778819919098 143.86218279600143,209.0 143.86218279600143,208.31298028118908 142.46926441043615,206.5267278305255 141.2029749690555,204.32826093258336 139.55679869512096,199.79391478805337 138.54376714210957,198.007654195535 138.0372513658367,196.4962015914498" stroke="#4dd2ff" stroke-linecap="round" stroke-linejoin="round" stroke-width="0.5"><title>2023-10-12 1.0km</title><desc>10021974100</desc></polyline><polyline fill="none" points="157.89550185156986,193.5522495948244 158.39067788608372,196.23882426461205 158.26688387757167,197.31345302646514 159.38102995604277,200.9403204311384 160.2475880170241,202.5522591888439 161.1141460784711,205.50747655145824 162.35208616545424,208.46268913452514 162.59967418340966,208.73134458682034 163.2186442273669,209.0 163.09485021792352,208.46268913452514 161.73311612196267,204.97016465931665 160.2475880170241,202.41793101315852 158.26688387757167,197.85076717019547 157.7717078421265,196.1044956248952 157.5241198251024,193.5522495948244 156.7813557726331,191.0" stroke="#4dd2ff" stroke-linecap="round" stroke-linejoin="round" stroke-width="0.5"><title>2023-10-10 1.0km</title><desc>10009069592</desc></polyline><polyline fill="none" points="176.95066273305565,193.2500098424498 177.80447716778144,195.6323701395886 178.65829160250723,198.80884563201107 180.48789396276698,202.7794321157271 181.95157585060224,207.80882909044158 182.80539028532803,209.0 183.04933726694435,208.60294311773032 183.17131075728685,207.14706713322084 182.31749632256106,204.63236947765108 180.48789396276698,201.4559042607434 178.41434462135658,195.6323701395886 177.80447716778144,192.98530294792727 176.8286892422475,191.0" stroke="#4dd2ff" stroke-linecap="round" stroke-linejoin="round" stroke-width="0.5"><title>2023-10-09 1.0km</title><desc>10003389142</desc></polyline><polyline fill="none" points="16.33512142067775,211.0 17.23526703706011,212.11628403502982 18.135412653442472,214.20931483071763 18.649781576357782,218.3953694977099 20.578665039502084,222.58141493203584 22.25036404049024,227.3255885966355 23.021917425561696,228.7209315354703 23.66487857978791,229.0 23.66487857978791,227.88372589554638 21.221626193728298,223.97676135855727 18.00682042259723,216.1628081573872 16.72089811321348,211.13953554059844" stroke="#4dd2ff" stroke-linecap="round" stroke-linejoin="round" stroke-width="0.5"><title>2023-10-08 1.0km</title><desc>9996447828</desc></polyline><polyline fill="none" points="37.68947410071269,214.60001482162625 38.281916639301926,216.78573449037503 40.05924425413832,221.54287962068338 40.65168679272756,223.60001945286058 42.54750291490927,228.35714604717214 43.13994545349851,229.0 43.25843396084383,228.48571685678326 43.25843396084383,227.97143356245942 41.00715231569484,223.98573290207423 39.940755746793,221.67145093088038 38.044939623679966,216.01430433080532 37.45249708509073,213.05715223390143 36.74156603915617,211.0" stroke="#4dd2ff" stroke-linecap="round" stroke-linejoin="round" stroke-width="0.5"><title>2023-10-07 1.0km</title><desc>9989974159</desc></polyline><polyline fill="none" points="58.5293982247822,216.36172163987067 59.470583360642195,219.42555514350533 60.17647221311927,220.9574698683573 61.588249917607754,226.95745619398076 61.94119434338063,228.10638738039415 62.647083195857704,229.0 63.23532390547916,229.0 63.47062018932775,228.48936427361332 63.352972047869116,228.10638738039415 61.94119434338063,226.06384252291173 60.529416638892144,223.00002073205542 60.05882407119498,220.9574698683573 57.5882130889222,214.95746281091124 57.235268662683666,212.78724238602445 56.52937981067225,211.0" stroke="#4dd2ff" stroke-linecap="round" stroke-linejoin="round" stroke-width="0.5"><title>2023-10-06 1.0km</title><desc>9984428862</desc></polyline><polyline fill="none" points="76.12483936548233,211.0 78.16439759451896,216.45903345034458 79.52410308038816,221.0328068000963 81.83560240641236,226.78689395042602 82.78739624656737,228.7049193349667 83.19530789228156,229.0 83.73919008672237,229.0 83.87516063498333,228.7049193349667 83.46724898880348,227.96721748064738 81.83560240641236,225.60656972648576 80.88380856625736,223.6885413810378 79.25216198293492,219.40985615958925 78.57230924023315,217.19673953438178 76.6687215603888,213.65574785752688 76.6687215603888,212.32787436805665" stroke="#4dd2ff" stroke-linecap="round" stroke-linejoin="round" stroke-width="0.5"><title>2023-10-04 1.0km</title><desc>9971682885</desc></polyline><polyline fill="none" points="97.27562950411811,213.10219913115725 97.88104516966268,215.20439578976948 98.48646083520725,216.64965455804486 98.97079336829484,218.8832339918008 101.27137289801612,223.48177109507378 101.39245603140444,225.05840966361575 102.11895483080298,228.21168262825813 102.36112109664828,228.6058413576102 103.08761989604682,229.0 103.08761989604682,227.68613752059173 101.51353916525841,224.79563666554168 100.42379096662626,222.29929125588387 99.81837530015036,221.11681063415017 99.21295963414013,219.40878168831114 98.002128303051,216.912428754149 97.51779576996341,214.9416213426739 97.27562950411811,212.97081175807398 96.91238010441884,211.0" stroke="#4dd2ff" stroke-linecap="round" stroke-linejoin="round" stroke-width="0.5"><title>2023-10-03 1.0km</title><desc>9965060084</desc></polyline><polyline fill="none" points="116.70973855769262,211.7438048243057 118.35486927861348,217.09919148962945 118.62905773241073,219.47935879125725 119.58871732000262,220.66944139194675 120.27418845379725,222.45456398068927 121.50803649425507,227.06612337986007 122.46769608184695,228.55372094386257 123.15316721564159,229.0 123.29026144277304,228.8512403254863 122.87897876231,227.6611625365913 121.37094226805493,224.83472498285118 118.90324618574232,218.88431722810492 117.39520969148725,214.42149992857594 117.12102123815566,211.0" stroke="#4dd2ff" stroke-linecap="round" stroke-linejoin="round" stroke-width="0.5"><title>2023-10-02 1.0km</title><desc>9958643020</desc></polyline><polyline fill="none" points="137.146795372013,214.16801199468318 137.41220975574106,215.46401542495005 140.33176798000932,222.37601923558395 141.79154709167778,226.84000873356126 142.58779024379328,228.4240025616018 143.3840333954431,229.0 143.51674058800563,228.85600065614562 143.3840333954431,228.2800031756051 140.72988955536857,224.2480160703417 138.20845290785655,218.0560197121231 137.01408817991614,214.31201241828967 136.48325941199437,211.0" stroke="#4dd2ff" stroke-linecap="round" stroke-linejoin="round" stroke-width="0.5"><title>2023-10-01 1.0km</title><desc>9952075403</desc></polyline><polyline fill="none" points="157.41557656321675,213.60870696778875 158.4974282346666,215.8261048743734 158.97825119877234,218.04350000969134 159.3388684228994,220.1304576053517 161.14195454167202,225.21740646020044 162.70462917815894,228.47826343949419 163.42586362501606,229.0 163.6662751082331,228.60869759391062 161.26216028351337,224.95653764309827 160.18030861206353,222.47828196594492 159.81969138793647,221.17393548239488 158.13681101053953,217.52176022715867 157.17516508046538,213.47827171022072 156.3337248917669,211.0" stroke="#4dd2ff" stroke-linecap="round" stroke-linejoin="round" stroke-width="0.5"><title>2023-09-30 1.0km</title><desc>9945549317</desc></polyline><polyline fill="none" points="177.213150607422,211.0 178.40751463314518,213.0160082259681 178.80563597474247,214.60001323360484 179.86729288613424,217.19201866455842 180.3981213425286,221.0800203795079 180.79624268459156,222.23201940534636 182.38872805144638,226.12001111591235 182.78684939350933,228.56800193735398 183.05226362170652,228.85600065637846 183.4503849633038,229.0 183.58309207716957,228.7120013020467 181.19436402618885,224.39201575319748 179.60187865886837,220.64802057005 179.07105020293966,218.48802009352949 177.213150607422,214.16801199526526 176.4169079232961,211.57600256206933" stroke="#4dd2ff" stroke-linecap="round" stroke-linejoin="round" stroke-width="0.5"><title>2023-09-28 1.0km</title><desc>9933629332</desc></polyline><polyline fill="none" points="16.481247532647103,233.04546334245242 17.486605380661786,236.5909277930623 19.371651344932616,239.1818398362957 20.628348655067384,243.81819972326048 22.387724888511002,246.9545542517444 22.890403812751174,248.72727403056342 23.393082736060023,249.0 23.64442219864577,248.59091103065293 23.393082736060023,248.04545893135946 22.387724888511002,246.6818279812578 19.497321075759828,240.81820347253233 17.989284303970635,236.72729167481884 16.35557780181989,231.0" stroke="#4dd2ff" stroke-linecap="round" stroke-linejoin="round" stroke-width="0.5"><title>2023-09-27 1.0km</title><desc>9927137811</desc></polyline><polyline fill="none" points="41.49532136670314,231.0 41.13644423848018,232.73079315607902 40.777567110490054,233.72599691554205 40.49844045541249,234.93754704669118 38.86355576105416,238.35583575541386 38.02617579582147,239.78372262767516 37.86667484999634,240.38949176907772 37.94642532267608,240.86545280006249 38.145801505073905,241.55775906681083 38.743930051568896,243.02890717971604 38.94330623396672,243.4183281234 39.18255765270442,244.11063138698228 39.980062381597236,245.10581590171205 40.33893950958736,245.88465478277067 40.73769187415019,246.49041764438152 41.056693765800446,247.3557920793537 41.535196603043005,248.00482207047753 42.133325149770826,249.0" stroke="#4dd2ff" stroke-linecap="round" stroke-linejoin="round" stroke-width="0.5"><title>2023-09-26 1.0km</title><desc>9920397094</desc></polyline><polyline fill="none" points="59.91593836294487,231.0 59.131363085703924,233.61488918599207 58.34678780846298,235.01354744983837 57.618253622204065,235.92571460851468 57.22596598370001,236.65544761100318 57.05784271005541,237.38517996965675 57.113883800804615,238.29734451253898 57.3940892573446,239.02707542252028 58.06658235215582,240.06085977627663 58.34678780846298,241.0946428378229 58.90719872061163,242.43247782281833 59.97197945415974,243.77031064400217 61.76529437373392,247.4189346122439 62.94215728971176,249.0" stroke="#4dd2ff" stroke-linecap="round" stroke-linejoin="round" stroke-width="0.5"><title>2023-09-25 1.0km</title><desc>9914573673</desc></polyline><polyline fill="none" points="81.32704889355227,231.0 80.88469926244579,231.67200891877292 80.79622933617793,232.00801311869873 80.88469926244579,232.4400182645768 80.92893422557972,232.8720231244224 80.04423496313393,234.50403890397865 79.82306014746428,235.60804726480274 79.51341540599242,236.42405224451795 77.65554695483297,239.68806196353398 77.61131199169904,240.07206203386886 77.78825184400193,240.8400614973507 78.27483643847518,241.6080600572168 78.54024621727876,242.2800580559997 78.93836088525131,242.95205536298454 79.15953570092097,243.62405197828775 79.73459022142924,244.53604627848836 80.1769398523029,245.44803930463968 80.66352444700897,245.9760346848634 80.79622933617793,246.45603011449566 81.10587407811545,246.8400262040086 81.76939852489159,247.99201311788056 82.255983119132,248.5200064406381 82.38868800853379,249.0" stroke="#4dd2ff" stroke-linecap="round" stroke-linejoin="round" stroke-width="0.5"><title>2023-09-24 1.0km</title><desc>9907510217</desc></polyline><polyline fill="none" points="100.67104142787866,231.0 100.29525822820142,231.5825306751649 100.02684165723622,232.1650609219796 99.8657917145174,232.9223496025661 99.81210840004496,233.9126490924391 98.89949205797166,235.13595851819264 98.3626589155756,236.53402412019204 97.87950908741914,237.23305599595187 97.5574092019815,238.16509753774153 97.50372588750906,239.15539047430502 98.63107548677363,242.00975730718346 99.06054200069048,242.8835410165484 100.45630817115307,245.09712210064754 101.0468246275559,246.5534220727859 101.79839102714323,247.4854526500567 102.22785754106008,248.24272668687627 102.49627411249094,249.0" stroke="#4dd2ff" stroke-linecap="round" stroke-linejoin="round" stroke-width="0.5"><title>2023-09-23 1.0km</title><desc>9901004991</desc></polyline><polyline fill="none" points="120.69117305218242,231.0 120.33278702525422,231.6666743136011 119.97440099832602,232.83335294673452 119.15523293660954,234.5555895413272 118.33606487489305,235.7222637136001 117.61929282103665,237.66671666427283 117.5680948169902,238.72227474185638 117.6704908250831,239.33338663936593 118.69445090182126,241.7778292860603 118.84804491349496,242.5000494637643 119.05283692874946,242.88893696578452 119.76960898260586,243.77782193332678 120.33278702525422,244.88892667199252 120.79356905980967,246.05558488948736 121.56153911771253,247.16668627905892 122.43190518324263,249.0" stroke="#4dd2ff" stroke-linecap="round" stroke-linejoin="round" stroke-width="0.5"><title>2023-09-22 1.0km</title><desc>9895405405</desc></polyline><polyline fill="none" points="140.95418478921056,231.0 140.80738712917082,231.53097987367073 140.51379180978984,231.84956761042122 139.87766861682758,233.01772144268034 139.63300585048273,233.86728667921852 138.89901755098253,235.72570714971516 138.11609669867903,237.3186351749464 137.62677116552368,238.48678016033955 137.47997350571677,239.07085194438696 137.47997350571677,239.44253374281107 137.62677116552368,239.97350740875117 137.92036648537032,240.5044806843507 138.55648967833258,242.15049535757862 139.19261287082918,243.31863252696348 139.53514074371196,244.16818564524874 140.1712639364414,245.2301256377832 140.56272436259314,245.7079981250572 140.8563196824398,246.55754843255272 141.63924053497612,247.93806555081392 142.5200264940504,249.0" stroke="#4dd2ff" stroke-linecap="round" stroke-linejoin="round" stroke-width="0.5"><title>2023-09-21 1.0km</title><desc>9889267953</desc></polyline><polyline fill="none" points="161.83262381213717,231.0 161.1902608263772,232.9271348346956 160.81240024673752,234.4442362957052 160.20782331866212,235.71531812573085 159.48988821706735,237.84744888261775 158.2429483034648,240.18458284673397 157.90287378174253,241.45565159220132 157.9406598394271,241.74266671438818 158.16737618739717,242.3576986216649 158.65859494148754,243.42375232084305 158.9608834052924,244.32579616687144 159.71660456503741,245.39184610371012 160.17003726097755,246.2528849497321 160.4345396666322,246.86791188293137 160.73682813043706,247.4009346763487 161.22804688452743,247.76995015799184 161.83262381213717,248.6719869741064 161.8704098702874,248.83599351116573 162.09712621825747,249.0" stroke="#4dd2ff" stroke-linecap="round" stroke-linejoin="round" stroke-width="0.5"><title>2023-09-20 1.0km</title><desc>9882714971</desc></polyline><polyline fill="none" points="181.492503026966,231.0 181.10871653445065,231.97173551184824 180.3837864927482,234.10029377049068 180.3411435491871,234.79438729817048 180.08528588735498,235.16457019996597 179.78678528219461,235.85866255377186 179.61621350748464,236.50648139341502 179.27506995853037,237.3856630375376 178.29428225499578,238.9589323879336 178.03842459316365,239.88438310968922 177.9531387060415,240.71728759579128 178.03842459316365,241.55019097944023 178.29428225499578,242.47563789068954 178.59278286015615,243.12344991898863 179.53092762012966,244.74297707213555 180.00000000023283,245.39078676642384 180.42642943630926,246.5475881336024 180.85285887261853,247.28793989261612 181.27928830869496,247.889475055621 181.7483606885653,248.35219402058283 182.04686129419133,249.0" stroke="#4dd2ff" stroke-linecap="round" stroke-linejoin="round" stroke-width="0.5"><title>2023-09-19 1.0km</title><desc>9876194288</desc></polyline><polyline fill="none" points="19.867506621871144,251.0 19.54952251445502,251.51757766940864 19.019549002405256,252.5527319808025 18.860556948697194,253.24283409374766 17.906604626681656,254.91057835303945 17.16464170953259,256.46330257016234 17.005649655824527,257.03838483133586 17.058647007215768,257.6709748299909 17.37663111463189,258.47608863416826 17.853607275523245,259.3387096473016 18.27758608548902,260.5463774675154 18.860556948697194,261.81155127921375 19.49652516329661,262.96170751401223 20.079496026970446,263.70930815977044 20.768461592728272,264.85946160397725 21.192440402461216,266.182135974057 21.934403319843113,267.3322857822059 22.305384778417647,268.36741916363826 22.994350344408303,269.0" stroke="#4dd2ff" stroke-linecap="round" stroke-linejoin="round" stroke-width="0.5"><title>2023-09-18 1.0km</title><desc>9870505463</desc></polyline><polyline fill="none" points="40.180867734597996,251.0 39.92248525680043,251.5046786859748 39.56074978783727,253.18693856027676 39.09566132770851,253.97199189837556 38.888955345377326,254.58881895412924 37.75207244278863,256.43929712829413 37.33866047835909,257.4486469672411 37.08027800032869,258.3458457023953 37.286983982659876,258.9626692206948 38.42386688501574,261.4299583049142 38.99230833654292,262.3271523566218 39.40572030097246,263.2804198800004 40.0775147434324,264.17761175491614 40.439250212628394,264.79443055659067 40.90433867252432,266.2523639231222 42.91972199990414,269.0" stroke="#4dd2ff" stroke-linecap="round" stroke-linejoin="round" stroke-width="0.5"><title>2023-09-16 1.0km</title><desc>9856514700</desc></polyline><polyline fill="none" points="59.75117739033885,251.0 59.198238257551566,252.68001679936424 58.47941738506779,253.82002622907748 56.98648172640242,256.7000429572654 56.931187813170254,257.36004535935353 56.98648172640242,258.1400475098053 57.318245206261054,258.92004891473334 57.87118433904834,259.76004959398415 58.368829558370635,260.9000491327606 59.25353217078373,262.4000460996176 60.35941043659113,264.50003722141264 60.46999826305546,265.2800325474236 60.85705565591343,265.58003055123845 61.29940696223639,266.18002622795757 62.018227834720165,267.38001625816105 62.7923426204361,268.04001002263976 62.95822436036542,268.46000577666564 63.068812187062576,269.0" stroke="#4dd2ff" stroke-linecap="round" stroke-linejoin="round" stroke-width="0.5"><title>2023-09-15 1.0km</title><desc>9850671982</desc></polyline><polyline fill="none" points="80.45760422758758,251.0 79.54239577241242,253.4207119922503 78.51278626034036,254.91037746024085 78.05518203275278,255.7172784911818 77.36877569137141,257.4552165536443 77.19717410602607,258.07590785168577 77.19717410602607,258.57246056129225 77.36877569137141,259.193151037849 78.05518203275278,261.05521972937277 78.6843878456857,262.29659657517914 80.22880211402662,264.96555061248364 80.85800792672671,266.14485319692176 80.97240898362361,266.82760657178005 81.43001321121119,267.26208570454037 82.17362008104101,268.44138508086326 82.80282589397393,269.0" stroke="#4dd2ff" stroke-linecap="round" stroke-linejoin="round" stroke-width="0.5"><title>2023-09-14 1.0km</title><desc>9844236351</desc></polyline><polyline fill="none" points="97.13924675201997,251.0 97.46854208991863,251.26799398573348 97.59202784160152,251.535987853189 97.67435167613439,252.11664082697826 97.92132317950018,252.60796214069705 98.08597084856592,253.99259279557737 98.08597084856592,254.66257423744537 98.00364701403305,255.01989737094846 98.08597084856592,255.46655099239433 98.29178043454885,256.00253490457544 98.20945660024881,256.4491878034314 98.25061851739883,256.6725141296629 98.66223768983036,257.4318230249919 99.03269494511187,258.54845202929573 99.3619902827777,259.17376337520545 99.77360945520923,259.7544090486481 100.22639054479077,260.1563941896311 100.34987629647367,260.42438413598575 100.47336204838939,261.00502861407585 100.80265738628805,261.5856725371559 101.17311464133672,262.6576290910598 101.6670576480683,263.5955895241932 101.91402915143408,264.39955445716623 102.0375149033498,265.0695244217641 102.28448640671559,265.6054998616455 102.73726749629714,267.0794298829278 103.35469625494443,268.2407055631047 103.39585817232728,268.41936316300416 103.35469625494443,268.5533563285135 102.86075324798003,269.0 103.10772475157864,268.8213425707654 103.23121050326154,268.5533563285135 103.31353433756158,268.330034369661 103.27237242064439,268.0173834892921 103.02540091704577,267.70473244803725 102.28448640671559,266.0968102659681 101.91402915143408,264.89086583675817 101.1319527241867,263.14894187945174 100.7614954689052,261.45167783496436 100.55568588292226,260.96036367397755 99.77360945520923,259.9330691441428 98.99153302772902,258.45912178448634 98.62107577244751,257.2531621938688 98.49759002099745,256.4491878034314 98.16829468286596,255.60054701479385 97.50970400730148,254.1712545856717 97.34505633823574,253.50127260189038 96.7687894969713,252.4292998908204 96.64530374505557,251.84864721581107 96.60414182790555,251.1339970076806" stroke="#4dd2ff" stroke-linecap="round" stroke-linejoin="round" stroke-width="0.5"><title>2023-09-13 1.0km</title><desc>9837636972</desc></polyline></svg>