<?xml version="1.0" encoding="utf-8" ?>
<svg baseProfile="full" height="300mm" version="1.1" viewBox="0,0,200,300" width="200mm" xmlns="http://www.w3.org/2000/svg" xmlns:ev="http://www.w3.org/2001/xml-events" xmlns:xlink="http://www.w3.org/1999/xlink"><defs /><rect fill="#222222" height="300" width="200" x="0" y="0" /><text fill="#FFFFFF" style="font-size:12px; font-family:Arial; font-weight:bold;" x="10" y="20">Over 1km Runs</text><text fill="#FFFFFF" style="font-size:4px; font-family:Arial" x="10" y="280">ATHLETE</text><text fill="#FFFFFF" style="font-size:9px; font-family:Arial" x="10" y="290">Jiakai</text><text fill="#FFFFFF" style="font-size:4px; font-family:Arial" x="120" y="280">STATISTICS</text><text fill="#FFFFFF" style="font-size:3px; font-family:Arial" x="120" y="285">Number: 34</text><text fill="#FFFFFF" style="font-size:3px; font-family:Arial" x="120" y="290">Weekly: 5.7</text><text fill="#FFFFFF" style="font-size:3px; font-family:Arial" x="141" y="285">Total: 35.2 km</text><text fill="#FFFFFF" style="font-size:3px; font-family:Arial" x="141" y="290">Avg: 1.0 km</text><text fill="#FFFFFF" style="font-size:3px; font-family:Arial" x="167" y="285">Min: 1.0 km</text><text fill="#FFFFFF" style="font-size:3px; font-family:Arial" x="167" y="290">Max: 1.4 km</text><polyline fill="none" points="22.234955127583817,31.714285714318976 23.3175805718638,32.49747298494913 21.368854771833867,32.184198145754635 24.400206016376615,36.100127012934536 24.68890613503754,37.039947798941284 24.472381046041846,37.82313115359284 23.461930631194264,38.371359159529675 23.173230512533337,38.91958688304294 23.2454055424314,39.85940518107964 23.82280577928759,42.13062931166496 24.472381046041846,43.77530583151383 25.194131342461333,46.28147469263058 26.493281875969842,48.552685130154714 26.709806964732707,49.4141774775926 27.503732290817425,50.823890724859666 28.008957498474047,51.450429347285535 28.081132527673617,51.84201579896035 28.58635773533024,52.31191935116658 28.947232883423567,53.09509147738572 29.45245809131302,54.583116930909455 29.95768329873681,55.60123841202585 29.88550826907158,57.637478454911616 30.8237836540211,59.43876447924413 31.112483772914857,60.300248022947926 31.617708980105817,61.24004745786078 32.48380933585577,62.33647908392595 32.91685951361433,62.571428571420256 31.25683383201249,60.22193136590067 30.89595868391916,58.968864070950076 30.174208387266845,57.402527879341505 29.88550826907158,56.384408119891305 28.947232883423567,55.05301927390974 28.15330755757168,52.781822696037125" stroke="#4dd2ff" stroke-linecap="round" stroke-linejoin="round" stroke-width="0.5"><title>2023-10-20 1.4km</title><desc>10069668027</desc></polyline><polyline fill="none" points="57.36232156865299,31.714285714260768 57.509282681159675,32.91031535976799 58.684971581213176,35.78078112640651 58.97889380622655,37.53495091025252 61.403752162121236,43.43531935848296 61.62419383088127,44.23266398377018 61.771154943387955,45.428679822653066 62.06507716840133,46.22602298256243 63.82861051801592,48.69778305228101 64.78385774930939,50.611399882414844 65.37170219933614,52.52501333586406 65.88606609310955,53.56155254674377 66.17998831812292,55.156226321239956 66.54739109938964,55.95356232917402 67.50263833068311,58.42530022858409 67.6495994431898,59.38210048386827 69.04573001200333,62.2524961848394 69.41313279280439,62.571428571420256 69.63357446156442,62.571428571420256 69.78053557407111,62.491695483447984 69.70705501828343,62.41196238971315 68.23744389321655,60.57809961569728 67.57611888693646,58.345566835894715 66.17998831812292,55.79409517440945 65.95954664936289,54.75755809730617 65.8125855368562,53.003416171704885" stroke="#4dd2ff" stroke-linecap="round" stroke-linejoin="round" stroke-width="0.5"><title>2023-10-19 1.3km</title><desc>10064004415</desc></polyline><polyline fill="none" points="93.04195069801062,31.714285714318976 96.06718952488154,35.653513251338154 95.86550693586469,38.4985076750163 96.26887211296707,41.34349937993102 97.68065023235977,46.376939580310136 99.69747611694038,49.65961338719353 101.71430200152099,55.34957274328917 105.74795377161354,61.914896947098896 106.35300153773278,62.57142857136205 106.95804930198938,62.35258471244015 104.33617565222085,59.726457154145464 99.49579352885485,50.316147713921964 98.28569799754769,46.158094531157985 94.85709399357438,38.93619888345711" stroke="#4dd2ff" stroke-linecap="round" stroke-linejoin="round" stroke-width="0.5"><title>2023-10-18 1.0km</title><desc>10058081424</desc></polyline><polyline fill="none" points="131.04272977449,33.58442410849966 132.76619910355657,43.63639913452789 137.29030609317124,55.55846785288304 140.30637741833925,61.870133195538074 141.598979415372,62.57142857136205 142.2452804138884,62.57142857136205 142.6761477459222,61.63636803650297 141.16811208426952,59.766246139770374 139.22920908872038,56.72729571373202 136.64400509465486,51.11691806465387 135.56683676410466,47.84419319801964 131.04272977449,38.727299022488296 130.6118624424562,37.32469759811647 130.18099511042237,31.714285714318976" stroke="#4dd2ff" stroke-linecap="round" stroke-linejoin="round" stroke-width="0.5"><title>2023-10-17 1.0km</title><desc>10051702317</desc></polyline><polyline fill="none" points="165.96657787822187,32.42637695069425 168.154058823362,36.22419422632083 171.4352802420035,44.7692667611409 173.18526499904692,48.092344417003915 175.1539978487417,54.26376527477987 177.5602268902585,60.43517433665693 178.43521926831454,62.09670553030446 179.52895973995328,62.57142857136205 179.74770783539861,62.33406705968082 179.52895973995328,61.62198241939768 177.12273070029914,58.061556863132864 173.84150928258896,49.99124439875595 171.4352802420035,45.00662956410088 169.4665473913774,35.749467310495675 168.372806917876,31.714285714086145" stroke="#4dd2ff" stroke-linecap="round" stroke-linejoin="round" stroke-width="0.5"><title>2023-10-16 1.0km</title><desc>10046279660</desc></polyline><polyline fill="none" points="20.823467743583024,65.99999999976717 21.726237658411264,67.95919217122719 22.629007572308183,72.36737034399994 24.66023987904191,79.2245247962419 27.368549620732665,83.38779025524855 30.52824431937188,95.1428646412678 31.65670671314001,96.3673491710797 33.23655406199396,96.85714285704307 33.46224654186517,96.3673491710797 33.23655406199396,94.89796768128872 30.30255184136331,90.73471660772339 28.722704491578043,85.83676750632003 26.917164663784206,82.89799458906054 22.629007572308183,72.85716755897738 21.049160222522914,65.99999999976717" stroke="#4dd2ff" stroke-linecap="round" stroke-linejoin="round" stroke-width="0.5"><title>2023-10-15 1.0km</title><desc>10039610121</desc></polyline><polyline fill="none" points="57.150112121365964,68.23964080377482 57.83811031281948,75.45625109202228 59.67277215607464,80.68206273042597 61.966099459677935,83.91708493907936 63.34209584258497,88.39634135528468 67.24075225833803,95.36406177585013 68.15808317903429,96.35944923665375 69.30474683176726,96.85714285704307 69.99274502228945,96.35944923665375 69.99274502228945,95.61290866835043 65.40609041508287,91.88020335813053 62.424764920026064,86.40556145762093 61.27810126915574,81.67745450860821 58.526108504273,75.45625109202228 57.150112121365964,70.2304313860368 57.37944485247135,66.9953960957937 57.150112121365964,66.0" stroke="#4dd2ff" stroke-linecap="round" stroke-linejoin="round" stroke-width="0.5"><title>2023-10-14 1.0km</title><desc>10033377496</desc></polyline><polyline fill="none" points="93.00353419408202,66.48979815118946 97.0659982105717,71.3877756993752 97.51738310139626,75.06125413440168 101.35415467247367,86.81635790294968 104.96523379720747,95.38776158331893 106.09369602333754,96.85714285704307 106.99646580591798,96.85714285704307 106.99646580591798,96.12245230167173 106.77077335957438,95.38776158331893 104.7395413517952,93.91837966162711 102.48261689953506,89.75512736360542 100.0,81.91840304108337 95.48615109361708,71.87757305800915 94.80907375738025,68.44899003440514 93.68061153031886,65.99999999976717" stroke="#4dd2ff" stroke-linecap="round" stroke-linejoin="round" stroke-width="0.5"><title>2023-10-13 1.0km</title><desc>10028006924</desc></polyline><polyline fill="none" points="129.80768663436174,65.99999999976717 131.97846853360534,68.8266208707355 133.28093767352402,71.18213635729626 133.49801586475223,74.24430390191264 133.28093767352402,77.54201952298172 135.6687977630645,82.48858659085818 138.49081423319876,90.02619791263714 141.3128307024017,95.20829541049898 141.96406527236104,96.15049405558966 143.04945622198284,96.85714285704307 143.04945622198284,95.67939476761967 140.66159613244236,92.61724770930596 138.49081423319876,88.84844731283374 135.6687977630645,81.07528249360621 133.93217224348336,78.0131214777939 133.06385948415846,75.42205987102352" stroke="#4dd2ff" stroke-linecap="round" stroke-linejoin="round" stroke-width="0.5"><title>2023-10-12 1.0km</title><desc>10021974100</desc></polyline><polyline fill="none" points="169.2494317451492,70.37528501963243 170.0983049478382,74.98084159637801 169.88608664739877,76.82306233118288 171.79605135321617,83.04054931062274 173.28157945815474,85.80387289519422 174.76710756402463,90.86995980259962 176.88929056935012,95.93603851622902 177.31372717116028,96.39659072016366 178.37481867522,96.85714285704307 178.16260037384927,95.93603851622902 175.8281990662217,89.94885370181873 173.28157945815474,85.57359602255747 169.88608664739877,77.74417229183018 169.03721344377846,74.75056392839178 168.61277684289962,70.37528501963243 167.3394670393318,66.0" stroke="#4dd2ff" stroke-linecap="round" stroke-linejoin="round" stroke-width="0.5"><title>2023-10-10 1.0km</title><desc>10009069592</desc></polyline><polyline fill="none" points="21.915421828627586,104.14287401572801 23.37910371646285,108.22692023939453 24.842785604298115,113.6723067977 27.979246793314815,120.47902648407035 30.488415744155645,129.1008498694282 31.95209763199091,131.14285714295693 32.37029245775193,130.46218820195645 32.57938987016678,127.96640079980716 31.115707982331514,123.65549053321593 27.979246793314815,118.21012158994563 24.424590779468417,108.22692023939453 23.37910371646285,103.68909076787531 21.706324415281415,100.28571428591385" stroke="#4dd2ff" stroke-linecap="round" stroke-linejoin="round" stroke-width="0.5"><title>2023-10-09 1.0km</title><desc>10003389142</desc></polyline><polyline fill="none" points="57.28877957817167,100.28571428568102 58.831886349245906,102.1993440601509 60.37499311938882,105.78739685262553 61.25676841661334,112.96349056763574 64.5634257812053,120.13956845505163 67.42919549718499,128.27243759436533 68.75185844302177,130.66445406060666 69.85407756455243,131.14285714295693 69.85407756455243,129.22924439236522 65.66564490273595,122.53159090038389 60.15454929508269,109.13624255545437 57.95011105109006,100.52491806959733" stroke="#4dd2ff" stroke-linecap="round" stroke-linejoin="round" stroke-width="0.5"><title>2023-10-08 1.0km</title><desc>9996447828</desc></polyline><polyline fill="none" points="96.0390984583646,106.45716826571152 97.05471423827112,110.20411626901478 100.10156157799065,118.35922220698558 101.11717735882849,121.88574763340876 104.367147853598,130.04082179511897 105.38276363443583,131.14285714295693 105.58588679041713,130.261228897376 105.58588679041713,129.37960039288737 101.72654682677239,122.54697068920359 99.89843842200935,118.57963016722351 96.64846792630851,108.88166456692852 95.63285214547068,103.81226097233593 94.41411320958287,100.28571428568102" stroke="#4dd2ff" stroke-linecap="round" stroke-linejoin="round" stroke-width="0.5"><title>2023-10-07 1.0km</title><desc>9989974159</desc></polyline><polyline fill="none" points="133.9075398137793,109.47723709698766 135.52100004721433,114.72952310321853 136.73109522275627,117.35566263156943 139.15128557290882,127.64135347562842 139.75633316021413,129.61094979499467 140.96642833575606,131.14285714295693 141.97484098095447,131.14285714295693 142.37820603884757,130.2674816120416 142.17652351036668,129.61094979499467 139.75633316021413,126.10944432509132 137.33614281006157,120.85717839794233 136.52941269334406,117.35566263156943 132.29407958127558,107.06993624730967 131.68903199397027,103.34955837624148 130.47893681842834,100.28571428591385" stroke="#4dd2ff" stroke-linecap="round" stroke-linejoin="round" stroke-width="0.5"><title>2023-10-06 1.0km</title><desc>9984428862</desc></polyline><polyline fill="none" points="166.21401034016162,100.28571428568102 169.7103958753869,109.64405734348111 172.04131956584752,117.4848116573412 176.0038898382336,127.34896105783992 177.6355364220217,130.63700457429513 178.3348135286942,131.14285714295693 179.26718300580978,131.14285714295693 179.50027537345886,130.63700457429513 178.80099826585501,129.3723728240002 176.0038898382336,125.32554810238071 174.37224325537682,122.03749951045029 171.57513482682407,114.70261055929586 170.40967298299074,110.90869634458795 167.14637981634587,104.83842489868402 167.14637981634587,102.56207034527324" stroke="#4dd2ff" stroke-linecap="round" stroke-linejoin="round" stroke-width="0.5"><title>2023-10-04 1.0km</title><desc>9971682885</desc></polyline><polyline fill="none" points="22.472507720813155,138.17519851052202 23.510363146662712,141.77896421100013 24.54821857344359,144.25655067083426 25.378502916544676,148.08554398594424 29.322353539057076,155.96875044866465 29.529924624599516,158.67155942320824 30.77535113785416,164.07717021973804 31.190493308007717,164.7528708986938 32.43591982033104,165.42857142863795 32.43591982033104,163.17623574961908 29.73749571107328,158.22109142667614 27.86935594212264,153.941642152844 26.831500514410436,151.914532515686 25.793645086698234,148.98648289428093 23.717934233136475,144.7070207213983 22.887649890966713,141.32849373016506 22.472507720813155,137.94996301387437 21.849794464185834,134.57142857136205" stroke="#4dd2ff" stroke-linecap="round" stroke-linejoin="round" stroke-width="0.5"><title>2023-10-03 1.0km</title><desc>9965060084</desc></polyline><polyline fill="none" points="57.93098038434982,135.8465225561522 60.751204477623105,145.02718541095965 61.22124182712287,149.10747221391648 62.86637254804373,151.14761381503195 64.04146592132747,154.20782396709546 66.15663399081677,162.11335436580703 67.80176471173763,164.66352161834948 68.97685808409005,165.42857142863795 69.21187675837427,165.1735548437573 68.50682073552161,163.13342149136588 65.92161531653255,158.28809997090138 61.69127917569131,148.08740096259862 59.106073756702244,140.43685702071525 58.636036408133805,134.57142857159488" stroke="#4dd2ff" stroke-linecap="round" stroke-linejoin="round" stroke-width="0.5"><title>2023-10-02 1.0km</title><desc>9958643020</desc></polyline><polyline fill="none" points="95.1087920665741,140.00230627693236 95.56378815323114,142.22402644297108 100.56874510925263,154.0731758326292 103.07122358679771,161.72572925779969 104.43621184770018,164.44114724872634 105.80120010674,165.42857142863795 106.02869815099984,165.18171541090123 105.80120010674,164.1942911585793 101.25123923830688,157.28231326374225 96.92877641413361,146.66746236407198 94.88129402324557,140.24916414590552 93.97130184900016,134.57142857159488" stroke="#4dd2ff" stroke-linecap="round" stroke-linejoin="round" stroke-width="0.5"><title>2023-10-01 1.0km</title><desc>9952075403</desc></polyline><polyline fill="none" points="131.99813125189394,139.043497659266 133.85273411683738,142.84475121321157 134.67700205557048,146.64600001671351 135.29520301148295,150.22364160930738 138.3862077863887,158.9441253603436 141.0650785919279,164.53416589647532 142.30148050095886,165.42857142863795 142.71361447218806,164.7577673040796 138.5922747720033,158.49692167411558 136.73767190705985,154.24848337029107 136.1194709520787,152.01246082712896 133.23453316185623,145.7515889608767 131.58599728159606,138.81989436061122 130.14352838601917,134.57142857159488" stroke="#4dd2ff" stroke-linecap="round" stroke-linejoin="round" stroke-width="0.5"><title>2023-09-30 1.0km</title><desc>9945549317</desc></polyline><polyline fill="none" points="168.07968675531447,134.57142857159488 170.12716794293374,138.02744267322123 170.80966167151928,140.74287982913665 172.62964494805783,145.18631771067157 173.5396365877241,151.85146350762807 174.22213031630963,153.8263189806603 176.95210523158312,160.49144762731157 177.63459896016866,164.6880033214111 178.08959478046745,165.18171541090123 178.772088509053,165.42857142863795 178.99958641827106,164.93485937500373 174.9046240458265,157.52916986262426 172.17464912962168,151.1108924059663 171.26465749088675,147.4080344461836 168.07968675531447,140.00230627763085 166.71469929721206,135.55886153504252" stroke="#4dd2ff" stroke-linecap="round" stroke-linejoin="round" stroke-width="0.5"><title>2023-09-28 1.0km</title><desc>9933629332</desc></polyline><polyline fill="none" points="21.110710055567324,172.36365144420415 22.834180652163923,178.4415905023925 26.065688019618392,182.8831540052779 28.22002626489848,190.83119952562265 31.236099808476865,196.20780728873797 32.097835106775165,199.2467554807663 32.95957040414214,199.71428571431898 33.390438054688275,199.01299033826217 32.95957040414214,198.07792959664948 31.236099808476865,195.7402765394654 26.281121844425797,185.68834880995564 23.6959159495309,178.67535715689883 20.89527623169124,168.8571428572759" stroke="#4dd2ff" stroke-linecap="round" stroke-linejoin="round" stroke-width="0.5"><title>2023-09-27 1.0km</title><desc>9927137811</desc></polyline><polyline fill="none" points="66.13483662880026,168.85714285710128 65.51961869490333,171.82421683898428 64.90440076123923,173.53028042666847 64.42589792399667,175.6072235086467 61.62323844782077,181.4671470093308 60.18772993609309,183.91495307604782 59.91429974301718,184.9534144612844 60.05101483920589,185.7693476572167 60.39280258025974,186.9561584002222 61.41816580318846,189.47812659380725 61.75995354424231,190.14570535434177 62.17009883350693,191.33251094917068 63.53724979725666,193.0385415458586 64.15246773092076,194.37369391327957 64.83604321326129,195.4121445332421 65.38290359871462,196.8956435645814 66.20319417724386,198.00826640654122 67.22855739993975,199.71428571426077" stroke="#4dd2ff" stroke-linecap="round" stroke-linejoin="round" stroke-width="0.5"><title>2023-09-26 1.0km</title><desc>9920397094</desc></polyline><polyline fill="none" points="99.85589433694258,168.8571428571595 98.51090814732015,173.33981003321242 97.16592195769772,175.7375099140918 95.91700620949268,177.30122504313476 95.24451311537996,178.55219590466004 94.95630178879946,179.80316566233523 95.05237223021686,181.36687630729284 95.53272444149479,182.6178435815964 96.68556974688545,184.3900453307433 97.16592195769772,186.1622448648559 98.12662637839094,188.45567626773845 99.95196477882564,190.7491039611632 103.02621892653406,197.00388790667057 105.04369821120054,199.71428571431898" stroke="#4dd2ff" stroke-linecap="round" stroke-linejoin="round" stroke-width="0.5"><title>2023-09-25 1.0km</title><desc>9914573673</desc></polyline><polyline fill="none" points="138.70351238828152,168.85714285710128 137.94519873522222,170.00915814639302 137.79353600461036,170.58516534627415 137.94519873522222,171.32574559631757 138.02103010052815,172.06632535607787 136.50440279347822,174.86406669241842 136.12524596694857,176.75665245385608 135.59442640980706,178.15551813342609 132.40950906509534,183.75096336600836 132.3336776997894,184.4092492008931 132.63700316101313,185.72581970965257 133.47114817984402,187.04238866950618 133.92613637214527,188.19438523880672 134.60861865989864,189.34638062218437 134.98777548689395,190.49837481981376 135.9735832363367,192.06179362011608 136.731896889396,193.62521023646696 137.56604190869257,194.5303451739601 137.79353600461036,195.35319448186783 138.32435556175187,196.0114734925446 139.46182604227215,197.98630820197286 140.29597106110305,198.8914396124892 140.52346515702084,199.71428571426077" stroke="#4dd2ff" stroke-linecap="round" stroke-linejoin="round" stroke-width="0.5"><title>2023-09-24 1.0km</title><desc>9907510217</desc></polyline><polyline fill="none" points="174.0074995905161,168.8571428571595 173.36329981964082,169.85576687182765 172.90315712615848,170.85439015203156 172.62707151006907,172.15259931865148 172.5350429713726,173.85025558713824 170.97055781353265,175.9473574598087 170.05027242656797,178.34404134890065 169.22201557829976,179.54238170746248 168.6698443456553,181.14016720757354 168.57781580695882,182.8378122417489 170.5104151200503,187.73101252666675 171.24664342962205,189.22892745700665 173.63938543573022,193.0236378868576 174.65169936139137,195.5201521248091 175.94009890314192,197.11791882873513 176.67632721317932,198.4161028919043 177.13646990666166,199.71428571431898" stroke="#4dd2ff" stroke-linecap="round" stroke-linejoin="round" stroke-width="0.5"><title>2023-09-23 1.0km</title><desc>9901004991</desc></polyline><polyline fill="none" points="28.327725232113153,203.14285714295693 27.713349185884,204.28572739474475 27.098973139654845,206.28574790875427 25.694685033988208,209.2381534994347 24.29039692832157,211.23816636623815 23.061644835863262,214.57151428167708 22.973876828793436,216.3810424146941 23.149412842467427,217.42866281035822 24.904772974550724,221.61913591902703 25.16807699436322,222.85722765221726 25.519149020779878,223.52389194141142 26.747901112772524,225.04769474291243 27.713349185884,226.95244572346564 28.503261245321482,228.95243123918772 29.819781344383955,230.8571764783701 31.311837456654757,234.0" stroke="#4dd2ff" stroke-linecap="round" stroke-linejoin="round" stroke-width="0.5"><title>2023-09-22 1.0km</title><desc>9895405405</desc></polyline><polyline fill="none" points="65.20717392396182,203.1428571428405 64.95552079286426,204.0531083547976 64.45221453066915,204.59925876080524 63.36171762878075,206.60180818743538 62.94229574361816,208.0582057358697 61.68403008766472,211.24406939954497 60.34188005467877,213.97480315703433 59.50303628388792,215.97733741777483 59.25138315279037,216.9786033332348 59.25138315279037,217.61577213054989 59.50303628388792,218.52601270074956 60.00634254608303,219.43625260179397 61.096839448437095,222.2579920415301 62.187336349859834,224.2605129033327 62.77452698908746,225.71688967756927 63.86502389097586,227.53735823614988 64.53609890723601,228.35656821436714 65.03940516989678,229.81294017005712 66.38155520288274,232.1795409442857 67.89147398993373,234.0" stroke="#4dd2ff" stroke-linecap="round" stroke-linejoin="round" stroke-width="0.5"><title>2023-09-21 1.0km</title><desc>9889267953</desc></polyline><polyline fill="none" points="103.14164082100615,203.1428571428405 102.04044713103212,206.44651685946155 101.39268613723107,209.04726222116733 100.35626854654402,211.22625964414328 99.12552265776321,214.88134094164707 96.98791137733497,218.88785630866187 96.40492648282088,221.06683130090823 96.46970258187503,221.55885722464882 96.85835917852819,222.61319763713982 97.70044847112149,224.440718264319 98.21865726611577,225.98707914323313 99.51417925441638,227.81459332065424 100.29149244725704,229.2906599138514 100.74492514296435,230.34499179926934 101.26313393819146,231.25874515942996 102.10522323078476,231.89134312799433 103.14164082100615,233.43769195559435 103.20641692052595,233.7188460191246 103.59507351717912,234.0" stroke="#4dd2ff" stroke-linecap="round" stroke-linejoin="round" stroke-width="0.5"><title>2023-09-20 1.0km</title><desc>9882714971</desc></polyline><polyline fill="none" points="138.98714804602787,203.1428571428405 138.3292283443734,204.80868944892427 137.08649113029242,208.45764646370662 137.01338894106448,209.64752108266111 136.57477580662817,210.28212034283206 136.06306048342958,211.4719929494313 135.7706517269835,212.58253953163512 135.1858342140913,214.08970806439174 133.504483865574,216.7867412365158 133.0658707311377,218.37322818813846 132.91966635314748,219.80106445000274 133.0658707311377,221.22889882192248 133.504483865574,222.8153792413068 134.0161991887726,223.92591414687922 135.6244473485276,226.70224640943343 136.42857142863795,227.81277731392765 137.1595933190547,229.79586537188152 137.8906152099371,231.06503981596325 138.62163710035384,232.096242952568 139.42576118046418,232.88947546394775 139.93747650412843,234.0" stroke="#4dd2ff" stroke-linecap="round" stroke-linejoin="round" stroke-width="0.5"><title>2023-09-19 1.0km</title><desc>9876194288</desc></polyline><polyline fill="none" points="172.6300113517791,203.1428571428405 172.08489573933184,204.03013314749114 171.17636971874163,205.8046833956614 170.903811912518,206.9877155892318 169.2684650742449,209.8467057480011 167.99652864504606,212.50851869164035 167.72397083835676,213.49437399650924 167.81482344074175,214.57881399418693 168.35993905365467,215.95900908706244 169.17761247232556,217.43778796680272 169.90443328907713,219.5080756584648 170.903811912518,221.67694505001418 171.99404313741252,223.6486414525425 172.99342176085338,224.93024255952332 174.17450558766723,226.90193417819683 174.9013264044188,229.16937595547643 176.1732628340833,231.14106134092435 176.80923104891554,232.91557570896111 177.99031487619504,234.0" stroke="#4dd2ff" stroke-linecap="round" stroke-linejoin="round" stroke-width="0.5"><title>2023-09-18 1.0km</title><desc>9870505463</desc></polyline><polyline fill="none" points="27.452916115988046,237.42857142863795 27.00997472507879,238.29373489017598 26.389856778550893,241.17760896042455 25.59256227547303,242.52341468294617 25.238209162838757,243.58083249279298 23.289267044048756,246.7530807913281 22.580560819245875,248.48339480091818 22.13761942880228,250.02144977555145 22.49197254097089,251.07886152120773 24.440914659760892,255.30849995126482 25.415385718923062,256.8465468970826 26.124091943725944,258.4807197942864 27.27573955943808,260.01876300841104 27.8958575068973,261.07616666844115 28.693152009509504,263.5754810110666 32.14809485664591,268.285714285681" stroke="#4dd2ff" stroke-linecap="round" stroke-linejoin="round" stroke-width="0.5"><title>2023-09-16 1.0km</title><desc>9856514700</desc></polyline><polyline fill="none" points="63.14487552642822,237.42857142852154 62.1969798700884,240.3086002273485 60.964715517126024,242.26290210685693 58.40539724519476,247.20007364090998 58.31060767965391,248.33150633017067 58.40539724519476,249.66865287383553 58.97413463937119,251.00579813949298 59.92203029524535,252.44579930382315 60.77513638557866,254.40008422755636 62.29176943562925,256.97150759922806 64.1875607483089,260.57149237941485 64.3771398793906,261.90862722403836 65.04066683864221,262.4229095162591 65.79898336390033,263.45147353352513 67.03124771639705,265.50859929958824 68.35830163490027,266.6400171816349 68.64267033198848,267.36000990273897 68.83224946353585,268.285714285681" stroke="#4dd2ff" stroke-linecap="round" stroke-linejoin="round" stroke-width="0.5"><title>2023-09-15 1.0km</title><desc>9850671982</desc></polyline><polyline fill="none" points="100.78446439001709,237.42857142863795 99.21553560998291,241.57836341531947 97.45049073174596,244.1320756461937 96.66602634172887,245.5153345563449 95.48932975670323,248.49465694918763 95.1951556103304,249.55869917443488 95.1951556103304,250.4099323907867 95.48932975670323,251.4739732077578 96.66602634172887,254.66609096468892 97.74466487811878,256.7941655574832 100.39223219500855,261.3695153357694 101.47087073139846,263.3911769090919 101.6669868286699,264.5616112659918 102.45145121915266,265.3064326364547 103.72620585327968,267.32808871008456 104.8048443896696,268.285714285681" stroke="#4dd2ff" stroke-linecap="round" stroke-linejoin="round" stroke-width="0.5"><title>2023-09-14 1.0km</title><desc>9844236351</desc></polyline><polyline fill="none" points="131.52442300319672,237.42857142863795 132.088929296704,237.88798968982883 132.30061915679835,238.34740774834063 132.4417457303498,239.34281284629833 132.86512545030564,240.18507795553887 133.1473785971757,242.55873050674563 133.1473785971757,243.7072701213765 133.0062520238571,244.3198240644997 133.1473785971757,245.0855159869534 133.50019503058866,246.0043455506675 133.35906845727004,246.77003623446217 133.42963174404576,247.15288136521121 134.13526461087167,248.45455375715392 134.7703341911547,250.36877490743063 135.33484048466198,251.44073721469613 136.04047335172072,252.4361297976575 136.81666950508952,253.12524718226632 137.02835936518386,253.58465851878282 137.2400492252782,254.5800490527181 137.80455551901832,255.57543863519095 138.4396250990685,257.4130784418667 139.28638453921303,259.0210106129525 139.7097642594017,260.3992362122517 139.92145411949605,261.54775615158724 140.34483383991756,262.4665711914422 141.12102999328636,264.9933083707583 142.17947929399088,266.9840666796663 142.2500425807666,267.2903368509142 142.17947929399088,267.5200394203421 141.3327198533807,268.28571428573923 141.75609957356937,267.97944440710125 141.96778943389654,267.5200394203421 142.10891600698233,267.1372017766116 142.03835272067226,266.6012288388447 141.6149730004836,266.06525562517345 140.34483383991756,263.30881759885233 139.7097642594017,261.2414842916187 138.36906181252562,258.2553289362113 137.7339922322426,255.34573343140073 137.38117579882964,254.5034805839532 136.04047335172072,252.74240424711024 134.69977090437897,250.21563734480878 134.06470132409595,248.14827804663219 133.85301146446727,246.77003623446217 133.28850517049432,245.31522345391568 132.15949258371256,242.86500786116812 131.87723943660967,241.716467317543 130.8893534229137,239.87879981281003 130.67766356281936,238.88339522707975 130.60710027627647,237.65828058455372" stroke="#4dd2ff" stroke-linecap="round" stroke-linejoin="round" stroke-width="0.5"><title>2023-09-13 1.0km</title><desc>9837636972</desc></polyline></svg>