<?xml version="1.0" encoding="utf-8" ?>
<svg baseProfile="full" height="300mm" version="1.1" viewBox="0,0,200,300" width="200mm" xmlns="http://www.w3.org/2000/svg" xmlns:ev="http://www.w3.org/2001/xml-events" xmlns:xlink="http://www.w3.org/1999/xlink"><defs /><rect fill="#222222" height="300" width="200" x="0" y="0" /><text fill="#FFFFFF" style="font-size:12px; font-family:Arial; font-weight:bold;" x="10" y="20">Over 1km Runs</text><text fill="#FFFFFF" style="font-size:4px; font-family:Arial" x="10" y="280">ATHLETE</text><text fill="#FFFFFF" style="font-size:9px; font-family:Arial" x="10" y="290">Jiakai</text><text fill="#FFFFFF" style="font-size:4px; font-family:Arial" x="120" y="280">STATISTICS</text><text fill="#FFFFFF" style="font-size:3px; font-family:Arial" x="120" y="285">Number: 105</text><text fill="#FFFFFF" style="font-size:3px; font-family:Arial" x="120" y="290">Weekly: 5.2</text><text fill="#FFFFFF" style="font-size:3px; font-family:Arial" x="141" y="285">Total: 108.6 km</text><text fill="#FFFFFF" style="font-size:3px; font-family:Arial" x="141" y="290">Avg: 1.0 km</text><text fill="#FFFFFF" style="font-size:3px; font-family:Arial" x="167" y="285">Min: 1.0 km</text><text fill="#FFFFFF" style="font-size:3px; font-family:Arial" x="167" y="290">Max: 1.5 km</text><polyline fill="none" points="11.0,33.628689803997986 11.288770053070039,36.76213164476212 12.058823529165238,39.164432375808246 14.754010695032775,45.22239009453915 15.042780748568475,45.74462661962025 15.812834224198014,46.162415701313876 16.871657753828913,46.37131019611843 17.64171122945845,46.37131019611843 18.60427807457745,46.05796844221186 19.95187165774405,45.95352117565926 22.262032085098326,45.535732032498345 26.6898395717144,43.76012680330314 28.32620320795104,42.82009960699361 29.0,42.19341446401086 29.0,41.671176633564755" stroke="#4dd2ff" stroke-linecap="round" stroke-linejoin="round" stroke-width="0.5"><title>2024-03-06 1.0km</title><desc>10898894581</desc></polyline><polyline fill="none" points="31.0,33.65985866403207 31.094240837264806,33.96664106100798 31.471204188186675,35.19376997172367 32.41361256549135,39.89775410166476 32.97905759187415,40.920357242110185 33.9214659682475,43.57912188931368 35.14659685827792,45.215282222721726 35.523560209199786,45.9311017638538 36.18324607331306,46.23788145405706 37.596858638804406,46.34014133596793 41.649214659351856,46.03336166823283 43.62827225122601,45.215282222721726 44.57068062806502,44.70398232527077 47.30366492131725,43.78364203614183 47.96335078543052,43.067821390228346 48.62303664861247,42.863301138044335 49.0,42.352000375743955 48.52879581134766,40.920357242110185" stroke="#4dd2ff" stroke-linecap="round" stroke-linejoin="round" stroke-width="0.5"><title>2024-03-05 1.0km</title><desc>10891326638</desc></polyline><polyline fill="none" points="64.99270072975196,47.377882411761675 67.81751824822277,46.094781341496855 68.8686131387949,45.16809617925901 69.0,44.59782794682542 68.54014598554932,43.17215589864645 68.01459854026325,41.8177655111067 66.96350364969112,40.32080551341642 66.43795620440505,39.821818333817646 64.86131386877969,37.25559449708089 63.08759124088101,34.903216679929756 63.21897810208611,34.26165810279781 63.08759124088101,33.97652082127752 62.23357664234936,32.62211758829653 59.343065693508834,32.83597085613292 58.35766423353925,33.19239286438096 56.649635036243126,33.40624600643059 54.81021897797473,34.19037379033398 53.562043795594946,35.04578519478673 52.37956204358488,35.33092216210207 51.78832116769627,35.75862745550694 51.32846715324558,35.82991165283602 51.13138686143793,36.043764213100076 51.0,36.47146919200895 51.19708029180765,36.82788986392552 51.2627737224102,37.612014880462084 51.591240875655785,38.68127524480224 51.459854014450684,39.96438612561906 51.85401459853165,40.891076261294074 51.78832116769627,42.17418421758339" stroke="#4dd2ff" stroke-linecap="round" stroke-linejoin="round" stroke-width="0.5"><title>2024-03-04 1.0km</title><desc>10884866628</desc></polyline><polyline fill="none" points="71.0,33.371356112184 71.18652849784121,34.78817158623133 71.65284974081442,36.30618654761929 71.65284974081442,36.91339206311386 72.11917098471895,38.12780229107011 72.58549222862348,39.94941562402528 73.79792746109888,42.8842320345575 75.56994818663225,45.616641688742675 76.59585492266342,46.42624350753613 77.71502590691671,46.628643887816 80.41968911932781,46.32504330622032 84.15025906730443,45.51544142793864 85.26943005202338,44.705839073169045 86.85492227971554,43.997436622390524 89.0,42.68183110374957" stroke="#4dd2ff" stroke-linecap="round" stroke-linejoin="round" stroke-width="0.5"><title>2024-03-03 1.0km</title><desc>10877188327</desc></polyline><polyline fill="none" points="91.0,45.89884775434621 92.44966442976147,47.209696433274075 93.65771812107414,47.734035635367036 94.26174496673048,47.734035635367036 96.7986577176489,47.471866053529084 101.87248322181404,46.16101756738499 106.70469798659906,44.19474303117022 108.7583892615512,42.62172184092924 109.0,42.359551507630385 108.7583892615512,40.91761398559902 108.03355704713613,39.082419089158066 104.04697986552492,32.265964364632964" stroke="#4dd2ff" stroke-linecap="round" stroke-linejoin="round" stroke-width="0.5"><title>2024-03-02 1.0km</title><desc>10870189784</desc></polyline><polyline fill="none" points="119.9468319863081,31.0 120.47851212508976,32.26923753414303 120.6911841807887,33.07693361258134 120.79752020863816,34.92309451638721 124.2002730993554,43.000022937194444 124.94462529430166,45.192324908101 124.94462529430166,45.538477571099065 124.41294515505433,46.00001433584839 122.71156870992854,46.92308745859191 120.2658400698565,47.50000788480975 117.50110334577039,48.65384810080286 116.01239895634353,49.0 115.58705484494567,48.76923207566142 115.05537470569834,46.69231922866311" stroke="#4dd2ff" stroke-linecap="round" stroke-linejoin="round" stroke-width="0.5"><title>2024-01-19 1.0km</title><desc>10585384707</desc></polyline><polyline fill="none" points="136.7519228295423,33.26574467669707 136.86792558571324,35.15386295004282 137.0999310980551,36.03498409828171 139.3039834634401,39.93708659056574 140.34800826851279,42.32869339955505 140.92802204936743,44.34267548972275 141.97204685397446,46.3566552111879 142.0880496101454,48.244759048335254 142.7840661467053,48.87412653141655 143.13207441521809,49.0 143.59608543897048,48.87412653141655 143.48008268373087,48.37063256360125 142.7840661467053,47.237770594190806 139.41998621961102,39.55946415744256 137.3319366099313,35.279737427830696 136.40391456102952,31.0" stroke="#4dd2ff" stroke-linecap="round" stroke-linejoin="round" stroke-width="0.5"><title>2024-01-17 1.0km</title><desc>10572816563</desc></polyline><polyline fill="none" points="156.63048108154908,31.0 157.66725613363087,35.07813984097447 159.87040311843157,42.25001984962728 161.42556569585577,45.20313909614924 162.3327438668348,48.01562937779818 162.98072827374563,48.85937565623317 163.36951891845092,49.0 163.36951891845092,48.4375025635818 160.6479844073765,42.67189430666622 158.18564365943894,36.34376767894719 156.63048108154908,33.25000926339999" stroke="#4dd2ff" stroke-linecap="round" stroke-linejoin="round" stroke-width="0.5"><title>2024-01-16 1.0km</title><desc>10566280205</desc></polyline><polyline fill="none" points="176.38298093527555,31.406016977969557 178.25385286472738,35.330843146541156 179.7505504093133,40.473706149845384 181.4966975436546,43.99249887350015 182.9933950882405,48.32331145426724 183.36756947403774,49.0 183.61701906472445,49.0 179.87527520488948,41.28573583706748 179.00220163725317,38.57896882027853 178.37857766076922,36.142875102348626 177.5055040931329,34.38347207882907 176.63243052596226,31.0" stroke="#4dd2ff" stroke-linecap="round" stroke-linejoin="round" stroke-width="0.5"><title>2024-01-09 1.0km</title><desc>10520988068</desc></polyline><polyline fill="none" points="16.75715460581705,52.4887284807628 17.38077871967107,55.060165748465806 18.628026948310435,57.76693793933373 20.87307375948876,64.66918901109602 22.619221279863268,68.59398690296803 22.993395747616887,69.0 23.24284539418295,68.72932461183518 22.86867092549801,67.24060926469974 22.245046811178327,66.29324432567228 20.37417446868494,61.42107408342417 18.628026948310435,57.76693793933373 17.13132907403633,51.0" stroke="#4dd2ff" stroke-linecap="round" stroke-linejoin="round" stroke-width="0.5"><title>2024-01-07 1.0km</title><desc>10508221625</desc></polyline><polyline fill="none" points="38.58691426226869,56.333351957728155 38.83266830444336,57.66668749670498 39.93856148933992,60.4666889377404 40.921577654313296,63.80001835001167 42.88760998379439,68.60000194073655 43.37911806628108,69.0 43.37911806628108,68.06667105806991 42.27322488091886,66.20001173368655 41.65883977804333,64.20001746760681 39.201299365609884,59.000022055231966 38.34116022149101,56.73335272236727 37.72677511861548,55.666683820891194 36.62088193325326,51.0" stroke="#4dd2ff" stroke-linecap="round" stroke-linejoin="round" stroke-width="0.5"><title>2024-01-06 1.0km</title><desc>10501510624</desc></polyline><polyline fill="none" points="57.62194332526997,54.27274134848267 58.54996544169262,56.53848169394769 59.24598202994093,59.43358999455813 60.40600967640057,63.20981085568201 61.68204008741304,65.97903419390786 62.494059439748526,67.99301199009642 62.95807049795985,68.74825305328704 63.42208155663684,69.0 63.30607879208401,68.11888552387245 62.72606496885419,66.73427614511456 58.89797373628244,59.43358999455813 58.20195714849979,57.29372780956328 57.96995161892846,55.27973742748145 57.15793226659298,53.139870051061735 56.57791844336316,51.0" stroke="#4dd2ff" stroke-linecap="round" stroke-linejoin="round" stroke-width="0.5"><title>2024-01-05 1.0km</title><desc>10495609202</desc></polyline><polyline fill="none" points="76.20652863197029,51.0 76.9780821306631,52.81396122346632 77.62104337941855,54.76745598623529 78.52118912758306,56.58141360874288 80.19288837490603,61.325602270895615 82.25036437064409,66.06977907463443 83.0219178693369,68.58139728754759 83.53628686862066,69.0 83.79347136802971,68.30232876108494 83.66487911809236,67.32558859628625 80.57866512425244,61.046532678068615 79.54992712615058,57.41862423438579 78.52118912758306,51.55814209987875" stroke="#4dd2ff" stroke-linecap="round" stroke-linejoin="round" stroke-width="0.5"><title>2024-01-04 1.0km</title><desc>10489071805</desc></polyline><polyline fill="none" points="97.49954325752333,54.30883703043219 99.08519875304773,58.67649259837344 101.03677474707365,63.04413756961003 102.01256274431944,66.75000984175131 102.8663772419095,69.0 102.98835074156523,69.0 102.98835074156523,68.07353380450513 102.37848324328661,65.82354248885531 101.15874824672937,63.04413756961003 100.18296024994925,60.2647283594124 98.59730475442484,57.08825543615967 97.62151675764471,54.176483665942214 97.01164925890043,52.32353554200381 97.3775697578676,51.0" stroke="#4dd2ff" stroke-linecap="round" stroke-linejoin="round" stroke-width="0.5"><title>2024-01-03 1.0km</title><desc>10482519748</desc></polyline><polyline fill="none" points="116.3670011209324,51.297521962667815 119.52016995940357,60.52068110543769 122.8104330948554,68.40496123710182 123.49590458115563,69.0 123.6329988790676,68.40496123710182 123.22171598719433,67.36364297999535 119.7943585542962,60.81820166797843 118.56050987821072,57.54547307221219 116.77828401280567,51.0" stroke="#4dd2ff" stroke-linecap="round" stroke-linejoin="round" stroke-width="0.5"><title>2024-01-01 1.0km</title><desc>10470902913</desc></polyline><polyline fill="none" points="147.61672993563116,55.40818125801161 147.39104904886335,55.77552916947752 145.02139973500744,57.48981835064478 144.00583574408665,58.59186046384275 143.32879308285192,59.81635084503796 142.8774313093163,60.42859569785651 142.53890997869894,60.55104464129545 141.0719842137769,60.55104464129545 139.71789889177307,61.040840325760655 137.912451795768,60.918391417944804 137.0097282472998,60.55104464129545 136.44552603038028,59.69390184734948 136.1070046997629,58.95920767285861 135.994164256379,57.24492000427563 135.65564292529598,56.510224749101326 134.30155760375783,56.510224749101326 133.17315316898748,56.87757241737563 133.06031272560358,57.00002162193414 133.51167449960485,57.24492000427563 133.737355385907,57.00002162193414 132.94747228221968,57.00002162193414 132.7217913949862,56.7551232035039 132.49611050775275,55.89797845506109 132.38327006436884,54.42858643166255 132.94747228221968,54.55103581654839 133.3988340566866,55.530630571069196 134.4143980476074,56.63267398066819 135.20428115176037,56.63267398066819 135.8813238129951,56.142876999801956 136.44552603038028,56.26532625826076 136.55836647376418,56.020427731913514 135.54280248237774,53.081642604316585 135.31712159514427,52.959193111164495 134.07587671652436,52.83674360951409 132.83463183837011,52.959193111164495 133.62451494298875,52.959193111164495 132.49611050775275,51.734697686857544 132.38327006436884,51.0 132.7217913949862,51.489798494149 133.06031272560358,53.081642604316585 133.3988340566866,53.81633937230799 133.737355385907,55.40818125801161 133.06031272560358,59.571452840580605 133.85019582975656,63.36736785795074 134.5272384909913,64.46940608078148 134.6400789343752,66.30613483092748 135.65564292529598,69.0" stroke="#4dd2ff" stroke-linecap="round" stroke-linejoin="round" stroke-width="0.5"><title>2023-12-31 1.5km</title><desc>10466792666</desc></polyline><polyline fill="none" points="157.61318105319515,55.273397946031764 158.92593147419393,59.935274790157564 160.71604568464682,63.6906666085124 162.26747800037265,68.09352957841475 162.74484178982675,69.0 162.9835236845538,69.0 163.10286463145167,67.96403376583476 162.62550084246323,66.5395791985793 160.47736378991976,62.13671234436333 160.47736378991976,60.97124574659392 158.92593147419393,57.604337910655886 158.68724957946688,55.01440442644525 158.20988579047844,53.46044250787236 156.897135369014,51.0" stroke="#4dd2ff" stroke-linecap="round" stroke-linejoin="round" stroke-width="0.5"><title>2023-12-30 1.0km</title><desc>10458865202</desc></polyline><polyline fill="none" points="180.97876229183748,51.0 178.71215487923473,51.2236037919065 177.16674073366448,52.22982044820674 176.03343702713028,53.347838174086064 175.51829897845164,54.68945835984778 175.10618853988126,59.94412601995282 175.62132658809423,65.19877551647369 175.82738180737942,65.98138133413158 176.1364646363072,66.65218599990476 177.78490639152005,68.44099699554499 179.6394033660181,69.0 181.08178990148008,68.77639882266521 182.83325926586986,67.65839244390372 183.86353536276147,66.76398674899247 184.89381145965308,63.74536364292726 184.79078385047615,61.39754152763635 184.4817010210827,59.385119685321115 184.27564580226317,54.46585507784039 183.96656297286972,53.236036438611336 183.3483973145485,52.453424059203826 182.62720404658467,51.89441497006919 180.97876229183748,51.5590094178915 178.71215487923473,51.67081127688289 177.06371312355623,52.565225852420554 176.23949224641547,53.57144162070472 175.62132658809423,55.13666482537519 175.62132658809423,55.91927582339849 175.93040941702202,57.81990085518919 175.7243541982025,59.385119685321115" stroke="#4dd2ff" stroke-linecap="round" stroke-linejoin="round" stroke-width="0.5"><title>2023-12-29 1.0km</title><desc>10454615358</desc></polyline><polyline fill="none" points="17.48660630453378,72.90909918991383 19.24598189117387,79.18183983606286 22.01071495609358,87.6363697515335 22.890402750112116,89.0 23.0160724343732,89.0 23.0160724343732,87.6363697515335 21.131027163006365,81.90911176113877 19.622990945819765,78.22729371488094 18.617633467540145,76.31819999904837 16.98392756516114,71.0" stroke="#4dd2ff" stroke-linecap="round" stroke-linejoin="round" stroke-width="0.5"><title>2023-12-27 1.0km</title><desc>10441997651</desc></polyline><polyline fill="none" points="36.60691900970414,73.31819161761086 38.617633670568466,77.27274710254278 39.6229910007678,81.36365769722033 41.00535733019933,83.9545630736975 42.639062992762774,88.1818219712004 43.14174165716395,89.0 43.39308099029586,88.86363702046219 42.51339332573116,86.27273850073107 41.25669666333124,84.36365306563675 37.235267341602594,74.81819641485345 36.983928008936346,72.22727827634662 36.60691900970414,71.0" stroke="#4dd2ff" stroke-linecap="round" stroke-linejoin="round" stroke-width="0.5"><title>2023-12-17 1.0km</title><desc>10391591057</desc></polyline><polyline fill="none" points="57.07950775464997,74.16902771452442 58.481344032566994,77.84509256517049 60.81773782847449,82.40847251110245 62.92049224441871,88.49296031869017 63.38777100387961,89.0 63.504590693861246,88.87324009358417 63.504590693861246,88.36620037502144 62.92049224441871,86.71832025947515 59.76636062003672,80.50706566812005 58.364524342585355,76.7042456913041 57.313147134147584,72.39437291189097 56.49540930567309,71.0" stroke="#4dd2ff" stroke-linecap="round" stroke-linejoin="round" stroke-width="0.5"><title>2023-12-16 1.0km</title><desc>10386207035</desc></polyline><polyline fill="none" points="77.56786756357178,74.38347207952756 78.06676652468741,76.68422954087146 79.8129128892906,81.96242696943227 80.81071081198752,83.58648467215244 82.18268295563757,88.05263596656732 82.55685717659071,89.0 82.80630665738136,89.0 82.80630665738136,87.64662266056985 80.93543555215001,81.96242696943227 78.3162160050124,77.90227644436527 78.19149126531556,76.27821372705512 77.44314282340929,74.38347207952756 77.69259230373427,73.16542284714524 77.19369334261864,71.0" stroke="#4dd2ff" stroke-linecap="round" stroke-linejoin="round" stroke-width="0.5"><title>2023-12-14 1.0km</title><desc>10376526598</desc></polyline><polyline fill="none" points="103.8635347946547,72.56522585265338 102.9362864443101,71.7826131277252 101.39087252598256,71.11180190031882 99.94848620286211,71.0 98.50609987927601,71.33540567557793 96.65160317765549,72.34162225795444 95.82738242158666,73.45963990176097 95.20921685406938,75.36026800901163 95.20921685406938,79.60872224404011 95.41527204308659,80.95033690426499 95.82738242158666,82.6273535641376 95.51829963782802,84.63977111433633 95.6213272321038,85.42237722000573 95.72435482637957,85.86958052788395 96.75463077239692,87.65839244425297 98.40307228453457,88.88819941575639 98.91821025684476,89.0 99.94848620286211,89.0 100.97876214748248,89.0 102.83325884956867,88.32919637009036 103.8635347946547,87.32299037033226 104.48170036217198,86.20498292252887 104.68775555118918,83.74536364304367 104.79078314593062,82.0683482165914 104.48170036217198,80.05592726240866 104.68775555118918,77.37269517919049 104.58472795644775,75.02486322144978 104.48170036217198,74.2422517631203 103.76050720037892,72.6770276373718 103.45142441662028,72.34162225795444 102.31812087725848,71.55900941800792 100.05151379713789,71.33540567557793 98.60912747355178,71.55900941800792 97.78490671748295,71.89441497018561 96.23949279962108,73.57144162082113 95.6213272321038,75.91927582328208 95.82738242158666,77.48449661070481" stroke="#4dd2ff" stroke-linecap="round" stroke-linejoin="round" stroke-width="0.5"><title>2023-12-13 1.0km</title><desc>10373769329</desc></polyline><polyline fill="none" points="117.83360643964261,73.55224959517363 119.07154561718926,78.65673809009604 120.30948479427025,81.34330525412224 122.78536314889789,88.328361393651 123.28053881973028,89.0 123.52812665514648,89.0 123.65192057285458,88.46268913464155 123.15674490202218,87.65672254085075 121.17604221822694,84.29852457169909 118.328782110475,78.52240962779615 117.9574003573507,76.77613872440998 116.59566726256162,73.82090723980218 116.34807942714542,71.0" stroke="#4dd2ff" stroke-linecap="round" stroke-linejoin="round" stroke-width="0.5"><title>2023-12-12 1.0km</title><desc>10365882163</desc></polyline><polyline fill="none" points="136.49541033664718,71.0 137.7804265464656,73.78874469583388 139.53272137837484,78.22537468874361 140.81773758819327,80.63382618967444 142.6868520756252,86.46480010182131 142.92049138667062,87.98592048813589 143.38777000829577,89.0 143.50458966335282,88.11268045951147 143.27095035277307,87.09860042587388 140.81773758819327,81.52114957885351 139.06544275628403,78.09861399035435 138.59816413512453,76.70424569153693 138.24770516855642,73.78874469583388 137.3131479253061,71.1267612206284" stroke="#4dd2ff" stroke-linecap="round" stroke-linejoin="round" stroke-width="0.5"><title>2023-12-11 1.0km</title><desc>10361067591</desc></polyline><polyline fill="none" points="160.36061714449897,81.04350078164134 162.76473143929616,88.34782927564811 162.88493715412915,88.73913173889741 163.3657600134611,89.0 163.48596572736278,88.86956587433815 163.12534858379513,87.95652672543656 162.04349715076387,85.86957833555061 160.84144000336528,82.60871656169184 157.4756799908355,75.82610487437341 156.51403427263722,71.0" stroke="#4dd2ff" stroke-linecap="round" stroke-linejoin="round" stroke-width="0.5"><title>2023-12-10 1.0km</title><desc>10355395415</desc></polyline><polyline fill="none" points="176.82868994167075,72.1911820312962 178.90223882580176,75.50001687242184 179.87802653573453,79.60296362906229 181.95157541986555,85.42648490634747 182.68341620266438,88.60294311749749 183.17131005832925,89.0 183.2932835216634,88.86764771549497 183.2932835216634,88.60294311749749 183.0493365940638,87.5441243366804 180.48789385519922,82.38237386127003 179.87802653573453,80.92649284633808 179.51210614433512,78.67649259825703 178.90223882580176,76.95590227597859 177.92645111586899,75.23531030898448 177.80447765160352,73.3823632748099 176.70671647787094,71.0" stroke="#4dd2ff" stroke-linecap="round" stroke-linejoin="round" stroke-width="0.5"><title>2023-12-09 1.0km</title><desc>10350143310</desc></polyline><polyline fill="none" points="18.081193710677326,94.49255117913708 18.823957435786724,97.17912446556147 20.43327883956954,101.07464871532284 22.66157001350075,107.52239474025555 23.651921646669507,109.0 23.52812769310549,107.65672254085075 22.78536396799609,105.37314859370235 20.804660701658577,101.8806182127446 19.56672116043046,98.92539498396218 18.204987665172666,96.77613872475922 17.833605802617967,94.62687993713189 16.34807835286483,91.0" stroke="#4dd2ff" stroke-linecap="round" stroke-linejoin="round" stroke-width="0.5"><title>2023-12-08 1.0km</title><desc>10345303898</desc></polyline><polyline fill="none" points="37.09993195021525,91.0 37.33193739457056,91.6293738221284 37.795948282349855,93.26574467681348 38.027953726705164,95.5314863550011 38.4919646140188,97.41960212949198 40.116002722177655,101.44757549010683 41.1600272199139,105.09791816305369 42.204051717650145,107.36364418326411 42.436057162005454,109.0 42.6680626058951,108.87412653130013 42.90006804978475,108.62237956561148 42.90006804978475,108.24475904810242 42.3200544398278,106.7342761453474 40.46401088824496,103.58743248344399 38.25995917012915,97.16785348008852 37.67994556063786,94.52449042350054" stroke="#4dd2ff" stroke-linecap="round" stroke-linejoin="round" stroke-width="0.5"><title>2023-12-07 1.0km</title><desc>10340288256</desc></polyline><polyline fill="none" points="56.658453474286944,91.0 57.3744991584681,92.68346103455406 58.68724957946688,98.25182068638969 60.59670473728329,101.74822356412187 62.14813705300912,106.02159543370362 62.864182737190276,108.74100849858951 63.22220557928085,109.0 63.34154652617872,108.09352957841475 63.10286463191733,106.92806692188606 61.193409473635256,102.91368964756839 59.880659053102136,100.97124574659392 59.16461336892098,99.5467855243478 56.77779442211613,91.38849115080666" stroke="#4dd2ff" stroke-linecap="round" stroke-linejoin="round" stroke-width="0.5"><title>2023-12-06 1.0km</title><desc>10334845031</desc></polyline><polyline fill="none" points="78.34116107597947,94.1034619655693 79.14197986712679,98.20002302597277 79.94279865827411,101.17933391826227 81.88764429371804,106.2689778652275 82.91726845363155,108.62758815078996 83.26047650631517,109.0 82.80286576924846,106.76552767283283 81.65883892448619,104.65518998203333 80.62921476503834,101.67588522285223 79.14197986712679,98.57243717496749 78.45556376036257,96.21381284378003 77.31153691606596,93.73104683100246 76.73952349368483,91.0" stroke="#4dd2ff" stroke-linecap="round" stroke-linejoin="round" stroke-width="0.5"><title>2023-12-05 1.0km</title><desc>10329306344</desc></polyline><polyline fill="none" points="96.69392242329195,92.51049678423442 97.50594147713855,93.7692430865718 98.54996597534046,97.41960212949198 100.63801497081295,102.58044129051268 101.68203946901485,106.10490787529852 102.61006124457344,108.11888552398887 103.30607757670805,109.0 103.30607757670805,108.37063256313559 100.29000680474564,101.44757549010683 99.1299795852974,97.54547644068953 97.85394964320585,94.6503649475053 96.9259278671816,91.0" stroke="#4dd2ff" stroke-linecap="round" stroke-linejoin="round" stroke-width="0.5"><title>2023-12-04 1.0km</title><desc>10324662812</desc></polyline><polyline fill="none" points="116.8737258380279,92.66154566861223 118.14975610887632,97.50771216268186 120.19140454102308,102.07694343582261 121.59503783797845,106.92308570316527 122.61586205428466,108.86153911822475 123.38148021604866,109.0 123.38148021604866,108.44615641166456 122.48825902771205,106.92308570316527 121.33983178436756,103.60001806344371 120.0638015139848,101.66155923262704 119.17058032471687,99.3077136843931 117.63934400025755,93.76924196642358 116.618519784417,91.0" stroke="#4dd2ff" stroke-linecap="round" stroke-linejoin="round" stroke-width="0.5"><title>2023-12-02 1.0km</title><desc>10313350310</desc></polyline><polyline fill="none" points="136.73258963692933,91.95454984041862 137.98928593005985,93.59091985307168 139.49732148181647,98.77274870162364 140.5026785172522,103.00001940899529 142.13638369832188,107.63636975188274 143.14174073329195,109.0 143.267410362605,108.18182197131682 143.0160711039789,106.54546483117156 141.633705180604,103.54547299188562 139.49732148181647,100.13638546620496 138.24062518915161,97.54547475650907 136.98392889508978,91.0" stroke="#4dd2ff" stroke-linecap="round" stroke-linejoin="round" stroke-width="0.5"><title>2023-12-01 1.0km</title><desc>10308709030</desc></polyline><polyline fill="none" points="156.68232080945745,91.0 159.17058020224795,99.55001980031375 161.65883959503844,104.65001455100719 163.04120592400432,108.40000255848281 163.45591582311317,109.0 163.59415245614946,108.55000193545129 163.04120592400432,107.05000766995363 160.96765642985702,104.20001552719623 160.41470989910886,102.70001806365326 158.34116040496156,98.65001940354705 157.37350397417322,94.0000110277906 156.40584754385054,91.30000130133703" stroke="#4dd2ff" stroke-linecap="round" stroke-linejoin="round" stroke-width="0.5"><title>2023-11-30 1.0km</title><desc>10303537703</desc></polyline><polyline fill="none" points="177.9407525882125,94.84829198836815 178.74157102638856,97.4551944816485 179.08477892819792,99.56554117088672 180.34320790180936,102.04829860525206 181.71603950997815,105.77242791187018 183.0888711172156,108.75172544328962 183.31767638539895,109.0 183.54648165311664,108.75172544328962 183.31767638539895,107.8827642062679 182.40245531359687,106.2689778652275 181.14402633998543,102.79312512371689 179.3135841959156,99.06898924615234 178.62716839229688,95.09656858979724 177.2543367841281,92.98621631483547 176.45351834688336,91.0" stroke="#4dd2ff" stroke-linecap="round" stroke-linejoin="round" stroke-width="0.5"><title>2023-11-29 1.0km</title><desc>10298007687</desc></polyline><polyline fill="none" points="16.89713673759252,113.33094561949838 18.20988657930866,116.69786162441596 18.448568368330598,119.15829617308918 20.11934089427814,123.17268200626131 21.07406805222854,126.79857102350798 21.90945431543514,128.4820169589948 22.74484057817608,129.0 23.10286326240748,129.0 23.341545052360743,128.61151273362339 23.222204157151282,128.09352957829833 22.74484057817608,127.18705868988764 20.83538626274094,122.13671234436333 18.92593194777146,117.73383448482491 18.56790926354006,115.66188815457281 17.732522999867797,113.20144872169476 16.658454947639257,111.0" stroke="#4dd2ff" stroke-linecap="round" stroke-linejoin="round" stroke-width="0.5"><title>2023-11-28 1.0km</title><desc>10292316108</desc></polyline><polyline fill="none" points="39.577365040779114,111.0 40.63395244022831,113.8662559457589 41.267904879990965,116.61785669741221 42.11317479936406,117.87900541932322 43.06410345900804,119.71340173971839 44.015032118652016,122.69429115857929 44.86030203802511,124.07008435309399 44.86030203802511,124.75798049510922 44.33200833853334,125.21657775470521 42.64146849932149,126.13377186935395 41.58488109987229,127.05096544418484 40.52829370042309,127.62421115464531 38.94341260101646,128.31210572912823 36.407602842431515,129.0 35.98496788227931,128.8853509761393 35.66799166239798,128.5414038533345 35.13969796244055,126.36307031358592" stroke="#4dd2ff" stroke-linecap="round" stroke-linejoin="round" stroke-width="0.5"><title>2023-11-27 1.0km</title><desc>10287544518</desc></polyline><polyline fill="none" points="58.259959042072296,114.90211396722589 58.83997269440442,116.2867329143919 60.232005461119115,123.33568474079948 61.74004095746204,126.98602338775527 62.552060071378946,128.370632563252 63.13207372371107,129.0 63.24807645427063,128.8741265310673 62.90006826305762,128.244759047986 62.90006826305762,127.23777059407439 61.97204641858116,125.09791816282086 60.9280218440108,121.57344950502738 59.88399726944044,119.43358999444172 59.187980886083096,115.40561189572327 57.21593446750194,112.25874741270673 56.75192354526371,111.0" stroke="#4dd2ff" stroke-linecap="round" stroke-linejoin="round" stroke-width="0.5"><title>2023-11-26 1.0km</title><desc>10281488289</desc></polyline><polyline fill="none" points="76.722453544382,111.0 78.06022760737687,114.48388377402443 79.26422426477075,119.41937526513357 80.46822092263028,122.17743866576348 80.73577573522925,123.91937146021519 81.40466276742518,125.51614183862694 82.87621423741803,128.27419672347605 83.54510126914829,129.0 83.81265608174726,129.0 81.80599498609081,124.64517633756623 81.53844017302617,123.19356631604023 80.2006661100313,121.30647169239819 77.52511798264459,114.04839863895904 76.18734391825274,111.58064772281796" stroke="#4dd2ff" stroke-linecap="round" stroke-linejoin="round" stroke-width="0.5"><title>2023-11-25 1.0km</title><desc>10275889695</desc></polyline><polyline fill="none" points="96.51178423129022,111.16822495521046 97.4419751027599,115.37384479888715 101.7828658381477,127.14953924051952 102.86808852106333,128.83177635679021 103.33318395726383,129.0 103.4882157696411,128.49532903218642 101.93789764959365,126.4766440478852 100.0775159066543,120.92525115737226 98.83726141043007,118.40188630030025 98.06210235133767,113.52337301988155 97.13191147893667,111.0" stroke="#4dd2ff" stroke-linecap="round" stroke-linejoin="round" stroke-width="0.5"><title>2023-11-24 1.0km</title><desc>10271180196</desc></polyline><polyline fill="none" points="117.7618844024837,113.00000823463779 118.1568459784612,114.14286915806588 119.07842298876494,119.00002058548853 121.31653858721256,125.85715487215202 122.36976945679635,128.71428701689 122.76473103230819,129.0 123.29134646710008,129.0 123.42300032638013,128.71428701689 123.15969260875136,127.28572146955412 121.71150016319007,123.14287544379476 117.89353826083243,114.85715689428616 116.57699967408553,111.0" stroke="#4dd2ff" stroke-linecap="round" stroke-linejoin="round" stroke-width="0.5"><title>2023-11-23 1.0km</title><desc>10265414399</desc></polyline><polyline fill="none" points="138.42293546302244,115.0563544301549 138.53975505847484,116.83100649237167 139.00703343981877,119.61974175705109 140.8761469651945,124.94367837370373 141.46024494152516,127.47888050868642 142.39480170421302,129.0 143.0957192759961,129.0 142.97889968100935,128.23944042192306 141.6938841319643,124.94367837370373 140.6425077742897,123.29579498723615 139.12385303527117,118.60565672838129 137.37155910488218,113.78874469583388 136.9042807240039,111.0" stroke="#4dd2ff" stroke-linecap="round" stroke-linejoin="round" stroke-width="0.5"><title>2023-11-21 1.0km</title><desc>10253878272</desc></polyline><polyline fill="none" points="158.06266986951232,115.86133173853159 158.6680855350569,119.8029423590051 161.2108313315548,126.24088767752983 162.30057953018695,128.6058413576102 162.66382892988622,129.0 162.90599519619718,128.86861379561014 163.02707832911983,128.6058413576102 162.5427457964979,126.50366046302952 160.3632493992336,121.77374440978747 159.51566746784374,119.27739477856085 158.18375300243497,114.15329776948784 157.4572542035021,112.83942437497899 156.97292167088017,111.0" stroke="#4dd2ff" stroke-linecap="round" stroke-linejoin="round" stroke-width="0.5"><title>2023-11-20 1.0km</title><desc>10248671423</desc></polyline><polyline fill="none" points="176.79542374471202,112.50000667187851 178.55479894345626,116.31819999893196 179.05747757246718,120.27274908765685 180.4398437999189,123.40910961094778 181.8222100273706,127.36364358162973 182.45055831270292,128.31818500091322 183.20457625528798,129.0 183.0789065985009,127.90909588139039 180.94252242846414,122.3182022041874 179.56015620101243,117.27274710254278 178.17778997309506,114.00001213059295 177.42377203051,111.0" stroke="#4dd2ff" stroke-linecap="round" stroke-linejoin="round" stroke-width="0.5"><title>2023-11-19 1.0km</title><desc>10242265034</desc></polyline><polyline fill="none" points="16.501645412761718,147.03792825492565 17.28779251081869,144.56400697666686 17.602251350414008,143.9668527743197 18.15255431877449,143.62562166358111 20.825454453472048,143.2843904523179 22.7908221995458,142.85785129718715 23.419739877805114,142.34600410389248 23.81281342729926,141.83415668504313 24.284501686226577,139.70145667501492 24.127272266428918,139.01899184362264 24.441731106024235,138.50714295677608 24.205886976327747,134.5829606532352 24.04865755699575,134.07110980903963 23.97004284663126,132.53555592079647 23.81281342729926,131.5971608775435 22.94805161934346,131.34123482485302 22.240519230719656,131.85308687353972 22.397748650051653,131.5971608775435 22.554978069849312,131.85308687353972 21.532986842095852,131.34123482485302 21.454372132662684,131.0 21.218528002500534,131.17061742488295 21.375757422298193,131.0853087156429 20.825454453472048,131.76777821453288 20.904069163370878,131.6824695491814 22.554978069849312,132.53555592079647 22.161904520820826,132.87679029384162 21.532986842095852,133.13271600776352 20.039307355415076,133.388641665224 19.960692645050585,133.04740744258743 20.35376619407907,132.87679029384162 20.904069163370878,132.96209887135774 22.554978069849312,131.34123482485302 24.83480465505272,131.4265435153502 24.598960525821894,131.255926127953 24.284501686226577,131.17061742488295 24.04865755699575,135.26542809442617 24.127272266428918,136.45974515046692 24.363116395659745,137.90998563647736 24.520345815923065,140.38392110483255 24.520345815923065,141.23700107744662 24.284501686226577,142.0900804225821 23.81281342729926,142.60192772879964 19.882077935617417,143.02846697799396 18.073939609341323,143.3696982645779 17.130563091486692,144.05216053628828 16.02995715336874,145.58769917994505 15.401039475109428,147.80569585470948 15.16519534541294,149.0" stroke="#4dd2ff" stroke-linecap="round" stroke-linejoin="round" stroke-width="0.5"><title>2023-11-18 1.0km</title><desc>10236386505</desc></polyline><polyline fill="none" points="36.3268576124683,131.0 38.93360382318497,135.5000173689332 39.88151153549552,138.84287991863675 40.23697692807764,140.77145155961625 40.947907712776214,141.92859352345113 43.1991885304451,148.48571685689967 43.6731423875317,149.0 43.6731423875317,148.48571685689967 43.1991885304451,147.84286271536257 41.89581542555243,143.98573290230706 41.18488464085385,142.70002107415348 40.947907712776214,140.51430879719555 39.88151153549552,137.81430750666186 38.69662689464167,135.2428738315357 38.57813843060285,133.82858369813766" stroke="#4dd2ff" stroke-linecap="round" stroke-linejoin="round" stroke-width="0.5"><title>2023-11-17 1.0km</title><desc>10231268371</desc></polyline><polyline fill="none" points="56.78934295522049,131.58064772293437 58.52844885410741,134.04839863884263 58.929780984763056,137.3871155574452 60.133777376729995,140.00002051191404 62.00666065281257,146.96775015315507 63.21065704477951,149.0 63.07687966758385,147.8387146294117 62.14043803000823,145.95162444526795 61.47155114542693,144.0645324572688 60.401332130189985,139.56453659269027 58.26089410064742,135.06453047250398 57.59200721606612,133.03226628201082 57.190675085410476,131.0" stroke="#4dd2ff" stroke-linecap="round" stroke-linejoin="round" stroke-width="0.5"><title>2023-11-16 1.0km</title><desc>10225818993</desc></polyline><polyline fill="none" points="76.87852752860636,131.19354904140346 77.7703768061474,134.67742935777642 79.19733565021306,138.54840207961388 81.15940406080335,142.22582089412026 81.87288348283619,145.12904264521785 83.12147247139364,147.6451655733399 84.3700614599511,149.0 81.15940406080335,143.00001367391087 79.73244521673769,138.54840207961388 75.6299385400489,131.0" stroke="#4dd2ff" stroke-linecap="round" stroke-linejoin="round" stroke-width="0.5"><title>2023-11-15 1.0km</title><desc>10219684298</desc></polyline><polyline fill="none" points="96.81951958918944,133.16542284714524 98.44094097521156,135.19550445268396 98.69039041921496,137.7669379391009 100.56126124924049,142.23310335271526 101.68378374679014,146.02256853983272 102.80630624480546,148.86466231115628 103.30520513281226,149.0 103.1804804103449,147.37594707356766 101.55905902478844,145.21054094214924 100.93543541477993,143.31580848805606 99.93763763876632,142.09776516607963 99.56346347276121,140.60904445615597 97.69259264320135,136.81956812529825 97.06896903319284,134.11279454140458 96.69479486718774,131.0" stroke="#4dd2ff" stroke-linecap="round" stroke-linejoin="round" stroke-width="0.5"><title>2023-11-14 1.0km</title><desc>10213806154</desc></polyline><polyline fill="none" points="117.59588517481461,133.47827171022072 118.55753110535443,137.1304552895017 121.20205741235986,143.91306199040264 121.80308611830696,146.1304470184259 123.00514353159815,148.60869759391062 123.36576075525954,149.0 122.6445263074711,147.695658311015 120.9616459296085,143.65219298156444 120.84144018869847,142.60871656169184 119.63938277587295,139.73915324313566 117.83629665756598,136.47828020178713 117.11506220977753,134.26088311010972 116.63423924474046,131.0" stroke="#4dd2ff" stroke-linecap="round" stroke-linejoin="round" stroke-width="0.5"><title>2023-11-13 1.0km</title><desc>10208522228</desc></polyline><polyline fill="none" points="137.9892856348306,133.04546334268525 139.24598211282864,136.86365554714575 140.7540178867057,140.000021835207 141.63370542181656,143.68183636269532 142.51339295646176,146.27273850084748 143.64441978698596,148.72727403056342 144.147098377347,149.0 144.39843767369166,148.45454802096356 143.01607154728845,145.72728572005872 142.2620536610484,142.7272925573634 139.49732140870765,140.1363854664378 137.9892856348306,137.95456616173033 137.7379463389516,135.6363803385757 135.60156232584268,131.0" stroke="#4dd2ff" stroke-linecap="round" stroke-linejoin="round" stroke-width="0.5"><title>2023-11-12 1.0km</title><desc>10202270880</desc></polyline><polyline fill="none" points="157.27653280971572,134.35822241124697 160.24758792715147,141.07464871543925 161.2379396329634,144.4328526093159 162.2282913387753,147.11941128061153 162.84726115502417,148.32836139411665 163.46623097080737,149.0 163.59002493415028,148.4626891349908 162.47587926499546,145.10449264734052 160.37138189002872,141.880618212861 158.14309055218473,136.77613872487564 157.27653280971572,133.14926305413246 156.40997506631538,131.0" stroke="#4dd2ff" stroke-linecap="round" stroke-linejoin="round" stroke-width="0.5"><title>2023-11-11 1.0km</title><desc>10196068378</desc></polyline><polyline fill="none" points="178.3266083188355,133.68422009726055 180.3637807997875,139.84212411462795 182.25544096156955,144.8947501218645 183.1285148812458,148.21052947919816 183.71056416165084,149.0 184.00158880185336,148.6842118264176 183.56505184154958,146.78948180971202 181.38236704096198,141.89475486346055 179.19968223944306,137.31580665381625 176.2894358378835,132.73684868169948 175.99841119768098,131.0" stroke="#4dd2ff" stroke-linecap="round" stroke-linejoin="round" stroke-width="0.5"><title>2023-11-10 1.0km</title><desc>10191120477</desc></polyline><polyline fill="none" points="15.821245764847845,151.54962088621687 17.97393734101206,153.1984825761756 19.2402265034616,155.39696256595198 19.62011325219646,156.22139189543668 19.62011325219646,157.45803520805202 21.01303132995963,161.71757813193835 21.519546994939446,164.19085666537285 22.532578324899077,166.93894008581992 22.785836156923324,168.31298028095625 23.418980738613755,169.0 23.798867486417294,168.86259607644752 24.178754235152155,168.31298028095625 22.785836156923324,167.35115225065965 20.506515665445477,164.0534523880342 17.847308425232768,156.77101124660112 17.214163843542337,152.64886217436288 16.581019262317568,151.0" stroke="#4dd2ff" stroke-linecap="round" stroke-linejoin="round" stroke-width="0.5"><title>2023-11-09 1.0km</title><desc>10185506531</desc></polyline><polyline fill="none" points="36.48859197832644,152.44526216865052 37.82050536619499,155.07300857105292 38.30483750626445,156.38688032352366 39.87891696533188,159.80294235935435 40.48433214100078,162.16790455882438 40.363249105867,160.72265025309753 40.60541517660022,161.64235767372884 41.089747317135334,165.18979614810087 42.17949463427067,168.47445512423292 42.66382677573711,169.0 43.26924195187166,168.73722758109216 43.51140802213922,168.34306888096035 42.17949463427067,167.16059225820936 41.210830352734774,165.58395554404706 40.60541517660022,163.87593086762354 39.75783392973244,160.98542385036126 38.54700357746333,159.2773947789101 37.215090189594775,156.38688032352366 36.85184108372778,154.2846850559581 36.972924118861556,151.65693749429192 36.730758048594,151.0" stroke="#4dd2ff" stroke-linecap="round" stroke-linejoin="round" stroke-width="0.5"><title>2023-11-08 1.0km</title><desc>10179505859</desc></polyline><polyline fill="none" points="59.18798076687381,160.9440793383401 63.24807693203911,169.0 63.4800824271515,168.87412653141655 62.90006868960336,167.4895177630242 61.856043961364776,165.72728680237196 61.16002747556195,163.96505402820185 59.76799450442195,162.45456734951586 59.30398351512849,161.57344950479455 58.95597527176142,158.55247059487738 58.72396977664903,157.6713507422246 57.33193680597469,155.27973742736503 56.5199175728485,151.0" stroke="#4dd2ff" stroke-linecap="round" stroke-linejoin="round" stroke-width="0.5"><title>2023-11-06 1.0km</title><desc>10167691585</desc></polyline><polyline fill="none" points="78.26955626299605,156.0503782769665 79.10494289500639,157.6043379106559 82.2078075259924,164.72663535596803 83.52055794699118,168.7410084985895 83.75923984171823,169.0 83.99792173597962,169.0 83.99792173597962,168.61151273350697 83.04319415707141,166.5395791985793 82.2078075259924,165.37411551410332 82.08846657862887,164.72663535596803 81.37242089444771,163.94965885241982 79.34362478926778,160.45326034456957 76.95680584199727,154.36692046013195 76.00207826355472,151.0" stroke="#4dd2ff" stroke-linecap="round" stroke-linejoin="round" stroke-width="0.5"><title>2023-11-05 1.1km</title><desc>10161301187</desc></polyline><polyline fill="none" points="96.63423998747021,151.0 99.03835428180173,156.3478451555129 100.12020571436733,161.04350078164134 101.80308572063223,164.30436543212272 102.40411429479718,166.9130528375972 103.00514286803082,169.0 103.36576001252979,168.60869759402703 103.24555429723114,168.21739510179032 101.6828800062649,165.34784085466526 101.56267429096624,164.95653764309827 100.12020571436733,162.7391511480091 99.51917714066803,160.65219662082382 97.95650284923613,157.78263013751712 97.59588570520282,155.30436443991493 96.87465141667053,152.69565996550955" stroke="#4dd2ff" stroke-linecap="round" stroke-linejoin="round" stroke-width="0.5"><title>2023-11-04 1.0km</title><desc>10155501797</desc></polyline><polyline fill="none" points="124.8292560079135,153.73419068823569 123.46446626633406,151.91139743244275 122.62459565652534,151.3417740999721 120.94485443644226,151.0 119.37009704252705,151.11392470856663 117.16543669067323,152.139246706618 116.22058225423098,153.05064346885774 115.3807116439566,154.759510952048 115.1707439920865,156.12660358159337 114.8557925131172,160.6835702988319 115.06576016545296,165.46837092377245 115.27572781778872,166.15191266383044 116.32556608086452,167.86076569382567 117.58537199581042,168.77215320582036 119.68504852149636,169.0 121.5747573939152,168.20253607374616 123.35948244063184,166.0379890614422 123.8844015719369,165.01267626299523 124.61928835557774,161.7088859624928 124.61928835557774,159.08863347244915 125.1442074868828,155.6709061722504 125.03922366071492,154.41773760621436 123.8844015719369,153.05064346885774 122.93954713549465,152.36709594738204 120.73488678364083,151.3417740999721 119.58006469486281,151.3417740999721 117.06045286497101,152.139246706618 115.90563077572733,153.16456802631728 115.1707439920865,154.53166206309106 114.96077633928508,155.44305741763674 115.1707439920865,159.20255758613348 114.96077633928508,160.9114182825433" stroke="#4dd2ff" stroke-linecap="round" stroke-linejoin="round" stroke-width="0.5"><title>2023-11-03 1.0km</title><desc>10152446508</desc></polyline><polyline fill="none" points="136.27463989239186,151.0 137.25869727879763,153.13560138468165 138.10217503923923,156.94916981831193 139.50797130679712,159.69493475090712 141.61666570650414,165.18645371461753 142.03840458672494,166.10170546243899 142.74130272027105,168.54237481567543 143.16304160049185,169.0 143.72536010714248,169.0 143.72536010714248,168.6949165549595 142.74130272027105,168.23729130346328 142.3195638405159,167.1694986578077 141.33550645317882,166.25424738100264 140.63260832009837,164.2712015635334 139.64855093276128,162.74578041420318 138.52391391946003,160.45764658704866 137.25869727879763,155.72882868233137 136.41521951835603,153.74577280506492" stroke="#4dd2ff" stroke-linecap="round" stroke-linejoin="round" stroke-width="0.5"><title>2023-11-02 1.1km</title><desc>10144903556</desc></polyline><polyline fill="none" points="156.93475404940546,152.30435396311805 157.1751654963009,153.73914221522864 158.13681128481403,155.95653995871544 159.81969141447917,161.9565434876131 162.70462878094986,167.95652672555298 163.54606884531677,169.0 163.06524595152587,167.4347898582928 161.2621600977145,164.6956687872298 160.3005143092014,161.17393548239488 159.09845707379282,159.47828362043947 157.65598839055747,156.34784515528008 156.45393115468323,151.0" stroke="#4dd2ff" stroke-linecap="round" stroke-linejoin="round" stroke-width="0.5"><title>2023-11-01 1.0km</title><desc>10138966680</desc></polyline><polyline fill="none" points="177.3807812235318,151.27067799540237 178.0044047422707,153.3007616904797 179.00220237160102,158.71430726593826 180.62362351827323,162.23310335283168 181.62142114760354,165.48121684766375 183.24284229520708,169.0 183.367566999048,168.8646623105742 182.24504466587678,167.24060926458333 180.62362351827323,163.45114658481907 179.25165177835152,161.01505931455176 176.88188240956515,153.84211696428247 176.63243300141767,151.0" stroke="#4dd2ff" stroke-linecap="round" stroke-linejoin="round" stroke-width="0.5"><title>2023-10-31 1.0km</title><desc>10133123337</desc></polyline><polyline fill="none" points="17.173830811865628,173.1333426652709 17.788215418346226,176.33335195819382 17.788215418346226,177.5333539872663 19.139861551579088,179.80002232000697 22.826169188600034,187.66667279333342 23.440553795080632,188.8666673231637 23.686307637020946,189.0 20.860138448886573,183.40001914394088 19.6313692368567,179.93335566332098 18.279723103158176,177.1333533989964 16.313692363444716,171.0" stroke="#4dd2ff" stroke-linecap="round" stroke-linejoin="round" stroke-width="0.5"><title>2023-10-30 1.0km</title><desc>10127985445</desc></polyline><polyline fill="none" points="37.162513305433095,173.60527560755145 37.70818382361904,177.27633863000665 38.035586134530604,178.46055072336458 40.21826820774004,183.5526528044138 41.309609243646264,186.5131698701298 42.946620798669755,188.76315920078196 43.38315721368417,189.0 43.4922913168557,188.6447387879016 42.510084384121,187.10527262999676 41.09134103683755,184.026335900533 38.58125665271655,179.40791977138724 37.59904971951619,175.97370432177559 36.83511099405587,174.43422605399974 36.72597689041868,172.06579507607967 36.5077086831443,171.0" stroke="#4dd2ff" stroke-linecap="round" stroke-linejoin="round" stroke-width="0.5"><title>2023-10-28 1.0km</title><desc>10115543824</desc></polyline><polyline fill="none" points="57.66533815301955,174.73334801755846 58.64835366792977,177.93335448706057 59.75424612080678,180.46668893785682 60.737261635717005,184.06668443838134 62.211784907616675,187.53334001882467 62.82616960350424,188.8666673237458 63.44055429985747,189.0 63.563431239686906,188.8666673237458 63.31767736049369,188.06667105830275 62.580415724776685,186.0666788512608 60.12287693936378,181.26668855571188 58.156845910009,175.9333511054283 56.92807651730254,173.26667649880983 56.436568760313094,171.0" stroke="#4dd2ff" stroke-linecap="round" stroke-linejoin="round" stroke-width="0.5"><title>2023-10-27 1.0km</title><desc>10110442644</desc></polyline><polyline fill="none" points="77.56053018663079,173.77942351426464 79.8780265096575,181.58825709018856 80.7318409443833,183.9706063530175 81.58565537957475,185.42648490646388 82.56144330464303,188.20588614756707 82.92736377660185,188.7352954216767 83.65920472098514,189.0 83.78117821086198,188.60294311773032 83.65920472098514,188.07353380485438 82.43946981383488,186.48530493315775 80.60986745357513,183.3088429851923 78.41434462182224,176.82354910613503 76.95066273352131,174.44119038514327 76.21882178913802,171.0" stroke="#4dd2ff" stroke-linecap="round" stroke-linejoin="round" stroke-width="0.5"><title>2023-10-26 1.0km</title><desc>10104873905</desc></polyline><polyline fill="none" points="99.09845727263018,179.6087184365606 101.86318830493838,186.52174997131806 103.18545097252354,188.86956587433815 103.66627376014367,189.0 103.54606806393713,187.695658311015 100.30051424261183,182.0869781221263 98.49742878694087,177.52176022727508 96.93475472507998,174.26088311045896 96.33372623985633,171.0" stroke="#4dd2ff" stroke-linecap="round" stroke-linejoin="round" stroke-width="0.5"><title>2023-10-25 1.0km</title><desc>10098978222</desc></polyline><polyline fill="none" points="116.67021359270439,171.0 116.54913045093417,171.91971242427826 117.2756293034181,174.9416213426739 118.24429444037378,176.9124287540326 118.84971015015617,179.27739477867726 119.93945842934772,182.43067794316448 122.24003812810406,186.8978195694508 122.96653698058799,188.737227581325 123.20870326505974,189.0 123.45086954906583,188.8686137953773 123.32978640682995,187.16059225809295 121.99787184409797,184.6642501518363 121.02920670807362,183.2189978651004 119.81837528664619,180.45987661753315 119.57620900310576,179.01462093077134 118.12321129767224,176.78104166104458 117.2756293034181,174.8102341046324 117.03346301894635,172.44526216841768 116.67021359270439,171.0" stroke="#4dd2ff" stroke-linecap="round" stroke-linejoin="round" stroke-width="0.5"><title>2023-10-24 1.0km</title><desc>10092835699</desc></polyline><polyline fill="none" points="138.1502161314711,174.1079268073663 139.9403295526281,180.45326034456957 140.7757158158347,182.0072160938289 141.73044297331944,185.89209946908522 143.16253370977938,188.4820169589948 143.75923818396404,189.0 143.16253370977938,188.35252117482014 142.32714744703844,186.28058733535 140.17901134165004,183.69066660827957 139.7016477631405,182.7841934543103 139.2242841841653,179.80577837780584 137.7921934472397,176.9568548965035 136.83746628975496,173.9784299666062 136.24076181650162,171.0" stroke="#4dd2ff" stroke-linecap="round" stroke-linejoin="round" stroke-width="0.5"><title>2023-10-23 1.0km</title><desc>10087395010</desc></polyline><polyline fill="none" points="154.17224500933662,171.08633225236554 154.4904841897078,171.0 156.75793835008517,171.1726644920418 157.75243578874506,171.43166113487678 157.99111517402343,171.56115941354074 158.5082538423594,171.94965407782 158.86627292004414,172.3813145144959 159.66187087097205,173.8489576249267 160.059669846436,175.4892602887703 160.57680851477198,176.35257563943742 160.81548789981753,177.04322700586636 161.37240646546707,178.29503053677035 161.77020544116385,179.58999689779012 162.3669039043598,180.62596793007106 162.64536318718456,180.92812580347527 163.00338226510212,181.5324410837493 163.2022817528341,182.82740030408604 163.32162144547328,183.17272228054935 163.63986062561162,183.6475396664464 163.71942042093724,184.38134759839159 163.83876011357643,184.68350353906862 165.58907560561784,188.82734075089684 165.8277549908962,189.0 165.8277549908962,188.78417593060294 165.46973591297865,188.43885725463042 165.07193693774752,187.48922984837554 164.67413796205074,186.6690958525287 163.60008072829805,183.34538319258718" stroke="#4dd2ff" stroke-linecap="round" stroke-linejoin="round" stroke-width="0.5"><title>2023-10-22 1.5km</title><desc>10080655811</desc></polyline><polyline fill="none" points="177.13705715793185,171.0 177.7685886672698,171.45685924118152 176.63183195027523,171.27411558496533 178.4001201763749,173.5584074241924 178.56852857908234,174.10663621604908 178.44222227716818,174.56349317287095 177.85279286839068,174.88329284300562 177.68438446591608,175.2030923484126 177.72648656647652,175.75131968891947 178.06330337142572,177.07620043179486 178.44222227716818,178.03559506835882 178.86324328323826,179.4975269040442 179.62108109449036,180.82239965925692 179.74738739640452,181.3249368618708 180.21051050303504,182.14726958947722 180.50522520765662,182.51275045255898 180.54732730798423,182.74117588269291 180.84204201260582,183.01528628816595 181.05255251564085,183.47213669511257 181.3472672200296,184.3401515429723 181.64198192441836,184.93405574030476 181.59987982385792,186.12186243198812 182.14720713184215,187.1726126128342 182.31561553431675,187.675144680019 182.61033023847267,188.22336101706605 183.1155554461293,188.86294613225618 183.3681680499576,189.0 182.39981973543763,187.62945996341296 182.1893092324026,186.89850404136814 181.76828822609968,185.98480792954797 181.59987982385792,185.3909047365305 181.05255251564085,184.6142612430849 180.5894294087775,183.28939657268347" stroke="#4dd2ff" stroke-linecap="round" stroke-linejoin="round" stroke-width="0.5"><title>2023-10-20 1.4km</title><desc>10069668027</desc></polyline><polyline fill="none" points="16.378020914969966,191.0 16.463748230598867,191.69768395990832 17.149566755397245,193.3721223237808 17.321021386887878,194.39538803097093 18.7355220944155,197.83726962580113 18.864113067742437,198.302387323929 18.94984038360417,199.0000632299343 19.12129501462914,199.46518007316627 20.150022802175954,200.90704011387425 20.707250353647396,202.02331659808988 21.050159616163,203.13959111261647 21.35020522098057,203.7442389856442 21.521659852238372,204.67446535412455 21.73597814119421,205.13957802538062 22.29320569266565,206.58142513339408 22.378933008294553,207.13955861562863 23.19334250688553,208.81395610782783 23.407660795841366,209.0 23.536251769168302,209.0 23.621979084797204,208.95348903205013 23.57911542709917,208.9069780607242 22.721842271042988,207.83722477586707 22.336069350596517,206.5349139876198 21.521659852238372,205.04655551846372 21.393068878678605,204.44190889014862 21.307341563049704,203.41865943354787" stroke="#4dd2ff" stroke-linecap="round" stroke-linejoin="round" stroke-width="0.5"><title>2023-10-19 1.3km</title><desc>10064004415</desc></polyline><polyline fill="none" points="35.94113790709525,191.0 37.70586055610329,193.29788272990845 37.5882123792544,194.95746281044558 37.823508732486516,196.61704130494036 38.64704596903175,199.55321475525852 39.82352773472667,201.46810780919623 41.000009500887245,204.7872507669963 43.35297303367406,208.61702321912162 43.705917563289404,209.0 44.05886209290475,208.87234108219855 42.529435796663165,207.3404333399376 39.70587955834344,201.8510861665709 38.999990498647094,199.4255551431561 36.99997149594128,195.21278268191963" stroke="#4dd2ff" stroke-linecap="round" stroke-linejoin="round" stroke-width="0.5"><title>2023-10-18 1.0km</title><desc>10058081424</desc></polyline><polyline fill="none" points="56.858259035274386,192.09091406327207 57.863616143818945,197.95456616184674 60.50267855450511,204.9091062474763 62.26205349434167,208.59091103076935 63.016071326099336,209.0 63.39308024197817,209.0 63.64441951876506,208.4545480213128 62.76473204931244,207.36364358162973 61.633705301675946,205.59092249977402 60.12566963862628,202.31820220442023 59.49732144596055,200.4091126989806 56.858259035274386,195.09092442982364 56.60691975848749,194.27274026570376 56.35558048123494,191.0" stroke="#4dd2ff" stroke-linecap="round" stroke-linejoin="round" stroke-width="0.5"><title>2023-10-17 1.0km</title><desc>10051702317</desc></polyline><polyline fill="none" points="75.98050376260653,191.41538655466866 77.25653431424871,193.63077996543143 79.17058014171198,198.61540561076254 80.19140458293259,200.55386757676024 81.33983207913116,204.15386307716835 82.74346568621695,207.75385169649962 83.25387790706009,208.72307822608855 83.89189318241552,209.0 84.01949623785913,208.86153911834117 83.89189318241552,208.44615641143173 82.48825957579538,206.36924150353298 80.57421374879777,201.66155923274346 79.17058014171198,198.75386724586133 78.02215264551342,193.3538559313165 77.38413736922666,191.0" stroke="#4dd2ff" stroke-linecap="round" stroke-linejoin="round" stroke-width="0.5"><title>2023-10-16 1.0km</title><desc>10046279660</desc></polyline><polyline fill="none" points="96.31368951732293,191.0 96.84030530136079,192.14286210003775 97.36692108446732,194.71429936750792 98.55180659657344,198.71430613135453 100.13165394589305,201.14287764916662 101.97480918699875,208.00000437430572 102.633078916464,208.71428701665718 103.55465653678402,209.0 103.68631048314273,208.71428701665718 103.55465653678402,207.8571478142403 101.84315524157137,205.42858468799386 100.92157762078568,202.57144771213643 99.86834605457261,200.85716351040173 97.36692108446732,195.0000144095393 96.44534346368164,191.0" stroke="#4dd2ff" stroke-linecap="round" stroke-linejoin="round" stroke-width="0.5"><title>2023-10-15 1.0km</title><desc>10039610121</desc></polyline><polyline fill="none" points="116.25423207087442,192.3064571354771 116.65556434867904,196.51614647032693 117.72578375739977,199.5645365928067 119.06355801783502,201.45163288107142 119.86622257437557,204.06453245715238 122.1404388169758,208.12903603585437 122.6755485208705,208.70967872138135 123.34443565178663,209.0 123.74576792959124,208.70967872138135 123.74576792959124,208.2741967231268 121.07021940825507,206.0967852922622 119.3311128700152,202.9032441836316 118.66222574003041,200.1451817966299 117.05689662694931,196.51614647032693 116.25423207087442,193.4677516417578 116.38800949696451,191.5806477224687 116.25423207087442,191.0" stroke="#4dd2ff" stroke-linecap="round" stroke-linejoin="round" stroke-width="0.5"><title>2023-10-14 1.0km</title><desc>10033377496</desc></polyline><polyline fill="none" points="135.91872827988118,191.28571558836848 138.28849895577878,194.1428691581823 138.551806808915,196.2857315784786 140.7899235584773,203.14287544356193 142.89638638170436,208.14286092377733 143.5546560138464,209.0 144.08127171965316,209.0 144.08127171965316,208.5714305093279 143.94961779285222,208.14286092377733 142.76473245490342,207.2857214693213 141.448193191085,204.85715762886684 139.99999999953434,200.28573510737624 137.3669214709662,194.42858428391628 136.9719596914947,192.42857752018608 136.313690058887,191.0" stroke="#4dd2ff" stroke-linecap="round" stroke-linejoin="round" stroke-width="0.5"><title>2023-10-13 1.0km</title><desc>10028006924</desc></polyline><polyline fill="none" points="156.1378172035329,191.0 157.40410664491355,192.6488621745957 158.16388031002134,194.0229128751671 158.29050925420597,195.80917727621272 158.16388031002134,197.73284472187515 159.55679869512096,200.6183421780588 161.2029749690555,205.0152821157826 162.84915124299005,208.03817232279107 163.22903807554394,208.58778819919098 163.86218279600143,209.0 163.86218279600143,208.31298028118908 162.46926441043615,206.5267278305255 161.2029749690555,204.32826093258336 159.55679869512096,199.79391478805337 158.54376714210957,198.007654195535 158.0372513658367,196.4962015914498" stroke="#4dd2ff" stroke-linecap="round" stroke-linejoin="round" stroke-width="0.5"><title>2023-10-12 1.0km</title><desc>10021974100</desc></polyline><polyline fill="none" points="177.89550185156986,193.5522495948244 178.39067788608372,196.23882426461205 178.26688387757167,197.31345302646514 179.38102995604277,200.9403204311384 180.2475880170241,202.5522591888439 181.1141460784711,205.50747655145824 182.35208616545424,208.46268913452514 182.59967418340966,208.73134458682034 183.2186442273669,209.0 183.09485021792352,208.46268913452514 181.73311612196267,204.97016465931665 180.2475880170241,202.41793101315852 178.26688387757167,197.85076717019547 177.7717078421265,196.1044956248952 177.5241198251024,193.5522495948244 176.7813557726331,191.0" stroke="#4dd2ff" stroke-linecap="round" stroke-linejoin="round" stroke-width="0.5"><title>2023-10-10 1.0km</title><desc>10009069592</desc></polyline><polyline fill="none" points="16.95066273305565,213.2500098424498 17.804477167781442,215.6323701395886 18.658291602507234,218.80884563201107 20.487893962766975,222.7794321157271 21.95157585060224,227.80882909044158 22.80539028532803,229.0 23.04933726694435,228.60294311773032 23.171310757286847,227.14706713322084 22.317496322561055,224.63236947765108 20.487893962766975,221.4559042607434 18.414344621356577,215.6323701395886 17.804477167781442,212.98530294792727 16.828689242247492,211.0" stroke="#4dd2ff" stroke-linecap="round" stroke-linejoin="round" stroke-width="0.5"><title>2023-10-09 1.0km</title><desc>10003389142</desc></polyline><polyline fill="none" points="36.33512142067775,211.0 37.23526703706011,212.11628403502982 38.13541265344247,214.20931483071763 38.64978157635778,218.3953694977099 40.578665039502084,222.58141493203584 42.25036404049024,227.3255885966355 43.021917425561696,228.7209315354703 43.66487857978791,229.0 43.66487857978791,227.88372589554638 41.2216261937283,223.97676135855727 38.00682042259723,216.1628081573872 36.72089811321348,211.13953554059844" stroke="#4dd2ff" stroke-linecap="round" stroke-linejoin="round" stroke-width="0.5"><title>2023-10-08 1.0km</title><desc>9996447828</desc></polyline><polyline fill="none" points="57.68947410071269,214.60001482162625 58.281916639301926,216.78573449037503 60.05924425413832,221.54287962068338 60.65168679272756,223.60001945286058 62.54750291490927,228.35714604717214 63.13994545349851,229.0 63.25843396084383,228.48571685678326 63.25843396084383,227.97143356245942 61.00715231569484,223.98573290207423 59.940755746793,221.67145093088038 58.044939623679966,216.01430433080532 57.45249708509073,213.05715223390143 56.74156603915617,211.0" stroke="#4dd2ff" stroke-linecap="round" stroke-linejoin="round" stroke-width="0.5"><title>2023-10-07 1.0km</title><desc>9989974159</desc></polyline><polyline fill="none" points="78.5293982247822,216.36172163987067 79.4705833606422,219.42555514350533 80.17647221311927,220.9574698683573 81.58824991760775,226.95745619398076 81.94119434338063,228.10638738039415 82.6470831958577,229.0 83.23532390547916,229.0 83.47062018932775,228.48936427361332 83.35297204786912,228.10638738039415 81.94119434338063,226.06384252291173 80.52941663889214,223.00002073205542 80.05882407119498,220.9574698683573 77.5882130889222,214.95746281091124 77.23526866268367,212.78724238602445 76.52937981067225,211.0" stroke="#4dd2ff" stroke-linecap="round" stroke-linejoin="round" stroke-width="0.5"><title>2023-10-06 1.0km</title><desc>9984428862</desc></polyline><polyline fill="none" points="96.12483936548233,211.0 98.16439759451896,216.45903345034458 99.52410308038816,221.0328068000963 101.83560240641236,226.78689395042602 102.78739624656737,228.7049193349667 103.19530789228156,229.0 103.73919008672237,229.0 103.87516063498333,228.7049193349667 103.46724898880348,227.96721748064738 101.83560240641236,225.60656972648576 100.88380856625736,223.6885413810378 99.25216198293492,219.40985615958925 98.57230924023315,217.19673953438178 96.6687215603888,213.65574785752688 96.6687215603888,212.32787436805665" stroke="#4dd2ff" stroke-linecap="round" stroke-linejoin="round" stroke-width="0.5"><title>2023-10-04 1.0km</title><desc>9971682885</desc></polyline><polyline fill="none" points="117.27562950411811,213.10219913115725 117.88104516966268,215.20439578976948 118.48646083520725,216.64965455804486 118.97079336829484,218.8832339918008 121.27137289801612,223.48177109507378 121.39245603140444,225.05840966361575 122.11895483080298,228.21168262825813 122.36112109664828,228.6058413576102 123.08761989604682,229.0 123.08761989604682,227.68613752059173 121.51353916525841,224.79563666554168 120.42379096662626,222.29929125588387 119.81837530015036,221.11681063415017 119.21295963414013,219.40878168831114 118.002128303051,216.912428754149 117.51779576996341,214.9416213426739 117.27562950411811,212.97081175807398 116.91238010441884,211.0" stroke="#4dd2ff" stroke-linecap="round" stroke-linejoin="round" stroke-width="0.5"><title>2023-10-03 1.0km</title><desc>9965060084</desc></polyline><polyline fill="none" points="136.70973855769262,211.7438048243057 138.35486927861348,217.09919148962945 138.62905773241073,219.47935879125725 139.58871732000262,220.66944139194675 140.27418845379725,222.45456398068927 141.50803649425507,227.06612337986007 142.46769608184695,228.55372094386257 143.1531672156416,229.0 143.29026144277304,228.8512403254863 142.87897876231,227.6611625365913 141.37094226805493,224.83472498285118 138.90324618574232,218.88431722810492 137.39520969148725,214.42149992857594 137.12102123815566,211.0" stroke="#4dd2ff" stroke-linecap="round" stroke-linejoin="round" stroke-width="0.5"><title>2023-10-02 1.0km</title><desc>9958643020</desc></polyline><polyline fill="none" points="157.146795372013,214.16801199468318 157.41220975574106,215.46401542495005 160.33176798000932,222.37601923558395 161.79154709167778,226.84000873356126 162.58779024379328,228.4240025616018 163.3840333954431,229.0 163.51674058800563,228.85600065614562 163.3840333954431,228.2800031756051 160.72988955536857,224.2480160703417 158.20845290785655,218.0560197121231 157.01408817991614,214.31201241828967 156.48325941199437,211.0" stroke="#4dd2ff" stroke-linecap="round" stroke-linejoin="round" stroke-width="0.5"><title>2023-10-01 1.0km</title><desc>9952075403</desc></polyline><polyline fill="none" points="177.41557656321675,213.60870696778875 178.4974282346666,215.8261048743734 178.97825119877234,218.04350000969134 179.3388684228994,220.1304576053517 181.14195454167202,225.21740646020044 182.70462917815894,228.47826343949419 183.42586362501606,229.0 183.6662751082331,228.60869759391062 181.26216028351337,224.95653764309827 180.18030861206353,222.47828196594492 179.81969138793647,221.17393548239488 178.13681101053953,217.52176022715867 177.17516508046538,213.47827171022072 176.3337248917669,211.0" stroke="#4dd2ff" stroke-linecap="round" stroke-linejoin="round" stroke-width="0.5"><title>2023-09-30 1.0km</title><desc>9945549317</desc></polyline><polyline fill="none" points="17.213150607421994,231.0 18.407514633145183,233.0160082259681 18.805635974742472,234.60001323360484 19.867292886134237,237.19201866455842 20.39812134252861,241.0800203795079 20.79624268459156,242.23201940534636 22.38872805144638,246.12001111591235 22.78684939350933,248.56800193735398 23.052263621706516,248.85600065637846 23.450384963303804,249.0 23.583092077169567,248.7120013020467 21.19436402618885,244.39201575319748 19.601878658868372,240.64802057005 19.07105020293966,238.48802009352949 17.213150607421994,234.16801199526526 16.416907923296094,231.57600256206933" stroke="#4dd2ff" stroke-linecap="round" stroke-linejoin="round" stroke-width="0.5"><title>2023-09-28 1.0km</title><desc>9933629332</desc></polyline><polyline fill="none" points="36.4812475326471,233.04546334245242 37.486605380661786,236.5909277930623 39.371651344932616,239.1818398362957 40.628348655067384,243.81819972326048 42.387724888511,246.9545542517444 42.890403812751174,248.72727403056342 43.39308273606002,249.0 43.64442219864577,248.59091103065293 43.39308273606002,248.04545893135946 42.387724888511,246.6818279812578 39.49732107575983,240.81820347253233 37.989284303970635,236.72729167481884 36.35557780181989,231.0" stroke="#4dd2ff" stroke-linecap="round" stroke-linejoin="round" stroke-width="0.5"><title>2023-09-27 1.0km</title><desc>9927137811</desc></polyline><polyline fill="none" points="61.49532136670314,231.0 61.13644423848018,232.73079315607902 60.777567110490054,233.72599691554205 60.49844045541249,234.93754704669118 58.86355576105416,238.35583575541386 58.02617579582147,239.78372262767516 57.86667484999634,240.38949176907772 57.94642532267608,240.86545280006249 58.145801505073905,241.55775906681083 58.743930051568896,243.02890717971604 58.94330623396672,243.4183281234 59.18255765270442,244.11063138698228 59.980062381597236,245.10581590171205 60.33893950958736,245.88465478277067 60.73769187415019,246.49041764438152 61.056693765800446,247.3557920793537 61.535196603043005,248.00482207047753 62.133325149770826,249.0" stroke="#4dd2ff" stroke-linecap="round" stroke-linejoin="round" stroke-width="0.5"><title>2023-09-26 1.0km</title><desc>9920397094</desc></polyline><polyline fill="none" points="79.91593836294487,231.0 79.13136308570392,233.61488918599207 78.34678780846298,235.01354744983837 77.61825362220407,235.92571460851468 77.22596598370001,236.65544761100318 77.05784271005541,237.38517996965675 77.11388380080462,238.29734451253898 77.3940892573446,239.02707542252028 78.06658235215582,240.06085977627663 78.34678780846298,241.0946428378229 78.90719872061163,242.43247782281833 79.97197945415974,243.77031064400217 81.76529437373392,247.4189346122439 82.94215728971176,249.0" stroke="#4dd2ff" stroke-linecap="round" stroke-linejoin="round" stroke-width="0.5"><title>2023-09-25 1.0km</title><desc>9914573673</desc></polyline><polyline fill="none" points="101.32704889355227,231.0 100.88469926244579,231.67200891877292 100.79622933617793,232.00801311869873 100.88469926244579,232.4400182645768 100.92893422557972,232.8720231244224 100.04423496313393,234.50403890397865 99.82306014746428,235.60804726480274 99.51341540599242,236.42405224451795 97.65554695483297,239.68806196353398 97.61131199169904,240.07206203386886 97.78825184400193,240.8400614973507 98.27483643847518,241.6080600572168 98.54024621727876,242.2800580559997 98.93836088525131,242.95205536298454 99.15953570092097,243.62405197828775 99.73459022142924,244.53604627848836 100.1769398523029,245.44803930463968 100.66352444700897,245.9760346848634 100.79622933617793,246.45603011449566 101.10587407811545,246.8400262040086 101.76939852489159,247.99201311788056 102.255983119132,248.5200064406381 102.38868800853379,249.0" stroke="#4dd2ff" stroke-linecap="round" stroke-linejoin="round" stroke-width="0.5"><title>2023-09-24 1.0km</title><desc>9907510217</desc></polyline><polyline fill="none" points="120.67104142787866,231.0 120.29525822820142,231.5825306751649 120.02684165723622,232.1650609219796 119.8657917145174,232.9223496025661 119.81210840004496,233.9126490924391 118.89949205797166,235.13595851819264 118.3626589155756,236.53402412019204 117.87950908741914,237.23305599595187 117.5574092019815,238.16509753774153 117.50372588750906,239.15539047430502 118.63107548677363,242.00975730718346 119.06054200069048,242.8835410165484 120.45630817115307,245.09712210064754 121.0468246275559,246.5534220727859 121.79839102714323,247.4854526500567 122.22785754106008,248.24272668687627 122.49627411249094,249.0" stroke="#4dd2ff" stroke-linecap="round" stroke-linejoin="round" stroke-width="0.5"><title>2023-09-23 1.0km</title><desc>9901004991</desc></polyline><polyline fill="none" points="140.69117305218242,231.0 140.33278702525422,231.6666743136011 139.97440099832602,232.83335294673452 139.15523293660954,234.5555895413272 138.33606487489305,235.7222637136001 137.61929282103665,237.66671666427283 137.5680948169902,238.72227474185638 137.6704908250831,239.33338663936593 138.69445090182126,241.7778292860603 138.84804491349496,242.5000494637643 139.05283692874946,242.88893696578452 139.76960898260586,243.77782193332678 140.33278702525422,244.88892667199252 140.79356905980967,246.05558488948736 141.56153911771253,247.16668627905892 142.43190518324263,249.0" stroke="#4dd2ff" stroke-linecap="round" stroke-linejoin="round" stroke-width="0.5"><title>2023-09-22 1.0km</title><desc>9895405405</desc></polyline><polyline fill="none" points="160.95418478921056,231.0 160.80738712917082,231.53097987367073 160.51379180978984,231.84956761042122 159.87766861682758,233.01772144268034 159.63300585048273,233.86728667921852 158.89901755098253,235.72570714971516 158.11609669867903,237.3186351749464 157.62677116552368,238.48678016033955 157.47997350571677,239.07085194438696 157.47997350571677,239.44253374281107 157.62677116552368,239.97350740875117 157.92036648537032,240.5044806843507 158.55648967833258,242.15049535757862 159.19261287082918,243.31863252696348 159.53514074371196,244.16818564524874 160.1712639364414,245.2301256377832 160.56272436259314,245.7079981250572 160.8563196824398,246.55754843255272 161.63924053497612,247.93806555081392 162.5200264940504,249.0" stroke="#4dd2ff" stroke-linecap="round" stroke-linejoin="round" stroke-width="0.5"><title>2023-09-21 1.0km</title><desc>9889267953</desc></polyline><polyline fill="none" points="181.83262381213717,231.0 181.1902608263772,232.9271348346956 180.81240024673752,234.4442362957052 180.20782331866212,235.71531812573085 179.48988821706735,237.84744888261775 178.2429483034648,240.18458284673397 177.90287378174253,241.45565159220132 177.9406598394271,241.74266671438818 178.16737618739717,242.3576986216649 178.65859494148754,243.42375232084305 178.9608834052924,244.32579616687144 179.71660456503741,245.39184610371012 180.17003726097755,246.2528849497321 180.4345396666322,246.86791188293137 180.73682813043706,247.4009346763487 181.22804688452743,247.76995015799184 181.83262381213717,248.6719869741064 181.8704098702874,248.83599351116573 182.09712621825747,249.0" stroke="#4dd2ff" stroke-linecap="round" stroke-linejoin="round" stroke-width="0.5"><title>2023-09-20 1.0km</title><desc>9882714971</desc></polyline><polyline fill="none" points="21.492503026966006,251.0 21.10871653445065,251.97173551184824 20.383786492748186,254.10029377049068 20.34114354918711,254.79438729817048 20.085285887354985,255.16457019996597 19.786785282194614,255.85866255377186 19.616213507484645,256.506481393415 19.275069958530366,257.3856630375376 18.294282254995778,258.9589323879336 18.038424593163654,259.8843831096892 17.9531387060415,260.7172875957913 18.038424593163654,261.55019097944023 18.294282254995778,262.47563789068954 18.59278286015615,263.1234499189886 19.53092762012966,264.74297707213555 20.00000000023283,265.39078676642384 20.426429436309263,266.5475881336024 20.852858872618526,267.2879398926161 21.27928830869496,267.889475055621 21.7483606885653,268.35219402058283 22.04686129419133,269.0" stroke="#4dd2ff" stroke-linecap="round" stroke-linejoin="round" stroke-width="0.5"><title>2023-09-19 1.0km</title><desc>9876194288</desc></polyline><polyline fill="none" points="39.867506621871144,251.0 39.54952251445502,251.51757766940864 39.019549002405256,252.5527319808025 38.860556948697194,253.24283409374766 37.906604626681656,254.91057835303945 37.16464170953259,256.46330257016234 37.00564965582453,257.03838483133586 37.05864700721577,257.6709748299909 37.37663111463189,258.47608863416826 37.853607275523245,259.3387096473016 38.27758608548902,260.5463774675154 38.860556948697194,261.81155127921375 39.49652516329661,262.96170751401223 40.079496026970446,263.70930815977044 40.76846159272827,264.85946160397725 41.192440402461216,266.182135974057 41.93440331984311,267.3322857822059 42.30538477841765,268.36741916363826 42.9943503444083,269.0" stroke="#4dd2ff" stroke-linecap="round" stroke-linejoin="round" stroke-width="0.5"><title>2023-09-18 1.0km</title><desc>9870505463</desc></polyline><polyline fill="none" points="60.180867734597996,251.0 59.92248525680043,251.5046786859748 59.56074978783727,253.18693856027676 59.09566132770851,253.97199189837556 58.888955345377326,254.58881895412924 57.75207244278863,256.43929712829413 57.33866047835909,257.4486469672411 57.08027800032869,258.3458457023953 57.286983982659876,258.9626692206948 58.42386688501574,261.4299583049142 58.99230833654292,262.3271523566218 59.40572030097246,263.2804198800004 60.0775147434324,264.17761175491614 60.439250212628394,264.79443055659067 60.90433867252432,266.2523639231222 62.91972199990414,269.0" stroke="#4dd2ff" stroke-linecap="round" stroke-linejoin="round" stroke-width="0.5"><title>2023-09-16 1.0km</title><desc>9856514700</desc></polyline><polyline fill="none" points="79.75117739033885,251.0 79.19823825755157,252.68001679936424 78.47941738506779,253.82002622907748 76.98648172640242,256.7000429572654 76.93118781317025,257.36004535935353 76.98648172640242,258.1400475098053 77.31824520626105,258.92004891473334 77.87118433904834,259.76004959398415 78.36882955837063,260.9000491327606 79.25353217078373,262.4000460996176 80.35941043659113,264.50003722141264 80.46999826305546,265.2800325474236 80.85705565591343,265.58003055123845 81.29940696223639,266.18002622795757 82.01822783472016,267.38001625816105 82.7923426204361,268.04001002263976 82.95822436036542,268.46000577666564 83.06881218706258,269.0" stroke="#4dd2ff" stroke-linecap="round" stroke-linejoin="round" stroke-width="0.5"><title>2023-09-15 1.0km</title><desc>9850671982</desc></polyline><polyline fill="none" points="100.45760422758758,251.0 99.54239577241242,253.4207119922503 98.51278626034036,254.91037746024085 98.05518203275278,255.7172784911818 97.36877569137141,257.4552165536443 97.19717410602607,258.07590785168577 97.19717410602607,258.57246056129225 97.36877569137141,259.193151037849 98.05518203275278,261.05521972937277 98.6843878456857,262.29659657517914 100.22880211402662,264.96555061248364 100.85800792672671,266.14485319692176 100.97240898362361,266.82760657178005 101.43001321121119,267.26208570454037 102.17362008104101,268.44138508086326 102.80282589397393,269.0" stroke="#4dd2ff" stroke-linecap="round" stroke-linejoin="round" stroke-width="0.5"><title>2023-09-14 1.0km</title><desc>9844236351</desc></polyline><polyline fill="none" points="117.13924675201997,251.0 117.46854208991863,251.26799398573348 117.59202784160152,251.535987853189 117.67435167613439,252.11664082697826 117.92132317950018,252.60796214069705 118.08597084856592,253.99259279557737 118.08597084856592,254.66257423744537 118.00364701403305,255.01989737094846 118.08597084856592,255.46655099239433 118.29178043454885,256.00253490457544 118.20945660024881,256.4491878034314 118.25061851739883,256.6725141296629 118.66223768983036,257.4318230249919 119.03269494511187,258.54845202929573 119.3619902827777,259.17376337520545 119.77360945520923,259.7544090486481 120.22639054479077,260.1563941896311 120.34987629647367,260.42438413598575 120.47336204838939,261.00502861407585 120.80265738628805,261.5856725371559 121.17311464133672,262.6576290910598 121.6670576480683,263.5955895241932 121.91402915143408,264.39955445716623 122.0375149033498,265.0695244217641 122.28448640671559,265.6054998616455 122.73726749629714,267.0794298829278 123.35469625494443,268.2407055631047 123.39585817232728,268.41936316300416 123.35469625494443,268.5533563285135 122.86075324798003,269.0 123.10772475157864,268.8213425707654 123.23121050326154,268.5533563285135 123.31353433756158,268.330034369661 123.27237242064439,268.0173834892921 123.02540091704577,267.70473244803725 122.28448640671559,266.0968102659681 121.91402915143408,264.89086583675817 121.1319527241867,263.14894187945174 120.7614954689052,261.45167783496436 120.55568588292226,260.96036367397755 119.77360945520923,259.9330691441428 118.99153302772902,258.45912178448634 118.62107577244751,257.2531621938688 118.49759002099745,256.4491878034314 118.16829468286596,255.60054701479385 117.50970400730148,254.1712545856717 117.34505633823574,253.50127260189038 116.7687894969713,252.4292998908204 116.64530374505557,251.84864721581107 116.60414182790555,251.1339970076806" stroke="#4dd2ff" stroke-linecap="round" stroke-linejoin="round" stroke-width="0.5"><title>2023-09-13 1.0km</title><desc>9837636972</desc></polyline></svg>