<?xml version="1.0" encoding="utf-8" ?>
<svg baseProfile="full" height="300mm" version="1.1" viewBox="0,0,200,300" width="200mm" xmlns="http://www.w3.org/2000/svg" xmlns:ev="http://www.w3.org/2001/xml-events" xmlns:xlink="http://www.w3.org/1999/xlink"><defs /><rect fill="#222222" height="300" width="200" x="0" y="0" /><text fill="#FFFFFF" style="font-size:12px; font-family:Arial; font-weight:bold;" x="10" y="20">Over 1km Runs</text><text fill="#FFFFFF" style="font-size:4px; font-family:Arial" x="10" y="280">ATHLETE</text><text fill="#FFFFFF" style="font-size:9px; font-family:Arial" x="10" y="290">Jiakai</text><text fill="#FFFFFF" style="font-size:4px; font-family:Arial" x="120" y="280">STATISTICS</text><text fill="#FFFFFF" style="font-size:3px; font-family:Arial" x="120" y="285">Number: 62</text><text fill="#FFFFFF" style="font-size:3px; font-family:Arial" x="120" y="290">Weekly: 5.6</text><text fill="#FFFFFF" style="font-size:3px; font-family:Arial" x="141" y="285">Total: 64.3 km</text><text fill="#FFFFFF" style="font-size:3px; font-family:Arial" x="141" y="290">Avg: 1.0 km</text><text fill="#FFFFFF" style="font-size:3px; font-family:Arial" x="167" y="285">Min: 1.0 km</text><text fill="#FFFFFF" style="font-size:3px; font-family:Arial" x="167" y="290">Max: 1.5 km</text><polyline fill="none" points="20.36628983169794,37.535997949540615 21.14468140155077,42.6037830329733 24.41392599698156,50.88114129961468 25.815030824393034,53.92179603117984 26.282065765932202,54.428571428521536 26.593422394245863,54.25964630860835 26.749100708402693,53.92179603117984 26.126387452706695,51.2189920238452 23.32417779881507,45.137671383912675 22.234429600648582,41.928079001023434 20.52196814585477,35.33995427505579 19.58789826091379,33.6506884819828 18.96518500521779,31.285714285681024" stroke="#4dd2ff" stroke-linecap="round" stroke-linejoin="round" stroke-width="0.5"><title>2023-11-20 1.0km</title><desc>10248671423</desc></polyline><polyline fill="none" points="44.45125910080969,33.21429429226555 46.713312927633524,38.12339999852702 47.35961402114481,43.207820255542174 49.136942028068006,47.240283785387874 50.914270034991205,52.3246846050024 51.72214640211314,53.551952143898234 52.6915980419144,54.42857142863795 52.530022769235075,53.02598041878082 49.78324312251061,45.837688548257574 48.00591511558741,39.350674845976755 46.22858710773289,35.14287273935042 45.25913546793163,31.285714285681024" stroke="#4dd2ff" stroke-linecap="round" stroke-linejoin="round" stroke-width="0.5"><title>2023-11-19 1.0km</title><desc>10242265034</desc></polyline><polyline fill="none" points="69.78782981587574,51.90590775629971 70.79859037091956,48.72515182720963 71.20289459312335,47.95738213835284 71.91042698128149,47.518656424595974 75.34701286815107,47.0799305816181 77.87391425576061,46.53152309637517 78.68252269970253,45.873433847911656 79.1879029776901,45.21534430934116 79.79435931053013,42.47330143931322 79.59220719942823,41.59584665612783 79.99651142163202,40.93775523011573 79.69328325474635,35.89237798273098 79.49113114411011,35.23428404016886 79.39005508832633,33.26000046962872 79.1879029776901,32.05349255690817 78.07606636732817,31.724444774794392 77.16638186760247,32.38254026602954 77.3685339782387,32.05349255690817 77.5706860893406,32.38254026602954 76.25669736787677,31.724444774794392 76.15562131302431,31.285714285681024 75.85239314613864,31.50507954636123 76.05454525724053,31.39539692015387 75.34701286815107,32.27285770443268 75.44808892393485,32.16317513468675 77.5706860893406,33.26000046962872 77.06530581228435,33.698730377829634 76.25669736787677,34.027777724317275 74.33625231357291,34.356824998161756 74.23517625778913,33.91809528332669 74.74055653531104,33.698730377829634 75.44808892393485,33.8084128346527 77.5706860893406,31.724444774794392 80.50189169868827,31.83412737690378 80.19866353273392,31.614762164535932 79.79435931053013,31.50507954636123 79.49113114411011,36.76983612135518 79.59220719942823,38.30538662197068 79.89543536584824,40.16998153261375 80.0975874774158,43.35075570619665 80.0975874774158,44.447572813834995 79.79435931053013,45.544389114831574 79.1879029776901,46.20247850846499 74.13410020247102,46.750886114663444 71.80935092596337,47.189612054498866 70.59643825981766,48.0670635466231 69.18137348257005,50.04132751713041 68.37276503862813,52.893037527566776 68.06953687220812,54.428571428521536" stroke="#4dd2ff" stroke-linecap="round" stroke-linejoin="round" stroke-width="0.5"><title>2023-11-18 1.0km</title><desc>10236386505</desc></polyline><polyline fill="none" points="95.27738835848868,31.285714285681024 98.62891920097172,37.07145090273116 99.84765768889338,41.3694170381641 100.30468462128192,43.849009147961624 101.21873848792166,45.3367631015135 104.11324239615351,53.767350244452246 104.72261164058,54.428571428521536 104.72261164058,53.767350244452246 104.11324239615351,52.94082349096425 102.43747697584331,47.98165658861399 101.52342310920358,46.32859852374531 101.21873848792166,43.518397024832666 99.84765768889338,40.04696679417975 98.32423457875848,36.74083778320346 98.17189226765186,34.922464754548855" stroke="#4dd2ff" stroke-linecap="round" stroke-linejoin="round" stroke-width="0.5"><title>2023-11-17 1.0km</title><desc>10231268371</desc></polyline><polyline fill="none" points="121.58629808574915,32.0322613583412 123.82229138445109,35.20508396439254 124.33828983828425,39.49772000266239 125.88628519885242,42.85716922977008 128.2942779827863,51.81567876855843 129.84227334335446,54.42857142863795 129.67027385905385,52.93549023801461 128.46627746801823,50.5092314297799 127.60628004465252,48.082970302319154 126.23028416745365,42.29726133355871 123.47829241584986,36.51153917913325 122.61829499248415,33.898628077004105 122.10229653865099,31.285714285913855" stroke="#4dd2ff" stroke-linecap="round" stroke-linejoin="round" stroke-width="0.5"><title>2023-11-16 1.0km</title><desc>10225818993</desc></polyline><polyline fill="none" points="147.41524967830628,31.534563053166494 148.56191303487867,36.013837745646015 150.3965744068846,40.9908026738558 152.91923379153013,45.71891257795505 153.83656447660178,49.45162625797093 155.44189317617565,52.686641451437026 157.04722187668085,54.42857142863795 152.91923379153013,46.71430329512805 151.08457242045552,40.9908026738558 145.80992097966373,31.285714285681024" stroke="#4dd2ff" stroke-linecap="round" stroke-linejoin="round" stroke-width="0.5"><title>2023-11-15 1.0km</title><desc>10219684298</desc></polyline><polyline fill="none" points="173.05366804264486,34.069829374784604 175.138352682814,36.67993429629132 175.45907339639962,39.98606306454167 177.86447874922305,45.72827573912218 179.30772196035832,50.600445265416056 180.7509651714936,54.25456582871266 181.39240659959614,54.42857142863795 181.232046241872,52.34050338040106 179.1473616035655,49.55640978273004 178.34555981867015,47.1203251988627 177.0626769643277,45.55426949914545 176.58159589394927,43.64020001515746 174.17619054112583,38.76801616116427 173.3743887571618,35.28787869610824 172.89330768678337,31.285714285681024" stroke="#4dd2ff" stroke-linecap="round" stroke-linejoin="round" stroke-width="0.5"><title>2023-11-14 1.0km</title><desc>10213806154</desc></polyline><polyline fill="none" points="19.76613808143884,61.257777913240716 21.00253999233246,65.95344251510687 24.402645244263113,74.67393684480339 25.175396437756717,77.52486045227852 26.72089882567525,80.71118262084201 27.18454954214394,81.21428571431898 26.257248109206557,79.53727497137152 24.093544766306877,74.3385338333901 23.93899452779442,72.9969212935539 22.39349213987589,69.30748274119105 20.075238559395075,65.11493168806192 19.14793712645769,62.2639925701078 18.529736171476543,58.071428571478464" stroke="#4dd2ff" stroke-linecap="round" stroke-linejoin="round" stroke-width="0.5"><title>2023-11-13 1.0km</title><desc>10208522228</desc></polyline><polyline fill="none" points="45.98622438777238,60.701310012023896 47.60197700280696,65.61041427473538 49.54088014084846,69.64288521651179 50.67190697044134,74.37664675200358 51.80293380096555,77.70780664379708 53.25711115449667,80.86363803921267 53.90341219957918,81.21428571431898 54.22656272351742,80.51299031241797 52.44923484697938,77.00651021138765 51.479783278889954,73.14937614509836 47.92512752581388,69.81820988538675 45.98622438777238,67.01301363646053 45.663073864765465,64.03248900664039 42.91629441920668,58.07142857136205" stroke="#4dd2ff" stroke-linecap="round" stroke-linejoin="round" stroke-width="0.5"><title>2023-11-12 1.0km</title><desc>10202270880</desc></polyline><polyline fill="none" points="70.78411361202598,62.38914310047403 74.60404162015766,71.02454834850505 75.87735095620155,75.34223906928673 77.15066029224545,78.79638593248092 77.94647862762213,80.35075036389753 78.74229696206748,81.21428571431898 78.90146062895656,80.52345745940693 77.46898762602359,76.20577626116574 74.76320528704673,72.06079484522343 71.8982592811808,65.49789264635183 70.78411361202598,60.83476678398438 69.66996794193983,58.07142857159488" stroke="#4dd2ff" stroke-linecap="round" stroke-linejoin="round" stroke-width="0.5"><title>2023-11-11 1.0km</title><desc>10196068378</desc></polyline><polyline fill="none" points="97.8484964100644,61.52256869641133 100.46771817095578,69.43987386161461 102.8998526642099,75.93610729952343 104.02237627562135,80.19925218750723 104.77072534989566,81.21428571431898 105.14489988796413,80.8082723482512 104.58363808132708,78.37219089805149 101.77732905186713,72.0789705386851 98.97102002147585,66.19175141211599 95.2292746482417,60.304519733646885 94.85510011110455,58.07142857136205" stroke="#4dd2ff" stroke-linecap="round" stroke-linejoin="round" stroke-width="0.5"><title>2023-11-10 1.0km</title><desc>10191120477</desc></polyline><polyline fill="none" points="120.34160169772804,58.77808399661444 123.10934800934047,60.898049026494846 124.73743407521397,63.72466615634039 125.22585989534855,64.78464672272094 125.22585989534855,66.37461669603363 127.01675456669182,71.85117188398726 127.66798899322748,75.03110142680816 128.9704578462988,78.5643515388947 129.29607505910099,80.3309746470768 130.11011809203774,81.21428571431898 130.598543911241,81.03762352676131 131.08696973044425,80.3309746470768 129.29607505910099,79.09433860797435 126.36552014108747,74.85443878476508 122.94653940293938,65.49130017426796 122.13249637000263,60.191394224064425 121.31845333706588,58.07142857136205" stroke="#4dd2ff" stroke-linecap="round" stroke-linejoin="round" stroke-width="0.5"><title>2023-11-09 1.0km</title><desc>10185506531</desc></polyline><polyline fill="none" points="146.913903972134,59.929622788215056 148.62636404205114,63.3081538771512 149.24907679390162,64.99741755891591 151.27289324067533,69.3894973192364 152.05128418188542,72.43016300420277 151.89560599345714,70.57197889685631 152.2069623703137,71.75445986620616 152.8296751221642,76.3154521904653 154.2307788161561,80.53858515981119 154.8534915689379,81.21428571431898 155.63188250921667,80.8764354614541 155.9432388851419,80.36965998983942 154.2307788161561,78.8493329033954 152.98535331059247,76.82222855673172 152.2069623703137,74.62619682983495 151.11721505224705,70.90983066475019 149.5604331716895,68.71379328717012 147.84797310084105,64.99741755891591 147.38093853648752,62.29459507192951 147.53661672398448,58.916062492644414 147.22526034805924,58.071428571478464" stroke="#4dd2ff" stroke-linecap="round" stroke-linejoin="round" stroke-width="0.5"><title>2023-11-08 1.0km</title><desc>10179505859</desc></polyline><polyline fill="none" points="176.0988324144855,70.85667343484238 181.31895605567843,81.21428571431898 181.61724883504212,81.0524483975023 180.87151688616723,79.2722371238051 179.52919937856495,77.0065116030164 178.63432104047388,74.74078375042882 176.8445643633604,72.79872944927774 176.24797880463302,71.6658636489883 175.80053963512182,67.78174790763296 175.50224685575813,66.64887952560093 173.71249017864466,63.57394812093116 172.66846545040607,58.071428571478464" stroke="#4dd2ff" stroke-linecap="round" stroke-linejoin="round" stroke-width="0.5"><title>2023-11-06 1.0km</title><desc>10167691585</desc></polyline><polyline fill="none" points="20.63228662405163,91.35048635595012 21.706355150789022,93.34843445639126 25.695752534084022,102.50567402900197 27.38357450440526,107.66701092664152 27.69045122526586,108.0 27.997327947057784,108.0 27.997327947057784,107.50051637156866 26.76982105989009,104.83660182671156 25.695752534084022,103.3381485179998 25.5423141727224,102.50567402900197 24.62168400734663,101.50670423870906 22.013231872580945,97.01133472868241 18.944464654661715,89.18604059156496 17.716957767494023,84.85714285715949" stroke="#4dd2ff" stroke-linecap="round" stroke-linejoin="round" stroke-width="0.5"><title>2023-11-05 1.1km</title><desc>10161301187</desc></polyline><polyline fill="none" points="44.24402284063399,84.85714285715949 47.335026933811605,91.73294377140701 48.72597877588123,97.77021529059857 50.88968164101243,101.96275555563625 51.662432664074004,105.3167822198011 52.43518368713558,108.0 52.898834301158786,107.49689690663945 52.74428409617394,106.9937937023351 50.73513143602759,103.3043668132741 50.58058123104274,102.80126268405002 48.72597877588123,99.95033719029743 47.953227751888335,97.26710994099267 45.94407509174198,93.5776673196815 45.48042447771877,90.39132570847869 44.55312324967235,87.03727709862869" stroke="#4dd2ff" stroke-linecap="round" stroke-linejoin="round" stroke-width="0.5"><title>2023-11-04 1.0km</title><desc>10155501797</desc></polyline><polyline fill="none" points="80.49475772492588,88.37253088480793 78.7400280572474,86.02893955609761 77.66019441559911,85.29656669998076 75.50052713230252,84.85714285715949 73.47583905467764,85.00361748237628 70.64127574535087,86.32188862282783 69.42646289849654,87.49368445994332 68.34662925684825,89.69079979555681 68.07667084690183,91.44849031907506 67.67173323128372,97.3074475270696 67.94169164123014,103.45933404483367 68.21165005210787,104.33817342494149 69.56144210370257,106.53527017787565 71.18119256664068,107.70705412165262 73.88077667029575,108.0 76.3104023640044,106.97468923777342 78.60504885250703,104.19170022185426 79.27994487853721,102.87344090954866 80.2247993145138,98.62571052322164 80.2247993145138,95.25681446457747 80.89969534054399,90.86259365000296 80.76471613533795,89.25137692224234 79.27994487853721,87.49368445994332 78.06513203121722,86.6148376467172 75.23056872189045,85.29656669998076 73.74579746508971,85.29656669998076 70.50629654061049,86.32188862282783 69.02152528334409,87.64015889097936 68.07667084690183,89.39785122405738 67.80671243648976,90.56964525126386 68.07667084690183,95.40328832506202 67.80671243648976,97.60039493476506" stroke="#4dd2ff" stroke-linecap="round" stroke-linejoin="round" stroke-width="0.5"><title>2023-11-03 1.0km</title><desc>10152446508</desc></polyline><polyline fill="none" points="95.21025129035115,84.85714285704307 96.47546792961657,87.60291606606916 97.55993933603168,92.50607548072003 99.36739168036729,96.03634467977099 102.07857019454241,103.09686906146817 102.62080589681864,104.27362130885012 103.5245320694521,107.41162476292811 104.06676777265966,108.0 104.78974870964885,108.0 104.78974870964885,107.60774985630997 103.5245320694521,107.01937453309074 102.98229636624455,105.64649827429093 101.71707972604781,104.46974663273431 100.81335355434567,101.9201162958052 99.5481369132176,99.95886053238064 98.10217503923923,97.01697418326512 96.47546792961657,90.93706544861197 95.39099652413279,88.3874221779406" stroke="#4dd2ff" stroke-linecap="round" stroke-linejoin="round" stroke-width="0.5"><title>2023-11-02 1.1km</title><desc>10144903556</desc></polyline><polyline fill="none" points="121.77325520664454,86.53416938101873 122.08235563896596,88.37889713374898 123.31875736638904,91.22983708966058 125.4824603907764,98.9441273411503 129.19166557583958,106.65839150408283 130.27351708710194,108.0 129.65531622432172,105.98758696066216 127.33706298377365,102.4658598692622 126.10066125541925,97.93791704869363 124.55515909474343,95.7577932261629 122.7005565026775,91.73294377094135 121.15505434200168,84.85714285715949" stroke="#4dd2ff" stroke-linecap="round" stroke-linejoin="round" stroke-width="0.5"><title>2023-11-01 1.0km</title><desc>10138966680</desc></polyline><polyline fill="none" points="148.06100443005562,85.20515742269345 148.862806096673,87.81526503060013 150.1456887628883,94.77553791319951 152.23037309478968,99.29970431071706 153.51325576100498,103.475850232644 155.59794009383768,108.0 155.7583004264161,107.82599439937621 154.31505742762238,105.73792619723827 152.23037309478968,100.86575989471748 150.46640942897648,97.73364769015461 147.4195630978793,88.5112932396587 147.09884242992848,84.85714285704307" stroke="#4dd2ff" stroke-linecap="round" stroke-linejoin="round" stroke-width="0.5"><title>2023-10-31 1.0km</title><desc>10133123337</desc></polyline><polyline fill="none" points="173.50921104382724,87.60001199808903 174.29913410916924,91.71430966048501 174.29913410916924,93.25716941198334 176.03696485143155,96.1714572685305 180.77650324162096,106.28572216280736 181.56642630696297,107.8285722725559 181.8823955329135,108.0 178.24874943401664,100.80002461350523 176.66890330426395,96.34288585279137 174.93107256107032,92.7428829416167 172.4033187525347,84.85714285704307" stroke="#4dd2ff" stroke-linecap="round" stroke-linejoin="round" stroke-width="0.5"><title>2023-10-30 1.0km</title><desc>10127985445</desc></polyline><polyline fill="none" points="19.208945678547025,114.99249720969237 19.91052205907181,119.71243538125418 20.33146788738668,121.23499378701672 23.13777340995148,127.78198217705358 24.540926170535386,131.5883612614125 26.64565531304106,134.48120468656998 27.20691641792655,134.78571428568102 27.347231693565845,134.32894987007603 26.084394208621234,132.349636238534 24.260295618791133,128.39100330066867 21.033044267911464,122.45303970598616 19.77020678250119,118.03761984209996 18.78799984930083,116.05829064070713 18.647684573661536,113.01316509768367 18.367054021451622,111.64285714284051" stroke="#4dd2ff" stroke-linecap="round" stroke-linejoin="round" stroke-width="0.5"><title>2023-10-28 1.0km</title><desc>10115543824</desc></polyline><polyline fill="none" points="45.56972048338503,116.44287602230906 46.8335975734517,120.55717005464248 48.25545929931104,123.81431434862316 49.51933638937771,128.44287999207154 51.41515202447772,132.90000859554857 52.20507520530373,134.61428655893542 52.99499838612974,134.78571428568102 53.15298302285373,134.61428655893542 52.837013750337064,133.5857199318707 51.88910593278706,131.01430138014257 48.729413208551705,124.84288528584875 46.20165902841836,117.985737135401 44.62181266583502,114.55715549830347 43.98987412080169,111.6428571427241" stroke="#4dd2ff" stroke-linecap="round" stroke-linejoin="round" stroke-width="0.5"><title>2023-10-27 1.0km</title><desc>10110442644</desc></polyline><polyline fill="none" points="71.1492530964315,115.21640166104771 74.12889122590423,125.25633054447826 75.22665264178067,128.31935102527495 76.32441405858845,130.1911948795896 77.57899853400886,133.76471076102462 78.04946771264076,134.44537982763723 78.99040606897324,134.78571428568102 79.14722912758589,134.27521257975604 78.99040606897324,133.59454346331768 77.4221754744649,131.55253491387703 75.06982958316803,127.46851240936667 72.24701451323926,119.13027742202394 70.36513779964298,116.06724478071555 69.4241994433105,111.6428571427241" stroke="#4dd2ff" stroke-linecap="round" stroke-linejoin="round" stroke-width="0.5"><title>2023-10-26 1.0km</title><desc>10104873905</desc></polyline><polyline fill="none" points="98.84087363630533,122.71120941836853 102.3955278210342,131.59939282014966 104.09557982161641,134.61801326693967 104.71378054935485,134.78571428568102 104.55923036765307,133.10870354261715 100.38637545518577,125.89754329971038 98.06812272593379,120.02797743491828 96.05897036101669,115.83542114193551 95.28621945157647,111.64285714284051" stroke="#4dd2ff" stroke-linecap="round" stroke-linejoin="round" stroke-width="0.5"><title>2023-10-25 1.0km</title><desc>10098978222</desc></polyline><polyline fill="none" points="121.43313176184893,111.64285714284051 121.27745343651623,112.82534454553388 122.21152339037508,116.71065601205919 123.45694999489933,119.24455125513487 124.23534162156284,122.28522185829934 125.6364465514198,126.33944306976628 128.5943347364664,132.0829108748585 129.52840468939394,134.44786403304897 129.83976134099066,134.78571428568102 130.15111799165606,134.6167891654186 129.99543966632336,132.42076147464104 128.282978085801,129.21117876667995 127.03755148127675,127.35299725504592 125.4807682260871,123.80555565096438 125.16941157542169,121.94736976805143 123.30127166863531,119.07562499272171 122.21152339037508,116.54172956303228 121.90016673877835,113.50105135946069 121.43313176184893,111.64285714284051" stroke="#4dd2ff" stroke-linecap="round" stroke-linejoin="round" stroke-width="0.5"><title>2023-10-24 1.0km</title><desc>10092835699</desc></polyline><polyline fill="none" points="149.05027788411826,115.63876303785946 151.3518522819504,123.79704901436344 152.42592033464462,125.79499212047085 153.65342667978257,130.78984217438847 155.49468619935215,134.11973609006964 156.2618776652962,134.78571428568102 155.49468619935215,133.95324151031673 154.42061814665794,131.28932657383848 151.65872886870056,127.95942849630956 151.04497569520026,126.79396301263478 150.4312225226313,122.96457219996955 148.58996300399303,119.30167058110237 147.36245665885508,115.47226709977258 146.59526519291103,111.6428571427241" stroke="#4dd2ff" stroke-linecap="round" stroke-linejoin="round" stroke-width="0.5"><title>2023-10-23 1.0km</title><desc>10087395010</desc></polyline><polyline fill="none" points="169.65002929768525,111.75385575310793 170.05919395806268,111.64285714289872 172.97449216409586,111.86485434696078 174.25313172792085,112.19785003067227 174.56000522337854,112.36434781743446 175.22489779698662,112.86384095728863 175.68520803982392,113.41883294726722 176.7081196908839,115.30580266064499 177.21957551687956,117.41476322850212 177.88446809002198,118.52474010788137 178.19134158524685,119.4127204361721 178.90737974108197,121.02218211872969 179.4188355668448,122.68713886867044 180.1860193053726,124.01910162443528 180.54403838329017,124.40759031882044 181.0043486263603,125.18456710776081 181.2600765391253,126.84951467678184 181.41351328673773,127.29350007505855 181.82267794711515,127.90397957118694 181.92496911250055,128.84744691231754 182.07840586011298,129.23593312170124 184.3288114927709,134.56372382264817 184.6356849882286,134.78571428573923 184.6356849882286,134.50822619657265 184.17537474515848,134.06424504175084 183.6639189196285,132.84329551941482 183.15246309386566,131.78883752471302 181.7715323646553,127.51549267623341" stroke="#4dd2ff" stroke-linecap="round" stroke-linejoin="round" stroke-width="0.5"><title>2023-10-22 1.5km</title><desc>10080655811</desc></polyline><polyline fill="none" points="19.1762163459789,138.42857142857974 19.988185429247096,139.01596188155236 18.526641078991815,138.7810057521565 20.80015451251529,141.7179524025414 21.016679601510987,142.42281799204648 20.854285784997046,143.01020550803514 20.096447973744944,143.42137651250232 19.87992288474925,143.8325473050936 19.934054156998172,144.5374110286357 20.367104334756732,146.24082912661834 20.854285784997046,147.47433651646134 21.395598507253453,149.35396316234255 22.36996140726842,151.05737099045655 22.53235522401519,151.70349025103496 23.12779921828769,152.7607751864707 23.50671812426299,153.2306791532901 23.56084939604625,153.52436899207532 23.939768301788718,153.87679665623 24.210424662800506,154.4641757509089 24.589343568775803,155.5801948410226 24.96826247428544,156.34378595184535 24.914131202036515,157.87096598400967 25.617837740806863,159.2219305022736 25.83436283003539,159.868043160066 26.213281735312194,160.5728927362361 26.86285700206645,161.39521645579953 27.18764463555999,161.57142857142026 25.942625374300405,159.80930566729512 25.671969013288617,158.86950519605307 25.13065629079938,157.69475305231754 24.914131202036515,156.93116323271533 24.210424662800506,155.93262159830192 23.614980668528005,154.2292241648538" stroke="#4dd2ff" stroke-linecap="round" stroke-linejoin="round" stroke-width="0.5"><title>2023-10-20 1.4km</title><desc>10069668027</desc></polyline><polyline fill="none" points="43.91459831944667,138.42857142857974 44.024819153826684,139.32559366268106 44.90658582863398,141.47844298765995 45.12702749762684,142.794070325559 46.945671264547855,147.21934666176094 47.11100251600146,147.8173551306827 47.22122335061431,148.71436700987397 47.44166501914151,149.31237437977688 48.7643150317017,151.16619443206582 49.480750455055386,152.6014070546953 49.92163379234262,154.03661714476766 50.30740671302192,154.8140215529129 50.52784838154912,156.01002688379958 50.803400467615575,156.60802888975013 51.51983589073643,158.46183231432224 51.63005672534928,159.17943250574172 52.67715465184301,161.33222928148462 52.952706737676635,161.57142857142026 53.118037989363074,161.57142857142026 53.22825882351026,161.5116287554265 53.1731484066695,161.45182893518358 52.07094006286934,160.07643185462803 51.574946308275685,158.4020322698052 50.52784838154912,156.4884285237058 50.36251713009551,155.7110257158638 50.252296295482665,154.39541927166283" stroke="#4dd2ff" stroke-linecap="round" stroke-linejoin="round" stroke-width="0.5"><title>2023-10-19 1.3km</title><desc>10064004415</desc></polyline><polyline fill="none" points="69.06717730872333,138.42857142863795 71.33610642887652,141.38299208146054 71.18484448734671,143.51673789927736 71.487368369475,145.65048167784698 72.54620196018368,149.42556182818953 74.05882137268782,151.88756718323566 75.57144078612328,156.1550367004238 78.59667961392552,161.0790298532229 79.05046543851495,161.57142857147846 79.50425126217306,161.40729567722883 77.53784602414817,159.43770000850782 73.907559431158,152.3799679283984 72.99998778291047,149.2614280412672 70.42853478062898,143.84500630549155" stroke="#4dd2ff" stroke-linecap="round" stroke-linejoin="round" stroke-width="0.5"><title>2023-10-18 1.0km</title><desc>10058081424</desc></polyline><polyline fill="none" points="95.96061875950545,139.83117522415705 97.25322075653821,147.37015649373643 100.64630099851638,156.31170803238638 102.90835449285805,161.04545703949407 103.87780599109828,161.57142857136205 104.3625317402184,161.57142857136205 104.68568223901093,160.87013317015953 103.55465549230576,159.4675417477265 102.1004782449454,157.18832892808132 100.16157525032759,152.9805456912145 99.35369900241494,150.52600204129703 95.96061875950545,143.68833140959032 95.63746826071292,142.63638034136966 95.31431776192039,138.42857142840512" stroke="#4dd2ff" stroke-linecap="round" stroke-linejoin="round" stroke-width="0.5"><title>2023-10-17 1.0km</title><desc>10051702317</desc></polyline><polyline fill="none" points="120.54636198002845,138.9626398559194 122.18697268981487,141.81100281258114 124.64788875263184,148.21980721363798 125.96037732064724,150.71211545565166 127.43692695815116,155.3406810988672 129.24159873928875,159.96923789544962 129.89784302283078,161.21538629056886 130.71814837679267,161.57142857136205 130.88220944814384,161.39340743771754 130.71814837679267,160.85934395738877 128.91347659751773,158.18902479019016 126.45256053376943,152.13629044196568 124.64788875263184,148.39782931585796 123.17133911512792,141.45495762582868 122.35103376023471,138.42857142840512" stroke="#4dd2ff" stroke-linecap="round" stroke-linejoin="round" stroke-width="0.5"><title>2023-10-16 1.0km</title><desc>10046279660</desc></polyline><polyline fill="none" points="146.6890293797478,138.42857142840512 147.36610681563616,139.89796555694193 148.0431842515245,143.20409918646328 149.56660848110914,148.34696502564475 151.59784078784287,151.46941412007436 153.9676118120551,160.2857199094724 154.81395860668272,161.20408330694772 155.99884411878884,161.57142857136205 156.16811347845942,161.20408330694772 155.99884411878884,160.1020471896045 153.79834245331585,156.97960888431408 152.61345694120973,153.30614705826156 151.25930207036436,151.10206737020053 148.0431842515245,143.57144709769636 146.8582987394184,138.42857142840512" stroke="#4dd2ff" stroke-linecap="round" stroke-linejoin="round" stroke-width="0.5"><title>2023-10-15 1.0km</title><desc>10039610121</desc></polyline><polyline fill="none" points="172.32686980534345,140.10830203117803 172.8428684482351,145.52075974736363 174.21886483114213,149.4401184762828 175.93886030931026,151.86638513277285 176.97085759602487,155.22582744481042 179.89484990760684,160.4516177601181 180.58284809812903,161.19815835589543 181.44284583814442,161.57142857136205 181.95884448103607,161.19815835589543 181.95884448103607,160.63825292955153 178.51885352563113,157.83872394706123 176.28285940457135,153.73274252167903 175.4228616654873,150.18666230980307 173.35886709205806,145.52075974736363 172.32686980534345,141.6013949678745 172.49886935390532,139.1751185003668 172.32686980534345,138.42857142840512" stroke="#4dd2ff" stroke-linecap="round" stroke-linejoin="round" stroke-width="0.5"><title>2023-10-14 1.0km</title><desc>10033377496</desc></polyline><polyline fill="none" points="17.60979350283742,165.58163432776928 20.656641514971852,169.255117489025 20.99518018309027,172.01022631512024 23.872758861631155,180.82655414170586 26.58106820564717,187.2551069019828 27.427414875477552,188.35714285704307 28.104492211714387,188.35714285704307 28.104492211714387,187.80612494051456 27.935222877189517,187.2551069019828 26.4117988711223,186.1530704605393 24.719105531461537,183.03063123719767 22.857142857275903,177.15308799524792 19.471756177023053,169.62246550782584 18.96394817531109,167.05102824023925 18.117601504549384,165.21428571431898" stroke="#4dd2ff" stroke-linecap="round" stroke-linejoin="round" stroke-width="0.5"><title>2023-10-13 1.0km</title><desc>10028006924</desc></polyline><polyline fill="none" points="43.60576497577131,165.21428571408615 45.233851401135325,167.33425136725418 46.21070325560868,169.10088798217475 46.373511898331344,171.39751364081167 46.21070325560868,173.87080035638064 48.00159832276404,177.58072565728799 50.11811067536473,183.23393414868042 52.234623027034104,187.12050727196038 52.72304895427078,187.827156255953 53.53709216695279,188.35714285704307 53.53709216695279,187.47383179003373 51.74619709979743,185.17722149612382 50.11811067536473,182.35062119876966 48.00159832276404,176.52074758452363 46.699129182845354,174.22412682278082 46.047894613817334,172.2808306175284" stroke="#4dd2ff" stroke-linecap="round" stroke-linejoin="round" stroke-width="0.5"><title>2023-10-12 1.0km</title><desc>10021974100</desc></polyline><polyline fill="none" points="71.5799309508875,168.49574947892688 72.21658585313708,171.94991691154428 72.05742212757468,173.33158246264793 73.4898956567049,177.99469769722782 74.60404173564166,180.06719038565643 75.71818781457841,183.86675556609407 77.30982506927103,187.66631460143253 77.62815252039582,188.01172875449993 78.4239711491391,188.35714285704307 78.26480742264539,187.66631460143253 76.51400644239038,183.1759259905666 74.60404173564166,179.89448273112066 72.05742212757468,174.02241493295878 71.42076722532511,171.7772086604964 71.10243977420032,168.49574947892688 70.14745742175728,165.21428571431898" stroke="#4dd2ff" stroke-linecap="round" stroke-linejoin="round" stroke-width="0.5"><title>2023-10-10 1.0km</title><desc>10009069592</desc></polyline><polyline fill="none" points="96.07942351419479,168.1071555116214 97.17718493007123,171.17019017937128 98.27494634594768,175.2542300982168 100.62729223817587,180.35926986287814 102.50916895084083,186.82563740201294 103.60693036671728,188.3571428571595 103.92057648673654,187.8466411512345 104.07739954534918,185.97480059973896 102.97963812947273,182.74161789973732 100.62729223817587,178.6575911922846 97.96130022779107,171.17019017937128 97.17718493007123,167.76681807579007 95.92260045465082,165.21428571420256" stroke="#4dd2ff" stroke-linecap="round" stroke-linejoin="round" stroke-width="0.5"><title>2023-10-09 1.0km</title><desc>10003389142</desc></polyline><polyline fill="none" points="121.00229896977544,165.21428571408615 122.15962904784828,166.64950804505497 123.31695912592113,169.34054763941094 123.97829059883952,174.7226179256104 126.45828362274915,180.1046763411723 128.60761090926826,186.20432819565758 129.59960811864585,187.998340545455 130.42627245932817,188.35714285704307 130.42627245932817,186.92193329404108 127.28494796343148,181.8986931750551 123.15162625722587,171.85218191659078 121.49829757399857,165.39368855208158" stroke="#4dd2ff" stroke-linecap="round" stroke-linejoin="round" stroke-width="0.5"><title>2023-10-08 1.0km</title><desc>9996447828</desc></polyline><polyline fill="none" points="148.45789527148008,169.84287619916722 149.2196071073413,172.6530872018775 151.50474261213094,178.76941665518098 152.26645444706082,181.41431072517298 154.70393231883645,187.53061634639744 155.46564415376633,188.3571428571595 155.6179865207523,187.69592167297378 155.6179865207523,187.03470029460732 152.72348154801875,181.9102280169027 151.35240024514496,178.93472262541763 148.914922372438,171.6612484252546 148.15321053750813,167.85919572925195 147.23915633559227,165.21428571431898" stroke="#4dd2ff" stroke-linecap="round" stroke-linejoin="round" stroke-width="0.5"><title>2023-10-07 1.0km</title><desc>9989974159</desc></polyline><polyline fill="none" points="175.25208343192935,172.10792782274075 176.46217860653996,176.0471423274139 177.36974998842925,178.01674697361887 179.1848927512765,185.7310151066631 179.63867844175547,187.2082123461878 180.54624982271343,188.3571428571595 181.30255930684507,188.3571428571595 181.60508310049772,187.70061120891478 181.45382120460272,187.2082123461878 179.63867844175547,184.58208324376028 177.82353567890823,180.64288379845675 177.21848809160292,178.01674697361887 174.04198825731874,170.30245218542404 173.58820256683975,167.5121687820647 172.68063118495047,165.21428571431898" stroke="#4dd2ff" stroke-linecap="round" stroke-linejoin="round" stroke-width="0.5"><title>2023-10-06 1.0km</title><desc>9984428862</desc></polyline><polyline fill="none" points="17.874793469905853,192.00000000023283 20.49708262179047,199.01875729346648 22.245275389403105,204.89932302874513 25.21720309369266,212.29743507923558 26.440938031300902,214.7634677165188 26.965395861305296,215.14285714295693 27.664672968909144,215.14285714295693 27.839492244645953,214.7634677165188 27.31503441464156,213.8149939039722 25.21720309369266,210.7798753627576 23.99346815701574,208.31383891869336 21.89563683513552,202.81267220550217 21.021540451794863,199.9672365442384 18.5740705775097,195.41453295992687 18.5740705775097,193.70726704481058" stroke="#4dd2ff" stroke-linecap="round" stroke-linejoin="round" stroke-width="0.5"><title>2023-10-04 1.0km</title><desc>9971682885</desc></polyline><polyline fill="none" points="45.06866650376469,194.7028274544282 45.84705807454884,197.40565172978677 46.62544964440167,199.26384157466237 47.24816290102899,202.13558656093664 50.20605086814612,208.04799140791874 50.36172918230295,210.07509813900106 51.295799067243934,214.1293062363984 51.60715569462627,214.6360817454988 52.541225579567254,215.1428571428405 52.541225579567254,213.45360538363457 50.517407497391105,209.73724714142736 49.11630266997963,206.52766018616967 48.33791109919548,205.00732795824297 47.55951952841133,202.81129074213095 46.00273638870567,199.60169411252718 45.38002313207835,197.06779886910226 45.06866650376469,194.53390083182603 44.60163156222552,192.0" stroke="#4dd2ff" stroke-linecap="round" stroke-linejoin="round" stroke-width="0.5"><title>2023-10-03 1.0km</title><desc>9965060084</desc></polyline><polyline fill="none" points="70.05537814553827,192.9563204885926 72.1705462159589,199.8418176297564 72.52307422738522,202.9020327317994 73.7569222683087,204.432138932636 74.63824229780585,206.72729654680006 76.22461835015565,212.65644434583373 77.45846639107913,214.56906978506595 78.33978641964495,215.14285714295693 78.51605042628944,214.95159470429644 77.98725840914994,213.42149469000287 76.04835434444249,209.7875035495963 72.87560223881155,202.13697929354385 70.93669817503542,196.3990713369567 70.58417016360909,192.00000000023283" stroke="#4dd2ff" stroke-linecap="round" stroke-linejoin="round" stroke-width="0.5"><title>2023-10-02 1.0km</title><desc>9958643020</desc></polyline><polyline fill="none" points="96.33159404993057,196.0731582788285 96.67284111492336,197.73944840370677 100.42655883170664,206.62631044583395 102.30341769009829,212.3657255147118 103.32715888507664,214.4022890077904 104.350900080055,215.14285714295693 104.52152361348271,214.95771512947977 104.350900080055,214.21714694029652 100.93842942919582,209.03316351911053 97.69658230990171,201.0720253442414 96.16097051743418,196.25830168067478 95.47847638651729,192.0" stroke="#4dd2ff" stroke-linecap="round" stroke-linejoin="round" stroke-width="0.5"><title>2023-10-01 1.0km</title><desc>9952075403</desc></polyline><polyline fill="none" points="122.3914555804804,195.35405181569513 123.78240772988647,198.20499198127072 124.4006086839363,201.05592858383898 124.86425940040499,203.73915977822617 127.18251298181713,210.27952259161975 129.19166608527303,214.47205299360212 130.1189675172791,215.1428571428405 130.42806799616665,214.63975404936355 127.3370632212609,209.94411982689053 125.94611107185483,206.75779109902214 125.48246035538614,205.08077419165056 123.31875701341778,200.38512029196136 122.08235510252416,195.18634934176225 121.00050343200564,192.0" stroke="#4dd2ff" stroke-linecap="round" stroke-linejoin="round" stroke-width="0.5"><title>2023-09-30 1.0km</title><desc>9945549317</desc></polyline><polyline fill="none" points="147.84547935146838,192.0 149.38109024148434,194.59201057627797 149.89296053815633,196.62858844315633 151.25794799625874,199.96116685448214 151.9404417257756,204.96002620225772 152.4523120224476,206.44116780697368 154.4997932082042,211.44001429202035 155.0116635048762,214.58743106247857 155.35291036963463,214.9577151297126 155.86478066630661,215.14285714295693 156.03540409822017,214.77257310249843 152.96418231911957,209.21830596844666 150.9167011315003,204.40459787589498 150.23420740291476,201.62745440611616 147.84547935146838,196.0731582797598 146.8217387581244,192.74057472264394" stroke="#4dd2ff" stroke-linecap="round" stroke-linejoin="round" stroke-width="0.5"><title>2023-09-28 1.0km</title><desc>9933629332</desc></polyline><polyline fill="none" points="172.61874682735652,194.62988144042902 173.91134977526963,199.1883357341867 176.33498030062765,202.51950836111791 177.95073398482054,208.48054250143468 180.21278914250433,212.5129983238876 180.85909061599523,214.79220946785063 181.5053920885548,215.14285714295693 181.82854282669723,214.61688561108895 181.5053920885548,213.91559005482122 180.21278914250433,212.16235026181675 176.4965556692332,204.62340446491726 174.5576512478292,199.3636607248336 172.45717145968229,192.00000000023283" stroke="#4dd2ff" stroke-linecap="round" stroke-linejoin="round" stroke-width="0.5"><title>2023-09-27 1.0km</title><desc>9927137811</desc></polyline><polyline fill="none" points="24.779698900179937,218.78571428568102 24.318285449873656,221.01101977209328 23.856871999567375,222.29056746285642 23.497994871577248,223.84827477432555 21.39600026444532,228.2432173998095 20.31936888070777,230.07907194987638 20.11429623584263,230.85791798884748 20.216832557925954,231.46986788575305 20.473173363832757,232.3599759429926 21.242195780854672,234.2514520881814 21.498536586761475,234.7521361586405 21.80614555370994,235.64224035473308 22.831508776405826,236.92176330223447 23.29292222694494,237.92312757781474 23.805603838525712,238.7019655428012 24.2157491275575,239.81458981632022 24.83096706145443,240.6490569477901 25.599989478476346,241.92857142857974" stroke="#4dd2ff" stroke-linecap="round" stroke-linejoin="round" stroke-width="0.5"><title>2023-09-26 1.0km</title><desc>9920397094</desc></polyline><polyline fill="none" points="48.4633493241854,218.78571428568102 47.45460968185216,222.14771466772072 46.44587003975175,223.94598957832204 45.50918322871439,225.11877592519158 45.0048134077806,226.05700407130644 44.78865491296165,226.99523138953373 44.860707744257525,228.16801437322283 45.22097190259956,229.1062398289796 46.08560588164255,230.4353911409271 46.44587003975175,231.76454079145333 47.16639835527167,233.48461434361525 48.53540215571411,235.2046851136838 50.84109276649542,239.89577307284344 52.35420222999528,241.92857142857974" stroke="#4dd2ff" stroke-linecap="round" stroke-linejoin="round" stroke-width="0.5"><title>2023-09-25 1.0km</title><desc>9914573673</desc></polyline><polyline fill="none" points="75.99192000576295,218.78571428573923 75.42318476573564,219.64972575270804 75.30943771777675,220.08173115260433 75.42318476573564,220.6371663401369 75.4800582898315,221.19260115997167 74.34258780954406,223.29090716224164 74.05822018929757,224.71034648327623 73.66010552155785,225.75949574296828 71.27141751302406,229.9560796673759 71.21454398916103,230.449794043554 71.44203808484599,231.4372219251236 72.06764684920199,232.4246486449847 72.40888799331151,233.28864607197465 72.92074970924295,234.15264260955155 73.20511732925661,235.0166382577736 73.9444731415715,236.18920235801488 74.51320838136598,237.36176482023438 75.13881714595482,238.04061602335423 75.30943771777675,238.65775300428504 75.7075523857493,239.15146226232173 76.56065524602309,240.63258829439292 77.18626401014626,241.31143685226562 77.35688458220102,241.92857142857974" stroke="#4dd2ff" stroke-linecap="round" stroke-linejoin="round" stroke-width="0.5"><title>2023-09-24 1.0km</title><desc>9907510217</desc></polyline><polyline fill="none" points="100.8627675503958,218.78571428568102 100.37961772223935,219.53468229668215 100.03451070212759,220.28364975680597 99.82744649006054,221.25730663182912 99.75842508580536,222.53054883313598 98.58506121742539,224.10337523772614 97.89484717743471,225.900888154516 97.27365454100072,226.79964342340827 96.85952611686662,227.99798254854977 96.79050471261144,229.2712163241813 98.23995419731364,232.94111653784057 98.79212542949244,234.0645527355955 100.5866819343064,236.91058555798372 101.34591737855226,238.78297123644734 102.31221703486517,239.98129626433365 102.86438826727681,240.95493431173963 103.20949528738856,241.92857142857974" stroke="#4dd2ff" stroke-linecap="round" stroke-linejoin="round" stroke-width="0.5"><title>2023-09-23 1.0km</title><desc>9901004991</desc></polyline><polyline fill="none" points="126.60293678101152,218.78571428573923 126.14215474645607,219.6428669745801 125.68137271166779,221.14288236008724 124.62815663241781,223.35718655312667 123.57494055316783,224.85719620325835 122.6533764838241,227.35720713983756 122.58755047875457,228.7143532395712 122.71920248889364,229.5000685363193 124.03572258772328,232.6429233677918 124.23320060269907,233.57149216765538 124.49650462251157,234.0714903845801 125.4180686918553,235.21434248570586 126.14215474645607,236.64290572114987 126.73458879091777,238.14289485791232 127.72197886533104,239.5714537873282 128.84102094941773,241.92857142857974" stroke="#4dd2ff" stroke-linecap="round" stroke-linejoin="round" stroke-width="0.5"><title>2023-09-22 1.0km</title><desc>9895405405</desc></polyline><polyline fill="none" points="152.65538044297136,218.78571428573923 152.4666405946482,219.46840269467793 152.08916089800186,219.87801549909636 151.27128822146915,221.37992756912718 150.9567218075972,222.47222573042382 150.0130225655157,224.86162347818026 149.0064100411255,226.9096737963264 148.37727721291594,228.41157449188177 148.18853736459278,229.16252392844763 148.18853736459278,229.64040052646305 148.37727721291594,230.3230809540837 148.7547569097951,231.0057608798379 149.57262958632782,233.1220654596691 150.39050226239488,234.62395610607928 150.83089524204843,235.7162386867567 151.6487679183483,237.08159010566305 152.15207418054342,237.695997589326 152.5295538774226,238.78827655612258 153.53616640227847,240.5632271367358 154.6686054924503,241.92857142857974" stroke="#4dd2ff" stroke-linecap="round" stroke-linejoin="round" stroke-width="0.5"><title>2023-09-21 1.0km</title><desc>9889267953</desc></polyline><polyline fill="none" points="179.49908775882795,218.78571428573923 178.67319249128923,221.263459073205 178.18737174593844,223.214018094528 177.41005855286494,224.8482661617454 176.48699913639575,227.58957713481504 174.88379067601636,230.5944636601489 174.4465520051308,232.22869490430458 174.49513407959603,232.59771434712457 174.78662652685307,233.3884696564637 175.41819349629804,234.7591101268772 175.80685009271838,235.91888078604825 176.77849158388563,237.28951641911408 177.36147647863254,238.39656636398286 177.70155100012198,239.1873152781045 178.0902075965423,239.87263029819587 178.7217745659873,240.34707877459005 179.49908775882795,241.5068403953337 179.54766983352602,241.7177059429814 179.83916228078306,241.92857142857974" stroke="#4dd2ff" stroke-linecap="round" stroke-linejoin="round" stroke-width="0.5"><title>2023-09-20 1.0km</title><desc>9882714971</desc></polyline><polyline fill="none" points="24.77607532008551,245.57142857142026 24.282635543961078,246.82080280093942 23.350582633400336,249.5575205620844 23.295755991479382,250.4499265262275 22.96679614041932,250.9258759713848 22.583009648136795,251.8182804263197 22.36370308068581,252.6511903629871 21.92508994648233,253.78156676259823 20.664077184861526,255.80434164166218 20.335117334034294,256.9942068553646 20.225464050425217,258.0650840517483 20.335117334034294,259.1359598307172 20.664077184861526,260.3258201451972 21.04786367714405,261.15872132440563 22.254049797076732,263.2409705213504 22.857142857043073,264.07386869972106 23.40540927485563,265.56118474318646 23.953675693133846,266.5130655762623 24.501942110946402,267.2864679286722 25.105035170912743,267.8813923121779 25.48882166366093,268.71428571426077" stroke="#4dd2ff" stroke-linecap="round" stroke-linejoin="round" stroke-width="0.5"><title>2023-09-19 1.0km</title><desc>9876194288</desc></polyline><polyline fill="none" points="48.40107994247228,245.57142857142026 47.992243232904,246.23688557493733 47.310848717344925,247.56779826106504 47.1064303626772,248.45507240627194 45.8799202342052,250.5993150253198 44.92596791218966,252.59567473310744 44.72154955728911,253.3350662117009 44.78968900907785,254.14839620998828 45.198525718646124,255.1835425296449 45.81178078264929,256.292626689421 46.356896395329386,257.8453424582258 47.1064303626772,259.4719945018296 47.924103781348094,260.95076680369675 48.67363774892874,261.91196763399057 49.55945061915554,263.3907363479957 50.1045662316028,265.0913176808972 51.05851855385117,266.57008172001224 51.53549471497536,267.9009674960398 52.42130758543499,268.71428571426077" stroke="#4dd2ff" stroke-linecap="round" stroke-linejoin="round" stroke-width="0.5"><title>2023-09-18 1.0km</title><desc>9870505463</desc></polyline><polyline fill="none" points="74.5182585157454,245.57142857142026 74.18605247256346,246.220301167632 73.7209640124347,248.3832067202893 73.12299313535914,249.39256101218052 72.85722830076702,250.18562436959473 71.39552171202376,252.56481059349608 70.86399204330519,253.86254610068863 70.53178600035608,255.01608733163448 70.79755083448254,255.8091461408767 72.25925742345862,258.9813749634195 72.9901107181795,260.13491017278284 73.52164038666524,261.3605398457148 74.38537609833293,262.5140722562792 74.85046455869451,263.30712500127265 75.44843543600291,265.18161075829994 78.03964257100597,268.71428571426077" stroke="#4dd2ff" stroke-linecap="round" stroke-linejoin="round" stroke-width="0.5"><title>2023-09-16 1.0km</title><desc>9856514700</desc></polyline><polyline fill="none" points="99.68008521618322,245.57142857142026 98.96916347392835,247.7314501705696 98.04496520920657,249.1971765802009 96.12547650537454,252.9000552307116 96.05438433098607,253.7486297477153 96.12547650537454,254.75148965540575 96.55202955077402,255.75434860464884 97.26295129302889,256.83434947789647 97.90278086066246,258.3000631706673 99.04025564808398,260.22863069950836 100.46209913259372,262.92861928464845 100.604283480905,263.9314704181161 101.10192870046012,264.31718213728163 101.67066609417088,265.08860515023116 102.59486435889266,266.6314494747785 103.59015479777008,267.4800128862262 103.80343132046983,268.02000742714154 103.94561566901393,268.71428571426077" stroke="#4dd2ff" stroke-linecap="round" stroke-linejoin="round" stroke-width="0.5"><title>2023-09-15 1.0km</title><desc>9850671982</desc></polyline><polyline fill="none" points="126.3026340068318,245.57142857142026 125.12593742180616,248.6837725614896 123.80215376289561,250.59905673458707 123.21380547061563,251.63650091725867 122.33128303149715,253.87099271186162 122.11065242206678,254.66902438079705 122.11065242206678,255.30744929309003 122.33128303149715,256.10547990584746 123.21380547061563,258.4995682234876 124.02278437279165,260.0956241681124 126.00845986045897,263.52713650179794 126.81743876263499,265.0433826817898 126.96452583558857,265.92120844946476 127.55287412879989,266.479824477341 128.5089401039295,267.9960665325634 129.3179190061055,268.71428571426077" stroke="#4dd2ff" stroke-linecap="round" stroke-linejoin="round" stroke-width="0.5"><title>2023-09-14 1.0km</title><desc>9844236351</desc></polyline><polyline fill="none" points="147.75046010990627,245.57142857136205 148.17383982986212,245.9159922673134 148.3326072250493,246.26055581122637 148.43845215509646,247.00710963463644 148.75598694500513,247.6388084665523 148.9676768053323,249.41904787998646 148.9676768053323,250.2804525909596 148.86183187528513,250.73986804834567 148.9676768053323,251.3141369901714 149.2322891303338,252.0032591629424 149.12644420028664,252.57752717577387 149.17936666542664,252.86466102383565 149.70859131542966,253.84091531776357 150.18489350075833,255.27658118045656 150.608273220947,256.08055291092023 151.13749787095003,256.82709734817035 151.71964498632587,257.343935386627 151.8784123812802,257.688493889058 152.03717977646738,258.43503678945126 152.46055949665606,259.1815789762768 152.9368616817519,260.5598088313127 153.5719312618021,261.7657579596271 153.8894660519436,262.7994271591306 154.04823344713077,263.66081711358856 154.36576823727228,264.34992839349434 154.9479153524153,266.2449812780251 155.74175232788548,267.73805000964785 155.79467479302548,267.9677526380983 155.74175232788548,268.14002956519835 155.10668274736963,268.71428571426077 155.42421753751114,268.4845833052532 155.5829849326983,268.14002956519835 155.68882986251265,267.8529013323714 155.6359073978383,267.45092162903165 155.3183726076968,267.0489417188219 154.36576823727228,264.98161319905194 153.8894660519436,263.4311132186558 152.88393921684474,261.1914967020857 152.40763703151606,259.00930007349234 152.14302470651455,258.37761043792125 151.13749787095003,257.0568031852599 150.13197103561834,255.16172800853383 149.65566885028966,253.61120853491593 149.49690145580098,252.57752717577387 149.07352173514664,251.48641759040765 148.22676229500212,249.64875589578878 148.01507243490778,248.78735048812814 147.2741579245776,247.40909985953476 147.11539052939042,246.66254642023705 147.06246806448326,245.74371043837164" stroke="#4dd2ff" stroke-linecap="round" stroke-linejoin="round" stroke-width="0.5"><title>2023-09-13 1.0km</title><desc>9837636972</desc></polyline></svg>