<?xml version="1.0" encoding="utf-8" ?>
<svg baseProfile="full" height="300mm" version="1.1" viewBox="0,0,200,300" width="200mm" xmlns="http://www.w3.org/2000/svg" xmlns:ev="http://www.w3.org/2001/xml-events" xmlns:xlink="http://www.w3.org/1999/xlink"><defs /><rect fill="#222222" height="300" width="200" x="0" y="0" /><text fill="#FFFFFF" style="font-size:12px; font-family:Arial; font-weight:bold;" x="10" y="20">Over 1km Runs</text><text fill="#FFFFFF" style="font-size:4px; font-family:Arial" x="10" y="280">ATHLETE</text><text fill="#FFFFFF" style="font-size:9px; font-family:Arial" x="10" y="290">Jiakai</text><text fill="#FFFFFF" style="font-size:4px; font-family:Arial" x="120" y="280">STATISTICS</text><text fill="#FFFFFF" style="font-size:3px; font-family:Arial" x="120" y="285">Number: 14</text><text fill="#FFFFFF" style="font-size:3px; font-family:Arial" x="120" y="290">Weekly: 4.7</text><text fill="#FFFFFF" style="font-size:3px; font-family:Arial" x="141" y="285">Total: 14.2 km</text><text fill="#FFFFFF" style="font-size:3px; font-family:Arial" x="141" y="290">Avg: 1.0 km</text><text fill="#FFFFFF" style="font-size:3px; font-family:Arial" x="167" y="285">Min: 1.0 km</text><text fill="#FFFFFF" style="font-size:3px; font-family:Arial" x="167" y="290">Max: 1.0 km</text><polyline fill="none" points="25.554994078353047,37.30911202193238 27.967852912843227,45.81822670344263 32.49196322821081,52.0364156072028 35.50803677178919,63.16367933573201 39.73053973168135,70.69093020446599 40.93696914985776,74.94545767339878 42.14339856617153,75.60000000009313 42.74661327525973,74.6181864736136 42.14339856617153,73.30910143535584 39.73053973168135,70.03638715529814 32.79357058182359,55.963688334217295 29.174282329156995,46.14550001965836 25.253386724740267,32.4000000001397" stroke="#4dd2ff" stroke-linecap="round" stroke-linejoin="round" stroke-width="0.5"><title>2023-09-27 1.0km</title><desc>9927137811</desc></polyline><polyline fill="none" points="103.58877128036693,32.39999999990687 102.72746617300436,36.553903574473225 101.86616106564179,38.942392597324215 101.19625709345564,41.850112912012264 97.27253382699564,50.05400581296999 95.2628219104372,53.4809343063971 94.88001964008436,54.93478024576325 95.07142077479511,56.07708672003355 95.5499236122705,57.738621760276146 96.98543212423101,61.269377231248654 97.46393496217206,62.20398749609012 98.03813836677,63.8655153287109 99.95214971574023,66.2539581641322 100.81345482356846,68.1231714785099 101.77046049851924,69.57700234651566 102.5360650382936,71.65390099037904 103.68447184795514,73.2115729690995 105.11998035991564,75.59999999997672" stroke="#4dd2ff" stroke-linecap="round" stroke-linejoin="round" stroke-width="0.5"><title>2023-09-26 1.0km</title><desc>9920397094</desc></polyline><polyline fill="none" points="165.79825207125396,32.40000000002328 163.91527140606195,38.67573404638097 162.03229074040428,42.032513879588805 160.28380869328976,44.22171506029554 159.3423183611594,45.97307426633779 158.938822504133,47.72443192708306 159.07332112221047,49.91362682997715 159.74581421818584,51.66498101409525 161.35979764536023,54.146063462947495 162.03229074040428,56.6271428107284 163.37727692956105,59.83794677478727 165.93275069026276,63.04874554555863 170.23670649714768,71.80544306931552 173.061177495867,75.59999999997672" stroke="#4dd2ff" stroke-linecap="round" stroke-linejoin="round" stroke-width="0.5"><title>2023-09-25 1.0km</title><desc>9914573673</desc></polyline><polyline fill="none" points="37.18491734424606,80.40000000002328 36.12327822949737,82.01282140496187 35.9109504064545,82.81923148490023 36.12327822949737,83.85604383493774 36.22944214101881,84.8928554985905 34.10616391105577,88.80969336943235 33.5753443534486,91.45931343548 32.83219697372988,93.41772538679652 28.3733126912266,101.25134871248156 28.267148779705167,102.17294888128527 28.691804425325245,104.01614759361837 29.859607452061027,105.85934413736686 30.496590920723975,107.47213933430612 31.452066123951226,109.08493287116289 31.9828856815584,110.69772474770434 33.36301653087139,112.88651106820907 34.42465564515442,115.07529433106538 35.59245867235586,116.34248324355576 35.9109504064545,117.49447227467317 36.654097786638886,118.41606288962066 38.24655645946041,121.18083148286678 39.41435948573053,122.44801545748487 39.73285121982917,123.59999999997672" stroke="#4dd2ff" stroke-linecap="round" stroke-linejoin="round" stroke-width="0.5"><title>2023-09-24 1.0km</title><desc>9907510217</desc></polyline><polyline fill="none" points="101.61049942718819,80.39999999990687 100.7086197482422,81.79807362041902 100.06441997736692,83.19614621263463 99.67790011502802,85.01363904611208 99.54906016029418,87.39035782183055 97.35878093913198,90.32630044373218 96.07038139784709,93.6816578884609 94.91082180989906,95.35933439026121 94.1377820847556,97.59623409050982 94.00894213002175,99.9729371384019 96.71458116872236,106.8234175372636 97.74530080193654,108.92049843980931 101.0951396105811,114.23309304157738 102.51237910659984,117.72821297461633 104.31613846495748,119.96508636011276 105.34685809910297,121.78254404850304 105.99105786997825,123.59999999997672" stroke="#4dd2ff" stroke-linecap="round" stroke-linejoin="round" stroke-width="0.5"><title>2023-09-23 1.0km</title><desc>9901004991</desc></polyline><polyline fill="none" points="167.65881532477215,80.40000000002328 166.79868886014447,82.00001835264266 165.93856239551678,84.80004707211629 163.97255904739723,88.93341489916202 162.00655569927767,91.7334329127334 160.2863027700223,96.40011999430135 160.1634275605902,98.93345938052516 160.4091779794544,100.40012793440837 162.86668216390535,106.26679028652143 163.23530779173598,108.00011871301103 163.72680862853304,108.93344871792942 165.44706155825406,111.06677263998426 166.79868886014447,113.73342401278205 167.90456574317068,116.53340373479296 169.7476938823238,119.20004706969485 171.8365724394098,123.59999999997672" stroke="#4dd2ff" stroke-linecap="round" stroke-linejoin="round" stroke-width="0.5"><title>2023-09-22 1.0km</title><desc>9895405405</desc></polyline><polyline fill="none" points="36.29004349373281,128.39999999990687 35.93772911000997,129.6743516966235 35.23310034349561,130.4389622649178 33.706404680386186,133.24253146233968 33.11921404115856,135.28148803010117 31.35764212254435,139.74169715924654 29.478632076643407,143.56472441973165 28.30425079772249,146.36827238474507 27.951936413999647,147.77004466636572 27.951936413999647,148.6620809827 28.30425079772249,149.93641778093297 29.00887956470251,151.21075364237186 30.535575227811933,155.16118885797914 32.06227088999003,157.9647180646425 32.88433778518811,160.00364554859698 34.41103344783187,162.55230153060984 35.35053847078234,163.6991954999976 36.05516723776236,165.7381162380334 37.934177284128964,169.05135732179042 40.04806358600035,171.59999999997672" stroke="#4dd2ff" stroke-linecap="round" stroke-linejoin="round" stroke-width="0.5"><title>2023-09-21 1.0km</title><desc>9889267953</desc></polyline><polyline fill="none" points="104.39829714922234,128.39999999990687 102.85662598302588,133.02512360329274 101.94976059207693,136.66616710962262 100.49877596460283,139.71676350175403 98.77573172096163,144.8338773183059 95.78307592822239,150.4429988322081 94.9668970759958,153.49356382119004 95.05758361471817,154.18240011448506 95.60170284938067,155.6584766920423 96.78062785929069,158.2170055700699 97.50612017232925,160.38191080046818 99.31985095562413,162.94043064885773 100.40808942588046,165.00692387938034 101.04289519973099,166.482988519012 101.76838751323521,167.76224322326016 102.94731252267957,168.647880379227 104.39829714922234,170.81276873778552 104.48898368841037,171.20638442679774 105.03310292353854,171.59999999997672" stroke="#4dd2ff" stroke-linecap="round" stroke-linejoin="round" stroke-width="0.5"><title>2023-09-20 1.0km</title><desc>9882714971</desc></polyline><polyline fill="none" points="169.58200726425275,128.40000000002328 168.66091968212277,130.73216522845905 166.92108758212999,135.8407050492242 166.81874451739714,137.50652951572556 166.20468612900004,138.39496847998817 165.48828467633575,140.06079012912232 165.07891241740435,141.61555534426589 164.26016790000722,143.72559129016008 161.90627741161734,147.5014377310872 161.29221902322024,149.72251946339384 161.0875328942202,151.72149022994563 161.29221902322024,153.72045835061 161.90627741161734,155.9415309377946 162.62267886428162,157.49627980554942 164.87422628793865,161.38314497319516 166.0,162.93788823939394 167.02343064639717,165.71421152062248 168.04686129372567,167.49105574237183 169.0702919405885,168.93474013358355 170.1960656521842,170.04526564944535 170.91246710531414,171.59999999997672" stroke="#4dd2ff" stroke-linecap="round" stroke-linejoin="round" stroke-width="0.5"><title>2023-09-19 1.0km</title><desc>9876194288</desc></polyline><polyline fill="none" points="33.68201589258388,176.40000000002328 32.918854034971446,177.64218640653417 31.646917605772614,180.12655675399583 31.2653366769664,181.7828018249711 28.975851103663445,185.78538804734126 27.195140102878213,189.51192616845947 26.813559173606336,190.89212359522935 26.940752817317843,192.41033959202468 27.703914674930274,194.34261272195727 28.84865746088326,196.41290315357037 29.866206604987383,199.31130592199042 31.2653366769664,202.34772307006642 32.79166039219126,205.1080980335828 34.19079046463594,206.90233958337922 35.844307822640985,209.66270784963854 36.861856965813786,212.83712633769028 38.64256796753034,215.59748587734066 39.532923467922956,218.0818059926387 41.186440826393664,219.59999999997672" stroke="#4dd2ff" stroke-linecap="round" stroke-linejoin="round" stroke-width="0.5"><title>2023-09-18 1.0km</title><desc>9870505463</desc></polyline><polyline fill="none" points="100.43408256303519,176.39999999990687 99.81396461604163,177.61122884624638 98.94579949043691,181.64865254447795 97.82958718622103,183.53278055600822 97.33349282853305,185.01316548977047 94.60497386241332,189.4543131077662 93.61278514796868,191.87675272126216 92.99266720050946,194.03002968570217 93.48876155819744,195.51040612952784 96.21728052385151,201.43189993163105 97.58154000714421,203.5851656558225 98.57372872205451,205.87300771195441 100.18603538395837,208.02626821165904 101.05420051002875,209.50663333560806 102.17041281377897,213.00567341549322 107.00733279949054,219.59999999997672" stroke="#4dd2ff" stroke-linecap="round" stroke-linejoin="round" stroke-width="0.5"><title>2023-09-16 1.0km</title><desc>9856514700</desc></polyline><polyline fill="none" points="165.40282573644072,176.39999999990687 164.0757718179375,180.43204031838104 162.3506017238833,183.16806294966955 158.76755614345893,190.0801030973671 158.63485075114295,191.66410886240192 158.76755614345893,193.5361140234163 159.56378849456087,195.4081173952436 160.89084241352975,197.42411902546883 162.085190939717,200.16011791862547 164.20847720978782,203.7601106390357 166.8625850477256,208.80008933134377 167.12799583096057,210.6720781137701 168.05693357391283,211.39207332290243 169.11857670918107,212.83206294709817 170.8437468027696,215.71203901956324 172.70162228867412,217.29602405428886 173.09973846469074,218.30401386402082 173.3651492483914,219.59999999997672" stroke="#4dd2ff" stroke-linecap="round" stroke-linejoin="round" stroke-width="0.5"><title>2023-09-15 1.0km</title><desc>9850671982</desc></polyline><polyline fill="none" points="35.09825014648959,224.40000000002328 32.90174985397607,230.20970878144726 30.43068702472374,233.78490590455476 29.33243687869981,235.72146837890614 27.685061659663916,239.89251972874627 27.273217854555696,241.38217884406913 27.273217854555696,242.57390534703154 27.685061659663916,244.06356249086093 29.33243687869981,248.53252735047136 30.842530829831958,251.51183178054634 34.549125073477626,257.917321469984 36.059219024609774,260.7476476726588 36.333781560417265,262.3862557723187 37.432031706906855,263.42900569096673 39.21668819477782,266.25932419404853 40.726782145444304,267.5999999999767" stroke="#4dd2ff" stroke-linecap="round" stroke-linejoin="round" stroke-width="0.5"><title>2023-09-14 1.0km</title><desc>9844236351</desc></polyline><polyline fill="none" points="93.13419220456854,224.39999999990687 93.92450101533905,225.04318556562066 94.22086681937799,225.6863708475139 94.41844402207062,227.07993798470125 95.0111756301485,228.2591091375798 95.40633003599942,231.58222270931583 95.40633003599942,233.19017816975247 95.20875283284113,234.04775369015988 95.40633003599942,235.11972238158341 95.90027304273099,236.4060837707948 95.70269584003836,237.4780507280957 95.80148444138467,238.01403391116764 96.78937045484781,239.8363752599107 97.6784678674303,242.51628487021662 98.46877667820081,244.0170321004698 99.45666269212961,245.41058171656914 100.54333730693907,246.3753460550215 100.83970311097801,247.01852192613296 101.13606891501695,248.41206867364235 101.92637772625312,249.80561408912763 102.81547513836995,252.37830981845036 104.00093835452572,254.62941485794727 104.59366996306926,256.558930697036 104.8900357671082,258.1668586120941 105.48276737565175,259.4531996678561 106.5694419904612,262.99063171900343 108.05127101112157,265.77769335138146 108.15005961293355,266.20647159114014 108.05127101112157,266.5280551883625 106.86580779450014,267.5999999999767 107.45853940304369,267.17122216976713 107.75490520708263,266.5280551883625 107.9524824093096,265.9920824870933 107.8536938088946,265.24172037420794 107.26096220035106,264.491357875173 105.48276737565175,260.6323446382303 104.59366996306926,257.7380780080566 102.71668653702363,253.5574605105212 101.82758912490681,249.4840268038679 101.33364611817524,248.30487281735986 99.45666269212961,245.83936594589613 97.57967926561832,242.3018922826741 96.6905818535015,239.40758926514536 96.39421604992822,237.4780507280957 95.60390723822638,235.44131283543538 94.02328961668536,232.01101100549567 93.62813521083444,230.40305424446706 92.24509479198605,227.8303197377827 91.9487289879471,226.43675331783015 91.84994038660079,224.72159281827044" stroke="#4dd2ff" stroke-linecap="round" stroke-linejoin="round" stroke-width="0.5"><title>2023-09-13 1.0km</title><desc>9837636972</desc></polyline></svg>