<svg xmlns="http://www.w3.org/2000/svg" xmlns:ev="http://www.w3.org/2001/xml-events" xmlns:xlink="http://www.w3.org/1999/xlink" width="200mm" height="300mm" baseProfile="full" version="1.1" viewBox="0 0 200 300"><rect width="200" height="300" x="0" y="0" fill="#222"/><text fill="#FFF" style="font-size:12px;font-family:Arial;font-weight:700" x="10" y="20">Over 1km Runs</text><text fill="#FFF" style="font-size:4px;font-family:Arial" x="10" y="280">ATHLETE</text><text fill="#FFF" style="font-size:9px;font-family:Arial" x="10" y="290">Jiakai</text><text fill="#FFF" style="font-size:4px;font-family:Arial" x="120" y="280">STATISTICS</text><text fill="#FFF" style="font-size:3px;font-family:Arial" x="120" y="285">Number: 73</text><text fill="#FFF" style="font-size:3px;font-family:Arial" x="120" y="290">Weekly: 6.1</text><text fill="#FFF" style="font-size:3px;font-family:Arial" x="141" y="285">Total: 75.4 km</text><text fill="#FFF" style="font-size:3px;font-family:Arial" x="141" y="290">Avg: 1.0 km</text><text fill="#FFF" style="font-size:3px;font-family:Arial" x="167" y="285">Min: 1.0 km</text><text fill="#FFF" style="font-size:3px;font-family:Arial" x="167" y="290">Max: 1.5 km</text><polyline fill="none" stroke="#4dd2ff" stroke-linecap="round" stroke-linejoin="round" stroke-width=".5" points="17.733 32.994 19.168 38.446 21.465 43.587 23.044 49.038 24.193 51.219 25.054 51.375 25.054 50.752 24.049 49.038 22.757 45.3 21.322 43.119 20.317 40.471 18.594 34.24 17.446 31.125"><title>2023-12-02 1.0km</title><desc>10313350310</desc></polyline><polyline fill="none" stroke="#4dd2ff" stroke-linecap="round" stroke-linejoin="round" stroke-width=".5" points="40.074 32.199 41.488 34.04 43.184 39.869 44.316 44.625 46.153 49.841 47.284 51.375 47.426 50.455 47.143 48.614 45.588 45.239 43.184 41.403 41.771 38.489 40.357 31.125"><title>2023-12-01 1.0km</title><desc>10308709030</desc></polyline><polyline fill="none" stroke="#4dd2ff" stroke-linecap="round" stroke-linejoin="round" stroke-width=".5" points="62.518 31.125 65.317 40.744 68.116 46.481 69.671 50.7 70.138 51.375 70.293 50.869 69.671 49.181 67.339 45.975 66.717 44.288 64.384 39.731 63.295 34.5 62.207 31.463"><title>2023-11-30 1.0km</title><desc>10303537703</desc></polyline><polyline fill="none" stroke="#4dd2ff" stroke-linecap="round" stroke-linejoin="round" stroke-width=".5" points="86.433 35.454 87.334 38.387 87.72 40.761 89.136 43.554 90.681 47.744 92.225 51.096 92.482 51.375 92.74 51.096 92.482 50.118 91.453 48.303 90.037 44.392 87.978 40.203 87.206 35.734 85.661 33.359 84.76 31.125"><title>2023-11-29 1.0km</title><desc>10298007687</desc></polyline><polyline fill="none" stroke="#4dd2ff" stroke-linecap="round" stroke-linejoin="round" stroke-width=".5" points="107.759 33.747 109.236 37.535 109.505 40.303 111.384 44.819 112.458 48.898 113.398 50.792 114.338 51.375 114.741 51.375 115.009 50.938 114.875 50.355 114.338 49.335 112.19 43.654 110.042 38.701 109.639 36.37 108.699 33.602 107.491 31.125"><title>2023-11-28 1.0km</title><desc>10292316108</desc></polyline><polyline fill="none" stroke="#4dd2ff" stroke-linecap="round" stroke-linejoin="round" stroke-width=".5" points="133.275 31.125 134.463 34.35 135.176 37.445 136.127 38.864 137.197 40.928 138.267 44.281 139.218 45.829 139.218 46.603 138.624 47.119 136.722 48.15 135.533 49.182 134.344 49.827 132.561 50.601 129.709 51.375 129.233 51.246 128.876 50.859 128.282 48.408"><title>2023-11-27 1.0km</title><desc>10287544518</desc></polyline><polyline fill="none" stroke="#4dd2ff" stroke-linecap="round" stroke-linejoin="round" stroke-width=".5" points="154.292 35.515 154.945 37.073 156.511 45.003 158.208 49.109 159.121 50.667 159.774 51.375 159.904 51.233 159.513 50.525 159.513 49.392 158.469 46.985 157.294 43.02 156.119 40.613 155.336 36.081 153.118 32.541 152.596 31.125"><title>2023-11-26 1.0km</title><desc>10281488289</desc></polyline><polyline fill="none" stroke="#4dd2ff" stroke-linecap="round" stroke-linejoin="round" stroke-width=".5" points="175.063 31.125 176.568 35.044 177.922 40.597 179.277 43.7 179.578 45.659 180.33 47.456 181.986 50.558 182.738 51.375 183.039 51.375 180.782 46.476 180.481 44.843 178.976 42.72 175.966 34.554 174.461 31.778"><title>2023-11-25 1.0km</title><desc>10275889695</desc></polyline><polyline fill="none" stroke="#4dd2ff" stroke-linecap="round" stroke-linejoin="round" stroke-width=".5" points="17.326 55.481 18.372 60.212 23.256 73.46 24.477 75.352 25 75.542 25.174 74.974 23.43 72.703 21.337 66.458 19.942 63.619 19.07 58.13 18.023 55.292"><title>2023-11-24 1.0km</title><desc>10271180196</desc></polyline><polyline fill="none" stroke="#4dd2ff" stroke-linecap="round" stroke-linejoin="round" stroke-width=".5" points="41.232 57.542 41.676 58.827 42.713 64.292 45.231 72.006 46.416 75.22 46.86 75.542 47.453 75.542 47.601 75.22 47.305 73.613 45.675 68.952 41.38 59.631 39.899 55.292"><title>2023-11-23 1.0km</title><desc>10265414399</desc></polyline><polyline fill="none" stroke="#4dd2ff" stroke-linecap="round" stroke-linejoin="round" stroke-width=".5" points="64.476 59.855 64.607 61.852 65.133 64.989 67.236 70.978 67.893 73.83 68.944 75.542 69.733 75.542 69.601 74.686 68.156 70.978 66.973 69.124 65.264 63.848 63.293 58.429 62.767 55.292"><title>2023-11-21 1.0km</title><desc>10253878272</desc></polyline><polyline fill="none" stroke="#4dd2ff" stroke-linecap="round" stroke-linejoin="round" stroke-width=".5" points="86.571 60.761 87.252 65.195 90.112 72.438 91.338 75.098 91.747 75.542 92.019 75.394 92.155 75.098 91.611 72.733 89.159 67.412 88.205 64.604 86.707 58.839 85.889 57.361 85.345 55.292"><title>2023-11-20 1.0km</title><desc>10248671423</desc></polyline><polyline fill="none" stroke="#4dd2ff" stroke-linecap="round" stroke-linejoin="round" stroke-width=".5" points="107.645 56.979 109.624 61.275 110.19 65.724 111.745 69.252 113.3 73.701 114.007 74.775 114.855 75.542 114.714 74.314 112.31 68.025 110.755 62.349 109.2 58.667 108.352 55.292"><title>2023-11-19 1.0km</title><desc>10242265034</desc></polyline><polyline fill="none" stroke="#4dd2ff" stroke-linecap="round" stroke-linejoin="round" stroke-width=".5" points="129.814 73.334 130.699 70.551 131.053 69.879 131.672 69.495 134.679 69.112 136.89 68.632 137.597 68.056 138.039 67.48 138.57 65.081 138.393 64.313 138.747 63.737 138.482 59.322 138.305 58.747 138.216 57.019 138.039 55.963 137.067 55.676 136.271 56.251 136.447 55.963 136.624 56.251 135.475 55.676 135.386 55.292 135.121 55.484 135.298 55.388 134.679 56.155 134.767 56.059 136.624 57.019 136.182 57.403 135.475 57.691 133.794 57.979 133.706 57.595 134.148 57.403 134.767 57.499 136.624 55.676 139.189 55.772 138.924 55.58 138.57 55.484 138.305 60.09 138.393 61.434 138.659 63.065 138.835 65.849 138.835 66.808 138.57 67.768 138.039 68.344 133.617 68.824 131.583 69.208 130.522 69.975 129.284 71.703 128.576 74.198 128.311 75.542"><title>2023-11-18 1.0km</title><desc>10236386505</desc></polyline><polyline fill="none" stroke="#4dd2ff" stroke-linecap="round" stroke-linejoin="round" stroke-width=".5" points="152.118 55.292 155.05 60.354 156.117 64.115 156.517 66.285 157.316 67.586 159.849 74.963 160.382 75.542 160.382 74.963 159.849 74.24 158.383 69.901 157.583 68.454 157.316 65.995 156.117 62.958 154.784 60.065 154.65 58.474"><title>2023-11-17 1.0km</title><desc>10231268371</desc></polyline><polyline fill="none" stroke="#4dd2ff" stroke-linecap="round" stroke-linejoin="round" stroke-width=".5" points="175.138 55.945 177.095 58.721 177.546 62.477 178.9 65.417 181.007 73.255 182.362 75.542 182.211 74.235 181.158 72.112 180.405 69.989 179.201 64.927 176.794 59.864 176.041 57.578 175.59 55.292"><title>2023-11-16 1.0km</title><desc>10225818993</desc></polyline><polyline fill="none" stroke="#4dd2ff" stroke-linecap="round" stroke-linejoin="round" stroke-width=".5" points="17.738 79.676 18.742 83.595 20.347 87.95 22.554 92.087 23.357 95.354 24.762 98.184 26.166 99.708 22.554 92.958 20.949 87.95 16.334 79.458"><title>2023-11-15 1.0km</title><desc>10219684298</desc></polyline><polyline fill="none" stroke="#4dd2ff" stroke-linecap="round" stroke-linejoin="round" stroke-width=".5" points="40.172 81.894 41.996 84.178 42.277 87.071 44.381 92.096 45.644 96.359 46.907 99.556 47.468 99.708 47.328 97.881 45.504 95.445 44.802 93.314 43.68 91.943 43.259 90.269 41.154 86.005 40.453 82.96 40.032 79.458"><title>2023-11-14 1.0km</title><desc>10213806154</desc></polyline><polyline fill="none" stroke="#4dd2ff" stroke-linecap="round" stroke-linejoin="round" stroke-width=".5" points="63.545 82.246 64.627 86.355 67.602 93.986 68.278 96.48 69.631 99.268 70.036 99.708 69.225 98.241 67.332 93.692 67.197 92.518 65.844 89.29 63.816 85.621 63.004 83.127 62.464 79.458"><title>2023-11-13 1.0km</title><desc>10208522228</desc></polyline><polyline fill="none" stroke="#4dd2ff" stroke-linecap="round" stroke-linejoin="round" stroke-width=".5" points="86.488 81.759 87.902 86.055 89.598 89.583 90.588 93.725 91.578 96.64 92.85 99.402 93.415 99.708 93.698 99.095 92.143 96.027 91.295 92.652 88.184 89.737 86.488 87.282 86.205 84.674 83.802 79.458"><title>2023-11-12 1.0km</title><desc>10202270880</desc></polyline><polyline fill="none" stroke="#4dd2ff" stroke-linecap="round" stroke-linejoin="round" stroke-width=".5" points="108.186 83.236 111.529 90.792 112.643 94.57 113.757 97.593 114.453 98.953 115.15 99.708 115.289 99.104 114.035 95.326 111.668 91.699 109.161 85.956 108.186 81.876 107.211 79.458"><title>2023-11-11 1.0km</title><desc>10196068378</desc></polyline><polyline fill="none" stroke="#4dd2ff" stroke-linecap="round" stroke-linejoin="round" stroke-width=".5" points="131.867 82.478 134.159 89.406 136.287 95.09 137.27 98.82 137.924 99.708 138.252 99.353 137.761 97.222 135.305 91.715 132.85 86.564 129.576 81.412 129.248 79.458"><title>2023-11-10 1.0km</title><desc>10191120477</desc></polyline><polyline fill="none" stroke="#4dd2ff" stroke-linecap="round" stroke-linejoin="round" stroke-width=".5" points="151.549 80.077 153.971 81.932 155.395 84.405 155.823 85.332 155.823 86.724 157.39 91.516 157.959 94.298 159.099 97.39 159.384 98.935 160.096 99.708 160.524 99.554 160.951 98.935 159.384 97.853 156.82 94.143 153.828 85.951 153.116 81.313 152.404 79.458"><title>2023-11-09 1.0km</title><desc>10185506531</desc></polyline><polyline fill="none" stroke="#4dd2ff" stroke-linecap="round" stroke-linejoin="round" stroke-width=".5" points="174.8 81.084 176.298 84.04 176.843 85.519 178.614 89.362 179.295 92.022 179.159 90.396 179.431 91.431 179.976 95.422 181.202 99.117 181.747 99.708 182.428 99.413 182.7 98.969 181.202 97.639 180.112 95.865 179.431 93.944 178.478 90.692 177.115 88.77 175.617 85.519 175.208 83.154 175.345 80.197 175.072 79.458"><title>2023-11-08 1.0km</title><desc>10179505859</desc></polyline><polyline fill="none" stroke="#4dd2ff" stroke-linecap="round" stroke-linejoin="round" stroke-width=".5" points="20.336 114.812 24.904 123.875 25.165 123.733 24.513 122.176 23.338 120.193 22.555 118.211 20.989 116.511 20.467 115.52 20.075 112.122 19.814 111.13 18.248 108.44 17.335 103.625"><title>2023-11-06 1.0km</title><desc>10167691585</desc></polyline><polyline fill="none" stroke="#4dd2ff" stroke-linecap="round" stroke-linejoin="round" stroke-width=".5" points="41.803 109.307 42.743 111.055 46.234 119.067 47.711 123.584 47.979 123.875 48.248 123.875 48.248 123.438 47.174 121.107 46.234 119.796 46.1 119.067 45.294 118.193 43.012 114.26 40.326 107.413 39.252 103.625"><title>2023-11-05 1.1km</title><desc>10161301187</desc></polyline><polyline fill="none" stroke="#4dd2ff" stroke-linecap="round" stroke-linejoin="round" stroke-width=".5" points="62.464 103.625 65.168 109.641 66.385 114.924 68.278 118.592 68.955 121.527 69.631 123.875 70.036 123.435 69.901 122.995 68.143 119.766 68.008 119.326 66.385 116.832 65.709 114.484 63.951 111.255 63.545 108.467 62.734 105.533"><title>2023-11-04 1.0km</title><desc>10155501797</desc></polyline><polyline fill="none" stroke="#4dd2ff" stroke-linecap="round" stroke-linejoin="round" stroke-width=".5" points="94.183 106.701 92.648 104.65 91.703 104.009 89.813 103.625 88.041 103.753 85.561 104.907 84.498 105.932 83.553 107.854 83.317 109.392 82.963 114.519 83.199 119.902 83.435 120.671 84.616 122.593 86.034 123.619 88.396 123.875 90.522 122.978 92.529 120.543 93.12 119.389 93.947 115.672 93.947 112.725 94.537 108.88 94.419 107.47 93.12 105.932 92.057 105.163 89.577 104.009 88.278 104.009 85.443 104.907 84.144 106.06 83.317 107.598 83.081 108.623 83.317 112.853 83.081 114.775"><title>2023-11-03 1.0km</title><desc>10152446508</desc></polyline><polyline fill="none" stroke="#4dd2ff" stroke-linecap="round" stroke-linejoin="round" stroke-width=".5" points="107.059 103.625 108.166 106.028 109.115 110.318 110.696 113.407 113.069 119.585 113.543 120.614 114.334 123.36 114.808 123.875 115.441 123.875 115.441 123.532 114.334 123.017 113.86 121.816 112.752 120.786 111.962 118.555 110.855 116.839 109.589 114.265 108.166 108.945 107.217 106.714"><title>2023-11-02 1.1km</title><desc>10144903556</desc></polyline><polyline fill="none" stroke="#4dd2ff" stroke-linecap="round" stroke-linejoin="round" stroke-width=".5" points="130.302 105.092 130.572 106.707 131.654 109.201 133.547 115.951 136.793 122.701 137.739 123.875 137.198 122.114 135.17 119.033 134.088 115.071 132.736 113.163 131.113 109.641 129.761 103.625"><title>2023-11-01 1.0km</title><desc>10138966680</desc></polyline><polyline fill="none" stroke="#4dd2ff" stroke-linecap="round" stroke-linejoin="round" stroke-width=".5" points="153.303 103.93 154.005 106.213 155.127 112.304 156.952 116.262 158.074 119.916 159.898 123.875 160.039 123.723 158.776 121.896 156.952 117.633 155.408 114.892 152.742 106.822 152.461 103.625"><title>2023-10-31 1.0km</title><desc>10133123337</desc></polyline><polyline fill="none" stroke="#4dd2ff" stroke-linecap="round" stroke-linejoin="round" stroke-width=".5" points="175.571 106.025 176.262 109.625 176.262 110.975 177.782 113.525 181.929 122.375 182.621 123.725 182.897 123.875 179.718 117.575 178.335 113.675 176.815 110.525 174.603 103.625"><title>2023-10-30 1.0km</title><desc>10127985445</desc></polyline><polyline fill="none" stroke="#4dd2ff" stroke-linecap="round" stroke-linejoin="round" stroke-width=".5" points="18.058 130.723 18.672 134.853 19.04 136.185 21.496 141.913 22.723 145.244 24.565 147.775 25.056 148.042 25.179 147.642 24.074 145.91 22.478 142.446 19.654 137.251 18.549 133.387 17.689 131.655 17.567 128.991 17.321 127.792"><title>2023-10-28 1.0km</title><desc>10115543824</desc></polyline><polyline fill="none" stroke="#4dd2ff" stroke-linecap="round" stroke-linejoin="round" stroke-width=".5" points="41.124 131.992 42.229 135.592 43.474 138.442 44.579 142.492 46.238 146.392 46.929 147.892 47.621 148.042 47.759 147.892 47.482 146.992 46.653 144.742 43.888 139.342 41.676 133.342 40.294 130.342 39.741 127.792"><title>2023-10-27 1.0km</title><desc>10110442644</desc></polyline><polyline fill="none" stroke="#4dd2ff" stroke-linecap="round" stroke-linejoin="round" stroke-width=".5" points="63.506 130.919 66.113 139.703 67.073 142.384 68.034 144.021 69.132 147.148 69.543 147.744 70.367 148.042 70.504 147.595 70.367 146.999 68.994 145.213 66.936 141.639 64.466 134.343 62.819 131.663 61.996 127.792"><title>2023-10-26 1.0km</title><desc>10104873905</desc></polyline><polyline fill="none" stroke="#4dd2ff" stroke-linecap="round" stroke-linejoin="round" stroke-width=".5" points="87.736 137.476 90.846 145.254 92.334 147.895 92.875 148.042 92.739 146.574 89.088 140.265 87.06 135.129 85.302 131.46 84.625 127.792"><title>2023-10-25 1.0km</title><desc>10098978222</desc></polyline><polyline fill="none" stroke="#4dd2ff" stroke-linecap="round" stroke-linejoin="round" stroke-width=".5" points="107.504 127.792 107.368 128.826 108.185 132.226 109.275 134.443 109.956 137.104 111.182 140.651 113.77 145.677 114.587 147.746 114.86 148.042 115.132 147.894 114.996 145.972 113.498 143.164 112.408 141.538 111.046 138.434 110.773 136.808 109.139 134.295 108.185 132.078 107.913 129.418 107.504 127.792"><title>2023-10-24 1.0km</title><desc>10092835699</desc></polyline><polyline fill="none" stroke="#4dd2ff" stroke-linecap="round" stroke-linejoin="round" stroke-width=".5" points="131.669 131.288 133.683 138.427 134.623 140.175 135.697 144.545 137.308 147.459 137.979 148.042 137.308 147.313 136.368 144.982 133.951 142.069 133.414 141.049 132.877 137.698 131.266 134.493 130.192 131.142 129.521 127.792"><title>2023-10-23 1.0km</title><desc>10087395010</desc></polyline><polyline fill="none" stroke="#4dd2ff" stroke-linecap="round" stroke-linejoin="round" stroke-width=".5" points="149.694 127.889 150.052 127.792 152.603 127.986 153.721 128.277 153.99 128.423 154.572 128.86 154.975 129.346 155.87 130.997 156.317 132.842 156.899 133.813 157.167 134.59 157.794 135.999 158.241 137.455 158.913 138.621 159.226 138.961 159.629 139.641 159.853 141.097 159.987 141.486 160.345 142.02 160.434 142.846 160.569 143.186 162.538 147.847 162.806 148.042 162.806 147.799 162.403 147.41 161.956 146.342 161.508 145.419 160.3 141.68"><title>2023-10-22 1.5km</title><desc>10080655811</desc></polyline><polyline fill="none" stroke="#4dd2ff" stroke-linecap="round" stroke-linejoin="round" stroke-width=".5" points="175.529 127.792 176.24 128.306 174.961 128.1 176.95 130.67 177.14 131.287 176.998 131.801 176.334 132.16 176.145 132.52 176.192 133.137 176.571 134.627 176.998 135.707 177.471 137.351 178.324 138.842 178.466 139.407 178.987 140.332 179.318 140.744 179.366 141 179.697 141.309 179.934 141.823 180.266 142.799 180.597 143.467 180.55 144.804 181.166 145.986 181.355 146.551 181.687 147.168 182.255 147.887 182.539 148.042 181.45 146.5 181.213 145.677 180.739 144.65 180.55 143.981 179.934 143.108 179.413 141.617"><title>2023-10-20 1.4km</title><desc>10069668027</desc></polyline><polyline fill="none" stroke="#4dd2ff" stroke-linecap="round" stroke-linejoin="round" stroke-width=".5" points="17.175 151.958 17.272 152.743 18.043 154.627 18.236 155.778 19.827 159.65 19.972 160.174 20.069 160.958 20.261 161.482 21.419 163.104 22.046 164.36 22.431 165.615 22.769 166.296 22.962 167.342 23.203 167.865 23.83 169.487 23.926 170.115 24.843 171.999 25.084 172.208 25.228 172.208 25.325 172.156 25.277 172.104 24.312 170.9 23.878 169.435 22.962 167.761 22.817 167.08 22.721 165.929"><title>2023-10-19 1.3km</title><desc>10064004415</desc></polyline><polyline fill="none" stroke="#4dd2ff" stroke-linecap="round" stroke-linejoin="round" stroke-width=".5" points="39.184 151.958 41.169 154.543 41.037 156.41 41.301 158.278 42.228 161.581 43.551 163.735 44.875 167.469 47.522 171.777 47.919 172.208 48.316 172.065 46.596 170.341 43.419 164.166 42.625 161.437 40.375 156.698"><title>2023-10-18 1.0km</title><desc>10058081424</desc></polyline><polyline fill="none" stroke="#4dd2ff" stroke-linecap="round" stroke-linejoin="round" stroke-width=".5" points="62.716 153.186 63.847 159.782 66.816 167.606 68.795 171.748 69.643 172.208 70.067 172.208 70.35 171.595 69.36 170.367 68.088 168.373 66.391 164.691 65.684 162.544 62.716 156.561 62.433 155.64 62.15 151.958"><title>2023-10-17 1.0km</title><desc>10051702317</desc></polyline><polyline fill="none" stroke="#4dd2ff" stroke-linecap="round" stroke-linejoin="round" stroke-width=".5" points="84.228 152.426 85.664 154.918 87.817 160.526 88.965 162.706 90.257 166.756 91.836 170.806 92.411 171.897 93.128 172.208 93.272 172.053 93.128 171.585 91.549 169.249 89.396 163.953 87.817 160.681 86.525 154.606 85.807 151.958"><title>2023-10-16 1.0km</title><desc>10046279660</desc></polyline><polyline fill="none" stroke="#4dd2ff" stroke-linecap="round" stroke-linejoin="round" stroke-width=".5" points="107.103 151.958 107.695 153.244 108.288 156.137 109.621 160.637 111.398 163.369 113.472 171.083 114.212 171.887 115.249 172.208 115.397 171.887 115.249 170.923 113.324 168.19 112.287 164.976 111.102 163.048 108.288 156.458 107.251 151.958"><title>2023-10-15 1.0km</title><desc>10039610121</desc></polyline><polyline fill="none" stroke="#4dd2ff" stroke-linecap="round" stroke-linejoin="round" stroke-width=".5" points="129.536 153.428 129.988 158.164 131.192 161.593 132.697 163.716 133.6 166.656 136.158 171.228 136.76 171.882 137.512 172.208 137.964 171.882 137.964 171.392 134.954 168.942 132.998 165.349 132.245 162.247 130.439 158.164 129.536 154.735 129.687 152.612 129.536 151.958"><title>2023-10-14 1.0km</title><desc>10033377496</desc></polyline><polyline fill="none" stroke="#4dd2ff" stroke-linecap="round" stroke-linejoin="round" stroke-width=".5" points="151.659 152.28 154.325 155.494 154.621 157.905 157.139 165.619 159.508 171.244 160.249 172.208 160.841 172.208 160.841 171.726 160.693 171.244 159.36 170.28 157.879 167.548 156.25 162.405 153.288 155.815 152.843 153.565 152.103 151.958"><title>2023-10-13 1.0km</title><desc>10028006924</desc></polyline><polyline fill="none" stroke="#4dd2ff" stroke-linecap="round" stroke-linejoin="round" stroke-width=".5" points="174.405 151.958 175.83 153.813 176.684 155.359 176.827 157.369 176.684 159.533 178.251 162.779 180.103 167.726 181.955 171.126 182.383 171.745 183.095 172.208 183.095 171.435 181.528 169.426 180.103 166.953 178.251 161.851 177.112 159.842 176.542 158.142"><title>2023-10-12 1.0km</title><desc>10021974100</desc></polyline><polyline fill="none" stroke="#4dd2ff" stroke-linecap="round" stroke-linejoin="round" stroke-width=".5" points="18.882 178.996 19.44 182.019 19.3 183.228 20.554 187.308 21.529 189.121 22.503 192.446 23.896 195.771 24.175 196.073 24.871 196.375 24.732 195.771 23.2 191.841 21.529 188.97 19.3 183.832 18.743 181.868 18.465 178.996 17.629 176.125"><title>2023-10-10 1.0km</title><desc>10009069592</desc></polyline><polyline fill="none" stroke="#4dd2ff" stroke-linecap="round" stroke-linejoin="round" stroke-width=".5" points="40.319 178.656 41.28 181.336 42.241 184.91 44.299 189.377 45.946 195.035 46.906 196.375 47.181 195.928 47.318 194.29 46.357 191.461 44.299 187.888 41.966 181.336 41.28 178.358 40.182 176.125"><title>2023-10-09 1.0km</title><desc>10003389142</desc></polyline><polyline fill="none" stroke="#4dd2ff" stroke-linecap="round" stroke-linejoin="round" stroke-width=".5" points="62.127 176.125 63.14 177.381 64.152 179.735 64.731 184.445 66.901 189.154 68.782 194.491 69.65 196.061 70.373 196.375 70.373 195.119 67.624 190.724 64.008 181.933 62.561 176.282"><title>2023-10-08 1.0km</title><desc>9996447828</desc></polyline><polyline fill="none" stroke="#4dd2ff" stroke-linecap="round" stroke-linejoin="round" stroke-width=".5" points="86.151 180.175 86.817 182.634 88.817 187.986 89.483 190.3 91.616 195.652 92.282 196.375 92.416 195.796 92.416 195.218 89.883 190.734 88.683 188.13 86.551 181.766 85.884 178.439 85.084 176.125"><title>2023-10-07 1.0km</title><desc>9989974159</desc></polyline><polyline fill="none" stroke="#4dd2ff" stroke-linecap="round" stroke-linejoin="round" stroke-width=".5" points="109.596 182.157 110.654 185.604 111.449 187.327 113.037 194.077 113.434 195.37 114.228 196.375 114.89 196.375 115.154 195.801 115.022 195.37 113.434 193.072 111.846 189.625 111.316 187.327 108.537 180.577 108.14 178.136 107.346 176.125"><title>2023-10-06 1.0km</title><desc>9984428862</desc></polyline><polyline fill="none" stroke="#4dd2ff" stroke-linecap="round" stroke-linejoin="round" stroke-width=".5" points="129.39 176.125 131.685 182.266 133.215 187.412 135.815 193.885 136.886 196.043 137.345 196.375 137.957 196.375 138.11 196.043 137.651 195.213 135.815 192.557 134.744 190.4 132.909 185.586 132.144 183.096 130.002 179.113 130.002 177.619"><title>2023-10-04 1.0km</title><desc>9971682885</desc></polyline><polyline fill="none" stroke="#4dd2ff" stroke-linecap="round" stroke-linejoin="round" stroke-width=".5" points="153.185 178.49 153.866 180.855 154.547 182.481 155.092 184.994 157.68 190.167 157.817 191.941 158.634 195.488 158.906 195.932 159.724 196.375 159.724 194.897 157.953 191.645 156.727 188.837 156.046 187.506 155.365 185.585 154.002 182.776 153.458 180.559 153.185 178.342 152.776 176.125"><title>2023-10-03 1.0km</title><desc>9965060084</desc></polyline><polyline fill="none" stroke="#4dd2ff" stroke-linecap="round" stroke-linejoin="round" stroke-width=".5" points="175.048 176.962 176.899 182.987 177.208 185.664 178.287 187.003 179.058 189.011 180.447 194.199 181.526 195.873 182.297 196.375 182.452 196.208 181.989 194.869 180.292 191.689 177.516 184.995 175.82 179.974 175.511 176.125"><title>2023-10-02 1.0km</title><desc>9958643020</desc></polyline><polyline fill="none" stroke="#4dd2ff" stroke-linecap="round" stroke-linejoin="round" stroke-width=".5" points="18.04 203.856 18.339 205.314 21.623 213.09 23.265 218.112 24.161 219.894 25.057 220.542 25.206 220.38 25.057 219.732 22.071 215.196 19.235 208.23 17.891 204.018 17.294 200.292"><title>2023-10-01 1.0km</title><desc>9952075403</desc></polyline><polyline fill="none" stroke="#4dd2ff" stroke-linecap="round" stroke-linejoin="round" stroke-width=".5" points="40.843 203.226 42.06 205.721 42.601 208.216 43.006 210.563 45.035 216.286 46.793 219.955 47.604 220.542 47.875 220.101 45.17 215.993 43.953 213.205 43.547 211.737 41.654 207.629 40.572 203.08 39.625 200.292"><title>2023-09-30 1.0km</title><desc>9945549317</desc></polyline><polyline fill="none" stroke="#4dd2ff" stroke-linecap="round" stroke-linejoin="round" stroke-width=".5" points="63.115 200.292 64.458 202.56 64.906 204.342 66.101 207.258 66.698 211.632 67.146 212.928 68.937 217.302 69.385 220.056 69.684 220.38 70.132 220.542 70.281 220.218 67.594 215.358 65.802 211.146 65.205 208.716 63.115 203.856 62.219 200.94"><title>2023-09-28 1.0km</title><desc>9933629332</desc></polyline><polyline fill="none" stroke="#4dd2ff" stroke-linecap="round" stroke-linejoin="round" stroke-width=".5" points="84.791 202.593 85.922 206.581 88.043 209.496 89.457 214.712 91.436 218.241 92.002 220.235 92.567 220.542 92.85 220.081 92.567 219.468 91.436 217.934 88.184 211.337 86.488 206.735 84.65 200.292"><title>2023-09-27 1.0km</title><desc>9927137811</desc></polyline><polyline fill="none" stroke="#4dd2ff" stroke-linecap="round" stroke-linejoin="round" stroke-width=".5" points="112.932 200.292 112.528 202.239 112.125 203.358 111.811 204.721 109.972 208.567 109.029 210.173 108.85 210.855 108.94 211.39 109.164 212.169 109.837 213.824 110.061 214.262 110.33 215.041 111.228 216.161 111.631 217.037 112.08 217.718 112.439 218.692 112.977 219.422 113.65 220.542"><title>2023-09-26 1.0km</title><desc>9920397094</desc></polyline><polyline fill="none" stroke="#4dd2ff" stroke-linecap="round" stroke-linejoin="round" stroke-width=".5" points="133.655 200.292 132.773 203.233 131.89 204.807 131.071 205.833 130.629 206.654 130.44 207.475 130.503 208.501 130.818 209.322 131.575 210.485 131.89 211.648 132.521 213.153 133.718 214.658 135.736 218.763 137.06 220.542"><title>2023-09-25 1.0km</title><desc>9914573673</desc></polyline><polyline fill="none" stroke="#4dd2ff" stroke-linecap="round" stroke-linejoin="round" stroke-width=".5" points="157.743 200.292 157.245 201.048 157.146 201.426 157.245 201.912 157.295 202.398 156.3 204.234 156.051 205.476 155.703 206.394 153.612 210.066 153.563 210.498 153.762 211.362 154.309 212.226 154.608 212.982 155.056 213.738 155.304 214.494 155.951 215.52 156.449 216.546 156.996 217.14 157.146 217.68 157.494 218.112 158.241 219.408 158.788 220.002 158.937 220.542"><title>2023-09-24 1.0km</title><desc>9907510217</desc></polyline><polyline fill="none" stroke="#4dd2ff" stroke-linecap="round" stroke-linejoin="round" stroke-width=".5" points="179.505 200.292 179.082 200.947 178.78 201.602 178.599 202.454 178.539 203.568 177.512 204.945 176.908 206.517 176.364 207.304 176.002 208.352 175.942 209.466 177.21 212.678 177.693 213.661 179.263 216.151 179.928 217.789 180.773 218.838 181.256 219.69 181.558 220.542"><title>2023-09-23 1.0km</title><desc>9901004991</desc></polyline><polyline fill="none" stroke="#4dd2ff" stroke-linecap="round" stroke-linejoin="round" stroke-width=".5" points="22.028 224.458 21.624 225.208 21.221 226.521 20.3 228.458 19.378 229.771 18.572 231.958 18.514 233.146 18.629 233.833 19.781 236.583 19.954 237.396 20.184 237.833 20.991 238.833 21.624 240.083 22.143 241.396 23.007 242.646 23.986 244.708"><title>2023-09-22 1.0km</title><desc>9895405405</desc></polyline><polyline fill="none" stroke="#4dd2ff" stroke-linecap="round" stroke-linejoin="round" stroke-width=".5" points="44.823 224.458 44.658 225.056 44.328 225.414 43.612 226.728 43.337 227.684 42.511 229.775 41.631 231.567 41.08 232.881 40.915 233.538 40.915 233.956 41.08 234.554 41.41 235.151 42.126 237.003 42.842 238.317 43.227 239.273 43.943 240.467 44.383 241.005 44.713 241.961 45.594 243.514 46.585 244.708"><title>2023-09-21 1.0km</title><desc>9889267953</desc></polyline><polyline fill="none" stroke="#4dd2ff" stroke-linecap="round" stroke-linejoin="round" stroke-width=".5" points="68.312 224.458 67.589 226.626 67.164 228.333 66.484 229.763 65.676 232.162 64.273 234.791 63.891 236.221 63.933 236.544 64.188 237.236 64.741 238.435 65.081 239.45 65.931 240.649 66.441 241.618 66.739 242.31 67.079 242.909 67.632 243.325 68.312 244.339 68.354 244.524 68.609 244.708"><title>2023-09-20 1.0km</title><desc>9882714971</desc></polyline><polyline fill="none" stroke="#4dd2ff" stroke-linecap="round" stroke-linejoin="round" stroke-width=".5" points="90.429 224.458 89.997 225.552 89.182 227.946 89.134 228.727 88.846 229.143 88.51 229.924 88.318 230.653 87.934 231.642 86.831 233.412 86.543 234.453 86.447 235.39 86.543 236.327 86.831 237.368 87.167 238.097 88.222 239.919 88.75 240.648 89.23 241.949 89.709 242.782 90.189 243.459 90.717 243.98 91.053 244.708"><title>2023-09-19 1.0km</title><desc>9876194288</desc></polyline><polyline fill="none" stroke="#4dd2ff" stroke-linecap="round" stroke-linejoin="round" stroke-width=".5" points="111.101 224.458 110.743 225.041 110.147 226.205 109.968 226.982 108.895 228.858 108.06 230.605 107.881 231.252 107.941 231.963 108.299 232.869 108.835 233.839 109.312 235.198 109.968 236.621 110.684 237.915 111.339 238.756 112.115 240.05 112.591 241.538 113.426 242.832 113.844 243.997 114.619 244.708"><title>2023-09-18 1.0km</title><desc>9870505463</desc></polyline><polyline fill="none" stroke="#4dd2ff" stroke-linecap="round" stroke-linejoin="round" stroke-width=".5" points="133.953 224.458 133.663 225.026 133.256 226.919 132.733 227.802 132.5 228.496 131.221 230.578 130.756 231.713 130.465 232.722 130.698 233.416 131.977 236.192 132.616 237.201 133.081 238.274 133.837 239.283 134.244 239.977 134.767 241.617 137.035 244.708"><title>2023-09-16 1.0km</title><desc>9856514700</desc></polyline><polyline fill="none" stroke="#4dd2ff" stroke-linecap="round" stroke-linejoin="round" stroke-width=".5" points="155.97 224.458 155.348 226.348 154.539 227.631 152.86 230.871 152.798 231.613 152.86 232.491 153.233 233.368 153.855 234.313 154.415 235.596 155.41 237.283 156.654 239.646 156.779 240.523 157.214 240.861 157.712 241.536 158.521 242.886 159.391 243.628 159.578 244.101 159.702 244.708"><title>2023-09-15 1.0km</title><desc>9850671982</desc></polyline><polyline fill="none" stroke="#4dd2ff" stroke-linecap="round" stroke-linejoin="round" stroke-width=".5" points="179.265 224.458 178.235 227.182 177.077 228.858 176.562 229.765 175.79 231.72 175.597 232.419 175.597 232.977 175.79 233.676 176.562 235.77 177.27 237.167 179.007 240.17 179.715 241.496 179.844 242.264 180.359 242.753 181.195 244.08 181.903 244.708"><title>2023-09-14 1.0km</title><desc>9844236351</desc></polyline><polyline fill="none" stroke="#4dd2ff" stroke-linecap="round" stroke-linejoin="round" stroke-width=".5" points="18.032 248.625 18.402 248.926 18.541 249.228 18.634 249.881 18.911 250.434 19.097 251.992 19.097 252.745 19.004 253.147 19.097 253.65 19.328 254.253 19.236 254.755 19.282 255.007 19.745 255.861 20.162 257.117 20.532 257.82 20.995 258.474 21.505 258.926 21.644 259.227 21.783 259.881 22.153 260.534 22.57 261.74 23.125 262.795 23.403 263.699 23.542 264.453 23.82 265.056 24.329 266.714 25.024 268.021 25.07 268.222 25.024 268.373 24.468 268.875 24.746 268.674 24.885 268.373 24.978 268.121 24.931 267.77 24.654 267.418 23.82 265.609 23.403 264.252 22.523 262.293 22.107 260.383 21.875 259.83 20.995 258.675 20.115 257.017 19.699 255.66 19.56 254.755 19.189 253.801 18.448 252.193 18.263 251.439 17.615 250.233 17.476 249.58 17.43 248.776"><title>2023-09-13 1.0km</title><desc>9837636972</desc></polyline></svg>