<?xml version="1.0" encoding="utf-8" ?>
<svg baseProfile="full" height="300mm" version="1.1" viewBox="0,0,200,300" width="200mm" xmlns="http://www.w3.org/2000/svg" xmlns:ev="http://www.w3.org/2001/xml-events" xmlns:xlink="http://www.w3.org/1999/xlink"><defs /><rect fill="#222222" height="300" width="200" x="0" y="0" /><text fill="#FFFFFF" style="font-size:12px; font-family:Arial; font-weight:bold;" x="10" y="20">Over 1km Runs</text><text fill="#FFFFFF" style="font-size:4px; font-family:Arial" x="10" y="280">ATHLETE</text><text fill="#FFFFFF" style="font-size:9px; font-family:Arial" x="10" y="290">Jiakai</text><text fill="#FFFFFF" style="font-size:4px; font-family:Arial" x="120" y="280">STATISTICS</text><text fill="#FFFFFF" style="font-size:3px; font-family:Arial" x="120" y="285">Number: 58</text><text fill="#FFFFFF" style="font-size:3px; font-family:Arial" x="120" y="290">Weekly: 5.8</text><text fill="#FFFFFF" style="font-size:3px; font-family:Arial" x="141" y="285">Total: 60.3 km</text><text fill="#FFFFFF" style="font-size:3px; font-family:Arial" x="141" y="290">Avg: 1.0 km</text><text fill="#FFFFFF" style="font-size:3px; font-family:Arial" x="167" y="285">Min: 1.0 km</text><text fill="#FFFFFF" style="font-size:3px; font-family:Arial" x="167" y="290">Max: 1.5 km</text><polyline fill="none" points="18.729155228473246,32.0322613583412 20.965148527175188,35.20508396439254 21.48114698100835,39.49772000266239 23.029142341576517,42.85716922977008 25.437135125510395,51.81567876855843 26.98513048607856,54.42857142863795 26.813131001777947,52.93549023801461 25.60913461074233,50.5092314297799 24.74913718737662,48.082970302319154 23.373141310177743,42.29726133355871 20.62114955857396,36.51153917913325 19.76115213520825,33.898628077004105 19.245153681375086,31.285714285913855" stroke="#4dd2ff" stroke-linecap="round" stroke-linejoin="round" stroke-width="0.5"><title>2023-11-16 1.0km</title><desc>10225818993</desc></polyline><polyline fill="none" points="44.5581068219617,31.534563053166494 45.70477017853409,36.013837745646015 47.53943155054003,40.9908026738558 50.06209093518555,45.71891257795505 50.9794216202572,49.45162625797093 52.58475031983107,52.686641451437026 54.19007902033627,54.42857142863795 50.06209093518555,46.71430329512805 48.227429564110935,40.9908026738558 42.95277812331915,31.285714285681024" stroke="#4dd2ff" stroke-linecap="round" stroke-linejoin="round" stroke-width="0.5"><title>2023-11-15 1.0km</title><desc>10219684298</desc></polyline><polyline fill="none" points="70.19652518536896,34.069829374784604 72.2812098255381,36.67993429629132 72.60193053912371,39.98606306454167 75.00733589194715,45.72827573912218 76.45057910308242,50.600445265416056 77.89382231421769,54.25456582871266 78.53526374232024,54.42857142863795 78.37490338459611,52.34050338040106 76.29021874628961,49.55640978273004 75.48841696139425,47.1203251988627 74.20553410705179,45.55426949914545 73.72445303667337,43.64020001515746 71.31904768384993,38.76801616116427 70.51724589988589,35.28787869610824 70.03616482950747,31.285714285681024" stroke="#4dd2ff" stroke-linecap="round" stroke-linejoin="round" stroke-width="0.5"><title>2023-11-14 1.0km</title><desc>10213806154</desc></polyline><polyline fill="none" points="96.90899522416294,34.472063627443276 98.14539713505656,39.16772822930943 101.54550238698721,47.88822255900595 102.31825358048081,50.73914616648108 103.86375596839935,53.92546833504457 104.32740668486804,54.428571428521536 103.40010525193065,52.75156068557408 101.23640190903097,47.55281954759266 101.08185167051852,46.21120700775646 99.53634928259999,42.52176845539361 97.21809570211917,38.329217402264476 96.29079426918179,35.47827828431036 95.67259331420064,31.285714285681024" stroke="#4dd2ff" stroke-linecap="round" stroke-linejoin="round" stroke-width="0.5"><title>2023-11-13 1.0km</title><desc>10208522228</desc></polyline><polyline fill="none" points="123.12908153049648,33.91559572634287 124.74483414553106,38.82469998905435 126.68373728357255,42.85717093083076 127.81476411316544,47.590932466322556 128.94579094368964,50.92209235811606 130.39996829722077,54.07792375353165 131.04626934230328,54.42857142863795 131.36941986624151,53.727276026736945 129.59209198970348,50.220795925706625 128.62264042161405,46.363661859417334 125.06798466853797,43.032495599705726 123.12908153049648,40.227299350779504 122.80593100748956,37.246774720959365 120.05915156193078,31.285714285681024" stroke="#4dd2ff" stroke-linecap="round" stroke-linejoin="round" stroke-width="0.5"><title>2023-11-12 1.0km</title><desc>10202270880</desc></polyline><polyline fill="none" points="147.92697075475007,35.603428814793006 151.74689876288176,44.238834062824026 153.02020809892565,48.55652478360571 154.29351743496954,52.01067164679989 155.08933577034622,53.56503607821651 155.88515410479158,54.42857142863795 156.04431777168065,53.7377431737259 154.6118447687477,49.420061975484714 151.90606242977083,45.2750805595424 149.0411164239049,38.712178360670805 147.92697075475007,34.049052498303354 146.81282508466393,31.285714285913855" stroke="#4dd2ff" stroke-linecap="round" stroke-linejoin="round" stroke-width="0.5"><title>2023-11-11 1.0km</title><desc>10196068378</desc></polyline><polyline fill="none" points="174.99135355371982,34.7368544107303 177.6105753146112,42.65415957593359 180.04270980786532,49.150393013842404 181.16523341927677,53.4135379018262 181.91358249355108,54.42857142863795 182.28775703161955,54.02255806257017 181.7264952249825,51.58647661237046 178.92018619552255,45.293256253004074 176.11387716513127,39.40603712643497 172.37213179189712,33.51880544796586 171.99795725475997,31.285714285681024" stroke="#4dd2ff" stroke-linecap="round" stroke-linejoin="round" stroke-width="0.5"><title>2023-11-10 1.0km</title><desc>10191120477</desc></polyline><polyline fill="none" points="17.484458840452135,58.77808399661444 20.252205152064562,60.898049026494846 21.880291217938066,63.72466615634039 22.368717038072646,64.78464672272094 22.368717038072646,66.37461669603363 24.159611709415913,71.85117188398726 24.81084613595158,75.03110142680816 26.11331498902291,78.5643515388947 26.438932201825082,80.3309746470768 27.252975234761834,81.21428571431898 27.74140105396509,81.03762352676131 28.22982687316835,80.3309746470768 26.438932201825082,79.09433860797435 23.50837728381157,74.85443878476508 20.089396545663476,65.49130017426796 19.275353512726724,60.191394224064425 18.461310479789972,58.07142857136205" stroke="#4dd2ff" stroke-linecap="round" stroke-linejoin="round" stroke-width="0.5"><title>2023-11-09 1.0km</title><desc>10185506531</desc></polyline><polyline fill="none" points="44.05676111485809,59.929622788215056 45.76922118477523,63.3081538771512 46.39193393662572,64.99741755891591 48.41575038339943,69.3894973192364 49.19414132460952,72.43016300420277 49.038463136181235,70.57197889685631 49.3498195130378,71.75445986620616 49.97253226488829,76.3154521904653 51.373635958880186,80.53858515981119 51.996348711661994,81.21428571431898 52.77473965194076,80.8764354614541 53.086096027866006,80.36965998983942 51.373635958880186,78.8493329033954 50.12821045331657,76.82222855673172 49.3498195130378,74.62619682983495 48.260072194971144,70.90983066475019 46.70329031441361,68.71379328717012 44.99083024356514,64.99741755891591 44.52379567921162,62.29459507192951 44.67947386670858,58.916062492644414 44.368117490783334,58.071428571478464" stroke="#4dd2ff" stroke-linecap="round" stroke-linejoin="round" stroke-width="0.5"><title>2023-11-08 1.0km</title><desc>10179505859</desc></polyline><polyline fill="none" points="73.24168955814093,70.85667343484238 78.46181319933385,81.21428571431898 78.76010597869754,81.0524483975023 78.01437402982265,79.2722371238051 76.67205652222037,77.0065116030164 75.7771781841293,74.74078375042882 73.98742150701582,72.79872944927774 73.39083594828844,71.6658636489883 72.94339677877724,67.78174790763296 72.64510399941355,66.64887952560093 70.85534732230008,63.57394812093116 69.8113225940615,58.071428571478464" stroke="#4dd2ff" stroke-linecap="round" stroke-linejoin="round" stroke-width="0.5"><title>2023-11-06 1.0km</title><desc>10167691585</desc></polyline><polyline fill="none" points="97.77514376677573,64.5647720702691 98.84921229351312,66.56272017071024 102.83860967680812,75.71995974332094 104.52643164712936,80.8812966409605 104.83330836798996,81.21428571431898 105.14018508978188,81.21428571431898 105.14018508978188,80.71480208588764 103.91267820261419,78.05088754103053 102.83860967680812,76.55243423231877 102.6851713154465,75.71995974332094 101.76454115007073,74.72098995302804 99.15608901530504,70.22562044300139 96.08732179738581,62.40032630588394 94.85981491021812,58.071428571478464" stroke="#4dd2ff" stroke-linecap="round" stroke-linejoin="round" stroke-width="0.5"><title>2023-11-05 1.1km</title><desc>10161301187</desc></polyline><polyline fill="none" points="121.38687998428941,58.071428571478464 124.47788407746702,64.94722948572598 125.86883591953665,70.98450100491755 128.03253878466785,75.17704126995523 128.80528980772942,78.53106793412007 129.578040830791,81.21428571431898 130.0416914448142,80.71118262095843 129.88714123982936,80.20807941665407 127.877988579683,76.51865252759308 127.72343837469816,76.01554839836899 125.86883591953665,73.16462290461641 125.09608489554375,70.48139565531164 123.0869322353974,66.79195303400047 122.62328162137419,63.605611422797665 121.69598039332777,60.25156281294767" stroke="#4dd2ff" stroke-linecap="round" stroke-linejoin="round" stroke-width="0.5"><title>2023-11-04 1.0km</title><desc>10155501797</desc></polyline><polyline fill="none" points="157.63761486764997,61.586816599126905 155.8828851999715,59.24322527041659 154.8030515583232,58.510852414299734 152.64338427502662,58.071428571478464 150.61869619740173,58.21790319669526 147.78413288807496,59.536174337146804 146.56932004122064,60.7079701742623 145.48948639957234,62.90508550987579 145.21952798962593,64.66277603339404 144.81459037400782,70.52173324138857 145.08454878395423,76.67361975915264 145.35450719483197,77.55245913926046 146.70429924642667,79.74955589219462 148.32404970936477,80.9213398359716 151.02363381301984,81.21428571431898 153.4532595067285,80.1889749520924 155.74790599523112,77.40598593617324 156.4228020212613,76.08772662386764 157.3676564572379,71.83999623754062 157.3676564572379,68.47110017889645 158.04255248326808,64.07687936432194 157.90757327806205,62.46566263656132 156.4228020212613,60.7079701742623 155.20798917394131,59.82912336103618 152.37342586461455,58.510852414299734 150.8886546078138,58.510852414299734 147.6491536833346,59.536174337146804 146.1643824260682,60.85444460529834 145.21952798962593,62.61213693837635 144.94956957921386,63.78393096558284 145.21952798962593,68.617574039381 144.94956957921386,70.81468064908404" stroke="#4dd2ff" stroke-linecap="round" stroke-linejoin="round" stroke-width="0.5"><title>2023-11-03 1.0km</title><desc>10152446508</desc></polyline><polyline fill="none" points="172.35310843307525,58.07142857136205 173.61832507234067,60.81720178038813 174.70279647875577,65.720361195039 176.5102488230914,69.25063039408997 179.2214273372665,76.31115477578714 179.76366303954273,77.4879070231691 180.6673892121762,80.62591047724709 181.20962491538376,81.21428571431898 181.93260585237294,81.21428571431898 181.93260585237294,80.82203557062894 180.6673892121762,80.23366024740972 180.12515350896865,78.86078398860991 178.8599368687719,77.68403234705329 177.95621069706976,75.13440201012418 176.6909940559417,73.17314624669962 175.24503218196332,70.2312598975841 173.61832507234067,64.15135116293095 172.53385366685688,61.60170789225958" stroke="#4dd2ff" stroke-linecap="round" stroke-linejoin="round" stroke-width="0.5"><title>2023-11-02 1.1km</title><desc>10144903556</desc></polyline><polyline fill="none" points="18.916112349368632,86.53416938101873 19.22521278169006,88.37889713374898 20.461614509113133,91.22983708966058 22.625317533500493,98.9441273411503 26.334522718563676,106.65839150408283 27.416374229826033,108.0 26.79817336704582,105.98758696066216 24.479920126497746,102.4658598692622 23.24351839814335,97.93791704869363 21.698016237467527,95.7577932261629 19.843413645401597,91.73294377094135 18.297911484725773,84.85714285715949" stroke="#4dd2ff" stroke-linecap="round" stroke-linejoin="round" stroke-width="0.5"><title>2023-11-01 1.0km</title><desc>10138966680</desc></polyline><polyline fill="none" points="45.20386157371104,85.20515742269345 46.00566324032843,87.81526503060013 47.28854590654373,94.77553791319951 49.3732302384451,99.29970431071706 50.656112904660404,103.475850232644 52.7407972374931,108.0 52.90115757007152,107.82599439937621 51.4579145712778,105.73792619723827 49.3732302384451,100.86575989471748 47.609266572631896,97.73364769015461 44.56242024153471,88.5112932396587 44.2416995735839,84.85714285704307" stroke="#4dd2ff" stroke-linecap="round" stroke-linejoin="round" stroke-width="0.5"><title>2023-10-31 1.0km</title><desc>10133123337</desc></polyline><polyline fill="none" points="70.65206818655133,87.60001199808903 71.44199125189334,91.71430966048501 71.44199125189334,93.25716941198334 73.17982199415565,96.1714572685305 77.91936038434505,106.28572216280736 78.70928344968706,107.8285722725559 79.0252526756376,108.0 75.39160657674074,100.80002461350523 73.81176044698805,96.34288585279137 72.07392970379442,92.7428829416167 69.54617589525878,84.85714285704307" stroke="#4dd2ff" stroke-linecap="round" stroke-linejoin="round" stroke-width="0.5"><title>2023-10-30 1.0km</title><desc>10127985445</desc></polyline><polyline fill="none" points="96.35180282127112,88.20678292401135 97.0533792017959,92.92672109557316 97.47432503011078,94.4492795013357 100.28063055267558,100.99626789137255 101.68378331325948,104.80264697573148 103.78851245576516,107.69549040088896 104.34977356065065,108.0 104.49008883628994,107.543235584395 103.22725135134533,105.56392195285298 101.40315276151523,101.60528901498765 98.17590141063556,95.66732542030513 96.91306392522529,91.25190555641893 95.93085699202493,89.2725763550261 95.79054171638563,86.22745081200264 95.50991116417572,84.85714285715949" stroke="#4dd2ff" stroke-linecap="round" stroke-linejoin="round" stroke-width="0.5"><title>2023-10-28 1.0km</title><desc>10115543824</desc></polyline><polyline fill="none" points="122.71257762610912,89.65716173662804 123.9764547161758,93.77145576896146 125.39831644203514,97.02860006294213 126.66219353210181,101.65716570639051 128.55800916720182,106.11429430986755 129.34793234802783,107.8285722732544 130.13785552885383,108.0 130.29584016557783,107.8285722732544 129.97987089306116,106.80000564618967 129.03196307551116,104.22858709446155 125.8722703512758,98.05717100016773 123.34451617114246,91.20002284971997 121.76466980855912,87.77144121262245 121.13273126352578,84.85714285704307" stroke="#4dd2ff" stroke-linecap="round" stroke-linejoin="round" stroke-width="0.5"><title>2023-10-27 1.0km</title><desc>10110442644</desc></polyline><polyline fill="none" points="148.2921102391556,88.43068737536669 151.27174836862832,98.47061625879724 152.36950978450477,101.53363673959393 153.46727120131254,103.40548059390858 154.72185567673296,106.97899647534359 155.19232485536486,107.6596655419562 156.13326321169734,108.0 156.29008627030998,107.48949829407502 156.13326321169734,106.80882917763665 154.565032617189,104.766820628196 152.21268672589213,100.68279812368564 149.38987165596336,92.34456313634291 147.50799494236708,89.28153049503453 146.5670565860346,84.85714285704307" stroke="#4dd2ff" stroke-linecap="round" stroke-linejoin="round" stroke-width="0.5"><title>2023-10-26 1.0km</title><desc>10104873905</desc></polyline><polyline fill="none" points="175.98373077902943,95.9254951326875 179.5383849637583,104.81367853446864 181.2384369643405,107.83229898125865 181.85663769207895,108.0 181.70208751037717,106.32298925693613 177.52923259790987,99.11182901402935 175.2109798686579,93.24226314923726 173.2018275037408,89.04970685625449 172.42907659430057,84.85714285715949" stroke="#4dd2ff" stroke-linecap="round" stroke-linejoin="round" stroke-width="0.5"><title>2023-10-25 1.0km</title><desc>10098978222</desc></polyline><polyline fill="none" points="18.575988904573023,111.64285714284051 18.420310579240322,112.82534454553388 19.354380533099174,116.71065601205919 20.59980713762343,119.24455125513487 21.378198764286935,122.28522185829934 22.77930369414389,126.33944306976628 25.737191879190505,132.0829108748585 26.671261832118034,134.44786403304897 26.98261848371476,134.78571428568102 27.29397513438016,134.6167891654186 27.13829680904746,132.42076147464104 25.425835228525102,129.21117876667995 24.180408624000847,127.35299725504592 22.62362536881119,123.80555565096438 22.312268718145788,121.94736976805143 20.444128811359406,119.07562499272171 19.354380533099174,116.54172956303228 19.04302388150245,113.50105135946069 18.575988904573023,111.64285714284051" stroke="#4dd2ff" stroke-linecap="round" stroke-linejoin="round" stroke-width="0.5"><title>2023-10-24 1.0km</title><desc>10092835699</desc></polyline><polyline fill="none" points="46.193135026842356,115.63876303785946 48.49470942467451,123.79704901436344 49.56877747736871,125.79499212047085 50.796283822506666,130.78984217438847 52.63754334207624,134.11973609006964 53.404734808020294,134.78571428568102 52.63754334207624,133.95324151031673 51.56347528938204,131.28932657383848 48.80158601142466,127.95942849630956 48.18783283792436,126.79396301263478 47.574079665355384,122.96457219996955 45.73282014671713,119.30167058110237 44.50531380157918,115.47226709977258 43.738122335635126,111.6428571427241" stroke="#4dd2ff" stroke-linecap="round" stroke-linejoin="round" stroke-width="0.5"><title>2023-10-23 1.0km</title><desc>10087395010</desc></polyline><polyline fill="none" points="66.79288644040935,111.75385575310793 67.20205110078678,111.64285714289872 70.11734930681996,111.86485434696078 71.39598887064494,112.19785003067227 71.70286236610264,112.36434781743446 72.36775493971072,112.86384095728863 72.82806518254802,113.41883294726722 73.850976833608,115.30580266064499 74.36243265960366,117.41476322850212 75.02732523274608,118.52474010788137 75.33419872797094,119.4127204361721 76.05023688380606,121.02218211872969 76.56169270956889,122.68713886867044 77.32887644809671,124.01910162443528 77.68689552601427,124.40759031882044 78.1472057690844,125.18456710776081 78.40293368184939,126.84951467678184 78.55637042946182,127.29350007505855 78.96553508983925,127.90397957118694 79.06782625522465,128.84744691231754 79.22126300283708,129.23593312170124 81.471668635495,134.56372382264817 81.7785421309527,134.78571428573923 81.7785421309527,134.50822619657265 81.31823188788258,134.06424504175084 80.80677606235258,132.84329551941482 80.29532023658976,131.78883752471302 78.91438950737938,127.51549267623341" stroke="#4dd2ff" stroke-linecap="round" stroke-linejoin="round" stroke-width="0.5"><title>2023-10-22 1.5km</title><desc>10080655811</desc></polyline><polyline fill="none" points="96.319073488703,111.64285714289872 97.1310425719712,112.23024759587133 95.66949822171591,111.99529146647546 97.94301165523939,114.93223811686039 98.15953674423508,115.63710370636545 97.99714292772114,116.22449122235412 97.23930511646904,116.6356622268213 97.02278002747335,117.04683301941259 97.07691129972227,117.75169674295466 97.50996147748083,119.45511484093731 97.99714292772114,120.68862223078031 98.53845564997755,122.56824887666153 99.51281854999252,124.27165670477552 99.67521236673929,124.91777596535394 100.27065636101179,125.97506090078969 100.64957526698709,126.44496486760909 100.70370653877035,126.7386547063943 101.08262544451281,127.09108237054897 101.3532818055246,127.67846146522788 101.7322007114999,128.79448055534158 102.11111961700954,129.55807166616432 102.05698834476061,131.08525169832865 102.76069488353096,132.43621621659258 102.97721997275949,133.08232887438498 103.35613887803629,133.78717845055507 104.00571414479055,134.6095021701185 104.33050177828409,134.78571428573923 103.0854825170245,133.0235913816141 102.81482615601271,132.08379091037204 102.27351343352348,130.9090387666365 102.05698834476061,130.1454489470343 101.3532818055246,129.1469073126209 100.7578378112521,127.44350987917278" stroke="#4dd2ff" stroke-linecap="round" stroke-linejoin="round" stroke-width="0.5"><title>2023-10-20 1.4km</title><desc>10069668027</desc></polyline><polyline fill="none" points="121.05745546217076,111.64285714289872 121.16767629655078,112.53987937700003 122.04944297135808,114.69272870197892 122.26988464035094,116.00835603987798 124.08852840727195,120.43363237607991 124.25385965872556,121.03164084500168 124.3640804933384,121.92865272419294 124.5845221618656,122.52666009409586 125.9071721744258,124.3804801463848 126.62360759777948,125.81569276901428 127.06449093506671,127.25090285908664 127.45026385574602,128.02830726723187 127.67070552427322,129.22431259811856 127.94625761033967,129.8223146040691 128.66269303346053,131.6761180286412 128.77291386807337,132.3937182200607 129.8200117945671,134.5465149958036 130.09556388040073,134.78571428573923 130.26089513208717,134.78571428573923 130.37111596623436,134.72591446974548 130.3160055493936,134.66611464950256 129.21379720559344,133.290717568947 128.71780345099978,131.61631798412418 127.67070552427322,129.70271423802478 127.50537427281961,128.92531143018277 127.39515343820676,127.60970498598181" stroke="#4dd2ff" stroke-linecap="round" stroke-linejoin="round" stroke-width="0.5"><title>2023-10-19 1.3km</title><desc>10064004415</desc></polyline><polyline fill="none" points="146.21003445237875,111.64285714284051 148.47896357253194,114.5972777956631 148.32770163100213,116.73102361347992 148.63022551313043,118.86476739204954 149.6890591038391,122.63984754239209 151.20167851634324,125.10185289743822 152.7142979297787,129.36932241462637 155.73953675758094,134.29331556742545 156.19332258217037,134.78571428568102 156.64710840582848,134.6215813914314 154.68070316780359,132.65198572271038 151.05041657481343,125.59425364260096 150.14284492656589,122.47571375546977 147.5713919242844,117.05929201969411" stroke="#4dd2ff" stroke-linecap="round" stroke-linejoin="round" stroke-width="0.5"><title>2023-10-18 1.0km</title><desc>10058081424</desc></polyline><polyline fill="none" points="173.10347590222955,113.04546093847603 174.3960778992623,120.5844422080554 177.78915814124048,129.52599374670535 180.05121163558215,134.25974275381304 181.02066313382238,134.78571428568102 181.5053888829425,134.78571428568102 181.82853938173503,134.0844188844785 180.69751263502985,132.68182746204548 179.2433353876695,130.4026146424003 177.30443239305168,126.19483140553348 176.49655614513904,123.74028775561601 173.10347590222955,116.9026171239093 172.78032540343702,115.85066605568863 172.4571749046445,111.6428571427241" stroke="#4dd2ff" stroke-linecap="round" stroke-linejoin="round" stroke-width="0.5"><title>2023-10-17 1.0km</title><desc>10051702317</desc></polyline><polyline fill="none" points="17.689219122752547,138.9626398559194 19.329829832538962,141.81100281258114 21.79074589535594,148.21980721363798 23.103234463371336,150.71211545565166 24.57978410087526,155.3406810988672 26.384455882012844,159.96923789544962 27.04070016555488,161.21538629056886 27.861005519516766,161.57142857136205 28.025066590867937,161.39340743771754 27.861005519516766,160.85934395738877 26.056333740241826,158.18902479019016 23.595417676493526,152.13629044196568 21.79074589535594,148.39782931585796 20.314196257852018,141.45495762582868 19.49389090295881,138.42857142840512" stroke="#4dd2ff" stroke-linecap="round" stroke-linejoin="round" stroke-width="0.5"><title>2023-10-16 1.0km</title><desc>10046279660</desc></polyline><polyline fill="none" points="43.831886522471905,138.42857142840512 44.508963958360255,139.89796555694193 45.186041394248605,143.20409918646328 46.70946562383324,148.34696502564475 48.74069793056697,151.46941412007436 51.11046895477921,160.2857199094724 51.956815749406815,161.20408330694772 53.141701261512935,161.57142857136205 53.310970621183515,161.20408330694772 53.141701261512935,160.1020471896045 50.94119959603995,156.97960888431408 49.75631408393383,153.30614705826156 48.40215921308845,151.10206737020053 45.186041394248605,143.57144709769636 44.001155882142484,138.42857142840512" stroke="#4dd2ff" stroke-linecap="round" stroke-linejoin="round" stroke-width="0.5"><title>2023-10-15 1.0km</title><desc>10039610121</desc></polyline><polyline fill="none" points="69.46972694806755,140.10830203117803 69.98572559095919,145.52075974736363 71.36172197386622,149.4401184762828 73.08171745203435,151.86638513277285 74.11371473874897,155.22582744481042 77.03770705033094,160.4516177601181 77.72570524085313,161.19815835589543 78.58570298086852,161.57142857136205 79.10170162376016,161.19815835589543 79.10170162376016,160.63825292955153 75.66171066835523,157.83872394706123 73.42571654729545,153.73274252167903 72.56571880821139,150.18666230980307 70.50172423478216,145.52075974736363 69.46972694806755,141.6013949678745 69.64172649662942,139.1751185003668 69.46972694806755,138.42857142840512" stroke="#4dd2ff" stroke-linecap="round" stroke-linejoin="round" stroke-width="0.5"><title>2023-10-14 1.0km</title><desc>10033377496</desc></polyline><polyline fill="none" points="94.75265064556152,138.79592004208826 97.79949865769595,142.46940320334397 98.13803732581437,145.2245120294392 101.01561600435525,154.04083985602483 103.72392534837127,160.46939261630177 104.57027201820165,161.57142857136205 105.24734935443848,161.57142857136205 105.24734935443848,161.02041065483354 105.07808001991361,160.46939261630177 103.5546560138464,159.3673561748583 101.86196267418563,156.24491695151664 100.0,150.3673737095669 96.61461331974715,142.8367512221448 96.10680531803519,140.26531395455822 95.26045864727348,138.42857142863795" stroke="#4dd2ff" stroke-linecap="round" stroke-linejoin="round" stroke-width="0.5"><title>2023-10-13 1.0km</title><desc>10028006924</desc></polyline><polyline fill="none" points="120.74862211942673,138.42857142840512 122.37670854479074,140.54853708157316 123.3535603992641,142.31517369649373 123.51636904198676,144.61179935513064 123.3535603992641,147.08508607069962 125.14445546641946,150.79501137160696 127.26096781902015,156.4482198629994 129.37748017068952,160.33479298627935 129.8659060979262,161.041441970272 130.6799493106082,161.57142857136205 130.6799493106082,160.6881175043527 128.88905424345285,158.3915072104428 127.26096781902015,155.56490691308863 125.14445546641946,149.7350332988426 123.84198632650077,147.4384125370998 123.19075175747275,145.49511633184738" stroke="#4dd2ff" stroke-linecap="round" stroke-linejoin="round" stroke-width="0.5"><title>2023-10-12 1.0km</title><desc>10021974100</desc></polyline><polyline fill="none" points="148.7227880936116,141.71003519324586 149.35944299586117,145.16420262586325 149.20027927029878,146.5458681769669 150.632752799429,151.2089834115468 151.74689887836576,153.2814760999754 152.8610449573025,157.08104128041305 154.45268221199512,160.8806003157515 154.7710096631199,161.2260144688189 155.5668282918632,161.57142857136205 155.4076645653695,160.8806003157515 153.65686358511448,156.3902117048856 151.74689887836576,153.10876844543964 149.20027927029878,147.23670064727776 148.5636243680492,144.99149437481537 148.24529691692442,141.71003519324586 147.29031456448138,138.42857142863795" stroke="#4dd2ff" stroke-linecap="round" stroke-linejoin="round" stroke-width="0.5"><title>2023-10-10 1.0km</title><desc>10009069592</desc></polyline><polyline fill="none" points="173.22228065691888,141.32144122594036 174.32004207279533,144.38447589369025 175.41780348867178,148.46851581253577 177.77014938089997,153.5735555771971 179.65202609356493,160.03992311633192 180.74978750944138,161.57142857147846 181.06343362946063,161.06092686555348 181.22025668807328,159.18908631405793 180.12249527219683,155.9559036140563 177.77014938089997,151.87187690660357 175.10415737051517,144.38447589369025 174.32004207279533,140.98110379010905 173.06545759737492,138.42857142852154" stroke="#4dd2ff" stroke-linecap="round" stroke-linejoin="round" stroke-width="0.5"><title>2023-10-09 1.0km</title><desc>10003389142</desc></polyline><polyline fill="none" points="18.145156112499535,165.21428571408615 19.30248619057238,166.64950804505497 20.459816268645227,169.34054763941094 21.121147741563618,174.7226179256104 23.601140765473247,180.1046763411723 25.750468051992357,186.20432819565758 26.742465261369944,187.998340545455 27.56912960205227,188.35714285704307 27.56912960205227,186.92193329404108 24.427805106155574,181.8986931750551 20.294483399949968,171.85218191659078 18.641154716722667,165.39368855208158" stroke="#4dd2ff" stroke-linecap="round" stroke-linejoin="round" stroke-width="0.5"><title>2023-10-08 1.0km</title><desc>9996447828</desc></polyline><polyline fill="none" points="45.60075241420418,169.84287619916722 46.362464250065386,172.6530872018775 48.64759975485504,178.76941665518098 49.40931158978492,181.41431072517298 51.84678946156055,187.53061634639744 52.60850129649043,188.3571428571595 52.76084366347641,187.69592167297378 52.76084366347641,187.03470029460732 49.86633869074285,181.9102280169027 48.49525738786906,178.93472262541763 46.05777951516211,171.6612484252546 45.29606768023223,167.85919572925195 44.38201347831637,165.21428571431898" stroke="#4dd2ff" stroke-linecap="round" stroke-linejoin="round" stroke-width="0.5"><title>2023-10-07 1.0km</title><desc>9989974159</desc></polyline><polyline fill="none" points="72.39494057465345,172.10792782274075 73.60503574926406,176.0471423274139 74.51260713115335,178.01674697361887 76.32774989400059,185.7310151066631 76.78153558447957,187.2082123461878 77.68910696543753,188.3571428571595 78.44541644956917,188.3571428571595 78.74794024322182,187.70061120891478 78.59667834732682,187.2082123461878 76.78153558447957,184.58208324376028 74.96639282163233,180.64288379845675 74.36134523432702,178.01674697361887 71.18484540004283,170.30245218542404 70.73105970956385,167.5121687820647 69.82348832767457,165.21428571431898" stroke="#4dd2ff" stroke-linecap="round" stroke-linejoin="round" stroke-width="0.5"><title>2023-10-06 1.0km</title><desc>9984428862</desc></polyline><polyline fill="none" points="95.01765061262995,165.21428571431898 97.63993976451457,172.23304300755262 99.3881325321272,178.11360874283127 102.36006023641676,185.51172079332173 103.583795174025,187.97775343060493 104.1082530040294,188.35714285704307 104.80753011163324,188.35714285704307 104.98234938737005,187.97775343060493 104.45789155736566,187.02927961805835 102.36006023641676,183.99416107684374 101.13632529973984,181.5281246327795 99.03849397785962,176.0269579195883 98.16439759451896,173.18152225832455 95.7169277202338,168.62881867401302 95.7169277202338,166.92155275889672" stroke="#4dd2ff" stroke-linecap="round" stroke-linejoin="round" stroke-width="0.5"><title>2023-10-04 1.0km</title><desc>9971682885</desc></polyline><polyline fill="none" points="122.21152364742011,167.91711316874716 122.98991521820426,170.61993744410574 123.76830678805709,172.47812728898134 124.39102004468441,175.34987227525562 127.34890801180154,181.26227712223772 127.50458632595837,183.28938385332003 128.43865621089935,187.34359195071738 128.7500128382817,187.8503674598178 129.68408272322267,188.3571428571595 129.68408272322267,186.66789109795354 127.66026464104652,182.95153285574634 126.25915981363505,179.74194590048864 125.4807682428509,178.22161367256194 124.70237667206675,176.02557645644993 123.14559353236109,172.81597982684616 122.52288027573377,170.28208458342124 122.21152364742011,167.748186546145 121.74448870588094,165.21428571431898" stroke="#4dd2ff" stroke-linecap="round" stroke-linejoin="round" stroke-width="0.5"><title>2023-10-03 1.0km</title><desc>9965060084</desc></polyline><polyline fill="none" points="147.19823528826237,166.17060620267875 149.313403358683,173.05610334384255 149.66593137010932,176.11631844588555 150.8997794110328,177.64642464672215 151.78109944052994,179.9415822608862 153.36747549287975,185.87073005991988 154.60132353380322,187.7833554991521 155.48264356236905,188.35714285704307 155.65890756901354,188.16588041838259 155.13011555187404,186.63578040408902 153.19121148716658,183.00178926368244 150.01845938153565,175.35126500763 148.0795553177595,169.61335705104284 147.72702730633318,165.21428571431898" stroke="#4dd2ff" stroke-linecap="round" stroke-linejoin="round" stroke-width="0.5"><title>2023-10-02 1.0km</title><desc>9958643020</desc></polyline><polyline fill="none" points="173.47445119265467,169.28744399291463 173.81569825764745,170.95373411779292 177.56941597443074,179.8405961599201 179.44627483282238,185.58001122879796 180.47001602780074,187.61657472187653 181.4937572227791,188.35714285704307 181.6643807562068,188.1720008435659 181.4937572227791,187.43143265438266 178.08128657191992,182.24744923319668 174.8394394526258,174.28631105832756 173.30382766015828,169.47258739476092 172.62133352924138,165.21428571408615" stroke="#4dd2ff" stroke-linecap="round" stroke-linejoin="round" stroke-width="0.5"><title>2023-10-01 1.0km</title><desc>9952075403</desc></polyline><polyline fill="none" points="19.534312723204494,195.35405181569513 20.92526487261057,198.20499198127072 21.543465826660395,201.05592858383898 22.007116543129086,203.73915977822617 24.325370124541223,210.27952259161975 26.334523227997124,214.47205299360212 27.261824660003185,215.1428571428405 27.570925138890743,214.63975404936355 24.479920363985002,209.94411982689053 23.088968214578927,206.75779109902214 22.625317498110235,205.08077419165056 20.461614156141877,200.38512029196136 19.225212245248258,195.18634934176225 18.14336057472974,192.0" stroke="#4dd2ff" stroke-linecap="round" stroke-linejoin="round" stroke-width="0.5"><title>2023-09-30 1.0km</title><desc>9945549317</desc></polyline><polyline fill="none" points="44.98833649419248,192.0 46.52394738420844,194.59201057627797 47.03581768088043,196.62858844315633 48.40080513898283,199.96116685448214 49.083298868499696,204.96002620225772 49.59516916517168,206.44116780697368 51.64265035092831,211.44001429202035 52.15452064760029,214.58743106247857 52.495767512358725,214.9577151297126 53.00763780903071,215.14285714295693 53.178261240944266,214.77257310249843 50.10703946184367,209.21830596844666 48.0595582742244,204.40459787589498 47.37706454563886,201.62745440611616 44.98833649419248,196.0731582797598 43.96459590084851,192.74057472264394" stroke="#4dd2ff" stroke-linecap="round" stroke-linejoin="round" stroke-width="0.5"><title>2023-09-28 1.0km</title><desc>9933629332</desc></polyline><polyline fill="none" points="69.76160397008061,194.62988144042902 71.05420691799372,199.1883357341867 73.47783744335175,202.51950836111791 75.09359112754464,208.48054250143468 77.35564628522843,212.5129983238876 78.00194775871933,214.79220946785063 78.6482492312789,215.14285714295693 78.97139996942133,214.61688561108895 78.6482492312789,213.91559005482122 77.35564628522843,212.16235026181675 73.6394128119573,204.62340446491726 71.7005083905533,199.3636607248336 69.60002860240638,192.00000000023283" stroke="#4dd2ff" stroke-linecap="round" stroke-linejoin="round" stroke-width="0.5"><title>2023-09-27 1.0km</title><desc>9927137811</desc></polyline><polyline fill="none" points="101.92255604290403,191.9999999999418 101.46114259259775,194.22530548635405 100.99972914229147,195.50485317711718 100.64085201430134,197.0625604885863 98.53885740716942,201.45750311407028 97.46222602343187,203.29335766413715 97.25715337856673,204.07220370310824 97.35968970065005,204.68415360001381 97.61603050655685,205.57426165725337 98.38505292357877,207.46573780244216 98.64139372948557,207.96642187290126 98.94900269643404,208.85652606899384 99.97436591912992,210.13604901649524 100.43577936966904,211.1374132920755 100.94846098124981,211.91625125706196 101.3586062702816,213.028875530581 101.97382420417853,213.86334266205085 102.74284662120044,215.1428571428405" stroke="#4dd2ff" stroke-linecap="round" stroke-linejoin="round" stroke-width="0.5"><title>2023-09-26 1.0km</title><desc>9920397094</desc></polyline><polyline fill="none" points="125.60620646714233,191.9999999999418 124.59746682480909,195.3620003819815 123.58872718270868,197.1602752925828 122.65204037167132,198.33306163945235 122.14767055073753,199.2712897855672 121.93151205591857,200.2095171037945 122.00356488721445,201.3823000874836 122.36382904555649,202.32052554324036 123.22846302459948,203.64967685518786 123.58872718270868,204.9788265057141 124.3092554982286,206.69890005787602 125.67825929867104,208.41897082794458 127.98394990945235,213.1100587871042 129.4970593729522,215.1428571428405" stroke="#4dd2ff" stroke-linecap="round" stroke-linejoin="round" stroke-width="0.5"><title>2023-09-25 1.0km</title><desc>9914573673</desc></polyline><polyline fill="none" points="153.13477714871988,192.0 152.56604190869257,192.8640114669688 152.45229486073367,193.2960168668651 152.56604190869257,193.85145205439767 152.62291543278843,194.40688687423244 151.48544495250098,196.5051928765024 151.2010773322545,197.924632197537 150.80296266451478,198.97378145722905 148.414274655981,203.17036538163666 148.35740113211796,203.66407975781476 148.58489522780292,204.65150763938436 149.21050399215892,205.63893435924547 149.55174513626844,206.50293178623542 150.06360685219988,207.36692832381232 150.34797447221354,208.23092397203436 151.08733028452843,209.40348807227565 151.6560655243229,210.57605053449515 152.28167428891174,211.254901737615 152.45229486073367,211.8720387185458 152.85040952870622,212.3657479765825 153.70351238898002,213.84687400865369 154.3291211531032,214.52572256652638 154.49974172515795,215.1428571428405" stroke="#4dd2ff" stroke-linecap="round" stroke-linejoin="round" stroke-width="0.5"><title>2023-09-24 1.0km</title><desc>9907510217</desc></polyline><polyline fill="none" points="178.0056246931199,191.9999999999418 177.52247486496344,192.74896801094292 177.1773678448517,193.49793547106674 176.97030363278463,194.4715923460899 176.90128222852945,195.74483454739675 175.7279183601495,197.3176609519869 175.0377043201588,199.11517386877676 174.41651168372482,200.01392913766904 174.00238325959072,201.21226826281054 173.93336185533553,202.48550203844206 175.38281134003773,206.15540225210134 175.93498257221654,207.27883844985627 177.7295390770305,210.1248712722445 178.48877452127635,211.9972569507081 179.45507417758927,213.19558197859442 180.0072454100009,214.1692200260004 180.35235243011266,215.1428571428405" stroke="#4dd2ff" stroke-linecap="round" stroke-linejoin="round" stroke-width="0.5"><title>2023-09-23 1.0km</title><desc>9901004991</desc></polyline><polyline fill="none" points="23.74579392396845,218.78571428573923 23.285011889413,219.6428669745801 22.82422985462472,221.14288236008724 21.77101377537474,223.35718655312667 20.717797696124762,224.85719620325835 19.79623362678103,227.35720713983756 19.730407621711493,228.7143532395712 19.86205963185057,229.5000685363193 21.178579730680212,232.6429233677918 21.376057745656,233.57149216765538 21.639361765468493,234.0714903845801 22.560925834812224,235.21434248570586 23.285011889413,236.64290572114987 23.877445933874696,238.14289485791232 24.864836008287966,239.5714537873282 25.983878092374653,241.92857142857974" stroke="#4dd2ff" stroke-linecap="round" stroke-linejoin="round" stroke-width="0.5"><title>2023-09-22 1.0km</title><desc>9895405405</desc></polyline><polyline fill="none" points="49.79823758592829,218.78571428573923 49.609497737605125,219.46840269467793 49.23201804095879,219.87801549909636 48.414145364426076,221.37992756912718 48.09957895055413,222.47222573042382 47.15587970847264,224.86162347818026 46.14926718408242,226.9096737963264 45.52013435587287,228.41157449188177 45.3313945075497,229.16252392844763 45.3313945075497,229.64040052646305 45.52013435587287,230.3230809540837 45.89761405275203,231.0057608798379 46.71548672928475,233.1220654596691 47.5333594053518,234.62395610607928 47.973752385005355,235.7162386867567 48.79162506130524,237.08159010566305 49.29493132350035,237.695997589326 49.67241102037951,238.78827655612258 50.679023545235395,240.5632271367358 51.811462635407224,241.92857142857974" stroke="#4dd2ff" stroke-linecap="round" stroke-linejoin="round" stroke-width="0.5"><title>2023-09-21 1.0km</title><desc>9889267953</desc></polyline><polyline fill="none" points="76.64194490155205,218.78571428573923 75.81604963401332,221.263459073205 75.33022888866253,223.214018094528 74.55291569558904,224.8482661617454 73.62985627911985,227.58957713481504 72.02664781874046,230.5944636601489 71.5894091478549,232.22869490430458 71.63799122232012,232.59771434712457 71.92948366957717,233.3884696564637 72.56105063902214,234.7591101268772 72.94970723544247,235.91888078604825 73.92134872660972,237.28951641911408 74.50433362135664,238.39656636398286 74.84440814284608,239.1873152781045 75.23306473926641,239.87263029819587 75.86463170871139,240.34707877459005 76.64194490155205,241.5068403953337 76.69052697625011,241.7177059429814 76.98201942350715,241.92857142857974" stroke="#4dd2ff" stroke-linecap="round" stroke-linejoin="round" stroke-width="0.5"><title>2023-09-20 1.0km</title><desc>9882714971</desc></polyline><polyline fill="none" points="101.91893246304244,218.78571428573923 101.425492686918,220.0350885152584 100.49343977635726,222.77180627640337 100.43861313443631,223.66421224054648 100.10965328337625,224.1401616857038 99.72586679109372,225.03256614063866 99.50656022364274,225.86547607730608 99.06794708943926,226.9958524769172 97.80693432781845,229.01862735598115 97.47797447699122,230.20849256968359 97.36832119338214,231.27936976606725 97.47797447699122,232.35024554503616 97.80693432781845,233.5401058595162 98.19072082010098,234.3730070387246 99.39690694003366,236.45525623566937 100.0,237.28815441404004 100.54826641781256,238.77547045750543 101.09653283609077,239.72735129058128 101.64479925390333,240.50075364299119 102.24789231386967,241.0956780264969 102.63167880661786,241.92857142857974" stroke="#4dd2ff" stroke-linecap="round" stroke-linejoin="round" stroke-width="0.5"><title>2023-09-19 1.0km</title><desc>9876194288</desc></polyline><polyline fill="none" points="125.5439370854292,218.78571428573923 125.13510037586093,219.4511712892563 124.45370586030185,220.782083975384 124.24928750563413,221.6693581205909 123.02277737716213,223.8136007396388 122.06882505514659,225.80996044742642 121.86440670024604,226.54935192601988 121.93254615203477,227.36268192430725 122.34138286160305,228.3978282439639 122.95463792560622,229.50691240374 123.49975353828631,231.05962817254476 124.24928750563413,232.6862802161486 125.06696092430502,234.16505251801573 125.81649489188567,235.12625334830955 126.70230776211247,236.60502206231467 127.24742337455973,238.30560339521617 128.2013756968081,239.78436743433122 128.67835185793228,241.1152532103588 129.56416472839192,241.92857142857974" stroke="#4dd2ff" stroke-linecap="round" stroke-linejoin="round" stroke-width="0.5"><title>2023-09-18 1.0km</title><desc>9870505463</desc></polyline><polyline fill="none" points="151.6611156584695,218.78571428573923 151.32890961528756,219.43458688195096 150.8638211551588,221.59749243460828 150.26585027808324,222.6068467264995 150.00008544349112,223.3999100839137 148.53837885474786,225.77909630781505 148.00684918602929,227.0768318150076 147.67464314308017,228.23037304595346 147.94040797720663,229.02343185519567 149.40211456618272,232.1956606777385 150.1329678609036,233.3491958871018 150.66449752938934,234.5748255600338 151.52823324105702,235.72835797059815 151.9933217014186,236.52141071559163 152.591292578727,238.39589647261892 155.18249971373007,241.92857142857974" stroke="#4dd2ff" stroke-linecap="round" stroke-linejoin="round" stroke-width="0.5"><title>2023-09-16 1.0km</title><desc>9856514700</desc></polyline><polyline fill="none" points="176.82294235914014,218.78571428573923 176.11202061688527,220.94573588488856 175.1878223521635,222.41146229451988 173.26833364833146,226.11434094503056 173.197241473943,226.9629154620343 173.26833364833146,227.96577536972472 173.69488669373095,228.96863431896782 174.40580843598582,230.04863519221544 175.0456380036194,231.51434888498625 176.1831127910409,233.44291641382733 177.60495627555065,236.14290499896742 177.74714062386192,237.14575613243505 178.24478584341705,237.5314678516006 178.8135232371278,238.30289086455014 179.7377215018496,239.84573518909747 180.733011940727,240.69429860054515 180.94628846342675,241.2342931414605 181.08847281197086,241.92857142857974" stroke="#4dd2ff" stroke-linecap="round" stroke-linejoin="round" stroke-width="0.5"><title>2023-09-15 1.0km</title><desc>9850671982</desc></polyline><polyline fill="none" points="23.44549114955589,245.57142857142026 22.268794564530253,248.6837725614896 20.94501090561971,250.59905673458707 20.356662613339722,251.63650091725867 19.474140174221247,253.87099271186162 19.253509564790875,254.66902438079705 19.253509564790875,255.30744929309003 19.474140174221247,256.10547990584746 20.356662613339722,258.4995682234876 21.165641515515745,260.0956241681124 23.151317003183067,263.52713650179794 23.96029590535909,265.0433826817898 24.10738297831267,265.92120844946476 24.695731271523982,266.479824477341 25.651797246653587,267.9960665325634 26.46077614882961,268.71428571426077" stroke="#4dd2ff" stroke-linecap="round" stroke-linejoin="round" stroke-width="0.5"><title>2023-09-14 1.0km</title><desc>9844236351</desc></polyline><polyline fill="none" points="44.89331725263037,245.57142857136205 45.316696972586215,245.9159922673134 45.475464367773384,246.26055581122637 45.58130929782055,247.00710963463644 45.89884408772923,247.6388084665523 46.1105339480564,249.41904787998646 46.1105339480564,250.2804525909596 46.00468901800923,250.73986804834567 46.1105339480564,251.3141369901714 46.37514627305791,252.0032591629424 46.26930134301074,252.57752717577387 46.32222380815074,252.86466102383565 46.851448458153754,253.84091531776357 47.32775064348243,255.27658118045656 47.75113036367111,256.08055291092023 48.280355013674125,256.82709734817035 48.86250212904997,257.343935386627 49.02126952400431,257.688493889058 49.18003691919148,258.43503678945126 49.60341663938016,259.1815789762768 50.079718824476004,260.5598088313127 50.71478840452619,261.7657579596271 51.0323231946677,262.7994271591306 51.191090589854866,263.66081711358856 51.508625379996374,264.34992839349434 52.09077249513939,266.2449812780251 52.884609470609576,267.73805000964785 52.937531935749575,267.9677526380983 52.884609470609576,268.14002956519835 52.24953989009373,268.71428571426077 52.56707468023524,268.4845833052532 52.725842075422406,268.14002956519835 52.831687005236745,267.8529013323714 52.778764540562406,267.45092162903165 52.4612297504209,267.0489417188219 51.508625379996374,264.98161319905194 51.0323231946677,263.4311132186558 50.026796359568834,261.1914967020857 49.55049417424016,259.00930007349234 49.28588184923865,258.37761043792125 48.280355013674125,257.0568031852599 47.27482817834243,255.16172800853383 46.798525993013754,253.61120853491593 46.63975859852508,252.57752717577387 46.21637887787074,251.48641759040765 45.369619437726215,249.64875589578878 45.157929577631876,248.78735048812814 44.41701506730169,247.40909985953476 44.25824767211452,246.66254642023705 44.20532520720735,245.74371043837164" stroke="#4dd2ff" stroke-linecap="round" stroke-linejoin="round" stroke-width="0.5"><title>2023-09-13 1.0km</title><desc>9837636972</desc></polyline></svg>