<svg xmlns="http://www.w3.org/2000/svg" xmlns:ev="http://www.w3.org/2001/xml-events" xmlns:xlink="http://www.w3.org/1999/xlink" width="200mm" height="300mm" baseProfile="full" version="1.1" viewBox="0 0 200 300"><rect width="200" height="300" x="0" y="0" fill="#222"/><text fill="#FFF" style="font-size:12px;font-family:Arial;font-weight:700" x="10" y="20">Over 1km Runs</text><text fill="#FFF" style="font-size:4px;font-family:Arial" x="10" y="280">ATHLETE</text><text fill="#FFF" style="font-size:9px;font-family:Arial" x="10" y="290">Jiakai</text><text fill="#FFF" style="font-size:4px;font-family:Arial" x="120" y="280">STATISTICS</text><text fill="#FFF" style="font-size:3px;font-family:Arial" x="120" y="285">Number: 84</text><text fill="#FFF" style="font-size:3px;font-family:Arial" x="120" y="290">Weekly: 6.0</text><text fill="#FFF" style="font-size:3px;font-family:Arial" x="141" y="285">Total: 86.7 km</text><text fill="#FFF" style="font-size:3px;font-family:Arial" x="141" y="290">Avg: 1.0 km</text><text fill="#FFF" style="font-size:3px;font-family:Arial" x="167" y="285">Min: 1.0 km</text><text fill="#FFF" style="font-size:3px;font-family:Arial" x="167" y="290">Max: 1.5 km</text><polyline fill="none" stroke="#4dd2ff" stroke-linecap="round" stroke-linejoin="round" stroke-width=".5" points="18.256 34.782 18.8 37.292 20.705 43.05 21.794 44.822 23.29 49.694 23.698 50.727 23.971 50.727 23.971 49.251 21.93 43.05 19.072 38.621 18.936 36.849 18.12 34.782 18.392 33.453 17.848 31.091"><title>2023-12-14 1.0km</title><desc>10376526598</desc></polyline><polyline fill="none" stroke="#4dd2ff" stroke-linecap="round" stroke-linejoin="round" stroke-width=".5" points="47.721 32.798 46.71 31.945 45.024 31.213 43.45 31.091 41.877 31.457 39.854 32.554 38.955 33.774 38.28 35.848 38.28 40.482 38.505 41.946 38.955 43.775 38.617 45.971 38.73 46.824 38.842 47.312 39.966 49.264 41.764 50.605 42.326 50.727 43.45 50.727 44.574 50.727 46.597 49.995 47.721 48.898 48.396 47.678 48.62 44.995 48.733 43.165 48.396 40.97 48.62 38.043 48.508 35.482 48.396 34.628 47.609 32.92 47.272 32.554 46.035 31.701 43.563 31.457 41.989 31.701 41.09 32.067 39.404 33.896 38.73 36.457 38.955 38.165"><title>2023-12-13 1.0km</title><desc>10373769329</desc></polyline><polyline fill="none" stroke="#4dd2ff" stroke-linecap="round" stroke-linejoin="round" stroke-width=".5" points="63.741 33.875 65.091 39.444 66.442 42.375 69.142 49.995 69.683 50.727 69.953 50.727 70.088 50.141 69.548 49.262 67.387 45.598 64.281 39.297 63.876 37.392 62.39 34.168 62.12 31.091"><title>2023-12-12 1.0km</title><desc>10365882163</desc></polyline><polyline fill="none" stroke="#4dd2ff" stroke-linecap="round" stroke-linejoin="round" stroke-width=".5" points="84.878 31.091 86.28 34.133 88.192 38.973 89.593 41.601 91.632 47.962 91.887 49.621 92.397 50.727 92.524 49.759 92.27 48.653 89.593 42.569 87.682 38.835 87.172 37.314 86.79 34.133 85.77 31.229"><title>2023-12-11 1.0km</title><desc>10361067591</desc></polyline><polyline fill="none" stroke="#4dd2ff" stroke-linecap="round" stroke-linejoin="round" stroke-width=".5" points="111.692 42.047 114.315 50.016 114.446 50.443 114.97 50.727 115.102 50.585 114.708 49.589 113.528 47.312 112.217 43.755 108.545 36.356 107.496 31.091"><title>2023-12-10 1.0km</title><desc>10355395415</desc></polyline><polyline fill="none" stroke="#4dd2ff" stroke-linecap="round" stroke-linejoin="round" stroke-width=".5" points="130.436 32.39 132.699 36 133.763 40.476 136.025 46.829 136.823 50.294 137.356 50.727 137.489 50.583 137.489 50.294 137.223 49.139 134.428 43.508 133.763 41.92 133.364 39.465 132.699 37.588 131.634 35.711 131.501 33.69 130.303 31.091"><title>2023-12-09 1.0km</title><desc>10350143310</desc></polyline><polyline fill="none" stroke="#4dd2ff" stroke-linecap="round" stroke-linejoin="round" stroke-width=".5" points="154.4 34.901 155.211 37.832 156.966 42.081 159.397 49.115 160.477 50.727 160.342 49.262 159.532 46.771 157.371 42.961 156.021 39.737 154.535 37.392 154.13 35.048 152.51 31.091"><title>2023-12-08 1.0km</title><desc>10345303898</desc></polyline><polyline fill="none" stroke="#4dd2ff" stroke-linecap="round" stroke-linejoin="round" stroke-width=".5" points="175.927 31.091 176.18 31.777 176.686 33.563 176.94 36.034 177.446 38.094 179.217 42.488 180.356 46.47 181.495 48.942 181.748 50.727 182.002 50.59 182.255 50.315 182.255 49.903 181.622 48.256 179.597 44.823 177.193 37.819 176.56 34.936"><title>2023-12-07 1.0km</title><desc>10340288256</desc></polyline><polyline fill="none" stroke="#4dd2ff" stroke-linecap="round" stroke-linejoin="round" stroke-width=".5" points="17.264 52.909 18.045 54.746 19.477 60.82 21.56 64.634 23.253 69.296 24.034 72.263 24.424 72.545 24.554 71.557 24.294 70.285 22.211 65.906 20.779 63.787 19.998 62.233 17.394 53.333"><title>2023-12-06 1.0km</title><desc>10334845031</desc></polyline><polyline fill="none" stroke="#4dd2ff" stroke-linecap="round" stroke-linejoin="round" stroke-width=".5" points="41.697 56.295 42.57 60.764 43.444 64.014 45.566 69.566 46.689 72.139 47.063 72.545 46.564 70.108 45.316 67.806 44.193 64.556 42.57 61.17 41.822 58.597 40.574 55.888 39.95 52.909"><title>2023-12-05 1.0km</title><desc>10329306344</desc></polyline><polyline fill="none" stroke="#4dd2ff" stroke-linecap="round" stroke-linejoin="round" stroke-width=".5" points="62.497 54.557 63.383 55.93 64.522 59.912 66.8 65.542 67.939 69.387 68.951 71.584 69.711 72.545 69.711 71.859 66.42 64.306 65.155 60.05 63.763 56.891 62.75 52.909"><title>2023-12-04 1.0km</title><desc>10324662812</desc></polyline><polyline fill="none" stroke="#4dd2ff" stroke-linecap="round" stroke-linejoin="round" stroke-width=".5" points="85.291 54.722 86.683 60.008 88.91 64.993 90.441 70.28 91.555 72.394 92.39 72.545 92.39 71.941 91.416 70.28 90.163 66.655 88.771 64.54 87.796 61.972 86.126 55.93 85.012 52.909"><title>2023-12-02 1.0km</title><desc>10313350310</desc></polyline><polyline fill="none" stroke="#4dd2ff" stroke-linecap="round" stroke-linejoin="round" stroke-width=".5" points="107.734 53.95 109.105 55.736 110.75 61.388 111.847 66 113.629 71.058 114.726 72.545 114.863 71.653 114.589 69.868 113.081 66.595 110.75 62.876 109.379 60.05 108.008 52.909"><title>2023-12-01 1.0km</title><desc>10308709030</desc></polyline><polyline fill="none" stroke="#4dd2ff" stroke-linecap="round" stroke-linejoin="round" stroke-width=".5" points="130.277 52.909 132.991 62.236 135.706 67.8 137.214 71.891 137.666 72.545 137.817 72.055 137.214 70.418 134.952 67.309 134.349 65.673 132.086 61.255 131.031 56.182 129.975 53.236"><title>2023-11-30 1.0km</title><desc>10303537703</desc></polyline><polyline fill="none" stroke="#4dd2ff" stroke-linecap="round" stroke-linejoin="round" stroke-width=".5" points="154.247 57.107 155.121 59.951 155.495 62.253 156.868 64.962 158.366 69.024 159.863 72.275 160.113 72.545 160.362 72.275 160.113 71.327 159.114 69.566 157.742 65.774 155.745 61.712 154.996 57.378 153.498 55.076 152.625 52.909"><title>2023-11-29 1.0km</title><desc>10298007687</desc></polyline><polyline fill="none" stroke="#4dd2ff" stroke-linecap="round" stroke-linejoin="round" stroke-width=".5" points="175.706 55.452 177.138 59.125 177.398 61.809 179.221 66.188 180.263 70.144 181.174 71.98 182.085 72.545 182.476 72.545 182.736 72.122 182.606 71.557 182.085 70.568 180.002 65.058 177.919 60.255 177.529 57.995 176.617 55.311 175.446 52.909"><title>2023-11-28 1.0km</title><desc>10292316108</desc></polyline><polyline fill="none" stroke="#4dd2ff" stroke-linecap="round" stroke-linejoin="round" stroke-width=".5" points="20.448 74.727 21.601 77.854 22.292 80.856 23.214 82.232 24.252 84.233 25.289 87.485 26.211 88.986 26.211 89.736 25.635 90.236 23.791 91.237 22.638 92.237 21.485 92.863 19.756 93.613 16.99 94.364 16.529 94.239 16.183 93.863 15.607 91.487"><title>2023-11-27 1.0km</title><desc>10287544518</desc></polyline><polyline fill="none" stroke="#4dd2ff" stroke-linecap="round" stroke-linejoin="round" stroke-width=".5" points="41.608 78.984 42.241 80.495 43.76 88.184 45.405 92.167 46.291 93.677 46.923 94.364 47.05 94.226 46.67 93.54 46.67 92.441 45.658 90.107 44.519 86.262 43.38 83.928 42.621 79.533 40.469 76.1 39.963 74.727"><title>2023-11-26 1.0km</title><desc>10281488289</desc></polyline><polyline fill="none" stroke="#4dd2ff" stroke-linecap="round" stroke-linejoin="round" stroke-width=".5" points="62.528 74.727 63.988 78.528 65.301 83.912 66.615 86.921 66.907 88.821 67.636 90.563 69.242 93.572 69.971 94.364 70.263 94.364 68.074 89.613 67.782 88.029 66.323 85.971 63.404 78.053 61.945 75.361"><title>2023-11-25 1.0km</title><desc>10275889695</desc></polyline><polyline fill="none" stroke="#4dd2ff" stroke-linecap="round" stroke-linejoin="round" stroke-width=".5" points="84.896 74.911 85.911 79.499 90.646 92.345 91.83 94.18 92.337 94.364 92.507 93.813 90.815 91.611 88.786 85.555 87.433 82.802 86.587 77.48 85.572 74.727"><title>2023-11-24 1.0km</title><desc>10271180196</desc></polyline><polyline fill="none" stroke="#4dd2ff" stroke-linecap="round" stroke-linejoin="round" stroke-width=".5" points="108.857 76.909 109.288 78.156 110.293 83.455 112.735 90.935 113.884 94.052 114.315 94.364 114.889 94.364 115.033 94.052 114.746 92.494 113.166 87.974 109.001 78.935 107.565 74.727"><title>2023-11-23 1.0km</title><desc>10265414399</desc></polyline><polyline fill="none" stroke="#4dd2ff" stroke-linecap="round" stroke-linejoin="round" stroke-width=".5" points="132.176 79.152 132.303 81.088 132.813 84.131 134.852 89.939 135.489 92.704 136.509 94.364 137.273 94.364 137.146 93.534 135.744 89.939 134.597 88.141 132.94 83.024 131.029 77.77 130.519 74.727"><title>2023-11-21 1.0km</title><desc>10253878272</desc></polyline><polyline fill="none" stroke="#4dd2ff" stroke-linecap="round" stroke-linejoin="round" stroke-width=".5" points="154.38 80.031 155.041 84.33 157.814 91.354 159.003 93.934 159.4 94.364 159.664 94.22 159.796 93.934 159.267 91.64 156.89 86.48 155.965 83.757 154.512 78.167 153.72 76.734 153.191 74.727"><title>2023-11-20 1.0km</title><desc>10248671423</desc></polyline><polyline fill="none" stroke="#4dd2ff" stroke-linecap="round" stroke-linejoin="round" stroke-width=".5" points="175.595 76.364 177.514 80.529 178.063 84.843 179.571 88.264 181.079 92.579 181.764 93.62 182.587 94.364 182.45 93.174 180.119 87.074 178.611 81.57 177.103 78 176.28 74.727"><title>2023-11-19 1.0km</title><desc>10242265034</desc></polyline><polyline fill="none" stroke="#4dd2ff" stroke-linecap="round" stroke-linejoin="round" stroke-width=".5" points="17.093 114.041 17.95 111.343 18.293 110.691 18.894 110.319 21.81 109.947 23.954 109.481 24.64 108.923 25.069 108.365 25.583 106.038 25.412 105.293 25.755 104.735 25.497 100.454 25.326 99.896 25.24 98.221 25.069 97.197 24.125 96.918 23.353 97.476 23.525 97.197 23.696 97.476 22.581 96.918 22.496 96.545 22.238 96.732 22.41 96.639 21.81 97.383 21.895 97.29 23.696 98.221 23.268 98.593 22.581 98.872 20.952 99.151 20.866 98.779 21.295 98.593 21.895 98.686 23.696 96.918 26.183 97.011 25.926 96.825 25.583 96.732 25.326 101.199 25.412 102.502 25.669 104.084 25.84 106.782 25.84 107.713 25.583 108.644 25.069 109.202 20.78 109.667 18.808 110.04 17.779 110.784 16.578 112.459 15.892 114.879 15.635 116.182"><title>2023-11-18 1.0km</title><desc>10236386505</desc></polyline><polyline fill="none" stroke="#4dd2ff" stroke-linecap="round" stroke-linejoin="round" stroke-width=".5" points="39.499 96.545 42.343 101.455 43.377 105.101 43.765 107.205 44.541 108.468 46.997 115.621 47.514 116.182 47.514 115.621 46.997 114.919 45.575 110.712 44.799 109.309 44.541 106.925 43.377 103.979 42.085 101.174 41.955 99.631"><title>2023-11-17 1.0km</title><desc>10231268371</desc></polyline><polyline fill="none" stroke="#4dd2ff" stroke-linecap="round" stroke-linejoin="round" stroke-width=".5" points="62.601 97.179 64.499 99.871 64.936 103.513 66.25 106.364 68.293 113.965 69.606 116.182 69.46 114.915 68.439 112.856 67.709 110.798 66.542 105.889 64.207 100.979 63.477 98.762 63.039 96.545"><title>2023-11-16 1.0km</title><desc>10225818993</desc></polyline><polyline fill="none" stroke="#4dd2ff" stroke-linecap="round" stroke-linejoin="round" stroke-width=".5" points="85.296 96.757 86.269 100.557 87.826 104.78 89.966 108.792 90.744 111.959 92.107 114.704 93.469 116.182 89.966 109.636 88.409 104.78 83.934 96.545"><title>2023-11-15 1.0km</title><desc>10219684298</desc></polyline><polyline fill="none" stroke="#4dd2ff" stroke-linecap="round" stroke-linejoin="round" stroke-width=".5" points="107.829 98.908 109.598 101.122 109.87 103.928 111.911 108.8 113.136 112.934 114.36 116.034 114.904 116.182 114.768 114.41 112.999 112.048 112.319 109.981 111.231 108.652 110.822 107.028 108.782 102.894 108.101 99.941 107.693 96.545"><title>2023-11-14 1.0km</title><desc>10213806154</desc></polyline><polyline fill="none" stroke="#4dd2ff" stroke-linecap="round" stroke-linejoin="round" stroke-width=".5" points="131.273 99.249 132.323 103.233 135.207 110.632 135.863 113.051 137.174 115.755 137.568 116.182 136.781 114.759 134.945 110.348 134.814 109.21 133.503 106.079 131.536 102.522 130.749 100.103 130.224 96.545"><title>2023-11-13 1.0km</title><desc>10208522228</desc></polyline><polyline fill="none" stroke="#4dd2ff" stroke-linecap="round" stroke-linejoin="round" stroke-width=".5" points="154.3 98.777 155.671 102.942 157.316 106.364 158.276 110.38 159.235 113.207 160.469 115.884 161.018 116.182 161.292 115.587 159.784 112.612 158.961 109.339 155.945 106.512 154.3 104.132 154.026 101.603 151.695 96.545"><title>2023-11-12 1.0km</title><desc>10202270880</desc></polyline><polyline fill="none" stroke="#4dd2ff" stroke-linecap="round" stroke-linejoin="round" stroke-width=".5" points="176.12 100.209 179.361 107.536 180.441 111.199 181.522 114.13 182.197 115.449 182.872 116.182 183.007 115.596 181.792 111.932 179.496 108.415 177.065 102.847 176.12 98.89 175.175 96.545"><title>2023-11-11 1.0km</title><desc>10196068378</desc></polyline><polyline fill="none" stroke="#4dd2ff" stroke-linecap="round" stroke-linejoin="round" stroke-width=".5" points="19.084 121.292 21.306 128.01 23.37 133.522 24.322 137.139 24.957 138 25.274 137.656 24.798 135.589 22.417 130.249 20.036 125.254 16.861 120.258 16.544 118.364"><title>2023-11-10 1.0km</title><desc>10191120477</desc></polyline><polyline fill="none" stroke="#4dd2ff" stroke-linecap="round" stroke-linejoin="round" stroke-width=".5" points="38.948 118.963 41.296 120.762 42.678 123.16 43.092 124.06 43.092 125.409 44.612 130.056 45.164 132.754 46.269 135.752 46.546 137.251 47.236 138 47.651 137.85 48.065 137.251 46.546 136.201 44.059 132.604 41.158 124.659 40.467 120.162 39.777 118.364"><title>2023-11-09 1.0km</title><desc>10185506531</desc></polyline><polyline fill="none" stroke="#4dd2ff" stroke-linecap="round" stroke-linejoin="round" stroke-width=".5" points="62.273 119.94 63.726 122.807 64.255 124.24 65.972 127.967 66.632 130.547 66.5 128.97 66.764 129.973 67.293 133.843 68.482 137.427 69.01 138 69.67 137.713 69.935 137.283 68.482 135.993 67.425 134.273 66.764 132.41 65.84 129.257 64.519 127.394 63.066 124.24 62.67 121.947 62.802 119.08 62.537 118.364"><title>2023-11-08 1.0km</title><desc>10179505859</desc></polyline><polyline fill="none" stroke="#4dd2ff" stroke-linecap="round" stroke-linejoin="round" stroke-width=".5" points="87.815 129.212 92.245 138 92.498 137.863 91.865 136.352 90.726 134.43 89.967 132.507 88.448 130.86 87.942 129.898 87.562 126.603 87.309 125.641 85.791 123.032 84.905 118.364"><title>2023-11-06 1.0km</title><desc>10167691585</desc></polyline><polyline fill="none" stroke="#4dd2ff" stroke-linecap="round" stroke-linejoin="round" stroke-width=".5" points="109.411 123.873 110.322 125.568 113.707 133.338 115.139 137.717 115.4 138 115.66 138 115.66 137.576 114.619 135.316 113.707 134.044 113.577 133.338 112.796 132.491 110.583 128.676 107.979 122.037 106.937 118.364"><title>2023-11-05 1.1km</title><desc>10161301187</desc></polyline><polyline fill="none" stroke="#4dd2ff" stroke-linecap="round" stroke-linejoin="round" stroke-width=".5" points="130.224 118.364 132.847 124.198 134.027 129.32 135.863 132.877 136.519 135.723 137.174 138 137.568 137.573 137.437 137.146 135.732 134.016 135.601 133.589 134.027 131.17 133.372 128.893 131.667 125.763 131.273 123.059 130.487 120.213"><title>2023-11-04 1.0km</title><desc>10155501797</desc></polyline><polyline fill="none" stroke="#4dd2ff" stroke-linecap="round" stroke-linejoin="round" stroke-width=".5" points="161.762 121.346 160.273 119.358 159.357 118.736 157.524 118.364 155.806 118.488 153.401 119.606 152.371 120.601 151.454 122.465 151.225 123.956 150.882 128.928 151.111 134.147 151.34 134.893 152.485 136.757 153.859 137.751 156.15 138 158.211 137.13 160.158 134.769 160.731 133.65 161.533 130.046 161.533 127.188 162.105 123.459 161.991 122.092 160.731 120.601 159.7 119.855 157.295 118.736 156.035 118.736 153.287 119.606 152.027 120.725 151.225 122.216 150.996 123.211 151.225 127.312 150.996 129.176"><title>2023-11-03 1.0km</title><desc>10152446508</desc></polyline><polyline fill="none" stroke="#4dd2ff" stroke-linecap="round" stroke-linejoin="round" stroke-width=".5" points="175.027 118.364 176.1 120.693 177.021 124.854 178.554 127.849 180.855 133.84 181.315 134.838 182.081 137.501 182.541 138 183.155 138 183.155 137.667 182.081 137.168 181.621 136.003 180.548 135.005 179.781 132.841 178.708 131.177 177.481 128.681 176.1 123.522 175.18 121.359"><title>2023-11-02 1.1km</title><desc>10144903556</desc></polyline><polyline fill="none" stroke="#4dd2ff" stroke-linecap="round" stroke-linejoin="round" stroke-width=".5" points="17.565 141.605 17.827 143.17 18.877 145.589 20.712 152.134 23.86 158.68 24.778 159.818 24.253 158.111 22.286 155.123 21.237 151.281 19.926 149.431 18.352 146.016 17.041 140.182"><title>2023-11-01 1.0km</title><desc>10138966680</desc></polyline><polyline fill="none" stroke="#4dd2ff" stroke-linecap="round" stroke-linejoin="round" stroke-width=".5" points="40.649 140.477 41.329 142.692 42.418 148.597 44.187 152.436 45.275 155.98 47.044 159.818 47.18 159.671 45.956 157.899 44.187 153.765 42.69 151.107 40.105 143.282 39.833 140.182"><title>2023-10-31 1.0km</title><desc>10133123337</desc></polyline><polyline fill="none" stroke="#4dd2ff" stroke-linecap="round" stroke-linejoin="round" stroke-width=".5" points="63.021 142.509 63.691 146 63.691 147.309 65.166 149.782 69.187 158.364 69.857 159.673 70.125 159.818 67.042 153.709 65.702 149.927 64.227 146.873 62.082 140.182"><title>2023-10-30 1.0km</title><desc>10127985445</desc></polyline><polyline fill="none" stroke="#4dd2ff" stroke-linecap="round" stroke-linejoin="round" stroke-width=".5" points="85.606 143.024 86.201 147.029 86.558 148.321 88.939 153.876 90.13 157.105 91.916 159.56 92.392 159.818 92.511 159.431 91.44 157.751 89.892 154.392 87.154 149.354 86.082 145.608 85.249 143.928 85.13 141.345 84.892 140.182"><title>2023-10-28 1.0km</title><desc>10115543824</desc></polyline><polyline fill="none" stroke="#4dd2ff" stroke-linecap="round" stroke-linejoin="round" stroke-width=".5" points="108.752 144.255 109.824 147.745 111.031 150.509 112.103 154.436 113.712 158.218 114.382 159.673 115.052 159.818 115.186 159.673 114.918 158.8 114.114 156.618 111.433 151.382 109.288 145.564 107.948 142.655 107.411 140.182"><title>2023-10-27 1.0km</title><desc>10110442644</desc></polyline><polyline fill="none" stroke="#4dd2ff" stroke-linecap="round" stroke-linejoin="round" stroke-width=".5" points="131.235 143.214 133.763 151.733 134.694 154.332 135.626 155.92 136.69 158.952 137.09 159.529 137.888 159.818 138.021 159.385 137.888 158.807 136.557 157.075 134.561 153.61 132.166 146.535 130.57 143.936 129.771 140.182"><title>2023-10-26 1.0km</title><desc>10104873905</desc></polyline><polyline fill="none" stroke="#4dd2ff" stroke-linecap="round" stroke-linejoin="round" stroke-width=".5" points="155.51 149.573 158.526 157.115 159.969 159.676 160.493 159.818 160.362 158.395 156.821 152.277 154.854 147.296 153.15 143.739 152.494 140.182"><title>2023-10-25 1.0km</title><desc>10098978222</desc></polyline><polyline fill="none" stroke="#4dd2ff" stroke-linecap="round" stroke-linejoin="round" stroke-width=".5" points="175.458 140.182 175.326 141.185 176.119 144.482 177.176 146.632 177.836 149.212 179.025 152.652 181.535 157.525 182.327 159.532 182.591 159.818 182.855 159.675 182.723 157.812 181.27 155.088 180.214 153.512 178.893 150.502 178.629 148.925 177.044 146.488 176.119 144.338 175.855 141.758 175.458 140.182"><title>2023-10-24 1.0km</title><desc>10092835699</desc></polyline><polyline fill="none" stroke="#4dd2ff" stroke-linecap="round" stroke-linejoin="round" stroke-width=".5" points="18.891 165.39 20.844 172.313 21.755 174.008 22.797 178.246 24.359 181.071 25.01 181.636 24.359 180.93 23.448 178.67 21.104 175.844 20.584 174.855 20.063 171.606 18.501 168.498 17.459 165.249 16.808 162"><title>2023-10-23 1.0km</title><desc>10087395010</desc></polyline><polyline fill="none" stroke="#4dd2ff" stroke-linecap="round" stroke-linejoin="round" stroke-width=".5" points="37.149 162.094 37.496 162 39.97 162.188 41.055 162.471 41.315 162.612 41.879 163.036 42.27 163.507 43.138 165.108 43.572 166.897 44.136 167.839 44.396 168.593 45.004 169.958 45.438 171.371 46.089 172.501 46.392 172.831 46.783 173.49 47 174.903 47.13 175.279 47.477 175.797 47.564 176.598 47.694 176.927 49.604 181.448 49.864 181.636 49.864 181.401 49.473 181.024 49.04 179.988 48.606 179.094 47.434 175.468"><title>2023-10-22 1.5km</title><desc>10080655811</desc></polyline><polyline fill="none" stroke="#4dd2ff" stroke-linecap="round" stroke-linejoin="round" stroke-width=".5" points="62.981 162 63.67 162.498 62.43 162.299 64.359 164.791 64.542 165.389 64.405 165.887 63.761 166.236 63.578 166.585 63.624 167.183 63.991 168.629 64.405 169.675 64.864 171.27 65.691 172.715 65.828 173.264 66.334 174.161 66.655 174.559 66.701 174.809 67.022 175.108 67.252 175.606 67.574 176.553 67.895 177.201 67.849 178.497 68.446 179.643 68.63 180.191 68.952 180.789 69.503 181.487 69.778 181.636 68.722 180.141 68.492 179.344 68.033 178.347 67.849 177.699 67.252 176.852 66.747 175.407"><title>2023-10-20 1.4km</title><desc>10069668027</desc></polyline><polyline fill="none" stroke="#4dd2ff" stroke-linecap="round" stroke-linejoin="round" stroke-width=".5" points="84.75 162 84.844 162.761 85.592 164.588 85.779 165.704 87.322 169.459 87.462 169.966 87.556 170.727 87.743 171.235 88.865 172.808 89.473 174.025 89.847 175.243 90.174 175.903 90.361 176.918 90.595 177.425 91.203 178.998 91.296 179.607 92.185 181.433 92.419 181.636 92.559 181.636 92.653 181.586 92.606 181.535 91.671 180.368 91.25 178.947 90.361 177.324 90.221 176.664 90.127 175.548"><title>2023-10-19 1.3km</title><desc>10064004415</desc></polyline><polyline fill="none" stroke="#4dd2ff" stroke-linecap="round" stroke-linejoin="round" stroke-width=".5" points="106.871 162 108.796 164.507 108.668 166.317 108.924 168.128 109.823 171.331 111.106 173.42 112.39 177.041 114.956 181.219 115.342 181.636 115.727 181.497 114.058 179.826 110.978 173.838 110.208 171.192 108.026 166.596"><title>2023-10-18 1.0km</title><desc>10058081424</desc></polyline><polyline fill="none" stroke="#4dd2ff" stroke-linecap="round" stroke-linejoin="round" stroke-width=".5" points="130.469 163.19 131.566 169.587 134.444 177.174 136.364 181.19 137.186 181.636 137.598 181.636 137.872 181.041 136.912 179.851 135.678 177.917 134.033 174.347 133.348 172.264 130.469 166.463 130.195 165.57 129.92 162"><title>2023-10-17 1.0km</title><desc>10051702317</desc></polyline><polyline fill="none" stroke="#4dd2ff" stroke-linecap="round" stroke-linejoin="round" stroke-width=".5" points="152.109 162.453 153.501 164.87 155.589 170.308 156.702 172.422 157.955 176.35 159.486 180.277 160.043 181.334 160.739 181.636 160.878 181.485 160.739 181.032 159.208 178.766 157.12 173.631 155.589 170.459 154.336 164.568 153.64 162"><title>2023-10-16 1.0km</title><desc>10046279660</desc></polyline><polyline fill="none" stroke="#4dd2ff" stroke-linecap="round" stroke-linejoin="round" stroke-width=".5" points="175.069 162 175.644 163.247 176.218 166.052 177.511 170.416 179.235 173.065 181.245 180.545 181.963 181.325 182.969 181.636 183.112 181.325 182.969 180.39 181.102 177.74 180.096 174.623 178.947 172.753 176.218 166.364 175.213 162"><title>2023-10-15 1.0km</title><desc>10039610121</desc></polyline><polyline fill="none" stroke="#4dd2ff" stroke-linecap="round" stroke-linejoin="round" stroke-width=".5" points="16.823 185.243 17.261 189.836 18.428 193.161 19.888 195.22 20.763 198.07 23.244 202.504 23.828 203.138 24.558 203.455 24.995 203.138 24.995 202.663 22.077 200.287 20.179 196.804 19.45 193.795 17.698 189.836 16.823 186.51 16.969 184.452 16.823 183.818"><title>2023-10-14 1.0km</title><desc>10033377496</desc></polyline><polyline fill="none" stroke="#4dd2ff" stroke-linecap="round" stroke-linejoin="round" stroke-width=".5" points="39.054 184.13 41.639 187.247 41.927 189.584 44.368 197.065 46.666 202.519 47.384 203.455 47.959 203.455 47.959 202.987 47.815 202.519 46.523 201.584 45.086 198.935 43.506 193.948 40.634 187.558 40.203 185.377 39.485 183.818"><title>2023-10-13 1.0km</title><desc>10028006924</desc></polyline><polyline fill="none" stroke="#4dd2ff" stroke-linecap="round" stroke-linejoin="round" stroke-width=".5" points="61.891 183.818 63.272 185.617 64.101 187.116 64.239 189.065 64.101 191.163 65.62 194.311 67.416 199.108 69.212 202.405 69.626 203.005 70.317 203.455 70.317 202.705 68.798 200.756 67.416 198.358 65.62 193.412 64.515 191.463 63.963 189.814"><title>2023-10-12 1.0km</title><desc>10021974100</desc></polyline><polyline fill="none" stroke="#4dd2ff" stroke-linecap="round" stroke-linejoin="round" stroke-width=".5" points="86.405 186.602 86.946 189.533 86.811 190.706 88.026 194.662 88.971 196.421 89.917 199.645 91.267 202.868 91.537 203.161 92.213 203.455 92.077 202.868 90.592 199.058 88.971 196.274 86.811 191.292 86.27 189.387 86 186.602 85.19 183.818"><title>2023-10-10 1.0km</title><desc>10009069592</desc></polyline><polyline fill="none" stroke="#4dd2ff" stroke-linecap="round" stroke-linejoin="round" stroke-width=".5" points="107.972 186.273 108.904 188.872 109.835 192.337 111.831 196.668 113.428 202.155 114.359 203.455 114.625 203.021 114.758 201.433 113.827 198.69 111.831 195.225 109.569 188.872 108.904 185.984 107.839 183.818"><title>2023-10-09 1.0km</title><desc>10003389142</desc></polyline><polyline fill="none" stroke="#4dd2ff" stroke-linecap="round" stroke-linejoin="round" stroke-width=".5" points="129.898 183.818 130.88 185.036 131.862 187.319 132.423 191.886 134.527 196.452 136.351 201.628 137.193 203.15 137.894 203.455 137.894 202.237 135.229 197.975 131.722 189.45 130.319 183.97"><title>2023-10-08 1.0km</title><desc>9996447828</desc></polyline><polyline fill="none" stroke="#4dd2ff" stroke-linecap="round" stroke-linejoin="round" stroke-width=".5" points="153.973 187.745 154.619 190.13 156.558 195.32 157.204 197.564 159.273 202.753 159.919 203.455 160.048 202.894 160.048 202.332 157.592 197.984 156.429 195.46 154.361 189.288 153.714 186.062 152.939 183.818"><title>2023-10-07 1.0km</title><desc>9989974159</desc></polyline><polyline fill="none" stroke="#4dd2ff" stroke-linecap="round" stroke-linejoin="round" stroke-width=".5" points="177.487 189.667 178.513 193.01 179.283 194.681 180.824 201.226 181.209 202.48 181.979 203.455 182.62 203.455 182.877 202.897 182.749 202.48 181.209 200.251 179.668 196.909 179.155 194.681 176.46 188.135 176.075 185.768 175.305 183.818"><title>2023-10-06 1.0km</title><desc>9984428862</desc></polyline><polyline fill="none" stroke="#4dd2ff" stroke-linecap="round" stroke-linejoin="round" stroke-width=".5" points="16.682 205.636 18.907 211.592 20.39 216.581 22.912 222.858 23.95 224.951 24.395 225.273 24.988 225.273 25.137 224.951 24.692 224.146 22.912 221.571 21.873 219.478 20.093 214.811 19.352 212.396 17.275 208.534 17.275 207.085"><title>2023-10-04 1.0km</title><desc>9971682885</desc></polyline><polyline fill="none" stroke="#4dd2ff" stroke-linecap="round" stroke-linejoin="round" stroke-width=".5" points="40.534 207.93 41.195 210.223 41.855 211.8 42.384 214.236 44.893 219.253 45.026 220.973 45.818 224.413 46.082 224.843 46.875 225.273 46.875 223.839 45.158 220.686 43.969 217.963 43.308 216.673 42.648 214.81 41.327 212.086 40.799 209.936 40.534 207.786 40.138 205.636"><title>2023-10-03 1.0km</title><desc>9965060084</desc></polyline><polyline fill="none" stroke="#4dd2ff" stroke-linecap="round" stroke-linejoin="round" stroke-width=".5" points="62.515 206.448 64.309 212.29 64.608 214.887 65.655 216.185 66.403 218.132 67.749 223.163 68.796 224.786 69.544 225.273 69.693 225.11 69.245 223.812 67.599 220.729 64.907 214.237 63.262 209.369 62.963 205.636"><title>2023-10-02 1.0km</title><desc>9958643020</desc></polyline><polyline fill="none" stroke="#4dd2ff" stroke-linecap="round" stroke-linejoin="round" stroke-width=".5" points="85.589 209.092 85.878 210.506 89.063 218.047 90.656 222.916 91.524 224.644 92.393 225.273 92.538 225.116 92.393 224.487 89.498 220.089 86.747 213.334 85.444 209.249 84.865 205.636"><title>2023-10-01 1.0km</title><desc>9952075403</desc></polyline><polyline fill="none" stroke="#4dd2ff" stroke-linecap="round" stroke-linejoin="round" stroke-width=".5" points="108.479 208.482 109.66 210.901 110.184 213.32 110.577 215.597 112.544 221.146 114.249 224.704 115.036 225.273 115.298 224.846 112.676 220.862 111.495 218.158 111.102 216.735 109.266 212.751 108.217 208.34 107.299 205.636"><title>2023-09-30 1.0km</title><desc>9945549317</desc></polyline><polyline fill="none" stroke="#4dd2ff" stroke-linecap="round" stroke-linejoin="round" stroke-width=".5" points="130.856 205.636 132.159 207.836 132.593 209.564 133.751 212.391 134.33 216.633 134.765 217.889 136.502 222.131 136.936 224.801 137.226 225.116 137.66 225.273 137.805 224.959 135.199 220.246 133.462 216.161 132.883 213.805 130.856 209.092 129.987 206.265"><title>2023-09-28 1.0km</title><desc>9933629332</desc></polyline><polyline fill="none" stroke="#4dd2ff" stroke-linecap="round" stroke-linejoin="round" stroke-width=".5" points="152.655 207.868 153.752 211.736 155.808 214.562 157.179 219.62 159.098 223.041 159.647 224.975 160.195 225.273 160.469 224.826 160.195 224.231 159.098 222.744 155.945 216.347 154.3 211.884 152.518 205.636"><title>2023-09-27 1.0km</title><desc>9927137811</desc></polyline><polyline fill="none" stroke="#4dd2ff" stroke-linecap="round" stroke-linejoin="round" stroke-width=".5" points="180.722 205.636 180.331 207.525 179.939 208.61 179.635 209.932 177.851 213.661 176.938 215.219 176.764 215.879 176.851 216.399 177.068 217.154 177.721 218.759 177.938 219.184 178.199 219.939 179.069 221.025 179.461 221.874 179.896 222.535 180.244 223.479 180.766 224.187 181.418 225.273"><title>2023-09-26 1.0km</title><desc>9920397094</desc></polyline><polyline fill="none" stroke="#4dd2ff" stroke-linecap="round" stroke-linejoin="round" stroke-width=".5" points="20.817 227.455 19.961 230.307 19.106 231.833 18.311 232.828 17.883 233.624 17.699 234.42 17.761 235.415 18.066 236.211 18.8 237.339 19.106 238.467 19.717 239.926 20.879 241.386 22.835 245.366 24.119 247.091"><title>2023-09-25 1.0km</title><desc>9914573673</desc></polyline><polyline fill="none" stroke="#4dd2ff" stroke-linecap="round" stroke-linejoin="round" stroke-width=".5" points="44.954 227.455 44.472 228.188 44.375 228.554 44.472 229.025 44.52 229.497 43.555 231.277 43.313 232.482 42.976 233.372 40.949 236.932 40.901 237.351 41.094 238.189 41.624 239.027 41.914 239.76 42.348 240.493 42.59 241.226 43.217 242.221 43.7 243.216 44.23 243.792 44.375 244.316 44.713 244.735 45.437 245.991 45.968 246.567 46.112 247.091"><title>2023-09-24 1.0km</title><desc>9907510217</desc></polyline><polyline fill="none" stroke="#4dd2ff" stroke-linecap="round" stroke-linejoin="round" stroke-width=".5" points="66.836 227.455 66.426 228.09 66.133 228.726 65.957 229.552 65.899 230.632 64.903 231.967 64.318 233.492 63.791 234.254 63.439 235.271 63.381 236.351 64.611 239.465 65.079 240.418 66.602 242.833 67.246 244.422 68.066 245.439 68.534 246.265 68.827 247.091"><title>2023-09-23 1.0km</title><desc>9901004991</desc></polyline><polyline fill="none" stroke="#4dd2ff" stroke-linecap="round" stroke-linejoin="round" stroke-width=".5" points="89.455 227.455 89.064 228.182 88.673 229.455 87.78 231.333 86.886 232.606 86.104 234.727 86.048 235.879 86.16 236.546 87.277 239.212 87.445 240 87.668 240.424 88.45 241.394 89.064 242.606 89.567 243.879 90.405 245.091 91.354 247.091"><title>2023-09-22 1.0km</title><desc>9895405405</desc></polyline><polyline fill="none" stroke="#4dd2ff" stroke-linecap="round" stroke-linejoin="round" stroke-width=".5" points="112.34 227.455 112.179 228.034 111.859 228.381 111.165 229.656 110.898 230.582 110.098 232.61 109.244 234.348 108.71 235.622 108.55 236.259 108.55 236.665 108.71 237.244 109.03 237.823 109.724 239.619 110.418 240.893 110.792 241.82 111.486 242.978 111.913 243.5 112.233 244.426 113.087 245.932 114.048 247.091"><title>2023-09-21 1.0km</title><desc>9889267953</desc></polyline><polyline fill="none" stroke="#4dd2ff" stroke-linecap="round" stroke-linejoin="round" stroke-width=".5" points="135.895 227.455 135.195 229.557 134.782 231.212 134.123 232.599 133.34 234.924 131.979 237.474 131.608 238.861 131.65 239.174 131.897 239.845 132.433 241.008 132.763 241.992 133.587 243.155 134.082 244.094 134.37 244.765 134.7 245.346 135.236 245.749 135.895 246.733 135.937 246.912 136.184 247.091"><title>2023-09-20 1.0km</title><desc>9882714971</desc></polyline><polyline fill="none" stroke="#4dd2ff" stroke-linecap="round" stroke-linejoin="round" stroke-width=".5" points="158.122 227.455 157.703 228.515 156.912 230.837 156.866 231.594 156.587 231.998 156.261 232.755 156.075 233.462 155.703 234.421 154.633 236.137 154.354 237.147 154.261 238.055 154.354 238.964 154.633 239.973 154.958 240.68 155.982 242.447 156.494 243.154 156.959 244.416 157.424 245.223 157.889 245.879 158.401 246.384 158.726 247.091"><title>2023-09-19 1.0km</title><desc>9876194288</desc></polyline><polyline fill="none" stroke="#4dd2ff" stroke-linecap="round" stroke-linejoin="round" stroke-width=".5" points="178.946 227.455 178.599 228.019 178.021 229.148 177.848 229.901 176.807 231.721 175.998 233.415 175.824 234.042 175.882 234.732 176.229 235.61 176.749 236.551 177.212 237.869 177.848 239.249 178.542 240.504 179.178 241.319 179.929 242.574 180.392 244.017 181.201 245.272 181.606 246.401 182.357 247.091"><title>2023-09-18 1.0km</title><desc>9870505463</desc></polyline><polyline fill="none" stroke="#4dd2ff" stroke-linecap="round" stroke-linejoin="round" stroke-width=".5" points="21.106 249.273 20.825 249.823 20.43 251.658 19.923 252.515 19.697 253.188 18.457 255.207 18.006 256.308 17.724 257.286 17.949 257.959 19.19 260.651 19.81 261.63 20.261 262.67 20.994 263.648 21.388 264.321 21.896 265.912 24.094 268.909"><title>2023-09-16 1.0km</title><desc>9856514700</desc></polyline><polyline fill="none" stroke="#4dd2ff" stroke-linecap="round" stroke-linejoin="round" stroke-width=".5" points="43.235 249.273 42.632 251.105 41.848 252.349 40.219 255.491 40.159 256.211 40.219 257.062 40.581 257.913 41.184 258.829 41.727 260.073 42.692 261.709 43.899 264 44.019 264.851 44.441 265.178 44.924 265.833 45.708 267.142 46.553 267.862 46.734 268.32 46.854 268.909"><title>2023-09-15 1.0km</title><desc>9850671982</desc></polyline><polyline fill="none" stroke="#4dd2ff" stroke-linecap="round" stroke-linejoin="round" stroke-width=".5" points="66.603 249.273 65.605 251.914 64.481 253.539 63.982 254.419 63.233 256.315 63.046 256.992 63.046 257.534 63.233 258.211 63.982 260.242 64.669 261.596 66.353 264.508 67.04 265.794 67.165 266.539 67.664 267.013 68.475 268.3 69.162 268.909"><title>2023-09-14 1.0km</title><desc>9844236351</desc></polyline><polyline fill="none" stroke="#4dd2ff" stroke-linecap="round" stroke-linejoin="round" stroke-width=".5" points="85.58 249.273 85.94 249.565 86.074 249.857 86.164 250.491 86.434 251.027 86.613 252.537 86.613 253.268 86.523 253.658 86.613 254.145 86.838 254.73 86.748 255.217 86.793 255.461 87.242 256.289 87.646 257.507 88.005 258.19 88.454 258.823 88.948 259.262 89.083 259.554 89.218 260.187 89.577 260.821 89.981 261.99 90.52 263.013 90.789 263.89 90.924 264.621 91.193 265.206 91.687 266.814 92.361 268.081 92.406 268.276 92.361 268.422 91.822 268.909 92.092 268.714 92.226 268.422 92.316 268.178 92.271 267.837 92.002 267.496 91.193 265.742 90.789 264.426 89.936 262.526 89.532 260.675 89.308 260.139 88.454 259.018 87.601 257.41 87.197 256.094 87.062 255.217 86.703 254.292 85.985 252.732 85.805 252.001 85.176 250.832 85.042 250.199 84.997 249.419"><title>2023-09-13 1.0km</title><desc>9837636972</desc></polyline></svg>