<?xml version="1.0" encoding="utf-8" ?>
<svg baseProfile="full" height="300mm" version="1.1" viewBox="0,0,200,300" width="200mm" xmlns="http://www.w3.org/2000/svg" xmlns:ev="http://www.w3.org/2001/xml-events" xmlns:xlink="http://www.w3.org/1999/xlink"><defs /><rect fill="#222222" height="300" width="200" x="0" y="0" /><text fill="#FFFFFF" style="font-size:12px; font-family:Arial; font-weight:bold;" x="10" y="20">Over 1km Runs</text><text fill="#FFFFFF" style="font-size:4px; font-family:Arial" x="10" y="280">ATHLETE</text><text fill="#FFFFFF" style="font-size:9px; font-family:Arial" x="10" y="290">Jiakai</text><text fill="#FFFFFF" style="font-size:4px; font-family:Arial" x="120" y="280">STATISTICS</text><text fill="#FFFFFF" style="font-size:3px; font-family:Arial" x="120" y="285">Number: 66</text><text fill="#FFFFFF" style="font-size:3px; font-family:Arial" x="120" y="290">Weekly: 6.0</text><text fill="#FFFFFF" style="font-size:3px; font-family:Arial" x="141" y="285">Total: 68.4 km</text><text fill="#FFFFFF" style="font-size:3px; font-family:Arial" x="141" y="290">Avg: 1.0 km</text><text fill="#FFFFFF" style="font-size:3px; font-family:Arial" x="167" y="285">Min: 1.0 km</text><text fill="#FFFFFF" style="font-size:3px; font-family:Arial" x="167" y="290">Max: 1.5 km</text><polyline fill="none" points="18.066944253630936,31.200000000186265 19.6722731301561,35.380660529015586 21.117069118656218,41.30325031816028 22.56186510808766,44.612926399102435 22.882930883206427,46.70324575249106 23.68559532240033,48.61937020649202 25.451457086019218,51.929036068264395 26.2541215242818,52.800000000046566 26.575187298469245,52.800000000046566 24.167193984612823,47.57421160512604 23.84612820856273,45.83227957924828 22.24079933296889,43.56776603101753 19.030141579918563,34.85807836684398 17.424812702462077,31.896777267567813" stroke="#4dd2ff" stroke-linecap="round" stroke-linejoin="round" stroke-width="0.5"><title>2023-11-25 1.0km</title><desc>10275889695</desc></polyline><polyline fill="none" points="43.81414107698947,31.401869946159422 44.93037012219429,36.44861375866458 50.13943900447339,50.57944708853029 51.44170622434467,52.59813162800856 51.99982074741274,52.800000000046566 52.18585892301053,52.19439483853057 50.32547717820853,49.771972857415676 48.09301908686757,43.11030138889328 46.6047136913985,40.082263560267165 45.67452282086015,34.22804762376472 44.55829377472401,31.199999999953434" stroke="#4dd2ff" stroke-linecap="round" stroke-linejoin="round" stroke-width="0.5"><title>2023-11-24 1.0km</title><desc>10271180196</desc></polyline><polyline fill="none" points="71.31426128279418,33.60000988165848 71.78821517433971,34.971442989772186 72.8941075867042,40.800024702679366 75.57984630484134,49.02858584676869 76.84372334834188,52.457144420361146 77.3176772389561,52.800000000046566 77.94961576070637,52.800000000046566 78.10760039184242,52.457144420361146 77.79163113050163,50.74286576360464 76.05380019638687,45.771450532600284 71.47224591299891,35.828588273143396 69.8923996090889,31.200000000186265" stroke="#4dd2ff" stroke-linecap="round" stroke-linejoin="round" stroke-width="0.5"><title>2023-11-23 1.0km</title><desc>10265414399</desc></polyline><polyline fill="none" points="98.10752255516127,36.06762531620916 98.24770607007667,38.197207790915854 98.80844012741,41.54369010857772 101.0513763576746,47.93241404858418 101.75229392945766,50.97465661051683 102.87376204458997,52.800000000046566 103.71486313082278,52.800000000046566 103.5746796168387,51.887328506447375 102.0326609578915,47.93241404858418 100.77100932877511,45.95495398482308 98.94862364185974,40.326788074104115 96.84587092557922,34.54649363504723 96.28513686871156,31.20000000006985" stroke="#4dd2ff" stroke-linecap="round" stroke-linejoin="round" stroke-width="0.5"><title>2023-11-21 1.0km</title><desc>10253878272</desc></polyline><polyline fill="none" points="123.67520384350792,37.03359808633104 124.40170264197513,41.76353083085269 127.45299759786576,49.489065213128924 128.76069543603808,52.32700962922536 129.19659471558407,52.800000000046566 129.48719423543662,52.642336554825306 129.63249399513006,52.32700962922536 129.05129495589063,49.804392555728555 126.43589927954599,44.12849329179153 125.41880096122622,41.13287373445928 123.82050360320136,34.983957323478535 122.94870504410937,33.40730924997479 122.36750600486994,31.20000000006985" stroke="#4dd2ff" stroke-linecap="round" stroke-linejoin="round" stroke-width="0.5"><title>2023-11-20 1.0km</title><desc>10248671423</desc></polyline><polyline fill="none" points="148.1545084938407,33.00000800623093 150.26575873233378,37.58183999871835 150.86897308658808,42.32729890511837 152.5278125591576,46.090931533137336 154.18665203265846,50.83637229795568 154.9406699752435,51.98182200116571 155.8454915061593,52.800000000046566 155.69468791782856,51.49091505771503 153.13102691341192,44.78184264502488 151.4721874408424,38.727296523051336 149.81334796734154,34.80001455673482 148.90852643642575,31.20000000006985" stroke="#4dd2ff" stroke-linecap="round" stroke-linejoin="round" stroke-width="0.5"><title>2023-11-19 1.0km</title><desc>10242265034</desc></polyline><polyline fill="none" points="173.80197449494153,50.44551390595734 174.74535101279616,47.47680837207008 175.12270162068307,46.760223329183646 175.78306518262252,46.3507459963439 178.99054534407333,45.94126854289789 181.34898663917556,45.42942155664787 182.1036878535524,44.815204924787395 182.57537611294538,44.200988022144884 183.14140202384442,41.641748010064475 182.95272671990097,40.82279021234717 183.33007732685655,40.20857154822443 183.04706437140703,35.49955278390553 182.8583890683949,34.885331770870835 182.7640514159575,33.042667104979046 182.57537611294538,31.916593053145334 181.53766194311902,31.609481789870188 180.68862307677045,32.22370424831752 180.87729838024825,31.916593053145334 181.06597368372604,32.22370424831752 179.8395842104219,31.609481789870188 179.74524655891582,31.20000000006985 179.46223360300064,31.404740909929387 179.6509089069441,31.302370458841324 178.99054534407333,32.121333857416175 179.08488299604505,32.01896345906425 181.06597368372604,33.042667104979046 180.59428542479873,33.45214835263323 179.8395842104219,33.75925920938607 178.0471688262187,34.06636999826878 177.95283117424697,33.65688893117476 178.42451943317428,33.45214835263323 179.08488299604505,33.55451864562929 181.06597368372604,31.609481789870188 183.80176558578387,31.711852218490094 183.5187526308,31.50711135356687 183.14140202384442,31.404740909929387 182.8583890683949,36.318513713311404 182.95272671990097,37.751694180537015 183.23573967488483,39.49198276386596 183.42441497929394,42.460705325822346 183.42441497929394,43.48440129298251 183.14140202384442,44.508096507168375 182.57537611294538,45.1223132746527 177.8584935227409,45.634160373709165 175.68872753111646,46.043637917609885 174.55667570978403,46.86259264359251 173.2359485840425,48.705239015980624 172.48124736966565,51.36683502572123 172.19823441421613,52.800000000046566" stroke="#4dd2ff" stroke-linecap="round" stroke-linejoin="round" stroke-width="0.5"><title>2023-11-18 1.0km</title><desc>10236386505</desc></polyline><polyline fill="none" points="17.59222913486883,55.20000000006985 20.720324587542564,60.60002084262669 21.857813843060285,64.61145590234082 22.28437231387943,66.92574187146965 23.13748925551772,68.31431222811807 25.839026236906648,76.18286022823304 26.40777086513117,76.80000000004657 26.40777086513117,76.18286022823304 25.839026236906648,75.41143525834195 24.27497851056978,70.78287948272191 23.42186156893149,69.24002528889105 23.13748925551772,66.61717055668123 21.857813843060285,63.3771690079011 20.435952273663133,60.29144859779626 20.29376611672342,58.594300437602215" stroke="#4dd2ff" stroke-linecap="round" stroke-linejoin="round" stroke-width="0.5"><title>2023-11-17 1.0km</title><desc>10231268371</desc></polyline><polyline fill="none" points="44.147211546078324,55.89677726756781 46.23413862474263,58.85807836661115 46.71573718171567,62.86453866888769 48.160532851703465,66.00002461415716 50.407992783002555,74.36130018369295 51.85278845299035,76.80000000004657 51.692255600355566,75.40645755524747 50.56852563563734,73.14194933418185 49.76586137432605,70.87743894872256 48.48159855604172,65.4774439111352 45.913072920404375,60.077436567051336 45.11040865909308,57.638719538459554 44.62881010212004,55.199999999953434" stroke="#4dd2ff" stroke-linecap="round" stroke-linejoin="round" stroke-width="0.5"><title>2023-11-16 1.0km</title><desc>10225818993</desc></polyline><polyline fill="none" points="70.2542330333963,55.432258849730715 71.32445216644555,59.612915229285136 73.03680277988315,64.25808249553666 75.39128487277776,68.67098507285118 76.2474601790309,72.15485117421485 77.74576696474105,75.17419868800789 79.24407375138253,76.80000000004657 75.39128487277776,69.60001640883274 73.67893426027149,64.25808249553666 68.75592624768615,55.199999999953434" stroke="#4dd2ff" stroke-linecap="round" stroke-linejoin="round" stroke-width="0.5"><title>2023-11-15 1.0km</title><desc>10219684298</desc></polyline><polyline fill="none" points="96.18342350795865,57.79850741662085 98.12912917137146,60.23460534319747 98.42846850398928,63.32032552699093 100.67351350001991,68.67972402321175 102.02054049633443,73.22708224784583 103.3675674945116,76.6375947734341 103.96624615974724,76.80000000004657 103.81657649297267,74.85113648837432 101.87087083049119,72.25264913064893 101.12252249848098,69.97897018573713 99.92516516707838,68.51731819927227 99.47615616861731,66.73085334745701 97.23111117258668,62.183481750427745 96.48276284057647,58.93535344977863 96.03375384118408,55.20000000006985" stroke="#4dd2ff" stroke-linecap="round" stroke-linejoin="round" stroke-width="0.5"><title>2023-11-14 1.0km</title><desc>10213806154</desc></polyline><polyline fill="none" points="123.1150622102432,58.17392605240457 124.26903732679784,62.5565463474486 127.44246889511123,70.6956743884366 128.16370334243402,73.35653642215766 129.6061722380109,76.33043711271603 130.0389129067771,76.80000000004657 129.17343156971037,75.23478997324128 127.15397511608899,70.38263157790061 127.0097282268107,69.13045987405349 125.56725933169946,65.68698389187921 123.40355598926544,61.773936242214404 122.5380746521987,59.11305973213166 121.96108709368855,55.20000000006985" stroke="#4dd2ff" stroke-linecap="round" stroke-linejoin="round" stroke-width="0.5"><title>2023-11-13 1.0km</title><desc>10208522228</desc></polyline><polyline fill="none" points="149.5871427617967,57.654556011315435 151.09517853613943,62.23638665652834 152.9048214647919,66.00002620217856 153.96044650673866,70.41820363525767 155.0160715477541,73.52728620090056 156.37330374494195,76.47272883669939 156.97651805356145,76.80000000004657 157.27812520880252,76.14545762503985 155.61928585730493,72.87274286395404 154.71446439344436,69.2727510688128 151.39678569044918,66.16366255970206 149.5871427617967,63.545479394029826 149.28553560655564,60.7636564061977 146.72187479119748,55.20000000006985" stroke="#4dd2ff" stroke-linecap="round" stroke-linejoin="round" stroke-width="0.5"><title>2023-11-12 1.0km</title><desc>10202270880</desc></polyline><polyline fill="none" points="174.7318393709138,59.22986689361278 178.29710551165044,67.2895784585271 179.48552755825222,71.31942313129548 180.6739496057853,74.54329353687353 181.41671338491142,75.99403367296327 182.15947716403753,76.80000000004657 182.30802992079407,76.1552269620588 180.97105511743575,72.12539117690176 178.44565826747566,68.25674185552634 175.77170866169035,62.13136646989733 174.7318393709138,57.77911566500552 173.69197007920593,55.199999999953434" stroke="#4dd2ff" stroke-linecap="round" stroke-linejoin="round" stroke-width="0.5"><title>2023-11-11 1.0km</title><desc>10196068378</desc></polyline><polyline fill="none" points="19.99192998278886,82.42106411675923 22.436536960303783,89.81054893764667 24.706529153510928,95.87370014633052 25.75421785749495,99.85263537522405 26.45267699379474,100.80000000004657 26.801906562410295,100.42105419188738 26.278062210418284,98.14737817179412 23.658840449526906,92.27370583638549 21.039618687704206,86.7789679847192 17.54732300620526,81.28421841817908 17.198093437589705,79.20000000018626" stroke="#4dd2ff" stroke-linecap="round" stroke-linejoin="round" stroke-width="0.5"><title>2023-11-10 1.0km</title><desc>10191120477</desc></polyline><polyline fill="none" points="42.98549491818994,79.85954506357666 45.568724810145795,81.83817909145728 47.08827180415392,84.47635507921223 47.54413590300828,85.465670274687 47.54413590300828,86.94964224973228 49.21563759725541,92.06109375844244 49.82345639448613,95.02902799856383 51.039093990810215,98.32672810310032 51.343003389425576,99.97557633731049 52.1027768868953,100.80000000004657 52.55864098481834,100.63511529180687 53.01450508274138,99.97557633731049 51.343003389425576,98.82138270081487 48.607818799093366,94.86414286575746 45.416770110838115,86.12521349603776 44.65699661336839,81.17863460932858 43.89722311589867,79.20000000006985" stroke="#4dd2ff" stroke-linecap="round" stroke-linejoin="round" stroke-width="0.5"><title>2023-11-09 1.0km</title><desc>10185506531</desc></polyline><polyline fill="none" points="69.78631037380546,80.9343146024039 71.3846064391546,84.08761028537992 71.96580500761047,85.66425638832152 73.85470035811886,89.76353083131835 74.58119856892154,92.6014854706591 74.4358989270404,90.86718030378688 74.726498211734,91.97082920849789 75.30769678018987,96.22775537776761 76.61539356131107,100.16934614919592 77.19659213069826,100.80000000004657 77.9230903419666,100.48467309738044 78.21368962619454,100.0116826571757 76.61539356131107,98.5927107098978 75.45299642300233,96.70074665301945 74.726498211734,94.65111704124138 73.7094007153064,91.18250862043351 72.25640429276973,89.13287373469211 70.6581082274206,85.66425638832152 70.2222093003802,83.1416220671963 70.36750894226134,79.98832499329001 70.0769096580334,79.20000000006985" stroke="#4dd2ff" stroke-linecap="round" stroke-linejoin="round" stroke-width="0.5"><title>2023-11-08 1.0km</title><desc>10179505859</desc></polyline><polyline fill="none" points="99.02557692071423,91.13289520586841 103.89769231854007,100.80000000004657 104.17609891248867,100.64895183767658 103.48008242761716,98.98742131562904 102.22725275345147,96.87274416279979 101.39203297067434,94.75806483370252 99.72159340558574,92.9454808193259 99.16478021815419,91.88813940575346 98.74717032629997,88.26296471385285 98.46876373235136,87.20562089059968 96.79832416726276,84.33568491286132 95.82390108751133,79.19999999995343" stroke="#4dd2ff" stroke-linecap="round" stroke-linejoin="round" stroke-width="0.5"><title>2023-11-06 1.0km</title><desc>10167691585</desc></polyline><polyline fill="none" points="123.92346751550213,85.26045393233653 124.92593147419393,87.12520549283363 128.64936903119087,95.6719624272082 130.22466953657568,100.48921019840054 130.511087810155,100.80000000004657 130.79750608326867,100.80000000004657 130.79750608326867,100.33381528023165 129.65183298895136,97.84749503829516 128.64936903119087,96.4489386169007 128.50615989463404,95.6719624272082 127.64690507343039,94.73959062295035 125.2123497473076,90.54391241364647 122.34816701058298,83.24030455225147 121.20249391626567,79.20000000006985" stroke="#4dd2ff" stroke-linecap="round" stroke-linejoin="round" stroke-width="0.5"><title>2023-11-05 1.1km</title><desc>10161301187</desc></polyline><polyline fill="none" points="147.96108798496425,79.19999999995343 150.84602513816208,85.61741418659221 152.14424685761333,91.25220093794633 154.1637028651312,95.1652385185007 154.8849371536635,98.29566340509336 155.60617144219577,100.80000000004657 156.03891201503575,100.33043711283244 155.89466515695676,99.8608741221251 154.01945600751787,96.41740902571473 153.8752091494389,95.94784517178778 152.14424685761333,93.28698137763422 151.42301256908104,90.78263594501186 149.54780341964215,87.33915616502054 149.1150628463365,84.36523732787464 148.2495817001909,81.23479195870459" stroke="#4dd2ff" stroke-linecap="round" stroke-linejoin="round" stroke-width="0.5"><title>2023-11-04 1.0km</title><desc>10155501797</desc></polyline><polyline fill="none" points="183.795107210055,82.48102882597595 182.1573595199734,80.293676919071 181.14951478829607,79.61012892005965 179.1338253240101,79.20000000006985 177.2441164511256,79.3367096503498 174.598524028901,80.56709604803473 173.46469870535657,81.66077216272242 172.45685397321358,83.71141314262059 172.20489279041067,85.3519242979819 171.82695101574063,90.82028435869142 172.07891219854355,96.56204510864336 172.33087338181213,97.3822951966431 173.5906792972237,99.43291883275378 175.10244639543816,100.52658384700771 177.62205822579563,100.80000000004657 179.8897088728845,99.84304328868166 182.0313789290376,97.24558687384706 182.66128188651055,96.01521151571069 183.54314602725208,92.05066315515433 183.54314602725208,88.90636016707867 184.17304898425937,84.80508740677033 184.04706839332357,83.30128512752708 182.66128188651055,81.66077216272242 181.5274565629661,80.840515137068 178.88186414074153,79.61012892005965 177.4960776339285,79.61012892005965 174.47254343796521,80.56709604803473 173.0867569311522,81.79748163174372 172.20489279041067,83.43799447582569 171.9529316071421,84.53166890132707 172.20489279041067,89.04306910349987 171.9529316071421,91.09370193921495" stroke="#4dd2ff" stroke-linecap="round" stroke-linejoin="round" stroke-width="0.5"><title>2023-11-03 1.0km</title><desc>10152446508</desc></polyline><polyline fill="none" points="17.52956787124276,103.19999999995343 18.71043673530221,105.76272166171111 19.722610047087073,110.33900378202088 21.4095655689016,113.63392170099542 23.939998848363757,120.2237444575876 24.44608550425619,121.32204655488022 25.28956326469779,124.25084977876395 25.795649921521544,124.80000000004657 26.47043212968856,124.80000000004657 26.47043212968856,124.43389986595139 25.28956326469779,123.88474956410937 24.78347660880536,122.60339838941582 23.60260774474591,121.50509685720317 22.75912998430431,119.12544187624007 21.578261119313538,117.29493649699725 20.228696703910828,114.54917590436526 18.71043673530221,108.87459441879764 17.698263422586024,106.49492736603133" stroke="#4dd2ff" stroke-linecap="round" stroke-linejoin="round" stroke-width="0.5"><title>2023-11-02 1.1km</title><desc>10144903556</desc></polyline><polyline fill="none" points="44.32170485937968,104.76522475562524 44.61019859556109,106.48697065818124 45.764173541683704,109.14784795034211 47.78362969774753,116.34785218513571 51.24555453751236,123.547832070617 52.25528261484578,124.80000000004657 51.678295142017305,122.92174782999791 49.514592117629945,119.63480254472233 48.36061717150733,115.40872257878073 46.91814848827198,113.37394034443423 45.187186068855226,109.61741418624297 43.74471738561988,103.20000000006985" stroke="#4dd2ff" stroke-linecap="round" stroke-linejoin="round" stroke-width="0.5"><title>2023-11-01 1.0km</title><desc>10138966680</desc></polyline><polyline fill="none" points="70.85693746805191,103.5248135945294 71.60528569016606,105.96091402857564 72.80264284554869,112.4571687191492 74.74834822211415,116.67972402344458 75.94570537656546,120.57746021717321 77.89141075406224,124.80000000004657 78.04108039848506,124.63759477273561 76.6940535986796,122.68873111752328 74.74834822211415,118.14137590187602 73.10198213439435,115.2180711774854 70.25825889129192,106.61054035718553 69.95891960151494,103.20000000006985" stroke="#4dd2ff" stroke-linecap="round" stroke-linejoin="round" stroke-width="0.5"><title>2023-10-31 1.0km</title><desc>10133123337</desc></polyline><polyline fill="none" points="96.60859697405249,105.76001119834837 97.34585850220174,109.60002234985586 97.34585850220174,111.04002478462644 98.96783386170864,113.76002678414807 103.39140302594751,123.20000735193025 104.12866455409676,124.64000078791287 104.42356916423887,124.80000000004657 101.03216613829136,118.08002297277562 99.55764308385551,113.92002679605503 97.93566772341728,110.56002407881897 95.57643083576113,103.20000000006985" stroke="#4dd2ff" stroke-linecap="round" stroke-linejoin="round" stroke-width="0.5"><title>2023-10-30 1.0km</title><desc>10127985445</desc></polyline><polyline fill="none" points="122.59501596633345,106.32633072906174 123.24982058815658,110.7316063559847 123.64270336134359,112.15266086801421 126.26192184910178,118.26318336534314 127.57153109228238,121.81580384413246 129.5359449586831,124.51579104084522 130.059788656421,124.80000000004657 130.19074958004057,124.37368654541206 129.0121012609452,122.52632715599611 127.30960924411193,118.83160308073275 124.29750798316672,113.28950372571126 123.11885966314003,109.16844518610742 122.20213319268078,107.32107126468327 122.07117226859555,104.47895409131888 121.80925041995943,103.20000000006985" stroke="#4dd2ff" stroke-linecap="round" stroke-linejoin="round" stroke-width="0.5"><title>2023-10-28 1.0km</title><desc>10115543824</desc></polyline><polyline fill="none" points="149.19840578362346,107.68001762102358 150.3780244011432,111.52002538449597 151.7050953451544,114.56002672552131 152.88471396267414,118.88002132612746 154.65414188895375,123.04000802256633 155.3914035242051,124.64000078849494 156.12866515945643,124.80000000004657 156.27611748687923,124.64000078849494 155.98121283296496,123.68000526994001 155.0964988693595,121.28001462155953 152.1474523274228,115.5200262669241 149.788215091452,109.1200213264674 148.313691820018,105.92001179850195 147.72388251218945,103.20000000006985" stroke="#4dd2ff" stroke-linecap="round" stroke-linejoin="round" stroke-width="0.5"><title>2023-10-27 1.0km</title><desc>10110442644</desc></polyline><polyline fill="none" points="175.07263622339815,106.53530821716413 177.85363181121647,115.90590850834269 178.87820913270116,118.76472762366757 179.90278645511717,120.51178188773338 181.07373196445405,123.84706337715033 181.51283653173596,124.48235450603534 182.39104566443712,124.80000000004657 182.53741385228932,124.32353174127638 182.39104566443712,123.68824056594167 180.92736377567053,121.7823659197893 178.73184094391763,117.97061158227734 176.09721354581416,110.18825892731547 174.34079527948052,107.32942846219521 173.46258614677936,103.20000000006985" stroke="#4dd2ff" stroke-linecap="round" stroke-linejoin="round" stroke-width="0.5"><title>2023-10-26 1.0km</title><desc>10104873905</desc></polyline><polyline fill="none" points="20.918148727156222,137.53046212380286 24.235825966112316,145.82609996548854 25.82254116702825,148.64347904920578 26.399528512265533,148.80000000004657 26.25528167653829,147.23478997312486 22.360617090947926,140.50437374645844 20.196914544329047,135.02611227263696 18.32170567009598,131.11305973259732 17.600471487734467,127.19999999995343" stroke="#4dd2ff" stroke-linecap="round" stroke-linejoin="round" stroke-width="0.5"><title>2023-10-25 1.0km</title><desc>10098978222</desc></polyline><polyline fill="none" points="44.004256311338395,127.20000000006985 43.85895654093474,128.30365490925033 44.730755164287984,131.92994561139494 45.893153328448534,134.2949145049788 46.6196521804668,137.1328737345757 47.927350115031004,140.9168135318905 50.68804575363174,146.27738348336425 51.559844376984984,148.48467309772968 51.85044391779229,148.80000000004657 52.14104345906526,148.64233655459248 51.995743688195944,146.5927107097814 50.397446213290095,143.59710018232 49.23504804959521,141.86279743816704 47.78205034416169,138.55185194103979 47.49145080335438,136.81754511699546 45.74785355757922,134.1372499933932 44.730755164287984,131.772280925652 44.440155623015016,128.9343146022875 44.004256311338395,127.20000000006985" stroke="#4dd2ff" stroke-linecap="round" stroke-linejoin="round" stroke-width="0.5"><title>2023-10-24 1.0km</title><desc>10092835699</desc></polyline><polyline fill="none" points="71.78025935776532,130.92951216874644 73.92839546268806,138.54391241353005 74.93085897853598,140.40865931252483 76.0765315676108,145.07051936292555 77.79504045145586,148.17842035088688 78.51108582038432,148.80000000004657 77.79504045145586,148.02302540978417 76.7925769360736,145.53670480242 74.21481360960752,142.4287999299122 73.64197731530294,141.34103214519564 73.06914102099836,137.7669340533903 71.35063213668764,134.34822587575763 70.20495954761282,130.77411595988087 69.48891417961568,127.20000000006985" stroke="#4dd2ff" stroke-linecap="round" stroke-linejoin="round" stroke-width="0.5"><title>2023-10-23 1.0km</title><desc>10087395010</desc></polyline><polyline fill="none" points="93.00669401115738,127.30359870288521 93.38858102750964,127.19999999995343 96.10952601977624,127.40719739045016 97.30292294616811,127.71799336187541 97.58933820854872,127.87339129624888 98.2099046104122,128.33958489343058 98.6395275038667,128.85757741745329 99.59424504474737,130.6187491499004 100.07160381553695,132.58711234654766 100.69217021740042,133.62309076730162 100.9785854795482,134.45187240705127 101.64688775828108,135.95403664413607 102.12424652907066,137.507996277418 102.84028468490578,138.7511615161202 103.17443582415581,139.11375096417032 103.60405871784315,139.8389293004875 103.84273810312152,141.39288036490325 103.98594573419541,141.80726673663594 104.36783275054768,142.37704759970075 104.46330450498499,143.2576171181281 104.60651213605888,143.620204246894 106.706890726462,148.5928089010995 106.99330598884262,148.79999999998836 106.99330598884262,148.54101111670025 106.56368309538811,148.12662870559143 106.08632432483137,146.9870758180623 105.60896555404179,146.00291502301116 104.32009687367827,142.01445983105805" stroke="#4dd2ff" stroke-linecap="round" stroke-linejoin="round" stroke-width="0.5"><title>2023-10-22 1.5km</title><desc>10080655811</desc></polyline><polyline fill="none" points="122.56446858961135,127.20000000001164 123.32230640063062,127.74823108949931 121.95819834037684,127.5289387020166 124.0801442116499,130.27008890907746 124.28223429480568,130.92796345928218 124.13066673255526,131.47619180753827 123.42335144220851,131.85995141166495 123.22126135905273,132.24371081811842 123.2717838799581,132.90158362674993 123.675964045804,134.49144051817711 124.13066673255526,135.64271408203058 124.63589193997905,137.39703228487633 125.54529731348157,138.98687959113158 125.69686487573199,139.58992423431482 126.25261260382831,140.57672350743087 126.60627024923451,141.0153005431057 126.65679276967421,141.2894110592897 127.01045041508041,141.61834354582243 127.2630630186759,142.16656403418165 127.6167206640821,143.2081818516017 127.97037830925547,143.92086688842392 127.91985578858294,145.3462349184556 128.57664855802432,146.6071351354476 128.7787386411801,147.21017361606937 129.13239628635347,147.86803322046762 129.73866653535515,148.63553535874235 130.041801659856,148.79999999998836 128.879783682758,147.1553519561421 128.62717107892968,146.27820484968834 128.12194587127306,145.18176951550413 127.91985578858294,144.46908568392973 127.2630630186759,143.53711349173682 126.70731529057957,141.94727588724345" stroke="#4dd2ff" stroke-linecap="round" stroke-linejoin="round" stroke-width="0.5"><title>2023-10-20 1.4km</title><desc>10069668027</desc></polyline><polyline fill="none" points="147.6536250980571,127.19999999995343 147.75649787695147,128.0372207518085 148.57948010670952,130.04654678847874 148.78522566426545,131.27446563716512 150.48262651334517,135.4047235508915 150.63693568157032,135.96286478859838 150.7398084604647,136.80007587582804 150.9455540177878,137.3582160877413 152.1800273626577,139.08844813657925 152.84870042465627,140.42797991767293 153.2601915395353,141.76750933506992 153.62024626531638,142.49308678269153 153.82599182263948,143.6093584248447 154.08317376975901,144.16749363043346 154.7518468312919,145.89771016000304 154.8547196101863,146.56747033866122 155.83201100840233,148.57674732932355 156.0891929550562,148.79999999998836 156.24350212328136,148.79999999998836 156.34637490171008,148.7441868383903 156.29493851261213,148.68837367277592 155.26621072529815,147.40466973098228 154.80328322085552,145.84189678513212 153.82599182263948,144.05586662207497 153.67168265464716,143.33029066812014 153.56880987575278,142.10239132016432" stroke="#4dd2ff" stroke-linecap="round" stroke-linejoin="round" stroke-width="0.5"><title>2023-10-19 1.3km</title><desc>10064004415</desc></polyline><polyline fill="none" points="173.12936548842117,127.20000000006985 175.24703266704455,129.95745927596 175.10585485538468,131.9489553726744 175.38821047870442,133.94044956599828 176.3764551631175,137.46385770628694 177.78823328157887,139.76172937103547 179.20001140097156,143.74470092041884 182.0235676402226,148.34042786306236 182.44710107613355,148.80000000004657 182.87063451157883,148.64680929866154 181.0353229562752,146.80852000799496 177.647055469919,140.22130339988507 176.79998859809712,137.31066617183387 174.39996579522267,132.25533921841998" stroke="#4dd2ff" stroke-linecap="round" stroke-linejoin="round" stroke-width="0.5"><title>2023-10-18 1.0km</title><desc>10058081424</desc></polyline><polyline fill="none" points="18.229910842143,152.5090968760196 19.436339372768998,159.54547939426266 22.603214264847338,167.8909274970647 24.714464193210006,172.30909323703963 25.619285590946674,172.80000000004657 26.07169628981501,172.80000000004657 26.37330342270434,172.14545762562193 25.317678458988667,170.83637229795568 23.960446362383664,168.70910699968226 22.150803565979004,164.7818426452577 21.396785735152662,162.49093523877673 18.229910842143,156.1091093159048 17.92830371018499,155.12728831882123 17.62669657729566,151.20000000006985" stroke="#4dd2ff" stroke-linecap="round" stroke-linejoin="round" stroke-width="0.5"><title>2023-10-17 1.0km</title><desc>10051702317</desc></polyline><polyline fill="none" points="43.17660451494157,151.69846386567224 44.70784117653966,154.35693595849443 47.00469616893679,160.33848673303146 48.229685499332845,162.66464109206572 49.607798494398594,166.98463569255546 51.29215882346034,171.30462203593925 51.904653487727046,172.46769387146924 52.67027181852609,172.80000000004657 52.82339548505843,172.63384694198612 52.67027181852609,172.13538769376464 50.985911490395665,169.6430898043327 48.689056497998536,163.99387107940856 47.00469616893679,160.50464069505688 45.62658317387104,154.02462711755652 44.860964843072,151.20000000006985" stroke="#4dd2ff" stroke-linecap="round" stroke-linejoin="round" stroke-width="0.5"><title>2023-10-16 1.0km</title><desc>10046279660</desc></polyline><polyline fill="none" points="69.57642742060125,151.20000000018626 70.20836636144668,152.57143451995216 70.84030530136079,155.65715924091637 72.26216791570187,160.457167357672 74.15798473451287,163.3714531790465 76.36977102421224,171.60000524926 77.15969469957054,172.45714441989549 78.26558784395456,172.80000000004657 78.42357257939875,172.45714441989549 78.26558784395456,171.42857737722807 76.21178628969938,168.51430162554607 75.10589314438403,165.08573725470342 73.84201526548713,163.02859621262178 70.84030530136079,156.00001729140058 69.73441215604544,151.20000000018626" stroke="#4dd2ff" stroke-linecap="round" stroke-linejoin="round" stroke-width="0.5"><title>2023-10-15 1.0km</title><desc>10039610121</desc></polyline><polyline fill="none" points="95.50507848523557,152.7677485626191 95.9866772191599,157.81937576434575 97.27094050962478,161.47744391136803 98.87626962177455,163.7419594572857 99.83946708962321,166.87743894872256 102.56852658092976,171.7548432429321 103.21065822523087,172.4516144655645 104.01332278177142,172.80000000004657 104.49492151569575,172.4516144655645 104.49492151569575,171.92903606779873 101.28426329046488,169.3161423506681 99.19733544345945,165.48389302031137 98.39467088785022,162.17421815590933 96.46827595215291,157.81937576434575 95.50507848523557,154.16130197024904 95.66561139654368,151.89677726710215 95.50507848523557,151.19999999995343" stroke="#4dd2ff" stroke-linecap="round" stroke-linejoin="round" stroke-width="0.5"><title>2023-10-14 1.0km</title><desc>10033377496</desc></polyline><polyline fill="none" points="121.10247393604368,151.54285870608874 123.94619874749333,154.97144298977219 124.26216817181557,157.54287789412774 126.9479082711041,165.77145053213462 129.47566365916282,171.77143310848624 130.26558721717447,172.80000000004657 130.89752606488764,172.80000000004657 130.89752606488764,172.2857166111935 130.73954135272652,171.77143310848624 129.3176789470017,170.74286576313898 127.73783183004707,167.8285891546402 126.0,162.34288212889805 122.84030576609075,155.3143011406064 122.3663516305387,152.9142930242233 121.57642807159573,151.19999999995343" stroke="#4dd2ff" stroke-linecap="round" stroke-linejoin="round" stroke-width="0.5"><title>2023-10-13 1.0km</title><desc>10028006924</desc></polyline><polyline fill="none" points="147.36538064479828,151.20000000006985 148.88492797501385,153.17863460967783 149.79665637295693,154.82749545027036 149.94861110579222,156.9710127315484 149.79665637295693,159.2794136662269 151.46815843507648,162.74201061367057 153.44356996379793,168.01833853893913 155.41898149251938,171.64580678741913 155.87484569195658,172.3053458391223 156.63461935613304,172.80000000004657 156.63461935613304,171.97557633754332 154.9631172940135,169.83207339665387 153.44356996379793,167.1939131191466 151.46815843507648,161.75269774568733 150.2525205714628,159.609185034642 149.64470164012164,157.7954419098096" stroke="#4dd2ff" stroke-linecap="round" stroke-linejoin="round" stroke-width="0.5"><title>2023-10-12 1.0km</title><desc>10021974100</desc></polyline><polyline fill="none" points="175.4746022215113,154.26269951381255 176.068813463673,157.48658911755774 175.92026065289974,158.77614363189787 177.25723594706506,163.12838451750576 178.29710562061518,165.06271102663595 179.3369752941653,168.6089718618896 180.82250339910388,172.15522696147673 181.11960901971906,172.47761350416113 181.862373072654,172.80000000004657 181.71382026188076,172.15522696147673 180.07973934616894,167.9641975912964 178.29710562061518,164.90151721588336 175.92026065289974,159.42092060425784 175.32604941073805,157.32539474999066 175.02894379012287,154.26269951381255 174.137626927346,151.20000000006985" stroke="#4dd2ff" stroke-linecap="round" stroke-linejoin="round" stroke-width="0.5"><title>2023-10-10 1.0km</title><desc>10009069592</desc></polyline><polyline fill="none" points="18.340795279480517,177.90001181093976 19.365372600965202,180.75884416745976 20.389949922449887,184.57061475841329 22.585472755134106,189.33531853882596 24.341891020536423,195.37059490859974 25.366468342021108,196.80000000004657 25.65920471958816,196.32353174127638 25.805572908371687,194.5764805598883 24.780995586887002,191.55884337320458 22.585472755134106,187.74708511296194 20.097213545814157,180.75884416745976 19.365372600965202,177.58236353751272 18.19442709069699,175.20000000006985" stroke="#4dd2ff" stroke-linecap="round" stroke-linejoin="round" stroke-width="0.5"><title>2023-10-09 1.0km</title><desc>10003389142</desc></polyline><polyline fill="none" points="43.60214570444077,175.20000000006985 44.68232044391334,176.53954084217548 45.76249518338591,179.05117779690772 46.37973789125681,184.07444339734502 48.69439804647118,189.09769791853614 50.700436847284436,194.79070631600916 51.62630091048777,196.46511784254108 52.397854294627905,196.80000000004657 52.397854294627905,195.46047107467894 49.465951431542635,190.7721136303153 45.60818450618535,181.39536978886463 44.06507773511112,175.36744264874142" stroke="#4dd2ff" stroke-linecap="round" stroke-linejoin="round" stroke-width="0.5"><title>2023-10-08 1.0km</title><desc>9996447828</desc></polyline><polyline fill="none" points="71.22736892104149,179.5200177859515 71.93829996697605,182.14288138831034 74.07109310477972,187.85145554482006 74.78202415117994,190.3200233434327 77.05700349807739,196.02857525658328 77.76793454401195,196.80000000004657 77.91012075310573,196.18286022811662 77.91012075310573,195.56572027492803 75.20858277892694,190.78287948237266 73.92890689568594,188.00574111705646 71.65392754832283,181.21716519689653 70.94299650238827,177.66858268063515 70.08987924689427,175.20000000006985" stroke="#4dd2ff" stroke-linecap="round" stroke-linejoin="round" stroke-width="0.5"><title>2023-10-07 1.0km</title><desc>9989974159</desc></polyline><polyline fill="none" points="98.23527786973864,181.6340659679845 99.36470003286377,185.31066617229953 100.21176665555686,187.14896384219173 101.90589990047738,194.3489474329399 102.32943321205676,195.72766485647298 103.17649983474985,196.80000000004657 103.8823886862956,196.80000000004657 104.16474422672763,196.18723712838255 104.02356645744294,195.72766485647298 102.32943321205676,193.27661102765705 100.63529996667057,189.60002487862948 100.07058888534084,187.14896384219173 97.10585570661351,179.94895537314005 96.68232239503413,177.3446908632759 95.8352557728067,175.20000000006985" stroke="#4dd2ff" stroke-linecap="round" stroke-linejoin="round" stroke-width="0.5"><title>2023-10-06 1.0km</title><desc>9984428862</desc></polyline><polyline fill="none" points="121.34980723820627,175.19999999995343 123.79727711249143,181.7508401402738 125.42892369627953,187.23936816002242 128.20272288657725,194.14427274046466 129.34487549494952,196.44590320182033 129.83436947036535,196.80000000004657 130.4870281033218,196.80000000004657 130.6501927608624,196.44590320182033 130.1606987863779,195.56066097668372 128.20272288657725,192.7278836716432 127.0605702791363,190.42624965729192 125.10259437933564,185.29182739160024 124.28677108790725,182.63608744111843 122.00246587116271,178.38689742889255 122.00246587116271,176.793449241668" stroke="#4dd2ff" stroke-linecap="round" stroke-linejoin="round" stroke-width="0.5"><title>2023-10-04 1.0km</title><desc>9971682885</desc></polyline><polyline fill="none" points="148.7307554045692,177.72263895755168 149.4572542035021,180.2452749478398 150.1837530019693,181.9795854698168 150.7649520416744,184.65988079027738 153.52564747771248,190.17812531418167 153.6709472378716,192.0700915964553 154.54274579696357,195.8540191539796 154.8333453158848,196.32700962922536 155.70514387497678,196.80000000004657 155.70514387497678,195.22336502477992 153.8162469980307,191.7547639987897 152.50854915985838,188.75914950715378 151.78205036045983,187.3401727611199 151.0555515610613,185.29053802613635 149.6025539636612,182.29491450509522 149.0213549239561,179.92994561127853 148.7307554045692,177.56497410975862 148.29485612502322,175.20000000006985" stroke="#4dd2ff" stroke-linecap="round" stroke-linejoin="round" stroke-width="0.5"><title>2023-10-03 1.0km</title><desc>9965060084</desc></polyline><polyline fill="none" points="174.05168626923114,176.09256578912027 176.0258431341499,182.51902978750877 176.35486927907914,185.37523054960184 177.50646078400314,186.8033296703361 178.32902614492923,188.94547677692026 179.80964379385114,194.47934805578552 180.9612352978438,196.26446513272822 181.7838006587699,196.80000000004657 181.94831373076886,196.6214883904904 181.454774514772,195.19339504395612 179.64513072185218,191.801669979468 176.68389542307705,184.66118067363277 174.8742516292259,179.30579991429113 174.54522548615932,175.19999999995343" stroke="#4dd2ff" stroke-linecap="round" stroke-linejoin="round" stroke-width="0.5"><title>2023-10-02 1.0km</title><desc>9958643020</desc></polyline><polyline fill="none" points="18.57615444716066,203.00161439389922 18.8946517072618,204.5568185101729 22.39812157675624,212.85122308298014 24.149856510572135,218.20801048050635 25.1053482927382,220.10880307410844 26.060840074904263,220.80000000004657 26.220088705420494,220.62720078765415 26.060840074904263,219.93600381095894 22.87586746737361,215.09761928464286 19.850143489427865,207.66722365492024 18.416905815713108,203.174414902227 17.779911294579506,199.20000000018626" stroke="#4dd2ff" stroke-linecap="round" stroke-linejoin="round" stroke-width="0.5"><title>2023-10-01 1.0km</title><desc>9952075403</desc></polyline><polyline fill="none" points="44.898691875860095,202.3304483613465 46.196913881693035,204.99132584920153 46.773901438806206,207.6522000116529 47.20664210757241,210.15654912649188 49.370345450006425,216.26088775217067 51.24555501388386,220.1739161274163 52.11103635048494,220.80000000004657 52.399530129972845,220.33043711271603 49.51459234021604,215.94784517178778 48.2163703343831,212.97393835918047 47.7836296656169,211.40872257889714 45.764173212926835,207.02611227263696 44.61019809637219,202.17392605240457 43.600469870027155,199.20000000006985" stroke="#4dd2ff" stroke-linecap="round" stroke-linejoin="round" stroke-width="0.5"><title>2023-09-30 1.0km</title><desc>9945549317</desc></polyline><polyline fill="none" points="70.65578072797507,199.19999999995343 72.0890175588429,201.61920987116173 72.56676316913217,203.52001588023268 73.84075146261603,206.63042239728384 74.47774561028928,211.29602445522323 74.95549122057855,212.67842328641564 76.86647366080433,217.34401333890855 77.3442192710936,220.28160232468508 77.66271634493023,220.62720078765415 78.14046195521951,220.80000000004657 78.29971049167216,220.4544015622232 75.43323683086783,215.27041890379041 73.52225438971072,210.7776246839203 72.8852602429688,208.18562411214225 70.65578072797507,203.00161439413205 69.70028950739652,199.89120307425037" stroke="#4dd2ff" stroke-linecap="round" stroke-linejoin="round" stroke-width="0.5"><title>2023-09-28 1.0km</title><desc>9933629332</desc></polyline><polyline fill="none" points="95.77749703917652,201.6545560109662 96.98392645642161,205.90911335172132 99.2459816141054,209.0182078036014 100.7540183858946,214.581839667866 102.86526986584067,218.345465102233 103.46848457492888,220.4727288366994 104.07169928308576,220.80000000004657 104.37330663762987,220.3090932368068 104.07169928308576,219.65455071767792 102.86526986584067,218.01819357764907 99.3967852909118,210.98184416710865 97.5871411645785,206.07275000982918 95.62669336237013,199.20000000006985" stroke="#4dd2ff" stroke-linecap="round" stroke-linejoin="round" stroke-width="0.5"><title>2023-09-27 1.0km</title><desc>9927137811</desc></polyline><polyline fill="none" points="127.79438564018346,199.19999999995343 127.36373308650218,201.2769517872366 126.9330805328209,202.4711962986621 126.59812854672782,203.92505645600613 124.63626691349782,208.027002906485 123.6314109552186,209.74046715319855 123.44000982004218,210.46739012288162 123.53571038739756,211.03854336001677 123.77496180613525,211.86931088013807 124.4927160621155,213.63468861562433 124.73196748108603,214.10199374804506 125.019069183385,214.93275766435545 125.97607485787012,216.1269790820661 126.40672741178423,217.06158573925495 126.88523024925962,217.78850117325783 127.2680325191468,218.82695049518952 127.84223592397757,219.60578648454975 128.55999017995782,220.79999999998836" stroke="#4dd2ff" stroke-linecap="round" stroke-linejoin="round" stroke-width="0.5"><title>2023-09-26 1.0km</title><desc>9920397094</desc></polyline><polyline fill="none" points="151.89912603562698,199.20000000001164 150.95763570303097,202.33786702319048 150.01614537020214,204.0162569397944 149.14190434664488,205.11085753014777 148.6711591805797,205.9865371331689 148.4694112520665,206.86221596354153 148.53666056110524,207.95681341498857 148.87290710909292,208.83249050704762 149.67989882268012,210.07303173147375 150.01614537020214,211.3135714053642 150.68863846478052,212.91897338739363 151.96637534513138,214.52437277277932 154.11835324857384,218.90272153465776 155.5305887479335,220.79999999998836" stroke="#4dd2ff" stroke-linecap="round" stroke-linejoin="round" stroke-width="0.5"><title>2023-09-25 1.0km</title><desc>9914573673</desc></polyline><polyline fill="none" points="179.59245867212303,199.20000000001164 179.0616391147487,200.00641070248093 178.95547520322725,200.40961574245011 179.0616391147487,200.92802191746887 179.1147210705094,201.44642774929525 178.0530819555279,203.40484668471618 177.7876721767243,204.72965671774 177.41609848686494,205.70886269339826 175.1866563456133,209.62567435624078 175.13357438985258,210.08647444064263 175.34590221266262,211.00807379680919 175.9298037260305,211.92967206868343 176.248295460362,212.73606966715306 176.7260330619756,213.54246643558145 176.9914428407792,214.34886237385217 177.6815082654357,215.44325553410454 178.2123278225772,216.5376471655327 178.79622933617793,217.17124162177788 178.95547520322725,217.74723613733659 179.32704889331944,218.20803144481033 180.1232782297302,219.5904157414334 180.70717974286526,220.22400772874244 180.8664256099146,220.79999999998836" stroke="#4dd2ff" stroke-linecap="round" stroke-linejoin="round" stroke-width="0.5"><title>2023-09-24 1.0km</title><desc>9907510217</desc></polyline><polyline fill="none" points="22.805249713594094,223.19999999995343 22.3543098741211,223.8990368102095 22.032209988683462,224.59807310631732 21.838950057514012,225.50681952305604 21.774530080147088,226.69517891091527 20.679390469565988,228.1631502218661 20.035190698923543,229.84082894423045 19.45541090494953,230.6796671951306 19.0688910423778,231.7981170452549 19.004471065010875,232.98646856920095 20.35729058436118,236.4117087686318 20.87265040096827,237.46024921990465 22.54756980529055,240.1165465207887 23.25618955329992,241.86410648730816 24.158069232478738,242.98254318005638 24.673429049551487,243.89127202425152 24.995528934989125,244.79999999998836" stroke="#4dd2ff" stroke-linecap="round" stroke-linejoin="round" stroke-width="0.5"><title>2023-09-23 1.0km</title><desc>9901004991</desc></polyline><polyline fill="none" points="48.829407662386075,223.20000000001164 48.39934443007223,224.00000917632133 47.96928119775839,225.40002353605814 46.98627952369861,227.466707449581 46.003277849638835,228.8667164563667 45.14315138501115,231.20005999715067 45.081713780295104,232.46672969026258 45.2045889897272,233.2000639672042 46.433341081952676,236.1333951432607 46.61765389586799,237.00005935650552 46.86340431426652,237.4667243589647 47.72353077912703,238.53338631999213 48.39934443007223,239.86671200639103 48.95228287158534,241.26670186739648 49.8738469411619,242.60002353484742 50.918286219704896,244.79999999998836" stroke="#4dd2ff" stroke-linecap="round" stroke-linejoin="round" stroke-width="0.5"><title>2023-09-22 1.0km</title><desc>9895405405</desc></polyline><polyline fill="none" points="75.1450217468664,223.19999999995343 74.96886455500498,223.83717584831174 74.6165501717478,224.2194811324589 73.85320234019309,225.62126573116984 73.55960702057928,226.6407440150506 72.67882106127217,228.87084857962327 71.7393160383217,230.78236220986582 71.15212539886124,232.18413619237253 70.97596820699982,232.88502233318286 70.97596820699982,233.33104049135 71.15212539886124,233.96820889046649 71.50443978235126,234.60537682118593 72.26778761390597,236.58059442898957 73.03113544499502,237.98235903232126 73.44216889259405,239.0018227742985 74.20551672391593,240.27615076530492 74.67526923539117,240.8495977499988 75.02758361888118,241.8690581190167 75.96708864206448,243.5256786608952 77.02403179300018,244.79999999998836" stroke="#4dd2ff" stroke-linecap="round" stroke-linejoin="round" stroke-width="0.5"><title>2023-09-21 1.0km</title><desc>9889267953</desc></polyline><polyline fill="none" points="102.19914857461117,223.19999999995343 101.42831299151294,225.51256180164637 100.97488029603846,227.3330835548113 100.24938798230141,228.85838175087702 99.38786586048082,231.41693865915295 97.8915379641112,234.22149941610405 97.4834485379979,235.74678191059502 97.52879180735908,236.09120005724253 97.80085142469034,236.82923834602116 98.39031392964534,238.10850278503494 98.75306008616462,239.1909554002341 99.65992547781207,240.47021532442886 100.20404471294023,241.50346193969017 100.5214475998655,242.241494259506 100.8841937566176,242.88112161163008 101.47365626133978,243.3239401896135 102.19914857461117,244.40638436889276 102.24449184420519,244.60319221339887 102.51655146176927,244.79999999998836" stroke="#4dd2ff" stroke-linecap="round" stroke-linejoin="round" stroke-width="0.5"><title>2023-09-20 1.0km</title><desc>9882714971</desc></polyline><polyline fill="none" points="127.79100363212638,223.20000000001164 127.33045984106138,224.36608261422953 126.46054379106499,226.9203525246121 126.40937225869857,227.75326475786278 126.10234306450002,228.19748423999408 125.74414233816788,229.03039506456116 125.53945620870218,229.80777767213294 125.13008395000361,230.86279564508004 123.95313870580867,232.7507188655436 123.64610951161012,233.86125973169692 123.5437664471101,234.86074511497281 123.64610951161012,235.860229175305 123.95313870580867,236.9707654688973 124.31133943214081,237.7481399027747 125.43711314396933,239.69157248659758 126.0,240.46894411969697 126.51171532319859,241.85710576031124 127.02343064686283,242.7455278711859 127.53514597029425,243.46737006679177 128.0980328260921,244.02263282472268 128.45623355265707,244.79999999998836" stroke="#4dd2ff" stroke-linecap="round" stroke-linejoin="round" stroke-width="0.5"><title>2023-09-19 1.0km</title><desc>9876194288</desc></polyline><polyline fill="none" points="151.84100794629194,223.20000000001164 151.45942701748572,223.82109320326708 150.8234588028863,225.0632783769979 150.6326683384832,225.89140091248555 149.48792555183172,227.89269402367063 148.5975700514391,229.75596308422973 148.40677958680317,230.44606179761468 148.47037640865892,231.20516979601234 148.85195733746514,232.17130636097863 149.42432873044163,233.20645157678518 149.9331033024937,234.6556529609952 150.6326683384832,236.1738615350332 151.39583019609563,237.5540490167914 152.09539523231797,238.4511697916896 152.9221539113205,239.83135392481927 153.4309284829069,241.41856316884514 154.32128398376517,242.79874293867033 154.76646173396148,244.04090299631935 155.59322041319683,244.79999999998836" stroke="#4dd2ff" stroke-linecap="round" stroke-linejoin="round" stroke-width="0.5"><title>2023-09-18 1.0km</title><desc>9870505463</desc></polyline><polyline fill="none" points="178.2170412815176,223.19999999995343 177.90698230802082,223.8056144231232 177.47289974521846,225.82432627223898 176.91479359311052,226.7663902780041 176.66674641426653,227.50658274488524 175.30248693120666,229.7271565538831 174.80639257398434,230.93837636063108 174.49633360025473,232.0150148428511 174.74438077909872,232.75520306476392 176.10864026192576,235.71594996581553 176.7907700035721,236.79258282791125 177.28686436102726,237.9365038559772 178.09301769197918,239.01313410582952 178.52710025501437,239.75331666780403 179.08520640688948,241.5028367077466 181.50366639974527,244.79999999998836" stroke="#4dd2ff" stroke-linecap="round" stroke-linejoin="round" stroke-width="0.5"><title>2023-09-16 1.0km</title><desc>9856514700</desc></polyline><polyline fill="none" points="21.70141286822036,247.19999999995343 21.037885908968747,249.21602015919052 20.17530086194165,250.58403147483477 18.383778071729466,254.04005154868355 18.317425375571474,254.83205443120096 18.383778071729466,255.76805701170815 18.781894247280434,256.7040586976218 19.445421206764877,257.7120595127344 20.042595469858497,259.08005895931274 21.104238604893908,260.88005531951785 22.431292523862794,263.4000446656719 22.563997915480286,264.33603905688506 23.028466786956415,264.6960366614512 23.559288354590535,265.4160314735491 24.4218734013848,266.8560195097816 25.350811144337058,267.64801202714443 25.549869232345372,268.1520069320104 25.682574624195695,268.79999999998836" stroke="#4dd2ff" stroke-linecap="round" stroke-linejoin="round" stroke-width="0.5"><title>2023-09-15 1.0km</title><desc>9850671982</desc></polyline><polyline fill="none" points="48.549125073244795,247.20000000001164 47.450874926988035,250.10485439072363 46.21534351236187,251.89245295227738 45.666218439349905,252.86073418945307 44.84253082983196,254.94625986437313 44.63660892727785,255.69108942203457 44.63660892727785,256.28695267351577 44.84253082983196,257.03178124543047 45.666218439349905,259.2662636752357 46.42126541491598,260.7559158902732 48.27456253673881,263.958660734992 49.02960951230489,265.3738238363294 49.16689078020863,266.19312788615935 49.71601585345343,266.71450284548337 50.60834409738891,268.12966209702427 51.36339107272215,268.79999999998836" stroke="#4dd2ff" stroke-linecap="round" stroke-linejoin="round" stroke-width="0.5"><title>2023-09-14 1.0km</title><desc>9844236351</desc></polyline><polyline fill="none" points="70.56709610228427,247.19999999995343 70.96225050766952,247.52159278281033 71.110433409689,247.84318542375695 71.20922201103531,248.53996899235062 71.50558781507425,249.1295545687899 71.70316501799971,250.79111135465791 71.70316501799971,251.59508908487624 71.60437641642056,252.02387684507994 71.70316501799971,252.5598611907917 71.9501365213655,253.2030418853974 71.85134792001918,253.73902536404785 71.90074222069234,254.00701695558382 72.3946852274239,254.91818762995536 72.83923393371515,256.2581424351083 73.2343883391004,257.0085160502349 73.7283313460648,257.70529085828457 74.27166865346953,258.18767302751075 74.419851555489,258.5092609630665 74.56803445750847,259.2060343368212 74.96318886312656,259.9028070445638 75.40773756918497,261.1891549092252 76.00046917726286,262.31470742897363 76.29683498153463,263.279465348518 76.4450178835541,264.08342930604704 76.74138368782587,264.72659983392805 77.2847209952306,266.4953158595017 78.02563550556079,267.88884667569073 78.07502980646677,268.1032357955701 78.02563550556079,268.26402759418124 77.43290389725007,268.79999999998836 77.72926970152184,268.58561108488357 77.87745260354131,268.26402759418124 77.9762412046548,267.99604124354664 77.9268469044473,267.620860187104 77.63048110017553,267.2456789375865 76.74138368782587,265.31617231911514 76.29683498153463,263.8690390040283 75.35834326851182,261.7787302552606 74.9137945624534,259.74201340193395 74.66682305908762,259.15243640867993 73.7283313460648,257.91968297294807 72.78983963280916,256.15094614133704 72.34529092675075,254.70379463257268 72.19710802496411,253.73902536404785 71.80195361911319,252.7206564177177 71.01164480834268,251.00550550274784 70.81406760541722,250.20152712223353 70.12254739599302,248.91515986889135 69.97436449397355,248.21837665891508 69.9249701933004,247.36079640913522" stroke="#4dd2ff" stroke-linecap="round" stroke-linejoin="round" stroke-width="0.5"><title>2023-09-13 1.0km</title><desc>9837636972</desc></polyline></svg>