<?xml version="1.0" encoding="utf-8" ?>
<svg baseProfile="full" height="300mm" version="1.1" viewBox="0,0,200,300" width="200mm" xmlns="http://www.w3.org/2000/svg" xmlns:ev="http://www.w3.org/2001/xml-events" xmlns:xlink="http://www.w3.org/1999/xlink"><defs /><rect fill="#222222" height="300" width="200" x="0" y="0" /><text fill="#FFFFFF" style="font-size:12px; font-family:Arial; font-weight:bold;" x="10" y="20">Over 1km Runs</text><text fill="#FFFFFF" style="font-size:4px; font-family:Arial" x="10" y="280">ATHLETE</text><text fill="#FFFFFF" style="font-size:9px; font-family:Arial" x="10" y="290">Jiakai</text><text fill="#FFFFFF" style="font-size:4px; font-family:Arial" x="120" y="280">STATISTICS</text><text fill="#FFFFFF" style="font-size:3px; font-family:Arial" x="120" y="285">Number: 19</text><text fill="#FFFFFF" style="font-size:3px; font-family:Arial" x="120" y="290">Weekly: 4.8</text><text fill="#FFFFFF" style="font-size:3px; font-family:Arial" x="141" y="285">Total: 19.3 km</text><text fill="#FFFFFF" style="font-size:3px; font-family:Arial" x="141" y="290">Avg: 1.0 km</text><text fill="#FFFFFF" style="font-size:3px; font-family:Arial" x="167" y="285">Min: 1.0 km</text><text fill="#FFFFFF" style="font-size:3px; font-family:Arial" x="167" y="290">Max: 1.0 km</text><polyline fill="none" points="26.37016638368368,36.979948044987395 27.732351630926132,41.70989052695222 29.094536879099905,44.96172275557183 30.184285078197718,49.987276481464505 35.36058902088553,60.3339849638287 35.63302607089281,63.88142174296081 37.26764836907387,70.97628591349348 37.81252246722579,71.86314305430278 39.44714476540685,72.75 39.44714476540685,69.79380942112766 35.905463120900095,63.29018249735236 33.45352967455983,57.67340532550588 32.091344425454736,55.01282392675057 30.729159177280962,51.16975879855454 28.00478868186474,45.55296469666064 26.915040481835604,41.11864802078344 26.37016638368368,36.684326455695555 25.552855234593153,32.25" stroke="#4dd2ff" stroke-linecap="round" stroke-linejoin="round" stroke-width="0.5"><title>2023-10-03 1.0km</title><desc>9965060084</desc></polyline><polyline fill="none" points="70.09691175445914,33.92356085474603 73.79845587722957,45.97318085189909 74.41537989675999,51.32855728059076 76.57461396977305,54.006243132054806 78.11692402139306,58.0227689568419 80.8930821120739,68.39877760480158 83.05231618322432,71.74587212386541 84.59462623484433,72.75 84.90308824554086,72.41529073240235 83.97770221531391,69.7376157073304 80.58462010324001,63.37813121150248 75.03230391815305,49.98971376335248 71.6392218042165,39.94837483949959 71.02229778468609,32.25" stroke="#4dd2ff" stroke-linecap="round" stroke-linejoin="round" stroke-width="0.5"><title>2023-10-02 1.0km</title><desc>9958643020</desc></polyline><polyline fill="none" points="116.0802895873785,39.378026988124475 116.67747195065022,42.29403470642865 123.24647795595229,57.846043280093 126.530980957672,67.89001965080388 128.32252804934978,71.45400576363318 130.11407514102757,72.75 130.41266632266343,72.42600147658959 130.11407514102757,71.1300071454607 124.14225150085986,62.058036158559844 118.469019042328,48.126044352538884 115.78169840388,39.70202794135548 114.58733367733657,32.25" stroke="#4dd2ff" stroke-linecap="round" stroke-linejoin="round" stroke-width="0.5"><title>2023-10-01 1.0km</title><desc>9952075403</desc></polyline><polyline fill="none" points="161.68504726607352,38.11959067755379 164.1192135270685,43.10873596719466 165.2010651966557,48.09787502186373 166.01245395094156,52.79352961201221 170.06939771864563,64.23916453542188 173.58541565015912,71.57609273889102 175.2081931559369,72.75 175.7491189930588,71.8695695863571 170.33986063674092,63.652209697058424 167.90569437667727,58.076134423492476 167.0943056223914,55.14135483559221 163.30782477371395,46.923960511107 161.14412142988294,37.826111348113045 159.25088100600988,32.25" stroke="#4dd2ff" stroke-linecap="round" stroke-linejoin="round" stroke-width="0.5"><title>2023-09-30 1.0km</title><desc>9945549317</desc></polyline><polyline fill="none" points="26.22958886437118,81.0 28.916907923296094,85.53601850848645 29.812680941075087,89.10002977540717 32.20140899345279,94.93204199522734 33.39577301964164,103.6800458538346 34.291546039283276,106.2720436619129 37.87463811412454,115.02002501068637 38.770411133766174,120.52800435898826 39.3675931468606,121.17600147682242 40.26336616650224,121.5 40.56195717304945,120.85200292943045 35.18731905706227,111.13203544449061 31.604226980358362,102.70804628264159 30.409862956032157,97.84804521035403 26.22958886437118,88.12802698928863 24.43804282695055,82.29600576451048" stroke="#4dd2ff" stroke-linecap="round" stroke-linejoin="round" stroke-width="0.5"><title>2023-09-28 1.0km</title><desc>9933629332</desc></polyline><polyline fill="none" points="69.5828069485724,85.60229252045974 71.84486210625619,93.57958753430285 76.08621552586555,99.4091396315489 78.91378447320312,109.84094937704504 82.87238099891692,116.89774706633762 84.00340857822448,120.88636656850576 85.13443615566939,121.5 85.69994994625449,120.57954981876537 85.13443615566939,119.3522825955879 82.87238099891692,116.28411295777187 76.36897242069244,103.09095781296492 72.9758896837011,93.88640626822598 69.30005005374551,81.0" stroke="#4dd2ff" stroke-linecap="round" stroke-linejoin="round" stroke-width="0.5"><title>2023-09-27 1.0km</title><desc>9927137811</desc></polyline><polyline fill="none" points="125.86447307514027,81.0 125.05699953669682,84.89428460109048 124.2495259991847,87.13349306001328 123.62149102473632,89.85948085505515 119.94300046237186,97.55063044966664 118.05889554088935,100.7633759122109 117.70001841243356,102.12635648041032 117.87945697642863,103.19726880011149 118.32805338641629,104.75495790026616 119.67384261637926,108.06504115427379 120.12243902636692,108.94123827759176 120.66075471881777,110.49892062076833 122.45514035830274,112.73808577889577 123.26261389674619,114.49047326110303 124.15980671718717,115.85343969985843 124.87756097316742,117.80053217848763 125.9541923571378,119.26084965851624 127.29998158710077,121.5" stroke="#4dd2ff" stroke-linecap="round" stroke-linejoin="round" stroke-width="0.5"><title>2023-09-26 1.0km</title><desc>9920397094</desc></polyline><polyline fill="none" points="167.31086131744087,81.0 165.5455669434741,86.88350066856947 163.78027256950736,90.03048176213633 162.1410706504248,92.08285786909983 161.2584234639071,93.72475712478627 160.8801460978575,95.36665493168402 161.00623855227605,97.41902515315451 161.63670082949102,99.0609197007725 163.14981029275805,101.38693449657876 163.78027256950736,103.71294638514519 165.041197121609,106.7230751013849 167.43695377232507,109.73319894901942 171.47191234119236,117.94260287750512 174.11985390260816,121.5" stroke="#4dd2ff" stroke-linecap="round" stroke-linejoin="round" stroke-width="0.5"><title>2023-09-25 1.0km</title><desc>9914573673</desc></polyline><polyline fill="none" points="35.48586001014337,129.75 34.49057334056124,131.2620200671954 34.29151600645855,132.01802951702848 34.49057334056124,132.99004109529778 34.590102007612586,133.96205202990677 32.599528667051345,137.63408753392287 32.10188533179462,140.1181063457625 31.405184662900865,141.9541175501654 27.224980648141354,149.29813941800967 27.12545198109001,150.1621395762777 27.52356664882973,151.8901383690536 28.618381986394525,153.61813512875233 29.215553988702595,155.1301306260284 30.11131199123338,156.6421245667152 30.608955326490104,158.15411695104558 31.90282799815759,160.20610412652604 32.89811466773972,162.25808843539562 33.99293000577018,163.4460780408699 34.29151600645855,164.52606775751337 34.988216675352305,165.39005895901937 36.48114668065682,167.98202951520216 37.575962017755955,169.17001449142117 37.87454801890999,170.25" stroke="#4dd2ff" stroke-linecap="round" stroke-linejoin="round" stroke-width="0.5"><title>2023-09-24 1.0km</title><desc>9907510217</desc></polyline><polyline fill="none" points="79.00984321301803,129.75 78.16433101380244,131.06069401919376 77.56039372878149,132.37138707446866 77.19803135748953,134.07528660574462 77.0772439003922,136.30346045806073 75.02385713066906,139.0559066660935 73.81598256062716,142.2015542704612 72.72889544675127,143.77437599096447 72.004170704633,145.8714694599621 71.88338324707001,148.09962856734637 74.41991984564811,154.52195394120645 75.38621950149536,156.48796728730667 78.5266933850944,161.46852472657338 79.85535541223362,164.7451996637974 81.54637981113046,166.8422684626421 82.51267946790904,168.54613504558802 83.11661675339565,170.25" stroke="#4dd2ff" stroke-linecap="round" stroke-linejoin="round" stroke-width="0.5"><title>2023-09-23 1.0km</title><desc>9901004991</desc></polyline><polyline fill="none" points="124.05513936746866,129.75 123.24877080647275,131.2500172056025 122.4424022459425,133.87504413025454 120.59927410725504,137.75007646798622 118.75614596856758,140.37509335565846 117.14340884704143,144.75011249468662 117.02821333799511,147.12511816923507 117.25860435608774,148.50011993863154 119.56251452909783,154.00011589366477 119.90810105483979,155.62511129351333 120.36888308962807,156.50010817311704 121.98162021115422,158.5000993499998 123.24877080647275,161.00008501205593 124.2855303841643,163.62506600143388 126.01346301473677,166.12504412792623 127.97178666200489,170.25" stroke="#4dd2ff" stroke-linecap="round" stroke-linejoin="round" stroke-width="0.5"><title>2023-09-22 1.0km</title><desc>9895405405</desc></polyline><polyline fill="none" points="169.64691577572376,129.75 169.31662104092538,130.94470471562818 168.6560315717943,131.66152712341864 167.22475438797846,134.2898732459871 166.67426316346973,136.20139502815437 165.02278948994353,140.3828410867136 163.26121757226065,143.96692914352752 162.16023512277752,146.59525536070578 161.82994038797915,147.90941687475424 161.82994038797915,148.74570092128124 162.16023512277752,149.94039166963194 162.8208245919086,151.13508153974544 164.2521017761901,154.83861455437727 165.68337895954028,157.46692318562418 166.45406667375937,159.37841770180967 167.88534385710955,161.76778268488124 168.766129815951,162.84299578121863 169.42671928554773,164.75448397314176 171.18829120369628,167.86064748920035 173.1700596115552,170.25" stroke="#4dd2ff" stroke-linecap="round" stroke-linejoin="round" stroke-width="0.5"><title>2023-09-21 1.0km</title><desc>9889267953</desc></polyline><polyline fill="none" points="36.62340357713401,178.5 35.17808685917407,182.83605337806512 34.32790055498481,186.24953166535124 32.9676024671644,189.10946578299627 31.352248487994075,193.90675998595543 28.546633682679385,199.16531140520237 27.78146600862965,202.02521608246025 27.86648463876918,202.67100010742433 28.376596421469003,204.0548218988115 29.481838617939502,206.4534427219769 30.161987661849707,208.48304137552623 31.86236027115956,210.8816537334351 32.88258383702487,212.81899113697 33.47771424986422,214.20280173653737 34.157863293308765,215.40210302185733 35.263105489779264,216.23238785553258 36.62340357713401,218.26197069173213 36.708422208204865,218.6309854001738 37.21853399090469,219.0" stroke="#4dd2ff" stroke-linecap="round" stroke-linejoin="round" stroke-width="0.5"><title>2023-09-20 1.0km</title><desc>9882714971</desc></polyline><polyline fill="none" points="80.85813181009144,178.5 79.9946122020483,180.6864049016731 78.3635196085088,185.47566098358948 78.26757298503071,187.037371421 77.69189324602485,187.87028294999618 77.02026688447222,189.43199074605945 76.6364803914912,190.88958313525654 75.86890740599483,192.8677418344887 73.66213507344946,196.40759787289426 73.0864553344436,198.48986199696083 72.89456208841875,200.36389709066134 73.0864553344436,202.23792970378418 73.66213507344946,204.32018525421154 74.33376143500209,205.77776231779717 76.4445871450007,209.4216984123923 77.5,210.87927022448275 78.45946623105556,213.4820733006345 79.41893246304244,215.1478647585027 80.378398694098,216.50131887523457 81.4338115490973,217.54243654641323 82.10543791158125,219.0" stroke="#4dd2ff" stroke-linecap="round" stroke-linejoin="round" stroke-width="0.5"><title>2023-09-19 1.0km</title><desc>9876194288</desc></polyline><polyline fill="none" points="122.20188989909366,178.5 121.48642565775663,179.6645497562131 120.29398525552824,181.9936469568638 119.9362531346269,183.54637671099044 117.78986040968448,187.29880129441153 116.12044384609908,190.79243078292347 115.76271172519773,192.08636587054934 115.88195576611906,193.50969336752314 116.5974200074561,195.32119942689314 117.67061636969447,197.26209670654498 118.62456869194284,199.97934930189513 119.9362531346269,202.82599037827458 121.36718161730096,205.41384190658573 122.67886606045067,207.0959433595417 124.2290385835804,209.68378860899247 125.18299090536311,212.6598059416283 126.85240746941417,215.24764301010873 127.68711575120687,217.57669311820064 129.23728827480227,219.0" stroke="#4dd2ff" stroke-linecap="round" stroke-linejoin="round" stroke-width="0.5"><title>2023-09-18 1.0km</title><desc>9870505463</desc></polyline><polyline fill="none" points="167.90695240255445,178.5 167.3255918272771,179.63552704337053 166.5116870221682,183.42061176057905 165.46523798676208,185.1869817712577 165.00014952663332,186.57484264671803 162.442162996158,190.73841853858903 161.5119860759005,193.00945567619056 160.93062550062314,195.0281528304331 161.3957139607519,196.41600574646145 163.9537004912272,201.96740618604235 165.23269375693053,203.98609280236997 166.16287067672238,206.13094473001547 167.67440817225724,208.14962644851767 168.4883129778318,209.5374687522417 169.53476201277226,212.8178188269958 174.06937449937686,219.0" stroke="#4dd2ff" stroke-linecap="round" stroke-linejoin="round" stroke-width="0.5"><title>2023-09-16 1.0km</title><desc>9856514700</desc></polyline><polyline fill="none" points="31.94014912797138,227.25 30.696036079432815,231.03003779845312 29.078689116053283,233.59505901532248 25.71958388434723,240.07509665377438 25.59517257940024,241.56010205857456 25.71958388434723,243.31510689703282 26.466051713563502,245.07011005817913 27.71016476256773,246.96011158637702 28.829866506159306,249.52511054871138 30.820447383914143,252.90010372409597 33.3086734819226,257.6250837481348 33.55749609135091,259.38007323176134 34.42837522551417,260.05506874027196 35.42366566462442,261.40505901293363 37.041012627538294,264.1050365809351 38.782770895864815,265.5900225510122 39.15600481070578,266.53501299757045 39.40482742059976,267.75" stroke="#4dd2ff" stroke-linecap="round" stroke-linejoin="round" stroke-width="0.5"><title>2023-09-15 1.0km</title><desc>9850671982</desc></polyline><polyline fill="none" points="78.52960951207206,227.25 76.47039048792794,232.69660198269412 74.1537690856494,236.04834928561468 73.124159574043,237.86387660529 71.57974530570209,241.77423724578694 71.19364173850045,243.1707926663803 71.19364173850045,244.28803626296576 71.57974530570209,245.68458983523306 73.124159574043,249.87424439110328 74.53987265285105,252.66734229424037 78.01480475626886,258.67248887824826 79.4305178350769,261.3259196932195 79.68792021274567,262.8621147866361 80.71752972528338,263.8396928353468 82.39064518222585,266.493116431986 83.80635826149955,267.75" stroke="#4dd2ff" stroke-linecap="round" stroke-linejoin="round" stroke-width="0.5"><title>2023-09-14 1.0km</title><desc>9844236351</desc></polyline><polyline fill="none" points="116.06330519216135,227.25 116.8042197022587,227.85298646788578 117.082062643487,228.45597266976256 117.26729127159342,229.76244186074473 117.82297715405002,230.86791481659748 118.19343440933153,233.98333379009273 118.19343440933153,235.4907920343103 118.00820578169078,236.29476908466313 118.19343440933153,237.2997397328727 118.65650597820058,238.5057035352802 118.47127735055983,239.51067255774979 118.56389166414738,240.0131567917997 119.49003480235115,241.72160180623177 120.32356362650171,244.23401706595905 121.06447813659906,245.64096759422682 121.99062127433717,246.94742035935633 123.00937872566283,247.85188692668453 123.28722166735679,248.45486430590972 123.56506460858509,249.76131438161246 124.3059791191481,251.06776320864446 125.139507942833,253.47966545494273 126.25087970821187,255.59007642942015 126.80656559113413,257.3989975285949 127.08440853236243,258.9064299489837 127.6400944152847,260.1123746887315 128.65885186661035,263.42871723661665 130.04806657368317,266.0415875170147 130.14068088773638,266.44356711686123 130.04806657368317,266.7450517391553 128.93669480783865,267.75 129.4923806907609,267.34802078432404 129.7702236319892,266.7450517391553 129.95545225962996,266.24257733183913 129.86283794604242,265.5391128510237 129.30715206358582,264.83564800804015 127.6400944152847,261.21782309853006 126.80656559113413,258.5044481327059 125.04689362924546,254.58511922881007 124.2133648050949,250.7662751286989 123.75029323622584,249.6608182664495 121.99062127433717,247.3494055743795 120.2309493124485,244.03302401513793 119.39742048829794,241.3196149362484 119.1195775475353,239.51067255774979 118.37866303650662,237.6012307832716 116.89683401631191,234.3853228178341 116.5263767610304,232.87786335428245 115.22977636801079,230.46592475427315 114.95193342678249,229.15945623558946 114.85931911272928,227.55149326729588" stroke="#4dd2ff" stroke-linecap="round" stroke-linejoin="round" stroke-width="0.5"><title>2023-09-13 1.0km</title><desc>9837636972</desc></polyline></svg>