<?xml version="1.0" encoding="utf-8" ?>
<svg baseProfile="full" height="300mm" version="1.1" viewBox="0,0,200,300" width="200mm" xmlns="http://www.w3.org/2000/svg" xmlns:ev="http://www.w3.org/2001/xml-events" xmlns:xlink="http://www.w3.org/1999/xlink"><defs /><rect fill="#222222" height="300" width="200" x="0" y="0" /><text fill="#FFFFFF" style="font-size:12px; font-family:Arial; font-weight:bold;" x="10" y="20">Over 1km Runs</text><text fill="#FFFFFF" style="font-size:4px; font-family:Arial" x="10" y="280">ATHLETE</text><text fill="#FFFFFF" style="font-size:9px; font-family:Arial" x="10" y="290">Jiakai</text><text fill="#FFFFFF" style="font-size:4px; font-family:Arial" x="120" y="280">STATISTICS</text><text fill="#FFFFFF" style="font-size:3px; font-family:Arial" x="120" y="285">Number: 59</text><text fill="#FFFFFF" style="font-size:3px; font-family:Arial" x="120" y="290">Weekly: 5.9</text><text fill="#FFFFFF" style="font-size:3px; font-family:Arial" x="141" y="285">Total: 61.3 km</text><text fill="#FFFFFF" style="font-size:3px; font-family:Arial" x="141" y="290">Avg: 1.0 km</text><text fill="#FFFFFF" style="font-size:3px; font-family:Arial" x="167" y="285">Min: 1.0 km</text><text fill="#FFFFFF" style="font-size:3px; font-family:Arial" x="167" y="290">Max: 1.5 km</text><polyline fill="none" points="18.134531215764582,31.285714285681024 21.486062058247626,37.07145090273116 22.70480054616928,41.3694170381641 23.161827478557825,43.849009147961624 24.07588134519756,45.3367631015135 26.970385253429413,53.767350244452246 27.5797544978559,54.428571428521536 27.5797544978559,53.767350244452246 26.970385253429413,52.94082349096425 25.294619833119214,47.98165658861399 24.38056596647948,46.32859852374531 24.07588134519756,43.518397024832666 22.70480054616928,40.04696679417975 21.18137743603438,36.74083778320346 21.02903512492776,34.922464754548855" stroke="#4dd2ff" stroke-linecap="round" stroke-linejoin="round" stroke-width="0.5"><title>2023-11-17 1.0km</title><desc>10231268371</desc></polyline><polyline fill="none" points="44.44344094209373,32.0322613583412 46.67943424079567,35.20508396439254 47.195432694628835,39.49772000266239 48.743428055197,42.85716922977008 51.15142083913088,51.81567876855843 52.699416199699044,54.42857142863795 52.52741671539843,52.93549023801461 51.323420324362814,50.5092314297799 50.4634229009971,48.082970302319154 49.08742702379823,42.29726133355871 46.335435272194445,36.51153917913325 45.47543784882873,33.898628077004105 44.95943939499557,31.285714285913855" stroke="#4dd2ff" stroke-linecap="round" stroke-linejoin="round" stroke-width="0.5"><title>2023-11-16 1.0km</title><desc>10225818993</desc></polyline><polyline fill="none" points="70.27239253558218,31.534563053166494 71.41905589215457,36.013837745646015 73.25371726416051,40.9908026738558 75.77637664880604,45.71891257795505 76.69370733387768,49.45162625797093 78.29903603345156,52.686641451437026 79.90436473395675,54.42857142863795 75.77637664880604,46.71430329512805 73.94171527773142,40.9908026738558 68.66706383693963,31.285714285681024" stroke="#4dd2ff" stroke-linecap="round" stroke-linejoin="round" stroke-width="0.5"><title>2023-11-15 1.0km</title><desc>10219684298</desc></polyline><polyline fill="none" points="95.91081089992076,34.069829374784604 97.9954955400899,36.67993429629132 98.31621625367552,39.98606306454167 100.72162160649896,45.72827573912218 102.16486481763422,50.600445265416056 103.6081080287695,54.25456582871266 104.24954945687205,54.42857142863795 104.08918909914792,52.34050338040106 102.00450446084142,49.55640978273004 101.20270267594606,47.1203251988627 99.9198198216036,45.55426949914545 99.43873875122517,43.64020001515746 97.03333339840174,38.76801616116427 96.2315316144377,35.28787869610824 95.75045054405928,31.285714285681024" stroke="#4dd2ff" stroke-linecap="round" stroke-linejoin="round" stroke-width="0.5"><title>2023-11-14 1.0km</title><desc>10213806154</desc></polyline><polyline fill="none" points="122.62328093871474,34.472063627443276 123.85968284960836,39.16772822930943 127.25978810153902,47.88822255900595 128.03253929503262,50.73914616648108 129.57804168295115,53.92546833504457 130.04169239941984,54.428571428521536 129.11439096648246,52.75156068557408 126.95068762358278,47.55281954759266 126.79613738507032,46.21120700775646 125.25063499715179,42.52176845539361 122.93238141667098,38.329217402264476 122.0050799837336,35.47827828431036 121.38687902875245,31.285714285681024" stroke="#4dd2ff" stroke-linecap="round" stroke-linejoin="round" stroke-width="0.5"><title>2023-11-13 1.0km</title><desc>10208522228</desc></polyline><polyline fill="none" points="148.84336724504828,33.91559572634287 150.45911986008286,38.82469998905435 152.39802299812436,42.85717093083076 153.52904982771724,47.590932466322556 154.66007665824145,50.92209235811606 156.11425401177257,54.07792375353165 156.76055505685508,54.42857142863795 157.08370558079332,53.727276026736945 155.30637770425528,50.220795925706625 154.33692613616586,46.363661859417334 150.78227038308978,43.032495599705726 148.84336724504828,40.227299350779504 148.52021672204137,37.246774720959365 145.77343727648258,31.285714285681024" stroke="#4dd2ff" stroke-linecap="round" stroke-linejoin="round" stroke-width="0.5"><title>2023-11-12 1.0km</title><desc>10202270880</desc></polyline><polyline fill="none" points="173.64125646930188,35.603428814793006 177.46118447743356,44.238834062824026 178.73449381347746,48.55652478360571 180.00780314952135,52.01067164679989 180.80362148489803,53.56503607821651 181.5994398193434,54.42857142863795 181.75860348623246,53.7377431737259 180.3261304832995,49.420061975484714 177.62034814432263,45.2750805595424 174.7554021384567,38.712178360670805 173.64125646930188,34.049052498303354 172.52711079921573,31.285714285913855" stroke="#4dd2ff" stroke-linecap="round" stroke-linejoin="round" stroke-width="0.5"><title>2023-11-11 1.0km</title><desc>10196068378</desc></polyline><polyline fill="none" points="20.705639267340302,61.52256869641133 23.32486102823168,69.43987386161461 25.756995521485806,75.93610729952343 26.879519132897258,80.19925218750723 27.62786820717156,81.21428571431898 28.002042745240033,80.8082723482512 27.440780938602984,78.37219089805149 24.63447190914303,72.0789705386851 21.828162878751755,66.19175141211599 18.086417505517602,60.304519733646885 17.71224296838045,58.07142857136205" stroke="#4dd2ff" stroke-linecap="round" stroke-linejoin="round" stroke-width="0.5"><title>2023-11-10 1.0km</title><desc>10191120477</desc></polyline><polyline fill="none" points="43.19874455500394,58.77808399661444 45.96649086661637,60.898049026494846 47.59457693248987,63.72466615634039 48.08300275262445,64.78464672272094 48.08300275262445,66.37461669603363 49.87389742396772,71.85117188398726 50.525131850503385,75.03110142680816 51.82760070357472,78.5643515388947 52.15321791637689,80.3309746470768 52.96726094931364,81.21428571431898 53.4556867685169,81.03762352676131 53.944112587720156,80.3309746470768 52.15321791637689,79.09433860797435 49.222662998363376,74.85443878476508 45.80368226021528,65.49130017426796 44.98963922727853,60.191394224064425 44.17559619434178,58.07142857136205" stroke="#4dd2ff" stroke-linecap="round" stroke-linejoin="round" stroke-width="0.5"><title>2023-11-09 1.0km</title><desc>10185506531</desc></polyline><polyline fill="none" points="69.7710468294099,59.929622788215056 71.48350689932704,63.3081538771512 72.10621965117753,64.99741755891591 74.13003609795123,69.3894973192364 74.90842703916132,72.43016300420277 74.75274885073304,70.57197889685631 75.06410522758961,71.75445986620616 75.6868179794401,76.3154521904653 77.08792167343199,80.53858515981119 77.7106344262138,81.21428571431898 78.48902536649257,80.8764354614541 78.80038174241781,80.36965998983942 77.08792167343199,78.8493329033954 75.84249616786838,76.82222855673172 75.06410522758961,74.62619682983495 73.97435790952295,70.90983066475019 72.41757602896541,68.71379328717012 70.70511595811695,64.99741755891591 70.23808139376342,62.29459507192951 70.39375958126038,58.916062492644414 70.08240320533514,58.071428571478464" stroke="#4dd2ff" stroke-linecap="round" stroke-linejoin="round" stroke-width="0.5"><title>2023-11-08 1.0km</title><desc>10179505859</desc></polyline><polyline fill="none" points="98.95597527176142,70.85667343484238 104.17609891295433,81.21428571431898 104.47439169231802,81.0524483975023 103.72865974344313,79.2722371238051 102.38634223584086,77.0065116030164 101.49146389774978,74.74078375042882 99.70170722063631,72.79872944927774 99.10512166190892,71.6658636489883 98.65768249239773,67.78174790763296 98.35938971303403,66.64887952560093 96.56963303592056,63.57394812093116 95.52560830768198,58.071428571478464" stroke="#4dd2ff" stroke-linecap="round" stroke-linejoin="round" stroke-width="0.5"><title>2023-11-06 1.0km</title><desc>10167691585</desc></polyline><polyline fill="none" points="123.48942948132753,64.5647720702691 124.56349800806493,66.56272017071024 128.55289539135993,75.71995974332094 130.24071736168116,80.8812966409605 130.54759408254176,81.21428571431898 130.8544708043337,81.21428571431898 130.8544708043337,80.71480208588764 129.626963917166,78.05088754103053 128.55289539135993,76.55243423231877 128.3994570299983,75.71995974332094 127.47882686462253,74.72098995302804 124.87037472985685,70.22562044300139 121.80160751193762,62.40032630588394 120.57410062476993,58.071428571478464" stroke="#4dd2ff" stroke-linecap="round" stroke-linejoin="round" stroke-width="0.5"><title>2023-11-05 1.1km</title><desc>10161301187</desc></polyline><polyline fill="none" points="147.1011656979099,58.071428571478464 150.1921697910875,64.94722948572598 151.58312163315713,70.98450100491755 153.74682449828833,75.17704126995523 154.5195755213499,78.53106793412007 155.29232654441148,81.21428571431898 155.7559771584347,80.71118262095843 155.60142695344985,80.20807941665407 153.5922742933035,76.51865252759308 153.43772408831865,76.01554839836899 151.58312163315713,73.16462290461641 150.81037060916424,70.48139565531164 148.80121794901788,66.79195303400047 148.33756733499467,63.605611422797665 147.41026610694826,60.25156281294767" stroke="#4dd2ff" stroke-linecap="round" stroke-linejoin="round" stroke-width="0.5"><title>2023-11-04 1.0km</title><desc>10155501797</desc></polyline><polyline fill="none" points="183.35190058173612,61.586816599126905 181.59717091405764,59.24322527041659 180.51733727240935,58.510852414299734 178.35766998911276,58.071428571478464 176.33298191148788,58.21790319669526 173.4984186021611,59.536174337146804 172.28360575530678,60.7079701742623 171.2037721136585,62.90508550987579 170.93381370371208,64.66277603339404 170.52887608809397,70.52173324138857 170.79883449804038,76.67361975915264 171.0687929089181,77.55245913926046 172.41858496051282,79.74955589219462 174.03833542345092,80.9213398359716 176.737919527106,81.21428571431898 179.16754522081465,80.1889749520924 181.46219170931727,77.40598593617324 182.13708773534745,76.08772662386764 183.08194217132404,71.83999623754062 183.08194217132404,68.47110017889645 183.75683819735423,64.07687936432194 183.6218589921482,62.46566263656132 182.13708773534745,60.7079701742623 180.92227488802746,59.82912336103618 178.0877115787007,58.510852414299734 176.60294032189995,58.510852414299734 173.36343939742073,59.536174337146804 171.87866814015433,60.85444460529834 170.93381370371208,62.61213693837635 170.6638552933,63.78393096558284 170.93381370371208,68.617574039381 170.6638552933,70.81468064908404" stroke="#4dd2ff" stroke-linecap="round" stroke-linejoin="round" stroke-width="0.5"><title>2023-11-03 1.0km</title><desc>10152446508</desc></polyline><polyline fill="none" points="18.067394147627056,84.85714285704307 19.332610786892474,87.60291606606916 20.41708219330758,92.50607548072003 22.224534537643194,96.03634467977099 24.93571305181831,103.09686906146817 25.47794875409454,104.27362130885012 26.38167492672801,107.41162476292811 26.923910629935563,108.0 27.64689156692475,108.0 27.64689156692475,107.60774985630997 26.38167492672801,107.01937453309074 25.839439223520458,105.64649827429093 24.574222583323717,104.46974663273431 23.67049641162157,101.9201162958052 22.405279770493507,99.95886053238064 20.95931789651513,97.01697418326512 19.332610786892474,90.93706544861197 18.24813938140869,88.3874221779406" stroke="#4dd2ff" stroke-linecap="round" stroke-linejoin="round" stroke-width="0.5"><title>2023-11-02 1.1km</title><desc>10144903556</desc></polyline><polyline fill="none" points="44.630398062989116,86.53416938101873 44.939498495310545,88.37889713374898 46.17590022273362,91.22983708966058 48.33960324712098,98.9441273411503 52.04880843218416,106.65839150408283 53.13065994344652,108.0 52.512459080666304,105.98758696066216 50.19420584011823,102.4658598692622 48.957804111763835,97.93791704869363 47.41230195108801,95.7577932261629 45.55769935902208,91.73294377094135 44.01219719834626,84.85714285715949" stroke="#4dd2ff" stroke-linecap="round" stroke-linejoin="round" stroke-width="0.5"><title>2023-11-01 1.0km</title><desc>10138966680</desc></polyline><polyline fill="none" points="70.91814728733152,85.20515742269345 71.71994895394892,87.81526503060013 73.00283162016422,94.77553791319951 75.08751595206559,99.29970431071706 76.37039861828089,103.475850232644 78.45508295111358,108.0 78.615443283692,107.82599439937621 77.17220028489828,105.73792619723827 75.08751595206559,100.86575989471748 73.32355228625238,97.73364769015461 70.2767059551552,88.5112932396587 69.95598528720438,84.85714285704307" stroke="#4dd2ff" stroke-linecap="round" stroke-linejoin="round" stroke-width="0.5"><title>2023-10-31 1.0km</title><desc>10133123337</desc></polyline><polyline fill="none" points="96.36635390110314,87.60001199808903 97.15627696644515,91.71430966048501 97.15627696644515,93.25716941198334 98.89410770870745,96.1714572685305 103.63364609889686,106.28572216280736 104.42356916423887,107.8285722725559 104.73953839018941,108.0 101.10589229129255,100.80002461350523 99.52604616153985,96.34288585279137 97.78821541834623,92.7428829416167 95.26046160981059,84.85714285704307" stroke="#4dd2ff" stroke-linecap="round" stroke-linejoin="round" stroke-width="0.5"><title>2023-10-30 1.0km</title><desc>10127985445</desc></polyline><polyline fill="none" points="122.06608853535727,88.20678292401135 122.76766491588205,92.92672109557316 123.18861074419692,94.4492795013357 125.99491626676172,100.99626789137255 127.39806902734563,104.80264697573148 129.5027981698513,107.69549040088896 130.0640592747368,108.0 130.2043745503761,107.543235584395 128.94153706543148,105.56392195285298 127.11743847560138,101.60528901498765 123.8901871247217,95.66732542030513 122.62734963931143,91.25190555641893 121.64514270611107,89.2725763550261 121.50482743047178,86.22745081200264 121.22419687826186,84.85714285715949" stroke="#4dd2ff" stroke-linecap="round" stroke-linejoin="round" stroke-width="0.5"><title>2023-10-28 1.0km</title><desc>10115543824</desc></polyline><polyline fill="none" points="148.4268633397296,89.65716173662804 149.69074042979628,93.77145576896146 151.11260215565562,97.02860006294213 152.3764792457223,101.65716570639051 154.2722948808223,106.11429430986755 155.0622180616483,107.8285722732544 155.85214124247432,108.0 156.0101258791983,107.8285722732544 155.69415660668164,106.80000564618967 154.74624878913164,104.22858709446155 151.58655606489629,98.05717100016773 149.05880188476294,91.20002284971997 147.4789555221796,87.77144121262245 146.84701697714627,84.85714285704307" stroke="#4dd2ff" stroke-linecap="round" stroke-linejoin="round" stroke-width="0.5"><title>2023-10-27 1.0km</title><desc>10110442644</desc></polyline><polyline fill="none" points="174.0063959537074,88.43068737536669 176.98603408318013,98.47061625879724 178.08379549905658,101.53363673959393 179.18155691586435,103.40548059390858 180.43614139128476,106.97899647534359 180.90661056991667,107.6596655419562 181.84754892624915,108.0 182.0043719848618,107.48949829407502 181.84754892624915,106.80882917763665 180.2793183317408,104.766820628196 177.92697244044393,100.68279812368564 175.10415737051517,92.34456313634291 173.22228065691888,89.28153049503453 172.2813423005864,84.85714285704307" stroke="#4dd2ff" stroke-linecap="round" stroke-linejoin="round" stroke-width="0.5"><title>2023-10-26 1.0km</title><desc>10104873905</desc></polyline><polyline fill="none" points="21.698016492649913,122.71120941836853 25.252670677378774,131.59939282014966 26.952722677960992,134.61801326693967 27.570923405699432,134.78571428568102 27.416373223997653,133.10870354261715 23.24351831153035,125.89754329971038 20.92526558227837,120.02797743491828 18.91611321736127,115.83542114193551 18.143362307921052,111.64285714284051" stroke="#4dd2ff" stroke-linecap="round" stroke-linejoin="round" stroke-width="0.5"><title>2023-10-25 1.0km</title><desc>10098978222</desc></polyline><polyline fill="none" points="44.29027461912483,111.64285714284051 44.13459629379213,112.82534454553388 45.06866624765098,116.71065601205919 46.314092852175236,119.24455125513487 47.09248447883874,122.28522185829934 48.4935894086957,126.33944306976628 51.45147759374231,132.0829108748585 52.38554754666984,134.44786403304897 52.696904198266566,134.78571428568102 53.00826084893197,134.6167891654186 52.85258252359927,132.42076147464104 51.14012094307691,129.21117876667995 49.894694338552654,127.35299725504592 48.337911083363,123.80555565096438 48.026554432697594,121.94736976805143 46.15841452591121,119.07562499272171 45.06866624765098,116.54172956303228 44.757309596054256,113.50105135946069 44.29027461912483,111.64285714284051" stroke="#4dd2ff" stroke-linecap="round" stroke-linejoin="round" stroke-width="0.5"><title>2023-10-24 1.0km</title><desc>10092835699</desc></polyline><polyline fill="none" points="71.90742074046284,115.63876303785946 74.208995138295,123.79704901436344 75.2830631909892,125.79499212047085 76.51056953612715,130.78984217438847 78.35182905569673,134.11973609006964 79.11902052164078,134.78571428568102 78.35182905569673,133.95324151031673 77.27776100300252,131.28932657383848 74.51587172504514,127.95942849630956 73.90211855154485,126.79396301263478 73.28836537897587,122.96457219996955 71.44710586033762,119.30167058110237 70.21959951519966,115.47226709977258 69.45240804925561,111.6428571427241" stroke="#4dd2ff" stroke-linecap="round" stroke-linejoin="round" stroke-width="0.5"><title>2023-10-23 1.0km</title><desc>10087395010</desc></polyline><polyline fill="none" points="92.50717215472832,111.75385575310793 92.91633681510575,111.64285714289872 95.83163502113894,111.86485434696078 97.11027458496392,112.19785003067227 97.41714808042161,112.36434781743446 98.0820406540297,112.86384095728863 98.54235089686699,113.41883294726722 99.56526254792698,115.30580266064499 100.07671837392263,117.41476322850212 100.74161094706506,118.52474010788137 101.04848444228992,119.4127204361721 101.76452259812504,121.02218211872969 102.27597842388786,122.68713886867044 103.04316216241568,124.01910162443528 103.40118124033324,124.40759031882044 103.86149148340337,125.18456710776081 104.11721939616837,126.84951467678184 104.2706561437808,127.29350007505855 104.67982080415823,127.90397957118694 104.78211196954362,128.84744691231754 104.93554871715605,129.23593312170124 107.18595434981398,134.56372382264817 107.49282784527168,134.78571428573923 107.49282784527168,134.50822619657265 107.03251760220155,134.06424504175084 106.52106177667156,132.84329551941482 106.00960595090874,131.78883752471302 104.62867522169836,127.51549267623341" stroke="#4dd2ff" stroke-linecap="round" stroke-linejoin="round" stroke-width="0.5"><title>2023-10-22 1.5km</title><desc>10080655811</desc></polyline><polyline fill="none" points="122.03335920302197,111.64285714289872 122.84532828629017,112.23024759587133 121.38378393603489,111.99529146647546 123.65729736955836,114.93223811686039 123.87382245855406,115.63710370636545 123.71142864204012,116.22449122235412 122.95359083078802,116.6356622268213 122.73706574179232,117.04683301941259 122.79119701404124,117.75169674295466 123.2242471917998,119.45511484093731 123.71142864204012,120.68862223078031 124.25274136429653,122.56824887666153 125.22710426431149,124.27165670477552 125.38949808105826,124.91777596535394 125.98494207533076,125.97506090078969 126.36386098130606,126.44496486760909 126.41799225308932,126.7386547063943 126.79691115883179,127.09108237054897 127.06756751984358,127.67846146522788 127.44648642581888,128.79448055534158 127.82540533132851,129.55807166616432 127.77127405907959,131.08525169832865 128.47498059784994,132.43621621659258 128.69150568707846,133.08232887438498 129.07042459235527,133.78717845055507 129.71999985910952,134.6095021701185 130.04478749260306,134.78571428573923 128.79976823134348,133.0235913816141 128.5291118703317,132.08379091037204 127.98779914784245,130.9090387666365 127.77127405907959,130.1454489470343 127.06756751984358,129.1469073126209 126.47212352557108,127.44350987917278" stroke="#4dd2ff" stroke-linecap="round" stroke-linejoin="round" stroke-width="0.5"><title>2023-10-20 1.4km</title><desc>10069668027</desc></polyline><polyline fill="none" points="146.77174117648974,111.64285714289872 146.88196201086976,112.53987937700003 147.76372868567705,114.69272870197892 147.9841703546699,116.00835603987798 149.80281412159093,120.43363237607991 149.96814537304454,121.03164084500168 150.07836620765738,121.92865272419294 150.29880787618458,122.52666009409586 151.62145788874477,124.3804801463848 152.33789331209846,125.81569276901428 152.7787766493857,127.25090285908664 153.164549570065,128.02830726723187 153.3849912385922,129.22431259811856 153.66054332465865,129.8223146040691 154.3769787477795,131.6761180286412 154.48719958239235,132.3937182200607 155.53429750888608,134.5465149958036 155.8098495947197,134.78571428573923 155.97518084640615,134.78571428573923 156.08540168055333,134.72591446974548 156.03029126371257,134.66611464950256 154.9280829199124,133.290717568947 154.43208916531876,131.61631798412418 153.3849912385922,129.70271423802478 153.21965998713858,128.92531143018277 153.10943915252574,127.60970498598181" stroke="#4dd2ff" stroke-linecap="round" stroke-linejoin="round" stroke-width="0.5"><title>2023-10-19 1.3km</title><desc>10064004415</desc></polyline><polyline fill="none" points="171.92432016599923,111.64285714284051 174.19324928615242,114.5972777956631 174.0419873446226,116.73102361347992 174.3445112267509,118.86476739204954 175.40334481745958,122.63984754239209 176.91596422996372,125.10185289743822 178.42858364339918,129.36932241462637 181.45382247120142,134.29331556742545 181.90760829579085,134.78571428568102 182.36139411944896,134.6215813914314 180.39498888142407,132.65198572271038 176.7647022884339,125.59425364260096 175.85713064018637,122.47571375546977 173.28567763790488,117.05929201969411" stroke="#4dd2ff" stroke-linecap="round" stroke-linejoin="round" stroke-width="0.5"><title>2023-10-18 1.0km</title><desc>10058081424</desc></polyline><polyline fill="none" points="18.81776161585003,139.83117522415705 20.110363612882793,147.37015649373643 23.50344385486096,156.31170803238638 25.765497349202633,161.04545703949407 26.734948847442865,161.57142857136205 27.21967459656298,161.57142857136205 27.54282509535551,160.87013317015953 26.411798348650336,159.4675417477265 24.957621101289988,157.18832892808132 23.018718106672168,152.9805456912145 22.210841858759522,150.52600204129703 18.81776161585003,143.68833140959032 18.494611117057502,142.63638034136966 18.171460618264973,138.42857142840512" stroke="#4dd2ff" stroke-linecap="round" stroke-linejoin="round" stroke-width="0.5"><title>2023-10-17 1.0km</title><desc>10051702317</desc></polyline><polyline fill="none" points="43.403504837304354,138.9626398559194 45.04411554709077,141.81100281258114 47.505031609907746,148.21980721363798 48.81752017792314,150.71211545565166 50.294069815427065,155.3406810988672 52.09874159656465,159.96923789544962 52.75498588010669,161.21538629056886 53.57529123406857,161.57142857136205 53.73935230541974,161.39340743771754 53.57529123406857,160.85934395738877 51.77061945479363,158.18902479019016 49.30970339104533,152.13629044196568 47.505031609907746,148.39782931585796 46.028481972403824,141.45495762582868 45.20817661751062,138.42857142840512" stroke="#4dd2ff" stroke-linecap="round" stroke-linejoin="round" stroke-width="0.5"><title>2023-10-16 1.0km</title><desc>10046279660</desc></polyline><polyline fill="none" points="69.54617223609239,138.42857142840512 70.22324967198074,139.89796555694193 70.90032710786909,143.20409918646328 72.42375133745372,148.34696502564475 74.45498364418745,151.46941412007436 76.82475466839969,160.2857199094724 77.6711014630273,161.20408330694772 78.85598697513342,161.57142857136205 79.025256334804,161.20408330694772 78.85598697513342,160.1020471896045 76.65548530966043,156.97960888431408 75.47059979755431,153.30614705826156 74.11644492670894,151.10206737020053 70.90032710786909,143.57144709769636 69.71544159576297,138.42857142840512" stroke="#4dd2ff" stroke-linecap="round" stroke-linejoin="round" stroke-width="0.5"><title>2023-10-15 1.0km</title><desc>10039610121</desc></polyline><polyline fill="none" points="95.18401266261935,140.10830203117803 95.700011305511,145.52075974736363 97.07600768841803,149.4401184762828 98.79600316658616,151.86638513277285 99.82800045330077,155.22582744481042 102.75199276488274,160.4516177601181 103.43999095540494,161.19815835589543 104.29998869542032,161.57142857136205 104.81598733831197,161.19815835589543 104.81598733831197,160.63825292955153 101.37599638290703,157.83872394706123 99.14000226184726,153.73274252167903 98.28000452276319,150.18666230980307 96.21600994933397,145.52075974736363 95.18401266261935,141.6013949678745 95.35601221118122,139.1751185003668 95.18401266261935,138.42857142840512" stroke="#4dd2ff" stroke-linecap="round" stroke-linejoin="round" stroke-width="0.5"><title>2023-10-14 1.0km</title><desc>10033377496</desc></polyline><polyline fill="none" points="120.46693636011332,138.79592004208826 123.51378437224776,142.46940320334397 123.85232304036617,145.2245120294392 126.72990171890706,154.04083985602483 129.43821106292307,160.46939261630177 130.28455773275346,161.57142857136205 130.9616350689903,161.57142857136205 130.9616350689903,161.02041065483354 130.79236573446542,160.46939261630177 129.2689417283982,159.3673561748583 127.57624838873744,156.24491695151664 125.7142857145518,150.3673737095669 122.32889903429896,142.8367512221448 121.82109103258699,140.26531395455822 120.97474436182529,138.42857142863795" stroke="#4dd2ff" stroke-linecap="round" stroke-linejoin="round" stroke-width="0.5"><title>2023-10-13 1.0km</title><desc>10028006924</desc></polyline><polyline fill="none" points="146.4629078330472,138.42857142840512 148.09099425841123,140.54853708157316 149.06784611288458,142.31517369649373 149.23065475560725,144.61179935513064 149.06784611288458,147.08508607069962 150.85874118003994,150.79501137160696 152.97525353264064,156.4482198629994 155.09176588431,160.33479298627935 155.58019181154668,161.041441970272 156.3942350242287,161.57142857136205 156.3942350242287,160.6881175043527 154.60333995707333,158.3915072104428 152.97525353264064,155.56490691308863 150.85874118003994,149.7350332988426 149.55627204012126,147.4384125370998 148.90503747109324,145.49511633184738" stroke="#4dd2ff" stroke-linecap="round" stroke-linejoin="round" stroke-width="0.5"><title>2023-10-12 1.0km</title><desc>10021974100</desc></polyline><polyline fill="none" points="174.4370738081634,141.71003519324586 175.07372871041298,145.16420262586325 174.91456498485059,146.5458681769669 176.3470385139808,151.2089834115468 177.46118459291756,153.2814760999754 178.57533067185432,157.08104128041305 180.16696792654693,160.8806003157515 180.48529537767172,161.2260144688189 181.281114006415,161.57142857136205 181.1219502799213,160.8806003157515 179.37114929966629,156.3902117048856 177.46118459291756,153.10876844543964 174.91456498485059,147.23670064727776 174.277910082601,144.99149437481537 173.95958263147622,141.71003519324586 173.00460027903318,138.42857142863795" stroke="#4dd2ff" stroke-linecap="round" stroke-linejoin="round" stroke-width="0.5"><title>2023-10-10 1.0km</title><desc>10009069592</desc></polyline><polyline fill="none" points="18.93656637147069,168.1071555116214 20.034327787347138,171.17019017937128 21.132089203223586,175.2542300982168 23.484435095451772,180.35926986287814 25.366311808116734,186.82563740201294 26.464073223993182,188.3571428571595 26.77771934401244,187.8466411512345 26.934542402625084,185.97480059973896 25.836780986748636,182.74161789973732 23.484435095451772,178.6575911922846 20.818443085066974,171.17019017937128 20.034327787347138,167.76681807579007 18.779743311926723,165.21428571420256" stroke="#4dd2ff" stroke-linecap="round" stroke-linejoin="round" stroke-width="0.5"><title>2023-10-09 1.0km</title><desc>10003389142</desc></polyline><polyline fill="none" points="43.85944182612002,165.21428571408615 45.016771904192865,166.64950804505497 46.17410198226571,169.34054763941094 46.8354334551841,174.7226179256104 49.31542647909373,180.1046763411723 51.46475376561284,186.20432819565758 52.45675097499043,187.998340545455 53.283415315672755,188.35714285704307 53.283415315672755,186.92193329404108 50.14209081977606,181.8986931750551 46.00876911357045,171.85218191659078 44.35544043034315,165.39368855208158" stroke="#4dd2ff" stroke-linecap="round" stroke-linejoin="round" stroke-width="0.5"><title>2023-10-08 1.0km</title><desc>9996447828</desc></polyline><polyline fill="none" points="71.31503812875599,169.84287619916722 72.07674996461719,172.6530872018775 74.36188546940684,178.76941665518098 75.12359730433673,181.41431072517298 77.56107517611235,187.53061634639744 78.32278701104224,188.3571428571595 78.47512937802821,187.69592167297378 78.47512937802821,187.03470029460732 75.58062440529466,181.9102280169027 74.20954310242087,178.93472262541763 71.77206522971392,171.6612484252546 71.01035339478403,167.85919572925195 70.09629919286817,165.21428571431898" stroke="#4dd2ff" stroke-linecap="round" stroke-linejoin="round" stroke-width="0.5"><title>2023-10-07 1.0km</title><desc>9989974159</desc></polyline><polyline fill="none" points="98.10922628920525,172.10792782274075 99.31932146381587,176.0471423274139 100.22689284570515,178.01674697361887 102.0420356085524,185.7310151066631 102.49582129903138,187.2082123461878 103.40339267998934,188.3571428571595 104.15970216412097,188.3571428571595 104.46222595777363,187.70061120891478 104.31096406187862,187.2082123461878 102.49582129903138,184.58208324376028 100.68067853618413,180.64288379845675 100.07563094887882,178.01674697361887 96.89913111459464,170.30245218542404 96.44534542411566,167.5121687820647 95.53777404222637,165.21428571431898" stroke="#4dd2ff" stroke-linecap="round" stroke-linejoin="round" stroke-width="0.5"><title>2023-10-06 1.0km</title><desc>9984428862</desc></polyline><polyline fill="none" points="120.73193632718176,165.21428571431898 123.35422547906637,172.23304300755262 125.10241824667901,178.11360874283127 128.07434595096856,185.51172079332173 129.2980808885768,187.97775343060493 129.8225387185812,188.35714285704307 130.52181582618505,188.35714285704307 130.69663510192186,187.97775343060493 130.17217727191746,187.02927961805835 128.07434595096856,183.99416107684374 126.85061101429164,181.5281246327795 124.75277969241142,176.0269579195883 123.87868330907077,173.18152225832455 121.4312134347856,168.62881867401302 121.4312134347856,166.92155275889672" stroke="#4dd2ff" stroke-linecap="round" stroke-linejoin="round" stroke-width="0.5"><title>2023-10-04 1.0km</title><desc>9971682885</desc></polyline><polyline fill="none" points="147.9258093610406,167.91711316874716 148.70420093182474,170.61993744410574 149.48259250167757,172.47812728898134 150.1053057583049,175.34987227525562 153.06319372542202,181.26227712223772 153.21887203957886,183.28938385332003 154.15294192451984,187.34359195071738 154.46429855190217,187.8503674598178 155.39836843684316,188.3571428571595 155.39836843684316,186.66789109795354 153.374550354667,182.95153285574634 151.97344552725554,179.74194590048864 151.19505395647138,178.22161367256194 150.41666238568723,176.02557645644993 148.85987924598157,172.81597982684616 148.23716598935425,170.28208458342124 147.9258093610406,167.748186546145 147.45877441950142,165.21428571431898" stroke="#4dd2ff" stroke-linecap="round" stroke-linejoin="round" stroke-width="0.5"><title>2023-10-03 1.0km</title><desc>9965060084</desc></polyline><polyline fill="none" points="172.91252100281417,166.17060620267875 175.0276890732348,173.05610334384255 175.38021708466113,176.11631844588555 176.6140651255846,177.64642464672215 177.49538515508175,179.9415822608862 179.08176120743155,185.87073005991988 180.31560924835503,187.7833554991521 181.19692927692086,188.35714285704307 181.37319328356534,188.16588041838259 180.84440126642585,186.63578040408902 178.9054972017184,183.00178926368244 175.73274509608746,175.35126500763 173.79384103231132,169.61335705104284 173.441313020885,165.21428571431898" stroke="#4dd2ff" stroke-linecap="round" stroke-linejoin="round" stroke-width="0.5"><title>2023-10-02 1.0km</title><desc>9958643020</desc></polyline><polyline fill="none" points="19.188736907206476,196.0731582788285 19.52998397219926,197.73944840370677 23.283701688982546,206.62631044583395 25.16056054737419,212.3657255147118 26.184301742352545,214.4022890077904 27.2080429373309,215.14285714295693 27.378666470758617,214.95771512947977 27.2080429373309,214.21714694029652 23.795572286471725,209.03316351911053 20.553725167177618,201.0720253442414 19.018113374710083,196.25830168067478 18.33561924379319,192.0" stroke="#4dd2ff" stroke-linecap="round" stroke-linejoin="round" stroke-width="0.5"><title>2023-10-01 1.0km</title><desc>9952075403</desc></polyline><polyline fill="none" points="45.2485984377563,195.35405181569513 46.639550587162375,198.20499198127072 47.2577515412122,201.05592858383898 47.72140225768089,203.73915977822617 50.03965583909303,210.27952259161975 52.04880894254893,214.47205299360212 52.97611037455499,215.1428571428405 53.28521085344255,214.63975404936355 50.19420607853681,209.94411982689053 48.80325392913073,206.75779109902214 48.33960321266204,205.08077419165056 46.175899870693684,200.38512029196136 44.939497959800065,195.18634934176225 43.85764628928155,192.0" stroke="#4dd2ff" stroke-linecap="round" stroke-linejoin="round" stroke-width="0.5"><title>2023-09-30 1.0km</title><desc>9945549317</desc></polyline><polyline fill="none" points="70.70262220874429,192.0 72.23823309876025,194.59201057627797 72.75010339543223,196.62858844315633 74.11509085353464,199.96116685448214 74.7975845830515,204.96002620225772 75.30945487972349,206.44116780697368 77.35693606548011,211.44001429202035 77.8688063621521,214.58743106247857 78.21005322691053,214.9577151297126 78.72192352358252,215.14285714295693 78.89254695549607,214.77257310249843 75.82132517639548,209.21830596844666 73.7738439887762,204.40459787589498 73.09135026019067,201.62745440611616 70.70262220874429,196.0731582797598 69.67888161540031,192.74057472264394" stroke="#4dd2ff" stroke-linecap="round" stroke-linejoin="round" stroke-width="0.5"><title>2023-09-28 1.0km</title><desc>9933629332</desc></polyline><polyline fill="none" points="95.4758896837011,194.62988144042902 96.76849263161421,199.1883357341867 99.19212315697223,202.51950836111791 100.80787684116513,208.48054250143468 103.06993199884892,212.5129983238876 103.71623347233981,214.79220946785063 104.36253494489938,215.14285714295693 104.68568568304181,214.61688561108895 104.36253494489938,213.91559005482122 103.06993199884892,212.16235026181675 99.35369852557778,204.62340446491726 97.41479410417378,199.3636607248336 95.31431431602687,192.00000000023283" stroke="#4dd2ff" stroke-linecap="round" stroke-linejoin="round" stroke-width="0.5"><title>2023-09-27 1.0km</title><desc>9927137811</desc></polyline><polyline fill="none" points="127.63684175722301,191.9999999999418 127.17542830691673,194.22530548635405 126.71401485661045,195.50485317711718 126.35513772862032,197.0625604885863 124.25314312148839,201.45750311407028 123.17651173775084,203.29335766413715 122.9714390928857,204.07220370310824 123.07397541496903,204.68415360001381 123.33031622087583,205.57426165725337 124.09933863789774,207.46573780244216 124.35567944380455,207.96642187290126 124.66328841075301,208.85652606899384 125.6886516334489,210.13604901649524 126.15006508398801,211.1374132920755 126.66274669556879,211.91625125706196 127.07289198460057,213.028875530581 127.6881099184975,213.86334266205085 128.45713233551942,215.1428571428405" stroke="#4dd2ff" stroke-linecap="round" stroke-linejoin="round" stroke-width="0.5"><title>2023-09-26 1.0km</title><desc>9920397094</desc></polyline><polyline fill="none" points="151.32049218122847,191.9999999999418 150.31175253889523,195.3620003819815 149.30301289679483,197.1602752925828 148.36632608575746,198.33306163945235 147.86195626482368,199.2712897855672 147.64579777000472,200.2095171037945 147.7178506013006,201.3823000874836 148.07811475964263,202.32052554324036 148.94274873868562,203.64967685518786 149.30301289679483,204.9788265057141 150.02354121231474,206.69890005787602 151.39254501275718,208.41897082794458 153.6982356235385,213.1100587871042 155.21134508703835,215.1428571428405" stroke="#4dd2ff" stroke-linecap="round" stroke-linejoin="round" stroke-width="0.5"><title>2023-09-25 1.0km</title><desc>9914573673</desc></polyline><polyline fill="none" points="178.84906286303885,192.0 178.28032762301154,192.8640114669688 178.16658057505265,193.2960168668651 178.28032762301154,193.85145205439767 178.3372011471074,194.40688687423244 177.19973066681996,196.5051928765024 176.91536304657348,197.924632197537 176.51724837883376,198.97378145722905 174.12856037029997,203.17036538163666 174.07168684643693,203.66407975781476 174.2991809421219,204.65150763938436 174.9247897064779,205.63893435924547 175.2660308505874,206.50293178623542 175.77789256651886,207.36692832381232 176.0622601865325,208.23092397203436 176.8016159988474,209.40348807227565 177.3703512386419,210.57605053449515 177.99596000323072,211.254901737615 178.16658057505265,211.8720387185458 178.5646952430252,212.3657479765825 179.417798103299,213.84687400865369 180.04340686742216,214.52572256652638 180.21402743947692,215.1428571428405" stroke="#4dd2ff" stroke-linecap="round" stroke-linejoin="round" stroke-width="0.5"><title>2023-09-24 1.0km</title><desc>9907510217</desc></polyline><polyline fill="none" points="23.719910407438874,218.78571428568102 23.236760579282418,219.53468229668215 22.891653559170663,220.28364975680597 22.68458934710361,221.25730663182912 22.61556794284843,222.53054883313598 21.442204074468464,224.10337523772614 20.751990034477785,225.900888154516 20.130797398043796,226.79964342340827 19.71666897390969,227.99798254854977 19.64764756965451,229.2712163241813 21.09709705435671,232.94111653784057 21.649268286535516,234.0645527355955 23.44382479134947,236.91058555798372 24.20306023559533,238.78297123644734 25.169359891908243,239.98129626433365 25.72153112431988,240.95493431173963 26.066638144431636,241.92857142857974" stroke="#4dd2ff" stroke-linecap="round" stroke-linejoin="round" stroke-width="0.5"><title>2023-09-23 1.0km</title><desc>9901004991</desc></polyline><polyline fill="none" points="49.460079638287425,218.78571428573923 48.999297603731975,219.6428669745801 48.538515568943694,221.14288236008724 47.485299489693716,223.35718655312667 46.43208341044374,224.85719620325835 45.51051934110001,227.35720713983756 45.44469333603047,228.7143532395712 45.576345346169546,229.5000685363193 46.89286544499919,232.6429233677918 47.090343459974974,233.57149216765538 47.35364747978747,234.0714903845801 48.2752115491312,235.21434248570586 48.999297603731975,236.64290572114987 49.59173164819367,238.14289485791232 50.57912172260694,239.5714537873282 51.69816380669363,241.92857142857974" stroke="#4dd2ff" stroke-linecap="round" stroke-linejoin="round" stroke-width="0.5"><title>2023-09-22 1.0km</title><desc>9895405405</desc></polyline><polyline fill="none" points="75.51252330024727,218.78571428573923 75.3237834519241,219.46840269467793 74.94630375527777,219.87801549909636 74.12843107874505,221.37992756912718 73.81386466487311,222.47222573042382 72.87016542279162,224.86162347818026 71.8635528984014,226.9096737963264 71.23442007019185,228.41157449188177 71.04568022186868,229.16252392844763 71.04568022186868,229.64040052646305 71.23442007019185,230.3230809540837 71.61189976707101,231.0057608798379 72.42977244360372,233.1220654596691 73.24764511967078,234.62395610607928 73.68803809932433,235.7162386867567 74.50591077562422,237.08159010566305 75.00921703781933,237.695997589326 75.38669673469849,238.78827655612258 76.39330925955437,240.5632271367358 77.5257483497262,241.92857142857974" stroke="#4dd2ff" stroke-linecap="round" stroke-linejoin="round" stroke-width="0.5"><title>2023-09-21 1.0km</title><desc>9889267953</desc></polyline><polyline fill="none" points="102.35623061587103,218.78571428573923 101.5303353483323,221.263459073205 101.04451460298151,223.214018094528 100.26720140990801,224.8482661617454 99.34414199343883,227.58957713481504 97.74093353305943,230.5944636601489 97.30369486217387,232.22869490430458 97.3522769366391,232.59771434712457 97.64376938389614,233.3884696564637 98.27533635334112,234.7591101268772 98.66399294976145,235.91888078604825 99.6356344409287,237.28951641911408 100.21861933567561,238.39656636398286 100.55869385716505,239.1873152781045 100.94735045358539,239.87263029819587 101.57891742303036,240.34707877459005 102.35623061587103,241.5068403953337 102.40481269056909,241.7177059429814 102.69630513782613,241.92857142857974" stroke="#4dd2ff" stroke-linecap="round" stroke-linejoin="round" stroke-width="0.5"><title>2023-09-20 1.0km</title><desc>9882714971</desc></polyline><polyline fill="none" points="127.63321817736141,218.78571428573923 127.13977840123698,220.0350885152584 126.20772549067624,222.77180627640337 126.15289884875529,223.66421224054648 125.82393899769522,224.1401616857038 125.4401525054127,225.03256614063866 125.22084593796171,225.86547607730608 124.78223280375823,226.9958524769172 123.52122004213743,229.01862735598115 123.1922601913102,230.20849256968359 123.08260690770112,231.27936976606725 123.1922601913102,232.35024554503616 123.52122004213743,233.5401058595162 123.90500653441995,234.3730070387246 125.11119265435264,236.45525623566937 125.71428571431898,237.28815441404004 126.26255213213153,238.77547045750543 126.81081855040975,239.72735129058128 127.3590849682223,240.50075364299119 127.96217802818865,241.0956780264969 128.34596452093683,241.92857142857974" stroke="#4dd2ff" stroke-linecap="round" stroke-linejoin="round" stroke-width="0.5"><title>2023-09-19 1.0km</title><desc>9876194288</desc></polyline><polyline fill="none" points="151.25822279974818,218.78571428573923 150.8493860901799,219.4511712892563 150.16799157462083,220.782083975384 149.9635732199531,221.6693581205909 148.7370630914811,223.8136007396388 147.78311076946557,225.80996044742642 147.578692414565,226.54935192601988 147.64683186635375,227.36268192430725 148.05566857592203,228.3978282439639 148.6689236399252,229.50691240374 149.2140392526053,231.05962817254476 149.9635732199531,232.6862802161486 150.781246638624,234.16505251801573 151.53078060620464,235.12625334830955 152.41659347643144,236.60502206231467 152.9617090888787,238.30560339521617 153.91566141112708,239.78436743433122 154.39263757225126,241.1152532103588 155.2784504427109,241.92857142857974" stroke="#4dd2ff" stroke-linecap="round" stroke-linejoin="round" stroke-width="0.5"><title>2023-09-18 1.0km</title><desc>9870505463</desc></polyline><polyline fill="none" points="177.37540137278847,218.78571428573923 177.04319532960653,219.43458688195096 176.57810686947778,221.59749243460828 175.9801359924022,222.6068467264995 175.7143711578101,223.3999100839137 174.25266456906684,225.77909630781505 173.72113490034826,227.0768318150076 173.38892885739915,228.23037304595346 173.6546936915256,229.02343185519567 175.1164002805017,232.1956606777385 175.84725357522257,233.3491958871018 176.3787832437083,234.5748255600338 177.242518955376,235.72835797059815 177.70760741573758,236.52141071559163 178.30557829304598,238.39589647261892 180.89678542804904,241.92857142857974" stroke="#4dd2ff" stroke-linecap="round" stroke-linejoin="round" stroke-width="0.5"><title>2023-09-16 1.0km</title><desc>9856514700</desc></polyline><polyline fill="none" points="22.53722807345912,245.57142857142026 21.82630633120425,247.7314501705696 20.90210806648247,249.1971765802009 18.98261936265044,252.9000552307116 18.91152718826197,253.7486297477153 18.98261936265044,254.75148965540575 19.409172408049926,255.75434860464884 20.120094150304794,256.83434947789647 20.759923717938364,258.3000631706673 21.897398505359888,260.22863069950836 23.319241989869624,262.92861928464845 23.4614263381809,263.9314704181161 23.959071557736024,264.31718213728163 24.527808951446787,265.08860515023116 25.452007216168568,266.6314494747785 26.447297655045986,267.4800128862262 26.66057417774573,268.02000742714154 26.802758526289836,268.71428571426077" stroke="#4dd2ff" stroke-linecap="round" stroke-linejoin="round" stroke-width="0.5"><title>2023-09-15 1.0km</title><desc>9850671982</desc></polyline><polyline fill="none" points="49.1597768641077,245.57142857142026 47.98308027908206,248.6837725614896 46.65929662017152,250.59905673458707 46.07094832789153,251.63650091725867 45.188425888773054,253.87099271186162 44.96779527934268,254.66902438079705 44.96779527934268,255.30744929309003 45.188425888773054,256.10547990584746 46.07094832789153,258.4995682234876 46.87992723006755,260.0956241681124 48.86560271773487,263.52713650179794 49.674581619910896,265.0433826817898 49.82166869286448,265.92120844946476 50.41001698607579,266.479824477341 51.36608296120539,267.9960665325634 52.175061863381416,268.71428571426077" stroke="#4dd2ff" stroke-linecap="round" stroke-linejoin="round" stroke-width="0.5"><title>2023-09-14 1.0km</title><desc>9844236351</desc></polyline><polyline fill="none" points="70.60760296694934,245.57142857136205 71.03098268690519,245.9159922673134 71.18975008209236,246.26055581122637 71.29559501213953,247.00710963463644 71.6131298020482,247.6388084665523 71.82481966237538,249.41904787998646 71.82481966237538,250.2804525909596 71.7189747323282,250.73986804834567 71.82481966237538,251.3141369901714 72.08943198737688,252.0032591629424 71.98358705732971,252.57752717577387 72.03650952246971,252.86466102383565 72.56573417247273,253.84091531776357 73.04203635780141,255.27658118045656 73.46541607799008,256.08055291092023 73.9946407279931,256.82709734817035 74.57678784336895,257.343935386627 74.73555523832329,257.688493889058 74.89432263351046,258.43503678945126 75.31770235369913,259.1815789762768 75.79400453879498,260.5598088313127 76.42907411884516,261.7657579596271 76.74660890898667,262.7994271591306 76.90537630417384,263.66081711358856 77.22291109431535,264.34992839349434 77.80505820945837,266.2449812780251 78.59889518492855,267.73805000964785 78.65181765006855,267.9677526380983 78.59889518492855,268.14002956519835 77.9638256044127,268.71428571426077 78.28136039455421,268.4845833052532 78.44012778974138,268.14002956519835 78.54597271955572,267.8529013323714 78.49305025488138,267.45092162903165 78.17551546473987,267.0489417188219 77.22291109431535,264.98161319905194 76.74660890898667,263.4311132186558 75.74108207388781,261.1914967020857 75.26477988855913,259.00930007349234 75.00016756355762,258.37761043792125 73.9946407279931,257.0568031852599 72.98911389266141,255.16172800853383 72.51281170733273,253.61120853491593 72.35404431284405,252.57752717577387 71.93066459218971,251.48641759040765 71.08390515204519,249.64875589578878 70.87221529195085,248.78735048812814 70.13130078162067,247.40909985953476 69.9725333864335,246.66254642023705 69.91961092152633,245.74371043837164" stroke="#4dd2ff" stroke-linecap="round" stroke-linejoin="round" stroke-width="0.5"><title>2023-09-13 1.0km</title><desc>9837636972</desc></polyline></svg>