<?xml version="1.0" encoding="utf-8" ?>
<svg baseProfile="full" height="300mm" version="1.1" viewBox="0,0,200,300" width="200mm" xmlns="http://www.w3.org/2000/svg" xmlns:ev="http://www.w3.org/2001/xml-events" xmlns:xlink="http://www.w3.org/1999/xlink"><defs /><rect fill="#222222" height="300" width="200" x="0" y="0" /><text fill="#FFFFFF" style="font-size:12px; font-family:Arial; font-weight:bold;" x="10" y="20">Over 1km Runs</text><text fill="#FFFFFF" style="font-size:4px; font-family:Arial" x="10" y="280">ATHLETE</text><text fill="#FFFFFF" style="font-size:9px; font-family:Arial" x="10" y="290">Jiakai</text><text fill="#FFFFFF" style="font-size:4px; font-family:Arial" x="120" y="280">STATISTICS</text><text fill="#FFFFFF" style="font-size:3px; font-family:Arial" x="120" y="285">Number: 18</text><text fill="#FFFFFF" style="font-size:3px; font-family:Arial" x="120" y="290">Weekly: 4.5</text><text fill="#FFFFFF" style="font-size:3px; font-family:Arial" x="141" y="285">Total: 18.3 km</text><text fill="#FFFFFF" style="font-size:3px; font-family:Arial" x="141" y="290">Avg: 1.0 km</text><text fill="#FFFFFF" style="font-size:3px; font-family:Arial" x="167" y="285">Min: 1.0 km</text><text fill="#FFFFFF" style="font-size:3px; font-family:Arial" x="167" y="290">Max: 1.0 km</text><polyline fill="none" points="25.096911754459143,33.92356085474603 28.79845587722957,45.97318085189909 29.415379896759987,51.32855728059076 31.574613969773054,54.006243132054806 33.11692402139306,58.0227689568419 35.8930821120739,68.39877760480158 38.05231618322432,71.74587212386541 39.59462623484433,72.75 39.90308824554086,72.41529073240235 38.97770221531391,69.7376157073304 35.58462010324001,63.37813121150248 30.032303918153048,49.98971376335248 26.639221804216504,39.94837483949959 26.02229778468609,32.25" stroke="#4dd2ff" stroke-linecap="round" stroke-linejoin="round" stroke-width="0.5"><title>2023-10-02 1.0km</title><desc>9958643020</desc></polyline><polyline fill="none" points="71.0802895873785,39.378026988124475 71.67747195065022,42.29403470642865 78.24647795595229,57.846043280093 81.530980957672,67.89001965080388 83.32252804934978,71.45400576363318 85.11407514102757,72.75 85.41266632266343,72.42600147658959 85.11407514102757,71.1300071454607 79.14225150085986,62.058036158559844 73.469019042328,48.126044352538884 70.78169840388,39.70202794135548 69.58733367733657,32.25" stroke="#4dd2ff" stroke-linecap="round" stroke-linejoin="round" stroke-width="0.5"><title>2023-10-01 1.0km</title><desc>9952075403</desc></polyline><polyline fill="none" points="116.68504726607352,38.11959067755379 119.1192135270685,43.10873596719466 120.20106519665569,48.09787502186373 121.01245395094156,52.79352961201221 125.06939771864563,64.23916453542188 128.58541565015912,71.57609273889102 130.2081931559369,72.75 130.7491189930588,71.8695695863571 125.33986063674092,63.652209697058424 122.90569437667727,58.076134423492476 122.0943056223914,55.14135483559221 118.30782477371395,46.923960511107 116.14412142988294,37.826111348113045 114.25088100600988,32.25" stroke="#4dd2ff" stroke-linecap="round" stroke-linejoin="round" stroke-width="0.5"><title>2023-09-30 1.0km</title><desc>9945549317</desc></polyline><polyline fill="none" points="161.22958886437118,32.25 163.9169079232961,36.78601850848645 164.8126809410751,40.350029775407165 167.2014089934528,46.18204199522734 168.39577301964164,54.9300458538346 169.29154603928328,57.5220436619129 172.87463811412454,66.27002501068637 173.77041113376617,71.77800435898826 174.3675931468606,72.42600147682242 175.26336616650224,72.75 175.56195717304945,72.10200292943045 170.18731905706227,62.38203544449061 166.60422698035836,53.95804628264159 165.40986295603216,49.09804521035403 161.22958886437118,39.37802698928863 159.43804282695055,33.54600576451048" stroke="#4dd2ff" stroke-linecap="round" stroke-linejoin="round" stroke-width="0.5"><title>2023-09-28 1.0km</title><desc>9933629332</desc></polyline><polyline fill="none" points="24.582806948572397,85.60229252045974 26.844862106256187,93.57958753430285 31.086215525865555,99.4091396315489 33.91378447320312,109.84094937704504 37.872380998916924,116.89774706633762 39.00340857822448,120.88636656850576 40.13443615566939,121.5 40.69994994625449,120.57954981876537 40.13443615566939,119.3522825955879 37.872380998916924,116.28411295777187 31.368972420692444,103.09095781296492 27.975889683701098,93.88640626822598 24.300050053745508,81.0" stroke="#4dd2ff" stroke-linecap="round" stroke-linejoin="round" stroke-width="0.5"><title>2023-09-27 1.0km</title><desc>9927137811</desc></polyline><polyline fill="none" points="80.86447307514027,81.0 80.05699953669682,84.89428460109048 79.2495259991847,87.13349306001328 78.62149102473632,89.85948085505515 74.94300046237186,97.55063044966664 73.05889554088935,100.7633759122109 72.70001841243356,102.12635648041032 72.87945697642863,103.19726880011149 73.32805338641629,104.75495790026616 74.67384261637926,108.06504115427379 75.12243902636692,108.94123827759176 75.66075471881777,110.49892062076833 77.45514035830274,112.73808577889577 78.26261389674619,114.49047326110303 79.15980671718717,115.85343969985843 79.87756097316742,117.80053217848763 80.9541923571378,119.26084965851624 82.29998158710077,121.5" stroke="#4dd2ff" stroke-linecap="round" stroke-linejoin="round" stroke-width="0.5"><title>2023-09-26 1.0km</title><desc>9920397094</desc></polyline><polyline fill="none" points="122.31086131744087,81.0 120.54556694347411,86.88350066856947 118.78027256950736,90.03048176213633 117.14107065042481,92.08285786909983 116.25842346390709,93.72475712478627 115.8801460978575,95.36665493168402 116.00623855227605,97.41902515315451 116.63670082949102,99.0609197007725 118.14981029275805,101.38693449657876 118.78027256950736,103.71294638514519 120.041197121609,106.7230751013849 122.43695377232507,109.73319894901942 126.47191234119236,117.94260287750512 129.11985390260816,121.5" stroke="#4dd2ff" stroke-linecap="round" stroke-linejoin="round" stroke-width="0.5"><title>2023-09-25 1.0km</title><desc>9914573673</desc></polyline><polyline fill="none" points="170.48586001014337,81.0 169.49057334056124,82.51202006719541 169.29151600645855,83.26802951702848 169.49057334056124,84.24004109529778 169.5901020076126,85.21205202990677 167.59952866705135,88.88408753392287 167.10188533179462,91.3681063457625 166.40518466290087,93.20411755016539 162.22498064814135,100.54813941800967 162.12545198109,101.4121395762777 162.52356664882973,103.1401383690536 163.61838198639452,104.86813512875233 164.2155539887026,106.3801306260284 165.11131199123338,107.89212456671521 165.6089553264901,109.40411695104558 166.9028279981576,111.45610412652604 167.89811466773972,113.50808843539562 168.99293000577018,114.6960780408699 169.29151600645855,115.77606775751337 169.9882166753523,116.64005895901937 171.48114668065682,119.23202951520216 172.57596201775596,120.42001449142117 172.87454801891,121.5" stroke="#4dd2ff" stroke-linecap="round" stroke-linejoin="round" stroke-width="0.5"><title>2023-09-24 1.0km</title><desc>9907510217</desc></polyline><polyline fill="none" points="34.00984321301803,129.75 33.16433101380244,131.06069401919376 32.56039372878149,132.37138707446866 32.198031357489526,134.07528660574462 32.077243900392205,136.30346045806073 30.023857130669057,139.0559066660935 28.815982560627162,142.2015542704612 27.728895446751267,143.77437599096447 27.004170704632998,145.8714694599621 26.883383247070014,148.09962856734637 29.41991984564811,154.52195394120645 30.38621950149536,156.48796728730667 33.526693385094404,161.46852472657338 34.85535541223362,164.7451996637974 36.546379811130464,166.8422684626421 37.51267946790904,168.54613504558802 38.11661675339565,170.25" stroke="#4dd2ff" stroke-linecap="round" stroke-linejoin="round" stroke-width="0.5"><title>2023-09-23 1.0km</title><desc>9901004991</desc></polyline><polyline fill="none" points="79.05513936746866,129.75 78.24877080647275,131.2500172056025 77.4424022459425,133.87504413025454 75.59927410725504,137.75007646798622 73.75614596856758,140.37509335565846 72.14340884704143,144.75011249468662 72.02821333799511,147.12511816923507 72.25860435608774,148.50011993863154 74.56251452909783,154.00011589366477 74.90810105483979,155.62511129351333 75.36888308962807,156.50010817311704 76.98162021115422,158.5000993499998 78.24877080647275,161.00008501205593 79.2855303841643,163.62506600143388 81.01346301473677,166.12504412792623 82.97178666200489,170.25" stroke="#4dd2ff" stroke-linecap="round" stroke-linejoin="round" stroke-width="0.5"><title>2023-09-22 1.0km</title><desc>9895405405</desc></polyline><polyline fill="none" points="124.64691577572376,129.75 124.31662104092538,130.94470471562818 123.6560315717943,131.66152712341864 122.22475438797846,134.2898732459871 121.67426316346973,136.20139502815437 120.02278948994353,140.3828410867136 118.26121757226065,143.96692914352752 117.16023512277752,146.59525536070578 116.82994038797915,147.90941687475424 116.82994038797915,148.74570092128124 117.16023512277752,149.94039166963194 117.8208245919086,151.13508153974544 119.2521017761901,154.83861455437727 120.68337895954028,157.46692318562418 121.45406667375937,159.37841770180967 122.88534385710955,161.76778268488124 123.76612981595099,162.84299578121863 124.42671928554773,164.75448397314176 126.18829120369628,167.86064748920035 128.1700596115552,170.25" stroke="#4dd2ff" stroke-linecap="round" stroke-linejoin="round" stroke-width="0.5"><title>2023-09-21 1.0km</title><desc>9889267953</desc></polyline><polyline fill="none" points="171.623403577134,129.75 170.17808685917407,134.08605337806512 169.3279005549848,137.49953166535124 167.9676024671644,140.35946578299627 166.35224848799407,145.15675998595543 163.54663368267938,150.41531140520237 162.78146600862965,153.27521608246025 162.86648463876918,153.92100010742433 163.376596421469,155.3048218988115 164.4818386179395,157.7034427219769 165.1619876618497,159.73304137552623 166.86236027115956,162.1316537334351 167.88258383702487,164.06899113697 168.47771424986422,165.45280173653737 169.15786329330876,166.65210302185733 170.26310548977926,167.48238785553258 171.623403577134,169.51197069173213 171.70842220820487,169.8809854001738 172.2185339909047,170.25" stroke="#4dd2ff" stroke-linecap="round" stroke-linejoin="round" stroke-width="0.5"><title>2023-09-20 1.0km</title><desc>9882714971</desc></polyline><polyline fill="none" points="35.858131810091436,178.5 34.9946122020483,180.6864049016731 33.363519608508795,185.47566098358948 33.26757298503071,187.037371421 32.69189324602485,187.87028294999618 32.02026688447222,189.43199074605945 31.636480391491205,190.88958313525654 30.868907405994833,192.8677418344887 28.662135073449463,196.40759787289426 28.0864553344436,198.48986199696083 27.894562088418752,200.36389709066134 28.0864553344436,202.23792970378418 28.662135073449463,204.32018525421154 29.33376143500209,205.77776231779717 31.444587145000696,209.4216984123923 32.5,210.87927022448275 33.45946623105556,213.4820733006345 34.41893246304244,215.1478647585027 35.378398694097996,216.50131887523457 36.4338115490973,217.54243654641323 37.10543791158125,219.0" stroke="#4dd2ff" stroke-linecap="round" stroke-linejoin="round" stroke-width="0.5"><title>2023-09-19 1.0km</title><desc>9876194288</desc></polyline><polyline fill="none" points="77.20188989909366,178.5 76.48642565775663,179.6645497562131 75.29398525552824,181.9936469568638 74.9362531346269,183.54637671099044 72.78986040968448,187.29880129441153 71.12044384609908,190.79243078292347 70.76271172519773,192.08636587054934 70.88195576611906,193.50969336752314 71.5974200074561,195.32119942689314 72.67061636969447,197.26209670654498 73.62456869194284,199.97934930189513 74.9362531346269,202.82599037827458 76.36718161730096,205.41384190658573 77.67886606045067,207.0959433595417 79.2290385835804,209.68378860899247 80.18299090536311,212.6598059416283 81.85240746941417,215.24764301010873 82.68711575120687,217.57669311820064 84.23728827480227,219.0" stroke="#4dd2ff" stroke-linecap="round" stroke-linejoin="round" stroke-width="0.5"><title>2023-09-18 1.0km</title><desc>9870505463</desc></polyline><polyline fill="none" points="122.90695240255445,178.5 122.3255918272771,179.63552704337053 121.51168702216819,183.42061176057905 120.46523798676208,185.1869817712577 120.00014952663332,186.57484264671803 117.442162996158,190.73841853858903 116.5119860759005,193.00945567619056 115.93062550062314,195.0281528304331 116.39571396075189,196.41600574646145 118.95370049122721,201.96740618604235 120.23269375693053,203.98609280236997 121.16287067672238,206.13094473001547 122.67440817225724,208.14962644851767 123.48831297783181,209.5374687522417 124.53476201277226,212.8178188269958 129.06937449937686,219.0" stroke="#4dd2ff" stroke-linecap="round" stroke-linejoin="round" stroke-width="0.5"><title>2023-09-16 1.0km</title><desc>9856514700</desc></polyline><polyline fill="none" points="166.94014912797138,178.5 165.69603607943282,182.28003779845312 164.07868911605328,184.84505901532248 160.71958388434723,191.32509665377438 160.59517257940024,192.81010205857456 160.71958388434723,194.56510689703282 161.4660517135635,196.32011005817913 162.71016476256773,198.21011158637702 163.8298665061593,200.77511054871138 165.82044738391414,204.15010372409597 168.3086734819226,208.87508374813478 168.5574960913509,210.63007323176134 169.42837522551417,211.30506874027196 170.42366566462442,212.65505901293363 172.0410126275383,215.35503658093512 173.78277089586481,216.84002255101223 174.15600481070578,217.78501299757045 174.40482742059976,219.0" stroke="#4dd2ff" stroke-linecap="round" stroke-linejoin="round" stroke-width="0.5"><title>2023-09-15 1.0km</title><desc>9850671982</desc></polyline><polyline fill="none" points="33.52960951207206,227.25 31.470390487927943,232.69660198269412 29.1537690856494,236.04834928561468 28.124159574043006,237.86387660529 26.57974530570209,241.77423724578694 26.193641738500446,243.1707926663803 26.193641738500446,244.28803626296576 26.57974530570209,245.68458983523306 28.124159574043006,249.87424439110328 29.539872652851045,252.66734229424037 33.01480475626886,258.67248887824826 34.4305178350769,261.3259196932195 34.68792021274567,262.8621147866361 35.717529725283384,263.8396928353468 37.39064518222585,266.493116431986 38.806358261499554,267.75" stroke="#4dd2ff" stroke-linecap="round" stroke-linejoin="round" stroke-width="0.5"><title>2023-09-14 1.0km</title><desc>9844236351</desc></polyline><polyline fill="none" points="71.06330519216135,227.25 71.8042197022587,227.85298646788578 72.082062643487,228.45597266976256 72.26729127159342,229.76244186074473 72.82297715405002,230.86791481659748 73.19343440933153,233.98333379009273 73.19343440933153,235.4907920343103 73.00820578169078,236.29476908466313 73.19343440933153,237.2997397328727 73.65650597820058,238.5057035352802 73.47127735055983,239.51067255774979 73.56389166414738,240.0131567917997 74.49003480235115,241.72160180623177 75.32356362650171,244.23401706595905 76.06447813659906,245.64096759422682 76.99062127433717,246.94742035935633 78.00937872566283,247.85188692668453 78.28722166735679,248.45486430590972 78.56506460858509,249.76131438161246 79.3059791191481,251.06776320864446 80.139507942833,253.47966545494273 81.25087970821187,255.59007642942015 81.80656559113413,257.3989975285949 82.08440853236243,258.9064299489837 82.6400944152847,260.1123746887315 83.65885186661035,263.42871723661665 85.04806657368317,266.0415875170147 85.14068088773638,266.44356711686123 85.04806657368317,266.7450517391553 83.93669480783865,267.75 84.49238069076091,267.34802078432404 84.77022363198921,266.7450517391553 84.95545225962996,266.24257733183913 84.86283794604242,265.5391128510237 84.30715206358582,264.83564800804015 82.6400944152847,261.21782309853006 81.80656559113413,258.5044481327059 80.04689362924546,254.58511922881007 79.2133648050949,250.7662751286989 78.75029323622584,249.6608182664495 76.99062127433717,247.3494055743795 75.2309493124485,244.03302401513793 74.39742048829794,241.3196149362484 74.1195775475353,239.51067255774979 73.37866303650662,237.6012307832716 71.89683401631191,234.3853228178341 71.5263767610304,232.87786335428245 70.22977636801079,230.46592475427315 69.95193342678249,229.15945623558946 69.85931911272928,227.55149326729588" stroke="#4dd2ff" stroke-linecap="round" stroke-linejoin="round" stroke-width="0.5"><title>2023-09-13 1.0km</title><desc>9837636972</desc></polyline></svg>