<?xml version="1.0" encoding="utf-8" ?>
<svg baseProfile="full" height="300mm" version="1.1" viewBox="0,0,200,300" width="200mm" xmlns="http://www.w3.org/2000/svg" xmlns:ev="http://www.w3.org/2001/xml-events" xmlns:xlink="http://www.w3.org/1999/xlink"><defs /><rect fill="#222222" height="300" width="200" x="0" y="0" /><text fill="#FFFFFF" style="font-size:12px; font-family:Arial; font-weight:bold;" x="10" y="20">Over 1km Runs</text><text fill="#FFFFFF" style="font-size:4px; font-family:Arial" x="10" y="280">ATHLETE</text><text fill="#FFFFFF" style="font-size:9px; font-family:Arial" x="10" y="290">Jiakai</text><text fill="#FFFFFF" style="font-size:4px; font-family:Arial" x="120" y="280">STATISTICS</text><text fill="#FFFFFF" style="font-size:3px; font-family:Arial" x="120" y="285">Number: 22</text><text fill="#FFFFFF" style="font-size:3px; font-family:Arial" x="120" y="290">Weekly: 5.5</text><text fill="#FFFFFF" style="font-size:3px; font-family:Arial" x="141" y="285">Total: 22.3 km</text><text fill="#FFFFFF" style="font-size:3px; font-family:Arial" x="141" y="290">Avg: 1.0 km</text><text fill="#FFFFFF" style="font-size:3px; font-family:Arial" x="167" y="285">Min: 1.0 km</text><text fill="#FFFFFF" style="font-size:3px; font-family:Arial" x="167" y="290">Max: 1.0 km</text><polyline fill="none" points="25.378948201425374,39.20002964325249 26.563833278603852,43.57146898075007 30.11848850827664,53.08575924136676 31.30337358545512,57.20003890572116 35.09500582981855,66.71429209434427 36.279890906997025,68.0 36.51686792168766,66.97143371356651 36.51686792168766,65.94286712491885 32.01430463138968,57.971465804148465 29.881511493586004,53.342901861760765 26.08987924735993,42.02860866161063 24.904994170181453,36.11430446780287 23.483132078312337,32.0" stroke="#4dd2ff" stroke-linecap="round" stroke-linejoin="round" stroke-width="0.5"><title>2023-10-07 1.0km</title><desc>9989974159</desc></polyline><polyline fill="none" points="73.7254631165415,42.72344327974133 75.6078333882615,48.85111028701067 77.01961109321564,51.91493973671459 79.84316650219262,63.91491238796152 80.54905535373837,66.2127747607883 81.96083305869251,68.0 83.13731447793543,68.0 83.6079070456326,66.97872854722664 83.37261076271534,66.2127747607883 80.54905535373837,62.127685045823455 77.7254999447614,56.000041464110836 76.78431480936706,51.91493973671459 71.84309284482151,39.914925621822476 71.13720399234444,35.57448477204889 69.72542628832161,32.0" stroke="#4dd2ff" stroke-linecap="round" stroke-linejoin="round" stroke-width="0.5"><title>2023-10-06 1.0km</title><desc>9984428862</desc></polyline><polyline fill="none" points="115.58301206398755,32.0 119.66212852206081,42.918066900689155 122.38153949379921,52.06561360019259 127.00453814584762,63.57378790085204 128.90812582615763,67.40983866993338 129.72394911758602,68.0 130.81171350646764,68.0 131.08365460298955,67.40983866993338 130.26783131062984,65.93443496129476 127.00453814584762,61.21313945297152 125.10095046553761,57.37708276207559 121.83765729889274,48.81971231917851 120.4779518134892,44.393479068763554 116.6707764538005,37.31149571505375 116.6707764538005,34.65574873611331" stroke="#4dd2ff" stroke-linecap="round" stroke-linejoin="round" stroke-width="0.5"><title>2023-10-04 1.0km</title><desc>9971682885</desc></polyline><polyline fill="none" points="164.55125900823623,36.2043982623145 165.76209033932537,40.408791579538956 166.9729216704145,43.29930911608972 167.94158673658967,47.766467983601615 172.54274579603225,56.963542190147564 172.78491206280887,60.1168193272315 174.23790966160595,66.42336525651626 174.72224219329655,67.21168271522038 176.17523979209363,68.0 176.17523979209363,65.37227504118346 173.02707833051682,59.59127333108336 170.8475819332525,54.598582511767745 169.63675060030073,52.23362126830034 168.42591926828027,48.817563376622275 166.004256606102,43.82485750829801 165.03559153992683,39.883242685347795 164.55125900823623,35.941623516147956 163.8247602088377,32.0" stroke="#4dd2ff" stroke-linecap="round" stroke-linejoin="round" stroke-width="0.5"><title>2023-10-03 1.0km</title><desc>9965060084</desc></polyline><polyline fill="none" points="23.419477115385234,73.4876096486114 26.709738557226956,84.1983829792589 27.258115464821458,88.95871758251451 29.17743464000523,91.3388827838935 30.548376907594502,94.90912796137854 33.01607298851013,104.13224675972015 34.935392163693905,107.10744188772514 36.306334431283176,108.0 36.58052288554609,107.70248065097257 35.75795752462,105.32232507318258 32.741884536109865,99.66944996570237 27.806492371484637,87.76863445620984 24.790419382974505,78.84299985715188 24.242042476311326,72.0" stroke="#4dd2ff" stroke-linecap="round" stroke-linejoin="round" stroke-width="0.5"><title>2023-10-02 1.0km</title><desc>9958643020</desc></polyline><polyline fill="none" points="70.96025741100311,78.33602398936637 71.49108617845923,80.9280308499001 77.33020262699574,94.75203847116791 80.24976085033268,103.68001746712252 81.84224715456367,106.84800512320362 83.43473345786333,108.0 83.70014784298837,107.71200131229125 83.43473345786333,106.56000635121018 78.12644577771425,98.49603214068338 73.08357248269022,86.11203942424618 70.6948430268094,78.62402483657934 69.63318549096584,72.0" stroke="#4dd2ff" stroke-linecap="round" stroke-linejoin="round" stroke-width="0.5"><title>2023-10-01 1.0km</title><desc>9952075403</desc></polyline><polyline fill="none" points="118.16448645945638,77.2174139355775 120.32818980235606,81.65220974874683 121.28983573056757,86.08700001938269 122.01107017882168,90.26091521070339 125.61724241636693,100.43481292040087 128.74259168934077,106.95652687898837 130.18506058305502,108.0 130.66588354948908,107.21739518782124 125.85765390004963,99.91307528619654 123.69395055714995,94.95656393188983 122.97271610889584,92.34787096478976 119.60695535410196,85.04352045431733 117.68366349395365,76.95654342044145 116.0007831165567,72.0" stroke="#4dd2ff" stroke-linecap="round" stroke-linejoin="round" stroke-width="0.5"><title>2023-09-30 1.0km</title><desc>9945549317</desc></polyline><polyline fill="none" points="164.426301214844,72.0 166.81502926629037,76.03201645193622 167.61127194948494,79.20002646720968 169.73458577226847,84.38403732911684 170.79624268505722,92.16004075901583 171.59248536918312,94.46403881069273 174.77745610289276,102.2400222318247 175.57369878701866,107.13600387470797 176.10452724341303,107.71200131275691 176.9007699266076,108.0 177.16618415433913,107.4240026040934 172.3887280523777,98.78403150639497 169.20375731773674,91.29604114009999 168.14210040587932,86.97604018705897 164.426301214844,78.33602399053052 162.8338158465922,73.15200512413867" stroke="#4dd2ff" stroke-linecap="round" stroke-linejoin="round" stroke-width="0.5"><title>2023-09-28 1.0km</title><desc>9933629332</desc></polyline><polyline fill="none" points="22.962495065294206,116.09092668490484 24.97321076132357,123.18185558612458 28.74330268986523,128.3636796725914 31.25669731013477,137.63639944652095 34.775449777022004,143.90910850348882 35.78080762550235,147.45454806112684 36.78616547212005,148.0 37.28884439729154,147.18182206130587 36.78616547212005,146.09091786271892 34.775449777022004,143.36365596251562 28.994642151519656,131.63640694506466 25.97856860794127,123.45458334963769 22.71115560363978,112.0" stroke="#4dd2ff" stroke-linecap="round" stroke-linejoin="round" stroke-width="0.5"><title>2023-09-27 1.0km</title><desc>9927137811</desc></polyline><polyline fill="none" points="79.65730940038338,112.0 78.93955514393747,115.46158631215803 78.22180088795722,117.45199383108411 77.66354757780209,119.87509409338236 74.39377818908542,126.71167151082773 72.71901825862005,129.56744525535032 72.4000163669698,130.77898353815544 72.55951731232926,131.73090560012497 72.95826967712492,133.11551813362166 74.1545267701149,136.0578143594321 74.55327913491055,136.83665624679998 75.03178197238594,138.22126277396455 76.62679143017158,140.2116318034241 77.34454568615183,141.76930956554133 78.14205041527748,142.98083528876305 78.780054198578,144.7115841587074 79.73705987306312,146.00964414095506 80.93331696651876,148.0" stroke="#4dd2ff" stroke-linecap="round" stroke-linejoin="round" stroke-width="0.5"><title>2023-09-26 1.0km</title><desc>9920397094</desc></polyline><polyline fill="none" points="123.1652100593783,112.0 121.5960595048964,117.22977837198414 120.02690895041451,120.02709489967674 118.56984057789668,121.85142921702936 117.78526530088857,123.31089522200637 117.44901875359938,124.7703599393135 117.56110093509778,126.59468902507797 118.12151184817776,128.05415084504057 119.46649803780019,130.12171955255326 120.02690895041451,132.1892856756458 121.14773077471182,134.86495564563666 123.27729224180803,137.54062128800433 126.8639220809564,144.8378692244878 129.21764791291207,148.0" stroke="#4dd2ff" stroke-linecap="round" stroke-linejoin="round" stroke-width="0.5"><title>2023-09-25 1.0km</title><desc>9914573673</desc></polyline><polyline fill="none" points="172.65409778710455,112.0 171.76939852489159,113.34401783754583 171.59245867235586,114.01602623739745 171.76939852489159,114.88003652915359 171.85786845115945,115.74404624884482 170.08846992626786,119.0080778079573 169.64612029492855,121.21609452960547 169.02683081198484,122.8481044890359 165.31109390966594,129.37612392706797 165.22262398339808,130.14412406773772 165.57650368800387,131.68012299470138 166.54967287695035,133.21612011443358 167.08049243455753,134.56011611199938 167.87672177050263,135.90411072596908 168.31907140184194,137.2481039565755 169.4691804428585,139.0720925569767 170.3538797046058,140.89607860927936 171.32704889401793,141.95206936972681 171.59245867235586,142.91206022899132 172.2117481562309,143.68005240801722 173.53879704978317,145.98402623576112 174.511966238264,147.0400128812762 174.77737601706758,148.0" stroke="#4dd2ff" stroke-linecap="round" stroke-linejoin="round" stroke-width="0.5"><title>2023-09-24 1.0km</title><desc>9907510217</desc></polyline><polyline fill="none" points="31.342082855757326,152.0 30.59051645640284,153.16506135032978 30.053683314472437,154.3301218439592 29.7315834290348,155.8446992051322 29.624216800089926,157.8252981848782 27.798984115943313,160.27191703638528 26.725317831151187,163.0680482403841 25.759018174838275,164.46611199190374 25.114818403963,166.33019507548306 25.007451775018126,168.31078094861005 27.26215097354725,174.01951461436693 28.12108400138095,175.7670820330968 30.912616342306137,180.19424420129508 32.09364925511181,183.1068441455718 33.59678205428645,184.97090530011337 34.45571508212015,186.48545337375253 34.992548224981874,188.0" stroke="#4dd2ff" stroke-linecap="round" stroke-linejoin="round" stroke-width="0.5"><title>2023-09-23 1.0km</title><desc>9901004991</desc></polyline><polyline fill="none" points="78.04901277087629,152.0 77.33224071701989,153.3333486272022 76.61546866316348,155.66670589346904 74.97713253973052,159.11117908265442 73.33879641629755,161.44452742720023 71.90525230858475,165.33343332854565 71.80285630049184,167.44454948371276 72.00764831667766,168.66677327873185 74.05556847015396,173.5556585721206 74.36275649350137,175.0000989275286 74.77234052401036,175.77787393156905 76.20588463172317,177.55564386665355 77.33224071701989,179.77785334398504 78.25380478613079,182.11116977897473 79.7897449019365,184.33337255811784 81.53047703299671,188.0" stroke="#4dd2ff" stroke-linecap="round" stroke-linejoin="round" stroke-width="0.5"><title>2023-09-22 1.0km</title><desc>9895405405</desc></polyline><polyline fill="none" points="125.24170291190967,152.0 124.9481075918302,153.06195974734146 124.36091695306823,153.69913522084244 123.08867056714371,156.03544288536068 122.59934503445402,157.73457335843705 121.13136843545362,161.45141429943033 119.56552673084661,164.6372703498928 118.58687566453591,166.9735603206791 118.2932803449221,168.14170388877392 118.2932803449221,168.88506748562213 118.58687566453591,169.94701481750235 119.1740663042292,171.00896136870142 120.44631269015372,174.30099071515724 121.71855907514691,176.63726505392697 122.40361482091248,178.33637129049748 123.67586120637134,180.4602512755664 124.45878205867484,181.4159962501144 125.04597269836813,183.11509686510544 126.6118144034408,185.87613110162783 128.37338632158935,188.0" stroke="#4dd2ff" stroke-linecap="round" stroke-linejoin="round" stroke-width="0.5"><title>2023-09-21 1.0km</title><desc>9889267953</desc></polyline><polyline fill="none" points="173.66524762427434,152.0 172.3805216527544,155.85426966939121 171.62480049347505,158.8884725914104 170.41564663732424,161.4306362514617 168.9797764341347,165.6948977652355 166.4858966069296,170.36916569346795 165.80574756348506,172.91130318440264 165.8813196788542,173.48533342877636 166.33475237479433,174.7153972433298 167.31718988297507,176.8475046416861 167.9217668105848,178.65159233374288 169.43320913007483,180.78369220742024 170.3400745219551,182.5057698994642 170.86907933326438,183.73582376586273 171.47365626087412,184.8018693526974 172.45609376905486,185.5399003159837 173.66524762427434,187.3439739482128 173.7408197405748,187.67198702233145 174.19425243651494,188.0" stroke="#4dd2ff" stroke-linecap="round" stroke-linejoin="round" stroke-width="0.5"><title>2023-09-20 1.0km</title><desc>9882714971</desc></polyline><polyline fill="none" points="32.98500605393201,192.0 32.2174330689013,193.94347102369647 30.767572985496372,198.20058754098136 30.682287098374218,199.58877459634095 30.17057177470997,200.32914039993193 29.57357056438923,201.71732510754373 29.23242701496929,203.01296278683003 28.550139917060733,204.7713260750752 26.588564509991556,207.9178647758672 26.07684918632731,209.76876621937845 25.906277412083,211.43457519158255 26.07684918632731,213.10038195888046 26.588564509991556,214.95127578137908 27.185565720312297,216.24689983797725 29.06185524025932,219.4859541442711 30.00000000046566,220.7815735328477 30.852858872618526,223.0951762672048 31.705717745237052,224.57587978523225 32.55857661738992,225.778950111242 33.4967213771306,226.70438804116566 34.09372258838266,228.0" stroke="#4dd2ff" stroke-linecap="round" stroke-linejoin="round" stroke-width="0.5"><title>2023-09-19 1.0km</title><desc>9876194288</desc></polyline><polyline fill="none" points="76.40167991025373,192.0 75.76571169542149,193.03515533881728 74.70576467132196,195.10546396160498 74.38778056390584,196.48566818749532 72.47987591987476,199.8211567060789 70.99595008557662,202.92660514032468 70.6779659781605,204.07676966267172 70.78396068094298,205.34194965998176 71.41992889577523,206.95217726833653 72.37388121755794,208.67741929460317 73.22183883748949,211.09275493503083 74.38778056390584,213.6231025584275 75.65971699310467,215.92341502802446 76.82565872045234,217.4186163195409 78.20358985196799,219.7189232079545 79.05154747143388,222.36427194811404 80.53547330619767,224.66457156441174 81.27743622334674,226.73483832727652 82.65536735532805,228.0" stroke="#4dd2ff" stroke-linecap="round" stroke-linejoin="round" stroke-width="0.5"><title>2023-09-18 1.0km</title><desc>9870505463</desc></polyline><polyline fill="none" points="123.69506880221888,192.0 123.17830384662375,193.0093573719496 122.45483290869743,196.37387712055352 121.52465598843992,197.94398379675113 121.11124402377754,199.17763790825848 118.83747821860015,202.87859425658826 118.01065428974107,204.89729393448215 117.49388933368027,206.69169140479062 117.90730129834265,207.9253384413896 120.18106710305437,212.85991660982836 121.31795000610873,214.65430471324362 122.14477393496782,216.56083976000082 123.4883628198877,218.35522350983229 124.21183375827968,219.58886111318134 125.14201067807153,222.50472784624435 129.17277733283117,228.0" stroke="#4dd2ff" stroke-linecap="round" stroke-linejoin="round" stroke-width="0.5"><title>2023-09-16 1.0km</title><desc>9856514700</desc></polyline><polyline fill="none" points="169.5023547806777,192.0 168.39647651510313,195.36003359872848 166.95883477013558,197.64005245815497 163.97296345280483,203.4000859145308 163.8623756263405,204.72009071870707 163.97296345280483,206.2800950196106 164.6364904125221,207.84009782946669 165.74236867809668,209.5200991879683 166.73765911674127,211.80009826552123 168.50706434156746,214.80009219923522 170.71882087318227,219.00007444282528 170.93999652611092,220.56006509484723 171.71411131182685,221.1600611024769 172.59881392447278,222.36005245591514 174.03645566944033,224.7600325163221 175.5846852408722,226.08002004527953 175.91644872073084,226.92001155333128 176.13762437412515,228.0" stroke="#4dd2ff" stroke-linecap="round" stroke-linejoin="round" stroke-width="0.5"><title>2023-09-15 1.0km</title><desc>9850671982</desc></polyline><polyline fill="none" points="30.91520845517516,232.0 29.08479154482484,236.84142398450058 27.025572520680726,239.8207549204817 26.110364065505564,241.43455698236357 24.737551382742822,244.91043310728855 24.394348212052137,246.15181570337154 24.394348212052137,247.1449211225845 24.737551382742822,248.38630207569804 26.110364065505564,252.11043945874553 27.36877569137141,254.59319315035827 30.457604228053242,259.9311012249673 31.716015853453428,262.2897063938435 31.944817967247218,263.6552131435601 32.86002642242238,264.52417140908074 34.34724016208202,266.8827701617265 35.60565178794786,268.0" stroke="#4dd2ff" stroke-linecap="round" stroke-linejoin="round" stroke-width="0.5"><title>2023-09-14 1.0km</title><desc>9844236351</desc></polyline><polyline fill="none" points="70.94516017055139,232.0 71.6037508463487,232.53598797146697 71.85072234971449,233.071975706378 72.01537001878023,234.2332816539565 72.5093130255118,235.2159242813941 72.83860836364329,237.98518559115473 72.83860836364329,239.32514847489074 72.67396069457754,240.0397947418969 72.83860836364329,240.93310198478866 73.25022753560916,242.00506980915088 73.08557986700907,242.89837560686283 73.16790370130911,243.34502825932577 73.99114204617217,244.8636460499838 74.73205655673519,247.09690405859146 75.39064723206684,248.3475267504109 76.2138855769299,249.50881809729617 77.119447756093,250.3127883792622 77.36641925945878,250.8487682719715 77.61339076329023,252.0100572281517 78.27198143908754,253.17134507431183 79.0128959491849,255.31525818211958 80.00078196264803,257.1911790483864 80.4947249693796,258.79910891433246 80.74169647321105,260.13904884352814 81.23563947994262,261.210999723291 82.14120165910572,264.1588597658556 83.3760591764003,266.4814111262094 83.458383011166,266.8387263260083 83.3760591764003,267.10671265702695 82.3881731624715,268.0 82.88211616966873,267.6426851415308 83.12908767303452,267.10671265702695 83.2937353416346,266.660068739322 83.21141150780022,266.03476697858423 82.71746850060299,265.4094648960745 81.23563947994262,262.1936205319362 80.4947249693796,259.78173167351633 78.93057211488485,256.2978837589035 78.18965760432184,252.90335566992871 77.77803843235597,251.9207273479551 76.2138855769299,249.86613828828558 74.64973272196949,246.91824356897268 73.90881821140647,244.50632438773755 73.66184670850635,242.89837560686283 73.00325603224337,241.2010940295877 71.6860746811144,238.3425091713434 71.35677934298292,237.00254520378076 70.20424566045403,234.8585997816408 69.95727415662259,233.69729443162214 69.87495032232255,232.26799401536118" stroke="#4dd2ff" stroke-linecap="round" stroke-linejoin="round" stroke-width="0.5"><title>2023-09-13 1.0km</title><desc>9837636972</desc></polyline></svg>