<?xml version="1.0" encoding="utf-8" ?>
<svg baseProfile="full" height="300mm" version="1.1" viewBox="0,0,200,300" width="200mm" xmlns="http://www.w3.org/2000/svg" xmlns:ev="http://www.w3.org/2001/xml-events" xmlns:xlink="http://www.w3.org/1999/xlink"><defs /><rect fill="#222222" height="300" width="200" x="0" y="0" /><text fill="#FFFFFF" style="font-size:12px; font-family:Arial; font-weight:bold;" x="10" y="20">Over 1km Runs</text><text fill="#FFFFFF" style="font-size:4px; font-family:Arial" x="10" y="280">ATHLETE</text><text fill="#FFFFFF" style="font-size:9px; font-family:Arial" x="10" y="290">Jiakai</text><text fill="#FFFFFF" style="font-size:4px; font-family:Arial" x="120" y="280">STATISTICS</text><text fill="#FFFFFF" style="font-size:3px; font-family:Arial" x="120" y="285">Number: 31</text><text fill="#FFFFFF" style="font-size:3px; font-family:Arial" x="120" y="290">Weekly: 5.2</text><text fill="#FFFFFF" style="font-size:3px; font-family:Arial" x="141" y="285">Total: 31.5 km</text><text fill="#FFFFFF" style="font-size:3px; font-family:Arial" x="141" y="290">Avg: 1.0 km</text><text fill="#FFFFFF" style="font-size:3px; font-family:Arial" x="167" y="285">Min: 1.0 km</text><text fill="#FFFFFF" style="font-size:3px; font-family:Arial" x="167" y="290">Max: 1.0 km</text><polyline fill="none" points="21.757015489041805,33.58442410849966 23.48048481810838,43.63639913452789 28.004591807723045,55.55846785288304 31.02066313289106,61.870133195538074 32.31326512992382,62.57142857136205 32.9595661284402,62.57142857136205 33.390433460474014,61.63636803650297 31.88239779882133,59.766246139770374 29.943494803272188,56.72729571373202 27.358290809206665,51.11691806465387 26.28112247865647,47.84419319801964 21.757015489041805,38.727299022488296 21.326148157007992,37.32469759811647 20.89528082497418,31.714285714318976" stroke="#4dd2ff" stroke-linecap="round" stroke-linejoin="round" stroke-width="0.5"><title>2023-10-17 1.0km</title><desc>10051702317</desc></polyline><polyline fill="none" points="56.680863592773676,32.42637695069425 58.8683445379138,36.22419422632083 62.14956595655531,44.7692667611409 63.89955071359873,48.092344417003915 65.86828356329352,54.26376527477987 68.2745126048103,60.43517433665693 69.14950498286635,62.09670553030446 70.24324545450509,62.57142857136205 70.46199354995042,62.33406705968082 70.24324545450509,61.62198241939768 67.83701641485095,58.061556863132864 64.55579499714077,49.99124439875595 62.14956595655531,45.00662956410088 60.180833105929196,35.749467310495675 59.08709263242781,31.714285714086145" stroke="#4dd2ff" stroke-linecap="round" stroke-linejoin="round" stroke-width="0.5"><title>2023-10-16 1.0km</title><desc>10046279660</desc></polyline><polyline fill="none" points="93.68061060085893,31.714285714086145 94.58338051568717,33.67347788554616 95.48615042958409,38.08165605831891 97.51738273631781,44.93881051056087 100.22569247800857,49.10207596956752 103.38538717664778,60.85715035558678 104.51384957041591,62.08163488539867 106.09369691926986,62.57142857136205 106.31938939914107,62.08163488539867 106.09369691926986,60.612253395607695 103.15969469863921,56.44900232204236 101.57984734885395,51.551053220639005 99.77430752106011,48.61228030337952 95.48615042958409,38.571453273296356 93.90630307979882,31.714285714086145" stroke="#4dd2ff" stroke-linecap="round" stroke-linejoin="round" stroke-width="0.5"><title>2023-10-15 1.0km</title><desc>10039610121</desc></polyline><polyline fill="none" points="130.00725497864187,33.953926518093795 130.69525317009538,41.17053680634126 132.52991501335055,46.396348444744945 134.82324231695384,49.631370653398335 136.19923869986087,54.11062706960365 140.09789511561394,61.07834749016911 141.0152260363102,62.07373495097272 142.16188968904316,62.57142857136205 142.84988787956536,62.07373495097272 142.84988787956536,61.327194382669404 138.26323327235878,57.594489072449505 135.28190777730197,52.11984717193991 134.13524412643164,47.39174022292718 131.3832513615489,41.17053680634126 130.00725497864187,35.944717100355774 130.23658770974725,32.70968181011267 130.00725497864187,31.714285714318976" stroke="#4dd2ff" stroke-linecap="round" stroke-linejoin="round" stroke-width="0.5"><title>2023-10-14 1.0km</title><desc>10033377496</desc></polyline><polyline fill="none" points="165.86067705135792,32.20408386550844 169.9231410678476,37.10206141369417 170.37452595867217,40.775539848720655 174.21129752974957,52.53064361726865 177.82237665448338,61.10204729763791 178.95083888061345,62.57142857136205 179.85360866319388,62.57142857136205 179.85360866319388,61.836738015990704 179.62791621685028,61.10204729763791 177.5966842090711,59.63266537594609 175.33975975681096,55.4694130779244 172.8571428572759,47.63268875540234 168.34329395089298,37.59185877232812 167.66621661465615,34.16327574872412 166.53775438759476,31.714285714086145" stroke="#4dd2ff" stroke-linecap="round" stroke-linejoin="round" stroke-width="0.5"><title>2023-10-13 1.0km</title><desc>10028006924</desc></polyline><polyline fill="none" points="20.52197234891355,65.99999999976717 22.692754248157144,68.8266208707355 23.99522338807583,71.18213635729626 24.21230157930404,74.24430390191264 23.99522338807583,77.54201952298172 26.38308347761631,82.48858659085818 29.20509994775057,90.02619791263714 32.027116416953504,95.20829541049898 32.67835098691285,96.15049405558966 33.76374193653464,96.85714285704307 33.76374193653464,95.67939476761967 31.37588184699416,92.61724770930596 29.20509994775057,88.84844731283374 26.38308347761631,81.07528249360621 24.64645795803517,78.0131214777939 23.778145198710263,75.42205987102352" stroke="#4dd2ff" stroke-linecap="round" stroke-linejoin="round" stroke-width="0.5"><title>2023-10-12 1.0km</title><desc>10021974100</desc></polyline><polyline fill="none" points="59.96371745876968,70.37528501963243 60.81259066145867,74.98084159637801 60.600372361019254,76.82306233118288 62.510337066836655,83.04054931062274 63.99586517177522,85.80387289519422 65.48139327764511,90.86995980259962 67.60357628297061,95.93603851622902 68.02801288478076,96.39659072016366 69.0891043888405,96.85714285704307 68.87688608746976,95.93603851622902 66.5424847798422,89.94885370181873 63.99586517177522,85.57359602255747 60.600372361019254,77.74417229183018 59.75149915739894,74.75056392839178 59.327062556520104,70.37528501963243 58.05375275295228,66.0" stroke="#4dd2ff" stroke-linecap="round" stroke-linejoin="round" stroke-width="0.5"><title>2023-10-10 1.0km</title><desc>10009069592</desc></polyline><polyline fill="none" points="94.77256468590349,69.85715972981416 96.23624657373875,73.94120595348068 97.69992846157402,79.38659251178615 100.83638965059072,86.19331219815649 103.34555860143155,94.81513558351435 104.80924048926681,96.85714285704307 105.22743531502783,96.1764739160426 105.43653272744268,93.6806865138933 103.97285083960742,89.36977624730207 100.83638965059072,83.92440730403177 97.28173363674432,73.94120595348068 96.23624657373875,69.40337648196146 94.56346727255732,66.0" stroke="#4dd2ff" stroke-linecap="round" stroke-linejoin="round" stroke-width="0.5"><title>2023-10-09 1.0km</title><desc>10003389142</desc></polyline><polyline fill="none" points="130.14592243544757,65.99999999976717 131.6890292065218,67.91362977423705 133.23213597666472,71.50168256671168 134.11391127388924,78.67777628172189 137.4205686384812,85.85385416913778 140.2863383544609,93.98672330845147 141.60900130029768,96.3787397746928 142.71122042182833,96.85714285704307 142.71122042182833,94.94353010645136 138.52278776001185,88.24587661447003 133.0116921523586,74.85052826954052 130.80725390836596,66.23920378368348" stroke="#4dd2ff" stroke-linecap="round" stroke-linejoin="round" stroke-width="0.5"><title>2023-10-08 1.0km</title><desc>9996447828</desc></polyline><polyline fill="none" points="168.8962413156405,72.17145397979766 169.91185709554702,75.91840198310092 172.95870443526655,84.07350792107172 173.9743202161044,87.6000333474949 177.2242907108739,95.75510750920512 178.23990649171174,96.85714285704307 178.44302964769304,95.97551461146213 178.44302964769304,95.09388610697351 174.5836896840483,88.26125640328974 172.75558127928525,84.29391588130966 169.50561078358442,74.59595028101467 168.48999500274658,69.52654668642208 167.27125606685877,65.99999999976717" stroke="#4dd2ff" stroke-linecap="round" stroke-linejoin="round" stroke-width="0.5"><title>2023-10-07 1.0km</title><desc>9989974159</desc></polyline><polyline fill="none" points="24.6218255283311,109.47723709698766 26.235285761766136,114.72952310321853 27.445380937308073,117.35566263156943 29.865571287460625,127.64135347562842 30.470618874765933,129.61094979499467 31.68071405030787,131.14285714295693 32.689126695506275,131.14285714295693 33.09249175339937,130.2674816120416 32.890809224918485,129.61094979499467 30.470618874765933,126.10944432509132 28.05042852461338,120.85717839794233 27.243698407895863,117.35566263156943 23.00836529582739,107.06993624730967 22.40331770852208,103.34955837624148 21.193222532980144,100.28571428591385" stroke="#4dd2ff" stroke-linecap="round" stroke-linejoin="round" stroke-width="0.5"><title>2023-10-06 1.0km</title><desc>9984428862</desc></polyline><polyline fill="none" points="56.92829605471343,100.28571428568102 60.4246815899387,109.64405734348111 62.75560528039932,117.4848116573412 66.7181755527854,127.34896105783992 68.3498221365735,130.63700457429513 69.04909924324602,131.14285714295693 69.98146872036159,131.14285714295693 70.21456108801067,130.63700457429513 69.51528398040682,129.3723728240002 66.7181755527854,125.32554810238071 65.08652896992862,122.03749951045029 62.289420541375875,114.70261055929586 61.12395869754255,110.90869634458795 57.86066553089768,104.83842489868402 57.86066553089768,102.56207034527324" stroke="#4dd2ff" stroke-linecap="round" stroke-linejoin="round" stroke-width="0.5"><title>2023-10-04 1.0km</title><desc>9971682885</desc></polyline><polyline fill="none" points="95.32965057808906,103.889484224841 96.36750600393862,107.4932499253191 97.4053614307195,109.97083638515323 98.23564577382058,113.79982970026322 102.17949639633298,121.68303616298363 102.38706748187542,124.38584513752721 103.63249399513006,129.791455934057 104.04763616528362,130.46715661301278 105.29306267760694,131.14285714295693 105.29306267760694,128.89052146393806 102.59463856834918,123.93537714099512 100.72649879939854,119.65592786716297 99.68864337168634,117.62881823000498 98.65078794397414,114.7007686085999 96.57507709041238,110.42130643571727 95.74479274824262,107.04277944448404 95.32965057808906,103.66424872819334 94.70693732146174,100.28571428568102" stroke="#4dd2ff" stroke-linecap="round" stroke-linejoin="round" stroke-width="0.5"><title>2023-10-03 1.0km</title><desc>9965060084</desc></polyline><polyline fill="none" points="130.78812324162573,101.56080827047117 133.608347334899,110.74147112527862 134.07838468439877,114.82175792823546 135.72351540531963,116.86189952935092 136.89860877860337,119.92210968141444 139.01377684809268,127.827640080126 140.65890756901354,130.37780733266845 141.83400094136596,131.14285714295693 142.06901961565018,130.88784055807628 141.36396359279752,128.84770720568486 138.77875817380846,124.00238568522036 134.5484220329672,113.8016866769176 131.96321661397815,106.15114273503423 131.4931792654097,100.28571428591385" stroke="#4dd2ff" stroke-linecap="round" stroke-linejoin="round" stroke-width="0.5"><title>2023-10-02 1.0km</title><desc>9958643020</desc></polyline><polyline fill="none" points="167.96593492385,105.71659199125133 168.42093101050705,107.93831215729006 173.42588796652853,119.78746154694818 175.92836644407362,127.44001497211866 177.29335470497608,130.1554329630453 178.6583429640159,131.14285714295693 178.88584100827575,130.8960011252202 178.6583429640159,129.90857687289827 174.10838209558278,122.99659897806123 169.7859192714095,112.38174807839096 167.73843688052148,105.9634498602245 166.82844470627606,100.28571428591385" stroke="#4dd2ff" stroke-linecap="round" stroke-linejoin="round" stroke-width="0.5"><title>2023-10-01 1.0km</title><desc>9952075403</desc></polyline><polyline fill="none" points="22.71241696551442,139.043497659266 24.567019830457866,142.84475121321157 25.391287769190967,146.64600001671351 26.009488725103438,150.22364160930738 29.10049350000918,158.9441253603436 31.77936430554837,164.53416589647532 33.015766214579344,165.42857142863795 33.42790018580854,164.7577673040796 29.306560485623777,158.49692167411558 27.451957620680332,154.24848337029107 26.833756665699184,152.01246082712896 23.948818875476718,145.7515889608767 22.30028299521655,138.81989436061122 20.857814099639654,134.57142857159488" stroke="#4dd2ff" stroke-linecap="round" stroke-linejoin="round" stroke-width="0.5"><title>2023-09-30 1.0km</title><desc>9945549317</desc></polyline><polyline fill="none" points="58.79397246893495,134.57142857159488 60.84145365655422,138.02744267322123 61.52394738513976,140.74287982913665 63.343930661678314,145.18631771067157 64.25392230134457,151.85146350762807 64.93641602993011,153.8263189806603 67.6663909452036,160.49144762731157 68.34888467378914,164.6880033214111 68.80388049408793,165.18171541090123 69.48637422267348,165.42857142863795 69.71387213189155,164.93485937500373 65.61890975944698,157.52916986262426 62.88893484324217,151.1108924059663 61.97894320450723,147.4080344461836 58.79397246893495,140.00230627763085 57.42898501083255,135.55886153504252" stroke="#4dd2ff" stroke-linecap="round" stroke-linejoin="round" stroke-width="0.5"><title>2023-09-28 1.0km</title><desc>9933629332</desc></polyline><polyline fill="none" points="93.96785291284323,138.07793715852313 95.69132350943983,144.15587621671148 98.9228308768943,148.59743971959688 101.07716912217438,156.54548523994163 104.09324266575277,161.92209300305694 104.95497796405107,164.96104119508527 105.81671326141804,165.42857142863795 106.24758091196418,164.72727605258115 105.81671326141804,163.79221531096846 104.09324266575277,161.4545622537844 99.1382647017017,151.40263452427462 96.5530588068068,144.3896428712178 93.75241908896714,134.57142857159488" stroke="#4dd2ff" stroke-linecap="round" stroke-linejoin="round" stroke-width="0.5"><title>2023-09-27 1.0km</title><desc>9927137811</desc></polyline><polyline fill="none" points="138.99197948584333,134.57142857142026 138.3767615519464,137.53850255330326 137.7615436182823,139.24456614098744 137.28304078103974,141.3215092229657 134.48038130486384,147.18143272364978 133.04487279313616,149.6292387903668 132.77144260006025,150.6677001756034 132.90815769624896,151.4836333715357 133.2499454373028,152.67044411454117 134.27530866023153,155.19241230812622 134.61709640128538,155.85999106866075 135.02724169055,157.04679666348966 136.39439265429974,158.75282726017758 137.00961058796383,160.08797962759854 137.69318607030436,161.12643024756107 138.2400464557577,162.60992927890038 139.06033703428693,163.7225521208602 140.08570025698282,165.42857142857974" stroke="#4dd2ff" stroke-linecap="round" stroke-linejoin="round" stroke-width="0.5"><title>2023-09-26 1.0km</title><desc>9920397094</desc></polyline><polyline fill="none" points="172.71303719375283,134.57142857136205 171.3680510041304,139.05409574741498 170.02306481450796,141.45179562829435 168.77414906630293,143.01551075733732 168.1016559721902,144.2664816188626 167.8134446456097,145.5174513765378 167.9095150870271,147.0811620214954 168.38986729830503,148.33212929579895 169.5427126036957,150.10433104494587 170.02306481450796,151.87653057905845 170.98376923520118,154.16996198194101 172.80910763563588,156.46338967536576 175.8833617833443,162.71817362087313 177.90084106801078,165.42857142852154" stroke="#4dd2ff" stroke-linecap="round" stroke-linejoin="round" stroke-width="0.5"><title>2023-09-25 1.0km</title><desc>9914573673</desc></polyline><polyline fill="none" points="29.41779810283333,168.85714285710128 28.659484449774027,170.00915814639302 28.507821719162166,170.58516534627415 28.659484449774027,171.32574559631757 28.735315815079957,172.06632535607787 27.218688508030027,174.86406669241842 26.839531681500375,176.75665245385608 26.308712124358863,178.15551813342609 23.12379477964714,183.75096336600836 23.04796341434121,184.4092492008931 23.351288875564933,185.72581970965257 24.18543389439583,187.04238866950618 24.640422086697072,188.19438523880672 25.322904374450445,189.34638062218437 25.70206120144576,190.49837481981376 26.687868950888515,192.06179362011608 27.44618260394782,193.62521023646696 28.280327623244375,194.5303451739601 28.507821719162166,195.35319448186783 29.03864127630368,196.0114734925446 30.176111756823957,197.98630820197286 31.010256775654852,198.8914396124892 31.237750871572644,199.71428571426077" stroke="#4dd2ff" stroke-linecap="round" stroke-linejoin="round" stroke-width="0.5"><title>2023-09-24 1.0km</title><desc>9907510217</desc></polyline><polyline fill="none" points="64.7217853050679,168.8571428571595 64.07758553419262,169.85576687182765 63.61744284071028,170.85439015203156 63.34135722462088,172.15259931865148 63.24932868592441,173.85025558713824 61.68484352808446,175.9473574598087 60.76455814111978,178.34404134890065 59.93630129285157,179.54238170746248 59.3841300602071,181.14016720757354 59.29210152151063,182.8378122417489 61.22470083460212,187.73101252666675 61.96092914417386,189.22892745700665 64.35367115028203,193.0236378868576 65.36598507594317,195.5201521248091 66.65438461769372,197.11791882873513 67.39061292773113,198.4161028919043 67.85075562121347,199.71428571431898" stroke="#4dd2ff" stroke-linecap="round" stroke-linejoin="round" stroke-width="0.5"><title>2023-09-23 1.0km</title><desc>9901004991</desc></polyline><polyline fill="none" points="101.18486808938906,168.8571428572759 100.5704920431599,170.00001310906373 99.95611599693075,172.00003362307325 98.55182789126411,174.95243921375368 97.14753978559747,176.95245208055712 95.91878769313917,180.28579999599606 95.83101968606934,182.09532812901307 96.00655569974333,183.1429485246772 97.76191583182663,187.333421633346 98.02521985163912,188.57151336653624 98.37629187805578,189.2381776557304 99.60504397004843,190.7619804572314 100.5704920431599,192.66673143778462 101.36040410259739,194.6667169535067 102.67692420165986,196.57146219268907 104.16898031393066,199.71428571431898" stroke="#4dd2ff" stroke-linecap="round" stroke-linejoin="round" stroke-width="0.5"><title>2023-09-22 1.0km</title><desc>9895405405</desc></polyline><polyline fill="none" points="138.06431678123772,168.8571428571595 137.81266365014017,169.76739406911656 137.30935738794506,170.31354447512422 136.21886048605666,172.31609390175436 135.79943860089406,173.77249145018868 134.54117294494063,176.95835511386395 133.19902291195467,179.6890888713533 132.36017914116383,181.6916231320938 132.10852601006627,182.69288904755376 132.10852601006627,183.33005784486886 132.36017914116383,184.24029841506854 132.86348540335894,185.15053831611294 133.953982305713,187.97227775584906 135.04447920713574,189.9747986176517 135.63166984636337,191.43117539188825 136.72216674825177,193.25164395046886 137.3932417645119,194.07085392868612 137.89654802717268,195.5272258843761 139.23869806015864,197.89382665860467 140.74861684720963,199.71428571431898" stroke="#4dd2ff" stroke-linecap="round" stroke-linejoin="round" stroke-width="0.5"><title>2023-09-21 1.0km</title><desc>9889267953</desc></polyline><polyline fill="none" points="175.99878367828205,168.85714285710128 174.89758998830803,172.16080257372232 174.24982899450697,174.7615479354281 173.21341140381992,176.94054535840405 171.98266551503912,180.59562665590784 169.84505423461087,184.60214202292264 169.2620693400968,186.781117015169 169.32684543915093,187.2731429389096 169.7155020358041,188.3274833514006 170.5575913283974,190.15500397857977 171.07580012339167,191.7013648574939 172.37132211169228,193.528879034915 173.14863530453295,195.00494562811218 173.60206800024025,196.0592775135301 174.12027679546736,196.97303087369073 174.96236608806066,197.6056288422551 175.99878367828205,199.1519776698551 176.06355977780186,199.43313173338538 176.45221637445502,199.71428571426077" stroke="#4dd2ff" stroke-linecap="round" stroke-linejoin="round" stroke-width="0.5"><title>2023-09-20 1.0km</title><desc>9882714971</desc></polyline><polyline fill="none" points="29.701433760114014,203.1428571428405 29.04351405845955,204.80868944892427 27.80077684437856,208.45764646370662 27.727674655150622,209.64752108266111 27.289061520714313,210.28212034283206 26.777346197515726,211.4719929494313 26.484937441069633,212.58253953163512 25.900119928177446,214.08970806439174 24.218769579660147,216.7867412365158 23.780156445223838,218.37322818813846 23.633952067233622,219.80106445000274 23.780156445223838,221.22889882192248 24.218769579660147,222.8153792413068 24.730484902858734,223.92591414687922 26.338733062613755,226.70224640943343 27.142857142724097,227.81277731392765 27.873879033140838,229.79586537188152 28.60490092402324,231.06503981596325 29.335922814439982,232.096242952568 30.140046894550323,232.88947546394775 30.65176221821457,234.0" stroke="#4dd2ff" stroke-linecap="round" stroke-linejoin="round" stroke-width="0.5"><title>2023-09-19 1.0km</title><desc>9876194288</desc></polyline><polyline fill="none" points="63.34429706586525,203.1428571428405 62.79918145341799,204.03013314749114 61.89065543282777,205.8046833956614 61.61809762660414,206.9877155892318 59.98275078833103,209.8467057480011 58.7108143591322,212.50851869164035 58.43825655244291,213.49437399650924 58.52910915482789,214.57881399418693 59.074224767740816,215.95900908706244 59.89189818641171,217.43778796680272 60.61871900316328,219.5080756584648 61.61809762660414,221.67694505001418 62.70832885149866,223.6486414525425 63.707707474939525,224.93024255952332 64.88879130175337,226.90193417819683 65.61561211850494,229.16937595547643 66.88754854816943,231.14106134092435 67.52351676300168,232.91557570896111 68.70460059028119,234.0" stroke="#4dd2ff" stroke-linecap="round" stroke-linejoin="round" stroke-width="0.5"><title>2023-09-18 1.0km</title><desc>9870505463</desc></polyline><polyline fill="none" points="100.31005897326395,203.14285714295693 99.8671175823547,204.00802060449496 99.2469996358268,206.89189467474353 98.44970513274893,208.23770039726514 98.09535202011466,209.29511820711195 96.14640990132466,212.46736650564708 95.43770367652178,214.19768051523715 94.99476228607818,215.73573548987042 95.3491153982468,216.7931472355267 97.2980575170368,221.0227856655838 98.27252857619897,222.56083261140157 98.98123480100185,224.1950055086054 100.13288241671398,225.73304872273002 100.7530003641732,226.79045238276012 101.5502948667854,229.28976672538556 105.00523771392182,234.0" stroke="#4dd2ff" stroke-linecap="round" stroke-linejoin="round" stroke-width="0.5"><title>2023-09-16 1.0km</title><desc>9856514700</desc></polyline><polyline fill="none" points="136.00201838323846,203.1428571428405 135.05412272689864,206.02288594166748 133.82185837393627,207.9771878211759 131.262540102005,212.91435935522895 131.16775053646415,214.04579204448964 131.262540102005,215.3829385881545 131.83127749618143,216.72008385381196 132.7791731520556,218.16008501814213 133.6322792423889,220.11436994187534 135.1489122924395,222.68579331354704 137.04470360511914,226.28577809373382 137.23428273620084,227.62291293835733 137.89780969545245,228.13719523057807 138.65612622071058,229.1657592478441 139.8883905732073,231.22288501390722 141.2154444917105,232.35430289595388 141.49981318879873,233.07429561705794 141.6893923203461,234.0" stroke="#4dd2ff" stroke-linecap="round" stroke-linejoin="round" stroke-width="0.5"><title>2023-09-15 1.0km</title><desc>9850671982</desc></polyline><polyline fill="none" points="173.641607247293,203.14285714295693 172.0726784672588,207.29264912963845 170.30763358902186,209.84636136051267 169.52316919900477,211.22962027066387 168.34647261397913,214.2089426635066 168.0522984676063,215.27298488875385 168.0522984676063,216.12421810510568 168.34647261397913,217.18825892207678 169.52316919900477,220.3803766790079 170.6018077353947,222.5084512718022 173.24937505228445,227.08380105008837 174.32801358867437,229.10546262341086 174.5241296859458,230.2758969803108 175.30859407642856,231.02071835077368 176.58334871055558,233.04237442440353 177.6619872469455,234.0" stroke="#4dd2ff" stroke-linecap="round" stroke-linejoin="round" stroke-width="0.5"><title>2023-09-14 1.0km</title><desc>9844236351</desc></polyline><polyline fill="none" points="22.238708717515692,237.42857142863795 22.803215011022985,237.88798968982883 23.014904871117324,238.34740774834063 23.15603144466877,239.34281284629833 23.579411164624617,240.18507795553887 23.86166431149468,242.55873050674563 23.86166431149468,243.7072701213765 23.720537738176063,244.3198240644997 23.86166431149468,245.0855159869534 24.214480744907632,246.0043455506675 24.073354171589017,246.77003623446217 24.14391745836474,247.15288136521121 24.84955032519065,248.45455375715392 25.484619905473664,250.36877490743063 26.049126198980957,251.44073721469613 26.754759066039696,252.4361297976575 27.530955219408497,253.12524718226632 27.742645079502836,253.58465851878282 27.954334939597175,254.5800490527181 28.518841233337298,255.57543863519095 29.153910813387483,257.4130784418667 30.000670253532007,259.0210106129525 30.424049973720685,260.3992362122517 30.635739833815023,261.54775615158724 31.05911955423653,262.4665711914422 31.835315707605332,264.9933083707583 32.893765008309856,266.9840666796663 32.96432829508558,267.2903368509142 32.893765008309856,267.5200394203421 32.04700556769967,268.28571428573923 32.47038528788835,267.97944440710125 32.68207514821552,267.5200394203421 32.8232017213013,267.1372017766116 32.75263843499124,266.6012288388447 32.32925871480256,266.06525562517345 31.05911955423653,263.30881759885233 30.424049973720685,261.2414842916187 29.08334752684459,258.2553289362113 28.448277946561575,255.34573343140073 28.09546151314862,254.5034805839532 26.754759066039696,252.74240424711024 25.41405661869794,250.21563734480878 24.778987038414925,248.14827804663219 24.567297178786248,246.77003623446217 24.002790884813294,245.31522345391568 22.87377829803154,242.86500786116812 22.591525150928646,241.716467317543 21.603639137232676,239.87879981281003 21.391949277138337,238.88339522707975 21.321385990595445,237.65828058455372" stroke="#4dd2ff" stroke-linecap="round" stroke-linejoin="round" stroke-width="0.5"><title>2023-09-13 1.0km</title><desc>9837636972</desc></polyline></svg>