<?xml version="1.0" encoding="utf-8" ?>
<svg baseProfile="full" height="300mm" version="1.1" viewBox="0,0,200,300" width="200mm" xmlns="http://www.w3.org/2000/svg" xmlns:ev="http://www.w3.org/2001/xml-events" xmlns:xlink="http://www.w3.org/1999/xlink"><defs /><rect fill="#222222" height="300" width="200" x="0" y="0" /><text fill="#FFFFFF" style="font-size:12px; font-family:Arial; font-weight:bold;" x="10" y="20">Over 1km Runs</text><text fill="#FFFFFF" style="font-size:4px; font-family:Arial" x="10" y="280">ATHLETE</text><text fill="#FFFFFF" style="font-size:9px; font-family:Arial" x="10" y="290">Jiakai</text><text fill="#FFFFFF" style="font-size:4px; font-family:Arial" x="120" y="280">STATISTICS</text><text fill="#FFFFFF" style="font-size:3px; font-family:Arial" x="120" y="285">Number: 54</text><text fill="#FFFFFF" style="font-size:3px; font-family:Arial" x="120" y="290">Weekly: 6.0</text><text fill="#FFFFFF" style="font-size:3px; font-family:Arial" x="141" y="285">Total: 56.2 km</text><text fill="#FFFFFF" style="font-size:3px; font-family:Arial" x="141" y="290">Avg: 1.0 km</text><text fill="#FFFFFF" style="font-size:3px; font-family:Arial" x="167" y="285">Min: 1.0 km</text><text fill="#FFFFFF" style="font-size:3px; font-family:Arial" x="167" y="290">Max: 1.5 km</text><polyline fill="none" points="20.65238084550947,34.06061779032461 22.32797615043819,39.15154072945006 24.338690515607595,43.33336244686507 25.511607228778303,48.24244848359376 26.684523941017687,51.69698466756381 28.192559715360403,54.969698707340285 28.862797836773098,55.33333333325572 29.197916897945106,54.6060640278738 27.354762063361704,50.9697142932564 26.349404880777,46.969723409740254 22.663095211610198,43.51518062176183 20.65238084550947,40.606088215485215 20.317261785268784,37.51517378468998 17.46874976810068,31.333333333255723" stroke="#4dd2ff" stroke-linecap="round" stroke-linejoin="round" stroke-width="0.5"><title>2023-11-12 1.0km</title><desc>10202270880</desc></polyline><polyline fill="none" points="50.36871041264385,35.81096321484074 54.33011723589152,44.766198287019506 55.65058617666364,49.24380347901024 56.971055118367076,52.82588170748204 57.796348206698895,54.43781519192271 58.62164129409939,55.33333333325572 58.78669991251081,54.616918846499175 57.301172353327274,50.13932352978736 54.49517585337162,45.84082428365946 51.52412073593587,39.034851633012295 50.36871041264385,34.19901740550995 49.21330008842051,31.333333333255723" stroke="#4dd2ff" stroke-linecap="round" stroke-linejoin="round" stroke-width="0.5"><title>2023-11-11 1.0km</title><desc>10196068378</desc></polyline><polyline fill="none" points="82.43547775968909,34.912293462781236 85.15170773398131,43.122832152759656 87.67392128240317,49.85966682899743 88.83801984228194,54.28070597210899 89.61408554948866,55.33333333325572 90.00211840309203,54.91228243499063 89.42006912268698,52.38597574620508 86.50982272159308,45.85967315128073 83.59957632049918,39.754408871755004 79.71924778539687,33.64913157559931 79.33121493086219,31.333333333255723" stroke="#4dd2ff" stroke-linecap="round" stroke-linejoin="round" stroke-width="0.5"><title>2023-11-10 1.0km</title><desc>10191120477</desc></polyline><polyline fill="none" points="109.76166102010757,32.066161181544885 112.63191645499319,34.26464343466796 114.3203020049259,37.195950087858364 114.82681766990572,38.295189193915576 114.82681766990572,39.944046943914145 116.68404177390039,45.62343750917353 117.35939599387348,48.92114222049713 118.71010443381965,52.5852534477599 119.04778154287487,54.417307041352615 119.89197431784123,55.33333333325572 120.39848998282105,55.15012810193002 120.90500564780086,54.417307041352615 119.04778154287487,53.13486966746859 116.0086875539273,48.737936517456546 112.46307789999992,39.02801499539055 111.61888512503356,33.531816232483834 110.7746923500672,31.333333333255723" stroke="#4dd2ff" stroke-linecap="round" stroke-linejoin="round" stroke-width="0.5"><title>2023-11-09 1.0km</title><desc>10185506531</desc></polyline><polyline fill="none" points="141.31812263745815,33.26034955796786 143.09400715492666,36.764011427992955 143.73978334199637,38.515840431209654 145.8385559534654,43.07058981247246 146.64577618800104,46.22387274494395 146.48433214146644,44.296867003897205 146.80722023546696,45.523143564816564 147.45299642253667,50.25306153064594 148.90599284600466,54.63260683231056 149.5517690340057,55.33333333325572 150.35898926854134,54.982970108045265 150.68187736254185,54.45742517453618 148.90599284600466,52.88078967761248 147.6144404700026,50.77860739198513 146.80722023546696,48.501241156831384 145.67711190599948,44.64723180048168 144.0626714369282,42.36985970498063 142.2867869194597,38.515840431209654 141.80245477799326,35.71291340794414 141.96389882545918,32.20924999238923 141.64101073145866,31.333333333255723" stroke="#4dd2ff" stroke-linecap="round" stroke-linejoin="round" stroke-width="0.5"><title>2023-11-08 1.0km</title><desc>10179505859</desc></polyline><polyline fill="none" points="175.58397435583174,44.592105784337036 180.99743590969592,55.33333333337214 181.3067765692249,55.16550204181112 180.53342491853982,53.3193570174044 179.1413919478655,50.96971573645715 178.21336996741593,48.62007203756366 176.3573260055855,46.60608979931567 175.73864468652755,45.43126600631513 175.27463369537145,41.40329412650317 174.96529303584248,40.22846765618306 173.10924907401204,37.039649903192185 172.026556763798,31.33333333337214" stroke="#4dd2ff" stroke-linecap="round" stroke-linejoin="round" stroke-width="0.5"><title>2023-11-06 1.0km</title><desc>10167691585</desc></polyline><polyline fill="none" points="21.026075016707182,64.7338377025444 22.139923859387636,66.80578388087451 26.27707670070231,76.30218047462404 28.027410595677793,81.65467799804173 28.345653121359646,82.0 28.663895647972822,82.0 28.663895647972822,81.48201697785407 27.39092554245144,78.71943893143907 26.27707670070231,77.16548735206015 26.117955437861383,76.30218047462404 25.163227858953178,75.26621180330403 22.45816638506949,70.60434712609276 19.27574112266302,62.489227280253544 18.002771018072963,58.0" stroke="#4dd2ff" stroke-linecap="round" stroke-linejoin="round" stroke-width="0.5"><title>2023-11-05 1.1km</title><desc>10161301187</desc></polyline><polyline fill="none" points="49.51231998298317,58.0 52.71780570875853,65.13046020735055 54.16027428582311,71.3913343755994 56.40411429479718,75.73915390949696 57.205485726706684,79.21740378346294 58.00685715768486,82.0 58.48768001701683,81.47826345870271 58.3274057302624,80.95652680238709 56.24384000804275,77.13045447296463 56.08356572128832,76.60871685761958 54.16027428582311,73.65220153075643 53.358902853913605,70.86959549435414 51.27533713262528,67.04350685002282 50.794514273293316,63.739152586553246 49.83286855556071,60.26087995409034" stroke="#4dd2ff" stroke-linecap="round" stroke-linejoin="round" stroke-width="0.5"><title>2023-11-04 1.0km</title><desc>10155501797</desc></polyline><polyline fill="none" points="91.10567467752844,61.64558758435305 89.28595502208918,59.21519657666795 88.16612754203379,58.45569880004041 85.92647258192301,58.0 83.82679605670273,58.151899611460976 80.88724892074242,59.518995608901605 79.62744300579652,60.73419129184913 78.50761552574113,63.01268126943614 78.22765865596011,64.83547144208569 77.80772335082293,70.91142706514802 78.08768022060394,77.2911612316966 78.36763709085062,78.20255021844059 79.76742144115269,80.48102092521731 81.44716266170144,81.69620427442715 84.24673136183992,82.0 86.76634319219738,80.9367147651501 89.14597658766434,78.05065208196174 89.84586876258254,76.6835683506215 90.82571780774742,72.27851461677346 90.82571780774742,68.78484463004861 91.52560998266563,64.22787489637267 91.38563154777512,62.556983474991284 89.84586876258254,60.73419129184913 88.58606284717098,59.82279459654819 85.64651571167633,58.45569880004041 84.10675292648375,58.45569880004041 80.74727048678324,59.518995608901605 79.207507701125,60.88609070179518 78.22765865596011,62.70888275082689 77.94770178571343,63.92407655692659 78.22765865596011,68.93674344825558 77.94770178571343,71.21522437687963" stroke="#4dd2ff" stroke-linecap="round" stroke-linejoin="round" stroke-width="0.5"><title>2023-11-03 1.0km</title><desc>10152446508</desc></polyline><polyline fill="none" points="110.36618652381003,58.0 111.67826303932816,60.847468513064086 112.80290005262941,65.93222642457113 114.67729507666081,69.59324633446522 117.48888760898262,76.91527161956765 118.05120611656457,78.13560728332959 118.98840362764895,81.38983308756724 119.5507221352309,82.0 120.3004801440984,82.0 120.3004801440984,81.59322207327932 118.98840362764895,80.9830550714396 118.42608512099832,79.55933154374361 117.1140086054802,78.33899650815874 116.17681109439582,75.69493541796692 114.86473457794636,73.6610405521933 113.36521856021136,70.6101954493206 111.67826303932816,64.30510490969755 110.55362602509558,61.66103040683083" stroke="#4dd2ff" stroke-linecap="round" stroke-linejoin="round" stroke-width="0.5"><title>2023-11-02 1.1km</title><desc>10144903556</desc></polyline><polyline fill="none" points="141.91300539951771,59.73913861718029 142.23355399537832,61.65218962007202 143.51574837975204,64.60871994472109 145.7595885526389,72.60872464999557 149.6061717076227,80.60870230058208 150.72809179406613,82.0 150.08699460234493,79.91305314423516 147.68288013059646,76.2608917162288 146.40068574622273,71.56524730962701 144.7979427650571,69.30437816050835 142.87465118709952,65.13046020688489 141.27190820593387,58.0" stroke="#4dd2ff" stroke-linecap="round" stroke-linejoin="round" stroke-width="0.5"><title>2023-11-01 1.0km</title><desc>10138966680</desc></polyline><polyline fill="none" points="173.1743749640882,58.36090399394743 174.0058729890734,61.06768225389533 175.3362698284909,68.2857430211734 177.49816469103098,72.97747113718651 178.82856152951717,77.30828913021833 180.99045639298856,82.0 181.15675599779934,81.81954974750988 179.66005955450237,79.65414568618871 177.49816469103098,74.60152877983637 175.66886903718114,71.35341241932474 172.50917654577643,61.78948928578757 172.17657733522356,58.0" stroke="#4dd2ff" stroke-linecap="round" stroke-linejoin="round" stroke-width="0.5"><title>2023-10-31 1.0km</title><desc>10133123337</desc></polyline><polyline fill="none" points="19.56510774884373,87.51112355384976 20.38428722321987,91.7778026110027 20.38428722321987,93.37780531635508 22.186482068151236,96.40002976031974 27.101558917202055,106.8888970578555 27.92073839250952,108.48888976452872 28.248410182073712,108.66666666674428 24.48018459789455,101.20002552540973 22.841825648210943,96.57780755124986 21.03963080327958,92.84447119897231 18.418256483972073,84.66666666674428" stroke="#4dd2ff" stroke-linecap="round" stroke-linejoin="round" stroke-width="0.5"><title>2023-10-30 1.0km</title><desc>10127985445</desc></polyline><polyline fill="none" points="50.216684407088906,88.14036747661885 50.944245097693056,93.03511817322578 51.38078151224181,94.61406763107516 54.29102427652106,101.40353707247414 55.74614565819502,105.35089315997902 57.92882773140445,108.35087893414311 58.51087628491223,108.66666666662786 58.656388422008604,108.19298505038023 57.346779178828,106.14036350662354 55.45512138213962,102.03511453396641 52.10834220331162,95.87722636177205 50.7987329591997,91.2982724289177 49.78014799160883,89.24563473847229 49.63463585358113,86.0877267679898 49.343611577525735,84.66666666662786" stroke="#4dd2ff" stroke-linecap="round" stroke-linejoin="round" stroke-width="0.5"><title>2023-10-28 1.0km</title><desc>10115543824</desc></polyline><polyline fill="none" points="81.55378420464694,89.64446402341127 82.86447155755013,93.91113931615837 84.33899482805282,97.2889185838867 85.649682180956,102.08891258458607 87.61571321077645,106.71112002525479 88.4348928052932,108.48888976522721 89.25407240074128,108.66666666674428 89.41790832020342,108.48888976522721 89.09023648127913,107.42222807789221 88.10722096730024,104.7555718019139 84.83050258643925,98.3555847411044 82.20912788063288,91.24446814064868 80.57076868973672,87.6889019983355 79.91542501375079,84.66666666674428" stroke="#4dd2ff" stroke-linecap="round" stroke-linejoin="round" stroke-width="0.5"><title>2023-10-27 1.0km</title><desc>10110442644</desc></polyline><polyline fill="none" points="112.08070691581815,88.37256468576379 115.17070201318711,98.7843427869957 116.30912125948817,101.96080847084522 117.44754050578922,103.90197987528518 118.74859107285738,107.6078481967561 119.23648503609002,108.31372722890228 120.21227296162397,108.66666666674428 120.37490428145975,108.13725749030709 120.21227296162397,107.4313784064725 118.58595975115895,105.31373991095461 116.14648993872106,101.07845731358975 113.21912616211921,92.43139880825765 111.26755031105131,89.25492051360197 110.29176238551736,84.66666666674428" stroke="#4dd2ff" stroke-linecap="round" stroke-linejoin="round" stroke-width="0.5"><title>2023-10-26 1.0km</title><desc>10104873905</desc></polyline><polyline fill="none" points="144.7979430295527,96.14495791541412 148.4842510726303,105.36233329516836 150.24726796336472,108.49275449919514 150.8883650135249,108.66666666674428 150.72809075191617,106.92754441476427 146.40068565681577,99.4493041629903 143.99657171592116,93.36234696977772 141.91300630010664,89.0145108141005 141.1116349864751,84.66666666674428" stroke="#4dd2ff" stroke-linecap="round" stroke-linejoin="round" stroke-width="0.5"><title>2023-10-25 1.0km</title><desc>10098978222</desc></polyline><polyline fill="none" points="172.22695145662874,84.66666666674428 172.0655072676018,85.8929498991929 173.03417240455747,89.9221617905423 174.32572592049837,92.54990500560962 175.13294686656445,95.70319303846918 176.5859445715323,99.90757059096359 179.65338417049497,105.8637594259344 180.62204930745065,108.31630344199948 180.94493768643588,108.66666666674428 181.2678260654211,108.4914850606583 181.10638187546283,106.2141230108682 179.33049579244107,102.88566686934792 178.03894227650017,100.95866382028908 176.42450038157403,97.2798354900442 176.10161200352013,95.35282790777273 174.1642817305401,92.37472221488133 173.03417240455747,89.74697880633175 172.71128402557224,86.59368289145641 172.22695145662874,84.66666666674428" stroke="#4dd2ff" stroke-linecap="round" stroke-linejoin="round" stroke-width="0.5"><title>2023-10-24 1.0km</title><desc>10092835699</desc></polyline><polyline fill="none" points="20.866954841651022,115.47723574284464 23.253772736527026,123.93768045934848 24.36762108746916,126.00962145836093 25.640590630471706,131.18946595862508 27.55004494637251,134.6426892785821 28.345650911331177,135.33333333325572 27.55004494637251,134.4700282330159 26.436196595430374,131.70744978031144 23.572015122510493,128.25422214413993 22.93553035054356,127.04559127241373 22.299045578576624,123.07437117025256 20.389591262675822,119.27580652851611 19.116621719673276,115.30457328865305 18.321015754714608,111.33333333325572" stroke="#4dd2ff" stroke-linecap="round" stroke-linejoin="round" stroke-width="0.5"><title>2023-10-23 1.0km</title><desc>10087395010</desc></polyline><polyline fill="none" points="46.22966001229361,111.44844300323166 46.65397891937755,111.33333333331393 49.67725113290362,111.56355265609454 51.003247717861086,111.90888151322724 51.32148689823225,112.08154588472098 52.01100512268022,112.5995387705043 52.488363893004134,113.17508601938607 53.54916116083041,115.13194349990226 54.07955979509279,117.31901371839922 54.769078019307926,118.47010085260263 55.08731719944626,119.39096934115514 55.82987528690137,121.06004071573261 56.36027392116375,122.78666253044503 57.155871872091666,124.16795724013355 57.527150915702805,124.5708344046725 58.00450968649238,125.37658811168512 58.269709003390744,127.10320040548686 58.42882859357633,127.56362970743794 58.85314750066027,128.19671955530066 58.95922722760588,129.175130131247 59.11834681779146,129.57800471881637 61.4521008071024,135.1031210012152 61.77033998747356,135.33333333331393 61.77033998747356,135.0455679075094 61.292981216916814,134.5851430062321 60.76258258312009,133.3189731311868 60.23218394909054,132.22546113672433 58.800107637187466,127.7938442567829" stroke="#4dd2ff" stroke-linecap="round" stroke-linejoin="round" stroke-width="0.5"><title>2023-10-22 1.5km</title><desc>10080655811</desc></polyline><polyline fill="none" points="80.8494095436763,111.33333333331393 81.69145155604929,111.94247898831964 80.17577593377791,111.69882078003138 82.53349356842227,114.74454323225655 82.75803810521029,115.47551495471271 82.58962970273569,116.08465756388614 81.8037238244433,116.5110571240657 81.57917928765528,116.93745646456955 81.6353154219687,117.66842625197023 82.08440449507907,119.43493390904041 82.58962970273569,120.71412675781175 83.15099104424007,122.66336920537287 84.16144145908765,124.42986621236196 84.32984986156225,125.09991581586655 84.94734733738005,126.1963594526751 85.34030027664267,126.68366727011744 85.39643641049042,126.98823451029602 85.78938934998587,127.35371505090734 86.07007002062164,127.96284892683616 86.46302295988426,129.12020205735462 86.85597589891404,129.91207432042575 86.79983976483345,131.49581657606177 87.52960950881243,132.89681681717047 87.75415404560044,133.56685957341688 88.14710698463023,134.297814689402 88.82074059452862,135.15059484308586 89.15755739971064,135.33333333331393 87.86642631376162,133.50594661792275 87.58574564312585,132.531338721863 87.02438430138864,131.3130772394361 86.79983976483345,130.5212063154322 86.07007002062164,129.48568165750476 85.45257254480384,127.71919543022523" stroke="#4dd2ff" stroke-linecap="round" stroke-linejoin="round" stroke-width="0.5"><title>2023-10-20 1.4km</title><desc>10069668027</desc></polyline><polyline fill="none" points="110.50402788678184,111.33333333331393 110.61833097436465,112.26357861311408 111.53275567432866,114.49616309825797 111.76136184949428,115.86051737458911 113.64736279286444,120.4496928343433 113.81881742412224,121.06984976516105 113.93312051170506,122.00008430652088 114.16172668663785,122.62024009751622 115.53336373646744,124.54272015171591 116.27633380517364,126.03108879737556 116.73354615503922,127.51945481676375 117.13360696169548,128.3256519807619 117.36221313662827,129.5659538054024 117.64797085546888,130.1861040337826 118.39094092394225,132.10856684442842 118.50524401152506,132.85274482076056 119.59112334274687,135.0852748103789 119.87688106135465,135.33333333331393 120.04833569261245,135.33333333331393 120.16263877996244,135.27131870930316 120.10548723652028,135.2093040808686 118.96245636162348,133.78296636772575 118.44809246785007,132.04655198345426 117.36221313662827,130.06207402452128 117.19075850537047,129.25587852013996 117.07645541778766,127.89154591131955" stroke="#4dd2ff" stroke-linecap="round" stroke-linejoin="round" stroke-width="0.5"><title>2023-10-19 1.3km</title><desc>10064004415</desc></polyline><polyline fill="none" points="140.588183876127,111.33333333337214 142.94114740751684,114.3971769734053 142.7842831723392,116.60995041404385 143.09801164269447,118.8227217401145 144.1960612917319,122.73761967383325 145.76470364630222,125.29081041237805 147.33334600087255,129.71633435611147 150.47063071094453,134.8226976256119 150.94122341740876,135.33333333337214 151.411816123873,135.163121443009 149.3725810619071,133.12057778669987 145.6078394111246,125.80144822213333 144.66665399819613,122.56740685773548 141.99996199458838,116.9503769093426" stroke="#4dd2ff" stroke-linecap="round" stroke-linejoin="round" stroke-width="0.5"><title>2023-10-18 1.0km</title><desc>10058081424</desc></polyline><polyline fill="none" points="172.47767871338874,112.78788541769609 173.81815485842526,120.60608821571805 177.3369047390297,129.878808330046 179.68273799214512,134.78788137435913 180.68809510115534,135.33333333325572 181.19077365566045,135.33333333325572 181.52589269168675,134.60606402833946 180.35297606512904,133.1515247754287 178.84494040254503,130.78789666621014 176.8342261845246,126.42426960589364 175.9964285939932,123.87881693197414 172.47767871338874,116.78789923968725 172.14255967736244,115.69698702078313 171.80744064133614,111.33333333325572" stroke="#4dd2ff" stroke-linecap="round" stroke-linejoin="round" stroke-width="0.5"><title>2023-10-17 1.0km</title><desc>10051702317</desc></polyline><polyline fill="none" points="17.974005016498268,138.5538487394806 19.675379085354507,141.50770662049763 22.227440188638866,148.15387414768338 23.588539443910122,150.738490102347 25.11977610550821,155.53848410281353 26.9912875816226,160.33846892858855 27.671837208792567,161.63077096804045 28.522524243220687,162.0 28.69266165047884,161.81538549112156 28.522524243220687,161.26154188183136 26.651012767106295,158.49232200463302 24.09895166475326,152.2154123103246 22.227440188638866,148.33848966099322 20.69620352704078,141.13847457501106 19.845516491681337,138.0" stroke="#4dd2ff" stroke-linecap="round" stroke-linejoin="round" stroke-width="0.5"><title>2023-10-16 1.0km</title><desc>10046279660</desc></polyline><polyline fill="none" points="49.08491935674101,138.0 49.787073735147715,139.52381613338366 50.489228112623096,142.952399156522 52.069075462408364,148.2857415084727 54.17553859483451,151.5238368655555 56.63307891692966,160.66667249891907 57.51077188923955,161.6190493553877 58.739542049355805,162.0 58.91508064419031,161.6190493553877 58.739542049355805,160.47619708557613 56.457540322095156,157.23811291740276 55.2287701619789,153.42859694943763 53.82446140702814,151.14288468053564 50.489228112623096,143.33335254597478 49.26045795250684,138.0" stroke="#4dd2ff" stroke-linecap="round" stroke-linejoin="round" stroke-width="0.5"><title>2023-10-15 1.0km</title><desc>10039610121</desc></polyline><polyline fill="none" points="79.67230942752212,139.74194284738041 80.20741913095117,145.35486196051352 81.63437834288925,149.41938212374225 83.41807735711336,151.93551050825045 84.4882967658341,155.41937660961412 87.52058508899063,160.8387147146277 88.23406469356269,161.6129049619194 89.12591420207173,162.0 89.66102390550077,161.6129049619194 89.66102390550077,161.03226229758002 86.09362587705255,158.12904705642723 83.77481715939939,153.87099224491976 82.882967652753,150.1935757289175 80.74252883531153,145.35486196051352 79.67230942752212,141.29033552249894 79.85067932866514,138.77419696352445 79.67230942752212,138.0" stroke="#4dd2ff" stroke-linecap="round" stroke-linejoin="round" stroke-width="0.5"><title>2023-10-14 1.0km</title><desc>10033377496</desc></polyline><polyline fill="none" points="109.8916377061978,138.38095411774702 113.05133194103837,142.19049221090972 113.40240907855332,145.0476421045605 116.38656474463642,154.1905005914159 119.19518184196204,160.85714789829217 120.07287468481809,162.0 120.77502895984799,162.0 120.77502895984799,161.4285740123596 120.59949039109051,160.85714789829217 119.01964327320457,159.714295292506 117.26425758749247,156.47621017182246 115.33333333302289,150.3809801430907 111.8225619615987,142.57144571188837 111.29594625532627,139.90477002691478 110.41825341247022,138.0" stroke="#4dd2ff" stroke-linecap="round" stroke-linejoin="round" stroke-width="0.5"><title>2023-10-13 1.0km</title><desc>10028006924</desc></polyline><polyline fill="none" points="140.8504229383543,138.0 142.53880885988474,140.19848289946094 143.5518404133618,142.030550500378 143.72067900653929,144.41223636828363 143.5518404133618,146.97712629567832 145.4090649271384,150.82445623748936 147.60396662633866,156.68704282096587 149.7988683246076,160.71756309713237 150.30538410134614,161.4503842657432 151.1495770616457,162.0 151.1495770616457,161.08397370832972 149.2923525478691,158.70230377395637 147.60396662633866,155.77101457677782 145.4090649271384,149.7252197174821 144.0583561901003,147.34353892738 143.3830018211156,145.32826878875494" stroke="#4dd2ff" stroke-linecap="round" stroke-linejoin="round" stroke-width="0.5"><title>2023-10-12 1.0km</title><desc>10021974100</desc></polyline><polyline fill="none" points="173.86066913604736,141.40299945976585 174.52090384904295,144.98509901948273 174.35584517102689,146.4179373686202 175.84137327503413,151.25376057485119 176.99678402300924,153.40301225171424 178.15219477191567,157.3433020687662 179.8027815548703,161.2835855127778 180.13289891183376,161.6417927823495 180.95819230377674,162.0 180.79313362482935,161.2835855127778 178.97748816292733,156.6268862124998 176.99678402300924,153.2239080176223 174.35584517102689,147.1343562270049 173.69561045709997,144.80599416652694 173.36549310106784,141.40299945976585 172.37514103017747,138.0" stroke="#4dd2ff" stroke-linecap="round" stroke-linejoin="round" stroke-width="0.5"><title>2023-10-10 1.0km</title><desc>10009069592</desc></polyline><polyline fill="none" points="19.267550310119987,167.66667979001068 20.40596955642104,170.84316018619575 21.544388802722096,175.07846084260382 23.983858617022634,180.3725761543028 25.93543446715921,187.07843878725544 27.073853713460267,188.66666666674428 27.3991163559258,188.1372574903071 27.56174767576158,186.19608951103874 26.423328430391848,182.84315930353478 23.983858617022634,178.60787234758027 21.219126161187887,170.84316018619575 20.40596955642104,167.31373726390302 19.104918989352882,164.66666666674428" stroke="#4dd2ff" stroke-linecap="round" stroke-linejoin="round" stroke-width="0.5"><title>2023-10-09 1.0km</title><desc>10003389142</desc></polyline><polyline fill="none" points="49.113495227880776,164.66666666674428 50.31368938367814,166.15504538011737 51.513883537612855,168.9457531075459 52.199708769097924,174.52715933020227 54.77155338600278,180.10855324263684 57.00048538763076,186.43411812884733 58.0292232343927,188.29457538062707 58.88650477305055,188.66666666674428 58.88650477305055,187.17830119398423 55.628834925591946,181.96901514474303 51.34242723044008,171.55041087651625 49.62786415126175,164.85271405405365" stroke="#4dd2ff" stroke-linecap="round" stroke-linejoin="round" stroke-width="0.5"><title>2023-10-08 1.0km</title><desc>9996447828</desc></polyline><polyline fill="none" points="81.58596546761692,169.46668642875738 82.37588885240257,172.38097932026722 84.7456590058282,178.7238394941669 85.53558239061385,181.46669260389172 88.06333721987903,187.80952806281857 88.85326060466468,188.66666666674428 89.01124528143555,187.98095580912195 89.01124528143555,187.2952447498683 86.00953642092645,181.9809772025328 84.58767432905734,178.8952679077629 82.05991949886084,171.3524057744071 81.26999611407518,167.40953631163575 80.32208805251867,164.66666666674428" stroke="#4dd2ff" stroke-linecap="round" stroke-linejoin="round" stroke-width="0.5"><title>2023-10-07 1.0km</title><desc>9989974159</desc></polyline><polyline fill="none" points="113.37253096606582,171.8156288531609 114.62744448054582,175.90074019122403 115.56862961687148,177.9432931577321 117.45099988952279,185.94327492523007 117.92159245721996,187.47518317366485 118.86277759354562,188.66666666662786 119.64709854032844,188.66666666662786 119.96082691848278,187.985819031368 119.80396272987127,187.47518317366485 117.92159245721996,184.75179003051016 116.03922218549997,180.6666943093296 115.41176542825997,177.9432931577321 112.11761745158583,169.94328374776524 111.64702488388866,167.04965651454404 110.705839747563,164.66666666662786" stroke="#4dd2ff" stroke-linecap="round" stroke-linejoin="round" stroke-width="0.5"><title>2023-10-06 1.0km</title><desc>9984428862</desc></polyline><polyline fill="none" points="140.83311915397644,164.66666666674428 143.55253012571484,171.94537793379277 145.36547077354044,178.0437424001284 148.44746987521648,185.71585860056803 149.7165283281356,188.2732257801108 150.26041052304208,188.66666666674428 150.98558678291738,188.66666666674428 151.16688084602356,188.2732257801108 150.6229986520484,187.28962330752984 148.44746987521648,184.14209296857007 147.17841142136604,181.58472184138373 145.0028826436028,175.87980821286328 144.0964123206213,172.9289860459976 141.55829541385174,168.20766381011344 141.55829541385174,166.43716582423076" stroke="#4dd2ff" stroke-linecap="round" stroke-linejoin="round" stroke-width="0.5"><title>2023-10-04 1.0km</title><desc>9971682885</desc></polyline><polyline fill="none" points="173.03417267184705,167.4695988416206 173.8413935592398,170.27252771984786 174.6486144475639,172.19953941064887 175.2943911580369,175.17764532240108 178.36183053068817,181.30902812676504 178.52327470947057,183.411212884821 179.4919397747144,187.6155768376775 179.81482812948525,188.1411218100693 180.7834931947291,188.66666666674428 180.7834931947291,186.91485002753325 178.68471888732165,183.0608488873113 177.23172128852457,179.7323883411009 176.4245004011318,178.15574751212262 175.61727951280773,175.87837558449246 174.0028377380222,172.54990500560962 173.35706102661788,169.92216179030947 173.03417267184705,167.29441567743197 172.54984013922513,164.66666666674428" stroke="#4dd2ff" stroke-linecap="round" stroke-linejoin="round" stroke-width="0.5"><title>2023-10-03 1.0km</title><desc>9965060084</desc></polyline><polyline fill="none" points="18.94631807692349,192.32507309899665 21.13982570450753,199.46558865276165 21.505410309880972,202.63914505508728 22.784956426359713,204.22592185577378 23.698917938396335,206.60608530743048 25.344048659317195,212.75483117299154 26.623594775795937,214.73829459166154 27.537556286901236,215.33333333325572 27.720348590053618,215.13498710049316 27.171971682459116,213.54821671522222 25.161256357096136,209.77963331039064 21.87099491432309,201.84575630398467 19.86027958802879,195.89533323794603 19.49469498451799,191.33333333325572" stroke="#4dd2ff" stroke-linecap="round" stroke-linejoin="round" stroke-width="0.5"><title>2023-10-02 1.0km</title><desc>9958643020</desc></polyline><polyline fill="none" points="50.195727162994444,195.55734932608902 50.54961300827563,197.2853538999334 54.44235730729997,206.50135898054577 56.38872945681214,212.4533449781593 57.450386992655694,214.5653367487248 58.51204452756792,215.33333333325572 58.6889874516055,215.14133420819417 58.51204452756792,214.37333756755106 54.973186074756086,208.99735476030037 51.61127054411918,200.74135961616412 50.01878423988819,195.74934989097528 49.311012549325824,191.33333333325572" stroke="#4dd2ff" stroke-linecap="round" stroke-linejoin="round" stroke-width="0.5"><title>2023-10-01 1.0km</title><desc>9952075403</desc></polyline><polyline fill="none" points="81.22076875064522,194.8116092903074 82.66323764529079,197.76813983242027 83.3043349320069,200.72466667951085 83.78515789657831,203.5072768072132 86.18927272222936,210.28987528034486 88.27283890359104,214.63768458599225 89.23448483366519,215.33333333325572 89.55503347795457,214.81159679195844 86.34954704437405,209.9420501908753 84.90707814879715,206.63770928792655 84.42625518422574,204.8985806433484 82.18241468071938,200.02901363628916 80.90022010728717,194.63769561378285 79.77829985506833,191.33333333325572" stroke="#4dd2ff" stroke-linecap="round" stroke-linejoin="round" stroke-width="0.5"><title>2023-09-30 1.0km</title><desc>9945549317</desc></polyline><polyline fill="none" points="111.61753414291888,191.33333333325572 113.21001951023936,194.0213443012908 113.74084796570241,196.13335097790696 115.15639051422477,199.5893582191784 115.86416178941727,204.77336050593294 116.39499024581164,206.30935920705087 118.51830406859517,211.4933481544722 119.04913252405822,214.75733591639437 119.40301816165447,215.141334208427 119.93384661711752,215.33333333325572 120.11078943591565,214.94933506916277 116.9258187012747,209.18935433751903 114.80250487755984,204.19736076006666 114.09473360329866,201.31736012455076 111.61753414291888,195.55734932702035 110.55587723106146,192.10133674927056" stroke="#4dd2ff" stroke-linecap="round" stroke-linejoin="round" stroke-width="0.5"><title>2023-09-28 1.0km</title><desc>9933629332</desc></polyline><polyline fill="none" points="141.30833004321903,194.06061778985895 142.64880717359483,198.78790372400545 145.16220179293305,202.24245311506093 146.83779820613563,208.42426629760303 149.18363318406045,212.60607233573683 149.85387174971402,214.96969870734029 150.52411031350493,215.33333333325572 150.85922959726304,214.7878813741263 150.52411031350493,214.0606119085569 149.18363318406045,212.24243730842136 145.32976143341511,204.42427129670978 143.31904573831707,198.96972223301418 141.14077040180564,191.33333333325572" stroke="#4dd2ff" stroke-linecap="round" stroke-linejoin="round" stroke-width="0.5"><title>2023-09-27 1.0km</title><desc>9927137811</desc></polyline><polyline fill="none" points="178.66042848909274,191.33333333331393 178.18192565161735,193.6410575414193 177.7034228143748,194.96799588744761 177.33125394093804,196.5833960623131 175.15140768163837,201.14111434057122 174.03490106132813,203.0449635036057 173.82223313348368,203.85265569214243 173.9285670972895,204.48727040010272 174.19440200692043,205.41034542239504 174.99190673581325,207.371876239602 175.25774164544418,207.89110416453332 175.57674353709444,208.81417518266244 176.6400831756182,210.1410878690076 177.1185860130936,211.1795397103415 177.6502558325883,211.98722352588084 178.07559168781154,213.14105610584375 178.71359547111206,214.00642942730337 179.51110020000488,215.33333333331393" stroke="#4dd2ff" stroke-linecap="round" stroke-linejoin="round" stroke-width="0.5"><title>2023-09-26 1.0km</title><desc>9920397094</desc></polyline><polyline fill="none" points="23.22125115059316,218.0 22.175150780938566,221.4865189146367 21.12905041128397,223.3513965997845 20.157671496272087,224.56761947798077 19.63462131144479,225.54059681470972 19.410456946585327,226.51357329287566 19.48517840122804,227.7297926833853 19.85878567630425,228.70276723004645 20.75544313620776,230.08114636834944 21.12905041128397,231.45952378376387 21.87626496097073,233.24330376373837 23.295972605701536,235.02708085865015 25.687059164978564,239.891912816267 27.25620971992612,242.0" stroke="#4dd2ff" stroke-linecap="round" stroke-linejoin="round" stroke-width="0.5"><title>2023-09-25 1.0km</title><desc>9914573673</desc></polyline><polyline fill="none" points="55.769398524425924,218.0 55.17959901643917,218.89601189171663 55.06163911474869,219.3440174916177 55.17959901643917,219.92002435273025 55.23857896728441,220.4960308325244 54.05897995061241,222.67205187195214 53.7640801963862,224.14406301971758 53.351220540935174,225.23206965933787 50.87406260613352,229.5840826180647 50.81508265552111,230.09608271182515 51.051002458436415,231.12008199642878 51.69978191773407,232.14408007630846 52.05366162280552,233.04007740796078 52.58448117994703,233.93607381731272 52.87938093417324,234.83206930430606 53.64612029492855,236.04806170461234 54.235919802915305,237.26405240618624 54.88469926244579,237.96804624644574 55.06163911474869,238.60804015258327 55.47449877043255,239.12003493867815 56.35919803287834,240.656017490488 57.007977491943166,241.36000858753687 57.18491734447889,242.0" stroke="#4dd2ff" stroke-linecap="round" stroke-linejoin="round" stroke-width="0.5"><title>2023-09-24 1.0km</title><desc>9907510217</desc></polyline><polyline fill="none" points="85.56138857081532,218.0 85.06034430442378,218.77670756692532 84.70245554298162,219.55341456260066 84.4877222860232,220.56313280342147 84.4161445335485,221.88353212329093 83.19932274403982,223.5146113576484 82.48354522092268,225.37869882694213 81.8393454500474,226.31074132793583 81.40987893589772,227.55346338369418 81.33830118342303,228.87385396577884 82.84143398259766,232.67967640957795 83.41405600099824,233.84472135547549 85.27507756161503,236.7961628009216 86.06243283697404,238.73789609706728 87.0645213695243,239.9806035333895 87.63714338839054,240.99030224920716 87.99503215006553,242.0" stroke="#4dd2ff" stroke-linecap="round" stroke-linejoin="round" stroke-width="0.5"><title>2023-09-23 1.0km</title><desc>9901004991</desc></polyline><polyline fill="none" points="116.25489740283228,218.0 115.7770493668504,218.88889908476267 115.29920133110136,220.44447059562663 114.2069772486575,222.74078605504474 113.11475316644646,224.29635161813349 112.1590570944827,226.88895555236377 112.09079308924265,228.29636632249458 112.22732109995559,229.11118218576303 113.59260120242834,232.3704390480416 113.79739321791567,233.33339928498026 114.07044923841022,233.85191595437936 115.02614531014115,235.03709591110237 115.7770493668504,236.51856889599003 116.39142541307956,238.07411318598315 117.41538549028337,239.5555817053537 118.57587357750162,242.0" stroke="#4dd2ff" stroke-linecap="round" stroke-linejoin="round" stroke-width="0.5"><title>2023-09-22 1.0km</title><desc>9895405405</desc></polyline><polyline fill="none" points="147.2722463856917,218.0 147.07651617238298,218.7079731648555 146.68505574646406,219.13275681389496 145.83689148910344,220.69029525690712 145.5106744673103,221.8230489056441 144.53202340146527,224.30094286624808 143.48812893172726,226.42484689992853 142.83569488767534,227.9823735471 142.63996467436664,228.76113592577167 142.63996467436664,229.25671165710082 142.83569488767534,229.96467654500157 143.22715531405993,230.6726409124676 144.07531957118772,232.86732714337995 144.92348382784985,234.42484336928464 145.38018765859306,235.55758086033165 146.22835191548802,236.9735008503776 146.75029915035702,237.61066416668473 147.1417595767416,238.7433979100897 148.18565404694527,240.58408740104642 149.36003532563336,242.0" stroke="#4dd2ff" stroke-linecap="round" stroke-linejoin="round" stroke-width="0.5"><title>2023-09-21 1.0km</title><desc>9889267953</desc></polyline><polyline fill="none" points="179.11016508284956,218.0 178.25368110183626,220.56951311294688 177.7498669954948,222.59231506095966 176.94376442488283,224.2870908343466 175.98651762283407,227.12993184349034 174.3239310712088,230.24611046235077 173.87049837550148,231.94086878962116 173.9208797859028,232.32355561922304 174.2231682499405,233.14359816221986 174.87812658865005,234.5650030944962 175.2811778737232,235.76772822253406 176.28880608663894,237.18912813829957 176.89338301448151,238.33717993297614 177.24605288892053,239.1572158439085 177.6491041739937,239.86791290179826 178.30406251270324,240.35993354400853 179.11016508284956,241.56264929880854 179.16054649371654,241.7813246815349 179.46283495775424,242.0" stroke="#4dd2ff" stroke-linecap="round" stroke-linejoin="round" stroke-width="0.5"><title>2023-09-20 1.0km</title><desc>9882714971</desc></polyline><polyline fill="none" points="25.323337369132787,244.66666666668607 24.8116220459342,245.96231401583645 23.84504865691997,248.80039169400698 23.788191398605704,249.72584973095218 23.447047849651426,250.21942693332676 23.04904704261571,251.14488340506796 22.821618009824306,252.0086418579449 22.366759944474325,253.18088405008893 21.059043006738648,255.2785765172448 20.71789945755154,256.51251081295777 20.604184941388667,257.6230501277605 20.71789945755154,258.733587972587 21.059043006738648,259.96751718764426 21.45704381354153,260.8312665586709 22.707903493428603,262.99063609621953 23.333333333488554,263.8543823552318 23.901905915001407,265.39678417815594 24.47047849674709,266.3839198568603 25.039051078259945,267.1859667408862 25.664480918087065,267.8029253607965 26.06248172535561,268.66666666668607" stroke="#4dd2ff" stroke-linecap="round" stroke-linejoin="round" stroke-width="0.5"><title>2023-09-19 1.0km</title><desc>9876194288</desc></polyline><polyline fill="none" points="53.82334216265008,244.66666666668607 53.399363352917135,245.35677022585878 52.69273200351745,246.73697597446153 52.480742598418146,247.65711212501628 51.208806168986484,249.88077113742474 50.219522279454395,251.951070093608 50.00753287435509,252.71784644178115 50.078196009621024,253.56129977334058 50.5021748195868,254.6347848455771 51.138143033953384,255.78494619642152 51.70344811398536,257.3951699566678 52.480742598418146,259.082068372285 53.328700217884034,260.6156100186636 54.10599470278248,261.6124108796939 55.02461545704864,263.1459488053806 55.589920536847785,264.909514632076 56.579204426612705,266.44304770964663 57.07384637137875,267.8232255515177 57.99246712587774,268.66666666668607" stroke="#4dd2ff" stroke-linecap="round" stroke-linejoin="round" stroke-width="0.5"><title>2023-09-18 1.0km</title><desc>9870505463</desc></polyline><polyline fill="none" points="84.90782364597544,244.66666666668607 84.56331367534585,245.33957158122212 84.08099971688353,247.58258474699687 83.4608817701228,248.6293225311092 83.185273793526,249.45175860548625 81.66942992364056,251.9190628377255 81.11821397091262,253.2648626229493 80.77370400028303,254.46112760319375 81.049311976647,255.2835589608876 82.56515584653243,258.57327773986617 83.3230777818244,259.76953647547634 83.87429373455234,261.04055983998114 84.77001965767704,262.2368156731827 85.25233361660503,263.0592407420627 85.87245156336576,265.00315189751564 88.55962933320552,268.66666666668607" stroke="#4dd2ff" stroke-linecap="round" stroke-linejoin="round" stroke-width="0.5"><title>2023-09-16 1.0km</title><desc>9856514700</desc></polyline><polyline fill="none" points="115.00156985362992,244.66666666668607 114.26431767642498,246.90668906579958 113.3058898462914,248.42670163878938 111.31530896853656,252.26672394300113 111.24158375058323,253.14672714582412 111.31530896853656,254.18673001305433 111.75766027485952,255.22673188633053 112.4949124515988,256.34673279197887 113.1584394108504,257.86673217703355 114.3380428943783,259.8667281328235 115.81254724832252,262.66671629523626 115.9599976837635,263.7067100632703 116.47607420757413,264.1067074016901 117.06587594933808,264.90670163731556 118.02430377947167,266.50668834423414 119.05645682709292,267.38668003020575 119.27763248002157,267.9466743689263 119.42508291592821,268.66666666668607" stroke="#4dd2ff" stroke-linecap="round" stroke-linejoin="round" stroke-width="0.5"><title>2023-09-15 1.0km</title><desc>9850671982</desc></polyline><polyline fill="none" points="146.61013897042722,244.66666666668607 145.38986103003845,247.89428265637252 144.0170483472757,249.88050328032114 143.4069093768485,250.95637132163392 142.49170092167333,253.2736220715451 142.26289880787954,254.10121046897257 142.26289880787954,254.76328074838966 142.49170092167333,255.59086805046536 143.4069093768485,258.07362630584976 144.2458504610695,259.7287954335916 146.3050694852136,263.28740081668366 147.14401056896895,264.85980426258175 147.29654531134292,265.77014209574554 147.90668428177014,266.34944760613143 148.89816010789946,267.92184677446494 149.7371011916548,268.66666666668607" stroke="#4dd2ff" stroke-linecap="round" stroke-linejoin="round" stroke-width="0.5"><title>2023-09-14 1.0km</title><desc>9844236351</desc></polyline><polyline fill="none" points="172.85232900246046,244.66666666668607 173.291389452992,245.02399198093917 173.45603712205775,245.38131713756593 173.56580223469064,246.15552110265708 173.89509757235646,246.81061618757667 174.11462779785506,248.65679039410315 174.11462779785506,249.5500989832217 174.00486268522218,250.02652982791187 174.11462779785506,250.6220679898397 174.38904057932086,251.33671320602298 174.2792754669208,251.93225040455582 174.33415802312084,252.2300188395311 174.88298358628526,253.242430699931 175.37692659324966,254.7312693723943 175.81598704354838,255.56501783360727 176.3648126067128,256.3392120648059 176.9685207263101,256.87519225286087 177.133168395143,257.2325121812755 177.29781606420875,258.0067048187484 177.7368765147403,258.7808967162273 178.23081952147186,260.21017212141305 178.88941019726917,261.4607860322576 179.21870553516783,262.53273927618284 179.38335320423357,263.4260325622745 179.71264854213223,264.1406664822134 180.31635666149668,266.105906510551 181.13959500635974,267.6542740841396 181.1944775627926,267.8924842173583 181.13959500635974,268.0711417713319 180.48100433056243,268.66666666668607 180.81029966846108,268.42845676100114 180.974947337294,268.0711417713319 181.08471244992688,267.7733791595092 181.0298298939597,267.35651131905615 180.7005345558282,266.93964326399146 179.71264854213223,264.7957470212714 179.21870553516783,263.18782111565815 178.17593696527183,260.8652558392496 177.68199395830743,258.6022371132858 177.40758117684163,257.947151565284 176.3648126067128,256.5774255255237 175.3220440368168,254.61216237925692 174.8281010298524,253.0042162584723 174.66345336125232,251.93225040455582 174.22439291048795,250.80072935303906 173.34627200942487,248.89500611420954 173.1267417841591,248.0016968025011 172.3583859957289,246.572399854369 172.19373832666315,245.7981962877093 172.13885577046312,244.8453293435159" stroke="#4dd2ff" stroke-linecap="round" stroke-linejoin="round" stroke-width="0.5"><title>2023-09-13 1.0km</title><desc>9837636972</desc></polyline></svg>