<svg xmlns="http://www.w3.org/2000/svg" xmlns:ev="http://www.w3.org/2001/xml-events" xmlns:xlink="http://www.w3.org/1999/xlink" width="200mm" height="300mm" baseProfile="full" version="1.1" viewBox="0 0 200 300"><rect width="200" height="300" x="0" y="0" fill="#222"/><text fill="#FFF" style="font-size:12px;font-family:Arial;font-weight:700" x="10" y="20">Over 1km Runs</text><text fill="#FFF" style="font-size:4px;font-family:Arial" x="10" y="280">ATHLETE</text><text fill="#FFF" style="font-size:9px;font-family:Arial" x="10" y="290">Jiakai</text><text fill="#FFF" style="font-size:4px;font-family:Arial" x="120" y="280">STATISTICS</text><text fill="#FFF" style="font-size:3px;font-family:Arial" x="120" y="285">Number: 82</text><text fill="#FFF" style="font-size:3px;font-family:Arial" x="120" y="290">Weekly: 5.9</text><text fill="#FFF" style="font-size:3px;font-family:Arial" x="141" y="285">Total: 84.6 km</text><text fill="#FFF" style="font-size:3px;font-family:Arial" x="141" y="290">Avg: 1.0 km</text><text fill="#FFF" style="font-size:3px;font-family:Arial" x="167" y="285">Min: 1.0 km</text><text fill="#FFF" style="font-size:3px;font-family:Arial" x="167" y="290">Max: 1.5 km</text><polyline fill="none" stroke="#4dd2ff" stroke-linecap="round" stroke-linejoin="round" stroke-width=".5" points="18.546 33.875 19.896 39.444 21.247 42.375 23.948 49.995 24.488 50.727 24.758 50.727 24.893 50.141 24.353 49.262 22.192 45.598 19.086 39.297 18.681 37.392 17.195 34.168 16.925 31.091"><title>2023-12-12 1.0km</title><desc>10365882163</desc></polyline><polyline fill="none" stroke="#4dd2ff" stroke-linecap="round" stroke-linejoin="round" stroke-width=".5" points="39.683 31.091 41.085 34.133 42.997 38.973 44.399 41.601 46.438 47.962 46.692 49.621 47.202 50.727 47.33 49.759 47.075 48.653 44.399 42.569 42.487 38.835 41.977 37.314 41.595 34.133 40.575 31.229"><title>2023-12-11 1.0km</title><desc>10361067591</desc></polyline><polyline fill="none" stroke="#4dd2ff" stroke-linecap="round" stroke-linejoin="round" stroke-width=".5" points="66.497 42.047 69.12 50.016 69.251 50.443 69.776 50.727 69.907 50.585 69.513 49.589 68.333 47.312 67.022 43.755 63.35 36.356 62.301 31.091"><title>2023-12-10 1.0km</title><desc>10355395415</desc></polyline><polyline fill="none" stroke="#4dd2ff" stroke-linecap="round" stroke-linejoin="round" stroke-width=".5" points="85.242 32.39 87.504 36 88.568 40.476 90.83 46.829 91.629 50.294 92.161 50.727 92.294 50.583 92.294 50.294 92.028 49.139 89.234 43.508 88.568 41.92 88.169 39.465 87.504 37.588 86.439 35.711 86.306 33.69 85.109 31.091"><title>2023-12-09 1.0km</title><desc>10350143310</desc></polyline><polyline fill="none" stroke="#4dd2ff" stroke-linecap="round" stroke-linejoin="round" stroke-width=".5" points="109.205 34.901 110.016 37.832 111.771 42.081 114.202 49.115 115.283 50.727 115.148 49.262 114.337 46.771 112.177 42.961 110.826 39.737 109.341 37.392 108.935 35.048 107.315 31.091"><title>2023-12-08 1.0km</title><desc>10345303898</desc></polyline><polyline fill="none" stroke="#4dd2ff" stroke-linecap="round" stroke-linejoin="round" stroke-width=".5" points="130.732 31.091 130.985 31.777 131.492 33.563 131.745 36.034 132.251 38.094 134.023 42.488 135.162 46.47 136.301 48.942 136.554 50.727 136.807 50.59 137.06 50.315 137.06 49.903 136.427 48.256 134.402 44.823 131.998 37.819 131.365 34.936"><title>2023-12-07 1.0km</title><desc>10340288256</desc></polyline><polyline fill="none" stroke="#4dd2ff" stroke-linecap="round" stroke-linejoin="round" stroke-width=".5" points="152.848 31.091 153.629 32.927 155.061 39.002 157.144 42.816 158.837 47.478 159.618 50.445 160.009 50.727 160.139 49.738 159.878 48.467 157.795 44.088 156.363 41.969 155.582 40.415 152.978 31.515"><title>2023-12-06 1.0km</title><desc>10334845031</desc></polyline><polyline fill="none" stroke="#4dd2ff" stroke-linecap="round" stroke-linejoin="round" stroke-width=".5" points="177.281 34.477 178.155 38.945 179.029 42.196 181.15 47.748 182.273 50.321 182.648 50.727 182.149 48.29 180.901 45.987 179.777 42.737 178.155 39.352 177.406 36.779 176.158 34.07 175.534 31.091"><title>2023-12-05 1.0km</title><desc>10329306344</desc></polyline><polyline fill="none" stroke="#4dd2ff" stroke-linecap="round" stroke-linejoin="round" stroke-width=".5" points="17.302 54.557 18.188 55.93 19.327 59.912 21.605 65.542 22.744 69.387 23.756 71.584 24.516 72.545 24.516 71.859 21.225 64.306 19.96 60.05 18.568 56.891 17.556 52.909"><title>2023-12-04 1.0km</title><desc>10324662812</desc></polyline><polyline fill="none" stroke="#4dd2ff" stroke-linecap="round" stroke-linejoin="round" stroke-width=".5" points="40.096 54.722 41.488 60.008 43.715 64.993 45.247 70.28 46.36 72.394 47.195 72.545 47.195 71.941 46.221 70.28 44.968 66.655 43.576 64.54 42.602 61.972 40.931 55.93 39.818 52.909"><title>2023-12-02 1.0km</title><desc>10313350310</desc></polyline><polyline fill="none" stroke="#4dd2ff" stroke-linecap="round" stroke-linejoin="round" stroke-width=".5" points="62.539 53.95 63.91 55.736 65.556 61.388 66.652 66 68.434 71.058 69.531 72.545 69.668 71.653 69.394 69.868 67.886 66.595 65.556 62.876 64.185 60.05 62.814 52.909"><title>2023-12-01 1.0km</title><desc>10308709030</desc></polyline><polyline fill="none" stroke="#4dd2ff" stroke-linecap="round" stroke-linejoin="round" stroke-width=".5" points="85.082 52.909 87.796 62.236 90.511 67.8 92.019 71.891 92.471 72.545 92.622 72.055 92.019 70.418 89.757 67.309 89.154 65.673 86.892 61.255 85.836 56.182 84.78 53.236"><title>2023-11-30 1.0km</title><desc>10303537703</desc></polyline><polyline fill="none" stroke="#4dd2ff" stroke-linecap="round" stroke-linejoin="round" stroke-width=".5" points="109.052 57.107 109.926 59.951 110.3 62.253 111.673 64.962 113.171 69.024 114.668 72.275 114.918 72.545 115.168 72.275 114.918 71.327 113.92 69.566 112.547 65.774 110.55 61.712 109.801 57.378 108.303 55.076 107.43 52.909"><title>2023-11-29 1.0km</title><desc>10298007687</desc></polyline><polyline fill="none" stroke="#4dd2ff" stroke-linecap="round" stroke-linejoin="round" stroke-width=".5" points="130.511 55.452 131.943 59.125 132.204 61.809 134.026 66.188 135.068 70.144 135.979 71.98 136.89 72.545 137.281 72.545 137.541 72.122 137.411 71.557 136.89 70.568 134.807 65.058 132.724 60.255 132.334 57.995 131.422 55.311 130.251 52.909"><title>2023-11-28 1.0km</title><desc>10292316108</desc></polyline><polyline fill="none" stroke="#4dd2ff" stroke-linecap="round" stroke-linejoin="round" stroke-width=".5" points="156.032 52.909 157.185 56.036 157.877 59.038 158.799 60.413 159.836 62.415 160.874 65.666 161.796 67.167 161.796 67.918 161.219 68.418 159.375 69.419 158.222 70.419 157.07 71.045 155.341 71.795 152.575 72.545 152.113 72.42 151.768 72.045 151.191 69.669"><title>2023-11-27 1.0km</title><desc>10287544518</desc></polyline><polyline fill="none" stroke="#4dd2ff" stroke-linecap="round" stroke-linejoin="round" stroke-width=".5" points="177.193 57.166 177.825 58.676 179.344 66.366 180.989 70.348 181.875 71.859 182.508 72.545 182.634 72.408 182.255 71.722 182.255 70.623 181.242 68.289 180.103 64.444 178.964 62.109 178.205 57.715 176.054 54.282 175.548 52.909"><title>2023-11-26 1.0km</title><desc>10281488289</desc></polyline><polyline fill="none" stroke="#4dd2ff" stroke-linecap="round" stroke-linejoin="round" stroke-width=".5" points="17.334 74.727 18.793 78.528 20.106 83.912 21.42 86.921 21.712 88.821 22.441 90.563 24.047 93.572 24.776 94.364 25.068 94.364 22.879 89.613 22.587 88.029 21.128 85.971 18.209 78.053 16.75 75.361"><title>2023-11-25 1.0km</title><desc>10275889695</desc></polyline><polyline fill="none" stroke="#4dd2ff" stroke-linecap="round" stroke-linejoin="round" stroke-width=".5" points="39.701 74.911 40.716 79.499 45.451 92.345 46.635 94.18 47.143 94.364 47.312 93.813 45.621 91.611 43.591 85.555 42.238 82.802 41.392 77.48 40.378 74.727"><title>2023-11-24 1.0km</title><desc>10271180196</desc></polyline><polyline fill="none" stroke="#4dd2ff" stroke-linecap="round" stroke-linejoin="round" stroke-width=".5" points="63.662 76.909 64.093 78.156 65.099 83.455 67.54 90.935 68.689 94.052 69.12 94.364 69.694 94.364 69.838 94.052 69.551 92.494 67.971 87.974 63.806 78.935 62.37 74.727"><title>2023-11-23 1.0km</title><desc>10265414399</desc></polyline><polyline fill="none" stroke="#4dd2ff" stroke-linecap="round" stroke-linejoin="round" stroke-width=".5" points="86.981 79.152 87.108 81.088 87.618 84.131 89.657 89.939 90.294 92.704 91.314 94.364 92.078 94.364 91.951 93.534 90.549 89.939 89.402 88.141 87.746 83.024 85.834 77.77 85.324 74.727"><title>2023-11-21 1.0km</title><desc>10253878272</desc></polyline><polyline fill="none" stroke="#4dd2ff" stroke-linecap="round" stroke-linejoin="round" stroke-width=".5" points="109.185 80.031 109.846 84.33 112.62 91.354 113.808 93.934 114.205 94.364 114.469 94.22 114.601 93.934 114.073 91.64 111.695 86.48 110.77 83.757 109.317 78.167 108.525 76.734 107.996 74.727"><title>2023-11-20 1.0km</title><desc>10248671423</desc></polyline><polyline fill="none" stroke="#4dd2ff" stroke-linecap="round" stroke-linejoin="round" stroke-width=".5" points="130.4 76.364 132.32 80.529 132.868 84.843 134.376 88.264 135.884 92.579 136.569 93.62 137.392 94.364 137.255 93.174 134.924 87.074 133.416 81.57 131.908 78 131.086 74.727"><title>2023-11-19 1.0km</title><desc>10242265034</desc></polyline><polyline fill="none" stroke="#4dd2ff" stroke-linecap="round" stroke-linejoin="round" stroke-width=".5" points="152.677 92.223 153.535 89.524 153.878 88.873 154.478 88.501 157.394 88.128 159.538 87.663 160.224 87.105 160.653 86.546 161.168 84.22 160.996 83.475 161.339 82.917 161.082 78.636 160.91 78.078 160.824 76.402 160.653 75.379 159.71 75.1 158.938 75.658 159.109 75.379 159.281 75.658 158.166 75.1 158.08 74.727 157.823 74.913 157.994 74.82 157.394 75.565 157.48 75.472 159.281 76.402 158.852 76.775 158.166 77.054 156.536 77.333 156.451 76.961 156.879 76.775 157.48 76.868 159.281 75.1 161.768 75.193 161.511 75.006 161.168 74.913 160.91 79.38 160.996 80.683 161.253 82.265 161.425 84.964 161.425 85.895 161.168 86.826 160.653 87.384 156.365 87.849 154.392 88.221 153.363 88.966 152.163 90.641 151.476 93.061 151.219 94.364"><title>2023-11-18 1.0km</title><desc>10236386505</desc></polyline><polyline fill="none" stroke="#4dd2ff" stroke-linecap="round" stroke-linejoin="round" stroke-width=".5" points="175.084 74.727 177.928 79.636 178.962 83.283 179.349 85.387 180.125 86.649 182.581 93.803 183.098 94.364 183.098 93.803 182.581 93.101 181.159 88.894 180.384 87.491 180.125 85.107 178.962 82.161 177.669 79.356 177.54 77.813"><title>2023-11-17 1.0km</title><desc>10231268371</desc></polyline><polyline fill="none" stroke="#4dd2ff" stroke-linecap="round" stroke-linejoin="round" stroke-width=".5" points="17.407 97.179 19.304 99.871 19.742 103.513 21.055 106.364 23.098 113.965 24.412 116.182 24.266 114.915 23.244 112.856 22.514 110.798 21.347 105.889 19.012 100.979 18.282 98.762 17.844 96.545"><title>2023-11-16 1.0km</title><desc>10225818993</desc></polyline><polyline fill="none" stroke="#4dd2ff" stroke-linecap="round" stroke-linejoin="round" stroke-width=".5" points="40.101 96.757 41.074 100.557 42.631 104.78 44.771 108.792 45.55 111.959 46.912 114.704 48.274 116.182 44.771 109.636 43.215 104.78 38.739 96.545"><title>2023-11-15 1.0km</title><desc>10219684298</desc></polyline><polyline fill="none" stroke="#4dd2ff" stroke-linecap="round" stroke-linejoin="round" stroke-width=".5" points="62.634 98.908 64.403 101.122 64.675 103.928 66.716 108.8 67.941 112.934 69.165 116.034 69.71 116.182 69.574 114.41 67.805 112.048 67.124 109.981 66.036 108.652 65.628 107.028 63.587 102.894 62.906 99.941 62.498 96.545"><title>2023-11-14 1.0km</title><desc>10213806154</desc></polyline><polyline fill="none" stroke="#4dd2ff" stroke-linecap="round" stroke-linejoin="round" stroke-width=".5" points="86.079 99.249 87.128 103.233 90.013 110.632 90.668 113.051 91.98 115.755 92.373 116.182 91.586 114.759 89.75 110.348 89.619 109.21 88.308 106.079 86.341 102.522 85.554 100.103 85.03 96.545"><title>2023-11-13 1.0km</title><desc>10208522228</desc></polyline><polyline fill="none" stroke="#4dd2ff" stroke-linecap="round" stroke-linejoin="round" stroke-width=".5" points="109.105 98.777 110.476 102.942 112.121 106.364 113.081 110.38 114.041 113.207 115.274 115.884 115.823 116.182 116.097 115.587 114.589 112.612 113.766 109.339 110.75 106.512 109.105 104.132 108.831 101.603 106.5 96.545"><title>2023-11-12 1.0km</title><desc>10202270880</desc></polyline><polyline fill="none" stroke="#4dd2ff" stroke-linecap="round" stroke-linejoin="round" stroke-width=".5" points="130.925 100.209 134.166 107.536 135.247 111.199 136.327 114.13 137.002 115.449 137.677 116.182 137.812 115.596 136.597 111.932 134.301 108.415 131.87 102.847 130.925 98.89 129.98 96.545"><title>2023-11-11 1.0km</title><desc>10196068378</desc></polyline><polyline fill="none" stroke="#4dd2ff" stroke-linecap="round" stroke-linejoin="round" stroke-width=".5" points="154.668 99.474 156.89 106.191 158.954 111.703 159.906 115.321 160.541 116.182 160.859 115.837 160.383 113.77 158.002 108.431 155.62 103.435 152.446 98.44 152.128 96.545"><title>2023-11-10 1.0km</title><desc>10191120477</desc></polyline><polyline fill="none" stroke="#4dd2ff" stroke-linecap="round" stroke-linejoin="round" stroke-width=".5" points="174.532 97.145 176.881 98.944 178.262 101.342 178.676 102.242 178.676 103.591 180.196 108.237 180.749 110.935 181.854 113.933 182.13 115.432 182.821 116.182 183.235 116.032 183.65 115.432 182.13 114.383 179.643 110.786 176.743 102.841 176.052 98.344 175.361 96.545"><title>2023-11-09 1.0km</title><desc>10185506531</desc></polyline><polyline fill="none" stroke="#4dd2ff" stroke-linecap="round" stroke-linejoin="round" stroke-width=".5" points="17.078 119.94 18.531 122.807 19.06 124.24 20.777 127.967 21.437 130.547 21.305 128.97 21.57 129.973 22.098 133.843 23.287 137.427 23.815 138 24.476 137.713 24.74 137.283 23.287 135.993 22.23 134.273 21.57 132.41 20.645 129.257 19.324 127.394 17.871 124.24 17.475 121.947 17.607 119.08 17.343 118.364"><title>2023-11-08 1.0km</title><desc>10179505859</desc></polyline><polyline fill="none" stroke="#4dd2ff" stroke-linecap="round" stroke-linejoin="round" stroke-width=".5" points="42.621 129.212 47.05 138 47.303 137.863 46.67 136.352 45.531 134.43 44.772 132.507 43.253 130.86 42.747 129.898 42.368 126.603 42.114 125.641 40.596 123.032 39.71 118.364"><title>2023-11-06 1.0km</title><desc>10167691585</desc></polyline><polyline fill="none" stroke="#4dd2ff" stroke-linecap="round" stroke-linejoin="round" stroke-width=".5" points="64.216 123.873 65.127 125.568 68.512 133.338 69.945 137.717 70.205 138 70.465 138 70.465 137.576 69.424 135.316 68.512 134.044 68.382 133.338 67.601 132.491 65.388 128.676 62.784 122.037 61.743 118.364"><title>2023-11-05 1.1km</title><desc>10161301187</desc></polyline><polyline fill="none" stroke="#4dd2ff" stroke-linecap="round" stroke-linejoin="round" stroke-width=".5" points="85.03 118.364 87.652 124.198 88.832 129.32 90.668 132.877 91.324 135.723 91.98 138 92.373 137.573 92.242 137.146 90.537 134.016 90.406 133.589 88.832 131.17 88.177 128.893 86.472 125.763 86.079 123.059 85.292 120.213"><title>2023-11-04 1.0km</title><desc>10155501797</desc></polyline><polyline fill="none" stroke="#4dd2ff" stroke-linecap="round" stroke-linejoin="round" stroke-width=".5" points="116.567 121.346 115.078 119.358 114.162 118.736 112.329 118.364 110.612 118.488 108.206 119.606 107.176 120.601 106.259 122.465 106.03 123.956 105.687 128.928 105.916 134.147 106.145 134.893 107.29 136.757 108.665 137.751 110.955 138 113.017 137.13 114.964 134.769 115.536 133.65 116.338 130.046 116.338 127.188 116.911 123.459 116.796 122.092 115.536 120.601 114.505 119.855 112.1 118.736 110.841 118.736 108.092 119.606 106.832 120.725 106.03 122.216 105.801 123.211 106.03 127.312 105.801 129.176"><title>2023-11-03 1.0km</title><desc>10152446508</desc></polyline><polyline fill="none" stroke="#4dd2ff" stroke-linecap="round" stroke-linejoin="round" stroke-width=".5" points="129.832 118.364 130.906 120.693 131.826 124.854 133.359 127.849 135.66 133.84 136.12 134.838 136.887 137.501 137.347 138 137.96 138 137.96 137.667 136.887 137.168 136.427 136.003 135.353 135.005 134.586 132.841 133.513 131.177 132.286 128.681 130.906 123.522 129.985 121.359"><title>2023-11-02 1.1km</title><desc>10144903556</desc></polyline><polyline fill="none" stroke="#4dd2ff" stroke-linecap="round" stroke-linejoin="round" stroke-width=".5" points="153.15 119.787 153.412 121.352 154.461 123.771 156.297 130.316 159.444 136.862 160.362 138 159.837 136.292 157.87 133.304 156.821 129.462 155.51 127.613 153.936 124.198 152.625 118.364"><title>2023-11-01 1.0km</title><desc>10138966680</desc></polyline><polyline fill="none" stroke="#4dd2ff" stroke-linecap="round" stroke-linejoin="round" stroke-width=".5" points="176.234 118.659 176.914 120.874 178.002 126.779 179.771 130.618 180.86 134.161 182.629 138 182.765 137.852 181.54 136.081 179.771 131.947 178.275 129.289 175.689 121.464 175.417 118.364"><title>2023-10-31 1.0km</title><desc>10133123337</desc></polyline><polyline fill="none" stroke="#4dd2ff" stroke-linecap="round" stroke-linejoin="round" stroke-width=".5" points="17.826 142.509 18.496 146 18.496 147.309 19.971 149.782 23.992 158.364 24.662 159.673 24.931 159.818 21.847 153.709 20.507 149.927 19.032 146.873 16.888 140.182"><title>2023-10-30 1.0km</title><desc>10127985445</desc></polyline><polyline fill="none" stroke="#4dd2ff" stroke-linecap="round" stroke-linejoin="round" stroke-width=".5" points="40.411 143.024 41.006 147.029 41.363 148.321 43.745 153.876 44.935 157.105 46.721 159.56 47.197 159.818 47.316 159.431 46.245 157.751 44.697 154.392 41.959 149.354 40.887 145.608 40.054 143.928 39.935 141.345 39.697 140.182"><title>2023-10-28 1.0km</title><desc>10115543824</desc></polyline><polyline fill="none" stroke="#4dd2ff" stroke-linecap="round" stroke-linejoin="round" stroke-width=".5" points="63.557 144.255 64.629 147.745 65.836 150.509 66.908 154.436 68.517 158.218 69.187 159.673 69.857 159.818 69.991 159.673 69.723 158.8 68.919 156.618 66.238 151.382 64.093 145.564 62.753 142.655 62.217 140.182"><title>2023-10-27 1.0km</title><desc>10110442644</desc></polyline><polyline fill="none" stroke="#4dd2ff" stroke-linecap="round" stroke-linejoin="round" stroke-width=".5" points="86.04 143.214 88.568 151.733 89.5 154.332 90.431 155.92 91.496 158.952 91.895 159.529 92.693 159.818 92.826 159.385 92.693 158.807 91.363 157.075 89.367 153.61 86.971 146.535 85.375 143.936 84.576 140.182"><title>2023-10-26 1.0km</title><desc>10104873905</desc></polyline><polyline fill="none" stroke="#4dd2ff" stroke-linecap="round" stroke-linejoin="round" stroke-width=".5" points="110.315 149.573 113.331 157.115 114.774 159.676 115.298 159.818 115.167 158.395 111.627 152.277 109.66 147.296 107.955 143.739 107.299 140.182"><title>2023-10-25 1.0km</title><desc>10098978222</desc></polyline><polyline fill="none" stroke="#4dd2ff" stroke-linecap="round" stroke-linejoin="round" stroke-width=".5" points="130.264 140.182 130.132 141.185 130.924 144.482 131.981 146.632 132.641 149.212 133.83 152.652 136.34 157.525 137.132 159.532 137.397 159.818 137.661 159.675 137.529 157.812 136.076 155.088 135.019 153.512 133.698 150.502 133.434 148.925 131.849 146.488 130.924 144.338 130.66 141.758 130.264 140.182"><title>2023-10-24 1.0km</title><desc>10092835699</desc></polyline><polyline fill="none" stroke="#4dd2ff" stroke-linecap="round" stroke-linejoin="round" stroke-width=".5" points="154.476 143.572 156.428 150.494 157.34 152.19 158.381 156.428 159.944 159.253 160.594 159.818 159.944 159.112 159.032 156.852 156.689 154.026 156.168 153.037 155.647 149.788 154.085 146.68 153.043 143.431 152.393 140.182"><title>2023-10-23 1.0km</title><desc>10087395010</desc></polyline><polyline fill="none" stroke="#4dd2ff" stroke-linecap="round" stroke-linejoin="round" stroke-width=".5" points="172.733 140.276 173.081 140.182 175.554 140.37 176.639 140.653 176.899 140.794 177.464 141.218 177.854 141.689 178.722 143.29 179.156 145.079 179.72 146.021 179.981 146.774 180.588 148.14 181.022 149.553 181.673 150.683 181.977 151.013 182.367 151.672 182.584 153.084 182.714 153.461 183.062 153.979 183.148 154.78 183.279 155.109 185.188 159.63 185.448 159.818 185.448 159.583 185.058 159.206 184.624 158.17 184.19 157.275 183.018 153.65"><title>2023-10-22 1.5km</title><desc>10080655811</desc></polyline><polyline fill="none" stroke="#4dd2ff" stroke-linecap="round" stroke-linejoin="round" stroke-width=".5" points="17.786 162 18.475 162.498 17.235 162.299 19.164 164.791 19.347 165.389 19.21 165.887 18.567 166.236 18.383 166.585 18.429 167.183 18.796 168.629 19.21 169.675 19.669 171.27 20.496 172.715 20.634 173.264 21.139 174.161 21.46 174.559 21.506 174.809 21.828 175.108 22.057 175.606 22.379 176.553 22.7 177.201 22.654 178.497 23.251 179.643 23.435 180.191 23.757 180.789 24.308 181.487 24.583 181.636 23.527 180.141 23.297 179.344 22.838 178.347 22.654 177.699 22.057 176.852 21.552 175.407"><title>2023-10-20 1.4km</title><desc>10069668027</desc></polyline><polyline fill="none" stroke="#4dd2ff" stroke-linecap="round" stroke-linejoin="round" stroke-width=".5" points="39.555 162 39.649 162.761 40.397 164.588 40.584 165.704 42.127 169.459 42.267 169.966 42.361 170.727 42.548 171.235 43.67 172.808 44.278 174.025 44.652 175.243 44.979 175.903 45.166 176.918 45.4 177.425 46.008 178.998 46.102 179.607 46.99 181.433 47.224 181.636 47.364 181.636 47.458 181.586 47.411 181.535 46.476 180.368 46.055 178.947 45.166 177.324 45.026 176.664 44.933 175.548"><title>2023-10-19 1.3km</title><desc>10064004415</desc></polyline><polyline fill="none" stroke="#4dd2ff" stroke-linecap="round" stroke-linejoin="round" stroke-width=".5" points="61.676 162 63.601 164.507 63.473 166.317 63.73 168.128 64.628 171.331 65.911 173.42 67.195 177.041 69.762 181.219 70.147 181.636 70.532 181.497 68.863 179.826 65.783 173.838 65.013 171.192 62.831 166.596"><title>2023-10-18 1.0km</title><desc>10058081424</desc></polyline><polyline fill="none" stroke="#4dd2ff" stroke-linecap="round" stroke-linejoin="round" stroke-width=".5" points="85.274 163.19 86.371 169.587 89.25 177.174 91.169 181.19 91.992 181.636 92.403 181.636 92.677 181.041 91.717 179.851 90.484 177.917 88.838 174.347 88.153 172.264 85.274 166.463 85 165.57 84.726 162"><title>2023-10-17 1.0km</title><desc>10051702317</desc></polyline><polyline fill="none" stroke="#4dd2ff" stroke-linecap="round" stroke-linejoin="round" stroke-width=".5" points="106.914 162.453 108.306 164.87 110.394 170.308 111.508 172.422 112.76 176.35 114.292 180.277 114.848 181.334 115.544 181.636 115.684 181.485 115.544 181.032 114.013 178.766 111.925 173.631 110.394 170.459 109.141 164.568 108.445 162"><title>2023-10-16 1.0km</title><desc>10046279660</desc></polyline><polyline fill="none" stroke="#4dd2ff" stroke-linecap="round" stroke-linejoin="round" stroke-width=".5" points="129.875 162 130.449 163.247 131.024 166.052 132.316 170.416 134.04 173.065 136.05 180.545 136.769 181.325 137.774 181.636 137.918 181.325 137.774 180.39 135.907 177.74 134.901 174.623 133.752 172.753 131.024 166.364 130.018 162"><title>2023-10-15 1.0km</title><desc>10039610121</desc></polyline><polyline fill="none" stroke="#4dd2ff" stroke-linecap="round" stroke-linejoin="round" stroke-width=".5" points="152.407 163.425 152.845 168.018 154.013 171.343 155.472 173.402 156.348 176.252 158.829 180.686 159.412 181.32 160.142 181.636 160.58 181.32 160.58 180.845 157.661 178.469 155.764 174.985 155.034 171.977 153.283 168.018 152.407 164.692 152.553 162.633 152.407 162"><title>2023-10-14 1.0km</title><desc>10033377496</desc></polyline><polyline fill="none" stroke="#4dd2ff" stroke-linecap="round" stroke-linejoin="round" stroke-width=".5" points="174.639 162.312 177.224 165.429 177.511 167.766 179.953 175.247 182.251 180.701 182.969 181.636 183.543 181.636 183.543 181.169 183.4 180.701 182.107 179.766 180.671 177.117 179.091 172.13 176.218 165.74 175.788 163.558 175.069 162"><title>2023-10-13 1.0km</title><desc>10028006924</desc></polyline><polyline fill="none" stroke="#4dd2ff" stroke-linecap="round" stroke-linejoin="round" stroke-width=".5" points="16.696 183.818 18.077 185.617 18.906 187.116 19.044 189.065 18.906 191.163 20.426 194.311 22.221 199.108 24.017 202.405 24.432 203.005 25.122 203.455 25.122 202.705 23.603 200.756 22.221 198.358 20.426 193.412 19.32 191.463 18.768 189.814"><title>2023-10-12 1.0km</title><desc>10021974100</desc></polyline><polyline fill="none" stroke="#4dd2ff" stroke-linecap="round" stroke-linejoin="round" stroke-width=".5" points="41.211 186.602 41.751 189.533 41.616 190.706 42.831 194.662 43.777 196.421 44.722 199.645 46.072 202.868 46.343 203.161 47.018 203.455 46.883 202.868 45.397 199.058 43.777 196.274 41.616 191.292 41.076 189.387 40.806 186.602 39.995 183.818"><title>2023-10-10 1.0km</title><desc>10009069592</desc></polyline><polyline fill="none" stroke="#4dd2ff" stroke-linecap="round" stroke-linejoin="round" stroke-width=".5" points="62.777 186.273 63.709 188.872 64.64 192.337 66.636 196.668 68.233 202.155 69.164 203.455 69.43 203.021 69.564 201.433 68.632 198.69 66.636 195.225 64.374 188.872 63.709 185.984 62.644 183.818"><title>2023-10-09 1.0km</title><desc>10003389142</desc></polyline><polyline fill="none" stroke="#4dd2ff" stroke-linecap="round" stroke-linejoin="round" stroke-width=".5" points="84.703 183.818 85.685 185.036 86.667 187.319 87.228 191.886 89.333 196.452 91.156 201.628 91.998 203.15 92.699 203.455 92.699 202.237 90.034 197.975 86.527 189.45 85.124 183.97"><title>2023-10-08 1.0km</title><desc>9996447828</desc></polyline><polyline fill="none" stroke="#4dd2ff" stroke-linecap="round" stroke-linejoin="round" stroke-width=".5" points="108.778 187.745 109.424 190.13 111.363 195.32 112.01 197.564 114.078 202.753 114.724 203.455 114.853 202.894 114.853 202.332 112.397 197.984 111.234 195.46 109.166 189.288 108.52 186.062 107.744 183.818"><title>2023-10-07 1.0km</title><desc>9989974159</desc></polyline><polyline fill="none" stroke="#4dd2ff" stroke-linecap="round" stroke-linejoin="round" stroke-width=".5" points="132.292 189.667 133.319 193.01 134.089 194.681 135.629 201.226 136.014 202.48 136.784 203.455 137.426 203.455 137.682 202.897 137.554 202.48 136.014 200.251 134.474 196.909 133.96 194.681 131.265 188.135 130.88 185.768 130.11 183.818"><title>2023-10-06 1.0km</title><desc>9984428862</desc></polyline><polyline fill="none" stroke="#4dd2ff" stroke-linecap="round" stroke-linejoin="round" stroke-width=".5" points="152.266 183.818 154.491 189.773 155.974 194.763 158.496 201.04 159.534 203.133 159.979 203.455 160.573 203.455 160.721 203.133 160.276 202.328 158.496 199.753 157.458 197.66 155.678 192.993 154.936 190.578 152.859 186.715 152.859 185.267"><title>2023-10-04 1.0km</title><desc>9971682885</desc></polyline><polyline fill="none" stroke="#4dd2ff" stroke-linecap="round" stroke-linejoin="round" stroke-width=".5" points="176.119 186.111 176.779 188.405 177.44 189.981 177.968 192.418 180.478 197.435 180.61 199.155 181.402 202.595 181.667 203.025 182.459 203.455 182.459 202.021 180.742 198.868 179.553 196.145 178.893 194.855 178.232 192.991 176.911 190.268 176.383 188.118 176.119 185.968 175.723 183.818"><title>2023-10-03 1.0km</title><desc>9965060084</desc></polyline><polyline fill="none" stroke="#4dd2ff" stroke-linecap="round" stroke-linejoin="round" stroke-width=".5" points="17.32 206.448 19.114 212.29 19.414 214.887 20.46 216.185 21.208 218.132 22.554 223.163 23.601 224.786 24.349 225.273 24.498 225.11 24.05 223.812 22.405 220.729 19.713 214.237 18.068 209.369 17.768 205.636"><title>2023-10-02 1.0km</title><desc>9958643020</desc></polyline><polyline fill="none" stroke="#4dd2ff" stroke-linecap="round" stroke-linejoin="round" stroke-width=".5" points="40.394 209.092 40.683 210.506 43.868 218.047 45.461 222.916 46.33 224.644 47.198 225.273 47.343 225.116 47.198 224.487 44.303 220.089 41.552 213.334 40.249 209.249 39.67 205.636"><title>2023-10-01 1.0km</title><desc>9952075403</desc></polyline><polyline fill="none" stroke="#4dd2ff" stroke-linecap="round" stroke-linejoin="round" stroke-width=".5" points="63.285 208.482 64.465 210.901 64.989 213.32 65.383 215.597 67.35 221.146 69.054 224.704 69.841 225.273 70.103 224.846 67.481 220.862 66.301 218.158 65.907 216.735 64.071 212.751 63.022 208.34 62.104 205.636"><title>2023-09-30 1.0km</title><desc>9945549317</desc></polyline><polyline fill="none" stroke="#4dd2ff" stroke-linecap="round" stroke-linejoin="round" stroke-width=".5" points="85.661 205.636 86.964 207.836 87.398 209.564 88.557 212.391 89.136 216.633 89.57 217.889 91.307 222.131 91.741 224.801 92.031 225.116 92.465 225.273 92.61 224.959 90.004 220.246 88.267 216.161 87.688 213.805 85.661 209.092 84.792 206.265"><title>2023-09-28 1.0km</title><desc>9933629332</desc></polyline><polyline fill="none" stroke="#4dd2ff" stroke-linecap="round" stroke-linejoin="round" stroke-width=".5" points="107.46 207.868 108.557 211.736 110.613 214.562 111.984 219.62 113.903 223.041 114.452 224.975 115 225.273 115.274 224.826 115 224.231 113.903 222.744 110.75 216.347 109.105 211.884 107.323 205.636"><title>2023-09-27 1.0km</title><desc>9927137811</desc></polyline><polyline fill="none" stroke="#4dd2ff" stroke-linecap="round" stroke-linejoin="round" stroke-width=".5" points="135.527 205.636 135.136 207.525 134.744 208.61 134.44 209.932 132.656 213.661 131.743 215.219 131.569 215.879 131.656 216.399 131.873 217.154 132.526 218.759 132.743 219.184 133.004 219.939 133.874 221.025 134.266 221.874 134.701 222.535 135.049 223.479 135.571 224.187 136.223 225.273"><title>2023-09-26 1.0km</title><desc>9920397094</desc></polyline><polyline fill="none" stroke="#4dd2ff" stroke-linecap="round" stroke-linejoin="round" stroke-width=".5" points="156.402 205.636 155.546 208.489 154.69 210.015 153.895 211.01 153.467 211.806 153.284 212.602 153.345 213.597 153.651 214.393 154.384 215.521 154.69 216.649 155.301 218.108 156.463 219.568 158.419 223.548 159.703 225.273"><title>2023-09-25 1.0km</title><desc>9914573673</desc></polyline><polyline fill="none" stroke="#4dd2ff" stroke-linecap="round" stroke-linejoin="round" stroke-width=".5" points="180.539 205.636 180.056 206.369 179.96 206.736 180.056 207.207 180.104 207.679 179.139 209.459 178.898 210.663 178.56 211.554 176.533 215.114 176.485 215.533 176.678 216.371 177.209 217.209 177.498 217.942 177.933 218.675 178.174 219.408 178.801 220.403 179.284 221.398 179.815 221.974 179.96 222.497 180.297 222.916 181.021 224.173 181.552 224.749 181.697 225.273"><title>2023-09-24 1.0km</title><desc>9907510217</desc></polyline><polyline fill="none" stroke="#4dd2ff" stroke-linecap="round" stroke-linejoin="round" stroke-width=".5" points="21.641 227.455 21.231 228.09 20.938 228.726 20.763 229.552 20.704 230.632 19.709 231.967 19.123 233.492 18.596 234.254 18.244 235.271 18.186 236.351 19.416 239.465 19.884 240.418 21.407 242.833 22.051 244.422 22.871 245.439 23.339 246.265 23.632 247.091"><title>2023-09-23 1.0km</title><desc>9901004991</desc></polyline><polyline fill="none" stroke="#4dd2ff" stroke-linecap="round" stroke-linejoin="round" stroke-width=".5" points="44.261 227.455 43.87 228.182 43.479 229.455 42.585 231.333 41.691 232.606 40.909 234.727 40.854 235.879 40.965 236.546 42.082 239.212 42.25 240 42.473 240.424 43.255 241.394 43.87 242.606 44.372 243.879 45.21 245.091 46.159 247.091"><title>2023-09-22 1.0km</title><desc>9895405405</desc></polyline><polyline fill="none" stroke="#4dd2ff" stroke-linecap="round" stroke-linejoin="round" stroke-width=".5" points="67.145 227.455 66.985 228.034 66.664 228.381 65.97 229.656 65.704 230.582 64.903 232.61 64.049 234.348 63.515 235.622 63.355 236.259 63.355 236.665 63.515 237.244 63.835 237.823 64.529 239.619 65.223 240.893 65.597 241.82 66.291 242.978 66.718 243.5 67.038 244.426 67.892 245.932 68.853 247.091"><title>2023-09-21 1.0km</title><desc>9889267953</desc></polyline><polyline fill="none" stroke="#4dd2ff" stroke-linecap="round" stroke-linejoin="round" stroke-width=".5" points="90.701 227.455 90 229.557 89.588 231.212 88.928 232.599 88.145 234.924 86.785 237.474 86.414 238.861 86.455 239.174 86.702 239.845 87.238 241.008 87.568 241.992 88.392 243.155 88.887 244.094 89.175 244.765 89.505 245.346 90.041 245.749 90.701 246.733 90.742 246.912 90.989 247.091"><title>2023-09-20 1.0km</title><desc>9882714971</desc></polyline><polyline fill="none" stroke="#4dd2ff" stroke-linecap="round" stroke-linejoin="round" stroke-width=".5" points="112.927 227.455 112.508 228.515 111.717 230.837 111.671 231.594 111.392 231.998 111.066 232.755 110.88 233.462 110.508 234.421 109.438 236.137 109.159 237.147 109.066 238.055 109.159 238.964 109.438 239.973 109.764 240.68 110.787 242.447 111.299 243.154 111.764 244.416 112.229 245.223 112.694 245.879 113.206 246.384 113.532 247.091"><title>2023-09-19 1.0km</title><desc>9876194288</desc></polyline><polyline fill="none" stroke="#4dd2ff" stroke-linecap="round" stroke-linejoin="round" stroke-width=".5" points="133.752 227.455 133.405 228.019 132.827 229.148 132.653 229.901 131.612 231.721 130.803 233.415 130.63 234.042 130.687 234.732 131.034 235.61 131.555 236.551 132.017 237.869 132.653 239.249 133.347 240.504 133.983 241.319 134.734 242.574 135.197 244.017 136.006 245.272 136.411 246.401 137.163 247.091"><title>2023-09-18 1.0km</title><desc>9870505463</desc></polyline><polyline fill="none" stroke="#4dd2ff" stroke-linecap="round" stroke-linejoin="round" stroke-width=".5" points="156.691 227.455 156.409 228.005 156.014 229.84 155.507 230.697 155.281 231.37 154.041 233.388 153.59 234.489 153.308 235.468 153.534 236.141 154.774 238.833 155.394 239.811 155.845 240.851 156.578 241.83 156.973 242.503 157.48 244.093 159.679 247.091"><title>2023-09-16 1.0km</title><desc>9856514700</desc></polyline><polyline fill="none" stroke="#4dd2ff" stroke-linecap="round" stroke-linejoin="round" stroke-width=".5" points="178.819 227.455 178.216 229.287 177.432 230.531 175.803 233.673 175.743 234.393 175.803 235.244 176.165 236.095 176.769 237.011 177.311 238.255 178.277 239.891 179.483 242.182 179.604 243.033 180.026 243.36 180.508 244.015 181.293 245.324 182.137 246.044 182.318 246.502 182.439 247.091"><title>2023-09-15 1.0km</title><desc>9850671982</desc></polyline><polyline fill="none" stroke="#4dd2ff" stroke-linecap="round" stroke-linejoin="round" stroke-width=".5" points="21.408 249.273 20.41 251.914 19.287 253.539 18.787 254.419 18.039 256.315 17.851 256.992 17.851 257.534 18.039 258.211 18.787 260.242 19.474 261.596 21.159 264.508 21.845 265.794 21.97 266.539 22.469 267.013 23.28 268.3 23.967 268.909"><title>2023-09-14 1.0km</title><desc>9844236351</desc></polyline><polyline fill="none" stroke="#4dd2ff" stroke-linecap="round" stroke-linejoin="round" stroke-width=".5" points="40.386 249.273 40.745 249.565 40.88 249.857 40.969 250.491 41.239 251.027 41.418 252.537 41.418 253.268 41.329 253.658 41.418 254.145 41.643 254.73 41.553 255.217 41.598 255.461 42.047 256.289 42.451 257.507 42.81 258.19 43.26 258.823 43.753 259.262 43.888 259.554 44.023 260.187 44.382 260.821 44.786 261.99 45.325 263.013 45.595 263.89 45.729 264.621 45.999 265.206 46.493 266.814 47.166 268.081 47.211 268.276 47.166 268.422 46.627 268.909 46.897 268.714 47.031 268.422 47.121 268.178 47.076 267.837 46.807 267.496 45.999 265.742 45.595 264.426 44.741 262.526 44.337 260.675 44.113 260.139 43.26 259.018 42.406 257.41 42.002 256.094 41.868 255.217 41.508 254.292 40.79 252.732 40.61 252.001 39.982 250.832 39.847 250.199 39.802 249.419"><title>2023-09-13 1.0km</title><desc>9837636972</desc></polyline></svg>