<?xml version="1.0" encoding="utf-8" ?>
<svg baseProfile="full" height="300mm" version="1.1" viewBox="0,0,200,300" width="200mm" xmlns="http://www.w3.org/2000/svg" xmlns:ev="http://www.w3.org/2001/xml-events" xmlns:xlink="http://www.w3.org/1999/xlink"><defs /><rect fill="#222222" height="300" width="200" x="0" y="0" /><text fill="#FFFFFF" style="font-size:12px; font-family:Arial; font-weight:bold;" x="10" y="20">Over 1km Runs</text><text fill="#FFFFFF" style="font-size:4px; font-family:Arial" x="10" y="280">ATHLETE</text><text fill="#FFFFFF" style="font-size:9px; font-family:Arial" x="10" y="290">Jiakai</text><text fill="#FFFFFF" style="font-size:4px; font-family:Arial" x="120" y="280">STATISTICS</text><text fill="#FFFFFF" style="font-size:3px; font-family:Arial" x="120" y="285">Number: 91</text><text fill="#FFFFFF" style="font-size:3px; font-family:Arial" x="120" y="290">Weekly: 5.7</text><text fill="#FFFFFF" style="font-size:3px; font-family:Arial" x="141" y="285">Total: 94.3 km</text><text fill="#FFFFFF" style="font-size:3px; font-family:Arial" x="141" y="290">Avg: 1.0 km</text><text fill="#FFFFFF" style="font-size:3px; font-family:Arial" x="167" y="285">Min: 1.0 km</text><text fill="#FFFFFF" style="font-size:3px; font-family:Arial" x="167" y="290">Max: 1.5 km</text><polyline fill="none" points="16.3670011209324,31.297521962667815 19.520169959403574,40.52068110543769 22.810433094855398,48.404961237101816 23.495904581155628,49.0 23.6329988790676,48.404961237101816 23.22171598719433,47.36364297999535 19.794358554296196,40.81820166797843 18.560509878210723,37.54547307221219 16.77828401280567,31.0" stroke="#4dd2ff" stroke-linecap="round" stroke-linejoin="round" stroke-width="0.5"><title>2024-01-01 1.0km</title><desc>10470902913</desc></polyline><polyline fill="none" points="50.47387279290706,35.40818125801161 50.248191906139255,35.77552916947752 47.87854259228334,37.48981835064478 46.862978601362556,38.59186046384275 46.18593594012782,39.81635084503796 45.73457416659221,40.42859569785651 45.39605283597484,40.55104464129545 43.92912707105279,40.55104464129545 42.57504174904898,41.040840325760655 40.769594653043896,40.918391417944804 39.866871104575694,40.55104464129545 39.30266888765618,39.69390184734948 38.964147557038814,38.95920767285861 38.85130711365491,37.24492000427563 38.51278578257188,36.510224749101326 37.15870046103373,36.510224749101326 36.030296026263386,36.87757241737563 35.917455582879484,37.00002162193414 36.368817356880754,37.24492000427563 36.5944982431829,37.00002162193414 35.80461513949558,37.00002162193414 35.578934252262115,36.7551232035039 35.35325336502865,35.89797845506109 35.24041292164475,34.42858643166255 35.80461513949558,34.55103581654839 36.25597691396251,35.530630571069196 37.271540904883295,36.63267398066819 38.06142400903627,36.63267398066819 38.73846667027101,36.142876999801956 39.30266888765618,36.26532625826076 39.415509331040084,36.020427731913514 38.39994533965364,33.081642604316585 38.174264452420175,32.959193111164495 36.933019573800266,32.83674360951409 35.69177469564602,32.959193111164495 36.48165780026466,32.959193111164495 35.35325336502865,31.734697686857544 35.24041292164475,31.0 35.578934252262115,31.489798494149 35.917455582879484,33.081642604316585 36.25597691396251,33.81633937230799 36.5944982431829,35.40818125801161 35.917455582879484,39.571452840580605 36.70733868703246,43.36736785795074 37.3843813482672,44.46940608078148 37.4972217916511,46.306134830927476 38.51278578257188,49.0" stroke="#4dd2ff" stroke-linecap="round" stroke-linejoin="round" stroke-width="0.5"><title>2023-12-31 1.5km</title><desc>10466792666</desc></polyline><polyline fill="none" points="63.327466767281294,35.273397946031764 64.64021718828008,39.935274790157564 66.43033139873296,43.6906666085124 67.9817637144588,48.093529578414746 68.4591275039129,49.0 68.69780939863995,49.0 68.81715034553781,47.964033765834756 68.33978655654937,46.539579198579304 66.19164950400591,42.13671234436333 66.19164950400591,40.97124574659392 64.64021718828008,37.604337910655886 64.40153529355302,35.01440442644525 63.92417150456458,33.46044250787236 62.61142108310014,31.0" stroke="#4dd2ff" stroke-linecap="round" stroke-linejoin="round" stroke-width="0.5"><title>2023-12-30 1.0km</title><desc>10458865202</desc></polyline><polyline fill="none" points="89.55019086319953,31.0 87.28358345059678,31.2236037919065 85.73816930502653,32.22982044820674 84.60486559849232,33.347838174086064 84.08972754981369,34.68945835984778 83.67761711124331,39.94412601995282 84.19275515945628,45.19877551647369 84.39881037874147,45.981381334131584 84.70789320766926,46.65218599990476 86.3563349628821,48.44099699554499 88.21083193738014,49.0 89.65321847284213,48.776398822665215 91.4046878372319,47.65839244390372 92.43496393412352,46.763986748992465 93.46524003101513,43.74536364292726 93.3622124218382,41.39754152763635 93.05312959244475,39.385119685321115 92.84707437362522,34.46585507784039 92.53799154423177,33.236036438611336 91.91982588591054,32.453424059203826 91.19863261794671,31.894414970069192 89.55019086319953,31.559009417891502 87.28358345059678,31.670811276882887 85.63514169491827,32.565225852420554 84.81092081777751,33.57144162070472 84.19275515945628,35.13666482537519 84.19275515945628,35.91927582339849 84.50183798838407,37.81990085518919 84.29578276956454,39.385119685321115" stroke="#4dd2ff" stroke-linecap="round" stroke-linejoin="round" stroke-width="0.5"><title>2023-12-29 1.0km</title><desc>10454615358</desc></polyline><polyline fill="none" points="108.91517773317173,32.90909918991383 110.67455331981182,39.18183983606286 113.43928638473153,47.63636975153349 114.31897417875007,49.0 114.44464386301115,49.0 114.44464386301115,47.63636975153349 112.55959859164432,41.909111761138774 111.05156237445772,38.22729371488094 110.0462048961781,36.318199999048375 108.41249899379909,31.0" stroke="#4dd2ff" stroke-linecap="round" stroke-linejoin="round" stroke-width="0.5"><title>2023-12-27 1.0km</title><desc>10441997651</desc></polyline><polyline fill="none" points="130.892633295618,33.318191617610864 132.90334795648232,37.27274710254278 133.90870528668165,41.36365769722033 135.2910716161132,43.9545630736975 136.92477727867663,48.18182197120041 137.4274559430778,49.0 137.6787952762097,48.86363702046219 136.799107611645,46.272738500731066 135.5424109492451,44.363653065636754 131.52098162751645,34.818196414853446 131.2696422948502,32.227278276346624 130.892633295618,31.0" stroke="#4dd2ff" stroke-linecap="round" stroke-linejoin="round" stroke-width="0.5"><title>2023-12-17 1.0km</title><desc>10391591057</desc></polyline><polyline fill="none" points="154.22236489783973,34.16902771452442 155.62420117575675,37.84509256517049 157.96059497166425,42.408472511102445 160.06334938760847,48.492960318690166 160.53062814706936,49.0 160.647447837051,48.87324009358417 160.647447837051,48.366200375021435 160.06334938760847,46.71832025947515 156.90921776322648,40.50706566812005 155.5073814857751,36.704245691304095 154.45600427733734,32.39437291189097 153.63826644886285,31.0" stroke="#4dd2ff" stroke-linecap="round" stroke-linejoin="round" stroke-width="0.5"><title>2023-12-16 1.0km</title><desc>10386207035</desc></polyline><polyline fill="none" points="177.56786756357178,34.383472079527564 178.0667665246874,36.684229540871456 179.8129128892906,41.96242696943227 180.81071081198752,43.58648467215244 182.18268295563757,48.05263596656732 182.5568571765907,49.0 182.80630665738136,49.0 182.80630665738136,47.64662266056985 180.93543555215,41.96242696943227 178.3162160050124,37.90227644436527 178.19149126531556,36.27821372705512 177.4431428234093,34.383472079527564 177.69259230373427,33.16542284714524 177.19369334261864,31.0" stroke="#4dd2ff" stroke-linecap="round" stroke-linejoin="round" stroke-width="0.5"><title>2023-12-14 1.0km</title><desc>10376526598</desc></polyline><polyline fill="none" points="23.863534794654697,52.565225852653384 22.9362864443101,51.7826131277252 21.39087252598256,51.111801900318824 19.948486202862114,51.0 18.506099879276007,51.33540567557793 16.65160317765549,52.34162225795444 15.827382421586663,53.459639901760966 15.209216854069382,55.360268009011634 15.209216854069382,59.60872224404011 15.415272043086588,60.95033690426499 15.827382421586663,62.62735356413759 15.518299637828022,64.63977111433633 15.621327232103795,65.42237722000573 15.724354826379567,65.86958052788395 16.754630772396922,67.65839244425297 18.403072284534574,68.88819941575639 18.91821025684476,69.0 19.948486202862114,69.0 20.978762147482485,69.0 22.833258849568665,68.32919637009036 23.863534794654697,67.32299037033226 24.481700362171978,66.20498292252887 24.687755551189184,63.745363643043675 24.790783145930618,62.0683482165914 24.481700362171978,60.05592726240866 24.687755551189184,57.37269517919049 24.58472795644775,55.02486322144978 24.481700362171978,54.242251763120294 23.760507200378925,52.67702763737179 23.451424416620284,52.34162225795444 22.31812087725848,51.55900941800792 20.051513797137886,51.33540567557793 18.60912747355178,51.55900941800792 17.784906717482954,51.89441497018561 16.239492799621075,53.57144162082113 15.621327232103795,55.91927582328208 15.827382421586663,57.48449661070481" stroke="#4dd2ff" stroke-linecap="round" stroke-linejoin="round" stroke-width="0.5"><title>2023-12-13 1.0km</title><desc>10373769329</desc></polyline><polyline fill="none" points="40.69074929691851,53.552249595173635 41.92868847446516,58.65673809009604 43.16662765154615,61.34330525412224 45.64250600617379,68.328361393651 46.137681677006185,69.0 46.38526951242238,69.0 46.50906343013048,68.46268913464155 46.013887759298086,67.65672254085075 44.03318507550284,64.29852457169909 41.18592496775091,58.52240962779615 40.81454321462661,56.776138724409975 39.45281011983752,53.82090723980218 39.205222284421325,51.0" stroke="#4dd2ff" stroke-linecap="round" stroke-linejoin="round" stroke-width="0.5"><title>2023-12-12 1.0km</title><desc>10365882163</desc></polyline><polyline fill="none" points="62.20969605119899,51.0 63.49471226101741,53.788744695833884 65.24700709292665,58.225374688743614 66.53202330274507,60.63382618967444 68.40113779017702,66.46480010182131 68.63477710122243,67.98592048813589 69.10205572284758,69.0 69.21887537790462,68.11268045951147 68.98523606732488,67.09860042587388 66.53202330274507,61.52114957885351 64.77972847083583,58.09861399035435 64.31244984967634,56.704245691536926 63.96199088310823,53.788744695833884 63.02743363985792,51.126761220628396" stroke="#4dd2ff" stroke-linecap="round" stroke-linejoin="round" stroke-width="0.5"><title>2023-12-11 1.0km</title><desc>10361067591</desc></polyline><polyline fill="none" points="88.93204571586102,61.04350078164134 91.3361600106582,68.34782927564811 91.4563657254912,68.73913173889741 91.93718858482316,69.0 92.05739429872483,68.86956587433815 91.69677715515718,67.95652672543656 90.61492572212592,65.86957833555061 89.41286857472733,62.608716561691836 86.04710856219754,55.826104874373414 85.08546284399927,51.0" stroke="#4dd2ff" stroke-linecap="round" stroke-linejoin="round" stroke-width="0.5"><title>2023-12-10 1.0km</title><desc>10355395415</desc></polyline><polyline fill="none" points="108.2572613703087,52.191182031296194 110.33081025443971,55.50001687242184 111.30659796437249,59.60296362906229 113.3801468485035,65.42648490634747 114.11198763130233,68.60294311749749 114.5998814869672,69.0 114.72185495030135,68.86764771549497 114.72185495030135,68.60294311749749 114.47790802270174,67.5441243366804 111.91646528383717,62.382373861270025 111.30659796437249,60.92649284633808 110.94067757297307,58.67649259825703 110.33081025443971,56.95590227597859 109.35502254450694,55.23531030898448 109.23304908024147,53.382363274809904 108.13528790650889,51.0" stroke="#4dd2ff" stroke-linecap="round" stroke-linejoin="round" stroke-width="0.5"><title>2023-12-09 1.0km</title><desc>10350143310</desc></polyline><polyline fill="none" points="132.36690799659118,54.49255117913708 133.10967172170058,57.17912446556147 134.7189931254834,61.07464871532284 136.9472842994146,67.52239474025555 137.93763593258336,69.0 137.81384197901934,67.65672254085075 137.07107825390995,65.37314859370235 135.09037498757243,61.880618212744594 133.85243544634432,58.92539498396218 132.49070195108652,56.77613872475922 132.11932008853182,54.62687993713189 130.6337926387787,51.0" stroke="#4dd2ff" stroke-linecap="round" stroke-linejoin="round" stroke-width="0.5"><title>2023-12-08 1.0km</title><desc>10345303898</desc></polyline><polyline fill="none" points="154.242789093405,51.0 154.47479453776032,51.6293738221284 154.9388054255396,53.26574467681348 155.17081086989492,55.53148635500111 155.63482175720856,57.41960212949198 157.2588598653674,61.44757549010683 158.30288436310366,65.09791816305369 159.3469088608399,67.36364418326411 159.5789143051952,69.0 159.81091974908486,68.87412653130013 160.0429251929745,68.62237956561148 160.0429251929745,68.24475904810242 159.46291158301756,66.7342761453474 157.60686803143471,63.58743248344399 155.4028163133189,57.167853480088525 154.82280270382762,54.52449042350054" stroke="#4dd2ff" stroke-linecap="round" stroke-linejoin="round" stroke-width="0.5"><title>2023-12-07 1.0km</title><desc>10340288256</desc></polyline><polyline fill="none" points="176.65845347428694,51.0 177.3744991584681,52.68346103455406 178.68724957946688,58.25182068638969 180.5967047372833,61.74822356412187 182.14813705300912,66.02159543370362 182.86418273719028,68.74100849858951 183.22220557928085,69.0 183.34154652617872,68.09352957841475 183.10286463191733,66.92806692188606 181.19340947363526,62.91368964756839 179.88065905310214,60.97124574659392 179.16461336892098,59.5467855243478 176.77779442211613,51.38849115080666" stroke="#4dd2ff" stroke-linecap="round" stroke-linejoin="round" stroke-width="0.5"><title>2023-12-06 1.0km</title><desc>10334845031</desc></polyline><polyline fill="none" points="18.34116107597947,74.1034619655693 19.141979867126793,78.20002302597277 19.942798658274114,81.17933391826227 21.88764429371804,86.2689778652275 22.91726845363155,88.62758815078996 23.26047650631517,89.0 22.802865769248456,86.76552767283283 21.65883892448619,84.65518998203333 20.62921476503834,81.67588522285223 19.141979867126793,78.57243717496749 18.455563760362566,76.21381284378003 17.31153691606596,73.73104683100246 16.73952349368483,71.0" stroke="#4dd2ff" stroke-linecap="round" stroke-linejoin="round" stroke-width="0.5"><title>2023-12-05 1.0km</title><desc>10329306344</desc></polyline><polyline fill="none" points="39.551065280567855,72.51049678423442 40.36308433441445,73.7692430865718 41.40710883261636,77.41960212949198 43.49515782808885,82.58044129051268 44.53918232629076,86.10490787529852 45.46720410184935,88.11888552398887 46.16322043398395,89.0 46.16322043398395,88.37063256313559 43.14714966202155,81.44757549010683 41.98712244257331,77.54547644068953 40.711092500481755,74.6503649475053 39.7830707244575,71.0" stroke="#4dd2ff" stroke-linecap="round" stroke-linejoin="round" stroke-width="0.5"><title>2023-12-04 1.0km</title><desc>10324662812</desc></polyline><polyline fill="none" points="62.58801155211404,72.66154566861223 63.86404182296246,77.50771216268186 65.90569025510922,82.07694343582261 67.3093235520646,86.92308570316527 68.33014776837081,88.86153911822475 69.0957659301348,89.0 69.0957659301348,88.44615641166456 68.20254474179819,86.92308570316527 67.0541174984537,83.60001806344371 65.77808722807094,81.66155923262704 64.88486603880301,79.3077136843931 63.3536297143437,73.76924196642358 62.33280549850315,71.0" stroke="#4dd2ff" stroke-linecap="round" stroke-linejoin="round" stroke-width="0.5"><title>2023-12-02 1.0km</title><desc>10313350310</desc></polyline><polyline fill="none" points="85.30401820829138,71.95454984041862 86.5607145014219,73.59091985307168 88.06875005317852,78.77274870162364 89.07410708861426,83.00001940899529 90.70781226968393,87.63636975188274 91.713169304654,89.0 91.83883893396705,88.18182197131682 91.58749967534095,86.54546483117156 90.20513375196606,83.54547299188562 88.06875005317852,80.13638546620496 86.81205376051366,77.54547475650907 85.55535746645182,71.0" stroke="#4dd2ff" stroke-linecap="round" stroke-linejoin="round" stroke-width="0.5"><title>2023-12-01 1.0km</title><desc>10308709030</desc></polyline><polyline fill="none" points="108.1108922380954,71.0 110.5991516308859,79.55001980031375 113.0874110236764,84.65001455100719 114.46977735264227,88.40000255848281 114.88448725175112,89.0 115.02272388478741,88.55000193545129 114.46977735264227,87.05000766995363 112.39622785849497,84.20001552719623 111.84328132774681,82.70001806365326 109.76973183359951,78.65001940354705 108.80207540281117,74.0000110277906 107.83441897248849,71.30000130133703" stroke="#4dd2ff" stroke-linecap="round" stroke-linejoin="round" stroke-width="0.5"><title>2023-11-30 1.0km</title><desc>10303537703</desc></polyline><polyline fill="none" points="132.22646687366068,74.84829198836815 133.02728531183675,77.4551944816485 133.3704932136461,79.56554117088672 134.62892218725756,82.04829860525206 136.00175379542634,85.77242791187018 137.3745854026638,88.75172544328962 137.60339067084715,89.0 137.83219593856484,88.75172544328962 137.60339067084715,87.8827642062679 136.68816959904507,86.2689778652275 135.42974062543362,82.79312512371689 133.5992984813638,79.06898924615234 132.91288267774507,75.09656858979724 131.5400510695763,72.98621631483547 130.73923263233155,71.0" stroke="#4dd2ff" stroke-linecap="round" stroke-linejoin="round" stroke-width="0.5"><title>2023-11-29 1.0km</title><desc>10298007687</desc></polyline><polyline fill="none" points="154.03999388031662,73.33094561949838 155.35274372203276,76.69786162441596 155.5914255110547,79.15829617308918 157.26219803700224,83.17268200626131 158.21692519495264,86.79857102350798 159.05231145815924,88.48201695899479 159.88769772090018,89.0 160.24572040513158,89.0 160.48440219508484,88.61151273362339 160.36506129987538,88.09352957829833 159.88769772090018,87.18705868988764 157.97824340546504,82.13671234436333 156.06878909049556,77.73383448482491 155.71076640626416,75.66188815457281 154.8753801425919,73.20144872169476 153.80131209036335,71.0" stroke="#4dd2ff" stroke-linecap="round" stroke-linejoin="round" stroke-width="0.5"><title>2023-11-28 1.0km</title><desc>10292316108</desc></polyline><polyline fill="none" points="179.5773650407791,71.0 180.6339524402283,73.8662559457589 181.26790487999097,76.61785669741221 182.11317479936406,77.87900541932322 183.06410345900804,79.71340173971839 184.01503211865202,82.69429115857929 184.8603020380251,84.07008435309399 184.8603020380251,84.75798049510922 184.33200833853334,85.21657775470521 182.6414684993215,86.13377186935395 181.5848810998723,87.05096544418484 180.5282937004231,87.62421115464531 178.94341260101646,88.31210572912823 176.40760284243152,89.0 175.9849678822793,88.8853509761393 175.66799166239798,88.54140385333449 175.13969796244055,86.36307031358592" stroke="#4dd2ff" stroke-linecap="round" stroke-linejoin="round" stroke-width="0.5"><title>2023-11-27 1.0km</title><desc>10287544518</desc></polyline><polyline fill="none" points="18.259959042072296,94.90211396722589 18.839972694404423,96.2867329143919 20.232005461119115,103.33568474079948 21.740040957462043,106.98602338775527 22.552060071378946,108.370632563252 23.132073723711073,109.0 23.24807645427063,108.8741265310673 22.90006826305762,108.24475904798601 22.90006826305762,107.23777059407439 21.972046418581158,105.09791816282086 20.9280218440108,101.57344950502738 19.883997269440442,99.43358999444172 19.187980886083096,95.40561189572327 17.21593446750194,92.25874741270673 16.751923545263708,91.0" stroke="#4dd2ff" stroke-linecap="round" stroke-linejoin="round" stroke-width="0.5"><title>2023-11-26 1.0km</title><desc>10281488289</desc></polyline><polyline fill="none" points="39.57959640165791,91.0 40.91737046465278,94.48388377402443 42.12136712204665,99.41937526513357 43.32536377990618,102.17743866576348 43.59291859250516,103.91937146021519 44.26180562470108,105.51614183862694 45.73335709469393,108.27419672347605 46.40224412642419,109.0 46.66979893902317,109.0 44.66313784336671,104.64517633756623 44.39558303030208,103.19356631604023 43.05780896730721,101.30647169239819 40.38226083992049,94.04839863895904 39.04448677552864,91.58064772281796" stroke="#4dd2ff" stroke-linecap="round" stroke-linejoin="round" stroke-width="0.5"><title>2023-11-25 1.0km</title><desc>10275889695</desc></polyline><polyline fill="none" points="62.226069944910705,91.16822495521046 63.15626081638038,95.37384479888715 67.49715155176818,107.14953924051952 68.58237423468381,108.83177635679021 69.04746967088431,109.0 69.20250148326159,108.49532903218642 67.65218336321414,106.4766440478852 65.79180162027478,100.92525115737226 64.55154712405056,98.40188630030025 63.776388064958155,93.52337301988155 62.846197192557156,91.0" stroke="#4dd2ff" stroke-linecap="round" stroke-linejoin="round" stroke-width="0.5"><title>2023-11-24 1.0km</title><desc>10271180196</desc></polyline><polyline fill="none" points="86.33331297384575,93.00000823463779 86.72827454982325,94.14286915806588 87.64985156012699,99.00002058548853 89.88796715857461,105.85715487215202 90.9411980281584,108.71428701689001 91.33615960367024,109.0 91.86277503846213,109.0 91.99442889774218,108.71428701689001 91.7311211801134,107.28572146955412 90.28292873455212,103.14287544379476 86.46496683219448,94.85715689428616 85.14842824544758,91.0" stroke="#4dd2ff" stroke-linecap="round" stroke-linejoin="round" stroke-width="0.5"><title>2023-11-23 1.0km</title><desc>10265414399</desc></polyline><polyline fill="none" points="109.85150689166039,95.0563544301549 109.96832648711279,96.83100649237167 110.43560486845672,99.61974175705109 112.30471839383245,104.94367837370373 112.88881637016311,107.47888050868642 113.82337313285097,109.0 114.52429070463404,109.0 114.4074711096473,108.23944042192306 113.12245556060225,104.94367837370373 112.07107920292765,103.29579498723615 110.55242446390912,98.60565672838129 108.80013053352013,93.78874469583388 108.33285215264186,91.0" stroke="#4dd2ff" stroke-linecap="round" stroke-linejoin="round" stroke-width="0.5"><title>2023-11-21 1.0km</title><desc>10253878272</desc></polyline><polyline fill="none" points="132.3483841549605,95.86133173853159 132.95379982050508,99.8029423590051 135.496545617003,106.24088767752983 136.58629381563514,108.60584135761019 136.94954321533442,109.0 137.19170948164538,108.86861379561014 137.31279261456802,108.60584135761019 136.8284600819461,106.50366046302952 134.6489636846818,101.77374440978747 133.80138175329193,99.27739477856085 132.46946728788316,94.15329776948784 131.74296848895028,92.83942437497899 131.25863595632836,91.0" stroke="#4dd2ff" stroke-linecap="round" stroke-linejoin="round" stroke-width="0.5"><title>2023-11-20 1.0km</title><desc>10248671423</desc></polyline><polyline fill="none" points="153.93828088743612,92.50000667187851 155.69765608618036,96.31819999893196 156.20033471519127,100.27274908765685 157.582700942643,103.40910961094778 158.9650671700947,107.36364358162973 159.59341545542702,108.31818500091322 160.34743339801207,109.0 160.221763741225,107.90909588139039 158.08537957118824,102.3182022041874 156.70301334373653,97.27274710254278 155.32064711581916,94.00001213059295 154.5666291732341,91.0" stroke="#4dd2ff" stroke-linecap="round" stroke-linejoin="round" stroke-width="0.5"><title>2023-11-19 1.0km</title><desc>10242265034</desc></polyline><polyline fill="none" points="176.50164541276172,107.03792825492565 177.2877925108187,104.56400697666686 177.602251350414,103.9668527743197 178.1525543187745,103.62562166358111 180.82545445347205,103.2843904523179 182.7908221995458,102.85785129718715 183.4197398778051,102.34600410389248 183.81281342729926,101.83415668504313 184.28450168622658,99.70145667501492 184.12727226642892,99.01899184362264 184.44173110602424,98.50714295677608 184.20588697632775,94.5829606532352 184.04865755699575,94.07110980903963 183.97004284663126,92.53555592079647 183.81281342729926,91.5971608775435 182.94805161934346,91.34123482485302 182.24051923071966,91.85308687353972 182.39774865005165,91.5971608775435 182.5549780698493,91.85308687353972 181.53298684209585,91.34123482485302 181.45437213266268,91.0 181.21852800250053,91.17061742488295 181.3757574222982,91.0853087156429 180.82545445347205,91.76777821453288 180.90406916337088,91.6824695491814 182.5549780698493,92.53555592079647 182.16190452082083,92.87679029384162 181.53298684209585,93.13271600776352 180.03930735541508,93.38864166522399 179.96069264505059,93.04740744258743 180.35376619407907,92.87679029384162 180.90406916337088,92.96209887135774 182.5549780698493,91.34123482485302 184.83480465505272,91.4265435153502 184.5989605258219,91.25592612795299 184.28450168622658,91.17061742488295 184.04865755699575,95.26542809442617 184.12727226642892,96.45974515046692 184.36311639565974,97.90998563647736 184.52034581592306,100.38392110483255 184.52034581592306,101.23700107744662 184.28450168622658,102.0900804225821 183.81281342729926,102.60192772879964 179.88207793561742,103.02846697799396 178.07393960934132,103.36969826457789 177.1305630914867,104.05216053628828 176.02995715336874,105.58769917994505 175.40103947510943,107.80569585470948 175.16519534541294,109.0" stroke="#4dd2ff" stroke-linecap="round" stroke-linejoin="round" stroke-width="0.5"><title>2023-11-18 1.0km</title><desc>10236386505</desc></polyline><polyline fill="none" points="16.326857612468302,111.0 18.933603823184967,115.50001736893319 19.88151153549552,118.84287991863675 20.236976928077638,120.77145155961625 20.947907712776214,121.92859352345113 23.1991885304451,128.48571685689967 23.673142387531698,129.0 23.673142387531698,128.48571685689967 23.1991885304451,127.84286271536257 21.895815425552428,123.98573290230706 21.184884640853852,122.70002107415348 20.947907712776214,120.51430879719555 19.88151153549552,117.81430750666186 18.696626894641668,115.24287383153569 18.57813843060285,113.82858369813766" stroke="#4dd2ff" stroke-linecap="round" stroke-linejoin="round" stroke-width="0.5"><title>2023-11-17 1.0km</title><desc>10231268371</desc></polyline><polyline fill="none" points="39.646485812496394,111.58064772293437 41.38559171138331,114.04839863884263 41.78692384203896,117.38711555744521 42.9909202340059,120.00002051191404 44.863803510088474,126.96775015315507 46.06779990205541,129.0 45.934022524859756,127.8387146294117 44.99758088728413,125.95162444526795 44.32869400270283,124.0645324572688 43.25847498746589,119.56453659269027 41.11803695792332,115.06453047250398 40.449150073342025,113.03226628201082 40.04781794268638,111.0" stroke="#4dd2ff" stroke-linecap="round" stroke-linejoin="round" stroke-width="0.5"><title>2023-11-16 1.0km</title><desc>10225818993</desc></polyline><polyline fill="none" points="62.59281324315816,111.19354904140346 63.4846625206992,114.67742935777642 64.91162136476487,118.54840207961388 66.87368977535516,122.22582089412026 67.587169197388,125.12904264521785 68.83575818594545,127.64516557333991 70.08434717450291,129.0 66.87368977535516,123.00001367391087 65.4467309312895,118.54840207961388 61.344224254600704,111.0" stroke="#4dd2ff" stroke-linecap="round" stroke-linejoin="round" stroke-width="0.5"><title>2023-11-15 1.0km</title><desc>10219684298</desc></polyline><polyline fill="none" points="85.39094816055149,113.16542284714524 87.01236954657361,115.19550445268396 87.26181899057701,117.7669379391009 89.13268982060254,122.23310335271526 90.25521231815219,126.02256853983272 91.3777348161675,128.86466231115628 91.87663370417431,129.0 91.75190898170695,127.37594707356766 90.13048759615049,125.21054094214924 89.50686398614198,123.31580848805606 88.50906621012837,122.09776516607963 88.13489204412326,120.60904445615597 86.2640212145634,116.81956812529825 85.64039760455489,114.11279454140458 85.26622343854979,111.0" stroke="#4dd2ff" stroke-linecap="round" stroke-linejoin="round" stroke-width="0.5"><title>2023-11-14 1.0km</title><desc>10213806154</desc></polyline><polyline fill="none" points="109.02445660345256,113.47827171022072 109.98610253399238,117.1304552895017 112.63062884099782,123.91306199040264 113.23165754694492,126.13044701842591 114.4337149602361,128.60869759391062 114.7943321838975,129.0 114.07309773610905,127.695658311015 112.39021735824645,123.65219298156444 112.27001161733642,122.60871656169184 111.0679542045109,119.73915324313566 109.26486808620393,116.47828020178713 108.54363363841549,114.26088311010972 108.06281067337841,111.0" stroke="#4dd2ff" stroke-linecap="round" stroke-linejoin="round" stroke-width="0.5"><title>2023-11-13 1.0km</title><desc>10208522228</desc></polyline><polyline fill="none" points="132.27499992074445,113.04546334268525 133.5316963987425,116.86365554714575 135.03973217261955,120.00002183520701 135.9194197077304,123.68183636269532 136.7991072423756,126.27273850084748 137.93013407289982,128.72727403056342 138.43281266326085,129.0 138.68415195960552,128.45454802096356 137.3017858332023,125.72728572005872 136.54776794696227,122.7272925573634 133.7830356946215,120.13638546643779 132.27499992074445,117.95456616173033 132.02366062486544,115.63638033857569 129.88727661175653,111.0" stroke="#4dd2ff" stroke-linecap="round" stroke-linejoin="round" stroke-width="0.5"><title>2023-11-12 1.0km</title><desc>10202270880</desc></polyline><polyline fill="none" points="154.41938995243981,114.35822241124697 157.39044506987557,121.07464871543925 158.3807967756875,124.43285260931589 159.3711484814994,127.11941128061153 159.99011829774827,128.32836139411665 160.60908811353147,129.0 160.73288207687438,128.4626891349908 159.61873640771955,125.10449264734052 157.5142390327528,121.88061821286101 155.28594769490883,116.77613872487564 154.41938995243981,113.14926305413246 153.55283220903948,111.0" stroke="#4dd2ff" stroke-linecap="round" stroke-linejoin="round" stroke-width="0.5"><title>2023-11-11 1.0km</title><desc>10196068378</desc></polyline><polyline fill="none" points="178.3266083188355,113.68422009726055 180.3637807997875,119.84212411462795 182.25544096156955,124.89475012186449 183.1285148812458,128.21052947919816 183.71056416165084,129.0 184.00158880185336,128.6842118264176 183.56505184154958,126.78948180971202 181.38236704096198,121.89475486346055 179.19968223944306,117.31580665381625 176.2894358378835,112.73684868169948 175.99841119768098,111.0" stroke="#4dd2ff" stroke-linecap="round" stroke-linejoin="round" stroke-width="0.5"><title>2023-11-10 1.0km</title><desc>10191120477</desc></polyline><polyline fill="none" points="15.821245764847845,131.54962088621687 17.97393734101206,133.1984825761756 19.2402265034616,135.39696256595198 19.62011325219646,136.22139189543668 19.62011325219646,137.45803520805202 21.01303132995963,141.71757813193835 21.519546994939446,144.19085666537285 22.532578324899077,146.93894008581992 22.785836156923324,148.31298028095625 23.418980738613755,149.0 23.798867486417294,148.86259607644752 24.178754235152155,148.31298028095625 22.785836156923324,147.35115225065965 20.506515665445477,144.0534523880342 17.847308425232768,136.77101124660112 17.214163843542337,132.64886217436288 16.581019262317568,131.0" stroke="#4dd2ff" stroke-linecap="round" stroke-linejoin="round" stroke-width="0.5"><title>2023-11-09 1.0km</title><desc>10185506531</desc></polyline><polyline fill="none" points="39.34573483513668,132.44526216865052 40.677648223005235,135.07300857105292 41.16198036307469,136.38688032352366 42.736059822142124,139.80294235935435 43.34147499781102,142.16790455882438 43.22039196267724,140.72265025309753 43.46255803341046,141.64235767372884 43.946890173945576,145.18979614810087 45.03663749108091,148.47445512423292 45.52096963254735,149.0 46.126384808681905,148.73722758109216 46.36855087894946,148.34306888096035 45.03663749108091,147.16059225820936 44.067973209545016,145.58395554404706 43.46255803341046,143.87593086762354 42.614976786542684,140.98542385036126 41.40414643427357,139.2773947789101 40.07223304640502,136.38688032352366 39.70898394053802,134.2846850559581 39.8300669756718,131.65693749429192 39.58790090540424,131.0" stroke="#4dd2ff" stroke-linecap="round" stroke-linejoin="round" stroke-width="0.5"><title>2023-11-08 1.0km</title><desc>10179505859</desc></polyline><polyline fill="none" points="64.90226648142561,140.9440793383401 68.96236264659092,149.0 69.19436814170331,148.87412653141655 68.61435440415516,147.4895177630242 67.57032967591658,145.72728680237196 66.87431319011375,143.96505402820185 65.48228021897376,142.45456734951586 65.0182692296803,141.57344950479455 64.67026098631322,138.55247059487738 64.43825549120083,137.6713507422246 63.0462225205265,135.27973742736503 62.234203287400305,131.0" stroke="#4dd2ff" stroke-linecap="round" stroke-linejoin="round" stroke-width="0.5"><title>2023-11-06 1.0km</title><desc>10167691585</desc></polyline><polyline fill="none" points="86.8409848343581,136.0503782769665 87.67637146636844,137.6043379106559 90.77923609735444,144.72663535596803 92.09198651835322,148.7410084985895 92.33066841308028,149.0 92.56935030734167,149.0 92.56935030734167,148.61151273350697 91.61462272843346,146.5395791985793 90.77923609735444,145.37411551410332 90.65989514999092,144.72663535596803 89.94384946580976,143.94965885241982 87.91505336062983,140.45326034456957 85.52823441335931,134.36692046013195 84.57350683491677,131.0" stroke="#4dd2ff" stroke-linecap="round" stroke-linejoin="round" stroke-width="0.5"><title>2023-11-05 1.1km</title><desc>10161301187</desc></polyline><polyline fill="none" points="108.06281141610816,131.0 110.46692571043968,136.3478451555129 111.54877714300528,141.04350078164134 113.23165714927018,144.30436543212272 113.83268572343513,146.9130528375972 114.43371429666877,149.0 114.79433144116774,148.60869759402703 114.67412572586909,148.21739510179032 113.11145143490285,145.34784085466526 112.9912457196042,144.95653764309827 111.54877714300528,142.7391511480091 110.94774856930599,140.65219662082382 109.38507427787408,137.78263013751712 109.02445713384077,135.30436443991493 108.30322284530848,132.69565996550955" stroke="#4dd2ff" stroke-linecap="round" stroke-linejoin="round" stroke-width="0.5"><title>2023-11-04 1.0km</title><desc>10155501797</desc></polyline><polyline fill="none" points="139.11497029382735,133.73419068823569 137.7501805522479,131.91139743244275 136.9103099424392,131.3417740999721 135.2305687223561,131.0 133.6558113284409,131.11392470856663 131.4511509765871,132.139246706618 130.50629654014483,133.05064346885774 129.66642592987046,134.759510952048 129.45645827800035,136.12660358159337 129.14150679903105,140.6835702988319 129.3514744513668,145.46837092377245 129.56144210370257,146.15191266383044 130.61128036677837,147.86076569382567 131.87108628172427,148.77215320582036 133.9707628074102,149.0 135.86047167982906,148.20253607374616 137.6451967265457,146.0379890614422 138.17011585785076,145.01267626299523 138.9050026414916,141.7088859624928 138.9050026414916,139.08863347244915 139.42992177279666,135.6709061722504 139.32493794662878,134.41773760621436 138.17011585785076,133.05064346885774 137.2252614214085,132.36709594738204 135.0206010695547,131.3417740999721 133.86577898077667,131.3417740999721 131.34616715088487,132.139246706618 130.1913450616412,133.16456802631728 129.45645827800035,134.53166206309106 129.24649062519893,135.44305741763674 129.45645827800035,139.20255758613348 129.24649062519893,140.9114182825433" stroke="#4dd2ff" stroke-linecap="round" stroke-linejoin="round" stroke-width="0.5"><title>2023-11-03 1.0km</title><desc>10152446508</desc></polyline><polyline fill="none" points="153.41749703558162,131.0 154.40155442198738,133.13560138468165 155.245032182429,136.94916981831193 156.65082844998688,139.69493475090712 158.7595228496939,145.18645371461753 159.1812617299147,146.10170546243899 159.8841598634608,148.54237481567543 160.3058987436816,149.0 160.86821725033224,149.0 160.86821725033224,148.6949165549595 159.8841598634608,148.23729130346328 159.46242098370567,147.1694986578077 158.47836359636858,146.25424738100264 157.77546546328813,144.2712015635334 156.79140807595104,142.74578041420318 155.6667710626498,140.45764658704866 154.40155442198738,135.72882868233137 153.55807666154578,133.74577280506492" stroke="#4dd2ff" stroke-linecap="round" stroke-linejoin="round" stroke-width="0.5"><title>2023-11-02 1.1km</title><desc>10144903556</desc></polyline><polyline fill="none" points="176.93475404940546,132.30435396311805 177.1751654963009,133.73914221522864 178.13681128481403,135.95653995871544 179.81969141447917,141.9565434876131 182.70462878094986,147.95652672555298 183.54606884531677,149.0 183.06524595152587,147.4347898582928 181.2621600977145,144.6956687872298 180.3005143092014,141.17393548239488 179.09845707379282,139.47828362043947 177.65598839055747,136.34784515528008 176.45393115468323,131.0" stroke="#4dd2ff" stroke-linecap="round" stroke-linejoin="round" stroke-width="0.5"><title>2023-11-01 1.0km</title><desc>10138966680</desc></polyline><polyline fill="none" points="17.380781223531812,151.27067799540237 18.004404742270708,153.3007616904797 19.002202371601015,158.71430726593826 20.623623518273234,162.23310335283168 21.62142114760354,165.48121684766375 23.242842295207083,169.0 23.367566999047995,168.8646623105742 22.245044665876776,167.24060926458333 20.623623518273234,163.45114658481907 19.251651778351516,161.01505931455176 16.88188240956515,153.84211696428247 16.632433001417667,151.0" stroke="#4dd2ff" stroke-linecap="round" stroke-linejoin="round" stroke-width="0.5"><title>2023-10-31 1.0km</title><desc>10133123337</desc></polyline><polyline fill="none" points="40.03097366867587,153.1333426652709 40.64535827515647,156.33335195819382 40.64535827515647,157.5333539872663 41.99700440838933,159.80002232000697 45.683312045410275,167.66667279333342 46.297696651890874,168.8666673231637 46.54345049383119,169.0 43.717281305696815,163.40001914394088 42.48851209366694,159.93335566332098 41.13686595996842,157.1333533989964 39.17083522025496,151.0" stroke="#4dd2ff" stroke-linecap="round" stroke-linejoin="round" stroke-width="0.5"><title>2023-10-30 1.0km</title><desc>10127985445</desc></polyline><polyline fill="none" points="62.8767990199849,153.60527560755145 63.422469538170844,157.27633863000665 63.74987184908241,158.46055072336458 65.93255392229185,163.5526528044138 67.02389495819807,166.5131698701298 68.66090651322156,168.76315920078196 69.09744292823598,169.0 69.2065770314075,168.6447387879016 68.22437009867281,167.10527262999676 66.80562675138935,164.026335900533 64.29554236726835,159.40791977138724 63.313335434067994,155.97370432177559 62.549396708607674,154.43422605399974 62.440262604970485,152.06579507607967 62.22199439769611,151.0" stroke="#4dd2ff" stroke-linecap="round" stroke-linejoin="round" stroke-width="0.5"><title>2023-10-28 1.0km</title><desc>10115543824</desc></polyline><polyline fill="none" points="86.2367667243816,154.73334801755846 87.21978223929182,157.93335448706057 88.32567469216883,160.46668893785682 89.30869020707905,164.06668443838134 90.78321347897872,167.53334001882467 91.39759817486629,168.8666673237458 92.01198287121952,169.0 92.13485981104895,168.8666673237458 91.88910593185574,168.06667105830275 91.15184429613873,166.0666788512608 88.69430551072583,161.26668855571188 86.72827448137105,155.9333511054283 85.49950508866459,153.26667649880983 85.00799733167514,151.0" stroke="#4dd2ff" stroke-linecap="round" stroke-linejoin="round" stroke-width="0.5"><title>2023-10-27 1.0km</title><desc>10110442644</desc></polyline><polyline fill="none" points="108.98910161526874,153.77942351426464 111.30659793829545,161.58825709018856 112.16041237302125,163.9706063530175 113.0142268082127,165.42648490646388 113.99001473328099,168.20588614756707 114.3559352052398,168.7352954216767 115.0877761496231,169.0 115.20974963949993,168.60294311773032 115.0877761496231,168.07353380485438 113.86804124247283,166.48530493315775 112.03843888221309,163.3088429851923 109.84291605046019,156.82354910613503 108.37923416215926,154.44119038514327 107.64739321777597,151.0" stroke="#4dd2ff" stroke-linecap="round" stroke-linejoin="round" stroke-width="0.5"><title>2023-10-26 1.0km</title><desc>10104873905</desc></polyline><polyline fill="none" points="133.38417155807838,159.6087184365606 136.14890259038657,166.52174997131806 137.47116525797173,168.86956587433815 137.95198804559186,169.0 137.83178234938532,167.695658311015 134.58622852806002,162.0869781221263 132.78314307238907,157.52176022727508 131.22046901052818,154.26088311045896 130.61944052530453,151.0" stroke="#4dd2ff" stroke-linecap="round" stroke-linejoin="round" stroke-width="0.5"><title>2023-10-25 1.0km</title><desc>10098978222</desc></polyline><polyline fill="none" points="153.81307073542848,151.0 153.69198759365827,151.91971242427826 154.4184864461422,154.9416213426739 155.38715158309788,156.9124287540326 155.99256729288027,159.27739477867726 157.08231557207182,162.43067794316448 159.38289527082816,166.8978195694508 160.1093941233121,168.737227581325 160.35156040778384,169.0 160.59372669178993,168.8686137953773 160.47264354955405,167.16059225809295 159.14072898682207,164.6642501518363 158.1720638507977,163.2189978651004 156.96123242937028,160.45987661753315 156.71906614582986,159.01462093077134 155.26606844039634,156.78104166104458 154.4184864461422,154.8102341046324 154.17632016167045,152.44526216841768 153.81307073542848,151.0" stroke="#4dd2ff" stroke-linecap="round" stroke-linejoin="round" stroke-width="0.5"><title>2023-10-24 1.0km</title><desc>10092835699</desc></polyline><polyline fill="none" points="178.1502161314711,154.1079268073663 179.9403295526281,160.45326034456957 180.7757158158347,162.0072160938289 181.73044297331944,165.89209946908522 183.16253370977938,168.4820169589948 183.75923818396404,169.0 183.16253370977938,168.35252117482014 182.32714744703844,166.28058733535 180.17901134165004,163.69066660827957 179.7016477631405,162.7841934543103 179.2242841841653,159.80577837780584 177.7921934472397,156.9568548965035 176.83746628975496,153.9784299666062 176.24076181650162,151.0" stroke="#4dd2ff" stroke-linecap="round" stroke-linejoin="round" stroke-width="0.5"><title>2023-10-23 1.0km</title><desc>10087395010</desc></polyline><polyline fill="none" points="14.17224500933662,171.08633225236554 14.490484189707786,171.0 16.75793835008517,171.1726644920418 17.75243578874506,171.43166113487678 17.991115174023435,171.56115941354074 18.50825384235941,171.94965407782 18.86627292004414,172.3813145144959 19.661870870972052,173.8489576249267 20.05966984643601,175.4892602887703 20.576808514771983,176.35257563943742 20.815487899817526,177.04322700586636 21.372406465467066,178.29503053677035 21.770205441163853,179.58999689779012 22.366903904359788,180.62596793007106 22.645363187184557,180.92812580347527 23.00338226510212,181.5324410837493 23.202281752834097,182.82740030408604 23.321621445473284,183.17272228054935 23.639860625611618,183.6475396664464 23.71942042093724,184.38134759839159 23.838760113576427,184.68350353906862 25.589075605617836,188.82734075089684 25.82775499089621,189.0 25.82775499089621,188.78417593060294 25.46973591297865,188.43885725463042 25.071936937747523,187.48922984837554 24.674137962050736,186.6690958525287 23.600080728298053,183.34538319258718" stroke="#4dd2ff" stroke-linecap="round" stroke-linejoin="round" stroke-width="0.5"><title>2023-10-22 1.5km</title><desc>10080655811</desc></polyline><polyline fill="none" points="39.99420001497492,171.0 40.62573152431287,171.45685924118152 39.4889748073183,171.27411558496533 41.257263033417985,173.5584074241924 41.42567143612541,174.10663621604908 41.29936513421126,174.56349317287095 40.70993572543375,174.88329284300562 40.541527322959155,175.2030923484126 40.5836294235196,175.75131968891947 40.92044622846879,177.07620043179486 41.29936513421126,178.03559506835882 41.720386140281335,179.4975269040442 42.47822395153344,180.82239965925692 42.60453025344759,181.3249368618708 43.06765336007811,182.14726958947722 43.362368064699695,182.51275045255898 43.404470165027305,182.74117588269291 43.69918486964889,183.01528628816595 43.90969537268393,183.47213669511257 44.20441007707268,184.3401515429723 44.49912478146143,184.93405574030476 44.45702268090099,186.12186243198812 45.004349988885224,187.1726126128342 45.17275839135982,187.675144680019 45.46747309551574,188.22336101706605 45.972698303172365,188.86294613225618 46.225310907000676,189.0 45.256962592480704,187.62945996341296 45.046452089445665,186.89850404136814 44.62543108314276,185.98480792954797 44.45702268090099,185.3909047365305 43.90969537268393,184.6142612430849 43.44657226582058,183.28939657268347" stroke="#4dd2ff" stroke-linecap="round" stroke-linejoin="round" stroke-width="0.5"><title>2023-10-20 1.4km</title><desc>10069668027</desc></polyline><polyline fill="none" points="62.09230662928894,171.0 62.17803394491784,171.69768395990832 62.86385246971622,173.3721223237808 63.035307101206854,174.39538803097093 64.44980780873448,177.83726962580113 64.57839878206141,178.302387323929 64.66412609792314,179.0000632299343 64.83558072894812,179.46518007316627 65.86430851649493,180.90704011387425 66.42153606796637,182.02331659808988 66.76444533048198,183.13959111261647 67.06449093529955,183.7442389856442 67.23594556655735,184.67446535412455 67.45026385551319,185.13957802538062 68.00749140698463,186.58142513339408 68.09321872261353,187.13955861562863 68.9076282212045,188.81395610782783 69.12194651016034,189.0 69.25053748348728,189.0 69.33626479911618,188.95348903205013 69.29340114141814,188.9069780607242 68.43612798536196,187.83722477586707 68.0503550649155,186.5349139876198 67.23594556655735,185.04655551846372 67.10735459299758,184.44190889014862 67.02162727736868,183.41865943354787" stroke="#4dd2ff" stroke-linecap="round" stroke-linejoin="round" stroke-width="0.5"><title>2023-10-19 1.3km</title><desc>10064004415</desc></polyline><polyline fill="none" points="84.5125664784573,171.0 86.27728912746534,173.29788272990845 86.15964095061645,174.95746281044558 86.39493730384856,176.61704130494036 87.2184745403938,179.55321475525852 88.39495630608872,181.46810780919623 89.5714380722493,184.7872507669963 91.92440160503611,188.61702321912162 92.27734613465145,189.0 92.6302906642668,188.87234108219855 91.10086436802521,187.3404333399376 88.27730812970549,181.8510861665709 87.57141907000914,179.4255551431561 85.57140006730333,175.21278268191963" stroke="#4dd2ff" stroke-linecap="round" stroke-linejoin="round" stroke-width="0.5"><title>2023-10-18 1.0km</title><desc>10058081424</desc></polyline><polyline fill="none" points="108.28683046391234,172.09091406327207 109.2921875724569,177.95456616184674 111.93124998314306,184.9091062474763 113.69062492297962,188.59091103076935 114.44464275473729,189.0 114.82165167061612,189.0 115.07299094740301,188.4545480213128 114.1933034779504,187.36364358162973 113.0622767303139,185.59092249977402 111.55424106726423,182.31820220442023 110.9258928745985,180.4091126989806 108.28683046391234,175.09092442982364 108.03549118712544,174.27274026570376 107.78415190987289,171.0" stroke="#4dd2ff" stroke-linecap="round" stroke-linejoin="round" stroke-width="0.5"><title>2023-10-17 1.0km</title><desc>10051702317</desc></polyline><polyline fill="none" points="130.26621804805472,171.41538655466866 131.5422485996969,173.63077996543143 133.45629442716017,178.61540561076254 134.47711886838078,180.55386757676024 135.62554636457935,184.15386307716835 137.02917997166514,187.75385169649962 137.53959219250828,188.72307822608855 138.1776074678637,189.0 138.30521052330732,188.86153911834117 138.1776074678637,188.44615641143173 136.77397386124358,186.36924150353298 134.85992803424597,181.66155923274346 133.45629442716017,178.75386724586133 132.3078669309616,173.3538559313165 131.66985165467486,171.0" stroke="#4dd2ff" stroke-linecap="round" stroke-linejoin="round" stroke-width="0.5"><title>2023-10-16 1.0km</title><desc>10046279660</desc></polyline><polyline fill="none" points="153.45654666004702,171.0 153.98316244408488,172.14286210003775 154.50977822719142,174.71429936750792 155.69466373929754,178.71430613135453 157.27451108861715,181.14287764916662 159.11766632972285,188.00000437430572 159.7759360591881,188.71428701665718 160.69751367950812,189.0 160.82916762586683,188.71428701665718 160.69751367950812,187.8571478142403 158.98601238429546,185.42858468799386 158.06443476350978,182.57144771213643 157.0112031972967,180.85716351040173 154.50977822719142,175.0000144095393 153.58820060640574,171.0" stroke="#4dd2ff" stroke-linecap="round" stroke-linejoin="round" stroke-width="0.5"><title>2023-10-15 1.0km</title><desc>10039610121</desc></polyline><polyline fill="none" points="176.25423207087442,172.3064571354771 176.65556434867904,176.51614647032693 177.72578375739977,179.5645365928067 179.06355801783502,181.45163288107142 179.86622257437557,184.06453245715238 182.1404388169758,188.12903603585437 182.6755485208705,188.70967872138135 183.34443565178663,189.0 183.74576792959124,188.70967872138135 183.74576792959124,188.2741967231268 181.07021940825507,186.0967852922622 179.3311128700152,182.9032441836316 178.6622257400304,180.1451817966299 177.0568966269493,176.51614647032693 176.25423207087442,173.4677516417578 176.38800949696451,171.5806477224687 176.25423207087442,171.0" stroke="#4dd2ff" stroke-linecap="round" stroke-linejoin="round" stroke-width="0.5"><title>2023-10-14 1.0km</title><desc>10033377496</desc></polyline><polyline fill="none" points="15.91872827988118,191.28571558836848 18.288498955778778,194.1428691581823 18.55180680891499,196.2857315784786 20.789923558477312,203.14287544356193 22.89638638170436,208.14286092377733 23.554656013846397,209.0 24.08127171965316,209.0 24.08127171965316,208.5714305093279 23.949617792852223,208.14286092377733 22.764732454903424,207.2857214693213 21.44819319108501,204.85715762886684 19.99999999953434,200.28573510737624 17.36692147096619,194.42858428391628 16.971959691494703,192.42857752018608 16.313690058887005,191.0" stroke="#4dd2ff" stroke-linecap="round" stroke-linejoin="round" stroke-width="0.5"><title>2023-10-13 1.0km</title><desc>10028006924</desc></polyline><polyline fill="none" points="38.99496006080881,191.0 40.26124950218946,192.6488621745957 41.021023167297244,194.0229128751671 41.147652111481875,195.80917727621272 41.021023167297244,197.73284472187515 42.413941552396864,200.6183421780588 44.06011782633141,205.0152821157826 45.70629410026595,208.03817232279107 46.08618093281984,208.58778819919098 46.71932565327734,209.0 46.71932565327734,208.31298028118908 45.32640726771206,206.5267278305255 44.06011782633141,204.32826093258336 42.413941552396864,199.79391478805337 41.400909999385476,198.007654195535 40.89439422311261,196.4962015914498" stroke="#4dd2ff" stroke-linecap="round" stroke-linejoin="round" stroke-width="0.5"><title>2023-10-12 1.0km</title><desc>10021974100</desc></polyline><polyline fill="none" points="63.60978756612167,193.5522495948244 64.10496360063553,196.23882426461205 63.98116959212348,197.31345302646514 65.09531567059457,200.9403204311384 65.9618737315759,202.5522591888439 66.8284317930229,205.50747655145824 68.06637188000605,208.46268913452514 68.31395989796147,208.73134458682034 68.9329299419187,209.0 68.80913593247533,208.46268913452514 67.44740183651447,204.97016465931665 65.9618737315759,202.41793101315852 63.98116959212348,197.85076717019547 63.485993556678295,196.1044956248952 63.238405539654195,193.5522495948244 62.49564148718491,191.0" stroke="#4dd2ff" stroke-linecap="round" stroke-linejoin="round" stroke-width="0.5"><title>2023-10-10 1.0km</title><desc>10009069592</desc></polyline><polyline fill="none" points="85.5220913044177,193.2500098424498 86.37590573914349,195.6323701395886 87.22972017386928,198.80884563201107 89.05932253412902,202.7794321157271 90.52300442196429,207.80882909044158 91.37681885669008,209.0 91.6207658383064,208.60294311773032 91.7427393286489,207.14706713322084 90.8889248939231,204.63236947765108 89.05932253412902,201.4559042607434 86.98577319271863,195.6323701395886 86.37590573914349,192.98530294792727 85.40011781360954,191.0" stroke="#4dd2ff" stroke-linecap="round" stroke-linejoin="round" stroke-width="0.5"><title>2023-10-09 1.0km</title><desc>10003389142</desc></polyline><polyline fill="none" points="107.7636928493157,191.0 108.66383846569806,192.11628403502982 109.56398408208042,194.20931483071763 110.07835300499573,198.3953694977099 112.00723646814004,202.58141493203584 113.67893546912819,207.3255885966355 114.45048885419965,208.7209315354703 115.09345000842586,209.0 115.09345000842586,207.88372589554638 112.65019762236625,203.97676135855727 109.43539185123518,196.1628081573872 108.14946954185143,191.13953554059844" stroke="#4dd2ff" stroke-linecap="round" stroke-linejoin="round" stroke-width="0.5"><title>2023-10-08 1.0km</title><desc>9996447828</desc></polyline><polyline fill="none" points="131.97518838616088,194.60001482162625 132.56763092475012,196.78573449037503 134.34495853958651,201.54287962068338 134.93740107817575,203.60001945286058 136.83321720035747,208.35714604717214 137.4256597389467,209.0 137.54414824629202,208.48571685678326 137.54414824629202,207.97143356245942 135.29286660114303,203.98573290207423 134.2264700322412,201.67145093088038 132.33065390912816,196.01430433080532 131.73821137053892,193.05715223390143 131.02728032460436,191.0" stroke="#4dd2ff" stroke-linecap="round" stroke-linejoin="round" stroke-width="0.5"><title>2023-10-07 1.0km</title><desc>9989974159</desc></polyline><polyline fill="none" points="155.6722553675063,196.36172163987067 156.6134405033663,199.42555514350533 157.31932935584337,200.9574698683573 158.73110706033185,206.95745619398076 159.08405148610473,208.10638738039415 159.7899403385818,209.0 160.37818104820326,209.0 160.61347733205184,208.48936427361332 160.4958291905932,208.10638738039415 159.08405148610473,206.06384252291173 157.67227378161624,203.00002073205542 157.20168121391907,200.9574698683573 154.7310702316463,194.95746281091124 154.37812580540776,192.78724238602445 153.67223695339635,191.0" stroke="#4dd2ff" stroke-linecap="round" stroke-linejoin="round" stroke-width="0.5"><title>2023-10-06 1.0km</title><desc>9984428862</desc></polyline><polyline fill="none" points="176.12483936548233,191.0 178.16439759451896,196.45903345034458 179.52410308038816,201.0328068000963 181.83560240641236,206.78689395042602 182.78739624656737,208.7049193349667 183.19530789228156,209.0 183.73919008672237,209.0 183.87516063498333,208.7049193349667 183.46724898880348,207.96721748064738 181.83560240641236,205.60656972648576 180.88380856625736,203.6885413810378 179.25216198293492,199.40985615958925 178.57230924023315,197.19673953438178 176.6687215603888,193.65574785752688 176.6687215603888,192.32787436805665" stroke="#4dd2ff" stroke-linecap="round" stroke-linejoin="round" stroke-width="0.5"><title>2023-10-04 1.0km</title><desc>9971682885</desc></polyline><polyline fill="none" points="17.275629504118115,213.10219913115725 17.881045169662684,215.20439578976948 18.486460835207254,216.64965455804486 18.970793368294835,218.8832339918008 21.271372898016125,223.48177109507378 21.392456031404436,225.05840966361575 22.118954830802977,228.21168262825813 22.361121096648276,228.6058413576102 23.087619896046817,229.0 23.087619896046817,227.68613752059173 21.513539165258408,224.79563666554168 20.423790966626257,222.29929125588387 19.818375300150365,221.11681063415017 19.212959634140134,219.40878168831114 18.002128303050995,216.912428754149 17.517795769963413,214.9416213426739 17.275629504118115,212.97081175807398 16.912380104418844,211.0" stroke="#4dd2ff" stroke-linecap="round" stroke-linejoin="round" stroke-width="0.5"><title>2023-10-03 1.0km</title><desc>9965060084</desc></polyline><polyline fill="none" points="39.56688141450286,211.7438048243057 41.21201213542372,217.09919148962945 41.48620058922097,219.47935879125725 42.44586017681286,220.66944139194675 43.13133131060749,222.45456398068927 44.36517935106531,227.06612337986007 45.324838938657194,228.55372094386257 46.01031007245183,229.0 46.147404299583286,228.8512403254863 45.73612161912024,227.6611625365913 44.228085124865174,224.83472498285118 41.76038904255256,218.88431722810492 40.252352548297495,214.42149992857594 39.978164094965905,211.0" stroke="#4dd2ff" stroke-linecap="round" stroke-linejoin="round" stroke-width="0.5"><title>2023-10-02 1.0km</title><desc>9958643020</desc></polyline><polyline fill="none" points="62.86108108609915,214.16801199468318 63.126495469827205,215.46401542495005 66.04605369409546,222.37601923558395 67.50583280576393,226.84000873356126 68.30207595787942,228.4240025616018 69.09831910952926,229.0 69.23102630209178,228.85600065614562 69.09831910952926,228.2800031756051 66.44417526945472,224.2480160703417 63.9227386219427,218.0560197121231 62.72837389400229,214.31201241828967 62.19754512608051,211.0" stroke="#4dd2ff" stroke-linecap="round" stroke-linejoin="round" stroke-width="0.5"><title>2023-10-01 1.0km</title><desc>9952075403</desc></polyline><polyline fill="none" points="85.9870051345788,213.60870696778875 87.06885680602863,215.8261048743734 87.54967977013439,218.04350000969134 87.91029699426144,220.1304576053517 89.71338311303407,225.21740646020044 91.27605774952099,228.47826343949419 91.99729219637811,229.0 92.23770367959514,228.60869759391062 89.83358885487542,224.95653764309827 88.75173718342558,222.47828196594492 88.39111995929852,221.17393548239488 86.70823958190158,217.52176022715867 85.74659365182742,213.47827171022072 84.90515346312895,211.0" stroke="#4dd2ff" stroke-linecap="round" stroke-linejoin="round" stroke-width="0.5"><title>2023-09-30 1.0km</title><desc>9945549317</desc></polyline><polyline fill="none" points="108.64172203559428,211.0 109.83608606131747,213.0160082259681 110.23420740291476,214.60001323360484 111.29586431430653,217.19201866455842 111.8266927707009,221.0800203795079 112.22481411276385,222.23201940534636 113.81729947961867,226.12001111591235 114.21542082168162,228.56800193735398 114.4808350498788,228.85600065637846 114.8789563914761,229.0 115.01166350534186,228.7120013020467 112.62293545436114,224.39201575319748 111.03045008704066,220.64802057005 110.49962163111195,218.48802009352949 108.64172203559428,214.16801199526526 107.84547935146838,211.57600256206933" stroke="#4dd2ff" stroke-linecap="round" stroke-linejoin="round" stroke-width="0.5"><title>2023-09-28 1.0km</title><desc>9933629332</desc></polyline><polyline fill="none" points="130.7669618180953,213.04546334245242 131.77231966610998,216.5909277930623 133.6573656303808,219.1818398362957 134.91406294051558,223.81819972326048 136.6734391739592,226.9545542517444 137.17611809819937,228.72727403056342 137.67879702150822,229.0 137.93013648409396,228.59091103065293 137.67879702150822,228.04545893135946 136.6734391739592,226.6818279812578 133.78303536120802,220.81820347253233 132.27499858941883,216.72729167481884 130.64129208726808,211.0" stroke="#4dd2ff" stroke-linecap="round" stroke-linejoin="round" stroke-width="0.5"><title>2023-09-27 1.0km</title><desc>9927137811</desc></polyline><polyline fill="none" points="158.63817850966007,211.0 158.2793013814371,212.73079315607902 157.92042425344698,213.72599691554205 157.64129759836942,214.93754704669118 156.00641290401109,218.35583575541386 155.1690329387784,219.78372262767516 155.00953199295327,220.38949176907772 155.089282465633,220.86545280006249 155.28865864803083,221.55775906681083 155.88678719452582,223.02890717971604 156.08616337692365,223.4183281234 156.32541479566135,224.11063138698228 157.12291952455416,225.10581590171205 157.4817966525443,225.88465478277067 157.8805490171071,226.49041764438152 158.19955090875737,227.3557920793537 158.67805374599993,228.00482207047753 159.27618229272775,229.0" stroke="#4dd2ff" stroke-linecap="round" stroke-linejoin="round" stroke-width="0.5"><title>2023-09-26 1.0km</title><desc>9920397094</desc></polyline><polyline fill="none" points="179.91593836294487,211.0 179.13136308570392,213.61488918599207 178.34678780846298,215.01354744983837 177.61825362220407,215.92571460851468 177.2259659837,216.65544761100318 177.0578427100554,217.38517996965675 177.11388380080462,218.29734451253898 177.3940892573446,219.02707542252028 178.06658235215582,220.06085977627663 178.34678780846298,221.0946428378229 178.90719872061163,222.43247782281833 179.97197945415974,223.77031064400217 181.76529437373392,227.4189346122439 182.94215728971176,229.0" stroke="#4dd2ff" stroke-linecap="round" stroke-linejoin="round" stroke-width="0.5"><title>2023-09-25 1.0km</title><desc>9914573673</desc></polyline><polyline fill="none" points="21.327048893552274,231.0 20.884699262445793,231.67200891877292 20.79622933617793,232.00801311869873 20.884699262445793,232.4400182645768 20.928934225579724,232.8720231244224 20.04423496313393,234.50403890397865 19.823060147464275,235.60804726480274 19.51341540599242,236.42405224451795 17.65554695483297,239.68806196353398 17.61131199169904,240.07206203386886 17.788251844001934,240.8400614973507 18.274836438475177,241.6080600572168 18.540246217278764,242.2800580559997 18.938360885251313,242.95205536298454 19.15953570092097,243.62405197828775 19.734590221429244,244.53604627848836 20.176939852302894,245.44803930463968 20.663524447008967,245.9760346848634 20.79622933617793,246.45603011449566 21.10587407811545,246.8400262040086 21.769398524891585,247.99201311788056 22.255983119131997,248.5200064406381 22.38868800853379,249.0" stroke="#4dd2ff" stroke-linecap="round" stroke-linejoin="round" stroke-width="0.5"><title>2023-09-24 1.0km</title><desc>9907510217</desc></polyline><polyline fill="none" points="43.528184284921736,231.0 43.15240108524449,231.5825306751649 42.88398451427929,232.1650609219796 42.72293457156047,232.9223496025661 42.669251257088035,233.9126490924391 41.75663491501473,235.13595851819264 41.219801772618666,236.53402412019204 40.73665194446221,237.23305599595187 40.41455205902457,238.16509753774153 40.360868744552135,239.15539047430502 41.4882183438167,242.00975730718346 41.91768485773355,242.8835410165484 43.31345102819614,245.09712210064754 43.90396748459898,246.5534220727859 44.6555338841863,247.4854526500567 45.08500039810315,248.24272668687627 45.35341696953401,249.0" stroke="#4dd2ff" stroke-linecap="round" stroke-linejoin="round" stroke-width="0.5"><title>2023-09-23 1.0km</title><desc>9901004991</desc></polyline><polyline fill="none" points="66.40545876626857,231.0 66.04707273934036,231.6666743136011 65.68868671241216,232.83335294673452 64.86951865069568,234.5555895413272 64.0503505889792,235.7222637136001 63.3335785351228,237.66671666427283 63.28238053107634,238.72227474185638 63.38477653916925,239.33338663936593 64.4087366159074,241.7778292860603 64.5623306275811,242.5000494637643 64.7671226428356,242.88893696578452 65.483894696692,243.77782193332678 66.04707273934036,244.88892667199252 66.50785477389582,246.05558488948736 67.27582483179867,247.16668627905892 68.14619089732878,249.0" stroke="#4dd2ff" stroke-linecap="round" stroke-linejoin="round" stroke-width="0.5"><title>2023-09-22 1.0km</title><desc>9895405405</desc></polyline><polyline fill="none" points="89.52561336080544,231.0 89.3788157007657,231.53097987367073 89.08522038138472,231.84956761042122 88.44909718842246,233.01772144268034 88.20443442207761,233.86728667921852 87.47044612257741,235.72570714971516 86.68752527027391,237.3186351749464 86.19819973711856,238.48678016033955 86.05140207731165,239.07085194438696 86.05140207731165,239.44253374281107 86.19819973711856,239.97350740875117 86.4917950569652,240.5044806843507 87.12791824992746,242.15049535757862 87.76404144242406,243.31863252696348 88.10656931530684,244.16818564524874 88.74269250803627,245.2301256377832 89.13415293418802,245.7079981250572 89.42774825403467,246.55754843255272 90.210669106571,247.93806555081392 91.09145506564528,249.0" stroke="#4dd2ff" stroke-linecap="round" stroke-linejoin="round" stroke-width="0.5"><title>2023-09-21 1.0km</title><desc>9889267953</desc></polyline><polyline fill="none" points="113.26119524077512,231.0 112.61883225501515,232.9271348346956 112.24097167537548,234.4442362957052 111.63639474730007,235.71531812573085 110.9184596457053,237.84744888261775 109.67151973210275,240.18458284673397 109.33144521038048,241.45565159220132 109.36923126806505,241.74266671438818 109.59594761603512,242.3576986216649 110.08716637012549,243.42375232084305 110.38945483393036,244.32579616687144 111.14517599367537,245.39184610371012 111.5986086896155,246.2528849497321 111.86311109527014,246.86791188293137 112.16539955907501,247.4009346763487 112.65661831316538,247.76995015799184 113.26119524077512,248.6719869741064 113.29898129892536,248.83599351116573 113.52569764689542,249.0" stroke="#4dd2ff" stroke-linecap="round" stroke-linejoin="round" stroke-width="0.5"><title>2023-09-20 1.0km</title><desc>9882714971</desc></polyline><polyline fill="none" points="135.77821731264703,231.0 135.39443082013167,231.97173551184824 134.6695007784292,234.10029377049068 134.62685783486813,234.79438729817048 134.371000173036,235.16457019996597 134.07249956787564,235.85866255377186 133.90192779316567,236.50648139341502 133.5607842442114,237.3856630375376 132.5799965406768,238.9589323879336 132.32413887884468,239.88438310968922 132.23885299172252,240.71728759579128 132.32413887884468,241.55019097944023 132.5799965406768,242.47563789068954 132.87849714583717,243.12344991898863 133.81664190581068,244.74297707213555 134.28571428591385,245.39078676642384 134.7121437219903,246.5475881336024 135.13857315829955,247.28793989261612 135.56500259437598,247.889475055621 136.03407497424632,248.35219402058283 136.33257557987235,249.0" stroke="#4dd2ff" stroke-linecap="round" stroke-linejoin="round" stroke-width="0.5"><title>2023-09-19 1.0km</title><desc>9876194288</desc></polyline><polyline fill="none" points="157.01036376459524,231.0 156.69237965717912,231.51757766940864 156.16240614512935,232.5527319808025 156.0034140914213,233.24283409374766 155.04946176940575,234.91057835303945 154.30749885225669,236.46330257016234 154.14850679854862,237.03838483133586 154.20150414993986,237.67097482999088 154.519488257356,238.47608863416826 154.99646441824734,239.33870964730158 155.42044322821312,240.5463774675154 156.0034140914213,241.81155127921375 156.6393823060207,242.96170751401223 157.22235316969454,243.70930815977044 157.91131873545237,244.85946160397725 158.3352975451853,246.18213597405702 159.0772604625672,247.33228578220587 159.44824192114174,248.36741916363826 160.1372074871324,249.0" stroke="#4dd2ff" stroke-linecap="round" stroke-linejoin="round" stroke-width="0.5"><title>2023-09-18 1.0km</title><desc>9870505463</desc></polyline><polyline fill="none" points="180.180867734598,231.0 179.92248525680043,231.5046786859748 179.56074978783727,233.18693856027676 179.0956613277085,233.97199189837556 178.88895534537733,234.58881895412924 177.75207244278863,236.43929712829413 177.3386604783591,237.44864696724107 177.0802780003287,238.3458457023953 177.28698398265988,238.9626692206948 178.42386688501574,241.42995830491418 178.99230833654292,242.3271523566218 179.40572030097246,243.2804198800004 180.0775147434324,244.17761175491614 180.4392502126284,244.79443055659067 180.90433867252432,246.25236392312218 182.91972199990414,249.0" stroke="#4dd2ff" stroke-linecap="round" stroke-linejoin="round" stroke-width="0.5"><title>2023-09-16 1.0km</title><desc>9856514700</desc></polyline><polyline fill="none" points="19.751177390338853,251.0 19.198238257551566,252.68001679936424 18.47941738506779,253.82002622907748 16.986481726402417,256.7000429572654 16.931187813170254,257.36004535935353 16.986481726402417,258.1400475098053 17.318245206261054,258.92004891473334 17.87118433904834,259.76004959398415 18.368829558370635,260.9000491327606 19.25353217078373,262.4000460996176 20.359410436591133,264.50003722141264 20.46999826305546,265.2800325474236 20.857055655913427,265.58003055123845 21.29940696223639,266.18002622795757 22.018227834720165,267.38001625816105 22.792342620436102,268.04001002263976 22.95822436036542,268.46000577666564 23.068812187062576,269.0" stroke="#4dd2ff" stroke-linecap="round" stroke-linejoin="round" stroke-width="0.5"><title>2023-09-15 1.0km</title><desc>9850671982</desc></polyline><polyline fill="none" points="43.314747084863484,251.0 42.39953862968832,253.4207119922503 41.369929117616266,254.91037746024085 40.912324890028685,255.7172784911818 40.225918548647314,257.4552165536443 40.05431696330197,258.07590785168577 40.05431696330197,258.57246056129225 40.225918548647314,259.193151037849 40.912324890028685,261.05521972937277 41.54153070296161,262.29659657517914 43.085944971302524,264.96555061248364 43.71515078400262,266.14485319692176 43.82955184089951,266.82760657178005 44.28715606848709,267.26208570454037 45.03076293831691,268.44138508086326 45.659968751249835,269.0" stroke="#4dd2ff" stroke-linecap="round" stroke-linejoin="round" stroke-width="0.5"><title>2023-09-14 1.0km</title><desc>9844236351</desc></polyline><polyline fill="none" points="62.85353246633895,251.0 63.182827804237604,251.26799398573348 63.3063135559205,251.535987853189 63.38863739045337,252.11664082697826 63.63560889381915,252.60796214069705 63.8002565628849,253.99259279557737 63.8002565628849,254.66257423744537 63.717932728352025,255.01989737094846 63.8002565628849,255.46655099239433 64.00606614886783,256.00253490457544 63.92374231456779,256.4491878034314 63.96490423171781,256.6725141296629 64.37652340414934,257.4318230249919 64.74698065943085,258.54845202929573 65.07627599709667,259.17376337520545 65.4878951695282,259.7544090486481 65.94067625910975,260.1563941896311 66.06416201079264,260.42438413598575 66.18764776270837,261.00502861407585 66.51694310060702,261.5856725371559 66.8874003556557,262.6576290910598 67.38134336238727,263.5955895241932 67.62831486575305,264.39955445716623 67.75180061766878,265.0695244217641 67.99877212103456,265.6054998616455 68.45155321061611,267.0794298829278 69.0689819692634,268.2407055631047 69.11014388664626,268.41936316300416 69.0689819692634,268.5533563285135 68.575038962299,269.0 68.82201046589762,268.8213425707654 68.94549621758051,268.5533563285135 69.02782005188055,268.330034369661 68.98665813496336,268.0173834892921 68.73968663136475,267.70473244803725 67.99877212103456,266.0968102659681 67.62831486575305,264.89086583675817 66.84623843850568,263.14894187945174 66.47578118322417,261.45167783496436 66.26997159724124,260.96036367397755 65.4878951695282,259.9330691441428 64.705818742048,258.45912178448634 64.33536148676649,257.2531621938688 64.21187573531643,256.4491878034314 63.88258039718494,255.60054701479385 63.223989721620455,254.1712545856717 63.05934205255471,253.50127260189038 62.48307521129027,252.4292998908204 62.35958945937455,251.84864721581107 62.318427542224526,251.1339970076806" stroke="#4dd2ff" stroke-linecap="round" stroke-linejoin="round" stroke-width="0.5"><title>2023-09-13 1.0km</title><desc>9837636972</desc></polyline></svg>