<?xml version="1.0" encoding="utf-8" ?>
<svg baseProfile="full" height="300mm" version="1.1" viewBox="0,0,200,300" width="200mm" xmlns="http://www.w3.org/2000/svg" xmlns:ev="http://www.w3.org/2001/xml-events" xmlns:xlink="http://www.w3.org/1999/xlink"><defs /><rect fill="#222222" height="300" width="200" x="0" y="0" /><text fill="#FFFFFF" style="font-size:12px; font-family:Arial; font-weight:bold;" x="10" y="20">Over 1km Runs</text><text fill="#FFFFFF" style="font-size:4px; font-family:Arial" x="10" y="280">ATHLETE</text><text fill="#FFFFFF" style="font-size:9px; font-family:Arial" x="10" y="290">Jiakai</text><text fill="#FFFFFF" style="font-size:4px; font-family:Arial" x="120" y="280">STATISTICS</text><text fill="#FFFFFF" style="font-size:3px; font-family:Arial" x="120" y="285">Number: 84</text><text fill="#FFFFFF" style="font-size:3px; font-family:Arial" x="120" y="290">Weekly: 6.0</text><text fill="#FFFFFF" style="font-size:3px; font-family:Arial" x="141" y="285">Total: 86.7 km</text><text fill="#FFFFFF" style="font-size:3px; font-family:Arial" x="141" y="290">Avg: 1.0 km</text><text fill="#FFFFFF" style="font-size:3px; font-family:Arial" x="167" y="285">Min: 1.0 km</text><text fill="#FFFFFF" style="font-size:3px; font-family:Arial" x="167" y="290">Max: 1.5 km</text><polyline fill="none" points="18.255855523515493,34.78196954121813 18.800108936149627,37.29188677179627 20.704995878972113,43.04992033028975 21.79350270377472,44.82161964243278 23.290199587587267,49.6937846908113 23.698389647062868,50.727272727293894 23.970516353379935,50.727272727293894 23.970516353379935,49.250861084321514 21.929566056933254,43.04992033028975 19.07223564153537,38.62066521192901 18.93617228930816,36.84896042954642 18.11979217082262,34.78196954121813 18.391918876674026,33.453188560553826 17.847665464505553,31.09090909094084" stroke="#4dd2ff" stroke-linecap="round" stroke-linejoin="round" stroke-width="0.5"><title>2023-12-14 1.0km</title><desc>10376526598</desc></polyline><polyline fill="none" points="47.721258737146854,32.79842820286285 46.70971508184448,31.944668866577558 45.02380898967385,31.212874800316058 43.45029663667083,31.09090909094084 41.876784284133464,31.456806191476062 39.85369697259739,32.55449700867757 38.95454705692828,33.774152620113455 38.28018462006003,35.847565100644715 38.28018462006003,40.48224244802259 38.50497209886089,41.94582207745407 38.95454705692828,43.77529479726218 38.61736583849415,45.97065939742606 38.729759578127414,46.82441151270177 38.842153317295015,47.312269666814245 39.966090712696314,49.263700848212466 41.76439054403454,50.605308453552425 42.32635924126953,50.727272727293894 43.45029663667083,50.727272727293894 44.574234031140804,50.727272727293894 46.59732134221122,49.995486949104816 47.721258737146854,48.897807676694356 48.395621174015105,47.67816318827681 48.62040865328163,44.994942156015895 48.73280239291489,43.165470781736076 48.395621174015105,40.97010246803984 48.62040865328163,38.04294019541703 48.50801491364837,35.4816689689178 48.395621174015105,34.627911014365964 47.60886499797925,32.92039378627669 47.27168377907947,32.55449700867757 46.03535264497623,31.700737546896562 43.56269037583843,31.456806191476062 41.989178023301065,31.700737546896562 41.09002810716629,32.06663451297209 39.404122014995664,33.896118131815456 38.729759578127414,36.457391807227395 38.95454705692828,38.16490539337974" stroke="#4dd2ff" stroke-linecap="round" stroke-linejoin="round" stroke-width="0.5"><title>2023-12-13 1.0km</title><desc>10373769329</desc></polyline><polyline fill="none" points="63.74055767431855,33.875181376584806 65.09103677701205,39.44371428003069 66.44151587923989,42.37451482261531 69.14247408416122,49.994576065801084 69.68266572523862,50.727272727293894 69.95276154577732,50.727272727293894 70.08780945604667,50.14111541956663 69.54761781496927,49.261879135505296 67.38685125112534,45.59839044196997 64.28074931539595,39.2971741395304 63.8756055845879,37.39215133571997 62.390078571625054,34.16826244338881 62.119982751552016,31.09090909094084" stroke="#4dd2ff" stroke-linecap="round" stroke-linejoin="round" stroke-width="0.5"><title>2023-12-12 1.0km</title><desc>10365882163</desc></polyline><polyline fill="none" points="84.8781099775806,31.09090909094084 86.27994584292173,34.1331760318717 88.19154020491987,38.97313602420036 89.59337606979534,41.60053766157944 91.63241005595773,47.96160011109896 91.88728930428624,49.62100416899193 92.39704780094326,50.727272727293894 92.52448742464185,49.759287774097174 92.269608176779,48.65301864652429 89.59337606979534,42.568526813411154 87.6817817077972,38.83485162584111 87.17202321207151,37.31372257263865 86.78970433957875,34.1331760318717 85.77018734673038,31.229194058920257" stroke="#4dd2ff" stroke-linecap="round" stroke-linejoin="round" stroke-width="0.5"><title>2023-12-11 1.0km</title><desc>10361067591</desc></polyline><polyline fill="none" points="111.69210181990638,42.047455398133025 114.31477196002379,50.01581375533715 114.445905466564,50.442689169663936 114.97043949505314,50.727272727293894 115.10157300159335,50.58498095383402 114.7081724810414,49.588938245899044 113.52797091798857,47.312267275177874 112.21663584792987,43.75496352184564 108.54489765223116,36.35575077205431 107.4958295961842,31.09090909094084" stroke="#4dd2ff" stroke-linecap="round" stroke-linejoin="round" stroke-width="0.5"><title>2023-12-10 1.0km</title><desc>10355395415</desc></polyline><polyline fill="none" points="130.43649292411283,32.39038039778825 132.69854625221342,36.00001840631012 133.7630419358611,40.47596032265574 136.0250952639617,46.82889262505341 136.8234670269303,50.29411976446863 137.3557148692198,50.727272727293894 137.48877682955936,50.58288841682952 137.48877682955936,50.29411976446863 137.2226529084146,49.139044730807655 134.42835173849016,43.50804421224166 133.7630419358611,41.91981037775986 133.3638560543768,39.46526465250645 132.69854625221342,37.58825702825561 131.63405056856573,35.71124760969542 131.50098860776052,33.689850845141336 130.30343096284196,31.09090909094084" stroke="#4dd2ff" stroke-linecap="round" stroke-linejoin="round" stroke-width="0.5"><title>2023-12-09 1.0km</title><desc>10350143310</desc></polyline><polyline fill="none" points="154.40026326896623,34.90096492273733 155.2105509690009,37.831772144301794 156.96617431845516,42.08143496210687 159.39703741762787,49.115339716663584 160.47742101736367,50.727272727293894 160.3423730675131,49.261879135505296 159.5320853679441,46.77070755674504 157.3713181684725,42.960674413945526 156.02083866856992,39.73679452808574 154.53531121928245,37.392151336185634 154.1301673692651,35.047505385940894 152.50959196966141,31.09090909094084" stroke="#4dd2ff" stroke-linecap="round" stroke-linejoin="round" stroke-width="0.5"><title>2023-12-08 1.0km</title><desc>10345303898</desc></polyline><polyline fill="none" points="175.9271984915249,31.09090909094084 176.18029533978552,31.777498715091497 176.68648903584108,33.5626305565238 176.9395858841017,36.034348750836216 177.44577957922593,38.09411141392775 179.21745751518756,42.488264170940965 180.3563933307305,46.47045617783442 181.4953291467391,48.94215729087591 181.7484259949997,50.727272727293894 182.00152284326032,50.589956215932034 182.25461969105527,50.31532316247467 182.25461969105527,49.90337350696791 181.62187757110223,48.25557397666853 179.59710278734565,44.82265361829195 177.19268273143098,37.81947652378585 176.5599406119436,34.93580773472786" stroke="#4dd2ff" stroke-linecap="round" stroke-linejoin="round" stroke-width="0.5"><title>2023-12-07 1.0km</title><desc>10340288256</desc></polyline><polyline fill="none" points="17.26376742636785,52.909090908942744 18.04490817291662,54.74559385573957 19.476999540813267,60.82016802148428 21.56004153145477,64.63442570611369 23.25251314835623,69.29628592764493 24.033653894905,72.26291836192831 24.424224268179387,72.54545454541221 24.5544143919833,71.5565777218435 24.29403414344415,70.28516391466837 22.210992152802646,65.90584325173404 20.778900784906,63.78681354154833 19.997760038357228,62.23285693547223 17.393957551103085,53.33289943705313" stroke="#4dd2ff" stroke-linecap="round" stroke-linejoin="round" stroke-width="0.5"><title>2023-12-06 1.0km</title><desc>10334845031</desc></polyline><polyline fill="none" points="41.69685104396194,56.2946857806528 42.57047154335305,60.76366148283705 43.44409204274416,64.01381881989073 45.56574182678014,69.56615767115727 46.68896818300709,72.13918707356788 47.063376968260854,72.54545454541221 46.56416525505483,70.10784837033134 45.31613596947864,67.80566179868765 44.19290961371735,64.55551115213893 42.57047154335305,61.1699314636644 41.82165397237986,58.59688673866913 40.57362468773499,55.888414724729955 39.94961004471406,52.90909090905916" stroke="#4dd2ff" stroke-linecap="round" stroke-linejoin="round" stroke-width="0.5"><title>2023-12-05 1.0km</title><desc>10329306344</desc></polyline><polyline fill="none" points="62.49726602016017,54.55690558278002 63.383104987908155,55.93008336704224 64.52204080391675,59.91229323204607 66.79991243546829,65.54229958960786 67.93884825147688,69.38717222749256 68.95123564312235,71.58423875342123 69.71052618743852,72.54545454541221 69.71052618743852,71.85887188697234 66.42026716377586,64.30644598905928 65.15478292433545,60.04961066250689 63.76275026006624,56.891307215439156 62.75036286795512,52.90909090905916" stroke="#4dd2ff" stroke-linecap="round" stroke-linejoin="round" stroke-width="0.5"><title>2023-12-04 1.0km</title><desc>10324662812</desc></polyline><polyline fill="none" points="85.29081779671833,54.721686183824204 86.68285081954673,60.00841326825321 88.91010365402326,64.99302920256741 90.44133997848257,70.2797298579244 91.5549663961865,72.39440631074831 92.39018620923162,72.54545454541221 92.39018620923162,71.9412615399342 91.41576309408993,70.2797298579244 90.16293337428942,66.65456516004633 88.77090035239235,64.53988279914483 87.796477236785,61.97205129195936 86.1260376102291,55.930082145147026 85.01241119299084,52.90909090905916" stroke="#4dd2ff" stroke-linecap="round" stroke-linejoin="round" stroke-width="0.5"><title>2023-12-02 1.0km</title><desc>10313350310</desc></polyline><polyline fill="none" points="107.73425363004208,53.95041800767649 109.10519504081458,55.735548930591904 110.75032473402098,61.38845312898047 111.84707786282524,66.0000211733859 113.62930169748142,71.05785791110247 114.72605482582003,72.54545454541221 114.86314896726981,71.65289669588674 114.58896068483591,69.86777981568594 113.08092513261363,66.59506144560874 110.75032473402098,62.87605687219184 109.37938332324848,60.049608825240284 108.00844191201031,52.90909090905916" stroke="#4dd2ff" stroke-linecap="round" stroke-linejoin="round" stroke-width="0.5"><title>2023-12-01 1.0km</title><desc>10308709030</desc></polyline><polyline fill="none" points="130.2768175061792,52.90909090905916 132.99128229916096,62.236385236727074 135.70574709028006,67.80001587385777 137.21378308627754,71.89091188192833 137.6661938847974,72.54545454541221 137.81699748523533,72.05454756587278 137.21378308627754,70.41819018532988 134.95172909274697,67.30910784786101 134.3485146947205,65.67274697858375 132.08646070118994,61.254566622083075 131.03083550464362,56.18183021212462 129.97521030716598,53.23636505601462" stroke="#4dd2ff" stroke-linecap="round" stroke-linejoin="round" stroke-width="0.5"><title>2023-11-30 1.0km</title><desc>10303537703</desc></polyline><polyline fill="none" points="154.2470547715202,57.10722762369551 155.12067488627508,59.95112125261221 155.49508350668475,62.25331764097791 156.8679151139222,64.96178029652219 158.36554959556088,69.02446681284346 159.86318407626823,72.27460957446601 160.112789823208,72.54545454541221 160.36239556968212,72.27460957446601 160.112789823208,71.32665186130907 159.1143668354489,69.56615767115727 157.74153522821143,65.77431831671856 155.74468925315887,61.71162463212386 154.99587201233953,57.378074825159274 153.49823753116652,55.07587234349921 152.62461741734296,52.909090908942744" stroke="#4dd2ff" stroke-linecap="round" stroke-linejoin="round" stroke-width="0.5"><title>2023-11-29 1.0km</title><desc>10298007687</desc></polyline><polyline fill="none" points="175.7059673499316,55.45194067573175 177.13805808639154,59.12493995379191 177.39843821991235,61.80905037058983 179.221099157352,66.18838037038222 180.2626196932979,70.14389566204045 181.17395016225055,71.98038213711698 182.08528063073754,72.54545454541221 182.47585083171725,72.54545454541221 182.7362309661694,72.12165025481954 182.6060408987105,71.5565777218435 182.08528063073754,70.56770038895775 180.00223955931142,65.05823164840695 177.91919848835096,60.255092165316455 177.52862828737125,57.99478707765229 176.61729781795293,55.31067133275792 175.44558721547946,52.90909090905916" stroke="#4dd2ff" stroke-linecap="round" stroke-linejoin="round" stroke-width="0.5"><title>2023-11-28 1.0km</title><desc>10292316108</desc></polyline><polyline fill="none" points="20.44803458917886,74.7272727272939 21.600675388704985,77.85409739543684 22.292259868234396,80.85584366996773 23.214372507762164,82.23164227581583 24.25174922728911,84.23280189803336 25.289125946816057,87.48468126403168 26.211238586343825,88.98554656701162 26.211238586343825,89.73597872210667 25.634918186813593,90.23626664164476 23.790692907758057,91.23684203939047 22.638052108231932,92.23741684830748 21.485411308705807,92.86277580517344 19.75645010964945,93.61320625001099 16.990112191066146,94.36363636364695 16.52905587106943,94.23856470140163 16.183263631537557,93.86334965820424 15.606943231541663,91.48698579671327" stroke="#4dd2ff" stroke-linecap="round" stroke-linejoin="round" stroke-width="0.5"><title>2023-11-27 1.0km</title><desc>10287544518</desc></polyline><polyline fill="none" points="41.608267007861286,78.98412432789337 42.24100917391479,80.49461772490758 43.75959037337452,88.18438335356768 45.404720006044954,92.1665709685767 46.29055903945118,93.67705370532349 46.923301205504686,94.36363636364695 47.04984963918105,94.22631985216867 46.670204339083284,93.53973714320455 46.670204339083284,92.4412042844342 45.657816872466356,90.10681981395464 44.51888097357005,86.26194491458591 43.37994507374242,83.92755272123031 42.620654474012554,79.53339479537681 40.46933110803366,76.10045172297396 39.96313737425953,74.7272727272939" stroke="#4dd2ff" stroke-linecap="round" stroke-linejoin="round" stroke-width="0.5"><title>2023-11-26 1.0km</title><desc>10281488289</desc></polyline><polyline fill="none" points="62.52839087881148,74.7272727272939 63.987780765630305,78.52787320804782 65.30123166553676,83.91204574378207 66.6146825645119,86.92084218084347 66.90656054206192,88.82113250205293 67.636255485937,90.56306382396724 69.24158436246216,93.57185097108595 69.97127930633724,94.36363636364695 70.26315728295594,94.36363636364695 68.07407245226204,89.61291964096017 67.78219447471201,88.02934507199097 66.32280458696187,85.97069639177062 63.40402481146157,78.05279851530213 61.94463492371142,75.36070660676342" stroke="#4dd2ff" stroke-linecap="round" stroke-linejoin="round" stroke-width="0.5"><title>2023-11-25 1.0km</title><desc>10275889695</desc></polyline><polyline fill="none" points="84.89597240742296,74.91079086018726 85.91072608437389,79.49873978062533 90.6462432499975,92.3449518987909 91.83012254163623,94.18011966184713 92.3374993801117,94.36363636353053 92.50662499386817,93.81308621680364 90.81536886282265,91.61088441568427 88.78586150705814,85.55481944442727 87.43285660259426,82.80205778218806 86.58722853753716,77.4800432943739 85.57247485872358,74.7272727272939" stroke="#4dd2ff" stroke-linecap="round" stroke-linejoin="round" stroke-width="0.5"><title>2023-11-24 1.0km</title><desc>10271180196</desc></polyline><polyline fill="none" points="108.85712064662948,76.90909989213105 109.28798782080412,78.15585726324935 110.29334455914795,83.4545679113362 112.7349252118729,90.9350780423265 113.88390434253961,94.05194947286509 114.31477151578292,94.36363636364695 114.88926108088344,94.36363636364695 115.03288347274065,94.05194947286509 114.74563868995756,92.49351433035918 113.16579238558188,87.97404593857937 109.00074303802103,78.93508024816401 107.5645191250369,74.7272727272939" stroke="#4dd2ff" stroke-linecap="round" stroke-linejoin="round" stroke-width="0.5"><title>2023-11-23 1.0km</title><desc>10265414399</desc></polyline><polyline fill="none" points="132.17566985543817,79.15238665114157 132.30310941440985,81.08837071899325 132.8128676484339,84.13062737148721 134.85190058499575,89.93855822598562 135.4890983775258,92.70423328236211 136.5086148455739,94.36363636364695 137.27325219660997,94.36363636364695 137.14581263856962,93.533935005893 135.74397749407217,89.93855822598562 134.59702146751806,88.14086725900415 132.94030720647424,83.02435279462952 131.0287138284184,77.76953966822475 130.51895559486002,74.7272727272939" stroke="#4dd2ff" stroke-linecap="round" stroke-linejoin="round" stroke-width="0.5"><title>2023-11-21 1.0km</title><desc>10253878272</desc></polyline><polyline fill="none" points="154.38005544198677,80.03054371476173 155.04050889518112,84.33048257348128 157.8144134003669,91.35369564825669 159.0032296171412,93.93364511744585 159.39950168924406,94.36363636364695 159.66368307126686,94.22030595887918 159.7957737618126,93.93364511744585 159.26741099869832,91.64035686873831 156.88977856561542,86.48044844705146 155.96514373086393,83.75715794030111 154.5121461325325,78.16723393043503 153.7196019878611,76.73391750000883 153.19123922521248,74.7272727272939" stroke="#4dd2ff" stroke-linecap="round" stroke-linejoin="round" stroke-width="0.5"><title>2023-11-20 1.0km</title><desc>10248671423</desc></polyline><polyline fill="none" points="175.59500772180036,76.36364364193287 177.5143261202611,80.52894545334857 178.06270280620083,84.84299900464248 179.57073869090527,88.26448321191128 181.07877457514405,92.57852027076297 181.76424543233588,93.61983818281442 182.58681046031415,94.36363636364695 182.44971628906205,93.17355914332438 180.11911537637934,87.07440240448341 178.61107949214056,81.57026956626214 177.10304360697046,78.0000132333953 176.2804785789922,74.72727272717748" stroke="#4dd2ff" stroke-linecap="round" stroke-linejoin="round" stroke-width="0.5"><title>2023-11-19 1.0km</title><desc>10242265034</desc></polyline><polyline fill="none" points="17.09270408656448,114.04137627815362 17.950319102965295,111.34255306550767 18.293365109711885,110.69111211737618 18.893695620819926,110.31885999662336 21.809586676303297,109.94660776620731 23.953624217305332,109.48129232425708 24.63971623033285,108.92291356797796 25.06852373899892,108.36453456559684 25.583092748653144,106.03795273636933 25.41156974527985,105.29344564757776 25.75461575202644,104.73506504378747 25.497331246733665,100.45413889444899 25.32580824382603,99.89575615536887 25.240046741906554,98.22060645907186 25.06852373899892,97.19690277555492 24.12514722114429,96.91771071800031 23.35329370619729,97.47609477117658 23.524816709104925,97.19690277555492 23.69633971247822,97.47609477117658 22.581440191250294,96.91771071800031 22.495678689796478,96.54545454541221 22.238394184503704,96.73158264532685 22.40991718834266,96.63851859897841 21.809586676303297,97.38303077954333 21.895348178222775,97.28996678092517 23.69633971247822,98.22060645907186 23.267532204743475,98.59286213875748 22.581440191250294,98.87205382669345 20.951971660368145,99.15124545292929 20.866210158448666,98.77898993738927 21.295017666649073,98.59286213875748 21.895348178222775,98.68592604156584 23.69633971247822,96.91771071800031 26.183423259761184,97.01077474397607 25.926138755399734,96.82464668503962 25.583092748653144,96.73158264532685 25.32580824382603,101.19864883029368 25.41156974527985,102.50154016411398 25.66885425010696,104.08362069434952 25.840377253945917,106.78245938709006 25.840377253945917,107.71309208450839 25.583092748653144,108.64372409740463 25.06852373899892,109.20210297696758 20.78044865699485,109.6674185214797 18.80793411936611,110.03967083408497 17.778796099592,110.78417513053864 16.578135076444596,112.45930819632486 15.892043063417077,114.87894093245268 15.634758558589965,116.18181818176527" stroke="#4dd2ff" stroke-linecap="round" stroke-linejoin="round" stroke-width="0.5"><title>2023-11-18 1.0km</title><desc>10236386505</desc></polyline><polyline fill="none" points="39.49942908389494,96.54545454541221 42.34315222268924,101.45456440222915 43.37723336368799,105.10132354742382 43.76501379208639,107.20521988312248 44.54057464795187,108.46755657088943 46.99651735834777,115.62078202550765 47.51355792954564,116.18181818176527 47.51355792954564,115.62078202550765 46.99651735834777,114.91948659834452 45.57465578895062,110.71170862053987 44.799094933085144,109.30911389889661 44.54057464795187,106.9247005059151 43.37723336368799,103.9792445525527 42.08463193709031,101.17404417973012 41.9553717947565,99.63118221587501" stroke="#4dd2ff" stroke-linecap="round" stroke-linejoin="round" stroke-width="0.5"><title>2023-11-17 1.0km</title><desc>10231268371</desc></polyline><polyline fill="none" points="62.60136114619672,97.17888842499815 64.49856758117676,99.87098033330403 64.93638445064425,103.513216971769 66.24983506090939,106.3636587401852 68.29298045299947,113.96481834887527 69.60643106233329,116.18181818176527 69.46049210522324,114.91496141382959 68.4389194091782,112.85631757660303 67.70922462642193,110.7976717716083 66.54171297326684,105.88858537387569 64.20668966881931,100.97948778816499 63.47699488513172,98.76247230765875 63.03917801566422,96.54545454541221" stroke="#4dd2ff" stroke-linecap="round" stroke-linejoin="round" stroke-width="0.5"><title>2023-11-16 1.0km</title><desc>10225818993</desc></polyline><polyline fill="none" points="85.29605600517243,96.75659895432182 86.26898248959333,100.55719566298649 87.82566486578435,104.78007499617524 89.96610313188285,108.79180461168289 90.74444431904703,111.95895561296493 92.10654139705002,114.70381698920391 93.46863847598433,116.18181818188168 89.96610313188285,109.63637855346315 88.40942075662315,104.78007499617524 83.93395892716944,96.54545454564504" stroke="#4dd2ff" stroke-linecap="round" stroke-linejoin="round" stroke-width="0.5"><title>2023-11-15 1.0km</title><desc>10219684298</desc></polyline><polyline fill="none" points="107.82908630510792,98.9077340150252 109.59790963539854,101.12236849369947 109.87003630120307,103.92756866081618 111.91098629776388,108.79974911198951 113.13555629504845,112.93371113424655 114.36012629279867,116.03417706664186 114.90437962533906,116.18181818176527 114.7683162917383,114.41012408013921 112.99949296237901,112.04786284593865 112.31917629670352,109.98088198690675 111.2306696320884,108.65210745378863 110.8224796326831,107.0280484976247 108.78152963705361,102.89407431846485 108.10121297137812,99.94123040873092 107.69302297197282,96.54545454541221" stroke="#4dd2ff" stroke-linecap="round" stroke-linejoin="round" stroke-width="0.5"><title>2023-11-14 1.0km</title><desc>10213806154</desc></polyline><polyline fill="none" points="131.2734331781976,99.24902368383482 132.32250146567822,103.23322395212017 135.20743925543502,110.63243126217276 135.86310693481937,113.05139674723614 137.1744422945194,115.75494282960426 137.56784290215,116.18181818176527 136.78104168642312,114.75889997556806 134.94517218321562,110.34784688882064 134.8140386478044,109.2095089762006 133.50270328857005,106.07907626521774 131.53570024995133,102.52176022005733 130.7488990346901,100.10278157447465 130.2243648902513,96.5454545452958" stroke="#4dd2ff" stroke-linecap="round" stroke-linejoin="round" stroke-width="0.5"><title>2023-11-13 1.0km</title><desc>10208522228</desc></polyline><polyline fill="none" points="154.2999999136664,98.77686910098419 155.67094152607024,102.94216968759429 157.3160714614205,106.36366018361878 158.27573058987036,110.38018512283452 159.23538971878588,113.20662381884176 160.46923717018217,115.88429894228466 161.01761381467804,116.18181818176527 161.29180213809013,115.58677965903189 159.78376636374742,112.6115844217129 158.96120139677078,109.33886460785288 155.945129848551,106.51242050866131 154.2999999136664,104.13225399446674 154.02581159071997,101.60332400549669 151.6952108494006,96.5454545452958" stroke="#4dd2ff" stroke-linecap="round" stroke-linejoin="round" stroke-width="0.5"><title>2023-11-12 1.0km</title><desc>10202270880</desc></polyline><polyline fill="none" points="176.11985397385433,100.20896990329493 179.36100501101464,107.53598041681107 180.44138868991286,111.19947557384148 181.5217723697424,114.13026685162913 182.19701216882095,115.44912152085453 182.8722519678995,116.18181818176527 183.0072999279946,115.59566087462008 181.7918682890013,111.93217379716225 179.49605297110975,108.41521986864973 177.0651896931231,102.84669679077342 176.11985397385433,98.89010515005793 175.1745182541199,96.54545454541221" stroke="#4dd2ff" stroke-linecap="round" stroke-linejoin="round" stroke-width="0.5"><title>2023-11-11 1.0km</title><desc>10196068378</desc></polyline><polyline fill="none" points="19.08357271272689,121.29187646973878 21.305942691862583,128.00958994333632 23.36957195866853,133.5215455875732 24.32201623544097,137.13875943189487 24.956979086622596,138.0 25.27446051221341,137.6555038106162 24.798238373361528,135.5885256107431 22.41712768189609,130.24882348743267 20.03601698949933,125.25360725889914 16.8612027335912,120.2583803802263 16.543721307069063,118.36363636376336" stroke="#4dd2ff" stroke-linecap="round" stroke-linejoin="round" stroke-width="0.5"><title>2023-11-10 1.0km</title><desc>10191120477</desc></polyline><polyline fill="none" points="38.94785252260044,118.96322278503794 41.296243333257735,120.7619809921598 42.677649691700935,123.16032279923093 43.09207159932703,124.05970024957787 43.09207159932703,125.40876568155363 44.61161859380081,130.05553978029639 45.16418113745749,132.7536618168233 46.26930622430518,135.75157100276556 46.54558749590069,137.25052394298837 47.23629067558795,138.0 47.65071258274838,137.85010481067002 48.065134490374476,137.25052394298837 46.54558749590069,136.2012570006773 44.0590560506098,132.60376624157652 41.15810269722715,124.65928499633446 40.46739951753989,120.16239509929437 39.77669633785263,118.36363636364695" stroke="#4dd2ff" stroke-linecap="round" stroke-linejoin="round" stroke-width="0.5"><title>2023-11-09 1.0km</title><desc>10185506531</desc></polyline><polyline fill="none" points="62.27326917089522,119.94028600212187 63.72626559343189,122.80691844120156 64.25462792860344,124.24023308022879 65.97180551989004,127.96684621018358 66.6322584389709,130.54680497315712 66.50016785552725,128.97016391239595 66.76434902334586,129.9734810985392 67.29271135851741,133.8434139797464 68.48152661370113,137.42667831736617 69.00988894980401,138.0 69.67034186888486,137.713339179405 69.9345230362378,137.2833478701068 68.48152661370113,135.99337337259203 67.42480194242671,134.2734060480725 66.76434902334586,132.4101064010756 65.83971493551508,129.25682601856533 64.51880909688771,127.393521576887 63.065812673885375,124.24023308022879 62.669540922157466,121.9469291518908 62.80163150560111,119.08029544830788 62.53745033824816,118.36363636364695" stroke="#4dd2ff" stroke-linecap="round" stroke-linejoin="round" stroke-width="0.5"><title>2023-11-08 1.0km</title><desc>10179505859</desc></polyline><polyline fill="none" points="87.81545953825116,129.21172291447874 92.2446553548798,138.0 92.4977522585541,137.86268348875456 91.86500999936834,136.3522011960158 90.72607393190265,134.42976742074825 89.96678322041407,132.5073316671187 88.44820179743692,130.85952801757958 87.94200799055398,129.89830855070613 87.56236263457686,126.60269519442227 87.30926573090255,125.64147353696171 85.7906843079254,123.03244082990568 84.90484514459968,118.36363636364695" stroke="#4dd2ff" stroke-linecap="round" stroke-linejoin="round" stroke-width="0.5"><title>2023-11-06 1.0km</title><desc>10167691585</desc></polyline><polyline fill="none" points="109.41094449488446,123.87313993833959 110.32227536616847,125.56836862966884 113.70721859997138,133.3381476609502 115.13930996879935,137.7174638165161 115.3996902173385,138.0 115.66007046587765,138.0 115.66007046587765,137.5761957091745 114.61854947078973,135.31590458017308 113.70721859997138,134.04448965168558 113.57702847570181,133.3381476609502 112.79588772915304,132.4905369298067 110.58265561470762,128.6762840122683 107.97885312698781,122.03664050193038 106.9373321318999,118.36363636353053" stroke="#4dd2ff" stroke-linecap="round" stroke-linejoin="round" stroke-width="0.5"><title>2023-11-05 1.1km</title><desc>10161301187</desc></polyline><polyline fill="none" points="130.22436570050195,118.36363636364695 132.84703583968803,124.19764926051721 134.02723740274087,129.32018267083913 135.86310650082305,132.87748956226278 136.5187740358524,135.72333036828786 137.1744415704161,138.0 137.5678420914337,137.5731246479554 137.43670858442783,137.14624920184724 135.73197299381718,134.01582638698164 135.60083948634565,133.5889501561178 134.02723740274087,131.16998307046015 133.37156986771151,128.893305404461 131.66683427710086,125.76286924083252 131.27343375608325,123.0593066617148 130.48663271404803,120.213447235059" stroke="#4dd2ff" stroke-linecap="round" stroke-linejoin="round" stroke-width="0.5"><title>2023-11-04 1.0km</title><desc>10155501797</desc></polyline><polyline fill="none" points="161.7617857749574,121.34638984163757 160.2729242388159,119.35788810811937 159.35670175543055,118.73648083629087 157.52425678772852,118.36363636353053 155.8063396308571,118.48791786388028 153.40125561039895,119.60645095270593 152.37050531618297,120.60070196597371 151.45428283279762,122.46492103859782 151.2252272120677,123.95629481622018 150.88164378050715,128.92753123503644 151.11069940123707,134.14731373498216 151.33975502243266,134.8929956331849 152.4850331270136,136.75719893875066 153.85936685279012,137.7514398607891 156.14992306241766,138.0 158.21142365038395,137.13003935315646 160.1583964289166,134.7687153397128 160.73103548120707,133.65019228681922 161.53273015422747,130.0460574136814 161.53273015422747,127.18760015175212 162.10536920651793,123.4591703696642 161.99084139615297,122.09207738854457 160.73103548120707,120.60070196597371 159.70028518652543,119.85501376073807 157.29520116653293,118.73648083629087 156.03539525158703,118.73648083629087 153.28672780049965,119.60645095270593 152.0269218850881,120.72498330136295 151.2252272120677,122.21635861427058 150.9961715908721,123.21060809190385 151.2252272120677,127.31188100308646 150.9961715908721,129.17609267192893" stroke="#4dd2ff" stroke-linecap="round" stroke-linejoin="round" stroke-width="0.5"><title>2023-11-03 1.0km</title><desc>10152446508</desc></polyline><polyline fill="none" points="175.02687988243997,118.36363636364695 176.10039703175426,120.69338332873303 177.0205545881763,124.85363980184775 178.5541505170986,127.84901972825173 180.85454440768808,133.83976768853609 181.31462318543345,134.83822414081078 182.0814211498946,137.50077252613846 182.54149992857128,138.0 183.15493829920888,138.0 183.15493829920888,137.6671816961607 182.0814211498946,137.16795414919034 181.6213423712179,136.00308944482822 180.54782522190362,135.00463350652717 179.7810272583738,132.8413107964443 178.7075101090595,131.17721499723848 177.480633366853,128.68106900400016 176.10039703175426,123.52235856244806 175.1802394753322,121.35902487824205" stroke="#4dd2ff" stroke-linecap="round" stroke-linejoin="round" stroke-width="0.5"><title>2023-11-02 1.1km</title><desc>10144903556</desc></polyline><polyline fill="none" points="17.565186235122383,141.60474977793638 17.827453268226236,143.1699733256828 18.87652140110731,145.58895268221386 20.712390633765608,152.13441107748076 23.859595033340156,158.6798473369563 24.777529648970813,159.81818181823473 24.252995583228767,158.11067984544206 22.285992833785713,155.12254776793998 21.236924700904638,151.2806568898959 19.925589534454048,149.43085485859774 18.351987334433943,146.0158310785191 17.040652168449014,140.18181818188168" stroke="#4dd2ff" stroke-linecap="round" stroke-linejoin="round" stroke-width="0.5"><title>2023-11-01 1.0km</title><desc>10138966680</desc></polyline><polyline fill="none" points="40.6491639316082,140.47710326767992 41.329480497166514,142.69174002599902 42.41798700205982,148.59742610831745 44.18681007158011,152.4361127485754 45.275316576007754,155.97950928844512 47.04413964645937,159.81818181823473 47.180202959571034,159.67054070252925 45.95563314156607,157.89884647051804 44.18681007158011,153.764887183439 42.69011362828314,151.10733743407764 40.10491068009287,143.2823094156338 39.832784053403884,140.18181818188168" stroke="#4dd2ff" stroke-linecap="round" stroke-linejoin="round" stroke-width="0.5"><title>2023-10-31 1.0km</title><desc>10133123337</desc></polyline><polyline fill="none" points="63.02080244384706,142.50910108932294 63.691040195990354,146.00002031796612 63.691040195990354,147.3091134405695 65.16556325089186,149.78184253093787 69.18698976375163,158.363643047167 69.85722751589492,159.67272798891645 70.1253226166591,159.81818181823473 67.04222895670682,153.70911179331597 65.7017534528859,149.92729708726984 64.22723039751872,146.87274916260503 62.08246959093958,140.18181818176527" stroke="#4dd2ff" stroke-linecap="round" stroke-linejoin="round" stroke-width="0.5"><title>2023-10-30 1.0km</title><desc>10127985445</desc></polyline><polyline fill="none" points="85.6058586705476,143.023937026388 86.20113559952006,147.02873305091634 86.5583017570898,148.32060078915674 88.9394094729796,153.87562124116812 90.12996333092451,157.1052762218751 91.91579411830753,159.5598100371426 92.39201566157863,159.81818181823473 92.51107104681432,159.43062413216103 91.43957257503644,157.7512065054616 89.8918525595218,154.3923664370086 87.15357868559659,149.3540942959953 86.08208021335304,145.60767744190525 85.24869251297787,143.92824660427868 85.12963712727651,141.34450371935964 84.8915263558738,140.18181818188168" stroke="#4dd2ff" stroke-linecap="round" stroke-linejoin="round" stroke-width="0.5"><title>2023-10-28 1.0km</title><desc>10115543824</desc></polyline><polyline fill="none" points="108.75179746560752,144.25456147361547 109.82417802745476,147.7454776223749 111.03060615807772,150.50911520502996 112.1029867194593,154.43638302374166 113.71155756153166,158.2181891114451 114.38179541192949,159.67272798961494 115.05203326232731,159.81818181823473 115.18608083296567,159.67272798961494 114.91798569215462,158.8000047908863 114.1137002715841,156.61819511046633 111.43274886906147,151.3818420608295 109.28798774629831,145.56365575140808 107.947512045037,142.6545561804669 107.41132176434621,140.18181818188168" stroke="#4dd2ff" stroke-linecap="round" stroke-linejoin="round" stroke-width="0.5"><title>2023-10-27 1.0km</title><desc>10110442644</desc></polyline><polyline fill="none" points="131.23486409941688,143.21391656110063 133.76304190652445,151.7326440984616 134.69447583518922,154.3315705669811 135.62590976431966,155.91980171622708 136.69040568266064,158.9518757974729 137.08959165262058,159.52941318729427 137.88796359160915,159.81818181823473 138.0210255808197,159.38502885575872 137.88796359160915,158.80749142356217 136.55734369251877,157.07487810892053 134.56141384551302,153.60964689298999 132.16629802901298,146.53478084306698 130.56955415057018,143.9358440565411 129.77118221158162,140.18181818188168" stroke="#4dd2ff" stroke-linecap="round" stroke-linejoin="round" stroke-width="0.5"><title>2023-10-26 1.0km</title><desc>10104873905</desc></polyline><polyline fill="none" points="155.51000533625484,149.57314738538116 158.52607555361465,157.11463633237872 159.968543917872,159.67589004477486 160.49307786813006,159.81818181823473 160.36194438114762,158.39526361203752 156.82134021259844,152.27670340589248 154.8543378971517,147.29646570247132 153.14960255706683,143.7391452115262 152.49393511889502,140.18181818188168" stroke="#4dd2ff" stroke-linecap="round" stroke-linejoin="round" stroke-width="0.5"><title>2023-10-25 1.0km</title><desc>10098978222</desc></polyline><polyline fill="none" points="175.45841482840478,140.18181818188168 175.32632412808016,141.18514082662296 176.11886833095923,144.48176873766351 177.17559393448755,146.63174045912456 177.83604743657634,149.21170339512173 179.02486374042928,152.6516486654291 181.5345870484598,157.52489407581743 182.32713125133887,159.531520997989 182.59131265245378,159.81818181823473 182.8554940535687,159.67485141323414 182.7234033527784,157.81155519071035 181.27040564781055,155.08827289310284 180.2136800447479,153.51163403480314 178.892773039639,150.5016835827846 178.6285916394554,148.92504101549275 177.04350323369727,146.48840908485 176.11886833095923,144.33843720518053 175.85468692984432,141.75846782024018 175.45841482840478,140.18181818188168" stroke="#4dd2ff" stroke-linecap="round" stroke-linejoin="round" stroke-width="0.5"><title>2023-10-24 1.0km</title><desc>10092835699</desc></polyline><polyline fill="none" points="18.89114487078041,165.39046560798306 20.843995875678957,172.31264764862135 21.75532634416595,174.00787210231647 22.796846880111843,178.24592669354752 24.35912768356502,181.07129122805782 25.010078018996865,181.63636363635305 24.35912768356502,180.93002309976146 23.447797215078026,178.6697316385107 21.10437600919977,175.84436357265804 20.583615741692483,174.85548376839142 20.062855473719537,171.6063036848791 18.5005746698007,168.49838715977967 17.459054134320468,165.249196327175 16.808103799819946,162.0" stroke="#4dd2ff" stroke-linecap="round" stroke-linejoin="round" stroke-width="0.5"><title>2023-10-23 1.0km</title><desc>10087395010</desc></polyline><polyline fill="none" points="37.148942607454956,162.0941806390183 37.49611262232065,162.0 39.969698979053646,162.18836126406677 41.05460527562536,162.47090305626625 41.314982787007466,162.61217390571255 41.87913406151347,163.0359862667974 42.26970032812096,163.5068885613 43.1376253652852,165.1079537726473 43.571587884332985,166.8973748605349 44.13573915860616,167.83917342487257 44.39611666975543,168.59261127916398 45.0036641957704,169.95821513107512 45.43762671481818,171.37090570677537 46.088570492807776,172.5010559237562 46.392344255698845,172.83068269473733 46.782910522772,173.48993572779 46.999891781946644,174.9026185136172 47.130080537637696,175.2793333969894 47.47725055250339,175.79731599980732 47.56404305645265,176.59783374378458 47.69423181191087,176.9274584063096 49.60366689413786,181.44800809194567 49.86404440551996,181.63636363635305 49.86404440551996,181.40091919706902 49.47347813867964,181.0242079141899 49.03951562009752,179.98825074371416 48.605553101049736,179.09355911187595 47.433854300761595,175.46769075555494" stroke="#4dd2ff" stroke-linecap="round" stroke-linejoin="round" stroke-width="0.5"><title>2023-10-22 1.5km</title><desc>10080655811</desc></polyline><polyline fill="none" points="62.98068573046476,162.0 63.669629195006564,162.49839189951308 62.429530958645046,162.29903518367792 64.3585726597812,164.79098991729552 64.54229091713205,165.3890576902195 64.40450222417712,165.8874470977462 63.7614883237984,166.23631946515525 63.577770066447556,166.58519165281905 63.623699630843475,167.18325784249464 63.99113614531234,168.6285822892096 64.40450222417712,169.67519462003838 64.863797867205,171.27002934983466 65.69053002493456,172.71534508280456 65.82831871788949,173.26356748573016 66.33354392531328,174.16065773402806 66.65505087561905,174.5593641300802 66.70098043954931,174.8085555084399 67.02248739008792,175.10758504166733 67.25213521160185,175.6059673037962 67.57364216190763,176.55289259238634 67.89514911198057,177.20078808034305 67.84921954781748,178.49657719855895 68.44630388380028,179.64285012311302 68.63002214115113,180.19106692366768 68.95152909122407,180.7891211095266 69.50268386304379,181.4868503261241 69.77826124895364,181.63636363635305 68.72188126971014,180.14122905104887 68.4922334481962,179.3438225905993 68.0329378049355,178.3470631959499 67.84921954781748,177.69916880351957 67.25213521160185,176.8519213561085 66.74691000417806,175.406614442938" stroke="#4dd2ff" stroke-linecap="round" stroke-linejoin="round" stroke-width="0.5"><title>2023-10-20 1.4km</title><desc>10069668027</desc></polyline><polyline fill="none" points="84.7500487905927,162.0 84.843569498742,162.7611097744084 85.59173516207375,164.5877698076656 85.77877657813951,165.7040596701554 87.3218682592269,169.45883959176717 87.4621493211016,169.9662407169235 87.5556700292509,170.72734170535114 87.74271144508384,171.23474189796252 88.8649599403143,172.80768012418412 89.47284454200417,174.02543628879357 89.84692737390287,175.24319030460902 90.17424985184334,175.9028061660938 90.36129126767628,176.91759856807766 90.59509303770028,177.42499420949025 91.20297763915733,178.9979183272808 91.2964983470738,179.6067912169965 92.1849450727459,181.43340666306904 92.41874684253708,181.63636363635305 92.55902790441178,181.63636363635305 92.65254861232825,181.58562439854722 92.60578825860284,181.5348851570743 91.6705811789725,180.36788157362025 91.24973799334839,178.94717889558524 90.36129126767628,177.32351511099841 90.22101020580158,176.66390060738195 90.12748949765228,175.5476284729084" stroke="#4dd2ff" stroke-linecap="round" stroke-linejoin="round" stroke-width="0.5"><title>2023-10-19 1.3km</title><desc>10064004415</desc></polyline><polyline fill="none" points="106.87085174256936,162.0 108.7960037230514,164.50678116001654 108.66766025777906,166.3172321569873 108.92434718832374,168.12768142367713 109.82275144662708,171.33077973301988 111.10618609981611,173.41975397372153 112.38962075393647,177.040637200349 114.95649006217718,181.21857078454923 115.34152045845985,181.63636363635305 115.72655085427687,181.49709936243016 114.05808580387384,179.825927280006 110.97784263454378,173.8375485453289 110.20778184244409,171.1915147016989 108.02594293048605,166.5957629258046" stroke="#4dd2ff" stroke-linecap="round" stroke-linejoin="round" stroke-width="0.5"><title>2023-10-18 1.0km</title><desc>10058081424</desc></polyline><polyline fill="none" points="130.46875011641532,163.19008806895 131.565503325779,169.58679944928735 134.44448050111532,177.17357045179233 136.36379861738533,181.1900847607758 137.18636352475733,181.63636363635305 137.59764597844332,181.63636363635305 137.871834280435,181.04132511408534 136.91217522276565,179.85124754346907 135.67832786170766,177.91736999968998 134.03319804742932,174.34712967742234 133.34772729175165,172.26448658062145 130.46875011641532,166.46282665070612 130.19456181442365,165.57026210788172 129.92037351196632,162.0" stroke="#4dd2ff" stroke-linecap="round" stroke-linejoin="round" stroke-width="0.5"><title>2023-10-17 1.0km</title><desc>10051702317</desc></polyline><polyline fill="none" points="152.10860150726512,162.4531489686342 153.50063483649865,164.86994178034365 155.58868482941762,170.30771521176212 156.7023114929907,172.42240099271294 157.95514148892835,176.34966881130822 159.4863781509921,180.27692912344355 160.04319148277864,181.33426715573296 160.73920814692974,181.63636363635305 160.87841148022562,181.48531540168915 160.73920814692974,181.0321706305258 159.20797148533165,178.76644527656026 157.11992149194703,173.6307918902021 155.58868482941762,170.45876426808536 154.33585483394563,164.56784283404704 153.6398381688632,162.0" stroke="#4dd2ff" stroke-linecap="round" stroke-linejoin="round" stroke-width="0.5"><title>2023-10-16 1.0km</title><desc>10046279660</desc></polyline><polyline fill="none" points="175.06947947340086,162.0 175.64396941894665,163.2467586544808 176.21845936402678,166.05196294630878 177.51106174150482,170.41560668870807 179.2345315767452,173.06495743535925 181.24524638522416,180.54545931739267 181.9633588171564,181.32467674533837 182.96871622139588,181.63636363635305 183.112338708248,181.32467674533837 182.96871622139588,180.3896157973213 181.10162389930338,177.74027420498896 180.0962664950639,174.62339750409592 178.94728660443798,172.75326928403229 176.21845936402678,166.36365208309144 175.2131019597873,162.0" stroke="#4dd2ff" stroke-linecap="round" stroke-linejoin="round" stroke-width="0.5"><title>2023-10-15 1.0km</title><desc>10039610121</desc></polyline><polyline fill="none" points="16.822798622772098,185.24340778426267 17.2606156533584,189.83579614944756 18.428127735853195,193.1613126466982 19.887517837807536,195.21996314299759 20.763151899911463,198.07039904419798 23.244115073233843,202.50440294819418 23.82787111401558,203.13783133239485 24.557566165924072,203.4545454545878 24.995383195579052,203.13783133239485 24.995383195579052,202.66276006156113 22.076602990739048,200.28740213694982 20.179395858198404,196.8035391094163 19.449700807221234,193.79474377818406 17.698432683944702,189.83579614944756 16.822798622772098,186.51027451839764 16.96873763296753,184.451615697355 16.822798622772098,183.81818181823473" stroke="#4dd2ff" stroke-linecap="round" stroke-linejoin="round" stroke-width="0.5"><title>2023-10-14 1.0km</title><desc>10033377496</desc></polyline><polyline fill="none" points="39.05419708462432,184.129871550831 41.639401459135115,187.2467663543066 41.926646389532834,189.58443444920704 44.36822829814628,197.06495502928738 46.66618774179369,202.51948464405723 47.38430006755516,203.4545454545878 47.95878992881626,203.4545454545878 47.95878992881626,202.98701510112733 47.81516746291891,202.51948464405723 46.52256527589634,201.58442342106719 45.086340624373406,198.9350810496835 43.50649350648746,193.94807466259226 40.63404420251027,187.55845558235887 40.20317680668086,185.3766300220741 39.48506448045373,183.81818181823473" stroke="#4dd2ff" stroke-linecap="round" stroke-linejoin="round" stroke-width="0.5"><title>2023-10-13 1.0km</title><desc>10028006924</desc></polyline><polyline fill="none" points="61.89060578076169,183.81818181823473 63.27201244421303,185.6169405542314 64.10085644200444,187.11590495484415 64.23899710876867,189.06455702870153 64.10085644200444,191.16310333297588 65.62040377175435,194.31091873976402 67.4162324341014,199.10758049006108 69.21206109691411,202.40527889772784 69.62648309580982,203.00485985376872 70.31718642730266,203.4545454545878 70.31718642730266,202.70506939769257 68.79763909755275,200.756430360605 67.4162324341014,198.3581028355984 65.62040377175435,193.41154340514913 64.51527844136581,191.46289548603818 63.962715776171535,189.8140380998375" stroke="#4dd2ff" stroke-linecap="round" stroke-linejoin="round" stroke-width="0.5"><title>2023-10-12 1.0km</title><desc>10021974100</desc></polyline><polyline fill="none" points="86.40548253944144,186.60245410341304 86.94567457772791,189.53326283406932 86.81062656827271,190.70558511989657 88.02605865336955,194.66216774319764 88.97139472002164,196.42064638785087 89.91673078760505,199.6445198743604 91.26721088215709,202.8683881467441 91.53730690153316,203.16146682202816 92.21254694927484,203.4545454545878 92.07749893935397,202.8683881467441 90.59197083488107,199.05836144660134 88.97139472002164,196.2741065598093 86.81062656827271,191.29174600390252 86.27043452952057,189.38672249997035 86.00033851107582,186.60245410341304 85.19005045341328,183.81818181823473" stroke="#4dd2ff" stroke-linecap="round" stroke-linejoin="round" stroke-width="0.5"><title>2023-10-10 1.0km</title><desc>10009069592</desc></polyline><polyline fill="none" points="107.9721515532583,186.27273801004048 108.90358548192307,188.87167651590426 109.83501941105351,192.3369225076167 111.83094925852492,196.6684713989962 113.4276931360364,202.15508628054522 114.35912706470117,203.4545454545878 114.6252510449849,203.02139249211177 114.75831303466111,201.43316414533183 113.82687910553068,198.68985761201475 111.83094925852492,195.22462282993365 109.5688954317011,188.87167651590426 108.90358548192307,185.98396685230546 107.83908956311643,183.81818181823473" stroke="#4dd2ff" stroke-linecap="round" stroke-linejoin="round" stroke-width="0.5"><title>2023-10-09 1.0km</title><desc>10003389142</desc></polyline><polyline fill="none" points="129.8980545368977,183.81818181823473 130.8800315731205,185.03594622015953 131.86200860887766,187.31925254268572 132.42313834326342,191.88585763401352 134.5273748487234,196.4524526532041 136.35104648582637,201.62791483278852 137.19274108763784,203.15010712959338 137.8941532559693,203.4545454545878 137.8941532559693,202.23679188604 135.2287870165892,197.97464875481091 131.72172617539763,189.45033617177978 130.31890183826908,183.97040240792558" stroke="#4dd2ff" stroke-linecap="round" stroke-linejoin="round" stroke-width="0.5"><title>2023-10-08 1.0km</title><desc>9996447828</desc></polyline><polyline fill="none" points="153.9729327848181,187.74547071452253 154.6192337363027,190.12989217124414 156.55813658842817,195.31950504076667 157.20443753991276,197.5636575849494 159.27260058233514,202.75325023324694 159.91890153335407,203.4545454545878 160.048161723651,202.89350929833017 160.048161723651,202.33247297722846 157.59221811033785,197.98443589312956 156.4288763985969,195.45976465183776 154.36071335570887,189.28833199723158 153.71441240422428,186.06234789139125 152.9388512633741,183.81818181823473" stroke="#4dd2ff" stroke-linecap="round" stroke-linejoin="round" stroke-width="0.5"><title>2023-10-07 1.0km</title><desc>9989974159</desc></polyline><polyline fill="none" points="177.48661624500528,189.6673326981254 178.51336366636679,193.00969652016647 179.28342423215508,194.6808762201108 180.82354536419734,201.22631584806368 181.20857564732432,202.4796953239711 181.97863621357828,203.4545454545878 182.62035335134715,203.4545454545878 182.8770402064547,202.89748829847667 182.74869677936658,202.4796953239711 181.20857564732432,200.25146457052324 179.66845451528206,196.90911352587864 179.1550808046013,194.6808762201108 176.45986882410944,188.13541397557128 176.07483854098246,185.76790078473277 175.30477797519416,183.81818181823473" stroke="#4dd2ff" stroke-linecap="round" stroke-linejoin="round" stroke-width="0.5"><title>2023-10-06 1.0km</title><desc>9984428862</desc></polyline><polyline fill="none" points="16.68164294399321,205.63636363635305 18.906615557149053,211.59167285484727 20.38993063289672,216.58124378195498 22.911566261202097,222.8584297640482 23.949886813759804,224.95082109270152 24.394881336949766,225.2727272727061 24.988207367248833,225.2727272727061 25.13653887435794,224.95082109270152 24.691544351167977,224.1460554334335 22.911566261202097,221.57080333784688 21.87324570864439,219.47840877925046 20.093267617747188,214.81075217411853 19.351610080339015,212.39644312835298 17.27496897429228,208.53354311734438 17.27496897429228,207.0849538560724" stroke="#4dd2ff" stroke-linecap="round" stroke-linejoin="round" stroke-width="0.5"><title>2023-10-04 1.0km</title><desc>9971682885</desc></polyline><polyline fill="none" points="40.53445296501741,207.92967177950777 41.19490641867742,210.22297722520307 41.85535987187177,211.79962315422017 42.383722635451704,214.23625526379328 44.89344575861469,219.25284119462594 45.02553645009175,220.97281054221094 45.8180805942975,224.41274468542542 46.082261975388974,224.842736026505 46.874806120060384,225.2727272727061 46.874806120060384,223.83942274970468 45.15762714110315,220.68614908971358 43.968810924328864,217.96286318823695 43.30835747020319,216.6728843281744 42.64790401654318,214.80958002363332 41.32699710968882,212.08628591359593 40.798634346108884,209.93631419201847 40.53445296501741,207.7863400997594 40.138180892914534,205.63636363635305" stroke="#4dd2ff" stroke-linecap="round" stroke-linejoin="round" stroke-width="0.5"><title>2023-10-03 1.0km</title><desc>9965060084</desc></polyline><polyline fill="none" points="62.514519984833896,206.44778708112426 64.30920804385096,212.2900270796381 64.60832272004336,214.8865732268896 65.65522408857942,216.18484515487216 66.40301077999175,218.13225161540322 67.7490268247202,223.16304368712008 68.79592819232494,224.7858773933258 69.54371488373727,225.2727272727061 69.69327222276479,225.1104439913761 69.24460020754486,223.81217731256038 67.599469486624,220.72879089042544 64.90743739623576,214.23743697616737 63.2623066753149,209.36890901299194 62.9631919991225,205.63636363635305" stroke="#4dd2ff" stroke-linecap="round" stroke-linejoin="round" stroke-width="0.5"><title>2023-10-02 1.0km</title><desc>9958643020</desc></polyline><polyline fill="none" points="85.58871183451265,209.09237672155723 85.87825479870662,210.50619864545297 89.06322740670294,218.0465664388612 90.65571371046826,222.91637316404376 91.5243426039815,224.6443664309336 92.3929714965634,225.2727272727061 92.53774297889322,225.11563707957976 92.3929714965634,224.48727619170677 89.49754185276106,220.0887448041467 86.74688369175419,213.3338396861218 85.44394035218284,209.24946809280664 84.86485442332923,205.63636363635305" stroke="#4dd2ff" stroke-linecap="round" stroke-linejoin="round" stroke-width="0.5"><title>2023-10-01 1.0km</title><desc>9952075403</desc></polyline><polyline fill="none" points="108.47933027660474,208.48222578293644 109.65953209996223,210.9012053173501 110.18406624300405,213.3201818286907 110.57746685063466,215.59686284209602 112.54446988971904,221.14626159286126 114.24920585658401,224.7035601157695 115.03600707184523,225.2727272727061 115.29827414406464,224.8458519205451 112.67560342606157,220.8616774288239 111.49540160270408,218.15812578098848 111.1020009946078,216.73520234436728 109.26613149233162,212.75101115682628 108.21706320438534,208.33993277477566 107.29912845324725,205.63636363623664" stroke="#4dd2ff" stroke-linecap="round" stroke-linejoin="round" stroke-width="0.5"><title>2023-09-30 1.0km</title><desc>9945549317</desc></polyline><polyline fill="none" points="130.8559045586735,205.63636363635305 132.15884713176638,207.83564533735625 132.59316132310778,209.56365080014803 133.75133249908686,212.39129308855627 134.33041808800772,216.63274950475898 134.76473227888346,217.88947571488097 136.50198904331774,222.13092121726368 136.93630323419347,224.80145665886812 137.22584602842107,225.11563707957976 137.66016021976247,225.2727272727061 137.8049316164106,224.95854687481187 135.19904647022486,220.2458353670081 133.46178970532492,216.161476985435 132.88270411733538,213.80511282931548 130.8559045586735,209.0923767220229 129.9872761759907,206.26473006757442" stroke="#4dd2ff" stroke-linecap="round" stroke-linejoin="round" stroke-width="0.5"><title>2023-09-28 1.0km</title><desc>9933629332</desc></polyline><polyline fill="none" points="152.6548674381338,207.8677781916922 153.75162145402282,211.7355575923575 155.8080352335237,214.56200709415134 157.17897775303572,219.61985424347222 159.0982972807251,223.0413319109939 159.64667428890243,224.9752080332255 160.19505129614845,225.2727272727061 160.46923980070278,224.82644839701243 160.19505129614845,224.23140974331181 159.0982972807251,222.74381234310567 155.9451294853352,216.34713106090203 154.29999846126884,211.8843181906268 152.5177731863223,205.63636363623664" stroke="#4dd2ff" stroke-linecap="round" stroke-linejoin="round" stroke-width="0.5"><title>2023-09-27 1.0km</title><desc>9927137811</desc></polyline><polyline fill="none" points="180.72216876363382,205.63636363635305 180.33066644216888,207.52450162480818 179.93916412070394,208.6101784533239 179.63466231524944,209.93186950549716 177.85115173947997,213.66091173316818 176.93764632288367,215.21860650292365 176.76364529086277,215.8794455662719 176.8506458066404,216.3986757818493 177.0681470965501,217.15391898195958 177.72065096558072,218.75880783243338 177.93815225549042,219.1836306800251 178.1991538030561,219.93887060403358 179.0691589617636,221.02452643826837 179.46066128322855,221.87416885391576 179.89566386281513,222.53500106662977 180.24366592639126,223.47904590476537 180.76566902175546,224.18707862234442 181.41817289078608,225.2727272727061" stroke="#4dd2ff" stroke-linecap="round" stroke-linejoin="round" stroke-width="0.5"><title>2023-09-26 1.0km</title><desc>9920397094</desc></polyline><polyline fill="none" points="20.8173873052001,227.45454545452958 19.961487002670765,230.3071518392535 19.10558670014143,231.83296085434267 18.310822133440524,232.82805230014492 17.882871982408687,233.6241246665595 17.69946477469057,234.42019633046584 17.760600510286167,235.41528492275393 18.066279190126806,236.21135500638047 18.799908020766452,237.3391197558958 19.10558670014143,238.46688309579622 19.716944058891386,239.92633944307454 20.87852304102853,241.38579342979938 22.834866589633748,245.36611048603663 24.11871704366058,247.09090909088263" stroke="#4dd2ff" stroke-linecap="round" stroke-linejoin="round" stroke-width="0.5"><title>2023-09-25 1.0km</title><desc>9914573673</desc></polyline><polyline fill="none" points="44.95418320852332,227.45454545447137 44.471619974588975,228.18764609313803 44.375107327708974,228.5541961294366 44.471619974588975,229.02547447034158 44.519876298028976,229.4967524993117 43.55474982992746,231.27713334967848 43.31346821272746,232.48150610696757 42.975673949113116,233.37169335759245 40.94890836626291,236.93243123288266 40.90065204282291,237.3513404005207 41.09367733635008,238.18915799702518 41.62449689395726,239.0269746078411 41.91403483436443,239.76006333372789 42.34834174485877,240.49315130501054 42.58962336182594,241.22623852163088 43.21695556608029,242.221141394577 43.69951880001463,243.21604287769878 44.230338357621804,243.79203783796402 44.375107327708974,244.31566921569174 44.71290159155615,244.73457404068904 45.43674644269049,245.9912870376138 45.967566000064835,246.56727975339163 46.112334970152006,247.09090909088263" stroke="#4dd2ff" stroke-linecap="round" stroke-linejoin="round" stroke-width="0.5"><title>2023-09-24 1.0km</title><desc>9907510217</desc></polyline><polyline fill="none" points="66.83594129793346,227.45454545447137 66.42599598923698,228.0900334637845 66.1331779116299,228.7255210057483 65.95748706511222,229.5516541118268 65.8989234494511,230.63198082806775 64.90334198530763,231.96650020167 64.31770583009347,233.49166267656256 63.790633290074766,234.2542429046589 63.43925159680657,235.27101549570216 63.380687981145456,236.3513350628782 64.61052390770055,239.4651897896547 65.07903283182532,240.41840838169446 66.6016868359875,242.83322410978144 67.24588660686277,244.42191498843022 68.06577722425573,245.43867561820662 68.53428614884615,246.26479274930898 68.82710422645323,247.09090909088263" stroke="#4dd2ff" stroke-linecap="round" stroke-linejoin="round" stroke-width="0.5"><title>2023-09-23 1.0km</title><desc>9901004991</desc></polyline><polyline fill="none" points="89.45530566736124,227.45454545452958 89.06433909246698,228.1818265238544 88.67337251757272,229.45456685096724 87.77973463200033,231.33337040868355 86.88609674666077,232.6061058694031 86.10416359687224,234.72732727008406 86.0483112288639,235.87884517293423 86.16001596488059,236.5455126974266 87.27706332155503,239.21217740292195 87.44462042488158,240.00005396042252 87.66802989621647,240.42429487174377 88.449963046005,241.39398756361334 89.06433909246698,242.60610182397068 89.56701040291227,243.87881987943547 90.40479592047632,245.09093048621435 91.35428617382422,247.09090909088263" stroke="#4dd2ff" stroke-linecap="round" stroke-linejoin="round" stroke-width="0.5"><title>2023-09-22 1.0km</title><desc>9895405405</desc></polyline><polyline fill="none" points="112.33963015954942,227.45454545447137 112.17948725796305,228.03379622573266 111.85920145479031,228.38134648406412 111.1652488806285,229.65569611924002 110.89834404480644,230.58249455911573 110.09762953640893,232.6098623450962 109.24353406089358,234.34760200895835 108.70972438855097,235.62194199307123 108.5495814869646,236.25911121198442 108.5495814869646,236.66458226484247 108.70972438855097,237.24382626404986 109.03001019195653,237.82306983741 109.72396276611835,239.6187222081935 110.4179153398145,240.89305366569897 110.79158211033791,241.81983888568357 111.48553468403406,242.97831887751818 111.91258242167532,243.49963431817014 112.23286822508089,244.42641647183336 113.08696370059624,245.93243514624191 114.04782111058012,247.09090909088263" stroke="#4dd2ff" stroke-linecap="round" stroke-linejoin="round" stroke-width="0.5"><title>2023-09-21 1.0km</title><desc>9889267953</desc></polyline><polyline fill="none" points="135.89532987307757,227.45454545447137 135.19457025220618,229.55687436508015 134.78235871065408,231.21189414069522 134.12282024370506,232.59852886438603 133.33961831452325,234.9244896901073 131.9793202271685,237.47409037820762 131.6083298397716,238.86071082780836 131.649550993694,239.1738182338304 131.89687791862525,239.84476213267772 132.43275292310864,241.00772980455076 132.76252215635031,241.99177763657644 133.58694523968734,243.1547412039945 134.08159908978269,244.09405630873516 134.37014716886915,244.76499478134792 134.69991640211083,245.34647419233806 135.2357914063614,245.74903653596994 135.89532987307757,246.73307669896167 135.93655102723278,246.9119929212029 136.18387795239687,247.09090909088263" stroke="#4dd2ff" stroke-linecap="round" stroke-linejoin="round" stroke-width="0.5"><title>2023-09-20 1.0km</title><desc>9882714971</desc></polyline><polyline fill="none" points="158.12169161369093,227.45454545452958 157.7030154399108,228.51462055841694 156.91218266729265,230.83668411325198 156.8656630923506,231.59387705259724 156.58654564316384,231.99771294544917 156.26090861926787,232.75490460416768 156.07483031973243,233.46161606558599 155.70267372066155,234.42072331369855 154.63272349885665,236.13701715046773 154.3536060496699,237.1465997560881 154.2605669000186,238.05522283178288 154.3536060496699,238.96384470484918 154.63272349885665,239.97342315351125 154.95836052275263,240.6801271843724 155.9817911698483,242.44688407873036 156.49350649351254,243.1535855633556 156.9587022420019,244.41555069119204 157.42389799072407,245.2232071555918 157.88909373921342,245.8794273334206 158.40080906264484,246.38421165884938 158.72644608700648,247.09090909088263" stroke="#4dd2ff" stroke-linecap="round" stroke-linejoin="round" stroke-width="0.5"><title>2023-09-19 1.0km</title><desc>9876194288</desc></polyline><polyline fill="none" points="178.9463708603289,227.45454545452958 178.59947910672054,228.01917563931784 178.0213261845056,229.14843488816405 177.84788030781783,229.90127355681034 176.80720504722558,231.72063093056204 175.99779095570557,233.414511894749 175.8243450790178,234.0418743614573 175.88216037140228,234.7319725418347 176.22905212501064,235.6102785099647 176.74938975507393,236.55131961521693 177.21191209298559,237.86877541907597 177.84788030781783,239.24896503181662 178.5416638145689,240.5036809243611 179.17763202940114,241.3192452651565 179.92923082853667,242.5739581134403 180.3917531662155,244.0168756080093 181.20116725796834,245.27158448967384 181.60587430372834,246.40082090575015 182.35747310286388,247.09090909088263" stroke="#4dd2ff" stroke-linecap="round" stroke-linejoin="round" stroke-width="0.5"><title>2023-09-18 1.0km</title><desc>9870505463</desc></polyline><polyline fill="none" points="21.106401165015996,249.2727272727643 20.824529370758682,249.82328583922936 20.42990885931067,251.65847842936637 19.922539630206302,252.5149002528051 19.697042194660753,253.18780249543488 18.456806301139295,255.2065059581655 18.00581143074669,256.307614873338 17.723939636722207,257.2863771299599 17.949437071802095,257.95927551347995 19.189672965323552,260.6508636053768 19.809790912317112,261.6296207527048 20.260785782709718,262.66954896005336 20.993652447359636,263.6483037326252 21.388272959040478,264.3211969708209 21.895642188144848,265.91166973434156 24.094242181628942,268.90909090911737" stroke="#4dd2ff" stroke-linecap="round" stroke-linejoin="round" stroke-width="0.5"><title>2023-09-16 1.0km</title><desc>9856514700</desc></polyline><polyline fill="none" points="43.23505065962672,249.2727272727643 42.63184433314018,251.10547287203372 41.84767610835843,252.34911952260882 40.219019026495516,255.49095595336985 40.158698393497616,256.2109585738508 40.219019026495516,257.0618700106861 40.58094282238744,257.912780634244 41.184149149106815,258.8291450116085 41.72703484282829,260.07278087211307 42.69216496567242,261.70914119959343 43.898577619111165,264.0000406051986 44.019218884408474,264.85094459721586 44.44146331306547,265.17821514682146 44.924028374487534,265.83275588508695 45.708196598803625,267.14183591800975 46.552685456117615,267.86182911565993 46.73364735417999,268.3200063018594 46.85428861971013,268.90909090911737" stroke="#4dd2ff" stroke-linecap="round" stroke-linejoin="round" stroke-width="0.5"><title>2023-09-15 1.0km</title><desc>9850671982</desc></polyline><polyline fill="none" points="66.60310071590357,249.2727272727643 65.60469149216078,251.91350399161456 64.4814811151009,253.53859359305352 63.982276503462344,254.4188492631656 63.23346958542243,256.31478169490583 63.04626785591245,256.9918994746404 63.04626785591245,257.5335933396127 63.23346958542243,258.2107102231821 63.982276503462344,260.24205788661493 64.66868284461088,261.5962871729862 66.35349840996787,264.50787339551607 67.03990475134924,265.79438530578045 67.16470590420067,266.5392071692622 67.6639105163049,267.0131844050484 68.4751180105377,268.29969281551894 69.16152435191907,268.90909090911737" stroke="#4dd2ff" stroke-linecap="round" stroke-linejoin="round" stroke-width="0.5"><title>2023-09-14 1.0km</title><desc>9844236351</desc></polyline><polyline fill="none" points="85.5804769762326,249.2727272727643 85.93970825406723,249.56508434808347 86.074419983197,249.85744129441446 86.16422780253924,250.4908809022163 86.4336512607988,251.02686778991483 86.61326689971611,252.537373958854 86.61326689971611,253.26826280454407 86.52345908037387,253.65806985925883 86.61326689971611,254.14532835537102 86.83778644818813,254.73003807774512 86.74797862884589,255.21729578560917 86.79288253863342,255.4609245051397 87.24192163581029,256.2892614818411 87.64605682319961,257.5074022138142 88.00528810080141,258.189560045721 88.45432719797827,258.8229916894343 88.94827020470984,259.26152093417477 89.08298193383962,259.55387360288296 89.21769366320223,260.1873039426282 89.57692494080402,260.82073367695557 89.98106012819335,261.9901408266742 90.51990704471245,263.0133703900501 90.789330502972,263.8904230442131 90.92404223210178,264.62129936920246 91.19346569036134,265.20599984913133 91.68740869732574,266.81392350868555 92.36096734297462,268.0807697052369 92.40587125299498,268.2756689051748 92.36096734297462,268.4218432675116 91.82212042645551,268.90909090911737 92.09154388471507,268.71419189544395 92.22625561384484,268.4218432675116 92.31606343318708,268.1782193123945 92.27115952386521,267.8371456247405 92.00173606537282,267.4960717615322 91.19346569036134,265.7419748356333 90.789330502972,264.4263990946929 89.93615621863864,262.52611841395264 89.53202103101648,260.67455763818 89.30750148254447,260.1385785534512 88.45432719797827,259.0178936118609 87.60115291341208,257.4099510376691 87.19701772578992,256.09435875696363 87.0623059971258,255.21729578560917 86.70307471905835,254.29150583437877 85.98461216385476,252.73227772989776 85.80499652470462,252.0013882930507 85.17634178884327,250.83196351729566 85.0416300597135,250.19852423545672 84.99672614992596,249.41890582657652" stroke="#4dd2ff" stroke-linecap="round" stroke-linejoin="round" stroke-width="0.5"><title>2023-09-13 1.0km</title><desc>9837636972</desc></polyline></svg>