<svg xmlns="http://www.w3.org/2000/svg" xmlns:ev="http://www.w3.org/2001/xml-events" xmlns:xlink="http://www.w3.org/1999/xlink" width="200mm" height="300mm" baseProfile="full" version="1.1" viewBox="0 0 200 300"><rect width="200" height="300" x="0" y="0" fill="#222"/><text fill="#FFF" style="font-size:12px;font-family:Arial;font-weight:700" x="10" y="20">Over 1km Runs</text><text fill="#FFF" style="font-size:4px;font-family:Arial" x="10" y="280">ATHLETE</text><text fill="#FFF" style="font-size:9px;font-family:Arial" x="10" y="290">Jiakai</text><text fill="#FFF" style="font-size:4px;font-family:Arial" x="120" y="280">STATISTICS</text><text fill="#FFF" style="font-size:3px;font-family:Arial" x="120" y="285">Number: 91</text><text fill="#FFF" style="font-size:3px;font-family:Arial" x="120" y="290">Weekly: 5.7</text><text fill="#FFF" style="font-size:3px;font-family:Arial" x="141" y="285">Total: 94.3 km</text><text fill="#FFF" style="font-size:3px;font-family:Arial" x="141" y="290">Avg: 1.0 km</text><text fill="#FFF" style="font-size:3px;font-family:Arial" x="167" y="285">Min: 1.0 km</text><text fill="#FFF" style="font-size:3px;font-family:Arial" x="167" y="290">Max: 1.5 km</text><polyline fill="none" stroke="#4dd2ff" stroke-linecap="round" stroke-linejoin="round" stroke-width=".5" points="16.367 31.298 19.52 40.521 22.81 48.405 23.496 49 23.633 48.405 23.222 47.364 19.794 40.818 18.561 37.545 16.778 31"><title>2024-01-01 1.0km</title><desc>10470902913</desc></polyline><polyline fill="none" stroke="#4dd2ff" stroke-linecap="round" stroke-linejoin="round" stroke-width=".5" points="50.474 35.408 50.248 35.776 47.879 37.49 46.863 38.592 46.186 39.816 45.735 40.429 45.396 40.551 43.929 40.551 42.575 41.041 40.77 40.918 39.867 40.551 39.303 39.694 38.964 38.959 38.851 37.245 38.513 36.51 37.159 36.51 36.03 36.878 35.917 37 36.369 37.245 36.594 37 35.805 37 35.579 36.755 35.353 35.898 35.24 34.429 35.805 34.551 36.256 35.531 37.272 36.633 38.061 36.633 38.738 36.143 39.303 36.265 39.416 36.02 38.4 33.082 38.174 32.959 36.933 32.837 35.692 32.959 36.482 32.959 35.353 31.735 35.24 31 35.579 31.49 35.917 33.082 36.256 33.816 36.594 35.408 35.917 39.571 36.707 43.367 37.384 44.469 37.497 46.306 38.513 49"><title>2023-12-31 1.5km</title><desc>10466792666</desc></polyline><polyline fill="none" stroke="#4dd2ff" stroke-linecap="round" stroke-linejoin="round" stroke-width=".5" points="63.327 35.273 64.64 39.935 66.43 43.691 67.982 48.094 68.459 49 68.698 49 68.817 47.964 68.34 46.54 66.192 42.137 66.192 40.971 64.64 37.604 64.402 35.014 63.924 33.46 62.611 31"><title>2023-12-30 1.0km</title><desc>10458865202</desc></polyline><polyline fill="none" stroke="#4dd2ff" stroke-linecap="round" stroke-linejoin="round" stroke-width=".5" points="89.55 31 87.284 31.224 85.738 32.23 84.605 33.348 84.09 34.689 83.678 39.944 84.193 45.199 84.399 45.981 84.708 46.652 86.356 48.441 88.211 49 89.653 48.776 91.405 47.658 92.435 46.764 93.465 43.745 93.362 41.398 93.053 39.385 92.847 34.466 92.538 33.236 91.92 32.453 91.199 31.894 89.55 31.559 87.284 31.671 85.635 32.565 84.811 33.571 84.193 35.137 84.193 35.919 84.502 37.82 84.296 39.385"><title>2023-12-29 1.0km</title><desc>10454615358</desc></polyline><polyline fill="none" stroke="#4dd2ff" stroke-linecap="round" stroke-linejoin="round" stroke-width=".5" points="108.915 32.909 110.675 39.182 113.439 47.636 114.319 49 114.445 49 114.445 47.636 112.56 41.909 111.052 38.227 110.046 36.318 108.412 31"><title>2023-12-27 1.0km</title><desc>10441997651</desc></polyline><polyline fill="none" stroke="#4dd2ff" stroke-linecap="round" stroke-linejoin="round" stroke-width=".5" points="130.893 33.318 132.903 37.273 133.909 41.364 135.291 43.955 136.925 48.182 137.427 49 137.679 48.864 136.799 46.273 135.542 44.364 131.521 34.818 131.27 32.227 130.893 31"><title>2023-12-17 1.0km</title><desc>10391591057</desc></polyline><polyline fill="none" stroke="#4dd2ff" stroke-linecap="round" stroke-linejoin="round" stroke-width=".5" points="154.222 34.169 155.624 37.845 157.961 42.408 160.063 48.493 160.531 49 160.647 48.873 160.647 48.366 160.063 46.718 156.909 40.507 155.507 36.704 154.456 32.394 153.638 31"><title>2023-12-16 1.0km</title><desc>10386207035</desc></polyline><polyline fill="none" stroke="#4dd2ff" stroke-linecap="round" stroke-linejoin="round" stroke-width=".5" points="177.568 34.383 178.067 36.684 179.813 41.962 180.811 43.586 182.183 48.053 182.557 49 182.806 49 182.806 47.647 180.935 41.962 178.316 37.902 178.191 36.278 177.443 34.383 177.693 33.165 177.194 31"><title>2023-12-14 1.0km</title><desc>10376526598</desc></polyline><polyline fill="none" stroke="#4dd2ff" stroke-linecap="round" stroke-linejoin="round" stroke-width=".5" points="23.864 52.565 22.936 51.783 21.391 51.112 19.948 51 18.506 51.335 16.652 52.342 15.827 53.46 15.209 55.36 15.209 59.609 15.415 60.95 15.827 62.627 15.518 64.64 15.621 65.422 15.724 65.87 16.755 67.658 18.403 68.888 18.918 69 19.948 69 20.979 69 22.833 68.329 23.864 67.323 24.482 66.205 24.688 63.745 24.791 62.068 24.482 60.056 24.688 57.373 24.585 55.025 24.482 54.242 23.761 52.677 23.451 52.342 22.318 51.559 20.052 51.335 18.609 51.559 17.785 51.894 16.239 53.571 15.621 55.919 15.827 57.484"><title>2023-12-13 1.0km</title><desc>10373769329</desc></polyline><polyline fill="none" stroke="#4dd2ff" stroke-linecap="round" stroke-linejoin="round" stroke-width=".5" points="40.691 53.552 41.929 58.657 43.167 61.343 45.643 68.328 46.138 69 46.385 69 46.509 68.463 46.014 67.657 44.033 64.299 41.186 58.522 40.815 56.776 39.453 53.821 39.205 51"><title>2023-12-12 1.0km</title><desc>10365882163</desc></polyline><polyline fill="none" stroke="#4dd2ff" stroke-linecap="round" stroke-linejoin="round" stroke-width=".5" points="62.21 51 63.495 53.789 65.247 58.225 66.532 60.634 68.401 66.465 68.635 67.986 69.102 69 69.219 68.113 68.985 67.099 66.532 61.521 64.78 58.099 64.312 56.704 63.962 53.789 63.027 51.127"><title>2023-12-11 1.0km</title><desc>10361067591</desc></polyline><polyline fill="none" stroke="#4dd2ff" stroke-linecap="round" stroke-linejoin="round" stroke-width=".5" points="88.932 61.044 91.336 68.348 91.456 68.739 91.937 69 92.057 68.87 91.697 67.957 90.615 65.87 89.413 62.609 86.047 55.826 85.085 51"><title>2023-12-10 1.0km</title><desc>10355395415</desc></polyline><polyline fill="none" stroke="#4dd2ff" stroke-linecap="round" stroke-linejoin="round" stroke-width=".5" points="108.257 52.191 110.331 55.5 111.307 59.603 113.38 65.426 114.112 68.603 114.6 69 114.722 68.868 114.722 68.603 114.478 67.544 111.916 62.382 111.307 60.926 110.941 58.676 110.331 56.956 109.355 55.235 109.233 53.382 108.135 51"><title>2023-12-09 1.0km</title><desc>10350143310</desc></polyline><polyline fill="none" stroke="#4dd2ff" stroke-linecap="round" stroke-linejoin="round" stroke-width=".5" points="132.367 54.493 133.11 57.179 134.719 61.075 136.947 67.522 137.938 69 137.814 67.657 137.071 65.373 135.09 61.881 133.852 58.925 132.491 56.776 132.119 54.627 130.634 51"><title>2023-12-08 1.0km</title><desc>10345303898</desc></polyline><polyline fill="none" stroke="#4dd2ff" stroke-linecap="round" stroke-linejoin="round" stroke-width=".5" points="154.243 51 154.475 51.629 154.939 53.266 155.171 55.531 155.635 57.42 157.259 61.448 158.303 65.098 159.347 67.364 159.579 69 159.811 68.874 160.043 68.622 160.043 68.245 159.463 66.734 157.607 63.587 155.403 57.168 154.823 54.524"><title>2023-12-07 1.0km</title><desc>10340288256</desc></polyline><polyline fill="none" stroke="#4dd2ff" stroke-linecap="round" stroke-linejoin="round" stroke-width=".5" points="176.658 51 177.374 52.683 178.687 58.252 180.597 61.748 182.148 66.022 182.864 68.741 183.222 69 183.342 68.094 183.103 66.928 181.193 62.914 179.881 60.971 179.165 59.547 176.778 51.388"><title>2023-12-06 1.0km</title><desc>10334845031</desc></polyline><polyline fill="none" stroke="#4dd2ff" stroke-linecap="round" stroke-linejoin="round" stroke-width=".5" points="18.341 74.103 19.142 78.2 19.943 81.179 21.888 86.269 22.917 88.628 23.26 89 22.803 86.766 21.659 84.655 20.629 81.676 19.142 78.572 18.456 76.214 17.312 73.731 16.74 71"><title>2023-12-05 1.0km</title><desc>10329306344</desc></polyline><polyline fill="none" stroke="#4dd2ff" stroke-linecap="round" stroke-linejoin="round" stroke-width=".5" points="39.551 72.51 40.363 73.769 41.407 77.42 43.495 82.58 44.539 86.105 45.467 88.119 46.163 89 46.163 88.371 43.147 81.448 41.987 77.545 40.711 74.65 39.783 71"><title>2023-12-04 1.0km</title><desc>10324662812</desc></polyline><polyline fill="none" stroke="#4dd2ff" stroke-linecap="round" stroke-linejoin="round" stroke-width=".5" points="62.588 72.662 63.864 77.508 65.906 82.077 67.309 86.923 68.33 88.862 69.096 89 69.096 88.446 68.203 86.923 67.054 83.6 65.778 81.662 64.885 79.308 63.354 73.769 62.333 71"><title>2023-12-02 1.0km</title><desc>10313350310</desc></polyline><polyline fill="none" stroke="#4dd2ff" stroke-linecap="round" stroke-linejoin="round" stroke-width=".5" points="85.304 71.955 86.561 73.591 88.069 78.773 89.074 83 90.708 87.636 91.713 89 91.839 88.182 91.587 86.545 90.205 83.545 88.069 80.136 86.812 77.545 85.555 71"><title>2023-12-01 1.0km</title><desc>10308709030</desc></polyline><polyline fill="none" stroke="#4dd2ff" stroke-linecap="round" stroke-linejoin="round" stroke-width=".5" points="108.111 71 110.599 79.55 113.087 84.65 114.47 88.4 114.884 89 115.023 88.55 114.47 87.05 112.396 84.2 111.843 82.7 109.77 78.65 108.802 74 107.834 71.3"><title>2023-11-30 1.0km</title><desc>10303537703</desc></polyline><polyline fill="none" stroke="#4dd2ff" stroke-linecap="round" stroke-linejoin="round" stroke-width=".5" points="132.226 74.848 133.027 77.455 133.37 79.566 134.629 82.048 136.002 85.772 137.375 88.752 137.603 89 137.832 88.752 137.603 87.883 136.688 86.269 135.43 82.793 133.599 79.069 132.913 75.097 131.54 72.986 130.739 71"><title>2023-11-29 1.0km</title><desc>10298007687</desc></polyline><polyline fill="none" stroke="#4dd2ff" stroke-linecap="round" stroke-linejoin="round" stroke-width=".5" points="154.04 73.331 155.353 76.698 155.591 79.158 157.262 83.173 158.217 86.799 159.052 88.482 159.888 89 160.246 89 160.484 88.612 160.365 88.094 159.888 87.187 157.978 82.137 156.069 77.734 155.711 75.662 154.875 73.201 153.801 71"><title>2023-11-28 1.0km</title><desc>10292316108</desc></polyline><polyline fill="none" stroke="#4dd2ff" stroke-linecap="round" stroke-linejoin="round" stroke-width=".5" points="179.577 71 180.634 73.866 181.268 76.618 182.113 77.879 183.064 79.713 184.015 82.694 184.86 84.07 184.86 84.758 184.332 85.217 182.641 86.134 181.585 87.051 180.528 87.624 178.943 88.312 176.408 89 175.985 88.885 175.668 88.541 175.14 86.363"><title>2023-11-27 1.0km</title><desc>10287544518</desc></polyline><polyline fill="none" stroke="#4dd2ff" stroke-linecap="round" stroke-linejoin="round" stroke-width=".5" points="18.26 94.902 18.84 96.287 20.232 103.336 21.74 106.986 22.552 108.371 23.132 109 23.248 108.874 22.9 108.245 22.9 107.238 21.972 105.098 20.928 101.573 19.884 99.434 19.188 95.406 17.216 92.259 16.752 91"><title>2023-11-26 1.0km</title><desc>10281488289</desc></polyline><polyline fill="none" stroke="#4dd2ff" stroke-linecap="round" stroke-linejoin="round" stroke-width=".5" points="39.58 91 40.917 94.484 42.121 99.419 43.325 102.177 43.593 103.919 44.262 105.516 45.733 108.274 46.402 109 46.67 109 44.663 104.645 44.396 103.194 43.058 101.306 40.382 94.048 39.044 91.581"><title>2023-11-25 1.0km</title><desc>10275889695</desc></polyline><polyline fill="none" stroke="#4dd2ff" stroke-linecap="round" stroke-linejoin="round" stroke-width=".5" points="62.226 91.168 63.156 95.374 67.497 107.15 68.582 108.832 69.047 109 69.203 108.495 67.652 106.477 65.792 100.925 64.552 98.402 63.776 93.523 62.846 91"><title>2023-11-24 1.0km</title><desc>10271180196</desc></polyline><polyline fill="none" stroke="#4dd2ff" stroke-linecap="round" stroke-linejoin="round" stroke-width=".5" points="86.333 93 86.728 94.143 87.65 99 89.888 105.857 90.941 108.714 91.336 109 91.863 109 91.994 108.714 91.731 107.286 90.283 103.143 86.465 94.857 85.148 91"><title>2023-11-23 1.0km</title><desc>10265414399</desc></polyline><polyline fill="none" stroke="#4dd2ff" stroke-linecap="round" stroke-linejoin="round" stroke-width=".5" points="109.852 95.056 109.968 96.831 110.436 99.62 112.305 104.944 112.889 107.479 113.823 109 114.524 109 114.407 108.239 113.122 104.944 112.071 103.296 110.552 98.606 108.8 93.789 108.333 91"><title>2023-11-21 1.0km</title><desc>10253878272</desc></polyline><polyline fill="none" stroke="#4dd2ff" stroke-linecap="round" stroke-linejoin="round" stroke-width=".5" points="132.348 95.861 132.954 99.803 135.497 106.241 136.586 108.606 136.95 109 137.192 108.869 137.313 108.606 136.828 106.504 134.649 101.774 133.801 99.277 132.469 94.153 131.743 92.839 131.259 91"><title>2023-11-20 1.0km</title><desc>10248671423</desc></polyline><polyline fill="none" stroke="#4dd2ff" stroke-linecap="round" stroke-linejoin="round" stroke-width=".5" points="153.938 92.5 155.698 96.318 156.2 100.273 157.583 103.409 158.965 107.364 159.593 108.318 160.347 109 160.222 107.909 158.085 102.318 156.703 97.273 155.321 94 154.567 91"><title>2023-11-19 1.0km</title><desc>10242265034</desc></polyline><polyline fill="none" stroke="#4dd2ff" stroke-linecap="round" stroke-linejoin="round" stroke-width=".5" points="176.502 107.038 177.288 104.564 177.602 103.967 178.153 103.626 180.825 103.284 182.791 102.858 183.42 102.346 183.813 101.834 184.285 99.701 184.127 99.019 184.442 98.507 184.206 94.583 184.049 94.071 183.97 92.536 183.813 91.597 182.948 91.341 182.241 91.853 182.398 91.597 182.555 91.853 181.533 91.341 181.454 91 181.219 91.171 181.376 91.085 180.825 91.768 180.904 91.682 182.555 92.536 182.162 92.877 181.533 93.133 180.039 93.389 179.961 93.047 180.354 92.877 180.904 92.962 182.555 91.341 184.835 91.427 184.599 91.256 184.285 91.171 184.049 95.265 184.127 96.46 184.363 97.91 184.52 100.384 184.52 101.237 184.285 102.09 183.813 102.602 179.882 103.028 178.074 103.37 177.131 104.052 176.03 105.588 175.401 107.806 175.165 109"><title>2023-11-18 1.0km</title><desc>10236386505</desc></polyline><polyline fill="none" stroke="#4dd2ff" stroke-linecap="round" stroke-linejoin="round" stroke-width=".5" points="16.327 111 18.934 115.5 19.882 118.843 20.237 120.771 20.948 121.929 23.199 128.486 23.673 129 23.673 128.486 23.199 127.843 21.896 123.986 21.185 122.7 20.948 120.514 19.882 117.814 18.697 115.243 18.578 113.829"><title>2023-11-17 1.0km</title><desc>10231268371</desc></polyline><polyline fill="none" stroke="#4dd2ff" stroke-linecap="round" stroke-linejoin="round" stroke-width=".5" points="39.646 111.581 41.386 114.048 41.787 117.387 42.991 120 44.864 126.968 46.068 129 45.934 127.839 44.998 125.952 44.329 124.065 43.258 119.565 41.118 115.065 40.449 113.032 40.048 111"><title>2023-11-16 1.0km</title><desc>10225818993</desc></polyline><polyline fill="none" stroke="#4dd2ff" stroke-linecap="round" stroke-linejoin="round" stroke-width=".5" points="62.593 111.194 63.485 114.677 64.912 118.548 66.874 122.226 67.587 125.129 68.836 127.645 70.084 129 66.874 123 65.447 118.548 61.344 111"><title>2023-11-15 1.0km</title><desc>10219684298</desc></polyline><polyline fill="none" stroke="#4dd2ff" stroke-linecap="round" stroke-linejoin="round" stroke-width=".5" points="85.391 113.165 87.012 115.196 87.262 117.767 89.133 122.233 90.255 126.023 91.378 128.865 91.877 129 91.752 127.376 90.13 125.211 89.507 123.316 88.509 122.098 88.135 120.609 86.264 116.82 85.64 114.113 85.266 111"><title>2023-11-14 1.0km</title><desc>10213806154</desc></polyline><polyline fill="none" stroke="#4dd2ff" stroke-linecap="round" stroke-linejoin="round" stroke-width=".5" points="109.024 113.478 109.986 117.13 112.631 123.913 113.232 126.13 114.434 128.609 114.794 129 114.073 127.696 112.39 123.652 112.27 122.609 111.068 119.739 109.265 116.478 108.544 114.261 108.063 111"><title>2023-11-13 1.0km</title><desc>10208522228</desc></polyline><polyline fill="none" stroke="#4dd2ff" stroke-linecap="round" stroke-linejoin="round" stroke-width=".5" points="132.275 113.045 133.532 116.864 135.04 120 135.919 123.682 136.799 126.273 137.93 128.727 138.433 129 138.684 128.455 137.302 125.727 136.548 122.727 133.783 120.136 132.275 117.955 132.024 115.636 129.887 111"><title>2023-11-12 1.0km</title><desc>10202270880</desc></polyline><polyline fill="none" stroke="#4dd2ff" stroke-linecap="round" stroke-linejoin="round" stroke-width=".5" points="154.419 114.358 157.39 121.075 158.381 124.433 159.371 127.119 159.99 128.328 160.609 129 160.733 128.463 159.619 125.104 157.514 121.881 155.286 116.776 154.419 113.149 153.553 111"><title>2023-11-11 1.0km</title><desc>10196068378</desc></polyline><polyline fill="none" stroke="#4dd2ff" stroke-linecap="round" stroke-linejoin="round" stroke-width=".5" points="178.327 113.684 180.364 119.842 182.255 124.895 183.129 128.211 183.711 129 184.002 128.684 183.565 126.789 181.382 121.895 179.2 117.316 176.289 112.737 175.998 111"><title>2023-11-10 1.0km</title><desc>10191120477</desc></polyline><polyline fill="none" stroke="#4dd2ff" stroke-linecap="round" stroke-linejoin="round" stroke-width=".5" points="15.821 131.55 17.974 133.198 19.24 135.397 19.62 136.221 19.62 137.458 21.013 141.718 21.52 144.191 22.533 146.939 22.786 148.313 23.419 149 23.799 148.863 24.179 148.313 22.786 147.351 20.507 144.053 17.847 136.771 17.214 132.649 16.581 131"><title>2023-11-09 1.0km</title><desc>10185506531</desc></polyline><polyline fill="none" stroke="#4dd2ff" stroke-linecap="round" stroke-linejoin="round" stroke-width=".5" points="39.346 132.445 40.678 135.073 41.162 136.387 42.736 139.803 43.341 142.168 43.22 140.723 43.463 141.642 43.947 145.19 45.037 148.474 45.521 149 46.126 148.737 46.369 148.343 45.037 147.161 44.068 145.584 43.463 143.876 42.615 140.985 41.404 139.277 40.072 136.387 39.709 134.285 39.83 131.657 39.588 131"><title>2023-11-08 1.0km</title><desc>10179505859</desc></polyline><polyline fill="none" stroke="#4dd2ff" stroke-linecap="round" stroke-linejoin="round" stroke-width=".5" points="64.902 140.944 68.962 149 69.194 148.874 68.614 147.49 67.57 145.727 66.874 143.965 65.482 142.455 65.018 141.573 64.67 138.552 64.438 137.671 63.046 135.28 62.234 131"><title>2023-11-06 1.0km</title><desc>10167691585</desc></polyline><polyline fill="none" stroke="#4dd2ff" stroke-linecap="round" stroke-linejoin="round" stroke-width=".5" points="86.841 136.05 87.676 137.604 90.779 144.727 92.092 148.741 92.331 149 92.569 149 92.569 148.612 91.615 146.54 90.779 145.374 90.66 144.727 89.944 143.95 87.915 140.453 85.528 134.367 84.574 131"><title>2023-11-05 1.1km</title><desc>10161301187</desc></polyline><polyline fill="none" stroke="#4dd2ff" stroke-linecap="round" stroke-linejoin="round" stroke-width=".5" points="108.063 131 110.467 136.348 111.549 141.044 113.232 144.304 113.833 146.913 114.434 149 114.794 148.609 114.674 148.217 113.111 145.348 112.991 144.957 111.549 142.739 110.948 140.652 109.385 137.783 109.024 135.304 108.303 132.696"><title>2023-11-04 1.0km</title><desc>10155501797</desc></polyline><polyline fill="none" stroke="#4dd2ff" stroke-linecap="round" stroke-linejoin="round" stroke-width=".5" points="139.115 133.734 137.75 131.911 136.91 131.342 135.231 131 133.656 131.114 131.451 132.139 130.506 133.051 129.666 134.76 129.456 136.127 129.142 140.684 129.351 145.468 129.561 146.152 130.611 147.861 131.871 148.772 133.971 149 135.86 148.203 137.645 146.038 138.17 145.013 138.905 141.709 138.905 139.089 139.43 135.671 139.325 134.418 138.17 133.051 137.225 132.367 135.021 131.342 133.866 131.342 131.346 132.139 130.191 133.165 129.456 134.532 129.246 135.443 129.456 139.203 129.246 140.911"><title>2023-11-03 1.0km</title><desc>10152446508</desc></polyline><polyline fill="none" stroke="#4dd2ff" stroke-linecap="round" stroke-linejoin="round" stroke-width=".5" points="153.417 131 154.402 133.136 155.245 136.949 156.651 139.695 158.76 145.186 159.181 146.102 159.884 148.542 160.306 149 160.868 149 160.868 148.695 159.884 148.237 159.462 147.169 158.478 146.254 157.775 144.271 156.791 142.746 155.667 140.458 154.402 135.729 153.558 133.746"><title>2023-11-02 1.1km</title><desc>10144903556</desc></polyline><polyline fill="none" stroke="#4dd2ff" stroke-linecap="round" stroke-linejoin="round" stroke-width=".5" points="176.935 132.304 177.175 133.739 178.137 135.957 179.82 141.957 182.705 147.957 183.546 149 183.065 147.435 181.262 144.696 180.301 141.174 179.098 139.478 177.656 136.348 176.454 131"><title>2023-11-01 1.0km</title><desc>10138966680</desc></polyline><polyline fill="none" stroke="#4dd2ff" stroke-linecap="round" stroke-linejoin="round" stroke-width=".5" points="17.381 151.271 18.004 153.301 19.002 158.714 20.624 162.233 21.621 165.481 23.243 169 23.368 168.865 22.245 167.241 20.624 163.451 19.252 161.015 16.882 153.842 16.632 151"><title>2023-10-31 1.0km</title><desc>10133123337</desc></polyline><polyline fill="none" stroke="#4dd2ff" stroke-linecap="round" stroke-linejoin="round" stroke-width=".5" points="40.031 153.133 40.645 156.333 40.645 157.533 41.997 159.8 45.683 167.667 46.298 168.867 46.543 169 43.717 163.4 42.489 159.933 41.137 157.133 39.171 151"><title>2023-10-30 1.0km</title><desc>10127985445</desc></polyline><polyline fill="none" stroke="#4dd2ff" stroke-linecap="round" stroke-linejoin="round" stroke-width=".5" points="62.877 153.605 63.422 157.276 63.75 158.461 65.933 163.553 67.024 166.513 68.661 168.763 69.097 169 69.207 168.645 68.224 167.105 66.806 164.026 64.296 159.408 63.313 155.974 62.549 154.434 62.44 152.066 62.222 151"><title>2023-10-28 1.0km</title><desc>10115543824</desc></polyline><polyline fill="none" stroke="#4dd2ff" stroke-linecap="round" stroke-linejoin="round" stroke-width=".5" points="86.237 154.733 87.22 157.933 88.326 160.467 89.309 164.067 90.783 167.533 91.398 168.867 92.012 169 92.135 168.867 91.889 168.067 91.152 166.067 88.694 161.267 86.728 155.933 85.5 153.267 85.008 151"><title>2023-10-27 1.0km</title><desc>10110442644</desc></polyline><polyline fill="none" stroke="#4dd2ff" stroke-linecap="round" stroke-linejoin="round" stroke-width=".5" points="108.989 153.779 111.307 161.588 112.16 163.971 113.014 165.426 113.99 168.206 114.356 168.735 115.088 169 115.21 168.603 115.088 168.074 113.868 166.485 112.038 163.309 109.843 156.824 108.379 154.441 107.647 151"><title>2023-10-26 1.0km</title><desc>10104873905</desc></polyline><polyline fill="none" stroke="#4dd2ff" stroke-linecap="round" stroke-linejoin="round" stroke-width=".5" points="133.384 159.609 136.149 166.522 137.471 168.87 137.952 169 137.832 167.696 134.586 162.087 132.783 157.522 131.22 154.261 130.619 151"><title>2023-10-25 1.0km</title><desc>10098978222</desc></polyline><polyline fill="none" stroke="#4dd2ff" stroke-linecap="round" stroke-linejoin="round" stroke-width=".5" points="153.813 151 153.692 151.92 154.418 154.942 155.387 156.912 155.993 159.277 157.082 162.431 159.383 166.898 160.109 168.737 160.352 169 160.594 168.869 160.473 167.161 159.141 164.664 158.172 163.219 156.961 160.46 156.719 159.015 155.266 156.781 154.418 154.81 154.176 152.445 153.813 151"><title>2023-10-24 1.0km</title><desc>10092835699</desc></polyline><polyline fill="none" stroke="#4dd2ff" stroke-linecap="round" stroke-linejoin="round" stroke-width=".5" points="178.15 154.108 179.94 160.453 180.776 162.007 181.73 165.892 183.163 168.482 183.759 169 183.163 168.353 182.327 166.281 180.179 163.691 179.702 162.784 179.224 159.806 177.792 156.957 176.837 153.978 176.241 151"><title>2023-10-23 1.0km</title><desc>10087395010</desc></polyline><polyline fill="none" stroke="#4dd2ff" stroke-linecap="round" stroke-linejoin="round" stroke-width=".5" points="14.172 171.086 14.49 171 16.758 171.173 17.752 171.432 17.991 171.561 18.508 171.95 18.866 172.381 19.662 173.849 20.06 175.489 20.577 176.353 20.815 177.043 21.372 178.295 21.77 179.59 22.367 180.626 22.645 180.928 23.003 181.532 23.202 182.827 23.322 183.173 23.64 183.648 23.719 184.381 23.839 184.684 25.589 188.827 25.828 189 25.828 188.784 25.47 188.439 25.072 187.489 24.674 186.669 23.6 183.345"><title>2023-10-22 1.5km</title><desc>10080655811</desc></polyline><polyline fill="none" stroke="#4dd2ff" stroke-linecap="round" stroke-linejoin="round" stroke-width=".5" points="39.994 171 40.626 171.457 39.489 171.274 41.257 173.558 41.426 174.107 41.299 174.563 40.71 174.883 40.542 175.203 40.584 175.751 40.92 177.076 41.299 178.036 41.72 179.498 42.478 180.822 42.605 181.325 43.068 182.147 43.362 182.513 43.404 182.741 43.699 183.015 43.91 183.472 44.204 184.34 44.499 184.934 44.457 186.122 45.004 187.173 45.173 187.675 45.467 188.223 45.973 188.863 46.225 189 45.257 187.629 45.046 186.899 44.625 185.985 44.457 185.391 43.91 184.614 43.447 183.289"><title>2023-10-20 1.4km</title><desc>10069668027</desc></polyline><polyline fill="none" stroke="#4dd2ff" stroke-linecap="round" stroke-linejoin="round" stroke-width=".5" points="62.092 171 62.178 171.698 62.864 173.372 63.035 174.395 64.45 177.837 64.578 178.302 64.664 179 64.836 179.465 65.864 180.907 66.422 182.023 66.764 183.14 67.064 183.744 67.236 184.674 67.45 185.14 68.007 186.581 68.093 187.14 68.908 188.814 69.122 189 69.251 189 69.336 188.953 69.293 188.907 68.436 187.837 68.05 186.535 67.236 185.047 67.107 184.442 67.022 183.419"><title>2023-10-19 1.3km</title><desc>10064004415</desc></polyline><polyline fill="none" stroke="#4dd2ff" stroke-linecap="round" stroke-linejoin="round" stroke-width=".5" points="84.513 171 86.277 173.298 86.16 174.957 86.395 176.617 87.218 179.553 88.395 181.468 89.571 184.787 91.924 188.617 92.277 189 92.63 188.872 91.101 187.34 88.277 181.851 87.571 179.426 85.571 175.213"><title>2023-10-18 1.0km</title><desc>10058081424</desc></polyline><polyline fill="none" stroke="#4dd2ff" stroke-linecap="round" stroke-linejoin="round" stroke-width=".5" points="108.287 172.091 109.292 177.955 111.931 184.909 113.691 188.591 114.445 189 114.822 189 115.073 188.455 114.193 187.364 113.062 185.591 111.554 182.318 110.926 180.409 108.287 175.091 108.035 174.273 107.784 171"><title>2023-10-17 1.0km</title><desc>10051702317</desc></polyline><polyline fill="none" stroke="#4dd2ff" stroke-linecap="round" stroke-linejoin="round" stroke-width=".5" points="130.266 171.415 131.542 173.631 133.456 178.615 134.477 180.554 135.626 184.154 137.029 187.754 137.54 188.723 138.178 189 138.305 188.862 138.178 188.446 136.774 186.369 134.86 181.662 133.456 178.754 132.308 173.354 131.67 171"><title>2023-10-16 1.0km</title><desc>10046279660</desc></polyline><polyline fill="none" stroke="#4dd2ff" stroke-linecap="round" stroke-linejoin="round" stroke-width=".5" points="153.457 171 153.983 172.143 154.51 174.714 155.695 178.714 157.275 181.143 159.118 188 159.776 188.714 160.698 189 160.829 188.714 160.698 187.857 158.986 185.429 158.064 182.571 157.011 180.857 154.51 175 153.588 171"><title>2023-10-15 1.0km</title><desc>10039610121</desc></polyline><polyline fill="none" stroke="#4dd2ff" stroke-linecap="round" stroke-linejoin="round" stroke-width=".5" points="176.254 172.306 176.656 176.516 177.726 179.565 179.064 181.452 179.866 184.065 182.14 188.129 182.676 188.71 183.344 189 183.746 188.71 183.746 188.274 181.07 186.097 179.331 182.903 178.662 180.145 177.057 176.516 176.254 173.468 176.388 171.581 176.254 171"><title>2023-10-14 1.0km</title><desc>10033377496</desc></polyline><polyline fill="none" stroke="#4dd2ff" stroke-linecap="round" stroke-linejoin="round" stroke-width=".5" points="15.919 191.286 18.288 194.143 18.552 196.286 20.79 203.143 22.896 208.143 23.555 209 24.081 209 24.081 208.571 23.95 208.143 22.765 207.286 21.448 204.857 20 200.286 17.367 194.429 16.972 192.429 16.314 191"><title>2023-10-13 1.0km</title><desc>10028006924</desc></polyline><polyline fill="none" stroke="#4dd2ff" stroke-linecap="round" stroke-linejoin="round" stroke-width=".5" points="38.995 191 40.261 192.649 41.021 194.023 41.148 195.809 41.021 197.733 42.414 200.618 44.06 205.015 45.706 208.038 46.086 208.588 46.719 209 46.719 208.313 45.326 206.527 44.06 204.328 42.414 199.794 41.401 198.008 40.894 196.496"><title>2023-10-12 1.0km</title><desc>10021974100</desc></polyline><polyline fill="none" stroke="#4dd2ff" stroke-linecap="round" stroke-linejoin="round" stroke-width=".5" points="63.61 193.552 64.105 196.239 63.981 197.313 65.095 200.94 65.962 202.552 66.828 205.507 68.066 208.463 68.314 208.731 68.933 209 68.809 208.463 67.447 204.97 65.962 202.418 63.981 197.851 63.486 196.104 63.238 193.552 62.496 191"><title>2023-10-10 1.0km</title><desc>10009069592</desc></polyline><polyline fill="none" stroke="#4dd2ff" stroke-linecap="round" stroke-linejoin="round" stroke-width=".5" points="85.522 193.25 86.376 195.632 87.23 198.809 89.059 202.779 90.523 207.809 91.377 209 91.621 208.603 91.743 207.147 90.889 204.632 89.059 201.456 86.986 195.632 86.376 192.985 85.4 191"><title>2023-10-09 1.0km</title><desc>10003389142</desc></polyline><polyline fill="none" stroke="#4dd2ff" stroke-linecap="round" stroke-linejoin="round" stroke-width=".5" points="107.764 191 108.664 192.116 109.564 194.209 110.078 198.395 112.007 202.581 113.679 207.326 114.45 208.721 115.093 209 115.093 207.884 112.65 203.977 109.435 196.163 108.149 191.14"><title>2023-10-08 1.0km</title><desc>9996447828</desc></polyline><polyline fill="none" stroke="#4dd2ff" stroke-linecap="round" stroke-linejoin="round" stroke-width=".5" points="131.975 194.6 132.568 196.786 134.345 201.543 134.937 203.6 136.833 208.357 137.426 209 137.544 208.486 137.544 207.971 135.293 203.986 134.226 201.671 132.331 196.014 131.738 193.057 131.027 191"><title>2023-10-07 1.0km</title><desc>9989974159</desc></polyline><polyline fill="none" stroke="#4dd2ff" stroke-linecap="round" stroke-linejoin="round" stroke-width=".5" points="155.672 196.362 156.613 199.426 157.319 200.957 158.731 206.957 159.084 208.106 159.79 209 160.378 209 160.613 208.489 160.496 208.106 159.084 206.064 157.672 203 157.202 200.957 154.731 194.957 154.378 192.787 153.672 191"><title>2023-10-06 1.0km</title><desc>9984428862</desc></polyline><polyline fill="none" stroke="#4dd2ff" stroke-linecap="round" stroke-linejoin="round" stroke-width=".5" points="176.125 191 178.164 196.459 179.524 201.033 181.836 206.787 182.787 208.705 183.195 209 183.739 209 183.875 208.705 183.467 207.967 181.836 205.607 180.884 203.689 179.252 199.41 178.572 197.197 176.669 193.656 176.669 192.328"><title>2023-10-04 1.0km</title><desc>9971682885</desc></polyline><polyline fill="none" stroke="#4dd2ff" stroke-linecap="round" stroke-linejoin="round" stroke-width=".5" points="17.276 213.102 17.881 215.204 18.486 216.65 18.971 218.883 21.271 223.482 21.392 225.058 22.119 228.212 22.361 228.606 23.088 229 23.088 227.686 21.514 224.796 20.424 222.299 19.818 221.117 19.213 219.409 18.002 216.912 17.518 214.942 17.276 212.971 16.912 211"><title>2023-10-03 1.0km</title><desc>9965060084</desc></polyline><polyline fill="none" stroke="#4dd2ff" stroke-linecap="round" stroke-linejoin="round" stroke-width=".5" points="39.567 211.744 41.212 217.099 41.486 219.479 42.446 220.669 43.131 222.455 44.365 227.066 45.325 228.554 46.01 229 46.147 228.851 45.736 227.661 44.228 224.835 41.76 218.884 40.252 214.421 39.978 211"><title>2023-10-02 1.0km</title><desc>9958643020</desc></polyline><polyline fill="none" stroke="#4dd2ff" stroke-linecap="round" stroke-linejoin="round" stroke-width=".5" points="62.861 214.168 63.126 215.464 66.046 222.376 67.506 226.84 68.302 228.424 69.098 229 69.231 228.856 69.098 228.28 66.444 224.248 63.923 218.056 62.728 214.312 62.198 211"><title>2023-10-01 1.0km</title><desc>9952075403</desc></polyline><polyline fill="none" stroke="#4dd2ff" stroke-linecap="round" stroke-linejoin="round" stroke-width=".5" points="85.987 213.609 87.069 215.826 87.55 218.044 87.91 220.13 89.713 225.217 91.276 228.478 91.997 229 92.238 228.609 89.834 224.957 88.752 222.478 88.391 221.174 86.708 217.522 85.747 213.478 84.905 211"><title>2023-09-30 1.0km</title><desc>9945549317</desc></polyline><polyline fill="none" stroke="#4dd2ff" stroke-linecap="round" stroke-linejoin="round" stroke-width=".5" points="108.642 211 109.836 213.016 110.234 214.6 111.296 217.192 111.827 221.08 112.225 222.232 113.817 226.12 114.215 228.568 114.481 228.856 114.879 229 115.012 228.712 112.623 224.392 111.03 220.648 110.5 218.488 108.642 214.168 107.845 211.576"><title>2023-09-28 1.0km</title><desc>9933629332</desc></polyline><polyline fill="none" stroke="#4dd2ff" stroke-linecap="round" stroke-linejoin="round" stroke-width=".5" points="130.767 213.045 131.772 216.591 133.657 219.182 134.914 223.818 136.673 226.955 137.176 228.727 137.679 229 137.93 228.591 137.679 228.045 136.673 226.682 133.783 220.818 132.275 216.727 130.641 211"><title>2023-09-27 1.0km</title><desc>9927137811</desc></polyline><polyline fill="none" stroke="#4dd2ff" stroke-linecap="round" stroke-linejoin="round" stroke-width=".5" points="158.638 211 158.279 212.731 157.92 213.726 157.641 214.938 156.006 218.356 155.169 219.784 155.01 220.389 155.089 220.865 155.289 221.558 155.887 223.029 156.086 223.418 156.325 224.111 157.123 225.106 157.482 225.885 157.881 226.49 158.2 227.356 158.678 228.005 159.276 229"><title>2023-09-26 1.0km</title><desc>9920397094</desc></polyline><polyline fill="none" stroke="#4dd2ff" stroke-linecap="round" stroke-linejoin="round" stroke-width=".5" points="179.916 211 179.131 213.615 178.347 215.014 177.618 215.926 177.226 216.655 177.058 217.385 177.114 218.297 177.394 219.027 178.067 220.061 178.347 221.095 178.907 222.432 179.972 223.77 181.765 227.419 182.942 229"><title>2023-09-25 1.0km</title><desc>9914573673</desc></polyline><polyline fill="none" stroke="#4dd2ff" stroke-linecap="round" stroke-linejoin="round" stroke-width=".5" points="21.327 231 20.885 231.672 20.796 232.008 20.885 232.44 20.929 232.872 20.044 234.504 19.823 235.608 19.513 236.424 17.656 239.688 17.611 240.072 17.788 240.84 18.275 241.608 18.54 242.28 18.938 242.952 19.16 243.624 19.735 244.536 20.177 245.448 20.664 245.976 20.796 246.456 21.106 246.84 21.769 247.992 22.256 248.52 22.389 249"><title>2023-09-24 1.0km</title><desc>9907510217</desc></polyline><polyline fill="none" stroke="#4dd2ff" stroke-linecap="round" stroke-linejoin="round" stroke-width=".5" points="43.528 231 43.152 231.583 42.884 232.165 42.723 232.922 42.669 233.913 41.757 235.136 41.22 236.534 40.737 237.233 40.415 238.165 40.361 239.155 41.488 242.01 41.918 242.884 43.313 245.097 43.904 246.553 44.656 247.485 45.085 248.243 45.353 249"><title>2023-09-23 1.0km</title><desc>9901004991</desc></polyline><polyline fill="none" stroke="#4dd2ff" stroke-linecap="round" stroke-linejoin="round" stroke-width=".5" points="66.405 231 66.047 231.667 65.689 232.833 64.87 234.556 64.05 235.722 63.334 237.667 63.282 238.722 63.385 239.333 64.409 241.778 64.562 242.5 64.767 242.889 65.484 243.778 66.047 244.889 66.508 246.056 67.276 247.167 68.146 249"><title>2023-09-22 1.0km</title><desc>9895405405</desc></polyline><polyline fill="none" stroke="#4dd2ff" stroke-linecap="round" stroke-linejoin="round" stroke-width=".5" points="89.526 231 89.379 231.531 89.085 231.85 88.449 233.018 88.204 233.867 87.47 235.726 86.688 237.319 86.198 238.487 86.051 239.071 86.051 239.443 86.198 239.974 86.492 240.504 87.128 242.15 87.764 243.319 88.107 244.168 88.743 245.23 89.134 245.708 89.428 246.558 90.211 247.938 91.091 249"><title>2023-09-21 1.0km</title><desc>9889267953</desc></polyline><polyline fill="none" stroke="#4dd2ff" stroke-linecap="round" stroke-linejoin="round" stroke-width=".5" points="113.261 231 112.619 232.927 112.241 234.444 111.636 235.715 110.918 237.847 109.672 240.185 109.331 241.456 109.369 241.743 109.596 242.358 110.087 243.424 110.389 244.326 111.145 245.392 111.599 246.253 111.863 246.868 112.165 247.401 112.657 247.77 113.261 248.672 113.299 248.836 113.526 249"><title>2023-09-20 1.0km</title><desc>9882714971</desc></polyline><polyline fill="none" stroke="#4dd2ff" stroke-linecap="round" stroke-linejoin="round" stroke-width=".5" points="135.778 231 135.394 231.972 134.67 234.1 134.627 234.794 134.371 235.165 134.072 235.859 133.902 236.506 133.561 237.386 132.58 238.959 132.324 239.884 132.239 240.717 132.324 241.55 132.58 242.476 132.878 243.123 133.817 244.743 134.286 245.391 134.712 246.548 135.139 247.288 135.565 247.889 136.034 248.352 136.333 249"><title>2023-09-19 1.0km</title><desc>9876194288</desc></polyline><polyline fill="none" stroke="#4dd2ff" stroke-linecap="round" stroke-linejoin="round" stroke-width=".5" points="157.01 231 156.692 231.518 156.162 232.553 156.003 233.243 155.049 234.911 154.307 236.463 154.149 237.038 154.202 237.671 154.519 238.476 154.996 239.339 155.42 240.546 156.003 241.812 156.639 242.962 157.222 243.709 157.911 244.859 158.335 246.182 159.077 247.332 159.448 248.367 160.137 249"><title>2023-09-18 1.0km</title><desc>9870505463</desc></polyline><polyline fill="none" stroke="#4dd2ff" stroke-linecap="round" stroke-linejoin="round" stroke-width=".5" points="180.181 231 179.922 231.505 179.561 233.187 179.096 233.972 178.889 234.589 177.752 236.439 177.339 237.449 177.08 238.346 177.287 238.963 178.424 241.43 178.992 242.327 179.406 243.28 180.078 244.178 180.439 244.794 180.904 246.252 182.92 249"><title>2023-09-16 1.0km</title><desc>9856514700</desc></polyline><polyline fill="none" stroke="#4dd2ff" stroke-linecap="round" stroke-linejoin="round" stroke-width=".5" points="19.751 251 19.198 252.68 18.479 253.82 16.986 256.7 16.931 257.36 16.986 258.14 17.318 258.92 17.871 259.76 18.369 260.9 19.254 262.4 20.359 264.5 20.47 265.28 20.857 265.58 21.299 266.18 22.018 267.38 22.792 268.04 22.958 268.46 23.069 269"><title>2023-09-15 1.0km</title><desc>9850671982</desc></polyline><polyline fill="none" stroke="#4dd2ff" stroke-linecap="round" stroke-linejoin="round" stroke-width=".5" points="43.315 251 42.4 253.421 41.37 254.91 40.912 255.717 40.226 257.455 40.054 258.076 40.054 258.572 40.226 259.193 40.912 261.055 41.542 262.297 43.086 264.966 43.715 266.145 43.83 266.828 44.287 267.262 45.031 268.441 45.66 269"><title>2023-09-14 1.0km</title><desc>9844236351</desc></polyline><polyline fill="none" stroke="#4dd2ff" stroke-linecap="round" stroke-linejoin="round" stroke-width=".5" points="62.854 251 63.183 251.268 63.306 251.536 63.389 252.117 63.636 252.608 63.8 253.993 63.8 254.663 63.718 255.02 63.8 255.467 64.006 256.003 63.924 256.449 63.965 256.673 64.377 257.432 64.747 258.548 65.076 259.174 65.488 259.754 65.941 260.156 66.064 260.424 66.188 261.005 66.517 261.586 66.887 262.658 67.381 263.596 67.628 264.4 67.752 265.07 67.999 265.605 68.452 267.079 69.069 268.241 69.11 268.419 69.069 268.553 68.575 269 68.822 268.821 68.945 268.553 69.028 268.33 68.987 268.017 68.74 267.705 67.999 266.097 67.628 264.891 66.846 263.149 66.476 261.452 66.27 260.96 65.488 259.933 64.706 258.459 64.335 257.253 64.212 256.449 63.883 255.601 63.224 254.171 63.059 253.501 62.483 252.429 62.36 251.849 62.318 251.134"><title>2023-09-13 1.0km</title><desc>9837636972</desc></polyline></svg>