<?xml version="1.0" encoding="utf-8" ?>
<svg baseProfile="full" height="300mm" version="1.1" viewBox="0,0,200,300" width="200mm" xmlns="http://www.w3.org/2000/svg" xmlns:ev="http://www.w3.org/2001/xml-events" xmlns:xlink="http://www.w3.org/1999/xlink"><defs /><rect fill="#222222" height="300" width="200" x="0" y="0" /><text fill="#FFFFFF" style="font-size:12px; font-family:Arial; font-weight:bold;" x="10" y="20">Over 1km Runs</text><text fill="#FFFFFF" style="font-size:4px; font-family:Arial" x="10" y="280">ATHLETE</text><text fill="#FFFFFF" style="font-size:9px; font-family:Arial" x="10" y="290">Jiakai</text><text fill="#FFFFFF" style="font-size:4px; font-family:Arial" x="120" y="280">STATISTICS</text><text fill="#FFFFFF" style="font-size:3px; font-family:Arial" x="120" y="285">Number: 17</text><text fill="#FFFFFF" style="font-size:3px; font-family:Arial" x="120" y="290">Weekly: 5.7</text><text fill="#FFFFFF" style="font-size:3px; font-family:Arial" x="141" y="285">Total: 17.3 km</text><text fill="#FFFFFF" style="font-size:3px; font-family:Arial" x="141" y="290">Avg: 1.0 km</text><text fill="#FFFFFF" style="font-size:3px; font-family:Arial" x="167" y="285">Min: 1.0 km</text><text fill="#FFFFFF" style="font-size:3px; font-family:Arial" x="167" y="290">Max: 1.0 km</text><polyline fill="none" points="26.080289587378502,39.378026988124475 26.677471950650215,42.29403470642865 33.24647795595229,57.846043280093 36.530980957672,67.89001965080388 38.322528049349785,71.45400576363318 40.11407514102757,72.75 40.412666322663426,72.42600147658959 40.11407514102757,71.1300071454607 34.14225150085986,62.058036158559844 28.469019042328,48.126044352538884 25.78169840388,39.70202794135548 24.587333677336574,32.25" stroke="#4dd2ff" stroke-linecap="round" stroke-linejoin="round" stroke-width="0.5"><title>2023-10-01 1.0km</title><desc>9952075403</desc></polyline><polyline fill="none" points="71.68504726607352,38.11959067755379 74.1192135270685,43.10873596719466 75.20106519665569,48.09787502186373 76.01245395094156,52.79352961201221 80.06939771864563,64.23916453542188 83.58541565015912,71.57609273889102 85.2081931559369,72.75 85.7491189930588,71.8695695863571 80.33986063674092,63.652209697058424 77.90569437667727,58.076134423492476 77.0943056223914,55.14135483559221 73.30782477371395,46.923960511107 71.14412142988294,37.826111348113045 69.25088100600988,32.25" stroke="#4dd2ff" stroke-linecap="round" stroke-linejoin="round" stroke-width="0.5"><title>2023-09-30 1.0km</title><desc>9945549317</desc></polyline><polyline fill="none" points="116.22958886437118,32.25 118.9169079232961,36.78601850848645 119.81268094107509,40.350029775407165 122.20140899345279,46.18204199522734 123.39577301964164,54.9300458538346 124.29154603928328,57.5220436619129 127.87463811412454,66.27002501068637 128.77041113376617,71.77800435898826 129.3675931468606,72.42600147682242 130.26336616650224,72.75 130.56195717304945,72.10200292943045 125.18731905706227,62.38203544449061 121.60422698035836,53.95804628264159 120.40986295603216,49.09804521035403 116.22958886437118,39.37802698928863 114.43804282695055,33.54600576451048" stroke="#4dd2ff" stroke-linecap="round" stroke-linejoin="round" stroke-width="0.5"><title>2023-09-28 1.0km</title><desc>9933629332</desc></polyline><polyline fill="none" points="159.5828069485724,36.85229252045974 161.8448621062562,44.829587534302846 166.08621552586555,50.659139631548896 168.91378447320312,61.090949377045035 172.87238099891692,68.14774706633762 174.00340857822448,72.13636656850576 175.1344361556694,72.75 175.6999499462545,71.82954981876537 175.1344361556694,70.6022825955879 172.87238099891692,67.53411295777187 166.36897242069244,54.340957812964916 162.9758896837011,45.13640626822598 159.3000500537455,32.25" stroke="#4dd2ff" stroke-linecap="round" stroke-linejoin="round" stroke-width="0.5"><title>2023-09-27 1.0km</title><desc>9927137811</desc></polyline><polyline fill="none" points="35.86447307514027,81.0 35.05699953669682,84.89428460109048 34.2495259991847,87.13349306001328 33.621491024736315,89.85948085505515 29.943000462371856,97.55063044966664 28.058895540889353,100.7633759122109 27.700018412433565,102.12635648041032 27.879456976428628,103.19726880011149 28.328053386416286,104.75495790026616 29.67384261637926,108.06504115427379 30.12243902636692,108.94123827759176 30.66075471881777,110.49892062076833 32.45514035830274,112.73808577889577 33.26261389674619,114.49047326110303 34.159806717187166,115.85343969985843 34.87756097316742,117.80053217848763 35.9541923571378,119.26084965851624 37.299981587100774,121.5" stroke="#4dd2ff" stroke-linecap="round" stroke-linejoin="round" stroke-width="0.5"><title>2023-09-26 1.0km</title><desc>9920397094</desc></polyline><polyline fill="none" points="77.31086131744087,81.0 75.54556694347411,86.88350066856947 73.78027256950736,90.03048176213633 72.14107065042481,92.08285786909983 71.25842346390709,93.72475712478627 70.8801460978575,95.36665493168402 71.00623855227605,97.41902515315451 71.63670082949102,99.0609197007725 73.14981029275805,101.38693449657876 73.78027256950736,103.71294638514519 75.041197121609,106.7230751013849 77.43695377232507,109.73319894901942 81.47191234119236,117.94260287750512 84.11985390260816,121.5" stroke="#4dd2ff" stroke-linecap="round" stroke-linejoin="round" stroke-width="0.5"><title>2023-09-25 1.0km</title><desc>9914573673</desc></polyline><polyline fill="none" points="125.48586001014337,81.0 124.49057334056124,82.51202006719541 124.29151600645855,83.26802951702848 124.49057334056124,84.24004109529778 124.59010200761259,85.21205202990677 122.59952866705135,88.88408753392287 122.10188533179462,91.3681063457625 121.40518466290087,93.20411755016539 117.22498064814135,100.54813941800967 117.12545198109001,101.4121395762777 117.52356664882973,103.1401383690536 118.61838198639452,104.86813512875233 119.2155539887026,106.3801306260284 120.11131199123338,107.89212456671521 120.6089553264901,109.40411695104558 121.90282799815759,111.45610412652604 122.89811466773972,113.50808843539562 123.99293000577018,114.6960780408699 124.29151600645855,115.77606775751337 124.9882166753523,116.64005895901937 126.48114668065682,119.23202951520216 127.57596201775596,120.42001449142117 127.87454801890999,121.5" stroke="#4dd2ff" stroke-linecap="round" stroke-linejoin="round" stroke-width="0.5"><title>2023-09-24 1.0km</title><desc>9907510217</desc></polyline><polyline fill="none" points="169.00984321301803,81.0 168.16433101380244,82.31069401919376 167.5603937287815,83.62138707446866 167.19803135748953,85.32528660574462 167.0772439003922,87.55346045806073 165.02385713066906,90.3059066660935 163.81598256062716,93.4515542704612 162.72889544675127,95.02437599096447 162.004170704633,97.1214694599621 161.88338324707001,99.34962856734637 164.4199198456481,105.77195394120645 165.38621950149536,107.73796728730667 168.5266933850944,112.71852472657338 169.85535541223362,115.9951996637974 171.54637981113046,118.0922684626421 172.51267946790904,119.79613504558802 173.11661675339565,121.5" stroke="#4dd2ff" stroke-linecap="round" stroke-linejoin="round" stroke-width="0.5"><title>2023-09-23 1.0km</title><desc>9901004991</desc></polyline><polyline fill="none" points="34.055139367468655,129.75 33.24877080647275,131.2500172056025 32.4424022459425,133.87504413025454 30.59927410725504,137.75007646798622 28.75614596856758,140.37509335565846 27.143408847041428,144.75011249468662 27.028213337995112,147.12511816923507 27.258604356087744,148.50011993863154 29.562514529097825,154.00011589366477 29.90810105483979,155.62511129351333 30.36888308962807,156.50010817311704 31.981620211154222,158.5000993499998 33.24877080647275,161.00008501205593 34.2855303841643,163.62506600143388 36.01346301473677,166.12504412792623 37.97178666200489,170.25" stroke="#4dd2ff" stroke-linecap="round" stroke-linejoin="round" stroke-width="0.5"><title>2023-09-22 1.0km</title><desc>9895405405</desc></polyline><polyline fill="none" points="79.64691577572376,129.75 79.31662104092538,130.94470471562818 78.6560315717943,131.66152712341864 77.22475438797846,134.2898732459871 76.67426316346973,136.20139502815437 75.02278948994353,140.3828410867136 73.26121757226065,143.96692914352752 72.16023512277752,146.59525536070578 71.82994038797915,147.90941687475424 71.82994038797915,148.74570092128124 72.16023512277752,149.94039166963194 72.8208245919086,151.13508153974544 74.2521017761901,154.83861455437727 75.68337895954028,157.46692318562418 76.45406667375937,159.37841770180967 77.88534385710955,161.76778268488124 78.76612981595099,162.84299578121863 79.42671928554773,164.75448397314176 81.18829120369628,167.86064748920035 83.17005961155519,170.25" stroke="#4dd2ff" stroke-linecap="round" stroke-linejoin="round" stroke-width="0.5"><title>2023-09-21 1.0km</title><desc>9889267953</desc></polyline><polyline fill="none" points="126.62340357713401,129.75 125.17808685917407,134.08605337806512 124.32790055498481,137.49953166535124 122.9676024671644,140.35946578299627 121.35224848799407,145.15675998595543 118.54663368267938,150.41531140520237 117.78146600862965,153.27521608246025 117.86648463876918,153.92100010742433 118.376596421469,155.3048218988115 119.4818386179395,157.7034427219769 120.16198766184971,159.73304137552623 121.86236027115956,162.1316537334351 122.88258383702487,164.06899113697 123.47771424986422,165.45280173653737 124.15786329330876,166.65210302185733 125.26310548977926,167.48238785553258 126.62340357713401,169.51197069173213 126.70842220820487,169.8809854001738 127.21853399090469,170.25" stroke="#4dd2ff" stroke-linecap="round" stroke-linejoin="round" stroke-width="0.5"><title>2023-09-20 1.0km</title><desc>9882714971</desc></polyline><polyline fill="none" points="170.85813181009144,129.75 169.9946122020483,131.9364049016731 168.3635196085088,136.72566098358948 168.2675729850307,138.287371421 167.69189324602485,139.12028294999618 167.02026688447222,140.68199074605945 166.6364803914912,142.13958313525654 165.86890740599483,144.1177418344887 163.66213507344946,147.65759787289426 163.0864553344436,149.73986199696083 162.89456208841875,151.61389709066134 163.0864553344436,153.48792970378418 163.66213507344946,155.57018525421154 164.3337614350021,157.02776231779717 166.4445871450007,160.6716984123923 167.5,162.12927022448275 168.45946623105556,164.7320733006345 169.41893246304244,166.3978647585027 170.378398694098,167.75131887523457 171.4338115490973,168.79243654641323 172.10543791158125,170.25" stroke="#4dd2ff" stroke-linecap="round" stroke-linejoin="round" stroke-width="0.5"><title>2023-09-19 1.0km</title><desc>9876194288</desc></polyline><polyline fill="none" points="32.20188989909366,178.5 31.486425657756627,179.6645497562131 30.29398525552824,181.9936469568638 29.936253134626895,183.54637671099044 27.78986040968448,187.29880129441153 26.12044384609908,190.79243078292347 25.762711725197732,192.08636587054934 25.881955766119063,193.50969336752314 26.597420007456094,195.32119942689314 27.67061636969447,197.26209670654498 28.62456869194284,199.97934930189513 29.936253134626895,202.82599037827458 31.367181617300957,205.41384190658573 32.67886606045067,207.0959433595417 34.229038583580405,209.68378860899247 35.18299090536311,212.6598059416283 36.852407469414175,215.24764301010873 37.687115751206875,217.57669311820064 39.23728827480227,219.0" stroke="#4dd2ff" stroke-linecap="round" stroke-linejoin="round" stroke-width="0.5"><title>2023-09-18 1.0km</title><desc>9870505463</desc></polyline><polyline fill="none" points="77.90695240255445,178.5 77.3255918272771,179.63552704337053 76.51168702216819,183.42061176057905 75.46523798676208,185.1869817712577 75.00014952663332,186.57484264671803 72.442162996158,190.73841853858903 71.5119860759005,193.00945567619056 70.93062550062314,195.0281528304331 71.39571396075189,196.41600574646145 73.95370049122721,201.96740618604235 75.23269375693053,203.98609280236997 76.16287067672238,206.13094473001547 77.67440817225724,208.14962644851767 78.48831297783181,209.5374687522417 79.53476201277226,212.8178188269958 84.06937449937686,219.0" stroke="#4dd2ff" stroke-linecap="round" stroke-linejoin="round" stroke-width="0.5"><title>2023-09-16 1.0km</title><desc>9856514700</desc></polyline><polyline fill="none" points="121.94014912797138,178.5 120.69603607943282,182.28003779845312 119.07868911605328,184.84505901532248 115.71958388434723,191.32509665377438 115.59517257940024,192.81010205857456 115.71958388434723,194.56510689703282 116.4660517135635,196.32011005817913 117.71016476256773,198.21011158637702 118.8298665061593,200.77511054871138 120.82044738391414,204.15010372409597 123.3086734819226,208.87508374813478 123.55749609135091,210.63007323176134 124.42837522551417,211.30506874027196 125.42366566462442,212.65505901293363 127.0410126275383,215.35503658093512 128.78277089586481,216.84002255101223 129.15600481070578,217.78501299757045 129.40482742059976,219.0" stroke="#4dd2ff" stroke-linecap="round" stroke-linejoin="round" stroke-width="0.5"><title>2023-09-15 1.0km</title><desc>9850671982</desc></polyline><polyline fill="none" points="168.52960951207206,178.5 166.47039048792794,183.94660198269412 164.1537690856494,187.29834928561468 163.124159574043,189.11387660529 161.5797453057021,193.02423724578694 161.19364173850045,194.4207926663803 161.19364173850045,195.53803626296576 161.5797453057021,196.93458983523306 163.124159574043,201.12424439110328 164.53987265285105,203.91734229424037 168.01480475626886,209.92248887824826 169.4305178350769,212.57591969321948 169.68792021274567,214.11211478663608 170.71752972528338,215.0896928353468 172.39064518222585,217.74311643198598 173.80635826149955,219.0" stroke="#4dd2ff" stroke-linecap="round" stroke-linejoin="round" stroke-width="0.5"><title>2023-09-14 1.0km</title><desc>9844236351</desc></polyline><polyline fill="none" points="26.06330519216135,227.25 26.804219702258706,227.85298646788578 27.082062643487006,228.45597266976256 27.26729127159342,229.76244186074473 27.822977154050022,230.86791481659748 28.19343440933153,233.98333379009273 28.19343440933153,235.4907920343103 28.008205781690776,236.29476908466313 28.19343440933153,237.2997397328727 28.656505978200585,238.5057035352802 28.47127735055983,239.51067255774979 28.563891664147377,240.0131567917997 29.490034802351147,241.72160180623177 30.32356362650171,244.23401706595905 31.064478136599064,245.64096759422682 31.990621274337173,246.94742035935633 33.00937872566283,247.85188692668453 33.28722166735679,248.45486430590972 33.56506460858509,249.76131438161246 34.305979119148105,251.06776320864446 35.139507942833006,253.47966545494273 36.25087970821187,255.59007642942015 36.80656559113413,257.3989975285949 37.08440853236243,258.9064299489837 37.64009441528469,260.1123746887315 38.65885186661035,263.42871723661665 40.04806657368317,266.0415875170147 40.14068088773638,266.44356711686123 40.04806657368317,266.7450517391553 38.93669480783865,267.75 39.49238069076091,267.34802078432404 39.77022363198921,266.7450517391553 39.955452259629965,266.24257733183913 39.86283794604242,265.5391128510237 39.30715206358582,264.83564800804015 37.64009441528469,261.21782309853006 36.80656559113413,258.5044481327059 35.04689362924546,254.58511922881007 34.2133648050949,250.7662751286989 33.75029323622584,249.6608182664495 31.990621274337173,247.3494055743795 30.2309493124485,244.03302401513793 29.39742048829794,241.3196149362484 29.1195775475353,239.51067255774979 28.378663036506623,237.6012307832716 26.896834016311914,234.3853228178341 26.526376761030406,232.87786335428245 25.22977636801079,230.46592475427315 24.95193342678249,229.15945623558946 24.85931911272928,227.55149326729588" stroke="#4dd2ff" stroke-linecap="round" stroke-linejoin="round" stroke-width="0.5"><title>2023-09-13 1.0km</title><desc>9837636972</desc></polyline></svg>