<?xml version="1.0" encoding="utf-8" ?>
<svg baseProfile="full" height="300mm" version="1.1" viewBox="0,0,200,300" width="200mm" xmlns="http://www.w3.org/2000/svg" xmlns:ev="http://www.w3.org/2001/xml-events" xmlns:xlink="http://www.w3.org/1999/xlink"><defs /><rect fill="#222222" height="300" width="200" x="0" y="0" /><text fill="#FFFFFF" style="font-size:12px; font-family:Arial; font-weight:bold;" x="10" y="20">Over 1km Runs</text><text fill="#FFFFFF" style="font-size:4px; font-family:Arial" x="10" y="280">ATHLETE</text><text fill="#FFFFFF" style="font-size:9px; font-family:Arial" x="10" y="290">Jiakai</text><text fill="#FFFFFF" style="font-size:4px; font-family:Arial" x="120" y="280">STATISTICS</text><text fill="#FFFFFF" style="font-size:3px; font-family:Arial" x="120" y="285">Number: 86</text><text fill="#FFFFFF" style="font-size:3px; font-family:Arial" x="120" y="290">Weekly: 6.1</text><text fill="#FFFFFF" style="font-size:3px; font-family:Arial" x="141" y="285">Total: 88.7 km</text><text fill="#FFFFFF" style="font-size:3px; font-family:Arial" x="141" y="290">Avg: 1.0 km</text><text fill="#FFFFFF" style="font-size:3px; font-family:Arial" x="167" y="285">Min: 1.0 km</text><text fill="#FFFFFF" style="font-size:3px; font-family:Arial" x="167" y="290">Max: 1.5 km</text><polyline fill="none" points="17.20754801062867,33.619845401030034 19.401054913643748,37.9339059300255 20.497808364685625,42.396717487834394 22.005844360217452,45.223159716813825 23.78806871920824,49.83471487776842 24.336445444263518,50.727272727293894 24.61063380772248,50.57851311331615 23.65097453724593,47.752078364486806 22.280032723676413,45.66943970799912 17.89301891811192,35.256214270717464 17.61883055511862,32.429758119629696 17.20754801062867,31.09090909094084" stroke="#4dd2ff" stroke-linecap="round" stroke-linejoin="round" stroke-width="0.5"><title>2023-12-17 1.0km</title><desc>10391591057</desc></polyline><polyline fill="none" points="40.320501966401935,34.54803023394197 41.84977790573612,38.55828279838897 44.39857113780454,43.53651546663605 46.69248504657298,50.174138529459015 47.20224369270727,50.727272727293894 47.32968335459009,50.588989192969166 47.32968335459009,50.03585495450534 46.69248504657298,48.238167555769905 43.251614183187485,41.46225345612038 41.7223382438533,37.31372257240582 40.57538128923625,32.61204317654483 39.68330365838483,31.09090909094084" stroke="#4dd2ff" stroke-linecap="round" stroke-linejoin="round" stroke-width="0.5"><title>2023-12-16 1.0km</title><desc>10386207035</desc></polyline><polyline fill="none" points="63.45066071860492,34.78196954121813 63.99491413123906,37.29188677179627 65.89980107406154,43.04992033028975 66.98830789886415,44.82161964243278 68.4850047826767,49.6937846908113 68.8931948421523,50.727272727293894 69.16532154846936,50.727272727293894 69.16532154846936,49.250861084321514 67.12437125202268,43.04992033028975 64.2670408366248,38.62066521192901 64.13097748439759,36.84896042954642 63.31459736591205,34.78196954121813 63.586724071763456,33.453188560553826 63.04247065959498,31.09090909094084" stroke="#4dd2ff" stroke-linecap="round" stroke-linejoin="round" stroke-width="0.5"><title>2023-12-14 1.0km</title><desc>10376526598</desc></polyline><polyline fill="none" points="92.91606393223628,32.79842820286285 91.90452027693391,31.944668866577558 90.21861418476328,31.212874800316058 88.64510183176026,31.09090909094084 87.0715894792229,31.456806191476062 85.04850216768682,32.55449700867757 84.1493522520177,33.774152620113455 83.47498981514946,35.847565100644715 83.47498981514946,40.48224244802259 83.69977729395032,41.94582207745407 84.1493522520177,43.77529479726218 83.81217103358358,45.97065939742606 83.92456477321684,46.82441151270177 84.03695851238444,47.312269666814245 85.16089590778574,49.263700848212466 86.95919573912397,50.605308453552425 87.52116443635896,50.727272727293894 88.64510183176026,50.727272727293894 89.76903922623023,50.727272727293894 91.79212653730065,49.995486949104816 92.91606393223628,48.897807676694356 93.59042636910453,47.67816318827681 93.81521384837106,44.994942156015895 93.92760758800432,43.165470781736076 93.59042636910453,40.97010246803984 93.81521384837106,38.04294019541703 93.7028201087378,35.4816689689178 93.59042636910453,34.627911014365964 92.80367019306868,32.92039378627669 92.4664889741689,32.55449700867757 91.23015784006566,31.700737546896562 88.75749557092786,31.456806191476062 87.1839832183905,31.700737546896562 86.28483330225572,32.06663451297209 84.5989272100851,33.896118131815456 83.92456477321684,36.457391807227395 84.1493522520177,38.16490539337974" stroke="#4dd2ff" stroke-linecap="round" stroke-linejoin="round" stroke-width="0.5"><title>2023-12-13 1.0km</title><desc>10373769329</desc></polyline><polyline fill="none" points="108.93536286940798,33.875181376584806 110.28584197210148,39.44371428003069 111.63632107432932,42.37451482261531 114.33727927925065,49.994576065801084 114.87747092032805,50.727272727293894 115.14756674086675,50.727272727293894 115.2826146511361,50.14111541956663 114.7424230100587,49.261879135505296 112.58165644621477,45.59839044196997 109.47555451048538,39.2971741395304 109.07041077967733,37.39215133571997 107.58488376671448,34.16826244338881 107.31478794664145,31.09090909094084" stroke="#4dd2ff" stroke-linecap="round" stroke-linejoin="round" stroke-width="0.5"><title>2023-12-12 1.0km</title><desc>10365882163</desc></polyline><polyline fill="none" points="130.07291517267004,31.09090909094084 131.47475103801116,34.1331760318717 133.3863454000093,38.97313602420036 134.78818126488477,41.60053766157944 136.82721525104716,47.96160011109896 137.08209449937567,49.62100416899193 137.59185299603269,50.727272727293894 137.71929261973128,49.759287774097174 137.46441337186843,48.65301864652429 134.78818126488477,42.568526813411154 132.87658690288663,38.83485162584111 132.36682840716094,37.31372257263865 131.98450953466818,34.1331760318717 130.9649925418198,31.229194058920257" stroke="#4dd2ff" stroke-linecap="round" stroke-linejoin="round" stroke-width="0.5"><title>2023-12-11 1.0km</title><desc>10361067591</desc></polyline><polyline fill="none" points="156.88690701453015,42.047455398133025 159.50957715464756,50.01581375533715 159.64071066118777,50.442689169663936 160.1652446896769,50.727272727293894 160.29637819621712,50.58498095383402 159.90297767566517,49.588938245899044 158.72277611261234,47.312267275177874 157.41144104255363,43.75496352184564 153.73970284685493,36.35575077205431 152.69063479080796,31.09090909094084" stroke="#4dd2ff" stroke-linecap="round" stroke-linejoin="round" stroke-width="0.5"><title>2023-12-10 1.0km</title><desc>10355395415</desc></polyline><polyline fill="none" points="175.63129811920226,32.39038039778825 177.89335144730285,36.00001840631012 178.95784713095054,40.47596032265574 181.21990045905113,46.82889262505341 182.01827222201973,50.29411976446863 182.55052006430924,50.727272727293894 182.68358202464879,50.58288841682952 182.68358202464879,50.29411976446863 182.41745810350403,49.139044730807655 179.6231569335796,43.50804421224166 178.95784713095054,41.91981037775986 178.55866124946624,39.46526465250645 177.89335144730285,37.58825702825561 176.82885576365516,35.71124760969542 176.69579380284995,33.689850845141336 175.4982361579314,31.09090909094084" stroke="#4dd2ff" stroke-linecap="round" stroke-linejoin="round" stroke-width="0.5"><title>2023-12-09 1.0km</title><desc>10350143310</desc></polyline><polyline fill="none" points="18.81584768462926,56.71914674085565 19.62613538466394,59.64995396242011 21.381758734118193,63.89961678022519 23.812621833290905,70.9335215347819 24.8930054330267,72.54545454541221 24.757957483176142,71.08006095362362 23.947669783607125,68.58888937486336 21.786902584135532,64.77885623206384 20.436423084232956,61.55497634620406 18.950895634945482,59.21033315430395 18.545751784928143,56.86568720405921 16.92517638532445,52.90909090905916" stroke="#4dd2ff" stroke-linecap="round" stroke-linejoin="round" stroke-width="0.5"><title>2023-12-08 1.0km</title><desc>10345303898</desc></polyline><polyline fill="none" points="40.34278290672228,52.90909090905916 40.59587975498289,53.595680533209816 41.10207345103845,55.38081237464212 41.35517029929906,57.852530568954535 41.8613639944233,59.91229323204607 43.633041930384934,64.30644598905928 44.77197774592787,68.28863799595274 45.91091356193647,70.76033910899423 46.16401041019708,72.54545454541221 46.41710725845769,72.40813803405035 46.67020410625264,72.13350498059299 46.67020410625264,71.72155532508623 46.037461986299604,70.07375579478685 44.01268720254302,66.64083543641027 41.60826714662835,59.63765834190417 40.975525027140975,56.75398955284618" stroke="#4dd2ff" stroke-linecap="round" stroke-linejoin="round" stroke-width="0.5"><title>2023-12-07 1.0km</title><desc>10340288256</desc></polyline><polyline fill="none" points="62.45857262099162,52.909090908942744 63.23971336754039,54.74559385573957 64.67180473543704,60.82016802148428 66.75484672607854,64.63442570611369 68.44731834298,69.29628592764493 69.22845908952877,72.26291836192831 69.61902946280316,72.54545454541221 69.74921958660707,71.5565777218435 69.48883933806792,70.28516391466837 67.40579734742641,65.90584325173404 65.97370597952977,63.78681354154833 65.192565232981,62.23285693547223 62.588762745726854,53.33289943705313" stroke="#4dd2ff" stroke-linecap="round" stroke-linejoin="round" stroke-width="0.5"><title>2023-12-06 1.0km</title><desc>10334845031</desc></polyline><polyline fill="none" points="86.89165623905137,56.2946857806528 87.76527673844248,60.76366148283705 88.63889723783359,64.01381881989073 90.76054702186957,69.56615767115727 91.88377337809652,72.13918707356788 92.25818216335028,72.54545454541221 91.75897045014426,70.10784837033134 90.51094116456807,67.80566179868765 89.38771480880678,64.55551115213893 87.76527673844248,61.1699314636644 87.01645916746929,58.59688673866913 85.76842988282442,55.888414724729955 85.1444152398035,52.90909090905916" stroke="#4dd2ff" stroke-linecap="round" stroke-linejoin="round" stroke-width="0.5"><title>2023-12-05 1.0km</title><desc>10329306344</desc></polyline><polyline fill="none" points="107.6920712152496,54.55690558278002 108.57791018299758,55.93008336704224 109.71684599900618,59.91229323204607 111.99471763055772,65.54229958960786 113.13365344656631,69.38717222749256 114.14604083821177,71.58423875342123 114.90533138252795,72.54545454541221 114.90533138252795,71.85887188697234 111.61507235886529,64.30644598905928 110.34958811942488,60.04961066250689 108.95755545515567,56.891307215439156 107.94516806304455,52.90909090905916" stroke="#4dd2ff" stroke-linecap="round" stroke-linejoin="round" stroke-width="0.5"><title>2023-12-04 1.0km</title><desc>10324662812</desc></polyline><polyline fill="none" points="130.48562299180776,54.721686183824204 131.87765601463616,60.00841326825321 134.1049088491127,64.99302920256741 135.636145173572,70.2797298579244 136.74977159127593,72.39440631074831 137.58499140432104,72.54545454541221 137.58499140432104,71.9412615399342 136.61056828917935,70.2797298579244 135.35773856937885,66.65456516004633 133.96570554748178,64.53988279914483 132.99128243187442,61.97205129195936 131.32084280531853,55.930082145147026 130.20721638808027,52.90909090905916" stroke="#4dd2ff" stroke-linecap="round" stroke-linejoin="round" stroke-width="0.5"><title>2023-12-02 1.0km</title><desc>10313350310</desc></polyline><polyline fill="none" points="152.92905882466584,53.95041800767649 154.30000023543835,55.735548930591904 155.94512992864475,61.38845312898047 157.041883057449,66.0000211733859 158.8241068921052,71.05785791110247 159.9208600204438,72.54545454541221 160.05795416189358,71.65289669588674 159.78376587945968,69.86777981568594 158.2757303272374,66.59506144560874 155.94512992864475,62.87605687219184 154.57418851787224,60.049608825240284 153.20324710663408,52.90909090905916" stroke="#4dd2ff" stroke-linecap="round" stroke-linejoin="round" stroke-width="0.5"><title>2023-12-01 1.0km</title><desc>10308709030</desc></polyline><polyline fill="none" points="175.4716227017343,52.90909090905916 178.18608749471605,62.236385236727074 180.90055228583515,67.80001587385777 182.40858828183264,71.89091188192833 182.86099908035249,72.54545454541221 183.01180268079042,72.05454756587278 182.40858828183264,70.41819018532988 180.14653428830206,67.30910784786101 179.5433198902756,65.67274697858375 177.28126589674503,61.254566622083075 176.2256407001987,56.18183021212462 175.17001550272107,53.23636505601462" stroke="#4dd2ff" stroke-linecap="round" stroke-linejoin="round" stroke-width="0.5"><title>2023-11-30 1.0km</title><desc>10303537703</desc></polyline><polyline fill="none" points="18.66263918718323,78.92540944193024 19.536259301938117,81.76930307084695 19.910667922347784,84.07149945921265 21.283499529585242,86.77996211475693 22.781134011223912,90.84264863107819 24.27876849193126,94.09279139270075 24.528374238871038,94.36363636364695 24.777979985345155,94.09279139270075 24.528374238871038,93.14483367954381 23.529951251111925,91.384339489392 22.157119643874466,87.5925001349533 20.1602736688219,83.52980645035859 19.411456428002566,79.19625664339401 17.913821946829557,76.89405416173395 17.040201833005995,74.72727272717748" stroke="#4dd2ff" stroke-linecap="round" stroke-linejoin="round" stroke-width="0.5"><title>2023-11-29 1.0km</title><desc>10298007687</desc></polyline><polyline fill="none" points="40.12155176559463,77.27012249396648 41.55364250205457,80.94312177202664 41.814022635575384,83.62723218882456 43.636683573015034,88.00656218861695 44.67820410896093,91.96207748027518 45.58953457791358,93.79856395535171 46.50086504640058,94.36363636364695 46.89143524738029,94.36363636364695 47.15181538183242,93.93983207305428 47.02162531437352,93.37475954007823 46.50086504640058,92.38588220719248 44.41782397497445,86.87641346664168 42.33478290401399,82.07327398355119 41.94421270303428,79.81296889588702 41.032882233615965,77.12885315099265 39.8611716311425,74.7272727272939" stroke="#4dd2ff" stroke-linecap="round" stroke-linejoin="round" stroke-width="0.5"><title>2023-11-28 1.0km</title><desc>10292316108</desc></polyline><polyline fill="none" points="65.64283978426829,74.7272727272939 66.79548058379441,77.85409739543684 67.48706506332383,80.85584366996773 68.4091777028516,82.23164227581583 69.44655442237854,84.23280189803336 70.48393114190549,87.48468126403168 71.40604378143325,88.98554656701162 71.40604378143325,89.73597872210667 70.82972338190302,90.23626664164476 68.98549810284749,91.23684203939047 67.83285730332136,92.23741684830748 66.68021650379524,92.86277580517344 64.95125530473888,93.61320625001099 62.184917386155576,94.36363636364695 61.72386106615886,94.23856470140163 61.378068826626986,93.86334965820424 60.80174842663109,91.48698579671327" stroke="#4dd2ff" stroke-linecap="round" stroke-linejoin="round" stroke-width="0.5"><title>2023-11-27 1.0km</title><desc>10287544518</desc></polyline><polyline fill="none" points="86.80307220248505,78.98412432789337 87.43581436853856,80.49461772490758 88.95439556799829,88.18438335356768 90.59952520066872,92.1665709685767 91.48536423407495,93.67705370532349 92.11810640012845,94.36363636364695 92.24465483380482,94.22631985216867 91.86500953370705,93.53973714320455 91.86500953370705,92.4412042844342 90.85262206709012,90.10681981395464 89.71368616819382,86.26194491458591 88.57475026836619,83.92755272123031 87.81545966863632,79.53339479537681 85.66413630265743,76.10045172297396 85.1579425688833,74.7272727272939" stroke="#4dd2ff" stroke-linecap="round" stroke-linejoin="round" stroke-width="0.5"><title>2023-11-26 1.0km</title><desc>10281488289</desc></polyline><polyline fill="none" points="107.72319607343525,74.7272727272939 109.18258596025407,78.52787320804782 110.49603686016053,83.91204574378207 111.80948775913566,86.92084218084347 112.1013657366857,88.82113250205293 112.83106068056077,90.56306382396724 114.43638955708593,93.57185097108595 115.166084500961,94.36363636364695 115.45796247757971,94.36363636364695 113.26887764688581,89.61291964096017 112.97699966933578,88.02934507199097 111.51760978158563,85.97069639177062 108.59883000608534,78.05279851530213 107.13944011833519,75.36070660676342" stroke="#4dd2ff" stroke-linecap="round" stroke-linejoin="round" stroke-width="0.5"><title>2023-11-25 1.0km</title><desc>10275889695</desc></polyline><polyline fill="none" points="130.09077760297805,74.91079086018726 131.10553127992898,79.49873978062533 135.8410484455526,92.3449518987909 137.02492773719132,94.18011966184713 137.53230457566679,94.36363636353053 137.70143018942326,93.81308621680364 136.01017405837774,91.61088441568427 133.98066670261323,85.55481944442727 132.62766179814935,82.80205778218806 131.78203373309225,77.4800432943739 130.76728005427867,74.7272727272939" stroke="#4dd2ff" stroke-linecap="round" stroke-linejoin="round" stroke-width="0.5"><title>2023-11-24 1.0km</title><desc>10271180196</desc></polyline><polyline fill="none" points="154.05192584125325,76.90909989213105 154.4827930154279,78.15585726324935 155.48814975377172,83.4545679113362 157.92973040649667,90.9350780423265 159.07870953716338,94.05194947286509 159.5095767104067,94.36363636364695 160.0840662755072,94.36363636364695 160.22768866736442,94.05194947286509 159.94044388458133,92.49351433035918 158.36059758020565,87.97404593857937 154.1955482326448,78.93508024816401 152.75932431966066,74.7272727272939" stroke="#4dd2ff" stroke-linecap="round" stroke-linejoin="round" stroke-width="0.5"><title>2023-11-23 1.0km</title><desc>10265414399</desc></polyline><polyline fill="none" points="177.3704750505276,79.15238665114157 177.49791460949928,81.08837071899325 178.00767284352332,84.13062737148721 180.04670578008518,89.93855822598562 180.68390357261524,92.70423328236211 181.70342004066333,94.36363636364695 182.4680573916994,94.36363636364695 182.34061783365905,93.533935005893 180.9387826891616,89.93855822598562 179.7918266626075,88.14086725900415 178.13511240156367,83.02435279462952 176.22351902350783,77.76953966822475 175.71376078994945,74.7272727272939" stroke="#4dd2ff" stroke-linecap="round" stroke-linejoin="round" stroke-width="0.5"><title>2023-11-21 1.0km</title><desc>10253878272</desc></polyline><polyline fill="none" points="18.795639857649803,101.84872553288005 19.456093310844153,106.1486643915996 22.229997816029936,113.17187746637501 23.41881403280422,115.75182693556417 23.815086104907095,116.18181818176527 24.079267486929893,116.0384877769975 24.21135817747563,115.75182693556417 23.682995414361358,113.45853868685663 21.30536298127845,108.29863026516978 20.380728146526963,105.57533975841943 18.92773054819554,99.98541574855335 18.13518640352413,98.55209931812715 17.60682364087552,96.54545454541221" stroke="#4dd2ff" stroke-linecap="round" stroke-linejoin="round" stroke-width="0.5"><title>2023-11-20 1.0km</title><desc>10248671423</desc></polyline><polyline fill="none" points="40.01059213699773,98.18182546005119 41.929910535458475,102.34712727146689 42.478287221398205,106.6611808227608 43.986323106102645,110.0826650300296 45.494358990341425,114.39670208888128 46.179829847533256,115.43802000093274 47.00239487551153,116.18181818176527 46.865300704259425,114.9917409614427 44.53469979157671,108.89258422260173 43.026663907337934,103.38845138438046 41.51862802216783,99.81819505151361 40.69606299418956,96.5454545452958" stroke="#4dd2ff" stroke-linecap="round" stroke-linejoin="round" stroke-width="0.5"><title>2023-11-19 1.0km</title><desc>10242265034</desc></polyline><polyline fill="none" points="62.28750928118825,114.04137627815362 63.145124297589064,111.34255306550767 63.488170304335654,110.69111211737618 64.0885008154437,110.31885999662336 67.00439187092707,109.94660776620731 69.1484294119291,109.48129232425708 69.83452142495662,108.92291356797796 70.26332893362269,108.36453456559684 70.77789794327691,106.03795273636933 70.60637493990362,105.29344564757776 70.9494209466502,104.73506504378747 70.69213644135743,100.45413889444899 70.5206134384498,99.89575615536887 70.43485193653032,98.22060645907186 70.26332893362269,97.19690277555492 69.31995241576806,96.91771071800031 68.54809890082106,97.47609477117658 68.7196219037287,97.19690277555492 68.89114490710199,97.47609477117658 67.77624538587406,96.91771071800031 67.69048388442025,96.54545454541221 67.43319937912747,96.73158264532685 67.60472238296643,96.63851859897841 67.00439187092707,97.38303077954333 67.09015337284654,97.28996678092517 68.89114490710199,98.22060645907186 68.46233739936724,98.59286213875748 67.77624538587406,98.87205382669345 66.14677685499191,99.15124545292929 66.06101535307243,98.77898993738927 66.48982286127284,98.59286213875748 67.09015337284654,98.68592604156584 68.89114490710199,96.91771071800031 71.37822845438495,97.01077474397607 71.1209439500235,96.82464668503962 70.77789794327691,96.73158264532685 70.5206134384498,101.19864883029368 70.60637493990362,102.50154016411398 70.86365944473073,104.08362069434952 71.03518244856969,106.78245938709006 71.03518244856969,107.71309208450839 70.77789794327691,108.64372409740463 70.26332893362269,109.20210297696758 65.97525385161862,109.6674185214797 64.00273931398988,110.03967083408497 62.97360129421577,110.78417513053864 61.772940271068364,112.45930819632486 61.086848258040845,114.87894093245268 60.82956375321373,116.18181818176527" stroke="#4dd2ff" stroke-linecap="round" stroke-linejoin="round" stroke-width="0.5"><title>2023-11-18 1.0km</title><desc>10236386505</desc></polyline><polyline fill="none" points="84.6942342785187,96.54545454541221 87.53795741731301,101.45456440222915 88.57203855831176,105.10132354742382 88.95981898671016,107.20521988312248 89.73537984257564,108.46755657088943 92.19132255297154,115.62078202550765 92.70836312416941,116.18181818176527 92.70836312416941,115.62078202550765 92.19132255297154,114.91948659834452 90.76946098357439,110.71170862053987 89.99390012770891,109.30911389889661 89.73537984257564,106.9247005059151 88.57203855831176,103.9792445525527 87.27943713171408,101.17404417973012 87.15017698938027,99.63118221587501" stroke="#4dd2ff" stroke-linecap="round" stroke-linejoin="round" stroke-width="0.5"><title>2023-11-17 1.0km</title><desc>10231268371</desc></polyline><polyline fill="none" points="107.79616634082049,97.17888842499815 109.69337277580053,99.87098033330403 110.13118964526802,103.513216971769 111.44464025553316,106.3636587401852 113.48778564762324,113.96481834887527 114.80123625695705,116.18181818176527 114.655297299847,114.91496141382959 113.63372460380197,112.85631757660303 112.9040298210457,110.7976717716083 111.73651816789061,105.88858537387569 109.40149486344308,100.97948778816499 108.67180007975549,98.76247230765875 108.23398321028799,96.54545454541221" stroke="#4dd2ff" stroke-linecap="round" stroke-linejoin="round" stroke-width="0.5"><title>2023-11-16 1.0km</title><desc>10225818993</desc></polyline><polyline fill="none" points="130.4908611997962,96.75659895432182 131.4637876842171,100.55719566298649 133.02047006040812,104.78007499617524 135.16090832650661,108.79180461168289 135.9392495136708,111.95895561296493 137.3013465916738,114.70381698920391 138.6634436706081,116.18181818188168 135.16090832650661,109.63637855346315 133.60422595124692,104.78007499617524 129.1287641217932,96.54545454564504" stroke="#4dd2ff" stroke-linecap="round" stroke-linejoin="round" stroke-width="0.5"><title>2023-11-15 1.0km</title><desc>10219684298</desc></polyline><polyline fill="none" points="153.02389150019735,98.9077340150252 154.79271483048797,101.12236849369947 155.0648414962925,103.92756866081618 157.1057914928533,108.79974911198951 158.33036149013788,112.93371113424655 159.5549314878881,116.03417706664186 160.0991848204285,116.18181818176527 159.96312148682773,114.41012408013921 158.19429815746844,112.04786284593865 157.51398149179295,109.98088198690675 156.42547482717782,108.65210745378863 156.01728482777253,107.0280484976247 153.97633483214304,102.89407431846485 153.29601816646755,99.94123040873092 152.88782816706225,96.54545454541221" stroke="#4dd2ff" stroke-linecap="round" stroke-linejoin="round" stroke-width="0.5"><title>2023-11-14 1.0km</title><desc>10213806154</desc></polyline><polyline fill="none" points="176.46823837282136,99.24902368383482 177.51730666030198,103.23322395212017 180.4022444500588,110.63243126217276 181.05791212944314,113.05139674723614 182.36924748914316,115.75494282960426 182.76264809677377,116.18181818176527 181.9758468810469,114.75889997556806 180.1399773778394,110.34784688882064 180.00884384242818,109.2095089762006 178.69750848319381,106.07907626521774 176.7305054445751,102.52176022005733 175.94370422931388,100.10278157447465 175.41917008487508,96.5454545452958" stroke="#4dd2ff" stroke-linecap="round" stroke-linejoin="round" stroke-width="0.5"><title>2023-11-13 1.0km</title><desc>10208522228</desc></polyline><polyline fill="none" points="18.71558432886377,120.59505091921892 20.08652594126761,124.76035150582902 21.73165587661788,128.1818420018535 22.691315005067736,132.19836694106925 23.650974133983254,135.0248056370765 24.88482158537954,137.7024807605194 25.433198229875416,138.0 25.707386553287506,137.40496147726662 24.19935077894479,134.42976623994764 23.376785811968148,131.15704642608762 20.360714263748378,128.33060232689604 18.71558432886377,125.95043581270147 18.44139600591734,123.42150582373142 16.110795264597982,118.36363636353053" stroke="#4dd2ff" stroke-linecap="round" stroke-linejoin="round" stroke-width="0.5"><title>2023-11-12 1.0km</title><desc>10202270880</desc></polyline><polyline fill="none" points="40.535438389051706,122.02715172152966 43.77658942621201,129.3541622350458 44.85697310511023,133.01765739207622 45.937356784939766,135.94844866986386 46.61259658401832,137.26730333908927 47.287836383096874,138.0 47.42288434319198,137.41384269285481 46.20745270419866,133.75035561539698 43.91163738630712,130.23340168688446 41.480774108320475,124.66487860900816 40.535438389051706,120.70828696829267 39.590102669317275,118.36363636364695" stroke="#4dd2ff" stroke-linecap="round" stroke-linejoin="round" stroke-width="0.5"><title>2023-11-11 1.0km</title><desc>10196068378</desc></polyline><polyline fill="none" points="64.27837790735066,121.29187646973878 66.50074788648635,128.00958994333632 68.5643771532923,133.5215455875732 69.51682143006474,137.13875943189487 70.15178428124636,138.0 70.46926570683718,137.6555038106162 69.9930435679853,135.5885256107431 67.61193287651986,130.24882348743267 65.2308221841231,125.25360725889914 62.05600792821497,120.2583803802263 61.73852650169283,118.36363636376336" stroke="#4dd2ff" stroke-linecap="round" stroke-linejoin="round" stroke-width="0.5"><title>2023-11-10 1.0km</title><desc>10191120477</desc></polyline><polyline fill="none" points="84.14265771768987,118.96322278503794 86.49104852834716,120.7619809921598 87.87245488679036,123.16032279923093 88.28687679441646,124.05970024957787 88.28687679441646,125.40876568155363 89.80642378889024,130.05553978029639 90.35898633254692,132.7536618168233 91.46411141939461,135.75157100276556 91.74039269099012,137.25052394298837 92.43109587067738,138.0 92.84551777783781,137.85010481067002 93.2599396854639,137.25052394298837 91.74039269099012,136.2012570006773 89.25386124569923,132.60376624157652 86.35290789231658,124.65928499633446 85.66220471262932,120.16239509929437 84.97150153294206,118.36363636364695" stroke="#4dd2ff" stroke-linecap="round" stroke-linejoin="round" stroke-width="0.5"><title>2023-11-09 1.0km</title><desc>10185506531</desc></polyline><polyline fill="none" points="107.46807436598465,119.94028600212187 108.92107078852132,122.80691844120156 109.44943312369287,124.24023308022879 111.16661071497947,127.96684621018358 111.82706363406032,130.54680497315712 111.69497305061668,128.97016391239595 111.95915421843529,129.9734810985392 112.48751655360684,133.8434139797464 113.67633180879056,137.42667831736617 114.20469414489344,138.0 114.86514706397429,137.713339179405 115.12932823132724,137.2833478701068 113.67633180879056,135.99337337259203 112.61960713751614,134.2734060480725 111.95915421843529,132.4101064010756 111.0345201306045,129.25682601856533 109.71361429197714,127.393521576887 108.2606178689748,124.24023308022879 107.8643461172469,121.9469291518908 107.99643670069054,119.08029544830788 107.7322555333376,118.36363636364695" stroke="#4dd2ff" stroke-linecap="round" stroke-linejoin="round" stroke-width="0.5"><title>2023-11-08 1.0km</title><desc>10179505859</desc></polyline><polyline fill="none" points="133.01026473287493,129.21172291447874 137.43946054950356,138.0 137.69255745317787,137.86268348875456 137.0598151939921,136.3522011960158 135.92087912652642,134.42976742074825 135.16158841503784,132.5073316671187 133.6430069920607,130.85952801757958 133.13681318517774,129.89830855070613 132.75716782920063,126.60269519442227 132.50407092552632,125.64147353696171 130.98548950254917,123.03244082990568 130.09965033922344,118.36363636364695" stroke="#4dd2ff" stroke-linecap="round" stroke-linejoin="round" stroke-width="0.5"><title>2023-11-06 1.0km</title><desc>10167691585</desc></polyline><polyline fill="none" points="154.60574968950823,123.87313993833959 155.51708056079224,125.56836862966884 158.90202379459515,133.3381476609502 160.33411516342312,137.7174638165161 160.59449541196227,138.0 160.85487566050142,138.0 160.85487566050142,137.5761957091745 159.8133546654135,135.31590458017308 158.90202379459515,134.04448965168558 158.77183367032558,133.3381476609502 157.9906929237768,132.4905369298067 155.7774608093314,128.6762840122683 153.17365832161158,122.03664050193038 152.13213732652366,118.36363636353053" stroke="#4dd2ff" stroke-linecap="round" stroke-linejoin="round" stroke-width="0.5"><title>2023-11-05 1.1km</title><desc>10161301187</desc></polyline><polyline fill="none" points="175.41917089559138,118.36363636364695 178.04184103477746,124.19764926051721 179.2220425978303,129.32018267083913 181.05791169591248,132.87748956226278 181.71357923094183,135.72333036828786 182.36924676550552,138.0 182.76264728652313,137.5731246479554 182.63151377951726,137.14624920184724 180.9267781889066,134.01582638698164 180.79564468143508,133.5889501561178 179.2220425978303,131.16998307046015 178.56637506280094,128.893305404461 176.8616394721903,125.76286924083252 176.46823895117268,123.0593066617148 175.68143790913746,120.213447235059" stroke="#4dd2ff" stroke-linecap="round" stroke-linejoin="round" stroke-width="0.5"><title>2023-11-04 1.0km</title><desc>10155501797</desc></polyline><polyline fill="none" points="26.177370190620422,143.1645716598723 24.688508654478937,141.1760699263541 23.772286171093583,140.5546626545256 21.939841203391552,140.18181818176527 20.221924046520144,140.30609968211502 17.816840026061982,141.42463277094066 16.786089731846005,142.41888378420845 15.86986724846065,144.28310285683256 15.640811627730727,145.7744766344549 15.297228196170181,150.74571305327117 15.526283816900104,155.9654955532169 15.755339438095689,156.71117745141964 16.900617542676628,158.5753807569854 18.27495126845315,159.56962167902384 20.56550747808069,159.81818181823473 22.627008066046983,158.9482211713912 24.573980844579637,156.58689715794753 25.146619896870106,155.46837410505395 25.9483145698905,151.86423923191614 25.9483145698905,149.00578196998686 26.52095362218097,145.27735218789894 26.406425811816007,143.9102592067793 25.146619896870106,142.41888378420845 24.115869602188468,141.6731955789728 21.710785582195967,140.5546626545256 20.450979667250067,140.5546626545256 17.70231221616268,141.42463277094066 16.44250630075112,142.5431651195977 15.640811627730727,144.0345404325053 15.411756006535143,145.02878991013858 15.640811627730727,149.1300628213212 15.411756006535143,150.99427449016366" stroke="#4dd2ff" stroke-linecap="round" stroke-linejoin="round" stroke-width="0.5"><title>2023-11-03 1.0km</title><desc>10152446508</desc></polyline><polyline fill="none" points="39.442464298568666,140.18181818188168 40.51598144788295,142.51156514696777 41.436139004305005,146.67182162008248 42.9697349332273,149.66720154648647 45.270128823816776,155.65794950677082 45.73020760156214,156.65640595904551 46.49700556602329,159.3189543443732 46.95708434469998,159.81818181823473 47.570522715337574,159.81818181823473 47.570522715337574,159.48536351439543 46.49700556602329,158.98613596742507 46.0369267873466,157.82127126306295 44.96340963803232,156.8228153247619 44.19661167450249,154.65949261467904 43.12309452518821,152.9953968154732 41.896217782981694,150.4992508222349 40.51598144788295,145.3405403806828 39.595823891460896,143.1772066964768" stroke="#4dd2ff" stroke-linecap="round" stroke-linejoin="round" stroke-width="0.5"><title>2023-11-02 1.1km</title><desc>10144903556</desc></polyline><polyline fill="none" points="62.75999143021181,141.60474977793638 63.022258463315666,143.1699733256828 64.07132659619674,145.58895268221386 65.90719582885504,152.13441107748076 69.05440022842959,158.6798473369563 69.97233484406024,159.81818181823473 69.4478007783182,158.11067984544206 67.48079802887514,155.12254776793998 66.43172989599407,151.2806568898959 65.12039472954348,149.43085485859774 63.54679252952337,146.0158310785191 62.235457363538444,140.18181818188168" stroke="#4dd2ff" stroke-linecap="round" stroke-linejoin="round" stroke-width="0.5"><title>2023-11-01 1.0km</title><desc>10138966680</desc></polyline><polyline fill="none" points="85.84396912623197,140.47710326767992 86.52428569179028,142.69174002599902 87.61279219668359,148.59742610831745 89.38161526620388,152.4361127485754 90.47012177063152,155.97950928844512 92.23894484108314,159.81818181823473 92.3750081541948,159.67054070252925 91.15043833618984,157.89884647051804 89.38161526620388,153.764887183439 87.88491882290691,151.10733743407764 85.29971587471664,143.2823094156338 85.02758924802765,140.18181818188168" stroke="#4dd2ff" stroke-linecap="round" stroke-linejoin="round" stroke-width="0.5"><title>2023-10-31 1.0km</title><desc>10133123337</desc></polyline><polyline fill="none" points="108.21560763893649,142.50910108932294 108.88584539107978,146.00002031796612 108.88584539107978,147.3091134405695 110.3603684459813,149.78184253093787 114.38179495884106,158.363643047167 115.05203271098435,159.67272798891645 115.32012781174853,159.81818181823473 112.23703415179625,153.70911179331597 110.89655864797533,149.92729708726984 109.42203559260815,146.87274916260503 107.27727478602901,140.18181818176527" stroke="#4dd2ff" stroke-linecap="round" stroke-linejoin="round" stroke-width="0.5"><title>2023-10-30 1.0km</title><desc>10127985445</desc></polyline><polyline fill="none" points="130.80066386517137,143.023937026388 131.39594079414383,147.02873305091634 131.75310695171356,148.32060078915674 134.13421466760337,153.87562124116812 135.32476852554828,157.1052762218751 137.1105993129313,159.5598100371426 137.5868208562024,159.81818181823473 137.7058762414381,159.43062413216103 136.6343777696602,157.7512065054616 135.08665775414556,154.3923664370086 132.34838388022035,149.3540942959953 131.2768854079768,145.60767744190525 130.44349770760164,143.92824660427868 130.32444232190028,141.34450371935964 130.08633155049756,140.18181818188168" stroke="#4dd2ff" stroke-linecap="round" stroke-linejoin="round" stroke-width="0.5"><title>2023-10-28 1.0km</title><desc>10115543824</desc></polyline><polyline fill="none" points="153.94660266069695,144.25456147361547 155.0189832225442,147.7454776223749 156.22541135316715,150.50911520502996 157.29779191454872,154.43638302374166 158.9063627566211,158.2181891114451 159.57660060701892,159.67272798961494 160.24683845741674,159.81818181823473 160.3808860280551,159.67272798961494 160.11279088724405,158.8000047908863 159.30850546667352,156.61819511046633 156.6275540641509,151.3818420608295 154.48279294138774,145.56365575140808 153.14231724012643,142.6545561804669 152.60612695943564,140.18181818188168" stroke="#4dd2ff" stroke-linecap="round" stroke-linejoin="round" stroke-width="0.5"><title>2023-10-27 1.0km</title><desc>10110442644</desc></polyline><polyline fill="none" points="176.42966929404065,143.21391656110063 178.95784710114822,151.7326440984616 179.889281029813,154.3315705669811 180.82071495894343,155.91980171622708 181.8852108772844,158.9518757974729 182.28439684724435,159.52941318729427 183.08276878623292,159.81818181823473 183.21583077544346,159.38502885575872 183.08276878623292,158.80749142356217 181.75214888714254,157.07487810892053 179.75621904013678,153.60964689298999 177.36110322363675,146.53478084306698 175.76435934519395,143.9358440565411 174.9659874062054,140.18181818188168" stroke="#4dd2ff" stroke-linecap="round" stroke-linejoin="round" stroke-width="0.5"><title>2023-10-26 1.0km</title><desc>10104873905</desc></polyline><polyline fill="none" points="19.92558975191787,171.39132920349948 22.94165996927768,178.93281815049704 24.384128333535045,181.49407186289318 24.90866228379309,181.63636363635305 24.777528796810657,180.21344543015584 21.236924628261477,174.0948852240108 19.269922312814742,169.11464752058964 17.56518697272986,165.5573270296445 16.909519534558058,162.0" stroke="#4dd2ff" stroke-linecap="round" stroke-linejoin="round" stroke-width="0.5"><title>2023-10-25 1.0km</title><desc>10098978222</desc></polyline><polyline fill="none" points="39.87399924406782,162.0 39.74190854374319,163.00332264474127 40.534452746622264,166.29995055578183 41.591178350150585,168.44992227724288 42.25163185223937,171.02988521324005 43.440448156092316,174.4698304835474 45.95017146412283,179.34307589393575 46.7427156670019,181.3497028161073 47.006897068116814,181.63636363635305 47.271078469231725,181.49303323135246 47.13898776844144,179.62973700882867 45.68599006347358,176.90645471122116 44.62926446041092,175.32981585292146 43.30835745530203,172.31986540090293 43.04417605511844,170.74322283361107 41.4590876493603,168.3065909029683 40.534452746622264,166.15661902329884 40.27027134550735,163.5766496383585 39.87399924406782,162.0" stroke="#4dd2ff" stroke-linecap="round" stroke-linejoin="round" stroke-width="0.5"><title>2023-10-24 1.0km</title><desc>10092835699</desc></polyline><polyline fill="none" points="64.08595006540418,165.39046560798306 66.03880107030272,172.31264764862135 66.95013153878972,174.00787210231647 67.99165207473561,178.24592669354752 69.55393287818879,181.07129122805782 70.20488321362063,181.63636363635305 69.55393287818879,180.93002309976146 68.6426024097018,178.6697316385107 66.29918120382354,175.84436357265804 65.77842093631625,174.85548376839142 65.2576606683433,171.6063036848791 63.69537986442447,168.49838715977967 62.653859328944236,165.249196327175 62.002908994443715,162.0" stroke="#4dd2ff" stroke-linecap="round" stroke-linejoin="round" stroke-width="0.5"><title>2023-10-23 1.0km</title><desc>10087395010</desc></polyline><polyline fill="none" points="82.34374780231155,162.0941806390183 82.69091781717725,162.0 85.16450417391025,162.18836126406677 86.24941047048196,162.47090305626625 86.50978798186406,162.61217390571255 87.07393925637007,163.0359862667974 87.46450552297756,163.5068885613 88.3324305601418,165.1079537726473 88.76639307918958,166.8973748605349 89.33054435346276,167.83917342487257 89.59092186461203,168.59261127916398 90.198469390627,169.95821513107512 90.63243190967478,171.37090570677537 91.28337568766437,172.5010559237562 91.58714945055544,172.83068269473733 91.9777157176286,173.48993572779 92.19469697680324,174.9026185136172 92.3248857324943,175.2793333969894 92.67205574735999,175.79731599980732 92.75884825130925,176.59783374378458 92.88903700676747,176.9274584063096 94.79847208899446,181.44800809194567 95.05884960037656,181.63636363635305 95.05884960037656,181.40091919706902 94.66828333353624,181.0242079141899 94.23432081495412,179.98825074371416 93.80035829590634,179.09355911187595 92.6286594956182,175.46769075555494" stroke="#4dd2ff" stroke-linecap="round" stroke-linejoin="round" stroke-width="0.5"><title>2023-10-22 1.5km</title><desc>10080655811</desc></polyline><polyline fill="none" points="108.17549092532136,162.0 108.86443438986316,162.49839189951308 107.62433615350164,162.29903518367792 109.5533778546378,164.79098991729552 109.73709611198865,165.3890576902195 109.59930741903372,165.8874470977462 108.956293518655,166.23631946515525 108.77257526130415,166.58519165281905 108.81850482570007,167.18325784249464 109.18594134016894,168.6285822892096 109.59930741903372,169.67519462003838 110.0586030620616,171.27002934983466 110.88533521979116,172.71534508280456 111.02312391274609,173.26356748573016 111.52834912016988,174.16065773402806 111.84985607047565,174.5593641300802 111.89578563440591,174.8085555084399 112.21729258494452,175.10758504166733 112.44694040645845,175.6059673037962 112.76844735676423,176.55289259238634 113.08995430683717,177.20078808034305 113.04402474267408,178.49657719855895 113.64110907865688,179.64285012311302 113.82482733600773,180.19106692366768 114.14633428608067,180.7891211095266 114.69748905790038,181.4868503261241 114.97306644381024,181.63636363635305 113.91668646456674,180.14122905104887 113.6870386430528,179.3438225905993 113.2277429997921,178.3470631959499 113.04402474267408,177.69916880351957 112.44694040645845,176.8519213561085 111.94171519903466,175.406614442938" stroke="#4dd2ff" stroke-linecap="round" stroke-linejoin="round" stroke-width="0.5"><title>2023-10-20 1.4km</title><desc>10069668027</desc></polyline><polyline fill="none" points="129.94485398521647,162.0 130.03837469336577,162.7611097744084 130.78654035669751,164.5877698076656 130.97358177276328,165.7040596701554 132.51667345385067,169.45883959176717 132.65695451572537,169.9662407169235 132.75047522387467,170.72734170535114 132.9375166397076,171.23474189796252 134.05976513493806,172.80768012418412 134.66764973662794,174.02543628879357 135.04173256852664,175.24319030460902 135.3690550464671,175.9028061660938 135.55609646230005,176.91759856807766 135.78989823232405,177.42499420949025 136.3977828337811,178.9979183272808 136.49130354169756,179.6067912169965 137.37975026736967,181.43340666306904 137.61355203716084,181.63636363635305 137.75383309903555,181.63636363635305 137.84735380695201,181.58562439854722 137.8005934532266,181.5348851570743 136.86538637359627,180.36788157362025 136.44454318797216,178.94717889558524 135.55609646230005,177.32351511099841 135.41581540042534,176.66390060738195 135.32229469227605,175.5476284729084" stroke="#4dd2ff" stroke-linecap="round" stroke-linejoin="round" stroke-width="0.5"><title>2023-10-19 1.3km</title><desc>10064004415</desc></polyline><polyline fill="none" points="152.0656569376588,162.0 153.99080891814083,164.50678116001654 153.8624654528685,166.3172321569873 154.11915238341317,168.12768142367713 155.0175566417165,171.33077973301988 156.30099129490554,173.41975397372153 157.5844259490259,177.040637200349 160.1512952572666,181.21857078454923 160.53632565354928,181.63636363635305 160.9213560493663,181.49709936243016 159.25289099896327,179.825927280006 156.1726478296332,173.8375485453289 155.40258703753352,171.1915147016989 153.22074812557548,166.5957629258046" stroke="#4dd2ff" stroke-linecap="round" stroke-linejoin="round" stroke-width="0.5"><title>2023-10-18 1.0km</title><desc>10058081424</desc></polyline><polyline fill="none" points="175.6635553110391,163.19008806895 176.76030852040276,169.58679944928735 179.6392856957391,177.17357045179233 181.5586038120091,181.1900847607758 182.3811687193811,181.63636363635305 182.7924511730671,181.63636363635305 183.06663947505876,181.04132511408534 182.10698041738942,179.85124754346907 180.87313305633143,177.91736999968998 179.2280032420531,174.34712967742234 178.54253248637542,172.26448658062145 175.6635553110391,166.46282665070612 175.38936700904742,165.57026210788172 175.1151787065901,162.0" stroke="#4dd2ff" stroke-linecap="round" stroke-linejoin="round" stroke-width="0.5"><title>2023-10-17 1.0km</title><desc>10051702317</desc></polyline><polyline fill="none" points="16.524185922462493,184.27133078686893 17.91621925169602,186.6881235985784 20.00426924461499,192.12589702999685 21.117895908188075,194.24058281094767 22.37072590412572,198.16785062954295 23.901962566189468,202.09511094167829 24.45877589797601,203.1524489739677 25.154792562127113,203.4545454545878 25.293995895422995,203.30349721992388 25.154792562127113,202.85035244876053 23.623555900529027,200.584627094795 21.535505907144397,195.44897370843682 20.00426924461499,192.2769460863201 18.751439249143004,186.38602465228178 18.05542258406058,183.81818181823473" stroke="#4dd2ff" stroke-linecap="round" stroke-linejoin="round" stroke-width="0.5"><title>2023-10-16 1.0km</title><desc>10046279660</desc></polyline><polyline fill="none" points="39.485063889063895,183.81818181823473 40.05955383460969,185.06494047271553 40.63404377968982,187.8701447645435 41.92664615716785,192.2337885069428 43.650115992408246,194.88313925359398 45.6608308008872,202.3636411356274 46.37894323281944,203.1428585635731 47.384300637058914,203.4545454545878 47.52792312391102,203.1428585635731 47.384300637058914,202.20779761555605 45.51720831496641,199.5584560232237 44.511850910726935,196.44157932233065 43.36287102010101,194.57145110226702 40.63404377968982,188.18183390132617 39.62868637545034,183.81818181823473" stroke="#4dd2ff" stroke-linecap="round" stroke-linejoin="round" stroke-width="0.5"><title>2023-10-15 1.0km</title><desc>10039610121</desc></polyline><polyline fill="none" points="62.017603817395866,185.24340778426267 62.45542084798217,189.83579614944756 63.62293293047696,193.1613126466982 65.0823230324313,195.21996314299759 65.95795709453523,198.07039904419798 68.43892026785761,202.50440294819418 69.02267630863935,203.13783133239485 69.75237136054784,203.4545454545878 70.19018839020282,203.13783133239485 70.19018839020282,202.66276006156113 67.27140818536282,200.28740213694982 65.37420105282217,196.8035391094163 64.644506001845,193.79474377818406 62.89323787856847,189.83579614944756 62.017603817395866,186.51027451839764 62.1635428275913,184.451615697355 62.017603817395866,183.81818181823473" stroke="#4dd2ff" stroke-linecap="round" stroke-linejoin="round" stroke-width="0.5"><title>2023-10-14 1.0km</title><desc>10033377496</desc></polyline><polyline fill="none" points="84.24900227924809,184.129871550831 86.83420665375888,187.2467663543066 87.1214515841566,189.58443444920704 89.56303349277005,197.06495502928738 91.86099293641746,202.51948464405723 92.57910526217893,203.4545454545878 93.15359512344003,203.4545454545878 93.15359512344003,202.98701510112733 93.00997265754268,202.51948464405723 91.71737047052011,201.58442342106719 90.28114581899717,198.9350810496835 88.70129870111123,193.94807466259226 85.82884939713404,187.55845558235887 85.39798200130463,185.3766300220741 84.6798696750775,183.81818181823473" stroke="#4dd2ff" stroke-linecap="round" stroke-linejoin="round" stroke-width="0.5"><title>2023-10-13 1.0km</title><desc>10028006924</desc></polyline><polyline fill="none" points="107.08541097538546,183.81818181823473 108.4668176388368,185.6169405542314 109.29566163662821,187.11590495484415 109.43380230339244,189.06455702870153 109.29566163662821,191.16310333297588 110.81520896637812,194.31091873976402 112.61103762872517,199.10758049006108 114.40686629153788,202.40527889772784 114.82128829043359,203.00485985376872 115.51199162192643,203.4545454545878 115.51199162192643,202.70506939769257 113.99244429217651,200.756430360605 112.61103762872517,198.3581028355984 110.81520896637812,193.41154340514913 109.71008363598958,191.46289548603818 109.1575209707953,189.8140380998375" stroke="#4dd2ff" stroke-linecap="round" stroke-linejoin="round" stroke-width="0.5"><title>2023-10-12 1.0km</title><desc>10021974100</desc></polyline><polyline fill="none" points="131.6002877340652,186.60245410341304 132.14047977235168,189.53326283406932 132.00543176289648,190.70558511989657 133.22086384799331,194.66216774319764 134.1661999146454,196.42064638785087 135.11153598222882,199.6445198743604 136.46201607678086,202.8683881467441 136.73211209615692,203.16146682202816 137.4073521438986,203.4545454545878 137.27230413397774,202.8683881467441 135.78677602950484,199.05836144660134 134.1661999146454,196.2741065598093 132.00543176289648,191.29174600390252 131.46523972414434,189.38672249997035 131.1951437056996,186.60245410341304 130.38485564803705,183.81818181823473" stroke="#4dd2ff" stroke-linecap="round" stroke-linejoin="round" stroke-width="0.5"><title>2023-10-10 1.0km</title><desc>10009069592</desc></polyline><polyline fill="none" points="153.16695674788207,186.27273801004048 154.09839067654684,188.87167651590426 155.02982460567728,192.3369225076167 157.0257544531487,196.6684713989962 158.62249833066016,202.15508628054522 159.55393225932494,203.4545454545878 159.82005623960868,203.02139249211177 159.95311822928488,201.43316414533183 159.02168430015445,198.68985761201475 157.0257544531487,195.22462282993365 154.76370062632486,188.87167651590426 154.09839067654684,185.98396685230546 153.0338947577402,183.81818181823473" stroke="#4dd2ff" stroke-linecap="round" stroke-linejoin="round" stroke-width="0.5"><title>2023-10-09 1.0km</title><desc>10003389142</desc></polyline><polyline fill="none" points="175.09285973152146,183.81818181823473 176.07483676774427,185.03594622015953 177.05681380350143,187.31925254268572 177.6179435378872,191.88585763401352 179.72218004334718,196.4524526532041 181.54585168045014,201.62791483278852 182.3875462822616,203.15010712959338 183.08895845059305,203.4545454545878 183.08895845059305,202.23679188604 180.42359221121296,197.97464875481091 176.9165313700214,189.45033617177978 175.51370703289285,183.97040240792558" stroke="#4dd2ff" stroke-linecap="round" stroke-linejoin="round" stroke-width="0.5"><title>2023-10-08 1.0km</title><desc>9996447828</desc></polyline><polyline fill="none" points="18.388517200481147,209.56365253264084 19.034818151965737,211.94807398936246 20.973721004091203,217.137686858885 21.620021955575794,219.38183940306772 23.688184997998178,224.57143205136526 24.334485949017107,225.2727272727061 24.463746139314026,224.7116911164485 24.463746139314026,224.15065479534678 22.007802526000887,219.80261771124788 20.844460814259946,217.27794646995608 18.7762977713719,211.1065138153499 18.12999681988731,207.88052970950957 17.354435679037124,205.63636363635305" stroke="#4dd2ff" stroke-linecap="round" stroke-linejoin="round" stroke-width="0.5"><title>2023-10-07 1.0km</title><desc>9989974159</desc></polyline><polyline fill="none" points="41.90220066066831,211.4855145162437 42.92894808202982,214.8278783382848 43.69900864781812,216.49905803822912 45.23912977986038,223.044497666182 45.62416006298736,224.29787714208942 46.39422062924132,225.2727272727061 47.03593776701018,225.2727272727061 47.29262462211773,224.715670116595 47.164281195029616,224.29787714208942 45.62416006298736,222.06964638864156 44.0840389309451,218.72729534399696 43.570665220264345,216.49905803822912 40.87545323977247,209.9535957936896 40.49042295664549,207.5860826028511 39.72036239085719,205.63636363635305" stroke="#4dd2ff" stroke-linecap="round" stroke-linejoin="round" stroke-width="0.5"><title>2023-10-06 1.0km</title><desc>9984428862</desc></polyline><polyline fill="none" points="61.87644813861698,205.63636363635305 64.10142075177282,211.59167285484727 65.58473582752049,216.58124378195498 68.10637145582587,222.8584297640482 69.14469200838357,224.95082109270152 69.58968653157353,225.2727272727061 70.1830125618726,225.2727272727061 70.3313440689817,224.95082109270152 69.88634954579175,224.1460554334335 68.10637145582587,221.57080333784688 67.06805090326816,219.47840877925046 65.28807281237096,214.81075217411853 64.54641527496278,212.39644312835298 62.46977416891605,208.53354311734438 62.46977416891605,207.0849538560724" stroke="#4dd2ff" stroke-linecap="round" stroke-linejoin="round" stroke-width="0.5"><title>2023-10-04 1.0km</title><desc>9971682885</desc></polyline><polyline fill="none" points="85.72925816010684,207.92967177950777 86.38971161376685,210.22297722520307 87.0501650669612,211.79962315422017 87.57852783054113,214.23625526379328 90.08825095370412,219.25284119462594 90.22034164518118,220.97281054221094 91.01288578938693,224.41274468542542 91.2770671704784,224.842736026505 92.06961131514981,225.2727272727061 92.06961131514981,223.83942274970468 90.35243233619258,220.68614908971358 89.1636161194183,217.96286318823695 88.50316266529262,216.6728843281744 87.84270921163261,214.80958002363332 86.52180230477825,212.08628591359593 85.99343954119831,209.93631419201847 85.72925816010684,207.7863400997594 85.33298608800396,205.63636363635305" stroke="#4dd2ff" stroke-linecap="round" stroke-linejoin="round" stroke-width="0.5"><title>2023-10-03 1.0km</title><desc>9965060084</desc></polyline><polyline fill="none" points="107.70932517945766,206.44778708112426 109.50401323847473,212.2900270796381 109.80312791466713,214.8865732268896 110.85002928320318,216.18484515487216 111.59781597461551,218.13225161540322 112.94383201934397,223.16304368712008 113.9907333869487,224.7858773933258 114.73852007836103,225.2727272727061 114.88807741738856,225.1104439913761 114.43940540216863,223.81217731256038 112.79427468124777,220.72879089042544 110.10224259085953,214.23743697616737 108.45711186993867,209.36890901299194 108.15799719374627,205.63636363635305" stroke="#4dd2ff" stroke-linecap="round" stroke-linejoin="round" stroke-width="0.5"><title>2023-10-02 1.0km</title><desc>9958643020</desc></polyline><polyline fill="none" points="130.78351702960208,209.09237672155723 131.07305999379605,210.50619864545297 134.25803260179237,218.0465664388612 135.8505189055577,222.91637316404376 136.71914779907092,224.6443664309336 137.58777669165283,225.2727272727061 137.73254817398265,225.11563707957976 137.58777669165283,224.48727619170677 134.6923470478505,220.0887448041467 131.94168888684362,213.3338396861218 130.63874554727226,209.24946809280664 130.05965961841866,205.63636363635305" stroke="#4dd2ff" stroke-linecap="round" stroke-linejoin="round" stroke-width="0.5"><title>2023-10-01 1.0km</title><desc>9952075403</desc></polyline><polyline fill="none" points="153.6741354712285,208.48222578293644 154.854337294586,210.9012053173501 155.37887143762782,213.3201818286907 155.77227204525843,215.59686284209602 157.7392750843428,221.14626159286126 159.44401105120778,224.7035601157695 160.230812266469,225.2727272727061 160.4930793386884,224.8458519205451 157.87040862068534,220.8616774288239 156.69020679732785,218.15812578098848 156.29680618923157,216.73520234436728 154.4609366869554,212.75101115682628 153.4118683990091,208.33993277477566 152.49393364787102,205.63636363623664" stroke="#4dd2ff" stroke-linecap="round" stroke-linejoin="round" stroke-width="0.5"><title>2023-09-30 1.0km</title><desc>9945549317</desc></polyline><polyline fill="none" points="176.05070975329727,205.63636363635305 177.35365232639015,207.83564533735625 177.78796651773155,209.56365080014803 178.94613769371063,212.39129308855627 179.5252232826315,216.63274950475898 179.95953747350723,217.88947571488097 181.6967942379415,222.13092121726368 182.13110842881724,224.80145665886812 182.42065122304484,225.11563707957976 182.85496541438624,225.2727272727061 182.99973681103438,224.95854687481187 180.39385166484863,220.2458353670081 178.6565948999487,216.161476985435 178.07750931195915,213.80511282931548 176.05070975329727,209.0923767220229 175.18208137061447,206.26473006757442" stroke="#4dd2ff" stroke-linecap="round" stroke-linejoin="round" stroke-width="0.5"><title>2023-09-28 1.0km</title><desc>9933629332</desc></polyline><polyline fill="none" points="17.07045185379684,229.68596000992693 18.16720586968586,233.55373941059224 20.22361964918673,236.38018891238607 21.594562168698758,241.43803606170695 23.513881696388125,244.85951372922864 24.062258704565465,246.79338985146023 24.610635711811483,247.09090909094084 24.884824216365814,246.64463021524716 24.610635711811483,246.04959156154655 23.513881696388125,244.5619941613404 20.360713900998235,238.16531287913676 18.715582876931876,233.70250000886153 16.933357601985335,227.45454545447137" stroke="#4dd2ff" stroke-linecap="round" stroke-linejoin="round" stroke-width="0.5"><title>2023-09-27 1.0km</title><desc>9927137811</desc></polyline><polyline fill="none" points="45.13775317929685,227.45454545452958 44.74625085783191,229.3426834429847 44.35474853636697,230.42836027150042 44.05024673091248,231.7500513236737 42.26673615514301,235.4790935513447 41.3532307385467,237.03678832110018 41.1792297065258,237.69762738444842 41.26623022230342,238.21685760002583 41.483731512213126,238.9721008001361 42.13623538124375,240.5769896506099 42.353736671153456,241.00181249820162 42.61473821871914,241.7570524222101 43.48474337742664,242.8427082564449 43.87624569889158,243.6923506720923 44.31124827847816,244.3531828848063 44.65925034205429,245.2972277229419 45.18125343741849,246.00526044052094 45.833757306449115,247.09090909088263" stroke="#4dd2ff" stroke-linecap="round" stroke-linejoin="round" stroke-width="0.5"><title>2023-09-26 1.0km</title><desc>9920397094</desc></polyline><polyline fill="none" points="66.01219249982387,227.45454545452958 65.15629219729453,230.3071518392535 64.3003918947652,231.83296085434267 63.50562732806429,232.82805230014492 63.077677177032456,233.6241246665595 62.89426996931434,234.42019633046584 62.955405704909936,235.41528492275393 63.261084384750575,236.21135500638047 63.99471321539022,237.3391197558958 64.3003918947652,238.46688309579622 64.91174925351515,239.92633944307454 66.0733282356523,241.38579342979938 68.02967178425752,245.36611048603663 69.31352223828435,247.09090909088263" stroke="#4dd2ff" stroke-linecap="round" stroke-linejoin="round" stroke-width="0.5"><title>2023-09-25 1.0km</title><desc>9914573673</desc></polyline><polyline fill="none" points="90.14898840337992,227.45454545447137 89.66642516944557,228.18764609313803 89.56991252256557,228.5541961294366 89.66642516944557,229.02547447034158 89.71468149288557,229.4967524993117 88.74955502478406,231.27713334967848 88.50827340758406,232.48150610696757 88.17047914396971,233.37169335759245 86.14371356111951,236.93243123288266 86.09545723767951,237.3513404005207 86.28848253120668,238.18915799702518 86.81930208881386,239.0269746078411 87.10884002922103,239.76006333372789 87.54314693971537,240.49315130501054 87.78442855668254,241.22623852163088 88.41176076093689,242.221141394577 88.89432399487123,243.21604287769878 89.4251435524784,243.79203783796402 89.56991252256557,244.31566921569174 89.90770678641275,244.73457404068904 90.63155163754709,245.9912870376138 91.16237119492143,246.56727975339163 91.3071401650086,247.09090909088263" stroke="#4dd2ff" stroke-linecap="round" stroke-linejoin="round" stroke-width="0.5"><title>2023-09-24 1.0km</title><desc>9907510217</desc></polyline><polyline fill="none" points="112.03074649279006,227.45454545447137 111.62080118409358,228.0900334637845 111.3279831064865,228.7255210057483 111.15229225996882,229.5516541118268 111.0937286443077,230.63198082806775 110.09814718016423,231.96650020167 109.51251102495007,233.49166267656256 108.98543848493136,234.2542429046589 108.63405679166317,235.27101549570216 108.57549317600206,236.3513350628782 109.80532910255715,239.4651897896547 110.27383802668191,240.41840838169446 111.79649203084409,242.83322410978144 112.44069180171937,244.42191498843022 113.26058241911232,245.43867561820662 113.72909134370275,246.26479274930898 114.02190942130983,247.09090909088263" stroke="#4dd2ff" stroke-linecap="round" stroke-linejoin="round" stroke-width="0.5"><title>2023-09-23 1.0km</title><desc>9901004991</desc></polyline><polyline fill="none" points="134.65011086221784,227.45454545452958 134.25914428732358,228.1818265238544 133.86817771242931,229.45456685096724 132.97453982685693,231.33337040868355 132.08090194151737,232.6061058694031 131.29896879172884,234.72732727008406 131.2431164237205,235.87884517293423 131.35482115973718,236.5455126974266 132.47186851641163,239.21217740292195 132.63942561973818,240.00005396042252 132.86283509107307,240.42429487174377 133.6447682408616,241.39398756361334 134.25914428732358,242.60610182397068 134.76181559776887,243.87881987943547 135.59960111533292,245.09093048621435 136.54909136868082,247.09090909088263" stroke="#4dd2ff" stroke-linecap="round" stroke-linejoin="round" stroke-width="0.5"><title>2023-09-22 1.0km</title><desc>9895405405</desc></polyline><polyline fill="none" points="157.53443535417318,227.45454545447137 157.37429245258681,228.03379622573266 157.05400664941408,228.38134648406412 156.36005407525226,229.65569611924002 156.0931492394302,230.58249455911573 155.2924347310327,232.6098623450962 154.43833925551735,234.34760200895835 153.90452958317474,235.62194199307123 153.74438668158837,236.25911121198442 153.74438668158837,236.66458226484247 153.90452958317474,237.24382626404986 154.2248153865803,237.82306983741 154.91876796074212,239.6187222081935 155.61272053443827,240.89305366569897 155.98638730496168,241.81983888568357 156.68033987865783,242.97831887751818 157.1073876162991,243.49963431817014 157.42767341970466,244.42641647183336 158.28176889522,245.93243514624191 159.24262630520388,247.09090909088263" stroke="#4dd2ff" stroke-linecap="round" stroke-linejoin="round" stroke-width="0.5"><title>2023-09-21 1.0km</title><desc>9889267953</desc></polyline><polyline fill="none" points="181.09013506793417,227.45454545447137 180.38937544706278,229.55687436508015 179.97716390551068,231.21189414069522 179.31762543856166,232.59852886438603 178.53442350937985,234.9244896901073 177.1741254220251,237.47409037820762 176.8031350346282,238.86071082780836 176.8443561885506,239.1738182338304 177.09168311348185,239.84476213267772 177.62755811796524,241.00772980455076 177.9573273512069,241.99177763657644 178.78175043454394,243.1547412039945 179.27640428463928,244.09405630873516 179.56495236372575,244.76499478134792 179.89472159696743,245.34647419233806 180.43059660121799,245.74903653596994 181.09013506793417,246.73307669896167 181.13135622208938,246.9119929212029 181.37868314725347,247.09090909088263" stroke="#4dd2ff" stroke-linecap="round" stroke-linejoin="round" stroke-width="0.5"><title>2023-09-20 1.0km</title><desc>9882714971</desc></polyline><polyline fill="none" points="22.53727602935396,249.2727272727643 22.118599855573848,250.33280237665167 21.32776708295569,252.6548659314867 21.28124750801362,253.41205887083197 21.00213005882688,253.8158947636839 20.6764930349309,254.5730864224024 20.49041473539546,255.27979788382072 20.118258136324584,256.2389051319333 19.048307914519683,257.95519896870246 18.76919046533294,258.96478157432284 18.676151315681636,259.8734046500176 18.76919046533294,260.7820265230839 19.048307914519683,261.791604971746 19.37394493841566,262.49830900260713 20.397375585511327,264.2650658969651 20.909090909175575,264.9717673815903 21.374286657664925,266.2337325094268 21.839482406387106,267.04138897382654 22.304678154876456,267.69760915165534 22.816393478307873,268.2023934770841 23.142030502669513,268.90909090911737" stroke="#4dd2ff" stroke-linecap="round" stroke-linejoin="round" stroke-width="0.5"><title>2023-09-19 1.0km</title><desc>9876194288</desc></polyline><polyline fill="none" points="43.3619552757591,249.2727272727643 43.01506352215074,249.83735745755257 42.4369105999358,250.96661670639878 42.263464723248035,251.71945537504507 41.22278946265578,253.53881274879677 40.41337537113577,255.23269371298375 40.239929494448006,255.86005617969204 40.29774478683248,256.5501543600694 40.64463654044084,257.42846032819944 41.16497417050414,258.36950143345166 41.62749650841579,259.6869572373107 42.263464723248035,261.06714685005136 42.957248229999095,262.32186274259584 43.59321644483134,263.13742708339123 44.34481524396688,264.39213993167505 44.8073375816457,265.835057426244 45.61675167339854,267.0897663079086 46.021458719158545,268.2190027239849 46.77305751829408,268.90909090911737" stroke="#4dd2ff" stroke-linecap="round" stroke-linejoin="round" stroke-width="0.5"><title>2023-09-18 1.0km</title><desc>9870505463</desc></polyline><polyline fill="none" points="66.30120635963976,249.2727272727643 66.01933456538245,249.82328583922936 65.62471405393444,251.65847842936637 65.11734482483007,252.5149002528051 64.89184738928452,253.18780249543488 63.65161149576306,255.2065059581655 63.20061662537046,256.307614873338 62.918744831345975,257.2863771299599 63.14424226642586,257.95927551347995 64.38447815994732,260.6508636053768 65.00459610694088,261.6296207527048 65.45559097733349,262.66954896005336 66.1884576419834,263.6483037326252 66.58307815366425,264.3211969708209 67.09044738276862,265.91166973434156 69.28904737625271,268.90909090911737" stroke="#4dd2ff" stroke-linecap="round" stroke-linejoin="round" stroke-width="0.5"><title>2023-09-16 1.0km</title><desc>9856514700</desc></polyline><polyline fill="none" points="88.42985585448332,249.2727272727643 87.82664952799678,251.10547287203372 87.04248130321503,252.34911952260882 85.41382422135212,255.49095595336985 85.35350358835422,256.2109585738508 85.41382422135212,257.0618700106861 85.77574801724404,257.912780634244 86.37895434396341,258.8291450116085 86.92184003768489,260.07278087211307 87.88697016052902,261.70914119959343 89.09338281396776,264.0000406051986 89.21402407926507,264.85094459721586 89.63626850792207,265.17821514682146 90.11883356934413,265.83275588508695 90.90300179366022,267.14183591800975 91.74749065097421,267.86182911565993 91.92845254903659,268.3200063018594 92.04909381456673,268.90909090911737" stroke="#4dd2ff" stroke-linecap="round" stroke-linejoin="round" stroke-width="0.5"><title>2023-09-15 1.0km</title><desc>9850671982</desc></polyline><polyline fill="none" points="111.79790591076016,249.2727272727643 110.79949668701738,251.91350399161456 109.6762863099575,253.53859359305352 109.17708169831894,254.4188492631656 108.42827478027903,256.31478169490583 108.24107305076905,256.9918994746404 108.24107305076905,257.5335933396127 108.42827478027903,258.2107102231821 109.17708169831894,260.24205788661493 109.86348803946748,261.5962871729862 111.54830360482447,264.50787339551607 112.23470994620584,265.79438530578045 112.35951109905727,266.5392071692622 112.8587157111615,267.0131844050484 113.6699232053943,268.29969281551894 114.35632954677567,268.90909090911737" stroke="#4dd2ff" stroke-linecap="round" stroke-linejoin="round" stroke-width="0.5"><title>2023-09-14 1.0km</title><desc>9844236351</desc></polyline><polyline fill="none" points="130.77528217085637,249.2727272727643 131.134513448691,249.56508434808347 131.26922517782077,249.85744129441446 131.359032997163,250.4908809022163 131.62845645542257,251.02686778991483 131.80807209433988,252.537373958854 131.80807209433988,253.26826280454407 131.71826427499764,253.65806985925883 131.80807209433988,254.14532835537102 132.0325916428119,254.73003807774512 131.94278382346965,255.21729578560917 131.9876877332572,255.4609245051397 132.43672683043405,256.2892614818411 132.84086201782338,257.5074022138142 133.20009329542518,258.189560045721 133.64913239260204,258.8229916894343 134.1430753993336,259.26152093417477 134.2777871284634,259.55387360288296 134.412498857826,260.1873039426282 134.7717301354278,260.82073367695557 135.17586532281712,261.9901408266742 135.71471223933622,263.0133703900501 135.98413569759578,263.8904230442131 136.11884742672555,264.62129936920246 136.3882708849851,265.20599984913133 136.8822138919495,266.81392350868555 137.5557725375984,268.0807697052369 137.60067644761875,268.2756689051748 137.5557725375984,268.4218432675116 137.01692562107928,268.90909090911737 137.28634907933883,268.71419189544395 137.4210608084686,268.4218432675116 137.51086862781085,268.1782193123945 137.46596471848898,267.8371456247405 137.1965412599966,267.4960717615322 136.3882708849851,265.7419748356333 135.98413569759578,264.4263990946929 135.1309614132624,262.52611841395264 134.72682622564025,260.67455763818 134.50230667716824,260.1385785534512 133.64913239260204,259.0178936118609 132.79595810803585,257.4099510376691 132.3918229204137,256.09435875696363 132.25711119174957,255.21729578560917 131.89787991368212,254.29150583437877 131.17941735847853,252.73227772989776 130.9998017193284,252.0013882930507 130.37114698346704,250.83196351729566 130.23643525433727,250.19852423545672 130.19153134454973,249.41890582657652" stroke="#4dd2ff" stroke-linecap="round" stroke-linejoin="round" stroke-width="0.5"><title>2023-09-13 1.0km</title><desc>9837636972</desc></polyline></svg>