<svg xmlns="http://www.w3.org/2000/svg" xmlns:ev="http://www.w3.org/2001/xml-events" xmlns:xlink="http://www.w3.org/1999/xlink" width="200mm" height="300mm" baseProfile="full" version="1.1" viewBox="0 0 200 300"><rect width="200" height="300" x="0" y="0" fill="#222"/><text fill="#FFF" style="font-size:12px;font-family:Arial;font-weight:700" x="10" y="20">Over 1km Runs</text><text fill="#FFF" style="font-size:4px;font-family:Arial" x="10" y="280">ATHLETE</text><text fill="#FFF" style="font-size:9px;font-family:Arial" x="10" y="290">Jiakai</text><text fill="#FFF" style="font-size:4px;font-family:Arial" x="120" y="280">STATISTICS</text><text fill="#FFF" style="font-size:3px;font-family:Arial" x="120" y="285">Number: 54</text><text fill="#FFF" style="font-size:3px;font-family:Arial" x="120" y="290">Weekly: 6.0</text><text fill="#FFF" style="font-size:3px;font-family:Arial" x="141" y="285">Total: 56.2 km</text><text fill="#FFF" style="font-size:3px;font-family:Arial" x="141" y="290">Avg: 1.0 km</text><text fill="#FFF" style="font-size:3px;font-family:Arial" x="167" y="285">Min: 1.0 km</text><text fill="#FFF" style="font-size:3px;font-family:Arial" x="167" y="290">Max: 1.5 km</text><polyline fill="none" stroke="#4dd2ff" stroke-linecap="round" stroke-linejoin="round" stroke-width=".5" points="20.652 34.061 22.328 39.152 24.339 43.333 25.512 48.242 26.685 51.697 28.193 54.97 28.863 55.333 29.198 54.606 27.355 50.97 26.349 46.97 22.663 43.515 20.652 40.606 20.317 37.515 17.469 31.333"><title>2023-11-12 1.0km</title><desc>10202270880</desc></polyline><polyline fill="none" stroke="#4dd2ff" stroke-linecap="round" stroke-linejoin="round" stroke-width=".5" points="50.369 35.811 54.33 44.766 55.651 49.244 56.971 52.826 57.796 54.438 58.622 55.333 58.787 54.617 57.301 50.139 54.495 45.841 51.524 39.035 50.369 34.199 49.213 31.333"><title>2023-11-11 1.0km</title><desc>10196068378</desc></polyline><polyline fill="none" stroke="#4dd2ff" stroke-linecap="round" stroke-linejoin="round" stroke-width=".5" points="82.435 34.912 85.152 43.123 87.674 49.86 88.838 54.281 89.614 55.333 90.002 54.912 89.42 52.386 86.51 45.86 83.6 39.754 79.719 33.649 79.331 31.333"><title>2023-11-10 1.0km</title><desc>10191120477</desc></polyline><polyline fill="none" stroke="#4dd2ff" stroke-linecap="round" stroke-linejoin="round" stroke-width=".5" points="109.762 32.066 112.632 34.265 114.32 37.196 114.827 38.295 114.827 39.944 116.684 45.623 117.359 48.921 118.71 52.585 119.048 54.417 119.892 55.333 120.398 55.15 120.905 54.417 119.048 53.135 116.009 48.738 112.463 39.028 111.619 33.532 110.775 31.333"><title>2023-11-09 1.0km</title><desc>10185506531</desc></polyline><polyline fill="none" stroke="#4dd2ff" stroke-linecap="round" stroke-linejoin="round" stroke-width=".5" points="141.318 33.26 143.094 36.764 143.74 38.516 145.839 43.071 146.646 46.224 146.484 44.297 146.807 45.523 147.453 50.253 148.906 54.633 149.552 55.333 150.359 54.983 150.682 54.457 148.906 52.881 147.614 50.779 146.807 48.501 145.677 44.647 144.063 42.37 142.287 38.516 141.802 35.713 141.964 32.209 141.641 31.333"><title>2023-11-08 1.0km</title><desc>10179505859</desc></polyline><polyline fill="none" stroke="#4dd2ff" stroke-linecap="round" stroke-linejoin="round" stroke-width=".5" points="175.584 44.592 180.997 55.333 181.307 55.166 180.533 53.319 179.141 50.97 178.213 48.62 176.357 46.606 175.739 45.431 175.275 41.403 174.965 40.228 173.109 37.04 172.027 31.333"><title>2023-11-06 1.0km</title><desc>10167691585</desc></polyline><polyline fill="none" stroke="#4dd2ff" stroke-linecap="round" stroke-linejoin="round" stroke-width=".5" points="21.026 64.734 22.14 66.806 26.277 76.302 28.027 81.655 28.346 82 28.664 82 28.664 81.482 27.391 78.719 26.277 77.165 26.118 76.302 25.163 75.266 22.458 70.604 19.276 62.489 18.003 58"><title>2023-11-05 1.1km</title><desc>10161301187</desc></polyline><polyline fill="none" stroke="#4dd2ff" stroke-linecap="round" stroke-linejoin="round" stroke-width=".5" points="49.512 58 52.718 65.13 54.16 71.391 56.404 75.739 57.205 79.217 58.007 82 58.488 81.478 58.327 80.957 56.244 77.13 56.084 76.609 54.16 73.652 53.359 70.87 51.275 67.044 50.795 63.739 49.833 60.261"><title>2023-11-04 1.0km</title><desc>10155501797</desc></polyline><polyline fill="none" stroke="#4dd2ff" stroke-linecap="round" stroke-linejoin="round" stroke-width=".5" points="91.106 61.646 89.286 59.215 88.166 58.456 85.926 58 83.827 58.152 80.887 59.519 79.627 60.734 78.508 63.013 78.228 64.835 77.808 70.911 78.088 77.291 78.368 78.203 79.767 80.481 81.447 81.696 84.247 82 86.766 80.937 89.146 78.051 89.846 76.684 90.826 72.279 90.826 68.785 91.526 64.228 91.386 62.557 89.846 60.734 88.586 59.823 85.647 58.456 84.107 58.456 80.747 59.519 79.208 60.886 78.228 62.709 77.948 63.924 78.228 68.937 77.948 71.215"><title>2023-11-03 1.0km</title><desc>10152446508</desc></polyline><polyline fill="none" stroke="#4dd2ff" stroke-linecap="round" stroke-linejoin="round" stroke-width=".5" points="110.366 58 111.678 60.847 112.803 65.932 114.677 69.593 117.489 76.915 118.051 78.136 118.988 81.39 119.551 82 120.3 82 120.3 81.593 118.988 80.983 118.426 79.559 117.114 78.339 116.177 75.695 114.865 73.661 113.365 70.61 111.678 64.305 110.554 61.661"><title>2023-11-02 1.1km</title><desc>10144903556</desc></polyline><polyline fill="none" stroke="#4dd2ff" stroke-linecap="round" stroke-linejoin="round" stroke-width=".5" points="141.913 59.739 142.234 61.652 143.516 64.609 145.76 72.609 149.606 80.609 150.728 82 150.087 79.913 147.683 76.261 146.401 71.565 144.798 69.304 142.875 65.13 141.272 58"><title>2023-11-01 1.0km</title><desc>10138966680</desc></polyline><polyline fill="none" stroke="#4dd2ff" stroke-linecap="round" stroke-linejoin="round" stroke-width=".5" points="173.174 58.361 174.006 61.068 175.336 68.286 177.498 72.977 178.829 77.308 180.99 82 181.157 81.82 179.66 79.654 177.498 74.602 175.669 71.353 172.509 61.789 172.177 58"><title>2023-10-31 1.0km</title><desc>10133123337</desc></polyline><polyline fill="none" stroke="#4dd2ff" stroke-linecap="round" stroke-linejoin="round" stroke-width=".5" points="19.565 87.511 20.384 91.778 20.384 93.378 22.186 96.4 27.102 106.889 27.921 108.489 28.248 108.667 24.48 101.2 22.842 96.578 21.04 92.844 18.418 84.667"><title>2023-10-30 1.0km</title><desc>10127985445</desc></polyline><polyline fill="none" stroke="#4dd2ff" stroke-linecap="round" stroke-linejoin="round" stroke-width=".5" points="50.217 88.14 50.944 93.035 51.381 94.614 54.291 101.404 55.746 105.351 57.929 108.351 58.511 108.667 58.656 108.193 57.347 106.14 55.455 102.035 52.108 95.877 50.799 91.298 49.78 89.246 49.635 86.088 49.344 84.667"><title>2023-10-28 1.0km</title><desc>10115543824</desc></polyline><polyline fill="none" stroke="#4dd2ff" stroke-linecap="round" stroke-linejoin="round" stroke-width=".5" points="81.554 89.644 82.864 93.911 84.339 97.289 85.65 102.089 87.616 106.711 88.435 108.489 89.254 108.667 89.418 108.489 89.09 107.422 88.107 104.756 84.831 98.356 82.209 91.244 80.571 87.689 79.915 84.667"><title>2023-10-27 1.0km</title><desc>10110442644</desc></polyline><polyline fill="none" stroke="#4dd2ff" stroke-linecap="round" stroke-linejoin="round" stroke-width=".5" points="112.081 88.373 115.171 98.784 116.309 101.961 117.448 103.902 118.749 107.608 119.236 108.314 120.212 108.667 120.375 108.137 120.212 107.431 118.586 105.314 116.146 101.078 113.219 92.431 111.268 89.255 110.292 84.667"><title>2023-10-26 1.0km</title><desc>10104873905</desc></polyline><polyline fill="none" stroke="#4dd2ff" stroke-linecap="round" stroke-linejoin="round" stroke-width=".5" points="144.798 96.145 148.484 105.362 150.247 108.493 150.888 108.667 150.728 106.928 146.401 99.449 143.997 93.362 141.913 89.015 141.112 84.667"><title>2023-10-25 1.0km</title><desc>10098978222</desc></polyline><polyline fill="none" stroke="#4dd2ff" stroke-linecap="round" stroke-linejoin="round" stroke-width=".5" points="172.227 84.667 172.066 85.893 173.034 89.922 174.326 92.55 175.133 95.703 176.586 99.908 179.653 105.864 180.622 108.316 180.945 108.667 181.268 108.491 181.106 106.214 179.33 102.886 178.039 100.959 176.425 97.28 176.102 95.353 174.164 92.375 173.034 89.747 172.711 86.594 172.227 84.667"><title>2023-10-24 1.0km</title><desc>10092835699</desc></polyline><polyline fill="none" stroke="#4dd2ff" stroke-linecap="round" stroke-linejoin="round" stroke-width=".5" points="20.867 115.477 23.254 123.938 24.368 126.01 25.641 131.189 27.55 134.643 28.346 135.333 27.55 134.47 26.436 131.707 23.572 128.254 22.936 127.046 22.299 123.074 20.39 119.276 19.117 115.305 18.321 111.333"><title>2023-10-23 1.0km</title><desc>10087395010</desc></polyline><polyline fill="none" stroke="#4dd2ff" stroke-linecap="round" stroke-linejoin="round" stroke-width=".5" points="46.23 111.448 46.654 111.333 49.677 111.564 51.003 111.909 51.321 112.082 52.011 112.6 52.488 113.175 53.549 115.132 54.08 117.319 54.769 118.47 55.087 119.391 55.83 121.06 56.36 122.787 57.156 124.168 57.527 124.571 58.005 125.377 58.27 127.103 58.429 127.564 58.853 128.197 58.959 129.175 59.118 129.578 61.452 135.103 61.77 135.333 61.77 135.046 61.293 134.585 60.763 133.319 60.232 132.225 58.8 127.794"><title>2023-10-22 1.5km</title><desc>10080655811</desc></polyline><polyline fill="none" stroke="#4dd2ff" stroke-linecap="round" stroke-linejoin="round" stroke-width=".5" points="80.849 111.333 81.691 111.942 80.176 111.699 82.533 114.745 82.758 115.476 82.59 116.085 81.804 116.511 81.579 116.937 81.635 117.668 82.084 119.435 82.59 120.714 83.151 122.663 84.161 124.43 84.33 125.1 84.947 126.196 85.34 126.684 85.396 126.988 85.789 127.354 86.07 127.963 86.463 129.12 86.856 129.912 86.8 131.496 87.53 132.897 87.754 133.567 88.147 134.298 88.821 135.151 89.158 135.333 87.866 133.506 87.586 132.531 87.024 131.313 86.8 130.521 86.07 129.486 85.453 127.719"><title>2023-10-20 1.4km</title><desc>10069668027</desc></polyline><polyline fill="none" stroke="#4dd2ff" stroke-linecap="round" stroke-linejoin="round" stroke-width=".5" points="110.504 111.333 110.618 112.264 111.533 114.496 111.761 115.861 113.647 120.45 113.819 121.07 113.933 122 114.162 122.62 115.533 124.543 116.276 126.031 116.734 127.519 117.134 128.326 117.362 129.566 117.648 130.186 118.391 132.109 118.505 132.853 119.591 135.085 119.877 135.333 120.048 135.333 120.163 135.271 120.105 135.209 118.962 133.783 118.448 132.047 117.362 130.062 117.191 129.256 117.076 127.892"><title>2023-10-19 1.3km</title><desc>10064004415</desc></polyline><polyline fill="none" stroke="#4dd2ff" stroke-linecap="round" stroke-linejoin="round" stroke-width=".5" points="140.588 111.333 142.941 114.397 142.784 116.61 143.098 118.823 144.196 122.738 145.765 125.291 147.333 129.716 150.471 134.823 150.941 135.333 151.412 135.163 149.373 133.121 145.608 125.801 144.667 122.567 142 116.95"><title>2023-10-18 1.0km</title><desc>10058081424</desc></polyline><polyline fill="none" stroke="#4dd2ff" stroke-linecap="round" stroke-linejoin="round" stroke-width=".5" points="172.478 112.788 173.818 120.606 177.337 129.879 179.683 134.788 180.688 135.333 181.191 135.333 181.526 134.606 180.353 133.152 178.845 130.788 176.834 126.424 175.996 123.879 172.478 116.788 172.143 115.697 171.807 111.333"><title>2023-10-17 1.0km</title><desc>10051702317</desc></polyline><polyline fill="none" stroke="#4dd2ff" stroke-linecap="round" stroke-linejoin="round" stroke-width=".5" points="17.974 138.554 19.675 141.508 22.227 148.154 23.589 150.738 25.12 155.538 26.991 160.338 27.672 161.631 28.523 162 28.693 161.815 28.523 161.262 26.651 158.492 24.099 152.215 22.227 148.338 20.696 141.138 19.846 138"><title>2023-10-16 1.0km</title><desc>10046279660</desc></polyline><polyline fill="none" stroke="#4dd2ff" stroke-linecap="round" stroke-linejoin="round" stroke-width=".5" points="49.085 138 49.787 139.524 50.489 142.952 52.069 148.286 54.176 151.524 56.633 160.667 57.511 161.619 58.74 162 58.915 161.619 58.74 160.476 56.458 157.238 55.229 153.429 53.824 151.143 50.489 143.333 49.26 138"><title>2023-10-15 1.0km</title><desc>10039610121</desc></polyline><polyline fill="none" stroke="#4dd2ff" stroke-linecap="round" stroke-linejoin="round" stroke-width=".5" points="79.672 139.742 80.207 145.355 81.634 149.419 83.418 151.936 84.488 155.419 87.521 160.839 88.234 161.613 89.126 162 89.661 161.613 89.661 161.032 86.094 158.129 83.775 153.871 82.883 150.194 80.743 145.355 79.672 141.29 79.851 138.774 79.672 138"><title>2023-10-14 1.0km</title><desc>10033377496</desc></polyline><polyline fill="none" stroke="#4dd2ff" stroke-linecap="round" stroke-linejoin="round" stroke-width=".5" points="109.892 138.381 113.051 142.19 113.402 145.048 116.387 154.191 119.195 160.857 120.073 162 120.775 162 120.775 161.429 120.599 160.857 119.02 159.714 117.264 156.476 115.333 150.381 111.823 142.571 111.296 139.905 110.418 138"><title>2023-10-13 1.0km</title><desc>10028006924</desc></polyline><polyline fill="none" stroke="#4dd2ff" stroke-linecap="round" stroke-linejoin="round" stroke-width=".5" points="140.85 138 142.539 140.198 143.552 142.031 143.721 144.412 143.552 146.977 145.409 150.824 147.604 156.687 149.799 160.718 150.305 161.45 151.15 162 151.15 161.084 149.292 158.702 147.604 155.771 145.409 149.725 144.058 147.344 143.383 145.328"><title>2023-10-12 1.0km</title><desc>10021974100</desc></polyline><polyline fill="none" stroke="#4dd2ff" stroke-linecap="round" stroke-linejoin="round" stroke-width=".5" points="173.861 141.403 174.521 144.985 174.356 146.418 175.841 151.254 176.997 153.403 178.152 157.343 179.803 161.284 180.133 161.642 180.958 162 180.793 161.284 178.977 156.627 176.997 153.224 174.356 147.134 173.696 144.806 173.365 141.403 172.375 138"><title>2023-10-10 1.0km</title><desc>10009069592</desc></polyline><polyline fill="none" stroke="#4dd2ff" stroke-linecap="round" stroke-linejoin="round" stroke-width=".5" points="19.268 167.667 20.406 170.843 21.544 175.078 23.984 180.373 25.935 187.078 27.074 188.667 27.399 188.137 27.562 186.196 26.423 182.843 23.984 178.608 21.219 170.843 20.406 167.314 19.105 164.667"><title>2023-10-09 1.0km</title><desc>10003389142</desc></polyline><polyline fill="none" stroke="#4dd2ff" stroke-linecap="round" stroke-linejoin="round" stroke-width=".5" points="49.113 164.667 50.314 166.155 51.514 168.946 52.2 174.527 54.772 180.109 57 186.434 58.029 188.295 58.887 188.667 58.887 187.178 55.629 181.969 51.342 171.55 49.628 164.853"><title>2023-10-08 1.0km</title><desc>9996447828</desc></polyline><polyline fill="none" stroke="#4dd2ff" stroke-linecap="round" stroke-linejoin="round" stroke-width=".5" points="81.586 169.467 82.376 172.381 84.746 178.724 85.536 181.467 88.063 187.81 88.853 188.667 89.011 187.981 89.011 187.295 86.01 181.981 84.588 178.895 82.06 171.352 81.27 167.41 80.322 164.667"><title>2023-10-07 1.0km</title><desc>9989974159</desc></polyline><polyline fill="none" stroke="#4dd2ff" stroke-linecap="round" stroke-linejoin="round" stroke-width=".5" points="113.373 171.816 114.627 175.901 115.569 177.943 117.451 185.943 117.922 187.475 118.863 188.667 119.647 188.667 119.961 187.986 119.804 187.475 117.922 184.752 116.039 180.667 115.412 177.943 112.118 169.943 111.647 167.05 110.706 164.667"><title>2023-10-06 1.0km</title><desc>9984428862</desc></polyline><polyline fill="none" stroke="#4dd2ff" stroke-linecap="round" stroke-linejoin="round" stroke-width=".5" points="140.833 164.667 143.553 171.945 145.365 178.044 148.447 185.716 149.717 188.273 150.26 188.667 150.986 188.667 151.167 188.273 150.623 187.29 148.447 184.142 147.178 181.585 145.003 175.88 144.096 172.929 141.558 168.208 141.558 166.437"><title>2023-10-04 1.0km</title><desc>9971682885</desc></polyline><polyline fill="none" stroke="#4dd2ff" stroke-linecap="round" stroke-linejoin="round" stroke-width=".5" points="173.034 167.47 173.841 170.273 174.649 172.2 175.294 175.178 178.362 181.309 178.523 183.411 179.492 187.616 179.815 188.141 180.783 188.667 180.783 186.915 178.685 183.061 177.232 179.732 176.425 178.156 175.617 175.878 174.003 172.55 173.357 169.922 173.034 167.294 172.55 164.667"><title>2023-10-03 1.0km</title><desc>9965060084</desc></polyline><polyline fill="none" stroke="#4dd2ff" stroke-linecap="round" stroke-linejoin="round" stroke-width=".5" points="18.946 192.325 21.14 199.466 21.505 202.639 22.785 204.226 23.699 206.606 25.344 212.755 26.624 214.738 27.538 215.333 27.72 215.135 27.172 213.548 25.161 209.78 21.871 201.846 19.86 195.895 19.495 191.333"><title>2023-10-02 1.0km</title><desc>9958643020</desc></polyline><polyline fill="none" stroke="#4dd2ff" stroke-linecap="round" stroke-linejoin="round" stroke-width=".5" points="50.196 195.557 50.55 197.285 54.442 206.501 56.389 212.453 57.45 214.565 58.512 215.333 58.689 215.141 58.512 214.373 54.973 208.997 51.611 200.741 50.019 195.749 49.311 191.333"><title>2023-10-01 1.0km</title><desc>9952075403</desc></polyline><polyline fill="none" stroke="#4dd2ff" stroke-linecap="round" stroke-linejoin="round" stroke-width=".5" points="81.221 194.812 82.663 197.768 83.304 200.725 83.785 203.507 86.189 210.29 88.273 214.638 89.234 215.333 89.555 214.812 86.35 209.942 84.907 206.638 84.426 204.899 82.182 200.029 80.9 194.638 79.778 191.333"><title>2023-09-30 1.0km</title><desc>9945549317</desc></polyline><polyline fill="none" stroke="#4dd2ff" stroke-linecap="round" stroke-linejoin="round" stroke-width=".5" points="111.618 191.333 113.21 194.021 113.741 196.133 115.156 199.589 115.864 204.773 116.395 206.309 118.518 211.493 119.049 214.757 119.403 215.141 119.934 215.333 120.111 214.949 116.926 209.189 114.803 204.197 114.095 201.317 111.618 195.557 110.556 192.101"><title>2023-09-28 1.0km</title><desc>9933629332</desc></polyline><polyline fill="none" stroke="#4dd2ff" stroke-linecap="round" stroke-linejoin="round" stroke-width=".5" points="141.308 194.061 142.649 198.788 145.162 202.242 146.838 208.424 149.184 212.606 149.854 214.97 150.524 215.333 150.859 214.788 150.524 214.061 149.184 212.242 145.33 204.424 143.319 198.97 141.141 191.333"><title>2023-09-27 1.0km</title><desc>9927137811</desc></polyline><polyline fill="none" stroke="#4dd2ff" stroke-linecap="round" stroke-linejoin="round" stroke-width=".5" points="178.66 191.333 178.182 193.641 177.703 194.968 177.331 196.583 175.151 201.141 174.035 203.045 173.822 203.853 173.929 204.487 174.194 205.41 174.992 207.372 175.258 207.891 175.577 208.814 176.64 210.141 177.119 211.18 177.65 211.987 178.076 213.141 178.714 214.006 179.511 215.333"><title>2023-09-26 1.0km</title><desc>9920397094</desc></polyline><polyline fill="none" stroke="#4dd2ff" stroke-linecap="round" stroke-linejoin="round" stroke-width=".5" points="23.221 218 22.175 221.487 21.129 223.351 20.158 224.568 19.635 225.541 19.41 226.514 19.485 227.73 19.859 228.703 20.755 230.081 21.129 231.46 21.876 233.243 23.296 235.027 25.687 239.892 27.256 242"><title>2023-09-25 1.0km</title><desc>9914573673</desc></polyline><polyline fill="none" stroke="#4dd2ff" stroke-linecap="round" stroke-linejoin="round" stroke-width=".5" points="55.769 218 55.18 218.896 55.062 219.344 55.18 219.92 55.239 220.496 54.059 222.672 53.764 224.144 53.351 225.232 50.874 229.584 50.815 230.096 51.051 231.12 51.7 232.144 52.054 233.04 52.584 233.936 52.879 234.832 53.646 236.048 54.236 237.264 54.885 237.968 55.062 238.608 55.474 239.12 56.359 240.656 57.008 241.36 57.185 242"><title>2023-09-24 1.0km</title><desc>9907510217</desc></polyline><polyline fill="none" stroke="#4dd2ff" stroke-linecap="round" stroke-linejoin="round" stroke-width=".5" points="85.561 218 85.06 218.777 84.702 219.553 84.488 220.563 84.416 221.884 83.199 223.515 82.484 225.379 81.839 226.311 81.41 227.553 81.338 228.874 82.841 232.68 83.414 233.845 85.275 236.796 86.062 238.738 87.065 239.981 87.637 240.99 87.995 242"><title>2023-09-23 1.0km</title><desc>9901004991</desc></polyline><polyline fill="none" stroke="#4dd2ff" stroke-linecap="round" stroke-linejoin="round" stroke-width=".5" points="116.255 218 115.777 218.889 115.299 220.444 114.207 222.741 113.115 224.296 112.159 226.889 112.091 228.296 112.227 229.111 113.593 232.37 113.797 233.333 114.07 233.852 115.026 235.037 115.777 236.519 116.391 238.074 117.415 239.556 118.576 242"><title>2023-09-22 1.0km</title><desc>9895405405</desc></polyline><polyline fill="none" stroke="#4dd2ff" stroke-linecap="round" stroke-linejoin="round" stroke-width=".5" points="147.272 218 147.077 218.708 146.685 219.133 145.837 220.69 145.511 221.823 144.532 224.301 143.488 226.425 142.836 227.982 142.64 228.761 142.64 229.257 142.836 229.965 143.227 230.673 144.075 232.867 144.923 234.425 145.38 235.558 146.228 236.974 146.75 237.611 147.142 238.743 148.186 240.584 149.36 242"><title>2023-09-21 1.0km</title><desc>9889267953</desc></polyline><polyline fill="none" stroke="#4dd2ff" stroke-linecap="round" stroke-linejoin="round" stroke-width=".5" points="179.11 218 178.254 220.57 177.75 222.592 176.944 224.287 175.987 227.13 174.324 230.246 173.87 231.941 173.921 232.324 174.223 233.144 174.878 234.565 175.281 235.768 176.289 237.189 176.893 238.337 177.246 239.157 177.649 239.868 178.304 240.36 179.11 241.563 179.161 241.781 179.463 242"><title>2023-09-20 1.0km</title><desc>9882714971</desc></polyline><polyline fill="none" stroke="#4dd2ff" stroke-linecap="round" stroke-linejoin="round" stroke-width=".5" points="25.323 244.667 24.812 245.962 23.845 248.8 23.788 249.726 23.447 250.219 23.049 251.145 22.822 252.009 22.367 253.181 21.059 255.279 20.718 256.513 20.604 257.623 20.718 258.734 21.059 259.968 21.457 260.831 22.708 262.991 23.333 263.854 23.902 265.397 24.47 266.384 25.039 267.186 25.664 267.803 26.062 268.667"><title>2023-09-19 1.0km</title><desc>9876194288</desc></polyline><polyline fill="none" stroke="#4dd2ff" stroke-linecap="round" stroke-linejoin="round" stroke-width=".5" points="53.823 244.667 53.399 245.357 52.693 246.737 52.481 247.657 51.209 249.881 50.22 251.951 50.008 252.718 50.078 253.561 50.502 254.635 51.138 255.785 51.703 257.395 52.481 259.082 53.329 260.616 54.106 261.612 55.025 263.146 55.59 264.91 56.579 266.443 57.074 267.823 57.992 268.667"><title>2023-09-18 1.0km</title><desc>9870505463</desc></polyline><polyline fill="none" stroke="#4dd2ff" stroke-linecap="round" stroke-linejoin="round" stroke-width=".5" points="84.908 244.667 84.563 245.34 84.081 247.583 83.461 248.629 83.185 249.452 81.669 251.919 81.118 253.265 80.774 254.461 81.049 255.284 82.565 258.573 83.323 259.77 83.874 261.041 84.77 262.237 85.252 263.059 85.872 265.003 88.56 268.667"><title>2023-09-16 1.0km</title><desc>9856514700</desc></polyline><polyline fill="none" stroke="#4dd2ff" stroke-linecap="round" stroke-linejoin="round" stroke-width=".5" points="115.002 244.667 114.264 246.907 113.306 248.427 111.315 252.267 111.242 253.147 111.315 254.187 111.758 255.227 112.495 256.347 113.158 257.867 114.338 259.867 115.813 262.667 115.96 263.707 116.476 264.107 117.066 264.907 118.024 266.507 119.056 267.387 119.278 267.947 119.425 268.667"><title>2023-09-15 1.0km</title><desc>9850671982</desc></polyline><polyline fill="none" stroke="#4dd2ff" stroke-linecap="round" stroke-linejoin="round" stroke-width=".5" points="146.61 244.667 145.39 247.894 144.017 249.881 143.407 250.956 142.492 253.274 142.263 254.101 142.263 254.763 142.492 255.591 143.407 258.074 144.246 259.729 146.305 263.287 147.144 264.86 147.297 265.77 147.907 266.349 148.898 267.922 149.737 268.667"><title>2023-09-14 1.0km</title><desc>9844236351</desc></polyline><polyline fill="none" stroke="#4dd2ff" stroke-linecap="round" stroke-linejoin="round" stroke-width=".5" points="172.852 244.667 173.291 245.024 173.456 245.381 173.566 246.156 173.895 246.811 174.115 248.657 174.115 249.55 174.005 250.027 174.115 250.622 174.389 251.337 174.279 251.932 174.334 252.23 174.883 253.242 175.377 254.731 175.816 255.565 176.365 256.339 176.969 256.875 177.133 257.233 177.298 258.007 177.737 258.781 178.231 260.21 178.889 261.461 179.219 262.533 179.383 263.426 179.713 264.141 180.316 266.106 181.14 267.654 181.194 267.892 181.14 268.071 180.481 268.667 180.81 268.428 180.975 268.071 181.085 267.773 181.03 267.357 180.701 266.94 179.713 264.796 179.219 263.188 178.176 260.865 177.682 258.602 177.408 257.947 176.365 256.577 175.322 254.612 174.828 253.004 174.663 251.932 174.224 250.801 173.346 248.895 173.127 248.002 172.358 246.572 172.194 245.798 172.139 244.845"><title>2023-09-13 1.0km</title><desc>9837636972</desc></polyline></svg>