<?xml version="1.0" encoding="utf-8" ?>
<svg baseProfile="full" height="300mm" version="1.1" viewBox="0,0,200,300" width="200mm" xmlns="http://www.w3.org/2000/svg" xmlns:ev="http://www.w3.org/2001/xml-events" xmlns:xlink="http://www.w3.org/1999/xlink"><defs /><rect fill="#222222" height="300" width="200" x="0" y="0" /><text fill="#FFFFFF" style="font-size:12px; font-family:Arial; font-weight:bold;" x="10" y="20">Over 1km Runs</text><text fill="#FFFFFF" style="font-size:4px; font-family:Arial" x="10" y="280">ATHLETE</text><text fill="#FFFFFF" style="font-size:9px; font-family:Arial" x="10" y="290">Jiakai</text><text fill="#FFFFFF" style="font-size:4px; font-family:Arial" x="120" y="280">STATISTICS</text><text fill="#FFFFFF" style="font-size:3px; font-family:Arial" x="120" y="285">Number: 40</text><text fill="#FFFFFF" style="font-size:3px; font-family:Arial" x="120" y="290">Weekly: 5.7</text><text fill="#FFFFFF" style="font-size:3px; font-family:Arial" x="141" y="285">Total: 41.8 km</text><text fill="#FFFFFF" style="font-size:3px; font-family:Arial" x="141" y="290">Avg: 1.0 km</text><text fill="#FFFFFF" style="font-size:3px; font-family:Arial" x="167" y="285">Min: 1.0 km</text><text fill="#FFFFFF" style="font-size:3px; font-family:Arial" x="167" y="290">Max: 1.5 km</text><polyline fill="none" points="21.498007230460644,37.10002202633768 22.972530502825975,41.900031730532646 24.631369181908667,45.700033406727016 26.105892454274,51.100026657572016 28.317677361890674,56.30001002806239 29.239254406653345,58.30000098561868 30.160831450484693,58.5 30.34514685999602,58.30000098561868 29.976516041904688,57.1000065873377 28.87062358763069,54.100018276833 25.18431541044265,46.900032833451405 22.235268865711987,38.90002665808424 20.392114776186645,34.90001474809833 19.654853140935302,31.5" stroke="#4dd2ff" stroke-linecap="round" stroke-linejoin="round" stroke-width="0.5"><title>2023-10-27 1.0km</title><desc>10110442644</desc></polyline><polyline fill="none" points="58.84079528041184,35.669135271338746 62.31703976448625,47.382385635282844 63.59776141680777,50.955909529468045 64.87848306912929,53.13972735963762 66.34216495696455,57.30882922117598 66.89104566536844,58.10294313239865 67.98880708124489,58.5 68.17176731675863,57.90441467636265 67.98880708124489,57.11030070716515 66.15920472051948,54.727957399562 63.414801181294024,49.963264477672055 60.12151693273336,40.23532365914434 57.92599410098046,36.66178557742387 56.82823268417269,31.5" stroke="#4dd2ff" stroke-linecap="round" stroke-linejoin="round" stroke-width="0.5"><title>2023-10-26 1.0km</title><desc>10104873905</desc></polyline><polyline fill="none" points="98.64768590871245,44.41307765478268 102.79478245787323,54.78262495691888 104.77817645855248,58.304348811507225 105.49941064044833,58.5 105.31910209544003,56.54348746663891 100.4507713643834,48.13046718318947 97.74614317994565,41.28264034097083 95.40213208738714,36.39132466586307 94.50058935955167,31.5" stroke="#4dd2ff" stroke-linecap="round" stroke-linejoin="round" stroke-width="0.5"><title>2023-10-25 1.0km</title><desc>10098978222</desc></polyline><polyline fill="none" points="132.50532038975507,31.5 132.32369567640126,32.87956863641739 133.4134439555928,37.41243201401085 134.86644166056067,40.36864313087426 135.7745652263984,43.9160921680741 137.40918764378875,48.64601691463031 140.86005719285458,55.34672935400158 141.94980547111481,58.10584137192927 142.31305489782244,58.5 142.67630432453007,58.30292069306597 142.49467961024493,55.7408883869648 140.49680776707828,51.99637522781268 139.04381006211042,49.828496797475964 137.22756293043494,45.68981492612511 136.86431350465864,43.52193139609881 134.68481694720685,40.17156249145046 133.4134439555928,37.21535115689039 133.05019452888519,33.66789325256832 132.50532038975507,31.5" stroke="#4dd2ff" stroke-linecap="round" stroke-linejoin="round" stroke-width="0.5"><title>2023-10-24 1.0km</title><desc>10092835699</desc></polyline><polyline fill="none" points="172.22532419674098,36.16189021081664 174.9104943284765,45.679890516679734 176.1635737232864,48.01082414062694 177.59566445928067,53.83814920345321 179.74380056466907,57.72302543837577 180.63885727524757,58.5 179.74380056466907,57.528781762113795 178.49072116985917,54.42088100290857 175.2685170127079,50.53599991230294 174.5524716442451,49.17629018146545 173.8364262757823,44.70866756676696 171.68829017039388,40.43528234469704 170.2561994343996,35.96764494967647 169.36114272475243,31.5" stroke="#4dd2ff" stroke-linecap="round" stroke-linejoin="round" stroke-width="0.5"><title>2023-10-23 1.0km</title><desc>10087395010</desc></polyline><polyline fill="none" points="16.2583675137721,61.62949837860651 16.735726284096017,61.5 20.13690752442926,61.758996738062706 21.628653682535514,62.14749170234427 21.986672760453075,62.341739120311104 22.762380762957036,62.924481116759125 23.299409379716963,63.57197177177295 24.492806305876,65.77343643736094 25.089504769304767,68.23389043315547 25.865212771575898,69.52886345918523 26.223231849260628,70.56484050879953 27.058609697734937,72.44254580512643 27.655308161163703,74.38499534671428 28.55035585584119,75.93895189516479 28.96804478019476,76.3921887052129 29.505073397187516,77.29866162565304 29.803422628669068,79.24110045615816 29.982432167511433,79.75908342085313 30.45979093806818,80.47130949964048 30.57913063117303,81.57202139764559 30.758140169782564,82.02525530860294 33.38361340807751,88.24101112637436 33.74163248599507,88.5 33.74163248599507,88.17626389593352 33.20460386900231,87.65828588197473 32.60790540603921,86.23384477256332 32.01120694261044,85.00364377879305 30.400121091865003,80.01807478885166" stroke="#4dd2ff" stroke-linecap="round" stroke-linejoin="round" stroke-width="0.5"><title>2023-10-22 1.5km</title><desc>10080655811</desc></polyline><polyline fill="none" points="58.20558573654853,61.5 59.15288300043903,62.18528886185959 57.447747925296426,61.911173377535306 60.10018026432954,65.33761113631772 60.35279286815785,66.15995432407362 60.163333415519446,66.84523975942284 59.27918930235319,67.32493926456664 59.02657669852488,67.80463852267712 59.089729849714786,68.62697953346651 59.59495505690575,70.61430064769229 60.163333415519446,72.05339260253822 60.79486492485739,74.24629035609541 61.9316216413863,76.23359948891448 62.12108109425753,76.98740529286442 62.81576575455256,78.22090438427404 63.2578378112521,78.76912567886757 63.32099096174352,79.11176382406848 63.76306301867589,79.52292943227803 64.07882877299562,80.20820504275616 64.520900829928,81.51022731454577 64.96297288639471,82.40108361048624 64.89981973543763,84.18279364804039 65.72081069741398,85.75891891930951 65.97342330124229,86.51271702011582 66.41549535747617,87.33504152559908 67.17333316896111,88.29441919847159 67.55225207447074,88.5 66.09972960315645,86.44418994517764 65.78396384860389,85.34775606211042 65.15243233903311,83.97721189440927 64.89981973543763,83.08635710488306 64.07882877299562,81.92139186465647 63.38414411293343,79.93409485905431" stroke="#4dd2ff" stroke-linecap="round" stroke-linejoin="round" stroke-width="0.5"><title>2023-10-20 1.4km</title><desc>10069668027</desc></polyline><polyline fill="none" points="94.56703137257136,61.5 94.69562234613113,62.54652593983337 95.72435013344511,65.05818348564208 95.98153208033182,66.5930820464855 98.10328314173967,71.75590443867259 98.29616960207932,72.45358098583529 98.42476057563908,73.50009484484326 98.68194252229296,74.1977701097494 100.22503420338035,76.36056017078226 101.06087553082034,78.03497489710571 101.57523942436092,79.7093866688665 102.02530783158727,80.61635847843718 102.28248977847397,82.01169803109951 102.60396721214056,82.70936703804182 103.43980853934772,84.87213770003291 103.56839951267466,85.70933792338474 104.79001376056112,88.22093416174175 105.11149119399488,88.5 105.3043776541017,88.5 105.43296862742864,88.43023354804609 105.36867314088158,88.36046709102811 104.0827634066809,86.7558371637715 103.5041040261276,84.8023709814297 102.28248977847397,82.56983327766648 102.08960331836715,81.66286333516473 101.96101234480739,80.1279891502927" stroke="#4dd2ff" stroke-linecap="round" stroke-linejoin="round" stroke-width="0.5"><title>2023-10-19 1.3km</title><desc>10064004415</desc></polyline><polyline fill="none" points="131.41170686017722,61.5 134.05879083368927,64.94682409497909 133.88231856934726,67.43619421566837 134.2352630989626,69.92556195752695 135.4705689540133,74.32982213282958 137.23529160209,77.20216171373613 139.00001425109804,82.18087615049444 142.52945955004543,87.92553482879885 143.0588763449341,88.5 143.58829313889146,88.30851162341423 141.29415369499475,86.01065000984818 137.058819337748,77.77662924979813 135.99998574797064,74.13833271479234 132.99995724391192,67.81917402287945" stroke="#4dd2ff" stroke-linecap="round" stroke-linejoin="round" stroke-width="0.5"><title>2023-10-18 1.0km</title><desc>10058081424</desc></polyline><polyline fill="none" points="170.2873885538429,63.13637109496631 171.7954242164269,71.93184924288653 175.75401783175766,82.36365937138908 178.39308024197817,87.88636654615402 179.52410698961467,88.5 180.08962036296725,88.5 180.46662927884609,87.6818220319692 179.14709807466716,86.0454653725028 177.45055795367807,83.38638374954462 175.18850445840508,78.47730330657214 174.24598216917366,75.61366904852912 170.2873885538429,67.63638664479367 169.91037963796407,66.40911039849743 169.53337072208524,61.5" stroke="#4dd2ff" stroke-linecap="round" stroke-linejoin="round" stroke-width="0.5"><title>2023-10-17 1.0km</title><desc>10051702317</desc></polyline><polyline fill="none" points="18.970755643211305,92.12307983194478 20.884801470674574,95.44616994820535 23.755870210938156,102.9231084161438 25.287106873467565,105.83080136496574 27.009748117998242,111.2307946155779 29.115198528394103,116.63077754480764 29.880816859193146,118.08461733930744 30.83783977292478,118.5 31.029244355857372,118.29230867745355 30.83783977292478,117.6692346171476 28.73238936252892,114.55386225529946 25.86132062226534,107.4923388492316 23.755870210938156,103.13080086861737 22.0332289673388,95.03078389703296 21.076206053607166,91.5" stroke="#4dd2ff" stroke-linecap="round" stroke-linejoin="round" stroke-width="0.5"><title>2023-10-16 1.0km</title><desc>10046279660</desc></polyline><polyline fill="none" points="56.97053427621722,91.5 57.76045795157552,93.21429314976558 58.55038162600249,97.07144905114546 60.32770989462733,103.07145919674076 62.697480918839574,106.71431647357531 65.46221378073096,117.00000656116754 66.44961837399751,118.07143052481115 67.8319848049432,118.5 68.0294657247141,118.07143052481115 67.8319848049432,116.78572172136046 65.26473286189139,113.14287703181617 63.882366430945694,108.85717156808823 62.30251908209175,106.28574526542798 58.55038162600249,97.50002161413431 57.168015195056796,91.5" stroke="#4dd2ff" stroke-linecap="round" stroke-linejoin="round" stroke-width="0.5"><title>2023-10-15 1.0km</title><desc>10039610121</desc></polyline><polyline fill="none" points="94.3813481060788,93.45968570327386 94.98334652278572,99.77421970525756 96.58867563586682,104.34680488915183 98.59533702675253,107.17744932160713 99.7993338610977,111.09679868584499 103.21065822523087,117.19355405378155 104.0133227808401,118.06451808195561 105.01665347721428,118.5 105.6186518939212,118.06451808195561 105.6186518939212,117.41129508474842 101.60532911214978,114.1451779382769 98.99666930455714,109.354866275331 97.99333860911429,105.21777269500308 95.58534494042397,99.77421970525756 94.3813481060788,95.20162746263668 94.58201424591243,92.37097158376127 94.3813481060788,91.5" stroke="#4dd2ff" stroke-linecap="round" stroke-linejoin="round" stroke-width="0.5"><title>2023-10-14 1.0km</title><desc>10033377496</desc></polyline><polyline fill="none" points="131.37809242028743,91.92857338255271 134.93274843506515,96.21430373727344 135.32771021407098,99.4285973678343 138.68488533888012,109.7143131652847 141.8445795737207,117.2142913856078 142.83198402170092,118.5 143.6219075806439,118.5 143.6219075806439,117.85714576416649 143.42442669067532,117.2142913856078 141.6470986828208,115.92858220404014 139.67228978779167,112.28573644324206 137.50000000093132,105.42860266123898 133.55038220714778,96.64287642599083 132.95793953817338,93.64286628039554 131.97053508926183,91.5" stroke="#4dd2ff" stroke-linecap="round" stroke-linejoin="round" stroke-width="0.5"><title>2023-10-13 1.0km</title><desc>10028006924</desc></polyline><polyline fill="none" points="169.20672580506653,91.5 171.10615996737033,93.97329326206818 172.24582046456635,96.03436931292526 172.4357638815418,98.71376591431908 172.24582046456635,101.59926708275452 174.33519804291427,105.92751326714642 176.80446245428175,112.52292317361571 179.2737268647179,117.0572584841866 179.84355711378157,117.88168229884468 180.79327419400215,118.5 180.79327419400215,117.46947042178363 178.70389661658555,114.79009174578823 176.80446245428175,111.49239139887504 174.33519804291427,104.69087218213826 172.81565071363002,102.01148129324429 172.05587704852223,99.74430238734931" stroke="#4dd2ff" stroke-linecap="round" stroke-linejoin="round" stroke-width="0.5"><title>2023-10-12 1.0km</title><desc>10021974100</desc></polyline><polyline fill="none" points="21.84325277712196,125.328374392353 22.586016830056906,129.35823639691807 22.400325817056,130.97017953987233 24.07154493406415,136.4104806468822 25.37138202600181,138.82838878338225 26.671219117939472,143.2612148274202 28.52812924887985,147.69403370190412 28.89951127488166,148.09701688028872 29.82796634081751,148.5 29.642275327816606,147.69403370190412 27.599674183875322,142.4552469891496 25.37138202600181,138.6268965199124 22.400325817056,131.7761507553514 21.657561764121056,129.15674343751743 21.286179738119245,125.328374392353 20.17203365918249,121.5" stroke="#4dd2ff" stroke-linecap="round" stroke-linejoin="round" stroke-width="0.5"><title>2023-10-10 1.0km</title><desc>10009069592</desc></polyline><polyline fill="none" points="57.92599410098046,124.87501476355828 59.206715752370656,128.44855520920828 60.48743740469217,133.2132684479002 63.231840944848955,139.16914817341603 65.42736377660185,146.71324363560416 66.70808542892337,148.5 67.07400590088218,147.90441467636265 67.25696613732725,145.72060069977306 65.97624448500574,141.94855421641842 63.231840944848955,137.18385639088228 60.12151693273336,128.44855520920828 59.206715752370656,124.47795442165807 57.74303386360407,121.5" stroke="#4dd2ff" stroke-linecap="round" stroke-linejoin="round" stroke-width="0.5"><title>2023-10-09 1.0km</title><desc>10003389142</desc></polyline><polyline fill="none" points="94.5026821307838,121.5 95.85290055535734,123.17442605248652 97.20311897993088,126.31397224590182 97.97467236500233,132.59305424662307 100.86799755971879,138.87212239811197 103.37554606050253,145.98838289501145 104.53287613857538,148.08139730314724 105.4973178692162,148.5 105.4973178692162,146.82558884308673 101.83243929035962,140.9651420377195 97.01023063343018,129.24421223602258 95.08134717028588,121.70930331083946" stroke="#4dd2ff" stroke-linecap="round" stroke-linejoin="round" stroke-width="0.5"><title>2023-10-08 1.0km</title><desc>9996447828</desc></polyline><polyline fill="none" points="134.03421115130186,126.90002223243937 134.92287495918572,130.17860173550434 137.58886638097465,137.31431943108328 138.4775301888585,140.40002917940728 141.32125437259674,147.5357190708164 142.2099181804806,148.5 142.38765094149858,147.7285752852913 142.38765094149858,146.95715034380555 139.0107284737751,140.97859935299493 137.41113361995667,137.507176396437 134.56740943621844,129.02145649609156 133.67874562833458,124.58572835079394 132.61234905850142,121.5" stroke="#4dd2ff" stroke-linecap="round" stroke-linejoin="round" stroke-width="0.5"><title>2023-10-07 1.0km</title><desc>9989974159</desc></polyline><polyline fill="none" points="172.79409733694047,129.5425824597478 174.2058750409633,134.138332715258 175.26470831874758,136.43620480247773 177.38237487524748,145.43618429102935 177.91179151460528,147.15958107053302 178.9706247933209,148.5 179.8529858579859,148.5 180.20593028329313,147.73404641030356 180.02945807110518,147.15958107053302 177.91179151460528,144.0957637843676 175.79412495810539,139.50003109802492 175.08823610655963,136.43620480247773 171.38231963291764,127.43619421636686 170.85290299355984,124.18086357903667 169.79406971577555,121.5" stroke="#4dd2ff" stroke-linecap="round" stroke-linejoin="round" stroke-width="0.5"><title>2023-10-06 1.0km</title><desc>9984428862</desc></polyline><polyline fill="none" points="19.187259048223495,151.5 22.246596391312778,159.68855017540045 24.286154620349407,166.54921020008624 27.753403609618545,175.18034092569724 29.18109436891973,178.05737900245003 29.79296183772385,178.5 30.60878513008356,178.5 30.812740951776505,178.05737900245003 30.200873482972383,176.95082622091286 27.753403609618545,173.40985458972864 26.325712849386036,170.53281207149848 23.878242974169552,164.1147842395585 22.8584638601169,160.79510930157267 20.003082339651883,155.48362178634852 20.003082339651883,153.49181155208498" stroke="#4dd2ff" stroke-linecap="round" stroke-linejoin="round" stroke-width="0.5"><title>2023-10-04 1.0km</title><desc>9971682885</desc></polyline><polyline fill="none" points="58.41344425641,154.65329869673587 59.321567754261196,157.80659368471242 60.22969125304371,159.9744818371255 60.95619005244225,163.324850987643 64.40705934725702,170.22265664255247 64.58868404757231,172.58761449554004 65.6784322457388,177.317523942329 66.04168164543808,177.90876203635707 67.13142984360456,178.5 67.13142984360456,176.52920628082938 64.77030874788761,172.19345499831252 63.135686449706554,168.4489368838258 62.22756295092404,166.67521595116705 61.3194394512102,164.1131725325249 59.50319245457649,160.36864313133992 58.77669365517795,157.41243201401085 58.41344425641,154.45621763705276 57.868570156395435,151.5" stroke="#4dd2ff" stroke-linecap="round" stroke-linejoin="round" stroke-width="0.5"><title>2023-10-03 1.0km</title><desc>9965060084</desc></polyline><polyline fill="none" points="95.0646078363061,152.61570723657496 97.53230391815305,160.64878723444417 97.94358659908175,164.2190381870605 99.38307597953826,166.0041620878037 100.41128268092871,168.68184597115032 102.2620547413826,175.5991850697901 103.70154412277043,177.83058141567744 104.72975082322955,178.5 104.9353921636939,178.27686048811302 104.31846814323217,176.49174380488694 102.05641340184957,172.25208747433499 98.35486927814782,163.32647584215738 96.09281453676522,156.63224989292212 95.68153185676783,151.5" stroke="#4dd2ff" stroke-linecap="round" stroke-linejoin="round" stroke-width="0.5"><title>2023-10-02 1.0km</title><desc>9958643020</desc></polyline><polyline fill="none" points="133.22019305825233,156.25201799208298 133.61831463407725,158.1960231375415 137.99765197001398,168.56402885355055 140.187320638448,175.2600131004583 141.38168536685407,177.63600384257734 142.5760500933975,178.5 142.77511088270694,178.28400098439306 142.5760500933975,177.42000476364046 138.5948343332857,171.37202410562895 134.81267936248332,162.08402956835926 133.02113226987422,156.4680186274927 132.22488911822438,151.5" stroke="#4dd2ff" stroke-linecap="round" stroke-linejoin="round" stroke-width="0.5"><title>2023-10-01 1.0km</title><desc>9952075403</desc></polyline><polyline fill="none" points="171.12336484435946,155.41306045162492 172.74614235199988,158.7391573113855 173.46737679839134,162.0652500144206 174.00830263458192,165.19568640808575 176.71293181274086,172.82610969012603 179.05694376770407,177.71739515918307 180.1387954382226,178.5 180.49941266234964,177.9130463907495 176.8932404248044,172.43480646470562 175.2704629180953,168.71742294891737 174.72953708283603,166.76090322365053 172.2052165158093,161.282640340738 170.76274762116373,155.2174075653311 169.50058733765036,151.5" stroke="#4dd2ff" stroke-linecap="round" stroke-linejoin="round" stroke-width="0.5"><title>2023-09-30 1.0km</title><desc>9945549317</desc></polyline><polyline fill="none" points="20.81972591113299,181.5 22.611271949484944,184.52401233883575 23.20845396257937,186.90001985034905 24.800939328968525,190.788027996663 25.597182014025748,196.62003056914546 26.19436402618885,198.34802910801955 28.58309207763523,204.18001667386852 29.18027408979833,207.8520029061474 29.57839543186128,208.2840009846259 30.175577444955707,208.5 30.37463811598718,208.06800195295364 26.791546039283276,201.58802362973802 24.402817987836897,195.97203085501678 23.60657530464232,192.73203014023602 20.81972591113299,186.25201799278148 19.62536188494414,182.36400384292938" stroke="#4dd2ff" stroke-linecap="round" stroke-linejoin="round" stroke-width="0.5"><title>2023-09-28 1.0km</title><desc>9933629332</desc></polyline><polyline fill="none" points="57.221871298737824,184.56819501379505 58.72990807145834,189.88639168953523 61.557477017864585,193.77275975467637 63.442522982135415,200.72729958500713 66.08158733230084,205.43183137779124 66.83560571912676,208.09091104590334 67.58962410409003,208.5 67.96663329843432,207.8863665459212 67.58962410409003,207.06818839721382 66.08158733230084,205.02274197200313 61.7459816141054,196.2273052087985 59.483926456421614,190.09093751222827 57.033366702497005,181.5" stroke="#4dd2ff" stroke-linecap="round" stroke-linejoin="round" stroke-width="0.5"><title>2023-09-27 1.0km</title><desc>9927137811</desc></polyline><polyline fill="none" points="102.24298205017112,181.5 101.70466635818593,184.09618973411852 101.16635066620074,185.5889953733422 100.74766068346798,187.40632057009498 98.29533364181407,192.5337536331499 97.03926369408146,194.67558394157095 96.80001227511093,195.5842376536457 96.91963798436336,196.29817920009373 97.21870225784369,197.33663860021625 98.115895077819,199.54336076957406 98.41495935129933,200.12749218509998 98.77383647928946,201.16594708053162 99.97009357251227,202.65872385265538 100.50840926473029,203.8269821741269 101.10653781169094,204.7356264666305 101.5850406489335,206.03368811903056 102.30279490514658,207.0072331057745 103.1999877251219,208.5" stroke="#4dd2ff" stroke-linecap="round" stroke-linejoin="round" stroke-width="0.5"><title>2023-09-26 1.0km</title><desc>9920397094</desc></polyline><polyline fill="none" points="137.37390754465014,181.5 136.1970446286723,185.4223337789299 135.02018171316013,187.52032117464114 133.9273804333061,188.8885719126556 133.33894897578284,189.98317141644657 133.08676406508312,191.07776995445602 133.17082570167258,192.44601676869206 133.59113388648257,193.5406131336931 134.59987352835014,195.09128966438584 135.02018171316013,196.64196425664704 135.8607980813831,198.64871673414018 137.45796918170527,200.65546596597414 140.14794156095013,206.12840191822033 141.91323593491688,208.5" stroke="#4dd2ff" stroke-linecap="round" stroke-linejoin="round" stroke-width="0.5"><title>2023-09-25 1.0km</title><desc>9914573673</desc></polyline><polyline fill="none" points="176.99057334009558,181.5 176.3270488937851,182.50801337813027 176.19434400415048,183.012019678019 176.3270488937851,183.6600273968652 176.39340133825317,184.30803468660451 175.0663524447009,186.75605835590977 174.7345902211964,188.412070897175 174.2701231087558,189.63607836677693 171.48332043224946,194.53209294530097 171.41696798754856,195.1080930508324 171.68237776588649,196.26009224599693 172.41225465759635,197.4120900858543 172.81036932580173,198.42008708399953 173.40754132764414,199.4280830444768 173.73930355114862,200.43607796734432 174.60188533202745,201.80406941764522 175.26540977857076,203.1720589569304 175.99528667051345,203.964052027266 176.19434400415048,204.6840451717144 176.65881111705676,205.2600393060129 177.65409778733738,206.98801967676263 178.38397467858158,207.78000966098625 178.58303201268427,208.5" stroke="#4dd2ff" stroke-linecap="round" stroke-linejoin="round" stroke-width="0.5"><title>2023-09-24 1.0km</title><desc>9907510217</desc></polyline><polyline fill="none" points="26.00656214216724,211.5 25.44288734253496,212.37379601283465 25.040262485854328,213.2475913829403 24.798687572125345,214.38352440390736 24.71816260041669,215.86897363874596 23.349238086957484,217.70393777731806 22.54398837359622,219.80103618034627 21.819263631477952,220.84958399401512 21.336113803088665,222.2476463066414 21.25558883138001,223.73308571160305 22.946613230276853,228.0146359608043 23.590813001152128,229.32531152490992 25.684462256729603,232.64568315108772 26.57023694179952,234.83013310923707 27.697586541064084,236.22817897505593 28.34178631193936,237.36409003043082 28.74441116908565,238.5" stroke="#4dd2ff" stroke-linecap="round" stroke-linejoin="round" stroke-width="0.5"><title>2023-09-23 1.0km</title><desc>9901004991</desc></polyline><polyline fill="none" points="63.53675957862288,211.5 62.99918053811416,212.50001147040166 62.46160149760544,214.2500294201309 61.232849405147135,216.8333843119908 60.00409731268883,218.58339557045838 58.92893923167139,221.50007499643834 58.852142225485295,223.08341211284278 59.00573623785749,224.0000799590489 60.541676353197545,227.66674392909044 60.772067370358855,228.75007419561734 61.0792553932406,229.3334054487059 62.154413474258035,230.66673290001927 62.99918053811416,232.3333900080761 63.69035359006375,234.08337733428925 64.84230867680162,235.75002941855928 66.14785777498037,238.5" stroke="#4dd2ff" stroke-linecap="round" stroke-linejoin="round" stroke-width="0.5"><title>2023-09-22 1.0km</title><desc>9895405405</desc></polyline><polyline fill="none" points="101.43127718381584,211.5 101.21108069410548,212.29646981041878 100.77068771468475,212.77435141563183 99.8165029254742,214.5265821639914 99.44950877595693,215.80093001882778 98.34852632693946,218.58856072451454 97.17414504801854,220.97795276233228 96.44015674851835,222.73017024050932 96.21996025880799,223.60627791646402 96.21996025880799,224.1638006141875 96.44015674851835,224.96026111306855 96.88054972840473,225.75672102649696 97.83473451761529,228.22574303630972 98.78891930636019,229.97794879041612 99.30271111568436,231.2522784678731 100.25689590489492,232.8451884566457 100.84408654412255,233.5619971874985 101.28447952400893,234.83632264879998 102.45886080292985,236.90709832619177 103.78003974119201,238.5" stroke="#4dd2ff" stroke-linecap="round" stroke-linejoin="round" stroke-width="0.5"><title>2023-09-21 1.0km</title><desc>9889267953</desc></polyline><polyline fill="none" points="140.24893571832217,211.5 139.2853912396822,214.3907022520434 138.7186003702227,216.6663544435287 137.8117349781096,218.57297718862537 136.73483232571743,221.77117332391208 134.8644224551972,225.2768742701155 134.35431067249738,227.18347738828743 134.41098975925706,227.61400007159682 134.75106428121217,228.5365479324828 135.4878924121149,230.13562848127913 135.94132510805503,231.4886942502926 137.07490684767254,233.08776915556518 137.75505589158274,234.37932742462726 138.1518095000647,235.30186782439705 138.605242195772,236.10140201455215 139.34207032690756,236.65492523700232 140.24893571832217,238.00798046117416 140.30561480554752,238.25399026670493 140.64568932750262,238.5" stroke="#4dd2ff" stroke-linecap="round" stroke-linejoin="round" stroke-width="0.5"><title>2023-09-20 1.0km</title><desc>9882714971</desc></polyline><polyline fill="none" points="177.23875454021618,211.5 176.66307480144314,212.95760326780146 175.57567973900586,216.15044065576512 175.51171532343142,217.19158094731392 175.12792883068323,217.74685529997805 174.68017792282626,218.7879938307451 174.4243202607613,219.75972209015163 173.9126049373299,221.0784945563646 172.44142338237725,223.4383985819295 172.05763688962907,224.82657466462115 171.92970805894583,226.07593139371602 172.05763688962907,227.32528646918945 172.44142338237725,228.71345683612162 172.8891742900014,229.68517487851204 174.29639142984524,232.11446560826153 175.0,233.08618014963577 175.63964415411465,234.8213822004036 176.27928830869496,235.9319098389824 176.9189324628096,236.83421258348972 177.62254103273153,237.52829103090335 178.07029194105417,238.5" stroke="#4dd2ff" stroke-linecap="round" stroke-linejoin="round" stroke-width="0.5"><title>2023-09-19 1.0km</title><desc>9876194288</desc></polyline><polyline fill="none" points="24.801259933039546,241.5 24.32428377168253,242.27636650414206 23.529323503840715,243.82909797120374 23.290835422929376,244.8642511406215 21.859906939789653,247.3658675296465 20.746962564066052,249.69495385535993 20.508474483620375,250.5575772470329 20.58797051059082,251.50646224501543 21.064946671947837,252.7141329512233 21.780410913284868,254.0080644710688 22.416379128117114,255.81956620130222 23.290835422929376,257.7173269188497 24.244787745177746,259.44256127101835 25.11924404045567,260.56396223965567 26.152692389208823,262.289192405995 26.78866060357541,264.2732039610855 27.90160497976467,265.998428673367 28.45807716762647,267.5511287454283 29.491525516379625,268.5" stroke="#4dd2ff" stroke-linecap="round" stroke-linejoin="round" stroke-width="0.5"><title>2023-09-18 1.0km</title><desc>9870505463</desc></polyline><polyline fill="none" points="62.77130160154775,241.5 62.383727884851396,242.2570180289331 61.84112468129024,244.78040784032783 61.14349199132994,245.95798784750514 60.83343301760033,246.88322843116475 59.128108663950115,249.6589456924121 58.507990716956556,251.1729704508325 58.120417000260204,252.51876855356386 58.43047597352415,253.4440038310131 60.135800327174366,257.14493745734217 60.98846250446513,258.4907285349327 61.60858045099303,259.9206298200297 62.61627211468294,261.2664176323451 63.15887531870976,262.1916458348278 63.85650800867006,264.37854588468326 66.87958299927413,268.5" stroke="#4dd2ff" stroke-linecap="round" stroke-linejoin="round" stroke-width="0.5"><title>2023-09-16 1.0km</title><desc>9856514700</desc></polyline><polyline fill="none" points="99.6267660856247,241.5 98.79735738644376,244.02002519892994 97.71912607783452,245.73003934358712 95.4797225901857,250.05006443581078 95.39678171975538,251.0400680389721 95.4797225901857,252.21007126464974 95.977367809508,253.3800733720418 96.80677650868893,254.64007439091802 97.5532443379052,256.3500736991409 98.88029825640842,258.6000691493973 100.53911565523595,261.75005583208986 100.7049973946996,262.9200488211354 101.28558348398656,263.3700458268868 101.94911044370383,264.27003934187815 103.02734175231308,266.07002438721247 104.18851393088698,267.06001503393054 104.43733654078096,267.69000866496935 104.60321828071028,268.5" stroke="#4dd2ff" stroke-linecap="round" stroke-linejoin="round" stroke-width="0.5"><title>2023-09-15 1.0km</title><desc>9850671982</desc></polyline><polyline fill="none" points="138.18640634138137,241.5 136.81359365861863,245.13106798846275 135.2691793902777,247.3655661904486 134.582773049362,248.57591773686 133.55316353728995,251.18282483052462 133.29576115915552,252.11386177758686 133.29576115915552,252.85869084193837 133.55316353728995,253.78972655686084 134.582773049362,256.58282959414646 135.52658176841214,258.4448948628269 137.84320317115635,262.44832591875456 138.7870118902065,264.21727979544085 138.958613475319,265.2414098577574 139.64501981670037,265.89312855689786 140.76043012179434,267.662077621324 141.70423884084448,268.5" stroke="#4dd2ff" stroke-linecap="round" stroke-linejoin="round" stroke-width="0.5"><title>2023-09-14 1.0km</title><desc>9844236351</desc></polyline><polyline fill="none" points="170.70887012802996,241.5 171.20281313476153,241.90199097857112 171.38804176240228,242.3039817797835 171.51152751408517,243.1749612404965 171.88198476913385,243.91194321104558 172.12895627273247,245.98888919339515 172.12895627273247,246.99386135616805 172.00547052081674,247.52984605642268 172.12895627273247,248.1998264885624 172.43767065182328,249.00380235683406 172.31418490037322,249.67378170514712 172.37592777609825,250.00877119449433 172.99335653474554,251.14773453748785 173.54904241743498,252.8226780439727 174.04298542416655,253.76064506283728 174.66041418281384,254.63161357294302 175.33958581718616,255.23459128447575 175.52481444459409,255.6365762039204 175.71004307223484,256.5075429211138 176.20398607919924,257.378508805763 176.75967196188867,258.9864436365897 177.50058647198603,260.3933842863189 177.8710437270347,261.59933168569114 178.05627235467546,262.604286632617 178.42672960995696,263.40824979246827 179.1059012443293,265.6191448243917 180.03204438230023,267.36105834465707 180.0937872582581,267.62904474453535 180.03204438230023,267.8300344927702 179.29112987197004,268.5 179.66158712701872,268.2320138561772 179.84681575465947,267.8300344927702 179.97030150610954,267.4950515545206 179.90855863061734,267.0260752339964 179.53810137556866,266.55709867202677 178.42672960995696,264.14521539898124 177.8710437270347,262.33629875513725 176.6979290859308,259.7234128191485 176.14224320324138,257.17751675244654 175.83352882415056,256.44054551096633 174.66041418281384,254.8996037162142 173.4872995414771,252.6886826767004 172.93161365855485,250.87974329077406 172.7463850316126,249.67378170514712 172.25244202418253,248.40082052216167 171.2645560107194,246.25688187853666 171.01758450712077,245.25190890283557 170.1531842451077,243.6439498362015 169.96795561769977,242.7729708236875 169.9062127417419,241.70099551149178" stroke="#4dd2ff" stroke-linecap="round" stroke-linejoin="round" stroke-width="0.5"><title>2023-09-13 1.0km</title><desc>9837636972</desc></polyline></svg>