<svg xmlns="http://www.w3.org/2000/svg" xmlns:ev="http://www.w3.org/2001/xml-events" xmlns:xlink="http://www.w3.org/1999/xlink" width="200mm" height="300mm" baseProfile="full" version="1.1" viewBox="0 0 200 300"><rect width="200" height="300" x="0" y="0" fill="#222"/><text fill="#FFF" style="font-size:12px;font-family:Arial;font-weight:700" x="10" y="20">Over 1km Runs</text><text fill="#FFF" style="font-size:4px;font-family:Arial" x="10" y="280">ATHLETE</text><text fill="#FFF" style="font-size:9px;font-family:Arial" x="10" y="290">Jiakai</text><text fill="#FFF" style="font-size:4px;font-family:Arial" x="120" y="280">STATISTICS</text><text fill="#FFF" style="font-size:3px;font-family:Arial" x="120" y="285">Number: 45</text><text fill="#FFF" style="font-size:3px;font-family:Arial" x="120" y="290">Weekly: 5.6</text><text fill="#FFF" style="font-size:3px;font-family:Arial" x="141" y="285">Total: 47.0 km</text><text fill="#FFF" style="font-size:3px;font-family:Arial" x="141" y="290">Avg: 1.0 km</text><text fill="#FFF" style="font-size:3px;font-family:Arial" x="167" y="285">Min: 1.0 km</text><text fill="#FFF" style="font-size:3px;font-family:Arial" x="167" y="290">Max: 1.5 km</text><polyline fill="none" stroke="#4dd2ff" stroke-linecap="round" stroke-linejoin="round" stroke-width=".5" points="19.412 31.5 20.888 34.703 22.153 40.424 24.262 44.542 27.425 52.78 28.058 54.153 29.112 57.814 29.745 58.5 30.588 58.5 30.588 58.042 29.112 57.356 28.479 55.754 27.003 54.381 25.949 51.407 24.473 49.119 22.786 45.686 20.888 38.593 19.623 35.619"><title>2023-11-02 1.1km</title><desc>10144903556</desc></polyline><polyline fill="none" stroke="#4dd2ff" stroke-linecap="round" stroke-linejoin="round" stroke-width=".5" points="50.402 33.457 50.763 35.609 52.205 38.935 54.73 47.935 59.057 56.935 60.319 58.5 59.598 56.152 56.893 52.044 55.451 46.761 53.648 44.217 51.484 39.522 49.681 31.5"><title>2023-11-01 1.0km</title><desc>10138966680</desc></polyline><polyline fill="none" stroke="#4dd2ff" stroke-linecap="round" stroke-linejoin="round" stroke-width=".5" points="81.071 31.906 82.007 34.951 83.503 43.071 85.935 48.35 87.432 53.222 89.864 58.5 90.051 58.297 88.368 55.861 85.935 50.177 83.877 46.523 80.323 35.763 79.949 31.5"><title>2023-10-31 1.0km</title><desc>10133123337</desc></polyline><polyline fill="none" stroke="#4dd2ff" stroke-linecap="round" stroke-linejoin="round" stroke-width=".5" points="110.761 34.7 111.682 39.5 111.682 41.3 113.71 44.7 119.239 56.5 120.161 58.3 120.529 58.5 116.29 50.1 114.447 44.9 112.42 40.7 109.471 31.5"><title>2023-10-30 1.0km</title><desc>10127985445</desc></polyline><polyline fill="none" stroke="#4dd2ff" stroke-linecap="round" stroke-linejoin="round" stroke-width=".5" points="140.744 35.408 141.562 40.915 142.053 42.691 145.327 50.329 146.964 54.77 149.42 58.145 150.075 58.5 150.238 57.967 148.765 55.658 146.637 51.04 142.872 44.112 141.399 38.961 140.253 36.651 140.089 33.099 139.762 31.5"><title>2023-10-28 1.0km</title><desc>10115543824</desc></polyline><polyline fill="none" stroke="#4dd2ff" stroke-linecap="round" stroke-linejoin="round" stroke-width=".5" points="171.498 37.1 172.973 41.9 174.631 45.7 176.106 51.1 178.318 56.3 179.239 58.3 180.161 58.5 180.345 58.3 179.977 57.1 178.871 54.1 175.184 46.9 172.235 38.9 170.392 34.9 169.655 31.5"><title>2023-10-27 1.0km</title><desc>10110442644</desc></polyline><polyline fill="none" stroke="#4dd2ff" stroke-linecap="round" stroke-linejoin="round" stroke-width=".5" points="21.341 65.669 24.817 77.382 26.098 80.956 27.378 83.14 28.842 87.309 29.391 88.103 30.489 88.5 30.672 87.904 30.489 87.11 28.659 84.728 25.915 79.963 22.622 70.235 20.426 66.662 19.328 61.5"><title>2023-10-26 1.0km</title><desc>10104873905</desc></polyline><polyline fill="none" stroke="#4dd2ff" stroke-linecap="round" stroke-linejoin="round" stroke-width=".5" points="53.648 74.413 57.795 84.783 59.778 88.304 60.499 88.5 60.319 86.543 55.451 78.13 52.746 71.283 50.402 66.391 49.501 61.5"><title>2023-10-25 1.0km</title><desc>10098978222</desc></polyline><polyline fill="none" stroke="#4dd2ff" stroke-linecap="round" stroke-linejoin="round" stroke-width=".5" points="80.005 61.5 79.824 62.88 80.913 67.412 82.366 70.369 83.275 73.916 84.909 78.646 88.36 85.347 89.45 88.106 89.813 88.5 90.176 88.303 89.995 85.741 87.997 81.996 86.544 79.828 84.728 75.69 84.364 73.522 82.185 70.172 80.913 67.215 80.55 63.668 80.005 61.5"><title>2023-10-24 1.0km</title><desc>10092835699</desc></polyline><polyline fill="none" stroke="#4dd2ff" stroke-linecap="round" stroke-linejoin="round" stroke-width=".5" points="112.225 66.162 114.91 75.68 116.164 78.011 117.596 83.838 119.744 87.723 120.639 88.5 119.744 87.529 118.491 84.421 115.269 80.536 114.552 79.176 113.836 74.709 111.688 70.435 110.256 65.968 109.361 61.5"><title>2023-10-23 1.0km</title><desc>10087395010</desc></polyline><polyline fill="none" stroke="#4dd2ff" stroke-linecap="round" stroke-linejoin="round" stroke-width=".5" points="136.258 61.629 136.736 61.5 140.137 61.759 141.629 62.147 141.987 62.342 142.762 62.924 143.299 63.572 144.493 65.773 145.09 68.234 145.865 69.529 146.223 70.565 147.059 72.443 147.655 74.385 148.55 75.939 148.968 76.392 149.505 77.299 149.803 79.241 149.982 79.759 150.46 80.471 150.579 81.572 150.758 82.025 153.384 88.241 153.742 88.5 153.742 88.176 153.205 87.658 152.608 86.234 152.011 85.004 150.4 80.018"><title>2023-10-22 1.5km</title><desc>10080655811</desc></polyline><polyline fill="none" stroke="#4dd2ff" stroke-linecap="round" stroke-linejoin="round" stroke-width=".5" points="170.706 61.5 171.653 62.185 169.948 61.911 172.6 65.338 172.853 66.16 172.663 66.845 171.779 67.325 171.527 67.805 171.59 68.627 172.095 70.614 172.663 72.053 173.295 74.246 174.432 76.234 174.621 76.987 175.316 78.221 175.758 78.769 175.821 79.112 176.263 79.523 176.579 80.208 177.021 81.51 177.463 82.401 177.4 84.183 178.221 85.759 178.473 86.513 178.915 87.335 179.673 88.294 180.052 88.5 178.6 86.444 178.284 85.348 177.652 83.977 177.4 83.086 176.579 81.921 175.884 79.934"><title>2023-10-20 1.4km</title><desc>10069668027</desc></polyline><polyline fill="none" stroke="#4dd2ff" stroke-linecap="round" stroke-linejoin="round" stroke-width=".5" points="19.567 91.5 19.696 92.547 20.724 95.058 20.982 96.593 23.103 101.756 23.296 102.454 23.425 103.5 23.682 104.198 25.225 106.361 26.061 108.035 26.575 109.709 27.025 110.616 27.282 112.012 27.604 112.709 28.44 114.872 28.568 115.709 29.79 118.221 30.111 118.5 30.304 118.5 30.433 118.43 30.369 118.36 29.083 116.756 28.504 114.802 27.282 112.57 27.09 111.663 26.961 110.128"><title>2023-10-19 1.3km</title><desc>10064004415</desc></polyline><polyline fill="none" stroke="#4dd2ff" stroke-linecap="round" stroke-linejoin="round" stroke-width=".5" points="48.912 91.5 51.559 94.947 51.382 97.436 51.735 99.926 52.971 104.33 54.735 107.202 56.5 112.181 60.029 117.926 60.559 118.5 61.088 118.309 58.794 116.011 54.559 107.777 53.5 104.138 50.5 97.819"><title>2023-10-18 1.0km</title><desc>10058081424</desc></polyline><polyline fill="none" stroke="#4dd2ff" stroke-linecap="round" stroke-linejoin="round" stroke-width=".5" points="80.287 93.136 81.795 101.932 85.754 112.364 88.393 117.886 89.524 118.5 90.09 118.5 90.467 117.682 89.147 116.045 87.451 113.386 85.189 108.477 84.246 105.614 80.287 97.636 79.91 96.409 79.533 91.5"><title>2023-10-17 1.0km</title><desc>10051702317</desc></polyline><polyline fill="none" stroke="#4dd2ff" stroke-linecap="round" stroke-linejoin="round" stroke-width=".5" points="108.971 92.123 110.885 95.446 113.756 102.923 115.287 105.831 117.01 111.231 119.115 116.631 119.881 118.085 120.838 118.5 121.029 118.292 120.838 117.669 118.732 114.554 115.861 107.492 113.756 103.131 112.033 95.031 111.076 91.5"><title>2023-10-16 1.0km</title><desc>10046279660</desc></polyline><polyline fill="none" stroke="#4dd2ff" stroke-linecap="round" stroke-linejoin="round" stroke-width=".5" points="139.471 91.5 140.26 93.214 141.05 97.071 142.828 103.071 145.197 106.714 147.962 117 148.95 118.071 150.332 118.5 150.529 118.071 150.332 116.786 147.765 113.143 146.382 108.857 144.803 106.286 141.05 97.5 139.668 91.5"><title>2023-10-15 1.0km</title><desc>10039610121</desc></polyline><polyline fill="none" stroke="#4dd2ff" stroke-linecap="round" stroke-linejoin="round" stroke-width=".5" points="169.381 93.46 169.983 99.774 171.589 104.347 173.595 107.177 174.799 111.097 178.211 117.194 179.013 118.065 180.017 118.5 180.619 118.065 180.619 117.411 176.605 114.145 173.997 109.355 172.993 105.218 170.585 99.774 169.381 95.202 169.582 92.371 169.381 91.5"><title>2023-10-14 1.0km</title><desc>10033377496</desc></polyline><polyline fill="none" stroke="#4dd2ff" stroke-linecap="round" stroke-linejoin="round" stroke-width=".5" points="18.878 121.929 22.433 126.214 22.828 129.429 26.185 139.714 29.345 147.214 30.332 148.5 31.122 148.5 31.122 147.857 30.924 147.214 29.147 145.929 27.172 142.286 25 135.429 21.05 126.643 20.458 123.643 19.471 121.5"><title>2023-10-13 1.0km</title><desc>10028006924</desc></polyline><polyline fill="none" stroke="#4dd2ff" stroke-linecap="round" stroke-linejoin="round" stroke-width=".5" points="49.207 121.5 51.106 123.973 52.246 126.034 52.436 128.714 52.246 131.599 54.335 135.928 56.804 142.523 59.274 147.057 59.844 147.882 60.793 148.5 60.793 147.469 58.704 144.79 56.804 141.492 54.335 134.691 52.816 132.011 52.056 129.744"><title>2023-10-12 1.0km</title><desc>10021974100</desc></polyline><polyline fill="none" stroke="#4dd2ff" stroke-linecap="round" stroke-linejoin="round" stroke-width=".5" points="81.843 125.328 82.586 129.358 82.4 130.97 84.072 136.41 85.371 138.828 86.671 143.261 88.528 147.694 88.9 148.097 89.828 148.5 89.642 147.694 87.6 142.455 85.371 138.627 82.4 131.776 81.658 129.157 81.286 125.328 80.172 121.5"><title>2023-10-10 1.0km</title><desc>10009069592</desc></polyline><polyline fill="none" stroke="#4dd2ff" stroke-linecap="round" stroke-linejoin="round" stroke-width=".5" points="110.426 124.875 111.707 128.449 112.987 133.213 115.732 139.169 117.927 146.713 119.208 148.5 119.574 147.904 119.757 145.721 118.476 141.949 115.732 137.184 112.622 128.449 111.707 124.478 110.243 121.5"><title>2023-10-09 1.0km</title><desc>10003389142</desc></polyline><polyline fill="none" stroke="#4dd2ff" stroke-linecap="round" stroke-linejoin="round" stroke-width=".5" points="139.503 121.5 140.853 123.174 142.203 126.314 142.975 132.593 145.868 138.872 148.376 145.988 149.533 148.081 150.497 148.5 150.497 146.826 146.832 140.965 142.01 129.244 140.081 121.709"><title>2023-10-08 1.0km</title><desc>9996447828</desc></polyline><polyline fill="none" stroke="#4dd2ff" stroke-linecap="round" stroke-linejoin="round" stroke-width=".5" points="171.534 126.9 172.423 130.179 175.089 137.314 175.978 140.4 178.821 147.536 179.71 148.5 179.888 147.729 179.888 146.957 176.511 140.979 174.911 137.507 172.067 129.021 171.179 124.586 170.112 121.5"><title>2023-10-07 1.0km</title><desc>9989974159</desc></polyline><polyline fill="none" stroke="#4dd2ff" stroke-linecap="round" stroke-linejoin="round" stroke-width=".5" points="22.794 159.543 24.206 164.138 25.265 166.436 27.382 175.436 27.912 177.16 28.971 178.5 29.853 178.5 30.206 177.734 30.029 177.16 27.912 174.096 25.794 169.5 25.088 166.436 21.382 157.436 20.853 154.181 19.794 151.5"><title>2023-10-06 1.0km</title><desc>9984428862</desc></polyline><polyline fill="none" stroke="#4dd2ff" stroke-linecap="round" stroke-linejoin="round" stroke-width=".5" points="49.187 151.5 52.247 159.689 54.286 166.549 57.753 175.18 59.181 178.057 59.793 178.5 60.609 178.5 60.813 178.057 60.201 176.951 57.753 173.41 56.326 170.533 53.878 164.115 52.858 160.795 50.003 155.484 50.003 153.492"><title>2023-10-04 1.0km</title><desc>9971682885</desc></polyline><polyline fill="none" stroke="#4dd2ff" stroke-linecap="round" stroke-linejoin="round" stroke-width=".5" points="80.913 154.653 81.822 157.807 82.73 159.974 83.456 163.325 86.907 170.223 87.089 172.588 88.178 177.318 88.542 177.909 89.631 178.5 89.631 176.529 87.27 172.193 85.636 168.449 84.728 166.675 83.819 164.113 82.003 160.369 81.277 157.412 80.913 154.456 80.369 151.5"><title>2023-10-03 1.0km</title><desc>9965060084</desc></polyline><polyline fill="none" stroke="#4dd2ff" stroke-linecap="round" stroke-linejoin="round" stroke-width=".5" points="110.065 152.616 112.532 160.649 112.944 164.219 114.383 166.004 115.411 168.682 117.262 175.599 118.702 177.831 119.73 178.5 119.935 178.277 119.318 176.492 117.056 172.252 113.355 163.326 111.093 156.632 110.682 151.5"><title>2023-10-02 1.0km</title><desc>9958643020</desc></polyline><polyline fill="none" stroke="#4dd2ff" stroke-linecap="round" stroke-linejoin="round" stroke-width=".5" points="140.72 156.252 141.118 158.196 145.498 168.564 147.687 175.26 148.882 177.636 150.076 178.5 150.275 178.284 150.076 177.42 146.095 171.372 142.313 162.084 140.521 156.468 139.725 151.5"><title>2023-10-01 1.0km</title><desc>9952075403</desc></polyline><polyline fill="none" stroke="#4dd2ff" stroke-linecap="round" stroke-linejoin="round" stroke-width=".5" points="171.123 155.413 172.746 158.739 173.467 162.065 174.008 165.196 176.713 172.826 179.057 177.717 180.139 178.5 180.499 177.913 176.893 172.435 175.27 168.717 174.73 166.761 172.205 161.283 170.763 155.217 169.501 151.5"><title>2023-09-30 1.0km</title><desc>9945549317</desc></polyline><polyline fill="none" stroke="#4dd2ff" stroke-linecap="round" stroke-linejoin="round" stroke-width=".5" points="20.82 181.5 22.611 184.524 23.208 186.9 24.801 190.788 25.597 196.62 26.194 198.348 28.583 204.18 29.18 207.852 29.578 208.284 30.176 208.5 30.375 208.068 26.792 201.588 24.403 195.972 23.607 192.732 20.82 186.252 19.625 182.364"><title>2023-09-28 1.0km</title><desc>9933629332</desc></polyline><polyline fill="none" stroke="#4dd2ff" stroke-linecap="round" stroke-linejoin="round" stroke-width=".5" points="49.722 184.568 51.23 189.886 54.057 193.773 55.943 200.727 58.582 205.432 59.336 208.091 60.09 208.5 60.467 207.886 60.09 207.068 58.582 205.023 54.246 196.227 51.984 190.091 49.533 181.5"><title>2023-09-27 1.0km</title><desc>9927137811</desc></polyline><polyline fill="none" stroke="#4dd2ff" stroke-linecap="round" stroke-linejoin="round" stroke-width=".5" points="87.243 181.5 86.705 184.096 86.166 185.589 85.748 187.406 83.295 192.534 82.039 194.676 81.8 195.584 81.92 196.298 82.219 197.337 83.116 199.543 83.415 200.127 83.774 201.166 84.97 202.659 85.508 203.827 86.107 204.736 86.585 206.034 87.303 207.007 88.2 208.5"><title>2023-09-26 1.0km</title><desc>9920397094</desc></polyline><polyline fill="none" stroke="#4dd2ff" stroke-linecap="round" stroke-linejoin="round" stroke-width=".5" points="114.874 181.5 113.697 185.422 112.52 187.52 111.427 188.889 110.839 189.983 110.587 191.078 110.671 192.446 111.091 193.541 112.1 195.091 112.52 196.642 113.361 198.649 114.958 200.655 117.648 206.128 119.413 208.5"><title>2023-09-25 1.0km</title><desc>9914573673</desc></polyline><polyline fill="none" stroke="#4dd2ff" stroke-linecap="round" stroke-linejoin="round" stroke-width=".5" points="146.991 181.5 146.327 182.508 146.194 183.012 146.327 183.66 146.393 184.308 145.066 186.756 144.735 188.412 144.27 189.636 141.483 194.532 141.417 195.108 141.682 196.26 142.412 197.412 142.81 198.42 143.408 199.428 143.739 200.436 144.602 201.804 145.265 203.172 145.995 203.964 146.194 204.684 146.659 205.26 147.654 206.988 148.384 207.78 148.583 208.5"><title>2023-09-24 1.0km</title><desc>9907510217</desc></polyline><polyline fill="none" stroke="#4dd2ff" stroke-linecap="round" stroke-linejoin="round" stroke-width=".5" points="176.007 181.5 175.443 182.374 175.04 183.248 174.799 184.384 174.718 185.869 173.349 187.704 172.544 189.801 171.819 190.85 171.336 192.248 171.256 193.733 172.947 198.015 173.591 199.325 175.684 202.646 176.57 204.83 177.698 206.228 178.342 207.364 178.744 208.5"><title>2023-09-23 1.0km</title><desc>9901004991</desc></polyline><polyline fill="none" stroke="#4dd2ff" stroke-linecap="round" stroke-linejoin="round" stroke-width=".5" points="26.037 211.5 25.499 212.5 24.962 214.25 23.733 216.833 22.504 218.583 21.429 221.5 21.352 223.083 21.506 224 23.042 227.667 23.272 228.75 23.579 229.333 24.654 230.667 25.499 232.333 26.19 234.083 27.342 235.75 28.648 238.5"><title>2023-09-22 1.0km</title><desc>9895405405</desc></polyline><polyline fill="none" stroke="#4dd2ff" stroke-linecap="round" stroke-linejoin="round" stroke-width=".5" points="56.431 211.5 56.211 212.296 55.771 212.774 54.817 214.527 54.45 215.801 53.349 218.589 52.174 220.978 51.44 222.73 51.22 223.606 51.22 224.164 51.44 224.96 51.881 225.757 52.835 228.226 53.789 229.978 54.303 231.252 55.257 232.845 55.844 233.562 56.284 234.836 57.459 236.907 58.78 238.5"><title>2023-09-21 1.0km</title><desc>9889267953</desc></polyline><polyline fill="none" stroke="#4dd2ff" stroke-linecap="round" stroke-linejoin="round" stroke-width=".5" points="87.749 211.5 86.785 214.391 86.219 216.666 85.312 218.573 84.235 221.771 82.364 225.277 81.854 227.183 81.911 227.614 82.251 228.537 82.988 230.136 83.441 231.489 84.575 233.088 85.255 234.379 85.652 235.302 86.105 236.101 86.842 236.655 87.749 238.008 87.806 238.254 88.146 238.5"><title>2023-09-20 1.0km</title><desc>9882714971</desc></polyline><polyline fill="none" stroke="#4dd2ff" stroke-linecap="round" stroke-linejoin="round" stroke-width=".5" points="117.239 211.5 116.663 212.958 115.576 216.15 115.512 217.192 115.128 217.747 114.68 218.788 114.424 219.76 113.913 221.078 112.441 223.438 112.058 224.827 111.93 226.076 112.058 227.325 112.441 228.713 112.889 229.685 114.296 232.114 115 233.086 115.64 234.821 116.279 235.932 116.919 236.834 117.623 237.528 118.07 238.5"><title>2023-09-19 1.0km</title><desc>9876194288</desc></polyline><polyline fill="none" stroke="#4dd2ff" stroke-linecap="round" stroke-linejoin="round" stroke-width=".5" points="144.801 211.5 144.324 212.276 143.529 213.829 143.291 214.864 141.86 217.366 140.747 219.695 140.508 220.558 140.588 221.506 141.065 222.714 141.78 224.008 142.416 225.82 143.291 227.717 144.245 229.443 145.119 230.564 146.153 232.289 146.789 234.273 147.902 235.998 148.458 237.551 149.492 238.5"><title>2023-09-18 1.0km</title><desc>9870505463</desc></polyline><polyline fill="none" stroke="#4dd2ff" stroke-linecap="round" stroke-linejoin="round" stroke-width=".5" points="175.271 211.5 174.884 212.257 174.341 214.78 173.643 215.958 173.333 216.883 171.628 219.659 171.008 221.173 170.62 222.519 170.93 223.444 172.636 227.145 173.488 228.491 174.109 229.921 175.116 231.266 175.659 232.192 176.357 234.379 179.38 238.5"><title>2023-09-16 1.0km</title><desc>9856514700</desc></polyline><polyline fill="none" stroke="#4dd2ff" stroke-linecap="round" stroke-linejoin="round" stroke-width=".5" points="24.627 241.5 23.797 244.02 22.719 245.73 20.48 250.05 20.397 251.04 20.48 252.21 20.977 253.38 21.807 254.64 22.553 256.35 23.88 258.6 25.539 261.75 25.705 262.92 26.286 263.37 26.949 264.27 28.027 266.07 29.189 267.06 29.437 267.69 29.603 268.5"><title>2023-09-15 1.0km</title><desc>9850671982</desc></polyline><polyline fill="none" stroke="#4dd2ff" stroke-linecap="round" stroke-linejoin="round" stroke-width=".5" points="55.686 241.5 54.314 245.131 52.769 247.366 52.083 248.576 51.053 251.183 50.796 252.114 50.796 252.859 51.053 253.79 52.083 256.583 53.027 258.445 55.343 262.448 56.287 264.217 56.459 265.241 57.145 265.893 58.26 267.662 59.204 268.5"><title>2023-09-14 1.0km</title><desc>9844236351</desc></polyline><polyline fill="none" stroke="#4dd2ff" stroke-linecap="round" stroke-linejoin="round" stroke-width=".5" points="80.709 241.5 81.203 241.902 81.388 242.304 81.512 243.175 81.882 243.912 82.129 245.989 82.129 246.994 82.005 247.53 82.129 248.2 82.438 249.004 82.314 249.674 82.376 250.009 82.993 251.148 83.549 252.823 84.043 253.761 84.66 254.632 85.34 255.235 85.525 255.637 85.71 256.508 86.204 257.379 86.76 258.986 87.501 260.393 87.871 261.599 88.056 262.604 88.427 263.408 89.106 265.619 90.032 267.361 90.094 267.629 90.032 267.83 89.291 268.5 89.662 268.232 89.847 267.83 89.97 267.495 89.909 267.026 89.538 266.557 88.427 264.145 87.871 262.336 86.698 259.723 86.142 257.178 85.834 256.441 84.66 254.9 83.487 252.689 82.932 250.88 82.746 249.674 82.252 248.401 81.265 246.257 81.018 245.252 80.153 243.644 79.968 242.773 79.906 241.701"><title>2023-09-13 1.0km</title><desc>9837636972</desc></polyline></svg>