<?xml version="1.0" encoding="utf-8" ?>
<svg baseProfile="full" height="300mm" version="1.1" viewBox="0,0,200,300" width="200mm" xmlns="http://www.w3.org/2000/svg" xmlns:ev="http://www.w3.org/2001/xml-events" xmlns:xlink="http://www.w3.org/1999/xlink"><defs /><rect fill="#222222" height="300" width="200" x="0" y="0" /><text fill="#FFFFFF" style="font-size:12px; font-family:Arial; font-weight:bold;" x="10" y="20">Over 1km Runs</text><text fill="#FFFFFF" style="font-size:4px; font-family:Arial" x="10" y="280">ATHLETE</text><text fill="#FFFFFF" style="font-size:9px; font-family:Arial" x="10" y="290">Jiakai</text><text fill="#FFFFFF" style="font-size:4px; font-family:Arial" x="120" y="280">STATISTICS</text><text fill="#FFFFFF" style="font-size:3px; font-family:Arial" x="120" y="285">Number: 111</text><text fill="#FFFFFF" style="font-size:3px; font-family:Arial" x="120" y="290">Weekly: 5.3</text><text fill="#FFFFFF" style="font-size:3px; font-family:Arial" x="141" y="285">Total: 114.7 km</text><text fill="#FFFFFF" style="font-size:3px; font-family:Arial" x="141" y="290">Avg: 1.0 km</text><text fill="#FFFFFF" style="font-size:3px; font-family:Arial" x="167" y="285">Min: 1.0 km</text><text fill="#FFFFFF" style="font-size:3px; font-family:Arial" x="167" y="290">Max: 1.5 km</text><polyline fill="none" points="10.923076923005283,33.08015480719041 11.875,36.55455969297327 13.086538461968303,39.559442783356644 13.259615384973586,40.78017451951746 14.298076923005283,43.033830044209026 14.557692307978868,43.785047668847255 14.990384615957737,44.536264851805754 16.028846153989434,45.287481592735276 16.80769230797887,45.381383654428646 18.884615384973586,45.099677448975854 21.48076923098415,44.25455845997203 24.596153846476227,42.93992781022098 26.41346153849736,42.00090508919675 27.365384615492076,41.24968641519081 27.53846153849736,40.96797929843888 27.53846153849736,40.59236971300561" stroke="#4dd2ff" stroke-linecap="round" stroke-linejoin="round" stroke-width="0.5"><title>2024-03-17 1.0km</title><desc>10975003116</desc></polyline><polyline fill="none" points="31.115384615492076,33.030222747824155 31.46703296713531,33.6979769266909 32.521978022530675,36.65516987349838 32.9615384619683,38.75381884421222 34.10439560515806,41.90178593539167 34.28021978074685,42.95110660197679 34.89560439623892,44.191211750148796 35.42307692300528,44.85896018543281 36.03846153896302,45.335923143080436 36.74175824224949,45.43131571367849 37.79670329717919,45.43131571367849 39.46703296713531,45.04974538949318 40.43406593473628,44.66817495331634 41.752747253049165,44.47738969337661 43.950549450702965,43.61885567533318 45.97252747276798,42.66492832254153 47.554945055395365,41.61560742452275 47.73076923098415,41.32942885067314" stroke="#4dd2ff" stroke-linecap="round" stroke-linejoin="round" stroke-width="0.5"><title>2024-03-16 1.0km</title><desc>10967572329</desc></polyline><polyline fill="none" points="51.30769230751321,32.90635932527948 51.48167539248243,33.944699974614196 51.742650019936264,34.69985628302675 52.7865485297516,36.30456196377054 52.96053161472082,36.776533841271885 52.96053161472082,37.437294178060256 54.17841320950538,39.60836146213114 54.613370921462774,42.06260701478459 55.309303261805326,44.13927266432438 55.65726943174377,44.89442297711503 56.09222714416683,45.271997966687195 57.65807490888983,45.55517913622316 59.310914216097444,45.366391696734354 62.26862666103989,44.5168478761334 65.31333064800128,43.289728031726554 66.18324607331306,42.912152459146455 67.7490938375704,41.8738190617878 67.92307692300528,41.30745503655635" stroke="#4dd2ff" stroke-linecap="round" stroke-linejoin="round" stroke-width="0.5"><title>2024-03-12 1.0km</title><desc>10939588558</desc></polyline><polyline fill="none" points="81.77335635945201,31.484410436241888 80.94570833770558,31.259877055650577 79.60078030219302,31.14761035318952 78.15239626402035,31.596677114022896 76.80746822897345,32.3825436278712 76.29018821520731,33.05614317476284 75.87636420410126,33.72974242444616 75.66945219878107,35.41373924841173 75.66945219878107,37.32226673618425 75.56599619612098,41.58837837446481 75.77290820144117,44.50728999450803 76.08327620942146,45.742212461074814 77.42820424539968,46.97713392879814 79.18695629155263,47.53846153849736 81.15262034302577,47.20166499749757 82.49754837853834,46.52807169267908 83.42865240294486,45.62994682381395 84.0493884193711,43.833695500623435 84.0493884193711,38.781727322610095 83.84247641358525,36.1996037971694 84.0493884193711,34.627874295110814 83.73902041092515,33.392942836973816 83.11828439496458,32.27027700794861 81.9802683647722,31.484410436241888 79.80769230797887,30.923076923121698 78.3593082698062,31.37214374996256 77.01438023382798,32.27027700794861 76.29018821520731,33.28067629085854 75.66945219878107,34.627874295110814" stroke="#4dd2ff" stroke-linecap="round" stroke-linejoin="round" stroke-width="0.5"><title>2024-03-11 1.0km</title><desc>10935364964</desc></polyline><polyline fill="none" points="91.87096774205565,34.28725915728137 91.69230769248679,34.965782517101616 91.87096774205565,36.12896460772026 93.03225806448609,39.61850472167134 93.30024813860655,40.297025338048115 93.7468982632272,40.878614159883 94.37220843695104,42.526447761803865 95.17617866024375,43.30189815629274 95.8014888339676,43.68962318217382 98.30272952839732,44.17427930433769 99.37468982627615,43.980416877078824 100.98263027286157,43.980416877078824 103.3052109181881,43.30189815629274 106.2531017367728,42.04179103393108 107.05707196053118,41.460202725138515 108.12903225841,40.97554560541175 108.30769230751321,40.68475124798715 107.95037220884115,38.74612055916805" stroke="#4dd2ff" stroke-linecap="round" stroke-linejoin="round" stroke-width="0.5"><title>2024-03-08 1.0km</title><desc>10912839308</desc></polyline><polyline fill="none" points="111.88461538450792,33.44242229696829 112.75910931220278,35.15046562696807 116.16963562741876,44.25999187922571 116.69433198403567,44.829335135174915 118.35587044525892,45.01911616465077 121.06680161971599,44.544663538457826 123.69028340093791,43.78553897375241 127.53805668000132,41.98261634353548 128.2376518221572,41.223490271833725 128.5,40.36947290797252 128.41255060723051,39.98990945343394" stroke="#4dd2ff" stroke-linecap="round" stroke-linejoin="round" stroke-width="0.5"><title>2024-03-07 1.0km</title><desc>10906173208</desc></polyline><polyline fill="none" points="132.07692307699472,33.34955981897656 132.3434800496325,36.24196767201647 133.05429864255711,38.45947603916284 135.54216371895745,44.0514370102901 135.80872069159523,44.53350149502512 136.51953928451985,44.91915295494255 137.49691485008225,45.11197864252608 138.20773344300687,45.11197864252608 139.09625668497756,44.82274010044057 140.34018922271207,44.72632723907009 142.47264500241727,44.34067572222557 146.5598519127816,42.70165551069658 148.07034142315388,41.83393809874542 148.6923076924868,41.255459505249746 148.6923076924868,40.77339381549973" stroke="#4dd2ff" stroke-linecap="round" stroke-linejoin="round" stroke-width="0.5"><title>2024-03-06 1.0km</title><desc>10898894581</desc></polyline><polyline fill="none" points="152.26923076901585,33.37833107449114 152.35622231150046,33.66151482553687 152.70418848097324,34.79424920468591 153.57410390628502,39.136388401617296 154.09605316119269,40.080329762073234 154.9659685860388,42.534574051736854 156.09685863833874,44.0448758979328 156.4448248082772,44.70563239743933 157.05376560613513,44.988813649863005 158.35863874293864,45.0832073870115 162.09927506977692,44.80002615530975 163.92609746241942,44.0448758979328 164.79601288726553,43.57290676177945 167.31876761931926,42.72336187947076 167.9277084171772,42.06260436028242 168.53664921410382,41.87381643522531 168.88461538450792,41.4018465008121 168.44965767208487,40.080329762073234" stroke="#4dd2ff" stroke-linecap="round" stroke-linejoin="round" stroke-width="0.5"><title>2024-03-05 1.0km</title><desc>10891326638</desc></polyline><polyline fill="none" points="185.3778775969986,46.04112222621916 187.98540145996958,44.85672123823315 188.95564289740287,44.00131955003599 189.07692307699472,43.4749181047664 188.65244244830683,42.15891313715838 188.16732172947377,40.908706625632476 187.19708029204048,39.52689739695052 186.71195957344025,39.066293846582994 185.25659741740674,36.69747184345033 183.61931499186903,34.52604616608005 183.74059517122805,33.93383824866032 183.61931499186903,33.67063460423378 182.83099382393993,32.42041623534169 180.1628298710566,32.61781925178366 179.25322852330282,32.94682418246521 177.67658618744463,33.1442270828411 175.97866367199458,33.86803734488785 174.82650196528994,34.65764787211083 173.73498034803197,34.920851226488594 173.1892195395194,35.315656112739816 172.7647389108315,35.381456910283305 172.58281864132732,35.57885927357711 172.46153846150264,35.973663869546726 172.64345873100683,36.302667566691525 172.70409882091917,37.02647527423687 173.0072992700152,38.013484841329046 172.88601909042336,39.197894885146525 173.24985962943174,40.05330116424011 173.1892195395194,41.23770850850269" stroke="#4dd2ff" stroke-linecap="round" stroke-linejoin="round" stroke-width="0.5"><title>2024-03-04 1.0km</title><desc>10884866628</desc></polyline><polyline fill="none" points="10.923076923005283,51.573559488053434 11.095257074572146,52.881389156449586 11.525707453023642,54.28263373626396 11.525707453023642,54.84313113510143 11.9561578319408,55.96412519167643 12.386608210857958,57.645614422042854 13.505779194645584,60.3546757241711 15.14149063359946,62.8769000202883 16.088481466751546,63.62422477605287 17.121562375687063,63.81105589645449 19.618174571543932,63.53080920560751 23.061777600552887,62.78348439501133 24.094858509488404,62.036159144481644 25.558389796409756,61.38224918988999 27.53846153849736,60.16784409573302" stroke="#4dd2ff" stroke-linecap="round" stroke-linejoin="round" stroke-width="0.5"><title>2024-03-03 1.0km</title><desc>10877188327</desc></polyline><polyline fill="none" points="31.115384615492076,63.13739792711567 32.453536396846175,64.34741209237836 33.568662880919874,64.83141750958748 34.126226123422384,64.83141750958748 36.46799173997715,64.58941481867805 41.15152297401801,63.3794008315308 45.61202891077846,61.56437818275299 47.50774393370375,60.11235862236936 47.73076923098415,59.87035523785744 47.50774393370375,58.53933598671574 46.83866804372519,56.84530992852524 43.158750645350665,50.55319787515327" stroke="#4dd2ff" stroke-linecap="round" stroke-linejoin="round" stroke-width="0.5"><title>2024-03-02 1.0km</title><desc>10870189784</desc></polyline><polyline fill="none" points="59.56630644854158,49.38461538462434 60.057088115252554,50.556219262303784 60.25340078212321,51.30178487312514 60.351557115558535,53.00593339977786 63.49255978409201,60.46155963442288 64.17965411767364,62.485222992138006 64.17965411767364,62.80474852712359 63.688872450497,63.23078246379737 62.118371116928756,64.0828499617055 59.86077544884756,64.61539189366158 57.30871078092605,65.68047516990919 55.934522113297135,66.0 55.54189678002149,65.78698345448356 55.051115112844855,63.86983313411474" stroke="#4dd2ff" stroke-linecap="round" stroke-linejoin="round" stroke-width="0.5"><title>2024-01-19 1.0km</title><desc>10585384707</desc></polyline><polyline fill="none" points="76.80946722673252,51.47607200918719 76.9165466944687,53.21895041537937 77.13070562854409,54.03229301376268 79.16521550435573,57.63423377589788 80.12893070885912,59.84187083039433 80.66432804474607,61.70093122124672 81.62804324924946,63.55998942570295 81.73512271651998,65.30285450606607 82.37759951967746,65.88380910595879 82.69883792148903,66.0 83.1271557896398,65.88380910595879 83.02007632283494,65.41904544318095 82.37759951967746,64.37332670227624 79.27229497162625,57.28565922228154 77.34486456261948,53.3351422410924 76.48822882538661,49.38461538462434" stroke="#4dd2ff" stroke-linecap="round" stroke-linejoin="round" stroke-width="0.5"><title>2024-01-17 1.0km</title><desc>10572816563</desc></polyline><polyline fill="none" points="96.88967484422028,49.384615384507924 97.84669796936214,53.14905216090847 99.88037210935727,59.7692490919726 101.31590679613873,62.49520531948656 102.15330203110352,65.09135019488167 102.75144148385152,65.87019291333854 103.11032515531406,66.0 103.11032515531406,65.48077159712557 100.59813945321366,60.15867166768294 98.32520953146741,54.317324011353776 96.88967484422028,51.461547012324445" stroke="#4dd2ff" stroke-linecap="round" stroke-linejoin="round" stroke-width="0.5"><title>2024-01-16 1.0km</title><desc>10566280205</desc></polyline><polyline fill="none" points="116.85352086368948,49.75940028729383 118.5804795678705,53.38231675059069 119.9620465314947,58.129574907477945 121.573874656111,61.377691267756745 122.95544162020087,65.37536441918928 123.30083336075768,66.0 123.5310945212841,66.0 120.07717711245641,58.879140772507526 119.27126304991543,56.380586603307165 118.69561014836654,54.131884709815495 117.88969608629122,52.507820380385965 117.0837820242159,49.384615384507924" stroke="#4dd2ff" stroke-linecap="round" stroke-linejoin="round" stroke-width="0.5"><title>2024-01-09 1.0km</title><desc>10520988068</desc></polyline><polyline fill="none" points="137.39121963595971,50.75882628990803 137.96687266463414,53.13246069091838 139.11817872151732,55.63101963629015 141.1905296240002,62.002328317961656 142.8023581043817,65.6252186796628 143.14774992130697,66.0 143.37801113305613,65.75014579552226 143.03261931613088,64.37594701361377 142.45696628745645,63.50145630061161 140.73000720189884,59.00406838476192 139.11817872151732,55.63101963629015 137.73661145335063,49.38461538462434" stroke="#4dd2ff" stroke-linecap="round" stroke-linejoin="round" stroke-width="0.5"><title>2024-01-07 1.0km</title><desc>10508221625</desc></polyline><polyline fill="none" points="159.27253624238074,54.30770949937869 159.49938612710685,55.53848076623399 160.52021060558036,58.12309748097323 161.42761014262214,61.20001693838276 163.2424092157744,65.63077102228999 163.69610898429528,66.0 163.69610898429528,65.13846559205558 162.6752845053561,63.41539544647094 162.10815979540348,61.569246893166564 159.83966095279902,56.76925112796016 159.04568635858595,54.676940974546596 158.47856164816767,53.69232352694962 157.4577371692285,49.38461538462434" stroke="#4dd2ff" stroke-linecap="round" stroke-linejoin="round" stroke-width="0.5"><title>2024-01-06 1.0km</title><desc>10501510624</desc></polyline><polyline fill="none" points="178.5741015309468,52.405607398599386 179.43073733104393,54.49706002511084 180.0732141812332,57.16946768714115 181.14400893216953,60.65521002060268 182.3218831573613,63.211416178848594 183.07143948273733,65.07047260622494 183.49975738301873,65.7676182029536 183.92807528330013,66.0 183.82099580811337,65.18666356045287 183.28559843311086,63.90856259537395 179.75197575660422,57.16946768714115 179.10949890641496,55.194210285670124 178.89533995604143,53.33514224074315 178.1457836306654,51.3598800470354 177.61038625519723,49.38461538462434" stroke="#4dd2ff" stroke-linecap="round" stroke-linejoin="round" stroke-width="0.5"><title>2024-01-05 1.0km</title><desc>10495609202</desc></polyline><polyline fill="none" points="15.729103352408856,67.84615384612698 16.44130658218637,69.5205795908114 17.034809273667634,71.3238055256661 17.86571304081008,72.99822794646025 19.4088200381957,77.37747901922558 21.308028650004417,81.75671914569102 22.02023187931627,84.07513595756609 22.49503403250128,84.46153846150264 22.732435109093785,83.81753424089402 22.61373457033187,82.91592793504242 19.764921653084457,77.11987631814554 18.8153173471801,73.77103775483556 17.86571304081008,68.36136193817947" stroke="#4dd2ff" stroke-linecap="round" stroke-linejoin="round" stroke-width="0.5"><title>2024-01-04 1.0km</title><desc>10489071805</desc></polyline><polyline fill="none" points="37.11496300622821,70.90046495106071 38.57864500209689,74.93214701372199 40.3800997659564,78.96381929493509 41.28082714788616,82.3846244692104 42.06896360730752,84.46153846150264 42.18155453028157,84.46153846150264 42.18155453028157,83.60633889643941 41.618599916342646,81.52942383580375 40.49269068893045,78.96381929493509 39.5919633070007,76.39821079326794 38.128281311132014,73.46608194091823 37.22755392966792,70.77829261461738 36.66459931572899,69.06787896179594 37.00237208371982,67.84615384612698" stroke="#4dd2ff" stroke-linecap="round" stroke-linejoin="round" stroke-width="0.5"><title>2024-01-03 1.0km</title><desc>10482519748</desc></polyline><polyline fill="none" points="56.261847188696265,68.12078950391151 59.17246457841247,76.63447486655787 62.20963054941967,83.91227191116195 62.84237346006557,84.46153846150264 62.96892204275355,83.91227191116195 62.58927629608661,82.95105505839456 59.4255617428571,76.90910923201591 58.286624503321946,73.88812898972537 56.6414929353632,67.84615384612698" stroke="#4dd2ff" stroke-linecap="round" stroke-linejoin="round" stroke-width="0.5"><title>2024-01-01 1.0km</title><desc>10470902913</desc></polyline><polyline fill="none" points="86.83851994061843,71.91524423821829 86.63019912224263,72.25433461787179 84.44283052487299,73.83675540063996 83.50538684101775,74.85402504354715 82.88042438449338,75.98432385700289 82.46378274727613,76.54947295191232 82.15130151901394,76.66250274586491 80.79721619747579,76.66250274586491 79.54729128489271,77.11462183913682 77.88072473462671,77.00159207812976 77.04744145926088,76.66250274586491 76.5266394126229,75.87129401299171 76.21415818436071,75.19311477488372 76.10999777540565,73.61069538851734 75.7975165466778,72.93251515296288 74.54759163456038,72.93251515296288 73.50598754081875,73.27160530828405 73.40182713139802,73.38463534333277 73.81846876861528,73.61069538851734 74.02678958745673,73.38463534333277 73.2976667219773,73.38463534333277 73.08934590313584,73.15857526473701 72.88102508429438,72.36736472777557 72.77686467487365,71.0110028599156 73.2976667219773,71.12403306132182 73.71430836012587,72.02827437326778 74.6517520439811,73.04554521292448 75.3808749099262,73.04554521292448 76.00583736598492,72.59342492290307 76.5266394126229,72.70645500766113 76.63079982204363,72.48039482941385 75.69335613772273,69.76767009624746 75.48503531888127,69.65463979495689 74.33927081571892,69.54160948563367 73.19350631255656,69.65463979495689 73.92262917850167,69.65463979495689 72.88102508429438,68.52433632640168 72.77686467487365,67.84615384612698 73.08934590313584,68.29827553301584 73.40182713139802,69.76767009624746 73.71430836012587,70.4458517282037 74.02678958745673,71.91524423821829 73.40182713139802,75.75826416048221 74.13094999687746,79.2621857150225 74.75591245340183,80.27945176686626 74.86007286282256,81.9748936900869 75.7975165466778,84.46153846150264" stroke="#4dd2ff" stroke-linecap="round" stroke-linejoin="round" stroke-width="0.5"><title>2023-12-31 1.5km</title><desc>10466792666</desc></polyline><polyline fill="none" points="97.79678251035511,71.79082887328696 99.0085521293804,76.09409980627242 100.66096524707973,79.56061533093452 102.09305661544204,83.62479653395712 102.53370011318475,84.46153846150264 102.75402186252177,84.46153846150264 102.86418273625895,83.50526193762198 102.4235392389819,82.19038079865277 100.44064349774271,78.12619601015467 100.44064349774271,77.05038068909198 99.0085521293804,73.94246576365549 98.78823038097471,71.55175793205854 98.34758688276634,70.11733154568356 97.13581726327538,67.84615384612698" stroke="#4dd2ff" stroke-linecap="round" stroke-linejoin="round" stroke-width="0.5"><title>2023-12-30 1.0km</title><desc>10458865202</desc></polyline><polyline fill="none" points="121.0957805775106,67.84615384612698 119.00352758122608,68.05255734641105 117.5769914467819,68.98137272137683 116.53086494840682,70.01338908378966 116.05535290390253,71.25180771679152 115.67494326783344,76.10227017232683 116.15045531233773,80.95271586126182 116.3406601306051,81.67512123147026 116.62596735684201,82.29432553832885 118.1476059006527,83.94553568819538 119.8594492613338,84.46153846150264 121.19088298641145,84.25513737474103 122.80762393865734,83.22313148668036 123.75864802766591,82.39752622984815 124.70967211714014,79.61110490118153 124.61456970823929,77.44388448703103 124.32926248153672,75.58626432495657 124.139057663735,71.0454046871746 123.85375043703243,69.91018748190254 123.28313598316163,69.18777605460491 122.61741912038997,68.67176766472403 121.0957805775106,68.36216253961902 119.00352758122608,68.46536425559316 117.48188903741539,69.29097770992666 116.72106976620853,70.21979226521216 116.15045531233773,71.66461368498858 116.15045531233773,72.38702383695636 116.43576253950596,74.14144694327842 116.24555772170424,75.58626432495657" stroke="#4dd2ff" stroke-linecap="round" stroke-linejoin="round" stroke-width="0.5"><title>2023-12-29 1.0km</title><desc>10454615358</desc></polyline><polyline fill="none" points="138.06455966597423,69.60839925217442 139.68859866913408,75.39862138708122 142.24065995961428,83.2028028476052 143.05267946142703,84.46153846150264 143.16868224740028,84.46153846150264 143.16868224740028,83.2028028476052 141.42864045826718,77.91610316408332 140.03660702705383,74.51750189065933 139.1085847397335,72.75526153750252 137.60054852161556,67.84615384612698" stroke="#4dd2ff" stroke-linecap="round" stroke-linejoin="round" stroke-width="0.5"><title>2023-12-27 1.0km</title><desc>10441997651</desc></polyline><polyline fill="none" points="157.44484831672162,69.9860230316408 159.30089261895046,73.63638194079977 160.2289147702977,77.4126071050996 161.5049452278763,79.80421206797473 163.0129812238738,83.70629720424768 163.47699229884893,84.46153846150264 163.70899783726782,84.33566494192928 162.89697845466435,81.94406630832236 161.7369507662952,80.18183359899558 158.02486216137186,71.37064284447115 157.79285662341863,68.97902610118035 157.44484831672162,67.84615384612698" stroke="#4dd2ff" stroke-linecap="round" stroke-linejoin="round" stroke-width="0.5"><title>2023-12-17 1.0km</title><desc>10391591057</desc></polyline><polyline fill="none" points="178.07339177373797,70.77141019783448 179.36739449203014,74.16470082930755 181.52406568825245,78.37705154856667 183.4650697647594,83.99350183247589 183.89640400372446,84.46153846150264 184.00423756381497,84.34452931699343 184.00423756381497,83.87649265362415 183.4650697647594,82.3553725470556 180.55356364976615,76.62190677039325 179.25956093193963,73.11161140725017 178.28905889345333,69.13326730311383 177.5342239746824,67.84615384612698" stroke="#4dd2ff" stroke-linecap="round" stroke-linejoin="round" stroke-width="0.5"><title>2023-12-16 1.0km</title><desc>10386207035</desc></polyline><polyline fill="none" points="16.98572390433401,89.43089730420616 17.446246022358537,91.55467342236079 19.058073435910046,96.4268556641182 19.979117672424763,97.9259858513251 21.245553497225046,102.04858704609796 21.59094508551061,102.9230769231217 21.821206144988537,102.9230769231217 21.821206144988537,101.67380553297698 20.094248201698065,96.4268556641182 17.6765070813708,92.67902441020124 17.56137655256316,91.17988959432114 16.870593375060707,89.43089730420616 17.10085443407297,88.30654416664038 16.640332316048443,86.30769230774604" stroke="#4dd2ff" stroke-linecap="round" stroke-linejoin="round" stroke-width="0.5"><title>2023-12-14 1.0km</title><desc>10376526598</desc></polyline><polyline fill="none" points="42.989416733849794,87.75251617166214 42.13349517947063,87.03010442561936 40.70695925503969,86.4108940619044 39.375525725539774,86.30769230774604 38.04409219650552,86.61729754670523 36.332249087281525,87.54611285356805 35.57142992736772,88.5781291401945 35.00081555778161,90.3325550853042 35.00081555778161,94.25420514831785 35.191020347643644,95.49261868093163 35.57142992736772,97.0406340592308 35.28612274257466,98.89825025945902 35.38122513750568,99.62065589544363 35.4763275324367,100.03345894883387 36.42735148221254,101.68466994864866 37.94898980110884,102.81987638387363 38.42450177576393,102.9230769231217 39.375525725539774,102.9230769231217 40.32654967484996,102.9230769231217 42.03839278407395,102.30387357238214 42.989416733849794,101.37506803416181 43.560031103435904,100.34306115936488 43.7502358937636,98.072643362917 43.84533828869462,96.52462912304327 43.560031103435904,94.66700978076551 43.7502358937636,92.19018016546033 43.65513349836692,90.02295066602528 43.560031103435904,89.30054008914158 42.894314338918775,87.85571781918406 42.60900715412572,87.54611285356805 41.56288080988452,86.8237010013545 39.47062812047079,86.61729754670523 38.139194591436535,86.8237010013545 37.37837543152273,87.13330612634309 35.95183950755745,88.68133072694764 35.38122513750568,90.848562298459 35.57142992736772,92.29338148678653" stroke="#4dd2ff" stroke-linecap="round" stroke-linejoin="round" stroke-width="0.5"><title>2023-12-13 1.0km</title><desc>10373769329</desc></polyline><polyline fill="none" points="57.615636713802814,88.6636150109116 58.75834980048239,93.37545054464135 59.90106288716197,95.85535869607702 62.186489060521126,102.30310282495338 62.643574295099825,102.9230769231217 62.872116912622005,102.9230769231217 62.98638822091743,102.42709766270127 62.529302986338735,101.68312849919312 60.70096204755828,98.58325345080812 58.07272194838151,93.25145504111424 57.72990802209824,91.639512668713 56.472923626657575,88.91160668281373 56.24438100960106,86.30769230774604" stroke="#4dd2ff" stroke-linecap="round" stroke-linejoin="round" stroke-width="0.5"><title>2023-12-12 1.0km</title><desc>10365882163</desc></polyline><polyline fill="none" points="76.57268646452576,86.30769230774604 77.75885527348146,88.88191818085033 79.37635819520801,92.9772689435631 80.56252700416371,95.20045494439546 82.28786345385015,100.58289240172599 82.50353051023558,101.98700352758169 82.93486462254077,102.9230769231217 83.04269815050066,102.10401273192838 82.82703109458089,101.16793885477819 80.56252700416371,96.01952268823516 78.94502408243716,92.86025906808209 78.51368997059762,91.57314986921847 78.19018938625231,88.88191818085033 77.32752116164193,86.4247026653029" stroke="#4dd2ff" stroke-linecap="round" stroke-linejoin="round" stroke-width="0.5"><title>2023-12-11 1.0km</title><desc>10361067591</desc></polyline><polyline fill="none" points="100.33287736400962,95.5786161061842 102.55205979011953,102.32107317761984 102.66301891114563,102.6822754512541 103.106855396647,102.9230769231217 103.2178145176731,102.8026761917863 102.88493715412915,101.95987082354259 101.88630506210029,100.03345692518633 100.77671384904534,97.02343067235779 97.66985845332965,90.76255834568292 96.7821854823269,86.30769230774604" stroke="#4dd2ff" stroke-linecap="round" stroke-linejoin="round" stroke-width="0.5"><title>2023-12-10 1.0km</title><desc>10355395415</desc></polyline><polyline fill="none" points="117.26494456175715,87.40724495204631 119.17898968560621,90.46155403624289 120.0797168025747,94.24888950388413 121.99376192642376,99.62444760592189 122.6693072640337,102.55656287772581 123.11967082321644,102.9230769231217 123.23226171266288,102.80090558365919 123.23226171266288,102.55656287772581 123.00707993330434,101.57919169543311 120.6426712507382,96.81449894898105 120.0797168025747,95.4706087813247 119.74194413330406,93.39368547534104 119.17898968560621,91.8054482548032 118.27826256863773,90.21720951597672 118.16567167872563,88.50679686910007 117.15235367184505,86.30769230774604" stroke="#4dd2ff" stroke-linecap="round" stroke-linejoin="round" stroke-width="0.5"><title>2023-12-09 1.0km</title><desc>10350143310</desc></polyline><polyline fill="none" points="138.61340957926586,89.53158570383675 139.29903763299808,92.01149950677063 140.78456508228555,95.60736804490443 142.8414492434822,101.55913360638078 143.75561998179182,102.9230769231217 143.64134863950312,101.68312849930953 142.9557205857709,99.57521408656612 141.12737910915166,96.35133988875896 139.9846656867303,93.6234415237559 138.72768092155457,91.63951266906224 138.38486689468846,89.65558148047421 137.01361078722402,86.30769230774604" stroke="#4dd2ff" stroke-linecap="round" stroke-linejoin="round" stroke-width="0.5"><title>2023-12-08 1.0km</title><desc>10345303898</desc></polyline><polyline fill="none" points="157.89993718499318,86.30769230774604 158.1140960562043,86.88865275890566 158.54241379909217,88.3991489324253 158.75657267076895,90.49060278921388 159.1848904127255,92.23347888875287 160.68400251260027,95.95160814467818 161.64771743351594,99.3211552274879 162.61143235489726,101.4125946307322 162.82559122610837,102.9230769231217 163.03975009778515,102.80688602896407 163.25390896899626,102.57450421445537 163.25390896899626,102.22593142895494 162.71851179050282,100.83163951872848 161.0052408198826,97.92686075391248 158.9707315415144,92.00109552009962 158.43533436348662,89.56106808315963" stroke="#4dd2ff" stroke-linecap="round" stroke-linejoin="round" stroke-width="0.5"><title>2023-12-07 1.0km</title><desc>10340288256</desc></polyline><polyline fill="none" points="177.68472628388554,86.30769230774604 178.34569153096527,87.86165633960627 179.55746114999056,93.00168063363526 181.32003514189273,96.22912944376003 182.75212651025504,100.1737804004224 183.41309175733477,102.68400784488767 183.74357438087463,102.9230769231217 183.85373525461182,102.08633499557618 183.63341350620613,101.0105233124923 181.87083951430395,97.30494429008104 180.659069894813,95.51191915071104 179.99810464773327,94.1970327916788 177.79488715855405,86.66629952378571" stroke="#4dd2ff" stroke-linecap="round" stroke-linejoin="round" stroke-width="0.5"><title>2023-12-06 1.0km</title><desc>10334845031</desc></polyline><polyline fill="none" points="17.699533300939947,107.63396489131264 18.438750646542758,111.41540587018244 19.177967992145568,114.16553900146391 20.97321011684835,118.86367187567521 21.923632418736815,121.04085060069337 22.240439852233976,121.38461538462434 21.81802994105965,119.32202554424293 20.762005161028355,117.3740215220023 19.81158285960555,114.6238940518815 18.438750646542758,111.7591727769468 17.805135778617114,109.58198108663782 16.749110999517143,107.29019707487896 16.221098609268665,104.76923076924868" stroke="#4dd2ff" stroke-linecap="round" stroke-linejoin="round" stroke-width="0.5"><title>2023-12-05 1.0km</title><desc>10329306344</desc></polyline><polyline fill="none" points="36.37131300615147,106.1635354931932 37.12086905585602,107.32545515673701 38.08458397677168,110.69501735025551 40.01201381906867,115.45886888355017 40.975728740449995,118.71222265402321 41.8323642257601,120.57127894519363 42.4748408398591,121.38461538462434 42.4748408398591,120.80366082745604 39.69077551178634,114.41314660618082 38.619981155730784,110.8112090221839 37.44210736267269,108.13879841309972 36.58547187736258,104.76923076924868" stroke="#4dd2ff" stroke-linecap="round" stroke-linejoin="round" stroke-width="0.5"><title>2023-12-04 1.0km</title><desc>10324662812</desc></polyline><polyline fill="none" points="56.7295930813998,106.30296523252036 57.90746717713773,110.77634968864731 59.792065729852766,114.99410163308494 61.08772723469883,119.4674637260614 62.03002651128918,121.25680533994455 62.73675096826628,121.38461538462434 62.73675096826628,120.87337514921091 61.91223910218105,119.4674637260614 60.85215241601691,116.400016673957 59.67427832027897,114.6106700609671 58.84976645372808,112.43788955477066 57.43631753884256,107.32545412285253 56.49401826225221,104.76923076924868" stroke="#4dd2ff" stroke-linecap="round" stroke-linejoin="round" stroke-width="0.5"><title>2023-12-02 1.0km</title><desc>10313350310</desc></polyline><polyline fill="none" points="76.7916212035343,105.65035369887482 77.9516485510394,107.16084909508936 79.34368136804551,111.94407572457567 80.27170324651524,115.84617176209576 81.77973879873753,120.12587977095973 82.7077606767416,121.38461538462434 82.82376341195777,120.62937412736937 82.59175794199109,119.11889061331749 81.31572785926983,116.34966737718787 79.34368136804551,113.20281735341996 78.18365402100608,110.8112074675737 77.02362667256966,104.76923076924868" stroke="#4dd2ff" stroke-linecap="round" stroke-linejoin="round" stroke-width="0.5"><title>2023-12-01 1.0km</title><desc>10308709030</desc></polyline><polyline fill="none" points="96.9375269007869,104.76923076924868 99.23438172508031,112.66155673877802 101.53123654890805,117.3692442009924 102.80726700695232,120.83077159244567 103.19007614441216,121.38461538462434 103.31767919054255,120.96923255571164 102.80726700695232,119.5846224646084 100.8932213196531,116.95386048662476 100.38280913745984,115.56924744334538 98.46876345016062,111.83078714180738 97.57554213004187,107.53847171796951 96.68232080945745,105.04615504737012" stroke="#4dd2ff" stroke-linecap="round" stroke-linejoin="round" stroke-width="0.5"><title>2023-11-30 1.0km</title><desc>10303537703</desc></polyline><polyline fill="none" points="118.29146392736584,108.32150029705372 119.03068094747141,110.7278718292946 119.34748824127018,112.67588415788487 120.50911498628557,114.96766025107354 121.77634416287765,118.40531807253137 123.04357333900407,121.15543887077365 123.2547782016918,121.38461538462434 123.46598306437954,121.15543887077365 123.2547782016918,120.35332080582157 122.4099587504752,118.86367187567521 121.24833200592548,115.65519242186565 119.55869310395792,112.21752853505313 118.92507851542905,108.55067869834602 117.65784933883697,106.60266121383756 116.91863232012838,104.76923076924868" stroke="#4dd2ff" stroke-linecap="round" stroke-linejoin="round" stroke-width="0.5"><title>2023-11-29 1.0km</title><desc>10298007687</desc></polyline><polyline fill="none" points="137.5204339120537,106.92087287944742 138.73220299649984,110.02879534556996 138.95252464804798,112.29996569827199 140.49477621074766,116.00555262109265 141.37606281787157,119.35252709861379 142.1471885992214,120.90647719288245 142.91831438057125,121.38461538462434 143.24879685835913,121.38461538462434 143.46911851037294,121.02601175406016 143.3589576841332,120.5478734569624 142.91831438057125,119.71113109844737 141.15574116632342,115.04927293327637 139.3931679520756,110.98507798602805 139.06268547428772,109.07251214259304 138.29155969293788,106.80133728159126 137.30011225957423,104.76923076924868" stroke="#4dd2ff" stroke-linecap="round" stroke-linejoin="round" stroke-width="0.5"><title>2023-11-28 1.0km</title><desc>10292316108</desc></polyline><polyline fill="none" points="160.1867984989658,104.76923076924868 161.16210994450375,107.4150054884376 161.7472968120128,109.95494464377407 162.5275459685363,111.11908192560077 163.405326269567,112.81237083673477 164.2831065710634,115.56396106956527 165.06335572712123,116.83392401819583 165.06335572712123,117.46890507242642 164.5757000045851,117.89222561975475 163.0152016915381,118.73886634095106 162.03989024600014,119.5855065638898 161.06457879999653,120.11465645045973 159.60161163145676,120.74963605764788 157.26086416188627,121.38461538462434 156.87073958385736,121.27878551650792 156.57814614987,120.96129586466122 156.0904904268682,118.95052644331008" stroke="#4dd2ff" stroke-linecap="round" stroke-linejoin="round" stroke-width="0.5"><title>2023-11-27 1.0km</title><desc>10287544518</desc></polyline><polyline fill="none" points="179.16303911618888,108.37118212366477 179.69843633379787,109.64929192105774 180.9833896565251,116.15601668390445 182.37542242230847,119.52556005027145 183.12497852742672,120.80366082757246 183.6603757450357,121.38461538462434 183.76745518902317,121.26842449023388 183.4462168579921,120.68746989045758 183.4462168579921,119.75794208690058 182.58958130935207,117.78269368875772 181.6258663176559,114.52933800464962 180.66215132549405,112.5540830718819 180.01967466436327,108.83594944223296 178.19932412402704,105.93115145794582 177.7710063494742,104.76923076924868" stroke="#4dd2ff" stroke-linecap="round" stroke-linejoin="round" stroke-width="0.5"><title>2023-11-26 1.0km</title><desc>10281488289</desc></polyline><polyline fill="none" points="16.20534173352644,123.23076923075132 17.440210099332035,126.44666194531601 18.551591629628092,131.00250024464913 19.66297315945849,133.5484049222432 19.909946832805872,135.1563428863883 20.527381016407162,136.63028477411717 21.885736219584942,139.17618159088306 22.50317040272057,139.84615384612698 22.750144075602293,139.84615384612698 20.897841525729746,135.8263166192919 20.650867852382362,134.48636890703347 19.415999486576766,132.74443540838547 16.94626275356859,126.04467566672247 15.71139438636601,123.76675174420234" stroke="#4dd2ff" stroke-linecap="round" stroke-linejoin="round" stroke-width="0.5"><title>2023-11-25 1.0km</title><desc>10275889695</desc></polyline><polyline fill="none" points="36.203185443766415,123.38605380465742 37.061823171097785,127.26816442969721 41.06879923399538,138.13803622196428 42.07054324960336,139.69087048317306 42.49986211350188,139.84615384612698 42.64296840177849,139.38030372199137 41.21190552180633,137.51690219796728 39.49463006667793,132.39253952982835 38.34977976279333,130.0632796618156 37.634248323272914,125.56003663374577 36.77561059547588,123.23076923075132" stroke="#4dd2ff" stroke-linecap="round" stroke-linejoin="round" stroke-width="0.5"><title>2023-11-24 1.0km</title><desc>10271180196</desc></polyline><polyline fill="none" points="57.54943175567314,125.07693067810033 57.91401167213917,126.13187922281213 58.76469814311713,130.61540361738298 60.83065100340173,136.9450660358416 61.80286411382258,139.58241878484841 62.167444029822946,139.84615384612698 62.65355058480054,139.84615384612698 62.77507722377777,139.58241878484841 62.53202394628897,138.263742894982 61.19523091940209,134.4395773326978 57.67095839465037,126.79122174845543 56.45569200674072,123.23076923075132" stroke="#4dd2ff" stroke-linecap="round" stroke-linejoin="round" stroke-width="0.5"><title>2023-11-23 1.0km</title><desc>10265414399</desc></polyline><polyline fill="none" points="78.35194042744115,126.97509639698546 78.459773900453,128.6132367621176 78.89110779063776,131.1874539295677 80.61644335277379,136.10185696044937 81.15561071550474,138.4420435464708 82.01827849633992,139.84615384612698 82.66527933208272,139.84615384612698 82.55744585953653,139.14409885101486 81.37127766059712,136.10185696044937 80.40077640721574,134.5807338344166 78.99894126318395,130.25137544155587 77.38143917405978,125.80499510385562 76.95010528387502,123.23076923075132" stroke="#4dd2ff" stroke-linecap="round" stroke-linejoin="round" stroke-width="0.5"><title>2023-11-21 1.0km</title><desc>10253878272</desc></polyline><polyline fill="none" points="98.21169526409358,127.71815237402916 98.77054049400613,131.35656217753422 101.1176904598251,137.29928093310446 102.12361187394708,139.48231509933248 102.45891901198775,139.84615384612698 102.6824571043253,139.72487427294254 102.79422615002841,139.48231509933248 102.34714996628463,137.54184042743873 100.335307137575,133.17576407047454 99.55292381625623,130.87144133413676 98.32346430979669,126.14150563336443 97.65285003371537,124.92869942297693 97.20577384997159,123.23076923075132" stroke="#4dd2ff" stroke-linecap="round" stroke-linejoin="round" stroke-width="0.5"><title>2023-11-20 1.0km</title><desc>10248671423</desc></polyline><polyline fill="none" points="117.23423730302602,124.6153907738626 118.85827594809234,128.13987692201044 119.32228699000552,131.79022992693353 120.5983173539862,134.68533194845077 121.87434771750122,138.33567099831998 122.45436151977628,139.21678615466226 123.15037808194757,139.84615384612698 123.03437532158569,138.8391654288862 121.06232839543372,133.6783404960297 119.7862980319187,129.0209973253077 118.51026766747236,126.00001119740773 117.81425110530108,123.2307692306349" stroke="#4dd2ff" stroke-linecap="round" stroke-linejoin="round" stroke-width="0.5"><title>2023-11-19 1.0km</title><desc>10242265034</desc></polyline><polyline fill="none" points="137.15536499605514,138.03501069679623 137.88103924063034,135.75139105535345 138.17130893887952,135.20017179159913 138.67928090970963,134.88518922787625 141.14657334145159,134.57020657137036 142.96075895312242,134.17647812044015 143.54129834892228,133.70400378818158 143.90413547120988,133.2315292477142 144.3395400182344,131.26288308459334 144.1944051689934,130.6329155479325 144.4846748667769,130.16043965239078 144.26697259349748,126.53811752604088 144.12183774472214,126.06563982367516 144.04927031998523,124.64820546534611 143.90413547120988,123.781994656194 143.10589380236343,123.54575522290543 142.45278698205948,124.01823403709568 142.59792183083482,123.781994656194 142.743056679843,124.01823403709568 141.79968016175553,123.54575522290543 141.7271127377171,123.23076923069311 141.50941046397202,123.38826223835349 141.6545453129802,123.309515737521 141.14657334145159,123.93948758259648 141.2191407661885,123.86074112227652 142.743056679843,124.64820546534611 142.3802195575554,124.96319104044233 141.79968016175553,125.19943016098114 140.4208990971092,125.43566922936589 140.3483316723723,125.12068379315315 140.7111687946599,124.96319104044233 141.2191407661885,125.04193741967902 142.743056679843,123.54575522290543 144.84751198906451,123.62450170639204 144.62980971601792,123.46700873348163 144.3395400182344,123.38826223835349 144.12183774472214,127.16808747174218 144.1944051689934,128.27053398499265 144.41210744227283,129.60921751055866 144.55724229151383,131.8928502505296 144.55724229151383,132.68030868686037 144.3395400182344,133.4677665439085 143.90413547120988,133.940240980417 140.27576424810104,134.33396951813484 138.60671348543838,134.64895224419888 137.735904391855,135.27891741809435 136.71996044926345,136.69633770454675 136.13942105369642,138.74371925048763 135.92171878018416,139.84615384612698" stroke="#4dd2ff" stroke-linecap="round" stroke-linejoin="round" stroke-width="0.5"><title>2023-11-18 1.0km</title><desc>10236386505</desc></polyline><polyline fill="none" points="157.18633010378107,123.23076923075132 159.5925573753193,127.38463141734246 160.46754910983145,130.47035069402773 160.79567101085559,132.25057067035232 161.45191481197253,133.31870171392802 163.53002018202096,139.37143094476778 163.96751605020836,139.84615384612698 163.96751605020836,139.37143094476778 163.53002018202096,138.77802712167613 162.32690654695034,135.2175996020669 161.67066274536774,134.03078868368175 161.45191481197253,132.01320812036283 160.46754910983145,129.52089923678432 159.37380944145843,127.14726815209724 159.26443547429517,125.84176956734154" stroke="#4dd2ff" stroke-linecap="round" stroke-linejoin="round" stroke-width="0.5"><title>2023-11-17 1.0km</title><desc>10231268371</desc></polyline><polyline fill="none" points="177.80554734310135,123.76675174420234 179.41087586479262,126.04467566660605 179.78133629309013,129.12656820681877 180.8927175779827,131.53848047240172 182.62153291003779,137.9702309105778 183.73291419493034,139.84615384612698 183.60942738503218,138.77419811941218 182.7450197194703,137.0322687185835 182.12758567230776,135.2903376527829 181.1396911968477,131.1364953162847 179.16390224639326,126.98264351312537 178.54646819923073,125.10670733719599 178.1760077709332,123.23076923075132" stroke="#4dd2ff" stroke-linecap="round" stroke-linejoin="round" stroke-width="0.5"><title>2023-11-16 1.0km</title><desc>10225818993</desc></polyline><polyline fill="none" points="16.349410025402904,141.87096834601834 17.172655512578785,145.08685786882415 18.489848292432725,148.66006345814094 20.30098836310208,152.0546039021574 20.95958475302905,154.73450090317056 22.112128434702754,157.05707591376267 23.26467211637646,158.30769230774604 20.30098836310208,152.76924339146353 18.98379558417946,148.66006345814094 15.19686634466052,141.69230769225396" stroke="#4dd2ff" stroke-linecap="round" stroke-linejoin="round" stroke-width="0.5"><title>2023-11-15 1.0km</title><desc>10219684298</desc></polyline><polyline fill="none" points="36.48724885098636,143.69115955126472 37.98394551547244,145.5650810332736 38.21420654049143,147.93871194380336 39.9411642299965,152.06132617173716 40.97733884304762,155.5592940368224 42.0135134565644,158.1827652102802 42.47403550706804,158.30769230774604 42.35890499409288,156.8085665294202 40.862208330538124,154.80973010044545 40.286555767059326,153.06074629665818 39.365511666517705,151.93639861478005 39.02012012852356,150.56219488265924 37.29316243994981,147.06421673099976 36.71750987647101,144.56565649982076 36.37211833894253,141.69230769237038" stroke="#4dd2ff" stroke-linecap="round" stroke-linejoin="round" stroke-width="0.5"><title>2023-11-14 1.0km</title><desc>10213806154</desc></polyline><polyline fill="none" points="57.39620169997215,143.97994311724324 58.28387486608699,147.35118949809112 60.72497607301921,153.612057221937 61.27977180154994,155.6588741708547 62.38936325954273,157.9464900867315 62.722240697126836,158.30769230774604 62.05648582242429,157.1036845948547 60.50305778114125,153.37125505995937 60.392098635435104,152.40804605698213 59.28250717790797,149.75921837834176 57.61811999138445,146.74918172473554 56.952365116681904,144.70235364011023 56.508528533391654,141.69230769237038" stroke="#4dd2ff" stroke-linecap="round" stroke-linejoin="round" stroke-width="0.5"><title>2023-11-13 1.0km</title><desc>10208522228</desc></polyline><polyline fill="none" points="77.95164827816188,143.58042770100292 79.11167579656467,147.10491281282157 80.50370881892741,150.00002015556674 81.31572808139026,153.39861818100326 82.12774734431878,155.79022015456576 83.17177211074159,158.05594525905326 83.63578311773017,158.30769230774604 83.86778862215579,157.804198173224 82.59175835130736,155.28672527999151 81.89574184082448,152.5175008221995 79.34368130052462,150.1258942767745 77.95164827816188,148.11190722626634 77.71964277420193,145.97204338945448 75.74759599333629,141.69230769237038" stroke="#4dd2ff" stroke-linecap="round" stroke-linejoin="round" stroke-width="0.5"><title>2023-11-12 1.0km</title><desc>10202270880</desc></polyline><polyline fill="none" points="97.48603028524667,144.79220530285966 100.22854270134121,150.9919834297616 101.1427135062404,154.091863947222 102.0568843120709,156.5717642592499 102.62824106542394,157.68771821004339 103.1995978183113,158.30769230774604 103.31386916944757,157.81171304779127 102.28542701294646,154.71183936693706 100.34281405154616,151.7359552734997 98.28592973994091,147.024128053803 97.48603028524667,143.67624281928875 96.68613083008677,141.69230769237038" stroke="#4dd2ff" stroke-linecap="round" stroke-linejoin="round" stroke-width="0.5"><title>2023-11-11 1.0km</title><desc>10196068378</desc></polyline><polyline fill="none" points="118.64763844851404,144.17004932055715 120.52810535393655,149.85426841361914 122.27425319515169,154.5182308817748 123.0801675831899,157.5789502885891 123.61744384141639,158.30769230774604 123.88608197122812,158.01619553216733 123.48312477720901,156.26721397822257 121.46833880711347,151.7490044895094 119.45355283655226,147.5222830651328 116.76717154309154,143.2955526293954 116.4985334132798,141.69230769237038" stroke="#4dd2ff" stroke-linecap="round" stroke-linejoin="round" stroke-width="0.5"><title>2023-11-10 1.0km</title><desc>10191120477</desc></polyline><polyline fill="none" points="136.52730378275737,142.19965004897676 138.51440369943157,143.7216762242606 139.68328600283712,145.75104236870538 140.03395069390535,146.51205405744258 140.03395069390535,147.65357096132357 141.31972122751176,151.58545673731714 141.7872741492465,153.86848307575565 142.72237999225035,156.40517546387855 142.95615645265207,157.67352025944274 143.54059760458767,158.30769230774604 143.89126229519024,158.18085791682824 144.24192698625848,157.67352025944274 142.95615645265207,156.78567900066264 140.85216830624267,153.74164835829288 138.3975154692307,147.01939499692526 137.8130743172951,143.21433431480546 137.22863316489384,141.69230769237038" stroke="#4dd2ff" stroke-linecap="round" stroke-linejoin="round" stroke-width="0.5"><title>2023-11-09 1.0km</title><desc>10185506531</desc></polyline><polyline fill="none" points="157.33562336442992,143.0263958480209 158.56508187623695,145.45200791186653 159.0121576981619,146.66481260641012 160.4651541216299,149.81810063950252 161.02399889938533,152.00114266970195 160.91222994355485,150.66706177219748 161.13576785521582,151.51602246810216 161.58284367714077,154.79058105987497 162.5887642777525,157.82257396099158 163.03584010060877,158.30769230774604 163.5946848783642,158.06513315194752 163.81822278909385,157.7012943517184 162.5887642777525,156.60977746918797 161.69461263297126,155.15442050236743 161.13576785521582,153.57778233953286 160.35338516533375,150.90962201578077 159.23569560982287,149.33297979598865 158.00623709755018,146.66481260641012 157.67093023099005,144.7243246671278 157.78269918635488,142.29871153330896 157.55916127562523,141.69230769237038" stroke="#4dd2ff" stroke-linecap="round" stroke-linejoin="round" stroke-width="0.5"><title>2023-11-08 1.0km</title><desc>10179505859</desc></polyline><polyline fill="none" points="180.01967455400154,150.87145785067696 183.76745562953874,158.30769230774604 183.98161454778165,158.1915014135884 183.4462172514759,156.91340101207606 182.48250211775303,155.2867262790678 181.84002536162734,153.66004987212364 180.55507185030729,152.26575447642244 180.12675401335582,151.45241492753848 179.80551563529298,148.6638190106023 179.59135671658441,147.8504776081536 178.30640320526436,145.64283454837278 177.55684699025005,141.69230769237038" stroke="#4dd2ff" stroke-linecap="round" stroke-linejoin="round" stroke-width="0.5"><title>2023-11-06 1.0km</title><desc>10167691585</desc></polyline><polyline fill="none" points="17.63343655085191,164.81573379412293 18.40456267260015,166.25015807140153 21.268745408859104,172.82458648236934 22.480515028815717,176.53016169101465 22.70083677722141,176.76923076924868 22.921158526092768,176.76923076924868 22.921158526092768,176.4106271385681 22.039871530607343,174.4980731063988 21.268745408859104,173.42226047453005 21.158584534656256,172.82458648236934 20.497619287576526,172.1073774022516 18.624884421471506,168.8799326258013 16.42166693182662,163.26177273248322 15.540379935875535,160.15384615387302" stroke="#4dd2ff" stroke-linecap="round" stroke-linejoin="round" stroke-width="0.5"><title>2023-11-05 1.1km</title><desc>10161301187</desc></polyline><polyline fill="none" points="36.31622152682394,160.15384615387302 38.53540395246819,165.09031860507093 39.53403604403138,169.42476995231118 41.087463742122054,172.4347988604568 41.64225934911519,174.84281800396275 42.19705495517701,176.76923076924868 42.52993231918663,176.40802854835056 42.41897319769487,176.04682624782436 40.976504621095955,173.39800694282167 40.865545499604195,173.03680397826247 39.53403604403138,170.98998567508534 38.979240437503904,169.06356611149386 37.53677186090499,166.4147355115274 37.20389449689537,164.12710563687142 36.5381397693418,161.71907073748298" stroke="#4dd2ff" stroke-linecap="round" stroke-linejoin="round" stroke-width="0.5"><title>2023-11-04 1.0km</title><desc>10155501797</desc></polyline><polyline fill="none" points="64.0731593919918,162.67771448148414 62.81335347658023,160.99513609160203 62.03808829840273,160.46932993852533 60.48755794111639,160.15384615387302 59.03393573127687,160.25900742341764 56.9988646376878,161.2054584985599 56.126691311597824,162.04674781742506 55.35142613295466,163.6241639557993 55.157609838526696,164.88609561382327 54.866885396651924,169.09252642979845 55.060701691079885,173.50926546822302 55.25451798597351,174.14022707438562 56.223599459044635,175.71762987133116 57.386497227009386,176.55891065159813 59.3246601736173,176.76923076924868 61.0690068253316,176.03311022208072 62.716445330064744,174.0350668260362 63.20098606636748,173.0886242428096 63.87934309756383,170.03897165774833 63.87934309756383,167.62027705158107 64.36388383386657,164.46545185137074 64.26697568688542,163.3086808673106 63.20098606636748,162.04674781742506 62.3288127402775,161.4157808746677 60.29374164622277,160.46932993852533 59.22775202570483,160.46932993852533 56.90195649070665,161.2054584985599 55.83596686972305,162.15190894750413 55.157609838526696,163.41384190449025 54.963793543633074,164.255129924044 55.157609838526696,167.7254377718782 54.963793543633074,169.30284764559474" stroke="#4dd2ff" stroke-linecap="round" stroke-linejoin="round" stroke-width="0.5"><title>2023-11-03 1.0km</title><desc>10152446508</desc></polyline><polyline fill="none" points="76.36889836238697,160.15384615387302 77.27725902711973,162.12517050886527 78.05585388280451,165.6453875246225 79.35351197561249,168.17993977002334 81.29999911412597,173.24903419800103 81.68929654173553,174.09388196538202 82.33812558837235,176.34680752211716 82.72742301644757,176.76923076924868 83.2464862531051,176.76923076924868 83.2464862531051,176.48761528136674 82.33812558837235,176.0651919724187 81.94882816076279,175.07953722251114 81.04046749603003,174.2346898901742 80.39163844985887,172.40418605855666 79.4832777841948,170.99610499758273 78.44515131041408,168.88398146489635 77.27725902711973,164.51891878363676 76.49866417096928,162.68840566615108" stroke="#4dd2ff" stroke-linecap="round" stroke-linejoin="round" stroke-width="0.5"><title>2023-11-02 1.1km</title><desc>10144903556</desc></polyline><polyline fill="none" points="97.17054219916463,161.3578651966527 97.39246045751497,162.68228512175847 98.28013349324465,164.72911380801816 99.83356130542234,170.26757860393263 102.49658041261137,175.80602466966957 103.27329431846738,176.76923076924868 102.82945780130103,175.32442140765488 101.16507085924968,172.79600195749663 100.27739782352,169.54517121450044 99.16780652897432,167.97995411115699 97.83629697561264,165.0903186048381 96.72670568106696,160.15384615387302" stroke="#4dd2ff" stroke-linecap="round" stroke-linejoin="round" stroke-width="0.5"><title>2023-11-01 1.0km</title><desc>10138966680</desc></polyline><polyline fill="none" points="117.77456728275865,160.4037027648883 118.3502197614871,162.27762617566623 119.27126372698694,167.2747451683972 120.76796017028391,170.52286463335622 121.68900413578376,173.52112324396148 123.18570058001205,176.76923076924868 123.30083107529208,176.64430367131718 122.26465661404654,175.14517778262962 120.76796017028391,171.64721223211382 119.50152471801266,169.39851629023906 117.31404530070722,162.77733873622492 117.08378430875018,160.1538461537566" stroke="#4dd2ff" stroke-linecap="round" stroke-linejoin="round" stroke-width="0.5"><title>2023-10-31 1.0km</title><desc>10133123337</desc></polyline><polyline fill="none" points="137.77584382612258,162.12308553722687 138.34296807833016,165.07694026909303 138.34296807833016,166.18463444977533 139.5906414319761,168.2769436801318 142.99338694289327,175.53846719383728 143.56051119510084,176.6461544522317 143.78736089542508,176.76923076924868 141.17858933703974,171.6000176713569 140.0443408335559,168.40002061228734 138.7966674794443,165.81540313758887 136.98186987359077,160.15384615387302" stroke="#4dd2ff" stroke-linecap="round" stroke-linejoin="round" stroke-width="0.5"><title>2023-10-30 1.0km</title><desc>10127985445</desc></polyline><polyline fill="none" points="157.9577045897022,162.55871594545897 158.4614004525356,165.94738950452302 158.76361797004938,167.04050836001989 160.77840142231435,171.74091028096154 161.78579314798117,174.47369526466355 163.29688073741272,176.55060849292204 163.69983742805198,176.76923076924868 163.80057660024613,176.44129734265152 162.89392404677346,175.02025165839586 161.5843148031272,172.17815621581394 159.2673138328828,167.91500286583323 158.36066127941012,164.74495783541352 157.65548707125708,163.32390097284224 157.55474789859727,161.13765699323267 157.3532695537433,160.15384615387302" stroke="#4dd2ff" stroke-linecap="round" stroke-linejoin="round" stroke-width="0.5"><title>2023-10-28 1.0km</title><desc>10115543824</desc></polyline><polyline fill="none" points="178.61415829509497,163.6000135546783 179.52155723189935,166.55386568047106 180.542381035164,168.89232825033832 181.44977997150272,172.21540102013387 182.8108783760108,175.41539078659844 183.3780027111061,176.64615445269737 183.94512704620138,176.76923076924868 184.05855191359296,176.64615445269737 183.83170217927545,175.9076963615371 183.15115297678858,174.06154970882926 180.88265563640743,169.6307894360507 179.06785776326433,164.70770871266723 177.93360909307376,162.24616292188875 177.4799096249044,160.15384615387302" stroke="#4dd2ff" stroke-linecap="round" stroke-linejoin="round" stroke-width="0.5"><title>2023-10-27 1.0km</title><desc>10110442644</desc></polyline><polyline fill="none" points="16.97895094146952,181.1810063207522 19.118178316392004,188.3891603909433 19.90631471760571,190.5882520180894 20.694451119285077,191.9321399135515 21.59517843509093,194.49774105928373 21.93295117840171,194.98642654297873 22.60849666548893,195.23076923075132 22.721087579149753,194.86425518547185 22.60849666548893,194.37556966592092 21.48258752003312,192.90951224591117 19.793723803479224,189.97739352472126 17.767087343148887,183.99096840561833 16.41599636944011,181.79186804767232 15.740450882352889,178.61538461537566" stroke="#4dd2ff" stroke-linecap="round" stroke-linejoin="round" stroke-width="0.5"><title>2023-10-26 1.0km</title><desc>10104873905</desc></polyline><polyline fill="none" points="38.59088363638148,186.5618939413689 41.14294305117801,192.94315381965134 42.363493205513805,195.11036849941593 42.80732962489128,195.23076923075132 42.69637052062899,194.02676151786 39.70047468552366,188.8495182665065 38.036088111344725,184.6354709789157 36.59361974615604,181.62543056346476 36.038824221584946,178.61538461537566" stroke="#4dd2ff" stroke-linecap="round" stroke-linejoin="round" stroke-width="0.5"><title>2023-10-25 1.0km</title><desc>10098978222</desc></polyline><polyline fill="none" points="56.54173562396318,178.61538461537566 56.42996656987816,179.46434993017465 57.10058089531958,182.25380431639496 57.994733329396695,184.07301115756854 58.553578599821776,186.2560567187611 59.559500087983906,189.16677963989787 61.68311211792752,193.29029498714954 62.35372644336894,194.98821007506922 62.577264552004635,195.23076923075132 62.80080266064033,195.10948965733405 62.68903360608965,193.53285439207684 61.45957400975749,191.22853860177565 60.565421576146036,189.89445956773125 59.44773103343323,187.3475784161128 59.224192925263196,186.01349624374416 57.88296427484602,183.95173076400533 57.10058089531958,182.13252378895413 56.87704278668389,179.94947277090978 56.54173562396318,178.61538461537566" stroke="#4dd2ff" stroke-linecap="round" stroke-linejoin="round" stroke-width="0.5"><title>2023-10-24 1.0km</title><desc>10092835699</desc></polyline><polyline fill="none" points="78.10019950615242,181.48424012982287 79.75261189462617,187.34147108730394 80.52373767597601,188.7758917788742 81.40502428263426,192.36193797143642 82.72695419378579,194.75263103900943 83.27775832358748,195.23076923075132 82.72695419378579,194.63309646898415 81.95582841243595,192.72054215567186 79.97293354617432,190.32984609995037 79.53229024261236,189.4931016501505 79.0916469390504,186.7437954256311 77.76971702836454,184.11401990440208 76.88843042124063,181.36470458447002 76.3376262919046,178.61538461537566" stroke="#4dd2ff" stroke-linecap="round" stroke-linejoin="round" stroke-width="0.5"><title>2023-10-23 1.0km</title><desc>10087395010</desc></polyline><polyline fill="none" points="94.62053385470062,178.69507592532318 94.91429309803061,178.61538461540476 97.00732770748436,178.77476722345455 97.92532534315251,179.0138410476502 98.14564477582462,179.13337792022503 98.6230035466142,179.49198837959557 98.95348269538954,179.89044416727847 99.68788080383092,181.24519165381207 100.05507985805161,182.75931718968786 100.53243862884119,183.55622366722673 100.75275806128047,184.1937480054621 101.26683673728257,185.34925895705237 101.6340357917361,186.54461252110195 102.18483437295072,187.50089347397443 102.44187371106818,187.77980843401747 102.77235285984352,188.33763792351237 102.95595238707028,189.53298489612644 103.06611210317351,189.85174364360864 103.35987134673633,190.2900366152171 103.43331115762703,190.96739778321353 103.54347087396309,191.24631095919176 105.15914671262726,195.0713914624066 105.37946614529938,195.23076923078042 105.37946614529938,195.0315470129135 105.04898699652404,194.71279131202027 104.68178794230334,193.83621216777829 104.31458888784982,193.0791654023633 103.32315144129097,190.0111229470349" stroke="#4dd2ff" stroke-linecap="round" stroke-linejoin="round" stroke-width="0.5"><title>2023-10-22 1.5km</title><desc>10080655811</desc></polyline><polyline fill="none" points="117.54959122254513,178.61538461540476 118.13254338502884,179.03710083806072 117.0832294926513,178.86841438617557 118.71549554727972,180.97699146851664 118.87094945739955,181.48304881481454 118.7543590250425,181.90476292886888 118.21027034008875,182.1999626243487 118.05481642996892,182.4951621677901 118.09367990749888,183.0012181744387 118.40458772750571,184.22418501396896 118.7543590250425,185.10978006312507 119.14299379987642,186.45925560372416 119.84253639471717,187.68221507009002 119.95912682730705,188.14609556485084 120.38662507967092,188.90517192878178 120.65866942238063,189.24253887930536 120.69753289967775,189.45339312250144 120.96957724238746,189.7064181121823 121.16389462957159,190.12812618014868 121.43593897228129,190.92937065509614 121.70798331475817,191.47758991416777 121.66911983722821,192.57402686035493 122.174345044652,193.54395010418375 122.32979895477183,194.00782585851266 122.60184329701588,194.51387170806993 123.06820502714254,195.1042579682835 123.30138589208946,195.23076923078042 122.40752590959892,193.96565535088303 122.21320852218196,193.2909268074436 121.82457374711521,192.4475150119397 121.66911983722821,191.89929667994147 121.16389462957159,191.182394993637 120.73639637720771,189.95944299019175" stroke="#4dd2ff" stroke-linecap="round" stroke-linejoin="round" stroke-width="0.5"><title>2023-10-20 1.4km</title><desc>10069668027</desc></polyline><polyline fill="none" points="137.04125007544644,178.61538461537566 137.12038298207335,179.25940057833213 137.75344623578712,180.80503599112853 137.91171204927377,181.7495889516431 139.2174050102476,184.9267104237806 139.3361043704208,185.35604983742815 139.4152372770477,186.00005836604396 139.57350309053436,186.42939699057024 140.52309797122143,187.76034472044557 141.03746186499484,188.79075378284324 141.3539934917353,189.8211610270082 141.630958665628,190.3792975251563 141.7892244788818,191.2379680191516 141.98705674591474,191.66730279265903 142.50142063945532,192.99823858460877 142.58055354631506,193.51343872206053 143.33231616020203,195.05903640721226 143.53014842700213,195.23076923075132 143.6488477869425,195.23076923075132 143.7279806935694,195.18783602950862 143.68841424048878,195.14490282523911 142.89708517328836,194.15743825456593 142.5409870930016,192.95530521933688 141.7892244788818,191.58143586316146 141.67052511894144,191.02330051391618 141.5913922120817,190.0787625539815" stroke="#4dd2ff" stroke-linecap="round" stroke-linejoin="round" stroke-width="0.5"><title>2023-10-19 1.3km</title><desc>10064004415</desc></polyline><polyline fill="none" points="156.83028114493936,178.61538461537566 158.45925589790568,180.73650713532697 158.35065758088604,182.2684272096958 158.56785421445966,183.80034581990913 159.3280424331315,186.51065977406688 160.4140256009996,188.27825336228125 161.50000876979902,191.34207763103768 163.67197510786355,194.8772522022482 163.9977700584568,195.23076923075132 164.3235650085844,195.1129302297486 162.91178688919172,193.69886154448614 160.3054272844456,188.6317718459759 159.6538373832591,186.3928201321978 157.8076659962535,182.50410709099378" stroke="#4dd2ff" stroke-linecap="round" stroke-linejoin="round" stroke-width="0.5"><title>2023-10-18 1.0km</title><desc>10058081424</desc></polyline><polyline fill="none" points="177.8691621865146,179.6223822121974 178.79718413297087,185.03498414938804 181.23324174294248,191.45455961301923 182.85728014912456,194.85314864374232 183.55329660885036,195.23076923075132 183.90130483871326,195.23076923075132 184.13331032544374,194.7272750964621 183.32129112258554,193.72028638294432 182.27726643253118,192.0839284611866 180.88523351261392,189.06295588088688 180.3052197964862,187.300719414372 177.8691621865146,182.3916225505527 177.63715670024976,181.63637562969234 177.40515121351928,178.61538461537566" stroke="#4dd2ff" stroke-linecap="round" stroke-linejoin="round" stroke-width="0.5"><title>2023-10-17 1.0km</title><desc>10051702317</desc></polyline><polyline fill="none" points="15.520465011242777,197.46035681955982 16.69833936635405,199.50533535261638 18.465150899253786,204.1065282560885 19.40745038399473,205.89587776304688 20.467537303455174,209.2189505326096 21.763199094682932,212.54201695055235 22.23434883635491,213.4366875932319 22.823286014143378,213.69230769225396 22.941073449794203,213.56449764757417 22.823286014143378,213.1810674566077 21.52762422338128,211.26391523401253 19.760812690481544,206.91836236859672 18.465150899253786,204.2343389960006 17.40506397979334,199.24971316719893 16.816126802004874,197.0769230768783" stroke="#4dd2ff" stroke-linecap="round" stroke-linejoin="round" stroke-width="0.5"><title>2023-10-16 1.0km</title><desc>10046279660</desc></polyline><polyline fill="none" points="36.020328785292804,197.0769230768783 36.50643566250801,198.13187270751223 36.992542539257556,200.50550710828975 38.08628301182762,204.19782104424667 39.544603642076254,206.43957936833613 41.24597771093249,212.7692348068813 41.85361130721867,213.42857263062615 42.70429834164679,213.69230769225396 42.82582506118342,213.42857263062615 42.70429834164679,212.63736721302848 41.12445099186152,210.3956166349817 40.2737639574334,207.75825942656957 39.30155020393431,206.17584324022755 36.992542539257556,200.76924407016486 36.14185550482944,197.0769230768783" stroke="#4dd2ff" stroke-linecap="round" stroke-linejoin="round" stroke-width="0.5"><title>2023-10-15 1.0km</title><desc>10039610121</desc></polyline><polyline fill="none" points="56.15775268059224,198.2828835096443 56.528213244862854,202.16875058796722 57.51610808400437,204.9826491625281 58.75097663188353,206.72458419785835 59.491897760890424,209.1364914989099 61.59117429284379,212.88834095618222 62.085121711250395,213.42431881965604 62.7025559861213,213.69230769225396 63.07301654992625,213.42431881965604 63.07301654992625,213.0223354366608 60.60327945370227,211.0124171928037 58.997950341086835,208.0645330925472 58.380516067612916,205.51862935069948 56.89867380959913,202.16875058796722 56.15775268059224,199.3548476693686 56.28123953565955,197.61290558998007 56.15775268059224,197.0769230768783" stroke="#4dd2ff" stroke-linecap="round" stroke-linejoin="round" stroke-width="0.5"><title>2023-10-14 1.0km</title><desc>10033377496</desc></polyline><polyline fill="none" points="76.04036456625909,197.3406605430646 78.22784519009292,199.9780330689391 78.47089859331027,201.95605991850607 80.53685251576826,208.28573117859196 82.48127973731607,212.90110239107162 83.08891324372962,213.69230769225396 83.57502004923299,213.69230769225396 83.57502004923299,213.29670508555137 83.45349334739149,212.90110239107162 82.35975303547457,212.10989674087614 81.14448602264747,209.86814550345298 79.80769230751321,205.64837086829357 77.37715828092769,200.241770108114 77.01257817680016,198.3956100186333 76.40494466992095,197.0769230768783" stroke="#4dd2ff" stroke-linecap="round" stroke-linejoin="round" stroke-width="0.5"><title>2023-10-13 1.0km</title><desc>10028006924</desc></polyline><polyline fill="none" points="96.43490818794817,197.0769230768783 97.60379074886441,198.59894969966263 98.30512028606609,199.8673041925067 98.42200854234397,201.51616363960784 98.30512028606609,203.29185666632839 99.59089110326022,205.95539277978241 101.11043843301013,210.01410656841472 102.62998576276004,212.80446675955318 102.98065053159371,213.3118044915609 103.56509181158617,213.69230769225396 103.56509181158617,213.0581356441835 102.27932099439204,211.4092872281326 101.11043843301013,209.37993316852953 99.59089110326022,205.19438288128003 98.65578505443409,203.5455269496888 98.1882320297882,202.15033993066754" stroke="#4dd2ff" stroke-linecap="round" stroke-linejoin="round" stroke-width="0.5"><title>2023-10-12 1.0km</title><desc>10021974100</desc></polyline><polyline fill="none" points="118.24969401722774,199.43284577969462 118.70677958754823,201.91276085947175 118.5925081949681,202.9047258705832 119.62095072912052,206.25260347488802 120.42085047764704,207.74054694338702 121.22075022710487,210.4684398935642 122.36346415337175,213.19632843171712 122.59200693899766,213.4443180799717 123.16336390236393,213.69230769225396 123.04909250931814,213.19632843171712 121.79210719000548,209.97245968540665 120.42085047764704,207.61655170435552 118.5925081949681,203.4007081569871 118.13542262418196,201.78876519214828 117.90687983902171,199.43284577969462 117.22125148260966,197.0769230767619" stroke="#4dd2ff" stroke-linecap="round" stroke-linejoin="round" stroke-width="0.5"><title>2023-10-10 1.0km</title><desc>10009069592</desc></polyline><polyline fill="none" points="137.56984252342954,199.15385523904115 138.35797892464325,201.35295705182943 139.14611532585695,204.28508827555925 140.8349790428765,207.95024502975866 142.1860700165853,212.59276531415526 142.974206417799,213.69230769225396 143.1993882469833,213.3257936469745 143.31197916110978,211.9819081228925 142.52384275989607,209.66064874851145 140.8349790428765,206.7285270098364 138.92093349713832,201.35295705182943 138.35797892464325,198.90951041330118 137.45725160837173,197.0769230768783" stroke="#4dd2ff" stroke-linecap="round" stroke-linejoin="round" stroke-width="0.5"><title>2023-10-09 1.0km</title><desc>10003389142</desc></polyline><polyline fill="none" points="157.1939582345076,197.0769230768783 158.0248618805781,198.10733910929412 158.8557655257173,200.03936753596645 159.3305676090531,203.9034179978771 161.11107542086393,207.7674599372549 162.65418219100684,212.14669716614299 163.3663853155449,213.4347060326254 163.95988791948184,213.69230769225396 163.95988791948184,212.66190082661342 161.70457802480087,209.05547202320304 158.73706500511616,201.8425921451999 157.55005979677662,197.20572511432692" stroke="#4dd2ff" stroke-linecap="round" stroke-linejoin="round" stroke-width="0.5"><title>2023-10-08 1.0km</title><desc>9996447828</desc></polyline><polyline fill="none" points="178.63643763121217,200.40001368138473 179.1833076667972,202.41760106780566 180.82391777262092,206.80881195748225 181.37078780820593,208.7077102640178 183.1207719212398,213.09890404343605 183.6676419568248,213.69230769225396 183.77701596403494,213.21758479077835 183.77701596403494,212.74286174983718 181.69890982983634,209.06375344784465 180.71454376587644,206.92749316687696 178.96455965237692,201.70551168976817 178.4176896167919,198.97583283111453 177.7614455744624,197.0769230768783" stroke="#4dd2ff" stroke-linecap="round" stroke-linejoin="round" stroke-width="0.5"><title>2023-10-07 1.0km</title><desc>9989974159</desc></polyline><polyline fill="none" points="17.873290669173002,220.48774305230472 18.742076948285103,223.31589705555234 19.39366665808484,224.7299721862655 20.696846077684313,230.26842110219877 21.02264093235135,231.32897296652663 21.674230642151088,232.15384615387302 22.21722206659615,232.15384615387302 22.434418636374176,231.6824900987558 22.325820351950824,231.32897296652663 21.02264093235135,229.44354694429785 19.71946151321754,226.615403752774 19.285068373195827,224.7299721862655 17.00450438959524,219.19150413316675 16.678709534928203,217.18822374101728 16.027119825128466,215.53846153849736" stroke="#4dd2ff" stroke-linecap="round" stroke-linejoin="round" stroke-width="0.5"><title>2023-10-06 1.0km</title><desc>9984428862</desc></polyline><polyline fill="none" points="35.846005567815155,215.53846153849736 37.728674702346325,220.5775693388423 38.98378745885566,224.79951396933757 41.1174791441299,230.11097903118934 41.99605807336047,231.8814640014898 42.372591900173575,232.15384615387302 42.874637003056705,232.15384615387302 43.00014827819541,231.8814640014898 42.62361445138231,231.2005084437551 41.1174791441299,229.0214489782229 40.23890021489933,227.25096127483994 38.73276490718126,223.30140568583738 38.10520852962509,221.25852880103048 36.348050670698285,217.9899210992735 36.348050670698285,216.7641917244764" stroke="#4dd2ff" stroke-linecap="round" stroke-linejoin="round" stroke-width="0.5"><title>2023-10-04 1.0km</title><desc>9971682885</desc></polyline><polyline fill="none" points="57.10058108065277,217.47895304427948 57.65942631056532,219.41944226750638 58.21827154001221,220.753527284367 58.66534772468731,222.81529291556217 60.78895959816873,227.0600963954348 60.900728644803166,228.51545507414266 61.57134292088449,231.42616857995745 61.794881012290716,231.79000740707852 62.46549528837204,232.15384615387302 62.46549528837204,230.9410500191152 61.01249769097194,228.27289538364857 60.006576276849955,225.96857654396445 59.447731046471745,224.8770559700206 58.888885816093534,223.30041386617813 57.7711953567341,220.99608808080666 57.32411917252466,219.17688123940025 57.10058108065277,217.35767239215784 56.76527394261211,215.53846153849736" stroke="#4dd2ff" stroke-linecap="round" stroke-linejoin="round" stroke-width="0.5"><title>2023-10-03 1.0km</title><desc>9965060084</desc></polyline><polyline fill="none" points="76.77052789926529,216.2250506071141 78.28911010315642,221.16848445194773 78.54220713768154,223.36556196119636 79.42804675642401,224.4640997464303 80.06078934203833,226.11190521297976 81.19972599484026,230.36872927378863 82.08556561404839,231.74189625587314 82.71830819873139,232.15384615387302 82.84485671622679,232.0165295312181 82.46521116513759,230.91799618757796 81.07317747781053,228.30897690728307 78.79530417127535,222.81629282596987 77.40327048394829,218.69676916487515 77.15017345035449,215.53846153838094" stroke="#4dd2ff" stroke-linecap="round" stroke-linejoin="round" stroke-width="0.5"><title>2023-10-02 1.0km</title><desc>9958643020</desc></polyline><polyline fill="none" points="97.3662726515904,218.46278030285612 97.61127054411918,219.659091161564 100.30624736659229,226.03940237127244 101.65373577736318,230.16000806179363 102.38872945634648,231.62215621070936 103.12372313439846,232.15384615387302 103.24622208159417,232.02092368272133 103.12372313439846,231.48923370067496 100.67374420538545,227.7673994495999 98.34626422310248,222.05171050364152 97.24377370486036,218.5957037707558 96.75377791887149,215.53846153849736" stroke="#4dd2ff" stroke-linecap="round" stroke-linejoin="round" stroke-width="0.5"><title>2023-10-01 1.0km</title><desc>9952075403</desc></polyline><polyline fill="none" points="117.80668605864048,217.94649873953313 118.80531837046146,219.99332757631782 119.24915495328605,222.04015385510866 119.58203239040449,223.96657625108492 121.24641957739368,228.66222134779673 122.68888847250491,231.6722431749804 123.3546433467418,232.15384615387302 123.57656163861975,231.79264393285848 121.35737872356549,228.4214193628868 120.35874641127884,226.1337987377774 120.0258689741604,224.92978659912478 118.47244093334302,221.5585479020374 117.58476776676252,217.82609696337022 116.80805374635383,215.53846153849736" stroke="#4dd2ff" stroke-linecap="round" stroke-linejoin="round" stroke-width="0.5"><title>2023-09-30 1.0km</title><desc>9945549317</desc></polyline><polyline fill="none" points="137.81213902169839,215.53846153849736 138.91462889174,217.39939220866654 139.28212551493198,218.86155067721847 140.26211650995538,221.25417107495014 140.75211200816557,224.8430957349483 141.11960863135755,225.90647945110686 142.58959512412548,229.49539487622678 142.95709174731746,231.75507871143054 143.20208949642256,232.02092368283775 143.56958611961454,232.15384615387302 143.6920849941671,231.88800120190717 141.48710525454953,227.90032223367598 140.0171187617816,224.4443266800372 139.52712326403707,222.45048008637968 137.81213902169839,218.46278030332178 137.07714577531442,216.07015621114988" stroke="#4dd2ff" stroke-linecap="round" stroke-linejoin="round" stroke-width="0.5"><title>2023-09-28 1.0km</title><desc>9933629332</desc></polyline><polyline fill="none" points="157.32884387578815,217.42658154689707 158.25686650490388,220.69931796286255 159.99690893338993,223.09092907968443 161.15693721920252,227.3706458983943 162.78097681934014,230.26574238634203 163.24498813413084,231.90209910506383 163.7089994479902,232.15384615387302 163.9410051056184,231.7762255667476 163.7089994479902,231.27273132128175 162.78097681934014,230.01399505964946 160.11291176173836,224.6014185900567 158.72087781876326,220.82519231527112 157.21284104743972,215.53846153849736" stroke="#4dd2ff" stroke-linecap="round" stroke-linejoin="round" stroke-width="0.5"><title>2023-09-27 1.0km</title><desc>9927137811</desc></polyline><polyline fill="none" points="182.14952741540037,215.53846153846825 181.81825622031465,217.13611675947323 181.48698502546176,218.05476638360415 181.22932965145446,219.17312035083887 179.72020531794988,222.32846377426176 178.94723919639364,223.64651319480618 178.80000755400397,224.20568470994476 178.8736233750824,224.64503335391055 179.05766292801127,225.28408529242733 179.60978158633225,226.6420681659074 179.79382113926113,227.00153365236474 180.01466860272922,227.64058281879988 180.75082681397907,228.55921467856388 181.0820980090648,229.27814287639922 181.45017711492255,229.83730859484058 181.74464039923623,230.63611576557742 182.1863353261724,231.23522037276416 182.73845398472622,232.15384615384392" stroke="#4dd2ff" stroke-linecap="round" stroke-linejoin="round" stroke-width="0.5"><title>2023-09-26 1.0km</title><desc>9920397094</desc></polyline><polyline fill="none" points="19.153173873666674,234.0 18.428950540721416,236.4137438639882 17.70472720800899,237.7048130306066 17.032234112732112,238.54681348474696 16.670122446492314,239.22041317936964 16.51493173232302,239.8940122796339 16.56666197022423,240.73601031920407 16.82531316089444,241.40960808232194 17.446076017571613,242.3638705626945 17.70472720800899,243.31813185027568 18.22202958841808,244.55305645178305 19.204904111567885,245.78797905595275 20.860271729528904,249.1559396419907 21.94660672917962,250.61538461537566" stroke="#4dd2ff" stroke-linecap="round" stroke-linejoin="round" stroke-width="0.5"><title>2023-09-25 1.0km</title><desc>9914573673</desc></polyline><polyline fill="none" points="40.64804513240233,234.0 40.23972239601426,234.62031592498533 40.15805784869008,234.93047364801168 40.23972239601426,235.3292476288043 40.28055466967635,235.72802134556696 39.46390919666737,237.23449744976824 39.25974782835692,238.25358209054684 38.97392191295512,239.00681745645124 37.25896641961299,242.01974950480508 37.21813414618373,242.3742111081956 37.38146324036643,243.08313368982635 37.83061825064942,243.79205543739954 38.075611892621964,244.41236128244782 38.443102355347946,245.03266648889985 38.6472637236584,245.65297105681384 39.17808328103274,246.49481194932014 39.58640601742081,247.33665166579885 40.03556102793664,247.82403201673878 40.15805784869008,248.26710472104605 40.44388376409188,248.62156264984515 41.056367869023234,249.68493518570904 41.505522879073396,250.1723136375076 41.62801970005967,250.61538461537566" stroke="#4dd2ff" stroke-linecap="round" stroke-linejoin="round" stroke-width="0.5"><title>2023-09-24 1.0km</title><desc>9907510217</desc></polyline><polyline fill="none" points="60.23480747197755,233.9999999999418 59.887930672382936,234.53772062325152 59.64016152964905,235.07544085104018 59.49150004424155,235.7744765561656 59.44194621546194,236.68859916221118 58.599531130399555,237.81780786294257 58.10399284539744,239.10832995706005 57.658008388476446,239.753590150096 57.36068541719578,240.61393618868897 57.311131588416174,241.52805274550337 58.3517619878985,244.16285289893858 58.74819261603989,244.96942247683182 60.03659215802327,247.01272809290094 60.58168427180499,248.35700499021914 61.27543787122704,249.21734090772225 61.67186849960126,249.91636309557362 61.91963764233515,250.61538461537566" stroke="#4dd2ff" stroke-linecap="round" stroke-linejoin="round" stroke-width="0.5"><title>2023-09-23 1.0km</title><desc>9901004991</desc></polyline><polyline fill="none" points="80.44569820188917,234.0 80.11488033086061,234.61539167410228 79.78406245983206,235.6923257969902 79.02790732588619,237.28208265354624 78.27175219217315,238.359012658766 77.61011644988321,240.153892305505 77.56285675405525,241.1282536078943 77.657376145944,241.69235689786728 78.60257006320171,243.9487654948025 78.7443491506856,244.61543027422158 78.93338793423027,244.97440335305873 79.59502367628738,245.794912553858 80.11488033086061,246.82054769725073 80.5402175935451,247.89746297494275 81.249113031663,248.9230950268102 82.052527861204,250.61538461537566" stroke="#4dd2ff" stroke-linecap="round" stroke-linejoin="round" stroke-width="0.5"><title>2023-09-22 1.0km</title><desc>9895405405</desc></polyline><polyline fill="none" points="100.8807859593071,233.9999999999418 100.74528042715974,234.49013526795898 100.47426936286502,234.78421625576448 99.88707872340456,235.8625121008954 99.66123616974801,236.64672616537428 98.98370850877836,238.3621912150411 98.26101233740337,239.83258631528588 97.80932723009028,240.9108739941148 97.67382169771008,241.45001717936248 97.67382169771008,241.79310807026923 97.80932723009028,242.28323760803323 98.080338294385,242.77336678549182 98.66752893407829,244.29276494536316 99.25471957330592,245.37104540946893 99.57089914823882,246.15524828789057 100.15808978769928,247.13550058868714 100.5194378735032,247.57661365385866 100.79044893779792,248.36081393773202 101.51314510940574,249.63513743143994 102.32617830252275,250.61538461537566" stroke="#4dd2ff" stroke-linecap="round" stroke-linejoin="round" stroke-width="0.5"><title>2023-09-21 1.0km</title><desc>9889267953</desc></polyline><polyline fill="none" points="121.88396044203546,233.9999999999709 121.29100999364164,235.77889369355398 120.94221561239101,237.17929504218046 120.3841446019942,238.35260134682176 119.72143527737353,240.3207220454933 118.57041381858289,242.4780764738971 118.25649887544569,243.65137070047786 118.29137831344269,243.9163077363337 118.50065494223963,244.48402949693264 118.95408763829619,245.46807906538015 119.23312314331997,246.30073492325027 119.93071190617047,247.2847810187959 120.34926516399719,248.07958610742935 120.59342123079114,248.6473032765207 120.87245673593134,249.13932431660942 121.32588943187147,249.4799539919768 121.88396044203546,250.31260336071136 121.91883988038171,250.4639940102934 122.12811650917865,250.61538461537566" stroke="#4dd2ff" stroke-linecap="round" stroke-linejoin="round" stroke-width="0.5"><title>2023-09-20 1.0km</title><desc>9882714971</desc></polyline><polyline fill="none" points="141.76231048628688,234.0 141.4080460316036,234.89698662635055 140.73887983942404,236.86180963431252 140.69951712200418,237.50251135221333 140.463340818882,237.84421864614706 140.1878017988056,238.48491928045405 140.03035092982464,239.08290590165416 139.71544919232838,239.89445818852982 138.8101066967938,241.34670681966236 138.57393039367162,242.20096902438672 138.49520495929755,242.96980393462582 138.57393039367162,243.73863782719127 138.8101066967938,244.5928965145431 139.08564571710303,245.1908768483263 139.95162549545057,246.68582498969045 140.38461538450792,247.2838031690335 140.77824255637825,248.3516198156285 141.1718697284814,249.0350214393693 141.56549690035172,249.5902846667741 141.99848678940907,250.01740986519144 142.27402580995113,250.61538461537566" stroke="#4dd2ff" stroke-linecap="round" stroke-linejoin="round" stroke-width="0.5"><title>2023-09-19 1.0km</title><desc>9876194288</desc></polyline><polyline fill="none" points="160.454621497076,234.0 160.16109770559706,234.47776400251314 159.67189138685353,235.4332910592202 159.52512949099764,236.07030839426443 158.64455811679363,237.60976463358384 157.95966927008703,239.04304852633504 157.81290737446398,239.57389369048178 157.86182800657116,240.1578229200095 158.15535179781727,240.90100489306496 158.59563748491928,241.697270443663 158.98700254014693,242.8120407392271 159.52512949099764,243.97989348851843 160.1121770737227,245.04157616681186 160.65030402480625,245.73166907054838 161.28627223940566,246.79334917292 161.67763729440048,248.0142793606501 162.3625261413399,249.07595610670978 162.70497056446038,250.03146384336287 163.34093877929263,250.61538461537566" stroke="#4dd2ff" stroke-linecap="round" stroke-linejoin="round" stroke-width="0.5"><title>2023-09-18 1.0km</title><desc>9870505463</desc></polyline><polyline fill="none" points="180.93618560093455,233.9999999999418 180.6976786982268,234.46585724852048 180.36376903462224,236.0187125171069 179.93445661012083,236.74337713688146 179.7436510878615,237.31275595759507 178.69422071636654,239.02088965685107 178.31260967208073,239.95259720046306 178.07410276937298,240.780780648347 178.26490829139948,241.35015620366903 179.31433866289444,243.6276538198581 179.83905384899117,244.45583294454264 180.22066489304416,245.33577219687868 180.8407828398049,246.16394931217656 181.1746925036423,246.73332051368197 181.60400492837653,248.07910515979165 183.46435876889154,250.61538461537566" stroke="#4dd2ff" stroke-linecap="round" stroke-linejoin="round" stroke-width="0.5"><title>2023-09-16 1.0km</title><desc>9856514700</desc></polyline><polyline fill="none" points="19.00108682177961,252.46153846156085 18.490681468509138,254.0123231993639 17.827154509024695,255.0646395960357 16.449060055194423,257.7231165759149 16.398019519634545,258.3323495624936 16.449060055194423,259.05235154746333 16.755303267156705,259.7723528443603 17.265708620427176,260.54773808672326 17.7250734383706,261.60004535334883 18.541722003603354,262.9846579381265 19.562532710609958,264.9231112812995 19.66461378103122,265.6431069668615 20.02189752832055,265.92002820112975 20.43022181116976,266.4738703642506 21.09374877042137,267.5815534690628 21.80831626500003,268.1907784824143 21.96143787098117,268.5784668707638 22.063518941635266,269.0769230769365" stroke="#4dd2ff" stroke-linecap="round" stroke-linejoin="round" stroke-width="0.5"><title>2023-09-15 1.0km</title><desc>9850671982</desc></polyline><polyline fill="none" points="39.84548082551919,252.46153846156085 39.00067302072421,254.69604183908086 38.05026424024254,256.07111765566515 37.627860337961465,256.8159493765561 36.99425448430702,258.4201998957433 36.83585302089341,258.9931457093335 36.83585302089341,259.45150205661776 36.99425448430702,260.02444711193675 37.627860337961465,261.74327975022607 38.20866570365615,262.88916606944986 39.63427887437865,265.35281595005654 40.21508424007334,266.4414029510808 40.32068521552719,267.07163683557883 40.7430891180411,267.47269449656596 41.42949545942247,268.5612785362173 42.010300825117156,269.0769230769365" stroke="#4dd2ff" stroke-linecap="round" stroke-linejoin="round" stroke-width="0.5"><title>2023-09-14 1.0km</title><desc>9844236351</desc></polyline><polyline fill="none" points="56.974689309252426,252.46153846156085 57.278654236579314,252.70891752530588 57.39264108426869,252.95629647988244 57.468632316216826,253.49228384031449 57.69660601159558,253.94581120679504 57.84858847525902,255.22393181131338 57.84858847525902,255.842376219196 57.772597243543714,256.172212957812 57.84858847525902,256.5845086083573 58.03856655489653,257.0792629888165 57.96257532318123,257.4915579723893 58.000570938922465,257.697705350467 58.38052709796466,258.39860586920986 58.722487641265616,259.42934033475467 59.026452568592504,260.0065508079133 59.4064087276347,260.5425314294989 59.82436050265096,260.91359463660046 59.93834735034034,261.16096997165005 60.05233419802971,261.69694948990946 60.35629912558943,262.23292849585414 60.698259668657556,263.2224268533173 61.15420705941506,264.0882364838908 61.38218075502664,264.8303579604544 61.496167602716014,265.4487917739316 61.724141298327595,265.9435383338423 62.14209307311103,267.3040891227138 62.712027312023565,268.3760359044245 62.750022927997634,268.5409506120195 62.712027312023565,268.66463661094895 62.25607992103323,269.0769230769365 62.484053616411984,268.9120085268805 62.59804046410136,268.66463661094895 62.6740316960495,268.4584932643047 62.63603608030826,268.1698924516677 62.40806238469668,267.8812914904847 61.724141298327595,266.3970556301356 61.38218075502664,265.2838761570165 60.66026405268349,263.6759463502676 60.31830350961536,262.1092410784331 60.12832542997785,261.65572031444754 59.4064087276347,260.70744844074943 58.68449202529155,259.3468816472159 58.34253148199059,258.233688178967 58.228544634534046,257.4915579723893 57.92457970697433,256.7081972444139 57.31664985255338,255.38885038677836 57.16466738888994,254.7704054786882 56.6327287661843,253.7808922068798 56.518741918262094,253.24490512229386 56.480746302520856,252.58522800708306" stroke="#4dd2ff" stroke-linecap="round" stroke-linejoin="round" stroke-width="0.5"><title>2023-09-13 1.0km</title><desc>9837636972</desc></polyline></svg>