<?xml version="1.0" encoding="utf-8" ?>
<svg baseProfile="full" height="300mm" version="1.1" viewBox="0,0,200,300" width="200mm" xmlns="http://www.w3.org/2000/svg" xmlns:ev="http://www.w3.org/2001/xml-events" xmlns:xlink="http://www.w3.org/1999/xlink"><defs /><rect fill="#222222" height="300" width="200" x="0" y="0" /><text fill="#FFFFFF" style="font-size:12px; font-family:Arial; font-weight:bold;" x="10" y="20">Over 1km Runs</text><text fill="#FFFFFF" style="font-size:4px; font-family:Arial" x="10" y="280">ATHLETE</text><text fill="#FFFFFF" style="font-size:9px; font-family:Arial" x="10" y="290">Jiakai</text><text fill="#FFFFFF" style="font-size:4px; font-family:Arial" x="120" y="280">STATISTICS</text><text fill="#FFFFFF" style="font-size:3px; font-family:Arial" x="120" y="285">Number: 71</text><text fill="#FFFFFF" style="font-size:3px; font-family:Arial" x="120" y="290">Weekly: 5.9</text><text fill="#FFFFFF" style="font-size:3px; font-family:Arial" x="141" y="285">Total: 73.4 km</text><text fill="#FFFFFF" style="font-size:3px; font-family:Arial" x="141" y="290">Avg: 1.0 km</text><text fill="#FFFFFF" style="font-size:3px; font-family:Arial" x="167" y="285">Min: 1.0 km</text><text fill="#FFFFFF" style="font-size:3px; font-family:Arial" x="167" y="290">Max: 1.5 km</text><polyline fill="none" points="17.517610910348594,31.125 20.316902726888657,40.74377227539662 23.11619454342872,46.48126636992674 24.671356664039195,50.700002878322266 25.137905300594866,51.375 25.29342151246965,50.86875217733905 24.671356664039195,49.18125862872694 22.33861348312348,45.97501746809576 21.71654863562435,44.287520321668126 19.383805454708636,39.731271829106845 18.295191970653832,34.50001240626443 17.206578486599028,31.46250146406237" stroke="#4dd2ff" stroke-linecap="round" stroke-linejoin="round" stroke-width="0.5"><title>2023-11-30 1.0km</title><desc>10303537703</desc></polyline><polyline fill="none" points="41.43334666127339,35.45432848704513 42.33426740439609,38.38709379185457 42.720376294106245,40.76123381732032 44.13610888971016,43.55433593096677 45.68054444855079,47.743981400853954 47.22498000692576,51.09569112374447 47.4823859333992,51.375 47.73979185940698,51.09569112374447 47.4823859333992,50.11810973205138 46.452762227505445,48.30260009842459 45.03702963190153,44.3922657641815 42.977782220579684,40.2026129020378 42.205564440693706,35.733639663551 40.661128881853074,33.35949335433543 39.76020814012736,31.125" stroke="#4dd2ff" stroke-linecap="round" stroke-linejoin="round" stroke-width="0.5"><title>2023-11-29 1.0km</title><desc>10298007687</desc></polyline><polyline fill="none" points="62.75927883014083,33.747313821921125 64.23612240189686,37.53509432740975 64.50463941460475,40.30308319476899 66.38425850635394,44.81926725700032 67.45832655904815,48.89839240151923 68.39813610492274,50.792269078898244 69.33794565079734,51.375 69.7407211707905,51.375 70.00923818396404,50.93795182532631 69.87497967714444,50.35522077570204 69.33794565079734,49.33544102625456 67.1898095458746,43.65380138740875 65.04167344141752,38.700563795515336 64.63889792142436,36.36962417385075 63.6990883750841,33.60162981192116 62.490761816035956,31.125" stroke="#4dd2ff" stroke-linecap="round" stroke-linejoin="round" stroke-width="0.5"><title>2023-11-28 1.0km</title><desc>10292316108</desc></polyline><polyline fill="none" points="88.27453567041084,31.125 89.46319649508223,34.34953793894965 90.1763929896988,37.445088784676045 91.12732164887711,38.863881096825935 92.19711639126763,40.9275769572705 93.26691113319248,44.28107755351812 94.2178397923708,45.828844897216186 94.2178397923708,46.602728057070635 93.62350938050076,47.118649974116124 91.72165206121281,48.150493353023194 90.53299123700708,49.18233612482436 89.34433041280136,49.827237549005076 87.56133917579427,50.601118945283815 84.708553197328,51.375 84.23308886773884,51.246019848273136 83.87649062043056,50.8590793350013 83.2821602076292,48.408454102813266" stroke="#4dd2ff" stroke-linecap="round" stroke-linejoin="round" stroke-width="0.5"><title>2023-11-27 1.0km</title><desc>10287544518</desc></polyline><polyline fill="none" points="109.29245392326266,35.51487821305636 109.94496928201988,37.0725745287491 111.51100614434108,45.00264533329755 113.20754607766867,49.10927631123923 114.12106758076698,50.666961633600295 114.7735829395242,51.375 114.90408601192757,51.23339234746527 114.51257679611444,50.5253539289115 114.51257679611444,49.392491918290034 113.46855222107843,46.98515793308616 112.29402457503602,43.0201306930976 111.11949692852795,40.612788743688725 110.33647849736735,36.08131338271778 108.11792627628893,32.54109083930962 107.59591398853809,31.125" stroke="#4dd2ff" stroke-linecap="round" stroke-linejoin="round" stroke-width="0.5"><title>2023-11-26 1.0km</title><desc>10281488289</desc></polyline><polyline fill="none" points="130.06276023760438,31.125 131.56775605864823,35.04436924576294 132.92225229833275,40.59679717326071 134.27674853801727,43.69961849891115 134.57774770259857,45.65929289266933 135.33024561405182,47.4556595684262 136.98574101738632,50.55847131391056 137.73823892790824,51.375 138.03923809248954,51.375 135.78174435999244,46.4758233797038 135.48074519541115,44.84276210551616 133.9757493743673,42.719780653947964 130.96575773041695,34.554448468843475 129.46076190844178,31.778228688170202" stroke="#4dd2ff" stroke-linecap="round" stroke-linejoin="round" stroke-width="0.5"><title>2023-11-25 1.0km</title><desc>10275889695</desc></polyline><polyline fill="none" points="152.325757259503,31.314253074349836 153.37222198955715,36.04557539871894 158.2557240659371,49.29323164559901 159.47659958526492,51.185748401330784 159.999831950292,51.375 160.17424273956567,50.80724516115151 158.43013485427946,48.536224553827196 156.33720539323986,42.290907552000135 154.94191908556968,39.45212208782323 154.0698651438579,33.963794647250324 153.02340041287243,31.125" stroke="#4dd2ff" stroke-linecap="round" stroke-linejoin="round" stroke-width="0.5"><title>2023-11-24 1.0km</title><desc>10271180196</desc></polyline><polyline fill="none" points="176.2321199523285,33.37500926386565 176.67645172588527,34.66072780278046 177.7132258620113,40.125023158616386 180.23110591061413,47.83929923118558 181.41599063854665,51.05357289395761 181.8603224111721,51.375 182.452764775604,51.375 182.60087536741048,51.05357289395761 182.30465418472886,49.446436653262936 180.67543768323958,44.785734874312766 176.38023054320365,35.464301505940966 174.89912463352084,31.125" stroke="#4dd2ff" stroke-linecap="round" stroke-linejoin="round" stroke-width="0.5"><title>2023-11-23 1.0km</title><desc>10265414399</desc></polyline><polyline fill="none" points="19.475802395958453,62.875898733967915 19.60722444113344,64.87238230393268 20.13291261997074,68.00970947672613 22.235665335785598,73.99913817050401 22.89277555933222,76.85124057240319 23.94415191700682,78.5625 24.73268418526277,78.5625 24.601262141019106,77.7068704747362 23.15561964828521,73.99913817050401 21.972821245901287,72.14526936074253 20.264334664214402,66.86886381951626 18.29300399310887,61.44983778288588 17.76731581473723,58.3125" stroke="#4dd2ff" stroke-linecap="round" stroke-linejoin="round" stroke-width="0.5"><title>2023-11-21 1.0km</title><desc>10253878272</desc></polyline><polyline fill="none" points="41.57050360320136,63.78149820584804 42.251596226822585,68.21581015386619 45.11218524770811,75.45849863707554 46.338151971343905,78.11907152715139 46.74680754588917,78.5625 47.01924459589645,78.41469052003231 47.15546312043443,78.11907152715139 46.61058902135119,75.7541180208791 44.1586555740796,70.43296246090904 43.205125900916755,67.62456912582275 41.70672212773934,61.859959990601055 40.88941097864881,60.381852421793155 40.34453687956557,58.3125" stroke="#4dd2ff" stroke-linecap="round" stroke-linejoin="round" stroke-width="0.5"><title>2023-11-20 1.0km</title><desc>10248671423</desc></polyline><polyline fill="none" points="62.64485171297565,60.00000750576146 64.62414881167933,64.29547499876935 65.18966226885095,68.74434272351209 66.74482427490875,72.2727483123308 68.29998628096655,76.72159902926069 69.00687810219824,77.79545812599827 69.85514828702435,78.5625 69.71376992342994,77.33523286657874 67.31033773208037,71.04547747969627 65.75517572602257,65.36934049031697 64.20001371949911,61.68751364690252 63.351743534207344,58.3125" stroke="#4dd2ff" stroke-linecap="round" stroke-linejoin="round" stroke-width="0.5"><title>2023-11-19 1.0km</title><desc>10242265034</desc></polyline><polyline fill="none" points="84.81435108883306,76.35516928683501 85.69876657472923,73.57200784888119 86.05253276927397,72.90020937111694 86.6716236085631,72.51632437156513 89.67863625986502,72.13243925897405 91.88967497413978,71.65258270932827 92.59720736276358,71.0767546169227 93.03941510571167,70.50092627073172 93.5700643970631,68.10163875936996 93.39318129979074,67.33386582415551 93.74694749386981,66.75803582638036 93.48162284819409,62.34333073487505 93.30473975138739,61.76749853522051 93.21629820251837,60.04000041098334 93.03941510571167,58.98430598736741 92.06655807141215,58.69638917804696 91.27058413438499,59.272222732775845 91.4474672311917,58.98430598736741 91.62435032846406,59.272222732775845 90.47461019689217,58.69638917804696 90.38616864895448,58.3125 90.1208440028131,58.50444460310973 90.29772710008547,58.40847230516374 89.67863625986502,59.1762504914077 89.76707780873403,59.08027824293822 91.62435032846406,60.04000041098334 91.18214258598164,60.423889080644585 90.47461019689217,60.71180550882127 88.7942207744345,60.99972187343519 88.7057792255655,60.61583337292541 89.14798696851358,60.423889080644585 89.76707780873403,60.51986123039387 91.62435032846406,58.69638917804696 94.1891552368179,58.79236145480536 93.92383059114218,58.60041689395439 93.5700643970631,58.50444460310973 93.30473975138739,63.11110660631675 93.39318129979074,64.45471329428256 93.6585059450008,66.08623384113889 93.83538904273883,68.86941124300938 93.83538904273883,69.82912621216383 93.5700643970631,70.78884047549218 93.03941510571167,71.36466869502328 88.61733767716214,71.84452535037417 86.58318206015974,72.22841054771561 85.52188347745687,72.99618060339708 84.28370179748163,74.72366157744545 83.57616940885782,77.21890783659182 83.3108447631821,78.5625" stroke="#4dd2ff" stroke-linecap="round" stroke-linejoin="round" stroke-width="0.5"><title>2023-11-18 1.0km</title><desc>10236386505</desc></polyline><polyline fill="none" points="107.11771481391042,58.3125 110.05030430061743,63.37501953996252 111.11670047743246,67.13573990843724 111.51659904420376,69.30538300448097 112.31639617681503,70.60716771392617 114.84908709675074,77.98393146402668 115.38228518562391,78.5625 115.38228518562391,77.98393146402668 114.84908709675074,77.26072055473924 113.38279235363007,72.92144951503724 112.58299522101879,71.47502370830625 112.31639617681503,69.016097396845 111.11670047743246,65.97859594493639 109.78370525641367,63.08573306037579 109.65040573431179,61.4946566602448" stroke="#4dd2ff" stroke-linecap="round" stroke-linejoin="round" stroke-width="0.5"><title>2023-11-17 1.0km</title><desc>10231268371</desc></polyline><polyline fill="none" points="130.1380108250305,58.96572868840303 132.09450496174395,61.741948468843475 132.54600360803306,65.49800500215497 133.90049954969436,68.43752307584509 136.00749323517084,76.2762189223431 137.36198917590082,78.5625 137.21148962620646,77.25605395808816 136.15799278393388,75.13307750085369 135.40549503918737,73.01009901450016 134.20149864722043,67.94760366680566 131.79350586421788,62.88509678165428 131.04100811854005,60.598799567320384 130.58950947131962,58.3125" stroke="#4dd2ff" stroke-linecap="round" stroke-linejoin="round" stroke-width="0.5"><title>2023-11-16 1.0km</title><desc>10225818993</desc></polyline><polyline fill="none" points="152.73834346886724,58.53024267172441 153.74167390633374,62.4496080277022 155.34700260683894,66.80445233965293 157.5543295685202,70.94154850603081 158.35699391830713,74.2076729759574 159.76165653020144,77.0383112700656 161.16631914302707,78.5625 157.5543295685202,71.81251538335346 155.9490008689463,66.80445233965293 151.33368085790426,58.3125" stroke="#4dd2ff" stroke-linecap="round" stroke-linejoin="round" stroke-width="0.5"><title>2023-11-15 1.0km</title><desc>10219684298</desc></polyline><polyline fill="none" points="175.17195953754708,60.74860070296563 176.99605859722942,63.0324425091967 177.27668922115117,65.92530518153217 179.38141890522093,70.94974127179012 180.64425671473145,75.21288960729726 181.9070945251733,78.41024510003626 182.46835577394813,78.5625 182.3280404615216,76.73544045770541 180.50394140277058,74.29935855988879 179.80236484110355,72.16778454906307 178.6798423435539,70.79748581175227 178.25889640673995,69.12267501314636 176.15416672360152,64.85951414098963 175.4525901619345,61.81439385912381 175.0316442255862,58.3125" stroke="#4dd2ff" stroke-linecap="round" stroke-linejoin="round" stroke-width="0.5"><title>2023-11-14 1.0km</title><desc>10213806154</desc></polyline><polyline fill="none" points="18.545370822306722,88.28805567405652 19.627222493756562,92.39676220074762 22.60231458954513,100.02719473920297 23.278471883852035,102.52175289578736 24.630786473397166,105.30978479317855 25.03648085007444,105.75 24.22509209671989,104.28261559992097 22.33185167144984,99.73371710430365 22.196620212867856,98.55980613187421 20.844305623788387,95.33154739858583 18.815833740402013,91.66306522698142 18.004444986581802,89.16849349881522 17.46351915039122,85.5" stroke="#4dd2ff" stroke-linecap="round" stroke-linejoin="round" stroke-width="0.5"><title>2023-11-13 1.0km</title><desc>10208522228</desc></polyline><polyline fill="none" points="41.48794633941725,87.80114626057912 42.901729877106845,92.09661249048077 44.598270122893155,95.62502456456423 45.587918599601835,99.76706590806134 46.577567075844854,102.68183081340976 47.849972260184586,105.4431832843693 48.41548567498103,105.75 48.69824238307774,105.13636652345303 47.14308049110696,102.0681964349933 46.294810368679464,98.69320412701927 43.18448658520356,95.7784336496843 41.48794633941725,93.32388693199027 41.205189631320536,90.71592788083944 38.80175761692226,85.5" stroke="#4dd2ff" stroke-linecap="round" stroke-linejoin="round" stroke-width="0.5"><title>2023-11-12 1.0km</title><desc>10202270880</desc></polyline><polyline fill="none" points="63.18609941005707,89.27800021274015 66.52853641752154,96.83397980488371 67.6426820862107,100.61195918556768 68.75682775583118,103.63433769077528 69.4531687987037,104.99440656835213 70.14950984157622,105.75 70.28877805033699,105.14552527701017 69.0353641724214,101.36755422828719 66.66780462581664,97.7406954895705 64.16097687045112,91.99815606547054 63.18609941005707,87.91792093601543 62.21122194919735,85.5" stroke="#4dd2ff" stroke-linecap="round" stroke-linejoin="round" stroke-width="0.5"><title>2023-11-11 1.0km</title><desc>10196068378</desc></polyline><polyline fill="none" points="86.8674343591556,88.5197476092726 89.15925339981914,95.447389628971 91.28737108130008,101.13159388699569 92.26957924105227,104.86184566398151 92.92438468150795,105.75 93.25178740173578,105.39473830466159 92.76068332139403,103.26316703576595 90.30516292061657,97.75659922137856 87.84964251983911,92.60528248548508 84.57561531756073,87.45395476697013 84.2482125973329,85.5" stroke="#4dd2ff" stroke-linecap="round" stroke-linejoin="round" stroke-width="0.5"><title>2023-11-10 1.0km</title><desc>10191120477</desc></polyline><polyline fill="none" points="106.5489014852792,86.11832349712495 108.97067950852215,87.9732928982703 110.39525481592864,90.44658288673963 110.82262740842998,91.37406588252634 110.82262740842998,92.76528960908763 112.38966024620458,97.55727539851796 112.95949036907405,100.33971374866087 114.09915061527863,103.43130759662017 114.38406567648053,104.9771028162213 115.09635333064944,105.75 115.52372592221946,105.59542058606166 115.9510985147208,104.9771028162213 114.38406567648053,103.89504628209397 111.81983012333512,100.18513393669855 108.82822197815403,91.99238765251357 108.11593432398513,87.35496994620189 107.40364667028189,85.5" stroke="#4dd2ff" stroke-linecap="round" stroke-linejoin="round" stroke-width="0.5"><title>2023-11-09 1.0km</title><desc>10185506531</desc></polyline><polyline fill="none" points="129.7996659753844,87.12591993960086 131.2980685364455,90.08213464240544 131.8429421945475,91.56024036393501 133.61378158535808,95.40331015421543 134.29487365856767,98.0638926285319 134.15865524392575,96.43798153463285 134.43109207367525,97.47265238279942 134.9759657313116,101.46352066658437 136.2019314635545,105.15876201470383 136.74680512258783,105.75 137.42789719533175,105.45438102865592 137.7003340246156,105.01095249096397 136.2019314635545,103.68066629045643 135.11218414641917,101.90694998705294 134.43109207367525,99.98542222601827 133.4775631702505,96.73360183159821 132.115379024297,94.81206912617199 130.61697646277025,91.56024036393501 130.2083212188445,89.19527068792377 130.34453963348642,86.23905468103476 130.0721028042026,85.5" stroke="#4dd2ff" stroke-linecap="round" stroke-linejoin="round" stroke-width="0.5"><title>2023-11-08 1.0km</title><desc>10179505859</desc></polyline><polyline fill="none" points="155.33647836279124,96.68708925554529 159.90408654883504,105.75 160.16509273042902,105.60839234781452 159.51257727574557,104.05070748343132 158.33804945647717,102.06819765258115 157.55503091029823,100.08568578166887 155.9889938174747,98.38638826808892 155.46698145428672,97.39513069286477 155.0754721807316,93.99652941920795 154.81446599867195,93.00526958494447 153.24842890631407,90.31470460584387 152.33490726957098,85.5" stroke="#4dd2ff" stroke-linecap="round" stroke-linejoin="round" stroke-width="0.5"><title>2023-11-06 1.0km</title><desc>10167691585</desc></polyline><polyline fill="none" points="176.8032507961616,91.18167556147091 177.7430607569404,92.92988014931325 181.23378346674144,100.94246477528941 182.71062769088894,105.45863456081133 182.9791448218748,105.75 183.24766195332631,105.75 183.24766195332631,105.31295182509348 182.17359342705458,102.98202659829985 181.23378346674144,101.67087995330803 181.09952490124851,100.94246477528941 180.2939735064283,100.06836620881222 178.0115778883919,96.13491788762622 175.32640657247975,89.28778551763389 174.25233804667369,85.5" stroke="#4dd2ff" stroke-linecap="round" stroke-linejoin="round" stroke-width="0.5"><title>2023-11-05 1.1km</title><desc>10161301187</desc></polyline><polyline fill="none" points="17.46351998578757,112.6875 20.16814856696874,118.70382579986472 21.38523142877966,123.98643837927375 23.278471435885876,127.65491111110896 23.95462858164683,130.58968444226775 24.63078572647646,132.9375 25.03648001421243,132.49728479317855 24.901248584501445,132.05706948938314 23.143240007106215,128.82882096152753 23.00800857739523,128.3886048485292 21.38523142877966,125.89404504140839 20.70907428301871,123.54622119839769 18.951065705623478,120.3179589046631 18.54537141835317,117.52990999480244 17.733982843812555,114.59511746116914" stroke="#4dd2ff" stroke-linecap="round" stroke-linejoin="round" stroke-width="0.5"><title>2023-11-04 1.0km</title><desc>10155501797</desc></polyline><polyline fill="none" points="49.18291300861165,115.76346452429425 47.647524549625814,113.71282211167272 46.70267011318356,113.07199586252682 44.81296124076471,112.6875 43.04135917266831,112.81566529721022 40.561116276774555,113.96915254509076 39.49815503554419,114.99447390250862 38.55330059956759,116.91694982117042 38.31708699045703,118.4549290293362 37.96276657702401,123.5815165862441 38.198980185668916,128.96441728936043 38.43519379524514,129.73340174683835 39.6162618403323,131.65586140565574 41.033543495461345,132.68117235659156 43.39567958610132,132.9375 45.5216020680964,132.04035308305174 47.529417745769024,129.60523769422434 48.1199517683126,128.45176079589874 48.94669939996675,124.73499670787714 48.94669939996675,121.78721265657805 49.537233422510326,117.94226944388356 49.419126618187875,116.53245480707847 48.1199517683126,114.99447390250862 47.056990527082235,114.22548294090666 44.57674763118848,113.07199586252682 43.27757278131321,113.07199586252682 40.443009472917765,113.96915254509076 39.14383462257683,115.12263902975246 38.31708699045703,116.6606198210502 38.080873381346464,117.68593959498685 38.31708699045703,121.91537728451658 38.080873381346464,123.83784556796309" stroke="#4dd2ff" stroke-linecap="round" stroke-linejoin="round" stroke-width="0.5"><title>2023-11-03 1.0km</title><desc>10152446508</desc></polyline><polyline fill="none" points="62.05896987952292,112.6875 63.16603443957865,115.09005155786872 64.11494691949338,119.38031604560092 65.69646772090346,122.4693015946541 68.0687489202246,128.64726042887196 68.54320516064763,129.67691864538938 69.33396556135267,132.422671667533 69.8084218017757,132.9375 70.4410301214084,132.9375 70.4410301214084,132.5942811241839 69.33396556135267,132.0794527165126 68.85950932092965,130.87818599003367 67.75244476087391,129.84852830367163 66.9616843611002,127.61760175903328 65.85461980011314,125.90150296594948 64.5894031599164,123.32735241041519 63.16603443957865,118.00743226753548 62.217121958732605,115.77649440569803" stroke="#4dd2ff" stroke-linecap="round" stroke-linejoin="round" stroke-width="0.5"><title>2023-11-02 1.1km</title><desc>10144903556</desc></polyline><polyline fill="none" points="85.3015983053483,114.1548982084496 85.57206118293107,115.76903499208856 86.65391269512475,118.26360745343845 88.54715284146369,125.01361142355017 91.79270737851039,131.76359256613068 92.73932745074853,132.9375 92.19840169558302,131.17663859052118 90.1699301097542,128.09512738557532 89.08807859802619,124.13317741767969 87.73576420778409,122.22556907287799 86.1129869390279,118.70382579963189 84.7606725487858,112.6875" stroke="#4dd2ff" stroke-linecap="round" stroke-linejoin="round" stroke-width="0.5"><title>2023-11-01 1.0km</title><desc>10138966680</desc></polyline><polyline fill="none" points="108.30337887629867,112.99201274476945 109.00495533458889,115.2758569016587 110.1274776677601,121.36609567410778 111.95157645829022,125.32474127190653 113.07409879099578,128.9788689535344 114.89819758245721,132.9375 115.038512873929,132.78524509933777 113.775675249286,130.95818542258348 111.95157645829022,126.69503990781959 110.40810825070366,123.95444172876887 107.74211771087721,115.88488158478867 107.46148712653667,112.6875" stroke="#4dd2ff" stroke-linecap="round" stroke-linejoin="round" stroke-width="0.5"><title>2023-10-31 1.0km</title><desc>10133123337</desc></polyline><polyline fill="none" points="130.57055966323242,115.08751049847342 131.2617423455231,118.6875209530117 131.2617423455231,120.03752323566005 132.78234424535185,122.58752511010971 136.92944033676758,131.43750689248554 137.62062301905826,132.78750073863193 137.89709609141573,132.9375 134.71765575464815,126.63752153690439 133.3352903914638,122.73752512130886 131.8146884907037,119.58752257388551 129.60290390858427,112.6875" stroke="#4dd2ff" stroke-linecap="round" stroke-linejoin="round" stroke-width="0.5"><title>2023-10-30 1.0km</title><desc>10127985445</desc></polyline><polyline fill="none" points="153.05782746803015,115.61843505850993 153.67170680081472,119.74838095868472 154.04003440076485,121.08061956369784 156.4955517333001,126.80923440493643 157.72331039886922,130.13981610385235 159.56494839815423,132.67105410073418 160.05605186522007,132.9375 160.1788277309388,132.53783113637473 159.0738449320197,130.80593170877546 157.4777586660348,127.34212788811419 154.65391373354942,122.14640974276699 153.54893093416467,118.28291736193933 152.68949986761436,116.55100431060418 152.56672400142998,113.88651946058962 152.32117226859555,112.6875" stroke="#4dd2ff" stroke-linecap="round" stroke-linejoin="round" stroke-width="0.5"><title>2023-10-28 1.0km</title><desc>10115543824</desc></polyline><polyline fill="none" points="176.12350542237982,116.88751651963685 177.22939787618816,120.48752379789948 178.47352688619867,123.33752505504526 179.579419340007,127.3875199931208 181.23825802095234,131.287507521105 181.92944080382586,132.787500739214 182.62062358716503,132.9375 182.75886014429852,132.787500739214 182.48238703096285,131.88750494050328 181.6529676904902,129.63751370762475 178.88823655666783,124.23752462514676 176.67645164905116,118.23751999344677 175.29408608190715,115.23751106101554 174.74113985523582,112.6875" stroke="#4dd2ff" stroke-linecap="round" stroke-linejoin="round" stroke-width="0.5"><title>2023-10-27 1.0km</title><desc>10110442644</desc></polyline><polyline fill="none" points="18.50559645984322,143.00185145356227 21.11277982359752,151.78678922646213 22.073321062605828,154.46693214715924 23.033862302079797,156.1047955197282 24.131623717956245,159.2316219160566 24.54328424902633,159.8272073493572 25.366605311166495,160.125 25.503825487568974,159.6783110073302 25.366605311166495,159.08272553049028 23.994403540622443,157.29596804978792 21.936100885737687,153.72244835831225 19.46613769978285,146.42649274435826 17.819495575036854,143.74633918318432 16.996174512896687,139.875" stroke="#4dd2ff" stroke-linecap="round" stroke-linejoin="round" stroke-width="0.5"><title>2023-10-26 1.0km</title><desc>10104873905</desc></polyline><polyline fill="none" points="42.735764431301504,149.559808241087 45.84608684293926,157.33696871763095 47.33363234438002,159.97826160863042 47.87455798033625,160.125 47.73932657158002,158.65761559992097 44.08807852305472,152.3478503873339 42.059607385192066,147.2119802555535 40.30159906577319,143.54349349928088 39.62544201966375,139.875" stroke="#4dd2ff" stroke-linecap="round" stroke-linejoin="round" stroke-width="0.5"><title>2023-10-25 1.0km</title><desc>10098978222</desc></polyline><polyline fill="none" points="62.50399029208347,139.875 62.36777175730094,140.90967647731304 63.18508296646178,144.30932401050813 64.27483124518767,146.52648234833032 64.95592391910031,149.18706912605558 66.18189073260874,152.73451268603094 68.77004289394245,157.7600470155012 69.58735410310328,159.82938102900516 69.859791173134,160.125 70.13222824316472,159.97719051979948 69.99600970791653,158.05566629034 68.49760582484305,155.2472814208595 67.40785754658282,153.6213725982234 66.04567219736055,150.51736119459383 65.77323512826115,148.8914485470159 64.13861270993948,146.37867186870426 63.18508296646178,144.1615133676678 62.91264589643106,141.50091993948445 62.50399029208347,139.875" stroke="#4dd2ff" stroke-linecap="round" stroke-linejoin="round" stroke-width="0.5"><title>2023-10-24 1.0km</title><desc>10092835699</desc></polyline><polyline fill="none" points="86.6689931480214,143.3714176582871 88.68287074705586,150.50991788762622 89.62268029246479,152.25811810558662 90.69674834469333,156.62861190270633 92.30785042373464,159.54226907889824 92.97914295690134,160.125 92.30785042373464,159.39658632164355 91.36804087786004,157.06566075223964 88.95138775976375,154.15199993434362 88.41435373341665,153.1322176362155 87.87731970753521,149.78150067513343 86.2662176284939,146.576461758581 85.19214957626536,143.22573371243197 84.52085704356432,139.875" stroke="#4dd2ff" stroke-linecap="round" stroke-linejoin="round" stroke-width="0.5"><title>2023-10-23 1.0km</title><desc>10087395010</desc></polyline><polyline fill="none" points="104.69377563544549,139.97212378395488 105.05179471336305,139.875 107.60268064355478,140.06924755359069 108.72149026207626,140.3606187768164 108.99000457045622,140.50630434026243 109.57178557245061,140.9433608376421 109.97455703490414,141.42897882888792 110.86960472958162,143.08007732807891 111.31712857726961,144.92541782493936 111.89890957879834,145.89664759440348 112.1674238871783,146.6736303816433 112.79395727347583,148.08190935390303 113.24148112116382,149.53874651010847 113.91276689223014,150.70421392138815 114.2260335853789,151.04414152895333 114.62880504806526,151.72399621928344 114.85256697167642,153.18082534213318 114.98682412598282,153.56931256566895 115.34484320366755,154.10348212474491 115.43434797343798,154.9290160482633 115.56860512751155,155.2689414814813 117.53771005617455,159.93075834482443 117.80622436455451,160.125 117.80622436455451,159.88219792197924 117.40345290186815,159.49371441151015 116.95592905464582,158.4253835794516 116.50840520719066,157.50273283413844 115.30009081913158,153.76355609169696" stroke="#4dd2ff" stroke-linecap="round" stroke-linejoin="round" stroke-width="0.5"><title>2023-10-22 1.5km</title><desc>10080655811</desc></polyline><polyline fill="none" points="130.52918930258602,139.875 131.2396622505039,140.3889666463947 129.96081094397232,140.18338003312238 131.95013519842178,142.75320835225284 132.139594651293,143.36996574304067 131.997500061756,143.88392981956713 131.33439197693951,144.24370444845408 131.14493252406828,144.60347889200784 131.1922973874025,145.22023465007078 131.57121629291214,146.71072548575466 131.997500061756,147.79004445188912 132.47114869370125,149.434717767057 133.32371623115614,150.9251996167004 133.46581082069315,151.49055396963377 133.98682431597263,152.41567828820553 134.31837835838087,152.82684425916523 134.36574322148226,153.0838228680659 134.69729726412334,153.39219707419397 134.93412157986313,153.90615378203802 135.2656756225042,154.88267048588023 135.59722966491245,155.55081270786468 135.54986480181105,156.88709523604484 136.16560802306049,158.06918918946758 136.35506747616455,158.63453776505776 136.68662151833996,159.25128114421386 137.25499987672083,159.97081439883914 137.53918905602768,160.125 136.44979720236734,158.58314245886868 136.2129728863947,157.76081704656826 135.73932425421663,156.7329089207924 135.54986480181105,156.06476782867685 134.93412157986313,155.19104389852146 134.41310808481649,153.70057114429073" stroke="#4dd2ff" stroke-linecap="round" stroke-linejoin="round" stroke-width="0.5"><title>2023-10-20 1.4km</title><desc>10069668027</desc></polyline><polyline fill="none" points="152.17527352948673,139.875 152.27171675954014,140.65989445487503 153.04326259996742,142.54363761417335 153.23614906030707,143.69481153483503 154.82746235630475,147.56692832900444 154.97212720150128,148.0901857393328 155.06857043178752,148.87507113360334 155.26145689189434,149.39832758228295 156.41877565253526,151.02042012807215 157.04565664823167,152.27623117278563 157.4314295684453,153.53204000164988 157.76898087374866,154.21226885879878 157.96186733385548,155.25877352332463 158.20297540910542,155.78202527854592 158.829856404569,157.40410327503923 158.9262996346224,158.032003442524 159.84251032047905,159.91570062126266 160.08361839549616,160.125 160.2282832406927,160.125 160.32472647051327,160.07267516100546 160.2765048558358,160.02035031822743 159.31207255506888,158.81687787279952 158.87807801971212,157.35177823604317 157.96186733385548,155.6773749582353 157.81720248865895,154.9971475013881 157.72075925860554,153.84599186270498" stroke="#4dd2ff" stroke-linecap="round" stroke-linejoin="round" stroke-width="0.5"><title>2023-10-19 1.3km</title><desc>10064004415</desc></polyline><polyline fill="none" points="174.18378014536574,139.875 176.16909312503412,142.4601180711761 176.03673892654479,144.32714566180948 176.30144732398912,146.1941714681452 177.22792671527714,149.49736659962218 178.5514687015675,151.6516212853603 179.87501068832353,155.38565711281262 182.5220946627669,159.69415112154093 182.91915725870058,160.125 183.3162198541686,159.98138371750247 181.5956152714789,158.25798750738613 178.41911450307816,152.0824719374068 177.62498931074515,149.35374953609426 175.37496793316677,144.614380517276" stroke="#4dd2ff" stroke-linecap="round" stroke-linejoin="round" stroke-width="0.5"><title>2023-10-18 1.0km</title><desc>10058081424</desc></polyline><polyline fill="none" points="17.715541414916515,168.28977832128294 18.84656816208735,174.8863869321067 21.81551337428391,182.7102445284836 23.794810181483626,186.85227490961552 24.64308024197817,187.3125 25.06721527222544,187.3125 25.349971958901733,186.6988665240351 24.360323555767536,185.4715990293771 23.087918465025723,183.47728781227488 21.391378343570977,179.7954774799291 20.684486627113074,177.64775178639684 17.715541414916515,171.66478998365346 17.432784728705883,170.74433279887307 17.150028041563928,167.0625" stroke="#4dd2ff" stroke-linecap="round" stroke-linejoin="round" stroke-width="0.5"><title>2023-10-17 1.0km</title><desc>10051702317</desc></polyline><polyline fill="none" points="39.22806673264131,167.52980987390038 40.66360110323876,170.0221274610376 42.81690265890211,175.62983131210785 43.965330155566335,177.8106010237243 45.25731108849868,181.86059596168343 46.83639889676124,185.91058315860573 47.41061264462769,187.00096300430596 48.128379829693586,187.3125 48.27193326735869,187.15673150809016 48.128379829693586,186.68942596274428 46.54929202236235,184.3528966914164 44.395990466699004,179.05675413680729 42.81690265890211,175.78560065152124 41.5249217255041,169.7105879226001 40.807154539972544,167.0625" stroke="#4dd2ff" stroke-linecap="round" stroke-linejoin="round" stroke-width="0.5"><title>2023-10-16 1.0km</title><desc>10046279660</desc></polyline><polyline fill="none" points="62.10290070716292,167.0625 62.69534346461296,168.34821986232419 63.28778622020036,171.2410867883591 64.62078242190182,175.74109439761378 66.39811068959534,178.47323735512327 68.47166033554822,186.18750492099207 69.21221378166229,186.99107289360836 70.24898860417306,187.3125 70.3970992937684,186.99107289360836 70.24898860417306,186.02679129096214 68.3235496468842,183.29465777392033 67.2867748234421,180.08037867606618 66.1018893122673,178.15180894907098 63.28778622020036,171.56251621060073 62.25101139675826,167.0625" stroke="#4dd2ff" stroke-linecap="round" stroke-linejoin="round" stroke-width="0.5"><title>2023-10-15 1.0km</title><desc>10039610121</desc></polyline><polyline fill="none" points="84.53601107932627,168.5322642774554 84.98750989232212,173.2681647790596 86.19150672666728,176.69760366680566 87.69650277029723,178.82058699114714 88.59950039628893,181.76009901426733 91.15799366869032,186.33266554027796 91.75999208539724,186.9858885614667 92.51249010767788,187.3125 92.96398892067373,186.9858885614667 92.96398892067373,186.4959713134449 89.95399683434516,184.04638345376588 87.99750197865069,180.45364970644005 87.24500395730138,177.3508295211941 85.43900870531797,173.2681647790596 84.53601107932627,169.8387205969775 84.68651068396866,167.71572868782096 84.53601107932627,167.0625" stroke="#4dd2ff" stroke-linecap="round" stroke-linejoin="round" stroke-width="0.5"><title>2023-10-14 1.0km</title><desc>10033377496</desc></polyline><polyline fill="none" points="106.65856931451708,167.38393003679812 109.3245613258332,170.59822780278046 109.6207826603204,173.0089480257593 112.1386640034616,180.7232348738471 114.5084346793592,186.34821853914764 115.2489880155772,187.3125 115.84143068548292,187.3125 115.84143068548292,186.83035932295024 115.693320017308,186.34821853914764 114.3603240121156,185.3839366529137 112.8792173396796,182.65180233237334 111.25,177.50895199575461 108.287786655128,170.9196573193185 107.8434546533972,168.66964971018024 107.10290131624788,167.0625" stroke="#4dd2ff" stroke-linecap="round" stroke-linejoin="round" stroke-width="0.5"><title>2023-10-13 1.0km</title><desc>10028006924</desc></polyline><polyline fill="none" points="129.40504435403273,167.0625 130.82961997529492,168.91746994643472 131.68436534842476,170.46327698463574 131.82682291138917,172.4728244356811 131.68436534842476,174.6369503120659 133.2513985321857,177.8831349503016 135.10334684047848,182.82969238027 136.95529514877126,186.23044386308175 137.38266783533618,186.8487617240753 138.0949556455016,187.3125 138.0949556455016,186.53960281633772 136.52792246220633,184.53006880928297 135.10334684047848,182.05679354909807 133.2513985321857,176.95565413648728 132.11173803498968,174.946110969875 131.54190778639168,173.24572679039557" stroke="#4dd2ff" stroke-linecap="round" stroke-linejoin="round" stroke-width="0.5"><title>2023-10-12 1.0km</title><desc>10021974100</desc></polyline><polyline fill="none" points="153.8824395830743,169.93378079403192 154.43951262207702,172.95617729763035 154.30024436255917,174.16513465484604 155.5536587005481,178.24536048504524 156.52853651950136,180.05879158736207 157.5034143384546,183.38341112039052 158.89609693642706,186.70802527631167 159.17463345639408,187.01026266010012 159.87097475584596,187.3125 159.7317064953968,186.70802527631167 158.19975563744083,182.77893524174578 156.52853651950136,179.90767238975968 154.30024436255917,174.76961306645535 153.74317132262513,172.80505757802166 153.46463480358943,169.93378079403192 152.62902524415404,167.0625" stroke="#4dd2ff" stroke-linecap="round" stroke-linejoin="round" stroke-width="0.5"><title>2023-10-10 1.0km</title><desc>10009069592</desc></polyline><polyline fill="none" points="175.31949557503685,169.59376107272692 176.28003681404516,172.27391640702263 177.24057805305347,175.84745133598335 179.29888070886955,180.31436113012023 180.94552283268422,185.97243272676133 181.90606407169253,187.3125 182.18050442589447,186.8658110073302 182.3177246027626,185.227950524888 181.3571833637543,182.3989156623138 179.29888070886955,178.82539229327813 176.96613769978285,172.27391640702263 176.28003681404516,169.29596581635997 175.18227539770305,167.0625" stroke="#4dd2ff" stroke-linecap="round" stroke-linejoin="round" stroke-width="0.5"><title>2023-10-09 1.0km</title><desc>10003389142</desc></polyline><polyline fill="none" points="17.127011598087847,194.25 18.139675416518003,195.5058195394231 19.152339234482497,197.86047918454278 19.73100427305326,202.5697906849673 21.9009981690906,207.27909179858398 23.781659544911236,212.6162871712586 24.64965710323304,214.18604797730222 25.372988401912153,214.5 25.372988401912153,213.24419163237326 22.624329467769712,208.84885652828962 19.007672974839807,200.05815917695872 17.56101037748158,194.4069774830714" stroke="#4dd2ff" stroke-linecap="round" stroke-linejoin="round" stroke-width="0.5"><title>2023-10-08 1.0km</title><desc>9996447828</desc></polyline><polyline fill="none" points="41.150658363476396,198.30001667432953 41.81715621938929,200.75895130157005 43.81664978573099,206.11073957325425 44.48314764164388,208.42502188449726 46.615940779447556,213.7767893030541 47.28243863536045,214.5 47.415738206356764,213.92143146391027 47.415738206356764,213.34286275773775 44.883046355098486,208.8589495148044 43.68335021473467,206.25538229721133 41.550557076931,199.89109237212688 40.884059221018106,196.56429626303725 40.0842617941089,194.25" stroke="#4dd2ff" stroke-linecap="round" stroke-linejoin="round" stroke-width="0.5"><title>2023-10-07 1.0km</title><desc>9989974159</desc></polyline><polyline fill="none" points="64.59557300293818,200.28193684492726 65.65440628072247,203.7287495364435 66.44853123975918,205.45215360203292 68.03678115690127,212.20213821833022 68.43384363641962,213.49468580295797 69.22796859499067,214.5 69.88973939372227,214.5 70.15444771293551,213.9255348078441 70.02209355402738,213.49468580295797 68.43384363641962,211.1968228383921 66.84559371881187,207.7500233236933 66.31617707991973,205.45215360203292 63.53673972515389,198.70214566227514 63.13967724563554,196.2606476843357 62.34555228706449,194.25" stroke="#4dd2ff" stroke-linecap="round" stroke-linejoin="round" stroke-width="0.5"><title>2023-10-06 1.0km</title><desc>9984428862</desc></polyline><polyline fill="none" points="84.39044428616762,194.25 86.68494729418308,200.39141263160855 88.21461596526206,205.53690765006468 90.81505270767957,212.0102556941565 91.88582077715546,214.16803425177932 92.34472137875855,214.5 92.956588848494,214.5 93.1095557147637,214.16803425177932 92.65065511316061,213.33811966574285 90.81505270767957,210.68239094223827 89.74428463727236,208.52460905362386 87.90868223086,203.71108817961067 87.14384789578617,201.2213319762377 85.00231175590307,197.2377163397614 85.00231175590307,195.74385866406374" stroke="#4dd2ff" stroke-linecap="round" stroke-linejoin="round" stroke-width="0.5"><title>2023-10-04 1.0km</title><desc>9971682885</desc></polyline><polyline fill="none" points="108.18508319184184,196.6149740224937 108.86617581546307,198.9799452634761 109.54726843954995,200.6058613777859 110.09214253909886,203.11863824073225 112.68029451044276,208.29199248191435 112.8165130354464,210.0657108714804 113.63382418453693,213.61314295674674 113.9062612336129,214.0565715271514 114.72357238270342,214.5 114.72357238270342,213.02190471056383 112.95273156045005,209.77009124867618 111.72676483727992,206.96170266275294 111.04567221272737,205.63141196337529 110.36457958864048,203.70987939927727 109.00239434093237,200.90148234833032 108.4575202409178,198.68432401039172 108.18508319184184,196.46716322784778 107.77642761729658,194.25" stroke="#4dd2ff" stroke-linecap="round" stroke-linejoin="round" stroke-width="0.5"><title>2023-10-03 1.0km</title><desc>9965060084</desc></polyline><polyline fill="none" points="130.04845587722957,195.08678042737301 131.89922793861479,201.11159042594954 132.20768994838,203.78927864029538 133.28730698488653,205.1281215660274 134.05846201069653,207.13638447842095 135.44654105603695,212.3243888024008 136.52615809161216,213.9979360619327 137.29731311742216,214.5 137.45154412277043,214.33264536620118 136.98885110765696,212.9938078536652 135.29231005162,209.81406560575124 132.51615195907652,203.11985688167624 130.81961090210825,198.0991874197498 130.51114889234304,194.25" stroke="#4dd2ff" stroke-linecap="round" stroke-linejoin="round" stroke-width="0.5"><title>2023-10-02 1.0km</title><desc>9958643020</desc></polyline><polyline fill="none" points="153.04014479368925,197.81401349406224 153.3387359753251,199.27201735321432 156.62323897797614,207.0480216400465 158.265490478836,212.07000982540194 159.1612640246749,213.8520028818166 160.05703757051378,214.5 160.2063331613317,214.3380007382948 160.05703757051378,213.69000357273035 157.07112575042993,209.15401807927992 154.234509521164,202.18802217626944 152.89084920194,197.97601397067774 152.2936668386683,194.25" stroke="#4dd2ff" stroke-linecap="round" stroke-linejoin="round" stroke-width="0.5"><title>2023-10-01 1.0km</title><desc>9952075403</desc></polyline><polyline fill="none" points="175.84252363303676,197.1847953387769 177.05960676353425,199.67936798359733 177.60053259832785,202.17393751093186 178.00622697547078,204.5217648060061 180.03469885932282,210.24458226771094 181.79270782507956,213.9130463694455 182.60409657796845,214.5 182.8745594965294,214.05978479317855 180.16993031837046,209.9511048485292 178.95284718833864,207.16306721174624 178.5471528111957,205.6956774177961 176.65391238685697,201.5869802555535 175.57206071494147,197.03805567405652 174.62544050300494,194.25" stroke="#4dd2ff" stroke-linecap="round" stroke-linejoin="round" stroke-width="0.5"><title>2023-09-30 1.0km</title><desc>9945549317</desc></polyline><polyline fill="none" points="18.11479443218559,221.4375 19.458453961648047,223.70550925424322 19.906340470537543,225.48751488770358 21.100704496726394,228.40352099761367 21.69788650982082,232.7775229269173 22.145773019641638,234.07352183095645 23.93731905706227,238.44751250534318 24.385205566883087,241.20150217949413 24.6837965734303,241.5255007384112 25.13168308325112,241.6875 25.280978586524725,241.36350146471523 22.593659528531134,236.5035177222453 20.80211349017918,232.2915231413208 20.20493147801608,229.86152260517702 18.11479443218559,225.0015134946443 17.219021413475275,222.08550288225524" stroke="#4dd2ff" stroke-linecap="round" stroke-linejoin="round" stroke-width="0.5"><title>2023-09-28 1.0km</title><desc>9933629332</desc></polyline><polyline fill="none" points="39.7914034742862,223.73864626022987 40.92243105312809,227.72729376715142 43.04310776293278,230.64206981577445 44.45689223660156,235.85797468852252 46.43619049945846,239.3863735331688 47.00170428911224,241.38068328425288 47.567218077834696,241.6875 47.849974973127246,241.2272749093827 47.567218077834696,240.61364129779395 46.43619049945846,239.07955647888593 43.18448621034622,232.48297890648246 41.48794484185055,227.880703134113 39.650025026872754,221.4375" stroke="#4dd2ff" stroke-linecap="round" stroke-linejoin="round" stroke-width="0.5"><title>2023-09-27 1.0km</title><desc>9927137811</desc></polyline><polyline fill="none" points="67.93223653757013,221.4375 67.52849976834841,223.38464230054524 67.12476299959235,224.50424653000664 66.81074551236816,225.86724042752758 64.97150023118593,229.71281522483332 64.02944777044468,231.31918795610545 63.85000920621678,232.00067824020516 63.939728488214314,232.53613440005574 64.16402669320814,233.31497895013308 64.83692130818963,234.9700205771369 65.06121951318346,235.40811913879588 65.33037735940889,236.18696031038417 66.22757017915137,237.30654288944788 66.6313069483731,238.18273663055152 67.07990335859358,238.8642198499292 67.43878048658371,239.83776608924381 67.9770961785689,240.56792482925812 68.64999079355039,241.6875" stroke="#4dd2ff" stroke-linecap="round" stroke-linejoin="round" stroke-width="0.5"><title>2023-09-26 1.0km</title><desc>9920397094</desc></polyline><polyline fill="none" points="88.65543065872043,221.4375 87.77278347173706,224.37925033428473 86.89013628475368,225.95274088106817 86.0705353252124,226.9789289345499 85.62921173195355,227.79987856239313 85.44007304892875,228.620827465842 85.50311927613802,229.64701257657725 85.81835041474551,230.46795985038625 86.57490514637902,231.63096724828938 86.89013628475368,232.7939731925726 87.5205985608045,234.29903755069245 88.71847688616253,235.8040994745097 90.73595617059618,239.90880143875256 92.05992695130408,241.6875" stroke="#4dd2ff" stroke-linecap="round" stroke-linejoin="round" stroke-width="0.5"><title>2023-09-25 1.0km</title><desc>9914573673</desc></polyline><polyline fill="none" points="112.74293000507168,221.4375 112.24528667028062,222.1935100335977 112.14575800322928,222.57151475851424 112.24528667028062,223.0575205476489 112.2950510038063,223.5435260149534 111.29976433352567,225.37954376696143 111.05094266589731,226.62155317288125 110.70259233145043,227.5395587750827 108.61249032407068,231.21156970900483 108.562725990545,231.64356978813885 108.76178332441486,232.5075691845268 109.30919099319726,233.37156756437616 109.6077769943513,234.1275653130142 110.05565599561669,234.8835622833576 110.30447766324505,235.6395584755228 110.9514139990788,236.66555206326302 111.44905733386986,237.6915442176978 111.99646500288509,238.28553902043495 112.14575800322928,238.8255338787567 112.49410833767615,239.25752947950969 113.24057334032841,240.55351475760108 113.78798100887798,241.14750724571059 113.937274009455,241.6875" stroke="#4dd2ff" stroke-linecap="round" stroke-linejoin="round" stroke-width="0.5"><title>2023-09-24 1.0km</title><desc>9907510217</desc></polyline><polyline fill="none" points="134.50492160650901,221.4375 134.08216550690122,222.09284700959688 133.78019686439075,222.74819353723433 133.59901567874476,223.6001433028723 133.5386219501961,224.71423022903036 132.51192856533453,226.09045333304675 131.90799128031358,227.6632771352306 131.36444772337563,228.44968799548224 131.0020853523165,229.49823472998105 130.941691623535,230.6123142836732 132.20995992282405,233.82347697060322 132.69310975074768,234.80648364365334 134.2633466925472,237.2967623632867 134.9276777061168,238.9350998318987 135.77318990556523,239.98363423132105 136.25633973395452,240.835567522794 136.55830837669782,241.6875" stroke="#4dd2ff" stroke-linecap="round" stroke-linejoin="round" stroke-width="0.5"><title>2023-09-23 1.0km</title><desc>9901004991</desc></polyline><polyline fill="none" points="157.02756968373433,221.4375 156.62438540323637,222.18750860280124 156.22120112297125,223.50002206512727 155.29963705362752,225.4375382339931 154.3780729842838,226.75004667782923 153.5717044235207,228.9375562473433 153.51410666899756,230.12505908461753 153.62930217804387,230.81255996931577 154.7812572645489,233.56255794683238 154.9540505274199,234.37505564675666 155.18444154481404,234.81255408655852 155.9908101055771,235.8125496749999 156.62438540323637,237.06254250602797 157.14276519208215,238.37503300071694 158.0067315073684,239.62502206396312 158.98589333100244,241.6875" stroke="#4dd2ff" stroke-linecap="round" stroke-linejoin="round" stroke-width="0.5"><title>2023-09-22 1.0km</title><desc>9895405405</desc></polyline><polyline fill="none" points="179.82345788786188,221.4375 179.6583105204627,222.0348523578141 179.32801578589715,222.39326356170932 178.61237719398923,223.70743662299355 178.33713158173487,224.66319751407718 177.51139474497177,226.7539205433568 176.63060878613032,228.54596457176376 176.08011756138876,229.8601276803529 175.91497019398957,230.51720843737712 175.91497019398957,230.93535046064062 176.08011756138876,231.53269583481597 176.4104122959543,232.13004076987272 177.12605088809505,233.98180727718864 177.84168947977014,235.2959615928121 178.22703333687969,236.25170885090483 178.94267192855477,237.44639134244062 179.3830649079755,237.98399789060932 179.71335964277387,238.93974198657088 180.59414560184814,240.49282374460017 181.5850298057776,241.6875" stroke="#4dd2ff" stroke-linecap="round" stroke-linejoin="round" stroke-width="0.5"><title>2023-09-21 1.0km</title><desc>9889267953</desc></polyline><polyline fill="none" points="23.311701788567007,248.625 22.589043429587036,250.79302668903256 22.163950277492404,252.49976583267562 21.4838012335822,253.92973289149813 20.676124243997037,256.3283799929777 19.273316841339692,258.9576557026012 18.890733004314825,260.3876080412301 18.93324231938459,260.71050005371217 19.1882982107345,261.40241094940575 19.74091930896975,262.60172136098845 20.080993830924854,263.6165206877631 20.93118013557978,264.81582686671754 21.441291918512434,265.784495568485 21.73885712493211,266.4764008682687 22.078931646654382,267.07605151092866 22.631552744889632,267.4911939277663 23.311701788567007,268.50598534586607 23.354211104102433,268.6904927000869 23.609266995452344,268.875" stroke="#4dd2ff" stroke-linecap="round" stroke-linejoin="round" stroke-width="0.5"><title>2023-09-20 1.0km</title><desc>9882714971</desc></polyline><polyline fill="none" points="45.42906590504572,248.625 44.99730610102415,249.71820245083654 44.1817598042544,252.11283049179474 44.133786492515355,252.8936857105 43.84594662301242,253.3101414749981 43.51013344223611,254.09099537302973 43.3182401957456,254.81979156762827 42.934453702997416,255.80887091724435 41.83106753672473,257.57879893644713 41.5432276672218,258.6199309984804 41.447281044209376,259.55694854533067 41.5432276672218,260.4939648518921 41.83106753672473,261.53509262710577 42.166880717501044,262.2638811588986 43.22229357250035,264.08584920619614 43.75,264.8146351122414 44.22973311552778,266.11603665031726 44.70946623152122,266.94893237925135 45.189199347049,267.6256594376173 45.71690577454865,268.1462182732066 46.052718955790624,268.875" stroke="#4dd2ff" stroke-linecap="round" stroke-linejoin="round" stroke-width="0.5"><title>2023-09-19 1.0km</title><desc>9876194288</desc></polyline><polyline fill="none" points="66.10094494954683,248.625 65.74321282887831,249.20727487810655 65.14699262776412,250.3718234784319 64.96812656731345,251.14818835549522 63.89493020484224,253.02440064720577 63.06022192304954,254.77121539146174 62.881355862598866,255.41818293527467 62.94097788305953,256.12984668376157 63.29871000372805,257.0355997134466 63.835308184847236,258.0060483532725 64.31228434597142,259.36467465094756 64.96812656731345,260.7879951891373 65.68359080865048,262.08192095329287 66.33943303022534,262.92297167977085 67.1145192917902,264.21689430449624 67.59149545268156,265.70490297081415 68.42620373470709,266.99882150505437 68.84355787560344,268.1633465591003 69.61864413740113,268.875" stroke="#4dd2ff" stroke-linecap="round" stroke-linejoin="round" stroke-width="0.5"><title>2023-09-18 1.0km</title><desc>9870505463</desc></polyline><polyline fill="none" points="88.95347620127723,248.625 88.66279591363855,249.19276352168527 88.2558435110841,251.08530588028952 87.73261899338104,251.96849088562885 87.50007476331666,252.662421323359 86.221081498079,254.74420926929452 85.75599303795025,255.87972783809528 85.46531275031157,256.88907641521655 85.69785698037595,257.5830028732307 86.9768502456136,260.3587030930212 87.61634687846527,261.368046401185 88.08143533836119,262.44047236500774 88.83720408612862,263.44981322425883 89.2441564889159,264.14373437612085 89.76738100638613,265.7839094134979 92.03468724968843,268.875" stroke="#4dd2ff" stroke-linecap="round" stroke-linejoin="round" stroke-width="0.5"><title>2023-09-16 1.0km</title><desc>9856514700</desc></polyline><polyline fill="none" points="110.97007456398569,248.625 110.34801803971641,250.51501889922656 109.53934455802664,251.79752950766124 107.85979194217362,255.0375483268872 107.79758628970012,255.78005102928728 107.85979194217362,256.6575534485164 108.23302585678175,257.53505502908956 108.85508238128386,258.4800557931885 109.41493325307965,259.7625552743557 110.41022369195707,261.450051862048 111.6543367409613,263.8125418740674 111.77874804567546,264.6900366158807 112.21418761275709,265.027534370136 112.71183283231221,265.7025295064668 113.52050631376915,267.05251829046756 114.39138544793241,267.7950112755061 114.57800240535289,268.2675064987852 114.70241371029988,268.875" stroke="#4dd2ff" stroke-linecap="round" stroke-linejoin="round" stroke-width="0.5"><title>2023-09-15 1.0km</title><desc>9850671982</desc></polyline><polyline fill="none" points="134.26480475603603,248.625 133.23519524396397,251.34830099134706 132.0768845428247,253.02417464280734 131.5620797870215,253.931938302645 130.78987265285105,255.88711862289347 130.59682086925022,256.58539633319015 130.59682086925022,257.1440181314829 130.78987265285105,257.8422949176165 131.5620797870215,259.93712219555164 132.26993632642552,261.3336711471202 134.00740237813443,264.33624443912413 134.71525891753845,265.66295984660974 134.84396010637283,266.43105739331804 135.3587648626417,266.9198464176734 136.19532259111293,268.246558215993 136.90317913074978,268.875" stroke="#4dd2ff" stroke-linecap="round" stroke-linejoin="round" stroke-width="0.5"><title>2023-09-14 1.0km</title><desc>9844236351</desc></polyline><polyline fill="none" points="153.03165259608068,248.625 153.40210985112935,248.9264932339429 153.5410313217435,249.22798633488128 153.6336456357967,249.88122093037236 153.911488577025,250.43395740829874 154.09671720466577,251.99166689504636 154.09671720466577,252.74539601715514 154.0041028908454,253.14738454233157 154.09671720466577,253.64986986643635 154.3282529891003,254.2528517676401 154.23563867527992,254.7553362788749 154.2819458320737,255.00657839589985 154.74501740117557,255.8608009031159 155.16178181325085,257.1170085329795 155.53223906829953,257.8204837971134 155.9953106371686,258.47371017967816 156.5046893628314,258.92594346334226 156.6436108336784,259.22743215295486 156.78253230429254,259.88065719080623 157.15298955957405,260.53388160432223 157.5697539714165,261.73983272747137 158.12543985410593,262.7950382147101 158.40328279556707,263.69949876429746 158.54220426618122,264.45321497449186 158.82004720764235,265.05618734436575 159.32942593330517,266.7143586183083 160.0240332868416,268.02079375850735 160.0703404438682,268.2217835584306 160.0240332868416,268.37252586957766 159.46834740391932,268.875 159.74619034538046,268.674010392162 159.8851118159946,268.37252586957766 159.97772612981498,268.12128866591956 159.9314189730212,267.76955642551184 159.6535760317929,267.4178240040201 158.82004720764235,265.60891154926503 158.40328279556707,264.25222406635294 157.52344681462273,262.29255961440504 157.10668240254745,260.38313756434945 156.87514661811292,259.83040913322475 155.9953106371686,258.67470278718974 155.11547465622425,257.01651200756896 154.69871024414897,255.6598074681242 154.55978877376765,254.7553362788749 154.1893315182533,253.8006153916358 153.44841700815596,252.19266140891705 153.2631883805152,251.43893167714123 152.6148881840054,250.23296237713657 152.47596671339124,249.57972811779473 152.42965955636464,248.77574663364794" stroke="#4dd2ff" stroke-linecap="round" stroke-linejoin="round" stroke-width="0.5"><title>2023-09-13 1.0km</title><desc>9837636972</desc></polyline></svg>