<?xml version="1.0" encoding="utf-8" ?>
<svg baseProfile="full" height="300mm" version="1.1" viewBox="0,0,200,300" width="200mm" xmlns="http://www.w3.org/2000/svg" xmlns:ev="http://www.w3.org/2001/xml-events" xmlns:xlink="http://www.w3.org/1999/xlink"><defs /><rect fill="#222222" height="300" width="200" x="0" y="0" /><text fill="#FFFFFF" style="font-size:12px; font-family:Arial; font-weight:bold;" x="10" y="20">Over 1km Runs</text><text fill="#FFFFFF" style="font-size:4px; font-family:Arial" x="10" y="280">ATHLETE</text><text fill="#FFFFFF" style="font-size:9px; font-family:Arial" x="10" y="290">Jiakai</text><text fill="#FFFFFF" style="font-size:4px; font-family:Arial" x="120" y="280">STATISTICS</text><text fill="#FFFFFF" style="font-size:3px; font-family:Arial" x="120" y="285">Number: 53</text><text fill="#FFFFFF" style="font-size:3px; font-family:Arial" x="120" y="290">Weekly: 5.9</text><text fill="#FFFFFF" style="font-size:3px; font-family:Arial" x="141" y="285">Total: 55.2 km</text><text fill="#FFFFFF" style="font-size:3px; font-family:Arial" x="141" y="290">Avg: 1.0 km</text><text fill="#FFFFFF" style="font-size:3px; font-family:Arial" x="167" y="285">Min: 1.0 km</text><text fill="#FFFFFF" style="font-size:3px; font-family:Arial" x="167" y="290">Max: 1.5 km</text><polyline fill="none" points="19.702043745666742,35.81096321484074 23.663450568914413,44.766198287019506 24.98391950968653,49.24380347901024 26.30438845138997,52.82588170748204 27.129681539721787,54.43781519192271 27.954974627122283,55.33333333325572 28.120033245533705,54.616918846499175 26.634505686350167,50.13932352978736 23.828509186394513,45.84082428365946 20.85745406895876,39.034851633012295 19.702043745666742,34.19901740550995 18.546633421443403,31.333333333255723" stroke="#4dd2ff" stroke-linecap="round" stroke-linejoin="round" stroke-width="0.5"><title>2023-11-11 1.0km</title><desc>10196068378</desc></polyline><polyline fill="none" points="51.768811092711985,34.912293462781236 54.485041067004204,43.122832152759656 57.00725461542606,49.85966682899743 58.17135317530483,54.28070597210899 58.947418882511556,55.33333333325572 59.33545173611492,54.91228243499063 58.753402455709875,52.38597574620508 55.843156054615974,45.85967315128073 52.932909653522074,39.754408871755004 49.052581118419766,33.64913157559931 48.66454826388508,31.333333333255723" stroke="#4dd2ff" stroke-linecap="round" stroke-linejoin="round" stroke-width="0.5"><title>2023-11-10 1.0km</title><desc>10191120477</desc></polyline><polyline fill="none" points="79.09499435313046,32.066161181544885 81.96524978801608,34.26464343466796 83.6536353379488,37.195950087858364 84.16015100292861,38.295189193915576 84.16015100292861,39.944046943914145 86.01737510692328,45.62343750917353 86.69272932689637,48.92114222049713 88.04343776684254,52.5852534477599 88.38111487589777,54.417307041352615 89.22530765086412,55.33333333325572 89.73182331584394,55.15012810193002 90.23833898082376,54.417307041352615 88.38111487589777,53.13486966746859 85.3420208869502,48.737936517456546 81.79641123302281,39.02801499539055 80.95221845805645,33.531816232483834 80.10802568309009,31.333333333255723" stroke="#4dd2ff" stroke-linecap="round" stroke-linejoin="round" stroke-width="0.5"><title>2023-11-09 1.0km</title><desc>10185506531</desc></polyline><polyline fill="none" points="110.65145597141236,33.26034955796786 112.42734048888087,36.764011427992955 113.07311667595059,38.515840431209654 115.17188928741962,43.07058981247246 115.97910952195525,46.22387274494395 115.81766547542065,44.296867003897205 116.14055356942117,45.523143564816564 116.78632975649089,50.25306153064594 118.23932617995888,54.63260683231056 118.88510236795992,55.33333333325572 119.69232260249555,54.982970108045265 120.01521069649607,54.45742517453618 118.23932617995888,52.88078967761248 116.9477738039568,50.77860739198513 116.14055356942117,48.501241156831384 115.0104452399537,44.64723180048168 113.39600477088243,42.36985970498063 111.62012025341392,38.515840431209654 111.13578811194748,35.71291340794414 111.2972321594134,32.20924999238923 110.97434406541288,31.333333333255723" stroke="#4dd2ff" stroke-linecap="round" stroke-linejoin="round" stroke-width="0.5"><title>2023-11-08 1.0km</title><desc>10179505859</desc></polyline><polyline fill="none" points="144.91730768885463,44.592105784337036 150.33076924271882,55.33333333337214 150.6401099022478,55.16550204181112 149.86675825156271,53.3193570174044 148.47472528088838,50.96971573645715 147.54670330043882,48.62007203756366 145.69065933860838,46.60608979931567 145.07197801955044,45.43126600631513 144.60796702839434,41.40329412650317 144.29862636886537,40.22846765618306 142.44258240703493,37.039649903192185 141.3598900968209,31.33333333337214" stroke="#4dd2ff" stroke-linecap="round" stroke-linejoin="round" stroke-width="0.5"><title>2023-11-06 1.0km</title><desc>10167691585</desc></polyline><polyline fill="none" points="174.3594083506614,38.06717103580013 175.47325719334185,40.13911721413024 179.61041003465652,49.63551380787976 181.360743929632,54.98801133129746 181.67898645531386,55.33333333325572 181.99722898192704,55.33333333325572 181.99722898192704,54.815350311109796 180.72425887640566,52.052772264694795 179.61041003465652,50.49882068531588 179.4512887718156,49.63551380787976 178.4965611929074,48.599545136559755 175.7914997190237,43.937680459348485 172.60907445661724,35.82256061350927 171.33610435202718,31.333333333255723" stroke="#4dd2ff" stroke-linecap="round" stroke-linejoin="round" stroke-width="0.5"><title>2023-11-05 1.1km</title><desc>10161301187</desc></polyline><polyline fill="none" points="18.845653316937387,58.0 22.051139042712748,65.13046020735055 23.493607619777322,71.3913343755994 25.737447628751397,75.73915390949696 26.5388190606609,79.21740378346294 27.340190491639078,82.0 27.821013350971043,81.47826345870271 27.660739064216614,80.95652680238709 25.577173341996968,77.13045447296463 25.41689905524254,76.60871685761958 23.493607619777322,73.65220153075643 22.69223618786782,70.86959549435414 20.608670466579497,67.04350685002282 20.12784760724753,63.739152586553246 19.166201889514923,60.26087995409034" stroke="#4dd2ff" stroke-linecap="round" stroke-linejoin="round" stroke-width="0.5"><title>2023-11-04 1.0km</title><desc>10155501797</desc></polyline><polyline fill="none" points="60.439008011016995,61.64558758435305 58.61928835557774,59.21519657666795 57.499460875522345,58.45569880004041 55.25980591541156,58.0 53.16012939019129,58.151899611460976 50.220582254230976,59.518995608901605 48.960776339285076,60.73419129184913 47.840948859229684,63.01268126943614 47.56099198944867,64.83547144208569 47.14105668431148,70.91142706514802 47.4210135540925,77.2911612316966 47.700970424339175,78.20255021844059 49.100754774641246,80.48102092521731 50.780495995189995,81.69620427442715 53.580064695328474,82.0 56.099676525685936,80.9367147651501 58.47930992115289,78.05065208196174 59.179202096071094,76.6835683506215 60.15905114123598,72.27851461677346 60.15905114123598,68.78484463004861 60.85894331615418,64.22787489637267 60.71896488126367,62.556983474991284 59.179202096071094,60.73419129184913 57.91939618065953,59.82279459654819 54.97984904516488,58.45569880004041 53.440086259972304,58.45569880004041 50.08060382027179,59.518995608901605 48.54084103461355,60.88609070179518 47.56099198944867,62.70888275082689 47.28103511920199,63.92407655692659 47.56099198944867,68.93674344825558 47.28103511920199,71.21522437687963" stroke="#4dd2ff" stroke-linecap="round" stroke-linejoin="round" stroke-width="0.5"><title>2023-11-03 1.0km</title><desc>10152446508</desc></polyline><polyline fill="none" points="79.69951985683292,58.0 81.01159637235105,60.847468513064086 82.1362333856523,65.93222642457113 84.0106284096837,69.59324633446522 86.82222094200552,76.91527161956765 87.38453944958746,78.13560728332959 88.32173696067184,81.38983308756724 88.88405546825379,82.0 89.6338134771213,82.0 89.6338134771213,81.59322207327932 88.32173696067184,80.9830550714396 87.75941845402122,79.55933154374361 86.44734193850309,78.33899650815874 85.51014442741871,75.69493541796692 84.19806791096926,73.6610405521933 82.69855189323425,70.6101954493206 81.01159637235105,64.30510490969755 79.88695935811847,61.66103040683083" stroke="#4dd2ff" stroke-linecap="round" stroke-linejoin="round" stroke-width="0.5"><title>2023-11-02 1.1km</title><desc>10144903556</desc></polyline><polyline fill="none" points="111.24633873347193,59.73913861718029 111.56688732933253,61.65218962007202 112.84908171370625,64.60871994472109 115.0929218865931,72.60872464999557 118.93950504157692,80.60870230058208 120.06142512802035,82.0 119.42032793629915,79.91305314423516 117.01621346455067,76.2608917162288 115.73401908017695,71.56524730962701 114.1312760990113,69.30437816050835 112.20798452105373,65.13046020688489 110.60524153988808,58.0" stroke="#4dd2ff" stroke-linecap="round" stroke-linejoin="round" stroke-width="0.5"><title>2023-11-01 1.0km</title><desc>10138966680</desc></polyline><polyline fill="none" points="142.5077082971111,58.36090399394743 143.3392063220963,61.06768225389533 144.6696031615138,68.2857430211734 146.83149802405387,72.97747113718651 148.16189486254007,77.30828913021833 150.32378972601146,82.0 150.49008933082223,81.81954974750988 148.99339288752526,79.65414568618871 146.83149802405387,74.60152877983637 145.00220237020403,71.35341241932474 141.84250987879932,61.78948928578757 141.50991066824645,58.0" stroke="#4dd2ff" stroke-linecap="round" stroke-linejoin="round" stroke-width="0.5"><title>2023-10-31 1.0km</title><desc>10133123337</desc></polyline><polyline fill="none" points="172.89844108279794,60.84445688710548 173.7176205571741,65.11113594425842 173.7176205571741,66.7111386496108 175.51981540210545,69.73336309357546 180.43489225115627,80.22223039111122 181.25407172646374,81.82222309778444 181.58174351602793,82.0 177.81351793184876,74.53335885866545 176.17515898216516,69.91114088450558 174.3729641372338,66.17780453222804 171.7515898179263,58.0" stroke="#4dd2ff" stroke-linecap="round" stroke-linejoin="round" stroke-width="0.5"><title>2023-10-30 1.0km</title><desc>10127985445</desc></polyline><polyline fill="none" points="19.55001774057746,88.14036747661885 20.27757843118161,93.03511817322578 20.714114845730364,94.61406763107516 23.62435761000961,101.40353707247414 25.079478991683573,105.35089315997902 27.262161064893007,108.35087893414311 27.844209618400782,108.66666666662786 27.989721755497158,108.19298505038023 26.680112512316555,106.14036350662354 24.788454715628177,102.03511453396641 21.441675536800176,95.87722636177205 20.13206629268825,91.2982724289177 19.113481325097382,89.24563473847229 18.967969187069684,86.0877267679898 18.67694491101429,84.66666666662786" stroke="#4dd2ff" stroke-linecap="round" stroke-linejoin="round" stroke-width="0.5"><title>2023-10-28 1.0km</title><desc>10115543824</desc></polyline><polyline fill="none" points="50.88711753766984,89.64446402341127 52.197804890573025,93.91113931615837 53.67232816107571,97.2889185838867 54.9830155139789,102.08891258458607 56.94904654379934,106.71112002525479 57.768226138316095,108.48888976522721 58.58740573376417,108.66666666674428 58.751241653226316,108.48888976522721 58.42356981430203,107.42222807789221 57.44055430032313,104.7555718019139 54.163835919462144,98.3555847411044 51.54246121365577,91.24446814064868 49.904102022759616,87.6889019983355 49.248758346773684,84.66666666674428" stroke="#4dd2ff" stroke-linecap="round" stroke-linejoin="round" stroke-width="0.5"><title>2023-10-27 1.0km</title><desc>10110442644</desc></polyline><polyline fill="none" points="81.41404024884105,88.37256468576379 84.50403534621,98.7843427869957 85.64245459251106,101.96080847084522 86.78087383881211,103.90197987528518 88.08192440588027,107.6078481967561 88.56981836911291,108.31372722890228 89.54560629464686,108.66666666674428 89.70823761448264,108.13725749030709 89.54560629464686,107.4313784064725 87.91929308418185,105.31373991095461 85.47982327174395,101.07845731358975 82.5524594951421,92.43139880825765 80.6008836440742,89.25492051360197 79.62509571854025,84.66666666674428" stroke="#4dd2ff" stroke-linecap="round" stroke-linejoin="round" stroke-width="0.5"><title>2023-10-26 1.0km</title><desc>10104873905</desc></polyline><polyline fill="none" points="114.13127636257559,96.14495791541412 117.81758440565318,105.36233329516836 119.58060129638761,108.49275449919514 120.22169834654778,108.66666666674428 120.06142408493906,106.92754441476427 115.73401898983866,99.4493041629903 113.32990504894406,93.36234696977772 111.24633963312954,89.0145108141005 110.444968319498,84.66666666674428" stroke="#4dd2ff" stroke-linecap="round" stroke-linejoin="round" stroke-width="0.5"><title>2023-10-25 1.0km</title><desc>10098978222</desc></polyline><polyline fill="none" points="141.56028478965163,84.66666666674428 141.39884060062468,85.8929498991929 142.36750573758036,89.9221617905423 143.65905925352126,92.54990500560962 144.46628019958735,95.70319303846918 145.9192779045552,99.90757059096359 148.98671750351787,105.8637594259344 149.95538264047354,108.31630344199948 150.27827101945877,108.66666666674428 150.601159398444,108.4914850606583 150.43971520848572,106.2141230108682 148.66382912546396,102.88566686934792 147.37227560952306,100.95866382028908 145.75783371459693,97.2798354900442 145.43494533654302,95.35282790777273 143.497615063563,92.37472221488133 142.36750573758036,89.74697880633175 142.04461735859513,86.59368289145641 141.56028478965163,84.66666666674428" stroke="#4dd2ff" stroke-linecap="round" stroke-linejoin="round" stroke-width="0.5"><title>2023-10-24 1.0km</title><desc>10092835699</desc></polyline><polyline fill="none" points="174.20028817560524,88.8105690763332 176.58710607048124,97.27101379283704 177.70095442142338,99.34295479184948 178.97392396442592,104.52279929211363 180.88337828032672,107.97602261207066 181.6789842452854,108.66666666674428 180.88337828032672,107.80336156650446 179.7695299293846,105.04078311379999 176.9053484564647,101.58755547762848 176.26886368449777,100.37892460590228 175.63237891253084,96.40770450374112 173.72292459663004,92.60913986200467 172.4499550536275,88.6379066221416 171.65434908866882,84.66666666674428" stroke="#4dd2ff" stroke-linecap="round" stroke-linejoin="round" stroke-width="0.5"><title>2023-10-23 1.0km</title><desc>10087395010</desc></polyline><polyline fill="none" points="15.56299334554933,111.44844300323166 15.987312252633274,111.33333333331393 19.010584466159344,111.56355265609454 20.33658105111681,111.90888151322724 20.654820231487975,112.08154588472098 21.34433845593594,112.5995387705043 21.821697226259857,113.17508601938607 22.88249449408613,115.13194349990226 23.412893128348514,117.31901371839922 24.10241135256365,118.47010085260263 24.420650532701984,119.39096934115514 25.163208620157093,121.06004071573261 25.693607254419476,122.78666253044503 26.48920520534739,124.16795724013355 26.860484248958528,124.5708344046725 27.337843019748107,125.37658811168512 27.603042336646467,127.10320040548686 27.76216192683205,127.56362970743794 28.186480833915994,128.19671955530066 28.292560560861602,129.175130131247 28.451680151047185,129.57800471881637 30.78543414035812,135.1031210012152 31.103673320729285,135.33333333331393 31.103673320729285,135.0455679075094 30.626314550172538,134.5851430062321 30.095915916375816,133.3189731311868 29.565517282346264,132.22546113672433 28.13344097044319,127.7938442567829" stroke="#4dd2ff" stroke-linecap="round" stroke-linejoin="round" stroke-width="0.5"><title>2023-10-22 1.5km</title><desc>10080655811</desc></polyline><polyline fill="none" points="50.182742876932025,111.33333333331393 51.02478488930501,111.94247898831964 49.50910926703364,111.69882078003138 51.866826901677996,114.74454323225655 52.09137143846601,115.47551495471271 51.922963035991415,116.08465756388614 51.13705715769902,116.5110571240657 50.912512620911,116.93745646456955 50.96864875522442,117.66842625197023 51.41773782833479,119.43493390904041 51.922963035991415,120.71412675781175 52.484324377495795,122.66336920537287 53.49477479234338,124.42986621236196 53.663183194817975,125.09991581586655 54.280680670635775,126.1963594526751 54.67363360989839,126.68366727011744 54.72976974374615,126.98823451029602 55.12272268324159,127.35371505090734 55.403403353877366,127.96284892683616 55.79635629313998,129.12020205735462 56.18930923216976,129.91207432042575 56.13317309808917,131.49581657606177 56.86294284206815,132.89681681717047 57.08748737885617,133.56685957341688 57.48044031788595,134.297814689402 58.15407392778434,135.15059484308586 58.49089073296636,135.33333333331393 57.199759647017345,133.50594661792275 56.91907897638157,132.531338721863 56.35771763464436,131.3130772394361 56.13317309808917,130.5212063154322 55.403403353877366,129.48568165750476 54.785905878059566,127.71919543022523" stroke="#4dd2ff" stroke-linecap="round" stroke-linejoin="round" stroke-width="0.5"><title>2023-10-20 1.4km</title><desc>10069668027</desc></polyline><polyline fill="none" points="79.83736122003756,111.33333333331393 79.95166430762038,112.26357861311408 80.86608900758438,114.49616309825797 81.09469518275,115.86051737458911 82.98069612612016,120.4496928343433 83.15215075737797,121.06984976516105 83.26645384496078,122.00008430652088 83.49506001989357,122.62024009751622 84.86669706972316,124.54272015171591 85.60966713842936,126.03108879737556 86.06687948829494,127.51945481676375 86.4669402949512,128.3256519807619 86.695546469884,129.5659538054024 86.98130418872461,130.1861040337826 87.72427425719798,132.10856684442842 87.83857734478079,132.85274482076056 88.92445667600259,135.0852748103789 89.21021439461038,135.33333333331393 89.38166902586818,135.33333333331393 89.49597211321816,135.27131870930316 89.438820569776,135.2093040808686 88.2957896948792,133.78296636772575 87.7814258011058,132.04655198345426 86.695546469884,130.06207402452128 86.52409183862619,129.25587852013996 86.40978875104338,127.89154591131955" stroke="#4dd2ff" stroke-linecap="round" stroke-linejoin="round" stroke-width="0.5"><title>2023-10-19 1.3km</title><desc>10064004415</desc></polyline><polyline fill="none" points="109.9215172091499,111.33333333337214 112.27448074053973,114.3971769734053 112.1176165053621,116.60995041404385 112.43134497571737,118.8227217401145 113.52939462475479,122.73761967383325 115.09803697932512,125.29081041237805 116.66667933389544,129.71633435611147 119.80396404396743,134.8226976256119 120.27455675043166,135.33333333337214 120.74514945689589,135.163121443009 118.70591439493,133.12057778669987 114.94117274414748,125.80144822213333 113.99998733121902,122.56740685773548 111.33329532761127,116.9503769093426" stroke="#4dd2ff" stroke-linecap="round" stroke-linejoin="round" stroke-width="0.5"><title>2023-10-18 1.0km</title><desc>10058081424</desc></polyline><polyline fill="none" points="141.81101204734296,112.78788541769609 143.15148819237947,120.60608821571805 146.67023807298392,129.878808330046 149.01607132609934,134.78788137435913 150.02142843510956,135.33333333325572 150.52410698961467,135.33333333325572 150.85922602564096,134.60606402833946 149.68630939908326,133.1515247754287 148.17827373649925,130.78789666621014 146.1675595184788,126.42426960589364 145.3297619279474,123.87881693197414 141.81101204734296,116.78789923968725 141.47589301131666,115.69698702078313 141.14077397529036,111.33333333325572" stroke="#4dd2ff" stroke-linecap="round" stroke-linejoin="round" stroke-width="0.5"><title>2023-10-17 1.0km</title><desc>10051702317</desc></polyline><polyline fill="none" points="171.30733834952116,111.88718207273632 173.0087124183774,114.84103995375335 175.56077352166176,121.4872074809391 176.92187277693301,124.07182343560271 178.4531094385311,128.87181743606925 180.3246209146455,133.67180226184428 181.00517054181546,134.96410430129617 181.85585757624358,135.33333333325572 182.02599498350173,135.14871882437728 181.85585757624358,134.5948752150871 179.9843461001292,131.82565533788875 177.43228499777615,125.54874564358033 175.56077352166176,121.67182299424894 174.02953686006367,114.47180790826678 173.17884982470423,111.33333333325572" stroke="#4dd2ff" stroke-linecap="round" stroke-linejoin="round" stroke-width="0.5"><title>2023-10-16 1.0km</title><desc>10046279660</desc></polyline><polyline fill="none" points="18.418252689763904,138.0 19.120407068170607,139.52381613338366 19.822561445645988,142.952399156522 21.402408795431256,148.2857415084727 23.5088719278574,151.5238368655555 25.966412249952555,160.66667249891907 26.844105222262442,161.6190493553877 28.072875382378697,162.0 28.248413977213204,161.6190493553877 28.072875382378697,160.47619708557613 25.790873655118048,157.23811291740276 24.562103495001793,153.42859694943763 23.15779474005103,151.14288468053564 19.822561445645988,143.33335254597478 18.593791285529733,138.0" stroke="#4dd2ff" stroke-linecap="round" stroke-linejoin="round" stroke-width="0.5"><title>2023-10-15 1.0km</title><desc>10039610121</desc></polyline><polyline fill="none" points="49.005642760545015,139.74194284738041 49.54075246397406,145.35486196051352 50.96771167591214,149.41938212374225 52.751410690136254,151.93551050825045 53.821630098856986,155.41937660961412 56.85391842201352,160.8387147146277 57.56739802658558,161.6129049619194 58.45924753509462,162.0 58.99435723852366,161.6129049619194 58.99435723852366,161.03226229758002 55.42695921007544,158.12904705642723 53.10815049242228,153.87099224491976 52.21630098577589,150.1935757289175 50.075862168334424,145.35486196051352 49.005642760545015,141.29033552249894 49.18401266168803,138.77419696352445 49.005642760545015,138.0" stroke="#4dd2ff" stroke-linecap="round" stroke-linejoin="round" stroke-width="0.5"><title>2023-10-14 1.0km</title><desc>10033377496</desc></polyline><polyline fill="none" points="79.22497104015201,138.38095411774702 82.38466527499259,142.19049221090972 82.73574241250753,145.0476421045605 85.71989807859063,154.1905005914159 88.52851517591625,160.85714789829217 89.4062080187723,162.0 90.1083622938022,162.0 90.1083622938022,161.4285740123596 89.93282372504473,160.85714789829217 88.35297660715878,159.714295292506 86.59759092144668,156.47621017182246 84.66666666697711,150.3809801430907 81.15589529555291,142.57144571188837 80.62927958928049,139.90477002691478 79.75158674642444,138.0" stroke="#4dd2ff" stroke-linecap="round" stroke-linejoin="round" stroke-width="0.5"><title>2023-10-13 1.0km</title><desc>10028006924</desc></polyline><polyline fill="none" points="110.1837562713772,138.0 111.87214219290763,140.19848289946094 112.88517374638468,142.030550500378 113.05401233956218,144.41223636828363 112.88517374638468,146.97712629567832 114.74239826016128,150.82445623748936 116.93729995936155,156.68704282096587 119.1322016576305,160.71756309713237 119.63871743436903,161.4503842657432 120.48291039466858,162.0 120.48291039466858,161.08397370832972 118.62568588089198,158.70230377395637 116.93729995936155,155.77101457677782 114.74239826016128,149.7252197174821 113.3916895231232,147.34353892738 112.7163351541385,145.32826878875494" stroke="#4dd2ff" stroke-linecap="round" stroke-linejoin="round" stroke-width="0.5"><title>2023-10-12 1.0km</title><desc>10021974100</desc></polyline><polyline fill="none" points="143.19400246907026,141.40299945976585 143.85423718206584,144.98509901948273 143.68917850404978,146.4179373686202 145.17470660805702,151.25376057485119 146.33011735603213,153.40301225171424 147.48552810493857,157.3433020687662 149.1361148878932,161.2835855127778 149.46623224485666,161.6417927823495 150.29152563679963,162.0 150.12646695785224,161.2835855127778 148.31082149595022,156.6268862124998 146.33011735603213,153.2239080176223 143.68917850404978,147.1343562270049 143.02894379012287,144.80599416652694 142.69882643409073,141.40299945976585 141.70847436320037,138.0" stroke="#4dd2ff" stroke-linecap="round" stroke-linejoin="round" stroke-width="0.5"><title>2023-10-10 1.0km</title><desc>10009069592</desc></polyline><polyline fill="none" points="172.6008836440742,141.0000131232664 173.73930289037526,144.17649351945147 174.8777221366763,148.41179417585954 177.31719195097685,153.70590948755853 179.26876780111343,160.41177212051116 180.40718704741448,162.0 180.73244968988,161.47059082356282 180.8950810097158,159.52942284429446 179.75666176434606,156.1764926367905 177.31719195097685,151.941205680836 174.5524594951421,144.17649351945147 173.73930289037526,140.64707059715874 172.4382523233071,138.0" stroke="#4dd2ff" stroke-linecap="round" stroke-linejoin="round" stroke-width="0.5"><title>2023-10-09 1.0km</title><desc>10003389142</desc></polyline><polyline fill="none" points="18.44682856090367,164.66666666674428 19.64702271670103,166.15504538011737 20.847216870635748,168.9457531075459 21.533042102120817,174.52715933020227 24.10488671902567,180.10855324263684 26.333818720653653,186.43411812884733 27.362556567415595,188.29457538062707 28.21983810607344,188.66666666674428 28.21983810607344,187.17830119398423 24.962168258614838,181.96901514474303 20.675760563462973,171.55041087651625 18.96119748428464,164.85271405405365" stroke="#4dd2ff" stroke-linecap="round" stroke-linejoin="round" stroke-width="0.5"><title>2023-10-08 1.0km</title><desc>9996447828</desc></polyline><polyline fill="none" points="50.91929880063981,169.46668642875738 51.70922218542546,172.38097932026722 54.078992338851094,178.7238394941669 54.868915723636746,181.46669260389172 57.396670552901924,187.80952806281857 58.186593937687576,188.66666666674428 58.34457861445844,187.98095580912195 58.34457861445844,187.2952447498683 55.342869753949344,181.9809772025328 53.92100766208023,178.8952679077629 51.39325283188373,171.3524057744071 50.603329447098076,167.40953631163575 49.65542138554156,164.66666666674428" stroke="#4dd2ff" stroke-linecap="round" stroke-linejoin="round" stroke-width="0.5"><title>2023-10-07 1.0km</title><desc>9989974159</desc></polyline><polyline fill="none" points="82.70586429908872,171.8156288531609 83.96077781356871,175.90074019122403 84.90196294989437,177.9432931577321 86.78433322254568,185.94327492523007 87.25492579024285,187.47518317366485 88.19611092656851,188.66666666662786 88.98043187335134,188.66666666662786 89.29416025150567,187.985819031368 89.13729606289417,187.47518317366485 87.25492579024285,184.75179003051016 85.37255551852286,180.6666943093296 84.74509876128286,177.9432931577321 81.45095078460872,169.94328374776524 80.98035821691155,167.04965651454404 80.0391730805859,164.66666666662786" stroke="#4dd2ff" stroke-linecap="round" stroke-linejoin="round" stroke-width="0.5"><title>2023-10-06 1.0km</title><desc>9984428862</desc></polyline><polyline fill="none" points="110.16645248699933,164.66666666674428 112.88586345873773,171.94537793379277 114.69880410656333,178.0437424001284 117.78080320823938,185.71585860056803 119.0498616611585,188.2732257801108 119.59374385606498,188.66666666674428 120.31892011594027,188.66666666674428 120.50021417904645,188.2732257801108 119.9563319850713,187.28962330752984 117.78080320823938,184.14209296857007 116.51174475438893,181.58472184138373 114.33621597662568,175.87980821286328 113.4297456536442,172.9289860459976 110.89162874687463,168.20766381011344 110.89162874687463,166.43716582423076" stroke="#4dd2ff" stroke-linecap="round" stroke-linejoin="round" stroke-width="0.5"><title>2023-10-04 1.0km</title><desc>9971682885</desc></polyline><polyline fill="none" points="142.36750600486994,167.4695988416206 143.1747268922627,170.27252771984786 143.98194778058678,172.19953941064887 144.62772449105978,175.17764532240108 147.69516386371106,181.30902812676504 147.85660804249346,183.411212884821 148.8252731077373,187.6155768376775 149.14816146250814,188.1411218100693 150.11682652775198,188.66666666674428 150.11682652775198,186.91485002753325 148.01805222034454,183.0608488873113 146.56505462154746,179.7323883411009 145.7578337341547,178.15574751212262 144.95061284583062,175.87837558449246 143.3361710710451,172.54990500560962 142.69039435964078,169.92216179030947 142.36750600486994,167.29441567743197 141.88317347224802,164.66666666674428" stroke="#4dd2ff" stroke-linecap="round" stroke-linejoin="round" stroke-width="0.5"><title>2023-10-03 1.0km</title><desc>9965060084</desc></polyline><polyline fill="none" points="172.27965140994638,165.6584064324852 174.47315903753042,172.7989219862502 174.83874364290386,175.97247838857584 176.1182897593826,177.55925518926233 177.03225127141923,179.93941864091903 178.6773819923401,186.0881645064801 179.95692810881883,188.0716279251501 180.87088961992413,188.66666666674428 181.0536819230765,188.46832043398172 180.505305015482,186.88155004871078 178.49458969011903,183.1129666438792 175.20432824734598,175.17908963747323 173.19361292105168,169.2286665714346 172.82802831754088,164.66666666674428" stroke="#4dd2ff" stroke-linecap="round" stroke-linejoin="round" stroke-width="0.5"><title>2023-10-02 1.0km</title><desc>9958643020</desc></polyline><polyline fill="none" points="19.529060496017337,195.55734932608902 19.88294634129852,197.2853538999334 23.775690640322864,206.50135898054577 25.722062789835036,212.4533449781593 26.783720325678587,214.5653367487248 27.845377860590816,215.33333333325572 28.02232078462839,215.14133420819417 27.845377860590816,214.37333756755106 24.30651940777898,208.99735476030037 20.94460387714207,200.74135961616412 19.352117572911084,195.74934989097528 18.644345882348716,191.33333333325572" stroke="#4dd2ff" stroke-linecap="round" stroke-linejoin="round" stroke-width="0.5"><title>2023-10-01 1.0km</title><desc>9952075403</desc></polyline><polyline fill="none" points="50.554102084599435,194.8116092903074 51.99657097924501,197.76813983242027 52.63766826596111,200.72466667951085 53.11849123053253,203.5072768072132 55.52260605618358,210.28987528034486 57.60617223754525,214.63768458599225 58.56781816761941,215.33333333325572 58.88836681190878,214.81159679195844 55.682880378328264,209.9420501908753 54.24041148275137,206.63770928792655 53.75958851817995,204.8985806433484 51.51574801467359,200.02901363628916 50.23355344124138,194.63769561378285 49.11163318902254,191.33333333325572" stroke="#4dd2ff" stroke-linecap="round" stroke-linejoin="round" stroke-width="0.5"><title>2023-09-30 1.0km</title><desc>9945549317</desc></polyline><polyline fill="none" points="80.95086747594178,191.33333333325572 82.54335284326226,194.0213443012908 83.0741812987253,196.13335097790696 84.48972384724766,199.5893582191784 85.19749512244016,204.77336050593294 85.72832357883453,206.30935920705087 87.85163740161806,211.4933481544722 88.38246585708112,214.75733591639437 88.73635149467736,215.141334208427 89.26717995014042,215.33333333325572 89.44412276893854,214.94933506916277 86.25915203429759,209.18935433751903 84.13583821058273,204.19736076006666 83.42806693632156,201.31736012455076 80.95086747594178,195.55734932702035 79.88921056408435,192.10133674927056" stroke="#4dd2ff" stroke-linecap="round" stroke-linejoin="round" stroke-width="0.5"><title>2023-09-28 1.0km</title><desc>9933629332</desc></polyline><polyline fill="none" points="110.64166337717324,194.06061778985895 111.98214050754905,198.78790372400545 114.49553512688726,202.24245311506093 116.17113154008985,208.42426629760303 118.51696651801467,212.60607233573683 119.18720508366823,214.96969870734029 119.85744364745915,215.33333333325572 120.19256293121725,214.7878813741263 119.85744364745915,214.0606119085569 118.51696651801467,212.24243730842136 114.66309476736933,204.42427129670978 112.65237907227129,198.96972223301418 110.47410373575985,191.33333333325572" stroke="#4dd2ff" stroke-linecap="round" stroke-linejoin="round" stroke-width="0.5"><title>2023-09-27 1.0km</title><desc>9927137811</desc></polyline><polyline fill="none" points="147.99376182234846,191.33333333331393 147.51525898487307,193.6410575414193 147.0367561476305,194.96799588744761 146.66458727419376,196.5833960623131 144.4847410148941,201.14111434057122 143.36823439458385,203.0449635036057 143.1555664667394,203.85265569214243 143.2619004305452,204.48727040010272 143.52773534017615,205.41034542239504 144.32524006906897,207.371876239602 144.5910749786999,207.89110416453332 144.91007687035017,208.81417518266244 145.97341650887392,210.1410878690076 146.4519193463493,211.1795397103415 146.98358916584402,211.98722352588084 147.40892502106726,213.14105610584375 148.04692880436778,214.00642942730337 148.8444335332606,215.33333333331393" stroke="#4dd2ff" stroke-linecap="round" stroke-linejoin="round" stroke-width="0.5"><title>2023-09-26 1.0km</title><desc>9920397094</desc></polyline><polyline fill="none" points="176.55458448408172,191.33333333331393 175.50848411442712,194.81985224795062 174.46238374477252,196.68472993309842 173.49100482976064,197.9009528112947 172.96795464493334,198.87393014802365 172.74379028007388,199.8469066261896 172.8185117347166,201.06312601669924 173.1921190097928,202.03610056336038 174.0887764696963,203.41447970166337 174.46238374477252,204.7928571170778 175.20959829445928,206.5766370970523 176.6293059391901,208.36041419196408 179.02039249846712,213.22524614958093 180.58954305341467,215.33333333331393" stroke="#4dd2ff" stroke-linecap="round" stroke-linejoin="round" stroke-width="0.5"><title>2023-09-25 1.0km</title><desc>9914573673</desc></polyline><polyline fill="none" points="25.102731857681647,218.0 24.512932349694893,218.89601189171663 24.39497244800441,219.3440174916177 24.512932349694893,219.92002435273025 24.571912300540134,220.4960308325244 23.392313283868134,222.67205187195214 23.097413529641926,224.14406301971758 22.684553874190897,225.23206965933787 20.207395939389244,229.5840826180647 20.148415988776833,230.09608271182515 20.384335791692138,231.12008199642878 21.033115250989795,232.14408007630846 21.386994956061244,233.04007740796078 21.917814513202757,233.93607381731272 22.212714267428964,234.83206930430606 22.979453628184274,236.04806170461234 23.569253136171028,237.26405240618624 24.218032595701516,237.96804624644574 24.39497244800441,238.60804015258327 24.80783210368827,239.12003493867815 25.692531366134062,240.656017490488 26.34131082519889,241.36000858753687 26.518250677734613,242.0" stroke="#4dd2ff" stroke-linecap="round" stroke-linejoin="round" stroke-width="0.5"><title>2023-09-24 1.0km</title><desc>9907510217</desc></polyline><polyline fill="none" points="54.89472190407105,218.0 54.3936776376795,218.77670756692532 54.03578887623735,219.55341456260066 53.82105561927892,220.56313280342147 53.74947786680423,221.88353212329093 52.53265607729554,223.5146113576484 51.8168785541784,225.37869882694213 51.17267878330313,226.31074132793583 50.743212269153446,227.55346338369418 50.67163451667875,228.87385396577884 52.17476731585339,232.67967640957795 52.74738933425397,233.84472135547549 54.60841089487076,236.7961628009216 55.39576617022976,238.73789609706728 56.39785470278002,239.9806035333895 56.970476721646264,240.99030224920716 57.32836548332125,242.0" stroke="#4dd2ff" stroke-linecap="round" stroke-linejoin="round" stroke-width="0.5"><title>2023-09-23 1.0km</title><desc>9901004991</desc></polyline><polyline fill="none" points="85.58823073608801,218.0 85.11038270010613,218.88889908476267 84.63253466435708,220.44447059562663 83.54031058191322,222.74078605504474 82.44808649970219,224.29635161813349 81.49239042773843,226.88895555236377 81.42412642249838,228.29636632249458 81.56065443321131,229.11118218576303 82.92593453568406,232.3704390480416 83.13072655117139,233.33339928498026 83.40378257166594,233.85191595437936 84.35947864339687,235.03709591110237 85.11038270010613,236.51856889599003 85.72475874633528,238.07411318598315 86.7487188235391,239.5555817053537 87.90920691075735,242.0" stroke="#4dd2ff" stroke-linecap="round" stroke-linejoin="round" stroke-width="0.5"><title>2023-09-22 1.0km</title><desc>9895405405</desc></polyline><polyline fill="none" points="116.60557971918024,218.0 116.40984950587153,218.7079731648555 116.01838907995261,219.13275681389496 115.17022482259199,220.69029525690712 114.84400780079886,221.8230489056441 113.86535673495382,224.30094286624808 112.82146226521581,226.42484689992853 112.1690282211639,227.9823735471 111.97329800785519,228.76113592577167 111.97329800785519,229.25671165710082 112.1690282211639,229.96467654500157 112.56048864754848,230.6726409124676 113.40865290467627,232.86732714337995 114.2568171613384,234.42484336928464 114.71352099208161,235.55758086033165 115.56168524897657,236.9735008503776 116.08363248384558,237.61066416668473 116.47509291023016,238.7433979100897 117.51898738043383,240.58408740104642 118.69336865912192,242.0" stroke="#4dd2ff" stroke-linecap="round" stroke-linejoin="round" stroke-width="0.5"><title>2023-09-21 1.0km</title><desc>9889267953</desc></polyline><polyline fill="none" points="148.44349841633812,218.0 147.58701443532482,220.56951311294688 147.08320032898337,222.59231506095966 146.27709775837138,224.2870908343466 145.31985095632263,227.12993184349034 143.65726440469734,230.24611046235077 143.20383170899004,231.94086878962116 143.25421311939135,232.32355561922304 143.55650158342905,233.14359816221986 144.2114599221386,234.5650030944962 144.61451120721176,235.76772822253406 145.6221394201275,237.18912813829957 146.22671634797007,238.33717993297614 146.57938622240908,239.1572158439085 146.98243750748225,239.86791290179826 147.6373958461918,240.35993354400853 148.44349841633812,241.56264929880854 148.4938798272051,241.7813246815349 148.7961682912428,242.0" stroke="#4dd2ff" stroke-linecap="round" stroke-linejoin="round" stroke-width="0.5"><title>2023-09-20 1.0km</title><desc>9882714971</desc></polyline><polyline fill="none" points="178.6566707023885,218.0 178.14495537918992,219.29564734915039 177.1783819901757,222.1337250273209 177.12152473186143,223.0591830642661 176.78038118290715,223.5527602666407 176.38238037587143,224.4782167383819 176.15495134308003,225.34197519125883 175.70009327773005,226.51421738340287 174.39237633999437,228.61190985055873 174.05123279080726,229.8458441462717 173.9375182746444,230.95638346107444 174.05123279080726,232.0669213059009 174.39237633999437,233.3008505209582 174.79037714679725,234.16459989198484 176.04123682668433,236.32396942953346 176.66666666674428,237.18771568854572 177.23523924825713,238.73011751146987 177.80381183000281,239.71725319017423 178.37238441151567,240.51930007420015 178.9978142513428,241.13625869411044 179.39581505861133,242.0" stroke="#4dd2ff" stroke-linecap="round" stroke-linejoin="round" stroke-width="0.5"><title>2023-09-19 1.0km</title><desc>9876194288</desc></polyline><polyline fill="none" points="23.1566754959058,244.66666666668607 22.732696686172858,245.35677022585878 22.026065336773172,246.73697597446153 21.81407593167387,247.65711212501628 20.542139502242208,249.88077113742474 19.55285561271012,251.951070093608 19.340866207610816,252.71784644178115 19.411529342876747,253.56129977334058 19.83550815284252,254.6347848455771 20.471476367209107,255.78494619642152 21.036781447241083,257.3951699566678 21.81407593167387,259.082068372285 22.662033551139757,260.6156100186636 23.439328036038205,261.6124108796939 24.357948790304363,263.1459488053806 24.92325387010351,264.909514632076 25.912537759868428,266.44304770964663 26.407179704634473,267.8232255515177 27.32580045913346,268.66666666668607" stroke="#4dd2ff" stroke-linecap="round" stroke-linejoin="round" stroke-width="0.5"><title>2023-09-18 1.0km</title><desc>9870505463</desc></polyline><polyline fill="none" points="54.241156979231164,244.66666666668607 53.896647008601576,245.33957158122212 53.41433305013925,247.58258474699687 52.79421510337852,248.6293225311092 52.51860712678172,249.45175860548625 51.00276325689629,251.9190628377255 50.45154730416834,253.2648626229493 50.107037333538756,254.46112760319375 50.38264530990273,255.2835589608876 51.89848917978816,258.57327773986617 52.65641111508012,259.76953647547634 53.20762706780806,261.04055983998114 54.10335299093276,262.2368156731827 54.58566694986075,263.0592407420627 55.20578489662148,265.00315189751564 57.892962666461244,268.66666666668607" stroke="#4dd2ff" stroke-linecap="round" stroke-linejoin="round" stroke-width="0.5"><title>2023-09-16 1.0km</title><desc>9856514700</desc></polyline><polyline fill="none" points="84.33490318711847,244.66666666668607 83.59765100991353,246.90668906579958 82.63922317977995,248.42670163878938 80.64864230202511,252.26672394300113 80.57491708407179,253.14672714582412 80.64864230202511,254.18673001305433 81.09099360834807,255.22673188633053 81.82824578508735,256.34673279197887 82.49177274433896,257.86673217703355 83.67137622786686,259.8667281328235 85.14588058181107,262.66671629523626 85.29333101725206,263.7067100632703 85.80940754106268,264.1067074016901 86.39920928282663,264.90670163731556 87.35763711296022,266.50668834423414 88.38979016058147,267.38668003020575 88.61096581351012,267.9466743689263 88.75841624941677,268.66666666668607" stroke="#4dd2ff" stroke-linecap="round" stroke-linejoin="round" stroke-width="0.5"><title>2023-09-15 1.0km</title><desc>9850671982</desc></polyline><polyline fill="none" points="115.94347230391577,244.66666666668607 114.723194363527,247.89428265637252 113.35038168076426,249.88050328032114 112.74024271033704,250.95637132163392 111.82503425516188,253.2736220715451 111.59623214136809,254.10121046897257 111.59623214136809,254.76328074838966 111.82503425516188,255.59086805046536 112.74024271033704,258.07362630584976 113.57918379455805,259.7287954335916 115.63840281870216,263.28740081668366 116.4773439024575,264.85980426258175 116.62987864483148,265.77014209574554 117.2400176152587,266.34944760613143 118.23149344138801,267.92184677446494 119.07043452514336,268.66666666668607" stroke="#4dd2ff" stroke-linecap="round" stroke-linejoin="round" stroke-width="0.5"><title>2023-09-14 1.0km</title><desc>9844236351</desc></polyline><polyline fill="none" points="142.1856623357162,244.66666666668607 142.62472278624773,245.02399198093917 142.78937045531347,245.38131713756593 142.89913556794636,246.15552110265708 143.22843090561219,246.81061618757667 143.4479611311108,248.65679039410315 143.4479611311108,249.5500989832217 143.3381960184779,250.02652982791187 143.4479611311108,250.6220679898397 143.7223739125766,251.33671320602298 143.61260880017653,251.93225040455582 143.66749135637656,252.2300188395311 144.216316919541,253.242430699931 144.7102599265054,254.7312693723943 145.1493203768041,255.56501783360727 145.69814593996853,256.3392120648059 146.3018540595658,256.87519225286087 146.46650172839873,257.2325121812755 146.63114939746447,258.0067048187484 147.070209847996,258.7808967162273 147.56415285472758,260.21017212141305 148.2227435305249,261.4607860322576 148.55203886842355,262.53273927618284 148.7166865374893,263.4260325622745 149.04598187538795,264.1406664822134 149.6496899947524,266.105906510551 150.47292833961546,267.6542740841396 150.52781089604832,267.8924842173583 150.47292833961546,268.0711417713319 149.81433766381815,268.66666666668607 150.1436330017168,268.42845676100114 150.30828067054972,268.0711417713319 150.4180457831826,267.7733791595092 150.3631632272154,267.35651131905615 150.03386788908392,266.93964326399146 149.04598187538795,264.7957470212714 148.55203886842355,263.18782111565815 147.50927029852755,260.8652558392496 147.01532729156315,258.6022371132858 146.74091451009735,257.947151565284 145.69814593996853,256.5774255255237 144.65537737007253,254.61216237925692 144.16143436310813,253.0042162584723 143.99678669450805,251.93225040455582 143.55772624374367,250.80072935303906 142.6796053426806,248.89500611420954 142.46007511741482,248.0016968025011 141.69171932898462,246.572399854369 141.52707165991887,245.7981962877093 141.47218910371885,244.8453293435159" stroke="#4dd2ff" stroke-linecap="round" stroke-linejoin="round" stroke-width="0.5"><title>2023-09-13 1.0km</title><desc>9837636972</desc></polyline></svg>