<svg xmlns="http://www.w3.org/2000/svg" xmlns:ev="http://www.w3.org/2001/xml-events" xmlns:xlink="http://www.w3.org/1999/xlink" width="200mm" height="300mm" baseProfile="full" version="1.1" viewBox="0 0 200 300"><rect width="200" height="300" x="0" y="0" fill="#222"/><text fill="#FFF" style="font-size:12px;font-family:Arial;font-weight:700" x="10" y="20">Over 1km Runs</text><text fill="#FFF" style="font-size:4px;font-family:Arial" x="10" y="280">ATHLETE</text><text fill="#FFF" style="font-size:9px;font-family:Arial" x="10" y="290">Jiakai</text><text fill="#FFF" style="font-size:4px;font-family:Arial" x="120" y="280">STATISTICS</text><text fill="#FFF" style="font-size:3px;font-family:Arial" x="120" y="285">Number: 87</text><text fill="#FFF" style="font-size:3px;font-family:Arial" x="120" y="290">Weekly: 5.8</text><text fill="#FFF" style="font-size:3px;font-family:Arial" x="141" y="285">Total: 89.7 km</text><text fill="#FFF" style="font-size:3px;font-family:Arial" x="141" y="290">Avg: 1.0 km</text><text fill="#FFF" style="font-size:3px;font-family:Arial" x="167" y="285">Min: 1.0 km</text><text fill="#FFF" style="font-size:3px;font-family:Arial" x="167" y="290">Max: 1.5 km</text><polyline fill="none" stroke="#4dd2ff" stroke-linecap="round" stroke-linejoin="round" stroke-width=".5" points="18.167 33.174 20.087 40.017 23.103 49.24 24.062 50.727 24.199 50.727 24.199 49.24 22.143 42.992 20.498 38.975 19.401 36.893 17.619 31.091"><title>2023-12-27 1.0km</title><desc>10441997651</desc></polyline><polyline fill="none" stroke="#4dd2ff" stroke-linecap="round" stroke-linejoin="round" stroke-width=".5" points="39.805 33.62 41.998 37.934 43.095 42.397 44.603 45.223 46.385 49.835 46.934 50.727 47.208 50.579 46.248 47.752 44.877 45.669 40.49 35.256 40.216 32.43 39.805 31.091"><title>2023-12-17 1.0km</title><desc>10391591057</desc></polyline><polyline fill="none" stroke="#4dd2ff" stroke-linecap="round" stroke-linejoin="round" stroke-width=".5" points="62.918 34.548 64.447 38.558 66.996 43.537 69.29 50.174 69.8 50.727 69.927 50.589 69.927 50.036 69.29 48.238 65.849 41.462 64.32 37.314 63.173 32.612 62.281 31.091"><title>2023-12-16 1.0km</title><desc>10386207035</desc></polyline><polyline fill="none" stroke="#4dd2ff" stroke-linecap="round" stroke-linejoin="round" stroke-width=".5" points="86.048 34.782 86.592 37.292 88.497 43.05 89.586 44.822 91.082 49.694 91.491 50.727 91.763 50.727 91.763 49.251 89.722 43.05 86.864 38.621 86.728 36.849 85.912 34.782 86.184 33.453 85.64 31.091"><title>2023-12-14 1.0km</title><desc>10376526598</desc></polyline><polyline fill="none" stroke="#4dd2ff" stroke-linecap="round" stroke-linejoin="round" stroke-width=".5" points="115.513 32.798 114.502 31.945 112.816 31.213 111.243 31.091 109.669 31.457 107.646 32.554 106.747 33.774 106.072 35.848 106.072 40.482 106.297 41.946 106.747 43.775 106.41 45.971 106.522 46.824 106.634 47.312 107.758 49.264 109.557 50.605 110.119 50.727 111.243 50.727 112.366 50.727 114.39 49.995 115.513 48.898 116.188 47.678 116.413 44.995 116.525 43.165 116.188 40.97 116.413 38.043 116.3 35.482 116.188 34.628 115.401 32.92 115.064 32.554 113.828 31.701 111.355 31.457 109.781 31.701 108.882 32.067 107.196 33.896 106.522 36.457 106.747 38.165"><title>2023-12-13 1.0km</title><desc>10373769329</desc></polyline><polyline fill="none" stroke="#4dd2ff" stroke-linecap="round" stroke-linejoin="round" stroke-width=".5" points="131.533 33.875 132.883 39.444 134.234 42.375 136.935 49.995 137.475 50.727 137.745 50.727 137.88 50.141 137.34 49.262 135.179 45.598 132.073 39.297 131.668 37.392 130.182 34.168 129.912 31.091"><title>2023-12-12 1.0km</title><desc>10365882163</desc></polyline><polyline fill="none" stroke="#4dd2ff" stroke-linecap="round" stroke-linejoin="round" stroke-width=".5" points="152.67 31.091 154.072 34.133 155.984 38.973 157.386 41.601 159.425 47.962 159.679 49.621 160.189 50.727 160.317 49.759 160.062 48.653 157.386 42.569 155.474 38.835 154.964 37.314 154.582 34.133 153.562 31.229"><title>2023-12-11 1.0km</title><desc>10361067591</desc></polyline><polyline fill="none" stroke="#4dd2ff" stroke-linecap="round" stroke-linejoin="round" stroke-width=".5" points="179.484 42.047 182.107 50.016 182.238 50.443 182.763 50.727 182.894 50.585 182.5 49.589 181.32 47.312 180.009 43.755 176.337 36.356 175.288 31.091"><title>2023-12-10 1.0km</title><desc>10355395415</desc></polyline><polyline fill="none" stroke="#4dd2ff" stroke-linecap="round" stroke-linejoin="round" stroke-width=".5" points="17.449 54.209 19.712 57.818 20.776 62.294 23.038 68.647 23.836 72.112 24.369 72.545 24.502 72.401 24.502 72.112 24.236 70.957 21.441 65.326 20.776 63.738 20.377 61.283 19.712 59.406 18.647 57.529 18.514 55.508 17.316 52.909"><title>2023-12-09 1.0km</title><desc>10350143310</desc></polyline><polyline fill="none" stroke="#4dd2ff" stroke-linecap="round" stroke-linejoin="round" stroke-width=".5" points="41.413 56.719 42.224 59.65 43.979 63.9 46.41 70.934 47.49 72.545 47.355 71.08 46.545 68.589 44.384 64.779 43.034 61.555 41.548 59.21 41.143 56.866 39.523 52.909"><title>2023-12-08 1.0km</title><desc>10345303898</desc></polyline><polyline fill="none" stroke="#4dd2ff" stroke-linecap="round" stroke-linejoin="round" stroke-width=".5" points="62.94 52.909 63.193 53.596 63.699 55.381 63.953 57.853 64.459 59.912 66.23 64.306 67.369 68.289 68.508 70.76 68.761 72.545 69.015 72.408 69.268 72.134 69.268 71.722 68.635 70.074 66.61 66.641 64.206 59.638 63.573 56.754"><title>2023-12-07 1.0km</title><desc>10340288256</desc></polyline><polyline fill="none" stroke="#4dd2ff" stroke-linecap="round" stroke-linejoin="round" stroke-width=".5" points="85.056 52.909 85.837 54.746 87.269 60.82 89.352 64.634 91.045 69.296 91.826 72.263 92.216 72.545 92.347 71.557 92.086 70.285 90.003 65.906 88.571 63.787 87.79 62.233 85.186 53.333"><title>2023-12-06 1.0km</title><desc>10334845031</desc></polyline><polyline fill="none" stroke="#4dd2ff" stroke-linecap="round" stroke-linejoin="round" stroke-width=".5" points="109.489 56.295 110.363 60.764 111.236 64.014 113.358 69.566 114.481 72.139 114.856 72.545 114.356 70.108 113.108 67.806 111.985 64.556 110.363 61.17 109.614 58.597 108.366 55.888 107.742 52.909"><title>2023-12-05 1.0km</title><desc>10329306344</desc></polyline><polyline fill="none" stroke="#4dd2ff" stroke-linecap="round" stroke-linejoin="round" stroke-width=".5" points="130.289 54.557 131.175 55.93 132.314 59.912 134.592 65.542 135.731 69.387 136.743 71.584 137.503 72.545 137.503 71.859 134.212 64.306 132.947 60.05 131.555 56.891 130.543 52.909"><title>2023-12-04 1.0km</title><desc>10324662812</desc></polyline><polyline fill="none" stroke="#4dd2ff" stroke-linecap="round" stroke-linejoin="round" stroke-width=".5" points="153.083 54.722 154.475 60.008 156.702 64.993 158.234 70.28 159.347 72.394 160.182 72.545 160.182 71.941 159.208 70.28 157.955 66.655 156.563 64.54 155.589 61.972 153.918 55.93 152.805 52.909"><title>2023-12-02 1.0km</title><desc>10313350310</desc></polyline><polyline fill="none" stroke="#4dd2ff" stroke-linecap="round" stroke-linejoin="round" stroke-width=".5" points="175.526 53.95 176.897 55.736 178.543 61.388 179.639 66 181.422 71.058 182.518 72.545 182.655 71.653 182.381 69.868 180.873 66.595 178.543 62.876 177.172 60.05 175.801 52.909"><title>2023-12-01 1.0km</title><desc>10308709030</desc></polyline><polyline fill="none" stroke="#4dd2ff" stroke-linecap="round" stroke-linejoin="round" stroke-width=".5" points="17.29 74.727 20.004 84.055 22.719 89.618 24.227 93.709 24.679 94.364 24.83 93.873 24.227 92.236 21.965 89.127 21.362 87.491 19.099 83.073 18.044 78 16.988 75.055"><title>2023-11-30 1.0km</title><desc>10303537703</desc></polyline><polyline fill="none" stroke="#4dd2ff" stroke-linecap="round" stroke-linejoin="round" stroke-width=".5" points="41.26 78.925 42.134 81.769 42.508 84.071 43.881 86.78 45.379 90.843 46.876 94.093 47.126 94.364 47.375 94.093 47.126 93.145 46.127 91.384 44.755 87.593 42.758 83.53 42.009 79.196 40.511 76.894 39.638 74.727"><title>2023-11-29 1.0km</title><desc>10298007687</desc></polyline><polyline fill="none" stroke="#4dd2ff" stroke-linecap="round" stroke-linejoin="round" stroke-width=".5" points="62.719 77.27 64.151 80.943 64.411 83.627 66.234 88.007 67.276 91.962 68.187 93.799 69.098 94.364 69.489 94.364 69.749 93.94 69.619 93.375 69.098 92.386 67.015 86.876 64.932 82.073 64.542 79.813 63.63 77.129 62.459 74.727"><title>2023-11-28 1.0km</title><desc>10292316108</desc></polyline><polyline fill="none" stroke="#4dd2ff" stroke-linecap="round" stroke-linejoin="round" stroke-width=".5" points="88.24 74.727 89.393 77.854 90.084 80.856 91.007 82.232 92.044 84.233 93.081 87.485 94.003 88.986 94.003 89.736 93.427 90.236 91.583 91.237 90.43 92.237 89.278 92.863 87.549 93.613 84.782 94.364 84.321 94.239 83.975 93.863 83.399 91.487"><title>2023-11-27 1.0km</title><desc>10287544518</desc></polyline><polyline fill="none" stroke="#4dd2ff" stroke-linecap="round" stroke-linejoin="round" stroke-width=".5" points="109.4 78.984 110.033 80.495 111.552 88.184 113.197 92.167 114.083 93.677 114.716 94.364 114.842 94.226 114.462 93.54 114.462 92.441 113.45 90.107 112.311 86.262 111.172 83.928 110.413 79.533 108.262 76.1 107.755 74.727"><title>2023-11-26 1.0km</title><desc>10281488289</desc></polyline><polyline fill="none" stroke="#4dd2ff" stroke-linecap="round" stroke-linejoin="round" stroke-width=".5" points="130.321 74.727 131.78 78.528 133.093 83.912 134.407 86.921 134.699 88.821 135.428 90.563 137.034 93.572 137.763 94.364 138.055 94.364 135.866 89.613 135.574 88.029 134.115 85.971 131.196 78.053 129.737 75.361"><title>2023-11-25 1.0km</title><desc>10275889695</desc></polyline><polyline fill="none" stroke="#4dd2ff" stroke-linecap="round" stroke-linejoin="round" stroke-width=".5" points="152.688 74.911 153.703 79.499 158.438 92.345 159.622 94.18 160.13 94.364 160.299 93.813 158.608 91.611 156.578 85.555 155.225 82.802 154.379 77.48 153.365 74.727"><title>2023-11-24 1.0km</title><desc>10271180196</desc></polyline><polyline fill="none" stroke="#4dd2ff" stroke-linecap="round" stroke-linejoin="round" stroke-width=".5" points="176.649 76.909 177.08 78.156 178.086 83.455 180.527 90.935 181.676 94.052 182.107 94.364 182.681 94.364 182.825 94.052 182.538 92.494 180.958 87.974 176.793 78.935 175.357 74.727"><title>2023-11-23 1.0km</title><desc>10265414399</desc></polyline><polyline fill="none" stroke="#4dd2ff" stroke-linecap="round" stroke-linejoin="round" stroke-width=".5" points="19.189 100.971 19.316 102.907 19.826 105.949 21.865 111.757 22.502 114.522 23.522 116.182 24.286 116.182 24.159 115.352 22.757 111.757 21.61 109.959 19.953 104.843 18.042 99.588 17.532 96.545"><title>2023-11-21 1.0km</title><desc>10253878272</desc></polyline><polyline fill="none" stroke="#4dd2ff" stroke-linecap="round" stroke-linejoin="round" stroke-width=".5" points="41.393 101.849 42.053 106.149 44.827 113.172 46.016 115.752 46.412 116.182 46.677 116.038 46.809 115.752 46.28 113.459 43.903 108.299 42.978 105.575 41.525 99.985 40.733 98.552 40.204 96.545"><title>2023-11-20 1.0km</title><desc>10248671423</desc></polyline><polyline fill="none" stroke="#4dd2ff" stroke-linecap="round" stroke-linejoin="round" stroke-width=".5" points="62.608 98.182 64.527 102.347 65.076 106.661 66.584 110.083 68.092 114.397 68.777 115.438 69.6 116.182 69.463 114.992 67.132 108.893 65.624 103.388 64.116 99.818 63.293 96.545"><title>2023-11-19 1.0km</title><desc>10242265034</desc></polyline><polyline fill="none" stroke="#4dd2ff" stroke-linecap="round" stroke-linejoin="round" stroke-width=".5" points="84.885 114.041 85.743 111.343 86.086 110.691 86.686 110.319 89.602 109.947 91.746 109.481 92.432 108.923 92.861 108.365 93.375 106.038 93.204 105.293 93.547 104.735 93.29 100.454 93.118 99.896 93.032 98.221 92.861 97.197 91.917 96.918 91.146 97.476 91.317 97.197 91.489 97.476 90.374 96.918 90.288 96.545 90.031 96.732 90.202 96.639 89.602 97.383 89.688 97.29 91.489 98.221 91.06 98.593 90.374 98.872 88.744 99.151 88.658 98.779 89.087 98.593 89.688 98.686 91.489 96.918 93.976 97.011 93.718 96.825 93.375 96.732 93.118 101.199 93.204 102.502 93.461 104.084 93.633 106.782 93.633 107.713 93.375 108.644 92.861 109.202 88.573 109.667 86.6 110.04 85.571 110.784 84.37 112.459 83.684 114.879 83.427 116.182"><title>2023-11-18 1.0km</title><desc>10236386505</desc></polyline><polyline fill="none" stroke="#4dd2ff" stroke-linecap="round" stroke-linejoin="round" stroke-width=".5" points="107.292 96.545 110.135 101.455 111.169 105.101 111.557 107.205 112.333 108.468 114.789 115.621 115.306 116.182 115.306 115.621 114.789 114.919 113.367 110.712 112.591 109.309 112.333 106.925 111.169 103.979 109.877 101.174 109.748 99.631"><title>2023-11-17 1.0km</title><desc>10231268371</desc></polyline><polyline fill="none" stroke="#4dd2ff" stroke-linecap="round" stroke-linejoin="round" stroke-width=".5" points="130.394 97.179 132.291 99.871 132.729 103.513 134.042 106.364 136.085 113.965 137.399 116.182 137.253 114.915 136.231 112.856 135.501 110.798 134.334 105.889 131.999 100.979 131.269 98.762 130.831 96.545"><title>2023-11-16 1.0km</title><desc>10225818993</desc></polyline><polyline fill="none" stroke="#4dd2ff" stroke-linecap="round" stroke-linejoin="round" stroke-width=".5" points="153.088 96.757 154.061 100.557 155.618 104.78 157.758 108.792 158.537 111.959 159.899 114.704 161.261 116.182 157.758 109.636 156.202 104.78 151.726 96.545"><title>2023-11-15 1.0km</title><desc>10219684298</desc></polyline><polyline fill="none" stroke="#4dd2ff" stroke-linecap="round" stroke-linejoin="round" stroke-width=".5" points="175.621 98.908 177.39 101.122 177.662 103.928 179.703 108.8 180.928 112.934 182.152 116.034 182.697 116.182 182.561 114.41 180.792 112.048 180.111 109.981 179.023 108.652 178.615 107.028 176.574 102.894 175.893 99.941 175.485 96.545"><title>2023-11-14 1.0km</title><desc>10213806154</desc></polyline><polyline fill="none" stroke="#4dd2ff" stroke-linecap="round" stroke-linejoin="round" stroke-width=".5" points="18.286 121.067 19.335 125.051 22.22 132.451 22.876 134.87 24.187 137.573 24.581 138 23.794 136.577 21.958 132.166 21.827 131.028 20.516 127.897 18.549 124.34 17.762 121.921 17.237 118.364"><title>2023-11-13 1.0km</title><desc>10208522228</desc></polyline><polyline fill="none" stroke="#4dd2ff" stroke-linecap="round" stroke-linejoin="round" stroke-width=".5" points="41.313 120.595 42.684 124.76 44.329 128.182 45.289 132.198 46.248 135.025 47.482 137.702 48.031 138 48.305 137.405 46.797 134.43 45.974 131.157 42.958 128.331 41.313 125.95 41.039 123.422 38.708 118.364"><title>2023-11-12 1.0km</title><desc>10202270880</desc></polyline><polyline fill="none" stroke="#4dd2ff" stroke-linecap="round" stroke-linejoin="round" stroke-width=".5" points="63.133 122.027 66.374 129.354 67.454 133.018 68.535 135.948 69.21 137.267 69.885 138 70.02 137.414 68.805 133.75 66.509 130.233 64.078 124.665 63.133 120.708 62.188 118.364"><title>2023-11-11 1.0km</title><desc>10196068378</desc></polyline><polyline fill="none" stroke="#4dd2ff" stroke-linecap="round" stroke-linejoin="round" stroke-width=".5" points="86.876 121.292 89.098 128.01 91.162 133.522 92.114 137.139 92.749 138 93.067 137.656 92.59 135.589 90.209 130.249 87.828 125.254 84.653 120.258 84.336 118.364"><title>2023-11-10 1.0km</title><desc>10191120477</desc></polyline><polyline fill="none" stroke="#4dd2ff" stroke-linecap="round" stroke-linejoin="round" stroke-width=".5" points="106.74 118.963 109.088 120.762 110.47 123.16 110.884 124.06 110.884 125.409 112.404 130.056 112.956 132.754 114.062 135.752 114.338 137.251 115.028 138 115.443 137.85 115.857 137.251 114.338 136.201 111.851 132.604 108.95 124.659 108.26 120.162 107.569 118.364"><title>2023-11-09 1.0km</title><desc>10185506531</desc></polyline><polyline fill="none" stroke="#4dd2ff" stroke-linecap="round" stroke-linejoin="round" stroke-width=".5" points="130.065 119.94 131.518 122.807 132.047 124.24 133.764 127.967 134.424 130.547 134.292 128.97 134.557 129.973 135.085 133.843 136.274 137.427 136.802 138 137.463 137.713 137.727 137.283 136.274 135.993 135.217 134.273 134.557 132.41 133.632 129.257 132.311 127.394 130.858 124.24 130.462 121.947 130.594 119.08 130.33 118.364"><title>2023-11-08 1.0km</title><desc>10179505859</desc></polyline><polyline fill="none" stroke="#4dd2ff" stroke-linecap="round" stroke-linejoin="round" stroke-width=".5" points="155.608 129.212 160.037 138 160.29 137.863 159.657 136.352 158.518 134.43 157.759 132.507 156.24 130.86 155.734 129.898 155.355 126.603 155.101 125.641 153.583 123.032 152.697 118.364"><title>2023-11-06 1.0km</title><desc>10167691585</desc></polyline><polyline fill="none" stroke="#4dd2ff" stroke-linecap="round" stroke-linejoin="round" stroke-width=".5" points="177.203 123.873 178.114 125.568 181.499 133.338 182.932 137.717 183.192 138 183.452 138 183.452 137.576 182.411 135.316 181.499 134.044 181.369 133.338 180.588 132.491 178.375 128.676 175.771 122.037 174.73 118.364"><title>2023-11-05 1.1km</title><desc>10161301187</desc></polyline><polyline fill="none" stroke="#4dd2ff" stroke-linecap="round" stroke-linejoin="round" stroke-width=".5" points="17.237 140.182 19.86 146.016 21.04 151.138 22.876 154.696 23.532 157.542 24.187 159.818 24.581 159.391 24.45 158.964 22.745 155.834 22.614 155.407 21.04 152.988 20.385 150.711 18.68 147.581 18.286 144.877 17.5 142.032"><title>2023-11-04 1.0km</title><desc>10155501797</desc></polyline><polyline fill="none" stroke="#4dd2ff" stroke-linecap="round" stroke-linejoin="round" stroke-width=".5" points="48.775 143.165 47.286 141.176 46.37 140.555 44.537 140.182 42.819 140.306 40.414 141.425 39.383 142.419 38.467 144.283 38.238 145.774 37.895 150.746 38.124 155.965 38.353 156.711 39.498 158.575 40.872 159.57 43.163 159.818 45.224 158.948 47.171 156.587 47.744 155.468 48.546 151.864 48.546 149.006 49.118 145.277 49.004 143.91 47.744 142.419 46.713 141.673 44.308 140.555 43.048 140.555 40.3 141.425 39.04 142.543 38.238 144.035 38.009 145.029 38.238 149.13 38.009 150.994"><title>2023-11-03 1.0km</title><desc>10152446508</desc></polyline><polyline fill="none" stroke="#4dd2ff" stroke-linecap="round" stroke-linejoin="round" stroke-width=".5" points="62.04 140.182 63.113 142.512 64.034 146.672 65.567 149.667 67.868 155.658 68.328 156.656 69.094 159.319 69.554 159.818 70.168 159.818 70.168 159.485 69.094 158.986 68.634 157.821 67.561 156.823 66.794 154.659 65.72 152.995 64.494 150.499 63.113 145.341 62.193 143.177"><title>2023-11-02 1.1km</title><desc>10144903556</desc></polyline><polyline fill="none" stroke="#4dd2ff" stroke-linecap="round" stroke-linejoin="round" stroke-width=".5" points="85.357 141.605 85.62 143.17 86.669 145.589 88.505 152.134 91.652 158.68 92.57 159.818 92.045 158.111 90.078 155.123 89.029 151.281 87.718 149.431 86.144 146.016 84.833 140.182"><title>2023-11-01 1.0km</title><desc>10138966680</desc></polyline><polyline fill="none" stroke="#4dd2ff" stroke-linecap="round" stroke-linejoin="round" stroke-width=".5" points="108.441 140.477 109.122 142.692 110.21 148.597 111.979 152.436 113.068 155.98 114.836 159.818 114.972 159.671 113.748 157.899 111.979 153.765 110.482 151.107 107.897 143.282 107.625 140.182"><title>2023-10-31 1.0km</title><desc>10133123337</desc></polyline><polyline fill="none" stroke="#4dd2ff" stroke-linecap="round" stroke-linejoin="round" stroke-width=".5" points="130.813 142.509 131.483 146 131.483 147.309 132.958 149.782 136.979 158.364 137.649 159.673 137.918 159.818 134.834 153.709 133.494 149.927 132.019 146.873 129.875 140.182"><title>2023-10-30 1.0km</title><desc>10127985445</desc></polyline><polyline fill="none" stroke="#4dd2ff" stroke-linecap="round" stroke-linejoin="round" stroke-width=".5" points="153.398 143.024 153.993 147.029 154.351 148.321 156.732 153.876 157.922 157.105 159.708 159.56 160.184 159.818 160.303 159.431 159.232 157.751 157.684 154.392 154.946 149.354 153.874 145.608 153.041 143.928 152.922 141.345 152.684 140.182"><title>2023-10-28 1.0km</title><desc>10115543824</desc></polyline><polyline fill="none" stroke="#4dd2ff" stroke-linecap="round" stroke-linejoin="round" stroke-width=".5" points="176.544 144.255 177.616 147.745 178.823 150.509 179.895 154.436 181.504 158.218 182.174 159.673 182.844 159.818 182.978 159.673 182.71 158.8 181.906 156.618 179.225 151.382 177.08 145.564 175.74 142.655 175.204 140.182"><title>2023-10-27 1.0km</title><desc>10110442644</desc></polyline><polyline fill="none" stroke="#4dd2ff" stroke-linecap="round" stroke-linejoin="round" stroke-width=".5" points="18.248 165.032 20.776 173.551 21.707 176.15 22.639 177.738 23.703 180.77 24.103 181.348 24.901 181.636 25.034 181.203 24.901 180.626 23.57 178.893 21.574 175.428 19.179 168.353 17.583 165.754 16.784 162"><title>2023-10-26 1.0km</title><desc>10104873905</desc></polyline><polyline fill="none" stroke="#4dd2ff" stroke-linecap="round" stroke-linejoin="round" stroke-width=".5" points="42.523 171.391 45.539 178.933 46.982 181.494 47.506 181.636 47.375 180.213 43.834 174.095 41.867 169.115 40.163 165.557 39.507 162"><title>2023-10-25 1.0km</title><desc>10098978222</desc></polyline><polyline fill="none" stroke="#4dd2ff" stroke-linecap="round" stroke-linejoin="round" stroke-width=".5" points="62.471 162 62.339 163.003 63.132 166.3 64.189 168.45 64.849 171.03 66.038 174.47 68.548 179.343 69.34 181.35 69.604 181.636 69.868 181.493 69.736 179.63 68.283 176.906 67.227 175.33 65.906 172.32 65.642 170.743 64.056 168.307 63.132 166.157 62.868 163.577 62.471 162"><title>2023-10-24 1.0km</title><desc>10092835699</desc></polyline><polyline fill="none" stroke="#4dd2ff" stroke-linecap="round" stroke-linejoin="round" stroke-width=".5" points="86.683 165.39 88.636 172.313 89.548 174.008 90.589 178.246 92.151 181.071 92.802 181.636 92.151 180.93 91.24 178.67 88.897 175.844 88.376 174.855 87.855 171.606 86.293 168.498 85.251 165.249 84.6 162"><title>2023-10-23 1.0km</title><desc>10087395010</desc></polyline><polyline fill="none" stroke="#4dd2ff" stroke-linecap="round" stroke-linejoin="round" stroke-width=".5" points="104.941 162.094 105.288 162 107.762 162.188 108.847 162.471 109.107 162.612 109.671 163.036 110.062 163.507 110.93 165.108 111.364 166.897 111.928 167.839 112.188 168.593 112.796 169.958 113.23 171.371 113.881 172.501 114.185 172.831 114.575 173.49 114.792 174.903 114.922 175.279 115.269 175.797 115.356 176.598 115.486 176.927 117.396 181.448 117.656 181.636 117.656 181.401 117.266 181.024 116.832 179.988 116.398 179.094 115.226 175.468"><title>2023-10-22 1.5km</title><desc>10080655811</desc></polyline><polyline fill="none" stroke="#4dd2ff" stroke-linecap="round" stroke-linejoin="round" stroke-width=".5" points="130.773 162 131.462 162.498 130.222 162.299 132.151 164.791 132.334 165.389 132.197 165.887 131.554 166.236 131.37 166.585 131.416 167.183 131.783 168.629 132.197 169.675 132.656 171.27 133.483 172.715 133.621 173.264 134.126 174.161 134.447 174.559 134.493 174.809 134.815 175.108 135.044 175.606 135.366 176.553 135.687 177.201 135.641 178.497 136.239 179.643 136.422 180.191 136.744 180.789 137.295 181.487 137.57 181.636 136.514 180.141 136.284 179.344 135.825 178.347 135.641 177.699 135.044 176.852 134.539 175.407"><title>2023-10-20 1.4km</title><desc>10069668027</desc></polyline><polyline fill="none" stroke="#4dd2ff" stroke-linecap="round" stroke-linejoin="round" stroke-width=".5" points="152.542 162 152.636 162.761 153.384 164.588 153.571 165.704 155.114 169.459 155.254 169.966 155.348 170.727 155.535 171.235 156.657 172.808 157.265 174.025 157.639 175.243 157.966 175.903 158.153 176.918 158.387 177.425 158.995 178.998 159.089 179.607 159.977 181.433 160.211 181.636 160.351 181.636 160.445 181.586 160.398 181.535 159.463 180.368 159.042 178.947 158.153 177.324 158.013 176.664 157.92 175.548"><title>2023-10-19 1.3km</title><desc>10064004415</desc></polyline><polyline fill="none" stroke="#4dd2ff" stroke-linecap="round" stroke-linejoin="round" stroke-width=".5" points="174.663 162 176.588 164.507 176.46 166.317 176.717 168.128 177.615 171.331 178.898 173.42 180.182 177.041 182.749 181.219 183.134 181.636 183.519 181.497 181.85 179.826 178.77 173.838 178 171.192 175.818 166.596"><title>2023-10-18 1.0km</title><desc>10058081424</desc></polyline><polyline fill="none" stroke="#4dd2ff" stroke-linecap="round" stroke-linejoin="round" stroke-width=".5" points="17.482 185.008 18.578 191.405 21.457 198.992 23.377 203.008 24.199 203.455 24.611 203.455 24.885 202.86 23.925 201.669 22.691 199.736 21.046 196.165 20.361 194.083 17.482 188.281 17.208 187.388 16.933 183.818"><title>2023-10-17 1.0km</title><desc>10051702317</desc></polyline><polyline fill="none" stroke="#4dd2ff" stroke-linecap="round" stroke-linejoin="round" stroke-width=".5" points="39.122 184.271 40.514 186.688 42.602 192.126 43.715 194.241 44.968 198.168 46.499 202.095 47.056 203.152 47.752 203.455 47.891 203.303 47.752 202.85 46.221 200.585 44.133 195.449 42.602 192.277 41.349 186.386 40.653 183.818"><title>2023-10-16 1.0km</title><desc>10046279660</desc></polyline><polyline fill="none" stroke="#4dd2ff" stroke-linecap="round" stroke-linejoin="round" stroke-width=".5" points="62.082 183.818 62.657 185.065 63.231 187.87 64.524 192.234 66.248 194.883 68.258 202.364 68.976 203.143 69.982 203.455 70.125 203.143 69.982 202.208 68.115 199.558 67.109 196.442 65.96 194.571 63.231 188.182 62.226 183.818"><title>2023-10-15 1.0km</title><desc>10039610121</desc></polyline><polyline fill="none" stroke="#4dd2ff" stroke-linecap="round" stroke-linejoin="round" stroke-width=".5" points="84.615 185.243 85.053 189.836 86.22 193.161 87.68 195.22 88.555 198.07 91.036 202.504 91.62 203.138 92.35 203.455 92.788 203.138 92.788 202.663 89.869 200.287 87.972 196.804 87.242 193.795 85.491 189.836 84.615 186.51 84.761 184.452 84.615 183.818"><title>2023-10-14 1.0km</title><desc>10033377496</desc></polyline><polyline fill="none" stroke="#4dd2ff" stroke-linecap="round" stroke-linejoin="round" stroke-width=".5" points="106.846 184.13 109.432 187.247 109.719 189.584 112.16 197.065 114.458 202.519 115.177 203.455 115.751 203.455 115.751 202.987 115.607 202.519 114.315 201.584 112.879 198.935 111.299 193.948 108.426 187.558 107.995 185.377 107.277 183.818"><title>2023-10-13 1.0km</title><desc>10028006924</desc></polyline><polyline fill="none" stroke="#4dd2ff" stroke-linecap="round" stroke-linejoin="round" stroke-width=".5" points="129.683 183.818 131.064 185.617 131.893 187.116 132.031 189.065 131.893 191.163 133.413 194.311 135.208 199.108 137.004 202.405 137.419 203.005 138.109 203.455 138.109 202.705 136.59 200.756 135.208 198.358 133.413 193.412 132.307 191.463 131.755 189.814"><title>2023-10-12 1.0km</title><desc>10021974100</desc></polyline><polyline fill="none" stroke="#4dd2ff" stroke-linecap="round" stroke-linejoin="round" stroke-width=".5" points="154.198 186.602 154.738 189.533 154.603 190.706 155.818 194.662 156.764 196.421 157.709 199.645 159.059 202.868 159.33 203.161 160.005 203.455 159.87 202.868 158.384 199.058 156.764 196.274 154.603 191.292 154.063 189.387 153.793 186.602 152.982 183.818"><title>2023-10-10 1.0km</title><desc>10009069592</desc></polyline><polyline fill="none" stroke="#4dd2ff" stroke-linecap="round" stroke-linejoin="round" stroke-width=".5" points="175.764 186.273 176.696 188.872 177.627 192.337 179.623 196.668 181.22 202.155 182.151 203.455 182.417 203.021 182.551 201.433 181.619 198.69 179.623 195.225 177.361 188.872 176.696 185.984 175.631 183.818"><title>2023-10-09 1.0km</title><desc>10003389142</desc></polyline><polyline fill="none" stroke="#4dd2ff" stroke-linecap="round" stroke-linejoin="round" stroke-width=".5" points="16.911 205.636 17.893 206.854 18.875 209.137 19.436 213.704 21.54 218.271 23.364 223.446 24.206 224.968 24.907 225.273 24.907 224.055 22.242 219.793 18.735 211.269 17.332 205.789"><title>2023-10-08 1.0km</title><desc>9996447828</desc></polyline><polyline fill="none" stroke="#4dd2ff" stroke-linecap="round" stroke-linejoin="round" stroke-width=".5" points="40.986 209.564 41.632 211.948 43.571 217.138 44.217 219.382 46.286 224.571 46.932 225.273 47.061 224.712 47.061 224.151 44.605 219.803 43.442 217.278 41.374 211.107 40.727 207.881 39.952 205.636"><title>2023-10-07 1.0km</title><desc>9989974159</desc></polyline><polyline fill="none" stroke="#4dd2ff" stroke-linecap="round" stroke-linejoin="round" stroke-width=".5" points="64.5 211.486 65.526 214.828 66.296 216.499 67.837 223.044 68.222 224.298 68.992 225.273 69.633 225.273 69.89 224.716 69.762 224.298 68.222 222.07 66.681 218.727 66.168 216.499 63.473 209.954 63.088 207.586 62.318 205.636"><title>2023-10-06 1.0km</title><desc>9984428862</desc></polyline><polyline fill="none" stroke="#4dd2ff" stroke-linecap="round" stroke-linejoin="round" stroke-width=".5" points="84.474 205.636 86.699 211.592 88.182 216.581 90.704 222.858 91.742 224.951 92.187 225.273 92.78 225.273 92.929 224.951 92.484 224.146 90.704 221.571 89.665 219.478 87.885 214.811 87.144 212.396 85.067 208.534 85.067 207.085"><title>2023-10-04 1.0km</title><desc>9971682885</desc></polyline><polyline fill="none" stroke="#4dd2ff" stroke-linecap="round" stroke-linejoin="round" stroke-width=".5" points="108.327 207.93 108.987 210.223 109.648 211.8 110.176 214.236 112.686 219.253 112.818 220.973 113.61 224.413 113.874 224.843 114.667 225.273 114.667 223.839 112.95 220.686 111.761 217.963 111.101 216.673 110.44 214.81 109.119 212.086 108.591 209.936 108.327 207.786 107.93 205.636"><title>2023-10-03 1.0km</title><desc>9965060084</desc></polyline><polyline fill="none" stroke="#4dd2ff" stroke-linecap="round" stroke-linejoin="round" stroke-width=".5" points="130.307 206.448 132.101 212.29 132.401 214.887 133.447 216.185 134.195 218.132 135.541 223.163 136.588 224.786 137.336 225.273 137.485 225.11 137.037 223.812 135.392 220.729 132.7 214.237 131.055 209.369 130.755 205.636"><title>2023-10-02 1.0km</title><desc>9958643020</desc></polyline><polyline fill="none" stroke="#4dd2ff" stroke-linecap="round" stroke-linejoin="round" stroke-width=".5" points="153.381 209.092 153.67 210.506 156.855 218.047 158.448 222.916 159.317 224.644 160.185 225.273 160.33 225.116 160.185 224.487 157.29 220.089 154.539 213.334 153.236 209.249 152.657 205.636"><title>2023-10-01 1.0km</title><desc>9952075403</desc></polyline><polyline fill="none" stroke="#4dd2ff" stroke-linecap="round" stroke-linejoin="round" stroke-width=".5" points="176.272 208.482 177.452 210.901 177.976 213.32 178.37 215.597 180.337 221.146 182.041 224.704 182.828 225.273 183.09 224.846 180.468 220.862 179.288 218.158 178.894 216.735 177.058 212.751 176.009 208.34 175.091 205.636"><title>2023-09-30 1.0km</title><desc>9945549317</desc></polyline><polyline fill="none" stroke="#4dd2ff" stroke-linecap="round" stroke-linejoin="round" stroke-width=".5" points="17.869 227.455 19.172 229.654 19.606 231.382 20.764 234.209 21.343 238.451 21.778 239.708 23.515 243.949 23.949 246.62 24.239 246.934 24.673 247.091 24.818 246.777 22.212 242.064 20.475 237.98 19.896 235.623 17.869 230.911 17 228.083"><title>2023-09-28 1.0km</title><desc>9933629332</desc></polyline><polyline fill="none" stroke="#4dd2ff" stroke-linecap="round" stroke-linejoin="round" stroke-width=".5" points="39.668 229.686 40.765 233.554 42.821 236.38 44.192 241.438 46.111 244.86 46.66 246.793 47.208 247.091 47.482 246.645 47.208 246.05 46.111 244.562 42.958 238.165 41.313 233.703 39.531 227.455"><title>2023-09-27 1.0km</title><desc>9927137811</desc></polyline><polyline fill="none" stroke="#4dd2ff" stroke-linecap="round" stroke-linejoin="round" stroke-width=".5" points="67.735 227.455 67.344 229.343 66.952 230.428 66.648 231.75 64.864 235.479 63.951 237.037 63.777 237.698 63.864 238.217 64.081 238.972 64.734 240.577 64.951 241.002 65.212 241.757 66.082 242.843 66.474 243.692 66.909 244.353 67.257 245.297 67.779 246.005 68.431 247.091"><title>2023-09-26 1.0km</title><desc>9920397094</desc></polyline><polyline fill="none" stroke="#4dd2ff" stroke-linecap="round" stroke-linejoin="round" stroke-width=".5" points="88.61 227.455 87.754 230.307 86.898 231.833 86.103 232.828 85.675 233.624 85.492 234.42 85.553 235.415 85.858 236.211 86.592 237.339 86.898 238.467 87.509 239.926 88.671 241.386 90.627 245.366 91.911 247.091"><title>2023-09-25 1.0km</title><desc>9914573673</desc></polyline><polyline fill="none" stroke="#4dd2ff" stroke-linecap="round" stroke-linejoin="round" stroke-width=".5" points="112.746 227.455 112.264 228.188 112.167 228.554 112.264 229.025 112.312 229.497 111.347 231.277 111.106 232.482 110.768 233.372 108.741 236.932 108.693 237.351 108.886 238.189 109.417 239.027 109.706 239.76 110.141 240.493 110.382 241.226 111.009 242.221 111.492 243.216 112.023 243.792 112.167 244.316 112.505 244.735 113.229 245.991 113.76 246.567 113.905 247.091"><title>2023-09-24 1.0km</title><desc>9907510217</desc></polyline><polyline fill="none" stroke="#4dd2ff" stroke-linecap="round" stroke-linejoin="round" stroke-width=".5" points="134.628 227.455 134.218 228.09 133.925 228.726 133.75 229.552 133.691 230.632 132.696 231.967 132.11 233.492 131.583 234.254 131.231 235.271 131.173 236.351 132.403 239.465 132.871 240.418 134.394 242.833 135.038 244.422 135.858 245.439 136.326 246.265 136.619 247.091"><title>2023-09-23 1.0km</title><desc>9901004991</desc></polyline><polyline fill="none" stroke="#4dd2ff" stroke-linecap="round" stroke-linejoin="round" stroke-width=".5" points="157.248 227.455 156.857 228.182 156.466 229.455 155.572 231.333 154.678 232.606 153.896 234.727 153.841 235.879 153.952 236.546 155.069 239.212 155.237 240 155.46 240.424 156.242 241.394 156.857 242.606 157.359 243.879 158.197 245.091 159.146 247.091"><title>2023-09-22 1.0km</title><desc>9895405405</desc></polyline><polyline fill="none" stroke="#4dd2ff" stroke-linecap="round" stroke-linejoin="round" stroke-width=".5" points="180.132 227.455 179.972 228.034 179.651 228.381 178.957 229.656 178.691 230.582 177.89 232.61 177.036 234.348 176.502 235.622 176.342 236.259 176.342 236.665 176.502 237.244 176.822 237.823 177.516 239.619 178.21 240.893 178.584 241.82 179.278 242.978 179.705 243.5 180.025 244.426 180.879 245.932 181.84 247.091"><title>2023-09-21 1.0km</title><desc>9889267953</desc></polyline><polyline fill="none" stroke="#4dd2ff" stroke-linecap="round" stroke-linejoin="round" stroke-width=".5" points="22.908 249.273 22.208 251.375 21.795 253.03 21.136 254.417 20.353 256.743 18.992 259.292 18.621 260.679 18.663 260.992 18.91 261.663 19.446 262.826 19.776 263.81 20.6 264.973 21.095 265.912 21.383 266.583 21.713 267.165 22.249 267.567 22.908 268.551 22.95 268.73 23.197 268.909"><title>2023-09-20 1.0km</title><desc>9882714971</desc></polyline><polyline fill="none" stroke="#4dd2ff" stroke-linecap="round" stroke-linejoin="round" stroke-width=".5" points="45.135 249.273 44.716 250.333 43.925 252.655 43.879 253.412 43.6 253.816 43.274 254.573 43.088 255.28 42.716 256.239 41.646 257.955 41.367 258.965 41.274 259.873 41.367 260.782 41.646 261.792 41.971 262.498 42.995 264.265 43.506 264.972 43.972 266.234 44.437 267.041 44.902 267.698 45.414 268.202 45.739 268.909"><title>2023-09-19 1.0km</title><desc>9876194288</desc></polyline><polyline fill="none" stroke="#4dd2ff" stroke-linecap="round" stroke-linejoin="round" stroke-width=".5" points="65.959 249.273 65.612 249.837 65.034 250.967 64.861 251.719 63.82 253.539 63.011 255.233 62.837 255.86 62.895 256.55 63.242 257.428 63.762 258.37 64.225 259.687 64.861 261.067 65.555 262.322 66.191 263.137 66.942 264.392 67.405 265.835 68.214 267.09 68.619 268.219 69.37 268.909"><title>2023-09-18 1.0km</title><desc>9870505463</desc></polyline><polyline fill="none" stroke="#4dd2ff" stroke-linecap="round" stroke-linejoin="round" stroke-width=".5" points="88.899 249.273 88.617 249.823 88.222 251.658 87.715 252.515 87.489 253.188 86.249 255.207 85.798 256.308 85.516 257.286 85.742 257.959 86.982 260.651 87.602 261.63 88.053 262.67 88.786 263.648 89.18 264.321 89.688 265.912 91.886 268.909"><title>2023-09-16 1.0km</title><desc>9856514700</desc></polyline><polyline fill="none" stroke="#4dd2ff" stroke-linecap="round" stroke-linejoin="round" stroke-width=".5" points="111.027 249.273 110.424 251.105 109.64 252.349 108.011 255.491 107.951 256.211 108.011 257.062 108.373 257.913 108.976 258.829 109.519 260.073 110.484 261.709 111.691 264 111.811 264.851 112.234 265.178 112.716 265.833 113.5 267.142 114.345 267.862 114.526 268.32 114.646 268.909"><title>2023-09-15 1.0km</title><desc>9850671982</desc></polyline><polyline fill="none" stroke="#4dd2ff" stroke-linecap="round" stroke-linejoin="round" stroke-width=".5" points="134.395 249.273 133.397 251.914 132.274 253.539 131.774 254.419 131.026 256.315 130.838 256.992 130.838 257.534 131.026 258.211 131.774 260.242 132.461 261.596 134.146 264.508 134.832 265.794 134.957 266.539 135.456 267.013 136.267 268.3 136.954 268.909"><title>2023-09-14 1.0km</title><desc>9844236351</desc></polyline><polyline fill="none" stroke="#4dd2ff" stroke-linecap="round" stroke-linejoin="round" stroke-width=".5" points="153.373 249.273 153.732 249.565 153.867 249.857 153.956 250.491 154.226 251.027 154.405 252.537 154.405 253.268 154.316 253.658 154.405 254.145 154.63 254.73 154.54 255.217 154.585 255.461 155.034 256.289 155.438 257.507 155.797 258.19 156.247 258.823 156.74 259.262 156.875 259.554 157.01 260.187 157.369 260.821 157.773 261.99 158.312 263.013 158.582 263.89 158.716 264.621 158.986 265.206 159.48 266.814 160.153 268.081 160.198 268.276 160.153 268.422 159.614 268.909 159.884 268.714 160.018 268.422 160.108 268.178 160.063 267.837 159.794 267.496 158.986 265.742 158.582 264.426 157.728 262.526 157.324 260.675 157.1 260.139 156.247 259.018 155.393 257.41 154.989 256.094 154.855 255.217 154.495 254.292 153.777 252.732 153.597 252.001 152.969 250.832 152.834 250.199 152.789 249.419"><title>2023-09-13 1.0km</title><desc>9837636972</desc></polyline></svg>