<?xml version="1.0" encoding="utf-8" ?>
<svg baseProfile="full" height="300mm" version="1.1" viewBox="0,0,200,300" width="200mm" xmlns="http://www.w3.org/2000/svg" xmlns:ev="http://www.w3.org/2001/xml-events" xmlns:xlink="http://www.w3.org/1999/xlink"><defs /><rect fill="#222222" height="300" width="200" x="0" y="0" /><text fill="#FFFFFF" style="font-size:12px; font-family:Arial; font-weight:bold;" x="10" y="20">Over 1km Runs</text><text fill="#FFFFFF" style="font-size:4px; font-family:Arial" x="10" y="280">ATHLETE</text><text fill="#FFFFFF" style="font-size:9px; font-family:Arial" x="10" y="290">Jiakai</text><text fill="#FFFFFF" style="font-size:4px; font-family:Arial" x="120" y="280">STATISTICS</text><text fill="#FFFFFF" style="font-size:3px; font-family:Arial" x="120" y="285">Number: 68</text><text fill="#FFFFFF" style="font-size:3px; font-family:Arial" x="120" y="290">Weekly: 5.7</text><text fill="#FFFFFF" style="font-size:3px; font-family:Arial" x="141" y="285">Total: 70.4 km</text><text fill="#FFFFFF" style="font-size:3px; font-family:Arial" x="141" y="290">Avg: 1.0 km</text><text fill="#FFFFFF" style="font-size:3px; font-family:Arial" x="167" y="285">Min: 1.0 km</text><text fill="#FFFFFF" style="font-size:3px; font-family:Arial" x="167" y="290">Max: 1.5 km</text><polyline fill="none" points="21.492838048376143,31.20000000006985 22.760742927435786,34.63950713502709 23.521485855337232,37.941428037011065 24.535809758584946,39.45480650337413 25.676924149971455,41.656082087778486 26.818038541823626,45.233149390434846 27.83236244507134,46.884101223782636 27.83236244507134,47.70957659429405 27.19841000577435,48.25989330583252 25.1697621983476,49.360526243341155 23.901857319287956,50.461158533231355 22.633952439762652,51.14905338571407 20.732095120474696,51.974526875070296 17.689123410265893,52.800000000046566 17.181961458642036,52.66242117155343 16.801589994691312,52.24968462414108 16.16763755492866,49.63568437634967" stroke="#4dd2ff" stroke-linecap="round" stroke-linejoin="round" stroke-width="0.5"><title>2023-11-27 1.0km</title><desc>10287544518</desc></polyline><polyline fill="none" points="45.911950850859284,35.8825367607642 46.60796723375097,37.544079497340135 48.27840655297041,46.00282168900594 50.088049148675054,50.38322806544602 51.06247208546847,52.044759075855836 51.758488468360156,52.800000000046566 51.89769174531102,52.64895183732733 51.480081915389746,51.89371085760649 51.480081915389746,50.68532471288927 50.366455702111125,48.117501795408316 49.11362621281296,43.88813940610271 47.860796723049134,41.32030799333006 47.025577063672245,36.486734274891205 44.65912136109546,32.71049689524807 44.10230825422332,31.20000000006985" stroke="#4dd2ff" stroke-linecap="round" stroke-linejoin="round" stroke-width="0.5"><title>2023-11-26 1.0km</title><desc>10281488289</desc></polyline><polyline fill="none" points="70.06694425363094,31.200000000186265 71.6722731301561,35.380660529015586 73.11706911865622,41.30325031816028 74.56186510808766,44.612926399102435 74.88293088320643,46.70324575249106 75.68559532240033,48.61937020649202 77.45145708601922,51.929036068264395 78.2541215242818,52.800000000046566 78.57518729846925,52.800000000046566 76.16719398461282,47.57421160512604 75.84612820856273,45.83227957924828 74.24079933296889,43.56776603101753 71.03014157991856,34.85807836684398 69.42481270246208,31.896777267567813" stroke="#4dd2ff" stroke-linecap="round" stroke-linejoin="round" stroke-width="0.5"><title>2023-11-25 1.0km</title><desc>10275889695</desc></polyline><polyline fill="none" points="95.81414107698947,31.401869946159422 96.93037012219429,36.44861375866458 102.13943900447339,50.57944708853029 103.44170622434467,52.59813162800856 103.99982074741274,52.800000000046566 104.18585892301053,52.19439483853057 102.32547717820853,49.771972857415676 100.09301908686757,43.11030138889328 98.6047136913985,40.082263560267165 97.67452282086015,34.22804762376472 96.558293774724,31.199999999953434" stroke="#4dd2ff" stroke-linecap="round" stroke-linejoin="round" stroke-width="0.5"><title>2023-11-24 1.0km</title><desc>10271180196</desc></polyline><polyline fill="none" points="123.31426128279418,33.60000988165848 123.78821517433971,34.971442989772186 124.8941075867042,40.800024702679366 127.57984630484134,49.02858584676869 128.84372334834188,52.457144420361146 129.3176772389561,52.800000000046566 129.94961576070637,52.800000000046566 130.10760039184242,52.457144420361146 129.79163113050163,50.74286576360464 128.05380019638687,45.771450532600284 123.47224591299891,35.828588273143396 121.8923996090889,31.200000000186265" stroke="#4dd2ff" stroke-linecap="round" stroke-linejoin="round" stroke-width="0.5"><title>2023-11-23 1.0km</title><desc>10265414399</desc></polyline><polyline fill="none" points="150.10752255516127,36.06762531620916 150.24770607007667,38.197207790915854 150.80844012741,41.54369010857772 153.0513763576746,47.93241404858418 153.75229392945766,50.97465661051683 154.87376204458997,52.800000000046566 155.71486313082278,52.800000000046566 155.5746796168387,51.887328506447375 154.0326609578915,47.93241404858418 152.7710093287751,45.95495398482308 150.94862364185974,40.326788074104115 148.84587092557922,34.54649363504723 148.28513686871156,31.20000000006985" stroke="#4dd2ff" stroke-linecap="round" stroke-linejoin="round" stroke-width="0.5"><title>2023-11-21 1.0km</title><desc>10253878272</desc></polyline><polyline fill="none" points="175.67520384350792,37.03359808633104 176.40170264197513,41.76353083085269 179.45299759786576,49.489065213128924 180.76069543603808,52.32700962922536 181.19659471558407,52.800000000046566 181.48719423543662,52.642336554825306 181.63249399513006,52.32700962922536 181.05129495589063,49.804392555728555 178.435899279546,44.12849329179153 177.41880096122622,41.13287373445928 175.82050360320136,34.983957323478535 174.94870504410937,33.40730924997479 174.36750600486994,31.20000000006985" stroke="#4dd2ff" stroke-linecap="round" stroke-linejoin="round" stroke-width="0.5"><title>2023-11-20 1.0km</title><desc>10248671423</desc></polyline><polyline fill="none" points="18.154508493840694,57.00000800623093 20.26575873233378,61.58183999871835 20.868973086588085,66.32729890511837 22.52781255915761,70.09093153313734 24.186652032658458,74.83637229795568 24.94066997524351,75.98182200116571 25.845491506159306,76.80000000004657 25.69468791782856,75.49091505771503 23.131026913411915,68.78184264502488 21.47218744084239,62.727296523051336 19.813347967341542,58.80001455673482 18.908526436425745,55.20000000006985" stroke="#4dd2ff" stroke-linecap="round" stroke-linejoin="round" stroke-width="0.5"><title>2023-11-19 1.0km</title><desc>10242265034</desc></polyline><polyline fill="none" points="43.80197449494153,74.44551390595734 44.745351012796164,71.47680837207008 45.122701620683074,70.76022332918365 45.78306518262252,70.3507459963439 48.990545344073325,69.94126854289789 51.348986639175564,69.42942155664787 52.1036878535524,68.8152049247874 52.57537611294538,68.20098802214488 53.14140202384442,65.64174801006448 52.952726719900966,64.82279021234717 53.330077326856554,64.20857154822443 53.04706437140703,59.49955278390553 52.8583890683949,58.885331770870835 52.76405141595751,57.042667104979046 52.57537611294538,55.916593053145334 51.53766194311902,55.60948178987019 50.688623076770455,56.22370424831752 50.87729838024825,55.916593053145334 51.06597368372604,56.22370424831752 49.83958421042189,55.60948178987019 49.745246558915824,55.20000000006985 49.46223360300064,55.40474090992939 49.650908906944096,55.302370458841324 48.990545344073325,56.121333857416175 49.08488299604505,56.01896345906425 51.06597368372604,57.042667104979046 50.59428542479873,57.45214835263323 49.83958421042189,57.75925920938607 48.047168826218694,58.06636999826878 47.95283117424697,57.65688893117476 48.42451943317428,57.45214835263323 49.08488299604505,57.55451864562929 51.06597368372604,55.60948178987019 53.80176558578387,55.711852218490094 53.51875263080001,55.50711135356687 53.14140202384442,55.40474090992939 52.8583890683949,60.318513713311404 52.952726719900966,61.751694180537015 53.235739674884826,63.49198276386596 53.42441497929394,66.46070532582235 53.42441497929394,67.48440129298251 53.14140202384442,68.50809650716837 52.57537611294538,69.1223132746527 47.8584935227409,69.63416037370916 45.688727531116456,70.04363791760989 44.55667570978403,70.8625926435925 43.23594858404249,72.70523901598062 42.48124736966565,75.36683502572123 42.19823441421613,76.80000000004657" stroke="#4dd2ff" stroke-linecap="round" stroke-linejoin="round" stroke-width="0.5"><title>2023-11-18 1.0km</title><desc>10236386505</desc></polyline><polyline fill="none" points="69.59222913486883,55.20000000006985 72.72032458754256,60.60002084262669 73.85781384306028,64.61145590234082 74.28437231387943,66.92574187146965 75.13748925551772,68.31431222811807 77.83902623690665,76.18286022823304 78.40777086513117,76.80000000004657 78.40777086513117,76.18286022823304 77.83902623690665,75.41143525834195 76.27497851056978,70.78287948272191 75.42186156893149,69.24002528889105 75.13748925551772,66.61717055668123 73.85781384306028,63.3771690079011 72.43595227366313,60.29144859779626 72.29376611672342,58.594300437602215" stroke="#4dd2ff" stroke-linecap="round" stroke-linejoin="round" stroke-width="0.5"><title>2023-11-17 1.0km</title><desc>10231268371</desc></polyline><polyline fill="none" points="96.14721154607832,55.89677726756781 98.23413862474263,58.85807836661115 98.71573718171567,62.86453866888769 100.16053285170346,66.00002461415716 102.40799278300256,74.36130018369295 103.85278845299035,76.80000000004657 103.69225560035557,75.40645755524747 102.56852563563734,73.14194933418185 101.76586137432605,70.87743894872256 100.48159855604172,65.4774439111352 97.91307292040437,60.077436567051336 97.11040865909308,57.638719538459554 96.62881010212004,55.199999999953434" stroke="#4dd2ff" stroke-linecap="round" stroke-linejoin="round" stroke-width="0.5"><title>2023-11-16 1.0km</title><desc>10225818993</desc></polyline><polyline fill="none" points="122.2542330333963,55.432258849730715 123.32445216644555,59.612915229285136 125.03680277988315,64.25808249553666 127.39128487277776,68.67098507285118 128.2474601790309,72.15485117421485 129.74576696474105,75.17419868800789 131.24407375138253,76.80000000004657 127.39128487277776,69.60001640883274 125.67893426027149,64.25808249553666 120.75592624768615,55.199999999953434" stroke="#4dd2ff" stroke-linecap="round" stroke-linejoin="round" stroke-width="0.5"><title>2023-11-15 1.0km</title><desc>10219684298</desc></polyline><polyline fill="none" points="148.18342350795865,57.79850741662085 150.12912917137146,60.23460534319747 150.42846850398928,63.32032552699093 152.6735135000199,68.67972402321175 154.02054049633443,73.22708224784583 155.3675674945116,76.6375947734341 155.96624615974724,76.80000000004657 155.81657649297267,74.85113648837432 153.87087083049119,72.25264913064893 153.12252249848098,69.97897018573713 151.92516516707838,68.51731819927227 151.4761561686173,66.73085334745701 149.23111117258668,62.183481750427745 148.48276284057647,58.93535344977863 148.03375384118408,55.20000000006985" stroke="#4dd2ff" stroke-linecap="round" stroke-linejoin="round" stroke-width="0.5"><title>2023-11-14 1.0km</title><desc>10213806154</desc></polyline><polyline fill="none" points="175.1150622102432,58.17392605240457 176.26903732679784,62.5565463474486 179.44246889511123,70.6956743884366 180.16370334243402,73.35653642215766 181.6061722380109,76.33043711271603 182.0389129067771,76.80000000004657 181.17343156971037,75.23478997324128 179.153975116089,70.38263157790061 179.0097282268107,69.13045987405349 177.56725933169946,65.68698389187921 175.40355598926544,61.773936242214404 174.5380746521987,59.11305973213166 173.96108709368855,55.20000000006985" stroke="#4dd2ff" stroke-linecap="round" stroke-linejoin="round" stroke-width="0.5"><title>2023-11-13 1.0km</title><desc>10208522228</desc></polyline><polyline fill="none" points="19.587142761796713,81.65455601131544 21.09517853613943,86.23638665652834 22.904821464791894,90.00002620217856 23.960446506738663,94.41820363525767 25.01607154775411,97.52728620090056 26.37330374494195,100.47272883669939 26.97651805356145,100.80000000004657 27.27812520880252,100.14545762503985 25.61928585730493,96.87274286395404 24.71446439344436,93.2727510688128 21.396785690449178,90.16366255970206 19.587142761796713,87.54547939402983 19.28553560655564,84.7636564061977 16.72187479119748,79.20000000006985" stroke="#4dd2ff" stroke-linecap="round" stroke-linejoin="round" stroke-width="0.5"><title>2023-11-12 1.0km</title><desc>10202270880</desc></polyline><polyline fill="none" points="44.731839370913804,83.22986689361278 48.29710551165044,91.2895784585271 49.485527558252215,95.31942313129548 50.67394960578531,98.54329353687353 51.41671338491142,99.99403367296327 52.159477164037526,100.80000000004657 52.30802992079407,100.1552269620588 50.97105511743575,96.12539117690176 48.445658267475665,92.25674185552634 45.771708661690354,86.13136646989733 44.731839370913804,81.77911566500552 43.69197007920593,79.19999999995343" stroke="#4dd2ff" stroke-linecap="round" stroke-linejoin="round" stroke-width="0.5"><title>2023-11-11 1.0km</title><desc>10196068378</desc></polyline><polyline fill="none" points="71.99192998278886,82.42106411675923 74.43653696030378,89.81054893764667 76.70652915351093,95.87370014633052 77.75421785749495,99.85263537522405 78.45267699379474,100.80000000004657 78.8019065624103,100.42105419188738 78.27806221041828,98.14737817179412 75.6588404495269,92.27370583638549 73.0396186877042,86.7789679847192 69.54732300620526,81.28421841817908 69.1980934375897,79.20000000018626" stroke="#4dd2ff" stroke-linecap="round" stroke-linejoin="round" stroke-width="0.5"><title>2023-11-10 1.0km</title><desc>10191120477</desc></polyline><polyline fill="none" points="94.98549491818994,79.85954506357666 97.5687248101458,81.83817909145728 99.08827180415392,84.47635507921223 99.54413590300828,85.465670274687 99.54413590300828,86.94964224973228 101.21563759725541,92.06109375844244 101.82345639448613,95.02902799856383 103.03909399081022,98.32672810310032 103.34300338942558,99.97557633731049 104.1027768868953,100.80000000004657 104.55864098481834,100.63511529180687 105.01450508274138,99.97557633731049 103.34300338942558,98.82138270081487 100.60781879909337,94.86414286575746 97.41677011083812,86.12521349603776 96.65699661336839,81.17863460932858 95.89722311589867,79.20000000006985" stroke="#4dd2ff" stroke-linecap="round" stroke-linejoin="round" stroke-width="0.5"><title>2023-11-09 1.0km</title><desc>10185506531</desc></polyline><polyline fill="none" points="121.78631037380546,80.9343146024039 123.3846064391546,84.08761028537992 123.96580500761047,85.66425638832152 125.85470035811886,89.76353083131835 126.58119856892154,92.6014854706591 126.4358989270404,90.86718030378688 126.726498211734,91.97082920849789 127.30769678018987,96.22775537776761 128.61539356131107,100.16934614919592 129.19659213069826,100.80000000004657 129.9230903419666,100.48467309738044 130.21368962619454,100.0116826571757 128.61539356131107,98.5927107098978 127.45299642300233,96.70074665301945 126.726498211734,94.65111704124138 125.7094007153064,91.18250862043351 124.25640429276973,89.13287373469211 122.6581082274206,85.66425638832152 122.2222093003802,83.1416220671963 122.36750894226134,79.98832499329001 122.0769096580334,79.20000000006985" stroke="#4dd2ff" stroke-linecap="round" stroke-linejoin="round" stroke-width="0.5"><title>2023-11-08 1.0km</title><desc>10179505859</desc></polyline><polyline fill="none" points="151.02557692071423,91.13289520586841 155.89769231854007,100.80000000004657 156.17609891248867,100.64895183767658 155.48008242761716,98.98742131562904 154.22725275345147,96.87274416279979 153.39203297067434,94.75806483370252 151.72159340558574,92.9454808193259 151.1647802181542,91.88813940575346 150.74717032629997,88.26296471385285 150.46876373235136,87.20562089059968 148.79832416726276,84.33568491286132 147.82390108751133,79.19999999995343" stroke="#4dd2ff" stroke-linecap="round" stroke-linejoin="round" stroke-width="0.5"><title>2023-11-06 1.0km</title><desc>10167691585</desc></polyline><polyline fill="none" points="175.92346751550213,85.26045393233653 176.92593147419393,87.12520549283363 180.64936903119087,95.6719624272082 182.22466953657568,100.48921019840054 182.511087810155,100.80000000004657 182.79750608326867,100.80000000004657 182.79750608326867,100.33381528023165 181.65183298895136,97.84749503829516 180.64936903119087,96.4489386169007 180.50615989463404,95.6719624272082 179.6469050734304,94.73959062295035 177.2123497473076,90.54391241364647 174.34816701058298,83.24030455225147 173.20249391626567,79.20000000006985" stroke="#4dd2ff" stroke-linecap="round" stroke-linejoin="round" stroke-width="0.5"><title>2023-11-05 1.1km</title><desc>10161301187</desc></polyline><polyline fill="none" points="17.96108798496425,103.19999999995343 20.846025138162076,109.61741418659221 22.144246857613325,115.25220093794633 24.1637028651312,119.1652385185007 24.884937153663486,122.29566340509336 25.606171442195773,124.80000000004657 26.03891201503575,124.33043711283244 25.894665156956762,123.8608741221251 24.019456007517874,120.41740902571473 23.875209149438888,119.94784517178778 22.144246857613325,117.28698137763422 21.42301256908104,114.78263594501186 19.54780341964215,111.33915616502054 19.115062846336514,108.36523732787464 18.2495817001909,105.23479195870459" stroke="#4dd2ff" stroke-linecap="round" stroke-linejoin="round" stroke-width="0.5"><title>2023-11-04 1.0km</title><desc>10155501797</desc></polyline><polyline fill="none" points="53.795107210054994,106.48102882597595 52.1573595199734,104.293676919071 51.149514788296074,103.61012892005965 49.133825324010104,103.20000000006985 47.24411645112559,103.3367096503498 44.59852402890101,104.56709604803473 43.46469870535657,105.66077216272242 42.45685397321358,107.71141314262059 42.20489279041067,109.3519242979819 41.82695101574063,114.82028435869142 42.07891219854355,120.56204510864336 42.330873381812125,121.3822951966431 43.59067929722369,123.43291883275378 45.102446395438164,124.52658384700771 47.62205822579563,124.80000000004657 49.88970887288451,123.84304328868166 52.0313789290376,121.24558687384706 52.66128188651055,120.01521151571069 53.54314602725208,116.05066315515433 53.54314602725208,112.90636016707867 54.17304898425937,108.80508740677033 54.04706839332357,107.30128512752708 52.66128188651055,105.66077216272242 51.52745656296611,104.840515137068 48.88186414074153,103.61012892005965 47.49607763392851,103.61012892005965 44.472543437965214,104.56709604803473 43.086756931152195,105.79748163174372 42.20489279041067,107.43799447582569 41.95293160714209,108.53166890132707 42.20489279041067,113.04306910349987 41.95293160714209,115.09370193921495" stroke="#4dd2ff" stroke-linecap="round" stroke-linejoin="round" stroke-width="0.5"><title>2023-11-03 1.0km</title><desc>10152446508</desc></polyline><polyline fill="none" points="69.52956787124276,103.19999999995343 70.71043673530221,105.76272166171111 71.72261004708707,110.33900378202088 73.4095655689016,113.63392170099542 75.93999884836376,120.2237444575876 76.44608550425619,121.32204655488022 77.28956326469779,124.25084977876395 77.79564992152154,124.80000000004657 78.47043212968856,124.80000000004657 78.47043212968856,124.43389986595139 77.28956326469779,123.88474956410937 76.78347660880536,122.60339838941582 75.60260774474591,121.50509685720317 74.75912998430431,119.12544187624007 73.57826111931354,117.29493649699725 72.22869670391083,114.54917590436526 70.71043673530221,108.87459441879764 69.69826342258602,106.49492736603133" stroke="#4dd2ff" stroke-linecap="round" stroke-linejoin="round" stroke-width="0.5"><title>2023-11-02 1.1km</title><desc>10144903556</desc></polyline><polyline fill="none" points="96.32170485937968,104.76522475562524 96.61019859556109,106.48697065818124 97.7641735416837,109.14784795034211 99.78362969774753,116.34785218513571 103.24555453751236,123.547832070617 104.25528261484578,124.80000000004657 103.6782951420173,122.92174782999791 101.51459211762995,119.63480254472233 100.36061717150733,115.40872257878073 98.91814848827198,113.37394034443423 97.18718606885523,109.61741418624297 95.74471738561988,103.20000000006985" stroke="#4dd2ff" stroke-linecap="round" stroke-linejoin="round" stroke-width="0.5"><title>2023-11-01 1.0km</title><desc>10138966680</desc></polyline><polyline fill="none" points="122.85693746805191,103.5248135945294 123.60528569016606,105.96091402857564 124.80264284554869,112.4571687191492 126.74834822211415,116.67972402344458 127.94570537656546,120.57746021717321 129.89141075406224,124.80000000004657 130.04108039848506,124.63759477273561 128.6940535986796,122.68873111752328 126.74834822211415,118.14137590187602 125.10198213439435,115.2180711774854 122.25825889129192,106.61054035718553 121.95891960151494,103.20000000006985" stroke="#4dd2ff" stroke-linecap="round" stroke-linejoin="round" stroke-width="0.5"><title>2023-10-31 1.0km</title><desc>10133123337</desc></polyline><polyline fill="none" points="148.6085969740525,105.76001119834837 149.34585850220174,109.60002234985586 149.34585850220174,111.04002478462644 150.96783386170864,113.76002678414807 155.3914030259475,123.20000735193025 156.12866455409676,124.64000078791287 156.42356916423887,124.80000000004657 153.03216613829136,118.08002297277562 151.5576430838555,113.92002679605503 149.93566772341728,110.56002407881897 147.57643083576113,103.20000000006985" stroke="#4dd2ff" stroke-linecap="round" stroke-linejoin="round" stroke-width="0.5"><title>2023-10-30 1.0km</title><desc>10127985445</desc></polyline><polyline fill="none" points="174.59501596633345,106.32633072906174 175.24982058815658,110.7316063559847 175.6427033613436,112.15266086801421 178.26192184910178,118.26318336534314 179.57153109228238,121.81580384413246 181.5359449586831,124.51579104084522 182.059788656421,124.80000000004657 182.19074958004057,124.37368654541206 181.0121012609452,122.52632715599611 179.30960924411193,118.83160308073275 176.29750798316672,113.28950372571126 175.11885966314003,109.16844518610742 174.20213319268078,107.32107126468327 174.07117226859555,104.47895409131888 173.80925041995943,103.20000000006985" stroke="#4dd2ff" stroke-linecap="round" stroke-linejoin="round" stroke-width="0.5"><title>2023-10-28 1.0km</title><desc>10115543824</desc></polyline><polyline fill="none" points="19.198405783623457,131.68001762102358 20.378024401143193,135.52002538449597 21.705095345154405,138.5600267255213 22.88471396267414,142.88002132612746 24.654141888953745,147.04000802256633 25.39140352420509,148.64000078849494 26.128665159456432,148.80000000004657 26.27611748687923,148.64000078849494 25.981212832964957,147.68000526994 25.096498869359493,145.28001462155953 22.147452327422798,139.5200262669241 19.788215091452003,133.1200213264674 18.313691820017993,129.92001179850195 17.723882512189448,127.20000000006985" stroke="#4dd2ff" stroke-linecap="round" stroke-linejoin="round" stroke-width="0.5"><title>2023-10-27 1.0km</title><desc>10110442644</desc></polyline><polyline fill="none" points="45.07263622339815,130.53530821716413 47.853631811216474,139.9059085083427 48.87820913270116,142.76472762366757 49.902786455117166,144.51178188773338 51.073731964454055,147.84706337715033 51.51283653173596,148.48235450603534 52.391045664437115,148.80000000004657 52.53741385228932,148.32353174127638 52.391045664437115,147.68824056594167 50.92736377567053,145.7823659197893 48.73184094391763,141.97061158227734 46.09721354581416,134.18825892731547 44.34079527948052,131.3294284621952 43.46258614677936,127.20000000006985" stroke="#4dd2ff" stroke-linecap="round" stroke-linejoin="round" stroke-width="0.5"><title>2023-10-26 1.0km</title><desc>10104873905</desc></polyline><polyline fill="none" points="72.91814872715622,137.53046212380286 76.23582596611232,145.82609996548854 77.82254116702825,148.64347904920578 78.39952851226553,148.80000000004657 78.25528167653829,147.23478997312486 74.36061709094793,140.50437374645844 72.19691454432905,135.02611227263696 70.32170567009598,131.11305973259732 69.60047148773447,127.19999999995343" stroke="#4dd2ff" stroke-linecap="round" stroke-linejoin="round" stroke-width="0.5"><title>2023-10-25 1.0km</title><desc>10098978222</desc></polyline><polyline fill="none" points="96.0042563113384,127.20000000006985 95.85895654093474,128.30365490925033 96.73075516428798,131.92994561139494 97.89315332844853,134.2949145049788 98.6196521804668,137.1328737345757 99.927350115031,140.9168135318905 102.68804575363174,146.27738348336425 103.55984437698498,148.48467309772968 103.85044391779229,148.80000000004657 104.14104345906526,148.64233655459248 103.99574368819594,146.5927107097814 102.3974462132901,143.59710018232 101.2350480495952,141.86279743816704 99.78205034416169,138.55185194103979 99.49145080335438,136.81754511699546 97.74785355757922,134.1372499933932 96.73075516428798,131.772280925652 96.44015562301502,128.9343146022875 96.0042563113384,127.20000000006985" stroke="#4dd2ff" stroke-linecap="round" stroke-linejoin="round" stroke-width="0.5"><title>2023-10-24 1.0km</title><desc>10092835699</desc></polyline><polyline fill="none" points="123.78025935776532,130.92951216874644 125.92839546268806,138.54391241353005 126.93085897853598,140.40865931252483 128.0765315676108,145.07051936292555 129.79504045145586,148.17842035088688 130.51108582038432,148.80000000004657 129.79504045145586,148.02302540978417 128.7925769360736,145.53670480242 126.21481360960752,142.4287999299122 125.64197731530294,141.34103214519564 125.06914102099836,137.7669340533903 123.35063213668764,134.34822587575763 122.20495954761282,130.77411595988087 121.48891417961568,127.20000000006985" stroke="#4dd2ff" stroke-linecap="round" stroke-linejoin="round" stroke-width="0.5"><title>2023-10-23 1.0km</title><desc>10087395010</desc></polyline><polyline fill="none" points="145.00669401115738,127.30359870288521 145.38858102750964,127.19999999995343 148.10952601977624,127.40719739045016 149.3029229461681,127.71799336187541 149.58933820854872,127.87339129624888 150.2099046104122,128.33958489343058 150.6395275038667,128.85757741745329 151.59424504474737,130.6187491499004 152.07160381553695,132.58711234654766 152.69217021740042,133.62309076730162 152.9785854795482,134.45187240705127 153.64688775828108,135.95403664413607 154.12424652907066,137.507996277418 154.84028468490578,138.7511615161202 155.1744358241558,139.11375096417032 155.60405871784315,139.8389293004875 155.84273810312152,141.39288036490325 155.9859457341954,141.80726673663594 156.36783275054768,142.37704759970075 156.463304504985,143.2576171181281 156.60651213605888,143.620204246894 158.706890726462,148.5928089010995 158.99330598884262,148.79999999998836 158.99330598884262,148.54101111670025 158.56368309538811,148.12662870559143 158.08632432483137,146.9870758180623 157.6089655540418,146.00291502301116 156.32009687367827,142.01445983105805" stroke="#4dd2ff" stroke-linecap="round" stroke-linejoin="round" stroke-width="0.5"><title>2023-10-22 1.5km</title><desc>10080655811</desc></polyline><polyline fill="none" points="174.56446858961135,127.20000000001164 175.32230640063062,127.74823108949931 173.95819834037684,127.5289387020166 176.0801442116499,130.27008890907746 176.28223429480568,130.92796345928218 176.13066673255526,131.47619180753827 175.4233514422085,131.85995141166495 175.22126135905273,132.24371081811842 175.2717838799581,132.90158362674993 175.675964045804,134.49144051817711 176.13066673255526,135.64271408203058 176.63589193997905,137.39703228487633 177.54529731348157,138.98687959113158 177.696864875732,139.58992423431482 178.2526126038283,140.57672350743087 178.6062702492345,141.0153005431057 178.6567927696742,141.2894110592897 179.0104504150804,141.61834354582243 179.2630630186759,142.16656403418165 179.6167206640821,143.2081818516017 179.97037830925547,143.92086688842392 179.91985578858294,145.3462349184556 180.57664855802432,146.6071351354476 180.7787386411801,147.21017361606937 181.13239628635347,147.86803322046762 181.73866653535515,148.63553535874235 182.041801659856,148.79999999998836 180.879783682758,147.1553519561421 180.62717107892968,146.27820484968834 180.12194587127306,145.18176951550413 179.91985578858294,144.46908568392973 179.2630630186759,143.53711349173682 178.70731529057957,141.94727588724345" stroke="#4dd2ff" stroke-linecap="round" stroke-linejoin="round" stroke-width="0.5"><title>2023-10-20 1.4km</title><desc>10069668027</desc></polyline><polyline fill="none" points="17.65362509805709,151.19999999995343 17.75649787695147,152.0372207518085 18.579480106709525,154.04654678847874 18.785225664265454,155.27446563716512 20.482626513345167,159.4047235508915 20.63693568157032,159.96286478859838 20.7398084604647,160.80007587582804 20.9455540177878,161.3582160877413 22.18002736265771,163.08844813657925 22.848700424656272,164.42797991767293 23.2601915395353,165.76750933506992 23.620246265316382,166.49308678269153 23.82599182263948,167.6093584248447 24.083173769759014,168.16749363043346 24.751846831291914,169.89771016000304 24.854719610186294,170.56747033866122 25.832011008402333,172.57674732932355 26.089192955056205,172.79999999998836 26.24350212328136,172.79999999998836 26.346374901710078,172.7441868383903 26.294938512612134,172.68837367277592 25.26621072529815,171.40466973098228 24.80328322085552,169.84189678513212 23.82599182263948,168.05586662207497 23.671682654647157,167.33029066812014 23.568809875752777,166.10239132016432" stroke="#4dd2ff" stroke-linecap="round" stroke-linejoin="round" stroke-width="0.5"><title>2023-10-19 1.3km</title><desc>10064004415</desc></polyline><polyline fill="none" points="43.12936548842117,151.20000000006985 45.24703266704455,153.95745927596 45.10585485538468,155.9489553726744 45.38821047870442,157.94044956599828 46.3764551631175,161.46385770628694 47.78823328157887,163.76172937103547 49.20001140097156,167.74470092041884 52.02356764022261,172.34042786306236 52.44710107613355,172.80000000004657 52.87063451157883,172.64680929866154 51.035322956275195,170.80852000799496 47.647055469918996,164.22130339988507 46.799988598097116,161.31066617183387 44.39996579522267,156.25533921841998" stroke="#4dd2ff" stroke-linecap="round" stroke-linejoin="round" stroke-width="0.5"><title>2023-10-18 1.0km</title><desc>10058081424</desc></polyline><polyline fill="none" points="70.229910842143,152.5090968760196 71.436339372769,159.54547939426266 74.60321426484734,167.8909274970647 76.71446419321,172.30909323703963 77.61928559094667,172.80000000004657 78.07169628981501,172.80000000004657 78.37330342270434,172.14545762562193 77.31767845898867,170.83637229795568 75.96044636238366,168.70910699968226 74.150803565979,164.7818426452577 73.39678573515266,162.49093523877673 70.229910842143,156.1091093159048 69.92830371018499,155.12728831882123 69.62669657729566,151.20000000006985" stroke="#4dd2ff" stroke-linecap="round" stroke-linejoin="round" stroke-width="0.5"><title>2023-10-17 1.0km</title><desc>10051702317</desc></polyline><polyline fill="none" points="95.17660451494157,151.69846386567224 96.70784117653966,154.35693595849443 99.00469616893679,160.33848673303146 100.22968549933285,162.66464109206572 101.6077984943986,166.98463569255546 103.29215882346034,171.30462203593925 103.90465348772705,172.46769387146924 104.67027181852609,172.80000000004657 104.82339548505843,172.63384694198612 104.67027181852609,172.13538769376464 102.98591149039567,169.6430898043327 100.68905649799854,163.99387107940856 99.00469616893679,160.50464069505688 97.62658317387104,154.02462711755652 96.860964843072,151.20000000006985" stroke="#4dd2ff" stroke-linecap="round" stroke-linejoin="round" stroke-width="0.5"><title>2023-10-16 1.0km</title><desc>10046279660</desc></polyline><polyline fill="none" points="121.57642742060125,151.20000000018626 122.20836636144668,152.57143451995216 122.84030530136079,155.65715924091637 124.26216791570187,160.457167357672 126.15798473451287,163.3714531790465 128.36977102421224,171.60000524926 129.15969469957054,172.45714441989549 130.26558784395456,172.80000000004657 130.42357257939875,172.45714441989549 130.26558784395456,171.42857737722807 128.21178628969938,168.51430162554607 127.10589314438403,165.08573725470342 125.84201526548713,163.02859621262178 122.84030530136079,156.00001729140058 121.73441215604544,151.20000000018626" stroke="#4dd2ff" stroke-linecap="round" stroke-linejoin="round" stroke-width="0.5"><title>2023-10-15 1.0km</title><desc>10039610121</desc></polyline><polyline fill="none" points="147.50507848523557,152.7677485626191 147.9866772191599,157.81937576434575 149.27094050962478,161.47744391136803 150.87626962177455,163.7419594572857 151.8394670896232,166.87743894872256 154.56852658092976,171.7548432429321 155.21065822523087,172.4516144655645 156.01332278177142,172.80000000004657 156.49492151569575,172.4516144655645 156.49492151569575,171.92903606779873 153.28426329046488,169.3161423506681 151.19733544345945,165.48389302031137 150.39467088785022,162.17421815590933 148.4682759521529,157.81937576434575 147.50507848523557,154.16130197024904 147.66561139654368,151.89677726710215 147.50507848523557,151.19999999995343" stroke="#4dd2ff" stroke-linecap="round" stroke-linejoin="round" stroke-width="0.5"><title>2023-10-14 1.0km</title><desc>10033377496</desc></polyline><polyline fill="none" points="173.10247393604368,151.54285870608874 175.94619874749333,154.97144298977219 176.26216817181557,157.54287789412774 178.9479082711041,165.77145053213462 181.47566365916282,171.77143310848624 182.26558721717447,172.80000000004657 182.89752606488764,172.80000000004657 182.89752606488764,172.2857166111935 182.73954135272652,171.77143310848624 181.3176789470017,170.74286576313898 179.73783183004707,167.8285891546402 178.0,162.34288212889805 174.84030576609075,155.3143011406064 174.3663516305387,152.9142930242233 173.57642807159573,151.19999999995343" stroke="#4dd2ff" stroke-linecap="round" stroke-linejoin="round" stroke-width="0.5"><title>2023-10-13 1.0km</title><desc>10028006924</desc></polyline><polyline fill="none" points="17.36538064479828,175.20000000006985 18.884927975013852,177.17863460967783 19.79665637295693,178.82749545027036 19.948611105792224,180.9710127315484 19.79665637295693,183.2794136662269 21.468158435076475,186.74201061367057 23.443569963797927,192.01833853893913 25.41898149251938,195.64580678741913 25.87484569195658,196.3053458391223 26.634619356133044,196.80000000004657 26.634619356133044,195.97557633754332 24.9631172940135,193.83207339665387 23.443569963797927,191.1939131191466 21.468158435076475,185.75269774568733 20.25252057146281,183.609185034642 19.64470164012164,181.7954419098096" stroke="#4dd2ff" stroke-linecap="round" stroke-linejoin="round" stroke-width="0.5"><title>2023-10-12 1.0km</title><desc>10021974100</desc></polyline><polyline fill="none" points="45.474602221511304,178.26269951381255 46.068813463672996,181.48658911755774 45.92026065289974,182.77614363189787 47.257235947065055,187.12838451750576 48.297105620615184,189.06271102663595 49.33697529416531,192.6089718618896 50.82250339910388,196.15522696147673 51.119609019719064,196.47761350416113 51.86237307265401,196.80000000004657 51.713820261880755,196.15522696147673 50.079739346168935,191.9641975912964 48.297105620615184,188.90151721588336 45.92026065289974,183.42092060425784 45.32604941073805,181.32539474999066 45.02894379012287,178.26269951381255 44.13762692734599,175.20000000006985" stroke="#4dd2ff" stroke-linecap="round" stroke-linejoin="round" stroke-width="0.5"><title>2023-10-10 1.0km</title><desc>10009069592</desc></polyline><polyline fill="none" points="70.34079527948052,177.90001181093976 71.3653726009652,180.75884416745976 72.38994992244989,184.57061475841329 74.5854727551341,189.33531853882596 76.34189102053642,195.37059490859974 77.36646834202111,196.80000000004657 77.65920471958816,196.32353174127638 77.80557290837169,194.5764805598883 76.780995586887,191.55884337320458 74.5854727551341,187.74708511296194 72.09721354581416,180.75884416745976 71.3653726009652,177.58236353751272 70.19442709069699,175.20000000006985" stroke="#4dd2ff" stroke-linecap="round" stroke-linejoin="round" stroke-width="0.5"><title>2023-10-09 1.0km</title><desc>10003389142</desc></polyline><polyline fill="none" points="95.60214570444077,175.20000000006985 96.68232044391334,176.53954084217548 97.76249518338591,179.05117779690772 98.37973789125681,184.07444339734502 100.69439804647118,189.09769791853614 102.70043684728444,194.79070631600916 103.62630091048777,196.46511784254108 104.3978542946279,196.80000000004657 104.3978542946279,195.46047107467894 101.46595143154263,190.7721136303153 97.60818450618535,181.39536978886463 96.06507773511112,175.36744264874142" stroke="#4dd2ff" stroke-linecap="round" stroke-linejoin="round" stroke-width="0.5"><title>2023-10-08 1.0km</title><desc>9996447828</desc></polyline><polyline fill="none" points="123.22736892104149,179.5200177859515 123.93829996697605,182.14288138831034 126.07109310477972,187.85145554482006 126.78202415117994,190.3200233434327 129.0570034980774,196.02857525658328 129.76793454401195,196.80000000004657 129.91012075310573,196.18286022811662 129.91012075310573,195.56572027492803 127.20858277892694,190.78287948237266 125.92890689568594,188.00574111705646 123.65392754832283,181.21716519689653 122.94299650238827,177.66858268063515 122.08987924689427,175.20000000006985" stroke="#4dd2ff" stroke-linecap="round" stroke-linejoin="round" stroke-width="0.5"><title>2023-10-07 1.0km</title><desc>9989974159</desc></polyline><polyline fill="none" points="150.23527786973864,181.6340659679845 151.36470003286377,185.31066617229953 152.21176665555686,187.14896384219173 153.90589990047738,194.3489474329399 154.32943321205676,195.72766485647298 155.17649983474985,196.80000000004657 155.8823886862956,196.80000000004657 156.16474422672763,196.18723712838255 156.02356645744294,195.72766485647298 154.32943321205676,193.27661102765705 152.63529996667057,189.60002487862948 152.07058888534084,187.14896384219173 149.1058557066135,179.94895537314005 148.68232239503413,177.3446908632759 147.8352557728067,175.20000000006985" stroke="#4dd2ff" stroke-linecap="round" stroke-linejoin="round" stroke-width="0.5"><title>2023-10-06 1.0km</title><desc>9984428862</desc></polyline><polyline fill="none" points="173.34980723820627,175.19999999995343 175.79727711249143,181.7508401402738 177.42892369627953,187.23936816002242 180.20272288657725,194.14427274046466 181.34487549494952,196.44590320182033 181.83436947036535,196.80000000004657 182.4870281033218,196.80000000004657 182.6501927608624,196.44590320182033 182.1606987863779,195.56066097668372 180.20272288657725,192.7278836716432 179.0605702791363,190.42624965729192 177.10259437933564,185.29182739160024 176.28677108790725,182.63608744111843 174.0024658711627,178.38689742889255 174.0024658711627,176.793449241668" stroke="#4dd2ff" stroke-linecap="round" stroke-linejoin="round" stroke-width="0.5"><title>2023-10-04 1.0km</title><desc>9971682885</desc></polyline><polyline fill="none" points="18.73075540456921,201.72263895755168 19.45725420350209,204.2452749478398 20.183753001969308,205.9795854698168 20.764952041674405,208.65988079027738 23.525647477712482,214.17812531418167 23.670947237871587,216.0700915964553 24.542745796963573,219.8540191539796 24.8333453158848,220.32700962922536 25.705143874976784,220.80000000004657 25.705143874976784,219.22336502477992 23.816246998030692,215.7547639987897 22.508549159858376,212.75914950715378 21.782050360459834,211.3401727611199 21.055551561061293,209.29053802613635 19.602553963661194,206.29491450509522 19.021354923956096,203.92994561127853 18.73075540456921,201.56497410975862 18.294856125023216,199.20000000006985" stroke="#4dd2ff" stroke-linecap="round" stroke-linejoin="round" stroke-width="0.5"><title>2023-10-03 1.0km</title><desc>9965060084</desc></polyline><polyline fill="none" points="44.05168626923114,200.09256578912027 46.02584313414991,206.51902978750877 46.35486927907914,209.37523054960184 47.50646078400314,210.8033296703361 48.32902614492923,212.94547677692026 49.80964379385114,218.47934805578552 50.961235297843814,220.26446513272822 51.783800658769906,220.80000000004657 51.94831373076886,220.6214883904904 51.454774514772,219.19339504395612 49.64513072185218,215.801669979468 46.68389542307705,208.66118067363277 44.87425162922591,203.30579991429113 44.545225486159325,199.19999999995343" stroke="#4dd2ff" stroke-linecap="round" stroke-linejoin="round" stroke-width="0.5"><title>2023-10-02 1.0km</title><desc>9958643020</desc></polyline><polyline fill="none" points="70.57615444716066,203.00161439389922 70.8946517072618,204.5568185101729 74.39812157675624,212.85122308298014 76.14985651057214,218.20801048050635 77.1053482927382,220.10880307410844 78.06084007490426,220.80000000004657 78.2200887054205,220.62720078765415 78.06084007490426,219.93600381095894 74.87586746737361,215.09761928464286 71.85014348942786,207.66722365492024 70.41690581571311,203.174414902227 69.7799112945795,199.20000000018626" stroke="#4dd2ff" stroke-linecap="round" stroke-linejoin="round" stroke-width="0.5"><title>2023-10-01 1.0km</title><desc>9952075403</desc></polyline><polyline fill="none" points="96.8986918758601,202.3304483613465 98.19691388169304,204.99132584920153 98.7739014388062,207.6522000116529 99.2066421075724,210.15654912649188 101.37034545000643,216.26088775217067 103.24555501388386,220.1739161274163 104.11103635048494,220.80000000004657 104.39953012997285,220.33043711271603 101.51459234021604,215.94784517178778 100.2163703343831,212.97393835918047 99.7836296656169,211.40872257889714 97.76417321292683,207.02611227263696 96.61019809637219,202.17392605240457 95.60046987002715,199.20000000006985" stroke="#4dd2ff" stroke-linecap="round" stroke-linejoin="round" stroke-width="0.5"><title>2023-09-30 1.0km</title><desc>9945549317</desc></polyline><polyline fill="none" points="122.65578072797507,199.19999999995343 124.0890175588429,201.61920987116173 124.56676316913217,203.52001588023268 125.84075146261603,206.63042239728384 126.47774561028928,211.29602445522323 126.95549122057855,212.67842328641564 128.86647366080433,217.34401333890855 129.3442192710936,220.28160232468508 129.66271634493023,220.62720078765415 130.1404619552195,220.80000000004657 130.29971049167216,220.4544015622232 127.43323683086783,215.27041890379041 125.52225438971072,210.7776246839203 124.8852602429688,208.18562411214225 122.65578072797507,203.00161439413205 121.70028950739652,199.89120307425037" stroke="#4dd2ff" stroke-linecap="round" stroke-linejoin="round" stroke-width="0.5"><title>2023-09-28 1.0km</title><desc>9933629332</desc></polyline><polyline fill="none" points="147.77749703917652,201.6545560109662 148.9839264564216,205.90911335172132 151.2459816141054,209.0182078036014 152.7540183858946,214.581839667866 154.86526986584067,218.345465102233 155.46848457492888,220.4727288366994 156.07169928308576,220.80000000004657 156.37330663762987,220.3090932368068 156.07169928308576,219.65455071767792 154.86526986584067,218.01819357764907 151.3967852909118,210.98184416710865 149.5871411645785,206.07275000982918 147.62669336237013,199.20000000006985" stroke="#4dd2ff" stroke-linecap="round" stroke-linejoin="round" stroke-width="0.5"><title>2023-09-27 1.0km</title><desc>9927137811</desc></polyline><polyline fill="none" points="179.79438564018346,199.19999999995343 179.36373308650218,201.2769517872366 178.9330805328209,202.4711962986621 178.59812854672782,203.92505645600613 176.63626691349782,208.027002906485 175.6314109552186,209.74046715319855 175.44000982004218,210.46739012288162 175.53571038739756,211.03854336001677 175.77496180613525,211.86931088013807 176.4927160621155,213.63468861562433 176.73196748108603,214.10199374804506 177.019069183385,214.93275766435545 177.97607485787012,216.1269790820661 178.40672741178423,217.06158573925495 178.88523024925962,217.78850117325783 179.2680325191468,218.82695049518952 179.84223592397757,219.60578648454975 180.55999017995782,220.79999999998836" stroke="#4dd2ff" stroke-linecap="round" stroke-linejoin="round" stroke-width="0.5"><title>2023-09-26 1.0km</title><desc>9920397094</desc></polyline><polyline fill="none" points="21.899126035626978,223.20000000001164 20.957635703030974,226.33786702319048 20.01614537020214,228.0162569397944 19.14190434664488,229.11085753014777 18.671159180579707,229.9865371331689 18.469411252066493,230.86221596354153 18.536660561105236,231.95681341498857 18.87290710909292,232.83249050704762 19.679898822680116,234.07303173147375 20.01614537020214,235.3135714053642 20.688638464780524,236.91897338739363 21.966375345131382,238.52437277277932 24.11835324857384,242.90272153465776 25.530588747933507,244.79999999998836" stroke="#4dd2ff" stroke-linecap="round" stroke-linejoin="round" stroke-width="0.5"><title>2023-09-25 1.0km</title><desc>9914573673</desc></polyline><polyline fill="none" points="49.59245867212303,223.20000000001164 49.06163911474869,224.00641070248093 48.95547520322725,224.40961574245011 49.06163911474869,224.92802191746887 49.114721070509404,225.44642774929525 48.05308195552789,227.40484668471618 47.7876721767243,228.72965671774 47.41609848686494,229.70886269339826 45.1866563456133,233.62567435624078 45.13357438985258,234.08647444064263 45.34590221266262,235.00807379680919 45.929803726030514,235.92967206868343 46.24829546036199,236.73606966715306 46.72603306197561,237.54246643558145 46.9914428407792,238.34886237385217 47.681508265435696,239.44325553410454 48.21232782257721,240.5376471655327 48.79622933617793,241.17124162177788 48.95547520322725,241.74723613733659 49.32704889331944,242.20803144481033 50.123278229730204,243.5904157414334 50.707179742865264,244.22400772874244 50.866425609914586,244.79999999998836" stroke="#4dd2ff" stroke-linecap="round" stroke-linejoin="round" stroke-width="0.5"><title>2023-09-24 1.0km</title><desc>9907510217</desc></polyline><polyline fill="none" points="74.8052497135941,223.19999999995343 74.3543098741211,223.8990368102095 74.03220998868346,224.59807310631732 73.83895005751401,225.50681952305604 73.77453008014709,226.69517891091527 72.67939046956599,228.1631502218661 72.03519069892354,229.84082894423045 71.45541090494953,230.6796671951306 71.0688910423778,231.7981170452549 71.00447106501088,232.98646856920095 72.35729058436118,236.4117087686318 72.87265040096827,237.46024921990465 74.54756980529055,240.1165465207887 75.25618955329992,241.86410648730816 76.15806923247874,242.98254318005638 76.67342904955149,243.89127202425152 76.99552893498912,244.79999999998836" stroke="#4dd2ff" stroke-linecap="round" stroke-linejoin="round" stroke-width="0.5"><title>2023-09-23 1.0km</title><desc>9901004991</desc></polyline><polyline fill="none" points="100.82940766238607,223.20000000001164 100.39934443007223,224.00000917632133 99.96928119775839,225.40002353605814 98.98627952369861,227.466707449581 98.00327784963883,228.8667164563667 97.14315138501115,231.20005999715067 97.0817137802951,232.46672969026258 97.2045889897272,233.2000639672042 98.43334108195268,236.1333951432607 98.61765389586799,237.00005935650552 98.86340431426652,237.4667243589647 99.72353077912703,238.53338631999213 100.39934443007223,239.86671200639103 100.95228287158534,241.26670186739648 101.8738469411619,242.60002353484742 102.9182862197049,244.79999999998836" stroke="#4dd2ff" stroke-linecap="round" stroke-linejoin="round" stroke-width="0.5"><title>2023-09-22 1.0km</title><desc>9895405405</desc></polyline><polyline fill="none" points="127.1450217468664,223.19999999995343 126.96886455500498,223.83717584831174 126.6165501717478,224.2194811324589 125.85320234019309,225.62126573116984 125.55960702057928,226.6407440150506 124.67882106127217,228.87084857962327 123.7393160383217,230.78236220986582 123.15212539886124,232.18413619237253 122.97596820699982,232.88502233318286 122.97596820699982,233.33104049135 123.15212539886124,233.96820889046649 123.50443978235126,234.60537682118593 124.26778761390597,236.58059442898957 125.03113544499502,237.98235903232126 125.44216889259405,239.0018227742985 126.20551672391593,240.27615076530492 126.67526923539117,240.8495977499988 127.02758361888118,241.8690581190167 127.96708864206448,243.5256786608952 129.02403179300018,244.79999999998836" stroke="#4dd2ff" stroke-linecap="round" stroke-linejoin="round" stroke-width="0.5"><title>2023-09-21 1.0km</title><desc>9889267953</desc></polyline><polyline fill="none" points="154.19914857461117,223.19999999995343 153.42831299151294,225.51256180164637 152.97488029603846,227.3330835548113 152.2493879823014,228.85838175087702 151.38786586048082,231.41693865915295 149.8915379641112,234.22149941610405 149.4834485379979,235.74678191059502 149.52879180735908,236.09120005724253 149.80085142469034,236.82923834602116 150.39031392964534,238.10850278503494 150.75306008616462,239.1909554002341 151.65992547781207,240.47021532442886 152.20404471294023,241.50346193969017 152.5214475998655,242.241494259506 152.8841937566176,242.88112161163008 153.47365626133978,243.3239401896135 154.19914857461117,244.40638436889276 154.24449184420519,244.60319221339887 154.51655146176927,244.79999999998836" stroke="#4dd2ff" stroke-linecap="round" stroke-linejoin="round" stroke-width="0.5"><title>2023-09-20 1.0km</title><desc>9882714971</desc></polyline><polyline fill="none" points="179.79100363212638,223.20000000001164 179.33045984106138,224.36608261422953 178.460543791065,226.9203525246121 178.40937225869857,227.75326475786278 178.10234306450002,228.19748423999408 177.74414233816788,229.03039506456116 177.53945620870218,229.80777767213294 177.1300839500036,230.86279564508004 175.95313870580867,232.7507188655436 175.64610951161012,233.86125973169692 175.5437664471101,234.86074511497281 175.64610951161012,235.860229175305 175.95313870580867,236.9707654688973 176.3113394321408,237.7481399027747 177.43711314396933,239.69157248659758 178.0,240.46894411969697 178.5117153231986,241.85710576031124 179.02343064686283,242.7455278711859 179.53514597029425,243.46737006679177 180.0980328260921,244.02263282472268 180.45623355265707,244.79999999998836" stroke="#4dd2ff" stroke-linecap="round" stroke-linejoin="round" stroke-width="0.5"><title>2023-09-19 1.0km</title><desc>9876194288</desc></polyline><polyline fill="none" points="21.84100794629194,247.20000000001164 21.459427017485723,247.82109320326708 20.823458802886307,249.0632783769979 20.6326683384832,249.89140091248555 19.487925551831722,251.89269402367063 18.597570051439106,253.75596308422973 18.406779586803168,254.44606179761468 18.47037640865892,255.20516979601234 18.851957337465137,256.17130636097863 19.42432873044163,257.2064515767852 19.93310330249369,258.6556529609952 20.6326683384832,260.1738615350332 21.39583019609563,261.5540490167914 22.09539523231797,262.4511697916896 22.922153911320493,263.83135392481927 23.430928482906893,265.41856316884514 24.32128398376517,266.79874293867033 24.766461733961478,268.04090299631935 25.593220413196832,268.79999999998836" stroke="#4dd2ff" stroke-linecap="round" stroke-linejoin="round" stroke-width="0.5"><title>2023-09-18 1.0km</title><desc>9870505463</desc></polyline><polyline fill="none" points="48.217041281517595,247.19999999995343 47.906982308020815,247.8056144231232 47.472899745218456,249.82432627223898 46.91479359311052,250.7663902780041 46.66674641426653,251.50658274488524 45.30248693120666,253.7271565538831 44.80639257398434,254.93837636063108 44.49633360025473,256.0150148428511 44.74438077909872,256.7552030647639 46.10864026192576,259.7159499658155 46.790770003572106,260.79258282791125 47.286864361027256,261.9365038559772 48.093017691979185,263.0131341058295 48.527100255014375,263.75331666780403 49.08520640688948,265.5028367077466 51.50366639974527,268.79999999998836" stroke="#4dd2ff" stroke-linecap="round" stroke-linejoin="round" stroke-width="0.5"><title>2023-09-16 1.0km</title><desc>9856514700</desc></polyline><polyline fill="none" points="73.70141286822036,247.19999999995343 73.03788590896875,249.21602015919052 72.17530086194165,250.58403147483477 70.38377807172947,254.04005154868355 70.31742537557147,254.83205443120096 70.38377807172947,255.76805701170815 70.78189424728043,256.7040586976218 71.44542120676488,257.7120595127344 72.0425954698585,259.08005895931274 73.10423860489391,260.88005531951785 74.4312925238628,263.4000446656719 74.56399791548029,264.33603905688506 75.02846678695641,264.6960366614512 75.55928835459054,265.4160314735491 76.4218734013848,266.8560195097816 77.35081114433706,267.64801202714443 77.54986923234537,268.1520069320104 77.6825746241957,268.79999999998836" stroke="#4dd2ff" stroke-linecap="round" stroke-linejoin="round" stroke-width="0.5"><title>2023-09-15 1.0km</title><desc>9850671982</desc></polyline><polyline fill="none" points="100.5491250732448,247.20000000001164 99.45087492698804,250.10485439072363 98.21534351236187,251.89245295227738 97.6662184393499,252.86073418945307 96.84253082983196,254.94625986437313 96.63660892727785,255.69108942203457 96.63660892727785,256.28695267351577 96.84253082983196,257.03178124543047 97.6662184393499,259.2662636752357 98.42126541491598,260.7559158902732 100.27456253673881,263.958660734992 101.02960951230489,265.3738238363294 101.16689078020863,266.19312788615935 101.71601585345343,266.71450284548337 102.60834409738891,268.12966209702427 103.36339107272215,268.79999999998836" stroke="#4dd2ff" stroke-linecap="round" stroke-linejoin="round" stroke-width="0.5"><title>2023-09-14 1.0km</title><desc>9844236351</desc></polyline><polyline fill="none" points="122.56709610228427,247.19999999995343 122.96225050766952,247.52159278281033 123.110433409689,247.84318542375695 123.20922201103531,248.53996899235062 123.50558781507425,249.1295545687899 123.70316501799971,250.79111135465791 123.70316501799971,251.59508908487624 123.60437641642056,252.02387684507994 123.70316501799971,252.5598611907917 123.9501365213655,253.2030418853974 123.85134792001918,253.73902536404785 123.90074222069234,254.00701695558382 124.3946852274239,254.91818762995536 124.83923393371515,256.2581424351083 125.2343883391004,257.0085160502349 125.7283313460648,257.70529085828457 126.27166865346953,258.18767302751075 126.419851555489,258.5092609630665 126.56803445750847,259.2060343368212 126.96318886312656,259.9028070445638 127.40773756918497,261.1891549092252 128.00046917726286,262.31470742897363 128.29683498153463,263.279465348518 128.4450178835541,264.08342930604704 128.74138368782587,264.72659983392805 129.2847209952306,266.4953158595017 130.02563550556079,267.88884667569073 130.07502980646677,268.1032357955701 130.02563550556079,268.26402759418124 129.43290389725007,268.79999999998836 129.72926970152184,268.58561108488357 129.87745260354131,268.26402759418124 129.9762412046548,267.99604124354664 129.9268469044473,267.620860187104 129.63048110017553,267.2456789375865 128.74138368782587,265.31617231911514 128.29683498153463,263.8690390040283 127.35834326851182,261.7787302552606 126.9137945624534,259.74201340193395 126.66682305908762,259.15243640867993 125.7283313460648,257.91968297294807 124.78983963280916,256.15094614133704 124.34529092675075,254.70379463257268 124.19710802496411,253.73902536404785 123.80195361911319,252.7206564177177 123.01164480834268,251.00550550274784 122.81406760541722,250.20152712223353 122.12254739599302,248.91515986889135 121.97436449397355,248.21837665891508 121.9249701933004,247.36079640913522" stroke="#4dd2ff" stroke-linecap="round" stroke-linejoin="round" stroke-width="0.5"><title>2023-09-13 1.0km</title><desc>9837636972</desc></polyline></svg>