<svg xmlns="http://www.w3.org/2000/svg" xmlns:ev="http://www.w3.org/2001/xml-events" xmlns:xlink="http://www.w3.org/1999/xlink" width="200mm" height="300mm" baseProfile="full" version="1.1" viewBox="0 0 200 300"><rect width="200" height="300" x="0" y="0" fill="#222"/><text fill="#FFF" style="font-size:12px;font-family:Arial;font-weight:700" x="10" y="20">Over 1km Runs</text><text fill="#FFF" style="font-size:4px;font-family:Arial" x="10" y="280">ATHLETE</text><text fill="#FFF" style="font-size:9px;font-family:Arial" x="10" y="290">Jiakai</text><text fill="#FFF" style="font-size:4px;font-family:Arial" x="120" y="280">STATISTICS</text><text fill="#FFF" style="font-size:3px;font-family:Arial" x="120" y="285">Number: 111</text><text fill="#FFF" style="font-size:3px;font-family:Arial" x="120" y="290">Weekly: 5.3</text><text fill="#FFF" style="font-size:3px;font-family:Arial" x="141" y="285">Total: 114.7 km</text><text fill="#FFF" style="font-size:3px;font-family:Arial" x="141" y="290">Avg: 1.0 km</text><text fill="#FFF" style="font-size:3px;font-family:Arial" x="167" y="285">Min: 1.0 km</text><text fill="#FFF" style="font-size:3px;font-family:Arial" x="167" y="290">Max: 1.5 km</text><polyline fill="none" stroke="#4dd2ff" stroke-linecap="round" stroke-linejoin="round" stroke-width=".5" points="10.923 33.08 11.875 36.555 13.087 39.559 13.26 40.78 14.298 43.034 14.558 43.785 14.99 44.536 16.029 45.287 16.808 45.381 18.885 45.1 21.481 44.255 24.596 42.94 26.413 42.001 27.365 41.25 27.538 40.968 27.538 40.592"><title>2024-03-17 1.0km</title><desc>10975003116</desc></polyline><polyline fill="none" stroke="#4dd2ff" stroke-linecap="round" stroke-linejoin="round" stroke-width=".5" points="31.115 33.03 31.467 33.698 32.522 36.655 32.962 38.754 34.104 41.902 34.28 42.951 34.896 44.191 35.423 44.859 36.038 45.336 36.742 45.431 37.797 45.431 39.467 45.05 40.434 44.668 41.753 44.477 43.951 43.619 45.973 42.665 47.555 41.616 47.731 41.329"><title>2024-03-16 1.0km</title><desc>10967572329</desc></polyline><polyline fill="none" stroke="#4dd2ff" stroke-linecap="round" stroke-linejoin="round" stroke-width=".5" points="51.308 32.906 51.482 33.945 51.743 34.7 52.787 36.305 52.961 36.777 52.961 37.437 54.178 39.608 54.613 42.063 55.309 44.139 55.657 44.894 56.092 45.272 57.658 45.555 59.311 45.366 62.269 44.517 65.313 43.29 66.183 42.912 67.749 41.874 67.923 41.307"><title>2024-03-12 1.0km</title><desc>10939588558</desc></polyline><polyline fill="none" stroke="#4dd2ff" stroke-linecap="round" stroke-linejoin="round" stroke-width=".5" points="81.773 31.484 80.946 31.26 79.601 31.148 78.152 31.597 76.807 32.383 76.29 33.056 75.876 33.73 75.669 35.414 75.669 37.322 75.566 41.588 75.773 44.507 76.083 45.742 77.428 46.977 79.187 47.538 81.153 47.202 82.498 46.528 83.429 45.63 84.049 43.834 84.049 38.782 83.842 36.2 84.049 34.628 83.739 33.393 83.118 32.27 81.98 31.484 79.808 30.923 78.359 31.372 77.014 32.27 76.29 33.281 75.669 34.628"><title>2024-03-11 1.0km</title><desc>10935364964</desc></polyline><polyline fill="none" stroke="#4dd2ff" stroke-linecap="round" stroke-linejoin="round" stroke-width=".5" points="91.871 34.287 91.692 34.966 91.871 36.129 93.032 39.619 93.3 40.297 93.747 40.879 94.372 42.526 95.176 43.302 95.801 43.69 98.303 44.174 99.375 43.98 100.983 43.98 103.305 43.302 106.253 42.042 107.057 41.46 108.129 40.976 108.308 40.685 107.95 38.746"><title>2024-03-08 1.0km</title><desc>10912839308</desc></polyline><polyline fill="none" stroke="#4dd2ff" stroke-linecap="round" stroke-linejoin="round" stroke-width=".5" points="111.885 33.442 112.759 35.15 116.17 44.26 116.694 44.829 118.356 45.019 121.067 44.545 123.69 43.786 127.538 41.983 128.238 41.223 128.5 40.369 128.413 39.99"><title>2024-03-07 1.0km</title><desc>10906173208</desc></polyline><polyline fill="none" stroke="#4dd2ff" stroke-linecap="round" stroke-linejoin="round" stroke-width=".5" points="132.077 33.35 132.343 36.242 133.054 38.459 135.542 44.051 135.809 44.534 136.52 44.919 137.497 45.112 138.208 45.112 139.096 44.823 140.34 44.726 142.473 44.341 146.56 42.702 148.07 41.834 148.692 41.255 148.692 40.773"><title>2024-03-06 1.0km</title><desc>10898894581</desc></polyline><polyline fill="none" stroke="#4dd2ff" stroke-linecap="round" stroke-linejoin="round" stroke-width=".5" points="152.269 33.378 152.356 33.662 152.704 34.794 153.574 39.136 154.096 40.08 154.966 42.535 156.097 44.045 156.445 44.706 157.054 44.989 158.359 45.083 162.099 44.8 163.926 44.045 164.796 43.573 167.319 42.723 167.928 42.063 168.537 41.874 168.885 41.402 168.45 40.08"><title>2024-03-05 1.0km</title><desc>10891326638</desc></polyline><polyline fill="none" stroke="#4dd2ff" stroke-linecap="round" stroke-linejoin="round" stroke-width=".5" points="185.378 46.041 187.985 44.857 188.956 44.001 189.077 43.475 188.652 42.159 188.167 40.909 187.197 39.527 186.712 39.066 185.257 36.697 183.619 34.526 183.741 33.934 183.619 33.671 182.831 32.42 180.163 32.618 179.253 32.947 177.677 33.144 175.979 33.868 174.827 34.658 173.735 34.921 173.189 35.316 172.765 35.381 172.583 35.579 172.462 35.974 172.643 36.303 172.704 37.026 173.007 38.013 172.886 39.198 173.25 40.053 173.189 41.238"><title>2024-03-04 1.0km</title><desc>10884866628</desc></polyline><polyline fill="none" stroke="#4dd2ff" stroke-linecap="round" stroke-linejoin="round" stroke-width=".5" points="10.923 51.574 11.095 52.881 11.526 54.283 11.526 54.843 11.956 55.964 12.387 57.646 13.506 60.355 15.141 62.877 16.088 63.624 17.122 63.811 19.618 63.531 23.062 62.783 24.095 62.036 25.558 61.382 27.538 60.168"><title>2024-03-03 1.0km</title><desc>10877188327</desc></polyline><polyline fill="none" stroke="#4dd2ff" stroke-linecap="round" stroke-linejoin="round" stroke-width=".5" points="31.115 63.137 32.454 64.347 33.569 64.831 34.126 64.831 36.468 64.589 41.152 63.379 45.612 61.564 47.508 60.112 47.731 59.87 47.508 58.539 46.839 56.845 43.159 50.553"><title>2024-03-02 1.0km</title><desc>10870189784</desc></polyline><polyline fill="none" stroke="#4dd2ff" stroke-linecap="round" stroke-linejoin="round" stroke-width=".5" points="59.566 49.385 60.057 50.556 60.253 51.302 60.352 53.006 63.493 60.462 64.18 62.485 64.18 62.805 63.689 63.231 62.118 64.083 59.861 64.615 57.309 65.68 55.935 66 55.542 65.787 55.051 63.87"><title>2024-01-19 1.0km</title><desc>10585384707</desc></polyline><polyline fill="none" stroke="#4dd2ff" stroke-linecap="round" stroke-linejoin="round" stroke-width=".5" points="76.809 51.476 76.917 53.219 77.131 54.032 79.165 57.634 80.129 59.842 80.664 61.701 81.628 63.56 81.735 65.303 82.378 65.884 82.699 66 83.127 65.884 83.02 65.419 82.378 64.373 79.272 57.286 77.345 53.335 76.488 49.385"><title>2024-01-17 1.0km</title><desc>10572816563</desc></polyline><polyline fill="none" stroke="#4dd2ff" stroke-linecap="round" stroke-linejoin="round" stroke-width=".5" points="96.89 49.385 97.847 53.149 99.88 59.769 101.316 62.495 102.153 65.091 102.751 65.87 103.11 66 103.11 65.481 100.598 60.159 98.325 54.317 96.89 51.462"><title>2024-01-16 1.0km</title><desc>10566280205</desc></polyline><polyline fill="none" stroke="#4dd2ff" stroke-linecap="round" stroke-linejoin="round" stroke-width=".5" points="116.854 49.759 118.58 53.382 119.962 58.13 121.574 61.378 122.955 65.375 123.301 66 123.531 66 120.077 58.879 119.271 56.381 118.696 54.132 117.89 52.508 117.084 49.385"><title>2024-01-09 1.0km</title><desc>10520988068</desc></polyline><polyline fill="none" stroke="#4dd2ff" stroke-linecap="round" stroke-linejoin="round" stroke-width=".5" points="137.391 50.759 137.967 53.132 139.118 55.631 141.191 62.002 142.802 65.625 143.148 66 143.378 65.75 143.033 64.376 142.457 63.501 140.73 59.004 139.118 55.631 137.737 49.385"><title>2024-01-07 1.0km</title><desc>10508221625</desc></polyline><polyline fill="none" stroke="#4dd2ff" stroke-linecap="round" stroke-linejoin="round" stroke-width=".5" points="159.273 54.308 159.499 55.538 160.52 58.123 161.428 61.2 163.242 65.631 163.696 66 163.696 65.138 162.675 63.415 162.108 61.569 159.84 56.769 159.046 54.677 158.479 53.692 157.458 49.385"><title>2024-01-06 1.0km</title><desc>10501510624</desc></polyline><polyline fill="none" stroke="#4dd2ff" stroke-linecap="round" stroke-linejoin="round" stroke-width=".5" points="178.574 52.406 179.431 54.497 180.073 57.169 181.144 60.655 182.322 63.211 183.071 65.07 183.5 65.768 183.928 66 183.821 65.187 183.286 63.909 179.752 57.169 179.109 55.194 178.895 53.335 178.146 51.36 177.61 49.385"><title>2024-01-05 1.0km</title><desc>10495609202</desc></polyline><polyline fill="none" stroke="#4dd2ff" stroke-linecap="round" stroke-linejoin="round" stroke-width=".5" points="15.729 67.846 16.441 69.521 17.035 71.324 17.866 72.998 19.409 77.377 21.308 81.757 22.02 84.075 22.495 84.462 22.732 83.818 22.614 82.916 19.765 77.12 18.815 73.771 17.866 68.361"><title>2024-01-04 1.0km</title><desc>10489071805</desc></polyline><polyline fill="none" stroke="#4dd2ff" stroke-linecap="round" stroke-linejoin="round" stroke-width=".5" points="37.115 70.9 38.579 74.932 40.38 78.964 41.281 82.385 42.069 84.462 42.182 84.462 42.182 83.606 41.619 81.529 40.493 78.964 39.592 76.398 38.128 73.466 37.228 70.778 36.665 69.068 37.002 67.846"><title>2024-01-03 1.0km</title><desc>10482519748</desc></polyline><polyline fill="none" stroke="#4dd2ff" stroke-linecap="round" stroke-linejoin="round" stroke-width=".5" points="56.262 68.121 59.172 76.634 62.21 83.912 62.842 84.462 62.969 83.912 62.589 82.951 59.426 76.909 58.287 73.888 56.641 67.846"><title>2024-01-01 1.0km</title><desc>10470902913</desc></polyline><polyline fill="none" stroke="#4dd2ff" stroke-linecap="round" stroke-linejoin="round" stroke-width=".5" points="86.839 71.915 86.63 72.254 84.443 73.837 83.505 74.854 82.88 75.984 82.464 76.549 82.151 76.663 80.797 76.663 79.547 77.115 77.881 77.002 77.047 76.663 76.527 75.871 76.214 75.193 76.11 73.611 75.798 72.933 74.548 72.933 73.506 73.272 73.402 73.385 73.818 73.611 74.027 73.385 73.298 73.385 73.089 73.159 72.881 72.367 72.777 71.011 73.298 71.124 73.714 72.028 74.652 73.046 75.381 73.046 76.006 72.593 76.527 72.706 76.631 72.48 75.693 69.768 75.485 69.655 74.339 69.542 73.194 69.655 73.923 69.655 72.881 68.524 72.777 67.846 73.089 68.298 73.402 69.768 73.714 70.446 74.027 71.915 73.402 75.758 74.131 79.262 74.756 80.279 74.86 81.975 75.798 84.462"><title>2023-12-31 1.5km</title><desc>10466792666</desc></polyline><polyline fill="none" stroke="#4dd2ff" stroke-linecap="round" stroke-linejoin="round" stroke-width=".5" points="97.797 71.791 99.009 76.094 100.661 79.561 102.093 83.625 102.534 84.462 102.754 84.462 102.864 83.505 102.424 82.19 100.441 78.126 100.441 77.05 99.009 73.942 98.788 71.552 98.348 70.117 97.136 67.846"><title>2023-12-30 1.0km</title><desc>10458865202</desc></polyline><polyline fill="none" stroke="#4dd2ff" stroke-linecap="round" stroke-linejoin="round" stroke-width=".5" points="121.096 67.846 119.004 68.053 117.577 68.981 116.531 70.013 116.055 71.252 115.675 76.102 116.15 80.953 116.341 81.675 116.626 82.294 118.148 83.946 119.859 84.462 121.191 84.255 122.808 83.223 123.759 82.398 124.71 79.611 124.615 77.444 124.329 75.586 124.139 71.045 123.854 69.91 123.283 69.188 122.617 68.672 121.096 68.362 119.004 68.465 117.482 69.291 116.721 70.22 116.15 71.665 116.15 72.387 116.436 74.141 116.246 75.586"><title>2023-12-29 1.0km</title><desc>10454615358</desc></polyline><polyline fill="none" stroke="#4dd2ff" stroke-linecap="round" stroke-linejoin="round" stroke-width=".5" points="138.065 69.608 139.689 75.399 142.241 83.203 143.053 84.462 143.169 84.462 143.169 83.203 141.429 77.916 140.037 74.518 139.109 72.755 137.601 67.846"><title>2023-12-27 1.0km</title><desc>10441997651</desc></polyline><polyline fill="none" stroke="#4dd2ff" stroke-linecap="round" stroke-linejoin="round" stroke-width=".5" points="157.445 69.986 159.301 73.636 160.229 77.413 161.505 79.804 163.013 83.706 163.477 84.462 163.709 84.336 162.897 81.944 161.737 80.182 158.025 71.371 157.793 68.979 157.445 67.846"><title>2023-12-17 1.0km</title><desc>10391591057</desc></polyline><polyline fill="none" stroke="#4dd2ff" stroke-linecap="round" stroke-linejoin="round" stroke-width=".5" points="178.073 70.771 179.367 74.165 181.524 78.377 183.465 83.994 183.896 84.462 184.004 84.345 184.004 83.876 183.465 82.355 180.554 76.622 179.26 73.112 178.289 69.133 177.534 67.846"><title>2023-12-16 1.0km</title><desc>10386207035</desc></polyline><polyline fill="none" stroke="#4dd2ff" stroke-linecap="round" stroke-linejoin="round" stroke-width=".5" points="16.986 89.431 17.446 91.555 19.058 96.427 19.979 97.926 21.246 102.049 21.591 102.923 21.821 102.923 21.821 101.674 20.094 96.427 17.677 92.679 17.561 91.18 16.871 89.431 17.101 88.307 16.64 86.308"><title>2023-12-14 1.0km</title><desc>10376526598</desc></polyline><polyline fill="none" stroke="#4dd2ff" stroke-linecap="round" stroke-linejoin="round" stroke-width=".5" points="42.989 87.753 42.133 87.03 40.707 86.411 39.376 86.308 38.044 86.617 36.332 87.546 35.571 88.578 35.001 90.333 35.001 94.254 35.191 95.493 35.571 97.041 35.286 98.898 35.381 99.621 35.476 100.033 36.427 101.685 37.949 102.82 38.425 102.923 39.376 102.923 40.327 102.923 42.038 102.304 42.989 101.375 43.56 100.343 43.75 98.073 43.845 96.525 43.56 94.667 43.75 92.19 43.655 90.023 43.56 89.301 42.894 87.856 42.609 87.546 41.563 86.824 39.471 86.617 38.139 86.824 37.378 87.133 35.952 88.681 35.381 90.849 35.571 92.293"><title>2023-12-13 1.0km</title><desc>10373769329</desc></polyline><polyline fill="none" stroke="#4dd2ff" stroke-linecap="round" stroke-linejoin="round" stroke-width=".5" points="57.616 88.664 58.758 93.375 59.901 95.855 62.186 102.303 62.644 102.923 62.872 102.923 62.986 102.427 62.529 101.683 60.701 98.583 58.073 93.251 57.73 91.64 56.473 88.912 56.244 86.308"><title>2023-12-12 1.0km</title><desc>10365882163</desc></polyline><polyline fill="none" stroke="#4dd2ff" stroke-linecap="round" stroke-linejoin="round" stroke-width=".5" points="76.573 86.308 77.759 88.882 79.376 92.977 80.563 95.2 82.288 100.583 82.504 101.987 82.935 102.923 83.043 102.104 82.827 101.168 80.563 96.02 78.945 92.86 78.514 91.573 78.19 88.882 77.328 86.425"><title>2023-12-11 1.0km</title><desc>10361067591</desc></polyline><polyline fill="none" stroke="#4dd2ff" stroke-linecap="round" stroke-linejoin="round" stroke-width=".5" points="100.333 95.579 102.552 102.321 102.663 102.682 103.107 102.923 103.218 102.803 102.885 101.96 101.886 100.033 100.777 97.023 97.67 90.763 96.782 86.308"><title>2023-12-10 1.0km</title><desc>10355395415</desc></polyline><polyline fill="none" stroke="#4dd2ff" stroke-linecap="round" stroke-linejoin="round" stroke-width=".5" points="117.265 87.407 119.179 90.462 120.08 94.249 121.994 99.624 122.669 102.557 123.12 102.923 123.232 102.801 123.232 102.557 123.007 101.579 120.643 96.814 120.08 95.471 119.742 93.394 119.179 91.805 118.278 90.217 118.166 88.507 117.152 86.308"><title>2023-12-09 1.0km</title><desc>10350143310</desc></polyline><polyline fill="none" stroke="#4dd2ff" stroke-linecap="round" stroke-linejoin="round" stroke-width=".5" points="138.613 89.532 139.299 92.011 140.785 95.607 142.841 101.559 143.756 102.923 143.641 101.683 142.956 99.575 141.127 96.351 139.985 93.623 138.728 91.64 138.385 89.656 137.014 86.308"><title>2023-12-08 1.0km</title><desc>10345303898</desc></polyline><polyline fill="none" stroke="#4dd2ff" stroke-linecap="round" stroke-linejoin="round" stroke-width=".5" points="157.9 86.308 158.114 86.889 158.542 88.399 158.757 90.491 159.185 92.233 160.684 95.952 161.648 99.321 162.611 101.413 162.826 102.923 163.04 102.807 163.254 102.575 163.254 102.226 162.719 100.832 161.005 97.927 158.971 92.001 158.435 89.561"><title>2023-12-07 1.0km</title><desc>10340288256</desc></polyline><polyline fill="none" stroke="#4dd2ff" stroke-linecap="round" stroke-linejoin="round" stroke-width=".5" points="177.685 86.308 178.346 87.862 179.557 93.002 181.32 96.229 182.752 100.174 183.413 102.684 183.744 102.923 183.854 102.086 183.633 101.011 181.871 97.305 180.659 95.512 179.998 94.197 177.795 86.666"><title>2023-12-06 1.0km</title><desc>10334845031</desc></polyline><polyline fill="none" stroke="#4dd2ff" stroke-linecap="round" stroke-linejoin="round" stroke-width=".5" points="17.7 107.634 18.439 111.415 19.178 114.166 20.973 118.864 21.924 121.041 22.24 121.385 21.818 119.322 20.762 117.374 19.812 114.624 18.439 111.759 17.805 109.582 16.749 107.29 16.221 104.769"><title>2023-12-05 1.0km</title><desc>10329306344</desc></polyline><polyline fill="none" stroke="#4dd2ff" stroke-linecap="round" stroke-linejoin="round" stroke-width=".5" points="36.371 106.164 37.121 107.325 38.085 110.695 40.012 115.459 40.976 118.712 41.832 120.571 42.475 121.385 42.475 120.804 39.691 114.413 38.62 110.811 37.442 108.139 36.585 104.769"><title>2023-12-04 1.0km</title><desc>10324662812</desc></polyline><polyline fill="none" stroke="#4dd2ff" stroke-linecap="round" stroke-linejoin="round" stroke-width=".5" points="56.73 106.303 57.907 110.776 59.792 114.994 61.088 119.467 62.03 121.257 62.737 121.385 62.737 120.873 61.912 119.467 60.852 116.4 59.674 114.611 58.85 112.438 57.436 107.325 56.494 104.769"><title>2023-12-02 1.0km</title><desc>10313350310</desc></polyline><polyline fill="none" stroke="#4dd2ff" stroke-linecap="round" stroke-linejoin="round" stroke-width=".5" points="76.792 105.65 77.952 107.161 79.344 111.944 80.272 115.846 81.78 120.126 82.708 121.385 82.824 120.629 82.592 119.119 81.316 116.35 79.344 113.203 78.184 110.811 77.024 104.769"><title>2023-12-01 1.0km</title><desc>10308709030</desc></polyline><polyline fill="none" stroke="#4dd2ff" stroke-linecap="round" stroke-linejoin="round" stroke-width=".5" points="96.938 104.769 99.234 112.662 101.531 117.369 102.807 120.831 103.19 121.385 103.318 120.969 102.807 119.585 100.893 116.954 100.383 115.569 98.469 111.831 97.576 107.538 96.682 105.046"><title>2023-11-30 1.0km</title><desc>10303537703</desc></polyline><polyline fill="none" stroke="#4dd2ff" stroke-linecap="round" stroke-linejoin="round" stroke-width=".5" points="118.291 108.322 119.031 110.728 119.347 112.676 120.509 114.968 121.776 118.405 123.044 121.155 123.255 121.385 123.466 121.155 123.255 120.353 122.41 118.864 121.248 115.655 119.559 112.218 118.925 108.551 117.658 106.603 116.919 104.769"><title>2023-11-29 1.0km</title><desc>10298007687</desc></polyline><polyline fill="none" stroke="#4dd2ff" stroke-linecap="round" stroke-linejoin="round" stroke-width=".5" points="137.52 106.921 138.732 110.029 138.953 112.3 140.495 116.006 141.376 119.353 142.147 120.906 142.918 121.385 143.249 121.385 143.469 121.026 143.359 120.548 142.918 119.711 141.156 115.049 139.393 110.985 139.063 109.073 138.292 106.801 137.3 104.769"><title>2023-11-28 1.0km</title><desc>10292316108</desc></polyline><polyline fill="none" stroke="#4dd2ff" stroke-linecap="round" stroke-linejoin="round" stroke-width=".5" points="160.187 104.769 161.162 107.415 161.747 109.955 162.528 111.119 163.405 112.812 164.283 115.564 165.063 116.834 165.063 117.469 164.576 117.892 163.015 118.739 162.04 119.586 161.065 120.115 159.602 120.75 157.261 121.385 156.871 121.279 156.578 120.961 156.09 118.951"><title>2023-11-27 1.0km</title><desc>10287544518</desc></polyline><polyline fill="none" stroke="#4dd2ff" stroke-linecap="round" stroke-linejoin="round" stroke-width=".5" points="179.163 108.371 179.698 109.649 180.983 116.156 182.375 119.526 183.125 120.804 183.66 121.385 183.767 121.268 183.446 120.687 183.446 119.758 182.59 117.783 181.626 114.529 180.662 112.554 180.02 108.836 178.199 105.931 177.771 104.769"><title>2023-11-26 1.0km</title><desc>10281488289</desc></polyline><polyline fill="none" stroke="#4dd2ff" stroke-linecap="round" stroke-linejoin="round" stroke-width=".5" points="16.205 123.231 17.44 126.447 18.552 131.003 19.663 133.548 19.91 135.156 20.527 136.63 21.886 139.176 22.503 139.846 22.75 139.846 20.898 135.826 20.651 134.486 19.416 132.744 16.946 126.045 15.711 123.767"><title>2023-11-25 1.0km</title><desc>10275889695</desc></polyline><polyline fill="none" stroke="#4dd2ff" stroke-linecap="round" stroke-linejoin="round" stroke-width=".5" points="36.203 123.386 37.062 127.268 41.069 138.138 42.071 139.691 42.5 139.846 42.643 139.38 41.212 137.517 39.495 132.393 38.35 130.063 37.634 125.56 36.776 123.231"><title>2023-11-24 1.0km</title><desc>10271180196</desc></polyline><polyline fill="none" stroke="#4dd2ff" stroke-linecap="round" stroke-linejoin="round" stroke-width=".5" points="57.549 125.077 57.914 126.132 58.765 130.615 60.831 136.945 61.803 139.582 62.167 139.846 62.654 139.846 62.775 139.582 62.532 138.264 61.195 134.44 57.671 126.791 56.456 123.231"><title>2023-11-23 1.0km</title><desc>10265414399</desc></polyline><polyline fill="none" stroke="#4dd2ff" stroke-linecap="round" stroke-linejoin="round" stroke-width=".5" points="78.352 126.975 78.46 128.613 78.891 131.187 80.616 136.102 81.156 138.442 82.018 139.846 82.665 139.846 82.557 139.144 81.371 136.102 80.401 134.581 78.999 130.251 77.381 125.805 76.95 123.231"><title>2023-11-21 1.0km</title><desc>10253878272</desc></polyline><polyline fill="none" stroke="#4dd2ff" stroke-linecap="round" stroke-linejoin="round" stroke-width=".5" points="98.212 127.718 98.771 131.357 101.118 137.299 102.124 139.482 102.459 139.846 102.682 139.725 102.794 139.482 102.347 137.542 100.335 133.176 99.553 130.871 98.323 126.142 97.653 124.929 97.206 123.231"><title>2023-11-20 1.0km</title><desc>10248671423</desc></polyline><polyline fill="none" stroke="#4dd2ff" stroke-linecap="round" stroke-linejoin="round" stroke-width=".5" points="117.234 124.615 118.858 128.14 119.322 131.79 120.598 134.685 121.874 138.336 122.454 139.217 123.15 139.846 123.034 138.839 121.062 133.678 119.786 129.021 118.51 126 117.814 123.231"><title>2023-11-19 1.0km</title><desc>10242265034</desc></polyline><polyline fill="none" stroke="#4dd2ff" stroke-linecap="round" stroke-linejoin="round" stroke-width=".5" points="137.155 138.035 137.881 135.751 138.171 135.2 138.679 134.885 141.147 134.57 142.961 134.176 143.541 133.704 143.904 133.232 144.34 131.263 144.194 130.633 144.485 130.16 144.267 126.538 144.122 126.066 144.049 124.648 143.904 123.782 143.106 123.546 142.453 124.018 142.598 123.782 142.743 124.018 141.8 123.546 141.727 123.231 141.509 123.388 141.655 123.31 141.147 123.939 141.219 123.861 142.743 124.648 142.38 124.963 141.8 125.199 140.421 125.436 140.348 125.121 140.711 124.963 141.219 125.042 142.743 123.546 144.848 123.625 144.63 123.467 144.34 123.388 144.122 127.168 144.194 128.271 144.412 129.609 144.557 131.893 144.557 132.68 144.34 133.468 143.904 133.94 140.276 134.334 138.607 134.649 137.736 135.279 136.72 136.696 136.139 138.744 135.922 139.846"><title>2023-11-18 1.0km</title><desc>10236386505</desc></polyline><polyline fill="none" stroke="#4dd2ff" stroke-linecap="round" stroke-linejoin="round" stroke-width=".5" points="157.186 123.231 159.593 127.385 160.468 130.47 160.796 132.251 161.452 133.319 163.53 139.371 163.968 139.846 163.968 139.371 163.53 138.778 162.327 135.218 161.671 134.031 161.452 132.013 160.468 129.521 159.374 127.147 159.264 125.842"><title>2023-11-17 1.0km</title><desc>10231268371</desc></polyline><polyline fill="none" stroke="#4dd2ff" stroke-linecap="round" stroke-linejoin="round" stroke-width=".5" points="177.806 123.767 179.411 126.045 179.781 129.127 180.893 131.538 182.622 137.97 183.733 139.846 183.609 138.774 182.745 137.032 182.128 135.29 181.14 131.136 179.164 126.983 178.546 125.107 178.176 123.231"><title>2023-11-16 1.0km</title><desc>10225818993</desc></polyline><polyline fill="none" stroke="#4dd2ff" stroke-linecap="round" stroke-linejoin="round" stroke-width=".5" points="16.349 141.871 17.173 145.087 18.49 148.66 20.301 152.055 20.96 154.735 22.112 157.057 23.265 158.308 20.301 152.769 18.984 148.66 15.197 141.692"><title>2023-11-15 1.0km</title><desc>10219684298</desc></polyline><polyline fill="none" stroke="#4dd2ff" stroke-linecap="round" stroke-linejoin="round" stroke-width=".5" points="36.487 143.691 37.984 145.565 38.214 147.939 39.941 152.061 40.977 155.559 42.014 158.183 42.474 158.308 42.359 156.809 40.862 154.81 40.287 153.061 39.366 151.936 39.02 150.562 37.293 147.064 36.718 144.566 36.372 141.692"><title>2023-11-14 1.0km</title><desc>10213806154</desc></polyline><polyline fill="none" stroke="#4dd2ff" stroke-linecap="round" stroke-linejoin="round" stroke-width=".5" points="57.396 143.98 58.284 147.351 60.725 153.612 61.28 155.659 62.389 157.946 62.722 158.308 62.056 157.104 60.503 153.371 60.392 152.408 59.283 149.759 57.618 146.749 56.952 144.702 56.509 141.692"><title>2023-11-13 1.0km</title><desc>10208522228</desc></polyline><polyline fill="none" stroke="#4dd2ff" stroke-linecap="round" stroke-linejoin="round" stroke-width=".5" points="77.952 143.58 79.112 147.105 80.504 150 81.316 153.399 82.128 155.79 83.172 158.056 83.636 158.308 83.868 157.804 82.592 155.287 81.896 152.518 79.344 150.126 77.952 148.112 77.72 145.972 75.748 141.692"><title>2023-11-12 1.0km</title><desc>10202270880</desc></polyline><polyline fill="none" stroke="#4dd2ff" stroke-linecap="round" stroke-linejoin="round" stroke-width=".5" points="97.486 144.792 100.229 150.992 101.143 154.092 102.057 156.572 102.628 157.688 103.2 158.308 103.314 157.812 102.285 154.712 100.343 151.736 98.286 147.024 97.486 143.676 96.686 141.692"><title>2023-11-11 1.0km</title><desc>10196068378</desc></polyline><polyline fill="none" stroke="#4dd2ff" stroke-linecap="round" stroke-linejoin="round" stroke-width=".5" points="118.648 144.17 120.528 149.854 122.274 154.518 123.08 157.579 123.617 158.308 123.886 158.016 123.483 156.267 121.468 151.749 119.454 147.522 116.767 143.296 116.499 141.692"><title>2023-11-10 1.0km</title><desc>10191120477</desc></polyline><polyline fill="none" stroke="#4dd2ff" stroke-linecap="round" stroke-linejoin="round" stroke-width=".5" points="136.527 142.2 138.514 143.722 139.683 145.751 140.034 146.512 140.034 147.654 141.32 151.585 141.787 153.868 142.722 156.405 142.956 157.674 143.541 158.308 143.891 158.181 144.242 157.674 142.956 156.786 140.852 153.742 138.398 147.019 137.813 143.214 137.229 141.692"><title>2023-11-09 1.0km</title><desc>10185506531</desc></polyline><polyline fill="none" stroke="#4dd2ff" stroke-linecap="round" stroke-linejoin="round" stroke-width=".5" points="157.336 143.026 158.565 145.452 159.012 146.665 160.465 149.818 161.024 152.001 160.912 150.667 161.136 151.516 161.583 154.791 162.589 157.823 163.036 158.308 163.595 158.065 163.818 157.701 162.589 156.61 161.695 155.154 161.136 153.578 160.353 150.91 159.236 149.333 158.006 146.665 157.671 144.724 157.783 142.299 157.559 141.692"><title>2023-11-08 1.0km</title><desc>10179505859</desc></polyline><polyline fill="none" stroke="#4dd2ff" stroke-linecap="round" stroke-linejoin="round" stroke-width=".5" points="180.02 150.871 183.767 158.308 183.982 158.192 183.446 156.913 182.483 155.287 181.84 153.66 180.555 152.266 180.127 151.452 179.806 148.664 179.591 147.85 178.306 145.643 177.557 141.692"><title>2023-11-06 1.0km</title><desc>10167691585</desc></polyline><polyline fill="none" stroke="#4dd2ff" stroke-linecap="round" stroke-linejoin="round" stroke-width=".5" points="17.633 164.816 18.405 166.25 21.269 172.825 22.481 176.53 22.701 176.769 22.921 176.769 22.921 176.411 22.04 174.498 21.269 173.422 21.159 172.825 20.498 172.107 18.625 168.88 16.422 163.262 15.54 160.154"><title>2023-11-05 1.1km</title><desc>10161301187</desc></polyline><polyline fill="none" stroke="#4dd2ff" stroke-linecap="round" stroke-linejoin="round" stroke-width=".5" points="36.316 160.154 38.535 165.09 39.534 169.425 41.087 172.435 41.642 174.843 42.197 176.769 42.53 176.408 42.419 176.047 40.977 173.398 40.866 173.037 39.534 170.99 38.979 169.064 37.537 166.415 37.204 164.127 36.538 161.719"><title>2023-11-04 1.0km</title><desc>10155501797</desc></polyline><polyline fill="none" stroke="#4dd2ff" stroke-linecap="round" stroke-linejoin="round" stroke-width=".5" points="64.073 162.678 62.813 160.995 62.038 160.469 60.488 160.154 59.034 160.259 56.999 161.205 56.127 162.047 55.351 163.624 55.158 164.886 54.867 169.093 55.061 173.509 55.255 174.14 56.224 175.718 57.386 176.559 59.325 176.769 61.069 176.033 62.716 174.035 63.201 173.089 63.879 170.039 63.879 167.62 64.364 164.465 64.267 163.309 63.201 162.047 62.329 161.416 60.294 160.469 59.228 160.469 56.902 161.205 55.836 162.152 55.158 163.414 54.964 164.255 55.158 167.725 54.964 169.303"><title>2023-11-03 1.0km</title><desc>10152446508</desc></polyline><polyline fill="none" stroke="#4dd2ff" stroke-linecap="round" stroke-linejoin="round" stroke-width=".5" points="76.369 160.154 77.277 162.125 78.056 165.645 79.354 168.18 81.3 173.249 81.689 174.094 82.338 176.347 82.727 176.769 83.246 176.769 83.246 176.488 82.338 176.065 81.949 175.08 81.04 174.235 80.392 172.404 79.483 170.996 78.445 168.884 77.277 164.519 76.499 162.688"><title>2023-11-02 1.1km</title><desc>10144903556</desc></polyline><polyline fill="none" stroke="#4dd2ff" stroke-linecap="round" stroke-linejoin="round" stroke-width=".5" points="97.171 161.358 97.392 162.682 98.28 164.729 99.834 170.268 102.497 175.806 103.273 176.769 102.829 175.324 101.165 172.796 100.277 169.545 99.168 167.98 97.836 165.09 96.727 160.154"><title>2023-11-01 1.0km</title><desc>10138966680</desc></polyline><polyline fill="none" stroke="#4dd2ff" stroke-linecap="round" stroke-linejoin="round" stroke-width=".5" points="117.775 160.404 118.35 162.278 119.271 167.275 120.768 170.523 121.689 173.521 123.186 176.769 123.301 176.644 122.265 175.145 120.768 171.647 119.502 169.399 117.314 162.777 117.084 160.154"><title>2023-10-31 1.0km</title><desc>10133123337</desc></polyline><polyline fill="none" stroke="#4dd2ff" stroke-linecap="round" stroke-linejoin="round" stroke-width=".5" points="137.776 162.123 138.343 165.077 138.343 166.185 139.591 168.277 142.993 175.538 143.561 176.646 143.787 176.769 141.179 171.6 140.044 168.4 138.797 165.815 136.982 160.154"><title>2023-10-30 1.0km</title><desc>10127985445</desc></polyline><polyline fill="none" stroke="#4dd2ff" stroke-linecap="round" stroke-linejoin="round" stroke-width=".5" points="157.958 162.559 158.461 165.947 158.764 167.041 160.778 171.741 161.786 174.474 163.297 176.551 163.7 176.769 163.801 176.441 162.894 175.02 161.584 172.178 159.267 167.915 158.361 164.745 157.655 163.324 157.555 161.138 157.353 160.154"><title>2023-10-28 1.0km</title><desc>10115543824</desc></polyline><polyline fill="none" stroke="#4dd2ff" stroke-linecap="round" stroke-linejoin="round" stroke-width=".5" points="178.614 163.6 179.522 166.554 180.542 168.892 181.45 172.215 182.811 175.415 183.378 176.646 183.945 176.769 184.059 176.646 183.832 175.908 183.151 174.062 180.883 169.631 179.068 164.708 177.934 162.246 177.48 160.154"><title>2023-10-27 1.0km</title><desc>10110442644</desc></polyline><polyline fill="none" stroke="#4dd2ff" stroke-linecap="round" stroke-linejoin="round" stroke-width=".5" points="16.979 181.181 19.118 188.389 19.906 190.588 20.694 191.932 21.595 194.498 21.933 194.986 22.608 195.231 22.721 194.864 22.608 194.376 21.483 192.91 19.794 189.977 17.767 183.991 16.416 181.792 15.74 178.615"><title>2023-10-26 1.0km</title><desc>10104873905</desc></polyline><polyline fill="none" stroke="#4dd2ff" stroke-linecap="round" stroke-linejoin="round" stroke-width=".5" points="38.591 186.562 41.143 192.943 42.363 195.11 42.807 195.231 42.696 194.027 39.7 188.85 38.036 184.635 36.594 181.625 36.039 178.615"><title>2023-10-25 1.0km</title><desc>10098978222</desc></polyline><polyline fill="none" stroke="#4dd2ff" stroke-linecap="round" stroke-linejoin="round" stroke-width=".5" points="56.542 178.615 56.43 179.464 57.101 182.254 57.995 184.073 58.554 186.256 59.56 189.167 61.683 193.29 62.354 194.988 62.577 195.231 62.801 195.109 62.689 193.533 61.46 191.229 60.565 189.894 59.448 187.348 59.224 186.013 57.883 183.952 57.101 182.133 56.877 179.949 56.542 178.615"><title>2023-10-24 1.0km</title><desc>10092835699</desc></polyline><polyline fill="none" stroke="#4dd2ff" stroke-linecap="round" stroke-linejoin="round" stroke-width=".5" points="78.1 181.484 79.753 187.341 80.524 188.776 81.405 192.362 82.727 194.753 83.278 195.231 82.727 194.633 81.956 192.721 79.973 190.33 79.532 189.493 79.092 186.744 77.77 184.114 76.888 181.365 76.338 178.615"><title>2023-10-23 1.0km</title><desc>10087395010</desc></polyline><polyline fill="none" stroke="#4dd2ff" stroke-linecap="round" stroke-linejoin="round" stroke-width=".5" points="94.621 178.695 94.914 178.615 97.007 178.775 97.925 179.014 98.146 179.133 98.623 179.492 98.953 179.89 99.688 181.245 100.055 182.759 100.532 183.556 100.753 184.194 101.267 185.349 101.634 186.545 102.185 187.501 102.442 187.78 102.772 188.338 102.956 189.533 103.066 189.852 103.36 190.29 103.433 190.967 103.543 191.246 105.159 195.071 105.379 195.231 105.379 195.032 105.049 194.713 104.682 193.836 104.315 193.079 103.323 190.011"><title>2023-10-22 1.5km</title><desc>10080655811</desc></polyline><polyline fill="none" stroke="#4dd2ff" stroke-linecap="round" stroke-linejoin="round" stroke-width=".5" points="117.55 178.615 118.133 179.037 117.083 178.868 118.715 180.977 118.871 181.483 118.754 181.905 118.21 182.2 118.055 182.495 118.094 183.001 118.405 184.224 118.754 185.11 119.143 186.459 119.843 187.682 119.959 188.146 120.387 188.905 120.659 189.243 120.698 189.453 120.97 189.706 121.164 190.128 121.436 190.929 121.708 191.478 121.669 192.574 122.174 193.544 122.33 194.008 122.602 194.514 123.068 195.104 123.301 195.231 122.408 193.966 122.213 193.291 121.825 192.448 121.669 191.899 121.164 191.182 120.736 189.959"><title>2023-10-20 1.4km</title><desc>10069668027</desc></polyline><polyline fill="none" stroke="#4dd2ff" stroke-linecap="round" stroke-linejoin="round" stroke-width=".5" points="137.041 178.615 137.12 179.259 137.753 180.805 137.912 181.75 139.217 184.927 139.336 185.356 139.415 186 139.574 186.429 140.523 187.76 141.037 188.791 141.354 189.821 141.631 190.379 141.789 191.238 141.987 191.667 142.501 192.998 142.581 193.513 143.332 195.059 143.53 195.231 143.649 195.231 143.728 195.188 143.688 195.145 142.897 194.157 142.541 192.955 141.789 191.581 141.671 191.023 141.591 190.079"><title>2023-10-19 1.3km</title><desc>10064004415</desc></polyline><polyline fill="none" stroke="#4dd2ff" stroke-linecap="round" stroke-linejoin="round" stroke-width=".5" points="156.83 178.615 158.459 180.737 158.351 182.268 158.568 183.8 159.328 186.511 160.414 188.278 161.5 191.342 163.672 194.877 163.998 195.231 164.324 195.113 162.912 193.699 160.305 188.632 159.654 186.393 157.808 182.504"><title>2023-10-18 1.0km</title><desc>10058081424</desc></polyline><polyline fill="none" stroke="#4dd2ff" stroke-linecap="round" stroke-linejoin="round" stroke-width=".5" points="177.869 179.622 178.797 185.035 181.233 191.455 182.857 194.853 183.553 195.231 183.901 195.231 184.133 194.727 183.321 193.72 182.277 192.084 180.885 189.063 180.305 187.301 177.869 182.392 177.637 181.636 177.405 178.615"><title>2023-10-17 1.0km</title><desc>10051702317</desc></polyline><polyline fill="none" stroke="#4dd2ff" stroke-linecap="round" stroke-linejoin="round" stroke-width=".5" points="15.52 197.46 16.698 199.505 18.465 204.107 19.407 205.896 20.468 209.219 21.763 212.542 22.234 213.437 22.823 213.692 22.941 213.564 22.823 213.181 21.528 211.264 19.761 206.918 18.465 204.234 17.405 199.25 16.816 197.077"><title>2023-10-16 1.0km</title><desc>10046279660</desc></polyline><polyline fill="none" stroke="#4dd2ff" stroke-linecap="round" stroke-linejoin="round" stroke-width=".5" points="36.02 197.077 36.506 198.132 36.993 200.506 38.086 204.198 39.545 206.44 41.246 212.769 41.854 213.429 42.704 213.692 42.826 213.429 42.704 212.637 41.124 210.396 40.274 207.758 39.302 206.176 36.993 200.769 36.142 197.077"><title>2023-10-15 1.0km</title><desc>10039610121</desc></polyline><polyline fill="none" stroke="#4dd2ff" stroke-linecap="round" stroke-linejoin="round" stroke-width=".5" points="56.158 198.283 56.528 202.169 57.516 204.983 58.751 206.725 59.492 209.136 61.591 212.888 62.085 213.424 62.703 213.692 63.073 213.424 63.073 213.022 60.603 211.012 58.998 208.065 58.381 205.519 56.899 202.169 56.158 199.355 56.281 197.613 56.158 197.077"><title>2023-10-14 1.0km</title><desc>10033377496</desc></polyline><polyline fill="none" stroke="#4dd2ff" stroke-linecap="round" stroke-linejoin="round" stroke-width=".5" points="76.04 197.341 78.228 199.978 78.471 201.956 80.537 208.286 82.481 212.901 83.089 213.692 83.575 213.692 83.575 213.297 83.453 212.901 82.36 212.11 81.144 209.868 79.808 205.648 77.377 200.242 77.013 198.396 76.405 197.077"><title>2023-10-13 1.0km</title><desc>10028006924</desc></polyline><polyline fill="none" stroke="#4dd2ff" stroke-linecap="round" stroke-linejoin="round" stroke-width=".5" points="96.435 197.077 97.604 198.599 98.305 199.867 98.422 201.516 98.305 203.292 99.591 205.955 101.11 210.014 102.63 212.804 102.981 213.312 103.565 213.692 103.565 213.058 102.279 211.409 101.11 209.38 99.591 205.194 98.656 203.546 98.188 202.15"><title>2023-10-12 1.0km</title><desc>10021974100</desc></polyline><polyline fill="none" stroke="#4dd2ff" stroke-linecap="round" stroke-linejoin="round" stroke-width=".5" points="118.25 199.433 118.707 201.913 118.593 202.905 119.621 206.253 120.421 207.741 121.221 210.468 122.363 213.196 122.592 213.444 123.163 213.692 123.049 213.196 121.792 209.972 120.421 207.617 118.593 203.401 118.135 201.789 117.907 199.433 117.221 197.077"><title>2023-10-10 1.0km</title><desc>10009069592</desc></polyline><polyline fill="none" stroke="#4dd2ff" stroke-linecap="round" stroke-linejoin="round" stroke-width=".5" points="137.57 199.154 138.358 201.353 139.146 204.285 140.835 207.95 142.186 212.593 142.974 213.692 143.199 213.326 143.312 211.982 142.524 209.661 140.835 206.729 138.921 201.353 138.358 198.91 137.457 197.077"><title>2023-10-09 1.0km</title><desc>10003389142</desc></polyline><polyline fill="none" stroke="#4dd2ff" stroke-linecap="round" stroke-linejoin="round" stroke-width=".5" points="157.194 197.077 158.025 198.107 158.856 200.039 159.331 203.903 161.111 207.767 162.654 212.147 163.366 213.435 163.96 213.692 163.96 212.662 161.705 209.055 158.737 201.843 157.55 197.206"><title>2023-10-08 1.0km</title><desc>9996447828</desc></polyline><polyline fill="none" stroke="#4dd2ff" stroke-linecap="round" stroke-linejoin="round" stroke-width=".5" points="178.636 200.4 179.183 202.418 180.824 206.809 181.371 208.708 183.121 213.099 183.668 213.692 183.777 213.218 183.777 212.743 181.699 209.064 180.715 206.927 178.965 201.706 178.418 198.976 177.761 197.077"><title>2023-10-07 1.0km</title><desc>9989974159</desc></polyline><polyline fill="none" stroke="#4dd2ff" stroke-linecap="round" stroke-linejoin="round" stroke-width=".5" points="17.873 220.488 18.742 223.316 19.394 224.73 20.697 230.268 21.023 231.329 21.674 232.154 22.217 232.154 22.434 231.682 22.326 231.329 21.023 229.444 19.719 226.615 19.285 224.73 17.005 219.192 16.679 217.188 16.027 215.538"><title>2023-10-06 1.0km</title><desc>9984428862</desc></polyline><polyline fill="none" stroke="#4dd2ff" stroke-linecap="round" stroke-linejoin="round" stroke-width=".5" points="35.846 215.538 37.729 220.578 38.984 224.8 41.117 230.111 41.996 231.881 42.373 232.154 42.875 232.154 43 231.881 42.624 231.201 41.117 229.021 40.239 227.251 38.733 223.301 38.105 221.259 36.348 217.99 36.348 216.764"><title>2023-10-04 1.0km</title><desc>9971682885</desc></polyline><polyline fill="none" stroke="#4dd2ff" stroke-linecap="round" stroke-linejoin="round" stroke-width=".5" points="57.101 217.479 57.659 219.419 58.218 220.754 58.665 222.815 60.789 227.06 60.901 228.515 61.571 231.426 61.795 231.79 62.465 232.154 62.465 230.941 61.012 228.273 60.007 225.969 59.448 224.877 58.889 223.3 57.771 220.996 57.324 219.177 57.101 217.358 56.765 215.538"><title>2023-10-03 1.0km</title><desc>9965060084</desc></polyline><polyline fill="none" stroke="#4dd2ff" stroke-linecap="round" stroke-linejoin="round" stroke-width=".5" points="76.771 216.225 78.289 221.168 78.542 223.366 79.428 224.464 80.061 226.112 81.2 230.369 82.086 231.742 82.718 232.154 82.845 232.017 82.465 230.918 81.073 228.309 78.795 222.816 77.403 218.697 77.15 215.538"><title>2023-10-02 1.0km</title><desc>9958643020</desc></polyline><polyline fill="none" stroke="#4dd2ff" stroke-linecap="round" stroke-linejoin="round" stroke-width=".5" points="97.366 218.463 97.611 219.659 100.306 226.039 101.654 230.16 102.389 231.622 103.124 232.154 103.246 232.021 103.124 231.489 100.674 227.767 98.346 222.052 97.244 218.596 96.754 215.538"><title>2023-10-01 1.0km</title><desc>9952075403</desc></polyline><polyline fill="none" stroke="#4dd2ff" stroke-linecap="round" stroke-linejoin="round" stroke-width=".5" points="117.807 217.946 118.805 219.993 119.249 222.04 119.582 223.967 121.246 228.662 122.689 231.672 123.355 232.154 123.577 231.793 121.357 228.421 120.359 226.134 120.026 224.93 118.472 221.559 117.585 217.826 116.808 215.538"><title>2023-09-30 1.0km</title><desc>9945549317</desc></polyline><polyline fill="none" stroke="#4dd2ff" stroke-linecap="round" stroke-linejoin="round" stroke-width=".5" points="137.812 215.538 138.915 217.399 139.282 218.862 140.262 221.254 140.752 224.843 141.12 225.906 142.59 229.495 142.957 231.755 143.202 232.021 143.57 232.154 143.692 231.888 141.487 227.9 140.017 224.444 139.527 222.45 137.812 218.463 137.077 216.07"><title>2023-09-28 1.0km</title><desc>9933629332</desc></polyline><polyline fill="none" stroke="#4dd2ff" stroke-linecap="round" stroke-linejoin="round" stroke-width=".5" points="157.329 217.427 158.257 220.699 159.997 223.091 161.157 227.371 162.781 230.266 163.245 231.902 163.709 232.154 163.941 231.776 163.709 231.273 162.781 230.014 160.113 224.601 158.721 220.825 157.213 215.538"><title>2023-09-27 1.0km</title><desc>9927137811</desc></polyline><polyline fill="none" stroke="#4dd2ff" stroke-linecap="round" stroke-linejoin="round" stroke-width=".5" points="182.15 215.538 181.818 217.136 181.487 218.055 181.229 219.173 179.72 222.328 178.947 223.647 178.8 224.206 178.874 224.645 179.058 225.284 179.61 226.642 179.794 227.002 180.015 227.641 180.751 228.559 181.082 229.278 181.45 229.837 181.745 230.636 182.186 231.235 182.738 232.154"><title>2023-09-26 1.0km</title><desc>9920397094</desc></polyline><polyline fill="none" stroke="#4dd2ff" stroke-linecap="round" stroke-linejoin="round" stroke-width=".5" points="19.153 234 18.429 236.414 17.705 237.705 17.032 238.547 16.67 239.22 16.515 239.894 16.567 240.736 16.825 241.41 17.446 242.364 17.705 243.318 18.222 244.553 19.205 245.788 20.86 249.156 21.947 250.615"><title>2023-09-25 1.0km</title><desc>9914573673</desc></polyline><polyline fill="none" stroke="#4dd2ff" stroke-linecap="round" stroke-linejoin="round" stroke-width=".5" points="40.648 234 40.24 234.62 40.158 234.93 40.24 235.329 40.281 235.728 39.464 237.234 39.26 238.254 38.974 239.007 37.259 242.02 37.218 242.374 37.381 243.083 37.831 243.792 38.076 244.412 38.443 245.033 38.647 245.653 39.178 246.495 39.586 247.337 40.036 247.824 40.158 248.267 40.444 248.622 41.056 249.685 41.506 250.172 41.628 250.615"><title>2023-09-24 1.0km</title><desc>9907510217</desc></polyline><polyline fill="none" stroke="#4dd2ff" stroke-linecap="round" stroke-linejoin="round" stroke-width=".5" points="60.235 234 59.888 234.538 59.64 235.075 59.492 235.774 59.442 236.689 58.6 237.818 58.104 239.108 57.658 239.754 57.361 240.614 57.311 241.528 58.352 244.163 58.748 244.969 60.037 247.013 60.582 248.357 61.275 249.217 61.672 249.916 61.92 250.615"><title>2023-09-23 1.0km</title><desc>9901004991</desc></polyline><polyline fill="none" stroke="#4dd2ff" stroke-linecap="round" stroke-linejoin="round" stroke-width=".5" points="80.446 234 80.115 234.615 79.784 235.692 79.028 237.282 78.272 238.359 77.61 240.154 77.563 241.128 77.657 241.692 78.603 243.949 78.744 244.615 78.933 244.974 79.595 245.795 80.115 246.821 80.54 247.897 81.249 248.923 82.053 250.615"><title>2023-09-22 1.0km</title><desc>9895405405</desc></polyline><polyline fill="none" stroke="#4dd2ff" stroke-linecap="round" stroke-linejoin="round" stroke-width=".5" points="100.881 234 100.745 234.49 100.474 234.784 99.887 235.863 99.661 236.647 98.984 238.362 98.261 239.833 97.809 240.911 97.674 241.45 97.674 241.793 97.809 242.283 98.08 242.773 98.668 244.293 99.255 245.371 99.571 246.155 100.158 247.136 100.519 247.577 100.79 248.361 101.513 249.635 102.326 250.615"><title>2023-09-21 1.0km</title><desc>9889267953</desc></polyline><polyline fill="none" stroke="#4dd2ff" stroke-linecap="round" stroke-linejoin="round" stroke-width=".5" points="121.884 234 121.291 235.779 120.942 237.179 120.384 238.353 119.721 240.321 118.57 242.478 118.256 243.651 118.291 243.916 118.501 244.484 118.954 245.468 119.233 246.301 119.931 247.285 120.349 248.08 120.593 248.647 120.872 249.139 121.326 249.48 121.884 250.313 121.919 250.464 122.128 250.615"><title>2023-09-20 1.0km</title><desc>9882714971</desc></polyline><polyline fill="none" stroke="#4dd2ff" stroke-linecap="round" stroke-linejoin="round" stroke-width=".5" points="141.762 234 141.408 234.897 140.739 236.862 140.7 237.503 140.463 237.844 140.188 238.485 140.03 239.083 139.715 239.894 138.81 241.347 138.574 242.201 138.495 242.97 138.574 243.739 138.81 244.593 139.086 245.191 139.952 246.686 140.385 247.284 140.778 248.352 141.172 249.035 141.565 249.59 141.998 250.017 142.274 250.615"><title>2023-09-19 1.0km</title><desc>9876194288</desc></polyline><polyline fill="none" stroke="#4dd2ff" stroke-linecap="round" stroke-linejoin="round" stroke-width=".5" points="160.455 234 160.161 234.478 159.672 235.433 159.525 236.07 158.645 237.61 157.96 239.043 157.813 239.574 157.862 240.158 158.155 240.901 158.596 241.697 158.987 242.812 159.525 243.98 160.112 245.042 160.65 245.732 161.286 246.793 161.678 248.014 162.363 249.076 162.705 250.031 163.341 250.615"><title>2023-09-18 1.0km</title><desc>9870505463</desc></polyline><polyline fill="none" stroke="#4dd2ff" stroke-linecap="round" stroke-linejoin="round" stroke-width=".5" points="180.936 234 180.698 234.466 180.364 236.019 179.934 236.743 179.744 237.313 178.694 239.021 178.313 239.953 178.074 240.781 178.265 241.35 179.314 243.628 179.839 244.456 180.221 245.336 180.841 246.164 181.175 246.733 181.604 248.079 183.464 250.615"><title>2023-09-16 1.0km</title><desc>9856514700</desc></polyline><polyline fill="none" stroke="#4dd2ff" stroke-linecap="round" stroke-linejoin="round" stroke-width=".5" points="19.001 252.462 18.491 254.012 17.827 255.065 16.449 257.723 16.398 258.332 16.449 259.052 16.755 259.772 17.266 260.548 17.725 261.6 18.542 262.985 19.563 264.923 19.665 265.643 20.022 265.92 20.43 266.474 21.094 267.582 21.808 268.191 21.961 268.578 22.064 269.077"><title>2023-09-15 1.0km</title><desc>9850671982</desc></polyline><polyline fill="none" stroke="#4dd2ff" stroke-linecap="round" stroke-linejoin="round" stroke-width=".5" points="39.845 252.462 39.001 254.696 38.05 256.071 37.628 256.816 36.994 258.42 36.836 258.993 36.836 259.452 36.994 260.024 37.628 261.743 38.209 262.889 39.634 265.353 40.215 266.441 40.321 267.072 40.743 267.473 41.429 268.561 42.01 269.077"><title>2023-09-14 1.0km</title><desc>9844236351</desc></polyline><polyline fill="none" stroke="#4dd2ff" stroke-linecap="round" stroke-linejoin="round" stroke-width=".5" points="56.975 252.462 57.279 252.709 57.393 252.956 57.469 253.492 57.697 253.946 57.849 255.224 57.849 255.842 57.773 256.172 57.849 256.585 58.039 257.079 57.963 257.492 58.001 257.698 58.381 258.399 58.722 259.429 59.026 260.007 59.406 260.543 59.824 260.914 59.938 261.161 60.052 261.697 60.356 262.233 60.698 263.222 61.154 264.088 61.382 264.83 61.496 265.449 61.724 265.944 62.142 267.304 62.712 268.376 62.75 268.541 62.712 268.665 62.256 269.077 62.484 268.912 62.598 268.665 62.674 268.458 62.636 268.17 62.408 267.881 61.724 266.397 61.382 265.284 60.66 263.676 60.318 262.109 60.128 261.656 59.406 260.707 58.684 259.347 58.343 258.234 58.229 257.492 57.925 256.708 57.317 255.389 57.165 254.77 56.633 253.781 56.519 253.245 56.481 252.585"><title>2023-09-13 1.0km</title><desc>9837636972</desc></polyline></svg>