<?xml version="1.0" encoding="utf-8" ?>
<svg baseProfile="full" height="300mm" version="1.1" viewBox="0,0,200,300" width="200mm" xmlns="http://www.w3.org/2000/svg" xmlns:ev="http://www.w3.org/2001/xml-events" xmlns:xlink="http://www.w3.org/1999/xlink"><defs /><rect fill="#222222" height="300" width="200" x="0" y="0" /><text fill="#FFFFFF" style="font-size:12px; font-family:Arial; font-weight:bold;" x="10" y="20">Over 1km Runs</text><text fill="#FFFFFF" style="font-size:4px; font-family:Arial" x="10" y="280">ATHLETE</text><text fill="#FFFFFF" style="font-size:9px; font-family:Arial" x="10" y="290">Jiakai</text><text fill="#FFFFFF" style="font-size:4px; font-family:Arial" x="120" y="280">STATISTICS</text><text fill="#FFFFFF" style="font-size:3px; font-family:Arial" x="120" y="285">Number: 99</text><text fill="#FFFFFF" style="font-size:3px; font-family:Arial" x="120" y="290">Weekly: 5.5</text><text fill="#FFFFFF" style="font-size:3px; font-family:Arial" x="141" y="285">Total: 102.5 km</text><text fill="#FFFFFF" style="font-size:3px; font-family:Arial" x="141" y="290">Avg: 1.0 km</text><text fill="#FFFFFF" style="font-size:3px; font-family:Arial" x="167" y="285">Min: 1.0 km</text><text fill="#FFFFFF" style="font-size:3px; font-family:Arial" x="167" y="290">Max: 1.5 km</text><polyline fill="none" points="16.75192282954231,33.26574467669707 16.867925585713238,35.15386295004282 17.099931098055094,36.03498409828171 19.30398346344009,39.93708659056574 20.348008268512785,42.32869339955505 20.928022049367428,44.34267548972275 21.97204685397446,46.3566552111879 22.08804961014539,48.244759048335254 22.7840661467053,48.87412653141655 23.132074415218085,49.0 23.596085438970476,48.87412653141655 23.48008268373087,48.37063256360125 22.7840661467053,47.237770594190806 19.41998621961102,39.55946415744256 17.33193660993129,35.279737427830696 16.403914561029524,31.0" stroke="#4dd2ff" stroke-linecap="round" stroke-linejoin="round" stroke-width="0.5"><title>2024-01-17 1.0km</title><desc>10572816563</desc></polyline><polyline fill="none" points="36.63048108154908,31.0 37.66725613363087,35.07813984097447 39.87040311843157,42.25001984962728 41.42556569585577,45.20313909614924 42.33274386683479,48.01562937779818 42.980728273745626,48.85937565623317 43.36951891845092,49.0 43.36951891845092,48.4375025635818 40.6479844073765,42.67189430666622 38.18564365943894,36.34376767894719 36.63048108154908,33.25000926339999" stroke="#4dd2ff" stroke-linecap="round" stroke-linejoin="round" stroke-width="0.5"><title>2024-01-16 1.0km</title><desc>10566280205</desc></polyline><polyline fill="none" points="56.382980935275555,31.406016977969557 58.25385286472738,35.330843146541156 59.75055040931329,40.473706149845384 61.49669754365459,43.99249887350015 62.993395088240504,48.32331145426724 63.36756947403774,49.0 63.617019064724445,49.0 59.875275204889476,41.28573583706748 59.002201637253165,38.57896882027853 58.378577660769224,36.142875102348626 57.50550409313291,34.38347207882907 56.63243052596226,31.0" stroke="#4dd2ff" stroke-linecap="round" stroke-linejoin="round" stroke-width="0.5"><title>2024-01-09 1.0km</title><desc>10520988068</desc></polyline><polyline fill="none" points="76.75715460581705,32.4887284807628 77.38077871967107,35.060165748465806 78.62802694831043,37.76693793933373 80.87307375948876,44.66918901109602 82.61922127986327,48.59398690296803 82.99339574761689,49.0 83.24284539418295,48.72932461183518 82.86867092549801,47.24060926469974 82.24504681117833,46.293244325672276 80.37417446868494,41.42107408342417 78.62802694831043,37.76693793933373 77.13132907403633,31.0" stroke="#4dd2ff" stroke-linecap="round" stroke-linejoin="round" stroke-width="0.5"><title>2024-01-07 1.0km</title><desc>10508221625</desc></polyline><polyline fill="none" points="98.58691426226869,36.333351957728155 98.83266830444336,37.66668749670498 99.93856148933992,40.4666889377404 100.9215776543133,43.80001835001167 102.88760998379439,48.60000194073655 103.37911806628108,49.0 103.37911806628108,48.066671058069915 102.27322488091886,46.20001173368655 101.65883977804333,44.20001746760681 99.20129936560988,39.000022055231966 98.34116022149101,36.73335272236727 97.72677511861548,35.666683820891194 96.62088193325326,31.0" stroke="#4dd2ff" stroke-linecap="round" stroke-linejoin="round" stroke-width="0.5"><title>2024-01-06 1.0km</title><desc>10501510624</desc></polyline><polyline fill="none" points="117.62194332526997,34.27274134848267 118.54996544169262,36.53848169394769 119.24598202994093,39.43358999455813 120.40600967640057,43.20981085568201 121.68204008741304,45.979034193907864 122.49405943974853,47.99301199009642 122.95807049795985,48.748253053287044 123.42208155663684,49.0 123.30607879208401,48.11888552387245 122.72606496885419,46.73427614511456 118.89797373628244,39.43358999455813 118.20195714849979,37.29372780956328 117.96995161892846,35.27973742748145 117.15793226659298,33.139870051061735 116.57791844336316,31.0" stroke="#4dd2ff" stroke-linecap="round" stroke-linejoin="round" stroke-width="0.5"><title>2024-01-05 1.0km</title><desc>10495609202</desc></polyline><polyline fill="none" points="136.2065286319703,31.0 136.9780821306631,32.81396122346632 137.62104337941855,34.76745598623529 138.52118912758306,36.58141360874288 140.19288837490603,41.325602270895615 142.2503643706441,46.069779074634425 143.0219178693369,48.58139728754759 143.53628686862066,49.0 143.7934713680297,48.30232876108494 143.66487911809236,47.32558859628625 140.57866512425244,41.046532678068615 139.54992712615058,37.41862423438579 138.52118912758306,31.55814209987875" stroke="#4dd2ff" stroke-linecap="round" stroke-linejoin="round" stroke-width="0.5"><title>2024-01-04 1.0km</title><desc>10489071805</desc></polyline><polyline fill="none" points="157.49954325752333,34.30883703043219 159.08519875304773,38.67649259837344 161.03677474707365,43.04413756961003 162.01256274431944,46.75000984175131 162.8663772419095,49.0 162.98835074156523,49.0 162.98835074156523,48.07353380450513 162.3784832432866,45.82354248885531 161.15874824672937,43.04413756961003 160.18296024994925,40.2647283594124 158.59730475442484,37.08825543615967 157.6215167576447,34.176483665942214 157.01164925890043,32.32353554200381 157.3775697578676,31.0" stroke="#4dd2ff" stroke-linecap="round" stroke-linejoin="round" stroke-width="0.5"><title>2024-01-03 1.0km</title><desc>10482519748</desc></polyline><polyline fill="none" points="176.3670011209324,31.297521962667815 179.52016995940357,40.52068110543769 182.8104330948554,48.404961237101816 183.49590458115563,49.0 183.6329988790676,48.404961237101816 183.22171598719433,47.36364297999535 179.7943585542962,40.81820166797843 178.56050987821072,37.54547307221219 176.77828401280567,31.0" stroke="#4dd2ff" stroke-linecap="round" stroke-linejoin="round" stroke-width="0.5"><title>2024-01-01 1.0km</title><desc>10470902913</desc></polyline><polyline fill="none" points="27.616729935631156,57.40818125801161 27.39104904886335,57.77552916947752 25.021399735007435,59.48981835064478 24.005835744086653,60.59186046384275 23.328793082851917,61.81635084503796 22.877431309316307,62.42859569785651 22.53890997869894,62.55104464129545 21.071984213776886,62.55104464129545 19.717898891773075,63.040840325760655 17.912451795767993,62.918391417944804 17.00972824729979,62.55104464129545 16.44552603038028,61.69390184734948 16.10700469976291,60.95920767285861 15.994164256379008,59.24492000427563 15.655642925295979,58.510224749101326 14.301557603757828,58.510224749101326 13.173153168987483,58.87757241737563 13.06031272560358,59.00002162193414 13.511674499604851,59.24492000427563 13.737355385906994,59.00002162193414 12.947472282219678,59.00002162193414 12.721791394986212,58.7551232035039 12.496110507752746,57.89797845506109 12.383270064368844,56.42858643166255 12.947472282219678,56.55103581654839 13.39883405668661,57.530630571069196 14.414398047607392,58.63267398066819 15.20428115176037,58.63267398066819 15.881323812995106,58.142876999801956 16.44552603038028,58.26532625826076 16.55836647376418,58.020427731913514 15.542802482377738,55.081642604316585 15.317121595144272,54.959193111164495 14.075876716524363,54.83674360951409 12.834631838370115,54.959193111164495 13.624514942988753,54.959193111164495 12.496110507752746,53.734697686857544 12.383270064368844,53.0 12.721791394986212,53.489798494149 13.06031272560358,55.081642604316585 13.39883405668661,55.81633937230799 13.737355385906994,57.40818125801161 13.06031272560358,61.571452840580605 13.850195829756558,65.36736785795074 14.527238490991294,66.46940608078148 14.640078934375197,68.30613483092748 15.655642925295979,71.0" stroke="#4dd2ff" stroke-linecap="round" stroke-linejoin="round" stroke-width="0.5"><title>2023-12-31 1.5km</title><desc>10466792666</desc></polyline><polyline fill="none" points="37.61318105319515,57.273397946031764 38.92593147419393,61.935274790157564 40.716045684646815,65.6906666085124 42.26747800037265,70.09352957841475 42.74484178982675,71.0 42.9835236845538,71.0 43.102864631451666,69.96403376583476 42.625500842463225,68.5395791985793 40.477363789919764,64.13671234436333 40.477363789919764,62.97124574659392 38.92593147419393,59.604337910655886 38.68724957946688,57.01440442644525 38.20988579047844,55.46044250787236 36.897135369013995,53.0" stroke="#4dd2ff" stroke-linecap="round" stroke-linejoin="round" stroke-width="0.5"><title>2023-12-30 1.0km</title><desc>10458865202</desc></polyline><polyline fill="none" points="60.978762291837484,53.0 58.71215487923473,53.2236037919065 57.16674073366448,54.22982044820674 56.033437027130276,55.347838174086064 55.51829897845164,56.68945835984778 55.10618853988126,61.94412601995282 55.621326588094234,67.19877551647369 55.827381807379425,67.98138133413158 56.13646463630721,68.65218599990476 57.78490639152005,70.44099699554499 59.63940336601809,71.0 61.08178990148008,70.77639882266521 62.833259265869856,69.65839244390372 63.86353536276147,68.76398674899247 64.89381145965308,65.74536364292726 64.79078385047615,63.39754152763635 64.4817010210827,61.385119685321115 64.27564580226317,56.46585507784039 63.966562972869724,55.236036438611336 63.34839731454849,54.453424059203826 62.627204046584666,53.89441497006919 60.978762291837484,53.5590094178915 58.71215487923473,53.67081127688289 57.06371312355623,54.565225852420554 56.239492246415466,55.57144162070472 55.621326588094234,57.13666482537519 55.621326588094234,57.91927582339849 55.93040941702202,59.81990085518919 55.72435419820249,61.385119685321115" stroke="#4dd2ff" stroke-linecap="round" stroke-linejoin="round" stroke-width="0.5"><title>2023-12-29 1.0km</title><desc>10454615358</desc></polyline><polyline fill="none" points="77.48660630453378,54.90909918991383 79.24598189117387,61.18183983606286 82.01071495609358,69.6363697515335 82.89040275011212,71.0 83.0160724343732,71.0 83.0160724343732,69.6363697515335 81.13102716300637,63.909111761138774 79.62299094581977,60.22729371488094 78.61763346754014,58.318199999048375 76.98392756516114,53.0" stroke="#4dd2ff" stroke-linecap="round" stroke-linejoin="round" stroke-width="0.5"><title>2023-12-27 1.0km</title><desc>10441997651</desc></polyline><polyline fill="none" points="96.60691900970414,55.318191617610864 98.61763367056847,59.27274710254278 99.6229910007678,63.36365769722033 101.00535733019933,65.9545630736975 102.63906299276277,70.1818219712004 103.14174165716395,71.0 103.39308099029586,70.86363702046219 102.51339332573116,68.27273850073107 101.25669666333124,66.36365306563675 97.2352673416026,56.818196414853446 96.98392800893635,54.227278276346624 96.60691900970414,53.0" stroke="#4dd2ff" stroke-linecap="round" stroke-linejoin="round" stroke-width="0.5"><title>2023-12-17 1.0km</title><desc>10391591057</desc></polyline><polyline fill="none" points="117.07950775464997,56.16902771452442 118.481344032567,59.84509256517049 120.81773782847449,64.40847251110245 122.92049224441871,70.49296031869017 123.3877710038796,71.0 123.50459069386125,70.87324009358417 123.50459069386125,70.36620037502144 122.92049224441871,68.71832025947515 119.76636062003672,62.50706566812005 118.36452434258536,58.704245691304095 117.31314713414758,54.39437291189097 116.49540930567309,53.0" stroke="#4dd2ff" stroke-linecap="round" stroke-linejoin="round" stroke-width="0.5"><title>2023-12-16 1.0km</title><desc>10386207035</desc></polyline><polyline fill="none" points="137.56786756357178,56.383472079527564 138.0667665246874,58.684229540871456 139.8129128892906,63.96242696943227 140.81071081198752,65.58648467215244 142.18268295563757,70.05263596656732 142.5568571765907,71.0 142.80630665738136,71.0 142.80630665738136,69.64662266056985 140.93543555215,63.96242696943227 138.3162160050124,59.90227644436527 138.19149126531556,58.27821372705512 137.4431428234093,56.383472079527564 137.69259230373427,55.16542284714524 137.19369334261864,53.0" stroke="#4dd2ff" stroke-linecap="round" stroke-linejoin="round" stroke-width="0.5"><title>2023-12-14 1.0km</title><desc>10376526598</desc></polyline><polyline fill="none" points="163.8635347946547,54.565225852653384 162.9362864443101,53.7826131277252 161.39087252598256,53.111801900318824 159.9484862028621,53.0 158.506099879276,53.33540567557793 156.6516031776555,54.34162225795444 155.82738242158666,55.459639901760966 155.20921685406938,57.360268009011634 155.20921685406938,61.60872224404011 155.4152720430866,62.95033690426499 155.82738242158666,64.6273535641376 155.51829963782802,66.63977111433633 155.6213272321038,67.42237722000573 155.72435482637957,67.86958052788395 156.75463077239692,69.65839244425297 158.40307228453457,70.88819941575639 158.91821025684476,71.0 159.9484862028621,71.0 160.97876214748248,71.0 162.83325884956867,70.32919637009036 163.8635347946547,69.32299037033226 164.48170036217198,68.20498292252887 164.68775555118918,65.74536364304367 164.79078314593062,64.0683482165914 164.48170036217198,62.05592726240866 164.68775555118918,59.37269517919049 164.58472795644775,57.02486322144978 164.48170036217198,56.242251763120294 163.76050720037892,54.67702763737179 163.45142441662028,54.34162225795444 162.31812087725848,53.55900941800792 160.0515137971379,53.33540567557793 158.60912747355178,53.55900941800792 157.78490671748295,53.89441497018561 156.23949279962108,55.57144162082113 155.6213272321038,57.91927582328208 155.82738242158666,59.48449661070481" stroke="#4dd2ff" stroke-linecap="round" stroke-linejoin="round" stroke-width="0.5"><title>2023-12-13 1.0km</title><desc>10373769329</desc></polyline><polyline fill="none" points="177.8336064396426,55.552249595173635 179.07154561718926,60.65673809009604 180.30948479427025,63.34330525412224 182.7853631488979,70.328361393651 183.28053881973028,71.0 183.52812665514648,71.0 183.65192057285458,70.46268913464155 183.15674490202218,69.65672254085075 181.17604221822694,66.29852457169909 178.328782110475,60.52240962779615 177.9574003573507,58.776138724409975 176.59566726256162,55.82090723980218 176.34807942714542,53.0" stroke="#4dd2ff" stroke-linecap="round" stroke-linejoin="round" stroke-width="0.5"><title>2023-12-12 1.0km</title><desc>10365882163</desc></polyline><polyline fill="none" points="16.495410336647183,75.0 17.780426546465605,77.78874469583388 19.532721378374845,82.22537468874361 20.817737588193268,84.63382618967444 22.68685207562521,90.46480010182131 22.92049138667062,91.98592048813589 23.387770008295774,93.0 23.504589663352817,92.11268045951147 23.27095035277307,91.09860042587388 20.817737588193268,85.52114957885351 19.06544275628403,82.09861399035435 18.598164135124534,80.70424569153693 18.247705168556422,77.78874469583388 17.31314792530611,75.1267612206284" stroke="#4dd2ff" stroke-linecap="round" stroke-linejoin="round" stroke-width="0.5"><title>2023-12-11 1.0km</title><desc>10361067591</desc></polyline><polyline fill="none" points="40.360617144498974,85.04350078164134 42.764731439296156,92.34782927564811 42.88493715412915,92.73913173889741 43.36576001346111,93.0 43.48596572736278,92.86956587433815 43.12534858379513,91.95652672543656 42.04349715076387,89.86957833555061 40.84144000336528,86.60871656169184 37.47567999083549,79.82610487437341 36.51403427263722,75.0" stroke="#4dd2ff" stroke-linecap="round" stroke-linejoin="round" stroke-width="0.5"><title>2023-12-10 1.0km</title><desc>10355395415</desc></polyline><polyline fill="none" points="56.828689941670746,76.1911820312962 58.90223882580176,79.50001687242184 59.878026535734534,83.60296362906229 61.95157541986555,89.42648490634747 62.683416202664375,92.60294311749749 63.171310058329254,93.0 63.2932835216634,92.86764771549497 63.2932835216634,92.60294311749749 63.04933659406379,91.5441243366804 60.48789385519922,86.38237386127003 59.878026535734534,84.92649284633808 59.51210614433512,82.67649259825703 58.90223882580176,80.95590227597859 57.926451115868986,79.23531030898448 57.80447765160352,77.3823632748099 56.70671647787094,75.0" stroke="#4dd2ff" stroke-linecap="round" stroke-linejoin="round" stroke-width="0.5"><title>2023-12-09 1.0km</title><desc>10350143310</desc></polyline><polyline fill="none" points="78.08119371067733,78.49255117913708 78.82395743578672,81.17912446556147 80.43327883956954,85.07464871532284 82.66157001350075,91.52239474025555 83.6519216466695,93.0 83.52812769310549,91.65672254085075 82.78536396799609,89.37314859370235 80.80466070165858,85.8806182127446 79.56672116043046,82.92539498396218 78.20498766517267,80.77613872475922 77.83360580261797,78.62687993713189 76.34807835286483,75.0" stroke="#4dd2ff" stroke-linecap="round" stroke-linejoin="round" stroke-width="0.5"><title>2023-12-08 1.0km</title><desc>10345303898</desc></polyline><polyline fill="none" points="97.09993195021525,75.0 97.33193739457056,75.6293738221284 97.79594828234985,77.26574467681348 98.02795372670516,79.5314863550011 98.4919646140188,81.41960212949198 100.11600272217765,85.44757549010683 101.1600272199139,89.09791816305369 102.20405171765015,91.36364418326411 102.43605716200545,93.0 102.6680626058951,92.87412653130013 102.90006804978475,92.62237956561148 102.90006804978475,92.24475904810242 102.3200544398278,90.7342761453474 100.46401088824496,87.58743248344399 98.25995917012915,81.16785348008852 97.67994556063786,78.52449042350054" stroke="#4dd2ff" stroke-linecap="round" stroke-linejoin="round" stroke-width="0.5"><title>2023-12-07 1.0km</title><desc>10340288256</desc></polyline><polyline fill="none" points="116.65845347428694,75.0 117.3744991584681,76.68346103455406 118.68724957946688,82.25182068638969 120.59670473728329,85.74822356412187 122.14813705300912,90.02159543370362 122.86418273719028,92.74100849858951 123.22220557928085,93.0 123.34154652617872,92.09352957841475 123.10286463191733,90.92806692188606 121.19340947363526,86.91368964756839 119.88065905310214,84.97124574659392 119.16461336892098,83.5467855243478 116.77779442211613,75.38849115080666" stroke="#4dd2ff" stroke-linecap="round" stroke-linejoin="round" stroke-width="0.5"><title>2023-12-06 1.0km</title><desc>10334845031</desc></polyline><polyline fill="none" points="138.34116107597947,78.1034619655693 139.1419798671268,82.20002302597277 139.9427986582741,85.17933391826227 141.88764429371804,90.2689778652275 142.91726845363155,92.62758815078996 143.26047650631517,93.0 142.80286576924846,90.76552767283283 141.6588389244862,88.65518998203333 140.62921476503834,85.67588522285223 139.1419798671268,82.57243717496749 138.45556376036257,80.21381284378003 137.31153691606596,77.73104683100246 136.73952349368483,75.0" stroke="#4dd2ff" stroke-linecap="round" stroke-linejoin="round" stroke-width="0.5"><title>2023-12-05 1.0km</title><desc>10329306344</desc></polyline><polyline fill="none" points="156.69392242329195,76.51049678423442 157.50594147713855,77.7692430865718 158.54996597534046,81.41960212949198 160.63801497081295,86.58044129051268 161.68203946901485,90.10490787529852 162.61006124457344,92.11888552398887 163.30607757670805,93.0 163.30607757670805,92.37063256313559 160.29000680474564,85.44757549010683 159.1299795852974,81.54547644068953 157.85394964320585,78.6503649475053 156.9259278671816,75.0" stroke="#4dd2ff" stroke-linecap="round" stroke-linejoin="round" stroke-width="0.5"><title>2023-12-04 1.0km</title><desc>10324662812</desc></polyline><polyline fill="none" points="176.8737258380279,76.66154566861223 178.14975610887632,81.50771216268186 180.19140454102308,86.07694343582261 181.59503783797845,90.92308570316527 182.61586205428466,92.86153911822475 183.38148021604866,93.0 183.38148021604866,92.44615641166456 182.48825902771205,90.92308570316527 181.33983178436756,87.60001806344371 180.0638015139848,85.66155923262704 179.17058032471687,83.3077136843931 177.63934400025755,77.76924196642358 176.618519784417,75.0" stroke="#4dd2ff" stroke-linecap="round" stroke-linejoin="round" stroke-width="0.5"><title>2023-12-02 1.0km</title><desc>10313350310</desc></polyline><polyline fill="none" points="16.732589636929333,97.95454984041862 17.98928593005985,99.59091985307168 19.49732148181647,104.77274870162364 20.502678517252207,109.00001940899529 22.13638369832188,113.63636975188274 23.141740733291954,115.0 23.267410362605006,114.18182197131682 23.016071103978902,112.54546483117156 21.63370518060401,109.54547299188562 19.49732148181647,106.13638546620496 18.240625189151615,103.54547475650907 16.983928895089775,97.0" stroke="#4dd2ff" stroke-linecap="round" stroke-linejoin="round" stroke-width="0.5"><title>2023-12-01 1.0km</title><desc>10308709030</desc></polyline><polyline fill="none" points="36.68232080945745,97.0 39.17058020224795,105.55001980031375 41.658839595038444,110.65001455100719 43.041205924004316,114.40000255848281 43.45591582311317,115.0 43.59415245614946,114.55000193545129 43.041205924004316,113.05000766995363 40.967656429857016,110.20001552719623 40.41470989910886,108.70001806365326 38.341160404961556,104.65001940354705 37.37350397417322,100.0000110277906 36.40584754385054,97.30000130133703" stroke="#4dd2ff" stroke-linecap="round" stroke-linejoin="round" stroke-width="0.5"><title>2023-11-30 1.0km</title><desc>10303537703</desc></polyline><polyline fill="none" points="57.94075258821249,100.84829198836815 58.741571026388556,103.4551944816485 59.08477892819792,105.56554117088672 60.343207901809365,108.04829860525206 61.716039509978145,111.77242791187018 63.088871117215604,114.75172544328962 63.317676385398954,115.0 63.54648165311664,114.75172544328962 63.317676385398954,113.8827642062679 62.402455313596874,112.2689778652275 61.14402633998543,108.79312512371689 59.31358419591561,105.06898924615234 58.62716839229688,101.09656858979724 57.2543367841281,98.98621631483547 56.45351834688336,97.0" stroke="#4dd2ff" stroke-linecap="round" stroke-linejoin="round" stroke-width="0.5"><title>2023-11-29 1.0km</title><desc>10298007687</desc></polyline><polyline fill="none" points="76.89713673759252,99.33094561949838 78.20988657930866,102.69786162441596 78.4485683683306,105.15829617308918 80.11934089427814,109.17268200626131 81.07406805222854,112.79857102350798 81.90945431543514,114.48201695899479 82.74484057817608,115.0 83.10286326240748,115.0 83.34154505236074,114.61151273362339 83.22220415715128,114.09352957829833 82.74484057817608,113.18705868988764 80.83538626274094,108.13671234436333 78.92593194777146,103.73383448482491 78.56790926354006,101.66188815457281 77.7325229998678,99.20144872169476 76.65845494763926,97.0" stroke="#4dd2ff" stroke-linecap="round" stroke-linejoin="round" stroke-width="0.5"><title>2023-11-28 1.0km</title><desc>10292316108</desc></polyline><polyline fill="none" points="99.57736504077911,97.0 100.63395244022831,99.8662559457589 101.26790487999097,102.61785669741221 102.11317479936406,103.87900541932322 103.06410345900804,105.71340173971839 104.01503211865202,108.69429115857929 104.86030203802511,110.07008435309399 104.86030203802511,110.75798049510922 104.33200833853334,111.21657775470521 102.64146849932149,112.13377186935395 101.58488109987229,113.05096544418484 100.52829370042309,113.62421115464531 98.94341260101646,114.31210572912823 96.40760284243152,115.0 95.9849678822793,114.8853509761393 95.66799166239798,114.54140385333449 95.13969796244055,112.36307031358592" stroke="#4dd2ff" stroke-linecap="round" stroke-linejoin="round" stroke-width="0.5"><title>2023-11-27 1.0km</title><desc>10287544518</desc></polyline><polyline fill="none" points="118.2599590420723,100.90211396722589 118.83997269440442,102.2867329143919 120.23200546111912,109.33568474079948 121.74004095746204,112.98602338775527 122.55206007137895,114.370632563252 123.13207372371107,115.0 123.24807645427063,114.8741265310673 122.90006826305762,114.24475904798601 122.90006826305762,113.23777059407439 121.97204641858116,111.09791816282086 120.9280218440108,107.57344950502738 119.88399726944044,105.43358999444172 119.1879808860831,101.40561189572327 117.21593446750194,98.25874741270673 116.75192354526371,97.0" stroke="#4dd2ff" stroke-linecap="round" stroke-linejoin="round" stroke-width="0.5"><title>2023-11-26 1.0km</title><desc>10281488289</desc></polyline><polyline fill="none" points="136.722453544382,97.0 138.06022760737687,100.48388377402443 139.26422426477075,105.41937526513357 140.46822092263028,108.17743866576348 140.73577573522925,109.91937146021519 141.40466276742518,111.51614183862694 142.87621423741803,114.27419672347605 143.5451012691483,115.0 143.81265608174726,115.0 141.8059949860908,110.64517633756623 141.53844017302617,109.19356631604023 140.2006661100313,107.30647169239819 137.5251179826446,100.04839863895904 136.18734391825274,97.58064772281796" stroke="#4dd2ff" stroke-linecap="round" stroke-linejoin="round" stroke-width="0.5"><title>2023-11-25 1.0km</title><desc>10275889695</desc></polyline><polyline fill="none" points="156.51178423129022,97.16822495521046 157.4419751027599,101.37384479888715 161.7828658381477,113.14953924051952 162.86808852106333,114.83177635679021 163.33318395726383,115.0 163.4882157696411,114.49532903218642 161.93789764959365,112.4766440478852 160.0775159066543,106.92525115737226 158.83726141043007,104.40188630030025 158.06210235133767,99.52337301988155 157.13191147893667,97.0" stroke="#4dd2ff" stroke-linecap="round" stroke-linejoin="round" stroke-width="0.5"><title>2023-11-24 1.0km</title><desc>10271180196</desc></polyline><polyline fill="none" points="177.7618844024837,99.00000823463779 178.1568459784612,100.14286915806588 179.07842298876494,105.00002058548853 181.31653858721256,111.85715487215202 182.36976945679635,114.71428701689001 182.7647310323082,115.0 183.29134646710008,115.0 183.42300032638013,114.71428701689001 183.15969260875136,113.28572146955412 181.71150016319007,109.14287544379476 177.89353826083243,100.85715689428616 176.57699967408553,97.0" stroke="#4dd2ff" stroke-linecap="round" stroke-linejoin="round" stroke-width="0.5"><title>2023-11-23 1.0km</title><desc>10265414399</desc></polyline><polyline fill="none" points="18.42293546302244,123.0563544301549 18.53975505847484,124.83100649237167 19.00703343981877,127.61974175705109 20.876146965194494,132.94367837370373 21.46024494152516,135.47888050868642 22.394801704213023,137.0 23.09571927599609,137.0 22.978899681009352,136.23944042192306 21.693884131964296,132.94367837370373 20.642507774289697,131.29579498723615 19.123853035271168,126.60565672838129 17.37155910488218,121.78874469583388 16.90428072400391,119.0" stroke="#4dd2ff" stroke-linecap="round" stroke-linejoin="round" stroke-width="0.5"><title>2023-11-21 1.0km</title><desc>10253878272</desc></polyline><polyline fill="none" points="38.06266986951232,123.86133173853159 38.66808553505689,127.8029423590051 41.2108313315548,134.24088767752983 42.30057953018695,136.6058413576102 42.66382892988622,137.0 42.90599519619718,136.86861379561014 43.02707832911983,136.6058413576102 42.54274579649791,134.50366046302952 40.36324939923361,129.77374440978747 39.51566746784374,127.27739477856085 38.18375300243497,122.15329776948784 37.45725420350209,120.83942437497899 36.97292167088017,119.0" stroke="#4dd2ff" stroke-linecap="round" stroke-linejoin="round" stroke-width="0.5"><title>2023-11-20 1.0km</title><desc>10248671423</desc></polyline><polyline fill="none" points="56.795423744712025,120.50000667187851 58.55479894345626,124.31819999893196 59.05747757246718,128.27274908765685 60.43984379991889,131.40910961094778 61.8222100273706,135.36364358162973 62.450558312702924,136.31818500091322 63.204576255287975,137.0 63.07890659850091,135.90909588139039 60.942522428464144,130.3182022041874 59.56015620101243,125.27274710254278 58.17778997309506,122.00001213059295 57.42377203051001,119.0" stroke="#4dd2ff" stroke-linecap="round" stroke-linejoin="round" stroke-width="0.5"><title>2023-11-19 1.0km</title><desc>10242265034</desc></polyline><polyline fill="none" points="76.50164541276172,135.03792825492565 77.28779251081869,132.56400697666686 77.60225135041401,131.9668527743197 78.15255431877449,131.62562166358111 80.82545445347205,131.2843904523179 82.7908221995458,130.85785129718715 83.41973987780511,130.34600410389248 83.81281342729926,129.83415668504313 84.28450168622658,127.70145667501492 84.12727226642892,127.01899184362264 84.44173110602424,126.50714295677608 84.20588697632775,122.5829606532352 84.04865755699575,122.07110980903963 83.97004284663126,120.53555592079647 83.81281342729926,119.5971608775435 82.94805161934346,119.34123482485302 82.24051923071966,119.85308687353972 82.39774865005165,119.5971608775435 82.55497806984931,119.85308687353972 81.53298684209585,119.34123482485302 81.45437213266268,119.0 81.21852800250053,119.17061742488295 81.3757574222982,119.0853087156429 80.82545445347205,119.76777821453288 80.90406916337088,119.6824695491814 82.55497806984931,120.53555592079647 82.16190452082083,120.87679029384162 81.53298684209585,121.13271600776352 80.03930735541508,121.38864166522399 79.96069264505059,121.04740744258743 80.35376619407907,120.87679029384162 80.90406916337088,120.96209887135774 82.55497806984931,119.34123482485302 84.83480465505272,119.4265435153502 84.5989605258219,119.25592612795299 84.28450168622658,119.17061742488295 84.04865755699575,123.26542809442617 84.12727226642892,124.45974515046692 84.36311639565974,125.90998563647736 84.52034581592306,128.38392110483255 84.52034581592306,129.23700107744662 84.28450168622658,130.0900804225821 83.81281342729926,130.60192772879964 79.88207793561742,131.02846697799396 78.07393960934132,131.3696982645779 77.13056309148669,132.05216053628828 76.02995715336874,133.58769917994505 75.40103947510943,135.80569585470948 75.16519534541294,137.0" stroke="#4dd2ff" stroke-linecap="round" stroke-linejoin="round" stroke-width="0.5"><title>2023-11-18 1.0km</title><desc>10236386505</desc></polyline><polyline fill="none" points="96.3268576124683,119.0 98.93360382318497,123.50001736893319 99.88151153549552,126.84287991863675 100.23697692807764,128.77145155961625 100.94790771277621,129.92859352345113 103.1991885304451,136.48571685689967 103.6731423875317,137.0 103.6731423875317,136.48571685689967 103.1991885304451,135.84286271536257 101.89581542555243,131.98573290230706 101.18488464085385,130.70002107415348 100.94790771277621,128.51430879719555 99.88151153549552,125.81430750666186 98.69662689464167,123.24287383153569 98.57813843060285,121.82858369813766" stroke="#4dd2ff" stroke-linecap="round" stroke-linejoin="round" stroke-width="0.5"><title>2023-11-17 1.0km</title><desc>10231268371</desc></polyline><polyline fill="none" points="116.78934295522049,119.58064772293437 118.52844885410741,122.04839863884263 118.92978098476306,125.38711555744521 120.13377737673,128.00002051191404 122.00666065281257,134.96775015315507 123.21065704477951,137.0 123.07687966758385,135.8387146294117 122.14043803000823,133.95162444526795 121.47155114542693,132.0645324572688 120.40133213018999,127.56453659269027 118.26089410064742,123.06453047250398 117.59200721606612,121.03226628201082 117.19067508541048,119.0" stroke="#4dd2ff" stroke-linecap="round" stroke-linejoin="round" stroke-width="0.5"><title>2023-11-16 1.0km</title><desc>10225818993</desc></polyline><polyline fill="none" points="136.87852752860636,119.19354904140346 137.7703768061474,122.67742935777642 139.19733565021306,126.54840207961388 141.15940406080335,130.22582089412026 141.8728834828362,133.12904264521785 143.12147247139364,135.6451655733399 144.3700614599511,137.0 141.15940406080335,131.00001367391087 139.7324452167377,126.54840207961388 135.6299385400489,119.0" stroke="#4dd2ff" stroke-linecap="round" stroke-linejoin="round" stroke-width="0.5"><title>2023-11-15 1.0km</title><desc>10219684298</desc></polyline><polyline fill="none" points="156.81951958918944,121.16542284714524 158.44094097521156,123.19550445268396 158.69039041921496,125.7669379391009 160.5612612492405,130.23310335271526 161.68378374679014,134.02256853983272 162.80630624480546,136.86466231115628 163.30520513281226,137.0 163.1804804103449,135.37594707356766 161.55905902478844,133.21054094214924 160.93543541477993,131.31580848805606 159.93763763876632,130.09776516607963 159.5634634727612,128.60904445615597 157.69259264320135,124.81956812529825 157.06896903319284,122.11279454140458 156.69479486718774,119.0" stroke="#4dd2ff" stroke-linecap="round" stroke-linejoin="round" stroke-width="0.5"><title>2023-11-14 1.0km</title><desc>10213806154</desc></polyline><polyline fill="none" points="177.5958851748146,121.47827171022072 178.55753110535443,125.1304552895017 181.20205741235986,131.91306199040264 181.80308611830696,134.1304470184259 183.00514353159815,136.60869759391062 183.36576075525954,137.0 182.6445263074711,135.695658311015 180.9616459296085,131.65219298156444 180.84144018869847,130.60871656169184 179.63938277587295,127.73915324313566 177.83629665756598,124.47828020178713 177.11506220977753,122.26088311010972 176.63423924474046,119.0" stroke="#4dd2ff" stroke-linecap="round" stroke-linejoin="round" stroke-width="0.5"><title>2023-11-13 1.0km</title><desc>10208522228</desc></polyline><polyline fill="none" points="17.989285634830594,143.04546334268525 19.245982112828642,146.86365554714575 20.754017886705697,150.000021835207 21.633705421816558,153.68183636269532 22.513392956461757,156.27273850084748 23.644419786985964,158.72727403056342 24.147098377346992,159.0 24.39843767369166,158.45454802096356 23.016071547288448,155.72728572005872 22.262053661048412,152.7272925573634 19.49732140870765,150.1363854664378 17.989285634830594,147.95456616173033 17.737946338951588,145.6363803385757 15.601562325842679,141.0" stroke="#4dd2ff" stroke-linecap="round" stroke-linejoin="round" stroke-width="0.5"><title>2023-11-12 1.0km</title><desc>10202270880</desc></polyline><polyline fill="none" points="37.27653280971572,144.35822241124697 40.24758792715147,151.07464871543925 41.23793963296339,154.4328526093159 42.22829133877531,157.11941128061153 42.84726115502417,158.32836139411665 43.46623097080737,159.0 43.59002493415028,158.4626891349908 42.475879264995456,155.10449264734052 40.371381890028715,151.880618212861 38.14309055218473,146.77613872487564 37.27653280971572,143.14926305413246 36.40997506631538,141.0" stroke="#4dd2ff" stroke-linecap="round" stroke-linejoin="round" stroke-width="0.5"><title>2023-11-11 1.0km</title><desc>10196068378</desc></polyline><polyline fill="none" points="58.3266083188355,143.68422009726055 60.36378079978749,149.84212411462795 62.25544096156955,154.8947501218645 63.12851488124579,158.21052947919816 63.71056416165084,159.0 64.00158880185336,158.6842118264176 63.565051841549575,156.78948180971202 61.38236704096198,151.89475486346055 59.199682239443064,147.31580665381625 56.2894358378835,142.73684868169948 55.99841119768098,141.0" stroke="#4dd2ff" stroke-linecap="round" stroke-linejoin="round" stroke-width="0.5"><title>2023-11-10 1.0km</title><desc>10191120477</desc></polyline><polyline fill="none" points="75.82124576484784,141.54962088621687 77.97393734101206,143.1984825761756 79.2402265034616,145.39696256595198 79.62011325219646,146.22139189543668 79.62011325219646,147.45803520805202 81.01303132995963,151.71757813193835 81.51954699493945,154.19085666537285 82.53257832489908,156.93894008581992 82.78583615692332,158.31298028095625 83.41898073861375,159.0 83.7988674864173,158.86259607644752 84.17875423515216,158.31298028095625 82.78583615692332,157.35115225065965 80.50651566544548,154.0534523880342 77.84730842523277,146.77101124660112 77.21416384354234,142.64886217436288 76.58101926231757,141.0" stroke="#4dd2ff" stroke-linecap="round" stroke-linejoin="round" stroke-width="0.5"><title>2023-11-09 1.0km</title><desc>10185506531</desc></polyline><polyline fill="none" points="96.48859197832644,142.44526216865052 97.820505366195,145.07300857105292 98.30483750626445,146.38688032352366 99.87891696533188,149.80294235935435 100.48433214100078,152.16790455882438 100.363249105867,150.72265025309753 100.60541517660022,151.64235767372884 101.08974731713533,155.18979614810087 102.17949463427067,158.47445512423292 102.6638267757371,159.0 103.26924195187166,158.73722758109216 103.51140802213922,158.34306888096035 102.17949463427067,157.16059225820936 101.21083035273477,155.58395554404706 100.60541517660022,153.87593086762354 99.75783392973244,150.98542385036126 98.54700357746333,149.2773947789101 97.21509018959478,146.38688032352366 96.85184108372778,144.2846850559581 96.97292411886156,141.65693749429192 96.730758048594,141.0" stroke="#4dd2ff" stroke-linecap="round" stroke-linejoin="round" stroke-width="0.5"><title>2023-11-08 1.0km</title><desc>10179505859</desc></polyline><polyline fill="none" points="119.1879807668738,150.9440793383401 123.24807693203911,159.0 123.4800824271515,158.87412653141655 122.90006868960336,157.4895177630242 121.85604396136478,155.72728680237196 121.16002747556195,153.96505402820185 119.76799450442195,152.45456734951586 119.3039835151285,151.57344950479455 118.95597527176142,148.55247059487738 118.72396977664903,147.6713507422246 117.33193680597469,145.27973742736503 116.5199175728485,141.0" stroke="#4dd2ff" stroke-linecap="round" stroke-linejoin="round" stroke-width="0.5"><title>2023-11-06 1.0km</title><desc>10167691585</desc></polyline><polyline fill="none" points="138.26955626299605,146.0503782769665 139.1049428950064,147.6043379106559 142.2078075259924,154.72663535596803 143.52055794699118,158.7410084985895 143.75923984171823,159.0 143.99792173597962,159.0 143.99792173597962,158.61151273350697 143.0431941570714,156.5395791985793 142.2078075259924,155.37411551410332 142.08846657862887,154.72663535596803 141.3724208944477,153.94965885241982 139.34362478926778,150.45326034456957 136.95680584199727,144.36692046013195 136.00207826355472,141.0" stroke="#4dd2ff" stroke-linecap="round" stroke-linejoin="round" stroke-width="0.5"><title>2023-11-05 1.1km</title><desc>10161301187</desc></polyline><polyline fill="none" points="156.6342399874702,141.0 159.03835428180173,146.3478451555129 160.12020571436733,151.04350078164134 161.80308572063223,154.30436543212272 162.40411429479718,156.9130528375972 163.00514286803082,159.0 163.3657600125298,158.60869759402703 163.24555429723114,158.21739510179032 161.6828800062649,155.34784085466526 161.56267429096624,154.95653764309827 160.12020571436733,152.7391511480091 159.51917714066803,150.65219662082382 157.95650284923613,147.78263013751712 157.59588570520282,145.30436443991493 156.87465141667053,142.69565996550955" stroke="#4dd2ff" stroke-linecap="round" stroke-linejoin="round" stroke-width="0.5"><title>2023-11-04 1.0km</title><desc>10155501797</desc></polyline><polyline fill="none" points="184.8292560079135,143.73419068823569 183.46446626633406,141.91139743244275 182.62459565652534,141.3417740999721 180.94485443644226,141.0 179.37009704252705,141.11392470856663 177.16543669067323,142.139246706618 176.22058225423098,143.05064346885774 175.3807116439566,144.759510952048 175.1707439920865,146.12660358159337 174.8557925131172,150.6835702988319 175.06576016545296,155.46837092377245 175.27572781778872,156.15191266383044 176.32556608086452,157.86076569382567 177.58537199581042,158.77215320582036 179.68504852149636,159.0 181.5747573939152,158.20253607374616 183.35948244063184,156.0379890614422 183.8844015719369,155.01267626299523 184.61928835557774,151.7088859624928 184.61928835557774,149.08863347244915 185.1442074868828,145.6709061722504 185.03922366071492,144.41773760621436 183.8844015719369,143.05064346885774 182.93954713549465,142.36709594738204 180.73488678364083,141.3417740999721 179.5800646948628,141.3417740999721 177.060452864971,142.139246706618 175.90563077572733,143.16456802631728 175.1707439920865,144.53166206309106 174.96077633928508,145.44305741763674 175.1707439920865,149.20255758613348 174.96077633928508,150.9114182825433" stroke="#4dd2ff" stroke-linecap="round" stroke-linejoin="round" stroke-width="0.5"><title>2023-11-03 1.0km</title><desc>10152446508</desc></polyline><polyline fill="none" points="16.27463989239186,163.0 17.258697278797626,165.13560138468165 18.102175039239228,168.94916981831193 19.507971306797117,171.69493475090712 21.616665706504136,177.18645371461753 22.038404586724937,178.10170546243899 22.74130272027105,180.54237481567543 23.16304160049185,181.0 23.72536010714248,181.0 23.72536010714248,180.6949165549595 22.74130272027105,180.23729130346328 22.31956384051591,179.1694986578077 21.335506453178823,178.25424738100264 20.63260832009837,176.2712015635334 19.64855093276128,174.74578041420318 18.52391391946003,172.45764658704866 17.258697278797626,167.72882868233137 16.415219518356025,165.74577280506492" stroke="#4dd2ff" stroke-linecap="round" stroke-linejoin="round" stroke-width="0.5"><title>2023-11-02 1.1km</title><desc>10144903556</desc></polyline><polyline fill="none" points="36.934754049405456,164.30435396311805 37.175165496300906,165.73914221522864 38.13681128481403,167.95653995871544 39.819691414479166,173.9565434876131 42.70462878094986,179.95652672555298 43.54606884531677,181.0 43.06524595152587,179.4347898582928 41.26216009771451,176.6956687872298 40.30051430920139,173.17393548239488 39.098457073792815,171.47828362043947 37.65598839055747,168.34784515528008 36.45393115468323,163.0" stroke="#4dd2ff" stroke-linecap="round" stroke-linejoin="round" stroke-width="0.5"><title>2023-11-01 1.0km</title><desc>10138966680</desc></polyline><polyline fill="none" points="57.38078122353181,163.27067799540237 58.00440474227071,165.3007616904797 59.002202371601015,170.71430726593826 60.623623518273234,174.23310335283168 61.62142114760354,177.48121684766375 63.24284229520708,181.0 63.367566999047995,180.8646623105742 62.245044665876776,179.24060926458333 60.623623518273234,175.45114658481907 59.251651778351516,173.01505931455176 56.88188240956515,165.84211696428247 56.63243300141767,163.0" stroke="#4dd2ff" stroke-linecap="round" stroke-linejoin="round" stroke-width="0.5"><title>2023-10-31 1.0km</title><desc>10133123337</desc></polyline><polyline fill="none" points="77.17383081186563,165.1333426652709 77.78821541834623,168.33335195819382 77.78821541834623,169.5333539872663 79.13986155157909,171.80002232000697 82.82616918860003,179.66667279333342 83.44055379508063,180.8666673231637 83.68630763702095,181.0 80.86013844888657,175.40001914394088 79.6313692368567,171.93335566332098 78.27972310315818,169.1333533989964 76.31369236344472,163.0" stroke="#4dd2ff" stroke-linecap="round" stroke-linejoin="round" stroke-width="0.5"><title>2023-10-30 1.0km</title><desc>10127985445</desc></polyline><polyline fill="none" points="97.1625133054331,165.60527560755145 97.70818382361904,169.27633863000665 98.0355861345306,170.46055072336458 100.21826820774004,175.5526528044138 101.30960924364626,178.5131698701298 102.94662079866976,180.76315920078196 103.38315721368417,181.0 103.4922913168557,180.6447387879016 102.510084384121,179.10527262999676 101.09134103683755,176.026335900533 98.58125665271655,171.40791977138724 97.59904971951619,167.97370432177559 96.83511099405587,166.43422605399974 96.72597689041868,164.06579507607967 96.5077086831443,163.0" stroke="#4dd2ff" stroke-linecap="round" stroke-linejoin="round" stroke-width="0.5"><title>2023-10-28 1.0km</title><desc>10115543824</desc></polyline><polyline fill="none" points="117.66533815301955,166.73334801755846 118.64835366792977,169.93335448706057 119.75424612080678,172.46668893785682 120.737261635717,176.06668443838134 122.21178490761667,179.53334001882467 122.82616960350424,180.8666673237458 123.44055429985747,181.0 123.5634312396869,180.8666673237458 123.31767736049369,180.06667105830275 122.58041572477669,178.0666788512608 120.12287693936378,173.26668855571188 118.156845910009,167.9333511054283 116.92807651730254,165.26667649880983 116.4365687603131,163.0" stroke="#4dd2ff" stroke-linecap="round" stroke-linejoin="round" stroke-width="0.5"><title>2023-10-27 1.0km</title><desc>10110442644</desc></polyline><polyline fill="none" points="137.56053018663079,165.77942351426464 139.8780265096575,173.58825709018856 140.7318409443833,175.9706063530175 141.58565537957475,177.42648490646388 142.56144330464303,180.20588614756707 142.92736377660185,180.7352954216767 143.65920472098514,181.0 143.78117821086198,180.60294311773032 143.65920472098514,180.07353380485438 142.43946981383488,178.48530493315775 140.60986745357513,175.3088429851923 138.41434462182224,168.82354910613503 136.9506627335213,166.44119038514327 136.21882178913802,163.0" stroke="#4dd2ff" stroke-linecap="round" stroke-linejoin="round" stroke-width="0.5"><title>2023-10-26 1.0km</title><desc>10104873905</desc></polyline><polyline fill="none" points="159.09845727263018,171.6087184365606 161.86318830493838,178.52174997131806 163.18545097252354,180.86956587433815 163.66627376014367,181.0 163.54606806393713,179.695658311015 160.30051424261183,174.0869781221263 158.49742878694087,169.52176022727508 156.93475472507998,166.26088311045896 156.33372623985633,163.0" stroke="#4dd2ff" stroke-linecap="round" stroke-linejoin="round" stroke-width="0.5"><title>2023-10-25 1.0km</title><desc>10098978222</desc></polyline><polyline fill="none" points="176.67021359270439,163.0 176.54913045093417,163.91971242427826 177.2756293034181,166.9416213426739 178.24429444037378,168.9124287540326 178.84971015015617,171.27739477867726 179.93945842934772,174.43067794316448 182.24003812810406,178.8978195694508 182.966536980588,180.737227581325 183.20870326505974,181.0 183.45086954906583,180.8686137953773 183.32978640682995,179.16059225809295 181.99787184409797,176.6642501518363 181.02920670807362,175.2189978651004 179.8183752866462,172.45987661753315 179.57620900310576,171.01462093077134 178.12321129767224,168.78104166104458 177.2756293034181,166.8102341046324 177.03346301894635,164.44526216841768 176.67021359270439,163.0" stroke="#4dd2ff" stroke-linecap="round" stroke-linejoin="round" stroke-width="0.5"><title>2023-10-24 1.0km</title><desc>10092835699</desc></polyline><polyline fill="none" points="18.150216131471097,188.1079268073663 19.9403295526281,194.45326034456957 20.7757158158347,196.0072160938289 21.73044297331944,199.89209946908522 23.16253370977938,202.4820169589948 23.759238183964044,203.0 23.16253370977938,202.35252117482014 22.327147447038442,200.28058733535 20.17901134165004,197.69066660827957 19.7016477631405,196.7841934543103 19.2242841841653,193.80577837780584 17.792193447239697,190.9568548965035 16.837466289754957,187.9784299666062 16.240761816501617,185.0" stroke="#4dd2ff" stroke-linecap="round" stroke-linejoin="round" stroke-width="0.5"><title>2023-10-23 1.0km</title><desc>10087395010</desc></polyline><polyline fill="none" points="34.17224500933662,185.08633225236554 34.490484189707786,185.0 36.75793835008517,185.1726644920418 37.75243578874506,185.43166113487678 37.991115174023435,185.56115941354074 38.50825384235941,185.94965407782 38.86627292004414,186.3813145144959 39.66187087097205,187.8489576249267 40.05966984643601,189.4892602887703 40.57680851477198,190.35257563943742 40.815487899817526,191.04322700586636 41.372406465467066,192.29503053677035 41.77020544116385,193.58999689779012 42.36690390435979,194.62596793007106 42.64536318718456,194.92812580347527 43.00338226510212,195.5324410837493 43.2022817528341,196.82740030408604 43.32162144547328,197.17272228054935 43.63986062561162,197.6475396664464 43.71942042093724,198.38134759839159 43.83876011357643,198.68350353906862 45.589075605617836,202.82734075089684 45.82775499089621,203.0 45.82775499089621,202.78417593060294 45.46973591297865,202.43885725463042 45.07193693774752,201.48922984837554 44.674137962050736,200.6690958525287 43.60008072829805,197.34538319258718" stroke="#4dd2ff" stroke-linecap="round" stroke-linejoin="round" stroke-width="0.5"><title>2023-10-22 1.5km</title><desc>10080655811</desc></polyline><polyline fill="none" points="57.13705715793185,185.0 57.768588667269796,185.45685924118152 56.63183195027523,185.27411558496533 58.40012017637491,187.5584074241924 58.56852857908234,188.10663621604908 58.442222277168185,188.56349317287095 57.85279286839068,188.88329284300562 57.68438446591608,189.2030923484126 57.726486566476524,189.75131968891947 58.06330337142572,191.07620043179486 58.442222277168185,192.03559506835882 58.86324328323826,193.4975269040442 59.621081094490364,194.82239965925692 59.74738739640452,195.3249368618708 60.21051050303504,196.14726958947722 60.50522520765662,196.51275045255898 60.54732730798423,196.74117588269291 60.842042012605816,197.01528628816595 61.052552515640855,197.47213669511257 61.34726722002961,198.3401515429723 61.64198192441836,198.93405574030476 61.59987982385792,200.12186243198812 62.14720713184215,201.1726126128342 62.31561553431675,201.675144680019 62.61033023847267,202.22336101706605 63.11555544612929,202.86294613225618 63.3681680499576,203.0 62.39981973543763,201.62945996341296 62.18930923240259,200.89850404136814 61.768288226099685,199.98480792954797 61.59987982385792,199.3909047365305 61.052552515640855,198.6142612430849 60.589429408777505,197.28939657268347" stroke="#4dd2ff" stroke-linecap="round" stroke-linejoin="round" stroke-width="0.5"><title>2023-10-20 1.4km</title><desc>10069668027</desc></polyline><polyline fill="none" points="76.37802091496997,185.0 76.46374823059887,185.69768395990832 77.14956675539725,187.3721223237808 77.32102138688788,188.39538803097093 78.7355220944155,191.83726962580113 78.86411306774244,192.302387323929 78.94984038360417,193.0000632299343 79.12129501462914,193.46518007316627 80.15002280217595,194.90704011387425 80.7072503536474,196.02331659808988 81.050159616163,197.13959111261647 81.35020522098057,197.7442389856442 81.52165985223837,198.67446535412455 81.73597814119421,199.13957802538062 82.29320569266565,200.58142513339408 82.37893300829455,201.13955861562863 83.19334250688553,202.81395610782783 83.40766079584137,203.0 83.5362517691683,203.0 83.6219790847972,202.95348903205013 83.57911542709917,202.9069780607242 82.72184227104299,201.83722477586707 82.33606935059652,200.5349139876198 81.52165985223837,199.04655551846372 81.3930688786786,198.44190889014862 81.3073415630497,197.41865943354787" stroke="#4dd2ff" stroke-linecap="round" stroke-linejoin="round" stroke-width="0.5"><title>2023-10-19 1.3km</title><desc>10064004415</desc></polyline><polyline fill="none" points="95.94113790709525,185.0 97.70586055610329,187.29788272990845 97.5882123792544,188.95746281044558 97.82350873248652,190.61704130494036 98.64704596903175,193.55321475525852 99.82352773472667,195.46810780919623 101.00000950088724,198.7872507669963 103.35297303367406,202.61702321912162 103.7059175632894,203.0 104.05886209290475,202.87234108219855 102.52943579666317,201.3404333399376 99.70587955834344,195.8510861665709 98.9999904986471,193.4255551431561 96.99997149594128,189.21278268191963" stroke="#4dd2ff" stroke-linecap="round" stroke-linejoin="round" stroke-width="0.5"><title>2023-10-18 1.0km</title><desc>10058081424</desc></polyline><polyline fill="none" points="116.85825903527439,186.09091406327207 117.86361614381894,191.95456616184674 120.50267855450511,198.9091062474763 122.26205349434167,202.59091103076935 123.01607132609934,203.0 123.39308024197817,203.0 123.64441951876506,202.4545480213128 122.76473204931244,201.36364358162973 121.63370530167595,199.59092249977402 120.12566963862628,196.31820220442023 119.49732144596055,194.4091126989806 116.85825903527439,189.09092442982364 116.60691975848749,188.27274026570376 116.35558048123494,185.0" stroke="#4dd2ff" stroke-linecap="round" stroke-linejoin="round" stroke-width="0.5"><title>2023-10-17 1.0km</title><desc>10051702317</desc></polyline><polyline fill="none" points="135.98050376260653,185.41538655466866 137.2565343142487,187.63077996543143 139.17058014171198,192.61540561076254 140.1914045829326,194.55386757676024 141.33983207913116,198.15386307716835 142.74346568621695,201.75385169649962 143.2538779070601,202.72307822608855 143.89189318241552,203.0 144.01949623785913,202.86153911834117 143.89189318241552,202.44615641143173 142.48825957579538,200.36924150353298 140.57421374879777,195.66155923274346 139.17058014171198,192.75386724586133 138.02215264551342,187.3538559313165 137.38413736922666,185.0" stroke="#4dd2ff" stroke-linecap="round" stroke-linejoin="round" stroke-width="0.5"><title>2023-10-16 1.0km</title><desc>10046279660</desc></polyline><polyline fill="none" points="156.31368951732293,185.0 156.8403053013608,186.14286210003775 157.36692108446732,188.71429936750792 158.55180659657344,192.71430613135453 160.13165394589305,195.14287764916662 161.97480918699875,202.00000437430572 162.633078916464,202.71428701665718 163.55465653678402,203.0 163.68631048314273,202.71428701665718 163.55465653678402,201.8571478142403 161.84315524157137,199.42858468799386 160.92157762078568,196.57144771213643 159.8683460545726,194.85716351040173 157.36692108446732,189.0000144095393 156.44534346368164,185.0" stroke="#4dd2ff" stroke-linecap="round" stroke-linejoin="round" stroke-width="0.5"><title>2023-10-15 1.0km</title><desc>10039610121</desc></polyline><polyline fill="none" points="176.25423207087442,186.3064571354771 176.65556434867904,190.51614647032693 177.72578375739977,193.5645365928067 179.06355801783502,195.45163288107142 179.86622257437557,198.06453245715238 182.1404388169758,202.12903603585437 182.6755485208705,202.70967872138135 183.34443565178663,203.0 183.74576792959124,202.70967872138135 183.74576792959124,202.2741967231268 181.07021940825507,200.0967852922622 179.3311128700152,196.9032441836316 178.6622257400304,194.1451817966299 177.0568966269493,190.51614647032693 176.25423207087442,187.4677516417578 176.38800949696451,185.5806477224687 176.25423207087442,185.0" stroke="#4dd2ff" stroke-linecap="round" stroke-linejoin="round" stroke-width="0.5"><title>2023-10-14 1.0km</title><desc>10033377496</desc></polyline><polyline fill="none" points="15.91872827988118,207.28571558836848 18.288498955778778,210.1428691581823 18.55180680891499,212.2857315784786 20.789923558477312,219.14287544356193 22.89638638170436,224.14286092377733 23.554656013846397,225.0 24.08127171965316,225.0 24.08127171965316,224.5714305093279 23.949617792852223,224.14286092377733 22.764732454903424,223.2857214693213 21.44819319108501,220.85715762886684 19.99999999953434,216.28573510737624 17.36692147096619,210.42858428391628 16.971959691494703,208.42857752018608 16.313690058887005,207.0" stroke="#4dd2ff" stroke-linecap="round" stroke-linejoin="round" stroke-width="0.5"><title>2023-10-13 1.0km</title><desc>10028006924</desc></polyline><polyline fill="none" points="36.137817203532904,207.0 37.404106644913554,208.6488621745957 38.16388031002134,210.0229128751671 38.29050925420597,211.80917727621272 38.16388031002134,213.73284472187515 39.55679869512096,216.6183421780588 41.202974969055504,221.0152821157826 42.84915124299005,224.03817232279107 43.22903807554394,224.58778819919098 43.862182796001434,225.0 43.862182796001434,224.31298028118908 42.46926441043615,222.5267278305255 41.202974969055504,220.32826093258336 39.55679869512096,215.79391478805337 38.54376714210957,214.007654195535 38.03725136583671,212.4962015914498" stroke="#4dd2ff" stroke-linecap="round" stroke-linejoin="round" stroke-width="0.5"><title>2023-10-12 1.0km</title><desc>10021974100</desc></polyline><polyline fill="none" points="57.89550185156986,209.5522495948244 58.39067788608372,212.23882426461205 58.26688387757167,213.31345302646514 59.38102995604277,216.9403204311384 60.2475880170241,218.5522591888439 61.114146078471094,221.50747655145824 62.35208616545424,224.46268913452514 62.59967418340966,224.73134458682034 63.218644227366894,225.0 63.09485021792352,224.46268913452514 61.73311612196267,220.97016465931665 60.2475880170241,218.41793101315852 58.26688387757167,213.85076717019547 57.77170784212649,212.1044956248952 57.52411982510239,209.5522495948244 56.781355772633106,207.0" stroke="#4dd2ff" stroke-linecap="round" stroke-linejoin="round" stroke-width="0.5"><title>2023-10-10 1.0km</title><desc>10009069592</desc></polyline><polyline fill="none" points="76.95066273305565,209.2500098424498 77.80447716778144,211.6323701395886 78.65829160250723,214.80884563201107 80.48789396276698,218.7794321157271 81.95157585060224,223.80882909044158 82.80539028532803,225.0 83.04933726694435,224.60294311773032 83.17131075728685,223.14706713322084 82.31749632256106,220.63236947765108 80.48789396276698,217.4559042607434 78.41434462135658,211.6323701395886 77.80447716778144,208.98530294792727 76.82868924224749,207.0" stroke="#4dd2ff" stroke-linecap="round" stroke-linejoin="round" stroke-width="0.5"><title>2023-10-09 1.0km</title><desc>10003389142</desc></polyline><polyline fill="none" points="96.33512142067775,207.0 97.23526703706011,208.11628403502982 98.13541265344247,210.20931483071763 98.64978157635778,214.3953694977099 100.57866503950208,218.58141493203584 102.25036404049024,223.3255885966355 103.0219174255617,224.7209315354703 103.66487857978791,225.0 103.66487857978791,223.88372589554638 101.2216261937283,219.97676135855727 98.00682042259723,212.1628081573872 96.72089811321348,207.13953554059844" stroke="#4dd2ff" stroke-linecap="round" stroke-linejoin="round" stroke-width="0.5"><title>2023-10-08 1.0km</title><desc>9996447828</desc></polyline><polyline fill="none" points="117.68947410071269,210.60001482162625 118.28191663930193,212.78573449037503 120.05924425413832,217.54287962068338 120.65168679272756,219.60001945286058 122.54750291490927,224.35714604717214 123.13994545349851,225.0 123.25843396084383,224.48571685678326 123.25843396084383,223.97143356245942 121.00715231569484,219.98573290207423 119.940755746793,217.67145093088038 118.04493962367997,212.01430433080532 117.45249708509073,209.05715223390143 116.74156603915617,207.0" stroke="#4dd2ff" stroke-linecap="round" stroke-linejoin="round" stroke-width="0.5"><title>2023-10-07 1.0km</title><desc>9989974159</desc></polyline><polyline fill="none" points="138.5293982247822,212.36172163987067 139.4705833606422,215.42555514350533 140.17647221311927,216.9574698683573 141.58824991760775,222.95745619398076 141.94119434338063,224.10638738039415 142.6470831958577,225.0 143.23532390547916,225.0 143.47062018932775,224.48936427361332 143.35297204786912,224.10638738039415 141.94119434338063,222.06384252291173 140.52941663889214,219.00002073205542 140.05882407119498,216.9574698683573 137.5882130889222,210.95746281091124 137.23526866268367,208.78724238602445 136.52937981067225,207.0" stroke="#4dd2ff" stroke-linecap="round" stroke-linejoin="round" stroke-width="0.5"><title>2023-10-06 1.0km</title><desc>9984428862</desc></polyline><polyline fill="none" points="156.12483936548233,207.0 158.16439759451896,212.45903345034458 159.52410308038816,217.0328068000963 161.83560240641236,222.78689395042602 162.78739624656737,224.7049193349667 163.19530789228156,225.0 163.73919008672237,225.0 163.87516063498333,224.7049193349667 163.46724898880348,223.96721748064738 161.83560240641236,221.60656972648576 160.88380856625736,219.6885413810378 159.25216198293492,215.40985615958925 158.57230924023315,213.19673953438178 156.6687215603888,209.65574785752688 156.6687215603888,208.32787436805665" stroke="#4dd2ff" stroke-linecap="round" stroke-linejoin="round" stroke-width="0.5"><title>2023-10-04 1.0km</title><desc>9971682885</desc></polyline><polyline fill="none" points="177.27562950411811,209.10219913115725 177.88104516966268,211.20439578976948 178.48646083520725,212.64965455804486 178.97079336829484,214.8832339918008 181.27137289801612,219.48177109507378 181.39245603140444,221.05840966361575 182.11895483080298,224.21168262825813 182.36112109664828,224.6058413576102 183.08761989604682,225.0 183.08761989604682,223.68613752059173 181.5135391652584,220.79563666554168 180.42379096662626,218.29929125588387 179.81837530015036,217.11681063415017 179.21295963414013,215.40878168831114 178.002128303051,212.912428754149 177.5177957699634,210.9416213426739 177.27562950411811,208.97081175807398 176.91238010441884,207.0" stroke="#4dd2ff" stroke-linecap="round" stroke-linejoin="round" stroke-width="0.5"><title>2023-10-03 1.0km</title><desc>9965060084</desc></polyline><polyline fill="none" points="16.709738557692617,229.7438048243057 18.354869278613478,235.09919148962945 18.62905773241073,237.47935879125725 19.588717320002615,238.66944139194675 20.27418845379725,240.45456398068927 21.508036494255066,245.06612337986007 22.467696081846952,246.55372094386257 23.153167215641588,247.0 23.290261442773044,246.8512403254863 22.87897876231,245.6611625365913 21.370942268054932,242.83472498285118 18.90324618574232,236.88431722810492 17.395209691487253,232.42149992857594 17.121021238155663,229.0" stroke="#4dd2ff" stroke-linecap="round" stroke-linejoin="round" stroke-width="0.5"><title>2023-10-02 1.0km</title><desc>9958643020</desc></polyline><polyline fill="none" points="37.146795372013,232.16801199468318 37.41220975574106,233.46401542495005 40.33176798000932,240.37601923558395 41.791547091677785,244.84000873356126 42.58779024379328,246.4240025616018 43.38403339544311,247.0 43.51674058800563,246.85600065614562 43.38403339544311,246.2800031756051 40.72988955536857,242.2480160703417 38.208452907856554,236.0560197121231 37.01408817991614,232.31201241828967 36.48325941199437,229.0" stroke="#4dd2ff" stroke-linecap="round" stroke-linejoin="round" stroke-width="0.5"><title>2023-10-01 1.0km</title><desc>9952075403</desc></polyline><polyline fill="none" points="57.415576563216746,231.60870696778875 58.497428234666586,233.8261048743734 58.97825119877234,236.04350000969134 59.338868422899395,238.1304576053517 61.14195454167202,243.21740646020044 62.70462917815894,246.47826343949419 63.42586362501606,247.0 63.666275108233094,246.60869759391062 61.26216028351337,242.95653764309827 60.18030861206353,240.47828196594492 59.81969138793647,239.17393548239488 58.13681101053953,235.52176022715867 57.175165080465376,231.47827171022072 56.333724891766906,229.0" stroke="#4dd2ff" stroke-linecap="round" stroke-linejoin="round" stroke-width="0.5"><title>2023-09-30 1.0km</title><desc>9945549317</desc></polyline><polyline fill="none" points="77.213150607422,229.0 78.40751463314518,231.0160082259681 78.80563597474247,232.60001323360484 79.86729288613424,235.19201866455842 80.39812134252861,239.0800203795079 80.79624268459156,240.23201940534636 82.38872805144638,244.12001111591235 82.78684939350933,246.56800193735398 83.05226362170652,246.85600065637846 83.4503849633038,247.0 83.58309207716957,246.7120013020467 81.19436402618885,242.39201575319748 79.60187865886837,238.64802057005 79.07105020293966,236.48802009352949 77.213150607422,232.16801199526526 76.4169079232961,229.57600256206933" stroke="#4dd2ff" stroke-linecap="round" stroke-linejoin="round" stroke-width="0.5"><title>2023-09-28 1.0km</title><desc>9933629332</desc></polyline><polyline fill="none" points="96.4812475326471,231.04546334245242 97.48660538066179,234.5909277930623 99.37165134493262,237.1818398362957 100.62834865506738,241.81819972326048 102.387724888511,244.9545542517444 102.89040381275117,246.72727403056342 103.39308273606002,247.0 103.64442219864577,246.59091103065293 103.39308273606002,246.04545893135946 102.387724888511,244.6818279812578 99.49732107575983,238.81820347253233 97.98928430397063,234.72729167481884 96.35557780181989,229.0" stroke="#4dd2ff" stroke-linecap="round" stroke-linejoin="round" stroke-width="0.5"><title>2023-09-27 1.0km</title><desc>9927137811</desc></polyline><polyline fill="none" points="121.49532136670314,229.0 121.13644423848018,230.73079315607902 120.77756711049005,231.72599691554205 120.49844045541249,232.93754704669118 118.86355576105416,236.35583575541386 118.02617579582147,237.78372262767516 117.86667484999634,238.38949176907772 117.94642532267608,238.86545280006249 118.1458015050739,239.55775906681083 118.7439300515689,241.02890717971604 118.94330623396672,241.4183281234 119.18255765270442,242.11063138698228 119.98006238159724,243.10581590171205 120.33893950958736,243.88465478277067 120.73769187415019,244.49041764438152 121.05669376580045,245.3557920793537 121.535196603043,246.00482207047753 122.13332514977083,247.0" stroke="#4dd2ff" stroke-linecap="round" stroke-linejoin="round" stroke-width="0.5"><title>2023-09-26 1.0km</title><desc>9920397094</desc></polyline><polyline fill="none" points="139.91593836294487,229.0 139.13136308570392,231.61488918599207 138.34678780846298,233.01354744983837 137.61825362220407,233.92571460851468 137.2259659837,234.65544761100318 137.0578427100554,235.38517996965675 137.11388380080462,236.29734451253898 137.3940892573446,237.02707542252028 138.06658235215582,238.06085977627663 138.34678780846298,239.0946428378229 138.90719872061163,240.43247782281833 139.97197945415974,241.77031064400217 141.76529437373392,245.4189346122439 142.94215728971176,247.0" stroke="#4dd2ff" stroke-linecap="round" stroke-linejoin="round" stroke-width="0.5"><title>2023-09-25 1.0km</title><desc>9914573673</desc></polyline><polyline fill="none" points="161.32704889355227,229.0 160.8846992624458,229.67200891877292 160.79622933617793,230.00801311869873 160.8846992624458,230.4400182645768 160.92893422557972,230.8720231244224 160.04423496313393,232.50403890397865 159.82306014746428,233.60804726480274 159.51341540599242,234.42405224451795 157.65554695483297,237.68806196353398 157.61131199169904,238.07206203386886 157.78825184400193,238.8400614973507 158.27483643847518,239.6080600572168 158.54024621727876,240.2800580559997 158.9383608852513,240.95205536298454 159.15953570092097,241.62405197828775 159.73459022142924,242.53604627848836 160.1769398523029,243.44803930463968 160.66352444700897,243.9760346848634 160.79622933617793,244.45603011449566 161.10587407811545,244.8400262040086 161.76939852489159,245.99201311788056 162.255983119132,246.5200064406381 162.3886880085338,247.0" stroke="#4dd2ff" stroke-linecap="round" stroke-linejoin="round" stroke-width="0.5"><title>2023-09-24 1.0km</title><desc>9907510217</desc></polyline><polyline fill="none" points="180.67104142787866,229.0 180.29525822820142,229.5825306751649 180.02684165723622,230.1650609219796 179.8657917145174,230.9223496025661 179.81210840004496,231.9126490924391 178.89949205797166,233.13595851819264 178.3626589155756,234.53402412019204 177.87950908741914,235.23305599595187 177.5574092019815,236.16509753774153 177.50372588750906,237.15539047430502 178.63107548677363,240.00975730718346 179.06054200069048,240.8835410165484 180.45630817115307,243.09712210064754 181.0468246275559,244.5534220727859 181.79839102714323,245.4854526500567 182.22785754106008,246.24272668687627 182.49627411249094,247.0" stroke="#4dd2ff" stroke-linecap="round" stroke-linejoin="round" stroke-width="0.5"><title>2023-09-23 1.0km</title><desc>9901004991</desc></polyline><polyline fill="none" points="20.69117305218242,251.0 20.33278702525422,251.6666743136011 19.97440099832602,252.83335294673452 19.155232936609536,254.5555895413272 18.336064874893054,255.7222637136001 17.61929282103665,257.6667166642728 17.568094816990197,258.7222747418564 17.670490825083107,259.3333866393659 18.694450901821256,261.7778292860603 18.84804491349496,262.5000494637643 19.052836928749457,262.8889369657845 19.76960898260586,263.7778219333268 20.33278702525422,264.8889266719925 20.79356905980967,266.05558488948736 21.561539117712528,267.1666862790589 22.431905183242634,269.0" stroke="#4dd2ff" stroke-linecap="round" stroke-linejoin="round" stroke-width="0.5"><title>2023-09-22 1.0km</title><desc>9895405405</desc></polyline><polyline fill="none" points="40.95418478921056,251.0 40.80738712917082,251.53097987367073 40.513791809789836,251.84956761042122 39.87766861682758,253.01772144268034 39.63300585048273,253.86728667921852 38.899017550982535,255.72570714971516 38.11609669867903,257.3186351749464 37.62677116552368,258.48678016033955 37.47997350571677,259.07085194438696 37.47997350571677,259.44253374281107 37.62677116552368,259.9735074087512 37.92036648537032,260.5044806843507 38.55648967833258,262.1504953575786 39.19261287082918,263.3186325269635 39.53514074371196,264.16818564524874 40.17126393644139,265.2301256377832 40.562724362593144,265.7079981250572 40.85631968243979,266.5575484325527 41.639240534976125,267.9380655508139 42.5200264940504,269.0" stroke="#4dd2ff" stroke-linecap="round" stroke-linejoin="round" stroke-width="0.5"><title>2023-09-21 1.0km</title><desc>9889267953</desc></polyline><polyline fill="none" points="61.83262381213717,251.0 61.1902608263772,252.9271348346956 60.812400246737525,254.4442362957052 60.20782331866212,255.71531812573085 59.489888217067346,257.84744888261775 58.2429483034648,260.184582846734 57.90287378174253,261.4556515922013 57.9406598394271,261.7426667143882 58.16737618739717,262.3576986216649 58.658594941487536,263.42375232084305 58.96088340529241,264.32579616687144 59.716604565037414,265.3918461037101 60.17003726097755,266.2528849497321 60.43453966663219,266.86791188293137 60.73682813043706,267.4009346763487 61.22804688452743,267.76995015799184 61.83262381213717,268.6719869741064 61.8704098702874,268.8359935111657 62.09712621825747,269.0" stroke="#4dd2ff" stroke-linecap="round" stroke-linejoin="round" stroke-width="0.5"><title>2023-09-20 1.0km</title><desc>9882714971</desc></polyline><polyline fill="none" points="81.492503026966,251.0 81.10871653445065,251.97173551184824 80.38378649274819,254.10029377049068 80.34114354918711,254.79438729817048 80.08528588735498,255.16457019996597 79.78678528219461,255.85866255377186 79.61621350748464,256.506481393415 79.27506995853037,257.3856630375376 78.29428225499578,258.9589323879336 78.03842459316365,259.8843831096892 77.9531387060415,260.7172875957913 78.03842459316365,261.55019097944023 78.29428225499578,262.47563789068954 78.59278286015615,263.1234499189886 79.53092762012966,264.74297707213555 80.00000000023283,265.39078676642384 80.42642943630926,266.5475881336024 80.85285887261853,267.2879398926161 81.27928830869496,267.889475055621 81.7483606885653,268.35219402058283 82.04686129419133,269.0" stroke="#4dd2ff" stroke-linecap="round" stroke-linejoin="round" stroke-width="0.5"><title>2023-09-19 1.0km</title><desc>9876194288</desc></polyline><polyline fill="none" points="99.86750662187114,251.0 99.54952251445502,251.51757766940864 99.01954900240526,252.5527319808025 98.8605569486972,253.24283409374766 97.90660462668166,254.91057835303945 97.16464170953259,256.46330257016234 97.00564965582453,257.03838483133586 97.05864700721577,257.6709748299909 97.37663111463189,258.47608863416826 97.85360727552325,259.3387096473016 98.27758608548902,260.5463774675154 98.8605569486972,261.81155127921375 99.49652516329661,262.96170751401223 100.07949602697045,263.70930815977044 100.76846159272827,264.85946160397725 101.19244040246122,266.182135974057 101.93440331984311,267.3322857822059 102.30538477841765,268.36741916363826 102.9943503444083,269.0" stroke="#4dd2ff" stroke-linecap="round" stroke-linejoin="round" stroke-width="0.5"><title>2023-09-18 1.0km</title><desc>9870505463</desc></polyline><polyline fill="none" points="120.180867734598,251.0 119.92248525680043,251.5046786859748 119.56074978783727,253.18693856027676 119.09566132770851,253.97199189837556 118.88895534537733,254.58881895412924 117.75207244278863,256.43929712829413 117.33866047835909,257.4486469672411 117.08027800032869,258.3458457023953 117.28698398265988,258.9626692206948 118.42386688501574,261.4299583049142 118.99230833654292,262.3271523566218 119.40572030097246,263.2804198800004 120.0775147434324,264.17761175491614 120.4392502126284,264.79443055659067 120.90433867252432,266.2523639231222 122.91972199990414,269.0" stroke="#4dd2ff" stroke-linecap="round" stroke-linejoin="round" stroke-width="0.5"><title>2023-09-16 1.0km</title><desc>9856514700</desc></polyline><polyline fill="none" points="139.75117739033885,251.0 139.19823825755157,252.68001679936424 138.4794173850678,253.82002622907748 136.98648172640242,256.7000429572654 136.93118781317025,257.36004535935353 136.98648172640242,258.1400475098053 137.31824520626105,258.92004891473334 137.87118433904834,259.76004959398415 138.36882955837063,260.9000491327606 139.25353217078373,262.4000460996176 140.35941043659113,264.50003722141264 140.46999826305546,265.2800325474236 140.85705565591343,265.58003055123845 141.2994069622364,266.18002622795757 142.01822783472016,267.38001625816105 142.7923426204361,268.04001002263976 142.95822436036542,268.46000577666564 143.06881218706258,269.0" stroke="#4dd2ff" stroke-linecap="round" stroke-linejoin="round" stroke-width="0.5"><title>2023-09-15 1.0km</title><desc>9850671982</desc></polyline><polyline fill="none" points="160.45760422758758,251.0 159.54239577241242,253.4207119922503 158.51278626034036,254.91037746024085 158.05518203275278,255.7172784911818 157.3687756913714,257.4552165536443 157.19717410602607,258.07590785168577 157.19717410602607,258.57246056129225 157.3687756913714,259.193151037849 158.05518203275278,261.05521972937277 158.6843878456857,262.29659657517914 160.22880211402662,264.96555061248364 160.8580079267267,266.14485319692176 160.9724089836236,266.82760657178005 161.4300132112112,267.26208570454037 162.173620081041,268.44138508086326 162.80282589397393,269.0" stroke="#4dd2ff" stroke-linecap="round" stroke-linejoin="round" stroke-width="0.5"><title>2023-09-14 1.0km</title><desc>9844236351</desc></polyline><polyline fill="none" points="177.13924675201997,251.0 177.46854208991863,251.26799398573348 177.59202784160152,251.535987853189 177.6743516761344,252.11664082697826 177.92132317950018,252.60796214069705 178.08597084856592,253.99259279557737 178.08597084856592,254.66257423744537 178.00364701403305,255.01989737094846 178.08597084856592,255.46655099239433 178.29178043454885,256.00253490457544 178.2094566002488,256.4491878034314 178.25061851739883,256.6725141296629 178.66223768983036,257.4318230249919 179.03269494511187,258.54845202929573 179.3619902827777,259.17376337520545 179.77360945520923,259.7544090486481 180.22639054479077,260.1563941896311 180.34987629647367,260.42438413598575 180.4733620483894,261.00502861407585 180.80265738628805,261.5856725371559 181.17311464133672,262.6576290910598 181.6670576480683,263.5955895241932 181.91402915143408,264.39955445716623 182.0375149033498,265.0695244217641 182.2844864067156,265.6054998616455 182.73726749629714,267.0794298829278 183.35469625494443,268.2407055631047 183.39585817232728,268.41936316300416 183.35469625494443,268.5533563285135 182.86075324798003,269.0 183.10772475157864,268.8213425707654 183.23121050326154,268.5533563285135 183.31353433756158,268.330034369661 183.2723724206444,268.0173834892921 183.02540091704577,267.70473244803725 182.2844864067156,266.0968102659681 181.91402915143408,264.89086583675817 181.1319527241867,263.14894187945174 180.7614954689052,261.45167783496436 180.55568588292226,260.96036367397755 179.77360945520923,259.9330691441428 178.99153302772902,258.45912178448634 178.6210757724475,257.2531621938688 178.49759002099745,256.4491878034314 178.16829468286596,255.60054701479385 177.50970400730148,254.1712545856717 177.34505633823574,253.50127260189038 176.7687894969713,252.4292998908204 176.64530374505557,251.84864721581107 176.60414182790555,251.1339970076806" stroke="#4dd2ff" stroke-linecap="round" stroke-linejoin="round" stroke-width="0.5"><title>2023-09-13 1.0km</title><desc>9837636972</desc></polyline></svg>