<?xml version="1.0" encoding="utf-8" ?>
<svg baseProfile="full" height="300mm" version="1.1" viewBox="0,0,200,300" width="200mm" xmlns="http://www.w3.org/2000/svg" xmlns:ev="http://www.w3.org/2001/xml-events" xmlns:xlink="http://www.w3.org/1999/xlink"><defs /><rect fill="#222222" height="300" width="200" x="0" y="0" /><text fill="#FFFFFF" style="font-size:12px; font-family:Arial; font-weight:bold;" x="10" y="20">Over 1km Runs</text><text fill="#FFFFFF" style="font-size:4px; font-family:Arial" x="10" y="280">ATHLETE</text><text fill="#FFFFFF" style="font-size:9px; font-family:Arial" x="10" y="290">Jiakai</text><text fill="#FFFFFF" style="font-size:4px; font-family:Arial" x="120" y="280">STATISTICS</text><text fill="#FFFFFF" style="font-size:3px; font-family:Arial" x="120" y="285">Number: 55</text><text fill="#FFFFFF" style="font-size:3px; font-family:Arial" x="120" y="290">Weekly: 5.5</text><text fill="#FFFFFF" style="font-size:3px; font-family:Arial" x="141" y="285">Total: 57.2 km</text><text fill="#FFFFFF" style="font-size:3px; font-family:Arial" x="141" y="290">Avg: 1.0 km</text><text fill="#FFFFFF" style="font-size:3px; font-family:Arial" x="167" y="285">Min: 1.0 km</text><text fill="#FFFFFF" style="font-size:3px; font-family:Arial" x="167" y="290">Max: 1.5 km</text><polyline fill="none" points="19.76613808143884,34.472063627443276 21.00253999233246,39.16772822930943 24.402645244263113,47.88822255900595 25.175396437756717,50.73914616648108 26.72089882567525,53.92546833504457 27.18454954214394,54.428571428521536 26.257248109206557,52.75156068557408 24.093544766306877,47.55281954759266 23.93899452779442,46.21120700775646 22.39349213987589,42.52176845539361 20.075238559395075,38.329217402264476 19.14793712645769,35.47827828431036 18.529736171476543,31.285714285681024" stroke="#4dd2ff" stroke-linecap="round" stroke-linejoin="round" stroke-width="0.5"><title>2023-11-13 1.0km</title><desc>10208522228</desc></polyline><polyline fill="none" points="45.98622438777238,33.91559572634287 47.60197700280696,38.82469998905435 49.54088014084846,42.85717093083076 50.67190697044134,47.590932466322556 51.80293380096555,50.92209235811606 53.25711115449667,54.07792375353165 53.90341219957918,54.42857142863795 54.22656272351742,53.727276026736945 52.44923484697938,50.220795925706625 51.479783278889954,46.363661859417334 47.92512752581388,43.032495599705726 45.98622438777238,40.227299350779504 45.663073864765465,37.246774720959365 42.91629441920668,31.285714285681024" stroke="#4dd2ff" stroke-linecap="round" stroke-linejoin="round" stroke-width="0.5"><title>2023-11-12 1.0km</title><desc>10202270880</desc></polyline><polyline fill="none" points="70.78411361202598,35.603428814793006 74.60404162015766,44.238834062824026 75.87735095620155,48.55652478360571 77.15066029224545,52.01067164679989 77.94647862762213,53.56503607821651 78.74229696206748,54.42857142863795 78.90146062895656,53.7377431737259 77.46898762602359,49.420061975484714 74.76320528704673,45.2750805595424 71.8982592811808,38.712178360670805 70.78411361202598,34.049052498303354 69.66996794193983,31.285714285913855" stroke="#4dd2ff" stroke-linecap="round" stroke-linejoin="round" stroke-width="0.5"><title>2023-11-11 1.0km</title><desc>10196068378</desc></polyline><polyline fill="none" points="97.8484964100644,34.7368544107303 100.46771817095578,42.65415957593359 102.8998526642099,49.150393013842404 104.02237627562135,53.4135379018262 104.77072534989566,54.42857142863795 105.14489988796413,54.02255806257017 104.58363808132708,51.58647661237046 101.77732905186713,45.293256253004074 98.97102002147585,39.40603712643497 95.2292746482417,33.51880544796586 94.85510011110455,31.285714285681024" stroke="#4dd2ff" stroke-linecap="round" stroke-linejoin="round" stroke-width="0.5"><title>2023-11-10 1.0km</title><desc>10191120477</desc></polyline><polyline fill="none" points="120.34160169772804,31.992369710933417 123.10934800934047,34.11233474081382 124.73743407521397,36.938951870659366 125.22585989534855,37.99893243703991 125.22585989534855,39.5889024103526 127.01675456669182,45.06545759830624 127.66798899322748,48.24538714112714 128.9704578462988,51.778637253213674 129.29607505910099,53.545260361395776 130.11011809203774,54.42857142863795 130.598543911241,54.251909241080284 131.08696973044425,53.545260361395776 129.29607505910099,52.308624322293326 126.36552014108747,48.068724499084055 122.94653940293938,38.70558588858694 122.13249637000263,33.4056799383834 121.31845333706588,31.285714285681024" stroke="#4dd2ff" stroke-linecap="round" stroke-linejoin="round" stroke-width="0.5"><title>2023-11-09 1.0km</title><desc>10185506531</desc></polyline><polyline fill="none" points="146.913903972134,33.14390850241762 148.62636404205114,36.52243959135376 149.24907679390162,38.211703273118474 151.27289324067533,42.60378303343896 152.05128418188542,45.64444871840533 151.89560599345714,43.78626461105887 152.2069623703137,44.96874558040872 152.8296751221642,49.529737904667854 154.2307788161561,53.75287087401375 154.8534915689379,54.428571428521536 155.63188250921667,54.090721175656654 155.9432388851419,53.58394570404198 154.2307788161561,52.06361861759797 152.98535331059247,50.036514270934276 152.2069623703137,47.84048254403751 151.11721505224705,44.12411637895275 149.5604331716895,41.92807900137268 147.84797310084105,38.211703273118474 147.38093853648752,35.50888078613207 147.53661672398448,32.130348206846975 147.22526034805924,31.285714285681024" stroke="#4dd2ff" stroke-linecap="round" stroke-linejoin="round" stroke-width="0.5"><title>2023-11-08 1.0km</title><desc>10179505859</desc></polyline><polyline fill="none" points="176.0988324144855,44.07095914904494 181.31895605567843,54.428571428521536 181.61724883504212,54.266734111704864 180.87151688616723,52.48652283800766 179.52919937856495,50.22079731721897 178.63432104047388,47.95506946463138 176.8445643633604,46.013015163480304 176.24797880463302,44.88014936319087 175.80053963512182,40.99603362183552 175.50224685575813,39.86316523980349 173.71249017864466,36.788233835133724 172.66846545040607,31.285714285681024" stroke="#4dd2ff" stroke-linecap="round" stroke-linejoin="round" stroke-width="0.5"><title>2023-11-06 1.0km</title><desc>10167691585</desc></polyline><polyline fill="none" points="20.63228662405163,68.39130268245935 21.706355150789022,70.38925078290049 25.695752534084022,79.5464903555112 27.38357450440526,84.70782725315075 27.69045122526586,85.04081632650923 27.997327947057784,85.04081632650923 27.997327947057784,84.5413326980779 26.76982105989009,81.87741815322079 25.695752534084022,80.37896484450903 25.5423141727224,79.5464903555112 24.62168400734663,78.54752056521829 22.013231872580945,74.05215105519164 18.944464654661715,66.22685691807419 17.716957767494023,61.89795918366872" stroke="#4dd2ff" stroke-linecap="round" stroke-linejoin="round" stroke-width="0.5"><title>2023-11-05 1.1km</title><desc>10161301187</desc></polyline><polyline fill="none" points="44.24402284063399,61.89795918366872 47.335026933811605,68.77376009791624 48.72597877588123,74.8110316171078 50.88968164101243,79.00357188214548 51.662432664074004,82.35759854631033 52.43518368713558,85.04081632650923 52.898834301158786,84.53771323314868 52.74428409617394,84.03461002884433 50.73513143602759,80.34518313978333 50.58058123104274,79.84207901055925 48.72597877588123,76.99115351680666 47.953227751888335,74.3079262675019 45.94407509174198,70.61848364619073 45.48042447771877,67.43214203498792 44.55312324967235,64.07809342513792" stroke="#4dd2ff" stroke-linecap="round" stroke-linejoin="round" stroke-width="0.5"><title>2023-11-04 1.0km</title><desc>10155501797</desc></polyline><polyline fill="none" points="80.49475772492588,65.41334721131716 78.7400280572474,63.06975588260684 77.66019441559911,62.33738302648999 75.50052713230252,61.89795918366872 73.47583905467764,62.044433808885515 70.64127574535087,63.36270494933706 69.42646289849654,64.53450078645255 68.34662925684825,66.73161612206604 68.07667084690183,68.48930664558429 67.67173323128372,74.34826385357883 67.94169164123014,80.5001503713429 68.21165005210787,81.37898975145072 69.56144210370257,83.57608650438488 71.18119256664068,84.74787044816185 73.88077667029575,85.04081632650923 76.3104023640044,84.01550556428265 78.60504885250703,81.23251654836349 79.27994487853721,79.91425723605789 80.2247993145138,75.66652684973087 80.2247993145138,72.2976307910867 80.89969534054399,67.9034099765122 80.76471613533795,66.29219324875157 79.27994487853721,64.53450078645255 78.06513203121722,63.655653973226435 75.23056872189045,62.33738302648999 73.74579746508971,62.33738302648999 70.50629654061049,63.36270494933706 69.02152528334409,64.6809752174886 68.07667084690183,66.4386675505666 67.80671243648976,67.6104615777731 68.07667084690183,72.44410465157125 67.80671243648976,74.6412112612743" stroke="#4dd2ff" stroke-linecap="round" stroke-linejoin="round" stroke-width="0.5"><title>2023-11-03 1.0km</title><desc>10152446508</desc></polyline><polyline fill="none" points="95.21025129035115,61.89795918366872 96.47546792961657,64.6437323926948 97.55993933603168,69.54689180734567 99.36739168036729,73.07716100639664 102.07857019454241,80.13768538809381 102.62080589681864,81.31443763547577 103.5245320694521,84.45244108955376 104.06676777265966,85.04081632662565 104.78974870964885,85.04081632662565 104.78974870964885,84.64856618293561 103.5245320694521,84.06019085971639 102.98229636624455,82.68731460091658 101.71707972604781,81.51056295935996 100.81335355434567,78.96093262243085 99.5481369132176,76.99967685900629 98.10217503923923,74.05779050989076 96.47546792961657,67.97788177523762 95.39099652413279,65.42823850456625" stroke="#4dd2ff" stroke-linecap="round" stroke-linejoin="round" stroke-width="0.5"><title>2023-11-02 1.1km</title><desc>10144903556</desc></polyline><polyline fill="none" points="121.77325520664454,63.57498570752796 122.08235563896596,65.41971346025821 123.31875736638904,68.27065341616981 125.4824603907764,75.98494366765954 129.19166557583958,83.69920783059206 130.27351708710194,85.04081632650923 129.65531622432172,83.02840328717139 127.33706298377365,79.50667619577143 126.10066125541925,74.97873337520286 124.55515909474343,72.79860955267213 122.7005565026775,68.77376009745058 121.15505434200168,61.89795918366872" stroke="#4dd2ff" stroke-linecap="round" stroke-linejoin="round" stroke-width="0.5"><title>2023-11-01 1.0km</title><desc>10138966680</desc></polyline><polyline fill="none" points="148.06100443005562,62.24597374931909 148.862806096673,64.85608135722578 150.1456887628883,71.81635423982516 152.23037309478968,76.3405206373427 153.51325576100498,80.51666655926965 155.59794009383768,85.04081632662565 155.7583004264161,84.86681072600186 154.31505742762238,82.77874252386391 152.23037309478968,77.90657622134313 150.46640942897648,74.77446401678026 147.4195630978793,65.55210956628434 147.09884242992848,61.89795918366872" stroke="#4dd2ff" stroke-linecap="round" stroke-linejoin="round" stroke-width="0.5"><title>2023-10-31 1.0km</title><desc>10133123337</desc></polyline><polyline fill="none" points="173.50921104382724,64.64082832471468 174.29913410916924,68.75512598711066 174.29913410916924,70.29798573860899 176.03696485143155,73.21227359515615 180.77650324162096,83.326538489433 181.56642630696297,84.86938859918155 181.8823955329135,85.04081632662565 178.24874943401664,77.84084094013087 176.66890330426395,73.38370217941701 174.93107256107032,69.78369926824234 172.4033187525347,61.89795918366872" stroke="#4dd2ff" stroke-linecap="round" stroke-linejoin="round" stroke-width="0.5"><title>2023-10-30 1.0km</title><desc>10127985445</desc></polyline><polyline fill="none" points="19.208945678547025,95.85984414850827 19.91052205907181,100.57978232007008 20.33146788738668,102.10234072583262 23.13777340995148,108.64932911586948 24.540926170535386,112.4557082002284 26.64565531304106,115.34855162538588 27.20691641792655,115.65306122449692 27.347231693565845,115.19629680889193 26.084394208621234,113.2169831773499 24.260295618791133,109.25835023948457 21.033044267911464,103.32038664480206 19.77020678250119,98.90496678091586 18.78799984930083,96.92563757952303 18.647684573661536,93.88051203649957 18.367054021451622,92.51020408165641" stroke="#4dd2ff" stroke-linecap="round" stroke-linejoin="round" stroke-width="0.5"><title>2023-10-28 1.0km</title><desc>10115543824</desc></polyline><polyline fill="none" points="45.56972048338503,97.31022296100855 46.8335975734517,101.42451699334197 48.25545929931104,104.68166128732264 49.51933638937771,109.31022693077102 51.41515202447772,113.76735553424805 52.20507520530373,115.4816334976349 52.99499838612974,115.65306122438051 53.15298302285373,115.4816334976349 52.837013750337064,114.45306687057018 51.88910593278706,111.88164831884205 48.729413208551705,105.71023222454824 46.20165902841836,98.85308407410048 44.62181266583502,95.42450243700296 43.98987412080169,92.51020408142358" stroke="#4dd2ff" stroke-linecap="round" stroke-linejoin="round" stroke-width="0.5"><title>2023-10-27 1.0km</title><desc>10110442644</desc></polyline><polyline fill="none" points="71.1492530964315,96.08374859986361 74.12889122590423,106.12367748329416 75.22665264178067,109.18669796409085 76.32441405858845,111.0585418184055 77.57899853400886,114.63205769984052 78.04946771264076,115.31272676645312 78.99040606897324,115.65306122449692 79.14722912758589,115.14255951857194 78.99040606897324,114.46189040213358 77.4221754744649,112.41988185269292 75.06982958316803,108.33585934818257 72.24701451323926,99.99762436083984 70.36513779964298,96.93459171953145 69.4241994433105,92.51020408154" stroke="#4dd2ff" stroke-linecap="round" stroke-linejoin="round" stroke-width="0.5"><title>2023-10-26 1.0km</title><desc>10104873905</desc></polyline><polyline fill="none" points="98.84087363630533,103.57855635718442 102.3955278210342,112.46673975896556 104.09557982161641,115.48536020575557 104.71378054935485,115.65306122449692 104.55923036765307,113.97605048143305 100.38637545518577,106.76489023852628 98.06812272593379,100.89532437373418 96.05897036101669,96.70276808075141 95.28621945157647,92.51020408165641" stroke="#4dd2ff" stroke-linecap="round" stroke-linejoin="round" stroke-width="0.5"><title>2023-10-25 1.0km</title><desc>10098978222</desc></polyline><polyline fill="none" points="121.43313176184893,92.51020408165641 121.27745343651623,93.69269148434978 122.21152339037508,97.57800295087509 123.45694999489933,100.11189819395076 124.23534162156284,103.15256879711524 125.6364465514198,107.20679000858217 128.5943347364664,112.9502578136744 129.52840468939394,115.31521097186487 129.83976134099066,115.65306122449692 130.15111799165606,115.4841361042345 129.99543966632336,113.28810841345694 128.282978085801,110.07852570549585 127.03755148127675,108.22034419386182 125.4807682260871,104.67290258978028 125.16941157542169,102.81471670686733 123.30127166863531,99.94297193153761 122.21152339037508,97.40907650184818 121.90016673877835,94.36839829827659 121.43313176184893,92.51020408165641" stroke="#4dd2ff" stroke-linecap="round" stroke-linejoin="round" stroke-width="0.5"><title>2023-10-24 1.0km</title><desc>10092835699</desc></polyline><polyline fill="none" points="149.05027788411826,96.50610997667536 151.3518522819504,104.66439595317934 152.42592033464462,106.66233905928675 153.65342667978257,111.65718911320437 155.49468619935215,114.98708302888554 156.2618776652962,115.65306122449692 155.49468619935215,114.82058844913263 154.42061814665794,112.15667351265438 151.65872886870056,108.82677543512546 151.04497569520026,107.66130995145068 150.4312225226313,103.83191913878545 148.58996300399303,100.16901751991827 147.36245665885508,96.33961403858848 146.59526519291103,92.51020408154" stroke="#4dd2ff" stroke-linecap="round" stroke-linejoin="round" stroke-width="0.5"><title>2023-10-23 1.0km</title><desc>10087395010</desc></polyline><polyline fill="none" points="169.65002929768525,92.62120269186562 170.05919395806268,92.51020408165641 172.97449216409586,92.73220128571847 174.25313172792085,93.06519696942996 174.56000522337854,93.23169475619216 175.22489779698662,93.73118789604632 175.68520803982392,94.28617988602491 176.7081196908839,96.17314959940268 177.21957551687956,98.28211016725982 177.88446809002198,99.39208704663906 178.19134158524685,100.28006737492979 178.90737974108197,101.88952905748738 179.4188355668448,103.55448580742814 180.1860193053726,104.88644856319297 180.54403838329017,105.27493725757813 181.0043486263603,106.0519140465185 181.2600765391253,107.71686161553953 181.41351328673773,108.16084701381624 181.82267794711515,108.77132650994463 181.92496911250055,109.71479385107523 182.07840586011298,110.10328006045893 184.3288114927709,115.43107076140586 184.6356849882286,115.65306122449692 184.6356849882286,115.37557313533034 184.17537474515848,114.93159198050853 183.6639189196285,113.71064245817252 183.15246309386566,112.65618446347071 181.7715323646553,108.3828396149911" stroke="#4dd2ff" stroke-linecap="round" stroke-linejoin="round" stroke-width="0.5"><title>2023-10-22 1.5km</title><desc>10080655811</desc></polyline><polyline fill="none" points="19.1762163459789,123.1224489795859 19.988185429247096,123.70983943255851 18.526641078991815,123.47488330316264 20.80015451251529,126.41182995354757 21.016679601510987,127.11669554305263 20.854285784997046,127.7040830590413 20.096447973744944,128.11525406350847 19.87992288474925,128.52642485609977 19.934054156998172,129.23128857964184 20.367104334756732,130.9347066776245 20.854285784997046,132.1682140674675 21.395598507253453,134.0478407133487 22.36996140726842,135.7512485414627 22.53235522401519,136.39736780204112 23.12779921828769,137.45465273747686 23.50671812426299,137.92455670429626 23.56084939604625,138.21824654308148 23.939768301788718,138.57067420723615 24.210424662800506,139.15805330191506 24.589343568775803,140.27407239202876 24.96826247428544,141.0376635028515 24.914131202036515,142.56484353501583 25.617837740806863,143.91580805327976 25.83436283003539,144.56192071107216 26.213281735312194,145.26677028724225 26.86285700206645,146.08909400680568 27.18764463555999,146.2653061224264 25.942625374300405,144.50318321830127 25.671969013288617,143.56338274705922 25.13065629079938,142.3886306033237 24.914131202036515,141.6250407837215 24.210424662800506,140.62649914930807 23.614980668528005,138.92310171585996" stroke="#4dd2ff" stroke-linecap="round" stroke-linejoin="round" stroke-width="0.5"><title>2023-10-20 1.4km</title><desc>10069668027</desc></polyline><polyline fill="none" points="43.91459831944667,123.1224489795859 44.024819153826684,124.01947121368721 44.90658582863398,126.1723205386661 45.12702749762684,127.48794787656516 46.945671264547855,131.9132242127671 47.11100251600146,132.51123268168885 47.22122335061431,133.40824456088012 47.44166501914151,134.00625193078304 48.7643150317017,135.86007198307198 49.480750455055386,137.29528460570145 49.92163379234262,138.7304946957738 50.30740671302192,139.50789910391904 50.52784838154912,140.70390443480574 50.803400467615575,141.30190644075628 51.51983589073643,143.1557098653284 51.63005672534928,143.87331005674787 52.67715465184301,146.02610683249077 52.952706737676635,146.2653061224264 53.118037989363074,146.2653061224264 53.22825882351026,146.20550630643265 53.1731484066695,146.14570648618974 52.07094006286934,144.77030940563418 51.574946308275685,143.09590982081136 50.52784838154912,141.18230607471196 50.36251713009551,140.40490326686995 50.252296295482665,139.08929682266898" stroke="#4dd2ff" stroke-linecap="round" stroke-linejoin="round" stroke-width="0.5"><title>2023-10-19 1.3km</title><desc>10064004415</desc></polyline><polyline fill="none" points="69.06717730872333,123.1224489796441 71.33610642887652,126.0768696324667 71.18484448734671,128.2106154502835 71.487368369475,130.34435922885314 72.54620196018368,134.11943937919568 74.05882137268782,136.5814447342418 75.57144078612328,140.84891425142996 78.59667961392552,145.77290740422904 79.05046543851495,146.26530612248462 79.50425126217306,146.10117322823498 77.53784602414817,144.13157755951397 73.907559431158,137.07384547940455 72.99998778291047,133.95530559227336 70.42853478062898,128.5388838564977" stroke="#4dd2ff" stroke-linecap="round" stroke-linejoin="round" stroke-width="0.5"><title>2023-10-18 1.0km</title><desc>10058081424</desc></polyline><polyline fill="none" points="95.96061875950545,124.5250527751632 97.25322075653821,132.06403404474258 100.64630099851638,141.00558558339253 102.90835449285805,145.73933459050022 103.87780599109828,146.2653061223682 104.3625317402184,146.2653061223682 104.68568223901093,145.5640107211657 103.55465549230576,144.16141929873265 102.1004782449454,141.88220647908747 100.16157525032759,137.67442324222066 99.35369900241494,135.2198795923032 95.96061875950545,128.38220896059647 95.63746826071292,127.33025789237581 95.31431776192039,123.12244897941127" stroke="#4dd2ff" stroke-linecap="round" stroke-linejoin="round" stroke-width="0.5"><title>2023-10-17 1.0km</title><desc>10051702317</desc></polyline><polyline fill="none" points="120.54636198002845,123.65651740692556 122.18697268981487,126.50488036358729 124.64788875263184,132.91368476464413 125.96037732064724,135.4059930066578 127.43692695815116,140.03455864987336 129.24159873928875,144.66311544645578 129.89784302283078,145.909263841575 130.71814837679267,146.2653061223682 130.88220944814384,146.0872849887237 130.71814837679267,145.55322150839493 128.91347659751773,142.8829023411963 126.45256053376943,136.83016799297184 124.64788875263184,133.09170686686411 123.17133911512792,126.14883517683484 122.35103376023471,123.12244897941127" stroke="#4dd2ff" stroke-linecap="round" stroke-linejoin="round" stroke-width="0.5"><title>2023-10-16 1.0km</title><desc>10046279660</desc></polyline><polyline fill="none" points="146.6890293797478,123.12244897941127 147.36610681563616,124.59184310794808 148.0431842515245,127.89797673746943 149.56660848110914,133.0408425766509 151.59784078784287,136.16329167108051 153.9676118120551,144.97959746047854 154.81395860668272,145.89796085795388 155.99884411878884,146.2653061223682 156.16811347845942,145.89796085795388 155.99884411878884,144.79592474061064 153.79834245331585,141.67348643532023 152.61345694120973,138.0000246092677 151.25930207036436,135.79594492120668 148.0431842515245,128.26532464870252 146.8582987394184,123.12244897941127" stroke="#4dd2ff" stroke-linecap="round" stroke-linejoin="round" stroke-width="0.5"><title>2023-10-15 1.0km</title><desc>10039610121</desc></polyline><polyline fill="none" points="172.32686980534345,124.80217958218418 172.8428684482351,130.21463729836978 174.21886483114213,134.13399602728896 175.93886030931026,136.560262683779 176.97085759602487,139.91970499581657 179.89484990760684,145.14549531112425 180.58284809812903,145.89203590690158 181.44284583814442,146.2653061223682 181.95884448103607,145.89203590690158 181.95884448103607,145.33213048055768 178.51885352563113,142.53260149806738 176.28285940457135,138.42662007268518 175.4228616654873,134.88053986080922 173.35886709205806,130.21463729836978 172.32686980534345,126.29527251888067 172.49886935390532,123.86899605137296 172.32686980534345,123.12244897941127" stroke="#4dd2ff" stroke-linecap="round" stroke-linejoin="round" stroke-width="0.5"><title>2023-10-14 1.0km</title><desc>10033377496</desc></polyline><polyline fill="none" points="17.60979350283742,154.1020424910821 20.656641514971852,157.77552565233782 20.99518018309027,160.53063447843306 23.872758861631155,169.34696230501868 26.58106820564717,175.77551506529562 27.427414875477552,176.8775510203559 28.104492211714387,176.8775510203559 28.104492211714387,176.3265331038274 27.935222877189517,175.77551506529562 26.4117988711223,174.67347862385213 24.719105531461537,171.5510394005105 22.857142857275903,165.67349615856074 19.471756177023053,158.14287367113866 18.96394817531109,155.57143640355207 18.117601504549384,153.7346938776318" stroke="#4dd2ff" stroke-linecap="round" stroke-linejoin="round" stroke-width="0.5"><title>2023-10-13 1.0km</title><desc>10028006924</desc></polyline><polyline fill="none" points="43.60576497577131,153.73469387739897 45.233851401135325,155.854659530567 46.21070325560868,157.62129614548758 46.373511898331344,159.9179218041245 46.21070325560868,162.39120851969346 48.00159832276404,166.1011338206008 50.11811067536473,171.75434231199324 52.234623027034104,175.6409154352732 52.72304895427078,176.34756441926584 53.53709216695279,176.8775510203559 53.53709216695279,175.99423995334655 51.74619709979743,173.69762965943664 50.11811067536473,170.87102936208248 48.00159832276404,165.04115574783646 46.699129182845354,162.74453498609364 46.047894613817334,160.80123878084123" stroke="#4dd2ff" stroke-linecap="round" stroke-linejoin="round" stroke-width="0.5"><title>2023-10-12 1.0km</title><desc>10021974100</desc></polyline><polyline fill="none" points="71.5799309508875,157.0161576422397 72.21658585313708,160.4703250748571 72.05742212757468,161.85199062596075 73.4898956567049,166.51510586054064 74.60404173564166,168.58759854896925 75.71818781457841,172.3871637294069 77.30982506927103,176.18672276474535 77.62815252039582,176.53213691781275 78.4239711491391,176.8775510203559 78.26480742264539,176.18672276474535 76.51400644239038,171.69633415387943 74.60404173564166,168.41489089443348 72.05742212757468,162.5428230962716 71.42076722532511,160.29761682380922 71.10243977420032,157.0161576422397 70.14745742175728,153.7346938776318" stroke="#4dd2ff" stroke-linecap="round" stroke-linejoin="round" stroke-width="0.5"><title>2023-10-10 1.0km</title><desc>10009069592</desc></polyline><polyline fill="none" points="96.07942351419479,156.6275636748178 97.17718493007123,159.69059834256768 98.27494634594768,163.7746382614132 100.62729223817587,168.87967802607454 102.50916895084083,175.34604556520935 103.60693036671728,176.8775510203559 103.92057648673654,176.36704931443091 104.07739954534918,174.49520876293536 102.97963812947273,171.26202606293373 100.62729223817587,167.177999355481 97.96130022779107,159.69059834256768 97.17718493007123,156.28722623898648 95.92260045465082,153.73469387739897" stroke="#4dd2ff" stroke-linecap="round" stroke-linejoin="round" stroke-width="0.5"><title>2023-10-09 1.0km</title><desc>10003389142</desc></polyline><polyline fill="none" points="121.00229896977544,153.73469387739897 122.15962904784828,155.1699162083678 123.31695912592113,157.86095580272377 123.97829059883952,163.24302608892322 126.45828362274915,168.62508450448513 128.60761090926826,174.7247363589704 129.59960811864585,176.51874870876782 130.42627245932817,176.8775510203559 130.42627245932817,175.4423414573539 127.28494796343148,170.4191013383679 123.15162625722587,160.3725900799036 121.49829757399857,153.9140967153944" stroke="#4dd2ff" stroke-linecap="round" stroke-linejoin="round" stroke-width="0.5"><title>2023-10-08 1.0km</title><desc>9996447828</desc></polyline><polyline fill="none" points="148.45789527148008,158.36328436236363 149.2196071073413,161.1734953650739 151.50474261213094,167.28982481837738 152.26645444706082,169.9347188883694 154.70393231883645,176.05102450959384 155.46564415376633,176.8775510203559 155.6179865207523,176.2163298361702 155.6179865207523,175.55510845780373 152.72348154801875,170.4306361800991 151.35240024514496,167.45513078861404 148.914922372438,160.181656588451 148.15321053750813,156.37960389244836 147.23915633559227,153.73469387751538" stroke="#4dd2ff" stroke-linecap="round" stroke-linejoin="round" stroke-width="0.5"><title>2023-10-07 1.0km</title><desc>9989974159</desc></polyline><polyline fill="none" points="175.25208343192935,160.62833598593716 176.46217860653996,164.5675504906103 177.36974998842925,166.53715513681527 179.1848927512765,174.25142326985952 179.63867844175547,175.7286205093842 180.54624982271343,176.8775510203559 181.30255930684507,176.8775510203559 181.60508310049772,176.2210193721112 181.45382120460272,175.7286205093842 179.63867844175547,173.1024914069567 177.82353567890823,169.16329196165316 177.21848809160292,166.53715513681527 174.04198825731874,158.82286034862045 173.58820256683975,156.0325769452611 172.68063118495047,153.73469387751538" stroke="#4dd2ff" stroke-linecap="round" stroke-linejoin="round" stroke-width="0.5"><title>2023-10-06 1.0km</title><desc>9984428862</desc></polyline><polyline fill="none" points="17.874793469905853,184.3469387756195 20.49708262179047,191.36569606885314 22.245275389403105,197.2462618041318 25.21720309369266,204.64437385462224 26.440938031300902,207.11040649190545 26.965395861305296,207.4897959183436 27.664672968909144,207.4897959183436 27.839492244645953,207.11040649190545 27.31503441464156,206.16193267935887 25.21720309369266,203.12681413814425 23.99346815701574,200.66077769408002 21.89563683513552,195.15961098088883 21.021540451794863,192.31417531962506 18.5740705775097,187.76147173531353 18.5740705775097,186.05420582019724" stroke="#4dd2ff" stroke-linecap="round" stroke-linejoin="round" stroke-width="0.5"><title>2023-10-04 1.0km</title><desc>9971682885</desc></polyline><polyline fill="none" points="45.06866650376469,187.04976622993127 45.84705807454884,189.75259050528985 46.62544964440167,191.61078035016544 47.24816290102899,194.48252533643972 50.20605086814612,200.39493018342182 50.36172918230295,202.42203691450413 51.295799067243934,206.47624501190148 51.60715569462627,206.9830205210019 52.541225579567254,207.4897959183436 52.541225579567254,205.80054415913764 50.517407497391105,202.08418591693044 49.11630266997963,198.87459896167275 48.33791109919548,197.35426673374604 47.55951952841133,195.15822951763403 46.00273638870567,191.94863288803026 45.38002313207835,189.41473764460534 45.06866650376469,186.8808396073291 44.60163156222552,184.34693877550308" stroke="#4dd2ff" stroke-linecap="round" stroke-linejoin="round" stroke-width="0.5"><title>2023-10-03 1.0km</title><desc>9965060084</desc></polyline><polyline fill="none" points="70.05537814553827,185.30325926397927 72.1705462159589,192.18875640514307 72.52307422738522,195.24897150718607 73.7569222683087,196.77907770802267 74.63824229780585,199.07423532218672 76.22461835015565,205.0033831212204 77.45846639107913,206.9160085604526 78.33978641964495,207.4897959183436 78.51605042628944,207.2985334796831 77.98725840914994,205.76843346538953 76.04835434444249,202.13444232498296 72.87560223881155,194.4839180689305 70.93669817503542,188.74601011234336 70.58417016360909,184.3469387756195" stroke="#4dd2ff" stroke-linecap="round" stroke-linejoin="round" stroke-width="0.5"><title>2023-10-02 1.0km</title><desc>9958643020</desc></polyline><polyline fill="none" points="96.33159404993057,188.42009705421515 96.67284111492336,190.08638717909344 100.42655883170664,198.9732492212206 102.30341769009829,204.71266429009847 103.32715888507664,206.74922778317705 104.350900080055,207.4897959183436 104.52152361348271,207.30465390486643 104.350900080055,206.56408571568318 100.93842942919582,201.3801022944972 97.69658230990171,193.41896411962807 96.16097051743418,188.60524045606144 95.47847638651729,184.34693877538666" stroke="#4dd2ff" stroke-linecap="round" stroke-linejoin="round" stroke-width="0.5"><title>2023-10-01 1.0km</title><desc>9952075403</desc></polyline><polyline fill="none" points="122.3914555804804,187.7009905911982 123.78240772988647,190.5519307567738 124.4006086839363,193.40286735934205 124.86425940040499,196.08609855372924 127.18251298181713,202.62646136712283 129.19166608527303,206.8189917691052 130.1189675172791,207.4897959183436 130.42806799616665,206.98669282486662 127.3370632212609,202.2910586023936 125.94611107185483,199.10472987452522 125.48246035538614,197.42771296715364 123.31875701341778,192.73205906746443 122.08235510252416,187.53328811726533 121.00050343200564,184.34693877550308" stroke="#4dd2ff" stroke-linecap="round" stroke-linejoin="round" stroke-width="0.5"><title>2023-09-30 1.0km</title><desc>9945549317</desc></polyline><polyline fill="none" points="147.84547935146838,184.34693877538666 149.38109024148434,186.93894935166463 149.89296053815633,188.975527218543 151.25794799625874,192.3081056298688 151.9404417257756,197.30696497764438 152.4523120224476,198.78810658236034 154.4997932082042,203.786953067407 155.0116635048762,206.93436983786523 155.35291036963463,207.30465390509926 155.86478066630661,207.4897959183436 156.03540409822017,207.1195118778851 152.96418231911957,201.56524474383332 150.9167011315003,196.75153665128164 150.23420740291476,193.97439318150282 147.84547935146838,188.42009705514647 146.8217387581244,185.0875134980306" stroke="#4dd2ff" stroke-linecap="round" stroke-linejoin="round" stroke-width="0.5"><title>2023-09-28 1.0km</title><desc>9933629332</desc></polyline><polyline fill="none" points="172.61874682735652,186.97682021581568 173.91134977526963,191.53527450957336 176.33498030062765,194.86644713650458 177.95073398482054,200.82748127682135 180.21278914250433,204.85993709927425 180.85909061599523,207.1391482432373 181.5053920885548,207.4897959183436 181.82854282669723,206.9638243864756 181.5053920885548,206.26252883020788 180.21278914250433,204.50928903720342 176.4965556692332,196.97034324030392 174.5576512478292,191.71059950022027 172.45717145968229,184.3469387756195" stroke="#4dd2ff" stroke-linecap="round" stroke-linejoin="round" stroke-width="0.5"><title>2023-09-27 1.0km</title><desc>9927137811</desc></polyline><polyline fill="none" points="24.779698900179937,214.95918367343256 24.318285449873656,217.18448915984482 23.856871999567375,218.46403685060795 23.497994871577248,220.02174416207708 21.39600026444532,224.41668678756105 20.31936888070777,226.25254133762792 20.11429623584263,227.031387376599 20.216832557925954,227.64333727350459 20.473173363832757,228.53344533074414 21.242195780854672,230.42492147593293 21.498536586761475,230.92560554639203 21.80614555370994,231.81570974248461 22.831508776405826,233.095232689986 23.29292222694494,234.09659696556628 23.805603838525712,234.87543493055273 24.2157491275575,235.98805920407176 24.83096706145443,236.82252633554162 25.599989478476346,238.10204081633128" stroke="#4dd2ff" stroke-linecap="round" stroke-linejoin="round" stroke-width="0.5"><title>2023-09-26 1.0km</title><desc>9920397094</desc></polyline><polyline fill="none" points="48.4633493241854,214.95918367343256 47.45460968185216,218.32118405547226 46.44587003975175,220.11945896607358 45.50918322871439,221.29224531294312 45.0048134077806,222.23047345905798 44.78865491296165,223.16870077728527 44.860707744257525,224.34148376097437 45.22097190259956,225.27970921673113 46.08560588164255,226.60886052867863 46.44587003975175,227.93801017920487 47.16639835527167,229.6580837313668 48.53540215571411,231.37815450143535 50.84109276649542,236.06924246059498 52.35420222999528,238.10204081633128" stroke="#4dd2ff" stroke-linecap="round" stroke-linejoin="round" stroke-width="0.5"><title>2023-09-25 1.0km</title><desc>9914573673</desc></polyline><polyline fill="none" points="75.99192000576295,214.95918367349077 75.42318476573564,215.82319514045957 75.30943771777675,216.25520054035587 75.42318476573564,216.81063572788844 75.4800582898315,217.3660705477232 74.34258780954406,219.46437654999318 74.05822018929757,220.88381587102776 73.66010552155785,221.93296513071982 71.27141751302406,226.12954905512743 71.21454398916103,226.62326343130553 71.44203808484599,227.61069131287513 72.06764684920199,228.59811803273624 72.40888799331151,229.4621154597262 72.92074970924295,230.3261119973031 73.20511732925661,231.19010764552513 73.9444731415715,232.36267174576642 74.51320838136598,233.53523420798592 75.13881714595482,234.21408541110577 75.30943771777675,234.83122239203658 75.7075523857493,235.32493165007327 76.56065524602309,236.80605768214446 77.18626401014626,237.48490624001715 77.35688458220102,238.10204081633128" stroke="#4dd2ff" stroke-linecap="round" stroke-linejoin="round" stroke-width="0.5"><title>2023-09-24 1.0km</title><desc>9907510217</desc></polyline><polyline fill="none" points="100.8627675503958,214.95918367343256 100.37961772223935,215.7081516844337 100.03451070212759,216.4571191445575 99.82744649006054,217.43077601958066 99.75842508580536,218.70401822088752 98.58506121742539,220.27684462547768 97.89484717743471,222.07435754226753 97.27365454100072,222.9731128111598 96.85952611686662,224.1714519363013 96.79050471261144,225.44468571193283 98.23995419731364,229.1145859255921 98.79212542949244,230.23802212334704 100.5866819343064,233.08405494573526 101.34591737855226,234.95644062419888 102.31221703486517,236.1547656520852 102.86438826727681,237.12840369949117 103.20949528738856,238.10204081633128" stroke="#4dd2ff" stroke-linecap="round" stroke-linejoin="round" stroke-width="0.5"><title>2023-09-23 1.0km</title><desc>9901004991</desc></polyline><polyline fill="none" points="126.60293678101152,214.95918367349077 126.14215474645607,215.81633636233164 125.68137271166779,217.31635174783878 124.62815663241781,219.5306559408782 123.57494055316783,221.0306655910099 122.6533764838241,223.5306765275891 122.58755047875457,224.88782262732275 122.71920248889364,225.67353792407084 124.03572258772328,228.81639275554335 124.23320060269907,229.74496155540692 124.49650462251157,230.24495977233164 125.4180686918553,231.3878118734574 126.14215474645607,232.8163751089014 126.73458879091777,234.31636424566386 127.72197886533104,235.74492317507975 128.84102094941773,238.10204081633128" stroke="#4dd2ff" stroke-linecap="round" stroke-linejoin="round" stroke-width="0.5"><title>2023-09-22 1.0km</title><desc>9895405405</desc></polyline><polyline fill="none" points="152.65538044297136,214.95918367349077 152.4666405946482,215.64187208242947 152.08916089800186,216.0514848868479 151.27128822146915,217.55339695687871 150.9567218075972,218.64569511817535 150.0130225655157,221.0350928659318 149.0064100411255,223.08314318407793 148.37727721291594,224.5850438796333 148.18853736459278,225.33599331619916 148.18853736459278,225.8138699142146 148.37727721291594,226.49655034183525 148.7547569097951,227.17923026758945 149.57262958632782,229.29553484742064 150.39050226239488,230.79742549383081 150.83089524204843,231.88970807450823 151.6487679183483,233.2550594934146 152.15207418054342,233.86946697707754 152.5295538774226,234.96174594387412 153.53616640227847,236.73669652448734 154.6686054924503,238.10204081633128" stroke="#4dd2ff" stroke-linecap="round" stroke-linejoin="round" stroke-width="0.5"><title>2023-09-21 1.0km</title><desc>9889267953</desc></polyline><polyline fill="none" points="179.49908775882795,214.95918367349077 178.67319249128923,217.43692846095655 178.18737174593844,219.38748748227954 177.41005855286494,221.02173554949695 176.48699913639575,223.76304652256658 174.88379067601636,226.76793304790044 174.4465520051308,228.4021642920561 174.49513407959603,228.7711837348761 174.78662652685307,229.56193904421525 175.41819349629804,230.93257951462874 175.80685009271838,232.0923501737998 176.77849158388563,233.46298580686562 177.36147647863254,234.5700357517344 177.70155100012198,235.36078466585604 178.0902075965423,236.0460996859474 178.7217745659873,236.52054816234158 179.49908775882795,237.68030978308525 179.54766983352602,237.89117533073295 179.83916228078306,238.10204081633128" stroke="#4dd2ff" stroke-linecap="round" stroke-linejoin="round" stroke-width="0.5"><title>2023-09-20 1.0km</title><desc>9882714971</desc></polyline><polyline fill="none" points="24.77607532008551,245.57142857142026 24.282635543961078,246.82080280093942 23.350582633400336,249.5575205620844 23.295755991479382,250.4499265262275 22.96679614041932,250.9258759713848 22.583009648136795,251.8182804263197 22.36370308068581,252.6511903629871 21.92508994648233,253.78156676259823 20.664077184861526,255.80434164166218 20.335117334034294,256.9942068553646 20.225464050425217,258.0650840517483 20.335117334034294,259.1359598307172 20.664077184861526,260.3258201451972 21.04786367714405,261.15872132440563 22.254049797076732,263.2409705213504 22.857142857043073,264.07386869972106 23.40540927485563,265.56118474318646 23.953675693133846,266.5130655762623 24.501942110946402,267.2864679286722 25.105035170912743,267.8813923121779 25.48882166366093,268.71428571426077" stroke="#4dd2ff" stroke-linecap="round" stroke-linejoin="round" stroke-width="0.5"><title>2023-09-19 1.0km</title><desc>9876194288</desc></polyline><polyline fill="none" points="48.40107994247228,245.57142857142026 47.992243232904,246.23688557493733 47.310848717344925,247.56779826106504 47.1064303626772,248.45507240627194 45.8799202342052,250.5993150253198 44.92596791218966,252.59567473310744 44.72154955728911,253.3350662117009 44.78968900907785,254.14839620998828 45.198525718646124,255.1835425296449 45.81178078264929,256.292626689421 46.356896395329386,257.8453424582258 47.1064303626772,259.4719945018296 47.924103781348094,260.95076680369675 48.67363774892874,261.91196763399057 49.55945061915554,263.3907363479957 50.1045662316028,265.0913176808972 51.05851855385117,266.57008172001224 51.53549471497536,267.9009674960398 52.42130758543499,268.71428571426077" stroke="#4dd2ff" stroke-linecap="round" stroke-linejoin="round" stroke-width="0.5"><title>2023-09-18 1.0km</title><desc>9870505463</desc></polyline><polyline fill="none" points="74.5182585157454,245.57142857142026 74.18605247256346,246.220301167632 73.7209640124347,248.3832067202893 73.12299313535914,249.39256101218052 72.85722830076702,250.18562436959473 71.39552171202376,252.56481059349608 70.86399204330519,253.86254610068863 70.53178600035608,255.01608733163448 70.79755083448254,255.8091461408767 72.25925742345862,258.9813749634195 72.9901107181795,260.13491017278284 73.52164038666524,261.3605398457148 74.38537609833293,262.5140722562792 74.85046455869451,263.30712500127265 75.44843543600291,265.18161075829994 78.03964257100597,268.71428571426077" stroke="#4dd2ff" stroke-linecap="round" stroke-linejoin="round" stroke-width="0.5"><title>2023-09-16 1.0km</title><desc>9856514700</desc></polyline><polyline fill="none" points="99.68008521618322,245.57142857142026 98.96916347392835,247.7314501705696 98.04496520920657,249.1971765802009 96.12547650537454,252.9000552307116 96.05438433098607,253.7486297477153 96.12547650537454,254.75148965540575 96.55202955077402,255.75434860464884 97.26295129302889,256.83434947789647 97.90278086066246,258.3000631706673 99.04025564808398,260.22863069950836 100.46209913259372,262.92861928464845 100.604283480905,263.9314704181161 101.10192870046012,264.31718213728163 101.67066609417088,265.08860515023116 102.59486435889266,266.6314494747785 103.59015479777008,267.4800128862262 103.80343132046983,268.02000742714154 103.94561566901393,268.71428571426077" stroke="#4dd2ff" stroke-linecap="round" stroke-linejoin="round" stroke-width="0.5"><title>2023-09-15 1.0km</title><desc>9850671982</desc></polyline><polyline fill="none" points="126.3026340068318,245.57142857142026 125.12593742180616,248.6837725614896 123.80215376289561,250.59905673458707 123.21380547061563,251.63650091725867 122.33128303149715,253.87099271186162 122.11065242206678,254.66902438079705 122.11065242206678,255.30744929309003 122.33128303149715,256.10547990584746 123.21380547061563,258.4995682234876 124.02278437279165,260.0956241681124 126.00845986045897,263.52713650179794 126.81743876263499,265.0433826817898 126.96452583558857,265.92120844946476 127.55287412879989,266.479824477341 128.5089401039295,267.9960665325634 129.3179190061055,268.71428571426077" stroke="#4dd2ff" stroke-linecap="round" stroke-linejoin="round" stroke-width="0.5"><title>2023-09-14 1.0km</title><desc>9844236351</desc></polyline><polyline fill="none" points="147.75046010990627,245.57142857136205 148.17383982986212,245.9159922673134 148.3326072250493,246.26055581122637 148.43845215509646,247.00710963463644 148.75598694500513,247.6388084665523 148.9676768053323,249.41904787998646 148.9676768053323,250.2804525909596 148.86183187528513,250.73986804834567 148.9676768053323,251.3141369901714 149.2322891303338,252.0032591629424 149.12644420028664,252.57752717577387 149.17936666542664,252.86466102383565 149.70859131542966,253.84091531776357 150.18489350075833,255.27658118045656 150.608273220947,256.08055291092023 151.13749787095003,256.82709734817035 151.71964498632587,257.343935386627 151.8784123812802,257.688493889058 152.03717977646738,258.43503678945126 152.46055949665606,259.1815789762768 152.9368616817519,260.5598088313127 153.5719312618021,261.7657579596271 153.8894660519436,262.7994271591306 154.04823344713077,263.66081711358856 154.36576823727228,264.34992839349434 154.9479153524153,266.2449812780251 155.74175232788548,267.73805000964785 155.79467479302548,267.9677526380983 155.74175232788548,268.14002956519835 155.10668274736963,268.71428571426077 155.42421753751114,268.4845833052532 155.5829849326983,268.14002956519835 155.68882986251265,267.8529013323714 155.6359073978383,267.45092162903165 155.3183726076968,267.0489417188219 154.36576823727228,264.98161319905194 153.8894660519436,263.4311132186558 152.88393921684474,261.1914967020857 152.40763703151606,259.00930007349234 152.14302470651455,258.37761043792125 151.13749787095003,257.0568031852599 150.13197103561834,255.16172800853383 149.65566885028966,253.61120853491593 149.49690145580098,252.57752717577387 149.07352173514664,251.48641759040765 148.22676229500212,249.64875589578878 148.01507243490778,248.78735048812814 147.2741579245776,247.40909985953476 147.11539052939042,246.66254642023705 147.06246806448326,245.74371043837164" stroke="#4dd2ff" stroke-linecap="round" stroke-linejoin="round" stroke-width="0.5"><title>2023-09-13 1.0km</title><desc>9837636972</desc></polyline></svg>