<?xml version="1.0" encoding="utf-8" ?>
<svg baseProfile="full" height="300mm" version="1.1" viewBox="0,0,200,300" width="200mm" xmlns="http://www.w3.org/2000/svg" xmlns:ev="http://www.w3.org/2001/xml-events" xmlns:xlink="http://www.w3.org/1999/xlink"><defs /><rect fill="#222222" height="300" width="200" x="0" y="0" /><text fill="#FFFFFF" style="font-size:12px; font-family:Arial; font-weight:bold;" x="10" y="20">Over 1km Runs</text><text fill="#FFFFFF" style="font-size:4px; font-family:Arial" x="10" y="280">ATHLETE</text><text fill="#FFFFFF" style="font-size:9px; font-family:Arial" x="10" y="290">Jiakai</text><text fill="#FFFFFF" style="font-size:4px; font-family:Arial" x="120" y="280">STATISTICS</text><text fill="#FFFFFF" style="font-size:3px; font-family:Arial" x="120" y="285">Number: 96</text><text fill="#FFFFFF" style="font-size:3px; font-family:Arial" x="120" y="290">Weekly: 6.0</text><text fill="#FFFFFF" style="font-size:3px; font-family:Arial" x="141" y="285">Total: 99.4 km</text><text fill="#FFFFFF" style="font-size:3px; font-family:Arial" x="141" y="290">Avg: 1.0 km</text><text fill="#FFFFFF" style="font-size:3px; font-family:Arial" x="167" y="285">Min: 1.0 km</text><text fill="#FFFFFF" style="font-size:3px; font-family:Arial" x="167" y="290">Max: 1.5 km</text><polyline fill="none" points="16.75715460581705,32.4887284807628 17.38077871967107,35.060165748465806 18.628026948310435,37.76693793933373 20.87307375948876,44.66918901109602 22.619221279863268,48.59398690296803 22.993395747616887,49.0 23.24284539418295,48.72932461183518 22.86867092549801,47.24060926469974 22.245046811178327,46.293244325672276 20.37417446868494,41.42107408342417 18.628026948310435,37.76693793933373 17.13132907403633,31.0" stroke="#4dd2ff" stroke-linecap="round" stroke-linejoin="round" stroke-width="0.5"><title>2024-01-07 1.0km</title><desc>10508221625</desc></polyline><polyline fill="none" points="41.444057119544595,36.333351957728155 41.68981116171926,37.66668749670498 42.79570434661582,40.4666889377404 43.7787205115892,43.80001835001167 45.744752841070294,48.60000194073655 46.23626092355698,49.0 46.23626092355698,48.066671058069915 45.130367738194764,46.20001173368655 44.51598263531923,44.20001746760681 42.05844222288579,39.000022055231966 41.19830307876691,36.73335272236727 40.58391797589138,35.666683820891194 39.47802479052916,31.0" stroke="#4dd2ff" stroke-linecap="round" stroke-linejoin="round" stroke-width="0.5"><title>2024-01-06 1.0km</title><desc>10501510624</desc></polyline><polyline fill="none" points="63.33622903935611,34.27274134848267 64.26425115577877,36.53848169394769 64.96026774402708,39.43358999455813 66.12029539048672,43.20981085568201 67.39632580149919,45.979034193907864 68.20834515383467,47.99301199009642 68.672356212046,48.748253053287044 69.13636727072299,49.0 69.02036450617015,48.11888552387245 68.44035068294033,46.73427614511456 64.61225945036858,39.43358999455813 63.91624286258593,37.29372780956328 63.68423733301461,35.27973742748145 62.872217980679125,33.139870051061735 62.292204157449305,31.0" stroke="#4dd2ff" stroke-linecap="round" stroke-linejoin="round" stroke-width="0.5"><title>2024-01-05 1.0km</title><desc>10495609202</desc></polyline><polyline fill="none" points="84.77795720333233,31.0 85.54951070202515,32.81396122346632 86.1924719507806,34.76745598623529 87.0926176989451,36.58141360874288 88.76431694626808,41.325602270895615 90.82179294200614,46.069779074634425 91.59334644069895,48.58139728754759 92.10771543998271,49.0 92.36489993939176,48.30232876108494 92.2363076894544,47.32558859628625 89.15009369561449,41.046532678068615 88.12135569751263,37.41862423438579 87.0926176989451,31.55814209987875" stroke="#4dd2ff" stroke-linecap="round" stroke-linejoin="round" stroke-width="0.5"><title>2024-01-04 1.0km</title><desc>10489071805</desc></polyline><polyline fill="none" points="108.92811468616128,34.30883703043219 110.51377018168569,38.67649259837344 112.4653461757116,43.04413756961003 113.44113417295739,46.75000984175131 114.29494867054746,49.0 114.41692217020318,49.0 114.41692217020318,48.07353380450513 113.80705467192456,45.82354248885531 112.58731967536733,43.04413756961003 111.6115316785872,40.2647283594124 110.02587618306279,37.08825543615967 109.05008818628266,34.176483665942214 108.44022068753839,32.32353554200381 108.80614118650556,31.0" stroke="#4dd2ff" stroke-linecap="round" stroke-linejoin="round" stroke-width="0.5"><title>2024-01-03 1.0km</title><desc>10482519748</desc></polyline><polyline fill="none" points="130.65271540684626,31.297521962667815 133.80588424531743,40.52068110543769 137.09614738076925,48.404961237101816 137.78161886706948,49.0 137.91871316498145,48.404961237101816 137.50743027310818,47.36364297999535 134.08007284021005,40.81820166797843 132.84622416412458,37.54547307221219 131.06399829871953,31.0" stroke="#4dd2ff" stroke-linecap="round" stroke-linejoin="round" stroke-width="0.5"><title>2024-01-01 1.0km</title><desc>10470902913</desc></polyline><polyline fill="none" points="164.7595870788209,35.40818125801161 164.5339061920531,35.77552916947752 162.1642568781972,37.48981835064478 161.1486928872764,38.59186046384275 160.47165022604167,39.81635084503796 160.02028845250607,40.42859569785651 159.6817671218887,40.55104464129545 158.21484135696664,40.55104464129545 156.86075603496283,41.040840325760655 155.05530893895775,40.918391417944804 154.15258539048955,40.55104464129545 153.58838317357004,39.69390184734948 153.24986184295267,38.95920767285861 153.13702139956877,37.24492000427563 152.79850006848574,36.510224749101326 151.4444147469476,36.510224749101326 150.31601031217724,36.87757241737563 150.20316986879334,37.00002162193414 150.6545316427946,37.24492000427563 150.88021252909675,37.00002162193414 150.09032942540944,37.00002162193414 149.86464853817597,36.7551232035039 149.6389676509425,35.89797845506109 149.5261272075586,34.42858643166255 150.09032942540944,34.55103581654839 150.54169119987637,35.530630571069196 151.55725519079715,36.63267398066819 152.34713829495013,36.63267398066819 153.02418095618486,36.142876999801956 153.58838317357004,36.26532625826076 153.70122361695394,36.020427731913514 152.6856596255675,33.081642604316585 152.45997873833403,32.959193111164495 151.21873385971412,32.83674360951409 149.97748898155987,32.959193111164495 150.7673720861785,32.959193111164495 149.6389676509425,31.734697686857544 149.5261272075586,31.0 149.86464853817597,31.489798494149 150.20316986879334,33.081642604316585 150.54169119987637,33.81633937230799 150.88021252909675,35.40818125801161 150.20316986879334,39.571452840580605 150.99305297294632,43.36736785795074 151.67009563418105,44.46940608078148 151.78293607756495,46.306134830927476 152.79850006848574,49.0" stroke="#4dd2ff" stroke-linecap="round" stroke-linejoin="round" stroke-width="0.5"><title>2023-12-31 1.5km</title><desc>10466792666</desc></polyline><polyline fill="none" points="177.61318105319515,35.273397946031764 178.92593147419393,39.935274790157564 180.71604568464682,43.6906666085124 182.26747800037265,48.093529578414746 182.74484178982675,49.0 182.9835236845538,49.0 183.10286463145167,47.964033765834756 182.62550084246323,46.539579198579304 180.47736378991976,42.13671234436333 180.47736378991976,40.97124574659392 178.92593147419393,37.604337910655886 178.68724957946688,35.01440442644525 178.20988579047844,33.46044250787236 176.897135369014,31.0" stroke="#4dd2ff" stroke-linecap="round" stroke-linejoin="round" stroke-width="0.5"><title>2023-12-30 1.0km</title><desc>10458865202</desc></polyline><polyline fill="none" points="20.978762291837484,51.0 18.71215487923473,51.2236037919065 17.166740733664483,52.22982044820674 16.033437027130276,53.347838174086064 15.51829897845164,54.68945835984778 15.10618853988126,59.94412601995282 15.621326588094234,65.19877551647369 15.827381807379425,65.98138133413158 16.13646463630721,66.65218599990476 17.784906391520053,68.44099699554499 19.639403366018087,69.0 21.08178990148008,68.77639882266521 22.833259265869856,67.65839244390372 23.863535362761468,66.76398674899247 24.89381145965308,63.74536364292726 24.790783850476146,61.39754152763635 24.4817010210827,59.385119685321115 24.27564580226317,54.46585507784039 23.966562972869724,53.236036438611336 23.348397314548492,52.453424059203826 22.627204046584666,51.89441497006919 20.978762291837484,51.5590094178915 18.71215487923473,51.67081127688289 17.063713123556226,52.565225852420554 16.239492246415466,53.57144162070472 15.621326588094234,55.13666482537519 15.621326588094234,55.91927582339849 15.93040941702202,57.81990085518919 15.72435419820249,59.385119685321115" stroke="#4dd2ff" stroke-linecap="round" stroke-linejoin="round" stroke-width="0.5"><title>2023-12-29 1.0km</title><desc>10454615358</desc></polyline><polyline fill="none" points="40.34374916180968,52.90909918991383 42.10312474844977,59.18183983606286 44.86785781336948,67.6363697515335 45.74754560738802,69.0 45.8732152916491,69.0 45.8732152916491,67.6363697515335 43.98817002028227,61.909111761138774 42.48013380309567,58.22729371488094 41.47477632481605,56.318199999048375 39.84107042243704,51.0" stroke="#4dd2ff" stroke-linecap="round" stroke-linejoin="round" stroke-width="0.5"><title>2023-12-27 1.0km</title><desc>10441997651</desc></polyline><polyline fill="none" points="62.32120472379029,53.318191617610864 64.33191938465461,57.27274710254278 65.33727671485394,61.36365769722033 66.71964304428548,63.9545630736975 68.35334870684892,68.1818219712004 68.8560273712501,69.0 69.107366704382,68.86363702046219 68.2276790398173,66.27273850073107 66.97098237741739,64.36365306563675 62.94955305568874,54.818196414853446 62.69821372302249,52.227278276346624 62.32120472379029,51.0" stroke="#4dd2ff" stroke-linecap="round" stroke-linejoin="round" stroke-width="0.5"><title>2023-12-17 1.0km</title><desc>10391591057</desc></polyline><polyline fill="none" points="85.65093632647768,54.16902771452442 87.0527726043947,57.84509256517049 89.3891664003022,62.408472511102445 91.49192081624642,68.49296031869017 91.95919957570732,69.0 92.07601926568896,68.87324009358417 92.07601926568896,68.36620037502144 91.49192081624642,66.71832025947515 88.33778919186443,60.50706566812005 86.93595291441306,56.704245691304095 85.8845757059753,52.39437291189097 85.0668378775008,51.0" stroke="#4dd2ff" stroke-linecap="round" stroke-linejoin="round" stroke-width="0.5"><title>2023-12-16 1.0km</title><desc>10386207035</desc></polyline><polyline fill="none" points="108.99643899220973,54.383472079527564 109.49533795332536,56.684229540871456 111.24148431792855,61.96242696943227 112.23928224062547,63.58648467215244 113.61125438427553,68.05263596656732 113.98542860522866,69.0 114.23487808601931,69.0 114.23487808601931,67.64662266056985 112.36400698078796,61.96242696943227 109.74478743365034,57.90227644436527 109.62006269395351,56.27821372705512 108.87171425204724,54.383472079527564 109.12116373237222,53.16542284714524 108.6222647712566,51.0" stroke="#4dd2ff" stroke-linecap="round" stroke-linejoin="round" stroke-width="0.5"><title>2023-12-14 1.0km</title><desc>10376526598</desc></polyline><polyline fill="none" points="138.14924908056855,52.565225852653384 137.22200073022395,51.7826131277252 135.6765868118964,51.111801900318824 134.23420048877597,51.0 132.79181416518986,51.33540567557793 130.93731746356934,52.34162225795444 130.11309670750052,53.459639901760966 129.49493113998324,55.360268009011634 129.49493113998324,59.60872224404011 129.70098632900044,60.95033690426499 130.11309670750052,62.62735356413759 129.80401392374188,64.63977111433633 129.90704151801765,65.42237722000573 130.01006911229342,65.86958052788395 131.04034505831078,67.65839244425297 132.68878657044843,68.88819941575639 133.2039245427586,69.0 134.23420048877597,69.0 135.26447643339634,69.0 137.11897313548252,68.32919637009036 138.14924908056855,67.32299037033226 138.76741464808583,66.20498292252887 138.97346983710304,63.745363643043675 139.07649743184447,62.0683482165914 138.76741464808583,60.05592726240866 138.97346983710304,57.37269517919049 138.8704422423616,55.02486322144978 138.76741464808583,54.242251763120294 138.04622148629278,52.67702763737179 137.73713870253414,52.34162225795444 136.60383516317233,51.55900941800792 134.33722808305174,51.33540567557793 132.89484175946563,51.55900941800792 132.0706210033968,51.89441497018561 130.52520708553493,53.57144162082113 129.90704151801765,55.91927582328208 130.11309670750052,57.48449661070481" stroke="#4dd2ff" stroke-linecap="round" stroke-linejoin="round" stroke-width="0.5"><title>2023-12-13 1.0km</title><desc>10373769329</desc></polyline><polyline fill="none" points="154.9764635823667,53.552249595173635 156.21440275991336,58.65673809009604 157.45234193699434,61.34330525412224 159.92822029162198,68.328361393651 160.42339596245438,69.0 160.67098379787058,69.0 160.79477771557868,68.46268913464155 160.29960204474628,67.65672254085075 158.31889936095104,64.29852457169909 155.4716392531991,58.52240962779615 155.1002575000748,56.776138724409975 153.73852440528572,53.82090723980218 153.49093656986952,51.0" stroke="#4dd2ff" stroke-linecap="round" stroke-linejoin="round" stroke-width="0.5"><title>2023-12-12 1.0km</title><desc>10365882163</desc></polyline><polyline fill="none" points="176.49541033664718,51.0 177.7804265464656,53.788744695833884 179.53272137837484,58.225374688743614 180.81773758819327,60.63382618967444 182.6868520756252,66.46480010182131 182.92049138667062,67.98592048813589 183.38777000829577,69.0 183.50458966335282,68.11268045951147 183.27095035277307,67.09860042587388 180.81773758819327,61.52114957885351 179.06544275628403,58.09861399035435 178.59816413512453,56.704245691536926 178.24770516855642,53.788744695833884 177.3131479253061,51.126761220628396" stroke="#4dd2ff" stroke-linecap="round" stroke-linejoin="round" stroke-width="0.5"><title>2023-12-11 1.0km</title><desc>10361067591</desc></polyline><polyline fill="none" points="20.360617144498974,81.04350078164134 22.764731439296156,88.34782927564811 22.884937154129148,88.73913173889741 23.365760013461113,89.0 23.48596572736278,88.86956587433815 23.12534858379513,87.95652672543656 22.04349715076387,85.86957833555061 20.84144000336528,82.60871656169184 17.475679990835488,75.82610487437341 16.51403427263722,71.0" stroke="#4dd2ff" stroke-linecap="round" stroke-linejoin="round" stroke-width="0.5"><title>2023-12-10 1.0km</title><desc>10355395415</desc></polyline><polyline fill="none" points="39.68583279894665,72.1911820312962 41.75938168307766,75.50001687242184 42.73516939301044,79.60296362906229 44.80871827714145,85.42648490634747 45.54055905994028,88.60294311749749 46.02845291560516,89.0 46.1504263789393,88.86764771549497 46.1504263789393,88.60294311749749 45.90647945133969,87.5441243366804 43.34503671247512,82.38237386127003 42.73516939301044,80.92649284633808 42.369249001611024,78.67649259825703 41.75938168307766,76.95590227597859 40.78359397314489,75.23531030898448 40.66162050887942,73.3823632748099 39.563859335146844,71.0" stroke="#4dd2ff" stroke-linecap="round" stroke-linejoin="round" stroke-width="0.5"><title>2023-12-09 1.0km</title><desc>10350143310</desc></polyline><polyline fill="none" points="63.79547942522913,74.49255117913708 64.53824315033853,77.17912446556147 66.14756455412135,81.07464871532284 68.37585572805256,87.52239474025555 69.36620736122131,89.0 69.2424134076573,87.65672254085075 68.4996496825479,85.37314859370235 66.51894641621038,81.8806182127446 65.28100687498227,78.92539498396218 63.91927337972447,76.77613872475922 63.547891517169774,74.62687993713189 62.06236406741664,71.0" stroke="#4dd2ff" stroke-linecap="round" stroke-linejoin="round" stroke-width="0.5"><title>2023-12-08 1.0km</title><desc>10345303898</desc></polyline><polyline fill="none" points="85.6713605215773,71.0 85.90336596593261,71.6293738221284 86.3673768537119,73.26574467681348 86.59938229806721,75.5314863550011 87.06339318538085,77.41960212949198 88.6874312935397,81.44757549010683 89.73145579127595,85.09791816305369 90.7754802890122,87.36364418326411 91.0074857333675,89.0 91.23949117725715,88.87412653130013 91.4714966211468,88.62237956561148 91.4714966211468,88.24475904810242 90.89148301118985,86.7342761453474 89.035439459607,83.58743248344399 86.8313877414912,77.16785348008852 86.25137413199991,74.52449042350054" stroke="#4dd2ff" stroke-linecap="round" stroke-linejoin="round" stroke-width="0.5"><title>2023-12-07 1.0km</title><desc>10340288256</desc></polyline><polyline fill="none" points="108.08702490245923,71.0 108.80307058664039,72.68346103455406 110.11582100763917,78.25182068638969 112.02527616545558,81.74822356412187 113.57670848118141,86.02159543370362 114.29275416536257,88.74100849858951 114.65077700745314,89.0 114.77011795435101,88.09352957841475 114.53143606008962,86.92806692188606 112.62198090180755,82.91368964756839 111.30923048127443,80.97124574659392 110.59318479709327,79.5467855243478 108.20636585028842,71.38849115080666" stroke="#4dd2ff" stroke-linecap="round" stroke-linejoin="round" stroke-width="0.5"><title>2023-12-06 1.0km</title><desc>10334845031</desc></polyline><polyline fill="none" points="132.62687536142766,74.1034619655693 133.427694152575,78.20002302597277 134.2285129437223,81.17933391826227 136.17335857916623,86.2689778652275 137.20298273907974,88.62758815078996 137.54619079176337,89.0 137.08858005469665,86.76552767283283 135.94455320993438,84.65518998203333 134.91492905048653,81.67588522285223 133.427694152575,78.57243717496749 132.74127804581076,76.21381284378003 131.59725120151415,73.73104683100246 131.02523777913302,71.0" stroke="#4dd2ff" stroke-linecap="round" stroke-linejoin="round" stroke-width="0.5"><title>2023-12-05 1.0km</title><desc>10329306344</desc></polyline><polyline fill="none" points="153.8367795664817,72.51049678423442 154.6487986203283,73.7692430865718 155.6928231185302,77.41960212949198 157.7808721140027,82.58044129051268 158.8248966122046,86.10490787529852 159.7529183877632,88.11888552398887 160.4489347198978,89.0 160.4489347198978,88.37063256313559 157.4328639479354,81.44757549010683 156.27283672848716,77.54547644068953 154.9968067863956,74.6503649475053 154.06878501037136,71.0" stroke="#4dd2ff" stroke-linecap="round" stroke-linejoin="round" stroke-width="0.5"><title>2023-12-04 1.0km</title><desc>10324662812</desc></polyline><polyline fill="none" points="176.8737258380279,72.66154566861223 178.14975610887632,77.50771216268186 180.19140454102308,82.07694343582261 181.59503783797845,86.92308570316527 182.61586205428466,88.86153911822475 183.38148021604866,89.0 183.38148021604866,88.44615641166456 182.48825902771205,86.92308570316527 181.33983178436756,83.60001806344371 180.0638015139848,81.66155923262704 179.17058032471687,79.3077136843931 177.63934400025755,73.76924196642358 176.618519784417,71.0" stroke="#4dd2ff" stroke-linecap="round" stroke-linejoin="round" stroke-width="0.5"><title>2023-12-02 1.0km</title><desc>10313350310</desc></polyline><polyline fill="none" points="16.732589636929333,91.95454984041862 17.98928593005985,93.59091985307168 19.49732148181647,98.77274870162364 20.502678517252207,103.00001940899529 22.13638369832188,107.63636975188274 23.141740733291954,109.0 23.267410362605006,108.18182197131682 23.016071103978902,106.54546483117156 21.63370518060401,103.54547299188562 19.49732148181647,100.13638546620496 18.240625189151615,97.54547475650907 16.983928895089775,91.0" stroke="#4dd2ff" stroke-linecap="round" stroke-linejoin="round" stroke-width="0.5"><title>2023-12-01 1.0km</title><desc>10308709030</desc></polyline><polyline fill="none" points="39.53946366626769,91.0 42.02772305905819,99.55001980031375 44.515982451848686,104.65001455100719 45.89834878081456,108.40000255848281 46.313058679923415,109.0 46.4512953129597,108.55000193545129 45.89834878081456,107.05000766995363 43.82479928666726,104.20001552719623 43.2718527559191,102.70001806365326 41.1983032617718,98.65001940354705 40.23064683098346,94.0000110277906 39.26299040066078,91.30000130133703" stroke="#4dd2ff" stroke-linecap="round" stroke-linejoin="round" stroke-width="0.5"><title>2023-11-30 1.0km</title><desc>10303537703</desc></polyline><polyline fill="none" points="63.655038302298635,94.84829198836815 64.4558567404747,97.4551944816485 64.79906464228407,99.56554117088672 66.05749361589551,102.04829860525206 67.43032522406429,105.77242791187018 68.80315683130175,108.75172544328962 69.0319620994851,109.0 69.26076736720279,108.75172544328962 69.0319620994851,107.8827642062679 68.11674102768302,106.2689778652275 66.85831205407158,102.79312512371689 65.02786991000175,99.06898924615234 64.34145410638303,95.09656858979724 62.968622498214245,92.98621631483547 62.1678040609695,91.0" stroke="#4dd2ff" stroke-linecap="round" stroke-linejoin="round" stroke-width="0.5"><title>2023-11-29 1.0km</title><desc>10298007687</desc></polyline><polyline fill="none" points="85.46856530895457,93.33094561949838 86.78131515067071,96.69786162441596 87.01999693969265,99.15829617308918 88.69076946564019,103.17268200626131 89.64549662359059,106.79857102350798 90.48088288679719,108.48201695899479 91.31626914953813,109.0 91.67429183376953,109.0 91.91297362372279,108.61151273362339 91.79363272851333,108.09352957829833 91.31626914953813,107.18705868988764 89.40681483410299,102.13671234436333 87.49736051913351,97.73383448482491 87.13933783490211,95.66188815457281 86.30395157122985,93.20144872169476 85.2298835190013,91.0" stroke="#4dd2ff" stroke-linecap="round" stroke-linejoin="round" stroke-width="0.5"><title>2023-11-28 1.0km</title><desc>10292316108</desc></polyline><polyline fill="none" points="111.00593646941707,91.0 112.06252386886626,93.8662559457589 112.69647630862892,96.61785669741221 113.54174622800201,97.87900541932322 114.49267488764599,99.71340173971839 115.44360354728997,102.69429115857929 116.28887346666306,104.07008435309399 116.28887346666306,104.75798049510922 115.7605797671713,105.21657775470521 114.07003992795944,106.13377186935395 113.01345252851024,107.05096544418484 111.95686512906104,107.62421115464531 110.37198402965441,108.31210572912823 107.83617427106947,109.0 107.41353931091726,108.8853509761393 107.09656309103593,108.54140385333449 106.5682693910785,106.36307031358592" stroke="#4dd2ff" stroke-linecap="round" stroke-linejoin="round" stroke-width="0.5"><title>2023-11-27 1.0km</title><desc>10287544518</desc></polyline><polyline fill="none" points="132.54567332798615,94.90211396722589 133.12568698031828,96.2867329143919 134.51771974703297,103.33568474079948 136.0257552433759,106.98602338775527 136.8377743572928,108.370632563252 137.41778800962493,109.0 137.5337907401845,108.8741265310673 137.18578254897147,108.24475904798601 137.18578254897147,107.23777059407439 136.257760704495,105.09791816282086 135.21373612992465,101.57344950502738 134.1697115553543,99.43358999444172 133.47369517199695,95.40561189572327 131.5016487534158,92.25874741270673 131.03763783117756,91.0" stroke="#4dd2ff" stroke-linecap="round" stroke-linejoin="round" stroke-width="0.5"><title>2023-11-26 1.0km</title><desc>10281488289</desc></polyline><polyline fill="none" points="153.86531068757176,91.0 155.20308475056663,94.48388377402443 156.4070814079605,99.41937526513357 157.61107806582004,102.17743866576348 157.878632878419,103.91937146021519 158.54751991061494,105.51614183862694 160.01907138060778,108.27419672347605 160.68795841233805,109.0 160.95551322493702,109.0 158.94885212928057,104.64517633756623 158.68129731621593,103.19356631604023 157.34352325322106,101.30647169239819 154.66797512583435,94.04839863895904 153.3302010614425,91.58064772281796" stroke="#4dd2ff" stroke-linecap="round" stroke-linejoin="round" stroke-width="0.5"><title>2023-11-25 1.0km</title><desc>10275889695</desc></polyline><polyline fill="none" points="176.51178423129022,91.16822495521046 177.4419751027599,95.37384479888715 181.7828658381477,107.14953924051952 182.86808852106333,108.83177635679021 183.33318395726383,109.0 183.4882157696411,108.49532903218642 181.93789764959365,106.4766440478852 180.0775159066543,100.92525115737226 178.83726141043007,98.40188630030025 178.06210235133767,93.52337301988155 177.13191147893667,91.0" stroke="#4dd2ff" stroke-linecap="round" stroke-linejoin="round" stroke-width="0.5"><title>2023-11-24 1.0km</title><desc>10271180196</desc></polyline><polyline fill="none" points="17.7618844024837,113.00000823463779 18.156845978461206,114.14286915806588 19.07842298876494,119.00002058548853 21.316538587212563,125.85715487215202 22.369769456796348,128.71428701689 22.76473103230819,129.0 23.291346467100084,129.0 23.423000326380134,128.71428701689 23.159692608751357,127.28572146955412 21.711500163190067,123.14287544379476 17.89353826083243,114.85715689428616 16.576999674085528,111.0" stroke="#4dd2ff" stroke-linecap="round" stroke-linejoin="round" stroke-width="0.5"><title>2023-11-23 1.0km</title><desc>10265414399</desc></polyline><polyline fill="none" points="41.280078320298344,115.0563544301549 41.39689791575074,116.83100649237167 41.86417629709467,119.61974175705109 43.7332898224704,124.94367837370373 44.317387798801064,127.47888050868642 45.251944561488926,129.0 45.95286213327199,129.0 45.836042538285255,128.23944042192306 44.5510269892402,124.94367837370373 43.4996506315656,123.29579498723615 41.98099589254707,118.60565672838129 40.228701962158084,113.78874469583388 39.761423581279814,111.0" stroke="#4dd2ff" stroke-linecap="round" stroke-linejoin="round" stroke-width="0.5"><title>2023-11-21 1.0km</title><desc>10253878272</desc></polyline><polyline fill="none" points="63.776955583598465,115.86133173853159 64.38237124914303,119.8029423590051 66.92511704564095,126.24088767752983 68.0148652442731,128.6058413576102 68.37811464397237,129.0 68.62028091028333,128.86861379561014 68.74136404320598,128.6058413576102 68.25703151058406,126.50366046302952 66.07753511331975,121.77374440978747 65.22995318192989,119.27739477856085 63.898038716521114,114.15329776948784 63.171539917588234,112.83942437497899 62.687207384966314,111.0" stroke="#4dd2ff" stroke-linecap="round" stroke-linejoin="round" stroke-width="0.5"><title>2023-11-20 1.0km</title><desc>10248671423</desc></polyline><polyline fill="none" points="85.36685231607407,112.50000667187851 87.12622751481831,116.31819999893196 87.62890614382923,120.27274908765685 89.01127237128094,123.40910961094778 90.39363859873265,127.36364358162973 91.02198688406497,128.31818500091322 91.77600482665002,129.0 91.65033516986296,127.90909588139039 89.51395099982619,122.3182022041874 88.13158477237448,117.27274710254278 86.74921854445711,114.00001213059295 85.99520060187206,111.0" stroke="#4dd2ff" stroke-linecap="round" stroke-linejoin="round" stroke-width="0.5"><title>2023-11-19 1.0km</title><desc>10242265034</desc></polyline><polyline fill="none" points="107.93021684093401,127.03792825492565 108.71636393899098,124.56400697666686 109.0308227785863,123.9668527743197 109.58112574694678,123.62562166358111 112.25402588164434,123.2843904523179 114.21939362771809,122.85785129718715 114.8483113059774,122.34600410389248 115.24138485547155,121.83415668504313 115.71307311439887,119.70145667501492 115.55584369460121,119.01899184362264 115.87030253419653,118.50714295677608 115.63445840450004,114.5829606532352 115.47722898516804,114.07110980903963 115.39861427480355,112.53555592079647 115.24138485547155,111.5971608775435 114.37662304751575,111.34123482485302 113.66909065889195,111.85308687353972 113.82632007822394,111.5971608775435 113.9835494980216,111.85308687353972 112.96155827026814,111.34123482485302 112.88294356083497,111.0 112.64709943067282,111.17061742488295 112.80432885047048,111.0853087156429 112.25402588164434,111.76777821453288 112.33264059154317,111.6824695491814 113.9835494980216,112.53555592079647 113.59047594899312,112.87679029384162 112.96155827026814,113.13271600776352 111.46787878358737,113.38864166522399 111.38926407322288,113.04740744258743 111.78233762225136,112.87679029384162 112.33264059154317,112.96209887135774 113.9835494980216,111.34123482485302 116.26337608322501,111.4265435153502 116.02753195399418,111.25592612795299 115.71307311439887,111.17061742488295 115.47722898516804,115.26542809442617 115.55584369460121,116.45974515046692 115.79168782383204,117.90998563647736 115.94891724409536,120.38392110483255 115.94891724409536,121.23700107744662 115.71307311439887,122.0900804225821 115.24138485547155,122.60192772879964 111.31064936378971,123.02846697799396 109.50251103751361,123.36969826457789 108.55913451965898,124.05216053628828 107.45852858154103,125.58769917994505 106.82961090328172,127.80569585470948 106.59376677358523,129.0" stroke="#4dd2ff" stroke-linecap="round" stroke-linejoin="round" stroke-width="0.5"><title>2023-11-18 1.0km</title><desc>10236386505</desc></polyline><polyline fill="none" points="130.61257189838216,111.0 133.21931810909882,115.50001736893319 134.16722582140937,118.84287991863675 134.5226912139915,120.77145155961625 135.23362199869007,121.92859352345113 137.48490281635895,128.48571685689967 137.95885667344555,129.0 137.95885667344555,128.48571685689967 137.48490281635895,127.84286271536257 136.18152971146628,123.98573290230706 135.4705989267677,122.70002107415348 135.23362199869007,120.51430879719555 134.16722582140937,117.81430750666186 132.98234118055552,115.24287383153569 132.8638527165167,113.82858369813766" stroke="#4dd2ff" stroke-linecap="round" stroke-linejoin="round" stroke-width="0.5"><title>2023-11-17 1.0km</title><desc>10231268371</desc></polyline><polyline fill="none" points="153.9322000979446,111.58064772293437 155.6713059968315,114.04839863884263 156.07263812748715,117.38711555744521 157.2766345194541,120.00002051191404 159.14951779553667,126.96775015315507 160.3535141875036,129.0 160.21973681030795,127.8387146294117 159.28329517273232,125.95162444526795 158.61440828815103,124.0645324572688 157.54418927291408,119.56453659269027 155.40375124337152,115.06453047250398 154.73486435879022,113.03226628201082 154.33353222813457,111.0" stroke="#4dd2ff" stroke-linecap="round" stroke-linejoin="round" stroke-width="0.5"><title>2023-11-16 1.0km</title><desc>10225818993</desc></polyline><polyline fill="none" points="176.87852752860636,111.19354904140346 177.7703768061474,114.67742935777642 179.19733565021306,118.54840207961388 181.15940406080335,122.22582089412026 181.8728834828362,125.12904264521785 183.12147247139364,127.64516557333991 184.3700614599511,129.0 181.15940406080335,123.00001367391087 179.7324452167377,118.54840207961388 175.6299385400489,111.0" stroke="#4dd2ff" stroke-linecap="round" stroke-linejoin="round" stroke-width="0.5"><title>2023-11-15 1.0km</title><desc>10219684298</desc></polyline><polyline fill="none" points="16.81951958918944,133.16542284714524 18.44094097521156,135.19550445268396 18.690390419214964,137.7669379391009 20.561261249240488,142.23310335271526 21.68378374679014,146.02256853983272 22.806306244805455,148.86466231115628 23.30520513281226,149.0 23.1804804103449,147.37594707356766 21.55905902478844,145.21054094214924 20.93543541477993,143.31580848805606 19.93763763876632,142.09776516607963 19.563463472761214,140.60904445615597 17.69259264320135,136.81956812529825 17.068969033192843,134.11279454140458 16.69479486718774,131.0" stroke="#4dd2ff" stroke-linecap="round" stroke-linejoin="round" stroke-width="0.5"><title>2023-11-14 1.0km</title><desc>10213806154</desc></polyline><polyline fill="none" points="40.453028032090515,133.47827171022072 41.41467396263033,137.1304552895017 44.05920026963577,143.91306199040264 44.66022897558287,146.1304470184259 45.862286388874054,148.60869759391062 46.22290361253545,149.0 45.501669164747,147.695658311015 43.8187887868844,143.65219298156444 43.698583045974374,142.60871656169184 42.49652563314885,139.73915324313566 40.693439514841884,136.47828020178713 39.97220506705344,134.26088311010972 39.49138210201636,131.0" stroke="#4dd2ff" stroke-linecap="round" stroke-linejoin="round" stroke-width="0.5"><title>2023-11-13 1.0km</title><desc>10208522228</desc></polyline><polyline fill="none" points="63.7035713493824,133.04546334268525 64.96026782738045,136.86365554714575 66.4683036012575,140.000021835207 67.34799113636836,143.68183636269532 68.22767867101356,146.27273850084748 69.35870550153777,148.72727403056342 69.8613840918988,149.0 70.11272338824347,148.45454802096356 68.73035726184025,145.72728572005872 67.97633937560022,142.7272925573634 65.21160712325945,140.1363854664378 63.7035713493824,137.95456616173033 63.452232053503394,135.6363803385757 61.315848040394485,131.0" stroke="#4dd2ff" stroke-linecap="round" stroke-linejoin="round" stroke-width="0.5"><title>2023-11-12 1.0km</title><desc>10202270880</desc></polyline><polyline fill="none" points="85.84796138107777,134.35822241124697 88.81901649851352,141.07464871543925 89.80936820432544,144.4328526093159 90.79971991013736,147.11941128061153 91.41868972638622,148.32836139411665 92.03765954216942,149.0 92.16145350551233,148.4626891349908 91.0473078363575,145.10449264734052 88.94281046139076,141.880618212861 86.71451912354678,136.77613872487564 85.84796138107777,133.14926305413246 84.98140363767743,131.0" stroke="#4dd2ff" stroke-linecap="round" stroke-linejoin="round" stroke-width="0.5"><title>2023-11-11 1.0km</title><desc>10196068378</desc></polyline><polyline fill="none" points="109.75517974747345,133.68422009726055 111.79235222842544,139.84212411462795 113.6840123902075,144.8947501218645 114.55708630988374,148.21052947919816 115.13913559028879,149.0 115.43016023049131,148.6842118264176 114.99362327018753,146.78948180971202 112.81093846959993,141.89475486346055 110.62825366808102,137.31580665381625 107.71800726652145,132.73684868169948 107.42698262631893,131.0" stroke="#4dd2ff" stroke-linecap="round" stroke-linejoin="round" stroke-width="0.5"><title>2023-11-10 1.0km</title><desc>10191120477</desc></polyline><polyline fill="none" points="130.1069600507617,131.54962088621687 132.25965162692592,133.1984825761756 133.52594078937545,135.39696256595198 133.90582753811032,136.22139189543668 133.90582753811032,137.45803520805202 135.2987456158735,141.71757813193835 135.8052612808533,144.19085666537285 136.81829261081293,146.93894008581992 137.07155044283718,148.31298028095625 137.7046950245276,149.0 138.08458177233115,148.86259607644752 138.464468521066,148.31298028095625 137.07155044283718,147.35115225065965 134.79222995135933,144.0534523880342 132.13302271114662,136.77101124660112 131.4998781294562,132.64886217436288 130.86673354823142,131.0" stroke="#4dd2ff" stroke-linecap="round" stroke-linejoin="round" stroke-width="0.5"><title>2023-11-09 1.0km</title><desc>10185506531</desc></polyline><polyline fill="none" points="153.63144912105054,132.44526216865052 154.9633625089191,135.07300857105292 155.44769464898854,136.38688032352366 157.02177410805598,139.80294235935435 157.62718928372487,142.16790455882438 157.5061062485911,140.72265025309753 157.74827231932431,141.64235767372884 158.23260445985943,145.18979614810087 159.32235177699476,148.47445512423292 159.8066839184612,149.0 160.41209909459576,148.73722758109216 160.65426516486332,148.34306888096035 159.32235177699476,147.16059225820936 158.35368749545887,145.58395554404706 157.74827231932431,143.87593086762354 156.90069107245654,140.98542385036126 155.68986072018743,139.2773947789101 154.35794733231887,136.38688032352366 153.99469822645187,134.2846850559581 154.11578126158565,131.65693749429192 153.8736151913181,131.0" stroke="#4dd2ff" stroke-linecap="round" stroke-linejoin="round" stroke-width="0.5"><title>2023-11-08 1.0km</title><desc>10179505859</desc></polyline><polyline fill="none" points="179.1879807668738,140.9440793383401 183.2480769320391,149.0 183.4800824271515,148.87412653141655 182.90006868960336,147.4895177630242 181.85604396136478,145.72728680237196 181.16002747556195,143.96505402820185 179.76799450442195,142.45456734951586 179.3039835151285,141.57344950479455 178.95597527176142,138.55247059487738 178.72396977664903,137.6713507422246 177.3319368059747,135.27973742736503 176.5199175728485,131.0" stroke="#4dd2ff" stroke-linecap="round" stroke-linejoin="round" stroke-width="0.5"><title>2023-11-06 1.0km</title><desc>10167691585</desc></polyline><polyline fill="none" points="18.269556262996048,156.0503782769665 19.10494289500639,157.6043379106559 22.207807525992393,164.72663535596803 23.520557946991175,168.7410084985895 23.759239841718227,169.0 23.997921735979617,169.0 23.997921735979617,168.61151273350697 23.04319415707141,166.5395791985793 22.207807525992393,165.37411551410332 22.088466578628868,164.72663535596803 21.372420894447714,163.94965885241982 19.34362478926778,160.45326034456957 16.956805841997266,154.36692046013195 16.002078263554722,151.0" stroke="#4dd2ff" stroke-linecap="round" stroke-linejoin="round" stroke-width="0.5"><title>2023-11-05 1.1km</title><desc>10161301187</desc></polyline><polyline fill="none" points="39.49138284474611,151.0 41.895497139077634,156.3478451555129 42.97734857164323,161.04350078164134 44.66022857790813,164.30436543212272 45.261257152073085,166.9130528375972 45.86228572530672,169.0 46.222902869805694,168.60869759402703 46.10269715450704,168.21739510179032 44.5400228635408,165.34784085466526 44.419817148242146,164.95653764309827 42.97734857164323,162.7391511480091 42.37631999794394,160.65219662082382 40.813645706512034,157.78263013751712 40.45302856247872,155.30436443991493 39.731794273946434,152.69565996550955" stroke="#4dd2ff" stroke-linecap="round" stroke-linejoin="round" stroke-width="0.5"><title>2023-11-04 1.0km</title><desc>10155501797</desc></polyline><polyline fill="none" points="70.54354172199965,153.73419068823569 69.1787519804202,151.91139743244275 68.33888137061149,151.3417740999721 66.6591401505284,151.0 65.0843827566132,151.11392470856663 62.87972240475938,152.139246706618 61.93486796831712,153.05064346885774 61.09499735804275,154.759510952048 60.885029706172645,156.12660358159337 60.57007822720334,160.6835702988319 60.7800458795391,165.46837092377245 60.990013531874865,166.15191266383044 62.039851794950664,167.86076569382567 63.299657709896564,168.77215320582036 65.3993342355825,169.0 67.28904310800135,168.20253607374616 69.07376815471798,166.0379890614422 69.59868728602305,165.01267626299523 70.33357406966388,161.7088859624928 70.33357406966388,159.08863347244915 70.85849320096895,155.6709061722504 70.75350937480107,154.41773760621436 69.59868728602305,153.05064346885774 68.6538328495808,152.36709594738204 66.44917249772698,151.3417740999721 65.29435040894896,151.3417740999721 62.77473857905716,152.139246706618 61.61991648981348,153.16456802631728 60.885029706172645,154.53166206309106 60.67506205337122,155.44305741763674 60.885029706172645,159.20255758613348 60.67506205337122,160.9114182825433" stroke="#4dd2ff" stroke-linecap="round" stroke-linejoin="round" stroke-width="0.5"><title>2023-11-03 1.0km</title><desc>10152446508</desc></polyline><polyline fill="none" points="84.84606846375391,151.0 85.83012585015967,153.13560138468165 86.67360361060128,156.94916981831193 88.07939987815917,159.69493475090712 90.18809427786618,165.18645371461753 90.60983315808699,166.10170546243899 91.3127312916331,168.54237481567543 91.7344701718539,169.0 92.29678867850453,169.0 92.29678867850453,168.6949165549595 91.3127312916331,168.23729130346328 90.89099241187796,167.1694986578077 89.90693502454087,166.25424738100264 89.20403689146042,164.2712015635334 88.21997950412333,162.74578041420318 87.09534249082208,160.45764658704866 85.83012585015967,155.72882868233137 84.98664808971807,153.74577280506492" stroke="#4dd2ff" stroke-linecap="round" stroke-linejoin="round" stroke-width="0.5"><title>2023-11-02 1.1km</title><desc>10144903556</desc></polyline><polyline fill="none" points="108.36332547804341,152.30435396311805 108.60373692493886,153.73914221522864 109.56538271345198,155.95653995871544 111.24826284311712,161.9565434876131 114.13320020958781,167.95652672555298 114.97464027395472,169.0 114.49381738016382,167.4347898582928 112.69073152635247,164.6956687872298 111.72908573783934,161.17393548239488 110.52702850243077,159.47828362043947 109.08455981919542,156.34784515528008 107.88250258332118,151.0" stroke="#4dd2ff" stroke-linecap="round" stroke-linejoin="round" stroke-width="0.5"><title>2023-11-01 1.0km</title><desc>10138966680</desc></polyline><polyline fill="none" points="131.66649550898,151.27067799540237 132.2901190277189,153.3007616904797 133.2879166570492,158.71430726593826 134.90933780372143,162.23310335283168 135.90713543305174,165.48121684766375 137.52855658065528,169.0 137.6532812844962,168.8646623105742 136.53075895132497,167.24060926458333 134.90933780372143,163.45114658481907 133.5373660637997,161.01505931455176 131.16759669501334,153.84211696428247 130.91814728686586,151.0" stroke="#4dd2ff" stroke-linecap="round" stroke-linejoin="round" stroke-width="0.5"><title>2023-10-31 1.0km</title><desc>10133123337</desc></polyline><polyline fill="none" points="154.31668795458972,153.1333426652709 154.93107256107032,156.33335195819382 154.93107256107032,157.5333539872663 156.28271869430318,159.80002232000697 159.96902633132413,167.66667279333342 160.58341093780473,168.8666673231637 160.82916477974504,169.0 158.00299559161067,163.40001914394088 156.7742263795808,159.93335566332098 155.42258024588227,157.1333533989964 153.4565495061688,151.0" stroke="#4dd2ff" stroke-linecap="round" stroke-linejoin="round" stroke-width="0.5"><title>2023-10-30 1.0km</title><desc>10127985445</desc></polyline><polyline fill="none" points="177.1625133054331,153.60527560755145 177.70818382361904,157.27633863000665 178.0355861345306,158.46055072336458 180.21826820774004,163.5526528044138 181.30960924364626,166.5131698701298 182.94662079866976,168.76315920078196 183.38315721368417,169.0 183.4922913168557,168.6447387879016 182.510084384121,167.10527262999676 181.09134103683755,164.026335900533 178.58125665271655,159.40791977138724 177.5990497195162,155.97370432177559 176.83511099405587,154.43422605399974 176.72597689041868,152.06579507607967 176.5077086831443,151.0" stroke="#4dd2ff" stroke-linecap="round" stroke-linejoin="round" stroke-width="0.5"><title>2023-10-28 1.0km</title><desc>10115543824</desc></polyline><polyline fill="none" points="17.665338153019547,174.73334801755846 18.64835366792977,177.93335448706057 19.754246120806783,180.46668893785682 20.737261635717005,184.06668443838134 22.211784907616675,187.53334001882467 22.82616960350424,188.8666673237458 23.440554299857467,189.0 23.563431239686906,188.8666673237458 23.31767736049369,188.06667105830275 22.580415724776685,186.0666788512608 20.122876939363778,181.26668855571188 18.156845910008997,175.9333511054283 16.928076517302543,173.26667649880983 16.436568760313094,171.0" stroke="#4dd2ff" stroke-linecap="round" stroke-linejoin="round" stroke-width="0.5"><title>2023-10-27 1.0km</title><desc>10110442644</desc></polyline><polyline fill="none" points="40.41767304390669,173.77942351426464 42.735169366933405,181.58825709018856 43.5889838016592,183.9706063530175 44.44279823685065,185.42648490646388 45.41858616191894,188.20588614756707 45.784506633877754,188.7352954216767 46.51634757826105,189.0 46.638321068137884,188.60294311773032 46.51634757826105,188.07353380485438 45.29661267111078,186.48530493315775 43.46701031085104,183.3088429851923 41.27148747909814,176.82354910613503 39.807805590797216,174.44119038514327 39.07596464641392,171.0" stroke="#4dd2ff" stroke-linecap="round" stroke-linejoin="round" stroke-width="0.5"><title>2023-10-26 1.0km</title><desc>10104873905</desc></polyline><polyline fill="none" points="64.81274298671633,179.6087184365606 67.57747401902452,186.52174997131806 68.89973668660969,188.86956587433815 69.38055947422981,189.0 69.26035377802327,187.695658311015 66.01479995669797,182.0869781221263 64.21171450102702,177.52176022727508 62.64904043916613,174.26088311045896 62.04801195394248,171.0" stroke="#4dd2ff" stroke-linecap="round" stroke-linejoin="round" stroke-width="0.5"><title>2023-10-25 1.0km</title><desc>10098978222</desc></polyline><polyline fill="none" points="85.24164216406643,171.0 85.12055902229622,171.91971242427826 85.84705787478015,174.9416213426739 86.81572301173583,176.9124287540326 87.42113872151822,179.27739477867726 88.51088700070977,182.43067794316448 90.81146669946611,186.8978195694508 91.53796555195004,188.737227581325 91.78013183642179,189.0 92.02229812042788,188.8686137953773 91.901214978192,187.16059225809295 90.56930041546002,184.6642501518363 89.60063527943566,183.2189978651004 88.38980385800824,180.45987661753315 88.14763757446781,179.01462093077134 86.69463986903429,176.78104166104458 85.84705787478015,174.8102341046324 85.6048915903084,172.44526216841768 85.24164216406643,171.0" stroke="#4dd2ff" stroke-linecap="round" stroke-linejoin="round" stroke-width="0.5"><title>2023-10-24 1.0km</title><desc>10092835699</desc></polyline><polyline fill="none" points="109.57878756010905,174.1079268073663 111.36890098126605,180.45326034456957 112.20428724447265,182.0072160938289 113.15901440195739,185.89209946908522 114.59110513841733,188.4820169589948 115.187809612602,189.0 114.59110513841733,188.35252117482014 113.7557188756764,186.28058733535 111.60758277028799,183.69066660827957 111.13021919177845,182.7841934543103 110.65285561280325,179.80577837780584 109.22076487587765,176.9568548965035 108.26603771839291,173.9784299666062 107.66933324513957,171.0" stroke="#4dd2ff" stroke-linecap="round" stroke-linejoin="round" stroke-width="0.5"><title>2023-10-23 1.0km</title><desc>10087395010</desc></polyline><polyline fill="none" points="128.45795929501764,171.08633225236554 128.7761984753888,171.0 131.0436526357662,171.1726644920418 132.03815007442608,171.43166113487678 132.27682945970446,171.56115941354074 132.79396812804043,171.94965407782 133.15198720572516,172.3813145144959 133.94758515665308,173.8489576249267 134.34538413211703,175.4892602887703 134.862522800453,176.35257563943742 135.10120218549855,177.04322700586636 135.6581207511481,178.29503053677035 136.05591972684488,179.58999689779012 136.6526181900408,180.62596793007106 136.93107747286558,180.92812580347527 137.28909655078314,181.5324410837493 137.48799603851512,182.82740030408604 137.6073357311543,183.17272228054935 137.92557491129264,183.6475396664464 138.00513470661826,184.38134759839159 138.12447439925745,184.68350353906862 139.87478989129886,188.82734075089684 140.11346927657723,189.0 140.11346927657723,188.78417593060294 139.75545019865967,188.43885725463042 139.35765122342855,187.48922984837554 138.95985224773176,186.6690958525287 137.88579501397908,183.34538319258718" stroke="#4dd2ff" stroke-linecap="round" stroke-linejoin="round" stroke-width="0.5"><title>2023-10-22 1.5km</title><desc>10080655811</desc></polyline><polyline fill="none" points="154.27991430088878,171.0 154.91144581022672,171.45685924118152 153.77468909323215,171.27411558496533 155.54297731933184,173.5584074241924 155.71138572203927,174.10663621604908 155.5850794201251,174.56349317287095 154.9956500113476,174.88329284300562 154.827241608873,175.2030923484126 154.86934370943345,175.75131968891947 155.20616051438265,177.07620043179486 155.5850794201251,178.03559506835882 156.0061004261952,179.4975269040442 156.7639382374473,180.82239965925692 156.89024453936145,181.3249368618708 157.35336764599197,182.14726958947722 157.64808235061355,182.51275045255898 157.69018445094116,182.74117588269291 157.98489915556274,183.01528628816595 158.19540965859778,183.47213669511257 158.49012436298653,184.3401515429723 158.7848390673753,184.93405574030476 158.74273696681485,186.12186243198812 159.29006427479908,187.1726126128342 159.45847267727368,187.675144680019 159.7531873814296,188.22336101706605 160.25841258908622,188.86294613225618 160.51102519291453,189.0 159.54267687839456,187.62945996341296 159.33216637535952,186.89850404136814 158.9111453690566,185.98480792954797 158.74273696681485,185.3909047365305 158.19540965859778,184.6142612430849 157.73228655173443,183.28939657268347" stroke="#4dd2ff" stroke-linecap="round" stroke-linejoin="round" stroke-width="0.5"><title>2023-10-20 1.4km</title><desc>10069668027</desc></polyline><polyline fill="none" points="176.37802091496997,171.0 176.46374823059887,171.69768395990832 177.14956675539725,173.3721223237808 177.32102138688788,174.39538803097093 178.7355220944155,177.83726962580113 178.86411306774244,178.302387323929 178.94984038360417,179.0000632299343 179.12129501462914,179.46518007316627 180.15002280217595,180.90704011387425 180.7072503536474,182.02331659808988 181.050159616163,183.13959111261647 181.35020522098057,183.7442389856442 181.52165985223837,184.67446535412455 181.7359781411942,185.13957802538062 182.29320569266565,186.58142513339408 182.37893300829455,187.13955861562863 183.19334250688553,188.81395610782783 183.40766079584137,189.0 183.5362517691683,189.0 183.6219790847972,188.95348903205013 183.57911542709917,188.9069780607242 182.721842271043,187.83722477586707 182.33606935059652,186.5349139876198 181.52165985223837,185.04655551846372 181.3930688786786,184.44190889014862 181.3073415630497,183.41865943354787" stroke="#4dd2ff" stroke-linecap="round" stroke-linejoin="round" stroke-width="0.5"><title>2023-10-19 1.3km</title><desc>10064004415</desc></polyline><polyline fill="none" points="15.941137907095253,191.0 17.70586055610329,193.29788272990845 17.5882123792544,194.95746281044558 17.823508732486516,196.61704130494036 18.64704596903175,199.55321475525852 19.823527734726667,201.46810780919623 21.000009500887245,204.7872507669963 23.35297303367406,208.61702321912162 23.705917563289404,209.0 24.058862092904747,208.87234108219855 22.529435796663165,207.3404333399376 19.70587955834344,201.8510861665709 18.999990498647094,199.4255551431561 16.99997149594128,195.21278268191963" stroke="#4dd2ff" stroke-linecap="round" stroke-linejoin="round" stroke-width="0.5"><title>2023-10-18 1.0km</title><desc>10058081424</desc></polyline><polyline fill="none" points="39.71540189255029,192.09091406327207 40.72075900109485,197.95456616184674 43.35982141178101,204.9091062474763 45.119196351617575,208.59091103076935 45.87321418337524,209.0 46.25022309925407,209.0 46.501562376040965,208.4545480213128 45.621874906588346,207.36364358162973 44.49084815895185,205.59092249977402 42.98281249590218,202.31820220442023 42.354464303236455,200.4091126989806 39.71540189255029,195.09092442982364 39.464062615763396,194.27274026570376 39.21272333851084,191.0" stroke="#4dd2ff" stroke-linecap="round" stroke-linejoin="round" stroke-width="0.5"><title>2023-10-17 1.0km</title><desc>10051702317</desc></polyline><polyline fill="none" points="61.69478947669268,191.41538655466866 62.970820028334856,193.63077996543143 64.88486585579813,198.61540561076254 65.90569029701874,200.55386757676024 67.0541177932173,204.15386307716835 68.4577514003031,207.75385169649962 68.96816362114623,208.72307822608855 69.60617889650166,209.0 69.73378195194528,208.86153911834117 69.60617889650166,208.44615641143173 68.20254528988153,206.36924150353298 66.28849946288392,201.66155923274346 64.88486585579813,198.75386724586133 63.73643835959956,193.3538559313165 63.09842308331281,191.0" stroke="#4dd2ff" stroke-linecap="round" stroke-linejoin="round" stroke-width="0.5"><title>2023-10-16 1.0km</title><desc>10046279660</desc></polyline><polyline fill="none" points="84.88511808868498,191.0 85.41173387272283,192.14286210003775 85.93834965582937,194.71429936750792 87.12323516793549,198.71430613135453 88.7030825172551,201.14287764916662 90.5462377583608,208.00000437430572 91.20450748782605,208.71428701665718 92.12608510814607,209.0 92.25773905450478,208.71428701665718 92.12608510814607,207.8571478142403 90.41458381293342,205.42858468799386 89.49300619214773,202.57144771213643 88.43977462593466,200.85716351040173 85.93834965582937,195.0000144095393 85.01677203504369,191.0" stroke="#4dd2ff" stroke-linecap="round" stroke-linejoin="round" stroke-width="0.5"><title>2023-10-15 1.0km</title><desc>10039610121</desc></polyline><polyline fill="none" points="107.68280349904671,192.3064571354771 108.08413577685133,196.51614647032693 109.15435518557206,199.5645365928067 110.49212944600731,201.45163288107142 111.29479400254786,204.06453245715238 113.56901024514809,208.12903603585437 114.1041199490428,208.70967872138135 114.77300707995892,209.0 115.17433935776353,208.70967872138135 115.17433935776353,208.2741967231268 112.49879083642736,206.0967852922622 110.7596842981875,202.9032441836316 110.0907971682027,200.1451817966299 108.4854680551216,196.51614647032693 107.68280349904671,193.4677516417578 107.8165809251368,191.5806477224687 107.68280349904671,191.0" stroke="#4dd2ff" stroke-linecap="round" stroke-linejoin="round" stroke-width="0.5"><title>2023-10-14 1.0km</title><desc>10033377496</desc></polyline><polyline fill="none" points="130.20444256579503,191.28571558836848 132.57421324169263,194.1428691581823 132.83752109482884,196.2857315784786 135.07563784439117,203.14287544356193 137.18210066761822,208.14286092377733 137.84037029976025,209.0 138.36698600556701,209.0 138.36698600556701,208.5714305093279 138.23533207876608,208.14286092377733 137.05044674081728,207.2857214693213 135.73390747699887,204.85715762886684 134.2857142854482,200.28573510737624 131.65263575688004,194.42858428391628 131.25767397740856,192.42857752018608 130.59940434480086,191.0" stroke="#4dd2ff" stroke-linecap="round" stroke-linejoin="round" stroke-width="0.5"><title>2023-10-13 1.0km</title><desc>10028006924</desc></polyline><polyline fill="none" points="153.28067434672266,191.0 154.5469637881033,192.6488621745957 155.3067374532111,194.0229128751671 155.43336639739573,195.80917727621272 155.3067374532111,197.73284472187515 156.69965583831072,200.6183421780588 158.34583211224526,205.0152821157826 159.9920083861798,208.03817232279107 160.3718952187337,208.58778819919098 161.0050399391912,209.0 161.0050399391912,208.31298028118908 159.6121215536259,206.5267278305255 158.34583211224526,204.32826093258336 156.69965583831072,199.79391478805337 155.68662428529933,198.007654195535 155.18010850902647,196.4962015914498" stroke="#4dd2ff" stroke-linecap="round" stroke-linejoin="round" stroke-width="0.5"><title>2023-10-12 1.0km</title><desc>10021974100</desc></polyline><polyline fill="none" points="177.89550185156986,193.5522495948244 178.39067788608372,196.23882426461205 178.26688387757167,197.31345302646514 179.38102995604277,200.9403204311384 180.2475880170241,202.5522591888439 181.1141460784711,205.50747655145824 182.35208616545424,208.46268913452514 182.59967418340966,208.73134458682034 183.2186442273669,209.0 183.09485021792352,208.46268913452514 181.73311612196267,204.97016465931665 180.2475880170241,202.41793101315852 178.26688387757167,197.85076717019547 177.7717078421265,196.1044956248952 177.5241198251024,193.5522495948244 176.7813557726331,191.0" stroke="#4dd2ff" stroke-linecap="round" stroke-linejoin="round" stroke-width="0.5"><title>2023-10-10 1.0km</title><desc>10009069592</desc></polyline><polyline fill="none" points="16.95066273305565,213.2500098424498 17.804477167781442,215.6323701395886 18.658291602507234,218.80884563201107 20.487893962766975,222.7794321157271 21.95157585060224,227.80882909044158 22.80539028532803,229.0 23.04933726694435,228.60294311773032 23.171310757286847,227.14706713322084 22.317496322561055,224.63236947765108 20.487893962766975,221.4559042607434 18.414344621356577,215.6323701395886 17.804477167781442,212.98530294792727 16.828689242247492,211.0" stroke="#4dd2ff" stroke-linecap="round" stroke-linejoin="round" stroke-width="0.5"><title>2023-10-09 1.0km</title><desc>10003389142</desc></polyline><polyline fill="none" points="39.192264277953655,211.0 40.092409894336015,212.11628403502982 40.992555510718375,214.20931483071763 41.506924433633685,218.3953694977099 43.43580789677799,222.58141493203584 45.10750689776614,227.3255885966355 45.8790602828376,228.7209315354703 46.52202143706381,229.0 46.52202143706381,227.88372589554638 44.0787690510042,223.97676135855727 40.86396327987313,216.1628081573872 39.57804097048938,211.13953554059844" stroke="#4dd2ff" stroke-linecap="round" stroke-linejoin="round" stroke-width="0.5"><title>2023-10-08 1.0km</title><desc>9996447828</desc></polyline><polyline fill="none" points="63.40375981479883,214.60001482162625 63.99620235338807,216.78573449037503 65.77352996822447,221.54287962068338 66.3659725068137,223.60001945286058 68.26178862899542,228.35714604717214 68.85423116758466,229.0 68.97271967492998,228.48571685678326 68.97271967492998,227.97143356245942 66.72143802978098,223.98573290207423 65.65504146087915,221.67145093088038 63.75922533776611,216.01430433080532 63.16678279917687,213.05715223390143 62.455851753242314,211.0" stroke="#4dd2ff" stroke-linecap="round" stroke-linejoin="round" stroke-width="0.5"><title>2023-10-07 1.0km</title><desc>9989974159</desc></polyline><polyline fill="none" points="87.10082679614425,216.36172163987067 88.04201193200424,219.42555514350533 88.74790078448132,220.9574698683573 90.1596784889698,226.95745619398076 90.51262291474268,228.10638738039415 91.21851176721975,229.0 91.80675247684121,229.0 92.0420487606898,228.48936427361332 91.92440061923116,228.10638738039415 90.51262291474268,226.06384252291173 89.10084521025419,223.00002073205542 88.63025264255702,220.9574698683573 86.15964166028425,214.95746281091124 85.80669723404571,212.78724238602445 85.1008083820343,211.0" stroke="#4dd2ff" stroke-linecap="round" stroke-linejoin="round" stroke-width="0.5"><title>2023-10-06 1.0km</title><desc>9984428862</desc></polyline><polyline fill="none" points="107.55341079365462,211.0 109.59296902269125,216.45903345034458 110.95267450856045,221.0328068000963 113.26417383458465,226.78689395042602 114.21596767473966,228.7049193349667 114.62387932045385,229.0 115.16776151489466,229.0 115.30373206315562,228.7049193349667 114.89582041697577,227.96721748064738 113.26417383458465,225.60656972648576 112.31237999442965,223.6885413810378 110.68073341110721,219.40985615958925 110.00088066840544,217.19673953438178 108.0972929885611,213.65574785752688 108.0972929885611,212.32787436805665" stroke="#4dd2ff" stroke-linecap="round" stroke-linejoin="round" stroke-width="0.5"><title>2023-10-04 1.0km</title><desc>9971682885</desc></polyline><polyline fill="none" points="131.5613437895663,213.10219913115725 132.16675945511088,215.20439578976948 132.77217512065545,216.64965455804486 133.25650765374303,218.8832339918008 135.55708718346432,223.48177109507378 135.67817031685263,225.05840966361575 136.40466911625117,228.21168262825813 136.64683538209647,228.6058413576102 137.373334181495,229.0 137.373334181495,227.68613752059173 135.7992534507066,224.79563666554168 134.70950525207445,222.29929125588387 134.10408958559856,221.11681063415017 133.49867391958833,219.40878168831114 132.2878425884992,216.912428754149 131.8035100554116,214.9416213426739 131.5613437895663,212.97081175807398 131.19809438986704,211.0" stroke="#4dd2ff" stroke-linecap="round" stroke-linejoin="round" stroke-width="0.5"><title>2023-10-03 1.0km</title><desc>9965060084</desc></polyline><polyline fill="none" points="153.8525957004167,211.7438048243057 155.49772642133757,217.09919148962945 155.77191487513483,219.47935879125725 156.7315744627267,220.66944139194675 157.41704559652135,222.45456398068927 158.65089363697916,227.06612337986007 159.61055322457105,228.55372094386257 160.29602435836568,229.0 160.43311858549714,228.8512403254863 160.0218359050341,227.6611625365913 158.51379941077903,224.83472498285118 156.04610332846642,218.88431722810492 154.53806683421135,214.42149992857594 154.26387838087976,211.0" stroke="#4dd2ff" stroke-linecap="round" stroke-linejoin="round" stroke-width="0.5"><title>2023-10-02 1.0km</title><desc>9958643020</desc></polyline><polyline fill="none" points="177.146795372013,214.16801199468318 177.41220975574106,215.46401542495005 180.33176798000932,222.37601923558395 181.79154709167778,226.84000873356126 182.58779024379328,228.4240025616018 183.3840333954431,229.0 183.51674058800563,228.85600065614562 183.3840333954431,228.2800031756051 180.72988955536857,224.2480160703417 178.20845290785655,218.0560197121231 177.01408817991614,214.31201241828967 176.48325941199437,211.0" stroke="#4dd2ff" stroke-linecap="round" stroke-linejoin="round" stroke-width="0.5"><title>2023-10-01 1.0km</title><desc>9952075403</desc></polyline><polyline fill="none" points="17.415576563216746,233.60870696778875 18.497428234666586,235.8261048743734 18.97825119877234,238.04350000969134 19.338868422899395,240.1304576053517 21.14195454167202,245.21740646020044 22.70462917815894,248.47826343949419 23.425863625016063,249.0 23.666275108233094,248.60869759391062 21.262160283513367,244.95653764309827 20.180308612063527,242.47828196594492 19.819691387936473,241.17393548239488 18.13681101053953,237.52176022715867 17.175165080465376,233.47827171022072 16.333724891766906,231.0" stroke="#4dd2ff" stroke-linecap="round" stroke-linejoin="round" stroke-width="0.5"><title>2023-09-30 1.0km</title><desc>9945549317</desc></polyline><polyline fill="none" points="40.070293464232236,231.0 41.264657489955425,233.0160082259681 41.662778831552714,234.60001323360484 42.72443574294448,237.19201866455842 43.25526419933885,241.0800203795079 43.6533855414018,242.23201940534636 45.24587090825662,246.12001111591235 45.64399225031957,248.56800193735398 45.90940647851676,248.85600065637846 46.307527820114046,249.0 46.44023493397981,248.7120013020467 44.05150688299909,244.39201575319748 42.459021515678614,240.64802057005 41.9281930597499,238.48802009352949 40.070293464232236,234.16801199526526 39.274050780106336,231.57600256206933" stroke="#4dd2ff" stroke-linecap="round" stroke-linejoin="round" stroke-width="0.5"><title>2023-09-28 1.0km</title><desc>9933629332</desc></polyline><polyline fill="none" points="62.19553324673325,233.04546334245242 63.20089109474793,236.5909277930623 65.08593705901876,239.1818398362957 66.34263436915353,243.81819972326048 68.10201060259715,246.9545542517444 68.60468952683732,248.72727403056342 69.10736845014617,249.0 69.35870791273192,248.59091103065293 69.10736845014617,248.04545893135946 68.10201060259715,246.6818279812578 65.21160678984597,240.81820347253233 63.70357001805678,236.72729167481884 62.069863515906036,231.0" stroke="#4dd2ff" stroke-linecap="round" stroke-linejoin="round" stroke-width="0.5"><title>2023-09-27 1.0km</title><desc>9927137811</desc></polyline><polyline fill="none" points="90.06674993829802,231.0 89.70787281007506,232.73079315607902 89.34899568208493,233.72599691554205 89.06986902700737,234.93754704669118 87.43498433264904,238.35583575541386 86.59760436741635,239.78372262767516 86.43810342159122,240.38949176907772 86.51785389427096,240.86545280006249 86.71723007666878,241.55775906681083 87.31535862316377,243.02890717971604 87.5147348055616,243.4183281234 87.7539862242993,244.11063138698228 88.55149095319211,245.10581590171205 88.91036808118224,245.88465478277067 89.30912044574507,246.49041764438152 89.62812233739533,247.3557920793537 90.10662517463788,248.00482207047753 90.7047537213657,249.0" stroke="#4dd2ff" stroke-linecap="round" stroke-linejoin="round" stroke-width="0.5"><title>2023-09-26 1.0km</title><desc>9920397094</desc></polyline><polyline fill="none" points="111.34450979158282,231.0 110.55993451434188,233.61488918599207 109.77535923710093,235.01354744983837 109.04682505084202,235.92571460851468 108.65453741233796,236.65544761100318 108.48641413869336,237.38517996965675 108.54245522944257,238.29734451253898 108.82266068598256,239.02707542252028 109.49515378079377,240.06085977627663 109.77535923710093,241.0946428378229 110.33577014924958,242.43247782281833 111.40055088279769,243.77031064400217 113.19386580237187,247.4189346122439 114.37072871834971,249.0" stroke="#4dd2ff" stroke-linecap="round" stroke-linejoin="round" stroke-width="0.5"><title>2023-09-25 1.0km</title><desc>9914573673</desc></polyline><polyline fill="none" points="135.6127631792333,231.0 135.17041354812682,231.67200891877292 135.08194362185895,232.00801311869873 135.17041354812682,232.4400182645768 135.21464851126075,232.8720231244224 134.32994924881496,234.50403890397865 134.1087744331453,235.60804726480274 133.79912969167344,236.42405224451795 131.941261240514,239.68806196353398 131.89702627738006,240.07206203386886 132.07396612968296,240.8400614973507 132.5605507241562,241.6080600572168 132.8259605029598,242.2800580559997 133.22407517093234,242.95205536298454 133.445249986602,243.62405197828775 134.02030450711027,244.53604627848836 134.46265413798392,245.44803930463968 134.94923873269,245.9760346848634 135.08194362185895,246.45603011449566 135.39158836379647,246.8400262040086 136.0551128105726,247.99201311788056 136.54169740481302,248.5200064406381 136.67440229421481,249.0" stroke="#4dd2ff" stroke-linecap="round" stroke-linejoin="round" stroke-width="0.5"><title>2023-09-24 1.0km</title><desc>9907510217</desc></polyline><polyline fill="none" points="157.8138985708356,231.0 157.43811537115835,231.5825306751649 157.16969880019315,232.1650609219796 157.00864885747433,232.9223496025661 156.9549655430019,233.9126490924391 156.04234920092858,235.13595851819264 155.50551605853252,236.53402412019204 155.02236623037606,237.23305599595187 154.70026634493843,238.16509753774153 154.646583030466,239.15539047430502 155.77393262973055,242.00975730718346 156.2033991436474,242.8835410165484 157.59916531411,245.09712210064754 158.18968177051283,246.5534220727859 158.94124817010015,247.4854526500567 159.370714684017,248.24272668687627 159.63913125544786,249.0" stroke="#4dd2ff" stroke-linecap="round" stroke-linejoin="round" stroke-width="0.5"><title>2023-09-23 1.0km</title><desc>9901004991</desc></polyline><polyline fill="none" points="180.69117305218242,231.0 180.33278702525422,231.6666743136011 179.97440099832602,232.83335294673452 179.15523293660954,234.5555895413272 178.33606487489305,235.7222637136001 177.61929282103665,237.66671666427283 177.5680948169902,238.72227474185638 177.6704908250831,239.33338663936593 178.69445090182126,241.7778292860603 178.84804491349496,242.5000494637643 179.05283692874946,242.88893696578452 179.76960898260586,243.77782193332678 180.33278702525422,244.88892667199252 180.79356905980967,246.05558488948736 181.56153911771253,247.16668627905892 182.43190518324263,249.0" stroke="#4dd2ff" stroke-linecap="round" stroke-linejoin="round" stroke-width="0.5"><title>2023-09-22 1.0km</title><desc>9895405405</desc></polyline><polyline fill="none" points="20.954184789210558,251.0 20.80738712917082,251.53097987367073 20.513791809789836,251.84956761042122 19.877668616827577,253.01772144268034 19.633005850482732,253.86728667921852 18.899017550982535,255.72570714971516 18.11609669867903,257.3186351749464 17.626771165523678,258.48678016033955 17.47997350571677,259.07085194438696 17.47997350571677,259.44253374281107 17.626771165523678,259.9735074087512 17.920366485370323,260.5044806843507 18.556489678332582,262.1504953575786 19.19261287082918,263.3186325269635 19.535140743711963,264.16818564524874 20.17126393644139,265.2301256377832 20.562724362593144,265.7079981250572 20.85631968243979,266.5575484325527 21.639240534976125,267.9380655508139 22.5200264940504,269.0" stroke="#4dd2ff" stroke-linecap="round" stroke-linejoin="round" stroke-width="0.5"><title>2023-09-21 1.0km</title><desc>9889267953</desc></polyline><polyline fill="none" points="44.689766669180244,251.0 44.04740368342027,252.9271348346956 43.6695431037806,254.4442362957052 43.064966175705194,255.71531812573085 42.34703107411042,257.84744888261775 41.10009116050787,260.184582846734 40.7600166387856,261.4556515922013 40.79780269647017,261.7426667143882 41.02451904444024,262.3576986216649 41.51573779853061,263.42375232084305 41.81802626233548,264.32579616687144 42.57374742208049,265.3918461037101 43.027180118020624,266.2528849497321 43.29168252367526,266.86791188293137 43.593970987480134,267.4009346763487 44.0851897415705,267.76995015799184 44.689766669180244,268.6719869741064 44.727552727330476,268.8359935111657 44.954269075300545,269.0" stroke="#4dd2ff" stroke-linecap="round" stroke-linejoin="round" stroke-width="0.5"><title>2023-09-20 1.0km</title><desc>9882714971</desc></polyline><polyline fill="none" points="67.20678874128498,251.0 66.82300224876963,251.97173551184824 66.09807220706716,254.10029377049068 66.05542926350608,254.79438729817048 65.79957160167396,255.16457019996597 65.50107099651359,255.85866255377186 65.33049922180362,256.506481393415 64.98935567284934,257.3856630375376 64.00856796931475,258.9589323879336 63.75271030748263,259.8843831096892 63.667424420360476,260.7172875957913 63.75271030748263,261.55019097944023 64.00856796931475,262.47563789068954 64.30706857447512,263.1234499189886 65.24521333444864,264.74297707213555 65.7142857145518,265.39078676642384 66.14071515062824,266.5475881336024 66.5671445869375,267.2879398926161 66.99357402301393,267.889475055621 67.46264640288427,268.35219402058283 67.7611470085103,269.0" stroke="#4dd2ff" stroke-linecap="round" stroke-linejoin="round" stroke-width="0.5"><title>2023-09-19 1.0km</title><desc>9876194288</desc></polyline><polyline fill="none" points="88.43893519323319,251.0 88.12095108581707,251.51757766940864 87.5909775737673,252.5527319808025 87.43198552005924,253.24283409374766 86.4780331980437,254.91057835303945 85.73607028089464,256.46330257016234 85.57707822718658,257.03838483133586 85.63007557857782,257.6709748299909 85.94805968599394,258.47608863416826 86.4250358468853,259.3387096473016 86.84901465685107,260.5463774675154 87.43198552005924,261.81155127921375 88.06795373465866,262.96170751401223 88.6509245983325,263.70930815977044 89.33989016409032,264.85946160397725 89.76386897382326,266.182135974057 90.50583189120516,267.3322857822059 90.8768133497797,268.36741916363826 91.56577891577035,269.0" stroke="#4dd2ff" stroke-linecap="round" stroke-linejoin="round" stroke-width="0.5"><title>2023-09-18 1.0km</title><desc>9870505463</desc></polyline><polyline fill="none" points="111.60943916300312,251.0 111.35105668520555,251.5046786859748 110.98932121624239,253.18693856027676 110.52423275611363,253.97199189837556 110.31752677378245,254.58881895412924 109.18064387119375,256.43929712829413 108.76723190676421,257.4486469672411 108.50884942873381,258.3458457023953 108.715555411065,258.9626692206948 109.85243831342086,261.4299583049142 110.42087976494804,262.3271523566218 110.83429172937758,263.2804198800004 111.50608617183752,264.17761175491614 111.86782164103352,264.79443055659067 112.33291010092944,266.2523639231222 114.34829342830926,269.0" stroke="#4dd2ff" stroke-linecap="round" stroke-linejoin="round" stroke-width="0.5"><title>2023-09-16 1.0km</title><desc>9856514700</desc></polyline><polyline fill="none" points="134.03689167601988,251.0 133.4839525432326,252.68001679936424 132.76513167074881,253.82002622907748 131.27219601208344,256.7000429572654 131.21690209885128,257.36004535935353 131.27219601208344,258.1400475098053 131.60395949194208,258.92004891473334 132.15689862472937,259.76004959398415 132.65454384405166,260.9000491327606 133.53924645646475,262.4000460996176 134.64512472227216,264.50003722141264 134.75571254873648,265.2800325474236 135.14276994159445,265.58003055123845 135.5851212479174,266.18002622795757 136.3039421204012,267.38001625816105 137.07805690611713,268.04001002263976 137.24393864604644,268.46000577666564 137.3545264727436,269.0" stroke="#4dd2ff" stroke-linecap="round" stroke-linejoin="round" stroke-width="0.5"><title>2023-09-15 1.0km</title><desc>9850671982</desc></polyline><polyline fill="none" points="157.6004613705445,251.0 156.68525291536935,253.4207119922503 155.6556434032973,254.91037746024085 155.1980391757097,255.7172784911818 154.51163283432834,257.4552165536443 154.340031248983,258.07590785168577 154.340031248983,258.57246056129225 154.51163283432834,259.193151037849 155.1980391757097,261.05521972937277 155.82724498864263,262.29659657517914 157.37165925698355,264.96555061248364 158.00086506968364,266.14485319692176 158.11526612658054,266.82760657178005 158.57287035416812,267.26208570454037 159.31647722399794,268.44138508086326 159.94568303693086,269.0" stroke="#4dd2ff" stroke-linecap="round" stroke-linejoin="round" stroke-width="0.5"><title>2023-09-14 1.0km</title><desc>9844236351</desc></polyline><polyline fill="none" points="177.13924675201997,251.0 177.46854208991863,251.26799398573348 177.59202784160152,251.535987853189 177.6743516761344,252.11664082697826 177.92132317950018,252.60796214069705 178.08597084856592,253.99259279557737 178.08597084856592,254.66257423744537 178.00364701403305,255.01989737094846 178.08597084856592,255.46655099239433 178.29178043454885,256.00253490457544 178.2094566002488,256.4491878034314 178.25061851739883,256.6725141296629 178.66223768983036,257.4318230249919 179.03269494511187,258.54845202929573 179.3619902827777,259.17376337520545 179.77360945520923,259.7544090486481 180.22639054479077,260.1563941896311 180.34987629647367,260.42438413598575 180.4733620483894,261.00502861407585 180.80265738628805,261.5856725371559 181.17311464133672,262.6576290910598 181.6670576480683,263.5955895241932 181.91402915143408,264.39955445716623 182.0375149033498,265.0695244217641 182.2844864067156,265.6054998616455 182.73726749629714,267.0794298829278 183.35469625494443,268.2407055631047 183.39585817232728,268.41936316300416 183.35469625494443,268.5533563285135 182.86075324798003,269.0 183.10772475157864,268.8213425707654 183.23121050326154,268.5533563285135 183.31353433756158,268.330034369661 183.2723724206444,268.0173834892921 183.02540091704577,267.70473244803725 182.2844864067156,266.0968102659681 181.91402915143408,264.89086583675817 181.1319527241867,263.14894187945174 180.7614954689052,261.45167783496436 180.55568588292226,260.96036367397755 179.77360945520923,259.9330691441428 178.99153302772902,258.45912178448634 178.6210757724475,257.2531621938688 178.49759002099745,256.4491878034314 178.16829468286596,255.60054701479385 177.50970400730148,254.1712545856717 177.34505633823574,253.50127260189038 176.7687894969713,252.4292998908204 176.64530374505557,251.84864721581107 176.60414182790555,251.1339970076806" stroke="#4dd2ff" stroke-linecap="round" stroke-linejoin="round" stroke-width="0.5"><title>2023-09-13 1.0km</title><desc>9837636972</desc></polyline></svg>