<?xml version="1.0" encoding="utf-8" ?>
<svg baseProfile="full" height="300mm" version="1.1" viewBox="0,0,200,300" width="200mm" xmlns="http://www.w3.org/2000/svg" xmlns:ev="http://www.w3.org/2001/xml-events" xmlns:xlink="http://www.w3.org/1999/xlink"><defs /><rect fill="#222222" height="300" width="200" x="0" y="0" /><text fill="#FFFFFF" style="font-size:12px; font-family:Arial; font-weight:bold;" x="10" y="20">Over 1km Runs</text><text fill="#FFFFFF" style="font-size:4px; font-family:Arial" x="10" y="280">ATHLETE</text><text fill="#FFFFFF" style="font-size:9px; font-family:Arial" x="10" y="290">Jiakai</text><text fill="#FFFFFF" style="font-size:4px; font-family:Arial" x="120" y="280">STATISTICS</text><text fill="#FFFFFF" style="font-size:3px; font-family:Arial" x="120" y="285">Number: 45</text><text fill="#FFFFFF" style="font-size:3px; font-family:Arial" x="120" y="290">Weekly: 5.6</text><text fill="#FFFFFF" style="font-size:3px; font-family:Arial" x="141" y="285">Total: 47.0 km</text><text fill="#FFFFFF" style="font-size:3px; font-family:Arial" x="141" y="290">Avg: 1.0 km</text><text fill="#FFFFFF" style="font-size:3px; font-family:Arial" x="167" y="285">Min: 1.0 km</text><text fill="#FFFFFF" style="font-size:3px; font-family:Arial" x="167" y="290">Max: 1.5 km</text><polyline fill="none" points="19.411959839053452,31.5 20.888045919127762,34.70340207708068 22.153262559324503,40.423754727467895 24.261956960894167,44.542402126360685 27.424998559989035,52.77968057175167 28.057606880553067,54.152558193774894 29.11195408180356,57.81356222345494 29.74456240143627,58.5 30.58804016187787,58.5 30.58804016187787,58.04237483232282 29.11195408180356,57.35593695519492 28.47934576123953,55.75424798671156 27.00325968116522,54.38137107156217 25.948912480846047,51.40680234506726 24.472826399840415,49.11867062118836 22.785870879888535,45.68646988039836 20.888045919127762,38.59324302338064 19.6228292779997,35.618659207597375" stroke="#4dd2ff" stroke-linecap="round" stroke-linejoin="round" stroke-width="0.5"><title>2023-11-02 1.1km</title><desc>10144903556</desc></polyline><polyline fill="none" points="50.40213107410818,33.45653094444424 50.76274824421853,35.60871332278475 52.205216927453876,38.93480993784033 54.72953712195158,47.93481523124501 59.05694317165762,56.934790088096634 60.31910326797515,58.5 59.59786892775446,56.15218478743918 56.89324014633894,52.04350318084471 55.450771464034915,46.7609032234177 53.64768561068922,44.217425430426374 51.48398258537054,39.521767732687294 49.68089673202485,31.5" stroke="#4dd2ff" stroke-linecap="round" stroke-linejoin="round" stroke-width="0.5"><title>2023-11-01 1.0km</title><desc>10138966680</desc></polyline><polyline fill="none" points="81.07117183506489,31.90601699310355 82.00660711247474,34.95114253554493 83.50330355670303,43.07146089873277 85.93543527740985,48.34965502936393 87.43213172070682,53.2218252713792 89.86426344234496,58.5 90.05135049764067,58.296993465861306 88.36756699811667,55.8609138969332 85.93543527740985,50.1767198771704 83.87747766729444,46.52258897176944 80.32282361388206,35.76317544630729 79.94864950235933,31.5" stroke="#4dd2ff" stroke-linecap="round" stroke-linejoin="round" stroke-width="0.5"><title>2023-10-31 1.0km</title><desc>10133123337</desc></polyline><polyline fill="none" points="110.76074621733278,34.70001399773173 111.68232312705368,39.5000279371161 111.68232312705368,41.30003098072484 113.7097923271358,44.70003348006867 119.2392537817359,56.500009189825505 120.1608306914568,58.30000098468736 120.5294614546001,58.5 116.2902076728642,50.100028715794906 114.44705385435373,44.900033494923264 112.4195846542716,40.7000300984364 109.47053854446858,31.5" stroke="#4dd2ff" stroke-linecap="round" stroke-linejoin="round" stroke-width="0.5"><title>2023-10-30 1.0km</title><desc>10127985445</desc></polyline><polyline fill="none" points="140.74376995768398,35.407913411268964 141.56227573473006,40.91450794483535 142.05337920133024,42.69082608493045 145.3274023104459,50.3289792065043 146.96441386453807,54.76975480490364 149.41993119753897,58.14473880105652 150.07473582029343,58.5 150.23843697458506,57.96710818167776 148.76512657571584,55.65790894487873 146.63701155409217,51.03950385074131 142.87188497837633,44.111879657022655 141.3985745785758,38.96055648243055 140.25266649015248,36.65133908088319 140.08896533492953,33.09869261388667 139.76156302448362,31.5" stroke="#4dd2ff" stroke-linecap="round" stroke-linejoin="round" stroke-width="0.5"><title>2023-10-28 1.0km</title><desc>10115543824</desc></polyline><polyline fill="none" points="171.49800723046064,37.10002202633768 172.97253050282598,41.900031730532646 174.63136918190867,45.700033406727016 176.105892454274,51.100026657572016 178.31767736189067,56.30001002806239 179.23925440665334,58.30000098561868 180.1608314504847,58.5 180.34514685999602,58.30000098561868 179.9765160419047,57.1000065873377 178.8706235876307,54.100018276833 175.18431541044265,46.900032833451405 172.235268865712,38.90002665808424 170.39211477618665,34.90001474809833 169.6548531409353,31.5" stroke="#4dd2ff" stroke-linecap="round" stroke-linejoin="round" stroke-width="0.5"><title>2023-10-27 1.0km</title><desc>10110442644</desc></polyline><polyline fill="none" points="21.34079528041184,65.66913527133875 24.817039764486253,77.38238563528284 26.09776141680777,80.95590952946804 27.378483069129288,83.13972735963762 28.842164956964552,87.30882922117598 29.391045665368438,88.10294313239865 30.488807081244886,88.5 30.671767316758633,87.90441467636265 30.488807081244886,87.11030070716515 28.659204720519483,84.727957399562 25.914801181294024,79.96326447767206 22.621516932733357,70.23532365914434 20.42599410098046,66.66178557742387 19.32823268417269,61.5" stroke="#4dd2ff" stroke-linecap="round" stroke-linejoin="round" stroke-width="0.5"><title>2023-10-26 1.0km</title><desc>10104873905</desc></polyline><polyline fill="none" points="53.64768590871245,74.41307765478268 57.794782457873225,84.78262495691888 59.77817645855248,88.30434881150723 60.49941064044833,88.5 60.31910209544003,86.54348746663891 55.4507713643834,78.13046718318947 52.74614317994565,71.28264034097083 50.402132087387145,66.39132466586307 49.50058935955167,61.5" stroke="#4dd2ff" stroke-linecap="round" stroke-linejoin="round" stroke-width="0.5"><title>2023-10-25 1.0km</title><desc>10098978222</desc></polyline><polyline fill="none" points="80.00532038975507,61.5 79.82369567640126,62.87956863641739 80.91344395559281,67.41243201401085 82.36644166056067,70.36864313087426 83.27456522639841,73.9160921680741 84.90918764378875,78.64601691463031 88.36005719285458,85.34672935400158 89.44980547111481,88.10584137192927 89.81305489782244,88.5 90.17630432453007,88.30292069306597 89.99467961024493,85.7408883869648 87.99680776707828,81.99637522781268 86.54381006211042,79.82849679747596 84.72756293043494,75.68981492612511 84.36431350465864,73.52193139609881 82.18481694720685,70.17156249145046 80.91344395559281,67.21535115689039 80.55019452888519,63.66789325256832 80.00532038975507,61.5" stroke="#4dd2ff" stroke-linecap="round" stroke-linejoin="round" stroke-width="0.5"><title>2023-10-24 1.0km</title><desc>10092835699</desc></polyline><polyline fill="none" points="112.22532419674098,66.16189021081664 114.91049432847649,75.67989051667973 116.16357372328639,78.01082414062694 117.59566445928067,83.83814920345321 119.74380056466907,87.72302543837577 120.63885727524757,88.5 119.74380056466907,87.5287817621138 118.49072116985917,84.42088100290857 115.26851701270789,80.53599991230294 114.55247164424509,79.17629018146545 113.83642627578229,74.70866756676696 111.68829017039388,70.43528234469704 110.2561994343996,65.96764494967647 109.36114272475243,61.5" stroke="#4dd2ff" stroke-linecap="round" stroke-linejoin="round" stroke-width="0.5"><title>2023-10-23 1.0km</title><desc>10087395010</desc></polyline><polyline fill="none" points="136.2583675137721,61.62949837860651 136.73572628409602,61.5 140.13690752442926,61.758996738062706 141.62865368253551,62.14749170234427 141.98667276045308,62.341739120311104 142.76238076295704,62.924481116759125 143.29940937971696,63.57197177177295 144.492806305876,65.77343643736094 145.08950476930477,68.23389043315547 145.8652127715759,69.52886345918523 146.22323184926063,70.56484050879953 147.05860969773494,72.44254580512643 147.6553081611637,74.38499534671428 148.5503558558412,75.93895189516479 148.96804478019476,76.3921887052129 149.50507339718752,77.29866162565304 149.80342262866907,79.24110045615816 149.98243216751143,79.75908342085313 150.45979093806818,80.47130949964048 150.57913063117303,81.57202139764559 150.75814016978256,82.02525530860294 153.3836134080775,88.24101112637436 153.74163248599507,88.5 153.74163248599507,88.17626389593352 153.2046038690023,87.65828588197473 152.6079054060392,86.23384477256332 152.01120694261044,85.00364377879305 150.400121091865,80.01807478885166" stroke="#4dd2ff" stroke-linecap="round" stroke-linejoin="round" stroke-width="0.5"><title>2023-10-22 1.5km</title><desc>10080655811</desc></polyline><polyline fill="none" points="170.70558573654853,61.5 171.65288300043903,62.18528886185959 169.94774792529643,61.911173377535306 172.60018026432954,65.33761113631772 172.85279286815785,66.15995432407362 172.66333341551945,66.84523975942284 171.7791893023532,67.32493926456664 171.52657669852488,67.80463852267712 171.5897298497148,68.62697953346651 172.09495505690575,70.61430064769229 172.66333341551945,72.05339260253822 173.2948649248574,74.24629035609541 174.4316216413863,76.23359948891448 174.62108109425753,76.98740529286442 175.31576575455256,78.22090438427404 175.7578378112521,78.76912567886757 175.82099096174352,79.11176382406848 176.2630630186759,79.52292943227803 176.57882877299562,80.20820504275616 177.020900829928,81.51022731454577 177.4629728863947,82.40108361048624 177.39981973543763,84.18279364804039 178.22081069741398,85.75891891930951 178.4734233012423,86.51271702011582 178.91549535747617,87.33504152559908 179.6733331689611,88.29441919847159 180.05225207447074,88.5 178.59972960315645,86.44418994517764 178.2839638486039,85.34775606211042 177.6524323390331,83.97721189440927 177.39981973543763,83.08635710488306 176.57882877299562,81.92139186465647 175.88414411293343,79.93409485905431" stroke="#4dd2ff" stroke-linecap="round" stroke-linejoin="round" stroke-width="0.5"><title>2023-10-20 1.4km</title><desc>10069668027</desc></polyline><polyline fill="none" points="19.567031372571364,91.5 19.69562234613113,92.54652593983337 20.724350133445114,95.05818348564208 20.981532080331817,96.5930820464855 23.103283141739666,101.75590443867259 23.296169602079317,102.45358098583529 23.424760575639084,103.50009484484326 23.681942522292957,104.1977701097494 25.225034203380346,106.36056017078226 26.06087553082034,108.03497489710571 26.575239424360916,109.7093866688665 27.02530783158727,110.61635847843718 27.282489778473973,112.01169803109951 27.60396721214056,112.70936703804182 28.439808539347723,114.87213770003291 28.56839951267466,115.70933792338474 29.790013760561123,118.22093416174175 30.11149119399488,118.5 30.3043776541017,118.5 30.432968627428636,118.43023354804609 30.368673140881583,118.36046709102811 29.082763406680897,116.7558371637715 28.504104026127607,114.8023709814297 27.282489778473973,112.56983327766648 27.089603318367153,111.66286333516473 26.961012344807386,110.1279891502927" stroke="#4dd2ff" stroke-linecap="round" stroke-linejoin="round" stroke-width="0.5"><title>2023-10-19 1.3km</title><desc>10064004415</desc></polyline><polyline fill="none" points="48.91170686017722,91.5 51.55879083368927,94.94682409497909 51.38231856934726,97.43619421566837 51.735263098962605,99.92556195752695 52.97056895401329,104.32982213282958 54.73529160209,107.20216171373613 56.50001425109804,112.18087615049444 60.02945955004543,117.92553482879885 60.558876344934106,118.5 61.08829313889146,118.30851162341423 58.79415369499475,116.01065000984818 54.55881933774799,107.77662924979813 53.49998574797064,104.13833271479234 50.49995724391192,97.81917402287945" stroke="#4dd2ff" stroke-linecap="round" stroke-linejoin="round" stroke-width="0.5"><title>2023-10-18 1.0km</title><desc>10058081424</desc></polyline><polyline fill="none" points="80.2873885538429,93.13637109496631 81.79542421642691,101.93184924288653 85.75401783175766,112.36365937138908 88.39308024197817,117.88636654615402 89.52410698961467,118.5 90.08962036296725,118.5 90.46662927884609,117.6818220319692 89.14709807466716,116.0454653725028 87.45055795367807,113.38638374954462 85.18850445840508,108.47730330657214 84.24598216917366,105.61366904852912 80.2873885538429,97.63638664479367 79.91037963796407,96.40911039849743 79.53337072208524,91.5" stroke="#4dd2ff" stroke-linecap="round" stroke-linejoin="round" stroke-width="0.5"><title>2023-10-17 1.0km</title><desc>10051702317</desc></polyline><polyline fill="none" points="108.9707556432113,92.12307983194478 110.88480147067457,95.44616994820535 113.75587021093816,102.9231084161438 115.28710687346756,105.83080136496574 117.00974811799824,111.2307946155779 119.1151985283941,116.63077754480764 119.88081685919315,118.08461733930744 120.83783977292478,118.5 121.02924435585737,118.29230867745355 120.83783977292478,117.6692346171476 118.73238936252892,114.55386225529946 115.86132062226534,107.4923388492316 113.75587021093816,103.13080086861737 112.0332289673388,95.03078389703296 111.07620605360717,91.5" stroke="#4dd2ff" stroke-linecap="round" stroke-linejoin="round" stroke-width="0.5"><title>2023-10-16 1.0km</title><desc>10046279660</desc></polyline><polyline fill="none" points="139.47053427621722,91.5 140.26045795157552,93.21429314976558 141.0503816260025,97.07144905114546 142.82770989462733,103.07145919674076 145.19748091883957,106.71431647357531 147.96221378073096,117.00000656116754 148.9496183739975,118.07143052481115 150.3319848049432,118.5 150.5294657247141,118.07143052481115 150.3319848049432,116.78572172136046 147.7647328618914,113.14287703181617 146.3823664309457,108.85717156808823 144.80251908209175,106.28574526542798 141.0503816260025,97.50002161413431 139.6680151950568,91.5" stroke="#4dd2ff" stroke-linecap="round" stroke-linejoin="round" stroke-width="0.5"><title>2023-10-15 1.0km</title><desc>10039610121</desc></polyline><polyline fill="none" points="169.3813481060788,93.45968570327386 169.98334652278572,99.77421970525756 171.58867563586682,104.34680488915183 173.59533702675253,107.17744932160713 174.7993338610977,111.09679868584499 178.21065822523087,117.19355405378155 179.0133227808401,118.06451808195561 180.01665347721428,118.5 180.6186518939212,118.06451808195561 180.6186518939212,117.41129508474842 176.60532911214978,114.1451779382769 173.99666930455714,109.354866275331 172.9933386091143,105.21777269500308 170.58534494042397,99.77421970525756 169.3813481060788,95.20162746263668 169.58201424591243,92.37097158376127 169.3813481060788,91.5" stroke="#4dd2ff" stroke-linecap="round" stroke-linejoin="round" stroke-width="0.5"><title>2023-10-14 1.0km</title><desc>10033377496</desc></polyline><polyline fill="none" points="18.87809242028743,121.92857338255271 22.43274843506515,126.21430373727344 22.827710214070976,129.4285973678343 26.18488533888012,139.7143131652847 29.344579573720694,147.2142913856078 30.33198402170092,148.5 31.121907580643892,148.5 31.121907580643892,147.8571457641665 30.92442669067532,147.2142913856078 29.147098682820797,145.92858220404014 27.17228978779167,142.28573644324206 25.000000000931323,135.42860266123898 21.050382207147777,126.64287642599083 20.457939538173378,123.64286628039554 19.47053508926183,121.5" stroke="#4dd2ff" stroke-linecap="round" stroke-linejoin="round" stroke-width="0.5"><title>2023-10-13 1.0km</title><desc>10028006924</desc></polyline><polyline fill="none" points="49.206725805066526,121.5 51.10615996737033,123.97329326206818 52.24582046456635,126.03436931292526 52.43576388154179,128.71376591431908 52.24582046456635,131.59926708275452 54.33519804291427,135.92751326714642 56.80446245428175,142.5229231736157 59.2737268647179,147.0572584841866 59.84355711378157,147.88168229884468 60.79327419400215,148.5 60.79327419400215,147.46947042178363 58.70389661658555,144.79009174578823 56.80446245428175,141.49239139887504 54.33519804291427,134.69087218213826 52.81565071363002,132.0114812932443 52.055877048522234,129.7443023873493" stroke="#4dd2ff" stroke-linecap="round" stroke-linejoin="round" stroke-width="0.5"><title>2023-10-12 1.0km</title><desc>10021974100</desc></polyline><polyline fill="none" points="81.84325277712196,125.328374392353 82.5860168300569,129.35823639691807 82.400325817056,130.97017953987233 84.07154493406415,136.4104806468822 85.37138202600181,138.82838878338225 86.67121911793947,143.2612148274202 88.52812924887985,147.69403370190412 88.89951127488166,148.09701688028872 89.82796634081751,148.5 89.6422753278166,147.69403370190412 87.59967418387532,142.4552469891496 85.37138202600181,138.6268965199124 82.400325817056,131.7761507553514 81.65756176412106,129.15674343751743 81.28617973811924,125.328374392353 80.17203365918249,121.5" stroke="#4dd2ff" stroke-linecap="round" stroke-linejoin="round" stroke-width="0.5"><title>2023-10-10 1.0km</title><desc>10009069592</desc></polyline><polyline fill="none" points="110.42599410098046,124.87501476355828 111.70671575237066,128.44855520920828 112.98743740469217,133.2132684479002 115.73184094484895,139.16914817341603 117.92736377660185,146.71324363560416 119.20808542892337,148.5 119.57400590088218,147.90441467636265 119.75696613732725,145.72060069977306 118.47624448500574,141.94855421641842 115.73184094484895,137.18385639088228 112.62151693273336,128.44855520920828 111.70671575237066,124.47795442165807 110.24303386360407,121.5" stroke="#4dd2ff" stroke-linecap="round" stroke-linejoin="round" stroke-width="0.5"><title>2023-10-09 1.0km</title><desc>10003389142</desc></polyline><polyline fill="none" points="139.5026821307838,121.5 140.85290055535734,123.17442605248652 142.20311897993088,126.31397224590182 142.97467236500233,132.59305424662307 145.8679975597188,138.87212239811197 148.37554606050253,145.98838289501145 149.53287613857538,148.08139730314724 150.4973178692162,148.5 150.4973178692162,146.82558884308673 146.83243929035962,140.9651420377195 142.01023063343018,129.24421223602258 140.08134717028588,121.70930331083946" stroke="#4dd2ff" stroke-linecap="round" stroke-linejoin="round" stroke-width="0.5"><title>2023-10-08 1.0km</title><desc>9996447828</desc></polyline><polyline fill="none" points="171.53421115130186,126.90002223243937 172.42287495918572,130.17860173550434 175.08886638097465,137.31431943108328 175.9775301888585,140.40002917940728 178.82125437259674,147.5357190708164 179.7099181804806,148.5 179.88765094149858,147.7285752852913 179.88765094149858,146.95715034380555 176.5107284737751,140.97859935299493 174.91113361995667,137.507176396437 172.06740943621844,129.02145649609156 171.17874562833458,124.58572835079394 170.11234905850142,121.5" stroke="#4dd2ff" stroke-linecap="round" stroke-linejoin="round" stroke-width="0.5"><title>2023-10-07 1.0km</title><desc>9989974159</desc></polyline><polyline fill="none" points="22.794097336940467,159.5425824597478 24.205875040963292,164.138332715258 25.26470831874758,166.43620480247773 27.38237487524748,175.43618429102935 27.911791514605284,177.15958107053302 28.970624793320894,178.5 29.852985857985914,178.5 30.205930283293128,177.73404641030356 30.029458071105182,177.15958107053302 27.911791514605284,174.0957637843676 25.794124958105385,169.50003109802492 25.088236106559634,166.43620480247773 21.382319632917643,157.43619421636686 20.852902993559837,154.18086357903667 19.79406971577555,151.5" stroke="#4dd2ff" stroke-linecap="round" stroke-linejoin="round" stroke-width="0.5"><title>2023-10-06 1.0km</title><desc>9984428862</desc></polyline><polyline fill="none" points="49.187259048223495,151.5 52.24659639131278,159.68855017540045 54.28615462034941,166.54921020008624 57.753403609618545,175.18034092569724 59.18109436891973,178.05737900245003 59.79296183772385,178.5 60.60878513008356,178.5 60.812740951776505,178.05737900245003 60.20087348297238,176.95082622091286 57.753403609618545,173.40985458972864 56.325712849386036,170.53281207149848 53.87824297416955,164.1147842395585 52.8584638601169,160.79510930157267 50.00308233965188,155.48362178634852 50.00308233965188,153.49181155208498" stroke="#4dd2ff" stroke-linecap="round" stroke-linejoin="round" stroke-width="0.5"><title>2023-10-04 1.0km</title><desc>9971682885</desc></polyline><polyline fill="none" points="80.91344425641,154.65329869673587 81.8215677542612,157.80659368471242 82.72969125304371,159.9744818371255 83.45619005244225,163.324850987643 86.90705934725702,170.22265664255247 87.08868404757231,172.58761449554004 88.1784322457388,177.317523942329 88.54168164543808,177.90876203635707 89.63142984360456,178.5 89.63142984360456,176.52920628082938 87.27030874788761,172.19345499831252 85.63568644970655,168.4489368838258 84.72756295092404,166.67521595116705 83.8194394512102,164.1131725325249 82.00319245457649,160.36864313133992 81.27669365517795,157.41243201401085 80.91344425641,154.45621763705276 80.36857015639544,151.5" stroke="#4dd2ff" stroke-linecap="round" stroke-linejoin="round" stroke-width="0.5"><title>2023-10-03 1.0km</title><desc>9965060084</desc></polyline><polyline fill="none" points="110.0646078363061,152.61570723657496 112.53230391815305,160.64878723444417 112.94358659908175,164.2190381870605 114.38307597953826,166.0041620878037 115.41128268092871,168.68184597115032 117.2620547413826,175.5991850697901 118.70154412277043,177.83058141567744 119.72975082322955,178.5 119.9353921636939,178.27686048811302 119.31846814323217,176.49174380488694 117.05641340184957,172.25208747433499 113.35486927814782,163.32647584215738 111.09281453676522,156.63224989292212 110.68153185676783,151.5" stroke="#4dd2ff" stroke-linecap="round" stroke-linejoin="round" stroke-width="0.5"><title>2023-10-02 1.0km</title><desc>9958643020</desc></polyline><polyline fill="none" points="140.72019305825233,156.25201799208298 141.11831463407725,158.1960231375415 145.49765197001398,168.56402885355055 147.687320638448,175.2600131004583 148.88168536685407,177.63600384257734 150.0760500933975,178.5 150.27511088270694,178.28400098439306 150.0760500933975,177.42000476364046 146.0948343332857,171.37202410562895 142.31267936248332,162.08402956835926 140.52113226987422,156.4680186274927 139.72488911822438,151.5" stroke="#4dd2ff" stroke-linecap="round" stroke-linejoin="round" stroke-width="0.5"><title>2023-10-01 1.0km</title><desc>9952075403</desc></polyline><polyline fill="none" points="171.12336484435946,155.41306045162492 172.74614235199988,158.7391573113855 173.46737679839134,162.0652500144206 174.00830263458192,165.19568640808575 176.71293181274086,172.82610969012603 179.05694376770407,177.71739515918307 180.1387954382226,178.5 180.49941266234964,177.9130463907495 176.8932404248044,172.43480646470562 175.2704629180953,168.71742294891737 174.72953708283603,166.76090322365053 172.2052165158093,161.282640340738 170.76274762116373,155.2174075653311 169.50058733765036,151.5" stroke="#4dd2ff" stroke-linecap="round" stroke-linejoin="round" stroke-width="0.5"><title>2023-09-30 1.0km</title><desc>9945549317</desc></polyline><polyline fill="none" points="20.81972591113299,181.5 22.611271949484944,184.52401233883575 23.20845396257937,186.90001985034905 24.800939328968525,190.788027996663 25.597182014025748,196.62003056914546 26.19436402618885,198.34802910801955 28.58309207763523,204.18001667386852 29.18027408979833,207.8520029061474 29.57839543186128,208.2840009846259 30.175577444955707,208.5 30.37463811598718,208.06800195295364 26.791546039283276,201.58802362973802 24.402817987836897,195.97203085501678 23.60657530464232,192.73203014023602 20.81972591113299,186.25201799278148 19.62536188494414,182.36400384292938" stroke="#4dd2ff" stroke-linecap="round" stroke-linejoin="round" stroke-width="0.5"><title>2023-09-28 1.0km</title><desc>9933629332</desc></polyline><polyline fill="none" points="49.721871298737824,184.56819501379505 51.22990807145834,189.88639168953523 54.057477017864585,193.77275975467637 55.942522982135415,200.72729958500713 58.58158733230084,205.43183137779124 59.33560571912676,208.09091104590334 60.089624104090035,208.5 60.46663329843432,207.8863665459212 60.089624104090035,207.06818839721382 58.58158733230084,205.02274197200313 54.2459816141054,196.2273052087985 51.983926456421614,190.09093751222827 49.533366702497005,181.5" stroke="#4dd2ff" stroke-linecap="round" stroke-linejoin="round" stroke-width="0.5"><title>2023-09-27 1.0km</title><desc>9927137811</desc></polyline><polyline fill="none" points="87.24298205017112,181.5 86.70466635818593,184.09618973411852 86.16635066620074,185.5889953733422 85.74766068346798,187.40632057009498 83.29533364181407,192.5337536331499 82.03926369408146,194.67558394157095 81.80001227511093,195.5842376536457 81.91963798436336,196.29817920009373 82.21870225784369,197.33663860021625 83.115895077819,199.54336076957406 83.41495935129933,200.12749218509998 83.77383647928946,201.16594708053162 84.97009357251227,202.65872385265538 85.50840926473029,203.8269821741269 86.10653781169094,204.7356264666305 86.5850406489335,206.03368811903056 87.30279490514658,207.0072331057745 88.1999877251219,208.5" stroke="#4dd2ff" stroke-linecap="round" stroke-linejoin="round" stroke-width="0.5"><title>2023-09-26 1.0km</title><desc>9920397094</desc></polyline><polyline fill="none" points="114.87390754465014,181.5 113.6970446286723,185.4223337789299 112.52018171316013,187.52032117464114 111.4273804333061,188.8885719126556 110.83894897578284,189.98317141644657 110.58676406508312,191.07776995445602 110.67082570167258,192.44601676869206 111.09113388648257,193.5406131336931 112.09987352835014,195.09128966438584 112.52018171316013,196.64196425664704 113.36079808138311,198.64871673414018 114.95796918170527,200.65546596597414 117.64794156095013,206.12840191822033 119.41323593491688,208.5" stroke="#4dd2ff" stroke-linecap="round" stroke-linejoin="round" stroke-width="0.5"><title>2023-09-25 1.0km</title><desc>9914573673</desc></polyline><polyline fill="none" points="146.99057334009558,181.5 146.3270488937851,182.50801337813027 146.19434400415048,183.012019678019 146.3270488937851,183.6600273968652 146.39340133825317,184.30803468660451 145.0663524447009,186.75605835590977 144.7345902211964,188.412070897175 144.2701231087558,189.63607836677693 141.48332043224946,194.53209294530097 141.41696798754856,195.1080930508324 141.68237776588649,196.26009224599693 142.41225465759635,197.4120900858543 142.81036932580173,198.42008708399953 143.40754132764414,199.4280830444768 143.73930355114862,200.43607796734432 144.60188533202745,201.80406941764522 145.26540977857076,203.1720589569304 145.99528667051345,203.964052027266 146.19434400415048,204.6840451717144 146.65881111705676,205.2600393060129 147.65409778733738,206.98801967676263 148.38397467858158,207.78000966098625 148.58303201268427,208.5" stroke="#4dd2ff" stroke-linecap="round" stroke-linejoin="round" stroke-width="0.5"><title>2023-09-24 1.0km</title><desc>9907510217</desc></polyline><polyline fill="none" points="176.00656214216724,181.5 175.44288734253496,182.37379601283465 175.04026248585433,183.2475913829403 174.79868757212535,184.38352440390736 174.7181626004167,185.86897363874596 173.34923808695748,187.70393777731806 172.54398837359622,189.80103618034627 171.81926363147795,190.84958399401512 171.33611380308867,192.2476463066414 171.25558883138,193.73308571160305 172.94661323027685,198.0146359608043 173.59081300115213,199.32531152490992 175.6844622567296,202.64568315108772 176.57023694179952,204.83013310923707 177.69758654106408,206.22817897505593 178.34178631193936,207.36409003043082 178.74441116908565,208.5" stroke="#4dd2ff" stroke-linecap="round" stroke-linejoin="round" stroke-width="0.5"><title>2023-09-23 1.0km</title><desc>9901004991</desc></polyline><polyline fill="none" points="26.036759578622878,211.5 25.49918053811416,212.50001147040166 24.961601497605443,214.2500294201309 23.732849405147135,216.8333843119908 22.504097312688828,218.58339557045838 21.428939231671393,221.50007499643834 21.352142225485295,223.08341211284278 21.50573623785749,224.0000799590489 23.041676353197545,227.66674392909044 23.272067370358855,228.75007419561734 23.5792553932406,229.3334054487059 24.654413474258035,230.66673290001927 25.49918053811416,232.3333900080761 26.19035359006375,234.08337733428925 27.342308676801622,235.75002941855928 28.647857774980366,238.5" stroke="#4dd2ff" stroke-linecap="round" stroke-linejoin="round" stroke-width="0.5"><title>2023-09-22 1.0km</title><desc>9895405405</desc></polyline><polyline fill="none" points="56.43127718381584,211.5 56.211080694105476,212.29646981041878 55.770687714684755,212.77435141563183 54.8165029254742,214.5265821639914 54.44950877595693,215.80093001882778 53.348526326939464,218.58856072451454 52.174145048018545,220.97795276233228 51.44015674851835,222.73017024050932 51.21996025880799,223.60627791646402 51.21996025880799,224.1638006141875 51.44015674851835,224.96026111306855 51.88054972840473,225.75672102649696 52.83473451761529,228.22574303630972 53.788919306360185,229.97794879041612 54.30271111568436,231.2522784678731 55.25689590489492,232.8451884566457 55.84408654412255,233.5619971874985 56.28447952400893,234.83632264879998 57.45886080292985,236.90709832619177 58.78003974119201,238.5" stroke="#4dd2ff" stroke-linecap="round" stroke-linejoin="round" stroke-width="0.5"><title>2023-09-21 1.0km</title><desc>9889267953</desc></polyline><polyline fill="none" points="87.74893571832217,211.5 86.78539123968221,214.3907022520434 86.2186003702227,216.6663544435287 85.3117349781096,218.57297718862537 84.23483232571743,221.77117332391208 82.3644224551972,225.2768742701155 81.85431067249738,227.18347738828743 81.91098975925706,227.61400007159682 82.25106428121217,228.5365479324828 82.98789241211489,230.13562848127913 83.44132510805503,231.4886942502926 84.57490684767254,233.08776915556518 85.25505589158274,234.37932742462726 85.6518095000647,235.30186782439705 86.10524219577201,236.10140201455215 86.84207032690756,236.65492523700232 87.74893571832217,238.00798046117416 87.80561480554752,238.25399026670493 88.14568932750262,238.5" stroke="#4dd2ff" stroke-linecap="round" stroke-linejoin="round" stroke-width="0.5"><title>2023-09-20 1.0km</title><desc>9882714971</desc></polyline><polyline fill="none" points="117.23875454021618,211.5 116.66307480144314,212.95760326780146 115.57567973900586,216.15044065576512 115.51171532343142,217.19158094731392 115.12792883068323,217.74685529997805 114.68017792282626,218.7879938307451 114.4243202607613,219.75972209015163 113.91260493732989,221.0784945563646 112.44142338237725,223.4383985819295 112.05763688962907,224.82657466462115 111.92970805894583,226.07593139371602 112.05763688962907,227.32528646918945 112.44142338237725,228.71345683612162 112.88917429000139,229.68517487851204 114.29639142984524,232.11446560826153 115.0,233.08618014963577 115.63964415411465,234.8213822004036 116.27928830869496,235.9319098389824 116.91893246280961,236.83421258348972 117.62254103273153,237.52829103090335 118.07029194105417,238.5" stroke="#4dd2ff" stroke-linecap="round" stroke-linejoin="round" stroke-width="0.5"><title>2023-09-19 1.0km</title><desc>9876194288</desc></polyline><polyline fill="none" points="144.80125993303955,211.5 144.32428377168253,212.27636650414206 143.52932350384071,213.82909797120374 143.29083542292938,214.8642511406215 141.85990693978965,217.3658675296465 140.74696256406605,219.69495385535993 140.50847448362038,220.5575772470329 140.58797051059082,221.50646224501543 141.06494667194784,222.7141329512233 141.78041091328487,224.0080644710688 142.41637912811711,225.81956620130222 143.29083542292938,227.71732691884972 144.24478774517775,229.44256127101835 145.11924404045567,230.56396223965567 146.15269238920882,232.28919240599498 146.7886606035754,234.27320396108553 147.90160497976467,235.99842867336702 148.45807716762647,237.5511287454283 149.49152551637962,238.5" stroke="#4dd2ff" stroke-linecap="round" stroke-linejoin="round" stroke-width="0.5"><title>2023-09-18 1.0km</title><desc>9870505463</desc></polyline><polyline fill="none" points="175.27130160154775,211.5 174.8837278848514,212.2570180289331 174.34112468129024,214.78040784032783 173.64349199132994,215.95798784750514 173.33343301760033,216.88322843116475 171.62810866395012,219.6589456924121 171.00799071695656,221.1729704508325 170.6204170002602,222.51876855356386 170.93047597352415,223.4440038310131 172.63580032717437,227.14493745734217 173.48846250446513,228.4907285349327 174.10858045099303,229.92062982002972 175.11627211468294,231.2664176323451 175.65887531870976,232.1916458348278 176.35650800867006,234.37854588468326 179.37958299927413,238.5" stroke="#4dd2ff" stroke-linecap="round" stroke-linejoin="round" stroke-width="0.5"><title>2023-09-16 1.0km</title><desc>9856514700</desc></polyline><polyline fill="none" points="24.626766085624695,241.5 23.797357386443764,244.02002519892994 22.719126077834517,245.73003934358712 20.479722590185702,250.05006443581078 20.39678171975538,251.0400680389721 20.479722590185702,252.21007126464974 20.977367809507996,253.3800733720418 21.806776508688927,254.64007439091802 22.5532443379052,256.3500736991409 23.880298256408423,258.6000691493973 25.539115655235946,261.75005583208986 25.704997394699603,262.9200488211354 26.285583483986557,263.3700458268868 26.94911044370383,264.27003934187815 28.027341752313077,266.07002438721247 29.188513930886984,267.06001503393054 29.43733654078096,267.69000866496935 29.60321828071028,268.5" stroke="#4dd2ff" stroke-linecap="round" stroke-linejoin="round" stroke-width="0.5"><title>2023-09-15 1.0km</title><desc>9850671982</desc></polyline><polyline fill="none" points="55.68640634138137,241.5 54.31359365861863,245.13106798846275 52.76917939027771,247.3655661904486 52.082773049362004,248.57591773686 51.05316353728995,251.18282483052462 50.79576115915552,252.11386177758686 50.79576115915552,252.85869084193837 51.05316353728995,253.78972655686084 52.082773049362004,256.58282959414646 53.02658176841214,258.4448948628269 55.34320317115635,262.44832591875456 56.287011890206486,264.21727979544085 56.458613475319,265.2414098577574 57.14501981670037,265.89312855689786 58.26043012179434,267.662077621324 59.20423884084448,268.5" stroke="#4dd2ff" stroke-linecap="round" stroke-linejoin="round" stroke-width="0.5"><title>2023-09-14 1.0km</title><desc>9844236351</desc></polyline><polyline fill="none" points="80.70887012802996,241.5 81.20281313476153,241.90199097857112 81.38804176240228,242.3039817797835 81.51152751408517,243.1749612404965 81.88198476913385,243.91194321104558 82.12895627273247,245.98888919339515 82.12895627273247,246.99386135616805 82.00547052081674,247.52984605642268 82.12895627273247,248.1998264885624 82.43767065182328,249.00380235683406 82.31418490037322,249.67378170514712 82.37592777609825,250.00877119449433 82.99335653474554,251.14773453748785 83.54904241743498,252.8226780439727 84.04298542416655,253.76064506283728 84.66041418281384,254.63161357294302 85.33958581718616,255.23459128447575 85.52481444459409,255.6365762039204 85.71004307223484,256.5075429211138 86.20398607919924,257.378508805763 86.75967196188867,258.9864436365897 87.50058647198603,260.3933842863189 87.8710437270347,261.59933168569114 88.05627235467546,262.604286632617 88.42672960995696,263.40824979246827 89.10590124432929,265.6191448243917 90.03204438230023,267.36105834465707 90.09378725825809,267.62904474453535 90.03204438230023,267.8300344927702 89.29112987197004,268.5 89.66158712701872,268.2320138561772 89.84681575465947,267.8300344927702 89.97030150610954,267.4950515545206 89.90855863061734,267.0260752339964 89.53810137556866,266.55709867202677 88.42672960995696,264.14521539898124 87.8710437270347,262.33629875513725 86.69792908593081,259.7234128191485 86.14224320324138,257.17751675244654 85.83352882415056,256.44054551096633 84.66041418281384,254.8996037162142 83.48729954147711,252.6886826767004 82.93161365855485,250.87974329077406 82.74638503161259,249.67378170514712 82.25244202418253,248.40082052216167 81.26455601071939,246.25688187853666 81.01758450712077,245.25190890283557 80.1531842451077,243.6439498362015 79.96795561769977,242.7729708236875 79.90621274174191,241.70099551149178" stroke="#4dd2ff" stroke-linecap="round" stroke-linejoin="round" stroke-width="0.5"><title>2023-09-13 1.0km</title><desc>9837636972</desc></polyline></svg>