<?xml version="1.0" encoding="utf-8" ?>
<svg baseProfile="full" height="300mm" version="1.1" viewBox="0,0,200,300" width="200mm" xmlns="http://www.w3.org/2000/svg" xmlns:ev="http://www.w3.org/2001/xml-events" xmlns:xlink="http://www.w3.org/1999/xlink"><defs /><rect fill="#222222" height="300" width="200" x="0" y="0" /><text fill="#FFFFFF" style="font-size:12px; font-family:Arial; font-weight:bold;" x="10" y="20">Over 1km Runs</text><text fill="#FFFFFF" style="font-size:4px; font-family:Arial" x="10" y="280">ATHLETE</text><text fill="#FFFFFF" style="font-size:9px; font-family:Arial" x="10" y="290">Jiakai</text><text fill="#FFFFFF" style="font-size:4px; font-family:Arial" x="120" y="280">STATISTICS</text><text fill="#FFFFFF" style="font-size:3px; font-family:Arial" x="120" y="285">Number: 75</text><text fill="#FFFFFF" style="font-size:3px; font-family:Arial" x="120" y="290">Weekly: 5.8</text><text fill="#FFFFFF" style="font-size:3px; font-family:Arial" x="141" y="285">Total: 77.5 km</text><text fill="#FFFFFF" style="font-size:3px; font-family:Arial" x="141" y="290">Avg: 1.0 km</text><text fill="#FFFFFF" style="font-size:3px; font-family:Arial" x="167" y="285">Min: 1.0 km</text><text fill="#FFFFFF" style="font-size:3px; font-family:Arial" x="167" y="290">Max: 1.5 km</text><polyline fill="none" points="19.383806210942566,34.61639471130911 20.28472735080868,39.22502590424847 21.185648490674794,42.576750658103265 23.37359983054921,48.30260009842459 24.531927010510117,50.95603666966781 24.918036070186645,51.375 24.40322399046272,48.86121863196604 23.116193790454417,46.48708872986026 21.95786661049351,43.13537087570876 20.28472735080868,39.643991821911186 19.5125092305243,36.990539449383505 18.225479030516,34.197427685023285 17.581963930279016,31.125" stroke="#4dd2ff" stroke-linecap="round" stroke-linejoin="round" stroke-width="0.5"><title>2023-12-05 1.0km</title><desc>10329306344</desc></polyline><polyline fill="none" points="40.0306627266109,32.82430888223462 40.94418416218832,34.24039847229142 42.11871172254905,38.34705239557661 44.46776684233919,44.152996451826766 45.64229440269992,48.11802135966718 46.68631890043616,50.38374621444382 47.46933727385476,51.375 47.46933727385476,50.66696163348388 44.07625765539706,42.87852242635563 42.77122703380883,38.48866099573206 41.33569334866479,35.23166056594346 40.291668850462884,31.125" stroke="#4dd2ff" stroke-linecap="round" stroke-linejoin="round" stroke-width="0.5"><title>2023-12-04 1.0km</title><desc>10324662812</desc></polyline><polyline fill="none" points="62.7329415678978,32.994238877203315 64.16847562231123,38.44617618306074 66.46533010853454,43.58656136528589 68.04441756755114,49.038471416104585 69.19284481089562,51.219231507973745 70.05416524317116,51.375 70.05416524317116,50.75192596309353 69.0492914058268,49.038471416104585 67.75731075694785,45.30002032138873 66.32177670300007,43.11925413669087 65.31690286565572,40.47117789497133 63.59426200063899,34.24039721232839 62.445834757294506,31.125" stroke="#4dd2ff" stroke-linecap="round" stroke-linejoin="round" stroke-width="0.5"><title>2023-12-02 1.0km</title><desc>10313350310</desc></polyline><polyline fill="none" points="85.07416334142908,32.19886857050005 86.48794667189941,34.039784834720194 88.1844866676256,39.869342289399356 89.31551333190873,44.62502183509059 91.15343166096136,49.84091597085353 92.28445832477883,51.375 92.42583665857092,50.45454971771687 92.14307999238372,48.61364793498069 90.58791832858697,45.23865711595863 88.1844866676256,41.40343364945147 86.7707033380866,38.4886591010727 85.35692000715062,31.125" stroke="#4dd2ff" stroke-linecap="round" stroke-linejoin="round" stroke-width="0.5"><title>2023-12-01 1.0km</title><desc>10308709030</desc></polyline><polyline fill="none" points="107.5176109103486,31.125 110.31690272688866,40.74377227539662 113.11619454342872,46.48126636992674 114.6713566640392,50.700002878322266 115.13790530059487,51.375 115.29342151246965,50.86875217733905 114.6713566640392,49.18125862872694 112.33861348312348,45.97501746809576 111.71654863562435,44.287520321668126 109.38380545470864,39.731271829106845 108.29519197065383,34.50001240626443 107.20657848659903,31.46250146406237" stroke="#4dd2ff" stroke-linecap="round" stroke-linejoin="round" stroke-width="0.5"><title>2023-11-30 1.0km</title><desc>10303537703</desc></polyline><polyline fill="none" points="131.4333466612734,35.45432848704513 132.3342674043961,38.38709379185457 132.72037629410625,40.76123381732032 134.13610888971016,43.55433593096677 135.6805444485508,47.743981400853954 137.22498000692576,51.09569112374447 137.4823859333992,51.375 137.73979185940698,51.09569112374447 137.4823859333992,50.11810973205138 136.45276222750545,48.30260009842459 135.03702963190153,44.3922657641815 132.97778222057968,40.2026129020378 132.2055644406937,35.733639663551 130.66112888185307,33.35949335433543 129.76020814012736,31.125" stroke="#4dd2ff" stroke-linecap="round" stroke-linejoin="round" stroke-width="0.5"><title>2023-11-29 1.0km</title><desc>10298007687</desc></polyline><polyline fill="none" points="152.75927883014083,33.747313821921125 154.23612240189686,37.53509432740975 154.50463941460475,40.30308319476899 156.38425850635394,44.81926725700032 157.45832655904815,48.89839240151923 158.39813610492274,50.792269078898244 159.33794565079734,51.375 159.7407211707905,51.375 160.00923818396404,50.93795182532631 159.87497967714444,50.35522077570204 159.33794565079734,49.33544102625456 157.1898095458746,43.65380138740875 155.04167344141752,38.700563795515336 154.63889792142436,36.36962417385075 153.6990883750841,33.60162981192116 152.49076181603596,31.125" stroke="#4dd2ff" stroke-linecap="round" stroke-linejoin="round" stroke-width="0.5"><title>2023-11-28 1.0km</title><desc>10292316108</desc></polyline><polyline fill="none" points="178.27453567041084,31.125 179.46319649508223,34.34953793894965 180.1763929896988,37.445088784676045 181.1273216488771,38.863881096825935 182.19711639126763,40.9275769572705 183.26691113319248,44.28107755351812 184.2178397923708,45.828844897216186 184.2178397923708,46.602728057070635 183.62350938050076,47.118649974116124 181.7216520612128,48.150493353023194 180.53299123700708,49.18233612482436 179.34433041280136,49.827237549005076 177.56133917579427,50.601118945283815 174.708553197328,51.375 174.23308886773884,51.246019848273136 173.87649062043056,50.8590793350013 173.2821602076292,48.408454102813266" stroke="#4dd2ff" stroke-linecap="round" stroke-linejoin="round" stroke-width="0.5"><title>2023-11-27 1.0km</title><desc>10287544518</desc></polyline><polyline fill="none" points="19.292453923262656,59.681544879684225 19.944969282019883,61.23924119537696 21.51100614434108,69.16931199992541 23.207546077668667,73.27594297786709 24.121067580766976,74.83362830022816 24.773582939524204,75.54166666662786 24.904086011927575,75.40005901409313 24.512576796114445,74.69202059553936 24.512576796114445,73.5591585849179 23.468552221078426,71.15182459971402 22.29402457503602,67.18679735972546 21.11949692852795,64.77945541031659 20.336478497367352,60.24798004934564 18.117926276288927,56.70775750593748 17.595913988538086,55.29166666662786" stroke="#4dd2ff" stroke-linecap="round" stroke-linejoin="round" stroke-width="0.5"><title>2023-11-26 1.0km</title><desc>10281488289</desc></polyline><polyline fill="none" points="40.06276023760438,55.29166666662786 41.56775605864823,59.2110359123908 42.92225229833275,64.76346383988857 44.27674853801727,67.86628516553901 44.57774770259857,69.82595955929719 45.33024561405182,71.62232623505406 46.98574101738632,74.72513798053842 47.73823892790824,75.54166666662786 48.03923809248954,75.54166666662786 45.781744359992445,70.64249004633166 45.480745195411146,69.00942877214402 43.9757493743673,66.88644732057583 40.965757730416954,58.72111513547134 39.46076190844178,55.944895354798064" stroke="#4dd2ff" stroke-linecap="round" stroke-linejoin="round" stroke-width="0.5"><title>2023-11-25 1.0km</title><desc>10275889695</desc></polyline><polyline fill="none" points="62.32575725950301,55.48091974109411 63.37222198955715,60.212242065463215 68.2557240659371,73.45989831234328 69.47659958526492,75.35241506807506 69.99983195029199,75.54166666674428 70.17424273956567,74.97391182789579 68.43013485427946,72.70289122057147 66.33720539323986,66.45757421874441 64.94191908556968,63.618788754567504 64.0698651438579,58.1304613139946 63.023400412872434,55.29166666674428" stroke="#4dd2ff" stroke-linecap="round" stroke-linejoin="round" stroke-width="0.5"><title>2023-11-24 1.0km</title><desc>10271180196</desc></polyline><polyline fill="none" points="86.2321199523285,57.54167593049351 86.67645172588527,58.82739446940832 87.71322586201131,64.29168982524425 90.23110591061413,72.00596589781344 91.41599063854665,75.22023956058547 91.86032241117209,75.54166666662786 92.45276477560401,75.54166666662786 92.60087536741048,75.22023956058547 92.30465418472886,73.6131033198908 90.67543768323958,68.95240154094063 86.38023054320365,59.63096817256883 84.89912463352084,55.29166666662786" stroke="#4dd2ff" stroke-linecap="round" stroke-linejoin="round" stroke-width="0.5"><title>2023-11-23 1.0km</title><desc>10265414399</desc></polyline><polyline fill="none" points="109.47580239595845,59.85506540059578 109.60722444113344,61.85154897056054 110.13291261997074,64.98887614335399 112.2356653357856,70.97830483713187 112.89277555933222,73.83040723903105 113.94415191700682,75.54166666662786 114.73268418526277,75.54166666662786 114.6012621410191,74.68603714136407 113.15561964828521,70.97830483713187 111.97282124590129,69.1244360273704 110.2643346642144,63.848030486144125 108.29300399310887,58.42900444951374 107.76731581473723,55.29166666662786" stroke="#4dd2ff" stroke-linecap="round" stroke-linejoin="round" stroke-width="0.5"><title>2023-11-21 1.0km</title><desc>10253878272</desc></polyline><polyline fill="none" points="131.57050360320136,60.7606648724759 132.25159622682258,65.19497682049405 135.1121852477081,72.4376653037034 136.3381519713439,75.09823819377925 136.74680754588917,75.54166666662786 137.01924459589645,75.39385718666017 137.15546312043443,75.09823819377925 136.6105890213512,72.73328468750697 134.1586555740796,67.4121291275369 133.20512590091676,64.6037357924506 131.70672212773934,58.83912665722892 130.8894109786488,57.36101908842102 130.34453687956557,55.29166666662786" stroke="#4dd2ff" stroke-linecap="round" stroke-linejoin="round" stroke-width="0.5"><title>2023-11-20 1.0km</title><desc>10248671423</desc></polyline><polyline fill="none" points="152.64485171297565,56.97917417238932 154.62414881167933,61.27464166539721 155.18966226885095,65.72350939013995 156.74482427490875,69.25191497895867 158.29998628096655,73.70076569588855 159.00687810219824,74.77462479262613 159.85514828702435,75.54166666662786 159.71376992342994,74.3143995332066 157.31033773208037,68.02464414632414 155.75517572602257,62.348507156944834 154.2000137194991,58.66668031353038 153.35174353420734,55.29166666662786" stroke="#4dd2ff" stroke-linecap="round" stroke-linejoin="round" stroke-width="0.5"><title>2023-11-19 1.0km</title><desc>10242265034</desc></polyline><polyline fill="none" points="174.81435108883306,73.33433595346287 175.69876657472923,70.55117451550905 176.05253276927397,69.8793760377448 176.6716236085631,69.495491038193 179.67863625986502,69.1116059256019 181.88967497413978,68.63174937595613 182.59720736276358,68.05592128355056 183.03941510571167,67.48009293735959 183.5700643970631,65.08080542599782 183.39318129979074,64.31303249078337 183.7469474938698,63.737202493008226 183.4816228481941,59.322497401502915 183.3047397513874,58.74666520184837 183.21629820251837,57.0191670776112 183.03941510571167,55.96347265399527 182.06655807141215,55.67555584467482 181.270584134385,56.251389399403706 181.4474672311917,55.96347265399527 181.62435032846406,56.251389399403706 180.47461019689217,55.67555584467482 180.38616864895448,55.29166666662786 180.1208440028131,55.483611269737594 180.29772710008547,55.3876389717916 179.67863625986502,56.15541715803556 179.76707780873403,56.05944490956608 181.62435032846406,57.0191670776112 181.18214258598164,57.40305574727245 180.47461019689217,57.69097217544913 178.7942207744345,57.97888854006305 178.7057792255655,57.59500003955327 179.14798696851358,57.40305574727245 179.76707780873403,57.49902789702173 181.62435032846406,55.67555584467482 184.1891552368179,55.77152812143322 183.92383059114218,55.57958356058225 183.5700643970631,55.483611269737594 183.3047397513874,60.090273272944614 183.39318129979074,61.43387996091042 183.6585059450008,63.06540050776675 183.83538904273883,65.84857790963724 183.83538904273883,66.80829287879169 183.5700643970631,67.76800714212004 183.03941510571167,68.34383536165114 178.61733767716214,68.82369201700203 176.58318206015974,69.20757721434347 175.52188347745687,69.97534727002494 174.28370179748163,71.70282824407332 173.57616940885782,74.19807450321969 173.3108447631821,75.54166666662786" stroke="#4dd2ff" stroke-linecap="round" stroke-linejoin="round" stroke-width="0.5"><title>2023-11-18 1.0km</title><desc>10236386505</desc></polyline><polyline fill="none" points="17.117714813910425,79.45833333337214 20.050304300617427,84.52085287333466 21.11670047743246,88.28157324180938 21.51659904420376,90.45121633785311 22.316396176815033,91.75300104729831 24.849087096750736,99.12976479739882 25.382285185623914,99.70833333337214 25.382285185623914,99.12976479739882 24.849087096750736,98.40655388811138 23.382792353630066,94.06728284840938 22.58299522101879,92.62085704167839 22.316396176815033,90.16193073021714 21.11670047743246,87.12442927830853 19.78370525641367,84.23156639374793 19.65040573431179,82.64048999361694" stroke="#4dd2ff" stroke-linecap="round" stroke-linejoin="round" stroke-width="0.5"><title>2023-11-17 1.0km</title><desc>10231268371</desc></polyline><polyline fill="none" points="40.138010825030506,80.11156202177517 42.09450496174395,82.88778180221561 42.54600360803306,86.64383833552711 43.90049954969436,89.58335640921723 46.00749323517084,97.42205225571524 47.36198917590082,99.70833333337214 47.21148962620646,98.4018872914603 46.15799278393388,96.27891083422583 45.40549503918737,94.1559323478723 44.20149864722043,89.0934370001778 41.79350586421788,84.03093011502642 41.04100811854005,81.74463290069252 40.589509471319616,79.45833333337214" stroke="#4dd2ff" stroke-linecap="round" stroke-linejoin="round" stroke-width="0.5"><title>2023-11-16 1.0km</title><desc>10225818993</desc></polyline><polyline fill="none" points="62.73834346886724,79.67607600498013 63.741673906333745,83.59544136095792 65.34700260683894,87.95028567290865 67.55432956852019,92.08738183928654 68.35699391830713,95.35350630921312 69.76165653020144,98.18414460332133 71.16631914302707,99.70833333325572 67.55432956852019,92.95834871660918 65.94900086894631,87.95028567290865 61.333680857904255,79.45833333325572" stroke="#4dd2ff" stroke-linecap="round" stroke-linejoin="round" stroke-width="0.5"><title>2023-11-15 1.0km</title><desc>10219684298</desc></polyline><polyline fill="none" points="85.17195953754708,81.89443403633777 86.99605859722942,84.17827584256884 87.27668922115117,87.0711385149043 89.38141890522093,92.09557460516226 90.64425671473145,96.3587229406694 91.9070945251733,99.5560784334084 92.46835577394813,99.70833333337214 92.3280404615216,97.88127379107755 90.50394140277058,95.44519189326093 89.80236484110355,93.31361788243521 88.6798423435539,91.9433191451244 88.25889640673995,90.2685083465185 86.15416672360152,86.00534747436177 85.4525901619345,82.96022719249595 85.0316442255862,79.45833333337214" stroke="#4dd2ff" stroke-linecap="round" stroke-linejoin="round" stroke-width="0.5"><title>2023-11-14 1.0km</title><desc>10213806154</desc></polyline><polyline fill="none" points="108.54537082230672,82.24638900742866 109.62722249375656,86.35509553411976 112.60231458954513,93.98552807257511 113.27847188385203,96.4800862291595 114.63078647339717,99.26811812655069 115.03648085007444,99.70833333337214 114.22509209671989,98.24094893329311 112.33185167144984,93.69205043767579 112.19662021286786,92.51813946524635 110.84430562378839,89.28988073195796 108.81583374040201,85.62139856035355 108.0044449865818,83.12682683218736 107.46351915039122,79.45833333337214" stroke="#4dd2ff" stroke-linecap="round" stroke-linejoin="round" stroke-width="0.5"><title>2023-11-13 1.0km</title><desc>10208522228</desc></polyline><polyline fill="none" points="131.48794633941725,81.75947959395126 132.90172987710685,86.0549458238529 134.59827012289315,89.58335789793637 135.58791859960184,93.72539924143348 136.57756707584485,96.6401641467819 137.8499722601846,99.40151661774144 138.41548567498103,99.70833333337214 138.69824238307774,99.09469985682517 137.14308049110696,96.02652976836544 136.29481036867946,92.65153746039141 133.18448658520356,89.73676698305644 131.48794633941725,87.28222026536241 131.20518963132054,84.67426121421158 128.80175761692226,79.45833333337214" stroke="#4dd2ff" stroke-linecap="round" stroke-linejoin="round" stroke-width="0.5"><title>2023-11-12 1.0km</title><desc>10202270880</desc></polyline><polyline fill="none" points="153.18609941005707,83.23633354611229 156.52853641752154,90.79231313825585 157.6426820862107,94.57029251893982 158.75682775583118,97.59267102414742 159.4531687987037,98.95273990172427 160.14950984157622,99.70833333337214 160.288778050337,99.1038586103823 159.0353641724214,95.32588756165933 156.66780462581664,91.69902882294264 154.16097687045112,85.95648939884268 153.18609941005707,81.87625426938757 152.21122194919735,79.45833333337214" stroke="#4dd2ff" stroke-linecap="round" stroke-linejoin="round" stroke-width="0.5"><title>2023-11-11 1.0km</title><desc>10196068378</desc></polyline><polyline fill="none" points="176.8674343591556,82.47808094252832 179.15925339981914,89.40572296222672 181.28737108130008,95.08992722025141 182.26957924105227,98.82017899723724 182.92438468150795,99.70833333325572 183.25178740173578,99.35307163791731 182.76068332139403,97.22150036902167 180.30516292061657,91.71493255463429 177.8496425198391,86.5636158187408 174.57561531756073,81.41228810022585 174.2482125973329,79.45833333325572" stroke="#4dd2ff" stroke-linecap="round" stroke-linejoin="round" stroke-width="0.5"><title>2023-11-10 1.0km</title><desc>10191120477</desc></polyline><polyline fill="none" points="16.548901485279202,104.24332349712495 18.970679508522153,106.0982928982703 20.395254815928638,108.57158288673963 20.82262740842998,109.49906588252634 20.82262740842998,110.89028960908763 22.389660246204585,115.68227539851796 22.959490369074047,118.46471374866087 24.09915061527863,121.55630759662017 24.38406567648053,123.1021028162213 25.096353330649436,123.875 25.523725922219455,123.72042058606166 25.951098514720798,123.1021028162213 24.38406567648053,122.02004628209397 21.819830123335123,118.31013393669855 18.828221978154033,110.11738765251357 18.11593432398513,105.47996994620189 17.403646670281887,103.625" stroke="#4dd2ff" stroke-linecap="round" stroke-linejoin="round" stroke-width="0.5"><title>2023-11-09 1.0km</title><desc>10185506531</desc></polyline><polyline fill="none" points="39.799665975384414,105.25091993960086 41.2980685364455,108.20713464240544 41.842942194547504,109.68524036393501 43.61378158535808,113.52831015421543 44.29487365856767,116.1888926285319 44.15865524392575,114.56298153463285 44.431092073675245,115.59765238279942 44.97596573131159,119.58852066658437 46.2019314635545,123.28376201470383 46.74680512258783,123.875 47.42789719533175,123.57938102865592 47.700334024615586,123.13595249096397 46.2019314635545,121.80566629045643 45.11218414641917,120.03194998705294 44.431092073675245,118.11042222601827 43.477563170250505,114.85860183159821 42.115379024297,112.93706912617199 40.61697646277025,109.68524036393501 40.2083212188445,107.32027068792377 40.34453963348642,104.36405468103476 40.072102804202586,103.625" stroke="#4dd2ff" stroke-linecap="round" stroke-linejoin="round" stroke-width="0.5"><title>2023-11-08 1.0km</title><desc>10179505859</desc></polyline><polyline fill="none" points="65.33647836279124,114.81208925554529 69.90408654883504,123.875 70.16509273042902,123.73339234781452 69.51257727574557,122.17570748343132 68.33804945647717,120.19319765258115 67.55503091029823,118.21068578166887 65.9889938174747,116.51138826808892 65.46698145428672,115.52013069286477 65.0754721807316,112.12152941920795 64.81446599867195,111.13026958494447 63.248428906314075,108.43970460584387 62.33490726957098,103.625" stroke="#4dd2ff" stroke-linecap="round" stroke-linejoin="round" stroke-width="0.5"><title>2023-11-06 1.0km</title><desc>10167691585</desc></polyline><polyline fill="none" points="86.80325079616159,109.30667556147091 87.7430607569404,111.05488014931325 91.23378346674144,119.06746477528941 92.71062769088894,123.58363456081133 92.9791448218748,123.875 93.24766195332631,123.875 93.24766195332631,123.43795182509348 92.17359342705458,121.10702659829985 91.23378346674144,119.79587995330803 91.09952490124851,119.06746477528941 90.2939735064283,118.19336620881222 88.01157788839191,114.25991788762622 85.32640657247975,107.41278551763389 84.25233804667369,103.625" stroke="#4dd2ff" stroke-linecap="round" stroke-linejoin="round" stroke-width="0.5"><title>2023-11-05 1.1km</title><desc>10161301187</desc></polyline><polyline fill="none" points="107.46351998578757,103.625 110.16814856696874,109.64132579986472 111.38523142877966,114.92393837927375 113.27847143588588,118.59241111110896 113.95462858164683,121.52718444226775 114.63078572647646,123.875 115.03648001421243,123.43478479317855 114.90124858450145,122.99456948938314 113.14324000710621,119.76632096152753 113.00800857739523,119.32610484852921 111.38523142877966,116.83154504140839 110.70907428301871,114.48372119839769 108.95106570562348,111.2554589046631 108.54537141835317,108.46740999480244 107.73398284381256,105.53261746116914" stroke="#4dd2ff" stroke-linecap="round" stroke-linejoin="round" stroke-width="0.5"><title>2023-11-04 1.0km</title><desc>10155501797</desc></polyline><polyline fill="none" points="139.18291300861165,106.70096452429425 137.6475245496258,104.65032211167272 136.70267011318356,104.00949586252682 134.8129612407647,103.625 133.0413591726683,103.75316529721022 130.56111627677456,104.90665254509076 129.4981550355442,105.93197390250862 128.5533005995676,107.85444982117042 128.31708699045703,109.3924290293362 127.96276657702401,114.5190165862441 128.19898018566892,119.90191728936043 128.43519379524514,120.67090174683835 129.6162618403323,122.59336140565574 131.03354349546134,123.61867235659156 133.39567958610132,123.875 135.5216020680964,122.97785308305174 137.52941774576902,120.54273769422434 138.1199517683126,119.38926079589874 138.94669939996675,115.67249670787714 138.94669939996675,112.72471265657805 139.53723342251033,108.87976944388356 139.41912661818787,107.46995480707847 138.1199517683126,105.93197390250862 137.05699052708223,105.16298294090666 134.57674763118848,104.00949586252682 133.2775727813132,104.00949586252682 130.44300947291777,104.90665254509076 129.14383462257683,106.06013902975246 128.31708699045703,107.5981198210502 128.08087338134646,108.62343959498685 128.31708699045703,112.85287728451658 128.08087338134646,114.77534556796309" stroke="#4dd2ff" stroke-linecap="round" stroke-linejoin="round" stroke-width="0.5"><title>2023-11-03 1.0km</title><desc>10152446508</desc></polyline><polyline fill="none" points="152.05896987952292,103.625 153.16603443957865,106.02755155786872 154.11494691949338,110.31781604560092 155.69646772090346,113.4068015946541 158.0687489202246,119.58476042887196 158.54320516064763,120.61441864538938 159.33396556135267,123.360171667533 159.8084218017757,123.875 160.4410301214084,123.875 160.4410301214084,123.53178112418391 159.33396556135267,123.0169527165126 158.85950932092965,121.81568599003367 157.7524447608739,120.78602830367163 156.9616843611002,118.55510175903328 155.85461980011314,116.83900296594948 154.5894031599164,114.26485241041519 153.16603443957865,108.94493226753548 152.2171219587326,106.71399440569803" stroke="#4dd2ff" stroke-linecap="round" stroke-linejoin="round" stroke-width="0.5"><title>2023-11-02 1.1km</title><desc>10144903556</desc></polyline><polyline fill="none" points="175.3015983053483,105.0923982084496 175.57206118293107,106.70653499208856 176.65391269512475,109.20110745343845 178.54715284146369,115.95111142355017 181.79270737851039,122.70109256613068 182.73932745074853,123.875 182.19840169558302,122.11413859052118 180.1699301097542,119.03262738557532 179.0880785980262,115.07067741767969 177.7357642077841,113.16306907287799 176.1129869390279,109.64132579963189 174.7606725487858,103.625" stroke="#4dd2ff" stroke-linecap="round" stroke-linejoin="round" stroke-width="0.5"><title>2023-11-01 1.0km</title><desc>10138966680</desc></polyline><polyline fill="none" points="18.303378876298666,128.09617941139732 19.004955334588885,130.38002356828656 20.127477667760104,136.47026234073564 21.95157645829022,140.4289079385344 23.074098790995777,144.08303562016226 24.898197582457215,148.04166666662786 25.038512873928994,147.88941176596563 23.775675249285996,146.06235208921134 21.95157645829022,141.79920657444745 20.408108250703663,139.05860839539673 17.74211771087721,130.98904825141653 17.461487126536667,127.79166666662786" stroke="#4dd2ff" stroke-linecap="round" stroke-linejoin="round" stroke-width="0.5"><title>2023-10-31 1.0km</title><desc>10133123337</desc></polyline><polyline fill="none" points="40.570559663232416,130.19167716510128 41.26174234552309,133.79168761963956 41.26174234552309,135.1416899022879 42.78234424535185,137.69169177673757 46.929440336767584,146.5416735591134 47.62062301905826,147.8916674052598 47.89709609141573,148.04166666662786 44.71765575464815,141.74168820353225 43.335290391463786,137.84169178793672 41.8146884907037,134.69168924051337 39.60290390858427,127.79166666662786" stroke="#4dd2ff" stroke-linecap="round" stroke-linejoin="round" stroke-width="0.5"><title>2023-10-30 1.0km</title><desc>10127985445</desc></polyline><polyline fill="none" points="63.057827468030155,130.7226017251378 63.67170680081472,134.85254762531258 64.04003440076485,136.1847862303257 66.49555173330009,141.9134010715643 67.72331039886922,145.24398277048022 69.56494839815423,147.77522076736204 70.05605186522007,148.04166666662786 70.17882773093879,147.6419978030026 69.07384493201971,145.91009837540332 67.47775866603479,142.44629455474205 64.65391373354942,137.25057640939485 63.54893093416467,133.3870840285672 62.68949986761436,131.65517097723205 62.566724001429975,128.9906861272175 62.32117226859555,127.79166666662786" stroke="#4dd2ff" stroke-linecap="round" stroke-linejoin="round" stroke-width="0.5"><title>2023-10-28 1.0km</title><desc>10115543824</desc></polyline><polyline fill="none" points="86.12350542237982,131.9916831862647 87.22939787618816,135.59169046452735 88.47352688619867,138.44169172167312 89.57941934000701,142.49168665974867 91.23825802095234,146.39167418773286 91.92944080382586,147.89166740584187 92.62062358716503,148.04166666662786 92.75886014429852,147.89166740584187 92.48238703096285,146.99167160713114 91.65296769049019,144.7416803742526 88.88823655666783,139.34169129177462 86.67645164905116,133.34168666007463 85.29408608190715,130.3416777276434 84.74113985523582,127.79166666662786" stroke="#4dd2ff" stroke-linecap="round" stroke-linejoin="round" stroke-width="0.5"><title>2023-10-27 1.0km</title><desc>10110442644</desc></polyline><polyline fill="none" points="108.50559645984322,130.91851812019013 111.11277982359752,139.70345589309 112.07332106260583,142.3835988137871 113.0338623020798,144.02146218635608 114.13162371795624,147.14828858268447 114.54328424902633,147.74387401598506 115.3666053111665,148.04166666662786 115.50382548756897,147.59497767395806 115.3666053111665,146.99939219711814 113.99440354062244,145.21263471641578 111.93610088573769,141.6391150249401 109.46613769978285,134.34315941098612 107.81949557503685,131.66300584981218 106.99617451289669,127.79166666662786" stroke="#4dd2ff" stroke-linecap="round" stroke-linejoin="round" stroke-width="0.5"><title>2023-10-26 1.0km</title><desc>10104873905</desc></polyline><polyline fill="none" points="132.7357644313015,137.47647490771487 135.84608684293926,145.2536353842588 137.33363234438002,147.89492827525828 137.87455798033625,148.04166666662786 137.73932657158002,146.57428226654883 134.08807852305472,140.26451705396175 132.05960738519207,135.12864692218136 130.3015990657732,131.46016016590875 129.62544201966375,127.79166666662786" stroke="#4dd2ff" stroke-linecap="round" stroke-linejoin="round" stroke-width="0.5"><title>2023-10-25 1.0km</title><desc>10098978222</desc></polyline><polyline fill="none" points="152.50399029208347,127.79166666662786 152.36777175730094,128.8263431439409 153.18508296646178,132.225990677136 154.27483124518767,134.44314901495818 154.95592391910031,137.10373579268344 156.18189073260874,140.6511793526588 158.77004289394245,145.67671368212905 159.58735410310328,147.74604769563302 159.859791173134,148.04166666662786 160.13222824316472,147.89385718642734 159.99600970791653,145.97233295696788 158.49760582484305,143.16394808748737 157.40785754658282,141.53803926485125 156.04567219736055,138.4340278612217 155.77323512826115,136.80811521364376 154.13861270993948,134.29533853533212 153.18508296646178,132.07818003429566 152.91264589643106,129.4175866061123 152.50399029208347,127.79166666662786" stroke="#4dd2ff" stroke-linecap="round" stroke-linejoin="round" stroke-width="0.5"><title>2023-10-24 1.0km</title><desc>10092835699</desc></polyline><polyline fill="none" points="176.6689931480214,131.28808432491496 178.68287074705586,138.42658455425408 179.6226802924648,140.17478477221448 180.69674834469333,144.5452785693342 182.30785042373464,147.4589357455261 182.97914295690134,148.04166666662786 182.30785042373464,147.31325298827142 181.36804087786004,144.9823274188675 178.95138775976375,142.06866660097148 178.41435373341665,141.04888430284336 177.8773197075352,137.6981673417613 176.2662176284939,134.49312842520885 175.19214957626536,131.14240037905984 174.52085704356432,127.79166666662786" stroke="#4dd2ff" stroke-linecap="round" stroke-linejoin="round" stroke-width="0.5"><title>2023-10-23 1.0km</title><desc>10087395010</desc></polyline><polyline fill="none" points="14.69377563544549,152.05545711726882 15.051794713363051,151.95833333331393 17.602680643554777,152.15258088690462 18.72149026207626,152.44395211013034 18.99000457045622,152.58963767357636 19.571785572450608,153.02669417095603 19.974557034904137,153.51231216220185 20.869604729581624,155.16341066139285 21.317128577269614,157.0087511582533 21.89890957879834,157.9799809277174 22.167423887178302,158.75696371495724 22.793957273475826,160.16524268721696 23.241481121163815,161.6220798434224 23.912766892230138,162.78754725470208 24.2260335853789,163.12747486226726 24.62880504806526,163.80732955259737 24.852566971676424,165.2641586754471 24.98682412598282,165.65264589898288 25.34484320366755,166.18681545805885 25.43434797343798,167.01234938157722 25.568605127511546,167.35227481479524 27.537710056174546,172.01409167813836 27.80622436455451,172.20833333331393 27.80622436455451,171.96553125529317 27.40345290186815,171.57704774482409 26.95592905464582,170.50871691276552 26.508405207190663,169.58606616745237 25.300090819131583,165.8468894250109" stroke="#4dd2ff" stroke-linecap="round" stroke-linejoin="round" stroke-width="0.5"><title>2023-10-22 1.5km</title><desc>10080655811</desc></polyline><polyline fill="none" points="40.52918930258602,151.95833333331393 41.2396622505039,152.47229997970862 39.96081094397232,152.2667133664363 41.950135198421776,154.83654168556677 42.13959465129301,155.4532990763546 41.997500061756,155.96726315288106 41.334391976939514,156.327037781768 41.14493252406828,156.68681222532177 41.192297387402505,157.3035679833847 41.57121629291214,158.7940588190686 41.997500061756,159.87337778520305 42.47114869370125,161.51805110037094 43.32371623115614,163.00853295001434 43.46581082069315,163.5738873029477 43.986824315972626,164.49901162151946 44.31837835838087,164.91017759247916 44.36574322148226,165.16715620137984 44.697297264123335,165.4755304075079 44.93412157986313,165.98948711535195 45.265675622504205,166.96600381919416 45.59722966491245,167.6341460411786 45.549864801811054,168.97042856935877 46.165608023060486,170.1525225227815 46.35506747616455,170.7178710983717 46.68662151833996,171.3346144775278 47.25499987672083,172.05414773215307 47.53918905602768,172.20833333331393 46.449797202367336,170.6664757921826 46.21297288639471,169.8441503798822 45.739324254216626,168.81624225410633 45.549864801811054,168.14810116199078 44.93412157986313,167.2743772318354 44.413108084816486,165.78390447760466" stroke="#4dd2ff" stroke-linecap="round" stroke-linejoin="round" stroke-width="0.5"><title>2023-10-20 1.4km</title><desc>10069668027</desc></polyline><polyline fill="none" points="62.17527352948673,151.95833333331393 62.27171675954014,152.74322778818896 63.04326259996742,154.62697094748728 63.23614906030707,155.77814486814896 64.82746235630475,159.65026166231837 64.97212720150128,160.17351907264674 65.06857043178752,160.95840446691727 65.26145689189434,161.48166091559688 66.41877565253526,163.10375346138608 67.04565664823167,164.35956450609956 67.43142956844531,165.6153733349638 67.76898087374866,166.2956021921127 67.96186733385548,167.34210685663857 68.20297540910542,167.86535861185985 68.829856404569,169.48743660835316 68.92629963462241,170.11533677583793 69.84251032047905,171.9990339545766 70.08361839549616,172.20833333331393 70.22828324069269,172.20833333331393 70.32472647051327,172.1560084943194 70.27650485583581,172.10368365154136 69.31207255506888,170.90021120611345 68.87807801971212,169.4351115693571 67.96186733385548,167.76070829154924 67.81720248865895,167.08048083470203 67.72075925860554,165.9293251960189" stroke="#4dd2ff" stroke-linecap="round" stroke-linejoin="round" stroke-width="0.5"><title>2023-10-19 1.3km</title><desc>10064004415</desc></polyline><polyline fill="none" points="84.18378014536574,151.95833333337214 86.16909312503412,154.54345140454825 86.03673892654479,156.41047899518162 86.30144732398912,158.27750480151735 87.22792671527714,161.58069993299432 88.5514687015675,163.73495461873244 89.87501068832353,167.46899044618476 92.5220946627669,171.77748445491306 92.91915725870058,172.20833333337214 93.3162198541686,172.0647170508746 91.59561527147889,170.34132084075827 88.41911450307816,164.16580527077895 87.62498931074515,161.4370828694664 85.37496793316677,156.69771385064814" stroke="#4dd2ff" stroke-linecap="round" stroke-linejoin="round" stroke-width="0.5"><title>2023-10-18 1.0km</title><desc>10058081424</desc></polyline><polyline fill="none" points="107.71554141491652,153.18561165465508 108.84656816208735,159.78222026547883 111.81551337428391,167.60607786185574 113.79481018148363,171.74810824298766 114.64308024197817,172.20833333337214 115.06721527222544,172.20833333337214 115.34997195890173,171.59469985740725 114.36032355576754,170.36743236274924 113.08791846502572,168.37312114564702 111.39137834357098,164.69131081330124 110.68448662711307,162.54358511976898 107.71554141491652,156.5606233170256 107.43278472870588,155.6401661322452 107.15002804156393,151.95833333337214" stroke="#4dd2ff" stroke-linecap="round" stroke-linejoin="round" stroke-width="0.5"><title>2023-10-17 1.0km</title><desc>10051702317</desc></polyline><polyline fill="none" points="129.2280667326413,152.42564320727251 130.66360110323876,154.91796079440974 132.8169026589021,160.52566464548 133.96533015556633,162.70643435709644 135.25731108849868,166.75642929505557 136.83639889676124,170.80641649197787 137.4106126446277,171.8967963376781 138.12837982969359,172.20833333337214 138.2719332673587,172.0525648414623 138.12837982969359,171.58525929611642 136.54929202236235,169.24873002478853 134.395990466699,163.95258747017942 132.8169026589021,160.68143398489337 131.5249217255041,154.60642125597224 130.80715453997254,151.95833333337214" stroke="#4dd2ff" stroke-linecap="round" stroke-linejoin="round" stroke-width="0.5"><title>2023-10-16 1.0km</title><desc>10046279660</desc></polyline><polyline fill="none" points="152.10290070716292,151.95833333337214 152.69534346461296,153.24405319569632 153.28778622020036,156.13692012173124 154.62078242190182,160.63692773098592 156.39811068959534,163.3690706884954 158.47166033554822,171.0833382543642 159.21221378166229,171.8869062269805 160.24898860417306,172.20833333337214 160.3970992937684,171.8869062269805 160.24898860417306,170.92262462433428 158.3235496468842,168.19049110729247 157.2867748234421,164.9762120094383 156.1018893122673,163.04764228244312 153.28778622020036,156.45834954397287 152.25101139675826,151.95833333337214" stroke="#4dd2ff" stroke-linecap="round" stroke-linejoin="round" stroke-width="0.5"><title>2023-10-15 1.0km</title><desc>10039610121</desc></polyline><polyline fill="none" points="174.53601107932627,153.42809761082754 174.98750989232212,158.16399811243173 176.19150672666728,161.5934370001778 177.69650277029723,163.71642032451928 178.59950039628893,166.65593234763946 181.15799366869032,171.2284988736501 181.75999208539724,171.88172189483885 182.51249010767788,172.20833333337214 182.96398892067373,171.88172189483885 182.96398892067373,171.39180464681704 179.95399683434516,168.94221678713802 177.9975019786507,165.34948303981218 177.24500395730138,162.24666285456624 175.43900870531797,158.16399811243173 174.53601107932627,154.73455393034965 174.68651068396866,152.6115620211931 174.53601107932627,151.95833333337214" stroke="#4dd2ff" stroke-linecap="round" stroke-linejoin="round" stroke-width="0.5"><title>2023-10-14 1.0km</title><desc>10033377496</desc></polyline><polyline fill="none" points="16.65856931451708,176.44643003679812 19.3245613258332,179.66072780278046 19.6207826603204,182.0714480257593 22.1386640034616,189.7857348738471 24.508434679359198,195.41071853914764 25.248988015577197,196.375 25.84143068548292,196.375 25.84143068548292,195.89285932295024 25.693320017307997,195.41071853914764 24.360324012115598,194.4464366529137 22.8792173396796,191.71430233237334 21.25,186.57145199575461 18.287786655128002,179.9821573193185 17.843454653397202,177.73214971018024 17.10290131624788,176.125" stroke="#4dd2ff" stroke-linecap="round" stroke-linejoin="round" stroke-width="0.5"><title>2023-10-13 1.0km</title><desc>10028006924</desc></polyline><polyline fill="none" points="39.405044354032725,176.125 40.82961997529492,177.97996994643472 41.68436534842476,179.52577698463574 41.82682291138917,181.5353244356811 41.68436534842476,183.6994503120659 43.2513985321857,186.9456349503016 45.10334684047848,191.89219238027 46.955295148771256,195.29294386308175 47.38266783533618,195.9112617240753 48.094955645501614,196.375 48.094955645501614,195.60210281633772 46.527922462206334,193.59256880928297 45.10334684047848,191.11929354909807 43.2513985321857,186.01815413648728 42.111738034989685,184.008610969875 41.541907786391675,182.30822679039557" stroke="#4dd2ff" stroke-linecap="round" stroke-linejoin="round" stroke-width="0.5"><title>2023-10-12 1.0km</title><desc>10021974100</desc></polyline><polyline fill="none" points="63.8824395830743,178.99628079403192 64.43951262207702,182.01867729763035 64.30024436255917,183.22763465484604 65.55365870054811,187.30786048504524 66.52853651950136,189.12129158736207 67.5034143384546,192.44591112039052 68.89609693642706,195.77052527631167 69.17463345639408,196.07276266010012 69.87097475584596,196.375 69.73170649539679,195.77052527631167 68.19975563744083,191.84143524174578 66.52853651950136,188.97017238975968 64.30024436255917,183.83211306645535 63.74317132262513,181.86755757802166 63.46463480358943,178.99628079403192 62.629025244154036,176.125" stroke="#4dd2ff" stroke-linecap="round" stroke-linejoin="round" stroke-width="0.5"><title>2023-10-10 1.0km</title><desc>10009069592</desc></polyline><polyline fill="none" points="85.31949557503685,178.65626107272692 86.28003681404516,181.33641640702263 87.24057805305347,184.90995133598335 89.29888070886955,189.37686113012023 90.94552283268422,195.03493272676133 91.90606407169253,196.375 92.18050442589447,195.9283110073302 92.31772460276261,194.290450524888 91.3571833637543,191.4614156623138 89.29888070886955,187.88789229327813 86.96613769978285,181.33641640702263 86.28003681404516,178.35846581635997 85.18227539770305,176.125" stroke="#4dd2ff" stroke-linecap="round" stroke-linejoin="round" stroke-width="0.5"><title>2023-10-09 1.0km</title><desc>10003389142</desc></polyline><polyline fill="none" points="107.12701159808785,176.125 108.139675416518,177.3808195394231 109.1523392344825,179.73547918454278 109.73100427305326,184.4447906849673 111.9009981690906,189.15409179858398 113.78165954491124,194.4912871712586 114.64965710323304,196.06104797730222 115.37298840191215,196.375 115.37298840191215,195.11919163237326 112.62432946776971,190.72385652828962 109.0076729748398,181.93315917695872 107.56101037748158,176.2819774830714" stroke="#4dd2ff" stroke-linecap="round" stroke-linejoin="round" stroke-width="0.5"><title>2023-10-08 1.0km</title><desc>9996447828</desc></polyline><polyline fill="none" points="131.1506583634764,180.17501667432953 131.8171562193893,182.63395130157005 133.816649785731,187.98573957325425 134.48314764164388,190.30002188449726 136.61594077944756,195.6517893030541 137.28243863536045,196.375 137.41573820635676,195.79643146391027 137.41573820635676,195.21786275773775 134.8830463550985,190.7339495148044 133.68335021473467,188.13038229721133 131.550557076931,181.76609237212688 130.8840592210181,178.43929626303725 130.0842617941089,176.125" stroke="#4dd2ff" stroke-linecap="round" stroke-linejoin="round" stroke-width="0.5"><title>2023-10-07 1.0km</title><desc>9989974159</desc></polyline><polyline fill="none" points="154.59557300293818,182.15693684492726 155.65440628072247,185.6037495364435 156.44853123975918,187.32715360203292 158.03678115690127,194.07713821833022 158.43384363641962,195.36968580295797 159.22796859499067,196.375 159.88973939372227,196.375 160.1544477129355,195.8005348078441 160.02209355402738,195.36968580295797 158.43384363641962,193.0718228383921 156.84559371881187,189.6250233236933 156.31617707991973,187.32715360203292 153.5367397251539,180.57714566227514 153.13967724563554,178.1356476843357 152.3455522870645,176.125" stroke="#4dd2ff" stroke-linecap="round" stroke-linejoin="round" stroke-width="0.5"><title>2023-10-06 1.0km</title><desc>9984428862</desc></polyline><polyline fill="none" points="174.39044428616762,176.125 176.68494729418308,182.26641263160855 178.21461596526206,187.41190765006468 180.81505270767957,193.8852556941565 181.88582077715546,196.04303425177932 182.34472137875855,196.375 182.956588848494,196.375 183.1095557147637,196.04303425177932 182.6506551131606,195.21311966574285 180.81505270767957,192.55739094223827 179.74428463727236,190.39960905362386 177.90868223086,185.58608817961067 177.14384789578617,183.0963319762377 175.00231175590307,179.1127163397614 175.00231175590307,177.61885866406374" stroke="#4dd2ff" stroke-linecap="round" stroke-linejoin="round" stroke-width="0.5"><title>2023-10-04 1.0km</title><desc>9971682885</desc></polyline><polyline fill="none" points="18.18508319184184,202.65664068912156 18.866175815463066,205.02161193010397 19.547268439549953,206.64752804441378 20.09214253909886,209.1603049073601 22.680294510442764,214.3336591485422 22.816513035446405,216.10737753810827 23.633824184536934,219.6548096233746 23.906261233612895,220.09823819377925 24.723572382703424,220.54166666662786 24.723572382703424,219.0635713771917 22.952731560450047,215.81175791530404 21.726764837279916,213.0033693293808 21.045672212727368,211.67307863000315 20.36457958864048,209.75154606590513 19.00239434093237,206.94314901495818 18.457520240917802,204.72599067701958 18.18508319184184,202.50882989447564 17.776427617296576,200.29166666662786" stroke="#4dd2ff" stroke-linecap="round" stroke-linejoin="round" stroke-width="0.5"><title>2023-10-03 1.0km</title><desc>9965060084</desc></polyline><polyline fill="none" points="40.04845587722957,201.12844709400088 41.899227938614786,207.1532570925774 42.20768994837999,209.83094530692324 43.28730698488653,211.16978823265526 44.05846201069653,213.1780511450488 45.44654105603695,218.36605546902865 46.52615809161216,220.03960272856057 47.29731311742216,220.54166666662786 47.45154412277043,220.37431203282904 46.988851107656956,219.03547452029306 45.29231005162001,215.8557322723791 42.516151959076524,209.1615235483041 40.81961090210825,204.14085408637766 40.511148892343044,200.29166666662786" stroke="#4dd2ff" stroke-linecap="round" stroke-linejoin="round" stroke-width="0.5"><title>2023-10-02 1.0km</title><desc>9958643020</desc></polyline><polyline fill="none" points="63.04014479368925,203.8556801606901 63.33873597532511,205.31368401984219 66.62323897797614,213.08968830667436 68.265490478836,218.1116764920298 69.16126402467489,219.89366954844445 70.05703757051378,220.54166666662786 70.20633316133171,220.37966740492266 70.05703757051378,219.7316702393582 67.07112575042993,215.19568474590778 64.234509521164,208.2296888428973 62.89084920194,204.0176806373056 62.29366683866829,200.29166666662786" stroke="#4dd2ff" stroke-linecap="round" stroke-linejoin="round" stroke-width="0.5"><title>2023-10-01 1.0km</title><desc>9952075403</desc></polyline><polyline fill="none" points="85.84252363303676,203.22646200540476 87.05960676353425,205.7210346502252 87.60053259832785,208.21560417755973 88.00622697547078,210.56343147263397 90.03469885932282,216.2862489343388 91.79270782507956,219.95471303607337 92.60409657796845,220.54166666662786 92.8745594965294,220.1014514598064 90.16993031837046,215.99277151515707 88.95284718833864,213.2047338783741 88.5471528111957,211.73734408442397 86.65391238685697,207.62864692218136 85.57206071494147,203.07972234068438 84.62544050300494,200.29166666662786" stroke="#4dd2ff" stroke-linecap="round" stroke-linejoin="round" stroke-width="0.5"><title>2023-09-30 1.0km</title><desc>9945549317</desc></polyline><polyline fill="none" points="108.11479443218559,200.29166666662786 109.45845396164805,202.5596759208711 109.90634047053754,204.34168155433144 111.1007044967264,207.25768766424153 111.69788650982082,211.63168959354516 112.14577301964164,212.9276884975843 113.93731905706227,217.30167917197105 114.38520556688309,220.055668846122 114.6837965734303,220.37966740503907 115.13168308325112,220.54166666662786 115.28097858652472,220.2176681313431 112.59365952853113,215.35768438887317 110.80211349017918,211.14568980794866 110.20493147801608,208.71568927180488 108.11479443218559,203.85568016127218 107.21902141347528,200.9396695488831" stroke="#4dd2ff" stroke-linecap="round" stroke-linejoin="round" stroke-width="0.5"><title>2023-09-28 1.0km</title><desc>9933629332</desc></polyline><polyline fill="none" points="129.7914034742862,202.59281292685773 130.9224310531281,206.58146043377928 133.04310776293278,209.4962364824023 134.45689223660156,214.71214135515038 136.43619049945846,218.24054019979667 137.00170428911224,220.23484995088074 137.5672180778347,220.54166666662786 137.84997497312725,220.08144157601055 137.5672180778347,219.4678079644218 136.43619049945846,217.9337231455138 133.18448621034622,211.33714557311032 131.48794484185055,206.73486980074085 129.65002502687275,200.29166666662786" stroke="#4dd2ff" stroke-linecap="round" stroke-linejoin="round" stroke-width="0.5"><title>2023-09-27 1.0km</title><desc>9927137811</desc></polyline><polyline fill="none" points="157.93223653757013,200.29166666668607 157.5284997683484,202.2388089672313 157.12476299959235,203.3584131966927 156.81074551236816,204.72140709421365 154.97150023118593,208.5669818915194 154.02944777044468,210.17335462279152 153.85000920621678,210.85484490689123 153.9397284882143,211.3903010667418 154.16402669320814,212.16914561681915 154.83692130818963,213.82418724382296 155.06121951318346,214.26228580548195 155.33037735940889,215.04112697707023 156.22757017915137,216.16070955613395 156.6313069483731,217.0369032972376 157.07990335859358,217.71838651661528 157.4387804865837,218.69193275592988 157.9770961785689,219.4220914959442 158.6499907935504,220.54166666668607" stroke="#4dd2ff" stroke-linecap="round" stroke-linejoin="round" stroke-width="0.5"><title>2023-09-26 1.0km</title><desc>9920397094</desc></polyline><polyline fill="none" points="178.65543065872043,200.29166666668607 177.77278347173706,203.2334170009708 176.89013628475368,204.80690754775424 176.0705353252124,205.83309560123598 175.62921173195355,206.6540452290792 175.44007304892875,207.47499413252808 175.50311927613802,208.50117924326332 175.8183504147455,209.32212651707232 176.57490514637902,210.48513391497545 176.89013628475368,211.64813985925866 177.5205985608045,213.15320421737852 178.71847688616253,214.65826614119578 180.73595617059618,218.76296810543863 182.05992695130408,220.54166666668607" stroke="#4dd2ff" stroke-linecap="round" stroke-linejoin="round" stroke-width="0.5"><title>2023-09-25 1.0km</title><desc>9914573673</desc></polyline><polyline fill="none" points="22.742930005071685,224.45833333331393 22.24528667028062,225.21434336691163 22.145758003229275,225.59234809182817 22.24528667028062,226.07835388096282 22.295051003806293,226.56435934826732 21.299764333525673,228.40037710027536 21.05094266589731,229.64238650619518 20.702592331450433,230.56039210839663 18.612490324070677,234.23240304231877 18.562725990545005,234.66440312145278 18.761783324414864,235.52840251784073 19.309190993197262,236.3924008976901 19.607776994351298,237.14839864632813 20.05565599561669,237.90439561667154 20.304477663245052,238.66039180883672 20.951413999078795,239.68638539657695 21.44905733386986,240.71237755101174 21.99646500288509,241.30637235374888 22.145758003229275,241.84636721207062 22.494108337676153,242.27836281282362 23.24057334032841,243.574348090915 23.787981008877978,244.16834057902452 23.937274009454995,244.70833333331393" stroke="#4dd2ff" stroke-linecap="round" stroke-linejoin="round" stroke-width="0.5"><title>2023-09-24 1.0km</title><desc>9907510217</desc></polyline><polyline fill="none" points="44.504921606509015,224.45833333331393 44.08216550690122,225.1136803429108 43.780196864390746,225.76902687054826 43.59901567874476,226.62097663618624 43.5386219501961,227.7350635623443 42.51192856533453,229.11128666636068 41.90799128031358,230.68411046854453 41.36444772337563,231.47052132879617 41.0020853523165,232.51906806329498 40.94169162353501,233.63314761698712 42.209959922824055,236.84431030391715 42.69310975074768,237.82731697696727 44.2633466925472,240.31759569660062 44.92767770611681,241.95593316521263 45.77318990556523,243.00446756463498 46.25633973395452,243.85640085610794 46.55830837669782,244.70833333331393" stroke="#4dd2ff" stroke-linecap="round" stroke-linejoin="round" stroke-width="0.5"><title>2023-09-23 1.0km</title><desc>9901004991</desc></polyline><polyline fill="none" points="67.02756968373433,224.45833333331393 66.62438540323637,225.20834193611518 66.22120112297125,226.5208553984412 65.29963705362752,228.45837156730704 64.37807298428379,229.77088001114316 63.571704423520714,231.95838958065724 63.514106668997556,233.14589241793146 63.62930217804387,233.8333933026297 64.78125726454891,236.58339128014632 64.9540505274199,237.3958889800706 65.18444154481404,237.83338741987245 65.99081010557711,238.83338300831383 66.62438540323637,240.0833758393419 67.14276519208215,241.39586633403087 68.00673150736839,242.64585539727705 68.98589333100244,244.70833333331393" stroke="#4dd2ff" stroke-linecap="round" stroke-linejoin="round" stroke-width="0.5"><title>2023-09-22 1.0km</title><desc>9895405405</desc></polyline><polyline fill="none" points="89.82345788786188,224.45833333331393 89.65831052046269,225.05568569112802 89.32801578589715,225.41409689502325 88.61237719398923,226.72826995630749 88.33713158173487,227.6840308473911 87.51139474497177,229.77475387667073 86.63060878613032,231.5667979050777 86.08011756138876,232.88096101366682 85.91497019398957,233.53804177069105 85.91497019398957,233.95618379395455 86.08011756138876,234.5535291681299 86.4104122959543,235.15087410318665 87.12605088809505,237.00264061050257 87.84168947977014,238.31679492612602 88.22703333687969,239.27254218421876 88.94267192855477,240.46722467575455 89.3830649079755,241.00483122392325 89.71335964277387,241.9605753198848 90.59414560184814,243.5136570779141 91.5850298057776,244.70833333331393" stroke="#4dd2ff" stroke-linecap="round" stroke-linejoin="round" stroke-width="0.5"><title>2023-09-21 1.0km</title><desc>9889267953</desc></polyline><polyline fill="none" points="113.311701788567,224.45833333331393 112.58904342958704,226.6263600223465 112.1639502774924,228.33309916598955 111.4838012335822,229.76306622481206 110.67612424399704,232.16171332629165 109.27331684133969,234.79098903591512 108.89073300431482,236.22094137454405 108.93324231938459,236.5438333870261 109.1882982107345,237.23574428271968 109.74091930896975,238.43505469430238 110.08099383092485,239.44985402107704 110.93118013557978,240.64916020003147 111.44129191851243,241.61782890179893 111.73885712493211,242.30973420158261 112.07893164665438,242.9093848442426 112.63155274488963,243.32452726108022 113.311701788567,244.33931867918 113.35421110410243,244.52382603340084 113.60926699545234,244.70833333331393" stroke="#4dd2ff" stroke-linecap="round" stroke-linejoin="round" stroke-width="0.5"><title>2023-09-20 1.0km</title><desc>9882714971</desc></polyline><polyline fill="none" points="135.42906590504572,224.45833333331393 134.99730610102415,225.55153578415047 134.1817598042544,227.94616382510867 134.13378649251536,228.72701904381393 133.84594662301242,229.14347480831202 133.5101334422361,229.92432870634366 133.3182401957456,230.6531249009422 132.93445370299742,231.64220425055828 131.83106753672473,233.41213226976106 131.5432276672218,234.45326433179434 131.44728104420938,235.3902818786446 131.5432276672218,236.32729818520602 131.83106753672473,237.3684259604197 132.16688071750104,238.09721449221252 133.22229357250035,239.91918253951008 133.75,240.6479684455553 134.22973311552778,241.9493699836312 134.70946623152122,242.78226571256528 135.189199347049,243.45899277093122 135.71690577454865,243.97955160652054 136.05271895579062,244.70833333331393" stroke="#4dd2ff" stroke-linecap="round" stroke-linejoin="round" stroke-width="0.5"><title>2023-09-19 1.0km</title><desc>9876194288</desc></polyline><polyline fill="none" points="156.10094494954683,224.45833333331393 155.7432128288783,225.04060821142048 155.14699262776412,226.20515681174584 154.96812656731345,226.98152168880915 153.89493020484224,228.8577339805197 153.06022192304954,230.60454872477567 152.88135586259887,231.2515162685886 152.94097788305953,231.9631800170755 153.29871000372805,232.8689330467605 153.83530818484724,233.83938168658642 154.31228434597142,235.1980079842615 154.96812656731345,236.62132852245122 155.68359080865048,237.9152542866068 156.33943303022534,238.75630501308478 157.1145192917902,240.05022763781017 157.59149545268156,241.53823630412808 158.4262037347071,242.8321548383683 158.84355787560344,243.99667989241425 159.61864413740113,244.70833333331393" stroke="#4dd2ff" stroke-linecap="round" stroke-linejoin="round" stroke-width="0.5"><title>2023-09-18 1.0km</title><desc>9870505463</desc></polyline><polyline fill="none" points="178.95347620127723,224.45833333331393 178.66279591363855,225.0260968549992 178.2558435110841,226.91863921360346 177.73261899338104,227.80182421894278 177.50007476331666,228.49575465667294 176.221081498079,230.57754260260845 175.75599303795025,231.7130611714092 175.46531275031157,232.72240974853048 175.69785698037595,233.41633620654466 176.9768502456136,236.1920364263351 177.61634687846527,237.20137973449891 178.0814353383612,238.27380569832167 178.83720408612862,239.28314655757276 179.2441564889159,239.97706770943478 179.76738100638613,241.61724274681183 182.03468724968843,244.70833333331393" stroke="#4dd2ff" stroke-linecap="round" stroke-linejoin="round" stroke-width="0.5"><title>2023-09-16 1.0km</title><desc>9856514700</desc></polyline><polyline fill="none" points="20.97007456398569,248.625 20.348018039716408,250.51501889922656 19.53934455802664,251.79752950766124 17.859791942173615,255.0375483268872 17.79758628970012,255.78005102928728 17.859791942173615,256.6575534485164 18.23302585678175,257.53505502908956 18.855082381283864,258.4800557931885 19.414933253079653,259.7625552743557 20.41022369195707,261.450051862048 21.6543367409613,263.8125418740674 21.778748045675457,264.6900366158807 22.214187612757087,265.027534370136 22.71183283231221,265.7025295064668 23.520506313769147,267.05251829046756 24.391385447932407,267.7950112755061 24.57800240535289,268.2675064987852 24.70241371029988,268.875" stroke="#4dd2ff" stroke-linecap="round" stroke-linejoin="round" stroke-width="0.5"><title>2023-09-15 1.0km</title><desc>9850671982</desc></polyline><polyline fill="none" points="44.26480475603603,248.625 43.23519524396397,251.34830099134706 42.0768845428247,253.02417464280734 41.5620797870215,253.931938302645 40.789872652851045,255.88711862289347 40.59682086925022,256.58539633319015 40.59682086925022,257.1440181314829 40.789872652851045,257.8422949176165 41.5620797870215,259.93712219555164 42.26993632642552,261.3336711471202 44.00740237813443,264.33624443912413 44.71525891753845,265.66295984660974 44.84396010637283,266.43105739331804 45.35876486264169,266.9198464176734 46.19532259111293,268.246558215993 46.90317913074978,268.875" stroke="#4dd2ff" stroke-linecap="round" stroke-linejoin="round" stroke-width="0.5"><title>2023-09-14 1.0km</title><desc>9844236351</desc></polyline><polyline fill="none" points="63.031652596080676,248.625 63.40210985112935,248.9264932339429 63.5410313217435,249.22798633488128 63.63364563579671,249.88122093037236 63.91148857702501,250.43395740829874 64.09671720466577,251.99166689504636 64.09671720466577,252.74539601715514 64.00410289084539,253.14738454233157 64.09671720466577,253.64986986643635 64.32825298910029,254.2528517676401 64.23563867527992,254.7553362788749 64.28194583207369,255.00657839589985 64.74501740117557,255.8608009031159 65.16178181325085,257.1170085329795 65.53223906829953,257.8204837971134 65.99531063716859,258.47371017967816 66.50468936283141,258.92594346334226 66.6436108336784,259.22743215295486 66.78253230429254,259.88065719080623 67.15298955957405,260.53388160432223 67.5697539714165,261.73983272747137 68.12543985410593,262.7950382147101 68.40328279556707,263.69949876429746 68.54220426618122,264.45321497449186 68.82004720764235,265.05618734436575 69.32942593330517,266.7143586183083 70.02403328684159,268.02079375850735 70.07034044386819,268.2217835584306 70.02403328684159,268.37252586957766 69.46834740391932,268.875 69.74619034538046,268.674010392162 69.8851118159946,268.37252586957766 69.97772612981498,268.12128866591956 69.93141897302121,267.76955642551184 69.65357603179291,267.4178240040201 68.82004720764235,265.60891154926503 68.40328279556707,264.25222406635294 67.52344681462273,262.29255961440504 67.10668240254745,260.38313756434945 66.87514661811292,259.83040913322475 65.99531063716859,258.67470278718974 65.11547465622425,257.01651200756896 64.69871024414897,255.6598074681242 64.55978877376765,254.7553362788749 64.18933151825331,253.8006153916358 63.44841700815596,252.19266140891705 63.2631883805152,251.43893167714123 62.614888184005395,250.23296237713657 62.475966713391244,249.57972811779473 62.42965955636464,248.77574663364794" stroke="#4dd2ff" stroke-linecap="round" stroke-linejoin="round" stroke-width="0.5"><title>2023-09-13 1.0km</title><desc>9837636972</desc></polyline></svg>