<?xml version="1.0" encoding="utf-8" ?>
<svg baseProfile="full" height="300mm" version="1.1" viewBox="0,0,200,300" width="200mm" xmlns="http://www.w3.org/2000/svg" xmlns:ev="http://www.w3.org/2001/xml-events" xmlns:xlink="http://www.w3.org/1999/xlink"><defs /><rect fill="#222222" height="300" width="200" x="0" y="0" /><text fill="#FFFFFF" style="font-size:12px; font-family:Arial; font-weight:bold;" x="10" y="20">Over 1km Runs</text><text fill="#FFFFFF" style="font-size:4px; font-family:Arial" x="10" y="280">ATHLETE</text><text fill="#FFFFFF" style="font-size:9px; font-family:Arial" x="10" y="290">Jiakai</text><text fill="#FFFFFF" style="font-size:4px; font-family:Arial" x="120" y="280">STATISTICS</text><text fill="#FFFFFF" style="font-size:3px; font-family:Arial" x="120" y="285">Number: 50</text><text fill="#FFFFFF" style="font-size:3px; font-family:Arial" x="120" y="290">Weekly: 5.6</text><text fill="#FFFFFF" style="font-size:3px; font-family:Arial" x="141" y="285">Total: 52.1 km</text><text fill="#FFFFFF" style="font-size:3px; font-family:Arial" x="141" y="290">Avg: 1.0 km</text><text fill="#FFFFFF" style="font-size:3px; font-family:Arial" x="167" y="285">Min: 1.0 km</text><text fill="#FFFFFF" style="font-size:3px; font-family:Arial" x="167" y="290">Max: 1.5 km</text><polyline fill="none" points="18.65145597141236,33.26034955796786 20.427340488880873,36.764011427992955 21.073116675950587,38.515840431209654 23.171889287419617,43.07058981247246 23.97910952195525,46.22387274494395 23.817665475420654,44.296867003897205 24.140553569421172,45.523143564816564 24.786329756490886,50.25306153064594 26.23932617995888,54.63260683231056 26.885102367959917,55.33333333325572 27.69232260249555,54.982970108045265 28.01521069649607,54.45742517453618 26.23932617995888,52.88078967761248 24.947773803956807,50.77860739198513 24.140553569421172,48.501241156831384 23.010445239953697,44.64723180048168 21.396004770882428,42.36985970498063 19.620120253413916,38.515840431209654 19.135788111947477,35.71291340794414 19.297232159413397,32.20924999238923 18.97434406541288,31.333333333255723" stroke="#4dd2ff" stroke-linecap="round" stroke-linejoin="round" stroke-width="0.5"><title>2023-11-08 1.0km</title><desc>10179505859</desc></polyline><polyline fill="none" points="52.917307688854635,44.592105784337036 58.330769242718816,55.33333333337214 58.64010990224779,55.16550204181112 57.866758251562715,53.3193570174044 56.47472528088838,50.96971573645715 55.54670330043882,48.62007203756366 53.690659338608384,46.60608979931567 53.07197801955044,45.43126600631513 52.60796702839434,41.40329412650317 52.29862636886537,40.22846765618306 50.442582407034934,37.039649903192185 49.35989009682089,31.33333333337214" stroke="#4dd2ff" stroke-linecap="round" stroke-linejoin="round" stroke-width="0.5"><title>2023-11-06 1.0km</title><desc>10167691585</desc></polyline><polyline fill="none" points="82.3594083506614,38.06717103580013 83.47325719334185,40.13911721413024 87.61041003465652,49.63551380787976 89.36074392963201,54.98801133129746 89.67898645531386,55.33333333325572 89.99722898192704,55.33333333325572 89.99722898192704,54.815350311109796 88.72425887640566,52.052772264694795 87.61041003465652,50.49882068531588 87.4512887718156,49.63551380787976 86.4965611929074,48.599545136559755 83.7914997190237,43.937680459348485 80.60907445661724,35.82256061350927 79.33610435202718,31.333333333255723" stroke="#4dd2ff" stroke-linecap="round" stroke-linejoin="round" stroke-width="0.5"><title>2023-11-05 1.1km</title><desc>10161301187</desc></polyline><polyline fill="none" points="110.84565331693739,31.333333333255723 114.05113904271275,38.463793540606275 115.49360761977732,44.72466770885512 117.7374476287514,49.072487242752686 118.5388190606609,52.550737116718665 119.34019049163908,55.33333333325572 119.82101335097104,54.811596791958436 119.66073906421661,54.28986013564281 117.57717334199697,50.46378780622035 117.41689905524254,49.94205019087531 115.49360761977732,46.98553486401215 114.69223618786782,44.20292882760987 112.6086704665795,40.376840183278546 112.12784760724753,37.07248591980897 111.16620188951492,33.594213287346065" stroke="#4dd2ff" stroke-linecap="round" stroke-linejoin="round" stroke-width="0.5"><title>2023-11-04 1.0km</title><desc>10155501797</desc></polyline><polyline fill="none" points="152.439008011017,34.97892091772519 150.61928835557774,32.54852991004009 149.49946087552235,31.789032133412547 147.25980591541156,31.33333333337214 145.1601293901913,31.485232944833115 142.22058225423098,32.85232894227374 140.96077633928508,34.06752462522127 139.84094885922968,36.34601460280828 139.56099198944867,38.16880477545783 139.14105668431148,44.24476039852016 139.4210135540925,50.624494565068744 139.70097042433918,51.53588355181273 141.10075477464125,53.81435425858945 142.78049599519,55.029537607799284 145.58006469532847,55.33333333337214 148.09967652568594,54.27004809852224 150.4793099211529,51.38398541533388 151.1792020960711,50.01690168399364 152.15905114123598,45.6118479501456 152.15905114123598,42.11817796342075 152.85894331615418,37.56120822974481 152.71896488126367,35.89031680836342 151.1792020960711,34.06752462522127 149.91939618065953,33.15612792992033 146.97984904516488,31.789032133412547 145.4400862599723,31.789032133412547 142.0806038202718,32.85232894227374 140.54084103461355,34.21942403516732 139.56099198944867,36.042216084199026 139.281035119202,37.25740989029873 139.56099198944867,42.27007678162772 139.281035119202,44.54855771025177" stroke="#4dd2ff" stroke-linecap="round" stroke-linejoin="round" stroke-width="0.5"><title>2023-11-03 1.0km</title><desc>10152446508</desc></polyline><polyline fill="none" points="171.69951985683292,31.333333333255723 173.01159637235105,34.18080184631981 174.1362333856523,39.26555975782685 176.0106284096837,42.926579667720944 178.82222094200552,50.24860495282337 179.38453944958746,51.468940616585314 180.32173696067184,54.72316642082296 180.8840554682538,55.33333333325572 181.6338134771213,55.33333333325572 181.6338134771213,54.926555406535044 180.32173696067184,54.31638840469532 179.75941845402122,52.89266487699933 178.4473419385031,51.67232984141447 177.5101444274187,49.02826875122264 176.19806791096926,46.99437388544902 174.69855189323425,43.94352878257632 173.01159637235105,37.63843824295327 171.88695935811847,34.994363740086555" stroke="#4dd2ff" stroke-linecap="round" stroke-linejoin="round" stroke-width="0.5"><title>2023-11-02 1.1km</title><desc>10144903556</desc></polyline><polyline fill="none" points="19.24633873347193,59.73913861718029 19.56688732933253,61.65218962007202 20.849081713706255,64.60871994472109 23.092921886593103,72.60872464999557 26.939505041576922,80.60870230058208 28.061425128020346,82.0 27.420327936299145,79.91305314423516 25.016213464550674,76.2608917162288 23.73401908017695,71.56524730962701 22.131276099011302,69.30437816050835 20.20798452105373,65.13046020688489 18.605241539888084,58.0" stroke="#4dd2ff" stroke-linecap="round" stroke-linejoin="round" stroke-width="0.5"><title>2023-11-01 1.0km</title><desc>10138966680</desc></polyline><polyline fill="none" points="50.507708297111094,58.36090399394743 51.33920632209629,61.06768225389533 52.669603161513805,68.2857430211734 54.83149802405387,72.97747113718651 56.161894862540066,77.30828913021833 58.323789726011455,82.0 58.49008933082223,81.81954974750988 56.99339288752526,79.65414568618871 54.83149802405387,74.60152877983637 53.00220237020403,71.35341241932474 49.84250987879932,61.78948928578757 49.50991066824645,58.0" stroke="#4dd2ff" stroke-linecap="round" stroke-linejoin="round" stroke-width="0.5"><title>2023-10-31 1.0km</title><desc>10133123337</desc></polyline><polyline fill="none" points="80.89844108279794,60.84445688710548 81.71762055717409,65.11113594425842 81.71762055717409,66.7111386496108 83.51981540210545,69.73336309357546 88.43489225115627,80.22223039111122 89.25407172646374,81.82222309778444 89.58174351602793,82.0 85.81351793184876,74.53335885866545 84.17515898216516,69.91114088450558 82.3729641372338,66.17780453222804 79.75158981792629,58.0" stroke="#4dd2ff" stroke-linecap="round" stroke-linejoin="round" stroke-width="0.5"><title>2023-10-30 1.0km</title><desc>10127985445</desc></polyline><polyline fill="none" points="111.55001774057746,61.47370080999099 112.27757843118161,66.36845150659792 112.71411484573036,67.9474009644473 115.62435761000961,74.73687040584628 117.07947899168357,78.68422649335116 119.26216106489301,81.68421226751525 119.84420961840078,82.0 119.98972175549716,81.52631838375237 118.68011251231655,79.47369683999568 116.78845471562818,75.36844786733855 113.44167553680018,69.21055969514418 112.13206629268825,64.63160576228984 111.11348132509738,62.57896807184443 110.96796918706968,59.421060101361945 110.67694491101429,58.0" stroke="#4dd2ff" stroke-linecap="round" stroke-linejoin="round" stroke-width="0.5"><title>2023-10-28 1.0km</title><desc>10115543824</desc></polyline><polyline fill="none" points="142.88711753766984,62.977797356667 144.19780489057302,67.24447264941409 145.6723281610757,70.62225191714242 146.9830155139789,75.42224591784179 148.94904654379934,80.04445335851051 149.7682261383161,81.82222309848294 150.58740573376417,82.0 150.75124165322632,81.82222309848294 150.42356981430203,80.75556141114794 149.44055430032313,78.08890513516963 146.16383591946214,71.68891807436012 143.54246121365577,64.5778014739044 141.90410202275962,61.02223533159122 141.24875834677368,58.0" stroke="#4dd2ff" stroke-linecap="round" stroke-linejoin="round" stroke-width="0.5"><title>2023-10-27 1.0km</title><desc>10110442644</desc></polyline><polyline fill="none" points="173.41404024884105,61.705898019019514 176.50403534621,72.11767612025142 177.64245459251106,75.29414180410095 178.7808738388121,77.2353132085409 180.08192440588027,80.94118153001182 180.5698183691129,81.647060562158 181.54560629464686,82.0 181.70823761448264,81.47059082356282 181.54560629464686,80.76471173972823 179.91929308418185,78.64707324421033 177.47982327174395,74.41179064684547 174.5524594951421,65.76473214151338 172.6008836440742,62.5882538468577 171.62509571854025,58.0" stroke="#4dd2ff" stroke-linecap="round" stroke-linejoin="round" stroke-width="0.5"><title>2023-10-26 1.0km</title><desc>10104873905</desc></polyline><polyline fill="none" points="22.13127636257559,96.14495791541412 25.81758440565318,105.36233329516836 27.580601296387613,108.49275449919514 28.221698346547782,108.66666666674428 28.061424084939063,106.92754441476427 23.73401898983866,99.4493041629903 21.329905048944056,93.36234696977772 19.246339633129537,89.0145108141005 18.444968319498003,84.66666666674428" stroke="#4dd2ff" stroke-linecap="round" stroke-linejoin="round" stroke-width="0.5"><title>2023-10-25 1.0km</title><desc>10098978222</desc></polyline><polyline fill="none" points="49.56028478965163,84.66666666674428 49.39884060062468,85.8929498991929 50.36750573758036,89.9221617905423 51.659059253521264,92.54990500560962 52.466280199587345,95.70319303846918 53.9192779045552,99.90757059096359 56.986717503517866,105.8637594259344 57.955382640473545,108.31630344199948 58.27827101945877,108.66666666674428 58.601159398444,108.4914850606583 58.43971520848572,106.2141230108682 56.66382912546396,102.88566686934792 55.37227560952306,100.95866382028908 53.75783371459693,97.2798354900442 53.434945336543024,95.35282790777273 51.49761506356299,92.37472221488133 50.36750573758036,89.74697880633175 50.04461735859513,86.59368289145641 49.56028478965163,84.66666666674428" stroke="#4dd2ff" stroke-linecap="round" stroke-linejoin="round" stroke-width="0.5"><title>2023-10-24 1.0km</title><desc>10092835699</desc></polyline><polyline fill="none" points="82.20028817560524,88.8105690763332 84.58710607048124,97.27101379283704 85.70095442142338,99.34295479184948 86.97392396442592,104.52279929211363 88.88337828032672,107.97602261207066 89.67898424528539,108.66666666674428 88.88337828032672,107.80336156650446 87.76952992938459,105.04078311379999 84.90534845646471,101.58755547762848 84.26886368449777,100.37892460590228 83.63237891253084,96.40770450374112 81.72292459663004,92.60913986200467 80.44995505362749,88.6379066221416 79.65434908866882,84.66666666674428" stroke="#4dd2ff" stroke-linecap="round" stroke-linejoin="round" stroke-width="0.5"><title>2023-10-23 1.0km</title><desc>10087395010</desc></polyline><polyline fill="none" points="107.56299334554933,84.7817763366038 107.98731225263327,84.66666666668607 111.01058446615934,84.89688598946668 112.33658105111681,85.24221484659938 112.65482023148797,85.41487921809312 113.34433845593594,85.93287210387643 113.82169722625986,86.50841935275821 114.88249449408613,88.4652768332744 115.41289312834851,90.65234705177136 116.10241135256365,91.80343418597477 116.42065053270198,92.72430267452728 117.16320862015709,94.39337404910475 117.69360725441948,96.11999586381717 118.48920520534739,97.50129057350568 118.86048424895853,97.90416773804463 119.3378430197481,98.70992144505726 119.60304233664647,100.436533738859 119.76216192683205,100.89696304081008 120.186480833916,101.5300528886728 120.2925605608616,102.50846346461913 120.45168015104719,102.91133805218851 122.78543414035812,108.43645433458732 123.10367332072929,108.66666666668607 123.10367332072929,108.37890124088153 122.62631455017254,107.91847633960424 122.09591591637582,106.65230646455893 121.56551728234626,105.55879447009647 120.13344097044319,101.12717759015504" stroke="#4dd2ff" stroke-linecap="round" stroke-linejoin="round" stroke-width="0.5"><title>2023-10-22 1.5km</title><desc>10080655811</desc></polyline><polyline fill="none" points="142.18274287693202,84.66666666668607 143.024784889305,85.27581232169177 141.50910926703364,85.03215411340352 143.866826901678,88.07787656562869 144.091371438466,88.80884828808485 143.92296303599142,89.41799089725828 143.13705715769902,89.84439045743784 142.912512620911,90.27078979794169 142.96864875522442,91.00175958534237 143.4177378283348,92.76826724241255 143.92296303599142,94.0474600911839 144.4843243774958,95.99670253874501 145.49477479234338,97.7631995457341 145.66318319481798,98.43324914923869 146.28068067063577,99.52969278604724 146.6736336098984,100.01700060348958 146.72976974374615,100.32156784366816 147.1227226832416,100.68704838427948 147.40340335387737,101.2961822602083 147.79635629313998,102.45353539072676 148.18930923216976,103.24540765379788 148.13317309808917,104.82914990943391 148.86294284206815,106.23015015054261 149.08748737885617,106.90019290678902 149.48044031788595,107.63114802277414 150.15407392778434,108.483928176458 150.49089073296636,108.66666666668607 149.19975964701734,106.83927995129488 148.91907897638157,105.86467205523513 148.35771763464436,104.64641057280824 148.13317309808917,103.85453964880435 147.40340335387737,102.8190149908769 146.78590587805957,101.05252876359737" stroke="#4dd2ff" stroke-linecap="round" stroke-linejoin="round" stroke-width="0.5"><title>2023-10-20 1.4km</title><desc>10069668027</desc></polyline><polyline fill="none" points="171.83736122003756,84.66666666668607 171.95166430762038,85.59691194648622 172.86608900758438,87.8294964316301 173.09469518275,89.19385070796125 174.98069612612016,93.78302616771543 175.15215075737797,94.40318309853319 175.26645384496078,95.33341763989301 175.49506001989357,95.95357343088835 176.86669706972316,97.87605348508805 177.60966713842936,99.3644221307477 178.06687948829494,100.8527881501359 178.4669402949512,101.65898531413404 178.695546469884,102.89928713877453 178.9813041887246,103.51943736715475 179.72427425719798,105.44190017780056 179.8385773447808,106.1860781541327 180.9244566760026,108.41860814375104 181.21021439461038,108.66666666668607 181.38166902586818,108.66666666668607 181.49597211321816,108.6046520426753 181.438820569776,108.54263741424074 180.2957896948792,107.11629970109789 179.7814258011058,105.3798853168264 178.695546469884,103.39540735789342 178.5240918386262,102.5892118535121 178.40978875104338,101.22487924469169" stroke="#4dd2ff" stroke-linecap="round" stroke-linejoin="round" stroke-width="0.5"><title>2023-10-19 1.3km</title><desc>10064004415</desc></polyline><polyline fill="none" points="17.921517209149897,111.33333333337214 20.27448074053973,114.3971769734053 20.117616505362093,116.60995041404385 20.431344975717366,118.8227217401145 21.529394624754786,122.73761967383325 23.098036979325116,125.29081041237805 24.666679333895445,129.71633435611147 27.803964043967426,134.8226976256119 28.274556750431657,135.33333333337214 28.745149456895888,135.163121443009 26.705914394930005,133.12057778669987 22.94117274414748,125.80144822213333 21.999987331219018,122.56740685773548 19.333295327611268,116.9503769093426" stroke="#4dd2ff" stroke-linecap="round" stroke-linejoin="round" stroke-width="0.5"><title>2023-10-18 1.0km</title><desc>10058081424</desc></polyline><polyline fill="none" points="49.811012047342956,112.78788541769609 51.151488192379475,120.60608821571805 54.67023807298392,129.878808330046 57.016071326099336,134.78788137435913 58.021428435109556,135.33333333325572 58.524106989614666,135.33333333325572 58.859226025640965,134.60606402833946 57.68630939908326,133.1515247754287 56.17827373649925,130.78789666621014 54.16755951847881,126.42426960589364 53.3297619279474,123.87881693197414 49.811012047342956,116.78789923968725 49.47589301131666,115.69698702078313 49.14077397529036,111.33333333325572" stroke="#4dd2ff" stroke-linecap="round" stroke-linejoin="round" stroke-width="0.5"><title>2023-10-17 1.0km</title><desc>10051702317</desc></polyline><polyline fill="none" points="79.30733834952116,111.88718207273632 81.0087124183774,114.84103995375335 83.56077352166176,121.4872074809391 84.92187277693301,124.07182343560271 86.4531094385311,128.87181743606925 88.3246209146455,133.67180226184428 89.00517054181546,134.96410430129617 89.85585757624358,135.33333333325572 90.02599498350173,135.14871882437728 89.85585757624358,134.5948752150871 87.98434610012919,131.82565533788875 85.43228499777615,125.54874564358033 83.56077352166176,121.67182299424894 82.02953686006367,114.47180790826678 81.17884982470423,111.33333333325572" stroke="#4dd2ff" stroke-linecap="round" stroke-linejoin="round" stroke-width="0.5"><title>2023-10-16 1.0km</title><desc>10046279660</desc></polyline><polyline fill="none" points="110.4182526897639,111.33333333325572 111.1204070681706,112.85714946663938 111.82256144564599,116.28573248977773 113.40240879543126,121.61907484172843 115.5088719278574,124.85717019881122 117.96641224995255,134.0000058321748 118.84410522226244,134.9523826886434 120.0728753823787,135.33333333325572 120.2484139772132,134.9523826886434 120.0728753823787,133.80953041883186 117.79087365511805,130.57144625065848 116.5621034950018,126.76193028269336 115.15779474005103,124.47621801379137 111.82256144564599,116.6666858792305 110.59379128552973,111.33333333325572" stroke="#4dd2ff" stroke-linecap="round" stroke-linejoin="round" stroke-width="0.5"><title>2023-10-15 1.0km</title><desc>10039610121</desc></polyline><polyline fill="none" points="141.00564276054502,113.07527618063614 141.54075246397406,118.68819529376924 142.96771167591214,122.75271545699798 144.75141069013625,125.26884384150617 145.82163009885699,128.75270994286984 148.85391842201352,134.17204804788344 149.56739802658558,134.94623829517514 150.45924753509462,135.33333333325572 150.99435723852366,134.94623829517514 150.99435723852366,134.36559563083574 147.42695921007544,131.46238038968295 145.10815049242228,127.20432557817549 144.2163009857759,123.52690906217322 142.07586216833442,118.68819529376924 141.00564276054502,114.62366885575466 141.18401266168803,112.10753029678017 141.00564276054502,111.33333333325572" stroke="#4dd2ff" stroke-linecap="round" stroke-linejoin="round" stroke-width="0.5"><title>2023-10-14 1.0km</title><desc>10033377496</desc></polyline><polyline fill="none" points="171.224971040152,111.71428745100275 174.38466527499259,115.52382554416545 174.73574241250753,118.38097543781623 177.71989807859063,127.52383392467164 180.52851517591625,134.1904812315479 181.4062080187723,135.33333333325572 182.1083622938022,135.33333333325572 182.1083622938022,134.76190734561533 181.93282372504473,134.1904812315479 180.35297660715878,133.04762862576172 178.59759092144668,129.80954350507818 176.6666666669771,123.71431347634643 173.1558952955529,115.9047790451441 172.6292795892805,113.2381033601705 171.75158674642444,111.33333333325572" stroke="#4dd2ff" stroke-linecap="round" stroke-linejoin="round" stroke-width="0.5"><title>2023-10-13 1.0km</title><desc>10028006924</desc></polyline><polyline fill="none" points="18.183756271377206,138.0 19.87214219290763,140.19848289946094 20.88517374638468,142.030550500378 21.054012339562178,144.41223636828363 20.88517374638468,146.97712629567832 22.74239826016128,150.82445623748936 24.937299959361553,156.68704282096587 27.132201657630503,160.71756309713237 27.638717434369028,161.4503842657432 28.48291039466858,162.0 28.48291039466858,161.08397370832972 26.62568588089198,158.70230377395637 24.937299959361553,155.77101457677782 22.74239826016128,149.7252197174821 21.391689523123205,147.34353892738 20.716335154138505,145.32826878875494" stroke="#4dd2ff" stroke-linecap="round" stroke-linejoin="round" stroke-width="0.5"><title>2023-10-12 1.0km</title><desc>10021974100</desc></polyline><polyline fill="none" points="51.194002469070256,141.40299945976585 51.854237182065845,144.98509901948273 51.68917850404978,146.4179373686202 53.17470660805702,151.25376057485119 54.33011735603213,153.40301225171424 55.48552810493857,157.3433020687662 57.1361148878932,161.2835855127778 57.466232244856656,161.6417927823495 58.29152563679963,162.0 58.126466957852244,161.2835855127778 56.31082149595022,156.6268862124998 54.33011735603213,153.2239080176223 51.68917850404978,147.1343562270049 51.02894379012287,144.80599416652694 50.69882643409073,141.40299945976585 49.70847436320037,138.0" stroke="#4dd2ff" stroke-linecap="round" stroke-linejoin="round" stroke-width="0.5"><title>2023-10-10 1.0km</title><desc>10009069592</desc></polyline><polyline fill="none" points="80.6008836440742,141.0000131232664 81.73930289037526,144.17649351945147 82.87772213667631,148.41179417585954 85.31719195097685,153.70590948755853 87.26876780111343,160.41177212051116 88.40718704741448,162.0 88.73244968988001,161.47059082356282 88.8950810097158,159.52942284429446 87.75666176434606,156.1764926367905 85.31719195097685,151.941205680836 82.5524594951421,144.17649351945147 81.73930289037526,140.64707059715874 80.4382523233071,138.0" stroke="#4dd2ff" stroke-linecap="round" stroke-linejoin="round" stroke-width="0.5"><title>2023-10-09 1.0km</title><desc>10003389142</desc></polyline><polyline fill="none" points="110.44682856090367,138.0 111.64702271670103,139.4883787133731 112.84721687063575,142.27908644080162 113.53304210212082,147.860492663458 116.10488671902567,153.44188657589257 118.33381872065365,159.76745146210305 119.3625565674156,161.6279087138828 120.21983810607344,162.0 120.21983810607344,160.51163452723995 116.96216825861484,155.30234847799875 112.67576056346297,144.88374420977198 110.96119748428464,138.18604738730937" stroke="#4dd2ff" stroke-linecap="round" stroke-linejoin="round" stroke-width="0.5"><title>2023-10-08 1.0km</title><desc>9996447828</desc></polyline><polyline fill="none" points="142.9192988006398,142.8000197620131 143.70922218542546,145.71431265352294 146.0789923388511,152.05717282742262 146.86891572363675,154.80002593714744 149.39667055290192,161.1428613960743 150.18659393768758,162.0 150.34457861445844,161.31428914237767 150.34457861445844,160.628578083124 147.34286975394934,155.31431053578854 145.92100766208023,152.22860124101862 143.39325283188373,144.6857391076628 142.60332944709808,140.74286964489147 141.65542138554156,138.0" stroke="#4dd2ff" stroke-linecap="round" stroke-linejoin="round" stroke-width="0.5"><title>2023-10-07 1.0km</title><desc>9989974159</desc></polyline><polyline fill="none" points="174.70586429908872,145.14896218653303 175.9607778135687,149.23407352459617 176.90196294989437,151.27662649110425 178.78433322254568,159.2766082586022 179.25492579024285,160.80851650703698 180.1961109265685,162.0 180.98043187335134,162.0 181.29416025150567,161.31915236474015 181.13729606289417,160.80851650703698 179.25492579024285,158.0851233638823 177.37255551852286,154.00002764270175 176.74509876128286,151.27662649110425 173.45095078460872,143.27661708113737 172.98035821691155,140.38298984791618 172.0391730805859,138.0" stroke="#4dd2ff" stroke-linecap="round" stroke-linejoin="round" stroke-width="0.5"><title>2023-10-06 1.0km</title><desc>9984428862</desc></polyline><polyline fill="none" points="18.166452486999333,164.66666666674428 20.88586345873773,171.94537793379277 22.69880410656333,178.0437424001284 25.780803208239377,185.71585860056803 27.049861661158502,188.2732257801108 27.593743856064975,188.66666666674428 28.318920115940273,188.66666666674428 28.500214179046452,188.2732257801108 27.9563319850713,187.28962330752984 25.780803208239377,184.14209296857007 24.51174475438893,181.58472184138373 22.33621597662568,175.87980821286328 21.429745653644204,172.9289860459976 18.89162874687463,168.20766381011344 18.89162874687463,166.43716582423076" stroke="#4dd2ff" stroke-linecap="round" stroke-linejoin="round" stroke-width="0.5"><title>2023-10-04 1.0km</title><desc>9971682885</desc></polyline><polyline fill="none" points="50.36750600486994,167.4695988416206 51.1747268922627,170.27252771984786 51.98194778058678,172.19953941064887 52.62772449105978,175.17764532240108 55.69516386371106,181.30902812676504 55.85660804249346,183.411212884821 56.8252731077373,187.6155768376775 57.14816146250814,188.1411218100693 58.11682652775198,188.66666666674428 58.11682652775198,186.91485002753325 56.01805222034454,183.0608488873113 54.56505462154746,179.7323883411009 53.7578337341547,178.15574751212262 52.95061284583062,175.87837558449246 51.3361710710451,172.54990500560962 50.69039435964078,169.92216179030947 50.36750600486994,167.29441567743197 49.88317347224802,164.66666666674428" stroke="#4dd2ff" stroke-linecap="round" stroke-linejoin="round" stroke-width="0.5"><title>2023-10-03 1.0km</title><desc>9965060084</desc></polyline><polyline fill="none" points="80.27965140994638,165.6584064324852 82.47315903753042,172.7989219862502 82.83874364290386,175.97247838857584 84.1182897593826,177.55925518926233 85.03225127141923,179.93941864091903 86.67738199234009,186.0881645064801 87.95692810881883,188.0716279251501 88.87088961992413,188.66666666674428 89.05368192307651,188.46832043398172 88.50530501548201,186.88155004871078 86.49458969011903,183.1129666438792 83.20432824734598,175.17908963747323 81.19361292105168,169.2286665714346 80.82802831754088,164.66666666674428" stroke="#4dd2ff" stroke-linecap="round" stroke-linejoin="round" stroke-width="0.5"><title>2023-10-02 1.0km</title><desc>9958643020</desc></polyline><polyline fill="none" points="111.52906049601734,168.89068265957758 111.88294634129852,170.61868723342195 115.77569064032286,179.83469231403433 117.72206278983504,185.78667831164785 118.78372032567859,187.89867008221336 119.84537786059082,188.66666666674428 120.02232078462839,188.47466754168272 119.84537786059082,187.70667090103962 116.30651940777898,182.33068809378892 112.94460387714207,174.07469294965267 111.35211757291108,169.08268322446384 110.64434588234872,164.66666666674428" stroke="#4dd2ff" stroke-linecap="round" stroke-linejoin="round" stroke-width="0.5"><title>2023-10-01 1.0km</title><desc>9952075403</desc></polyline><polyline fill="none" points="142.55410208459944,168.14494262379594 143.996570979245,171.10147316590883 144.6376682659611,174.0580000129994 145.11849123053253,176.84061014070176 147.52260605618358,183.6232086138334 149.60617223754525,187.9710179194808 150.5678181676194,188.66666666674428 150.88836681190878,188.144930125447 147.68288037832826,183.27538352436386 146.24041148275137,179.9710426214151 145.75958851817995,178.23191397683695 143.5157480146736,173.36234696977772 142.23355344124138,167.9710289472714 141.11163318902254,164.66666666674428" stroke="#4dd2ff" stroke-linecap="round" stroke-linejoin="round" stroke-width="0.5"><title>2023-09-30 1.0km</title><desc>9945549317</desc></polyline><polyline fill="none" points="172.95086747594178,164.66666666674428 174.54335284326226,167.35467763477936 175.0741812987253,169.4666843113955 176.48972384724766,172.92269155266695 177.19749512244016,178.1066938394215 177.72832357883453,179.64269254053943 179.85163740161806,184.82668148796074 180.38246585708112,188.09066924988292 180.73635149467736,188.47466754191555 181.26717995014042,188.66666666674428 181.44412276893854,188.28266840265132 178.25915203429759,182.5226876710076 176.13583821058273,177.5306940935552 175.42806693632156,174.6506934580393 172.95086747594178,168.8906826605089 171.88921056408435,165.4346700827591" stroke="#4dd2ff" stroke-linecap="round" stroke-linejoin="round" stroke-width="0.5"><title>2023-09-28 1.0km</title><desc>9933629332</desc></polyline><polyline fill="none" points="18.641663377173245,194.06061778985895 19.982140507549047,198.78790372400545 22.495535126887262,202.24245311506093 24.171131540089846,208.42426629760303 26.51696651801467,212.60607233573683 27.187205083668232,214.96969870734029 27.85744364745915,215.33333333325572 28.192562931217253,214.7878813741263 27.85744364745915,214.0606119085569 26.51696651801467,212.24243730842136 22.66309476736933,204.42427129670978 20.652379072271287,198.96972223301418 18.474103735759854,191.33333333325572" stroke="#4dd2ff" stroke-linecap="round" stroke-linejoin="round" stroke-width="0.5"><title>2023-09-27 1.0km</title><desc>9927137811</desc></polyline><polyline fill="none" points="55.99376182234846,191.33333333331393 55.51525898487307,193.6410575414193 55.03675614763051,194.96799588744761 54.664587274193764,196.5833960623131 52.4847410148941,201.14111434057122 51.36823439458385,203.0449635036057 51.1555664667394,203.85265569214243 51.26190043054521,204.48727040010272 51.52773534017615,205.41034542239504 52.32524006906897,207.371876239602 52.59107497869991,207.89110416453332 52.91007687035017,208.81417518266244 53.973416508873925,210.1410878690076 54.451919346349314,211.1795397103415 54.98358916584402,211.98722352588084 55.40892502106726,213.14105610584375 56.04692880436778,214.00642942730337 56.8444335332606,215.33333333331393" stroke="#4dd2ff" stroke-linecap="round" stroke-linejoin="round" stroke-width="0.5"><title>2023-09-26 1.0km</title><desc>9920397094</desc></polyline><polyline fill="none" points="84.55458448408172,191.33333333331393 83.50848411442712,194.81985224795062 82.46238374477252,196.68472993309842 81.49100482976064,197.9009528112947 80.96795464493334,198.87393014802365 80.74379028007388,199.8469066261896 80.8185117347166,201.06312601669924 81.1921190097928,202.03610056336038 82.08877646969631,203.41447970166337 82.46238374477252,204.7928571170778 83.20959829445928,206.5766370970523 84.62930593919009,208.36041419196408 87.02039249846712,213.22524614958093 88.58954305341467,215.33333333331393" stroke="#4dd2ff" stroke-linecap="round" stroke-linejoin="round" stroke-width="0.5"><title>2023-09-25 1.0km</title><desc>9914573673</desc></polyline><polyline fill="none" points="117.10273185768165,191.33333333331393 116.51293234969489,192.22934522503056 116.39497244800441,192.67735082493164 116.51293234969489,193.25335768604418 116.57191230054013,193.82936416583834 115.39231328386813,196.00538520526607 115.09741352964193,197.4773963530315 114.6845538741909,198.5654029926518 112.20739593938924,202.91741595137864 112.14841598877683,203.42941604513908 112.38433579169214,204.4534153297427 113.0331152509898,205.4774134096224 113.38699495606124,206.3734107412747 113.91781451320276,207.26940715062665 114.21271426742896,208.16540263762 114.97945362818427,209.38139503792627 115.56925313617103,210.59738573950017 116.21803259570152,211.30137957975967 116.39497244800441,211.9413734858972 116.80783210368827,212.45336827199208 117.69253136613406,213.98935082380194 118.34131082519889,214.6933419208508 118.51825067773461,215.33333333331393" stroke="#4dd2ff" stroke-linecap="round" stroke-linejoin="round" stroke-width="0.5"><title>2023-09-24 1.0km</title><desc>9907510217</desc></polyline><polyline fill="none" points="146.89472190407105,191.33333333331393 146.3936776376795,192.11004090023926 146.03578887623735,192.8867478959146 145.82105561927892,193.8964661367354 145.74947786680423,195.21686545660486 144.53265607729554,196.84794469096232 143.8168785541784,198.71203216025606 143.17267878330313,199.64407466124976 142.74321226915345,200.8867967170081 142.67163451667875,202.20718729909277 144.1747673158534,206.01300974289188 144.74738933425397,207.17805468878942 146.60841089487076,210.12949613423552 147.39576617022976,212.0712294303812 148.39785470278002,213.31393686670344 148.97047672164626,214.3236355825211 149.32836548332125,215.33333333331393" stroke="#4dd2ff" stroke-linecap="round" stroke-linejoin="round" stroke-width="0.5"><title>2023-09-23 1.0km</title><desc>9901004991</desc></polyline><polyline fill="none" points="177.588230736088,191.33333333331393 177.11038270010613,192.2222324180766 176.63253466435708,193.77780392894056 175.54031058191322,196.07411938835867 174.44808649970219,197.62968495144742 173.49239042773843,200.2222888856777 173.42412642249838,201.6296996558085 173.5606544332113,202.44451551907696 174.92593453568406,205.70377238135552 175.1307265511714,206.6667326182942 175.40378257166594,207.1852492876933 176.35947864339687,208.3704292444163 177.11038270010613,209.85190222930396 177.72475874633528,211.40744651929708 178.7487188235391,212.88891503866762 179.90920691075735,215.33333333331393" stroke="#4dd2ff" stroke-linecap="round" stroke-linejoin="round" stroke-width="0.5"><title>2023-09-22 1.0km</title><desc>9895405405</desc></polyline><polyline fill="none" points="24.60557971918024,218.0 24.409849505871534,218.7079731648555 24.018389079952613,219.13275681389496 23.17022482259199,220.69029525690712 22.844007800798863,221.8230489056441 21.86535673495382,224.30094286624808 20.821462265215814,226.42484689992853 20.1690282211639,227.9823735471 19.973298007855192,228.76113592577167 19.973298007855192,229.25671165710082 20.1690282211639,229.96467654500157 20.560488647548482,230.6726409124676 21.408652904676273,232.86732714337995 22.256817161338404,234.42484336928464 22.713520992081612,235.55758086033165 23.561685248976573,236.9735008503776 24.083632483845577,237.61066416668473 24.47509291023016,238.7433979100897 25.518987380433828,240.58408740104642 26.693368659121916,242.0" stroke="#4dd2ff" stroke-linecap="round" stroke-linejoin="round" stroke-width="0.5"><title>2023-09-21 1.0km</title><desc>9889267953</desc></polyline><polyline fill="none" points="56.443498416338116,218.0 55.58701443532482,220.56951311294688 55.08320032898337,222.59231506095966 54.27709775837138,224.2870908343466 53.319850956322625,227.12993184349034 51.657264404697344,230.24611046235077 51.20383170899004,231.94086878962116 51.25421311939135,232.32355561922304 51.55650158342905,233.14359816221986 52.2114599221386,234.5650030944962 52.61451120721176,235.76772822253406 53.622139420127496,237.18912813829957 54.22671634797007,238.33717993297614 54.579386222409084,239.1572158439085 54.982437507482246,239.86791290179826 55.637395846191794,240.35993354400853 56.443498416338116,241.56264929880854 56.49387982720509,241.7813246815349 56.79616829124279,242.0" stroke="#4dd2ff" stroke-linecap="round" stroke-linejoin="round" stroke-width="0.5"><title>2023-09-20 1.0km</title><desc>9882714971</desc></polyline><polyline fill="none" points="86.65667070238851,218.0 86.14495537918992,219.29564734915039 85.1783819901757,222.1337250273209 85.12152473186143,223.0591830642661 84.78038118290715,223.5527602666407 84.38238037587143,224.4782167383819 84.15495134308003,225.34197519125883 83.70009327773005,226.51421738340287 82.39237633999437,228.61190985055873 82.05123279080726,229.8458441462717 81.93751827464439,230.95638346107444 82.05123279080726,232.0669213059009 82.39237633999437,233.3008505209582 82.79037714679725,234.16459989198484 84.04123682668433,236.32396942953346 84.66666666674428,237.18771568854572 85.23523924825713,238.73011751146987 85.80381183000281,239.71725319017423 86.37238441151567,240.51930007420015 86.99781425134279,241.13625869411044 87.39581505861133,242.0" stroke="#4dd2ff" stroke-linecap="round" stroke-linejoin="round" stroke-width="0.5"><title>2023-09-19 1.0km</title><desc>9876194288</desc></polyline><polyline fill="none" points="115.1566754959058,218.0 114.73269668617286,218.6901035591727 114.02606533677317,220.07030930777546 113.81407593167387,220.9904454583302 112.54213950224221,223.21410447073868 111.55285561271012,225.28440342692193 111.34086620761082,226.05117977509508 111.41152934287675,226.8946331066545 111.83550815284252,227.96811817889102 112.4714763672091,229.11827952973545 113.03678144724108,230.72850328998175 113.81407593167387,232.41540170559892 114.66203355113976,233.9489433519775 115.4393280360382,234.94574421300786 116.35794879030436,236.47928213869454 116.92325387010351,238.24284796538996 117.91253775986843,239.77638104296057 118.40717970463447,241.1565588848316 119.32580045913346,242.0" stroke="#4dd2ff" stroke-linecap="round" stroke-linejoin="round" stroke-width="0.5"><title>2023-09-18 1.0km</title><desc>9870505463</desc></polyline><polyline fill="none" points="146.24115697923116,218.0 145.89664700860158,218.67290491453605 145.41433305013925,220.9159180803108 144.79421510337852,221.96265586442314 144.51860712678172,222.78509193880018 143.0027632568963,225.25239617103944 142.45154730416834,226.59819595626323 142.10703733353876,227.79446093650768 142.38264530990273,228.61689229420153 143.89848917978816,231.9066110731801 144.65641111508012,233.10286980879027 145.20762706780806,234.37389317329507 146.10335299093276,235.57014900649665 146.58566694986075,236.39257407537661 147.20578489662148,238.33648523082957 149.89296266646124,242.0" stroke="#4dd2ff" stroke-linecap="round" stroke-linejoin="round" stroke-width="0.5"><title>2023-09-16 1.0km</title><desc>9856514700</desc></polyline><polyline fill="none" points="176.33490318711847,218.0 175.59765100991353,220.2400223991135 174.63922317977995,221.7600349721033 172.6486423020251,225.60005727631506 172.57491708407179,226.48006047913805 172.6486423020251,227.52006334636826 173.09099360834807,228.56006521964446 173.82824578508735,229.6800661252928 174.49177274433896,231.20006551034749 175.67137622786686,233.2000614661374 177.14588058181107,236.0000496285502 177.29333101725206,237.04004339658422 177.80940754106268,237.440040735004 178.39920928282663,238.2400349706295 179.35763711296022,239.84002167754807 180.38979016058147,240.72001336351968 180.61096581351012,241.28000770224025 180.75841624941677,242.0" stroke="#4dd2ff" stroke-linecap="round" stroke-linejoin="round" stroke-width="0.5"><title>2023-09-15 1.0km</title><desc>9850671982</desc></polyline><polyline fill="none" points="23.94347230391577,244.66666666668607 22.723194363527,247.89428265637252 21.350381680764258,249.88050328032114 20.740242710337043,250.95637132163392 19.82503425516188,253.2736220715451 19.59623214136809,254.10121046897257 19.59623214136809,254.76328074838966 19.82503425516188,255.59086805046536 20.740242710337043,258.07362630584976 21.57918379455805,259.7287954335916 23.63840281870216,263.28740081668366 24.477343902457505,264.85980426258175 24.62987864483148,265.77014209574554 25.240017615258694,266.34944760613143 26.23149344138801,267.92184677446494 27.070434525143355,268.66666666668607" stroke="#4dd2ff" stroke-linecap="round" stroke-linejoin="round" stroke-width="0.5"><title>2023-09-14 1.0km</title><desc>9844236351</desc></polyline><polyline fill="none" points="50.18566233571619,244.66666666668607 50.62472278624773,245.02399198093917 50.789370455313474,245.38131713756593 50.89913556794636,246.15552110265708 51.228430905612186,246.81061618757667 51.44796113111079,248.65679039410315 51.44796113111079,249.5500989832217 51.3381960184779,250.02652982791187 51.44796113111079,250.6220679898397 51.722373912576586,251.33671320602298 51.61260880017653,251.93225040455582 51.66749135637656,252.2300188395311 52.216316919540986,253.242430699931 52.71025992650539,254.7312693723943 53.1493203768041,255.56501783360727 53.698145939968526,256.3392120648059 54.30185405956581,256.87519225286087 54.466501728398725,257.2325121812755 54.63114939746447,258.0067048187484 55.07020984799601,258.7808967162273 55.56415285472758,260.21017212141305 56.222743530524895,261.4607860322576 56.55203886842355,262.53273927618284 56.716686537489295,263.4260325622745 57.04598187538795,264.1406664822134 57.64968999475241,266.105906510551 58.472928339615464,267.6542740841396 58.52781089604832,267.8924842173583 58.472928339615464,268.0711417713319 57.81433766381815,268.66666666668607 58.14363300171681,268.42845676100114 58.30828067054972,268.0711417713319 58.418045783182606,267.7733791595092 58.36316322721541,267.35651131905615 58.03386788908392,266.93964326399146 57.04598187538795,264.7957470212714 56.55203886842355,263.18782111565815 55.509270298527554,260.8652558392496 55.01532729156315,258.6022371132858 54.740914510097355,257.947151565284 53.698145939968526,256.5774255255237 52.65537737007253,254.61216237925692 52.16143436310813,253.0042162584723 51.996786694508046,251.93225040455582 51.55772624374367,250.80072935303906 50.67960534268059,248.89500611420954 50.46007511741482,248.0016968025011 49.69171932898462,246.572399854369 49.527071659918875,245.7981962877093 49.47218910371885,244.8453293435159" stroke="#4dd2ff" stroke-linecap="round" stroke-linejoin="round" stroke-width="0.5"><title>2023-09-13 1.0km</title><desc>9837636972</desc></polyline></svg>