<?xml version="1.0" encoding="utf-8" ?>
<svg baseProfile="full" height="300mm" version="1.1" viewBox="0,0,200,300" width="200mm" xmlns="http://www.w3.org/2000/svg" xmlns:ev="http://www.w3.org/2001/xml-events" xmlns:xlink="http://www.w3.org/1999/xlink"><defs /><rect fill="#222222" height="300" width="200" x="0" y="0" /><text fill="#FFFFFF" style="font-size:12px; font-family:Arial; font-weight:bold;" x="10" y="20">Over 1km Runs</text><text fill="#FFFFFF" style="font-size:4px; font-family:Arial" x="10" y="280">ATHLETE</text><text fill="#FFFFFF" style="font-size:9px; font-family:Arial" x="10" y="290">Jiakai</text><text fill="#FFFFFF" style="font-size:4px; font-family:Arial" x="120" y="280">STATISTICS</text><text fill="#FFFFFF" style="font-size:3px; font-family:Arial" x="120" y="285">Number: 48</text><text fill="#FFFFFF" style="font-size:3px; font-family:Arial" x="120" y="290">Weekly: 6.0</text><text fill="#FFFFFF" style="font-size:3px; font-family:Arial" x="141" y="285">Total: 50.1 km</text><text fill="#FFFFFF" style="font-size:3px; font-family:Arial" x="141" y="290">Avg: 1.0 km</text><text fill="#FFFFFF" style="font-size:3px; font-family:Arial" x="167" y="285">Min: 1.0 km</text><text fill="#FFFFFF" style="font-size:3px; font-family:Arial" x="167" y="290">Max: 1.5 km</text><polyline fill="none" points="22.404334395192564,39.07556741521694 23.657414343208075,41.406506865751 28.311711289919913,52.08995303371921 30.280836921185255,58.111512747826055 30.63885976281017,58.5 30.99688260536641,58.5 30.99688260536641,57.91726910020225 29.5647912370041,54.80936879781075 28.311711289919913,53.061173271154985 28.132699868641794,52.08995303371921 27.058631342835724,50.924488278571516 24.01543718483299,45.679890516912565 20.43520876392722,36.550380690256134 19.003117395564914,31.5" stroke="#4dd2ff" stroke-linecap="round" stroke-linejoin="round" stroke-width="0.5"><title>2023-11-05 1.1km</title><desc>10161301187</desc></polyline><polyline fill="none" points="49.951359981670976,31.5 53.55753142386675,39.521767733385786 55.18030857294798,46.56525117252022 57.70462858211249,51.4565481483005 58.606171443127096,55.369579256512225 59.50771430321038,58.5 60.04864001926035,57.913046390982345 59.86833144724369,57.32609265274368 57.524320010095835,53.02176128211431 57.344011437147856,52.43480646493845 55.18030857294798,49.10872672195546 54.278765711933374,45.97829493135214 51.93475427478552,41.67394520621747 51.39382855873555,37.956546660047024 50.31197712570429,34.04348994838074" stroke="#4dd2ff" stroke-linecap="round" stroke-linejoin="round" stroke-width="0.5"><title>2023-11-04 1.0km</title><desc>10155501797</desc></polyline><polyline fill="none" points="92.24388401117176,35.60128603235353 90.19669939950109,32.86709614878055 88.93689348455518,32.012661150074564 86.41728165373206,31.5 84.05514556355774,31.67088706290815 80.74815503600985,33.20887006004341 79.33087338041514,34.57596520334482 78.07106746546924,37.13926642818842 77.75611598789692,39.189905372448266 77.28368876967579,46.02535544836428 77.59864024724811,53.2025563857751 77.91359172668308,54.22786899586208 79.48834912106395,56.79114854091313 81.37805799394846,58.15822980878875 84.52757278177887,58.5 87.36213609017432,57.303804110735655 90.03922366071492,54.05698359222151 90.8266023574397,52.51901439449284 91.92893253359944,47.5633289439138 91.92893253359944,43.63295020873193 92.71631123032421,38.506359258433804 92.55883549060673,36.626606409437954 90.8266023574397,34.57596520334482 89.40932070277631,33.55064392124768 86.10233017522842,32.012661150074564 84.37009704206139,32.012661150074564 80.59067929722369,33.20887006004341 78.85844616312534,34.74685203959234 77.75611598789692,36.797493094811216 77.44116450846195,38.16458612657152 77.75611598789692,43.803836379316635 77.44116450846195,46.36712742398959" stroke="#4dd2ff" stroke-linecap="round" stroke-linejoin="round" stroke-width="0.5"><title>2023-11-03 1.0km</title><desc>10152446508</desc></polyline><polyline fill="none" points="109.41195983905345,31.5 110.88804591912776,34.70340207708068 112.1532625593245,40.423754727467895 114.26195696089417,44.542402126360685 117.42499855998904,52.77968057175167 118.05760688055307,54.152558193774894 119.11195408180356,57.81356222345494 119.74456240143627,58.5 120.58804016187787,58.5 120.58804016187787,58.04237483232282 119.11195408180356,57.35593695519492 118.47934576123953,55.75424798671156 117.00325968116522,54.38137107156217 115.94891248084605,51.40680234506726 114.47282639984041,49.11867062118836 112.78587087988853,45.68646988039836 110.88804591912776,38.59324302338064 109.6228292779997,35.618659207597375" stroke="#4dd2ff" stroke-linecap="round" stroke-linejoin="round" stroke-width="0.5"><title>2023-11-02 1.1km</title><desc>10144903556</desc></polyline><polyline fill="none" points="140.40213107410818,33.45653094444424 140.76274824421853,35.60871332278475 142.20521692745388,38.93480993784033 144.72953712195158,47.93481523124501 149.05694317165762,56.934790088096634 150.31910326797515,58.5 149.59786892775446,56.15218478743918 146.89324014633894,52.04350318084471 145.45077146403491,46.7609032234177 143.64768561068922,44.217425430426374 141.48398258537054,39.521767732687294 139.68089673202485,31.5" stroke="#4dd2ff" stroke-linecap="round" stroke-linejoin="round" stroke-width="0.5"><title>2023-11-01 1.0km</title><desc>10138966680</desc></polyline><polyline fill="none" points="171.0711718350649,31.90601699310355 172.00660711247474,34.95114253554493 173.50330355670303,43.07146089873277 175.93543527740985,48.34965502936393 177.43213172070682,53.2218252713792 179.86426344234496,58.5 180.05135049764067,58.296993465861306 178.36756699811667,55.8609138969332 175.93543527740985,50.1767198771704 173.87747766729444,46.52258897176944 170.32282361388206,35.76317544630729 169.94864950235933,31.5" stroke="#4dd2ff" stroke-linecap="round" stroke-linejoin="round" stroke-width="0.5"><title>2023-10-31 1.0km</title><desc>10133123337</desc></polyline><polyline fill="none" points="20.76074621733278,64.70001399773173 21.682323127053678,69.5000279371161 21.682323127053678,71.30003098072484 23.7097923271358,74.70003348006867 29.239253781735897,86.5000091898255 30.160830691456795,88.30000098468736 30.529461454600096,88.5 26.2902076728642,80.1000287157949 24.447053854353726,74.90003349492326 22.419584654271603,70.7000300984364 19.47053854446858,61.5" stroke="#4dd2ff" stroke-linecap="round" stroke-linejoin="round" stroke-width="0.5"><title>2023-10-30 1.0km</title><desc>10127985445</desc></polyline><polyline fill="none" points="50.74376995768398,65.40791341126896 51.562275734730065,70.91450794483535 52.053379201330245,72.69082608493045 55.327402310445905,80.3289792065043 56.96441386453807,84.76975480490364 59.41993119753897,88.14473880105652 60.07473582029343,88.5 60.238436974585056,87.96710818167776 58.76512657571584,85.65790894487873 56.63701155409217,81.03950385074131 52.87188497837633,74.11187965702266 51.39857457857579,68.96055648243055 50.25266649015248,66.65133908088319 50.088965334929526,63.09869261388667 49.76156302448362,61.5" stroke="#4dd2ff" stroke-linecap="round" stroke-linejoin="round" stroke-width="0.5"><title>2023-10-28 1.0km</title><desc>10115543824</desc></polyline><polyline fill="none" points="81.49800723046064,67.10002202633768 82.97253050282598,71.90003173053265 84.63136918190867,75.70003340672702 86.105892454274,81.10002665757202 88.31767736189067,86.30001002806239 89.23925440665334,88.30000098561868 90.1608314504847,88.5 90.34514685999602,88.30000098561868 89.97651604190469,87.1000065873377 88.87062358763069,84.100018276833 85.18431541044265,76.9000328334514 82.23526886571199,68.90002665808424 80.39211477618665,64.90001474809833 79.6548531409353,61.5" stroke="#4dd2ff" stroke-linecap="round" stroke-linejoin="round" stroke-width="0.5"><title>2023-10-27 1.0km</title><desc>10110442644</desc></polyline><polyline fill="none" points="111.34079528041184,65.66913527133875 114.81703976448625,77.38238563528284 116.09776141680777,80.95590952946804 117.37848306912929,83.13972735963762 118.84216495696455,87.30882922117598 119.39104566536844,88.10294313239865 120.48880708124489,88.5 120.67176731675863,87.90441467636265 120.48880708124489,87.11030070716515 118.65920472051948,84.727957399562 115.91480118129402,79.96326447767206 112.62151693273336,70.23532365914434 110.42599410098046,66.66178557742387 109.32823268417269,61.5" stroke="#4dd2ff" stroke-linecap="round" stroke-linejoin="round" stroke-width="0.5"><title>2023-10-26 1.0km</title><desc>10104873905</desc></polyline><polyline fill="none" points="143.64768590871245,74.41307765478268 147.79478245787323,84.78262495691888 149.77817645855248,88.30434881150723 150.49941064044833,88.5 150.31910209544003,86.54348746663891 145.4507713643834,78.13046718318947 142.74614317994565,71.28264034097083 140.40213208738714,66.39132466586307 139.50058935955167,61.5" stroke="#4dd2ff" stroke-linecap="round" stroke-linejoin="round" stroke-width="0.5"><title>2023-10-25 1.0km</title><desc>10098978222</desc></polyline><polyline fill="none" points="170.00532038975507,61.5 169.82369567640126,62.87956863641739 170.9134439555928,67.41243201401085 172.36644166056067,70.36864313087426 173.2745652263984,73.9160921680741 174.90918764378875,78.64601691463031 178.36005719285458,85.34672935400158 179.44980547111481,88.10584137192927 179.81305489782244,88.5 180.17630432453007,88.30292069306597 179.99467961024493,85.7408883869648 177.99680776707828,81.99637522781268 176.54381006211042,79.82849679747596 174.72756293043494,75.68981492612511 174.36431350465864,73.52193139609881 172.18481694720685,70.17156249145046 170.9134439555928,67.21535115689039 170.55019452888519,63.66789325256832 170.00532038975507,61.5" stroke="#4dd2ff" stroke-linecap="round" stroke-linejoin="round" stroke-width="0.5"><title>2023-10-24 1.0km</title><desc>10092835699</desc></polyline><polyline fill="none" points="22.225324196740985,96.16189021081664 24.91049432847649,105.67989051667973 26.16357372328639,108.01082414062694 27.59566445928067,113.83814920345321 29.743800564669073,117.72302543837577 30.638857275247574,118.5 29.743800564669073,117.5287817621138 28.49072116985917,114.42088100290857 25.26851701270789,110.53599991230294 24.552471644245088,109.17629018146545 23.836426275782287,104.70866756676696 21.688290170393884,100.43528234469704 20.256199434399605,95.96764494967647 19.361142724752426,91.5" stroke="#4dd2ff" stroke-linecap="round" stroke-linejoin="round" stroke-width="0.5"><title>2023-10-23 1.0km</title><desc>10087395010</desc></polyline><polyline fill="none" points="46.2583675137721,91.62949837860651 46.73572628409602,91.5 50.13690752442926,91.7589967380627 51.628653682535514,92.14749170234427 51.986672760453075,92.3417391203111 52.76238076295704,92.92448111675913 53.29940937971696,93.57197177177295 54.492806305876,95.77343643736094 55.08950476930477,98.23389043315547 55.8652127715759,99.52886345918523 56.22323184926063,100.56484050879953 57.05860969773494,102.44254580512643 57.6553081611637,104.38499534671428 58.55035585584119,105.93895189516479 58.96804478019476,106.3921887052129 59.505073397187516,107.29866162565304 59.80342262866907,109.24110045615816 59.98243216751143,109.75908342085313 60.45979093806818,110.47130949964048 60.57913063117303,111.57202139764559 60.758140169782564,112.02525530860294 63.38361340807751,118.24101112637436 63.74163248599507,118.5 63.74163248599507,118.17626389593352 63.20460386900231,117.65828588197473 62.60790540603921,116.23384477256332 62.01120694261044,115.00364377879305 60.400121091865,110.01807478885166" stroke="#4dd2ff" stroke-linecap="round" stroke-linejoin="round" stroke-width="0.5"><title>2023-10-22 1.5km</title><desc>10080655811</desc></polyline><polyline fill="none" points="80.70558573654853,91.5 81.65288300043903,92.18528886185959 79.94774792529643,91.9111733775353 82.60018026432954,95.33761113631772 82.85279286815785,96.15995432407362 82.66333341551945,96.84523975942284 81.77918930235319,97.32493926456664 81.52657669852488,97.80463852267712 81.58972984971479,98.62697953346651 82.09495505690575,100.61430064769229 82.66333341551945,102.05339260253822 83.2948649248574,104.24629035609541 84.4316216413863,106.23359948891448 84.62108109425753,106.98740529286442 85.31576575455256,108.22090438427404 85.7578378112521,108.76912567886757 85.82099096174352,109.11176382406848 86.2630630186759,109.52292943227803 86.57882877299562,110.20820504275616 87.020900829928,111.51022731454577 87.46297288639471,112.40108361048624 87.39981973543763,114.18279364804039 88.22081069741398,115.75891891930951 88.47342330124229,116.51271702011582 88.91549535747617,117.33504152559908 89.67333316896111,118.29441919847159 90.05225207447074,118.5 88.59972960315645,116.44418994517764 88.28396384860389,115.34775606211042 87.65243233903311,113.97721189440927 87.39981973543763,113.08635710488306 86.57882877299562,111.92139186465647 85.88414411293343,109.93409485905431" stroke="#4dd2ff" stroke-linecap="round" stroke-linejoin="round" stroke-width="0.5"><title>2023-10-20 1.4km</title><desc>10069668027</desc></polyline><polyline fill="none" points="109.56703137257136,91.5 109.69562234613113,92.54652593983337 110.72435013344511,95.05818348564208 110.98153208033182,96.5930820464855 113.10328314173967,101.75590443867259 113.29616960207932,102.45358098583529 113.42476057563908,103.50009484484326 113.68194252229296,104.1977701097494 115.22503420338035,106.36056017078226 116.06087553082034,108.03497489710571 116.57523942436092,109.7093866688665 117.02530783158727,110.61635847843718 117.28248977847397,112.01169803109951 117.60396721214056,112.70936703804182 118.43980853934772,114.87213770003291 118.56839951267466,115.70933792338474 119.79001376056112,118.22093416174175 120.11149119399488,118.5 120.3043776541017,118.5 120.43296862742864,118.43023354804609 120.36867314088158,118.36046709102811 119.0827634066809,116.7558371637715 118.5041040261276,114.8023709814297 117.28248977847397,112.56983327766648 117.08960331836715,111.66286333516473 116.96101234480739,110.1279891502927" stroke="#4dd2ff" stroke-linecap="round" stroke-linejoin="round" stroke-width="0.5"><title>2023-10-19 1.3km</title><desc>10064004415</desc></polyline><polyline fill="none" points="138.91170686017722,91.5 141.55879083368927,94.94682409497909 141.38231856934726,97.43619421566837 141.7352630989626,99.92556195752695 142.9705689540133,104.32982213282958 144.73529160209,107.20216171373613 146.50001425109804,112.18087615049444 150.02945955004543,117.92553482879885 150.5588763449341,118.5 151.08829313889146,118.30851162341423 148.79415369499475,116.01065000984818 144.558819337748,107.77662924979813 143.49998574797064,104.13833271479234 140.49995724391192,97.81917402287945" stroke="#4dd2ff" stroke-linecap="round" stroke-linejoin="round" stroke-width="0.5"><title>2023-10-18 1.0km</title><desc>10058081424</desc></polyline><polyline fill="none" points="170.2873885538429,93.13637109496631 171.7954242164269,101.93184924288653 175.75401783175766,112.36365937138908 178.39308024197817,117.88636654615402 179.52410698961467,118.5 180.08962036296725,118.5 180.46662927884609,117.6818220319692 179.14709807466716,116.0454653725028 177.45055795367807,113.38638374954462 175.18850445840508,108.47730330657214 174.24598216917366,105.61366904852912 170.2873885538429,97.63638664479367 169.91037963796407,96.40911039849743 169.53337072208524,91.5" stroke="#4dd2ff" stroke-linecap="round" stroke-linejoin="round" stroke-width="0.5"><title>2023-10-17 1.0km</title><desc>10051702317</desc></polyline><polyline fill="none" points="18.970755643211305,122.12307983194478 20.884801470674574,125.44616994820535 23.755870210938156,132.9231084161438 25.287106873467565,135.83080136496574 27.009748117998242,141.2307946155779 29.115198528394103,146.63077754480764 29.880816859193146,148.08461733930744 30.83783977292478,148.5 31.029244355857372,148.29230867745355 30.83783977292478,147.6692346171476 28.73238936252892,144.55386225529946 25.86132062226534,137.4923388492316 23.755870210938156,133.13080086861737 22.0332289673388,125.03078389703296 21.076206053607166,121.5" stroke="#4dd2ff" stroke-linecap="round" stroke-linejoin="round" stroke-width="0.5"><title>2023-10-16 1.0km</title><desc>10046279660</desc></polyline><polyline fill="none" points="49.47053427621722,121.5 50.26045795157552,123.21429314976558 51.05038162600249,127.07144905114546 52.82770989462733,133.07145919674076 55.197480918839574,136.7143164735753 57.96221378073096,147.00000656116754 58.94961837399751,148.07143052481115 60.331984804943204,148.5 60.5294657247141,148.07143052481115 60.331984804943204,146.78572172136046 57.76473286189139,143.14287703181617 56.382366430945694,138.85717156808823 54.80251908209175,136.28574526542798 51.05038162600249,127.50002161413431 49.668015195056796,121.5" stroke="#4dd2ff" stroke-linecap="round" stroke-linejoin="round" stroke-width="0.5"><title>2023-10-15 1.0km</title><desc>10039610121</desc></polyline><polyline fill="none" points="79.3813481060788,123.45968570327386 79.98334652278572,129.77421970525756 81.58867563586682,134.34680488915183 83.59533702675253,137.17744932160713 84.7993338610977,141.096798685845 88.21065822523087,147.19355405378155 89.0133227808401,148.0645180819556 90.01665347721428,148.5 90.6186518939212,148.0645180819556 90.6186518939212,147.41129508474842 86.60532911214978,144.1451779382769 83.99666930455714,139.354866275331 82.99333860911429,135.21777269500308 80.58534494042397,129.77421970525756 79.3813481060788,125.20162746263668 79.58201424591243,122.37097158376127 79.3813481060788,121.5" stroke="#4dd2ff" stroke-linecap="round" stroke-linejoin="round" stroke-width="0.5"><title>2023-10-14 1.0km</title><desc>10033377496</desc></polyline><polyline fill="none" points="108.87809242028743,121.92857338255271 112.43274843506515,126.21430373727344 112.82771021407098,129.4285973678343 116.18488533888012,139.7143131652847 119.3445795737207,147.2142913856078 120.33198402170092,148.5 121.12190758064389,148.5 121.12190758064389,147.8571457641665 120.92442669067532,147.2142913856078 119.1470986828208,145.92858220404014 117.17228978779167,142.28573644324206 115.00000000093132,135.42860266123898 111.05038220714778,126.64287642599083 110.45793953817338,123.64286628039554 109.47053508926183,121.5" stroke="#4dd2ff" stroke-linecap="round" stroke-linejoin="round" stroke-width="0.5"><title>2023-10-13 1.0km</title><desc>10028006924</desc></polyline><polyline fill="none" points="139.20672580506653,121.5 141.10615996737033,123.97329326206818 142.24582046456635,126.03436931292526 142.4357638815418,128.71376591431908 142.24582046456635,131.59926708275452 144.33519804291427,135.92751326714642 146.80446245428175,142.5229231736157 149.2737268647179,147.0572584841866 149.84355711378157,147.88168229884468 150.79327419400215,148.5 150.79327419400215,147.46947042178363 148.70389661658555,144.79009174578823 146.80446245428175,141.49239139887504 144.33519804291427,134.69087218213826 142.81565071363002,132.0114812932443 142.05587704852223,129.7443023873493" stroke="#4dd2ff" stroke-linecap="round" stroke-linejoin="round" stroke-width="0.5"><title>2023-10-12 1.0km</title><desc>10021974100</desc></polyline><polyline fill="none" points="171.84325277712196,125.328374392353 172.5860168300569,129.35823639691807 172.400325817056,130.97017953987233 174.07154493406415,136.4104806468822 175.3713820260018,138.82838878338225 176.67121911793947,143.2612148274202 178.52812924887985,147.69403370190412 178.89951127488166,148.09701688028872 179.8279663408175,148.5 179.6422753278166,147.69403370190412 177.59967418387532,142.4552469891496 175.3713820260018,138.6268965199124 172.400325817056,131.7761507553514 171.65756176412106,129.15674343751743 171.28617973811924,125.328374392353 170.1720336591825,121.5" stroke="#4dd2ff" stroke-linecap="round" stroke-linejoin="round" stroke-width="0.5"><title>2023-10-10 1.0km</title><desc>10009069592</desc></polyline><polyline fill="none" points="20.42599410098046,154.87501476355828 21.706715752370656,158.44855520920828 22.987437404692173,163.2132684479002 25.731840944848955,169.16914817341603 27.92736377660185,176.71324363560416 29.20808542892337,178.5 29.574005900882185,177.90441467636265 29.756966137327254,175.72060069977306 28.476244485005736,171.94855421641842 25.731840944848955,167.18385639088228 22.621516932733357,158.44855520920828 21.706715752370656,154.47795442165807 20.24303386360407,151.5" stroke="#4dd2ff" stroke-linecap="round" stroke-linejoin="round" stroke-width="0.5"><title>2023-10-09 1.0km</title><desc>10003389142</desc></polyline><polyline fill="none" points="49.502682130783796,151.5 50.85290055535734,153.17442605248652 52.20311897993088,156.31397224590182 52.974672365002334,162.59305424662307 55.86799755971879,168.87212239811197 58.37554606050253,175.98838289501145 59.532876138575375,178.08139730314724 60.497317869216204,178.5 60.497317869216204,176.82558884308673 56.832439290359616,170.9651420377195 52.01023063343018,159.24421223602258 50.08134717028588,151.70930331083946" stroke="#4dd2ff" stroke-linecap="round" stroke-linejoin="round" stroke-width="0.5"><title>2023-10-08 1.0km</title><desc>9996447828</desc></polyline><polyline fill="none" points="81.53421115130186,156.90002223243937 82.42287495918572,160.17860173550434 85.08886638097465,167.31431943108328 85.97753018885851,170.40002917940728 88.82125437259674,177.5357190708164 89.7099181804806,178.5 89.88765094149858,177.7285752852913 89.88765094149858,176.95715034380555 86.51072847377509,170.97859935299493 84.91113361995667,167.507176396437 82.06740943621844,159.02145649609156 81.17874562833458,154.58572835079394 80.11234905850142,151.5" stroke="#4dd2ff" stroke-linecap="round" stroke-linejoin="round" stroke-width="0.5"><title>2023-10-07 1.0km</title><desc>9989974159</desc></polyline><polyline fill="none" points="112.79409733694047,159.5425824597478 114.20587504096329,164.138332715258 115.26470831874758,166.43620480247773 117.38237487524748,175.43618429102935 117.91179151460528,177.15958107053302 118.9706247933209,178.5 119.85298585798591,178.5 120.20593028329313,177.73404641030356 120.02945807110518,177.15958107053302 117.91179151460528,174.0957637843676 115.79412495810539,169.50003109802492 115.08823610655963,166.43620480247773 111.38231963291764,157.43619421636686 110.85290299355984,154.18086357903667 109.79406971577555,151.5" stroke="#4dd2ff" stroke-linecap="round" stroke-linejoin="round" stroke-width="0.5"><title>2023-10-06 1.0km</title><desc>9984428862</desc></polyline><polyline fill="none" points="139.1872590482235,151.5 142.24659639131278,159.68855017540045 144.2861546203494,166.54921020008624 147.75340360961854,175.18034092569724 149.18109436891973,178.05737900245003 149.79296183772385,178.5 150.60878513008356,178.5 150.8127409517765,178.05737900245003 150.20087348297238,176.95082622091286 147.75340360961854,173.40985458972864 146.32571284938604,170.53281207149848 143.87824297416955,164.1147842395585 142.8584638601169,160.79510930157267 140.00308233965188,155.48362178634852 140.00308233965188,153.49181155208498" stroke="#4dd2ff" stroke-linecap="round" stroke-linejoin="round" stroke-width="0.5"><title>2023-10-04 1.0km</title><desc>9971682885</desc></polyline><polyline fill="none" points="170.91344425641,154.65329869673587 171.8215677542612,157.80659368471242 172.7296912530437,159.9744818371255 173.45619005244225,163.324850987643 176.90705934725702,170.22265664255247 177.08868404757231,172.58761449554004 178.1784322457388,177.317523942329 178.54168164543808,177.90876203635707 179.63142984360456,178.5 179.63142984360456,176.52920628082938 177.2703087478876,172.19345499831252 175.63568644970655,168.4489368838258 174.72756295092404,166.67521595116705 173.8194394512102,164.1131725325249 172.0031924545765,160.36864313133992 171.27669365517795,157.41243201401085 170.91344425641,154.45621763705276 170.36857015639544,151.5" stroke="#4dd2ff" stroke-linecap="round" stroke-linejoin="round" stroke-width="0.5"><title>2023-10-03 1.0km</title><desc>9965060084</desc></polyline><polyline fill="none" points="20.064607836306095,182.61570723657496 22.532303918153048,190.64878723444417 22.943586599081755,194.2190381870605 24.383075979538262,196.0041620878037 25.411282680928707,198.68184597115032 27.2620547413826,205.5991850697901 28.70154412277043,207.83058141567744 29.72975082322955,208.5 29.935392163693905,208.27686048811302 29.318468143232167,206.49174380488694 27.056413401849568,202.25208747433499 23.354869278147817,193.32647584215738 21.092814536765218,186.63224989292212 20.681531856767833,181.5" stroke="#4dd2ff" stroke-linecap="round" stroke-linejoin="round" stroke-width="0.5"><title>2023-10-02 1.0km</title><desc>9958643020</desc></polyline><polyline fill="none" points="50.720193058252335,186.25201799208298 51.11831463407725,188.1960231375415 55.497651970013976,198.56402885355055 57.687320638448,205.2600131004583 58.88168536685407,207.63600384257734 60.0760500933975,208.5 60.27511088270694,208.28400098439306 60.0760500933975,207.42000476364046 56.09483433328569,201.37202410562895 52.31267936248332,192.08402956835926 50.521132269874215,186.4680186274927 49.72488911822438,181.5" stroke="#4dd2ff" stroke-linecap="round" stroke-linejoin="round" stroke-width="0.5"><title>2023-10-01 1.0km</title><desc>9952075403</desc></polyline><polyline fill="none" points="81.12336484435946,185.41306045162492 82.74614235199988,188.7391573113855 83.46737679839134,192.0652500144206 84.00830263458192,195.19568640808575 86.71293181274086,202.82610969012603 89.05694376770407,207.71739515918307 90.13879543822259,208.5 90.49941266234964,207.9130463907495 86.89324042480439,202.43480646470562 85.27046291809529,198.71742294891737 84.72953708283603,196.76090322365053 82.2052165158093,191.282640340738 80.76274762116373,185.2174075653311 79.50058733765036,181.5" stroke="#4dd2ff" stroke-linecap="round" stroke-linejoin="round" stroke-width="0.5"><title>2023-09-30 1.0km</title><desc>9945549317</desc></polyline><polyline fill="none" points="110.81972591113299,181.5 112.61127194948494,184.52401233883575 113.20845396257937,186.90001985034905 114.80093932896852,190.788027996663 115.59718201402575,196.62003056914546 116.19436402618885,198.34802910801955 118.58309207763523,204.18001667386852 119.18027408979833,207.8520029061474 119.57839543186128,208.2840009846259 120.1755774449557,208.5 120.37463811598718,208.06800195295364 116.79154603928328,201.58802362973802 114.4028179878369,195.97203085501678 113.60657530464232,192.73203014023602 110.81972591113299,186.25201799278148 109.62536188494414,182.36400384292938" stroke="#4dd2ff" stroke-linecap="round" stroke-linejoin="round" stroke-width="0.5"><title>2023-09-28 1.0km</title><desc>9933629332</desc></polyline><polyline fill="none" points="139.72187129873782,184.56819501379505 141.22990807145834,189.88639168953523 144.05747701786458,193.77275975467637 145.94252298213542,200.72729958500713 148.58158733230084,205.43183137779124 149.33560571912676,208.09091104590334 150.08962410409003,208.5 150.46663329843432,207.8863665459212 150.08962410409003,207.06818839721382 148.58158733230084,205.02274197200313 144.2459816141054,196.2273052087985 141.9839264564216,190.09093751222827 139.533366702497,181.5" stroke="#4dd2ff" stroke-linecap="round" stroke-linejoin="round" stroke-width="0.5"><title>2023-09-27 1.0km</title><desc>9927137811</desc></polyline><polyline fill="none" points="177.24298205017112,181.5 176.70466635818593,184.09618973411852 176.16635066620074,185.5889953733422 175.74766068346798,187.40632057009498 173.29533364181407,192.5337536331499 172.03926369408146,194.67558394157095 171.80001227511093,195.5842376536457 171.91963798436336,196.29817920009373 172.2187022578437,197.33663860021625 173.115895077819,199.54336076957406 173.41495935129933,200.12749218509998 173.77383647928946,201.16594708053162 174.97009357251227,202.65872385265538 175.5084092647303,203.8269821741269 176.10653781169094,204.7356264666305 176.5850406489335,206.03368811903056 177.30279490514658,207.0072331057745 178.1999877251219,208.5" stroke="#4dd2ff" stroke-linecap="round" stroke-linejoin="round" stroke-width="0.5"><title>2023-09-26 1.0km</title><desc>9920397094</desc></polyline><polyline fill="none" points="24.873907544650137,211.5 23.6970446286723,215.4223337789299 22.520181713160127,217.52032117464114 21.427380433306098,218.8885719126556 20.83894897578284,219.98317141644657 20.586764065083116,221.07776995445602 20.670825701672584,222.44601676869206 21.091133886482567,223.5406131336931 22.099873528350145,225.09128966438584 22.520181713160127,226.64196425664704 23.36079808138311,228.64871673414018 24.957969181705266,230.65546596597414 27.64794156095013,236.12840191822033 29.413235934916884,238.5" stroke="#4dd2ff" stroke-linecap="round" stroke-linejoin="round" stroke-width="0.5"><title>2023-09-25 1.0km</title><desc>9914573673</desc></polyline><polyline fill="none" points="56.99057334009558,211.5 56.327048893785104,212.50801337813027 56.19434400415048,213.012019678019 56.327048893785104,213.6600273968652 56.39340133825317,214.30803468660451 55.0663524447009,216.75605835590977 54.73459022119641,218.412070897175 54.2701231087558,219.63607836677693 51.48332043224946,224.53209294530097 51.41696798754856,225.1080930508324 51.682377765886486,226.26009224599693 52.41225465759635,227.4120900858543 52.81036932580173,228.42008708399953 53.40754132764414,229.4280830444768 53.73930355114862,230.43607796734432 54.60188533202745,231.80406941764522 55.265409778570756,233.1720589569304 55.99528667051345,233.964052027266 56.19434400415048,234.6840451717144 56.65881111705676,235.2600393060129 57.65409778733738,236.98801967676263 58.38397467858158,237.78000966098625 58.58303201268427,238.5" stroke="#4dd2ff" stroke-linecap="round" stroke-linejoin="round" stroke-width="0.5"><title>2023-09-24 1.0km</title><desc>9907510217</desc></polyline><polyline fill="none" points="86.00656214216724,211.5 85.44288734253496,212.37379601283465 85.04026248585433,213.2475913829403 84.79868757212535,214.38352440390736 84.71816260041669,215.86897363874596 83.34923808695748,217.70393777731806 82.54398837359622,219.80103618034627 81.81926363147795,220.84958399401512 81.33611380308867,222.2476463066414 81.25558883138001,223.73308571160305 82.94661323027685,228.0146359608043 83.59081300115213,229.32531152490992 85.6844622567296,232.64568315108772 86.57023694179952,234.83013310923707 87.69758654106408,236.22817897505593 88.34178631193936,237.36409003043082 88.74441116908565,238.5" stroke="#4dd2ff" stroke-linecap="round" stroke-linejoin="round" stroke-width="0.5"><title>2023-09-23 1.0km</title><desc>9901004991</desc></polyline><polyline fill="none" points="116.03675957862288,211.5 115.49918053811416,212.50001147040166 114.96160149760544,214.2500294201309 113.73284940514714,216.8333843119908 112.50409731268883,218.58339557045838 111.4289392316714,221.50007499643834 111.3521422254853,223.08341211284278 111.50573623785749,224.0000799590489 113.04167635319754,227.66674392909044 113.27206737035885,228.75007419561734 113.5792553932406,229.3334054487059 114.65441347425804,230.66673290001927 115.49918053811416,232.3333900080761 116.19035359006375,234.08337733428925 117.34230867680162,235.75002941855928 118.64785777498037,238.5" stroke="#4dd2ff" stroke-linecap="round" stroke-linejoin="round" stroke-width="0.5"><title>2023-09-22 1.0km</title><desc>9895405405</desc></polyline><polyline fill="none" points="146.43127718381584,211.5 146.21108069410548,212.29646981041878 145.77068771468475,212.77435141563183 144.8165029254742,214.5265821639914 144.44950877595693,215.80093001882778 143.34852632693946,218.58856072451454 142.17414504801854,220.97795276233228 141.44015674851835,222.73017024050932 141.219960258808,223.60627791646402 141.219960258808,224.1638006141875 141.44015674851835,224.96026111306855 141.88054972840473,225.75672102649696 142.8347345176153,228.22574303630972 143.78891930636019,229.97794879041612 144.30271111568436,231.2522784678731 145.25689590489492,232.8451884566457 145.84408654412255,233.5619971874985 146.28447952400893,234.83632264879998 147.45886080292985,236.90709832619177 148.780039741192,238.5" stroke="#4dd2ff" stroke-linecap="round" stroke-linejoin="round" stroke-width="0.5"><title>2023-09-21 1.0km</title><desc>9889267953</desc></polyline><polyline fill="none" points="177.74893571832217,211.5 176.7853912396822,214.3907022520434 176.2186003702227,216.6663544435287 175.3117349781096,218.57297718862537 174.23483232571743,221.77117332391208 172.3644224551972,225.2768742701155 171.85431067249738,227.18347738828743 171.91098975925706,227.61400007159682 172.25106428121217,228.5365479324828 172.9878924121149,230.13562848127913 173.44132510805503,231.4886942502926 174.57490684767254,233.08776915556518 175.25505589158274,234.37932742462726 175.6518095000647,235.30186782439705 176.105242195772,236.10140201455215 176.84207032690756,236.65492523700232 177.74893571832217,238.00798046117416 177.80561480554752,238.25399026670493 178.14568932750262,238.5" stroke="#4dd2ff" stroke-linecap="round" stroke-linejoin="round" stroke-width="0.5"><title>2023-09-20 1.0km</title><desc>9882714971</desc></polyline><polyline fill="none" points="27.238754540216178,241.5 26.663074801443145,242.95760326780146 25.575679739005864,246.15044065576512 25.511715323431417,247.19158094731392 25.12792883068323,247.74685529997805 24.68017792282626,248.7879938307451 24.424320260761306,249.75972209015163 23.91260493732989,251.0784945563646 22.441423382377252,253.4383985819295 22.057636889629066,254.82657466462115 21.929708058945835,256.075931393716 22.057636889629066,257.32528646918945 22.441423382377252,258.7134568361216 22.889174290001392,259.68517487851204 24.296391429845244,262.1144656082615 25.0,263.08618014963577 25.63964415411465,264.8213822004036 26.27928830869496,265.9319098389824 26.918932462809607,266.8342125834897 27.622541032731533,267.52829103090335 28.070291941054165,268.5" stroke="#4dd2ff" stroke-linecap="round" stroke-linejoin="round" stroke-width="0.5"><title>2023-09-19 1.0km</title><desc>9876194288</desc></polyline><polyline fill="none" points="54.801259933039546,241.5 54.32428377168253,242.27636650414206 53.529323503840715,243.82909797120374 53.290835422929376,244.8642511406215 51.85990693978965,247.3658675296465 50.74696256406605,249.69495385535993 50.508474483620375,250.5575772470329 50.58797051059082,251.50646224501543 51.06494667194784,252.7141329512233 51.78041091328487,254.0080644710688 52.416379128117114,255.81956620130222 53.290835422929376,257.7173269188497 54.244787745177746,259.44256127101835 55.11924404045567,260.56396223965567 56.15269238920882,262.289192405995 56.78866060357541,264.2732039610855 57.90160497976467,265.998428673367 58.45807716762647,267.5511287454283 59.491525516379625,268.5" stroke="#4dd2ff" stroke-linecap="round" stroke-linejoin="round" stroke-width="0.5"><title>2023-09-18 1.0km</title><desc>9870505463</desc></polyline><polyline fill="none" points="85.27130160154775,241.5 84.8837278848514,242.2570180289331 84.34112468129024,244.78040784032783 83.64349199132994,245.95798784750514 83.33343301760033,246.88322843116475 81.62810866395012,249.6589456924121 81.00799071695656,251.1729704508325 80.6204170002602,252.51876855356386 80.93047597352415,253.4440038310131 82.63580032717437,257.14493745734217 83.48846250446513,258.4907285349327 84.10858045099303,259.9206298200297 85.11627211468294,261.2664176323451 85.65887531870976,262.1916458348278 86.35650800867006,264.37854588468326 89.37958299927413,268.5" stroke="#4dd2ff" stroke-linecap="round" stroke-linejoin="round" stroke-width="0.5"><title>2023-09-16 1.0km</title><desc>9856514700</desc></polyline><polyline fill="none" points="114.6267660856247,241.5 113.79735738644376,244.02002519892994 112.71912607783452,245.73003934358712 110.4797225901857,250.05006443581078 110.39678171975538,251.0400680389721 110.4797225901857,252.21007126464974 110.977367809508,253.3800733720418 111.80677650868893,254.64007439091802 112.5532443379052,256.3500736991409 113.88029825640842,258.6000691493973 115.53911565523595,261.75005583208986 115.7049973946996,262.9200488211354 116.28558348398656,263.3700458268868 116.94911044370383,264.27003934187815 118.02734175231308,266.07002438721247 119.18851393088698,267.06001503393054 119.43733654078096,267.69000866496935 119.60321828071028,268.5" stroke="#4dd2ff" stroke-linecap="round" stroke-linejoin="round" stroke-width="0.5"><title>2023-09-15 1.0km</title><desc>9850671982</desc></polyline><polyline fill="none" points="145.68640634138137,241.5 144.31359365861863,245.13106798846275 142.7691793902777,247.3655661904486 142.082773049362,248.57591773686 141.05316353728995,251.18282483052462 140.79576115915552,252.11386177758686 140.79576115915552,252.85869084193837 141.05316353728995,253.78972655686084 142.082773049362,256.58282959414646 143.02658176841214,258.4448948628269 145.34320317115635,262.44832591875456 146.2870118902065,264.21727979544085 146.458613475319,265.2414098577574 147.14501981670037,265.89312855689786 148.26043012179434,267.662077621324 149.20423884084448,268.5" stroke="#4dd2ff" stroke-linecap="round" stroke-linejoin="round" stroke-width="0.5"><title>2023-09-14 1.0km</title><desc>9844236351</desc></polyline><polyline fill="none" points="170.70887012802996,241.5 171.20281313476153,241.90199097857112 171.38804176240228,242.3039817797835 171.51152751408517,243.1749612404965 171.88198476913385,243.91194321104558 172.12895627273247,245.98888919339515 172.12895627273247,246.99386135616805 172.00547052081674,247.52984605642268 172.12895627273247,248.1998264885624 172.43767065182328,249.00380235683406 172.31418490037322,249.67378170514712 172.37592777609825,250.00877119449433 172.99335653474554,251.14773453748785 173.54904241743498,252.8226780439727 174.04298542416655,253.76064506283728 174.66041418281384,254.63161357294302 175.33958581718616,255.23459128447575 175.52481444459409,255.6365762039204 175.71004307223484,256.5075429211138 176.20398607919924,257.378508805763 176.75967196188867,258.9864436365897 177.50058647198603,260.3933842863189 177.8710437270347,261.59933168569114 178.05627235467546,262.604286632617 178.42672960995696,263.40824979246827 179.1059012443293,265.6191448243917 180.03204438230023,267.36105834465707 180.0937872582581,267.62904474453535 180.03204438230023,267.8300344927702 179.29112987197004,268.5 179.66158712701872,268.2320138561772 179.84681575465947,267.8300344927702 179.97030150610954,267.4950515545206 179.90855863061734,267.0260752339964 179.53810137556866,266.55709867202677 178.42672960995696,264.14521539898124 177.8710437270347,262.33629875513725 176.6979290859308,259.7234128191485 176.14224320324138,257.17751675244654 175.83352882415056,256.44054551096633 174.66041418281384,254.8996037162142 173.4872995414771,252.6886826767004 172.93161365855485,250.87974329077406 172.7463850316126,249.67378170514712 172.25244202418253,248.40082052216167 171.2645560107194,246.25688187853666 171.01758450712077,245.25190890283557 170.1531842451077,243.6439498362015 169.96795561769977,242.7729708236875 169.9062127417419,241.70099551149178" stroke="#4dd2ff" stroke-linecap="round" stroke-linejoin="round" stroke-width="0.5"><title>2023-09-13 1.0km</title><desc>9837636972</desc></polyline></svg>