<svg xmlns="http://www.w3.org/2000/svg" xmlns:ev="http://www.w3.org/2001/xml-events" xmlns:xlink="http://www.w3.org/1999/xlink" width="200mm" height="300mm" baseProfile="full" version="1.1" viewBox="0 0 200 300"><rect width="200" height="300" x="0" y="0" fill="#222"/><text fill="#FFF" style="font-size:12px;font-family:Arial;font-weight:700" x="10" y="20">Over 1km Runs</text><text fill="#FFF" style="font-size:4px;font-family:Arial" x="10" y="280">ATHLETE</text><text fill="#FFF" style="font-size:9px;font-family:Arial" x="10" y="290">Jiakai</text><text fill="#FFF" style="font-size:4px;font-family:Arial" x="120" y="280">STATISTICS</text><text fill="#FFF" style="font-size:3px;font-family:Arial" x="120" y="285">Number: 110</text><text fill="#FFF" style="font-size:3px;font-family:Arial" x="120" y="290">Weekly: 5.2</text><text fill="#FFF" style="font-size:3px;font-family:Arial" x="141" y="285">Total: 113.7 km</text><text fill="#FFF" style="font-size:3px;font-family:Arial" x="141" y="290">Avg: 1.0 km</text><text fill="#FFF" style="font-size:3px;font-family:Arial" x="167" y="285">Min: 1.0 km</text><text fill="#FFF" style="font-size:3px;font-family:Arial" x="167" y="290">Max: 1.5 km</text><polyline fill="none" stroke="#4dd2ff" stroke-linecap="round" stroke-linejoin="round" stroke-width=".5" points="10.923 33.03 11.275 33.698 12.33 36.655 12.769 38.754 13.912 41.902 14.088 42.951 14.703 44.191 15.231 44.859 15.846 45.336 16.549 45.431 17.604 45.431 19.275 45.05 20.242 44.668 21.56 44.477 23.758 43.619 25.78 42.665 27.363 41.616 27.538 41.329"><title>2024-03-16 1.0km</title><desc>10967572329</desc></polyline><polyline fill="none" stroke="#4dd2ff" stroke-linecap="round" stroke-linejoin="round" stroke-width=".5" points="31.115 32.906 31.289 33.945 31.55 34.7 32.594 36.305 32.768 36.777 32.768 37.437 33.986 39.608 34.421 42.063 35.117 44.139 35.465 44.894 35.9 45.272 37.466 45.555 39.119 45.366 42.076 44.517 45.121 43.29 45.991 42.912 47.557 41.874 47.731 41.307"><title>2024-03-12 1.0km</title><desc>10939588558</desc></polyline><polyline fill="none" stroke="#4dd2ff" stroke-linecap="round" stroke-linejoin="round" stroke-width=".5" points="61.581 31.484 60.753 31.26 59.408 31.148 57.96 31.597 56.615 32.383 56.098 33.056 55.684 33.73 55.477 35.414 55.477 37.322 55.374 41.588 55.581 44.507 55.891 45.742 57.236 46.977 58.995 47.538 60.96 47.202 62.305 46.528 63.236 45.63 63.857 43.834 63.857 38.782 63.65 36.2 63.857 34.628 63.547 33.393 62.926 32.27 61.788 31.484 59.615 30.923 58.167 31.372 56.822 32.27 56.098 33.281 55.477 34.628"><title>2024-03-11 1.0km</title><desc>10935364964</desc></polyline><polyline fill="none" stroke="#4dd2ff" stroke-linecap="round" stroke-linejoin="round" stroke-width=".5" points="71.679 34.287 71.5 34.966 71.679 36.129 72.84 39.619 73.108 40.297 73.555 40.879 74.18 42.526 74.984 43.302 75.609 43.69 78.11 44.174 79.182 43.98 80.79 43.98 83.113 43.302 86.061 42.042 86.865 41.46 87.937 40.976 88.115 40.685 87.758 38.746"><title>2024-03-08 1.0km</title><desc>10912839308</desc></polyline><polyline fill="none" stroke="#4dd2ff" stroke-linecap="round" stroke-linejoin="round" stroke-width=".5" points="91.692 33.442 92.567 35.15 95.977 44.26 96.502 44.829 98.164 45.019 100.874 44.545 103.498 43.786 107.346 41.983 108.045 41.223 108.308 40.369 108.22 39.99"><title>2024-03-07 1.0km</title><desc>10906173208</desc></polyline><polyline fill="none" stroke="#4dd2ff" stroke-linecap="round" stroke-linejoin="round" stroke-width=".5" points="111.885 33.35 112.151 36.242 112.862 38.459 115.35 44.051 115.616 44.534 116.327 44.919 117.305 45.112 118.015 45.112 118.904 44.823 120.148 44.726 122.28 44.341 126.368 42.702 127.878 41.834 128.5 41.255 128.5 40.773"><title>2024-03-06 1.0km</title><desc>10898894581</desc></polyline><polyline fill="none" stroke="#4dd2ff" stroke-linecap="round" stroke-linejoin="round" stroke-width=".5" points="132.077 33.378 132.164 33.662 132.512 34.794 133.382 39.136 133.904 40.08 134.774 42.535 135.905 44.045 136.253 44.706 136.861 44.989 138.166 45.083 141.907 44.8 143.734 44.045 144.604 43.573 147.126 42.723 147.735 42.063 148.344 41.874 148.692 41.402 148.257 40.08"><title>2024-03-05 1.0km</title><desc>10891326638</desc></polyline><polyline fill="none" stroke="#4dd2ff" stroke-linecap="round" stroke-linejoin="round" stroke-width=".5" points="165.186 46.041 167.793 44.857 168.763 44.001 168.885 43.475 168.46 42.159 167.975 40.909 167.005 39.527 166.52 39.066 165.064 36.697 163.427 34.526 163.548 33.934 163.427 33.671 162.639 32.42 159.971 32.618 159.061 32.947 157.484 33.144 155.786 33.868 154.634 34.658 153.543 34.921 152.997 35.316 152.572 35.381 152.391 35.579 152.269 35.974 152.451 36.303 152.512 37.026 152.815 38.013 152.694 39.198 153.058 40.053 152.997 41.238"><title>2024-03-04 1.0km</title><desc>10884866628</desc></polyline><polyline fill="none" stroke="#4dd2ff" stroke-linecap="round" stroke-linejoin="round" stroke-width=".5" points="172.462 33.112 172.634 34.42 173.064 35.821 173.064 36.382 173.495 37.503 173.925 39.184 175.044 41.893 176.68 44.415 177.627 45.163 178.66 45.35 181.157 45.069 184.6 44.322 185.633 43.575 187.097 42.921 189.077 41.706"><title>2024-03-03 1.0km</title><desc>10877188327</desc></polyline><polyline fill="none" stroke="#4dd2ff" stroke-linecap="round" stroke-linejoin="round" stroke-width=".5" points="10.923 63.137 12.261 64.347 13.376 64.831 13.934 64.831 16.276 64.589 20.959 63.379 25.42 61.564 27.315 60.112 27.538 59.87 27.315 58.539 26.646 56.845 22.966 50.553"><title>2024-03-02 1.0km</title><desc>10870189784</desc></polyline><polyline fill="none" stroke="#4dd2ff" stroke-linecap="round" stroke-linejoin="round" stroke-width=".5" points="39.374 49.385 39.865 50.556 40.061 51.302 40.159 53.006 43.3 60.462 43.987 62.485 43.987 62.805 43.497 63.231 41.926 64.083 39.668 64.615 37.116 65.68 35.742 66 35.35 65.787 34.859 63.87"><title>2024-01-19 1.0km</title><desc>10585384707</desc></polyline><polyline fill="none" stroke="#4dd2ff" stroke-linecap="round" stroke-linejoin="round" stroke-width=".5" points="56.617 51.476 56.724 53.219 56.938 54.032 58.973 57.634 59.937 59.842 60.472 61.701 61.436 63.56 61.543 65.303 62.185 65.884 62.507 66 62.935 65.884 62.828 65.419 62.185 64.373 59.08 57.286 57.153 53.335 56.296 49.385"><title>2024-01-17 1.0km</title><desc>10572816563</desc></polyline><polyline fill="none" stroke="#4dd2ff" stroke-linecap="round" stroke-linejoin="round" stroke-width=".5" points="76.697 49.385 77.654 53.149 79.688 59.769 81.124 62.495 81.961 65.091 82.559 65.87 82.918 66 82.918 65.481 80.406 60.159 78.133 54.317 76.697 51.462"><title>2024-01-16 1.0km</title><desc>10566280205</desc></polyline><polyline fill="none" stroke="#4dd2ff" stroke-linecap="round" stroke-linejoin="round" stroke-width=".5" points="96.661 49.759 98.388 53.382 99.77 58.13 101.382 61.378 102.763 65.375 103.109 66 103.339 66 99.885 58.879 99.079 56.381 98.503 54.132 97.697 52.508 96.891 49.385"><title>2024-01-09 1.0km</title><desc>10520988068</desc></polyline><polyline fill="none" stroke="#4dd2ff" stroke-linecap="round" stroke-linejoin="round" stroke-width=".5" points="117.199 50.759 117.775 53.132 118.926 55.631 120.998 62.002 122.61 65.625 122.955 66 123.186 65.75 122.84 64.376 122.265 63.501 120.538 59.004 118.926 55.631 117.544 49.385"><title>2024-01-07 1.0km</title><desc>10508221625</desc></polyline><polyline fill="none" stroke="#4dd2ff" stroke-linecap="round" stroke-linejoin="round" stroke-width=".5" points="139.08 54.308 139.307 55.538 140.328 58.123 141.235 61.2 143.05 65.631 143.504 66 143.504 65.138 142.483 63.415 141.916 61.569 139.647 56.769 138.853 54.677 138.286 53.692 137.265 49.385"><title>2024-01-06 1.0km</title><desc>10501510624</desc></polyline><polyline fill="none" stroke="#4dd2ff" stroke-linecap="round" stroke-linejoin="round" stroke-width=".5" points="158.382 52.406 159.238 54.497 159.881 57.169 160.952 60.655 162.13 63.211 162.879 65.07 163.307 65.768 163.736 66 163.629 65.187 163.093 63.909 159.56 57.169 158.917 55.194 158.703 53.335 157.953 51.36 157.418 49.385"><title>2024-01-05 1.0km</title><desc>10495609202</desc></polyline><polyline fill="none" stroke="#4dd2ff" stroke-linecap="round" stroke-linejoin="round" stroke-width=".5" points="177.268 49.385 177.98 51.059 178.573 52.862 179.404 54.537 180.947 58.916 182.846 63.295 183.559 65.614 184.033 66 184.271 65.356 184.152 64.454 181.303 58.658 180.354 55.309 179.404 49.9"><title>2024-01-04 1.0km</title><desc>10489071805</desc></polyline><polyline fill="none" stroke="#4dd2ff" stroke-linecap="round" stroke-linejoin="round" stroke-width=".5" points="16.923 70.9 18.386 74.932 20.188 78.964 21.089 82.385 21.877 84.462 21.989 84.462 21.989 83.606 21.426 81.529 20.3 78.964 19.4 76.398 17.936 73.466 17.035 70.778 16.472 69.068 16.81 67.846"><title>2024-01-03 1.0km</title><desc>10482519748</desc></polyline><polyline fill="none" stroke="#4dd2ff" stroke-linecap="round" stroke-linejoin="round" stroke-width=".5" points="36.07 68.121 38.98 76.634 42.017 83.912 42.65 84.462 42.777 83.912 42.397 82.951 39.233 76.909 38.094 73.888 36.449 67.846"><title>2024-01-01 1.0km</title><desc>10470902913</desc></polyline><polyline fill="none" stroke="#4dd2ff" stroke-linecap="round" stroke-linejoin="round" stroke-width=".5" points="66.646 71.915 66.438 72.254 64.251 73.837 63.313 74.854 62.688 75.984 62.271 76.549 61.959 76.663 60.605 76.663 59.355 77.115 57.688 77.002 56.855 76.663 56.334 75.871 56.022 75.193 55.918 73.611 55.605 72.933 54.355 72.933 53.314 73.272 53.21 73.385 53.626 73.611 53.834 73.385 53.105 73.385 52.897 73.159 52.689 72.367 52.585 71.011 53.105 71.124 53.522 72.028 54.459 73.046 55.189 73.046 55.814 72.593 56.334 72.706 56.438 72.48 55.501 69.768 55.293 69.655 54.147 69.542 53.001 69.655 53.73 69.655 52.689 68.524 52.585 67.846 52.897 68.298 53.21 69.768 53.522 70.446 53.834 71.915 53.21 75.758 53.939 79.262 54.564 80.279 54.668 81.975 55.605 84.462"><title>2023-12-31 1.5km</title><desc>10466792666</desc></polyline><polyline fill="none" stroke="#4dd2ff" stroke-linecap="round" stroke-linejoin="round" stroke-width=".5" points="77.604 71.791 78.816 76.094 80.469 79.561 81.901 83.625 82.341 84.462 82.562 84.462 82.672 83.505 82.231 82.19 80.248 78.126 80.248 77.05 78.816 73.942 78.596 71.552 78.155 70.117 76.944 67.846"><title>2023-12-30 1.0km</title><desc>10458865202</desc></polyline><polyline fill="none" stroke="#4dd2ff" stroke-linecap="round" stroke-linejoin="round" stroke-width=".5" points="100.903 67.846 98.811 68.053 97.385 68.981 96.339 70.013 95.863 71.252 95.483 76.102 95.958 80.953 96.148 81.675 96.434 82.294 97.955 83.946 99.667 84.462 100.999 84.255 102.615 83.223 103.566 82.398 104.517 79.611 104.422 77.444 104.137 75.586 103.947 71.045 103.661 69.91 103.091 69.188 102.425 68.672 100.903 68.362 98.811 68.465 97.29 69.291 96.529 70.22 95.958 71.665 95.958 72.387 96.243 74.141 96.053 75.586"><title>2023-12-29 1.0km</title><desc>10454615358</desc></polyline><polyline fill="none" stroke="#4dd2ff" stroke-linecap="round" stroke-linejoin="round" stroke-width=".5" points="117.872 69.608 119.496 75.399 122.048 83.203 122.86 84.462 122.976 84.462 122.976 83.203 121.236 77.916 119.844 74.518 118.916 72.755 117.408 67.846"><title>2023-12-27 1.0km</title><desc>10441997651</desc></polyline><polyline fill="none" stroke="#4dd2ff" stroke-linecap="round" stroke-linejoin="round" stroke-width=".5" points="137.253 69.986 139.109 73.636 140.037 77.413 141.313 79.804 142.821 83.706 143.285 84.462 143.517 84.336 142.705 81.944 141.545 80.182 137.833 71.371 137.601 68.979 137.253 67.846"><title>2023-12-17 1.0km</title><desc>10391591057</desc></polyline><polyline fill="none" stroke="#4dd2ff" stroke-linecap="round" stroke-linejoin="round" stroke-width=".5" points="157.881 70.771 159.175 74.165 161.332 78.377 163.273 83.994 163.704 84.462 163.812 84.345 163.812 83.876 163.273 82.355 160.361 76.622 159.067 73.112 158.097 69.133 157.342 67.846"><title>2023-12-16 1.0km</title><desc>10386207035</desc></polyline><polyline fill="none" stroke="#4dd2ff" stroke-linecap="round" stroke-linejoin="round" stroke-width=".5" points="178.524 70.969 178.985 73.093 180.597 77.965 181.518 79.464 182.784 83.587 183.129 84.462 183.36 84.462 183.36 83.212 181.633 77.965 179.215 74.217 179.1 72.718 178.409 70.969 178.639 69.845 178.179 67.846"><title>2023-12-14 1.0km</title><desc>10376526598</desc></polyline><polyline fill="none" stroke="#4dd2ff" stroke-linecap="round" stroke-linejoin="round" stroke-width=".5" points="22.797 87.753 21.941 87.03 20.515 86.411 19.183 86.308 17.852 86.617 16.14 87.546 15.379 88.578 14.809 90.333 14.809 94.254 14.999 95.493 15.379 97.041 15.094 98.898 15.189 99.621 15.284 100.033 16.235 101.685 17.757 102.82 18.232 102.923 19.183 102.923 20.134 102.923 21.846 102.304 22.797 101.375 23.368 100.343 23.558 98.073 23.653 96.525 23.368 94.667 23.558 92.19 23.463 90.023 23.368 89.301 22.702 87.856 22.417 87.546 21.371 86.824 19.278 86.617 17.947 86.824 17.186 87.133 15.76 88.681 15.189 90.849 15.379 92.293"><title>2023-12-13 1.0km</title><desc>10373769329</desc></polyline><polyline fill="none" stroke="#4dd2ff" stroke-linecap="round" stroke-linejoin="round" stroke-width=".5" points="37.423 88.664 38.566 93.375 39.709 95.855 41.994 102.303 42.451 102.923 42.68 102.923 42.794 102.427 42.337 101.683 40.509 98.583 37.88 93.251 37.538 91.64 36.281 88.912 36.052 86.308"><title>2023-12-12 1.0km</title><desc>10365882163</desc></polyline><polyline fill="none" stroke="#4dd2ff" stroke-linecap="round" stroke-linejoin="round" stroke-width=".5" points="56.38 86.308 57.567 88.882 59.184 92.977 60.37 95.2 62.096 100.583 62.311 101.987 62.743 102.923 62.85 102.104 62.635 101.168 60.37 96.02 58.753 92.86 58.321 91.573 57.998 88.882 57.135 86.425"><title>2023-12-11 1.0km</title><desc>10361067591</desc></polyline><polyline fill="none" stroke="#4dd2ff" stroke-linecap="round" stroke-linejoin="round" stroke-width=".5" points="80.141 95.579 82.36 102.321 82.471 102.682 82.915 102.923 83.026 102.803 82.693 101.96 81.694 100.033 80.584 97.023 77.478 90.763 76.59 86.308"><title>2023-12-10 1.0km</title><desc>10355395415</desc></polyline><polyline fill="none" stroke="#4dd2ff" stroke-linecap="round" stroke-linejoin="round" stroke-width=".5" points="97.073 87.407 98.987 90.462 99.887 94.249 101.801 99.624 102.477 102.557 102.927 102.923 103.04 102.801 103.04 102.557 102.815 101.579 100.45 96.814 99.887 95.471 99.55 93.394 98.987 91.805 98.086 90.217 97.973 88.507 96.96 86.308"><title>2023-12-09 1.0km</title><desc>10350143310</desc></polyline><polyline fill="none" stroke="#4dd2ff" stroke-linecap="round" stroke-linejoin="round" stroke-width=".5" points="118.421 89.532 119.107 92.011 120.592 95.607 122.649 101.559 123.563 102.923 123.449 101.683 122.763 99.575 120.935 96.351 119.792 93.623 118.535 91.64 118.193 89.656 116.821 86.308"><title>2023-12-08 1.0km</title><desc>10345303898</desc></polyline><polyline fill="none" stroke="#4dd2ff" stroke-linecap="round" stroke-linejoin="round" stroke-width=".5" points="137.708 86.308 137.922 86.889 138.35 88.399 138.564 90.491 138.993 92.233 140.492 95.952 141.455 99.321 142.419 101.413 142.633 102.923 142.847 102.807 143.062 102.575 143.062 102.226 142.526 100.832 140.813 97.927 138.778 92.001 138.243 89.561"><title>2023-12-07 1.0km</title><desc>10340288256</desc></polyline><polyline fill="none" stroke="#4dd2ff" stroke-linecap="round" stroke-linejoin="round" stroke-width=".5" points="157.492 86.308 158.153 87.862 159.365 93.002 161.128 96.229 162.56 100.174 163.221 102.684 163.551 102.923 163.661 102.086 163.441 101.011 161.679 97.305 160.467 95.512 159.806 94.197 157.603 86.666"><title>2023-12-06 1.0km</title><desc>10334845031</desc></polyline><polyline fill="none" stroke="#4dd2ff" stroke-linecap="round" stroke-linejoin="round" stroke-width=".5" points="179.238 89.172 179.977 92.954 180.716 95.704 182.512 100.402 183.462 102.579 183.779 102.923 183.356 100.86 182.3 98.912 181.35 96.162 179.977 93.298 179.344 91.12 178.288 88.829 177.76 86.308"><title>2023-12-05 1.0km</title><desc>10329306344</desc></polyline><polyline fill="none" stroke="#4dd2ff" stroke-linecap="round" stroke-linejoin="round" stroke-width=".5" points="16.179 106.164 16.929 107.325 17.892 110.695 19.82 115.459 20.783 118.712 21.64 120.571 22.283 121.385 22.283 120.804 19.498 114.413 18.428 110.811 17.25 108.139 16.393 104.769"><title>2023-12-04 1.0km</title><desc>10324662812</desc></polyline><polyline fill="none" stroke="#4dd2ff" stroke-linecap="round" stroke-linejoin="round" stroke-width=".5" points="36.537 106.303 37.715 110.776 39.6 114.994 40.895 119.467 41.838 121.257 42.544 121.385 42.544 120.873 41.72 119.467 40.66 116.4 39.482 114.611 38.657 112.438 37.244 107.325 36.302 104.769"><title>2023-12-02 1.0km</title><desc>10313350310</desc></polyline><polyline fill="none" stroke="#4dd2ff" stroke-linecap="round" stroke-linejoin="round" stroke-width=".5" points="56.599 105.65 57.759 107.161 59.151 111.944 60.079 115.846 61.587 120.126 62.515 121.385 62.631 120.629 62.399 119.119 61.123 116.35 59.151 113.203 57.991 110.811 56.831 104.769"><title>2023-12-01 1.0km</title><desc>10308709030</desc></polyline><polyline fill="none" stroke="#4dd2ff" stroke-linecap="round" stroke-linejoin="round" stroke-width=".5" points="76.745 104.769 79.042 112.662 81.339 117.369 82.615 120.831 82.998 121.385 83.125 120.969 82.615 119.585 80.701 116.954 80.191 115.569 78.276 111.831 77.383 107.538 76.49 105.046"><title>2023-11-30 1.0km</title><desc>10303537703</desc></polyline><polyline fill="none" stroke="#4dd2ff" stroke-linecap="round" stroke-linejoin="round" stroke-width=".5" points="98.099 108.322 98.838 110.728 99.155 112.676 100.317 114.968 101.584 118.405 102.851 121.155 103.062 121.385 103.274 121.155 103.062 120.353 102.218 118.864 101.056 115.655 99.366 112.218 98.733 108.551 97.466 106.603 96.726 104.769"><title>2023-11-29 1.0km</title><desc>10298007687</desc></polyline><polyline fill="none" stroke="#4dd2ff" stroke-linecap="round" stroke-linejoin="round" stroke-width=".5" points="117.328 106.921 118.54 110.029 118.76 112.3 120.302 116.006 121.184 119.353 121.955 120.906 122.726 121.385 123.056 121.385 123.277 121.026 123.167 120.548 122.726 119.711 120.963 115.049 119.201 110.985 118.87 109.073 118.099 106.801 117.108 104.769"><title>2023-11-28 1.0km</title><desc>10292316108</desc></polyline><polyline fill="none" stroke="#4dd2ff" stroke-linecap="round" stroke-linejoin="round" stroke-width=".5" points="139.994 104.769 140.97 107.415 141.555 109.955 142.335 111.119 143.213 112.812 144.091 115.564 144.871 116.834 144.871 117.469 144.383 117.892 142.823 118.739 141.848 119.586 140.872 120.115 139.409 120.75 137.069 121.385 136.678 121.279 136.386 120.961 135.898 118.951"><title>2023-11-27 1.0km</title><desc>10287544518</desc></polyline><polyline fill="none" stroke="#4dd2ff" stroke-linecap="round" stroke-linejoin="round" stroke-width=".5" points="158.971 108.371 159.506 109.649 160.791 116.156 162.183 119.526 162.933 120.804 163.468 121.385 163.575 121.268 163.254 120.687 163.254 119.758 162.397 117.783 161.434 114.529 160.47 112.554 159.827 108.836 158.007 105.931 157.579 104.769"><title>2023-11-26 1.0km</title><desc>10281488289</desc></polyline><polyline fill="none" stroke="#4dd2ff" stroke-linecap="round" stroke-linejoin="round" stroke-width=".5" points="177.744 104.769 178.979 107.985 180.09 112.541 181.201 115.087 181.448 116.695 182.066 118.169 183.424 120.715 184.042 121.385 184.289 121.385 182.436 117.365 182.189 116.025 180.954 114.283 178.485 107.583 177.25 105.305"><title>2023-11-25 1.0km</title><desc>10275889695</desc></polyline><polyline fill="none" stroke="#4dd2ff" stroke-linecap="round" stroke-linejoin="round" stroke-width=".5" points="16.011 123.386 16.87 127.268 20.876 138.138 21.878 139.691 22.308 139.846 22.451 139.38 21.02 137.517 19.302 132.393 18.157 130.063 17.442 125.56 16.583 123.231"><title>2023-11-24 1.0km</title><desc>10271180196</desc></polyline><polyline fill="none" stroke="#4dd2ff" stroke-linecap="round" stroke-linejoin="round" stroke-width=".5" points="37.357 125.077 37.722 126.132 38.572 130.615 40.638 136.945 41.611 139.582 41.975 139.846 42.461 139.846 42.583 139.582 42.34 138.264 41.003 134.44 37.479 126.791 36.263 123.231"><title>2023-11-23 1.0km</title><desc>10265414399</desc></polyline><polyline fill="none" stroke="#4dd2ff" stroke-linecap="round" stroke-linejoin="round" stroke-width=".5" points="58.16 126.975 58.267 128.613 58.699 131.187 60.424 136.102 60.963 138.442 61.826 139.846 62.473 139.846 62.365 139.144 61.179 136.102 60.208 134.581 58.807 130.251 57.189 125.805 56.758 123.231"><title>2023-11-21 1.0km</title><desc>10253878272</desc></polyline><polyline fill="none" stroke="#4dd2ff" stroke-linecap="round" stroke-linejoin="round" stroke-width=".5" points="78.019 127.718 78.578 131.357 80.925 137.299 81.931 139.482 82.267 139.846 82.49 139.725 82.602 139.482 82.155 137.542 80.143 133.176 79.361 130.871 78.131 126.142 77.461 124.929 77.013 123.231"><title>2023-11-20 1.0km</title><desc>10248671423</desc></polyline><polyline fill="none" stroke="#4dd2ff" stroke-linecap="round" stroke-linejoin="round" stroke-width=".5" points="97.042 124.615 98.666 128.14 99.13 131.79 100.406 134.685 101.682 138.336 102.262 139.217 102.958 139.846 102.842 138.839 100.87 133.678 99.594 129.021 98.318 126 97.622 123.231"><title>2023-11-19 1.0km</title><desc>10242265034</desc></polyline><polyline fill="none" stroke="#4dd2ff" stroke-linecap="round" stroke-linejoin="round" stroke-width=".5" points="116.963 138.035 117.689 135.751 117.979 135.2 118.487 134.885 120.954 134.57 122.768 134.176 123.349 133.704 123.712 133.232 124.147 131.263 124.002 130.633 124.292 130.16 124.075 126.538 123.93 126.066 123.857 124.648 123.712 123.782 122.914 123.546 122.26 124.018 122.406 123.782 122.551 124.018 121.607 123.546 121.535 123.231 121.317 123.388 121.462 123.31 120.954 123.939 121.027 123.861 122.551 124.648 122.188 124.963 121.607 125.199 120.229 125.436 120.156 125.121 120.519 124.963 121.027 125.042 122.551 123.546 124.655 123.625 124.438 123.467 124.147 123.388 123.93 127.168 124.002 128.271 124.22 129.609 124.365 131.893 124.365 132.68 124.147 133.468 123.712 133.94 120.083 134.334 118.414 134.649 117.544 135.279 116.528 136.696 115.947 138.744 115.729 139.846"><title>2023-11-18 1.0km</title><desc>10236386505</desc></polyline><polyline fill="none" stroke="#4dd2ff" stroke-linecap="round" stroke-linejoin="round" stroke-width=".5" points="136.994 123.231 139.4 127.385 140.275 130.47 140.603 132.251 141.26 133.319 143.338 139.371 143.775 139.846 143.775 139.371 143.338 138.778 142.135 135.218 141.478 134.031 141.26 132.013 140.275 129.521 139.182 127.147 139.072 125.842"><title>2023-11-17 1.0km</title><desc>10231268371</desc></polyline><polyline fill="none" stroke="#4dd2ff" stroke-linecap="round" stroke-linejoin="round" stroke-width=".5" points="157.613 123.767 159.219 126.045 159.589 129.127 160.7 131.538 162.429 137.97 163.541 139.846 163.417 138.774 162.553 137.032 161.935 135.29 160.947 131.136 158.972 126.983 158.354 125.107 157.984 123.231"><title>2023-11-16 1.0km</title><desc>10225818993</desc></polyline><polyline fill="none" stroke="#4dd2ff" stroke-linecap="round" stroke-linejoin="round" stroke-width=".5" points="177.888 123.409 178.711 126.625 180.028 130.199 181.839 133.593 182.498 136.273 183.651 138.596 184.803 139.846 181.839 134.308 180.522 130.199 176.735 123.231"><title>2023-11-15 1.0km</title><desc>10219684298</desc></polyline><polyline fill="none" stroke="#4dd2ff" stroke-linecap="round" stroke-linejoin="round" stroke-width=".5" points="16.295 143.691 17.792 145.565 18.022 147.939 19.749 152.061 20.785 155.559 21.821 158.183 22.282 158.308 22.167 156.809 20.67 154.81 20.094 153.061 19.173 151.936 18.828 150.562 17.101 147.064 16.525 144.566 16.18 141.692"><title>2023-11-14 1.0km</title><desc>10213806154</desc></polyline><polyline fill="none" stroke="#4dd2ff" stroke-linecap="round" stroke-linejoin="round" stroke-width=".5" points="37.204 143.98 38.092 147.351 40.533 153.612 41.087 155.659 42.197 157.946 42.53 158.308 41.864 157.104 40.311 153.371 40.2 152.408 39.09 149.759 37.426 146.749 36.76 144.702 36.316 141.692"><title>2023-11-13 1.0km</title><desc>10208522228</desc></polyline><polyline fill="none" stroke="#4dd2ff" stroke-linecap="round" stroke-linejoin="round" stroke-width=".5" points="57.759 143.58 58.919 147.105 60.311 150 61.123 153.399 61.935 155.79 62.979 158.056 63.443 158.308 63.675 157.804 62.399 155.287 61.703 152.518 59.151 150.126 57.759 148.112 57.527 145.972 55.555 141.692"><title>2023-11-12 1.0km</title><desc>10202270880</desc></polyline><polyline fill="none" stroke="#4dd2ff" stroke-linecap="round" stroke-linejoin="round" stroke-width=".5" points="77.294 144.792 80.036 150.992 80.95 154.092 81.865 156.572 82.436 157.688 83.007 158.308 83.122 157.812 82.093 154.712 80.151 151.736 78.094 147.024 77.294 143.676 76.494 141.692"><title>2023-11-11 1.0km</title><desc>10196068378</desc></polyline><polyline fill="none" stroke="#4dd2ff" stroke-linecap="round" stroke-linejoin="round" stroke-width=".5" points="98.455 144.17 100.336 149.854 102.082 154.518 102.888 157.579 103.425 158.308 103.694 158.016 103.291 156.267 101.276 151.749 99.261 147.522 96.575 143.296 96.306 141.692"><title>2023-11-10 1.0km</title><desc>10191120477</desc></polyline><polyline fill="none" stroke="#4dd2ff" stroke-linecap="round" stroke-linejoin="round" stroke-width=".5" points="116.335 142.2 118.322 143.722 119.491 145.751 119.842 146.512 119.842 147.654 121.127 151.585 121.595 153.868 122.53 156.405 122.764 157.674 123.348 158.308 123.699 158.181 124.05 157.674 122.764 156.786 120.66 153.742 118.205 147.019 117.621 143.214 117.036 141.692"><title>2023-11-09 1.0km</title><desc>10185506531</desc></polyline><polyline fill="none" stroke="#4dd2ff" stroke-linecap="round" stroke-linejoin="round" stroke-width=".5" points="137.143 143.026 138.373 145.452 138.82 146.665 140.273 149.818 140.832 152.001 140.72 150.667 140.943 151.516 141.391 154.791 142.396 157.823 142.844 158.308 143.402 158.065 143.626 157.701 142.396 156.61 141.502 155.154 140.943 153.578 140.161 150.91 139.043 149.333 137.814 146.665 137.479 144.724 137.59 142.299 137.367 141.692"><title>2023-11-08 1.0km</title><desc>10179505859</desc></polyline><polyline fill="none" stroke="#4dd2ff" stroke-linecap="round" stroke-linejoin="round" stroke-width=".5" points="159.827 150.871 163.575 158.308 163.789 158.192 163.254 156.913 162.29 155.287 161.648 153.66 160.363 152.266 159.934 151.452 159.613 148.664 159.399 147.85 158.114 145.643 157.365 141.692"><title>2023-11-06 1.0km</title><desc>10167691585</desc></polyline><polyline fill="none" stroke="#4dd2ff" stroke-linecap="round" stroke-linejoin="round" stroke-width=".5" points="179.172 146.354 179.943 147.789 182.807 154.363 184.019 158.069 184.239 158.308 184.46 158.308 184.46 157.949 183.578 156.037 182.807 154.961 182.697 154.363 182.036 153.646 180.163 150.418 177.96 144.8 177.079 141.692"><title>2023-11-05 1.1km</title><desc>10161301187</desc></polyline><polyline fill="none" stroke="#4dd2ff" stroke-linecap="round" stroke-linejoin="round" stroke-width=".5" points="16.124 160.154 18.343 165.09 19.342 169.425 20.895 172.435 21.45 174.843 22.005 176.769 22.338 176.408 22.227 176.047 20.784 173.398 20.673 173.037 19.342 170.99 18.787 169.064 17.344 166.415 17.012 164.127 16.346 161.719"><title>2023-11-04 1.0km</title><desc>10155501797</desc></polyline><polyline fill="none" stroke="#4dd2ff" stroke-linecap="round" stroke-linejoin="round" stroke-width=".5" points="43.881 162.678 42.621 160.995 41.846 160.469 40.295 160.154 38.842 160.259 36.807 161.205 35.934 162.047 35.159 163.624 34.965 164.886 34.675 169.093 34.868 173.509 35.062 174.14 36.031 175.718 37.194 176.559 39.132 176.769 40.877 176.033 42.524 174.035 43.009 173.089 43.687 170.039 43.687 167.62 44.172 164.465 44.075 163.309 43.009 162.047 42.137 161.416 40.101 160.469 39.035 160.469 36.71 161.205 35.644 162.152 34.965 163.414 34.771 164.255 34.965 167.725 34.771 169.303"><title>2023-11-03 1.0km</title><desc>10152446508</desc></polyline><polyline fill="none" stroke="#4dd2ff" stroke-linecap="round" stroke-linejoin="round" stroke-width=".5" points="56.177 160.154 57.085 162.125 57.864 165.645 59.161 168.18 61.108 173.249 61.497 174.094 62.146 176.347 62.535 176.769 63.054 176.769 63.054 176.488 62.146 176.065 61.757 175.08 60.848 174.235 60.199 172.404 59.291 170.996 58.253 168.884 57.085 164.519 56.306 162.688"><title>2023-11-02 1.1km</title><desc>10144903556</desc></polyline><polyline fill="none" stroke="#4dd2ff" stroke-linecap="round" stroke-linejoin="round" stroke-width=".5" points="76.978 161.358 77.2 162.682 78.088 164.729 79.641 170.268 82.304 175.806 83.081 176.769 82.637 175.324 80.973 172.796 80.085 169.545 78.975 167.98 77.644 165.09 76.534 160.154"><title>2023-11-01 1.0km</title><desc>10138966680</desc></polyline><polyline fill="none" stroke="#4dd2ff" stroke-linecap="round" stroke-linejoin="round" stroke-width=".5" points="97.582 160.404 98.158 162.278 99.079 167.275 100.576 170.523 101.497 173.521 102.993 176.769 103.109 176.644 102.072 175.145 100.576 171.647 99.309 169.399 97.122 162.777 96.891 160.154"><title>2023-10-31 1.0km</title><desc>10133123337</desc></polyline><polyline fill="none" stroke="#4dd2ff" stroke-linecap="round" stroke-linejoin="round" stroke-width=".5" points="117.584 162.123 118.151 165.077 118.151 166.185 119.398 168.277 122.801 175.538 123.368 176.646 123.595 176.769 120.986 171.6 119.852 168.4 118.604 165.815 116.79 160.154"><title>2023-10-30 1.0km</title><desc>10127985445</desc></polyline><polyline fill="none" stroke="#4dd2ff" stroke-linecap="round" stroke-linejoin="round" stroke-width=".5" points="137.765 162.559 138.269 165.947 138.571 167.041 140.586 171.741 141.593 174.474 143.105 176.551 143.508 176.769 143.608 176.441 142.702 175.02 141.392 172.178 139.075 167.915 138.168 164.745 137.463 163.324 137.362 161.138 137.161 160.154"><title>2023-10-28 1.0km</title><desc>10115543824</desc></polyline><polyline fill="none" stroke="#4dd2ff" stroke-linecap="round" stroke-linejoin="round" stroke-width=".5" points="158.422 163.6 159.329 166.554 160.35 168.892 161.257 172.215 162.619 175.415 163.186 176.646 163.753 176.769 163.866 176.646 163.639 175.908 162.959 174.062 160.69 169.631 158.876 164.708 157.741 162.246 157.288 160.154"><title>2023-10-27 1.0km</title><desc>10110442644</desc></polyline><polyline fill="none" stroke="#4dd2ff" stroke-linecap="round" stroke-linejoin="round" stroke-width=".5" points="178.517 162.719 180.657 169.928 181.445 172.127 182.233 173.471 183.134 176.036 183.471 176.525 184.147 176.769 184.26 176.403 184.147 175.914 183.021 174.448 181.332 171.516 179.306 165.529 177.954 163.33 177.279 160.154"><title>2023-10-26 1.0km</title><desc>10104873905</desc></polyline><polyline fill="none" stroke="#4dd2ff" stroke-linecap="round" stroke-linejoin="round" stroke-width=".5" points="18.399 186.562 20.951 192.943 22.171 195.11 22.615 195.231 22.504 194.027 19.508 188.85 17.844 184.635 16.401 181.625 15.847 178.615"><title>2023-10-25 1.0km</title><desc>10098978222</desc></polyline><polyline fill="none" stroke="#4dd2ff" stroke-linecap="round" stroke-linejoin="round" stroke-width=".5" points="36.349 178.615 36.238 179.464 36.908 182.254 37.802 184.073 38.361 186.256 39.367 189.167 41.491 193.29 42.161 194.988 42.385 195.231 42.608 195.109 42.497 193.533 41.267 191.229 40.373 189.894 39.255 187.348 39.032 186.013 37.691 183.952 36.908 182.133 36.685 179.949 36.349 178.615"><title>2023-10-24 1.0km</title><desc>10092835699</desc></polyline><polyline fill="none" stroke="#4dd2ff" stroke-linecap="round" stroke-linejoin="round" stroke-width=".5" points="57.908 181.484 59.56 187.341 60.331 188.776 61.213 192.362 62.535 194.753 63.085 195.231 62.535 194.633 61.764 192.721 59.781 190.33 59.34 189.493 58.899 186.744 57.577 184.114 56.696 181.365 56.145 178.615"><title>2023-10-23 1.0km</title><desc>10087395010</desc></polyline><polyline fill="none" stroke="#4dd2ff" stroke-linecap="round" stroke-linejoin="round" stroke-width=".5" points="74.428 178.695 74.722 178.615 76.815 178.775 77.733 179.014 77.953 179.133 78.431 179.492 78.761 179.89 79.496 181.245 79.863 182.759 80.34 183.556 80.56 184.194 81.075 185.349 81.442 186.545 81.993 187.501 82.25 187.78 82.58 188.338 82.764 189.533 82.874 189.852 83.168 190.29 83.241 190.967 83.351 191.246 84.967 195.071 85.187 195.231 85.187 195.032 84.857 194.713 84.489 193.836 84.122 193.079 83.131 190.011"><title>2023-10-22 1.5km</title><desc>10080655811</desc></polyline><polyline fill="none" stroke="#4dd2ff" stroke-linecap="round" stroke-linejoin="round" stroke-width=".5" points="97.357 178.615 97.94 179.037 96.891 178.868 98.523 180.977 98.679 181.483 98.562 181.905 98.018 182.2 97.863 182.495 97.901 183.001 98.212 184.224 98.562 185.11 98.951 186.459 99.65 187.682 99.767 188.146 100.194 188.905 100.466 189.243 100.505 189.453 100.777 189.706 100.972 190.128 101.244 190.929 101.516 191.478 101.477 192.574 101.982 193.544 102.137 194.008 102.41 194.514 102.876 195.104 103.109 195.231 102.215 193.966 102.021 193.291 101.632 192.448 101.477 191.899 100.972 191.182 100.544 189.959"><title>2023-10-20 1.4km</title><desc>10069668027</desc></polyline><polyline fill="none" stroke="#4dd2ff" stroke-linecap="round" stroke-linejoin="round" stroke-width=".5" points="116.849 178.615 116.928 179.259 117.561 180.805 117.719 181.75 119.025 184.927 119.144 185.356 119.223 186 119.381 186.429 120.331 187.76 120.845 188.791 121.162 189.821 121.439 190.379 121.597 191.238 121.795 191.667 122.309 192.998 122.388 193.513 123.14 195.059 123.338 195.231 123.457 195.231 123.536 195.188 123.496 195.145 122.705 194.157 122.349 192.955 121.597 191.581 121.478 191.023 121.399 190.079"><title>2023-10-19 1.3km</title><desc>10064004415</desc></polyline><polyline fill="none" stroke="#4dd2ff" stroke-linecap="round" stroke-linejoin="round" stroke-width=".5" points="136.638 178.615 138.267 180.737 138.158 182.268 138.376 183.8 139.136 186.511 140.222 188.278 141.308 191.342 143.48 194.877 143.805 195.231 144.131 195.113 142.719 193.699 140.113 188.632 139.462 186.393 137.615 182.504"><title>2023-10-18 1.0km</title><desc>10058081424</desc></polyline><polyline fill="none" stroke="#4dd2ff" stroke-linecap="round" stroke-linejoin="round" stroke-width=".5" points="157.677 179.622 158.605 185.035 161.041 191.455 162.665 194.853 163.361 195.231 163.709 195.231 163.941 194.727 163.129 193.72 162.085 192.084 160.693 189.063 160.113 187.301 157.677 182.392 157.445 181.636 157.213 178.615"><title>2023-10-17 1.0km</title><desc>10051702317</desc></polyline><polyline fill="none" stroke="#4dd2ff" stroke-linecap="round" stroke-linejoin="round" stroke-width=".5" points="177.059 178.999 178.237 181.044 180.004 185.645 180.946 187.434 182.006 190.757 183.302 194.08 183.773 194.975 184.362 195.231 184.48 195.103 184.362 194.72 183.066 192.802 181.299 188.457 180.004 185.773 178.944 180.788 178.355 178.615"><title>2023-10-16 1.0km</title><desc>10046279660</desc></polyline><polyline fill="none" stroke="#4dd2ff" stroke-linecap="round" stroke-linejoin="round" stroke-width=".5" points="15.828 197.077 16.314 198.132 16.8 200.506 17.894 204.198 19.352 206.44 21.054 212.769 21.661 213.429 22.512 213.692 22.634 213.429 22.512 212.637 20.932 210.396 20.081 207.758 19.109 206.176 16.8 200.769 15.95 197.077"><title>2023-10-15 1.0km</title><desc>10039610121</desc></polyline><polyline fill="none" stroke="#4dd2ff" stroke-linecap="round" stroke-linejoin="round" stroke-width=".5" points="35.965 198.283 36.336 202.169 37.324 204.983 38.559 206.725 39.3 209.136 41.399 212.888 41.893 213.424 42.51 213.692 42.881 213.424 42.881 213.022 40.411 211.012 38.806 208.065 38.188 205.519 36.706 202.169 35.965 199.355 36.089 197.613 35.965 197.077"><title>2023-10-14 1.0km</title><desc>10033377496</desc></polyline><polyline fill="none" stroke="#4dd2ff" stroke-linecap="round" stroke-linejoin="round" stroke-width=".5" points="55.848 197.341 58.036 199.978 58.279 201.956 60.345 208.286 62.289 212.901 62.897 213.692 63.383 213.692 63.383 213.297 63.261 212.901 62.167 212.11 60.952 209.868 59.615 205.648 57.185 200.242 56.82 198.396 56.213 197.077"><title>2023-10-13 1.0km</title><desc>10028006924</desc></polyline><polyline fill="none" stroke="#4dd2ff" stroke-linecap="round" stroke-linejoin="round" stroke-width=".5" points="76.243 197.077 77.411 198.599 78.113 199.867 78.23 201.516 78.113 203.292 79.399 205.955 80.918 210.014 82.438 212.804 82.788 213.312 83.373 213.692 83.373 213.058 82.087 211.409 80.918 209.38 79.399 205.194 78.463 203.546 77.996 202.15"><title>2023-10-12 1.0km</title><desc>10021974100</desc></polyline><polyline fill="none" stroke="#4dd2ff" stroke-linecap="round" stroke-linejoin="round" stroke-width=".5" points="98.057 199.433 98.514 201.913 98.4 202.905 99.429 206.253 100.229 207.741 101.028 210.468 102.171 213.196 102.4 213.444 102.971 213.692 102.857 213.196 101.6 209.972 100.229 207.617 98.4 203.401 97.943 201.789 97.715 199.433 97.029 197.077"><title>2023-10-10 1.0km</title><desc>10009069592</desc></polyline><polyline fill="none" stroke="#4dd2ff" stroke-linecap="round" stroke-linejoin="round" stroke-width=".5" points="117.378 199.154 118.166 201.353 118.954 204.285 120.643 207.95 121.994 212.593 122.782 213.692 123.007 213.326 123.12 211.982 122.332 209.661 120.643 206.729 118.729 201.353 118.166 198.91 117.265 197.077"><title>2023-10-09 1.0km</title><desc>10003389142</desc></polyline><polyline fill="none" stroke="#4dd2ff" stroke-linecap="round" stroke-linejoin="round" stroke-width=".5" points="137.002 197.077 137.833 198.107 138.663 200.039 139.138 203.903 140.919 207.767 142.462 212.147 143.174 213.435 143.768 213.692 143.768 212.662 141.512 209.055 138.545 201.843 137.358 197.206"><title>2023-10-08 1.0km</title><desc>9996447828</desc></polyline><polyline fill="none" stroke="#4dd2ff" stroke-linecap="round" stroke-linejoin="round" stroke-width=".5" points="158.444 200.4 158.991 202.418 160.632 206.809 161.178 208.708 162.928 213.099 163.475 213.692 163.585 213.218 163.585 212.743 161.507 209.064 160.522 206.927 158.772 201.706 158.225 198.976 157.569 197.077"><title>2023-10-07 1.0km</title><desc>9989974159</desc></polyline><polyline fill="none" stroke="#4dd2ff" stroke-linecap="round" stroke-linejoin="round" stroke-width=".5" points="179.412 202.026 180.281 204.854 180.932 206.268 182.235 211.807 182.561 212.867 183.213 213.692 183.756 213.692 183.973 213.221 183.864 212.867 182.561 210.982 181.258 208.154 180.824 206.268 178.543 200.73 178.217 198.727 177.566 197.077"><title>2023-10-06 1.0km</title><desc>9984428862</desc></polyline><polyline fill="none" stroke="#4dd2ff" stroke-linecap="round" stroke-linejoin="round" stroke-width=".5" points="15.654 215.538 17.536 220.578 18.791 224.8 20.925 230.111 21.804 231.881 22.18 232.154 22.682 232.154 22.808 231.881 22.431 231.201 20.925 229.021 20.047 227.251 18.54 223.301 17.913 221.259 16.156 217.99 16.156 216.764"><title>2023-10-04 1.0km</title><desc>9971682885</desc></polyline><polyline fill="none" stroke="#4dd2ff" stroke-linecap="round" stroke-linejoin="round" stroke-width=".5" points="36.908 217.479 37.467 219.419 38.026 220.754 38.473 222.815 40.597 227.06 40.708 228.515 41.379 231.426 41.603 231.79 42.273 232.154 42.273 230.941 40.82 228.273 39.814 225.969 39.255 224.877 38.697 223.3 37.579 220.996 37.132 219.177 36.908 217.358 36.573 215.538"><title>2023-10-03 1.0km</title><desc>9965060084</desc></polyline><polyline fill="none" stroke="#4dd2ff" stroke-linecap="round" stroke-linejoin="round" stroke-width=".5" points="56.578 216.225 58.097 221.168 58.35 223.366 59.236 224.464 59.868 226.112 61.007 230.369 61.893 231.742 62.526 232.154 62.653 232.017 62.273 230.918 60.881 228.309 58.603 222.816 57.211 218.697 56.958 215.538"><title>2023-10-02 1.0km</title><desc>9958643020</desc></polyline><polyline fill="none" stroke="#4dd2ff" stroke-linecap="round" stroke-linejoin="round" stroke-width=".5" points="77.174 218.463 77.419 219.659 80.114 226.039 81.461 230.16 82.196 231.622 82.931 232.154 83.054 232.021 82.931 231.489 80.481 227.767 78.154 222.052 77.051 218.596 76.561 215.538"><title>2023-10-01 1.0km</title><desc>9952075403</desc></polyline><polyline fill="none" stroke="#4dd2ff" stroke-linecap="round" stroke-linejoin="round" stroke-width=".5" points="97.614 217.946 98.613 219.993 99.057 222.04 99.39 223.967 101.054 228.662 102.497 231.672 103.162 232.154 103.384 231.793 101.165 228.421 100.166 226.134 99.834 224.93 98.28 221.559 97.392 217.826 96.616 215.538"><title>2023-09-30 1.0km</title><desc>9945549317</desc></polyline><polyline fill="none" stroke="#4dd2ff" stroke-linecap="round" stroke-linejoin="round" stroke-width=".5" points="117.62 215.538 118.722 217.399 119.09 218.862 120.07 221.254 120.56 224.843 120.927 225.906 122.397 229.495 122.765 231.755 123.01 232.021 123.377 232.154 123.5 231.888 121.295 227.9 119.825 224.444 119.335 222.45 117.62 218.463 116.885 216.07"><title>2023-09-28 1.0km</title><desc>9933629332</desc></polyline><polyline fill="none" stroke="#4dd2ff" stroke-linecap="round" stroke-linejoin="round" stroke-width=".5" points="137.137 217.427 138.065 220.699 139.805 223.091 140.965 227.371 142.589 230.266 143.053 231.902 143.517 232.154 143.749 231.776 143.517 231.273 142.589 230.014 139.921 224.601 138.529 220.825 137.021 215.538"><title>2023-09-27 1.0km</title><desc>9927137811</desc></polyline><polyline fill="none" stroke="#4dd2ff" stroke-linecap="round" stroke-linejoin="round" stroke-width=".5" points="161.957 215.538 161.626 217.136 161.295 218.055 161.037 219.173 159.528 222.328 158.755 223.647 158.608 224.206 158.681 224.645 158.865 225.284 159.417 226.642 159.602 227.002 159.822 227.641 160.559 228.559 160.89 229.278 161.258 229.837 161.552 230.636 161.994 231.235 162.546 232.154"><title>2023-09-26 1.0km</title><desc>9920397094</desc></polyline><polyline fill="none" stroke="#4dd2ff" stroke-linecap="round" stroke-linejoin="round" stroke-width=".5" points="180.692 215.538 179.967 217.952 179.243 219.243 178.571 220.085 178.209 220.759 178.053 221.432 178.105 222.274 178.364 222.948 178.985 223.902 179.243 224.857 179.76 226.092 180.743 227.326 182.399 230.694 183.485 232.154"><title>2023-09-25 1.0km</title><desc>9914573673</desc></polyline><polyline fill="none" stroke="#4dd2ff" stroke-linecap="round" stroke-linejoin="round" stroke-width=".5" points="20.456 234 20.047 234.62 19.966 234.93 20.047 235.329 20.088 235.728 19.272 237.234 19.067 238.254 18.782 239.007 17.067 242.02 17.026 242.374 17.189 243.083 17.638 243.792 17.883 244.412 18.251 245.033 18.455 245.653 18.986 246.495 19.394 247.337 19.843 247.824 19.966 248.267 20.252 248.622 20.864 249.685 21.313 250.172 21.436 250.615"><title>2023-09-24 1.0km</title><desc>9907510217</desc></polyline><polyline fill="none" stroke="#4dd2ff" stroke-linecap="round" stroke-linejoin="round" stroke-width=".5" points="40.042 234 39.696 234.538 39.448 235.075 39.299 235.774 39.25 236.689 38.407 237.818 37.912 239.108 37.466 239.754 37.168 240.614 37.119 241.528 38.159 244.163 38.556 244.969 39.844 247.013 40.389 248.357 41.083 249.217 41.48 249.916 41.727 250.615"><title>2023-09-23 1.0km</title><desc>9901004991</desc></polyline><polyline fill="none" stroke="#4dd2ff" stroke-linecap="round" stroke-linejoin="round" stroke-width=".5" points="60.253 234 59.923 234.615 59.592 235.692 58.836 237.282 58.079 238.359 57.418 240.154 57.371 241.128 57.465 241.692 58.41 243.949 58.552 244.615 58.741 244.974 59.403 245.795 59.923 246.821 60.348 247.897 61.057 248.923 61.86 250.615"><title>2023-09-22 1.0km</title><desc>9895405405</desc></polyline><polyline fill="none" stroke="#4dd2ff" stroke-linecap="round" stroke-linejoin="round" stroke-width=".5" points="80.688 234 80.553 234.49 80.282 234.784 79.695 235.863 79.469 236.647 78.791 238.362 78.069 239.833 77.617 240.911 77.482 241.45 77.482 241.793 77.617 242.283 77.888 242.773 78.475 244.293 79.062 245.371 79.379 246.155 79.966 247.136 80.327 247.577 80.598 248.361 81.321 249.635 82.134 250.615"><title>2023-09-21 1.0km</title><desc>9889267953</desc></polyline><polyline fill="none" stroke="#4dd2ff" stroke-linecap="round" stroke-linejoin="round" stroke-width=".5" points="101.692 234 101.099 235.779 100.75 237.179 100.192 238.353 99.529 240.321 98.378 242.478 98.064 243.651 98.099 243.916 98.308 244.484 98.762 245.468 99.041 246.301 99.738 247.285 100.157 248.08 100.401 248.647 100.68 249.139 101.134 249.48 101.692 250.313 101.727 250.464 101.936 250.615"><title>2023-09-20 1.0km</title><desc>9882714971</desc></polyline><polyline fill="none" stroke="#4dd2ff" stroke-linecap="round" stroke-linejoin="round" stroke-width=".5" points="121.57 234 121.216 234.897 120.547 236.862 120.507 237.503 120.271 237.844 119.995 238.485 119.838 239.083 119.523 239.894 118.618 241.347 118.382 242.201 118.303 242.97 118.382 243.739 118.618 244.593 118.893 245.191 119.759 246.686 120.192 247.284 120.586 248.352 120.98 249.035 121.373 249.59 121.806 250.017 122.082 250.615"><title>2023-09-19 1.0km</title><desc>9876194288</desc></polyline><polyline fill="none" stroke="#4dd2ff" stroke-linecap="round" stroke-linejoin="round" stroke-width=".5" points="140.262 234 139.969 234.478 139.48 235.433 139.333 236.07 138.452 237.61 137.767 239.043 137.621 239.574 137.67 240.158 137.963 240.901 138.403 241.697 138.795 242.812 139.333 243.98 139.92 245.042 140.458 245.732 141.094 246.793 141.485 248.014 142.17 249.076 142.513 250.031 143.149 250.615"><title>2023-09-18 1.0km</title><desc>9870505463</desc></polyline><polyline fill="none" stroke="#4dd2ff" stroke-linecap="round" stroke-linejoin="round" stroke-width=".5" points="160.744 234 160.505 234.466 160.171 236.019 159.742 236.743 159.551 237.313 158.502 239.021 158.12 239.953 157.882 240.781 158.073 241.35 159.122 243.628 159.647 244.456 160.028 245.336 160.648 246.164 160.982 246.733 161.412 248.079 163.272 250.615"><title>2023-09-16 1.0km</title><desc>9856514700</desc></polyline><polyline fill="none" stroke="#4dd2ff" stroke-linecap="round" stroke-linejoin="round" stroke-width=".5" points="180.54 234 180.029 235.551 179.366 236.603 177.988 239.262 177.936 239.871 177.988 240.591 178.294 241.311 178.804 242.086 179.264 243.139 180.08 244.523 181.101 246.462 181.203 247.182 181.56 247.458 181.969 248.012 182.632 249.12 183.347 249.729 183.5 250.117 183.602 250.615"><title>2023-09-15 1.0km</title><desc>9850671982</desc></polyline><polyline fill="none" stroke="#4dd2ff" stroke-linecap="round" stroke-linejoin="round" stroke-width=".5" points="19.653 252.462 18.808 254.696 17.858 256.071 17.436 256.816 16.802 258.42 16.644 258.993 16.644 259.452 16.802 260.024 17.436 261.743 18.016 262.889 19.442 265.353 20.023 266.441 20.128 267.072 20.551 267.473 21.237 268.561 21.818 269.077"><title>2023-09-14 1.0km</title><desc>9844236351</desc></polyline><polyline fill="none" stroke="#4dd2ff" stroke-linecap="round" stroke-linejoin="round" stroke-width=".5" points="36.782 252.462 37.086 252.709 37.2 252.956 37.276 253.492 37.504 253.946 37.656 255.224 37.656 255.842 37.58 256.172 37.656 256.585 37.846 257.079 37.77 257.492 37.808 257.698 38.188 258.399 38.53 259.429 38.834 260.007 39.214 260.543 39.632 260.914 39.746 261.161 39.86 261.697 40.164 262.233 40.506 263.222 40.962 264.088 41.19 264.83 41.304 265.449 41.532 265.944 41.95 267.304 42.52 268.376 42.558 268.541 42.52 268.665 42.064 269.077 42.292 268.912 42.406 268.665 42.482 268.458 42.444 268.17 42.216 267.881 41.532 266.397 41.19 265.284 40.468 263.676 40.126 262.109 39.936 261.656 39.214 260.707 38.492 259.347 38.15 258.234 38.036 257.492 37.732 256.708 37.124 255.389 36.972 254.77 36.44 253.781 36.326 253.245 36.288 252.585"><title>2023-09-13 1.0km</title><desc>9837636972</desc></polyline></svg>