<?xml version="1.0" encoding="utf-8" ?>
<svg baseProfile="full" height="300mm" version="1.1" viewBox="0,0,200,300" width="200mm" xmlns="http://www.w3.org/2000/svg" xmlns:ev="http://www.w3.org/2001/xml-events" xmlns:xlink="http://www.w3.org/1999/xlink"><defs /><rect fill="#222222" height="300" width="200" x="0" y="0" /><text fill="#FFFFFF" style="font-size:12px; font-family:Arial; font-weight:bold;" x="10" y="20">Over 1km Runs</text><text fill="#FFFFFF" style="font-size:4px; font-family:Arial" x="10" y="280">ATHLETE</text><text fill="#FFFFFF" style="font-size:9px; font-family:Arial" x="10" y="290">Jiakai</text><text fill="#FFFFFF" style="font-size:4px; font-family:Arial" x="120" y="280">STATISTICS</text><text fill="#FFFFFF" style="font-size:3px; font-family:Arial" x="120" y="285">Number: 101</text><text fill="#FFFFFF" style="font-size:3px; font-family:Arial" x="120" y="290">Weekly: 5.3</text><text fill="#FFFFFF" style="font-size:3px; font-family:Arial" x="141" y="285">Total: 104.5 km</text><text fill="#FFFFFF" style="font-size:3px; font-family:Arial" x="141" y="290">Avg: 1.0 km</text><text fill="#FFFFFF" style="font-size:3px; font-family:Arial" x="167" y="285">Min: 1.0 km</text><text fill="#FFFFFF" style="font-size:3px; font-family:Arial" x="167" y="290">Max: 1.5 km</text><polyline fill="none" points="11.0,45.89884775434621 12.44966442976147,47.209696433274075 13.65771812107414,47.734035635367036 14.261744966730475,47.734035635367036 16.798657717648894,47.471866053529084 21.872483221814036,46.16101756738499 26.704697986599058,44.19474303117022 28.7583892615512,42.62172184092924 29.0,42.359551507630385 28.7583892615512,40.91761398559902 28.033557047136128,39.082419089158066 24.046979865524918,32.265964364632964" stroke="#4dd2ff" stroke-linecap="round" stroke-linejoin="round" stroke-width="0.5"><title>2024-03-02 1.0km</title><desc>10870189784</desc></polyline><polyline fill="none" points="39.9468319863081,31.0 40.478512125089765,32.26923753414303 40.691184180788696,33.07693361258134 40.79752020863816,34.92309451638721 44.2002730993554,43.000022937194444 44.94462529430166,45.192324908101 44.94462529430166,45.538477571099065 44.41294515505433,46.00001433584839 42.71156870992854,46.92308745859191 40.265840069856495,47.50000788480975 37.50110334577039,48.65384810080286 36.01239895634353,49.0 35.58705484494567,48.76923207566142 35.05537470569834,46.69231922866311" stroke="#4dd2ff" stroke-linecap="round" stroke-linejoin="round" stroke-width="0.5"><title>2024-01-19 1.0km</title><desc>10585384707</desc></polyline><polyline fill="none" points="56.75192282954231,33.26574467669707 56.86792558571324,35.15386295004282 57.099931098055094,36.03498409828171 59.30398346344009,39.93708659056574 60.348008268512785,42.32869339955505 60.92802204936743,44.34267548972275 61.97204685397446,46.3566552111879 62.08804961014539,48.244759048335254 62.7840661467053,48.87412653141655 63.132074415218085,49.0 63.596085438970476,48.87412653141655 63.48008268373087,48.37063256360125 62.7840661467053,47.237770594190806 59.41998621961102,39.55946415744256 57.33193660993129,35.279737427830696 56.403914561029524,31.0" stroke="#4dd2ff" stroke-linecap="round" stroke-linejoin="round" stroke-width="0.5"><title>2024-01-17 1.0km</title><desc>10572816563</desc></polyline><polyline fill="none" points="76.63048108154908,31.0 77.66725613363087,35.07813984097447 79.87040311843157,42.25001984962728 81.42556569585577,45.20313909614924 82.33274386683479,48.01562937779818 82.98072827374563,48.85937565623317 83.36951891845092,49.0 83.36951891845092,48.4375025635818 80.6479844073765,42.67189430666622 78.18564365943894,36.34376767894719 76.63048108154908,33.25000926339999" stroke="#4dd2ff" stroke-linecap="round" stroke-linejoin="round" stroke-width="0.5"><title>2024-01-16 1.0km</title><desc>10566280205</desc></polyline><polyline fill="none" points="96.38298093527555,31.406016977969557 98.25385286472738,35.330843146541156 99.75055040931329,40.473706149845384 101.49669754365459,43.99249887350015 102.9933950882405,48.32331145426724 103.36756947403774,49.0 103.61701906472445,49.0 99.87527520488948,41.28573583706748 99.00220163725317,38.57896882027853 98.37857766076922,36.142875102348626 97.50550409313291,34.38347207882907 96.63243052596226,31.0" stroke="#4dd2ff" stroke-linecap="round" stroke-linejoin="round" stroke-width="0.5"><title>2024-01-09 1.0km</title><desc>10520988068</desc></polyline><polyline fill="none" points="116.75715460581705,32.4887284807628 117.38077871967107,35.060165748465806 118.62802694831043,37.76693793933373 120.87307375948876,44.66918901109602 122.61922127986327,48.59398690296803 122.99339574761689,49.0 123.24284539418295,48.72932461183518 122.86867092549801,47.24060926469974 122.24504681117833,46.293244325672276 120.37417446868494,41.42107408342417 118.62802694831043,37.76693793933373 117.13132907403633,31.0" stroke="#4dd2ff" stroke-linecap="round" stroke-linejoin="round" stroke-width="0.5"><title>2024-01-07 1.0km</title><desc>10508221625</desc></polyline><polyline fill="none" points="138.5869142622687,36.333351957728155 138.83266830444336,37.66668749670498 139.93856148933992,40.4666889377404 140.9215776543133,43.80001835001167 142.8876099837944,48.60000194073655 143.37911806628108,49.0 143.37911806628108,48.066671058069915 142.27322488091886,46.20001173368655 141.65883977804333,44.20001746760681 139.20129936560988,39.000022055231966 138.341160221491,36.73335272236727 137.72677511861548,35.666683820891194 136.62088193325326,31.0" stroke="#4dd2ff" stroke-linecap="round" stroke-linejoin="round" stroke-width="0.5"><title>2024-01-06 1.0km</title><desc>10501510624</desc></polyline><polyline fill="none" points="157.62194332526997,34.27274134848267 158.54996544169262,36.53848169394769 159.24598202994093,39.43358999455813 160.40600967640057,43.20981085568201 161.68204008741304,45.979034193907864 162.49405943974853,47.99301199009642 162.95807049795985,48.748253053287044 163.42208155663684,49.0 163.306078792084,48.11888552387245 162.7260649688542,46.73427614511456 158.89797373628244,39.43358999455813 158.2019571484998,37.29372780956328 157.96995161892846,35.27973742748145 157.15793226659298,33.139870051061735 156.57791844336316,31.0" stroke="#4dd2ff" stroke-linecap="round" stroke-linejoin="round" stroke-width="0.5"><title>2024-01-05 1.0km</title><desc>10495609202</desc></polyline><polyline fill="none" points="176.2065286319703,31.0 176.9780821306631,32.81396122346632 177.62104337941855,34.76745598623529 178.52118912758306,36.58141360874288 180.19288837490603,41.325602270895615 182.2503643706441,46.069779074634425 183.0219178693369,48.58139728754759 183.53628686862066,49.0 183.7934713680297,48.30232876108494 183.66487911809236,47.32558859628625 180.57866512425244,41.046532678068615 179.54992712615058,37.41862423438579 178.52118912758306,31.55814209987875" stroke="#4dd2ff" stroke-linecap="round" stroke-linejoin="round" stroke-width="0.5"><title>2024-01-04 1.0km</title><desc>10489071805</desc></polyline><polyline fill="none" points="17.499543257523328,54.30883703043219 19.085198753047734,58.67649259837344 21.03677474707365,63.04413756961003 22.01256274431944,66.75000984175131 22.866377241909504,69.0 22.988350741565228,69.0 22.988350741565228,68.07353380450513 22.37848324328661,65.82354248885531 21.158748246729374,63.04413756961003 20.182960249949247,60.2647283594124 18.59730475442484,57.08825543615967 17.621516757644713,54.176483665942214 17.011649258900434,52.32353554200381 17.377569757867604,51.0" stroke="#4dd2ff" stroke-linecap="round" stroke-linejoin="round" stroke-width="0.5"><title>2024-01-03 1.0km</title><desc>10482519748</desc></polyline><polyline fill="none" points="36.3670011209324,51.297521962667815 39.520169959403574,60.52068110543769 42.8104330948554,68.40496123710182 43.49590458115563,69.0 43.6329988790676,68.40496123710182 43.22171598719433,67.36364297999535 39.794358554296196,60.81820166797843 38.56050987821072,57.54547307221219 36.77828401280567,51.0" stroke="#4dd2ff" stroke-linecap="round" stroke-linejoin="round" stroke-width="0.5"><title>2024-01-01 1.0km</title><desc>10470902913</desc></polyline><polyline fill="none" points="67.61672993563116,55.40818125801161 67.39104904886335,55.77552916947752 65.02139973500744,57.48981835064478 64.00583574408665,58.59186046384275 63.32879308285192,59.81635084503796 62.87743130931631,60.42859569785651 62.53890997869894,60.55104464129545 61.07198421377689,60.55104464129545 59.717898891773075,61.040840325760655 57.91245179576799,60.918391417944804 57.00972824729979,60.55104464129545 56.44552603038028,59.69390184734948 56.10700469976291,58.95920767285861 55.99416425637901,57.24492000427563 55.65564292529598,56.510224749101326 54.30155760375783,56.510224749101326 53.17315316898748,56.87757241737563 53.06031272560358,57.00002162193414 53.51167449960485,57.24492000427563 53.737355385906994,57.00002162193414 52.94747228221968,57.00002162193414 52.72179139498621,56.7551232035039 52.496110507752746,55.89797845506109 52.383270064368844,54.42858643166255 52.94747228221968,54.55103581654839 53.39883405668661,55.530630571069196 54.41439804760739,56.63267398066819 55.20428115176037,56.63267398066819 55.881323812995106,56.142876999801956 56.44552603038028,56.26532625826076 56.55836647376418,56.020427731913514 55.54280248237774,53.081642604316585 55.31712159514427,52.959193111164495 54.07587671652436,52.83674360951409 52.834631838370115,52.959193111164495 53.62451494298875,52.959193111164495 52.496110507752746,51.734697686857544 52.383270064368844,51.0 52.72179139498621,51.489798494149 53.06031272560358,53.081642604316585 53.39883405668661,53.81633937230799 53.737355385906994,55.40818125801161 53.06031272560358,59.571452840580605 53.85019582975656,63.36736785795074 54.527238490991294,64.46940608078148 54.6400789343752,66.30613483092748 55.65564292529598,69.0" stroke="#4dd2ff" stroke-linecap="round" stroke-linejoin="round" stroke-width="0.5"><title>2023-12-31 1.5km</title><desc>10466792666</desc></polyline><polyline fill="none" points="77.61318105319515,55.273397946031764 78.92593147419393,59.935274790157564 80.71604568464682,63.6906666085124 82.26747800037265,68.09352957841475 82.74484178982675,69.0 82.9835236845538,69.0 83.10286463145167,67.96403376583476 82.62550084246323,66.5395791985793 80.47736378991976,62.13671234436333 80.47736378991976,60.97124574659392 78.92593147419393,57.604337910655886 78.68724957946688,55.01440442644525 78.20988579047844,53.46044250787236 76.897135369014,51.0" stroke="#4dd2ff" stroke-linecap="round" stroke-linejoin="round" stroke-width="0.5"><title>2023-12-30 1.0km</title><desc>10458865202</desc></polyline><polyline fill="none" points="100.97876229183748,51.0 98.71215487923473,51.2236037919065 97.16674073366448,52.22982044820674 96.03343702713028,53.347838174086064 95.51829897845164,54.68945835984778 95.10618853988126,59.94412601995282 95.62132658809423,65.19877551647369 95.82738180737942,65.98138133413158 96.13646463630721,66.65218599990476 97.78490639152005,68.44099699554499 99.63940336601809,69.0 101.08178990148008,68.77639882266521 102.83325926586986,67.65839244390372 103.86353536276147,66.76398674899247 104.89381145965308,63.74536364292726 104.79078385047615,61.39754152763635 104.4817010210827,59.385119685321115 104.27564580226317,54.46585507784039 103.96656297286972,53.236036438611336 103.34839731454849,52.453424059203826 102.62720404658467,51.89441497006919 100.97876229183748,51.5590094178915 98.71215487923473,51.67081127688289 97.06371312355623,52.565225852420554 96.23949224641547,53.57144162070472 95.62132658809423,55.13666482537519 95.62132658809423,55.91927582339849 95.93040941702202,57.81990085518919 95.72435419820249,59.385119685321115" stroke="#4dd2ff" stroke-linecap="round" stroke-linejoin="round" stroke-width="0.5"><title>2023-12-29 1.0km</title><desc>10454615358</desc></polyline><polyline fill="none" points="117.48660630453378,52.90909918991383 119.24598189117387,59.18183983606286 122.01071495609358,67.6363697515335 122.89040275011212,69.0 123.0160724343732,69.0 123.0160724343732,67.6363697515335 121.13102716300637,61.909111761138774 119.62299094581977,58.22729371488094 118.61763346754014,56.318199999048375 116.98392756516114,51.0" stroke="#4dd2ff" stroke-linecap="round" stroke-linejoin="round" stroke-width="0.5"><title>2023-12-27 1.0km</title><desc>10441997651</desc></polyline><polyline fill="none" points="136.60691900970414,53.318191617610864 138.61763367056847,57.27274710254278 139.6229910007678,61.36365769722033 141.00535733019933,63.9545630736975 142.63906299276277,68.1818219712004 143.14174165716395,69.0 143.39308099029586,68.86363702046219 142.51339332573116,66.27273850073107 141.25669666333124,64.36365306563675 137.2352673416026,54.818196414853446 136.98392800893635,52.227278276346624 136.60691900970414,51.0" stroke="#4dd2ff" stroke-linecap="round" stroke-linejoin="round" stroke-width="0.5"><title>2023-12-17 1.0km</title><desc>10391591057</desc></polyline><polyline fill="none" points="157.07950775464997,54.16902771452442 158.481344032567,57.84509256517049 160.8177378284745,62.408472511102445 162.9204922444187,68.49296031869017 163.3877710038796,69.0 163.50459069386125,68.87324009358417 163.50459069386125,68.36620037502144 162.9204922444187,66.71832025947515 159.76636062003672,60.50706566812005 158.36452434258536,56.704245691304095 157.31314713414758,52.39437291189097 156.4954093056731,51.0" stroke="#4dd2ff" stroke-linecap="round" stroke-linejoin="round" stroke-width="0.5"><title>2023-12-16 1.0km</title><desc>10386207035</desc></polyline><polyline fill="none" points="177.56786756357178,54.383472079527564 178.0667665246874,56.684229540871456 179.8129128892906,61.96242696943227 180.81071081198752,63.58648467215244 182.18268295563757,68.05263596656732 182.5568571765907,69.0 182.80630665738136,69.0 182.80630665738136,67.64662266056985 180.93543555215,61.96242696943227 178.3162160050124,57.90227644436527 178.19149126531556,56.27821372705512 177.4431428234093,54.383472079527564 177.69259230373427,53.16542284714524 177.19369334261864,51.0" stroke="#4dd2ff" stroke-linecap="round" stroke-linejoin="round" stroke-width="0.5"><title>2023-12-14 1.0km</title><desc>10376526598</desc></polyline><polyline fill="none" points="23.863534794654697,72.56522585265338 22.9362864443101,71.7826131277252 21.39087252598256,71.11180190031882 19.948486202862114,71.0 18.506099879276007,71.33540567557793 16.65160317765549,72.34162225795444 15.827382421586663,73.45963990176097 15.209216854069382,75.36026800901163 15.209216854069382,79.60872224404011 15.415272043086588,80.95033690426499 15.827382421586663,82.6273535641376 15.518299637828022,84.63977111433633 15.621327232103795,85.42237722000573 15.724354826379567,85.86958052788395 16.754630772396922,87.65839244425297 18.403072284534574,88.88819941575639 18.91821025684476,89.0 19.948486202862114,89.0 20.978762147482485,89.0 22.833258849568665,88.32919637009036 23.863534794654697,87.32299037033226 24.481700362171978,86.20498292252887 24.687755551189184,83.74536364304367 24.790783145930618,82.0683482165914 24.481700362171978,80.05592726240866 24.687755551189184,77.37269517919049 24.58472795644775,75.02486322144978 24.481700362171978,74.2422517631203 23.760507200378925,72.6770276373718 23.451424416620284,72.34162225795444 22.31812087725848,71.55900941800792 20.051513797137886,71.33540567557793 18.60912747355178,71.55900941800792 17.784906717482954,71.89441497018561 16.239492799621075,73.57144162082113 15.621327232103795,75.91927582328208 15.827382421586663,77.48449661070481" stroke="#4dd2ff" stroke-linecap="round" stroke-linejoin="round" stroke-width="0.5"><title>2023-12-13 1.0km</title><desc>10373769329</desc></polyline><polyline fill="none" points="37.83360643964261,73.55224959517363 39.07154561718926,78.65673809009604 40.30948479427025,81.34330525412224 42.785363148897886,88.328361393651 43.28053881973028,89.0 43.52812665514648,89.0 43.65192057285458,88.46268913464155 43.15674490202218,87.65672254085075 41.17604221822694,84.29852457169909 38.328782110475004,78.52240962779615 37.95740035735071,76.77613872440998 36.59566726256162,73.82090723980218 36.34807942714542,71.0" stroke="#4dd2ff" stroke-linecap="round" stroke-linejoin="round" stroke-width="0.5"><title>2023-12-12 1.0km</title><desc>10365882163</desc></polyline><polyline fill="none" points="56.49541033664718,71.0 57.780426546465605,73.78874469583388 59.532721378374845,78.22537468874361 60.81773758819327,80.63382618967444 62.68685207562521,86.46480010182131 62.92049138667062,87.98592048813589 63.387770008295774,89.0 63.50458966335282,88.11268045951147 63.27095035277307,87.09860042587388 60.81773758819327,81.52114957885351 59.06544275628403,78.09861399035435 58.598164135124534,76.70424569153693 58.24770516855642,73.78874469583388 57.31314792530611,71.1267612206284" stroke="#4dd2ff" stroke-linecap="round" stroke-linejoin="round" stroke-width="0.5"><title>2023-12-11 1.0km</title><desc>10361067591</desc></polyline><polyline fill="none" points="80.36061714449897,81.04350078164134 82.76473143929616,88.34782927564811 82.88493715412915,88.73913173889741 83.36576001346111,89.0 83.48596572736278,88.86956587433815 83.12534858379513,87.95652672543656 82.04349715076387,85.86957833555061 80.84144000336528,82.60871656169184 77.47567999083549,75.82610487437341 76.51403427263722,71.0" stroke="#4dd2ff" stroke-linecap="round" stroke-linejoin="round" stroke-width="0.5"><title>2023-12-10 1.0km</title><desc>10355395415</desc></polyline><polyline fill="none" points="96.82868994167075,72.1911820312962 98.90223882580176,75.50001687242184 99.87802653573453,79.60296362906229 101.95157541986555,85.42648490634747 102.68341620266438,88.60294311749749 103.17131005832925,89.0 103.2932835216634,88.86764771549497 103.2932835216634,88.60294311749749 103.04933659406379,87.5441243366804 100.48789385519922,82.38237386127003 99.87802653573453,80.92649284633808 99.51210614433512,78.67649259825703 98.90223882580176,76.95590227597859 97.92645111586899,75.23531030898448 97.80447765160352,73.3823632748099 96.70671647787094,71.0" stroke="#4dd2ff" stroke-linecap="round" stroke-linejoin="round" stroke-width="0.5"><title>2023-12-09 1.0km</title><desc>10350143310</desc></polyline><polyline fill="none" points="118.08119371067733,74.49255117913708 118.82395743578672,77.17912446556147 120.43327883956954,81.07464871532284 122.66157001350075,87.52239474025555 123.6519216466695,89.0 123.52812769310549,87.65672254085075 122.78536396799609,85.37314859370235 120.80466070165858,81.8806182127446 119.56672116043046,78.92539498396218 118.20498766517267,76.77613872475922 117.83360580261797,74.62687993713189 116.34807835286483,71.0" stroke="#4dd2ff" stroke-linecap="round" stroke-linejoin="round" stroke-width="0.5"><title>2023-12-08 1.0km</title><desc>10345303898</desc></polyline><polyline fill="none" points="137.09993195021525,71.0 137.33193739457056,71.6293738221284 137.79594828234985,73.26574467681348 138.02795372670516,75.5314863550011 138.4919646140188,77.41960212949198 140.11600272217765,81.44757549010683 141.1600272199139,85.09791816305369 142.20405171765015,87.36364418326411 142.43605716200545,89.0 142.6680626058951,88.87412653130013 142.90006804978475,88.62237956561148 142.90006804978475,88.24475904810242 142.3200544398278,86.7342761453474 140.46401088824496,83.58743248344399 138.25995917012915,77.16785348008852 137.67994556063786,74.52449042350054" stroke="#4dd2ff" stroke-linecap="round" stroke-linejoin="round" stroke-width="0.5"><title>2023-12-07 1.0km</title><desc>10340288256</desc></polyline><polyline fill="none" points="156.65845347428694,71.0 157.3744991584681,72.68346103455406 158.68724957946688,78.25182068638969 160.5967047372833,81.74822356412187 162.14813705300912,86.02159543370362 162.86418273719028,88.74100849858951 163.22220557928085,89.0 163.34154652617872,88.09352957841475 163.10286463191733,86.92806692188606 161.19340947363526,82.91368964756839 159.88065905310214,80.97124574659392 159.16461336892098,79.5467855243478 156.77779442211613,71.38849115080666" stroke="#4dd2ff" stroke-linecap="round" stroke-linejoin="round" stroke-width="0.5"><title>2023-12-06 1.0km</title><desc>10334845031</desc></polyline><polyline fill="none" points="178.34116107597947,74.1034619655693 179.1419798671268,78.20002302597277 179.9427986582741,81.17933391826227 181.88764429371804,86.2689778652275 182.91726845363155,88.62758815078996 183.26047650631517,89.0 182.80286576924846,86.76552767283283 181.6588389244862,84.65518998203333 180.62921476503834,81.67588522285223 179.1419798671268,78.57243717496749 178.45556376036257,76.21381284378003 177.31153691606596,73.73104683100246 176.73952349368483,71.0" stroke="#4dd2ff" stroke-linecap="round" stroke-linejoin="round" stroke-width="0.5"><title>2023-12-05 1.0km</title><desc>10329306344</desc></polyline><polyline fill="none" points="16.69392242329195,92.51049678423442 17.50594147713855,93.7692430865718 18.549965975340456,97.41960212949198 20.638014970812947,102.58044129051268 21.682039469014853,106.10490787529852 22.610061244573444,108.11888552398887 23.30607757670805,109.0 23.30607757670805,108.37063256313559 20.290006804745644,101.44757549010683 19.129979585297406,97.54547644068953 17.85394964320585,94.6503649475053 16.9259278671816,91.0" stroke="#4dd2ff" stroke-linecap="round" stroke-linejoin="round" stroke-width="0.5"><title>2023-12-04 1.0km</title><desc>10324662812</desc></polyline><polyline fill="none" points="36.873725838027894,92.66154566861223 38.14975610887632,97.50771216268186 40.191404541023076,102.07694343582261 41.59503783797845,106.92308570316527 42.61586205428466,108.86153911822475 43.38148021604866,109.0 43.38148021604866,108.44615641166456 42.48825902771205,106.92308570316527 41.33983178436756,103.60001806344371 40.0638015139848,101.66155923262704 39.170580324716866,99.3077136843931 37.63934400025755,93.76924196642358 36.618519784417,91.0" stroke="#4dd2ff" stroke-linecap="round" stroke-linejoin="round" stroke-width="0.5"><title>2023-12-02 1.0km</title><desc>10313350310</desc></polyline><polyline fill="none" points="56.73258963692933,91.95454984041862 57.98928593005985,93.59091985307168 59.49732148181647,98.77274870162364 60.50267851725221,103.00001940899529 62.13638369832188,107.63636975188274 63.141740733291954,109.0 63.267410362605006,108.18182197131682 63.0160711039789,106.54546483117156 61.63370518060401,103.54547299188562 59.49732148181647,100.13638546620496 58.240625189151615,97.54547475650907 56.983928895089775,91.0" stroke="#4dd2ff" stroke-linecap="round" stroke-linejoin="round" stroke-width="0.5"><title>2023-12-01 1.0km</title><desc>10308709030</desc></polyline><polyline fill="none" points="76.68232080945745,91.0 79.17058020224795,99.55001980031375 81.65883959503844,104.65001455100719 83.04120592400432,108.40000255848281 83.45591582311317,109.0 83.59415245614946,108.55000193545129 83.04120592400432,107.05000766995363 80.96765642985702,104.20001552719623 80.41470989910886,102.70001806365326 78.34116040496156,98.65001940354705 77.37350397417322,94.0000110277906 76.40584754385054,91.30000130133703" stroke="#4dd2ff" stroke-linecap="round" stroke-linejoin="round" stroke-width="0.5"><title>2023-11-30 1.0km</title><desc>10303537703</desc></polyline><polyline fill="none" points="97.94075258821249,94.84829198836815 98.74157102638856,97.4551944816485 99.08477892819792,99.56554117088672 100.34320790180936,102.04829860525206 101.71603950997815,105.77242791187018 103.0888711172156,108.75172544328962 103.31767638539895,109.0 103.54648165311664,108.75172544328962 103.31767638539895,107.8827642062679 102.40245531359687,106.2689778652275 101.14402633998543,102.79312512371689 99.31358419591561,99.06898924615234 98.62716839229688,95.09656858979724 97.2543367841281,92.98621631483547 96.45351834688336,91.0" stroke="#4dd2ff" stroke-linecap="round" stroke-linejoin="round" stroke-width="0.5"><title>2023-11-29 1.0km</title><desc>10298007687</desc></polyline><polyline fill="none" points="116.89713673759252,93.33094561949838 118.20988657930866,96.69786162441596 118.4485683683306,99.15829617308918 120.11934089427814,103.17268200626131 121.07406805222854,106.79857102350798 121.90945431543514,108.48201695899479 122.74484057817608,109.0 123.10286326240748,109.0 123.34154505236074,108.61151273362339 123.22220415715128,108.09352957829833 122.74484057817608,107.18705868988764 120.83538626274094,102.13671234436333 118.92593194777146,97.73383448482491 118.56790926354006,95.66188815457281 117.7325229998678,93.20144872169476 116.65845494763926,91.0" stroke="#4dd2ff" stroke-linecap="round" stroke-linejoin="round" stroke-width="0.5"><title>2023-11-28 1.0km</title><desc>10292316108</desc></polyline><polyline fill="none" points="139.5773650407791,91.0 140.6339524402283,93.8662559457589 141.26790487999097,96.61785669741221 142.11317479936406,97.87900541932322 143.06410345900804,99.71340173971839 144.01503211865202,102.69429115857929 144.8603020380251,104.07008435309399 144.8603020380251,104.75798049510922 144.33200833853334,105.21657775470521 142.6414684993215,106.13377186935395 141.5848810998723,107.05096544418484 140.5282937004231,107.62421115464531 138.94341260101646,108.31210572912823 136.40760284243152,109.0 135.9849678822793,108.8853509761393 135.66799166239798,108.54140385333449 135.13969796244055,106.36307031358592" stroke="#4dd2ff" stroke-linecap="round" stroke-linejoin="round" stroke-width="0.5"><title>2023-11-27 1.0km</title><desc>10287544518</desc></polyline><polyline fill="none" points="158.2599590420723,94.90211396722589 158.83997269440442,96.2867329143919 160.23200546111912,103.33568474079948 161.74004095746204,106.98602338775527 162.55206007137895,108.370632563252 163.13207372371107,109.0 163.24807645427063,108.8741265310673 162.90006826305762,108.24475904798601 162.90006826305762,107.23777059407439 161.97204641858116,105.09791816282086 160.9280218440108,101.57344950502738 159.88399726944044,99.43358999444172 159.1879808860831,95.40561189572327 157.21593446750194,92.25874741270673 156.7519235452637,91.0" stroke="#4dd2ff" stroke-linecap="round" stroke-linejoin="round" stroke-width="0.5"><title>2023-11-26 1.0km</title><desc>10281488289</desc></polyline><polyline fill="none" points="176.722453544382,91.0 178.06022760737687,94.48388377402443 179.26422426477075,99.41937526513357 180.46822092263028,102.17743866576348 180.73577573522925,103.91937146021519 181.40466276742518,105.51614183862694 182.87621423741803,108.27419672347605 183.5451012691483,109.0 183.81265608174726,109.0 181.8059949860908,104.64517633756623 181.53844017302617,103.19356631604023 180.2006661100313,101.30647169239819 177.5251179826446,94.04839863895904 176.18734391825274,91.58064772281796" stroke="#4dd2ff" stroke-linecap="round" stroke-linejoin="round" stroke-width="0.5"><title>2023-11-25 1.0km</title><desc>10275889695</desc></polyline><polyline fill="none" points="16.51178423129022,111.16822495521046 17.441975102759898,115.37384479888715 21.7828658381477,127.14953924051952 22.868088521063328,128.83177635679021 23.333183957263827,129.0 23.4882157696411,128.49532903218642 21.93789764959365,126.4766440478852 20.0775159066543,120.92525115737226 18.837261410430074,118.40188630030025 18.06210235133767,113.52337301988155 17.131911478936672,111.0" stroke="#4dd2ff" stroke-linecap="round" stroke-linejoin="round" stroke-width="0.5"><title>2023-11-24 1.0km</title><desc>10271180196</desc></polyline><polyline fill="none" points="37.7618844024837,113.00000823463779 38.156845978461206,114.14286915806588 39.07842298876494,119.00002058548853 41.31653858721256,125.85715487215202 42.36976945679635,128.71428701689 42.76473103230819,129.0 43.291346467100084,129.0 43.423000326380134,128.71428701689 43.15969260875136,127.28572146955412 41.71150016319007,123.14287544379476 37.89353826083243,114.85715689428616 36.57699967408553,111.0" stroke="#4dd2ff" stroke-linecap="round" stroke-linejoin="round" stroke-width="0.5"><title>2023-11-23 1.0km</title><desc>10265414399</desc></polyline><polyline fill="none" points="58.42293546302244,115.0563544301549 58.53975505847484,116.83100649237167 59.00703343981877,119.61974175705109 60.87614696519449,124.94367837370373 61.46024494152516,127.47888050868642 62.39480170421302,129.0 63.09571927599609,129.0 62.97889968100935,128.23944042192306 61.693884131964296,124.94367837370373 60.6425077742897,123.29579498723615 59.12385303527117,118.60565672838129 57.37155910488218,113.78874469583388 56.90428072400391,111.0" stroke="#4dd2ff" stroke-linecap="round" stroke-linejoin="round" stroke-width="0.5"><title>2023-11-21 1.0km</title><desc>10253878272</desc></polyline><polyline fill="none" points="78.06266986951232,115.86133173853159 78.66808553505689,119.8029423590051 81.2108313315548,126.24088767752983 82.30057953018695,128.6058413576102 82.66382892988622,129.0 82.90599519619718,128.86861379561014 83.02707832911983,128.6058413576102 82.54274579649791,126.50366046302952 80.36324939923361,121.77374440978747 79.51566746784374,119.27739477856085 78.18375300243497,114.15329776948784 77.45725420350209,112.83942437497899 76.97292167088017,111.0" stroke="#4dd2ff" stroke-linecap="round" stroke-linejoin="round" stroke-width="0.5"><title>2023-11-20 1.0km</title><desc>10248671423</desc></polyline><polyline fill="none" points="96.79542374471202,112.50000667187851 98.55479894345626,116.31819999893196 99.05747757246718,120.27274908765685 100.43984379991889,123.40910961094778 101.8222100273706,127.36364358162973 102.45055831270292,128.31818500091322 103.20457625528798,129.0 103.07890659850091,127.90909588139039 100.94252242846414,122.3182022041874 99.56015620101243,117.27274710254278 98.17778997309506,114.00001213059295 97.42377203051001,111.0" stroke="#4dd2ff" stroke-linecap="round" stroke-linejoin="round" stroke-width="0.5"><title>2023-11-19 1.0km</title><desc>10242265034</desc></polyline><polyline fill="none" points="116.50164541276172,127.03792825492565 117.28779251081869,124.56400697666686 117.60225135041401,123.9668527743197 118.15255431877449,123.62562166358111 120.82545445347205,123.2843904523179 122.7908221995458,122.85785129718715 123.41973987780511,122.34600410389248 123.81281342729926,121.83415668504313 124.28450168622658,119.70145667501492 124.12727226642892,119.01899184362264 124.44173110602424,118.50714295677608 124.20588697632775,114.5829606532352 124.04865755699575,114.07110980903963 123.97004284663126,112.53555592079647 123.81281342729926,111.5971608775435 122.94805161934346,111.34123482485302 122.24051923071966,111.85308687353972 122.39774865005165,111.5971608775435 122.55497806984931,111.85308687353972 121.53298684209585,111.34123482485302 121.45437213266268,111.0 121.21852800250053,111.17061742488295 121.3757574222982,111.0853087156429 120.82545445347205,111.76777821453288 120.90406916337088,111.6824695491814 122.55497806984931,112.53555592079647 122.16190452082083,112.87679029384162 121.53298684209585,113.13271600776352 120.03930735541508,113.38864166522399 119.96069264505059,113.04740744258743 120.35376619407907,112.87679029384162 120.90406916337088,112.96209887135774 122.55497806984931,111.34123482485302 124.83480465505272,111.4265435153502 124.5989605258219,111.25592612795299 124.28450168622658,111.17061742488295 124.04865755699575,115.26542809442617 124.12727226642892,116.45974515046692 124.36311639565974,117.90998563647736 124.52034581592306,120.38392110483255 124.52034581592306,121.23700107744662 124.28450168622658,122.0900804225821 123.81281342729926,122.60192772879964 119.88207793561742,123.02846697799396 118.07393960934132,123.36969826457789 117.13056309148669,124.05216053628828 116.02995715336874,125.58769917994505 115.40103947510943,127.80569585470948 115.16519534541294,129.0" stroke="#4dd2ff" stroke-linecap="round" stroke-linejoin="round" stroke-width="0.5"><title>2023-11-18 1.0km</title><desc>10236386505</desc></polyline><polyline fill="none" points="136.3268576124683,111.0 138.93360382318497,115.50001736893319 139.88151153549552,118.84287991863675 140.23697692807764,120.77145155961625 140.9479077127762,121.92859352345113 143.1991885304451,128.48571685689967 143.6731423875317,129.0 143.6731423875317,128.48571685689967 143.1991885304451,127.84286271536257 141.89581542555243,123.98573290230706 141.18488464085385,122.70002107415348 140.9479077127762,120.51430879719555 139.88151153549552,117.81430750666186 138.69662689464167,115.24287383153569 138.57813843060285,113.82858369813766" stroke="#4dd2ff" stroke-linecap="round" stroke-linejoin="round" stroke-width="0.5"><title>2023-11-17 1.0km</title><desc>10231268371</desc></polyline><polyline fill="none" points="156.7893429552205,111.58064772293437 158.5284488541074,114.04839863884263 158.92978098476306,117.38711555744521 160.13377737673,120.00002051191404 162.00666065281257,126.96775015315507 163.2106570447795,129.0 163.07687966758385,127.8387146294117 162.14043803000823,125.95162444526795 161.47155114542693,124.0645324572688 160.40133213018999,119.56453659269027 158.26089410064742,115.06453047250398 157.59200721606612,113.03226628201082 157.19067508541048,111.0" stroke="#4dd2ff" stroke-linecap="round" stroke-linejoin="round" stroke-width="0.5"><title>2023-11-16 1.0km</title><desc>10225818993</desc></polyline><polyline fill="none" points="176.87852752860636,111.19354904140346 177.7703768061474,114.67742935777642 179.19733565021306,118.54840207961388 181.15940406080335,122.22582089412026 181.8728834828362,125.12904264521785 183.12147247139364,127.64516557333991 184.3700614599511,129.0 181.15940406080335,123.00001367391087 179.7324452167377,118.54840207961388 175.6299385400489,111.0" stroke="#4dd2ff" stroke-linecap="round" stroke-linejoin="round" stroke-width="0.5"><title>2023-11-15 1.0km</title><desc>10219684298</desc></polyline><polyline fill="none" points="16.81951958918944,133.16542284714524 18.44094097521156,135.19550445268396 18.690390419214964,137.7669379391009 20.561261249240488,142.23310335271526 21.68378374679014,146.02256853983272 22.806306244805455,148.86466231115628 23.30520513281226,149.0 23.1804804103449,147.37594707356766 21.55905902478844,145.21054094214924 20.93543541477993,143.31580848805606 19.93763763876632,142.09776516607963 19.563463472761214,140.60904445615597 17.69259264320135,136.81956812529825 17.068969033192843,134.11279454140458 16.69479486718774,131.0" stroke="#4dd2ff" stroke-linecap="round" stroke-linejoin="round" stroke-width="0.5"><title>2023-11-14 1.0km</title><desc>10213806154</desc></polyline><polyline fill="none" points="37.59588517481461,133.47827171022072 38.55753110535443,137.1304552895017 41.20205741235986,143.91306199040264 41.803086118306965,146.1304470184259 43.00514353159815,148.60869759391062 43.365760755259544,149.0 42.6445263074711,147.695658311015 40.961645929608494,143.65219298156444 40.84144018869847,142.60871656169184 39.639382775872946,139.73915324313566 37.83629665756598,136.47828020178713 37.115062209777534,134.26088311010972 36.634239244740456,131.0" stroke="#4dd2ff" stroke-linecap="round" stroke-linejoin="round" stroke-width="0.5"><title>2023-11-13 1.0km</title><desc>10208522228</desc></polyline><polyline fill="none" points="57.989285634830594,133.04546334268525 59.24598211282864,136.86365554714575 60.7540178867057,140.000021835207 61.63370542181656,143.68183636269532 62.51339295646176,146.27273850084748 63.644419786985964,148.72727403056342 64.14709837734699,149.0 64.39843767369166,148.45454802096356 63.01607154728845,145.72728572005872 62.26205366104841,142.7272925573634 59.49732140870765,140.1363854664378 57.989285634830594,137.95456616173033 57.73794633895159,135.6363803385757 55.60156232584268,131.0" stroke="#4dd2ff" stroke-linecap="round" stroke-linejoin="round" stroke-width="0.5"><title>2023-11-12 1.0km</title><desc>10202270880</desc></polyline><polyline fill="none" points="77.27653280971572,134.35822241124697 80.24758792715147,141.07464871543925 81.23793963296339,144.4328526093159 82.2282913387753,147.11941128061153 82.84726115502417,148.32836139411665 83.46623097080737,149.0 83.59002493415028,148.4626891349908 82.47587926499546,145.10449264734052 80.37138189002872,141.880618212861 78.14309055218473,136.77613872487564 77.27653280971572,133.14926305413246 76.40997506631538,131.0" stroke="#4dd2ff" stroke-linecap="round" stroke-linejoin="round" stroke-width="0.5"><title>2023-11-11 1.0km</title><desc>10196068378</desc></polyline><polyline fill="none" points="98.3266083188355,133.68422009726055 100.36378079978749,139.84212411462795 102.25544096156955,144.8947501218645 103.12851488124579,148.21052947919816 103.71056416165084,149.0 104.00158880185336,148.6842118264176 103.56505184154958,146.78948180971202 101.38236704096198,141.89475486346055 99.19968223944306,137.31580665381625 96.2894358378835,132.73684868169948 95.99841119768098,131.0" stroke="#4dd2ff" stroke-linecap="round" stroke-linejoin="round" stroke-width="0.5"><title>2023-11-10 1.0km</title><desc>10191120477</desc></polyline><polyline fill="none" points="115.82124576484784,131.54962088621687 117.97393734101206,133.1984825761756 119.2402265034616,135.39696256595198 119.62011325219646,136.22139189543668 119.62011325219646,137.45803520805202 121.01303132995963,141.71757813193835 121.51954699493945,144.19085666537285 122.53257832489908,146.93894008581992 122.78583615692332,148.31298028095625 123.41898073861375,149.0 123.7988674864173,148.86259607644752 124.17875423515216,148.31298028095625 122.78583615692332,147.35115225065965 120.50651566544548,144.0534523880342 117.84730842523277,136.77101124660112 117.21416384354234,132.64886217436288 116.58101926231757,131.0" stroke="#4dd2ff" stroke-linecap="round" stroke-linejoin="round" stroke-width="0.5"><title>2023-11-09 1.0km</title><desc>10185506531</desc></polyline><polyline fill="none" points="136.48859197832644,132.44526216865052 137.820505366195,135.07300857105292 138.30483750626445,136.38688032352366 139.87891696533188,139.80294235935435 140.48433214100078,142.16790455882438 140.363249105867,140.72265025309753 140.60541517660022,141.64235767372884 141.08974731713533,145.18979614810087 142.17949463427067,148.47445512423292 142.6638267757371,149.0 143.26924195187166,148.73722758109216 143.51140802213922,148.34306888096035 142.17949463427067,147.16059225820936 141.21083035273477,145.58395554404706 140.60541517660022,143.87593086762354 139.75783392973244,140.98542385036126 138.54700357746333,139.2773947789101 137.21509018959478,136.38688032352366 136.85184108372778,134.2846850559581 136.97292411886156,131.65693749429192 136.730758048594,131.0" stroke="#4dd2ff" stroke-linecap="round" stroke-linejoin="round" stroke-width="0.5"><title>2023-11-08 1.0km</title><desc>10179505859</desc></polyline><polyline fill="none" points="159.1879807668738,140.9440793383401 163.2480769320391,149.0 163.4800824271515,148.87412653141655 162.90006868960336,147.4895177630242 161.85604396136478,145.72728680237196 161.16002747556195,143.96505402820185 159.76799450442195,142.45456734951586 159.3039835151285,141.57344950479455 158.95597527176142,138.55247059487738 158.72396977664903,137.6713507422246 157.3319368059747,135.27973742736503 156.5199175728485,131.0" stroke="#4dd2ff" stroke-linecap="round" stroke-linejoin="round" stroke-width="0.5"><title>2023-11-06 1.0km</title><desc>10167691585</desc></polyline><polyline fill="none" points="178.26955626299605,136.0503782769665 179.1049428950064,137.6043379106559 182.2078075259924,144.72663535596803 183.52055794699118,148.7410084985895 183.75923984171823,149.0 183.99792173597962,149.0 183.99792173597962,148.61151273350697 183.0431941570714,146.5395791985793 182.2078075259924,145.37411551410332 182.08846657862887,144.72663535596803 181.3724208944477,143.94965885241982 179.34362478926778,140.45326034456957 176.95680584199727,134.36692046013195 176.00207826355472,131.0" stroke="#4dd2ff" stroke-linecap="round" stroke-linejoin="round" stroke-width="0.5"><title>2023-11-05 1.1km</title><desc>10161301187</desc></polyline><polyline fill="none" points="16.63423998747021,151.0 19.03835428180173,156.3478451555129 20.12020571436733,161.04350078164134 21.803085720632225,164.30436543212272 22.404114294797182,166.9130528375972 23.005142868030816,169.0 23.36576001252979,168.60869759402703 23.245554297231138,168.21739510179032 21.682880006264895,165.34784085466526 21.562674290966243,164.95653764309827 20.12020571436733,162.7391511480091 19.519177140668035,160.65219662082382 17.95650284923613,157.78263013751712 17.595885705202818,155.30436443991493 16.87465141667053,152.69565996550955" stroke="#4dd2ff" stroke-linecap="round" stroke-linejoin="round" stroke-width="0.5"><title>2023-11-04 1.0km</title><desc>10155501797</desc></polyline><polyline fill="none" points="44.8292560079135,153.73419068823569 43.46446626633406,151.91139743244275 42.624595656525344,151.3417740999721 40.944854436442256,151.0 39.37009704252705,151.11392470856663 37.16543669067323,152.139246706618 36.220582254230976,153.05064346885774 35.3807116439566,154.759510952048 35.1707439920865,156.12660358159337 34.855792513117194,160.6835702988319 35.06576016545296,165.46837092377245 35.27572781778872,166.15191266383044 36.32556608086452,167.86076569382567 37.58537199581042,168.77215320582036 39.685048521496356,169.0 41.574757393915206,168.20253607374616 43.35948244063184,166.0379890614422 43.884401571936905,165.01267626299523 44.61928835557774,161.7088859624928 44.61928835557774,159.08863347244915 45.144207486882806,155.6709061722504 45.039223660714924,154.41773760621436 43.884401571936905,153.05064346885774 42.93954713549465,152.36709594738204 40.73488678364083,151.3417740999721 39.58006469486281,151.3417740999721 37.06045286497101,152.139246706618 35.90563077572733,153.16456802631728 35.1707439920865,154.53166206309106 34.960776339285076,155.44305741763674 35.1707439920865,159.20255758613348 34.960776339285076,160.9114182825433" stroke="#4dd2ff" stroke-linecap="round" stroke-linejoin="round" stroke-width="0.5"><title>2023-11-03 1.0km</title><desc>10152446508</desc></polyline><polyline fill="none" points="56.27463989239186,151.0 57.25869727879763,153.13560138468165 58.10217503923923,156.94916981831193 59.50797130679712,159.69493475090712 61.616665706504136,165.18645371461753 62.03840458672494,166.10170546243899 62.74130272027105,168.54237481567543 63.16304160049185,169.0 63.72536010714248,169.0 63.72536010714248,168.6949165549595 62.74130272027105,168.23729130346328 62.31956384051591,167.1694986578077 61.33550645317882,166.25424738100264 60.63260832009837,164.2712015635334 59.64855093276128,162.74578041420318 58.52391391946003,160.45764658704866 57.25869727879763,155.72882868233137 56.415219518356025,153.74577280506492" stroke="#4dd2ff" stroke-linecap="round" stroke-linejoin="round" stroke-width="0.5"><title>2023-11-02 1.1km</title><desc>10144903556</desc></polyline><polyline fill="none" points="76.93475404940546,152.30435396311805 77.1751654963009,153.73914221522864 78.13681128481403,155.95653995871544 79.81969141447917,161.9565434876131 82.70462878094986,167.95652672555298 83.54606884531677,169.0 83.06524595152587,167.4347898582928 81.26216009771451,164.6956687872298 80.30051430920139,161.17393548239488 79.09845707379282,159.47828362043947 77.65598839055747,156.34784515528008 76.45393115468323,151.0" stroke="#4dd2ff" stroke-linecap="round" stroke-linejoin="round" stroke-width="0.5"><title>2023-11-01 1.0km</title><desc>10138966680</desc></polyline><polyline fill="none" points="97.38078122353181,151.27067799540237 98.00440474227071,153.3007616904797 99.00220237160102,158.71430726593826 100.62362351827323,162.23310335283168 101.62142114760354,165.48121684766375 103.24284229520708,169.0 103.367566999048,168.8646623105742 102.24504466587678,167.24060926458333 100.62362351827323,163.45114658481907 99.25165177835152,161.01505931455176 96.88188240956515,153.84211696428247 96.63243300141767,151.0" stroke="#4dd2ff" stroke-linecap="round" stroke-linejoin="round" stroke-width="0.5"><title>2023-10-31 1.0km</title><desc>10133123337</desc></polyline><polyline fill="none" points="117.17383081186563,153.1333426652709 117.78821541834623,156.33335195819382 117.78821541834623,157.5333539872663 119.13986155157909,159.80002232000697 122.82616918860003,167.66667279333342 123.44055379508063,168.8666673231637 123.68630763702095,169.0 120.86013844888657,163.40001914394088 119.6313692368567,159.93335566332098 118.27972310315818,157.1333533989964 116.31369236344472,151.0" stroke="#4dd2ff" stroke-linecap="round" stroke-linejoin="round" stroke-width="0.5"><title>2023-10-30 1.0km</title><desc>10127985445</desc></polyline><polyline fill="none" points="137.1625133054331,153.60527560755145 137.70818382361904,157.27633863000665 138.0355861345306,158.46055072336458 140.21826820774004,163.5526528044138 141.30960924364626,166.5131698701298 142.94662079866976,168.76315920078196 143.38315721368417,169.0 143.4922913168557,168.6447387879016 142.510084384121,167.10527262999676 141.09134103683755,164.026335900533 138.58125665271655,159.40791977138724 137.5990497195162,155.97370432177559 136.83511099405587,154.43422605399974 136.72597689041868,152.06579507607967 136.5077086831443,151.0" stroke="#4dd2ff" stroke-linecap="round" stroke-linejoin="round" stroke-width="0.5"><title>2023-10-28 1.0km</title><desc>10115543824</desc></polyline><polyline fill="none" points="157.66533815301955,154.73334801755846 158.64835366792977,157.93335448706057 159.75424612080678,160.46668893785682 160.737261635717,164.06668443838134 162.21178490761667,167.53334001882467 162.82616960350424,168.8666673237458 163.44055429985747,169.0 163.5634312396869,168.8666673237458 163.3176773604937,168.06667105830275 162.58041572477669,166.0666788512608 160.12287693936378,161.26668855571188 158.156845910009,155.9333511054283 156.92807651730254,153.26667649880983 156.4365687603131,151.0" stroke="#4dd2ff" stroke-linecap="round" stroke-linejoin="round" stroke-width="0.5"><title>2023-10-27 1.0km</title><desc>10110442644</desc></polyline><polyline fill="none" points="177.56053018663079,153.77942351426464 179.8780265096575,161.58825709018856 180.7318409443833,163.9706063530175 181.58565537957475,165.42648490646388 182.56144330464303,168.20588614756707 182.92736377660185,168.7352954216767 183.65920472098514,169.0 183.78117821086198,168.60294311773032 183.65920472098514,168.07353380485438 182.43946981383488,166.48530493315775 180.60986745357513,163.3088429851923 178.41434462182224,156.82354910613503 176.9506627335213,154.44119038514327 176.21882178913802,151.0" stroke="#4dd2ff" stroke-linecap="round" stroke-linejoin="round" stroke-width="0.5"><title>2023-10-26 1.0km</title><desc>10104873905</desc></polyline><polyline fill="none" points="19.098457272630185,179.6087184365606 21.863188304938376,186.52174997131806 23.18545097252354,188.86956587433815 23.666273760143667,189.0 23.546068063937128,187.695658311015 20.300514242611825,182.0869781221263 18.497428786940873,177.52176022727508 16.934754725079983,174.26088311045896 16.333726239856333,171.0" stroke="#4dd2ff" stroke-linecap="round" stroke-linejoin="round" stroke-width="0.5"><title>2023-10-25 1.0km</title><desc>10098978222</desc></polyline><polyline fill="none" points="36.670213592704386,171.0 36.54913045093417,171.91971242427826 37.2756293034181,174.9416213426739 38.24429444037378,176.9124287540326 38.84971015015617,179.27739477867726 39.939458429347724,182.43067794316448 42.24003812810406,186.8978195694508 42.96653698058799,188.737227581325 43.20870326505974,189.0 43.45086954906583,188.8686137953773 43.32978640682995,187.16059225809295 41.99787184409797,184.6642501518363 41.029206708073616,183.2189978651004 39.81837528664619,180.45987661753315 39.57620900310576,179.01462093077134 38.12321129767224,176.78104166104458 37.2756293034181,174.8102341046324 37.03346301894635,172.44526216841768 36.670213592704386,171.0" stroke="#4dd2ff" stroke-linecap="round" stroke-linejoin="round" stroke-width="0.5"><title>2023-10-24 1.0km</title><desc>10092835699</desc></polyline><polyline fill="none" points="58.1502161314711,174.1079268073663 59.9403295526281,180.45326034456957 60.7757158158347,182.0072160938289 61.73044297331944,185.89209946908522 63.16253370977938,188.4820169589948 63.759238183964044,189.0 63.16253370977938,188.35252117482014 62.32714744703844,186.28058733535 60.17901134165004,183.69066660827957 59.7016477631405,182.7841934543103 59.2242841841653,179.80577837780584 57.7921934472397,176.9568548965035 56.83746628975496,173.9784299666062 56.24076181650162,171.0" stroke="#4dd2ff" stroke-linecap="round" stroke-linejoin="round" stroke-width="0.5"><title>2023-10-23 1.0km</title><desc>10087395010</desc></polyline><polyline fill="none" points="74.17224500933662,171.08633225236554 74.49048418970779,171.0 76.75793835008517,171.1726644920418 77.75243578874506,171.43166113487678 77.99111517402343,171.56115941354074 78.50825384235941,171.94965407782 78.86627292004414,172.3813145144959 79.66187087097205,173.8489576249267 80.05966984643601,175.4892602887703 80.57680851477198,176.35257563943742 80.81548789981753,177.04322700586636 81.37240646546707,178.29503053677035 81.77020544116385,179.58999689779012 82.36690390435979,180.62596793007106 82.64536318718456,180.92812580347527 83.00338226510212,181.5324410837493 83.2022817528341,182.82740030408604 83.32162144547328,183.17272228054935 83.63986062561162,183.6475396664464 83.71942042093724,184.38134759839159 83.83876011357643,184.68350353906862 85.58907560561784,188.82734075089684 85.82775499089621,189.0 85.82775499089621,188.78417593060294 85.46973591297865,188.43885725463042 85.07193693774752,187.48922984837554 84.67413796205074,186.6690958525287 83.60008072829805,183.34538319258718" stroke="#4dd2ff" stroke-linecap="round" stroke-linejoin="round" stroke-width="0.5"><title>2023-10-22 1.5km</title><desc>10080655811</desc></polyline><polyline fill="none" points="97.13705715793185,171.0 97.7685886672698,171.45685924118152 96.63183195027523,171.27411558496533 98.40012017637491,173.5584074241924 98.56852857908234,174.10663621604908 98.44222227716818,174.56349317287095 97.85279286839068,174.88329284300562 97.68438446591608,175.2030923484126 97.72648656647652,175.75131968891947 98.06330337142572,177.07620043179486 98.44222227716818,178.03559506835882 98.86324328323826,179.4975269040442 99.62108109449036,180.82239965925692 99.74738739640452,181.3249368618708 100.21051050303504,182.14726958947722 100.50522520765662,182.51275045255898 100.54732730798423,182.74117588269291 100.84204201260582,183.01528628816595 101.05255251564085,183.47213669511257 101.34726722002961,184.3401515429723 101.64198192441836,184.93405574030476 101.59987982385792,186.12186243198812 102.14720713184215,187.1726126128342 102.31561553431675,187.675144680019 102.61033023847267,188.22336101706605 103.11555544612929,188.86294613225618 103.3681680499576,189.0 102.39981973543763,187.62945996341296 102.1893092324026,186.89850404136814 101.76828822609968,185.98480792954797 101.59987982385792,185.3909047365305 101.05255251564085,184.6142612430849 100.5894294087775,183.28939657268347" stroke="#4dd2ff" stroke-linecap="round" stroke-linejoin="round" stroke-width="0.5"><title>2023-10-20 1.4km</title><desc>10069668027</desc></polyline><polyline fill="none" points="116.37802091496997,171.0 116.46374823059887,171.69768395990832 117.14956675539725,173.3721223237808 117.32102138688788,174.39538803097093 118.7355220944155,177.83726962580113 118.86411306774244,178.302387323929 118.94984038360417,179.0000632299343 119.12129501462914,179.46518007316627 120.15002280217595,180.90704011387425 120.7072503536474,182.02331659808988 121.050159616163,183.13959111261647 121.35020522098057,183.7442389856442 121.52165985223837,184.67446535412455 121.73597814119421,185.13957802538062 122.29320569266565,186.58142513339408 122.37893300829455,187.13955861562863 123.19334250688553,188.81395610782783 123.40766079584137,189.0 123.5362517691683,189.0 123.6219790847972,188.95348903205013 123.57911542709917,188.9069780607242 122.72184227104299,187.83722477586707 122.33606935059652,186.5349139876198 121.52165985223837,185.04655551846372 121.3930688786786,184.44190889014862 121.3073415630497,183.41865943354787" stroke="#4dd2ff" stroke-linecap="round" stroke-linejoin="round" stroke-width="0.5"><title>2023-10-19 1.3km</title><desc>10064004415</desc></polyline><polyline fill="none" points="135.94113790709525,171.0 137.7058605561033,173.29788272990845 137.5882123792544,174.95746281044558 137.82350873248652,176.61704130494036 138.64704596903175,179.55321475525852 139.82352773472667,181.46810780919623 141.00000950088724,184.7872507669963 143.35297303367406,188.61702321912162 143.7059175632894,189.0 144.05886209290475,188.87234108219855 142.52943579666317,187.3404333399376 139.70587955834344,181.8510861665709 138.9999904986471,179.4255551431561 136.99997149594128,175.21278268191963" stroke="#4dd2ff" stroke-linecap="round" stroke-linejoin="round" stroke-width="0.5"><title>2023-10-18 1.0km</title><desc>10058081424</desc></polyline><polyline fill="none" points="156.8582590352744,172.09091406327207 157.86361614381894,177.95456616184674 160.5026785545051,184.9091062474763 162.26205349434167,188.59091103076935 163.01607132609934,189.0 163.39308024197817,189.0 163.64441951876506,188.4545480213128 162.76473204931244,187.36364358162973 161.63370530167595,185.59092249977402 160.12566963862628,182.31820220442023 159.49732144596055,180.4091126989806 156.8582590352744,175.09092442982364 156.6069197584875,174.27274026570376 156.35558048123494,171.0" stroke="#4dd2ff" stroke-linecap="round" stroke-linejoin="round" stroke-width="0.5"><title>2023-10-17 1.0km</title><desc>10051702317</desc></polyline><polyline fill="none" points="175.98050376260653,171.41538655466866 177.2565343142487,173.63077996543143 179.17058014171198,178.61540561076254 180.1914045829326,180.55386757676024 181.33983207913116,184.15386307716835 182.74346568621695,187.75385169649962 183.2538779070601,188.72307822608855 183.89189318241552,189.0 184.01949623785913,188.86153911834117 183.89189318241552,188.44615641143173 182.48825957579538,186.36924150353298 180.57421374879777,181.66155923274346 179.17058014171198,178.75386724586133 178.02215264551342,173.3538559313165 177.38413736922666,171.0" stroke="#4dd2ff" stroke-linecap="round" stroke-linejoin="round" stroke-width="0.5"><title>2023-10-16 1.0km</title><desc>10046279660</desc></polyline><polyline fill="none" points="16.313689517322928,191.0 16.840305301360786,192.14286210003775 17.36692108446732,194.71429936750792 18.551806596573442,198.71430613135453 20.13165394589305,201.14287764916662 21.974809186998755,208.00000437430572 22.633078916464,208.71428701665718 23.554656536784023,209.0 23.686310483142734,208.71428701665718 23.554656536784023,207.8571478142403 21.843155241571367,205.42858468799386 20.921577620785683,202.57144771213643 19.868346054572612,200.85716351040173 17.36692108446732,195.0000144095393 16.44534346368164,191.0" stroke="#4dd2ff" stroke-linecap="round" stroke-linejoin="round" stroke-width="0.5"><title>2023-10-15 1.0km</title><desc>10039610121</desc></polyline><polyline fill="none" points="36.25423207087442,192.3064571354771 36.655564348679036,196.51614647032693 37.72578375739977,199.5645365928067 39.06355801783502,201.45163288107142 39.86622257437557,204.06453245715238 42.1404388169758,208.12903603585437 42.67554852087051,208.70967872138135 43.344435651786625,209.0 43.74576792959124,208.70967872138135 43.74576792959124,208.2741967231268 41.07021940825507,206.0967852922622 39.331112870015204,202.9032441836316 38.66222574003041,200.1451817966299 37.05689662694931,196.51614647032693 36.25423207087442,193.4677516417578 36.388009496964514,191.5806477224687 36.25423207087442,191.0" stroke="#4dd2ff" stroke-linecap="round" stroke-linejoin="round" stroke-width="0.5"><title>2023-10-14 1.0km</title><desc>10033377496</desc></polyline><polyline fill="none" points="55.91872827988118,191.28571558836848 58.28849895577878,194.1428691581823 58.55180680891499,196.2857315784786 60.78992355847731,203.14287544356193 62.89638638170436,208.14286092377733 63.5546560138464,209.0 64.08127171965316,209.0 64.08127171965316,208.5714305093279 63.94961779285222,208.14286092377733 62.764732454903424,207.2857214693213 61.44819319108501,204.85715762886684 59.99999999953434,200.28573510737624 57.36692147096619,194.42858428391628 56.9719596914947,192.42857752018608 56.313690058887005,191.0" stroke="#4dd2ff" stroke-linecap="round" stroke-linejoin="round" stroke-width="0.5"><title>2023-10-13 1.0km</title><desc>10028006924</desc></polyline><polyline fill="none" points="76.1378172035329,191.0 77.40410664491355,192.6488621745957 78.16388031002134,194.0229128751671 78.29050925420597,195.80917727621272 78.16388031002134,197.73284472187515 79.55679869512096,200.6183421780588 81.2029749690555,205.0152821157826 82.84915124299005,208.03817232279107 83.22903807554394,208.58778819919098 83.86218279600143,209.0 83.86218279600143,208.31298028118908 82.46926441043615,206.5267278305255 81.2029749690555,204.32826093258336 79.55679869512096,199.79391478805337 78.54376714210957,198.007654195535 78.03725136583671,196.4962015914498" stroke="#4dd2ff" stroke-linecap="round" stroke-linejoin="round" stroke-width="0.5"><title>2023-10-12 1.0km</title><desc>10021974100</desc></polyline><polyline fill="none" points="97.89550185156986,193.5522495948244 98.39067788608372,196.23882426461205 98.26688387757167,197.31345302646514 99.38102995604277,200.9403204311384 100.2475880170241,202.5522591888439 101.1141460784711,205.50747655145824 102.35208616545424,208.46268913452514 102.59967418340966,208.73134458682034 103.2186442273669,209.0 103.09485021792352,208.46268913452514 101.73311612196267,204.97016465931665 100.2475880170241,202.41793101315852 98.26688387757167,197.85076717019547 97.77170784212649,196.1044956248952 97.52411982510239,193.5522495948244 96.7813557726331,191.0" stroke="#4dd2ff" stroke-linecap="round" stroke-linejoin="round" stroke-width="0.5"><title>2023-10-10 1.0km</title><desc>10009069592</desc></polyline><polyline fill="none" points="116.95066273305565,193.2500098424498 117.80447716778144,195.6323701395886 118.65829160250723,198.80884563201107 120.48789396276698,202.7794321157271 121.95157585060224,207.80882909044158 122.80539028532803,209.0 123.04933726694435,208.60294311773032 123.17131075728685,207.14706713322084 122.31749632256106,204.63236947765108 120.48789396276698,201.4559042607434 118.41434462135658,195.6323701395886 117.80447716778144,192.98530294792727 116.82868924224749,191.0" stroke="#4dd2ff" stroke-linecap="round" stroke-linejoin="round" stroke-width="0.5"><title>2023-10-09 1.0km</title><desc>10003389142</desc></polyline><polyline fill="none" points="136.33512142067775,191.0 137.2352670370601,192.11628403502982 138.13541265344247,194.20931483071763 138.64978157635778,198.3953694977099 140.57866503950208,202.58141493203584 142.25036404049024,207.3255885966355 143.0219174255617,208.7209315354703 143.6648785797879,209.0 143.6648785797879,207.88372589554638 141.2216261937283,203.97676135855727 138.00682042259723,196.1628081573872 136.72089811321348,191.13953554059844" stroke="#4dd2ff" stroke-linecap="round" stroke-linejoin="round" stroke-width="0.5"><title>2023-10-08 1.0km</title><desc>9996447828</desc></polyline><polyline fill="none" points="157.6894741007127,194.60001482162625 158.28191663930193,196.78573449037503 160.05924425413832,201.54287962068338 160.65168679272756,203.60001945286058 162.54750291490927,208.35714604717214 163.1399454534985,209.0 163.25843396084383,208.48571685678326 163.25843396084383,207.97143356245942 161.00715231569484,203.98573290207423 159.940755746793,201.67145093088038 158.04493962367997,196.01430433080532 157.45249708509073,193.05715223390143 156.74156603915617,191.0" stroke="#4dd2ff" stroke-linecap="round" stroke-linejoin="round" stroke-width="0.5"><title>2023-10-07 1.0km</title><desc>9989974159</desc></polyline><polyline fill="none" points="178.5293982247822,196.36172163987067 179.4705833606422,199.42555514350533 180.17647221311927,200.9574698683573 181.58824991760775,206.95745619398076 181.94119434338063,208.10638738039415 182.6470831958577,209.0 183.23532390547916,209.0 183.47062018932775,208.48936427361332 183.35297204786912,208.10638738039415 181.94119434338063,206.06384252291173 180.52941663889214,203.00002073205542 180.05882407119498,200.9574698683573 177.5882130889222,194.95746281091124 177.23526866268367,192.78724238602445 176.52937981067225,191.0" stroke="#4dd2ff" stroke-linecap="round" stroke-linejoin="round" stroke-width="0.5"><title>2023-10-06 1.0km</title><desc>9984428862</desc></polyline><polyline fill="none" points="16.12483936548233,211.0 18.16439759451896,216.45903345034458 19.52410308038816,221.0328068000963 21.835602406412363,226.78689395042602 22.78739624656737,228.7049193349667 23.195307892281562,229.0 23.739190086722374,229.0 23.87516063498333,228.7049193349667 23.467248988803476,227.96721748064738 21.835602406412363,225.60656972648576 20.883808566257358,223.6885413810378 19.252161982934922,219.40985615958925 18.572309240233153,217.19673953438178 16.668721560388803,213.65574785752688 16.668721560388803,212.32787436805665" stroke="#4dd2ff" stroke-linecap="round" stroke-linejoin="round" stroke-width="0.5"><title>2023-10-04 1.0km</title><desc>9971682885</desc></polyline><polyline fill="none" points="37.275629504118115,213.10219913115725 37.881045169662684,215.20439578976948 38.486460835207254,216.64965455804486 38.970793368294835,218.8832339918008 41.271372898016125,223.48177109507378 41.392456031404436,225.05840966361575 42.11895483080298,228.21168262825813 42.361121096648276,228.6058413576102 43.08761989604682,229.0 43.08761989604682,227.68613752059173 41.51353916525841,224.79563666554168 40.42379096662626,222.29929125588387 39.818375300150365,221.11681063415017 39.212959634140134,219.40878168831114 38.002128303050995,216.912428754149 37.51779576996341,214.9416213426739 37.275629504118115,212.97081175807398 36.912380104418844,211.0" stroke="#4dd2ff" stroke-linecap="round" stroke-linejoin="round" stroke-width="0.5"><title>2023-10-03 1.0km</title><desc>9965060084</desc></polyline><polyline fill="none" points="56.70973855769262,211.7438048243057 58.35486927861348,217.09919148962945 58.62905773241073,219.47935879125725 59.588717320002615,220.66944139194675 60.27418845379725,222.45456398068927 61.508036494255066,227.06612337986007 62.46769608184695,228.55372094386257 63.15316721564159,229.0 63.290261442773044,228.8512403254863 62.87897876231,227.6611625365913 61.37094226805493,224.83472498285118 58.90324618574232,218.88431722810492 57.39520969148725,214.42149992857594 57.12102123815566,211.0" stroke="#4dd2ff" stroke-linecap="round" stroke-linejoin="round" stroke-width="0.5"><title>2023-10-02 1.0km</title><desc>9958643020</desc></polyline><polyline fill="none" points="77.146795372013,214.16801199468318 77.41220975574106,215.46401542495005 80.33176798000932,222.37601923558395 81.79154709167778,226.84000873356126 82.58779024379328,228.4240025616018 83.38403339544311,229.0 83.51674058800563,228.85600065614562 83.38403339544311,228.2800031756051 80.72988955536857,224.2480160703417 78.20845290785655,218.0560197121231 77.01408817991614,214.31201241828967 76.48325941199437,211.0" stroke="#4dd2ff" stroke-linecap="round" stroke-linejoin="round" stroke-width="0.5"><title>2023-10-01 1.0km</title><desc>9952075403</desc></polyline><polyline fill="none" points="97.41557656321675,213.60870696778875 98.49742823466659,215.8261048743734 98.97825119877234,218.04350000969134 99.3388684228994,220.1304576053517 101.14195454167202,225.21740646020044 102.70462917815894,228.47826343949419 103.42586362501606,229.0 103.6662751082331,228.60869759391062 101.26216028351337,224.95653764309827 100.18030861206353,222.47828196594492 99.81969138793647,221.17393548239488 98.13681101053953,217.52176022715867 97.17516508046538,213.47827171022072 96.3337248917669,211.0" stroke="#4dd2ff" stroke-linecap="round" stroke-linejoin="round" stroke-width="0.5"><title>2023-09-30 1.0km</title><desc>9945549317</desc></polyline><polyline fill="none" points="117.213150607422,211.0 118.40751463314518,213.0160082259681 118.80563597474247,214.60001323360484 119.86729288613424,217.19201866455842 120.39812134252861,221.0800203795079 120.79624268459156,222.23201940534636 122.38872805144638,226.12001111591235 122.78684939350933,228.56800193735398 123.05226362170652,228.85600065637846 123.4503849633038,229.0 123.58309207716957,228.7120013020467 121.19436402618885,224.39201575319748 119.60187865886837,220.64802057005 119.07105020293966,218.48802009352949 117.213150607422,214.16801199526526 116.4169079232961,211.57600256206933" stroke="#4dd2ff" stroke-linecap="round" stroke-linejoin="round" stroke-width="0.5"><title>2023-09-28 1.0km</title><desc>9933629332</desc></polyline><polyline fill="none" points="136.4812475326471,213.04546334245242 137.48660538066179,216.5909277930623 139.37165134493262,219.1818398362957 140.62834865506738,223.81819972326048 142.387724888511,226.9545542517444 142.89040381275117,228.72727403056342 143.39308273606002,229.0 143.64442219864577,228.59091103065293 143.39308273606002,228.04545893135946 142.387724888511,226.6818279812578 139.49732107575983,220.81820347253233 137.98928430397063,216.72729167481884 136.3555778018199,211.0" stroke="#4dd2ff" stroke-linecap="round" stroke-linejoin="round" stroke-width="0.5"><title>2023-09-27 1.0km</title><desc>9927137811</desc></polyline><polyline fill="none" points="161.49532136670314,211.0 161.13644423848018,212.73079315607902 160.77756711049005,213.72599691554205 160.4984404554125,214.93754704669118 158.86355576105416,218.35583575541386 158.02617579582147,219.78372262767516 157.86667484999634,220.38949176907772 157.94642532267608,220.86545280006249 158.1458015050739,221.55775906681083 158.7439300515689,223.02890717971604 158.94330623396672,223.4183281234 159.18255765270442,224.11063138698228 159.98006238159724,225.10581590171205 160.33893950958736,225.88465478277067 160.7376918741502,226.49041764438152 161.05669376580045,227.3557920793537 161.535196603043,228.00482207047753 162.13332514977083,229.0" stroke="#4dd2ff" stroke-linecap="round" stroke-linejoin="round" stroke-width="0.5"><title>2023-09-26 1.0km</title><desc>9920397094</desc></polyline><polyline fill="none" points="179.91593836294487,211.0 179.13136308570392,213.61488918599207 178.34678780846298,215.01354744983837 177.61825362220407,215.92571460851468 177.2259659837,216.65544761100318 177.0578427100554,217.38517996965675 177.11388380080462,218.29734451253898 177.3940892573446,219.02707542252028 178.06658235215582,220.06085977627663 178.34678780846298,221.0946428378229 178.90719872061163,222.43247782281833 179.97197945415974,223.77031064400217 181.76529437373392,227.4189346122439 182.94215728971176,229.0" stroke="#4dd2ff" stroke-linecap="round" stroke-linejoin="round" stroke-width="0.5"><title>2023-09-25 1.0km</title><desc>9914573673</desc></polyline><polyline fill="none" points="21.327048893552274,231.0 20.884699262445793,231.67200891877292 20.79622933617793,232.00801311869873 20.884699262445793,232.4400182645768 20.928934225579724,232.8720231244224 20.04423496313393,234.50403890397865 19.823060147464275,235.60804726480274 19.51341540599242,236.42405224451795 17.65554695483297,239.68806196353398 17.61131199169904,240.07206203386886 17.788251844001934,240.8400614973507 18.274836438475177,241.6080600572168 18.540246217278764,242.2800580559997 18.938360885251313,242.95205536298454 19.15953570092097,243.62405197828775 19.734590221429244,244.53604627848836 20.176939852302894,245.44803930463968 20.663524447008967,245.9760346848634 20.79622933617793,246.45603011449566 21.10587407811545,246.8400262040086 21.769398524891585,247.99201311788056 22.255983119131997,248.5200064406381 22.38868800853379,249.0" stroke="#4dd2ff" stroke-linecap="round" stroke-linejoin="round" stroke-width="0.5"><title>2023-09-24 1.0km</title><desc>9907510217</desc></polyline><polyline fill="none" points="40.67104142787866,231.0 40.29525822820142,231.5825306751649 40.02684165723622,232.1650609219796 39.8657917145174,232.9223496025661 39.81210840004496,233.9126490924391 38.899492057971656,235.13595851819264 38.362658915575594,236.53402412019204 37.87950908741914,237.23305599595187 37.5574092019815,238.16509753774153 37.50372588750906,239.15539047430502 38.631075486773625,242.00975730718346 39.060542000690475,242.8835410165484 40.45630817115307,245.09712210064754 41.04682462755591,246.5534220727859 41.798391027143225,247.4854526500567 42.227857541060075,248.24272668687627 42.49627411249094,249.0" stroke="#4dd2ff" stroke-linecap="round" stroke-linejoin="round" stroke-width="0.5"><title>2023-09-23 1.0km</title><desc>9901004991</desc></polyline><polyline fill="none" points="60.69117305218242,231.0 60.33278702525422,231.6666743136011 59.97440099832602,232.83335294673452 59.155232936609536,234.5555895413272 58.336064874893054,235.7222637136001 57.61929282103665,237.66671666427283 57.5680948169902,238.72227474185638 57.67049082508311,239.33338663936593 58.694450901821256,241.7778292860603 58.84804491349496,242.5000494637643 59.05283692874946,242.88893696578452 59.76960898260586,243.77782193332678 60.33278702525422,244.88892667199252 60.79356905980967,246.05558488948736 61.56153911771253,247.16668627905892 62.431905183242634,249.0" stroke="#4dd2ff" stroke-linecap="round" stroke-linejoin="round" stroke-width="0.5"><title>2023-09-22 1.0km</title><desc>9895405405</desc></polyline><polyline fill="none" points="80.95418478921056,231.0 80.80738712917082,231.53097987367073 80.51379180978984,231.84956761042122 79.87766861682758,233.01772144268034 79.63300585048273,233.86728667921852 78.89901755098253,235.72570714971516 78.11609669867903,237.3186351749464 77.62677116552368,238.48678016033955 77.47997350571677,239.07085194438696 77.47997350571677,239.44253374281107 77.62677116552368,239.97350740875117 77.92036648537032,240.5044806843507 78.55648967833258,242.15049535757862 79.19261287082918,243.31863252696348 79.53514074371196,244.16818564524874 80.17126393644139,245.2301256377832 80.56272436259314,245.7079981250572 80.85631968243979,246.55754843255272 81.63924053497612,247.93806555081392 82.5200264940504,249.0" stroke="#4dd2ff" stroke-linecap="round" stroke-linejoin="round" stroke-width="0.5"><title>2023-09-21 1.0km</title><desc>9889267953</desc></polyline><polyline fill="none" points="101.83262381213717,231.0 101.1902608263772,232.9271348346956 100.81240024673752,234.4442362957052 100.20782331866212,235.71531812573085 99.48988821706735,237.84744888261775 98.2429483034648,240.18458284673397 97.90287378174253,241.45565159220132 97.9406598394271,241.74266671438818 98.16737618739717,242.3576986216649 98.65859494148754,243.42375232084305 98.9608834052924,244.32579616687144 99.71660456503741,245.39184610371012 100.17003726097755,246.2528849497321 100.43453966663219,246.86791188293137 100.73682813043706,247.4009346763487 101.22804688452743,247.76995015799184 101.83262381213717,248.6719869741064 101.8704098702874,248.83599351116573 102.09712621825747,249.0" stroke="#4dd2ff" stroke-linecap="round" stroke-linejoin="round" stroke-width="0.5"><title>2023-09-20 1.0km</title><desc>9882714971</desc></polyline><polyline fill="none" points="121.492503026966,231.0 121.10871653445065,231.97173551184824 120.38378649274819,234.10029377049068 120.34114354918711,234.79438729817048 120.08528588735498,235.16457019996597 119.78678528219461,235.85866255377186 119.61621350748464,236.50648139341502 119.27506995853037,237.3856630375376 118.29428225499578,238.9589323879336 118.03842459316365,239.88438310968922 117.9531387060415,240.71728759579128 118.03842459316365,241.55019097944023 118.29428225499578,242.47563789068954 118.59278286015615,243.12344991898863 119.53092762012966,244.74297707213555 120.00000000023283,245.39078676642384 120.42642943630926,246.5475881336024 120.85285887261853,247.28793989261612 121.27928830869496,247.889475055621 121.7483606885653,248.35219402058283 122.04686129419133,249.0" stroke="#4dd2ff" stroke-linecap="round" stroke-linejoin="round" stroke-width="0.5"><title>2023-09-19 1.0km</title><desc>9876194288</desc></polyline><polyline fill="none" points="139.86750662187114,231.0 139.54952251445502,231.51757766940864 139.01954900240526,232.5527319808025 138.8605569486972,233.24283409374766 137.90660462668166,234.91057835303945 137.1646417095326,236.46330257016234 137.00564965582453,237.03838483133586 137.05864700721577,237.67097482999088 137.3766311146319,238.47608863416826 137.85360727552325,239.33870964730158 138.27758608548902,240.5463774675154 138.8605569486972,241.81155127921375 139.4965251632966,242.96170751401223 140.07949602697045,243.70930815977044 140.76846159272827,244.85946160397725 141.19244040246122,246.18213597405702 141.9344033198431,247.33228578220587 142.30538477841765,248.36741916363826 142.9943503444083,249.0" stroke="#4dd2ff" stroke-linecap="round" stroke-linejoin="round" stroke-width="0.5"><title>2023-09-18 1.0km</title><desc>9870505463</desc></polyline><polyline fill="none" points="160.180867734598,231.0 159.92248525680043,231.5046786859748 159.56074978783727,233.18693856027676 159.0956613277085,233.97199189837556 158.88895534537733,234.58881895412924 157.75207244278863,236.43929712829413 157.3386604783591,237.44864696724107 157.0802780003287,238.3458457023953 157.28698398265988,238.9626692206948 158.42386688501574,241.42995830491418 158.99230833654292,242.3271523566218 159.40572030097246,243.2804198800004 160.0775147434324,244.17761175491614 160.4392502126284,244.79443055659067 160.90433867252432,246.25236392312218 162.91972199990414,249.0" stroke="#4dd2ff" stroke-linecap="round" stroke-linejoin="round" stroke-width="0.5"><title>2023-09-16 1.0km</title><desc>9856514700</desc></polyline><polyline fill="none" points="179.75117739033885,231.0 179.19823825755157,232.68001679936424 178.4794173850678,233.82002622907748 176.98648172640242,236.7000429572654 176.93118781317025,237.36004535935353 176.98648172640242,238.1400475098053 177.31824520626105,238.92004891473334 177.87118433904834,239.76004959398415 178.36882955837063,240.9000491327606 179.25353217078373,242.4000460996176 180.35941043659113,244.50003722141264 180.46999826305546,245.28003254742362 180.85705565591343,245.58003055123845 181.2994069622364,246.18002622795757 182.01822783472016,247.38001625816105 182.7923426204361,248.04001002263976 182.95822436036542,248.46000577666564 183.06881218706258,249.0" stroke="#4dd2ff" stroke-linecap="round" stroke-linejoin="round" stroke-width="0.5"><title>2023-09-15 1.0km</title><desc>9850671982</desc></polyline><polyline fill="none" points="20.45760422758758,251.0 19.54239577241242,253.4207119922503 18.512786260340363,254.91037746024085 18.055182032752782,255.7172784911818 17.36877569137141,257.4552165536443 17.19717410602607,258.07590785168577 17.19717410602607,258.57246056129225 17.36877569137141,259.193151037849 18.055182032752782,261.05521972937277 18.684387845685706,262.29659657517914 20.22880211402662,264.96555061248364 20.858007926726714,266.14485319692176 20.97240898362361,266.82760657178005 21.43001321121119,267.26208570454037 22.17362008104101,268.44138508086326 22.80282589397393,269.0" stroke="#4dd2ff" stroke-linecap="round" stroke-linejoin="round" stroke-width="0.5"><title>2023-09-14 1.0km</title><desc>9844236351</desc></polyline><polyline fill="none" points="37.13924675201997,251.0 37.46854208991863,251.26799398573348 37.59202784160152,251.535987853189 37.67435167613439,252.11664082697826 37.92132317950018,252.60796214069705 38.08597084856592,253.99259279557737 38.08597084856592,254.66257423744537 38.00364701403305,255.01989737094846 38.08597084856592,255.46655099239433 38.291780434548855,256.00253490457544 38.209456600248814,256.4491878034314 38.250618517398834,256.6725141296629 38.66223768983036,257.4318230249919 39.03269494511187,258.54845202929573 39.3619902827777,259.17376337520545 39.773609455209225,259.7544090486481 40.226390544790775,260.1563941896311 40.34987629647367,260.42438413598575 40.47336204838939,261.00502861407585 40.80265738628805,261.5856725371559 41.173114641336724,262.6576290910598 41.667057648068294,263.5955895241932 41.91402915143408,264.39955445716623 42.0375149033498,265.0695244217641 42.28448640671559,265.6054998616455 42.737267496297136,267.0794298829278 43.35469625494443,268.2407055631047 43.39585817232728,268.41936316300416 43.35469625494443,268.5533563285135 42.86075324798003,269.0 43.107724751578644,268.8213425707654 43.231210503261536,268.5533563285135 43.31353433756158,268.330034369661 43.27237242064439,268.0173834892921 43.02540091704577,267.70473244803725 42.28448640671559,266.0968102659681 41.91402915143408,264.89086583675817 41.131952724186704,263.14894187945174 40.761495468905196,261.45167783496436 40.55568588292226,260.96036367397755 39.773609455209225,259.9330691441428 38.99153302772902,258.45912178448634 38.62107577244751,257.2531621938688 38.49759002099745,256.4491878034314 38.16829468286596,255.60054701479385 37.50970400730148,254.1712545856717 37.345056338235736,253.50127260189038 36.768789496971294,252.4292998908204 36.64530374505557,251.84864721581107 36.60414182790555,251.1339970076806" stroke="#4dd2ff" stroke-linecap="round" stroke-linejoin="round" stroke-width="0.5"><title>2023-09-13 1.0km</title><desc>9837636972</desc></polyline></svg>