<?xml version="1.0" encoding="utf-8" ?>
<svg baseProfile="full" height="300mm" version="1.1" viewBox="0,0,200,300" width="200mm" xmlns="http://www.w3.org/2000/svg" xmlns:ev="http://www.w3.org/2001/xml-events" xmlns:xlink="http://www.w3.org/1999/xlink"><defs /><rect fill="#222222" height="300" width="200" x="0" y="0" /><text fill="#FFFFFF" style="font-size:12px; font-family:Arial; font-weight:bold;" x="10" y="20">Over 1km Runs</text><text fill="#FFFFFF" style="font-size:4px; font-family:Arial" x="10" y="280">ATHLETE</text><text fill="#FFFFFF" style="font-size:9px; font-family:Arial" x="10" y="290">Jiakai</text><text fill="#FFFFFF" style="font-size:4px; font-family:Arial" x="120" y="280">STATISTICS</text><text fill="#FFFFFF" style="font-size:3px; font-family:Arial" x="120" y="285">Number: 35</text><text fill="#FFFFFF" style="font-size:3px; font-family:Arial" x="120" y="290">Weekly: 5.8</text><text fill="#FFFFFF" style="font-size:3px; font-family:Arial" x="141" y="285">Total: 36.7 km</text><text fill="#FFFFFF" style="font-size:3px; font-family:Arial" x="141" y="290">Avg: 1.0 km</text><text fill="#FFFFFF" style="font-size:3px; font-family:Arial" x="167" y="285">Min: 1.0 km</text><text fill="#FFFFFF" style="font-size:3px; font-family:Arial" x="167" y="290">Max: 1.5 km</text><polyline fill="none" points="17.152420015772805,31.862283861264586 17.697972896276042,31.714285714260768 21.585037171142176,32.010281986382324 23.289889923064038,32.45427623129217 23.699054583441466,32.67627328034723 24.585578014841303,33.342264133447316 25.19932500552386,34.08225345349638 26.563207206781954,36.598213071294595 27.24514830787666,39.41016049508471 28.131671739043668,40.89012966764858 28.540836399421096,42.07410343864467 29.49555394053459,44.220052348740865 30.1774950416293,46.439994681975804 31.200406692689285,48.215945022995584 31.677765463246033,48.73392994882306 32.29151245392859,49.76989900076296 32.63248300435953,51.98982909275219 32.83706533466466,52.5818096238072 33.382618215167895,53.395782285311725 33.519006435759366,54.65373874019133 33.723588765598834,55.17172035272233 36.72412960929796,62.27544128726004 37.13329426990822,62.571428571420256 37.13329426990822,62.20144445245387 36.51954727899283,61.60946957941633 35.837606178363785,59.98153688298771 35.15566507726908,58.575592890090775 33.314424105221406,52.877799758687615" stroke="#4dd2ff" stroke-linecap="round" stroke-linejoin="round" stroke-width="0.5"><title>2023-10-22 1.5km</title><desc>10080655811</desc></polyline><polyline fill="none" points="58.66352655622177,31.714285714318976 59.74615200050175,32.49747298494913 57.79742620047182,32.184198145754635 60.828777445014566,36.100127012934536 61.11747756367549,37.039947798941284 60.9009524746798,37.82313115359284 59.890502059832215,38.371359159529675 59.60180194117129,38.91958688304294 59.67397697106935,39.85940518107964 60.25137720792554,42.13062931166496 60.9009524746798,43.77530583151383 61.622702771099284,46.28147469263058 62.921853304607794,48.552685130154714 63.13837839337066,49.4141774775926 63.932303719455376,50.823890724859666 64.437528927112,51.450429347285535 64.50970395631157,51.84201579896035 65.01492916396819,52.31191935116658 65.37580431206152,53.09509147738572 65.88102951995097,54.583116930909455 66.38625472737476,55.60123841202585 66.31407969770953,57.637478454911616 67.25235508265905,59.43876447924413 67.54105520155281,60.300248022947926 68.04628040874377,61.24004745786078 68.91238076449372,62.33647908392595 69.34543094225228,62.571428571420256 67.68540526065044,60.22193136590067 67.32453011255711,58.968864070950076 66.6027798159048,57.402527879341505 66.31407969770953,56.384408119891305 65.37580431206152,55.05301927390974 64.58187898620963,52.781822696037125" stroke="#4dd2ff" stroke-linecap="round" stroke-linejoin="round" stroke-width="0.5"><title>2023-10-20 1.4km</title><desc>10069668027</desc></polyline><polyline fill="none" points="93.79089299729094,31.714285714260768 93.93785410979763,32.91031535976799 95.11354300985113,35.78078112640651 95.4074652348645,37.53495091025252 97.83232359075919,43.43531935848296 98.05276525951922,44.23266398377018 98.1997263720259,45.428679822653066 98.49364859703928,46.22602298256243 100.25718194665387,48.69778305228101 101.21242917794734,50.611399882414844 101.8002736279741,52.52501333586406 102.3146375217475,53.56155254674377 102.60855974676087,55.156226321239956 102.9759625280276,55.95356232917402 103.93120975932106,58.42530022858409 104.07817087182775,59.38210048386827 105.47430144064128,62.2524961848394 105.84170422144234,62.571428571420256 106.06214589020237,62.571428571420256 106.20910700270906,62.491695483447984 106.13562644692138,62.41196238971315 104.6660153218545,60.57809961569728 104.00469031557441,58.345566835894715 102.60855974676087,55.79409517440945 102.38811807800084,54.75755809730617 102.24115696549416,53.003416171704885" stroke="#4dd2ff" stroke-linecap="round" stroke-linejoin="round" stroke-width="0.5"><title>2023-10-19 1.3km</title><desc>10064004415</desc></polyline><polyline fill="none" points="129.4705221261829,31.714285714318976 132.49576095305383,35.653513251338154 132.29407836403698,38.4985076750163 132.69744354113936,41.34349937993102 134.10922166053206,46.376939580310136 136.12604754511267,49.65961338719353 138.14287342969328,55.34957274328917 142.17652519978583,61.914896947098896 142.78157296590507,62.57142857136205 143.38662073016167,62.35258471244015 140.76474708039314,59.726457154145464 135.92436495702714,50.316147713921964 134.71426942571998,46.158094531157985 131.28566542174667,38.93619888345711" stroke="#4dd2ff" stroke-linecap="round" stroke-linejoin="round" stroke-width="0.5"><title>2023-10-18 1.0km</title><desc>10058081424</desc></polyline><polyline fill="none" points="167.4713012035936,33.58442410849966 169.1947705326602,43.63639913452789 173.71887752227485,55.55846785288304 176.73494884744287,61.870133195538074 178.02755084447563,62.57142857136205 178.673851842992,62.57142857136205 179.10471917502582,61.63636803650297 177.59668351337314,59.766246139770374 175.657780517824,56.72729571373202 173.07257652375847,51.11691806465387 171.99540819320828,47.84419319801964 167.4713012035936,38.727299022488296 167.0404338715598,37.32469759811647 166.60956653952599,31.714285714318976" stroke="#4dd2ff" stroke-linecap="round" stroke-linejoin="round" stroke-width="0.5"><title>2023-10-17 1.0km</title><desc>10051702317</desc></polyline><polyline fill="none" points="20.252292164601386,66.71209123637527 22.43977310974151,70.50990851200186 25.720994528383017,79.05498104682192 27.470979285426438,82.37805870268494 29.439712135121226,88.5494795604609 31.845941176638007,94.72088862233795 32.72093355469406,96.38241981598549 33.814674026332796,96.85714285704307 34.03342212177813,96.61978134536184 33.814674026332796,95.9076967050787 31.40844498667866,92.34727114881389 28.127223568968475,84.27695868443698 25.720994528383017,79.2923438497819 23.752261677756906,70.0351815961767 22.65852120425552,65.99999999976717" stroke="#4dd2ff" stroke-linecap="round" stroke-linejoin="round" stroke-width="0.5"><title>2023-10-16 1.0km</title><desc>10046279660</desc></polyline><polyline fill="none" points="57.25203917268664,65.99999999976717 58.15480908751488,67.95919217122719 59.057579001411796,72.36737034399994 61.08881130814552,79.2245247962419 63.79712104983628,83.38779025524855 66.95681574847549,95.1428646412678 68.08527814224362,96.3673491710797 69.66512549109757,96.85714285704307 69.89081797096878,96.3673491710797 69.66512549109757,94.89796768128872 66.73112327046692,90.73471660772339 65.15127592068166,85.83676750632003 63.34573609288782,82.89799458906054 59.057579001411796,72.85716755897738 57.47773165162653,65.99999999976717" stroke="#4dd2ff" stroke-linecap="round" stroke-linejoin="round" stroke-width="0.5"><title>2023-10-15 1.0km</title><desc>10039610121</desc></polyline><polyline fill="none" points="93.57868354953825,68.23964080377482 94.26668174099177,75.45625109202228 96.10134358424693,80.68206273042597 98.39467088785022,83.91708493907936 99.77066727075726,88.39634135528468 103.66932368651032,95.36406177585013 104.58665460720658,96.35944923665375 105.73331825993955,96.85714285704307 106.42131645046175,96.35944923665375 106.42131645046175,95.61290866835043 101.83466184325516,91.88020335813053 98.85333634819835,86.40556145762093 97.70667269732803,81.67745450860821 94.95467993244529,75.45625109202228 93.57868354953825,70.2304313860368 93.80801628064364,66.9953960957937 93.57868354953825,66.0" stroke="#4dd2ff" stroke-linecap="round" stroke-linejoin="round" stroke-width="0.5"><title>2023-10-14 1.0km</title><desc>10033377496</desc></polyline><polyline fill="none" points="129.4321056222543,66.48979815118946 133.494569638744,71.3877756993752 133.94595452956855,75.06125413440168 137.78272610064596,86.81635790294968 141.39380522537977,95.38776158331893 142.52226745150983,96.85714285704307 143.42503723409027,96.85714285704307 143.42503723409027,96.12245230167173 143.19934478774667,95.38776158331893 141.1681127799675,93.91837966162711 138.91118832770735,89.75512736360542 136.4285714281723,81.91840304108337 131.91472252178937,71.87757305800915 131.23764518555254,68.44899003440514 130.10918295849115,65.99999999976717" stroke="#4dd2ff" stroke-linecap="round" stroke-linejoin="round" stroke-width="0.5"><title>2023-10-13 1.0km</title><desc>10028006924</desc></polyline><polyline fill="none" points="166.23625806346536,65.99999999976717 168.40703996270895,68.8266208707355 169.70950910262764,71.18213635729626 169.92658729385585,74.24430390191264 169.70950910262764,77.54201952298172 172.09736919216812,82.48858659085818 174.91938566230237,90.02619791263714 177.7414021315053,95.20829541049898 178.39263670146465,96.15049405558966 179.47802765108645,96.85714285704307 179.47802765108645,95.67939476761967 177.09016756154597,92.61724770930596 174.91938566230237,88.84844731283374 172.09736919216812,81.07528249360621 170.36074367258698,78.0131214777939 169.49243091326207,75.42205987102352" stroke="#4dd2ff" stroke-linecap="round" stroke-linejoin="round" stroke-width="0.5"><title>2023-10-12 1.0km</title><desc>10021974100</desc></polyline><polyline fill="none" points="23.53514603059739,104.66099930554628 24.38401923328638,109.26655588229187 24.171800932846963,111.10877661709674 26.081765638664365,117.32626359653659 27.56729374360293,120.08958718110807 29.05282184947282,125.15567408851348 31.175004854798317,130.22175280214287 31.599441456608474,130.6823050060775 32.660532960668206,131.14285714295693 32.448314659297466,130.22175280214287 30.113913351669908,124.23456798773259 27.56729374360293,119.85931030847132 24.171800932846963,112.02988657774404 23.32292772922665,109.03627821430564 22.898491128347814,104.66099930554628 21.625181324779987,100.28571428591385" stroke="#4dd2ff" stroke-linecap="round" stroke-linejoin="round" stroke-width="0.5"><title>2023-10-10 1.0km</title><desc>10009069592</desc></polyline><polyline fill="none" points="58.3439932577312,104.14287401572801 59.80767514556646,108.22692023939453 61.27135703340173,113.6723067977 64.40781822241843,120.47902648407035 66.91698717325926,129.1008498694282 68.38066906109452,131.14285714295693 68.79886388685554,130.46218820195645 69.00796129927039,127.96640079980716 67.54427941143513,123.65549053321593 64.40781822241843,118.21012158994563 60.85316220857203,108.22692023939453 59.80767514556646,103.68909076787531 58.13489584438503,100.28571428591385" stroke="#4dd2ff" stroke-linecap="round" stroke-linejoin="round" stroke-width="0.5"><title>2023-10-09 1.0km</title><desc>10003389142</desc></polyline><polyline fill="none" points="93.71735100634396,100.28571428568102 95.2604577774182,102.1993440601509 96.80356454756111,105.78739685262553 97.68533984478563,112.96349056763574 100.99199720937759,120.13956845505163 103.85776692535728,128.27243759436533 105.18042987119406,130.66445406060666 106.28264899272472,131.14285714295693 106.28264899272472,129.22924439236522 102.09421633090824,122.53159090038389 96.58312072325498,109.13624255545437 94.37868247926235,100.52491806959733" stroke="#4dd2ff" stroke-linecap="round" stroke-linejoin="round" stroke-width="0.5"><title>2023-10-08 1.0km</title><desc>9996447828</desc></polyline><polyline fill="none" points="132.46766988746822,106.45716826571152 133.48328566737473,110.20411626901478 136.53013300709426,118.35922220698558 137.5457487879321,121.88574763340876 140.7957192827016,130.04082179511897 141.81133506353945,131.14285714295693 142.01445821952075,130.261228897376 142.01445821952075,129.37960039288737 138.155118255876,122.54697068920359 136.32700985111296,118.57963016722351 133.07703935541213,108.88166456692852 132.0614235745743,103.81226097233593 130.84268463868648,100.28571428568102" stroke="#4dd2ff" stroke-linecap="round" stroke-linejoin="round" stroke-width="0.5"><title>2023-10-07 1.0km</title><desc>9989974159</desc></polyline><polyline fill="none" points="170.33611124195158,109.47723709698766 171.94957147538662,114.72952310321853 173.15966665092856,117.35566263156943 175.5798570010811,127.64135347562842 176.18490458838642,129.61094979499467 177.39499976392835,131.14285714295693 178.40341240912676,131.14285714295693 178.80677746701986,130.2674816120416 178.60509493853897,129.61094979499467 176.18490458838642,126.10944432509132 173.76471423823386,120.85717839794233 172.95798412151635,117.35566263156943 168.72265100944787,107.06993624730967 168.11760342214257,103.34955837624148 166.90750824660063,100.28571428591385" stroke="#4dd2ff" stroke-linecap="round" stroke-linejoin="round" stroke-width="0.5"><title>2023-10-06 1.0km</title><desc>9984428862</desc></polyline><polyline fill="none" points="20.499724626541138,134.57142857136205 23.99611016176641,143.92977162916213 26.327033852227032,151.77052594302222 30.289604124613106,161.63467534352094 31.921250708401203,164.92271885997616 32.62052781507373,165.42857142863795 33.5528972921893,165.42857142863795 33.78598965983838,164.92271885997616 33.08671255223453,163.65808710968122 30.289604124613106,159.61126238806173 28.657957541756332,156.3232137961313 25.860849113203585,148.9883248449769 24.695387269370258,145.19441063026898 21.432094102725387,139.12413918436505 21.432094102725387,136.84778463095427" stroke="#4dd2ff" stroke-linecap="round" stroke-linejoin="round" stroke-width="0.5"><title>2023-10-04 1.0km</title><desc>9971682885</desc></polyline><polyline fill="none" points="58.90107914991677,138.17519851052202 59.938934575766325,141.77896421100013 60.976790002547204,144.25655067083426 61.80707434564829,148.08554398594424 65.75092496816069,155.96875044866465 65.95849605370313,158.67155942320824 67.20392256695777,164.07717021973804 67.61906473711133,164.7528708986938 68.86449124943465,165.42857142863795 68.86449124943465,163.17623574961908 66.16606714017689,158.22109142667614 64.29792737122625,153.941642152844 63.26007194351405,151.914532515686 62.22221651580185,148.98648289428093 60.14650566224009,144.7070207213983 59.316221320070326,141.32849373016506 58.90107914991677,137.94996301387437 58.27836589328945,134.57142857136205" stroke="#4dd2ff" stroke-linecap="round" stroke-linejoin="round" stroke-width="0.5"><title>2023-10-03 1.0km</title><desc>9965060084</desc></polyline><polyline fill="none" points="94.35955181345344,135.8465225561522 97.17977590672672,145.02718541095965 97.64981325622648,149.10747221391648 99.29494397714734,151.14761381503195 100.47003735043108,154.20782396709546 102.58520541992038,162.11335436580703 104.23033614084125,164.66352161834948 105.40542951319367,165.42857142863795 105.64044818747789,165.1735548437573 104.93539216462523,163.13342149136588 102.35018674563617,158.28809997090138 98.11985060479492,148.08740096259862 95.53464518580586,140.43685702071525 95.06460783723742,134.57142857159488" stroke="#4dd2ff" stroke-linecap="round" stroke-linejoin="round" stroke-width="0.5"><title>2023-10-02 1.0km</title><desc>9958643020</desc></polyline><polyline fill="none" points="131.5373634947464,140.00230627693236 131.99235958140343,142.22402644297108 136.99731653742492,154.0731758326292 139.49979501497,161.72572925779969 140.86478327587247,164.44114724872634 142.2297715349123,165.42857142863795 142.45726957917213,165.18171541090123 142.2297715349123,164.1942911585793 137.67981066647917,157.28231326374225 133.3573478423059,146.66746236407198 131.30986545141786,140.24916414590552 130.39987327717245,134.57142857159488" stroke="#4dd2ff" stroke-linecap="round" stroke-linejoin="round" stroke-width="0.5"><title>2023-10-01 1.0km</title><desc>9952075403</desc></polyline><polyline fill="none" points="168.42670268006623,139.043497659266 170.28130554500967,142.84475121321157 171.10557348374277,146.64600001671351 171.72377443965524,150.22364160930738 174.81477921456099,158.9441253603436 177.49365002010018,164.53416589647532 178.73005192913115,165.42857142863795 179.14218590036035,164.7577673040796 175.02084620017558,158.49692167411558 173.16624333523214,154.24848337029107 172.548042380251,152.01246082712896 169.66310459002852,145.7515889608767 168.01456870976835,138.81989436061122 166.57209981419146,134.57142857159488" stroke="#4dd2ff" stroke-linecap="round" stroke-linejoin="round" stroke-width="0.5"><title>2023-09-30 1.0km</title><desc>9945549317</desc></polyline><polyline fill="none" points="22.365401040762663,168.8571428572759 24.412882228381932,172.31315695890225 25.095375956967473,175.02859411481768 26.915359233506024,179.4720319963526 27.825350873172283,186.1371777933091 28.507844601757824,188.1120332663413 31.237819517031312,194.7771619129926 31.920313245616853,198.9737176070921 32.375309065915644,199.46742969658226 33.057802794501185,199.71428571431898 33.28530070371926,199.22057366068475 29.19033833127469,191.81488414830528 26.460363415069878,185.39660669164732 25.55037177633494,181.69374873186462 22.365401040762663,174.28802056331187 21.000413582660258,169.84457582072355" stroke="#4dd2ff" stroke-linecap="round" stroke-linejoin="round" stroke-width="0.5"><title>2023-09-28 1.0km</title><desc>9933629332</desc></polyline><polyline fill="none" points="57.539281483739614,172.36365144420415 59.26275208033621,178.4415905023925 62.49425944779068,182.8831540052779 64.64859769307077,190.83119952562265 67.66467123664916,196.20780728873797 68.52640653494745,199.2467554807663 69.38814183231443,199.71428571431898 69.81900948286057,199.01299033826217 69.38814183231443,198.07792959664948 67.66467123664916,195.7402765394654 62.70969327259809,185.68834880995564 60.12448737770319,178.67535715689883 57.32384765986353,168.8571428572759" stroke="#4dd2ff" stroke-linecap="round" stroke-linejoin="round" stroke-width="0.5"><title>2023-09-27 1.0km</title><desc>9927137811</desc></polyline><polyline fill="none" points="102.56340805720538,168.85714285710128 101.94819012330845,171.82421683898428 101.33297218964435,173.53028042666847 100.8544693524018,175.6072235086467 98.05180987622589,181.4671470093308 96.61630136449821,183.91495307604782 96.3428711714223,184.9534144612844 96.47958626761101,185.7693476572167 96.82137400866486,186.9561584002222 97.84673723159358,189.47812659380725 98.18852497264743,190.14570535434177 98.59867026191205,191.33251094917068 99.96582122566178,193.0385415458586 100.58103915932588,194.37369391327957 101.26461464166641,195.4121445332421 101.81147502711974,196.8956435645814 102.63176560564898,198.00826640654122 103.65712882834487,199.71428571426077" stroke="#4dd2ff" stroke-linecap="round" stroke-linejoin="round" stroke-width="0.5"><title>2023-09-26 1.0km</title><desc>9920397094</desc></polyline><polyline fill="none" points="136.28446576558053,168.8571428571595 134.9394795759581,173.33981003321242 133.59449338633567,175.7375099140918 132.34557763813064,177.30122504313476 131.6730845440179,178.55219590466004 131.38487321743742,179.80316566233523 131.4809436588548,181.36687630729284 131.96129587013274,182.6178435815964 133.1141411755234,184.3900453307433 133.59449338633567,186.1622448648559 134.5551978070289,188.45567626773845 136.3805362074636,190.7491039611632 139.454790355172,197.00388790667057 141.4722696398385,199.71428571431898" stroke="#4dd2ff" stroke-linecap="round" stroke-linejoin="round" stroke-width="0.5"><title>2023-09-25 1.0km</title><desc>9914573673</desc></polyline><polyline fill="none" points="175.13208381691948,168.85714285710128 174.37377016386017,170.00915814639302 174.2221074332483,170.58516534627415 174.37377016386017,171.32574559631757 174.4496015291661,172.06632535607787 172.93297422211617,174.86406669241842 172.55381739558652,176.75665245385608 172.022997838445,178.15551813342609 168.8380804937333,183.75096336600836 168.76224912842736,184.4092492008931 169.06557458965108,185.72581970965257 169.89971960848197,187.04238866950618 170.35470780078322,188.19438523880672 171.0371900885366,189.34638062218437 171.4163469155319,190.49837481981376 172.40215466497466,192.06179362011608 173.16046831803396,193.62521023646696 173.99461333733052,194.5303451739601 174.2221074332483,195.35319448186783 174.75292699038982,196.0114734925446 175.8903974709101,197.98630820197286 176.724542489741,198.8914396124892 176.9520365856588,199.71428571426077" stroke="#4dd2ff" stroke-linecap="round" stroke-linejoin="round" stroke-width="0.5"><title>2023-09-24 1.0km</title><desc>9907510217</desc></polyline><polyline fill="none" points="28.293213876429945,203.1428571428405 27.64901410555467,204.14148115750868 27.18887141207233,205.14010443771258 26.912785795982927,206.4383136043325 26.82075725728646,208.13596987281926 25.256272099446505,210.23307174548972 24.335986712481827,212.62975563458167 23.507729864213616,213.8280959931435 22.955558631569147,215.42588149325456 22.86353009287268,217.12352652742993 24.796129405964166,222.01672681234777 25.53235771553591,223.51464174268767 27.925099721644074,227.30935217253864 28.93741364730522,229.80586641049013 30.22581318905577,231.40363311441615 30.962041499093175,232.70181717758533 31.422184192575514,234.0" stroke="#4dd2ff" stroke-linecap="round" stroke-linejoin="round" stroke-width="0.5"><title>2023-09-23 1.0km</title><desc>9901004991</desc></polyline><polyline fill="none" points="64.7562966607511,203.14285714295693 64.14192061452195,204.28572739474475 63.5275445682928,206.28574790875427 62.12325646262616,209.2381534994347 60.71896835695952,211.23816636623815 59.490216264501214,214.57151428167708 59.40244825743139,216.3810424146941 59.57798427110538,217.42866281035822 61.333344403188676,221.61913591902703 61.59664842300117,222.85722765221726 61.94772044941783,223.52389194141142 63.176472541410476,225.04769474291243 64.14192061452195,226.95244572346564 64.93183267395943,228.95243123918772 66.2483527730219,230.8571764783701 67.74040888529271,234.0" stroke="#4dd2ff" stroke-linecap="round" stroke-linejoin="round" stroke-width="0.5"><title>2023-09-22 1.0km</title><desc>9895405405</desc></polyline><polyline fill="none" points="101.63574535259977,203.1428571428405 101.38409222150221,204.0531083547976 100.8807859593071,204.59925876080524 99.7902890574187,206.60180818743538 99.37086717225611,208.0582057358697 98.11260151630268,211.24406939954497 96.77045148331672,213.97480315703433 95.93160771252587,215.97733741777483 95.67995458142832,216.9786033332348 95.67995458142832,217.61577213054989 95.93160771252587,218.52601270074956 96.43491397472098,219.43625260179397 97.52541087707505,222.2579920415301 98.61590777849779,224.2605129033327 99.20309841772541,225.71688967756927 100.29359531961381,227.53735823614988 100.96467033587396,228.35656821436714 101.46797659853473,229.81294017005712 102.81012663152069,232.1795409442857 104.32004541857168,234.0" stroke="#4dd2ff" stroke-linecap="round" stroke-linejoin="round" stroke-width="0.5"><title>2023-09-21 1.0km</title><desc>9889267953</desc></polyline><polyline fill="none" points="139.5702122496441,203.1428571428405 138.46901855967008,206.44651685946155 137.82125756586902,209.04726222116733 136.78483997518197,211.22625964414328 135.55409408640116,214.88134094164707 133.41648280597292,218.88785630866187 132.83349791145884,221.06683130090823 132.89827401051298,221.55885722464882 133.28693060716614,222.61319763713982 134.12901989975944,224.440718264319 134.64722869475372,225.98707914323313 135.94275068305433,227.81459332065424 136.720063875895,229.2906599138514 137.1734965716023,230.34499179926934 137.6917053668294,231.25874515942996 138.5337946594227,231.89134312799433 139.5702122496441,233.43769195559435 139.6349883491639,233.7188460191246 140.02364494581707,234.0" stroke="#4dd2ff" stroke-linecap="round" stroke-linejoin="round" stroke-width="0.5"><title>2023-09-20 1.0km</title><desc>9882714971</desc></polyline><polyline fill="none" points="175.41571947466582,203.1428571428405 174.75779977301136,204.80868944892427 173.51506255893037,208.45764646370662 173.44196036970243,209.64752108266111 173.00334723526612,210.28212034283206 172.49163191206753,211.4719929494313 172.19922315562144,212.58253953163512 171.61440564272925,214.08970806439174 169.93305529421195,216.7867412365158 169.49444215977564,218.37322818813846 169.34823778178543,219.80106445000274 169.49444215977564,221.22889882192248 169.93305529421195,222.8153792413068 170.44477061741054,223.92591414687922 172.05301877716556,226.70224640943343 172.8571428572759,227.81277731392765 173.58816474769264,229.79586537188152 174.31918663857505,231.06503981596325 175.0502085289918,232.096242952568 175.85433260910213,232.88947546394775 176.36604793276638,234.0" stroke="#4dd2ff" stroke-linecap="round" stroke-linejoin="round" stroke-width="0.5"><title>2023-09-19 1.0km</title><desc>9876194288</desc></polyline><polyline fill="none" points="26.915725637692958,237.42857142852154 26.370610025245696,238.31584743317217 25.46208400465548,240.09039768134244 25.18952619843185,241.27342987491284 23.55417936015874,244.13242003368214 22.28224293095991,246.79423297732137 22.009685124270618,247.78008828219026 22.100537726655602,248.86452827986795 22.645653339568526,250.24472337274347 23.46332675823942,251.72350225248374 24.190147574990988,253.79378994414583 25.18952619843185,255.9626593356952 26.279757423326373,257.93435573822353 27.279136046767235,259.21595684520435 28.46021987358108,261.18764846387785 29.18704069033265,263.45509024115745 30.458977119997144,265.4267756266054 31.09494533482939,267.20128999464214 32.2760291621089,268.285714285681" stroke="#4dd2ff" stroke-linecap="round" stroke-linejoin="round" stroke-width="0.5"><title>2023-09-18 1.0km</title><desc>9870505463</desc></polyline><polyline fill="none" points="63.881487544626,237.42857142863795 63.43854615371674,238.29373489017598 62.818428207188845,241.17760896042455 62.02113370411098,242.52341468294617 61.66678059147671,243.58083249279298 59.71783847268671,246.7530807913281 59.00913224788383,248.48339480091818 58.56619085744023,250.02144977555145 58.92054396960884,251.07886152120773 60.869486088398844,255.30849995126482 61.843957147561014,256.8465468970826 62.552663372363895,258.4807197942864 63.70431098807603,260.01876300841104 64.32442893553525,261.07616666844115 65.12172343814746,263.5754810110666 68.57666628528386,268.285714285681" stroke="#4dd2ff" stroke-linecap="round" stroke-linejoin="round" stroke-width="0.5"><title>2023-09-16 1.0km</title><desc>9856514700</desc></polyline><polyline fill="none" points="99.57344695506617,237.42857142852154 98.62555129872635,240.3086002273485 97.39328694576398,242.26290210685693 94.83396867383271,247.20007364090998 94.73917910829186,248.33150633017067 94.83396867383271,249.66865287383553 95.40270606800914,251.00579813949298 96.3506017238833,252.44579930382315 97.20370781421661,254.40008422755636 98.7203408642672,256.97150759922806 100.61613217694685,260.57149237941485 100.80571130802855,261.90862722403836 101.46923826728016,262.4229095162591 102.22755479253829,263.45147353352513 103.459819145035,265.50859929958824 104.78687306353822,266.6400171816349 105.07124176062644,267.36000990273897 105.2608208921738,268.285714285681" stroke="#4dd2ff" stroke-linecap="round" stroke-linejoin="round" stroke-width="0.5"><title>2023-09-15 1.0km</title><desc>9850671982</desc></polyline><polyline fill="none" points="137.21303581865504,237.42857142863795 135.64410703862086,241.57836341531947 133.8790621603839,244.1320756461937 133.09459777036682,245.5153345563449 131.91790118534118,248.49465694918763 131.62372703896835,249.55869917443488 131.62372703896835,250.4099323907867 131.91790118534118,251.4739732077578 133.09459777036682,254.66609096468892 134.17323630675673,256.7941655574832 136.8208036236465,261.3695153357694 137.89944216003641,263.3911769090919 138.09555825730786,264.5616112659918 138.8800226477906,265.3064326364547 140.15477728191763,267.32808871008456 141.23341581830755,268.285714285681" stroke="#4dd2ff" stroke-linecap="round" stroke-linejoin="round" stroke-width="0.5"><title>2023-09-14 1.0km</title><desc>9844236351</desc></polyline><polyline fill="none" points="167.95299443183467,237.42857142863795 168.51750072534196,237.88798968982883 168.7291905854363,238.34740774834063 168.87031715898775,239.34281284629833 169.2936968789436,240.18507795553887 169.57595002581365,242.55873050674563 169.57595002581365,243.7072701213765 169.43482345249504,244.3198240644997 169.57595002581365,245.0855159869534 169.9287664592266,246.0043455506675 169.787639885908,246.77003623446217 169.85820317268372,247.15288136521121 170.56383603950962,248.45455375715392 171.19890561979264,250.36877490743063 171.76341191329993,251.44073721469613 172.46904478035867,252.4361297976575 173.24524093372747,253.12524718226632 173.4569307938218,253.58465851878282 173.66862065391615,254.5800490527181 174.23312694765627,255.57543863519095 174.86819652770646,257.4130784418667 175.71495596785098,259.0210106129525 176.13833568803966,260.3992362122517 176.350025548134,261.54775615158724 176.7734052685555,262.4665711914422 177.5496014219243,264.9933083707583 178.60805072262883,266.9840666796663 178.67861400940455,267.2903368509142 178.60805072262883,267.5200394203421 177.76129128201865,268.28571428573923 178.18467100220732,267.97944440710125 178.3963608625345,267.5200394203421 178.53748743562028,267.1372017766116 178.46692414931022,266.6012288388447 178.04354442912154,266.06525562517345 176.7734052685555,263.30881759885233 176.13833568803966,261.2414842916187 174.79763324116357,258.2553289362113 174.16256366088055,255.34573343140073 173.8097472274676,254.5034805839532 172.46904478035867,252.74240424711024 171.12834233301692,250.21563734480878 170.4932727527339,248.14827804663219 170.28158289310522,246.77003623446217 169.71707659913227,245.31522345391568 168.58806401235051,242.86500786116812 168.30581086524762,241.716467317543 167.31792485155165,239.87879981281003 167.1062349914573,238.88339522707975 167.03567170491442,237.65828058455372" stroke="#4dd2ff" stroke-linecap="round" stroke-linejoin="round" stroke-width="0.5"><title>2023-09-13 1.0km</title><desc>9837636972</desc></polyline></svg>