<svg xmlns="http://www.w3.org/2000/svg" xmlns:ev="http://www.w3.org/2001/xml-events" xmlns:xlink="http://www.w3.org/1999/xlink" width="200mm" height="300mm" baseProfile="full" version="1.1" viewBox="0 0 200 300"><rect width="200" height="300" x="0" y="0" fill="#222"/><text fill="#FFF" style="font-size:12px;font-family:Arial;font-weight:700" x="10" y="20">Over 1km Runs</text><text fill="#FFF" style="font-size:4px;font-family:Arial" x="10" y="280">ATHLETE</text><text fill="#FFF" style="font-size:9px;font-family:Arial" x="10" y="290">Jiakai</text><text fill="#FFF" style="font-size:4px;font-family:Arial" x="120" y="280">STATISTICS</text><text fill="#FFF" style="font-size:3px;font-family:Arial" x="120" y="285">Number: 16</text><text fill="#FFF" style="font-size:3px;font-family:Arial" x="120" y="290">Weekly: 5.3</text><text fill="#FFF" style="font-size:3px;font-family:Arial" x="141" y="285">Total: 16.3 km</text><text fill="#FFF" style="font-size:3px;font-family:Arial" x="141" y="290">Avg: 1.0 km</text><text fill="#FFF" style="font-size:3px;font-family:Arial" x="167" y="285">Min: 1.0 km</text><text fill="#FFF" style="font-size:3px;font-family:Arial" x="167" y="290">Max: 1.0 km</text><polyline fill="none" stroke="#4dd2ff" stroke-linecap="round" stroke-linejoin="round" stroke-width=".5" points="26.685 38.12 29.119 43.109 30.201 48.098 31.012 52.794 35.069 64.239 38.585 71.576 40.208 72.75 40.749 71.87 35.34 63.652 32.906 58.076 32.094 55.141 28.308 46.924 26.144 37.826 24.251 32.25"><title>2023-09-30 1.0km</title><desc>9945549317</desc></polyline><polyline fill="none" stroke="#4dd2ff" stroke-linecap="round" stroke-linejoin="round" stroke-width=".5" points="71.23 32.25 73.917 36.786 74.813 40.35 77.201 46.182 78.396 54.93 79.292 57.522 82.875 66.27 83.77 71.778 84.368 72.426 85.263 72.75 85.562 72.102 80.187 62.382 76.604 53.958 75.41 49.098 71.23 39.378 69.438 33.546"><title>2023-09-28 1.0km</title><desc>9933629332</desc></polyline><polyline fill="none" stroke="#4dd2ff" stroke-linecap="round" stroke-linejoin="round" stroke-width=".5" points="114.583 36.852 116.845 44.83 121.086 50.659 123.914 61.091 127.872 68.148 129.003 72.136 130.134 72.75 130.7 71.83 130.134 70.602 127.872 67.534 121.369 54.341 117.976 45.136 114.3 32.25"><title>2023-09-27 1.0km</title><desc>9927137811</desc></polyline><polyline fill="none" stroke="#4dd2ff" stroke-linecap="round" stroke-linejoin="round" stroke-width=".5" points="170.864 32.25 170.057 36.144 169.25 38.383 168.621 41.109 164.943 48.801 163.059 52.013 162.7 53.376 162.879 54.447 163.328 56.005 164.674 59.315 165.122 60.191 165.661 61.749 167.455 63.988 168.263 65.74 169.16 67.103 169.878 69.051 170.954 70.511 172.3 72.75"><title>2023-09-26 1.0km</title><desc>9920397094</desc></polyline><polyline fill="none" stroke="#4dd2ff" stroke-linecap="round" stroke-linejoin="round" stroke-width=".5" points="32.311 97.25 30.546 103.134 28.78 106.28 27.141 108.333 26.258 109.975 25.88 111.617 26.006 113.669 26.637 115.311 28.15 117.637 28.78 119.963 30.041 122.973 32.437 125.983 36.472 134.193 39.12 137.75"><title>2023-09-25 1.0km</title><desc>9914573673</desc></polyline><polyline fill="none" stroke="#4dd2ff" stroke-linecap="round" stroke-linejoin="round" stroke-width=".5" points="80.486 97.25 79.491 98.762 79.292 99.518 79.491 100.49 79.59 101.462 77.6 105.134 77.102 107.618 76.405 109.454 72.225 116.798 72.125 117.662 72.524 119.39 73.618 121.118 74.216 122.63 75.111 124.142 75.609 125.654 76.903 127.706 77.898 129.758 78.993 130.946 79.292 132.026 79.988 132.89 81.481 135.482 82.576 136.67 82.875 137.75"><title>2023-09-24 1.0km</title><desc>9907510217</desc></polyline><polyline fill="none" stroke="#4dd2ff" stroke-linecap="round" stroke-linejoin="round" stroke-width=".5" points="124.01 97.25 123.164 98.561 122.56 99.871 122.198 101.575 122.077 103.803 120.024 106.556 118.816 109.702 117.729 111.274 117.004 113.371 116.883 115.6 119.42 122.022 120.386 123.988 123.527 128.969 124.855 132.245 126.546 134.342 127.513 136.046 128.117 137.75"><title>2023-09-23 1.0km</title><desc>9901004991</desc></polyline><polyline fill="none" stroke="#4dd2ff" stroke-linecap="round" stroke-linejoin="round" stroke-width=".5" points="169.055 97.25 168.249 98.75 167.442 101.375 165.599 105.25 163.756 107.875 162.143 112.25 162.028 114.625 162.259 116 164.563 121.5 164.908 123.125 165.369 124 166.982 126 168.249 128.5 169.286 131.125 171.013 133.625 172.972 137.75"><title>2023-09-22 1.0km</title><desc>9895405405</desc></polyline><polyline fill="none" stroke="#4dd2ff" stroke-linecap="round" stroke-linejoin="round" stroke-width=".5" points="34.647 162.25 34.317 163.445 33.656 164.162 32.225 166.79 31.674 168.701 30.023 172.883 28.261 176.467 27.16 179.095 26.83 180.409 26.83 181.246 27.16 182.44 27.821 183.635 29.252 187.339 30.683 189.967 31.454 191.878 32.885 194.268 33.766 195.343 34.427 197.254 36.188 200.361 38.17 202.75"><title>2023-09-21 1.0km</title><desc>9889267953</desc></polyline><polyline fill="none" stroke="#4dd2ff" stroke-linecap="round" stroke-linejoin="round" stroke-width=".5" points="81.623 162.25 80.178 166.586 79.328 170 77.968 172.859 76.352 177.657 73.547 182.915 72.781 185.775 72.866 186.421 73.377 187.805 74.482 190.203 75.162 192.233 76.862 194.632 77.883 196.569 78.478 197.953 79.158 199.152 80.263 199.982 81.623 202.012 81.708 202.381 82.219 202.75"><title>2023-09-20 1.0km</title><desc>9882714971</desc></polyline><polyline fill="none" stroke="#4dd2ff" stroke-linecap="round" stroke-linejoin="round" stroke-width=".5" points="125.858 162.25 124.995 164.436 123.364 169.226 123.268 170.787 122.692 171.62 122.02 173.182 121.636 174.64 120.869 176.618 118.662 180.158 118.086 182.24 117.895 184.114 118.086 185.988 118.662 188.07 119.334 189.528 121.445 193.172 122.5 194.629 123.459 197.232 124.419 198.898 125.378 200.251 126.434 201.292 127.105 202.75"><title>2023-09-19 1.0km</title><desc>9876194288</desc></polyline><polyline fill="none" stroke="#4dd2ff" stroke-linecap="round" stroke-linejoin="round" stroke-width=".5" points="167.202 162.25 166.486 163.415 165.294 165.744 164.936 167.296 162.79 171.049 161.12 174.542 160.763 175.836 160.882 177.26 161.597 179.071 162.671 181.012 163.625 183.729 164.936 186.576 166.367 189.164 167.679 190.846 169.229 193.434 170.183 196.41 171.852 198.998 172.687 201.327 174.237 202.75"><title>2023-09-18 1.0km</title><desc>9870505463</desc></polyline><polyline fill="none" stroke="#4dd2ff" stroke-linecap="round" stroke-linejoin="round" stroke-width=".5" points="32.907 227.25 32.326 228.386 31.512 232.171 30.465 233.937 30 235.325 27.442 239.488 26.512 241.759 25.931 243.778 26.396 245.166 28.954 250.717 30.233 252.736 31.163 254.881 32.674 256.9 33.488 258.287 34.535 261.568 39.069 267.75"><title>2023-09-16 1.0km</title><desc>9856514700</desc></polyline><polyline fill="none" stroke="#4dd2ff" stroke-linecap="round" stroke-linejoin="round" stroke-width=".5" points="76.94 227.25 75.696 231.03 74.079 233.595 70.72 240.075 70.595 241.56 70.72 243.315 71.466 245.07 72.71 246.96 73.83 249.525 75.82 252.9 78.309 257.625 78.557 259.38 79.428 260.055 80.424 261.405 82.041 264.105 83.783 265.59 84.156 266.535 84.405 267.75"><title>2023-09-15 1.0km</title><desc>9850671982</desc></polyline><polyline fill="none" stroke="#4dd2ff" stroke-linecap="round" stroke-linejoin="round" stroke-width=".5" points="123.53 227.25 121.47 232.697 119.154 236.048 118.124 237.864 116.58 241.774 116.194 243.171 116.194 244.288 116.58 245.685 118.124 249.874 119.54 252.667 123.015 258.672 124.431 261.326 124.688 262.862 125.718 263.84 127.391 266.493 128.806 267.75"><title>2023-09-14 1.0km</title><desc>9844236351</desc></polyline><polyline fill="none" stroke="#4dd2ff" stroke-linecap="round" stroke-linejoin="round" stroke-width=".5" points="161.063 227.25 161.804 227.853 162.082 228.456 162.267 229.762 162.823 230.868 163.193 233.983 163.193 235.491 163.008 236.295 163.193 237.3 163.657 238.506 163.471 239.511 163.564 240.013 164.49 241.722 165.324 244.234 166.064 245.641 166.991 246.947 168.009 247.852 168.287 248.455 168.565 249.761 169.306 251.068 170.14 253.48 171.251 255.59 171.807 257.399 172.084 258.906 172.64 260.112 173.659 263.429 175.048 266.042 175.141 266.444 175.048 266.745 173.937 267.75 174.492 267.348 174.77 266.745 174.955 266.243 174.863 265.539 174.307 264.836 172.64 261.218 171.807 258.504 170.047 254.585 169.213 250.766 168.75 249.661 166.991 247.349 165.231 244.033 164.397 241.32 164.12 239.511 163.379 237.601 161.897 234.385 161.526 232.878 160.23 230.466 159.952 229.159 159.859 227.551"><title>2023-09-13 1.0km</title><desc>9837636972</desc></polyline></svg>