<svg xmlns="http://www.w3.org/2000/svg" xmlns:ev="http://www.w3.org/2001/xml-events" xmlns:xlink="http://www.w3.org/1999/xlink" width="200mm" height="300mm" baseProfile="full" version="1.1" viewBox="0 0 200 300"><rect width="200" height="300" x="0" y="0" fill="#222"/><text fill="#FFF" style="font-size:12px;font-family:Arial;font-weight:700" x="10" y="20">Over 1km Runs</text><text fill="#FFF" style="font-size:4px;font-family:Arial" x="10" y="280">ATHLETE</text><text fill="#FFF" style="font-size:9px;font-family:Arial" x="10" y="290">Jiakai</text><text fill="#FFF" style="font-size:4px;font-family:Arial" x="120" y="280">STATISTICS</text><text fill="#FFF" style="font-size:3px;font-family:Arial" x="120" y="285">Number: 34</text><text fill="#FFF" style="font-size:3px;font-family:Arial" x="120" y="290">Weekly: 5.7</text><text fill="#FFF" style="font-size:3px;font-family:Arial" x="141" y="285">Total: 35.2 km</text><text fill="#FFF" style="font-size:3px;font-family:Arial" x="141" y="290">Avg: 1.0 km</text><text fill="#FFF" style="font-size:3px;font-family:Arial" x="167" y="285">Min: 1.0 km</text><text fill="#FFF" style="font-size:3px;font-family:Arial" x="167" y="290">Max: 1.4 km</text><polyline fill="none" stroke="#4dd2ff" stroke-linecap="round" stroke-linejoin="round" stroke-width=".5" points="22.235 31.714 23.318 32.497 21.369 32.184 24.4 36.1 24.689 37.04 24.472 37.823 23.462 38.371 23.173 38.92 23.245 39.859 23.823 42.131 24.472 43.775 25.194 46.281 26.493 48.553 26.71 49.414 27.504 50.824 28.009 51.45 28.081 51.842 28.586 52.312 28.947 53.095 29.452 54.583 29.958 55.601 29.886 57.637 30.824 59.439 31.112 60.3 31.618 61.24 32.484 62.336 32.917 62.571 31.257 60.222 30.896 58.969 30.174 57.403 29.886 56.384 28.947 55.053 28.153 52.782"><title>2023-10-20 1.4km</title><desc>10069668027</desc></polyline><polyline fill="none" stroke="#4dd2ff" stroke-linecap="round" stroke-linejoin="round" stroke-width=".5" points="57.362 31.714 57.509 32.91 58.685 35.781 58.979 37.535 61.404 43.435 61.624 44.233 61.771 45.429 62.065 46.226 63.829 48.698 64.784 50.611 65.372 52.525 65.886 53.562 66.18 55.156 66.547 55.954 67.503 58.425 67.65 59.382 69.046 62.252 69.413 62.571 69.634 62.571 69.781 62.492 69.707 62.412 68.237 60.578 67.576 58.346 66.18 55.794 65.96 54.758 65.813 53.003"><title>2023-10-19 1.3km</title><desc>10064004415</desc></polyline><polyline fill="none" stroke="#4dd2ff" stroke-linecap="round" stroke-linejoin="round" stroke-width=".5" points="93.042 31.714 96.067 35.654 95.866 38.499 96.269 41.343 97.681 46.377 99.697 49.66 101.714 55.35 105.748 61.915 106.353 62.571 106.958 62.353 104.336 59.726 99.496 50.316 98.286 46.158 94.857 38.936"><title>2023-10-18 1.0km</title><desc>10058081424</desc></polyline><polyline fill="none" stroke="#4dd2ff" stroke-linecap="round" stroke-linejoin="round" stroke-width=".5" points="131.043 33.584 132.766 43.636 137.29 55.558 140.306 61.87 141.599 62.571 142.245 62.571 142.676 61.636 141.168 59.766 139.229 56.727 136.644 51.117 135.567 47.844 131.043 38.727 130.612 37.325 130.181 31.714"><title>2023-10-17 1.0km</title><desc>10051702317</desc></polyline><polyline fill="none" stroke="#4dd2ff" stroke-linecap="round" stroke-linejoin="round" stroke-width=".5" points="165.967 32.426 168.154 36.224 171.435 44.769 173.185 48.092 175.154 54.264 177.56 60.435 178.435 62.097 179.529 62.571 179.748 62.334 179.529 61.622 177.123 58.062 173.842 49.991 171.435 45.007 169.467 35.749 168.373 31.714"><title>2023-10-16 1.0km</title><desc>10046279660</desc></polyline><polyline fill="none" stroke="#4dd2ff" stroke-linecap="round" stroke-linejoin="round" stroke-width=".5" points="20.823 66 21.726 67.959 22.629 72.367 24.66 79.225 27.369 83.388 30.528 95.143 31.657 96.367 33.237 96.857 33.462 96.367 33.237 94.898 30.303 90.735 28.723 85.837 26.917 82.898 22.629 72.857 21.049 66"><title>2023-10-15 1.0km</title><desc>10039610121</desc></polyline><polyline fill="none" stroke="#4dd2ff" stroke-linecap="round" stroke-linejoin="round" stroke-width=".5" points="57.15 68.24 57.838 75.456 59.673 80.682 61.966 83.917 63.342 88.396 67.241 95.364 68.158 96.359 69.305 96.857 69.993 96.359 69.993 95.613 65.406 91.88 62.425 86.406 61.278 81.677 58.526 75.456 57.15 70.23 57.379 66.995 57.15 66"><title>2023-10-14 1.0km</title><desc>10033377496</desc></polyline><polyline fill="none" stroke="#4dd2ff" stroke-linecap="round" stroke-linejoin="round" stroke-width=".5" points="93.004 66.49 97.066 71.388 97.517 75.061 101.354 86.816 104.965 95.388 106.094 96.857 106.996 96.857 106.996 96.122 106.771 95.388 104.74 93.918 102.483 89.755 100 81.918 95.486 71.878 94.809 68.449 93.681 66"><title>2023-10-13 1.0km</title><desc>10028006924</desc></polyline><polyline fill="none" stroke="#4dd2ff" stroke-linecap="round" stroke-linejoin="round" stroke-width=".5" points="129.808 66 131.978 68.827 133.281 71.182 133.498 74.244 133.281 77.542 135.669 82.489 138.491 90.026 141.313 95.208 141.964 96.15 143.049 96.857 143.049 95.679 140.662 92.617 138.491 88.848 135.669 81.075 133.932 78.013 133.064 75.422"><title>2023-10-12 1.0km</title><desc>10021974100</desc></polyline><polyline fill="none" stroke="#4dd2ff" stroke-linecap="round" stroke-linejoin="round" stroke-width=".5" points="169.249 70.375 170.098 74.981 169.886 76.823 171.796 83.041 173.282 85.804 174.767 90.87 176.889 95.936 177.314 96.397 178.375 96.857 178.163 95.936 175.828 89.949 173.282 85.574 169.886 77.744 169.037 74.751 168.613 70.375 167.339 66"><title>2023-10-10 1.0km</title><desc>10009069592</desc></polyline><polyline fill="none" stroke="#4dd2ff" stroke-linecap="round" stroke-linejoin="round" stroke-width=".5" points="21.915 104.143 23.379 108.227 24.843 113.672 27.979 120.479 30.488 129.101 31.952 131.143 32.37 130.462 32.579 127.966 31.116 123.655 27.979 118.21 24.425 108.227 23.379 103.689 21.706 100.286"><title>2023-10-09 1.0km</title><desc>10003389142</desc></polyline><polyline fill="none" stroke="#4dd2ff" stroke-linecap="round" stroke-linejoin="round" stroke-width=".5" points="57.289 100.286 58.832 102.199 60.375 105.787 61.257 112.963 64.563 120.14 67.429 128.272 68.752 130.664 69.854 131.143 69.854 129.229 65.666 122.532 60.155 109.136 57.95 100.525"><title>2023-10-08 1.0km</title><desc>9996447828</desc></polyline><polyline fill="none" stroke="#4dd2ff" stroke-linecap="round" stroke-linejoin="round" stroke-width=".5" points="96.039 106.457 97.055 110.204 100.102 118.359 101.117 121.886 104.367 130.041 105.383 131.143 105.586 130.261 105.586 129.38 101.727 122.547 99.898 118.58 96.648 108.882 95.633 103.812 94.414 100.286"><title>2023-10-07 1.0km</title><desc>9989974159</desc></polyline><polyline fill="none" stroke="#4dd2ff" stroke-linecap="round" stroke-linejoin="round" stroke-width=".5" points="133.908 109.477 135.521 114.73 136.731 117.356 139.151 127.641 139.756 129.611 140.966 131.143 141.975 131.143 142.378 130.267 142.177 129.611 139.756 126.109 137.336 120.857 136.529 117.356 132.294 107.07 131.689 103.35 130.479 100.286"><title>2023-10-06 1.0km</title><desc>9984428862</desc></polyline><polyline fill="none" stroke="#4dd2ff" stroke-linecap="round" stroke-linejoin="round" stroke-width=".5" points="166.214 100.286 169.71 109.644 172.041 117.485 176.004 127.349 177.636 130.637 178.335 131.143 179.267 131.143 179.5 130.637 178.801 129.372 176.004 125.326 174.372 122.037 171.575 114.703 170.41 110.909 167.146 104.838 167.146 102.562"><title>2023-10-04 1.0km</title><desc>9971682885</desc></polyline><polyline fill="none" stroke="#4dd2ff" stroke-linecap="round" stroke-linejoin="round" stroke-width=".5" points="22.473 138.175 23.51 141.779 24.548 144.257 25.379 148.086 29.322 155.969 29.53 158.672 30.775 164.077 31.19 164.753 32.436 165.429 32.436 163.176 29.737 158.221 27.869 153.942 26.832 151.915 25.794 148.986 23.718 144.707 22.888 141.328 22.473 137.95 21.85 134.571"><title>2023-10-03 1.0km</title><desc>9965060084</desc></polyline><polyline fill="none" stroke="#4dd2ff" stroke-linecap="round" stroke-linejoin="round" stroke-width=".5" points="57.931 135.847 60.751 145.027 61.221 149.107 62.866 151.148 64.041 154.208 66.157 162.113 67.802 164.664 68.977 165.429 69.212 165.174 68.507 163.133 65.922 158.288 61.691 148.087 59.106 140.437 58.636 134.571"><title>2023-10-02 1.0km</title><desc>9958643020</desc></polyline><polyline fill="none" stroke="#4dd2ff" stroke-linecap="round" stroke-linejoin="round" stroke-width=".5" points="95.109 140.002 95.564 142.224 100.569 154.073 103.071 161.726 104.436 164.441 105.801 165.429 106.029 165.182 105.801 164.194 101.251 157.282 96.929 146.667 94.881 140.249 93.971 134.571"><title>2023-10-01 1.0km</title><desc>9952075403</desc></polyline><polyline fill="none" stroke="#4dd2ff" stroke-linecap="round" stroke-linejoin="round" stroke-width=".5" points="131.998 139.043 133.853 142.845 134.677 146.646 135.295 150.224 138.386 158.944 141.065 164.534 142.301 165.429 142.714 164.758 138.592 158.497 136.738 154.248 136.119 152.012 133.235 145.752 131.586 138.82 130.144 134.571"><title>2023-09-30 1.0km</title><desc>9945549317</desc></polyline><polyline fill="none" stroke="#4dd2ff" stroke-linecap="round" stroke-linejoin="round" stroke-width=".5" points="168.08 134.571 170.127 138.027 170.81 140.743 172.63 145.186 173.54 151.851 174.222 153.826 176.952 160.491 177.635 164.688 178.09 165.182 178.772 165.429 179 164.935 174.905 157.529 172.175 151.111 171.265 147.408 168.08 140.002 166.715 135.559"><title>2023-09-28 1.0km</title><desc>9933629332</desc></polyline><polyline fill="none" stroke="#4dd2ff" stroke-linecap="round" stroke-linejoin="round" stroke-width=".5" points="21.111 172.364 22.834 178.442 26.066 182.883 28.22 190.831 31.236 196.208 32.098 199.247 32.96 199.714 33.39 199.013 32.96 198.078 31.236 195.74 26.281 185.688 23.696 178.675 20.895 168.857"><title>2023-09-27 1.0km</title><desc>9927137811</desc></polyline><polyline fill="none" stroke="#4dd2ff" stroke-linecap="round" stroke-linejoin="round" stroke-width=".5" points="66.135 168.857 65.52 171.824 64.904 173.53 64.426 175.607 61.623 181.467 60.188 183.915 59.914 184.953 60.051 185.769 60.393 186.956 61.418 189.478 61.76 190.146 62.17 191.333 63.537 193.039 64.152 194.374 64.836 195.412 65.383 196.896 66.203 198.008 67.229 199.714"><title>2023-09-26 1.0km</title><desc>9920397094</desc></polyline><polyline fill="none" stroke="#4dd2ff" stroke-linecap="round" stroke-linejoin="round" stroke-width=".5" points="99.856 168.857 98.511 173.34 97.166 175.738 95.917 177.301 95.245 178.552 94.956 179.803 95.052 181.367 95.533 182.618 96.686 184.39 97.166 186.162 98.127 188.456 99.952 190.749 103.026 197.004 105.044 199.714"><title>2023-09-25 1.0km</title><desc>9914573673</desc></polyline><polyline fill="none" stroke="#4dd2ff" stroke-linecap="round" stroke-linejoin="round" stroke-width=".5" points="138.704 168.857 137.945 170.009 137.794 170.585 137.945 171.326 138.021 172.066 136.504 174.864 136.125 176.757 135.594 178.156 132.41 183.751 132.334 184.409 132.637 185.726 133.471 187.042 133.926 188.194 134.609 189.346 134.988 190.498 135.974 192.062 136.732 193.625 137.566 194.53 137.794 195.353 138.324 196.011 139.462 197.986 140.296 198.891 140.523 199.714"><title>2023-09-24 1.0km</title><desc>9907510217</desc></polyline><polyline fill="none" stroke="#4dd2ff" stroke-linecap="round" stroke-linejoin="round" stroke-width=".5" points="174.007 168.857 173.363 169.856 172.903 170.854 172.627 172.153 172.535 173.85 170.971 175.947 170.05 178.344 169.222 179.542 168.67 181.14 168.578 182.838 170.51 187.731 171.247 189.229 173.639 193.024 174.652 195.52 175.94 197.118 176.676 198.416 177.136 199.714"><title>2023-09-23 1.0km</title><desc>9901004991</desc></polyline><polyline fill="none" stroke="#4dd2ff" stroke-linecap="round" stroke-linejoin="round" stroke-width=".5" points="28.328 203.143 27.713 204.286 27.099 206.286 25.695 209.238 24.29 211.238 23.062 214.572 22.974 216.381 23.149 217.429 24.905 221.619 25.168 222.857 25.519 223.524 26.748 225.048 27.713 226.952 28.503 228.952 29.82 230.857 31.312 234"><title>2023-09-22 1.0km</title><desc>9895405405</desc></polyline><polyline fill="none" stroke="#4dd2ff" stroke-linecap="round" stroke-linejoin="round" stroke-width=".5" points="65.207 203.143 64.956 204.053 64.452 204.599 63.362 206.602 62.942 208.058 61.684 211.244 60.342 213.975 59.503 215.977 59.251 216.979 59.251 217.616 59.503 218.526 60.006 219.436 61.097 222.258 62.187 224.261 62.775 225.717 63.865 227.537 64.536 228.357 65.039 229.813 66.382 232.18 67.891 234"><title>2023-09-21 1.0km</title><desc>9889267953</desc></polyline><polyline fill="none" stroke="#4dd2ff" stroke-linecap="round" stroke-linejoin="round" stroke-width=".5" points="103.142 203.143 102.04 206.447 101.393 209.047 100.356 211.226 99.126 214.881 96.988 218.888 96.405 221.067 96.47 221.559 96.858 222.613 97.7 224.441 98.219 225.987 99.514 227.815 100.291 229.291 100.745 230.345 101.263 231.259 102.105 231.891 103.142 233.438 103.206 233.719 103.595 234"><title>2023-09-20 1.0km</title><desc>9882714971</desc></polyline><polyline fill="none" stroke="#4dd2ff" stroke-linecap="round" stroke-linejoin="round" stroke-width=".5" points="138.987 203.143 138.329 204.809 137.086 208.458 137.013 209.648 136.575 210.282 136.063 211.472 135.771 212.583 135.186 214.09 133.504 216.787 133.066 218.373 132.92 219.801 133.066 221.229 133.504 222.815 134.016 223.926 135.624 226.702 136.429 227.813 137.16 229.796 137.891 231.065 138.622 232.096 139.426 232.889 139.937 234"><title>2023-09-19 1.0km</title><desc>9876194288</desc></polyline><polyline fill="none" stroke="#4dd2ff" stroke-linecap="round" stroke-linejoin="round" stroke-width=".5" points="172.63 203.143 172.085 204.03 171.176 205.805 170.904 206.988 169.268 209.847 167.997 212.509 167.724 213.494 167.815 214.579 168.36 215.959 169.178 217.438 169.904 219.508 170.904 221.677 171.994 223.649 172.993 224.93 174.175 226.902 174.901 229.169 176.173 231.141 176.809 232.916 177.99 234"><title>2023-09-18 1.0km</title><desc>9870505463</desc></polyline><polyline fill="none" stroke="#4dd2ff" stroke-linecap="round" stroke-linejoin="round" stroke-width=".5" points="27.453 237.429 27.01 238.294 26.39 241.178 25.593 242.523 25.238 243.581 23.289 246.753 22.581 248.483 22.138 250.021 22.492 251.079 24.441 255.308 25.415 256.847 26.124 258.481 27.276 260.019 27.896 261.076 28.693 263.575 32.148 268.286"><title>2023-09-16 1.0km</title><desc>9856514700</desc></polyline><polyline fill="none" stroke="#4dd2ff" stroke-linecap="round" stroke-linejoin="round" stroke-width=".5" points="63.145 237.429 62.197 240.309 60.965 242.263 58.405 247.2 58.311 248.332 58.405 249.669 58.974 251.006 59.922 252.446 60.775 254.4 62.292 256.972 64.188 260.571 64.377 261.909 65.041 262.423 65.799 263.451 67.031 265.509 68.358 266.64 68.643 267.36 68.832 268.286"><title>2023-09-15 1.0km</title><desc>9850671982</desc></polyline><polyline fill="none" stroke="#4dd2ff" stroke-linecap="round" stroke-linejoin="round" stroke-width=".5" points="100.784 237.429 99.216 241.578 97.45 244.132 96.666 245.515 95.489 248.495 95.195 249.559 95.195 250.41 95.489 251.474 96.666 254.666 97.745 256.794 100.392 261.37 101.471 263.391 101.667 264.562 102.451 265.306 103.726 267.328 104.805 268.286"><title>2023-09-14 1.0km</title><desc>9844236351</desc></polyline><polyline fill="none" stroke="#4dd2ff" stroke-linecap="round" stroke-linejoin="round" stroke-width=".5" points="131.524 237.429 132.089 237.888 132.301 238.347 132.442 239.343 132.865 240.185 133.147 242.559 133.147 243.707 133.006 244.32 133.147 245.086 133.5 246.004 133.359 246.77 133.43 247.153 134.135 248.455 134.77 250.369 135.335 251.441 136.04 252.436 136.817 253.125 137.028 253.585 137.24 254.58 137.805 255.575 138.44 257.413 139.286 259.021 139.71 260.399 139.921 261.548 140.345 262.467 141.121 264.993 142.179 266.984 142.25 267.29 142.179 267.52 141.333 268.286 141.756 267.979 141.968 267.52 142.109 267.137 142.038 266.601 141.615 266.065 140.345 263.309 139.71 261.241 138.369 258.255 137.734 255.346 137.381 254.503 136.04 252.742 134.7 250.216 134.065 248.148 133.853 246.77 133.289 245.315 132.159 242.865 131.877 241.716 130.889 239.879 130.678 238.883 130.607 237.658"><title>2023-09-13 1.0km</title><desc>9837636972</desc></polyline></svg>