<?xml version="1.0" encoding="utf-8" ?>
<svg baseProfile="full" height="300mm" version="1.1" viewBox="0,0,200,300" width="200mm" xmlns="http://www.w3.org/2000/svg" xmlns:ev="http://www.w3.org/2001/xml-events" xmlns:xlink="http://www.w3.org/1999/xlink"><defs /><rect fill="#222222" height="300" width="200" x="0" y="0" /><text fill="#FFFFFF" style="font-size:12px; font-family:Arial; font-weight:bold;" x="10" y="20">Over 1km Runs</text><text fill="#FFFFFF" style="font-size:4px; font-family:Arial" x="10" y="280">ATHLETE</text><text fill="#FFFFFF" style="font-size:9px; font-family:Arial" x="10" y="290">Jiakai</text><text fill="#FFFFFF" style="font-size:4px; font-family:Arial" x="120" y="280">STATISTICS</text><text fill="#FFFFFF" style="font-size:3px; font-family:Arial" x="120" y="285">Number: 24</text><text fill="#FFFFFF" style="font-size:3px; font-family:Arial" x="120" y="290">Weekly: 4.8</text><text fill="#FFFFFF" style="font-size:3px; font-family:Arial" x="141" y="285">Total: 24.4 km</text><text fill="#FFFFFF" style="font-size:3px; font-family:Arial" x="141" y="290">Avg: 1.0 km</text><text fill="#FFFFFF" style="font-size:3px; font-family:Arial" x="167" y="285">Min: 1.0 km</text><text fill="#FFFFFF" style="font-size:3px; font-family:Arial" x="167" y="290">Max: 1.0 km</text><polyline fill="none" points="23.901325466111302,36.5000196848996 25.608954335562885,41.264740279177204 27.316583205014467,47.61769126402214 30.97578792553395,55.55886423145421 33.90315170120448,65.61765818088315 35.61078057065606,68.0 36.0986745338887,67.20588623546064 36.34262151457369,64.29413426644169 34.63499264512211,59.264738955302164 30.97578792553395,52.91180852148682 26.828689242713153,41.264740279177204 25.608954335562885,35.97060589585453 23.657378484494984,32.0" stroke="#4dd2ff" stroke-linecap="round" stroke-linejoin="round" stroke-width="0.5"><title>2023-10-09 1.0km</title><desc>10003389142</desc></polyline><polyline fill="none" points="69.33690950740129,32.0 71.13720074016601,34.23256807005964 72.93749197293073,38.41862966143526 73.96622981876135,46.790738995419815 77.82399674504995,55.16282986407168 81.16739474702626,64.651177193271 82.71050151716918,67.4418630709406 83.9964238256216,68.0 83.9964238256216,65.76745179109275 79.10991905350238,57.95352271711454 72.68030751124024,42.32561631477438 70.10846289247274,32.27907108119689" stroke="#4dd2ff" stroke-linecap="round" stroke-linejoin="round" stroke-width="0.5"><title>2023-10-08 1.0km</title><desc>9996447828</desc></polyline><polyline fill="none" points="118.71228153444827,39.20002964325249 119.89716661162674,43.57146898075007 123.45182184129953,53.08575924136676 124.63670691847801,57.20003890572116 128.42833916284144,66.71429209434427 129.61322424001992,68.0 129.85020125471056,66.97143371356651 129.85020125471056,65.94286712491885 125.34763796441257,57.971465804148465 123.2148448266089,53.342901861760765 119.42321258038282,42.02860866161063 118.23832750320435,36.11430446780287 116.81646541133523,32.0" stroke="#4dd2ff" stroke-linecap="round" stroke-linejoin="round" stroke-width="0.5"><title>2023-10-07 1.0km</title><desc>9989974159</desc></polyline><polyline fill="none" points="167.0587964495644,42.72344327974133 168.9411667212844,48.85111028701067 170.35294442623854,51.91493973671459 173.1764998352155,63.91491238796152 173.88238868676126,66.2127747607883 175.2941663917154,68.0 176.47064781095833,68.0 176.9412403786555,66.97872854722664 176.70594409573823,66.2127747607883 173.88238868676126,62.127685045823455 171.0588332777843,56.000041464110836 170.11764814238995,51.91493973671459 165.1764261778444,39.914925621822476 164.47053732536733,35.57448477204889 163.0587596213445,32.0" stroke="#4dd2ff" stroke-linecap="round" stroke-linejoin="round" stroke-width="0.5"><title>2023-10-06 1.0km</title><desc>9984428862</desc></polyline><polyline fill="none" points="22.24967873096466,72.0 26.32879518903792,82.91806690068915 29.048206160776317,92.06561360019259 33.671204812824726,103.57378790085204 35.57479249313474,107.40983866993338 36.390615784563124,108.0 37.47838017344475,108.0 37.75032126996666,107.40983866993338 36.93449797760695,105.93443496129476 33.671204812824726,101.21313945297152 31.767617132514715,97.37708276207559 28.504323965869844,88.8197123191785 27.144618480466306,84.39347906876355 23.337443120777607,77.31149571505375 23.337443120777607,74.65574873611331" stroke="#4dd2ff" stroke-linecap="round" stroke-linejoin="round" stroke-width="0.5"><title>2023-10-04 1.0km</title><desc>9971682885</desc></polyline><polyline fill="none" points="71.21792567428201,76.2043982623145 72.42875700537115,80.40879157953896 73.63958833646029,83.29930911608972 74.60825340263546,87.76646798360161 79.20941246207803,96.96354219014756 79.45157872885466,100.1168193272315 80.90457632765174,106.42336525651626 81.38890885934234,107.21168271522038 82.84190645813942,108.0 82.84190645813942,105.37227504118346 79.6937449965626,99.59127333108336 77.5142485992983,94.59858251176775 76.30341726634651,92.23362126830034 75.09258593432605,88.81756337662227 72.67092327214777,83.82485750829801 71.70225820597261,79.8832426853478 71.21792567428201,75.94162351614796 70.49142687488347,72.0" stroke="#4dd2ff" stroke-linecap="round" stroke-linejoin="round" stroke-width="0.5"><title>2023-10-03 1.0km</title><desc>9965060084</desc></polyline><polyline fill="none" points="116.75281044840813,73.4876096486114 120.04307189024985,84.1983829792589 120.59144879784435,88.95871758251451 122.51076797302812,91.3388827838935 123.8817102406174,94.90912796137854 126.34940632153302,104.13224675972015 128.2687254967168,107.10744188772514 129.63966776430607,108.0 129.91385621856898,107.70248065097257 129.0912908576429,105.32232507318258 126.07521786913276,99.66944996570237 121.13982570450753,87.76863445620984 118.1237527159974,78.84299985715188 117.57537580933422,72.0" stroke="#4dd2ff" stroke-linecap="round" stroke-linejoin="round" stroke-width="0.5"><title>2023-10-02 1.0km</title><desc>9958643020</desc></polyline><polyline fill="none" points="164.293590744026,78.33602398936637 164.82441951148212,80.9280308499001 170.66353596001863,94.75203847116791 173.58309418335557,103.68001746712252 175.17558048758656,106.84800512320362 176.76806679088622,108.0 177.03348117601126,107.71200131229125 176.76806679088622,106.56000635121018 171.45977911073714,98.49603214068338 166.4169058157131,86.11203942424618 164.0281763598323,78.62402483657934 162.96651882398874,72.0" stroke="#4dd2ff" stroke-linecap="round" stroke-linejoin="round" stroke-width="0.5"><title>2023-10-01 1.0km</title><desc>9952075403</desc></polyline><polyline fill="none" points="24.83115312643349,117.2174139355775 26.994856469333172,121.65220974874683 27.956502397544682,126.08700001938269 28.67773684579879,130.2609152107034 32.28390908334404,140.43481292040087 35.40925835631788,146.95652687898837 36.85172725003213,148.0 37.33255021646619,147.21739518782124 32.524320567026734,139.91307528619654 30.360617224127054,134.95656393188983 29.639382775872946,132.34787096478976 26.273622021079063,125.04352045431733 24.350330160930753,116.95654342044145 22.66744978353381,112.0" stroke="#4dd2ff" stroke-linecap="round" stroke-linejoin="round" stroke-width="0.5"><title>2023-09-30 1.0km</title><desc>9945549317</desc></polyline><polyline fill="none" points="71.09296788088977,112.0 73.48169593233615,116.03201645193622 74.27793861553073,119.20002646720968 76.40125243831426,124.38403732911684 77.46290935110301,132.16004075901583 78.25915203522891,134.46403881069273 81.44412276893854,142.2400222318247 82.24036545306444,147.13600387470797 82.77119390945882,147.7120013127569 83.5674365926534,148.0 83.83285082038492,147.4240026040934 79.05539471842349,138.78403150639497 75.87042398378253,131.2960411401 74.8087670719251,126.97604018705897 71.09296788088977,118.33602399053052 69.50048251263797,113.15200512413867" stroke="#4dd2ff" stroke-linecap="round" stroke-linejoin="round" stroke-width="0.5"><title>2023-09-28 1.0km</title><desc>9933629332</desc></polyline><polyline fill="none" points="116.2958283983171,116.09092668490484 118.30654409434646,123.18185558612458 122.07663602288812,128.3636796725914 124.59003064315766,137.63639944652095 128.1087831100449,143.90910850348882 129.11414095852524,147.45454806112684 130.11949880514294,148.0 130.62217773031443,147.18182206130587 130.11949880514294,146.09091786271892 128.1087831100449,143.36365596251562 122.32797548454255,131.63640694506466 119.31190194096416,123.45458334963769 116.04448893666267,112.0" stroke="#4dd2ff" stroke-linecap="round" stroke-linejoin="round" stroke-width="0.5"><title>2023-09-27 1.0km</title><desc>9927137811</desc></polyline><polyline fill="none" points="172.99064273340628,112.0 172.27288847696036,115.46158631215803 171.5551342209801,117.45199383108411 170.99688091082498,119.87509409338236 167.72711152210832,126.71167151082773 166.05235159164295,129.56744525535032 165.7333496999927,130.77898353815544 165.89285064535215,131.73090560012497 166.2916030101478,133.11551813362166 167.4878601031378,136.0578143594321 167.88661246793345,136.83665624679998 168.36511530540884,138.22126277396455 169.96012476319447,140.2116318034241 170.67787901917472,141.76930956554133 171.47538374830037,142.98083528876305 172.1133875316009,144.7115841587074 173.070393206086,146.00964414095506 174.26665029954165,148.0" stroke="#4dd2ff" stroke-linecap="round" stroke-linejoin="round" stroke-width="0.5"><title>2023-09-26 1.0km</title><desc>9920397094</desc></polyline><polyline fill="none" points="29.831876725889742,152.0 28.26272617140785,157.22977837198414 26.693575616925955,160.02709489967674 25.23650724440813,161.85142921702936 24.451931967400014,163.31089522200637 24.11568542011082,164.7703599393135 24.22776760160923,166.59468902507797 24.788178514689207,168.05415084504057 26.13316470431164,170.12171955255326 26.693575616925955,172.1892856756458 27.814397441223264,174.86495564563666 29.943958908319473,177.54062128800433 33.530588747467846,184.8378692244878 35.88431457942352,188.0" stroke="#4dd2ff" stroke-linecap="round" stroke-linejoin="round" stroke-width="0.5"><title>2023-09-25 1.0km</title><desc>9914573673</desc></polyline><polyline fill="none" points="79.320764453616,152.0 78.43606519140303,153.34401783754583 78.2591253388673,154.01602623739745 78.43606519140303,154.88003652915359 78.5245351176709,155.74404624884482 76.75513659277931,159.0080778079573 76.31278696144,161.21609452960547 75.69349747849628,162.8481044890359 71.97776057617739,169.37612392706797 71.88929064990953,170.14412406773772 72.24317035451531,171.68012299470138 73.2163395434618,173.21612011443358 73.74715910106897,174.56011611199938 74.54338843701407,175.90411072596908 74.98573806835338,177.2481039565755 76.13584710936993,179.0720925569767 77.02054637111723,180.89607860927936 77.99371556052938,181.95206936972681 78.2591253388673,182.91206022899132 78.87841482274234,183.68005240801722 80.20546371629462,185.98402623576112 81.17863290477544,187.0400128812762 81.44404268357903,188.0" stroke="#4dd2ff" stroke-linecap="round" stroke-linejoin="round" stroke-width="0.5"><title>2023-09-24 1.0km</title><desc>9907510217</desc></polyline><polyline fill="none" points="124.67541618924588,152.0 123.92384978989139,153.16506135032978 123.38701664796099,154.3301218439592 123.06491676252335,155.8446992051322 122.95755013357848,157.8252981848782 121.13231744943187,160.27191703638528 120.05865116463974,163.0680482403841 119.09235150832683,164.46611199190374 118.44815173745155,166.33019507548306 118.34078510850668,168.31078094861005 120.5954843070358,174.01951461436693 121.4544173348695,175.7670820330968 124.24594967579469,180.19424420129508 125.42698258860037,183.1068441455718 126.930115387775,184.97090530011337 127.7890484156087,186.48545337375253 128.32588155847043,188.0" stroke="#4dd2ff" stroke-linecap="round" stroke-linejoin="round" stroke-width="0.5"><title>2023-09-23 1.0km</title><desc>9901004991</desc></polyline><polyline fill="none" points="171.38234610436484,152.0 170.66557405050844,153.3333486272022 169.94880199665204,155.66670589346904 168.31046587321907,159.11117908265442 166.6721297497861,161.44452742720023 165.2385856420733,165.33343332854565 165.1361896339804,167.44454948371276 165.3409816501662,168.66677327873185 167.3889018036425,173.5556585721206 167.69608982698992,175.0000989275286 168.1056738574989,175.77787393156905 169.53921796521172,177.55564386665355 170.66557405050844,179.77785334398504 171.58713811961934,182.11116977897473 173.12307823542506,184.33337255811784 174.86381036648527,188.0" stroke="#4dd2ff" stroke-linecap="round" stroke-linejoin="round" stroke-width="0.5"><title>2023-09-22 1.0km</title><desc>9895405405</desc></polyline><polyline fill="none" points="31.908369578421116,192.0 31.61477425834164,193.06195974734146 31.027583619579673,193.69913522084244 29.755337233655155,196.03544288536068 29.266011700965464,197.73457335843705 27.79803510196507,201.45141429943033 26.23219339735806,204.6372703498928 25.253542331047356,206.9735603206791 24.95994701143354,208.14170388877392 24.95994701143354,208.88506748562213 25.253542331047356,209.94701481750235 25.840732970740646,211.00896136870142 27.112979356665164,214.30099071515724 28.38522574165836,216.63726505392697 29.070281487423927,218.33637129049748 30.342527872882783,220.4602512755664 31.12544872518629,221.4159962501144 31.71263936487958,223.11509686510544 33.27848106995225,225.87613110162783 35.0400529881008,228.0" stroke="#4dd2ff" stroke-linecap="round" stroke-linejoin="round" stroke-width="0.5"><title>2023-09-21 1.0km</title><desc>9889267953</desc></polyline><polyline fill="none" points="80.33191429078579,192.0 79.04718831926584,195.85426966939121 78.2914671599865,198.8884725914104 77.08231330383569,201.4306362514617 75.64644310064614,205.6948977652355 73.15256327344105,210.36916569346795 72.4724142299965,212.91130318440264 72.54798634536564,213.48533342877636 73.00141904130578,214.7153972433298 73.98385654948652,216.8475046416861 74.58843347709626,218.65159233374288 76.09987579658628,220.78369220742024 77.00674118846655,222.5057698994642 77.53574599977583,223.73582376586273 78.14032292738557,224.8018693526974 79.1227604355663,225.5399003159837 80.33191429078579,227.3439739482128 80.40748640708625,227.67198702233145 80.86091910302639,228.0" stroke="#4dd2ff" stroke-linecap="round" stroke-linejoin="round" stroke-width="0.5"><title>2023-09-20 1.0km</title><desc>9882714971</desc></polyline><polyline fill="none" points="126.3183393869549,192.0 125.5507664019242,193.94347102369647 124.10090631851926,198.20058754098136 124.01562043139711,199.58877459634095 123.50390510773286,200.32914039993193 122.90690389741212,201.71732510754373 122.56576034799218,203.01296278683003 121.88347325008363,204.7713260750752 119.92189784301445,207.9178647758672 119.4101825193502,209.76876621937845 119.23961074510589,211.43457519158255 119.4101825193502,213.10038195888046 119.92189784301445,214.95127578137908 120.51889905333519,216.24689983797725 122.39518857328221,219.4859541442711 123.33333333348855,220.7815735328477 124.18619220564142,223.0951762672048 125.03905107825994,224.57587978523225 125.89190995041281,225.778950111242 126.83005471015349,226.70438804116566 127.42705592140555,228.0" stroke="#4dd2ff" stroke-linecap="round" stroke-linejoin="round" stroke-width="0.5"><title>2023-09-19 1.0km</title><desc>9876194288</desc></polyline><polyline fill="none" points="169.7350132437423,192.0 169.09904502891004,193.03515533881728 168.0390980048105,195.10546396160498 167.7211138973944,196.48566818749532 165.8132092533633,199.8211567060789 164.32928341906518,202.92660514032468 164.01129931164905,204.07676966267172 164.11729401443154,205.34194965998176 164.75326222926378,206.95217726833653 165.7072145510465,208.67741929460317 166.55517217097804,211.09275493503083 167.7211138973944,213.6231025584275 168.99305032659322,215.92341502802446 170.1589920539409,217.4186163195409 171.53692318545654,219.7189232079545 172.38488080492243,222.36427194811404 173.86880663968623,224.66457156441174 174.6107695568353,226.73483832727652 175.9887006888166,228.0" stroke="#4dd2ff" stroke-linecap="round" stroke-linejoin="round" stroke-width="0.5"><title>2023-09-18 1.0km</title><desc>9870505463</desc></polyline><polyline fill="none" points="30.36173546919599,232.0 29.844970513600856,233.0093573719496 29.121499575674534,236.37387712055352 28.191322655417025,237.94398379675113 27.777910690754652,239.17763790825848 25.50414488557726,242.87859425658826 24.677320956718177,244.89729393448215 24.16055600065738,246.69169140479062 24.573967965319753,247.9253384413896 26.847733770031482,252.85991660982836 27.98461667308584,254.65430471324362 28.811440601944923,256.5608397600008 30.155029486864805,258.3552235098323 30.87850042525679,259.58886111318134 31.808677345048636,262.50472784624435 35.83944399980828,268.0" stroke="#4dd2ff" stroke-linecap="round" stroke-linejoin="round" stroke-width="0.5"><title>2023-09-16 1.0km</title><desc>9856514700</desc></polyline><polyline fill="none" points="76.16902144718915,232.0 75.06314318161458,235.36003359872848 73.62550143664703,237.64005245815497 70.63963011931628,243.4000859145308 70.52904229285195,244.72009071870707 70.63963011931628,246.2800950196106 71.30315707903355,247.84009782946669 72.40903534460813,249.5200991879683 73.40432578325272,251.80009826552123 75.1737310080789,254.80009219923522 77.38548753969371,259.0000744428253 77.60666319262236,260.56006509484723 78.3807779783383,261.1600611024769 79.26548059098423,262.36005245591514 80.70312233595178,264.7600325163221 82.25135190738365,266.0800200452795 82.58311538724229,266.9200115533313 82.8042910406366,268.0" stroke="#4dd2ff" stroke-linecap="round" stroke-linejoin="round" stroke-width="0.5"><title>2023-09-15 1.0km</title><desc>9850671982</desc></polyline><polyline fill="none" points="124.24854178866372,232.0 122.41812487831339,236.84142398450058 120.35890585416928,239.8207549204817 119.44369739899412,241.43455698236357 118.07088471623138,244.91043310728855 117.72768154554069,246.15181570337154 117.72768154554069,247.1449211225845 118.07088471623138,248.38630207569804 119.44369739899412,252.11043945874553 120.70210902485996,254.59319315035827 123.7909375615418,259.9311012249673 125.04934918694198,262.2897063938435 125.27815130073577,263.6552131435601 126.19335975591093,264.52417140908074 127.68057349557057,266.8827701617265 128.93898512143642,268.0" stroke="#4dd2ff" stroke-linecap="round" stroke-linejoin="round" stroke-width="0.5"><title>2023-09-14 1.0km</title><desc>9844236351</desc></polyline><polyline fill="none" points="164.27849350403994,232.0 164.93708417983726,232.53598797146697 165.18405568320304,233.071975706378 165.34870335226879,234.2332816539565 165.84264635900036,235.2159242813941 166.17194169713184,237.98518559115473 166.17194169713184,239.32514847489074 166.0072940280661,240.0397947418969 166.17194169713184,240.93310198478866 166.5835608690977,242.00506980915088 166.41891320049763,242.89837560686283 166.50123703479767,243.34502825932577 167.32447537966073,244.8636460499838 168.06538989022374,247.09690405859146 168.7239805655554,248.3475267504109 169.54721891041845,249.50881809729617 170.45278108958155,250.3127883792622 170.69975259294733,250.8487682719715 170.94672409677878,252.0100572281517 171.6053147725761,253.17134507431183 172.34622928267345,255.31525818211958 173.3341152961366,257.1911790483864 173.82805830286816,258.79910891433246 174.0750298066996,260.13904884352814 174.56897281343117,261.210999723291 175.47453499259427,264.1588597658556 176.70939250988886,266.4814111262094 176.79171634465456,266.8387263260083 176.70939250988886,267.10671265702695 175.72150649596006,268.0 176.2154495031573,267.6426851415308 176.46242100652307,267.10671265702695 176.62706867512316,266.660068739322 176.54474484128878,266.03476697858423 176.05080183409154,265.4094648960745 174.56897281343117,262.1936205319362 173.82805830286816,259.78173167351633 172.2639054483734,256.2978837589035 171.5229909378104,252.90335566992871 171.11137176584452,251.9207273479551 169.54721891041845,249.86613828828558 167.98306605545804,246.91824356897268 167.24215154489502,244.50632438773755 166.9951800419949,242.89837560686283 166.33658936573192,241.2010940295877 165.01940801460296,238.3425091713434 164.69011267647147,237.00254520378076 163.5375789939426,234.8585997816408 163.29060749011114,233.69729443162214 163.2082836558111,232.26799401536118" stroke="#4dd2ff" stroke-linecap="round" stroke-linejoin="round" stroke-width="0.5"><title>2023-09-13 1.0km</title><desc>9837636972</desc></polyline></svg>