<svg xmlns="http://www.w3.org/2000/svg" xmlns:ev="http://www.w3.org/2001/xml-events" xmlns:xlink="http://www.w3.org/1999/xlink" width="200mm" height="300mm" baseProfile="full" version="1.1" viewBox="0 0 200 300"><rect width="200" height="300" x="0" y="0" fill="#222"/><text fill="#FFF" style="font-size:12px;font-family:Arial;font-weight:700" x="10" y="20">Over 1km Runs</text><text fill="#FFF" style="font-size:4px;font-family:Arial" x="10" y="280">ATHLETE</text><text fill="#FFF" style="font-size:9px;font-family:Arial" x="10" y="290">Jiakai</text><text fill="#FFF" style="font-size:4px;font-family:Arial" x="120" y="280">STATISTICS</text><text fill="#FFF" style="font-size:3px;font-family:Arial" x="120" y="285">Number: 85</text><text fill="#FFF" style="font-size:3px;font-family:Arial" x="120" y="290">Weekly: 6.1</text><text fill="#FFF" style="font-size:3px;font-family:Arial" x="141" y="285">Total: 87.7 km</text><text fill="#FFF" style="font-size:3px;font-family:Arial" x="141" y="290">Avg: 1.0 km</text><text fill="#FFF" style="font-size:3px;font-family:Arial" x="167" y="285">Min: 1.0 km</text><text fill="#FFF" style="font-size:3px;font-family:Arial" x="167" y="290">Max: 1.5 km</text><polyline fill="none" stroke="#4dd2ff" stroke-linecap="round" stroke-linejoin="round" stroke-width=".5" points="17.723 34.548 19.252 38.558 21.801 43.537 24.095 50.174 24.605 50.727 24.732 50.589 24.732 50.036 24.095 48.238 20.654 41.462 19.125 37.314 17.978 32.612 17.086 31.091"><title>2023-12-16 1.0km</title><desc>10386207035</desc></polyline><polyline fill="none" stroke="#4dd2ff" stroke-linecap="round" stroke-linejoin="round" stroke-width=".5" points="40.853 34.782 41.398 37.292 43.302 43.05 44.391 44.822 45.888 49.694 46.296 50.727 46.568 50.727 46.568 49.251 44.527 43.05 41.67 38.621 41.534 36.849 40.717 34.782 40.989 33.453 40.445 31.091"><title>2023-12-14 1.0km</title><desc>10376526598</desc></polyline><polyline fill="none" stroke="#4dd2ff" stroke-linecap="round" stroke-linejoin="round" stroke-width=".5" points="70.319 32.798 69.307 31.945 67.621 31.213 66.048 31.091 64.474 31.457 62.451 32.554 61.552 33.774 60.878 35.848 60.878 40.482 61.102 41.946 61.552 43.775 61.215 45.971 61.327 46.824 61.44 47.312 62.563 49.264 64.362 50.605 64.924 50.727 66.048 50.727 67.172 50.727 69.195 49.995 70.319 48.898 70.993 47.678 71.218 44.995 71.33 43.165 70.993 40.97 71.218 38.043 71.105 35.482 70.993 34.628 70.206 32.92 69.869 32.554 68.633 31.701 66.16 31.457 64.587 31.701 63.687 32.067 62.002 33.896 61.327 36.457 61.552 38.165"><title>2023-12-13 1.0km</title><desc>10373769329</desc></polyline><polyline fill="none" stroke="#4dd2ff" stroke-linecap="round" stroke-linejoin="round" stroke-width=".5" points="86.338 33.875 87.688 39.444 89.039 42.375 91.74 49.995 92.28 50.727 92.55 50.727 92.685 50.141 92.145 49.262 89.984 45.598 86.878 39.297 86.473 37.392 84.987 34.168 84.717 31.091"><title>2023-12-12 1.0km</title><desc>10365882163</desc></polyline><polyline fill="none" stroke="#4dd2ff" stroke-linecap="round" stroke-linejoin="round" stroke-width=".5" points="107.476 31.091 108.877 34.133 110.789 38.973 112.191 41.601 114.23 47.962 114.485 49.621 114.994 50.727 115.122 49.759 114.867 48.653 112.191 42.569 110.279 38.835 109.769 37.314 109.387 34.133 108.368 31.229"><title>2023-12-11 1.0km</title><desc>10361067591</desc></polyline><polyline fill="none" stroke="#4dd2ff" stroke-linecap="round" stroke-linejoin="round" stroke-width=".5" points="134.29 42.047 136.912 50.016 137.043 50.443 137.568 50.727 137.699 50.585 137.306 49.589 136.125 47.312 134.814 43.755 131.142 36.356 130.093 31.091"><title>2023-12-10 1.0km</title><desc>10355395415</desc></polyline><polyline fill="none" stroke="#4dd2ff" stroke-linecap="round" stroke-linejoin="round" stroke-width=".5" points="153.034 32.39 155.296 36 156.36 40.476 158.622 46.829 159.421 50.294 159.953 50.727 160.086 50.583 160.086 50.294 159.82 49.139 157.026 43.508 156.36 41.92 155.961 39.465 155.296 37.588 154.231 35.711 154.098 33.69 152.901 31.091"><title>2023-12-09 1.0km</title><desc>10350143310</desc></polyline><polyline fill="none" stroke="#4dd2ff" stroke-linecap="round" stroke-linejoin="round" stroke-width=".5" points="176.998 34.901 177.808 37.832 179.564 42.081 181.994 49.115 183.075 50.727 182.94 49.262 182.129 46.771 179.969 42.961 178.618 39.737 177.133 37.392 176.728 35.048 175.107 31.091"><title>2023-12-08 1.0km</title><desc>10345303898</desc></polyline><polyline fill="none" stroke="#4dd2ff" stroke-linecap="round" stroke-linejoin="round" stroke-width=".5" points="17.745 52.909 17.998 53.596 18.505 55.381 18.758 57.853 19.264 59.912 21.036 64.306 22.175 68.289 23.314 70.76 23.567 72.545 23.82 72.408 24.073 72.134 24.073 71.722 23.44 70.074 21.415 66.641 19.011 59.638 18.378 56.754"><title>2023-12-07 1.0km</title><desc>10340288256</desc></polyline><polyline fill="none" stroke="#4dd2ff" stroke-linecap="round" stroke-linejoin="round" stroke-width=".5" points="39.861 52.909 40.642 54.746 42.074 60.82 44.157 64.634 45.85 69.296 46.631 72.263 47.022 72.545 47.152 71.557 46.891 70.285 44.808 65.906 43.376 63.787 42.595 62.233 39.991 53.333"><title>2023-12-06 1.0km</title><desc>10334845031</desc></polyline><polyline fill="none" stroke="#4dd2ff" stroke-linecap="round" stroke-linejoin="round" stroke-width=".5" points="64.294 56.295 65.168 60.764 66.041 64.014 68.163 69.566 69.286 72.139 69.661 72.545 69.162 70.108 67.914 67.806 66.79 64.556 65.168 61.17 64.419 58.597 63.171 55.888 62.547 52.909"><title>2023-12-05 1.0km</title><desc>10329306344</desc></polyline><polyline fill="none" stroke="#4dd2ff" stroke-linecap="round" stroke-linejoin="round" stroke-width=".5" points="85.095 54.557 85.981 55.93 87.119 59.912 89.397 65.542 90.536 69.387 91.549 71.584 92.308 72.545 92.308 71.859 89.018 64.306 87.752 60.05 86.36 56.891 85.348 52.909"><title>2023-12-04 1.0km</title><desc>10324662812</desc></polyline><polyline fill="none" stroke="#4dd2ff" stroke-linecap="round" stroke-linejoin="round" stroke-width=".5" points="107.888 54.722 109.28 60.008 111.508 64.993 113.039 70.28 114.152 72.394 114.988 72.545 114.988 71.941 114.013 70.28 112.76 66.655 111.368 64.54 110.394 61.972 108.723 55.93 107.61 52.909"><title>2023-12-02 1.0km</title><desc>10313350310</desc></polyline><polyline fill="none" stroke="#4dd2ff" stroke-linecap="round" stroke-linejoin="round" stroke-width=".5" points="130.332 53.95 131.703 55.736 133.348 61.388 134.444 66 136.227 71.058 137.323 72.545 137.461 71.653 137.186 69.868 135.678 66.595 133.348 62.876 131.977 60.05 130.606 52.909"><title>2023-12-01 1.0km</title><desc>10308709030</desc></polyline><polyline fill="none" stroke="#4dd2ff" stroke-linecap="round" stroke-linejoin="round" stroke-width=".5" points="152.874 52.909 155.589 62.236 158.303 67.8 159.811 71.891 160.264 72.545 160.414 72.055 159.811 70.418 157.549 67.309 156.946 65.673 154.684 61.255 153.628 56.182 152.573 53.236"><title>2023-11-30 1.0km</title><desc>10303537703</desc></polyline><polyline fill="none" stroke="#4dd2ff" stroke-linecap="round" stroke-linejoin="round" stroke-width=".5" points="176.844 57.107 177.718 59.951 178.092 62.253 179.465 64.962 180.963 69.024 182.461 72.275 182.71 72.545 182.96 72.275 182.71 71.327 181.712 69.566 180.339 65.774 178.342 61.712 177.593 57.378 176.096 55.076 175.222 52.909"><title>2023-11-29 1.0km</title><desc>10298007687</desc></polyline><polyline fill="none" stroke="#4dd2ff" stroke-linecap="round" stroke-linejoin="round" stroke-width=".5" points="17.524 77.27 18.956 80.943 19.217 83.627 21.039 88.007 22.081 91.962 22.992 93.799 23.903 94.364 24.294 94.364 24.554 93.94 24.424 93.375 23.903 92.386 21.82 86.876 19.737 82.073 19.347 79.813 18.435 77.129 17.264 74.727"><title>2023-11-28 1.0km</title><desc>10292316108</desc></polyline><polyline fill="none" stroke="#4dd2ff" stroke-linecap="round" stroke-linejoin="round" stroke-width=".5" points="43.045 74.727 44.198 77.854 44.89 80.856 45.812 82.232 46.849 84.233 47.887 87.485 48.809 88.986 48.809 89.736 48.232 90.236 46.388 91.237 45.235 92.237 44.083 92.863 42.354 93.613 39.588 94.364 39.126 94.239 38.781 93.863 38.204 91.487"><title>2023-11-27 1.0km</title><desc>10287544518</desc></polyline><polyline fill="none" stroke="#4dd2ff" stroke-linecap="round" stroke-linejoin="round" stroke-width=".5" points="64.206 78.984 64.838 80.495 66.357 88.184 68.002 92.167 68.888 93.677 69.521 94.364 69.647 94.226 69.268 93.54 69.268 92.441 68.255 90.107 67.116 86.262 65.977 83.928 65.218 79.533 63.067 76.1 62.561 74.727"><title>2023-11-26 1.0km</title><desc>10281488289</desc></polyline><polyline fill="none" stroke="#4dd2ff" stroke-linecap="round" stroke-linejoin="round" stroke-width=".5" points="85.126 74.727 86.585 78.528 87.899 83.912 89.212 86.921 89.504 88.821 90.234 90.563 91.839 93.572 92.569 94.364 92.861 94.364 90.671 89.613 90.38 88.029 88.92 85.971 86.001 78.053 84.542 75.361"><title>2023-11-25 1.0km</title><desc>10275889695</desc></polyline><polyline fill="none" stroke="#4dd2ff" stroke-linecap="round" stroke-linejoin="round" stroke-width=".5" points="107.493 74.911 108.508 79.499 113.244 92.345 114.428 94.18 114.935 94.364 115.104 93.813 113.413 91.611 111.383 85.555 110.03 82.802 109.185 77.48 108.17 74.727"><title>2023-11-24 1.0km</title><desc>10271180196</desc></polyline><polyline fill="none" stroke="#4dd2ff" stroke-linecap="round" stroke-linejoin="round" stroke-width=".5" points="131.455 76.909 131.885 78.156 132.891 83.455 135.332 90.935 136.481 94.052 136.912 94.364 137.487 94.364 137.63 94.052 137.343 92.494 135.763 87.974 131.598 78.935 130.162 74.727"><title>2023-11-23 1.0km</title><desc>10265414399</desc></polyline><polyline fill="none" stroke="#4dd2ff" stroke-linecap="round" stroke-linejoin="round" stroke-width=".5" points="154.773 79.152 154.901 81.088 155.41 84.131 157.449 89.939 158.087 92.704 159.106 94.364 159.871 94.364 159.743 93.534 158.341 89.939 157.194 88.141 155.538 83.024 153.626 77.77 153.116 74.727"><title>2023-11-21 1.0km</title><desc>10253878272</desc></polyline><polyline fill="none" stroke="#4dd2ff" stroke-linecap="round" stroke-linejoin="round" stroke-width=".5" points="176.977 80.031 177.638 84.33 180.412 91.354 181.601 93.934 181.997 94.364 182.261 94.22 182.393 93.934 181.865 91.64 179.487 86.48 178.563 83.757 177.11 78.167 176.317 76.734 175.789 74.727"><title>2023-11-20 1.0km</title><desc>10248671423</desc></polyline><polyline fill="none" stroke="#4dd2ff" stroke-linecap="round" stroke-linejoin="round" stroke-width=".5" points="17.413 98.182 19.333 102.347 19.881 106.661 21.389 110.083 22.897 114.397 23.582 115.438 24.405 116.182 24.268 114.992 21.937 108.893 20.429 103.388 18.921 99.818 18.099 96.545"><title>2023-11-19 1.0km</title><desc>10242265034</desc></polyline><polyline fill="none" stroke="#4dd2ff" stroke-linecap="round" stroke-linejoin="round" stroke-width=".5" points="39.69 114.041 40.548 111.343 40.891 110.691 41.491 110.319 44.407 109.947 46.551 109.481 47.237 108.923 47.666 108.365 48.18 106.038 48.009 105.293 48.352 104.735 48.095 100.454 47.923 99.896 47.837 98.221 47.666 97.197 46.723 96.918 45.951 97.476 46.122 97.197 46.294 97.476 45.179 96.918 45.093 96.545 44.836 96.732 45.007 96.639 44.407 97.383 44.493 97.29 46.294 98.221 45.865 98.593 45.179 98.872 43.549 99.151 43.464 98.779 43.892 98.593 44.493 98.686 46.294 96.918 48.781 97.011 48.524 96.825 48.18 96.732 47.923 101.199 48.009 102.502 48.266 104.084 48.438 106.782 48.438 107.713 48.18 108.644 47.666 109.202 43.378 109.667 41.405 110.04 40.376 110.784 39.176 112.459 38.489 114.879 38.232 116.182"><title>2023-11-18 1.0km</title><desc>10236386505</desc></polyline><polyline fill="none" stroke="#4dd2ff" stroke-linecap="round" stroke-linejoin="round" stroke-width=".5" points="62.097 96.545 64.941 101.455 65.975 105.101 66.362 107.205 67.138 108.468 69.594 115.621 70.111 116.182 70.111 115.621 69.594 114.919 68.172 110.712 67.396 109.309 67.138 106.925 65.975 103.979 64.682 101.174 64.553 99.631"><title>2023-11-17 1.0km</title><desc>10231268371</desc></polyline><polyline fill="none" stroke="#4dd2ff" stroke-linecap="round" stroke-linejoin="round" stroke-width=".5" points="85.199 97.179 87.096 99.871 87.534 103.513 88.847 106.364 90.89 113.965 92.204 116.182 92.058 114.915 91.036 112.856 90.307 110.798 89.139 105.889 86.804 100.979 86.074 98.762 85.637 96.545"><title>2023-11-16 1.0km</title><desc>10225818993</desc></polyline><polyline fill="none" stroke="#4dd2ff" stroke-linecap="round" stroke-linejoin="round" stroke-width=".5" points="107.893 96.757 108.866 100.557 110.423 104.78 112.564 108.792 113.342 111.959 114.704 114.704 116.066 116.182 112.564 109.636 111.007 104.78 106.531 96.545"><title>2023-11-15 1.0km</title><desc>10219684298</desc></polyline><polyline fill="none" stroke="#4dd2ff" stroke-linecap="round" stroke-linejoin="round" stroke-width=".5" points="130.426 98.908 132.195 101.122 132.467 103.928 134.508 108.8 135.733 112.934 136.958 116.034 137.502 116.182 137.366 114.41 135.597 112.048 134.917 109.981 133.828 108.652 133.42 107.028 131.379 102.894 130.699 99.941 130.29 96.545"><title>2023-11-14 1.0km</title><desc>10213806154</desc></polyline><polyline fill="none" stroke="#4dd2ff" stroke-linecap="round" stroke-linejoin="round" stroke-width=".5" points="153.871 99.249 154.92 103.233 157.805 110.632 158.461 113.051 159.772 115.755 160.165 116.182 159.378 114.759 157.543 110.348 157.411 109.21 156.1 106.079 154.133 102.522 153.346 100.103 152.822 96.545"><title>2023-11-13 1.0km</title><desc>10208522228</desc></polyline><polyline fill="none" stroke="#4dd2ff" stroke-linecap="round" stroke-linejoin="round" stroke-width=".5" points="176.897 98.777 178.268 102.942 179.913 106.364 180.873 110.38 181.833 113.207 183.067 115.884 183.615 116.182 183.889 115.587 182.381 112.612 181.559 109.339 178.543 106.512 176.897 104.132 176.623 101.603 174.293 96.545"><title>2023-11-12 1.0km</title><desc>10202270880</desc></polyline><polyline fill="none" stroke="#4dd2ff" stroke-linecap="round" stroke-linejoin="round" stroke-width=".5" points="17.938 122.027 21.179 129.354 22.26 133.018 23.34 135.948 24.015 137.267 24.69 138 24.825 137.414 23.61 133.75 21.314 130.233 18.883 124.665 17.938 120.708 16.993 118.364"><title>2023-11-11 1.0km</title><desc>10196068378</desc></polyline><polyline fill="none" stroke="#4dd2ff" stroke-linecap="round" stroke-linejoin="round" stroke-width=".5" points="41.681 121.292 43.903 128.01 45.967 133.522 46.919 137.139 47.554 138 47.872 137.656 47.396 135.589 45.015 130.249 42.633 125.254 39.459 120.258 39.141 118.364"><title>2023-11-10 1.0km</title><desc>10191120477</desc></polyline><polyline fill="none" stroke="#4dd2ff" stroke-linecap="round" stroke-linejoin="round" stroke-width=".5" points="61.545 118.963 63.894 120.762 65.275 123.16 65.689 124.06 65.689 125.409 67.209 130.056 67.762 132.754 68.867 135.752 69.143 137.251 69.834 138 70.248 137.85 70.663 137.251 69.143 136.201 66.656 132.604 63.756 124.659 63.065 120.162 62.374 118.364"><title>2023-11-09 1.0km</title><desc>10185506531</desc></polyline><polyline fill="none" stroke="#4dd2ff" stroke-linecap="round" stroke-linejoin="round" stroke-width=".5" points="84.871 119.94 86.324 122.807 86.852 124.24 88.569 127.967 89.23 130.547 89.098 128.97 89.362 129.973 89.89 133.843 91.079 137.427 91.607 138 92.268 137.713 92.532 137.283 91.079 135.993 90.022 134.273 89.362 132.41 88.437 129.257 87.116 127.394 85.663 124.24 85.267 121.947 85.399 119.08 85.135 118.364"><title>2023-11-08 1.0km</title><desc>10179505859</desc></polyline><polyline fill="none" stroke="#4dd2ff" stroke-linecap="round" stroke-linejoin="round" stroke-width=".5" points="110.413 129.212 114.842 138 115.095 137.863 114.462 136.352 113.323 134.43 112.564 132.507 111.046 130.86 110.539 129.898 110.16 126.603 109.907 125.641 108.388 123.032 107.502 118.364"><title>2023-11-06 1.0km</title><desc>10167691585</desc></polyline><polyline fill="none" stroke="#4dd2ff" stroke-linecap="round" stroke-linejoin="round" stroke-width=".5" points="132.008 123.873 132.92 125.568 136.305 133.338 137.737 137.717 137.997 138 138.257 138 138.257 137.576 137.216 135.316 136.305 134.044 136.174 133.338 135.393 132.491 133.18 128.676 130.576 122.037 129.535 118.364"><title>2023-11-05 1.1km</title><desc>10161301187</desc></polyline><polyline fill="none" stroke="#4dd2ff" stroke-linecap="round" stroke-linejoin="round" stroke-width=".5" points="152.822 118.364 155.444 124.198 156.625 129.32 158.461 132.877 159.116 135.723 159.772 138 160.165 137.573 160.034 137.146 158.329 134.016 158.198 133.589 156.625 131.17 155.969 128.893 154.264 125.763 153.871 123.059 153.084 120.213"><title>2023-11-04 1.0km</title><desc>10155501797</desc></polyline><polyline fill="none" stroke="#4dd2ff" stroke-linecap="round" stroke-linejoin="round" stroke-width=".5" points="184.359 121.346 182.87 119.358 181.954 118.736 180.122 118.364 178.404 118.488 175.999 119.606 174.968 120.601 174.052 122.465 173.823 123.956 173.479 128.928 173.708 134.147 173.937 134.893 175.082 136.757 176.457 137.751 178.747 138 180.809 137.13 182.756 134.769 183.328 133.65 184.13 130.046 184.13 127.188 184.703 123.459 184.588 122.092 183.328 120.601 182.298 119.855 179.893 118.736 178.633 118.736 175.884 119.606 174.624 120.725 173.823 122.216 173.594 123.211 173.823 127.312 173.594 129.176"><title>2023-11-03 1.0km</title><desc>10152446508</desc></polyline><polyline fill="none" stroke="#4dd2ff" stroke-linecap="round" stroke-linejoin="round" stroke-width=".5" points="16.845 140.182 17.919 142.512 18.839 146.672 20.372 149.667 22.673 155.658 23.133 156.656 23.9 159.319 24.36 159.818 24.973 159.818 24.973 159.485 23.9 158.986 23.44 157.821 22.366 156.823 21.599 154.659 20.526 152.995 19.299 150.499 17.919 145.341 16.998 143.177"><title>2023-11-02 1.1km</title><desc>10144903556</desc></polyline><polyline fill="none" stroke="#4dd2ff" stroke-linecap="round" stroke-linejoin="round" stroke-width=".5" points="40.163 141.605 40.425 143.17 41.474 145.589 43.31 152.134 46.457 158.68 47.375 159.818 46.85 158.111 44.883 155.123 43.834 151.281 42.523 149.431 40.949 146.016 39.638 140.182"><title>2023-11-01 1.0km</title><desc>10138966680</desc></polyline><polyline fill="none" stroke="#4dd2ff" stroke-linecap="round" stroke-linejoin="round" stroke-width=".5" points="63.247 140.477 63.927 142.692 65.015 148.597 66.784 152.436 67.873 155.98 69.642 159.818 69.778 159.671 68.553 157.899 66.784 153.765 65.288 151.107 62.702 143.282 62.43 140.182"><title>2023-10-31 1.0km</title><desc>10133123337</desc></polyline><polyline fill="none" stroke="#4dd2ff" stroke-linecap="round" stroke-linejoin="round" stroke-width=".5" points="85.618 142.509 86.288 146 86.288 147.309 87.763 149.782 91.784 158.364 92.455 159.673 92.723 159.818 89.64 153.709 88.299 149.927 86.825 146.873 84.68 140.182"><title>2023-10-30 1.0km</title><desc>10127985445</desc></polyline><polyline fill="none" stroke="#4dd2ff" stroke-linecap="round" stroke-linejoin="round" stroke-width=".5" points="108.203 143.024 108.799 147.029 109.156 148.321 111.537 153.876 112.727 157.105 114.513 159.56 114.989 159.818 115.108 159.431 114.037 157.751 112.489 154.392 109.751 149.354 108.679 145.608 107.846 143.928 107.727 141.345 107.489 140.182"><title>2023-10-28 1.0km</title><desc>10115543824</desc></polyline><polyline fill="none" stroke="#4dd2ff" stroke-linecap="round" stroke-linejoin="round" stroke-width=".5" points="131.349 144.255 132.422 147.745 133.628 150.509 134.7 154.436 136.309 158.218 136.979 159.673 137.649 159.818 137.783 159.673 137.515 158.8 136.711 156.618 134.03 151.382 131.885 145.564 130.545 142.655 130.009 140.182"><title>2023-10-27 1.0km</title><desc>10110442644</desc></polyline><polyline fill="none" stroke="#4dd2ff" stroke-linecap="round" stroke-linejoin="round" stroke-width=".5" points="153.832 143.214 156.36 151.733 157.292 154.332 158.223 155.92 159.288 158.952 159.687 159.529 160.485 159.818 160.618 159.385 160.485 158.807 159.155 157.075 157.159 153.61 154.764 146.535 153.167 143.936 152.369 140.182"><title>2023-10-26 1.0km</title><desc>10104873905</desc></polyline><polyline fill="none" stroke="#4dd2ff" stroke-linecap="round" stroke-linejoin="round" stroke-width=".5" points="178.107 149.573 181.123 157.115 182.566 159.676 183.09 159.818 182.959 158.395 179.419 152.277 177.452 147.296 175.747 143.739 175.091 140.182"><title>2023-10-25 1.0km</title><desc>10098978222</desc></polyline><polyline fill="none" stroke="#4dd2ff" stroke-linecap="round" stroke-linejoin="round" stroke-width=".5" points="17.277 162 17.145 163.003 17.937 166.3 18.994 168.45 19.654 171.03 20.843 174.47 23.353 179.343 24.145 181.35 24.409 181.636 24.674 181.493 24.542 179.63 23.089 176.906 22.032 175.33 20.711 172.32 20.447 170.743 18.862 168.307 17.937 166.157 17.673 163.577 17.277 162"><title>2023-10-24 1.0km</title><desc>10092835699</desc></polyline><polyline fill="none" stroke="#4dd2ff" stroke-linecap="round" stroke-linejoin="round" stroke-width=".5" points="41.489 165.39 43.441 172.313 44.353 174.008 45.394 178.246 46.957 181.071 47.607 181.636 46.957 180.93 46.045 178.67 43.702 175.844 43.181 174.855 42.66 171.606 41.098 168.498 40.056 165.249 39.406 162"><title>2023-10-23 1.0km</title><desc>10087395010</desc></polyline><polyline fill="none" stroke="#4dd2ff" stroke-linecap="round" stroke-linejoin="round" stroke-width=".5" points="59.746 162.094 60.094 162 62.567 162.188 63.652 162.471 63.912 162.612 64.477 163.036 64.867 163.507 65.735 165.108 66.169 166.897 66.733 167.839 66.994 168.593 67.601 169.958 68.035 171.371 68.686 172.501 68.99 172.831 69.38 173.49 69.597 174.903 69.727 175.279 70.075 175.797 70.161 176.598 70.292 176.927 72.201 181.448 72.461 181.636 72.461 181.401 72.071 181.024 71.637 179.988 71.203 179.094 70.031 175.468"><title>2023-10-22 1.5km</title><desc>10080655811</desc></polyline><polyline fill="none" stroke="#4dd2ff" stroke-linecap="round" stroke-linejoin="round" stroke-width=".5" points="85.578 162 86.267 162.498 85.027 162.299 86.956 164.791 87.14 165.389 87.002 165.887 86.359 166.236 86.175 166.585 86.221 167.183 86.589 168.629 87.002 169.675 87.461 171.27 88.288 172.715 88.426 173.264 88.931 174.161 89.252 174.559 89.298 174.809 89.62 175.108 89.85 175.606 90.171 176.553 90.493 177.201 90.447 178.497 91.044 179.643 91.227 180.191 91.549 180.789 92.1 181.487 92.376 181.636 91.319 180.141 91.09 179.344 90.63 178.347 90.447 177.699 89.85 176.852 89.344 175.407"><title>2023-10-20 1.4km</title><desc>10069668027</desc></polyline><polyline fill="none" stroke="#4dd2ff" stroke-linecap="round" stroke-linejoin="round" stroke-width=".5" points="107.347 162 107.441 162.761 108.189 164.588 108.376 165.704 109.919 169.459 110.06 169.966 110.153 170.727 110.34 171.235 111.462 172.808 112.07 174.025 112.444 175.243 112.772 175.903 112.959 176.918 113.192 177.425 113.8 178.998 113.894 179.607 114.782 181.433 115.016 181.636 115.156 181.636 115.25 181.586 115.203 181.535 114.268 180.368 113.847 178.947 112.959 177.324 112.818 176.664 112.725 175.548"><title>2023-10-19 1.3km</title><desc>10064004415</desc></polyline><polyline fill="none" stroke="#4dd2ff" stroke-linecap="round" stroke-linejoin="round" stroke-width=".5" points="129.468 162 131.393 164.507 131.265 166.317 131.522 168.128 132.42 171.331 133.704 173.42 134.987 177.041 137.554 181.219 137.939 181.636 138.324 181.497 136.655 179.826 133.575 173.838 132.805 171.192 130.623 166.596"><title>2023-10-18 1.0km</title><desc>10058081424</desc></polyline><polyline fill="none" stroke="#4dd2ff" stroke-linecap="round" stroke-linejoin="round" stroke-width=".5" points="153.066 163.19 154.163 169.587 157.042 177.174 158.961 181.19 159.784 181.636 160.195 181.636 160.469 181.041 159.51 179.851 158.276 177.917 156.631 174.347 155.945 172.264 153.066 166.463 152.792 165.57 152.518 162"><title>2023-10-17 1.0km</title><desc>10051702317</desc></polyline><polyline fill="none" stroke="#4dd2ff" stroke-linecap="round" stroke-linejoin="round" stroke-width=".5" points="174.706 162.453 176.098 164.87 178.186 170.308 179.3 172.422 180.553 176.35 182.084 180.277 182.641 181.334 183.337 181.636 183.476 181.485 183.337 181.032 181.805 178.766 179.717 173.631 178.186 170.459 176.933 164.568 176.237 162"><title>2023-10-16 1.0km</title><desc>10046279660</desc></polyline><polyline fill="none" stroke="#4dd2ff" stroke-linecap="round" stroke-linejoin="round" stroke-width=".5" points="16.888 183.818 17.462 185.065 18.037 187.87 19.329 192.234 21.053 194.883 23.063 202.364 23.782 203.143 24.787 203.455 24.931 203.143 24.787 202.208 22.92 199.558 21.914 196.442 20.765 194.571 18.037 188.182 17.031 183.818"><title>2023-10-15 1.0km</title><desc>10039610121</desc></polyline><polyline fill="none" stroke="#4dd2ff" stroke-linecap="round" stroke-linejoin="round" stroke-width=".5" points="39.42 185.243 39.858 189.836 41.026 193.161 42.485 195.22 43.361 198.07 45.842 202.504 46.425 203.138 47.155 203.455 47.593 203.138 47.593 202.663 44.674 200.287 42.777 196.804 42.047 193.795 40.296 189.836 39.42 186.51 39.566 184.452 39.42 183.818"><title>2023-10-14 1.0km</title><desc>10033377496</desc></polyline><polyline fill="none" stroke="#4dd2ff" stroke-linecap="round" stroke-linejoin="round" stroke-width=".5" points="61.652 184.13 64.237 187.247 64.524 189.584 66.966 197.065 69.264 202.519 69.982 203.455 70.556 203.455 70.556 202.987 70.413 202.519 69.12 201.584 67.684 198.935 66.104 193.948 63.231 187.558 62.801 185.377 62.082 183.818"><title>2023-10-13 1.0km</title><desc>10028006924</desc></polyline><polyline fill="none" stroke="#4dd2ff" stroke-linecap="round" stroke-linejoin="round" stroke-width=".5" points="84.488 183.818 85.869 185.617 86.698 187.116 86.836 189.065 86.698 191.163 88.218 194.311 90.014 199.108 91.809 202.405 92.224 203.005 92.915 203.455 92.915 202.705 91.395 200.756 90.014 198.358 88.218 193.412 87.113 191.463 86.56 189.814"><title>2023-10-12 1.0km</title><desc>10021974100</desc></polyline><polyline fill="none" stroke="#4dd2ff" stroke-linecap="round" stroke-linejoin="round" stroke-width=".5" points="109.003 186.602 109.543 189.533 109.408 190.706 110.623 194.662 111.569 196.421 112.514 199.645 113.865 202.868 114.135 203.161 114.81 203.455 114.675 202.868 113.189 199.058 111.569 196.274 109.408 191.292 108.868 189.387 108.598 186.602 107.787 183.818"><title>2023-10-10 1.0km</title><desc>10009069592</desc></polyline><polyline fill="none" stroke="#4dd2ff" stroke-linecap="round" stroke-linejoin="round" stroke-width=".5" points="130.57 186.273 131.501 188.872 132.432 192.337 134.428 196.668 136.025 202.155 136.957 203.455 137.223 203.021 137.356 201.433 136.424 198.69 134.428 195.225 132.166 188.872 131.501 185.984 130.436 183.818"><title>2023-10-09 1.0km</title><desc>10003389142</desc></polyline><polyline fill="none" stroke="#4dd2ff" stroke-linecap="round" stroke-linejoin="round" stroke-width=".5" points="152.495 183.818 153.477 185.036 154.459 187.319 155.021 191.886 157.125 196.452 158.948 201.628 159.79 203.15 160.492 203.455 160.492 202.237 157.826 197.975 154.319 189.45 152.916 183.97"><title>2023-10-08 1.0km</title><desc>9996447828</desc></polyline><polyline fill="none" stroke="#4dd2ff" stroke-linecap="round" stroke-linejoin="round" stroke-width=".5" points="176.57 187.745 177.217 190.13 179.156 195.32 179.802 197.564 181.87 202.753 182.516 203.455 182.646 202.894 182.646 202.332 180.19 197.984 179.026 195.46 176.958 189.288 176.312 186.062 175.536 183.818"><title>2023-10-07 1.0km</title><desc>9989974159</desc></polyline><polyline fill="none" stroke="#4dd2ff" stroke-linecap="round" stroke-linejoin="round" stroke-width=".5" points="19.305 211.486 20.332 214.828 21.102 216.499 22.642 223.044 23.027 224.298 23.797 225.273 24.439 225.273 24.695 224.716 24.567 224.298 23.027 222.07 21.487 218.727 20.973 216.499 18.278 209.954 17.893 207.586 17.123 205.636"><title>2023-10-06 1.0km</title><desc>9984428862</desc></polyline><polyline fill="none" stroke="#4dd2ff" stroke-linecap="round" stroke-linejoin="round" stroke-width=".5" points="39.279 205.636 41.504 211.592 42.987 216.581 45.509 222.858 46.547 224.951 46.992 225.273 47.586 225.273 47.734 224.951 47.289 224.146 45.509 221.571 44.471 219.478 42.691 214.811 41.949 212.396 39.872 208.534 39.872 207.085"><title>2023-10-04 1.0km</title><desc>9971682885</desc></polyline><polyline fill="none" stroke="#4dd2ff" stroke-linecap="round" stroke-linejoin="round" stroke-width=".5" points="63.132 207.93 63.792 210.223 64.453 211.8 64.981 214.236 67.491 219.253 67.623 220.973 68.415 224.413 68.68 224.843 69.472 225.273 69.472 223.839 67.755 220.686 66.566 217.963 65.906 216.673 65.245 214.81 63.924 212.086 63.396 209.936 63.132 207.786 62.736 205.636"><title>2023-10-03 1.0km</title><desc>9965060084</desc></polyline><polyline fill="none" stroke="#4dd2ff" stroke-linecap="round" stroke-linejoin="round" stroke-width=".5" points="85.112 206.448 86.907 212.29 87.206 214.887 88.253 216.185 89 218.132 90.346 223.163 91.393 224.786 92.141 225.273 92.291 225.11 91.842 223.812 90.197 220.729 87.505 214.237 85.86 209.369 85.561 205.636"><title>2023-10-02 1.0km</title><desc>9958643020</desc></polyline><polyline fill="none" stroke="#4dd2ff" stroke-linecap="round" stroke-linejoin="round" stroke-width=".5" points="108.186 209.092 108.476 210.506 111.661 218.047 113.253 222.916 114.122 224.644 114.99 225.273 115.135 225.116 114.99 224.487 112.095 220.089 109.344 213.334 108.041 209.249 107.462 205.636"><title>2023-10-01 1.0km</title><desc>9952075403</desc></polyline><polyline fill="none" stroke="#4dd2ff" stroke-linecap="round" stroke-linejoin="round" stroke-width=".5" points="131.077 208.482 132.257 210.901 132.781 213.32 133.175 215.597 135.142 221.146 136.847 224.704 137.633 225.273 137.896 224.846 135.273 220.862 134.093 218.158 133.699 216.735 131.864 212.751 130.814 208.34 129.897 205.636"><title>2023-09-30 1.0km</title><desc>9945549317</desc></polyline><polyline fill="none" stroke="#4dd2ff" stroke-linecap="round" stroke-linejoin="round" stroke-width=".5" points="153.453 205.636 154.756 207.836 155.191 209.564 156.349 212.391 156.928 216.633 157.362 217.889 159.099 222.131 159.534 224.801 159.823 225.116 160.258 225.273 160.402 224.959 157.796 220.246 156.059 216.161 155.48 213.805 153.453 209.092 152.585 206.265"><title>2023-09-28 1.0km</title><desc>9933629332</desc></polyline><polyline fill="none" stroke="#4dd2ff" stroke-linecap="round" stroke-linejoin="round" stroke-width=".5" points="175.252 207.868 176.349 211.736 178.405 214.562 179.776 219.62 181.696 223.041 182.244 224.975 182.792 225.273 183.067 224.826 182.792 224.231 181.696 222.744 178.543 216.347 176.897 211.884 175.115 205.636"><title>2023-09-27 1.0km</title><desc>9927137811</desc></polyline><polyline fill="none" stroke="#4dd2ff" stroke-linecap="round" stroke-linejoin="round" stroke-width=".5" points="22.54 227.455 22.149 229.343 21.757 230.428 21.453 231.75 19.669 235.479 18.756 237.037 18.582 237.698 18.669 238.217 18.886 238.972 19.539 240.577 19.756 241.002 20.017 241.757 20.887 242.843 21.279 243.692 21.714 244.353 22.062 245.297 22.584 246.005 23.236 247.091"><title>2023-09-26 1.0km</title><desc>9920397094</desc></polyline><polyline fill="none" stroke="#4dd2ff" stroke-linecap="round" stroke-linejoin="round" stroke-width=".5" points="43.415 227.455 42.559 230.307 41.703 231.833 40.908 232.828 40.48 233.624 40.297 234.42 40.358 235.415 40.664 236.211 41.397 237.339 41.703 238.467 42.314 239.926 43.476 241.386 45.432 245.366 46.716 247.091"><title>2023-09-25 1.0km</title><desc>9914573673</desc></polyline><polyline fill="none" stroke="#4dd2ff" stroke-linecap="round" stroke-linejoin="round" stroke-width=".5" points="67.552 227.455 67.069 228.188 66.973 228.554 67.069 229.025 67.117 229.497 66.152 231.277 65.911 232.482 65.573 233.372 63.546 236.932 63.498 237.351 63.691 238.189 64.222 239.027 64.511 239.76 64.946 240.493 65.187 241.226 65.814 242.221 66.297 243.216 66.828 243.792 66.973 244.316 67.31 244.735 68.034 245.991 68.565 246.567 68.71 247.091"><title>2023-09-24 1.0km</title><desc>9907510217</desc></polyline><polyline fill="none" stroke="#4dd2ff" stroke-linecap="round" stroke-linejoin="round" stroke-width=".5" points="89.433 227.455 89.023 228.09 88.731 228.726 88.555 229.552 88.496 230.632 87.501 231.967 86.915 233.492 86.388 234.254 86.037 235.271 85.978 236.351 87.208 239.465 87.676 240.418 89.199 242.833 89.843 244.422 90.663 245.439 91.132 246.265 91.425 247.091"><title>2023-09-23 1.0km</title><desc>9901004991</desc></polyline><polyline fill="none" stroke="#4dd2ff" stroke-linecap="round" stroke-linejoin="round" stroke-width=".5" points="112.053 227.455 111.662 228.182 111.271 229.455 110.377 231.333 109.483 232.606 108.702 234.727 108.646 235.879 108.757 236.546 109.874 239.212 110.042 240 110.265 240.424 111.047 241.394 111.662 242.606 112.164 243.879 113.002 245.091 113.952 247.091"><title>2023-09-22 1.0km</title><desc>9895405405</desc></polyline><polyline fill="none" stroke="#4dd2ff" stroke-linecap="round" stroke-linejoin="round" stroke-width=".5" points="134.937 227.455 134.777 228.034 134.457 228.381 133.763 229.656 133.496 230.582 132.695 232.61 131.841 234.348 131.307 235.622 131.147 236.259 131.147 236.665 131.307 237.244 131.627 237.823 132.321 239.619 133.015 240.893 133.389 241.82 134.083 242.978 134.51 243.5 134.83 244.426 135.684 245.932 136.645 247.091"><title>2023-09-21 1.0km</title><desc>9889267953</desc></polyline><polyline fill="none" stroke="#4dd2ff" stroke-linecap="round" stroke-linejoin="round" stroke-width=".5" points="158.493 227.455 157.792 229.557 157.38 231.212 156.72 232.599 155.937 234.924 154.577 237.474 154.206 238.861 154.247 239.174 154.494 239.845 155.03 241.008 155.36 241.992 156.184 243.155 156.679 244.094 156.968 244.765 157.297 245.346 157.833 245.749 158.493 246.733 158.534 246.912 158.781 247.091"><title>2023-09-20 1.0km</title><desc>9882714971</desc></polyline><polyline fill="none" stroke="#4dd2ff" stroke-linecap="round" stroke-linejoin="round" stroke-width=".5" points="180.719 227.455 180.3 228.515 179.51 230.837 179.463 231.594 179.184 231.998 178.858 232.755 178.672 233.462 178.3 234.421 177.23 236.137 176.951 237.147 176.858 238.055 176.951 238.964 177.23 239.973 177.556 240.68 178.579 242.447 179.091 243.154 179.556 244.416 180.021 245.223 180.486 245.879 180.998 246.384 181.324 247.091"><title>2023-09-19 1.0km</title><desc>9876194288</desc></polyline><polyline fill="none" stroke="#4dd2ff" stroke-linecap="round" stroke-linejoin="round" stroke-width=".5" points="20.765 249.273 20.418 249.837 19.84 250.967 19.666 251.719 18.625 253.539 17.816 255.233 17.643 255.86 17.7 256.55 18.047 257.428 18.568 258.37 19.03 259.687 19.666 261.067 20.36 262.322 20.996 263.137 21.747 264.392 22.21 265.835 23.019 267.09 23.424 268.219 24.176 268.909"><title>2023-09-18 1.0km</title><desc>9870505463</desc></polyline><polyline fill="none" stroke="#4dd2ff" stroke-linecap="round" stroke-linejoin="round" stroke-width=".5" points="43.704 249.273 43.422 249.823 43.027 251.658 42.52 252.515 42.294 253.188 41.054 255.207 40.603 256.308 40.321 257.286 40.547 257.959 41.787 260.651 42.407 261.63 42.858 262.67 43.591 263.648 43.986 264.321 44.493 265.912 46.692 268.909"><title>2023-09-16 1.0km</title><desc>9856514700</desc></polyline><polyline fill="none" stroke="#4dd2ff" stroke-linecap="round" stroke-linejoin="round" stroke-width=".5" points="65.832 249.273 65.229 251.105 64.445 252.349 62.816 255.491 62.756 256.211 62.816 257.062 63.178 257.913 63.782 258.829 64.324 260.073 65.29 261.709 66.496 264 66.617 264.851 67.039 265.178 67.521 265.833 68.306 267.142 69.15 267.862 69.331 268.32 69.452 268.909"><title>2023-09-15 1.0km</title><desc>9850671982</desc></polyline><polyline fill="none" stroke="#4dd2ff" stroke-linecap="round" stroke-linejoin="round" stroke-width=".5" points="89.201 249.273 88.202 251.914 87.079 253.539 86.58 254.419 85.831 256.315 85.644 256.992 85.644 257.534 85.831 258.211 86.58 260.242 87.266 261.596 88.951 264.508 89.637 265.794 89.762 266.539 90.261 267.013 91.073 268.3 91.759 268.909"><title>2023-09-14 1.0km</title><desc>9844236351</desc></polyline><polyline fill="none" stroke="#4dd2ff" stroke-linecap="round" stroke-linejoin="round" stroke-width=".5" points="108.178 249.273 108.537 249.565 108.672 249.857 108.762 250.491 109.031 251.027 109.211 252.537 109.211 253.268 109.121 253.658 109.211 254.145 109.435 254.73 109.345 255.217 109.39 255.461 109.839 256.289 110.243 257.507 110.603 258.19 111.052 258.823 111.546 259.262 111.68 259.554 111.815 260.187 112.174 260.821 112.578 261.99 113.117 263.013 113.387 263.89 113.521 264.621 113.791 265.206 114.285 266.814 114.958 268.081 115.003 268.276 114.958 268.422 114.42 268.909 114.689 268.714 114.824 268.422 114.913 268.178 114.869 267.837 114.599 267.496 113.791 265.742 113.387 264.426 112.534 262.526 112.129 260.675 111.905 260.139 111.052 259.018 110.199 257.41 109.794 256.094 109.66 255.217 109.3 254.292 108.582 252.732 108.402 252.001 107.774 250.832 107.639 250.199 107.594 249.419"><title>2023-09-13 1.0km</title><desc>9837636972</desc></polyline></svg>