<?xml version="1.0" encoding="utf-8" ?>
<svg baseProfile="full" height="300mm" version="1.1" viewBox="0,0,200,300" width="200mm" xmlns="http://www.w3.org/2000/svg" xmlns:ev="http://www.w3.org/2001/xml-events" xmlns:xlink="http://www.w3.org/1999/xlink"><defs /><rect fill="#222222" height="300" width="200" x="0" y="0" /><text fill="#FFFFFF" style="font-size:12px; font-family:Arial; font-weight:bold;" x="10" y="20">Over 1km Runs</text><text fill="#FFFFFF" style="font-size:4px; font-family:Arial" x="10" y="280">ATHLETE</text><text fill="#FFFFFF" style="font-size:9px; font-family:Arial" x="10" y="290">Jiakai</text><text fill="#FFFFFF" style="font-size:4px; font-family:Arial" x="120" y="280">STATISTICS</text><text fill="#FFFFFF" style="font-size:3px; font-family:Arial" x="120" y="285">Number: 74</text><text fill="#FFFFFF" style="font-size:3px; font-family:Arial" x="120" y="290">Weekly: 5.7</text><text fill="#FFFFFF" style="font-size:3px; font-family:Arial" x="141" y="285">Total: 76.5 km</text><text fill="#FFFFFF" style="font-size:3px; font-family:Arial" x="141" y="290">Avg: 1.0 km</text><text fill="#FFFFFF" style="font-size:3px; font-family:Arial" x="167" y="285">Min: 1.0 km</text><text fill="#FFFFFF" style="font-size:3px; font-family:Arial" x="167" y="290">Max: 1.5 km</text><polyline fill="none" points="17.5306627266109,32.82430888223462 18.44418416218832,34.24039847229142 19.61871172254905,38.34705239557661 21.967766842339188,44.152996451826766 23.142294402699918,48.11802135966718 24.186318900436163,50.38374621444382 24.969337273854762,51.375 24.969337273854762,50.66696163348388 21.576257655397058,42.87852242635563 20.271227033808827,38.48866099573206 18.83569334866479,35.23166056594346 17.791668850462884,31.125" stroke="#4dd2ff" stroke-linecap="round" stroke-linejoin="round" stroke-width="0.5"><title>2023-12-04 1.0km</title><desc>10324662812</desc></polyline><polyline fill="none" points="40.2329415678978,32.994238877203315 41.668475622311234,38.44617618306074 43.965330108534545,43.58656136528589 45.544417567551136,49.038471416104585 46.69284481089562,51.219231507973745 47.554165243171155,51.375 47.554165243171155,50.75192596309353 46.54929140582681,49.038471416104585 45.257310756947845,45.30002032138873 43.82177670300007,43.11925413669087 42.81690286565572,40.47117789497133 41.09426200063899,34.24039721232839 39.945834757294506,31.125" stroke="#4dd2ff" stroke-linecap="round" stroke-linejoin="round" stroke-width="0.5"><title>2023-12-02 1.0km</title><desc>10313350310</desc></polyline><polyline fill="none" points="62.574163341429085,32.19886857050005 63.98794667189941,34.039784834720194 65.6844866676256,39.869342289399356 66.81551333190873,44.62502183509059 68.65343166096136,49.84091597085353 69.78445832477883,51.375 69.92583665857092,50.45454971771687 69.64307999238372,48.61364793498069 68.08791832858697,45.23865711595863 65.6844866676256,41.40343364945147 64.2707033380866,38.4886591010727 62.85692000715062,31.125" stroke="#4dd2ff" stroke-linecap="round" stroke-linejoin="round" stroke-width="0.5"><title>2023-12-01 1.0km</title><desc>10308709030</desc></polyline><polyline fill="none" points="85.0176109103486,31.125 87.81690272688866,40.74377227539662 90.61619454342872,46.48126636992674 92.1713566640392,50.700002878322266 92.63790530059487,51.375 92.79342151246965,50.86875217733905 92.1713566640392,49.18125862872694 89.83861348312348,45.97501746809576 89.21654863562435,44.287520321668126 86.88380545470864,39.731271829106845 85.79519197065383,34.50001240626443 84.70657848659903,31.46250146406237" stroke="#4dd2ff" stroke-linecap="round" stroke-linejoin="round" stroke-width="0.5"><title>2023-11-30 1.0km</title><desc>10303537703</desc></polyline><polyline fill="none" points="108.93334666127339,35.45432848704513 109.83426740439609,38.38709379185457 110.22037629410625,40.76123381732032 111.63610888971016,43.55433593096677 113.18054444855079,47.743981400853954 114.72498000692576,51.09569112374447 114.9823859333992,51.375 115.23979185940698,51.09569112374447 114.9823859333992,50.11810973205138 113.95276222750545,48.30260009842459 112.53702963190153,44.3922657641815 110.47778222057968,40.2026129020378 109.7055644406937,35.733639663551 108.16112888185307,33.35949335433543 107.26020814012736,31.125" stroke="#4dd2ff" stroke-linecap="round" stroke-linejoin="round" stroke-width="0.5"><title>2023-11-29 1.0km</title><desc>10298007687</desc></polyline><polyline fill="none" points="130.25927883014083,33.747313821921125 131.73612240189686,37.53509432740975 132.00463941460475,40.30308319476899 133.88425850635394,44.81926725700032 134.95832655904815,48.89839240151923 135.89813610492274,50.792269078898244 136.83794565079734,51.375 137.2407211707905,51.375 137.50923818396404,50.93795182532631 137.37497967714444,50.35522077570204 136.83794565079734,49.33544102625456 134.6898095458746,43.65380138740875 132.54167344141752,38.700563795515336 132.13889792142436,36.36962417385075 131.1990883750841,33.60162981192116 129.99076181603596,31.125" stroke="#4dd2ff" stroke-linecap="round" stroke-linejoin="round" stroke-width="0.5"><title>2023-11-28 1.0km</title><desc>10292316108</desc></polyline><polyline fill="none" points="155.77453567041084,31.125 156.96319649508223,34.34953793894965 157.6763929896988,37.445088784676045 158.6273216488771,38.863881096825935 159.69711639126763,40.9275769572705 160.76691113319248,44.28107755351812 161.7178397923708,45.828844897216186 161.7178397923708,46.602728057070635 161.12350938050076,47.118649974116124 159.2216520612128,48.150493353023194 158.03299123700708,49.18233612482436 156.84433041280136,49.827237549005076 155.06133917579427,50.601118945283815 152.208553197328,51.375 151.73308886773884,51.246019848273136 151.37649062043056,50.8590793350013 150.7821602076292,48.408454102813266" stroke="#4dd2ff" stroke-linecap="round" stroke-linejoin="round" stroke-width="0.5"><title>2023-11-27 1.0km</title><desc>10287544518</desc></polyline><polyline fill="none" points="176.79245392326266,35.51487821305636 177.44496928201988,37.0725745287491 179.01100614434108,45.00264533329755 180.70754607766867,49.10927631123923 181.62106758076698,50.666961633600295 182.2735829395242,51.375 182.40408601192757,51.23339234746527 182.01257679611444,50.5253539289115 182.01257679611444,49.392491918290034 180.96855222107843,46.98515793308616 179.79402457503602,43.0201306930976 178.61949692852795,40.612788743688725 177.83647849736735,36.08131338271778 175.61792627628893,32.54109083930962 175.0959139885381,31.125" stroke="#4dd2ff" stroke-linecap="round" stroke-linejoin="round" stroke-width="0.5"><title>2023-11-26 1.0km</title><desc>10281488289</desc></polyline><polyline fill="none" points="17.56276023760438,55.29166666662786 19.06775605864823,59.2110359123908 20.42225229833275,64.76346383988857 21.776748538017273,67.86628516553901 22.077747702598572,69.82595955929719 22.83024561405182,71.62232623505406 24.485741017386317,74.72513798053842 25.23823892790824,75.54166666662786 25.53923809248954,75.54166666662786 23.281744359992445,70.64249004633166 22.980745195411146,69.00942877214402 21.475749374367297,66.88644732057583 18.465757730416954,58.72111513547134 16.960761908441782,55.944895354798064" stroke="#4dd2ff" stroke-linecap="round" stroke-linejoin="round" stroke-width="0.5"><title>2023-11-25 1.0km</title><desc>10275889695</desc></polyline><polyline fill="none" points="39.82575725950301,55.48091974109411 40.87222198955715,60.212242065463215 45.7557240659371,73.45989831234328 46.97659958526492,75.35241506807506 47.49983195029199,75.54166666674428 47.67424273956567,74.97391182789579 45.93013485427946,72.70289122057147 43.837205393239856,66.45757421874441 42.44191908556968,63.618788754567504 41.569865143857896,58.1304613139946 40.523400412872434,55.29166666674428" stroke="#4dd2ff" stroke-linecap="round" stroke-linejoin="round" stroke-width="0.5"><title>2023-11-24 1.0km</title><desc>10271180196</desc></polyline><polyline fill="none" points="63.7321199523285,57.54167593049351 64.17645172588527,58.82739446940832 65.21322586201131,64.29168982524425 67.73110591061413,72.00596589781344 68.91599063854665,75.22023956058547 69.36032241117209,75.54166666662786 69.95276477560401,75.54166666662786 70.10087536741048,75.22023956058547 69.80465418472886,73.6131033198908 68.17543768323958,68.95240154094063 63.88023054320365,59.63096817256883 62.39912463352084,55.29166666662786" stroke="#4dd2ff" stroke-linecap="round" stroke-linejoin="round" stroke-width="0.5"><title>2023-11-23 1.0km</title><desc>10265414399</desc></polyline><polyline fill="none" points="86.97580239595845,59.85506540059578 87.10722444113344,61.85154897056054 87.63291261997074,64.98887614335399 89.7356653357856,70.97830483713187 90.39277555933222,73.83040723903105 91.44415191700682,75.54166666662786 92.23268418526277,75.54166666662786 92.1012621410191,74.68603714136407 90.65561964828521,70.97830483713187 89.47282124590129,69.1244360273704 87.7643346642144,63.848030486144125 85.79300399310887,58.42900444951374 85.26731581473723,55.29166666662786" stroke="#4dd2ff" stroke-linecap="round" stroke-linejoin="round" stroke-width="0.5"><title>2023-11-21 1.0km</title><desc>10253878272</desc></polyline><polyline fill="none" points="109.07050360320136,60.7606648724759 109.75159622682258,65.19497682049405 112.61218524770811,72.4376653037034 113.8381519713439,75.09823819377925 114.24680754588917,75.54166666662786 114.51924459589645,75.39385718666017 114.65546312043443,75.09823819377925 114.11058902135119,72.73328468750697 111.6586555740796,67.4121291275369 110.70512590091676,64.6037357924506 109.20672212773934,58.83912665722892 108.38941097864881,57.36101908842102 107.84453687956557,55.29166666662786" stroke="#4dd2ff" stroke-linecap="round" stroke-linejoin="round" stroke-width="0.5"><title>2023-11-20 1.0km</title><desc>10248671423</desc></polyline><polyline fill="none" points="130.14485171297565,56.97917417238932 132.12414881167933,61.27464166539721 132.68966226885095,65.72350939013995 134.24482427490875,69.25191497895867 135.79998628096655,73.70076569588855 136.50687810219824,74.77462479262613 137.35514828702435,75.54166666662786 137.21376992342994,74.3143995332066 134.81033773208037,68.02464414632414 133.25517572602257,62.348507156944834 131.7000137194991,58.66668031353038 130.85174353420734,55.29166666662786" stroke="#4dd2ff" stroke-linecap="round" stroke-linejoin="round" stroke-width="0.5"><title>2023-11-19 1.0km</title><desc>10242265034</desc></polyline><polyline fill="none" points="152.31435108883306,73.33433595346287 153.19876657472923,70.55117451550905 153.55253276927397,69.8793760377448 154.1716236085631,69.495491038193 157.17863625986502,69.1116059256019 159.38967497413978,68.63174937595613 160.09720736276358,68.05592128355056 160.53941510571167,67.48009293735959 161.0700643970631,65.08080542599782 160.89318129979074,64.31303249078337 161.2469474938698,63.737202493008226 160.9816228481941,59.322497401502915 160.8047397513874,58.74666520184837 160.71629820251837,57.0191670776112 160.53941510571167,55.96347265399527 159.56655807141215,55.67555584467482 158.770584134385,56.251389399403706 158.9474672311917,55.96347265399527 159.12435032846406,56.251389399403706 157.97461019689217,55.67555584467482 157.88616864895448,55.29166666662786 157.6208440028131,55.483611269737594 157.79772710008547,55.3876389717916 157.17863625986502,56.15541715803556 157.26707780873403,56.05944490956608 159.12435032846406,57.0191670776112 158.68214258598164,57.40305574727245 157.97461019689217,57.69097217544913 156.2942207744345,57.97888854006305 156.2057792255655,57.59500003955327 156.64798696851358,57.40305574727245 157.26707780873403,57.49902789702173 159.12435032846406,55.67555584467482 161.6891552368179,55.77152812143322 161.42383059114218,55.57958356058225 161.0700643970631,55.483611269737594 160.8047397513874,60.090273272944614 160.89318129979074,61.43387996091042 161.1585059450008,63.06540050776675 161.33538904273883,65.84857790963724 161.33538904273883,66.80829287879169 161.0700643970631,67.76800714212004 160.53941510571167,68.34383536165114 156.11733767716214,68.82369201700203 154.08318206015974,69.20757721434347 153.02188347745687,69.97534727002494 151.78370179748163,71.70282824407332 151.07616940885782,74.19807450321969 150.8108447631821,75.54166666662786" stroke="#4dd2ff" stroke-linecap="round" stroke-linejoin="round" stroke-width="0.5"><title>2023-11-18 1.0km</title><desc>10236386505</desc></polyline><polyline fill="none" points="174.61771481391042,55.29166666662786 177.55030430061743,60.354186206590384 178.61670047743246,64.1149065750651 179.01659904420376,66.28454967110883 179.81639617681503,67.58633438055404 182.34908709675074,74.96309813065454 182.8822851856239,75.54166666662786 182.8822851856239,74.96309813065454 182.34908709675074,74.2398872213671 180.88279235363007,69.9006161816651 180.0829952210188,68.45419037493411 179.81639617681503,65.99526406347286 178.61670047743246,62.95776261156425 177.28370525641367,60.06489972700365 177.1504057343118,58.47382332687266" stroke="#4dd2ff" stroke-linecap="round" stroke-linejoin="round" stroke-width="0.5"><title>2023-11-17 1.0km</title><desc>10231268371</desc></polyline><polyline fill="none" points="17.638010825030506,80.11156202177517 19.59450496174395,82.88778180221561 20.04600360803306,86.64383833552711 21.40049954969436,89.58335640921723 23.50749323517084,97.42205225571524 24.861989175900817,99.70833333337214 24.711489626206458,98.4018872914603 23.657992783933878,96.27891083422583 22.90549503918737,94.1559323478723 21.701498647220433,89.0934370001778 19.293505864217877,84.03093011502642 18.54100811854005,81.74463290069252 18.089509471319616,79.45833333337214" stroke="#4dd2ff" stroke-linecap="round" stroke-linejoin="round" stroke-width="0.5"><title>2023-11-16 1.0km</title><desc>10225818993</desc></polyline><polyline fill="none" points="40.23834346886724,79.67607600498013 41.241673906333745,83.59544136095792 42.84700260683894,87.95028567290865 45.05432956852019,92.08738183928654 45.856993918307126,95.35350630921312 47.261656530201435,98.18414460332133 48.66631914302707,99.70833333325572 45.05432956852019,92.95834871660918 43.449000868946314,87.95028567290865 38.833680857904255,79.45833333325572" stroke="#4dd2ff" stroke-linecap="round" stroke-linejoin="round" stroke-width="0.5"><title>2023-11-15 1.0km</title><desc>10219684298</desc></polyline><polyline fill="none" points="62.67195953754708,81.89443403633777 64.49605859722942,84.17827584256884 64.77668922115117,87.0711385149043 66.88141890522093,92.09557460516226 68.14425671473145,96.3587229406694 69.4070945251733,99.5560784334084 69.96835577394813,99.70833333337214 69.8280404615216,97.88127379107755 68.00394140277058,95.44519189326093 67.30236484110355,93.31361788243521 66.1798423435539,91.9433191451244 65.75889640673995,90.2685083465185 63.65416672360152,86.00534747436177 62.952590161934495,82.96022719249595 62.531644225586206,79.45833333337214" stroke="#4dd2ff" stroke-linecap="round" stroke-linejoin="round" stroke-width="0.5"><title>2023-11-14 1.0km</title><desc>10213806154</desc></polyline><polyline fill="none" points="86.04537082230672,82.24638900742866 87.12722249375656,86.35509553411976 90.10231458954513,93.98552807257511 90.77847188385203,96.4800862291595 92.13078647339717,99.26811812655069 92.53648085007444,99.70833333337214 91.72509209671989,98.24094893329311 89.83185167144984,93.69205043767579 89.69662021286786,92.51813946524635 88.34430562378839,89.28988073195796 86.31583374040201,85.62139856035355 85.5044449865818,83.12682683218736 84.96351915039122,79.45833333337214" stroke="#4dd2ff" stroke-linecap="round" stroke-linejoin="round" stroke-width="0.5"><title>2023-11-13 1.0km</title><desc>10208522228</desc></polyline><polyline fill="none" points="108.98794633941725,81.75947959395126 110.40172987710685,86.0549458238529 112.09827012289315,89.58335789793637 113.08791859960184,93.72539924143348 114.07756707584485,96.6401641467819 115.34997226018459,99.40151661774144 115.91548567498103,99.70833333337214 116.19824238307774,99.09469985682517 114.64308049110696,96.02652976836544 113.79481036867946,92.65153746039141 110.68448658520356,89.73676698305644 108.98794633941725,87.28222026536241 108.70518963132054,84.67426121421158 106.30175761692226,79.45833333337214" stroke="#4dd2ff" stroke-linecap="round" stroke-linejoin="round" stroke-width="0.5"><title>2023-11-12 1.0km</title><desc>10202270880</desc></polyline><polyline fill="none" points="130.68609941005707,83.23633354611229 134.02853641752154,90.79231313825585 135.1426820862107,94.57029251893982 136.25682775583118,97.59267102414742 136.9531687987037,98.95273990172427 137.64950984157622,99.70833333337214 137.788778050337,99.1038586103823 136.5353641724214,95.32588756165933 134.16780462581664,91.69902882294264 131.66097687045112,85.95648939884268 130.68609941005707,81.87625426938757 129.71122194919735,79.45833333337214" stroke="#4dd2ff" stroke-linecap="round" stroke-linejoin="round" stroke-width="0.5"><title>2023-11-11 1.0km</title><desc>10196068378</desc></polyline><polyline fill="none" points="154.3674343591556,82.47808094252832 156.65925339981914,89.40572296222672 158.78737108130008,95.08992722025141 159.76957924105227,98.82017899723724 160.42438468150795,99.70833333325572 160.75178740173578,99.35307163791731 160.26068332139403,97.22150036902167 157.80516292061657,91.71493255463429 155.3496425198391,86.5636158187408 152.07561531756073,81.41228810022585 151.7482125973329,79.45833333325572" stroke="#4dd2ff" stroke-linecap="round" stroke-linejoin="round" stroke-width="0.5"><title>2023-11-10 1.0km</title><desc>10191120477</desc></polyline><polyline fill="none" points="174.0489014852792,80.07665683049709 176.47067950852215,81.93162623164244 177.89525481592864,84.40491622011177 178.32262740842998,85.33239921589848 178.32262740842998,86.72362294245977 179.88966024620458,91.5156087318901 180.45949036907405,94.29804708203301 181.59915061527863,97.38964092999231 181.88406567648053,98.93543614959344 182.59635333064944,99.70833333337214 183.02372592221946,99.5537539194338 183.4510985147208,98.93543614959344 181.88406567648053,97.85337961546611 179.31983012333512,94.14346727007069 176.32822197815403,85.95072098588571 175.61593432398513,81.31330327957403 174.9036466702819,79.45833333337214" stroke="#4dd2ff" stroke-linecap="round" stroke-linejoin="round" stroke-width="0.5"><title>2023-11-09 1.0km</title><desc>10185506531</desc></polyline><polyline fill="none" points="17.299665975384414,105.25091993960086 18.7980685364455,108.20713464240544 19.342942194547504,109.68524036393501 21.113781585358083,113.52831015421543 21.794873658567667,116.1888926285319 21.65865524392575,114.56298153463285 21.931092073675245,115.59765238279942 22.47596573131159,119.58852066658437 23.7019314635545,123.28376201470383 24.24680512258783,123.875 24.927897195331752,123.57938102865592 25.200334024615586,123.13595249096397 23.7019314635545,121.80566629045643 22.612184146419168,120.03194998705294 21.931092073675245,118.11042222601827 20.977563170250505,114.85860183159821 19.615379024297,112.93706912617199 18.116976462770253,109.68524036393501 17.708321218844503,107.32027068792377 17.84453963348642,104.36405468103476 17.572102804202586,103.625" stroke="#4dd2ff" stroke-linecap="round" stroke-linejoin="round" stroke-width="0.5"><title>2023-11-08 1.0km</title><desc>10179505859</desc></polyline><polyline fill="none" points="42.83647836279124,114.81208925554529 47.40408654883504,123.875 47.66509273042902,123.73339234781452 47.01257727574557,122.17570748343132 45.838049456477165,120.19319765258115 45.05503091029823,118.21068578166887 43.48899381747469,116.51138826808892 42.966981454286724,115.52013069286477 42.575472180731595,112.12152941920795 42.31446599867195,111.13026958494447 40.748428906314075,108.43970460584387 39.83490726957098,103.625" stroke="#4dd2ff" stroke-linecap="round" stroke-linejoin="round" stroke-width="0.5"><title>2023-11-06 1.0km</title><desc>10167691585</desc></polyline><polyline fill="none" points="64.30325079616159,109.30667556147091 65.2430607569404,111.05488014931325 68.73378346674144,119.06746477528941 70.21062769088894,123.58363456081133 70.4791448218748,123.875 70.74766195332631,123.875 70.74766195332631,123.43795182509348 69.67359342705458,121.10702659829985 68.73378346674144,119.79587995330803 68.59952490124851,119.06746477528941 67.7939735064283,118.19336620881222 65.51157788839191,114.25991788762622 62.826406572479755,107.41278551763389 61.752338046673685,103.625" stroke="#4dd2ff" stroke-linecap="round" stroke-linejoin="round" stroke-width="0.5"><title>2023-11-05 1.1km</title><desc>10161301187</desc></polyline><polyline fill="none" points="84.96351998578757,103.625 87.66814856696874,109.64132579986472 88.88523142877966,114.92393837927375 90.77847143588588,118.59241111110896 91.45462858164683,121.52718444226775 92.13078572647646,123.875 92.53648001421243,123.43478479317855 92.40124858450145,122.99456948938314 90.64324000710621,119.76632096152753 90.50800857739523,119.32610484852921 88.88523142877966,116.83154504140839 88.20907428301871,114.48372119839769 86.45106570562348,111.2554589046631 86.04537141835317,108.46740999480244 85.23398284381256,105.53261746116914" stroke="#4dd2ff" stroke-linecap="round" stroke-linejoin="round" stroke-width="0.5"><title>2023-11-04 1.0km</title><desc>10155501797</desc></polyline><polyline fill="none" points="116.68291300861165,106.70096452429425 115.14752454962581,104.65032211167272 114.20267011318356,104.00949586252682 112.31296124076471,103.625 110.54135917266831,103.75316529721022 108.06111627677456,104.90665254509076 106.99815503554419,105.93197390250862 106.05330059956759,107.85444982117042 105.81708699045703,109.3924290293362 105.46276657702401,114.5190165862441 105.69898018566892,119.90191728936043 105.93519379524514,120.67090174683835 107.1162618403323,122.59336140565574 108.53354349546134,123.61867235659156 110.89567958610132,123.875 113.0216020680964,122.97785308305174 115.02941774576902,120.54273769422434 115.6199517683126,119.38926079589874 116.44669939996675,115.67249670787714 116.44669939996675,112.72471265657805 117.03723342251033,108.87976944388356 116.91912661818787,107.46995480707847 115.6199517683126,105.93197390250862 114.55699052708223,105.16298294090666 112.07674763118848,104.00949586252682 110.77757278131321,104.00949586252682 107.94300947291777,104.90665254509076 106.64383462257683,106.06013902975246 105.81708699045703,107.5981198210502 105.58087338134646,108.62343959498685 105.81708699045703,112.85287728451658 105.58087338134646,114.77534556796309" stroke="#4dd2ff" stroke-linecap="round" stroke-linejoin="round" stroke-width="0.5"><title>2023-11-03 1.0km</title><desc>10152446508</desc></polyline><polyline fill="none" points="129.55896987952292,103.625 130.66603443957865,106.02755155786872 131.61494691949338,110.31781604560092 133.19646772090346,113.4068015946541 135.5687489202246,119.58476042887196 136.04320516064763,120.61441864538938 136.83396556135267,123.360171667533 137.3084218017757,123.875 137.9410301214084,123.875 137.9410301214084,123.53178112418391 136.83396556135267,123.0169527165126 136.35950932092965,121.81568599003367 135.2524447608739,120.78602830367163 134.4616843611002,118.55510175903328 133.35461980011314,116.83900296594948 132.0894031599164,114.26485241041519 130.66603443957865,108.94493226753548 129.7171219587326,106.71399440569803" stroke="#4dd2ff" stroke-linecap="round" stroke-linejoin="round" stroke-width="0.5"><title>2023-11-02 1.1km</title><desc>10144903556</desc></polyline><polyline fill="none" points="152.8015983053483,105.0923982084496 153.07206118293107,106.70653499208856 154.15391269512475,109.20110745343845 156.04715284146369,115.95111142355017 159.29270737851039,122.70109256613068 160.23932745074853,123.875 159.69840169558302,122.11413859052118 157.6699301097542,119.03262738557532 156.5880785980262,115.07067741767969 155.2357642077841,113.16306907287799 153.6129869390279,109.64132579963189 152.2606725487858,103.625" stroke="#4dd2ff" stroke-linecap="round" stroke-linejoin="round" stroke-width="0.5"><title>2023-11-01 1.0km</title><desc>10138966680</desc></polyline><polyline fill="none" points="175.80337887629867,103.92951274476945 176.50495533458889,106.2133569016587 177.6274776677601,112.30359567410778 179.45157645829022,116.26224127190653 180.57409879099578,119.9163689535344 182.39819758245721,123.875 182.538512873929,123.72274509933777 181.275675249286,121.89568542258348 179.45157645829022,117.63253990781959 177.90810825070366,114.89194172876887 175.2421177108772,106.82238158478867 174.96148712653667,103.625" stroke="#4dd2ff" stroke-linecap="round" stroke-linejoin="round" stroke-width="0.5"><title>2023-10-31 1.0km</title><desc>10133123337</desc></polyline><polyline fill="none" points="18.070559663232416,130.19167716510128 18.76174234552309,133.79168761963956 18.76174234552309,135.1416899022879 20.28234424535185,137.69169177673757 24.429440336767584,146.5416735591134 25.120623019058257,147.8916674052598 25.397096091415733,148.04166666662786 22.21765575464815,141.74168820353225 20.835290391463786,137.84169178793672 19.314688490703702,134.69168924051337 17.102903908584267,127.79166666662786" stroke="#4dd2ff" stroke-linecap="round" stroke-linejoin="round" stroke-width="0.5"><title>2023-10-30 1.0km</title><desc>10127985445</desc></polyline><polyline fill="none" points="40.557827468030155,130.7226017251378 41.17170680081472,134.85254762531258 41.54003440076485,136.1847862303257 43.99555173330009,141.9134010715643 45.223310398869216,145.24398277048022 47.06494839815423,147.77522076736204 47.55605186522007,148.04166666662786 47.67882773093879,147.6419978030026 46.57384493201971,145.91009837540332 44.97775866603479,142.44629455474205 42.153913733549416,137.25057640939485 41.04893093416467,133.3870840285672 40.18949986761436,131.65517097723205 40.066724001429975,128.9906861272175 39.82117226859555,127.79166666662786" stroke="#4dd2ff" stroke-linecap="round" stroke-linejoin="round" stroke-width="0.5"><title>2023-10-28 1.0km</title><desc>10115543824</desc></polyline><polyline fill="none" points="63.62350542237982,131.9916831862647 64.72939787618816,135.59169046452735 65.97352688619867,138.44169172167312 67.07941934000701,142.49168665974867 68.73825802095234,146.39167418773286 69.42944080382586,147.89166740584187 70.12062358716503,148.04166666662786 70.25886014429852,147.89166740584187 69.98238703096285,146.99167160713114 69.15296769049019,144.7416803742526 66.38823655666783,139.34169129177462 64.17645164905116,133.34168666007463 62.79408608190715,130.3416777276434 62.241139855235815,127.79166666662786" stroke="#4dd2ff" stroke-linecap="round" stroke-linejoin="round" stroke-width="0.5"><title>2023-10-27 1.0km</title><desc>10110442644</desc></polyline><polyline fill="none" points="86.00559645984322,130.91851812019013 88.61277982359752,139.70345589309 89.57332106260583,142.3835988137871 90.5338623020798,144.02146218635608 91.63162371795624,147.14828858268447 92.04328424902633,147.74387401598506 92.8666053111665,148.04166666662786 93.00382548756897,147.59497767395806 92.8666053111665,146.99939219711814 91.49440354062244,145.21263471641578 89.43610088573769,141.6391150249401 86.96613769978285,134.34315941098612 85.31949557503685,131.66300584981218 84.49617451289669,127.79166666662786" stroke="#4dd2ff" stroke-linecap="round" stroke-linejoin="round" stroke-width="0.5"><title>2023-10-26 1.0km</title><desc>10104873905</desc></polyline><polyline fill="none" points="110.2357644313015,137.47647490771487 113.34608684293926,145.2536353842588 114.83363234438002,147.89492827525828 115.37455798033625,148.04166666662786 115.23932657158002,146.57428226654883 111.58807852305472,140.26451705396175 109.55960738519207,135.12864692218136 107.80159906577319,131.46016016590875 107.12544201966375,127.79166666662786" stroke="#4dd2ff" stroke-linecap="round" stroke-linejoin="round" stroke-width="0.5"><title>2023-10-25 1.0km</title><desc>10098978222</desc></polyline><polyline fill="none" points="130.00399029208347,127.79166666662786 129.86777175730094,128.8263431439409 130.68508296646178,132.225990677136 131.77483124518767,134.44314901495818 132.45592391910031,137.10373579268344 133.68189073260874,140.6511793526588 136.27004289394245,145.67671368212905 137.08735410310328,147.74604769563302 137.359791173134,148.04166666662786 137.63222824316472,147.89385718642734 137.49600970791653,145.97233295696788 135.99760582484305,143.16394808748737 134.90785754658282,141.53803926485125 133.54567219736055,138.4340278612217 133.27323512826115,136.80811521364376 131.63861270993948,134.29533853533212 130.68508296646178,132.07818003429566 130.41264589643106,129.4175866061123 130.00399029208347,127.79166666662786" stroke="#4dd2ff" stroke-linecap="round" stroke-linejoin="round" stroke-width="0.5"><title>2023-10-24 1.0km</title><desc>10092835699</desc></polyline><polyline fill="none" points="154.1689931480214,131.28808432491496 156.18287074705586,138.42658455425408 157.1226802924648,140.17478477221448 158.19674834469333,144.5452785693342 159.80785042373464,147.4589357455261 160.47914295690134,148.04166666662786 159.80785042373464,147.31325298827142 158.86804087786004,144.9823274188675 156.45138775976375,142.06866660097148 155.91435373341665,141.04888430284336 155.3773197075352,137.6981673417613 153.7662176284939,134.49312842520885 152.69214957626536,131.14240037905984 152.02085704356432,127.79166666662786" stroke="#4dd2ff" stroke-linecap="round" stroke-linejoin="round" stroke-width="0.5"><title>2023-10-23 1.0km</title><desc>10087395010</desc></polyline><polyline fill="none" points="172.1937756354455,127.88879045064095 172.55179471336305,127.79166666668607 175.10268064355478,127.98591422027675 176.22149026207626,128.27728544350248 176.49000457045622,128.4229710069485 177.0717855724506,128.86002750432817 177.47455703490414,129.345645495574 178.36960472958162,130.99674399476498 178.8171285772696,132.84208449162543 179.39890957879834,133.81331426108954 179.6674238871783,134.59029704832938 180.29395727347583,135.9985760205891 180.74148112116382,137.45541317679454 181.41276689223014,138.62088058807421 181.7260335853789,138.9608081956394 182.12880504806526,139.6406628859695 182.35256697167642,141.09749200881924 182.48682412598282,141.48597923235502 182.84484320366755,142.02014879143098 182.93434797343798,142.84568271494936 183.06860512751155,143.18560814816738 185.03771005617455,147.8474250115105 185.3062243645545,148.04166666668607 185.3062243645545,147.7988645886653 184.90345290186815,147.41038107819622 184.45592905464582,146.34205024613766 184.00840520719066,145.4193995008245 182.80009081913158,141.68022275838302" stroke="#4dd2ff" stroke-linecap="round" stroke-linejoin="round" stroke-width="0.5"><title>2023-10-22 1.5km</title><desc>10080655811</desc></polyline><polyline fill="none" points="18.02918930258602,151.95833333331393 18.739662250503898,152.47229997970862 17.46081094397232,152.2667133664363 19.450135198421776,154.83654168556677 19.63959465129301,155.4532990763546 19.497500061756,155.96726315288106 18.834391976939514,156.327037781768 18.64493252406828,156.68681222532177 18.692297387402505,157.3035679833847 19.07121629291214,158.7940588190686 19.497500061756,159.87337778520305 19.971148693701252,161.51805110037094 20.82371623115614,163.00853295001434 20.96581082069315,163.5738873029477 21.486824315972626,164.49901162151946 21.81837835838087,164.91017759247916 21.865743221482262,165.16715620137984 22.197297264123335,165.4755304075079 22.43412157986313,165.98948711535195 22.765675622504205,166.96600381919416 23.097229664912447,167.6341460411786 23.049864801811054,168.97042856935877 23.665608023060486,170.1525225227815 23.85506747616455,170.7178710983717 24.18662151833996,171.3346144775278 24.75499987672083,172.05414773215307 25.03918905602768,172.20833333331393 23.949797202367336,170.6664757921826 23.71297288639471,169.8441503798822 23.239324254216626,168.81624225410633 23.049864801811054,168.14810116199078 22.43412157986313,167.2743772318354 21.913108084816486,165.78390447760466" stroke="#4dd2ff" stroke-linecap="round" stroke-linejoin="round" stroke-width="0.5"><title>2023-10-20 1.4km</title><desc>10069668027</desc></polyline><polyline fill="none" points="39.67527352948673,151.95833333331393 39.77171675954014,152.74322778818896 40.54326259996742,154.62697094748728 40.73614906030707,155.77814486814896 42.32746235630475,159.65026166231837 42.47212720150128,160.17351907264674 42.56857043178752,160.95840446691727 42.76145689189434,161.48166091559688 43.91877565253526,163.10375346138608 44.54565664823167,164.35956450609956 44.93142956844531,165.6153733349638 45.26898087374866,166.2956021921127 45.46186733385548,167.34210685663857 45.70297540910542,167.86535861185985 46.329856404569,169.48743660835316 46.42629963462241,170.11533677583793 47.34251032047905,171.9990339545766 47.58361839549616,172.20833333331393 47.72828324069269,172.20833333331393 47.82472647051327,172.1560084943194 47.77650485583581,172.10368365154136 46.81207255506888,170.90021120611345 46.37807801971212,169.4351115693571 45.46186733385548,167.76070829154924 45.31720248865895,167.08048083470203 45.22075925860554,165.9293251960189" stroke="#4dd2ff" stroke-linecap="round" stroke-linejoin="round" stroke-width="0.5"><title>2023-10-19 1.3km</title><desc>10064004415</desc></polyline><polyline fill="none" points="61.683780145365745,151.95833333337214 63.669093125034124,154.54345140454825 63.536738926544785,156.41047899518162 63.80144732398912,158.27750480151735 64.72792671527714,161.58069993299432 66.0514687015675,163.73495461873244 67.37501068832353,167.46899044618476 70.0220946627669,171.77748445491306 70.41915725870058,172.20833333337214 70.8162198541686,172.0647170508746 69.09561527147889,170.34132084075827 65.91911450307816,164.16580527077895 65.12498931074515,161.4370828694664 62.87496793316677,156.69771385064814" stroke="#4dd2ff" stroke-linecap="round" stroke-linejoin="round" stroke-width="0.5"><title>2023-10-18 1.0km</title><desc>10058081424</desc></polyline><polyline fill="none" points="85.21554141491652,153.18561165465508 86.34656816208735,159.78222026547883 89.31551337428391,167.60607786185574 91.29481018148363,171.74810824298766 92.14308024197817,172.20833333337214 92.56721527222544,172.20833333337214 92.84997195890173,171.59469985740725 91.86032355576754,170.36743236274924 90.58791846502572,168.37312114564702 88.89137834357098,164.69131081330124 88.18448662711307,162.54358511976898 85.21554141491652,156.5606233170256 84.93278472870588,155.6401661322452 84.65002804156393,151.95833333337214" stroke="#4dd2ff" stroke-linecap="round" stroke-linejoin="round" stroke-width="0.5"><title>2023-10-17 1.0km</title><desc>10051702317</desc></polyline><polyline fill="none" points="106.72806673264131,152.42564320727251 108.16360110323876,154.91796079440974 110.31690265890211,160.52566464548 111.46533015556633,162.70643435709644 112.75731108849868,166.75642929505557 114.33639889676124,170.80641649197787 114.91061264462769,171.8967963376781 115.62837982969359,172.20833333337214 115.77193326735869,172.0525648414623 115.62837982969359,171.58525929611642 114.04929202236235,169.24873002478853 111.895990466699,163.95258747017942 110.31690265890211,160.68143398489337 109.0249217255041,154.60642125597224 108.30715453997254,151.95833333337214" stroke="#4dd2ff" stroke-linecap="round" stroke-linejoin="round" stroke-width="0.5"><title>2023-10-16 1.0km</title><desc>10046279660</desc></polyline><polyline fill="none" points="129.60290070716292,151.95833333337214 130.19534346461296,153.24405319569632 130.78778622020036,156.13692012173124 132.12078242190182,160.63692773098592 133.89811068959534,163.3690706884954 135.97166033554822,171.0833382543642 136.71221378166229,171.8869062269805 137.74898860417306,172.20833333337214 137.8970992937684,171.8869062269805 137.74898860417306,170.92262462433428 135.8235496468842,168.19049110729247 134.7867748234421,164.9762120094383 133.6018893122673,163.04764228244312 130.78778622020036,156.45834954397287 129.75101139675826,151.95833333337214" stroke="#4dd2ff" stroke-linecap="round" stroke-linejoin="round" stroke-width="0.5"><title>2023-10-15 1.0km</title><desc>10039610121</desc></polyline><polyline fill="none" points="152.03601107932627,153.42809761082754 152.48750989232212,158.16399811243173 153.69150672666728,161.5934370001778 155.19650277029723,163.71642032451928 156.09950039628893,166.65593234763946 158.65799366869032,171.2284988736501 159.25999208539724,171.88172189483885 160.01249010767788,172.20833333337214 160.46398892067373,171.88172189483885 160.46398892067373,171.39180464681704 157.45399683434516,168.94221678713802 155.4975019786507,165.34948303981218 154.74500395730138,162.24666285456624 152.93900870531797,158.16399811243173 152.03601107932627,154.73455393034965 152.18651068396866,152.6115620211931 152.03601107932627,151.95833333337214" stroke="#4dd2ff" stroke-linecap="round" stroke-linejoin="round" stroke-width="0.5"><title>2023-10-14 1.0km</title><desc>10033377496</desc></polyline><polyline fill="none" points="174.15856931451708,152.27976337017026 176.8245613258332,155.4940611361526 177.1207826603204,157.90478135913145 179.6386640034616,165.61906820721924 182.0084346793592,171.24405187251978 182.7489880155772,172.20833333337214 183.34143068548292,172.20833333337214 183.34143068548292,171.72619265632238 183.193320017308,171.24405187251978 181.8603240121156,170.27976998628583 180.3792173396796,167.54763566574547 178.75,162.40478532912675 175.787786655128,155.81549065269064 175.3434546533972,153.56548304355238 174.60290131624788,151.95833333337214" stroke="#4dd2ff" stroke-linecap="round" stroke-linejoin="round" stroke-width="0.5"><title>2023-10-13 1.0km</title><desc>10028006924</desc></polyline><polyline fill="none" points="16.905044354032725,176.125 18.329619975294918,177.97996994643472 19.184365348424762,179.52577698463574 19.326822911389172,181.5353244356811 19.184365348424762,183.6994503120659 20.751398532185704,186.9456349503016 22.60334684047848,191.89219238027 24.455295148771256,195.29294386308175 24.88266783533618,195.9112617240753 25.594955645501614,196.375 25.594955645501614,195.60210281633772 24.027922462206334,193.59256880928297 22.60334684047848,191.11929354909807 20.751398532185704,186.01815413648728 19.611738034989685,184.008610969875 19.041907786391675,182.30822679039557" stroke="#4dd2ff" stroke-linecap="round" stroke-linejoin="round" stroke-width="0.5"><title>2023-10-12 1.0km</title><desc>10021974100</desc></polyline><polyline fill="none" points="41.3824395830743,178.99628079403192 41.93951262207702,182.01867729763035 41.80024436255917,183.22763465484604 43.05365870054811,187.30786048504524 44.02853651950136,189.12129158736207 45.003414338454604,192.44591112039052 46.39609693642706,195.77052527631167 46.674633456394076,196.07276266010012 47.370974755845964,196.375 47.23170649539679,195.77052527631167 45.69975563744083,191.84143524174578 44.02853651950136,188.97017238975968 41.80024436255917,183.83211306645535 41.24317132262513,181.86755757802166 40.96463480358943,178.99628079403192 40.129025244154036,176.125" stroke="#4dd2ff" stroke-linecap="round" stroke-linejoin="round" stroke-width="0.5"><title>2023-10-10 1.0km</title><desc>10009069592</desc></polyline><polyline fill="none" points="62.81949557503685,178.65626107272692 63.78003681404516,181.33641640702263 64.74057805305347,184.90995133598335 66.79888070886955,189.37686113012023 68.44552283268422,195.03493272676133 69.40606407169253,196.375 69.68050442589447,195.9283110073302 69.81772460276261,194.290450524888 68.8571833637543,191.4614156623138 66.79888070886955,187.88789229327813 64.46613769978285,181.33641640702263 63.78003681404516,178.35846581635997 62.68227539770305,176.125" stroke="#4dd2ff" stroke-linecap="round" stroke-linejoin="round" stroke-width="0.5"><title>2023-10-09 1.0km</title><desc>10003389142</desc></polyline><polyline fill="none" points="84.62701159808785,176.125 85.639675416518,177.3808195394231 86.6523392344825,179.73547918454278 87.23100427305326,184.4447906849673 89.4009981690906,189.15409179858398 91.28165954491124,194.4912871712586 92.14965710323304,196.06104797730222 92.87298840191215,196.375 92.87298840191215,195.11919163237326 90.12432946776971,190.72385652828962 86.5076729748398,181.93315917695872 85.06101037748158,176.2819774830714" stroke="#4dd2ff" stroke-linecap="round" stroke-linejoin="round" stroke-width="0.5"><title>2023-10-08 1.0km</title><desc>9996447828</desc></polyline><polyline fill="none" points="108.6506583634764,180.17501667432953 109.31715621938929,182.63395130157005 111.31664978573099,187.98573957325425 111.98314764164388,190.30002188449726 114.11594077944756,195.6517893030541 114.78243863536045,196.375 114.91573820635676,195.79643146391027 114.91573820635676,195.21786275773775 112.38304635509849,190.7339495148044 111.18335021473467,188.13038229721133 109.050557076931,181.76609237212688 108.3840592210181,178.43929626303725 107.5842617941089,176.125" stroke="#4dd2ff" stroke-linecap="round" stroke-linejoin="round" stroke-width="0.5"><title>2023-10-07 1.0km</title><desc>9989974159</desc></polyline><polyline fill="none" points="132.09557300293818,182.15693684492726 133.15440628072247,185.6037495364435 133.94853123975918,187.32715360203292 135.53678115690127,194.07713821833022 135.93384363641962,195.36968580295797 136.72796859499067,196.375 137.38973939372227,196.375 137.6544477129355,195.8005348078441 137.52209355402738,195.36968580295797 135.93384363641962,193.0718228383921 134.34559371881187,189.6250233236933 133.81617707991973,187.32715360203292 131.0367397251539,180.57714566227514 130.63967724563554,178.1356476843357 129.8455522870645,176.125" stroke="#4dd2ff" stroke-linecap="round" stroke-linejoin="round" stroke-width="0.5"><title>2023-10-06 1.0km</title><desc>9984428862</desc></polyline><polyline fill="none" points="151.89044428616762,176.125 154.18494729418308,182.26641263160855 155.71461596526206,187.41190765006468 158.31505270767957,193.8852556941565 159.38582077715546,196.04303425177932 159.84472137875855,196.375 160.456588848494,196.375 160.6095557147637,196.04303425177932 160.1506551131606,195.21311966574285 158.31505270767957,192.55739094223827 157.24428463727236,190.39960905362386 155.40868223086,185.58608817961067 154.64384789578617,183.0963319762377 152.50231175590307,179.1127163397614 152.50231175590307,177.61885866406374" stroke="#4dd2ff" stroke-linecap="round" stroke-linejoin="round" stroke-width="0.5"><title>2023-10-04 1.0km</title><desc>9971682885</desc></polyline><polyline fill="none" points="175.68508319184184,178.4899740224937 176.36617581546307,180.8549452634761 177.04726843954995,182.4808613777859 177.59214253909886,184.99363824073225 180.18029451044276,190.16699248191435 180.3165130354464,191.9407108714804 181.13382418453693,195.48814295674674 181.4062612336129,195.9315715271514 182.22357238270342,196.375 182.22357238270342,194.89690471056383 180.45273156045005,191.64509124867618 179.22676483727992,188.83670266275294 178.54567221272737,187.50641196337529 177.86457958864048,185.58487939927727 176.50239434093237,182.77648234833032 175.9575202409178,180.55932401039172 175.68508319184184,178.34216322784778 175.27642761729658,176.125" stroke="#4dd2ff" stroke-linecap="round" stroke-linejoin="round" stroke-width="0.5"><title>2023-10-03 1.0km</title><desc>9965060084</desc></polyline><polyline fill="none" points="17.54845587722957,201.12844709400088 19.399227938614786,207.1532570925774 19.707689948379993,209.83094530692324 20.787306984886527,211.16978823265526 21.55846201069653,213.1780511450488 22.94654105603695,218.36605546902865 24.02615809161216,220.03960272856057 24.797313117422163,220.54166666662786 24.95154412277043,220.37431203282904 24.488851107656956,219.03547452029306 22.792310051620007,215.8557322723791 20.016151959076524,209.1615235483041 18.319610902108252,204.14085408637766 18.011148892343044,200.29166666662786" stroke="#4dd2ff" stroke-linecap="round" stroke-linejoin="round" stroke-width="0.5"><title>2023-10-02 1.0km</title><desc>9958643020</desc></polyline><polyline fill="none" points="40.54014479368925,203.8556801606901 40.83873597532511,205.31368401984219 44.12323897797614,213.08968830667436 45.765490478836,218.1116764920298 46.66126402467489,219.89366954844445 47.557037570513785,220.54166666662786 47.70633316133171,220.37966740492266 47.557037570513785,219.7316702393582 44.57112575042993,215.19568474590778 41.734509521164,208.2296888428973 40.39084920194,204.0176806373056 39.79366683866829,200.29166666662786" stroke="#4dd2ff" stroke-linecap="round" stroke-linejoin="round" stroke-width="0.5"><title>2023-10-01 1.0km</title><desc>9952075403</desc></polyline><polyline fill="none" points="63.34252363303676,203.22646200540476 64.55960676353425,205.7210346502252 65.10053259832785,208.21560417755973 65.50622697547078,210.56343147263397 67.53469885932282,216.2862489343388 69.29270782507956,219.95471303607337 70.10409657796845,220.54166666662786 70.3745594965294,220.1014514598064 67.66993031837046,215.99277151515707 66.45284718833864,213.2047338783741 66.0471528111957,211.73734408442397 64.15391238685697,207.62864692218136 63.07206071494147,203.07972234068438 62.12544050300494,200.29166666662786" stroke="#4dd2ff" stroke-linecap="round" stroke-linejoin="round" stroke-width="0.5"><title>2023-09-30 1.0km</title><desc>9945549317</desc></polyline><polyline fill="none" points="85.61479443218559,200.29166666662786 86.95845396164805,202.5596759208711 87.40634047053754,204.34168155433144 88.6007044967264,207.25768766424153 89.19788650982082,211.63168959354516 89.64577301964164,212.9276884975843 91.43731905706227,217.30167917197105 91.88520556688309,220.055668846122 92.1837965734303,220.37966740503907 92.63168308325112,220.54166666662786 92.78097858652472,220.2176681313431 90.09365952853113,215.35768438887317 88.30211349017918,211.14568980794866 87.70493147801608,208.71568927180488 85.61479443218559,203.85568016127218 84.71902141347528,200.9396695488831" stroke="#4dd2ff" stroke-linecap="round" stroke-linejoin="round" stroke-width="0.5"><title>2023-09-28 1.0km</title><desc>9933629332</desc></polyline><polyline fill="none" points="107.2914034742862,202.59281292685773 108.4224310531281,206.58146043377928 110.54310776293278,209.4962364824023 111.95689223660156,214.71214135515038 113.93619049945846,218.24054019979667 114.50170428911224,220.23484995088074 115.0672180778347,220.54166666662786 115.34997497312725,220.08144157601055 115.0672180778347,219.4678079644218 113.93619049945846,217.9337231455138 110.68448621034622,211.33714557311032 108.98794484185055,206.73486980074085 107.15002502687275,200.29166666662786" stroke="#4dd2ff" stroke-linecap="round" stroke-linejoin="round" stroke-width="0.5"><title>2023-09-27 1.0km</title><desc>9927137811</desc></polyline><polyline fill="none" points="135.43223653757013,200.29166666668607 135.0284997683484,202.2388089672313 134.62476299959235,203.3584131966927 134.31074551236816,204.72140709421365 132.47150023118593,208.5669818915194 131.52944777044468,210.17335462279152 131.35000920621678,210.85484490689123 131.4397284882143,211.3903010667418 131.66402669320814,212.16914561681915 132.33692130818963,213.82418724382296 132.56121951318346,214.26228580548195 132.83037735940889,215.04112697707023 133.72757017915137,216.16070955613395 134.1313069483731,217.0369032972376 134.57990335859358,217.71838651661528 134.9387804865837,218.69193275592988 135.4770961785689,219.4220914959442 136.1499907935504,220.54166666668607" stroke="#4dd2ff" stroke-linecap="round" stroke-linejoin="round" stroke-width="0.5"><title>2023-09-26 1.0km</title><desc>9920397094</desc></polyline><polyline fill="none" points="156.15543065872043,200.29166666668607 155.27278347173706,203.2334170009708 154.39013628475368,204.80690754775424 153.5705353252124,205.83309560123598 153.12921173195355,206.6540452290792 152.94007304892875,207.47499413252808 153.00311927613802,208.50117924326332 153.3183504147455,209.32212651707232 154.07490514637902,210.48513391497545 154.39013628475368,211.64813985925866 155.0205985608045,213.15320421737852 156.21847688616253,214.65826614119578 158.23595617059618,218.76296810543863 159.55992695130408,220.54166666668607" stroke="#4dd2ff" stroke-linecap="round" stroke-linejoin="round" stroke-width="0.5"><title>2023-09-25 1.0km</title><desc>9914573673</desc></polyline><polyline fill="none" points="180.24293000507168,200.29166666668607 179.74528667028062,201.04767670028377 179.64575800322928,201.4256814252003 179.74528667028062,201.91168721433496 179.7950510038063,202.39769268163946 178.79976433352567,204.2337104336475 178.5509426658973,205.47571983956732 178.20259233145043,206.39372544176877 176.11249032407068,210.0657363756909 176.062725990545,210.49773645482492 176.26178332441486,211.36173585121287 176.80919099319726,212.22573423106223 177.1077769943513,212.98173197970027 177.5556559956167,213.73772895004367 177.80447766324505,214.49372514220886 178.4514139990788,215.5197187299491 178.94905733386986,216.54571088438388 179.4964650028851,217.13970568712102 179.64575800322928,217.67970054544276 179.99410833767615,218.11169614619575 180.7405733403284,219.40768142428715 181.28798100887798,220.00167391239665 181.437274009455,220.54166666668607" stroke="#4dd2ff" stroke-linecap="round" stroke-linejoin="round" stroke-width="0.5"><title>2023-09-24 1.0km</title><desc>9907510217</desc></polyline><polyline fill="none" points="22.004921606509015,224.45833333331393 21.58216550690122,225.1136803429108 21.280196864390746,225.76902687054826 21.099015678744763,226.62097663618624 21.038621950196102,227.7350635623443 20.01192856533453,229.11128666636068 19.40799128031358,230.68411046854453 18.864447723375633,231.47052132879617 18.5020853523165,232.51906806329498 18.441691623535007,233.63314761698712 19.709959922824055,236.84431030391715 20.19310975074768,237.82731697696727 21.763346692547202,240.31759569660062 22.42767770611681,241.95593316521263 23.273189905565232,243.00446756463498 23.75633973395452,243.85640085610794 24.058308376697823,244.70833333331393" stroke="#4dd2ff" stroke-linecap="round" stroke-linejoin="round" stroke-width="0.5"><title>2023-09-23 1.0km</title><desc>9901004991</desc></polyline><polyline fill="none" points="44.52756968373433,224.45833333331393 44.124385403236374,225.20834193611518 43.72120112297125,226.5208553984412 42.79963705362752,228.45837156730704 41.87807298428379,229.77088001114316 41.071704423520714,231.95838958065724 41.014106668997556,233.14589241793146 41.12930217804387,233.8333933026297 42.28125726454891,236.58339128014632 42.454050527419895,237.3958889800706 42.684441544814035,237.83338741987245 43.49081010557711,238.83338300831383 44.124385403236374,240.0833758393419 44.64276519208215,241.39586633403087 45.506731507368386,242.64585539727705 46.485893331002444,244.70833333331393" stroke="#4dd2ff" stroke-linecap="round" stroke-linejoin="round" stroke-width="0.5"><title>2023-09-22 1.0km</title><desc>9895405405</desc></polyline><polyline fill="none" points="67.32345788786188,224.45833333331393 67.15831052046269,225.05568569112802 66.82801578589715,225.41409689502325 66.11237719398923,226.72826995630749 65.83713158173487,227.6840308473911 65.01139474497177,229.77475387667073 64.13060878613032,231.5667979050777 63.58011756138876,232.88096101366682 63.414970193989575,233.53804177069105 63.414970193989575,233.95618379395455 63.58011756138876,234.5535291681299 63.9104122959543,235.15087410318665 64.62605088809505,237.00264061050257 65.34168947977014,238.31679492612602 65.72703333687969,239.27254218421876 66.44267192855477,240.46722467575455 66.8830649079755,241.00483122392325 67.21335964277387,241.9605753198848 68.09414560184814,243.5136570779141 69.0850298057776,244.70833333331393" stroke="#4dd2ff" stroke-linecap="round" stroke-linejoin="round" stroke-width="0.5"><title>2023-09-21 1.0km</title><desc>9889267953</desc></polyline><polyline fill="none" points="90.811701788567,224.45833333331393 90.08904342958704,226.6263600223465 89.6639502774924,228.33309916598955 88.9838012335822,229.76306622481206 88.17612424399704,232.16171332629165 86.77331684133969,234.79098903591512 86.39073300431482,236.22094137454405 86.43324231938459,236.5438333870261 86.6882982107345,237.23574428271968 87.24091930896975,238.43505469430238 87.58099383092485,239.44985402107704 88.43118013557978,240.64916020003147 88.94129191851243,241.61782890179893 89.23885712493211,242.30973420158261 89.57893164665438,242.9093848442426 90.13155274488963,243.32452726108022 90.811701788567,244.33931867918 90.85421110410243,244.52382603340084 91.10926699545234,244.70833333331393" stroke="#4dd2ff" stroke-linecap="round" stroke-linejoin="round" stroke-width="0.5"><title>2023-09-20 1.0km</title><desc>9882714971</desc></polyline><polyline fill="none" points="112.92906590504572,224.45833333331393 112.49730610102415,225.55153578415047 111.6817598042544,227.94616382510867 111.63378649251536,228.72701904381393 111.34594662301242,229.14347480831202 111.01013344223611,229.92432870634366 110.8182401957456,230.6531249009422 110.43445370299742,231.64220425055828 109.33106753672473,233.41213226976106 109.0432276672218,234.45326433179434 108.94728104420938,235.3902818786446 109.0432276672218,236.32729818520602 109.33106753672473,237.3684259604197 109.66688071750104,238.09721449221252 110.72229357250035,239.91918253951008 111.25,240.6479684455553 111.72973311552778,241.9493699836312 112.20946623152122,242.78226571256528 112.689199347049,243.45899277093122 113.21690577454865,243.97955160652054 113.55271895579062,244.70833333331393" stroke="#4dd2ff" stroke-linecap="round" stroke-linejoin="round" stroke-width="0.5"><title>2023-09-19 1.0km</title><desc>9876194288</desc></polyline><polyline fill="none" points="133.60094494954683,224.45833333331393 133.2432128288783,225.04060821142048 132.64699262776412,226.20515681174584 132.46812656731345,226.98152168880915 131.39493020484224,228.8577339805197 130.56022192304954,230.60454872477567 130.38135586259887,231.2515162685886 130.44097788305953,231.9631800170755 130.79871000372805,232.8689330467605 131.33530818484724,233.83938168658642 131.81228434597142,235.1980079842615 132.46812656731345,236.62132852245122 133.18359080865048,237.9152542866068 133.83943303022534,238.75630501308478 134.6145192917902,240.05022763781017 135.09149545268156,241.53823630412808 135.9262037347071,242.8321548383683 136.34355787560344,243.99667989241425 137.11864413740113,244.70833333331393" stroke="#4dd2ff" stroke-linecap="round" stroke-linejoin="round" stroke-width="0.5"><title>2023-09-18 1.0km</title><desc>9870505463</desc></polyline><polyline fill="none" points="156.45347620127723,224.45833333331393 156.16279591363855,225.0260968549992 155.7558435110841,226.91863921360346 155.23261899338104,227.80182421894278 155.00007476331666,228.49575465667294 153.721081498079,230.57754260260845 153.25599303795025,231.7130611714092 152.96531275031157,232.72240974853048 153.19785698037595,233.41633620654466 154.4768502456136,236.1920364263351 155.11634687846527,237.20137973449891 155.5814353383612,238.27380569832167 156.33720408612862,239.28314655757276 156.7441564889159,239.97706770943478 157.26738100638613,241.61724274681183 159.53468724968843,244.70833333331393" stroke="#4dd2ff" stroke-linecap="round" stroke-linejoin="round" stroke-width="0.5"><title>2023-09-16 1.0km</title><desc>9856514700</desc></polyline><polyline fill="none" points="178.4700745639857,224.45833333331393 177.8480180397164,226.3483522325405 177.03934455802664,227.63086284097517 175.35979194217362,230.87088166020112 175.29758628970012,231.6133843626012 175.35979194217362,232.49088678183034 175.73302585678175,233.3683883624035 176.35508238128386,234.31338912650244 176.91493325307965,235.59588860766962 177.91022369195707,237.28338519536192 179.1543367409613,239.64587520738132 179.27874804567546,240.5233699491946 179.7141876127571,240.8608677034499 180.2118328323122,241.53586283978075 181.02050631376915,242.8858516237815 181.8913854479324,243.62834460882004 182.0780024053529,244.10083983209915 182.20241371029988,244.70833333331393" stroke="#4dd2ff" stroke-linecap="round" stroke-linejoin="round" stroke-width="0.5"><title>2023-09-15 1.0km</title><desc>9850671982</desc></polyline><polyline fill="none" points="21.76480475603603,248.625 20.73519524396397,251.34830099134706 19.5768845428247,253.02417464280734 19.062079787021503,253.931938302645 18.289872652851045,255.88711862289347 18.096820869250223,256.58539633319015 18.096820869250223,257.1440181314829 18.289872652851045,257.8422949176165 19.062079787021503,259.93712219555164 19.769936326425523,261.3336711471202 21.50740237813443,264.33624443912413 22.21525891753845,265.66295984660974 22.343960106372833,266.43105739331804 22.858764862641692,266.9198464176734 23.695322591112927,268.246558215993 24.403179130749777,268.875" stroke="#4dd2ff" stroke-linecap="round" stroke-linejoin="round" stroke-width="0.5"><title>2023-09-14 1.0km</title><desc>9844236351</desc></polyline><polyline fill="none" points="40.531652596080676,248.625 40.90210985112935,248.9264932339429 41.0410313217435,249.22798633488128 41.13364563579671,249.88122093037236 41.41148857702501,250.43395740829874 41.596717204665765,251.99166689504636 41.596717204665765,252.74539601715514 41.50410289084539,253.14738454233157 41.596717204665765,253.64986986643635 41.82825298910029,254.2528517676401 41.735638675279915,254.7553362788749 41.78194583207369,255.00657839589985 42.24501740117557,255.8608009031159 42.661781813250855,257.1170085329795 43.03223906829953,257.8204837971134 43.495310637168586,258.47371017967816 44.004689362831414,258.92594346334226 44.143610833678395,259.22743215295486 44.282532304292545,259.88065719080623 44.65298955957405,260.53388160432223 45.0697539714165,261.73983272747137 45.625439854105935,262.7950382147101 45.903282795567065,263.69949876429746 46.042204266181216,264.45321497449186 46.32004720764235,265.05618734436575 46.829425933305174,266.7143586183083 47.524033286841586,268.02079375850735 47.57034044386819,268.2217835584306 47.524033286841586,268.37252586957766 46.968347403919324,268.875 47.246190345380455,268.674010392162 47.385111815994605,268.37252586957766 47.47772612981498,268.12128866591956 47.43141897302121,267.76955642551184 47.15357603179291,267.4178240040201 46.32004720764235,265.60891154926503 45.903282795567065,264.25222406635294 45.02344681462273,262.29255961440504 44.60668240254745,260.38313756434945 44.37514661811292,259.83040913322475 43.495310637168586,258.67470278718974 42.61547465622425,257.01651200756896 42.19871024414897,255.6598074681242 42.05978877376765,254.7553362788749 41.68933151825331,253.8006153916358 40.94841700815596,252.19266140891705 40.7631883805152,251.43893167714123 40.114888184005395,250.23296237713657 39.975966713391244,249.57972811779473 39.92965955636464,248.77574663364794" stroke="#4dd2ff" stroke-linecap="round" stroke-linejoin="round" stroke-width="0.5"><title>2023-09-13 1.0km</title><desc>9837636972</desc></polyline></svg>