<?xml version="1.0" encoding="utf-8" ?>
<svg baseProfile="full" height="300mm" version="1.1" viewBox="0,0,200,300" width="200mm" xmlns="http://www.w3.org/2000/svg" xmlns:ev="http://www.w3.org/2001/xml-events" xmlns:xlink="http://www.w3.org/1999/xlink"><defs /><rect fill="#222222" height="300" width="200" x="0" y="0" /><text fill="#FFFFFF" style="font-size:12px; font-family:Arial; font-weight:bold;" x="10" y="20">Over 1km Runs</text><text fill="#FFFFFF" style="font-size:4px; font-family:Arial" x="10" y="280">ATHLETE</text><text fill="#FFFFFF" style="font-size:9px; font-family:Arial" x="10" y="290">Jiakai</text><text fill="#FFFFFF" style="font-size:4px; font-family:Arial" x="120" y="280">STATISTICS</text><text fill="#FFFFFF" style="font-size:3px; font-family:Arial" x="120" y="285">Number: 110</text><text fill="#FFFFFF" style="font-size:3px; font-family:Arial" x="120" y="290">Weekly: 5.2</text><text fill="#FFFFFF" style="font-size:3px; font-family:Arial" x="141" y="285">Total: 113.7 km</text><text fill="#FFFFFF" style="font-size:3px; font-family:Arial" x="141" y="290">Avg: 1.0 km</text><text fill="#FFFFFF" style="font-size:3px; font-family:Arial" x="167" y="285">Min: 1.0 km</text><text fill="#FFFFFF" style="font-size:3px; font-family:Arial" x="167" y="290">Max: 1.5 km</text><polyline fill="none" points="10.923076923005283,33.030222747824155 11.274725274648517,33.6979769266909 12.329670330043882,36.65516987349838 12.76923076948151,38.75381884421222 13.912087912671268,41.90178593539167 14.087912088260055,42.95110660197679 14.70329670375213,44.191211750148796 15.23076923051849,44.85896018543281 15.846153846476227,45.335923143080436 16.549450549762696,45.43131571367849 17.6043956046924,45.43131571367849 19.274725274648517,45.04974538949318 20.24175824224949,44.66817495331634 21.560439560562372,44.47738969337661 23.758241758216172,43.61885567533318 25.780219780281186,42.66492832254153 27.362637362908572,41.61560742452275 27.53846153849736,41.32942885067314" stroke="#4dd2ff" stroke-linecap="round" stroke-linejoin="round" stroke-width="0.5"><title>2024-03-16 1.0km</title><desc>10967572329</desc></polyline><polyline fill="none" points="31.115384615492076,32.90635932527948 31.2893677004613,33.944699974614196 31.550342327915132,34.69985628302675 32.59424083773047,36.30456196377054 32.76822392269969,36.776533841271885 32.76822392269969,37.437294178060256 33.98610551748425,39.60836146213114 34.42106322944164,42.06260701478459 35.116995569784194,44.13927266432438 35.46496173972264,44.89442297711503 35.899919452145696,45.271997966687195 37.4657672168687,45.55517913622316 39.11860652407631,45.366391696734354 42.07631896901876,44.5168478761334 45.12102295598015,43.289728031726554 45.990938381291926,42.912152459146455 47.55678614554927,41.8738190617878 47.73076923098415,41.30745503655635" stroke="#4dd2ff" stroke-linecap="round" stroke-linejoin="round" stroke-width="0.5"><title>2024-03-12 1.0km</title><desc>10939588558</desc></polyline><polyline fill="none" points="61.581048666965216,31.484410436241888 60.75340064521879,31.259877055650577 59.40847260970622,31.14761035318952 57.96008857153356,31.596677114022896 56.615160536486655,32.3825436278712 56.097880522720516,33.05614317476284 55.68405651161447,33.72974242444616 55.47714450629428,35.41373924841173 55.47714450629428,37.32226673618425 55.373688503634185,41.58837837446481 55.580600508954376,44.50728999450803 55.89096851693466,45.742212461074814 57.23589655291289,46.97713392879814 58.99464859906584,47.53846153849736 60.96031265053898,47.20166499749757 62.30524068605155,46.52807169267908 63.23634471045807,45.62994682381395 63.857080726884305,43.833695500623435 63.857080726884305,38.781727322610095 63.65016872109845,36.1996037971694 63.857080726884305,34.627874295110814 63.54671271843836,33.392942836973816 62.92597670247778,32.27027700794861 61.78796067228541,31.484410436241888 59.615384615492076,30.923076923121698 58.16700057731941,31.37214374996256 56.822072541341186,32.27027700794861 56.097880522720516,33.28067629085854 55.47714450629428,34.627874295110814" stroke="#4dd2ff" stroke-linecap="round" stroke-linejoin="round" stroke-width="0.5"><title>2024-03-11 1.0km</title><desc>10935364964</desc></polyline><polyline fill="none" points="71.67866004956886,34.28725915728137 71.5,34.965782517101616 71.67866004956886,36.12896460772026 72.8399503719993,39.61850472167134 73.10794044611976,40.297025338048115 73.5545905707404,40.878614159883 74.17990074446425,42.526447761803865 74.98387096775696,43.30189815629274 75.6091811414808,43.68962318217382 78.11042183591053,44.17427930433769 79.18238213378936,43.980416877078824 80.79032258037478,43.980416877078824 83.1129032257013,43.30189815629274 86.06079404428601,42.04179103393108 86.86476426804438,41.460202725138515 87.93672456592321,40.97554560541175 88.11538461502641,40.68475124798715 87.75806451635435,38.74612055916805" stroke="#4dd2ff" stroke-linecap="round" stroke-linejoin="round" stroke-width="0.5"><title>2024-03-08 1.0km</title><desc>10912839308</desc></polyline><polyline fill="none" points="91.69230769248679,33.44242229696829 92.56680162018165,35.15046562696807 95.97732793539762,44.25999187922571 96.50202429201454,44.829335135174915 98.16356275323778,45.01911616465077 100.87449392769486,44.544663538457826 103.49797570891678,43.78553897375241 107.34574898798019,41.98261634353548 108.04534413013607,41.223490271833725 108.30769230797887,40.36947290797252 108.22024291520938,39.98990945343394" stroke="#4dd2ff" stroke-linecap="round" stroke-linejoin="round" stroke-width="0.5"><title>2024-03-07 1.0km</title><desc>10906173208</desc></polyline><polyline fill="none" points="111.88461538450792,33.34955981897656 112.1511723571457,36.24196767201647 112.86199095007032,38.45947603916284 115.34985602647066,44.0514370102901 115.61641299910843,44.53350149502512 116.32723159203306,44.91915295494255 117.30460715759546,45.11197864252608 118.01542575052008,45.11197864252608 118.90394899249077,44.82274010044057 120.14788153022528,44.72632723907009 122.28033730993047,44.34067572222557 126.3675442202948,42.70165551069658 127.87803373066708,41.83393809874542 128.5,41.255459505249746 128.5,40.77339381549973" stroke="#4dd2ff" stroke-linecap="round" stroke-linejoin="round" stroke-width="0.5"><title>2024-03-06 1.0km</title><desc>10898894581</desc></polyline><polyline fill="none" points="132.07692307699472,33.37833107449114 132.16391461947933,33.66151482553687 132.5118807889521,34.79424920468591 133.3817962142639,39.136388401617296 133.90374546917155,40.080329762073234 134.77366089401767,42.534574051736854 135.9045509463176,44.0448758979328 136.25251711625606,44.70563239743933 136.861457914114,44.988813649863005 138.1663310509175,45.0832073870115 141.9069673777558,44.80002615530975 143.7337897703983,44.0448758979328 144.6037051952444,43.57290676177945 147.12645992729813,42.72336187947076 147.73540072515607,42.06260436028242 148.3443415220827,41.87381643522531 148.6923076924868,41.4018465008121 148.25734998006374,40.080329762073234" stroke="#4dd2ff" stroke-linecap="round" stroke-linejoin="round" stroke-width="0.5"><title>2024-03-05 1.0km</title><desc>10891326638</desc></polyline><polyline fill="none" points="165.18556990474463,46.04112222621916 167.79309376771562,44.85672123823315 168.7633352051489,44.00131955003599 168.88461538474075,43.4749181047664 168.46013475605287,42.15891313715838 167.9750140372198,40.908706625632476 167.00477259978652,39.52689739695052 166.5196518811863,39.066293846582994 165.06428972515278,36.69747184345033 163.42700729961507,34.52604616608005 163.5482874789741,33.93383824866032 163.42700729961507,33.67063460423378 162.63868613168597,32.42041623534169 159.97052217880264,32.61781925178366 159.06092083104886,32.94682418246521 157.48427849519067,33.1442270828411 155.78635597974062,33.86803734488785 154.63419427303597,34.65764787211083 153.542672655778,34.920851226488594 152.99691184726544,35.315656112739816 152.57243121857755,35.381456910283305 152.39051094907336,35.57885927357711 152.26923076924868,35.973663869546726 152.45115103875287,36.302667566691525 152.5117911286652,37.02647527423687 152.81499157776125,38.013484841329046 152.6937113981694,39.197894885146525 153.05755193717778,40.05330116424011 152.99691184726544,41.23770850850269" stroke="#4dd2ff" stroke-linecap="round" stroke-linejoin="round" stroke-width="0.5"><title>2024-03-04 1.0km</title><desc>10884866628</desc></polyline><polyline fill="none" points="172.46153846150264,33.11202102655079 172.6337186130695,34.419850694946945 173.064168991521,35.82109527476132 173.064168991521,36.38159267359879 173.49461937043816,37.50258673017379 173.92506974935532,39.18407596054021 175.04424073314294,41.89313726266846 176.67995217209682,44.41536155878566 177.6269430052489,45.16268631455023 178.66002391418442,45.34951743495185 181.1566361100413,45.06927074410487 184.60023913905025,44.32194593350869 185.63332004798576,43.574620682979 187.09685133490711,42.92071072838735 189.07692307699472,41.706305634230375" stroke="#4dd2ff" stroke-linecap="round" stroke-linejoin="round" stroke-width="0.5"><title>2024-03-03 1.0km</title><desc>10877188327</desc></polyline><polyline fill="none" points="10.923076923005283,63.13739792711567 12.261228704359382,64.34741209237836 13.376355188433081,64.83141750958748 13.933918430935591,64.83141750958748 16.27568404749036,64.58941481867805 20.959215281531215,63.3794008315308 25.41972121829167,61.56437818275299 27.315436241216958,60.11235862236936 27.53846153849736,59.87035523785744 27.315436241216958,58.53933598671574 26.6463603512384,56.84530992852524 22.966442952863872,50.55319787515327" stroke="#4dd2ff" stroke-linecap="round" stroke-linejoin="round" stroke-width="0.5"><title>2024-03-02 1.0km</title><desc>10870189784</desc></polyline><polyline fill="none" points="39.37399875652045,49.38461538462434 39.86478042323142,50.556219262303784 40.06109309010208,51.30178487312514 40.1592494235374,53.00593339977786 43.30025209207088,60.46155963442288 43.987346425652504,62.485222992138006 43.987346425652504,62.80474852712359 43.49656475847587,63.23078246379737 41.926063424907625,64.0828499617055 39.66846775682643,64.61539189366158 37.11640308890492,65.68047516990919 35.742214421276,66.0 35.34958908800036,65.78698345448356 34.85880742082372,63.86983313411474" stroke="#4dd2ff" stroke-linecap="round" stroke-linejoin="round" stroke-width="0.5"><title>2024-01-19 1.0km</title><desc>10585384707</desc></polyline><polyline fill="none" points="56.61715953471139,51.47607200918719 56.724239002447575,53.21895041537937 56.93839793652296,54.03229301376268 58.9729078123346,57.63423377589788 59.936623016837984,59.84187083039433 60.47202035272494,61.70093122124672 61.43573555722833,63.55998942570295 61.54281502449885,65.30285450606607 62.18529182765633,65.88380910595879 62.5065302294679,66.0 62.93484809761867,65.88380910595879 62.82776863081381,65.41904544318095 62.18529182765633,64.37332670227624 59.07998727960512,57.28565922228154 57.152556870598346,53.3351422410924 56.29592113336548,49.38461538462434" stroke="#4dd2ff" stroke-linecap="round" stroke-linejoin="round" stroke-width="0.5"><title>2024-01-17 1.0km</title><desc>10572816563</desc></polyline><polyline fill="none" points="76.69736715219915,49.384615384507924 77.65439027734101,53.14905216090847 79.68806441733614,59.7692490919726 81.1235991041176,62.49520531948656 81.96099433908239,65.09135019488167 82.55913379183039,65.87019291333854 82.91801746329293,66.0 82.91801746329293,65.48077159712557 80.40583176119253,60.15867166768294 78.13290183944628,54.317324011353776 76.69736715219915,51.461547012324445" stroke="#4dd2ff" stroke-linecap="round" stroke-linejoin="round" stroke-width="0.5"><title>2024-01-16 1.0km</title><desc>10566280205</desc></polyline><polyline fill="none" points="96.66121317120269,49.75940028729383 98.3881718753837,53.38231675059069 99.76973883900791,58.129574907477945 101.38156696362421,61.377691267756745 102.76313392771408,65.37536441918928 103.10852566827089,66.0 103.33878682879731,66.0 99.88486941996962,58.879140772507526 99.07895535742864,56.380586603307165 98.50330245587975,54.131884709815495 97.69738839380443,52.507820380385965 96.89147433172911,49.384615384507924" stroke="#4dd2ff" stroke-linecap="round" stroke-linejoin="round" stroke-width="0.5"><title>2024-01-09 1.0km</title><desc>10520988068</desc></polyline><polyline fill="none" points="117.19891194393858,50.75882628990803 117.774564972613,53.13246069091838 118.9258710294962,55.63101963629015 120.99822193197906,62.002328317961656 122.61005041236058,65.6252186796628 122.95544222928584,66.0 123.185703441035,65.75014579552226 122.84031162410975,64.37594701361377 122.26465859543532,63.50145630061161 120.53769950987771,59.00406838476192 118.9258710294962,55.63101963629015 117.5443037613295,49.38461538462434" stroke="#4dd2ff" stroke-linecap="round" stroke-linejoin="round" stroke-width="0.5"><title>2024-01-07 1.0km</title><desc>10508221625</desc></polyline><polyline fill="none" points="139.0802285503596,54.30770949937869 139.3070784350857,55.53848076623399 140.32790291355923,58.12309748097323 141.235302450601,61.20001693838276 143.05010152375326,65.63077102228999 143.50380129227415,66.0 143.50380129227415,65.13846559205558 142.48297681333497,63.41539544647094 141.91585210338235,61.569246893166564 139.6473532607779,56.76925112796016 138.85337866656482,54.676940974546596 138.28625395614654,53.69232352694962 137.26542947720736,49.38461538462434" stroke="#4dd2ff" stroke-linecap="round" stroke-linejoin="round" stroke-width="0.5"><title>2024-01-06 1.0km</title><desc>10501510624</desc></polyline><polyline fill="none" points="158.38179383892566,52.405607398599386 159.2384296390228,54.49706002511084 159.88090648921207,57.16946768714115 160.9517012401484,60.65521002060268 162.12957546534017,63.211416178848594 162.8791317907162,65.07047260622494 163.3074496909976,65.7676182029536 163.735767591279,66.0 163.62868811609223,65.18666356045287 163.09329074108973,63.90856259537395 159.5596680645831,57.16946768714115 158.91719121439382,55.194210285670124 158.7030322640203,53.33514224074315 157.95347593864426,51.3598800470354 157.4180785631761,49.38461538462434" stroke="#4dd2ff" stroke-linecap="round" stroke-linejoin="round" stroke-width="0.5"><title>2024-01-05 1.0km</title><desc>10495609202</desc></polyline><polyline fill="none" points="177.26756489090621,49.38461538462434 177.97976812068373,51.05904112930875 178.573270812165,52.86226706416346 179.40417457930744,54.536689484957606 180.94728157669306,58.915940557722934 182.84649018850178,63.29518068418838 183.55869341781363,65.61359749606345 184.03349557099864,66.0 184.27089664759114,65.35599577939138 184.15219610882923,64.45438947353978 181.30338319158182,58.6583378566429 180.35377888567746,55.30949929333292 179.40417457930744,49.89982347667683" stroke="#4dd2ff" stroke-linecap="round" stroke-linejoin="round" stroke-width="0.5"><title>2024-01-04 1.0km</title><desc>10489071805</desc></polyline><polyline fill="none" points="16.922655313741416,70.90046495106071 18.3863373096101,74.93214701372199 20.18779207346961,78.96381929493509 21.088519455399364,82.3846244692104 21.87665591482073,84.46153846150264 21.98924683779478,84.46153846150264 21.98924683779478,83.60633889643941 21.426292223855853,81.52942383580375 20.30038299644366,78.96381929493509 19.399655614513904,76.39821079326794 17.93597361864522,73.46608194091823 17.035246237181127,70.77829261461738 16.4722916232422,69.06787896179594 16.810064391233027,67.84615384612698" stroke="#4dd2ff" stroke-linecap="round" stroke-linejoin="round" stroke-width="0.5"><title>2024-01-03 1.0km</title><desc>10482519748</desc></polyline><polyline fill="none" points="36.06953949620947,68.12078950391151 38.98015688592568,76.63447486655787 42.01732285693288,83.91227191116195 42.65006576757878,84.46153846150264 42.776614350266755,83.91227191116195 42.39696860359982,82.95105505839456 39.233254050370306,76.90910923201591 38.09431681083515,73.88812898972537 36.44918524287641,67.84615384612698" stroke="#4dd2ff" stroke-linecap="round" stroke-linejoin="round" stroke-width="0.5"><title>2024-01-01 1.0km</title><desc>10470902913</desc></polyline><polyline fill="none" points="66.64621224813163,71.91524423821829 66.43789142975584,72.25433461787179 64.2505228323862,73.83675540063996 63.31307914853096,74.85402504354715 62.68811669200659,75.98432385700289 62.271475054789335,76.54947295191232 61.95899382652715,76.66250274586491 60.604908504989,76.66250274586491 59.354983592405915,77.11462183913682 57.68841704213992,77.00159207812976 56.85513376677409,76.66250274586491 56.334331720136106,75.87129401299171 56.02185049187392,75.19311477488372 55.91769008291885,73.61069538851734 55.605208854191005,72.93251515296288 54.355283942073584,72.93251515296288 53.31367984833196,73.27160530828405 53.20951943891123,73.38463534333277 53.62616107612848,73.61069538851734 53.83448189496994,73.38463534333277 53.1053590294905,73.38463534333277 52.89703821064904,73.15857526473701 52.688717391807586,72.36736472777557 52.58455698238686,71.0110028599156 53.1053590294905,71.12403306132182 53.52200066763908,72.02827437326778 54.45944435149431,73.04554521292448 55.18856721743941,73.04554521292448 55.813529673498124,72.59342492290307 56.334331720136106,72.70645500766113 56.438492129556835,72.48039482941385 55.50104844523594,69.76767009624746 55.29272762639448,69.65463979495689 54.146963123232126,69.54160948563367 53.00119862006977,69.65463979495689 53.73032148601487,69.65463979495689 52.688717391807586,68.52433632640168 52.58455698238686,67.84615384612698 52.89703821064904,68.29827553301584 53.20951943891123,69.76767009624746 53.52200066763908,70.4458517282037 53.83448189496994,71.91524423821829 53.20951943891123,75.75826416048221 53.93864230439067,79.2621857150225 54.56360476091504,80.27945176686626 54.66776517033577,81.9748936900869 55.605208854191005,84.46153846150264" stroke="#4dd2ff" stroke-linecap="round" stroke-linejoin="round" stroke-width="0.5"><title>2023-12-31 1.5km</title><desc>10466792666</desc></polyline><polyline fill="none" points="77.60447481833398,71.79082887328696 78.81624443735927,76.09409980627242 80.4686575550586,79.56061533093452 81.9007489234209,83.62479653395712 82.34139242116362,84.46153846150264 82.56171417050064,84.46153846150264 82.67187504423782,83.50526193762198 82.23123154696077,82.19038079865277 80.24833580572158,78.12619601015467 80.24833580572158,77.05038068909198 78.81624443735927,73.94246576365549 78.59592268895358,71.55175793205854 78.1552791907452,70.11733154568356 76.94350957125425,67.84615384612698" stroke="#4dd2ff" stroke-linecap="round" stroke-linejoin="round" stroke-width="0.5"><title>2023-12-30 1.0km</title><desc>10458865202</desc></polyline><polyline fill="none" points="100.9034728850238,67.84615384612698 98.81121988873929,68.05255734641105 97.38468375429511,68.98137272137683 96.33855725592002,70.01338908378966 95.86304521141574,71.25180771679152 95.48263557534665,76.10227017232683 95.95814761985093,80.95271586126182 96.14835243811831,81.67512123147026 96.43365966435522,82.29432553832885 97.95529820816591,83.94553568819538 99.667141568847,84.46153846150264 100.99857529392466,84.25513737474103 102.61531624617055,83.22313148668036 103.56634033517912,82.39752622984815 104.51736442465335,79.61110490118153 104.4222620157525,77.44388448703103 104.13695478904992,75.58626432495657 103.94674997124821,71.0454046871746 103.66144274454564,69.91018748190254 103.09082829067484,69.18777605460491 102.42511142790318,68.67176766472403 100.9034728850238,68.36216253961902 98.81121988873929,68.46536425559316 97.28958134492859,69.29097770992666 96.52876207372174,70.21979226521216 95.95814761985093,71.66461368498858 95.95814761985093,72.38702383695636 96.24345484701917,74.14144694327842 96.05325002921745,75.58626432495657" stroke="#4dd2ff" stroke-linecap="round" stroke-linejoin="round" stroke-width="0.5"><title>2023-12-29 1.0km</title><desc>10454615358</desc></polyline><polyline fill="none" points="117.8722519739531,69.60839925217442 119.49629097711295,75.39862138708122 122.04835226759315,83.2028028476052 122.8603717694059,84.46153846150264 122.97637455537915,84.46153846150264 122.97637455537915,83.2028028476052 121.23633276624605,77.91610316408332 119.8442993350327,74.51750189065933 118.91627704771236,72.75526153750252 117.40824082959443,67.84615384612698" stroke="#4dd2ff" stroke-linecap="round" stroke-linejoin="round" stroke-width="0.5"><title>2023-12-27 1.0km</title><desc>10441997651</desc></polyline><polyline fill="none" points="137.25254062423483,69.9860230316408 139.10858492646366,73.63638194079977 140.0366070778109,77.4126071050996 141.3126375353895,79.80421206797473 142.820673531387,83.70629720424768 143.28468460636213,84.46153846150264 143.51669014478102,84.33566494192928 142.70467076217756,81.94406630832236 141.5446430738084,80.18183359899558 137.83255446888506,71.37064284447115 137.60054893093184,68.97902610118035 137.25254062423483,67.84615384612698" stroke="#4dd2ff" stroke-linecap="round" stroke-linejoin="round" stroke-width="0.5"><title>2023-12-17 1.0km</title><desc>10391591057</desc></polyline><polyline fill="none" points="157.88108408125117,70.77141019783448 159.17508679954335,74.16470082930755 161.33175799576566,78.37705154856667 163.2727620722726,83.99350183247589 163.70409631123766,84.46153846150264 163.81192987132818,84.34452931699343 163.81192987132818,83.87649265362415 163.2727620722726,82.3553725470556 160.36125595727935,76.62190677039325 159.06725323945284,73.11161140725017 158.09675120096654,69.13326730311383 157.3419162821956,67.84615384612698" stroke="#4dd2ff" stroke-linecap="round" stroke-linejoin="round" stroke-width="0.5"><title>2023-12-16 1.0km</title><desc>10386207035</desc></polyline><polyline fill="none" points="178.52418544283137,70.9693588425871 178.9847075608559,73.09313496074174 180.5965349744074,77.96531720249914 181.51757921092212,79.46444738970604 182.7840150357224,83.58704858447891 183.12940662400797,84.46153846150264 183.3596676834859,84.46153846150264 183.3596676834859,83.21226707135793 181.63270974019542,77.96531720249914 179.21496861986816,74.21748594858218 179.09983809106052,72.71835113270208 178.40905491355807,70.9693588425871 178.63931597257033,69.84500570502132 178.1787938545458,67.84615384612698" stroke="#4dd2ff" stroke-linecap="round" stroke-linejoin="round" stroke-width="0.5"><title>2023-12-14 1.0km</title><desc>10376526598</desc></polyline><polyline fill="none" points="22.797109041363,87.75251617166214 21.941187486983836,87.03010442561936 20.5146515625529,86.4108940619044 19.18321803305298,86.30769230774604 17.851784504018724,86.61729754670523 16.139941394794732,87.54611285356805 15.379122234880924,88.5781291401945 14.808507865294814,90.3325550853042 14.808507865294814,94.25420514831785 14.99871265515685,95.49261868093163 15.379122234880924,97.0406340592308 15.09381505008787,98.89825025945902 15.188917445018888,99.62065589544363 15.284019839949906,100.03345894883387 16.23504378972575,101.68466994864866 17.756682108622044,102.81987638387363 18.232194083277136,102.9230769231217 19.18321803305298,102.9230769231217 20.134241982363164,102.9230769231217 21.846085091587156,102.30387357238214 22.797109041363,101.37506803416181 23.36772341094911,100.34306115936488 23.55792820127681,98.072643362917 23.653030596207827,96.52462912304327 23.36772341094911,94.66700978076551 23.55792820127681,92.19018016546033 23.46282580588013,90.02295066602528 23.36772341094911,89.30054008914158 22.702006646431983,87.85571781918406 22.416699461638927,87.54611285356805 21.370573117397726,86.8237010013545 19.278320427984,86.61729754670523 17.946886898949742,86.8237010013545 17.186067739035934,87.13330612634309 15.759531815070659,88.68133072694764 15.188917445018888,90.848562298459 15.379122234880924,92.29338148678653" stroke="#4dd2ff" stroke-linecap="round" stroke-linejoin="round" stroke-width="0.5"><title>2023-12-13 1.0km</title><desc>10373769329</desc></polyline><polyline fill="none" points="37.42332902178168,88.6636150109116 38.56604210846126,93.37545054464135 39.70875519514084,95.85535869607702 41.994181368499994,102.30310282495338 42.45126660307869,102.9230769231217 42.67980922060087,102.9230769231217 42.7940805288963,102.42709766270127 42.3369952943176,101.68312849919312 40.508654355537146,98.58325345080812 37.88041425636038,93.25145504111424 37.53760033007711,91.639512668713 36.280615934636444,88.91160668281373 36.052073317579925,86.30769230774604" stroke="#4dd2ff" stroke-linecap="round" stroke-linejoin="round" stroke-width="0.5"><title>2023-12-12 1.0km</title><desc>10365882163</desc></polyline><polyline fill="none" points="56.38037877250463,86.30769230774604 57.56654758146033,88.88191818085033 59.18405050318688,92.9772689435631 60.37021931214258,95.20045494439546 62.09555576182902,100.58289240172599 62.311222818214446,101.98700352758169 62.74255693051964,102.9230769231217 62.850390458479524,102.10401273192838 62.63472340255976,101.16793885477819 60.37021931214258,96.01952268823516 58.752716390416026,92.86025906808209 58.32138227857649,91.57314986921847 57.99788169423118,88.88191818085033 57.135213469620794,86.4247026653029" stroke="#4dd2ff" stroke-linecap="round" stroke-linejoin="round" stroke-width="0.5"><title>2023-12-11 1.0km</title><desc>10361067591</desc></polyline><polyline fill="none" points="80.14056967198849,95.5786161061842 82.3597520980984,102.32107317761984 82.4707112191245,102.6822754512541 82.91454770462587,102.9230769231217 83.02550682565197,102.8026761917863 82.69262946210802,101.95987082354259 81.69399737007916,100.03345692518633 80.5844061570242,97.02343067235779 77.47755076130852,90.76255834568292 76.58987779030576,86.30769230774604" stroke="#4dd2ff" stroke-linecap="round" stroke-linejoin="round" stroke-width="0.5"><title>2023-12-10 1.0km</title><desc>10355395415</desc></polyline><polyline fill="none" points="97.07263686973602,87.40724495204631 98.98668199358508,90.46155403624289 99.88740911055356,94.24888950388413 101.80145423440263,99.62444760592189 102.47699957201257,102.55656287772581 102.9273631311953,102.9230769231217 103.03995402064174,102.80090558365919 103.03995402064174,102.55656287772581 102.81477224128321,101.57919169543311 100.45036355871707,96.81449894898105 99.88740911055356,95.4706087813247 99.54963644128293,93.39368547534104 98.98668199358508,91.8054482548032 98.0859548766166,90.21720951597672 97.9733639867045,88.50679686910007 96.96004597982392,86.30769230774604" stroke="#4dd2ff" stroke-linecap="round" stroke-linejoin="round" stroke-width="0.5"><title>2023-12-09 1.0km</title><desc>10350143310</desc></polyline><polyline fill="none" points="118.42110188724473,89.53158570383675 119.10672994097695,92.01149950677063 120.59225739026442,95.60736804490443 122.64914155146107,101.55913360638078 123.56331228977069,102.9230769231217 123.44904094748199,101.68312849930953 122.76341289374977,99.57521408656612 120.93507141713053,96.35133988875896 119.79235799470916,93.6234415237559 118.53537322953343,91.63951266906224 118.19255920266733,89.65558148047421 116.8213030952029,86.30769230774604" stroke="#4dd2ff" stroke-linecap="round" stroke-linejoin="round" stroke-width="0.5"><title>2023-12-08 1.0km</title><desc>10345303898</desc></polyline><polyline fill="none" points="137.70762949250638,86.30769230774604 137.9217883637175,86.88865275890566 138.35010610660538,88.3991489324253 138.56426497828215,90.49060278921388 138.99258272023872,92.23347888875287 140.49169482011348,95.95160814467818 141.45540974102914,99.3211552274879 142.41912466241047,101.4125946307322 142.63328353362158,102.9230769231217 142.84744240529835,102.80688602896407 143.06160127650946,102.57450421445537 143.06160127650946,102.22593142895494 142.52620409801602,100.83163951872848 140.8129331273958,97.92686075391248 138.7784238490276,92.00109552009962 138.24302667099983,89.56106808315963" stroke="#4dd2ff" stroke-linecap="round" stroke-linejoin="round" stroke-width="0.5"><title>2023-12-07 1.0km</title><desc>10340288256</desc></polyline><polyline fill="none" points="157.49241859139875,86.30769230774604 158.15338383847848,87.86165633960627 159.36515345750377,93.00168063363526 161.12772744940594,96.22912944376003 162.55981881776825,100.1737804004224 163.22078406484798,102.68400784488767 163.55126668838784,102.9230769231217 163.66142756212503,102.08633499557618 163.44110581371933,101.0105233124923 161.67853182181716,97.30494429008104 160.4667622023262,95.51191915071104 159.80579695524648,94.1970327916788 157.60257946606725,86.66629952378571" stroke="#4dd2ff" stroke-linecap="round" stroke-linejoin="round" stroke-width="0.5"><title>2023-12-06 1.0km</title><desc>10334845031</desc></polyline><polyline fill="none" points="179.2379948394373,89.17242642981 179.97721218504012,92.9538674086798 180.71642953064293,95.70400053996127 182.5116716553457,100.40213341417257 183.46209395723417,102.57931213919073 183.77890139073133,102.9230769231217 183.356491479557,100.86048708274029 182.3004666995257,98.91248306049965 181.3500443981029,96.16235559037887 179.97721218504012,93.29763431544416 179.34359731711447,91.12044262513518 178.2875725380145,88.82865861337632 177.75956014776602,86.30769230774604" stroke="#4dd2ff" stroke-linecap="round" stroke-linejoin="round" stroke-width="0.5"><title>2023-12-05 1.0km</title><desc>10329306344</desc></polyline><polyline fill="none" points="16.179005314130336,106.1635354931932 16.928561363834888,107.32545515673701 17.89227628475055,110.69501735025551 19.81970612704754,115.45886888355017 20.783421048428863,118.71222265402321 21.64005653373897,120.57127894519363 22.282533147837967,121.38461538462434 22.282533147837967,120.80366082745604 19.49846781976521,114.41314660618082 18.427673463709652,110.8112090221839 17.249799670651555,108.13879841309972 16.393164185341448,104.76923076924868" stroke="#4dd2ff" stroke-linecap="round" stroke-linejoin="round" stroke-width="0.5"><title>2023-12-04 1.0km</title><desc>10324662812</desc></polyline><polyline fill="none" points="36.53728538937867,106.30296523252036 37.7151594851166,110.77634968864731 39.599758037831634,114.99410163308494 40.8954195426777,119.4674637260614 41.83771881926805,121.25680533994455 42.54444327624515,121.38461538462434 42.54444327624515,120.87337514921091 41.719931410159916,119.4674637260614 40.659844723995775,116.400016673957 39.48197062825784,114.6106700609671 38.65745876170695,112.43788955477066 37.24400984682143,107.32545412285253 36.30171057023108,104.76923076924868" stroke="#4dd2ff" stroke-linecap="round" stroke-linejoin="round" stroke-width="0.5"><title>2023-12-02 1.0km</title><desc>10313350310</desc></polyline><polyline fill="none" points="56.59931351104751,105.65035369887482 57.759340858552605,107.16084909508936 59.151373675558716,111.94407572457567 60.07939555402845,115.84617176209576 61.58743110625073,120.12587977095973 62.51545298425481,121.38461538462434 62.63145571947098,120.62937412736937 62.3994502495043,119.11889061331749 61.123420166783035,116.34966737718787 59.151373675558716,113.20281735341996 57.991346328519285,110.8112074675737 56.83131898008287,104.76923076924868" stroke="#4dd2ff" stroke-linecap="round" stroke-linejoin="round" stroke-width="0.5"><title>2023-12-01 1.0km</title><desc>10308709030</desc></polyline><polyline fill="none" points="76.74521920876577,104.76923076924868 79.04207403305918,112.66155673877802 81.33892885688692,117.3692442009924 82.61495931493118,120.83077159244567 82.99776845239103,121.38461538462434 83.12537149852142,120.96923255571164 82.61495931493118,119.5846224646084 80.70091362763196,116.95386048662476 80.19050144543871,115.56924744334538 78.27645575813949,111.83078714180738 77.38323443802074,107.53847171796951 76.49001311743632,105.04615504737012" stroke="#4dd2ff" stroke-linecap="round" stroke-linejoin="round" stroke-width="0.5"><title>2023-11-30 1.0km</title><desc>10303537703</desc></polyline><polyline fill="none" points="98.09915623487905,108.32150029705372 98.83837325498462,110.7278718292946 99.15518054878339,112.67588415788487 100.31680729379877,114.96766025107354 101.58403647039086,118.40531807253137 102.85126564651728,121.15543887077365 103.06247050920501,121.38461538462434 103.27367537189275,121.15543887077365 103.06247050920501,120.35332080582157 102.2176510579884,118.86367187567521 101.05602431343868,115.65519242186565 99.36638541147113,112.21752853505313 98.73277082294226,108.55067869834602 97.46554164635018,106.60266121383756 96.72632462764159,104.76923076924868" stroke="#4dd2ff" stroke-linecap="round" stroke-linejoin="round" stroke-width="0.5"><title>2023-11-29 1.0km</title><desc>10298007687</desc></polyline><polyline fill="none" points="117.32812621956691,106.92087287944742 118.53989530401304,110.02879534556996 118.76021695556119,112.29996569827199 120.30246851826087,116.00555262109265 121.18375512538478,119.35252709861379 121.95488090673462,120.90647719288245 122.72600668808445,121.38461538462434 123.05648916587234,121.38461538462434 123.27681081788614,121.02601175406016 123.16664999164641,120.5478734569624 122.72600668808445,119.71113109844737 120.96343347383663,115.04927293327637 119.20086025958881,110.98507798602805 118.87037778180093,109.07251214259304 118.09925200045109,106.80133728159126 117.10780456708744,104.76923076924868" stroke="#4dd2ff" stroke-linecap="round" stroke-linejoin="round" stroke-width="0.5"><title>2023-11-28 1.0km</title><desc>10292316108</desc></polyline><polyline fill="none" points="139.994490806479,104.76923076924868 140.96980225201696,107.4150054884376 141.554989119526,109.95494464377407 142.3352382760495,111.11908192560077 143.21301857708022,112.81237083673477 144.0907988785766,115.56396106956527 144.87104803463444,116.83392401819583 144.87104803463444,117.46890507242642 144.3833923120983,117.89222561975475 142.8228939990513,118.73886634095106 141.84758255351335,119.5855065638898 140.87227110750973,120.11465645045973 139.40930393896997,120.74963605764788 137.06855646939948,121.38461538462434 136.67843189137056,121.27878551650792 136.38583845738322,120.96129586466122 135.8981827343814,118.95052644331008" stroke="#4dd2ff" stroke-linecap="round" stroke-linejoin="round" stroke-width="0.5"><title>2023-11-27 1.0km</title><desc>10287544518</desc></polyline><polyline fill="none" points="158.97073142416775,108.37118212366477 159.50612864177674,109.64929192105774 160.79108196450397,116.15601668390445 162.18311473028734,119.52556005027145 162.9326708354056,120.80366082757246 163.46806805301458,121.38461538462434 163.57514749700204,121.26842449023388 163.25390916597098,120.68746989045758 163.25390916597098,119.75794208690058 162.39727361733094,117.78269368875772 161.43355862563476,114.52933800464962 160.46984363347292,112.5540830718819 159.82736697234213,108.83594944223296 158.0070164320059,105.93115145794582 157.57869865745306,104.76923076924868" stroke="#4dd2ff" stroke-linecap="round" stroke-linejoin="round" stroke-width="0.5"><title>2023-11-26 1.0km</title><desc>10281488289</desc></polyline><polyline fill="none" points="177.7438032720238,104.76923076924868 178.9786716378294,107.98512348381337 180.09005316812545,112.54096178314649 181.20143469795585,115.08686646074057 181.44840837130323,116.69480442488566 182.06584255490452,118.16874631261453 183.4241977580823,120.71464312938042 184.04163194121793,121.38461538462434 184.28860561409965,121.38461538462434 182.4363030642271,117.36477815778926 182.18932939087972,116.02483044553082 180.95446102507412,114.28289694688283 178.48472429206595,107.58313720521983 177.24985592486337,105.3052132826997" stroke="#4dd2ff" stroke-linecap="round" stroke-linejoin="round" stroke-width="0.5"><title>2023-11-25 1.0km</title><desc>10275889695</desc></polyline><polyline fill="none" points="16.010877751745284,123.38605380465742 16.869515479076654,127.26816442969721 20.876491541974247,138.13803622196428 21.87823555758223,139.69087048317306 22.307554421480745,139.84615384612698 22.450660709757358,139.38030372199137 21.019597829785198,137.51690219796728 19.302322374656796,132.39253952982835 18.1574720707722,130.0632796618156 17.441940631251782,125.56003663374577 16.58330290345475,123.23076923075132" stroke="#4dd2ff" stroke-linecap="round" stroke-linejoin="round" stroke-width="0.5"><title>2023-11-24 1.0km</title><desc>10271180196</desc></polyline><polyline fill="none" points="37.35712406318635,125.07693067810033 37.721703979652375,126.13187922281213 38.57239045063034,130.61540361738298 40.638343310914934,136.9450660358416 41.61055642133579,139.58241878484841 41.97513633733615,139.84615384612698 42.46124289231375,139.84615384612698 42.58276953129098,139.58241878484841 42.33971625380218,138.263742894982 41.0029232269153,134.4395773326978 37.47865070216358,126.79122174845543 36.263384314253926,123.23076923075132" stroke="#4dd2ff" stroke-linecap="round" stroke-linejoin="round" stroke-width="0.5"><title>2023-11-23 1.0km</title><desc>10265414399</desc></polyline><polyline fill="none" points="58.15963273495436,126.97509639698546 58.26746620796621,128.6132367621176 58.69880009815097,131.1874539295677 60.42413566028699,136.10185696044937 60.96330302301794,138.4420435464708 61.825970803853124,139.84615384612698 62.472971639595926,139.84615384612698 62.365138167049736,139.14409885101486 61.17896996811032,136.10185696044937 60.20846871472895,134.5807338344166 58.80663357069716,130.25137544155587 57.189131481572986,125.80499510385562 56.757797591388226,123.23076923075132" stroke="#4dd2ff" stroke-linecap="round" stroke-linejoin="round" stroke-width="0.5"><title>2023-11-21 1.0km</title><desc>10253878272</desc></polyline><polyline fill="none" points="78.01938757160679,127.71815237402916 78.57823280151933,131.35656217753422 80.9253827673383,137.29928093310446 81.93130418146029,139.48231509933248 82.26661131950095,139.84615384612698 82.4901494118385,139.72487427294254 82.60191845754161,139.48231509933248 82.15484227379784,137.54184042743873 80.14299944508821,133.17576407047454 79.36061612376943,130.87144133413676 78.1311566173099,126.14150563336443 77.46054234122857,124.92869942297693 77.0134661574848,123.23076923075132" stroke="#4dd2ff" stroke-linecap="round" stroke-linejoin="round" stroke-width="0.5"><title>2023-11-20 1.0km</title><desc>10248671423</desc></polyline><polyline fill="none" points="97.04192961053923,124.6153907738626 98.66596825560555,128.13987692201044 99.12997929751873,131.79022992693353 100.40600966149941,134.68533194845077 101.68204002501443,138.33567099831998 102.26205382728949,139.21678615466226 102.95807038946077,139.84615384612698 102.84206762909889,138.8391654288862 100.87002070294693,133.6783404960297 99.59399033943191,129.0209973253077 98.31795997498557,126.00001119740773 97.62194341281429,123.2307692306349" stroke="#4dd2ff" stroke-linecap="round" stroke-linejoin="round" stroke-width="0.5"><title>2023-11-19 1.0km</title><desc>10242265034</desc></polyline><polyline fill="none" points="116.96305730380118,138.03501069679623 117.68873154837638,135.75139105535345 117.97900124662556,135.20017179159913 118.48697321745567,134.88518922787625 120.95426564919762,134.57020657137036 122.76845126086846,134.17647812044015 123.34899065666832,133.70400378818158 123.71182777895592,133.2315292477142 124.14723232598044,131.26288308459334 124.00209747673944,130.6329155479325 124.29236717452295,130.16043965239078 124.07466490124352,126.53811752604088 123.92953005246818,126.06563982367516 123.85696262773126,124.64820546534611 123.71182777895592,123.781994656194 122.91358611010946,123.54575522290543 122.26047928980552,124.01823403709568 122.40561413858086,123.781994656194 122.55074898758903,124.01823403709568 121.60737246950157,123.54575522290543 121.53480504546314,123.23076923069311 121.31710277171806,123.38826223835349 121.46223762072623,123.309515737521 120.95426564919762,123.93948758259648 121.02683307393454,123.86074112227652 122.55074898758903,124.64820546534611 122.18791186530143,124.96319104044233 121.60737246950157,125.19943016098114 120.22859140485525,125.43566922936589 120.15602398011833,125.12068379315315 120.51886110240594,124.96319104044233 121.02683307393454,125.04193741967902 122.55074898758903,123.54575522290543 124.65520429681055,123.62450170639204 124.43750202376395,123.46700873348163 124.14723232598044,123.38826223835349 123.92953005246818,127.16808747174218 124.00209747673944,128.27053398499265 124.21979975001886,129.60921751055866 124.36493459925987,131.8928502505296 124.36493459925987,132.68030868686037 124.14723232598044,133.4677665439085 123.71182777895592,133.940240980417 120.08345655584708,134.33396951813484 118.41440579318441,134.64895224419888 117.54359669960104,135.27891741809435 116.52765275700949,136.69633770454675 115.94711336144246,138.74371925048763 115.7294110879302,139.84615384612698" stroke="#4dd2ff" stroke-linecap="round" stroke-linejoin="round" stroke-width="0.5"><title>2023-11-18 1.0km</title><desc>10236386505</desc></polyline><polyline fill="none" points="136.99402241129428,123.23076923075132 139.4002496828325,127.38463141734246 140.27524141734466,130.47035069402773 140.6033633183688,132.25057067035232 141.25960711948574,133.31870171392802 143.33771248953417,139.37143094476778 143.77520835772157,139.84615384612698 143.77520835772157,139.37143094476778 143.33771248953417,138.77802712167613 142.13459885446355,135.2175996020669 141.47835505288094,134.03078868368175 141.25960711948574,132.01320812036283 140.27524141734466,129.52089923678432 139.18150174897164,127.14726815209724 139.07212778180838,125.84176956734154" stroke="#4dd2ff" stroke-linecap="round" stroke-linejoin="round" stroke-width="0.5"><title>2023-11-17 1.0km</title><desc>10231268371</desc></polyline><polyline fill="none" points="157.61323965108022,123.76675174420234 159.21856817277148,126.04467566660605 159.589028601069,129.12656820681877 160.70040988596156,131.53848047240172 162.42922521801665,137.9702309105778 163.5406065029092,139.84615384612698 163.41711969301105,138.77419811941218 162.55271202744916,137.0322687185835 161.93527798028663,135.2903376527829 160.94738350482658,131.1364953162847 158.97159455437213,126.98264351312537 158.3541605072096,125.10670733719599 157.98370007891208,123.23076923075132" stroke="#4dd2ff" stroke-linecap="round" stroke-linejoin="round" stroke-width="0.5"><title>2023-11-16 1.0km</title><desc>10225818993</desc></polyline><polyline fill="none" points="177.88787156436592,123.4094298845157 178.7111170515418,126.62531940732151 180.02830983139575,130.1985249966383 181.8394499020651,133.59306544065475 182.49804629199207,136.27296244166791 183.65058997366577,138.59553745226003 184.80313365533948,139.8461538462434 181.8394499020651,134.3077049299609 180.52225712314248,130.1985249966383 176.73532788362354,123.23076923075132" stroke="#4dd2ff" stroke-linecap="round" stroke-linejoin="round" stroke-width="0.5"><title>2023-11-15 1.0km</title><desc>10219684298</desc></polyline><polyline fill="none" points="16.29494115896523,143.69115955126472 17.79163782345131,145.5650810332736 18.0218988484703,147.93871194380336 19.74885653797537,152.06132617173716 20.785031151026487,155.5592940368224 21.821205764543265,158.1827652102802 22.281727815046906,158.30769230774604 22.16659730207175,156.8085665294202 20.669900638516992,154.80973010044545 20.094248075038195,153.06074629665818 19.173203974496573,151.93639861478005 18.827812436502427,150.56219488265924 17.10085474792868,147.06421673099976 16.52520218444988,144.56565649982076 16.179810646921396,141.69230769237038" stroke="#4dd2ff" stroke-linecap="round" stroke-linejoin="round" stroke-width="0.5"><title>2023-11-14 1.0km</title><desc>10213806154</desc></polyline><polyline fill="none" points="37.20389400795102,143.97994311724324 38.09156717406586,147.35118949809112 40.532668380998075,153.612057221937 41.08746410952881,155.6588741708547 42.1970555675216,157.9464900867315 42.529933005105704,158.30769230774604 41.86417813040316,157.1036845948547 40.31075008912012,153.37125505995937 40.19979094341397,152.40804605698213 39.09019948588684,149.75921837834176 37.425812299363315,146.74918172473554 36.76005742466077,144.70235364011023 36.31622084137052,141.69230769237038" stroke="#4dd2ff" stroke-linecap="round" stroke-linejoin="round" stroke-width="0.5"><title>2023-11-13 1.0km</title><desc>10208522228</desc></polyline><polyline fill="none" points="57.75934058567509,143.58042770100292 58.919368104077876,147.10491281282157 60.311401126440614,150.00002015556674 61.12342038890347,153.39861818100326 61.935439651831985,155.79022015456576 62.97946441825479,158.05594525905326 63.44347542524338,158.30769230774604 63.67548092966899,157.804198173224 62.39945065882057,155.28672527999151 61.70343414833769,152.5175008221995 59.15137360803783,150.1258942767745 57.75934058567509,148.11190722626634 57.52733508171514,145.97204338945448 55.5552883008495,141.69230769237038" stroke="#4dd2ff" stroke-linecap="round" stroke-linejoin="round" stroke-width="0.5"><title>2023-11-12 1.0km</title><desc>10202270880</desc></polyline><polyline fill="none" points="77.29372259322554,144.79220530285966 80.03623500932008,150.9919834297616 80.95040581421927,154.091863947222 81.86457662004977,156.5717642592499 82.4359333734028,157.68771821004339 83.00729012629017,158.30769230774604 83.12156147742644,157.81171304779127 82.09311932092533,154.71183936693706 80.15050635952502,151.7359552734997 78.09362204791978,147.024128053803 77.29372259322554,143.67624281928875 76.49382313806564,141.69230769237038" stroke="#4dd2ff" stroke-linecap="round" stroke-linejoin="round" stroke-width="0.5"><title>2023-11-11 1.0km</title><desc>10196068378</desc></polyline><polyline fill="none" points="98.45533075649291,144.17004932055715 100.33579766191542,149.85426841361914 102.08194550313056,154.5182308817748 102.88785989116877,157.5789502885891 103.42513614939526,158.30769230774604 103.69377427920699,158.01619553216733 103.29081708518788,156.26721397822257 101.27603111509234,151.7490044895094 99.26124514453113,147.5222830651328 96.5748638510704,143.2955526293954 96.30622572125867,141.69230769237038" stroke="#4dd2ff" stroke-linecap="round" stroke-linejoin="round" stroke-width="0.5"><title>2023-11-10 1.0km</title><desc>10191120477</desc></polyline><polyline fill="none" points="116.33499609073624,142.19965004897676 118.32209600741044,143.7216762242606 119.49097831081599,145.75104236870538 119.84164300188422,146.51205405744258 119.84164300188422,147.65357096132357 121.12741353549063,151.58545673731714 121.59496645722538,153.86848307575565 122.53007230022922,156.40517546387855 122.76384876063094,157.67352025944274 123.34828991256654,158.30769230774604 123.69895460316911,158.18085791682824 124.04961929423735,157.67352025944274 122.76384876063094,156.78567900066264 120.65986061422154,153.74164835829288 118.20520777720958,147.01939499692526 117.62076662527397,143.21433431480546 117.0363254728727,141.69230769237038" stroke="#4dd2ff" stroke-linecap="round" stroke-linejoin="round" stroke-width="0.5"><title>2023-11-09 1.0km</title><desc>10185506531</desc></polyline><polyline fill="none" points="137.1433156724088,143.0263958480209 138.3727741842158,145.45200791186653 138.81985000614077,146.66481260641012 140.27284642960876,149.81810063950252 140.8316912073642,152.00114266970195 140.71992225153372,150.66706177219748 140.9434601631947,151.51602246810216 141.39053598511964,154.79058105987497 142.39645658573136,157.82257396099158 142.84353240858763,158.30769230774604 143.40237718634307,158.06513315194752 143.62591509707272,157.7012943517184 142.39645658573136,156.60977746918797 141.50230494095013,155.15442050236743 140.9434601631947,153.57778233953286 140.16107747331262,150.90962201578077 139.04338791780174,149.33297979598865 137.81392940552905,146.66481260641012 137.47862253896892,144.7243246671278 137.59039149433374,142.29871153330896 137.3668535836041,141.69230769237038" stroke="#4dd2ff" stroke-linecap="round" stroke-linejoin="round" stroke-width="0.5"><title>2023-11-08 1.0km</title><desc>10179505859</desc></polyline><polyline fill="none" points="159.8273668619804,150.87145785067696 163.5751479375176,158.30769230774604 163.78930685576051,158.1915014135884 163.25390955945477,156.91340101207606 162.2901944257319,155.2867262790678 161.6477176696062,153.66004987212364 160.36276415828615,152.26575447642244 159.9344463213347,151.45241492753848 159.61320794327185,148.6638190106023 159.39904902456328,147.8504776081536 158.11409551324323,145.64283454837278 157.36453929822892,141.69230769237038" stroke="#4dd2ff" stroke-linecap="round" stroke-linejoin="round" stroke-width="0.5"><title>2023-11-06 1.0km</title><desc>10167691585</desc></polyline><polyline fill="none" points="179.17189808934927,146.3541953326203 179.9430242110975,147.7886196098989 182.80720694735646,154.3630480208667 184.01897656731308,158.068623229512 184.23929831571877,158.30769230774604 184.45962006459013,158.30769230774604 184.45962006459013,157.94908867706545 183.5783330691047,156.03653464489616 182.80720694735646,154.9607220130274 182.69704607315361,154.3630480208667 182.03608082607388,153.64583894074894 180.16334595996886,150.41839416429866 177.96012847032398,144.80023427098058 177.0788414743729,141.69230769237038" stroke="#4dd2ff" stroke-linecap="round" stroke-linejoin="round" stroke-width="0.5"><title>2023-11-05 1.1km</title><desc>10161301187</desc></polyline><polyline fill="none" points="16.123913834802806,160.15384615387302 18.343096260447055,165.09031860507093 19.34172835201025,169.42476995231118 20.895156050100923,172.4347988604568 21.44995165709406,174.84281800396275 22.004747263155878,176.76923076924868 22.337624627165496,176.40802854835056 22.226665505673736,176.04682624782436 20.784196929074824,173.39800694282167 20.673237807583064,173.03680397826247 19.34172835201025,170.98998567508534 18.786932745482773,169.06356611149386 17.34446416888386,166.4147355115274 17.01158680487424,164.12710563687142 16.345832077320665,161.71907073748298" stroke="#4dd2ff" stroke-linecap="round" stroke-linejoin="round" stroke-width="0.5"><title>2023-11-04 1.0km</title><desc>10155501797</desc></polyline><polyline fill="none" points="43.88085169997066,162.67771448148414 42.6210457845591,160.99513609160203 41.845780606381595,160.46932993852533 40.29525024909526,160.15384615387302 38.84162803925574,160.25900742341764 36.80655694566667,161.2054584985599 35.93438361957669,162.04674781742506 35.159118440933526,163.6241639557993 34.965302146505564,164.88609561382327 34.67457770463079,169.09252642979845 34.86839399905875,173.50926546822302 35.062210293952376,174.14022707438562 36.031291767023504,175.71762987133116 37.194189534988254,176.55891065159813 39.13235248159617,176.76923076924868 40.87669913331047,176.03311022208072 42.52413763804361,174.0350668260362 43.008678374346346,173.0886242428096 43.6870354055427,170.03897165774833 43.6870354055427,167.62027705158107 44.171576141845435,164.46545185137074 44.074667994864285,163.3086808673106 43.008678374346346,162.04674781742506 42.13650504825637,161.4157808746677 40.10143395420164,160.46932993852533 39.0354443336837,160.46932993852533 36.70964879868552,161.2054584985599 35.64365917770192,162.15190894750413 34.965302146505564,163.41384190449025 34.77148585161194,164.255129924044 34.965302146505564,167.7254377718782 34.77148585161194,169.30284764559474" stroke="#4dd2ff" stroke-linecap="round" stroke-linejoin="round" stroke-width="0.5"><title>2023-11-03 1.0km</title><desc>10152446508</desc></polyline><polyline fill="none" points="56.17659066990018,160.15384615387302 57.08495133463293,162.12517050886527 57.86354619031772,165.6453875246225 59.1612042831257,168.17993977002334 61.107691421639174,173.24903419800103 61.49698884924874,174.09388196538202 62.14581789588556,176.34680752211716 62.53511532396078,176.76923076924868 63.05417856061831,176.76923076924868 63.05417856061831,176.48761528136674 62.14581789588556,176.0651919724187 61.756520468275994,175.07953722251114 60.84815980354324,174.2346898901742 60.19933075737208,172.40418605855666 59.290970091708004,170.99610499758273 58.25284361792728,168.88398146489635 57.08495133463293,164.51891878363676 56.306356478482485,162.68840566615108" stroke="#4dd2ff" stroke-linecap="round" stroke-linejoin="round" stroke-width="0.5"><title>2023-11-02 1.1km</title><desc>10144903556</desc></polyline><polyline fill="none" points="76.9782345071435,161.3578651966527 77.20015276549384,162.68228512175847 78.08782580122352,164.72911380801816 79.6412536134012,170.26757860393263 82.30427272059023,175.80602466966957 83.08098662644625,176.76923076924868 82.6371501092799,175.32442140765488 80.97276316722855,172.79600195749663 80.08509013149887,169.54517121450044 78.9754988369532,167.97995411115699 77.64398928359151,165.0903186048381 76.53439798904583,160.15384615387302" stroke="#4dd2ff" stroke-linecap="round" stroke-linejoin="round" stroke-width="0.5"><title>2023-11-01 1.0km</title><desc>10138966680</desc></polyline><polyline fill="none" points="97.58225959073752,160.4037027648883 98.15791206946597,162.27762617566623 99.07895603496581,167.2747451683972 100.57565247826278,170.52286463335622 101.49669644376263,173.52112324396148 102.99339288799092,176.76923076924868 103.10852338327095,176.64430367131718 102.07234892202541,175.14517778262962 100.57565247826278,171.64721223211382 99.30921702599153,169.39851629023906 97.12173760868609,162.77733873622492 96.89147661672905,160.1538461537566" stroke="#4dd2ff" stroke-linecap="round" stroke-linejoin="round" stroke-width="0.5"><title>2023-10-31 1.0km</title><desc>10133123337</desc></polyline><polyline fill="none" points="117.58353613410145,162.12308553722687 118.15066038630903,165.07694026909303 118.15066038630903,166.18463444977533 119.39833373995498,168.2769436801318 122.80107925087214,175.53846719383728 123.36820350307971,176.6461544522317 123.59505320340395,176.76923076924868 120.98628164501861,171.6000176713569 119.85203314153478,168.40002061228734 118.60435978742316,165.81540313758887 116.78956218156964,160.15384615387302" stroke="#4dd2ff" stroke-linecap="round" stroke-linejoin="round" stroke-width="0.5"><title>2023-10-30 1.0km</title><desc>10127985445</desc></polyline><polyline fill="none" points="137.7653968972154,162.55871594545897 138.2690927600488,165.94738950452302 138.5713102775626,167.04050836001989 140.58609372982755,171.74091028096154 141.59348545549437,174.47369526466355 143.10457304492593,176.55060849292204 143.50752973556519,176.76923076924868 143.60826890775934,176.44129734265152 142.70161635428667,175.02025165839586 141.3920071106404,172.17815621581394 139.075006140396,167.91500286583323 138.16835358692333,164.74495783541352 137.4631793787703,163.32390097284224 137.36244020611048,161.13765699323267 137.1609618612565,160.15384615387302" stroke="#4dd2ff" stroke-linecap="round" stroke-linejoin="round" stroke-width="0.5"><title>2023-10-28 1.0km</title><desc>10115543824</desc></polyline><polyline fill="none" points="158.42185060260817,163.6000135546783 159.32924953941256,166.55386568047106 160.3500733426772,168.89232825033832 161.25747227901593,172.21540102013387 162.618570683524,175.41539078659844 163.1856950186193,176.64615445269737 163.75281935371459,176.76923076924868 163.86624422110617,176.64615445269737 163.63939448678866,175.9076963615371 162.9588452843018,174.06154970882926 160.69034794392064,169.6307894360507 158.87555007077754,164.70770871266723 157.74130140058696,162.24616292188875 157.2876019324176,160.15384615387302" stroke="#4dd2ff" stroke-linecap="round" stroke-linejoin="round" stroke-width="0.5"><title>2023-10-27 1.0km</title><desc>10110442644</desc></polyline><polyline fill="none" points="178.51741247996688,162.71946785924956 180.65663985488936,169.92762192944065 181.44477625610307,172.12671355658676 182.23291265778244,173.47060145204887 183.1336399735883,176.03620259778108 183.47141271689907,176.5248880814761 184.1469582039863,176.76923076924868 184.2595491176471,176.4027167239692 184.1469582039863,175.91403120441828 183.02104905853048,174.44797378440853 181.33218534197658,171.51585506321862 179.30554888164625,165.5294299441157 177.95445790793747,163.33032958616968 177.27891242085025,160.15384615387302" stroke="#4dd2ff" stroke-linecap="round" stroke-linejoin="round" stroke-width="0.5"><title>2023-10-26 1.0km</title><desc>10104873905</desc></polyline><polyline fill="none" points="18.398575943894684,186.5618939413689 20.950635358691216,192.94315381965134 22.171185513027012,195.11036849941593 22.61502193240449,195.23076923075132 22.504062828142196,194.02676151786 19.508166993036866,188.8495182665065 17.843780418857932,184.6354709789157 16.401312053669244,181.62543056346476 15.846516529098153,178.61538461537566" stroke="#4dd2ff" stroke-linecap="round" stroke-linejoin="round" stroke-width="0.5"><title>2023-10-25 1.0km</title><desc>10098978222</desc></polyline><polyline fill="none" points="36.349427931942046,178.61538461537566 36.23765887785703,179.46434993017465 36.90827320329845,182.25380431639496 37.80242563737556,184.07301115756854 38.361270907800645,186.2560567187611 39.367192395962775,189.16677963989787 41.49080442590639,193.29029498714954 42.16141875134781,194.98821007506922 42.384956859983504,195.23076923075132 42.6084949686192,195.10948965733405 42.49672591406852,193.53285439207684 41.26726631773636,191.22853860177565 40.373113884124905,189.89445956773125 39.2554233414121,187.3475784161128 39.031885233242065,186.01349624374416 37.690656582824886,183.95173076400533 36.90827320329845,182.13252378895413 36.684735094662756,179.94947277090978 36.349427931942046,178.61538461537566" stroke="#4dd2ff" stroke-linecap="round" stroke-linejoin="round" stroke-width="0.5"><title>2023-10-24 1.0km</title><desc>10092835699</desc></polyline><polyline fill="none" points="57.90789181413129,181.48424012982287 59.56030420260504,187.34147108730394 60.33142998395488,188.7758917788742 61.21271659061313,192.36193797143642 62.534646501764655,194.75263103900943 63.085450631566346,195.23076923075132 62.534646501764655,194.63309646898415 61.76352072041482,192.72054215567186 59.780625854153186,190.32984609995037 59.33998255059123,189.4931016501505 58.899339247029275,186.7437954256311 57.57740933634341,184.11401990440208 56.696122729219496,181.36470458447002 56.14531859988347,178.61538461537566" stroke="#4dd2ff" stroke-linecap="round" stroke-linejoin="round" stroke-width="0.5"><title>2023-10-23 1.0km</title><desc>10087395010</desc></polyline><polyline fill="none" points="74.42822616244666,178.69507592532318 74.72198540577665,178.61538461540476 76.8150200152304,178.77476722345455 77.73301765089855,179.0138410476502 77.95333708357066,179.13337792022503 78.43069585436024,179.49198837959557 78.76117500313558,179.89044416727847 79.49557311157696,181.24519165381207 79.86277216579765,182.75931718968786 80.34013093658723,183.55622366722673 80.56045036902651,184.1937480054621 81.07452904502861,185.34925895705237 81.44172809948213,186.54461252110195 81.99252668069676,187.50089347397443 82.24956601881422,187.77980843401747 82.58004516758956,188.33763792351237 82.76364469481632,189.53298489612644 82.87380441091955,189.85174364360864 83.16756365448236,190.2900366152171 83.24100346537307,190.96739778321353 83.35116318170913,191.24631095919176 84.9668390203733,195.0713914624066 85.18715845304541,195.23076923078042 85.18715845304541,195.0315470129135 84.85667930427007,194.71279131202027 84.48948025004938,193.83621216777829 84.12228119559586,193.0791654023633 83.13084374903701,190.0111229470349" stroke="#4dd2ff" stroke-linecap="round" stroke-linejoin="round" stroke-width="0.5"><title>2023-10-22 1.5km</title><desc>10080655811</desc></polyline><polyline fill="none" points="97.35728353005834,178.61538461540476 97.94023569254205,179.03710083806072 96.8909218001645,178.86841438617557 98.52318785479292,180.97699146851664 98.67864176491275,181.48304881481454 98.56205133255571,181.90476292886888 98.01796264760196,182.1999626243487 97.86250873748213,182.4951621677901 97.90137221501209,183.0012181744387 98.21228003501892,184.22418501396896 98.56205133255571,185.10978006312507 98.95068610738963,186.45925560372416 99.65022870223038,187.68221507009002 99.76681913482025,188.14609556485084 100.19431738718413,188.90517192878178 100.46636172989383,189.24253887930536 100.50522520719096,189.45339312250144 100.77726954990067,189.7064181121823 100.9715869370848,190.12812618014868 101.2436312797945,190.92937065509614 101.51567562227137,191.47758991416777 101.47681214474142,192.57402686035493 101.98203735216521,193.54395010418375 102.13749126228504,194.00782585851266 102.40953560452908,194.51387170806993 102.87589733465575,195.1042579682835 103.10907819960266,195.23076923078042 102.21521821711212,193.96565535088303 102.02090082969517,193.2909268074436 101.63226605462842,192.4475150119397 101.47681214474142,191.89929667994147 100.9715869370848,191.182394993637 100.54408868472092,189.95944299019175" stroke="#4dd2ff" stroke-linecap="round" stroke-linejoin="round" stroke-width="0.5"><title>2023-10-20 1.4km</title><desc>10069668027</desc></polyline><polyline fill="none" points="116.84894238319248,178.61538461537566 116.92807528981939,179.25940057833213 117.56113854353316,180.80503599112853 117.71940435701981,181.7495889516431 119.02509731799364,184.9267104237806 119.14379667816684,185.35604983742815 119.22292958479375,186.00005836604396 119.3811953982804,186.42939699057024 120.33079027896747,187.76034472044557 120.84515417274088,188.79075378284324 121.16168579948135,189.8211610270082 121.43865097337402,190.3792975251563 121.59691678662784,191.2379680191516 121.79474905366078,191.66730279265903 122.30911294720136,192.99823858460877 122.3882458540611,193.51343872206053 123.14000846794806,195.05903640721226 123.33784073474817,195.23076923075132 123.45654009468853,195.23076923075132 123.53567300131544,195.18783602950862 123.49610654823482,195.14490282523911 122.7047774810344,194.15743825456593 122.34867940074764,192.95530521933688 121.59691678662784,191.58143586316146 121.47821742668748,191.02330051391618 121.39908451982774,190.0787625539815" stroke="#4dd2ff" stroke-linecap="round" stroke-linejoin="round" stroke-width="0.5"><title>2023-10-19 1.3km</title><desc>10064004415</desc></polyline><polyline fill="none" points="136.63797345245257,178.61538461537566 138.26694820541888,180.73650713532697 138.15834988839924,182.2684272096958 138.37554652197286,183.80034581990913 139.1357347406447,186.51065977406688 140.2217179085128,188.27825336228125 141.30770107731223,191.34207763103768 143.47966741537675,194.8772522022482 143.80546236597002,195.23076923075132 144.13125731609762,195.1129302297486 142.71947919670492,193.69886154448614 140.11311959195882,188.6317718459759 139.4615296907723,186.3928201321978 137.6153583037667,182.50410709099378" stroke="#4dd2ff" stroke-linecap="round" stroke-linejoin="round" stroke-width="0.5"><title>2023-10-18 1.0km</title><desc>10058081424</desc></polyline><polyline fill="none" points="157.6768544940278,179.6223822121974 158.60487644048408,185.03498414938804 161.0409340504557,191.45455961301923 162.66497245663777,194.85314864374232 163.36098891636357,195.23076923075132 163.70899714622647,195.23076923075132 163.94100263295695,194.7272750964621 163.12898343009874,193.72028638294432 162.08495874004439,192.0839284611866 160.69292582012713,189.06295588088688 160.1129121039994,187.300719414372 157.6768544940278,182.3916225505527 157.44484900776297,181.63637562969234 157.21284352103248,178.61538461537566" stroke="#4dd2ff" stroke-linecap="round" stroke-linejoin="round" stroke-width="0.5"><title>2023-10-17 1.0km</title><desc>10051702317</desc></polyline><polyline fill="none" points="177.05892654974014,178.99881835805718 178.2368009048514,181.04379689111374 180.00361243775114,185.64498979458585 180.9459119224921,187.43433930154424 182.00599884195253,190.75741207110696 183.3016606331803,194.0804784890497 183.77281037485227,194.97514913172927 184.36174755264074,195.23076923075132 184.47953498829156,195.10295918607153 184.36174755264074,194.71952899510507 183.06608576187864,192.8023767725099 181.2992742289789,188.45682390709408 180.00361243775114,185.77280053449795 178.9435255182907,180.7881747056963 178.35458834050223,178.61538461537566" stroke="#4dd2ff" stroke-linecap="round" stroke-linejoin="round" stroke-width="0.5"><title>2023-10-16 1.0km</title><desc>10046279660</desc></polyline><polyline fill="none" points="15.828021092806011,197.0769230768783 16.314127970021218,198.13187270751223 16.800234846770763,200.50550710828975 17.893975319340825,204.19782104424667 19.35229594958946,206.43957936833613 21.0536700184457,212.7692348068813 21.661303614731878,213.42857263062615 22.511990649159998,213.69230769225396 22.63351736869663,213.42857263062615 22.511990649159998,212.63736721302848 20.93214329937473,210.3956166349817 20.08145626494661,207.75825942656957 19.10924251144752,206.17584324022755 16.800234846770763,200.76924407016486 15.949547812342644,197.0769230768783" stroke="#4dd2ff" stroke-linecap="round" stroke-linejoin="round" stroke-width="0.5"><title>2023-10-15 1.0km</title><desc>10039610121</desc></polyline><polyline fill="none" points="35.965444988105446,198.2828835096443 36.33590555237606,202.16875058796722 37.32380039151758,204.9826491625281 38.55866893939674,206.72458419785835 39.29959006840363,209.1364914989099 41.398866600356996,212.88834095618222 41.8928140187636,213.42431881965604 42.510248293634504,213.69230769225396 42.88070885743946,213.42431881965604 42.88070885743946,213.0223354366608 40.41097176121548,211.0124171928037 38.80564264860004,208.0645330925472 38.18820837512612,205.51862935069948 36.70636611711234,202.16875058796722 35.965444988105446,199.3548476693686 36.08893184317276,197.61290558998007 35.965444988105446,197.0769230768783" stroke="#4dd2ff" stroke-linecap="round" stroke-linejoin="round" stroke-width="0.5"><title>2023-10-14 1.0km</title><desc>10033377496</desc></polyline><polyline fill="none" points="55.84805687377229,197.3406605430646 58.03553749760613,199.9780330689391 58.278590900823474,201.95605991850607 60.34454482328147,208.28573117859196 62.28897204482928,212.90110239107162 62.89660555124283,213.69230769225396 63.3827123567462,213.69230769225396 63.3827123567462,213.29670508555137 63.26118565490469,212.90110239107162 62.167445342987776,212.10989674087614 60.95217833016068,209.86814550345298 59.615384615026414,205.64837086829357 57.184850588440895,200.241770108114 56.82027048431337,198.3956100186333 56.21263697743416,197.0769230768783" stroke="#4dd2ff" stroke-linecap="round" stroke-linejoin="round" stroke-width="0.5"><title>2023-10-13 1.0km</title><desc>10028006924</desc></polyline><polyline fill="none" points="76.24260049546137,197.0769230768783 77.41148305637762,198.59894969966263 78.11281259357929,199.8673041925067 78.22970084985718,201.51616363960784 78.11281259357929,203.29185666632839 79.39858341077343,205.95539277978241 80.91813074052334,210.01410656841472 82.43767807027325,212.80446675955318 82.78834283910692,213.3118044915609 83.37278411909938,213.69230769225396 83.37278411909938,213.0581356441835 82.08701330190524,211.4092872281326 80.91813074052334,209.37993316852953 79.39858341077343,205.19438288128003 78.4634773619473,203.5455269496888 77.9959243373014,202.15033993066754" stroke="#4dd2ff" stroke-linecap="round" stroke-linejoin="round" stroke-width="0.5"><title>2023-10-12 1.0km</title><desc>10021974100</desc></polyline><polyline fill="none" points="98.05738632474095,199.43284577969462 98.51447189506143,201.91276085947175 98.40020050248131,202.9047258705832 99.42864303663373,206.25260347488802 100.22854278516024,207.74054694338702 101.02844253461808,210.4684398935642 102.17115646088496,213.19632843171712 102.39969924651086,213.4443180799717 102.97105620987713,213.69230769225396 102.85678481683135,213.19632843171712 101.59979949751869,209.97245968540665 100.22854278516024,207.61655170435552 98.40020050248131,203.4007081569871 97.94311493169516,201.78876519214828 97.71457214653492,199.43284577969462 97.02894379012287,197.0769230767619" stroke="#4dd2ff" stroke-linecap="round" stroke-linejoin="round" stroke-width="0.5"><title>2023-10-10 1.0km</title><desc>10009069592</desc></polyline><polyline fill="none" points="117.37753483094275,199.15385523904115 118.16567123215646,201.35295705182943 118.95380763337016,204.28508827555925 120.64267135038972,207.95024502975866 121.9937623240985,212.59276531415526 122.7818987253122,213.69230769225396 123.0070805544965,213.3257936469745 123.11967146862298,211.9819081228925 122.33153506740928,209.66064874851145 120.64267135038972,206.7285270098364 118.72862580465153,201.35295705182943 118.16567123215646,198.90951041330118 117.26494391588494,197.0769230768783" stroke="#4dd2ff" stroke-linecap="round" stroke-linejoin="round" stroke-width="0.5"><title>2023-10-09 1.0km</title><desc>10003389142</desc></polyline><polyline fill="none" points="137.0016505420208,197.0769230768783 137.8325541880913,198.10733910929412 138.6634578332305,200.03936753596645 139.1382599165663,203.9034179978771 140.91876772837713,207.7674599372549 142.46187449852005,212.14669716614299 143.1740776230581,213.4347060326254 143.76758022699505,213.69230769225396 143.76758022699505,212.66190082661342 141.51227033231407,209.05547202320304 138.54475731262937,201.8425921451999 137.35775210428983,197.20572511432692" stroke="#4dd2ff" stroke-linecap="round" stroke-linejoin="round" stroke-width="0.5"><title>2023-10-08 1.0km</title><desc>9996447828</desc></polyline><polyline fill="none" points="158.44412993872538,200.40001368138473 158.9909999743104,202.41760106780566 160.63161008013412,206.80881195748225 161.17848011571914,208.7077102640178 162.928464228753,213.09890404343605 163.47533426433802,213.69230769225396 163.58470827154815,213.21758479077835 163.58470827154815,212.74286174983718 161.50660213734955,209.06375344784465 160.52223607338965,206.92749316687696 158.77225195989013,201.70551168976817 158.2253819243051,198.97583283111453 157.56913788197562,197.0769230768783" stroke="#4dd2ff" stroke-linecap="round" stroke-linejoin="round" stroke-width="0.5"><title>2023-10-07 1.0km</title><desc>9989974159</desc></polyline><polyline fill="none" points="179.41175220767036,202.02620459068567 180.28053848678246,204.85435859393328 180.9321281965822,206.26843372464646 182.23530761618167,211.80688264057972 182.5611024708487,212.86743450490758 183.21269218064845,213.69230769225396 183.7556836050935,213.69230769225396 183.97288017487153,213.22095163713675 183.86428189044818,212.86743450490758 182.5611024708487,210.9820084826788 181.2579230517149,208.15386529115494 180.82352991169319,206.26843372464646 178.5429659280926,200.7299656715477 178.21717107342556,198.72668527939823 177.56558136362582,197.0769230768783" stroke="#4dd2ff" stroke-linecap="round" stroke-linejoin="round" stroke-width="0.5"><title>2023-10-06 1.0km</title><desc>9984428862</desc></polyline><polyline fill="none" points="15.653697875794023,215.53846153849736 17.536367010325193,220.5775693388423 18.791479766834527,224.79951396933757 20.92517145210877,230.11097903118934 21.80375038133934,231.8814640014898 22.180284208152443,232.15384615387302 22.682329311035573,232.15384615387302 22.80784058617428,231.8814640014898 22.431306759361178,231.2005084437551 20.92517145210877,229.0214489782229 20.0465925228782,227.25096127483994 18.54045721516013,223.30140568583738 17.912900837603956,221.25852880103048 16.155742978677154,217.9899210992735 16.155742978677154,216.7641917244764" stroke="#4dd2ff" stroke-linecap="round" stroke-linejoin="round" stroke-width="0.5"><title>2023-10-04 1.0km</title><desc>9971682885</desc></polyline><polyline fill="none" points="36.90827338816598,217.47895304427948 37.46711861807853,219.41944226750638 38.02596384752542,220.753527284367 38.473040032200515,222.81529291556217 40.59665190568194,227.0600963954348 40.708420952316374,228.51545507414266 41.3790352283977,231.42616857995745 41.60257331980392,231.79000740707852 42.27318759588525,232.15384615387302 42.27318759588525,230.9410500191152 40.82018999848515,228.27289538364857 39.81426858436316,225.96857654396445 39.25542335398495,224.8770559700206 38.69657812360674,223.30041386617813 37.578887664247304,220.99608808080666 37.13181148003787,219.17688123940025 36.90827338816598,217.35767239215784 36.57296625012532,215.53846153849736" stroke="#4dd2ff" stroke-linecap="round" stroke-linejoin="round" stroke-width="0.5"><title>2023-10-03 1.0km</title><desc>9965060084</desc></polyline><polyline fill="none" points="56.5782202067785,216.2250506071141 58.096802410669625,221.16848445194773 58.34989944519475,223.36556196119636 59.23573906393722,224.4640997464303 59.86848164955154,226.11190521297976 61.00741830235347,230.36872927378863 61.8932579215616,231.74189625587314 62.5260005062446,232.15384615387302 62.652549023739994,232.0165295312181 62.272903472650796,230.91799618757796 60.88086978532374,228.30897690728307 58.602996478788555,222.81629282596987 57.2109627914615,218.69676916487515 56.957865757867694,215.53846153838094" stroke="#4dd2ff" stroke-linecap="round" stroke-linejoin="round" stroke-width="0.5"><title>2023-10-02 1.0km</title><desc>9958643020</desc></polyline><polyline fill="none" points="77.17396495910361,218.46278030285612 77.41896285163239,219.659091161564 80.1139396741055,226.03940237127244 81.46142808487639,230.16000806179363 82.19642176385969,231.62215621070936 82.93141544191167,232.15384615387302 83.05391438910738,232.02092368272133 82.93141544191167,231.48923370067496 80.48143651289865,227.7673994495999 78.15395653061569,222.05171050364152 77.05146601237357,218.5957037707558 76.5614702263847,215.53846153849736" stroke="#4dd2ff" stroke-linecap="round" stroke-linejoin="round" stroke-width="0.5"><title>2023-10-01 1.0km</title><desc>9952075403</desc></polyline><polyline fill="none" points="97.61437836615369,217.94649873953313 98.61301067797467,219.99332757631782 99.05684726079926,222.04015385510866 99.3897246979177,223.96657625108492 101.05411188490689,228.66222134779673 102.49658078001812,231.6722431749804 103.162335654255,232.15384615387302 103.38425394613296,231.79264393285848 101.1650710310787,228.4214193628868 100.16643871879205,226.1337987377774 99.83356128167361,224.92978659912478 98.28013324085623,221.5585479020374 97.39246007427573,217.82609696337022 96.61574605386704,215.53846153849736" stroke="#4dd2ff" stroke-linecap="round" stroke-linejoin="round" stroke-width="0.5"><title>2023-09-30 1.0km</title><desc>9945549317</desc></polyline><polyline fill="none" points="117.61983132921159,215.53846153849736 118.7223211992532,217.39939220866654 119.08981782244518,218.86155067721847 120.06980881746858,221.25417107495014 120.55980431567878,224.8430957349483 120.92730093887076,225.90647945110686 122.39728743163869,229.49539487622678 122.76478405483067,231.75507871143054 123.00978180393577,232.02092368283775 123.37727842712775,232.15384615387302 123.4997773016803,231.88800120190717 121.29479756206274,227.90032223367598 119.82481106929481,224.4443266800372 119.33481557155028,222.45048008637968 117.61983132921159,218.46278030332178 116.88483808282763,216.07015621114988" stroke="#4dd2ff" stroke-linecap="round" stroke-linejoin="round" stroke-width="0.5"><title>2023-09-28 1.0km</title><desc>9933629332</desc></polyline><polyline fill="none" points="137.13653618376702,217.42658154689707 138.06455881288275,220.69931796286255 139.8046012413688,223.09092907968443 140.9646295271814,227.3706458983943 142.588669127319,230.26574238634203 143.0526804421097,231.90209910506383 143.51669175596908,232.15384615387302 143.74869741359726,231.7762255667476 143.51669175596908,231.27273132128175 142.588669127319,230.01399505964946 139.92060406971723,224.6014185900567 138.52857012674212,220.82519231527112 137.0205333554186,215.53846153849736" stroke="#4dd2ff" stroke-linecap="round" stroke-linejoin="round" stroke-width="0.5"><title>2023-09-27 1.0km</title><desc>9927137811</desc></polyline><polyline fill="none" points="161.95721972291358,215.53846153846825 161.62594852782786,217.13611675947323 161.29467733297497,218.05476638360415 161.03702195896767,219.17312035083887 159.52789762546308,222.32846377426176 158.75493150390685,223.64651319480618 158.60769986151718,224.20568470994476 158.6813156825956,224.64503335391055 158.86535523552448,225.28408529242733 159.41747389384545,226.6420681659074 159.60151344677433,227.00153365236474 159.82236091024242,227.64058281879988 160.55851912149228,228.55921467856388 160.889790316578,229.27814287639922 161.25786942243576,229.83730859484058 161.55233270674944,230.63611576557742 161.99402763368562,231.23522037276416 162.54614629223943,232.15384615384392" stroke="#4dd2ff" stroke-linecap="round" stroke-linejoin="round" stroke-width="0.5"><title>2023-09-26 1.0km</title><desc>9920397094</desc></polyline><polyline fill="none" points="180.69163541216403,215.53846153849736 179.96741207921878,217.95220540248556 179.24318874650635,219.24327456910396 178.57069565122947,220.08527502324432 178.20858398498967,220.758874717867 178.05339327082038,221.43247381813126 178.1051235087216,222.27447185770143 178.3637746993918,222.9480696208193 178.98453755606897,223.90233210119186 179.24318874650635,224.85659338877304 179.76049112691544,226.0915179902804 180.74336565006524,227.3264405944501 182.39873326802626,230.69440118048806 183.48506826767698,232.15384615387302" stroke="#4dd2ff" stroke-linecap="round" stroke-linejoin="round" stroke-width="0.5"><title>2023-09-25 1.0km</title><desc>9914573673</desc></polyline><polyline fill="none" points="20.455737439915538,234.0 20.047414703527465,234.62031592498533 19.965750156203285,234.93047364801168 20.047414703527465,235.3292476288043 20.088246977189556,235.72802134556696 19.27160150418058,237.23449744976824 19.06744013587013,238.25358209054684 18.781614220468327,239.00681745645124 17.066658727126196,242.01974950480508 17.025826453696936,242.3742111081956 17.189155547879636,243.08313368982635 17.63831055816263,243.79205543739954 17.88330420013517,244.41236128244782 18.250794662861153,245.03266648889985 18.454956031171605,245.65297105681384 18.98577558854595,246.49481194932014 19.39409832493402,247.33665166579885 19.843253335449845,247.82403201673878 19.965750156203285,248.26710472104605 20.251576071605086,248.62156264984515 20.86406017653644,249.68493518570904 21.313215186586604,250.1723136375076 21.435712007572874,250.61538461537566" stroke="#4dd2ff" stroke-linecap="round" stroke-linejoin="round" stroke-width="0.5"><title>2023-09-24 1.0km</title><desc>9907510217</desc></polyline><polyline fill="none" points="40.042499779723585,233.9999999999418 39.695622980128974,234.53772062325152 39.44785383739509,235.07544085104018 39.299192351987585,235.7744765561656 39.24963852320798,236.68859916221118 38.40722343814559,237.81780786294257 37.91168515314348,239.10832995706005 37.465700696222484,239.753590150096 37.16837772494182,240.61393618868897 37.11882389616221,241.52805274550337 38.15945429564454,244.16285289893858 38.555884923785925,244.96942247683182 39.844284465769306,247.01272809290094 40.389376579551026,248.35700499021914 41.08313017897308,249.21734090772225 41.4795608073473,249.91636309557362 41.727329950081185,250.61538461537566" stroke="#4dd2ff" stroke-linecap="round" stroke-linejoin="round" stroke-width="0.5"><title>2023-09-23 1.0km</title><desc>9901004991</desc></polyline><polyline fill="none" points="60.25339050963521,234.0 59.92257263860665,234.61539167410228 59.591754767578095,235.6923257969902 58.83559963363223,237.28208265354624 58.07944449991919,238.359012658766 57.417808757629246,240.153892305505 57.370549061801285,241.1282536078943 57.46506845369004,241.69235689786728 58.41026237094775,243.9487654948025 58.55204145843163,244.61543027422158 58.741080241976306,244.97440335305873 59.40271598403342,245.794912553858 59.92257263860665,246.82054769725073 60.34790990129113,247.89746297494275 61.05680533940904,248.9230950268102 61.860220168950036,250.61538461537566" stroke="#4dd2ff" stroke-linecap="round" stroke-linejoin="round" stroke-width="0.5"><title>2023-09-22 1.0km</title><desc>9895405405</desc></polyline><polyline fill="none" points="80.68847826705314,233.9999999999418 80.55297273490578,234.49013526795898 80.28196167061105,234.78421625576448 79.6947710311506,235.8625121008954 79.46892847749405,236.64672616537428 78.7914008165244,238.3621912150411 78.06870464514941,239.83258631528588 77.61701953783631,240.9108739941148 77.48151400545612,241.45001717936248 77.48151400545612,241.79310807026923 77.61701953783631,242.28323760803323 77.88803060213104,242.77336678549182 78.47522124182433,244.29276494536316 79.06241188105196,245.37104540946893 79.37859145598486,246.15524828789057 79.96578209544532,247.13550058868714 80.32713018124923,247.57661365385866 80.59814124554396,248.36081393773202 81.32083741715178,249.63513743143994 82.13387061026879,250.61538461537566" stroke="#4dd2ff" stroke-linecap="round" stroke-linejoin="round" stroke-width="0.5"><title>2023-09-21 1.0km</title><desc>9889267953</desc></polyline><polyline fill="none" points="101.69165274966508,233.9999999999709 101.09870230127126,235.77889369355398 100.74990792002063,237.17929504218046 100.19183690962382,238.35260134682176 99.52912758500315,240.3207220454933 98.37810612621251,242.4780764738971 98.06419118307531,243.65137070047786 98.09907062107231,243.9163077363337 98.30834724986926,244.48402949693264 98.76177994592581,245.46807906538015 99.0408154509496,246.30073492325027 99.7384042138001,247.2847810187959 100.15695747162681,248.07958610742935 100.40111353842076,248.6473032765207 100.68014904356096,249.13932431660942 101.1335817395011,249.4799539919768 101.69165274966508,250.31260336071136 101.72653218801133,250.4639940102934 101.93580881680828,250.61538461537566" stroke="#4dd2ff" stroke-linecap="round" stroke-linejoin="round" stroke-width="0.5"><title>2023-09-20 1.0km</title><desc>9882714971</desc></polyline><polyline fill="none" points="121.57000279403292,234.0 121.21573833934963,234.89698662635055 120.54657214717008,236.86180963431252 120.50720942975022,237.50251135221333 120.27103312662803,237.84421864614706 119.99549410655163,238.48491928045405 119.83804323757067,239.08290590165416 119.52314150007442,239.89445818852982 118.61779900453985,241.34670681966236 118.38162270141765,242.20096902438672 118.30289726704359,242.96980393462582 118.38162270141765,243.73863782719127 118.61779900453985,244.5928965145431 118.89333802484907,245.1908768483263 119.75931780319661,246.68582498969045 120.19230769225396,247.2838031690335 120.58593486412428,248.3516198156285 120.97956203622743,249.0350214393693 121.37318920809776,249.5902846667741 121.80617909715511,250.01740986519144 122.08171811769716,250.61538461537566" stroke="#4dd2ff" stroke-linecap="round" stroke-linejoin="round" stroke-width="0.5"><title>2023-09-19 1.0km</title><desc>9876194288</desc></polyline><polyline fill="none" points="140.26231380482204,234.0 139.9687900133431,234.47776400251314 139.47958369459957,235.4332910592202 139.33282179874368,236.07030839426443 138.45225042453967,237.60976463358384 137.76736157783307,239.04304852633504 137.62059968221,239.57389369048178 137.6695203143172,240.1578229200095 137.9630441055633,240.90100489306496 138.40332979266532,241.697270443663 138.79469484789297,242.8120407392271 139.33282179874368,243.97989348851843 139.91986938146874,245.04157616681186 140.45799633255228,245.73166907054838 141.0939645471517,246.79334917292 141.48532960214652,248.0142793606501 142.17021844908595,249.07595610670978 142.51266287220642,250.03146384336287 143.14863108703867,250.61538461537566" stroke="#4dd2ff" stroke-linecap="round" stroke-linejoin="round" stroke-width="0.5"><title>2023-09-18 1.0km</title><desc>9870505463</desc></polyline><polyline fill="none" points="160.7438779086806,233.9999999999418 160.50537100597285,234.46585724852048 160.17146134236827,236.0187125171069 159.74214891786687,236.74337713688146 159.55134339560755,237.31275595759507 158.50191302411258,239.02088965685107 158.12030197982676,239.95259720046306 157.88179507711902,240.780780648347 158.07260059914552,241.35015620366903 159.12203097064048,243.6276538198581 159.6467461567372,244.45583294454264 160.0283572007902,245.33577219687868 160.64847514755093,246.16394931217656 160.98238481138833,246.73332051368197 161.41169723612256,248.07910515979165 163.27205107663758,250.61538461537566" stroke="#4dd2ff" stroke-linecap="round" stroke-linejoin="round" stroke-width="0.5"><title>2023-09-16 1.0km</title><desc>9856514700</desc></polyline><polyline fill="none" points="180.53954836027697,234.0 180.0291430070065,235.55078473780304 179.36561604752205,236.60310113447485 177.98752159369178,239.26157811435405 177.9364810581319,239.87081110093277 177.98752159369178,240.59081308590248 178.29376480565406,241.31081438279944 178.80417015892453,242.0861996251624 179.26353497686796,243.13850689178798 180.0801835421007,244.52311947656563 181.10099424910732,246.46157281973865 181.20307531952858,247.18156850530067 181.5603590668179,247.4584897395689 181.96868334966712,248.01233190268977 182.63221030891873,249.12001500750193 183.3467778034974,249.72924002085347 183.49989940947853,250.11692840920296 183.60198048013262,250.61538461537566" stroke="#4dd2ff" stroke-linecap="round" stroke-linejoin="round" stroke-width="0.5"><title>2023-09-15 1.0km</title><desc>9850671982</desc></polyline><polyline fill="none" points="19.653173133265227,252.46153846156085 18.808365328470245,254.69604183908086 17.85795654798858,256.07111765566515 17.435552645707503,256.8159493765561 16.80194679205306,258.4201998957433 16.643545328639448,258.9931457093335 16.643545328639448,259.45150205661776 16.80194679205306,260.02444711193675 17.435552645707503,261.74327975022607 18.01635801140219,262.88916606944986 19.44197118212469,265.35281595005654 20.022776547819376,266.4414029510808 20.12837752327323,267.07163683557883 20.550781425787136,267.47269449656596 21.237187767168507,268.5612785362173 21.817993132863194,269.0769230769365" stroke="#4dd2ff" stroke-linecap="round" stroke-linejoin="round" stroke-width="0.5"><title>2023-09-14 1.0km</title><desc>9844236351</desc></polyline><polyline fill="none" points="36.782381616998464,252.46153846156085 37.08634654432535,252.70891752530588 37.20033339201473,252.95629647988244 37.276324623962864,253.49228384031449 37.504298319341615,253.94581120679504 37.65628078300506,255.22393181131338 37.65628078300506,255.842376219196 37.58028955128975,256.172212957812 37.65628078300506,256.5845086083573 37.84625886264257,257.0792629888165 37.770267630927265,257.4915579723893 37.8082632466685,257.697705350467 38.1882194057107,258.39860586920986 38.530179949011654,259.42934033475467 38.83414487633854,260.0065508079133 39.214101035380736,260.5425314294989 39.632052810397,260.91359463660046 39.746039658086374,261.16096997165005 39.86002650577575,261.69694948990946 40.16399143333547,262.23292849585414 40.505951976403594,263.2224268533173 40.961899367161095,264.0882364838908 41.189873062772676,264.8303579604544 41.30385991046205,265.4487917739316 41.53183360607363,265.9435383338423 41.949785380857065,267.3040891227138 42.5197196197696,268.3760359044245 42.55771523574367,268.5409506120195 42.5197196197696,268.66463661094895 42.06377222877927,269.0769230769365 42.29174592415802,268.9120085268805 42.4057327718474,268.66463661094895 42.481724003795534,268.4584932643047 42.443728388054296,268.1698924516677 42.215754692442715,267.8812914904847 41.53183360607363,266.3970556301356 41.189873062772676,265.2838761570165 40.467956360429525,263.6759463502676 40.1259958173614,262.1092410784331 39.93601773772389,261.65572031444754 39.214101035380736,260.70744844074943 38.492184333037585,259.3468816472159 38.15022378973663,258.233688178967 38.036236942280084,257.4915579723893 37.732272014720365,256.7081972444139 37.12434216029942,255.38885038677836 36.972359696635976,254.7704054786882 36.44042107393034,253.7808922068798 36.32643422600813,253.24490512229386 36.288438610266894,252.58522800708306" stroke="#4dd2ff" stroke-linecap="round" stroke-linejoin="round" stroke-width="0.5"><title>2023-09-13 1.0km</title><desc>9837636972</desc></polyline></svg>