<?xml version="1.0" encoding="utf-8" ?>
<svg baseProfile="full" height="300mm" version="1.1" viewBox="0,0,200,300" width="200mm" xmlns="http://www.w3.org/2000/svg" xmlns:ev="http://www.w3.org/2001/xml-events" xmlns:xlink="http://www.w3.org/1999/xlink"><defs /><rect fill="#222222" height="300" width="200" x="0" y="0" /><text fill="#FFFFFF" style="font-size:12px; font-family:Arial; font-weight:bold;" x="10" y="20">Over 1km Runs</text><text fill="#FFFFFF" style="font-size:4px; font-family:Arial" x="10" y="280">ATHLETE</text><text fill="#FFFFFF" style="font-size:9px; font-family:Arial" x="10" y="290">Jiakai</text><text fill="#FFFFFF" style="font-size:4px; font-family:Arial" x="120" y="280">STATISTICS</text><text fill="#FFFFFF" style="font-size:3px; font-family:Arial" x="120" y="285">Number: 33</text><text fill="#FFFFFF" style="font-size:3px; font-family:Arial" x="120" y="290">Weekly: 5.5</text><text fill="#FFFFFF" style="font-size:3px; font-family:Arial" x="141" y="285">Total: 33.8 km</text><text fill="#FFFFFF" style="font-size:3px; font-family:Arial" x="141" y="290">Avg: 1.0 km</text><text fill="#FFFFFF" style="font-size:3px; font-family:Arial" x="167" y="285">Min: 1.0 km</text><text fill="#FFFFFF" style="font-size:3px; font-family:Arial" x="167" y="290">Max: 1.3 km</text><polyline fill="none" points="20.933750140015036,31.714285714260768 21.080711252521724,32.91031535976799 22.256400152575225,35.78078112640651 22.5503223775886,37.53495091025252 24.975180733483285,43.43531935848296 25.195622402243316,44.23266398377018 25.342583514750004,45.428679822653066 25.63650573976338,46.22602298256243 27.40003908937797,48.69778305228101 28.35528632067144,50.611399882414844 28.94313077069819,52.52501333586406 29.457494664471596,53.56155254674377 29.75141688948497,55.156226321239956 30.11881967075169,55.95356232917402 31.07406690204516,58.42530022858409 31.221028014551848,59.38210048386827 32.61715858336538,62.2524961848394 32.98456136416644,62.571428571420256 33.20500303292647,62.571428571420256 33.35196414543316,62.491695483447984 33.278483589645475,62.41196238971315 31.8088724645786,60.57809961569728 31.147547458298504,58.345566835894715 29.75141688948497,55.79409517440945 29.53097522072494,54.75755809730617 29.384014108218253,53.003416171704885" stroke="#4dd2ff" stroke-linecap="round" stroke-linejoin="round" stroke-width="0.5"><title>2023-10-19 1.3km</title><desc>10064004415</desc></polyline><polyline fill="none" points="56.61337926890701,31.714285714318976 59.63861809577793,35.653513251338154 59.436935506761074,38.4985076750163 59.84030068386346,41.34349937993102 61.252078803256154,46.376939580310136 63.268904687836766,49.65961338719353 65.28573057241738,55.34957274328917 69.31938234250993,61.914896947098896 69.92443010862917,62.57142857136205 70.52947787288576,62.35258471244015 67.90760422311723,59.726457154145464 63.067222099751234,50.316147713921964 61.85712656844407,46.158094531157985 58.42852256447077,38.93619888345711" stroke="#4dd2ff" stroke-linecap="round" stroke-linejoin="round" stroke-width="0.5"><title>2023-10-18 1.0km</title><desc>10058081424</desc></polyline><polyline fill="none" points="94.61415834631771,33.58442410849966 96.33762767538428,43.63639913452789 100.86173466499895,55.55846785288304 103.87780599016696,61.870133195538074 105.17040798719972,62.57142857136205 105.8167089857161,62.57142857136205 106.24757631774992,61.63636803650297 104.73954065609723,59.766246139770374 102.80063766054809,56.72729571373202 100.21543366648257,51.11691806465387 99.13826533593237,47.84419319801964 94.61415834631771,38.727299022488296 94.1832910142839,37.32469759811647 93.75242368225008,31.714285714318976" stroke="#4dd2ff" stroke-linecap="round" stroke-linejoin="round" stroke-width="0.5"><title>2023-10-17 1.0km</title><desc>10051702317</desc></polyline><polyline fill="none" points="129.53800645004958,32.42637695069425 131.7254873951897,36.22419422632083 135.0067088138312,44.7692667611409 136.75669357087463,48.092344417003915 138.72542642056942,54.26376527477987 141.1316554620862,60.43517433665693 142.00664784014225,62.09670553030446 143.100388311781,62.57142857136205 143.31913640722632,62.33406705968082 143.100388311781,61.62198241939768 140.69415927212685,58.061556863132864 137.41293785441667,49.99124439875595 135.0067088138312,45.00662956410088 133.0379759632051,35.749467310495675 131.94423548970371,31.714285714086145" stroke="#4dd2ff" stroke-linecap="round" stroke-linejoin="round" stroke-width="0.5"><title>2023-10-16 1.0km</title><desc>10046279660</desc></polyline><polyline fill="none" points="166.53775345813483,31.714285714086145 167.44052337296307,33.67347788554616 168.34329328686,38.08165605831891 170.37452559359372,44.93881051056087 173.08283533528447,49.10207596956752 176.24253003392369,60.85715035558678 177.37099242769182,62.08163488539867 178.95083977654576,62.57142857136205 179.17653225641698,62.08163488539867 178.95083977654576,60.612253395607695 176.01683755591512,56.44900232204236 174.43699020612985,51.551053220639005 172.631450378336,48.61228030337952 168.34329328686,38.571453273296356 166.76344593707472,31.714285714086145" stroke="#4dd2ff" stroke-linecap="round" stroke-linejoin="round" stroke-width="0.5"><title>2023-10-15 1.0km</title><desc>10039610121</desc></polyline><polyline fill="none" points="20.72154069226235,68.23964080377482 21.409538883715868,75.45625109202228 23.24420072697103,80.68206273042597 25.53752803057432,83.91708493907936 26.913524413481355,88.39634135528468 30.81218082923442,95.36406177585013 31.72951174993068,96.35944923665375 32.87617540266365,96.85714285704307 33.56417359318584,96.35944923665375 33.56417359318584,95.61290866835043 28.97751898597926,91.88020335813053 25.99619349092245,86.40556145762093 24.849529840052128,81.67745450860821 22.097537075169384,75.45625109202228 20.72154069226235,70.2304313860368 20.95087342336774,66.9953960957937 20.72154069226235,66.0" stroke="#4dd2ff" stroke-linecap="round" stroke-linejoin="round" stroke-width="0.5"><title>2023-10-14 1.0km</title><desc>10033377496</desc></polyline><polyline fill="none" points="56.57496276590973,66.48979815118946 60.637426782399416,71.3877756993752 61.08881167322397,75.06125413440168 64.92558324430138,86.81635790294968 68.53666236903518,95.38776158331893 69.66512459516525,96.85714285704307 70.56789437774569,96.85714285704307 70.56789437774569,96.12245230167173 70.34220193140209,95.38776158331893 68.3109699236229,93.91837966162711 66.05404547136277,89.75512736360542 63.57142857182771,81.91840304108337 59.05757966544479,71.87757305800915 58.38050232920796,68.44899003440514 57.252040102146566,65.99999999976717" stroke="#4dd2ff" stroke-linecap="round" stroke-linejoin="round" stroke-width="0.5"><title>2023-10-13 1.0km</title><desc>10028006924</desc></polyline><polyline fill="none" points="93.37911520618945,65.99999999976717 95.54989710543305,68.8266208707355 96.85236624535173,71.18213635729626 97.06944443657994,74.24430390191264 96.85236624535173,77.54201952298172 99.24022633489221,82.48858659085818 102.06224280502647,90.02619791263714 104.88425927422941,95.20829541049898 105.53549384418875,96.15049405558966 106.62088479381055,96.85714285704307 106.62088479381055,95.67939476761967 104.23302470427006,92.61724770930596 102.06224280502647,88.84844731283374 99.24022633489221,81.07528249360621 97.50360081531107,78.0131214777939 96.63528805598617,75.42205987102352" stroke="#4dd2ff" stroke-linecap="round" stroke-linejoin="round" stroke-width="0.5"><title>2023-10-12 1.0km</title><desc>10021974100</desc></polyline><polyline fill="none" points="132.82086031604558,70.37528501963243 133.66973351873457,74.98084159637801 133.45751521829516,76.82306233118288 135.36747992411256,83.04054931062274 136.85300802905113,85.80387289519422 138.33853613492101,90.86995980259962 140.4607191402465,95.93603851622902 140.88515574205667,96.39659072016366 141.9462472461164,96.85714285704307 141.73402894474566,95.93603851622902 139.3996276371181,89.94885370181873 136.85300802905113,85.57359602255747 133.45751521829516,77.74417229183018 132.60864201467484,74.75056392839178 132.184205413796,70.37528501963243 130.91089561022818,66.0" stroke="#4dd2ff" stroke-linecap="round" stroke-linejoin="round" stroke-width="0.5"><title>2023-10-10 1.0km</title><desc>10009069592</desc></polyline><polyline fill="none" points="167.6297075431794,69.85715972981416 169.09338943101466,73.94120595348068 170.55707131884992,79.38659251178615 173.69353250786662,86.19331219815649 176.20270145870745,94.81513558351435 177.66638334654272,96.85714285704307 178.08457817230374,96.1764739160426 178.29367558471859,93.6806865138933 176.82999369688332,89.36977624730207 173.69353250786662,83.92440730403177 170.13887649402022,73.94120595348068 169.09338943101466,69.40337648196146 167.42061012983322,66.0" stroke="#4dd2ff" stroke-linecap="round" stroke-linejoin="round" stroke-width="0.5"><title>2023-10-09 1.0km</title><desc>10003389142</desc></polyline><polyline fill="none" points="20.86020814999938,100.28571428568102 22.403314921073616,102.1993440601509 23.94642169121653,105.78739685262553 24.82819698844105,112.96349056763574 28.134854353033006,120.13956845505163 31.0006240690127,128.27243759436533 32.323287014849484,130.66445406060666 33.425506136380136,131.14285714295693 33.425506136380136,129.22924439236522 29.23707347456366,122.53159090038389 23.725977866910398,109.13624255545437 21.52153962291777,100.52491806959733" stroke="#4dd2ff" stroke-linecap="round" stroke-linejoin="round" stroke-width="0.5"><title>2023-10-08 1.0km</title><desc>9996447828</desc></polyline><polyline fill="none" points="59.610527030192316,106.45716826571152 60.62614281009883,110.20411626901478 63.67299014981836,118.35922220698558 64.6886059306562,121.88574763340876 67.93857642542571,130.04082179511897 68.95419220626354,131.14285714295693 69.15731536224484,130.261228897376 69.15731536224484,129.37960039288737 65.2979753986001,122.54697068920359 63.46986699383706,118.57963016722351 60.21989649813622,108.88166456692852 59.20428071729839,103.81226097233593 57.985541781410575,100.28571428568102" stroke="#4dd2ff" stroke-linecap="round" stroke-linejoin="round" stroke-width="0.5"><title>2023-10-07 1.0km</title><desc>9989974159</desc></polyline><polyline fill="none" points="97.47896838467568,109.47723709698766 99.09242861811072,114.72952310321853 100.30252379365265,117.35566263156943 102.7227141438052,127.64135347562842 103.32776173111051,129.61094979499467 104.53785690665245,131.14285714295693 105.54626955185086,131.14285714295693 105.94963460974395,130.2674816120416 105.74795208126307,129.61094979499467 103.32776173111051,126.10944432509132 100.90757138095796,120.85717839794233 100.10084126424044,117.35566263156943 95.86550815217197,107.06993624730967 95.26046056486666,103.34955837624148 94.05036538932472,100.28571428591385" stroke="#4dd2ff" stroke-linecap="round" stroke-linejoin="round" stroke-width="0.5"><title>2023-10-06 1.0km</title><desc>9984428862</desc></polyline><polyline fill="none" points="129.78543891198933,100.28571428568102 133.2818244472146,109.64405734348111 135.61274813767523,117.4848116573412 139.5753184100613,127.34896105783992 141.2069649938494,130.63700457429513 141.90624210052192,131.14285714295693 142.8386115776375,131.14285714295693 143.07170394528657,130.63700457429513 142.37242683768272,129.3723728240002 139.5753184100613,125.32554810238071 137.94367182720453,122.03749951045029 135.14656339865178,114.70261055929586 133.98110155481845,110.90869634458795 130.71780838817358,104.83842489868402 130.71780838817358,102.56207034527324" stroke="#4dd2ff" stroke-linecap="round" stroke-linejoin="round" stroke-width="0.5"><title>2023-10-04 1.0km</title><desc>9971682885</desc></polyline><polyline fill="none" points="168.18679343536496,103.889484224841 169.22464886121452,107.4932499253191 170.2625042879954,109.97083638515323 171.09278863109648,113.79982970026322 175.03663925360888,121.68303616298363 175.24421033915132,124.38584513752721 176.48963685240597,129.791455934057 176.90477902255952,130.46715661301278 178.15020553488284,131.14285714295693 178.15020553488284,128.89052146393806 175.4517814256251,123.93537714099512 173.58364165667444,119.65592786716297 172.54578622896224,117.62881823000498 171.50793080125004,114.7007686085999 169.43221994768828,110.42130643571727 168.60193560551852,107.04277944448404 168.18679343536496,103.66424872819334 167.56408017873764,100.28571428568102" stroke="#4dd2ff" stroke-linecap="round" stroke-linejoin="round" stroke-width="0.5"><title>2023-10-03 1.0km</title><desc>9965060084</desc></polyline><polyline fill="none" points="21.502408956177533,135.8465225561522 24.322633049450815,145.02718541095965 24.792670398950577,149.10747221391648 26.437801119871438,151.14761381503195 27.61289449315518,154.20782396709546 29.72806256264448,162.11335436580703 31.373193283565342,164.66352161834948 32.548286655917764,165.42857142863795 32.78330533020198,165.1735548437573 32.078249307349324,163.13342149136588 29.493043888360262,158.28809997090138 25.262707747519016,148.08740096259862 22.677502328529954,140.43685702071525 22.207464979961514,134.57142857159488" stroke="#4dd2ff" stroke-linecap="round" stroke-linejoin="round" stroke-width="0.5"><title>2023-10-02 1.0km</title><desc>9958643020</desc></polyline><polyline fill="none" points="58.680220638401806,140.00230627693236 59.135216725058854,142.22402644297108 64.14017368108034,154.0731758326292 66.64265215862542,161.72572925779969 68.00764041952789,164.44114724872634 69.37262867856771,165.42857142863795 69.60012672282755,165.18171541090123 69.37262867856771,164.1942911585793 64.82266781013459,157.28231326374225 60.50020498596132,146.66746236407198 58.45272259507328,140.24916414590552 57.542730420827866,134.57142857159488" stroke="#4dd2ff" stroke-linecap="round" stroke-linejoin="round" stroke-width="0.5"><title>2023-10-01 1.0km</title><desc>9952075403</desc></polyline><polyline fill="none" points="95.56955982279032,139.043497659266 97.42416268773377,142.84475121321157 98.24843062646687,146.64600001671351 98.86663158237934,150.22364160930738 101.95763635728508,158.9441253603436 104.63650716282427,164.53416589647532 105.87290907185525,165.42857142863795 106.28504304308444,164.7577673040796 102.16370334289968,158.49692167411558 100.30910047795624,154.24848337029107 99.69089952297509,152.01246082712896 96.80596173275262,145.7515889608767 95.15742585249245,138.81989436061122 93.71495695691556,134.57142857159488" stroke="#4dd2ff" stroke-linecap="round" stroke-linejoin="round" stroke-width="0.5"><title>2023-09-30 1.0km</title><desc>9945549317</desc></polyline><polyline fill="none" points="131.65111532621086,134.57142857159488 133.69859651383013,138.02744267322123 134.38109024241567,140.74287982913665 136.20107351895422,145.18631771067157 137.11106515862048,151.85146350762807 137.79355888720602,153.8263189806603 140.5235338024795,160.49144762731157 141.20602753106505,164.6880033214111 141.66102335136384,165.18171541090123 142.34351707994938,165.42857142863795 142.57101498916745,164.93485937500373 138.47605261672288,157.52916986262426 135.74607770051807,151.1108924059663 134.83608606178313,147.4080344461836 131.65111532621086,140.00230627763085 130.28612786810845,135.55886153504252" stroke="#4dd2ff" stroke-linecap="round" stroke-linejoin="round" stroke-width="0.5"><title>2023-09-28 1.0km</title><desc>9933629332</desc></polyline><polyline fill="none" points="166.8249957691878,138.07793715852313 168.5484663657844,144.15587621671148 171.77997373323888,148.59743971959688 173.93431197851896,156.54548523994163 176.95038552209735,161.92209300305694 177.81212082039565,164.96104119508527 178.67385611776263,165.42857142863795 179.10472376830876,164.72727605258115 178.67385611776263,163.79221531096846 176.95038552209735,161.4545622537844 171.99540755804628,151.40263452427462 169.41020166315138,144.3896428712178 166.60956194531173,134.57142857159488" stroke="#4dd2ff" stroke-linecap="round" stroke-linejoin="round" stroke-width="0.5"><title>2023-09-27 1.0km</title><desc>9927137811</desc></polyline><polyline fill="none" points="29.706265200162306,168.85714285710128 29.091047266265377,171.82421683898428 28.47582933260128,173.53028042666847 27.99732649535872,175.6072235086467 25.194667019182816,181.4671470093308 23.75915850745514,183.91495307604782 23.48572831437923,184.9534144612844 23.62244341056794,185.7693476572167 23.96423115162179,186.9561584002222 24.989594374550506,189.47812659380725 25.331382115604356,190.14570535434177 25.741527404868975,191.33251094917068 27.108678368618712,193.0385415458586 27.72389630228281,194.37369391327957 28.40747178462334,195.4121445332421 28.95433217007667,196.8956435645814 29.774622748605907,198.00826640654122 30.799985971301794,199.71428571426077" stroke="#4dd2ff" stroke-linecap="round" stroke-linejoin="round" stroke-width="0.5"><title>2023-09-26 1.0km</title><desc>9920397094</desc></polyline><polyline fill="none" points="63.42732290830463,168.8571428571595 62.0823367186822,173.33981003321242 60.73735052905977,175.7375099140918 59.48843478085473,177.30122504313476 58.81594168674201,178.55219590466004 58.52773036016151,179.80316566233523 58.62380080157891,181.36687630729284 59.10415301285684,182.6178435815964 60.2569983182475,184.3900453307433 60.73735052905977,186.1622448648559 61.698054949752986,188.45567626773845 63.52339335018769,190.7491039611632 66.5976474978961,197.00388790667057 68.61512678256258,199.71428571431898" stroke="#4dd2ff" stroke-linecap="round" stroke-linejoin="round" stroke-width="0.5"><title>2023-09-25 1.0km</title><desc>9914573673</desc></polyline><polyline fill="none" points="102.27494095964357,168.85714285710128 101.51662730658427,170.00915814639302 101.36496457597241,170.58516534627415 101.51662730658427,171.32574559631757 101.5924586718902,172.06632535607787 100.07583136484027,174.86406669241842 99.69667453831062,176.75665245385608 99.1658549811691,178.15551813342609 95.98093763645738,183.75096336600836 95.90510627115145,184.4092492008931 96.20843173237517,185.72581970965257 97.04257675120607,187.04238866950618 97.49756494350731,188.19438523880672 98.18004723126069,189.34638062218437 98.559204058256,190.49837481981376 99.54501180769876,192.06179362011608 100.30332546075806,193.62521023646696 101.13747048005462,194.5303451739601 101.36496457597241,195.35319448186783 101.89578413311392,196.0114734925446 103.0332546136342,197.98630820197286 103.8673996324651,198.8914396124892 104.09489372838289,199.71428571426077" stroke="#4dd2ff" stroke-linecap="round" stroke-linejoin="round" stroke-width="0.5"><title>2023-09-24 1.0km</title><desc>9907510217</desc></polyline><polyline fill="none" points="137.5789281623438,168.8571428571595 136.93472839146852,169.85576687182765 136.47458569798619,170.85439015203156 136.19850008189678,172.15259931865148 136.1064715432003,173.85025558713824 134.54198638536036,175.9473574598087 133.62170099839568,178.34404134890065 132.79344415012747,179.54238170746248 132.241272917483,181.14016720757354 132.14924437878653,182.8378122417489 134.08184369187802,187.73101252666675 134.81807200144976,189.22892745700665 137.21081400755793,193.0236378868576 138.22312793321908,195.5201521248091 139.51152747496963,197.11791882873513 140.24775578500703,198.4161028919043 140.70789847848937,199.71428571431898" stroke="#4dd2ff" stroke-linecap="round" stroke-linejoin="round" stroke-width="0.5"><title>2023-09-23 1.0km</title><desc>9901004991</desc></polyline><polyline fill="none" points="174.04201094666496,168.8571428572759 173.4276349004358,170.00001310906373 172.81325885420665,172.00003362307325 171.40897074854,174.95243921375368 170.00468264287338,176.95245208055712 168.77593055041507,180.28579999599606 168.68816254334524,182.09532812901307 168.86369855701923,183.1429485246772 170.61905868910253,187.333421633346 170.88236270891502,188.57151336653624 171.23343473533168,189.2381776557304 172.46218682732433,190.7619804572314 173.4276349004358,192.66673143778462 174.2175469598733,194.6667169535067 175.53406705893576,196.57146219268907 177.02612317120656,199.71428571431898" stroke="#4dd2ff" stroke-linecap="round" stroke-linejoin="round" stroke-width="0.5"><title>2023-09-22 1.0km</title><desc>9895405405</desc></polyline><polyline fill="none" points="28.778602495323867,203.1428571428405 28.52694936422631,204.0531083547976 28.0236431020312,204.59925876080524 26.9331462001428,206.60180818743538 26.51372431498021,208.0582057358697 25.255458659026772,211.24406939954497 23.913308626040816,213.97480315703433 23.07446485524997,215.97733741777483 22.822811724152416,216.9786033332348 22.822811724152416,217.61577213054989 23.07446485524997,218.52601270074956 23.57777111744508,219.43625260179397 24.668268019799143,222.2579920415301 25.758764921221882,224.2605129033327 26.34595556044951,225.71688967756927 27.43645246233791,227.53735823614988 28.10752747859806,228.35656821436714 28.61083374125883,229.81294017005712 29.952983774244785,232.1795409442857 31.462902561295778,234.0" stroke="#4dd2ff" stroke-linecap="round" stroke-linejoin="round" stroke-width="0.5"><title>2023-09-21 1.0km</title><desc>9889267953</desc></polyline><polyline fill="none" points="66.71306939260103,203.1428571428405 65.611875702627,206.44651685946155 64.96411470882595,209.04726222116733 63.927697118138894,211.22625964414328 62.69695122935809,214.88134094164707 60.559339948929846,218.88785630866187 59.97635505441576,221.06683130090823 60.041131153469905,221.55885722464882 60.42978775012307,222.61319763713982 61.27187704271637,224.440718264319 61.79008583771065,225.98707914323313 63.085607826011255,227.81459332065424 63.86292101885192,229.2906599138514 64.31635371455923,230.34499179926934 64.83456250978634,231.25874515942996 65.67665180237964,231.89134312799433 66.71306939260103,233.43769195559435 66.77784549212083,233.7188460191246 67.166502088774,234.0" stroke="#4dd2ff" stroke-linecap="round" stroke-linejoin="round" stroke-width="0.5"><title>2023-09-20 1.0km</title><desc>9882714971</desc></polyline><polyline fill="none" points="102.55857661738992,203.1428571428405 101.90065691573545,204.80868944892427 100.65791970165446,208.45764646370662 100.58481751242653,209.64752108266111 100.14620437799022,210.28212034283206 99.63448905479163,211.4719929494313 99.34208029834554,212.58253953163512 98.75726278545335,214.08970806439174 97.07591243693605,216.7867412365158 96.63729930249974,218.37322818813846 96.49109492450953,219.80106445000274 96.63729930249974,221.22889882192248 97.07591243693605,222.8153792413068 97.58762776013464,223.92591414687922 99.19587591988966,226.70224640943343 100.0,227.81277731392765 100.73102189041674,229.79586537188152 101.46204378129914,231.06503981596325 102.19306567171589,232.096242952568 102.99718975182623,232.88947546394775 103.50890507549047,234.0" stroke="#4dd2ff" stroke-linecap="round" stroke-linejoin="round" stroke-width="0.5"><title>2023-09-19 1.0km</title><desc>9876194288</desc></polyline><polyline fill="none" points="136.20143992314115,203.1428571428405 135.6563243106939,204.03013314749114 134.74779829010367,205.8046833956614 134.47524048388004,206.9877155892318 132.83989364560694,209.8467057480011 131.5679572164081,212.50851869164035 131.2953994097188,213.49437399650924 131.3862520121038,214.57881399418693 131.93136762501672,215.95900908706244 132.7490410436876,217.43778796680272 133.47586186043918,219.5080756584648 134.47524048388004,221.67694505001418 135.56547170877457,223.6486414525425 136.56485033221543,224.93024255952332 137.74593415902928,226.90193417819683 138.47275497578084,229.16937595547643 139.74469140544534,231.14106134092435 140.38065962027758,232.91557570896111 141.5617434475571,234.0" stroke="#4dd2ff" stroke-linecap="round" stroke-linejoin="round" stroke-width="0.5"><title>2023-09-18 1.0km</title><desc>9870505463</desc></polyline><polyline fill="none" points="173.16720183053985,203.14285714295693 172.7242604396306,204.00802060449496 172.1041424931027,206.89189467474353 171.30684799002483,208.23770039726514 170.95249487739056,209.29511820711195 169.00355275860056,212.46736650564708 168.29484653379768,214.19768051523715 167.8519051433541,215.73573548987042 168.2062582555227,216.7931472355267 170.1552003743127,221.0227856655838 171.12967143347487,222.56083261140157 171.83837765827775,224.1950055086054 172.9900252739899,225.73304872273002 173.6101432214491,226.79045238276012 174.4074377240613,229.28976672538556 177.86238057119772,234.0" stroke="#4dd2ff" stroke-linecap="round" stroke-linejoin="round" stroke-width="0.5"><title>2023-09-16 1.0km</title><desc>9856514700</desc></polyline><polyline fill="none" points="26.71630409779027,237.42857142852154 25.768408441450447,240.3086002273485 24.536144088488072,242.26290210685693 21.97682581655681,247.20007364090998 21.88203625101596,248.33150633017067 21.97682581655681,249.66865287383553 22.545563210733235,251.00579813949298 23.493458866607398,252.44579930382315 24.34656495694071,254.40008422755636 25.863198006991297,256.97150759922806 27.758989319670945,260.57149237941485 27.948568450752646,261.90862722403836 28.612095410004258,262.4229095162591 29.370411935262382,263.45147353352513 30.602676287759095,265.50859929958824 31.92973020626232,266.6400171816349 32.21409890335053,267.36000990273897 32.403678034897894,268.285714285681" stroke="#4dd2ff" stroke-linecap="round" stroke-linejoin="round" stroke-width="0.5"><title>2023-09-15 1.0km</title><desc>9850671982</desc></polyline><polyline fill="none" points="64.35589296137914,237.42857142863795 62.786964181344956,241.57836341531947 61.02191930310801,244.1320756461937 60.237454913090914,245.5153345563449 59.060758328065276,248.49465694918763 58.76658418169245,249.55869917443488 58.76658418169245,250.4099323907867 59.060758328065276,251.4739732077578 60.237454913090914,254.66609096468892 61.31609344948083,256.7941655574832 63.963660766370595,261.3695153357694 65.04229930276051,263.3911769090919 65.23841540003195,264.5616112659918 66.02287979051471,265.3064326364547 67.29763442464173,267.32808871008456 68.37627296103165,268.285714285681" stroke="#4dd2ff" stroke-linecap="round" stroke-linejoin="round" stroke-width="0.5"><title>2023-09-14 1.0km</title><desc>9844236351</desc></polyline><polyline fill="none" points="95.09585157455876,237.42857142863795 95.66035786806606,237.88798968982883 95.8720477281604,238.34740774834063 96.01317430171184,239.34281284629833 96.43655402166769,240.18507795553887 96.71880716853775,242.55873050674563 96.71880716853775,243.7072701213765 96.57768059521914,244.3198240644997 96.71880716853775,245.0855159869534 97.0716236019507,246.0043455506675 96.93049702863209,246.77003623446217 97.00106031540781,247.15288136521121 97.70669318223372,248.45455375715392 98.34176276251674,250.36877490743063 98.90626905602403,251.44073721469613 99.61190192308277,252.4361297976575 100.38809807645157,253.12524718226632 100.59978793654591,253.58465851878282 100.81147779664025,254.5800490527181 101.37598409038037,255.57543863519095 102.01105367043056,257.4130784418667 102.85781311057508,259.0210106129525 103.28119283076376,260.3992362122517 103.4928826908581,261.54775615158724 103.9162624112796,262.4665711914422 104.6924585646484,264.9933083707583 105.75090786535293,266.9840666796663 105.82147115212865,267.2903368509142 105.75090786535293,267.5200394203421 104.90414842474274,268.28571428573923 105.32752814493142,267.97944440710125 105.53921800525859,267.5200394203421 105.68034457834437,267.1372017766116 105.60978129203431,266.6012288388447 105.18640157184564,266.06525562517345 103.9162624112796,263.30881759885233 103.28119283076376,261.2414842916187 101.94049038388766,258.2553289362113 101.30542080360465,255.34573343140073 100.9526043701917,254.5034805839532 99.61190192308277,252.74240424711024 98.27119947574101,250.21563734480878 97.636129895458,248.14827804663219 97.42444003582932,246.77003623446217 96.85993374185637,245.31522345391568 95.73092115507461,242.86500786116812 95.44866800797172,241.716467317543 94.46078199427575,239.87879981281003 94.24909213418141,238.88339522707975 94.17852884763852,237.65828058455372" stroke="#4dd2ff" stroke-linecap="round" stroke-linejoin="round" stroke-width="0.5"><title>2023-09-13 1.0km</title><desc>9837636972</desc></polyline></svg>