<?xml version="1.0" encoding="utf-8" ?>
<svg baseProfile="full" height="300mm" version="1.1" viewBox="0,0,200,300" width="200mm" xmlns="http://www.w3.org/2000/svg" xmlns:ev="http://www.w3.org/2001/xml-events" xmlns:xlink="http://www.w3.org/1999/xlink"><defs /><rect fill="#222222" height="300" width="200" x="0" y="0" /><text fill="#FFFFFF" style="font-size:12px; font-family:Arial; font-weight:bold;" x="10" y="20">Over 1km Runs</text><text fill="#FFFFFF" style="font-size:4px; font-family:Arial" x="10" y="280">ATHLETE</text><text fill="#FFFFFF" style="font-size:9px; font-family:Arial" x="10" y="290">Jiakai</text><text fill="#FFFFFF" style="font-size:4px; font-family:Arial" x="120" y="280">STATISTICS</text><text fill="#FFFFFF" style="font-size:3px; font-family:Arial" x="120" y="285">Number: 21</text><text fill="#FFFFFF" style="font-size:3px; font-family:Arial" x="120" y="290">Weekly: 5.2</text><text fill="#FFFFFF" style="font-size:3px; font-family:Arial" x="141" y="285">Total: 21.3 km</text><text fill="#FFFFFF" style="font-size:3px; font-family:Arial" x="141" y="290">Avg: 1.0 km</text><text fill="#FFFFFF" style="font-size:3px; font-family:Arial" x="167" y="285">Min: 1.0 km</text><text fill="#FFFFFF" style="font-size:3px; font-family:Arial" x="167" y="290">Max: 1.0 km</text><polyline fill="none" points="27.058796449564397,42.72344327974133 28.94116672128439,48.85111028701067 30.352944426238537,51.91493973671459 33.17649983521551,63.91491238796152 33.88238868676126,66.2127747607883 35.29416639171541,68.0 36.470647810958326,68.0 36.94124037865549,66.97872854722664 36.70594409573823,66.2127747607883 33.88238868676126,62.127685045823455 31.058833277784288,56.000041464110836 30.117648142389953,51.91493973671459 25.176426177844405,39.914925621822476 24.47053732536733,35.57448477204889 23.058759621344507,32.0" stroke="#4dd2ff" stroke-linecap="round" stroke-linejoin="round" stroke-width="0.5"><title>2023-10-06 1.0km</title><desc>9984428862</desc></polyline><polyline fill="none" points="68.91634539701045,32.0 72.9954618550837,42.918066900689155 75.7148728268221,52.06561360019259 80.33787147887051,63.57378790085204 82.24145915918052,67.40983866993338 83.05728245060891,68.0 84.14504683949053,68.0 84.41698793601245,67.40983866993338 83.60116464365274,65.93443496129476 80.33787147887051,61.21313945297152 78.4342837985605,57.37708276207559 75.17099063191563,48.81971231917851 73.81128514651209,44.393479068763554 70.00410978682339,37.31149571505375 70.00410978682339,34.65574873611331" stroke="#4dd2ff" stroke-linecap="round" stroke-linejoin="round" stroke-width="0.5"><title>2023-10-04 1.0km</title><desc>9971682885</desc></polyline><polyline fill="none" points="117.88459234125912,36.2043982623145 119.09542367234826,40.408791579538956 120.3062550034374,43.29930911608972 121.27492006961256,47.766467983601615 125.87607912905514,56.963542190147564 126.11824539583176,60.1168193272315 127.57124299462885,66.42336525651626 128.05557552631944,67.21168271522038 129.50857312511653,68.0 129.50857312511653,65.37227504118346 126.36041166353971,59.59127333108336 124.1809152662754,54.598582511767745 122.97008393332362,52.23362126830034 121.75925260130316,48.817563376622275 119.33758993912488,43.82485750829801 118.36892487294972,39.883242685347795 117.88459234125912,35.941623516147956 117.15809354186058,32.0" stroke="#4dd2ff" stroke-linecap="round" stroke-linejoin="round" stroke-width="0.5"><title>2023-10-03 1.0km</title><desc>9965060084</desc></polyline><polyline fill="none" points="163.41947711538523,33.4876096486114 166.70973855722696,44.198382979258895 167.25811546482146,48.95871758251451 169.17743464000523,51.338882783893496 170.5483769075945,54.909127961378545 173.01607298851013,64.13224675972015 174.9353921636939,67.10744188772514 176.30633443128318,68.0 176.5805228855461,67.70248065097257 175.75795752462,65.32232507318258 172.74188453610986,59.66944996570237 167.80649237148464,47.76863445620984 164.7904193829745,38.84299985715188 164.24204247631133,32.0" stroke="#4dd2ff" stroke-linecap="round" stroke-linejoin="round" stroke-width="0.5"><title>2023-10-02 1.0km</title><desc>9958643020</desc></polyline><polyline fill="none" points="24.293590744026005,78.33602398936637 24.82441951148212,80.9280308499001 30.663535960018635,94.75203847116791 33.58309418335557,103.68001746712252 35.17558048758656,106.84800512320362 36.76806679088622,108.0 37.033481176011264,107.71200131229125 36.76806679088622,106.56000635121018 31.459779110737145,98.49603214068338 26.416905815713108,86.11203942424618 24.028176359832287,78.62402483657934 22.966518823988736,72.0" stroke="#4dd2ff" stroke-linecap="round" stroke-linejoin="round" stroke-width="0.5"><title>2023-10-01 1.0km</title><desc>9952075403</desc></polyline><polyline fill="none" points="71.49781979247928,77.2174139355775 73.66152313537896,81.65220974874683 74.62316906359047,86.08700001938269 75.34440351184458,90.26091521070339 78.95057574938983,100.43481292040087 82.07592502236366,106.95652687898837 83.51839391607791,108.0 83.99921688251197,107.21739518782124 79.19098723307252,99.91307528619654 77.02728389017284,94.95656393188983 76.30604944191873,92.34787096478976 72.94028868712485,85.04352045431733 71.01699682697654,76.95654342044145 69.3341164495796,72.0" stroke="#4dd2ff" stroke-linecap="round" stroke-linejoin="round" stroke-width="0.5"><title>2023-09-30 1.0km</title><desc>9945549317</desc></polyline><polyline fill="none" points="117.75963454786688,72.0 120.14836259931326,76.03201645193622 120.94460528250784,79.20002646720968 123.06791910529137,84.38403732911684 124.12957601808012,92.16004075901583 124.92581870220602,94.46403881069273 128.11078943591565,102.2400222318247 128.90703212004155,107.13600387470797 129.43786057643592,107.71200131275691 130.2341032596305,108.0 130.49951748736203,107.4240026040934 125.7220613854006,98.78403150639497 122.53709065075964,91.29604114009999 121.47543373890221,86.97604018705897 117.75963454786688,78.33602399053052 116.16714917961508,73.15200512413867" stroke="#4dd2ff" stroke-linecap="round" stroke-linejoin="round" stroke-width="0.5"><title>2023-09-28 1.0km</title><desc>9933629332</desc></polyline><polyline fill="none" points="162.9624950652942,76.09092668490484 164.97321076132357,83.18185558612458 168.74330268986523,88.36367967259139 171.25669731013477,97.63639944652095 174.775449777022,103.90910850348882 175.78080762550235,107.45454806112684 176.78616547212005,108.0 177.28884439729154,107.18182206130587 176.78616547212005,106.09091786271892 174.775449777022,103.36365596251562 168.99464215151966,91.63640694506466 165.97856860794127,83.45458334963769 162.71115560363978,72.0" stroke="#4dd2ff" stroke-linecap="round" stroke-linejoin="round" stroke-width="0.5"><title>2023-09-27 1.0km</title><desc>9927137811</desc></polyline><polyline fill="none" points="32.990642733406276,112.0 32.27288847696036,115.46158631215803 31.555134220980108,117.45199383108411 30.996880910824984,119.87509409338236 27.727111522108316,126.71167151082773 26.052351591642946,129.56744525535032 25.733349699992687,130.77898353815544 25.892850645352155,131.73090560012497 26.29160301014781,133.11551813362166 27.48786010313779,136.0578143594321 27.886612467933446,136.83665624679998 28.365115305408835,138.22126277396455 29.96012476319447,140.2116318034241 30.677879019174725,141.76930956554133 31.475383748300374,142.98083528876305 32.11338753160089,144.7115841587074 33.07039320608601,146.00964414095506 34.26665029954165,148.0" stroke="#4dd2ff" stroke-linecap="round" stroke-linejoin="round" stroke-width="0.5"><title>2023-09-26 1.0km</title><desc>9920397094</desc></polyline><polyline fill="none" points="76.49854339240119,112.0 74.9293928379193,117.22977837198414 73.3602422834374,120.02709489967674 71.90317391091958,121.85142921702936 71.11859863391146,123.31089522200637 70.78235208662227,124.7703599393135 70.89443426812068,126.59468902507797 71.45484518120065,128.05415084504057 72.79983137082309,130.12171955255326 73.3602422834374,132.1892856756458 74.48106410773471,134.86495564563666 76.61062557483092,137.54062128800433 80.19725541397929,144.8378692244878 82.55098124593496,148.0" stroke="#4dd2ff" stroke-linecap="round" stroke-linejoin="round" stroke-width="0.5"><title>2023-09-25 1.0km</title><desc>9914573673</desc></polyline><polyline fill="none" points="125.98743112012744,112.0 125.10273185791448,113.34401783754583 124.92579200537875,114.01602623739745 125.10273185791448,114.88003652915359 125.19120178418234,115.74404624884482 123.42180325929075,119.0080778079573 122.97945362795144,121.21609452960547 122.36016414500773,122.8481044890359 118.64442724268883,129.37612392706797 118.55595731642097,130.14412406773772 118.90983702102676,131.68012299470138 119.88300620997325,133.21612011443358 120.41382576758042,134.56011611199938 121.21005510352552,135.90411072596908 121.65240473486483,137.2481039565755 122.80251377588138,139.0720925569767 123.68721303762868,140.89607860927936 124.66038222704083,141.95206936972681 124.92579200537875,142.91206022899132 125.54508148925379,143.68005240801722 126.87213038280606,145.98402623576112 127.84529957128689,147.0400128812762 128.11070935009047,148.0" stroke="#4dd2ff" stroke-linecap="round" stroke-linejoin="round" stroke-width="0.5"><title>2023-09-24 1.0km</title><desc>9907510217</desc></polyline><polyline fill="none" points="171.34208285575733,112.0 170.59051645640284,113.16506135032978 170.05368331447244,114.3301218439592 169.7315834290348,115.8446992051322 169.62421680008993,117.82529818487819 167.7989841159433,120.27191703638528 166.7253178311512,123.06804824038409 165.75901817483827,124.46611199190374 165.114818403963,126.33019507548306 165.00745177501813,128.31078094861005 167.26215097354725,134.01951461436693 168.12108400138095,135.7670820330968 170.91261634230614,140.19424420129508 172.0936492551118,143.1068441455718 173.59678205428645,144.97090530011337 174.45571508212015,146.48545337375253 174.99254822498187,148.0" stroke="#4dd2ff" stroke-linecap="round" stroke-linejoin="round" stroke-width="0.5"><title>2023-09-23 1.0km</title><desc>9901004991</desc></polyline><polyline fill="none" points="31.382346104364842,152.0 30.66557405050844,153.3333486272022 29.948801996652037,155.66670589346904 28.310465873219073,159.11117908265442 26.67212974978611,161.44452742720023 25.238585642073303,165.33343332854565 25.136189633980393,167.44454948371276 25.340981650166214,168.66677327873185 27.38890180364251,173.5556585721206 27.69608982698992,175.0000989275286 28.105673857498914,175.77787393156905 29.53921796521172,177.55564386665355 30.66557405050844,179.77785334398504 31.58713811961934,182.11116977897473 33.123078235425055,184.33337255811784 34.86381036648527,188.0" stroke="#4dd2ff" stroke-linecap="round" stroke-linejoin="round" stroke-width="0.5"><title>2023-09-22 1.0km</title><desc>9895405405</desc></polyline><polyline fill="none" points="78.57503624539822,152.0 78.28144092531875,153.06195974734146 77.69425028655678,153.69913522084244 76.42200390063226,156.03544288536068 75.93267836794257,157.73457335843705 74.46470176894218,161.45141429943033 72.89886006433517,164.6372703498928 71.92020899802446,166.9735603206791 71.62661367841065,168.14170388877392 71.62661367841065,168.88506748562213 71.92020899802446,169.94701481750235 72.50739963771775,171.00896136870142 73.77964602364227,174.30099071515724 75.05189240863547,176.63726505392697 75.73694815440103,178.33637129049748 77.00919453985989,180.4602512755664 77.7921153921634,181.4159962501144 78.37930603185669,183.11509686510544 79.94514773692936,185.87613110162783 81.7067196550779,188.0" stroke="#4dd2ff" stroke-linecap="round" stroke-linejoin="round" stroke-width="0.5"><title>2023-09-21 1.0km</title><desc>9889267953</desc></polyline><polyline fill="none" points="126.99858095729724,152.0 125.71385498577729,155.85426966939121 124.95813382649794,158.8884725914104 123.74897997034714,161.4306362514617 122.31310976715758,165.6948977652355 119.81922993995249,170.36916569346795 119.13908089650795,172.91130318440264 119.21465301187709,173.48533342877636 119.66808570781723,174.7153972433298 120.65052321599796,176.8475046416861 121.2551001436077,178.65159233374288 122.76654246309772,180.78369220742024 123.673407854978,182.5057698994642 124.20241266628727,183.73582376586273 124.80698959389701,184.8018693526974 125.78942710207775,185.5399003159837 126.99858095729724,187.3439739482128 127.0741530735977,187.67198702233145 127.52758576953784,188.0" stroke="#4dd2ff" stroke-linecap="round" stroke-linejoin="round" stroke-width="0.5"><title>2023-09-20 1.0km</title><desc>9882714971</desc></polyline><polyline fill="none" points="172.985006053932,152.0 172.2174330689013,153.94347102369647 170.76757298549637,158.20058754098136 170.68228709837422,159.58877459634095 170.17057177470997,160.32914039993193 169.57357056438923,161.71732510754373 169.2324270149693,163.01296278683003 168.55013991706073,164.7713260750752 166.58856450999156,167.9178647758672 166.0768491863273,169.76876621937845 165.906277412083,171.43457519158255 166.0768491863273,173.10038195888046 166.58856450999156,174.95127578137908 167.1855657203123,176.24689983797725 169.06185524025932,179.4859541442711 170.00000000046566,180.7815735328477 170.85285887261853,183.0951762672048 171.70571774523705,184.57587978523225 172.55857661738992,185.778950111242 173.4967213771306,186.70438804116566 174.09372258838266,188.0" stroke="#4dd2ff" stroke-linecap="round" stroke-linejoin="round" stroke-width="0.5"><title>2023-09-19 1.0km</title><desc>9876194288</desc></polyline><polyline fill="none" points="29.735013243742287,192.0 29.09904502891004,193.03515533881728 28.039098004810512,195.10546396160498 27.72111389739439,196.48566818749532 25.81320925336331,199.8211567060789 24.329283419065177,202.92660514032468 24.011299311649054,204.07676966267172 24.117294014431536,205.34194965998176 24.753262229263783,206.95217726833653 25.70721455104649,208.67741929460317 26.55517217097804,211.09275493503083 27.72111389739439,213.6231025584275 28.99305032659322,215.92341502802446 30.158992053940892,217.4186163195409 31.536923185456544,219.7189232079545 32.38488080492243,222.36427194811404 33.86880663968623,224.66457156441174 34.610769556835294,226.73483832727652 35.98870068881661,228.0" stroke="#4dd2ff" stroke-linecap="round" stroke-linejoin="round" stroke-width="0.5"><title>2023-09-18 1.0km</title><desc>9870505463</desc></polyline><polyline fill="none" points="77.02840213570744,192.0 76.5116371801123,193.0093573719496 75.78816624218598,196.37387712055352 74.85798932192847,197.94398379675113 74.4445773572661,199.17763790825848 72.17081155208871,202.87859425658826 71.34398762322962,204.89729393448215 70.82722266716883,206.69169140479062 71.2406346318312,207.9253384413896 73.51440043654293,212.85991660982836 74.65128333959728,214.65430471324362 75.47810726845637,216.56083976000082 76.82169615337625,218.35522350983229 77.54516709176823,219.58886111318134 78.47534401156008,222.50472784624435 82.50611066631973,228.0" stroke="#4dd2ff" stroke-linecap="round" stroke-linejoin="round" stroke-width="0.5"><title>2023-09-16 1.0km</title><desc>9856514700</desc></polyline><polyline fill="none" points="122.8356881137006,192.0 121.72980984812602,195.36003359872848 120.29216810315847,197.64005245815497 117.30629678582773,203.4000859145308 117.1957089593634,204.72009071870707 117.30629678582773,206.2800950196106 117.969823745545,207.84009782946669 119.07570201111957,209.5200991879683 120.07099244976416,211.80009826552123 121.84039767459035,214.80009219923522 124.05215420620516,219.00007444282528 124.27332985913381,220.56006509484723 125.04744464484975,221.1600611024769 125.93214725749567,222.36005245591514 127.36978900246322,224.7600325163221 128.9180185738951,226.08002004527953 129.24978205375373,226.92001155333128 129.47095770714805,228.0" stroke="#4dd2ff" stroke-linecap="round" stroke-linejoin="round" stroke-width="0.5"><title>2023-09-15 1.0km</title><desc>9850671982</desc></polyline><polyline fill="none" points="170.91520845517516,192.0 169.08479154482484,196.84142398450058 167.02557252068073,199.8207549204817 166.11036406550556,201.43455698236357 164.73755138274282,204.91043310728855 164.39434821205214,206.15181570337154 164.39434821205214,207.1449211225845 164.73755138274282,208.38630207569804 166.11036406550556,212.11043945874553 167.3687756913714,214.59319315035827 170.45760422805324,219.93110122496728 171.71601585345343,222.28970639384352 171.94481796724722,223.6552131435601 172.86002642242238,224.52417140908074 174.34724016208202,226.8827701617265 175.60565178794786,228.0" stroke="#4dd2ff" stroke-linecap="round" stroke-linejoin="round" stroke-width="0.5"><title>2023-09-14 1.0km</title><desc>9844236351</desc></polyline><polyline fill="none" points="24.278493504039943,232.0 24.937084179837257,232.53598797146697 25.18405568320304,233.071975706378 25.348703352268785,234.2332816539565 25.842646359000355,235.2159242813941 26.171941697131842,237.98518559115473 26.171941697131842,239.32514847489074 26.0072940280661,240.0397947418969 26.171941697131842,240.93310198478866 26.58356086909771,242.00506980915088 26.418913200497627,242.89837560686283 26.50123703479767,243.34502825932577 27.324475379660726,244.8636460499838 28.06538989022374,247.09690405859146 28.723980565555394,248.3475267504109 29.54721891041845,249.50881809729617 30.45278108958155,250.3127883792622 30.699752592947334,250.8487682719715 30.94672409677878,252.0100572281517 31.605314772576094,253.17134507431183 32.34622928267345,255.31525818211958 33.33411529613659,257.1911790483864 33.82805830286816,258.79910891433246 34.075029806699604,260.13904884352814 34.568972813431174,261.210999723291 35.47453499259427,264.1588597658556 36.70939250988886,266.4814111262094 36.79171634465456,266.8387263260083 36.70939250988886,267.10671265702695 35.72150649596006,268.0 36.21544950315729,267.6426851415308 36.46242100652307,267.10671265702695 36.627068675123155,266.660068739322 36.544744841288775,266.03476697858423 36.050801834091544,265.4094648960745 34.568972813431174,262.1936205319362 33.82805830286816,259.78173167351633 32.26390544837341,256.2978837589035 31.52299093781039,252.90335566992871 31.111371765844524,251.9207273479551 29.54721891041845,249.86613828828558 27.98306605545804,246.91824356897268 27.242151544895023,244.50632438773755 26.9951800419949,242.89837560686283 26.336589365731925,241.2010940295877 25.01940801460296,238.3425091713434 24.690112676471472,237.00254520378076 23.53757899394259,234.8585997816408 23.290607490111142,233.69729443162214 23.2082836558111,232.26799401536118" stroke="#4dd2ff" stroke-linecap="round" stroke-linejoin="round" stroke-width="0.5"><title>2023-09-13 1.0km</title><desc>9837636972</desc></polyline></svg>