<?xml version="1.0" encoding="utf-8" ?>
<svg baseProfile="full" height="300mm" version="1.1" viewBox="0,0,200,300" width="200mm" xmlns="http://www.w3.org/2000/svg" xmlns:ev="http://www.w3.org/2001/xml-events" xmlns:xlink="http://www.w3.org/1999/xlink"><defs /><rect fill="#222222" height="300" width="200" x="0" y="0" /><text fill="#FFFFFF" style="font-size:12px; font-family:Arial; font-weight:bold;" x="10" y="20">Over 1km Runs</text><text fill="#FFFFFF" style="font-size:4px; font-family:Arial" x="10" y="280">ATHLETE</text><text fill="#FFFFFF" style="font-size:9px; font-family:Arial" x="10" y="290">Jiakai</text><text fill="#FFFFFF" style="font-size:4px; font-family:Arial" x="120" y="280">STATISTICS</text><text fill="#FFFFFF" style="font-size:3px; font-family:Arial" x="120" y="285">Number: 25</text><text fill="#FFFFFF" style="font-size:3px; font-family:Arial" x="120" y="290">Weekly: 5.0</text><text fill="#FFFFFF" style="font-size:3px; font-family:Arial" x="141" y="285">Total: 25.4 km</text><text fill="#FFFFFF" style="font-size:3px; font-family:Arial" x="141" y="290">Avg: 1.0 km</text><text fill="#FFFFFF" style="font-size:3px; font-family:Arial" x="167" y="285">Min: 1.0 km</text><text fill="#FFFFFF" style="font-size:3px; font-family:Arial" x="167" y="290">Max: 1.0 km</text><polyline fill="none" points="24.211903332732618,36.3940492705442 25.103220195509493,41.22988367616199 24.880390980280936,43.16421544761397 26.885853921063244,49.69257677602582 28.445658431388438,52.594066539779305 30.005462942644954,57.91345779271796 32.23375509865582,63.23284044209868 32.67941353004426,63.71642025606707 33.793559609912336,64.19999999995343 33.57073039282113,63.23284044209868 31.119609020650387,56.94629638665356 28.445658431388438,52.352275823708624 24.880390980280936,44.13138090632856 23.989074116572738,40.98809212492779 23.543415686115623,36.3940492705442 22.206440391018987,31.800000000046566" stroke="#4dd2ff" stroke-linecap="round" stroke-linejoin="round" stroke-width="0.5"><title>2023-10-10 1.0km</title><desc>10009069592</desc></polyline><polyline fill="none" points="58.51119292061776,35.85001771640964 60.04805890284479,40.138266251189634 61.58492488600314,45.85592213761993 64.8782091345638,53.00297780823894 67.51283653266728,62.05589236272499 69.0497025148943,64.19999999995343 69.48880708124489,63.485297611914575 69.70835936442018,60.864720839774236 68.17149338219315,56.338265059748664 64.8782091345638,50.6206276693847 61.14582031965256,40.138266251189634 60.04805890284479,35.37354530626908 58.29164063651115,31.800000000046566" stroke="#4dd2ff" stroke-linecap="round" stroke-linejoin="round" stroke-width="0.5"><title>2023-10-09 1.0km</title><desc>10003389142</desc></polyline><polyline fill="none" points="93.40321855712682,31.799999999813735 95.02348066680133,33.809311263030395 96.64374277554452,37.576766695128754 97.56960683688521,45.11166509590112 101.04159707110375,52.6465468776878 104.05065527185798,61.186059473780915 105.43945136573166,63.69767676363699 106.59678144287318,64.19999999995343 106.59678144287318,62.19070661184378 102.19892714824528,55.15817044535652 96.41227675974369,41.093054683180526 94.097616603598,32.05116397282109" stroke="#4dd2ff" stroke-linecap="round" stroke-linejoin="round" stroke-width="0.5"><title>2023-10-08 1.0km</title><desc>9996447828</desc></polyline><polyline fill="none" points="131.84105338156223,38.28002667869441 132.9074499513954,42.214322082465515 136.1066396581009,50.77718331711367 137.17303622700274,54.48003501514904 140.5855052471161,63.0428628847003 141.65190181694925,64.19999999995343 141.8651811303571,63.27429034211673 141.8651811303571,62.34858041233383 137.8128741690889,55.17431922350079 135.89336034469306,51.00861167535186 132.4808913236484,40.82574779517017 131.41449475381523,35.5028740207199 130.13481887057424,31.799999999813735" stroke="#4dd2ff" stroke-linecap="round" stroke-linejoin="round" stroke-width="0.5"><title>2023-10-07 1.0km</title><desc>9989974159</desc></polyline><polyline fill="none" points="169.35291680507362,41.451098951743916 171.04705004952848,46.96599925821647 172.31764998380095,49.72344576288015 174.85884985141456,60.52342114923522 175.49414981901646,62.59149728459306 176.7647497523576,64.19999999995343 177.8235830301419,64.19999999995343 178.2471163412556,63.28085569222458 178.03534968663007,62.59149728459306 175.49414981901646,58.91491654119454 172.95294995047152,53.40003731753677 172.1058833282441,49.72344576288015 167.65878356061876,38.92343305959366 167.02348359394819,35.017036294797435 165.75288365967572,31.799999999813735" stroke="#4dd2ff" stroke-linecap="round" stroke-linejoin="round" stroke-width="0.5"><title>2023-10-06 1.0km</title><desc>9984428862</desc></polyline><polyline fill="none" points="21.0247108573094,82.79999999981374 24.695915670134127,92.62626021029428 27.14338554441929,100.85905223991722 31.304084330797195,111.21640911046416 33.01731324288994,114.66885480261408 33.75155420601368,115.19999999995343 34.73054215591401,115.19999999995343 34.9752891426906,114.66885480261408 34.24104818049818,113.34099146490917 31.304084330797195,109.0918255073484 29.59085541870445,105.63937448570505 26.653891569003463,97.93774108705111 25.430156632326543,93.95413116156124 22.003698808141053,87.58034614333883 22.003698808141053,85.19017386226915" stroke="#4dd2ff" stroke-linecap="round" stroke-linejoin="round" stroke-width="0.5"><title>2023-10-04 1.0km</title><desc>9971682885</desc></polyline><polyline fill="none" points="59.09613310638815,86.58395843603648 60.18588130455464,90.36791242146865 61.27562950272113,92.96937820431776 62.147428061813116,96.98982118512504 66.28847121540457,105.26718797092326 66.50642085634172,108.10513739450835 67.81411869451404,113.78102873079479 68.25001797359437,114.49051444348879 69.55771581176668,115.19999999995343 69.55771581176668,112.83504753699526 66.72437049634755,107.63214599783532 64.76282373908907,103.13872426049784 63.67307553999126,101.01025914144702 62.58332734089345,97.93580703879707 60.40383094456047,93.44237175746821 59.53203238546848,89.89491841662675 59.09613310638815,86.34746116446331 58.44228418730199,82.79999999981374" stroke="#4dd2ff" stroke-linecap="round" stroke-linejoin="round" stroke-width="0.5"><title>2023-10-03 1.0km</title><desc>9965060084</desc></polyline><polyline fill="none" points="94.07752940338105,84.13884868379682 97.03876470122486,93.77854468137957 97.53230391722172,98.06284582428634 99.25969117507339,100.20499450550415 100.49353921599686,103.41821516538039 102.71446568891406,111.7190220837947 104.44185294676572,114.3966976988595 105.67570098675787,115.19999999995343 105.92247059568763,114.93223258596845 105.18216177169234,112.79009256581776 102.46769608184695,107.70250496920198 98.02584313321859,96.99177101068199 95.3113774433732,88.95869987155311 94.81783822830766,82.80000000004657" stroke="#4dd2ff" stroke-linecap="round" stroke-linejoin="round" stroke-width="0.5"><title>2023-10-02 1.0km</title><desc>9958643020</desc></polyline><polyline fill="none" points="130.86423167027533,88.50242159049958 131.3419775608927,90.83522776491009 136.59718236420304,103.27683462412097 139.22478476632386,111.31201572041027 140.65802244003862,114.16320461081341 142.09126011282206,115.19999999995343 142.33013305906206,114.94080118113197 142.09126011282206,113.90400571632199 137.3138012001291,106.64642892661504 132.77521523460746,95.5008354820311 130.62535872403532,88.76162235299125 129.66986694186926,82.79999999981374" stroke="#4dd2ff" stroke-linecap="round" stroke-linejoin="round" stroke-width="0.5"><title>2023-10-01 1.0km</title><desc>9952075403</desc></polyline><polyline fill="none" points="167.34803781285882,87.49567254190333 169.29537082184106,91.48698877356946 170.16085215751082,95.47830001730472 170.80996316019446,99.2348236895632 174.05551817454398,108.3913316281978 176.8683325201273,114.26087419106625 178.16655452456325,115.19999999995343 178.59929519426078,114.49565566889942 174.27188850939274,107.92176775750704 172.3245555004105,103.46090753865428 171.67544449772686,101.1130838682875 168.6462598182261,94.5391684086062 166.91529714409262,87.2608890782576 165.4007048048079,82.79999999981374" stroke="#4dd2ff" stroke-linecap="round" stroke-linejoin="round" stroke-width="0.5"><title>2023-09-30 1.0km</title><desc>9945549317</desc></polyline><polyline fill="none" points="22.983671092428267,133.80000000004657 25.133526338264346,137.42881480650976 25.85014475416392,140.2800238202326 27.7611271943897,144.94563359604217 28.716618415899575,151.94403668283485 29.433236830867827,154.01763492939062 32.29971049167216,161.01602000859566 33.01632890757173,165.42240348714404 33.49407451786101,165.9408011813648 34.21069293282926,166.19999999995343 34.44956573843956,165.68160234345123 30.1498552467674,157.9056283554528 27.283381585031748,151.16643702588044 26.327890364453197,147.2784361683298 22.983671092428267,139.5024215914309 21.55043426156044,134.8368046116084" stroke="#4dd2ff" stroke-linecap="round" stroke-linejoin="round" stroke-width="0.5"><title>2023-09-28 1.0km</title><desc>9933629332</desc></polyline><polyline fill="none" points="57.666245558299124,137.4818340165075 59.47588968463242,143.86367002758197 62.868972420692444,148.5273117055185 65.13102757837623,156.87275950191543 68.29790479876101,162.5181976533495 69.20272686239332,165.70909325499088 70.10754892416298,166.19999999995343 70.55995995737612,165.463639855152 70.10754892416298,164.48182607651688 68.29790479876101,162.0272903663572 63.09517793636769,151.47276625060476 60.38071174733341,144.10912501462735 57.44004004262388,133.80000000004657" stroke="#4dd2ff" stroke-linecap="round" stroke-linejoin="round" stroke-width="0.5"><title>2023-09-27 1.0km</title><desc>9927137811</desc></polyline><polyline fill="none" points="102.69157846015878,133.80000000004657 102.04559962963685,136.91542768094223 101.39962079934776,138.70679444802226 100.89719282020815,140.8875846841256 97.95440037013032,147.0405043598148 96.44711643271148,149.61070072988514 96.16001473017968,150.70108518440975 96.30356558109634,151.55781504011247 96.6624427093193,152.8039663202362 97.73907409328967,155.4520329235238 98.09795122151263,156.1529906220967 98.52860377519391,157.3991364966496 99.96411228692159,159.19046862318646 100.61009111744352,160.59237860899884 101.32784537388943,161.68275175994495 101.9020487787202,163.2404257428716 102.76335388608277,164.40867972688284 103.83998526982032,166.20000000001164" stroke="#4dd2ff" stroke-linecap="round" stroke-linejoin="round" stroke-width="0.5"><title>2023-09-26 1.0km</title><desc>9920397094</desc></polyline><polyline fill="none" points="135.8486890536733,133.79999999993015 134.43645355431363,138.5068005346693 133.02421805541962,141.0243854096625 131.71285651996732,142.66628629516345 131.00673877075315,143.97980569978245 130.70411687809974,145.2933239452541 130.8049908420071,146.93522012245376 131.30936066340655,148.24873576045502 132.51984823402017,150.10954759723973 133.02421805541962,151.9703571080463 134.0329576972872,154.37846008106135 135.94956301758066,156.78655915916897 139.17752987286076,163.35408230195753 141.29588312190026,166.19999999995343" stroke="#4dd2ff" stroke-linecap="round" stroke-linejoin="round" stroke-width="0.5"><title>2023-09-25 1.0km</title><desc>9914573673</desc></polyline><polyline fill="none" points="174.3886880078353,133.80000000004657 173.5924586718902,135.0096160537796 173.43321280460805,135.61442361364607 173.5924586718902,136.3920328761451 173.67208160553128,137.16964162385557 172.07962293317541,140.10727002704516 171.68150826497003,142.09448507661 171.12414772994816,143.5632940401556 167.7799845179543,149.43851153436117 167.70036158477888,150.12971166090574 168.01885331887752,151.51211069512647 168.8947055884637,152.89450810302515 169.37244319031015,154.1041045007296 170.08904959261417,155.31369965337217 170.48716426081955,156.52329356083646 171.52226239768788,158.1648833011277 172.31849173363298,159.80647074826993 173.19434400415048,160.75686243269593 173.43321280460805,161.62085420603398 173.99057333962992,162.3120471672155 175.18491734424606,164.38562361209188 176.06076961383224,165.33601159311365 176.29963841475546,166.19999999995343" stroke="#4dd2ff" stroke-linecap="round" stroke-linejoin="round" stroke-width="0.5"><title>2023-09-24 1.0km</title><desc>9907510217</desc></polyline><polyline fill="none" points="29.207874570507556,184.79999999993015 28.53146481141448,185.84855521528516 28.048314983025193,186.89710965950508 27.758425086271018,188.26022928452585 27.66179512022063,190.04276836640202 26.01908570434898,192.24472533282824 25.05278604850173,194.76124341634568 24.183116357773542,196.019500792725 23.60333656379953,197.69717556796968 23.506706597749144,199.47970285383053 25.535935876425356,204.6175631529186 26.308975601568818,206.19037382979877 28.821354708168656,210.17481978121214 29.884284330066293,212.79615973099135 31.237103849183768,214.47381476999726 32.01014357432723,215.83690803637728 32.49329340271652,217.19999999995343" stroke="#4dd2ff" stroke-linecap="round" stroke-linejoin="round" stroke-width="0.5"><title>2023-09-23 1.0km</title><desc>9901004991</desc></polyline><polyline fill="none" points="65.24411149369553,184.79999999993015 64.59901664499193,186.00001376436558 63.953921796754,188.1000353040872 62.479419285431504,191.2000611743424 61.00491677457467,193.30007468443364 59.71472707763314,196.8000899956096 59.622570670209825,198.70009453524835 59.8068834845908,199.80009595071897 61.65001162327826,204.20009271474555 61.92648084368557,205.50008903467096 62.29510647151619,206.20008653833065 63.58529616845772,207.80007947993 64.59901664499193,209.80006800952833 65.42842430714518,211.9000528010074 66.81077041151002,213.90003530215472 68.37742932932451,217.19999999995343" stroke="#4dd2ff" stroke-linecap="round" stroke-linejoin="round" stroke-width="0.5"><title>2023-09-22 1.0km</title><desc>9895405405</desc></polyline><polyline fill="none" points="101.71753262076527,184.79999999993015 101.4532968327403,185.7557637724094 100.9248252576217,186.32922169868834 99.77980351028964,188.43189859669656 99.33941053086892,189.96111602254678 98.01823159214109,193.3062728693476 96.60897405771539,196.17354331479874 95.72818809840828,198.2762042884715 95.46395231038332,199.32753349968698 95.46395231038332,199.99656073690858 95.72818809840828,200.95231333561242 96.25665967399254,201.9080652317498 97.40168142085895,204.87089164345525 98.54670316772535,206.97353854845278 99.1632533390075,208.50273416133132 100.3082750858739,210.41422614781186 101.01290385285392,211.2743966249982 101.54137542843819,212.80358717846684 102.95063296332955,215.2885179913137 104.53604768961668,217.19999999995343" stroke="#4dd2ff" stroke-linecap="round" stroke-linejoin="round" stroke-width="0.5"><title>2023-09-21 1.0km</title><desc>9889267953</desc></polyline><polyline fill="none" points="139.29872286203317,184.80000000004657 138.14246948761865,188.26884270249866 137.4623204441741,190.99962533230428 136.37408197368495,193.28757262637373 135.08179879072122,197.12540798878763 132.8373069462832,201.33224912418518 132.22517280699685,203.62017286597984 132.29318771115504,204.1368000859511 132.70127713750117,205.24385751906084 133.58547089458443,207.16275417758152 134.12959012947977,208.78643310040934 135.48988821706735,210.7053229867597 136.3060670697596,212.25519290956436 136.78217140003107,213.3622413892881 137.3262906349264,214.32168241747422 138.2104843922425,214.98591028444935 139.29872286203317,216.60957655345555 139.36673776665702,216.9047883201274 139.77482719300315,217.20000000001164" stroke="#4dd2ff" stroke-linecap="round" stroke-linejoin="round" stroke-width="0.5"><title>2023-09-20 1.0km</title><desc>9882714971</desc></polyline><polyline fill="none" points="174.6865054485388,184.80000000004657 173.9956897618249,186.5491239214316 172.6908156867139,190.38052878691815 172.61405838793144,191.62989713682327 172.15351459709927,192.29622636002023 171.61621350748464,193.54559259692905 171.3091843132861,194.71166650822852 170.695125924889,196.29419346764917 168.92970805894583,199.1260782983736 168.469164267648,200.79188959760359 168.31564967054874,202.29111767251743 168.469164267648,203.7903437630739 168.92970805894583,205.45614820334595 169.4670091480948,206.62220985424938 171.15566971618682,209.53735872992547 172.0,210.70341617963277 172.7675729850307,212.78565864049597 173.53514597052708,214.11829180677887 174.3027189555578,215.20105510018766 175.14704923937097,216.03394923714222 175.68435032945126,217.20000000001164" stroke="#4dd2ff" stroke-linecap="round" stroke-linejoin="round" stroke-width="0.5"><title>2023-09-19 1.0km</title><desc>9876194288</desc></polyline><polyline fill="none" points="27.761511919554323,235.79999999993015 27.18914052657783,236.7316398047842 26.235188204795122,238.59491756535135 25.949002508074045,239.83710136869922 24.231888328213245,242.83904103538953 22.89635507715866,245.63394462619908 22.610169380437583,246.6690926962765 22.705564612988383,247.8077546939021 23.277936006430537,249.25695954135153 24.136493096128106,250.80967736511957 24.899654953740537,252.9834794413764 25.949002508074045,255.2607923024334 27.09374529449269,257.3310735251289 28.1430928488262,258.6767546874471 29.383230867329985,260.7470308870543 30.146392724476755,263.1278447532095 31.481925975997,265.1981144079473 32.14969260105863,267.0613544944208 33.38983062002808,268.19999999995343" stroke="#4dd2ff" stroke-linecap="round" stroke-linejoin="round" stroke-width="0.5"><title>2023-09-18 1.0km</title><desc>9870505463</desc></polyline><polyline fill="none" points="64.32556192250922,235.79999999993015 63.86047346191481,236.70842163462657 63.209349617827684,239.73648940830026 62.37219038978219,241.14958541700616 62.00011962139979,242.25987411732785 59.9537303969264,245.59073483082466 59.209588861092925,247.4075645408593 58.74450040049851,249.02252226427663 59.11657116888091,250.13280459714588 61.162960392888635,254.57392494869418 62.18615500582382,256.18887424177956 62.9302965416573,257.9047557839658 64.13952653808519,259.5197011587443 64.79065038263798,260.62997500167694 65.62780961068347,263.2542550615035 69.25549959996715,268.19999999995343" stroke="#4dd2ff" stroke-linecap="round" stroke-linejoin="round" stroke-width="0.5"><title>2023-09-16 1.0km</title><desc>9856514700</desc></polyline><polyline fill="none" points="99.55211930256337,235.79999999993015 98.55682886345312,238.82403023878578 97.26295129302889,240.87604721228126 94.57566710747778,246.06007732299622 94.47613806370646,247.24808164674323 94.57566710747778,248.65208551753312 95.17284137103707,250.0560880464036 96.16813181014732,251.56808926910162 97.06389320502058,253.6200884389691 98.65635790722445,256.3200829792768 100.6469387859106,260.1000669983914 100.84599687345326,261.5040585852694 101.5427001803182,262.0440549921477 102.3389325318858,263.1240472102072 103.63281010231003,265.28402926470153 105.02621671697125,266.47201804071665 105.32480384875089,267.2280103979865 105.52386193629354,268.19999999995343" stroke="#4dd2ff" stroke-linecap="round" stroke-linejoin="round" stroke-width="0.5"><title>2023-09-15 1.0km</title><desc>9850671982</desc></polyline><polyline fill="none" points="136.82368760975078,235.79999999993015 135.17631239024922,240.15728158608545 133.3230152684264,242.83867942832876 132.4993276586756,244.2911012840923 131.26379624428228,247.41938979644328 130.95491339080036,248.53663413296454 130.95491339080036,249.43042901018634 131.26379624428228,250.5476718681166 132.4993276586756,253.8993955127662 133.6318981219083,256.13387383532245 136.41184380510822,260.9379911024589 137.54441426787525,263.0607357544359 137.75033617019653,264.2896918291226 138.5740237799473,265.07175426813774 139.9125161455013,267.1944931454491 141.04508660873398,268.19999999995343" stroke="#4dd2ff" stroke-linecap="round" stroke-linejoin="round" stroke-width="0.5"><title>2023-09-14 1.0km</title><desc>9844236351</desc></polyline><polyline fill="none" points="166.85064415354282,235.79999999998836 167.44337576208636,236.2823891742737 167.66565011488274,236.76477813575184 167.81383301736787,237.80995348858414 168.25838172296062,238.69433185324306 168.55474752746522,241.18666703207418 168.55474752746522,242.39263362740166 168.40656462544575,243.03581526770722 168.55474752746522,243.83979178627487 168.92520478228107,244.8045628281543 168.77702188072726,245.60853804612998 168.85111333150417,246.01052543340484 169.59202784160152,247.37728144496214 170.25885090092197,249.38721365272067 170.85158250899985,250.51277407538146 171.59249701956287,251.55793628748506 172.4075029809028,252.28150954138255 172.62977733369917,252.76389144471614 172.8520516869612,253.80905150528997 173.44478329550475,254.85421056690393 174.11160635435954,256.7837323639542 175.00070376647636,258.47206114354776 175.44525247300044,259.9191980228643 175.6675268257968,261.12514395912876 176.1120755323209,262.0898997509503 176.92708149319515,264.7429737892817 178.03845325903967,266.8332700136234 178.11254471028224,267.1548536934424 178.03845325903967,267.39604139130097 177.14935584645718,268.20000000001164 177.5939045525156,267.87841662741266 177.81617890577763,267.39604139130097 177.9643618077971,266.99406186537817 177.8902703570202,266.4312902807724 177.4457216509618,265.86851840640884 176.1120755323209,262.9742584787309 175.44525247300044,260.8035585061298 174.03751490358263,257.6680953829782 173.37069184426218,254.61302010295913 173.00023458898067,253.7286546131363 171.59249701956287,251.8795244594803 170.1847594496794,249.22641921206377 169.51793639035895,247.05569194891723 169.29566203802824,245.60853804612998 168.7029304294847,244.08098462660564 167.51746721332893,241.50825825420907 167.22110140882432,240.3022906834376 166.18382109422237,238.37273980339523 165.961546741426,237.32756498840172 165.88745529018342,236.04119461379014" stroke="#4dd2ff" stroke-linecap="round" stroke-linejoin="round" stroke-width="0.5"><title>2023-09-13 1.0km</title><desc>9837636972</desc></polyline></svg>