<?xml version="1.0" encoding="utf-8" ?>
<svg baseProfile="full" height="300mm" version="1.1" viewBox="0,0,200,300" width="200mm" xmlns="http://www.w3.org/2000/svg" xmlns:ev="http://www.w3.org/2001/xml-events" xmlns:xlink="http://www.w3.org/1999/xlink"><defs /><rect fill="#222222" height="300" width="200" x="0" y="0" /><text fill="#FFFFFF" style="font-size:12px; font-family:Arial; font-weight:bold;" x="10" y="20">Over 1km Runs</text><text fill="#FFFFFF" style="font-size:4px; font-family:Arial" x="10" y="280">ATHLETE</text><text fill="#FFFFFF" style="font-size:9px; font-family:Arial" x="10" y="290">Jiakai</text><text fill="#FFFFFF" style="font-size:4px; font-family:Arial" x="120" y="280">STATISTICS</text><text fill="#FFFFFF" style="font-size:3px; font-family:Arial" x="120" y="285">Number: 78</text><text fill="#FFFFFF" style="font-size:3px; font-family:Arial" x="120" y="290">Weekly: 6.0</text><text fill="#FFFFFF" style="font-size:3px; font-family:Arial" x="141" y="285">Total: 80.6 km</text><text fill="#FFFFFF" style="font-size:3px; font-family:Arial" x="141" y="290">Avg: 1.0 km</text><text fill="#FFFFFF" style="font-size:3px; font-family:Arial" x="167" y="285">Min: 1.0 km</text><text fill="#FFFFFF" style="font-size:3px; font-family:Arial" x="167" y="290">Max: 1.5 km</text><polyline fill="none" points="19.091342925094068,35.054120076587424 19.926952115260065,38.076515023829415 21.73743869457394,42.458979804767296 24.24426626553759,49.712694082874805 25.358411853201687,51.375 25.21914365515113,49.86381285847165 24.38353446451947,47.2947921679588 22.1552432901226,43.36569548945408 20.762561305891722,40.041069357073866 19.230611123610288,37.62315606547054 18.81280652852729,35.20523992937524 17.141588147263974,31.125" stroke="#4dd2ff" stroke-linecap="round" stroke-linejoin="round" stroke-width="0.5"><title>2023-12-08 1.0km</title><desc>10345303898</desc></polyline><polyline fill="none" points="40.48742344416678,31.125 40.74842956895009,31.833045549923554 41.27044181758538,33.67396276129875 41.531447942368686,36.22292214934714 42.05346019053832,38.34705239557661 43.88050306215882,42.87852242635563 45.05503062205389,46.9851579334354 46.22955818241462,49.534099706215784 46.49056430673227,51.375 46.751570431515574,51.2333923476981 47.01257655583322,50.95017701131292 47.01257655583322,50.525353929027915 46.360061245039105,48.82606066344306 44.27201224910095,45.285861543845385 41.79245406622067,38.06383516511414 41.139938755426556,35.09005172632169" stroke="#4dd2ff" stroke-linecap="round" stroke-linejoin="round" stroke-width="0.5"><title>2023-12-07 1.0km</title><desc>10340288256</desc></polyline><polyline fill="none" points="62.49076015828177,31.125 63.29631155310199,33.01889366377145 64.77315577678382,39.28329827217385 66.92129282932729,43.21675150946248 68.66665418446064,48.02429486287292 69.47220557928085,51.08363456081133 69.87498127669096,51.375 70.00923984171823,50.35522077570204 69.74072271026671,49.04407528694719 67.59258565772325,44.52790085342713 66.11574143450707,42.342651464859955 65.31019003968686,40.74013371474575 62.625018724706024,31.562052544555627" stroke="#4dd2ff" stroke-linecap="round" stroke-linejoin="round" stroke-width="0.5"><title>2023-12-06 1.0km</title><desc>10334845031</desc></polyline><polyline fill="none" points="86.88380621094257,34.61639471130911 87.78472735080868,39.22502590424847 88.6856484906748,42.576750658103265 90.87359983054921,48.30260009842459 92.03192701051012,50.95603666966781 92.41803607018664,51.375 91.90322399046272,48.86121863196604 90.61619379045442,46.48708872986026 89.45786661049351,43.13537087570876 87.78472735080868,39.643991821911186 87.0125092305243,36.990539449383505 85.725479030516,34.197427685023285 85.08196393027902,31.125" stroke="#4dd2ff" stroke-linecap="round" stroke-linejoin="round" stroke-width="0.5"><title>2023-12-05 1.0km</title><desc>10329306344</desc></polyline><polyline fill="none" points="107.5306627266109,32.82430888223462 108.44418416218832,34.24039847229142 109.61871172254905,38.34705239557661 111.96776684233919,44.152996451826766 113.14229440269992,48.11802135966718 114.18631890043616,50.38374621444382 114.96933727385476,51.375 114.96933727385476,50.66696163348388 111.57625765539706,42.87852242635563 110.27122703380883,38.48866099573206 108.83569334866479,35.23166056594346 107.79166885046288,31.125" stroke="#4dd2ff" stroke-linecap="round" stroke-linejoin="round" stroke-width="0.5"><title>2023-12-04 1.0km</title><desc>10324662812</desc></polyline><polyline fill="none" points="130.2329415678978,32.994238877203315 131.66847562231123,38.44617618306074 133.96533010853454,43.58656136528589 135.54441756755114,49.038471416104585 136.69284481089562,51.219231507973745 137.55416524317116,51.375 137.55416524317116,50.75192596309353 136.5492914058268,49.038471416104585 135.25731075694785,45.30002032138873 133.82177670300007,43.11925413669087 132.81690286565572,40.47117789497133 131.094262000639,34.24039721232839 129.9458347572945,31.125" stroke="#4dd2ff" stroke-linecap="round" stroke-linejoin="round" stroke-width="0.5"><title>2023-12-02 1.0km</title><desc>10313350310</desc></polyline><polyline fill="none" points="152.57416334142908,32.19886857050005 153.9879466718994,34.039784834720194 155.6844866676256,39.869342289399356 156.81551333190873,44.62502183509059 158.65343166096136,49.84091597085353 159.78445832477883,51.375 159.92583665857092,50.45454971771687 159.64307999238372,48.61364793498069 158.08791832858697,45.23865711595863 155.6844866676256,41.40343364945147 154.2707033380866,38.4886591010727 152.85692000715062,31.125" stroke="#4dd2ff" stroke-linecap="round" stroke-linejoin="round" stroke-width="0.5"><title>2023-12-01 1.0km</title><desc>10308709030</desc></polyline><polyline fill="none" points="175.0176109103486,31.125 177.81690272688866,40.74377227539662 180.61619454342872,46.48126636992674 182.1713566640392,50.700002878322266 182.63790530059487,51.375 182.79342151246965,50.86875217733905 182.1713566640392,49.18125862872694 179.83861348312348,45.97501746809576 179.21654863562435,44.287520321668126 176.88380545470864,39.731271829106845 175.79519197065383,34.50001240626443 174.70657848659903,31.46250146406237" stroke="#4dd2ff" stroke-linecap="round" stroke-linejoin="round" stroke-width="0.5"><title>2023-11-30 1.0km</title><desc>10303537703</desc></polyline><polyline fill="none" points="18.93334666127339,59.62099515367299 19.834267404396087,62.55376045848243 20.220376294106245,64.92790048394818 21.636108889710158,67.72100259759463 23.18054444855079,71.91064806748182 24.72498000692576,75.26235779037233 24.9823859333992,75.54166666662786 25.239791859406978,75.26235779037233 24.9823859333992,74.28477639867924 23.952762227505445,72.46926676505245 22.537029631901532,68.55893243080936 20.477782220579684,64.36927956866566 19.705564440693706,59.900306330178864 18.161128881853074,57.52616002096329 17.26020814012736,55.29166666662786" stroke="#4dd2ff" stroke-linecap="round" stroke-linejoin="round" stroke-width="0.5"><title>2023-11-29 1.0km</title><desc>10298007687</desc></polyline><polyline fill="none" points="40.25927883014083,57.91398048854899 41.736122401896864,61.70176099403761 42.00463941460475,64.46974986139685 43.884258506353945,68.98593392362818 44.958326559048146,73.0650590681471 45.89813610492274,74.9589357455261 46.83794565079734,75.54166666662786 47.24072117079049,75.54166666662786 47.509238183964044,75.10461849195417 47.37497967714444,74.5218874423299 46.83794565079734,73.50210769288242 44.689809545874596,67.82046805403661 42.541673441417515,62.8672304621432 42.13889792142436,60.536290840478614 41.1990883750841,57.76829647854902 39.990761816035956,55.29166666662786" stroke="#4dd2ff" stroke-linecap="round" stroke-linejoin="round" stroke-width="0.5"><title>2023-11-28 1.0km</title><desc>10292316108</desc></polyline><polyline fill="none" points="65.77453567041084,55.29166666662786 66.96319649508223,58.516204605577514 67.6763929896988,61.61175545130391 68.62732164887711,63.0305477634538 69.69711639126763,65.09424362389836 70.76691113319248,68.44774422014598 71.7178397923708,69.99551156384405 71.7178397923708,70.7693947236985 71.12350938050076,71.28531664074399 69.22165206121281,72.31716001965106 68.03299123700708,73.34900279145222 66.84433041280136,73.99390421563294 65.06133917579427,74.76778561191168 62.208553197328,75.54166666662786 61.73308886773884,75.412686514901 61.37649062043056,75.02574600162916 60.782160207629204,72.57512076944113" stroke="#4dd2ff" stroke-linecap="round" stroke-linejoin="round" stroke-width="0.5"><title>2023-11-27 1.0km</title><desc>10287544518</desc></polyline><polyline fill="none" points="86.79245392326266,59.681544879684225 87.44496928201988,61.23924119537696 89.01100614434108,69.16931199992541 90.70754607766867,73.27594297786709 91.62106758076698,74.83362830022816 92.2735829395242,75.54166666662786 92.40408601192757,75.40005901409313 92.01257679611444,74.69202059553936 92.01257679611444,73.5591585849179 90.96855222107843,71.15182459971402 89.79402457503602,67.18679735972546 88.61949692852795,64.77945541031659 87.83647849736735,60.24798004934564 85.61792627628893,56.70775750593748 85.09591398853809,55.29166666662786" stroke="#4dd2ff" stroke-linecap="round" stroke-linejoin="round" stroke-width="0.5"><title>2023-11-26 1.0km</title><desc>10281488289</desc></polyline><polyline fill="none" points="107.56276023760438,55.29166666662786 109.06775605864823,59.2110359123908 110.42225229833275,64.76346383988857 111.77674853801727,67.86628516553901 112.07774770259857,69.82595955929719 112.83024561405182,71.62232623505406 114.48574101738632,74.72513798053842 115.23823892790824,75.54166666662786 115.53923809248954,75.54166666662786 113.28174435999244,70.64249004633166 112.98074519541115,69.00942877214402 111.4757493743673,66.88644732057583 108.46575773041695,58.72111513547134 106.96076190844178,55.944895354798064" stroke="#4dd2ff" stroke-linecap="round" stroke-linejoin="round" stroke-width="0.5"><title>2023-11-25 1.0km</title><desc>10275889695</desc></polyline><polyline fill="none" points="129.825757259503,55.48091974109411 130.87222198955715,60.212242065463215 135.7557240659371,73.45989831234328 136.97659958526492,75.35241506807506 137.499831950292,75.54166666674428 137.67424273956567,74.97391182789579 135.93013485427946,72.70289122057147 133.83720539323986,66.45757421874441 132.44191908556968,63.618788754567504 131.5698651438579,58.1304613139946 130.52340041287243,55.29166666674428" stroke="#4dd2ff" stroke-linecap="round" stroke-linejoin="round" stroke-width="0.5"><title>2023-11-24 1.0km</title><desc>10271180196</desc></polyline><polyline fill="none" points="153.7321199523285,57.54167593049351 154.17645172588527,58.82739446940832 155.2132258620113,64.29168982524425 157.73110591061413,72.00596589781344 158.91599063854665,75.22023956058547 159.3603224111721,75.54166666662786 159.952764775604,75.54166666662786 160.10087536741048,75.22023956058547 159.80465418472886,73.6131033198908 158.17543768323958,68.95240154094063 153.88023054320365,59.63096817256883 152.39912463352084,55.29166666662786" stroke="#4dd2ff" stroke-linecap="round" stroke-linejoin="round" stroke-width="0.5"><title>2023-11-23 1.0km</title><desc>10265414399</desc></polyline><polyline fill="none" points="176.97580239595845,59.85506540059578 177.10722444113344,61.85154897056054 177.63291261997074,64.98887614335399 179.7356653357856,70.97830483713187 180.39277555933222,73.83040723903105 181.44415191700682,75.54166666662786 182.23268418526277,75.54166666662786 182.1012621410191,74.68603714136407 180.6556196482852,70.97830483713187 179.4728212459013,69.1244360273704 177.7643346642144,63.848030486144125 175.79300399310887,58.42900444951374 175.26731581473723,55.29166666662786" stroke="#4dd2ff" stroke-linecap="round" stroke-linejoin="round" stroke-width="0.5"><title>2023-11-21 1.0km</title><desc>10253878272</desc></polyline><polyline fill="none" points="19.07050360320136,84.92733153922018 19.751596226822585,89.36164348723833 22.612185247708112,96.60433197044767 23.838151971343905,99.26490486052353 24.24680754588917,99.70833333337214 24.519244595896453,99.56052385340445 24.655463120434433,99.26490486052353 24.11058902135119,96.89995135425124 21.658655574079603,91.57879579428118 20.705125900916755,88.77040245919488 19.20672212773934,83.0057933239732 18.38941097864881,81.5276857551653 17.844536879565567,79.45833333337214" stroke="#4dd2ff" stroke-linecap="round" stroke-linejoin="round" stroke-width="0.5"><title>2023-11-20 1.0km</title><desc>10248671423</desc></polyline><polyline fill="none" points="40.14485171297565,81.1458408391336 42.12414881167933,85.44130833214149 42.68966226885095,89.89017605688423 44.24482427490875,93.41858164570294 45.79998628096655,97.86743236263283 46.50687810219824,98.9412914593704 47.35514828702435,99.70833333337214 47.213769923429936,98.48106619995087 44.81033773208037,92.19131081306841 43.25517572602257,86.51517382368911 41.70001371949911,82.83334698027465 40.851743534207344,79.45833333337214" stroke="#4dd2ff" stroke-linecap="round" stroke-linejoin="round" stroke-width="0.5"><title>2023-11-19 1.0km</title><desc>10242265034</desc></polyline><polyline fill="none" points="62.314351088833064,97.50100262020715 63.198766574729234,94.71784118225332 63.55253276927397,94.04604270448908 64.1716236085631,93.66215770493727 67.17863625986502,93.27827259234618 69.38967497413978,92.79841604270041 70.09720736276358,92.22258795029484 70.53941510571167,91.64675960410386 71.0700643970631,89.2474720927421 70.89318129979074,88.47969915752765 71.24694749386981,87.9038691597525 70.98162284819409,83.48916406824719 70.80473975138739,82.91333186859265 70.71629820251837,81.18583374435548 70.53941510571167,80.13013932073954 69.56655807141215,79.8422225114191 68.77058413438499,80.41805606614798 68.9474672311917,80.13013932073954 69.12435032846406,80.41805606614798 67.97461019689217,79.8422225114191 67.88616864895448,79.45833333337214 67.6208440028131,79.65027793648187 67.79772710008547,79.55430563853588 67.17863625986502,80.32208382477984 67.26707780873403,80.22611157631036 69.12435032846406,81.18583374435548 68.68214258598164,81.56972241401672 67.97461019689217,81.85763884219341 66.2942207744345,82.14555520680733 66.2057792255655,81.76166670629755 66.64798696851358,81.56972241401672 67.26707780873403,81.66569456376601 69.12435032846406,79.8422225114191 71.6891552368179,79.9381947881775 71.42383059114218,79.74625022732653 71.0700643970631,79.65027793648187 70.80473975138739,84.25693993968889 70.89318129979074,85.6005466276547 71.1585059450008,87.23206717451103 71.33538904273883,90.01524457638152 71.33538904273883,90.97495954553597 71.0700643970631,91.93467380886432 70.53941510571167,92.51050202839542 66.11733767716214,92.99035868374631 64.08318206015974,93.37424388108775 63.02188347745687,94.14201393676922 61.783701797481626,95.8694949108176 61.07616940885782,98.36474116996396 60.810844763182104,99.70833333337214" stroke="#4dd2ff" stroke-linecap="round" stroke-linejoin="round" stroke-width="0.5"><title>2023-11-18 1.0km</title><desc>10236386505</desc></polyline><polyline fill="none" points="84.61771481391042,79.45833333337214 87.55030430061743,84.52085287333466 88.61670047743246,88.28157324180938 89.01659904420376,90.45121633785311 89.81639617681503,91.75300104729831 92.34908709675074,99.12976479739882 92.88228518562391,99.70833333337214 92.88228518562391,99.12976479739882 92.34908709675074,98.40655388811138 90.88279235363007,94.06728284840938 90.08299522101879,92.62085704167839 89.81639617681503,90.16193073021714 88.61670047743246,87.12442927830853 87.28370525641367,84.23156639374793 87.15040573431179,82.64048999361694" stroke="#4dd2ff" stroke-linecap="round" stroke-linejoin="round" stroke-width="0.5"><title>2023-11-17 1.0km</title><desc>10231268371</desc></polyline><polyline fill="none" points="107.6380108250305,80.11156202177517 109.59450496174395,82.88778180221561 110.04600360803306,86.64383833552711 111.40049954969436,89.58335640921723 113.50749323517084,97.42205225571524 114.86198917590082,99.70833333337214 114.71148962620646,98.4018872914603 113.65799278393388,96.27891083422583 112.90549503918737,94.1559323478723 111.70149864722043,89.0934370001778 109.29350586421788,84.03093011502642 108.54100811854005,81.74463290069252 108.08950947131962,79.45833333337214" stroke="#4dd2ff" stroke-linecap="round" stroke-linejoin="round" stroke-width="0.5"><title>2023-11-16 1.0km</title><desc>10225818993</desc></polyline><polyline fill="none" points="130.23834346886724,79.67607600498013 131.24167390633374,83.59544136095792 132.84700260683894,87.95028567290865 135.0543295685202,92.08738183928654 135.85699391830713,95.35350630921312 137.26165653020144,98.18414460332133 138.66631914302707,99.70833333325572 135.0543295685202,92.95834871660918 133.4490008689463,87.95028567290865 128.83368085790426,79.45833333325572" stroke="#4dd2ff" stroke-linecap="round" stroke-linejoin="round" stroke-width="0.5"><title>2023-11-15 1.0km</title><desc>10219684298</desc></polyline><polyline fill="none" points="152.67195953754708,81.89443403633777 154.49605859722942,84.17827584256884 154.77668922115117,87.0711385149043 156.88141890522093,92.09557460516226 158.14425671473145,96.3587229406694 159.4070945251733,99.5560784334084 159.96835577394813,99.70833333337214 159.8280404615216,97.88127379107755 158.00394140277058,95.44519189326093 157.30236484110355,93.31361788243521 156.1798423435539,91.9433191451244 155.75889640673995,90.2685083465185 153.65416672360152,86.00534747436177 152.9525901619345,82.96022719249595 152.5316442255862,79.45833333337214" stroke="#4dd2ff" stroke-linecap="round" stroke-linejoin="round" stroke-width="0.5"><title>2023-11-14 1.0km</title><desc>10213806154</desc></polyline><polyline fill="none" points="176.04537082230672,82.24638900742866 177.12722249375656,86.35509553411976 180.10231458954513,93.98552807257511 180.77847188385203,96.4800862291595 182.13078647339717,99.26811812655069 182.53648085007444,99.70833333337214 181.7250920967199,98.24094893329311 179.83185167144984,93.69205043767579 179.69662021286786,92.51813946524635 178.3443056237884,89.28988073195796 176.315833740402,85.62139856035355 175.5044449865818,83.12682683218736 174.96351915039122,79.45833333337214" stroke="#4dd2ff" stroke-linecap="round" stroke-linejoin="round" stroke-width="0.5"><title>2023-11-13 1.0km</title><desc>10208522228</desc></polyline><polyline fill="none" points="18.98794633941725,105.92614626057912 20.401729877106845,110.22161249048077 22.098270122893155,113.75002456456423 23.087918599601835,117.89206590806134 24.077567075844854,120.80683081340976 25.349972260184586,123.5681832843693 25.915485674981028,123.875 26.19824238307774,123.26136652345303 24.643080491106957,120.1931964349933 23.794810368679464,116.81820412701927 20.684486585203558,113.9034336496843 18.98794633941725,111.44888693199027 18.705189631320536,108.84092788083944 16.30175761692226,103.625" stroke="#4dd2ff" stroke-linecap="round" stroke-linejoin="round" stroke-width="0.5"><title>2023-11-12 1.0km</title><desc>10202270880</desc></polyline><polyline fill="none" points="40.68609941005707,107.40300021274015 44.028536417521536,114.95897980488371 45.1426820862107,118.73695918556768 46.25682775583118,121.75933769077528 46.9531687987037,123.11940656835213 47.64950984157622,123.875 47.78877805033699,123.27052527701017 46.535364172421396,119.49255422828719 44.16780462581664,115.8656954895705 41.66097687045112,110.12315606547054 40.68609941005707,106.04292093601543 39.71122194919735,103.625" stroke="#4dd2ff" stroke-linecap="round" stroke-linejoin="round" stroke-width="0.5"><title>2023-11-11 1.0km</title><desc>10196068378</desc></polyline><polyline fill="none" points="64.3674343591556,106.6447476092726 66.65925339981914,113.572389628971 68.78737108130008,119.25659388699569 69.76957924105227,122.98684566398151 70.42438468150795,123.875 70.75178740173578,123.51973830466159 70.26068332139403,121.38816703576595 67.80516292061657,115.88159922137856 65.34964251983911,110.73028248548508 62.07561531756073,105.57895476697013 61.748212597332895,103.625" stroke="#4dd2ff" stroke-linecap="round" stroke-linejoin="round" stroke-width="0.5"><title>2023-11-10 1.0km</title><desc>10191120477</desc></polyline><polyline fill="none" points="84.0489014852792,104.24332349712495 86.47067950852215,106.0982928982703 87.89525481592864,108.57158288673963 88.32262740842998,109.49906588252634 88.32262740842998,110.89028960908763 89.88966024620458,115.68227539851796 90.45949036907405,118.46471374866087 91.59915061527863,121.55630759662017 91.88406567648053,123.1021028162213 92.59635333064944,123.875 93.02372592221946,123.72042058606166 93.4510985147208,123.1021028162213 91.88406567648053,122.02004628209397 89.31983012333512,118.31013393669855 86.32822197815403,110.11738765251357 85.61593432398513,105.47996994620189 84.90364667028189,103.625" stroke="#4dd2ff" stroke-linecap="round" stroke-linejoin="round" stroke-width="0.5"><title>2023-11-09 1.0km</title><desc>10185506531</desc></polyline><polyline fill="none" points="107.29966597538441,105.25091993960086 108.7980685364455,108.20713464240544 109.3429421945475,109.68524036393501 111.11378158535808,113.52831015421543 111.79487365856767,116.1888926285319 111.65865524392575,114.56298153463285 111.93109207367525,115.59765238279942 112.47596573131159,119.58852066658437 113.7019314635545,123.28376201470383 114.24680512258783,123.875 114.92789719533175,123.57938102865592 115.20033402461559,123.13595249096397 113.7019314635545,121.80566629045643 112.61218414641917,120.03194998705294 111.93109207367525,118.11042222601827 110.9775631702505,114.85860183159821 109.615379024297,112.93706912617199 108.11697646277025,109.68524036393501 107.7083212188445,107.32027068792377 107.84453963348642,104.36405468103476 107.57210280420259,103.625" stroke="#4dd2ff" stroke-linecap="round" stroke-linejoin="round" stroke-width="0.5"><title>2023-11-08 1.0km</title><desc>10179505859</desc></polyline><polyline fill="none" points="132.83647836279124,114.81208925554529 137.40408654883504,123.875 137.66509273042902,123.73339234781452 137.01257727574557,122.17570748343132 135.83804945647717,120.19319765258115 135.05503091029823,118.21068578166887 133.4889938174747,116.51138826808892 132.96698145428672,115.52013069286477 132.5754721807316,112.12152941920795 132.31446599867195,111.13026958494447 130.74842890631407,108.43970460584387 129.83490726957098,103.625" stroke="#4dd2ff" stroke-linecap="round" stroke-linejoin="round" stroke-width="0.5"><title>2023-11-06 1.0km</title><desc>10167691585</desc></polyline><polyline fill="none" points="154.3032507961616,109.30667556147091 155.2430607569404,111.05488014931325 158.73378346674144,119.06746477528941 160.21062769088894,123.58363456081133 160.4791448218748,123.875 160.74766195332631,123.875 160.74766195332631,123.43795182509348 159.67359342705458,121.10702659829985 158.73378346674144,119.79587995330803 158.59952490124851,119.06746477528941 157.7939735064283,118.19336620881222 155.5115778883919,114.25991788762622 152.82640657247975,107.41278551763389 151.75233804667369,103.625" stroke="#4dd2ff" stroke-linecap="round" stroke-linejoin="round" stroke-width="0.5"><title>2023-11-05 1.1km</title><desc>10161301187</desc></polyline><polyline fill="none" points="174.96351998578757,103.625 177.66814856696874,109.64132579986472 178.88523142877966,114.92393837927375 180.77847143588588,118.59241111110896 181.45462858164683,121.52718444226775 182.13078572647646,123.875 182.53648001421243,123.43478479317855 182.40124858450145,122.99456948938314 180.64324000710621,119.76632096152753 180.50800857739523,119.32610484852921 178.88523142877966,116.83154504140839 178.2090742830187,114.48372119839769 176.45106570562348,111.2554589046631 176.04537141835317,108.46740999480244 175.23398284381256,105.53261746116914" stroke="#4dd2ff" stroke-linecap="round" stroke-linejoin="round" stroke-width="0.5"><title>2023-11-04 1.0km</title><desc>10155501797</desc></polyline><polyline fill="none" points="26.68291300861165,130.8676311909221 25.147524549625814,128.81698877830058 24.202670113183558,128.17616252915468 22.312961240764707,127.79166666662786 20.541359172668308,127.91983196383808 18.061116276774555,129.07331921171863 16.998155035544187,130.09864056913648 16.053300599567592,132.02111648779828 15.817086990457028,133.55909569596406 15.462766577024013,138.68568325287197 15.698980185668916,144.0685839559883 15.93519379524514,144.83756841346622 17.1162618403323,146.7600280722836 18.533543495461345,147.78533902321942 20.895679586101323,148.04166666662786 23.0216020680964,147.1445197496796 25.029417745769024,144.7094043608522 25.619951768312603,143.5559274625266 26.446699399966747,139.839163374505 26.446699399966747,136.8913793232059 27.037233422510326,133.04643611051142 26.919126618187875,131.63662147370633 25.619951768312603,130.09864056913648 24.556990527082235,129.32964960753452 22.076747631188482,128.17616252915468 20.77757278131321,128.17616252915468 17.943009472917765,129.07331921171863 16.643834622576833,130.22680569638032 15.817086990457028,131.76478648767807 15.580873381346464,132.7901062616147 15.817086990457028,137.01954395114444 15.580873381346464,138.94201223459095" stroke="#4dd2ff" stroke-linecap="round" stroke-linejoin="round" stroke-width="0.5"><title>2023-11-03 1.0km</title><desc>10152446508</desc></polyline><polyline fill="none" points="39.55896987952292,127.79166666674428 40.66603443957865,130.194218224613 41.61494691949338,134.4844827123452 43.196467720903456,137.57346826139838 45.56874892022461,143.75142709561624 46.04320516064763,144.78108531213365 46.83396556135267,147.52683833427727 47.308421801775694,148.04166666674428 47.9410301214084,148.04166666674428 47.9410301214084,147.69844779092818 46.83396556135267,147.18361938325688 46.35950932092965,145.98235265677795 45.252444760873914,144.9526949704159 44.4616843611002,142.72176842577755 43.35461980011314,141.00566963269375 42.0894031599164,138.43151907715946 40.66603443957865,133.11159893427975 39.717121958732605,130.8806610724423" stroke="#4dd2ff" stroke-linecap="round" stroke-linejoin="round" stroke-width="0.5"><title>2023-11-02 1.1km</title><desc>10144903556</desc></polyline><polyline fill="none" points="62.80159830534831,129.25906487507746 63.072061182931066,130.87320165871643 64.15391269512475,133.36777412006631 66.04715284146369,140.11777809017804 69.29270737851039,146.86775923275854 70.23932745074853,148.04166666662786 69.69840169558302,146.28080525714904 67.6699301097542,143.1992940522032 66.58807859802619,139.23734408430755 65.23576420778409,137.32973573950585 63.612986939027905,133.80799246625975 62.260672548785806,127.79166666662786" stroke="#4dd2ff" stroke-linecap="round" stroke-linejoin="round" stroke-width="0.5"><title>2023-11-01 1.0km</title><desc>10138966680</desc></polyline><polyline fill="none" points="85.80337887629867,128.09617941139732 86.50495533458889,130.38002356828656 87.6274776677601,136.47026234073564 89.45157645829022,140.4289079385344 90.57409879099578,144.08303562016226 92.39819758245721,148.04166666662786 92.538512873929,147.88941176596563 91.275675249286,146.06235208921134 89.45157645829022,141.79920657444745 87.90810825070366,139.05860839539673 85.24211771087721,130.98904825141653 84.96148712653667,127.79166666662786" stroke="#4dd2ff" stroke-linecap="round" stroke-linejoin="round" stroke-width="0.5"><title>2023-10-31 1.0km</title><desc>10133123337</desc></polyline><polyline fill="none" points="108.07055966323242,130.19167716510128 108.76174234552309,133.79168761963956 108.76174234552309,135.1416899022879 110.28234424535185,137.69169177673757 114.42944033676758,146.5416735591134 115.12062301905826,147.8916674052598 115.39709609141573,148.04166666662786 112.21765575464815,141.74168820353225 110.83529039146379,137.84169178793672 109.3146884907037,134.69168924051337 107.10290390858427,127.79166666662786" stroke="#4dd2ff" stroke-linecap="round" stroke-linejoin="round" stroke-width="0.5"><title>2023-10-30 1.0km</title><desc>10127985445</desc></polyline><polyline fill="none" points="130.55782746803015,130.7226017251378 131.17170680081472,134.85254762531258 131.54003440076485,136.1847862303257 133.9955517333001,141.9134010715643 135.22331039886922,145.24398277048022 137.06494839815423,147.77522076736204 137.55605186522007,148.04166666662786 137.6788277309388,147.6419978030026 136.5738449320197,145.91009837540332 134.9777586660348,142.44629455474205 132.15391373354942,137.25057640939485 131.04893093416467,133.3870840285672 130.18949986761436,131.65517097723205 130.06672400142998,128.9906861272175 129.82117226859555,127.79166666662786" stroke="#4dd2ff" stroke-linecap="round" stroke-linejoin="round" stroke-width="0.5"><title>2023-10-28 1.0km</title><desc>10115543824</desc></polyline><polyline fill="none" points="153.62350542237982,131.9916831862647 154.72939787618816,135.59169046452735 155.97352688619867,138.44169172167312 157.079419340007,142.49168665974867 158.73825802095234,146.39167418773286 159.42944080382586,147.89166740584187 160.12062358716503,148.04166666662786 160.25886014429852,147.89166740584187 159.98238703096285,146.99167160713114 159.1529676904902,144.7416803742526 156.38823655666783,139.34169129177462 154.17645164905116,133.34168666007463 152.79408608190715,130.3416777276434 152.24113985523582,127.79166666662786" stroke="#4dd2ff" stroke-linecap="round" stroke-linejoin="round" stroke-width="0.5"><title>2023-10-27 1.0km</title><desc>10110442644</desc></polyline><polyline fill="none" points="176.00559645984322,130.91851812019013 178.61277982359752,139.70345589309 179.57332106260583,142.3835988137871 180.5338623020798,144.02146218635608 181.63162371795624,147.14828858268447 182.04328424902633,147.74387401598506 182.8666053111665,148.04166666662786 183.00382548756897,147.59497767395806 182.8666053111665,146.99939219711814 181.49440354062244,145.21263471641578 179.4361008857377,141.6391150249401 176.96613769978285,134.34315941098612 175.31949557503685,131.66300584981218 174.4961745128967,127.79166666662786" stroke="#4dd2ff" stroke-linecap="round" stroke-linejoin="round" stroke-width="0.5"><title>2023-10-26 1.0km</title><desc>10104873905</desc></polyline><polyline fill="none" points="20.235764431301504,161.64314157445915 23.346086842939258,169.4203020510031 24.83363234438002,172.06159494200256 25.37455798033625,172.20833333337214 25.239326571580023,170.7409489332931 21.58807852305472,164.43118372070603 19.559607385192066,159.29531358892564 17.80159906577319,155.62682683265302 17.12544201966375,151.95833333337214" stroke="#4dd2ff" stroke-linecap="round" stroke-linejoin="round" stroke-width="0.5"><title>2023-10-25 1.0km</title><desc>10098978222</desc></polyline><polyline fill="none" points="40.00399029208347,151.95833333337214 39.86777175730094,152.99300981068518 40.68508296646178,156.39265734388027 41.77483124518767,158.60981568170246 42.455923919100314,161.27040245942771 43.681890732608736,164.81784601940308 46.270042893942446,169.84338034887332 47.08735410310328,171.9127143623773 47.359791173134,172.20833333337214 47.63222824316472,172.06052385317162 47.49600970791653,170.13899962371215 45.99760582484305,167.33061475423165 44.90785754658282,165.70470593159553 43.545672197360545,162.60069452796597 43.27323512826115,160.97478188038804 41.63861270993948,158.4620052020764 40.68508296646178,156.24484670103993 40.41264589643106,153.58425327285659 40.00399029208347,151.95833333337214" stroke="#4dd2ff" stroke-linecap="round" stroke-linejoin="round" stroke-width="0.5"><title>2023-10-24 1.0km</title><desc>10092835699</desc></polyline><polyline fill="none" points="64.1689931480214,155.45475099165924 66.18287074705586,162.59325122099835 67.12268029246479,164.34145143895876 68.19674834469333,168.71194523607846 69.80785042373464,171.62560241227038 70.47914295690134,172.20833333337214 69.80785042373464,171.4799196550157 68.86804087786004,169.14899408561178 66.45138775976375,166.23533326771576 65.91435373341665,165.21555096958764 65.37731970753521,161.86483400850557 63.766217628493905,158.65979509195313 62.692149576265365,155.3090670458041 62.02085704356432,151.95833333337214" stroke="#4dd2ff" stroke-linecap="round" stroke-linejoin="round" stroke-width="0.5"><title>2023-10-23 1.0km</title><desc>10087395010</desc></polyline><polyline fill="none" points="82.19377563544549,152.05545711726882 82.55179471336305,151.95833333331393 85.10268064355478,152.15258088690462 86.22149026207626,152.44395211013034 86.49000457045622,152.58963767357636 87.07178557245061,153.02669417095603 87.47455703490414,153.51231216220185 88.36960472958162,155.16341066139285 88.81712857726961,157.0087511582533 89.39890957879834,157.9799809277174 89.6674238871783,158.75696371495724 90.29395727347583,160.16524268721696 90.74148112116382,161.6220798434224 91.41276689223014,162.78754725470208 91.7260335853789,163.12747486226726 92.12880504806526,163.80732955259737 92.35256697167642,165.2641586754471 92.48682412598282,165.65264589898288 92.84484320366755,166.18681545805885 92.93434797343798,167.01234938157722 93.06860512751155,167.35227481479524 95.03771005617455,172.01409167813836 95.30622436455451,172.20833333331393 95.30622436455451,171.96553125529317 94.90345290186815,171.57704774482409 94.45592905464582,170.50871691276552 94.00840520719066,169.58606616745237 92.80009081913158,165.8468894250109" stroke="#4dd2ff" stroke-linecap="round" stroke-linejoin="round" stroke-width="0.5"><title>2023-10-22 1.5km</title><desc>10080655811</desc></polyline><polyline fill="none" points="108.02918930258602,151.95833333331393 108.7396622505039,152.47229997970862 107.46081094397232,152.2667133664363 109.45013519842178,154.83654168556677 109.63959465129301,155.4532990763546 109.497500061756,155.96726315288106 108.83439197693951,156.327037781768 108.64493252406828,156.68681222532177 108.6922973874025,157.3035679833847 109.07121629291214,158.7940588190686 109.497500061756,159.87337778520305 109.97114869370125,161.51805110037094 110.82371623115614,163.00853295001434 110.96581082069315,163.5738873029477 111.48682431597263,164.49901162151946 111.81837835838087,164.91017759247916 111.86574322148226,165.16715620137984 112.19729726412334,165.4755304075079 112.43412157986313,165.98948711535195 112.7656756225042,166.96600381919416 113.09722966491245,167.6341460411786 113.04986480181105,168.97042856935877 113.66560802306049,170.1525225227815 113.85506747616455,170.7178710983717 114.18662151833996,171.3346144775278 114.75499987672083,172.05414773215307 115.03918905602768,172.20833333331393 113.94979720236734,170.6664757921826 113.71297288639471,169.8441503798822 113.23932425421663,168.81624225410633 113.04986480181105,168.14810116199078 112.43412157986313,167.2743772318354 111.91310808481649,165.78390447760466" stroke="#4dd2ff" stroke-linecap="round" stroke-linejoin="round" stroke-width="0.5"><title>2023-10-20 1.4km</title><desc>10069668027</desc></polyline><polyline fill="none" points="129.67527352948673,151.95833333331393 129.77171675954014,152.74322778818896 130.54326259996742,154.62697094748728 130.73614906030707,155.77814486814896 132.32746235630475,159.65026166231837 132.47212720150128,160.17351907264674 132.56857043178752,160.95840446691727 132.76145689189434,161.48166091559688 133.91877565253526,163.10375346138608 134.54565664823167,164.35956450609956 134.9314295684453,165.6153733349638 135.26898087374866,166.2956021921127 135.46186733385548,167.34210685663857 135.70297540910542,167.86535861185985 136.329856404569,169.48743660835316 136.4262996346224,170.11533677583793 137.34251032047905,171.9990339545766 137.58361839549616,172.20833333331393 137.7282832406927,172.20833333331393 137.82472647051327,172.1560084943194 137.7765048558358,172.10368365154136 136.81207255506888,170.90021120611345 136.37807801971212,169.4351115693571 135.46186733385548,167.76070829154924 135.31720248865895,167.08048083470203 135.22075925860554,165.9293251960189" stroke="#4dd2ff" stroke-linecap="round" stroke-linejoin="round" stroke-width="0.5"><title>2023-10-19 1.3km</title><desc>10064004415</desc></polyline><polyline fill="none" points="151.68378014536574,151.95833333337214 153.66909312503412,154.54345140454825 153.53673892654479,156.41047899518162 153.80144732398912,158.27750480151735 154.72792671527714,161.58069993299432 156.0514687015675,163.73495461873244 157.37501068832353,167.46899044618476 160.0220946627669,171.77748445491306 160.41915725870058,172.20833333337214 160.8162198541686,172.0647170508746 159.0956152714789,170.34132084075827 155.91911450307816,164.16580527077895 155.12498931074515,161.4370828694664 152.87496793316677,156.69771385064814" stroke="#4dd2ff" stroke-linecap="round" stroke-linejoin="round" stroke-width="0.5"><title>2023-10-18 1.0km</title><desc>10058081424</desc></polyline><polyline fill="none" points="175.21554141491652,153.18561165465508 176.34656816208735,159.78222026547883 179.3155133742839,167.60607786185574 181.29481018148363,171.74810824298766 182.14308024197817,172.20833333337214 182.56721527222544,172.20833333337214 182.84997195890173,171.59469985740725 181.86032355576754,170.36743236274924 180.58791846502572,168.37312114564702 178.89137834357098,164.69131081330124 178.18448662711307,162.54358511976898 175.21554141491652,156.5606233170256 174.93278472870588,155.6401661322452 174.65002804156393,151.95833333337214" stroke="#4dd2ff" stroke-linecap="round" stroke-linejoin="round" stroke-width="0.5"><title>2023-10-17 1.0km</title><desc>10051702317</desc></polyline><polyline fill="none" points="16.72806673264131,176.59230987390038 18.16360110323876,179.0846274610376 20.31690265890211,184.69233131210785 21.465330155566335,186.8731010237243 22.757311088498682,190.92309596168343 24.33639889676124,194.97308315860573 24.91061264462769,196.06346300430596 25.628379829693586,196.375 25.77193326735869,196.21923150809016 25.628379829693586,195.75192596274428 24.04929202236235,193.4153966914164 21.895990466699004,188.11925413680729 20.31690265890211,184.84810065152124 19.0249217255041,178.7730879226001 18.307154539972544,176.125" stroke="#4dd2ff" stroke-linecap="round" stroke-linejoin="round" stroke-width="0.5"><title>2023-10-16 1.0km</title><desc>10046279660</desc></polyline><polyline fill="none" points="39.60290070716292,176.125 40.19534346461296,177.41071986232419 40.78778622020036,180.3035867883591 42.12078242190182,184.80359439761378 43.89811068959534,187.53573735512327 45.97166033554822,195.25000492099207 46.712213781662285,196.05357289360836 47.748988604173064,196.375 47.897099293768406,196.05357289360836 47.748988604173064,195.08929129096214 45.8235496468842,192.35715777392033 44.7867748234421,189.14287867606618 43.6018893122673,187.21430894907098 40.78778622020036,180.62501621060073 39.75101139675826,176.125" stroke="#4dd2ff" stroke-linecap="round" stroke-linejoin="round" stroke-width="0.5"><title>2023-10-15 1.0km</title><desc>10039610121</desc></polyline><polyline fill="none" points="62.03601107932627,177.5947642774554 62.48750989232212,182.3306647790596 63.691506726667285,185.76010366680566 65.19650277029723,187.88308699114714 66.09950039628893,190.82259901426733 68.65799366869032,195.39516554027796 69.25999208539724,196.0483885614667 70.01249010767788,196.375 70.46398892067373,196.0483885614667 70.46398892067373,195.5584713134449 67.45399683434516,193.10888345376588 65.49750197865069,189.51614970644005 64.74500395730138,186.4133295211941 62.939008705317974,182.3306647790596 62.03601107932627,178.9012205969775 62.18651068396866,176.77822868782096 62.03601107932627,176.125" stroke="#4dd2ff" stroke-linecap="round" stroke-linejoin="round" stroke-width="0.5"><title>2023-10-14 1.0km</title><desc>10033377496</desc></polyline><polyline fill="none" points="84.15856931451708,176.44643003679812 86.8245613258332,179.66072780278046 87.1207826603204,182.0714480257593 89.6386640034616,189.7857348738471 92.0084346793592,195.41071853914764 92.7489880155772,196.375 93.34143068548292,196.375 93.34143068548292,195.89285932295024 93.193320017308,195.41071853914764 91.8603240121156,194.4464366529137 90.3792173396796,191.71430233237334 88.75,186.57145199575461 85.787786655128,179.9821573193185 85.3434546533972,177.73214971018024 84.60290131624788,176.125" stroke="#4dd2ff" stroke-linecap="round" stroke-linejoin="round" stroke-width="0.5"><title>2023-10-13 1.0km</title><desc>10028006924</desc></polyline><polyline fill="none" points="106.90504435403273,176.125 108.32961997529492,177.97996994643472 109.18436534842476,179.52577698463574 109.32682291138917,181.5353244356811 109.18436534842476,183.6994503120659 110.7513985321857,186.9456349503016 112.60334684047848,191.89219238027 114.45529514877126,195.29294386308175 114.88266783533618,195.9112617240753 115.59495564550161,196.375 115.59495564550161,195.60210281633772 114.02792246220633,193.59256880928297 112.60334684047848,191.11929354909807 110.7513985321857,186.01815413648728 109.61173803498968,184.008610969875 109.04190778639168,182.30822679039557" stroke="#4dd2ff" stroke-linecap="round" stroke-linejoin="round" stroke-width="0.5"><title>2023-10-12 1.0km</title><desc>10021974100</desc></polyline><polyline fill="none" points="131.3824395830743,178.99628079403192 131.93951262207702,182.01867729763035 131.80024436255917,183.22763465484604 133.0536587005481,187.30786048504524 134.02853651950136,189.12129158736207 135.0034143384546,192.44591112039052 136.39609693642706,195.77052527631167 136.67463345639408,196.07276266010012 137.37097475584596,196.375 137.2317064953968,195.77052527631167 135.69975563744083,191.84143524174578 134.02853651950136,188.97017238975968 131.80024436255917,183.83211306645535 131.24317132262513,181.86755757802166 130.96463480358943,178.99628079403192 130.12902524415404,176.125" stroke="#4dd2ff" stroke-linecap="round" stroke-linejoin="round" stroke-width="0.5"><title>2023-10-10 1.0km</title><desc>10009069592</desc></polyline><polyline fill="none" points="152.81949557503685,178.65626107272692 153.78003681404516,181.33641640702263 154.74057805305347,184.90995133598335 156.79888070886955,189.37686113012023 158.44552283268422,195.03493272676133 159.40606407169253,196.375 159.68050442589447,195.9283110073302 159.8177246027626,194.290450524888 158.8571833637543,191.4614156623138 156.79888070886955,187.88789229327813 154.46613769978285,181.33641640702263 153.78003681404516,178.35846581635997 152.68227539770305,176.125" stroke="#4dd2ff" stroke-linecap="round" stroke-linejoin="round" stroke-width="0.5"><title>2023-10-09 1.0km</title><desc>10003389142</desc></polyline><polyline fill="none" points="174.62701159808785,176.125 175.639675416518,177.3808195394231 176.6523392344825,179.73547918454278 177.23100427305326,184.4447906849673 179.4009981690906,189.15409179858398 181.28165954491124,194.4912871712586 182.14965710323304,196.06104797730222 182.87298840191215,196.375 182.87298840191215,195.11919163237326 180.1243294677697,190.72385652828962 176.5076729748398,181.93315917695872 175.06101037748158,176.2819774830714" stroke="#4dd2ff" stroke-linecap="round" stroke-linejoin="round" stroke-width="0.5"><title>2023-10-08 1.0km</title><desc>9996447828</desc></polyline><polyline fill="none" points="18.650658363476396,204.3416833409574 19.31715621938929,206.8006179681979 21.316649785730988,212.1524062398821 21.983147641643882,214.46668855112512 24.115940779447556,219.81845596968196 24.78243863536045,220.54166666662786 24.915738206356764,219.96309813053813 24.915738206356764,219.3845294243656 22.383046355098486,214.90061618143227 21.183350214734674,212.2970489638392 19.050557076931,205.93275903875474 18.384059221018106,202.6059629296651 17.584261794108897,200.29166666662786" stroke="#4dd2ff" stroke-linecap="round" stroke-linejoin="round" stroke-width="0.5"><title>2023-10-07 1.0km</title><desc>9989974159</desc></polyline><polyline fill="none" points="42.09557300293818,206.32360351155512 43.15440628072247,209.77041620307136 43.94853123975918,211.49382026866078 45.53678115690127,218.24380488495808 45.933843636419624,219.53635246958584 46.72796859499067,220.54166666662786 47.389739393722266,220.54166666662786 47.65444771293551,219.96720147447195 47.52209355402738,219.53635246958584 45.933843636419624,217.23848950501997 44.34559371881187,213.79168999032117 43.816177079919726,211.49382026866078 41.03673972515389,204.743812328903 40.63967724563554,202.30231435096357 39.84555228706449,200.29166666662786" stroke="#4dd2ff" stroke-linecap="round" stroke-linejoin="round" stroke-width="0.5"><title>2023-10-06 1.0km</title><desc>9984428862</desc></polyline><polyline fill="none" points="61.89044428616762,200.29166666662786 64.18494729418308,206.4330792982364 65.71461596526206,211.57857431669254 68.31505270767957,218.05192236078437 69.38582077715546,220.20970091840718 69.84472137875855,220.54166666662786 70.456588848494,220.54166666662786 70.6095557147637,220.20970091840718 70.15065511316061,219.3797863323707 68.31505270767957,216.72405760886613 67.24428463727236,214.56627572025172 65.40868223086,209.75275484623853 64.64384789578617,207.26299864286557 62.502311755903065,203.27938300638925 62.502311755903065,201.7855253306916" stroke="#4dd2ff" stroke-linecap="round" stroke-linejoin="round" stroke-width="0.5"><title>2023-10-04 1.0km</title><desc>9971682885</desc></polyline><polyline fill="none" points="85.68508319184184,202.65664068912156 86.36617581546307,205.02161193010397 87.04726843954995,206.64752804441378 87.59214253909886,209.1603049073601 90.18029451044276,214.3336591485422 90.3165130354464,216.10737753810827 91.13382418453693,219.6548096233746 91.4062612336129,220.09823819377925 92.22357238270342,220.54166666662786 92.22357238270342,219.0635713771917 90.45273156045005,215.81175791530404 89.22676483727992,213.0033693293808 88.54567221272737,211.67307863000315 87.86457958864048,209.75154606590513 86.50239434093237,206.94314901495818 85.9575202409178,204.72599067701958 85.68508319184184,202.50882989447564 85.27642761729658,200.29166666662786" stroke="#4dd2ff" stroke-linecap="round" stroke-linejoin="round" stroke-width="0.5"><title>2023-10-03 1.0km</title><desc>9965060084</desc></polyline><polyline fill="none" points="107.54845587722957,201.12844709400088 109.39922793861479,207.1532570925774 109.70768994838,209.83094530692324 110.78730698488653,211.16978823265526 111.55846201069653,213.1780511450488 112.94654105603695,218.36605546902865 114.02615809161216,220.03960272856057 114.79731311742216,220.54166666662786 114.95154412277043,220.37431203282904 114.48885110765696,219.03547452029306 112.79231005162,215.8557322723791 110.01615195907652,209.1615235483041 108.31961090210825,204.14085408637766 108.01114889234304,200.29166666662786" stroke="#4dd2ff" stroke-linecap="round" stroke-linejoin="round" stroke-width="0.5"><title>2023-10-02 1.0km</title><desc>9958643020</desc></polyline><polyline fill="none" points="130.54014479368925,203.8556801606901 130.8387359753251,205.31368401984219 134.12323897797614,213.08968830667436 135.765490478836,218.1116764920298 136.6612640246749,219.89366954844445 137.55703757051378,220.54166666662786 137.7063331613317,220.37966740492266 137.55703757051378,219.7316702393582 134.57112575042993,215.19568474590778 131.734509521164,208.2296888428973 130.39084920194,204.0176806373056 129.7936668386683,200.29166666662786" stroke="#4dd2ff" stroke-linecap="round" stroke-linejoin="round" stroke-width="0.5"><title>2023-10-01 1.0km</title><desc>9952075403</desc></polyline><polyline fill="none" points="153.34252363303676,203.22646200540476 154.55960676353425,205.7210346502252 155.10053259832785,208.21560417755973 155.50622697547078,210.56343147263397 157.53469885932282,216.2862489343388 159.29270782507956,219.95471303607337 160.10409657796845,220.54166666662786 160.3745594965294,220.1014514598064 157.66993031837046,215.99277151515707 156.45284718833864,213.2047338783741 156.0471528111957,211.73734408442397 154.15391238685697,207.62864692218136 153.07206071494147,203.07972234068438 152.12544050300494,200.29166666662786" stroke="#4dd2ff" stroke-linecap="round" stroke-linejoin="round" stroke-width="0.5"><title>2023-09-30 1.0km</title><desc>9945549317</desc></polyline><polyline fill="none" points="175.6147944321856,200.29166666662786 176.95845396164805,202.5596759208711 177.40634047053754,204.34168155433144 178.6007044967264,207.25768766424153 179.19788650982082,211.63168959354516 179.64577301964164,212.9276884975843 181.43731905706227,217.30167917197105 181.8852055668831,220.055668846122 182.1837965734303,220.37966740503907 182.63168308325112,220.54166666662786 182.78097858652472,220.2176681313431 180.09365952853113,215.35768438887317 178.30211349017918,211.14568980794866 177.70493147801608,208.71568927180488 175.6147944321856,203.85568016127218 174.71902141347528,200.9396695488831" stroke="#4dd2ff" stroke-linecap="round" stroke-linejoin="round" stroke-width="0.5"><title>2023-09-28 1.0km</title><desc>9933629332</desc></polyline><polyline fill="none" points="17.2914034742862,226.759479593602 18.422431053128093,230.74812710052356 20.543107762932777,233.6629031491466 21.95689223660156,238.87880802189466 23.936190499458462,242.40720686654095 24.50170428911224,244.40151661762502 25.067218077834696,244.70833333337214 25.349974973127246,244.24810824275482 25.067218077834696,243.63447463116609 23.936190499458462,242.10038981225807 20.684486210346222,235.5038122398546 18.98794484185055,230.90153646748513 17.150025026872754,224.45833333337214" stroke="#4dd2ff" stroke-linecap="round" stroke-linejoin="round" stroke-width="0.5"><title>2023-09-27 1.0km</title><desc>9927137811</desc></polyline><polyline fill="none" points="45.432236537570134,224.45833333331393 45.02849976834841,226.40547563385917 44.62476299959235,227.52507986332057 44.31074551236816,228.8880737608415 42.47150023118593,232.73364855814725 41.529447770444676,234.34002128941938 41.35000920621678,235.0215115735191 41.439728488214314,235.55696773336967 41.66402669320814,236.335812283447 42.33692130818963,237.99085391045082 42.56121951318346,238.4289524721098 42.830377359408885,239.2077936436981 43.72757017915137,240.3273762227618 44.131306948373094,241.20356996386545 44.57990335859358,241.88505318324314 44.93878048658371,242.85859942255775 45.4770961785689,243.58875816257205 46.14999079355039,244.70833333331393" stroke="#4dd2ff" stroke-linecap="round" stroke-linejoin="round" stroke-width="0.5"><title>2023-09-26 1.0km</title><desc>9920397094</desc></polyline><polyline fill="none" points="66.15543065872043,224.45833333331393 65.27278347173706,227.40008366759866 64.39013628475368,228.9735742143821 63.570535325212404,229.99976226786384 63.129211731953546,230.82071189570706 62.94007304892875,231.64166079915594 63.00311927613802,232.66784590989118 63.31835041474551,233.48879318370018 64.07490514637902,234.6518005816033 64.39013628475368,235.81480652588652 65.0205985608045,237.31987088400638 66.21847688616253,238.82493280782364 68.23595617059618,242.9296347720665 69.55992695130408,244.70833333331393" stroke="#4dd2ff" stroke-linecap="round" stroke-linejoin="round" stroke-width="0.5"><title>2023-09-25 1.0km</title><desc>9914573673</desc></polyline><polyline fill="none" points="90.24293000507168,224.45833333331393 89.74528667028062,225.21434336691163 89.64575800322928,225.59234809182817 89.74528667028062,226.07835388096282 89.7950510038063,226.56435934826732 88.79976433352567,228.40037710027536 88.55094266589731,229.64238650619518 88.20259233145043,230.56039210839663 86.11249032407068,234.23240304231877 86.062725990545,234.66440312145278 86.26178332441486,235.52840251784073 86.80919099319726,236.3924008976901 87.1077769943513,237.14839864632813 87.55565599561669,237.90439561667154 87.80447766324505,238.66039180883672 88.4514139990788,239.68638539657695 88.94905733386986,240.71237755101174 89.49646500288509,241.30637235374888 89.64575800322928,241.84636721207062 89.99410833767615,242.27836281282362 90.74057334032841,243.574348090915 91.28798100887798,244.16834057902452 91.437274009455,244.70833333331393" stroke="#4dd2ff" stroke-linecap="round" stroke-linejoin="round" stroke-width="0.5"><title>2023-09-24 1.0km</title><desc>9907510217</desc></polyline><polyline fill="none" points="112.00492160650901,224.45833333331393 111.58216550690122,225.1136803429108 111.28019686439075,225.76902687054826 111.09901567874476,226.62097663618624 111.0386219501961,227.7350635623443 110.01192856533453,229.11128666636068 109.40799128031358,230.68411046854453 108.86444772337563,231.47052132879617 108.5020853523165,232.51906806329498 108.44169162353501,233.63314761698712 109.70995992282405,236.84431030391715 110.19310975074768,237.82731697696727 111.7633466925472,240.31759569660062 112.42767770611681,241.95593316521263 113.27318990556523,243.00446756463498 113.75633973395452,243.85640085610794 114.05830837669782,244.70833333331393" stroke="#4dd2ff" stroke-linecap="round" stroke-linejoin="round" stroke-width="0.5"><title>2023-09-23 1.0km</title><desc>9901004991</desc></polyline><polyline fill="none" points="134.52756968373433,224.45833333331393 134.12438540323637,225.20834193611518 133.72120112297125,226.5208553984412 132.79963705362752,228.45837156730704 131.8780729842838,229.77088001114316 131.0717044235207,231.95838958065724 131.01410666899756,233.14589241793146 131.12930217804387,233.8333933026297 132.2812572645489,236.58339128014632 132.4540505274199,237.3958889800706 132.68444154481404,237.83338741987245 133.4908101055771,238.83338300831383 134.12438540323637,240.0833758393419 134.64276519208215,241.39586633403087 135.5067315073684,242.64585539727705 136.48589333100244,244.70833333331393" stroke="#4dd2ff" stroke-linecap="round" stroke-linejoin="round" stroke-width="0.5"><title>2023-09-22 1.0km</title><desc>9895405405</desc></polyline><polyline fill="none" points="157.32345788786188,224.45833333331393 157.1583105204627,225.05568569112802 156.82801578589715,225.41409689502325 156.11237719398923,226.72826995630749 155.83713158173487,227.6840308473911 155.01139474497177,229.77475387667073 154.13060878613032,231.5667979050777 153.58011756138876,232.88096101366682 153.41497019398957,233.53804177069105 153.41497019398957,233.95618379395455 153.58011756138876,234.5535291681299 153.9104122959543,235.15087410318665 154.62605088809505,237.00264061050257 155.34168947977014,238.31679492612602 155.72703333687969,239.27254218421876 156.44267192855477,240.46722467575455 156.8830649079755,241.00483122392325 157.21335964277387,241.9605753198848 158.09414560184814,243.5136570779141 159.0850298057776,244.70833333331393" stroke="#4dd2ff" stroke-linecap="round" stroke-linejoin="round" stroke-width="0.5"><title>2023-09-21 1.0km</title><desc>9889267953</desc></polyline><polyline fill="none" points="180.811701788567,224.45833333331393 180.08904342958704,226.6263600223465 179.6639502774924,228.33309916598955 178.9838012335822,229.76306622481206 178.17612424399704,232.16171332629165 176.7733168413397,234.79098903591512 176.39073300431482,236.22094137454405 176.4332423193846,236.5438333870261 176.6882982107345,237.23574428271968 177.24091930896975,238.43505469430238 177.58099383092485,239.44985402107704 178.43118013557978,240.64916020003147 178.94129191851243,241.61782890179893 179.2388571249321,242.30973420158261 179.57893164665438,242.9093848442426 180.13155274488963,243.32452726108022 180.811701788567,244.33931867918 180.85421110410243,244.52382603340084 181.10926699545234,244.70833333331393" stroke="#4dd2ff" stroke-linecap="round" stroke-linejoin="round" stroke-width="0.5"><title>2023-09-20 1.0km</title><desc>9882714971</desc></polyline><polyline fill="none" points="22.929065905045718,248.625 22.49730610102415,249.71820245083654 21.681759804254398,252.11283049179474 21.633786492515355,252.8936857105 21.345946623012424,253.3101414749981 21.01013344223611,254.09099537302973 20.818240195745602,254.81979156762827 20.434453702997416,255.80887091724435 19.33106753672473,257.57879893644713 19.0432276672218,258.6199309984804 18.947281044209376,259.55694854533067 19.0432276672218,260.4939648518921 19.33106753672473,261.53509262710577 19.666880717501044,262.2638811588986 20.722293572500348,264.08584920619614 21.25,264.8146351122414 21.72973311552778,266.11603665031726 22.20946623152122,266.94893237925135 22.689199347048998,267.6256594376173 23.21690577454865,268.1462182732066 23.552718955790624,268.875" stroke="#4dd2ff" stroke-linecap="round" stroke-linejoin="round" stroke-width="0.5"><title>2023-09-19 1.0km</title><desc>9876194288</desc></polyline><polyline fill="none" points="43.60094494954683,248.625 43.24321282887831,249.20727487810655 42.64699262776412,250.3718234784319 42.46812656731345,251.14818835549522 41.39493020484224,253.02440064720577 40.56022192304954,254.77121539146174 40.381355862598866,255.41818293527467 40.44097788305953,256.12984668376157 40.79871000372805,257.0355997134466 41.335308184847236,258.0060483532725 41.81228434597142,259.36467465094756 42.46812656731345,260.7879951891373 43.18359080865048,262.08192095329287 43.83943303022534,262.92297167977085 44.6145192917902,264.21689430449624 45.091495452681556,265.70490297081415 45.92620373470709,266.99882150505437 46.34355787560344,268.1633465591003 47.118644137401134,268.875" stroke="#4dd2ff" stroke-linecap="round" stroke-linejoin="round" stroke-width="0.5"><title>2023-09-18 1.0km</title><desc>9870505463</desc></polyline><polyline fill="none" points="66.45347620127723,248.625 66.16279591363855,249.19276352168527 65.7558435110841,251.08530588028952 65.23261899338104,251.96849088562885 65.00007476331666,252.662421323359 63.721081498079,254.74420926929452 63.25599303795025,255.87972783809528 62.96531275031157,256.88907641521655 63.197856980375946,257.5830028732307 64.4768502456136,260.3587030930212 65.11634687846527,261.368046401185 65.58143533836119,262.44047236500774 66.33720408612862,263.44981322425883 66.7441564889159,264.14373437612085 67.26738100638613,265.7839094134979 69.53468724968843,268.875" stroke="#4dd2ff" stroke-linecap="round" stroke-linejoin="round" stroke-width="0.5"><title>2023-09-16 1.0km</title><desc>9856514700</desc></polyline><polyline fill="none" points="88.47007456398569,248.625 87.84801803971641,250.51501889922656 87.03934455802664,251.79752950766124 85.35979194217362,255.0375483268872 85.29758628970012,255.78005102928728 85.35979194217362,256.6575534485164 85.73302585678175,257.53505502908956 86.35508238128386,258.4800557931885 86.91493325307965,259.7625552743557 87.91022369195707,261.450051862048 89.1543367409613,263.8125418740674 89.27874804567546,264.6900366158807 89.71418761275709,265.027534370136 90.21183283231221,265.7025295064668 91.02050631376915,267.05251829046756 91.89138544793241,267.7950112755061 92.07800240535289,268.2675064987852 92.20241371029988,268.875" stroke="#4dd2ff" stroke-linecap="round" stroke-linejoin="round" stroke-width="0.5"><title>2023-09-15 1.0km</title><desc>9850671982</desc></polyline><polyline fill="none" points="111.76480475603603,248.625 110.73519524396397,251.34830099134706 109.5768845428247,253.02417464280734 109.0620797870215,253.931938302645 108.28987265285105,255.88711862289347 108.09682086925022,256.58539633319015 108.09682086925022,257.1440181314829 108.28987265285105,257.8422949176165 109.0620797870215,259.93712219555164 109.76993632642552,261.3336711471202 111.50740237813443,264.33624443912413 112.21525891753845,265.66295984660974 112.34396010637283,266.43105739331804 112.85876486264169,266.9198464176734 113.69532259111293,268.246558215993 114.40317913074978,268.875" stroke="#4dd2ff" stroke-linecap="round" stroke-linejoin="round" stroke-width="0.5"><title>2023-09-14 1.0km</title><desc>9844236351</desc></polyline><polyline fill="none" points="130.53165259608068,248.625 130.90210985112935,248.9264932339429 131.0410313217435,249.22798633488128 131.1336456357967,249.88122093037236 131.411488577025,250.43395740829874 131.59671720466577,251.99166689504636 131.59671720466577,252.74539601715514 131.5041028908454,253.14738454233157 131.59671720466577,253.64986986643635 131.8282529891003,254.2528517676401 131.73563867527992,254.7553362788749 131.7819458320737,255.00657839589985 132.24501740117557,255.8608009031159 132.66178181325085,257.1170085329795 133.03223906829953,257.8204837971134 133.4953106371686,258.47371017967816 134.0046893628314,258.92594346334226 134.1436108336784,259.22743215295486 134.28253230429254,259.88065719080623 134.65298955957405,260.53388160432223 135.0697539714165,261.73983272747137 135.62543985410593,262.7950382147101 135.90328279556707,263.69949876429746 136.04220426618122,264.45321497449186 136.32004720764235,265.05618734436575 136.82942593330517,266.7143586183083 137.5240332868416,268.02079375850735 137.5703404438682,268.2217835584306 137.5240332868416,268.37252586957766 136.96834740391932,268.875 137.24619034538046,268.674010392162 137.3851118159946,268.37252586957766 137.47772612981498,268.12128866591956 137.4314189730212,267.76955642551184 137.1535760317929,267.4178240040201 136.32004720764235,265.60891154926503 135.90328279556707,264.25222406635294 135.02344681462273,262.29255961440504 134.60668240254745,260.38313756434945 134.37514661811292,259.83040913322475 133.4953106371686,258.67470278718974 132.61547465622425,257.01651200756896 132.19871024414897,255.6598074681242 132.05978877376765,254.7553362788749 131.6893315182533,253.8006153916358 130.94841700815596,252.19266140891705 130.7631883805152,251.43893167714123 130.1148881840054,250.23296237713657 129.97596671339124,249.57972811779473 129.92965955636464,248.77574663364794" stroke="#4dd2ff" stroke-linecap="round" stroke-linejoin="round" stroke-width="0.5"><title>2023-09-13 1.0km</title><desc>9837636972</desc></polyline></svg>