<?xml version="1.0" encoding="utf-8" ?>
<svg baseProfile="full" height="300mm" version="1.1" viewBox="0,0,200,300" width="200mm" xmlns="http://www.w3.org/2000/svg" xmlns:ev="http://www.w3.org/2001/xml-events" xmlns:xlink="http://www.w3.org/1999/xlink"><defs /><rect fill="#222222" height="300" width="200" x="0" y="0" /><text fill="#FFFFFF" style="font-size:12px; font-family:Arial; font-weight:bold;" x="10" y="20">Over 1km Runs</text><text fill="#FFFFFF" style="font-size:4px; font-family:Arial" x="10" y="280">ATHLETE</text><text fill="#FFFFFF" style="font-size:9px; font-family:Arial" x="10" y="290">Jiakai</text><text fill="#FFFFFF" style="font-size:4px; font-family:Arial" x="120" y="280">STATISTICS</text><text fill="#FFFFFF" style="font-size:3px; font-family:Arial" x="120" y="285">Number: 36</text><text fill="#FFFFFF" style="font-size:3px; font-family:Arial" x="120" y="290">Weekly: 5.1</text><text fill="#FFFFFF" style="font-size:3px; font-family:Arial" x="141" y="285">Total: 37.7 km</text><text fill="#FFFFFF" style="font-size:3px; font-family:Arial" x="141" y="290">Avg: 1.0 km</text><text fill="#FFFFFF" style="font-size:3px; font-family:Arial" x="167" y="285">Min: 1.0 km</text><text fill="#FFFFFF" style="font-size:3px; font-family:Arial" x="167" y="290">Max: 1.5 km</text><polyline fill="none" points="22.225324196740985,36.16189021081664 24.91049432847649,45.679890516679734 26.16357372328639,48.01082414062694 27.59566445928067,53.83814920345321 29.743800564669073,57.72302543837577 30.638857275247574,58.5 29.743800564669073,57.528781762113795 28.49072116985917,54.42088100290857 25.26851701270789,50.53599991230294 24.552471644245088,49.17629018146545 23.836426275782287,44.70866756676696 21.688290170393884,40.43528234469704 20.256199434399605,35.96764494967647 19.361142724752426,31.5" stroke="#4dd2ff" stroke-linecap="round" stroke-linejoin="round" stroke-width="0.5"><title>2023-10-23 1.0km</title><desc>10087395010</desc></polyline><polyline fill="none" points="53.7583675137721,31.629498378606513 54.23572628409602,31.5 57.63690752442926,31.758996738062706 59.128653682535514,32.14749170234427 59.486672760453075,32.341739120311104 60.26238076295704,32.924481116759125 60.79940937971696,33.57197177177295 61.992806305876,35.77343643736094 62.58950476930477,38.233890433155466 63.3652127715759,39.52886345918523 63.72323184926063,40.564840508799534 64.55860969773494,42.44254580512643 65.1553081611637,44.38499534671428 66.05035585584119,45.93895189516479 66.46804478019476,46.3921887052129 67.00507339718752,47.29866162565304 67.30342262866907,49.241100456158165 67.48243216751143,49.75908342085313 67.95979093806818,50.47130949964048 68.07913063117303,51.572021397645585 68.25814016978256,52.02525530860294 70.88361340807751,58.24101112637436 71.24163248599507,58.5 71.24163248599507,58.176263895933516 70.70460386900231,57.658285881974734 70.10790540603921,56.233844772563316 69.51120694261044,55.00364377879305 67.900121091865,50.01807478885166" stroke="#4dd2ff" stroke-linecap="round" stroke-linejoin="round" stroke-width="0.5"><title>2023-10-22 1.5km</title><desc>10080655811</desc></polyline><polyline fill="none" points="95.70558573654853,31.5 96.65288300043903,32.18528886185959 94.94774792529643,31.911173377535306 97.60018026432954,35.33761113631772 97.85279286815785,36.159954324073624 97.66333341551945,36.84523975942284 96.77918930235319,37.32493926456664 96.52657669852488,37.80463852267712 96.58972984971479,38.62697953346651 97.09495505690575,40.61430064769229 97.66333341551945,42.053392602538224 98.2948649248574,44.246290356095415 99.4316216413863,46.23359948891448 99.62108109425753,46.98740529286442 100.31576575455256,48.220904384274036 100.7578378112521,48.76912567886757 100.82099096174352,49.111763824068476 101.2630630186759,49.52292943227803 101.57882877299562,50.20820504275616 102.020900829928,51.51022731454577 102.46297288639471,52.40108361048624 102.39981973543763,54.18279364804039 103.22081069741398,55.75891891930951 103.47342330124229,56.512717020115815 103.91549535747617,57.33504152559908 104.67333316896111,58.29441919847159 105.05225207447074,58.5 103.59972960315645,56.44418994517764 103.28396384860389,55.34775606211042 102.65243233903311,53.977211894409265 102.39981973543763,53.086357104883064 101.57882877299562,51.92139186465647 100.88414411293343,49.93409485905431" stroke="#4dd2ff" stroke-linecap="round" stroke-linejoin="round" stroke-width="0.5"><title>2023-10-20 1.4km</title><desc>10069668027</desc></polyline><polyline fill="none" points="132.06703137257136,31.5 132.19562234613113,32.54652593983337 133.2243501334451,35.058183485642076 133.48153208033182,36.593082046485506 135.60328314173967,41.75590443867259 135.79616960207932,42.45358098583529 135.92476057563908,43.50009484484326 136.18194252229296,44.1977701097494 137.72503420338035,46.360560170782264 138.56087553082034,48.03497489710571 139.07523942436092,49.7093866688665 139.52530783158727,50.61635847843718 139.78248977847397,52.01169803109951 140.10396721214056,52.70936703804182 140.93980853934772,54.87213770003291 141.06839951267466,55.70933792338474 142.29001376056112,58.22093416174175 142.61149119399488,58.5 142.8043776541017,58.5 142.93296862742864,58.43023354804609 142.86867314088158,58.36046709102811 141.5827634066809,56.7558371637715 141.0041040261276,54.8023709814297 139.78248977847397,52.569833277666476 139.58960331836715,51.66286333516473 139.4610123448074,50.127989150292706" stroke="#4dd2ff" stroke-linecap="round" stroke-linejoin="round" stroke-width="0.5"><title>2023-10-19 1.3km</title><desc>10064004415</desc></polyline><polyline fill="none" points="168.91170686017722,31.5 171.55879083368927,34.94682409497909 171.38231856934726,37.436194215668365 171.7352630989626,39.92556195752695 172.9705689540133,44.32982213282958 174.73529160209,47.20216171373613 176.50001425109804,52.18087615049444 180.02945955004543,57.925534828798845 180.5588763449341,58.5 181.08829313889146,58.30851162341423 178.79415369499475,56.01065000984818 174.558819337748,47.776629249798134 173.49998574797064,44.13833271479234 170.49995724391192,37.81917402287945" stroke="#4dd2ff" stroke-linecap="round" stroke-linejoin="round" stroke-width="0.5"><title>2023-10-18 1.0km</title><desc>10058081424</desc></polyline><polyline fill="none" points="20.287388553842902,63.13637109496631 21.79542421642691,71.93184924288653 25.754017831757665,82.36365937138908 28.39308024197817,87.88636654615402 29.524106989614666,88.5 30.089620362967253,88.5 30.466629278846085,87.6818220319692 29.147098074667156,86.0454653725028 27.45055795367807,83.38638374954462 25.188504458405077,78.47730330657214 24.245982169173658,75.61366904852912 20.287388553842902,67.63638664479367 19.91037963796407,66.40911039849743 19.533370722085238,61.5" stroke="#4dd2ff" stroke-linecap="round" stroke-linejoin="round" stroke-width="0.5"><title>2023-10-17 1.0km</title><desc>10051702317</desc></polyline><polyline fill="none" points="56.470755643211305,62.12307983194478 58.384801470674574,65.44616994820535 61.255870210938156,72.9231084161438 62.787106873467565,75.83080136496574 64.50974811799824,81.2307946155779 66.6151985283941,86.63077754480764 67.38081685919315,88.08461733930744 68.33783977292478,88.5 68.52924435585737,88.29230867745355 68.33783977292478,87.6692346171476 66.23238936252892,84.55386225529946 63.36132062226534,77.4923388492316 61.255870210938156,73.13080086861737 59.5332289673388,65.03078389703296 58.576206053607166,61.5" stroke="#4dd2ff" stroke-linecap="round" stroke-linejoin="round" stroke-width="0.5"><title>2023-10-16 1.0km</title><desc>10046279660</desc></polyline><polyline fill="none" points="94.47053427621722,61.5 95.26045795157552,63.21429314976558 96.05038162600249,67.07144905114546 97.82770989462733,73.07145919674076 100.19748091883957,76.71431647357531 102.96221378073096,87.00000656116754 103.94961837399751,88.07143052481115 105.3319848049432,88.5 105.5294657247141,88.07143052481115 105.3319848049432,86.78572172136046 102.76473286189139,83.14287703181617 101.3823664309457,78.85717156808823 99.80251908209175,76.28574526542798 96.05038162600249,67.50002161413431 94.6680151950568,61.5" stroke="#4dd2ff" stroke-linecap="round" stroke-linejoin="round" stroke-width="0.5"><title>2023-10-15 1.0km</title><desc>10039610121</desc></polyline><polyline fill="none" points="131.8813481060788,63.45968570327386 132.48334652278572,69.77421970525756 134.08867563586682,74.34680488915183 136.09533702675253,77.17744932160713 137.2993338610977,81.09679868584499 140.71065822523087,87.19355405378155 141.5133227808401,88.06451808195561 142.51665347721428,88.5 143.1186518939212,88.06451808195561 143.1186518939212,87.41129508474842 139.10532911214978,84.1451779382769 136.49666930455714,79.354866275331 135.4933386091143,75.21777269500308 133.08534494042397,69.77421970525756 131.8813481060788,65.20162746263668 132.08201424591243,62.370971583761275 131.8813481060788,61.5" stroke="#4dd2ff" stroke-linecap="round" stroke-linejoin="round" stroke-width="0.5"><title>2023-10-14 1.0km</title><desc>10033377496</desc></polyline><polyline fill="none" points="168.87809242028743,61.92857338255271 172.43274843506515,66.21430373727344 172.82771021407098,69.4285973678343 176.18488533888012,79.7143131652847 179.3445795737207,87.2142913856078 180.33198402170092,88.5 181.1219075806439,88.5 181.1219075806439,87.85714576416649 180.92442669067532,87.2142913856078 179.1470986828208,85.92858220404014 177.17228978779167,82.28573644324206 175.00000000093132,75.42860266123898 171.05038220714778,66.64287642599083 170.45793953817338,63.64286628039554 169.47053508926183,61.5" stroke="#4dd2ff" stroke-linecap="round" stroke-linejoin="round" stroke-width="0.5"><title>2023-10-13 1.0km</title><desc>10028006924</desc></polyline><polyline fill="none" points="19.206725805066526,91.5 21.10615996737033,93.97329326206818 22.24582046456635,96.03436931292526 22.43576388154179,98.71376591431908 22.24582046456635,101.59926708275452 24.33519804291427,105.92751326714642 26.804462454281747,112.52292317361571 29.2737268647179,117.0572584841866 29.84355711378157,117.88168229884468 30.79327419400215,118.5 30.79327419400215,117.46947042178363 28.703896616585553,114.79009174578823 26.804462454281747,111.49239139887504 24.33519804291427,104.69087218213826 22.81565071363002,102.01148129324429 22.055877048522234,99.74430238734931" stroke="#4dd2ff" stroke-linecap="round" stroke-linejoin="round" stroke-width="0.5"><title>2023-10-12 1.0km</title><desc>10021974100</desc></polyline><polyline fill="none" points="59.34325277712196,95.328374392353 60.086016830056906,99.35823639691807 59.900325817056,100.97017953987233 61.57154493406415,106.4104806468822 62.87138202600181,108.82838878338225 64.17121911793947,113.26121482742019 66.02812924887985,117.69403370190412 66.39951127488166,118.09701688028872 67.32796634081751,118.5 67.1422753278166,117.69403370190412 65.09967418387532,112.4552469891496 62.87138202600181,108.6268965199124 59.900325817056,101.77615075535141 59.157561764121056,99.15674343751743 58.786179738119245,95.328374392353 57.67203365918249,91.5" stroke="#4dd2ff" stroke-linecap="round" stroke-linejoin="round" stroke-width="0.5"><title>2023-10-10 1.0km</title><desc>10009069592</desc></polyline><polyline fill="none" points="95.42599410098046,94.87501476355828 96.70671575237066,98.44855520920828 97.98743740469217,103.21326844790019 100.73184094484895,109.16914817341603 102.92736377660185,116.71324363560416 104.20808542892337,118.5 104.57400590088218,117.90441467636265 104.75696613732725,115.72060069977306 103.47624448500574,111.94855421641842 100.73184094484895,107.18385639088228 97.62151693273336,98.44855520920828 96.70671575237066,94.47795442165807 95.24303386360407,91.5" stroke="#4dd2ff" stroke-linecap="round" stroke-linejoin="round" stroke-width="0.5"><title>2023-10-09 1.0km</title><desc>10003389142</desc></polyline><polyline fill="none" points="132.0026821307838,91.5 133.35290055535734,93.17442605248652 134.70311897993088,96.31397224590182 135.47467236500233,102.59305424662307 138.3679975597188,108.87212239811197 140.87554606050253,115.98838289501145 142.03287613857538,118.08139730314724 142.9973178692162,118.5 142.9973178692162,116.82558884308673 139.33243929035962,110.96514203771949 134.51023063343018,99.24421223602258 132.58134717028588,91.70930331083946" stroke="#4dd2ff" stroke-linecap="round" stroke-linejoin="round" stroke-width="0.5"><title>2023-10-08 1.0km</title><desc>9996447828</desc></polyline><polyline fill="none" points="171.53421115130186,96.90002223243937 172.42287495918572,100.17860173550434 175.08886638097465,107.31431943108328 175.9775301888585,110.40002917940728 178.82125437259674,117.53571907081641 179.7099181804806,118.5 179.88765094149858,117.7285752852913 179.88765094149858,116.95715034380555 176.5107284737751,110.97859935299493 174.91113361995667,107.50717639643699 172.06740943621844,99.02145649609156 171.17874562833458,94.58572835079394 170.11234905850142,91.5" stroke="#4dd2ff" stroke-linecap="round" stroke-linejoin="round" stroke-width="0.5"><title>2023-10-07 1.0km</title><desc>9989974159</desc></polyline><polyline fill="none" points="22.794097336940467,129.5425824597478 24.205875040963292,134.138332715258 25.26470831874758,136.43620480247773 27.38237487524748,145.43618429102935 27.911791514605284,147.15958107053302 28.970624793320894,148.5 29.852985857985914,148.5 30.205930283293128,147.73404641030356 30.029458071105182,147.15958107053302 27.911791514605284,144.0957637843676 25.794124958105385,139.50003109802492 25.088236106559634,136.43620480247773 21.382319632917643,127.43619421636686 20.852902993559837,124.18086357903667 19.79406971577555,121.5" stroke="#4dd2ff" stroke-linecap="round" stroke-linejoin="round" stroke-width="0.5"><title>2023-10-06 1.0km</title><desc>9984428862</desc></polyline><polyline fill="none" points="56.687259048223495,121.5 59.74659639131278,129.68855017540045 61.78615462034941,136.54921020008624 65.25340360961854,145.18034092569724 66.68109436891973,148.05737900245003 67.29296183772385,148.5 68.10878513008356,148.5 68.3127409517765,148.05737900245003 67.70087348297238,146.95082622091286 65.25340360961854,143.40985458972864 63.825712849386036,140.53281207149848 61.37824297416955,134.1147842395585 60.3584638601169,130.79510930157267 57.50308233965188,125.48362178634852 57.50308233965188,123.49181155208498" stroke="#4dd2ff" stroke-linecap="round" stroke-linejoin="round" stroke-width="0.5"><title>2023-10-04 1.0km</title><desc>9971682885</desc></polyline><polyline fill="none" points="95.91344425641,124.65329869673587 96.8215677542612,127.80659368471242 97.72969125304371,129.9744818371255 98.45619005244225,133.324850987643 101.90705934725702,140.22265664255247 102.08868404757231,142.58761449554004 103.1784322457388,147.317523942329 103.54168164543808,147.90876203635707 104.63142984360456,148.5 104.63142984360456,146.52920628082938 102.27030874788761,142.19345499831252 100.63568644970655,138.4489368838258 99.72756295092404,136.67521595116705 98.8194394512102,134.1131725325249 97.00319245457649,130.36864313133992 96.27669365517795,127.41243201401085 95.91344425641,124.45621763705276 95.36857015639544,121.5" stroke="#4dd2ff" stroke-linecap="round" stroke-linejoin="round" stroke-width="0.5"><title>2023-10-03 1.0km</title><desc>9965060084</desc></polyline><polyline fill="none" points="132.5646078363061,122.61570723657496 135.03230391815305,130.64878723444417 135.44358659908175,134.2190381870605 136.88307597953826,136.0041620878037 137.9112826809287,138.68184597115032 139.7620547413826,145.5991850697901 141.20154412277043,147.83058141567744 142.22975082322955,148.5 142.4353921636939,148.27686048811302 141.81846814323217,146.49174380488694 139.55641340184957,142.25208747433499 135.85486927814782,133.32647584215738 133.59281453676522,126.63224989292212 133.18153185676783,121.5" stroke="#4dd2ff" stroke-linecap="round" stroke-linejoin="round" stroke-width="0.5"><title>2023-10-02 1.0km</title><desc>9958643020</desc></polyline><polyline fill="none" points="170.72019305825233,126.25201799208298 171.11831463407725,128.1960231375415 175.49765197001398,138.56402885355055 177.687320638448,145.2600131004583 178.88168536685407,147.63600384257734 180.0760500933975,148.5 180.27511088270694,148.28400098439306 180.0760500933975,147.42000476364046 176.0948343332857,141.37202410562895 172.31267936248332,132.08402956835926 170.52113226987422,126.46801862749271 169.72488911822438,121.5" stroke="#4dd2ff" stroke-linecap="round" stroke-linejoin="round" stroke-width="0.5"><title>2023-10-01 1.0km</title><desc>9952075403</desc></polyline><polyline fill="none" points="21.123364844359457,155.41306045162492 22.74614235199988,158.7391573113855 23.467376798391342,162.0652500144206 24.008302634581923,165.19568640808575 26.712931812740862,172.82610969012603 29.05694376770407,177.71739515918307 30.138795438222587,178.5 30.49941266234964,177.9130463907495 26.89324042480439,172.43480646470562 25.27046291809529,168.71742294891737 24.729537082836032,166.76090322365053 22.205216515809298,161.282640340738 20.762747621163726,155.2174075653311 19.50058733765036,151.5" stroke="#4dd2ff" stroke-linecap="round" stroke-linejoin="round" stroke-width="0.5"><title>2023-09-30 1.0km</title><desc>9945549317</desc></polyline><polyline fill="none" points="58.31972591113299,151.5 60.111271949484944,154.52401233883575 60.70845396257937,156.90001985034905 62.300939328968525,160.788027996663 63.09718201402575,166.62003056914546 63.69436402618885,168.34802910801955 66.08309207763523,174.18001667386852 66.68027408979833,177.8520029061474 67.07839543186128,178.2840009846259 67.6755774449557,178.5 67.87463811598718,178.06800195295364 64.29154603928328,171.58802362973802 61.9028179878369,165.97203085501678 61.10657530464232,162.73203014023602 58.31972591113299,156.25201799278148 57.12536188494414,152.36400384292938" stroke="#4dd2ff" stroke-linecap="round" stroke-linejoin="round" stroke-width="0.5"><title>2023-09-28 1.0km</title><desc>9933629332</desc></polyline><polyline fill="none" points="94.72187129873782,154.56819501379505 96.22990807145834,159.88639168953523 99.05747701786458,163.77275975467637 100.94252298213542,170.72729958500713 103.58158733230084,175.43183137779124 104.33560571912676,178.09091104590334 105.08962410409003,178.5 105.46663329843432,177.8863665459212 105.08962410409003,177.06818839721382 103.58158733230084,175.02274197200313 99.2459816141054,166.2273052087985 96.98392645642161,160.09093751222827 94.533366702497,151.5" stroke="#4dd2ff" stroke-linecap="round" stroke-linejoin="round" stroke-width="0.5"><title>2023-09-27 1.0km</title><desc>9927137811</desc></polyline><polyline fill="none" points="139.74298205017112,151.5 139.20466635818593,154.09618973411852 138.66635066620074,155.5889953733422 138.24766068346798,157.40632057009498 135.79533364181407,162.5337536331499 134.53926369408146,164.67558394157095 134.30001227511093,165.5842376536457 134.41963798436336,166.29817920009373 134.7187022578437,167.33663860021625 135.615895077819,169.54336076957406 135.91495935129933,170.12749218509998 136.27383647928946,171.16594708053162 137.47009357251227,172.65872385265538 138.0084092647303,173.8269821741269 138.60653781169094,174.7356264666305 139.0850406489335,176.03368811903056 139.80279490514658,177.0072331057745 140.6999877251219,178.5" stroke="#4dd2ff" stroke-linecap="round" stroke-linejoin="round" stroke-width="0.5"><title>2023-09-26 1.0km</title><desc>9920397094</desc></polyline><polyline fill="none" points="174.87390754465014,151.5 173.6970446286723,155.4223337789299 172.52018171316013,157.52032117464114 171.4273804333061,158.8885719126556 170.83894897578284,159.98317141644657 170.58676406508312,161.07776995445602 170.67082570167258,162.44601676869206 171.09113388648257,163.5406131336931 172.09987352835014,165.09128966438584 172.52018171316013,166.64196425664704 173.3607980813831,168.64871673414018 174.95796918170527,170.65546596597414 177.64794156095013,176.12840191822033 179.41323593491688,178.5" stroke="#4dd2ff" stroke-linecap="round" stroke-linejoin="round" stroke-width="0.5"><title>2023-09-25 1.0km</title><desc>9914573673</desc></polyline><polyline fill="none" points="26.99057334009558,181.5 26.327048893785104,182.50801337813027 26.19434400415048,183.012019678019 26.327048893785104,183.6600273968652 26.39340133825317,184.30803468660451 25.066352444700897,186.75605835590977 24.734590221196413,188.412070897175 24.270123108755797,189.63607836677693 21.483320432249457,194.53209294530097 21.41696798754856,195.1080930508324 21.682377765886486,196.26009224599693 22.41225465759635,197.4120900858543 22.81036932580173,198.42008708399953 23.40754132764414,199.4280830444768 23.739303551148623,200.43607796734432 24.60188533202745,201.80406941764522 25.265409778570756,203.1720589569304 25.99528667051345,203.964052027266 26.19434400415048,204.6840451717144 26.658811117056757,205.2600393060129 27.654097787337378,206.98801967676263 28.38397467858158,207.78000966098625 28.58303201268427,208.5" stroke="#4dd2ff" stroke-linecap="round" stroke-linejoin="round" stroke-width="0.5"><title>2023-09-24 1.0km</title><desc>9907510217</desc></polyline><polyline fill="none" points="63.50656214216724,181.5 62.94288734253496,182.37379601283465 62.54026248585433,183.2475913829403 62.298687572125345,184.38352440390736 62.21816260041669,185.86897363874596 60.849238086957484,187.70393777731806 60.04398837359622,189.80103618034627 59.31926363147795,190.84958399401512 58.836113803088665,192.2476463066414 58.75558883138001,193.73308571160305 60.44661323027685,198.0146359608043 61.09081300115213,199.32531152490992 63.1844622567296,202.64568315108772 64.07023694179952,204.83013310923707 65.19758654106408,206.22817897505593 65.84178631193936,207.36409003043082 66.24441116908565,208.5" stroke="#4dd2ff" stroke-linecap="round" stroke-linejoin="round" stroke-width="0.5"><title>2023-09-23 1.0km</title><desc>9901004991</desc></polyline><polyline fill="none" points="101.03675957862288,181.5 100.49918053811416,182.50001147040166 99.96160149760544,184.2500294201309 98.73284940514714,186.8333843119908 97.50409731268883,188.58339557045838 96.4289392316714,191.50007499643834 96.3521422254853,193.08341211284278 96.50573623785749,194.0000799590489 98.04167635319754,197.66674392909044 98.27206737035885,198.75007419561734 98.5792553932406,199.3334054487059 99.65441347425804,200.66673290001927 100.49918053811416,202.3333900080761 101.19035359006375,204.08337733428925 102.34230867680162,205.75002941855928 103.64785777498037,208.5" stroke="#4dd2ff" stroke-linecap="round" stroke-linejoin="round" stroke-width="0.5"><title>2023-09-22 1.0km</title><desc>9895405405</desc></polyline><polyline fill="none" points="138.93127718381584,181.5 138.71108069410548,182.29646981041878 138.27068771468475,182.77435141563183 137.3165029254742,184.5265821639914 136.94950877595693,185.80093001882778 135.84852632693946,188.58856072451454 134.67414504801854,190.97795276233228 133.94015674851835,192.73017024050932 133.719960258808,193.60627791646402 133.719960258808,194.1638006141875 133.94015674851835,194.96026111306855 134.38054972840473,195.75672102649696 135.3347345176153,198.22574303630972 136.28891930636019,199.97794879041612 136.80271111568436,201.2522784678731 137.75689590489492,202.8451884566457 138.34408654412255,203.5619971874985 138.78447952400893,204.83632264879998 139.95886080292985,206.90709832619177 141.280039741192,208.5" stroke="#4dd2ff" stroke-linecap="round" stroke-linejoin="round" stroke-width="0.5"><title>2023-09-21 1.0km</title><desc>9889267953</desc></polyline><polyline fill="none" points="177.74893571832217,181.5 176.7853912396822,184.3907022520434 176.2186003702227,186.6663544435287 175.3117349781096,188.57297718862537 174.23483232571743,191.77117332391208 172.3644224551972,195.2768742701155 171.85431067249738,197.18347738828743 171.91098975925706,197.61400007159682 172.25106428121217,198.5365479324828 172.9878924121149,200.13562848127913 173.44132510805503,201.4886942502926 174.57490684767254,203.08776915556518 175.25505589158274,204.37932742462726 175.6518095000647,205.30186782439705 176.105242195772,206.10140201455215 176.84207032690756,206.65492523700232 177.74893571832217,208.00798046117416 177.80561480554752,208.25399026670493 178.14568932750262,208.5" stroke="#4dd2ff" stroke-linecap="round" stroke-linejoin="round" stroke-width="0.5"><title>2023-09-20 1.0km</title><desc>9882714971</desc></polyline><polyline fill="none" points="27.238754540216178,211.5 26.663074801443145,212.95760326780146 25.575679739005864,216.15044065576512 25.511715323431417,217.19158094731392 25.12792883068323,217.74685529997805 24.68017792282626,218.7879938307451 24.424320260761306,219.75972209015163 23.91260493732989,221.0784945563646 22.441423382377252,223.4383985819295 22.057636889629066,224.82657466462115 21.929708058945835,226.07593139371602 22.057636889629066,227.32528646918945 22.441423382377252,228.71345683612162 22.889174290001392,229.68517487851204 24.296391429845244,232.11446560826153 25.0,233.08618014963577 25.63964415411465,234.8213822004036 26.27928830869496,235.9319098389824 26.918932462809607,236.83421258348972 27.622541032731533,237.52829103090335 28.070291941054165,238.5" stroke="#4dd2ff" stroke-linecap="round" stroke-linejoin="round" stroke-width="0.5"><title>2023-09-19 1.0km</title><desc>9876194288</desc></polyline><polyline fill="none" points="62.301259933039546,211.5 61.82428377168253,212.27636650414206 61.029323503840715,213.82909797120374 60.790835422929376,214.8642511406215 59.35990693978965,217.3658675296465 58.24696256406605,219.69495385535993 58.008474483620375,220.5575772470329 58.08797051059082,221.50646224501543 58.56494667194784,222.7141329512233 59.28041091328487,224.0080644710688 59.916379128117114,225.81956620130222 60.790835422929376,227.71732691884972 61.744787745177746,229.44256127101835 62.61924404045567,230.56396223965567 63.65269238920882,232.28919240599498 64.28866060357541,234.27320396108553 65.40160497976467,235.99842867336702 65.95807716762647,237.5511287454283 66.99152551637962,238.5" stroke="#4dd2ff" stroke-linecap="round" stroke-linejoin="round" stroke-width="0.5"><title>2023-09-18 1.0km</title><desc>9870505463</desc></polyline><polyline fill="none" points="100.27130160154775,211.5 99.8837278848514,212.2570180289331 99.34112468129024,214.78040784032783 98.64349199132994,215.95798784750514 98.33343301760033,216.88322843116475 96.62810866395012,219.6589456924121 96.00799071695656,221.1729704508325 95.6204170002602,222.51876855356386 95.93047597352415,223.4440038310131 97.63580032717437,227.14493745734217 98.48846250446513,228.4907285349327 99.10858045099303,229.92062982002972 100.11627211468294,231.2664176323451 100.65887531870976,232.1916458348278 101.35650800867006,234.37854588468326 104.37958299927413,238.5" stroke="#4dd2ff" stroke-linecap="round" stroke-linejoin="round" stroke-width="0.5"><title>2023-09-16 1.0km</title><desc>9856514700</desc></polyline><polyline fill="none" points="137.1267660856247,211.5 136.29735738644376,214.02002519892994 135.21912607783452,215.73003934358712 132.9797225901857,220.05006443581078 132.89678171975538,221.0400680389721 132.9797225901857,222.21007126464974 133.477367809508,223.3800733720418 134.30677650868893,224.64007439091802 135.0532443379052,226.35007369914092 136.38029825640842,228.6000691493973 138.03911565523595,231.75005583208986 138.2049973946996,232.92004882113542 138.78558348398656,233.37004582688678 139.44911044370383,234.27003934187815 140.52734175231308,236.07002438721247 141.68851393088698,237.06001503393054 141.93733654078096,237.69000866496935 142.10321828071028,238.5" stroke="#4dd2ff" stroke-linecap="round" stroke-linejoin="round" stroke-width="0.5"><title>2023-09-15 1.0km</title><desc>9850671982</desc></polyline><polyline fill="none" points="175.68640634138137,211.5 174.31359365861863,215.13106798846275 172.7691793902777,217.3655661904486 172.082773049362,218.57591773686 171.05316353728995,221.18282483052462 170.79576115915552,222.11386177758686 170.79576115915552,222.85869084193837 171.05316353728995,223.78972655686084 172.082773049362,226.58282959414646 173.02658176841214,228.4448948628269 175.34320317115635,232.44832591875456 176.2870118902065,234.21727979544085 176.458613475319,235.2414098577574 177.14501981670037,235.89312855689786 178.26043012179434,237.662077621324 179.20423884084448,238.5" stroke="#4dd2ff" stroke-linecap="round" stroke-linejoin="round" stroke-width="0.5"><title>2023-09-14 1.0km</title><desc>9844236351</desc></polyline><polyline fill="none" points="20.708870128029957,241.5 21.202813134761527,241.90199097857112 21.38804176240228,242.3039817797835 21.511527514085174,243.1749612404965 21.88198476913385,243.91194321104558 22.128956272732466,245.98888919339515 22.128956272732466,246.99386135616805 22.005470520816743,247.52984605642268 22.128956272732466,248.1998264885624 22.437670651823282,249.00380235683406 22.31418490037322,249.67378170514712 22.37592777609825,250.00877119449433 22.993356534745544,251.14773453748785 23.549042417434976,252.8226780439727 24.042985424166545,253.76064506283728 24.660414182813838,254.63161357294302 25.339585817186162,255.23459128447575 25.524814444594085,255.6365762039204 25.71004307223484,256.5075429211138 26.20398607919924,257.378508805763 26.75967196188867,258.9864436365897 27.500586471986026,260.3933842863189 27.871043727034703,261.59933168569114 28.056272354675457,262.604286632617 28.426729609956965,263.40824979246827 29.10590124432929,265.6191448243917 30.032044382300228,267.36105834465707 30.09378725825809,267.62904474453535 30.032044382300228,267.8300344927702 29.291129871970043,268.5 29.66158712701872,268.2320138561772 29.846815754659474,267.8300344927702 29.970301506109536,267.4950515545206 29.908558630617335,267.0260752339964 29.538101375568658,266.55709867202677 28.426729609956965,264.14521539898124 27.871043727034703,262.33629875513725 26.69792908593081,259.7234128191485 26.142243203241378,257.17751675244654 25.833528824150562,256.44054551096633 24.660414182813838,254.8996037162142 23.487299541477114,252.6886826767004 22.931613658554852,250.87974329077406 22.74638503161259,249.67378170514712 22.25244202418253,248.40082052216167 21.26455601071939,246.25688187853666 21.017584507120773,245.25190890283557 20.153184245107695,243.6439498362015 19.967955617699772,242.7729708236875 19.90621274174191,241.70099551149178" stroke="#4dd2ff" stroke-linecap="round" stroke-linejoin="round" stroke-width="0.5"><title>2023-09-13 1.0km</title><desc>9837636972</desc></polyline></svg>