<?xml version="1.0" encoding="utf-8" ?>
<svg baseProfile="full" height="300mm" version="1.1" viewBox="0,0,200,300" width="200mm" xmlns="http://www.w3.org/2000/svg" xmlns:ev="http://www.w3.org/2001/xml-events" xmlns:xlink="http://www.w3.org/1999/xlink"><defs /><rect fill="#222222" height="300" width="200" x="0" y="0" /><text fill="#FFFFFF" style="font-size:12px; font-family:Arial; font-weight:bold;" x="10" y="20">Over 1km Runs</text><text fill="#FFFFFF" style="font-size:4px; font-family:Arial" x="10" y="280">ATHLETE</text><text fill="#FFFFFF" style="font-size:9px; font-family:Arial" x="10" y="290">Jiakai</text><text fill="#FFFFFF" style="font-size:4px; font-family:Arial" x="120" y="280">STATISTICS</text><text fill="#FFFFFF" style="font-size:3px; font-family:Arial" x="120" y="285">Number: 85</text><text fill="#FFFFFF" style="font-size:3px; font-family:Arial" x="120" y="290">Weekly: 6.1</text><text fill="#FFFFFF" style="font-size:3px; font-family:Arial" x="141" y="285">Total: 87.7 km</text><text fill="#FFFFFF" style="font-size:3px; font-family:Arial" x="141" y="290">Avg: 1.0 km</text><text fill="#FFFFFF" style="font-size:3px; font-family:Arial" x="167" y="285">Min: 1.0 km</text><text fill="#FFFFFF" style="font-size:3px; font-family:Arial" x="167" y="290">Max: 1.5 km</text><polyline fill="none" points="17.72309936909005,34.54803023394197 19.252375308424234,38.55828279838897 21.801168540492654,43.53651546663605 24.0950824492611,50.174138529459015 24.604841095395386,50.727272727293894 24.732280757278204,50.588989192969166 24.732280757278204,50.03585495450534 24.0950824492611,48.238167555769905 20.6542115858756,41.46225345612038 19.124935646541417,37.31372257240582 17.977978691924363,32.61204317654483 17.085901061072946,31.09090909094084" stroke="#4dd2ff" stroke-linecap="round" stroke-linejoin="round" stroke-width="0.5"><title>2023-12-16 1.0km</title><desc>10386207035</desc></polyline><polyline fill="none" points="40.85325812082738,34.78196954121813 41.39751153346151,37.29188677179627 43.302398476284,43.04992033028975 44.390905301086605,44.82161964243278 45.88760218489915,49.6937846908113 46.29579224437475,50.727272727293894 46.56791895069182,50.727272727293894 46.56791895069182,49.250861084321514 44.52696865424514,43.04992033028975 41.669638238847256,38.62066521192901 41.533574886620045,36.84896042954642 40.717194768134505,34.78196954121813 40.98932147398591,33.453188560553826 40.44506806181744,31.09090909094084" stroke="#4dd2ff" stroke-linecap="round" stroke-linejoin="round" stroke-width="0.5"><title>2023-12-14 1.0km</title><desc>10376526598</desc></polyline><polyline fill="none" points="70.31866133445874,32.79842820286285 69.30711767915636,31.944668866577558 67.62121158698574,31.212874800316058 66.04769923398271,31.09090909094084 64.47418688144535,31.456806191476062 62.451099569909275,32.55449700867757 61.55194965424016,33.774152620113455 60.87758721737191,35.847565100644715 60.87758721737191,40.48224244802259 61.102374696172774,41.94582207745407 61.55194965424016,43.77529479726218 61.214768435806036,45.97065939742606 61.3271621754393,46.82441151270177 61.4395559146069,47.312269666814245 62.5634933100082,49.263700848212466 64.36179314134642,50.605308453552425 64.92376183858141,50.727272727293894 66.04769923398271,50.727272727293894 67.17163662845269,50.727272727293894 69.1947239395231,49.995486949104816 70.31866133445874,48.897807676694356 70.99302377132699,47.67816318827681 71.21781125059351,44.994942156015895 71.33020499022678,43.165470781736076 70.99302377132699,40.97010246803984 71.21781125059351,38.04294019541703 71.10541751096025,35.4816689689178 70.99302377132699,34.627911014365964 70.20626759529114,32.92039378627669 69.86908637639135,32.55449700867757 68.63275524228811,31.700737546896562 66.16009297315031,31.456806191476062 64.58658062061295,31.700737546896562 63.687430704478174,32.06663451297209 62.00152461230755,33.896118131815456 61.3271621754393,36.457391807227395 61.55194965424016,38.16490539337974" stroke="#4dd2ff" stroke-linecap="round" stroke-linejoin="round" stroke-width="0.5"><title>2023-12-13 1.0km</title><desc>10373769329</desc></polyline><polyline fill="none" points="86.3379602720961,33.875181376584806 87.6884393747896,39.44371428003069 89.03891847701743,42.37451482261531 91.73987668193877,49.994576065801084 92.28006832301617,50.727272727293894 92.55016414355487,50.727272727293894 92.68521205382422,50.14111541956663 92.14502041274682,49.261879135505296 89.98425384890288,45.59839044196997 86.8781519131735,39.2971741395304 86.47300818236545,37.39215133571997 84.9874811694026,34.16826244338881 84.71738534932956,31.09090909094084" stroke="#4dd2ff" stroke-linecap="round" stroke-linejoin="round" stroke-width="0.5"><title>2023-12-12 1.0km</title><desc>10365882163</desc></polyline><polyline fill="none" points="107.47551257489249,31.09090909094084 108.87734844023362,34.1331760318717 110.78894280223176,38.97313602420036 112.19077866710722,41.60053766157944 114.22981265326962,47.96160011109896 114.48469190159813,49.62100416899193 114.99445039825514,50.727272727293894 115.12189002195373,49.759287774097174 114.86701077409089,48.65301864652429 112.19077866710722,42.568526813411154 110.27918430510908,38.83485162584111 109.76942580938339,37.31372257263865 109.38710693689063,34.1331760318717 108.36758994404227,31.229194058920257" stroke="#4dd2ff" stroke-linecap="round" stroke-linejoin="round" stroke-width="0.5"><title>2023-12-11 1.0km</title><desc>10361067591</desc></polyline><polyline fill="none" points="134.28950441721827,42.047455398133025 136.91217455733567,50.01581375533715 137.04330806387588,50.442689169663936 137.56784209236503,50.727272727293894 137.69897559890524,50.58498095383402 137.3055750783533,49.588938245899044 136.12537351530045,47.312267275177874 134.81403844524175,43.75496352184564 131.14230024954304,36.35575077205431 130.09323219349608,31.09090909094084" stroke="#4dd2ff" stroke-linecap="round" stroke-linejoin="round" stroke-width="0.5"><title>2023-12-10 1.0km</title><desc>10355395415</desc></polyline><polyline fill="none" points="153.0338955214247,32.39038039778825 155.2959488495253,36.00001840631012 156.360444533173,40.47596032265574 158.6224978612736,46.82889262505341 159.4208696242422,50.29411976446863 159.9531174665317,50.727272727293894 160.08617942687124,50.58288841682952 160.08617942687124,50.29411976446863 159.8200555057265,49.139044730807655 157.02575433580205,43.50804421224166 156.360444533173,41.91981037775986 155.9612586516887,39.46526465250645 155.2959488495253,37.58825702825561 154.2314531658776,35.71124760969542 154.0983912050724,33.689850845141336 152.90083356015384,31.09090909094084" stroke="#4dd2ff" stroke-linecap="round" stroke-linejoin="round" stroke-width="0.5"><title>2023-12-09 1.0km</title><desc>10350143310</desc></polyline><polyline fill="none" points="176.9976658662781,34.90096492273733 177.8079535663128,37.831772144301794 179.56357691576704,42.08143496210687 181.99444001493976,49.115339716663584 183.07482361467555,50.727272727293894 182.939775664825,49.261879135505296 182.12948796525598,46.77070755674504 179.96872076578438,42.960674413945526 178.6182412658818,39.73679452808574 177.13271381659433,37.392151336185634 176.727569966577,35.047505385940894 175.1069945669733,31.09090909094084" stroke="#4dd2ff" stroke-linecap="round" stroke-linejoin="round" stroke-width="0.5"><title>2023-12-08 1.0km</title><desc>10345303898</desc></polyline><polyline fill="none" points="17.745380309410393,52.90909090905916 17.998477157671005,53.595680533209816 18.504670853726566,55.38081237464212 18.757767701987177,57.852530568954535 19.263961397111416,59.91229323204607 21.03563933307305,64.30644598905928 22.174575148615986,68.28863799595274 23.313510964624584,70.76033910899423 23.566607812885195,72.54545454541221 23.819704661145806,72.40813803405035 24.072801508940756,72.13350498059299 24.072801508940756,71.72155532508623 23.44005938898772,70.07375579478685 21.415284605231136,66.64083543641027 19.010864549316466,59.63765834190417 18.37812242982909,56.75398955284618" stroke="#4dd2ff" stroke-linecap="round" stroke-linejoin="round" stroke-width="0.5"><title>2023-12-07 1.0km</title><desc>10340288256</desc></polyline><polyline fill="none" points="39.86117002367973,52.909090908942744 40.642310770228505,54.74559385573957 42.07440213812515,60.82016802148428 44.157444128766656,64.63442570611369 45.84991574566811,69.29628592764493 46.631056492216885,72.26291836192831 47.02162686549127,72.54545454541221 47.151816989295185,71.5565777218435 46.891436740756035,70.28516391466837 44.80839475011453,65.90584325173404 43.376303382217884,63.78681354154833 42.59516263566911,62.23285693547223 39.99136014841497,53.33289943705313" stroke="#4dd2ff" stroke-linecap="round" stroke-linejoin="round" stroke-width="0.5"><title>2023-12-06 1.0km</title><desc>10334845031</desc></polyline><polyline fill="none" points="64.29425364173949,56.2946857806528 65.1678741411306,60.76366148283705 66.0414946405217,64.01381881989073 68.16314442455769,69.56615767115727 69.28637078078464,72.13918707356788 69.6607795660384,72.54545454541221 69.16156785283238,70.10784837033134 67.91353856725618,67.80566179868765 66.79031221149489,64.55551115213893 65.1678741411306,61.1699314636644 64.41905657015741,58.59688673866913 63.17102728551254,55.888414724729955 62.54701264249161,52.90909090905916" stroke="#4dd2ff" stroke-linecap="round" stroke-linejoin="round" stroke-width="0.5"><title>2023-12-05 1.0km</title><desc>10329306344</desc></polyline><polyline fill="none" points="85.09466861793771,54.55690558278002 85.9805075856857,55.93008336704224 87.1194434016943,59.91229323204607 89.39731503324583,65.54229958960786 90.53625084925443,69.38717222749256 91.54863824089989,71.58423875342123 92.30792878521606,72.54545454541221 92.30792878521606,71.85887188697234 89.0176697615534,64.30644598905928 87.752185522113,60.04961066250689 86.36015285784379,56.891307215439156 85.34776546573266,52.90909090905916" stroke="#4dd2ff" stroke-linecap="round" stroke-linejoin="round" stroke-width="0.5"><title>2023-12-04 1.0km</title><desc>10324662812</desc></polyline><polyline fill="none" points="107.88822039449587,54.721686183824204 109.28025341732427,60.00841326825321 111.5075062518008,64.99302920256741 113.03874257626012,70.2797298579244 114.15236899396405,72.39440631074831 114.98758880700916,72.54545454541221 114.98758880700916,71.9412615399342 114.01316569186747,70.2797298579244 112.76033597206697,66.65456516004633 111.36830295016989,64.53988279914483 110.39387983456254,61.97205129195936 108.72344020800665,55.930082145147026 107.60981379076838,52.90909090905916" stroke="#4dd2ff" stroke-linecap="round" stroke-linejoin="round" stroke-width="0.5"><title>2023-12-02 1.0km</title><desc>10313350310</desc></polyline><polyline fill="none" points="130.33165622735396,53.95041800767649 131.70259763812646,55.735548930591904 133.34772733133286,61.38845312898047 134.44448046013713,66.0000211733859 136.2267042947933,71.05785791110247 137.3234574231319,72.54545454541221 137.4605515645817,71.65289669588674 137.1863632821478,69.86777981568594 135.6783277299255,66.59506144560874 133.34772733133286,62.87605687219184 131.97678592056036,60.049608825240284 130.6058445093222,52.90909090905916" stroke="#4dd2ff" stroke-linecap="round" stroke-linejoin="round" stroke-width="0.5"><title>2023-12-01 1.0km</title><desc>10308709030</desc></polyline><polyline fill="none" points="152.87422010395676,52.90909090905916 155.5886848969385,62.236385236727074 158.3031496880576,67.80001587385777 159.8111856840551,71.89091188192833 160.26359648257494,72.54545454541221 160.41440008301288,72.05454756587278 159.8111856840551,70.41819018532988 157.54913169052452,67.30910784786101 156.94591729249805,65.67274697858375 154.68386329896748,61.254566622083075 153.62823810242116,56.18183021212462 152.57261290494353,53.23636505601462" stroke="#4dd2ff" stroke-linecap="round" stroke-linejoin="round" stroke-width="0.5"><title>2023-11-30 1.0km</title><desc>10303537703</desc></polyline><polyline fill="none" points="176.84445736883208,57.10722762369551 177.71807748358697,59.95112125261221 178.09248610399663,62.25331764097791 179.4653177112341,64.96178029652219 180.96295219287276,69.02446681284346 182.4605866735801,72.27460957446601 182.7101924205199,72.54545454541221 182.959798166994,72.27460957446601 182.7101924205199,71.32665186130907 181.71176943276078,69.56615767115727 180.33893782552332,65.77431831671856 178.34209185047075,61.71162463212386 177.59327460965142,57.378074825159274 176.0956401284784,55.07587234349921 175.22202001465484,52.909090908942744" stroke="#4dd2ff" stroke-linecap="round" stroke-linejoin="round" stroke-width="0.5"><title>2023-11-29 1.0km</title><desc>10298007687</desc></polyline><polyline fill="none" points="17.524149168282747,77.27012249396648 18.956239904742688,80.94312177202664 19.2166200382635,83.62723218882456 21.03928097570315,88.00656218861695 22.080801511649042,91.96207748027518 22.992131980601698,93.79856395535171 23.903462449088693,94.36363636364695 24.294032650068402,94.36363636364695 24.554412784520537,93.93983207305428 24.42422271706164,93.37475954007823 23.903462449088693,92.38588220719248 21.82042137766257,86.87641346664168 19.737380306702107,82.07327398355119 19.346810105722398,79.81296889588702 18.43547963630408,77.12885315099265 17.263769033830613,74.7272727272939" stroke="#4dd2ff" stroke-linecap="round" stroke-linejoin="round" stroke-width="0.5"><title>2023-11-28 1.0km</title><desc>10292316108</desc></polyline><polyline fill="none" points="43.045437186490744,74.7272727272939 44.19807798601687,77.85409739543684 44.88966246554628,80.85584366996773 45.81177510507405,82.23164227581583 46.849151824600995,84.23280189803336 47.88652854412794,87.48468126403168 48.80864118365571,88.98554656701162 48.80864118365571,89.73597872210667 48.23232078412548,90.23626664164476 46.38809550506994,91.23684203939047 45.235454705543816,92.23741684830748 44.08281390601769,92.86277580517344 42.353852706961334,93.61320625001099 39.58751478837803,94.36363636364695 39.126458468381315,94.23856470140163 38.78066622884944,93.86334965820424 38.20434582885355,91.48698579671327" stroke="#4dd2ff" stroke-linecap="round" stroke-linejoin="round" stroke-width="0.5"><title>2023-11-27 1.0km</title><desc>10287544518</desc></polyline><polyline fill="none" points="64.20566960517317,78.98412432789337 64.83841177122667,80.49461772490758 66.3569929706864,88.18438335356768 68.00212260335684,92.1665709685767 68.88796163676307,93.67705370532349 69.52070380281657,94.36363636364695 69.64725223649293,94.22631985216867 69.26760693639517,93.53973714320455 69.26760693639517,92.4412042844342 68.25521946977824,90.10681981395464 67.11628357088193,86.26194491458591 65.9773476710543,83.92755272123031 65.21805707132444,79.53339479537681 63.06673370534554,76.10045172297396 62.560539971571416,74.7272727272939" stroke="#4dd2ff" stroke-linecap="round" stroke-linejoin="round" stroke-width="0.5"><title>2023-11-26 1.0km</title><desc>10281488289</desc></polyline><polyline fill="none" points="85.12579347658902,74.7272727272939 86.58518336340785,78.52787320804782 87.8986342633143,83.91204574378207 89.21208516228944,86.92084218084347 89.50396313983947,88.82113250205293 90.23365808371454,90.56306382396724 91.83898696023971,93.57185097108595 92.56868190411478,94.36363636364695 92.86055988073349,94.36363636364695 90.67147505003959,89.61291964096017 90.37959707248956,88.02934507199097 88.92020718473941,85.97069639177062 86.00142740923911,78.05279851530213 84.54203752148896,75.36070660676342" stroke="#4dd2ff" stroke-linecap="round" stroke-linejoin="round" stroke-width="0.5"><title>2023-11-25 1.0km</title><desc>10275889695</desc></polyline><polyline fill="none" points="107.4933750052005,74.91079086018726 108.50812868215144,79.49873978062533 113.24364584777504,92.3449518987909 114.42752513941377,94.18011966184713 114.93490197788924,94.36363636353053 115.10402759164572,93.81308621680364 113.4127714606002,91.61088441568427 111.38326410483569,85.55481944442727 110.0302592003718,82.80205778218806 109.1846311353147,77.4800432943739 108.16987745650113,74.7272727272939" stroke="#4dd2ff" stroke-linecap="round" stroke-linejoin="round" stroke-width="0.5"><title>2023-11-24 1.0km</title><desc>10271180196</desc></polyline><polyline fill="none" points="131.45452324394137,76.90909989213105 131.885390418116,78.15585726324935 132.89074715645984,83.4545679113362 135.3323278091848,90.9350780423265 136.4813069398515,94.05194947286509 136.9121741130948,94.36363636364695 137.48666367819533,94.36363636364695 137.63028607005253,94.05194947286509 137.34304128726944,92.49351433035918 135.76319498289376,87.97404593857937 131.5981456353329,78.93508024816401 130.16192172234878,74.7272727272939" stroke="#4dd2ff" stroke-linecap="round" stroke-linejoin="round" stroke-width="0.5"><title>2023-11-23 1.0km</title><desc>10265414399</desc></polyline><polyline fill="none" points="154.77307245321572,79.15238665114157 154.9005120121874,81.08837071899325 155.41027024621144,84.13062737148721 157.4493031827733,89.93855822598562 158.08650097530335,92.70423328236211 159.10601744335145,94.36363636364695 159.87065479438752,94.36363636364695 159.74321523634717,93.533935005893 158.34138009184971,89.93855822598562 157.1944240652956,88.14086725900415 155.5377098042518,83.02435279462952 153.62611642619595,77.76953966822475 153.11635819263756,74.7272727272939" stroke="#4dd2ff" stroke-linecap="round" stroke-linejoin="round" stroke-width="0.5"><title>2023-11-21 1.0km</title><desc>10253878272</desc></polyline><polyline fill="none" points="176.97745803929865,80.03054371476173 177.637911492493,84.33048257348128 180.4118159976788,91.35369564825669 181.60063221445307,93.93364511744585 181.99690428655595,94.36363636364695 182.26108566857874,94.22030595887918 182.39317635912448,93.93364511744585 181.8648135960102,91.64035686873831 179.4871811629273,86.48044844705146 178.5625463281758,83.75715794030111 177.1095487298444,78.16723393043503 176.31700458517298,76.73391750000883 175.78864182252437,74.7272727272939" stroke="#4dd2ff" stroke-linecap="round" stroke-linejoin="round" stroke-width="0.5"><title>2023-11-20 1.0km</title><desc>10248671423</desc></polyline><polyline fill="none" points="17.413189539685845,98.18182546005119 19.33250793814659,102.34712727146689 19.88088462408632,106.6611808227608 21.38892050879076,110.0826650300296 22.89695639302954,114.39670208888128 23.58242725022137,115.43802000093274 24.404992278199643,116.18181818176527 24.26789810694754,114.9917409614427 21.93729719426483,108.89258422260173 20.42926131002605,103.38845138438046 18.921225424855947,99.81819505151361 18.098660396877676,96.5454545452958" stroke="#4dd2ff" stroke-linecap="round" stroke-linejoin="round" stroke-width="0.5"><title>2023-11-19 1.0km</title><desc>10242265034</desc></polyline><polyline fill="none" points="39.690106683876365,114.04137627815362 40.54772170027718,111.34255306550767 40.89076770702377,110.69111211737618 41.49109821813181,110.31885999662336 44.40698927361518,109.94660776620731 46.55102681461722,109.48129232425708 47.237118827644736,108.92291356797796 47.665926336310804,108.36453456559684 48.18049534596503,106.03795273636933 48.00897234259173,105.29344564757776 48.35201834933832,104.73506504378747 48.09473384404555,100.45413889444899 47.923210841137916,99.89575615536887 47.83744933921844,98.22060645907186 47.665926336310804,97.19690277555492 46.72254981845617,96.91771071800031 45.950696303509176,97.47609477117658 46.12221930641681,97.19690277555492 46.293742309790105,97.47609477117658 45.17884278856218,96.91771071800031 45.09308128710836,96.54545454541221 44.83579678181559,96.73158264532685 45.007319785654545,96.63851859897841 44.40698927361518,97.38303077954333 44.49275077553466,97.28996678092517 46.293742309790105,98.22060645907186 45.86493480205536,98.59286213875748 45.17884278856218,98.87205382669345 43.54937425768003,99.15124545292929 43.46361275576055,98.77898993738927 43.89242026396096,98.59286213875748 44.49275077553466,98.68592604156584 46.293742309790105,96.91771071800031 48.78082585707307,97.01077474397607 48.52354135271162,96.82464668503962 48.18049534596503,96.73158264532685 47.923210841137916,101.19864883029368 48.00897234259173,102.50154016411398 48.266256847418845,104.08362069434952 48.4377798512578,106.78245938709006 48.4377798512578,107.71309208450839 48.18049534596503,108.64372409740463 47.665926336310804,109.20210297696758 43.377851254306734,109.6674185214797 41.40533671667799,110.03967083408497 40.376198696903884,110.78417513053864 39.17553767375648,112.45930819632486 38.48944566072896,114.87894093245268 38.23216115590185,116.18181818176527" stroke="#4dd2ff" stroke-linecap="round" stroke-linejoin="round" stroke-width="0.5"><title>2023-11-18 1.0km</title><desc>10236386505</desc></polyline><polyline fill="none" points="62.09683168120682,96.54545454541221 64.94055482000113,101.45456440222915 65.97463596099988,105.10132354742382 66.36241638939828,107.20521988312248 67.13797724526376,108.46755657088943 69.59391995565966,115.62078202550765 70.11096052685753,116.18181818176527 70.11096052685753,115.62078202550765 69.59391995565966,114.91948659834452 68.1720583862625,110.71170862053987 67.39649753039703,109.30911389889661 67.13797724526376,106.9247005059151 65.97463596099988,103.9792445525527 64.68203453440219,101.17404417973012 64.55277439206839,99.63118221587501" stroke="#4dd2ff" stroke-linecap="round" stroke-linejoin="round" stroke-width="0.5"><title>2023-11-17 1.0km</title><desc>10231268371</desc></polyline><polyline fill="none" points="85.19876374304295,97.17888842499815 87.09597017802298,99.87098033330403 87.53378704749048,103.513216971769 88.84723765775561,106.3636587401852 90.8903830498457,113.96481834887527 92.20383365917951,116.18181818176527 92.05789470206946,114.91496141382959 91.03632200602442,112.85631757660303 90.30662722326815,110.7976717716083 89.13911557011306,105.88858537387569 86.80409226566553,100.97948778816499 86.07439748197794,98.76247230765875 85.63658061251044,96.54545454541221" stroke="#4dd2ff" stroke-linecap="round" stroke-linejoin="round" stroke-width="0.5"><title>2023-11-16 1.0km</title><desc>10225818993</desc></polyline><polyline fill="none" points="107.89345860201865,96.75659895432182 108.86638508643955,100.55719566298649 110.42306746263057,104.78007499617524 112.56350572872907,108.79180461168289 113.34184691589326,111.95895561296493 114.70394399389625,114.70381698920391 116.06604107283056,116.18181818188168 112.56350572872907,109.63637855346315 111.00682335346937,104.78007499617524 106.53136152401567,96.54545454564504" stroke="#4dd2ff" stroke-linecap="round" stroke-linejoin="round" stroke-width="0.5"><title>2023-11-15 1.0km</title><desc>10219684298</desc></polyline><polyline fill="none" points="130.4264889024198,98.9077340150252 132.19531223271042,101.12236849369947 132.46743889851496,103.92756866081618 134.50838889507577,108.79974911198951 135.73295889236033,112.93371113424655 136.95752889011055,116.03417706664186 137.50178222265095,116.18181818176527 137.36571888905019,114.41012408013921 135.5968955596909,112.04786284593865 134.9165788940154,109.98088198690675 133.82807222940028,108.65210745378863 133.41988222999498,107.0280484976247 131.3789322343655,102.89407431846485 130.69861556869,99.94123040873092 130.2904255692847,96.54545454541221" stroke="#4dd2ff" stroke-linecap="round" stroke-linejoin="round" stroke-width="0.5"><title>2023-11-14 1.0km</title><desc>10213806154</desc></polyline><polyline fill="none" points="153.87083577550948,99.24902368383482 154.9199040629901,103.23322395212017 157.8048418527469,110.63243126217276 158.46050953213125,113.05139674723614 159.77184489183128,115.75494282960426 160.1652454994619,116.18181818176527 159.378444283735,114.75889997556806 157.5425747805275,110.34784688882064 157.4114412451163,109.2095089762006 156.10010588588193,106.07907626521774 154.13310284726322,102.52176022005733 153.346301632002,100.10278157447465 152.8217674875632,96.5454545452958" stroke="#4dd2ff" stroke-linecap="round" stroke-linejoin="round" stroke-width="0.5"><title>2023-11-13 1.0km</title><desc>10208522228</desc></polyline><polyline fill="none" points="176.89740251097828,98.77686910098419 178.26834412338212,102.94216968759429 179.9134740587324,106.36366018361878 180.87313318718225,110.38018512283452 181.83279231609777,113.20662381884176 183.06663976749405,115.88429894228466 183.61501641198993,116.18181818176527 183.88920473540202,115.58677965903189 182.3811689610593,112.6115844217129 181.55860399408266,109.33886460785288 178.5425324458629,106.51242050866131 176.89740251097828,104.13225399446674 176.62321418803185,101.60332400549669 174.2926134467125,96.5454545452958" stroke="#4dd2ff" stroke-linecap="round" stroke-linejoin="round" stroke-width="0.5"><title>2023-11-12 1.0km</title><desc>10202270880</desc></polyline><polyline fill="none" points="17.93803579173982,122.02715172152966 21.17918682890013,129.3541622350458 22.259570507798344,133.01765739207622 23.33995418762788,135.94844866986386 24.015193986706436,137.26730333908927 24.69043378578499,138.0 24.825481745880097,137.41384269285481 23.610050106886774,133.75035561539698 21.314234788995236,130.23340168688446 18.88337151100859,124.66487860900816 17.93803579173982,120.70828696829267 16.99270007200539,118.36363636364695" stroke="#4dd2ff" stroke-linecap="round" stroke-linejoin="round" stroke-width="0.5"><title>2023-11-11 1.0km</title><desc>10196068378</desc></polyline><polyline fill="none" points="41.680975309573114,121.29187646973878 43.903345288708806,128.00958994333632 45.96697455551475,133.5215455875732 46.91941883228719,137.13875943189487 47.55438168346882,138.0 47.87186310905963,137.6555038106162 47.39564097020775,135.5885256107431 45.01453027874231,130.24882348743267 42.63341958634555,125.25360725889914 39.45860533043742,120.2583803802263 39.141123903915286,118.36363636376336" stroke="#4dd2ff" stroke-linecap="round" stroke-linejoin="round" stroke-width="0.5"><title>2023-11-10 1.0km</title><desc>10191120477</desc></polyline><polyline fill="none" points="61.545255119912326,118.96322278503794 63.89364593056962,120.7619809921598 65.27505228901282,123.16032279923093 65.68947419663891,124.05970024957787 65.68947419663891,125.40876568155363 67.2090211911127,130.05553978029639 67.76158373476937,132.7536618168233 68.86670882161707,135.75157100276556 69.14299009321257,137.25052394298837 69.83369327289984,138.0 70.24811518006027,137.85010481067002 70.66253708768636,137.25052394298837 69.14299009321257,136.2012570006773 66.65645864792168,132.60376624157652 63.755505294539034,124.65928499633446 63.06480211485177,120.16239509929437 62.37409893516451,118.36363636364695" stroke="#4dd2ff" stroke-linecap="round" stroke-linejoin="round" stroke-width="0.5"><title>2023-11-09 1.0km</title><desc>10185506531</desc></polyline><polyline fill="none" points="84.87067176867276,119.94028600212187 86.32366819120944,122.80691844120156 86.85203052638099,124.24023308022879 88.56920811766759,127.96684621018358 89.22966103674844,130.54680497315712 89.0975704533048,128.97016391239595 89.3617516211234,129.9734810985392 89.89011395629495,133.8434139797464 91.07892921147868,137.42667831736617 91.60729154758155,138.0 92.2677444666624,137.713339179405 92.53192563401535,137.2833478701068 91.07892921147868,135.99337337259203 90.02220454020426,134.2734060480725 89.3617516211234,132.4101064010756 88.43711753329262,129.25682601856533 87.11621169466525,127.393521576887 85.66321527166292,124.24023308022879 85.26694351993501,121.9469291518908 85.39903410337865,119.08029544830788 85.13485293602571,118.36363636364695" stroke="#4dd2ff" stroke-linecap="round" stroke-linejoin="round" stroke-width="0.5"><title>2023-11-08 1.0km</title><desc>10179505859</desc></polyline><polyline fill="none" points="110.41286213556305,129.21172291447874 114.84205795219168,138.0 115.09515485586599,137.86268348875456 114.46241259668022,136.3522011960158 113.32347652921453,134.42976742074825 112.56418581772596,132.5073316671187 111.0456043947488,130.85952801757958 110.53941058786586,129.89830855070613 110.15976523188874,126.60269519442227 109.90666832821444,125.64147353696171 108.38808690523729,123.03244082990568 107.50224774191156,118.36363636364695" stroke="#4dd2ff" stroke-linecap="round" stroke-linejoin="round" stroke-width="0.5"><title>2023-11-06 1.0km</title><desc>10167691585</desc></polyline><polyline fill="none" points="132.00834709219635,123.87313993833959 132.91967796348035,125.56836862966884 136.30462119728327,133.3381476609502 137.73671256611124,137.7174638165161 137.9970928146504,138.0 138.25747306318954,138.0 138.25747306318954,137.5761957091745 137.21595206810161,135.31590458017308 136.30462119728327,134.04448965168558 136.1744310730137,133.3381476609502 135.39329032646492,132.4905369298067 133.1800582120195,128.6762840122683 130.5762557242997,122.03664050193038 129.53473472921178,118.36363636353053" stroke="#4dd2ff" stroke-linecap="round" stroke-linejoin="round" stroke-width="0.5"><title>2023-11-05 1.1km</title><desc>10161301187</desc></polyline><polyline fill="none" points="152.82176829781383,118.36363636364695 155.44443843699992,124.19764926051721 156.62464000005275,129.32018267083913 158.46050909813493,132.87748956226278 159.1161766331643,135.72333036828786 159.77184416772798,138.0 160.1652446887456,137.5731246479554 160.03411118173972,137.14624920184724 158.32937559112906,134.01582638698164 158.19824208365753,133.5889501561178 156.62464000005275,131.16998307046015 155.9689724650234,128.893305404461 154.26423687441275,125.76286924083252 153.87083635339513,123.0593066617148 153.0840353113599,120.213447235059" stroke="#4dd2ff" stroke-linecap="round" stroke-linejoin="round" stroke-width="0.5"><title>2023-11-04 1.0km</title><desc>10155501797</desc></polyline><polyline fill="none" points="184.35918837226927,121.34638984163757 182.8703268361278,119.35788810811937 181.95410435274243,118.73648083629087 180.1216593850404,118.36363636353053 178.403742228169,118.48791786388028 175.99865820771083,119.60645095270593 174.96790791349486,120.60070196597371 174.0516854301095,122.46492103859782 173.82262980937958,123.95629481622018 173.47904637781903,128.92753123503644 173.70810199854895,134.14731373498216 173.93715761974454,134.8929956331849 175.08243572432548,136.75719893875066 176.456769450102,137.7514398607891 178.74732565972954,138.0 180.80882624769583,137.13003935315646 182.7557990262285,134.7687153397128 183.32843807851896,133.65019228681922 184.13013275153935,130.0460574136814 184.13013275153935,127.18760015175212 184.70277180382982,123.4591703696642 184.58824399346486,122.09207738854457 183.32843807851896,120.60070196597371 182.29768778383732,119.85501376073807 179.89260376384482,118.73648083629087 178.63279784889892,118.73648083629087 175.88413039781153,119.60645095270593 174.62432448239997,120.72498330136295 173.82262980937958,122.21635861427058 173.593574188184,123.21060809190385 173.82262980937958,127.31188100308646 173.593574188184,129.17609267192893" stroke="#4dd2ff" stroke-linecap="round" stroke-linejoin="round" stroke-width="0.5"><title>2023-11-03 1.0km</title><desc>10152446508</desc></polyline><polyline fill="none" points="16.84506170079112,140.18181818188168 17.918578850105405,142.51156514696777 18.83873640652746,146.67182162008248 20.372332335449755,149.66720154648647 22.67272622603923,155.65794950677082 23.132805003784597,156.65640595904551 23.899602968245745,159.3189543443732 24.359681746922433,159.81818181823473 24.97312011756003,159.81818181823473 24.97312011756003,159.48536351439543 23.899602968245745,158.98613596742507 23.439524189569056,157.82127126306295 22.36600704025477,156.8228153247619 21.599209076724946,154.65949261467904 20.525691927410662,152.9953968154732 19.29881518520415,150.4992508222349 17.918578850105405,145.3405403806828 16.99842129368335,143.1772066964768" stroke="#4dd2ff" stroke-linecap="round" stroke-linejoin="round" stroke-width="0.5"><title>2023-11-02 1.1km</title><desc>10144903556</desc></polyline><polyline fill="none" points="40.16258883289993,141.60474977793638 40.42485586600378,143.1699733256828 41.47392399888486,145.58895268221386 43.30979323154315,152.13441107748076 46.4569976311177,158.6798473369563 47.37493224674836,159.81818181823473 46.85039818100631,158.11067984544206 44.88339543156326,155.12254776793998 43.83432729868218,151.2806568898959 42.52299213223159,149.43085485859774 40.94938993221149,146.0158310785191 39.63805476622656,140.18181818188168" stroke="#4dd2ff" stroke-linecap="round" stroke-linejoin="round" stroke-width="0.5"><title>2023-11-01 1.0km</title><desc>10138966680</desc></polyline><polyline fill="none" points="63.246566528920084,140.47710326767992 63.9268830944784,142.69174002599902 65.0153895993717,148.59742610831745 66.784212668892,152.4361127485754 67.87271917331964,155.97950928844512 69.64154224377126,159.81818181823473 69.77760555688292,159.67054070252925 68.55303573887795,157.89884647051804 66.784212668892,153.764887183439 65.28751622559503,151.10733743407764 62.702313277404755,143.2823094156338 62.43018665071577,140.18181818188168" stroke="#4dd2ff" stroke-linecap="round" stroke-linejoin="round" stroke-width="0.5"><title>2023-10-31 1.0km</title><desc>10133123337</desc></polyline><polyline fill="none" points="85.61820504115894,142.50910108932294 86.28844279330224,146.00002031796612 86.28844279330224,147.3091134405695 87.76296584820375,149.78184253093787 91.78439236106351,158.363643047167 92.4546301132068,159.67272798891645 92.72272521397099,159.81818181823473 89.6396315540187,153.70911179331597 88.29915605019778,149.92729708726984 86.82463299483061,146.87274916260503 84.67987218825147,140.18181818176527" stroke="#4dd2ff" stroke-linecap="round" stroke-linejoin="round" stroke-width="0.5"><title>2023-10-30 1.0km</title><desc>10127985445</desc></polyline><polyline fill="none" points="108.20326126785949,143.023937026388 108.79853819683194,147.02873305091634 109.15570435440168,148.32060078915674 111.53681207029149,153.87562124116812 112.7273659282364,157.1052762218751 114.51319671561942,159.5598100371426 114.98941825889051,159.81818181823473 115.1084736441262,159.43062413216103 114.03697517234832,157.7512065054616 112.48925515683368,154.3923664370086 109.75098128290847,149.3540942959953 108.67948281066492,145.60767744190525 107.84609511028975,143.92824660427868 107.7270397245884,141.34450371935964 107.48892895318568,140.18181818188168" stroke="#4dd2ff" stroke-linecap="round" stroke-linejoin="round" stroke-width="0.5"><title>2023-10-28 1.0km</title><desc>10115543824</desc></polyline><polyline fill="none" points="131.34920006338507,144.25456147361547 132.4215806252323,147.7454776223749 133.62800875585526,150.50911520502996 134.70038931723684,154.43638302374166 136.3089601593092,158.2181891114451 136.97919800970703,159.67272798961494 137.64943586010486,159.81818181823473 137.78348343074322,159.67272798961494 137.51538828993216,158.8000047908863 136.71110286936164,156.61819511046633 134.03015146683902,151.3818420608295 131.88539034407586,145.56365575140808 130.54491464281455,142.6545561804669 130.00872436212376,140.18181818188168" stroke="#4dd2ff" stroke-linecap="round" stroke-linejoin="round" stroke-width="0.5"><title>2023-10-27 1.0km</title><desc>10110442644</desc></polyline><polyline fill="none" points="153.83226669672877,143.21391656110063 156.36044450383633,151.7326440984616 157.2918784325011,154.3315705669811 158.22331236163154,155.91980171622708 159.28780827997252,158.9518757974729 159.68699424993247,159.52941318729427 160.48536618892103,159.81818181823473 160.61842817813158,159.38502885575872 160.48536618892103,158.80749142356217 159.15474628983065,157.07487810892053 157.1588164428249,153.60964689298999 154.76370062632486,146.53478084306698 153.16695674788207,143.9358440565411 152.3685848088935,140.18181818188168" stroke="#4dd2ff" stroke-linecap="round" stroke-linejoin="round" stroke-width="0.5"><title>2023-10-26 1.0km</title><desc>10104873905</desc></polyline><polyline fill="none" points="178.10740793356672,149.57314738538116 181.12347815092653,157.11463633237872 182.5659465151839,159.67589004477486 183.09048046544194,159.81818181823473 182.9593469784595,158.39526361203752 179.41874280991033,152.27670340589248 177.4517404944636,147.29646570247132 175.7470051543787,143.7391452115262 175.0913377162069,140.18181818188168" stroke="#4dd2ff" stroke-linecap="round" stroke-linejoin="round" stroke-width="0.5"><title>2023-10-25 1.0km</title><desc>10098978222</desc></polyline><polyline fill="none" points="17.276596646755934,162.0 17.14450594643131,163.00332264474127 17.93705014931038,166.29995055578183 18.9937757528387,168.44992227724288 19.654229254927486,171.02988521324005 20.84304555878043,174.4698304835474 23.352768866810948,179.34307589393575 24.14531306969002,181.3497028161073 24.40949447080493,181.63636363635305 24.67367587191984,181.49303323135246 24.541585171129555,179.62973700882867 23.088587466161698,176.90645471122116 22.03186186309904,175.32981585292146 20.710954857990146,172.31986540090293 20.446773457806557,170.74322283361107 18.861685052048415,168.3065909029683 17.93705014931038,166.15661902329884 17.67286874819547,163.5766496383585 17.276596646755934,162.0" stroke="#4dd2ff" stroke-linecap="round" stroke-linejoin="round" stroke-width="0.5"><title>2023-10-24 1.0km</title><desc>10092835699</desc></polyline><polyline fill="none" points="41.48854746809229,165.39046560798306 43.44139847299084,172.31264764862135 44.352728941477835,174.00787210231647 45.39424947742373,178.24592669354752 46.956530280876905,181.07129122805782 47.60748061630875,181.63636363635305 46.956530280876905,180.93002309976146 46.04519981238991,178.6697316385107 43.70177860651165,175.84436357265804 43.18101833900437,174.85548376839142 42.66025807103142,171.6063036848791 41.09797726711258,168.49838715977967 40.05645673163235,165.249196327175 39.40550639713183,162.0" stroke="#4dd2ff" stroke-linecap="round" stroke-linejoin="round" stroke-width="0.5"><title>2023-10-23 1.0km</title><desc>10087395010</desc></polyline><polyline fill="none" points="59.74634520499967,162.0941806390183 60.09351521986537,162.0 62.56710157659836,162.18836126406677 63.65200787317008,162.47090305626625 63.91238538455218,162.61217390571255 64.47653665905818,163.0359862667974 64.86710292566568,163.5068885613 65.73502796282992,165.1079537726473 66.1689904818777,166.8973748605349 66.73314175615087,167.83917342487257 66.99351926730014,168.59261127916398 67.60106679331511,169.95821513107512 68.0350293123629,171.37090570677537 68.68597309035249,172.5010559237562 68.98974685324356,172.83068269473733 69.38031312031671,173.48993572779 69.59729437949136,174.9026185136172 69.72748313518241,175.2793333969894 70.0746531500481,175.79731599980732 70.16144565399736,176.59783374378458 70.29163440945558,176.9274584063096 72.20106949168257,181.44800809194567 72.46144700306468,181.63636363635305 72.46144700306468,181.40091919706902 72.07088073622435,181.0242079141899 71.63691821764223,179.98825074371416 71.20295569859445,179.09355911187595 70.03125689830631,175.46769075555494" stroke="#4dd2ff" stroke-linecap="round" stroke-linejoin="round" stroke-width="0.5"><title>2023-10-22 1.5km</title><desc>10080655811</desc></polyline><polyline fill="none" points="85.57808832800947,162.0 86.26703179255128,162.49839189951308 85.02693355618976,162.29903518367792 86.95597525732592,164.79098991729552 87.13969351467676,165.3890576902195 87.00190482172184,165.8874470977462 86.35889092134312,166.23631946515525 86.17517266399227,166.58519165281905 86.22110222838819,167.18325784249464 86.58853874285705,168.6285822892096 87.00190482172184,169.67519462003838 87.46120046474971,171.27002934983466 88.28793262247927,172.71534508280456 88.4257213154342,173.26356748573016 88.930946522858,174.16065773402806 89.25245347316377,174.5593641300802 89.29838303709403,174.8085555084399 89.61988998763263,175.10758504166733 89.84953780914657,175.6059673037962 90.17104475945234,176.55289259238634 90.49255170952529,177.20078808034305 90.4466221453622,178.49657719855895 91.043706481345,179.64285012311302 91.22742473869585,180.19106692366768 91.54893168876879,180.7891211095266 92.1000864605885,181.4868503261241 92.37566384649836,181.63636363635305 91.31928386725485,180.14122905104887 91.08963604574092,179.3438225905993 90.63034040248021,178.3470631959499 90.4466221453622,177.69916880351957 89.84953780914657,176.8519213561085 89.34431260172278,175.406614442938" stroke="#4dd2ff" stroke-linecap="round" stroke-linejoin="round" stroke-width="0.5"><title>2023-10-20 1.4km</title><desc>10069668027</desc></polyline><polyline fill="none" points="107.34745138790458,162.0 107.44097209605388,162.7611097744084 108.18913775938563,164.5877698076656 108.3761791754514,165.7040596701554 109.91927085653879,169.45883959176717 110.05955191841349,169.9662407169235 110.15307262656279,170.72734170535114 110.34011404239573,171.23474189796252 111.46236253762618,172.80768012418412 112.07024713931605,174.02543628879357 112.44432997121476,175.24319030460902 112.77165244915523,175.9028061660938 112.95869386498816,176.91759856807766 113.19249563501216,177.42499420949025 113.80038023646921,178.9979183272808 113.89390094438568,179.6067912169965 114.78234767005779,181.43340666306904 115.01614943984896,181.63636363635305 115.15643050172366,181.63636363635305 115.24995120964013,181.58562439854722 115.20319085591473,181.5348851570743 114.26798377628438,180.36788157362025 113.84714059066027,178.94717889558524 112.95869386498816,177.32351511099841 112.81841280311346,176.66390060738195 112.72489209496416,175.5476284729084" stroke="#4dd2ff" stroke-linecap="round" stroke-linejoin="round" stroke-width="0.5"><title>2023-10-19 1.3km</title><desc>10064004415</desc></polyline><polyline fill="none" points="129.4682543403469,162.0 131.39340632082894,164.50678116001654 131.2650628555566,166.3172321569873 131.52174978610128,168.12768142367713 132.42015404440463,171.33077973301988 133.70358869759366,173.41975397372153 134.98702335171402,177.040637200349 137.55389265995473,181.21857078454923 137.9389230562374,181.63636363635305 138.3239534520544,181.49709936243016 136.65548840165138,179.825927280006 133.57524523232132,173.8375485453289 132.80518444022164,171.1915147016989 130.6233455282636,166.5957629258046" stroke="#4dd2ff" stroke-linecap="round" stroke-linejoin="round" stroke-width="0.5"><title>2023-10-18 1.0km</title><desc>10058081424</desc></polyline><polyline fill="none" points="153.0661527137272,163.19008806895 154.16290592309088,169.58679944928735 157.0418830984272,177.17357045179233 158.9612012146972,181.1900847607758 159.7837661220692,181.63636363635305 160.1950485757552,181.63636363635305 160.46923687774688,181.04132511408534 159.50957782007754,179.85124754346907 158.27573045901954,177.91736999968998 156.6306006447412,174.34712967742234 155.94512988906354,172.26448658062145 153.0661527137272,166.46282665070612 152.79196441173553,165.57026210788172 152.5177761092782,162.0" stroke="#4dd2ff" stroke-linecap="round" stroke-linejoin="round" stroke-width="0.5"><title>2023-10-17 1.0km</title><desc>10051702317</desc></polyline><polyline fill="none" points="174.706004104577,162.4531489686342 176.09803743381053,164.86994178034365 178.1860874267295,170.30771521176212 179.2997140903026,172.42240099271294 180.55254408624023,176.34966881130822 182.08378074830398,180.27692912344355 182.64059408009052,181.33426715573296 183.33661074424163,181.63636363635305 183.4758140775375,181.48531540168915 183.33661074424163,181.0321706305258 181.80537408264354,178.76644527656026 179.7173240892589,173.6307918902021 178.1860874267295,170.45876426808536 176.93325743125752,164.56784283404704 176.2372407661751,162.0" stroke="#4dd2ff" stroke-linecap="round" stroke-linejoin="round" stroke-width="0.5"><title>2023-10-16 1.0km</title><desc>10046279660</desc></polyline><polyline fill="none" points="16.88766129128635,183.81818181823473 17.462151236832142,185.06494047271553 18.036641181912273,187.8701447645435 19.329243559390306,192.2337885069428 21.0527133946307,194.88313925359398 23.063428203109652,202.3636411356274 23.781540635041893,203.1428585635731 24.78689803928137,203.4545454545878 24.930520526133478,203.1428585635731 24.78689803928137,202.20779761555605 22.919805717188865,199.5584560232237 21.91444831294939,196.44157932233065 20.765468422323465,194.57145110226702 18.036641181912273,188.18183390132617 17.031283777672797,183.81818181823473" stroke="#4dd2ff" stroke-linecap="round" stroke-linejoin="round" stroke-width="0.5"><title>2023-10-15 1.0km</title><desc>10039610121</desc></polyline><polyline fill="none" points="39.42020121961832,185.24340778426267 39.85801825020462,189.83579614944756 41.02553033269942,193.1613126466982 42.48492043465376,195.21996314299759 43.360554496757686,198.07039904419798 45.841517670080066,202.50440294819418 46.4252737108618,203.13783133239485 47.154968762770295,203.4545454545878 47.592785792425275,203.13783133239485 47.592785792425275,202.66276006156113 44.67400558758527,200.28740213694982 42.77679845504463,196.8035391094163 42.04710340406746,193.79474377818406 40.295835280790925,189.83579614944756 39.42020121961832,186.51027451839764 39.566140229813755,184.451615697355 39.42020121961832,183.81818181823473" stroke="#4dd2ff" stroke-linecap="round" stroke-linejoin="round" stroke-width="0.5"><title>2023-10-14 1.0km</title><desc>10033377496</desc></polyline><polyline fill="none" points="61.651599681936204,184.129871550831 64.236804056447,187.2467663543066 64.52404898684472,189.58443444920704 66.96563089545816,197.06495502928738 69.26359033910558,202.51948464405723 69.98170266486704,203.4545454545878 70.55619252612814,203.4545454545878 70.55619252612814,202.98701510112733 70.41257006023079,202.51948464405723 69.11996787320822,201.58442342106719 67.68374322168529,198.9350810496835 66.10389610379934,193.94807466259226 63.23144679982215,187.55845558235887 62.80057940399274,185.3766300220741 62.082467077765614,183.81818181823473" stroke="#4dd2ff" stroke-linecap="round" stroke-linejoin="round" stroke-width="0.5"><title>2023-10-13 1.0km</title><desc>10028006924</desc></polyline><polyline fill="none" points="84.48800837807357,183.81818181823473 85.86941504152492,185.6169405542314 86.69825903931633,187.11590495484415 86.83639970608056,189.06455702870153 86.69825903931633,191.16310333297588 88.21780636906624,194.31091873976402 90.01363503141329,199.10758049006108 91.809463694226,202.40527889772784 92.2238856931217,203.00485985376872 92.91458902461454,203.4545454545878 92.91458902461454,202.70506939769257 91.39504169486463,200.756430360605 90.01363503141329,198.3581028355984 88.21780636906624,193.41154340514913 87.11268103867769,191.46289548603818 86.56011837348342,189.8140380998375" stroke="#4dd2ff" stroke-linecap="round" stroke-linejoin="round" stroke-width="0.5"><title>2023-10-12 1.0km</title><desc>10021974100</desc></polyline><polyline fill="none" points="109.00288513675332,186.60245410341304 109.5430771750398,189.53326283406932 109.4080291655846,190.70558511989657 110.62346125068143,194.66216774319764 111.56879731733352,196.42064638785087 112.51413338491693,199.6445198743604 113.86461347946897,202.8683881467441 114.13470949884504,203.16146682202816 114.80994954658672,203.4545454545878 114.67490153666586,202.8683881467441 113.18937343219295,199.05836144660134 111.56879731733352,196.2741065598093 109.4080291655846,191.29174600390252 108.86783712683246,189.38672249997035 108.59774110838771,186.60245410341304 107.78745305072516,183.81818181823473" stroke="#4dd2ff" stroke-linecap="round" stroke-linejoin="round" stroke-width="0.5"><title>2023-10-10 1.0km</title><desc>10009069592</desc></polyline><polyline fill="none" points="130.56955415057018,186.27273801004048 131.50098807923496,188.87167651590426 132.4324220083654,192.3369225076167 134.4283518558368,196.6684713989962 136.02509573334828,202.15508628054522 136.95652966201305,203.4545454545878 137.2226536422968,203.02139249211177 137.355715631973,201.43316414533183 136.42428170284256,198.68985761201475 134.4283518558368,195.22462282993365 132.16629802901298,188.87167651590426 131.50098807923496,185.98396685230546 130.43649216042832,183.81818181823473" stroke="#4dd2ff" stroke-linecap="round" stroke-linejoin="round" stroke-width="0.5"><title>2023-10-09 1.0km</title><desc>10003389142</desc></polyline><polyline fill="none" points="152.49545713420957,183.81818181823473 153.4774341704324,185.03594622015953 154.45941120618954,187.31925254268572 155.0205409405753,191.88585763401352 157.1247774460353,196.4524526532041 158.94844908313826,201.62791483278852 159.79014368494973,203.15010712959338 160.49155585328117,203.4545454545878 160.49155585328117,202.23679188604 157.82618961390108,197.97464875481091 154.31912877270952,189.45033617177978 152.91630443558097,183.97040240792558" stroke="#4dd2ff" stroke-linecap="round" stroke-linejoin="round" stroke-width="0.5"><title>2023-10-08 1.0km</title><desc>9996447828</desc></polyline><polyline fill="none" points="176.57033538213,187.74547071452253 177.2166363336146,190.12989217124414 179.15553918574005,195.31950504076667 179.80184013722464,197.5636575849494 181.87000317964703,202.75325023324694 182.51630413066596,203.4545454545878 182.64556432096288,202.89350929833017 182.64556432096288,202.33247297722846 180.18962070764974,197.98443589312956 179.0262789959088,195.45976465183776 176.95811595302075,189.28833199723158 176.31181500153616,186.06234789139125 175.53625386068597,183.81818181823473" stroke="#4dd2ff" stroke-linecap="round" stroke-linejoin="round" stroke-width="0.5"><title>2023-10-07 1.0km</title><desc>9989974159</desc></polyline><polyline fill="none" points="19.30479806335643,211.4855145162437 20.331545484717935,214.8278783382848 21.101606050506234,216.49905803822912 22.641727182548493,223.044497666182 23.026757465675473,224.29787714208942 23.796818031929433,225.2727272727061 24.438535169698298,225.2727272727061 24.695222024805844,224.715670116595 24.566878597717732,224.29787714208942 23.026757465675473,222.06964638864156 21.486636333633214,218.72729534399696 20.97326262295246,216.49905803822912 18.278050642460585,209.9535957936896 17.893020359333605,207.5860826028511 17.122959793545306,205.63636363635305" stroke="#4dd2ff" stroke-linecap="round" stroke-linejoin="round" stroke-width="0.5"><title>2023-10-06 1.0km</title><desc>9984428862</desc></polyline><polyline fill="none" points="39.279045541770756,205.63636363635305 41.5040181549266,211.59167285484727 42.98733323067427,216.58124378195498 45.50896885897964,222.8584297640482 46.54728941153735,224.95082109270152 46.99228393472731,225.2727272727061 47.58560996502638,225.2727272727061 47.733941472135484,224.95082109270152 47.28894694894552,224.1460554334335 45.50896885897964,221.57080333784688 44.470648306421936,219.47840877925046 42.69067021552473,214.81075217411853 41.94901267811656,212.39644312835298 39.872371572069824,208.53354311734438 39.872371572069824,207.0849538560724" stroke="#4dd2ff" stroke-linecap="round" stroke-linejoin="round" stroke-width="0.5"><title>2023-10-04 1.0km</title><desc>9971682885</desc></polyline><polyline fill="none" points="63.13185556232929,207.92967177950777 63.792309015989304,210.22297722520307 64.45276246918365,211.79962315422017 64.98112523276359,214.23625526379328 67.49084835592657,219.25284119462594 67.62293904740363,220.97281054221094 68.41548319160938,224.41274468542542 68.67966457270086,224.842736026505 69.47220871737227,225.2727272727061 69.47220871737227,223.83942274970468 67.75502973841503,220.68614908971358 66.56621352164075,217.96286318823695 65.90576006751508,216.6728843281744 65.24530661385506,214.80958002363332 63.9243997070007,212.08628591359593 63.39603694342077,209.93631419201847 63.13185556232929,207.7863400997594 62.73558349022642,205.63636363635305" stroke="#4dd2ff" stroke-linecap="round" stroke-linejoin="round" stroke-width="0.5"><title>2023-10-03 1.0km</title><desc>9965060084</desc></polyline><polyline fill="none" points="85.11192258261144,206.44778708112426 86.9066106416285,212.2900270796381 87.2057253178209,214.8865732268896 88.25262668635696,216.18484515487216 89.00041337776929,218.13225161540322 90.34642942249775,223.16304368712008 91.39333079010248,224.7858773933258 92.14111748151481,225.2727272727061 92.29067482054234,225.1104439913761 91.84200280532241,223.81217731256038 90.19687208440155,220.72879089042544 87.50483999401331,214.23743697616737 85.85970927309245,209.36890901299194 85.56059459690005,205.63636363635305" stroke="#4dd2ff" stroke-linecap="round" stroke-linejoin="round" stroke-width="0.5"><title>2023-10-02 1.0km</title><desc>9958643020</desc></polyline><polyline fill="none" points="108.18611443182454,209.09237672155723 108.4756573960185,210.50619864545297 111.66063000401482,218.0465664388612 113.25311630778015,222.91637316404376 114.12174520129338,224.6443664309336 114.99037409387529,225.2727272727061 115.1351455762051,225.11563707957976 114.99037409387529,224.48727619170677 112.09494445007294,220.0887448041467 109.34428628906608,213.3338396861218 108.04134294949472,209.24946809280664 107.46225702064112,205.63636363635305" stroke="#4dd2ff" stroke-linecap="round" stroke-linejoin="round" stroke-width="0.5"><title>2023-10-01 1.0km</title><desc>9952075403</desc></polyline><polyline fill="none" points="131.07673287391663,208.48222578293644 132.25693469727412,210.9012053173501 132.78146884031594,213.3201818286907 133.17486944794655,215.59686284209602 135.14187248703092,221.14626159286126 136.8466084538959,224.7035601157695 137.63340966915712,225.2727272727061 137.89567674137652,224.8458519205451 135.27300602337345,220.8616774288239 134.09280420001596,218.15812578098848 133.6994035919197,216.73520234436728 131.8635340896435,212.75101115682628 130.81446580169722,208.33993277477566 129.89653105055913,205.63636363623664" stroke="#4dd2ff" stroke-linecap="round" stroke-linejoin="round" stroke-width="0.5"><title>2023-09-30 1.0km</title><desc>9945549317</desc></polyline><polyline fill="none" points="153.45330715598539,205.63636363635305 154.75624972907826,207.83564533735625 155.19056392041966,209.56365080014803 156.34873509639874,212.39129308855627 156.9278206853196,216.63274950475898 157.36213487619534,217.88947571488097 159.09939164062962,222.13092121726368 159.53370583150536,224.80145665886812 159.82324862573296,225.11563707957976 160.25756281707436,225.2727272727061 160.4023342137225,224.95854687481187 157.79644906753674,220.2458353670081 156.0591923026368,216.161476985435 155.48010671464726,213.80511282931548 153.45330715598539,209.0923767220229 152.58467877330258,206.26473006757442" stroke="#4dd2ff" stroke-linecap="round" stroke-linejoin="round" stroke-width="0.5"><title>2023-09-28 1.0km</title><desc>9933629332</desc></polyline><polyline fill="none" points="175.2522700354457,207.8677781916922 176.3490240513347,211.7355575923575 178.40543783083558,214.56200709415134 179.7763803503476,219.61985424347222 181.69569987803698,223.0413319109939 182.24407688621432,224.9752080332255 182.79245389346033,225.2727272727061 183.06664239801466,224.82644839701243 182.79245389346033,224.23140974331181 181.69569987803698,222.74381234310567 178.54253208264709,216.34713106090203 176.89740105858073,211.8843181906268 175.1151757836342,205.63636363623664" stroke="#4dd2ff" stroke-linecap="round" stroke-linejoin="round" stroke-width="0.5"><title>2023-09-27 1.0km</title><desc>9927137811</desc></polyline><polyline fill="none" points="22.540350581984967,227.45454545452958 22.148848260520026,229.3426834429847 21.757345939055085,230.42836027150042 21.452844133600593,231.7500513236737 19.669333557831123,235.4790935513447 18.755828141234815,237.03678832110018 18.58182710921392,237.69762738444842 18.668827624991536,238.21685760002583 18.88632891490124,238.9721008001361 19.538832783931866,240.5769896506099 19.756334073841572,241.00181249820162 20.017335621407256,241.7570524222101 20.887340780114755,242.8427082564449 21.278843101579696,243.6923506720923 21.713845681166276,244.3531828848063 22.06184774474241,245.2972277229419 22.583850840106606,246.00526044052094 23.23635470913723,247.09090909088263" stroke="#4dd2ff" stroke-linecap="round" stroke-linejoin="round" stroke-width="0.5"><title>2023-09-26 1.0km</title><desc>9920397094</desc></polyline><polyline fill="none" points="43.414789902511984,227.45454545452958 42.55888959998265,230.3071518392535 41.702989297453314,231.83296085434267 40.90822473075241,232.82805230014492 40.48027457972057,233.6241246665595 40.29686737200245,234.42019633046584 40.35800310759805,235.41528492275393 40.66368178743869,236.21135500638047 41.397310618078336,237.3391197558958 41.702989297453314,238.46688309579622 42.31434665620327,239.92633944307454 43.475925638340414,241.38579342979938 45.43226918694563,245.36611048603663 46.716119640972465,247.09090909088263" stroke="#4dd2ff" stroke-linecap="round" stroke-linejoin="round" stroke-width="0.5"><title>2023-09-25 1.0km</title><desc>9914573673</desc></polyline><polyline fill="none" points="67.5515858058352,227.45454545447137 67.06902257190086,228.18764609313803 66.97250992502086,228.5541961294366 67.06902257190086,229.02547447034158 67.11727889534086,229.4967524993117 66.15215242723934,231.27713334967848 65.91087081003934,232.48150610696757 65.573076546425,233.37169335759245 63.5463109635748,236.93243123288266 63.4980546401348,237.3513404005207 63.69107993366197,238.18915799702518 64.22189949126914,239.0269746078411 64.51143743167631,239.76006333372789 64.94574434217066,240.49315130501054 65.18702595913783,241.22623852163088 65.81435816339217,242.221141394577 66.29692139732651,243.21604287769878 66.82774095493369,243.79203783796402 66.97250992502086,244.31566921569174 67.31030418886803,244.73457404068904 68.03414904000238,245.9912870376138 68.56496859737672,246.56727975339163 68.70973756746389,247.09090909088263" stroke="#4dd2ff" stroke-linecap="round" stroke-linejoin="round" stroke-width="0.5"><title>2023-09-24 1.0km</title><desc>9907510217</desc></polyline><polyline fill="none" points="89.43334389547817,227.45454545447137 89.0233985867817,228.0900334637845 88.73058050917462,228.7255210057483 88.55488966265693,229.5516541118268 88.49632604699582,230.63198082806775 87.50074458285235,231.96650020167 86.91510842763819,233.49166267656256 86.38803588761948,234.2542429046589 86.03665419435129,235.27101549570216 85.97809057869017,236.3513350628782 87.20792650524527,239.4651897896547 87.67643542937003,240.41840838169446 89.19908943353221,242.83322410978144 89.84328920440748,244.42191498843022 90.66317982180044,245.43867561820662 91.13168874639086,246.26479274930898 91.42450682399794,247.09090909088263" stroke="#4dd2ff" stroke-linecap="round" stroke-linejoin="round" stroke-width="0.5"><title>2023-09-23 1.0km</title><desc>9901004991</desc></polyline><polyline fill="none" points="112.05270826467313,227.45454545452958 111.66174168977886,228.1818265238544 111.2707751148846,229.45456685096724 110.37713722931221,231.33337040868355 109.48349934397265,232.6061058694031 108.70156619418412,234.72732727008406 108.64571382617578,235.87884517293423 108.75741856219247,236.5455126974266 109.87446591886692,239.21217740292195 110.04202302219346,240.00005396042252 110.26543249352835,240.42429487174377 111.04736564331688,241.39398756361334 111.66174168977886,242.60610182397068 112.16441300022416,243.87881987943547 113.0021985177882,245.09093048621435 113.9516887711361,247.09090909088263" stroke="#4dd2ff" stroke-linecap="round" stroke-linejoin="round" stroke-width="0.5"><title>2023-09-22 1.0km</title><desc>9895405405</desc></polyline><polyline fill="none" points="134.9370327568613,227.45454545447137 134.77688985527493,228.03379622573266 134.4566040521022,228.38134648406412 133.76265147794038,229.65569611924002 133.49574664211832,230.58249455911573 132.69503213372082,232.6098623450962 131.84093665820546,234.34760200895835 131.30712698586285,235.62194199307123 131.14698408427648,236.25911121198442 131.14698408427648,236.66458226484247 131.30712698586285,237.24382626404986 131.62741278926842,237.82306983741 132.32136536343023,239.6187222081935 133.01531793712638,240.89305366569897 133.3889847076498,241.81983888568357 134.08293728134595,242.97831887751818 134.5099850189872,243.49963431817014 134.83027082239278,244.42641647183336 135.68436629790813,245.93243514624191 136.645223707892,247.09090909088263" stroke="#4dd2ff" stroke-linecap="round" stroke-linejoin="round" stroke-width="0.5"><title>2023-09-21 1.0km</title><desc>9889267953</desc></polyline><polyline fill="none" points="158.49273247038946,227.45454545447137 157.79197284951806,229.55687436508015 157.37976130796596,231.21189414069522 156.72022284101695,232.59852886438603 155.93702091183513,234.9244896901073 154.57672282448038,237.47409037820762 154.2057324370835,238.86071082780836 154.24695359100588,239.1738182338304 154.49428051593713,239.84476213267772 155.03015552042052,241.00772980455076 155.3599247536622,241.99177763657644 156.18434783699922,243.1547412039945 156.67900168709457,244.09405630873516 156.96754976618104,244.76499478134792 157.2973189994227,245.34647419233806 157.83319400367327,245.74903653596994 158.49273247038946,246.73307669896167 158.53395362454467,246.9119929212029 158.78128054970875,247.09090909088263" stroke="#4dd2ff" stroke-linecap="round" stroke-linejoin="round" stroke-width="0.5"><title>2023-09-20 1.0km</title><desc>9882714971</desc></polyline><polyline fill="none" points="180.7190942110028,227.45454545452958 180.3004180372227,228.51462055841694 179.50958526460454,230.83668411325198 179.46306568966247,231.59387705259724 179.18394824047573,231.99771294544917 178.85831121657975,232.75490460416768 178.6722329170443,233.46161606558599 178.30007631797343,234.42072331369855 177.23012609616853,236.13701715046773 176.9510086469818,237.1465997560881 176.8579694973305,238.05522283178288 176.9510086469818,238.96384470484918 177.23012609616853,239.97342315351125 177.5557631200645,240.6801271843724 178.57919376716018,242.44688407873036 179.09090909082443,243.1535855633556 179.55610483931378,244.41555069119204 180.02130058803596,245.2232071555918 180.4864963365253,245.8794273334206 180.99821165995672,246.38421165884938 181.32384868431836,247.09090909088263" stroke="#4dd2ff" stroke-linecap="round" stroke-linejoin="round" stroke-width="0.5"><title>2023-09-19 1.0km</title><desc>9876194288</desc></polyline><polyline fill="none" points="20.764552678447217,249.2727272727643 20.417660924838856,249.83735745755257 19.839508002623916,250.96661670639878 19.66606212593615,251.71945537504507 18.6253868653439,253.53881274879677 17.815972773823887,255.23269371298375 17.642526897136122,255.86005617969204 17.700342189520597,256.5501543600694 18.04723394312896,257.42846032819944 18.567571573192254,258.36950143345166 19.030093911103904,259.6869572373107 19.66606212593615,261.06714685005136 20.35984563268721,262.32186274259584 20.995813847519457,263.13742708339123 21.747412646654993,264.39213993167505 22.209934984333813,265.835057426244 23.019349076086655,267.0897663079086 23.42405612184666,268.2190027239849 24.175654920982197,268.90909090911737" stroke="#4dd2ff" stroke-linecap="round" stroke-linejoin="round" stroke-width="0.5"><title>2023-09-18 1.0km</title><desc>9870505463</desc></polyline><polyline fill="none" points="43.70380376232788,249.2727272727643 43.42193196807057,249.82328583922936 43.027311456622556,251.65847842936637 42.519942227518186,252.5149002528051 42.29444479197264,253.18780249543488 41.05420889845118,255.2065059581655 40.603214028058574,256.307614873338 40.32134223403409,257.2863771299599 40.54683966911398,257.95927551347995 41.78707556263544,260.6508636053768 42.407193509628996,261.6296207527048 42.8581883800216,262.66954896005336 43.59105504467152,263.6483037326252 43.98567555635236,264.3211969708209 44.49304478545673,265.91166973434156 46.69164477894083,268.90909090911737" stroke="#4dd2ff" stroke-linecap="round" stroke-linejoin="round" stroke-width="0.5"><title>2023-09-16 1.0km</title><desc>9856514700</desc></polyline><polyline fill="none" points="65.8324532569386,249.2727272727643 65.22924693045206,251.10547287203372 64.44507870567031,252.34911952260882 62.8164216238074,255.49095595336985 62.7561009908095,256.2109585738508 62.8164216238074,257.0618700106861 63.178345419699326,257.912780634244 63.7815517464187,258.8291450116085 64.32443744014017,260.07278087211307 65.2895675629843,261.70914119959343 66.49598021642305,264.0000406051986 66.61662148172036,264.85094459721586 67.03886591037735,265.17821514682146 67.52143097179942,265.83275588508695 68.30559919611551,267.14183591800975 69.1500880534295,267.86182911565993 69.33104995149188,268.3200063018594 69.45169121702202,268.90909090911737" stroke="#4dd2ff" stroke-linecap="round" stroke-linejoin="round" stroke-width="0.5"><title>2023-09-15 1.0km</title><desc>9850671982</desc></polyline><polyline fill="none" points="89.20050331344828,249.2727272727643 88.2020940897055,251.91350399161456 87.07888371264562,253.53859359305352 86.57967910100706,254.4188492631656 85.83087218296714,256.31478169490583 85.64367045345716,256.9918994746404 85.64367045345716,257.5335933396127 85.83087218296714,258.2107102231821 86.57967910100706,260.24205788661493 87.2660854421556,261.5962871729862 88.95090100751258,264.50787339551607 89.63730734889396,265.79438530578045 89.76210850174539,266.5392071692622 90.26131311384961,267.0131844050484 91.07252060808241,268.29969281551894 91.75892694946378,268.90909090911737" stroke="#4dd2ff" stroke-linecap="round" stroke-linejoin="round" stroke-width="0.5"><title>2023-09-14 1.0km</title><desc>9844236351</desc></polyline><polyline fill="none" points="108.17787957354449,249.2727272727643 108.53711085137911,249.56508434808347 108.67182258050889,249.85744129441446 108.76163039985113,250.4908809022163 109.03105385811068,251.02686778991483 109.210669497028,252.537373958854 109.210669497028,253.26826280454407 109.12086167768575,253.65806985925883 109.210669497028,254.14532835537102 109.43518904550001,254.73003807774512 109.34538122615777,255.21729578560917 109.3902851359453,255.4609245051397 109.83932423312217,256.2892614818411 110.2434594205115,257.5074022138142 110.60269069811329,258.189560045721 111.05172979529016,258.8229916894343 111.54567280202173,259.26152093417477 111.6803845311515,259.55387360288296 111.81509626051411,260.1873039426282 112.1743275381159,260.82073367695557 112.57846272550523,261.9901408266742 113.11730964202434,263.0133703900501 113.38673310028389,263.8904230442131 113.52144482941367,264.62129936920246 113.79086828767322,265.20599984913133 114.28481129463762,266.81392350868555 114.9583699402865,268.0807697052369 115.00327385030687,268.2756689051748 114.9583699402865,268.4218432675116 114.4195230237674,268.90909090911737 114.68894648202695,268.71419189544395 114.82365821115673,268.4218432675116 114.91346603049897,268.1782193123945 114.86856212117709,267.8371456247405 114.59913866268471,267.4960717615322 113.79086828767322,265.7419748356333 113.38673310028389,264.4263990946929 112.53355881595053,262.52611841395264 112.12942362832837,260.67455763818 111.90490407985635,260.1385785534512 111.05172979529016,259.0178936118609 110.19855551072396,257.4099510376691 109.7944203231018,256.09435875696363 109.65970859443769,255.21729578560917 109.30047731637023,254.29150583437877 108.58201476116665,252.73227772989776 108.4023991220165,252.0013882930507 107.77374438615516,250.83196351729566 107.63903265702538,250.19852423545672 107.59412874723785,249.41890582657652" stroke="#4dd2ff" stroke-linecap="round" stroke-linejoin="round" stroke-width="0.5"><title>2023-09-13 1.0km</title><desc>9837636972</desc></polyline></svg>