<?xml version="1.0" encoding="utf-8" ?>
<svg baseProfile="full" height="300mm" version="1.1" viewBox="0,0,200,300" width="200mm" xmlns="http://www.w3.org/2000/svg" xmlns:ev="http://www.w3.org/2001/xml-events" xmlns:xlink="http://www.w3.org/1999/xlink"><defs /><rect fill="#222222" height="300" width="200" x="0" y="0" /><text fill="#FFFFFF" style="font-size:12px; font-family:Arial; font-weight:bold;" x="10" y="20">Over 1km Runs</text><text fill="#FFFFFF" style="font-size:4px; font-family:Arial" x="10" y="280">ATHLETE</text><text fill="#FFFFFF" style="font-size:9px; font-family:Arial" x="10" y="290">Jiakai</text><text fill="#FFFFFF" style="font-size:4px; font-family:Arial" x="120" y="280">STATISTICS</text><text fill="#FFFFFF" style="font-size:3px; font-family:Arial" x="120" y="285">Number: 23</text><text fill="#FFFFFF" style="font-size:3px; font-family:Arial" x="120" y="290">Weekly: 5.8</text><text fill="#FFFFFF" style="font-size:3px; font-family:Arial" x="141" y="285">Total: 23.4 km</text><text fill="#FFFFFF" style="font-size:3px; font-family:Arial" x="141" y="290">Avg: 1.0 km</text><text fill="#FFFFFF" style="font-size:3px; font-family:Arial" x="167" y="285">Min: 1.0 km</text><text fill="#FFFFFF" style="font-size:3px; font-family:Arial" x="167" y="290">Max: 1.0 km</text><polyline fill="none" points="22.670242841355503,32.0 24.470534074120224,34.23256807005964 26.270825306884944,38.41862966143526 27.299563152715564,46.790738995419815 31.15733007900417,55.16282986407168 34.50072808098048,64.651177193271 36.04383485112339,67.4418630709406 37.32975715957582,68.0 37.32975715957582,65.76745179109275 32.443252387456596,57.95352271711454 26.01364084519446,42.32561631477438 23.44179622642696,32.27907108119689" stroke="#4dd2ff" stroke-linecap="round" stroke-linejoin="round" stroke-width="0.5"><title>2023-10-08 1.0km</title><desc>9996447828</desc></polyline><polyline fill="none" points="72.04561486747116,39.20002964325249 73.23049994464964,43.57146898075007 76.78515517432243,53.08575924136676 77.9700402515009,57.20003890572116 81.76167249586433,66.71429209434427 82.94655757304281,68.0 83.18353458773345,66.97143371356651 83.18353458773345,65.94286712491885 78.68097129743546,57.971465804148465 76.54817815963179,53.342901861760765 72.75654591340572,42.02860866161063 71.57166083622724,36.11430446780287 70.14979874435812,32.0" stroke="#4dd2ff" stroke-linecap="round" stroke-linejoin="round" stroke-width="0.5"><title>2023-10-07 1.0km</title><desc>9989974159</desc></polyline><polyline fill="none" points="120.39212978258729,42.72344327974133 122.27450005430728,48.85111028701067 123.68627775926143,51.91493973671459 126.5098331682384,63.91491238796152 127.21572201978415,66.2127747607883 128.6274997247383,68.0 129.80398114398122,68.0 130.27457371167839,66.97872854722664 130.03927742876112,66.2127747607883 127.21572201978415,62.127685045823455 124.39216661080718,56.000041464110836 123.45098147541285,51.91493973671459 118.5097595108673,39.914925621822476 117.80387065839022,35.57448477204889 116.3920929543674,32.0" stroke="#4dd2ff" stroke-linecap="round" stroke-linejoin="round" stroke-width="0.5"><title>2023-10-06 1.0km</title><desc>9984428862</desc></polyline><polyline fill="none" points="162.24967873096466,32.0 166.32879518903792,42.918066900689155 169.04820616077632,52.06561360019259 173.67120481282473,63.57378790085204 175.57479249313474,67.40983866993338 176.39061578456312,68.0 177.47838017344475,68.0 177.75032126996666,67.40983866993338 176.93449797760695,65.93443496129476 173.67120481282473,61.21313945297152 171.76761713251472,57.37708276207559 168.50432396586984,48.81971231917851 167.1446184804663,44.393479068763554 163.3374431207776,37.31149571505375 163.3374431207776,34.65574873611331" stroke="#4dd2ff" stroke-linecap="round" stroke-linejoin="round" stroke-width="0.5"><title>2023-10-04 1.0km</title><desc>9971682885</desc></polyline><polyline fill="none" points="24.55125900823623,76.2043982623145 25.76209033932537,80.40879157953896 26.972921670414507,83.29930911608972 27.94158673658967,87.76646798360161 32.54274579603225,96.96354219014756 32.78491206280887,100.1168193272315 34.237909661605954,106.42336525651626 34.72224219329655,107.21168271522038 36.175239792093635,108.0 36.175239792093635,105.37227504118346 33.027078330516815,99.59127333108336 30.847581933252513,94.59858251176775 29.63675060030073,92.23362126830034 28.425919268280268,88.81756337662227 26.00425660610199,83.82485750829801 25.035591539926827,79.8832426853478 24.55125900823623,75.94162351614796 23.824760208837688,72.0" stroke="#4dd2ff" stroke-linecap="round" stroke-linejoin="round" stroke-width="0.5"><title>2023-10-03 1.0km</title><desc>9965060084</desc></polyline><polyline fill="none" points="70.08614378143102,73.4876096486114 73.37640522327274,84.1983829792589 73.92478213086724,88.95871758251451 75.84410130605102,91.3388827838935 77.21504357364029,94.90912796137854 79.68273965455592,104.13224675972015 81.60205882973969,107.10744188772514 82.97300109732896,108.0 83.24718955159187,107.70248065097257 82.42462419066578,105.32232507318258 79.40855120215565,99.66944996570237 74.47315903753042,87.76863445620984 71.45708604902029,78.84299985715188 70.90870914235711,72.0" stroke="#4dd2ff" stroke-linecap="round" stroke-linejoin="round" stroke-width="0.5"><title>2023-10-02 1.0km</title><desc>9958643020</desc></polyline><polyline fill="none" points="117.6269240770489,78.33602398936637 118.15775284450501,80.9280308499001 123.99686929304153,94.75203847116791 126.91642751637846,103.68001746712252 128.50891382060945,106.84800512320362 130.10140012390912,108.0 130.36681450903416,107.71200131229125 130.10140012390912,106.56000635121018 124.79311244376004,98.49603214068338 119.750239148736,86.11203942424618 117.36150969285518,78.62402483657934 116.29985215701163,72.0" stroke="#4dd2ff" stroke-linecap="round" stroke-linejoin="round" stroke-width="0.5"><title>2023-10-01 1.0km</title><desc>9952075403</desc></polyline><polyline fill="none" points="164.8311531264335,77.2174139355775 166.99485646933317,81.65220974874683 167.95650239754468,86.08700001938269 168.6777368457988,90.26091521070339 172.28390908334404,100.43481292040087 175.40925835631788,106.95652687898837 176.85172725003213,108.0 177.3325502164662,107.21739518782124 172.52432056702673,99.91307528619654 170.36061722412705,94.95656393188983 169.63938277587295,92.34787096478976 166.27362202107906,85.04352045431733 164.35033016093075,76.95654342044145 162.6674497835338,72.0" stroke="#4dd2ff" stroke-linecap="round" stroke-linejoin="round" stroke-width="0.5"><title>2023-09-30 1.0km</title><desc>9945549317</desc></polyline><polyline fill="none" points="24.42630121484399,112.0 26.815029266290367,116.03201645193622 27.611271949484944,119.20002646720968 29.734585772268474,124.38403732911684 30.796242685057223,132.16004075901583 31.592485369183123,134.46403881069273 34.77745610289276,142.2400222318247 35.57369878701866,147.13600387470797 36.10452724341303,147.7120013127569 36.90076992660761,148.0 37.166184154339135,147.4240026040934 32.3887280523777,138.78403150639497 29.203757317736745,131.2960411401 28.14210040587932,126.97604018705897 24.42630121484399,118.33602399053052 22.833815846592188,113.15200512413867" stroke="#4dd2ff" stroke-linecap="round" stroke-linejoin="round" stroke-width="0.5"><title>2023-09-28 1.0km</title><desc>9933629332</desc></polyline><polyline fill="none" points="69.62916173133999,116.09092668490484 71.63987742736936,123.18185558612458 75.40996935591102,128.3636796725914 77.92336397618055,137.63639944652095 81.44211644306779,143.90910850348882 82.44747429154813,147.45454806112684 83.45283213816583,148.0 83.95551106333733,147.18182206130587 83.45283213816583,146.09091786271892 81.44211644306779,143.36365596251562 75.66130881756544,131.63640694506466 72.64523527398705,123.45458334963769 69.37782226968557,112.0" stroke="#4dd2ff" stroke-linecap="round" stroke-linejoin="round" stroke-width="0.5"><title>2023-09-27 1.0km</title><desc>9927137811</desc></polyline><polyline fill="none" points="126.32397606689483,112.0 125.60622181044891,115.46158631215803 124.88846755446866,117.45199383108411 124.33021424431354,119.87509409338236 121.06044485559687,126.71167151082773 119.3856849251315,129.56744525535032 119.06668303348124,130.77898353815544 119.22618397884071,131.73090560012497 119.62493634363636,133.11551813362166 120.82119343662634,136.0578143594321 121.219945801422,136.83665624679998 121.69844863889739,138.22126277396455 123.29345809668303,140.2116318034241 124.01121235266328,141.76930956554133 124.80871708178893,142.98083528876305 125.44672086508945,144.7115841587074 126.40372653957456,146.00964414095506 127.5999836330302,148.0" stroke="#4dd2ff" stroke-linecap="round" stroke-linejoin="round" stroke-width="0.5"><title>2023-09-26 1.0km</title><desc>9920397094</desc></polyline><polyline fill="none" points="169.83187672588974,112.0 168.26272617140785,117.22977837198414 166.69357561692595,120.02709489967674 165.23650724440813,121.85142921702936 164.45193196740001,123.31089522200637 164.11568542011082,124.7703599393135 164.22776760160923,126.59468902507797 164.7881785146892,128.05415084504057 166.13316470431164,130.12171955255326 166.69357561692595,132.1892856756458 167.81439744122326,134.86495564563666 169.94395890831947,137.54062128800433 173.53058874746785,144.8378692244878 175.88431457942352,148.0" stroke="#4dd2ff" stroke-linecap="round" stroke-linejoin="round" stroke-width="0.5"><title>2023-09-25 1.0km</title><desc>9914573673</desc></polyline><polyline fill="none" points="32.65409778710455,152.0 31.769398524891585,153.34401783754583 31.59245867235586,154.01602623739745 31.769398524891585,154.88003652915359 31.857868451159447,155.74404624884482 30.088469926267862,159.0080778079573 29.64612029492855,161.21609452960547 29.026830811984837,162.8481044890359 25.311093909665942,169.37612392706797 25.22262398339808,170.14412406773772 25.576503688003868,171.68012299470138 26.549672876950353,173.21612011443358 27.080492434557527,174.56011611199938 27.876721770502627,175.90411072596908 28.31907140184194,177.2481039565755 29.469180442858487,179.0720925569767 30.353879704605788,180.89607860927936 31.327048894017935,181.95206936972681 31.59245867235586,182.91206022899132 32.2117481562309,183.68005240801722 33.53879704978317,185.98402623576112 34.511966238263994,187.0400128812762 34.77737601706758,188.0" stroke="#4dd2ff" stroke-linecap="round" stroke-linejoin="round" stroke-width="0.5"><title>2023-09-24 1.0km</title><desc>9907510217</desc></polyline><polyline fill="none" points="78.00874952226877,152.0 77.25718312291428,153.16506135032978 76.72034998098388,154.3301218439592 76.39825009554625,155.8446992051322 76.29088346660137,157.8252981848782 74.46565078245476,160.27191703638528 73.39198449766263,163.0680482403841 72.42568484134972,164.46611199190374 71.78148507047445,166.33019507548306 71.67411844152957,168.31078094861005 73.9288176400587,174.01951461436693 74.7877506678924,175.7670820330968 77.57928300881758,180.19424420129508 78.76031592162326,183.1068441455718 80.2634487207979,184.97090530011337 81.1223817486316,186.48545337375253 81.65921489149332,188.0" stroke="#4dd2ff" stroke-linecap="round" stroke-linejoin="round" stroke-width="0.5"><title>2023-09-23 1.0km</title><desc>9901004991</desc></polyline><polyline fill="none" points="124.71567943738773,152.0 123.99890738353133,153.3333486272022 123.28213532967493,155.66670589346904 121.64379920624197,159.11117908265442 120.005463082809,161.44452742720023 118.5719189750962,165.33343332854565 118.46952296700329,167.44454948371276 118.6743149831891,168.66677327873185 120.7222351366654,173.5556585721206 121.02942316001281,175.0000989275286 121.4390071905218,175.77787393156905 122.87255129823461,177.55564386665355 123.99890738353133,179.77785334398504 124.92047145264223,182.11116977897473 126.45641156844795,184.33337255811784 128.19714369950816,188.0" stroke="#4dd2ff" stroke-linecap="round" stroke-linejoin="round" stroke-width="0.5"><title>2023-09-22 1.0km</title><desc>9895405405</desc></polyline><polyline fill="none" points="171.90836957842112,152.0 171.61477425834164,153.06195974734146 171.02758361957967,153.69913522084244 169.75533723365515,156.03544288536068 169.26601170096546,157.73457335843705 167.79803510196507,161.45141429943033 166.23219339735806,164.6372703498928 165.25354233104736,166.9735603206791 164.95994701143354,168.14170388877392 164.95994701143354,168.88506748562213 165.25354233104736,169.94701481750235 165.84073297074065,171.00896136870142 167.11297935666516,174.30099071515724 168.38522574165836,176.63726505392697 169.07028148742393,178.33637129049748 170.34252787288278,180.4602512755664 171.1254487251863,181.4159962501144 171.71263936487958,183.11509686510544 173.27848106995225,185.87613110162783 175.0400529881008,188.0" stroke="#4dd2ff" stroke-linecap="round" stroke-linejoin="round" stroke-width="0.5"><title>2023-09-21 1.0km</title><desc>9889267953</desc></polyline><polyline fill="none" points="33.66524762427434,192.0 32.380521652754396,195.85426966939121 31.62480049347505,198.8884725914104 30.415646637324244,201.4306362514617 28.979776434134692,205.6948977652355 26.4858966069296,210.36916569346795 25.805747563485056,212.91130318440264 25.881319678854197,213.48533342877636 26.334752374794334,214.7153972433298 27.31718988297507,216.8475046416861 27.921766810584813,218.65159233374288 29.43320913007483,220.78369220742024 30.340074521955103,222.5057698994642 30.86907933326438,223.73582376586273 31.473656260874122,224.8018693526974 32.45609376905486,225.5399003159837 33.66524762427434,227.3439739482128 33.74081974057481,227.67198702233145 34.194252436514944,228.0" stroke="#4dd2ff" stroke-linecap="round" stroke-linejoin="round" stroke-width="0.5"><title>2023-09-20 1.0km</title><desc>9882714971</desc></polyline><polyline fill="none" points="79.65167272044346,192.0 78.88409973541275,193.94347102369647 77.43423965200782,198.20058754098136 77.34895376488566,199.58877459634095 76.83723844122142,200.32914039993193 76.24023723090068,201.71732510754373 75.89909368148074,203.01296278683003 75.21680658357218,204.7713260750752 73.255231176503,207.9178647758672 72.74351585283875,209.76876621937845 72.57294407859445,211.43457519158255 72.74351585283875,213.10038195888046 73.255231176503,214.95127578137908 73.85223238682374,216.24689983797725 75.72852190677077,219.4859541442711 76.66666666697711,220.7815735328477 77.51952553912997,223.0951762672048 78.3723844117485,224.57587978523225 79.22524328390136,225.778950111242 80.16338804364204,226.70438804116566 80.76038925489411,228.0" stroke="#4dd2ff" stroke-linecap="round" stroke-linejoin="round" stroke-width="0.5"><title>2023-09-19 1.0km</title><desc>9876194288</desc></polyline><polyline fill="none" points="123.06834657676518,192.0 122.43237836193293,193.03515533881728 121.3724313378334,195.10546396160498 121.05444723041728,196.48566818749532 119.1465425863862,199.8211567060789 117.66261675208807,202.92660514032468 117.34463264467195,204.07676966267172 117.45062734745443,205.34194965998176 118.08659556228667,206.95217726833653 119.04054788406938,208.67741929460317 119.88850550400093,211.09275493503083 121.05444723041728,213.6231025584275 122.32638365961611,215.92341502802446 123.49232538696378,217.4186163195409 124.87025651847944,219.7189232079545 125.71821413794532,222.36427194811404 127.20213997270912,224.66457156441174 127.94410288985819,226.73483832727652 129.3220340218395,228.0" stroke="#4dd2ff" stroke-linecap="round" stroke-linejoin="round" stroke-width="0.5"><title>2023-09-18 1.0km</title><desc>9870505463</desc></polyline><polyline fill="none" points="170.361735469196,192.0 169.84497051360086,193.0093573719496 169.12149957567453,196.37387712055352 168.19132265541703,197.94398379675113 167.77791069075465,199.17763790825848 165.50414488557726,202.87859425658826 164.67732095671818,204.89729393448215 164.16055600065738,206.69169140479062 164.57396796531975,207.9253384413896 166.84773377003148,212.85991660982836 167.98461667308584,214.65430471324362 168.81144060194492,216.56083976000082 170.1550294868648,218.35522350983229 170.8785004252568,219.58886111318134 171.80867734504864,222.50472784624435 175.83944399980828,228.0" stroke="#4dd2ff" stroke-linecap="round" stroke-linejoin="round" stroke-width="0.5"><title>2023-09-16 1.0km</title><desc>9856514700</desc></polyline><polyline fill="none" points="29.502354780677706,232.0 28.39647651510313,235.36003359872848 26.95883477013558,237.64005245815497 23.972963452804834,243.4000859145308 23.86237562634051,244.72009071870707 23.972963452804834,246.2800950196106 24.636490412522107,247.84009782946669 25.742368678096682,249.5200991879683 26.73765911674127,251.80009826552123 28.507064341567457,254.80009219923522 30.718820873182267,259.0000744428253 30.939996526110917,260.56006509484723 31.714111311826855,261.1600611024769 32.59881392447278,262.36005245591514 34.03645566944033,264.7600325163221 35.584685240872204,266.0800200452795 35.91644872073084,266.9200115533313 36.13762437412515,268.0" stroke="#4dd2ff" stroke-linecap="round" stroke-linejoin="round" stroke-width="0.5"><title>2023-09-15 1.0km</title><desc>9850671982</desc></polyline><polyline fill="none" points="77.58187512168661,232.0 75.75145821133628,236.84142398450058 73.69223918719217,239.8207549204817 72.77703073201701,241.43455698236357 71.40421804925427,244.91043310728855 71.06101487856358,246.15181570337154 71.06101487856358,247.1449211225845 71.40421804925427,248.38630207569804 72.77703073201701,252.11043945874553 74.03544235788286,254.59319315035827 77.12427089456469,259.9311012249673 78.38268251996487,262.2897063938435 78.61148463375866,263.6552131435601 79.52669308893383,264.52417140908074 81.01390682859346,266.8827701617265 82.27231845445931,268.0" stroke="#4dd2ff" stroke-linecap="round" stroke-linejoin="round" stroke-width="0.5"><title>2023-09-14 1.0km</title><desc>9844236351</desc></polyline><polyline fill="none" points="117.61182683706284,232.0 118.27041751286015,232.53598797146697 118.51738901622593,233.071975706378 118.68203668529168,234.2332816539565 119.17597969202325,235.2159242813941 119.50527503015473,237.98518559115473 119.50527503015473,239.32514847489074 119.34062736108899,240.0397947418969 119.50527503015473,240.93310198478866 119.9168942021206,242.00506980915088 119.75224653352052,242.89837560686283 119.83457036782056,243.34502825932577 120.65780871268362,244.8636460499838 121.39872322324663,247.09690405859146 122.05731389857829,248.3475267504109 122.88055224344134,249.50881809729617 123.78611442260444,250.3127883792622 124.03308592597023,250.8487682719715 124.28005742980167,252.0100572281517 124.93864810559899,253.17134507431183 125.67956261569634,255.31525818211958 126.66744862915948,257.1911790483864 127.16139163589105,258.79910891433246 127.4083631397225,260.13904884352814 127.90230614645407,261.210999723291 128.80786832561716,264.1588597658556 130.04272584291175,266.4814111262094 130.12504967767745,266.8387263260083 130.04272584291175,267.10671265702695 129.05483982898295,268.0 129.54878283618018,267.6426851415308 129.79575433954597,267.10671265702695 129.96040200814605,266.660068739322 129.87807817431167,266.03476697858423 129.38413516711444,265.4094648960745 127.90230614645407,262.1936205319362 127.16139163589105,259.78173167351633 125.5972387813963,256.2978837589035 124.85632427083328,252.90335566992871 124.44470509886742,251.9207273479551 122.88055224344134,249.86613828828558 121.31639938848093,246.91824356897268 120.57548487791792,244.50632438773755 120.32851337501779,242.89837560686283 119.66992269875482,241.2010940295877 118.35274134762585,238.3425091713434 118.02344600949436,237.00254520378076 116.87091232696548,234.8585997816408 116.62394082313403,233.69729443162214 116.541616988834,232.26799401536118" stroke="#4dd2ff" stroke-linecap="round" stroke-linejoin="round" stroke-width="0.5"><title>2023-09-13 1.0km</title><desc>9837636972</desc></polyline></svg>