<?xml version="1.0" encoding="utf-8" ?>
<svg baseProfile="full" height="300mm" version="1.1" viewBox="0,0,200,300" width="200mm" xmlns="http://www.w3.org/2000/svg" xmlns:ev="http://www.w3.org/2001/xml-events" xmlns:xlink="http://www.w3.org/1999/xlink"><defs /><rect fill="#222222" height="300" width="200" x="0" y="0" /><text fill="#FFFFFF" style="font-size:12px; font-family:Arial; font-weight:bold;" x="10" y="20">Over 1km Runs</text><text fill="#FFFFFF" style="font-size:4px; font-family:Arial" x="10" y="280">ATHLETE</text><text fill="#FFFFFF" style="font-size:9px; font-family:Arial" x="10" y="290">Jiakai</text><text fill="#FFFFFF" style="font-size:4px; font-family:Arial" x="120" y="280">STATISTICS</text><text fill="#FFFFFF" style="font-size:3px; font-family:Arial" x="120" y="285">Number: 70</text><text fill="#FFFFFF" style="font-size:3px; font-family:Arial" x="120" y="290">Weekly: 5.8</text><text fill="#FFFFFF" style="font-size:3px; font-family:Arial" x="141" y="285">Total: 72.4 km</text><text fill="#FFFFFF" style="font-size:3px; font-family:Arial" x="141" y="290">Avg: 1.0 km</text><text fill="#FFFFFF" style="font-size:3px; font-family:Arial" x="167" y="285">Min: 1.0 km</text><text fill="#FFFFFF" style="font-size:3px; font-family:Arial" x="167" y="290">Max: 1.5 km</text><polyline fill="none" points="19.528903105761856,35.81795038620476 20.489885231480002,38.94623337802477 20.901734713930637,41.47864940529689 22.411849482450634,44.45795832632575 24.05924741178751,48.92691349436063 25.706645340658724,52.502070532063954 25.98121166229248,52.800000000046566 26.255777983926237,52.502070532063954 25.98121166229248,51.459317047614604 24.882946376223117,49.522773438482545 23.37283160770312,45.351750148576684 21.17630103509873,40.88278709561564 20.352602070663124,36.11588230787311 18.705204140860587,33.58345957798883 17.744222016073763,31.20000000006985" stroke="#4dd2ff" stroke-linecap="round" stroke-linejoin="round" stroke-width="0.5"><title>2023-11-29 1.0km</title><desc>10298007687</desc></polyline><polyline fill="none" points="44.27656408539042,33.99713474337477 45.85186389507726,38.03743394929916 46.13828204246238,40.98995540768374 48.1432090732269,45.807218407513574 49.28888166323304,50.1582852283027 50.2913451786153,52.17842035088688 51.29380869399756,52.800000000046566 51.72343591507524,52.800000000046566 52.009854062926024,52.33381528034806 51.8666449887678,51.71223549405113 51.29380869399756,50.62447042798158 49.00246351538226,44.564054813236 46.71111833723262,39.28060138190631 46.28149111615494,36.79426578548737 45.27902760030702,33.841738466056995 43.990145937073976,31.20000000006985" stroke="#4dd2ff" stroke-linecap="round" stroke-linejoin="round" stroke-width="0.5"><title>2023-11-28 1.0km</title><desc>10292316108</desc></polyline><polyline fill="none" points="73.49283804837614,31.20000000006985 74.76074292743579,34.63950713502709 75.52148585533723,37.941428037011065 76.53580975858495,39.45480650337413 77.67692414997146,41.656082087778486 78.81803854182363,45.233149390434846 79.83236244507134,46.884101223782636 79.83236244507134,47.70957659429405 79.19841000577435,48.25989330583252 77.1697621983476,49.360526243341155 75.90185731928796,50.461158533231355 74.63395243976265,51.14905338571407 72.7320951204747,51.974526875070296 69.68912341026589,52.800000000046566 69.18196145864204,52.66242117155343 68.80158999469131,52.24968462414108 68.16763755492866,49.63568437634967" stroke="#4dd2ff" stroke-linecap="round" stroke-linejoin="round" stroke-width="0.5"><title>2023-11-27 1.0km</title><desc>10287544518</desc></polyline><polyline fill="none" points="97.91195085085928,35.8825367607642 98.60796723375097,37.544079497340135 100.27840655297041,46.00282168900594 102.08804914867505,50.38322806544602 103.06247208546847,52.044759075855836 103.75848846836016,52.800000000046566 103.89769174531102,52.64895183732733 103.48008191538975,51.89371085760649 103.48008191538975,50.68532471288927 102.36645570211112,48.117501795408316 101.11362621281296,43.88813940610271 99.86079672304913,41.32030799333006 99.02557706367224,36.486734274891205 96.65912136109546,32.71049689524807 96.10230825422332,31.20000000006985" stroke="#4dd2ff" stroke-linecap="round" stroke-linejoin="round" stroke-width="0.5"><title>2023-11-26 1.0km</title><desc>10281488289</desc></polyline><polyline fill="none" points="122.06694425363094,31.200000000186265 123.6722731301561,35.380660529015586 125.11706911865622,41.30325031816028 126.56186510808766,44.612926399102435 126.88293088320643,46.70324575249106 127.68559532240033,48.61937020649202 129.45145708601922,51.929036068264395 130.2541215242818,52.800000000046566 130.57518729846925,52.800000000046566 128.16719398461282,47.57421160512604 127.84612820856273,45.83227957924828 126.24079933296889,43.56776603101753 123.03014157991856,34.85807836684398 121.42481270246208,31.896777267567813" stroke="#4dd2ff" stroke-linecap="round" stroke-linejoin="round" stroke-width="0.5"><title>2023-11-25 1.0km</title><desc>10275889695</desc></polyline><polyline fill="none" points="147.81414107698947,31.401869946159422 148.9303701221943,36.44861375866458 154.1394390044734,50.57944708853029 155.44170622434467,52.59813162800856 155.99982074741274,52.800000000046566 156.18585892301053,52.19439483853057 154.32547717820853,49.771972857415676 152.09301908686757,43.11030138889328 150.6047136913985,40.082263560267165 149.67452282086015,34.22804762376472 148.558293774724,31.199999999953434" stroke="#4dd2ff" stroke-linecap="round" stroke-linejoin="round" stroke-width="0.5"><title>2023-11-24 1.0km</title><desc>10271180196</desc></polyline><polyline fill="none" points="175.31426128279418,33.60000988165848 175.7882151743397,34.971442989772186 176.8941075867042,40.800024702679366 179.57984630484134,49.02858584676869 180.84372334834188,52.457144420361146 181.3176772389561,52.800000000046566 181.94961576070637,52.800000000046566 182.10760039184242,52.457144420361146 181.79163113050163,50.74286576360464 180.05380019638687,45.771450532600284 175.47224591299891,35.828588273143396 173.8923996090889,31.200000000186265" stroke="#4dd2ff" stroke-linecap="round" stroke-linejoin="round" stroke-width="0.5"><title>2023-11-23 1.0km</title><desc>10265414399</desc></polyline><polyline fill="none" points="20.107522555161268,60.06762531620916 20.247706070076674,62.197207790915854 20.808440127409995,65.54369010857772 23.0513763576746,71.93241404858418 23.752293929457664,74.97465661051683 24.873762044589967,76.80000000004657 25.714863130822778,76.80000000004657 25.574679616838694,75.88732850644737 24.032660957891494,71.93241404858418 22.771009328775108,69.95495398482308 20.94862364185974,64.32678807410412 18.84587092557922,58.54649363504723 18.28513686871156,55.20000000006985" stroke="#4dd2ff" stroke-linecap="round" stroke-linejoin="round" stroke-width="0.5"><title>2023-11-21 1.0km</title><desc>10253878272</desc></polyline><polyline fill="none" points="45.675203843507916,61.03359808633104 46.401702641975135,65.76353083085269 49.45299759786576,73.48906521312892 50.76069543603808,76.32700962922536 51.19659471558407,76.80000000004657 51.48719423543662,76.6423365548253 51.63249399513006,76.32700962922536 51.051294955890626,73.80439255572855 48.43589927954599,68.12849329179153 47.418800961226225,65.13287373445928 45.82050360320136,58.983957323478535 44.948705044109374,57.40730924997479 44.36750600486994,55.20000000006985" stroke="#4dd2ff" stroke-linecap="round" stroke-linejoin="round" stroke-width="0.5"><title>2023-11-20 1.0km</title><desc>10248671423</desc></polyline><polyline fill="none" points="70.1545084938407,57.00000800623093 72.26575873233378,61.58183999871835 72.86897308658808,66.32729890511837 74.52781255915761,70.09093153313734 76.18665203265846,74.83637229795568 76.94066997524351,75.98182200116571 77.8454915061593,76.80000000004657 77.69468791782856,75.49091505771503 75.13102691341192,68.78184264502488 73.47218744084239,62.727296523051336 71.81334796734154,58.80001455673482 70.90852643642575,55.20000000006985" stroke="#4dd2ff" stroke-linecap="round" stroke-linejoin="round" stroke-width="0.5"><title>2023-11-19 1.0km</title><desc>10242265034</desc></polyline><polyline fill="none" points="95.80197449494153,74.44551390595734 96.74535101279616,71.47680837207008 97.12270162068307,70.76022332918365 97.78306518262252,70.3507459963439 100.99054534407333,69.94126854289789 103.34898663917556,69.42942155664787 104.1036878535524,68.8152049247874 104.57537611294538,68.20098802214488 105.14140202384442,65.64174801006448 104.95272671990097,64.82279021234717 105.33007732685655,64.20857154822443 105.04706437140703,59.49955278390553 104.8583890683949,58.885331770870835 104.76405141595751,57.042667104979046 104.57537611294538,55.916593053145334 103.53766194311902,55.60948178987019 102.68862307677045,56.22370424831752 102.87729838024825,55.916593053145334 103.06597368372604,56.22370424831752 101.83958421042189,55.60948178987019 101.74524655891582,55.20000000006985 101.46223360300064,55.40474090992939 101.6509089069441,55.302370458841324 100.99054534407333,56.121333857416175 101.08488299604505,56.01896345906425 103.06597368372604,57.042667104979046 102.59428542479873,57.45214835263323 101.83958421042189,57.75925920938607 100.0471688262187,58.06636999826878 99.95283117424697,57.65688893117476 100.42451943317428,57.45214835263323 101.08488299604505,57.55451864562929 103.06597368372604,55.60948178987019 105.80176558578387,55.711852218490094 105.51875263080001,55.50711135356687 105.14140202384442,55.40474090992939 104.8583890683949,60.318513713311404 104.95272671990097,61.751694180537015 105.23573967488483,63.49198276386596 105.42441497929394,66.46070532582235 105.42441497929394,67.48440129298251 105.14140202384442,68.50809650716837 104.57537611294538,69.1223132746527 99.8584935227409,69.63416037370916 97.68872753111646,70.04363791760989 96.55667570978403,70.8625926435925 95.23594858404249,72.70523901598062 94.48124736966565,75.36683502572123 94.19823441421613,76.80000000004657" stroke="#4dd2ff" stroke-linecap="round" stroke-linejoin="round" stroke-width="0.5"><title>2023-11-18 1.0km</title><desc>10236386505</desc></polyline><polyline fill="none" points="121.59222913486883,55.20000000006985 124.72032458754256,60.60002084262669 125.85781384306028,64.61145590234082 126.28437231387943,66.92574187146965 127.13748925551772,68.31431222811807 129.83902623690665,76.18286022823304 130.40777086513117,76.80000000004657 130.40777086513117,76.18286022823304 129.83902623690665,75.41143525834195 128.27497851056978,70.78287948272191 127.42186156893149,69.24002528889105 127.13748925551772,66.61717055668123 125.85781384306028,63.3771690079011 124.43595227366313,60.29144859779626 124.29376611672342,58.594300437602215" stroke="#4dd2ff" stroke-linecap="round" stroke-linejoin="round" stroke-width="0.5"><title>2023-11-17 1.0km</title><desc>10231268371</desc></polyline><polyline fill="none" points="148.14721154607832,55.89677726756781 150.23413862474263,58.85807836661115 150.71573718171567,62.86453866888769 152.16053285170346,66.00002461415716 154.40799278300256,74.36130018369295 155.85278845299035,76.80000000004657 155.69225560035557,75.40645755524747 154.56852563563734,73.14194933418185 153.76586137432605,70.87743894872256 152.48159855604172,65.4774439111352 149.91307292040437,60.077436567051336 149.11040865909308,57.638719538459554 148.62881010212004,55.199999999953434" stroke="#4dd2ff" stroke-linecap="round" stroke-linejoin="round" stroke-width="0.5"><title>2023-11-16 1.0km</title><desc>10225818993</desc></polyline><polyline fill="none" points="174.2542330333963,55.432258849730715 175.32445216644555,59.612915229285136 177.03680277988315,64.25808249553666 179.39128487277776,68.67098507285118 180.2474601790309,72.15485117421485 181.74576696474105,75.17419868800789 183.24407375138253,76.80000000004657 179.39128487277776,69.60001640883274 177.6789342602715,64.25808249553666 172.75592624768615,55.199999999953434" stroke="#4dd2ff" stroke-linecap="round" stroke-linejoin="round" stroke-width="0.5"><title>2023-11-15 1.0km</title><desc>10219684298</desc></polyline><polyline fill="none" points="18.18342350795865,81.79850741662085 20.12912917137146,84.23460534319747 20.42846850398928,87.32032552699093 22.673513500019908,92.67972402321175 24.020540496334434,97.22708224784583 25.367567494511604,100.6375947734341 25.966246159747243,100.80000000004657 25.816576492972672,98.85113648837432 23.870870830491185,96.25264913064893 23.122522498480976,93.97897018573713 21.925165167078376,92.51731819927227 21.476156168617308,90.73085334745701 19.23111117258668,86.18348175042775 18.48276284057647,82.93535344977863 18.03375384118408,79.20000000006985" stroke="#4dd2ff" stroke-linecap="round" stroke-linejoin="round" stroke-width="0.5"><title>2023-11-14 1.0km</title><desc>10213806154</desc></polyline><polyline fill="none" points="45.115062210243195,82.17392605240457 46.26903732679784,86.5565463474486 49.44246889511123,94.6956743884366 50.16370334243402,97.35653642215766 51.60617223801091,100.33043711271603 52.038912906777114,100.80000000004657 51.173431569710374,99.23478997324128 49.153975116088986,94.38263157790061 49.009728226810694,93.13045987405349 47.56725933169946,89.68698389187921 45.40355598926544,85.7739362422144 44.5380746521987,83.11305973213166 43.96108709368855,79.20000000006985" stroke="#4dd2ff" stroke-linecap="round" stroke-linejoin="round" stroke-width="0.5"><title>2023-11-13 1.0km</title><desc>10208522228</desc></polyline><polyline fill="none" points="71.58714276179671,81.65455601131544 73.09517853613943,86.23638665652834 74.9048214647919,90.00002620217856 75.96044650673866,94.41820363525767 77.01607154775411,97.52728620090056 78.37330374494195,100.47272883669939 78.97651805356145,100.80000000004657 79.27812520880252,100.14545762503985 77.61928585730493,96.87274286395404 76.71446439344436,93.2727510688128 73.39678569044918,90.16366255970206 71.58714276179671,87.54547939402983 71.28553560655564,84.7636564061977 68.72187479119748,79.20000000006985" stroke="#4dd2ff" stroke-linecap="round" stroke-linejoin="round" stroke-width="0.5"><title>2023-11-12 1.0km</title><desc>10202270880</desc></polyline><polyline fill="none" points="96.7318393709138,83.22986689361278 100.29710551165044,91.2895784585271 101.48552755825222,95.31942313129548 102.67394960578531,98.54329353687353 103.41671338491142,99.99403367296327 104.15947716403753,100.80000000004657 104.30802992079407,100.1552269620588 102.97105511743575,96.12539117690176 100.44565826747566,92.25674185552634 97.77170866169035,86.13136646989733 96.7318393709138,81.77911566500552 95.69197007920593,79.19999999995343" stroke="#4dd2ff" stroke-linecap="round" stroke-linejoin="round" stroke-width="0.5"><title>2023-11-11 1.0km</title><desc>10196068378</desc></polyline><polyline fill="none" points="123.99192998278886,82.42106411675923 126.43653696030378,89.81054893764667 128.70652915351093,95.87370014633052 129.75421785749495,99.85263537522405 130.45267699379474,100.80000000004657 130.8019065624103,100.42105419188738 130.27806221041828,98.14737817179412 127.6588404495269,92.27370583638549 125.0396186877042,86.7789679847192 121.54732300620526,81.28421841817908 121.1980934375897,79.20000000018626" stroke="#4dd2ff" stroke-linecap="round" stroke-linejoin="round" stroke-width="0.5"><title>2023-11-10 1.0km</title><desc>10191120477</desc></polyline><polyline fill="none" points="146.98549491818994,79.85954506357666 149.5687248101458,81.83817909145728 151.08827180415392,84.47635507921223 151.54413590300828,85.465670274687 151.54413590300828,86.94964224973228 153.2156375972554,92.06109375844244 153.82345639448613,95.02902799856383 155.03909399081022,98.32672810310032 155.34300338942558,99.97557633731049 156.1027768868953,100.80000000004657 156.55864098481834,100.63511529180687 157.01450508274138,99.97557633731049 155.34300338942558,98.82138270081487 152.60781879909337,94.86414286575746 149.41677011083812,86.12521349603776 148.6569966133684,81.17863460932858 147.89722311589867,79.20000000006985" stroke="#4dd2ff" stroke-linecap="round" stroke-linejoin="round" stroke-width="0.5"><title>2023-11-09 1.0km</title><desc>10185506531</desc></polyline><polyline fill="none" points="173.78631037380546,80.9343146024039 175.3846064391546,84.08761028537992 175.96580500761047,85.66425638832152 177.85470035811886,89.76353083131835 178.58119856892154,92.6014854706591 178.4358989270404,90.86718030378688 178.726498211734,91.97082920849789 179.30769678018987,96.22775537776761 180.61539356131107,100.16934614919592 181.19659213069826,100.80000000004657 181.9230903419666,100.48467309738044 182.21368962619454,100.0116826571757 180.61539356131107,98.5927107098978 179.45299642300233,96.70074665301945 178.726498211734,94.65111704124138 177.7094007153064,91.18250862043351 176.25640429276973,89.13287373469211 174.6581082274206,85.66425638832152 174.2222093003802,83.1416220671963 174.36750894226134,79.98832499329001 174.0769096580334,79.20000000006985" stroke="#4dd2ff" stroke-linecap="round" stroke-linejoin="round" stroke-width="0.5"><title>2023-11-08 1.0km</title><desc>10179505859</desc></polyline><polyline fill="none" points="21.02557692071423,115.13289520586841 25.897692318540066,124.80000000004657 26.17609891248867,124.64895183767658 25.480082427617162,122.98742131562904 24.227252753451467,120.87274416279979 23.392032970674336,118.75806483370252 21.721593405585736,116.9454808193259 21.164780218154192,115.88813940575346 20.747170326299965,112.26296471385285 20.468763732351363,111.20562089059968 18.798324167262763,108.33568491286132 17.82390108751133,103.19999999995343" stroke="#4dd2ff" stroke-linecap="round" stroke-linejoin="round" stroke-width="0.5"><title>2023-11-06 1.0km</title><desc>10167691585</desc></polyline><polyline fill="none" points="45.923467515502125,109.26045393233653 46.92593147419393,111.12520549283363 50.64936903119087,119.6719624272082 52.224669536575675,124.48921019840054 52.511087810155004,124.80000000004657 52.79750608326867,124.80000000004657 52.79750608326867,124.33381528023165 51.651832988951355,121.84749503829516 50.64936903119087,120.4489386169007 50.50615989463404,119.6719624272082 49.64690507343039,118.73959062295035 47.2123497473076,114.54391241364647 44.34816701058298,107.24030455225147 43.20249391626567,103.20000000006985" stroke="#4dd2ff" stroke-linecap="round" stroke-linejoin="round" stroke-width="0.5"><title>2023-11-05 1.1km</title><desc>10161301187</desc></polyline><polyline fill="none" points="69.96108798496425,103.19999999995343 72.84602513816208,109.61741418659221 74.14424685761333,115.25220093794633 76.1637028651312,119.1652385185007 76.88493715366349,122.29566340509336 77.60617144219577,124.80000000004657 78.03891201503575,124.33043711283244 77.89466515695676,123.8608741221251 76.01945600751787,120.41740902571473 75.87520914943889,119.94784517178778 74.14424685761333,117.28698137763422 73.42301256908104,114.78263594501186 71.54780341964215,111.33915616502054 71.11506284633651,108.36523732787464 70.2495817001909,105.23479195870459" stroke="#4dd2ff" stroke-linecap="round" stroke-linejoin="round" stroke-width="0.5"><title>2023-11-04 1.0km</title><desc>10155501797</desc></polyline><polyline fill="none" points="105.795107210055,106.48102882597595 104.1573595199734,104.293676919071 103.14951478829607,103.61012892005965 101.1338253240101,103.20000000006985 99.24411645112559,103.3367096503498 96.59852402890101,104.56709604803473 95.46469870535657,105.66077216272242 94.45685397321358,107.71141314262059 94.20489279041067,109.3519242979819 93.82695101574063,114.82028435869142 94.07891219854355,120.56204510864336 94.33087338181213,121.3822951966431 95.59067929722369,123.43291883275378 97.10244639543816,124.52658384700771 99.62205822579563,124.80000000004657 101.88970887288451,123.84304328868166 104.0313789290376,121.24558687384706 104.66128188651055,120.01521151571069 105.54314602725208,116.05066315515433 105.54314602725208,112.90636016707867 106.17304898425937,108.80508740677033 106.04706839332357,107.30128512752708 104.66128188651055,105.66077216272242 103.52745656296611,104.840515137068 100.88186414074153,103.61012892005965 99.49607763392851,103.61012892005965 96.47254343796521,104.56709604803473 95.0867569311522,105.79748163174372 94.20489279041067,107.43799447582569 93.95293160714209,108.53166890132707 94.20489279041067,113.04306910349987 93.95293160714209,115.09370193921495" stroke="#4dd2ff" stroke-linecap="round" stroke-linejoin="round" stroke-width="0.5"><title>2023-11-03 1.0km</title><desc>10152446508</desc></polyline><polyline fill="none" points="121.52956787124276,103.19999999995343 122.71043673530221,105.76272166171111 123.72261004708707,110.33900378202088 125.4095655689016,113.63392170099542 127.93999884836376,120.2237444575876 128.4460855042562,121.32204655488022 129.2895632646978,124.25084977876395 129.79564992152154,124.80000000004657 130.47043212968856,124.80000000004657 130.47043212968856,124.43389986595139 129.2895632646978,123.88474956410937 128.78347660880536,122.60339838941582 127.60260774474591,121.50509685720317 126.75912998430431,119.12544187624007 125.57826111931354,117.29493649699725 124.22869670391083,114.54917590436526 122.71043673530221,108.87459441879764 121.69826342258602,106.49492736603133" stroke="#4dd2ff" stroke-linecap="round" stroke-linejoin="round" stroke-width="0.5"><title>2023-11-02 1.1km</title><desc>10144903556</desc></polyline><polyline fill="none" points="148.32170485937968,104.76522475562524 148.6101985955611,106.48697065818124 149.7641735416837,109.14784795034211 151.78362969774753,116.34785218513571 155.24555453751236,123.547832070617 156.25528261484578,124.80000000004657 155.6782951420173,122.92174782999791 153.51459211762995,119.63480254472233 152.36061717150733,115.40872257878073 150.91814848827198,113.37394034443423 149.18718606885523,109.61741418624297 147.74471738561988,103.20000000006985" stroke="#4dd2ff" stroke-linecap="round" stroke-linejoin="round" stroke-width="0.5"><title>2023-11-01 1.0km</title><desc>10138966680</desc></polyline><polyline fill="none" points="174.8569374680519,103.5248135945294 175.60528569016606,105.96091402857564 176.8026428455487,112.4571687191492 178.74834822211415,116.67972402344458 179.94570537656546,120.57746021717321 181.89141075406224,124.80000000004657 182.04108039848506,124.63759477273561 180.6940535986796,122.68873111752328 178.74834822211415,118.14137590187602 177.10198213439435,115.2180711774854 174.25825889129192,106.61054035718553 173.95891960151494,103.20000000006985" stroke="#4dd2ff" stroke-linecap="round" stroke-linejoin="round" stroke-width="0.5"><title>2023-10-31 1.0km</title><desc>10133123337</desc></polyline><polyline fill="none" points="18.60859697405249,129.76001119834837 19.345858502201736,133.60002234985586 19.345858502201736,135.04002478462644 20.96783386170864,137.76002678414807 25.39140302594751,147.20000735193025 26.12866455409676,148.64000078791287 26.42356916423887,148.80000000004657 23.03216613829136,142.08002297277562 21.55764308385551,137.92002679605503 19.935667723417282,134.56002407881897 17.57643083576113,127.20000000006985" stroke="#4dd2ff" stroke-linecap="round" stroke-linejoin="round" stroke-width="0.5"><title>2023-10-30 1.0km</title><desc>10127985445</desc></polyline><polyline fill="none" points="44.59501596633345,130.32633072906174 45.24982058815658,134.7316063559847 45.64270336134359,136.1526608680142 48.26192184910178,142.26318336534314 49.571531092282385,145.81580384413246 51.5359449586831,148.51579104084522 52.059788656421006,148.80000000004657 52.190749580040574,148.37368654541206 51.0121012609452,146.5263271559961 49.309609244111925,142.83160308073275 46.297507983166724,137.28950372571126 45.11885966314003,133.16844518610742 44.202133192680776,131.32107126468327 44.07117226859555,128.47895409131888 43.809250419959426,127.20000000006985" stroke="#4dd2ff" stroke-linecap="round" stroke-linejoin="round" stroke-width="0.5"><title>2023-10-28 1.0km</title><desc>10115543824</desc></polyline><polyline fill="none" points="71.19840578362346,131.68001762102358 72.3780244011432,135.52002538449597 73.7050953451544,138.5600267255213 74.88471396267414,142.88002132612746 76.65414188895375,147.04000802256633 77.39140352420509,148.64000078849494 78.12866515945643,148.80000000004657 78.27611748687923,148.64000078849494 77.98121283296496,147.68000526994 77.0964988693595,145.28001462155953 74.1474523274228,139.5200262669241 71.788215091452,133.1200213264674 70.313691820018,129.92001179850195 69.72388251218945,127.20000000006985" stroke="#4dd2ff" stroke-linecap="round" stroke-linejoin="round" stroke-width="0.5"><title>2023-10-27 1.0km</title><desc>10110442644</desc></polyline><polyline fill="none" points="97.07263622339815,130.53530821716413 99.85363181121647,139.9059085083427 100.87820913270116,142.76472762366757 101.90278645511717,144.51178188773338 103.07373196445405,147.84706337715033 103.51283653173596,148.48235450603534 104.39104566443712,148.80000000004657 104.53741385228932,148.32353174127638 104.39104566443712,147.68824056594167 102.92736377567053,145.7823659197893 100.73184094391763,141.97061158227734 98.09721354581416,134.18825892731547 96.34079527948052,131.3294284621952 95.46258614677936,127.20000000006985" stroke="#4dd2ff" stroke-linecap="round" stroke-linejoin="round" stroke-width="0.5"><title>2023-10-26 1.0km</title><desc>10104873905</desc></polyline><polyline fill="none" points="124.91814872715622,137.53046212380286 128.23582596611232,145.82609996548854 129.82254116702825,148.64347904920578 130.39952851226553,148.80000000004657 130.2552816765383,147.23478997312486 126.36061709094793,140.50437374645844 124.19691454432905,135.02611227263696 122.32170567009598,131.11305973259732 121.60047148773447,127.19999999995343" stroke="#4dd2ff" stroke-linecap="round" stroke-linejoin="round" stroke-width="0.5"><title>2023-10-25 1.0km</title><desc>10098978222</desc></polyline><polyline fill="none" points="148.0042563113384,127.20000000006985 147.85895654093474,128.30365490925033 148.73075516428798,131.92994561139494 149.89315332844853,134.2949145049788 150.6196521804668,137.1328737345757 151.927350115031,140.9168135318905 154.68804575363174,146.27738348336425 155.55984437698498,148.48467309772968 155.8504439177923,148.80000000004657 156.14104345906526,148.64233655459248 155.99574368819594,146.5927107097814 154.3974462132901,143.59710018232 153.2350480495952,141.86279743816704 151.7820503441617,138.55185194103979 151.49145080335438,136.81754511699546 149.74785355757922,134.1372499933932 148.73075516428798,131.772280925652 148.44015562301502,128.9343146022875 148.0042563113384,127.20000000006985" stroke="#4dd2ff" stroke-linecap="round" stroke-linejoin="round" stroke-width="0.5"><title>2023-10-24 1.0km</title><desc>10092835699</desc></polyline><polyline fill="none" points="175.78025935776532,130.92951216874644 177.92839546268806,138.54391241353005 178.93085897853598,140.40865931252483 180.0765315676108,145.07051936292555 181.79504045145586,148.17842035088688 182.51108582038432,148.80000000004657 181.79504045145586,148.02302540978417 180.7925769360736,145.53670480242 178.21481360960752,142.4287999299122 177.64197731530294,141.34103214519564 177.06914102099836,137.7669340533903 175.35063213668764,134.34822587575763 174.20495954761282,130.77411595988087 173.48891417961568,127.20000000006985" stroke="#4dd2ff" stroke-linecap="round" stroke-linejoin="round" stroke-width="0.5"><title>2023-10-23 1.0km</title><desc>10087395010</desc></polyline><polyline fill="none" points="15.006694011157379,151.3035987028852 15.388581027509645,151.19999999995343 18.10952601977624,151.40719739045016 19.30292294616811,151.71799336187541 19.589338208548725,151.87339129624888 20.209904610412195,152.33958489343058 20.639527503866702,152.85757741745329 21.594245044747368,154.6187491499004 22.071603815536946,156.58711234654766 22.692170217400417,157.62309076730162 22.9785854795482,158.45187240705127 23.646887758281082,159.95403664413607 24.12424652907066,161.507996277418 24.840284684905782,162.7511615161202 25.174435824155807,163.11375096417032 25.604058717843145,163.8389293004875 25.84273810312152,165.39288036490325 25.98594573419541,165.80726673663594 26.367832750547677,166.37704759970075 26.46330450498499,167.2576171181281 26.606512136058882,167.620204246894 28.706890726462007,172.5928089010995 28.99330598884262,172.79999999998836 28.99330598884262,172.54101111670025 28.563683095388114,172.12662870559143 28.086324324831367,170.9870758180623 27.608965554041788,170.00291502301116 26.320096873678267,166.01445983105805" stroke="#4dd2ff" stroke-linecap="round" stroke-linejoin="round" stroke-width="0.5"><title>2023-10-22 1.5km</title><desc>10080655811</desc></polyline><polyline fill="none" points="44.56446858961135,151.20000000001164 45.32230640063062,151.7482310894993 43.95819834037684,151.5289387020166 46.080144211649895,154.27008890907746 46.282234294805676,154.92796345928218 46.130666732555255,155.47619180753827 45.423351442208514,155.85995141166495 45.22126135905273,156.24371081811842 45.27178387995809,156.90158362674993 45.675964045803994,158.49144051817711 46.130666732555255,159.64271408203058 46.63589193997905,161.39703228487633 47.54529731348157,162.98687959113158 47.69686487573199,163.58992423431482 48.25261260382831,164.57672350743087 48.60627024923451,165.0153005431057 48.65679276967421,165.2894110592897 49.01045041508041,165.61834354582243 49.26306301867589,166.16656403418165 49.616720664082095,167.2081818516017 49.970378309255466,167.92086688842392 49.919855788582936,169.3462349184556 50.57664855802432,170.6071351354476 50.7787386411801,171.21017361606937 51.13239628635347,171.86803322046762 51.73866653535515,172.63553535874235 52.04180165985599,172.79999999998836 50.87978368275799,171.1553519561421 50.62717107892968,170.27820484968834 50.121945871273056,169.18176951550413 49.919855788582936,168.46908568392973 49.26306301867589,167.53711349173682 48.70731529057957,165.94727588724345" stroke="#4dd2ff" stroke-linecap="round" stroke-linejoin="round" stroke-width="0.5"><title>2023-10-20 1.4km</title><desc>10069668027</desc></polyline><polyline fill="none" points="69.65362509805709,151.19999999995343 69.75649787695147,152.0372207518085 70.57948010670952,154.04654678847874 70.78522566426545,155.27446563716512 72.48262651334517,159.4047235508915 72.63693568157032,159.96286478859838 72.7398084604647,160.80007587582804 72.9455540177878,161.3582160877413 74.18002736265771,163.08844813657925 74.84870042465627,164.42797991767293 75.2601915395353,165.76750933506992 75.62024626531638,166.49308678269153 75.82599182263948,167.6093584248447 76.08317376975901,168.16749363043346 76.75184683129191,169.89771016000304 76.8547196101863,170.56747033866122 77.83201100840233,172.57674732932355 78.0891929550562,172.79999999998836 78.24350212328136,172.79999999998836 78.34637490171008,172.7441868383903 78.29493851261213,172.68837367277592 77.26621072529815,171.40466973098228 76.80328322085552,169.84189678513212 75.82599182263948,168.05586662207497 75.67168265464716,167.33029066812014 75.56880987575278,166.10239132016432" stroke="#4dd2ff" stroke-linecap="round" stroke-linejoin="round" stroke-width="0.5"><title>2023-10-19 1.3km</title><desc>10064004415</desc></polyline><polyline fill="none" points="95.12936548842117,151.20000000006985 97.24703266704455,153.95745927596 97.10585485538468,155.9489553726744 97.38821047870442,157.94044956599828 98.3764551631175,161.46385770628694 99.78823328157887,163.76172937103547 101.20001140097156,167.74470092041884 104.02356764022261,172.34042786306236 104.44710107613355,172.80000000004657 104.87063451157883,172.64680929866154 103.0353229562752,170.80852000799496 99.647055469919,164.22130339988507 98.79998859809712,161.31066617183387 96.39996579522267,156.25533921841998" stroke="#4dd2ff" stroke-linecap="round" stroke-linejoin="round" stroke-width="0.5"><title>2023-10-18 1.0km</title><desc>10058081424</desc></polyline><polyline fill="none" points="122.229910842143,152.5090968760196 123.436339372769,159.54547939426266 126.60321426484734,167.8909274970647 128.71446419321,172.30909323703963 129.61928559094667,172.80000000004657 130.071696289815,172.80000000004657 130.37330342270434,172.14545762562193 129.31767845898867,170.83637229795568 127.96044636238366,168.70910699968226 126.150803565979,164.7818426452577 125.39678573515266,162.49093523877673 122.229910842143,156.1091093159048 121.92830371018499,155.12728831882123 121.62669657729566,151.20000000006985" stroke="#4dd2ff" stroke-linecap="round" stroke-linejoin="round" stroke-width="0.5"><title>2023-10-17 1.0km</title><desc>10051702317</desc></polyline><polyline fill="none" points="147.17660451494157,151.69846386567224 148.70784117653966,154.35693595849443 151.0046961689368,160.33848673303146 152.22968549933285,162.66464109206572 153.6077984943986,166.98463569255546 155.29215882346034,171.30462203593925 155.90465348772705,172.46769387146924 156.6702718185261,172.80000000004657 156.82339548505843,172.63384694198612 156.6702718185261,172.13538769376464 154.98591149039567,169.6430898043327 152.68905649799854,163.99387107940856 151.0046961689368,160.50464069505688 149.62658317387104,154.02462711755652 148.860964843072,151.20000000006985" stroke="#4dd2ff" stroke-linecap="round" stroke-linejoin="round" stroke-width="0.5"><title>2023-10-16 1.0km</title><desc>10046279660</desc></polyline><polyline fill="none" points="173.57642742060125,151.20000000018626 174.20836636144668,152.57143451995216 174.8403053013608,155.65715924091637 176.26216791570187,160.457167357672 178.15798473451287,163.3714531790465 180.36977102421224,171.60000524926 181.15969469957054,172.45714441989549 182.26558784395456,172.80000000004657 182.42357257939875,172.45714441989549 182.26558784395456,171.42857737722807 180.21178628969938,168.51430162554607 179.10589314438403,165.08573725470342 177.84201526548713,163.02859621262178 174.8403053013608,156.00001729140058 173.73441215604544,151.20000000018626" stroke="#4dd2ff" stroke-linecap="round" stroke-linejoin="round" stroke-width="0.5"><title>2023-10-15 1.0km</title><desc>10039610121</desc></polyline><polyline fill="none" points="17.505078485235572,176.7677485626191 17.9866772191599,181.81937576434575 19.27094050962478,185.47744391136803 20.876269621774554,187.7419594572857 21.839467089623213,190.87743894872256 24.568526580929756,195.7548432429321 25.210658225230873,196.4516144655645 26.01332278177142,196.80000000004657 26.49492151569575,196.4516144655645 26.49492151569575,195.92903606779873 23.284263290464878,193.3161423506681 21.19733544345945,189.48389302031137 20.394670887850225,186.17421815590933 18.468275952152908,181.81937576434575 17.505078485235572,178.16130197024904 17.66561139654368,175.89677726710215 17.505078485235572,175.19999999995343" stroke="#4dd2ff" stroke-linecap="round" stroke-linejoin="round" stroke-width="0.5"><title>2023-10-14 1.0km</title><desc>10033377496</desc></polyline><polyline fill="none" points="43.10247393604368,175.54285870608874 45.94619874749333,178.97144298977219 46.262168171815574,181.54287789412774 48.9479082711041,189.77145053213462 51.47566365916282,195.77143310848624 52.26558721717447,196.80000000004657 52.89752606488764,196.80000000004657 52.89752606488764,196.2857166111935 52.73954135272652,195.77143310848624 51.317678947001696,194.74286576313898 49.73783183004707,191.8285891546402 48.0,186.34288212889805 44.84030576609075,179.3143011406064 44.3663516305387,176.9142930242233 43.57642807159573,175.19999999995343" stroke="#4dd2ff" stroke-linecap="round" stroke-linejoin="round" stroke-width="0.5"><title>2023-10-13 1.0km</title><desc>10028006924</desc></polyline><polyline fill="none" points="69.36538064479828,175.20000000006985 70.88492797501385,177.17863460967783 71.79665637295693,178.82749545027036 71.94861110579222,180.9710127315484 71.79665637295693,183.2794136662269 73.46815843507648,186.74201061367057 75.44356996379793,192.01833853893913 77.41898149251938,195.64580678741913 77.87484569195658,196.3053458391223 78.63461935613304,196.80000000004657 78.63461935613304,195.97557633754332 76.9631172940135,193.83207339665387 75.44356996379793,191.1939131191466 73.46815843507648,185.75269774568733 72.25252057146281,183.609185034642 71.64470164012164,181.7954419098096" stroke="#4dd2ff" stroke-linecap="round" stroke-linejoin="round" stroke-width="0.5"><title>2023-10-12 1.0km</title><desc>10021974100</desc></polyline><polyline fill="none" points="97.4746022215113,178.26269951381255 98.068813463673,181.48658911755774 97.92026065289974,182.77614363189787 99.25723594706506,187.12838451750576 100.29710562061518,189.06271102663595 101.33697529416531,192.6089718618896 102.82250339910388,196.15522696147673 103.11960901971906,196.47761350416113 103.86237307265401,196.80000000004657 103.71382026188076,196.15522696147673 102.07973934616894,191.9641975912964 100.29710562061518,188.90151721588336 97.92026065289974,183.42092060425784 97.32604941073805,181.32539474999066 97.02894379012287,178.26269951381255 96.13762692734599,175.20000000006985" stroke="#4dd2ff" stroke-linecap="round" stroke-linejoin="round" stroke-width="0.5"><title>2023-10-10 1.0km</title><desc>10009069592</desc></polyline><polyline fill="none" points="122.34079527948052,177.90001181093976 123.3653726009652,180.75884416745976 124.38994992244989,184.57061475841329 126.5854727551341,189.33531853882596 128.34189102053642,195.37059490859974 129.3664683420211,196.80000000004657 129.65920471958816,196.32353174127638 129.8055729083717,194.5764805598883 128.780995586887,191.55884337320458 126.5854727551341,187.74708511296194 124.09721354581416,180.75884416745976 123.3653726009652,177.58236353751272 122.19442709069699,175.20000000006985" stroke="#4dd2ff" stroke-linecap="round" stroke-linejoin="round" stroke-width="0.5"><title>2023-10-09 1.0km</title><desc>10003389142</desc></polyline><polyline fill="none" points="147.60214570444077,175.20000000006985 148.68232044391334,176.53954084217548 149.7624951833859,179.05117779690772 150.3797378912568,184.07444339734502 152.69439804647118,189.09769791853614 154.70043684728444,194.79070631600916 155.62630091048777,196.46511784254108 156.3978542946279,196.80000000004657 156.3978542946279,195.46047107467894 153.46595143154263,190.7721136303153 149.60818450618535,181.39536978886463 148.06507773511112,175.36744264874142" stroke="#4dd2ff" stroke-linecap="round" stroke-linejoin="round" stroke-width="0.5"><title>2023-10-08 1.0km</title><desc>9996447828</desc></polyline><polyline fill="none" points="175.2273689210415,179.5200177859515 175.93829996697605,182.14288138831034 178.07109310477972,187.85145554482006 178.78202415117994,190.3200233434327 181.0570034980774,196.02857525658328 181.76793454401195,196.80000000004657 181.91012075310573,196.18286022811662 181.91012075310573,195.56572027492803 179.20858277892694,190.78287948237266 177.92890689568594,188.00574111705646 175.65392754832283,181.21716519689653 174.94299650238827,177.66858268063515 174.08987924689427,175.20000000006985" stroke="#4dd2ff" stroke-linecap="round" stroke-linejoin="round" stroke-width="0.5"><title>2023-10-07 1.0km</title><desc>9989974159</desc></polyline><polyline fill="none" points="20.23527786973864,205.6340659679845 21.364700032863766,209.31066617229953 22.211766655556858,211.14896384219173 23.90589990047738,218.3489474329399 24.329433212056756,219.72766485647298 25.176499834749848,220.80000000004657 25.8823886862956,220.80000000004657 26.164744226727635,220.18723712838255 26.02356645744294,219.72766485647298 24.329433212056756,217.27661102765705 22.635299966670573,213.60002487862948 22.07058888534084,211.14896384219173 19.10585570661351,203.94895537314005 18.682322395034134,201.3446908632759 17.835255772806704,199.20000000006985" stroke="#4dd2ff" stroke-linecap="round" stroke-linejoin="round" stroke-width="0.5"><title>2023-10-06 1.0km</title><desc>9984428862</desc></polyline><polyline fill="none" points="43.34980723820627,199.19999999995343 45.79727711249143,205.7508401402738 47.428923696279526,211.23936816002242 50.20272288657725,218.14427274046466 51.34487549494952,220.44590320182033 51.834369470365345,220.80000000004657 52.48702810332179,220.80000000004657 52.65019276086241,220.44590320182033 52.16069878637791,219.56066097668372 50.20272288657725,216.7278836716432 49.0605702791363,214.42624965729192 47.10259437933564,209.29182739160024 46.286771087907255,206.63608744111843 44.00246587116271,202.38689742889255 44.00246587116271,200.793449241668" stroke="#4dd2ff" stroke-linecap="round" stroke-linejoin="round" stroke-width="0.5"><title>2023-10-04 1.0km</title><desc>9971682885</desc></polyline><polyline fill="none" points="70.73075540456921,201.72263895755168 71.45725420350209,204.2452749478398 72.18375300196931,205.9795854698168 72.7649520416744,208.65988079027738 75.52564747771248,214.17812531418167 75.67094723787159,216.0700915964553 76.54274579696357,219.8540191539796 76.8333453158848,220.32700962922536 77.70514387497678,220.80000000004657 77.70514387497678,219.22336502477992 75.81624699803069,215.7547639987897 74.50854915985838,212.75914950715378 73.78205036045983,211.3401727611199 73.05555156106129,209.29053802613635 71.6025539636612,206.29491450509522 71.0213549239561,203.92994561127853 70.73075540456921,201.56497410975862 70.29485612502322,199.20000000006985" stroke="#4dd2ff" stroke-linecap="round" stroke-linejoin="round" stroke-width="0.5"><title>2023-10-03 1.0km</title><desc>9965060084</desc></polyline><polyline fill="none" points="96.05168626923114,200.09256578912027 98.02584313414991,206.51902978750877 98.35486927907914,209.37523054960184 99.50646078400314,210.8033296703361 100.32902614492923,212.94547677692026 101.80964379385114,218.47934805578552 102.96123529784381,220.26446513272822 103.7838006587699,220.80000000004657 103.94831373076886,220.6214883904904 103.454774514772,219.19339504395612 101.64513072185218,215.801669979468 98.68389542307705,208.66118067363277 96.87425162922591,203.30579991429113 96.54522548615932,199.19999999995343" stroke="#4dd2ff" stroke-linecap="round" stroke-linejoin="round" stroke-width="0.5"><title>2023-10-02 1.0km</title><desc>9958643020</desc></polyline><polyline fill="none" points="122.57615444716066,203.00161439389922 122.8946517072618,204.5568185101729 126.39812157675624,212.85122308298014 128.14985651057214,218.20801048050635 129.1053482927382,220.10880307410844 130.06084007490426,220.80000000004657 130.2200887054205,220.62720078765415 130.06084007490426,219.93600381095894 126.87586746737361,215.09761928464286 123.85014348942786,207.66722365492024 122.41690581571311,203.174414902227 121.7799112945795,199.20000000018626" stroke="#4dd2ff" stroke-linecap="round" stroke-linejoin="round" stroke-width="0.5"><title>2023-10-01 1.0km</title><desc>9952075403</desc></polyline><polyline fill="none" points="148.8986918758601,202.3304483613465 150.19691388169304,204.99132584920153 150.7739014388062,207.6522000116529 151.2066421075724,210.15654912649188 153.37034545000643,216.26088775217067 155.24555501388386,220.1739161274163 156.11103635048494,220.80000000004657 156.39953012997285,220.33043711271603 153.51459234021604,215.94784517178778 152.2163703343831,212.97393835918047 151.7836296656169,211.40872257889714 149.76417321292683,207.02611227263696 148.6101980963722,202.17392605240457 147.60046987002715,199.20000000006985" stroke="#4dd2ff" stroke-linecap="round" stroke-linejoin="round" stroke-width="0.5"><title>2023-09-30 1.0km</title><desc>9945549317</desc></polyline><polyline fill="none" points="174.65578072797507,199.19999999995343 176.0890175588429,201.61920987116173 176.56676316913217,203.52001588023268 177.84075146261603,206.63042239728384 178.47774561028928,211.29602445522323 178.95549122057855,212.67842328641564 180.86647366080433,217.34401333890855 181.3442192710936,220.28160232468508 181.66271634493023,220.62720078765415 182.1404619552195,220.80000000004657 182.29971049167216,220.4544015622232 179.43323683086783,215.27041890379041 177.52225438971072,210.7776246839203 176.8852602429688,208.18562411214225 174.65578072797507,203.00161439413205 173.70028950739652,199.89120307425037" stroke="#4dd2ff" stroke-linecap="round" stroke-linejoin="round" stroke-width="0.5"><title>2023-09-28 1.0km</title><desc>9933629332</desc></polyline><polyline fill="none" points="17.777497039176524,225.6545560109662 18.983926456421614,229.90911335172132 21.245981614105403,233.0182078036014 22.754018385894597,238.581839667866 24.865269865840673,242.345465102233 25.46848457492888,244.4727288366994 26.071699283085763,244.80000000004657 26.373306637629867,244.3090932368068 26.071699283085763,243.65455071767792 24.865269865840673,242.01819357764907 21.396785290911794,234.98184416710865 19.587141164578497,230.07275000982918 17.626693362370133,223.20000000006985" stroke="#4dd2ff" stroke-linecap="round" stroke-linejoin="round" stroke-width="0.5"><title>2023-09-27 1.0km</title><desc>9927137811</desc></polyline><polyline fill="none" points="49.794385640183464,223.19999999995343 49.36373308650218,225.2769517872366 48.933080532820895,226.4711962986621 48.59812854672782,227.92505645600613 46.63626691349782,232.027002906485 45.6314109552186,233.74046715319855 45.44000982004218,234.46739012288162 45.53571038739756,235.03854336001677 45.77496180613525,235.86931088013807 46.492716062115505,237.63468861562433 46.73196748108603,238.10199374804506 47.019069183385,238.93275766435545 47.97607485787012,240.1269790820661 48.40672741178423,241.06158573925495 48.88523024925962,241.78850117325783 49.2680325191468,242.82695049518952 49.84223592397757,243.60578648454975 50.55999017995782,244.79999999998836" stroke="#4dd2ff" stroke-linecap="round" stroke-linejoin="round" stroke-width="0.5"><title>2023-09-26 1.0km</title><desc>9920397094</desc></polyline><polyline fill="none" points="73.89912603562698,223.20000000001164 72.95763570303097,226.33786702319048 72.01614537020214,228.0162569397944 71.14190434664488,229.11085753014777 70.6711591805797,229.9865371331689 70.4694112520665,230.86221596354153 70.53666056110524,231.95681341498857 70.87290710909292,232.83249050704762 71.67989882268012,234.07303173147375 72.01614537020214,235.3135714053642 72.68863846478052,236.91897338739363 73.96637534513138,238.52437277277932 76.11835324857384,242.90272153465776 77.5305887479335,244.79999999998836" stroke="#4dd2ff" stroke-linecap="round" stroke-linejoin="round" stroke-width="0.5"><title>2023-09-25 1.0km</title><desc>9914573673</desc></polyline><polyline fill="none" points="101.59245867212303,223.20000000001164 101.06163911474869,224.00641070248093 100.95547520322725,224.40961574245011 101.06163911474869,224.92802191746887 101.1147210705094,225.44642774929525 100.05308195552789,227.40484668471618 99.7876721767243,228.72965671774 99.41609848686494,229.70886269339826 97.1866563456133,233.62567435624078 97.13357438985258,234.08647444064263 97.34590221266262,235.00807379680919 97.92980372603051,235.92967206868343 98.24829546036199,236.73606966715306 98.72603306197561,237.54246643558145 98.9914428407792,238.34886237385217 99.6815082654357,239.44325553410454 100.21232782257721,240.5376471655327 100.79622933617793,241.17124162177788 100.95547520322725,241.74723613733659 101.32704889331944,242.20803144481033 102.1232782297302,243.5904157414334 102.70717974286526,244.22400772874244 102.86642560991459,244.79999999998836" stroke="#4dd2ff" stroke-linecap="round" stroke-linejoin="round" stroke-width="0.5"><title>2023-09-24 1.0km</title><desc>9907510217</desc></polyline><polyline fill="none" points="126.8052497135941,223.19999999995343 126.3543098741211,223.8990368102095 126.03220998868346,224.59807310631732 125.83895005751401,225.50681952305604 125.77453008014709,226.69517891091527 124.67939046956599,228.1631502218661 124.03519069892354,229.84082894423045 123.45541090494953,230.6796671951306 123.0688910423778,231.7981170452549 123.00447106501088,232.98646856920095 124.35729058436118,236.4117087686318 124.87265040096827,237.46024921990465 126.54756980529055,240.1165465207887 127.25618955329992,241.86410648730816 128.15806923247874,242.98254318005638 128.6734290495515,243.89127202425152 128.99552893498912,244.79999999998836" stroke="#4dd2ff" stroke-linecap="round" stroke-linejoin="round" stroke-width="0.5"><title>2023-09-23 1.0km</title><desc>9901004991</desc></polyline><polyline fill="none" points="152.82940766238607,223.20000000001164 152.39934443007223,224.00000917632133 151.9692811977584,225.40002353605814 150.9862795236986,227.466707449581 150.00327784963883,228.8667164563667 149.14315138501115,231.20005999715067 149.0817137802951,232.46672969026258 149.2045889897272,233.2000639672042 150.43334108195268,236.1333951432607 150.617653895868,237.00005935650552 150.86340431426652,237.4667243589647 151.72353077912703,238.53338631999213 152.39934443007223,239.86671200639103 152.95228287158534,241.26670186739648 153.8738469411619,242.60002353484742 154.9182862197049,244.79999999998836" stroke="#4dd2ff" stroke-linecap="round" stroke-linejoin="round" stroke-width="0.5"><title>2023-09-22 1.0km</title><desc>9895405405</desc></polyline><polyline fill="none" points="179.1450217468664,223.19999999995343 178.96886455500498,223.83717584831174 178.6165501717478,224.2194811324589 177.8532023401931,225.62126573116984 177.55960702057928,226.6407440150506 176.67882106127217,228.87084857962327 175.7393160383217,230.78236220986582 175.15212539886124,232.18413619237253 174.97596820699982,232.88502233318286 174.97596820699982,233.33104049135 175.15212539886124,233.96820889046649 175.50443978235126,234.60537682118593 176.26778761390597,236.58059442898957 177.03113544499502,237.98235903232126 177.44216889259405,239.0018227742985 178.20551672391593,240.27615076530492 178.67526923539117,240.8495977499988 179.02758361888118,241.8690581190167 179.96708864206448,243.5256786608952 181.02403179300018,244.79999999998836" stroke="#4dd2ff" stroke-linecap="round" stroke-linejoin="round" stroke-width="0.5"><title>2023-09-21 1.0km</title><desc>9889267953</desc></polyline><polyline fill="none" points="24.199148574611172,247.19999999995343 23.42831299151294,249.51256180164637 22.974880296038464,251.3330835548113 22.249387982301414,252.85838175087702 21.387865860480815,255.41693865915295 19.891537964111194,258.22149941610405 19.4834485379979,259.746781910595 19.528791807359084,260.09120005724253 19.800851424690336,260.82923834602116 20.390313929645345,262.10850278503494 20.753060086164623,263.1909554002341 21.659925477812067,264.47021532442886 22.20404471294023,265.50346193969017 22.521447599865496,266.241494259506 22.884193756617606,266.8811216116301 23.473656261339784,267.3239401896135 24.199148574611172,268.40638436889276 24.244491844205186,268.60319221339887 24.516551461769268,268.79999999998836" stroke="#4dd2ff" stroke-linecap="round" stroke-linejoin="round" stroke-width="0.5"><title>2023-09-20 1.0km</title><desc>9882714971</desc></polyline><polyline fill="none" points="49.791003632126376,247.20000000001164 49.33045984106138,248.36608261422953 48.46054379106499,250.9203525246121 48.40937225869857,251.75326475786278 48.10234306450002,252.19748423999408 47.744142338167876,253.03039506456116 47.53945620870218,253.80777767213294 47.13008395000361,254.86279564508004 45.95313870580867,256.7507188655436 45.64610951161012,257.8612597316969 45.5437664471101,258.8607451149728 45.64610951161012,259.860229175305 45.95313870580867,260.9707654688973 46.31133943214081,261.7481399027747 47.43711314396933,263.6915724865976 48.0,264.46894411969697 48.51171532319859,265.85710576031124 49.023430646862835,266.7455278711859 49.53514597029425,267.4673700667918 50.098032826092094,268.0226328247227 50.45623355265707,268.79999999998836" stroke="#4dd2ff" stroke-linecap="round" stroke-linejoin="round" stroke-width="0.5"><title>2023-09-19 1.0km</title><desc>9876194288</desc></polyline><polyline fill="none" points="73.84100794629194,247.20000000001164 73.45942701748572,247.82109320326708 72.82345880288631,249.0632783769979 72.6326683384832,249.89140091248555 71.48792555183172,251.89269402367063 70.5975700514391,253.75596308422973 70.40677958680317,254.44606179761468 70.47037640865892,255.20516979601234 70.85195733746514,256.17130636097863 71.42432873044163,257.2064515767852 71.93310330249369,258.6556529609952 72.6326683384832,260.1738615350332 73.39583019609563,261.5540490167914 74.09539523231797,262.4511697916896 74.92215391132049,263.83135392481927 75.4309284829069,265.41856316884514 76.32128398376517,266.79874293867033 76.76646173396148,268.04090299631935 77.59322041319683,268.79999999998836" stroke="#4dd2ff" stroke-linecap="round" stroke-linejoin="round" stroke-width="0.5"><title>2023-09-18 1.0km</title><desc>9870505463</desc></polyline><polyline fill="none" points="100.2170412815176,247.19999999995343 99.90698230802082,247.8056144231232 99.47289974521846,249.82432627223898 98.91479359311052,250.7663902780041 98.66674641426653,251.50658274488524 97.30248693120666,253.7271565538831 96.80639257398434,254.93837636063108 96.49633360025473,256.0150148428511 96.74438077909872,256.7552030647639 98.10864026192576,259.7159499658155 98.7907700035721,260.79258282791125 99.28686436102726,261.9365038559772 100.09301769197918,263.0131341058295 100.52710025501437,263.75331666780403 101.08520640688948,265.5028367077466 103.50366639974527,268.79999999998836" stroke="#4dd2ff" stroke-linecap="round" stroke-linejoin="round" stroke-width="0.5"><title>2023-09-16 1.0km</title><desc>9856514700</desc></polyline><polyline fill="none" points="125.70141286822036,247.19999999995343 125.03788590896875,249.21602015919052 124.17530086194165,250.58403147483477 122.38377807172947,254.04005154868355 122.31742537557147,254.83205443120096 122.38377807172947,255.76805701170815 122.78189424728043,256.7040586976218 123.44542120676488,257.7120595127344 124.0425954698585,259.08005895931274 125.10423860489391,260.88005531951785 126.4312925238628,263.4000446656719 126.56399791548029,264.33603905688506 127.02846678695641,264.6960366614512 127.55928835459054,265.4160314735491 128.4218734013848,266.8560195097816 129.35081114433706,267.64801202714443 129.54986923234537,268.1520069320104 129.6825746241957,268.79999999998836" stroke="#4dd2ff" stroke-linecap="round" stroke-linejoin="round" stroke-width="0.5"><title>2023-09-15 1.0km</title><desc>9850671982</desc></polyline><polyline fill="none" points="152.5491250732448,247.20000000001164 151.45087492698804,250.10485439072363 150.21534351236187,251.89245295227738 149.6662184393499,252.86073418945307 148.84253082983196,254.94625986437313 148.63660892727785,255.69108942203457 148.63660892727785,256.28695267351577 148.84253082983196,257.03178124543047 149.6662184393499,259.2662636752357 150.42126541491598,260.7559158902732 152.2745625367388,263.958660734992 153.0296095123049,265.3738238363294 153.16689078020863,266.19312788615935 153.71601585345343,266.71450284548337 154.6083440973889,268.12966209702427 155.36339107272215,268.79999999998836" stroke="#4dd2ff" stroke-linecap="round" stroke-linejoin="round" stroke-width="0.5"><title>2023-09-14 1.0km</title><desc>9844236351</desc></polyline><polyline fill="none" points="174.56709610228427,247.19999999995343 174.96225050766952,247.52159278281033 175.110433409689,247.84318542375695 175.2092220110353,248.53996899235062 175.50558781507425,249.1295545687899 175.7031650179997,250.79111135465791 175.7031650179997,251.59508908487624 175.60437641642056,252.02387684507994 175.7031650179997,252.5598611907917 175.9501365213655,253.2030418853974 175.85134792001918,253.73902536404785 175.90074222069234,254.00701695558382 176.3946852274239,254.91818762995536 176.83923393371515,256.2581424351083 177.2343883391004,257.0085160502349 177.7283313460648,257.70529085828457 178.27166865346953,258.18767302751075 178.419851555489,258.5092609630665 178.56803445750847,259.2060343368212 178.96318886312656,259.9028070445638 179.40773756918497,261.1891549092252 180.00046917726286,262.31470742897363 180.29683498153463,263.279465348518 180.4450178835541,264.08342930604704 180.74138368782587,264.72659983392805 181.2847209952306,266.4953158595017 182.02563550556079,267.88884667569073 182.07502980646677,268.1032357955701 182.02563550556079,268.26402759418124 181.43290389725007,268.79999999998836 181.72926970152184,268.58561108488357 181.87745260354131,268.26402759418124 181.9762412046548,267.99604124354664 181.9268469044473,267.620860187104 181.63048110017553,267.2456789375865 180.74138368782587,265.31617231911514 180.29683498153463,263.8690390040283 179.35834326851182,261.7787302552606 178.9137945624534,259.74201340193395 178.66682305908762,259.15243640867993 177.7283313460648,257.91968297294807 176.78983963280916,256.15094614133704 176.34529092675075,254.70379463257268 176.1971080249641,253.73902536404785 175.8019536191132,252.7206564177177 175.01164480834268,251.00550550274784 174.81406760541722,250.20152712223353 174.12254739599302,248.91515986889135 173.97436449397355,248.21837665891508 173.9249701933004,247.36079640913522" stroke="#4dd2ff" stroke-linecap="round" stroke-linejoin="round" stroke-width="0.5"><title>2023-09-13 1.0km</title><desc>9837636972</desc></polyline></svg>