<?xml version="1.0" encoding="utf-8" ?>
<svg baseProfile="full" height="300mm" version="1.1" viewBox="0,0,200,300" width="200mm" xmlns="http://www.w3.org/2000/svg" xmlns:ev="http://www.w3.org/2001/xml-events" xmlns:xlink="http://www.w3.org/1999/xlink"><defs /><rect fill="#222222" height="300" width="200" x="0" y="0" /><text fill="#FFFFFF" style="font-size:12px; font-family:Arial; font-weight:bold;" x="10" y="20">Over 1km Runs</text><text fill="#FFFFFF" style="font-size:4px; font-family:Arial" x="10" y="280">ATHLETE</text><text fill="#FFFFFF" style="font-size:9px; font-family:Arial" x="10" y="290">Jiakai</text><text fill="#FFFFFF" style="font-size:4px; font-family:Arial" x="120" y="280">STATISTICS</text><text fill="#FFFFFF" style="font-size:3px; font-family:Arial" x="120" y="285">Number: 49</text><text fill="#FFFFFF" style="font-size:3px; font-family:Arial" x="120" y="290">Weekly: 5.4</text><text fill="#FFFFFF" style="font-size:3px; font-family:Arial" x="141" y="285">Total: 51.1 km</text><text fill="#FFFFFF" style="font-size:3px; font-family:Arial" x="141" y="290">Avg: 1.0 km</text><text fill="#FFFFFF" style="font-size:3px; font-family:Arial" x="167" y="285">Min: 1.0 km</text><text fill="#FFFFFF" style="font-size:3px; font-family:Arial" x="167" y="290">Max: 1.5 km</text><polyline fill="none" points="22.25064102280885,44.592105784337036 27.66410257667303,55.33333333337214 27.973443236202,55.16550204181112 27.20009158551693,53.3193570174044 25.808058614842594,50.96971573645715 24.880036634393036,48.62007203756366 23.0239926725626,46.60608979931567 22.405311353504658,45.43126600631513 21.941300362348557,41.40329412650317 21.631959702819586,40.22846765618306 19.77591574098915,37.039649903192185 18.693223430775106,31.33333333337214" stroke="#4dd2ff" stroke-linecap="round" stroke-linejoin="round" stroke-width="0.5"><title>2023-11-06 1.0km</title><desc>10167691585</desc></polyline><polyline fill="none" points="51.69274168368429,38.06717103580013 52.806590526364744,40.13911721413024 56.94374336767942,49.63551380787976 58.6940772626549,54.98801133129746 59.012319788336754,55.33333333325572 59.33056231494993,55.33333333325572 59.33056231494993,54.815350311109796 58.05759220942855,52.052772264694795 56.94374336767942,50.49882068531588 56.78462210483849,49.63551380787976 55.829894525930285,48.599545136559755 53.1248330520466,43.937680459348485 49.94240778964013,35.82256061350927 48.66943768505007,31.333333333255723" stroke="#4dd2ff" stroke-linecap="round" stroke-linejoin="round" stroke-width="0.5"><title>2023-11-05 1.1km</title><desc>10161301187</desc></polyline><polyline fill="none" points="80.17898664996028,31.333333333255723 83.38447237573564,38.463793540606275 84.82694095280021,44.72466770885512 87.07078096177429,49.072487242752686 87.87215239368379,52.550737116718665 88.67352382466197,55.33333333325572 89.15434668399394,54.811596791958436 88.9940723972395,54.28986013564281 86.91050667501986,50.46378780622035 86.75023238826543,49.94205019087531 84.82694095280021,46.98553486401215 84.02556952089071,44.20292882760987 81.94200379960239,40.376840183278546 81.46118094027042,37.07248591980897 80.49953522253782,33.594213287346065" stroke="#4dd2ff" stroke-linecap="round" stroke-linejoin="round" stroke-width="0.5"><title>2023-11-04 1.0km</title><desc>10155501797</desc></polyline><polyline fill="none" points="121.77234134403989,34.97892091772519 119.95262168860063,32.54852991004009 118.83279420854524,31.789032133412547 116.59313924843445,31.33333333337214 114.49346272321418,31.485232944833115 111.55391558725387,32.85232894227374 110.29410967230797,34.06752462522127 109.17428219225258,36.34601460280828 108.89432532247156,38.16880477545783 108.47439001733437,44.24476039852016 108.75434688711539,50.624494565068744 109.03430375736207,51.53588355181273 110.43408810766414,53.81435425858945 112.11382932821289,55.029537607799284 114.91339802835137,55.33333333337214 117.43300985870883,54.27004809852224 119.81264325417578,51.38398541533388 120.51253542909399,50.01690168399364 121.49238447425887,45.6118479501456 121.49238447425887,42.11817796342075 122.19227664917707,37.56120822974481 122.05229821428657,35.89031680836342 120.51253542909399,34.06752462522127 119.25272951368243,33.15612792992033 116.31318237818778,31.789032133412547 114.7734195929952,31.789032133412547 111.41393715329468,32.85232894227374 109.87417436763644,34.21942403516732 108.89432532247156,36.042216084199026 108.61436845222488,37.25740989029873 108.89432532247156,42.27007678162772 108.61436845222488,44.54855771025177" stroke="#4dd2ff" stroke-linecap="round" stroke-linejoin="round" stroke-width="0.5"><title>2023-11-03 1.0km</title><desc>10152446508</desc></polyline><polyline fill="none" points="141.0328531898558,31.333333333255723 142.34492970537394,34.18080184631981 143.4695667186752,39.26555975782685 145.3439617427066,42.926579667720944 148.1555542750284,50.24860495282337 148.71787278261036,51.468940616585314 149.65507029369473,54.72316642082296 150.21738880127668,55.33333333325572 150.9671468101442,55.33333333325572 150.9671468101442,54.926555406535044 149.65507029369473,54.31638840469532 149.0927517870441,52.89266487699933 147.78067527152598,51.67232984141447 146.8434777604416,49.02826875122264 145.53140124399215,46.99437388544902 144.03188522625715,43.94352878257632 142.34492970537394,37.63843824295327 141.22029269114137,34.994363740086555" stroke="#4dd2ff" stroke-linecap="round" stroke-linejoin="round" stroke-width="0.5"><title>2023-11-02 1.1km</title><desc>10144903556</desc></polyline><polyline fill="none" points="172.57967206649482,33.07247195043601 172.90022066235542,34.985522953327745 174.18241504672915,37.94205327797681 176.426255219616,45.94205798325129 180.27283837459981,53.942035633837804 181.39475846104324,55.33333333325572 180.75366126932204,53.24638647749089 178.34954679757357,49.59422504948452 177.06735241319984,44.898580642882735 175.4646094320342,42.63771149376407 173.54131785407662,38.463793540140614 171.93857487291098,31.333333333255723" stroke="#4dd2ff" stroke-linecap="round" stroke-linejoin="round" stroke-width="0.5"><title>2023-11-01 1.0km</title><desc>10138966680</desc></polyline><polyline fill="none" points="19.84104163106531,58.36090399394743 20.672539656050503,61.06768225389533 22.00293649546802,68.2857430211734 24.164831358008087,72.97747113718651 25.49522819649428,77.30828913021833 27.65712305996567,82.0 27.823422664776444,81.81954974750988 26.326726221479475,79.65414568618871 24.164831358008087,74.60152877983637 22.335535704158247,71.35341241932474 19.175843212753534,61.78948928578757 18.843244002200663,58.0" stroke="#4dd2ff" stroke-linecap="round" stroke-linejoin="round" stroke-width="0.5"><title>2023-10-31 1.0km</title><desc>10133123337</desc></polyline><polyline fill="none" points="50.23177441582084,60.84445688710548 51.05095389019698,65.11113594425842 51.05095389019698,66.7111386496108 52.85314873512834,69.73336309357546 57.76822558417916,80.22223039111122 58.58740505948663,81.82222309778444 58.91507684905082,82.0 55.14685126487166,74.53335885866545 53.50849231518805,69.91114088450558 51.706297470256686,66.17780453222804 49.08492315094918,58.0" stroke="#4dd2ff" stroke-linecap="round" stroke-linejoin="round" stroke-width="0.5"><title>2023-10-30 1.0km</title><desc>10127985445</desc></polyline><polyline fill="none" points="80.88335107406601,61.47370080999099 81.61091176467016,66.36845150659792 82.04744817921892,67.9474009644473 84.95769094349816,74.73687040584628 86.41281232517213,78.68422649335116 88.59549439838156,81.68421226751525 89.17754295188934,82.0 89.32305508898571,81.52631838375237 88.01344584580511,79.47369683999568 86.12178804911673,75.36844786733855 82.77500887028873,69.21055969514418 81.4653996261768,64.63160576228984 80.44681465858594,62.57896807184443 80.30130252055824,59.421060101361945 80.01027824450284,58.0" stroke="#4dd2ff" stroke-linecap="round" stroke-linejoin="round" stroke-width="0.5"><title>2023-10-28 1.0km</title><desc>10115543824</desc></polyline><polyline fill="none" points="112.22045087162405,62.977797356667 113.53113822452724,67.24447264941409 115.00566149502993,70.62225191714242 116.31634884793311,75.42224591784179 118.28237987775356,80.04445335851051 119.10155947227031,81.82222309848294 119.92073906771839,82.0 120.08457498718053,81.82222309848294 119.75690314825624,80.75556141114794 118.77388763427734,78.08890513516963 115.49716925341636,71.68891807436012 112.87579454760998,64.5778014739044 111.23743535671383,61.02223533159122 110.5820916807279,58.0" stroke="#4dd2ff" stroke-linecap="round" stroke-linejoin="round" stroke-width="0.5"><title>2023-10-27 1.0km</title><desc>10110442644</desc></polyline><polyline fill="none" points="142.74737358279526,61.705898019019514 145.83736868016422,72.11767612025142 146.97578792646527,75.29414180410095 148.11420717276633,77.2353132085409 149.4152577398345,80.94118153001182 149.90315170306712,81.647060562158 150.87893962860107,82.0 151.04157094843686,81.47059082356282 150.87893962860107,80.76471173972823 149.25262641813606,78.64707324421033 146.81315660569817,74.41179064684547 143.88579282909632,65.76473214151338 141.93421697802842,62.5882538468577 140.95842905249447,58.0" stroke="#4dd2ff" stroke-linecap="round" stroke-linejoin="round" stroke-width="0.5"><title>2023-10-26 1.0km</title><desc>10104873905</desc></polyline><polyline fill="none" points="175.4646096965298,69.47829124866985 179.1509177396074,78.69566662842408 180.91393463034183,81.82608783245087 181.555031680502,82.0 181.39475741889328,80.26087774802 177.06735232379287,72.78263749624602 174.66323838289827,66.69568030303344 172.57967296708375,62.34784414735623 171.77830165345222,58.0" stroke="#4dd2ff" stroke-linecap="round" stroke-linejoin="round" stroke-width="0.5"><title>2023-10-25 1.0km</title><desc>10098978222</desc></polyline><polyline fill="none" points="18.893618123605847,84.66666666674428 18.732173934578896,85.8929498991929 19.700839071534574,89.9221617905423 20.99239258747548,92.54990500560962 21.79961353354156,95.70319303846918 23.252611238509417,99.90757059096359 26.32005083747208,105.8637594259344 27.28871597442776,108.31630344199948 27.611604353412986,108.66666666674428 27.934492732398212,108.4914850606583 27.773048542439938,106.2141230108682 25.997162459418178,102.88566686934792 24.705608943477273,100.95866382028908 23.091167048551142,97.2798354900442 22.76827867049724,95.35282790777273 20.830948397517204,92.37472221488133 19.700839071534574,89.74697880633175 19.377950692549348,86.59368289145641 18.893618123605847,84.66666666674428" stroke="#4dd2ff" stroke-linecap="round" stroke-linejoin="round" stroke-width="0.5"><title>2023-10-24 1.0km</title><desc>10092835699</desc></polyline><polyline fill="none" points="51.53362150862813,88.8105690763332 53.92043940350413,97.27101379283704 55.03428775444627,99.34295479184948 56.307257297448814,104.52279929211363 58.21671161334962,107.97602261207066 59.012317578308284,108.66666666674428 58.21671161334962,107.80336156650446 57.10286326240748,105.04078311379999 54.2386817894876,101.58755547762848 53.602197017520666,100.37892460590228 52.96571224555373,96.40770450374112 51.05625792965293,92.60913986200467 49.78328838665038,88.6379066221416 48.987682421691716,84.66666666674428" stroke="#4dd2ff" stroke-linecap="round" stroke-linejoin="round" stroke-width="0.5"><title>2023-10-23 1.0km</title><desc>10087395010</desc></polyline><polyline fill="none" points="76.89632667903788,84.7817763366038 77.32064558612183,84.66666666668607 80.3439177996479,84.89688598946668 81.66991438460536,85.24221484659938 81.98815356497653,85.41487921809312 82.6776717894245,85.93287210387643 83.15503055974841,86.50841935275821 84.21582782757469,88.4652768332744 84.74622646183707,90.65234705177136 85.4357446860522,91.80343418597477 85.75398386619054,92.72430267452728 86.49654195364565,94.39337404910475 87.02694058790803,96.11999586381717 87.82253853883594,97.50129057350568 88.19381758244708,97.90416773804463 88.67117635323666,98.70992144505726 88.93637567013502,100.436533738859 89.0954952603206,100.89696304081008 89.51981416740455,101.5300528886728 89.62589389435016,102.50846346461913 89.78501348453574,102.91133805218851 92.11876747384667,108.43645433458732 92.43700665421784,108.66666666668607 92.43700665421784,108.37890124088153 91.95964788366109,107.91847633960424 91.42924924986437,106.65230646455893 90.89885061583482,105.55879447009647 89.46677430393174,101.12717759015504" stroke="#4dd2ff" stroke-linecap="round" stroke-linejoin="round" stroke-width="0.5"><title>2023-10-22 1.5km</title><desc>10080655811</desc></polyline><polyline fill="none" points="111.51607621018775,84.66666666668607 112.35811822256073,85.27581232169177 110.84244260028936,85.03215411340352 113.20016023493372,88.07787656562869 113.42470477172174,88.80884828808485 113.25629636924714,89.41799089725828 112.47039049095474,89.84439045743784 112.24584595416673,90.27078979794169 112.30198208848014,91.00175958534237 112.75107116159052,92.76826724241255 113.25629636924714,94.0474600911839 113.81765771075152,95.99670253874501 114.8281081255991,97.7631995457341 114.9965165280737,98.43324914923869 115.6140140038915,99.52969278604724 116.00696694315411,100.01700060348958 116.06310307700187,100.32156784366816 116.45605601649731,100.68704838427948 116.73673668713309,101.2961822602083 117.1296896263957,102.45353539072676 117.52264256542549,103.24540765379788 117.4665064313449,104.82914990943391 118.19627617532387,106.23015015054261 118.42082071211189,106.90019290678902 118.81377365114167,107.63114802277414 119.48740726104006,108.483928176458 119.82422406622209,108.66666666668607 118.53309298027307,106.83927995129488 118.2524123096373,105.86467205523513 117.69105096790008,104.64641057280824 117.4665064313449,103.85453964880435 116.73673668713309,102.8190149908769 116.11923921131529,101.05252876359737" stroke="#4dd2ff" stroke-linecap="round" stroke-linejoin="round" stroke-width="0.5"><title>2023-10-20 1.4km</title><desc>10069668027</desc></polyline><polyline fill="none" points="141.17069455352612,84.66666666668607 141.28499764110893,85.59691194648622 142.19942234107293,87.8294964316301 142.42802851623856,89.19385070796125 144.31402945960872,93.78302616771543 144.48548409086652,94.40318309853319 144.59978717844933,95.33341763989301 144.82839335338213,95.95357343088835 146.2000304032117,97.87605348508805 146.9430004719179,99.3644221307477 147.4002128217835,100.8527881501359 147.80027362843975,101.65898531413404 148.02887980337255,102.89928713877453 148.31463752221316,103.51943736715475 149.05760759068653,105.44190017780056 149.17191067826934,106.1860781541327 150.25779000949115,108.41860814375104 150.54354772809893,108.66666666668607 150.71500235935673,108.66666666668607 150.8293054467067,108.6046520426753 150.77215390326455,108.54263741424074 149.62912302836776,107.11629970109789 149.11475913459435,105.3798853168264 148.02887980337255,103.39540735789342 147.85742517211474,102.5892118535121 147.74312208453193,101.22487924469169" stroke="#4dd2ff" stroke-linecap="round" stroke-linejoin="round" stroke-width="0.5"><title>2023-10-19 1.3km</title><desc>10064004415</desc></polyline><polyline fill="none" points="171.2548505431041,84.66666666662786 173.60781407449394,87.73051030666102 173.4509498393163,89.94328374729957 173.76467830967158,92.15605507337023 174.862727958709,96.07095300708897 176.43137031327933,98.62414374563377 178.00001266784966,103.0496676893672 181.13729737792164,108.15603095886763 181.60789008438587,108.66666666662786 182.0784827908501,108.49645477626473 180.03924772888422,106.45391111995559 176.2745060781017,99.13478155538905 175.33332066517323,95.9007401909912 172.66662866156548,90.28371024259832" stroke="#4dd2ff" stroke-linecap="round" stroke-linejoin="round" stroke-width="0.5"><title>2023-10-18 1.0km</title><desc>10058081424</desc></polyline><polyline fill="none" points="19.14434538036585,112.78788541769609 20.484821525402367,120.60608821571805 24.003571406006813,129.878808330046 26.34940465912223,134.78788137435913 27.354761768132448,135.33333333325572 27.857440322637558,135.33333333325572 28.192559358663857,134.60606402833946 27.01964273210615,133.1515247754287 25.511607069522142,130.78789666621014 23.500892851501703,126.42426960589364 22.663095260970294,123.87881693197414 19.14434538036585,116.78789923968725 18.80922634433955,115.69698702078313 18.47410730831325,111.33333333325572" stroke="#4dd2ff" stroke-linecap="round" stroke-linejoin="round" stroke-width="0.5"><title>2023-10-17 1.0km</title><desc>10051702317</desc></polyline><polyline fill="none" points="48.640671683475375,111.88718207273632 50.342045752331614,114.84103995375335 52.89410685561597,121.4872074809391 54.25520611088723,124.07182343560271 55.786442772485316,128.87181743606925 57.65795424859971,133.67180226184428 58.338503875769675,134.96410430129617 59.189190910197794,135.33333333325572 59.35932831745595,135.14871882437728 59.189190910197794,134.5948752150871 57.3176794340834,131.82565533788875 54.765618331730366,125.54874564358033 52.89410685561597,121.67182299424894 51.36287019401789,114.47180790826678 50.512183158658445,111.33333333325572" stroke="#4dd2ff" stroke-linecap="round" stroke-linejoin="round" stroke-width="0.5"><title>2023-10-16 1.0km</title><desc>10046279660</desc></polyline><polyline fill="none" points="79.7515860227868,111.33333333325572 80.4537404011935,112.85714946663938 81.15589477866888,116.28573248977773 82.73574212845415,121.61907484172843 84.84220526088029,124.85717019881122 87.29974558297545,134.0000058321748 88.17743855528533,134.9523826886434 89.40620871540159,135.33333333325572 89.5817473102361,134.9523826886434 89.40620871540159,133.80953041883186 87.12420698814094,130.57144625065848 85.89543682802469,126.76193028269336 84.49112807307392,124.47621801379137 81.15589477866888,116.6666858792305 79.92712461855263,111.33333333325572" stroke="#4dd2ff" stroke-linecap="round" stroke-linejoin="round" stroke-width="0.5"><title>2023-10-15 1.0km</title><desc>10039610121</desc></polyline><polyline fill="none" points="110.33897609449923,113.07527618063614 110.87408579792827,118.68819529376924 112.30104500986636,122.75271545699798 114.08474402409047,125.26884384150617 115.1549634328112,128.75270994286984 118.18725175596774,134.17204804788344 118.9007313605398,134.94623829517514 119.79258086904883,135.33333333325572 120.32769057247788,134.94623829517514 120.32769057247788,134.36559563083574 116.76029254402965,131.46238038968295 114.4414838263765,127.20432557817549 113.5496343197301,123.52690906217322 111.40919550228864,118.68819529376924 110.33897609449923,114.62366885575466 110.51734599564224,112.10753029678017 110.33897609449923,111.33333333325572" stroke="#4dd2ff" stroke-linecap="round" stroke-linejoin="round" stroke-width="0.5"><title>2023-10-14 1.0km</title><desc>10033377496</desc></polyline><polyline fill="none" points="140.5583043731749,111.71428745100275 143.71799860801548,115.52382554416545 144.06907574553043,118.38097543781623 147.05323141161352,127.52383392467164 149.86184850893915,134.1904812315479 150.7395413517952,135.33333333325572 151.4416956268251,135.33333333325572 151.4416956268251,134.76190734561533 151.26615705806762,134.1904812315479 149.68630994018167,133.04762862576172 147.93092425446957,129.80954350507818 146.0,123.71431347634643 142.4892286285758,115.9047790451441 141.96261292230338,113.2381033601705 141.08492007944733,111.33333333325572" stroke="#4dd2ff" stroke-linecap="round" stroke-linejoin="round" stroke-width="0.5"><title>2023-10-13 1.0km</title><desc>10028006924</desc></polyline><polyline fill="none" points="171.5170896044001,111.33333333325572 173.20547552593052,113.53181623271666 174.21850707940757,115.36388383363374 174.38734567258507,117.74556970153935 174.21850707940757,120.31045962893404 176.07573159318417,124.15778957074508 178.27063329238445,130.0203761542216 180.4655349906534,134.0508964303881 180.97205076739192,134.78371759899892 181.81624372769147,135.33333333325572 181.81624372769147,134.41730704158545 179.95901921391487,132.0356371072121 178.27063329238445,129.10434791003354 176.07573159318417,123.05855305073783 174.7250228561461,120.67687226063572 174.0496684871614,118.66160212201066" stroke="#4dd2ff" stroke-linecap="round" stroke-linejoin="round" stroke-width="0.5"><title>2023-10-12 1.0km</title><desc>10021974100</desc></polyline><polyline fill="none" points="20.52733580302447,141.40299945976585 21.18757051602006,144.98509901948273 21.022511838003993,146.4179373686202 22.508039942011237,151.25376057485119 23.663450689986348,153.40301225171424 24.81886143889278,157.3433020687662 26.469448221847415,161.2835855127778 26.79956557881087,161.6417927823495 27.62485897075385,162.0 27.45980029180646,161.2835855127778 25.644154829904437,156.6268862124998 23.663450689986348,153.2239080176223 21.022511838003993,147.1343562270049 20.36227712407708,144.80599416652694 20.03215976804495,141.40299945976585 19.04180769715458,138.0" stroke="#4dd2ff" stroke-linecap="round" stroke-linejoin="round" stroke-width="0.5"><title>2023-10-10 1.0km</title><desc>10009069592</desc></polyline><polyline fill="none" points="49.934216977097094,141.0000131232664 51.07263622339815,144.17649351945147 52.211055469699204,148.41179417585954 54.65052528399974,153.70590948755853 56.60210113413632,160.41177212051116 57.740520380437374,162.0 58.065783022902906,161.47059082356282 58.22841434273869,159.52942284429446 57.089995097368956,156.1764926367905 54.65052528399974,151.941205680836 51.885792828164995,144.17649351945147 51.07263622339815,140.64707059715874 49.77158565632999,138.0" stroke="#4dd2ff" stroke-linecap="round" stroke-linejoin="round" stroke-width="0.5"><title>2023-10-09 1.0km</title><desc>10003389142</desc></polyline><polyline fill="none" points="79.78016189392656,138.0 80.98035604972392,139.4883787133731 82.18055020365864,142.27908644080162 82.86637543514371,147.860492663458 85.43822005204856,153.44188657589257 87.66715205367655,159.76745146210305 88.69588990043849,161.6279087138828 89.55317143909633,162.0 89.55317143909633,160.51163452723995 86.29550159163773,155.30234847799875 82.00909389648587,144.88374420977198 80.29453081730753,138.18604738730937" stroke="#4dd2ff" stroke-linecap="round" stroke-linejoin="round" stroke-width="0.5"><title>2023-10-08 1.0km</title><desc>9996447828</desc></polyline><polyline fill="none" points="112.2526321336627,142.8000197620131 113.04255551844835,145.71431265352294 115.41232567187399,152.05717282742262 116.20224905665964,154.80002593714744 118.73000388592482,161.1428613960743 119.51992727071047,162.0 119.67791194748133,161.31428914237767 119.67791194748133,160.628578083124 116.67620308697224,155.31431053578854 115.25434099510312,152.22860124101862 112.72658616490662,144.6857391076628 111.93666278012097,140.74286964489147 110.98875471856445,138.0" stroke="#4dd2ff" stroke-linecap="round" stroke-linejoin="round" stroke-width="0.5"><title>2023-10-07 1.0km</title><desc>9989974159</desc></polyline><polyline fill="none" points="144.03919763304293,145.14896218653303 145.29411114752293,149.23407352459617 146.23529628384858,151.27662649110425 148.1176665564999,159.2766082586022 148.58825912419707,160.80851650703698 149.52944426052272,162.0 150.31376520730555,162.0 150.6274935854599,161.31915236474015 150.47062939684838,160.80851650703698 148.58825912419707,158.0851233638823 146.70588885247707,154.00002764270175 146.07843209523708,151.27662649110425 142.78428411856294,143.27661708113737 142.31369155086577,140.38298984791618 141.3725064145401,138.0" stroke="#4dd2ff" stroke-linecap="round" stroke-linejoin="round" stroke-width="0.5"><title>2023-10-06 1.0km</title><desc>9984428862</desc></polyline><polyline fill="none" points="171.49978582002223,138.0 174.21919679176062,145.2787112670485 176.03213743958622,151.37707573338412 179.11413654126227,159.04919193382375 180.3831949941814,161.60655911336653 180.92707718908787,162.0 181.65225344896317,162.0 181.83354751206934,161.60655911336653 181.2896653180942,160.62295664078556 179.11413654126227,157.4754263018258 177.84507808741182,154.91805517463945 175.66954930964857,149.213141546119 174.7630789866671,146.2623193792533 172.22496207989752,141.54099714336917 172.22496207989752,139.77049915748648" stroke="#4dd2ff" stroke-linecap="round" stroke-linejoin="round" stroke-width="0.5"><title>2023-10-04 1.0km</title><desc>9971682885</desc></polyline><polyline fill="none" points="19.70083933789283,167.4695988416206 20.50806022528559,170.27252771984786 21.31528111360967,172.19953941064887 21.961057824082673,175.17764532240108 25.02849719673395,181.30902812676504 25.189941375516355,183.411212884821 26.158606440760195,187.6155768376775 26.481494795531034,188.1411218100693 27.450159860774875,188.66666666674428 27.450159860774875,186.91485002753325 25.351385553367436,183.0608488873113 23.898387954570353,179.7323883411009 23.091167067177594,178.15574751212262 22.283946178853512,175.87837558449246 20.669504404067993,172.54990500560962 20.02372769266367,169.92216179030947 19.70083933789283,167.29441567743197 19.21650680527091,164.66666666674428" stroke="#4dd2ff" stroke-linecap="round" stroke-linejoin="round" stroke-width="0.5"><title>2023-10-03 1.0km</title><desc>9965060084</desc></polyline><polyline fill="none" points="49.6129847439006,165.6584064324852 51.80649237148464,172.7989219862502 52.17207697685808,175.97247838857584 53.45162309333682,177.55925518926233 54.36558460537344,179.93941864091903 56.0107153262943,186.0881645064801 57.290261442773044,188.0716279251501 58.20422295387834,188.66666666674428 58.387015257030725,188.46832043398172 57.83863834943622,186.88155004871078 55.82792302407324,183.1129666438792 52.5376615813002,175.17908963747323 50.526946255005896,169.2286665714346 50.1613616514951,164.66666666674428" stroke="#4dd2ff" stroke-linecap="round" stroke-linejoin="round" stroke-width="0.5"><title>2023-10-02 1.0km</title><desc>9958643020</desc></polyline><polyline fill="none" points="80.86239382997155,168.89068265957758 81.21627967525274,170.61868723342195 85.10902397427708,179.83469231403433 87.05539612378925,185.78667831164785 88.1170536596328,187.89867008221336 89.17871119454503,188.66666666674428 89.3556541185826,188.47466754168272 89.17871119454503,187.70667090103962 85.6398527417332,182.33068809378892 82.27793721109629,174.07469294965267 80.6854509068653,169.08268322446384 79.97767921630293,164.66666666674428" stroke="#4dd2ff" stroke-linecap="round" stroke-linejoin="round" stroke-width="0.5"><title>2023-10-01 1.0km</title><desc>9952075403</desc></polyline><polyline fill="none" points="111.88743541762233,168.14494262379594 113.3299043122679,171.10147316590883 113.971001598984,174.0580000129994 114.45182456355542,176.84061014070176 116.85593938920647,183.6232086138334 118.93950557056814,187.9710179194808 119.9011515006423,188.66666666674428 120.22170014493167,188.144930125447 117.01621371135116,183.27538352436386 115.57374481577426,179.9710426214151 115.09292185120285,178.23191397683695 112.84908134769648,173.36234696977772 111.56688677426428,167.9710289472714 110.44496652204543,164.66666666674428" stroke="#4dd2ff" stroke-linecap="round" stroke-linejoin="round" stroke-width="0.5"><title>2023-09-30 1.0km</title><desc>9945549317</desc></polyline><polyline fill="none" points="142.28420080896467,164.66666666674428 143.87668617628515,167.35467763477936 144.4075146317482,169.4666843113955 145.82305718027055,172.92269155266695 146.53082845546305,178.1066938394215 147.06165691185743,179.64269254053943 149.18497073464096,184.82668148796074 149.715799190104,188.09066924988292 150.06968482770026,188.47466754191555 150.6005132831633,188.66666666674428 150.77745610196143,188.28266840265132 147.59248536732048,182.5226876710076 145.46917154360563,177.5306940935552 144.76140026934445,174.6506934580393 142.28420080896467,168.8906826605089 141.22254389710724,165.4346700827591" stroke="#4dd2ff" stroke-linecap="round" stroke-linejoin="round" stroke-width="0.5"><title>2023-09-28 1.0km</title><desc>9933629332</desc></polyline><polyline fill="none" points="171.97499671019614,167.3939511233475 173.31547384057194,172.121237057494 175.82886845991015,175.57578644854948 177.50446487311274,181.75759963109158 179.85029985103756,185.93940566922538 180.52053841669112,188.30303204082884 181.19077698048204,188.66666666674428 181.52589626424015,188.12121470761485 181.19077698048204,187.39394524204545 179.85029985103756,185.5757706419099 175.99642810039222,177.75760463019833 173.98571240529418,172.30305556650274 171.80743706878275,164.66666666674428" stroke="#4dd2ff" stroke-linecap="round" stroke-linejoin="round" stroke-width="0.5"><title>2023-09-27 1.0km</title><desc>9927137811</desc></polyline><polyline fill="none" points="25.327095155604184,191.33333333331393 24.848592318128794,193.6410575414193 24.370089480886236,194.96799588744761 23.997920607449487,196.5833960623131 21.81807434814982,201.14111434057122 20.701567727839574,203.0449635036057 20.488899799995124,203.85265569214243 20.595233763800934,204.48727040010272 20.861068673431873,205.41034542239504 21.65857340232469,207.371876239602 21.92440831195563,207.89110416453332 22.24341020360589,208.81417518266244 23.306749842129648,210.1410878690076 23.785252679605037,211.1795397103415 24.316922499099746,211.98722352588084 24.742258354322985,213.14105610584375 25.380262137623504,214.00642942730337 26.177766866516322,215.33333333331393" stroke="#4dd2ff" stroke-linecap="round" stroke-linejoin="round" stroke-width="0.5"><title>2023-09-26 1.0km</title><desc>9920397094</desc></polyline><polyline fill="none" points="53.88791781757027,191.33333333331393 52.84181744791567,194.81985224795062 51.79571707826108,196.68472993309842 50.824338163249195,197.9009528112947 50.3012879784219,198.87393014802365 50.077123613562435,199.8469066261896 50.15184506820515,201.06312601669924 50.52545234328136,202.03610056336038 51.42210980318487,203.41447970166337 51.79571707826108,204.7928571170778 52.54293162794784,206.5766370970523 53.96263927267864,208.36041419196408 56.35372583195567,213.22524614958093 57.922876386903226,215.33333333331393" stroke="#4dd2ff" stroke-linecap="round" stroke-linejoin="round" stroke-width="0.5"><title>2023-09-25 1.0km</title><desc>9914573673</desc></polyline><polyline fill="none" points="86.4360651911702,191.33333333331393 85.84626568318345,192.22934522503056 85.72830578149296,192.67735082493164 85.84626568318345,193.25335768604418 85.90524563402869,193.82936416583834 84.72564661735669,196.00538520526607 84.43074686313048,197.4773963530315 84.01788720767945,198.5654029926518 81.5407292728778,202.91741595137864 81.48174932226539,203.42941604513908 81.71766912518069,204.4534153297427 82.36644858447835,205.4774134096224 82.7203282895498,206.3734107412747 83.25114784669131,207.26940715062665 83.54604760091752,208.16540263762 84.31278696167283,209.38139503792627 84.90258646965958,210.59738573950017 85.55136592919007,211.30137957975967 85.72830578149296,211.9413734858972 86.14116543717682,212.45336827199208 87.02586469962262,213.98935082380194 87.67464415868744,214.6933419208508 87.85158401122317,215.33333333331393" stroke="#4dd2ff" stroke-linecap="round" stroke-linejoin="round" stroke-width="0.5"><title>2023-09-24 1.0km</title><desc>9907510217</desc></polyline><polyline fill="none" points="116.22805523732677,191.33333333331393 115.72701097093523,192.11004090023926 115.36912220949307,192.8867478959146 115.15438895253465,193.8964661367354 115.08281120005995,195.21686545660486 113.86598941055126,196.84794469096232 113.15021188743412,198.71203216025606 112.50601211655885,199.64407466124976 112.07654560240917,200.8867967170081 112.00496784993447,202.20718729909277 113.50810064910911,206.01300974289188 114.08072266750969,207.17805468878942 115.94174422812648,210.12949613423552 116.72909950348549,212.0712294303812 117.73118803603575,213.31393686670344 118.30381005490199,214.3236355825211 118.66169881657697,215.33333333331393" stroke="#4dd2ff" stroke-linecap="round" stroke-linejoin="round" stroke-width="0.5"><title>2023-09-23 1.0km</title><desc>9901004991</desc></polyline><polyline fill="none" points="146.92156406934373,191.33333333331393 146.44371603336185,192.2222324180766 145.9658679976128,193.77780392894056 144.87364391516894,196.07411938835867 143.7814198329579,197.62968495144742 142.82572376099415,200.2222888856777 142.7574597557541,201.6296996558085 142.89398776646703,202.44451551907696 144.2592678689398,205.70377238135552 144.46405988442712,206.6667326182942 144.73711590492167,207.1852492876933 145.6928119766526,208.3704292444163 146.44371603336185,209.85190222930396 147.058092079591,211.40744651929708 148.08205215679482,212.88891503866762 149.24254024401307,215.33333333331393" stroke="#4dd2ff" stroke-linecap="round" stroke-linejoin="round" stroke-width="0.5"><title>2023-09-22 1.0km</title><desc>9895405405</desc></polyline><polyline fill="none" points="177.93891305243596,191.33333333331393 177.74318283912726,192.04130649816943 177.35172241320834,192.4660901472089 176.5035581558477,194.02362859022105 176.1773411340546,195.15638223895803 175.19869006820954,197.634276199562 174.15479559847154,199.75818023324246 173.50236155441962,201.31570688041393 173.30663134111091,202.0944692590856 173.30663134111091,202.59004499041475 173.50236155441962,203.2980098783155 173.8938219808042,204.00597424578154 174.741986237932,206.20066047669388 175.59015049459413,207.75817670259858 176.04685432533734,208.89091419364559 176.8950185822323,210.30683418369154 177.4169658171013,210.94399749999866 177.80842624348588,212.07673124340363 178.85232071368955,213.91742073436035 180.02670199237764,215.33333333331393" stroke="#4dd2ff" stroke-linecap="round" stroke-linejoin="round" stroke-width="0.5"><title>2023-09-21 1.0km</title><desc>9889267953</desc></polyline><polyline fill="none" points="25.77683174959384,218.0 24.92034776858054,220.56951311294688 24.41653366223909,222.59231506095966 23.610431091627106,224.2870908343466 22.65318428957835,227.12993184349034 20.990597737953067,230.24611046235077 20.53716504224576,231.94086878962116 20.587546452647075,232.32355561922304 20.889834916684777,233.14359816221986 21.544793255394325,234.5650030944962 21.947844540467486,235.76772822253406 22.95547275338322,237.18912813829957 23.56004968122579,238.33717993297614 23.912719555664808,239.1572158439085 24.31577084073797,239.86791290179826 24.970729179447517,240.35993354400853 25.77683174959384,241.56264929880854 25.827213160460815,241.7813246815349 26.129501624498516,242.0" stroke="#4dd2ff" stroke-linecap="round" stroke-linejoin="round" stroke-width="0.5"><title>2023-09-20 1.0km</title><desc>9882714971</desc></polyline><polyline fill="none" points="55.99000403564423,218.0 55.47828871244565,219.29564734915039 54.51171532343142,222.1337250273209 54.45485806511715,223.0591830642661 54.11371451616287,223.5527602666407 53.71571370912716,224.4782167383819 53.48828467633575,225.34197519125883 53.03342661098577,226.51421738340287 51.725709673250094,228.61190985055873 51.384566124062985,229.8458441462717 51.27085160790011,230.95638346107444 51.384566124062985,232.0669213059009 51.725709673250094,233.3008505209582 52.12371048005298,234.16459989198484 53.37457015994005,236.32396942953346 54.0,237.18771568854572 54.56857258151285,238.73011751146987 55.13714516325854,239.71725319017423 55.70571774477139,240.51930007420015 56.33114758459851,241.13625869411044 56.72914839186706,242.0" stroke="#4dd2ff" stroke-linecap="round" stroke-linejoin="round" stroke-width="0.5"><title>2023-09-19 1.0km</title><desc>9876194288</desc></polyline><polyline fill="none" points="84.49000882916152,218.0 84.06603001942858,218.6901035591727 83.3593986700289,220.07030930777546 83.14740926492959,220.9904454583302 81.87547283549793,223.21410447073868 80.88618894596584,225.28440342692193 80.67419954086654,226.05117977509508 80.74486267613247,226.8946331066545 81.16884148609824,227.96811817889102 81.80480970046483,229.11827952973545 82.3701147804968,230.72850328998175 83.14740926492959,232.41540170559892 83.99536688439548,233.9489433519775 84.77266136929393,234.94574421300786 85.69128212356009,236.47928213869454 86.25658720335923,238.24284796538996 87.24587109312415,239.77638104296057 87.7405130378902,241.1565588848316 88.65913379238918,242.0" stroke="#4dd2ff" stroke-linecap="round" stroke-linejoin="round" stroke-width="0.5"><title>2023-09-18 1.0km</title><desc>9870505463</desc></polyline><polyline fill="none" points="115.57449031271972,218.0 115.22998034209013,218.67290491453605 114.7476663836278,220.9159180803108 114.12754843686707,221.96265586442314 113.85194046027027,222.78509193880018 112.33609659038484,225.25239617103944 111.7848806376569,226.59819595626323 111.44037066702731,227.79446093650768 111.71597864339128,228.61689229420153 113.23182251327671,231.9066110731801 113.98974444856867,233.10286980879027 114.54096040129662,234.37389317329507 115.43668632442132,235.57014900649665 115.9190002833493,236.39257407537661 116.53911823011003,238.33648523082957 119.2262959999498,242.0" stroke="#4dd2ff" stroke-linecap="round" stroke-linejoin="round" stroke-width="0.5"><title>2023-09-16 1.0km</title><desc>9856514700</desc></polyline><polyline fill="none" points="145.66823652060702,218.0 144.9309843434021,220.2400223991135 143.9725565132685,221.7600349721033 141.98197563551366,225.60005727631506 141.90825041756034,226.48006047913805 141.98197563551366,227.52006334636826 142.42432694183663,228.56006521964446 143.1615791185759,229.6800661252928 143.8251060778275,231.20006551034749 145.0047095613554,233.2000614661374 146.47921391529962,236.0000496285502 146.6266643507406,237.04004339658422 147.14274087455124,237.440040735004 147.7325426163152,238.2400349706295 148.69097044644877,239.84002167754807 149.72312349407002,240.72001336351968 149.94429914699867,241.28000770224025 150.09174958290532,242.0" stroke="#4dd2ff" stroke-linecap="round" stroke-linejoin="round" stroke-width="0.5"><title>2023-09-15 1.0km</title><desc>9850671982</desc></polyline><polyline fill="none" points="177.27680563740432,218.0 176.05652769701555,221.22761598968646 174.6837150142528,223.21383661363507 174.0735760438256,224.28970465494785 173.15836758865044,226.60695540485904 172.92956547485664,227.4345438022865 172.92956547485664,228.0966140817036 173.15836758865044,228.9242013837793 174.0735760438256,231.4069596391637 174.9125171280466,233.06212876690552 176.97173615219072,236.6207341499976 177.81067723594606,238.19313759589568 177.96321197832003,239.10347542905947 178.57335094874725,239.68278093944537 179.56482677487656,241.25518010777887 180.4037678586319,242.0" stroke="#4dd2ff" stroke-linecap="round" stroke-linejoin="round" stroke-width="0.5"><title>2023-09-14 1.0km</title><desc>9844236351</desc></polyline><polyline fill="none" points="19.51899566920474,244.66666666668607 19.958056119736284,245.02399198093917 20.122703788802028,245.38131713756593 20.232468901434913,246.15552110265708 20.56176423910074,246.81061618757667 20.78129446459934,248.65679039410315 20.78129446459934,249.5500989832217 20.671529351966456,250.02652982791187 20.78129446459934,250.6220679898397 21.05570724606514,251.33671320602298 20.945942133665085,251.93225040455582 21.000824689865112,252.2300188395311 21.54965025302954,253.242430699931 22.04359325999394,254.7312693723943 22.482653710292652,255.56501783360727 23.03147927345708,256.3392120648059 23.635187393054366,256.87519225286087 23.79983506188728,257.2325121812755 23.964482730953023,258.0067048187484 24.403543181484565,258.7808967162273 24.897486188216135,260.21017212141305 25.55607686401345,261.4607860322576 25.885372201912105,262.53273927618284 26.05001987097785,263.4260325622745 26.379315208876505,264.1406664822134 26.98302332824096,266.105906510551 27.806261673104018,267.6542740841396 27.861144229536876,267.8924842173583 27.806261673104018,268.0711417713319 27.147670997306705,268.66666666668607 27.47696633520536,268.42845676100114 27.641614004038274,268.0711417713319 27.75137911667116,267.7733791595092 27.696496560703963,267.35651131905615 27.367201222572476,266.93964326399146 26.379315208876505,264.7957470212714 25.885372201912105,263.18782111565815 24.842603632016107,260.8652558392496 24.348660625051707,258.6022371132858 24.07424784358591,257.947151565284 23.03147927345708,256.5774255255237 21.988710703561082,254.61216237925692 21.494767696596682,253.0042162584723 21.3301200279966,251.93225040455582 20.891059577232227,250.80072935303906 20.012938676169142,248.89500611420954 19.79340845090337,248.0016968025011 19.025052662473172,246.572399854369 18.86040499340743,245.7981962877093 18.8055224372074,244.8453293435159" stroke="#4dd2ff" stroke-linecap="round" stroke-linejoin="round" stroke-width="0.5"><title>2023-09-13 1.0km</title><desc>9837636972</desc></polyline></svg>