<?xml version="1.0" encoding="utf-8" ?>
<svg baseProfile="full" height="300mm" version="1.1" viewBox="0,0,200,300" width="200mm" xmlns="http://www.w3.org/2000/svg" xmlns:ev="http://www.w3.org/2001/xml-events" xmlns:xlink="http://www.w3.org/1999/xlink"><defs /><rect fill="#222222" height="300" width="200" x="0" y="0" /><text fill="#FFFFFF" style="font-size:12px; font-family:Arial; font-weight:bold;" x="10" y="20">Over 1km Runs</text><text fill="#FFFFFF" style="font-size:4px; font-family:Arial" x="10" y="280">ATHLETE</text><text fill="#FFFFFF" style="font-size:9px; font-family:Arial" x="10" y="290">Jiakai</text><text fill="#FFFFFF" style="font-size:4px; font-family:Arial" x="120" y="280">STATISTICS</text><text fill="#FFFFFF" style="font-size:3px; font-family:Arial" x="120" y="285">Number: 107</text><text fill="#FFFFFF" style="font-size:3px; font-family:Arial" x="120" y="290">Weekly: 5.3</text><text fill="#FFFFFF" style="font-size:3px; font-family:Arial" x="141" y="285">Total: 110.6 km</text><text fill="#FFFFFF" style="font-size:3px; font-family:Arial" x="141" y="290">Avg: 1.0 km</text><text fill="#FFFFFF" style="font-size:3px; font-family:Arial" x="167" y="285">Min: 1.0 km</text><text fill="#FFFFFF" style="font-size:3px; font-family:Arial" x="167" y="290">Max: 1.5 km</text><polyline fill="none" points="11.19354838738218,34.64453075372148 11.0,35.379597726860084 11.19354838738218,36.63971165835392 12.45161290280521,40.42004678188823 12.741935483645648,41.15511078282725 13.225806451868266,41.78516533994116 13.903225806541741,43.57031840865966 14.774193548597395,44.41038966923952 15.45161290327087,44.83042511402164 18.161290322430432,45.35546924639493 19.322580644860864,45.145451616845094 21.064516128972173,45.145451616845094 23.580645161680877,44.41038966923952 26.774193548131734,43.045273620053194 27.64516129018739,42.41521961882245 28.806451613083482,41.89017440576572 29.0,41.57514718535822 28.612903226166964,39.47496393905021" stroke="#4dd2ff" stroke-linecap="round" stroke-linejoin="round" stroke-width="0.5"><title>2024-03-08 1.0km</title><desc>10912839308</desc></polyline><polyline fill="none" points="31.0,33.72929082158953 31.94736842159182,35.579671095707454 35.64210526365787,45.448324535624124 36.210526316426694,46.06511306297034 38.01052631577477,46.270709178294055 40.94736842159182,45.7567188332323 43.78947368450463,44.93433388811536 47.95789473736659,42.98116770538036 48.71578947408125,42.15878112777136 49.0,41.23359565017745 48.90526315802708,40.82240190776065" stroke="#4dd2ff" stroke-linecap="round" stroke-linejoin="round" stroke-width="0.5"><title>2024-03-07 1.0km</title><desc>10906173208</desc></polyline><polyline fill="none" points="51.0,33.628689803997986 51.28877005307004,36.76213164476212 52.05882352916524,39.164432375808246 54.754010695032775,45.22239009453915 55.042780748568475,45.74462661962025 55.81283422419801,46.162415701313876 56.87165775382891,46.37131019611843 57.64171122945845,46.37131019611843 58.60427807457745,46.05796844221186 59.95187165774405,45.95352117565926 62.262032085098326,45.535732032498345 66.6898395717144,43.76012680330314 68.32620320795104,42.82009960699361 69.0,42.19341446401086 69.0,41.671176633564755" stroke="#4dd2ff" stroke-linecap="round" stroke-linejoin="round" stroke-width="0.5"><title>2024-03-06 1.0km</title><desc>10898894581</desc></polyline><polyline fill="none" points="71.0,33.65985866403207 71.0942408372648,33.96664106100798 71.47120418818668,35.19376997172367 72.41361256549135,39.89775410166476 72.97905759187415,40.920357242110185 73.9214659682475,43.57912188931368 75.14659685827792,45.215282222721726 75.52356020919979,45.9311017638538 76.18324607331306,46.23788145405706 77.5968586388044,46.34014133596793 81.64921465935186,46.03336166823283 83.62827225122601,45.215282222721726 84.57068062806502,44.70398232527077 87.30366492131725,43.78364203614183 87.96335078543052,43.067821390228346 88.62303664861247,42.863301138044335 89.0,42.352000375743955 88.52879581134766,40.920357242110185" stroke="#4dd2ff" stroke-linecap="round" stroke-linejoin="round" stroke-width="0.5"><title>2024-03-05 1.0km</title><desc>10891326638</desc></polyline><polyline fill="none" points="104.99270072975196,47.377882411761675 107.81751824822277,46.094781341496855 108.8686131387949,45.16809617925901 109.0,44.59782794682542 108.54014598554932,43.17215589864645 108.01459854026325,41.8177655111067 106.96350364969112,40.32080551341642 106.43795620440505,39.821818333817646 104.86131386877969,37.25559449708089 103.08759124088101,34.903216679929756 103.21897810208611,34.26165810279781 103.08759124088101,33.97652082127752 102.23357664234936,32.62211758829653 99.34306569350883,32.83597085613292 98.35766423353925,33.19239286438096 96.64963503624313,33.40624600643059 94.81021897797473,34.19037379033398 93.56204379559495,35.04578519478673 92.37956204358488,35.33092216210207 91.78832116769627,35.75862745550694 91.32846715324558,35.82991165283602 91.13138686143793,36.043764213100076 91.0,36.47146919200895 91.19708029180765,36.82788986392552 91.2627737224102,37.612014880462084 91.59124087565579,38.68127524480224 91.45985401445068,39.96438612561906 91.85401459853165,40.891076261294074 91.78832116769627,42.17418421758339" stroke="#4dd2ff" stroke-linecap="round" stroke-linejoin="round" stroke-width="0.5"><title>2024-03-04 1.0km</title><desc>10884866628</desc></polyline><polyline fill="none" points="111.0,33.371356112184 111.18652849784121,34.78817158623133 111.65284974081442,36.30618654761929 111.65284974081442,36.91339206311386 112.11917098471895,38.12780229107011 112.58549222862348,39.94941562402528 113.79792746109888,42.8842320345575 115.56994818663225,45.616641688742675 116.59585492266342,46.42624350753613 117.71502590691671,46.628643887816 120.41968911932781,46.32504330622032 124.15025906730443,45.51544142793864 125.26943005202338,44.705839073169045 126.85492227971554,43.997436622390524 129.0,42.68183110374957" stroke="#4dd2ff" stroke-linecap="round" stroke-linejoin="round" stroke-width="0.5"><title>2024-03-03 1.0km</title><desc>10877188327</desc></polyline><polyline fill="none" points="131.0,45.89884775434621 132.44966442976147,47.209696433274075 133.65771812107414,47.734035635367036 134.26174496673048,47.734035635367036 136.7986577176489,47.471866053529084 141.87248322181404,46.16101756738499 146.70469798659906,44.19474303117022 148.7583892615512,42.62172184092924 149.0,42.359551507630385 148.7583892615512,40.91761398559902 148.03355704713613,39.082419089158066 144.04697986552492,32.265964364632964" stroke="#4dd2ff" stroke-linecap="round" stroke-linejoin="round" stroke-width="0.5"><title>2024-03-02 1.0km</title><desc>10870189784</desc></polyline><polyline fill="none" points="159.9468319863081,31.0 160.47851212508976,32.26923753414303 160.6911841807887,33.07693361258134 160.79752020863816,34.92309451638721 164.2002730993554,43.000022937194444 164.94462529430166,45.192324908101 164.94462529430166,45.538477571099065 164.41294515505433,46.00001433584839 162.71156870992854,46.92308745859191 160.2658400698565,47.50000788480975 157.5011033457704,48.65384810080286 156.01239895634353,49.0 155.58705484494567,48.76923207566142 155.05537470569834,46.69231922866311" stroke="#4dd2ff" stroke-linecap="round" stroke-linejoin="round" stroke-width="0.5"><title>2024-01-19 1.0km</title><desc>10585384707</desc></polyline><polyline fill="none" points="176.7519228295423,33.26574467669707 176.86792558571324,35.15386295004282 177.0999310980551,36.03498409828171 179.3039834634401,39.93708659056574 180.34800826851279,42.32869339955505 180.92802204936743,44.34267548972275 181.97204685397446,46.3566552111879 182.0880496101454,48.244759048335254 182.7840661467053,48.87412653141655 183.13207441521809,49.0 183.59608543897048,48.87412653141655 183.48008268373087,48.37063256360125 182.7840661467053,47.237770594190806 179.41998621961102,39.55946415744256 177.3319366099313,35.279737427830696 176.40391456102952,31.0" stroke="#4dd2ff" stroke-linecap="round" stroke-linejoin="round" stroke-width="0.5"><title>2024-01-17 1.0km</title><desc>10572816563</desc></polyline><polyline fill="none" points="16.63048108154908,51.0 17.66725613363087,55.07813984097447 19.870403118431568,62.25001984962728 21.425565695855767,65.20313909614924 22.33274386683479,68.01562937779818 22.980728273745626,68.85937565623317 23.36951891845092,69.0 23.36951891845092,68.4375025635818 20.647984407376498,62.67189430666622 18.185643659438938,56.34376767894719 16.63048108154908,53.25000926339999" stroke="#4dd2ff" stroke-linecap="round" stroke-linejoin="round" stroke-width="0.5"><title>2024-01-16 1.0km</title><desc>10566280205</desc></polyline><polyline fill="none" points="36.382980935275555,51.40601697796956 38.25385286472738,55.330843146541156 39.75055040931329,60.473706149845384 41.49669754365459,63.99249887350015 42.993395088240504,68.32331145426724 43.36756947403774,69.0 43.617019064724445,69.0 39.875275204889476,61.28573583706748 39.002201637253165,58.57896882027853 38.378577660769224,56.142875102348626 37.50550409313291,54.38347207882907 36.63243052596226,51.0" stroke="#4dd2ff" stroke-linecap="round" stroke-linejoin="round" stroke-width="0.5"><title>2024-01-09 1.0km</title><desc>10520988068</desc></polyline><polyline fill="none" points="56.75715460581705,52.4887284807628 57.38077871967107,55.060165748465806 58.628026948310435,57.76693793933373 60.87307375948876,64.66918901109602 62.61922127986327,68.59398690296803 62.99339574761689,69.0 63.24284539418295,68.72932461183518 62.86867092549801,67.24060926469974 62.24504681117833,66.29324432567228 60.37417446868494,61.42107408342417 58.628026948310435,57.76693793933373 57.13132907403633,51.0" stroke="#4dd2ff" stroke-linecap="round" stroke-linejoin="round" stroke-width="0.5"><title>2024-01-07 1.0km</title><desc>10508221625</desc></polyline><polyline fill="none" points="78.58691426226869,56.333351957728155 78.83266830444336,57.66668749670498 79.93856148933992,60.4666889377404 80.9215776543133,63.80001835001167 82.88760998379439,68.60000194073655 83.37911806628108,69.0 83.37911806628108,68.06667105806991 82.27322488091886,66.20001173368655 81.65883977804333,64.20001746760681 79.20129936560988,59.000022055231966 78.34116022149101,56.73335272236727 77.72677511861548,55.666683820891194 76.62088193325326,51.0" stroke="#4dd2ff" stroke-linecap="round" stroke-linejoin="round" stroke-width="0.5"><title>2024-01-06 1.0km</title><desc>10501510624</desc></polyline><polyline fill="none" points="97.62194332526997,54.27274134848267 98.54996544169262,56.53848169394769 99.24598202994093,59.43358999455813 100.40600967640057,63.20981085568201 101.68204008741304,65.97903419390786 102.49405943974853,67.99301199009642 102.95807049795985,68.74825305328704 103.42208155663684,69.0 103.30607879208401,68.11888552387245 102.72606496885419,66.73427614511456 98.89797373628244,59.43358999455813 98.20195714849979,57.29372780956328 97.96995161892846,55.27973742748145 97.15793226659298,53.139870051061735 96.57791844336316,51.0" stroke="#4dd2ff" stroke-linecap="round" stroke-linejoin="round" stroke-width="0.5"><title>2024-01-05 1.0km</title><desc>10495609202</desc></polyline><polyline fill="none" points="116.20652863197029,51.0 116.9780821306631,52.81396122346632 117.62104337941855,54.76745598623529 118.52118912758306,56.58141360874288 120.19288837490603,61.325602270895615 122.25036437064409,66.06977907463443 123.0219178693369,68.58139728754759 123.53628686862066,69.0 123.79347136802971,68.30232876108494 123.66487911809236,67.32558859628625 120.57866512425244,61.046532678068615 119.54992712615058,57.41862423438579 118.52118912758306,51.55814209987875" stroke="#4dd2ff" stroke-linecap="round" stroke-linejoin="round" stroke-width="0.5"><title>2024-01-04 1.0km</title><desc>10489071805</desc></polyline><polyline fill="none" points="137.49954325752333,54.30883703043219 139.08519875304773,58.67649259837344 141.03677474707365,63.04413756961003 142.01256274431944,66.75000984175131 142.8663772419095,69.0 142.98835074156523,69.0 142.98835074156523,68.07353380450513 142.3784832432866,65.82354248885531 141.15874824672937,63.04413756961003 140.18296024994925,60.2647283594124 138.59730475442484,57.08825543615967 137.6215167576447,54.176483665942214 137.01164925890043,52.32353554200381 137.3775697578676,51.0" stroke="#4dd2ff" stroke-linecap="round" stroke-linejoin="round" stroke-width="0.5"><title>2024-01-03 1.0km</title><desc>10482519748</desc></polyline><polyline fill="none" points="156.3670011209324,51.297521962667815 159.52016995940357,60.52068110543769 162.8104330948554,68.40496123710182 163.49590458115563,69.0 163.6329988790676,68.40496123710182 163.22171598719433,67.36364297999535 159.7943585542962,60.81820166797843 158.56050987821072,57.54547307221219 156.77828401280567,51.0" stroke="#4dd2ff" stroke-linecap="round" stroke-linejoin="round" stroke-width="0.5"><title>2024-01-01 1.0km</title><desc>10470902913</desc></polyline><polyline fill="none" points="187.61672993563116,55.40818125801161 187.39104904886335,55.77552916947752 185.02139973500744,57.48981835064478 184.00583574408665,58.59186046384275 183.32879308285192,59.81635084503796 182.8774313093163,60.42859569785651 182.53890997869894,60.55104464129545 181.0719842137769,60.55104464129545 179.71789889177307,61.040840325760655 177.912451795768,60.918391417944804 177.0097282472998,60.55104464129545 176.44552603038028,59.69390184734948 176.1070046997629,58.95920767285861 175.994164256379,57.24492000427563 175.65564292529598,56.510224749101326 174.30155760375783,56.510224749101326 173.17315316898748,56.87757241737563 173.06031272560358,57.00002162193414 173.51167449960485,57.24492000427563 173.737355385907,57.00002162193414 172.94747228221968,57.00002162193414 172.7217913949862,56.7551232035039 172.49611050775275,55.89797845506109 172.38327006436884,54.42858643166255 172.94747228221968,54.55103581654839 173.3988340566866,55.530630571069196 174.4143980476074,56.63267398066819 175.20428115176037,56.63267398066819 175.8813238129951,56.142876999801956 176.44552603038028,56.26532625826076 176.55836647376418,56.020427731913514 175.54280248237774,53.081642604316585 175.31712159514427,52.959193111164495 174.07587671652436,52.83674360951409 172.83463183837011,52.959193111164495 173.62451494298875,52.959193111164495 172.49611050775275,51.734697686857544 172.38327006436884,51.0 172.7217913949862,51.489798494149 173.06031272560358,53.081642604316585 173.3988340566866,53.81633937230799 173.737355385907,55.40818125801161 173.06031272560358,59.571452840580605 173.85019582975656,63.36736785795074 174.5272384909913,64.46940608078148 174.6400789343752,66.30613483092748 175.65564292529598,69.0" stroke="#4dd2ff" stroke-linecap="round" stroke-linejoin="round" stroke-width="0.5"><title>2023-12-31 1.5km</title><desc>10466792666</desc></polyline><polyline fill="none" points="17.61318105319515,75.27339794603176 18.92593147419393,79.93527479015756 20.716045684646815,83.6906666085124 22.26747800037265,88.09352957841475 22.74484178982675,89.0 22.983523684553802,89.0 23.102864631451666,87.96403376583476 22.625500842463225,86.5395791985793 20.477363789919764,82.13671234436333 20.477363789919764,80.97124574659392 18.92593147419393,77.60433791065589 18.68724957946688,75.01440442644525 18.209885790478438,73.46044250787236 16.897135369013995,71.0" stroke="#4dd2ff" stroke-linecap="round" stroke-linejoin="round" stroke-width="0.5"><title>2023-12-30 1.0km</title><desc>10458865202</desc></polyline><polyline fill="none" points="40.978762291837484,71.0 38.71215487923473,71.2236037919065 37.16674073366448,72.22982044820674 36.033437027130276,73.34783817408606 35.51829897845164,74.68945835984778 35.10618853988126,79.94412601995282 35.621326588094234,85.19877551647369 35.827381807379425,85.98138133413158 36.13646463630721,86.65218599990476 37.78490639152005,88.44099699554499 39.63940336601809,89.0 41.08178990148008,88.77639882266521 42.833259265869856,87.65839244390372 43.86353536276147,86.76398674899247 44.89381145965308,83.74536364292726 44.790783850476146,81.39754152763635 44.4817010210827,79.38511968532111 44.27564580226317,74.46585507784039 43.966562972869724,73.23603643861134 43.34839731454849,72.45342405920383 42.627204046584666,71.89441497006919 40.978762291837484,71.5590094178915 38.71215487923473,71.67081127688289 37.06371312355623,72.56522585242055 36.239492246415466,73.57144162070472 35.621326588094234,75.13666482537519 35.621326588094234,75.9192758233985 35.93040941702202,77.81990085518919 35.72435419820249,79.38511968532111" stroke="#4dd2ff" stroke-linecap="round" stroke-linejoin="round" stroke-width="0.5"><title>2023-12-29 1.0km</title><desc>10454615358</desc></polyline><polyline fill="none" points="57.48660630453378,72.90909918991383 59.24598189117387,79.18183983606286 62.01071495609358,87.6363697515335 62.890402750112116,89.0 63.0160724343732,89.0 63.0160724343732,87.6363697515335 61.131027163006365,81.90911176113877 59.622990945819765,78.22729371488094 58.617633467540145,76.31819999904837 56.98392756516114,71.0" stroke="#4dd2ff" stroke-linecap="round" stroke-linejoin="round" stroke-width="0.5"><title>2023-12-27 1.0km</title><desc>10441997651</desc></polyline><polyline fill="none" points="76.60691900970414,73.31819161761086 78.61763367056847,77.27274710254278 79.6229910007678,81.36365769722033 81.00535733019933,83.9545630736975 82.63906299276277,88.1818219712004 83.14174165716395,89.0 83.39308099029586,88.86363702046219 82.51339332573116,86.27273850073107 81.25669666333124,84.36365306563675 77.2352673416026,74.81819641485345 76.98392800893635,72.22727827634662 76.60691900970414,71.0" stroke="#4dd2ff" stroke-linecap="round" stroke-linejoin="round" stroke-width="0.5"><title>2023-12-17 1.0km</title><desc>10391591057</desc></polyline><polyline fill="none" points="97.07950775464997,74.16902771452442 98.481344032567,77.84509256517049 100.81773782847449,82.40847251110245 102.92049224441871,88.49296031869017 103.3877710038796,89.0 103.50459069386125,88.87324009358417 103.50459069386125,88.36620037502144 102.92049224441871,86.71832025947515 99.76636062003672,80.50706566812005 98.36452434258536,76.7042456913041 97.31314713414758,72.39437291189097 96.49540930567309,71.0" stroke="#4dd2ff" stroke-linecap="round" stroke-linejoin="round" stroke-width="0.5"><title>2023-12-16 1.0km</title><desc>10386207035</desc></polyline><polyline fill="none" points="117.56786756357178,74.38347207952756 118.06676652468741,76.68422954087146 119.8129128892906,81.96242696943227 120.81071081198752,83.58648467215244 122.18268295563757,88.05263596656732 122.55685717659071,89.0 122.80630665738136,89.0 122.80630665738136,87.64662266056985 120.93543555215001,81.96242696943227 118.3162160050124,77.90227644436527 118.19149126531556,76.27821372705512 117.44314282340929,74.38347207952756 117.69259230373427,73.16542284714524 117.19369334261864,71.0" stroke="#4dd2ff" stroke-linecap="round" stroke-linejoin="round" stroke-width="0.5"><title>2023-12-14 1.0km</title><desc>10376526598</desc></polyline><polyline fill="none" points="143.8635347946547,72.56522585265338 142.9362864443101,71.7826131277252 141.39087252598256,71.11180190031882 139.9484862028621,71.0 138.506099879276,71.33540567557793 136.6516031776555,72.34162225795444 135.82738242158666,73.45963990176097 135.20921685406938,75.36026800901163 135.20921685406938,79.60872224404011 135.4152720430866,80.95033690426499 135.82738242158666,82.6273535641376 135.51829963782802,84.63977111433633 135.6213272321038,85.42237722000573 135.72435482637957,85.86958052788395 136.75463077239692,87.65839244425297 138.40307228453457,88.88819941575639 138.91821025684476,89.0 139.9484862028621,89.0 140.97876214748248,89.0 142.83325884956867,88.32919637009036 143.8635347946547,87.32299037033226 144.48170036217198,86.20498292252887 144.68775555118918,83.74536364304367 144.79078314593062,82.0683482165914 144.48170036217198,80.05592726240866 144.68775555118918,77.37269517919049 144.58472795644775,75.02486322144978 144.48170036217198,74.2422517631203 143.76050720037892,72.6770276373718 143.45142441662028,72.34162225795444 142.31812087725848,71.55900941800792 140.0515137971379,71.33540567557793 138.60912747355178,71.55900941800792 137.78490671748295,71.89441497018561 136.23949279962108,73.57144162082113 135.6213272321038,75.91927582328208 135.82738242158666,77.48449661070481" stroke="#4dd2ff" stroke-linecap="round" stroke-linejoin="round" stroke-width="0.5"><title>2023-12-13 1.0km</title><desc>10373769329</desc></polyline><polyline fill="none" points="157.8336064396426,73.55224959517363 159.07154561718926,78.65673809009604 160.30948479427025,81.34330525412224 162.7853631488979,88.328361393651 163.28053881973028,89.0 163.52812665514648,89.0 163.65192057285458,88.46268913464155 163.15674490202218,87.65672254085075 161.17604221822694,84.29852457169909 158.328782110475,78.52240962779615 157.9574003573507,76.77613872440998 156.59566726256162,73.82090723980218 156.34807942714542,71.0" stroke="#4dd2ff" stroke-linecap="round" stroke-linejoin="round" stroke-width="0.5"><title>2023-12-12 1.0km</title><desc>10365882163</desc></polyline><polyline fill="none" points="176.49541033664718,71.0 177.7804265464656,73.78874469583388 179.53272137837484,78.22537468874361 180.81773758819327,80.63382618967444 182.6868520756252,86.46480010182131 182.92049138667062,87.98592048813589 183.38777000829577,89.0 183.50458966335282,88.11268045951147 183.27095035277307,87.09860042587388 180.81773758819327,81.52114957885351 179.06544275628403,78.09861399035435 178.59816413512453,76.70424569153693 178.24770516855642,73.78874469583388 177.3131479253061,71.1267612206284" stroke="#4dd2ff" stroke-linecap="round" stroke-linejoin="round" stroke-width="0.5"><title>2023-12-11 1.0km</title><desc>10361067591</desc></polyline><polyline fill="none" points="20.360617144498974,101.04350078164134 22.764731439296156,108.34782927564811 22.884937154129148,108.73913173889741 23.365760013461113,109.0 23.48596572736278,108.86956587433815 23.12534858379513,107.95652672543656 22.04349715076387,105.86957833555061 20.84144000336528,102.60871656169184 17.475679990835488,95.82610487437341 16.51403427263722,91.0" stroke="#4dd2ff" stroke-linecap="round" stroke-linejoin="round" stroke-width="0.5"><title>2023-12-10 1.0km</title><desc>10355395415</desc></polyline><polyline fill="none" points="36.828689941670746,92.1911820312962 38.90223882580176,95.50001687242184 39.878026535734534,99.60296362906229 41.95157541986555,105.42648490634747 42.683416202664375,108.60294311749749 43.171310058329254,109.0 43.2932835216634,108.86764771549497 43.2932835216634,108.60294311749749 43.04933659406379,107.5441243366804 40.48789385519922,102.38237386127003 39.878026535734534,100.92649284633808 39.51210614433512,98.67649259825703 38.90223882580176,96.95590227597859 37.926451115868986,95.23531030898448 37.80447765160352,93.3823632748099 36.70671647787094,91.0" stroke="#4dd2ff" stroke-linecap="round" stroke-linejoin="round" stroke-width="0.5"><title>2023-12-09 1.0km</title><desc>10350143310</desc></polyline><polyline fill="none" points="58.081193710677326,94.49255117913708 58.823957435786724,97.17912446556147 60.43327883956954,101.07464871532284 62.66157001350075,107.52239474025555 63.65192164666951,109.0 63.52812769310549,107.65672254085075 62.78536396799609,105.37314859370235 60.80466070165858,101.8806182127446 59.56672116043046,98.92539498396218 58.204987665172666,96.77613872475922 57.83360580261797,94.62687993713189 56.34807835286483,91.0" stroke="#4dd2ff" stroke-linecap="round" stroke-linejoin="round" stroke-width="0.5"><title>2023-12-08 1.0km</title><desc>10345303898</desc></polyline><polyline fill="none" points="77.09993195021525,91.0 77.33193739457056,91.6293738221284 77.79594828234985,93.26574467681348 78.02795372670516,95.5314863550011 78.4919646140188,97.41960212949198 80.11600272217765,101.44757549010683 81.1600272199139,105.09791816305369 82.20405171765015,107.36364418326411 82.43605716200545,109.0 82.6680626058951,108.87412653130013 82.90006804978475,108.62237956561148 82.90006804978475,108.24475904810242 82.3200544398278,106.7342761453474 80.46401088824496,103.58743248344399 78.25995917012915,97.16785348008852 77.67994556063786,94.52449042350054" stroke="#4dd2ff" stroke-linecap="round" stroke-linejoin="round" stroke-width="0.5"><title>2023-12-07 1.0km</title><desc>10340288256</desc></polyline><polyline fill="none" points="96.65845347428694,91.0 97.3744991584681,92.68346103455406 98.68724957946688,98.25182068638969 100.59670473728329,101.74822356412187 102.14813705300912,106.02159543370362 102.86418273719028,108.74100849858951 103.22220557928085,109.0 103.34154652617872,108.09352957841475 103.10286463191733,106.92806692188606 101.19340947363526,102.91368964756839 99.88065905310214,100.97124574659392 99.16461336892098,99.5467855243478 96.77779442211613,91.38849115080666" stroke="#4dd2ff" stroke-linecap="round" stroke-linejoin="round" stroke-width="0.5"><title>2023-12-06 1.0km</title><desc>10334845031</desc></polyline><polyline fill="none" points="118.34116107597947,94.1034619655693 119.14197986712679,98.20002302597277 119.94279865827411,101.17933391826227 121.88764429371804,106.2689778652275 122.91726845363155,108.62758815078996 123.26047650631517,109.0 122.80286576924846,106.76552767283283 121.65883892448619,104.65518998203333 120.62921476503834,101.67588522285223 119.14197986712679,98.57243717496749 118.45556376036257,96.21381284378003 117.31153691606596,93.73104683100246 116.73952349368483,91.0" stroke="#4dd2ff" stroke-linecap="round" stroke-linejoin="round" stroke-width="0.5"><title>2023-12-05 1.0km</title><desc>10329306344</desc></polyline><polyline fill="none" points="136.69392242329195,92.51049678423442 137.50594147713855,93.7692430865718 138.54996597534046,97.41960212949198 140.63801497081295,102.58044129051268 141.68203946901485,106.10490787529852 142.61006124457344,108.11888552398887 143.30607757670805,109.0 143.30607757670805,108.37063256313559 140.29000680474564,101.44757549010683 139.1299795852974,97.54547644068953 137.85394964320585,94.6503649475053 136.9259278671816,91.0" stroke="#4dd2ff" stroke-linecap="round" stroke-linejoin="round" stroke-width="0.5"><title>2023-12-04 1.0km</title><desc>10324662812</desc></polyline><polyline fill="none" points="156.8737258380279,92.66154566861223 158.14975610887632,97.50771216268186 160.19140454102308,102.07694343582261 161.59503783797845,106.92308570316527 162.61586205428466,108.86153911822475 163.38148021604866,109.0 163.38148021604866,108.44615641166456 162.48825902771205,106.92308570316527 161.33983178436756,103.60001806344371 160.0638015139848,101.66155923262704 159.17058032471687,99.3077136843931 157.63934400025755,93.76924196642358 156.618519784417,91.0" stroke="#4dd2ff" stroke-linecap="round" stroke-linejoin="round" stroke-width="0.5"><title>2023-12-02 1.0km</title><desc>10313350310</desc></polyline><polyline fill="none" points="176.73258963692933,91.95454984041862 177.98928593005985,93.59091985307168 179.49732148181647,98.77274870162364 180.5026785172522,103.00001940899529 182.13638369832188,107.63636975188274 183.14174073329195,109.0 183.267410362605,108.18182197131682 183.0160711039789,106.54546483117156 181.633705180604,103.54547299188562 179.49732148181647,100.13638546620496 178.24062518915161,97.54547475650907 176.98392889508978,91.0" stroke="#4dd2ff" stroke-linecap="round" stroke-linejoin="round" stroke-width="0.5"><title>2023-12-01 1.0km</title><desc>10308709030</desc></polyline><polyline fill="none" points="16.68232080945745,111.0 19.170580202247947,119.55001980031375 21.658839595038444,124.65001455100719 23.041205924004316,128.4000025584828 23.455915823113173,129.0 23.59415245614946,128.5500019354513 23.041205924004316,127.05000766995363 20.967656429857016,124.20001552719623 20.414709899108857,122.70001806365326 18.341160404961556,118.65001940354705 17.373503974173218,114.0000110277906 16.40584754385054,111.30000130133703" stroke="#4dd2ff" stroke-linecap="round" stroke-linejoin="round" stroke-width="0.5"><title>2023-11-30 1.0km</title><desc>10303537703</desc></polyline><polyline fill="none" points="37.94075258821249,114.84829198836815 38.741571026388556,117.4551944816485 39.08477892819792,119.56554117088672 40.343207901809365,122.04829860525206 41.716039509978145,125.77242791187018 43.088871117215604,128.75172544328962 43.317676385398954,129.0 43.54648165311664,128.75172544328962 43.317676385398954,127.8827642062679 42.402455313596874,126.2689778652275 41.14402633998543,122.79312512371689 39.31358419591561,119.06898924615234 38.62716839229688,115.09656858979724 37.2543367841281,112.98621631483547 36.45351834688336,111.0" stroke="#4dd2ff" stroke-linecap="round" stroke-linejoin="round" stroke-width="0.5"><title>2023-11-29 1.0km</title><desc>10298007687</desc></polyline><polyline fill="none" points="56.89713673759252,113.33094561949838 58.20988657930866,116.69786162441596 58.4485683683306,119.15829617308918 60.11934089427814,123.17268200626131 61.07406805222854,126.79857102350798 61.90945431543514,128.4820169589948 62.74484057817608,129.0 63.10286326240748,129.0 63.34154505236074,128.61151273362339 63.22220415715128,128.09352957829833 62.74484057817608,127.18705868988764 60.83538626274094,122.13671234436333 58.92593194777146,117.73383448482491 58.56790926354006,115.66188815457281 57.7325229998678,113.20144872169476 56.65845494763926,111.0" stroke="#4dd2ff" stroke-linecap="round" stroke-linejoin="round" stroke-width="0.5"><title>2023-11-28 1.0km</title><desc>10292316108</desc></polyline><polyline fill="none" points="79.57736504077911,111.0 80.63395244022831,113.8662559457589 81.26790487999097,116.61785669741221 82.11317479936406,117.87900541932322 83.06410345900804,119.71340173971839 84.01503211865202,122.69429115857929 84.86030203802511,124.07008435309399 84.86030203802511,124.75798049510922 84.33200833853334,125.21657775470521 82.64146849932149,126.13377186935395 81.58488109987229,127.05096544418484 80.52829370042309,127.62421115464531 78.94341260101646,128.31210572912823 76.40760284243152,129.0 75.9849678822793,128.8853509761393 75.66799166239798,128.5414038533345 75.13969796244055,126.36307031358592" stroke="#4dd2ff" stroke-linecap="round" stroke-linejoin="round" stroke-width="0.5"><title>2023-11-27 1.0km</title><desc>10287544518</desc></polyline><polyline fill="none" points="98.2599590420723,114.90211396722589 98.83997269440442,116.2867329143919 100.23200546111912,123.33568474079948 101.74004095746204,126.98602338775527 102.55206007137895,128.370632563252 103.13207372371107,129.0 103.24807645427063,128.8741265310673 102.90006826305762,128.244759047986 102.90006826305762,127.23777059407439 101.97204641858116,125.09791816282086 100.9280218440108,121.57344950502738 99.88399726944044,119.43358999444172 99.1879808860831,115.40561189572327 97.21593446750194,112.25874741270673 96.75192354526371,111.0" stroke="#4dd2ff" stroke-linecap="round" stroke-linejoin="round" stroke-width="0.5"><title>2023-11-26 1.0km</title><desc>10281488289</desc></polyline><polyline fill="none" points="116.722453544382,111.0 118.06022760737687,114.48388377402443 119.26422426477075,119.41937526513357 120.46822092263028,122.17743866576348 120.73577573522925,123.91937146021519 121.40466276742518,125.51614183862694 122.87621423741803,128.27419672347605 123.54510126914829,129.0 123.81265608174726,129.0 121.80599498609081,124.64517633756623 121.53844017302617,123.19356631604023 120.2006661100313,121.30647169239819 117.52511798264459,114.04839863895904 116.18734391825274,111.58064772281796" stroke="#4dd2ff" stroke-linecap="round" stroke-linejoin="round" stroke-width="0.5"><title>2023-11-25 1.0km</title><desc>10275889695</desc></polyline><polyline fill="none" points="136.51178423129022,111.16822495521046 137.4419751027599,115.37384479888715 141.7828658381477,127.14953924051952 142.86808852106333,128.83177635679021 143.33318395726383,129.0 143.4882157696411,128.49532903218642 141.93789764959365,126.4766440478852 140.0775159066543,120.92525115737226 138.83726141043007,118.40188630030025 138.06210235133767,113.52337301988155 137.13191147893667,111.0" stroke="#4dd2ff" stroke-linecap="round" stroke-linejoin="round" stroke-width="0.5"><title>2023-11-24 1.0km</title><desc>10271180196</desc></polyline><polyline fill="none" points="157.7618844024837,113.00000823463779 158.1568459784612,114.14286915806588 159.07842298876494,119.00002058548853 161.31653858721256,125.85715487215202 162.36976945679635,128.71428701689 162.7647310323082,129.0 163.29134646710008,129.0 163.42300032638013,128.71428701689 163.15969260875136,127.28572146955412 161.71150016319007,123.14287544379476 157.89353826083243,114.85715689428616 156.57699967408553,111.0" stroke="#4dd2ff" stroke-linecap="round" stroke-linejoin="round" stroke-width="0.5"><title>2023-11-23 1.0km</title><desc>10265414399</desc></polyline><polyline fill="none" points="178.42293546302244,115.0563544301549 178.53975505847484,116.83100649237167 179.00703343981877,119.61974175705109 180.8761469651945,124.94367837370373 181.46024494152516,127.47888050868642 182.39480170421302,129.0 183.0957192759961,129.0 182.97889968100935,128.23944042192306 181.6938841319643,124.94367837370373 180.6425077742897,123.29579498723615 179.12385303527117,118.60565672838129 177.37155910488218,113.78874469583388 176.9042807240039,111.0" stroke="#4dd2ff" stroke-linecap="round" stroke-linejoin="round" stroke-width="0.5"><title>2023-11-21 1.0km</title><desc>10253878272</desc></polyline><polyline fill="none" points="18.06266986951232,135.8613317385316 18.66808553505689,139.8029423590051 21.2108313315548,146.24088767752983 22.30057953018695,148.6058413576102 22.663828929886222,149.0 22.905995196197182,148.86861379561014 23.02707832911983,148.6058413576102 22.54274579649791,146.50366046302952 20.36324939923361,141.77374440978747 19.51566746784374,139.27739477856085 18.18375300243497,134.15329776948784 17.45725420350209,132.839424374979 16.97292167088017,131.0" stroke="#4dd2ff" stroke-linecap="round" stroke-linejoin="round" stroke-width="0.5"><title>2023-11-20 1.0km</title><desc>10248671423</desc></polyline><polyline fill="none" points="36.795423744712025,132.5000066718785 38.55479894345626,136.31819999893196 39.05747757246718,140.27274908765685 40.43984379991889,143.40910961094778 41.8222100273706,147.36364358162973 42.450558312702924,148.31818500091322 43.204576255287975,149.0 43.07890659850091,147.90909588139039 40.942522428464144,142.3182022041874 39.56015620101243,137.27274710254278 38.17778997309506,134.00001213059295 37.42377203051001,131.0" stroke="#4dd2ff" stroke-linecap="round" stroke-linejoin="round" stroke-width="0.5"><title>2023-11-19 1.0km</title><desc>10242265034</desc></polyline><polyline fill="none" points="56.50164541276172,147.03792825492565 57.28779251081869,144.56400697666686 57.60225135041401,143.9668527743197 58.15255431877449,143.62562166358111 60.82545445347205,143.2843904523179 62.7908221995458,142.85785129718715 63.419739877805114,142.34600410389248 63.81281342729926,141.83415668504313 64.28450168622658,139.70145667501492 64.12727226642892,139.01899184362264 64.44173110602424,138.50714295677608 64.20588697632775,134.5829606532352 64.04865755699575,134.07110980903963 63.97004284663126,132.53555592079647 63.81281342729926,131.5971608775435 62.94805161934346,131.34123482485302 62.240519230719656,131.85308687353972 62.39774865005165,131.5971608775435 62.55497806984931,131.85308687353972 61.53298684209585,131.34123482485302 61.454372132662684,131.0 61.218528002500534,131.17061742488295 61.37575742229819,131.0853087156429 60.82545445347205,131.76777821453288 60.90406916337088,131.6824695491814 62.55497806984931,132.53555592079647 62.161904520820826,132.87679029384162 61.53298684209585,133.13271600776352 60.039307355415076,133.388641665224 59.960692645050585,133.04740744258743 60.35376619407907,132.87679029384162 60.90406916337088,132.96209887135774 62.55497806984931,131.34123482485302 64.83480465505272,131.4265435153502 64.5989605258219,131.255926127953 64.28450168622658,131.17061742488295 64.04865755699575,135.26542809442617 64.12727226642892,136.45974515046692 64.36311639565974,137.90998563647736 64.52034581592306,140.38392110483255 64.52034581592306,141.23700107744662 64.28450168622658,142.0900804225821 63.81281342729926,142.60192772879964 59.88207793561742,143.02846697799396 58.07393960934132,143.3696982645779 57.13056309148669,144.05216053628828 56.02995715336874,145.58769917994505 55.40103947510943,147.80569585470948 55.16519534541294,149.0" stroke="#4dd2ff" stroke-linecap="round" stroke-linejoin="round" stroke-width="0.5"><title>2023-11-18 1.0km</title><desc>10236386505</desc></polyline><polyline fill="none" points="76.3268576124683,131.0 78.93360382318497,135.5000173689332 79.88151153549552,138.84287991863675 80.23697692807764,140.77145155961625 80.94790771277621,141.92859352345113 83.1991885304451,148.48571685689967 83.6731423875317,149.0 83.6731423875317,148.48571685689967 83.1991885304451,147.84286271536257 81.89581542555243,143.98573290230706 81.18488464085385,142.70002107415348 80.94790771277621,140.51430879719555 79.88151153549552,137.81430750666186 78.69662689464167,135.2428738315357 78.57813843060285,133.82858369813766" stroke="#4dd2ff" stroke-linecap="round" stroke-linejoin="round" stroke-width="0.5"><title>2023-11-17 1.0km</title><desc>10231268371</desc></polyline><polyline fill="none" points="96.78934295522049,131.58064772293437 98.52844885410741,134.04839863884263 98.92978098476306,137.3871155574452 100.13377737673,140.00002051191404 102.00666065281257,146.96775015315507 103.21065704477951,149.0 103.07687966758385,147.8387146294117 102.14043803000823,145.95162444526795 101.47155114542693,144.0645324572688 100.40133213018999,139.56453659269027 98.26089410064742,135.06453047250398 97.59200721606612,133.03226628201082 97.19067508541048,131.0" stroke="#4dd2ff" stroke-linecap="round" stroke-linejoin="round" stroke-width="0.5"><title>2023-11-16 1.0km</title><desc>10225818993</desc></polyline><polyline fill="none" points="116.87852752860636,131.19354904140346 117.7703768061474,134.67742935777642 119.19733565021306,138.54840207961388 121.15940406080335,142.22582089412026 121.87288348283619,145.12904264521785 123.12147247139364,147.6451655733399 124.3700614599511,149.0 121.15940406080335,143.00001367391087 119.73244521673769,138.54840207961388 115.6299385400489,131.0" stroke="#4dd2ff" stroke-linecap="round" stroke-linejoin="round" stroke-width="0.5"><title>2023-11-15 1.0km</title><desc>10219684298</desc></polyline><polyline fill="none" points="136.81951958918944,133.16542284714524 138.44094097521156,135.19550445268396 138.69039041921496,137.7669379391009 140.5612612492405,142.23310335271526 141.68378374679014,146.02256853983272 142.80630624480546,148.86466231115628 143.30520513281226,149.0 143.1804804103449,147.37594707356766 141.55905902478844,145.21054094214924 140.93543541477993,143.31580848805606 139.93763763876632,142.09776516607963 139.5634634727612,140.60904445615597 137.69259264320135,136.81956812529825 137.06896903319284,134.11279454140458 136.69479486718774,131.0" stroke="#4dd2ff" stroke-linecap="round" stroke-linejoin="round" stroke-width="0.5"><title>2023-11-14 1.0km</title><desc>10213806154</desc></polyline><polyline fill="none" points="157.5958851748146,133.47827171022072 158.55753110535443,137.1304552895017 161.20205741235986,143.91306199040264 161.80308611830696,146.1304470184259 163.00514353159815,148.60869759391062 163.36576075525954,149.0 162.6445263074711,147.695658311015 160.9616459296085,143.65219298156444 160.84144018869847,142.60871656169184 159.63938277587295,139.73915324313566 157.83629665756598,136.47828020178713 157.11506220977753,134.26088311010972 156.63423924474046,131.0" stroke="#4dd2ff" stroke-linecap="round" stroke-linejoin="round" stroke-width="0.5"><title>2023-11-13 1.0km</title><desc>10208522228</desc></polyline><polyline fill="none" points="177.9892856348306,133.04546334268525 179.24598211282864,136.86365554714575 180.7540178867057,140.000021835207 181.63370542181656,143.68183636269532 182.51339295646176,146.27273850084748 183.64441978698596,148.72727403056342 184.147098377347,149.0 184.39843767369166,148.45454802096356 183.01607154728845,145.72728572005872 182.2620536610484,142.7272925573634 179.49732140870765,140.1363854664378 177.9892856348306,137.95456616173033 177.7379463389516,135.6363803385757 175.60156232584268,131.0" stroke="#4dd2ff" stroke-linecap="round" stroke-linejoin="round" stroke-width="0.5"><title>2023-11-12 1.0km</title><desc>10202270880</desc></polyline><polyline fill="none" points="17.276532809715718,154.35822241124697 20.24758792715147,161.07464871543925 21.23793963296339,164.4328526093159 22.228291338775307,167.11941128061153 22.84726115502417,168.32836139411665 23.466230970807374,169.0 23.59002493415028,168.4626891349908 22.475879264995456,165.10449264734052 20.371381890028715,161.880618212861 18.14309055218473,156.77613872487564 17.276532809715718,153.14926305413246 16.409975066315383,151.0" stroke="#4dd2ff" stroke-linecap="round" stroke-linejoin="round" stroke-width="0.5"><title>2023-11-11 1.0km</title><desc>10196068378</desc></polyline><polyline fill="none" points="38.3266083188355,153.68422009726055 40.36378079978749,159.84212411462795 42.25544096156955,164.8947501218645 43.12851488124579,168.21052947919816 43.71056416165084,169.0 44.00158880185336,168.6842118264176 43.565051841549575,166.78948180971202 41.38236704096198,161.89475486346055 39.199682239443064,157.31580665381625 36.2894358378835,152.73684868169948 35.99841119768098,151.0" stroke="#4dd2ff" stroke-linecap="round" stroke-linejoin="round" stroke-width="0.5"><title>2023-11-10 1.0km</title><desc>10191120477</desc></polyline><polyline fill="none" points="55.821245764847845,151.54962088621687 57.97393734101206,153.1984825761756 59.2402265034616,155.39696256595198 59.62011325219646,156.22139189543668 59.62011325219646,157.45803520805202 61.01303132995963,161.71757813193835 61.51954699493945,164.19085666537285 62.53257832489908,166.93894008581992 62.785836156923324,168.31298028095625 63.418980738613755,169.0 63.79886748641729,168.86259607644752 64.17875423515216,168.31298028095625 62.785836156923324,167.35115225065965 60.50651566544548,164.0534523880342 57.84730842523277,156.77101124660112 57.21416384354234,152.64886217436288 56.58101926231757,151.0" stroke="#4dd2ff" stroke-linecap="round" stroke-linejoin="round" stroke-width="0.5"><title>2023-11-09 1.0km</title><desc>10185506531</desc></polyline><polyline fill="none" points="76.48859197832644,152.44526216865052 77.820505366195,155.07300857105292 78.30483750626445,156.38688032352366 79.87891696533188,159.80294235935435 80.48433214100078,162.16790455882438 80.363249105867,160.72265025309753 80.60541517660022,161.64235767372884 81.08974731713533,165.18979614810087 82.17949463427067,168.47445512423292 82.6638267757371,169.0 83.26924195187166,168.73722758109216 83.51140802213922,168.34306888096035 82.17949463427067,167.16059225820936 81.21083035273477,165.58395554404706 80.60541517660022,163.87593086762354 79.75783392973244,160.98542385036126 78.54700357746333,159.2773947789101 77.21509018959478,156.38688032352366 76.85184108372778,154.2846850559581 76.97292411886156,151.65693749429192 76.730758048594,151.0" stroke="#4dd2ff" stroke-linecap="round" stroke-linejoin="round" stroke-width="0.5"><title>2023-11-08 1.0km</title><desc>10179505859</desc></polyline><polyline fill="none" points="99.1879807668738,160.9440793383401 103.24807693203911,169.0 103.4800824271515,168.87412653141655 102.90006868960336,167.4895177630242 101.85604396136478,165.72728680237196 101.16002747556195,163.96505402820185 99.76799450442195,162.45456734951586 99.3039835151285,161.57344950479455 98.95597527176142,158.55247059487738 98.72396977664903,157.6713507422246 97.33193680597469,155.27973742736503 96.5199175728485,151.0" stroke="#4dd2ff" stroke-linecap="round" stroke-linejoin="round" stroke-width="0.5"><title>2023-11-06 1.0km</title><desc>10167691585</desc></polyline><polyline fill="none" points="118.26955626299605,156.0503782769665 119.10494289500639,157.6043379106559 122.2078075259924,164.72663535596803 123.52055794699118,168.7410084985895 123.75923984171823,169.0 123.99792173597962,169.0 123.99792173597962,168.61151273350697 123.04319415707141,166.5395791985793 122.2078075259924,165.37411551410332 122.08846657862887,164.72663535596803 121.37242089444771,163.94965885241982 119.34362478926778,160.45326034456957 116.95680584199727,154.36692046013195 116.00207826355472,151.0" stroke="#4dd2ff" stroke-linecap="round" stroke-linejoin="round" stroke-width="0.5"><title>2023-11-05 1.1km</title><desc>10161301187</desc></polyline><polyline fill="none" points="136.6342399874702,151.0 139.03835428180173,156.3478451555129 140.12020571436733,161.04350078164134 141.80308572063223,164.30436543212272 142.40411429479718,166.9130528375972 143.00514286803082,169.0 143.3657600125298,168.60869759402703 143.24555429723114,168.21739510179032 141.6828800062649,165.34784085466526 141.56267429096624,164.95653764309827 140.12020571436733,162.7391511480091 139.51917714066803,160.65219662082382 137.95650284923613,157.78263013751712 137.59588570520282,155.30436443991493 136.87465141667053,152.69565996550955" stroke="#4dd2ff" stroke-linecap="round" stroke-linejoin="round" stroke-width="0.5"><title>2023-11-04 1.0km</title><desc>10155501797</desc></polyline><polyline fill="none" points="164.8292560079135,153.73419068823569 163.46446626633406,151.91139743244275 162.62459565652534,151.3417740999721 160.94485443644226,151.0 159.37009704252705,151.11392470856663 157.16543669067323,152.139246706618 156.22058225423098,153.05064346885774 155.3807116439566,154.759510952048 155.1707439920865,156.12660358159337 154.8557925131172,160.6835702988319 155.06576016545296,165.46837092377245 155.27572781778872,166.15191266383044 156.32556608086452,167.86076569382567 157.58537199581042,168.77215320582036 159.68504852149636,169.0 161.5747573939152,168.20253607374616 163.35948244063184,166.0379890614422 163.8844015719369,165.01267626299523 164.61928835557774,161.7088859624928 164.61928835557774,159.08863347244915 165.1442074868828,155.6709061722504 165.03922366071492,154.41773760621436 163.8844015719369,153.05064346885774 162.93954713549465,152.36709594738204 160.73488678364083,151.3417740999721 159.5800646948628,151.3417740999721 157.060452864971,152.139246706618 155.90563077572733,153.16456802631728 155.1707439920865,154.53166206309106 154.96077633928508,155.44305741763674 155.1707439920865,159.20255758613348 154.96077633928508,160.9114182825433" stroke="#4dd2ff" stroke-linecap="round" stroke-linejoin="round" stroke-width="0.5"><title>2023-11-03 1.0km</title><desc>10152446508</desc></polyline><polyline fill="none" points="176.27463989239186,151.0 177.25869727879763,153.13560138468165 178.10217503923923,156.94916981831193 179.50797130679712,159.69493475090712 181.61666570650414,165.18645371461753 182.03840458672494,166.10170546243899 182.74130272027105,168.54237481567543 183.16304160049185,169.0 183.72536010714248,169.0 183.72536010714248,168.6949165549595 182.74130272027105,168.23729130346328 182.3195638405159,167.1694986578077 181.33550645317882,166.25424738100264 180.63260832009837,164.2712015635334 179.64855093276128,162.74578041420318 178.52391391946003,160.45764658704866 177.25869727879763,155.72882868233137 176.41521951835603,153.74577280506492" stroke="#4dd2ff" stroke-linecap="round" stroke-linejoin="round" stroke-width="0.5"><title>2023-11-02 1.1km</title><desc>10144903556</desc></polyline><polyline fill="none" points="16.934754049405456,172.30435396311805 17.175165496300906,173.73914221522864 18.13681128481403,175.95653995871544 19.819691414479166,181.9565434876131 22.70462878094986,187.95652672555298 23.546068845316768,189.0 23.065245951525867,187.4347898582928 21.262160097714514,184.6956687872298 20.30051430920139,181.17393548239488 19.098457073792815,179.47828362043947 17.655988390557468,176.34784515528008 16.453931154683232,171.0" stroke="#4dd2ff" stroke-linecap="round" stroke-linejoin="round" stroke-width="0.5"><title>2023-11-01 1.0km</title><desc>10138966680</desc></polyline><polyline fill="none" points="37.38078122353181,171.27067799540237 38.00440474227071,173.3007616904797 39.002202371601015,178.71430726593826 40.623623518273234,182.23310335283168 41.62142114760354,185.48121684766375 43.24284229520708,189.0 43.367566999047995,188.8646623105742 42.245044665876776,187.24060926458333 40.623623518273234,183.45114658481907 39.251651778351516,181.01505931455176 36.88188240956515,173.84211696428247 36.63243300141767,171.0" stroke="#4dd2ff" stroke-linecap="round" stroke-linejoin="round" stroke-width="0.5"><title>2023-10-31 1.0km</title><desc>10133123337</desc></polyline><polyline fill="none" points="57.17383081186563,173.1333426652709 57.788215418346226,176.33335195819382 57.788215418346226,177.5333539872663 59.13986155157909,179.80002232000697 62.82616918860003,187.66667279333342 63.44055379508063,188.8666673231637 63.686307637020946,189.0 60.86013844888657,183.40001914394088 59.6313692368567,179.93335566332098 58.279723103158176,177.1333533989964 56.313692363444716,171.0" stroke="#4dd2ff" stroke-linecap="round" stroke-linejoin="round" stroke-width="0.5"><title>2023-10-30 1.0km</title><desc>10127985445</desc></polyline><polyline fill="none" points="77.1625133054331,173.60527560755145 77.70818382361904,177.27633863000665 78.0355861345306,178.46055072336458 80.21826820774004,183.5526528044138 81.30960924364626,186.5131698701298 82.94662079866976,188.76315920078196 83.38315721368417,189.0 83.4922913168557,188.6447387879016 82.510084384121,187.10527262999676 81.09134103683755,184.026335900533 78.58125665271655,179.40791977138724 77.59904971951619,175.97370432177559 76.83511099405587,174.43422605399974 76.72597689041868,172.06579507607967 76.5077086831443,171.0" stroke="#4dd2ff" stroke-linecap="round" stroke-linejoin="round" stroke-width="0.5"><title>2023-10-28 1.0km</title><desc>10115543824</desc></polyline><polyline fill="none" points="97.66533815301955,174.73334801755846 98.64835366792977,177.93335448706057 99.75424612080678,180.46668893785682 100.737261635717,184.06668443838134 102.21178490761667,187.53334001882467 102.82616960350424,188.8666673237458 103.44055429985747,189.0 103.5634312396869,188.8666673237458 103.31767736049369,188.06667105830275 102.58041572477669,186.0666788512608 100.12287693936378,181.26668855571188 98.156845910009,175.9333511054283 96.92807651730254,173.26667649880983 96.4365687603131,171.0" stroke="#4dd2ff" stroke-linecap="round" stroke-linejoin="round" stroke-width="0.5"><title>2023-10-27 1.0km</title><desc>10110442644</desc></polyline><polyline fill="none" points="117.56053018663079,173.77942351426464 119.8780265096575,181.58825709018856 120.7318409443833,183.9706063530175 121.58565537957475,185.42648490646388 122.56144330464303,188.20588614756707 122.92736377660185,188.7352954216767 123.65920472098514,189.0 123.78117821086198,188.60294311773032 123.65920472098514,188.07353380485438 122.43946981383488,186.48530493315775 120.60986745357513,183.3088429851923 118.41434462182224,176.82354910613503 116.95066273352131,174.44119038514327 116.21882178913802,171.0" stroke="#4dd2ff" stroke-linecap="round" stroke-linejoin="round" stroke-width="0.5"><title>2023-10-26 1.0km</title><desc>10104873905</desc></polyline><polyline fill="none" points="139.09845727263018,179.6087184365606 141.86318830493838,186.52174997131806 143.18545097252354,188.86956587433815 143.66627376014367,189.0 143.54606806393713,187.695658311015 140.30051424261183,182.0869781221263 138.49742878694087,177.52176022727508 136.93475472507998,174.26088311045896 136.33372623985633,171.0" stroke="#4dd2ff" stroke-linecap="round" stroke-linejoin="round" stroke-width="0.5"><title>2023-10-25 1.0km</title><desc>10098978222</desc></polyline><polyline fill="none" points="156.67021359270439,171.0 156.54913045093417,171.91971242427826 157.2756293034181,174.9416213426739 158.24429444037378,176.9124287540326 158.84971015015617,179.27739477867726 159.93945842934772,182.43067794316448 162.24003812810406,186.8978195694508 162.966536980588,188.737227581325 163.20870326505974,189.0 163.45086954906583,188.8686137953773 163.32978640682995,187.16059225809295 161.99787184409797,184.6642501518363 161.02920670807362,183.2189978651004 159.8183752866462,180.45987661753315 159.57620900310576,179.01462093077134 158.12321129767224,176.78104166104458 157.2756293034181,174.8102341046324 157.03346301894635,172.44526216841768 156.67021359270439,171.0" stroke="#4dd2ff" stroke-linecap="round" stroke-linejoin="round" stroke-width="0.5"><title>2023-10-24 1.0km</title><desc>10092835699</desc></polyline><polyline fill="none" points="178.1502161314711,174.1079268073663 179.9403295526281,180.45326034456957 180.7757158158347,182.0072160938289 181.73044297331944,185.89209946908522 183.16253370977938,188.4820169589948 183.75923818396404,189.0 183.16253370977938,188.35252117482014 182.32714744703844,186.28058733535 180.17901134165004,183.69066660827957 179.7016477631405,182.7841934543103 179.2242841841653,179.80577837780584 177.7921934472397,176.9568548965035 176.83746628975496,173.9784299666062 176.24076181650162,171.0" stroke="#4dd2ff" stroke-linecap="round" stroke-linejoin="round" stroke-width="0.5"><title>2023-10-23 1.0km</title><desc>10087395010</desc></polyline><polyline fill="none" points="14.17224500933662,191.08633225236554 14.490484189707786,191.0 16.75793835008517,191.1726644920418 17.75243578874506,191.43166113487678 17.991115174023435,191.56115941354074 18.50825384235941,191.94965407782 18.86627292004414,192.3813145144959 19.661870870972052,193.8489576249267 20.05966984643601,195.4892602887703 20.576808514771983,196.35257563943742 20.815487899817526,197.04322700586636 21.372406465467066,198.29503053677035 21.770205441163853,199.58999689779012 22.366903904359788,200.62596793007106 22.645363187184557,200.92812580347527 23.00338226510212,201.5324410837493 23.202281752834097,202.82740030408604 23.321621445473284,203.17272228054935 23.639860625611618,203.6475396664464 23.71942042093724,204.38134759839159 23.838760113576427,204.68350353906862 25.589075605617836,208.82734075089684 25.82775499089621,209.0 25.82775499089621,208.78417593060294 25.46973591297865,208.43885725463042 25.071936937747523,207.48922984837554 24.674137962050736,206.6690958525287 23.600080728298053,203.34538319258718" stroke="#4dd2ff" stroke-linecap="round" stroke-linejoin="round" stroke-width="0.5"><title>2023-10-22 1.5km</title><desc>10080655811</desc></polyline><polyline fill="none" points="37.13705715793185,191.0 37.768588667269796,191.45685924118152 36.63183195027523,191.27411558496533 38.40012017637491,193.5584074241924 38.56852857908234,194.10663621604908 38.442222277168185,194.56349317287095 37.85279286839068,194.88329284300562 37.68438446591608,195.2030923484126 37.726486566476524,195.75131968891947 38.06330337142572,197.07620043179486 38.442222277168185,198.03559506835882 38.86324328323826,199.4975269040442 39.621081094490364,200.82239965925692 39.74738739640452,201.3249368618708 40.21051050303504,202.14726958947722 40.50522520765662,202.51275045255898 40.54732730798423,202.74117588269291 40.842042012605816,203.01528628816595 41.052552515640855,203.47213669511257 41.34726722002961,204.3401515429723 41.64198192441836,204.93405574030476 41.59987982385792,206.12186243198812 42.14720713184215,207.1726126128342 42.31561553431675,207.675144680019 42.61033023847267,208.22336101706605 43.11555544612929,208.86294613225618 43.3681680499576,209.0 42.39981973543763,207.62945996341296 42.18930923240259,206.89850404136814 41.768288226099685,205.98480792954797 41.59987982385792,205.3909047365305 41.052552515640855,204.6142612430849 40.589429408777505,203.28939657268347" stroke="#4dd2ff" stroke-linecap="round" stroke-linejoin="round" stroke-width="0.5"><title>2023-10-20 1.4km</title><desc>10069668027</desc></polyline><polyline fill="none" points="56.378020914969966,191.0 56.46374823059887,191.69768395990832 57.149566755397245,193.3721223237808 57.32102138688788,194.39538803097093 58.7355220944155,197.83726962580113 58.86411306774244,198.302387323929 58.94984038360417,199.0000632299343 59.12129501462914,199.46518007316627 60.150022802175954,200.90704011387425 60.707250353647396,202.02331659808988 61.050159616163,203.13959111261647 61.35020522098057,203.7442389856442 61.52165985223837,204.67446535412455 61.73597814119421,205.13957802538062 62.29320569266565,206.58142513339408 62.37893300829455,207.13955861562863 63.19334250688553,208.81395610782783 63.407660795841366,209.0 63.5362517691683,209.0 63.6219790847972,208.95348903205013 63.57911542709917,208.9069780607242 62.72184227104299,207.83722477586707 62.33606935059652,206.5349139876198 61.52165985223837,205.04655551846372 61.393068878678605,204.44190889014862 61.307341563049704,203.41865943354787" stroke="#4dd2ff" stroke-linecap="round" stroke-linejoin="round" stroke-width="0.5"><title>2023-10-19 1.3km</title><desc>10064004415</desc></polyline><polyline fill="none" points="75.94113790709525,191.0 77.70586055610329,193.29788272990845 77.5882123792544,194.95746281044558 77.82350873248652,196.61704130494036 78.64704596903175,199.55321475525852 79.82352773472667,201.46810780919623 81.00000950088724,204.7872507669963 83.35297303367406,208.61702321912162 83.7059175632894,209.0 84.05886209290475,208.87234108219855 82.52943579666317,207.3404333399376 79.70587955834344,201.8510861665709 78.9999904986471,199.4255551431561 76.99997149594128,195.21278268191963" stroke="#4dd2ff" stroke-linecap="round" stroke-linejoin="round" stroke-width="0.5"><title>2023-10-18 1.0km</title><desc>10058081424</desc></polyline><polyline fill="none" points="96.85825903527439,192.09091406327207 97.86361614381894,197.95456616184674 100.50267855450511,204.9091062474763 102.26205349434167,208.59091103076935 103.01607132609934,209.0 103.39308024197817,209.0 103.64441951876506,208.4545480213128 102.76473204931244,207.36364358162973 101.63370530167595,205.59092249977402 100.12566963862628,202.31820220442023 99.49732144596055,200.4091126989806 96.85825903527439,195.09092442982364 96.60691975848749,194.27274026570376 96.35558048123494,191.0" stroke="#4dd2ff" stroke-linecap="round" stroke-linejoin="round" stroke-width="0.5"><title>2023-10-17 1.0km</title><desc>10051702317</desc></polyline><polyline fill="none" points="115.98050376260653,191.41538655466866 117.25653431424871,193.63077996543143 119.17058014171198,198.61540561076254 120.19140458293259,200.55386757676024 121.33983207913116,204.15386307716835 122.74346568621695,207.75385169649962 123.25387790706009,208.72307822608855 123.89189318241552,209.0 124.01949623785913,208.86153911834117 123.89189318241552,208.44615641143173 122.48825957579538,206.36924150353298 120.57421374879777,201.66155923274346 119.17058014171198,198.75386724586133 118.02215264551342,193.3538559313165 117.38413736922666,191.0" stroke="#4dd2ff" stroke-linecap="round" stroke-linejoin="round" stroke-width="0.5"><title>2023-10-16 1.0km</title><desc>10046279660</desc></polyline><polyline fill="none" points="136.31368951732293,191.0 136.8403053013608,192.14286210003775 137.36692108446732,194.71429936750792 138.55180659657344,198.71430613135453 140.13165394589305,201.14287764916662 141.97480918699875,208.00000437430572 142.633078916464,208.71428701665718 143.55465653678402,209.0 143.68631048314273,208.71428701665718 143.55465653678402,207.8571478142403 141.84315524157137,205.42858468799386 140.92157762078568,202.57144771213643 139.8683460545726,200.85716351040173 137.36692108446732,195.0000144095393 136.44534346368164,191.0" stroke="#4dd2ff" stroke-linecap="round" stroke-linejoin="round" stroke-width="0.5"><title>2023-10-15 1.0km</title><desc>10039610121</desc></polyline><polyline fill="none" points="156.25423207087442,192.3064571354771 156.65556434867904,196.51614647032693 157.72578375739977,199.5645365928067 159.06355801783502,201.45163288107142 159.86622257437557,204.06453245715238 162.1404388169758,208.12903603585437 162.6755485208705,208.70967872138135 163.34443565178663,209.0 163.74576792959124,208.70967872138135 163.74576792959124,208.2741967231268 161.07021940825507,206.0967852922622 159.3311128700152,202.9032441836316 158.6622257400304,200.1451817966299 157.0568966269493,196.51614647032693 156.25423207087442,193.4677516417578 156.38800949696451,191.5806477224687 156.25423207087442,191.0" stroke="#4dd2ff" stroke-linecap="round" stroke-linejoin="round" stroke-width="0.5"><title>2023-10-14 1.0km</title><desc>10033377496</desc></polyline><polyline fill="none" points="175.91872827988118,191.28571558836848 178.28849895577878,194.1428691581823 178.551806808915,196.2857315784786 180.7899235584773,203.14287544356193 182.89638638170436,208.14286092377733 183.5546560138464,209.0 184.08127171965316,209.0 184.08127171965316,208.5714305093279 183.94961779285222,208.14286092377733 182.76473245490342,207.2857214693213 181.448193191085,204.85715762886684 179.99999999953434,200.28573510737624 177.3669214709662,194.42858428391628 176.9719596914947,192.42857752018608 176.313690058887,191.0" stroke="#4dd2ff" stroke-linecap="round" stroke-linejoin="round" stroke-width="0.5"><title>2023-10-13 1.0km</title><desc>10028006924</desc></polyline><polyline fill="none" points="16.137817203532904,211.0 17.404106644913554,212.6488621745957 18.16388031002134,214.0229128751671 18.290509254205972,215.80917727621272 18.16388031002134,217.73284472187515 19.55679869512096,220.6183421780588 21.202974969055504,225.0152821157826 22.849151242990047,228.03817232279107 23.22903807554394,228.58778819919098 23.862182796001434,229.0 23.862182796001434,228.31298028118908 22.469264410436153,226.5267278305255 21.202974969055504,224.32826093258336 19.55679869512096,219.79391478805337 18.543767142109573,218.007654195535 18.03725136583671,216.4962015914498" stroke="#4dd2ff" stroke-linecap="round" stroke-linejoin="round" stroke-width="0.5"><title>2023-10-12 1.0km</title><desc>10021974100</desc></polyline><polyline fill="none" points="37.89550185156986,213.5522495948244 38.39067788608372,216.23882426461205 38.26688387757167,217.31345302646514 39.38102995604277,220.9403204311384 40.2475880170241,222.5522591888439 41.114146078471094,225.50747655145824 42.35208616545424,228.46268913452514 42.59967418340966,228.73134458682034 43.218644227366894,229.0 43.09485021792352,228.46268913452514 41.73311612196267,224.97016465931665 40.2475880170241,222.41793101315852 38.26688387757167,217.85076717019547 37.77170784212649,216.1044956248952 37.52411982510239,213.5522495948244 36.781355772633106,211.0" stroke="#4dd2ff" stroke-linecap="round" stroke-linejoin="round" stroke-width="0.5"><title>2023-10-10 1.0km</title><desc>10009069592</desc></polyline><polyline fill="none" points="56.95066273305565,213.2500098424498 57.80447716778144,215.6323701395886 58.658291602507234,218.80884563201107 60.487893962766975,222.7794321157271 61.95157585060224,227.80882909044158 62.80539028532803,229.0 63.04933726694435,228.60294311773032 63.17131075728685,227.14706713322084 62.317496322561055,224.63236947765108 60.487893962766975,221.4559042607434 58.41434462135658,215.6323701395886 57.80447716778144,212.98530294792727 56.82868924224749,211.0" stroke="#4dd2ff" stroke-linecap="round" stroke-linejoin="round" stroke-width="0.5"><title>2023-10-09 1.0km</title><desc>10003389142</desc></polyline><polyline fill="none" points="76.33512142067775,211.0 77.23526703706011,212.11628403502982 78.13541265344247,214.20931483071763 78.64978157635778,218.3953694977099 80.57866503950208,222.58141493203584 82.25036404049024,227.3255885966355 83.0219174255617,228.7209315354703 83.66487857978791,229.0 83.66487857978791,227.88372589554638 81.2216261937283,223.97676135855727 78.00682042259723,216.1628081573872 76.72089811321348,211.13953554059844" stroke="#4dd2ff" stroke-linecap="round" stroke-linejoin="round" stroke-width="0.5"><title>2023-10-08 1.0km</title><desc>9996447828</desc></polyline><polyline fill="none" points="97.68947410071269,214.60001482162625 98.28191663930193,216.78573449037503 100.05924425413832,221.54287962068338 100.65168679272756,223.60001945286058 102.54750291490927,228.35714604717214 103.13994545349851,229.0 103.25843396084383,228.48571685678326 103.25843396084383,227.97143356245942 101.00715231569484,223.98573290207423 99.940755746793,221.67145093088038 98.04493962367997,216.01430433080532 97.45249708509073,213.05715223390143 96.74156603915617,211.0" stroke="#4dd2ff" stroke-linecap="round" stroke-linejoin="round" stroke-width="0.5"><title>2023-10-07 1.0km</title><desc>9989974159</desc></polyline><polyline fill="none" points="118.5293982247822,216.36172163987067 119.4705833606422,219.42555514350533 120.17647221311927,220.9574698683573 121.58824991760775,226.95745619398076 121.94119434338063,228.10638738039415 122.6470831958577,229.0 123.23532390547916,229.0 123.47062018932775,228.48936427361332 123.35297204786912,228.10638738039415 121.94119434338063,226.06384252291173 120.52941663889214,223.00002073205542 120.05882407119498,220.9574698683573 117.5882130889222,214.95746281091124 117.23526866268367,212.78724238602445 116.52937981067225,211.0" stroke="#4dd2ff" stroke-linecap="round" stroke-linejoin="round" stroke-width="0.5"><title>2023-10-06 1.0km</title><desc>9984428862</desc></polyline><polyline fill="none" points="136.12483936548233,211.0 138.16439759451896,216.45903345034458 139.52410308038816,221.0328068000963 141.83560240641236,226.78689395042602 142.78739624656737,228.7049193349667 143.19530789228156,229.0 143.73919008672237,229.0 143.87516063498333,228.7049193349667 143.46724898880348,227.96721748064738 141.83560240641236,225.60656972648576 140.88380856625736,223.6885413810378 139.25216198293492,219.40985615958925 138.57230924023315,217.19673953438178 136.6687215603888,213.65574785752688 136.6687215603888,212.32787436805665" stroke="#4dd2ff" stroke-linecap="round" stroke-linejoin="round" stroke-width="0.5"><title>2023-10-04 1.0km</title><desc>9971682885</desc></polyline><polyline fill="none" points="157.27562950411811,213.10219913115725 157.88104516966268,215.20439578976948 158.48646083520725,216.64965455804486 158.97079336829484,218.8832339918008 161.27137289801612,223.48177109507378 161.39245603140444,225.05840966361575 162.11895483080298,228.21168262825813 162.36112109664828,228.6058413576102 163.08761989604682,229.0 163.08761989604682,227.68613752059173 161.5135391652584,224.79563666554168 160.42379096662626,222.29929125588387 159.81837530015036,221.11681063415017 159.21295963414013,219.40878168831114 158.002128303051,216.912428754149 157.5177957699634,214.9416213426739 157.27562950411811,212.97081175807398 156.91238010441884,211.0" stroke="#4dd2ff" stroke-linecap="round" stroke-linejoin="round" stroke-width="0.5"><title>2023-10-03 1.0km</title><desc>9965060084</desc></polyline><polyline fill="none" points="176.70973855769262,211.7438048243057 178.35486927861348,217.09919148962945 178.62905773241073,219.47935879125725 179.58871732000262,220.66944139194675 180.27418845379725,222.45456398068927 181.50803649425507,227.06612337986007 182.46769608184695,228.55372094386257 183.1531672156416,229.0 183.29026144277304,228.8512403254863 182.87897876231,227.6611625365913 181.37094226805493,224.83472498285118 178.90324618574232,218.88431722810492 177.39520969148725,214.42149992857594 177.12102123815566,211.0" stroke="#4dd2ff" stroke-linecap="round" stroke-linejoin="round" stroke-width="0.5"><title>2023-10-02 1.0km</title><desc>9958643020</desc></polyline><polyline fill="none" points="17.146795372013003,234.16801199468318 17.41220975574106,235.46401542495005 20.331767980009317,242.37601923558395 21.791547091677785,246.84000873356126 22.58779024379328,248.4240025616018 23.38403339544311,249.0 23.516740588005632,248.85600065614562 23.38403339544311,248.2800031756051 20.729889555368572,244.2480160703417 18.208452907856554,238.0560197121231 17.014088179916143,234.31201241828967 16.483259411994368,231.0" stroke="#4dd2ff" stroke-linecap="round" stroke-linejoin="round" stroke-width="0.5"><title>2023-10-01 1.0km</title><desc>9952075403</desc></polyline><polyline fill="none" points="37.415576563216746,233.60870696778875 38.497428234666586,235.8261048743734 38.97825119877234,238.04350000969134 39.338868422899395,240.1304576053517 41.14195454167202,245.21740646020044 42.70462917815894,248.47826343949419 43.42586362501606,249.0 43.666275108233094,248.60869759391062 41.26216028351337,244.95653764309827 40.18030861206353,242.47828196594492 39.81969138793647,241.17393548239488 38.13681101053953,237.52176022715867 37.175165080465376,233.47827171022072 36.333724891766906,231.0" stroke="#4dd2ff" stroke-linecap="round" stroke-linejoin="round" stroke-width="0.5"><title>2023-09-30 1.0km</title><desc>9945549317</desc></polyline><polyline fill="none" points="57.213150607421994,231.0 58.40751463314518,233.0160082259681 58.80563597474247,234.60001323360484 59.86729288613424,237.19201866455842 60.39812134252861,241.0800203795079 60.79624268459156,242.23201940534636 62.38872805144638,246.12001111591235 62.78684939350933,248.56800193735398 63.052263621706516,248.85600065637846 63.450384963303804,249.0 63.58309207716957,248.7120013020467 61.19436402618885,244.39201575319748 59.60187865886837,240.64802057005 59.07105020293966,238.48802009352949 57.213150607421994,234.16801199526526 56.416907923296094,231.57600256206933" stroke="#4dd2ff" stroke-linecap="round" stroke-linejoin="round" stroke-width="0.5"><title>2023-09-28 1.0km</title><desc>9933629332</desc></polyline><polyline fill="none" points="76.4812475326471,233.04546334245242 77.48660538066179,236.5909277930623 79.37165134493262,239.1818398362957 80.62834865506738,243.81819972326048 82.387724888511,246.9545542517444 82.89040381275117,248.72727403056342 83.39308273606002,249.0 83.64442219864577,248.59091103065293 83.39308273606002,248.04545893135946 82.387724888511,246.6818279812578 79.49732107575983,240.81820347253233 77.98928430397063,236.72729167481884 76.35557780181989,231.0" stroke="#4dd2ff" stroke-linecap="round" stroke-linejoin="round" stroke-width="0.5"><title>2023-09-27 1.0km</title><desc>9927137811</desc></polyline><polyline fill="none" points="101.49532136670314,231.0 101.13644423848018,232.73079315607902 100.77756711049005,233.72599691554205 100.49844045541249,234.93754704669118 98.86355576105416,238.35583575541386 98.02617579582147,239.78372262767516 97.86667484999634,240.38949176907772 97.94642532267608,240.86545280006249 98.1458015050739,241.55775906681083 98.7439300515689,243.02890717971604 98.94330623396672,243.4183281234 99.18255765270442,244.11063138698228 99.98006238159724,245.10581590171205 100.33893950958736,245.88465478277067 100.73769187415019,246.49041764438152 101.05669376580045,247.3557920793537 101.535196603043,248.00482207047753 102.13332514977083,249.0" stroke="#4dd2ff" stroke-linecap="round" stroke-linejoin="round" stroke-width="0.5"><title>2023-09-26 1.0km</title><desc>9920397094</desc></polyline><polyline fill="none" points="119.91593836294487,231.0 119.13136308570392,233.61488918599207 118.34678780846298,235.01354744983837 117.61825362220407,235.92571460851468 117.22596598370001,236.65544761100318 117.05784271005541,237.38517996965675 117.11388380080462,238.29734451253898 117.3940892573446,239.02707542252028 118.06658235215582,240.06085977627663 118.34678780846298,241.0946428378229 118.90719872061163,242.43247782281833 119.97197945415974,243.77031064400217 121.76529437373392,247.4189346122439 122.94215728971176,249.0" stroke="#4dd2ff" stroke-linecap="round" stroke-linejoin="round" stroke-width="0.5"><title>2023-09-25 1.0km</title><desc>9914573673</desc></polyline><polyline fill="none" points="141.32704889355227,231.0 140.8846992624458,231.67200891877292 140.79622933617793,232.00801311869873 140.8846992624458,232.4400182645768 140.92893422557972,232.8720231244224 140.04423496313393,234.50403890397865 139.82306014746428,235.60804726480274 139.51341540599242,236.42405224451795 137.65554695483297,239.68806196353398 137.61131199169904,240.07206203386886 137.78825184400193,240.8400614973507 138.27483643847518,241.6080600572168 138.54024621727876,242.2800580559997 138.9383608852513,242.95205536298454 139.15953570092097,243.62405197828775 139.73459022142924,244.53604627848836 140.1769398523029,245.44803930463968 140.66352444700897,245.9760346848634 140.79622933617793,246.45603011449566 141.10587407811545,246.8400262040086 141.76939852489159,247.99201311788056 142.255983119132,248.5200064406381 142.3886880085338,249.0" stroke="#4dd2ff" stroke-linecap="round" stroke-linejoin="round" stroke-width="0.5"><title>2023-09-24 1.0km</title><desc>9907510217</desc></polyline><polyline fill="none" points="160.67104142787866,231.0 160.29525822820142,231.5825306751649 160.02684165723622,232.1650609219796 159.8657917145174,232.9223496025661 159.81210840004496,233.9126490924391 158.89949205797166,235.13595851819264 158.3626589155756,236.53402412019204 157.87950908741914,237.23305599595187 157.5574092019815,238.16509753774153 157.50372588750906,239.15539047430502 158.63107548677363,242.00975730718346 159.06054200069048,242.8835410165484 160.45630817115307,245.09712210064754 161.0468246275559,246.5534220727859 161.79839102714323,247.4854526500567 162.22785754106008,248.24272668687627 162.49627411249094,249.0" stroke="#4dd2ff" stroke-linecap="round" stroke-linejoin="round" stroke-width="0.5"><title>2023-09-23 1.0km</title><desc>9901004991</desc></polyline><polyline fill="none" points="180.69117305218242,231.0 180.33278702525422,231.6666743136011 179.97440099832602,232.83335294673452 179.15523293660954,234.5555895413272 178.33606487489305,235.7222637136001 177.61929282103665,237.66671666427283 177.5680948169902,238.72227474185638 177.6704908250831,239.33338663936593 178.69445090182126,241.7778292860603 178.84804491349496,242.5000494637643 179.05283692874946,242.88893696578452 179.76960898260586,243.77782193332678 180.33278702525422,244.88892667199252 180.79356905980967,246.05558488948736 181.56153911771253,247.16668627905892 182.43190518324263,249.0" stroke="#4dd2ff" stroke-linecap="round" stroke-linejoin="round" stroke-width="0.5"><title>2023-09-22 1.0km</title><desc>9895405405</desc></polyline><polyline fill="none" points="20.954184789210558,251.0 20.80738712917082,251.53097987367073 20.513791809789836,251.84956761042122 19.877668616827577,253.01772144268034 19.633005850482732,253.86728667921852 18.899017550982535,255.72570714971516 18.11609669867903,257.3186351749464 17.626771165523678,258.48678016033955 17.47997350571677,259.07085194438696 17.47997350571677,259.44253374281107 17.626771165523678,259.9735074087512 17.920366485370323,260.5044806843507 18.556489678332582,262.1504953575786 19.19261287082918,263.3186325269635 19.535140743711963,264.16818564524874 20.17126393644139,265.2301256377832 20.562724362593144,265.7079981250572 20.85631968243979,266.5575484325527 21.639240534976125,267.9380655508139 22.5200264940504,269.0" stroke="#4dd2ff" stroke-linecap="round" stroke-linejoin="round" stroke-width="0.5"><title>2023-09-21 1.0km</title><desc>9889267953</desc></polyline><polyline fill="none" points="41.83262381213717,251.0 41.1902608263772,252.9271348346956 40.812400246737525,254.4442362957052 40.20782331866212,255.71531812573085 39.489888217067346,257.84744888261775 38.2429483034648,260.184582846734 37.90287378174253,261.4556515922013 37.9406598394271,261.7426667143882 38.16737618739717,262.3576986216649 38.658594941487536,263.42375232084305 38.96088340529241,264.32579616687144 39.716604565037414,265.3918461037101 40.17003726097755,266.2528849497321 40.43453966663219,266.86791188293137 40.73682813043706,267.4009346763487 41.22804688452743,267.76995015799184 41.83262381213717,268.6719869741064 41.8704098702874,268.8359935111657 42.09712621825747,269.0" stroke="#4dd2ff" stroke-linecap="round" stroke-linejoin="round" stroke-width="0.5"><title>2023-09-20 1.0km</title><desc>9882714971</desc></polyline><polyline fill="none" points="61.492503026966006,251.0 61.10871653445065,251.97173551184824 60.383786492748186,254.10029377049068 60.34114354918711,254.79438729817048 60.085285887354985,255.16457019996597 59.786785282194614,255.85866255377186 59.616213507484645,256.506481393415 59.275069958530366,257.3856630375376 58.29428225499578,258.9589323879336 58.038424593163654,259.8843831096892 57.9531387060415,260.7172875957913 58.038424593163654,261.55019097944023 58.29428225499578,262.47563789068954 58.59278286015615,263.1234499189886 59.53092762012966,264.74297707213555 60.00000000023283,265.39078676642384 60.42642943630926,266.5475881336024 60.852858872618526,267.2879398926161 61.27928830869496,267.889475055621 61.7483606885653,268.35219402058283 62.04686129419133,269.0" stroke="#4dd2ff" stroke-linecap="round" stroke-linejoin="round" stroke-width="0.5"><title>2023-09-19 1.0km</title><desc>9876194288</desc></polyline><polyline fill="none" points="79.86750662187114,251.0 79.54952251445502,251.51757766940864 79.01954900240526,252.5527319808025 78.8605569486972,253.24283409374766 77.90660462668166,254.91057835303945 77.16464170953259,256.46330257016234 77.00564965582453,257.03838483133586 77.05864700721577,257.6709748299909 77.37663111463189,258.47608863416826 77.85360727552325,259.3387096473016 78.27758608548902,260.5463774675154 78.8605569486972,261.81155127921375 79.49652516329661,262.96170751401223 80.07949602697045,263.70930815977044 80.76846159272827,264.85946160397725 81.19244040246122,266.182135974057 81.93440331984311,267.3322857822059 82.30538477841765,268.36741916363826 82.9943503444083,269.0" stroke="#4dd2ff" stroke-linecap="round" stroke-linejoin="round" stroke-width="0.5"><title>2023-09-18 1.0km</title><desc>9870505463</desc></polyline><polyline fill="none" points="100.180867734598,251.0 99.92248525680043,251.5046786859748 99.56074978783727,253.18693856027676 99.09566132770851,253.97199189837556 98.88895534537733,254.58881895412924 97.75207244278863,256.43929712829413 97.33866047835909,257.4486469672411 97.08027800032869,258.3458457023953 97.28698398265988,258.9626692206948 98.42386688501574,261.4299583049142 98.99230833654292,262.3271523566218 99.40572030097246,263.2804198800004 100.0775147434324,264.17761175491614 100.4392502126284,264.79443055659067 100.90433867252432,266.2523639231222 102.91972199990414,269.0" stroke="#4dd2ff" stroke-linecap="round" stroke-linejoin="round" stroke-width="0.5"><title>2023-09-16 1.0km</title><desc>9856514700</desc></polyline><polyline fill="none" points="119.75117739033885,251.0 119.19823825755157,252.68001679936424 118.47941738506779,253.82002622907748 116.98648172640242,256.7000429572654 116.93118781317025,257.36004535935353 116.98648172640242,258.1400475098053 117.31824520626105,258.92004891473334 117.87118433904834,259.76004959398415 118.36882955837063,260.9000491327606 119.25353217078373,262.4000460996176 120.35941043659113,264.50003722141264 120.46999826305546,265.2800325474236 120.85705565591343,265.58003055123845 121.29940696223639,266.18002622795757 122.01822783472016,267.38001625816105 122.7923426204361,268.04001002263976 122.95822436036542,268.46000577666564 123.06881218706258,269.0" stroke="#4dd2ff" stroke-linecap="round" stroke-linejoin="round" stroke-width="0.5"><title>2023-09-15 1.0km</title><desc>9850671982</desc></polyline><polyline fill="none" points="140.45760422758758,251.0 139.54239577241242,253.4207119922503 138.51278626034036,254.91037746024085 138.05518203275278,255.7172784911818 137.3687756913714,257.4552165536443 137.19717410602607,258.07590785168577 137.19717410602607,258.57246056129225 137.3687756913714,259.193151037849 138.05518203275278,261.05521972937277 138.6843878456857,262.29659657517914 140.22880211402662,264.96555061248364 140.8580079267267,266.14485319692176 140.9724089836236,266.82760657178005 141.4300132112112,267.26208570454037 142.173620081041,268.44138508086326 142.80282589397393,269.0" stroke="#4dd2ff" stroke-linecap="round" stroke-linejoin="round" stroke-width="0.5"><title>2023-09-14 1.0km</title><desc>9844236351</desc></polyline><polyline fill="none" points="157.13924675201997,251.0 157.46854208991863,251.26799398573348 157.59202784160152,251.535987853189 157.6743516761344,252.11664082697826 157.92132317950018,252.60796214069705 158.08597084856592,253.99259279557737 158.08597084856592,254.66257423744537 158.00364701403305,255.01989737094846 158.08597084856592,255.46655099239433 158.29178043454885,256.00253490457544 158.2094566002488,256.4491878034314 158.25061851739883,256.6725141296629 158.66223768983036,257.4318230249919 159.03269494511187,258.54845202929573 159.3619902827777,259.17376337520545 159.77360945520923,259.7544090486481 160.22639054479077,260.1563941896311 160.34987629647367,260.42438413598575 160.4733620483894,261.00502861407585 160.80265738628805,261.5856725371559 161.17311464133672,262.6576290910598 161.6670576480683,263.5955895241932 161.91402915143408,264.39955445716623 162.0375149033498,265.0695244217641 162.2844864067156,265.6054998616455 162.73726749629714,267.0794298829278 163.35469625494443,268.2407055631047 163.39585817232728,268.41936316300416 163.35469625494443,268.5533563285135 162.86075324798003,269.0 163.10772475157864,268.8213425707654 163.23121050326154,268.5533563285135 163.31353433756158,268.330034369661 163.2723724206444,268.0173834892921 163.02540091704577,267.70473244803725 162.2844864067156,266.0968102659681 161.91402915143408,264.89086583675817 161.1319527241867,263.14894187945174 160.7614954689052,261.45167783496436 160.55568588292226,260.96036367397755 159.77360945520923,259.9330691441428 158.99153302772902,258.45912178448634 158.6210757724475,257.2531621938688 158.49759002099745,256.4491878034314 158.16829468286596,255.60054701479385 157.50970400730148,254.1712545856717 157.34505633823574,253.50127260189038 156.7687894969713,252.4292998908204 156.64530374505557,251.84864721581107 156.60414182790555,251.1339970076806" stroke="#4dd2ff" stroke-linecap="round" stroke-linejoin="round" stroke-width="0.5"><title>2023-09-13 1.0km</title><desc>9837636972</desc></polyline></svg>