<?xml version="1.0" encoding="utf-8" ?>
<svg baseProfile="full" height="300mm" version="1.1" viewBox="0,0,200,300" width="200mm" xmlns="http://www.w3.org/2000/svg" xmlns:ev="http://www.w3.org/2001/xml-events" xmlns:xlink="http://www.w3.org/1999/xlink"><defs /><rect fill="#222222" height="300" width="200" x="0" y="0" /><text fill="#FFFFFF" style="font-size:12px; font-family:Arial; font-weight:bold;" x="10" y="20">Over 1km Runs</text><text fill="#FFFFFF" style="font-size:4px; font-family:Arial" x="10" y="280">ATHLETE</text><text fill="#FFFFFF" style="font-size:9px; font-family:Arial" x="10" y="290">Jiakai</text><text fill="#FFFFFF" style="font-size:4px; font-family:Arial" x="120" y="280">STATISTICS</text><text fill="#FFFFFF" style="font-size:3px; font-family:Arial" x="120" y="285">Number: 102</text><text fill="#FFFFFF" style="font-size:3px; font-family:Arial" x="120" y="290">Weekly: 5.4</text><text fill="#FFFFFF" style="font-size:3px; font-family:Arial" x="141" y="285">Total: 105.5 km</text><text fill="#FFFFFF" style="font-size:3px; font-family:Arial" x="141" y="290">Avg: 1.0 km</text><text fill="#FFFFFF" style="font-size:3px; font-family:Arial" x="167" y="285">Min: 1.0 km</text><text fill="#FFFFFF" style="font-size:3px; font-family:Arial" x="167" y="290">Max: 1.5 km</text><polyline fill="none" points="11.0,33.371356112184 11.18652849784121,34.78817158623133 11.652849740814418,36.30618654761929 11.652849740814418,36.91339206311386 12.119170984718949,38.12780229107011 12.58549222862348,39.94941562402528 13.79792746109888,42.8842320345575 15.569948186632246,45.616641688742675 16.59585492266342,46.42624350753613 17.715025906916708,46.628643887816 20.419689119327813,46.32504330622032 24.150259067304432,45.51544142793864 25.26943005202338,44.705839073169045 26.854922279715538,43.997436622390524 29.0,42.68183110374957" stroke="#4dd2ff" stroke-linecap="round" stroke-linejoin="round" stroke-width="0.5"><title>2024-03-03 1.0km</title><desc>10877188327</desc></polyline><polyline fill="none" points="31.0,45.89884775434621 32.44966442976147,47.209696433274075 33.65771812107414,47.734035635367036 34.261744966730475,47.734035635367036 36.798657717648894,47.471866053529084 41.872483221814036,46.16101756738499 46.70469798659906,44.19474303117022 48.7583892615512,42.62172184092924 49.0,42.359551507630385 48.7583892615512,40.91761398559902 48.03355704713613,39.082419089158066 44.04697986552492,32.265964364632964" stroke="#4dd2ff" stroke-linecap="round" stroke-linejoin="round" stroke-width="0.5"><title>2024-03-02 1.0km</title><desc>10870189784</desc></polyline><polyline fill="none" points="59.9468319863081,31.0 60.478512125089765,32.26923753414303 60.691184180788696,33.07693361258134 60.79752020863816,34.92309451638721 64.2002730993554,43.000022937194444 64.94462529430166,45.192324908101 64.94462529430166,45.538477571099065 64.41294515505433,46.00001433584839 62.71156870992854,46.92308745859191 60.265840069856495,47.50000788480975 57.50110334577039,48.65384810080286 56.01239895634353,49.0 55.58705484494567,48.76923207566142 55.05537470569834,46.69231922866311" stroke="#4dd2ff" stroke-linecap="round" stroke-linejoin="round" stroke-width="0.5"><title>2024-01-19 1.0km</title><desc>10585384707</desc></polyline><polyline fill="none" points="76.75192282954231,33.26574467669707 76.86792558571324,35.15386295004282 77.0999310980551,36.03498409828171 79.30398346344009,39.93708659056574 80.34800826851279,42.32869339955505 80.92802204936743,44.34267548972275 81.97204685397446,46.3566552111879 82.08804961014539,48.244759048335254 82.7840661467053,48.87412653141655 83.13207441521809,49.0 83.59608543897048,48.87412653141655 83.48008268373087,48.37063256360125 82.7840661467053,47.237770594190806 79.41998621961102,39.55946415744256 77.33193660993129,35.279737427830696 76.40391456102952,31.0" stroke="#4dd2ff" stroke-linecap="round" stroke-linejoin="round" stroke-width="0.5"><title>2024-01-17 1.0km</title><desc>10572816563</desc></polyline><polyline fill="none" points="96.63048108154908,31.0 97.66725613363087,35.07813984097447 99.87040311843157,42.25001984962728 101.42556569585577,45.20313909614924 102.33274386683479,48.01562937779818 102.98072827374563,48.85937565623317 103.36951891845092,49.0 103.36951891845092,48.4375025635818 100.6479844073765,42.67189430666622 98.18564365943894,36.34376767894719 96.63048108154908,33.25000926339999" stroke="#4dd2ff" stroke-linecap="round" stroke-linejoin="round" stroke-width="0.5"><title>2024-01-16 1.0km</title><desc>10566280205</desc></polyline><polyline fill="none" points="116.38298093527555,31.406016977969557 118.25385286472738,35.330843146541156 119.75055040931329,40.473706149845384 121.49669754365459,43.99249887350015 122.9933950882405,48.32331145426724 123.36756947403774,49.0 123.61701906472445,49.0 119.87527520488948,41.28573583706748 119.00220163725317,38.57896882027853 118.37857766076922,36.142875102348626 117.50550409313291,34.38347207882907 116.63243052596226,31.0" stroke="#4dd2ff" stroke-linecap="round" stroke-linejoin="round" stroke-width="0.5"><title>2024-01-09 1.0km</title><desc>10520988068</desc></polyline><polyline fill="none" points="136.75715460581705,32.4887284807628 137.38077871967107,35.060165748465806 138.62802694831043,37.76693793933373 140.87307375948876,44.66918901109602 142.61922127986327,48.59398690296803 142.9933957476169,49.0 143.24284539418295,48.72932461183518 142.868670925498,47.24060926469974 142.24504681117833,46.293244325672276 140.37417446868494,41.42107408342417 138.62802694831043,37.76693793933373 137.13132907403633,31.0" stroke="#4dd2ff" stroke-linecap="round" stroke-linejoin="round" stroke-width="0.5"><title>2024-01-07 1.0km</title><desc>10508221625</desc></polyline><polyline fill="none" points="158.5869142622687,36.333351957728155 158.83266830444336,37.66668749670498 159.93856148933992,40.4666889377404 160.9215776543133,43.80001835001167 162.8876099837944,48.60000194073655 163.37911806628108,49.0 163.37911806628108,48.066671058069915 162.27322488091886,46.20001173368655 161.65883977804333,44.20001746760681 159.20129936560988,39.000022055231966 158.341160221491,36.73335272236727 157.72677511861548,35.666683820891194 156.62088193325326,31.0" stroke="#4dd2ff" stroke-linecap="round" stroke-linejoin="round" stroke-width="0.5"><title>2024-01-06 1.0km</title><desc>10501510624</desc></polyline><polyline fill="none" points="177.62194332526997,34.27274134848267 178.54996544169262,36.53848169394769 179.24598202994093,39.43358999455813 180.40600967640057,43.20981085568201 181.68204008741304,45.979034193907864 182.49405943974853,47.99301199009642 182.95807049795985,48.748253053287044 183.42208155663684,49.0 183.306078792084,48.11888552387245 182.7260649688542,46.73427614511456 178.89797373628244,39.43358999455813 178.2019571484998,37.29372780956328 177.96995161892846,35.27973742748145 177.15793226659298,33.139870051061735 176.57791844336316,31.0" stroke="#4dd2ff" stroke-linecap="round" stroke-linejoin="round" stroke-width="0.5"><title>2024-01-05 1.0km</title><desc>10495609202</desc></polyline><polyline fill="none" points="16.206528631970286,51.0 16.978082130663097,52.81396122346632 17.621043379418552,54.76745598623529 18.521189127583057,56.58141360874288 20.192888374906033,61.325602270895615 22.250364370644093,66.06977907463443 23.021917869336903,68.58139728754759 23.536286868620664,69.0 23.793471368029714,68.30232876108494 23.664879118092358,67.32558859628625 20.57866512425244,61.046532678068615 19.54992712615058,57.41862423438579 18.521189127583057,51.55814209987875" stroke="#4dd2ff" stroke-linecap="round" stroke-linejoin="round" stroke-width="0.5"><title>2024-01-04 1.0km</title><desc>10489071805</desc></polyline><polyline fill="none" points="37.49954325752333,54.30883703043219 39.085198753047734,58.67649259837344 41.03677474707365,63.04413756961003 42.01256274431944,66.75000984175131 42.866377241909504,69.0 42.98835074156523,69.0 42.98835074156523,68.07353380450513 42.37848324328661,65.82354248885531 41.158748246729374,63.04413756961003 40.18296024994925,60.2647283594124 38.59730475442484,57.08825543615967 37.62151675764471,54.176483665942214 37.011649258900434,52.32353554200381 37.377569757867604,51.0" stroke="#4dd2ff" stroke-linecap="round" stroke-linejoin="round" stroke-width="0.5"><title>2024-01-03 1.0km</title><desc>10482519748</desc></polyline><polyline fill="none" points="56.3670011209324,51.297521962667815 59.520169959403574,60.52068110543769 62.8104330948554,68.40496123710182 63.49590458115563,69.0 63.6329988790676,68.40496123710182 63.22171598719433,67.36364297999535 59.794358554296196,60.81820166797843 58.56050987821072,57.54547307221219 56.77828401280567,51.0" stroke="#4dd2ff" stroke-linecap="round" stroke-linejoin="round" stroke-width="0.5"><title>2024-01-01 1.0km</title><desc>10470902913</desc></polyline><polyline fill="none" points="87.61672993563116,55.40818125801161 87.39104904886335,55.77552916947752 85.02139973500744,57.48981835064478 84.00583574408665,58.59186046384275 83.32879308285192,59.81635084503796 82.87743130931631,60.42859569785651 82.53890997869894,60.55104464129545 81.07198421377689,60.55104464129545 79.71789889177307,61.040840325760655 77.91245179576799,60.918391417944804 77.00972824729979,60.55104464129545 76.44552603038028,59.69390184734948 76.10700469976291,58.95920767285861 75.99416425637901,57.24492000427563 75.65564292529598,56.510224749101326 74.30155760375783,56.510224749101326 73.17315316898748,56.87757241737563 73.06031272560358,57.00002162193414 73.51167449960485,57.24492000427563 73.737355385907,57.00002162193414 72.94747228221968,57.00002162193414 72.72179139498621,56.7551232035039 72.49611050775275,55.89797845506109 72.38327006436884,54.42858643166255 72.94747228221968,54.55103581654839 73.39883405668661,55.530630571069196 74.41439804760739,56.63267398066819 75.20428115176037,56.63267398066819 75.8813238129951,56.142876999801956 76.44552603038028,56.26532625826076 76.55836647376418,56.020427731913514 75.54280248237774,53.081642604316585 75.31712159514427,52.959193111164495 74.07587671652436,52.83674360951409 72.83463183837011,52.959193111164495 73.62451494298875,52.959193111164495 72.49611050775275,51.734697686857544 72.38327006436884,51.0 72.72179139498621,51.489798494149 73.06031272560358,53.081642604316585 73.39883405668661,53.81633937230799 73.737355385907,55.40818125801161 73.06031272560358,59.571452840580605 73.85019582975656,63.36736785795074 74.5272384909913,64.46940608078148 74.6400789343752,66.30613483092748 75.65564292529598,69.0" stroke="#4dd2ff" stroke-linecap="round" stroke-linejoin="round" stroke-width="0.5"><title>2023-12-31 1.5km</title><desc>10466792666</desc></polyline><polyline fill="none" points="97.61318105319515,55.273397946031764 98.92593147419393,59.935274790157564 100.71604568464682,63.6906666085124 102.26747800037265,68.09352957841475 102.74484178982675,69.0 102.9835236845538,69.0 103.10286463145167,67.96403376583476 102.62550084246323,66.5395791985793 100.47736378991976,62.13671234436333 100.47736378991976,60.97124574659392 98.92593147419393,57.604337910655886 98.68724957946688,55.01440442644525 98.20988579047844,53.46044250787236 96.897135369014,51.0" stroke="#4dd2ff" stroke-linecap="round" stroke-linejoin="round" stroke-width="0.5"><title>2023-12-30 1.0km</title><desc>10458865202</desc></polyline><polyline fill="none" points="120.97876229183748,51.0 118.71215487923473,51.2236037919065 117.16674073366448,52.22982044820674 116.03343702713028,53.347838174086064 115.51829897845164,54.68945835984778 115.10618853988126,59.94412601995282 115.62132658809423,65.19877551647369 115.82738180737942,65.98138133413158 116.13646463630721,66.65218599990476 117.78490639152005,68.44099699554499 119.63940336601809,69.0 121.08178990148008,68.77639882266521 122.83325926586986,67.65839244390372 123.86353536276147,66.76398674899247 124.89381145965308,63.74536364292726 124.79078385047615,61.39754152763635 124.4817010210827,59.385119685321115 124.27564580226317,54.46585507784039 123.96656297286972,53.236036438611336 123.34839731454849,52.453424059203826 122.62720404658467,51.89441497006919 120.97876229183748,51.5590094178915 118.71215487923473,51.67081127688289 117.06371312355623,52.565225852420554 116.23949224641547,53.57144162070472 115.62132658809423,55.13666482537519 115.62132658809423,55.91927582339849 115.93040941702202,57.81990085518919 115.72435419820249,59.385119685321115" stroke="#4dd2ff" stroke-linecap="round" stroke-linejoin="round" stroke-width="0.5"><title>2023-12-29 1.0km</title><desc>10454615358</desc></polyline><polyline fill="none" points="137.48660630453378,52.90909918991383 139.24598189117387,59.18183983606286 142.01071495609358,67.6363697515335 142.89040275011212,69.0 143.0160724343732,69.0 143.0160724343732,67.6363697515335 141.13102716300637,61.909111761138774 139.62299094581977,58.22729371488094 138.61763346754014,56.318199999048375 136.98392756516114,51.0" stroke="#4dd2ff" stroke-linecap="round" stroke-linejoin="round" stroke-width="0.5"><title>2023-12-27 1.0km</title><desc>10441997651</desc></polyline><polyline fill="none" points="156.60691900970414,53.318191617610864 158.61763367056847,57.27274710254278 159.6229910007678,61.36365769722033 161.00535733019933,63.9545630736975 162.63906299276277,68.1818219712004 163.14174165716395,69.0 163.39308099029586,68.86363702046219 162.51339332573116,66.27273850073107 161.25669666333124,64.36365306563675 157.2352673416026,54.818196414853446 156.98392800893635,52.227278276346624 156.60691900970414,51.0" stroke="#4dd2ff" stroke-linecap="round" stroke-linejoin="round" stroke-width="0.5"><title>2023-12-17 1.0km</title><desc>10391591057</desc></polyline><polyline fill="none" points="177.07950775464997,54.16902771452442 178.481344032567,57.84509256517049 180.8177378284745,62.408472511102445 182.9204922444187,68.49296031869017 183.3877710038796,69.0 183.50459069386125,68.87324009358417 183.50459069386125,68.36620037502144 182.9204922444187,66.71832025947515 179.76636062003672,60.50706566812005 178.36452434258536,56.704245691304095 177.31314713414758,52.39437291189097 176.4954093056731,51.0" stroke="#4dd2ff" stroke-linecap="round" stroke-linejoin="round" stroke-width="0.5"><title>2023-12-16 1.0km</title><desc>10386207035</desc></polyline><polyline fill="none" points="17.56786756357178,74.38347207952756 18.06676652468741,76.68422954087146 19.8129128892906,81.96242696943227 20.81071081198752,83.58648467215244 22.182682955637574,88.05263596656732 22.55685717659071,89.0 22.806306657381356,89.0 22.806306657381356,87.64662266056985 20.93543555215001,81.96242696943227 18.316216005012393,77.90227644436527 18.191491265315562,76.27821372705512 17.44314282340929,74.38347207952756 17.692592303734273,73.16542284714524 17.193693342618644,71.0" stroke="#4dd2ff" stroke-linecap="round" stroke-linejoin="round" stroke-width="0.5"><title>2023-12-14 1.0km</title><desc>10376526598</desc></polyline><polyline fill="none" points="43.8635347946547,72.56522585265338 42.9362864443101,71.7826131277252 41.39087252598256,71.11180190031882 39.948486202862114,71.0 38.50609987927601,71.33540567557793 36.65160317765549,72.34162225795444 35.82738242158666,73.45963990176097 35.20921685406938,75.36026800901163 35.20921685406938,79.60872224404011 35.41527204308659,80.95033690426499 35.82738242158666,82.6273535641376 35.51829963782802,84.63977111433633 35.621327232103795,85.42237722000573 35.72435482637957,85.86958052788395 36.75463077239692,87.65839244425297 38.403072284534574,88.88819941575639 38.91821025684476,89.0 39.948486202862114,89.0 40.978762147482485,89.0 42.833258849568665,88.32919637009036 43.8635347946547,87.32299037033226 44.48170036217198,86.20498292252887 44.687755551189184,83.74536364304367 44.79078314593062,82.0683482165914 44.48170036217198,80.05592726240866 44.687755551189184,77.37269517919049 44.58472795644775,75.02486322144978 44.48170036217198,74.2422517631203 43.760507200378925,72.6770276373718 43.451424416620284,72.34162225795444 42.31812087725848,71.55900941800792 40.051513797137886,71.33540567557793 38.60912747355178,71.55900941800792 37.784906717482954,71.89441497018561 36.239492799621075,73.57144162082113 35.621327232103795,75.91927582328208 35.82738242158666,77.48449661070481" stroke="#4dd2ff" stroke-linecap="round" stroke-linejoin="round" stroke-width="0.5"><title>2023-12-13 1.0km</title><desc>10373769329</desc></polyline><polyline fill="none" points="57.83360643964261,73.55224959517363 59.07154561718926,78.65673809009604 60.30948479427025,81.34330525412224 62.785363148897886,88.328361393651 63.28053881973028,89.0 63.52812665514648,89.0 63.65192057285458,88.46268913464155 63.15674490202218,87.65672254085075 61.17604221822694,84.29852457169909 58.328782110475004,78.52240962779615 57.95740035735071,76.77613872440998 56.59566726256162,73.82090723980218 56.34807942714542,71.0" stroke="#4dd2ff" stroke-linecap="round" stroke-linejoin="round" stroke-width="0.5"><title>2023-12-12 1.0km</title><desc>10365882163</desc></polyline><polyline fill="none" points="76.49541033664718,71.0 77.7804265464656,73.78874469583388 79.53272137837484,78.22537468874361 80.81773758819327,80.63382618967444 82.68685207562521,86.46480010182131 82.92049138667062,87.98592048813589 83.38777000829577,89.0 83.50458966335282,88.11268045951147 83.27095035277307,87.09860042587388 80.81773758819327,81.52114957885351 79.06544275628403,78.09861399035435 78.59816413512453,76.70424569153693 78.24770516855642,73.78874469583388 77.31314792530611,71.1267612206284" stroke="#4dd2ff" stroke-linecap="round" stroke-linejoin="round" stroke-width="0.5"><title>2023-12-11 1.0km</title><desc>10361067591</desc></polyline><polyline fill="none" points="100.36061714449897,81.04350078164134 102.76473143929616,88.34782927564811 102.88493715412915,88.73913173889741 103.36576001346111,89.0 103.48596572736278,88.86956587433815 103.12534858379513,87.95652672543656 102.04349715076387,85.86957833555061 100.84144000336528,82.60871656169184 97.47567999083549,75.82610487437341 96.51403427263722,71.0" stroke="#4dd2ff" stroke-linecap="round" stroke-linejoin="round" stroke-width="0.5"><title>2023-12-10 1.0km</title><desc>10355395415</desc></polyline><polyline fill="none" points="116.82868994167075,72.1911820312962 118.90223882580176,75.50001687242184 119.87802653573453,79.60296362906229 121.95157541986555,85.42648490634747 122.68341620266438,88.60294311749749 123.17131005832925,89.0 123.2932835216634,88.86764771549497 123.2932835216634,88.60294311749749 123.04933659406379,87.5441243366804 120.48789385519922,82.38237386127003 119.87802653573453,80.92649284633808 119.51210614433512,78.67649259825703 118.90223882580176,76.95590227597859 117.92645111586899,75.23531030898448 117.80447765160352,73.3823632748099 116.70671647787094,71.0" stroke="#4dd2ff" stroke-linecap="round" stroke-linejoin="round" stroke-width="0.5"><title>2023-12-09 1.0km</title><desc>10350143310</desc></polyline><polyline fill="none" points="138.08119371067733,74.49255117913708 138.82395743578672,77.17912446556147 140.43327883956954,81.07464871532284 142.66157001350075,87.52239474025555 143.6519216466695,89.0 143.5281276931055,87.65672254085075 142.7853639679961,85.37314859370235 140.80466070165858,81.8806182127446 139.56672116043046,78.92539498396218 138.20498766517267,76.77613872475922 137.83360580261797,74.62687993713189 136.34807835286483,71.0" stroke="#4dd2ff" stroke-linecap="round" stroke-linejoin="round" stroke-width="0.5"><title>2023-12-08 1.0km</title><desc>10345303898</desc></polyline><polyline fill="none" points="157.09993195021525,71.0 157.33193739457056,71.6293738221284 157.79594828234985,73.26574467681348 158.02795372670516,75.5314863550011 158.4919646140188,77.41960212949198 160.11600272217765,81.44757549010683 161.1600272199139,85.09791816305369 162.20405171765015,87.36364418326411 162.43605716200545,89.0 162.6680626058951,88.87412653130013 162.90006804978475,88.62237956561148 162.90006804978475,88.24475904810242 162.3200544398278,86.7342761453474 160.46401088824496,83.58743248344399 158.25995917012915,77.16785348008852 157.67994556063786,74.52449042350054" stroke="#4dd2ff" stroke-linecap="round" stroke-linejoin="round" stroke-width="0.5"><title>2023-12-07 1.0km</title><desc>10340288256</desc></polyline><polyline fill="none" points="176.65845347428694,71.0 177.3744991584681,72.68346103455406 178.68724957946688,78.25182068638969 180.5967047372833,81.74822356412187 182.14813705300912,86.02159543370362 182.86418273719028,88.74100849858951 183.22220557928085,89.0 183.34154652617872,88.09352957841475 183.10286463191733,86.92806692188606 181.19340947363526,82.91368964756839 179.88065905310214,80.97124574659392 179.16461336892098,79.5467855243478 176.77779442211613,71.38849115080666" stroke="#4dd2ff" stroke-linecap="round" stroke-linejoin="round" stroke-width="0.5"><title>2023-12-06 1.0km</title><desc>10334845031</desc></polyline><polyline fill="none" points="18.34116107597947,94.1034619655693 19.141979867126793,98.20002302597277 19.942798658274114,101.17933391826227 21.88764429371804,106.2689778652275 22.91726845363155,108.62758815078996 23.26047650631517,109.0 22.802865769248456,106.76552767283283 21.65883892448619,104.65518998203333 20.62921476503834,101.67588522285223 19.141979867126793,98.57243717496749 18.455563760362566,96.21381284378003 17.31153691606596,93.73104683100246 16.73952349368483,91.0" stroke="#4dd2ff" stroke-linecap="round" stroke-linejoin="round" stroke-width="0.5"><title>2023-12-05 1.0km</title><desc>10329306344</desc></polyline><polyline fill="none" points="36.69392242329195,92.51049678423442 37.50594147713855,93.7692430865718 38.549965975340456,97.41960212949198 40.63801497081295,102.58044129051268 41.68203946901485,106.10490787529852 42.610061244573444,108.11888552398887 43.30607757670805,109.0 43.30607757670805,108.37063256313559 40.290006804745644,101.44757549010683 39.129979585297406,97.54547644068953 37.85394964320585,94.6503649475053 36.9259278671816,91.0" stroke="#4dd2ff" stroke-linecap="round" stroke-linejoin="round" stroke-width="0.5"><title>2023-12-04 1.0km</title><desc>10324662812</desc></polyline><polyline fill="none" points="56.873725838027894,92.66154566861223 58.14975610887632,97.50771216268186 60.191404541023076,102.07694343582261 61.59503783797845,106.92308570316527 62.61586205428466,108.86153911822475 63.38148021604866,109.0 63.38148021604866,108.44615641166456 62.48825902771205,106.92308570316527 61.33983178436756,103.60001806344371 60.0638015139848,101.66155923262704 59.170580324716866,99.3077136843931 57.63934400025755,93.76924196642358 56.618519784417,91.0" stroke="#4dd2ff" stroke-linecap="round" stroke-linejoin="round" stroke-width="0.5"><title>2023-12-02 1.0km</title><desc>10313350310</desc></polyline><polyline fill="none" points="76.73258963692933,91.95454984041862 77.98928593005985,93.59091985307168 79.49732148181647,98.77274870162364 80.5026785172522,103.00001940899529 82.13638369832188,107.63636975188274 83.14174073329195,109.0 83.267410362605,108.18182197131682 83.0160711039789,106.54546483117156 81.63370518060401,103.54547299188562 79.49732148181647,100.13638546620496 78.24062518915161,97.54547475650907 76.98392889508978,91.0" stroke="#4dd2ff" stroke-linecap="round" stroke-linejoin="round" stroke-width="0.5"><title>2023-12-01 1.0km</title><desc>10308709030</desc></polyline><polyline fill="none" points="96.68232080945745,91.0 99.17058020224795,99.55001980031375 101.65883959503844,104.65001455100719 103.04120592400432,108.40000255848281 103.45591582311317,109.0 103.59415245614946,108.55000193545129 103.04120592400432,107.05000766995363 100.96765642985702,104.20001552719623 100.41470989910886,102.70001806365326 98.34116040496156,98.65001940354705 97.37350397417322,94.0000110277906 96.40584754385054,91.30000130133703" stroke="#4dd2ff" stroke-linecap="round" stroke-linejoin="round" stroke-width="0.5"><title>2023-11-30 1.0km</title><desc>10303537703</desc></polyline><polyline fill="none" points="117.94075258821249,94.84829198836815 118.74157102638856,97.4551944816485 119.08477892819792,99.56554117088672 120.34320790180936,102.04829860525206 121.71603950997815,105.77242791187018 123.0888711172156,108.75172544328962 123.31767638539895,109.0 123.54648165311664,108.75172544328962 123.31767638539895,107.8827642062679 122.40245531359687,106.2689778652275 121.14402633998543,102.79312512371689 119.31358419591561,99.06898924615234 118.62716839229688,95.09656858979724 117.2543367841281,92.98621631483547 116.45351834688336,91.0" stroke="#4dd2ff" stroke-linecap="round" stroke-linejoin="round" stroke-width="0.5"><title>2023-11-29 1.0km</title><desc>10298007687</desc></polyline><polyline fill="none" points="136.89713673759252,93.33094561949838 138.20988657930866,96.69786162441596 138.4485683683306,99.15829617308918 140.11934089427814,103.17268200626131 141.07406805222854,106.79857102350798 141.90945431543514,108.48201695899479 142.74484057817608,109.0 143.10286326240748,109.0 143.34154505236074,108.61151273362339 143.22220415715128,108.09352957829833 142.74484057817608,107.18705868988764 140.83538626274094,102.13671234436333 138.92593194777146,97.73383448482491 138.56790926354006,95.66188815457281 137.7325229998678,93.20144872169476 136.65845494763926,91.0" stroke="#4dd2ff" stroke-linecap="round" stroke-linejoin="round" stroke-width="0.5"><title>2023-11-28 1.0km</title><desc>10292316108</desc></polyline><polyline fill="none" points="159.5773650407791,91.0 160.6339524402283,93.8662559457589 161.26790487999097,96.61785669741221 162.11317479936406,97.87900541932322 163.06410345900804,99.71340173971839 164.01503211865202,102.69429115857929 164.8603020380251,104.07008435309399 164.8603020380251,104.75798049510922 164.33200833853334,105.21657775470521 162.6414684993215,106.13377186935395 161.5848810998723,107.05096544418484 160.5282937004231,107.62421115464531 158.94341260101646,108.31210572912823 156.40760284243152,109.0 155.9849678822793,108.8853509761393 155.66799166239798,108.54140385333449 155.13969796244055,106.36307031358592" stroke="#4dd2ff" stroke-linecap="round" stroke-linejoin="round" stroke-width="0.5"><title>2023-11-27 1.0km</title><desc>10287544518</desc></polyline><polyline fill="none" points="178.2599590420723,94.90211396722589 178.83997269440442,96.2867329143919 180.23200546111912,103.33568474079948 181.74004095746204,106.98602338775527 182.55206007137895,108.370632563252 183.13207372371107,109.0 183.24807645427063,108.8741265310673 182.90006826305762,108.24475904798601 182.90006826305762,107.23777059407439 181.97204641858116,105.09791816282086 180.9280218440108,101.57344950502738 179.88399726944044,99.43358999444172 179.1879808860831,95.40561189572327 177.21593446750194,92.25874741270673 176.7519235452637,91.0" stroke="#4dd2ff" stroke-linecap="round" stroke-linejoin="round" stroke-width="0.5"><title>2023-11-26 1.0km</title><desc>10281488289</desc></polyline><polyline fill="none" points="16.722453544382006,111.0 18.060227607376873,114.48388377402443 19.264224264770746,119.41937526513357 20.46822092263028,122.17743866576348 20.735775735229254,123.91937146021519 21.40466276742518,125.51614183862694 22.876214237418026,128.27419672347605 23.54510126914829,129.0 23.812656081747264,129.0 21.80599498609081,124.64517633756623 21.538440173026174,123.19356631604023 20.200666110031307,121.30647169239819 17.525117982644588,114.04839863895904 16.187343918252736,111.58064772281796" stroke="#4dd2ff" stroke-linecap="round" stroke-linejoin="round" stroke-width="0.5"><title>2023-11-25 1.0km</title><desc>10275889695</desc></polyline><polyline fill="none" points="36.51178423129022,111.16822495521046 37.4419751027599,115.37384479888715 41.7828658381477,127.14953924051952 42.86808852106333,128.83177635679021 43.33318395726383,129.0 43.4882157696411,128.49532903218642 41.93789764959365,126.4766440478852 40.0775159066543,120.92525115737226 38.837261410430074,118.40188630030025 38.06210235133767,113.52337301988155 37.13191147893667,111.0" stroke="#4dd2ff" stroke-linecap="round" stroke-linejoin="round" stroke-width="0.5"><title>2023-11-24 1.0km</title><desc>10271180196</desc></polyline><polyline fill="none" points="57.7618844024837,113.00000823463779 58.156845978461206,114.14286915806588 59.07842298876494,119.00002058548853 61.31653858721256,125.85715487215202 62.36976945679635,128.71428701689 62.76473103230819,129.0 63.291346467100084,129.0 63.423000326380134,128.71428701689 63.15969260875136,127.28572146955412 61.71150016319007,123.14287544379476 57.89353826083243,114.85715689428616 56.57699967408553,111.0" stroke="#4dd2ff" stroke-linecap="round" stroke-linejoin="round" stroke-width="0.5"><title>2023-11-23 1.0km</title><desc>10265414399</desc></polyline><polyline fill="none" points="78.42293546302244,115.0563544301549 78.53975505847484,116.83100649237167 79.00703343981877,119.61974175705109 80.8761469651945,124.94367837370373 81.46024494152516,127.47888050868642 82.39480170421302,129.0 83.09571927599609,129.0 82.97889968100935,128.23944042192306 81.6938841319643,124.94367837370373 80.6425077742897,123.29579498723615 79.12385303527117,118.60565672838129 77.37155910488218,113.78874469583388 76.90428072400391,111.0" stroke="#4dd2ff" stroke-linecap="round" stroke-linejoin="round" stroke-width="0.5"><title>2023-11-21 1.0km</title><desc>10253878272</desc></polyline><polyline fill="none" points="98.06266986951232,115.86133173853159 98.66808553505689,119.8029423590051 101.2108313315548,126.24088767752983 102.30057953018695,128.6058413576102 102.66382892988622,129.0 102.90599519619718,128.86861379561014 103.02707832911983,128.6058413576102 102.54274579649791,126.50366046302952 100.36324939923361,121.77374440978747 99.51566746784374,119.27739477856085 98.18375300243497,114.15329776948784 97.45725420350209,112.83942437497899 96.97292167088017,111.0" stroke="#4dd2ff" stroke-linecap="round" stroke-linejoin="round" stroke-width="0.5"><title>2023-11-20 1.0km</title><desc>10248671423</desc></polyline><polyline fill="none" points="116.79542374471202,112.50000667187851 118.55479894345626,116.31819999893196 119.05747757246718,120.27274908765685 120.43984379991889,123.40910961094778 121.8222100273706,127.36364358162973 122.45055831270292,128.31818500091322 123.20457625528798,129.0 123.07890659850091,127.90909588139039 120.94252242846414,122.3182022041874 119.56015620101243,117.27274710254278 118.17778997309506,114.00001213059295 117.42377203051001,111.0" stroke="#4dd2ff" stroke-linecap="round" stroke-linejoin="round" stroke-width="0.5"><title>2023-11-19 1.0km</title><desc>10242265034</desc></polyline><polyline fill="none" points="136.50164541276172,127.03792825492565 137.2877925108187,124.56400697666686 137.602251350414,123.9668527743197 138.1525543187745,123.62562166358111 140.82545445347205,123.2843904523179 142.7908221995458,122.85785129718715 143.4197398778051,122.34600410389248 143.81281342729926,121.83415668504313 144.28450168622658,119.70145667501492 144.12727226642892,119.01899184362264 144.44173110602424,118.50714295677608 144.20588697632775,114.5829606532352 144.04865755699575,114.07110980903963 143.97004284663126,112.53555592079647 143.81281342729926,111.5971608775435 142.94805161934346,111.34123482485302 142.24051923071966,111.85308687353972 142.39774865005165,111.5971608775435 142.5549780698493,111.85308687353972 141.53298684209585,111.34123482485302 141.45437213266268,111.0 141.21852800250053,111.17061742488295 141.3757574222982,111.0853087156429 140.82545445347205,111.76777821453288 140.90406916337088,111.6824695491814 142.5549780698493,112.53555592079647 142.16190452082083,112.87679029384162 141.53298684209585,113.13271600776352 140.03930735541508,113.38864166522399 139.96069264505059,113.04740744258743 140.35376619407907,112.87679029384162 140.90406916337088,112.96209887135774 142.5549780698493,111.34123482485302 144.83480465505272,111.4265435153502 144.5989605258219,111.25592612795299 144.28450168622658,111.17061742488295 144.04865755699575,115.26542809442617 144.12727226642892,116.45974515046692 144.36311639565974,117.90998563647736 144.52034581592306,120.38392110483255 144.52034581592306,121.23700107744662 144.28450168622658,122.0900804225821 143.81281342729926,122.60192772879964 139.88207793561742,123.02846697799396 138.07393960934132,123.36969826457789 137.1305630914867,124.05216053628828 136.02995715336874,125.58769917994505 135.40103947510943,127.80569585470948 135.16519534541294,129.0" stroke="#4dd2ff" stroke-linecap="round" stroke-linejoin="round" stroke-width="0.5"><title>2023-11-18 1.0km</title><desc>10236386505</desc></polyline><polyline fill="none" points="156.3268576124683,111.0 158.93360382318497,115.50001736893319 159.88151153549552,118.84287991863675 160.23697692807764,120.77145155961625 160.9479077127762,121.92859352345113 163.1991885304451,128.48571685689967 163.6731423875317,129.0 163.6731423875317,128.48571685689967 163.1991885304451,127.84286271536257 161.89581542555243,123.98573290230706 161.18488464085385,122.70002107415348 160.9479077127762,120.51430879719555 159.88151153549552,117.81430750666186 158.69662689464167,115.24287383153569 158.57813843060285,113.82858369813766" stroke="#4dd2ff" stroke-linecap="round" stroke-linejoin="round" stroke-width="0.5"><title>2023-11-17 1.0km</title><desc>10231268371</desc></polyline><polyline fill="none" points="176.7893429552205,111.58064772293437 178.5284488541074,114.04839863884263 178.92978098476306,117.38711555744521 180.13377737673,120.00002051191404 182.00666065281257,126.96775015315507 183.2106570447795,129.0 183.07687966758385,127.8387146294117 182.14043803000823,125.95162444526795 181.47155114542693,124.0645324572688 180.40133213018999,119.56453659269027 178.26089410064742,115.06453047250398 177.59200721606612,113.03226628201082 177.19067508541048,111.0" stroke="#4dd2ff" stroke-linecap="round" stroke-linejoin="round" stroke-width="0.5"><title>2023-11-16 1.0km</title><desc>10225818993</desc></polyline><polyline fill="none" points="16.878527528606355,131.19354904140346 17.770376806147397,134.67742935777642 19.197335650213063,138.54840207961388 21.159404060803354,142.22582089412026 21.872883482836187,145.12904264521785 23.121472471393645,147.6451655733399 24.370061459951103,149.0 21.159404060803354,143.00001367391087 19.732445216737688,138.54840207961388 15.629938540048897,131.0" stroke="#4dd2ff" stroke-linecap="round" stroke-linejoin="round" stroke-width="0.5"><title>2023-11-15 1.0km</title><desc>10219684298</desc></polyline><polyline fill="none" points="36.81951958918944,133.16542284714524 38.44094097521156,135.19550445268396 38.690390419214964,137.7669379391009 40.56126124924049,142.23310335271526 41.68378374679014,146.02256853983272 42.806306244805455,148.86466231115628 43.30520513281226,149.0 43.1804804103449,147.37594707356766 41.55905902478844,145.21054094214924 40.93543541477993,143.31580848805606 39.93763763876632,142.09776516607963 39.563463472761214,140.60904445615597 37.69259264320135,136.81956812529825 37.06896903319284,134.11279454140458 36.69479486718774,131.0" stroke="#4dd2ff" stroke-linecap="round" stroke-linejoin="round" stroke-width="0.5"><title>2023-11-14 1.0km</title><desc>10213806154</desc></polyline><polyline fill="none" points="57.59588517481461,133.47827171022072 58.55753110535443,137.1304552895017 61.20205741235986,143.91306199040264 61.803086118306965,146.1304470184259 63.00514353159815,148.60869759391062 63.365760755259544,149.0 62.6445263074711,147.695658311015 60.961645929608494,143.65219298156444 60.84144018869847,142.60871656169184 59.639382775872946,139.73915324313566 57.83629665756598,136.47828020178713 57.115062209777534,134.26088311010972 56.634239244740456,131.0" stroke="#4dd2ff" stroke-linecap="round" stroke-linejoin="round" stroke-width="0.5"><title>2023-11-13 1.0km</title><desc>10208522228</desc></polyline><polyline fill="none" points="77.9892856348306,133.04546334268525 79.24598211282864,136.86365554714575 80.7540178867057,140.000021835207 81.63370542181656,143.68183636269532 82.51339295646176,146.27273850084748 83.64441978698596,148.72727403056342 84.14709837734699,149.0 84.39843767369166,148.45454802096356 83.01607154728845,145.72728572005872 82.26205366104841,142.7272925573634 79.49732140870765,140.1363854664378 77.9892856348306,137.95456616173033 77.73794633895159,135.6363803385757 75.60156232584268,131.0" stroke="#4dd2ff" stroke-linecap="round" stroke-linejoin="round" stroke-width="0.5"><title>2023-11-12 1.0km</title><desc>10202270880</desc></polyline><polyline fill="none" points="97.27653280971572,134.35822241124697 100.24758792715147,141.07464871543925 101.23793963296339,144.4328526093159 102.2282913387753,147.11941128061153 102.84726115502417,148.32836139411665 103.46623097080737,149.0 103.59002493415028,148.4626891349908 102.47587926499546,145.10449264734052 100.37138189002872,141.880618212861 98.14309055218473,136.77613872487564 97.27653280971572,133.14926305413246 96.40997506631538,131.0" stroke="#4dd2ff" stroke-linecap="round" stroke-linejoin="round" stroke-width="0.5"><title>2023-11-11 1.0km</title><desc>10196068378</desc></polyline><polyline fill="none" points="118.3266083188355,133.68422009726055 120.36378079978749,139.84212411462795 122.25544096156955,144.8947501218645 123.12851488124579,148.21052947919816 123.71056416165084,149.0 124.00158880185336,148.6842118264176 123.56505184154958,146.78948180971202 121.38236704096198,141.89475486346055 119.19968223944306,137.31580665381625 116.2894358378835,132.73684868169948 115.99841119768098,131.0" stroke="#4dd2ff" stroke-linecap="round" stroke-linejoin="round" stroke-width="0.5"><title>2023-11-10 1.0km</title><desc>10191120477</desc></polyline><polyline fill="none" points="135.82124576484784,131.54962088621687 137.97393734101206,133.1984825761756 139.2402265034616,135.39696256595198 139.62011325219646,136.22139189543668 139.62011325219646,137.45803520805202 141.01303132995963,141.71757813193835 141.51954699493945,144.19085666537285 142.53257832489908,146.93894008581992 142.78583615692332,148.31298028095625 143.41898073861375,149.0 143.7988674864173,148.86259607644752 144.17875423515216,148.31298028095625 142.78583615692332,147.35115225065965 140.50651566544548,144.0534523880342 137.84730842523277,136.77101124660112 137.21416384354234,132.64886217436288 136.58101926231757,131.0" stroke="#4dd2ff" stroke-linecap="round" stroke-linejoin="round" stroke-width="0.5"><title>2023-11-09 1.0km</title><desc>10185506531</desc></polyline><polyline fill="none" points="156.48859197832644,132.44526216865052 157.820505366195,135.07300857105292 158.30483750626445,136.38688032352366 159.87891696533188,139.80294235935435 160.48433214100078,142.16790455882438 160.363249105867,140.72265025309753 160.60541517660022,141.64235767372884 161.08974731713533,145.18979614810087 162.17949463427067,148.47445512423292 162.6638267757371,149.0 163.26924195187166,148.73722758109216 163.51140802213922,148.34306888096035 162.17949463427067,147.16059225820936 161.21083035273477,145.58395554404706 160.60541517660022,143.87593086762354 159.75783392973244,140.98542385036126 158.54700357746333,139.2773947789101 157.21509018959478,136.38688032352366 156.85184108372778,134.2846850559581 156.97292411886156,131.65693749429192 156.730758048594,131.0" stroke="#4dd2ff" stroke-linecap="round" stroke-linejoin="round" stroke-width="0.5"><title>2023-11-08 1.0km</title><desc>10179505859</desc></polyline><polyline fill="none" points="179.1879807668738,140.9440793383401 183.2480769320391,149.0 183.4800824271515,148.87412653141655 182.90006868960336,147.4895177630242 181.85604396136478,145.72728680237196 181.16002747556195,143.96505402820185 179.76799450442195,142.45456734951586 179.3039835151285,141.57344950479455 178.95597527176142,138.55247059487738 178.72396977664903,137.6713507422246 177.3319368059747,135.27973742736503 176.5199175728485,131.0" stroke="#4dd2ff" stroke-linecap="round" stroke-linejoin="round" stroke-width="0.5"><title>2023-11-06 1.0km</title><desc>10167691585</desc></polyline><polyline fill="none" points="18.269556262996048,156.0503782769665 19.10494289500639,157.6043379106559 22.207807525992393,164.72663535596803 23.520557946991175,168.7410084985895 23.759239841718227,169.0 23.997921735979617,169.0 23.997921735979617,168.61151273350697 23.04319415707141,166.5395791985793 22.207807525992393,165.37411551410332 22.088466578628868,164.72663535596803 21.372420894447714,163.94965885241982 19.34362478926778,160.45326034456957 16.956805841997266,154.36692046013195 16.002078263554722,151.0" stroke="#4dd2ff" stroke-linecap="round" stroke-linejoin="round" stroke-width="0.5"><title>2023-11-05 1.1km</title><desc>10161301187</desc></polyline><polyline fill="none" points="36.63423998747021,151.0 39.03835428180173,156.3478451555129 40.12020571436733,161.04350078164134 41.803085720632225,164.30436543212272 42.40411429479718,166.9130528375972 43.005142868030816,169.0 43.36576001252979,168.60869759402703 43.24555429723114,168.21739510179032 41.682880006264895,165.34784085466526 41.56267429096624,164.95653764309827 40.12020571436733,162.7391511480091 39.519177140668035,160.65219662082382 37.95650284923613,157.78263013751712 37.59588570520282,155.30436443991493 36.87465141667053,152.69565996550955" stroke="#4dd2ff" stroke-linecap="round" stroke-linejoin="round" stroke-width="0.5"><title>2023-11-04 1.0km</title><desc>10155501797</desc></polyline><polyline fill="none" points="64.8292560079135,153.73419068823569 63.46446626633406,151.91139743244275 62.624595656525344,151.3417740999721 60.944854436442256,151.0 59.37009704252705,151.11392470856663 57.16543669067323,152.139246706618 56.220582254230976,153.05064346885774 55.3807116439566,154.759510952048 55.1707439920865,156.12660358159337 54.855792513117194,160.6835702988319 55.06576016545296,165.46837092377245 55.27572781778872,166.15191266383044 56.32556608086452,167.86076569382567 57.58537199581042,168.77215320582036 59.685048521496356,169.0 61.574757393915206,168.20253607374616 63.35948244063184,166.0379890614422 63.884401571936905,165.01267626299523 64.61928835557774,161.7088859624928 64.61928835557774,159.08863347244915 65.1442074868828,155.6709061722504 65.03922366071492,154.41773760621436 63.884401571936905,153.05064346885774 62.93954713549465,152.36709594738204 60.73488678364083,151.3417740999721 59.58006469486281,151.3417740999721 57.06045286497101,152.139246706618 55.90563077572733,153.16456802631728 55.1707439920865,154.53166206309106 54.960776339285076,155.44305741763674 55.1707439920865,159.20255758613348 54.960776339285076,160.9114182825433" stroke="#4dd2ff" stroke-linecap="round" stroke-linejoin="round" stroke-width="0.5"><title>2023-11-03 1.0km</title><desc>10152446508</desc></polyline><polyline fill="none" points="76.27463989239186,151.0 77.25869727879763,153.13560138468165 78.10217503923923,156.94916981831193 79.50797130679712,159.69493475090712 81.61666570650414,165.18645371461753 82.03840458672494,166.10170546243899 82.74130272027105,168.54237481567543 83.16304160049185,169.0 83.72536010714248,169.0 83.72536010714248,168.6949165549595 82.74130272027105,168.23729130346328 82.31956384051591,167.1694986578077 81.33550645317882,166.25424738100264 80.63260832009837,164.2712015635334 79.64855093276128,162.74578041420318 78.52391391946003,160.45764658704866 77.25869727879763,155.72882868233137 76.41521951835603,153.74577280506492" stroke="#4dd2ff" stroke-linecap="round" stroke-linejoin="round" stroke-width="0.5"><title>2023-11-02 1.1km</title><desc>10144903556</desc></polyline><polyline fill="none" points="96.93475404940546,152.30435396311805 97.1751654963009,153.73914221522864 98.13681128481403,155.95653995871544 99.81969141447917,161.9565434876131 102.70462878094986,167.95652672555298 103.54606884531677,169.0 103.06524595152587,167.4347898582928 101.26216009771451,164.6956687872298 100.30051430920139,161.17393548239488 99.09845707379282,159.47828362043947 97.65598839055747,156.34784515528008 96.45393115468323,151.0" stroke="#4dd2ff" stroke-linecap="round" stroke-linejoin="round" stroke-width="0.5"><title>2023-11-01 1.0km</title><desc>10138966680</desc></polyline><polyline fill="none" points="117.38078122353181,151.27067799540237 118.00440474227071,153.3007616904797 119.00220237160102,158.71430726593826 120.62362351827323,162.23310335283168 121.62142114760354,165.48121684766375 123.24284229520708,169.0 123.367566999048,168.8646623105742 122.24504466587678,167.24060926458333 120.62362351827323,163.45114658481907 119.25165177835152,161.01505931455176 116.88188240956515,153.84211696428247 116.63243300141767,151.0" stroke="#4dd2ff" stroke-linecap="round" stroke-linejoin="round" stroke-width="0.5"><title>2023-10-31 1.0km</title><desc>10133123337</desc></polyline><polyline fill="none" points="137.17383081186563,153.1333426652709 137.78821541834623,156.33335195819382 137.78821541834623,157.5333539872663 139.1398615515791,159.80002232000697 142.82616918860003,167.66667279333342 143.44055379508063,168.8666673231637 143.68630763702095,169.0 140.86013844888657,163.40001914394088 139.6313692368567,159.93335566332098 138.27972310315818,157.1333533989964 136.31369236344472,151.0" stroke="#4dd2ff" stroke-linecap="round" stroke-linejoin="round" stroke-width="0.5"><title>2023-10-30 1.0km</title><desc>10127985445</desc></polyline><polyline fill="none" points="157.1625133054331,153.60527560755145 157.70818382361904,157.27633863000665 158.0355861345306,158.46055072336458 160.21826820774004,163.5526528044138 161.30960924364626,166.5131698701298 162.94662079866976,168.76315920078196 163.38315721368417,169.0 163.4922913168557,168.6447387879016 162.510084384121,167.10527262999676 161.09134103683755,164.026335900533 158.58125665271655,159.40791977138724 157.5990497195162,155.97370432177559 156.83511099405587,154.43422605399974 156.72597689041868,152.06579507607967 156.5077086831443,151.0" stroke="#4dd2ff" stroke-linecap="round" stroke-linejoin="round" stroke-width="0.5"><title>2023-10-28 1.0km</title><desc>10115543824</desc></polyline><polyline fill="none" points="177.66533815301955,154.73334801755846 178.64835366792977,157.93335448706057 179.75424612080678,160.46668893785682 180.737261635717,164.06668443838134 182.21178490761667,167.53334001882467 182.82616960350424,168.8666673237458 183.44055429985747,169.0 183.5634312396869,168.8666673237458 183.3176773604937,168.06667105830275 182.58041572477669,166.0666788512608 180.12287693936378,161.26668855571188 178.156845910009,155.9333511054283 176.92807651730254,153.26667649880983 176.4365687603131,151.0" stroke="#4dd2ff" stroke-linecap="round" stroke-linejoin="round" stroke-width="0.5"><title>2023-10-27 1.0km</title><desc>10110442644</desc></polyline><polyline fill="none" points="17.560530186630785,173.77942351426464 19.878026509657502,181.58825709018856 20.731840944383293,183.9706063530175 21.585655379574746,185.42648490646388 22.561443304643035,188.20588614756707 22.92736377660185,188.7352954216767 23.659204720985144,189.0 23.78117821086198,188.60294311773032 23.659204720985144,188.07353380485438 22.439469813834876,186.48530493315775 20.609867453575134,183.3088429851923 18.414344621822238,176.82354910613503 16.950662733521312,174.44119038514327 16.21882178913802,171.0" stroke="#4dd2ff" stroke-linecap="round" stroke-linejoin="round" stroke-width="0.5"><title>2023-10-26 1.0km</title><desc>10104873905</desc></polyline><polyline fill="none" points="39.098457272630185,179.6087184365606 41.863188304938376,186.52174997131806 43.18545097252354,188.86956587433815 43.66627376014367,189.0 43.54606806393713,187.695658311015 40.300514242611825,182.0869781221263 38.49742878694087,177.52176022727508 36.93475472507998,174.26088311045896 36.33372623985633,171.0" stroke="#4dd2ff" stroke-linecap="round" stroke-linejoin="round" stroke-width="0.5"><title>2023-10-25 1.0km</title><desc>10098978222</desc></polyline><polyline fill="none" points="56.670213592704386,171.0 56.54913045093417,171.91971242427826 57.2756293034181,174.9416213426739 58.24429444037378,176.9124287540326 58.84971015015617,179.27739477867726 59.939458429347724,182.43067794316448 62.24003812810406,186.8978195694508 62.96653698058799,188.737227581325 63.20870326505974,189.0 63.45086954906583,188.8686137953773 63.32978640682995,187.16059225809295 61.99787184409797,184.6642501518363 61.029206708073616,183.2189978651004 59.81837528664619,180.45987661753315 59.57620900310576,179.01462093077134 58.12321129767224,176.78104166104458 57.2756293034181,174.8102341046324 57.03346301894635,172.44526216841768 56.670213592704386,171.0" stroke="#4dd2ff" stroke-linecap="round" stroke-linejoin="round" stroke-width="0.5"><title>2023-10-24 1.0km</title><desc>10092835699</desc></polyline><polyline fill="none" points="78.1502161314711,174.1079268073663 79.9403295526281,180.45326034456957 80.7757158158347,182.0072160938289 81.73044297331944,185.89209946908522 83.16253370977938,188.4820169589948 83.75923818396404,189.0 83.16253370977938,188.35252117482014 82.32714744703844,186.28058733535 80.17901134165004,183.69066660827957 79.7016477631405,182.7841934543103 79.2242841841653,179.80577837780584 77.7921934472397,176.9568548965035 76.83746628975496,173.9784299666062 76.24076181650162,171.0" stroke="#4dd2ff" stroke-linecap="round" stroke-linejoin="round" stroke-width="0.5"><title>2023-10-23 1.0km</title><desc>10087395010</desc></polyline><polyline fill="none" points="94.17224500933662,171.08633225236554 94.49048418970779,171.0 96.75793835008517,171.1726644920418 97.75243578874506,171.43166113487678 97.99111517402343,171.56115941354074 98.50825384235941,171.94965407782 98.86627292004414,172.3813145144959 99.66187087097205,173.8489576249267 100.05966984643601,175.4892602887703 100.57680851477198,176.35257563943742 100.81548789981753,177.04322700586636 101.37240646546707,178.29503053677035 101.77020544116385,179.58999689779012 102.36690390435979,180.62596793007106 102.64536318718456,180.92812580347527 103.00338226510212,181.5324410837493 103.2022817528341,182.82740030408604 103.32162144547328,183.17272228054935 103.63986062561162,183.6475396664464 103.71942042093724,184.38134759839159 103.83876011357643,184.68350353906862 105.58907560561784,188.82734075089684 105.82775499089621,189.0 105.82775499089621,188.78417593060294 105.46973591297865,188.43885725463042 105.07193693774752,187.48922984837554 104.67413796205074,186.6690958525287 103.60008072829805,183.34538319258718" stroke="#4dd2ff" stroke-linecap="round" stroke-linejoin="round" stroke-width="0.5"><title>2023-10-22 1.5km</title><desc>10080655811</desc></polyline><polyline fill="none" points="117.13705715793185,171.0 117.7685886672698,171.45685924118152 116.63183195027523,171.27411558496533 118.40012017637491,173.5584074241924 118.56852857908234,174.10663621604908 118.44222227716818,174.56349317287095 117.85279286839068,174.88329284300562 117.68438446591608,175.2030923484126 117.72648656647652,175.75131968891947 118.06330337142572,177.07620043179486 118.44222227716818,178.03559506835882 118.86324328323826,179.4975269040442 119.62108109449036,180.82239965925692 119.74738739640452,181.3249368618708 120.21051050303504,182.14726958947722 120.50522520765662,182.51275045255898 120.54732730798423,182.74117588269291 120.84204201260582,183.01528628816595 121.05255251564085,183.47213669511257 121.34726722002961,184.3401515429723 121.64198192441836,184.93405574030476 121.59987982385792,186.12186243198812 122.14720713184215,187.1726126128342 122.31561553431675,187.675144680019 122.61033023847267,188.22336101706605 123.11555544612929,188.86294613225618 123.3681680499576,189.0 122.39981973543763,187.62945996341296 122.1893092324026,186.89850404136814 121.76828822609968,185.98480792954797 121.59987982385792,185.3909047365305 121.05255251564085,184.6142612430849 120.5894294087775,183.28939657268347" stroke="#4dd2ff" stroke-linecap="round" stroke-linejoin="round" stroke-width="0.5"><title>2023-10-20 1.4km</title><desc>10069668027</desc></polyline><polyline fill="none" points="136.37802091496997,171.0 136.46374823059887,171.69768395990832 137.14956675539725,173.3721223237808 137.32102138688788,174.39538803097093 138.7355220944155,177.83726962580113 138.86411306774244,178.302387323929 138.94984038360417,179.0000632299343 139.12129501462914,179.46518007316627 140.15002280217595,180.90704011387425 140.7072503536474,182.02331659808988 141.050159616163,183.13959111261647 141.35020522098057,183.7442389856442 141.52165985223837,184.67446535412455 141.7359781411942,185.13957802538062 142.29320569266565,186.58142513339408 142.37893300829455,187.13955861562863 143.19334250688553,188.81395610782783 143.40766079584137,189.0 143.5362517691683,189.0 143.6219790847972,188.95348903205013 143.57911542709917,188.9069780607242 142.721842271043,187.83722477586707 142.33606935059652,186.5349139876198 141.52165985223837,185.04655551846372 141.3930688786786,184.44190889014862 141.3073415630497,183.41865943354787" stroke="#4dd2ff" stroke-linecap="round" stroke-linejoin="round" stroke-width="0.5"><title>2023-10-19 1.3km</title><desc>10064004415</desc></polyline><polyline fill="none" points="155.94113790709525,171.0 157.7058605561033,173.29788272990845 157.5882123792544,174.95746281044558 157.82350873248652,176.61704130494036 158.64704596903175,179.55321475525852 159.82352773472667,181.46810780919623 161.00000950088724,184.7872507669963 163.35297303367406,188.61702321912162 163.7059175632894,189.0 164.05886209290475,188.87234108219855 162.52943579666317,187.3404333399376 159.70587955834344,181.8510861665709 158.9999904986471,179.4255551431561 156.99997149594128,175.21278268191963" stroke="#4dd2ff" stroke-linecap="round" stroke-linejoin="round" stroke-width="0.5"><title>2023-10-18 1.0km</title><desc>10058081424</desc></polyline><polyline fill="none" points="176.8582590352744,172.09091406327207 177.86361614381894,177.95456616184674 180.5026785545051,184.9091062474763 182.26205349434167,188.59091103076935 183.01607132609934,189.0 183.39308024197817,189.0 183.64441951876506,188.4545480213128 182.76473204931244,187.36364358162973 181.63370530167595,185.59092249977402 180.12566963862628,182.31820220442023 179.49732144596055,180.4091126989806 176.8582590352744,175.09092442982364 176.6069197584875,174.27274026570376 176.35558048123494,171.0" stroke="#4dd2ff" stroke-linecap="round" stroke-linejoin="round" stroke-width="0.5"><title>2023-10-17 1.0km</title><desc>10051702317</desc></polyline><polyline fill="none" points="15.980503762606531,191.41538655466866 17.25653431424871,193.63077996543143 19.17058014171198,198.61540561076254 20.19140458293259,200.55386757676024 21.339832079131156,204.15386307716835 22.74346568621695,207.75385169649962 23.253877907060087,208.72307822608855 23.891893182415515,209.0 24.01949623785913,208.86153911834117 23.891893182415515,208.44615641143173 22.488259575795382,206.36924150353298 20.574213748797774,201.66155923274346 19.17058014171198,198.75386724586133 18.022152645513415,193.3538559313165 17.384137369226664,191.0" stroke="#4dd2ff" stroke-linecap="round" stroke-linejoin="round" stroke-width="0.5"><title>2023-10-16 1.0km</title><desc>10046279660</desc></polyline><polyline fill="none" points="36.31368951732293,191.0 36.840305301360786,192.14286210003775 37.36692108446732,194.71429936750792 38.55180659657344,198.71430613135453 40.13165394589305,201.14287764916662 41.974809186998755,208.00000437430572 42.633078916464,208.71428701665718 43.55465653678402,209.0 43.686310483142734,208.71428701665718 43.55465653678402,207.8571478142403 41.84315524157137,205.42858468799386 40.92157762078568,202.57144771213643 39.86834605457261,200.85716351040173 37.36692108446732,195.0000144095393 36.44534346368164,191.0" stroke="#4dd2ff" stroke-linecap="round" stroke-linejoin="round" stroke-width="0.5"><title>2023-10-15 1.0km</title><desc>10039610121</desc></polyline><polyline fill="none" points="56.25423207087442,192.3064571354771 56.655564348679036,196.51614647032693 57.72578375739977,199.5645365928067 59.06355801783502,201.45163288107142 59.86622257437557,204.06453245715238 62.1404388169758,208.12903603585437 62.67554852087051,208.70967872138135 63.344435651786625,209.0 63.74576792959124,208.70967872138135 63.74576792959124,208.2741967231268 61.07021940825507,206.0967852922622 59.331112870015204,202.9032441836316 58.66222574003041,200.1451817966299 57.05689662694931,196.51614647032693 56.25423207087442,193.4677516417578 56.388009496964514,191.5806477224687 56.25423207087442,191.0" stroke="#4dd2ff" stroke-linecap="round" stroke-linejoin="round" stroke-width="0.5"><title>2023-10-14 1.0km</title><desc>10033377496</desc></polyline><polyline fill="none" points="75.91872827988118,191.28571558836848 78.28849895577878,194.1428691581823 78.55180680891499,196.2857315784786 80.78992355847731,203.14287544356193 82.89638638170436,208.14286092377733 83.5546560138464,209.0 84.08127171965316,209.0 84.08127171965316,208.5714305093279 83.94961779285222,208.14286092377733 82.76473245490342,207.2857214693213 81.44819319108501,204.85715762886684 79.99999999953434,200.28573510737624 77.36692147096619,194.42858428391628 76.9719596914947,192.42857752018608 76.313690058887,191.0" stroke="#4dd2ff" stroke-linecap="round" stroke-linejoin="round" stroke-width="0.5"><title>2023-10-13 1.0km</title><desc>10028006924</desc></polyline><polyline fill="none" points="96.1378172035329,191.0 97.40410664491355,192.6488621745957 98.16388031002134,194.0229128751671 98.29050925420597,195.80917727621272 98.16388031002134,197.73284472187515 99.55679869512096,200.6183421780588 101.2029749690555,205.0152821157826 102.84915124299005,208.03817232279107 103.22903807554394,208.58778819919098 103.86218279600143,209.0 103.86218279600143,208.31298028118908 102.46926441043615,206.5267278305255 101.2029749690555,204.32826093258336 99.55679869512096,199.79391478805337 98.54376714210957,198.007654195535 98.03725136583671,196.4962015914498" stroke="#4dd2ff" stroke-linecap="round" stroke-linejoin="round" stroke-width="0.5"><title>2023-10-12 1.0km</title><desc>10021974100</desc></polyline><polyline fill="none" points="117.89550185156986,193.5522495948244 118.39067788608372,196.23882426461205 118.26688387757167,197.31345302646514 119.38102995604277,200.9403204311384 120.2475880170241,202.5522591888439 121.1141460784711,205.50747655145824 122.35208616545424,208.46268913452514 122.59967418340966,208.73134458682034 123.2186442273669,209.0 123.09485021792352,208.46268913452514 121.73311612196267,204.97016465931665 120.2475880170241,202.41793101315852 118.26688387757167,197.85076717019547 117.77170784212649,196.1044956248952 117.52411982510239,193.5522495948244 116.7813557726331,191.0" stroke="#4dd2ff" stroke-linecap="round" stroke-linejoin="round" stroke-width="0.5"><title>2023-10-10 1.0km</title><desc>10009069592</desc></polyline><polyline fill="none" points="136.95066273305565,193.2500098424498 137.80447716778144,195.6323701395886 138.65829160250723,198.80884563201107 140.48789396276698,202.7794321157271 141.95157585060224,207.80882909044158 142.80539028532803,209.0 143.04933726694435,208.60294311773032 143.17131075728685,207.14706713322084 142.31749632256106,204.63236947765108 140.48789396276698,201.4559042607434 138.41434462135658,195.6323701395886 137.80447716778144,192.98530294792727 136.8286892422475,191.0" stroke="#4dd2ff" stroke-linecap="round" stroke-linejoin="round" stroke-width="0.5"><title>2023-10-09 1.0km</title><desc>10003389142</desc></polyline><polyline fill="none" points="156.33512142067775,191.0 157.2352670370601,192.11628403502982 158.13541265344247,194.20931483071763 158.64978157635778,198.3953694977099 160.57866503950208,202.58141493203584 162.25036404049024,207.3255885966355 163.0219174255617,208.7209315354703 163.6648785797879,209.0 163.6648785797879,207.88372589554638 161.2216261937283,203.97676135855727 158.00682042259723,196.1628081573872 156.72089811321348,191.13953554059844" stroke="#4dd2ff" stroke-linecap="round" stroke-linejoin="round" stroke-width="0.5"><title>2023-10-08 1.0km</title><desc>9996447828</desc></polyline><polyline fill="none" points="177.6894741007127,194.60001482162625 178.28191663930193,196.78573449037503 180.05924425413832,201.54287962068338 180.65168679272756,203.60001945286058 182.54750291490927,208.35714604717214 183.1399454534985,209.0 183.25843396084383,208.48571685678326 183.25843396084383,207.97143356245942 181.00715231569484,203.98573290207423 179.940755746793,201.67145093088038 178.04493962367997,196.01430433080532 177.45249708509073,193.05715223390143 176.74156603915617,191.0" stroke="#4dd2ff" stroke-linecap="round" stroke-linejoin="round" stroke-width="0.5"><title>2023-10-07 1.0km</title><desc>9989974159</desc></polyline><polyline fill="none" points="18.5293982247822,216.36172163987067 19.470583360642195,219.42555514350533 20.17647221311927,220.9574698683573 21.588249917607754,226.95745619398076 21.94119434338063,228.10638738039415 22.647083195857704,229.0 23.235323905479163,229.0 23.470620189327747,228.48936427361332 23.352972047869116,228.10638738039415 21.94119434338063,226.06384252291173 20.529416638892144,223.00002073205542 20.058824071194977,220.9574698683573 17.588213088922203,214.95746281091124 17.235268662683666,212.78724238602445 16.529379810672253,211.0" stroke="#4dd2ff" stroke-linecap="round" stroke-linejoin="round" stroke-width="0.5"><title>2023-10-06 1.0km</title><desc>9984428862</desc></polyline><polyline fill="none" points="36.12483936548233,211.0 38.16439759451896,216.45903345034458 39.52410308038816,221.0328068000963 41.83560240641236,226.78689395042602 42.78739624656737,228.7049193349667 43.19530789228156,229.0 43.739190086722374,229.0 43.87516063498333,228.7049193349667 43.467248988803476,227.96721748064738 41.83560240641236,225.60656972648576 40.88380856625736,223.6885413810378 39.25216198293492,219.40985615958925 38.57230924023315,217.19673953438178 36.6687215603888,213.65574785752688 36.6687215603888,212.32787436805665" stroke="#4dd2ff" stroke-linecap="round" stroke-linejoin="round" stroke-width="0.5"><title>2023-10-04 1.0km</title><desc>9971682885</desc></polyline><polyline fill="none" points="57.275629504118115,213.10219913115725 57.881045169662684,215.20439578976948 58.486460835207254,216.64965455804486 58.970793368294835,218.8832339918008 61.271372898016125,223.48177109507378 61.392456031404436,225.05840966361575 62.11895483080298,228.21168262825813 62.361121096648276,228.6058413576102 63.08761989604682,229.0 63.08761989604682,227.68613752059173 61.51353916525841,224.79563666554168 60.42379096662626,222.29929125588387 59.818375300150365,221.11681063415017 59.212959634140134,219.40878168831114 58.002128303050995,216.912428754149 57.51779576996341,214.9416213426739 57.275629504118115,212.97081175807398 56.912380104418844,211.0" stroke="#4dd2ff" stroke-linecap="round" stroke-linejoin="round" stroke-width="0.5"><title>2023-10-03 1.0km</title><desc>9965060084</desc></polyline><polyline fill="none" points="76.70973855769262,211.7438048243057 78.35486927861348,217.09919148962945 78.62905773241073,219.47935879125725 79.58871732000262,220.66944139194675 80.27418845379725,222.45456398068927 81.50803649425507,227.06612337986007 82.46769608184695,228.55372094386257 83.15316721564159,229.0 83.29026144277304,228.8512403254863 82.87897876231,227.6611625365913 81.37094226805493,224.83472498285118 78.90324618574232,218.88431722810492 77.39520969148725,214.42149992857594 77.12102123815566,211.0" stroke="#4dd2ff" stroke-linecap="round" stroke-linejoin="round" stroke-width="0.5"><title>2023-10-02 1.0km</title><desc>9958643020</desc></polyline><polyline fill="none" points="97.146795372013,214.16801199468318 97.41220975574106,215.46401542495005 100.33176798000932,222.37601923558395 101.79154709167778,226.84000873356126 102.58779024379328,228.4240025616018 103.38403339544311,229.0 103.51674058800563,228.85600065614562 103.38403339544311,228.2800031756051 100.72988955536857,224.2480160703417 98.20845290785655,218.0560197121231 97.01408817991614,214.31201241828967 96.48325941199437,211.0" stroke="#4dd2ff" stroke-linecap="round" stroke-linejoin="round" stroke-width="0.5"><title>2023-10-01 1.0km</title><desc>9952075403</desc></polyline><polyline fill="none" points="117.41557656321675,213.60870696778875 118.49742823466659,215.8261048743734 118.97825119877234,218.04350000969134 119.3388684228994,220.1304576053517 121.14195454167202,225.21740646020044 122.70462917815894,228.47826343949419 123.42586362501606,229.0 123.6662751082331,228.60869759391062 121.26216028351337,224.95653764309827 120.18030861206353,222.47828196594492 119.81969138793647,221.17393548239488 118.13681101053953,217.52176022715867 117.17516508046538,213.47827171022072 116.3337248917669,211.0" stroke="#4dd2ff" stroke-linecap="round" stroke-linejoin="round" stroke-width="0.5"><title>2023-09-30 1.0km</title><desc>9945549317</desc></polyline><polyline fill="none" points="137.213150607422,211.0 138.40751463314518,213.0160082259681 138.80563597474247,214.60001323360484 139.86729288613424,217.19201866455842 140.3981213425286,221.0800203795079 140.79624268459156,222.23201940534636 142.38872805144638,226.12001111591235 142.78684939350933,228.56800193735398 143.05226362170652,228.85600065637846 143.4503849633038,229.0 143.58309207716957,228.7120013020467 141.19436402618885,224.39201575319748 139.60187865886837,220.64802057005 139.07105020293966,218.48802009352949 137.213150607422,214.16801199526526 136.4169079232961,211.57600256206933" stroke="#4dd2ff" stroke-linecap="round" stroke-linejoin="round" stroke-width="0.5"><title>2023-09-28 1.0km</title><desc>9933629332</desc></polyline><polyline fill="none" points="156.4812475326471,213.04546334245242 157.48660538066179,216.5909277930623 159.37165134493262,219.1818398362957 160.62834865506738,223.81819972326048 162.387724888511,226.9545542517444 162.89040381275117,228.72727403056342 163.39308273606002,229.0 163.64442219864577,228.59091103065293 163.39308273606002,228.04545893135946 162.387724888511,226.6818279812578 159.49732107575983,220.81820347253233 157.98928430397063,216.72729167481884 156.3555778018199,211.0" stroke="#4dd2ff" stroke-linecap="round" stroke-linejoin="round" stroke-width="0.5"><title>2023-09-27 1.0km</title><desc>9927137811</desc></polyline><polyline fill="none" points="181.49532136670314,211.0 181.13644423848018,212.73079315607902 180.77756711049005,213.72599691554205 180.4984404554125,214.93754704669118 178.86355576105416,218.35583575541386 178.02617579582147,219.78372262767516 177.86667484999634,220.38949176907772 177.94642532267608,220.86545280006249 178.1458015050739,221.55775906681083 178.7439300515689,223.02890717971604 178.94330623396672,223.4183281234 179.18255765270442,224.11063138698228 179.98006238159724,225.10581590171205 180.33893950958736,225.88465478277067 180.7376918741502,226.49041764438152 181.05669376580045,227.3557920793537 181.535196603043,228.00482207047753 182.13332514977083,229.0" stroke="#4dd2ff" stroke-linecap="round" stroke-linejoin="round" stroke-width="0.5"><title>2023-09-26 1.0km</title><desc>9920397094</desc></polyline><polyline fill="none" points="19.91593836294487,231.0 19.131363085703924,233.61488918599207 18.346787808462977,235.01354744983837 17.618253622204065,235.92571460851468 17.225965983700007,236.65544761100318 17.05784271005541,237.38517996965675 17.113883800804615,238.29734451253898 17.394089257344604,239.02707542252028 18.06658235215582,240.06085977627663 18.346787808462977,241.0946428378229 18.907198720611632,242.43247782281833 19.971979454159737,243.77031064400217 21.765294373733923,247.4189346122439 22.94215728971176,249.0" stroke="#4dd2ff" stroke-linecap="round" stroke-linejoin="round" stroke-width="0.5"><title>2023-09-25 1.0km</title><desc>9914573673</desc></polyline><polyline fill="none" points="41.32704889355227,231.0 40.88469926244579,231.67200891877292 40.79622933617793,232.00801311869873 40.88469926244579,232.4400182645768 40.928934225579724,232.8720231244224 40.04423496313393,234.50403890397865 39.823060147464275,235.60804726480274 39.51341540599242,236.42405224451795 37.65554695483297,239.68806196353398 37.61131199169904,240.07206203386886 37.788251844001934,240.8400614973507 38.27483643847518,241.6080600572168 38.540246217278764,242.2800580559997 38.93836088525131,242.95205536298454 39.15953570092097,243.62405197828775 39.734590221429244,244.53604627848836 40.176939852302894,245.44803930463968 40.66352444700897,245.9760346848634 40.79622933617793,246.45603011449566 41.10587407811545,246.8400262040086 41.769398524891585,247.99201311788056 42.255983119132,248.5200064406381 42.38868800853379,249.0" stroke="#4dd2ff" stroke-linecap="round" stroke-linejoin="round" stroke-width="0.5"><title>2023-09-24 1.0km</title><desc>9907510217</desc></polyline><polyline fill="none" points="60.67104142787866,231.0 60.29525822820142,231.5825306751649 60.02684165723622,232.1650609219796 59.8657917145174,232.9223496025661 59.81210840004496,233.9126490924391 58.899492057971656,235.13595851819264 58.362658915575594,236.53402412019204 57.87950908741914,237.23305599595187 57.5574092019815,238.16509753774153 57.50372588750906,239.15539047430502 58.631075486773625,242.00975730718346 59.060542000690475,242.8835410165484 60.45630817115307,245.09712210064754 61.04682462755591,246.5534220727859 61.798391027143225,247.4854526500567 62.227857541060075,248.24272668687627 62.49627411249094,249.0" stroke="#4dd2ff" stroke-linecap="round" stroke-linejoin="round" stroke-width="0.5"><title>2023-09-23 1.0km</title><desc>9901004991</desc></polyline><polyline fill="none" points="80.69117305218242,231.0 80.33278702525422,231.6666743136011 79.97440099832602,232.83335294673452 79.15523293660954,234.5555895413272 78.33606487489305,235.7222637136001 77.61929282103665,237.66671666427283 77.5680948169902,238.72227474185638 77.6704908250831,239.33338663936593 78.69445090182126,241.7778292860603 78.84804491349496,242.5000494637643 79.05283692874946,242.88893696578452 79.76960898260586,243.77782193332678 80.33278702525422,244.88892667199252 80.79356905980967,246.05558488948736 81.56153911771253,247.16668627905892 82.43190518324263,249.0" stroke="#4dd2ff" stroke-linecap="round" stroke-linejoin="round" stroke-width="0.5"><title>2023-09-22 1.0km</title><desc>9895405405</desc></polyline><polyline fill="none" points="100.95418478921056,231.0 100.80738712917082,231.53097987367073 100.51379180978984,231.84956761042122 99.87766861682758,233.01772144268034 99.63300585048273,233.86728667921852 98.89901755098253,235.72570714971516 98.11609669867903,237.3186351749464 97.62677116552368,238.48678016033955 97.47997350571677,239.07085194438696 97.47997350571677,239.44253374281107 97.62677116552368,239.97350740875117 97.92036648537032,240.5044806843507 98.55648967833258,242.15049535757862 99.19261287082918,243.31863252696348 99.53514074371196,244.16818564524874 100.17126393644139,245.2301256377832 100.56272436259314,245.7079981250572 100.85631968243979,246.55754843255272 101.63924053497612,247.93806555081392 102.5200264940504,249.0" stroke="#4dd2ff" stroke-linecap="round" stroke-linejoin="round" stroke-width="0.5"><title>2023-09-21 1.0km</title><desc>9889267953</desc></polyline><polyline fill="none" points="121.83262381213717,231.0 121.1902608263772,232.9271348346956 120.81240024673752,234.4442362957052 120.20782331866212,235.71531812573085 119.48988821706735,237.84744888261775 118.2429483034648,240.18458284673397 117.90287378174253,241.45565159220132 117.9406598394271,241.74266671438818 118.16737618739717,242.3576986216649 118.65859494148754,243.42375232084305 118.9608834052924,244.32579616687144 119.71660456503741,245.39184610371012 120.17003726097755,246.2528849497321 120.43453966663219,246.86791188293137 120.73682813043706,247.4009346763487 121.22804688452743,247.76995015799184 121.83262381213717,248.6719869741064 121.8704098702874,248.83599351116573 122.09712621825747,249.0" stroke="#4dd2ff" stroke-linecap="round" stroke-linejoin="round" stroke-width="0.5"><title>2023-09-20 1.0km</title><desc>9882714971</desc></polyline><polyline fill="none" points="141.492503026966,231.0 141.10871653445065,231.97173551184824 140.3837864927482,234.10029377049068 140.3411435491871,234.79438729817048 140.08528588735498,235.16457019996597 139.78678528219461,235.85866255377186 139.61621350748464,236.50648139341502 139.27506995853037,237.3856630375376 138.29428225499578,238.9589323879336 138.03842459316365,239.88438310968922 137.9531387060415,240.71728759579128 138.03842459316365,241.55019097944023 138.29428225499578,242.47563789068954 138.59278286015615,243.12344991898863 139.53092762012966,244.74297707213555 140.00000000023283,245.39078676642384 140.42642943630926,246.5475881336024 140.85285887261853,247.28793989261612 141.27928830869496,247.889475055621 141.7483606885653,248.35219402058283 142.04686129419133,249.0" stroke="#4dd2ff" stroke-linecap="round" stroke-linejoin="round" stroke-width="0.5"><title>2023-09-19 1.0km</title><desc>9876194288</desc></polyline><polyline fill="none" points="159.86750662187114,231.0 159.54952251445502,231.51757766940864 159.01954900240526,232.5527319808025 158.8605569486972,233.24283409374766 157.90660462668166,234.91057835303945 157.1646417095326,236.46330257016234 157.00564965582453,237.03838483133586 157.05864700721577,237.67097482999088 157.3766311146319,238.47608863416826 157.85360727552325,239.33870964730158 158.27758608548902,240.5463774675154 158.8605569486972,241.81155127921375 159.4965251632966,242.96170751401223 160.07949602697045,243.70930815977044 160.76846159272827,244.85946160397725 161.19244040246122,246.18213597405702 161.9344033198431,247.33228578220587 162.30538477841765,248.36741916363826 162.9943503444083,249.0" stroke="#4dd2ff" stroke-linecap="round" stroke-linejoin="round" stroke-width="0.5"><title>2023-09-18 1.0km</title><desc>9870505463</desc></polyline><polyline fill="none" points="180.180867734598,231.0 179.92248525680043,231.5046786859748 179.56074978783727,233.18693856027676 179.0956613277085,233.97199189837556 178.88895534537733,234.58881895412924 177.75207244278863,236.43929712829413 177.3386604783591,237.44864696724107 177.0802780003287,238.3458457023953 177.28698398265988,238.9626692206948 178.42386688501574,241.42995830491418 178.99230833654292,242.3271523566218 179.40572030097246,243.2804198800004 180.0775147434324,244.17761175491614 180.4392502126284,244.79443055659067 180.90433867252432,246.25236392312218 182.91972199990414,249.0" stroke="#4dd2ff" stroke-linecap="round" stroke-linejoin="round" stroke-width="0.5"><title>2023-09-16 1.0km</title><desc>9856514700</desc></polyline><polyline fill="none" points="19.751177390338853,251.0 19.198238257551566,252.68001679936424 18.47941738506779,253.82002622907748 16.986481726402417,256.7000429572654 16.931187813170254,257.36004535935353 16.986481726402417,258.1400475098053 17.318245206261054,258.92004891473334 17.87118433904834,259.76004959398415 18.368829558370635,260.9000491327606 19.25353217078373,262.4000460996176 20.359410436591133,264.50003722141264 20.46999826305546,265.2800325474236 20.857055655913427,265.58003055123845 21.29940696223639,266.18002622795757 22.018227834720165,267.38001625816105 22.792342620436102,268.04001002263976 22.95822436036542,268.46000577666564 23.068812187062576,269.0" stroke="#4dd2ff" stroke-linecap="round" stroke-linejoin="round" stroke-width="0.5"><title>2023-09-15 1.0km</title><desc>9850671982</desc></polyline><polyline fill="none" points="40.45760422758758,251.0 39.54239577241242,253.4207119922503 38.51278626034036,254.91037746024085 38.05518203275278,255.7172784911818 37.36877569137141,257.4552165536443 37.19717410602607,258.07590785168577 37.19717410602607,258.57246056129225 37.36877569137141,259.193151037849 38.05518203275278,261.05521972937277 38.684387845685706,262.29659657517914 40.22880211402662,264.96555061248364 40.858007926726714,266.14485319692176 40.97240898362361,266.82760657178005 41.43001321121119,267.26208570454037 42.17362008104101,268.44138508086326 42.80282589397393,269.0" stroke="#4dd2ff" stroke-linecap="round" stroke-linejoin="round" stroke-width="0.5"><title>2023-09-14 1.0km</title><desc>9844236351</desc></polyline><polyline fill="none" points="57.13924675201997,251.0 57.46854208991863,251.26799398573348 57.59202784160152,251.535987853189 57.67435167613439,252.11664082697826 57.92132317950018,252.60796214069705 58.08597084856592,253.99259279557737 58.08597084856592,254.66257423744537 58.00364701403305,255.01989737094846 58.08597084856592,255.46655099239433 58.291780434548855,256.00253490457544 58.209456600248814,256.4491878034314 58.250618517398834,256.6725141296629 58.66223768983036,257.4318230249919 59.03269494511187,258.54845202929573 59.3619902827777,259.17376337520545 59.773609455209225,259.7544090486481 60.226390544790775,260.1563941896311 60.34987629647367,260.42438413598575 60.47336204838939,261.00502861407585 60.80265738628805,261.5856725371559 61.173114641336724,262.6576290910598 61.667057648068294,263.5955895241932 61.91402915143408,264.39955445716623 62.0375149033498,265.0695244217641 62.28448640671559,265.6054998616455 62.737267496297136,267.0794298829278 63.35469625494443,268.2407055631047 63.39585817232728,268.41936316300416 63.35469625494443,268.5533563285135 62.86075324798003,269.0 63.107724751578644,268.8213425707654 63.231210503261536,268.5533563285135 63.31353433756158,268.330034369661 63.27237242064439,268.0173834892921 63.02540091704577,267.70473244803725 62.28448640671559,266.0968102659681 61.91402915143408,264.89086583675817 61.131952724186704,263.14894187945174 60.761495468905196,261.45167783496436 60.55568588292226,260.96036367397755 59.773609455209225,259.9330691441428 58.99153302772902,258.45912178448634 58.62107577244751,257.2531621938688 58.49759002099745,256.4491878034314 58.16829468286596,255.60054701479385 57.50970400730148,254.1712545856717 57.345056338235736,253.50127260189038 56.768789496971294,252.4292998908204 56.64530374505557,251.84864721581107 56.60414182790555,251.1339970076806" stroke="#4dd2ff" stroke-linecap="round" stroke-linejoin="round" stroke-width="0.5"><title>2023-09-13 1.0km</title><desc>9837636972</desc></polyline></svg>