<?xml version="1.0" encoding="utf-8" ?>
<svg baseProfile="full" height="300mm" version="1.1" viewBox="0,0,200,300" width="200mm" xmlns="http://www.w3.org/2000/svg" xmlns:ev="http://www.w3.org/2001/xml-events" xmlns:xlink="http://www.w3.org/1999/xlink"><defs /><rect fill="#222222" height="300" width="200" x="0" y="0" /><text fill="#FFFFFF" style="font-size:12px; font-family:Arial; font-weight:bold;" x="10" y="20">Over 1km Runs</text><text fill="#FFFFFF" style="font-size:4px; font-family:Arial" x="10" y="280">ATHLETE</text><text fill="#FFFFFF" style="font-size:9px; font-family:Arial" x="10" y="290">Jiakai</text><text fill="#FFFFFF" style="font-size:4px; font-family:Arial" x="120" y="280">STATISTICS</text><text fill="#FFFFFF" style="font-size:3px; font-family:Arial" x="120" y="285">Number: 79</text><text fill="#FFFFFF" style="font-size:3px; font-family:Arial" x="120" y="290">Weekly: 6.1</text><text fill="#FFFFFF" style="font-size:3px; font-family:Arial" x="141" y="285">Total: 81.6 km</text><text fill="#FFFFFF" style="font-size:3px; font-family:Arial" x="141" y="290">Avg: 1.0 km</text><text fill="#FFFFFF" style="font-size:3px; font-family:Arial" x="167" y="285">Min: 1.0 km</text><text fill="#FFFFFF" style="font-size:3px; font-family:Arial" x="167" y="290">Max: 1.5 km</text><polyline fill="none" points="17.682276184670627,32.46507978520822 20.015018679201603,36.18751898140181 21.11277985293418,40.803334082709625 23.445522347465158,47.35479551949538 24.268843228463084,50.92831100709736 24.817723815795034,51.375 24.95494396239519,51.22610367985908 24.95494396239519,50.92831100709736 24.680503668729216,49.737139878678136 21.79888058686629,43.930170593899675 21.11277985293418,42.29230445204303 20.70111941266805,39.761054172879085 20.015018679201603,37.82539006031584 18.917257505469024,35.889724097563885 18.780037358403206,33.805158684030175 17.54505603760481,31.125" stroke="#4dd2ff" stroke-linecap="round" stroke-linejoin="round" stroke-width="0.5"><title>2023-12-09 1.0km</title><desc>10350143310</desc></polyline><polyline fill="none" points="41.59134292509407,35.054120076587424 42.426952115260065,38.076515023829415 44.23743869457394,42.458979804767296 46.74426626553759,49.712694082874805 47.85841185320169,51.375 47.71914365515113,49.86381285847165 46.88353446451947,47.2947921679588 44.6552432901226,43.36569548945408 43.26256130589172,40.041069357073866 41.73061112361029,37.62315606547054 41.31280652852729,35.20523992937524 39.641588147263974,31.125" stroke="#4dd2ff" stroke-linecap="round" stroke-linejoin="round" stroke-width="0.5"><title>2023-12-08 1.0km</title><desc>10345303898</desc></polyline><polyline fill="none" points="62.98742344416678,31.125 63.24842956895009,31.833045549923554 63.77044181758538,33.67396276129875 64.03144794236869,36.22292214934714 64.55346019053832,38.34705239557661 66.38050306215882,42.87852242635563 67.55503062205389,46.9851579334354 68.72955818241462,49.534099706215784 68.99056430673227,51.375 69.25157043151557,51.2333923476981 69.51257655583322,50.95017701131292 69.51257655583322,50.525353929027915 68.8600612450391,48.82606066344306 66.77201224910095,45.285861543845385 64.29245406622067,38.06383516511414 63.639938755426556,35.09005172632169" stroke="#4dd2ff" stroke-linecap="round" stroke-linejoin="round" stroke-width="0.5"><title>2023-12-07 1.0km</title><desc>10340288256</desc></polyline><polyline fill="none" points="84.99076015828177,31.125 85.79631155310199,33.01889366377145 87.27315577678382,39.28329827217385 89.42129282932729,43.21675150946248 91.16665418446064,48.02429486287292 91.97220557928085,51.08363456081133 92.37498127669096,51.375 92.50923984171823,50.35522077570204 92.24072271026671,49.04407528694719 90.09258565772325,44.52790085342713 88.61574143450707,42.342651464859955 87.81019003968686,40.74013371474575 85.12501872470602,31.562052544555627" stroke="#4dd2ff" stroke-linecap="round" stroke-linejoin="round" stroke-width="0.5"><title>2023-12-06 1.0km</title><desc>10334845031</desc></polyline><polyline fill="none" points="109.38380621094257,34.61639471130911 110.28472735080868,39.22502590424847 111.1856484906748,42.576750658103265 113.37359983054921,48.30260009842459 114.53192701051012,50.95603666966781 114.91803607018664,51.375 114.40322399046272,48.86121863196604 113.11619379045442,46.48708872986026 111.95786661049351,43.13537087570876 110.28472735080868,39.643991821911186 109.5125092305243,36.990539449383505 108.225479030516,34.197427685023285 107.58196393027902,31.125" stroke="#4dd2ff" stroke-linecap="round" stroke-linejoin="round" stroke-width="0.5"><title>2023-12-05 1.0km</title><desc>10329306344</desc></polyline><polyline fill="none" points="130.0306627266109,32.82430888223462 130.94418416218832,34.24039847229142 132.11871172254905,38.34705239557661 134.4677668423392,44.152996451826766 135.64229440269992,48.11802135966718 136.68631890043616,50.38374621444382 137.46933727385476,51.375 137.46933727385476,50.66696163348388 134.07625765539706,42.87852242635563 132.77122703380883,38.48866099573206 131.3356933486648,35.23166056594346 130.29166885046288,31.125" stroke="#4dd2ff" stroke-linecap="round" stroke-linejoin="round" stroke-width="0.5"><title>2023-12-04 1.0km</title><desc>10324662812</desc></polyline><polyline fill="none" points="152.7329415678978,32.994238877203315 154.16847562231123,38.44617618306074 156.46533010853454,43.58656136528589 158.04441756755114,49.038471416104585 159.19284481089562,51.219231507973745 160.05416524317116,51.375 160.05416524317116,50.75192596309353 159.0492914058268,49.038471416104585 157.75731075694785,45.30002032138873 156.32177670300007,43.11925413669087 155.31690286565572,40.47117789497133 153.594262000639,34.24039721232839 152.4458347572945,31.125" stroke="#4dd2ff" stroke-linecap="round" stroke-linejoin="round" stroke-width="0.5"><title>2023-12-02 1.0km</title><desc>10313350310</desc></polyline><polyline fill="none" points="175.07416334142908,32.19886857050005 176.4879466718994,34.039784834720194 178.1844866676256,39.869342289399356 179.31551333190873,44.62502183509059 181.15343166096136,49.84091597085353 182.28445832477883,51.375 182.42583665857092,50.45454971771687 182.14307999238372,48.61364793498069 180.58791832858697,45.23865711595863 178.1844866676256,41.40343364945147 176.7707033380866,38.4886591010727 175.35692000715062,31.125" stroke="#4dd2ff" stroke-linecap="round" stroke-linejoin="round" stroke-width="0.5"><title>2023-12-01 1.0km</title><desc>10308709030</desc></polyline><polyline fill="none" points="17.517610910348594,55.29166666662786 20.316902726888657,64.91043894202448 23.11619454342872,70.6479330365546 24.671356664039195,74.86666954495013 25.137905300594866,75.54166666662786 25.29342151246965,75.03541884396691 24.671356664039195,73.3479252953548 22.33861348312348,70.14168413472362 21.71654863562435,68.45418698829599 19.383805454708636,63.89793849573471 18.295191970653832,58.66667907289229 17.206578486599028,55.62916813069023" stroke="#4dd2ff" stroke-linecap="round" stroke-linejoin="round" stroke-width="0.5"><title>2023-11-30 1.0km</title><desc>10303537703</desc></polyline><polyline fill="none" points="41.43334666127339,59.62099515367299 42.33426740439609,62.55376045848243 42.720376294106245,64.92790048394818 44.13610888971016,67.72100259759463 45.68054444855079,71.91064806748182 47.22498000692576,75.26235779037233 47.4823859333992,75.54166666662786 47.73979185940698,75.26235779037233 47.4823859333992,74.28477639867924 46.452762227505445,72.46926676505245 45.03702963190153,68.55893243080936 42.977782220579684,64.36927956866566 42.205564440693706,59.900306330178864 40.661128881853074,57.52616002096329 39.76020814012736,55.29166666662786" stroke="#4dd2ff" stroke-linecap="round" stroke-linejoin="round" stroke-width="0.5"><title>2023-11-29 1.0km</title><desc>10298007687</desc></polyline><polyline fill="none" points="62.75927883014083,57.91398048854899 64.23612240189686,61.70176099403761 64.50463941460475,64.46974986139685 66.38425850635394,68.98593392362818 67.45832655904815,73.0650590681471 68.39813610492274,74.9589357455261 69.33794565079734,75.54166666662786 69.7407211707905,75.54166666662786 70.00923818396404,75.10461849195417 69.87497967714444,74.5218874423299 69.33794565079734,73.50210769288242 67.1898095458746,67.82046805403661 65.04167344141752,62.8672304621432 64.63889792142436,60.536290840478614 63.6990883750841,57.76829647854902 62.490761816035956,55.29166666662786" stroke="#4dd2ff" stroke-linecap="round" stroke-linejoin="round" stroke-width="0.5"><title>2023-11-28 1.0km</title><desc>10292316108</desc></polyline><polyline fill="none" points="88.27453567041084,55.29166666662786 89.46319649508223,58.516204605577514 90.1763929896988,61.61175545130391 91.12732164887711,63.0305477634538 92.19711639126763,65.09424362389836 93.26691113319248,68.44774422014598 94.2178397923708,69.99551156384405 94.2178397923708,70.7693947236985 93.62350938050076,71.28531664074399 91.72165206121281,72.31716001965106 90.53299123700708,73.34900279145222 89.34433041280136,73.99390421563294 87.56133917579427,74.76778561191168 84.708553197328,75.54166666662786 84.23308886773884,75.412686514901 83.87649062043056,75.02574600162916 83.2821602076292,72.57512076944113" stroke="#4dd2ff" stroke-linecap="round" stroke-linejoin="round" stroke-width="0.5"><title>2023-11-27 1.0km</title><desc>10287544518</desc></polyline><polyline fill="none" points="109.29245392326266,59.681544879684225 109.94496928201988,61.23924119537696 111.51100614434108,69.16931199992541 113.20754607766867,73.27594297786709 114.12106758076698,74.83362830022816 114.7735829395242,75.54166666662786 114.90408601192757,75.40005901409313 114.51257679611444,74.69202059553936 114.51257679611444,73.5591585849179 113.46855222107843,71.15182459971402 112.29402457503602,67.18679735972546 111.11949692852795,64.77945541031659 110.33647849736735,60.24798004934564 108.11792627628893,56.70775750593748 107.59591398853809,55.29166666662786" stroke="#4dd2ff" stroke-linecap="round" stroke-linejoin="round" stroke-width="0.5"><title>2023-11-26 1.0km</title><desc>10281488289</desc></polyline><polyline fill="none" points="130.06276023760438,55.29166666662786 131.56775605864823,59.2110359123908 132.92225229833275,64.76346383988857 134.27674853801727,67.86628516553901 134.57774770259857,69.82595955929719 135.33024561405182,71.62232623505406 136.98574101738632,74.72513798053842 137.73823892790824,75.54166666662786 138.03923809248954,75.54166666662786 135.78174435999244,70.64249004633166 135.48074519541115,69.00942877214402 133.9757493743673,66.88644732057583 130.96575773041695,58.72111513547134 129.46076190844178,55.944895354798064" stroke="#4dd2ff" stroke-linecap="round" stroke-linejoin="round" stroke-width="0.5"><title>2023-11-25 1.0km</title><desc>10275889695</desc></polyline><polyline fill="none" points="152.325757259503,55.48091974109411 153.37222198955715,60.212242065463215 158.2557240659371,73.45989831234328 159.47659958526492,75.35241506807506 159.999831950292,75.54166666674428 160.17424273956567,74.97391182789579 158.43013485427946,72.70289122057147 156.33720539323986,66.45757421874441 154.94191908556968,63.618788754567504 154.0698651438579,58.1304613139946 153.02340041287243,55.29166666674428" stroke="#4dd2ff" stroke-linecap="round" stroke-linejoin="round" stroke-width="0.5"><title>2023-11-24 1.0km</title><desc>10271180196</desc></polyline><polyline fill="none" points="176.2321199523285,57.54167593049351 176.67645172588527,58.82739446940832 177.7132258620113,64.29168982524425 180.23110591061413,72.00596589781344 181.41599063854665,75.22023956058547 181.8603224111721,75.54166666662786 182.452764775604,75.54166666662786 182.60087536741048,75.22023956058547 182.30465418472886,73.6131033198908 180.67543768323958,68.95240154094063 176.38023054320365,59.63096817256883 174.89912463352084,55.29166666662786" stroke="#4dd2ff" stroke-linecap="round" stroke-linejoin="round" stroke-width="0.5"><title>2023-11-23 1.0km</title><desc>10265414399</desc></polyline><polyline fill="none" points="19.475802395958453,84.02173206734005 19.60722444113344,86.01821563730482 20.13291261997074,89.15554281009827 22.235665335785598,95.14497150387615 22.89277555933222,97.99707390577532 23.94415191700682,99.70833333337214 24.73268418526277,99.70833333337214 24.601262141019106,98.85270380810834 23.15561964828521,95.14497150387615 21.972821245901287,93.29110269411467 20.264334664214402,88.0146971528884 18.29300399310887,82.59567111625802 17.76731581473723,79.45833333337214" stroke="#4dd2ff" stroke-linecap="round" stroke-linejoin="round" stroke-width="0.5"><title>2023-11-21 1.0km</title><desc>10253878272</desc></polyline><polyline fill="none" points="41.57050360320136,84.92733153922018 42.251596226822585,89.36164348723833 45.11218524770811,96.60433197044767 46.338151971343905,99.26490486052353 46.74680754588917,99.70833333337214 47.01924459589645,99.56052385340445 47.15546312043443,99.26490486052353 46.61058902135119,96.89995135425124 44.1586555740796,91.57879579428118 43.205125900916755,88.77040245919488 41.70672212773934,83.0057933239732 40.88941097864881,81.5276857551653 40.34453687956557,79.45833333337214" stroke="#4dd2ff" stroke-linecap="round" stroke-linejoin="round" stroke-width="0.5"><title>2023-11-20 1.0km</title><desc>10248671423</desc></polyline><polyline fill="none" points="62.64485171297565,81.1458408391336 64.62414881167933,85.44130833214149 65.18966226885095,89.89017605688423 66.74482427490875,93.41858164570294 68.29998628096655,97.86743236263283 69.00687810219824,98.9412914593704 69.85514828702435,99.70833333337214 69.71376992342994,98.48106619995087 67.31033773208037,92.19131081306841 65.75517572602257,86.51517382368911 64.20001371949911,82.83334698027465 63.351743534207344,79.45833333337214" stroke="#4dd2ff" stroke-linecap="round" stroke-linejoin="round" stroke-width="0.5"><title>2023-11-19 1.0km</title><desc>10242265034</desc></polyline><polyline fill="none" points="84.81435108883306,97.50100262020715 85.69876657472923,94.71784118225332 86.05253276927397,94.04604270448908 86.6716236085631,93.66215770493727 89.67863625986502,93.27827259234618 91.88967497413978,92.79841604270041 92.59720736276358,92.22258795029484 93.03941510571167,91.64675960410386 93.5700643970631,89.2474720927421 93.39318129979074,88.47969915752765 93.74694749386981,87.9038691597525 93.48162284819409,83.48916406824719 93.30473975138739,82.91333186859265 93.21629820251837,81.18583374435548 93.03941510571167,80.13013932073954 92.06655807141215,79.8422225114191 91.27058413438499,80.41805606614798 91.4474672311917,80.13013932073954 91.62435032846406,80.41805606614798 90.47461019689217,79.8422225114191 90.38616864895448,79.45833333337214 90.1208440028131,79.65027793648187 90.29772710008547,79.55430563853588 89.67863625986502,80.32208382477984 89.76707780873403,80.22611157631036 91.62435032846406,81.18583374435548 91.18214258598164,81.56972241401672 90.47461019689217,81.85763884219341 88.7942207744345,82.14555520680733 88.7057792255655,81.76166670629755 89.14798696851358,81.56972241401672 89.76707780873403,81.66569456376601 91.62435032846406,79.8422225114191 94.1891552368179,79.9381947881775 93.92383059114218,79.74625022732653 93.5700643970631,79.65027793648187 93.30473975138739,84.25693993968889 93.39318129979074,85.6005466276547 93.6585059450008,87.23206717451103 93.83538904273883,90.01524457638152 93.83538904273883,90.97495954553597 93.5700643970631,91.93467380886432 93.03941510571167,92.51050202839542 88.61733767716214,92.99035868374631 86.58318206015974,93.37424388108775 85.52188347745687,94.14201393676922 84.28370179748163,95.8694949108176 83.57616940885782,98.36474116996396 83.3108447631821,99.70833333337214" stroke="#4dd2ff" stroke-linecap="round" stroke-linejoin="round" stroke-width="0.5"><title>2023-11-18 1.0km</title><desc>10236386505</desc></polyline><polyline fill="none" points="107.11771481391042,79.45833333337214 110.05030430061743,84.52085287333466 111.11670047743246,88.28157324180938 111.51659904420376,90.45121633785311 112.31639617681503,91.75300104729831 114.84908709675074,99.12976479739882 115.38228518562391,99.70833333337214 115.38228518562391,99.12976479739882 114.84908709675074,98.40655388811138 113.38279235363007,94.06728284840938 112.58299522101879,92.62085704167839 112.31639617681503,90.16193073021714 111.11670047743246,87.12442927830853 109.78370525641367,84.23156639374793 109.65040573431179,82.64048999361694" stroke="#4dd2ff" stroke-linecap="round" stroke-linejoin="round" stroke-width="0.5"><title>2023-11-17 1.0km</title><desc>10231268371</desc></polyline><polyline fill="none" points="130.1380108250305,80.11156202177517 132.09450496174395,82.88778180221561 132.54600360803306,86.64383833552711 133.90049954969436,89.58335640921723 136.00749323517084,97.42205225571524 137.36198917590082,99.70833333337214 137.21148962620646,98.4018872914603 136.15799278393388,96.27891083422583 135.40549503918737,94.1559323478723 134.20149864722043,89.0934370001778 131.79350586421788,84.03093011502642 131.04100811854005,81.74463290069252 130.58950947131962,79.45833333337214" stroke="#4dd2ff" stroke-linecap="round" stroke-linejoin="round" stroke-width="0.5"><title>2023-11-16 1.0km</title><desc>10225818993</desc></polyline><polyline fill="none" points="152.73834346886724,79.67607600498013 153.74167390633374,83.59544136095792 155.34700260683894,87.95028567290865 157.5543295685202,92.08738183928654 158.35699391830713,95.35350630921312 159.76165653020144,98.18414460332133 161.16631914302707,99.70833333325572 157.5543295685202,92.95834871660918 155.9490008689463,87.95028567290865 151.33368085790426,79.45833333325572" stroke="#4dd2ff" stroke-linecap="round" stroke-linejoin="round" stroke-width="0.5"><title>2023-11-15 1.0km</title><desc>10219684298</desc></polyline><polyline fill="none" points="175.17195953754708,81.89443403633777 176.99605859722942,84.17827584256884 177.27668922115117,87.0711385149043 179.38141890522093,92.09557460516226 180.64425671473145,96.3587229406694 181.9070945251733,99.5560784334084 182.46835577394813,99.70833333337214 182.3280404615216,97.88127379107755 180.50394140277058,95.44519189326093 179.80236484110355,93.31361788243521 178.6798423435539,91.9433191451244 178.25889640673995,90.2685083465185 176.15416672360152,86.00534747436177 175.4525901619345,82.96022719249595 175.0316442255862,79.45833333337214" stroke="#4dd2ff" stroke-linecap="round" stroke-linejoin="round" stroke-width="0.5"><title>2023-11-14 1.0km</title><desc>10213806154</desc></polyline><polyline fill="none" points="18.545370822306722,106.41305567405652 19.627222493756562,110.52176220074762 22.60231458954513,118.15219473920297 23.278471883852035,120.64675289578736 24.630786473397166,123.43478479317855 25.03648085007444,123.875 24.22509209671989,122.40761559992097 22.33185167144984,117.85871710430365 22.196620212867856,116.68480613187421 20.844305623788387,113.45654739858583 18.815833740402013,109.78806522698142 18.004444986581802,107.29349349881522 17.46351915039122,103.625" stroke="#4dd2ff" stroke-linecap="round" stroke-linejoin="round" stroke-width="0.5"><title>2023-11-13 1.0km</title><desc>10208522228</desc></polyline><polyline fill="none" points="41.48794633941725,105.92614626057912 42.901729877106845,110.22161249048077 44.598270122893155,113.75002456456423 45.587918599601835,117.89206590806134 46.577567075844854,120.80683081340976 47.849972260184586,123.5681832843693 48.41548567498103,123.875 48.69824238307774,123.26136652345303 47.14308049110696,120.1931964349933 46.294810368679464,116.81820412701927 43.18448658520356,113.9034336496843 41.48794633941725,111.44888693199027 41.205189631320536,108.84092788083944 38.80175761692226,103.625" stroke="#4dd2ff" stroke-linecap="round" stroke-linejoin="round" stroke-width="0.5"><title>2023-11-12 1.0km</title><desc>10202270880</desc></polyline><polyline fill="none" points="63.18609941005707,107.40300021274015 66.52853641752154,114.95897980488371 67.6426820862107,118.73695918556768 68.75682775583118,121.75933769077528 69.4531687987037,123.11940656835213 70.14950984157622,123.875 70.28877805033699,123.27052527701017 69.0353641724214,119.49255422828719 66.66780462581664,115.8656954895705 64.16097687045112,110.12315606547054 63.18609941005707,106.04292093601543 62.21122194919735,103.625" stroke="#4dd2ff" stroke-linecap="round" stroke-linejoin="round" stroke-width="0.5"><title>2023-11-11 1.0km</title><desc>10196068378</desc></polyline><polyline fill="none" points="86.8674343591556,106.6447476092726 89.15925339981914,113.572389628971 91.28737108130008,119.25659388699569 92.26957924105227,122.98684566398151 92.92438468150795,123.875 93.25178740173578,123.51973830466159 92.76068332139403,121.38816703576595 90.30516292061657,115.88159922137856 87.84964251983911,110.73028248548508 84.57561531756073,105.57895476697013 84.2482125973329,103.625" stroke="#4dd2ff" stroke-linecap="round" stroke-linejoin="round" stroke-width="0.5"><title>2023-11-10 1.0km</title><desc>10191120477</desc></polyline><polyline fill="none" points="106.5489014852792,104.24332349712495 108.97067950852215,106.0982928982703 110.39525481592864,108.57158288673963 110.82262740842998,109.49906588252634 110.82262740842998,110.89028960908763 112.38966024620458,115.68227539851796 112.95949036907405,118.46471374866087 114.09915061527863,121.55630759662017 114.38406567648053,123.1021028162213 115.09635333064944,123.875 115.52372592221946,123.72042058606166 115.9510985147208,123.1021028162213 114.38406567648053,122.02004628209397 111.81983012333512,118.31013393669855 108.82822197815403,110.11738765251357 108.11593432398513,105.47996994620189 107.40364667028189,103.625" stroke="#4dd2ff" stroke-linecap="round" stroke-linejoin="round" stroke-width="0.5"><title>2023-11-09 1.0km</title><desc>10185506531</desc></polyline><polyline fill="none" points="129.7996659753844,105.25091993960086 131.2980685364455,108.20713464240544 131.8429421945475,109.68524036393501 133.61378158535808,113.52831015421543 134.29487365856767,116.1888926285319 134.15865524392575,114.56298153463285 134.43109207367525,115.59765238279942 134.9759657313116,119.58852066658437 136.2019314635545,123.28376201470383 136.74680512258783,123.875 137.42789719533175,123.57938102865592 137.7003340246156,123.13595249096397 136.2019314635545,121.80566629045643 135.11218414641917,120.03194998705294 134.43109207367525,118.11042222601827 133.4775631702505,114.85860183159821 132.115379024297,112.93706912617199 130.61697646277025,109.68524036393501 130.2083212188445,107.32027068792377 130.34453963348642,104.36405468103476 130.0721028042026,103.625" stroke="#4dd2ff" stroke-linecap="round" stroke-linejoin="round" stroke-width="0.5"><title>2023-11-08 1.0km</title><desc>10179505859</desc></polyline><polyline fill="none" points="155.33647836279124,114.81208925554529 159.90408654883504,123.875 160.16509273042902,123.73339234781452 159.51257727574557,122.17570748343132 158.33804945647717,120.19319765258115 157.55503091029823,118.21068578166887 155.9889938174747,116.51138826808892 155.46698145428672,115.52013069286477 155.0754721807316,112.12152941920795 154.81446599867195,111.13026958494447 153.24842890631407,108.43970460584387 152.33490726957098,103.625" stroke="#4dd2ff" stroke-linecap="round" stroke-linejoin="round" stroke-width="0.5"><title>2023-11-06 1.0km</title><desc>10167691585</desc></polyline><polyline fill="none" points="176.8032507961616,109.30667556147091 177.7430607569404,111.05488014931325 181.23378346674144,119.06746477528941 182.71062769088894,123.58363456081133 182.9791448218748,123.875 183.24766195332631,123.875 183.24766195332631,123.43795182509348 182.17359342705458,121.10702659829985 181.23378346674144,119.79587995330803 181.09952490124851,119.06746477528941 180.2939735064283,118.19336620881222 178.0115778883919,114.25991788762622 175.32640657247975,107.41278551763389 174.25233804667369,103.625" stroke="#4dd2ff" stroke-linecap="round" stroke-linejoin="round" stroke-width="0.5"><title>2023-11-05 1.1km</title><desc>10161301187</desc></polyline><polyline fill="none" points="17.46351998578757,127.79166666662786 20.16814856696874,133.80799246649258 21.38523142877966,139.0906050459016 23.278471435885876,142.75907777773682 23.95462858164683,145.69385110889561 24.63078572647646,148.04166666662786 25.03648001421243,147.6014514598064 24.901248584501445,147.161236156011 23.143240007106215,143.9329876281554 23.00800857739523,143.49277151515707 21.38523142877966,140.99821170803625 20.70907428301871,138.65038786502555 18.951065705623478,135.42212557129096 18.54537141835317,132.6340766614303 17.733982843812555,129.699284127797" stroke="#4dd2ff" stroke-linecap="round" stroke-linejoin="round" stroke-width="0.5"><title>2023-11-04 1.0km</title><desc>10155501797</desc></polyline><polyline fill="none" points="49.18291300861165,130.8676311909221 47.647524549625814,128.81698877830058 46.70267011318356,128.17616252915468 44.81296124076471,127.79166666662786 43.04135917266831,127.91983196383808 40.561116276774555,129.07331921171863 39.49815503554419,130.09864056913648 38.55330059956759,132.02111648779828 38.31708699045703,133.55909569596406 37.96276657702401,138.68568325287197 38.198980185668916,144.0685839559883 38.43519379524514,144.83756841346622 39.6162618403323,146.7600280722836 41.033543495461345,147.78533902321942 43.39567958610132,148.04166666662786 45.5216020680964,147.1445197496796 47.529417745769024,144.7094043608522 48.1199517683126,143.5559274625266 48.94669939996675,139.839163374505 48.94669939996675,136.8913793232059 49.537233422510326,133.04643611051142 49.419126618187875,131.63662147370633 48.1199517683126,130.09864056913648 47.056990527082235,129.32964960753452 44.57674763118848,128.17616252915468 43.27757278131321,128.17616252915468 40.443009472917765,129.07331921171863 39.14383462257683,130.22680569638032 38.31708699045703,131.76478648767807 38.080873381346464,132.7901062616147 38.31708699045703,137.01954395114444 38.080873381346464,138.94201223459095" stroke="#4dd2ff" stroke-linecap="round" stroke-linejoin="round" stroke-width="0.5"><title>2023-11-03 1.0km</title><desc>10152446508</desc></polyline><polyline fill="none" points="62.05896987952292,127.79166666674428 63.16603443957865,130.194218224613 64.11494691949338,134.4844827123452 65.69646772090346,137.57346826139838 68.0687489202246,143.75142709561624 68.54320516064763,144.78108531213365 69.33396556135267,147.52683833427727 69.8084218017757,148.04166666674428 70.4410301214084,148.04166666674428 70.4410301214084,147.69844779092818 69.33396556135267,147.18361938325688 68.85950932092965,145.98235265677795 67.75244476087391,144.9526949704159 66.9616843611002,142.72176842577755 65.85461980011314,141.00566963269375 64.5894031599164,138.43151907715946 63.16603443957865,133.11159893427975 62.217121958732605,130.8806610724423" stroke="#4dd2ff" stroke-linecap="round" stroke-linejoin="round" stroke-width="0.5"><title>2023-11-02 1.1km</title><desc>10144903556</desc></polyline><polyline fill="none" points="85.3015983053483,129.25906487507746 85.57206118293107,130.87320165871643 86.65391269512475,133.36777412006631 88.54715284146369,140.11777809017804 91.79270737851039,146.86775923275854 92.73932745074853,148.04166666662786 92.19840169558302,146.28080525714904 90.1699301097542,143.1992940522032 89.08807859802619,139.23734408430755 87.73576420778409,137.32973573950585 86.1129869390279,133.80799246625975 84.7606725487858,127.79166666662786" stroke="#4dd2ff" stroke-linecap="round" stroke-linejoin="round" stroke-width="0.5"><title>2023-11-01 1.0km</title><desc>10138966680</desc></polyline><polyline fill="none" points="108.30337887629867,128.09617941139732 109.00495533458889,130.38002356828656 110.1274776677601,136.47026234073564 111.95157645829022,140.4289079385344 113.07409879099578,144.08303562016226 114.89819758245721,148.04166666662786 115.038512873929,147.88941176596563 113.775675249286,146.06235208921134 111.95157645829022,141.79920657444745 110.40810825070366,139.05860839539673 107.74211771087721,130.98904825141653 107.46148712653667,127.79166666662786" stroke="#4dd2ff" stroke-linecap="round" stroke-linejoin="round" stroke-width="0.5"><title>2023-10-31 1.0km</title><desc>10133123337</desc></polyline><polyline fill="none" points="130.57055966323242,130.19167716510128 131.2617423455231,133.79168761963956 131.2617423455231,135.1416899022879 132.78234424535185,137.69169177673757 136.92944033676758,146.5416735591134 137.62062301905826,147.8916674052598 137.89709609141573,148.04166666662786 134.71765575464815,141.74168820353225 133.3352903914638,137.84169178793672 131.8146884907037,134.69168924051337 129.60290390858427,127.79166666662786" stroke="#4dd2ff" stroke-linecap="round" stroke-linejoin="round" stroke-width="0.5"><title>2023-10-30 1.0km</title><desc>10127985445</desc></polyline><polyline fill="none" points="153.05782746803015,130.7226017251378 153.67170680081472,134.85254762531258 154.04003440076485,136.1847862303257 156.4955517333001,141.9134010715643 157.72331039886922,145.24398277048022 159.56494839815423,147.77522076736204 160.05605186522007,148.04166666662786 160.1788277309388,147.6419978030026 159.0738449320197,145.91009837540332 157.4777586660348,142.44629455474205 154.65391373354942,137.25057640939485 153.54893093416467,133.3870840285672 152.68949986761436,131.65517097723205 152.56672400142998,128.9906861272175 152.32117226859555,127.79166666662786" stroke="#4dd2ff" stroke-linecap="round" stroke-linejoin="round" stroke-width="0.5"><title>2023-10-28 1.0km</title><desc>10115543824</desc></polyline><polyline fill="none" points="176.12350542237982,131.9916831862647 177.22939787618816,135.59169046452735 178.47352688619867,138.44169172167312 179.579419340007,142.49168665974867 181.23825802095234,146.39167418773286 181.92944080382586,147.89166740584187 182.62062358716503,148.04166666662786 182.75886014429852,147.89166740584187 182.48238703096285,146.99167160713114 181.6529676904902,144.7416803742526 178.88823655666783,139.34169129177462 176.67645164905116,133.34168666007463 175.29408608190715,130.3416777276434 174.74113985523582,127.79166666662786" stroke="#4dd2ff" stroke-linecap="round" stroke-linejoin="round" stroke-width="0.5"><title>2023-10-27 1.0km</title><desc>10110442644</desc></polyline><polyline fill="none" points="18.50559645984322,155.0851847869344 21.11277982359752,163.87012255983427 22.073321062605828,166.55026548053138 23.033862302079797,168.18812885310035 24.131623717956245,171.31495524942875 24.54328424902633,171.91054068272933 25.366605311166495,172.20833333337214 25.503825487568974,171.76164434070233 25.366605311166495,171.16605886386242 23.994403540622443,169.37930138316005 21.936100885737687,165.8057816916844 19.46613769978285,158.5098260777304 17.819495575036854,155.82967251655646 16.996174512896687,151.95833333337214" stroke="#4dd2ff" stroke-linecap="round" stroke-linejoin="round" stroke-width="0.5"><title>2023-10-26 1.0km</title><desc>10104873905</desc></polyline><polyline fill="none" points="42.735764431301504,161.64314157445915 45.84608684293926,169.4203020510031 47.33363234438002,172.06159494200256 47.87455798033625,172.20833333337214 47.73932657158002,170.7409489332931 44.08807852305472,164.43118372070603 42.059607385192066,159.29531358892564 40.30159906577319,155.62682683265302 39.62544201966375,151.95833333337214" stroke="#4dd2ff" stroke-linecap="round" stroke-linejoin="round" stroke-width="0.5"><title>2023-10-25 1.0km</title><desc>10098978222</desc></polyline><polyline fill="none" points="62.50399029208347,151.95833333337214 62.36777175730094,152.99300981068518 63.18508296646178,156.39265734388027 64.27483124518767,158.60981568170246 64.95592391910031,161.27040245942771 66.18189073260874,164.81784601940308 68.77004289394245,169.84338034887332 69.58735410310328,171.9127143623773 69.859791173134,172.20833333337214 70.13222824316472,172.06052385317162 69.99600970791653,170.13899962371215 68.49760582484305,167.33061475423165 67.40785754658282,165.70470593159553 66.04567219736055,162.60069452796597 65.77323512826115,160.97478188038804 64.13861270993948,158.4620052020764 63.18508296646178,156.24484670103993 62.91264589643106,153.58425327285659 62.50399029208347,151.95833333337214" stroke="#4dd2ff" stroke-linecap="round" stroke-linejoin="round" stroke-width="0.5"><title>2023-10-24 1.0km</title><desc>10092835699</desc></polyline><polyline fill="none" points="86.6689931480214,155.45475099165924 88.68287074705586,162.59325122099835 89.62268029246479,164.34145143895876 90.69674834469333,168.71194523607846 92.30785042373464,171.62560241227038 92.97914295690134,172.20833333337214 92.30785042373464,171.4799196550157 91.36804087786004,169.14899408561178 88.95138775976375,166.23533326771576 88.41435373341665,165.21555096958764 87.87731970753521,161.86483400850557 86.2662176284939,158.65979509195313 85.19214957626536,155.3090670458041 84.52085704356432,151.95833333337214" stroke="#4dd2ff" stroke-linecap="round" stroke-linejoin="round" stroke-width="0.5"><title>2023-10-23 1.0km</title><desc>10087395010</desc></polyline><polyline fill="none" points="104.69377563544549,152.05545711726882 105.05179471336305,151.95833333331393 107.60268064355478,152.15258088690462 108.72149026207626,152.44395211013034 108.99000457045622,152.58963767357636 109.57178557245061,153.02669417095603 109.97455703490414,153.51231216220185 110.86960472958162,155.16341066139285 111.31712857726961,157.0087511582533 111.89890957879834,157.9799809277174 112.1674238871783,158.75696371495724 112.79395727347583,160.16524268721696 113.24148112116382,161.6220798434224 113.91276689223014,162.78754725470208 114.2260335853789,163.12747486226726 114.62880504806526,163.80732955259737 114.85256697167642,165.2641586754471 114.98682412598282,165.65264589898288 115.34484320366755,166.18681545805885 115.43434797343798,167.01234938157722 115.56860512751155,167.35227481479524 117.53771005617455,172.01409167813836 117.80622436455451,172.20833333331393 117.80622436455451,171.96553125529317 117.40345290186815,171.57704774482409 116.95592905464582,170.50871691276552 116.50840520719066,169.58606616745237 115.30009081913158,165.8468894250109" stroke="#4dd2ff" stroke-linecap="round" stroke-linejoin="round" stroke-width="0.5"><title>2023-10-22 1.5km</title><desc>10080655811</desc></polyline><polyline fill="none" points="130.52918930258602,151.95833333331393 131.2396622505039,152.47229997970862 129.96081094397232,152.2667133664363 131.95013519842178,154.83654168556677 132.139594651293,155.4532990763546 131.997500061756,155.96726315288106 131.33439197693951,156.327037781768 131.14493252406828,156.68681222532177 131.1922973874025,157.3035679833847 131.57121629291214,158.7940588190686 131.997500061756,159.87337778520305 132.47114869370125,161.51805110037094 133.32371623115614,163.00853295001434 133.46581082069315,163.5738873029477 133.98682431597263,164.49901162151946 134.31837835838087,164.91017759247916 134.36574322148226,165.16715620137984 134.69729726412334,165.4755304075079 134.93412157986313,165.98948711535195 135.2656756225042,166.96600381919416 135.59722966491245,167.6341460411786 135.54986480181105,168.97042856935877 136.16560802306049,170.1525225227815 136.35506747616455,170.7178710983717 136.68662151833996,171.3346144775278 137.25499987672083,172.05414773215307 137.53918905602768,172.20833333331393 136.44979720236734,170.6664757921826 136.2129728863947,169.8441503798822 135.73932425421663,168.81624225410633 135.54986480181105,168.14810116199078 134.93412157986313,167.2743772318354 134.41310808481649,165.78390447760466" stroke="#4dd2ff" stroke-linecap="round" stroke-linejoin="round" stroke-width="0.5"><title>2023-10-20 1.4km</title><desc>10069668027</desc></polyline><polyline fill="none" points="152.17527352948673,151.95833333331393 152.27171675954014,152.74322778818896 153.04326259996742,154.62697094748728 153.23614906030707,155.77814486814896 154.82746235630475,159.65026166231837 154.97212720150128,160.17351907264674 155.06857043178752,160.95840446691727 155.26145689189434,161.48166091559688 156.41877565253526,163.10375346138608 157.04565664823167,164.35956450609956 157.4314295684453,165.6153733349638 157.76898087374866,166.2956021921127 157.96186733385548,167.34210685663857 158.20297540910542,167.86535861185985 158.829856404569,169.48743660835316 158.9262996346224,170.11533677583793 159.84251032047905,171.9990339545766 160.08361839549616,172.20833333331393 160.2282832406927,172.20833333331393 160.32472647051327,172.1560084943194 160.2765048558358,172.10368365154136 159.31207255506888,170.90021120611345 158.87807801971212,169.4351115693571 157.96186733385548,167.76070829154924 157.81720248865895,167.08048083470203 157.72075925860554,165.9293251960189" stroke="#4dd2ff" stroke-linecap="round" stroke-linejoin="round" stroke-width="0.5"><title>2023-10-19 1.3km</title><desc>10064004415</desc></polyline><polyline fill="none" points="174.18378014536574,151.95833333337214 176.16909312503412,154.54345140454825 176.03673892654479,156.41047899518162 176.30144732398912,158.27750480151735 177.22792671527714,161.58069993299432 178.5514687015675,163.73495461873244 179.87501068832353,167.46899044618476 182.5220946627669,171.77748445491306 182.91915725870058,172.20833333337214 183.3162198541686,172.0647170508746 181.5956152714789,170.34132084075827 178.41911450307816,164.16580527077895 177.62498931074515,161.4370828694664 175.37496793316677,156.69771385064814" stroke="#4dd2ff" stroke-linecap="round" stroke-linejoin="round" stroke-width="0.5"><title>2023-10-18 1.0km</title><desc>10058081424</desc></polyline><polyline fill="none" points="17.715541414916515,177.35227832128294 18.84656816208735,183.9488869321067 21.81551337428391,191.7727445284836 23.794810181483626,195.91477490961552 24.64308024197817,196.375 25.06721527222544,196.375 25.349971958901733,195.7613665240351 24.360323555767536,194.5340990293771 23.087918465025723,192.53978781227488 21.391378343570977,188.8579774799291 20.684486627113074,186.71025178639684 17.715541414916515,180.72728998365346 17.432784728705883,179.80683279887307 17.150028041563928,176.125" stroke="#4dd2ff" stroke-linecap="round" stroke-linejoin="round" stroke-width="0.5"><title>2023-10-17 1.0km</title><desc>10051702317</desc></polyline><polyline fill="none" points="39.22806673264131,176.59230987390038 40.66360110323876,179.0846274610376 42.81690265890211,184.69233131210785 43.965330155566335,186.8731010237243 45.25731108849868,190.92309596168343 46.83639889676124,194.97308315860573 47.41061264462769,196.06346300430596 48.128379829693586,196.375 48.27193326735869,196.21923150809016 48.128379829693586,195.75192596274428 46.54929202236235,193.4153966914164 44.395990466699004,188.11925413680729 42.81690265890211,184.84810065152124 41.5249217255041,178.7730879226001 40.807154539972544,176.125" stroke="#4dd2ff" stroke-linecap="round" stroke-linejoin="round" stroke-width="0.5"><title>2023-10-16 1.0km</title><desc>10046279660</desc></polyline><polyline fill="none" points="62.10290070716292,176.125 62.69534346461296,177.41071986232419 63.28778622020036,180.3035867883591 64.62078242190182,184.80359439761378 66.39811068959534,187.53573735512327 68.47166033554822,195.25000492099207 69.21221378166229,196.05357289360836 70.24898860417306,196.375 70.3970992937684,196.05357289360836 70.24898860417306,195.08929129096214 68.3235496468842,192.35715777392033 67.2867748234421,189.14287867606618 66.1018893122673,187.21430894907098 63.28778622020036,180.62501621060073 62.25101139675826,176.125" stroke="#4dd2ff" stroke-linecap="round" stroke-linejoin="round" stroke-width="0.5"><title>2023-10-15 1.0km</title><desc>10039610121</desc></polyline><polyline fill="none" points="84.53601107932627,177.5947642774554 84.98750989232212,182.3306647790596 86.19150672666728,185.76010366680566 87.69650277029723,187.88308699114714 88.59950039628893,190.82259901426733 91.15799366869032,195.39516554027796 91.75999208539724,196.0483885614667 92.51249010767788,196.375 92.96398892067373,196.0483885614667 92.96398892067373,195.5584713134449 89.95399683434516,193.10888345376588 87.99750197865069,189.51614970644005 87.24500395730138,186.4133295211941 85.43900870531797,182.3306647790596 84.53601107932627,178.9012205969775 84.68651068396866,176.77822868782096 84.53601107932627,176.125" stroke="#4dd2ff" stroke-linecap="round" stroke-linejoin="round" stroke-width="0.5"><title>2023-10-14 1.0km</title><desc>10033377496</desc></polyline><polyline fill="none" points="106.65856931451708,176.44643003679812 109.3245613258332,179.66072780278046 109.6207826603204,182.0714480257593 112.1386640034616,189.7857348738471 114.5084346793592,195.41071853914764 115.2489880155772,196.375 115.84143068548292,196.375 115.84143068548292,195.89285932295024 115.693320017308,195.41071853914764 114.3603240121156,194.4464366529137 112.8792173396796,191.71430233237334 111.25,186.57145199575461 108.287786655128,179.9821573193185 107.8434546533972,177.73214971018024 107.10290131624788,176.125" stroke="#4dd2ff" stroke-linecap="round" stroke-linejoin="round" stroke-width="0.5"><title>2023-10-13 1.0km</title><desc>10028006924</desc></polyline><polyline fill="none" points="129.40504435403273,176.125 130.82961997529492,177.97996994643472 131.68436534842476,179.52577698463574 131.82682291138917,181.5353244356811 131.68436534842476,183.6994503120659 133.2513985321857,186.9456349503016 135.10334684047848,191.89219238027 136.95529514877126,195.29294386308175 137.38266783533618,195.9112617240753 138.0949556455016,196.375 138.0949556455016,195.60210281633772 136.52792246220633,193.59256880928297 135.10334684047848,191.11929354909807 133.2513985321857,186.01815413648728 132.11173803498968,184.008610969875 131.54190778639168,182.30822679039557" stroke="#4dd2ff" stroke-linecap="round" stroke-linejoin="round" stroke-width="0.5"><title>2023-10-12 1.0km</title><desc>10021974100</desc></polyline><polyline fill="none" points="153.8824395830743,178.99628079403192 154.43951262207702,182.01867729763035 154.30024436255917,183.22763465484604 155.5536587005481,187.30786048504524 156.52853651950136,189.12129158736207 157.5034143384546,192.44591112039052 158.89609693642706,195.77052527631167 159.17463345639408,196.07276266010012 159.87097475584596,196.375 159.7317064953968,195.77052527631167 158.19975563744083,191.84143524174578 156.52853651950136,188.97017238975968 154.30024436255917,183.83211306645535 153.74317132262513,181.86755757802166 153.46463480358943,178.99628079403192 152.62902524415404,176.125" stroke="#4dd2ff" stroke-linecap="round" stroke-linejoin="round" stroke-width="0.5"><title>2023-10-10 1.0km</title><desc>10009069592</desc></polyline><polyline fill="none" points="175.31949557503685,178.65626107272692 176.28003681404516,181.33641640702263 177.24057805305347,184.90995133598335 179.29888070886955,189.37686113012023 180.94552283268422,195.03493272676133 181.90606407169253,196.375 182.18050442589447,195.9283110073302 182.3177246027626,194.290450524888 181.3571833637543,191.4614156623138 179.29888070886955,187.88789229327813 176.96613769978285,181.33641640702263 176.28003681404516,178.35846581635997 175.18227539770305,176.125" stroke="#4dd2ff" stroke-linecap="round" stroke-linejoin="round" stroke-width="0.5"><title>2023-10-09 1.0km</title><desc>10003389142</desc></polyline><polyline fill="none" points="17.127011598087847,200.29166666662786 18.139675416518003,201.54748620605096 19.152339234482497,203.90214585117064 19.73100427305326,208.61145735159516 21.9009981690906,213.32075846521184 23.781659544911236,218.65795383788645 24.64965710323304,220.22771464393009 25.372988401912153,220.54166666662786 25.372988401912153,219.28585829900112 22.624329467769712,214.89052319491748 19.007672974839807,206.0998258435866 17.56101037748158,200.44864414969925" stroke="#4dd2ff" stroke-linecap="round" stroke-linejoin="round" stroke-width="0.5"><title>2023-10-08 1.0km</title><desc>9996447828</desc></polyline><polyline fill="none" points="41.150658363476396,204.3416833409574 41.81715621938929,206.8006179681979 43.81664978573099,212.1524062398821 44.48314764164388,214.46668855112512 46.615940779447556,219.81845596968196 47.28243863536045,220.54166666662786 47.415738206356764,219.96309813053813 47.415738206356764,219.3845294243656 44.883046355098486,214.90061618143227 43.68335021473467,212.2970489638392 41.550557076931,205.93275903875474 40.884059221018106,202.6059629296651 40.0842617941089,200.29166666662786" stroke="#4dd2ff" stroke-linecap="round" stroke-linejoin="round" stroke-width="0.5"><title>2023-10-07 1.0km</title><desc>9989974159</desc></polyline><polyline fill="none" points="64.59557300293818,206.32360351155512 65.65440628072247,209.77041620307136 66.44853123975918,211.49382026866078 68.03678115690127,218.24380488495808 68.43384363641962,219.53635246958584 69.22796859499067,220.54166666662786 69.88973939372227,220.54166666662786 70.15444771293551,219.96720147447195 70.02209355402738,219.53635246958584 68.43384363641962,217.23848950501997 66.84559371881187,213.79168999032117 66.31617707991973,211.49382026866078 63.53673972515389,204.743812328903 63.13967724563554,202.30231435096357 62.34555228706449,200.29166666662786" stroke="#4dd2ff" stroke-linecap="round" stroke-linejoin="round" stroke-width="0.5"><title>2023-10-06 1.0km</title><desc>9984428862</desc></polyline><polyline fill="none" points="84.39044428616762,200.29166666662786 86.68494729418308,206.4330792982364 88.21461596526206,211.57857431669254 90.81505270767957,218.05192236078437 91.88582077715546,220.20970091840718 92.34472137875855,220.54166666662786 92.956588848494,220.54166666662786 93.1095557147637,220.20970091840718 92.65065511316061,219.3797863323707 90.81505270767957,216.72405760886613 89.74428463727236,214.56627572025172 87.90868223086,209.75275484623853 87.14384789578617,207.26299864286557 85.00231175590307,203.27938300638925 85.00231175590307,201.7855253306916" stroke="#4dd2ff" stroke-linecap="round" stroke-linejoin="round" stroke-width="0.5"><title>2023-10-04 1.0km</title><desc>9971682885</desc></polyline><polyline fill="none" points="108.18508319184184,202.65664068912156 108.86617581546307,205.02161193010397 109.54726843954995,206.64752804441378 110.09214253909886,209.1603049073601 112.68029451044276,214.3336591485422 112.8165130354464,216.10737753810827 113.63382418453693,219.6548096233746 113.9062612336129,220.09823819377925 114.72357238270342,220.54166666662786 114.72357238270342,219.0635713771917 112.95273156045005,215.81175791530404 111.72676483727992,213.0033693293808 111.04567221272737,211.67307863000315 110.36457958864048,209.75154606590513 109.00239434093237,206.94314901495818 108.4575202409178,204.72599067701958 108.18508319184184,202.50882989447564 107.77642761729658,200.29166666662786" stroke="#4dd2ff" stroke-linecap="round" stroke-linejoin="round" stroke-width="0.5"><title>2023-10-03 1.0km</title><desc>9965060084</desc></polyline><polyline fill="none" points="130.04845587722957,201.12844709400088 131.89922793861479,207.1532570925774 132.20768994838,209.83094530692324 133.28730698488653,211.16978823265526 134.05846201069653,213.1780511450488 135.44654105603695,218.36605546902865 136.52615809161216,220.03960272856057 137.29731311742216,220.54166666662786 137.45154412277043,220.37431203282904 136.98885110765696,219.03547452029306 135.29231005162,215.8557322723791 132.51615195907652,209.1615235483041 130.81961090210825,204.14085408637766 130.51114889234304,200.29166666662786" stroke="#4dd2ff" stroke-linecap="round" stroke-linejoin="round" stroke-width="0.5"><title>2023-10-02 1.0km</title><desc>9958643020</desc></polyline><polyline fill="none" points="153.04014479368925,203.8556801606901 153.3387359753251,205.31368401984219 156.62323897797614,213.08968830667436 158.265490478836,218.1116764920298 159.1612640246749,219.89366954844445 160.05703757051378,220.54166666662786 160.2063331613317,220.37966740492266 160.05703757051378,219.7316702393582 157.07112575042993,215.19568474590778 154.234509521164,208.2296888428973 152.89084920194,204.0176806373056 152.2936668386683,200.29166666662786" stroke="#4dd2ff" stroke-linecap="round" stroke-linejoin="round" stroke-width="0.5"><title>2023-10-01 1.0km</title><desc>9952075403</desc></polyline><polyline fill="none" points="175.84252363303676,203.22646200540476 177.05960676353425,205.7210346502252 177.60053259832785,208.21560417755973 178.00622697547078,210.56343147263397 180.03469885932282,216.2862489343388 181.79270782507956,219.95471303607337 182.60409657796845,220.54166666662786 182.8745594965294,220.1014514598064 180.16993031837046,215.99277151515707 178.95284718833864,213.2047338783741 178.5471528111957,211.73734408442397 176.65391238685697,207.62864692218136 175.57206071494147,203.07972234068438 174.62544050300494,200.29166666662786" stroke="#4dd2ff" stroke-linecap="round" stroke-linejoin="round" stroke-width="0.5"><title>2023-09-30 1.0km</title><desc>9945549317</desc></polyline><polyline fill="none" points="18.11479443218559,224.45833333337214 19.458453961648047,226.72634258761536 19.906340470537543,228.50834822107572 21.100704496726394,231.4243543309858 21.69788650982082,235.79835626028944 22.145773019641638,237.0943551643286 23.93731905706227,241.46834583871532 24.385205566883087,244.22233551286627 24.6837965734303,244.54633407178335 25.13168308325112,244.70833333337214 25.280978586524725,244.38433479808737 22.593659528531134,239.52435105561744 20.80211349017918,235.31235647469293 20.20493147801608,232.88235593854915 18.11479443218559,228.02234682801645 17.219021413475275,225.10633621562738" stroke="#4dd2ff" stroke-linecap="round" stroke-linejoin="round" stroke-width="0.5"><title>2023-09-28 1.0km</title><desc>9933629332</desc></polyline><polyline fill="none" points="39.7914034742862,226.759479593602 40.92243105312809,230.74812710052356 43.04310776293278,233.6629031491466 44.45689223660156,238.87880802189466 46.43619049945846,242.40720686654095 47.00170428911224,244.40151661762502 47.567218077834696,244.70833333337214 47.849974973127246,244.24810824275482 47.567218077834696,243.63447463116609 46.43619049945846,242.10038981225807 43.18448621034622,235.5038122398546 41.48794484185055,230.90153646748513 39.650025026872754,224.45833333337214" stroke="#4dd2ff" stroke-linecap="round" stroke-linejoin="round" stroke-width="0.5"><title>2023-09-27 1.0km</title><desc>9927137811</desc></polyline><polyline fill="none" points="67.93223653757013,224.45833333331393 67.52849976834841,226.40547563385917 67.12476299959235,227.52507986332057 66.81074551236816,228.8880737608415 64.97150023118593,232.73364855814725 64.02944777044468,234.34002128941938 63.85000920621678,235.0215115735191 63.939728488214314,235.55696773336967 64.16402669320814,236.335812283447 64.83692130818963,237.99085391045082 65.06121951318346,238.4289524721098 65.33037735940889,239.2077936436981 66.22757017915137,240.3273762227618 66.6313069483731,241.20356996386545 67.07990335859358,241.88505318324314 67.43878048658371,242.85859942255775 67.9770961785689,243.58875816257205 68.64999079355039,244.70833333331393" stroke="#4dd2ff" stroke-linecap="round" stroke-linejoin="round" stroke-width="0.5"><title>2023-09-26 1.0km</title><desc>9920397094</desc></polyline><polyline fill="none" points="88.65543065872043,224.45833333331393 87.77278347173706,227.40008366759866 86.89013628475368,228.9735742143821 86.0705353252124,229.99976226786384 85.62921173195355,230.82071189570706 85.44007304892875,231.64166079915594 85.50311927613802,232.66784590989118 85.81835041474551,233.48879318370018 86.57490514637902,234.6518005816033 86.89013628475368,235.81480652588652 87.5205985608045,237.31987088400638 88.71847688616253,238.82493280782364 90.73595617059618,242.9296347720665 92.05992695130408,244.70833333331393" stroke="#4dd2ff" stroke-linecap="round" stroke-linejoin="round" stroke-width="0.5"><title>2023-09-25 1.0km</title><desc>9914573673</desc></polyline><polyline fill="none" points="112.74293000507168,224.45833333331393 112.24528667028062,225.21434336691163 112.14575800322928,225.59234809182817 112.24528667028062,226.07835388096282 112.2950510038063,226.56435934826732 111.29976433352567,228.40037710027536 111.05094266589731,229.64238650619518 110.70259233145043,230.56039210839663 108.61249032407068,234.23240304231877 108.562725990545,234.66440312145278 108.76178332441486,235.52840251784073 109.30919099319726,236.3924008976901 109.6077769943513,237.14839864632813 110.05565599561669,237.90439561667154 110.30447766324505,238.66039180883672 110.9514139990788,239.68638539657695 111.44905733386986,240.71237755101174 111.99646500288509,241.30637235374888 112.14575800322928,241.84636721207062 112.49410833767615,242.27836281282362 113.24057334032841,243.574348090915 113.78798100887798,244.16834057902452 113.937274009455,244.70833333331393" stroke="#4dd2ff" stroke-linecap="round" stroke-linejoin="round" stroke-width="0.5"><title>2023-09-24 1.0km</title><desc>9907510217</desc></polyline><polyline fill="none" points="134.50492160650901,224.45833333331393 134.08216550690122,225.1136803429108 133.78019686439075,225.76902687054826 133.59901567874476,226.62097663618624 133.5386219501961,227.7350635623443 132.51192856533453,229.11128666636068 131.90799128031358,230.68411046854453 131.36444772337563,231.47052132879617 131.0020853523165,232.51906806329498 130.941691623535,233.63314761698712 132.20995992282405,236.84431030391715 132.69310975074768,237.82731697696727 134.2633466925472,240.31759569660062 134.9276777061168,241.95593316521263 135.77318990556523,243.00446756463498 136.25633973395452,243.85640085610794 136.55830837669782,244.70833333331393" stroke="#4dd2ff" stroke-linecap="round" stroke-linejoin="round" stroke-width="0.5"><title>2023-09-23 1.0km</title><desc>9901004991</desc></polyline><polyline fill="none" points="157.02756968373433,224.45833333331393 156.62438540323637,225.20834193611518 156.22120112297125,226.5208553984412 155.29963705362752,228.45837156730704 154.3780729842838,229.77088001114316 153.5717044235207,231.95838958065724 153.51410666899756,233.14589241793146 153.62930217804387,233.8333933026297 154.7812572645489,236.58339128014632 154.9540505274199,237.3958889800706 155.18444154481404,237.83338741987245 155.9908101055771,238.83338300831383 156.62438540323637,240.0833758393419 157.14276519208215,241.39586633403087 158.0067315073684,242.64585539727705 158.98589333100244,244.70833333331393" stroke="#4dd2ff" stroke-linecap="round" stroke-linejoin="round" stroke-width="0.5"><title>2023-09-22 1.0km</title><desc>9895405405</desc></polyline><polyline fill="none" points="179.82345788786188,224.45833333331393 179.6583105204627,225.05568569112802 179.32801578589715,225.41409689502325 178.61237719398923,226.72826995630749 178.33713158173487,227.6840308473911 177.51139474497177,229.77475387667073 176.63060878613032,231.5667979050777 176.08011756138876,232.88096101366682 175.91497019398957,233.53804177069105 175.91497019398957,233.95618379395455 176.08011756138876,234.5535291681299 176.4104122959543,235.15087410318665 177.12605088809505,237.00264061050257 177.84168947977014,238.31679492612602 178.22703333687969,239.27254218421876 178.94267192855477,240.46722467575455 179.3830649079755,241.00483122392325 179.71335964277387,241.9605753198848 180.59414560184814,243.5136570779141 181.5850298057776,244.70833333331393" stroke="#4dd2ff" stroke-linecap="round" stroke-linejoin="round" stroke-width="0.5"><title>2023-09-21 1.0km</title><desc>9889267953</desc></polyline><polyline fill="none" points="23.311701788567007,248.625 22.589043429587036,250.79302668903256 22.163950277492404,252.49976583267562 21.4838012335822,253.92973289149813 20.676124243997037,256.3283799929777 19.273316841339692,258.9576557026012 18.890733004314825,260.3876080412301 18.93324231938459,260.71050005371217 19.1882982107345,261.40241094940575 19.74091930896975,262.60172136098845 20.080993830924854,263.6165206877631 20.93118013557978,264.81582686671754 21.441291918512434,265.784495568485 21.73885712493211,266.4764008682687 22.078931646654382,267.07605151092866 22.631552744889632,267.4911939277663 23.311701788567007,268.50598534586607 23.354211104102433,268.6904927000869 23.609266995452344,268.875" stroke="#4dd2ff" stroke-linecap="round" stroke-linejoin="round" stroke-width="0.5"><title>2023-09-20 1.0km</title><desc>9882714971</desc></polyline><polyline fill="none" points="45.42906590504572,248.625 44.99730610102415,249.71820245083654 44.1817598042544,252.11283049179474 44.133786492515355,252.8936857105 43.84594662301242,253.3101414749981 43.51013344223611,254.09099537302973 43.3182401957456,254.81979156762827 42.934453702997416,255.80887091724435 41.83106753672473,257.57879893644713 41.5432276672218,258.6199309984804 41.447281044209376,259.55694854533067 41.5432276672218,260.4939648518921 41.83106753672473,261.53509262710577 42.166880717501044,262.2638811588986 43.22229357250035,264.08584920619614 43.75,264.8146351122414 44.22973311552778,266.11603665031726 44.70946623152122,266.94893237925135 45.189199347049,267.6256594376173 45.71690577454865,268.1462182732066 46.052718955790624,268.875" stroke="#4dd2ff" stroke-linecap="round" stroke-linejoin="round" stroke-width="0.5"><title>2023-09-19 1.0km</title><desc>9876194288</desc></polyline><polyline fill="none" points="66.10094494954683,248.625 65.74321282887831,249.20727487810655 65.14699262776412,250.3718234784319 64.96812656731345,251.14818835549522 63.89493020484224,253.02440064720577 63.06022192304954,254.77121539146174 62.881355862598866,255.41818293527467 62.94097788305953,256.12984668376157 63.29871000372805,257.0355997134466 63.835308184847236,258.0060483532725 64.31228434597142,259.36467465094756 64.96812656731345,260.7879951891373 65.68359080865048,262.08192095329287 66.33943303022534,262.92297167977085 67.1145192917902,264.21689430449624 67.59149545268156,265.70490297081415 68.42620373470709,266.99882150505437 68.84355787560344,268.1633465591003 69.61864413740113,268.875" stroke="#4dd2ff" stroke-linecap="round" stroke-linejoin="round" stroke-width="0.5"><title>2023-09-18 1.0km</title><desc>9870505463</desc></polyline><polyline fill="none" points="88.95347620127723,248.625 88.66279591363855,249.19276352168527 88.2558435110841,251.08530588028952 87.73261899338104,251.96849088562885 87.50007476331666,252.662421323359 86.221081498079,254.74420926929452 85.75599303795025,255.87972783809528 85.46531275031157,256.88907641521655 85.69785698037595,257.5830028732307 86.9768502456136,260.3587030930212 87.61634687846527,261.368046401185 88.08143533836119,262.44047236500774 88.83720408612862,263.44981322425883 89.2441564889159,264.14373437612085 89.76738100638613,265.7839094134979 92.03468724968843,268.875" stroke="#4dd2ff" stroke-linecap="round" stroke-linejoin="round" stroke-width="0.5"><title>2023-09-16 1.0km</title><desc>9856514700</desc></polyline><polyline fill="none" points="110.97007456398569,248.625 110.34801803971641,250.51501889922656 109.53934455802664,251.79752950766124 107.85979194217362,255.0375483268872 107.79758628970012,255.78005102928728 107.85979194217362,256.6575534485164 108.23302585678175,257.53505502908956 108.85508238128386,258.4800557931885 109.41493325307965,259.7625552743557 110.41022369195707,261.450051862048 111.6543367409613,263.8125418740674 111.77874804567546,264.6900366158807 112.21418761275709,265.027534370136 112.71183283231221,265.7025295064668 113.52050631376915,267.05251829046756 114.39138544793241,267.7950112755061 114.57800240535289,268.2675064987852 114.70241371029988,268.875" stroke="#4dd2ff" stroke-linecap="round" stroke-linejoin="round" stroke-width="0.5"><title>2023-09-15 1.0km</title><desc>9850671982</desc></polyline><polyline fill="none" points="134.26480475603603,248.625 133.23519524396397,251.34830099134706 132.0768845428247,253.02417464280734 131.5620797870215,253.931938302645 130.78987265285105,255.88711862289347 130.59682086925022,256.58539633319015 130.59682086925022,257.1440181314829 130.78987265285105,257.8422949176165 131.5620797870215,259.93712219555164 132.26993632642552,261.3336711471202 134.00740237813443,264.33624443912413 134.71525891753845,265.66295984660974 134.84396010637283,266.43105739331804 135.3587648626417,266.9198464176734 136.19532259111293,268.246558215993 136.90317913074978,268.875" stroke="#4dd2ff" stroke-linecap="round" stroke-linejoin="round" stroke-width="0.5"><title>2023-09-14 1.0km</title><desc>9844236351</desc></polyline><polyline fill="none" points="153.03165259608068,248.625 153.40210985112935,248.9264932339429 153.5410313217435,249.22798633488128 153.6336456357967,249.88122093037236 153.911488577025,250.43395740829874 154.09671720466577,251.99166689504636 154.09671720466577,252.74539601715514 154.0041028908454,253.14738454233157 154.09671720466577,253.64986986643635 154.3282529891003,254.2528517676401 154.23563867527992,254.7553362788749 154.2819458320737,255.00657839589985 154.74501740117557,255.8608009031159 155.16178181325085,257.1170085329795 155.53223906829953,257.8204837971134 155.9953106371686,258.47371017967816 156.5046893628314,258.92594346334226 156.6436108336784,259.22743215295486 156.78253230429254,259.88065719080623 157.15298955957405,260.53388160432223 157.5697539714165,261.73983272747137 158.12543985410593,262.7950382147101 158.40328279556707,263.69949876429746 158.54220426618122,264.45321497449186 158.82004720764235,265.05618734436575 159.32942593330517,266.7143586183083 160.0240332868416,268.02079375850735 160.0703404438682,268.2217835584306 160.0240332868416,268.37252586957766 159.46834740391932,268.875 159.74619034538046,268.674010392162 159.8851118159946,268.37252586957766 159.97772612981498,268.12128866591956 159.9314189730212,267.76955642551184 159.6535760317929,267.4178240040201 158.82004720764235,265.60891154926503 158.40328279556707,264.25222406635294 157.52344681462273,262.29255961440504 157.10668240254745,260.38313756434945 156.87514661811292,259.83040913322475 155.9953106371686,258.67470278718974 155.11547465622425,257.01651200756896 154.69871024414897,255.6598074681242 154.55978877376765,254.7553362788749 154.1893315182533,253.8006153916358 153.44841700815596,252.19266140891705 153.2631883805152,251.43893167714123 152.6148881840054,250.23296237713657 152.47596671339124,249.57972811779473 152.42965955636464,248.77574663364794" stroke="#4dd2ff" stroke-linecap="round" stroke-linejoin="round" stroke-width="0.5"><title>2023-09-13 1.0km</title><desc>9837636972</desc></polyline></svg>