<?xml version="1.0" encoding="utf-8" ?>
<svg baseProfile="full" height="300mm" version="1.1" viewBox="0,0,200,300" width="200mm" xmlns="http://www.w3.org/2000/svg" xmlns:ev="http://www.w3.org/2001/xml-events" xmlns:xlink="http://www.w3.org/1999/xlink"><defs /><rect fill="#222222" height="300" width="200" x="0" y="0" /><text fill="#FFFFFF" style="font-size:12px; font-family:Arial; font-weight:bold;" x="10" y="20">Over 1km Runs</text><text fill="#FFFFFF" style="font-size:4px; font-family:Arial" x="10" y="280">ATHLETE</text><text fill="#FFFFFF" style="font-size:9px; font-family:Arial" x="10" y="290">Jiakai</text><text fill="#FFFFFF" style="font-size:4px; font-family:Arial" x="120" y="280">STATISTICS</text><text fill="#FFFFFF" style="font-size:3px; font-family:Arial" x="120" y="285">Number: 82</text><text fill="#FFFFFF" style="font-size:3px; font-family:Arial" x="120" y="290">Weekly: 5.9</text><text fill="#FFFFFF" style="font-size:3px; font-family:Arial" x="141" y="285">Total: 84.6 km</text><text fill="#FFFFFF" style="font-size:3px; font-family:Arial" x="141" y="290">Avg: 1.0 km</text><text fill="#FFFFFF" style="font-size:3px; font-family:Arial" x="167" y="285">Min: 1.0 km</text><text fill="#FFFFFF" style="font-size:3px; font-family:Arial" x="167" y="290">Max: 1.5 km</text><polyline fill="none" points="18.545752479694784,33.875181376584806 19.896231582388282,39.44371428003069 21.24671068461612,42.37451482261531 23.947668889537454,49.994576065801084 24.487860530614853,50.727272727293894 24.757956351153553,50.727272727293894 24.893004261422902,50.14111541956663 24.352812620345503,49.261879135505296 22.192046056501567,45.59839044196997 19.085944120772183,39.2971741395304 18.680800389964134,37.39215133571997 17.195273377001286,34.16826244338881 16.925177556928247,31.09090909094084" stroke="#4dd2ff" stroke-linecap="round" stroke-linejoin="round" stroke-width="0.5"><title>2023-12-12 1.0km</title><desc>10365882163</desc></polyline><polyline fill="none" points="39.68330478295684,31.09090909094084 41.085140648297966,34.1331760318717 42.996735010296106,38.97313602420036 44.39857087517157,41.60053766157944 46.437604861333966,47.96160011109896 46.69248410966247,49.62100416899193 47.20224260631949,50.727272727293894 47.32968223001808,49.759287774097174 47.074802982155234,48.65301864652429 44.39857087517157,42.568526813411154 42.48697651317343,38.83485162584111 41.97721801744774,37.31372257263865 41.59489914495498,34.1331760318717 40.57538215210661,31.229194058920257" stroke="#4dd2ff" stroke-linecap="round" stroke-linejoin="round" stroke-width="0.5"><title>2023-12-11 1.0km</title><desc>10361067591</desc></polyline><polyline fill="none" points="66.49729662528262,42.047455398133025 69.11996676540002,50.01581375533715 69.25110027194023,50.442689169663936 69.77563430042937,50.727272727293894 69.90676780696958,50.58498095383402 69.51336728641763,49.588938245899044 68.3331657233648,47.312267275177874 67.0218306533061,43.75496352184564 63.35009245760739,36.35575077205431 62.301024401560426,31.09090909094084" stroke="#4dd2ff" stroke-linecap="round" stroke-linejoin="round" stroke-width="0.5"><title>2023-12-10 1.0km</title><desc>10355395415</desc></polyline><polyline fill="none" points="85.24168772948906,32.39038039778825 87.50374105758965,36.00001840631012 88.56823674123734,40.47596032265574 90.83029006933793,46.82889262505341 91.62866183230653,50.29411976446863 92.16090967459604,50.727272727293894 92.29397163493559,50.58288841682952 92.29397163493559,50.29411976446863 92.02784771379083,49.139044730807655 89.2335465438664,43.50804421224166 88.56823674123734,41.91981037775986 88.16905085975304,39.46526465250645 87.50374105758965,37.58825702825561 86.43924537394196,35.71124760969542 86.30618341313675,33.689850845141336 85.10862576821819,31.09090909094084" stroke="#4dd2ff" stroke-linecap="round" stroke-linejoin="round" stroke-width="0.5"><title>2023-12-09 1.0km</title><desc>10350143310</desc></polyline><polyline fill="none" points="109.2054580738768,34.90096492273733 110.01574577391148,37.831772144301794 111.77136912336573,42.08143496210687 114.20223222253844,49.115339716663584 115.28261582227424,50.727272727293894 115.14756787242368,49.261879135505296 114.33728017285466,46.77070755674504 112.17651297338307,42.960674413945526 110.82603347348049,39.73679452808574 109.34050602419302,37.392151336185634 108.93536217417568,35.047505385940894 107.31478677457199,31.09090909094084" stroke="#4dd2ff" stroke-linecap="round" stroke-linejoin="round" stroke-width="0.5"><title>2023-12-08 1.0km</title><desc>10345303898</desc></polyline><polyline fill="none" points="130.73239329643548,31.09090909094084 130.9854901446961,31.777498715091497 131.49168384075165,33.5626305565238 131.74478068901226,36.034348750836216 132.2509743841365,38.09411141392775 134.02265232009813,42.488264170940965 135.16158813564107,46.47045617783442 136.30052395164967,48.94215729087591 136.55362079991028,50.727272727293894 136.8067176481709,50.589956215932034 137.05981449596584,50.31532316247467 137.05981449596584,49.90337350696791 136.4270723760128,48.25557397666853 134.40229759225622,44.82265361829195 131.99787753634155,37.81947652378585 131.36513541685417,34.93580773472786" stroke="#4dd2ff" stroke-linecap="round" stroke-linejoin="round" stroke-width="0.5"><title>2023-12-07 1.0km</title><desc>10340288256</desc></polyline><polyline fill="none" points="152.84818301070482,31.090909090824425 153.6293237572536,32.92741203762125 155.06141512515023,39.00198620336596 157.14445711579174,42.81624388799537 158.8369287326932,47.47810410952661 159.61806947924197,50.444736543809995 160.00863985251635,50.727272727293894 160.13882997632027,49.73839590372518 159.87844972778112,48.466982096550055 157.7954077371396,44.08766143361572 156.36331636924297,41.96863172343001 155.5821756226942,40.41467511735391 152.97837313544005,31.51471761893481" stroke="#4dd2ff" stroke-linecap="round" stroke-linejoin="round" stroke-width="0.5"><title>2023-12-06 1.0km</title><desc>10334845031</desc></polyline><polyline fill="none" points="177.2812666282989,34.47650396253448 178.15488712769002,38.94547966471873 179.02850762708113,42.19563700177241 181.1501574111171,47.74797585303895 182.27338376734406,50.32100525544956 182.64779255259782,50.727272727293894 182.1485808393918,48.28966655221302 180.9005515538156,45.98747998056933 179.7773251980543,42.737329334020615 178.15488712769002,39.35174964554608 177.40606955671683,36.77870492055081 176.15804027207196,34.070232906611636 175.53402562905103,31.09090909094084" stroke="#4dd2ff" stroke-linecap="round" stroke-linejoin="round" stroke-width="0.5"><title>2023-12-05 1.0km</title><desc>10329306344</desc></polyline><polyline fill="none" points="17.3024608255364,54.55690558278002 18.188299793284386,55.93008336704224 19.327235609292984,59.91229323204607 21.605107240844518,65.54229958960786 22.744043056853116,69.38717222749256 23.756430448498577,71.58423875342123 24.51572099281475,72.54545454541221 24.51572099281475,71.85887188697234 21.225461969152093,64.30644598905928 19.95997772971168,60.04961066250689 18.567945065442473,56.891307215439156 17.55555767333135,52.90909090905916" stroke="#4dd2ff" stroke-linecap="round" stroke-linejoin="round" stroke-width="0.5"><title>2023-12-04 1.0km</title><desc>10324662812</desc></polyline><polyline fill="none" points="40.09601260209456,54.721686183824204 41.48804562492296,60.00841326825321 43.71529845939949,64.99302920256741 45.246534783858806,70.2797298579244 46.36016120156273,72.39440631074831 47.19538101460785,72.54545454541221 47.19538101460785,71.9412615399342 46.22095789946616,70.2797298579244 44.968128179665655,66.65456516004633 43.57609515776858,64.53988279914483 42.601672042161226,61.97205129195936 40.931232415605336,55.930082145147026 39.81760599836707,52.90909090905916" stroke="#4dd2ff" stroke-linecap="round" stroke-linejoin="round" stroke-width="0.5"><title>2023-12-02 1.0km</title><desc>10313350310</desc></polyline><polyline fill="none" points="62.53944843495265,53.95041800767649 63.91038984572515,55.735548930591904 65.55551953893155,61.38845312898047 66.65227266773582,66.0000211733859 68.434496502392,71.05785791110247 69.5312496307306,72.54545454541221 69.66834377218038,71.65289669588674 69.39415548974648,69.86777981568594 67.8861199375242,66.59506144560874 65.55551953893155,62.87605687219184 64.18457812815905,60.049608825240284 62.81363671692088,52.90909090905916" stroke="#4dd2ff" stroke-linecap="round" stroke-linejoin="round" stroke-width="0.5"><title>2023-12-01 1.0km</title><desc>10308709030</desc></polyline><polyline fill="none" points="85.08201231155545,52.90909090905916 87.79647710453719,62.236385236727074 90.51094189565629,67.80001587385777 92.01897789165378,71.89091188192833 92.47138869017363,72.54545454541221 92.62219229061157,72.05454756587278 92.01897789165378,70.41819018532988 89.7569238981232,67.30910784786101 89.15370950009674,65.67274697858375 86.89165550656617,61.254566622083075 85.83603031001985,56.18183021212462 84.78040511254221,53.23636505601462" stroke="#4dd2ff" stroke-linecap="round" stroke-linejoin="round" stroke-width="0.5"><title>2023-11-30 1.0km</title><desc>10303537703</desc></polyline><polyline fill="none" points="109.05224957689643,57.10722762369551 109.92586969165131,59.95112125261221 110.30027831206098,62.25331764097791 111.67310991929844,64.96178029652219 113.17074440093711,69.02446681284346 114.66837888164446,72.27460957446601 114.91798462858424,72.54545454541221 115.16759037505835,72.27460957446601 114.91798462858424,71.32665186130907 113.91956164082512,69.56615767115727 112.54673003358766,65.77431831671856 110.5498840585351,61.71162463212386 109.80106681771576,57.378074825159274 108.30343233654276,55.07587234349921 107.42981222271919,52.909090908942744" stroke="#4dd2ff" stroke-linecap="round" stroke-linejoin="round" stroke-width="0.5"><title>2023-11-29 1.0km</title><desc>10298007687</desc></polyline><polyline fill="none" points="130.51116215530783,55.45194067573175 131.94325289176777,59.12493995379191 132.20363302528858,61.80905037058983 134.02629396272823,66.18838037038222 135.06781449867412,70.14389566204045 135.97914496762678,71.98038213711698 136.89047543611377,72.54545454541221 137.28104563709348,72.54545454541221 137.54142577154562,72.12165025481954 137.41123570408672,71.5565777218435 136.89047543611377,70.56770038895775 134.80743436468765,65.05823164840695 132.7243932937272,60.255092165316455 132.33382309274748,57.99478707765229 131.42249262332916,55.31067133275792 130.2507820208557,52.90909090905916" stroke="#4dd2ff" stroke-linecap="round" stroke-linejoin="round" stroke-width="0.5"><title>2023-11-28 1.0km</title><desc>10292316108</desc></polyline><polyline fill="none" points="156.03245017351583,52.90909090905916 157.18509097304195,56.035915577202104 157.87667545257136,59.03766185173299 158.79878809209913,60.413460457581095 159.83616481162608,62.414620079798624 160.87354153115302,65.66649944579694 161.7956541706808,67.16736474877689 161.7956541706808,67.91779690387193 161.21933377115056,68.41808482341003 159.37510849209502,69.41866022115573 158.2224676925689,70.41923503007274 157.06982689304277,71.04459398693871 155.34086569398642,71.79502443177626 152.5745277754031,72.54545454541221 152.1134714554064,72.4203828831669 151.76767921587452,72.04516783996951 151.19135881587863,69.66880397847854" stroke="#4dd2ff" stroke-linecap="round" stroke-linejoin="round" stroke-width="0.5"><title>2023-11-27 1.0km</title><desc>10287544518</desc></polyline><polyline fill="none" points="177.19268259219825,57.165942509658635 177.82542475825176,58.67643590667285 179.3440059577115,66.36620153533295 180.98913559038192,70.34838915034197 181.87497462378815,71.85887188708875 182.50771678984165,72.54545454541221 182.634265223518,72.40813803393394 182.25461992342025,71.72155532496981 182.25461992342025,70.62302246619947 181.24223245680332,68.28863799571991 180.10329655790702,64.44376309635118 178.96436065807939,62.10937090299558 178.20507005834952,57.71521297714207 176.05374669237062,54.28226990473922 175.5475529585965,52.90909090905916" stroke="#4dd2ff" stroke-linecap="round" stroke-linejoin="round" stroke-width="0.5"><title>2023-11-26 1.0km</title><desc>10281488289</desc></polyline><polyline fill="none" points="17.33358568418771,74.7272727272939 18.792975571006536,78.52787320804782 20.106426470912993,83.91204574378207 21.419877369888127,86.92084218084347 21.711755347438157,88.82113250205293 22.44145029131323,90.56306382396724 24.046779167838395,93.57185097108595 24.77647411171347,94.36363636364695 25.068352088332176,94.36363636364695 22.879267257638276,89.61291964096017 22.587389280088246,88.02934507199097 21.127999392338097,85.97069639177062 18.2092196168378,78.05279851530213 16.74982972908765,75.36070660676342" stroke="#4dd2ff" stroke-linecap="round" stroke-linejoin="round" stroke-width="0.5"><title>2023-11-25 1.0km</title><desc>10275889695</desc></polyline><polyline fill="none" points="39.70116721279919,74.91079086018726 40.71592088975012,79.49873978062533 45.45143805537373,92.3449518987909 46.63531734701246,94.18011966184713 47.142694185487926,94.36363636353053 47.311819799244404,93.81308621680364 45.62056366819888,91.61088441568427 43.591056312434375,85.55481944442727 42.23805140797049,82.80205778218806 41.39242334291339,77.4800432943739 40.37766966409981,74.7272727272939" stroke="#4dd2ff" stroke-linecap="round" stroke-linejoin="round" stroke-width="0.5"><title>2023-11-24 1.0km</title><desc>10271180196</desc></polyline><polyline fill="none" points="63.66231545154005,76.90909989213105 64.09318262571469,78.15585726324935 65.09853936405852,83.4545679113362 67.54012001678348,90.9350780423265 68.68909914745018,94.05194947286509 69.11996632069349,94.36363636364695 69.69445588579401,94.36363636364695 69.83807827765122,94.05194947286509 69.55083349486813,92.49351433035918 67.97098719049245,87.97404593857937 63.8059378429316,78.93508024816401 62.369713929947466,74.7272727272939" stroke="#4dd2ff" stroke-linecap="round" stroke-linejoin="round" stroke-width="0.5"><title>2023-11-23 1.0km</title><desc>10265414399</desc></polyline><polyline fill="none" points="86.9808646608144,79.15238665114157 87.10830421978608,81.08837071899325 87.61806245381013,84.13062737148721 89.65709539037198,89.93855822598562 90.29429318290204,92.70423328236211 91.31380965095013,94.36363636364695 92.0784470019862,94.36363636364695 91.95100744394585,93.533935005893 90.5491722994484,89.93855822598562 89.4022162728943,88.14086725900415 87.74550201185048,83.02435279462952 85.83390863379464,77.76953966822475 85.32415040023625,74.7272727272939" stroke="#4dd2ff" stroke-linecap="round" stroke-linejoin="round" stroke-width="0.5"><title>2023-11-21 1.0km</title><desc>10253878272</desc></polyline><polyline fill="none" points="109.185250247363,80.03054371476173 109.84570370055735,84.33048257348128 112.61960820574313,91.35369564825669 113.80842442251742,93.93364511744585 114.2046964946203,94.36363636364695 114.46887787664309,94.22030595887918 114.60096856718883,93.93364511744585 114.07260580407456,91.64035686873831 111.69497337099165,86.48044844705146 110.77033853624016,83.75715794030111 109.31734093790874,78.16723393043503 108.52479679323733,76.73391750000883 107.99643403058872,74.7272727272939" stroke="#4dd2ff" stroke-linecap="round" stroke-linejoin="round" stroke-width="0.5"><title>2023-11-20 1.0km</title><desc>10248671423</desc></polyline><polyline fill="none" points="130.40020252671093,76.36364364193287 132.31952092517167,80.52894545334857 132.8678976111114,84.84299900464248 134.37593349581584,88.26448321191128 135.88396938005462,92.57852027076297 136.56944023724645,93.61983818281442 137.39200526522473,94.36363636364695 137.25491109397262,93.17355914332438 134.9243101812899,87.07440240448341 133.41627429705113,81.57026956626214 131.90823841188103,78.0000132333953 131.08567338390276,74.72727272717748" stroke="#4dd2ff" stroke-linecap="round" stroke-linejoin="round" stroke-width="0.5"><title>2023-11-19 1.0km</title><desc>10242265034</desc></polyline><polyline fill="none" points="152.67711967090145,92.2231944600353 153.53473468730226,89.52437124738935 153.87778069404885,88.87293029925786 154.4781112051569,88.50067817850504 157.39400226064026,88.12842594808899 159.5380398016423,87.66311050613876 160.22413181466982,87.10473174985964 160.6529393233359,86.54635274747852 161.1675083329901,84.21977091825102 160.99598532961681,83.47526382945944 161.3390313363634,82.91688322566915 161.08174683107063,78.63595707633067 160.910223828163,78.07757433725055 160.82446232624352,76.40242464095354 160.6529393233359,75.3787209574366 159.70956280548126,75.09952889988199 158.93770929053426,75.65791295305826 159.1092322934419,75.3787209574366 159.2807552968152,75.65791295305826 158.16585577558726,75.09952889988199 158.08009427413344,74.7272727272939 157.82280976884067,74.91340082720853 157.99433277267963,74.82033678086009 157.39400226064026,75.56484896142501 157.47976376255974,75.47178496280685 159.2807552968152,76.40242464095354 158.85194778908044,76.77468032063916 158.16585577558726,77.05387200857513 156.5363872447051,77.33306363481097 156.45062574278563,76.96080811927095 156.87943325098604,76.77468032063916 157.47976376255974,76.86774422344752 159.2807552968152,75.09952889988199 161.76783884409815,75.19259292585775 161.5105543397367,75.0064648669213 161.1675083329901,74.91340082720853 160.910223828163,79.38046701217536 160.99598532961681,80.68335834599566 161.25326983444393,82.2654388762312 161.42479283828288,84.96427756897174 161.42479283828288,85.89491026639007 161.1675083329901,86.82554227928631 160.6529393233359,87.38392115884926 156.36486424133182,87.84923670336138 154.39234970370308,88.22148901596665 153.36321168392897,88.96599331242032 152.16255066078156,90.64112637820654 151.47645864775404,93.06075911433436 151.21917414292693,94.36363636364695" stroke="#4dd2ff" stroke-linecap="round" stroke-linejoin="round" stroke-width="0.5"><title>2023-11-18 1.0km</title><desc>10236386505</desc></polyline><polyline fill="none" points="175.0838446682319,74.7272727272939 177.9275678070262,79.63638258411083 178.96164894802496,83.2831417293055 179.34942937642336,85.38703806500416 180.12499023228884,86.64937475277111 182.58093294268474,93.80260020738933 183.0979735138826,94.36363636364695 183.0979735138826,93.80260020738933 182.58093294268474,93.1013047802262 181.1590713732876,88.89352680242155 180.3835105174221,87.4909320807783 180.12499023228884,85.10651868779678 178.96164894802496,82.16106273443438 177.66904752142727,79.3558623616118 177.53978737909347,77.8130003977567" stroke="#4dd2ff" stroke-linecap="round" stroke-linejoin="round" stroke-width="0.5"><title>2023-11-17 1.0km</title><desc>10231268371</desc></polyline><polyline fill="none" points="17.406555951572955,97.17888842499815 19.30376238655299,99.87098033330403 19.741579256020486,103.513216971769 21.055029866285622,106.3636587401852 23.098175258375704,113.96481834887527 24.411625867709517,116.18181818176527 24.26568691059947,114.91496141382959 23.24411421455443,112.85631757660303 22.51441943179816,110.7976717716083 21.34690777864307,105.88858537387569 19.01188447419554,100.97948778816499 18.28218969050795,98.76247230765875 17.84437282104045,96.54545454541221" stroke="#4dd2ff" stroke-linecap="round" stroke-linejoin="round" stroke-width="0.5"><title>2023-11-16 1.0km</title><desc>10225818993</desc></polyline><polyline fill="none" points="40.10125080961734,96.75659895432182 41.074177294038236,100.55719566298649 42.630859670229256,104.78007499617524 44.771297936327755,108.79180461168289 45.54963912349194,111.95895561296493 46.91173620149493,114.70381698920391 48.273833280429244,116.18181818188168 44.771297936327755,109.63637855346315 43.21461556106806,104.78007499617524 38.73915373161435,96.54545454564504" stroke="#4dd2ff" stroke-linecap="round" stroke-linejoin="round" stroke-width="0.5"><title>2023-11-15 1.0km</title><desc>10219684298</desc></polyline><polyline fill="none" points="62.63428111048415,98.9077340150252 64.40310444077477,101.12236849369947 64.6752311065793,103.92756866081618 66.71618110314012,108.79974911198951 67.94075110042468,112.93371113424655 69.1653210981749,116.03417706664186 69.70957443071529,116.18181818176527 69.57351109711453,114.41012408013921 67.80468776775524,112.04786284593865 67.12437110207975,109.98088198690675 66.03586443746462,108.65210745378863 65.62767443805933,107.0280484976247 63.58672444242984,102.89407431846485 62.90640777675435,99.94123040873092 62.498217777349055,96.54545454541221" stroke="#4dd2ff" stroke-linecap="round" stroke-linejoin="round" stroke-width="0.5"><title>2023-11-14 1.0km</title><desc>10213806154</desc></polyline><polyline fill="none" points="86.07862798357382,99.24902368383482 87.12769627105445,103.23322395212017 90.01263406081125,110.63243126217276 90.6683017401956,113.05139674723614 91.97963709989563,115.75494282960426 92.37303770752624,116.18181818176527 91.58623649179935,114.75889997556806 89.75036698859185,110.34784688882064 89.61923345318064,109.2095089762006 88.30789809394628,106.07907626521774 86.34089505532756,102.52176022005733 85.55409384006634,100.10278157447465 85.02955969562754,96.5454545452958" stroke="#4dd2ff" stroke-linecap="round" stroke-linejoin="round" stroke-width="0.5"><title>2023-11-13 1.0km</title><desc>10208522228</desc></polyline><polyline fill="none" points="109.10519471857697,98.77686910098419 110.47613633098081,102.94216968759429 112.12126626633108,106.36366018361878 113.08092539478093,110.38018512283452 114.04058452369645,113.20662381884176 115.27443197509274,115.88429894228466 115.82280861958861,116.18181818176527 116.0969969430007,115.58677965903189 114.58896116865799,112.6115844217129 113.76639620168135,109.33886460785288 110.75032465346158,106.51242050866131 109.10519471857697,104.13225399446674 108.83100639563054,101.60332400549669 106.50040565431118,96.5454545452958" stroke="#4dd2ff" stroke-linecap="round" stroke-linejoin="round" stroke-width="0.5"><title>2023-11-12 1.0km</title><desc>10202270880</desc></polyline><polyline fill="none" points="130.9250487787649,100.20896990329493 134.1661998159252,107.53598041681107 135.24658349482343,111.19947557384148 136.32696717465296,114.13026685162913 137.00220697373152,115.44912152085453 137.67744677281007,116.18181818176527 137.81249473290518,115.59566087462008 136.59706309391186,111.93217379716225 134.30124777602032,108.41521986864973 131.87038449803367,102.84669679077342 130.9250487787649,98.89010515005793 129.97971305903047,96.54545454541221" stroke="#4dd2ff" stroke-linecap="round" stroke-linejoin="round" stroke-width="0.5"><title>2023-11-11 1.0km</title><desc>10196068378</desc></polyline><polyline fill="none" points="154.6679882965982,99.47369465162046 156.8903582757339,106.191408125218 158.95398754253983,111.70336376945488 159.90643181931227,115.32057761377655 160.5413946704939,116.18181818188168 160.8588760960847,115.83732199249789 160.38265395723283,113.77034379262477 158.0015432657674,108.43064166931435 155.62043257337064,103.43542544078082 152.4456183174625,98.44019856210798 152.12813689094037,96.54545454564504" stroke="#4dd2ff" stroke-linecap="round" stroke-linejoin="round" stroke-width="0.5"><title>2023-11-10 1.0km</title><desc>10191120477</desc></polyline><polyline fill="none" points="174.5322681069374,97.14504096680321 176.8806589175947,98.94379917392507 178.2620652760379,101.34214098099619 178.676487183664,102.24151843134314 178.676487183664,103.5905838633189 180.19603417813778,108.23735796206165 180.74859672179446,110.93547999858856 181.85372180864215,113.93338918453082 182.13000308023766,115.43234212475363 182.82070625992492,116.18181818176527 183.23512816708535,116.03192299243528 183.64955007471144,115.43234212475363 182.13000308023766,114.38307518244255 179.64347163494676,110.78558442334179 176.74251828156412,102.84110317809973 176.05181510187685,98.34421328105964 175.3611119221896,96.54545454541221" stroke="#4dd2ff" stroke-linecap="round" stroke-linejoin="round" stroke-width="0.5"><title>2023-11-09 1.0km</title><desc>10185506531</desc></polyline><polyline fill="none" points="17.07846397627145,119.94028600212187 18.53146039880812,122.80691844120156 19.059822733979672,124.24023308022879 20.777000325266272,127.96684621018358 21.437453244347125,130.54680497315712 21.305362660903484,128.97016391239595 21.56954382872209,129.9734810985392 22.09790616389364,133.8434139797464 23.286721419077367,137.42667831736617 23.81508375518024,138.0 24.475536674261093,137.713339179405 24.739717841614038,137.2833478701068 23.286721419077367,135.99337337259203 22.229996747802943,134.2734060480725 21.56954382872209,132.4101064010756 20.644909740891308,129.25682601856533 19.32400390226394,127.393521576887 17.871007479261607,124.24023308022879 17.474735727533698,121.9469291518908 17.60682631097734,119.08029544830788 17.342645143624395,118.36363636364695" stroke="#4dd2ff" stroke-linecap="round" stroke-linejoin="round" stroke-width="0.5"><title>2023-11-08 1.0km</title><desc>10179505859</desc></polyline><polyline fill="none" points="42.62065434316173,129.21172291447874 47.04985015979037,138.0 47.30294706346467,137.86268348875456 46.67020480427891,136.3522011960158 45.53126873681322,134.42976742074825 44.77197802532464,132.5073316671187 43.25339660234749,130.85952801757958 42.747202795464545,129.89830855070613 42.36755743948743,126.60269519442227 42.11446053581312,125.64147353696171 40.59587911283597,123.03244082990568 39.71003994951025,118.36363636364695" stroke="#4dd2ff" stroke-linecap="round" stroke-linejoin="round" stroke-width="0.5"><title>2023-11-06 1.0km</title><desc>10167691585</desc></polyline><polyline fill="none" points="64.21613929979503,123.87313993833959 65.12747017107904,125.56836862966884 68.51241340488195,133.3381476609502 69.94450477370992,137.7174638165161 70.20488502224907,138.0 70.46526527078822,138.0 70.46526527078822,137.5761957091745 69.4237442757003,135.31590458017308 68.51241340488195,134.04448965168558 68.38222328061238,133.3381476609502 67.60108253406361,132.4905369298067 65.38785041961819,128.6762840122683 62.784047931898385,122.03664050193038 61.742526936810464,118.36363636353053" stroke="#4dd2ff" stroke-linecap="round" stroke-linejoin="round" stroke-width="0.5"><title>2023-11-05 1.1km</title><desc>10161301187</desc></polyline><polyline fill="none" points="85.02956050587818,118.36363636364695 87.65223064506426,124.19764926051721 88.8324322081171,129.32018267083913 90.66830130619928,132.87748956226278 91.32396884122863,135.72333036828786 91.97963637579232,138.0 92.37303689680994,137.5731246479554 92.24190338980407,137.14624920184724 90.53716779919341,134.01582638698164 90.40603429172188,133.5889501561178 88.8324322081171,131.16998307046015 88.17676467308775,128.893305404461 86.47202908247709,125.76286924083252 86.07862856145948,123.0593066617148 85.29182751942426,120.213447235059" stroke="#4dd2ff" stroke-linecap="round" stroke-linejoin="round" stroke-width="0.5"><title>2023-11-04 1.0km</title><desc>10155501797</desc></polyline><polyline fill="none" points="116.56698058033362,121.34638984163757 115.07811904419214,119.35788810811937 114.16189656080678,118.73648083629087 112.32945159310475,118.36363636353053 110.61153443623334,118.48791786388028 108.20645041577518,119.60645095270593 107.1757001215592,120.60070196597371 106.25947763817385,122.46492103859782 106.03042201744393,123.95629481622018 105.68683858588338,128.92753123503644 105.9158942066133,134.14731373498216 106.14494982780889,134.8929956331849 107.29022793238983,136.75719893875066 108.66456165816635,137.7514398607891 110.95511786779389,138.0 113.01661845576018,137.13003935315646 114.96359123429283,134.7687153397128 115.5362302865833,133.65019228681922 116.3379249596037,130.0460574136814 116.3379249596037,127.18760015175212 116.91056401189417,123.4591703696642 116.7960362015292,122.09207738854457 115.5362302865833,120.60070196597371 114.50547999190167,119.85501376073807 112.10039597190917,118.73648083629087 110.84059005696326,118.73648083629087 108.09192260587588,119.60645095270593 106.83211669046432,120.72498330136295 106.03042201744393,122.21635861427058 105.80136639624834,123.21060809190385 106.03042201744393,127.31188100308646 105.80136639624834,129.17609267192893" stroke="#4dd2ff" stroke-linecap="round" stroke-linejoin="round" stroke-width="0.5"><title>2023-11-03 1.0km</title><desc>10152446508</desc></polyline><polyline fill="none" points="129.8320746878162,118.36363636364695 130.9055918371305,120.69338332873303 131.82574939355254,124.85363980184775 133.35934532247484,127.84901972825173 135.6597392130643,133.83976768853609 136.11981799080968,134.83822414081078 136.88661595527083,137.50077252613846 137.34669473394752,138.0 137.9601331045851,138.0 137.9601331045851,137.6671816961607 136.88661595527083,137.16795414919034 136.42653717659414,136.00308944482822 135.35302002727985,135.00463350652717 134.58622206375003,132.8413107964443 133.51270491443574,131.17721499723848 132.28582817222923,128.68106900400016 130.9055918371305,123.52235856244806 129.98543428070843,121.35902487824205" stroke="#4dd2ff" stroke-linecap="round" stroke-linejoin="round" stroke-width="0.5"><title>2023-11-02 1.1km</title><desc>10144903556</desc></polyline><polyline fill="none" points="153.149601819925,119.78656795970164 153.41186885302886,121.35179150744807 154.46093698590994,123.77077086397912 156.29680621856824,130.31622925924603 159.44401061814278,136.86166551872157 160.36194523377344,138.0 159.8374111680314,136.29249802720733 157.87040841858834,133.30436594970524 156.82134028570727,129.46247507166117 155.51000511925668,127.612673040363 153.93640291923657,124.19764926028438 152.62506775325164,118.36363636364695" stroke="#4dd2ff" stroke-linecap="round" stroke-linejoin="round" stroke-width="0.5"><title>2023-11-01 1.0km</title><desc>10138966680</desc></polyline><polyline fill="none" points="176.23357951594517,118.65892144944519 176.91389608150348,120.87355820776429 178.00240258639678,126.77924429008272 179.77122565591708,130.61793093034066 180.85973216034472,134.16132747021038 182.62855523079634,138.0 182.764618543908,137.85235888429452 181.54004872590303,136.0806646522833 179.77122565591708,131.94670536520425 178.2745292126201,129.2891556158429 175.68932626442984,121.46412759739906 175.41719963774085,118.36363636364695" stroke="#4dd2ff" stroke-linecap="round" stroke-linejoin="round" stroke-width="0.5"><title>2023-10-31 1.0km</title><desc>10133123337</desc></polyline><polyline fill="none" points="17.825997249223292,142.50910108932294 18.496235001366585,146.00002031796612 18.496235001366585,147.3091134405695 19.970758056268096,149.78184253093787 23.992184569127858,158.363643047167 24.66242232127115,159.67272798891645 24.930517422035336,159.81818181823473 21.847423762083054,153.70911179331597 20.506948258262128,149.92729708726984 19.032425202894956,146.87274916260503 16.887664396315813,140.18181818176527" stroke="#4dd2ff" stroke-linecap="round" stroke-linejoin="round" stroke-width="0.5"><title>2023-10-30 1.0km</title><desc>10127985445</desc></polyline><polyline fill="none" points="40.411053475458175,143.023937026388 41.00633040443063,147.02873305091634 41.363496562000364,148.32060078915674 43.744604277890176,153.87562124116812 44.93515813583508,157.1052762218751 46.7209889232181,159.5598100371426 47.197210466489196,159.81818181823473 47.31626585172489,159.43062413216103 46.24476737994701,157.7512065054616 44.697047364432365,154.3923664370086 41.958773490507156,149.3540942959953 40.88727501826361,145.60767744190525 40.05388731788844,143.92824660427868 39.93483193218708,141.34450371935964 39.696721160784364,140.18181818188168" stroke="#4dd2ff" stroke-linecap="round" stroke-linejoin="round" stroke-width="0.5"><title>2023-10-28 1.0km</title><desc>10115543824</desc></polyline><polyline fill="none" points="63.556992270983756,144.25456147361547 64.629372832831,147.7454776223749 65.83580096345395,150.50911520502996 66.90818152483553,154.43638302374166 68.5167523669079,158.2181891114451 69.18699021730572,159.67272798961494 69.85722806770355,159.81818181823473 69.9912756383419,159.67272798961494 69.72318049753085,158.8000047908863 68.91889507696033,156.61819511046633 66.2379436744377,151.3818420608295 64.09318255167454,145.56365575140808 62.75270685041323,142.6545561804669 62.216516569722444,140.18181818188168" stroke="#4dd2ff" stroke-linecap="round" stroke-linejoin="round" stroke-width="0.5"><title>2023-10-27 1.0km</title><desc>10110442644</desc></polyline><polyline fill="none" points="86.04005890479311,143.21391656110063 88.56823671190068,151.7326440984616 89.49967064056545,154.3315705669811 90.43110456969589,155.91980171622708 91.49560048803687,158.9518757974729 91.89478645799682,159.52941318729427 92.69315839698538,159.81818181823473 92.82622038619593,159.38502885575872 92.69315839698538,158.80749142356217 91.362538497895,157.07487810892053 89.36660865088925,153.60964689298999 86.97149283438921,146.53478084306698 85.37474895594642,143.9358440565411 84.57637701695785,140.18181818188168" stroke="#4dd2ff" stroke-linecap="round" stroke-linejoin="round" stroke-width="0.5"><title>2023-10-26 1.0km</title><desc>10104873905</desc></polyline><polyline fill="none" points="110.3152001411654,149.57314738538116 113.33127035852522,157.11463633237872 114.77373872278258,159.67589004477486 115.29827267304063,159.81818181823473 115.1671391860582,158.39526361203752 111.62653501750901,152.27670340589248 109.65953270206228,147.29646570247132 107.9547973619774,143.7391452115262 107.2991299238056,140.18181818188168" stroke="#4dd2ff" stroke-linecap="round" stroke-linejoin="round" stroke-width="0.5"><title>2023-10-25 1.0km</title><desc>10098978222</desc></polyline><polyline fill="none" points="130.26360963378102,140.18181818188168 130.1315189334564,141.18514082662296 130.92406313633546,144.48176873766351 131.98078873986378,146.63174045912456 132.64124224195257,149.21170339512173 133.8300585458055,152.6516486654291 136.33978185383603,157.52489407581743 137.1323260567151,159.531520997989 137.39650745783,159.81818181823473 137.66068885894492,159.67485141323414 137.52859815815464,157.81155519071035 136.07560045318678,155.08827289310284 135.01887485012412,153.51163403480314 133.69796784501523,150.5016835827846 133.43378644483164,148.92504101549275 131.8486980390735,146.48840908485 130.92406313633546,144.33843720518053 130.65988173522055,141.75846782024018 130.26360963378102,140.18181818188168" stroke="#4dd2ff" stroke-linecap="round" stroke-linejoin="round" stroke-width="0.5"><title>2023-10-24 1.0km</title><desc>10092835699</desc></polyline><polyline fill="none" points="154.47556045511737,143.57228378986474 156.42841146001592,150.49446583050303 157.33974192850292,152.18969028419815 158.3812624644488,156.4277448754292 159.943543267902,159.2531094099395 160.59449360333383,159.81818181823473 159.943543267902,159.11184128164314 159.032212799415,156.8515498203924 156.68879159353673,154.02618175453972 156.16803132602945,153.0373019502731 155.6472710580565,149.78812186676078 154.08499025413767,146.68020534166135 153.04346971865743,143.4310145090567 152.3925193841569,140.18181818188168" stroke="#4dd2ff" stroke-linecap="round" stroke-linejoin="round" stroke-width="0.5"><title>2023-10-23 1.0km</title><desc>10087395010</desc></polyline><polyline fill="none" points="172.73335819179192,140.27599882084178 173.08052820665762,140.18181818182347 175.5541145633906,140.37017944589024 176.63902085996233,140.65272123808973 176.89939837134443,140.79399208753603 177.46354964585043,141.21780444862088 177.85411591245793,141.68870674312348 178.72204094962217,143.28977195447078 179.15600346866995,145.07919304235838 179.72015474294312,146.02099160669604 179.9805322540924,146.77442946098745 180.58807978010736,148.1400333128986 181.02204229915515,149.55272388859885 181.67298607714474,150.68287410557969 181.9767598400358,151.0125008765608 182.36732610710897,151.67175390961347 182.5843073662836,153.08443669544067 182.71449612197466,153.46115157881286 183.06166613684036,153.9791341816308 183.1484586407896,154.77965192560805 183.27864739624783,155.10927658813307 185.18808247847483,159.62982627376914 185.44845998985693,159.81818181817653 185.44845998985693,159.5827373788925 185.0578937230166,159.20602609601337 184.62393120443448,158.17006892553763 184.1899686853867,157.27537729369942 183.01826988509856,153.6495089373784" stroke="#4dd2ff" stroke-linecap="round" stroke-linejoin="round" stroke-width="0.5"><title>2023-10-22 1.5km</title><desc>10080655811</desc></polyline><polyline fill="none" points="17.785880535840988,162.0 18.474824000382796,162.49839189951308 17.234725764021277,162.29903518367792 19.163767465157434,164.79098991729552 19.34748572250828,165.3890576902195 19.209697029553354,165.8874470977462 18.566683129174635,166.23631946515525 18.382964871823788,166.58519165281905 18.428894436219707,167.18325784249464 18.79633095068857,168.6285822892096 19.209697029553354,169.67519462003838 19.668992672581226,171.27002934983466 20.49572483031079,172.71534508280456 20.63351352326572,173.26356748573016 21.13873873068951,174.16065773402806 21.460245680995286,174.5593641300802 21.506175244925544,174.8085555084399 21.82768219546415,175.10758504166733 22.057330016978085,175.6059673037962 22.37883696728386,176.55289259238634 22.700343917356804,177.20078808034305 22.654414353193715,178.49657719855895 23.251498689176515,179.64285012311302 23.435216946527362,180.19106692366768 23.756723896600306,180.7891211095266 24.307878668420017,181.4868503261241 24.583456054329872,181.63636363635305 23.52707607508637,180.14122905104887 23.297428253572434,179.3438225905993 22.83813261031173,178.3470631959499 22.654414353193715,177.69916880351957 22.057330016978085,176.8519213561085 21.552104809554294,175.406614442938" stroke="#4dd2ff" stroke-linecap="round" stroke-linejoin="round" stroke-width="0.5"><title>2023-10-20 1.4km</title><desc>10069668027</desc></polyline><polyline fill="none" points="39.5552435957361,162.0 39.6487643038854,162.7611097744084 40.39692996721715,164.5877698076656 40.583971383282915,165.7040596701554 42.127063064370304,169.45883959176717 42.26734412624501,169.9662407169235 42.360864834394306,170.72734170535114 42.54790625022724,171.23474189796252 43.670154745457694,172.80768012418412 44.27803934714757,174.02543628879357 44.65212217904627,175.24319030460902 44.97944465698674,175.9028061660938 45.16648607281968,176.91759856807766 45.40028784284368,177.42499420949025 46.008172444300726,178.9979183272808 46.101693152217194,179.6067912169965 46.990139877889305,181.43340666306904 47.223941647680476,181.63636363635305 47.36422270955518,181.63636363635305 47.45774341747165,181.58562439854722 47.410983063746244,181.5348851570743 46.4757759841159,180.36788157362025 46.05493279849179,178.94717889558524 45.16648607281968,177.32351511099841 45.02620501094498,176.66390060738195 44.93268430279568,175.5476284729084" stroke="#4dd2ff" stroke-linecap="round" stroke-linejoin="round" stroke-width="0.5"><title>2023-10-19 1.3km</title><desc>10064004415</desc></polyline><polyline fill="none" points="61.67604654794559,162.0 63.60119852842763,164.50678116001654 63.47285506315529,166.3172321569873 63.72954199369997,168.12768142367713 64.62794625200331,171.33077973301988 65.91138090519235,173.41975397372153 67.1948155593127,177.040637200349 69.76168486755341,181.21857078454923 70.14671526383609,181.63636363635305 70.5317456596531,181.49709936243016 68.86328060925007,179.825927280006 65.78303743992001,173.8375485453289 65.01297664782032,171.1915147016989 62.831137735862285,166.5957629258046" stroke="#4dd2ff" stroke-linecap="round" stroke-linejoin="round" stroke-width="0.5"><title>2023-10-18 1.0km</title><desc>10058081424</desc></polyline><polyline fill="none" points="85.27394492179155,163.19008806895 86.37069813115522,169.58679944928735 89.24967530649155,177.17357045179233 91.16899342276156,181.1900847607758 91.99155833013356,181.63636363635305 92.40284078381956,181.63636363635305 92.67702908581123,181.04132511408534 91.71737002814189,179.85124754346907 90.48352266708389,177.91736999968998 88.83839285280555,174.34712967742234 88.15292209712788,172.26448658062145 85.27394492179155,166.46282665070612 84.99975661979988,165.57026210788172 84.72556831734255,162.0" stroke="#4dd2ff" stroke-linecap="round" stroke-linejoin="round" stroke-width="0.5"><title>2023-10-17 1.0km</title><desc>10051702317</desc></polyline><polyline fill="none" points="106.91379631217569,162.4531489686342 108.30582964140922,164.86994178034365 110.39387963432819,170.30771521176212 111.50750629790127,172.42240099271294 112.76033629383892,176.34966881130822 114.29157295590267,180.27692912344355 114.84838628768921,181.33426715573296 115.54440295184031,181.63636363635305 115.6836062851362,181.48531540168915 115.54440295184031,181.0321706305258 114.01316629024222,178.76644527656026 111.9251162968576,173.6307918902021 110.39387963432819,170.45876426808536 109.1410496388562,164.56784283404704 108.44503297377378,162.0" stroke="#4dd2ff" stroke-linecap="round" stroke-linejoin="round" stroke-width="0.5"><title>2023-10-16 1.0km</title><desc>10046279660</desc></polyline><polyline fill="none" points="129.87467427831143,162.0 130.44916422385722,163.2467586544808 131.02365416893736,166.05196294630878 132.3162565464154,170.41560668870807 134.03972638165578,173.06495743535925 136.05044119013473,180.54545931739267 136.76855362206697,181.32467674533837 137.77391102630645,181.63636363635305 137.91753351315856,181.32467674533837 137.77391102630645,180.3896157973213 135.90681870421395,177.74027420498896 134.90146129997447,174.62339750409592 133.75248140934855,172.75326928403229 131.02365416893736,166.36365208309144 130.01829676469788,162.0" stroke="#4dd2ff" stroke-linecap="round" stroke-linejoin="round" stroke-width="0.5"><title>2023-10-15 1.0km</title><desc>10039610121</desc></polyline><polyline fill="none" points="152.4072142066434,163.42522596602794 152.8450312372297,168.01761433121283 154.0125433197245,171.34313082846347 155.47193342167884,173.40178132476285 156.34756748378277,176.25221722596325 158.82853065710515,180.68622112995945 159.41228669788688,181.31964951416012 160.14198174979538,181.63636363635305 160.57979877945036,181.31964951416012 160.57979877945036,180.8445782433264 157.66101857461035,178.4692203187151 155.7638114420697,174.98535729118157 155.03411639109254,171.97656195994932 153.282848267816,168.01761433121283 152.4072142066434,164.6920927001629 152.55315321683884,162.63343387912028 152.4072142066434,162.0" stroke="#4dd2ff" stroke-linecap="round" stroke-linejoin="round" stroke-width="0.5"><title>2023-10-14 1.0km</title><desc>10033377496</desc></polyline><polyline fill="none" points="174.6386126689613,162.31168973259628 177.22381704347208,165.42858453607187 177.5110619738698,167.7662526309723 179.95264388248324,175.24677321105264 182.25060332613066,180.7013028258225 182.96871565189213,181.63636363635305 183.54320551315323,181.63636363635305 183.54320551315323,181.1688332828926 183.39958304725587,180.7013028258225 182.1069808602333,179.76624160283245 180.67075620871037,177.11689923144877 179.09090909082443,172.12989284435753 176.21845978684723,165.74027376412414 175.78759239101782,163.55844820383936 175.0694800647907,162.0" stroke="#4dd2ff" stroke-linecap="round" stroke-linejoin="round" stroke-width="0.5"><title>2023-10-13 1.0km</title><desc>10028006924</desc></polyline><polyline fill="none" points="16.69580058567226,183.81818181823473 18.077207249123603,185.6169405542314 18.906051246915013,187.11590495484415 19.044191913679242,189.06455702870153 18.906051246915013,191.16310333297588 20.425598576664925,194.31091873976402 22.221427239011973,199.10758049006108 24.017255901824683,202.40527889772784 24.431677900720388,203.00485985376872 25.12238123221323,203.4545454545878 25.12238123221323,202.70506939769257 23.602833902463317,200.756430360605 22.221427239011973,198.3581028355984 20.425598576664925,193.41154340514913 19.32047324627638,191.46289548603818 18.767910581082106,189.8140380998375" stroke="#4dd2ff" stroke-linecap="round" stroke-linejoin="round" stroke-width="0.5"><title>2023-10-12 1.0km</title><desc>10021974100</desc></polyline><polyline fill="none" points="41.21067734481767,186.60245410341304 41.750869383104146,189.53326283406932 41.61582137364894,190.70558511989657 42.83125345874578,194.66216774319764 43.77658952539787,196.42064638785087 44.72192559298128,199.6445198743604 46.07240568753332,202.8683881467441 46.34250170690939,203.16146682202816 47.01774175465107,203.4545454545878 46.882693744730204,202.8683881467441 45.3971656402573,199.05836144660134 43.77658952539787,196.2741065598093 41.61582137364894,191.29174600390252 41.0756293348968,189.38672249997035 40.805533316452056,186.60245410341304 39.99524525878951,183.81818181823473" stroke="#4dd2ff" stroke-linecap="round" stroke-linejoin="round" stroke-width="0.5"><title>2023-10-10 1.0km</title><desc>10009069592</desc></polyline><polyline fill="none" points="62.77734635863453,186.27273801004048 63.708780287299305,188.87167651590426 64.64021421642974,192.3369225076167 66.63614406390116,196.6684713989962 68.23288794141263,202.15508628054522 69.1643218700774,203.4545454545878 69.43044585036114,203.02139249211177 69.56350784003735,201.43316414533183 68.63207391090691,198.68985761201475 66.63614406390116,195.22462282993365 64.37409023707733,188.87167651590426 63.708780287299305,185.98396685230546 62.64428436849266,183.81818181823473" stroke="#4dd2ff" stroke-linecap="round" stroke-linejoin="round" stroke-width="0.5"><title>2023-10-09 1.0km</title><desc>10003389142</desc></polyline><polyline fill="none" points="84.70324934180826,183.81818181823473 85.68522637803108,185.03594622015953 86.66720341378823,187.31925254268572 87.22833314817399,191.88585763401352 89.33256965363398,196.4524526532041 91.15624129073694,201.62791483278852 91.99793589254841,203.15010712959338 92.69934806087986,203.4545454545878 92.69934806087986,202.23679188604 90.03398182149976,197.97464875481091 86.5269209803082,189.45033617177978 85.12409664317966,183.97040240792558" stroke="#4dd2ff" stroke-linecap="round" stroke-linejoin="round" stroke-width="0.5"><title>2023-10-08 1.0km</title><desc>9996447828</desc></polyline><polyline fill="none" points="108.77812759019434,187.74547071452253 109.42442854167894,190.12989217124414 111.3633313938044,195.31950504076667 112.00963234528899,197.5636575849494 114.07779538771138,202.75325023324694 114.7240963387303,203.4545454545878 114.85335652902722,202.89350929833017 114.85335652902722,202.33247297722846 112.39741291571409,197.98443589312956 111.23407120397314,195.45976465183776 109.1659081610851,189.28833199723158 108.51960720960051,186.06234789139125 107.74404606875032,183.81818181823473" stroke="#4dd2ff" stroke-linecap="round" stroke-linejoin="round" stroke-width="0.5"><title>2023-10-07 1.0km</title><desc>9989974159</desc></polyline><polyline fill="none" points="132.2918110503815,189.6673326981254 133.31855847174302,193.00969652016647 134.08861903753132,194.6808762201108 135.62874016957358,201.22631584806368 136.01377045270056,202.4796953239711 136.78383101895452,203.4545454545878 137.42554815672338,203.4545454545878 137.68223501183093,202.89748829847667 137.55389158474281,202.4796953239711 136.01377045270056,200.25146457052324 134.4736493206583,196.90911352587864 133.96027560997754,194.6808762201108 131.26506362948567,188.13541397557128 130.8800333463587,185.76790078473277 130.1099727805704,183.81818181823473" stroke="#4dd2ff" stroke-linecap="round" stroke-linejoin="round" stroke-width="0.5"><title>2023-10-06 1.0km</title><desc>9984428862</desc></polyline><polyline fill="none" points="152.26605852879584,183.81818181823473 154.49103114195168,189.77349103672896 155.97434621769935,194.76306196383666 158.49598184600472,201.04024794592988 159.53430239856243,203.1326392745832 159.9792969217524,203.4545454545878 160.57262295205146,203.4545454545878 160.72095445916057,203.1326392745832 160.2759599359706,202.32787361531518 158.49598184600472,199.75262151972856 157.45766129344702,197.66022696113214 155.67768320254982,192.99257035600021 154.93602566514164,190.57826131023467 152.8593845590949,186.71536129922606 152.8593845590949,185.26677203795407" stroke="#4dd2ff" stroke-linecap="round" stroke-linejoin="round" stroke-width="0.5"><title>2023-10-04 1.0km</title><desc>9971682885</desc></polyline><polyline fill="none" points="176.11886854935437,186.11148996138945 176.77932200301439,188.40479540708475 177.43977545620874,189.98144133610185 177.96813821978867,192.41807344567496 180.47786134295166,197.43465937650762 180.60995203442872,199.15462872409262 181.40249617863446,202.5945628673071 181.66667755972594,203.0245542083867 182.45922170439735,203.4545454545878 182.45922170439735,202.02124093158636 180.74204272544011,198.86796727159526 179.55322650866583,196.14468137011863 178.89277305454016,194.8547025100561 178.23231960088015,192.991398205515 176.91141269402578,190.2681040954776 176.38304993044585,188.11813237390015 176.11886854935437,185.96815828164108 175.7225964772515,183.81818181823473" stroke="#4dd2ff" stroke-linecap="round" stroke-linejoin="round" stroke-width="0.5"><title>2023-10-03 1.0km</title><desc>9965060084</desc></polyline><polyline fill="none" points="17.319714790210128,206.44778708112426 19.11440284922719,212.2900270796381 19.413517525419593,214.8865732268896 20.460418893955648,216.18484515487216 21.208205585367978,218.13225161540322 22.554221630096436,223.16304368712008 23.601122997701168,224.7858773933258 24.348909689113498,225.2727272727061 24.49846702814102,225.1104439913761 24.049795012921095,223.81217731256038 22.404664292000234,220.72879089042544 19.712632201611996,214.23743697616737 18.067501480691135,209.36890901299194 17.768386804498732,205.63636363635305" stroke="#4dd2ff" stroke-linecap="round" stroke-linejoin="round" stroke-width="0.5"><title>2023-10-02 1.0km</title><desc>9958643020</desc></polyline><polyline fill="none" points="40.39390663988888,209.09237672155723 40.68344960408285,210.50619864545297 43.86842221207917,218.0465664388612 45.460908515844494,222.91637316404376 46.32953740935773,224.6443664309336 47.19816630193964,225.2727272727061 47.34293778426945,225.11563707957976 47.19816630193964,224.48727619170677 44.30273665813729,220.0887448041467 41.552078497130424,213.3338396861218 40.24913515755907,209.24946809280664 39.670049228705466,205.63636363635305" stroke="#4dd2ff" stroke-linecap="round" stroke-linejoin="round" stroke-width="0.5"><title>2023-10-01 1.0km</title><desc>9952075403</desc></polyline><polyline fill="none" points="63.28452508198097,208.48222578293644 64.46472690533847,210.9012053173501 64.98926104838029,213.3201818286907 65.3826616560109,215.59686284209602 67.34966469509527,221.14626159286126 69.05440066196024,224.7035601157695 69.84120187722147,225.2727272727061 70.10346894944087,224.8458519205451 67.4807982314378,220.8616774288239 66.30059640808031,218.15812578098848 65.90719579998404,216.73520234436728 64.07132629770786,212.75101115682628 63.02225800976157,208.33993277477566 62.10432325862348,205.63636363623664" stroke="#4dd2ff" stroke-linecap="round" stroke-linejoin="round" stroke-width="0.5"><title>2023-09-30 1.0km</title><desc>9945549317</desc></polyline><polyline fill="none" points="85.66109936358407,205.63636363635305 86.96404193667695,207.83564533735625 87.39835612801835,209.56365080014803 88.55652730399743,212.39129308855627 89.13561289291829,216.63274950475898 89.56992708379403,217.88947571488097 91.3071838482283,222.13092121726368 91.74149803910404,224.80145665886812 92.03104083333164,225.11563707957976 92.46535502467304,225.2727272727061 92.61012642132118,224.95854687481187 90.00424127513543,220.2458353670081 88.26698451023549,216.161476985435 87.68789892224595,213.80511282931548 85.66109936358407,209.0923767220229 84.79247098090127,206.26473006757442" stroke="#4dd2ff" stroke-linecap="round" stroke-linejoin="round" stroke-width="0.5"><title>2023-09-28 1.0km</title><desc>9933629332</desc></polyline><polyline fill="none" points="107.46006224304438,207.8677781916922 108.5568162589334,211.7355575923575 110.61323003843427,214.56200709415134 111.9841725579463,219.61985424347222 113.90349208563566,223.0413319109939 114.451869093813,224.9752080332255 115.00024610105902,225.2727272727061 115.27443460561335,224.82644839701243 115.00024610105902,224.23140974331181 113.90349208563566,222.74381234310567 110.75032429024577,216.34713106090203 109.10519326617941,211.8843181906268 107.32296799123287,205.63636363623664" stroke="#4dd2ff" stroke-linecap="round" stroke-linejoin="round" stroke-width="0.5"><title>2023-09-27 1.0km</title><desc>9927137811</desc></polyline><polyline fill="none" points="135.52736356901005,205.63636363635305 135.1358612475451,207.52450162480818 134.74435892608017,208.6101784533239 134.43985712062567,209.93186950549716 132.6563465448562,213.66091173316818 131.7428411282599,215.21860650292365 131.568840096239,215.8794455662719 131.65584061201662,216.3986757818493 131.87334190192632,217.15391898195958 132.52584577095695,218.75880783243338 132.74334706086665,219.1836306800251 133.00434860843234,219.93887060403358 133.87435376713984,221.02452643826837 134.26585608860478,221.87416885391576 134.70085866819136,222.53500106662977 135.0488607317675,223.47904590476537 135.5708638271317,224.18707862234442 136.2233676961623,225.2727272727061" stroke="#4dd2ff" stroke-linecap="round" stroke-linejoin="round" stroke-width="0.5"><title>2023-09-26 1.0km</title><desc>9920397094</desc></polyline><polyline fill="none" points="156.40180288953707,205.63636363635305 155.54590258700773,208.48897002107697 154.6900022844784,210.01477903616615 153.8952377177775,211.0098704819684 153.46728756674565,211.80594284838298 153.28388035902753,212.60201451228932 153.34501609462313,213.5971031045774 153.65069477446377,214.39317318820395 154.38432360510342,215.52093793771928 154.6900022844784,216.6487012776197 155.30135964322835,218.108157624898 156.4629386253655,219.56761161162285 158.41928217397071,223.5479286678601 159.70313262799755,225.2727272727061" stroke="#4dd2ff" stroke-linecap="round" stroke-linejoin="round" stroke-width="0.5"><title>2023-09-25 1.0km</title><desc>9914573673</desc></polyline><polyline fill="none" points="180.53859879286028,205.63636363629485 180.05603555892594,206.3694642749615 179.95952291204594,206.73601431126008 180.05603555892594,207.20729265216505 180.10429188236594,207.67857068113517 179.13916541426443,209.45895153150195 178.89788379706442,210.66332428879105 178.56008953345008,211.55351153941592 176.53332395059988,215.11424941470614 176.48506762715988,215.53315858234419 176.67809292068705,216.37097617884865 177.20891247829422,217.20879278966459 177.4984504187014,217.94188151555136 177.93275732919574,218.67496948683402 178.1740389461629,219.40805670345435 178.80137115041725,220.40295957640046 179.2839343843516,221.39786105952226 179.81475394195877,221.9738560197875 179.95952291204594,222.49748739751521 180.2973171758931,222.9163922225125 181.02116202702746,224.17310521943728 181.5519815844018,224.7490979352151 181.69675055448897,225.2727272727061" stroke="#4dd2ff" stroke-linecap="round" stroke-linejoin="round" stroke-width="0.5"><title>2023-09-24 1.0km</title><desc>9907510217</desc></polyline><polyline fill="none" points="21.64113610307686,227.45454545447137 21.23119079438038,228.0900334637845 20.9383727167733,228.7255210057483 20.76268187025562,229.5516541118268 20.704118254594505,230.63198082806775 19.708536790451035,231.96650020167 19.122900635236874,233.49166267656256 18.595828095218167,234.2542429046589 18.244446401949972,235.27101549570216 18.185882786288857,236.3513350628782 19.415718712843955,239.4651897896547 19.884227636968717,240.41840838169446 21.406881641130894,242.83322410978144 22.05108141200617,244.42191498843022 22.870972029399127,245.43867561820662 23.33948095398955,246.26479274930898 23.63229903159663,247.09090909088263" stroke="#4dd2ff" stroke-linecap="round" stroke-linejoin="round" stroke-width="0.5"><title>2023-09-23 1.0km</title><desc>9901004991</desc></polyline><polyline fill="none" points="44.260500472504646,227.45454545452958 43.86953389761038,228.1818265238544 43.47856732271612,229.45456685096724 42.58492943714373,231.33337040868355 41.69129155180417,232.6061058694031 40.90935840201564,234.72732727008406 40.853506034007296,235.87884517293423 40.96521077002399,236.5455126974266 42.082258126698434,239.21217740292195 42.24981523002498,240.00005396042252 42.47322470135987,240.42429487174377 43.2551578511484,241.39398756361334 43.86953389761038,242.60610182397068 44.372205208055675,243.87881987943547 45.20999072561972,245.09093048621435 46.15948097896762,247.09090909088263" stroke="#4dd2ff" stroke-linecap="round" stroke-linejoin="round" stroke-width="0.5"><title>2023-09-22 1.0km</title><desc>9895405405</desc></polyline><polyline fill="none" points="67.14482496469282,227.45454545447137 66.98468206310645,228.03379622573266 66.66439625993371,228.38134648406412 65.9704436857719,229.65569611924002 65.70353884994984,230.58249455911573 64.90282434155233,232.6098623450962 64.04872886603698,234.34760200895835 63.51491919369437,235.62194199307123 63.354776292108,236.25911121198442 63.354776292108,236.66458226484247 63.51491919369437,237.24382626404986 63.835204997099936,237.82306983741 64.52915757126175,239.6187222081935 65.2231101449579,240.89305366569897 65.59677691548131,241.81983888568357 66.29072948917747,242.97831887751818 66.71777722681873,243.49963431817014 67.0380630302243,244.42641647183336 67.89215850573964,245.93243514624191 68.85301591572352,247.09090909088263" stroke="#4dd2ff" stroke-linecap="round" stroke-linejoin="round" stroke-width="0.5"><title>2023-09-21 1.0km</title><desc>9889267953</desc></polyline><polyline fill="none" points="90.70052467822097,227.45454545447137 89.99976505734958,229.55687436508015 89.58755351579748,231.21189414069522 88.92801504884847,232.59852886438603 88.14481311966665,234.9244896901073 86.7845150323119,237.47409037820762 86.41352464491501,238.86071082780836 86.4547457988374,239.1738182338304 86.70207272376865,239.84476213267772 87.23794772825204,241.00772980455076 87.56771696149372,241.99177763657644 88.39214004483074,243.1547412039945 88.88679389492609,244.09405630873516 89.17534197401255,244.76499478134792 89.50511120725423,245.34647419233806 90.04098621150479,245.74903653596994 90.70052467822097,246.73307669896167 90.74174583237618,246.9119929212029 90.98907275754027,247.09090909088263" stroke="#4dd2ff" stroke-linecap="round" stroke-linejoin="round" stroke-width="0.5"><title>2023-09-20 1.0km</title><desc>9882714971</desc></polyline><polyline fill="none" points="112.92688641883433,227.45454545452958 112.50821024505422,228.51462055841694 111.71737747243606,230.83668411325198 111.67085789749399,231.59387705259724 111.39174044830725,231.99771294544917 111.06610342441127,232.75490460416768 110.88002512487583,233.46161606558599 110.50786852580495,234.42072331369855 109.43791830400005,236.13701715046773 109.15880085481331,237.1465997560881 109.065761705162,238.05522283178288 109.15880085481331,238.96384470484918 109.43791830400005,239.97342315351125 109.76355532789603,240.6801271843724 110.7869859749917,242.44688407873036 111.29870129865594,243.1535855633556 111.76389704714529,244.41555069119204 112.22909279586747,245.2232071555918 112.69428854435682,245.8794273334206 113.20600386778824,246.38421165884938 113.53164089214988,247.09090909088263" stroke="#4dd2ff" stroke-linecap="round" stroke-linejoin="round" stroke-width="0.5"><title>2023-09-19 1.0km</title><desc>9876194288</desc></polyline><polyline fill="none" points="133.7515656654723,227.45454545452958 133.40467391186394,228.01917563931784 132.826520989649,229.14843488816405 132.65307511296123,229.90127355681034 131.61239985236898,231.72063093056204 130.80298576084897,233.414511894749 130.6295398841612,234.0418743614573 130.68735517654568,234.7319725418347 131.03424693015404,235.6102785099647 131.55458456021734,236.55131961521693 132.017106898129,237.86877541907597 132.65307511296123,239.24896503181662 133.3468586197123,240.5036809243611 133.98282683454454,241.3192452651565 134.73442563368008,242.5739581134403 135.1969479713589,244.0168756080093 136.00636206311174,245.27158448967384 136.41106910887174,246.40082090575015 137.16266790800728,247.09090909088263" stroke="#4dd2ff" stroke-linecap="round" stroke-linejoin="round" stroke-width="0.5"><title>2023-09-18 1.0km</title><desc>9870505463</desc></polyline><polyline fill="none" points="156.69081674935296,227.45454545452958 156.40894495509565,228.00510402099462 156.01432444364764,229.84029661113163 155.50695521454327,230.69671843457036 155.28145777899772,231.36962067720015 154.04122188547626,233.38832413993077 153.59022701508366,234.4894330551033 153.30835522105917,235.46819531172514 153.53385265613906,236.14109369524522 154.77408854966052,238.83268178714206 155.39420649665408,239.81143893447006 155.84520136704668,240.85136714181863 156.5780680316966,241.83012191439047 156.97268854337744,242.50301515258616 157.4800577724818,244.09348791610682 159.6786577659659,247.09090909088263" stroke="#4dd2ff" stroke-linecap="round" stroke-linejoin="round" stroke-width="0.5"><title>2023-09-16 1.0km</title><desc>9856514700</desc></polyline><polyline fill="none" points="178.8194662439637,227.45454545452958 178.21625991747715,229.28729105379898 177.4320916926954,230.53093770437408 175.80343461083248,233.6727741351351 175.74311397783458,234.39277675561607 175.80343461083248,235.24368819245137 176.1653584067244,236.09459881600924 176.76856473344378,237.01096319337375 177.31145042716525,238.25459905387834 178.27658055000938,239.8909593813587 179.48299320344813,242.18185878696386 179.60363446874544,243.03276277898112 180.02587889740244,243.36003332858672 180.5084439588245,244.01457406685222 181.2926121831406,245.323654099775 182.13710104045458,246.0436472974252 182.31806293851696,246.50182448362466 182.4387042040471,247.09090909088263" stroke="#4dd2ff" stroke-linecap="round" stroke-linejoin="round" stroke-width="0.5"><title>2023-09-15 1.0km</title><desc>9850671982</desc></polyline><polyline fill="none" points="21.408295521046966,249.2727272727643 20.409886297304183,251.91350399161456 19.286675920244306,253.53859359305352 18.787471308605745,254.4188492631656 18.038664390565827,256.31478169490583 17.851462661055848,256.9918994746404 17.851462661055848,257.5335933396127 18.038664390565827,258.2107102231821 18.787471308605745,260.24205788661493 19.473877649754286,261.5962871729862 21.15869321511127,264.50787339551607 21.84509955649264,265.79438530578045 21.969900709344074,266.5392071692622 22.469105321448296,267.0131844050484 23.2803128156811,268.29969281551894 23.96671915706247,268.90909090911737" stroke="#4dd2ff" stroke-linecap="round" stroke-linejoin="round" stroke-width="0.5"><title>2023-09-14 1.0km</title><desc>9844236351</desc></polyline><polyline fill="none" points="40.385671781376004,249.2727272727643 40.74490305921063,249.56508434808347 40.879614788340405,249.85744129441446 40.969422607682645,250.4908809022163 41.2388460659422,251.02686778991483 41.41846170485951,252.537373958854 41.41846170485951,253.26826280454407 41.32865388551727,253.65806985925883 41.41846170485951,254.14532835537102 41.64298125333153,254.73003807774512 41.553173433989286,255.21729578560917 41.59807734377682,255.4609245051397 42.04711644095369,256.2892614818411 42.451251628343016,257.5074022138142 42.81048290594481,258.189560045721 43.259522003121674,258.8229916894343 43.753465009853244,259.26152093417477 43.88817673898302,259.55387360288296 44.02288846834563,260.1873039426282 44.38211974594742,260.82073367695557 44.78625493333675,261.9901408266742 45.325101849855855,263.0133703900501 45.59452530811541,263.8904230442131 45.729237037245184,264.62129936920246 45.99866049550474,265.20599984913133 46.49260350246914,266.81392350868555 47.16616214811802,268.0807697052369 47.211066058138385,268.2756689051748 47.16616214811802,268.4218432675116 46.627315231598914,268.90909090911737 46.896738689858466,268.71419189544395 47.03145041898824,268.4218432675116 47.12125823833048,268.1782193123945 47.07635432900861,267.8371456247405 46.806930870516226,267.4960717615322 45.99866049550474,265.7419748356333 45.59452530811541,264.4263990946929 44.741351023782045,262.52611841395264 44.337215836159885,260.67455763818 44.11269628768787,260.1385785534512 43.259522003121674,259.0178936118609 42.40634771855548,257.4099510376691 42.00221253093332,256.09435875696363 41.867500802269205,255.21729578560917 41.50826952420175,254.29150583437877 40.789806968998164,252.73227772989776 40.61019132984802,252.0013882930507 39.981536593986675,250.83196351729566 39.8468248648569,250.19852423545672 39.80192095506936,249.41890582657652" stroke="#4dd2ff" stroke-linecap="round" stroke-linejoin="round" stroke-width="0.5"><title>2023-09-13 1.0km</title><desc>9837636972</desc></polyline></svg>