<?xml version="1.0" encoding="utf-8" ?>
<svg baseProfile="full" height="300mm" version="1.1" viewBox="0,0,200,300" width="200mm" xmlns="http://www.w3.org/2000/svg" xmlns:ev="http://www.w3.org/2001/xml-events" xmlns:xlink="http://www.w3.org/1999/xlink"><defs /><rect fill="#222222" height="300" width="200" x="0" y="0" /><text fill="#FFFFFF" style="font-size:12px; font-family:Arial; font-weight:bold;" x="10" y="20">Over 1km Runs</text><text fill="#FFFFFF" style="font-size:4px; font-family:Arial" x="10" y="280">ATHLETE</text><text fill="#FFFFFF" style="font-size:9px; font-family:Arial" x="10" y="290">Jiakai</text><text fill="#FFFFFF" style="font-size:4px; font-family:Arial" x="120" y="280">STATISTICS</text><text fill="#FFFFFF" style="font-size:3px; font-family:Arial" x="120" y="285">Number: 29</text><text fill="#FFFFFF" style="font-size:3px; font-family:Arial" x="120" y="290">Weekly: 5.8</text><text fill="#FFFFFF" style="font-size:3px; font-family:Arial" x="141" y="285">Total: 29.5 km</text><text fill="#FFFFFF" style="font-size:3px; font-family:Arial" x="141" y="290">Avg: 1.0 km</text><text fill="#FFFFFF" style="font-size:3px; font-family:Arial" x="167" y="285">Min: 1.0 km</text><text fill="#FFFFFF" style="font-size:3px; font-family:Arial" x="167" y="290">Max: 1.0 km</text><polyline fill="none" points="21.364641130901873,31.800000000046566 22.312549540773034,33.85715177981183 23.260457950644195,38.48573886137456 25.393251872621477,45.68575103627518 28.236977101303637,50.05717976833694 31.55465653538704,62.400007873540744 32.73954204842448,63.68571662972681 34.398381765931845,64.19999999995343 34.635358868166804,63.68571662972681 34.398381765931845,62.142866065725684 31.317679434083402,57.7714524383191 29.65883971657604,52.62860588193871 27.76302289776504,49.54289431869984 23.260457950644195,39.00002593710087 21.601618234068155,31.800000000046566" stroke="#4dd2ff" stroke-linecap="round" stroke-linejoin="round" stroke-width="0.5"><title>2023-10-15 1.0km</title><desc>10039610121</desc></polyline><polyline fill="none" points="57.257617726922035,34.151622843928635 57.98001582734287,41.72906364640221 59.906410763040185,47.216165866935626 62.31440443173051,50.61293918592855 63.7592006335035,55.31615842296742 67.85278987046331,62.63226486439817 68.81598733644933,63.677421698346734 70.01998417265713,64.19999999995343 70.74238227214664,63.677421698346734 70.74238227214664,62.89355410146527 65.926394934766,58.974213525885716 62.79600316565484,53.22583953035064 61.592006331309676,48.261327233863994 58.70241392869502,41.72906364640221 57.257617726922035,36.24195295525715 57.49841709434986,32.8451659004204 57.257617726922035,31.799999999813735" stroke="#4dd2ff" stroke-linecap="round" stroke-linejoin="round" stroke-width="0.5"><title>2023-10-14 1.0km</title><desc>10033377496</desc></polyline><polyline fill="none" points="92.65371090359986,32.31428805901669 96.91929812077433,37.45716448454186 97.39325225632638,41.31431684130803 101.42186240572482,53.65717579820193 105.21349548734725,62.65714966272935 106.39838082436472,64.19999999995343 107.34628909640014,64.19999999995343 107.34628909640014,63.428574916673824 107.1093120276928,62.65714966272935 104.9765184186399,61.11429864470847 102.60674774367362,56.742883731843904 100.0,48.51432319311425 95.2604586482048,37.971451710909605 94.54952744487673,34.37143953633495 93.36464210692793,31.800000000046566" stroke="#4dd2ff" stroke-linecap="round" stroke-linejoin="round" stroke-width="0.5"><title>2023-10-13 1.0km</title><desc>10028006924</desc></polyline><polyline fill="none" points="129.0480709662661,31.799999999813735 131.32739196065813,34.76795191434212 132.6949845580384,37.24124317523092 132.92291665822268,40.45651909708977 132.6949845580384,43.91912049916573 135.2022376516834,49.113015920389444 138.16535494476557,57.027507808292285 141.12847223784775,62.46871018107049 141.81226853653789,63.45801875856705 142.9519290337339,64.19999999995343 142.9519290337339,62.96336450614035 140.4446759391576,59.74811009480618 138.16535494476557,55.790869678603485 135.2022376516834,47.629046618472785 133.37878085672855,44.41377755184658 132.46705245878547,41.69316286453977" stroke="#4dd2ff" stroke-linecap="round" stroke-linejoin="round" stroke-width="0.5"><title>2023-10-12 1.0km</title><desc>10021974100</desc></polyline><polyline fill="none" points="168.21190333273262,36.3940492705442 169.1032201955095,41.22988367616199 168.88039098028094,43.16421544761397 170.88585392106324,49.69257677602582 172.44565843138844,52.594066539779305 174.00546294264495,57.91345779271796 176.23375509865582,63.23284044209868 176.67941353004426,63.71642025606707 177.79355960991234,64.19999999995343 177.57073039282113,63.23284044209868 175.1196090206504,56.94629638665356 172.44565843138844,52.352275823708624 168.88039098028094,44.13138090632856 167.98907411657274,40.98809212492779 167.54341568611562,36.3940492705442 166.206440391019,31.800000000046566" stroke="#4dd2ff" stroke-linecap="round" stroke-linejoin="round" stroke-width="0.5"><title>2023-10-10 1.0km</title><desc>10009069592</desc></polyline><polyline fill="none" points="22.51119292061776,76.6500177164562 24.048058902844787,80.9382662512362 25.584924886003137,86.6559221376665 28.878209134563804,93.8029778082855 31.51283653266728,102.85589236277156 33.04970251489431,105.0 33.488807081244886,104.28529761196114 33.708359364420176,101.6647208398208 32.17149338219315,97.13826505979523 28.878209134563804,91.42062766943127 25.145820319652557,80.9382662512362 24.048058902844787,76.17354530631565 22.291640636511147,72.60000000009313" stroke="#4dd2ff" stroke-linecap="round" stroke-linejoin="round" stroke-width="0.5"><title>2023-10-09 1.0km</title><desc>10003389142</desc></polyline><polyline fill="none" points="57.40321855712682,72.5999999998603 59.02348066680133,74.60931126307696 60.643742775544524,78.37676669517532 61.569606836885214,85.91166509594768 65.04159707110375,93.44654687773436 68.05065527185798,101.98605947382748 69.43945136573166,104.49767676368356 70.59678144287318,105.0 70.59678144287318,102.99070661189035 66.19892714824528,95.95817044540308 60.41227675974369,81.89305468322709 58.097616603598,72.85116397286765" stroke="#4dd2ff" stroke-linecap="round" stroke-linejoin="round" stroke-width="0.5"><title>2023-10-08 1.0km</title><desc>9996447828</desc></polyline><polyline fill="none" points="95.84105338156223,79.08002667874098 96.90744995139539,83.01432208251208 100.1066396581009,91.57718331716023 101.17303622700274,95.28003501519561 104.58550524711609,103.84286288474686 105.65190181694925,105.0 105.86518113035709,104.0742903421633 105.86518113035709,103.1485804123804 101.8128741690889,95.97431922354735 99.89336034469306,91.80861167539842 96.4808913236484,81.62574779521674 95.41449475381523,76.30287402076647 94.13481887057424,72.5999999998603" stroke="#4dd2ff" stroke-linecap="round" stroke-linejoin="round" stroke-width="0.5"><title>2023-10-07 1.0km</title><desc>9989974159</desc></polyline><polyline fill="none" points="133.35291680507362,82.25109895179048 135.04705004952848,87.76599925826304 136.31764998380095,90.52344576292671 138.85884985141456,101.32342114928178 139.49414981901646,103.39149728463963 140.7647497523576,105.0 141.8235830301419,105.0 142.2471163412556,104.08085569227114 142.03534968663007,103.39149728463963 139.49414981901646,99.71491654124111 136.95294995047152,94.20003731758334 136.1058833282441,90.52344576292671 131.65878356061876,79.72343305964023 131.02348359394819,75.817036294844 129.75288365967572,72.5999999998603" stroke="#4dd2ff" stroke-linecap="round" stroke-linejoin="round" stroke-width="0.5"><title>2023-10-06 1.0km</title><desc>9984428862</desc></polyline><polyline fill="none" points="165.0247108573094,72.5999999998603 168.69591567013413,82.42626021034084 171.1433855444193,90.65905223996378 175.3040843307972,101.01640911051072 177.01731324288994,104.46885480266064 177.75155420601368,105.0 178.730542155914,105.0 178.9752891426906,104.46885480266064 178.24104818049818,103.14099146495573 175.3040843307972,98.89182550739497 173.59085541870445,95.43937448575161 170.65389156900346,87.73774108709767 169.43015663232654,83.7541311616078 166.00369880814105,77.3803461433854 166.00369880814105,74.99017386231571" stroke="#4dd2ff" stroke-linecap="round" stroke-linejoin="round" stroke-width="0.5"><title>2023-10-04 1.0km</title><desc>9971682885</desc></polyline><polyline fill="none" points="23.09613310638815,117.18395843612961 24.18588130455464,120.96791242156178 25.27562950272113,123.5693782044109 26.147428061813116,127.58982118521817 30.28847121540457,135.8671879710164 30.50642085634172,138.70513739460148 31.814118694514036,144.38102873088792 32.25001797359437,145.09051444358192 33.557715811766684,145.80000000004657 33.557715811766684,143.4350475370884 30.724370496347547,138.23214599792846 28.76282373908907,133.73872426059097 27.67307553999126,131.61025914154015 26.583327340893447,128.5358070388902 24.403830944560468,124.04237175756134 23.532032385468483,120.49491841671988 23.09613310638815,116.94746116455644 22.442284187301993,113.39999999990687" stroke="#4dd2ff" stroke-linecap="round" stroke-linejoin="round" stroke-width="0.5"><title>2023-10-03 1.0km</title><desc>9965060084</desc></polyline><polyline fill="none" points="58.07752940338105,114.73884868388996 61.03876470122486,124.3785446814727 61.532303917221725,128.66284582437947 63.259691175073385,130.80499450559728 64.49353921599686,134.01821516547352 66.71446568891406,142.31902208388783 68.44185294676572,144.99669769895263 69.67570098675787,145.80000000004657 69.92247059568763,145.53223258606158 69.18216177169234,143.3900925659109 66.46769608184695,138.30250496929511 62.025843133218586,127.59177101077512 59.3113774433732,119.55869987164624 58.817838228307664,113.4000000001397" stroke="#4dd2ff" stroke-linecap="round" stroke-linejoin="round" stroke-width="0.5"><title>2023-10-02 1.0km</title><desc>9958643020</desc></polyline><polyline fill="none" points="94.86423167027533,119.10242159059271 95.3419775608927,121.43522776500322 100.59718236420304,133.8768346242141 103.22478476632386,141.9120157205034 104.65802244003862,144.76320461090654 106.09126011282206,145.80000000004657 106.33013305906206,145.5408011812251 106.09126011282206,144.50400571641512 101.31380120012909,137.24642892670818 96.77521523460746,126.10083548212424 94.62535872403532,119.36162235308439 93.66986694186926,113.39999999990687" stroke="#4dd2ff" stroke-linecap="round" stroke-linejoin="round" stroke-width="0.5"><title>2023-10-01 1.0km</title><desc>9952075403</desc></polyline><polyline fill="none" points="131.34803781285882,118.09567254199646 133.29537082184106,122.0869887736626 134.16085215751082,126.07830001739785 134.80996316019446,129.83482368965633 138.05551817454398,138.99133162829094 140.8683325201273,144.86087419115938 142.16655452456325,145.80000000004657 142.59929519426078,145.09565566899255 138.27188850939274,138.52176775760017 136.3245555004105,134.06090753874741 135.67544449772686,131.71308386838064 132.6462598182261,125.13916840869933 130.91529714409262,117.86088907835074 129.4007048048079,113.39999999990687" stroke="#4dd2ff" stroke-linecap="round" stroke-linejoin="round" stroke-width="0.5"><title>2023-09-30 1.0km</title><desc>9945549317</desc></polyline><polyline fill="none" points="166.98367109242827,113.4000000001397 169.13352633826435,117.0288148066029 169.85014475416392,119.88002382032573 171.7611271943897,124.5456335961353 172.71661841589957,131.54403668292798 173.43323683086783,133.61763492948376 176.29971049167216,140.6160200086888 177.01632890757173,145.02240348723717 177.494074517861,145.54080118145794 178.21069293282926,145.80000000004657 178.44956573843956,145.28160234354436 174.1498552467674,137.50562835554592 171.28338158503175,130.76643702597357 170.3278903644532,126.87843616842292 166.98367109242827,119.10242159152403 165.55043426156044,114.43680461170152" stroke="#4dd2ff" stroke-linecap="round" stroke-linejoin="round" stroke-width="0.5"><title>2023-09-28 1.0km</title><desc>9933629332</desc></polyline><polyline fill="none" points="21.666245558299124,157.8818340166472 23.47588968463242,164.26367002772167 26.868972420692444,168.9273117056582 29.131027578376234,177.27275950205512 32.29790479876101,182.9181976534892 33.20272686239332,186.10909325513057 34.107548924162984,186.60000000009313 34.55995995737612,185.8636398552917 34.107548924162984,184.88182607665658 32.29790479876101,182.4272903664969 27.09517793636769,171.87276625074446 24.380711747333407,164.50912501476705 21.440040042623878,154.20000000018626" stroke="#4dd2ff" stroke-linecap="round" stroke-linejoin="round" stroke-width="0.5"><title>2023-09-27 1.0km</title><desc>9927137811</desc></polyline><polyline fill="none" points="66.69157846015878,154.20000000001164 66.04559962963685,157.3154276809073 65.39962079934776,159.10679444798734 64.89719282020815,161.2875846840907 61.954400370130315,167.44050435977988 60.44711643271148,170.0107007298502 60.16001473017968,171.10108518437482 60.303565581096336,171.95781504007755 60.66244270931929,173.2039663202013 61.73907409328967,175.85203292348888 62.09795122151263,176.55299062206177 62.528603775193915,177.79913649661466 63.96411228692159,179.59046862315154 64.61009111744352,180.99237860896392 65.32784537388943,182.08275175991002 65.9020487787202,183.64042574283667 66.76335388608277,184.8086797268479 67.83998526982032,186.59999999997672" stroke="#4dd2ff" stroke-linecap="round" stroke-linejoin="round" stroke-width="0.5"><title>2023-09-26 1.0km</title><desc>9920397094</desc></polyline><polyline fill="none" points="99.8486890536733,154.19999999995343 98.43645355431363,158.9068005346926 97.02421805541962,161.42438540968578 95.71285651996732,163.06628629518673 95.00673877075315,164.37980569980573 94.70411687809974,165.69332394527737 94.8049908420071,167.33522012247704 95.30936066340655,168.6487357604783 96.51984823402017,170.509547597263 97.02421805541962,172.37035710806958 98.0329576972872,174.77846008108463 99.94956301758066,177.18655915919226 103.17752987286076,183.75408230198082 105.29588312190026,186.59999999997672" stroke="#4dd2ff" stroke-linecap="round" stroke-linejoin="round" stroke-width="0.5"><title>2023-09-25 1.0km</title><desc>9914573673</desc></polyline><polyline fill="none" points="138.3886880078353,154.20000000006985 137.5924586718902,155.4096160538029 137.43321280460805,156.01442361366935 137.5924586718902,156.79203287616838 137.67208160553128,157.56964162387885 136.07962293317541,160.50727002706844 135.68150826497003,162.49448507663328 135.12414772994816,163.96329404017888 131.7799845179543,169.83851153438445 131.70036158477888,170.52971166092902 132.01885331887752,171.91211069514975 132.8947055884637,173.29450810304843 133.37244319031015,174.50410450075287 134.08904959261417,175.71369965339545 134.48716426081955,176.92329356085975 135.52226239768788,178.56488330115099 136.31849173363298,180.2064707482932 137.19434400415048,181.1568624327192 137.43321280460805,182.02085420605727 137.99057333962992,182.71204716723878 139.18491734424606,184.78562361211516 140.06076961383224,185.73601159313694 140.29963841475546,186.59999999997672" stroke="#4dd2ff" stroke-linecap="round" stroke-linejoin="round" stroke-width="0.5"><title>2023-09-24 1.0km</title><desc>9907510217</desc></polyline><polyline fill="none" points="173.20787457050756,154.19999999995343 172.53146481141448,155.24855521530844 172.0483149830252,156.29710965952836 171.75842508627102,157.66022928454913 171.66179512022063,159.4427683664253 170.01908570434898,161.64472533285152 169.05278604850173,164.16124341636896 168.18311635777354,165.4195007927483 167.60333656379953,167.09717556799296 167.50670659774914,168.87970285385381 169.53593587642536,174.01756315294188 170.30897560156882,175.59037382982206 172.82135470816866,179.57481978123542 173.8842843300663,182.19615973101463 175.23710384918377,183.87381477002054 176.01014357432723,185.23690803640056 176.49329340271652,186.59999999997672" stroke="#4dd2ff" stroke-linecap="round" stroke-linejoin="round" stroke-width="0.5"><title>2023-09-23 1.0km</title><desc>9901004991</desc></polyline><polyline fill="none" points="29.244111493695527,195.0 28.599016644991934,196.20001376443543 27.953921796754003,198.30003530415706 26.479419285431504,201.40006117441226 25.004916774574667,203.5000746845035 23.714727077633142,207.00008999567945 23.622570670209825,208.9000945353182 23.8068834845908,210.00009595078882 25.65001162327826,214.4000927148154 25.926480843685567,215.7000890347408 26.295106471516192,216.4000865384005 27.585296168457717,218.00007947999984 28.599016644991934,220.00006800959818 29.42842430714518,222.10005280107725 30.81077041151002,224.10003530222457 32.377429329324514,227.40000000002328" stroke="#4dd2ff" stroke-linecap="round" stroke-linejoin="round" stroke-width="0.5"><title>2023-09-22 1.0km</title><desc>9895405405</desc></polyline><polyline fill="none" points="65.71753262076527,195.0 65.4532968327403,195.95576377247926 64.9248252576217,196.5292216987582 63.77980351028964,198.6318985967664 63.33941053086892,200.16111602261662 62.01823159214109,203.50627286941744 60.608974057715386,206.37354331486858 59.72818809840828,208.47620428854134 59.46395231038332,209.52753349975683 59.46395231038332,210.19656073697843 59.72818809840828,211.15231333568227 60.256659673992544,212.10806523181964 61.40168142085895,215.0708916435251 62.546703167725354,217.17353854852263 63.1632533390075,218.70273416140117 64.3082750858739,220.6142261478817 65.01290385285392,221.47439662506804 65.54137542843819,223.0035871785367 66.95063296332955,225.48851799138356 68.53604768961668,227.40000000002328" stroke="#4dd2ff" stroke-linecap="round" stroke-linejoin="round" stroke-width="0.5"><title>2023-09-21 1.0km</title><desc>9889267953</desc></polyline><polyline fill="none" points="103.29872286203317,195.0000000000582 102.14246948761865,198.4688427025103 101.46232044417411,201.19962533231592 100.37408197368495,203.48757262638537 99.08179879072122,207.32540798879927 96.8373069462832,211.53224912419682 96.22517280699685,213.82017286599148 96.29318771115504,214.33680008596275 96.70127713750117,215.44385751907248 97.58547089458443,217.36275417759316 98.12959012947977,218.98643310042098 99.48988821706735,220.90532298677135 100.30606706975959,222.455192909576 100.78217140003107,223.56224138929974 101.32629063492641,224.52168241748586 102.2104843922425,225.185910284461 103.29872286203317,226.8095765534672 103.36673776665702,227.10478832013905 103.77482719300315,227.40000000002328" stroke="#4dd2ff" stroke-linecap="round" stroke-linejoin="round" stroke-width="0.5"><title>2023-09-20 1.0km</title><desc>9882714971</desc></polyline><polyline fill="none" points="138.6865054485388,195.0000000000582 137.9956897618249,196.74912392144324 136.6908156867139,200.5805287869298 136.61405838793144,201.82989713683492 136.15351459709927,202.49622636003187 135.61621350748464,203.7455925969407 135.3091843132861,204.91166650824016 134.695125924889,206.4941934676608 132.92970805894583,209.32607829838526 132.469164267648,210.99188959761523 132.31564967054874,212.49111767252907 132.469164267648,213.99034376308555 132.92970805894583,215.6561482033576 133.4670091480948,216.82220985426102 135.15566971618682,219.7373587299371 136.0,220.9034161796444 136.7675729850307,222.9856586405076 137.53514597052708,224.3182918067905 138.3027189555578,225.4010551001993 139.14704923937097,226.23394923715387 139.68435032945126,227.40000000002328" stroke="#4dd2ff" stroke-linecap="round" stroke-linejoin="round" stroke-width="0.5"><title>2023-09-19 1.0km</title><desc>9876194288</desc></polyline><polyline fill="none" points="171.76151191955432,195.0 171.18914052657783,195.93163980485406 170.23518820479512,197.7949175654212 169.94900250807405,199.03710136876907 168.23188832821324,202.03904103545938 166.89635507715866,204.83394462626893 166.61016938043758,205.86909269634634 166.70556461298838,207.00775469397195 167.27793600643054,208.45695954142138 168.1364930961281,210.00967736518942 168.89965495374054,212.18347944144625 169.94900250807405,214.46079230250325 171.0937452944927,216.53107352519874 172.1430928488262,217.87675468751695 173.38323086732998,219.94703088712413 174.14639272447675,222.32784475327935 175.481925975997,224.39811440801714 176.14969260105863,226.26135449449066 177.38983062002808,227.40000000002328" stroke="#4dd2ff" stroke-linecap="round" stroke-linejoin="round" stroke-width="0.5"><title>2023-09-18 1.0km</title><desc>9870505463</desc></polyline><polyline fill="none" points="28.325561922509223,235.79999999993015 27.860473461914808,236.70842163462657 27.209349617827684,239.73648940830026 26.37219038978219,241.14958541700616 26.00011962139979,242.25987411732785 23.953730396926403,245.59073483082466 23.209588861092925,247.4075645408593 22.74450040049851,249.02252226427663 23.11657116888091,250.13280459714588 25.162960392888635,254.57392494869418 26.18615500582382,256.18887424177956 26.9302965416573,257.9047557839658 28.139526538085192,259.5197011587443 28.790650382637978,260.62997500167694 29.62780961068347,263.2542550615035 33.25549959996715,268.19999999995343" stroke="#4dd2ff" stroke-linecap="round" stroke-linejoin="round" stroke-width="0.5"><title>2023-09-16 1.0km</title><desc>9856514700</desc></polyline><polyline fill="none" points="63.55211930256337,235.79999999993015 62.55682886345312,238.82403023878578 61.26295129302889,240.87604721228126 58.575667107477784,246.06007732299622 58.47613806370646,247.24808164674323 58.575667107477784,248.65208551753312 59.172841371037066,250.0560880464036 60.168131810147315,251.56808926910162 61.06389320502058,253.6200884389691 62.65635790722445,256.3200829792768 64.6469387859106,260.1000669983914 64.84599687345326,261.5040585852694 65.5427001803182,262.0440549921477 66.3389325318858,263.1240472102072 67.63281010231003,265.28402926470153 69.02621671697125,266.47201804071665 69.32480384875089,267.2280103979865 69.52386193629354,268.19999999995343" stroke="#4dd2ff" stroke-linecap="round" stroke-linejoin="round" stroke-width="0.5"><title>2023-09-15 1.0km</title><desc>9850671982</desc></polyline><polyline fill="none" points="100.82368760975078,235.79999999993015 99.17631239024922,240.15728158608545 97.32301526842639,242.83867942832876 96.49932765867561,244.2911012840923 95.26379624428228,247.41938979644328 94.95491339080036,248.53663413296454 94.95491339080036,249.43042901018634 95.26379624428228,250.5476718681166 96.49932765867561,253.8993955127662 97.6318981219083,256.13387383532245 100.41184380510822,260.9379911024589 101.54441426787525,263.0607357544359 101.75033617019653,264.2896918291226 102.57402377994731,265.07175426813774 103.91251614550129,267.1944931454491 105.04508660873398,268.19999999995343" stroke="#4dd2ff" stroke-linecap="round" stroke-linejoin="round" stroke-width="0.5"><title>2023-09-14 1.0km</title><desc>9844236351</desc></polyline><polyline fill="none" points="130.85064415354282,235.79999999998836 131.44337576208636,236.2823891742737 131.66565011488274,236.76477813575184 131.81383301736787,237.80995348858414 132.25838172296062,238.69433185324306 132.55474752746522,241.18666703207418 132.55474752746522,242.39263362740166 132.40656462544575,243.03581526770722 132.55474752746522,243.83979178627487 132.92520478228107,244.8045628281543 132.77702188072726,245.60853804612998 132.85111333150417,246.01052543340484 133.59202784160152,247.37728144496214 134.25885090092197,249.38721365272067 134.85158250899985,250.51277407538146 135.59249701956287,251.55793628748506 136.4075029809028,252.28150954138255 136.62977733369917,252.76389144471614 136.8520516869612,253.80905150528997 137.44478329550475,254.85421056690393 138.11160635435954,256.7837323639542 139.00070376647636,258.47206114354776 139.44525247300044,259.9191980228643 139.6675268257968,261.12514395912876 140.1120755323209,262.0898997509503 140.92708149319515,264.7429737892817 142.03845325903967,266.8332700136234 142.11254471028224,267.1548536934424 142.03845325903967,267.39604139130097 141.14935584645718,268.20000000001164 141.5939045525156,267.87841662741266 141.81617890577763,267.39604139130097 141.9643618077971,266.99406186537817 141.8902703570202,266.4312902807724 141.4457216509618,265.86851840640884 140.1120755323209,262.9742584787309 139.44525247300044,260.8035585061298 138.03751490358263,257.6680953829782 137.37069184426218,254.61302010295913 137.00023458898067,253.7286546131363 135.59249701956287,251.8795244594803 134.1847594496794,249.22641921206377 133.51793639035895,247.05569194891723 133.29566203802824,245.60853804612998 132.7029304294847,244.08098462660564 131.51746721332893,241.50825825420907 131.22110140882432,240.3022906834376 130.18382109422237,238.37273980339523 129.961546741426,237.32756498840172 129.88745529018342,236.04119461379014" stroke="#4dd2ff" stroke-linecap="round" stroke-linejoin="round" stroke-width="0.5"><title>2023-09-13 1.0km</title><desc>9837636972</desc></polyline></svg>