<svg xmlns="http://www.w3.org/2000/svg" xmlns:ev="http://www.w3.org/2001/xml-events" xmlns:xlink="http://www.w3.org/1999/xlink" width="200mm" height="300mm" baseProfile="full" version="1.1" viewBox="0 0 200 300"><rect width="200" height="300" x="0" y="0" fill="#222"/><text fill="#FFF" style="font-size:12px;font-family:Arial;font-weight:700" x="10" y="20">Over 1km Runs</text><text fill="#FFF" style="font-size:4px;font-family:Arial" x="10" y="280">ATHLETE</text><text fill="#FFF" style="font-size:9px;font-family:Arial" x="10" y="290">Jiakai</text><text fill="#FFF" style="font-size:4px;font-family:Arial" x="120" y="280">STATISTICS</text><text fill="#FFF" style="font-size:3px;font-family:Arial" x="120" y="285">Number: 17</text><text fill="#FFF" style="font-size:3px;font-family:Arial" x="120" y="290">Weekly: 5.7</text><text fill="#FFF" style="font-size:3px;font-family:Arial" x="141" y="285">Total: 17.3 km</text><text fill="#FFF" style="font-size:3px;font-family:Arial" x="141" y="290">Avg: 1.0 km</text><text fill="#FFF" style="font-size:3px;font-family:Arial" x="167" y="285">Min: 1.0 km</text><text fill="#FFF" style="font-size:3px;font-family:Arial" x="167" y="290">Max: 1.0 km</text><polyline fill="none" stroke="#4dd2ff" stroke-linecap="round" stroke-linejoin="round" stroke-width=".5" points="26.08 39.378 26.677 42.294 33.246 57.846 36.531 67.89 38.323 71.454 40.114 72.75 40.413 72.426 40.114 71.13 34.142 62.058 28.469 48.126 25.782 39.702 24.587 32.25"><title>2023-10-01 1.0km</title><desc>9952075403</desc></polyline><polyline fill="none" stroke="#4dd2ff" stroke-linecap="round" stroke-linejoin="round" stroke-width=".5" points="71.685 38.12 74.119 43.109 75.201 48.098 76.012 52.794 80.069 64.239 83.585 71.576 85.208 72.75 85.749 71.87 80.34 63.652 77.906 58.076 77.094 55.141 73.308 46.924 71.144 37.826 69.251 32.25"><title>2023-09-30 1.0km</title><desc>9945549317</desc></polyline><polyline fill="none" stroke="#4dd2ff" stroke-linecap="round" stroke-linejoin="round" stroke-width=".5" points="116.23 32.25 118.917 36.786 119.813 40.35 122.201 46.182 123.396 54.93 124.292 57.522 127.875 66.27 128.77 71.778 129.368 72.426 130.263 72.75 130.562 72.102 125.187 62.382 121.604 53.958 120.41 49.098 116.23 39.378 114.438 33.546"><title>2023-09-28 1.0km</title><desc>9933629332</desc></polyline><polyline fill="none" stroke="#4dd2ff" stroke-linecap="round" stroke-linejoin="round" stroke-width=".5" points="159.583 36.852 161.845 44.83 166.086 50.659 168.914 61.091 172.872 68.148 174.003 72.136 175.134 72.75 175.7 71.83 175.134 70.602 172.872 67.534 166.369 54.341 162.976 45.136 159.3 32.25"><title>2023-09-27 1.0km</title><desc>9927137811</desc></polyline><polyline fill="none" stroke="#4dd2ff" stroke-linecap="round" stroke-linejoin="round" stroke-width=".5" points="35.864 81 35.057 84.894 34.25 87.133 33.621 89.859 29.943 97.551 28.059 100.763 27.7 102.126 27.879 103.197 28.328 104.755 29.674 108.065 30.122 108.941 30.661 110.499 32.455 112.738 33.263 114.49 34.16 115.853 34.878 117.801 35.954 119.261 37.3 121.5"><title>2023-09-26 1.0km</title><desc>9920397094</desc></polyline><polyline fill="none" stroke="#4dd2ff" stroke-linecap="round" stroke-linejoin="round" stroke-width=".5" points="77.311 81 75.546 86.884 73.78 90.03 72.141 92.083 71.258 93.725 70.88 95.367 71.006 97.419 71.637 99.061 73.15 101.387 73.78 103.713 75.041 106.723 77.437 109.733 81.472 117.943 84.12 121.5"><title>2023-09-25 1.0km</title><desc>9914573673</desc></polyline><polyline fill="none" stroke="#4dd2ff" stroke-linecap="round" stroke-linejoin="round" stroke-width=".5" points="125.486 81 124.491 82.512 124.292 83.268 124.491 84.24 124.59 85.212 122.6 88.884 122.102 91.368 121.405 93.204 117.225 100.548 117.125 101.412 117.524 103.14 118.618 104.868 119.216 106.38 120.111 107.892 120.609 109.404 121.903 111.456 122.898 113.508 123.993 114.696 124.292 115.776 124.988 116.64 126.481 119.232 127.576 120.42 127.875 121.5"><title>2023-09-24 1.0km</title><desc>9907510217</desc></polyline><polyline fill="none" stroke="#4dd2ff" stroke-linecap="round" stroke-linejoin="round" stroke-width=".5" points="169.01 81 168.164 82.311 167.56 83.621 167.198 85.325 167.077 87.553 165.024 90.306 163.816 93.452 162.729 95.024 162.004 97.121 161.883 99.35 164.42 105.772 165.386 107.738 168.527 112.719 169.855 115.995 171.546 118.092 172.513 119.796 173.117 121.5"><title>2023-09-23 1.0km</title><desc>9901004991</desc></polyline><polyline fill="none" stroke="#4dd2ff" stroke-linecap="round" stroke-linejoin="round" stroke-width=".5" points="34.055 129.75 33.249 131.25 32.442 133.875 30.599 137.75 28.756 140.375 27.143 144.75 27.028 147.125 27.259 148.5 29.563 154 29.908 155.625 30.369 156.5 31.982 158.5 33.249 161 34.286 163.625 36.013 166.125 37.972 170.25"><title>2023-09-22 1.0km</title><desc>9895405405</desc></polyline><polyline fill="none" stroke="#4dd2ff" stroke-linecap="round" stroke-linejoin="round" stroke-width=".5" points="79.647 129.75 79.317 130.945 78.656 131.662 77.225 134.29 76.674 136.201 75.023 140.383 73.261 143.967 72.16 146.595 71.83 147.909 71.83 148.746 72.16 149.94 72.821 151.135 74.252 154.839 75.683 157.467 76.454 159.378 77.885 161.768 78.766 162.843 79.427 164.754 81.188 167.861 83.17 170.25"><title>2023-09-21 1.0km</title><desc>9889267953</desc></polyline><polyline fill="none" stroke="#4dd2ff" stroke-linecap="round" stroke-linejoin="round" stroke-width=".5" points="126.623 129.75 125.178 134.086 124.328 137.5 122.968 140.359 121.352 145.157 118.547 150.415 117.781 153.275 117.866 153.921 118.377 155.305 119.482 157.703 120.162 159.733 121.862 162.132 122.883 164.069 123.478 165.453 124.158 166.652 125.263 167.482 126.623 169.512 126.708 169.881 127.219 170.25"><title>2023-09-20 1.0km</title><desc>9882714971</desc></polyline><polyline fill="none" stroke="#4dd2ff" stroke-linecap="round" stroke-linejoin="round" stroke-width=".5" points="170.858 129.75 169.995 131.936 168.364 136.726 168.268 138.287 167.692 139.12 167.02 140.682 166.636 142.14 165.869 144.118 163.662 147.658 163.086 149.74 162.895 151.614 163.086 153.488 163.662 155.57 164.334 157.028 166.445 160.672 167.5 162.129 168.459 164.732 169.419 166.398 170.378 167.751 171.434 168.792 172.105 170.25"><title>2023-09-19 1.0km</title><desc>9876194288</desc></polyline><polyline fill="none" stroke="#4dd2ff" stroke-linecap="round" stroke-linejoin="round" stroke-width=".5" points="32.202 178.5 31.486 179.665 30.294 181.994 29.936 183.546 27.79 187.299 26.12 190.792 25.763 192.086 25.882 193.51 26.597 195.321 27.671 197.262 28.625 199.979 29.936 202.826 31.367 205.414 32.679 207.096 34.229 209.684 35.183 212.66 36.852 215.248 37.687 217.577 39.237 219"><title>2023-09-18 1.0km</title><desc>9870505463</desc></polyline><polyline fill="none" stroke="#4dd2ff" stroke-linecap="round" stroke-linejoin="round" stroke-width=".5" points="77.907 178.5 77.326 179.636 76.512 183.421 75.465 185.187 75 186.575 72.442 190.738 71.512 193.009 70.931 195.028 71.396 196.416 73.954 201.967 75.233 203.986 76.163 206.131 77.674 208.15 78.488 209.537 79.535 212.818 84.069 219"><title>2023-09-16 1.0km</title><desc>9856514700</desc></polyline><polyline fill="none" stroke="#4dd2ff" stroke-linecap="round" stroke-linejoin="round" stroke-width=".5" points="121.94 178.5 120.696 182.28 119.079 184.845 115.72 191.325 115.595 192.81 115.72 194.565 116.466 196.32 117.71 198.21 118.83 200.775 120.82 204.15 123.309 208.875 123.557 210.63 124.428 211.305 125.424 212.655 127.041 215.355 128.783 216.84 129.156 217.785 129.405 219"><title>2023-09-15 1.0km</title><desc>9850671982</desc></polyline><polyline fill="none" stroke="#4dd2ff" stroke-linecap="round" stroke-linejoin="round" stroke-width=".5" points="168.53 178.5 166.47 183.947 164.154 187.298 163.124 189.114 161.58 193.024 161.194 194.421 161.194 195.538 161.58 196.935 163.124 201.124 164.54 203.917 168.015 209.922 169.431 212.576 169.688 214.112 170.718 215.09 172.391 217.743 173.806 219"><title>2023-09-14 1.0km</title><desc>9844236351</desc></polyline><polyline fill="none" stroke="#4dd2ff" stroke-linecap="round" stroke-linejoin="round" stroke-width=".5" points="26.063 227.25 26.804 227.853 27.082 228.456 27.267 229.762 27.823 230.868 28.193 233.983 28.193 235.491 28.008 236.295 28.193 237.3 28.657 238.506 28.471 239.511 28.564 240.013 29.49 241.722 30.324 244.234 31.064 245.641 31.991 246.947 33.009 247.852 33.287 248.455 33.565 249.761 34.306 251.068 35.14 253.48 36.251 255.59 36.807 257.399 37.084 258.906 37.64 260.112 38.659 263.429 40.048 266.042 40.141 266.444 40.048 266.745 38.937 267.75 39.492 267.348 39.77 266.745 39.955 266.243 39.863 265.539 39.307 264.836 37.64 261.218 36.807 258.504 35.047 254.585 34.213 250.766 33.75 249.661 31.991 247.349 30.231 244.033 29.397 241.32 29.12 239.511 28.379 237.601 26.897 234.385 26.526 232.878 25.23 230.466 24.952 229.159 24.859 227.551"><title>2023-09-13 1.0km</title><desc>9837636972</desc></polyline></svg>