<?xml version="1.0" encoding="utf-8" ?>
<svg baseProfile="full" height="300mm" version="1.1" viewBox="0,0,200,300" width="200mm" xmlns="http://www.w3.org/2000/svg" xmlns:ev="http://www.w3.org/2001/xml-events" xmlns:xlink="http://www.w3.org/1999/xlink"><defs /><rect fill="#222222" height="300" width="200" x="0" y="0" /><text fill="#FFFFFF" style="font-size:12px; font-family:Arial; font-weight:bold;" x="10" y="20">Over 1km Runs</text><text fill="#FFFFFF" style="font-size:4px; font-family:Arial" x="10" y="280">ATHLETE</text><text fill="#FFFFFF" style="font-size:9px; font-family:Arial" x="10" y="290">Jiakai</text><text fill="#FFFFFF" style="font-size:4px; font-family:Arial" x="120" y="280">STATISTICS</text><text fill="#FFFFFF" style="font-size:3px; font-family:Arial" x="120" y="285">Number: 56</text><text fill="#FFFFFF" style="font-size:3px; font-family:Arial" x="120" y="290">Weekly: 5.6</text><text fill="#FFFFFF" style="font-size:3px; font-family:Arial" x="141" y="285">Total: 58.2 km</text><text fill="#FFFFFF" style="font-size:3px; font-family:Arial" x="141" y="290">Avg: 1.0 km</text><text fill="#FFFFFF" style="font-size:3px; font-family:Arial" x="167" y="285">Min: 1.0 km</text><text fill="#FFFFFF" style="font-size:3px; font-family:Arial" x="167" y="290">Max: 1.5 km</text><polyline fill="none" points="18.767953756265342,34.069829374784604 20.852638396434486,36.67993429629132 21.1733591100201,39.98606306454167 23.578764462843537,45.72827573912218 25.022007673978806,50.600445265416056 26.465250885114074,54.25456582871266 27.106692313216627,54.42857142863795 26.946331955492496,52.34050338040106 24.861647317185998,49.55640978273004 24.059845532290637,47.1203251988627 22.776962677948177,45.55426949914545 22.295881607569754,43.64020001515746 19.890476254746318,38.76801616116427 19.08867447078228,35.28787869610824 18.607593400403857,31.285714285681024" stroke="#4dd2ff" stroke-linecap="round" stroke-linejoin="round" stroke-width="0.5"><title>2023-11-14 1.0km</title><desc>10213806154</desc></polyline><polyline fill="none" points="45.480423795990646,34.472063627443276 46.716825706884265,39.16772822930943 50.11693095881492,47.88822255900595 50.889682152308524,50.73914616648108 52.435184540227056,53.92546833504457 52.89883525669575,54.428571428521536 51.971533823758364,52.75156068557408 49.807830480858684,47.55281954759266 49.65328024234623,46.21120700775646 48.107777854427695,42.52176845539361 45.78952427394688,38.329217402264476 44.8622228410095,35.47827828431036 44.24402188602835,31.285714285681024" stroke="#4dd2ff" stroke-linecap="round" stroke-linejoin="round" stroke-width="0.5"><title>2023-11-13 1.0km</title><desc>10208522228</desc></polyline><polyline fill="none" points="71.70051010232419,33.91559572634287 73.31626271735877,38.82469998905435 75.25516585540026,42.85717093083076 76.38619268499315,47.590932466322556 77.51721951551735,50.92209235811606 78.97139686904848,54.07792375353165 79.61769791413099,54.42857142863795 79.94084843806922,53.727276026736945 78.16352056153119,50.220795925706625 77.19406899344176,46.363661859417334 73.63941324036568,43.032495599705726 71.70051010232419,40.227299350779504 71.37735957931727,37.246774720959365 68.63058013375849,31.285714285681024" stroke="#4dd2ff" stroke-linecap="round" stroke-linejoin="round" stroke-width="0.5"><title>2023-11-12 1.0km</title><desc>10202270880</desc></polyline><polyline fill="none" points="96.49839932657778,35.603428814793006 100.31832733470947,44.238834062824026 101.59163667075336,48.55652478360571 102.86494600679725,52.01067164679989 103.66076434217393,53.56503607821651 104.45658267661929,54.42857142863795 104.61574634350836,53.7377431737259 103.1832733405754,49.420061975484714 100.47749100159854,45.2750805595424 97.6125449957326,38.712178360670805 96.49839932657778,34.049052498303354 95.38425365649164,31.285714285913855" stroke="#4dd2ff" stroke-linecap="round" stroke-linejoin="round" stroke-width="0.5"><title>2023-11-11 1.0km</title><desc>10196068378</desc></polyline><polyline fill="none" points="123.5627821246162,34.7368544107303 126.18200388550758,42.65415957593359 128.6141383787617,49.150393013842404 129.73666199017316,53.4135379018262 130.48501106444746,54.42857142863795 130.85918560251594,54.02255806257017 130.2979237958789,51.58647661237046 127.49161476641893,45.293256253004074 124.68530573602766,39.40603712643497 120.9435603627935,33.51880544796586 120.56938582565635,31.285714285681024" stroke="#4dd2ff" stroke-linecap="round" stroke-linejoin="round" stroke-width="0.5"><title>2023-11-10 1.0km</title><desc>10191120477</desc></polyline><polyline fill="none" points="146.05588741227984,31.992369710933417 148.82363372389227,34.11233474081382 150.45171978976578,36.938951870659366 150.94014560990036,37.99893243703991 150.94014560990036,39.5889024103526 152.73104028124362,45.06545759830624 153.3822747077793,48.24538714112714 154.68474356085062,51.778637253213674 155.0103607736528,53.545260361395776 155.82440380658954,54.42857142863795 156.3128296257928,54.251909241080284 156.80125544499606,53.545260361395776 155.0103607736528,52.308624322293326 152.07980585563928,48.068724499084055 148.66082511749119,38.70558588858694 147.84678208455443,33.4056799383834 147.03273905161768,31.285714285681024" stroke="#4dd2ff" stroke-linecap="round" stroke-linejoin="round" stroke-width="0.5"><title>2023-11-09 1.0km</title><desc>10185506531</desc></polyline><polyline fill="none" points="172.6281896866858,33.14390850241762 174.34064975660294,36.52243959135376 174.96336250845343,38.211703273118474 176.98717895522714,42.60378303343896 177.76556989643723,45.64444871840533 177.60989170800894,43.78626461105887 177.9212480848655,44.96874558040872 178.543960836716,49.529737904667854 179.9450645307079,53.75287087401375 180.5677772834897,54.428571428521536 181.34616822376847,54.090721175656654 181.65752459969372,53.58394570404198 179.9450645307079,52.06361861759797 178.69963902514428,50.036514270934276 177.9212480848655,47.84048254403751 176.83150076679885,44.12411637895275 175.27471888624132,41.92807900137268 173.56225881539285,38.211703273118474 173.09522425103933,35.50888078613207 173.2509024385363,32.130348206846975 172.93954606261104,31.285714285681024" stroke="#4dd2ff" stroke-linecap="round" stroke-linejoin="round" stroke-width="0.5"><title>2023-11-08 1.0km</title><desc>10179505859</desc></polyline><polyline fill="none" points="21.81311812903732,74.68320404703263 27.033241770230234,85.04081632650923 27.331534549593925,84.87897900969256 26.585802600719035,83.09876773599535 25.24348509311676,80.83304221520666 24.348606755025685,78.56731436261907 22.55885007791221,76.625260061468 21.962264519184828,75.49239426117856 21.51482534967363,71.60827851982322 21.216532570309937,70.47541013779119 19.426775893196464,67.40047873312142 18.38275116495788,61.89795918366872" stroke="#4dd2ff" stroke-linecap="round" stroke-linejoin="round" stroke-width="0.5"><title>2023-11-06 1.0km</title><desc>10167691585</desc></polyline><polyline fill="none" points="46.34657233860344,68.39130268245935 47.42064086534083,70.38925078290049 51.41003824863583,79.5464903555112 53.09786021895707,84.70782725315075 53.40473693981767,85.04081632650923 53.71161366160959,85.04081632650923 53.71161366160959,84.5413326980779 52.4841067744419,81.87741815322079 51.41003824863583,80.37896484450903 51.256599887274206,79.5464903555112 50.33596972189844,78.54752056521829 47.72751758713275,74.05215105519164 44.65875036921352,66.22685691807419 43.43124348204583,61.89795918366872" stroke="#4dd2ff" stroke-linecap="round" stroke-linejoin="round" stroke-width="0.5"><title>2023-11-05 1.1km</title><desc>10161301187</desc></polyline><polyline fill="none" points="69.9583085551858,61.89795918366872 73.04931264836341,68.77376009791624 74.44026449043304,74.8110316171078 76.60396735556424,79.00357188214548 77.37671837862581,82.35759854631033 78.14946940168738,85.04081632650923 78.61312001571059,84.53771323314868 78.45856981072575,84.03461002884433 76.4494171505794,80.34518313978333 76.29486694559455,79.84207901055925 74.44026449043304,76.99115351680666 73.66751346644014,74.3079262675019 71.65836080629379,70.61848364619073 71.19471019227058,67.43214203498792 70.26740896422416,64.07809342513792" stroke="#4dd2ff" stroke-linecap="round" stroke-linejoin="round" stroke-width="0.5"><title>2023-11-04 1.0km</title><desc>10155501797</desc></polyline><polyline fill="none" points="106.20904343901202,65.41334721131716 104.45431377133355,63.06975588260684 103.37448012968525,62.33738302648999 101.21481284638867,61.89795918366872 99.19012476876378,62.044433808885515 96.35556145943701,63.36270494933706 95.14074861258268,64.53450078645255 94.06091497093439,66.73161612206604 93.79095656098798,68.48930664558429 93.38601894536987,74.34826385357883 93.65597735531628,80.5001503713429 93.92593576619402,81.37898975145072 95.27572781778872,83.57608650438488 96.89547828072682,84.74787044816185 99.59506238438189,85.04081632650923 102.02468807809055,84.01550556428265 104.31933456659317,81.23251654836349 104.99423059262335,79.91425723605789 105.93908502859995,75.66652684973087 105.93908502859995,72.2976307910867 106.61398105463013,67.9034099765122 106.4790018494241,66.29219324875157 104.99423059262335,64.53450078645255 103.77941774530336,63.655653973226435 100.9448544359766,62.33738302648999 99.46008317917585,62.33738302648999 96.22058225469664,63.36270494933706 94.73581099743024,64.6809752174886 93.79095656098798,66.4386675505666 93.5209981505759,67.6104615777731 93.79095656098798,72.44410465157125 93.5209981505759,74.6412112612743" stroke="#4dd2ff" stroke-linecap="round" stroke-linejoin="round" stroke-width="0.5"><title>2023-11-03 1.0km</title><desc>10152446508</desc></polyline><polyline fill="none" points="120.92453700490296,61.89795918366872 122.18975364416838,64.6437323926948 123.27422505058348,69.54689180734567 125.0816773949191,73.07716100639664 127.79285590909421,80.13768538809381 128.33509161137044,81.31443763547577 129.2388177840039,84.45244108955376 129.78105348721147,85.04081632662565 130.50403442420065,85.04081632662565 130.50403442420065,84.64856618293561 129.2388177840039,84.06019085971639 128.69658208079636,82.68731460091658 127.43136544059962,81.51056295935996 126.52763926889747,78.96093262243085 125.26242262776941,76.99967685900629 123.81646075379103,74.05779050989076 122.18975364416838,67.97788177523762 121.1052822386846,65.42823850456625" stroke="#4dd2ff" stroke-linecap="round" stroke-linejoin="round" stroke-width="0.5"><title>2023-11-02 1.1km</title><desc>10144903556</desc></polyline><polyline fill="none" points="147.48754092026502,63.57498570752796 147.79664135258645,65.41971346025821 149.03304308000952,68.27065341616981 151.19674610439688,75.98494366765954 154.90595128946006,83.69920783059206 155.98780280072242,85.04081632650923 155.3696019379422,83.02840328717139 153.05134869739413,79.50667619577143 151.81494696903974,74.97873337520286 150.26944480836391,72.79860955267213 148.41484221629798,68.77376009745058 146.86934005562216,61.89795918366872" stroke="#4dd2ff" stroke-linecap="round" stroke-linejoin="round" stroke-width="0.5"><title>2023-11-01 1.0km</title><desc>10138966680</desc></polyline><polyline fill="none" points="173.77529014460742,62.24597374931909 174.57709181122482,64.85608135722578 175.85997447744012,71.81635423982516 177.9446588093415,76.3405206373427 179.2275414755568,80.51666655926965 181.31222580838948,85.04081632662565 181.4725861409679,84.86681072600186 180.02934314217418,82.77874252386391 177.9446588093415,77.90657622134313 176.18069514352828,74.77446401678026 173.1338488124311,65.55210956628434 172.8131281444803,61.89795918366872" stroke="#4dd2ff" stroke-linecap="round" stroke-linejoin="round" stroke-width="0.5"><title>2023-10-31 1.0km</title><desc>10133123337</desc></polyline><polyline fill="none" points="19.223496758379042,95.25307322246954 20.01341982372105,99.36737088486552 20.01341982372105,100.91023063636385 21.751250565983355,103.82451849291101 26.490788956172764,113.93878338718787 27.280712021514773,115.48163349693641 27.596681247465312,115.65306122438051 23.96303514856845,108.45308583788574 22.383189018815756,103.99594707717188 20.64535827562213,100.39594416599721 18.117604467086494,92.51020408142358" stroke="#4dd2ff" stroke-linecap="round" stroke-linejoin="round" stroke-width="0.5"><title>2023-10-30 1.0km</title><desc>10127985445</desc></polyline><polyline fill="none" points="44.92323139263317,95.85984414850827 45.624807773157954,100.57978232007008 46.045753601472825,102.10234072583262 48.85205912403762,108.64932911586948 50.25521188462153,112.4557082002284 52.359941027127206,115.34855162538588 52.921202132012695,115.65306122449692 53.06151740765199,115.19629680889193 51.79867992270738,113.2169831773499 49.97458133287728,109.25835023948457 46.74732998199761,103.32038664480206 45.484492496587336,98.90496678091586 44.50228556338698,96.92563757952303 44.36197028774768,93.88051203649957 44.08133973553777,92.51020408165641" stroke="#4dd2ff" stroke-linecap="round" stroke-linejoin="round" stroke-width="0.5"><title>2023-10-28 1.0km</title><desc>10115543824</desc></polyline><polyline fill="none" points="71.28400619700551,97.31022296100855 72.54788328707218,101.42451699334197 73.96974501293153,104.68166128732264 75.2336221029982,109.31022693077102 77.1294377380982,113.76735553424805 77.91936091892421,115.4816334976349 78.70928409975022,115.65306122438051 78.86726873647422,115.4816334976349 78.55129946395755,114.45306687057018 77.60339164640754,111.88164831884205 74.44369892217219,105.71023222454824 71.91594474203885,98.85308407410048 70.3360983794555,95.42450243700296 69.70415983442217,92.51020408142358" stroke="#4dd2ff" stroke-linecap="round" stroke-linejoin="round" stroke-width="0.5"><title>2023-10-27 1.0km</title><desc>10110442644</desc></polyline><polyline fill="none" points="96.8635388109833,96.08374859986361 99.84317694045603,106.12367748329416 100.94093835633248,109.18669796409085 102.03869977314025,111.0585418184055 103.29328424856067,114.63205769984052 103.76375342719257,115.31272676645312 104.70469178352505,115.65306122449692 104.8615148421377,115.14255951857194 104.70469178352505,114.46189040213358 103.1364611890167,112.41988185269292 100.78411529771984,108.33585934818257 97.96130022779107,99.99762436083984 96.07942351419479,96.93459171953145 95.1384851578623,92.51020408154" stroke="#4dd2ff" stroke-linecap="round" stroke-linejoin="round" stroke-width="0.5"><title>2023-10-26 1.0km</title><desc>10104873905</desc></polyline><polyline fill="none" points="124.55515934992582,103.57855635718442 128.10981353465468,112.46673975896556 129.8098655352369,115.48536020575557 130.42806626297534,115.65306122449692 130.27351608127356,113.97605048143305 126.10066116880625,106.76489023852628 123.78240843955427,100.89532437373418 121.77325607463717,96.70276808075141 121.00050516519696,92.51020408165641" stroke="#4dd2ff" stroke-linecap="round" stroke-linejoin="round" stroke-width="0.5"><title>2023-10-25 1.0km</title><desc>10098978222</desc></polyline><polyline fill="none" points="147.14741747640073,92.51020408165641 146.99173915106803,93.69269148434978 147.92580910492688,97.57800295087509 149.17123570945114,100.11189819395076 149.94962733611465,103.15256879711524 151.3507322659716,107.20679000858217 154.30862045101821,112.9502578136744 155.24269040394574,115.31521097186487 155.55404705554247,115.65306122449692 155.86540370620787,115.4841361042345 155.70972538087517,113.28810841345694 153.9972638003528,110.07852570549585 152.75183719582856,108.22034419386182 151.1950539406389,104.67290258978028 150.8836972899735,102.81471670686733 149.01555738318712,99.94297193153761 147.92580910492688,97.40907650184818 147.61445245333016,94.36839829827659 147.14741747640073,92.51020408165641" stroke="#4dd2ff" stroke-linecap="round" stroke-linejoin="round" stroke-width="0.5"><title>2023-10-24 1.0km</title><desc>10092835699</desc></polyline><polyline fill="none" points="174.76456359773874,96.50610997667536 177.0661379955709,104.66439595317934 178.1402060482651,106.66233905928675 179.36771239340305,111.65718911320437 181.20897191297263,114.98708302888554 181.97616337891668,115.65306122449692 181.20897191297263,114.82058844913263 180.13490386027843,112.15667351265438 177.37301458232105,108.82677543512546 176.75926140882075,107.66130995145068 176.14550823625177,103.83191913878545 174.30424871761352,100.16901751991827 173.07674237247556,96.33961403858848 172.3095509065315,92.51020408154" stroke="#4dd2ff" stroke-linecap="round" stroke-linejoin="round" stroke-width="0.5"><title>2023-10-23 1.0km</title><desc>10087395010</desc></polyline><polyline fill="none" points="15.364315011771396,123.2334475897951 15.773479672148824,123.1224489795859 18.68877787818201,123.34444618364796 19.96741744200699,123.67744186735945 20.274290937464684,123.84393965412164 20.93918351107277,124.34343279397581 21.399493753910065,124.8984247839544 22.42240540497005,126.78539449733216 22.933861230965704,128.8943550651893 23.598753804108128,130.00433194456855 23.90562729933299,130.89231227285927 24.621665455168113,132.50177395541687 25.133121280930936,134.16673070535762 25.900305019458756,135.49869346112246 26.258324097376317,135.88718215550762 26.718634340446442,136.664158944448 26.97436225321144,138.32910651346901 27.12779900082387,138.77309191174572 27.5369636612013,139.38357140787411 27.639254826586694,140.3270387490047 27.792691574199125,140.71552495838841 30.043097206857055,146.04331565933535 30.34997070231475,146.2653061224264 30.34997070231475,145.98781803325983 29.889660459244624,145.54383687843801 29.37820463371463,144.322887356102 28.866748807951808,143.2684293614002 27.48581807874143,138.99508451292058" stroke="#4dd2ff" stroke-linecap="round" stroke-linejoin="round" stroke-width="0.5"><title>2023-10-22 1.5km</title><desc>10080655811</desc></polyline><polyline fill="none" points="44.89050206029788,123.1224489795859 45.70247114356607,123.70983943255851 44.24092679331079,123.47488330316264 46.51444022683427,126.41182995354757 46.73096531582996,127.11669554305263 46.56857149931602,127.7040830590413 45.81073368806392,128.11525406350847 45.594208599068224,128.52642485609977 45.64833987131715,129.23128857964184 46.08139004907571,130.9347066776245 46.56857149931602,132.1682140674675 47.10988422157243,134.0478407133487 48.084247121587396,135.7512485414627 48.24664093833417,136.39736780204112 48.84208493260667,137.45465273747686 49.221003838581964,137.92455670429626 49.27513511036523,138.21824654308148 49.65405401610769,138.57067420723615 49.92471037711948,139.15805330191506 50.30362928309478,140.27407239202876 50.682548188604414,141.0376635028515 50.62841691635549,142.56484353501583 51.33212345512584,143.91580805327976 51.548648544354364,144.56192071107216 51.92756744963117,145.26677028724225 52.577142716385424,146.08909400680568 52.90193034987897,146.2653061224264 51.65691108861938,144.50318321830127 51.38625472760759,143.56338274705922 50.844942005118355,142.3886306033237 50.62841691635549,141.6250407837215 49.92471037711948,140.62649914930807 49.32926638284698,138.92310171585996" stroke="#4dd2ff" stroke-linecap="round" stroke-linejoin="round" stroke-width="0.5"><title>2023-10-20 1.4km</title><desc>10069668027</desc></polyline><polyline fill="none" points="69.62888403376564,123.1224489795859 69.73910486814566,124.01947121368721 70.62087154295295,126.1723205386661 70.84131321194582,127.48794787656516 72.65995697886683,131.9132242127671 72.82528823032044,132.51123268168885 72.93550906493329,133.40824456088012 73.15595073346049,134.00625193078304 74.47860074602067,135.86007198307198 75.19503616937436,137.29528460570145 75.6359195066616,138.7304946957738 76.0216924273409,139.50789910391904 76.2421340958681,140.70390443480574 76.51768618193455,141.30190644075628 77.2341216050554,143.1557098653284 77.34434243966825,143.87331005674787 78.39144036616199,146.02610683249077 78.66699245199561,146.2653061224264 78.83232370368205,146.2653061224264 78.94254453782924,146.20550630643265 78.88743412098847,146.14570648618974 77.78522577718832,144.77030940563418 77.28923202259466,143.09590982081136 76.2421340958681,141.18230607471196 76.07680284441449,140.40490326686995 75.96658200980164,139.08929682266898" stroke="#4dd2ff" stroke-linecap="round" stroke-linejoin="round" stroke-width="0.5"><title>2023-10-19 1.3km</title><desc>10064004415</desc></polyline><polyline fill="none" points="94.78146302327514,123.1224489796441 97.05039214342833,126.0768696324667 96.89913020189852,128.2106154502835 97.20165408402681,130.34435922885314 98.26048767473549,134.11943937919568 99.77310708723962,136.5814447342418 101.28572650067508,140.84891425142996 104.31096532847732,145.77290740422904 104.76475115306675,146.26530612248462 105.21853697672486,146.10117322823498 103.25213173869997,144.13157755951397 99.62184514570981,137.07384547940455 98.71427349746227,133.95530559227336 96.14282049518079,128.5388838564977" stroke="#4dd2ff" stroke-linecap="round" stroke-linejoin="round" stroke-width="0.5"><title>2023-10-18 1.0km</title><desc>10058081424</desc></polyline><polyline fill="none" points="121.67490447312593,124.5250527751632 122.9675064701587,132.06403404474258 126.36058671213686,141.00558558339253 128.62264020647854,145.73933459050022 129.59209170471877,146.2653061223682 130.07681745383888,146.2653061223682 130.3999679526314,145.5640107211657 129.26894120592624,144.16141929873265 127.81476395856589,141.88220647908747 125.87586096394807,137.67442324222066 125.06798471603543,135.2198795923032 121.67490447312593,128.38220896059647 121.3517539743334,127.33025789237581 121.02860347554088,123.12244897941127" stroke="#4dd2ff" stroke-linecap="round" stroke-linejoin="round" stroke-width="0.5"><title>2023-10-17 1.0km</title><desc>10051702317</desc></polyline><polyline fill="none" points="146.26064769458026,123.65651740692556 147.90125840436667,126.50488036358729 150.36217446718365,132.91368476464413 151.67466303519905,135.4059930066578 153.15121267270297,140.03455864987336 154.95588445384055,144.66311544645578 155.6121287373826,145.909263841575 156.43243409134448,146.2653061223682 156.59649516269565,146.0872849887237 156.43243409134448,145.55322150839493 154.62776231206954,142.8829023411963 152.16684624832124,136.83016799297184 150.36217446718365,133.09170686686411 148.88562482967973,126.14883517683484 148.06531947478652,123.12244897941127" stroke="#4dd2ff" stroke-linecap="round" stroke-linejoin="round" stroke-width="0.5"><title>2023-10-16 1.0km</title><desc>10046279660</desc></polyline><polyline fill="none" points="172.4033150933683,123.12244897941127 173.08039252925664,124.59184310794808 173.757469965145,127.89797673746943 175.28089419472963,133.0408425766509 177.31212650146335,136.16329167108051 179.6818975256756,144.97959746047854 180.5282443203032,145.89796085795388 181.71312983240932,146.2653061223682 181.8823991920799,145.89796085795388 181.71312983240932,144.79592474061064 179.51262816693634,141.67348643532023 178.32774265483022,138.0000246092677 176.97358778398484,135.79594492120668 173.757469965145,128.26532464870252 172.57258445303887,123.12244897941127" stroke="#4dd2ff" stroke-linecap="round" stroke-linejoin="round" stroke-width="0.5"><title>2023-10-15 1.0km</title><desc>10039610121</desc></polyline><polyline fill="none" points="18.041155518963933,155.41442448017187 18.55715416185558,160.82688219635747 19.93315054476261,164.74624092527665 21.65314602293074,167.1725075817667 22.685143309645355,170.53194989380427 25.609135621227324,175.75774020911194 26.297133811749518,176.50428080488928 27.157131551764905,176.8775510203559 27.67313019465655,176.50428080488928 27.67313019465655,175.94437537854537 24.233139239251614,173.14484639605507 21.99714511819184,169.03886497067288 21.137147379107773,165.49278475879692 19.073152805678546,160.82688219635747 18.041155518963933,156.90751741686836 18.213155067525804,154.48124094936065 18.041155518963933,153.73469387739897" stroke="#4dd2ff" stroke-linecap="round" stroke-linejoin="round" stroke-width="0.5"><title>2023-10-14 1.0km</title><desc>10033377496</desc></polyline><polyline fill="none" points="43.324079217389226,154.1020424910821 46.37092722952366,157.77552565233782 46.709465897642076,160.53063447843306 49.58704457618296,169.34696230501868 52.29535392019898,175.77551506529562 53.14170059002936,176.8775510203559 53.81877792626619,176.8775510203559 53.81877792626619,176.3265331038274 53.64950859174132,175.77551506529562 52.12608458567411,174.67347862385213 50.43339124601334,171.5510394005105 48.57142857182771,165.67349615856074 45.18604189157486,158.14287367113866 44.678233889862895,155.57143640355207 43.83188721910119,153.7346938776318" stroke="#4dd2ff" stroke-linecap="round" stroke-linejoin="round" stroke-width="0.5"><title>2023-10-13 1.0km</title><desc>10028006924</desc></polyline><polyline fill="none" points="69.32005069032311,153.73469387739897 70.94813711568713,155.854659530567 71.92498897016048,157.62129614548758 72.08779761288315,159.9179218041245 71.92498897016048,162.39120851969346 73.71588403731585,166.1011338206008 75.83239638991654,171.75434231199324 77.94890874158591,175.6409154352732 78.43733466882259,176.34756441926584 79.2513778815046,176.8775510203559 79.2513778815046,175.99423995334655 77.46048281434923,173.69762965943664 75.83239638991654,170.87102936208248 73.71588403731585,165.04115574783646 72.41341489739716,162.74453498609364 71.76218032836914,160.80123878084123" stroke="#4dd2ff" stroke-linecap="round" stroke-linejoin="round" stroke-width="0.5"><title>2023-10-12 1.0km</title><desc>10021974100</desc></polyline><polyline fill="none" points="97.29421666543931,157.0161576422397 97.93087156768888,160.4703250748571 97.77170784212649,161.85199062596075 99.20418137125671,166.51510586054064 100.31832745019346,168.58759854896925 101.43247352913022,172.3871637294069 103.02411078382283,176.18672276474535 103.34243823494762,176.53213691781275 104.13825686369091,176.8775510203559 103.9790931371972,176.18672276474535 102.22829215694219,171.69633415387943 100.31832745019346,168.41489089443348 97.77170784212649,162.5428230962716 97.13505293987691,160.29761682380922 96.81672548875213,157.0161576422397 95.86174313630909,153.7346938776318" stroke="#4dd2ff" stroke-linecap="round" stroke-linejoin="round" stroke-width="0.5"><title>2023-10-10 1.0km</title><desc>10009069592</desc></polyline><polyline fill="none" points="121.79370922781527,156.6275636748178 122.89147064369172,159.69059834256768 123.98923205956817,163.7746382614132 126.34157795179635,168.87967802607454 128.22345466446131,175.34604556520935 129.32121608033776,176.8775510203559 129.63486220035702,176.36704931443091 129.79168525896966,174.49520876293536 128.69392384309322,171.26202606293373 126.34157795179635,167.177999355481 123.67558594141155,159.69059834256768 122.89147064369172,156.28722623898648 121.6368861682713,153.73469387739897" stroke="#4dd2ff" stroke-linecap="round" stroke-linejoin="round" stroke-width="0.5"><title>2023-10-09 1.0km</title><desc>10003389142</desc></polyline><polyline fill="none" points="146.71658468339592,153.73469387739897 147.87391476146877,155.1699162083678 149.0312448395416,157.86095580272377 149.69257631246,163.24302608892322 152.17256933636963,168.62508450448513 154.32189662288874,174.7247363589704 155.31389383226633,176.51874870876782 156.14055817294866,176.8775510203559 156.14055817294866,175.4423414573539 152.99923367705196,170.4191013383679 148.86591197084635,160.3725900799036 147.21258328761905,153.9140967153944" stroke="#4dd2ff" stroke-linecap="round" stroke-linejoin="round" stroke-width="0.5"><title>2023-10-08 1.0km</title><desc>9996447828</desc></polyline><polyline fill="none" points="174.1721809860319,158.36328436236363 174.9338928218931,161.1734953650739 177.21902832668275,167.28982481837738 177.98074016161263,169.9347188883694 180.41821803338826,176.05102450959384 181.17992986831814,176.8775510203559 181.33227223530412,176.2163298361702 181.33227223530412,175.55510845780373 178.43776726257056,170.4306361800991 177.06668595969677,167.45513078861404 174.62920808698982,160.181656588451 173.86749625205994,156.37960389244836 172.95344205014408,153.73469387751538" stroke="#4dd2ff" stroke-linecap="round" stroke-linejoin="round" stroke-width="0.5"><title>2023-10-07 1.0km</title><desc>9989974159</desc></polyline><polyline fill="none" points="20.966369146481156,191.24058088392485 22.17646432109177,195.179795388598 23.084035702981055,197.14940003480297 24.8991784658283,204.8636681678472 25.35296415630728,206.3408654073719 26.26053553726524,207.4897959183436 27.016845021396875,207.4897959183436 27.31936881504953,206.83326427009888 27.168106919154525,206.3408654073719 25.35296415630728,203.71473630494438 23.537821393460035,199.77553685964085 22.932773806154728,197.14940003480297 19.75627397187054,189.43510524660815 19.30248828139156,186.6448218432488 18.394916899502277,184.34693877550308" stroke="#4dd2ff" stroke-linecap="round" stroke-linejoin="round" stroke-width="0.5"><title>2023-10-06 1.0km</title><desc>9984428862</desc></polyline><polyline fill="none" points="43.58907918352634,184.3469387756195 46.21136833541095,191.36569606885314 47.95956110302359,197.2462618041318 50.931488807313144,204.64437385462224 52.155223744921386,207.11040649190545 52.67968157492578,207.4897959183436 53.37895868252963,207.4897959183436 53.55377795826644,207.11040649190545 53.02932012826204,206.16193267935887 50.931488807313144,203.12681413814425 49.707753870636225,200.66077769408002 47.609922548756,195.15961098088883 46.73582616541535,192.31417531962506 44.288356291130185,187.76147173531353 44.288356291130185,186.05420582019724" stroke="#4dd2ff" stroke-linecap="round" stroke-linejoin="round" stroke-width="0.5"><title>2023-10-04 1.0km</title><desc>9971682885</desc></polyline><polyline fill="none" points="70.7829522183165,187.04976622993127 71.56134378910065,189.75259050528985 72.33973535895348,191.61078035016544 72.9624486155808,194.48252533643972 75.92033658269793,200.39493018342182 76.07601489685476,202.42203691450413 77.01008478179574,206.47624501190148 77.32144140917808,206.9830205210019 78.25551129411906,207.4897959183436 78.25551129411906,205.80054415913764 76.23169321194291,202.08418591693044 74.83058838453144,198.87459896167275 74.05219681374729,197.35426673374604 73.27380524296314,195.15822951763403 71.71702210325748,191.94863288803026 71.09430884663016,189.41473764460534 70.7829522183165,186.8808396073291 70.31591727677733,184.34693877550308" stroke="#4dd2ff" stroke-linecap="round" stroke-linejoin="round" stroke-width="0.5"><title>2023-10-03 1.0km</title><desc>9965060084</desc></polyline><polyline fill="none" points="95.76966386009008,185.30325926397927 97.8848319305107,192.18875640514307 98.23735994193703,195.24897150718607 99.4712079828605,196.77907770802267 100.35252801235765,199.07423532218672 101.93890406470746,205.0033831212204 103.17275210563093,206.9160085604526 104.05407213419676,207.4897959183436 104.23033614084125,207.2985334796831 103.70154412370175,205.76843346538953 101.7626400589943,202.13444232498296 98.58988795336336,194.4839180689305 96.65098388958722,188.74601011234336 96.2984558781609,184.3469387756195" stroke="#4dd2ff" stroke-linecap="round" stroke-linejoin="round" stroke-width="0.5"><title>2023-10-02 1.0km</title><desc>9958643020</desc></polyline><polyline fill="none" points="122.04587976448238,188.42009705421515 122.38712682947516,190.08638717909344 126.14084454625845,198.9732492212206 128.0177034046501,204.71266429009847 129.04144459962845,206.74922778317705 130.0651857946068,207.4897959183436 130.23580932803452,207.30465390486643 130.0651857946068,206.56408571568318 126.65271514374763,201.3801022944972 123.41086802445352,193.41896411962807 121.87525623198599,188.60524045606144 121.19276210106909,184.34693877538666" stroke="#4dd2ff" stroke-linecap="round" stroke-linejoin="round" stroke-width="0.5"><title>2023-10-01 1.0km</title><desc>9952075403</desc></polyline><polyline fill="none" points="148.1057412950322,187.7009905911982 149.49669344443828,190.5519307567738 150.1148943984881,193.40286735934205 150.5785451149568,196.08609855372924 152.89679869636893,202.62646136712283 154.90595179982483,206.8189917691052 155.8332532318309,207.4897959183436 156.14235371071845,206.98669282486662 153.0513489358127,202.2910586023936 151.66039678640664,199.10472987452522 151.19674606993794,197.42771296715364 149.0330427279696,192.73205906746443 147.79664081707597,187.53328811726533 146.71478914655745,184.34693877550308" stroke="#4dd2ff" stroke-linecap="round" stroke-linejoin="round" stroke-width="0.5"><title>2023-09-30 1.0km</title><desc>9945549317</desc></polyline><polyline fill="none" points="173.5597650660202,184.34693877538666 175.09537595603615,186.93894935166463 175.60724625270814,188.975527218543 176.97223371081054,192.3081056298688 177.6547274403274,197.30696497764438 178.1665977369994,198.78810658236034 180.21407892275602,203.786953067407 180.725949219428,206.93436983786523 181.06719608418643,207.30465390509926 181.57906638085842,207.4897959183436 181.74968981277198,207.1195118778851 178.67846803367138,201.56524474383332 176.6309868460521,196.75153665128164 175.94849311746657,193.97439318150282 173.5597650660202,188.42009705514647 172.53602447267622,185.0875134980306" stroke="#4dd2ff" stroke-linecap="round" stroke-linejoin="round" stroke-width="0.5"><title>2023-09-28 1.0km</title><desc>9933629332</desc></polyline><polyline fill="none" points="18.333032540977,217.58906511380337 19.62563548889011,222.14751940756105 22.049266014248133,225.47869203449227 23.66501969844103,231.43972617480904 25.92707485612482,235.47218199726194 26.573376329615712,237.75139314122498 27.219677802175283,238.10204081633128 27.542828540317714,237.5760692844633 27.219677802175283,236.87477372819558 25.92707485612482,235.1215339351911 22.210841382853687,227.5825881382916 20.271936961449683,222.32284439820796 18.17145717330277,214.95918367360719" stroke="#4dd2ff" stroke-linecap="round" stroke-linejoin="round" stroke-width="0.5"><title>2023-09-27 1.0km</title><desc>9927137811</desc></polyline><polyline fill="none" points="50.49398461449891,214.95918367343256 50.03257116419263,217.18448915984482 49.57115771388635,218.46403685060795 49.212280585896224,220.02174416207708 47.110285978764296,224.41668678756105 46.033654595026746,226.25254133762792 45.828581950161606,227.031387376599 45.93111827224493,227.64333727350459 46.18745907815173,228.53344533074414 46.95648149517365,230.42492147593293 47.21282230108045,230.92560554639203 47.520431268028915,231.81570974248461 48.5457944907248,233.095232689986 49.007207941263914,234.09659696556628 49.51988955284469,234.87543493055273 49.93003484187648,235.98805920407176 50.545252775773406,236.82252633554162 51.31427519279532,238.10204081633128" stroke="#4dd2ff" stroke-linecap="round" stroke-linejoin="round" stroke-width="0.5"><title>2023-09-26 1.0km</title><desc>9920397094</desc></polyline><polyline fill="none" points="74.17763503850438,214.95918367343256 73.16889539617114,218.32118405547226 72.16015575407073,220.11945896607358 71.22346894303337,221.29224531294312 70.71909912209958,222.23047345905798 70.50294062728062,223.16870077728527 70.5749934585765,224.34148376097437 70.93525761691853,225.27970921673113 71.79989159596153,226.60886052867863 72.16015575407073,227.93801017920487 72.88068406959064,229.6580837313668 74.24968787003309,231.37815450143535 76.5553784808144,236.06924246059498 78.06848794431426,238.10204081633128" stroke="#4dd2ff" stroke-linecap="round" stroke-linejoin="round" stroke-width="0.5"><title>2023-09-25 1.0km</title><desc>9914573673</desc></polyline><polyline fill="none" points="101.70620572008193,214.95918367349077 101.13747048005462,215.82319514045957 101.02372343209572,216.25520054035587 101.13747048005462,216.81063572788844 101.19434400415048,217.3660705477232 100.05687352386303,219.46437654999318 99.77250590361655,220.88381587102776 99.37439123587683,221.93296513071982 96.98570322734304,226.12954905512743 96.92882970348,226.62326343130553 97.15632379916497,227.61069131287513 97.78193256352097,228.59811803273624 98.12317370763049,229.4621154597262 98.63503542356193,230.3261119973031 98.91940304357558,231.19010764552513 99.65875885589048,232.36267174576642 100.22749409568496,233.53523420798592 100.8531028602738,234.21408541110577 101.02372343209572,234.83122239203658 101.42183810006827,235.32493165007327 102.27494096034206,236.80605768214446 102.90054972446524,237.48490624001715 103.07117029652,238.10204081633128" stroke="#4dd2ff" stroke-linecap="round" stroke-linejoin="round" stroke-width="0.5"><title>2023-09-24 1.0km</title><desc>9907510217</desc></polyline><polyline fill="none" points="126.57705326448195,214.95918367343256 126.09390343632549,215.7081516844337 125.74879641621374,216.4571191445575 125.54173220414668,217.43077601958066 125.4727107998915,218.70401822088752 124.29934693151154,220.27684462547768 123.60913289152086,222.07435754226753 122.98794025508687,222.9731128111598 122.57381183095276,224.1714519363013 122.50479042669758,225.44468571193283 123.95423991139978,229.1145859255921 124.50641114357859,230.23802212334704 126.30096764839254,233.08405494573526 127.0602030926384,234.95644062419888 128.02650274895132,236.1547656520852 128.57867398136295,237.12840369949117 128.9237810014747,238.10204081633128" stroke="#4dd2ff" stroke-linecap="round" stroke-linejoin="round" stroke-width="0.5"><title>2023-09-23 1.0km</title><desc>9901004991</desc></polyline><polyline fill="none" points="152.3172224953305,214.95918367349077 151.85644046077505,215.81633636233164 151.39565842598677,217.31635174783878 150.3424423467368,219.5306559408782 149.2892262674868,221.0306655910099 148.36766219814308,223.5306765275891 148.30183619307354,224.88782262732275 148.43348820321262,225.67353792407084 149.75000830204226,228.81639275554335 149.94748631701805,229.74496155540692 150.21079033683054,230.24495977233164 151.13235440617427,231.3878118734574 151.85644046077505,232.8163751089014 152.44887450523674,234.31636424566386 153.43626457965001,235.74492317507975 154.5553066637367,238.10204081633128" stroke="#4dd2ff" stroke-linecap="round" stroke-linejoin="round" stroke-width="0.5"><title>2023-09-22 1.0km</title><desc>9895405405</desc></polyline><polyline fill="none" points="178.36966615729034,214.95918367349077 178.18092630896717,215.64187208242947 177.80344661232084,216.0514848868479 176.98557393578812,217.55339695687871 176.67100752191618,218.64569511817535 175.7273082798347,221.0350928659318 174.72069575544447,223.08314318407793 174.09156292723492,224.5850438796333 173.90282307891175,225.33599331619916 173.90282307891175,225.8138699142146 174.09156292723492,226.49655034183525 174.46904262411408,227.17923026758945 175.2869153006468,229.29553484742064 176.10478797671385,230.79742549383081 176.5451809563674,231.88970807450823 177.3630536326673,233.2550594934146 177.8663598948624,233.86946697707754 178.24383959174156,234.96174594387412 179.25045211659744,236.73669652448734 180.38289120676927,238.10204081633128" stroke="#4dd2ff" stroke-linecap="round" stroke-linejoin="round" stroke-width="0.5"><title>2023-09-21 1.0km</title><desc>9889267953</desc></polyline><polyline fill="none" points="25.2133734729141,245.57142857142026 24.387478205375373,248.04917335888604 23.90165746002458,249.99973238020902 23.124344266951084,251.63398044742644 22.201284850481898,254.37529142049607 20.598076390102506,257.3801779458299 20.160837719216943,259.0144091899856 20.209419793682173,259.3834286328056 20.500912240939215,260.17418394214474 21.13247921038419,261.5448244125582 21.521135806804523,262.7045950717293 22.49277729797177,264.0752307047951 23.075762192718685,265.1822806496639 23.415836714208126,265.97302956378553 23.80449331062846,266.6583445838769 24.436060280073434,267.13279306027107 25.2133734729141,268.29255468101474 25.26195554761216,268.50342022866243 25.553447994869202,268.71428571426077" stroke="#4dd2ff" stroke-linecap="round" stroke-linejoin="round" stroke-width="0.5"><title>2023-09-20 1.0km</title><desc>9882714971</desc></polyline><polyline fill="none" points="50.490361034404486,245.57142857142026 49.996921258280054,246.82080280093942 49.06486834771931,249.5575205620844 49.01004170579836,250.4499265262275 48.681081854738295,250.9258759713848 48.29729536245577,251.8182804263197 48.077988795004785,252.6511903629871 47.639375660801306,253.78156676259823 46.3783628991805,255.80434164166218 46.04940304835327,256.9942068553646 45.93974976474419,258.0650840517483 46.04940304835327,259.1359598307172 46.3783628991805,260.3258201451972 46.762149391463026,261.15872132440563 47.96833551139571,263.2409705213504 48.57142857136205,264.07386869972106 49.119694989174604,265.56118474318646 49.66796140745282,266.5130655762623 50.21622782526538,267.2864679286722 50.81932088523172,267.8813923121779 51.203107377979904,268.71428571426077" stroke="#4dd2ff" stroke-linecap="round" stroke-linejoin="round" stroke-width="0.5"><title>2023-09-19 1.0km</title><desc>9876194288</desc></polyline><polyline fill="none" points="74.11536565679125,245.57142857142026 73.70652894722298,246.23688557493733 73.0251344316639,247.56779826106504 72.82071607699618,248.45507240627194 71.59420594852418,250.5993150253198 70.64025362650864,252.59567473310744 70.43583527160808,253.3350662117009 70.50397472339682,254.14839620998828 70.9128114329651,255.1835425296449 71.52606649696827,256.292626689421 72.07118210964836,257.8453424582258 72.82071607699618,259.4719945018296 73.63838949566707,260.95076680369675 74.38792346324772,261.91196763399057 75.27373633347452,263.3907363479957 75.81885194592178,265.0913176808972 76.77280426817015,266.57008172001224 77.24978042929433,267.9009674960398 78.13559329975396,268.71428571426077" stroke="#4dd2ff" stroke-linecap="round" stroke-linejoin="round" stroke-width="0.5"><title>2023-09-18 1.0km</title><desc>9870505463</desc></polyline><polyline fill="none" points="100.23254423006438,245.57142857142026 99.90033818688244,246.220301167632 99.43524972675368,248.3832067202893 98.83727884967811,249.39256101218052 98.571514015086,250.18562436959473 97.10980742634274,252.56481059349608 96.57827775762416,253.86254610068863 96.24607171467505,255.01608733163448 96.51183654880151,255.8091461408767 97.9735431377776,258.9813749634195 98.70439643249847,260.13491017278284 99.23592610098422,261.3605398457148 100.0996618126519,262.5140722562792 100.56475027301349,263.30712500127265 101.16272115032189,265.18161075829994 103.75392828532495,268.71428571426077" stroke="#4dd2ff" stroke-linecap="round" stroke-linejoin="round" stroke-width="0.5"><title>2023-09-16 1.0km</title><desc>9856514700</desc></polyline><polyline fill="none" points="125.39437093050219,245.57142857142026 124.68344918824732,247.7314501705696 123.75925092352554,249.1971765802009 121.83976221969351,252.9000552307116 121.76867004530504,253.7486297477153 121.83976221969351,254.75148965540575 122.266315265093,255.75434860464884 122.97723700734787,256.83434947789647 123.61706657498144,258.3000631706673 124.75454136240296,260.22863069950836 126.1763848469127,262.92861928464845 126.31856919522397,263.9314704181161 126.8162144147791,264.31718213728163 127.38495180848986,265.08860515023116 128.30915007321164,266.6314494747785 129.30444051208906,267.4800128862262 129.5177170347888,268.02000742714154 129.6599013833329,268.71428571426077" stroke="#4dd2ff" stroke-linecap="round" stroke-linejoin="round" stroke-width="0.5"><title>2023-09-15 1.0km</title><desc>9850671982</desc></polyline><polyline fill="none" points="152.01691972091794,245.57142857142026 150.8402231358923,248.6837725614896 149.51643947698176,250.59905673458707 148.92809118470177,251.63650091725867 148.0455687455833,253.87099271186162 147.82493813615292,254.66902438079705 147.82493813615292,255.30744929309003 148.0455687455833,256.10547990584746 148.92809118470177,258.4995682234876 149.7370700868778,260.0956241681124 151.72274557454512,263.52713650179794 152.53172447672114,265.0433826817898 152.67881154967472,265.92120844946476 153.26715984288603,266.479824477341 154.22322581801564,267.9960665325634 155.03220472019166,268.71428571426077" stroke="#4dd2ff" stroke-linecap="round" stroke-linejoin="round" stroke-width="0.5"><title>2023-09-14 1.0km</title><desc>9844236351</desc></polyline><polyline fill="none" points="173.46474582399242,245.57142857136205 173.88812554394826,245.9159922673134 174.04689293913543,246.26055581122637 174.1527378691826,247.00710963463644 174.47027265909128,247.6388084665523 174.68196251941845,249.41904787998646 174.68196251941845,250.2804525909596 174.57611758937128,250.73986804834567 174.68196251941845,251.3141369901714 174.94657484441996,252.0032591629424 174.8407299143728,252.57752717577387 174.8936523795128,252.86466102383565 175.4228770295158,253.84091531776357 175.89917921484448,255.27658118045656 176.32255893503316,256.08055291092023 176.85178358503617,256.82709734817035 177.43393070041202,257.343935386627 177.59269809536636,257.688493889058 177.75146549055353,258.43503678945126 178.1748452107422,259.1815789762768 178.65114739583805,260.5598088313127 179.28621697588824,261.7657579596271 179.60375176602975,262.7994271591306 179.76251916121691,263.66081711358856 180.08005395135842,264.34992839349434 180.66220106650144,266.2449812780251 181.45603804197162,267.73805000964785 181.50896050711162,267.9677526380983 181.45603804197162,268.14002956519835 180.82096846145578,268.71428571426077 181.13850325159729,268.4845833052532 181.29727064678445,268.14002956519835 181.4031155765988,267.8529013323714 181.35019311192445,267.45092162903165 181.03265832178295,267.0489417188219 180.08005395135842,264.98161319905194 179.60375176602975,263.4311132186558 178.59822493093088,261.1914967020857 178.1219227456022,259.00930007349234 177.8573104206007,258.37761043792125 176.85178358503617,257.0568031852599 175.84625674970448,255.16172800853383 175.3699545643758,253.61120853491593 175.21118716988713,252.57752717577387 174.7878074492328,251.48641759040765 173.94104800908826,249.64875589578878 173.72935814899392,248.78735048812814 172.98844363866374,247.40909985953476 172.82967624347657,246.66254642023705 172.7767537785694,245.74371043837164" stroke="#4dd2ff" stroke-linecap="round" stroke-linejoin="round" stroke-width="0.5"><title>2023-09-13 1.0km</title><desc>9837636972</desc></polyline></svg>