<?xml version="1.0" encoding="utf-8" ?>
<svg baseProfile="full" height="300mm" version="1.1" viewBox="0,0,200,300" width="200mm" xmlns="http://www.w3.org/2000/svg" xmlns:ev="http://www.w3.org/2001/xml-events" xmlns:xlink="http://www.w3.org/1999/xlink"><defs /><rect fill="#222222" height="300" width="200" x="0" y="0" /><text fill="#FFFFFF" style="font-size:12px; font-family:Arial; font-weight:bold;" x="10" y="20">Over 1km Runs</text><text fill="#FFFFFF" style="font-size:4px; font-family:Arial" x="10" y="280">ATHLETE</text><text fill="#FFFFFF" style="font-size:9px; font-family:Arial" x="10" y="290">Jiakai</text><text fill="#FFFFFF" style="font-size:4px; font-family:Arial" x="120" y="280">STATISTICS</text><text fill="#FFFFFF" style="font-size:3px; font-family:Arial" x="120" y="285">Number: 27</text><text fill="#FFFFFF" style="font-size:3px; font-family:Arial" x="120" y="290">Weekly: 5.4</text><text fill="#FFFFFF" style="font-size:3px; font-family:Arial" x="141" y="285">Total: 27.4 km</text><text fill="#FFFFFF" style="font-size:3px; font-family:Arial" x="141" y="290">Avg: 1.0 km</text><text fill="#FFFFFF" style="font-size:3px; font-family:Arial" x="167" y="285">Min: 1.0 km</text><text fill="#FFFFFF" style="font-size:3px; font-family:Arial" x="167" y="290">Max: 1.0 km</text><polyline fill="none" points="20.65371090359986,32.31428805901669 24.91929812077433,37.45716448454186 25.393252256326377,41.31431684130803 29.421862405724823,53.65717579820193 33.213495487347245,62.65714966272935 34.39838082436472,64.19999999995343 35.34628909640014,64.19999999995343 35.34628909640014,63.428574916673824 35.109312027692795,62.65714966272935 32.9765184186399,61.11429864470847 30.606747743673623,56.742883731843904 28.0,48.51432319311425 23.260458648204803,37.971451710909605 22.54952744487673,34.37143953633495 21.36464210692793,31.800000000046566" stroke="#4dd2ff" stroke-linecap="round" stroke-linejoin="round" stroke-width="0.5"><title>2023-10-13 1.0km</title><desc>10028006924</desc></polyline><polyline fill="none" points="57.048070966266096,31.799999999813735 59.32739196065813,34.76795191434212 60.69498455803841,37.24124317523092 60.922916658222675,40.45651909708977 60.69498455803841,43.91912049916573 63.20223765168339,49.113015920389444 66.16535494476557,57.027507808292285 69.12847223784775,62.46871018107049 69.81226853653789,63.45801875856705 70.9519290337339,64.19999999995343 70.9519290337339,62.96336450614035 68.4446759391576,59.74811009480618 66.16535494476557,55.790869678603485 63.20223765168339,47.629046618472785 61.378780856728554,44.41377755184658 60.467052458785474,41.69316286453977" stroke="#4dd2ff" stroke-linecap="round" stroke-linejoin="round" stroke-width="0.5"><title>2023-10-12 1.0km</title><desc>10021974100</desc></polyline><polyline fill="none" points="96.21190333273262,36.3940492705442 97.1032201955095,41.22988367616199 96.88039098028094,43.16421544761397 98.88585392106324,49.69257677602582 100.44565843138844,52.594066539779305 102.00546294264495,57.91345779271796 104.23375509865582,63.23284044209868 104.67941353004426,63.71642025606707 105.79355960991234,64.19999999995343 105.57073039282113,63.23284044209868 103.11960902065039,56.94629638665356 100.44565843138844,52.352275823708624 96.88039098028094,44.13138090632856 95.98907411657274,40.98809212492779 95.54341568611562,36.3940492705442 94.20644039101899,31.800000000046566" stroke="#4dd2ff" stroke-linecap="round" stroke-linejoin="round" stroke-width="0.5"><title>2023-10-10 1.0km</title><desc>10009069592</desc></polyline><polyline fill="none" points="130.51119292061776,35.85001771640964 132.0480589028448,40.138266251189634 133.58492488600314,45.85592213761993 136.8782091345638,53.00297780823894 139.51283653266728,62.05589236272499 141.0497025148943,64.19999999995343 141.4888070812449,63.485297611914575 141.70835936442018,60.864720839774236 140.17149338219315,56.338265059748664 136.8782091345638,50.6206276693847 133.14582031965256,40.138266251189634 132.0480589028448,35.37354530626908 130.29164063651115,31.800000000046566" stroke="#4dd2ff" stroke-linecap="round" stroke-linejoin="round" stroke-width="0.5"><title>2023-10-09 1.0km</title><desc>10003389142</desc></polyline><polyline fill="none" points="165.40321855712682,31.799999999813735 167.02348066680133,33.809311263030395 168.64374277554452,37.576766695128754 169.5696068368852,45.11166509590112 173.04159707110375,52.6465468776878 176.05065527185798,61.186059473780915 177.43945136573166,63.69767676363699 178.59678144287318,64.19999999995343 178.59678144287318,62.19070661184378 174.19892714824528,55.15817044535652 168.4122767597437,41.093054683180526 166.097616603598,32.05116397282109" stroke="#4dd2ff" stroke-linecap="round" stroke-linejoin="round" stroke-width="0.5"><title>2023-10-08 1.0km</title><desc>9996447828</desc></polyline><polyline fill="none" points="23.841053381562233,79.08002667874098 24.907449951395392,83.01432208251208 28.106639658100903,91.57718331716023 29.17303622700274,95.28003501519561 32.58550524711609,103.84286288474686 33.65190181694925,105.0 33.86518113035709,104.0742903421633 33.86518113035709,103.1485804123804 29.8128741690889,95.97431922354735 27.893360344693065,91.80861167539842 24.480891323648393,81.62574779521674 23.414494753815234,76.30287402076647 22.134818870574236,72.5999999998603" stroke="#4dd2ff" stroke-linecap="round" stroke-linejoin="round" stroke-width="0.5"><title>2023-10-07 1.0km</title><desc>9989974159</desc></polyline><polyline fill="none" points="61.35291680507362,82.25109895179048 63.04705004952848,87.76599925826304 64.31764998380095,90.52344576292671 66.85884985141456,101.32342114928178 67.49414981901646,103.39149728463963 68.7647497523576,105.0 69.82358303014189,105.0 70.2471163412556,104.08085569227114 70.03534968663007,103.39149728463963 67.49414981901646,99.71491654124111 64.95294995047152,94.20003731758334 64.10588332824409,90.52344576292671 59.65878356061876,79.72343305964023 59.023483593948185,75.817036294844 57.75288365967572,72.5999999998603" stroke="#4dd2ff" stroke-linecap="round" stroke-linejoin="round" stroke-width="0.5"><title>2023-10-06 1.0km</title><desc>9984428862</desc></polyline><polyline fill="none" points="93.0247108573094,72.5999999998603 96.69591567013413,82.42626021034084 99.14338554441929,90.65905223996378 103.3040843307972,101.01640911051072 105.01731324288994,104.46885480266064 105.75155420601368,105.0 106.73054215591401,105.0 106.9752891426906,104.46885480266064 106.24104818049818,103.14099146495573 103.3040843307972,98.89182550739497 101.59085541870445,95.43937448575161 98.65389156900346,87.73774108709767 97.43015663232654,83.7541311616078 94.00369880814105,77.3803461433854 94.00369880814105,74.99017386231571" stroke="#4dd2ff" stroke-linecap="round" stroke-linejoin="round" stroke-width="0.5"><title>2023-10-04 1.0km</title><desc>9971682885</desc></polyline><polyline fill="none" points="131.09613310638815,76.38395843608305 132.18588130455464,80.16791242151521 133.27562950272113,82.76937820436433 134.14742806181312,86.7898211851716 138.28847121540457,95.06718797096983 138.50642085634172,97.90513739455491 139.81411869451404,103.58102873084135 140.25001797359437,104.29051444353536 141.55771581176668,105.0 141.55771581176668,102.63504753704183 138.72437049634755,97.43214599788189 136.76282373908907,92.9387242605444 135.67307553999126,90.81025914149359 134.58332734089345,87.73580703884363 132.40383094456047,83.24237175751477 131.53203238546848,79.69491841667332 131.09613310638815,76.14746116450988 130.442284187302,72.5999999998603" stroke="#4dd2ff" stroke-linecap="round" stroke-linejoin="round" stroke-width="0.5"><title>2023-10-03 1.0km</title><desc>9965060084</desc></polyline><polyline fill="none" points="166.07752940338105,73.93884868384339 169.03876470122486,83.57854468142614 169.53230391722172,87.86284582433291 171.25969117507339,90.00499450555071 172.49353921599686,93.21821516542695 174.71446568891406,101.51902208384126 176.44185294676572,104.19669769890606 177.67570098675787,105.0 177.92247059568763,104.73223258601502 177.18216177169234,102.59009256586432 174.46769608184695,97.50250496924855 170.0258431332186,86.79177101072855 167.3113774433732,78.75869987159967 166.81783822830766,72.60000000009313" stroke="#4dd2ff" stroke-linecap="round" stroke-linejoin="round" stroke-width="0.5"><title>2023-10-02 1.0km</title><desc>9958643020</desc></polyline><polyline fill="none" points="22.86423167027533,119.10242159059271 23.3419775608927,121.43522776500322 28.597182364203036,133.8768346242141 31.224784766323864,141.9120157205034 32.65802244003862,144.76320461090654 34.091260112822056,145.80000000004657 34.330133059062064,145.5408011812251 34.091260112822056,144.50400571641512 29.31380120012909,137.24642892670818 24.775215234607458,126.10083548212424 22.625358724035323,119.36162235308439 21.66986694186926,113.39999999990687" stroke="#4dd2ff" stroke-linecap="round" stroke-linejoin="round" stroke-width="0.5"><title>2023-10-01 1.0km</title><desc>9952075403</desc></polyline><polyline fill="none" points="59.34803781285882,118.09567254199646 61.29537082184106,122.0869887736626 62.16085215751082,126.07830001739785 62.80996316019446,129.83482368965633 66.05551817454398,138.99133162829094 68.8683325201273,144.86087419115938 70.16655452456325,145.80000000004657 70.59929519426078,145.09565566899255 66.27188850939274,138.52176775760017 64.3245555004105,134.06090753874741 63.67544449772686,131.71308386838064 60.6462598182261,125.13916840869933 58.91529714409262,117.86088907835074 57.4007048048079,113.39999999990687" stroke="#4dd2ff" stroke-linecap="round" stroke-linejoin="round" stroke-width="0.5"><title>2023-09-30 1.0km</title><desc>9945549317</desc></polyline><polyline fill="none" points="94.98367109242827,113.4000000001397 97.13352633826435,117.0288148066029 97.85014475416392,119.88002382032573 99.7611271943897,124.5456335961353 100.71661841589957,131.54403668292798 101.43323683086783,133.61763492948376 104.29971049167216,140.6160200086888 105.01632890757173,145.02240348723717 105.49407451786101,145.54080118145794 106.21069293282926,145.80000000004657 106.44956573843956,145.28160234354436 102.1498552467674,137.50562835554592 99.28338158503175,130.76643702597357 98.3278903644532,126.87843616842292 94.98367109242827,119.10242159152403 93.55043426156044,114.43680461170152" stroke="#4dd2ff" stroke-linecap="round" stroke-linejoin="round" stroke-width="0.5"><title>2023-09-28 1.0km</title><desc>9933629332</desc></polyline><polyline fill="none" points="129.66624555829912,117.08183401660062 131.47588968463242,123.46367002767511 134.86897242069244,128.12731170561165 137.13102757837623,136.47275950200856 140.297904798761,142.11819765344262 141.20272686239332,145.309093255084 142.10754892416298,145.80000000004657 142.55995995737612,145.06363985524513 142.10754892416298,144.08182607661 140.297904798761,141.62729036645032 135.0951779363677,131.0727662506979 132.3807117473334,123.70912501472048 129.44004004262388,113.4000000001397" stroke="#4dd2ff" stroke-linecap="round" stroke-linejoin="round" stroke-width="0.5"><title>2023-09-27 1.0km</title><desc>9927137811</desc></polyline><polyline fill="none" points="174.69157846015878,113.40000000002328 174.04559962963685,116.51542768091895 173.39962079934776,118.30679444799898 172.89719282020815,120.48758468410233 169.95440037013032,126.64050435979152 168.44711643271148,129.21070072986186 168.16001473017968,130.30108518438647 168.30356558109634,131.1578150400892 168.6624427093193,132.40396632021293 169.73907409328967,135.05203292350052 170.09795122151263,135.7529906220734 170.52860377519391,136.9991364966263 171.9641122869216,138.79046862316318 172.61009111744352,140.19237860897556 173.32784537388943,141.28275175992167 173.9020487787202,142.8404257428483 174.76335388608277,144.00867972685955 175.83998526982032,145.79999999998836" stroke="#4dd2ff" stroke-linecap="round" stroke-linejoin="round" stroke-width="0.5"><title>2023-09-26 1.0km</title><desc>9920397094</desc></polyline><polyline fill="none" points="27.848689053673297,154.19999999995343 26.43645355431363,158.9068005346926 25.024218055419624,161.42438540968578 23.712856519967318,163.06628629518673 23.006738770753145,164.37980569980573 22.70411687809974,165.69332394527737 22.8049908420071,167.33522012247704 23.30936066340655,168.6487357604783 24.519848234020174,170.509547597263 25.024218055419624,172.37035710806958 26.032957697287202,174.77846008108463 27.949563017580658,177.18655915919226 31.17752987286076,183.75408230198082 33.29588312190026,186.59999999997672" stroke="#4dd2ff" stroke-linecap="round" stroke-linejoin="round" stroke-width="0.5"><title>2023-09-25 1.0km</title><desc>9914573673</desc></polyline><polyline fill="none" points="66.3886880078353,154.20000000006985 65.5924586718902,155.4096160538029 65.43321280460805,156.01442361366935 65.5924586718902,156.79203287616838 65.67208160553128,157.56964162387885 64.07962293317541,160.50727002706844 63.681508264970034,162.49448507663328 63.12414772994816,163.96329404017888 59.77998451795429,169.83851153438445 59.700361584778875,170.52971166092902 60.01885331887752,171.91211069514975 60.894705588463694,173.29450810304843 61.37244319031015,174.50410450075287 62.089049592614174,175.71369965339545 62.487164260819554,176.92329356085975 63.52226239768788,178.56488330115099 64.31849173363298,180.2064707482932 65.19434400415048,181.1568624327192 65.43321280460805,182.02085420605727 65.99057333962992,182.71204716723878 67.18491734424606,184.78562361211516 68.06076961383224,185.73601159313694 68.29963841475546,186.59999999997672" stroke="#4dd2ff" stroke-linecap="round" stroke-linejoin="round" stroke-width="0.5"><title>2023-09-24 1.0km</title><desc>9907510217</desc></polyline><polyline fill="none" points="101.20787457050756,154.19999999995343 100.53146481141448,155.24855521530844 100.0483149830252,156.29710965952836 99.75842508627102,157.66022928454913 99.66179512022063,159.4427683664253 98.01908570434898,161.64472533285152 97.05278604850173,164.16124341636896 96.18311635777354,165.4195007927483 95.60333656379953,167.09717556799296 95.50670659774914,168.87970285385381 97.53593587642536,174.01756315294188 98.30897560156882,175.59037382982206 100.82135470816866,179.57481978123542 101.8842843300663,182.19615973101463 103.23710384918377,183.87381477002054 104.01014357432723,185.23690803640056 104.49329340271652,186.59999999997672" stroke="#4dd2ff" stroke-linecap="round" stroke-linejoin="round" stroke-width="0.5"><title>2023-09-23 1.0km</title><desc>9901004991</desc></polyline><polyline fill="none" points="137.24411149369553,154.19999999995343 136.59901664499193,155.40001376438886 135.953921796754,157.5000353041105 134.4794192854315,160.6000611743657 133.00491677457467,162.70007468445692 131.71472707763314,166.20008999563288 131.62257067020983,168.10009453527164 131.8068834845908,169.20009595074225 133.65001162327826,173.60009271476883 133.92648084368557,174.90008903469425 134.2951064715162,175.60008653835393 135.58529616845772,177.20007947995327 136.59901664499193,179.20006800955161 137.42842430714518,181.3000528010307 138.81077041151002,183.300035302178 140.3774293293245,186.59999999997672" stroke="#4dd2ff" stroke-linecap="round" stroke-linejoin="round" stroke-width="0.5"><title>2023-09-22 1.0km</title><desc>9895405405</desc></polyline><polyline fill="none" points="173.71753262076527,154.19999999995343 173.4532968327403,155.1557637724327 172.9248252576217,155.72922169871163 171.77980351028964,157.83189859671984 171.33941053086892,159.36111602257006 170.0182315921411,162.70627286937088 168.6089740577154,165.57354331482202 167.72818809840828,167.67620428849477 167.46395231038332,168.72753349971026 167.46395231038332,169.39656073693186 167.72818809840828,170.3523133356357 168.25665967399254,171.30806523177307 169.40168142085895,174.27089164347854 170.54670316772535,176.37353854847606 171.1632533390075,177.9027341613546 172.3082750858739,179.81422614783514 173.01290385285392,180.67439662502147 173.5413754284382,182.20358717849012 174.95063296332955,184.688517991337 176.53604768961668,186.59999999997672" stroke="#4dd2ff" stroke-linecap="round" stroke-linejoin="round" stroke-width="0.5"><title>2023-09-21 1.0km</title><desc>9889267953</desc></polyline><polyline fill="none" points="31.298722862033173,195.0000000000582 30.142469487618655,198.4688427025103 29.46232044417411,201.19962533231592 28.37408197368495,203.48757262638537 27.081798790721223,207.32540798879927 24.837306946283206,211.53224912419682 24.225172806996852,213.82017286599148 24.293187711155042,214.33680008596275 24.701277137501165,215.44385751907248 25.585470894584432,217.36275417759316 26.129590129479766,218.98643310042098 27.489888217067346,220.90532298677135 28.306067069759592,222.455192909576 28.782171400031075,223.56224138929974 29.32629063492641,224.52168241748586 30.210484392242506,225.185910284461 31.298722862033173,226.8095765534672 31.366737766657025,227.10478832013905 31.774827193003148,227.40000000002328" stroke="#4dd2ff" stroke-linecap="round" stroke-linejoin="round" stroke-width="0.5"><title>2023-09-20 1.0km</title><desc>9882714971</desc></polyline><polyline fill="none" points="66.68650544853881,195.0000000000582 65.9956897618249,196.74912392144324 64.6908156867139,200.5805287869298 64.61405838793144,201.82989713683492 64.15351459709927,202.49622636003187 63.616213507484645,203.7455925969407 63.309184313286096,204.91166650824016 62.695125924889,206.4941934676608 60.929708058945835,209.32607829838526 60.46916426764801,210.99188959761523 60.31564967054874,212.49111767252907 60.46916426764801,213.99034376308555 60.929708058945835,215.6561482033576 61.4670091480948,216.82220985426102 63.15566971618682,219.7373587299371 64.0,220.9034161796444 64.76757298503071,222.9856586405076 65.53514597052708,224.3182918067905 66.3027189555578,225.4010551001993 67.14704923937097,226.23394923715387 67.68435032945126,227.40000000002328" stroke="#4dd2ff" stroke-linecap="round" stroke-linejoin="round" stroke-width="0.5"><title>2023-09-19 1.0km</title><desc>9876194288</desc></polyline><polyline fill="none" points="99.76151191955432,195.0 99.18914052657783,195.93163980485406 98.23518820479512,197.7949175654212 97.94900250807405,199.03710136876907 96.23188832821324,202.03904103545938 94.89635507715866,204.83394462626893 94.61016938043758,205.86909269634634 94.70556461298838,207.00775469397195 95.27793600643054,208.45695954142138 96.1364930961281,210.00967736518942 96.89965495374054,212.18347944144625 97.94900250807405,214.46079230250325 99.09374529449269,216.53107352519874 100.1430928488262,217.87675468751695 101.38323086732998,219.94703088712413 102.14639272447675,222.32784475327935 103.481925975997,224.39811440801714 104.14969260105863,226.26135449449066 105.38983062002808,227.40000000002328" stroke="#4dd2ff" stroke-linecap="round" stroke-linejoin="round" stroke-width="0.5"><title>2023-09-18 1.0km</title><desc>9870505463</desc></polyline><polyline fill="none" points="136.32556192250922,195.0 135.8604734619148,195.90842163469642 135.20934961782768,198.9364894083701 134.3721903897822,200.349585417076 134.0001196213998,201.4598741173977 131.9537303969264,204.7907348308945 131.20958886109293,206.60756454092916 130.7445004004985,208.22252226434648 131.1165711688809,209.33280459721573 133.16296039288864,213.77392494876403 134.18615500582382,215.3888742418494 134.9302965416573,217.10475578403566 136.1395265380852,218.71970115881413 136.79065038263798,219.8299750017468 137.62780961068347,222.45425506157335 141.25549959996715,227.40000000002328" stroke="#4dd2ff" stroke-linecap="round" stroke-linejoin="round" stroke-width="0.5"><title>2023-09-16 1.0km</title><desc>9856514700</desc></polyline><polyline fill="none" points="171.55211930256337,195.0 170.55682886345312,198.02403023885563 169.2629512930289,200.0760472123511 166.57566710747778,205.26007732306607 166.47613806370646,206.44808164681308 166.57566710747778,207.85208551760297 167.17284137103707,209.25608804647345 168.16813181014732,210.76808926917147 169.06389320502058,212.82008843903895 170.65635790722445,215.52008297934663 172.6469387859106,219.30006699846126 172.84599687345326,220.70405858533923 173.5427001803182,221.24405499221757 174.3389325318858,222.32404721027706 175.63281010231003,224.48402926477138 177.02621671697125,225.6720180407865 177.3248038487509,226.42801039805636 177.52386193629354,227.40000000002328" stroke="#4dd2ff" stroke-linecap="round" stroke-linejoin="round" stroke-width="0.5"><title>2023-09-15 1.0km</title><desc>9850671982</desc></polyline><polyline fill="none" points="28.823687609750777,235.79999999993015 27.176312390249223,240.15728158608545 25.32301526842639,242.83867942832876 24.49932765867561,244.2911012840923 23.263796244282275,247.41938979644328 22.954913390800357,248.53663413296454 22.954913390800357,249.43042901018634 23.263796244282275,250.5476718681166 24.49932765867561,253.8993955127662 25.631898121908307,256.13387383532245 28.41184380510822,260.9379911024589 29.544414267875254,263.0607357544359 29.750336170196533,264.2896918291226 30.57402377994731,265.07175426813774 31.912516145501286,267.1944931454491 33.04508660873398,268.19999999995343" stroke="#4dd2ff" stroke-linecap="round" stroke-linejoin="round" stroke-width="0.5"><title>2023-09-14 1.0km</title><desc>9844236351</desc></polyline><polyline fill="none" points="58.85064415354282,235.79999999998836 59.44337576208636,236.2823891742737 59.66565011488274,236.76477813575184 59.81383301736787,237.80995348858414 60.25838172296062,238.69433185324306 60.554747527465224,241.18666703207418 60.554747527465224,242.39263362740166 60.40656462544575,243.03581526770722 60.554747527465224,243.83979178627487 60.92520478228107,244.8045628281543 60.77702188072726,245.60853804612998 60.851113331504166,246.01052543340484 61.59202784160152,247.37728144496214 62.25885090092197,249.38721365272067 62.851582508999854,250.51277407538146 63.59249701956287,251.55793628748506 64.40750298090279,252.28150954138255 64.62977733369917,252.76389144471614 64.8520516869612,253.80905150528997 65.44478329550475,254.85421056690393 66.11160635435954,256.7837323639542 67.00070376647636,258.47206114354776 67.44525247300044,259.9191980228643 67.66752682579681,261.12514395912876 68.11207553232089,262.0898997509503 68.92708149319515,264.7429737892817 70.03845325903967,266.8332700136234 70.11254471028224,267.1548536934424 70.03845325903967,267.39604139130097 69.14935584645718,268.20000000001164 69.5939045525156,267.87841662741266 69.81617890577763,267.39604139130097 69.9643618077971,266.99406186537817 69.8902703570202,266.4312902807724 69.44572165096179,265.86851840640884 68.11207553232089,262.9742584787309 67.44525247300044,260.8035585061298 66.03751490358263,257.6680953829782 65.37069184426218,254.61302010295913 65.00023458898067,253.7286546131363 63.59249701956287,251.8795244594803 62.184759449679404,249.22641921206377 61.517936390358955,247.05569194891723 61.29566203802824,245.60853804612998 60.702930429484695,244.08098462660564 59.51746721332893,241.50825825420907 59.221101408824325,240.3022906834376 58.18382109422237,238.37273980339523 57.96154674142599,237.32756498840172 57.887455290183425,236.04119461379014" stroke="#4dd2ff" stroke-linecap="round" stroke-linejoin="round" stroke-width="0.5"><title>2023-09-13 1.0km</title><desc>9837636972</desc></polyline></svg>