<?xml version="1.0" encoding="utf-8" ?>
<svg baseProfile="full" height="300mm" version="1.1" viewBox="0,0,200,300" width="200mm" xmlns="http://www.w3.org/2000/svg" xmlns:ev="http://www.w3.org/2001/xml-events" xmlns:xlink="http://www.w3.org/1999/xlink"><defs /><rect fill="#222222" height="300" width="200" x="0" y="0" /><text fill="#FFFFFF" style="font-size:12px; font-family:Arial; font-weight:bold;" x="10" y="20">Over 1km Runs</text><text fill="#FFFFFF" style="font-size:4px; font-family:Arial" x="10" y="280">ATHLETE</text><text fill="#FFFFFF" style="font-size:9px; font-family:Arial" x="10" y="290">Jiakai</text><text fill="#FFFFFF" style="font-size:4px; font-family:Arial" x="120" y="280">STATISTICS</text><text fill="#FFFFFF" style="font-size:3px; font-family:Arial" x="120" y="285">Number: 80</text><text fill="#FFFFFF" style="font-size:3px; font-family:Arial" x="120" y="290">Weekly: 6.2</text><text fill="#FFFFFF" style="font-size:3px; font-family:Arial" x="141" y="285">Total: 82.6 km</text><text fill="#FFFFFF" style="font-size:3px; font-family:Arial" x="141" y="290">Avg: 1.0 km</text><text fill="#FFFFFF" style="font-size:3px; font-family:Arial" x="167" y="285">Min: 1.0 km</text><text fill="#FFFFFF" style="font-size:3px; font-family:Arial" x="167" y="290">Max: 1.5 km</text><polyline fill="none" points="21.655694287270308,42.42393837927375 24.360322868917137,50.641307935118675 24.4955542976968,51.08152320620138 25.03648001467809,51.375 25.17171144299209,51.22826160863042 24.766017156187445,50.20109256601427 23.548934294376522,47.85327562747989 22.196620003785938,44.18480613187421 18.41013998957351,36.55436798359733 17.328288556542248,31.125" stroke="#4dd2ff" stroke-linecap="round" stroke-linejoin="round" stroke-width="0.5"><title>2023-12-10 1.0km</title><desc>10355395415</desc></polyline><polyline fill="none" points="40.18227618467063,32.46507978520822 42.5150186792016,36.18751898140181 43.61277985293418,40.803334082709625 45.94552234746516,47.35479551949538 46.76884322846308,50.92831100709736 47.317723815795034,51.375 47.45494396239519,51.22610367985908 47.45494396239519,50.92831100709736 47.180503668729216,49.737139878678136 44.29888058686629,43.930170593899675 43.61277985293418,42.29230445204303 43.20111941266805,39.761054172879085 42.5150186792016,37.82539006031584 41.417257505469024,35.889724097563885 41.280037358403206,33.805158684030175 40.04505603760481,31.125" stroke="#4dd2ff" stroke-linecap="round" stroke-linejoin="round" stroke-width="0.5"><title>2023-12-09 1.0km</title><desc>10350143310</desc></polyline><polyline fill="none" points="64.09134292509407,35.054120076587424 64.92695211526006,38.076515023829415 66.73743869457394,42.458979804767296 69.24426626553759,49.712694082874805 70.35841185320169,51.375 70.21914365515113,49.86381285847165 69.38353446451947,47.2947921679588 67.1552432901226,43.36569548945408 65.76256130589172,40.041069357073866 64.23061112361029,37.62315606547054 63.81280652852729,35.20523992937524 62.141588147263974,31.125" stroke="#4dd2ff" stroke-linecap="round" stroke-linejoin="round" stroke-width="0.5"><title>2023-12-08 1.0km</title><desc>10345303898</desc></polyline><polyline fill="none" points="85.48742344416678,31.125 85.74842956895009,31.833045549923554 86.27044181758538,33.67396276129875 86.53144794236869,36.22292214934714 87.05346019053832,38.34705239557661 88.88050306215882,42.87852242635563 90.05503062205389,46.9851579334354 91.22955818241462,49.534099706215784 91.49056430673227,51.375 91.75157043151557,51.2333923476981 92.01257655583322,50.95017701131292 92.01257655583322,50.525353929027915 91.3600612450391,48.82606066344306 89.27201224910095,45.285861543845385 86.79245406622067,38.06383516511414 86.13993875542656,35.09005172632169" stroke="#4dd2ff" stroke-linecap="round" stroke-linejoin="round" stroke-width="0.5"><title>2023-12-07 1.0km</title><desc>10340288256</desc></polyline><polyline fill="none" points="107.49076015828177,31.125 108.29631155310199,33.01889366377145 109.77315577678382,39.28329827217385 111.92129282932729,43.21675150946248 113.66665418446064,48.02429486287292 114.47220557928085,51.08363456081133 114.87498127669096,51.375 115.00923984171823,50.35522077570204 114.74072271026671,49.04407528694719 112.59258565772325,44.52790085342713 111.11574143450707,42.342651464859955 110.31019003968686,40.74013371474575 107.62501872470602,31.562052544555627" stroke="#4dd2ff" stroke-linecap="round" stroke-linejoin="round" stroke-width="0.5"><title>2023-12-06 1.0km</title><desc>10334845031</desc></polyline><polyline fill="none" points="131.88380621094257,34.61639471130911 132.78472735080868,39.22502590424847 133.6856484906748,42.576750658103265 135.8735998305492,48.30260009842459 137.03192701051012,50.95603666966781 137.41803607018664,51.375 136.90322399046272,48.86121863196604 135.61619379045442,46.48708872986026 134.4578666104935,43.13537087570876 132.78472735080868,39.643991821911186 132.0125092305243,36.990539449383505 130.725479030516,34.197427685023285 130.08196393027902,31.125" stroke="#4dd2ff" stroke-linecap="round" stroke-linejoin="round" stroke-width="0.5"><title>2023-12-05 1.0km</title><desc>10329306344</desc></polyline><polyline fill="none" points="152.5306627266109,32.82430888223462 153.44418416218832,34.24039847229142 154.61871172254905,38.34705239557661 156.9677668423392,44.152996451826766 158.14229440269992,48.11802135966718 159.18631890043616,50.38374621444382 159.96933727385476,51.375 159.96933727385476,50.66696163348388 156.57625765539706,42.87852242635563 155.27122703380883,38.48866099573206 153.8356933486648,35.23166056594346 152.79166885046288,31.125" stroke="#4dd2ff" stroke-linecap="round" stroke-linejoin="round" stroke-width="0.5"><title>2023-12-04 1.0km</title><desc>10324662812</desc></polyline><polyline fill="none" points="175.2329415678978,32.994238877203315 176.66847562231123,38.44617618306074 178.96533010853454,43.58656136528589 180.54441756755114,49.038471416104585 181.69284481089562,51.219231507973745 182.55416524317116,51.375 182.55416524317116,50.75192596309353 181.5492914058268,49.038471416104585 180.25731075694785,45.30002032138873 178.82177670300007,43.11925413669087 177.81690286565572,40.47117789497133 176.094262000639,34.24039721232839 174.9458347572945,31.125" stroke="#4dd2ff" stroke-linecap="round" stroke-linejoin="round" stroke-width="0.5"><title>2023-12-02 1.0km</title><desc>10313350310</desc></polyline><polyline fill="none" points="17.574163341429085,56.365535237127915 18.987946671899408,58.206451501348056 20.684486667625606,64.03600895602722 21.815513331908733,68.79168850171845 23.65343166096136,74.00758263748139 24.784458324778825,75.54166666662786 24.925836658570915,74.62121638434473 24.64307999238372,72.78031460160855 23.087918328586966,69.40532378258649 20.684486667625606,65.57010031607933 19.270703338086605,62.65532576770056 17.85692000715062,55.29166666662786" stroke="#4dd2ff" stroke-linecap="round" stroke-linejoin="round" stroke-width="0.5"><title>2023-12-01 1.0km</title><desc>10308709030</desc></polyline><polyline fill="none" points="40.017610910348594,55.29166666662786 42.81690272688866,64.91043894202448 45.61619454342872,70.6479330365546 47.171356664039195,74.86666954495013 47.637905300594866,75.54166666662786 47.79342151246965,75.03541884396691 47.171356664039195,73.3479252953548 44.83861348312348,70.14168413472362 44.21654863562435,68.45418698829599 41.883805454708636,63.89793849573471 40.79519197065383,58.66667907289229 39.70657848659903,55.62916813069023" stroke="#4dd2ff" stroke-linecap="round" stroke-linejoin="round" stroke-width="0.5"><title>2023-11-30 1.0km</title><desc>10303537703</desc></polyline><polyline fill="none" points="63.93334666127339,59.62099515367299 64.83426740439609,62.55376045848243 65.22037629410625,64.92790048394818 66.63610888971016,67.72100259759463 68.18054444855079,71.91064806748182 69.72498000692576,75.26235779037233 69.9823859333992,75.54166666662786 70.23979185940698,75.26235779037233 69.9823859333992,74.28477639867924 68.95276222750545,72.46926676505245 67.53702963190153,68.55893243080936 65.47778222057968,64.36927956866566 64.7055644406937,59.900306330178864 63.161128881853074,57.52616002096329 62.26020814012736,55.29166666662786" stroke="#4dd2ff" stroke-linecap="round" stroke-linejoin="round" stroke-width="0.5"><title>2023-11-29 1.0km</title><desc>10298007687</desc></polyline><polyline fill="none" points="85.25927883014083,57.91398048854899 86.73612240189686,61.70176099403761 87.00463941460475,64.46974986139685 88.88425850635394,68.98593392362818 89.95832655904815,73.0650590681471 90.89813610492274,74.9589357455261 91.83794565079734,75.54166666662786 92.2407211707905,75.54166666662786 92.50923818396404,75.10461849195417 92.37497967714444,74.5218874423299 91.83794565079734,73.50210769288242 89.6898095458746,67.82046805403661 87.54167344141752,62.8672304621432 87.13889792142436,60.536290840478614 86.1990883750841,57.76829647854902 84.99076181603596,55.29166666662786" stroke="#4dd2ff" stroke-linecap="round" stroke-linejoin="round" stroke-width="0.5"><title>2023-11-28 1.0km</title><desc>10292316108</desc></polyline><polyline fill="none" points="110.77453567041084,55.29166666662786 111.96319649508223,58.516204605577514 112.6763929896988,61.61175545130391 113.62732164887711,63.0305477634538 114.69711639126763,65.09424362389836 115.76691113319248,68.44774422014598 116.7178397923708,69.99551156384405 116.7178397923708,70.7693947236985 116.12350938050076,71.28531664074399 114.22165206121281,72.31716001965106 113.03299123700708,73.34900279145222 111.84433041280136,73.99390421563294 110.06133917579427,74.76778561191168 107.208553197328,75.54166666662786 106.73308886773884,75.412686514901 106.37649062043056,75.02574600162916 105.7821602076292,72.57512076944113" stroke="#4dd2ff" stroke-linecap="round" stroke-linejoin="round" stroke-width="0.5"><title>2023-11-27 1.0km</title><desc>10287544518</desc></polyline><polyline fill="none" points="131.79245392326266,59.681544879684225 132.44496928201988,61.23924119537696 134.01100614434108,69.16931199992541 135.70754607766867,73.27594297786709 136.62106758076698,74.83362830022816 137.2735829395242,75.54166666662786 137.40408601192757,75.40005901409313 137.01257679611444,74.69202059553936 137.01257679611444,73.5591585849179 135.96855222107843,71.15182459971402 134.79402457503602,67.18679735972546 133.61949692852795,64.77945541031659 132.83647849736735,60.24798004934564 130.61792627628893,56.70775750593748 130.0959139885381,55.29166666662786" stroke="#4dd2ff" stroke-linecap="round" stroke-linejoin="round" stroke-width="0.5"><title>2023-11-26 1.0km</title><desc>10281488289</desc></polyline><polyline fill="none" points="152.56276023760438,55.29166666662786 154.06775605864823,59.2110359123908 155.42225229833275,64.76346383988857 156.77674853801727,67.86628516553901 157.07774770259857,69.82595955929719 157.83024561405182,71.62232623505406 159.48574101738632,74.72513798053842 160.23823892790824,75.54166666662786 160.53923809248954,75.54166666662786 158.28174435999244,70.64249004633166 157.98074519541115,69.00942877214402 156.4757493743673,66.88644732057583 153.46575773041695,58.72111513547134 151.96076190844178,55.944895354798064" stroke="#4dd2ff" stroke-linecap="round" stroke-linejoin="round" stroke-width="0.5"><title>2023-11-25 1.0km</title><desc>10275889695</desc></polyline><polyline fill="none" points="174.825757259503,55.48091974109411 175.87222198955715,60.212242065463215 180.7557240659371,73.45989831234328 181.97659958526492,75.35241506807506 182.499831950292,75.54166666674428 182.67424273956567,74.97391182789579 180.93013485427946,72.70289122057147 178.83720539323986,66.45757421874441 177.44191908556968,63.618788754567504 176.5698651438579,58.1304613139946 175.52340041287243,55.29166666674428" stroke="#4dd2ff" stroke-linecap="round" stroke-linejoin="round" stroke-width="0.5"><title>2023-11-24 1.0km</title><desc>10271180196</desc></polyline><polyline fill="none" points="18.732119952328503,81.70834259723779 19.176451725885272,82.9940611361526 20.213225862011313,88.45835649198852 22.731105910614133,96.17263256455772 23.915990638546646,99.38690622732975 24.360322411172092,99.70833333337214 24.95276477560401,99.70833333337214 25.10087536741048,99.38690622732975 24.80465418472886,97.77976998663507 23.17543768323958,93.1190682076849 18.880230543203652,83.7976348393131 17.39912463352084,79.45833333337214" stroke="#4dd2ff" stroke-linecap="round" stroke-linejoin="round" stroke-width="0.5"><title>2023-11-23 1.0km</title><desc>10265414399</desc></polyline><polyline fill="none" points="41.97580239595845,84.02173206734005 42.10722444113344,86.01821563730482 42.63291261997074,89.15554281009827 44.7356653357856,95.14497150387615 45.39277555933222,97.99707390577532 46.44415191700682,99.70833333337214 47.23268418526277,99.70833333337214 47.101262141019106,98.85270380810834 45.65561964828521,95.14497150387615 44.47282124590129,93.29110269411467 42.7643346642144,88.0146971528884 40.79300399310887,82.59567111625802 40.26731581473723,79.45833333337214" stroke="#4dd2ff" stroke-linecap="round" stroke-linejoin="round" stroke-width="0.5"><title>2023-11-21 1.0km</title><desc>10253878272</desc></polyline><polyline fill="none" points="64.07050360320136,84.92733153922018 64.75159622682258,89.36164348723833 67.61218524770811,96.60433197044767 68.8381519713439,99.26490486052353 69.24680754588917,99.70833333337214 69.51924459589645,99.56052385340445 69.65546312043443,99.26490486052353 69.11058902135119,96.89995135425124 66.6586555740796,91.57879579428118 65.70512590091676,88.77040245919488 64.20672212773934,83.0057933239732 63.38941097864881,81.5276857551653 62.84453687956557,79.45833333337214" stroke="#4dd2ff" stroke-linecap="round" stroke-linejoin="round" stroke-width="0.5"><title>2023-11-20 1.0km</title><desc>10248671423</desc></polyline><polyline fill="none" points="85.14485171297565,81.1458408391336 87.12414881167933,85.44130833214149 87.68966226885095,89.89017605688423 89.24482427490875,93.41858164570294 90.79998628096655,97.86743236263283 91.50687810219824,98.9412914593704 92.35514828702435,99.70833333337214 92.21376992342994,98.48106619995087 89.81033773208037,92.19131081306841 88.25517572602257,86.51517382368911 86.70001371949911,82.83334698027465 85.85174353420734,79.45833333337214" stroke="#4dd2ff" stroke-linecap="round" stroke-linejoin="round" stroke-width="0.5"><title>2023-11-19 1.0km</title><desc>10242265034</desc></polyline><polyline fill="none" points="107.31435108883306,97.50100262020715 108.19876657472923,94.71784118225332 108.55253276927397,94.04604270448908 109.1716236085631,93.66215770493727 112.17863625986502,93.27827259234618 114.38967497413978,92.79841604270041 115.09720736276358,92.22258795029484 115.53941510571167,91.64675960410386 116.0700643970631,89.2474720927421 115.89318129979074,88.47969915752765 116.24694749386981,87.9038691597525 115.98162284819409,83.48916406824719 115.80473975138739,82.91333186859265 115.71629820251837,81.18583374435548 115.53941510571167,80.13013932073954 114.56655807141215,79.8422225114191 113.77058413438499,80.41805606614798 113.9474672311917,80.13013932073954 114.12435032846406,80.41805606614798 112.97461019689217,79.8422225114191 112.88616864895448,79.45833333337214 112.6208440028131,79.65027793648187 112.79772710008547,79.55430563853588 112.17863625986502,80.32208382477984 112.26707780873403,80.22611157631036 114.12435032846406,81.18583374435548 113.68214258598164,81.56972241401672 112.97461019689217,81.85763884219341 111.2942207744345,82.14555520680733 111.2057792255655,81.76166670629755 111.64798696851358,81.56972241401672 112.26707780873403,81.66569456376601 114.12435032846406,79.8422225114191 116.6891552368179,79.9381947881775 116.42383059114218,79.74625022732653 116.0700643970631,79.65027793648187 115.80473975138739,84.25693993968889 115.89318129979074,85.6005466276547 116.1585059450008,87.23206717451103 116.33538904273883,90.01524457638152 116.33538904273883,90.97495954553597 116.0700643970631,91.93467380886432 115.53941510571167,92.51050202839542 111.11733767716214,92.99035868374631 109.08318206015974,93.37424388108775 108.02188347745687,94.14201393676922 106.78370179748163,95.8694949108176 106.07616940885782,98.36474116996396 105.8108447631821,99.70833333337214" stroke="#4dd2ff" stroke-linecap="round" stroke-linejoin="round" stroke-width="0.5"><title>2023-11-18 1.0km</title><desc>10236386505</desc></polyline><polyline fill="none" points="129.61771481391042,79.45833333337214 132.55030430061743,84.52085287333466 133.61670047743246,88.28157324180938 134.01659904420376,90.45121633785311 134.81639617681503,91.75300104729831 137.34908709675074,99.12976479739882 137.8822851856239,99.70833333337214 137.8822851856239,99.12976479739882 137.34908709675074,98.40655388811138 135.88279235363007,94.06728284840938 135.0829952210188,92.62085704167839 134.81639617681503,90.16193073021714 133.61670047743246,87.12442927830853 132.28370525641367,84.23156639374793 132.1504057343118,82.64048999361694" stroke="#4dd2ff" stroke-linecap="round" stroke-linejoin="round" stroke-width="0.5"><title>2023-11-17 1.0km</title><desc>10231268371</desc></polyline><polyline fill="none" points="152.6380108250305,80.11156202177517 154.59450496174395,82.88778180221561 155.04600360803306,86.64383833552711 156.40049954969436,89.58335640921723 158.50749323517084,97.42205225571524 159.86198917590082,99.70833333337214 159.71148962620646,98.4018872914603 158.65799278393388,96.27891083422583 157.90549503918737,94.1559323478723 156.70149864722043,89.0934370001778 154.29350586421788,84.03093011502642 153.54100811854005,81.74463290069252 153.08950947131962,79.45833333337214" stroke="#4dd2ff" stroke-linecap="round" stroke-linejoin="round" stroke-width="0.5"><title>2023-11-16 1.0km</title><desc>10225818993</desc></polyline><polyline fill="none" points="175.23834346886724,79.67607600498013 176.24167390633374,83.59544136095792 177.84700260683894,87.95028567290865 180.0543295685202,92.08738183928654 180.85699391830713,95.35350630921312 182.26165653020144,98.18414460332133 183.66631914302707,99.70833333325572 180.0543295685202,92.95834871660918 178.4490008689463,87.95028567290865 173.83368085790426,79.45833333325572" stroke="#4dd2ff" stroke-linecap="round" stroke-linejoin="round" stroke-width="0.5"><title>2023-11-15 1.0km</title><desc>10219684298</desc></polyline><polyline fill="none" points="17.67195953754708,106.06110070296563 19.49605859722942,108.3449425091967 19.776689221151173,111.23780518153217 21.881418905220926,116.26224127179012 23.144256714731455,120.52538960729726 24.407094525173306,123.72274510003626 24.968355773948133,123.875 24.828040461521596,122.04794045770541 23.00394140277058,119.61185855988879 22.302364841103554,117.48028454906307 21.1798423435539,116.10998581175227 20.75889640673995,114.43517501314636 18.65416672360152,110.17201414098963 17.952590161934495,107.12689385912381 17.531644225586206,103.625" stroke="#4dd2ff" stroke-linecap="round" stroke-linejoin="round" stroke-width="0.5"><title>2023-11-14 1.0km</title><desc>10213806154</desc></polyline><polyline fill="none" points="41.04537082230672,106.41305567405652 42.12722249375656,110.52176220074762 45.10231458954513,118.15219473920297 45.778471883852035,120.64675289578736 47.130786473397166,123.43478479317855 47.53648085007444,123.875 46.72509209671989,122.40761559992097 44.83185167144984,117.85871710430365 44.696620212867856,116.68480613187421 43.34430562378839,113.45654739858583 41.31583374040201,109.78806522698142 40.5044449865818,107.29349349881522 39.96351915039122,103.625" stroke="#4dd2ff" stroke-linecap="round" stroke-linejoin="round" stroke-width="0.5"><title>2023-11-13 1.0km</title><desc>10208522228</desc></polyline><polyline fill="none" points="63.98794633941725,105.92614626057912 65.40172987710685,110.22161249048077 67.09827012289315,113.75002456456423 68.08791859960184,117.89206590806134 69.07756707584485,120.80683081340976 70.34997226018459,123.5681832843693 70.91548567498103,123.875 71.19824238307774,123.26136652345303 69.64308049110696,120.1931964349933 68.79481036867946,116.81820412701927 65.68448658520356,113.9034336496843 63.98794633941725,111.44888693199027 63.705189631320536,108.84092788083944 61.30175761692226,103.625" stroke="#4dd2ff" stroke-linecap="round" stroke-linejoin="round" stroke-width="0.5"><title>2023-11-12 1.0km</title><desc>10202270880</desc></polyline><polyline fill="none" points="85.68609941005707,107.40300021274015 89.02853641752154,114.95897980488371 90.1426820862107,118.73695918556768 91.25682775583118,121.75933769077528 91.9531687987037,123.11940656835213 92.64950984157622,123.875 92.78877805033699,123.27052527701017 91.5353641724214,119.49255422828719 89.16780462581664,115.8656954895705 86.66097687045112,110.12315606547054 85.68609941005707,106.04292093601543 84.71122194919735,103.625" stroke="#4dd2ff" stroke-linecap="round" stroke-linejoin="round" stroke-width="0.5"><title>2023-11-11 1.0km</title><desc>10196068378</desc></polyline><polyline fill="none" points="109.3674343591556,106.6447476092726 111.65925339981914,113.572389628971 113.78737108130008,119.25659388699569 114.76957924105227,122.98684566398151 115.42438468150795,123.875 115.75178740173578,123.51973830466159 115.26068332139403,121.38816703576595 112.80516292061657,115.88159922137856 110.34964251983911,110.73028248548508 107.07561531756073,105.57895476697013 106.7482125973329,103.625" stroke="#4dd2ff" stroke-linecap="round" stroke-linejoin="round" stroke-width="0.5"><title>2023-11-10 1.0km</title><desc>10191120477</desc></polyline><polyline fill="none" points="129.0489014852792,104.24332349712495 131.47067950852215,106.0982928982703 132.89525481592864,108.57158288673963 133.32262740842998,109.49906588252634 133.32262740842998,110.89028960908763 134.88966024620458,115.68227539851796 135.45949036907405,118.46471374866087 136.59915061527863,121.55630759662017 136.88406567648053,123.1021028162213 137.59635333064944,123.875 138.02372592221946,123.72042058606166 138.4510985147208,123.1021028162213 136.88406567648053,122.02004628209397 134.31983012333512,118.31013393669855 131.32822197815403,110.11738765251357 130.61593432398513,105.47996994620189 129.9036466702819,103.625" stroke="#4dd2ff" stroke-linecap="round" stroke-linejoin="round" stroke-width="0.5"><title>2023-11-09 1.0km</title><desc>10185506531</desc></polyline><polyline fill="none" points="152.2996659753844,105.25091993960086 153.7980685364455,108.20713464240544 154.3429421945475,109.68524036393501 156.11378158535808,113.52831015421543 156.79487365856767,116.1888926285319 156.65865524392575,114.56298153463285 156.93109207367525,115.59765238279942 157.4759657313116,119.58852066658437 158.7019314635545,123.28376201470383 159.24680512258783,123.875 159.92789719533175,123.57938102865592 160.2003340246156,123.13595249096397 158.7019314635545,121.80566629045643 157.61218414641917,120.03194998705294 156.93109207367525,118.11042222601827 155.9775631702505,114.85860183159821 154.615379024297,112.93706912617199 153.11697646277025,109.68524036393501 152.7083212188445,107.32027068792377 152.84453963348642,104.36405468103476 152.5721028042026,103.625" stroke="#4dd2ff" stroke-linecap="round" stroke-linejoin="round" stroke-width="0.5"><title>2023-11-08 1.0km</title><desc>10179505859</desc></polyline><polyline fill="none" points="177.83647836279124,114.81208925554529 182.40408654883504,123.875 182.66509273042902,123.73339234781452 182.01257727574557,122.17570748343132 180.83804945647717,120.19319765258115 180.05503091029823,118.21068578166887 178.4889938174747,116.51138826808892 177.96698145428672,115.52013069286477 177.5754721807316,112.12152941920795 177.31446599867195,111.13026958494447 175.74842890631407,108.43970460584387 174.83490726957098,103.625" stroke="#4dd2ff" stroke-linecap="round" stroke-linejoin="round" stroke-width="0.5"><title>2023-11-06 1.0km</title><desc>10167691585</desc></polyline><polyline fill="none" points="19.303250796161592,133.47334222809877 20.243060756940395,135.2215468159411 23.733783466741443,143.23413144191727 25.21062769088894,147.7503012274392 25.479144821874797,148.04166666662786 25.747661953326315,148.04166666662786 25.747661953326315,147.60461849172134 24.673593427054584,145.27369326492772 23.733783466741443,143.9625466199359 23.599524901248515,143.23413144191727 22.7939735064283,142.36003287544008 20.511577888391912,138.42658455425408 17.826406572479755,131.57945218426175 16.752338046673685,127.79166666662786" stroke="#4dd2ff" stroke-linecap="round" stroke-linejoin="round" stroke-width="0.5"><title>2023-11-05 1.1km</title><desc>10161301187</desc></polyline><polyline fill="none" points="39.96351998578757,127.79166666662786 42.66814856696874,133.80799246649258 43.88523142877966,139.0906050459016 45.778471435885876,142.75907777773682 46.45462858164683,145.69385110889561 47.13078572647646,148.04166666662786 47.53648001421243,147.6014514598064 47.401248584501445,147.161236156011 45.643240007106215,143.9329876281554 45.50800857739523,143.49277151515707 43.88523142877966,140.99821170803625 43.20907428301871,138.65038786502555 41.45106570562348,135.42212557129096 41.04537141835317,132.6340766614303 40.233982843812555,129.699284127797" stroke="#4dd2ff" stroke-linecap="round" stroke-linejoin="round" stroke-width="0.5"><title>2023-11-04 1.0km</title><desc>10155501797</desc></polyline><polyline fill="none" points="71.68291300861165,130.8676311909221 70.14752454962581,128.81698877830058 69.20267011318356,128.17616252915468 67.31296124076471,127.79166666662786 65.54135917266831,127.91983196383808 63.061116276774555,129.07331921171863 61.99815503554419,130.09864056913648 61.05330059956759,132.02111648779828 60.81708699045703,133.55909569596406 60.46276657702401,138.68568325287197 60.698980185668916,144.0685839559883 60.93519379524514,144.83756841346622 62.1162618403323,146.7600280722836 63.533543495461345,147.78533902321942 65.89567958610132,148.04166666662786 68.0216020680964,147.1445197496796 70.02941774576902,144.7094043608522 70.6199517683126,143.5559274625266 71.44669939996675,139.839163374505 71.44669939996675,136.8913793232059 72.03723342251033,133.04643611051142 71.91912661818787,131.63662147370633 70.6199517683126,130.09864056913648 69.55699052708223,129.32964960753452 67.07674763118848,128.17616252915468 65.77757278131321,128.17616252915468 62.943009472917765,129.07331921171863 61.64383462257683,130.22680569638032 60.81708699045703,131.76478648767807 60.580873381346464,132.7901062616147 60.81708699045703,137.01954395114444 60.580873381346464,138.94201223459095" stroke="#4dd2ff" stroke-linecap="round" stroke-linejoin="round" stroke-width="0.5"><title>2023-11-03 1.0km</title><desc>10152446508</desc></polyline><polyline fill="none" points="84.55896987952292,127.79166666674428 85.66603443957865,130.194218224613 86.61494691949338,134.4844827123452 88.19646772090346,137.57346826139838 90.5687489202246,143.75142709561624 91.04320516064763,144.78108531213365 91.83396556135267,147.52683833427727 92.3084218017757,148.04166666674428 92.9410301214084,148.04166666674428 92.9410301214084,147.69844779092818 91.83396556135267,147.18361938325688 91.35950932092965,145.98235265677795 90.25244476087391,144.9526949704159 89.4616843611002,142.72176842577755 88.35461980011314,141.00566963269375 87.0894031599164,138.43151907715946 85.66603443957865,133.11159893427975 84.7171219587326,130.8806610724423" stroke="#4dd2ff" stroke-linecap="round" stroke-linejoin="round" stroke-width="0.5"><title>2023-11-02 1.1km</title><desc>10144903556</desc></polyline><polyline fill="none" points="107.8015983053483,129.25906487507746 108.07206118293107,130.87320165871643 109.15391269512475,133.36777412006631 111.04715284146369,140.11777809017804 114.29270737851039,146.86775923275854 115.23932745074853,148.04166666662786 114.69840169558302,146.28080525714904 112.6699301097542,143.1992940522032 111.58807859802619,139.23734408430755 110.23576420778409,137.32973573950585 108.6129869390279,133.80799246625975 107.2606725487858,127.79166666662786" stroke="#4dd2ff" stroke-linecap="round" stroke-linejoin="round" stroke-width="0.5"><title>2023-11-01 1.0km</title><desc>10138966680</desc></polyline><polyline fill="none" points="130.80337887629867,128.09617941139732 131.50495533458889,130.38002356828656 132.6274776677601,136.47026234073564 134.45157645829022,140.4289079385344 135.57409879099578,144.08303562016226 137.39819758245721,148.04166666662786 137.538512873929,147.88941176596563 136.275675249286,146.06235208921134 134.45157645829022,141.79920657444745 132.90810825070366,139.05860839539673 130.2421177108772,130.98904825141653 129.96148712653667,127.79166666662786" stroke="#4dd2ff" stroke-linecap="round" stroke-linejoin="round" stroke-width="0.5"><title>2023-10-31 1.0km</title><desc>10133123337</desc></polyline><polyline fill="none" points="153.07055966323242,130.19167716510128 153.7617423455231,133.79168761963956 153.7617423455231,135.1416899022879 155.28234424535185,137.69169177673757 159.42944033676758,146.5416735591134 160.12062301905826,147.8916674052598 160.39709609141573,148.04166666662786 157.21765575464815,141.74168820353225 155.8352903914638,137.84169178793672 154.3146884907037,134.69168924051337 152.10290390858427,127.79166666662786" stroke="#4dd2ff" stroke-linecap="round" stroke-linejoin="round" stroke-width="0.5"><title>2023-10-30 1.0km</title><desc>10127985445</desc></polyline><polyline fill="none" points="175.55782746803015,130.7226017251378 176.17170680081472,134.85254762531258 176.54003440076485,136.1847862303257 178.9955517333001,141.9134010715643 180.22331039886922,145.24398277048022 182.06494839815423,147.77522076736204 182.55605186522007,148.04166666662786 182.6788277309388,147.6419978030026 181.5738449320197,145.91009837540332 179.9777586660348,142.44629455474205 177.15391373354942,137.25057640939485 176.04893093416467,133.3870840285672 175.18949986761436,131.65517097723205 175.06672400142998,128.9906861272175 174.82117226859555,127.79166666662786" stroke="#4dd2ff" stroke-linecap="round" stroke-linejoin="round" stroke-width="0.5"><title>2023-10-28 1.0km</title><desc>10115543824</desc></polyline><polyline fill="none" points="18.62350542237982,156.15834985300899 19.72939787618816,159.75835713127162 20.97352688619867,162.6083583884174 22.079419340007007,166.65835332649294 23.738258020952344,170.55834085447714 24.429440803825855,172.05833407258615 25.120623587165028,172.20833333337214 25.258860144298524,172.05833407258615 24.982387030962855,171.15833827387542 24.152967690490186,168.9083470409969 21.388236556667835,163.5083579585189 19.17645164905116,157.5083533268189 17.794086081907153,154.50834439438768 17.241139855235815,151.95833333337214" stroke="#4dd2ff" stroke-linecap="round" stroke-linejoin="round" stroke-width="0.5"><title>2023-10-27 1.0km</title><desc>10110442644</desc></polyline><polyline fill="none" points="41.00559645984322,155.0851847869344 43.61277982359752,163.87012255983427 44.57332106260583,166.55026548053138 45.5338623020798,168.18812885310035 46.631623717956245,171.31495524942875 47.04328424902633,171.91054068272933 47.866605311166495,172.20833333337214 48.003825487568974,171.76164434070233 47.866605311166495,171.16605886386242 46.49440354062244,169.37930138316005 44.43610088573769,165.8057816916844 41.96613769978285,158.5098260777304 40.31949557503685,155.82967251655646 39.49617451289669,151.95833333337214" stroke="#4dd2ff" stroke-linecap="round" stroke-linejoin="round" stroke-width="0.5"><title>2023-10-26 1.0km</title><desc>10104873905</desc></polyline><polyline fill="none" points="65.2357644313015,161.64314157445915 68.34608684293926,169.4203020510031 69.83363234438002,172.06159494200256 70.37455798033625,172.20833333337214 70.23932657158002,170.7409489332931 66.58807852305472,164.43118372070603 64.55960738519207,159.29531358892564 62.80159906577319,155.62682683265302 62.12544201966375,151.95833333337214" stroke="#4dd2ff" stroke-linecap="round" stroke-linejoin="round" stroke-width="0.5"><title>2023-10-25 1.0km</title><desc>10098978222</desc></polyline><polyline fill="none" points="85.00399029208347,151.95833333337214 84.86777175730094,152.99300981068518 85.68508296646178,156.39265734388027 86.77483124518767,158.60981568170246 87.45592391910031,161.27040245942771 88.68189073260874,164.81784601940308 91.27004289394245,169.84338034887332 92.08735410310328,171.9127143623773 92.359791173134,172.20833333337214 92.63222824316472,172.06052385317162 92.49600970791653,170.13899962371215 90.99760582484305,167.33061475423165 89.90785754658282,165.70470593159553 88.54567219736055,162.60069452796597 88.27323512826115,160.97478188038804 86.63861270993948,158.4620052020764 85.68508296646178,156.24484670103993 85.41264589643106,153.58425327285659 85.00399029208347,151.95833333337214" stroke="#4dd2ff" stroke-linecap="round" stroke-linejoin="round" stroke-width="0.5"><title>2023-10-24 1.0km</title><desc>10092835699</desc></polyline><polyline fill="none" points="109.1689931480214,155.45475099165924 111.18287074705586,162.59325122099835 112.12268029246479,164.34145143895876 113.19674834469333,168.71194523607846 114.80785042373464,171.62560241227038 115.47914295690134,172.20833333337214 114.80785042373464,171.4799196550157 113.86804087786004,169.14899408561178 111.45138775976375,166.23533326771576 110.91435373341665,165.21555096958764 110.37731970753521,161.86483400850557 108.7662176284939,158.65979509195313 107.69214957626536,155.3090670458041 107.02085704356432,151.95833333337214" stroke="#4dd2ff" stroke-linecap="round" stroke-linejoin="round" stroke-width="0.5"><title>2023-10-23 1.0km</title><desc>10087395010</desc></polyline><polyline fill="none" points="127.19377563544549,152.05545711726882 127.55179471336305,151.95833333331393 130.10268064355478,152.15258088690462 131.22149026207626,152.44395211013034 131.49000457045622,152.58963767357636 132.0717855724506,153.02669417095603 132.47455703490414,153.51231216220185 133.36960472958162,155.16341066139285 133.8171285772696,157.0087511582533 134.39890957879834,157.9799809277174 134.6674238871783,158.75696371495724 135.29395727347583,160.16524268721696 135.74148112116382,161.6220798434224 136.41276689223014,162.78754725470208 136.7260335853789,163.12747486226726 137.12880504806526,163.80732955259737 137.35256697167642,165.2641586754471 137.48682412598282,165.65264589898288 137.84484320366755,166.18681545805885 137.93434797343798,167.01234938157722 138.06860512751155,167.35227481479524 140.03771005617455,172.01409167813836 140.3062243645545,172.20833333331393 140.3062243645545,171.96553125529317 139.90345290186815,171.57704774482409 139.45592905464582,170.50871691276552 139.00840520719066,169.58606616745237 137.80009081913158,165.8468894250109" stroke="#4dd2ff" stroke-linecap="round" stroke-linejoin="round" stroke-width="0.5"><title>2023-10-22 1.5km</title><desc>10080655811</desc></polyline><polyline fill="none" points="153.02918930258602,151.95833333331393 153.7396622505039,152.47229997970862 152.46081094397232,152.2667133664363 154.45013519842178,154.83654168556677 154.639594651293,155.4532990763546 154.497500061756,155.96726315288106 153.83439197693951,156.327037781768 153.64493252406828,156.68681222532177 153.6922973874025,157.3035679833847 154.07121629291214,158.7940588190686 154.497500061756,159.87337778520305 154.97114869370125,161.51805110037094 155.82371623115614,163.00853295001434 155.96581082069315,163.5738873029477 156.48682431597263,164.49901162151946 156.81837835838087,164.91017759247916 156.86574322148226,165.16715620137984 157.19729726412334,165.4755304075079 157.43412157986313,165.98948711535195 157.7656756225042,166.96600381919416 158.09722966491245,167.6341460411786 158.04986480181105,168.97042856935877 158.66560802306049,170.1525225227815 158.85506747616455,170.7178710983717 159.18662151833996,171.3346144775278 159.75499987672083,172.05414773215307 160.03918905602768,172.20833333331393 158.94979720236734,170.6664757921826 158.7129728863947,169.8441503798822 158.23932425421663,168.81624225410633 158.04986480181105,168.14810116199078 157.43412157986313,167.2743772318354 156.91310808481649,165.78390447760466" stroke="#4dd2ff" stroke-linecap="round" stroke-linejoin="round" stroke-width="0.5"><title>2023-10-20 1.4km</title><desc>10069668027</desc></polyline><polyline fill="none" points="174.67527352948673,151.95833333331393 174.77171675954014,152.74322778818896 175.54326259996742,154.62697094748728 175.73614906030707,155.77814486814896 177.32746235630475,159.65026166231837 177.47212720150128,160.17351907264674 177.56857043178752,160.95840446691727 177.76145689189434,161.48166091559688 178.91877565253526,163.10375346138608 179.54565664823167,164.35956450609956 179.9314295684453,165.6153733349638 180.26898087374866,166.2956021921127 180.46186733385548,167.34210685663857 180.70297540910542,167.86535861185985 181.329856404569,169.48743660835316 181.4262996346224,170.11533677583793 182.34251032047905,171.9990339545766 182.58361839549616,172.20833333331393 182.7282832406927,172.20833333331393 182.82472647051327,172.1560084943194 182.7765048558358,172.10368365154136 181.81207255506888,170.90021120611345 181.37807801971212,169.4351115693571 180.46186733385548,167.76070829154924 180.31720248865895,167.08048083470203 180.22075925860554,165.9293251960189" stroke="#4dd2ff" stroke-linecap="round" stroke-linejoin="round" stroke-width="0.5"><title>2023-10-19 1.3km</title><desc>10064004415</desc></polyline><polyline fill="none" points="16.683780145365745,176.125 18.669093125034124,178.7101180711761 18.536738926544785,180.57714566180948 18.801447323989123,182.4441714681452 19.727926715277135,185.74736659962218 21.0514687015675,187.9016212853603 22.375010688323528,191.63565711281262 25.022094662766904,195.94415112154093 25.41915725870058,196.375 25.816219854168594,196.23138371750247 24.09561527147889,194.50798750738613 20.919114503078163,188.3324719374068 20.12498931074515,185.60374953609426 17.874967933166772,180.864380517276" stroke="#4dd2ff" stroke-linecap="round" stroke-linejoin="round" stroke-width="0.5"><title>2023-10-18 1.0km</title><desc>10058081424</desc></polyline><polyline fill="none" points="40.215541414916515,177.35227832128294 41.34656816208735,183.9488869321067 44.31551337428391,191.7727445284836 46.294810181483626,195.91477490961552 47.14308024197817,196.375 47.56721527222544,196.375 47.84997195890173,195.7613665240351 46.860323555767536,194.5340990293771 45.58791846502572,192.53978781227488 43.89137834357098,188.8579774799291 43.184486627113074,186.71025178639684 40.215541414916515,180.72728998365346 39.93278472870588,179.80683279887307 39.65002804156393,176.125" stroke="#4dd2ff" stroke-linecap="round" stroke-linejoin="round" stroke-width="0.5"><title>2023-10-17 1.0km</title><desc>10051702317</desc></polyline><polyline fill="none" points="61.72806673264131,176.59230987390038 63.16360110323876,179.0846274610376 65.31690265890211,184.69233131210785 66.46533015556633,186.8731010237243 67.75731108849868,190.92309596168343 69.33639889676124,194.97308315860573 69.91061264462769,196.06346300430596 70.62837982969359,196.375 70.77193326735869,196.21923150809016 70.62837982969359,195.75192596274428 69.04929202236235,193.4153966914164 66.895990466699,188.11925413680729 65.31690265890211,184.84810065152124 64.0249217255041,178.7730879226001 63.307154539972544,176.125" stroke="#4dd2ff" stroke-linecap="round" stroke-linejoin="round" stroke-width="0.5"><title>2023-10-16 1.0km</title><desc>10046279660</desc></polyline><polyline fill="none" points="84.60290070716292,176.125 85.19534346461296,177.41071986232419 85.78778622020036,180.3035867883591 87.12078242190182,184.80359439761378 88.89811068959534,187.53573735512327 90.97166033554822,195.25000492099207 91.71221378166229,196.05357289360836 92.74898860417306,196.375 92.8970992937684,196.05357289360836 92.74898860417306,195.08929129096214 90.8235496468842,192.35715777392033 89.7867748234421,189.14287867606618 88.6018893122673,187.21430894907098 85.78778622020036,180.62501621060073 84.75101139675826,176.125" stroke="#4dd2ff" stroke-linecap="round" stroke-linejoin="round" stroke-width="0.5"><title>2023-10-15 1.0km</title><desc>10039610121</desc></polyline><polyline fill="none" points="107.03601107932627,177.5947642774554 107.48750989232212,182.3306647790596 108.69150672666728,185.76010366680566 110.19650277029723,187.88308699114714 111.09950039628893,190.82259901426733 113.65799366869032,195.39516554027796 114.25999208539724,196.0483885614667 115.01249010767788,196.375 115.46398892067373,196.0483885614667 115.46398892067373,195.5584713134449 112.45399683434516,193.10888345376588 110.49750197865069,189.51614970644005 109.74500395730138,186.4133295211941 107.93900870531797,182.3306647790596 107.03601107932627,178.9012205969775 107.18651068396866,176.77822868782096 107.03601107932627,176.125" stroke="#4dd2ff" stroke-linecap="round" stroke-linejoin="round" stroke-width="0.5"><title>2023-10-14 1.0km</title><desc>10033377496</desc></polyline><polyline fill="none" points="129.15856931451708,176.44643003679812 131.8245613258332,179.66072780278046 132.1207826603204,182.0714480257593 134.6386640034616,189.7857348738471 137.0084346793592,195.41071853914764 137.7489880155772,196.375 138.34143068548292,196.375 138.34143068548292,195.89285932295024 138.193320017308,195.41071853914764 136.8603240121156,194.4464366529137 135.3792173396796,191.71430233237334 133.75,186.57145199575461 130.787786655128,179.9821573193185 130.3434546533972,177.73214971018024 129.60290131624788,176.125" stroke="#4dd2ff" stroke-linecap="round" stroke-linejoin="round" stroke-width="0.5"><title>2023-10-13 1.0km</title><desc>10028006924</desc></polyline><polyline fill="none" points="151.90504435403273,176.125 153.32961997529492,177.97996994643472 154.18436534842476,179.52577698463574 154.32682291138917,181.5353244356811 154.18436534842476,183.6994503120659 155.7513985321857,186.9456349503016 157.60334684047848,191.89219238027 159.45529514877126,195.29294386308175 159.88266783533618,195.9112617240753 160.5949556455016,196.375 160.5949556455016,195.60210281633772 159.02792246220633,193.59256880928297 157.60334684047848,191.11929354909807 155.7513985321857,186.01815413648728 154.61173803498968,184.008610969875 154.04190778639168,182.30822679039557" stroke="#4dd2ff" stroke-linecap="round" stroke-linejoin="round" stroke-width="0.5"><title>2023-10-12 1.0km</title><desc>10021974100</desc></polyline><polyline fill="none" points="176.3824395830743,178.99628079403192 176.93951262207702,182.01867729763035 176.80024436255917,183.22763465484604 178.0536587005481,187.30786048504524 179.02853651950136,189.12129158736207 180.0034143384546,192.44591112039052 181.39609693642706,195.77052527631167 181.67463345639408,196.07276266010012 182.37097475584596,196.375 182.2317064953968,195.77052527631167 180.69975563744083,191.84143524174578 179.02853651950136,188.97017238975968 176.80024436255917,183.83211306645535 176.24317132262513,181.86755757802166 175.96463480358943,178.99628079403192 175.12902524415404,176.125" stroke="#4dd2ff" stroke-linecap="round" stroke-linejoin="round" stroke-width="0.5"><title>2023-10-10 1.0km</title><desc>10009069592</desc></polyline><polyline fill="none" points="17.819495575036854,202.82292773935478 18.78003681404516,205.5030830736505 19.74057805305347,209.0766180026112 21.798880708869547,213.5435277967481 23.44552283268422,219.2015993933892 24.406064071692526,220.54166666662786 24.68050442589447,220.09497767395806 24.81772460276261,218.45711719151586 23.857183363754302,215.62808232894167 21.798880708869547,212.054558959906 19.46613769978285,205.5030830736505 18.78003681404516,202.52513248298783 17.68227539770305,200.29166666662786" stroke="#4dd2ff" stroke-linecap="round" stroke-linejoin="round" stroke-width="0.5"><title>2023-10-09 1.0km</title><desc>10003389142</desc></polyline><polyline fill="none" points="39.62701159808785,200.29166666662786 40.639675416518,201.54748620605096 41.6523392344825,203.90214585117064 42.23100427305326,208.61145735159516 44.4009981690906,213.32075846521184 46.281659544911236,218.65795383788645 47.14965710323304,220.22771464393009 47.87298840191215,220.54166666662786 47.87298840191215,219.28585829900112 45.12432946776971,214.89052319491748 41.50767297483981,206.0998258435866 40.06101037748158,200.44864414969925" stroke="#4dd2ff" stroke-linecap="round" stroke-linejoin="round" stroke-width="0.5"><title>2023-10-08 1.0km</title><desc>9996447828</desc></polyline><polyline fill="none" points="63.650658363476396,204.3416833409574 64.31715621938929,206.8006179681979 66.31664978573099,212.1524062398821 66.98314764164388,214.46668855112512 69.11594077944756,219.81845596968196 69.78243863536045,220.54166666662786 69.91573820635676,219.96309813053813 69.91573820635676,219.3845294243656 67.38304635509849,214.90061618143227 66.18335021473467,212.2970489638392 64.050557076931,205.93275903875474 63.384059221018106,202.6059629296651 62.5842617941089,200.29166666662786" stroke="#4dd2ff" stroke-linecap="round" stroke-linejoin="round" stroke-width="0.5"><title>2023-10-07 1.0km</title><desc>9989974159</desc></polyline><polyline fill="none" points="87.09557300293818,206.32360351155512 88.15440628072247,209.77041620307136 88.94853123975918,211.49382026866078 90.53678115690127,218.24380488495808 90.93384363641962,219.53635246958584 91.72796859499067,220.54166666662786 92.38973939372227,220.54166666662786 92.65444771293551,219.96720147447195 92.52209355402738,219.53635246958584 90.93384363641962,217.23848950501997 89.34559371881187,213.79168999032117 88.81617707991973,211.49382026866078 86.0367397251539,204.743812328903 85.63967724563554,202.30231435096357 84.84555228706449,200.29166666662786" stroke="#4dd2ff" stroke-linecap="round" stroke-linejoin="round" stroke-width="0.5"><title>2023-10-06 1.0km</title><desc>9984428862</desc></polyline><polyline fill="none" points="106.89044428616762,200.29166666662786 109.18494729418308,206.4330792982364 110.71461596526206,211.57857431669254 113.31505270767957,218.05192236078437 114.38582077715546,220.20970091840718 114.84472137875855,220.54166666662786 115.456588848494,220.54166666662786 115.6095557147637,220.20970091840718 115.15065511316061,219.3797863323707 113.31505270767957,216.72405760886613 112.24428463727236,214.56627572025172 110.40868223086,209.75275484623853 109.64384789578617,207.26299864286557 107.50231175590307,203.27938300638925 107.50231175590307,201.7855253306916" stroke="#4dd2ff" stroke-linecap="round" stroke-linejoin="round" stroke-width="0.5"><title>2023-10-04 1.0km</title><desc>9971682885</desc></polyline><polyline fill="none" points="130.68508319184184,202.65664068912156 131.36617581546307,205.02161193010397 132.04726843954995,206.64752804441378 132.59214253909886,209.1603049073601 135.18029451044276,214.3336591485422 135.3165130354464,216.10737753810827 136.13382418453693,219.6548096233746 136.4062612336129,220.09823819377925 137.22357238270342,220.54166666662786 137.22357238270342,219.0635713771917 135.45273156045005,215.81175791530404 134.22676483727992,213.0033693293808 133.54567221272737,211.67307863000315 132.86457958864048,209.75154606590513 131.50239434093237,206.94314901495818 130.9575202409178,204.72599067701958 130.68508319184184,202.50882989447564 130.27642761729658,200.29166666662786" stroke="#4dd2ff" stroke-linecap="round" stroke-linejoin="round" stroke-width="0.5"><title>2023-10-03 1.0km</title><desc>9965060084</desc></polyline><polyline fill="none" points="152.54845587722957,201.12844709400088 154.39922793861479,207.1532570925774 154.70768994838,209.83094530692324 155.78730698488653,211.16978823265526 156.55846201069653,213.1780511450488 157.94654105603695,218.36605546902865 159.02615809161216,220.03960272856057 159.79731311742216,220.54166666662786 159.95154412277043,220.37431203282904 159.48885110765696,219.03547452029306 157.79231005162,215.8557322723791 155.01615195907652,209.1615235483041 153.31961090210825,204.14085408637766 153.01114889234304,200.29166666662786" stroke="#4dd2ff" stroke-linecap="round" stroke-linejoin="round" stroke-width="0.5"><title>2023-10-02 1.0km</title><desc>9958643020</desc></polyline><polyline fill="none" points="175.54014479368925,203.8556801606901 175.8387359753251,205.31368401984219 179.12323897797614,213.08968830667436 180.765490478836,218.1116764920298 181.6612640246749,219.89366954844445 182.55703757051378,220.54166666662786 182.7063331613317,220.37966740492266 182.55703757051378,219.7316702393582 179.57112575042993,215.19568474590778 176.734509521164,208.2296888428973 175.39084920194,204.0176806373056 174.7936668386683,200.29166666662786" stroke="#4dd2ff" stroke-linecap="round" stroke-linejoin="round" stroke-width="0.5"><title>2023-10-01 1.0km</title><desc>9952075403</desc></polyline><polyline fill="none" points="18.342523633036762,227.39312867214903 19.559606763534248,229.88770131696947 20.100532598327845,232.382270844304 20.50622697547078,234.73009813937824 22.534698859322816,240.45291560108308 24.29270782507956,244.12137970281765 25.10409657796845,244.70833333337214 25.3745594965294,244.2681181265507 22.66993031837046,240.15943818190135 21.452847188338637,237.37140054511838 21.0471528111957,235.90401075116824 19.153912386856973,231.79531358892564 18.072060714941472,227.24638900742866 17.12544050300494,224.45833333337214" stroke="#4dd2ff" stroke-linecap="round" stroke-linejoin="round" stroke-width="0.5"><title>2023-09-30 1.0km</title><desc>9945549317</desc></polyline><polyline fill="none" points="40.61479443218559,224.45833333337214 41.95845396164805,226.72634258761536 42.40634047053754,228.50834822107572 43.600704496726394,231.4243543309858 44.19788650982082,235.79835626028944 44.64577301964164,237.0943551643286 46.43731905706227,241.46834583871532 46.88520556688309,244.22233551286627 47.1837965734303,244.54633407178335 47.63168308325112,244.70833333337214 47.780978586524725,244.38433479808737 45.093659528531134,239.52435105561744 43.30211349017918,235.31235647469293 42.70493147801608,232.88235593854915 40.61479443218559,228.02234682801645 39.719021413475275,225.10633621562738" stroke="#4dd2ff" stroke-linecap="round" stroke-linejoin="round" stroke-width="0.5"><title>2023-09-28 1.0km</title><desc>9933629332</desc></polyline><polyline fill="none" points="62.2914034742862,226.759479593602 63.42243105312809,230.74812710052356 65.54310776293278,233.6629031491466 66.95689223660156,238.87880802189466 68.93619049945846,242.40720686654095 69.50170428911224,244.40151661762502 70.0672180778347,244.70833333337214 70.34997497312725,244.24810824275482 70.0672180778347,243.63447463116609 68.93619049945846,242.10038981225807 65.68448621034622,235.5038122398546 63.98794484185055,230.90153646748513 62.150025026872754,224.45833333337214" stroke="#4dd2ff" stroke-linecap="round" stroke-linejoin="round" stroke-width="0.5"><title>2023-09-27 1.0km</title><desc>9927137811</desc></polyline><polyline fill="none" points="90.43223653757013,224.45833333331393 90.02849976834841,226.40547563385917 89.62476299959235,227.52507986332057 89.31074551236816,228.8880737608415 87.47150023118593,232.73364855814725 86.52944777044468,234.34002128941938 86.35000920621678,235.0215115735191 86.43972848821431,235.55696773336967 86.66402669320814,236.335812283447 87.33692130818963,237.99085391045082 87.56121951318346,238.4289524721098 87.83037735940889,239.2077936436981 88.72757017915137,240.3273762227618 89.1313069483731,241.20356996386545 89.57990335859358,241.88505318324314 89.93878048658371,242.85859942255775 90.4770961785689,243.58875816257205 91.14999079355039,244.70833333331393" stroke="#4dd2ff" stroke-linecap="round" stroke-linejoin="round" stroke-width="0.5"><title>2023-09-26 1.0km</title><desc>9920397094</desc></polyline><polyline fill="none" points="111.15543065872043,224.45833333331393 110.27278347173706,227.40008366759866 109.39013628475368,228.9735742143821 108.5705353252124,229.99976226786384 108.12921173195355,230.82071189570706 107.94007304892875,231.64166079915594 108.00311927613802,232.66784590989118 108.31835041474551,233.48879318370018 109.07490514637902,234.6518005816033 109.39013628475368,235.81480652588652 110.0205985608045,237.31987088400638 111.21847688616253,238.82493280782364 113.23595617059618,242.9296347720665 114.55992695130408,244.70833333331393" stroke="#4dd2ff" stroke-linecap="round" stroke-linejoin="round" stroke-width="0.5"><title>2023-09-25 1.0km</title><desc>9914573673</desc></polyline><polyline fill="none" points="135.24293000507168,224.45833333331393 134.74528667028062,225.21434336691163 134.64575800322928,225.59234809182817 134.74528667028062,226.07835388096282 134.7950510038063,226.56435934826732 133.79976433352567,228.40037710027536 133.5509426658973,229.64238650619518 133.20259233145043,230.56039210839663 131.11249032407068,234.23240304231877 131.062725990545,234.66440312145278 131.26178332441486,235.52840251784073 131.80919099319726,236.3924008976901 132.1077769943513,237.14839864632813 132.5556559956167,237.90439561667154 132.80447766324505,238.66039180883672 133.4514139990788,239.68638539657695 133.94905733386986,240.71237755101174 134.4964650028851,241.30637235374888 134.64575800322928,241.84636721207062 134.99410833767615,242.27836281282362 135.7405733403284,243.574348090915 136.28798100887798,244.16834057902452 136.437274009455,244.70833333331393" stroke="#4dd2ff" stroke-linecap="round" stroke-linejoin="round" stroke-width="0.5"><title>2023-09-24 1.0km</title><desc>9907510217</desc></polyline><polyline fill="none" points="157.00492160650901,224.45833333331393 156.58216550690122,225.1136803429108 156.28019686439075,225.76902687054826 156.09901567874476,226.62097663618624 156.0386219501961,227.7350635623443 155.01192856533453,229.11128666636068 154.40799128031358,230.68411046854453 153.86444772337563,231.47052132879617 153.5020853523165,232.51906806329498 153.441691623535,233.63314761698712 154.70995992282405,236.84431030391715 155.19310975074768,237.82731697696727 156.7633466925472,240.31759569660062 157.4276777061168,241.95593316521263 158.27318990556523,243.00446756463498 158.75633973395452,243.85640085610794 159.05830837669782,244.70833333331393" stroke="#4dd2ff" stroke-linecap="round" stroke-linejoin="round" stroke-width="0.5"><title>2023-09-23 1.0km</title><desc>9901004991</desc></polyline><polyline fill="none" points="179.52756968373433,224.45833333331393 179.12438540323637,225.20834193611518 178.72120112297125,226.5208553984412 177.79963705362752,228.45837156730704 176.8780729842838,229.77088001114316 176.0717044235207,231.95838958065724 176.01410666899756,233.14589241793146 176.12930217804387,233.8333933026297 177.2812572645489,236.58339128014632 177.4540505274199,237.3958889800706 177.68444154481404,237.83338741987245 178.4908101055771,238.83338300831383 179.12438540323637,240.0833758393419 179.64276519208215,241.39586633403087 180.5067315073684,242.64585539727705 181.48589333100244,244.70833333331393" stroke="#4dd2ff" stroke-linecap="round" stroke-linejoin="round" stroke-width="0.5"><title>2023-09-22 1.0km</title><desc>9895405405</desc></polyline><polyline fill="none" points="22.323457887861878,248.625 22.158310520462692,249.2223523578141 21.82801578589715,249.58076356170932 21.112377193989232,250.89493662299355 20.837131581734866,251.85069751407718 20.011394744971767,253.9414205433568 19.130608786130324,255.73346457176376 18.58011756138876,257.0476276803529 18.414970193989575,257.7047084373771 18.414970193989575,258.1228504606406 18.58011756138876,258.72019583481597 18.910412295954302,259.3175407698727 19.62605088809505,261.16930727718864 20.34168947977014,262.4834615928121 20.727033336879686,263.43920885090483 21.442671928554773,264.6338913424406 21.883064907975495,265.1714978906093 22.213359642773867,266.1272419865709 23.09414560184814,267.6803237446002 24.085029805777594,268.875" stroke="#4dd2ff" stroke-linecap="round" stroke-linejoin="round" stroke-width="0.5"><title>2023-09-21 1.0km</title><desc>9889267953</desc></polyline><polyline fill="none" points="45.81170178856701,248.625 45.089043429587036,250.79302668903256 44.663950277492404,252.49976583267562 43.9838012335822,253.92973289149813 43.17612424399704,256.3283799929777 41.77331684133969,258.9576557026012 41.390733004314825,260.3876080412301 41.43324231938459,260.71050005371217 41.6882982107345,261.40241094940575 42.24091930896975,262.60172136098845 42.580993830924854,263.6165206877631 43.43118013557978,264.81582686671754 43.941291918512434,265.784495568485 44.23885712493211,266.4764008682687 44.57893164665438,267.07605151092866 45.13155274488963,267.4911939277663 45.81170178856701,268.50598534586607 45.85421110410243,268.6904927000869 46.109266995452344,268.875" stroke="#4dd2ff" stroke-linecap="round" stroke-linejoin="round" stroke-width="0.5"><title>2023-09-20 1.0km</title><desc>9882714971</desc></polyline><polyline fill="none" points="67.92906590504572,248.625 67.49730610102415,249.71820245083654 66.6817598042544,252.11283049179474 66.63378649251536,252.8936857105 66.34594662301242,253.3101414749981 66.01013344223611,254.09099537302973 65.8182401957456,254.81979156762827 65.43445370299742,255.80887091724435 64.33106753672473,257.57879893644713 64.0432276672218,258.6199309984804 63.947281044209376,259.55694854533067 64.0432276672218,260.4939648518921 64.33106753672473,261.53509262710577 64.66688071750104,262.2638811588986 65.72229357250035,264.08584920619614 66.25,264.8146351122414 66.72973311552778,266.11603665031726 67.20946623152122,266.94893237925135 67.689199347049,267.6256594376173 68.21690577454865,268.1462182732066 68.55271895579062,268.875" stroke="#4dd2ff" stroke-linecap="round" stroke-linejoin="round" stroke-width="0.5"><title>2023-09-19 1.0km</title><desc>9876194288</desc></polyline><polyline fill="none" points="88.60094494954683,248.625 88.24321282887831,249.20727487810655 87.64699262776412,250.3718234784319 87.46812656731345,251.14818835549522 86.39493020484224,253.02440064720577 85.56022192304954,254.77121539146174 85.38135586259887,255.41818293527467 85.44097788305953,256.12984668376157 85.79871000372805,257.0355997134466 86.33530818484724,258.0060483532725 86.81228434597142,259.36467465094756 87.46812656731345,260.7879951891373 88.18359080865048,262.08192095329287 88.83943303022534,262.92297167977085 89.6145192917902,264.21689430449624 90.09149545268156,265.70490297081415 90.92620373470709,266.99882150505437 91.34355787560344,268.1633465591003 92.11864413740113,268.875" stroke="#4dd2ff" stroke-linecap="round" stroke-linejoin="round" stroke-width="0.5"><title>2023-09-18 1.0km</title><desc>9870505463</desc></polyline><polyline fill="none" points="111.45347620127723,248.625 111.16279591363855,249.19276352168527 110.7558435110841,251.08530588028952 110.23261899338104,251.96849088562885 110.00007476331666,252.662421323359 108.721081498079,254.74420926929452 108.25599303795025,255.87972783809528 107.96531275031157,256.88907641521655 108.19785698037595,257.5830028732307 109.4768502456136,260.3587030930212 110.11634687846527,261.368046401185 110.58143533836119,262.44047236500774 111.33720408612862,263.44981322425883 111.7441564889159,264.14373437612085 112.26738100638613,265.7839094134979 114.53468724968843,268.875" stroke="#4dd2ff" stroke-linecap="round" stroke-linejoin="round" stroke-width="0.5"><title>2023-09-16 1.0km</title><desc>9856514700</desc></polyline><polyline fill="none" points="133.4700745639857,248.625 132.8480180397164,250.51501889922656 132.03934455802664,251.79752950766124 130.35979194217362,255.0375483268872 130.29758628970012,255.78005102928728 130.35979194217362,256.6575534485164 130.73302585678175,257.53505502908956 131.35508238128386,258.4800557931885 131.91493325307965,259.7625552743557 132.91022369195707,261.450051862048 134.1543367409613,263.8125418740674 134.27874804567546,264.6900366158807 134.7141876127571,265.027534370136 135.2118328323122,265.7025295064668 136.02050631376915,267.05251829046756 136.8913854479324,267.7950112755061 137.0780024053529,268.2675064987852 137.20241371029988,268.875" stroke="#4dd2ff" stroke-linecap="round" stroke-linejoin="round" stroke-width="0.5"><title>2023-09-15 1.0km</title><desc>9850671982</desc></polyline><polyline fill="none" points="156.76480475603603,248.625 155.73519524396397,251.34830099134706 154.5768845428247,253.02417464280734 154.0620797870215,253.931938302645 153.28987265285105,255.88711862289347 153.09682086925022,256.58539633319015 153.09682086925022,257.1440181314829 153.28987265285105,257.8422949176165 154.0620797870215,259.93712219555164 154.76993632642552,261.3336711471202 156.50740237813443,264.33624443912413 157.21525891753845,265.66295984660974 157.34396010637283,266.43105739331804 157.8587648626417,266.9198464176734 158.69532259111293,268.246558215993 159.40317913074978,268.875" stroke="#4dd2ff" stroke-linecap="round" stroke-linejoin="round" stroke-width="0.5"><title>2023-09-14 1.0km</title><desc>9844236351</desc></polyline><polyline fill="none" points="175.53165259608068,248.625 175.90210985112935,248.9264932339429 176.0410313217435,249.22798633488128 176.1336456357967,249.88122093037236 176.411488577025,250.43395740829874 176.59671720466577,251.99166689504636 176.59671720466577,252.74539601715514 176.5041028908454,253.14738454233157 176.59671720466577,253.64986986643635 176.8282529891003,254.2528517676401 176.73563867527992,254.7553362788749 176.7819458320737,255.00657839589985 177.24501740117557,255.8608009031159 177.66178181325085,257.1170085329795 178.03223906829953,257.8204837971134 178.4953106371686,258.47371017967816 179.0046893628314,258.92594346334226 179.1436108336784,259.22743215295486 179.28253230429254,259.88065719080623 179.65298955957405,260.53388160432223 180.0697539714165,261.73983272747137 180.62543985410593,262.7950382147101 180.90328279556707,263.69949876429746 181.04220426618122,264.45321497449186 181.32004720764235,265.05618734436575 181.82942593330517,266.7143586183083 182.5240332868416,268.02079375850735 182.5703404438682,268.2217835584306 182.5240332868416,268.37252586957766 181.96834740391932,268.875 182.24619034538046,268.674010392162 182.3851118159946,268.37252586957766 182.47772612981498,268.12128866591956 182.4314189730212,267.76955642551184 182.1535760317929,267.4178240040201 181.32004720764235,265.60891154926503 180.90328279556707,264.25222406635294 180.02344681462273,262.29255961440504 179.60668240254745,260.38313756434945 179.37514661811292,259.83040913322475 178.4953106371686,258.67470278718974 177.61547465622425,257.01651200756896 177.19871024414897,255.6598074681242 177.05978877376765,254.7553362788749 176.6893315182533,253.8006153916358 175.94841700815596,252.19266140891705 175.7631883805152,251.43893167714123 175.1148881840054,250.23296237713657 174.97596671339124,249.57972811779473 174.92965955636464,248.77574663364794" stroke="#4dd2ff" stroke-linecap="round" stroke-linejoin="round" stroke-width="0.5"><title>2023-09-13 1.0km</title><desc>9837636972</desc></polyline></svg>