<?xml version="1.0" encoding="utf-8" ?>
<svg baseProfile="full" height="300mm" version="1.1" viewBox="0,0,200,300" width="200mm" xmlns="http://www.w3.org/2000/svg" xmlns:ev="http://www.w3.org/2001/xml-events" xmlns:xlink="http://www.w3.org/1999/xlink"><defs /><rect fill="#222222" height="300" width="200" x="0" y="0" /><text fill="#FFFFFF" style="font-size:12px; font-family:Arial; font-weight:bold;" x="10" y="20">Over 1km Runs</text><text fill="#FFFFFF" style="font-size:4px; font-family:Arial" x="10" y="280">ATHLETE</text><text fill="#FFFFFF" style="font-size:9px; font-family:Arial" x="10" y="290">Jiakai</text><text fill="#FFFFFF" style="font-size:4px; font-family:Arial" x="120" y="280">STATISTICS</text><text fill="#FFFFFF" style="font-size:3px; font-family:Arial" x="120" y="285">Number: 94</text><text fill="#FFFFFF" style="font-size:3px; font-family:Arial" x="120" y="290">Weekly: 5.9</text><text fill="#FFFFFF" style="font-size:3px; font-family:Arial" x="141" y="285">Total: 97.4 km</text><text fill="#FFFFFF" style="font-size:3px; font-family:Arial" x="141" y="290">Avg: 1.0 km</text><text fill="#FFFFFF" style="font-size:3px; font-family:Arial" x="167" y="285">Min: 1.0 km</text><text fill="#FFFFFF" style="font-size:3px; font-family:Arial" x="167" y="290">Max: 1.5 km</text><polyline fill="none" points="17.621943325269967,34.27274134848267 18.54996544169262,36.53848169394769 19.245982029940933,39.43358999455813 20.406009676400572,43.20981085568201 21.682040087413043,45.979034193907864 22.494059439748526,47.99301199009642 22.958070497959852,48.748253053287044 23.42208155663684,49.0 23.30607879208401,48.11888552387245 22.72606496885419,46.73427614511456 18.897973736282438,39.43358999455813 18.201957148499787,37.29372780956328 17.969951618928462,35.27973742748145 17.15793226659298,33.139870051061735 16.57791844336316,31.0" stroke="#4dd2ff" stroke-linecap="round" stroke-linejoin="round" stroke-width="0.5"><title>2024-01-05 1.0km</title><desc>10495609202</desc></polyline><polyline fill="none" points="39.06367148924619,31.0 39.835224987939,32.81396122346632 40.478186236694455,34.76745598623529 41.37833198485896,36.58141360874288 43.05003123218194,41.325602270895615 45.107507227919996,46.069779074634425 45.879060726612806,48.58139728754759 46.39342972589657,49.0 46.65061422530562,48.30232876108494 46.52202197536826,47.32558859628625 43.43580798152834,41.046532678068615 42.40706998342648,37.41862423438579 41.37833198485896,31.55814209987875" stroke="#4dd2ff" stroke-linecap="round" stroke-linejoin="round" stroke-width="0.5"><title>2024-01-04 1.0km</title><desc>10489071805</desc></polyline><polyline fill="none" points="63.21382897160947,34.30883703043219 64.79948446713388,38.67649259837344 66.7510604611598,43.04413756961003 67.72684845840558,46.75000984175131 68.58066295599565,49.0 68.70263645565137,49.0 68.70263645565137,48.07353380450513 68.09276895737275,45.82354248885531 66.87303396081552,43.04413756961003 65.89724596403539,40.2647283594124 64.31159046851099,37.08825543615967 63.33580247173086,34.176483665942214 62.72593497298658,32.32353554200381 63.09185547195375,31.0" stroke="#4dd2ff" stroke-linecap="round" stroke-linejoin="round" stroke-width="0.5"><title>2024-01-03 1.0km</title><desc>10482519748</desc></polyline><polyline fill="none" points="84.93842969229445,31.297521962667815 88.09159853076562,40.52068110543769 91.38186166621745,48.404961237101816 92.06733315251768,49.0 92.20442745042965,48.404961237101816 91.79314455855638,47.36364297999535 88.36578712565824,40.81820166797843 87.13193844957277,37.54547307221219 85.34971258416772,31.0" stroke="#4dd2ff" stroke-linecap="round" stroke-linejoin="round" stroke-width="0.5"><title>2024-01-01 1.0km</title><desc>10470902913</desc></polyline><polyline fill="none" points="119.04530136426911,35.40818125801161 118.8196204775013,35.77552916947752 116.44997116364539,37.48981835064478 115.4344071727246,38.59186046384275 114.75736451148987,39.81635084503796 114.30600273795426,40.42859569785651 113.96748140733689,40.55104464129545 112.50055564241484,40.55104464129545 111.14647032041103,41.040840325760655 109.34102322440594,40.918391417944804 108.43829967593774,40.55104464129545 107.87409745901823,39.69390184734948 107.53557612840086,38.95920767285861 107.42273568501696,37.24492000427563 107.08421435393393,36.510224749101326 105.73012903239578,36.510224749101326 104.60172459762543,36.87757241737563 104.48888415424153,37.00002162193414 104.9402459282428,37.24492000427563 105.16592681454495,37.00002162193414 104.37604371085763,37.00002162193414 104.15036282362416,36.7551232035039 103.9246819363907,35.89797845506109 103.8118414930068,34.42858643166255 104.37604371085763,34.55103581654839 104.82740548532456,35.530630571069196 105.84296947624534,36.63267398066819 106.63285258039832,36.63267398066819 107.30989524163306,36.142876999801956 107.87409745901823,36.26532625826076 107.98693790240213,36.020427731913514 106.97137391101569,33.081642604316585 106.74569302378222,32.959193111164495 105.50444814516231,32.83674360951409 104.26320326700807,32.959193111164495 105.0530863716267,32.959193111164495 103.9246819363907,31.734697686857544 103.8118414930068,31.0 104.15036282362416,31.489798494149 104.48888415424153,33.081642604316585 104.82740548532456,33.81633937230799 105.16592681454495,35.40818125801161 104.48888415424153,39.571452840580605 105.27876725839451,43.36736785795074 105.95580991962925,44.46940608078148 106.06865036301315,46.306134830927476 107.08421435393393,49.0" stroke="#4dd2ff" stroke-linecap="round" stroke-linejoin="round" stroke-width="0.5"><title>2023-12-31 1.5km</title><desc>10466792666</desc></polyline><polyline fill="none" points="131.89889533864334,35.273397946031764 133.21164575964212,39.935274790157564 135.001759970095,43.6906666085124 136.55319228582084,48.093529578414746 137.03055607527494,49.0 137.269237970002,49.0 137.38857891689986,47.964033765834756 136.91121512791142,46.539579198579304 134.76307807536796,42.13671234436333 134.76307807536796,40.97124574659392 133.21164575964212,37.604337910655886 132.97296386491507,35.01440442644525 132.49560007592663,33.46044250787236 131.1828496544622,31.0" stroke="#4dd2ff" stroke-linecap="round" stroke-linejoin="round" stroke-width="0.5"><title>2023-12-30 1.0km</title><desc>10458865202</desc></polyline><polyline fill="none" points="158.12161943456158,31.0 155.85501202195883,31.2236037919065 154.30959787638858,32.22982044820674 153.17629416985437,33.347838174086064 152.66115612117574,34.68945835984778 152.24904568260536,39.94412601995282 152.76418373081833,45.19877551647369 152.97023895010352,45.981381334131584 153.2793217790313,46.65218599990476 154.92776353424415,48.44099699554499 156.78226050874218,49.0 158.22464704420418,48.776398822665215 159.97611640859395,47.65839244390372 161.00639250548556,46.763986748992465 162.03666860237718,43.74536364292726 161.93364099320024,41.39754152763635 161.6245581638068,39.385119685321115 161.41850294498727,34.46585507784039 161.10942011559382,33.236036438611336 160.4912544572726,32.453424059203826 159.77006118930876,31.894414970069192 158.12161943456158,31.559009417891502 155.85501202195883,31.670811276882887 154.20657026628032,32.565225852420554 153.38234938913956,33.57144162070472 152.76418373081833,35.13666482537519 152.76418373081833,35.91927582339849 153.07326655974612,37.81990085518919 152.8672113409266,39.385119685321115" stroke="#4dd2ff" stroke-linecap="round" stroke-linejoin="round" stroke-width="0.5"><title>2023-12-29 1.0km</title><desc>10454615358</desc></polyline><polyline fill="none" points="177.48660630453378,32.90909918991383 179.24598189117387,39.18183983606286 182.01071495609358,47.63636975153349 182.89040275011212,49.0 183.0160724343732,49.0 183.0160724343732,47.63636975153349 181.13102716300637,41.909111761138774 179.62299094581977,38.22729371488094 178.61763346754014,36.318199999048375 176.98392756516114,31.0" stroke="#4dd2ff" stroke-linecap="round" stroke-linejoin="round" stroke-width="0.5"><title>2023-12-27 1.0km</title><desc>10441997651</desc></polyline><polyline fill="none" points="16.606919009704143,53.318191617610864 18.617633670568466,57.27274710254278 19.622991000767797,61.36365769722033 21.00535733019933,63.9545630736975 22.639062992762774,68.1818219712004 23.141741657163948,69.0 23.393080990295857,68.86363702046219 22.51339332573116,66.27273850073107 21.25669666333124,64.36365306563675 17.235267341602594,54.818196414853446 16.983928008936346,52.227278276346624 16.606919009704143,51.0" stroke="#4dd2ff" stroke-linecap="round" stroke-linejoin="round" stroke-width="0.5"><title>2023-12-17 1.0km</title><desc>10391591057</desc></polyline><polyline fill="none" points="39.93665061192587,54.16902771452442 41.3384868898429,57.84509256517049 43.674880685750395,62.408472511102445 45.777635101694614,68.49296031869017 46.24491386115551,69.0 46.36173355113715,68.87324009358417 46.36173355113715,68.36620037502144 45.777635101694614,66.71832025947515 42.623503477312624,60.50706566812005 41.22166719986126,56.704245691304095 40.17028999142349,52.39437291189097 39.352552162948996,51.0" stroke="#4dd2ff" stroke-linecap="round" stroke-linejoin="round" stroke-width="0.5"><title>2023-12-16 1.0km</title><desc>10386207035</desc></polyline><polyline fill="none" points="63.282153277657926,54.383472079527564 63.781052238773555,56.684229540871456 65.52719860337675,61.96242696943227 66.52499652607366,63.58648467215244 67.89696866972372,68.05263596656732 68.27114289067686,69.0 68.5205923714675,69.0 68.5205923714675,67.64662266056985 66.64972126623616,61.96242696943227 64.03050171909854,57.90227644436527 63.90577697940171,56.27821372705512 63.157428537495434,54.383472079527564 63.40687801782042,53.16542284714524 62.90797905670479,51.0" stroke="#4dd2ff" stroke-linecap="round" stroke-linejoin="round" stroke-width="0.5"><title>2023-12-14 1.0km</title><desc>10376526598</desc></polyline><polyline fill="none" points="92.43496336601675,52.565225852653384 91.50771501567215,51.7826131277252 89.96230109734461,51.111801900318824 88.51991477422416,51.0 87.07752845063806,51.33540567557793 85.22303174901754,52.34162225795444 84.39881099294871,53.459639901760966 83.78064542543143,55.360268009011634 83.78064542543143,59.60872224404011 83.98670061444864,60.95033690426499 84.39881099294871,62.62735356413759 84.08972820919007,64.63977111433633 84.19275580346584,65.42237722000573 84.29578339774162,65.86958052788395 85.32605934375897,67.65839244425297 86.97450085589662,68.88819941575639 87.48963882820681,69.0 88.51991477422416,69.0 89.55019071884453,69.0 91.40468742093071,68.32919637009036 92.43496336601675,67.32299037033226 93.05312893353403,66.20498292252887 93.25918412255123,63.745363643043675 93.36221171729267,62.0683482165914 93.05312893353403,60.05592726240866 93.25918412255123,57.37269517919049 93.1561565278098,55.02486322144978 93.05312893353403,54.242251763120294 92.33193577174097,52.67702763737179 92.02285298798233,52.34162225795444 90.88954944862053,51.55900941800792 88.62294236849993,51.33540567557793 87.18055604491383,51.55900941800792 86.356335288845,51.89441497018561 84.81092137098312,53.57144162082113 84.19275580346584,55.91927582328208 84.39881099294871,57.48449661070481" stroke="#4dd2ff" stroke-linecap="round" stroke-linejoin="round" stroke-width="0.5"><title>2023-12-13 1.0km</title><desc>10373769329</desc></polyline><polyline fill="none" points="109.26217786828056,53.552249595173635 110.50011704582721,58.65673809009604 111.7380562229082,61.34330525412224 114.21393457753584,68.328361393651 114.70911024836823,69.0 114.95669808378443,69.0 115.08049200149253,68.46268913464155 114.58531633066013,67.65672254085075 112.60461364686489,64.29852457169909 109.75735353911296,58.52240962779615 109.38597178598866,56.776138724409975 108.02423869119957,53.82090723980218 107.77665085578337,51.0" stroke="#4dd2ff" stroke-linecap="round" stroke-linejoin="round" stroke-width="0.5"><title>2023-12-12 1.0km</title><desc>10365882163</desc></polyline><polyline fill="none" points="130.78112462256104,51.0 132.06614083237946,53.788744695833884 133.8184356642887,58.225374688743614 135.10345187410712,60.63382618967444 136.97256636153907,66.46480010182131 137.20620567258447,67.98592048813589 137.67348429420963,69.0 137.79030394926667,68.11268045951147 137.55666463868693,67.09860042587388 135.10345187410712,61.52114957885351 133.35115704219788,58.09861399035435 132.8838784210384,56.704245691536926 132.53341945447028,53.788744695833884 131.59886221121997,51.126761220628396" stroke="#4dd2ff" stroke-linecap="round" stroke-linejoin="round" stroke-width="0.5"><title>2023-12-11 1.0km</title><desc>10361067591</desc></polyline><polyline fill="none" points="157.50347428722307,61.04350078164134 159.90758858202025,68.34782927564811 160.02779429685324,68.73913173889741 160.5086171561852,69.0 160.62882287008688,68.86956587433815 160.26820572651923,67.95652672543656 159.18635429348797,65.86957833555061 157.98429714608938,62.608716561691836 154.61853713355958,55.826104874373414 153.65689141536132,51.0" stroke="#4dd2ff" stroke-linecap="round" stroke-linejoin="round" stroke-width="0.5"><title>2023-12-10 1.0km</title><desc>10355395415</desc></polyline><polyline fill="none" points="176.82868994167075,52.191182031296194 178.90223882580176,55.50001687242184 179.87802653573453,59.60296362906229 181.95157541986555,65.42648490634747 182.68341620266438,68.60294311749749 183.17131005832925,69.0 183.2932835216634,68.86764771549497 183.2932835216634,68.60294311749749 183.0493365940638,67.5441243366804 180.48789385519922,62.382373861270025 179.87802653573453,60.92649284633808 179.51210614433512,58.67649259825703 178.90223882580176,56.95590227597859 177.92645111586899,55.23531030898448 177.80447765160352,53.382363274809904 176.70671647787094,51.0" stroke="#4dd2ff" stroke-linecap="round" stroke-linejoin="round" stroke-width="0.5"><title>2023-12-09 1.0km</title><desc>10350143310</desc></polyline><polyline fill="none" points="18.081193710677326,74.49255117913708 18.823957435786724,77.17912446556147 20.43327883956954,81.07464871532284 22.66157001350075,87.52239474025555 23.651921646669507,89.0 23.52812769310549,87.65672254085075 22.78536396799609,85.37314859370235 20.804660701658577,81.8806182127446 19.56672116043046,78.92539498396218 18.204987665172666,76.77613872475922 17.833605802617967,74.62687993713189 16.34807835286483,71.0" stroke="#4dd2ff" stroke-linecap="round" stroke-linejoin="round" stroke-width="0.5"><title>2023-12-08 1.0km</title><desc>10345303898</desc></polyline><polyline fill="none" points="39.95707480749115,71.0 40.18908025184646,71.6293738221284 40.65309113962576,73.26574467681348 40.88509658398107,75.5314863550011 41.3491074712947,77.41960212949198 42.97314557945356,81.44757549010683 44.0171700771898,85.09791816305369 45.06119457492605,87.36364418326411 45.29320001928136,89.0 45.525205463171005,88.87412653130013 45.75721090706065,88.62237956561148 45.75721090706065,88.24475904810242 45.1771972971037,86.7342761453474 43.32115374552086,83.58743248344399 41.11710202740505,77.16785348008852 40.537088417913765,74.52449042350054" stroke="#4dd2ff" stroke-linecap="round" stroke-linejoin="round" stroke-width="0.5"><title>2023-12-07 1.0km</title><desc>10340288256</desc></polyline><polyline fill="none" points="62.37273918837309,71.0 63.08878487255424,72.68346103455406 64.40153529355302,78.25182068638969 66.31099045136943,81.74822356412187 67.86242276709527,86.02159543370362 68.57846845127642,88.74100849858951 68.936491293367,89.0 69.05583224026486,88.09352957841475 68.81715034600347,86.92806692188606 66.9076951877214,82.91368964756839 65.59494476718828,80.97124574659392 64.87889908300713,79.5467855243478 62.492080136202276,71.38849115080666" stroke="#4dd2ff" stroke-linecap="round" stroke-linejoin="round" stroke-width="0.5"><title>2023-12-06 1.0km</title><desc>10334845031</desc></polyline><polyline fill="none" points="86.91258964734152,74.1034619655693 87.71340843848884,78.20002302597277 88.51422722963616,81.17933391826227 90.45907286508009,86.2689778652275 91.4886970249936,88.62758815078996 91.83190507767722,89.0 91.3742943406105,86.76552767283283 90.23026749584824,84.65518998203333 89.20064333640039,81.67588522285223 87.71340843848884,78.57243717496749 87.02699233172461,76.21381284378003 85.88296548742801,73.73104683100246 85.31095206504688,71.0" stroke="#4dd2ff" stroke-linecap="round" stroke-linejoin="round" stroke-width="0.5"><title>2023-12-05 1.0km</title><desc>10329306344</desc></polyline><polyline fill="none" points="108.1224938519299,72.51049678423442 108.9345129057765,73.7692430865718 109.97853740397841,77.41960212949198 112.0665863994509,82.58044129051268 113.1106108976528,86.10490787529852 114.0386326732114,88.11888552398887 114.734649005346,89.0 114.734649005346,88.37063256313559 111.7185782333836,81.44757549010683 110.55855101393536,77.54547644068953 109.2825210718438,74.6503649475053 108.35449929581955,71.0" stroke="#4dd2ff" stroke-linecap="round" stroke-linejoin="round" stroke-width="0.5"><title>2023-12-04 1.0km</title><desc>10324662812</desc></polyline><polyline fill="none" points="131.1594401234761,72.66154566861223 132.4354703943245,77.50771216268186 134.47711882647127,82.07694343582261 135.88075212342665,86.92308570316527 136.90157633973286,88.86153911822475 137.66719450149685,89.0 137.66719450149685,88.44615641166456 136.77397331316024,86.92308570316527 135.62554606981575,83.60001806344371 134.349515799433,81.66155923262704 133.45629461016506,79.3077136843931 131.92505828570575,73.76924196642358 130.9042340698652,71.0" stroke="#4dd2ff" stroke-linecap="round" stroke-linejoin="round" stroke-width="0.5"><title>2023-12-02 1.0km</title><desc>10313350310</desc></polyline><polyline fill="none" points="153.87544677965343,71.95454984041862 155.13214307278395,73.59091985307168 156.64017862454057,78.77274870162364 157.6455356599763,83.00001940899529 159.27924084104598,87.63636975188274 160.28459787601605,89.0 160.4102675053291,88.18182197131682 160.158928246703,86.54546483117156 158.7765623233281,83.54547299188562 156.64017862454057,80.13638546620496 155.3834823318757,77.54547475650907 154.12678603781387,71.0" stroke="#4dd2ff" stroke-linecap="round" stroke-linejoin="round" stroke-width="0.5"><title>2023-12-01 1.0km</title><desc>10308709030</desc></polyline><polyline fill="none" points="176.68232080945745,71.0 179.17058020224795,79.55001980031375 181.65883959503844,84.65001455100719 183.04120592400432,88.40000255848281 183.45591582311317,89.0 183.59415245614946,88.55000193545129 183.04120592400432,87.05000766995363 180.96765642985702,84.20001552719623 180.41470989910886,82.70001806365326 178.34116040496156,78.65001940354705 177.37350397417322,74.0000110277906 176.40584754385054,71.30000130133703" stroke="#4dd2ff" stroke-linecap="round" stroke-linejoin="round" stroke-width="0.5"><title>2023-11-30 1.0km</title><desc>10303537703</desc></polyline><polyline fill="none" points="17.94075258821249,94.84829198836815 18.741571026388556,97.4551944816485 19.08477892819792,99.56554117088672 20.343207901809365,102.04829860525206 21.716039509978145,105.77242791187018 23.088871117215604,108.75172544328962 23.317676385398954,109.0 23.546481653116643,108.75172544328962 23.317676385398954,107.8827642062679 22.402455313596874,106.2689778652275 21.14402633998543,102.79312512371689 19.31358419591561,99.06898924615234 18.62716839229688,95.09656858979724 17.2543367841281,92.98621631483547 16.453518346883357,91.0" stroke="#4dd2ff" stroke-linecap="round" stroke-linejoin="round" stroke-width="0.5"><title>2023-11-29 1.0km</title><desc>10298007687</desc></polyline><polyline fill="none" points="39.75427959486842,93.33094561949838 41.06702943658456,96.69786162441596 41.3057112256065,99.15829617308918 42.97648375155404,103.17268200626131 43.93121090950444,106.79857102350798 44.766597172711045,108.48201695899479 45.601983435451984,109.0 45.960006119683385,109.0 46.19868790963665,108.61151273362339 46.079347014427185,108.09352957829833 45.601983435451984,107.18705868988764 43.69252912001684,102.13671234436333 41.78307480504736,97.73383448482491 41.42505212081596,95.66188815457281 40.5896658571437,93.20144872169476 39.51559780491516,91.0" stroke="#4dd2ff" stroke-linecap="round" stroke-linejoin="round" stroke-width="0.5"><title>2023-11-28 1.0km</title><desc>10292316108</desc></polyline><polyline fill="none" points="65.29165075486526,91.0 66.34823815431446,93.8662559457589 66.98219059407711,96.61785669741221 67.8274605134502,97.87900541932322 68.77838917309418,99.71340173971839 69.72931783273816,102.69429115857929 70.57458775211126,104.07008435309399 70.57458775211126,104.75798049510922 70.04629405261949,105.21657775470521 68.35575421340764,106.13377186935395 67.29916681395844,107.05096544418484 66.24257941450924,107.62421115464531 64.6576983151026,108.31210572912823 62.12188855651766,109.0 61.69925359636545,108.8853509761393 61.382277376484126,108.54140385333449 60.853983676526695,106.36307031358592" stroke="#4dd2ff" stroke-linecap="round" stroke-linejoin="round" stroke-width="0.5"><title>2023-11-27 1.0km</title><desc>10287544518</desc></polyline><polyline fill="none" points="86.83138761343434,94.90211396722589 87.41140126576647,96.2867329143919 88.80343403248116,103.33568474079948 90.31146952882409,106.98602338775527 91.123488642741,108.370632563252 91.70350229507312,109.0 91.81950502563268,108.8741265310673 91.47149683441967,108.24475904798601 91.47149683441967,107.23777059407439 90.5434749899432,105.09791816282086 89.49945041537285,101.57344950502738 88.45542584080249,99.43358999444172 87.75940945744514,95.40561189572327 85.78736303886399,92.25874741270673 85.32335211662576,91.0" stroke="#4dd2ff" stroke-linecap="round" stroke-linejoin="round" stroke-width="0.5"><title>2023-11-26 1.0km</title><desc>10281488289</desc></polyline><polyline fill="none" points="108.15102497301996,91.0 109.48879903601483,94.48388377402443 110.6927956934087,99.41937526513357 111.89679235126823,102.17743866576348 112.1643471638672,103.91937146021519 112.83323419606313,105.51614183862694 114.30478566605598,108.27419672347605 114.97367269778624,109.0 115.24122751038522,109.0 113.23456641472876,104.64517633756623 112.96701160166413,103.19356631604023 111.62923753866926,101.30647169239819 108.95368941128254,94.04839863895904 107.61591534689069,91.58064772281796" stroke="#4dd2ff" stroke-linecap="round" stroke-linejoin="round" stroke-width="0.5"><title>2023-11-25 1.0km</title><desc>10275889695</desc></polyline><polyline fill="none" points="130.79749851673841,91.16822495521046 131.7276893882081,95.37384479888715 136.0685801235959,107.14953924051952 137.15380280651152,108.83177635679021 137.61889824271202,109.0 137.7739300550893,108.49532903218642 136.22361193504184,106.4766440478852 134.3632301921025,100.92525115737226 133.12297569587827,98.40188630030025 132.34781663678586,93.52337301988155 131.41762576438487,91.0" stroke="#4dd2ff" stroke-linecap="round" stroke-linejoin="round" stroke-width="0.5"><title>2023-11-24 1.0km</title><desc>10271180196</desc></polyline><polyline fill="none" points="154.9047415452078,93.00000823463779 155.2997031211853,94.14286915806588 156.22128013148904,99.00002058548853 158.45939572993666,105.85715487215202 159.51262659952044,108.71428701689001 159.9075881750323,109.0 160.43420360982418,109.0 160.56585746910423,108.71428701689001 160.30254975147545,107.28572146955412 158.85435730591416,103.14287544379476 155.03639540355653,94.85715689428616 153.71985681680962,91.0" stroke="#4dd2ff" stroke-linecap="round" stroke-linejoin="round" stroke-width="0.5"><title>2023-11-23 1.0km</title><desc>10265414399</desc></polyline><polyline fill="none" points="178.42293546302244,95.0563544301549 178.53975505847484,96.83100649237167 179.00703343981877,99.61974175705109 180.8761469651945,104.94367837370373 181.46024494152516,107.47888050868642 182.39480170421302,109.0 183.0957192759961,109.0 182.97889968100935,108.23944042192306 181.6938841319643,104.94367837370373 180.6425077742897,103.29579498723615 179.12385303527117,98.60565672838129 177.37155910488218,93.78874469583388 176.9042807240039,91.0" stroke="#4dd2ff" stroke-linecap="round" stroke-linejoin="round" stroke-width="0.5"><title>2023-11-21 1.0km</title><desc>10253878272</desc></polyline><polyline fill="none" points="18.06266986951232,115.86133173853159 18.66808553505689,119.8029423590051 21.2108313315548,126.24088767752983 22.30057953018695,128.6058413576102 22.663828929886222,129.0 22.905995196197182,128.86861379561014 23.02707832911983,128.6058413576102 22.54274579649791,126.50366046302952 20.36324939923361,121.77374440978747 19.51566746784374,119.27739477856085 18.18375300243497,114.15329776948784 17.45725420350209,112.83942437497899 16.97292167088017,111.0" stroke="#4dd2ff" stroke-linecap="round" stroke-linejoin="round" stroke-width="0.5"><title>2023-11-20 1.0km</title><desc>10248671423</desc></polyline><polyline fill="none" points="39.65256660198793,112.50000667187851 41.411941800732166,116.31819999893196 41.91462042974308,120.27274908765685 43.29698665719479,123.40910961094778 44.679352884646505,127.36364358162973 45.30770116997883,128.31818500091322 46.06171911256388,129.0 45.93604945577681,127.90909588139039 43.79966528574005,122.3182022041874 42.417299058288336,117.27274710254278 41.03493283037096,114.00001213059295 40.28091488778591,111.0" stroke="#4dd2ff" stroke-linecap="round" stroke-linejoin="round" stroke-width="0.5"><title>2023-11-19 1.0km</title><desc>10242265034</desc></polyline><polyline fill="none" points="62.21593112684786,127.03792825492565 63.002078224904835,124.56400697666686 63.31653706450015,123.9668527743197 63.86684003286064,123.62562166358111 66.5397401675582,123.2843904523179 68.50510791363195,122.85785129718715 69.13402559189126,122.34600410389248 69.5270991413854,121.83415668504313 69.99878740031272,119.70145667501492 69.84155798051506,119.01899184362264 70.15601682011038,118.50714295677608 69.92017269041389,114.5829606532352 69.7629432710819,114.07110980903963 69.6843285607174,112.53555592079647 69.5270991413854,111.5971608775435 68.6623373334296,111.34123482485302 67.9548049448058,111.85308687353972 68.1120343641378,111.5971608775435 68.26926378393546,111.85308687353972 67.247272556182,111.34123482485302 67.16865784674883,111.0 66.93281371658668,111.17061742488295 67.09004313638434,111.0853087156429 66.5397401675582,111.76777821453288 66.61835487745702,111.6824695491814 68.26926378393546,112.53555592079647 67.87619023490697,112.87679029384162 67.247272556182,113.13271600776352 65.75359306950122,113.38864166522399 65.67497835913673,113.04740744258743 66.06805190816522,112.87679029384162 66.61835487745702,112.96209887135774 68.26926378393546,111.34123482485302 70.54909036913887,111.4265435153502 70.31324623990804,111.25592612795299 69.99878740031272,111.17061742488295 69.7629432710819,115.26542809442617 69.84155798051506,116.45974515046692 70.07740210974589,117.90998563647736 70.23463153000921,120.38392110483255 70.23463153000921,121.23700107744662 69.99878740031272,122.0900804225821 69.5270991413854,122.60192772879964 65.59636364970356,123.02846697799396 63.78822532342747,123.36969826457789 62.84484880557284,124.05216053628828 61.744242867454886,125.58769917994505 61.11532518919557,127.80569585470948 60.879481059499085,129.0" stroke="#4dd2ff" stroke-linecap="round" stroke-linejoin="round" stroke-width="0.5"><title>2023-11-18 1.0km</title><desc>10236386505</desc></polyline><polyline fill="none" points="84.89828618383035,111.0 87.50503239454702,115.50001736893319 88.45294010685757,118.84287991863675 88.80840549943969,120.77145155961625 89.51933628413826,121.92859352345113 91.77061710180715,128.48571685689967 92.24457095889375,129.0 92.24457095889375,128.48571685689967 91.77061710180715,127.84286271536257 90.46724399691448,123.98573290230706 89.7563132122159,122.70002107415348 89.51933628413826,120.51430879719555 88.45294010685757,117.81430750666186 87.26805546600372,115.24287383153569 87.1495670019649,113.82858369813766" stroke="#4dd2ff" stroke-linecap="round" stroke-linejoin="round" stroke-width="0.5"><title>2023-11-17 1.0km</title><desc>10231268371</desc></polyline><polyline fill="none" points="108.21791438385844,111.58064772293437 109.95702028274536,114.04839863884263 110.35835241340101,117.38711555744521 111.56234880536795,120.00002051191404 113.43523208145052,126.96775015315507 114.63922847341746,129.0 114.5054510962218,127.8387146294117 113.56900945864618,125.95162444526795 112.90012257406488,124.0645324572688 111.82990355882794,119.56453659269027 109.68946552928537,115.06453047250398 109.02057864470407,113.03226628201082 108.61924651404843,111.0" stroke="#4dd2ff" stroke-linecap="round" stroke-linejoin="round" stroke-width="0.5"><title>2023-11-16 1.0km</title><desc>10225818993</desc></polyline><polyline fill="none" points="131.16424181405455,111.19354904140346 132.0560910915956,114.67742935777642 133.48304993566126,118.54840207961388 135.44511834625155,122.22582089412026 136.15859776828438,125.12904264521785 137.40718675684184,127.64516557333991 138.6557757453993,129.0 135.44511834625155,123.00001367391087 134.01815950218588,118.54840207961388 129.9156528254971,111.0" stroke="#4dd2ff" stroke-linecap="round" stroke-linejoin="round" stroke-width="0.5"><title>2023-11-15 1.0km</title><desc>10219684298</desc></polyline><polyline fill="none" points="153.96237673191354,113.16542284714524 155.58379811793566,115.19550445268396 155.83324756193906,117.7669379391009 157.70411839196458,122.23310335271526 158.82664088951424,126.02256853983272 159.94916338752955,128.86466231115628 160.44806227553636,129.0 160.323337553069,127.37594707356766 158.70191616751254,125.21054094214924 158.07829255750403,123.31580848805606 157.08049478149042,122.09776516607963 156.7063206154853,120.60904445615597 154.83544978592545,116.81956812529825 154.21182617591694,114.11279454140458 153.83765200991184,111.0" stroke="#4dd2ff" stroke-linecap="round" stroke-linejoin="round" stroke-width="0.5"><title>2023-11-14 1.0km</title><desc>10213806154</desc></polyline><polyline fill="none" points="177.5958851748146,113.47827171022072 178.55753110535443,117.1304552895017 181.20205741235986,123.91306199040264 181.80308611830696,126.13044701842591 183.00514353159815,128.60869759391062 183.36576075525954,129.0 182.6445263074711,127.695658311015 180.9616459296085,123.65219298156444 180.84144018869847,122.60871656169184 179.63938277587295,119.73915324313566 177.83629665756598,116.47828020178713 177.11506220977753,114.26088311010972 176.63423924474046,111.0" stroke="#4dd2ff" stroke-linecap="round" stroke-linejoin="round" stroke-width="0.5"><title>2023-11-13 1.0km</title><desc>10208522228</desc></polyline><polyline fill="none" points="17.989285634830594,133.04546334268525 19.245982112828642,136.86365554714575 20.754017886705697,140.000021835207 21.633705421816558,143.68183636269532 22.513392956461757,146.27273850084748 23.644419786985964,148.72727403056342 24.147098377346992,149.0 24.39843767369166,148.45454802096356 23.016071547288448,145.72728572005872 22.262053661048412,142.7272925573634 19.49732140870765,140.1363854664378 17.989285634830594,137.95456616173033 17.737946338951588,135.6363803385757 15.601562325842679,131.0" stroke="#4dd2ff" stroke-linecap="round" stroke-linejoin="round" stroke-width="0.5"><title>2023-11-12 1.0km</title><desc>10202270880</desc></polyline><polyline fill="none" points="40.13367566652596,134.35822241124697 43.10473078396171,141.07464871543925 44.09508248977363,144.4328526093159 45.08543419558555,147.11941128061153 45.70440401183441,148.32836139411665 46.323373827617615,149.0 46.44716779096052,148.4626891349908 45.3330221218057,145.10449264734052 43.22852474683896,141.880618212861 41.00023340899497,136.77613872487564 40.13367566652596,133.14926305413246 39.267117923125625,131.0" stroke="#4dd2ff" stroke-linecap="round" stroke-linejoin="round" stroke-width="0.5"><title>2023-11-11 1.0km</title><desc>10196068378</desc></polyline><polyline fill="none" points="64.0408940333873,133.68422009726055 66.0780665143393,139.84212411462795 67.96972667612135,144.8947501218645 68.8428005957976,148.21052947919816 69.42484987620264,149.0 69.71587451640517,148.6842118264176 69.27933755610138,146.78948180971202 67.09665275551379,141.89475486346055 64.91396795399487,137.31580665381625 62.00372155243531,132.73684868169948 61.712696912232786,131.0" stroke="#4dd2ff" stroke-linecap="round" stroke-linejoin="round" stroke-width="0.5"><title>2023-11-10 1.0km</title><desc>10191120477</desc></polyline><polyline fill="none" points="84.3926743362099,131.54962088621687 86.54536591237411,133.1984825761756 87.81165507482365,135.39696256595198 88.19154182355851,136.22139189543668 88.19154182355851,137.45803520805202 89.58445990132168,141.71757813193835 90.0909755663015,144.19085666537285 91.10400689626113,146.93894008581992 91.35726472828537,148.31298028095625 91.9904093099758,149.0 92.37029605777934,148.86259607644752 92.7501828065142,148.31298028095625 91.35726472828537,147.35115225065965 89.07794423680753,144.0534523880342 86.41873699659482,136.77101124660112 85.78559241490439,132.64886217436288 85.15244783367962,131.0" stroke="#4dd2ff" stroke-linecap="round" stroke-linejoin="round" stroke-width="0.5"><title>2023-11-09 1.0km</title><desc>10185506531</desc></polyline><polyline fill="none" points="107.91716340696439,132.44526216865052 109.24907679483294,135.07300857105292 109.7334089349024,136.38688032352366 111.30748839396983,139.80294235935435 111.91290356963873,142.16790455882438 111.79182053450495,140.72265025309753 112.03398660523817,141.64235767372884 112.51831874577329,145.18979614810087 113.60806606290862,148.47445512423292 114.09239820437506,149.0 114.69781338050961,148.73722758109216 114.93997945077717,148.34306888096035 113.60806606290862,147.16059225820936 112.63940178137273,145.58395554404706 112.03398660523817,143.87593086762354 111.1864053583704,140.98542385036126 109.97557500610128,139.2773947789101 108.64366161823273,136.38688032352366 108.28041251236573,134.2846850559581 108.40149554749951,131.65693749429192 108.15932947723195,131.0" stroke="#4dd2ff" stroke-linecap="round" stroke-linejoin="round" stroke-width="0.5"><title>2023-11-08 1.0km</title><desc>10179505859</desc></polyline><polyline fill="none" points="133.47369505278766,140.9440793383401 137.53379121795297,149.0 137.76579671306536,148.87412653141655 137.1857829755172,147.4895177630242 136.14175824727863,145.72728680237196 135.4457417614758,143.96505402820185 134.0537087903358,142.45456734951586 133.58969780104235,141.57344950479455 133.24168955767527,138.55247059487738 133.00968406256288,137.6713507422246 131.61765109188855,135.27973742736503 130.80563185876235,131.0" stroke="#4dd2ff" stroke-linecap="round" stroke-linejoin="round" stroke-width="0.5"><title>2023-11-06 1.0km</title><desc>10167691585</desc></polyline><polyline fill="none" points="155.4124134061858,136.0503782769665 156.24780003819615,137.6043379106559 159.35066466918215,144.72663535596803 160.66341509018093,148.7410084985895 160.90209698490798,149.0 161.14077887916937,149.0 161.14077887916937,148.61151273350697 160.18605130026117,146.5395791985793 159.35066466918215,145.37411551410332 159.23132372181863,144.72663535596803 158.51527803763747,143.94965885241982 156.48648193245754,140.45326034456957 154.09966298518702,134.36692046013195 153.14493540674448,131.0" stroke="#4dd2ff" stroke-linecap="round" stroke-linejoin="round" stroke-width="0.5"><title>2023-11-05 1.1km</title><desc>10161301187</desc></polyline><polyline fill="none" points="176.6342399874702,131.0 179.03835428180173,136.3478451555129 180.12020571436733,141.04350078164134 181.80308572063223,144.30436543212272 182.40411429479718,146.9130528375972 183.00514286803082,149.0 183.3657600125298,148.60869759402703 183.24555429723114,148.21739510179032 181.6828800062649,145.34784085466526 181.56267429096624,144.95653764309827 180.12020571436733,142.7391511480091 179.51917714066803,140.65219662082382 177.95650284923613,137.78263013751712 177.59588570520282,135.30436443991493 176.87465141667053,132.69565996550955" stroke="#4dd2ff" stroke-linecap="round" stroke-linejoin="round" stroke-width="0.5"><title>2023-11-04 1.0km</title><desc>10155501797</desc></polyline><polyline fill="none" points="24.8292560079135,153.73419068823569 23.464466266334057,151.91139743244275 22.624595656525344,151.3417740999721 20.944854436442256,151.0 19.37009704252705,151.11392470856663 17.165436690673232,152.139246706618 16.220582254230976,153.05064346885774 15.380711643956602,154.759510952048 15.1707439920865,156.12660358159337 14.855792513117194,160.6835702988319 15.065760165452957,165.46837092377245 15.27572781778872,166.15191266383044 16.32556608086452,167.86076569382567 17.58537199581042,168.77215320582036 19.685048521496356,169.0 21.574757393915206,168.20253607374616 23.359482440631837,166.0379890614422 23.884401571936905,165.01267626299523 24.619288355577737,161.7088859624928 24.619288355577737,159.08863347244915 25.144207486882806,155.6709061722504 25.039223660714924,154.41773760621436 23.884401571936905,153.05064346885774 22.93954713549465,152.36709594738204 20.73488678364083,151.3417740999721 19.580064694862813,151.3417740999721 17.060452864971012,152.139246706618 15.905630775727332,153.16456802631728 15.1707439920865,154.53166206309106 14.960776339285076,155.44305741763674 15.1707439920865,159.20255758613348 14.960776339285076,160.9114182825433" stroke="#4dd2ff" stroke-linecap="round" stroke-linejoin="round" stroke-width="0.5"><title>2023-11-03 1.0km</title><desc>10152446508</desc></polyline><polyline fill="none" points="39.131782749667764,151.0 40.11584013607353,153.13560138468165 40.95931789651513,156.94916981831193 42.36511416407302,159.69493475090712 44.47380856378004,165.18645371461753 44.89554744400084,166.10170546243899 45.598445577546954,168.54237481567543 46.020184457767755,169.0 46.58250296441838,169.0 46.58250296441838,168.6949165549595 45.598445577546954,168.23729130346328 45.176706697791815,167.1694986578077 44.192649310454726,166.25424738100264 43.48975117737427,164.2712015635334 42.505693790037185,162.74578041420318 41.38105677673593,160.45764658704866 40.11584013607353,155.72882868233137 39.27236237563193,153.74577280506492" stroke="#4dd2ff" stroke-linecap="round" stroke-linejoin="round" stroke-width="0.5"><title>2023-11-02 1.1km</title><desc>10144903556</desc></polyline><polyline fill="none" points="62.6490397634916,152.30435396311805 62.88945121038705,153.73914221522864 63.851096998900175,155.95653995871544 65.53397712856531,161.9565434876131 68.418914495036,167.95652672555298 69.26035455940291,169.0 68.77953166561201,167.4347898582928 66.97644581180066,164.6956687872298 66.01480002328753,161.17393548239488 64.81274278787896,159.47828362043947 63.37027410464361,156.34784515528008 62.16821686876938,151.0" stroke="#4dd2ff" stroke-linecap="round" stroke-linejoin="round" stroke-width="0.5"><title>2023-11-01 1.0km</title><desc>10138966680</desc></polyline><polyline fill="none" points="85.95220979489386,151.27067799540237 86.57583331363276,153.3007616904797 87.57363094296306,158.71430726593826 89.19505208963528,162.23310335283168 90.19284971896559,165.48121684766375 91.81427086656913,169.0 91.93899557041004,168.8646623105742 90.81647323723882,167.24060926458333 89.19505208963528,163.45114658481907 87.82308034971356,161.01505931455176 85.4533109809272,153.84211696428247 85.20386157277972,151.0" stroke="#4dd2ff" stroke-linecap="round" stroke-linejoin="round" stroke-width="0.5"><title>2023-10-31 1.0km</title><desc>10133123337</desc></polyline><polyline fill="none" points="108.60240224003792,153.1333426652709 109.21678684651852,156.33335195819382 109.21678684651852,157.5333539872663 110.56843297975138,159.80002232000697 114.25474061677232,167.66667279333342 114.86912522325292,168.8666673231637 115.11487906519324,169.0 112.28870987705886,163.40001914394088 111.05994066502899,159.93335566332098 109.70829453133047,157.1333533989964 107.742263791617,151.0" stroke="#4dd2ff" stroke-linecap="round" stroke-linejoin="round" stroke-width="0.5"><title>2023-10-30 1.0km</title><desc>10127985445</desc></polyline><polyline fill="none" points="131.44822759134695,153.60527560755145 131.9938981095329,157.27633863000665 132.32130042044446,158.46055072336458 134.5039824936539,163.5526528044138 135.59532352956012,166.5131698701298 137.2323350845836,168.76315920078196 137.66887149959803,169.0 137.77800560276955,168.6447387879016 136.79579867003486,167.10527262999676 135.3770553227514,164.026335900533 132.8669709386304,159.40791977138724 131.88476400543004,155.97370432177559 131.12082527996972,154.43422605399974 131.01169117633253,152.06579507607967 130.79342296905816,151.0" stroke="#4dd2ff" stroke-linecap="round" stroke-linejoin="round" stroke-width="0.5"><title>2023-10-28 1.0km</title><desc>10115543824</desc></polyline><polyline fill="none" points="154.80819529574364,154.73334801755846 155.79121081065387,157.93335448706057 156.89710326353088,160.46668893785682 157.8801187784411,164.06668443838134 159.35464205034077,167.53334001882467 159.96902674622834,168.8666673237458 160.58341144258156,169.0 160.706288382411,168.8666673237458 160.4605345032178,168.06667105830275 159.72327286750078,166.0666788512608 157.26573408208787,161.26668855571188 155.2997030527331,155.9333511054283 154.07093366002664,153.26667649880983 153.5794259030372,151.0" stroke="#4dd2ff" stroke-linecap="round" stroke-linejoin="round" stroke-width="0.5"><title>2023-10-27 1.0km</title><desc>10110442644</desc></polyline><polyline fill="none" points="177.56053018663079,153.77942351426464 179.8780265096575,161.58825709018856 180.7318409443833,163.9706063530175 181.58565537957475,165.42648490646388 182.56144330464303,168.20588614756707 182.92736377660185,168.7352954216767 183.65920472098514,169.0 183.78117821086198,168.60294311773032 183.65920472098514,168.07353380485438 182.43946981383488,166.48530493315775 180.60986745357513,163.3088429851923 178.41434462182224,156.82354910613503 176.9506627335213,154.44119038514327 176.21882178913802,151.0" stroke="#4dd2ff" stroke-linecap="round" stroke-linejoin="round" stroke-width="0.5"><title>2023-10-26 1.0km</title><desc>10104873905</desc></polyline><polyline fill="none" points="19.098457272630185,179.6087184365606 21.863188304938376,186.52174997131806 23.18545097252354,188.86956587433815 23.666273760143667,189.0 23.546068063937128,187.695658311015 20.300514242611825,182.0869781221263 18.497428786940873,177.52176022727508 16.934754725079983,174.26088311045896 16.333726239856333,171.0" stroke="#4dd2ff" stroke-linecap="round" stroke-linejoin="round" stroke-width="0.5"><title>2023-10-25 1.0km</title><desc>10098978222</desc></polyline><polyline fill="none" points="39.52735644951463,171.0 39.406273307744414,171.91971242427826 40.13277216022834,174.9416213426739 41.10143729718402,176.9124287540326 41.70685300696641,179.27739477867726 42.796601286157966,182.43067794316448 45.0971809849143,186.8978195694508 45.82367983739823,188.737227581325 46.06584612186998,189.0 46.30801240587607,188.8686137953773 46.186929263640195,187.16059225809295 44.855014700908214,184.6642501518363 43.88634956488386,183.2189978651004 42.67551814345643,180.45987661753315 42.433351859916,179.01462093077134 40.980354154482484,176.78104166104458 40.13277216022834,174.8102341046324 39.89060587575659,172.44526216841768 39.52735644951463,171.0" stroke="#4dd2ff" stroke-linecap="round" stroke-linejoin="round" stroke-width="0.5"><title>2023-10-24 1.0km</title><desc>10092835699</desc></polyline><polyline fill="none" points="63.86450184555724,174.1079268073663 65.65461526671425,180.45326034456957 66.49000152992085,182.0072160938289 67.44472868740559,185.89209946908522 68.87681942386553,188.4820169589948 69.47352389805019,189.0 68.87681942386553,188.35252117482014 68.04143316112459,186.28058733535 65.89329705573618,183.69066660827957 65.41593347722664,182.7841934543103 64.93856989825144,179.80577837780584 63.50647916132584,176.9568548965035 62.5517520038411,173.9784299666062 61.95504753058776,171.0" stroke="#4dd2ff" stroke-linecap="round" stroke-linejoin="round" stroke-width="0.5"><title>2023-10-23 1.0km</title><desc>10087395010</desc></polyline><polyline fill="none" points="82.74367358069867,171.08633225236554 83.06191276106983,171.0 85.32936692144722,171.1726644920418 86.32386436010711,171.43166113487678 86.56254374538548,171.56115941354074 87.07968241372146,171.94965407782 87.43770149140619,172.3813145144959 88.2332994423341,173.8489576249267 88.63109841779806,175.4892602887703 89.14823708613403,176.35257563943742 89.38691647117957,177.04322700586636 89.94383503682911,178.29503053677035 90.3416340125259,179.58999689779012 90.93833247572184,180.62596793007106 91.2167917585466,180.92812580347527 91.57481083646417,181.5324410837493 91.77371032419614,182.82740030408604 91.89305001683533,183.17272228054935 92.21128919697367,183.6475396664464 92.29084899229929,184.38134759839159 92.41018868493848,184.68350353906862 94.16050417697988,188.82734075089684 94.39918356225826,189.0 94.39918356225826,188.78417593060294 94.0411644843407,188.43885725463042 93.64336550910957,187.48922984837554 93.24556653341278,186.6690958525287 92.1715092996601,183.34538319258718" stroke="#4dd2ff" stroke-linecap="round" stroke-linejoin="round" stroke-width="0.5"><title>2023-10-22 1.5km</title><desc>10080655811</desc></polyline><polyline fill="none" points="108.5656285865698,171.0 109.19716009590775,171.45685924118152 108.06040337891318,171.27411558496533 109.82869160501286,173.5584074241924 109.99710000772029,174.10663621604908 109.87079370580614,174.56349317287095 109.28136429702863,174.88329284300562 109.11295589455403,175.2030923484126 109.15505799511448,175.75131968891947 109.49187480006367,177.07620043179486 109.87079370580614,178.03559506835882 110.29181471187621,179.4975269040442 111.04965252312832,180.82239965925692 111.17595882504247,181.3249368618708 111.63908193167299,182.14726958947722 111.93379663629457,182.51275045255898 111.97589873662218,182.74117588269291 112.27061344124377,183.01528628816595 112.4811239442788,183.47213669511257 112.77583864866756,184.3401515429723 113.07055335305631,184.93405574030476 113.02845125249587,186.12186243198812 113.5757785604801,187.1726126128342 113.7441869629547,187.675144680019 114.03890166711062,188.22336101706605 114.54412687476724,188.86294613225618 114.79673947859555,189.0 113.82839116407558,187.62945996341296 113.61788066104054,186.89850404136814 113.19685965473764,185.98480792954797 113.02845125249587,185.3909047365305 112.4811239442788,184.6142612430849 112.01800083741546,183.28939657268347" stroke="#4dd2ff" stroke-linecap="round" stroke-linejoin="round" stroke-width="0.5"><title>2023-10-20 1.4km</title><desc>10069668027</desc></polyline><polyline fill="none" points="130.66373520088382,171.0 130.74946251651272,171.69768395990832 131.4352810413111,173.3721223237808 131.60673567280173,174.39538803097093 133.02123638032936,177.83726962580113 133.1498273536563,178.302387323929 133.23555466951802,179.0000632299343 133.407009300543,179.46518007316627 134.4357370880898,180.90704011387425 134.99296463956125,182.02331659808988 135.33587390207686,183.13959111261647 135.63591950689442,183.7442389856442 135.80737413815223,184.67446535412455 136.02169242710806,185.13957802538062 136.5789199785795,186.58142513339408 136.6646472942084,187.13955861562863 137.47905679279938,188.81395610782783 137.69337508175522,189.0 137.82196605508216,189.0 137.90769337071106,188.95348903205013 137.86482971301302,188.9069780607242 137.00755655695684,187.83722477586707 136.62178363651037,186.5349139876198 135.80737413815223,185.04655551846372 135.67878316459246,184.44190889014862 135.59305584896356,183.41865943354787" stroke="#4dd2ff" stroke-linecap="round" stroke-linejoin="round" stroke-width="0.5"><title>2023-10-19 1.3km</title><desc>10064004415</desc></polyline><polyline fill="none" points="153.08399504981935,171.0 154.8487176988274,173.29788272990845 154.7310695219785,174.95746281044558 154.9663658752106,176.61704130494036 155.78990311175585,179.55321475525852 156.96638487745076,181.46810780919623 158.14286664361134,184.7872507669963 160.49583017639816,188.61702321912162 160.8487747060135,189.0 161.20171923562884,188.87234108219855 159.67229293938726,187.3404333399376 156.84873670106754,181.8510861665709 156.1428476413712,179.4255551431561 154.14282863866538,175.21278268191963" stroke="#4dd2ff" stroke-linecap="round" stroke-linejoin="round" stroke-width="0.5"><title>2023-10-18 1.0km</title><desc>10058081424</desc></polyline><polyline fill="none" points="176.8582590352744,172.09091406327207 177.86361614381894,177.95456616184674 180.5026785545051,184.9091062474763 182.26205349434167,188.59091103076935 183.01607132609934,189.0 183.39308024197817,189.0 183.64441951876506,188.4545480213128 182.76473204931244,187.36364358162973 181.63370530167595,185.59092249977402 180.12566963862628,182.31820220442023 179.49732144596055,180.4091126989806 176.8582590352744,175.09092442982364 176.6069197584875,174.27274026570376 176.35558048123494,171.0" stroke="#4dd2ff" stroke-linecap="round" stroke-linejoin="round" stroke-width="0.5"><title>2023-10-17 1.0km</title><desc>10051702317</desc></polyline><polyline fill="none" points="15.980503762606531,191.41538655466866 17.25653431424871,193.63077996543143 19.17058014171198,198.61540561076254 20.19140458293259,200.55386757676024 21.339832079131156,204.15386307716835 22.74346568621695,207.75385169649962 23.253877907060087,208.72307822608855 23.891893182415515,209.0 24.01949623785913,208.86153911834117 23.891893182415515,208.44615641143173 22.488259575795382,206.36924150353298 20.574213748797774,201.66155923274346 19.17058014171198,198.75386724586133 18.022152645513415,193.3538559313165 17.384137369226664,191.0" stroke="#4dd2ff" stroke-linecap="round" stroke-linejoin="round" stroke-width="0.5"><title>2023-10-16 1.0km</title><desc>10046279660</desc></polyline><polyline fill="none" points="39.17083237459883,191.0 39.69744815863669,192.14286210003775 40.224063941743225,194.71429936750792 41.408949453849345,198.71430613135453 42.98879680316895,201.14287764916662 44.83195204427466,208.00000437430572 45.490221773739904,208.71428701665718 46.411799394059926,209.0 46.54345334041864,208.71428701665718 46.411799394059926,207.8571478142403 44.70029809884727,205.42858468799386 43.77872047806159,202.57144771213643 42.725488911848515,200.85716351040173 40.224063941743225,195.0000144095393 39.30248632095754,191.0" stroke="#4dd2ff" stroke-linecap="round" stroke-linejoin="round" stroke-width="0.5"><title>2023-10-15 1.0km</title><desc>10039610121</desc></polyline><polyline fill="none" points="61.96851778496057,192.3064571354771 62.36985006276518,196.51614647032693 63.44006947148591,199.5645365928067 64.77784373192117,201.45163288107142 65.58050828846171,204.06453245715238 67.85472453106195,208.12903603585437 68.38983423495665,208.70967872138135 69.05872136587277,209.0 69.46005364367738,208.70967872138135 69.46005364367738,208.2741967231268 66.78450512234122,206.0967852922622 65.04539858410135,202.9032441836316 64.37651145411655,200.1451817966299 62.771182341035455,196.51614647032693 61.96851778496057,193.4677516417578 62.10229521105066,191.5806477224687 61.96851778496057,191.0" stroke="#4dd2ff" stroke-linecap="round" stroke-linejoin="round" stroke-width="0.5"><title>2023-10-14 1.0km</title><desc>10033377496</desc></polyline><polyline fill="none" points="84.49015685124323,191.28571558836848 86.85992752714083,194.1428691581823 87.12323538027704,196.2857315784786 89.36135212983936,203.14287544356193 91.46781495306641,208.14286092377733 92.12608458520845,209.0 92.65270029101521,209.0 92.65270029101521,208.5714305093279 92.52104636421427,208.14286092377733 91.33616102626547,207.2857214693213 90.01962176244706,204.85715762886684 88.57142857089639,200.28573510737624 85.93835004232824,194.42858428391628 85.54338826285675,192.42857752018608 84.88511863024905,191.0" stroke="#4dd2ff" stroke-linecap="round" stroke-linejoin="round" stroke-width="0.5"><title>2023-10-13 1.0km</title><desc>10028006924</desc></polyline><polyline fill="none" points="107.56638863217086,191.0 108.8326780735515,192.6488621745957 109.59245173865929,194.0229128751671 109.71908068284392,195.80917727621272 109.59245173865929,197.73284472187515 110.98537012375891,200.6183421780588 112.63154639769346,205.0152821157826 114.277722671628,208.03817232279107 114.65760950418189,208.58778819919098 115.29075422463939,209.0 115.29075422463939,208.31298028118908 113.8978358390741,206.5267278305255 112.63154639769346,204.32826093258336 110.98537012375891,199.79391478805337 109.97233857074752,198.007654195535 109.46582279447466,196.4962015914498" stroke="#4dd2ff" stroke-linecap="round" stroke-linejoin="round" stroke-width="0.5"><title>2023-10-12 1.0km</title><desc>10021974100</desc></polyline><polyline fill="none" points="132.18121613748372,193.5522495948244 132.67639217199758,196.23882426461205 132.55259816348553,197.31345302646514 133.66674424195662,200.9403204311384 134.53330230293795,202.5522591888439 135.39986036438495,205.50747655145824 136.6378004513681,208.46268913452514 136.88538846932352,208.73134458682034 137.50435851328075,209.0 137.38056450383738,208.46268913452514 136.01883040787652,204.97016465931665 134.53330230293795,202.41793101315852 132.55259816348553,197.85076717019547 132.05742212804034,196.1044956248952 131.80983411101624,193.5522495948244 131.06707005854696,191.0" stroke="#4dd2ff" stroke-linecap="round" stroke-linejoin="round" stroke-width="0.5"><title>2023-10-10 1.0km</title><desc>10009069592</desc></polyline><polyline fill="none" points="154.09351987577975,193.2500098424498 154.94733431050554,195.6323701395886 155.80114874523133,198.80884563201107 157.63075110549107,202.7794321157271 159.09443299332634,207.80882909044158 159.94824742805213,209.0 160.19219440966845,208.60294311773032 160.31416790001094,207.14706713322084 159.46035346528515,204.63236947765108 157.63075110549107,201.4559042607434 155.55720176408067,195.6323701395886 154.94733431050554,192.98530294792727 153.9715463849716,191.0" stroke="#4dd2ff" stroke-linecap="round" stroke-linejoin="round" stroke-width="0.5"><title>2023-10-09 1.0km</title><desc>10003389142</desc></polyline><polyline fill="none" points="176.33512142067775,191.0 177.2352670370601,192.11628403502982 178.13541265344247,194.20931483071763 178.64978157635778,198.3953694977099 180.57866503950208,202.58141493203584 182.25036404049024,207.3255885966355 183.0219174255617,208.7209315354703 183.6648785797879,209.0 183.6648785797879,207.88372589554638 181.2216261937283,203.97676135855727 178.00682042259723,196.1628081573872 176.72089811321348,191.13953554059844" stroke="#4dd2ff" stroke-linecap="round" stroke-linejoin="round" stroke-width="0.5"><title>2023-10-08 1.0km</title><desc>9996447828</desc></polyline><polyline fill="none" points="17.689474100712687,214.60001482162625 18.281916639301926,216.78573449037503 20.05924425413832,221.54287962068338 20.65168679272756,223.60001945286058 22.547502914909273,228.35714604717214 23.139945453498513,229.0 23.25843396084383,228.48571685678326 23.25843396084383,227.97143356245942 21.00715231569484,223.98573290207423 19.940755746793002,221.67145093088038 18.044939623679966,216.01430433080532 17.452497085090727,213.05715223390143 16.74156603915617,211.0" stroke="#4dd2ff" stroke-linecap="round" stroke-linejoin="round" stroke-width="0.5"><title>2023-10-07 1.0km</title><desc>9989974159</desc></polyline><polyline fill="none" points="41.3865410820581,216.36172163987067 42.3277262179181,219.42555514350533 43.03361507039517,220.9574698683573 44.44539277488366,226.95745619398076 44.79833720065653,228.10638738039415 45.50422605313361,229.0 46.092466762755066,229.0 46.32776304660365,228.48936427361332 46.21011490514502,228.10638738039415 44.79833720065653,226.06384252291173 43.38655949616805,223.00002073205542 42.91596692847088,220.9574698683573 40.445355946198106,214.95746281091124 40.09241151995957,212.78724238602445 39.38652266794816,211.0" stroke="#4dd2ff" stroke-linecap="round" stroke-linejoin="round" stroke-width="0.5"><title>2023-10-06 1.0km</title><desc>9984428862</desc></polyline><polyline fill="none" points="61.839125079568475,211.0 63.878683308605105,216.45903345034458 65.2383887944743,221.0328068000963 67.54988812049851,226.78689395042602 68.50168196065351,228.7049193349667 68.90959360636771,229.0 69.45347580080852,229.0 69.58944634906948,228.7049193349667 69.18153470288962,227.96721748064738 67.54988812049851,225.60656972648576 66.5980942803435,223.6885413810378 64.96644769702107,219.40985615958925 64.2865949543193,217.19673953438178 62.38300727447495,213.65574785752688 62.38300727447495,212.32787436805665" stroke="#4dd2ff" stroke-linecap="round" stroke-linejoin="round" stroke-width="0.5"><title>2023-10-04 1.0km</title><desc>9971682885</desc></polyline><polyline fill="none" points="85.84705807548016,213.10219913115725 86.45247374102473,215.20439578976948 87.0578894065693,216.64965455804486 87.54222193965688,218.8832339918008 89.84280146937817,223.48177109507378 89.96388460276648,225.05840966361575 90.69038340216503,228.21168262825813 90.93254966801032,228.6058413576102 91.65904846740887,229.0 91.65904846740887,227.68613752059173 90.08496773662046,224.79563666554168 88.9952195379883,222.29929125588387 88.38980387151241,221.11681063415017 87.78438820550218,219.40878168831114 86.57355687441304,216.912428754149 86.08922434132546,214.9416213426739 85.84705807548016,212.97081175807398 85.48380867578089,211.0" stroke="#4dd2ff" stroke-linecap="round" stroke-linejoin="round" stroke-width="0.5"><title>2023-10-03 1.0km</title><desc>9965060084</desc></polyline><polyline fill="none" points="108.13830998633057,211.7438048243057 109.78344070725143,217.09919148962945 110.05762916104868,219.47935879125725 111.01728874864057,220.66944139194675 111.7027598824352,222.45456398068927 112.93660792289302,227.06612337986007 113.8962675104849,228.55372094386257 114.58173864427954,229.0 114.718832871411,228.8512403254863 114.30755019094795,227.6611625365913 112.79951369669288,224.83472498285118 110.33181761438027,218.88431722810492 108.8237811201252,214.42149992857594 108.54959266679361,211.0" stroke="#4dd2ff" stroke-linecap="round" stroke-linejoin="round" stroke-width="0.5"><title>2023-10-02 1.0km</title><desc>9958643020</desc></polyline><polyline fill="none" points="131.4325096574612,214.16801199468318 131.69792404118925,215.46401542495005 134.6174822654575,222.37601923558395 136.07726137712598,226.84000873356126 136.87350452924147,228.4240025616018 137.6697476808913,229.0 137.80245487345383,228.85600065614562 137.6697476808913,228.2800031756051 135.01560384081677,224.2480160703417 132.49416719330475,218.0560197121231 131.29980246536434,214.31201241828967 130.76897369744256,211.0" stroke="#4dd2ff" stroke-linecap="round" stroke-linejoin="round" stroke-width="0.5"><title>2023-10-01 1.0km</title><desc>9952075403</desc></polyline><polyline fill="none" points="154.55843370594084,213.60870696778875 155.64028537739068,215.8261048743734 156.12110834149644,218.04350000969134 156.4817255656235,220.1304576053517 158.28481168439612,225.21740646020044 159.84748632088304,228.47826343949419 160.56872076774016,229.0 160.8091322509572,228.60869759391062 158.40501742623746,224.95653764309827 157.32316575478762,222.47828196594492 156.96254853066057,221.17393548239488 155.27966815326363,217.52176022715867 154.31802222318947,213.47827171022072 153.476582034491,211.0" stroke="#4dd2ff" stroke-linecap="round" stroke-linejoin="round" stroke-width="0.5"><title>2023-09-30 1.0km</title><desc>9945549317</desc></polyline><polyline fill="none" points="177.213150607422,211.0 178.40751463314518,213.0160082259681 178.80563597474247,214.60001323360484 179.86729288613424,217.19201866455842 180.3981213425286,221.0800203795079 180.79624268459156,222.23201940534636 182.38872805144638,226.12001111591235 182.78684939350933,228.56800193735398 183.05226362170652,228.85600065637846 183.4503849633038,229.0 183.58309207716957,228.7120013020467 181.19436402618885,224.39201575319748 179.60187865886837,220.64802057005 179.07105020293966,218.48802009352949 177.213150607422,214.16801199526526 176.4169079232961,211.57600256206933" stroke="#4dd2ff" stroke-linecap="round" stroke-linejoin="round" stroke-width="0.5"><title>2023-09-28 1.0km</title><desc>9933629332</desc></polyline><polyline fill="none" points="16.481247532647103,233.04546334245242 17.486605380661786,236.5909277930623 19.371651344932616,239.1818398362957 20.628348655067384,243.81819972326048 22.387724888511002,246.9545542517444 22.890403812751174,248.72727403056342 23.393082736060023,249.0 23.64442219864577,248.59091103065293 23.393082736060023,248.04545893135946 22.387724888511002,246.6818279812578 19.497321075759828,240.81820347253233 17.989284303970635,236.72729167481884 16.35557780181989,231.0" stroke="#4dd2ff" stroke-linecap="round" stroke-linejoin="round" stroke-width="0.5"><title>2023-09-27 1.0km</title><desc>9927137811</desc></polyline><polyline fill="none" points="44.35246422397904,231.0 43.993587095756084,232.73079315607902 43.63470996776596,233.72599691554205 43.355583312688395,234.93754704669118 41.72069861833006,238.35583575541386 40.883318653097376,239.78372262767516 40.72381770727225,240.38949176907772 40.80356817995198,240.86545280006249 41.00294436234981,241.55775906681083 41.6010729088448,243.02890717971604 41.800449091242626,243.4183281234 42.03970050998032,244.11063138698228 42.83720523887314,245.10581590171205 43.196082366863266,245.88465478277067 43.59483473142609,246.49041764438152 43.91383662307635,247.3557920793537 44.39233946031891,248.00482207047753 44.99046800704673,249.0" stroke="#4dd2ff" stroke-linecap="round" stroke-linejoin="round" stroke-width="0.5"><title>2023-09-26 1.0km</title><desc>9920397094</desc></polyline><polyline fill="none" points="65.63022407726385,231.0 64.8456488000229,233.61488918599207 64.06107352278195,235.01354744983837 63.33253933652304,235.92571460851468 62.94025169801898,236.65544761100318 62.77212842437439,237.38517996965675 62.82816951512359,238.29734451253898 63.10837497166358,239.02707542252028 63.780868066474795,240.06085977627663 64.06107352278195,241.0946428378229 64.62148443493061,242.43247782281833 65.68626516847871,243.77031064400217 67.4795800880529,247.4189346122439 68.65644300403073,249.0" stroke="#4dd2ff" stroke-linecap="round" stroke-linejoin="round" stroke-width="0.5"><title>2023-09-25 1.0km</title><desc>9914573673</desc></polyline><polyline fill="none" points="89.89847746491432,231.0 89.45612783380784,231.67200891877292 89.36765790753998,232.00801311869873 89.45612783380784,232.4400182645768 89.50036279694177,232.8720231244224 88.61566353449598,234.50403890397865 88.39448871882632,235.60804726480274 88.08484397735447,236.42405224451795 86.22697552619502,239.68806196353398 86.18274056306109,240.07206203386886 86.35968041536398,240.8400614973507 86.84626500983723,241.6080600572168 87.11167478864081,242.2800580559997 87.50978945661336,242.95205536298454 87.73096427228302,243.62405197828775 88.30601879279129,244.53604627848836 88.74836842366494,245.44803930463968 89.23495301837102,245.9760346848634 89.36765790753998,246.45603011449566 89.6773026494775,246.8400262040086 90.34082709625363,247.99201311788056 90.82741169049405,248.5200064406381 90.96011657989584,249.0" stroke="#4dd2ff" stroke-linecap="round" stroke-linejoin="round" stroke-width="0.5"><title>2023-09-24 1.0km</title><desc>9907510217</desc></polyline><polyline fill="none" points="112.09961285651661,231.0 111.72382965683937,231.5825306751649 111.45541308587417,232.1650609219796 111.29436314315535,232.9223496025661 111.24067982868291,233.9126490924391 110.32806348660961,235.13595851819264 109.79123034421355,236.53402412019204 109.30808051605709,237.23305599595187 108.98598063061945,238.16509753774153 108.93229731614701,239.15539047430502 110.05964691541158,242.00975730718346 110.48911342932843,242.8835410165484 111.88487959979102,245.09712210064754 112.47539605619386,246.5534220727859 113.22696245578118,247.4854526500567 113.65642896969803,248.24272668687627 113.92484554112889,249.0" stroke="#4dd2ff" stroke-linecap="round" stroke-linejoin="round" stroke-width="0.5"><title>2023-09-23 1.0km</title><desc>9901004991</desc></polyline><polyline fill="none" points="134.97688733786345,231.0 134.61850131093524,231.6666743136011 134.26011528400704,232.83335294673452 133.44094722229056,234.5555895413272 132.62177916057408,235.7222637136001 131.90500710671768,237.66671666427283 131.85380910267122,238.72227474185638 131.95620511076413,239.33338663936593 132.98016518750228,241.7778292860603 133.13375919917598,242.5000494637643 133.33855121443048,242.88893696578452 134.05532326828688,243.77782193332678 134.61850131093524,244.88892667199252 135.0792833454907,246.05558488948736 135.84725340339355,247.16668627905892 136.71761946892366,249.0" stroke="#4dd2ff" stroke-linecap="round" stroke-linejoin="round" stroke-width="0.5"><title>2023-09-22 1.0km</title><desc>9895405405</desc></polyline><polyline fill="none" points="158.09704193216749,231.0 157.95024427212775,231.53097987367073 157.65664895274676,231.84956761042122 157.0205257597845,233.01772144268034 156.77586299343966,233.86728667921852 156.04187469393946,235.72570714971516 155.25895384163596,237.3186351749464 154.7696283084806,238.48678016033955 154.6228306486737,239.07085194438696 154.6228306486737,239.44253374281107 154.7696283084806,239.97350740875117 155.06322362832725,240.5044806843507 155.6993468212895,242.15049535757862 156.3354700137861,243.31863252696348 156.6779978866689,244.16818564524874 157.31412107939832,245.2301256377832 157.70558150555007,245.7079981250572 157.99917682539672,246.55754843255272 158.78209767793305,247.93806555081392 159.66288363700733,249.0" stroke="#4dd2ff" stroke-linecap="round" stroke-linejoin="round" stroke-width="0.5"><title>2023-09-21 1.0km</title><desc>9889267953</desc></polyline><polyline fill="none" points="181.83262381213717,231.0 181.1902608263772,232.9271348346956 180.81240024673752,234.4442362957052 180.20782331866212,235.71531812573085 179.48988821706735,237.84744888261775 178.2429483034648,240.18458284673397 177.90287378174253,241.45565159220132 177.9406598394271,241.74266671438818 178.16737618739717,242.3576986216649 178.65859494148754,243.42375232084305 178.9608834052924,244.32579616687144 179.71660456503741,245.39184610371012 180.17003726097755,246.2528849497321 180.4345396666322,246.86791188293137 180.73682813043706,247.4009346763487 181.22804688452743,247.76995015799184 181.83262381213717,248.6719869741064 181.8704098702874,248.83599351116573 182.09712621825747,249.0" stroke="#4dd2ff" stroke-linecap="round" stroke-linejoin="round" stroke-width="0.5"><title>2023-09-20 1.0km</title><desc>9882714971</desc></polyline><polyline fill="none" points="21.492503026966006,251.0 21.10871653445065,251.97173551184824 20.383786492748186,254.10029377049068 20.34114354918711,254.79438729817048 20.085285887354985,255.16457019996597 19.786785282194614,255.85866255377186 19.616213507484645,256.506481393415 19.275069958530366,257.3856630375376 18.294282254995778,258.9589323879336 18.038424593163654,259.8843831096892 17.9531387060415,260.7172875957913 18.038424593163654,261.55019097944023 18.294282254995778,262.47563789068954 18.59278286015615,263.1234499189886 19.53092762012966,264.74297707213555 20.00000000023283,265.39078676642384 20.426429436309263,266.5475881336024 20.852858872618526,267.2879398926161 21.27928830869496,267.889475055621 21.7483606885653,268.35219402058283 22.04686129419133,269.0" stroke="#4dd2ff" stroke-linecap="round" stroke-linejoin="round" stroke-width="0.5"><title>2023-09-19 1.0km</title><desc>9876194288</desc></polyline><polyline fill="none" points="42.724649478914216,251.0 42.40666537149809,251.51757766940864 41.87669185944833,252.5527319808025 41.71769980574027,253.24283409374766 40.76374748372473,254.91057835303945 40.02178456657566,256.46330257016234 39.8627925128676,257.03838483133586 39.91578986425884,257.6709748299909 40.233773971674964,258.47608863416826 40.71075013256632,259.3387096473016 41.13472894253209,260.5463774675154 41.71769980574027,261.81155127921375 42.35366802033968,262.96170751401223 42.93663888401352,263.70930815977044 43.625604449771345,264.85946160397725 44.04958325950429,266.182135974057 44.791546176886186,267.3322857822059 45.16252763546072,268.36741916363826 45.851493201451376,269.0" stroke="#4dd2ff" stroke-linecap="round" stroke-linejoin="round" stroke-width="0.5"><title>2023-09-18 1.0km</title><desc>9870505463</desc></polyline><polyline fill="none" points="65.89515344868414,251.0 65.63677097088657,251.5046786859748 65.27503550192341,253.18693856027676 64.80994704179466,253.97199189837556 64.60324105946347,254.58881895412924 63.466358156874776,256.43929712829413 63.05294619244523,257.4486469672411 62.794563714414835,258.3458457023953 63.00126969674602,258.9626692206948 64.13815259910189,261.4299583049142 64.70659405062906,262.3271523566218 65.1200060150586,263.2804198800004 65.79180045751855,264.17761175491614 66.15353592671454,264.79443055659067 66.61862438661046,266.2523639231222 68.63400771399029,269.0" stroke="#4dd2ff" stroke-linecap="round" stroke-linejoin="round" stroke-width="0.5"><title>2023-09-16 1.0km</title><desc>9856514700</desc></polyline><polyline fill="none" points="88.3226059617009,251.0 87.76966682891361,252.68001679936424 87.05084595642984,253.82002622907748 85.55791029776447,256.7000429572654 85.5026163845323,257.36004535935353 85.55791029776447,258.1400475098053 85.8896737776231,258.92004891473334 86.44261291041039,259.76004959398415 86.94025812973268,260.9000491327606 87.82496074214578,262.4000460996176 88.93083900795318,264.50003722141264 89.0414268344175,265.2800325474236 89.42848422727548,265.58003055123845 89.87083553359844,266.18002622795757 90.58965640608221,267.38001625816105 91.36377119179815,268.04001002263976 91.52965293172747,268.46000577666564 91.64024075842462,269.0" stroke="#4dd2ff" stroke-linecap="round" stroke-linejoin="round" stroke-width="0.5"><title>2023-09-15 1.0km</title><desc>9850671982</desc></polyline><polyline fill="none" points="111.88617565622553,251.0 110.97096720105037,253.4207119922503 109.94135768897831,254.91037746024085 109.48375346139073,255.7172784911818 108.79734712000936,257.4552165536443 108.62574553466402,258.07590785168577 108.62574553466402,258.57246056129225 108.79734712000936,259.193151037849 109.48375346139073,261.05521972937277 110.11295927432366,262.29659657517914 111.65737354266457,264.96555061248364 112.28657935536467,266.14485319692176 112.40098041226156,266.82760657178005 112.85858463984914,267.26208570454037 113.60219150967896,268.44138508086326 114.23139732261188,269.0" stroke="#4dd2ff" stroke-linecap="round" stroke-linejoin="round" stroke-width="0.5"><title>2023-09-14 1.0km</title><desc>9844236351</desc></polyline><polyline fill="none" points="131.424961037701,251.0 131.75425637559965,251.26799398573348 131.87774212728254,251.535987853189 131.96006596181542,252.11664082697826 132.2070374651812,252.60796214069705 132.37168513424695,253.99259279557737 132.37168513424695,254.66257423744537 132.28936129971407,255.01989737094846 132.37168513424695,255.46655099239433 132.57749472022988,256.00253490457544 132.49517088592984,256.4491878034314 132.53633280307986,256.6725141296629 132.9479519755114,257.4318230249919 133.3184092307929,258.54845202929573 133.64770456845872,259.17376337520545 134.05932374089025,259.7544090486481 134.5121048304718,260.1563941896311 134.6355905821547,260.42438413598575 134.75907633407041,261.00502861407585 135.08837167196907,261.5856725371559 135.45882892701775,262.6576290910598 135.95277193374932,263.5955895241932 136.1997434371151,264.39955445716623 136.32322918903083,265.0695244217641 136.5702006923966,265.6054998616455 137.02298178197816,267.0794298829278 137.64041054062545,268.2407055631047 137.6815724580083,268.41936316300416 137.64041054062545,268.5533563285135 137.14646753366105,269.0 137.39343903725967,268.8213425707654 137.51692478894256,268.5533563285135 137.5992486232426,268.330034369661 137.5580867063254,268.0173834892921 137.3111152027268,267.70473244803725 136.5702006923966,266.0968102659681 136.1997434371151,264.89086583675817 135.41766700986773,263.14894187945174 135.04720975458622,261.45167783496436 134.8414001686033,260.96036367397755 134.05932374089025,259.9330691441428 133.27724731341004,258.45912178448634 132.90679005812854,257.2531621938688 132.78330430667847,256.4491878034314 132.454008968547,255.60054701479385 131.7954182929825,254.1712545856717 131.63077062391676,253.50127260189038 131.05450378265232,252.4292998908204 130.9310180307366,251.84864721581107 130.88985611358657,251.1339970076806" stroke="#4dd2ff" stroke-linecap="round" stroke-linejoin="round" stroke-width="0.5"><title>2023-09-13 1.0km</title><desc>9837636972</desc></polyline></svg>