<?xml version="1.0" encoding="utf-8" ?>
<svg baseProfile="full" height="300mm" version="1.1" viewBox="0,0,200,300" width="200mm" xmlns="http://www.w3.org/2000/svg" xmlns:ev="http://www.w3.org/2001/xml-events" xmlns:xlink="http://www.w3.org/1999/xlink"><defs /><rect fill="#222222" height="300" width="200" x="0" y="0" /><text fill="#FFFFFF" style="font-size:12px; font-family:Arial; font-weight:bold;" x="10" y="20">Over 1km Runs</text><text fill="#FFFFFF" style="font-size:4px; font-family:Arial" x="10" y="280">ATHLETE</text><text fill="#FFFFFF" style="font-size:9px; font-family:Arial" x="10" y="290">Jiakai</text><text fill="#FFFFFF" style="font-size:4px; font-family:Arial" x="120" y="280">STATISTICS</text><text fill="#FFFFFF" style="font-size:3px; font-family:Arial" x="120" y="285">Number: 57</text><text fill="#FFFFFF" style="font-size:3px; font-family:Arial" x="120" y="290">Weekly: 5.7</text><text fill="#FFFFFF" style="font-size:3px; font-family:Arial" x="141" y="285">Total: 59.2 km</text><text fill="#FFFFFF" style="font-size:3px; font-family:Arial" x="141" y="290">Avg: 1.0 km</text><text fill="#FFFFFF" style="font-size:3px; font-family:Arial" x="167" y="285">Min: 1.0 km</text><text fill="#FFFFFF" style="font-size:3px; font-family:Arial" x="167" y="290">Max: 1.5 km</text><polyline fill="none" points="18.843821107409894,31.534563053166494 19.990484463982284,36.013837745646015 21.825145835988224,40.9908026738558 24.347805220633745,45.71891257795505 25.265135905705392,49.45162625797093 26.870464605279267,52.686641451437026 28.475793305784464,54.42857142863795 24.347805220633745,46.71430329512805 22.51314384955913,40.9908026738558 17.238492408767343,31.285714285681024" stroke="#4dd2ff" stroke-linecap="round" stroke-linejoin="round" stroke-width="0.5"><title>2023-11-15 1.0km</title><desc>10219684298</desc></polyline><polyline fill="none" points="44.48223947081715,34.069829374784604 46.56692411098629,36.67993429629132 46.88764482457191,39.98606306454167 49.293050177395344,45.72827573912218 50.73629338853061,50.600445265416056 52.17953659966588,54.25456582871266 52.82097802776843,54.42857142863795 52.6606176700443,52.34050338040106 50.575933031737804,49.55640978273004 49.774131246842444,47.1203251988627 48.49124839249998,45.55426949914545 48.01016732212156,43.64020001515746 45.604761969298124,38.76801616116427 44.802960185334086,35.28787869610824 44.321879114955664,31.285714285681024" stroke="#4dd2ff" stroke-linecap="round" stroke-linejoin="round" stroke-width="0.5"><title>2023-11-14 1.0km</title><desc>10213806154</desc></polyline><polyline fill="none" points="71.19470951054245,34.472063627443276 72.43111142143607,39.16772822930943 75.83121667336673,47.88822255900595 76.60396786686033,50.73914616648108 78.14947025477886,53.92546833504457 78.61312097124755,54.428571428521536 77.68581953831017,52.75156068557408 75.52211619541049,47.55281954759266 75.36756595689803,46.21120700775646 73.8220635689795,42.52176845539361 71.50380998849869,38.329217402264476 70.5765085555613,35.47827828431036 69.95830760058016,31.285714285681024" stroke="#4dd2ff" stroke-linecap="round" stroke-linejoin="round" stroke-width="0.5"><title>2023-11-13 1.0km</title><desc>10208522228</desc></polyline><polyline fill="none" points="97.41479581594467,33.91559572634287 99.03054843097925,38.82469998905435 100.96945156902075,42.85717093083076 102.10047839861363,47.590932466322556 103.23150522913784,50.92209235811606 104.68568258266896,54.07792375353165 105.33198362775147,54.42857142863795 105.65513415168971,53.727276026736945 103.87780627515167,50.220795925706625 102.90835470706224,46.363661859417334 99.35369895398617,43.032495599705726 97.41479581594467,40.227299350779504 97.09164529293776,37.246774720959365 94.34486584737897,31.285714285681024" stroke="#4dd2ff" stroke-linecap="round" stroke-linejoin="round" stroke-width="0.5"><title>2023-11-12 1.0km</title><desc>10202270880</desc></polyline><polyline fill="none" points="122.21268504112959,35.603428814793006 126.03261304926127,44.238834062824026 127.30592238530517,48.55652478360571 128.57923172134906,52.01067164679989 129.37505005672574,53.56503607821651 130.1708683911711,54.42857142863795 130.33003205806017,53.7377431737259 128.8975590551272,49.420061975484714 126.19177671615034,45.2750805595424 123.32683071028441,38.712178360670805 122.21268504112959,34.049052498303354 121.09853937104344,31.285714285913855" stroke="#4dd2ff" stroke-linecap="round" stroke-linejoin="round" stroke-width="0.5"><title>2023-11-11 1.0km</title><desc>10196068378</desc></polyline><polyline fill="none" points="149.277067839168,34.7368544107303 151.8962896000594,42.65415957593359 154.32842409331352,49.150393013842404 155.45094770472497,53.4135379018262 156.19929677899927,54.42857142863795 156.57347131706774,54.02255806257017 156.0122095104307,51.58647661237046 153.20590048097074,45.293256253004074 150.39959145057946,39.40603712643497 146.6578460773453,33.51880544796586 146.28367154020816,31.285714285681024" stroke="#4dd2ff" stroke-linecap="round" stroke-linejoin="round" stroke-width="0.5"><title>2023-11-10 1.0km</title><desc>10191120477</desc></polyline><polyline fill="none" points="171.77017312590033,31.992369710933417 174.53791943751276,34.11233474081382 176.16600550338626,36.938951870659366 176.65443132352084,37.99893243703991 176.65443132352084,39.5889024103526 178.4453259948641,45.06545759830624 179.09656042139977,48.24538714112714 180.3990292744711,51.778637253213674 180.72464648727328,53.545260361395776 181.53868952021003,54.42857142863795 182.02711533941329,54.251909241080284 182.51554115861654,53.545260361395776 180.72464648727328,52.308624322293326 177.79409156925976,48.068724499084055 174.37511083111167,38.70558588858694 173.56106779817492,33.4056799383834 172.74702476523817,31.285714285681024" stroke="#4dd2ff" stroke-linecap="round" stroke-linejoin="round" stroke-width="0.5"><title>2023-11-09 1.0km</title><desc>10185506531</desc></polyline><polyline fill="none" points="18.342475400306284,59.929622788215056 20.054935470223427,63.3081538771512 20.677648222073913,64.99741755891591 22.70146466884762,69.3894973192364 23.47985561005771,72.43016300420277 23.32417742162943,70.57197889685631 23.635533798485994,71.75445986620616 24.25824655033648,76.3154521904653 25.65935024432838,80.53858515981119 26.282062997110188,81.21428571431898 27.060453937388957,80.8764354614541 27.3718103133142,80.36965998983942 25.65935024432838,78.8493329033954 24.413924738764763,76.82222855673172 23.635533798485994,74.62619682983495 22.545786480419338,70.90983066475019 20.9890045998618,68.71379328717012 19.276544529013336,64.99741755891591 18.80950996465981,62.29459507192951 18.96518815215677,58.916062492644414 18.653831776231527,58.071428571478464" stroke="#4dd2ff" stroke-linecap="round" stroke-linejoin="round" stroke-width="0.5"><title>2023-11-08 1.0km</title><desc>10179505859</desc></polyline><polyline fill="none" points="47.52740384358913,70.85667343484238 52.74752748478204,81.21428571431898 53.04582026414573,81.0524483975023 52.30008831527084,79.2722371238051 50.95777080766857,77.0065116030164 50.06289246957749,74.74078375042882 48.27313579246402,72.79872944927774 47.676550233736634,71.6658636489883 47.229111064225435,67.78174790763296 46.93081828486174,66.64887952560093 45.14106160774827,63.57394812093116 44.09703687950969,58.071428571478464" stroke="#4dd2ff" stroke-linecap="round" stroke-linejoin="round" stroke-width="0.5"><title>2023-11-06 1.0km</title><desc>10167691585</desc></polyline><polyline fill="none" points="72.06085805315524,64.5647720702691 73.13492657989264,66.56272017071024 77.12432396318763,75.71995974332094 78.81214593350887,80.8812966409605 79.11902265436947,81.21428571431898 79.4258993761614,81.21428571431898 79.4258993761614,80.71480208588764 78.1983924889937,78.05088754103053 77.12432396318763,76.55243423231877 76.97088560182601,75.71995974332094 76.05025543645024,74.72098995302804 73.44180330168456,70.22562044300139 70.37303608376533,62.40032630588394 69.14552919659764,58.071428571478464" stroke="#4dd2ff" stroke-linecap="round" stroke-linejoin="round" stroke-width="0.5"><title>2023-11-05 1.1km</title><desc>10161301187</desc></polyline><polyline fill="none" points="95.6725942697376,58.071428571478464 98.76359836291522,64.94722948572598 100.15455020498484,70.98450100491755 102.31825307011604,75.17704126995523 103.09100409317762,78.53106793412007 103.86375511623919,81.21428571431898 104.3274057302624,80.71118262095843 104.17285552527755,80.20807941665407 102.1637028651312,76.51865252759308 102.00915266014636,76.01554839836899 100.15455020498484,73.16462290461641 99.38179918099195,70.48139565531164 97.37264652084559,66.79195303400047 96.90899590682238,63.605611422797665 95.98169467877597,60.25156281294767" stroke="#4dd2ff" stroke-linecap="round" stroke-linejoin="round" stroke-width="0.5"><title>2023-11-04 1.0km</title><desc>10155501797</desc></polyline><polyline fill="none" points="131.92332915356383,61.586816599126905 130.16859948588535,59.24322527041659 129.08876584423706,58.510852414299734 126.92909856094047,58.071428571478464 124.90441048331559,58.21790319669526 122.06984717398882,59.536174337146804 120.85503432713449,60.7079701742623 119.7752006854862,62.90508550987579 119.50524227553979,64.66277603339404 119.10030465992168,70.52173324138857 119.37026306986809,76.67361975915264 119.64022148074582,77.55245913926046 120.99001353234053,79.74955589219462 122.60976399527863,80.9213398359716 125.3093480989337,81.21428571431898 127.73897379264235,80.1889749520924 130.03362028114498,77.40598593617324 130.70851630717516,76.08772662386764 131.65337074315175,71.83999623754062 131.65337074315175,68.47110017889645 132.32826676918194,64.07687936432194 132.1932875639759,62.46566263656132 130.70851630717516,60.7079701742623 129.49370345985517,59.82912336103618 126.6591401505284,58.510852414299734 125.17436889372766,58.510852414299734 121.93486796924844,59.536174337146804 120.45009671198204,60.85444460529834 119.50524227553979,62.61213693837635 119.23528386512771,63.78393096558284 119.50524227553979,68.617574039381 119.23528386512771,70.81468064908404" stroke="#4dd2ff" stroke-linecap="round" stroke-linejoin="round" stroke-width="0.5"><title>2023-11-03 1.0km</title><desc>10152446508</desc></polyline><polyline fill="none" points="146.63882271852344,58.07142857136205 147.90403935778886,60.81720178038813 148.98851076420397,65.720361195039 150.79596310853958,69.25063039408997 153.5071416227147,76.31115477578714 154.04937732499093,77.4879070231691 154.9531034976244,80.62591047724709 155.49533920083195,81.21428571431898 156.21832013782114,81.21428571431898 156.21832013782114,80.82203557062894 154.9531034976244,80.23366024740972 154.41086779441684,78.86078398860991 153.1456511542201,77.68403234705329 152.24192498251796,75.13440201012418 150.9767083413899,73.17314624669962 149.53074646741152,70.2312598975841 147.90403935778886,64.15135116293095 146.81956795230508,61.60170789225958" stroke="#4dd2ff" stroke-linecap="round" stroke-linejoin="round" stroke-width="0.5"><title>2023-11-02 1.1km</title><desc>10144903556</desc></polyline><polyline fill="none" points="173.20182663481683,59.748455095337704 173.51092706713825,61.593182848067954 174.74732879456133,64.44412280397955 176.9110318189487,72.15841305546928 180.62023700401187,79.8726772184018 181.70208851527423,81.21428571431898 181.083887652494,79.20187267498113 178.76563441194594,75.68014558358118 177.52923268359154,71.15220276301261 175.98373052291572,68.97207894048188 174.1291279308498,64.94722948526032 172.58362577017397,58.071428571478464" stroke="#4dd2ff" stroke-linecap="round" stroke-linejoin="round" stroke-width="0.5"><title>2023-11-01 1.0km</title><desc>10138966680</desc></polyline><polyline fill="none" points="19.48957585915923,85.20515742269345 20.291377525776625,87.81526503060013 21.574260191991925,94.77553791319951 23.658944523893297,99.29970431071706 24.941827190108597,103.475850232644 27.02651152294129,108.0 27.186871855519712,107.82599439937621 25.74362885672599,105.73792619723827 23.658944523893297,100.86575989471748 21.89498085808009,97.73364769015461 18.848134526982903,88.5112932396587 18.527413859032094,84.85714285704307" stroke="#4dd2ff" stroke-linecap="round" stroke-linejoin="round" stroke-width="0.5"><title>2023-10-31 1.0km</title><desc>10133123337</desc></polyline><polyline fill="none" points="44.93778247293085,87.60001199808903 45.72770553827286,91.71430966048501 45.72770553827286,93.25716941198334 47.46553628053516,96.1714572685305 52.20507467072457,106.28572216280736 52.99499773606658,107.8285722725559 53.31096696201712,108.0 49.67732086312026,100.80002461350523 48.09747473336756,96.34288585279137 46.359643990173936,92.7428829416167 43.8318901816383,84.85714285704307" stroke="#4dd2ff" stroke-linecap="round" stroke-linejoin="round" stroke-width="0.5"><title>2023-10-30 1.0km</title><desc>10127985445</desc></polyline><polyline fill="none" points="70.63751710718498,88.20678292401135 71.33909348770976,92.92672109557316 71.76003931602463,94.4492795013357 74.56634483858943,100.99626789137255 75.96949759917334,104.80264697573148 78.07422674167901,107.69549040088896 78.6354878465645,108.0 78.7758031222038,107.543235584395 77.51296563725919,105.56392195285298 75.68886704742908,101.60528901498765 72.46161569654942,95.66732542030513 71.19877821113914,91.25190555641893 70.21657127793878,89.2725763550261 70.07625600229949,86.22745081200264 69.79562545008957,84.85714285715949" stroke="#4dd2ff" stroke-linecap="round" stroke-linejoin="round" stroke-width="0.5"><title>2023-10-28 1.0km</title><desc>10115543824</desc></polyline><polyline fill="none" points="96.99829191155732,89.65716173662804 98.26216900162399,93.77145576896146 99.68403072748333,97.02860006294213 100.94790781755,101.65716570639051 102.84372345265001,106.11429430986755 103.63364663347602,107.8285722732544 104.42356981430203,108.0 104.58155445102602,107.8285722732544 104.26558517850935,106.80000564618967 103.31767736095935,104.22858709446155 100.157984636724,98.05717100016773 97.63023045659065,91.20002284971997 96.05038409400731,87.77144121262245 95.41844554897398,84.85714285704307" stroke="#4dd2ff" stroke-linecap="round" stroke-linejoin="round" stroke-width="0.5"><title>2023-10-27 1.0km</title><desc>10110442644</desc></polyline><polyline fill="none" points="122.57782452460378,88.43068737536669 125.55746265407652,98.47061625879724 126.65522406995296,101.53363673959393 127.75298548676074,103.40548059390858 129.00756996218115,106.97899647534359 129.47803914081305,107.6596655419562 130.41897749714553,108.0 130.57580055575818,107.48949829407502 130.41897749714553,106.80882917763665 128.85074690263718,104.766820628196 126.49840101134032,100.68279812368564 123.67558594141155,92.34456313634291 121.79370922781527,89.28153049503453 120.85277087148279,84.85714285704307" stroke="#4dd2ff" stroke-linecap="round" stroke-linejoin="round" stroke-width="0.5"><title>2023-10-26 1.0km</title><desc>10104873905</desc></polyline><polyline fill="none" points="150.26944506447762,95.9254951326875 153.82409924920648,104.81367853446864 155.5241512497887,107.83229898125865 156.14235197752714,108.0 155.98780179582536,106.32298925693613 151.81494688335806,99.11182901402935 149.49669415410608,93.24226314923726 147.48754178918898,89.04970685625449 146.71479087974876,84.85714285715949" stroke="#4dd2ff" stroke-linecap="round" stroke-linejoin="round" stroke-width="0.5"><title>2023-10-25 1.0km</title><desc>10098978222</desc></polyline><polyline fill="none" points="172.86170319095254,84.85714285715949 172.70602486561984,86.03963025985286 173.6400948194787,89.92494172637817 174.88552142400295,92.45883696945384 175.66391305066645,95.49950757261831 177.0650179805234,99.55372878408525 180.02290616557002,105.29719658917747 180.95697611849755,107.66214974736795 181.26833277009428,108.0 181.57968942075968,107.83107487973757 181.42401109542698,105.63504718896002 179.71154951490462,102.42546448099893 178.46612291038036,100.5672829693649 176.9093396551907,97.01984136528336 176.5979830045253,95.1616554823704 174.72984309773892,92.28991070704069 173.6400948194787,89.75601527735125 173.32873816788197,86.71533707377966 172.86170319095254,84.85714285715949" stroke="#4dd2ff" stroke-linecap="round" stroke-linejoin="round" stroke-width="0.5"><title>2023-10-24 1.0km</title><desc>10092835699</desc></polyline><polyline fill="none" points="20.47884931229055,115.63876303785946 22.780423710122705,123.79704901436344 23.854491762816906,125.79499212047085 25.08199810795486,130.78984217438847 26.923257627524436,134.11973609006964 27.690449093468487,134.78571428568102 26.923257627524436,133.95324151031673 25.849189574830234,131.28932657383848 23.087300296872854,127.95942849630956 22.473547123372555,126.79396301263478 21.859793950803578,122.96457219996955 20.018534432165325,119.30167058110237 18.79102808702737,115.47226709977258 18.02383662108332,111.6428571427241" stroke="#4dd2ff" stroke-linecap="round" stroke-linejoin="round" stroke-width="0.5"><title>2023-10-23 1.0km</title><desc>10087395010</desc></polyline><polyline fill="none" points="41.07860072609037,111.75385575310793 41.4877653864678,111.64285714289872 44.403063592500985,111.86485434696078 45.681703156325966,112.19785003067227 45.98857665178366,112.36434781743446 46.653469225391746,112.86384095728863 47.11377946822904,113.41883294726722 48.136691119289026,115.30580266064499 48.64814694528468,117.41476322850212 49.313039518427104,118.52474010788137 49.61991301365197,119.4127204361721 50.33595116948709,121.02218211872969 50.84740699524991,122.68713886867044 51.61459073377773,124.01910162443528 51.97260981169529,124.40759031882044 52.43292005476542,125.18456710776081 52.688647967530414,126.84951467678184 52.842084715142846,127.29350007505855 53.251249375520274,127.90397957118694 53.35354054090567,128.84744691231754 53.5069772885181,129.23593312170124 55.75738292117603,134.56372382264817 56.064256416633725,134.78571428573923 56.064256416633725,134.50822619657265 55.6039461735636,134.06424504175084 55.09249034803361,132.84329551941482 54.581034522270784,131.78883752471302 53.20010379306041,127.51549267623341" stroke="#4dd2ff" stroke-linecap="round" stroke-linejoin="round" stroke-width="0.5"><title>2023-10-22 1.5km</title><desc>10080655811</desc></polyline><polyline fill="none" points="70.60478777438402,111.64285714289872 71.41675685765222,112.23024759587133 69.95521250739694,111.99529146647546 72.22872594092041,114.93223811686039 72.44525102991611,115.63710370636545 72.28285721340217,116.22449122235412 71.52501940215006,116.6356622268213 71.30849431315437,117.04683301941259 71.3626255854033,117.75169674295466 71.79567576316185,119.45511484093731 72.28285721340217,120.68862223078031 72.82416993565857,122.56824887666153 73.79853283567354,124.27165670477552 73.96092665242031,124.91777596535394 74.55637064669281,125.97506090078969 74.93528955266811,126.44496486760909 74.98942082445137,126.7386547063943 75.36833973019384,127.09108237054897 75.63899609120563,127.67846146522788 76.01791499718092,128.79448055534158 76.39683390269056,129.55807166616432 76.34270263044164,131.08525169832865 77.04640916921198,132.43621621659258 77.26293425844051,133.08232887438498 77.64185316371731,133.78717845055507 78.29142843047157,134.6095021701185 78.61621606396511,134.78571428573923 77.37119680270553,133.0235913816141 77.10054044169374,132.08379091037204 76.5592277192045,130.9090387666365 76.34270263044164,130.1454489470343 75.63899609120563,129.1469073126209 75.04355209693313,127.44350987917278" stroke="#4dd2ff" stroke-linecap="round" stroke-linejoin="round" stroke-width="0.5"><title>2023-10-20 1.4km</title><desc>10069668027</desc></polyline><polyline fill="none" points="95.34316974785179,111.64285714289872 95.4533905822318,112.53987937700003 96.3351572570391,114.69272870197892 96.55559892603196,116.00835603987798 98.37424269295298,120.43363237607991 98.53957394440658,121.03164084500168 98.64979477901943,121.92865272419294 98.87023644754663,122.52666009409586 100.19288646010682,124.3804801463848 100.9093218834605,125.81569276901428 101.35020522074774,127.25090285908664 101.73597814142704,128.02830726723187 101.95641980995424,129.22431259811856 102.2319718960207,129.8223146040691 102.94840731914155,131.6761180286412 103.0586281537544,132.3937182200607 104.10572608024813,134.5465149958036 104.38127816608176,134.78571428573923 104.5466094177682,134.78571428573923 104.65683025191538,134.72591446974548 104.60171983507462,134.66611464950256 103.49951149127446,133.290717568947 103.0035177366808,131.61631798412418 101.95641980995424,129.70271423802478 101.79108855850063,128.92531143018277 101.68086772388779,127.60970498598181" stroke="#4dd2ff" stroke-linecap="round" stroke-linejoin="round" stroke-width="0.5"><title>2023-10-19 1.3km</title><desc>10064004415</desc></polyline><polyline fill="none" points="120.49574873782694,111.64285714284051 122.76467785798013,114.5972777956631 122.61341591645032,116.73102361347992 122.91593979857862,118.86476739204954 123.9747733892873,122.63984754239209 125.48739280179143,125.10185289743822 127.00001221522689,129.36932241462637 130.02525104302913,134.29331556742545 130.47903686761856,134.78571428568102 130.93282269127667,134.6215813914314 128.96641745325178,132.65198572271038 125.33613086026162,125.59425364260096 124.42855921201408,122.47571375546977 121.85710620973259,117.05929201969411" stroke="#4dd2ff" stroke-linecap="round" stroke-linejoin="round" stroke-width="0.5"><title>2023-10-18 1.0km</title><desc>10058081424</desc></polyline><polyline fill="none" points="147.38919018767774,113.04546093847603 148.6817921847105,120.5844422080554 152.07487242668867,129.52599374670535 154.33692592103034,134.25974275381304 155.30637741927058,134.78571428568102 155.7911031683907,134.78571428568102 156.11425366718322,134.0844188844785 154.98322692047805,132.68182746204548 153.5290496731177,130.4026146424003 151.59014667849988,126.19483140553348 150.78227043058723,123.74028775561601 147.38919018767774,116.9026171239093 147.0660396888852,115.85066605568863 146.74288919009268,111.6428571427241" stroke="#4dd2ff" stroke-linecap="round" stroke-linejoin="round" stroke-width="0.5"><title>2023-10-17 1.0km</title><desc>10051702317</desc></polyline><polyline fill="none" points="171.97493340913206,112.17692557023838 173.61554411891848,115.02528852690011 176.07646018173546,121.43409292795695 177.38894874975085,123.92640116997063 178.86549838725477,128.55496681318618 180.67017016839236,133.1835236097686 181.3264144519344,134.42967200488783 182.14671980589628,134.78571428568102 182.31078087724745,134.60769315203652 182.14671980589628,134.07362967170775 180.34204802662134,131.40331050450914 177.88113196287304,125.35057615628466 176.07646018173546,121.61211503017694 174.59991054423153,114.66924334014766 173.77960518933833,111.6428571427241" stroke="#4dd2ff" stroke-linecap="round" stroke-linejoin="round" stroke-width="0.5"><title>2023-10-16 1.0km</title><desc>10046279660</desc></polyline><polyline fill="none" points="18.1176008079201,138.42857142840512 18.79467824380845,139.89796555694193 19.4717556796968,143.20409918646328 20.995179909281433,148.34696502564475 23.02641221601516,151.46941412007436 25.3961832402274,160.2857199094724 26.242530034855008,161.20408330694772 27.42741554696113,161.57142857136205 27.596684906631708,161.20408330694772 27.42741554696113,160.1020471896045 25.226913881488144,156.97960888431408 24.042028369382024,153.30614705826156 22.687873498536646,151.10206737020053 19.4717556796968,143.57144709769636 18.286870167590678,138.42857142840512" stroke="#4dd2ff" stroke-linecap="round" stroke-linejoin="round" stroke-width="0.5"><title>2023-10-15 1.0km</title><desc>10039610121</desc></polyline><polyline fill="none" points="43.75544123351574,140.10830203117803 44.271439876407385,145.52075974736363 45.64743625931442,149.4401184762828 47.36743173748255,151.86638513277285 48.39942902419716,155.22582744481042 51.32342133577913,160.4516177601181 52.011419526301324,161.19815835589543 52.87141726631671,161.57142857136205 53.38741590920836,161.19815835589543 53.38741590920836,160.63825292955153 49.94742495380342,157.83872394706123 47.711430832743645,153.73274252167903 46.85143309365958,150.18666230980307 44.78743852023035,145.52075974736363 43.75544123351574,141.6013949678745 43.92744078207761,139.1751185003668 43.75544123351574,138.42857142840512" stroke="#4dd2ff" stroke-linecap="round" stroke-linejoin="round" stroke-width="0.5"><title>2023-10-14 1.0km</title><desc>10033377496</desc></polyline><polyline fill="none" points="69.03836493100971,138.79592004208826 72.08521294314414,142.46940320334397 72.42375161126256,145.2245120294392 75.30133028980345,154.04083985602483 78.00963963381946,160.46939261630177 78.85598630364984,161.57142857136205 79.53306363988668,161.57142857136205 79.53306363988668,161.02041065483354 79.36379430536181,160.46939261630177 77.84037029929459,159.3673561748583 76.14767695963383,156.24491695151664 74.2857142854482,150.3673737095669 70.90032760519534,142.8367512221448 70.39251960348338,140.26531395455822 69.54617293272167,138.42857142863795" stroke="#4dd2ff" stroke-linecap="round" stroke-linejoin="round" stroke-width="0.5"><title>2023-10-13 1.0km</title><desc>10028006924</desc></polyline><polyline fill="none" points="95.03433640487492,138.42857142840512 96.66242283023894,140.54853708157316 97.63927468471229,142.31517369649373 97.80208332743496,144.61179935513064 97.63927468471229,147.08508607069962 99.43016975186765,150.79501137160696 101.54668210446835,156.4482198629994 103.66319445613772,160.33479298627935 104.1516203833744,161.041441970272 104.9656635960564,161.57142857136205 104.9656635960564,160.6881175043527 103.17476852890104,158.3915072104428 101.54668210446835,155.56490691308863 99.43016975186765,149.7350332988426 98.12770061194897,147.4384125370998 97.47646604292095,145.49511633184738" stroke="#4dd2ff" stroke-linecap="round" stroke-linejoin="round" stroke-width="0.5"><title>2023-10-12 1.0km</title><desc>10021974100</desc></polyline><polyline fill="none" points="123.00850237999111,141.71003519324586 123.64515728224069,145.16420262586325 123.4859935566783,146.5458681769669 124.91846708580852,151.2089834115468 126.03261316474527,153.2814760999754 127.14675924368203,157.08104128041305 128.73839649837464,160.8806003157515 129.05672394949943,161.2260144688189 129.85254257824272,161.57142857136205 129.693378851749,160.8806003157515 127.942577871494,156.3902117048856 126.03261316474527,153.10876844543964 123.4859935566783,147.23670064727776 122.84933865442872,144.99149437481537 122.53101120330393,141.71003519324586 121.5760288508609,138.42857142863795" stroke="#4dd2ff" stroke-linecap="round" stroke-linejoin="round" stroke-width="0.5"><title>2023-10-10 1.0km</title><desc>10009069592</desc></polyline><polyline fill="none" points="147.50799494236708,141.32144122594036 148.60575635824353,144.38447589369025 149.70351777411997,148.46851581253577 152.05586366634816,153.5735555771971 153.93774037901312,160.03992311633192 155.03550179488957,161.57142857147846 155.34914791490883,161.06092686555348 155.50597097352147,159.18908631405793 154.40820955764502,155.9559036140563 152.05586366634816,151.87187690660357 149.38987165596336,144.38447589369025 148.60575635824353,140.98110379010905 147.3511718828231,138.42857142852154" stroke="#4dd2ff" stroke-linecap="round" stroke-linejoin="round" stroke-width="0.5"><title>2023-10-09 1.0km</title><desc>10003389142</desc></polyline><polyline fill="none" points="172.43087039794773,138.42857142840512 173.58820047602057,139.86379375937395 174.74553055409342,142.55483335372992 175.4068620270118,147.93690363992937 177.88685505092144,153.31896205549128 180.03618233744055,159.41861390997656 181.02817954681814,161.21262625977397 181.85484388750046,161.57142857136205 181.85484388750046,160.13621900836006 178.71351939160377,155.11297888937406 174.58019768539816,145.06646763090976 172.92686900217086,138.60797426640056" stroke="#4dd2ff" stroke-linecap="round" stroke-linejoin="round" stroke-width="0.5"><title>2023-10-08 1.0km</title><desc>9996447828</desc></polyline><polyline fill="none" points="19.886466700583696,169.84287619916722 20.648178536444902,172.6530872018775 22.933314041234553,178.76941665518098 23.695025876164436,181.41431072517298 26.132503747940063,187.53061634639744 26.894215582869947,188.3571428571595 27.046557949855924,187.69592167297378 27.046557949855924,187.03470029460732 24.152052977122366,181.9102280169027 22.780971674248576,178.93472262541763 20.343493801541626,171.6612484252546 19.581781966611743,167.85919572925195 18.667727764695883,165.21428571431898" stroke="#4dd2ff" stroke-linecap="round" stroke-linejoin="round" stroke-width="0.5"><title>2023-10-07 1.0km</title><desc>9989974159</desc></polyline><polyline fill="none" points="46.68065486103296,172.10792782274075 47.89075003564358,176.0471423274139 48.79832141753286,178.01674697361887 50.613464180380106,185.7310151066631 51.06724987085909,187.2082123461878 51.97482125181705,188.3571428571595 52.73113073594868,188.3571428571595 53.033654529601336,187.70061120891478 52.88239263370633,187.2082123461878 51.06724987085909,184.58208324376028 49.25210710801184,180.64288379845675 48.647059520706534,178.01674697361887 45.47055968642235,170.30245218542404 45.01677399594337,167.5121687820647 44.109202614054084,165.21428571431898" stroke="#4dd2ff" stroke-linecap="round" stroke-linejoin="round" stroke-width="0.5"><title>2023-10-06 1.0km</title><desc>9984428862</desc></polyline><polyline fill="none" points="69.30336489807814,165.21428571431898 71.92565404996276,172.23304300755262 73.6738468175754,178.11360874283127 76.64577452186495,185.51172079332173 77.86950945947319,187.97775343060493 78.39396728947759,188.35714285704307 79.09324439708143,188.35714285704307 79.26806367281824,187.97775343060493 78.74360584281385,187.02927961805835 76.64577452186495,183.99416107684374 75.42203958518803,181.5281246327795 73.32420826330781,176.0269579195883 72.45011187996715,173.18152225832455 70.00264200568199,168.62881867401302 70.00264200568199,166.92155275889672" stroke="#4dd2ff" stroke-linecap="round" stroke-linejoin="round" stroke-width="0.5"><title>2023-10-04 1.0km</title><desc>9971682885</desc></polyline><polyline fill="none" points="96.4972379328683,167.91711316874716 97.27562950365245,170.61993744410574 98.05402107350528,172.47812728898134 98.6767343301326,175.34987227525562 101.63462229724973,181.26227712223772 101.79030061140656,183.28938385332003 102.72437049634755,187.34359195071738 103.03572712372988,187.8503674598178 103.96979700867087,188.3571428571595 103.96979700867087,186.66789109795354 101.94597892649472,182.95153285574634 100.54487409908324,179.74194590048864 99.7664825282991,178.22161367256194 98.98809095751494,176.02557645644993 97.43130781780928,172.81597982684616 96.80859456118196,170.28208458342124 96.4972379328683,167.748186546145 96.03020299132913,165.21428571431898" stroke="#4dd2ff" stroke-linecap="round" stroke-linejoin="round" stroke-width="0.5"><title>2023-10-03 1.0km</title><desc>9965060084</desc></polyline><polyline fill="none" points="121.48394957371056,166.17060620267875 123.59911764413118,173.05610334384255 123.95164565555751,176.11631844588555 125.18549369648099,177.64642464672215 126.06681372597814,179.9415822608862 127.65318977832794,185.87073005991988 128.88703781925142,187.7833554991521 129.76835784781724,188.35714285704307 129.94462185446173,188.16588041838259 129.41582983732224,186.63578040408902 127.47692577261478,183.00178926368244 124.30417366698384,175.35126500763 122.36526960320771,169.61335705104284 122.01274159178138,165.21428571431898" stroke="#4dd2ff" stroke-linecap="round" stroke-linejoin="round" stroke-width="0.5"><title>2023-10-02 1.0km</title><desc>9958643020</desc></polyline><polyline fill="none" points="147.76016547903419,169.28744399291463 148.10141254402697,170.95373411779292 151.85513026081026,179.8405961599201 153.7319891192019,185.58001122879796 154.75573031418025,187.61657472187653 155.7794715091586,188.35714285704307 155.95009504258633,188.1720008435659 155.7794715091586,187.43143265438266 152.36700085829943,182.24744923319668 149.12515373900533,174.28631105832756 147.5895419465378,169.47258739476092 146.9070478156209,165.21428571408615" stroke="#4dd2ff" stroke-linecap="round" stroke-linejoin="round" stroke-width="0.5"><title>2023-10-01 1.0km</title><desc>9952075403</desc></polyline><polyline fill="none" points="173.820027009584,168.5683375300141 175.21097915899009,171.4192776955897 175.8291801130399,174.27021429815795 176.2928308295086,176.95344549254514 178.61108441092074,183.49380830593873 180.62023751437664,187.6863387079211 181.5475389463827,188.3571428571595 181.85663942527026,187.85403976368252 178.76563465036452,183.1584055412095 177.37468250095844,179.97207681334112 176.91103178448975,178.29505990596954 174.7473284425214,173.59940600628033 173.51092653162777,168.40063505608123 172.42907486110926,165.21428571431898" stroke="#4dd2ff" stroke-linecap="round" stroke-linejoin="round" stroke-width="0.5"><title>2023-09-30 1.0km</title><desc>9945549317</desc></polyline><polyline fill="none" points="19.274050780571997,192.0 20.809661670587957,194.59201057627797 21.321531967259943,196.62858844315633 22.68651942536235,199.96116685448214 23.369013154879212,204.96002620225772 23.8808834515512,206.44116780697368 25.928364637307823,211.44001429202035 26.44023493397981,214.58743106247857 26.78148179873824,214.9577151297126 27.293352095410228,215.14285714295693 27.463975527323782,214.77257310249843 24.392753748223186,209.21830596844666 22.345272560603917,204.40459787589498 21.662778832018375,201.62745440611616 19.274050780571997,196.0731582797598 18.250310187228024,192.74057472264394" stroke="#4dd2ff" stroke-linecap="round" stroke-linejoin="round" stroke-width="0.5"><title>2023-09-28 1.0km</title><desc>9933629332</desc></polyline><polyline fill="none" points="44.04731825552881,194.62988144042902 45.33992120344192,199.1883357341867 47.76355172879994,202.51950836111791 49.379305412992835,208.48054250143468 51.641360570676625,212.5129983238876 52.28766204416752,214.79220946785063 52.93396351672709,215.14285714295693 53.25711425486952,214.61688561108895 52.93396351672709,213.91559005482122 51.641360570676625,212.16235026181675 47.92512709740549,204.62340446491726 45.98622267600149,199.3636607248336 43.885742887854576,192.00000000023283" stroke="#4dd2ff" stroke-linecap="round" stroke-linejoin="round" stroke-width="0.5"><title>2023-09-27 1.0km</title><desc>9927137811</desc></polyline><polyline fill="none" points="76.20827032881789,191.9999999999418 75.74685687851161,194.22530548635405 75.28544342820533,195.50485317711718 74.9265663002152,197.0625604885863 72.82457169308327,201.45750311407028 71.74794030934572,203.29335766413715 71.54286766448058,204.07220370310824 71.6454039865639,204.68415360001381 71.90174479247071,205.57426165725337 72.67076720949262,207.46573780244216 72.92710801539943,207.96642187290126 73.23471698234789,208.85652606899384 74.26008020504378,210.13604901649524 74.72149365558289,211.1374132920755 75.23417526716366,211.91625125706196 75.64432055619545,213.028875530581 76.25953849009238,213.86334266205085 77.0285609071143,215.1428571428405" stroke="#4dd2ff" stroke-linecap="round" stroke-linejoin="round" stroke-width="0.5"><title>2023-09-26 1.0km</title><desc>9920397094</desc></polyline><polyline fill="none" points="99.89192075282335,191.9999999999418 98.88318111049011,195.3620003819815 97.8744414683897,197.1602752925828 96.93775465735234,198.33306163945235 96.43338483641855,199.2712897855672 96.2172263415996,200.2095171037945 96.28927917289548,201.3823000874836 96.64954333123751,202.32052554324036 97.5141773102805,203.64967685518786 97.8744414683897,204.9788265057141 98.59496978390962,206.69890005787602 99.96397358435206,208.41897082794458 102.26966419513337,213.1100587871042 103.78277365863323,215.1428571428405" stroke="#4dd2ff" stroke-linecap="round" stroke-linejoin="round" stroke-width="0.5"><title>2023-09-25 1.0km</title><desc>9914573673</desc></polyline><polyline fill="none" points="127.4204914344009,192.0 126.85175619437359,192.8640114669688 126.7380091464147,193.2960168668651 126.85175619437359,193.85145205439767 126.90862971846946,194.40688687423244 125.77115923818201,196.5051928765024 125.48679161793552,197.924632197537 125.0886769501958,198.97378145722905 122.69998894166201,203.17036538163666 122.64311541779898,203.66407975781476 122.87060951348394,204.65150763938436 123.49621827783994,205.63893435924547 123.83745942194946,206.50293178623542 124.3493211378809,207.36692832381232 124.63368875789456,208.23092397203436 125.37304457020946,209.40348807227565 125.94177981000394,210.57605053449515 126.56738857459277,211.254901737615 126.7380091464147,211.8720387185458 127.13612381438725,212.3657479765825 127.98922667466104,213.84687400865369 128.6148354387842,214.52572256652638 128.78545601083897,215.1428571428405" stroke="#4dd2ff" stroke-linecap="round" stroke-linejoin="round" stroke-width="0.5"><title>2023-09-24 1.0km</title><desc>9907510217</desc></polyline><polyline fill="none" points="152.29133897880092,191.9999999999418 151.80818915064447,192.74896801094292 151.4630821305327,193.49793547106674 151.25601791846566,194.4715923460899 151.18699651421048,195.74483454739675 150.0136326458305,197.3176609519869 149.32341860583983,199.11517386877676 148.70222596940584,200.01392913766904 148.28809754527174,201.21226826281054 148.21907614101656,202.48550203844206 149.66852562571876,206.15540225210134 150.22069685789756,207.27883844985627 152.01525336271152,210.1248712722445 152.77448880695738,211.9972569507081 153.7407884632703,213.19558197859442 154.29295969568193,214.1692200260004 154.63806671579368,215.1428571428405" stroke="#4dd2ff" stroke-linecap="round" stroke-linejoin="round" stroke-width="0.5"><title>2023-09-23 1.0km</title><desc>9901004991</desc></polyline><polyline fill="none" points="178.03150820964947,192.0 177.57072617509402,192.85715268884087 177.10994414030574,194.357168074348 176.05672806105576,196.57147226738743 175.0035119818058,198.07148191751912 174.08194791246206,200.57149285409832 174.01612190739252,201.92863895383198 174.1477739175316,202.71435425058007 175.46429401636124,205.85720908205258 175.66177203133702,206.78577788191615 175.92507605114952,207.28577609884087 176.84664012049325,208.42862819996662 177.57072617509402,209.85719143541064 178.16316021955572,211.3571805721731 179.150550293969,212.78573950158898 180.26959237805568,215.1428571428405" stroke="#4dd2ff" stroke-linecap="round" stroke-linejoin="round" stroke-width="0.5"><title>2023-09-22 1.0km</title><desc>9895405405</desc></polyline><polyline fill="none" points="24.083951871609315,218.78571428573923 23.89521202328615,219.46840269467793 23.517732326639816,219.87801549909636 22.6998596501071,221.37992756912718 22.385293236235157,222.47222573042382 21.441593994153664,224.86162347818026 20.434981469763443,226.9096737963264 19.805848641553894,228.41157449188177 19.617108793230727,229.16252392844763 19.617108793230727,229.64040052646305 19.805848641553894,230.3230809540837 20.183328338433057,231.0057608798379 21.001201014965773,233.1220654596691 21.819073691032827,234.62395610607928 22.25946667068638,235.7162386867567 23.077339346986264,237.08159010566305 23.580645609181374,237.695997589326 23.958125306060538,238.78827655612258 24.96473783091642,240.5632271367358 26.09717692108825,241.92857142857974" stroke="#4dd2ff" stroke-linecap="round" stroke-linejoin="round" stroke-width="0.5"><title>2023-09-21 1.0km</title><desc>9889267953</desc></polyline><polyline fill="none" points="50.927659187233075,218.78571428573923 50.10176391969435,221.263459073205 49.615943174343556,223.214018094528 48.83862998127006,224.8482661617454 47.91557056480087,227.58957713481504 46.31236210442148,230.5944636601489 45.87512343353592,232.22869490430458 45.92370550800115,232.59771434712457 46.21519795525819,233.3884696564637 46.846764924703166,234.7591101268772 47.2354215211235,235.91888078604825 48.207063012290746,237.28951641911408 48.79004790703766,238.39656636398286 49.1301224285271,239.1873152781045 49.518779024947435,239.87263029819587 50.15034599439241,240.34707877459005 50.927659187233075,241.5068403953337 50.976241261931136,241.7177059429814 51.26773370918818,241.92857142857974" stroke="#4dd2ff" stroke-linecap="round" stroke-linejoin="round" stroke-width="0.5"><title>2023-09-20 1.0km</title><desc>9882714971</desc></polyline><polyline fill="none" points="76.20464674872346,218.78571428573923 75.71120697259903,220.0350885152584 74.77915406203829,222.77180627640337 74.72432742011733,223.66421224054648 74.39536756905727,224.1401616857038 74.01158107677475,225.03256614063866 73.79227450932376,225.86547607730608 73.35366137512028,226.9958524769172 72.09264861349948,229.01862735598115 71.76368876267225,230.20849256968359 71.65403547906317,231.27936976606725 71.76368876267225,232.35024554503616 72.09264861349948,233.5401058595162 72.476435105782,234.3730070387246 73.68262122571468,236.45525623566937 74.28571428568102,237.28815441404004 74.83398070349358,238.77547045750543 75.3822471217718,239.72735129058128 75.93051353958435,240.50075364299119 76.5336065995507,241.0956780264969 76.91739309229888,241.92857142857974" stroke="#4dd2ff" stroke-linecap="round" stroke-linejoin="round" stroke-width="0.5"><title>2023-09-19 1.0km</title><desc>9876194288</desc></polyline><polyline fill="none" points="99.82965137111023,218.78571428573923 99.42081466154195,219.4511712892563 98.73942014598288,220.782083975384 98.53500179131515,221.6693581205909 97.30849166284315,223.8136007396388 96.35453934082761,225.80996044742642 96.15012098592706,226.54935192601988 96.2182604377158,227.36268192430725 96.62709714728408,228.3978282439639 97.24035221128725,229.50691240374 97.78546782396734,231.05962817254476 98.53500179131515,232.6862802161486 99.35267520998605,234.16505251801573 100.10220917756669,235.12625334830955 100.98802204779349,236.60502206231467 101.53313766024075,238.30560339521617 102.48708998248912,239.78436743433122 102.96406614361331,241.1152532103588 103.84987901407294,241.92857142857974" stroke="#4dd2ff" stroke-linecap="round" stroke-linejoin="round" stroke-width="0.5"><title>2023-09-18 1.0km</title><desc>9870505463</desc></polyline><polyline fill="none" points="125.94682994415052,218.78571428573923 125.61462390096858,219.43458688195096 125.14953544083983,221.59749243460828 124.55156456376426,222.6068467264995 124.28579972917214,223.3999100839137 122.82409314042889,225.77909630781505 122.29256347171031,227.0768318150076 121.9603574287612,228.23037304595346 122.22612226288766,229.02343185519567 123.68782885186374,232.1956606777385 124.41868214658462,233.3491958871018 124.95021181507036,234.5748255600338 125.81394752673805,235.72835797059815 126.27903598709963,236.52141071559163 126.87700686440803,238.39589647261892 129.4682139994111,241.92857142857974" stroke="#4dd2ff" stroke-linecap="round" stroke-linejoin="round" stroke-width="0.5"><title>2023-09-16 1.0km</title><desc>9856514700</desc></polyline><polyline fill="none" points="151.10865664482117,218.78571428573923 150.3977349025663,220.94573588488856 149.47353663784452,222.41146229451988 147.5540479340125,226.11434094503056 147.48295575962402,226.9629154620343 147.5540479340125,227.96577536972472 147.98060097941197,228.96863431896782 148.69152272166684,230.04863519221544 149.3313522893004,231.51434888498625 150.46882707672194,233.44291641382733 151.89067056123167,236.14290499896742 152.03285490954295,237.14575613243505 152.53050012909807,237.5314678516006 153.09923752280883,238.30289086455014 154.02343578753062,239.84573518909747 155.01872622640803,240.69429860054515 155.23200274910778,241.2342931414605 155.37418709765188,241.92857142857974" stroke="#4dd2ff" stroke-linecap="round" stroke-linejoin="round" stroke-width="0.5"><title>2023-09-15 1.0km</title><desc>9850671982</desc></polyline><polyline fill="none" points="177.73120543546975,218.78571428573923 176.5545088504441,221.89805827580858 175.23072519153357,223.81334244890604 174.64237689925358,224.85078663157765 173.7598544601351,227.0852784261806 173.53922385070473,227.88331009511603 173.53922385070473,228.521735007409 173.7598544601351,229.31976562016644 174.64237689925358,231.71385393780656 175.4513558014296,233.30990988243138 177.43703128909692,236.74142221611692 178.24601019127294,238.25766839610878 178.39309726422653,239.13549416378373 178.98144555743784,239.69411019166 179.93751153256744,241.2103522468824 180.74649043474346,241.92857142857974" stroke="#4dd2ff" stroke-linecap="round" stroke-linejoin="round" stroke-width="0.5"><title>2023-09-14 1.0km</title><desc>9844236351</desc></polyline><polyline fill="none" points="19.179031538311392,245.57142857136205 19.60241125826724,245.9159922673134 19.761178653454408,246.26055581122637 19.867023583501577,247.00710963463644 20.184558373410255,247.6388084665523 20.396248233737424,249.41904787998646 20.396248233737424,250.2804525909596 20.290403303690255,250.73986804834567 20.396248233737424,251.3141369901714 20.660860558738932,252.0032591629424 20.555015628691763,252.57752717577387 20.607938093831763,252.86466102383565 21.13716274383478,253.84091531776357 21.613464929163456,255.27658118045656 22.036844649352133,256.08055291092023 22.56606929935515,256.82709734817035 23.148216414730996,257.343935386627 23.306983809685335,257.688493889058 23.465751204872504,258.43503678945126 23.88913092506118,259.1815789762768 24.365433110157028,260.5598088313127 25.000502690207213,261.7657579596271 25.31803748034872,262.7994271591306 25.47680487553589,263.66081711358856 25.7943396656774,264.34992839349434 26.376486780820414,266.2449812780251 27.1703237562906,267.73805000964785 27.2232462214306,267.9677526380983 27.1703237562906,268.14002956519835 26.535254175774753,268.71428571426077 26.85278896591626,268.4845833052532 27.01155636110343,268.14002956519835 27.11740129091777,267.8529013323714 27.06447882624343,267.45092162903165 26.746944036101922,267.0489417188219 25.7943396656774,264.98161319905194 25.31803748034872,263.4311132186558 24.31251064524986,261.1914967020857 23.83620845992118,259.00930007349234 23.571596134919673,258.37761043792125 22.56606929935515,257.0568031852599 21.560542464023456,255.16172800853383 21.08424027869478,253.61120853491593 20.9254728842061,252.57752717577387 20.502093163551763,251.48641759040765 19.65533372340724,249.64875589578878 19.4436438633129,248.78735048812814 18.702729352982715,247.40909985953476 18.543961957795545,246.66254642023705 18.491039492888376,245.74371043837164" stroke="#4dd2ff" stroke-linecap="round" stroke-linejoin="round" stroke-width="0.5"><title>2023-09-13 1.0km</title><desc>9837636972</desc></polyline></svg>