<?xml version="1.0" encoding="utf-8" ?>
<svg baseProfile="full" height="300mm" version="1.1" viewBox="0,0,200,300" width="200mm" xmlns="http://www.w3.org/2000/svg" xmlns:ev="http://www.w3.org/2001/xml-events" xmlns:xlink="http://www.w3.org/1999/xlink"><defs /><rect fill="#222222" height="300" width="200" x="0" y="0" /><text fill="#FFFFFF" style="font-size:12px; font-family:Arial; font-weight:bold;" x="10" y="20">Over 1km Runs</text><text fill="#FFFFFF" style="font-size:4px; font-family:Arial" x="10" y="280">ATHLETE</text><text fill="#FFFFFF" style="font-size:9px; font-family:Arial" x="10" y="290">Jiakai</text><text fill="#FFFFFF" style="font-size:4px; font-family:Arial" x="120" y="280">STATISTICS</text><text fill="#FFFFFF" style="font-size:3px; font-family:Arial" x="120" y="285">Number: 16</text><text fill="#FFFFFF" style="font-size:3px; font-family:Arial" x="120" y="290">Weekly: 5.3</text><text fill="#FFFFFF" style="font-size:3px; font-family:Arial" x="141" y="285">Total: 16.3 km</text><text fill="#FFFFFF" style="font-size:3px; font-family:Arial" x="141" y="290">Avg: 1.0 km</text><text fill="#FFFFFF" style="font-size:3px; font-family:Arial" x="167" y="285">Min: 1.0 km</text><text fill="#FFFFFF" style="font-size:3px; font-family:Arial" x="167" y="290">Max: 1.0 km</text><polyline fill="none" points="26.685047266073525,38.11959067755379 29.119213527068496,43.10873596719466 30.20106519665569,48.09787502186373 31.012453950941563,52.79352961201221 35.06939771864563,64.23916453542188 38.58541565015912,71.57609273889102 40.2081931559369,72.75 40.7491189930588,71.8695695863571 35.33986063674092,63.652209697058424 32.905694376677275,58.076134423492476 32.0943056223914,55.14135483559221 28.307824773713946,46.923960511107 26.144121429882944,37.826111348113045 24.250881006009877,32.25" stroke="#4dd2ff" stroke-linecap="round" stroke-linejoin="round" stroke-width="0.5"><title>2023-09-30 1.0km</title><desc>9945549317</desc></polyline><polyline fill="none" points="71.22958886437118,32.25 73.9169079232961,36.78601850848645 74.81268094107509,40.350029775407165 77.20140899345279,46.18204199522734 78.39577301964164,54.9300458538346 79.29154603928328,57.5220436619129 82.87463811412454,66.27002501068637 83.77041113376617,71.77800435898826 84.3675931468606,72.42600147682242 85.26336616650224,72.75 85.56195717304945,72.10200292943045 80.18731905706227,62.38203544449061 76.60422698035836,53.95804628264159 75.40986295603216,49.09804521035403 71.22958886437118,39.37802698928863 69.43804282695055,33.54600576451048" stroke="#4dd2ff" stroke-linecap="round" stroke-linejoin="round" stroke-width="0.5"><title>2023-09-28 1.0km</title><desc>9933629332</desc></polyline><polyline fill="none" points="114.5828069485724,36.85229252045974 116.84486210625619,44.829587534302846 121.08621552586555,50.659139631548896 123.91378447320312,61.090949377045035 127.87238099891692,68.14774706633762 129.00340857822448,72.13636656850576 130.1344361556694,72.75 130.6999499462545,71.82954981876537 130.1344361556694,70.6022825955879 127.87238099891692,67.53411295777187 121.36897242069244,54.340957812964916 117.9758896837011,45.13640626822598 114.30005005374551,32.25" stroke="#4dd2ff" stroke-linecap="round" stroke-linejoin="round" stroke-width="0.5"><title>2023-09-27 1.0km</title><desc>9927137811</desc></polyline><polyline fill="none" points="170.86447307514027,32.25 170.05699953669682,36.144284601090476 169.2495259991847,38.38349306001328 168.62149102473632,41.10948085505515 164.94300046237186,48.80063044966664 163.05889554088935,52.013375912210904 162.70001841243356,53.37635648041032 162.87945697642863,54.44726880011149 163.3280533864163,56.00495790026616 164.67384261637926,59.315041154273786 165.12243902636692,60.191238277591765 165.66075471881777,61.74892062076833 167.45514035830274,63.988085778895766 168.2626138967462,65.74047326110303 169.15980671718717,67.10343969985843 169.87756097316742,69.05053217848763 170.9541923571378,70.51084965851624 172.29998158710077,72.75" stroke="#4dd2ff" stroke-linecap="round" stroke-linejoin="round" stroke-width="0.5"><title>2023-09-26 1.0km</title><desc>9920397094</desc></polyline><polyline fill="none" points="32.31086131744087,97.25 30.545566943474114,103.13350066856947 28.78027256950736,106.28048176213633 27.14107065042481,108.33285786909983 26.258423463907093,109.97475712478627 25.880146097857505,111.61665493168402 26.006238552276045,113.66902515315451 26.63670082949102,115.3109197007725 28.149810292758048,117.63693449657876 28.78027256950736,119.96294638514519 30.041197121609002,122.9730751013849 32.43695377232507,125.98319894901942 36.471912341192365,134.19260287750512 39.119853902608156,137.75" stroke="#4dd2ff" stroke-linecap="round" stroke-linejoin="round" stroke-width="0.5"><title>2023-09-25 1.0km</title><desc>9914573673</desc></polyline><polyline fill="none" points="80.48586001014337,97.25 79.49057334056124,98.76202006719541 79.29151600645855,99.51802951702848 79.49057334056124,100.49004109529778 79.59010200761259,101.46205202990677 77.59952866705135,105.13408753392287 77.10188533179462,107.6181063457625 76.40518466290087,109.45411755016539 72.22498064814135,116.79813941800967 72.12545198109001,117.6621395762777 72.52356664882973,119.3901383690536 73.61838198639452,121.11813512875233 74.2155539887026,122.6301306260284 75.11131199123338,124.14212456671521 75.6089553264901,125.65411695104558 76.90282799815759,127.70610412652604 77.89811466773972,129.75808843539562 78.99293000577018,130.9460780408699 79.29151600645855,132.02606775751337 79.9882166753523,132.89005895901937 81.48114668065682,135.48202951520216 82.57596201775596,136.67001449142117 82.87454801890999,137.75" stroke="#4dd2ff" stroke-linecap="round" stroke-linejoin="round" stroke-width="0.5"><title>2023-09-24 1.0km</title><desc>9907510217</desc></polyline><polyline fill="none" points="124.00984321301803,97.25 123.16433101380244,98.56069401919376 122.56039372878149,99.87138707446866 122.19803135748953,101.57528660574462 122.0772439003922,103.80346045806073 120.02385713066906,106.5559066660935 118.81598256062716,109.7015542704612 117.72889544675127,111.27437599096447 117.004170704633,113.3714694599621 116.88338324707001,115.59962856734637 119.41991984564811,122.02195394120645 120.38621950149536,123.98796728730667 123.5266933850944,128.96852472657338 124.85535541223362,132.2451996637974 126.54637981113046,134.3422684626421 127.51267946790904,136.04613504558802 128.11661675339565,137.75" stroke="#4dd2ff" stroke-linecap="round" stroke-linejoin="round" stroke-width="0.5"><title>2023-09-23 1.0km</title><desc>9901004991</desc></polyline><polyline fill="none" points="169.05513936746866,97.25 168.24877080647275,98.75001720560249 167.4424022459425,101.37504413025454 165.59927410725504,105.25007646798622 163.75614596856758,107.87509335565846 162.14340884704143,112.25011249468662 162.0282133379951,114.62511816923507 162.25860435608774,116.00011993863154 164.56251452909783,121.50011589366477 164.9081010548398,123.12511129351333 165.36888308962807,124.00010817311704 166.98162021115422,126.0000993499998 168.24877080647275,128.50008501205593 169.2855303841643,131.12506600143388 171.01346301473677,133.62504412792623 172.9717866620049,137.75" stroke="#4dd2ff" stroke-linecap="round" stroke-linejoin="round" stroke-width="0.5"><title>2023-09-22 1.0km</title><desc>9895405405</desc></polyline><polyline fill="none" points="34.646915775723755,162.25 34.316621040925384,163.44470471562818 33.6560315717943,164.16152712341864 32.224754387978464,166.7898732459871 31.674263163469732,168.70139502815437 30.022789489943534,172.8828410867136 28.261217572260648,176.46692914352752 27.16023512277752,179.09525536070578 26.82994038797915,180.40941687475424 26.82994038797915,181.24570092128124 27.16023512277752,182.44039166963194 27.820824591908604,183.63508153974544 29.252101776190102,187.33861455437727 30.683378959540278,189.96692318562418 31.45406667375937,191.87841770180967 32.88534385710955,194.26778268488124 33.76612981595099,195.34299578121863 34.42671928554773,197.25448397314176 36.18829120369628,200.36064748920035 38.17005961155519,202.75" stroke="#4dd2ff" stroke-linecap="round" stroke-linejoin="round" stroke-width="0.5"><title>2023-09-21 1.0km</title><desc>9889267953</desc></polyline><polyline fill="none" points="81.62340357713401,162.25 80.17808685917407,166.58605337806512 79.32790055498481,169.99953166535124 77.9676024671644,172.85946578299627 76.35224848799407,177.65675998595543 73.54663368267938,182.91531140520237 72.78146600862965,185.77521608246025 72.86648463876918,186.42100010742433 73.376596421469,187.8048218988115 74.4818386179395,190.2034427219769 75.16198766184971,192.23304137552623 76.86236027115956,194.6316537334351 77.88258383702487,196.56899113697 78.47771424986422,197.95280173653737 79.15786329330876,199.15210302185733 80.26310548977926,199.98238785553258 81.62340357713401,202.01197069173213 81.70842220820487,202.3809854001738 82.21853399090469,202.75" stroke="#4dd2ff" stroke-linecap="round" stroke-linejoin="round" stroke-width="0.5"><title>2023-09-20 1.0km</title><desc>9882714971</desc></polyline><polyline fill="none" points="125.85813181009144,162.25 124.9946122020483,164.4364049016731 123.3635196085088,169.22566098358948 123.26757298503071,170.787371421 122.69189324602485,171.62028294999618 122.02026688447222,173.18199074605945 121.6364803914912,174.63958313525654 120.86890740599483,176.6177418344887 118.66213507344946,180.15759787289426 118.0864553344436,182.23986199696083 117.89456208841875,184.11389709066134 118.0864553344436,185.98792970378418 118.66213507344946,188.07018525421154 119.33376143500209,189.52776231779717 121.4445871450007,193.1716984123923 122.5,194.62927022448275 123.45946623105556,197.2320733006345 124.41893246304244,198.8978647585027 125.378398694098,200.25131887523457 126.4338115490973,201.29243654641323 127.10543791158125,202.75" stroke="#4dd2ff" stroke-linecap="round" stroke-linejoin="round" stroke-width="0.5"><title>2023-09-19 1.0km</title><desc>9876194288</desc></polyline><polyline fill="none" points="167.20188989909366,162.25 166.48642565775663,163.4145497562131 165.29398525552824,165.7436469568638 164.9362531346269,167.29637671099044 162.78986040968448,171.04880129441153 161.12044384609908,174.54243078292347 160.76271172519773,175.83636587054934 160.88195576611906,177.25969336752314 161.5974200074561,179.07119942689314 162.67061636969447,181.01209670654498 163.62456869194284,183.72934930189513 164.9362531346269,186.57599037827458 166.36718161730096,189.16384190658573 167.67886606045067,190.8459433595417 169.2290385835804,193.43378860899247 170.1829909053631,196.4098059416283 171.85240746941417,198.99764301010873 172.68711575120687,201.32669311820064 174.23728827480227,202.75" stroke="#4dd2ff" stroke-linecap="round" stroke-linejoin="round" stroke-width="0.5"><title>2023-09-18 1.0km</title><desc>9870505463</desc></polyline><polyline fill="none" points="32.90695240255445,227.25 32.325591827277094,228.38552704337053 31.51168702216819,232.17061176057905 30.465237986762077,233.9369817712577 30.000149526633322,235.32484264671803 27.442162996158004,239.48841853858903 26.511986075900495,241.75945567619056 25.930625500623137,243.7781528304331 26.39571396075189,245.16600574646145 28.95370049122721,250.71740618604235 30.23269375693053,252.73609280236997 31.162870676722378,254.88094473001547 32.674408172257245,256.89962644851767 33.48831297783181,258.2874687522417 34.53476201277226,261.5678188269958 39.06937449937686,267.75" stroke="#4dd2ff" stroke-linecap="round" stroke-linejoin="round" stroke-width="0.5"><title>2023-09-16 1.0km</title><desc>9856514700</desc></polyline><polyline fill="none" points="76.94014912797138,227.25 75.69603607943282,231.03003779845312 74.07868911605328,233.59505901532248 70.71958388434723,240.07509665377438 70.59517257940024,241.56010205857456 70.71958388434723,243.31510689703282 71.4660517135635,245.07011005817913 72.71016476256773,246.96011158637702 73.8298665061593,249.52511054871138 75.82044738391414,252.90010372409597 78.3086734819226,257.6250837481348 78.55749609135091,259.38007323176134 79.42837522551417,260.05506874027196 80.42366566462442,261.40505901293363 82.0410126275383,264.1050365809351 83.78277089586481,265.5900225510122 84.15600481070578,266.53501299757045 84.40482742059976,267.75" stroke="#4dd2ff" stroke-linecap="round" stroke-linejoin="round" stroke-width="0.5"><title>2023-09-15 1.0km</title><desc>9850671982</desc></polyline><polyline fill="none" points="123.52960951207206,227.25 121.47039048792794,232.69660198269412 119.1537690856494,236.04834928561468 118.124159574043,237.86387660529 116.57974530570209,241.77423724578694 116.19364173850045,243.1707926663803 116.19364173850045,244.28803626296576 116.57974530570209,245.68458983523306 118.124159574043,249.87424439110328 119.53987265285105,252.66734229424037 123.01480475626886,258.67248887824826 124.4305178350769,261.3259196932195 124.68792021274567,262.8621147866361 125.71752972528338,263.8396928353468 127.39064518222585,266.493116431986 128.80635826149955,267.75" stroke="#4dd2ff" stroke-linecap="round" stroke-linejoin="round" stroke-width="0.5"><title>2023-09-14 1.0km</title><desc>9844236351</desc></polyline><polyline fill="none" points="161.06330519216135,227.25 161.8042197022587,227.85298646788578 162.082062643487,228.45597266976256 162.26729127159342,229.76244186074473 162.82297715405002,230.86791481659748 163.19343440933153,233.98333379009273 163.19343440933153,235.4907920343103 163.00820578169078,236.29476908466313 163.19343440933153,237.2997397328727 163.65650597820058,238.5057035352802 163.47127735055983,239.51067255774979 163.56389166414738,240.0131567917997 164.49003480235115,241.72160180623177 165.3235636265017,244.23401706595905 166.06447813659906,245.64096759422682 166.99062127433717,246.94742035935633 168.00937872566283,247.85188692668453 168.2872216673568,248.45486430590972 168.5650646085851,249.76131438161246 169.3059791191481,251.06776320864446 170.139507942833,253.47966545494273 171.25087970821187,255.59007642942015 171.80656559113413,257.3989975285949 172.08440853236243,258.9064299489837 172.6400944152847,260.1123746887315 173.65885186661035,263.42871723661665 175.04806657368317,266.0415875170147 175.14068088773638,266.44356711686123 175.04806657368317,266.7450517391553 173.93669480783865,267.75 174.4923806907609,267.34802078432404 174.7702236319892,266.7450517391553 174.95545225962996,266.24257733183913 174.86283794604242,265.5391128510237 174.30715206358582,264.83564800804015 172.6400944152847,261.21782309853006 171.80656559113413,258.5044481327059 170.04689362924546,254.58511922881007 169.2133648050949,250.7662751286989 168.75029323622584,249.6608182664495 166.99062127433717,247.3494055743795 165.2309493124485,244.03302401513793 164.39742048829794,241.3196149362484 164.1195775475353,239.51067255774979 163.37866303650662,237.6012307832716 161.8968340163119,234.3853228178341 161.5263767610304,232.87786335428245 160.2297763680108,230.46592475427315 159.9519334267825,229.15945623558946 159.85931911272928,227.55149326729588" stroke="#4dd2ff" stroke-linecap="round" stroke-linejoin="round" stroke-width="0.5"><title>2023-09-13 1.0km</title><desc>9837636972</desc></polyline></svg>