<svg xmlns="http://www.w3.org/2000/svg" xmlns:ev="http://www.w3.org/2001/xml-events" xmlns:xlink="http://www.w3.org/1999/xlink" width="200mm" height="200mm" baseProfile="full" version="1.1" viewBox="0 0 200 200"><rect width="200" height="200" x="0" y="0" fill="#1a1a1a"/><text fill="#e1ed5e" alignment-baseline="middle" style="dominant-baseline:central;font-size:9px;font-family:Arial" x="100" y="100" text-anchor="middle">2024</text><line x1="100" x2="100" y1="15" y2="10" stroke="#e1ed5e" stroke-width=".3"/><path id="id13" fill="none" stroke="none" d="M 100.0 14.0 a86.0,86.0 0 0,1 42.35913384403234,11.155469271406648"/><text fill="#e1ed5e" style="font-size:6.75px;font-family:Arial" text-anchor="middle"><textPath startOffset="22.146" xlink:href="#id13">January</textPath></text><path fill="red" stroke="none" d="M 100.0 79.0 l 0.0 -0.03890468273590031 a21.0389046827359,21.0389046827359 0 0,0 0.3611607754617015,0.003100130888721246 l -0.0006678506128467356 0.03889895004161397"/><path fill="red" stroke="none" d="M 100.72087961077811 79.0123766808444 l 0.0013631007627713753 -0.03968519143469703 a21.03970859432035,21.03970859432035 0 0,0 0.36085528762568475,0.01549667871538605 l -0.002044148989292399 0.03965594429348006"/><path fill="red" stroke="none" d="M 101.08105385017728 79.02784411241856 l 0.0020602650169480132 -0.039968590924567574 a21.04002165604314,21.04002165604314 0 0,0 0.36054145829440126,0.02168927882757085 l -0.0027460754438116447 0.03992733427230498"/><path fill="red" stroke="none" d="M 101.44090949804482 79.04949213459386 l 0.002703379340822434 -0.039306542305348406 a21.0393993975571,21.0393993975571 0 0,0 0.36010535594234744,0.027874432015379123 l -0.003377730058403347 0.03925434329491564"/><path fill="red" stroke="none" d="M 101.80034050326958 79.07731436759882 l 0.0033551986042172676 -0.038992493643741286 a21.039136580308337,21.039136580308337 0 0,0 0.35956930022261946,0.03405158657387396 l -0.0040240622118496395 0.03892915156468363"/><path fill="red" stroke="none" d="M 102.15924093988457 79.11130261209362 l 0.004058635924315834 -0.03926362087005046 a21.039472831788373,21.039472831788373 0 0,0 0.3589375126131045,0.040219696960304405 l -0.004732050138217022 0.0391881634027752"/><path fill="red" stroke="none" d="M 102.87502721639298 79.19773525538626 l 0.005401424113348639 -0.03908201416777839 a21.039453506990668,21.039453506990668 0 0,0 0.35734499322276103,0.05251740815307215 l -0.006071522943791644 0.038983532715823825"/><path fill="red" stroke="none" d="M 105.3480935250658 79.69241777938227 l 0.009972862510990398 -0.03786858334986986 a21.03915977006558,21.03915977006558 0 0,0 0.34846719413025623,0.09497628332498395 l -0.01062145757593944 0.037691805880743855"/><path fill="red" stroke="none" d="M 105.69591212413111 79.78721728523813 l 0.010631940656847546 -0.037729006636647223 a21.039198419660988,21.039198419660988 0 0,0 0.346786089546782,0.10094437655244695 l -0.011278042585233971 0.037540935781684326"/><path fill="red" stroke="none" d="M 106.38641147887787 79.99465700312896 l 0.012005449012335356 -0.03760689803930626 a21.03947669674791,21.03947669674791 0 0,0 0.34312106573458784,0.11279070955731042 l -0.012649252394665593 0.03739526707997427"/><path fill="#4dd2ff" stroke="none" d="M 109.3889696526874 81.21577127319529 l 28.166908958062173 -56.352686180414125 a84.0,84.0 0 0,0 1.2842911131456847,0.6557681933086643 l -29.130127292921436 55.86086003543262"/><line x1="143.13" x2="145.667" y1="26.755" y2="22.447" stroke="#e1ed5e" stroke-width=".3"/><path id="id14" fill="none" stroke="none" d="M 143.63769802327073 25.89364864446614 a86.0,86.0 0 0,1 29.32050498858742,28.57503671076993"/><text fill="#e1ed5e" style="font-size:6.75px;font-family:Arial" text-anchor="middle"><textPath startOffset="20.669" xlink:href="#id14">February</textPath></text><line x1="172.872" x2="177.158" y1="56.243" y2="53.669" stroke="#e1ed5e" stroke-width=".3"/><path id="id15" fill="none" stroke="none" d="M 173.72905801456457 55.72781907015455 a86.0,86.0 0 0,1 12.242430191666344,42.057860355516425"/><text fill="#e1ed5e" style="font-size:6.75px;font-family:Arial" text-anchor="middle"><textPath startOffset="22.146" xlink:href="#id15">March</textPath></text><path fill="red" stroke="none" d="M 118.18653347947321 89.5 l 0.03436522135796732 -0.019840769801783512 a21.039681539603567,21.039681539603567 0 0,0 0.17790216438139433,0.31433607820577064 l -0.03470075076073762 0.019247921496894804"/><path fill="red" stroke="none" d="M 118.36410011445183 89.81374322990088 l 0.03451148008355606 -0.01914293624279544 a21.03946510186929,21.03946510186929 0 0,0 0.17247817899488263,0.31734042272842194 l -0.03483500869377999 0.018547680039770205"/><path fill="red" stroke="none" d="M 118.53625476483649 90.13048839642627 l 0.03458255637340788 -0.01841326339860555 a21.039179094863286,21.039179094863286 0 0,0 0.16700292335736852,0.3202501256985882 l -0.03489354870572098 0.01781689459551914"/><path fill="red" stroke="none" d="M 118.70294669586156 90.45014215332178 l 0.03495206605088986 -0.017846773968914965 a21.039244799175474,21.039244799175474 0 0,0 0.16148130012812448,0.3230707722907896 l -0.03525327939075133 0.01724414551437489"/><path fill="red" stroke="none" d="M 118.8641267826498 90.77261029715802 l 0.03491998070831189 -0.01708111242698379 a21.038873763059577,21.038873763059577 0 0,0 0.15590881650928906,0.3257894627798802 l -0.03520805517751294 0.016479147582000083"/><path fill="red" stroke="none" d="M 119.0197475246899 91.09779779509293 l 0.03556510644298129 -0.016646265602814563 a21.039267988932718,21.039267988932718 0 0,0 0.1502960498294156,0.32842399299571656 l -0.03584562112744832 0.016033290392413767"/><path fill="red" stroke="none" d="M 119.16976305983485 91.42560881287824 l 0.03579622755503048 -0.016011197275732143 a21.03921387949915,21.03921387949915 0 0,0 0.14463569681895094,0.3309547793569987 l -0.03606580639095175 0.015394348142884106"/><line x1="184.997" x2="189.997" y1="99.27" y2="99.227" stroke="#e1ed5e" stroke-width=".3"/><path id="id16" fill="none" stroke="none" d="M 185.99683186730306 99.26182062694052 a86.0,86.0 0 0,1 -10.086455211305974,41.156179273409016"/><text fill="#e1ed5e" style="font-size:6.75px;font-family:Arial" text-anchor="middle"><textPath startOffset="21.407" xlink:href="#id16">April</textPath></text><line x1="174.331" x2="178.703" y1="141.23" y2="143.655" stroke="#e1ed5e" stroke-width=".3"/><path id="id17" fill="none" stroke="none" d="M 175.20536237346943 141.71514677278685 a86.0,86.0 0 0,1 -30.301960400862466,31.631185727798858"/><text fill="#e1ed5e" style="font-size:6.75px;font-family:Arial" text-anchor="middle"><textPath startOffset="22.146" xlink:href="#id17">May</textPath></text><line x1="143.13" x2="145.667" y1="173.245" y2="177.553" stroke="#e1ed5e" stroke-width=".3"/><path id="id18" fill="none" stroke="none" d="M 143.63769802327073 174.10635135553383 a86.0,86.0 0 0,1 -40.68552437913181,11.842963189579606"/><text fill="#e1ed5e" style="font-size:6.75px;font-family:Arial" text-anchor="middle"><textPath startOffset="21.407" xlink:href="#id18">June</textPath></text><line x1="101.459" x2="101.545" y1="184.987" y2="189.987" stroke="#e1ed5e" stroke-width=".3"/><path id="id19" fill="none" stroke="none" d="M 101.47630435890484 185.9873277026323 a86.0,86.0 0 0,1 -42.54439059252881,-10.42667462771756"/><text fill="#e1ed5e" style="font-size:6.75px;font-family:Arial" text-anchor="middle"><textPath startOffset="22.146" xlink:href="#id19">July</textPath></text><line x1="58.133" x2="55.671" y1="173.974" y2="178.326" stroke="#e1ed5e" stroke-width=".3"/><path id="id20" fill="none" stroke="none" d="M 57.64086615596768 174.84453072859336 a86.0,86.0 0 0,1 -31.369924170532247,-30.572349798747897"/><text fill="#e1ed5e" style="font-size:6.75px;font-family:Arial" text-anchor="middle"><textPath startOffset="22.146" xlink:href="#id20">August</textPath></text><line x1="26.388" x2="22.058" y1="142.5" y2="145" stroke="#e1ed5e" stroke-width=".3"/><path id="id21" fill="none" stroke="none" d="M 25.521815274538298 143.00000000000003 a86.0,86.0 0 0,1 -11.493303480769221,-40.785679425670985"/><text fill="#e1ed5e" style="font-size:6.75px;font-family:Arial" text-anchor="middle"><textPath startOffset="21.407" xlink:href="#id21">September</textPath></text><line x1="15.003" x2="10.003" y1="100.73" y2="100.773" stroke="#e1ed5e" stroke-width=".3"/><path id="id22" fill="none" stroke="none" d="M 14.003168132696942 100.73817937305945 a86.0,86.0 0 0,1 10.791469493833604,-42.45332614584628"/><text fill="#e1ed5e" style="font-size:6.75px;font-family:Arial" text-anchor="middle"><textPath startOffset="22.146" xlink:href="#id22">October</textPath></text><line x1="26.388" x2="22.058" y1="57.5" y2="55" stroke="#e1ed5e" stroke-width=".3"/><path id="id23" fill="none" stroke="none" d="M 25.521815274538284 56.99999999999999 a86.0,86.0 0 0,1 29.574782752854787,-30.34633250058573"/><text fill="#e1ed5e" style="font-size:6.75px;font-family:Arial" text-anchor="middle"><textPath startOffset="21.407" xlink:href="#id23">November</textPath></text><line x1="56.87" x2="54.333" y1="26.755" y2="22.447" stroke="#e1ed5e" stroke-width=".3"/><path id="id24" fill="none" stroke="none" d="M 56.362301976729285 25.89364864446614 a86.0,86.0 0 0,1 42.16139366436587,-11.88097634709845"/><text fill="#e1ed5e" style="font-size:6.75px;font-family:Arial" text-anchor="middle"><textPath startOffset="22.146" xlink:href="#id24">December</textPath></text></svg>