<svg xmlns="http://www.w3.org/2000/svg" xmlns:ev="http://www.w3.org/2001/xml-events" xmlns:xlink="http://www.w3.org/1999/xlink" width="200mm" height="200mm" baseProfile="full" version="1.1" viewBox="0 0 200 200"><rect width="200" height="200" x="0" y="0" fill="#1a1a1a"/><text fill="#e1ed5e" alignment-baseline="middle" style="dominant-baseline:central;font-size:9px;font-family:Arial" x="100" y="100" text-anchor="middle">2023</text><line x1="100" x2="100" y1="15" y2="10" stroke="#e1ed5e" stroke-width=".3"/><path id="id1" fill="none" stroke="none" d="M 100.0 14.0 a86.0,86.0 0 0,1 42.46469731375804,11.215312516191453"/><text fill="#e1ed5e" style="font-size:6.75px;font-family:Arial" text-anchor="middle"><textPath startOffset="22.206" xlink:href="#id1">January</textPath></text><line x1="143.237" x2="145.78" y1="26.818" y2="22.514" stroke="#e1ed5e" stroke-width=".3"/><path id="id2" fill="none" stroke="none" d="M 143.74570117128098 25.957352633546492 a86.0,86.0 0 0,1 28.547481713284135,27.462654790039103"/><text fill="#e1ed5e" style="font-size:6.75px;font-family:Arial" text-anchor="middle"><textPath startOffset="19.986" xlink:href="#id2">February</textPath></text><line x1="172.234" x2="176.484" y1="55.198" y2="52.563" stroke="#e1ed5e" stroke-width=".3"/><path id="id3" fill="none" stroke="none" d="M 173.08426987136738 54.67131705675599 a86.0,86.0 0 0,1 12.851231095245387,41.99856678651699"/><text fill="#e1ed5e" style="font-size:6.75px;font-family:Arial" text-anchor="middle"><textPath startOffset="22.206" xlink:href="#id3">March</textPath></text><line x1="184.98" x2="189.979" y1="98.171" y2="98.064" stroke="#e1ed5e" stroke-width=".3"/><path id="id4" fill="none" stroke="none" d="M 185.9800911702706 98.14961562048488 a86.0,86.0 0 0,1 -9.607161424134198,41.387399972396054"/><text fill="#e1ed5e" style="font-size:6.75px;font-family:Arial" text-anchor="middle"><textPath startOffset="21.466" xlink:href="#id4">April</textPath></text><line x1="174.801" x2="179.201" y1="140.371" y2="142.746" stroke="#e1ed5e" stroke-width=".3"/><path id="id5" fill="none" stroke="none" d="M 175.68104954172406 140.8457921977663 a86.0,86.0 0 0,1 -30.038265399797805,32.042727171017184"/><text fill="#e1ed5e" style="font-size:6.75px;font-family:Arial" text-anchor="middle"><textPath startOffset="22.206" xlink:href="#id5">May</textPath></text><line x1="143.865" x2="146.446" y1="172.807" y2="177.09" stroke="#e1ed5e" stroke-width=".3"/><path id="id6" fill="none" stroke="none" d="M 144.38136562736335 173.6633856474863 a86.0,86.0 0 0,1 -40.68145358897372,12.25698825130547"/><text fill="#e1ed5e" style="font-size:6.75px;font-family:Arial" text-anchor="middle"><textPath startOffset="21.466" xlink:href="#id6">June</textPath></text><line x1="102.195" x2="102.324" y1="184.972" y2="189.97" stroke="#e1ed5e" stroke-width=".3"/><path id="id7" fill="none" stroke="none" d="M 102.22038585953345 185.97133177190398 a86.0,86.0 0 0,1 -42.740103519485714,-10.115201625700543"/><text fill="#e1ed5e" style="font-size:6.75px;font-family:Arial" text-anchor="middle"><textPath startOffset="22.206" xlink:href="#id7">July</textPath></text><line x1="58.667" x2="56.235" y1="174.274" y2="178.643" stroke="#e1ed5e" stroke-width=".3"/><path id="id8" fill="none" stroke="none" d="M 58.180547188652646 175.14741091055294 a86.0,86.0 0 0,1 -31.652253787137756,-30.449443065178592"/><text fill="#e1ed5e" style="font-size:6.75px;font-family:Arial" text-anchor="middle"><textPath startOffset="22.206" xlink:href="#id8">August</textPath></text><line x1="26.633" x2="22.317" y1="142.922" y2="145.446" stroke="#e1ed5e" stroke-width=".3"/><path id="id9" fill="none" stroke="none" d="M 25.769776987707644 143.4266507060508 a86.0,86.0 0 0,1 -11.730757126820373,-40.83630448921669"/><text fill="#e1ed5e" style="font-size:6.75px;font-family:Arial" text-anchor="middle"><textPath startOffset="21.466" xlink:href="#id9">September</textPath></text><path fill="#ff2803" stroke="none" d="M 80.0844068197444 106.66101706037122 l -43.50804250130801 14.5518042441179 a66.87706146926536,66.87706146926536 0 0,0 -0.3557469521609314,-1.0948765380659757 l 43.75208170448519 -13.80072880607412"/><path fill="#ff1602" stroke="none" d="M 79.97269907076064 106.31721596034903 l -43.41321754226419 13.693840808458452 a66.52173913043478,66.52173913043478 0 0,0 -0.33505804982530135,-1.0949890931581094 l 43.64250236459562 -12.944524742748294"/><path fill="#ff0c01" stroke="none" d="M 79.86692584326677 105.97154293290107 l -43.4527711024632 12.888249761157452 a66.32383808095952,66.32383808095952 0 0,0 -0.3152193995454079,-1.0973200827177614 l 43.66818313889472 -12.138372202935095"/><path fill="#ff1001" stroke="none" d="M 79.76711848015287 105.62410040840567 l -43.73318490004223 12.156440634317851 a66.3913043478261,66.3913043478261 0 0,0 -0.29658552262134524,-1.1037050621965883 l 43.93595849900535 -11.401844638945725"/><path fill="#ff2203" stroke="none" d="M 79.58551787078972 104.9243191809786 l -44.47550058220755 10.728244743824021 a66.75112443778112,66.75112443778112 0 0,0 -0.25981900643063416,-1.1192934796080125 l 44.65358015456874 -9.961082606867434"/><path fill="#ff2403" stroke="none" d="M 79.50377843672027 104.57218783832718 l -44.69308882753287 9.969895991006423 a66.79160419790105,66.79160419790105 0 0,0 -0.24065956841766006,-1.1242813839515888 l 44.85808243467497 -9.19910078763867"/><path fill="#ff5b08" stroke="none" d="M 79.4281124754447 104.21870165774334 l -45.97722131478571 9.428603940576517 a67.93403298350825,67.93403298350825 0 0,0 -0.2250559632331407,-1.1475555078958257 l 46.13270721099451 -8.635784705612737"/><path fill="#ff1302" stroke="none" d="M 79.35854240842038 103.8639653848113 l -44.6914745755576 8.36599401907419 a66.46776611694153,66.46776611694153 0 0,0 -0.20083886808984136,-1.1264110305557011 l 44.82885988598663 -7.595464237785275"/><path fill="#ff1f03" stroke="none" d="M 79.29508885075956 103.50808413554451 l -45.05502190539362 7.633783426243781 a66.69715142428785,66.69715142428785 0 0,0 -0.18204589089235795,-1.1335999363631044 l 45.17974955064727 -6.857104260187463"/><path fill="#ff1602" stroke="none" d="M 79.23777060512086 103.15116336523772 l -44.99742969517714 6.829432874885525 a66.5127436281859,66.5127436281859 0 0,0 -0.16205655462979948,-1.133423165635861 l 45.108320300823536 -6.053864237269263"/><path fill="#ff1001" stroke="none" d="M 79.18660465613746 102.79330883721812 l -44.992417906533454 6.03830929407636 a66.39580209895053,66.39580209895053 0 0,0 -0.14227194699036796,-1.1340474001304934 l 45.089691362770665 -5.262944139658457"/><path fill="#ff1902" stroke="none" d="M 79.1416061653843 102.43462659150553 l -45.277323091417884 5.284844828637517 a66.58470764617691,66.58470764617691 0 0,0 -0.12307929076428098,-1.1395613730601168 l 45.36158468368321 -4.504687133692618"/><path fill="#ff2904" stroke="none" d="M 79.10278846688536 102.07522291339032 l -45.67488620591881 4.5357999209998185 a66.89955022488755,66.89955022488755 0 0,0 -0.10393451595090626,-1.1469087227947368 l 45.74619531814679 -3.748909809656516"/><path fill="#ff2d04" stroke="none" d="M 79.07016306316243 101.71520430193888 l -45.83584979206772 3.7562570116352654 a66.98950524737631,66.98950524737631 0 0,0 -0.0842901553337737,-1.1500722006890656 l 45.89371650606583 -2.966711674449439"/><path fill="#ff1101" stroke="none" d="M 79.04373962182676 101.35467743843564 l -45.31920347792144 2.9295733767155006 a66.41379310344828,66.41379310344828 0 0,0 -0.06392691000100835,-1.1414579217371876 l 45.36291673880998 -2.149043738642875"/><path fill="#ff1502" stroke="none" d="M 79.0095281055655 100.63252640178507 l -45.48310219661467 1.3705867652301584 a66.50374812593704,66.50374812593704 0 0,0 -0.02463152305407577,-1.1445300886115133 l 45.49995578235375 -0.5874668608285163"/><line x1="15.007" x2="10.008" y1="101.097" y2="101.162" stroke="#e1ed5e" stroke-width=".3"/><path id="id10" fill="none" stroke="none" d="M 14.007167355692545 101.11028546245083 a86.0,86.0 0 0,1 10.666146001902534,-42.60595125391555"/><text fill="#e1ed5e" style="font-size:6.75px;font-family:Arial" text-anchor="middle"><textPath startOffset="22.206" xlink:href="#id10">October</textPath></text><path fill="#ff2003" stroke="none" d="M 79.00175016825051 100.2711162175752 l -45.70683509104093 0.5901379565681734 a66.71064467766116,66.71064467766116 0 0,0 -0.0049419967020970885,-1.1483459882808067 l 45.71022138503253 0.19671750991630862"/><path fill="red" stroke="none" d="M 79.00019446554 99.90962569577889 l -45.08054205866191 -0.19400763572676977 a66.08095952023987,66.08095952023987 0 0,0 0.014685684177880298,-1.1374224237685897 l 45.07052336736632 0.9699663175558314"/><path fill="#ff2003" stroke="none" d="M 79.00486145842228 99.54816195383935 l -45.718049593536215 -0.9839017809627996 a66.72863568215892,66.72863568215892 0 0,0 0.03459817970787103,-1.1481451473126543 l 45.6943397193727 1.7707170757004482"/><path fill="#ff1402" stroke="none" d="M 79.01574976396665 99.18683210126434 l -45.451643314843714 -1.7613122638495753 a66.48575712143928,66.48575712143928 0 0,0 0.05415863848627557,-1.1432032602053286 l 45.41459106812394 2.5434266306779127"/><path fill="#ff1f03" stroke="none" d="M 79.05617556472873 98.46500227214037 l -45.58388175438565 -3.34089674673583 a66.70614692653673,66.70614692653673 0 0,0 0.09378730573421264,-1.144442684491634 l 45.51961996483194 4.125053348435243"/><path fill="#ff2b04" stroke="none" d="M 79.08570108090925 98.10471618934814 l -45.7480691498552 -4.145755741740713 a66.93553223388305,66.93553223388305 0 0,0 0.11386331454210169,-1.1465880385642895 l 45.66992870963087 4.932619311009432"/><path fill="#ff2403" stroke="none" d="M 79.12142395522702 97.74499172005258 l -45.54024811307948 -4.918613048401062 a66.80509745127435,66.80509745127435 0 0,0 0.13332276436875,-1.1422280262713274 l 45.44883499570714 5.701784812997252"/><path fill="#ff0f01" stroke="none" d="M 79.16333360222342 97.38593545837743 l -45.0337975198037 -5.649716275329466 a66.38680659670165,66.38680659670165 0 0,0 0.15200682242586683,-1.1326273872618606 l 44.92987469831999 6.424062004655986"/><path fill="#ff1d02" stroke="none" d="M 79.21141760316559 97.0276538004421 l -45.19257042790089 -6.461622172951962 a66.65217391304347,66.65217391304347 0 0,0 0.17216607734482337,-1.1343593389294468 l 45.074648457116766 7.238580624273501"/><path fill="#ff2e04" stroke="none" d="M 79.32604984820605 96.31383870115002 l -45.28431959785748 -8.07418539373287 a66.99850074962518,66.99850074962518 0 0,0 0.21220746554694822,-1.1336207663562896 l 45.13862640840067 8.852484237551732"/><path fill="#ff2703" stroke="none" d="M 79.3925641242962 95.95851677861259 l -45.00621623999822 -8.826516257975461 a66.86356821589206,66.86356821589206 0 0,0 0.23122282864161292,-1.1275246295726835 l 44.84761411544161 9.599916543711547"/><path fill="#ff2603" stroke="none" d="M 79.46518482838121 95.60439243477599 l -44.81682728609885 -9.593326427421854 a66.83208395802099,66.83208395802099 0 0,0 0.25047905408796817,-1.1228484854695129 l 44.64505384500884 10.363353082441327"/><path fill="#ff2503" stroke="none" d="M 79.54389044137918 95.25157060432595 l -44.64067258359127 -10.362336070362577 a66.82758620689654,66.82758620689654 0 0,0 0.2697517784803628,-1.1182952726503923 l 44.45568800485009 11.129216574672366"/><path fill="#ff2a04" stroke="none" d="M 79.62865764111835 94.90015583598534 l -44.542950126755784 -11.151062126884897 a66.91754122938531,66.91754122938531 0 0,0 0.2893503907546728,-1.1149850890306283 l 44.3444034041308 11.916143641464389"/><path fill="#ff3f05" stroke="none" d="M 79.71946130924805 94.55025226153421 l -44.76573821950945 -12.029363930740717 a67.35382308845577,67.35382308845577 0 0,0 0.3105114822807341,-1.1170750120585424 l 44.552039966662356 12.798150246218203"/><path fill="#ff3304" stroke="none" d="M 79.81627453868168 94.20196356495316 l -44.3099563029584 -12.728608579830835 a67.10194902548726,67.10194902548726 0 0,0 0.3284611739109968,-1.1074077916316944 l 44.08428923193569 13.489445758209069"/><path fill="#33ff50" stroke="none" d="M 79.91906864156998 93.8553929516997 l -54.38926064654231 -16.642685956908476 a77.87856071964018,77.87856071964018 0 0,0 0.40327935287075395,-1.2785057546212535 l 54.09472580990335 17.576441877956142"/><path fill="#4dd2ff" stroke="none" d="M 80.02781315780177 93.51064311812611 l -59.91656052659468 -19.468070645621676 a84.0,84.0 0 0,0 0.4586508249129104,-1.3713075883107113 l 59.572572407909995 20.496551336854708"/><line x1="26.266" x2="21.929" y1="57.711" y2="55.224" stroke="#e1ed5e" stroke-width=".3"/><path id="id11" fill="none" stroke="none" d="M 25.398753493254645 57.213857153982495 a86.0,86.0 0 0,1 29.58750427330803,-30.492523968695096"/><text fill="#e1ed5e" style="font-size:6.75px;font-family:Arial" text-anchor="middle"><textPath startOffset="21.466" xlink:href="#id11">November</textPath></text><line x1="56.763" x2="54.22" y1="26.818" y2="22.514" stroke="#e1ed5e" stroke-width=".3"/><path id="id12" fill="none" stroke="none" d="M 56.25429882871897 25.957352633546506 a86.0,86.0 0 0,1 42.265352541879196,-11.944610805530505"/><text fill="#e1ed5e" style="font-size:6.75px;font-family:Arial" text-anchor="middle"><textPath startOffset="22.206" xlink:href="#id12">December</textPath></text></svg>