<?xml version="1.0" encoding="utf-8" ?>
<svg baseProfile="full" height="200mm" version="1.1" viewBox="0,0,200,200" width="200mm" xmlns="http://www.w3.org/2000/svg" xmlns:ev="http://www.w3.org/2001/xml-events" xmlns:xlink="http://www.w3.org/1999/xlink"><defs /><rect fill="#1a1a1a" height="200" width="200" x="0" y="0" /><text alignment-baseline="middle" fill="#e1ed5e" style="dominant-baseline: central; font-size:9.0px; font-family:Arial;" text-anchor="middle" x="100.0" y="100.0">2023</text><line stroke="#e1ed5e" stroke-width="0.3" x1="100.0" x2="100.0" y1="15.0" y2="10.0" /><path d="M 100.0 14.0 a86.0,86.0 0 0,1 42.46469731375804,11.215312516191453" fill="none" id="id1" stroke="none" /><text fill="#e1ed5e" style="font-size:6.75px; font-family:Arial;" text-anchor="middle"><textPath startOffset="22.20632615414155" xlink:href="#id1">January</textPath></text><line stroke="#e1ed5e" stroke-width="0.3" x1="143.23703022742887" x2="145.7803849466894" y1="26.81831364943548" y2="22.513508569990506" /><path d="M 143.74570117128098 25.957352633546492 a86.0,86.0 0 0,1 28.547481713284135,27.462654790039103" fill="none" id="id2" stroke="none" /><text fill="#e1ed5e" style="font-size:6.75px; font-family:Arial;" text-anchor="middle"><textPath startOffset="19.985693538727396" xlink:href="#id2">February</textPath></text><line stroke="#e1ed5e" stroke-width="0.3" x1="172.23445277983987" x2="176.4835382374775" y1="55.19839476539836" y2="52.563006222186495" /><path d="M 173.08426987136738 54.67131705675599 a86.0,86.0 0 0,1 12.851231095245387,41.99856678651699" fill="none" id="id3" stroke="none" /><text fill="#e1ed5e" style="font-size:6.75px; font-family:Arial;" text-anchor="middle"><textPath startOffset="22.20632615414155" xlink:href="#id3">March</textPath></text><line stroke="#e1ed5e" stroke-width="0.3" x1="184.98032266829074" x2="189.97916517819016" y1="98.17113171792111" y2="98.06355123074" /><path d="M 185.9800911702706 98.14961562048488 a86.0,86.0 0 0,1 -9.607161424134198,41.387399972396054" fill="none" id="id4" stroke="none" /><text fill="#e1ed5e" style="font-size:6.75px; font-family:Arial;" text-anchor="middle"><textPath startOffset="21.466115282336823" xlink:href="#id4">April</textPath></text><line stroke="#e1ed5e" stroke-width="0.3" x1="174.80103733775053" x2="179.2010983576182" y1="140.37084112569926" y2="142.7455964860345" /><path d="M 175.68104954172406 140.8457921977663 a86.0,86.0 0 0,1 -30.038265399797805,32.042727171017184" fill="none" id="id5" stroke="none" /><text fill="#e1ed5e" style="font-size:6.75px; font-family:Arial;" text-anchor="middle"><textPath startOffset="22.206326154141568" xlink:href="#id5">May</textPath></text><line stroke="#e1ed5e" stroke-width="0.3" x1="143.8653032363475" x2="146.44561519142675" y1="172.8068346515853" y2="177.08958963109032" /><path d="M 144.38136562736335 173.6633856474863 a86.0,86.0 0 0,1 -40.68145358897372,12.25698825130547" fill="none" id="id6" stroke="none" /><text fill="#e1ed5e" style="font-size:6.75px; font-family:Arial;" text-anchor="middle"><textPath startOffset="21.466115282336833" xlink:href="#id6">June</textPath></text><line stroke="#e1ed5e" stroke-width="0.3" x1="102.19456741930631" x2="102.32365962044197" y1="184.97166512339345" y2="189.96999836594603" /><path d="M 102.22038585953345 185.97133177190398 a86.0,86.0 0 0,1 -42.740103519485714,-10.115201625700543" fill="none" id="id7" stroke="none" /><text fill="#e1ed5e" style="font-size:6.75px; font-family:Arial;" text-anchor="middle"><textPath startOffset="22.20632615414155" xlink:href="#id7">July</textPath></text><line stroke="#e1ed5e" stroke-width="0.3" x1="58.666819895761336" x2="56.23545636021788" y1="174.27360380694188" y2="178.64263932499728" /><path d="M 58.180547188652646 175.14741091055294 a86.0,86.0 0 0,1 -31.652253787137756,-30.449443065178592" fill="none" id="id8" stroke="none" /><text fill="#e1ed5e" style="font-size:6.75px; font-family:Arial;" text-anchor="middle"><textPath startOffset="22.20632615414155" xlink:href="#id8">August</textPath></text><line stroke="#e1ed5e" stroke-width="0.3" x1="26.63291911575756" x2="22.317208475507996" y1="142.92168965132927" y2="145.44649492493687" /><path d="M 25.769776987707644 143.4266507060508 a86.0,86.0 0 0,1 -11.730757126820373,-40.83630448921669" fill="none" id="id9" stroke="none" /><text fill="#e1ed5e" style="font-size:6.75px; font-family:Arial;" text-anchor="middle"><textPath startOffset="21.46611528233685" xlink:href="#id9">September</textPath></text><path d="M 80.0844068197444 106.66101706037122 l -41.471054870079726 13.87050847549231 a64.72915957808779,64.72915957808779 0 0,0 -0.3443213671465796,-1.0597122031647088 l 41.703668488242556 -13.154597372349798" fill="#ff2303" stroke="none" /><path d="M 79.97269907076064 106.31721596034903 l -41.38066948720616 13.05271372603454 a64.39047294998299,64.39047294998299 0 0,0 -0.3243232449417338,-1.0599071296869569 l 41.59921950465403 -12.338479623795536" fill="#ff1402" stroke="none" /><path d="M 79.86692584326677 105.97154293290107 l -41.41837120328017 12.284839360635074 a64.20183735964613,64.20183735964613 0 0,0 -0.30513409971111866,-1.0622118309275619 l 41.62369793987739 -11.570070054202917" fill="#ff0c01" stroke="none" /><path d="M 79.76711848015287 105.62410040840567 l -41.68565640659351 11.587292546096643 a64.26614494726098,64.26614494726098 0 0,0 -0.28709193731432747,-1.068375899568754 l 41.87893642024961 -10.868025713352349" fill="#ff0f01" stroke="none" /><path d="M 79.58551787078972 104.9243191809786 l -42.3932178737653 10.225962853129843 a64.60911874787342,64.60911874787342 0 0,0 -0.2514815620084158,-1.083375987248289 l 42.56296000170427 -9.49471820853298" fill="#ff1e03" stroke="none" /><path d="M 79.50377843672027 104.57218783832718 l -42.600618932102954 9.503118961961686 a64.64770330044233,64.64770330044233 0 0,0 -0.23293479116595775,-1.088193796342401 l 42.75788776199335 -8.768411346203122" fill="#ff2003" stroke="none" /><path d="M 79.4281124754447 104.21870165774334 l -43.82463007527754 8.987169472314072 a65.73664511738687,65.73664511738687 0 0,0 -0.217776324131973,-1.110436784952302 l 43.97283633238518 -8.231468960293816" fill="#ff4f07" stroke="none" /><path d="M 79.35854240842038 103.8639653848113 l -42.59908025721914 7.974309508347885 a64.33902687989112,64.33902687989112 0 0,0 -0.19440667390303137,-1.0903358696488095 l 42.73003337346137 -7.239854887965862" fill="#ff1202" stroke="none" /><path d="M 79.29508885075956 103.50808413554451 l -42.94560679338881 7.276380023912669 a64.55767267778157,64.55767267778157 0 0,0 -0.17620631144802248,-1.0972368695889128 l 43.06449485919813 -6.536063924630542" fill="#ff1c02" stroke="none" /><path d="M 79.23777060512086 103.15116336523772 l -42.89071097246316 6.509688076115792 a64.38189860496767,64.38189860496767 0 0,0 -0.1568648066417272,-1.097112092299353 l 42.996409830121486 -5.770430511836038" fill="#ff1402" stroke="none" /><path d="M 79.18660465613746 102.79330883721812 l -42.885933828976796 5.755603830018888 a64.27043211976863,64.27043211976863 0 0,0 -0.13771773549726113,-1.097745853601775 l 42.978653073720906 -5.016540222129705" fill="#ff0f01" stroke="none" /><path d="M 79.1416061653843 102.43462659150553 l -43.15750013892414 5.037415550508725 a64.45049336509017,64.45049336509017 0 0,0 -0.11913427712164411,-1.103035446273993 l 43.23781671754684 -4.29378378234995" fill="#ff1702" stroke="none" /><path d="M 79.10278846688536 102.07522291339032 l -43.53644988678495 4.323439911088429 a64.75059544062606,64.75059544062606 0 0,0 -0.10059591988334238,-1.1100675933898922 l 43.604420402945365 -3.5733909291499706" fill="#ff2403" stroke="none" /><path d="M 79.07016306316243 101.71520430193888 l -43.68987737580758 3.580394145081671 a64.83633889077917,64.83633889077917 0 0,0 -0.08158091414760839,-1.1131067572059863 l 43.745034848619525 -2.8278142513789244" fill="#ff2803" stroke="none" /><path d="M 79.04373962182676 101.35467743843564 l -43.197419742446115 2.792414718452128 a64.28758080979927,64.28758080979927 0 0,0 -0.06188031432279702,-1.1049145810775098 l 43.239086407656444 -2.0484284210391803" fill="#ff1001" stroke="none" /><path d="M 79.0095281055655 100.63252640178507 l -43.35364494508212 1.3064177489335713 a64.37332425995237,64.37332425995237 0 0,0 -0.023842460992933256,-1.107865475190055 l 43.36970946876006 -0.5599624579533874" fill="#ff1402" stroke="none" /><line stroke="#e1ed5e" stroke-width="0.3" x1="15.007084014347285" x2="10.007500721073583" y1="101.09737516637583" y2="101.16192664675087" /><path d="M 14.007167355692545 101.11028546245083 a86.0,86.0 0 0,1 10.666146001902534,-42.60595125391555" fill="none" id="id10" stroke="none" /><text fill="#e1ed5e" style="font-size:6.75px; font-family:Arial;" text-anchor="middle"><textPath startOffset="22.20632615414155" xlink:href="#id10">October</textPath></text><path d="M 79.00175016825051 100.2711162175752 l -43.566902968370904 0.5625084966077174 a64.57053419530453,64.57053419530453 0 0,0 -0.00478345500313684,-1.111506480901336 l 43.57013072066355 0.18750746249729403" fill="#ff1c02" stroke="none" /><path d="M 79.00019446554 99.90962569577889 l -42.96993212764052 -0.184924460947592 a63.970330044232725,63.970330044232725 0 0,0 0.014216622618753387,-1.1010930890902368 l 42.96038249790405 0.9245538080983008" fill="#ff0200" stroke="none" /><path d="M 79.00486145842228 99.54816195383935 l -43.577592423046056 -0.9378368319799888 a64.58768288533516,64.58768288533516 0 0,0 0.03348811550749682,-1.1113075207199696 l 43.554992613082916 1.687814500124953" fill="#ff1d03" stroke="none" /><path d="M 79.01574976396665 99.18683210126434 l -43.32365892555398 -1.678850008828921 a64.35617556992173,64.35617556992173 0 0,0 0.0524239024710864,-1.106585724691351 l 43.2883414148494 2.4243468401432815" fill="#ff1302" stroke="none" /><path d="M 79.05617556472873 98.46500227214037 l -43.44970614043415 -3.184480485303081 a64.56624702279687,64.56624702279687 0 0,0 0.09077865577075893,-1.1077295343065918 l 43.388453000843896 3.931923936817451" fill="#ff1c02" stroke="none" /><path d="M 79.08570108090925 98.10471618934814 l -43.606206504390734 -3.951657072103584 a64.7848928206873,64.7848928206873 0 0,0 0.11020488494874754,-1.1097481518234336 l 43.531724493759754 4.701680754631448" fill="#ff2603" stroke="none" /><path d="M 79.12142395522702 97.74499172005258 l -43.40811536712518 -4.688330246271093 a64.6605648179653,64.6605648179653 0 0,0 0.1290429260052135,-1.1055609848257897 l 43.320982088116374 5.434834969421744" fill="#ff2003" stroke="none" /><path d="M 79.16333360222342 97.38593545837743 l -42.92537610479008 -5.385204210176238 a64.26185777475331,64.26185777475331 0 0,0 0.14714129665650402,-1.096373568835413 l 42.826318809075744 6.123296121076311" fill="#ff0f01" stroke="none" /><path d="M 79.21141760316559 97.0276538004421 l -43.07671548034079 -6.15909777315673 a64.514800952705,64.514800952705 0 0,0 0.16664513036289222,-1.0979831963973463 l 42.964314456538595 6.899680081946169" fill="#ff1a02" stroke="none" /><path d="M 79.32604984820605 96.31383870115002 l -43.164169078406935 -7.696162967677193 a64.8449132357945,64.8449132357945 0 0,0 0.20538630771460492,-1.0971818684626269 l 43.02529704678247 8.438022913602392" fill="#ff2903" stroke="none" /><path d="M 79.3925641242962 95.95851677861259 l -42.89908614315448 -8.413270719663988 a64.71629806056482,64.71629806056482 0 0,0 0.22379729194920422,-1.0913150755348184 l 42.74790955529028 9.150461451362208" fill="#ff2303" stroke="none" /><path d="M 79.46518482838121 95.60439243477599 l -42.718564123605766 -9.144179875392851 a64.68628785301124,64.68628785301124 0 0,0 0.24243685419209046,-1.086796880253222 l 42.55483288241164 9.878154925196032" fill="#ff2203" stroke="none" /><path d="M 79.54389044137918 95.25157060432595 l -42.55065674572051 -9.877185528245567 a64.68200068050356,64.68200068050356 0 0,0 0.26109105101020763,-1.0823909659498048 l 42.37433289444949 10.60816172585477" fill="#ff2103" stroke="none" /><path d="M 79.62865764111835 94.90015583598534 l -42.457509521978096 -10.628984498896001 a64.76774413065668,64.76774413065668 0 0,0 0.2800547020737618,-1.0791650085930176 l 42.26825848803403 11.358245933037882" fill="#ff2503" stroke="none" /><path d="M 79.71946130924805 94.55025226153421 l -42.669866977929146 -11.466165401693447 a65.18359986389927,65.18359986389927 0 0,0 0.3005064194730579,-1.0810814778599367 l 42.46617378788973 12.198958182972326" fill="#ff3705" stroke="none" /><path d="M 79.81627453868168 94.20196356495316 l -42.235424153490186 -12.132672363231748 a64.94351820347057,64.94351820347057 0 0,0 0.31789574724453745,-1.0717864252673377 l 42.02032250913394 12.857888175245623" fill="#ff2d04" stroke="none" /><path d="M 79.91906864156998 93.8553929516997 l -51.842829117122704 -15.86349793796645 a75.21558353181354,75.21558353181354 0 0,0 0.38948963067901504,-1.2347885668920398 l 51.56208400267548 16.753536671284905" fill="#50ff2b" stroke="none" /><path d="M 80.02781315780177 93.51064311812611 l -57.111348301872184 -18.556601941696005 a81.0504253147329,81.0504253147329 0 0,0 0.44254576702552956,-1.3231555151179024 l 56.78346524107488 19.53693055973623" fill="#42ffd4" stroke="none" /><path d="M 80.2630227832202 92.82701384747504 l -59.210931650339425 -21.518958457574875 a84.0,84.0 0 0,0 0.5055816459934896,-1.3547074518826343 l 58.83174541584431 22.534989046486853" fill="#4dd2ff" stroke="none" /><path d="M 80.38941819471856 92.48833698450439 l -40.12329040881876 -15.36887786484459 a63.96604287172508,63.96604287172508 0 0,0 0.4027011169612538,-1.0248304179558172 l 39.85279574197582 16.05725728769617" fill="#ff0100" stroke="none" /><path d="M 80.52162464483688 92.15188598940014 l -41.62235212844352 -16.770236682330456 a65.87383463763186,65.87383463763186 0 0,0 0.4328171705541843,-1.048101109246966 l 41.327513271003134 17.484212362030735" fill="#ff5507" stroke="none" /><path d="M 80.65960295795068 91.81776055985345 l -40.01665682637018 -16.929635262174592 a64.45049336509017,64.45049336509017 0 0,0 0.4410540310374344,-1.0180135133817199 l 39.71931208549007 17.61594792014291" fill="#ff1702" stroke="none" /><path d="M 80.803312248108 91.48605970444005 l -40.177837937883005 -17.819309134415903 a64.9520925484859,64.9520925484859 0 0,0 0.4620805778631307,-1.0181333022197372 l 39.865155043056525 18.50826444547771" fill="#ff2d04" stroke="none" /><path d="M 80.95270993114464 91.15688171328213 l -39.620177988070886 -18.394528524675408 a64.68200068050356,64.68200068050356 0 0,0 0.4775435338778252,-1.005828471131557 l 39.29767626035131 19.0737994114475" fill="#ff2103" stroke="none" /><path d="M 81.10775173730289 90.83032412892265 l -39.783642224509165 -19.309671305239085 a65.2221844164682,65.2221844164682 0 0,0 0.4989186123719797,-1.0057894781155086 l 39.44536359918377 19.991620371853553" fill="#ff3905" stroke="none" /><path d="M 81.43458229118936 90.18545643968196 l -38.7846041675929 -20.50334622376343 a64.87063627084042,64.87063627084042 0 0,0 0.5303696593451304,-0.9826944295750755 l 38.4259264090293 21.16792163667098" fill="#ff2a04" stroke="none" /><path d="M 81.6062741919709 89.86733742301443 l -38.01662063568969 -20.942444898823116 a64.40333446750594,64.40333446750594 0 0,0 0.5432646941050715,-0.966407271709361 l 37.650498300292185 21.593735680467258" fill="#ff1502" stroke="none" /><line stroke="#e1ed5e" stroke-width="0.3" x1="26.266209847984243" x2="21.928928074336255" y1="57.711370442889674" y2="55.22380399835377" /><path d="M 25.398753493254645 57.213857153982495 a86.0,86.0 0 0,1 29.58750427330803,-30.492523968695096" fill="none" id="id11" stroke="none" /><text fill="#e1ed5e" style="font-size:6.75px; font-family:Arial;" text-anchor="middle"><textPath startOffset="21.46611528233685" xlink:href="#id11">November</textPath></text><path d="M 81.78341655067845 89.55222093294921 l -37.959169908246 -21.770768479902152 a64.75916978564138,64.75916978564138 0 0,0 0.5629123777953559,-0.9621997243804722 l 37.57879785598031 22.420947616636514" fill="#ff2503" stroke="none" /><path d="M 81.96595687620814 89.24020034530311 l -40.07496959560554 -23.910259116987213 a67.66587274583192,67.66587274583192 0 0,0 0.6053975468627172,-0.9951143884753335 l 39.657456250456605 24.596541278669623" fill="#ffa00e" stroke="none" /><path d="M 82.15384107792192 88.93136811851018 l -37.09256427063838 -23.005731443099258 a64.64770330044233,64.64770330044233 0 0,0 0.5946739163678217,-0.9406313244439822 l 36.691062758024586 23.640810415257455" fill="#ff2003" stroke="none" /><path d="M 82.34701348167596 88.62581576622439 l -37.008203856414355 -23.84515098264206 a65.02497448111603,65.02497448111603 0 0,0 0.614341605848514,-0.9356844132622115 l 36.59226561520792 24.47865345988194" fill="#ff3004" stroke="none" /><path d="M 82.54541684631803 88.32363383020206 l -37.867952740560376 -25.33203333510228 a66.55978223885676,66.55978223885676 0 0,0 0.6452353921070261,-0.9468033200515219 l 37.42629288278461 25.98011467842422" fill="#ff720a" stroke="none" /><path d="M 82.7489923806493 88.02491185347247 l -36.080960815293906 -25.046228933890667 a64.92208234093229,64.92208234093229 0 0,0 0.6451628228860029,-0.9125370595390918 l 35.644485372604024 25.66359249376155" fill="#ff2c04" stroke="none" /><path d="M 83.17141714833178 87.43820079747576 l -35.561618461575584 -26.54518888302042 a65.37652262674379,65.37652262674379 0 0,0 0.68092468775961,-0.8960170719969239 l 35.099417833591865 27.15339073089837" fill="#ff4006" stroke="none" /><path d="M 83.39014120810768 87.1503855733568 l -34.84509879798956 -26.95664603909879 a65.0549846886696,65.0549846886696 0 0,0 0.6928229458401263,-0.8798147839452471 l 34.375921771555454 27.552453216997087" fill="#ff3204" stroke="none" /><path d="M 83.6137871275137 86.86637796730984 l -33.606511299829336 -26.935767323662205 a64.06893501190882,64.06893501190882 0 0,0 0.6971356314895607,-0.8546058539612692 l 33.13787717626338 27.51025734723156" fill="#ff0601" stroke="none" /><path d="M 83.84228863543731 86.58626213691792 l -33.490828884192915 -27.803269246112077 a64.52766247022797,64.52766247022797 0 0,0 0.7168389900375906,-0.8485112615479347 l 33.0072792806682 28.37563945728913" fill="#ff1b02" stroke="none" /><path d="M 84.07557802195018 86.31012108654704 l -33.20884052516751 -28.548917271368904 a64.79346716570262,64.79346716570262 0 0,0 0.7343510653542412,-0.8394902131172888 l 32.71249759623542 29.116323040689135" fill="#ff2603" stroke="none" /><path d="M 84.31358615837235 86.03803664274999 l -32.5043417133421 -28.9310503047474 a64.514800952705,64.514800952705 0 0,0 0.745472701217329,-0.8231695759588903 l 32.00152537150873 29.48627266797585" fill="#ff1a02" stroke="none" /><path d="M 84.5562425177563 85.77008943001954 l -32.294741318262446 -29.75644245695336 a64.91350799591697,64.91350799591697 0 0,0 0.7642257343867989,-0.8152227293454541 l 31.77774826190519 30.30793460317686" fill="#ff2c04" stroke="none" /><path d="M 84.80347519578584 85.50635884689758 l -31.40235945592155 -29.94990862573038 a64.39476012249065,64.39476012249065 0 0,0 0.7719267787188693,-0.7955383997492943 l 30.882168413499564 30.4860112210298" fill="#ff1502" stroke="none" /><path d="M 85.05521093208273 85.24692304244772 l -31.098789037621128 -30.699853030622084 a64.6991493705342,64.6991493705342 0 0,0 0.7892193251599227,-0.7858301665646104 l 30.56573391229389 31.230619047836804" fill="#ff2203" stroke="none" /><path d="M 85.31137513191541 84.99185889309783 l -30.97655560816205 -31.650377196522523 a65.28649200408302,65.28649200408302 0 0,0 0.8099154825155662,-0.7791380524847705 l 30.42715688203406 32.17889833576961" fill="#ff3c05" stroke="none" /><path d="M 85.57189188830299 84.74124197986013 l -29.73790666805575 -31.449966853623426 a64.28329363729159,64.28329363729159 0 0,0 0.8105575885169095,-0.7533249407692502 l 29.192141195743982 31.957196380467323" fill="#ff1001" stroke="none" /><path d="M 85.83668400450813 84.49514656593479 l -29.26153614311897 -32.03316435918476 a64.38618577747533,64.38618577747533 0 0,0 0.824722691654543,-0.7404441755631266 l 28.70580246386846 32.532107543517164" fill="#ff1402" stroke="none" /><path d="M 86.10567301691215 84.25364557470407 l -28.827773758922447 -32.67033685422579 a64.57053419530453,64.57053419530453 0 0,0 0.8397434911156303,-0.7282172805256995 l 28.261136469160043 33.16171912817117" fill="#ff1c02" stroke="none" /><path d="M 86.37877921826538 84.01681056812374 l -28.008084868383346 -32.86478747013087 a64.18040149710787,64.18040149710787 0 0,0 0.8470054547553179,-0.7093427097847222 l 27.43822187666892 33.3420313373094" fill="#ff0b01" stroke="none" /><path d="M 86.93701828274178 83.55741782278169 l -26.748221835474663 -33.66841086849262 a64.00034025178633,64.00034025178633 0 0,0 0.8684768300228053,-0.6778599413840092 l 26.16471245029243 34.12384919909985" fill="#ff0300" stroke="none" /><path d="M 87.22198572758235 83.33499621200491 l -26.308187942293035 -34.31096901026141 a64.23613473970738,64.23613473970738 0 0,0 0.8832586177992767,-0.6652520790549062 l 25.713683170735365 34.75873767882217" fill="#ff0e01" stroke="none" /><path d="M 87.51073957382395 83.11751280151077 l -25.711133474833467 -34.755291100966076 a64.23184756719974,64.23184756719974 0 0,0 0.8945192695370245,-0.6499062914389405 l 25.10906888894266 35.192716627221685" fill="#ff0d01" stroke="none" /><path d="M 87.80319425747018 82.90503203632743 l -25.208668527534247 -35.332314868503786 a64.40333446750594,64.40333446750594 0 0,0 0.9079915163241361,-0.6361060831001972 l 24.596745871626453 35.761005794367925" fill="#ff1502" stroke="none" /><path d="M 88.09926311788651 82.69761687909137 l -24.65991412455636 -35.852845595894365 a64.514800952705,64.514800952705 0 0,0 0.9203967384155681,-0.621455986340711 l 24.03911269173425 36.27201349453374" fill="#ff1a02" stroke="none" /><path d="M 88.39885842347998 82.49532879139004 l -23.852010238271493 -35.98969930083244 a64.1761143246002,64.1761143246002 0 0,0 0.9260704189233911,-0.6023419607923512 l 23.228972793563813 36.39494018578433" fill="#ff0b01" stroke="none" /><path d="M 88.70189139769569 82.29822771554957 l -23.404268388073877 -36.66959170540697 a64.50193943518204,64.50193943518204 0 0,0 0.941055184656446,-0.5892886702993005 l 22.76959405104519 37.0670247170292" fill="#ff1902" stroke="none" /><path d="M 89.00827224532344 82.1063720568725 l -22.666371292954317 -36.89898656417778 a64.30472949982988,64.30472949982988 0 0,0 0.9481515987981097,-0.5712507293352196 l 22.027857627938555 37.28368390297162" fill="#ff1101" stroke="none" /><line stroke="#e1ed5e" stroke-width="0.3" x1="56.762969772571076" x2="54.21961505331055" y1="26.818313649435495" y2="22.513508569990535" /><path d="M 56.25429882871897 25.957352633546506 a86.0,86.0 0 0,1 42.265352541879196,-11.944610805530505" fill="none" id="id12" stroke="none" /><text fill="#e1ed5e" style="font-size:6.75px; font-family:Arial;" text-anchor="middle"><textPath startOffset="22.20632615414155" xlink:href="#id12">December</textPath></text><path d="M 89.3179101791058 81.91981866633112 l -22.250295156703 -37.66017491951483 a64.74202109561074,64.74202109561074 0 0,0 0.964357892643153,-0.5586183364138346 l 21.59874053159453 38.037597413318714" fill="#ff2403" stroke="none" /><path d="M 89.63071344664047 81.73862282372117 l -21.300257495727166 -37.51193817238196 a64.13752977203131,64.13752977203131 0 0,0 0.96473812578139,-0.5368757224975405 l 20.65139528087373 37.87302929243968" fill="#ff0901" stroke="none" /><path d="M 90.26544431104013 81.39251694778311 l -20.123602090454106 -38.46601702349403 a64.41190881252126,64.41190881252126 0 0,0 0.9868502921341716,-0.50550304910442 l 19.45849131073117 38.80671259791095" fill="#ff1502" stroke="none" /><path d="M 90.58718382345135 81.22770947309562 l -19.92929225593452 -39.74564648952543 a65.4622660768969,65.4622660768969 0 0,0 1.011637441360082,-0.49640609898222 l 19.24218354756401 40.08280774864248" fill="#ff4406" stroke="none" /><path d="M 90.91171255644093 81.06846463323043 l -19.09746362501942 -39.78134607624887 a65.12786662129976,65.12786662129976 0 0,0 1.0148217623839157,-0.47647242471345996 l 18.409863651335893 40.10418348360234" fill="#ff3505" stroke="none" /><path d="M 91.23893434514133 80.91482961587045 l -18.33474325170934 -39.94054064805281 a64.94780537597822,64.94780537597822 0 0,0 1.0200451228255893,-0.45766451301019345 l 17.64451601041698 40.250225491579535" fill="#ff2d04" stroke="none" /><path d="M 91.56875222667455 80.76684994638697 l -17.42935997673225 -39.75941696690414 a64.41190881252126,64.41190881252126 0 0,0 1.019291594768114,-0.4364074662220714 l 16.74238462417383 40.053543961089" fill="#ff1502" stroke="none" /><path d="M 91.90106846888425 80.62456947434976 l -16.558856607851165 -39.61448180627161 a63.936032664171485,63.936032664171485 0 0,0 1.0190676879629708,-0.41570329718589766 l 15.874505050299815 39.89364598964109" fill="#ff0000" stroke="none" /></svg>